ISO-10303-21;
HEADER;
FILE_DESCRIPTION (( 'STEP AP203' ),
    '1' );
FILE_NAME ('ALP0822.STEP',
    '2017-02-06T17:14:04',
    ( '' ),
    ( '' ),
    'SwSTEP 2.0',
    'SolidWorks 2012',
    '' );
FILE_SCHEMA (( 'CONFIG_CONTROL_DESIGN' ));
ENDSEC;

DATA;
#1 = B_SPLINE_CURVE_WITH_KNOTS ( 'NONE', 3,
 ( #536, #504, #506, #542, #539, #516 ),
 .UNSPECIFIED., .F., .F.,
 ( 4, 2, 4 ),
 ( 0.01308037864374530700, 0.01451372472143622000, 0.01594707079912713300 ),
 .UNSPECIFIED. ) ;
#2 = B_SPLINE_CURVE_WITH_KNOTS ( 'NONE', 3,
 ( #556, #549, #562, #565 ),
 .UNSPECIFIED., .F., .F.,
 ( 4, 4 ),
 ( 2.380735395183170800E-007, 0.002862739625950606900 ),
 .UNSPECIFIED. ) ;
#3 = B_SPLINE_CURVE_WITH_KNOTS ( 'NONE', 3,
 ( #415, #386, #379, #380, #368 ),
 .UNSPECIFIED., .F., .F.,
 ( 4, 1, 4 ),
 ( 2.309401076754191700E-007, 0.002829247259136841800, 0.005658263578166008300 ),
 .UNSPECIFIED. ) ;
#4 = B_SPLINE_CURVE_WITH_KNOTS ( 'NONE', 3,
 ( #382, #369, #384, #402, #373, #385, #394, #371 ),
 .UNSPECIFIED., .F., .F.,
 ( 4, 2, 2, 4 ),
 ( 0.002862739625950607300, 0.003575690241327571900, 0.004288640856704537000, 0.005714542087458465400 ),
 .UNSPECIFIED. ) ;
#5 = B_SPLINE_CURVE_WITH_KNOTS ( 'NONE', 3,
 ( #523, #554, #580, #545, #555, #577 ),
 .UNSPECIFIED., .F., .F.,
 ( 4, 2, 4 ),
 ( 0.01594707079912713300, 0.01737936994313395200, 0.01881166908714077300 ),
 .UNSPECIFIED. ) ;
#6 = ADVANCED_BREP_SHAPE_REPRESENTATION ( 'ALP0822', ( #17, #839 ), #849 ) ;
#7 = B_SPLINE_CURVE_WITH_KNOTS ( 'NONE', 3,
 ( #375, #390, #439, #450 ),
 .UNSPECIFIED., .F., .F.,
 ( 4, 4 ),
 ( 2.380735395181216000E-007, 0.002862739625950607300 ),
 .UNSPECIFIED. ) ;
#8 = B_SPLINE_CURVE_WITH_KNOTS ( 'NONE', 3,
 ( #392, #401, #374, #372 ),
 .UNSPECIFIED., .F., .F.,
 ( 4, 4 ),
 ( 2.380735397898237700E-007, 0.002862739625950601700 ),
 .UNSPECIFIED. ) ;
#9 = B_SPLINE_CURVE_WITH_KNOTS ( 'NONE', 3,
 ( #377, #398, #406, #378, #387, #393 ),
 .UNSPECIFIED., .F., .F.,
 ( 4, 2, 4 ),
 ( 0.008074787694677700700, 0.009507609547502533100, 0.01094043140032736400 ),
 .UNSPECIFIED. ) ;
#10 = B_SPLINE_CURVE_WITH_KNOTS ( 'NONE', 3,
 ( #412, #444, #451, #421, #445 ),
 .UNSPECIFIED., .F., .F.,
 ( 4, 1, 4 ),
 ( 2.309401076759609000E-007, 0.002829247259136841800, 0.005658263578166007400 ),
 .UNSPECIFIED. ) ;
#11 = B_SPLINE_CURVE_WITH_KNOTS ( 'NONE', 3,
 ( #422, #441, #455, #452 ),
 .UNSPECIFIED., .F., .F.,
 ( 4, 4 ),
 ( 2.380735395177281000E-007, 0.002862739625950606000 ),
 .UNSPECIFIED. ) ;
#12 = B_SPLINE_CURVE_WITH_KNOTS ( 'NONE', 3,
 ( #494, #460, #470, #482, #486, #487, #501, #488 ),
 .UNSPECIFIED., .F., .F.,
 ( 4, 2, 2, 4 ),
 ( 0.002862739625950601700, 0.003575690241327565900, 0.004288640856704530000, 0.005714542087458460200 ),
 .UNSPECIFIED. ) ;
#13 = B_SPLINE_CURVE_WITH_KNOTS ( 'NONE', 3,
 ( #529, #526, #541, #508, #524 ),
 .UNSPECIFIED., .F., .F.,
 ( 4, 1, 4 ),
 ( 2.309401076754191400E-007, 0.002829247259136842600, 0.005658263578166010900 ),
 .UNSPECIFIED. ) ;
#14 = B_SPLINE_CURVE_WITH_KNOTS ( 'NONE', 3,
 ( #530, #543, #509, #538, #531, #525, #532, #517 ),
 .UNSPECIFIED., .F., .F.,
 ( 4, 2, 2, 4 ),
 ( 0.002862739625950606000, 0.003575690241327569300, 0.004288640856704533500, 0.005714542087458463600 ),
 .UNSPECIFIED. ) ;
#15 = B_SPLINE_CURVE_WITH_KNOTS ( 'NONE', 3,
 ( #533, #534, #510, #511, #514, #518, #520, #522 ),
 .UNSPECIFIED., .F., .F.,
 ( 4, 2, 2, 4 ),
 ( 0.002862739625950606900, 0.003575690241327570600, 0.004288640856704534400, 0.005714542087458462800 ),
 .UNSPECIFIED. ) ;
#16 = UNCERTAINTY_MEASURE_WITH_UNIT (LENGTH_MEASURE( 1.000000000000000100E-005 ), #572, 'distance_accuracy_value', 'NONE');
#17 = MANIFOLD_SOLID_BREP ( 'M6 Tapped Hole1', #186 ) ;
#18 = B_SPLINE_CURVE_WITH_KNOTS ( 'NONE', 3,
 ( #395, #413, #396, #411 ),
 .UNSPECIFIED., .F., .F.,
 ( 4, 4 ),
 ( 0.01059765118702874600, 0.01345140864051629100 ),
 .UNSPECIFIED. ) ;
#19 = B_SPLINE_CURVE_WITH_KNOTS ( 'NONE', 3,
 ( #442, #425, #429, #424, #434, #431 ),
 .UNSPECIFIED., .F., .F.,
 ( 4, 2, 4 ),
 ( 0.01345140864051629100, 0.01487330031550761700, 0.01629519199049894400 ),
 .UNSPECIFIED. ) ;
#20 = B_SPLINE_CURVE_WITH_KNOTS ( 'NONE', 3,
 ( #492, #498, #461, #495 ),
 .UNSPECIFIED., .F., .F.,
 ( 4, 4 ),
 ( 0.007681543135825502600, 0.01054250903941428300 ),
 .UNSPECIFIED. ) ;
#21 = B_SPLINE_CURVE_WITH_KNOTS ( 'NONE', 3,
 ( #496, #500, #502, #463, #473, #464 ),
 .UNSPECIFIED., .F., .F.,
 ( 4, 2, 4 ),
 ( 0.004830576529833470100, 0.006256059832829486400, 0.007681543135825502600 ),
 .UNSPECIFIED. ) ;
#22 = B_SPLINE_CURVE_WITH_KNOTS ( 'NONE', 3,
 ( #475, #480, #481, #483, #484 ),
 .UNSPECIFIED., .F., .F.,
 ( 4, 1, 4 ),
 ( 2.309401076759608500E-007, 0.002829247259136842600, 0.005658263578166009200 ),
 .UNSPECIFIED. ) ;
#23 = B_SPLINE_CURVE_WITH_KNOTS ( 'NONE', 3,
 ( #466, #479, #528, #512, #519, #535 ),
 .UNSPECIFIED., .F., .F.,
 ( 4, 2, 4 ),
 ( 0.005211237090595900200, 0.006643012392636800900, 0.008074787694677700700 ),
 .UNSPECIFIED. ) ;
#24 = ADVANCED_FACE ( 'NONE', ( #68 ), #205, .T. ) ;
#25 = ADVANCED_FACE ( 'NONE', ( #206 ), #603, .F. ) ;
#26 = ADVANCED_FACE ( 'NONE', ( #201 ), #249, .T. ) ;
#27 = ADVANCED_FACE ( 'NONE', ( #236 ), #634, .F. ) ;
#28 = ADVANCED_FACE ( 'NONE', ( #299 ), #204, .F. ) ;
#29 = ADVANCED_FACE ( 'NONE', ( #242 ), #267, .T. ) ;
#30 = ADVANCED_FACE ( 'NONE', ( #82 ), #272, .T. ) ;
#31 = ADVANCED_FACE ( 'NONE', ( #238 ), #268, .F. ) ;
#32 = ADVANCED_FACE ( 'NONE', ( #275 ), #627, .F. ) ;
#33 = ADVANCED_FACE ( 'NONE', ( #288 ), #250, .T. ) ;
#34 = ADVANCED_FACE ( 'NONE', ( #285 ), #251, .T. ) ;
#35 = ADVANCED_FACE ( 'NONE', ( #244 ), #291, .F. ) ;
#36 = ADVANCED_FACE ( 'NONE', ( #258 ), #650, .F. ) ;
#37 = ADVANCED_FACE ( 'NONE', ( #253 ), #255, .F. ) ;
#38 = ADVANCED_FACE ( 'NONE', ( #278 ), #254, .T. ) ;
#39 = ADVANCED_FACE ( 'NONE', ( #293 ), #651, .F. ) ;
#40 = ADVANCED_FACE ( 'NONE', ( #284 ), #286, .F. ) ;
#41 = ADVANCED_FACE ( 'NONE', ( #245, #252 ), #683, .T. ) ;
#42 = ADVANCED_FACE ( 'NONE', ( #259 ), #257, .F. ) ;
#43 = ADVANCED_FACE ( 'NONE', ( #297 ), #296, .T. ) ;
#44 = ADVANCED_FACE ( 'NONE', ( #269 ), #283, .T. ) ;
#45 = ADVANCED_FACE ( 'NONE', ( #260 ), #241, .T. ) ;
#46 = ADVANCED_FACE ( 'NONE', ( #256 ), #277, .T. ) ;
#47 = ADVANCED_FACE ( 'NONE', ( #263, #276 ), #661, .F. ) ;
#48 = ADVANCED_FACE ( 'NONE', ( #274, #239 ), #671, .T. ) ;
#49 = ADVANCED_FACE ( 'NONE', ( #247 ), #666, .F. ) ;
#50 = ORIENTED_EDGE ( 'NONE', *, *, #754, .T. ) ;
#51 = ORIENTED_EDGE ( 'NONE', *, *, #767, .F. ) ;
#52 = ORIENTED_EDGE ( 'NONE', *, *, #747, .F. ) ;
#53 = ORIENTED_EDGE ( 'NONE', *, *, #738, .T. ) ;
#54 = ORIENTED_EDGE ( 'NONE', *, *, #761, .T. ) ;
#55 = VERTEX_POINT ( 'NONE', #693 ) ;
#56 = ORIENTED_EDGE ( 'NONE', *, *, #729, .T. ) ;
#57 = ORIENTED_EDGE ( 'NONE', *, *, #736, .F. ) ;
#58 = ORIENTED_EDGE ( 'NONE', *, *, #733, .F. ) ;
#59 = ORIENTED_EDGE ( 'NONE', *, *, #731, .F. ) ;
#60 = ORIENTED_EDGE ( 'NONE', *, *, #754, .F. ) ;
#61 = VERTEX_POINT ( 'NONE', #697 ) ;
#62 = VERTEX_POINT ( 'NONE', #672 ) ;
#63 = ORIENTED_EDGE ( 'NONE', *, *, #730, .F. ) ;
#64 = ORIENTED_EDGE ( 'NONE', *, *, #734, .T. ) ;
#65 = ORIENTED_EDGE ( 'NONE', *, *, #739, .F. ) ;
#66 = ORIENTED_EDGE ( 'NONE', *, *, #728, .F. ) ;
#67 = ORIENTED_EDGE ( 'NONE', *, *, #737, .T. ) ;
#68 = FACE_OUTER_BOUND ( 'NONE', #216, .T. ) ;
#69 = VERTEX_POINT ( 'NONE', #673 ) ;
#70 = VERTEX_POINT ( 'NONE', #695 ) ;
#71 = ORIENTED_EDGE ( 'NONE', *, *, #759, .T. ) ;
#72 = VERTEX_POINT ( 'NONE', #705 ) ;
#73 = ORIENTED_EDGE ( 'NONE', *, *, #732, .T. ) ;
#74 = VERTEX_POINT ( 'NONE', #716 ) ;
#75 = VERTEX_POINT ( 'NONE', #708 ) ;
#76 = ORIENTED_EDGE ( 'NONE', *, *, #765, .T. ) ;
#77 = ORIENTED_EDGE ( 'NONE', *, *, #757, .F. ) ;
#78 = ORIENTED_EDGE ( 'NONE', *, *, #749, .T. ) ;
#79 = ORIENTED_EDGE ( 'NONE', *, *, #761, .F. ) ;
#80 = ORIENTED_EDGE ( 'NONE', *, *, #731, .T. ) ;
#81 = ORIENTED_EDGE ( 'NONE', *, *, #756, .F. ) ;
#82 = FACE_OUTER_BOUND ( 'NONE', #207, .T. ) ;
#83 = VERTEX_POINT ( 'NONE', #698 ) ;
#84 = VERTEX_POINT ( 'NONE', #707 ) ;
#85 = VERTEX_POINT ( 'NONE', #691 ) ;
#86 = VERTEX_POINT ( 'NONE', #710 ) ;
#87 = VERTEX_POINT ( 'NONE', #720 ) ;
#88 = VERTEX_POINT ( 'NONE', #721 ) ;
#89 = ORIENTED_EDGE ( 'NONE', *, *, #734, .F. ) ;
#90 = ORIENTED_EDGE ( 'NONE', *, *, #760, .F. ) ;
#91 = ORIENTED_EDGE ( 'NONE', *, *, #753, .T. ) ;
#92 = ORIENTED_EDGE ( 'NONE', *, *, #726, .F. ) ;
#93 = VERTEX_POINT ( 'NONE', #689 ) ;
#94 = VERTEX_POINT ( 'NONE', #711 ) ;
#95 = ORIENTED_EDGE ( 'NONE', *, *, #758, .F. ) ;
#96 = VERTEX_POINT ( 'NONE', #690 ) ;
#97 = VERTEX_POINT ( 'NONE', #692 ) ;
#98 = VERTEX_POINT ( 'NONE', #722 ) ;
#99 = VERTEX_POINT ( 'NONE', #715 ) ;
#100 = ORIENTED_EDGE ( 'NONE', *, *, #746, .T. ) ;
#101 = ORIENTED_EDGE ( 'NONE', *, *, #751, .T. ) ;
#102 = ORIENTED_EDGE ( 'NONE', *, *, #748, .F. ) ;
#103 = ORIENTED_EDGE ( 'NONE', *, *, #745, .F. ) ;
#104 = ORIENTED_EDGE ( 'NONE', *, *, #740, .T. ) ;
#105 = ORIENTED_EDGE ( 'NONE', *, *, #741, .T. ) ;
#106 = ORIENTED_EDGE ( 'NONE', *, *, #735, .T. ) ;
#107 = ORIENTED_EDGE ( 'NONE', *, *, #742, .F. ) ;
#108 = ORIENTED_EDGE ( 'NONE', *, *, #752, .T. ) ;
#109 = ORIENTED_EDGE ( 'NONE', *, *, #755, .T. ) ;
#110 = ORIENTED_EDGE ( 'NONE', *, *, #738, .F. ) ;
#111 = ORIENTED_EDGE ( 'NONE', *, *, #743, .T. ) ;
#112 = ORIENTED_EDGE ( 'NONE', *, *, #804, .F. ) ;
#113 = ORIENTED_EDGE ( 'NONE', *, *, #746, .F. ) ;
#114 = ORIENTED_EDGE ( 'NONE', *, *, #787, .F. ) ;
#115 = ORIENTED_EDGE ( 'NONE', *, *, #811, .F. ) ;
#116 = ORIENTED_EDGE ( 'NONE', *, *, #785, .F. ) ;
#117 = ORIENTED_EDGE ( 'NONE', *, *, #737, .F. ) ;
#118 = ORIENTED_EDGE ( 'NONE', *, *, #747, .T. ) ;
#119 = ORIENTED_EDGE ( 'NONE', *, *, #742, .T. ) ;
#120 = ORIENTED_EDGE ( 'NONE', *, *, #802, .F. ) ;
#121 = ORIENTED_EDGE ( 'NONE', *, *, #755, .F. ) ;
#122 = ORIENTED_EDGE ( 'NONE', *, *, #765, .F. ) ;
#123 = ORIENTED_EDGE ( 'NONE', *, *, #778, .F. ) ;
#124 = ORIENTED_EDGE ( 'NONE', *, *, #750, .T. ) ;
#125 = ORIENTED_EDGE ( 'NONE', *, *, #799, .T. ) ;
#126 = ORIENTED_EDGE ( 'NONE', *, *, #767, .T. ) ;
#127 = ORIENTED_EDGE ( 'NONE', *, *, #763, .T. ) ;
#128 = ORIENTED_EDGE ( 'NONE', *, *, #791, .F. ) ;
#129 = ORIENTED_EDGE ( 'NONE', *, *, #727, .F. ) ;
#130 = ORIENTED_EDGE ( 'NONE', *, *, #814, .T. ) ;
#131 = ORIENTED_EDGE ( 'NONE', *, *, #740, .F. ) ;
#132 = ORIENTED_EDGE ( 'NONE', *, *, #744, .T. ) ;
#133 = ORIENTED_EDGE ( 'NONE', *, *, #735, .F. ) ;
#134 = ORIENTED_EDGE ( 'NONE', *, *, #728, .T. ) ;
#135 = ORIENTED_EDGE ( 'NONE', *, *, #787, .T. ) ;
#136 = ORIENTED_EDGE ( 'NONE', *, *, #766, .T. ) ;
#137 = ORIENTED_EDGE ( 'NONE', *, *, #784, .T. ) ;
#138 = ORIENTED_EDGE ( 'NONE', *, *, #752, .F. ) ;
#139 = ORIENTED_EDGE ( 'NONE', *, *, #751, .F. ) ;
#140 = ORIENTED_EDGE ( 'NONE', *, *, #814, .F. ) ;
#141 = ORIENTED_EDGE ( 'NONE', *, *, #773, .F. ) ;
#142 = ORIENTED_EDGE ( 'NONE', *, *, #791, .T. ) ;
#143 = ORIENTED_EDGE ( 'NONE', *, *, #768, .T. ) ;
#144 = ORIENTED_EDGE ( 'NONE', *, *, #762, .F. ) ;
#145 = ORIENTED_EDGE ( 'NONE', *, *, #803, .F. ) ;
#146 = ORIENTED_EDGE ( 'NONE', *, *, #748, .T. ) ;
#147 = ORIENTED_EDGE ( 'NONE', *, *, #733, .T. ) ;
#148 = ORIENTED_EDGE ( 'NONE', *, *, #758, .T. ) ;
#149 = ORIENTED_EDGE ( 'NONE', *, *, #811, .T. ) ;
#150 = ORIENTED_EDGE ( 'NONE', *, *, #730, .T. ) ;
#151 = ORIENTED_EDGE ( 'NONE', *, *, #759, .F. ) ;
#152 = ORIENTED_EDGE ( 'NONE', *, *, #750, .F. ) ;
#153 = ORIENTED_EDGE ( 'NONE', *, *, #763, .F. ) ;
#154 = ORIENTED_EDGE ( 'NONE', *, *, #753, .F. ) ;
#155 = ORIENTED_EDGE ( 'NONE', *, *, #749, .F. ) ;
#156 = ORIENTED_EDGE ( 'NONE', *, *, #732, .F. ) ;
#157 = ORIENTED_EDGE ( 'NONE', *, *, #744, .F. ) ;
#158 = ORIENTED_EDGE ( 'NONE', *, *, #729, .F. ) ;
#159 = ORIENTED_EDGE ( 'NONE', *, *, #801, .T. ) ;
#160 = ORIENTED_EDGE ( 'NONE', *, *, #766, .F. ) ;
#161 = ORIENTED_EDGE ( 'NONE', *, *, #801, .F. ) ;
#162 = ORIENTED_EDGE ( 'NONE', *, *, #802, .T. ) ;
#163 = ORIENTED_EDGE ( 'NONE', *, *, #745, .T. ) ;
#164 = ORIENTED_EDGE ( 'NONE', *, *, #799, .F. ) ;
#165 = ORIENTED_EDGE ( 'NONE', *, *, #743, .F. ) ;
#166 = ORIENTED_EDGE ( 'NONE', *, *, #768, .F. ) ;
#167 = ORIENTED_EDGE ( 'NONE', *, *, #756, .T. ) ;
#168 = ORIENTED_EDGE ( 'NONE', *, *, #764, .F. ) ;
#169 = ORIENTED_EDGE ( 'NONE', *, *, #812, .T. ) ;
#170 = ORIENTED_EDGE ( 'NONE', *, *, #779, .T. ) ;
#171 = ORIENTED_EDGE ( 'NONE', *, *, #739, .T. ) ;
#172 = ORIENTED_EDGE ( 'NONE', *, *, #757, .T. ) ;
#173 = ORIENTED_EDGE ( 'NONE', *, *, #779, .F. ) ;
#174 = ORIENTED_EDGE ( 'NONE', *, *, #773, .T. ) ;
#175 = EDGE_LOOP ( 'NONE', ( #157, #118, #122, #77, #123 ) ) ;
#176 = EDGE_LOOP ( 'NONE', ( #132, #145, #220 ) ) ;
#177 = EDGE_LOOP ( 'NONE', ( #121, #141, #167 ) ) ;
#178 = EDGE_LOOP ( 'NONE', ( #196, #234, #184 ) ) ;
#179 = EDGE_LOOP ( 'NONE', ( #90, #104, #71, #58 ) ) ;
#180 = EDGE_LOOP ( 'NONE', ( #156, #130, #148, #161 ) ) ;
#181 = EDGE_LOOP ( 'NONE', ( #110, #50, #51, #63, #57 ) ) ;
#182 = EDGE_LOOP ( 'NONE', ( #131, #115, #147, #111 ) ) ;
#183 = EDGE_LOOP ( 'NONE', ( #154, #124, #126, #171, #127, #119, #159 ) ) ;
#184 = ORIENTED_EDGE ( 'NONE', *, *, #778, .T. ) ;
#185 = ORIENTED_EDGE ( 'NONE', *, *, #741, .F. ) ;
#186 = CLOSED_SHELL ( 'NONE', ( #31, #35, #46, #28, #24, #34, #25, #32, #49, #39, #36, #27, #33, #43, #47, #42, #48, #38, #45, #30, #26, #29, #44, #41, #40, #37 ) ) ;
#187 = EDGE_LOOP ( 'NONE', ( #165, #151 ) ) ;
#188 = EDGE_LOOP ( 'NONE', ( #112, #172, #158, #120, #116 ) ) ;
#189 = EDGE_LOOP ( 'NONE', ( #101, #106, #80, #102 ) ) ;
#190 = EDGE_LOOP ( 'NONE', ( #92, #109, #53 ) ) ;
#191 = VERTEX_POINT ( 'NONE', #712 ) ;
#192 = ORIENTED_EDGE ( 'NONE', *, *, #764, .T. ) ;
#193 = VERTEX_POINT ( 'NONE', #723 ) ;
#194 = VERTEX_POINT ( 'NONE', #713 ) ;
#195 = VERTEX_POINT ( 'NONE', #699 ) ;
#196 = ORIENTED_EDGE ( 'NONE', *, *, #804, .T. ) ;
#197 = VERTEX_POINT ( 'NONE', #702 ) ;
#198 = EDGE_LOOP ( 'NONE', ( #113, #140 ) ) ;
#199 = VERTEX_POINT ( 'NONE', #703 ) ;
#200 = VERTEX_POINT ( 'NONE', #714 ) ;
#201 = FACE_OUTER_BOUND ( 'NONE', #177, .T. ) ;
#202 = VERTEX_POINT ( 'NONE', #701 ) ;
#203 = VERTEX_POINT ( 'NONE', #704 ) ;
#204 = CYLINDRICAL_SURFACE ( 'NONE', #798, 4.575000000000000200 ) ;
#205 = CYLINDRICAL_SURFACE ( 'NONE', #775, 6.850000000000002300 ) ;
#206 = FACE_OUTER_BOUND ( 'NONE', #219, .T. ) ;
#207 = EDGE_LOOP ( 'NONE', ( #136, #168, #211 ) ) ;
#208 = ORIENTED_EDGE ( 'NONE', *, *, #726, .T. ) ;
#209 = EDGE_LOOP ( 'NONE', ( #59, #105, #108, #103 ) ) ;
#210 = ORIENTED_EDGE ( 'NONE', *, *, #784, .F. ) ;
#211 = ORIENTED_EDGE ( 'NONE', *, *, #736, .T. ) ;
#212 = ORIENTED_EDGE ( 'NONE', *, *, #803, .T. ) ;
#213 = EDGE_LOOP ( 'NONE', ( #133, #135, #146, #223 ) ) ;
#214 = EDGE_LOOP ( 'NONE', ( #170, #164, #230 ) ) ;
#215 = EDGE_LOOP ( 'NONE', ( #139, #114 ) ) ;
#216 = EDGE_LOOP ( 'NONE', ( #100, #73, #89, #95 ) ) ;
#217 = EDGE_LOOP ( 'NONE', ( #169, #125, #137, #174, #208, #192, #212 ) ) ;
#218 = EDGE_LOOP ( 'NONE', ( #67, #91, #64, #107, #54, #56, #76 ) ) ;
#219 = EDGE_LOOP ( 'NONE', ( #66, #78, #65, #60, #81 ) ) ;
#220 = ORIENTED_EDGE ( 'NONE', *, *, #727, .T. ) ;
#221 = EDGE_LOOP ( 'NONE', ( #166, #138 ) ) ;
#222 = VERTEX_POINT ( 'NONE', #719 ) ;
#223 = ORIENTED_EDGE ( 'NONE', *, *, #762, .T. ) ;
#224 = EDGE_LOOP ( 'NONE', ( #173, #162, #79, #153, #155, #128 ) ) ;
#225 = VERTEX_POINT ( 'NONE', #717 ) ;
#226 = EDGE_LOOP ( 'NONE', ( #185, #144, #163, #143 ) ) ;
#227 = ORIENTED_EDGE ( 'NONE', *, *, #760, .T. ) ;
#228 = EDGE_LOOP ( 'NONE', ( #160, #150, #152, #117, #52, #129 ) ) ;
#229 = EDGE_LOOP ( 'NONE', ( #134, #210, #142 ) ) ;
#230 = ORIENTED_EDGE ( 'NONE', *, *, #785, .T. ) ;
#231 = VERTEX_POINT ( 'NONE', #706 ) ;
#232 = VERTEX_POINT ( 'NONE', #709 ) ;
#233 = VERTEX_POINT ( 'NONE', #694 ) ;
#234 = ORIENTED_EDGE ( 'NONE', *, *, #812, .F. ) ;
#235 = VERTEX_POINT ( 'NONE', #718 ) ;
#236 = FACE_OUTER_BOUND ( 'NONE', #224, .T. ) ;
#237 = EDGE_LOOP ( 'NONE', ( #149, #227 ) ) ;
#238 = FACE_OUTER_BOUND ( 'NONE', #209, .T. ) ;
#239 = FACE_OUTER_BOUND ( 'NONE', #237, .T. ) ;
#240 = CIRCLE ( 'NONE', #792, 6.850000000000001400 ) ;
#241 = CONICAL_SURFACE ( 'NONE', #808, 1.552307674620876200, 1.047197551196596500 ) ;
#242 = FACE_OUTER_BOUND ( 'NONE', #229, .T. ) ;
#243 = LINE ( 'NONE', #381, #262 ) ;
#244 = FACE_OUTER_BOUND ( 'NONE', #189, .T. ) ;
#245 = FACE_BOUND ( 'NONE', #221, .T. ) ;
#246 = LINE ( 'NONE', #416, #271 ) ;
#247 = FACE_OUTER_BOUND ( 'NONE', #228, .T. ) ;
#248 = VECTOR ( 'NONE', #437, 999.9999999999998900 ) ;
#249 = CONICAL_SURFACE ( 'NONE', #818, 1.552307674620876200, 1.047197551196596500 ) ;
#250 = CONICAL_SURFACE ( 'NONE', #789, 6.850000000000001400, 1.232653798090249000 ) ;
#251 = CONICAL_SURFACE ( 'NONE', #813, 6.850000000000001400, 1.232653798090249000 ) ;
#252 = FACE_OUTER_BOUND ( 'NONE', #217, .T. ) ;
#253 = FACE_OUTER_BOUND ( 'NONE', #226, .T. ) ;
#254 = CONICAL_SURFACE ( 'NONE', #817, 1.552307674620876200, 1.047197551196596500 ) ;
#255 = CONICAL_SURFACE ( 'NONE', #781, 3.024999999999999900, 0.7853981633974491700 ) ;
#256 = FACE_OUTER_BOUND ( 'NONE', #190, .T. ) ;
#257 = CYLINDRICAL_SURFACE ( 'NONE', #786, 4.575000000000000200 ) ;
#258 = FACE_OUTER_BOUND ( 'NONE', #188, .T. ) ;
#259 = FACE_OUTER_BOUND ( 'NONE', #182, .T. ) ;
#260 = FACE_OUTER_BOUND ( 'NONE', #176, .T. ) ;
#261 = VECTOR ( 'NONE', #370, 1000.000000000000000 ) ;
#262 = VECTOR ( 'NONE', #388, 1000.000000000000000 ) ;
#263 = FACE_BOUND ( 'NONE', #187, .T. ) ;
#264 = VECTOR ( 'NONE', #409, 1000.000000000000000 ) ;
#265 = VECTOR ( 'NONE', #389, 1000.000000000000000 ) ;
#266 = LINE ( 'NONE', #427, #270 ) ;
#267 = CONICAL_SURFACE ( 'NONE', #774, 1.552307674620876200, 1.047197551196596500 ) ;
#268 = CONICAL_SURFACE ( 'NONE', #782, 3.024999999999999900, 0.7853981633974491700 ) ;
#269 = FACE_OUTER_BOUND ( 'NONE', #214, .T. ) ;
#270 = VECTOR ( 'NONE', #417, 999.9999999999998900 ) ;
#271 = VECTOR ( 'NONE', #446, 1000.000000000000000 ) ;
#272 = CONICAL_SURFACE ( 'NONE', #806, 1.552307674620876200, 1.047197551196596500 ) ;
#273 = LINE ( 'NONE', #391, #264 ) ;
#274 = FACE_BOUND ( 'NONE', #215, .T. ) ;
#275 = FACE_OUTER_BOUND ( 'NONE', #181, .T. ) ;
#276 = FACE_OUTER_BOUND ( 'NONE', #198, .T. ) ;
#277 = CONICAL_SURFACE ( 'NONE', #819, 1.552307674620876200, 1.047197551196596500 ) ;
#278 = FACE_OUTER_BOUND ( 'NONE', #178, .T. ) ;
#279 = CIRCLE ( 'NONE', #795, 4.575000000000000200 ) ;
#280 = LINE ( 'NONE', #404, #265 ) ;
#281 = CIRCLE ( 'NONE', #790, 4.899999999999999500 ) ;
#282 = LINE ( 'NONE', #414, #287 ) ;
#283 = CONICAL_SURFACE ( 'NONE', #807, 1.552307674620876200, 1.047197551196596500 ) ;
#284 = FACE_OUTER_BOUND ( 'NONE', #213, .T. ) ;
#285 = FACE_OUTER_BOUND ( 'NONE', #218, .T. ) ;
#286 = CYLINDRICAL_SURFACE ( 'NONE', #783, 2.499999999999999100 ) ;
#287 = VECTOR ( 'NONE', #456, 1000.000000000000100 ) ;
#288 = FACE_OUTER_BOUND ( 'NONE', #183, .T. ) ;
#289 = LINE ( 'NONE', #376, #261 ) ;
#290 = CIRCLE ( 'NONE', #769, 6.850000000000002300 ) ;
#291 = CYLINDRICAL_SURFACE ( 'NONE', #810, 2.499999999999999100 ) ;
#292 = LINE ( 'NONE', #458, #294 ) ;
#293 = FACE_OUTER_BOUND ( 'NONE', #175, .T. ) ;
#294 = VECTOR ( 'NONE', #428, 1000.000000000000000 ) ;
#295 = CIRCLE ( 'NONE', #820, 2.499999999999999600 ) ;
#296 = CYLINDRICAL_SURFACE ( 'NONE', #793, 6.850000000000002300 ) ;
#297 = FACE_OUTER_BOUND ( 'NONE', #180, .T. ) ;
#298 = LINE ( 'NONE', #418, #248 ) ;
#299 = FACE_OUTER_BOUND ( 'NONE', #179, .T. ) ;
#300 = CIRCLE ( 'NONE', #824, 4.899999999999999500 ) ;
#301 = CALENDAR_DATE ( 2017, 6, 2 ) ;
#302 = CIRCLE ( 'NONE', #831, 4.899999999999999500 ) ;
#303 = LINE ( 'NONE', #465, #304 ) ;
#304 = VECTOR ( 'NONE', #503, 1000.000000000000000 ) ;
#305 = LINE ( 'NONE', #423, #329 ) ;
#306 = CIRCLE ( 'NONE', #800, 4.899999999999999500 ) ;
#307 = LINE ( 'NONE', #490, #328 ) ;
#308 = VECTOR ( 'NONE', #454, 1000.000000000000100 ) ;
#309 = VECTOR ( 'NONE', #578, 1000.000000000000000 ) ;
#310 = CIRCLE ( 'NONE', #834, 6.850000000000002300 ) ;
#311 = LINE ( 'NONE', #438, #347 ) ;
#312 = ORGANIZATION ( 'UNSPECIFIED', 'UNSPECIFIED', '' ) ;
#313 = PERSON_AND_ORGANIZATION ( #725, #312 ) ;
#314 = PERSON_AND_ORGANIZATION ( #725, #312 ) ;
#315 = APPROVAL_PERSON_ORGANIZATION ( #314, #840, #594 ) ;
#316 = COORDINATED_UNIVERSAL_TIME_OFFSET ( 1, 0, .AHEAD. ) ;
#317 = LOCAL_TIME ( 18, 14, 4.000000000000000000, #316 ) ;
#318 = DATE_AND_TIME ( #301, #317 ) ;
#319 = VECTOR ( 'NONE', #453, 1000.000000000000000 ) ;
#320 = LINE ( 'NONE', #449, #308 ) ;
#321 = LINE ( 'NONE', #564, #309 ) ;
#322 = VECTOR ( 'NONE', #497, 1000.000000000000000 ) ;
#323 = CIRCLE ( 'NONE', #842, 6.850000000000001400 ) ;
#324 = CIRCLE ( 'NONE', #837, 4.575000000000000200 ) ;
#325 = CIRCLE ( 'NONE', #847, 4.899999999999999500 ) ;
#326 = CIRCLE ( 'NONE', #823, 4.899999999999999500 ) ;
#327 = APPROVAL_DATE_TIME ( #318, #840 ) ;
#328 = VECTOR ( 'NONE', #491, 1000.000000000000000 ) ;
#329 = VECTOR ( 'NONE', #489, 1000.000000000000100 ) ;
#330 = CIRCLE ( 'NONE', #821, 4.575000000000000200 ) ;
#331 = CIRCLE ( 'NONE', #822, 4.575000000000000200 ) ;
#332 = CIRCLE ( 'NONE', #771, 4.899999999999999500 ) ;
#333 = SHAPE_DEFINITION_REPRESENTATION ( #851, #6 ) ;
#334 = PERSON_AND_ORGANIZATION ( #725, #312 ) ;
#335 = COORDINATED_UNIVERSAL_TIME_OFFSET ( 1, 0, .AHEAD. ) ;
#336 = LOCAL_TIME ( 18, 14, 4.000000000000000000, #335 ) ;
#337 = CALENDAR_DATE ( 2017, 6, 2 ) ;
#338 = DATE_AND_TIME ( #337, #336 ) ;
#339 = PERSON_AND_ORGANIZATION ( #725, #312 ) ;
#340 = CIRCLE ( 'NONE', #794, 2.499999999999999100 ) ;
#341 = APPROVAL_PERSON_ORGANIZATION ( #339, #830, #595 ) ;
#342 = CIRCLE ( 'NONE', #772, 3.024999999999999900 ) ;
#343 = COORDINATED_UNIVERSAL_TIME_OFFSET ( 1, 0, .AHEAD. ) ;
#344 = CIRCLE ( 'NONE', #770, 3.024999999999999900 ) ;
#345 = CALENDAR_DATE ( 2017, 6, 2 ) ;
#346 = LINE ( 'NONE', #459, #319 ) ;
#347 = VECTOR ( 'NONE', #420, 1000.000000000000000 ) ;
#348 = CIRCLE ( 'NONE', #797, 2.499999999999999600 ) ;
#349 = LOCAL_TIME ( 18, 14, 4.000000000000000000, #343 ) ;
#350 = CIRCLE ( 'NONE', #833, 2.499999999999999100 ) ;
#351 = LINE ( 'NONE', #493, #322 ) ;
#352 = PERSON_AND_ORGANIZATION ( #725, #312 ) ;
#353 = PERSON_AND_ORGANIZATION ( #725, #312 ) ;
#354 = CALENDAR_DATE ( 2017, 6, 2 ) ;
#355 = CALENDAR_DATE ( 2017, 6, 2 ) ;
#356 = APPROVAL_DATE_TIME ( #357, #830 ) ;
#357 = DATE_AND_TIME ( #345, #349 ) ;
#358 = APPROVAL_PERSON_ORGANIZATION ( #352, #848, #592 ) ;
#359 = LOCAL_TIME ( 18, 14, 4.000000000000000000, #362 ) ;
#360 = PERSON_AND_ORGANIZATION ( #725, #312 ) ;
#361 = LOCAL_TIME ( 18, 14, 4.000000000000000000, #365 ) ;
#362 = COORDINATED_UNIVERSAL_TIME_OFFSET ( 1, 0, .AHEAD. ) ;
#363 = DATE_AND_TIME ( #354, #361 ) ;
#364 = DATE_AND_TIME ( #355, #359 ) ;
#365 = COORDINATED_UNIVERSAL_TIME_OFFSET ( 1, 0, .AHEAD. ) ;
#366 = APPROVAL_DATE_TIME ( #364, #848 ) ;
#367 = PERSON_AND_ORGANIZATION ( #725, #312 ) ;
#368 = CARTESIAN_POINT ( 'NONE',  ( -1.026930507199155100E-015, 1.619153358045421600, 5.658032638058333700 ) ) ;
#369 = CARTESIAN_POINT ( 'NONE',  ( -2.657924020848225300, 5.900000000000003000, -4.123479489136038900 ) ) ;
#370 = DIRECTION ( 'NONE',  ( -0.0000000000000000000, -1.000000000000000000, -0.0000000000000000000 ) ) ;
#371 = CARTESIAN_POINT ( 'NONE',  ( -4.900000000000001200, 5.462349652362497000, -2.829016319029168600 ) ) ;
#372 = CARTESIAN_POINT ( 'NONE',  ( 2.450000000000003300, 5.900000000000000400, -4.243524478543753800 ) ) ;
#373 = CARTESIAN_POINT ( 'NONE',  ( -3.485139536111433700, 5.819974964479216700, -3.645886388720992700 ) ) ;
#374 = CARTESIAN_POINT ( 'NONE',  ( 3.284816352808461700, 5.900000000000002100, -3.761543032525885600 ) ) ;
#375 = CARTESIAN_POINT ( 'NONE',  ( 1.406822768960880600E-015, 5.462349652362497000, -5.658032638058335500 ) ) ;
#376 = CARTESIAN_POINT ( 'NONE',  ( -4.900000000000001200, 5.900000000000000400, -2.829016319029168600 ) ) ;
#377 = CARTESIAN_POINT ( 'NONE',  ( -4.900000000000001200, 5.900000000000000400, 0.0000000000000000000 ) ) ;
#378 = CARTESIAN_POINT ( 'NONE',  ( -4.900000000000000400, 5.704361199366301700, 1.908102400647344600 ) ) ;
#379 = CARTESIAN_POINT ( 'NONE',  ( 2.449999999999998800, 1.986472059154333700, 4.243524478543753800 ) ) ;
#380 = CARTESIAN_POINT ( 'NONE',  ( 0.8166666666666659900, 1.784956512274237700, 5.186529918220140100 ) ) ;
#381 = CARTESIAN_POINT ( 'NONE',  ( 3.061616997868382200E-016, 5.900000000000000400, -2.499999999999999100 ) ) ;
#382 = CARTESIAN_POINT ( 'NONE',  ( -2.450000000000000200, 5.900000000000000400, -4.243524478543752900 ) ) ;
#383 = DIRECTION ( 'NONE',  ( 0.0000000000000000000, 0.0000000000000000000, 1.000000000000000000 ) ) ;
#384 = CARTESIAN_POINT ( 'NONE',  ( -2.866780047720497200, 5.889655549373613600, -4.002896405799459600 ) ) ;
#385 = CARTESIAN_POINT ( 'NONE',  ( -4.097090796241142000, 5.705622561712028900, -3.292576163954174600 ) ) ;
#386 = CARTESIAN_POINT ( 'NONE',  ( 4.083333333333333000, 1.784956512274236100, 3.300519038867362600 ) ) ;
#387 = CARTESIAN_POINT ( 'NONE',  ( -4.900000000000001200, 5.594433541523297700, 2.371464305253565600 ) ) ;
#388 = DIRECTION ( 'NONE',  ( -0.0000000000000000000, 1.000000000000000000, -0.0000000000000000000 ) ) ;
#389 = DIRECTION ( 'NONE',  ( 3.624628615055125000E-020, 1.000000000000000000, -0.0000000000000000000 ) ) ;
#390 = CARTESIAN_POINT ( 'NONE',  ( -0.8015744623593756800, 5.729541139816368500, -5.195243406439620200 ) ) ;
#391 = CARTESIAN_POINT ( 'NONE',  ( 0.0000000000000000000, 0.4000000000000000200, -4.575000000000000200 ) ) ;
#392 = CARTESIAN_POINT ( 'NONE',  ( 4.899999999999998600, 5.462349652362805200, -2.829016319029630500 ) ) ;
#393 = CARTESIAN_POINT ( 'NONE',  ( -4.900000000000001200, 5.462349652362497900, 2.829016319029165900 ) ) ;
#394 = CARTESIAN_POINT ( 'NONE',  ( -4.500213138368579300, 5.595611939573350600, -3.059833371210545700 ) ) ;
#395 = CARTESIAN_POINT ( 'NONE',  ( -4.900000000000001200, 1.619153358045422700, 2.829016319029165900 ) ) ;
#396 = CARTESIAN_POINT ( 'NONE',  ( -4.900000000000001200, 1.885714285714287000, 0.9451820643606820800 ) ) ;
#397 = CARTESIAN_POINT ( 'NONE',  ( 0.0000000000000000000, 5.900000000000000400, 0.0000000000000000000 ) ) ;
#398 = CARTESIAN_POINT ( 'NONE',  ( -4.900000000000000400, 5.900000000000000400, 0.4788956954621532700 ) ) ;
#399 = DIRECTION ( 'NONE',  ( -0.0000000000000000000, 1.000000000000000000, -0.0000000000000000000 ) ) ;
#400 = DIRECTION ( 'NONE',  ( -1.000000000000000000, 0.0000000000000000000, 0.0000000000000000000 ) ) ;
#401 = CARTESIAN_POINT ( 'NONE',  ( 4.098425537640467900, 5.729541139816402200, -3.291805550647974900 ) ) ;
#402 = CARTESIAN_POINT ( 'NONE',  ( -3.279940946353840000, 5.849623796534998200, -3.764357849754872200 ) ) ;
#403 = DIRECTION ( 'NONE',  ( 0.0000000000000000000, 0.0000000000000000000, 1.000000000000000000 ) ) ;
#404 = CARTESIAN_POINT ( 'NONE',  ( 6.849999999999998800, -2.482870601312761500E-019, 8.388830574159371800E-016 ) ) ;
#405 = DIRECTION ( 'NONE',  ( 0.0000000000000000000, 1.000000000000000000, 0.0000000000000000000 ) ) ;
#406 = CARTESIAN_POINT ( 'NONE',  ( -4.900000000000001200, 5.857668300799563400, 0.9639280668291906300 ) ) ;
#407 = DIRECTION ( 'NONE',  ( 3.624628615055125000E-020, 1.000000000000000000, -0.0000000000000000000 ) ) ;
#408 = CARTESIAN_POINT ( 'NONE',  ( 0.0000000000000000000, 5.375000000000000900, 0.0000000000000000000 ) ) ;
#409 = DIRECTION ( 'NONE',  ( -0.0000000000000000000, -1.000000000000000000, -0.0000000000000000000 ) ) ;
#410 = CARTESIAN_POINT ( 'NONE',  ( -3.801353073780885300E-015, 1.200000000000000000, 0.0000000000000000000 ) ) ;
#411 = CARTESIAN_POINT ( 'NONE',  ( -4.900000000000001200, 1.885714285714287000, 6.000994025002155000E-016 ) ) ;
#412 = CARTESIAN_POINT ( 'NONE',  ( 1.332331122662549600E-015, 1.619153358045420900, -5.658032638058335500 ) ) ;
#413 = CARTESIAN_POINT ( 'NONE',  ( -4.900000000000001200, 1.784626502934857100, 1.887887807470507200 ) ) ;
#414 = CARTESIAN_POINT ( 'NONE',  ( 6.849999999999997900, 1.200000000000000000, 0.0000000000000000000 ) ) ;
#415 = CARTESIAN_POINT ( 'NONE',  ( 4.899999999999999500, 1.619153358045420500, 2.829016319029169100 ) ) ;
#416 = CARTESIAN_POINT ( 'NONE',  ( 5.602759106099141700E-016, 0.4000000000000000200, 4.575000000000000200 ) ) ;
#417 = DIRECTION ( 'NONE',  ( 8.659560562354941500E-017, 0.7071067811865469100, -0.7071067811865482400 ) ) ;
#418 = CARTESIAN_POINT ( 'NONE',  ( 0.0000000000000000000, 5.900000000000000400, 3.024999999999999900 ) ) ;
#419 = DIRECTION ( 'NONE',  ( 3.624628615055125000E-020, 1.000000000000000000, -0.0000000000000000000 ) ) ;
#420 = DIRECTION ( 'NONE',  ( -0.0000000000000000000, 1.000000000000000000, -0.0000000000000000000 ) ) ;
#421 = CARTESIAN_POINT ( 'NONE',  ( 4.083333333333334800, 1.784956512274235900, -3.300519038867364000 ) ) ;
#422 = CARTESIAN_POINT ( 'NONE',  ( -4.900000000000001200, 5.462349652362497900, 2.829016319029165900 ) ) ;
#423 = CARTESIAN_POINT ( 'NONE',  ( 0.0000000000000000000, 7.832791065221687900, -1.552307674620876200 ) ) ;
#424 = CARTESIAN_POINT ( 'NONE',  ( -4.900000000000000400, 1.769311062014163700, -1.886608659205688100 ) ) ;
#425 = CARTESIAN_POINT ( 'NONE',  ( -4.900000000000000400, 1.885714285714286800, -0.4709392898906478200 ) ) ;
#426 = CARTESIAN_POINT ( 'NONE',  ( -3.801396569324266100E-015, 2.482870601312761500E-019, 0.0000000000000000000 ) ) ;
#427 = CARTESIAN_POINT ( 'NONE',  ( 3.704556567420743300E-016, 5.900000000000000400, -3.024999999999999900 ) ) ;
#428 = DIRECTION ( 'NONE',  ( -0.0000000000000000000, -1.000000000000000000, -0.0000000000000000000 ) ) ;
#429 = CARTESIAN_POINT ( 'NONE',  ( -4.900000000000001200, 1.861394206725533100, -0.9424743424616771600 ) ) ;
#430 = DIRECTION ( 'NONE',  ( 0.0000000000000000000, 0.0000000000000000000, -1.000000000000000000 ) ) ;
#431 = CARTESIAN_POINT ( 'NONE',  ( -4.900000000000001200, 1.619153358045422300, -2.829016319029168600 ) ) ;
#432 = CARTESIAN_POINT ( 'NONE',  ( 0.0000000000000000000, 0.4000000000000001900, 0.0000000000000000000 ) ) ;
#433 = CARTESIAN_POINT ( 'NONE',  ( 0.0000000000000000000, 5.900000000000000400, 0.0000000000000000000 ) ) ;
#434 = CARTESIAN_POINT ( 'NONE',  ( -4.900000000000001200, 1.701578411751121700, -2.360223826078004200 ) ) ;
#435 = DIRECTION ( 'NONE',  ( -0.0000000000000000000, 1.000000000000000000, -0.0000000000000000000 ) ) ;
#436 = DIRECTION ( 'NONE',  ( 0.0000000000000000000, 0.0000000000000000000, 1.000000000000000000 ) ) ;
#437 = DIRECTION ( 'NONE',  ( 0.0000000000000000000, 0.7071067811865469100, 0.7071067811865482400 ) ) ;
#438 = CARTESIAN_POINT ( 'NONE',  ( 0.0000000000000000000, 5.900000000000000400, 2.499999999999999100 ) ) ;
#439 = CARTESIAN_POINT ( 'NONE',  ( -1.615183647191459800, 5.900000000000002100, -4.725505924561664600 ) ) ;
#440 = CARTESIAN_POINT ( 'NONE',  ( 0.0000000000000000000, 0.0000000000000000000, 0.0000000000000000000 ) ) ;
#441 = CARTESIAN_POINT ( 'NONE',  ( -4.098425537640625100, 5.729541139816370300, 3.291805550647882500 ) ) ;
#442 = CARTESIAN_POINT ( 'NONE',  ( -4.900000000000001200, 1.885714285714287000, 6.000994025002155000E-016 ) ) ;
#443 = DIRECTION ( 'NONE',  ( -1.000000000000000000, 3.624628615055125000E-020, 0.0000000000000000000 ) ) ;
#444 = CARTESIAN_POINT ( 'NONE',  ( 0.8166666666666679800, 1.784956512274236100, -5.186529918220141000 ) ) ;
#445 = CARTESIAN_POINT ( 'NONE',  ( 4.899999999999998600, 1.619153358045420900, -2.829016319029169900 ) ) ;
#446 = DIRECTION ( 'NONE',  ( -0.0000000000000000000, -1.000000000000000000, -0.0000000000000000000 ) ) ;
#447 = DIRECTION ( 'NONE',  ( 0.0000000000000000000, -1.000000000000000000, 0.0000000000000000000 ) ) ;
#448 = DIRECTION ( 'NONE',  ( 0.0000000000000000000, 0.0000000000000000000, -1.000000000000000000 ) ) ;
#449 = CARTESIAN_POINT ( 'NONE',  ( -6.850000000000004100, 1.200000000000000000, 8.388830574159370900E-016 ) ) ;
#450 = CARTESIAN_POINT ( 'NONE',  ( -2.450000000000000200, 5.900000000000000400, -4.243524478543752900 ) ) ;
#451 = CARTESIAN_POINT ( 'NONE',  ( 2.449999999999999700, 1.986472059154333200, -4.243524478543752000 ) ) ;
#452 = CARTESIAN_POINT ( 'NONE',  ( -2.450000000000002000, 5.900000000000000400, 4.243524478543751100 ) ) ;
#453 = DIRECTION ( 'NONE',  ( -0.0000000000000000000, -1.000000000000000000, -0.0000000000000000000 ) ) ;
#454 = DIRECTION ( 'NONE',  ( -0.9433724815277447800, -0.3317353781196467100, 1.155298089906648100E-016 ) ) ;
#455 = CARTESIAN_POINT ( 'NONE',  ( -3.284816352808541200, 5.900000000000003000, 3.761543032525837200 ) ) ;
#456 = DIRECTION ( 'NONE',  ( 0.9433724815277447800, -0.3317353781196467100, 0.0000000000000000000 ) ) ;
#457 = DIRECTION ( 'NONE',  ( 0.0000000000000000000, -1.000000000000000000, 0.0000000000000000000 ) ) ;
#458 = CARTESIAN_POINT ( 'NONE',  ( -4.900000000000001200, 5.900000000000000400, 2.829016319029165900 ) ) ;
#459 = CARTESIAN_POINT ( 'NONE',  ( 4.899999999999998600, 5.900000000000000400, -2.829016319029169900 ) ) ;
#460 = CARTESIAN_POINT ( 'NONE',  ( 2.242075979151778100, 5.900000000000003000, -4.363569467951463400 ) ) ;
#461 = CARTESIAN_POINT ( 'NONE',  ( 4.899999999999999500, 1.784626502934855800, 1.887887807470507400 ) ) ;
#462 = CARTESIAN_POINT ( 'NONE',  ( 0.0000000000000000000, 5.375000000000000900, 0.0000000000000000000 ) ) ;
#463 = CARTESIAN_POINT ( 'NONE',  ( 4.899999999999998600, 1.861394206725530500, -0.9424743424616773800 ) ) ;
#464 = CARTESIAN_POINT ( 'NONE',  ( 4.899999999999999500, 1.885714285714285200, 2.247094900982295000E-020 ) ) ;
#465 = CARTESIAN_POINT ( 'NONE',  ( 1.332331122662549600E-015, 5.900000000000000400, -5.658032638058335500 ) ) ;
#466 = CARTESIAN_POINT ( 'NONE',  ( -4.900000000000001200, 5.462349652362497000, -2.829016319029168600 ) ) ;
#467 = DIRECTION ( 'NONE',  ( 0.0000000000000000000, -1.000000000000000000, 0.0000000000000000000 ) ) ;
#468 = DIRECTION ( 'NONE',  ( 0.0000000000000000000, 0.0000000000000000000, -1.000000000000000000 ) ) ;
#469 = CARTESIAN_POINT ( 'NONE',  ( 0.0000000000000000000, 0.4000000000000000200, 0.0000000000000000000 ) ) ;
#470 = CARTESIAN_POINT ( 'NONE',  ( 2.033219952279505800, 5.889655549373613600, -4.484152551288046200 ) ) ;
#471 = DIRECTION ( 'NONE',  ( 0.0000000000000000000, 0.0000000000000000000, -1.000000000000000000 ) ) ;
#472 = DIRECTION ( 'NONE',  ( 0.0000000000000000000, 0.0000000000000000000, 1.000000000000000000 ) ) ;
#473 = CARTESIAN_POINT ( 'NONE',  ( 4.899999999999999500, 1.885714285714285500, -0.4709392898906485400 ) ) ;
#474 = CARTESIAN_POINT ( 'NONE',  ( 0.0000000000000000000, 5.900000000000000400, 0.0000000000000000000 ) ) ;
#475 = CARTESIAN_POINT ( 'NONE',  ( -1.026930507199155100E-015, 1.619153358045421600, 5.658032638058333700 ) ) ;
#476 = DIRECTION ( 'NONE',  ( 0.0000000000000000000, 1.000000000000000000, 0.0000000000000000000 ) ) ;
#477 = DIRECTION ( 'NONE',  ( 0.0000000000000000000, 0.0000000000000000000, 1.000000000000000000 ) ) ;
#478 = CARTESIAN_POINT ( 'NONE',  ( 0.0000000000000000000, 0.0000000000000000000, 0.0000000000000000000 ) ) ;
#479 = CARTESIAN_POINT ( 'NONE',  ( -4.900000000000001200, 5.595310542607351500, -2.368426284381858400 ) ) ;
#480 = CARTESIAN_POINT ( 'NONE',  ( -0.8166666666666676500, 1.784956512274237200, 5.186529918220139200 ) ) ;
#481 = CARTESIAN_POINT ( 'NONE',  ( -2.450000000000001500, 1.986472059154334600, 4.243524478543750300 ) ) ;
#482 = CARTESIAN_POINT ( 'NONE',  ( 1.620059053646163600, 5.849623796534995500, -4.722691107332631900 ) ) ;
#483 = CARTESIAN_POINT ( 'NONE',  ( -4.083333333333336600, 1.784956512274238800, 3.300519038867361300 ) ) ;
#484 = CARTESIAN_POINT ( 'NONE',  ( -4.900000000000001200, 1.619153358045422700, 2.829016319029165900 ) ) ;
#485 = DIRECTION ( 'NONE',  ( -0.0000000000000000000, 1.000000000000000000, -0.0000000000000000000 ) ) ;
#486 = CARTESIAN_POINT ( 'NONE',  ( 1.414860463888568900, 5.819974964479215800, -4.841162568366512700 ) ) ;
#487 = CARTESIAN_POINT ( 'NONE',  ( 0.8029092037588612100, 5.705622561712027100, -5.194472793133329900 ) ) ;
#488 = CARTESIAN_POINT ( 'NONE',  ( 1.406822768960880600E-015, 5.462349652362497000, -5.658032638058335500 ) ) ;
#489 = DIRECTION ( 'NONE',  ( 0.0000000000000000000, -0.5000000000000011100, -0.8660254037844379300 ) ) ;
#490 = CARTESIAN_POINT ( 'NONE',  ( -1.026930507199155100E-015, 5.900000000000000400, 5.658032638058333700 ) ) ;
#491 = DIRECTION ( 'NONE',  ( -0.0000000000000000000, -1.000000000000000000, -0.0000000000000000000 ) ) ;
#492 = CARTESIAN_POINT ( 'NONE',  ( 4.899999999999999500, 1.885714285714285200, 2.247094900982295000E-020 ) ) ;
#493 = CARTESIAN_POINT ( 'NONE',  ( -6.850000000000005000, 2.482870601312761500E-019, 0.0000000000000000000 ) ) ;
#494 = CARTESIAN_POINT ( 'NONE',  ( 2.450000000000003300, 5.900000000000000400, -4.243524478543753800 ) ) ;
#495 = CARTESIAN_POINT ( 'NONE',  ( 4.899999999999999500, 1.619153358045420500, 2.829016319029169100 ) ) ;
#496 = CARTESIAN_POINT ( 'NONE',  ( 4.899999999999998600, 1.619153358045420900, -2.829016319029169900 ) ) ;
#497 = DIRECTION ( 'NONE',  ( 3.624628615055125000E-020, 1.000000000000000000, -0.0000000000000000000 ) ) ;
#498 = CARTESIAN_POINT ( 'NONE',  ( 4.899999999999999500, 1.885714285714285200, 0.9451820643606821900 ) ) ;
#499 = DIRECTION ( 'NONE',  ( 0.0000000000000000000, -1.000000000000000000, 0.0000000000000000000 ) ) ;
#500 = CARTESIAN_POINT ( 'NONE',  ( 4.899999999999997700, 1.701578411751119900, -2.360223826078005500 ) ) ;
#501 = CARTESIAN_POINT ( 'NONE',  ( 0.3997868616314249600, 5.595611939573352300, -5.427215585876957100 ) ) ;
#502 = CARTESIAN_POINT ( 'NONE',  ( 4.899999999999998600, 1.769311062014162500, -1.886608659205689400 ) ) ;
#503 = DIRECTION ( 'NONE',  ( -0.0000000000000000000, -1.000000000000000000, -0.0000000000000000000 ) ) ;
#504 = CARTESIAN_POINT ( 'NONE',  ( 4.899999999999999500, 5.594433541523298600, 2.371464305253565100 ) ) ;
#505 = DIRECTION ( 'NONE',  ( -0.0000000000000000000, 1.000000000000000000, -0.0000000000000000000 ) ) ;
#506 = CARTESIAN_POINT ( 'NONE',  ( 4.900000000000000400, 5.704361199366305300, 1.908102400647345000 ) ) ;
#507 = CARTESIAN_POINT ( 'NONE',  ( 0.0000000000000000000, 5.900000000000000400, 0.0000000000000000000 ) ) ;
#508 = CARTESIAN_POINT ( 'NONE',  ( -0.8166666666666657600, 1.784956512274236800, -5.186529918220141000 ) ) ;
#509 = CARTESIAN_POINT ( 'NONE',  ( -2.033219952279504900, 5.889655549373614500, 4.484152551288042700 ) ) ;
#510 = CARTESIAN_POINT ( 'NONE',  ( 2.866780047720496300, 5.889655549373613600, 4.002896405799457800 ) ) ;
#511 = CARTESIAN_POINT ( 'NONE',  ( 3.279940946353837800, 5.849623796534996400, 3.764357849754867800 ) ) ;
#512 = CARTESIAN_POINT ( 'NONE',  ( -4.900000000000000400, 5.858833426175654500, -0.9535197257053567000 ) ) ;
#513 = CARTESIAN_POINT ( 'NONE',  ( 0.0000000000000000000, 5.900000000000000400, 0.0000000000000000000 ) ) ;
#514 = CARTESIAN_POINT ( 'NONE',  ( 3.485139536111433200, 5.819974964479216700, 3.645886388720990000 ) ) ;
#515 = CARTESIAN_POINT ( 'NONE',  ( 0.0000000000000000000, 5.900000000000000400, 0.0000000000000000000 ) ) ;
#516 = CARTESIAN_POINT ( 'NONE',  ( 4.899999999999999500, 5.900000000000000400, -7.511572993685787300E-016 ) ) ;
#517 = CARTESIAN_POINT ( 'NONE',  ( -7.911858222474143400E-016, 5.462349652362497900, 5.658032638058333700 ) ) ;
#518 = CARTESIAN_POINT ( 'NONE',  ( 4.097090796241142000, 5.705622561712028900, 3.292576163954173700 ) ) ;
#519 = CARTESIAN_POINT ( 'NONE',  ( -4.900000000000000400, 5.900000000000000400, -0.4785459041293928500 ) ) ;
#520 = CARTESIAN_POINT ( 'NONE',  ( 4.500213138368578400, 5.595611939573352300, 3.059833371210546500 ) ) ;
#521 = DIRECTION ( 'NONE',  ( 0.0000000000000000000, 1.000000000000000000, 0.0000000000000000000 ) ) ;
#522 = CARTESIAN_POINT ( 'NONE',  ( 4.899999999999999500, 5.462349652362497900, 2.829016319029169100 ) ) ;
#523 = CARTESIAN_POINT ( 'NONE',  ( 4.899999999999999500, 5.900000000000000400, -7.511572993685787300E-016 ) ) ;
#524 = CARTESIAN_POINT ( 'NONE',  ( 1.332331122662549600E-015, 1.619153358045420900, -5.658032638058335500 ) ) ;
#525 = CARTESIAN_POINT ( 'NONE',  ( -0.8029092037588601000, 5.705622561712028000, 5.194472793133327200 ) ) ;
#526 = CARTESIAN_POINT ( 'NONE',  ( -4.083333333333335700, 1.784956512274238100, -3.300519038867364400 ) ) ;
#527 = DIRECTION ( 'NONE',  ( 0.0000000000000000000, 1.000000000000000000, 0.0000000000000000000 ) ) ;
#528 = CARTESIAN_POINT ( 'NONE',  ( -4.900000000000002100, 5.706611760184658900, -1.897403042053678700 ) ) ;
#529 = CARTESIAN_POINT ( 'NONE',  ( -4.900000000000001200, 1.619153358045422300, -2.829016319029168600 ) ) ;
#530 = CARTESIAN_POINT ( 'NONE',  ( -2.450000000000002000, 5.900000000000000400, 4.243524478543751100 ) ) ;
#531 = CARTESIAN_POINT ( 'NONE',  ( -1.414860463888566900, 5.819974964479214900, 4.841162568366510000 ) ) ;
#532 = CARTESIAN_POINT ( 'NONE',  ( -0.3997868616314234100, 5.595611939573349700, 5.427215585876953500 ) ) ;
#533 = CARTESIAN_POINT ( 'NONE',  ( 2.449999999999999300, 5.900000000000000400, 4.243524478543752000 ) ) ;
#534 = CARTESIAN_POINT ( 'NONE',  ( 2.657924020848225800, 5.900000000000002100, 4.123479489136038900 ) ) ;
#535 = CARTESIAN_POINT ( 'NONE',  ( -4.900000000000001200, 5.900000000000000400, 0.0000000000000000000 ) ) ;
#536 = CARTESIAN_POINT ( 'NONE',  ( 4.899999999999999500, 5.462349652362497900, 2.829016319029169100 ) ) ;
#537 = DIRECTION ( 'NONE',  ( 0.0000000000000000000, 0.0000000000000000000, 1.000000000000000000 ) ) ;
#538 = CARTESIAN_POINT ( 'NONE',  ( -1.620059053646162800, 5.849623796534995500, 4.722691107332630100 ) ) ;
#539 = CARTESIAN_POINT ( 'NONE',  ( 4.899999999999999500, 5.900000000000001200, 0.4788956954621517700 ) ) ;
#540 = DIRECTION ( 'NONE',  ( 0.0000000000000000000, 0.0000000000000000000, 1.000000000000000000 ) ) ;
#541 = CARTESIAN_POINT ( 'NONE',  ( -2.450000000000000200, 1.986472059154335000, -4.243524478543754700 ) ) ;
#542 = CARTESIAN_POINT ( 'NONE',  ( 4.899999999999998600, 5.857668300799563400, 0.9639280668291886300 ) ) ;
#543 = CARTESIAN_POINT ( 'NONE',  ( -2.242075979151776400, 5.900000000000001200, 4.363569467951460700 ) ) ;
#544 = DIRECTION ( 'NONE',  ( 0.0000000000000000000, 0.0000000000000000000, 1.000000000000000000 ) ) ;
#545 = CARTESIAN_POINT ( 'NONE',  ( 4.899999999999998600, 5.706611760184617100, -1.897403042053888100 ) ) ;
#546 = DIRECTION ( 'NONE',  ( 0.0000000000000000000, 0.0000000000000000000, 1.000000000000000000 ) ) ;
#547 = CARTESIAN_POINT ( 'NONE',  ( 0.0000000000000000000, 0.4000000000000001900, 0.0000000000000000000 ) ) ;
#548 = DIRECTION ( 'NONE',  ( 0.0000000000000000000, 1.000000000000000000, 0.0000000000000000000 ) ) ;
#549 = CARTESIAN_POINT ( 'NONE',  ( 0.8015744623593763500, 5.729541139816369400, 5.195243406439618500 ) ) ;
#550 = DIRECTION ( 'NONE',  ( 0.0000000000000000000, 0.0000000000000000000, -1.000000000000000000 ) ) ;
#551 = DIRECTION ( 'NONE',  ( 3.624628615055125000E-020, 1.000000000000000000, -0.0000000000000000000 ) ) ;
#552 = DIRECTION ( 'NONE',  ( 3.624628615055125000E-020, 1.000000000000000000, -0.0000000000000000000 ) ) ;
#553 = DIRECTION ( 'NONE',  ( -1.000000000000000000, 3.624628615055125000E-020, 0.0000000000000000000 ) ) ;
#554 = CARTESIAN_POINT ( 'NONE',  ( 4.899999999999997700, 5.900000000000002100, -0.4785459041294478600 ) ) ;
#555 = CARTESIAN_POINT ( 'NONE',  ( 4.899999999999999500, 5.595310542607288400, -2.368426284382120000 ) ) ;
#556 = CARTESIAN_POINT ( 'NONE',  ( -7.911858222474143400E-016, 5.462349652362497900, 5.658032638058333700 ) ) ;
#557 = DIRECTION ( 'NONE',  ( 0.0000000000000000000, 0.0000000000000000000, 1.000000000000000000 ) ) ;
#558 = CARTESIAN_POINT ( 'NONE',  ( 0.0000000000000000000, 5.900000000000000400, 0.0000000000000000000 ) ) ;
#559 =( NAMED_UNIT ( * ) PLANE_ANGLE_UNIT ( ) SI_UNIT ( $, .RADIAN. ) );
#560 =( NAMED_UNIT ( * ) SI_UNIT ( $, .STERADIAN. ) SOLID_ANGLE_UNIT ( ) );
#561 = CARTESIAN_POINT ( 'NONE',  ( 0.0000000000000000000, 5.900000000000000400, 0.0000000000000000000 ) ) ;
#562 = CARTESIAN_POINT ( 'NONE',  ( 1.615183647191460200, 5.900000000000003000, 4.725505924561662000 ) ) ;
#563 = DIRECTION ( 'NONE',  ( 0.0000000000000000000, 0.0000000000000000000, 1.000000000000000000 ) ) ;
#564 = CARTESIAN_POINT ( 'NONE',  ( 4.899999999999999500, 5.900000000000000400, 2.829016319029169100 ) ) ;
#565 = CARTESIAN_POINT ( 'NONE',  ( 2.449999999999999300, 5.900000000000000400, 4.243524478543752000 ) ) ;
#566 = DIRECTION ( 'NONE',  ( 0.0000000000000000000, 0.0000000000000000000, 1.000000000000000000 ) ) ;
#567 = CARTESIAN_POINT ( 'NONE',  ( 0.0000000000000000000, 0.4000000000000000200, 0.0000000000000000000 ) ) ;
#568 = DIRECTION ( 'NONE',  ( 0.0000000000000000000, -1.000000000000000000, 0.0000000000000000000 ) ) ;
#569 = CARTESIAN_POINT ( 'NONE',  ( 0.0000000000000000000, 0.0000000000000000000, 0.0000000000000000000 ) ) ;
#570 = DIRECTION ( 'NONE',  ( 0.0000000000000000000, 1.000000000000000000, 0.0000000000000000000 ) ) ;
#571 = DIRECTION ( 'NONE',  ( 0.0000000000000000000, 0.0000000000000000000, -1.000000000000000000 ) ) ;
#572 =( LENGTH_UNIT ( ) NAMED_UNIT ( * ) SI_UNIT ( .MILLI., .METRE. ) );
#573 = APPLICATION_CONTEXT ( 'configuration controlled 3d designs of mechanical parts and assemblies' ) ;
#574 = APPLICATION_PROTOCOL_DEFINITION ( 'international standard', 'config_control_design', 1994, #573 ) ;
#575 = DIRECTION ( 'NONE',  ( 0.0000000000000000000, 1.000000000000000000, 0.0000000000000000000 ) ) ;
#576 = CARTESIAN_POINT ( 'NONE',  ( -3.801353073780885300E-015, 1.200000000000000000, 0.0000000000000000000 ) ) ;
#577 = CARTESIAN_POINT ( 'NONE',  ( 4.899999999999998600, 5.462349652362805200, -2.829016319029630500 ) ) ;
#578 = DIRECTION ( 'NONE',  ( -0.0000000000000000000, -1.000000000000000000, -0.0000000000000000000 ) ) ;
#579 = CARTESIAN_POINT ( 'NONE',  ( -3.801396569324266100E-015, 2.482870601312761500E-019, 0.0000000000000000000 ) ) ;
#580 = CARTESIAN_POINT ( 'NONE',  ( 4.899999999999998600, 5.858833426175647400, -0.9535197257054629500 ) ) ;
#581 = CARTESIAN_POINT ( 'NONE',  ( 0.0000000000000000000, 5.900000000000000400, 0.0000000000000000000 ) ) ;
#582 = DIRECTION ( 'NONE',  ( -1.000000000000000000, 0.0000000000000000000, 0.0000000000000000000 ) ) ;
#583 = DIRECTION ( 'NONE',  ( 0.0000000000000000000, -1.000000000000000000, 0.0000000000000000000 ) ) ;
#584 = DIRECTION ( 'NONE',  ( 1.000000000000000000, 0.0000000000000000000, 0.0000000000000000000 ) ) ;
#585 = DATE_TIME_ROLE ( 'classification_date' ) ;
#586 = MECHANICAL_CONTEXT ( 'NONE', #573, 'mechanical' ) ;
#587 = APPLICATION_CONTEXT ( 'configuration controlled 3d designs of mechanical parts and assemblies' ) ;
#588 = PERSON_AND_ORGANIZATION_ROLE ( 'creator' ) ;
#589 = PERSON_AND_ORGANIZATION_ROLE ( 'design_supplier' ) ;
#590 = DATE_TIME_ROLE ( 'creation_date' ) ;
#591 = SECURITY_CLASSIFICATION_LEVEL ( 'unclassified' ) ;
#592 = APPROVAL_ROLE ( '' ) ;
#593 = APPROVAL_STATUS ( 'not_yet_approved' ) ;
#594 = APPROVAL_ROLE ( '' ) ;
#595 = APPROVAL_ROLE ( '' ) ;
#596 = PERSON_AND_ORGANIZATION_ROLE ( 'design_owner' ) ;
#597 = APPROVAL_STATUS ( 'not_yet_approved' ) ;
#598 = PERSON_AND_ORGANIZATION_ROLE ( 'classification_officer' ) ;
#599 = APPROVAL_STATUS ( 'not_yet_approved' ) ;
#600 = APPLICATION_PROTOCOL_DEFINITION ( 'international standard', 'config_control_design', 1994, #587 ) ;
#601 = PERSON_AND_ORGANIZATION_ROLE ( 'creator' ) ;
#602 = CARTESIAN_POINT ( 'NONE',  ( 4.899999999999998600, 5.900000000000000400, -2.829016319029169900 ) ) ;
#603 = PLANE ( 'NONE',  #776 ) ;
#604 = CARTESIAN_POINT ( 'NONE',  ( -3.801396569324266100E-015, 0.0000000000000000000, 0.0000000000000000000 ) ) ;
#605 = DIRECTION ( 'NONE',  ( 3.624628615055125000E-020, 1.000000000000000000, -0.0000000000000000000 ) ) ;
#606 = DIRECTION ( 'NONE',  ( -1.000000000000000000, 3.624628615055125000E-020, 0.0000000000000000000 ) ) ;
#607 = DIRECTION ( 'NONE',  ( -0.5000000000000002200, 0.0000000000000000000, 0.8660254037844386000 ) ) ;
#608 = DIRECTION ( 'NONE',  ( 0.0000000000000000000, 0.0000000000000000000, -1.000000000000000000 ) ) ;
#609 = DIRECTION ( 'NONE',  ( 0.4999999999999998300, -0.0000000000000000000, 0.8660254037844388200 ) ) ;
#610 = DIRECTION ( 'NONE',  ( 0.8660254037844387100, 0.0000000000000000000, -0.4999999999999997800 ) ) ;
#611 = CARTESIAN_POINT ( 'NONE',  ( -3.801353073780885300E-015, 1.200000000000000000, 0.0000000000000000000 ) ) ;
#612 = DIRECTION ( 'NONE',  ( 0.0000000000000000000, 0.0000000000000000000, 1.000000000000000000 ) ) ;
#613 = CARTESIAN_POINT ( 'NONE',  ( 4.899999999999999500, 5.900000000000000400, 2.829016319029169100 ) ) ;
#614 = DIRECTION ( 'NONE',  ( 0.0000000000000000000, -1.000000000000000000, 0.0000000000000000000 ) ) ;
#615 = DIRECTION ( 'NONE',  ( -1.000000000000000000, 0.0000000000000000000, 1.532974080344038600E-016 ) ) ;
#616 = DIRECTION ( 'NONE',  ( 0.0000000000000000000, 0.0000000000000000000, -1.000000000000000000 ) ) ;
#617 = CARTESIAN_POINT ( 'NONE',  ( 0.0000000000000000000, 7.832791065221687900, 0.0000000000000000000 ) ) ;
#618 = DIRECTION ( 'NONE',  ( 0.0000000000000000000, 0.0000000000000000000, -1.000000000000000000 ) ) ;
#619 = DIRECTION ( 'NONE',  ( -3.624628615055125000E-020, -1.000000000000000000, 0.0000000000000000000 ) ) ;
#620 = DIRECTION ( 'NONE',  ( 1.000000000000000000, 0.0000000000000000000, 0.0000000000000000000 ) ) ;
#621 = DIRECTION ( 'NONE',  ( 0.8660254037844384900, 0.0000000000000000000, 0.5000000000000001100 ) ) ;
#622 = DIRECTION ( 'NONE',  ( -0.0000000000000000000, -1.000000000000000000, -0.0000000000000000000 ) ) ;
#623 = DIRECTION ( 'NONE',  ( 0.0000000000000000000, 0.0000000000000000000, -1.000000000000000000 ) ) ;
#624 = CARTESIAN_POINT ( 'NONE',  ( 0.0000000000000000000, 0.4000000000000000200, 0.0000000000000000000 ) ) ;
#625 = CARTESIAN_POINT ( 'NONE',  ( 0.0000000000000000000, 7.832791065221687900, 0.0000000000000000000 ) ) ;
#626 = DIRECTION ( 'NONE',  ( 0.0000000000000000000, -1.000000000000000000, 0.0000000000000000000 ) ) ;
#627 = PLANE ( 'NONE',  #796 ) ;
#628 = DIRECTION ( 'NONE',  ( 1.532974080344038600E-016, 0.0000000000000000000, 1.000000000000000000 ) ) ;
#629 = DIRECTION ( 'NONE',  ( 0.0000000000000000000, -1.000000000000000000, 0.0000000000000000000 ) ) ;
#630 = CARTESIAN_POINT ( 'NONE',  ( 0.0000000000000000000, 5.900000000000000400, 0.0000000000000000000 ) ) ;
#631 = CARTESIAN_POINT ( 'NONE',  ( 0.0000000000000000000, 7.832791065221687900, 0.0000000000000000000 ) ) ;
#632 = DIRECTION ( 'NONE',  ( -0.0000000000000000000, 1.000000000000000000, -0.0000000000000000000 ) ) ;
#633 = CARTESIAN_POINT ( 'NONE',  ( 1.332331122662549600E-015, 5.900000000000000400, -5.658032638058335500 ) ) ;
#634 = PLANE ( 'NONE',  #805 ) ;
#635 = DIRECTION ( 'NONE',  ( -0.0000000000000000000, 1.000000000000000000, -0.0000000000000000000 ) ) ;
#636 = CARTESIAN_POINT ( 'NONE',  ( 0.0000000000000000000, 5.900000000000000400, 0.0000000000000000000 ) ) ;
#637 = DIRECTION ( 'NONE',  ( 0.0000000000000000000, 0.0000000000000000000, 1.000000000000000000 ) ) ;
#638 = CARTESIAN_POINT ( 'NONE',  ( -4.900000000000001200, 5.900000000000000400, 2.829016319029165900 ) ) ;
#639 = CARTESIAN_POINT ( 'NONE',  ( -1.026930507199155100E-015, 5.900000000000000400, 5.658032638058333700 ) ) ;
#640 = DIRECTION ( 'NONE',  ( -0.4999999999999998300, 0.0000000000000000000, -0.8660254037844388200 ) ) ;
#641 = CARTESIAN_POINT ( 'NONE',  ( 0.0000000000000000000, 5.900000000000000400, 0.0000000000000000000 ) ) ;
#642 = CARTESIAN_POINT ( 'NONE',  ( 0.0000000000000000000, 7.832791065221687900, 0.0000000000000000000 ) ) ;
#643 = DIRECTION ( 'NONE',  ( -0.0000000000000000000, 1.000000000000000000, -0.0000000000000000000 ) ) ;
#644 = CARTESIAN_POINT ( 'NONE',  ( -3.801353073780885300E-015, 1.200000000000000000, 0.0000000000000000000 ) ) ;
#645 = DIRECTION ( 'NONE',  ( 1.000000000000000000, 0.0000000000000000000, 0.0000000000000000000 ) ) ;
#646 = DIRECTION ( 'NONE',  ( 0.0000000000000000000, 0.0000000000000000000, -1.000000000000000000 ) ) ;
#647 = DIRECTION ( 'NONE',  ( 0.0000000000000000000, -1.000000000000000000, 0.0000000000000000000 ) ) ;
#648 = DIRECTION ( 'NONE',  ( -3.624628615055125000E-020, -1.000000000000000000, 0.0000000000000000000 ) ) ;
#649 = DIRECTION ( 'NONE',  ( -0.8660254037844387100, 0.0000000000000000000, 0.4999999999999997800 ) ) ;
#650 = PLANE ( 'NONE',  #780 ) ;
#651 = PLANE ( 'NONE',  #777 ) ;
#652 = DIRECTION ( 'NONE',  ( 0.0000000000000000000, 0.0000000000000000000, 1.000000000000000000 ) ) ;
#653 = DIRECTION ( 'NONE',  ( 0.0000000000000000000, 1.000000000000000000, 0.0000000000000000000 ) ) ;
#654 = DIRECTION ( 'NONE',  ( 0.0000000000000000000, 0.0000000000000000000, -1.000000000000000000 ) ) ;
#655 = DIRECTION ( 'NONE',  ( 0.5000000000000002200, 0.0000000000000000000, -0.8660254037844386000 ) ) ;
#656 = CARTESIAN_POINT ( 'NONE',  ( 0.0000000000000000000, 5.900000000000000400, 0.0000000000000000000 ) ) ;
#657 = DIRECTION ( 'NONE',  ( 0.0000000000000000000, 0.0000000000000000000, -1.000000000000000000 ) ) ;
#658 = CARTESIAN_POINT ( 'NONE',  ( 0.0000000000000000000, 5.900000000000000400, 0.0000000000000000000 ) ) ;
#659 = DIRECTION ( 'NONE',  ( 0.0000000000000000000, -1.000000000000000000, 0.0000000000000000000 ) ) ;
#660 = DIRECTION ( 'NONE',  ( 0.0000000000000000000, -1.000000000000000000, 0.0000000000000000000 ) ) ;
#661 = PLANE ( 'NONE',  #809 ) ;
#662 = CARTESIAN_POINT ( 'NONE',  ( 0.0000000000000000000, 0.0000000000000000000, 0.0000000000000000000 ) ) ;
#663 = DIRECTION ( 'NONE',  ( 0.0000000000000000000, -0.0000000000000000000, 1.000000000000000000 ) ) ;
#664 = DIRECTION ( 'NONE',  ( 0.0000000000000000000, 0.0000000000000000000, -1.000000000000000000 ) ) ;
#665 = CARTESIAN_POINT ( 'NONE',  ( 0.0000000000000000000, 7.832791065221687900, 0.0000000000000000000 ) ) ;
#666 = PLANE ( 'NONE',  #788 ) ;
#667 = CARTESIAN_POINT ( 'NONE',  ( 0.0000000000000000000, 0.4000000000000000200, 0.0000000000000000000 ) ) ;
#668 = DIRECTION ( 'NONE',  ( 0.0000000000000000000, -1.000000000000000000, 0.0000000000000000000 ) ) ;
#669 = DIRECTION ( 'NONE',  ( 0.0000000000000000000, -0.0000000000000000000, -1.000000000000000000 ) ) ;
#670 = CARTESIAN_POINT ( 'NONE',  ( -4.900000000000001200, 5.900000000000000400, -2.829016319029168600 ) ) ;
#671 = PLANE ( 'NONE',  #816 ) ;
#672 = CARTESIAN_POINT ( 'NONE',  ( 2.450000000000003300, 5.900000000000000400, -4.243524478543753800 ) ) ;
#673 = CARTESIAN_POINT ( 'NONE',  ( -7.911858222474143400E-016, 5.462349652362497900, 5.658032638058333700 ) ) ;
#674 = DIRECTION ( 'NONE',  ( -0.8660254037844384900, 0.0000000000000000000, -0.5000000000000001100 ) ) ;
#675 = DIRECTION ( 'NONE',  ( 0.0000000000000000000, -1.000000000000000000, 0.0000000000000000000 ) ) ;
#676 = DIRECTION ( 'NONE',  ( 0.0000000000000000000, 0.0000000000000000000, 1.000000000000000000 ) ) ;
#677 = CARTESIAN_POINT ( 'NONE',  ( 0.0000000000000000000, 0.4000000000000000200, 0.0000000000000000000 ) ) ;
#678 = CARTESIAN_POINT ( 'NONE',  ( -3.801396569324266100E-015, 0.0000000000000000000, 0.0000000000000000000 ) ) ;
#679 = DIRECTION ( 'NONE',  ( -1.000000000000000000, 3.624628615055125000E-020, 0.0000000000000000000 ) ) ;
#680 = DIRECTION ( 'NONE',  ( 0.0000000000000000000, 0.0000000000000000000, -1.000000000000000000 ) ) ;
#681 = DIRECTION ( 'NONE',  ( -0.0000000000000000000, 1.000000000000000000, -0.0000000000000000000 ) ) ;
#682 = DIRECTION ( 'NONE',  ( -0.0000000000000000000, -1.000000000000000000, -0.0000000000000000000 ) ) ;
#683 = PLANE ( 'NONE',  #815 ) ;
#684 = DIRECTION ( 'NONE',  ( 3.624628615055125000E-020, 1.000000000000000000, -0.0000000000000000000 ) ) ;
#685 = CARTESIAN_POINT ( 'NONE',  ( 0.0000000000000000000, 7.832791065221687900, 0.0000000000000000000 ) ) ;
#686 = DIRECTION ( 'NONE',  ( 0.0000000000000000000, 1.000000000000000000, 0.0000000000000000000 ) ) ;
#687 = CARTESIAN_POINT ( 'NONE',  ( 0.0000000000000000000, 7.832791065221687900, 0.0000000000000000000 ) ) ;
#688 = DIRECTION ( 'NONE',  ( 0.0000000000000000000, -0.0000000000000000000, 1.000000000000000000 ) ) ;
#689 = CARTESIAN_POINT ( 'NONE',  ( 4.899999999999999500, 1.885714285714285200, 2.247094900982295000E-020 ) ) ;
#690 = CARTESIAN_POINT ( 'NONE',  ( 4.899999999999999500, 5.900000000000000400, -7.511572993685787300E-016 ) ) ;
#691 = CARTESIAN_POINT ( 'NONE',  ( 4.899999999999998600, 1.619153358045420900, -2.829016319029169900 ) ) ;
#692 = CARTESIAN_POINT ( 'NONE',  ( 1.332331122662549600E-015, 1.619153358045420900, -5.658032638058335500 ) ) ;
#693 = CARTESIAN_POINT ( 'NONE',  ( -4.900000000000001200, 1.619153358045422700, 2.829016319029165900 ) ) ;
#694 = CARTESIAN_POINT ( 'NONE',  ( -2.450000000000000200, 5.900000000000000400, -4.243524478543752900 ) ) ;
#695 = CARTESIAN_POINT ( 'NONE',  ( -4.900000000000001200, 5.462349652362497900, 2.829016319029165900 ) ) ;
#696 = DIRECTION ( 'NONE',  ( 1.000000000000000000, 0.0000000000000000000, 0.0000000000000000000 ) ) ;
#697 = CARTESIAN_POINT ( 'NONE',  ( -2.450000000000002000, 5.900000000000000400, 4.243524478543751100 ) ) ;
#698 = CARTESIAN_POINT ( 'NONE',  ( 2.449999999999999300, 5.900000000000000400, 4.243524478543752000 ) ) ;
#699 = CARTESIAN_POINT ( 'NONE',  ( 0.0000000000000000000, 0.4000000000000001900, 2.499999999999999100 ) ) ;
#700 = DIRECTION ( 'NONE',  ( 0.0000000000000000000, 0.0000000000000000000, -1.000000000000000000 ) ) ;
#701 = CARTESIAN_POINT ( 'NONE',  ( 5.602759106099141700E-016, 0.4000000000000000200, 4.575000000000000200 ) ) ;
#702 = CARTESIAN_POINT ( 'NONE',  ( 0.0000000000000000000, 5.900000000000000400, 3.024999999999999900 ) ) ;
#703 = CARTESIAN_POINT ( 'NONE',  ( 0.0000000000000000000, 0.4000000000000000200, -4.575000000000000200 ) ) ;
#704 = CARTESIAN_POINT ( 'NONE',  ( 0.0000000000000000000, 0.0000000000000000000, -4.575000000000000200 ) ) ;
#705 = CARTESIAN_POINT ( 'NONE',  ( 4.899999999999999500, 5.462349652362497900, 2.829016319029169100 ) ) ;
#706 = CARTESIAN_POINT ( 'NONE',  ( 6.849999999999998800, 0.0000000000000000000, 8.388830574159371800E-016 ) ) ;
#707 = CARTESIAN_POINT ( 'NONE',  ( -1.026930507199155100E-015, 1.619153358045421600, 5.658032638058333700 ) ) ;
#708 = CARTESIAN_POINT ( 'NONE',  ( -4.900000000000001200, 1.885714285714287000, 6.000994025002155000E-016 ) ) ;
#709 = CARTESIAN_POINT ( 'NONE',  ( -6.850000000000005000, 4.965741202625523000E-019, 0.0000000000000000000 ) ) ;
#710 = CARTESIAN_POINT ( 'NONE',  ( -4.900000000000001200, 5.462349652362497000, -2.829016319029168600 ) ) ;
#711 = CARTESIAN_POINT ( 'NONE',  ( -4.900000000000001200, 1.619153358045422300, -2.829016319029168600 ) ) ;
#712 = CARTESIAN_POINT ( 'NONE',  ( 3.061616997868382600E-016, 5.375000000000000900, -2.499999999999999600 ) ) ;
#713 = CARTESIAN_POINT ( 'NONE',  ( 5.602759106099141700E-016, 0.0000000000000000000, 4.575000000000000200 ) ) ;
#714 = CARTESIAN_POINT ( 'NONE',  ( 3.061616997868382200E-016, 0.4000000000000001900, -2.499999999999999100 ) ) ;
#715 = CARTESIAN_POINT ( 'NONE',  ( -4.900000000000001200, 5.900000000000000400, 0.0000000000000000000 ) ) ;
#716 = CARTESIAN_POINT ( 'NONE',  ( -6.850000000000004100, 1.200000000000000000, 8.388830574159370900E-016 ) ) ;
#717 = CARTESIAN_POINT ( 'NONE',  ( 1.406822768960880600E-015, 5.462349652362497000, -5.658032638058335500 ) ) ;
#718 = CARTESIAN_POINT ( 'NONE',  ( 0.0000000000000000000, 5.900000000000000400, -4.899999999999999500 ) ) ;
#719 = CARTESIAN_POINT ( 'NONE',  ( 0.0000000000000000000, 5.375000000000000900, 2.499999999999999600 ) ) ;
#720 = CARTESIAN_POINT ( 'NONE',  ( 6.849999999999997900, 1.200000000000000000, 0.0000000000000000000 ) ) ;
#721 = CARTESIAN_POINT ( 'NONE',  ( 4.899999999999998600, 5.462349652362805200, -2.829016319029630500 ) ) ;
#722 = CARTESIAN_POINT ( 'NONE',  ( 4.899999999999999500, 1.619153358045420500, 2.829016319029169100 ) ) ;
#723 = CARTESIAN_POINT ( 'NONE',  ( 3.704556567420743300E-016, 5.900000000000000400, -3.024999999999999900 ) ) ;
#724 = PRODUCT ( 'ALP0822', 'ALP0822', '', ( #586 ) ) ;
#725 = PERSON ( 'UNSPECIFIED', 'UNSPECIFIED', 'UNSPECIFIED', ('UNSPECIFIED'), ('UNSPECIFIED'), ('UNSPECIFIED') ) ;
#726 = EDGE_CURVE ( 'NONE', #235, #233, #281, .T. ) ;
#727 = EDGE_CURVE ( 'NONE', #99, #70, #9, .T. ) ;
#728 = EDGE_CURVE ( 'NONE', #88, #62, #8, .T. ) ;
#729 = EDGE_CURVE ( 'NONE', #98, #84, #3, .T. ) ;
#730 = EDGE_CURVE ( 'NONE', #86, #94, #289, .T. ) ;
#731 = EDGE_CURVE ( 'NONE', #191, #222, #295, .T. ) ;
#732 = EDGE_CURVE ( 'NONE', #231, #87, #280, .T. ) ;
#733 = EDGE_CURVE ( 'NONE', #199, #203, #273, .T. ) ;
#734 = EDGE_CURVE ( 'NONE', #74, #87, #240, .T. ) ;
#735 = EDGE_CURVE ( 'NONE', #200, #191, #243, .T. ) ;
#736 = EDGE_CURVE ( 'NONE', #233, #86, #4, .T. ) ;
#737 = EDGE_CURVE ( 'NONE', #55, #75, #18, .T. ) ;
#738 = EDGE_CURVE ( 'NONE', #225, #233, #7, .T. ) ;
#739 = EDGE_CURVE ( 'NONE', #97, #85, #10, .T. ) ;
#740 = EDGE_CURVE ( 'NONE', #202, #194, #246, .T. ) ;
#741 = EDGE_CURVE ( 'NONE', #191, #193, #266, .T. ) ;
#742 = EDGE_CURVE ( 'NONE', #93, #87, #282, .T. ) ;
#743 = EDGE_CURVE ( 'NONE', #203, #194, #279, .T. ) ;
#744 = EDGE_CURVE ( 'NONE', #70, #61, #11, .T. ) ;
#745 = EDGE_CURVE ( 'NONE', #222, #197, #298, .T. ) ;
#746 = EDGE_CURVE ( 'NONE', #232, #231, #290, .T. ) ;
#747 = EDGE_CURVE ( 'NONE', #70, #55, #292, .T. ) ;
#748 = EDGE_CURVE ( 'NONE', #195, #222, #311, .T. ) ;
#749 = EDGE_CURVE ( 'NONE', #88, #85, #346, .T. ) ;
#750 = EDGE_CURVE ( 'NONE', #75, #94, #19, .T. ) ;
#751 = EDGE_CURVE ( 'NONE', #195, #200, #340, .T. ) ;
#752 = EDGE_CURVE ( 'NONE', #193, #197, #342, .T. ) ;
#753 = EDGE_CURVE ( 'NONE', #75, #74, #320, .T. ) ;
#754 = EDGE_CURVE ( 'NONE', #225, #97, #303, .T. ) ;
#755 = EDGE_CURVE ( 'NONE', #235, #225, #305, .T. ) ;
#756 = EDGE_CURVE ( 'NONE', #62, #225, #12, .T. ) ;
#757 = EDGE_CURVE ( 'NONE', #69, #84, #307, .T. ) ;
#758 = EDGE_CURVE ( 'NONE', #232, #74, #351, .T. ) ;
#759 = EDGE_CURVE ( 'NONE', #194, #203, #330, .T. ) ;
#760 = EDGE_CURVE ( 'NONE', #202, #199, #331, .T. ) ;
#761 = EDGE_CURVE ( 'NONE', #93, #98, #20, .T. ) ;
#762 = EDGE_CURVE ( 'NONE', #222, #191, #348, .T. ) ;
#763 = EDGE_CURVE ( 'NONE', #85, #93, #21, .T. ) ;
#764 = EDGE_CURVE ( 'NONE', #233, #99, #326, .T. ) ;
#765 = EDGE_CURVE ( 'NONE', #84, #55, #22, .T. ) ;
#766 = EDGE_CURVE ( 'NONE', #86, #99, #23, .T. ) ;
#767 = EDGE_CURVE ( 'NONE', #94, #97, #13, .T. ) ;
#768 = EDGE_CURVE ( 'NONE', #197, #193, #344, .T. ) ;
#769 = AXIS2_PLACEMENT_3D ( 'NONE', #426, #419, #443 ) ;
#770 = AXIS2_PLACEMENT_3D ( 'NONE', #507, #505, #544 ) ;
#771 = AXIS2_PLACEMENT_3D ( 'NONE', #513, #521, #540 ) ;
#772 = AXIS2_PLACEMENT_3D ( 'NONE', #433, #435, #436 ) ;
#773 = EDGE_CURVE ( 'NONE', #62, #235, #306, .T. ) ;
#774 = AXIS2_PLACEMENT_3D ( 'NONE', #625, #626, #618 ) ;
#775 = AXIS2_PLACEMENT_3D ( 'NONE', #604, #605, #606 ) ;
#776 = AXIS2_PLACEMENT_3D ( 'NONE', #602, #607, #621 ) ;
#777 = AXIS2_PLACEMENT_3D ( 'NONE', #638, #655, #674 ) ;
#778 = EDGE_CURVE ( 'NONE', #61, #69, #14, .T. ) ;
#779 = EDGE_CURVE ( 'NONE', #72, #96, #1, .T. ) ;
#780 = AXIS2_PLACEMENT_3D ( 'NONE', #639, #640, #649 ) ;
#781 = AXIS2_PLACEMENT_3D ( 'NONE', #641, #643, #637 ) ;
#782 = AXIS2_PLACEMENT_3D ( 'NONE', #630, #632, #612 ) ;
#783 = AXIS2_PLACEMENT_3D ( 'NONE', #658, #681, #676 ) ;
#784 = EDGE_CURVE ( 'NONE', #96, #62, #332, .T. ) ;
#785 = EDGE_CURVE ( 'NONE', #83, #72, #15, .T. ) ;
#786 = AXIS2_PLACEMENT_3D ( 'NONE', #677, #682, #657 ) ;
#787 = EDGE_CURVE ( 'NONE', #200, #195, #350, .T. ) ;
#788 = AXIS2_PLACEMENT_3D ( 'NONE', #670, #696, #700 ) ;
#789 = AXIS2_PLACEMENT_3D ( 'NONE', #611, #619, #620 ) ;
#790 = AXIS2_PLACEMENT_3D ( 'NONE', #397, #405, #383 ) ;
#791 = EDGE_CURVE ( 'NONE', #96, #88, #5, .T. ) ;
#792 = AXIS2_PLACEMENT_3D ( 'NONE', #410, #407, #400 ) ;
#793 = AXIS2_PLACEMENT_3D ( 'NONE', #678, #684, #679 ) ;
#794 = AXIS2_PLACEMENT_3D ( 'NONE', #432, #447, #448 ) ;
#795 = AXIS2_PLACEMENT_3D ( 'NONE', #440, #457, #430 ) ;
#796 = AXIS2_PLACEMENT_3D ( 'NONE', #633, #609, #610 ) ;
#797 = AXIS2_PLACEMENT_3D ( 'NONE', #462, #485, #472 ) ;
#798 = AXIS2_PLACEMENT_3D ( 'NONE', #624, #622, #608 ) ;
#799 = EDGE_CURVE ( 'NONE', #83, #96, #300, .T. ) ;
#800 = AXIS2_PLACEMENT_3D ( 'NONE', #515, #527, #537 ) ;
#801 = EDGE_CURVE ( 'NONE', #87, #74, #323, .T. ) ;
#802 = EDGE_CURVE ( 'NONE', #72, #98, #321, .T. ) ;
#803 = EDGE_CURVE ( 'NONE', #99, #61, #302, .T. ) ;
#804 = EDGE_CURVE ( 'NONE', #69, #83, #2, .T. ) ;
#805 = AXIS2_PLACEMENT_3D ( 'NONE', #613, #615, #628 ) ;
#806 = AXIS2_PLACEMENT_3D ( 'NONE', #631, #629, #616 ) ;
#807 = AXIS2_PLACEMENT_3D ( 'NONE', #665, #675, #680 ) ;
#808 = AXIS2_PLACEMENT_3D ( 'NONE', #685, #659, #654 ) ;
#809 = AXIS2_PLACEMENT_3D ( 'NONE', #662, #686, #663 ) ;
#810 = AXIS2_PLACEMENT_3D ( 'NONE', #636, #635, #652 ) ;
#811 = EDGE_CURVE ( 'NONE', #199, #202, #324, .T. ) ;
#812 = EDGE_CURVE ( 'NONE', #61, #83, #325, .T. ) ;
#813 = AXIS2_PLACEMENT_3D ( 'NONE', #644, #648, #645 ) ;
#814 = EDGE_CURVE ( 'NONE', #231, #232, #310, .T. ) ;
#815 = AXIS2_PLACEMENT_3D ( 'NONE', #656, #653, #688 ) ;
#816 = AXIS2_PLACEMENT_3D ( 'NONE', #667, #668, #669 ) ;
#817 = AXIS2_PLACEMENT_3D ( 'NONE', #642, #647, #646 ) ;
#818 = AXIS2_PLACEMENT_3D ( 'NONE', #617, #614, #623 ) ;
#819 = AXIS2_PLACEMENT_3D ( 'NONE', #687, #660, #664 ) ;
#820 = AXIS2_PLACEMENT_3D ( 'NONE', #408, #399, #403 ) ;
#821 = AXIS2_PLACEMENT_3D ( 'NONE', #478, #467, #468 ) ;
#822 = AXIS2_PLACEMENT_3D ( 'NONE', #469, #499, #471 ) ;
#823 = AXIS2_PLACEMENT_3D ( 'NONE', #474, #476, #477 ) ;
#824 = AXIS2_PLACEMENT_3D ( 'NONE', #558, #575, #563 ) ;
#825 = CC_DESIGN_APPROVAL ( #840, ( #828 ) ) ;
#826 = PRODUCT_DEFINITION_FORMATION_WITH_SPECIFIED_SOURCE ( 'ANY', '', #724, .NOT_KNOWN. ) ;
#827 = CC_DESIGN_PERSON_AND_ORGANIZATION_ASSIGNMENT ( #353, #589, ( #826 ) ) ;
#828 = PRODUCT_DEFINITION ( 'UNKNOWN', '', #826, #852 ) ;
#829 = CC_DESIGN_SECURITY_CLASSIFICATION ( #835, ( #826 ) ) ;
#830 = APPROVAL ( #599, 'UNSPECIFIED' ) ;
#831 = AXIS2_PLACEMENT_3D ( 'NONE', #581, #548, #546 ) ;
#832 = PRODUCT_RELATED_PRODUCT_CATEGORY ( 'detail', '', ( #724 ) ) ;
#833 = AXIS2_PLACEMENT_3D ( 'NONE', #547, #568, #571 ) ;
#834 = AXIS2_PLACEMENT_3D ( 'NONE', #579, #552, #553 ) ;
#835 = SECURITY_CLASSIFICATION ( '', '', #591 ) ;
#836 = CC_DESIGN_PERSON_AND_ORGANIZATION_ASSIGNMENT ( #313, #596, ( #724 ) ) ;
#837 = AXIS2_PLACEMENT_3D ( 'NONE', #567, #583, #550 ) ;
#838 = CC_DESIGN_DATE_AND_TIME_ASSIGNMENT ( #363, #585, ( #835 ) ) ;
#839 = AXIS2_PLACEMENT_3D ( 'NONE', #569, #557, #584 ) ;
#840 = APPROVAL ( #593, 'UNSPECIFIED' ) ;
#841 = CC_DESIGN_APPROVAL ( #848, ( #835 ) ) ;
#842 = AXIS2_PLACEMENT_3D ( 'NONE', #576, #551, #582 ) ;
#843 = CC_DESIGN_DATE_AND_TIME_ASSIGNMENT ( #338, #590, ( #828 ) ) ;
#844 = CC_DESIGN_APPROVAL ( #830, ( #826 ) ) ;
#845 = CC_DESIGN_PERSON_AND_ORGANIZATION_ASSIGNMENT ( #367, #601, ( #826 ) ) ;
#846 = CC_DESIGN_PERSON_AND_ORGANIZATION_ASSIGNMENT ( #360, #598, ( #835 ) ) ;
#847 = AXIS2_PLACEMENT_3D ( 'NONE', #561, #570, #566 ) ;
#848 = APPROVAL ( #597, 'UNSPECIFIED' ) ;
#849 =( GEOMETRIC_REPRESENTATION_CONTEXT ( 3 ) GLOBAL_UNCERTAINTY_ASSIGNED_CONTEXT ( ( #16 ) ) GLOBAL_UNIT_ASSIGNED_CONTEXT ( ( #572, #559, #560 ) ) REPRESENTATION_CONTEXT ( 'NONE', 'WORKASPACE' ) );
#850 = CC_DESIGN_PERSON_AND_ORGANIZATION_ASSIGNMENT ( #334, #588, ( #828 ) ) ;
#851 = PRODUCT_DEFINITION_SHAPE ( 'NONE', 'NONE',  #828 ) ;
#852 = DESIGN_CONTEXT ( 'detailed design', #587, 'design' ) ;
ENDSEC;
END-ISO-10303-21;
