ISO-10303-21;
HEADER;
FILE_DESCRIPTION (( 'STEP AP214' ),
    '1' );
FILE_NAME ('ALP0410.STEP',
    '2018-11-23T13:26:20',
    ( '' ),
    ( '' ),
    'SwSTEP 2.0',
    'SolidWorks 2016',
    '' );
FILE_SCHEMA (( 'AUTOMOTIVE_DESIGN' ));
ENDSEC;

DATA;
#1 = ORIENTED_EDGE ( 'NONE', *, *, #559, .T. ) ;
#2 = VERTEX_POINT ( 'NONE', #588 ) ;
#3 = DIRECTION ( 'NONE',  ( 0.0000000000000000000, 0.0000000000000000000, 1.000000000000000000 ) ) ;
#4 = AXIS2_PLACEMENT_3D ( 'NONE', #388, #448, #574 ) ;
#5 = DIRECTION ( 'NONE',  ( 0.0000000000000000000, 0.0000000000000000000, 1.000000000000000000 ) ) ;
#6 = CARTESIAN_POINT ( 'NONE',  ( 7.000000000000000000, 1.000000000000000000, -3.872983346207417000 ) ) ;
#7 = CARTESIAN_POINT ( 'NONE',  ( 9.001709923443424800, 1.000000000000000000, -3.181375966108392900 ) ) ;
#8 = AXIS2_PLACEMENT_3D ( 'NONE', #12, #549, #332 ) ;
#9 = FACE_OUTER_BOUND ( 'NONE', #632, .T. ) ;
#10 = DIRECTION ( 'NONE',  ( 1.000000000000000000, -0.0000000000000000000, -0.0000000000000000000 ) ) ;
#11 = CIRCLE ( 'NONE', #214, 2.499999999999997800 ) ;
#12 = CARTESIAN_POINT ( 'NONE',  ( 7.000000000000000000, 0.0000000000000000000, 0.0000000000000000000 ) ) ;
#13 = ORIENTED_EDGE ( 'NONE', *, *, #563, .T. ) ;
#14 = ORIENTED_EDGE ( 'NONE', *, *, #376, .F. ) ;
#15 = DIRECTION ( 'NONE',  ( 1.000000000000000000, -0.0000000000000000000, -0.0000000000000000000 ) ) ;
#16 = CONICAL_SURFACE ( 'NONE', #650, 3.024999999999999900, 0.7853981633974479500 ) ;
#17 = FACE_OUTER_BOUND ( 'NONE', #324, .T. ) ;
#18 = VERTEX_POINT ( 'NONE', #258 ) ;
#19 = EDGE_LOOP ( 'NONE', ( #513, #45, #119, #235 ) ) ;
#20 = ADVANCED_FACE ( 'NONE', ( #491 ), #416, .F. ) ;
#21 = VERTEX_POINT ( 'NONE', #478 ) ;
#22 = AXIS2_PLACEMENT_3D ( 'NONE', #527, #411, #476 ) ;
#23 =( LENGTH_UNIT ( ) NAMED_UNIT ( * ) SI_UNIT ( .MILLI., .METRE. ) );
#24 = VECTOR ( 'NONE', #577, 1000.000000000000000 ) ;
#25 = LINE ( 'NONE', #467, #312 ) ;
#26 = DIRECTION ( 'NONE',  ( -1.000000000000000000, -0.0000000000000000000, -0.0000000000000000000 ) ) ;
#27 = APPLICATION_CONTEXT ( 'automotive_design' ) ;
#28 = FACE_OUTER_BOUND ( 'NONE', #693, .T. ) ;
#29 = VERTEX_POINT ( 'NONE', #420 ) ;
#30 = DIRECTION ( 'NONE',  ( 0.0000000000000000000, 0.0000000000000000000, 1.000000000000000000 ) ) ;
#31 = ORIENTED_EDGE ( 'NONE', *, *, #604, .F. ) ;
#32 = CARTESIAN_POINT ( 'NONE',  ( 5.999999999999998200, 0.0000000000000000000, 0.0000000000000000000 ) ) ;
#33 = CARTESIAN_POINT ( 'NONE',  ( 0.0000000000000000000, 0.0000000000000000000, 0.0000000000000000000 ) ) ;
#34 = DIRECTION ( 'NONE',  ( -0.0000000000000000000, 0.0000000000000000000, -1.000000000000000000 ) ) ;
#35 = CYLINDRICAL_SURFACE ( 'NONE', #22, 2.499999999999998700 ) ;
#36 = AXIS2_PLACEMENT_3D ( 'NONE', #539, #211, #599 ) ;
#37 = ADVANCED_FACE ( 'NONE', ( #544 ), #424, .T. ) ;
#38 =( LENGTH_UNIT ( ) NAMED_UNIT ( * ) SI_UNIT ( .MILLI., .METRE. ) );
#39 = DIRECTION ( 'NONE',  ( 0.0000000000000000000, -7.105427357601001900E-015, 1.000000000000000000 ) ) ;
#40 = ORIENTED_EDGE ( 'NONE', *, *, #257, .T. ) ;
#41 = DIRECTION ( 'NONE',  ( 0.0000000000000000000, 0.0000000000000000000, 1.000000000000000000 ) ) ;
#42 = PRESENTATION_LAYER_ASSIGNMENT (  '', '', ( #302 ) ) ;
#43 = ORIENTED_EDGE ( 'NONE', *, *, #563, .F. ) ;
#44 = EDGE_LOOP ( 'NONE', ( #1, #261, #477, #137, #233 ) ) ;
#45 = ORIENTED_EDGE ( 'NONE', *, *, #497, .T. ) ;
#46 = MECHANICAL_DESIGN_GEOMETRIC_PRESENTATION_REPRESENTATION (  '', ( #580 ), #157 ) ;
#47 = CIRCLE ( 'NONE', #156, 2.499999999999999100 ) ;
#48 = EDGE_CURVE ( 'NONE', #386, #385, #11, .T. ) ;
#49 = ORIENTED_EDGE ( 'NONE', *, *, #238, .T. ) ;
#50 = DIRECTION ( 'NONE',  ( 1.000000000000000000, -0.0000000000000000000, -0.0000000000000000000 ) ) ;
#51 = PLANE ( 'NONE',  #229 ) ;
#52 = AXIS2_PLACEMENT_3D ( 'NONE', #670, #10, #674 ) ;
#53 = DIRECTION ( 'NONE',  ( 0.0000000000000000000, 1.000000000000000000, 0.0000000000000000000 ) ) ;
#54 = LINE ( 'NONE', #146, #149 ) ;
#55 = DIRECTION ( 'NONE',  ( 1.000000000000000000, -0.0000000000000000000, -0.0000000000000000000 ) ) ;
#56 = SURFACE_STYLE_FILL_AREA ( #369 ) ;
#57 = EDGE_LOOP ( 'NONE', ( #564, #443, #675, #621 ) ) ;
#58 = ORIENTED_EDGE ( 'NONE', *, *, #124, .F. ) ;
#59 = CARTESIAN_POINT ( 'NONE',  ( 0.0000000000000000000, 1.000000000000000000, -2.291287847477918600 ) ) ;
#60 = PRODUCT_DEFINITION_SHAPE ( 'NONE', 'NONE',  #493 ) ;
#61 = CARTESIAN_POINT ( 'NONE',  ( 9.999999999999998200, 1.000000000000000000, 7.300171619476714100 ) ) ;
#62 = CIRCLE ( 'NONE', #103, 2.499999999999998700 ) ;
#63 = CARTESIAN_POINT ( 'NONE',  ( 0.0000000000000000000, 0.0000000000000000000, 0.0000000000000000000 ) ) ;
#64 = AXIS2_PLACEMENT_3D ( 'NONE', #609, #665, #677 ) ;
#65 = ORIENTED_EDGE ( 'NONE', *, *, #148, .F. ) ;
#66 = DIRECTION ( 'NONE',  ( 0.0000000000000000000, 0.0000000000000000000, 1.000000000000000000 ) ) ;
#67 = COLOUR_RGB ( '',1.000000000000000000, 0.9490196078431372100, 0.9098039215686274400 ) ;
#68 = DIRECTION ( 'NONE',  ( 0.0000000000000000000, 0.0000000000000000000, 1.000000000000000000 ) ) ;
#69 = ADVANCED_FACE ( 'NONE', ( #28 ), #250, .F. ) ;
#70 = CARTESIAN_POINT ( 'NONE',  ( 5.999999999999998200, -1.000000000000000000, 7.300171619476714100 ) ) ;
#71 = VECTOR ( 'NONE', #519, 1000.000000000000000 ) ;
#72 = CIRCLE ( 'NONE', #195, 3.199999999999996200 ) ;
#73 = ADVANCED_FACE ( 'NONE', ( #447 ), #383, .T. ) ;
#74 = ORIENTED_EDGE ( 'NONE', *, *, #48, .F. ) ;
#75 = ORIENTED_EDGE ( 'NONE', *, *, #271, .T. ) ;
#76 = EDGE_CURVE ( 'NONE', #94, #183, #116, .T. ) ;
#77 = CARTESIAN_POINT ( 'NONE',  ( 9.001671691273941200, -1.000000000000000000, -3.181389483221535900 ) ) ;
#78 =( LENGTH_UNIT ( ) NAMED_UNIT ( * ) SI_UNIT ( .MILLI., .METRE. ) );
#79 = CARTESIAN_POINT ( 'NONE',  ( 5.999999999999998200, -1.000000000000000000, 2.291287847477918600 ) ) ;
#80 = VECTOR ( 'NONE', #667, 1000.000000000000100 ) ;
#81 = EDGE_CURVE ( 'NONE', #704, #537, #586, .T. ) ;
#82 = CARTESIAN_POINT ( 'NONE',  ( 0.5250000000000011300, 0.0000000000000000000, 0.0000000000000000000 ) ) ;
#83 = DIRECTION ( 'NONE',  ( -1.000000000000000000, 0.0000000000000000000, 0.0000000000000000000 ) ) ;
#84 = CARTESIAN_POINT ( 'NONE',  ( 0.0000000000000000000, 0.0000000000000000000, 0.0000000000000000000 ) ) ;
#85 = ORIENTED_EDGE ( 'NONE', *, *, #124, .T. ) ;
#86 = PLANE ( 'NONE',  #175 ) ;
#87 = LINE ( 'NONE', #188, #71 ) ;
#88 = CIRCLE ( 'NONE', #167, 3.024999999999999900 ) ;
#89 = AXIS2_PLACEMENT_3D ( 'NONE', #394, #437, #174 ) ;
#90 = ADVANCED_FACE ( 'NONE', ( #317, #322 ), #430, .T. ) ;
#91 = CARTESIAN_POINT ( 'NONE',  ( 0.0000000000000000000, 0.0000000000000000000, 0.0000000000000000000 ) ) ;
#92 = SURFACE_STYLE_USAGE ( .BOTH. , #703 ) ;
#93 = EDGE_LOOP ( 'NONE', ( #152, #101, #161, #673 ) ) ;
#94 = VERTEX_POINT ( 'NONE', #6 ) ;
#95 = VERTEX_POINT ( 'NONE', #159 ) ;
#96 = DIRECTION ( 'NONE',  ( 0.0000000000000000000, 0.0000000000000000000, 1.000000000000000000 ) ) ;
#97 = EDGE_CURVE ( 'NONE', #94, #268, #402, .T. ) ;
#98 = DIRECTION ( 'NONE',  ( -1.000000000000000000, 0.0000000000000000000, 0.0000000000000000000 ) ) ;
#99 = LINE ( 'NONE', #337, #80 ) ;
#100 = DIRECTION ( 'NONE',  ( 0.0000000000000000000, 0.0000000000000000000, -1.000000000000000000 ) ) ;
#101 = ORIENTED_EDGE ( 'NONE', *, *, #396, .T. ) ;
#102 =( LENGTH_UNIT ( ) NAMED_UNIT ( * ) SI_UNIT ( .MILLI., .METRE. ) );
#103 = AXIS2_PLACEMENT_3D ( 'NONE', #298, #524, #642 ) ;
#104 = PRESENTATION_STYLE_ASSIGNMENT (( #646 ) ) ;
#105 = DIRECTION ( 'NONE',  ( 0.0000000000000000000, 0.0000000000000000000, -1.000000000000000000 ) ) ;
#106 = ORIENTED_EDGE ( 'NONE', *, *, #148, .T. ) ;
#107 = ORIENTED_EDGE ( 'NONE', *, *, #277, .F. ) ;
#108 = CARTESIAN_POINT ( 'NONE',  ( 0.0000000000000000000, 0.0000000000000000000, -3.199999999999996200 ) ) ;
#109 = AXIS2_PLACEMENT_3D ( 'NONE', #160, #479, #3 ) ;
#110 = LINE ( 'NONE', #134, #686 ) ;
#111 = CARTESIAN_POINT ( 'NONE',  ( 5.999999999999998200, 1.000000000000000000, 7.300171619476714100 ) ) ;
#112 = AXIS2_PLACEMENT_3D ( 'NONE', #400, #198, #141 ) ;
#113 = LINE ( 'NONE', #643, #681 ) ;
#114 = LINE ( 'NONE', #390, #635 ) ;
#115 = AXIS2_PLACEMENT_3D ( 'NONE', #550, #280, #441 ) ;
#116 = CIRCLE ( 'NONE', #661, 4.000000000000000000 ) ;
#117 = CARTESIAN_POINT ( 'NONE',  ( 9.999999999999998200, 1.000000000000000000, -2.828427124746190300 ) ) ;
#118 = VERTEX_POINT ( 'NONE', #213 ) ;
#119 = ORIENTED_EDGE ( 'NONE', *, *, #154, .F. ) ;
#120 = DIRECTION ( 'NONE',  ( 1.000000000000000000, -0.0000000000000000000, -0.0000000000000000000 ) ) ;
#121 = VERTEX_POINT ( 'NONE', #230 ) ;
#122 = PLANE ( 'NONE',  #4 ) ;
#123 = SURFACE_STYLE_USAGE ( .BOTH. , #690 ) ;
#124 = EDGE_CURVE ( 'NONE', #523, #610, #692, .T. ) ;
#125 = ORIENTED_EDGE ( 'NONE', *, *, #319, .T. ) ;
#126 = ADVANCED_FACE ( 'NONE', ( #17 ), #16, .F. ) ;
#127 = FILL_AREA_STYLE ('',( #454 ) ) ;
#128 = AXIS2_PLACEMENT_3D ( 'NONE', #404, #83, #463 ) ;
#129 = CARTESIAN_POINT ( 'NONE',  ( 5.999999999999998200, 1.000000000000000000, 3.872983346207417000 ) ) ;
#130 = CYLINDRICAL_SURFACE ( 'NONE', #387, 2.499999999999998700 ) ;
#131 = DIRECTION ( 'NONE',  ( 0.0000000000000000000, 0.0000000000000000000, 1.000000000000000000 ) ) ;
#132 = EDGE_CURVE ( 'NONE', #212, #2, #671, .T. ) ;
#133 = DIRECTION ( 'NONE',  ( 1.000000000000000000, -0.0000000000000000000, -0.0000000000000000000 ) ) ;
#134 = CARTESIAN_POINT ( 'NONE',  ( 0.8000000000000003800, 0.0000000000000000000, -4.000000000000000000 ) ) ;
#135 = CARTESIAN_POINT ( 'NONE',  ( 5.999999999999998200, 1.000000000000000000, -3.872983346207417000 ) ) ;
#136 = CARTESIAN_POINT ( 'NONE',  ( 0.0000000000000000000, 1.000000000000000000, 3.872983346207417000 ) ) ;
#137 = ORIENTED_EDGE ( 'NONE', *, *, #482, .F. ) ;
#138 = SURFACE_SIDE_STYLE ('',( #217 ) ) ;
#139 = ORIENTED_EDGE ( 'NONE', *, *, #163, .F. ) ;
#140 = CARTESIAN_POINT ( 'NONE',  ( 0.0000000000000000000, 0.0000000000000000000, 0.0000000000000000000 ) ) ;
#141 = DIRECTION ( 'NONE',  ( 1.000000000000000000, 0.0000000000000000000, 0.0000000000000000000 ) ) ;
#142 = DIRECTION ( 'NONE',  ( -0.0000000000000000000, 0.0000000000000000000, -1.000000000000000000 ) ) ;
#143 = VECTOR ( 'NONE', #552, 1000.000000000000000 ) ;
#144 = CARTESIAN_POINT ( 'NONE',  ( 8.001214341714264900, -1.000000000000000000, -3.528300104301338900 ) ) ;
#145 = ORIENTED_EDGE ( 'NONE', *, *, #81, .F. ) ;
#146 = CARTESIAN_POINT ( 'NONE',  ( 5.999999999999998200, -1.000000000000000000, 7.300171619476714100 ) ) ;
#147 =( NAMED_UNIT ( * ) SI_UNIT ( $, .STERADIAN. ) SOLID_ANGLE_UNIT ( ) );
#148 = EDGE_CURVE ( 'NONE', #492, #21, #656, .T. ) ;
#149 = VECTOR ( 'NONE', #309, 1000.000000000000000 ) ;
#150 = AXIS2_PLACEMENT_3D ( 'NONE', #32, #413, #30 ) ;
#151 = PRODUCT_DEFINITION_FORMATION_WITH_SPECIFIED_SOURCE ( 'ANY', '', #685, .NOT_KNOWN. ) ;
#152 = ORIENTED_EDGE ( 'NONE', *, *, #623, .F. ) ;
#153 = ORIENTED_EDGE ( 'NONE', *, *, #97, .T. ) ;
#154 = EDGE_CURVE ( 'NONE', #386, #556, #356, .T. ) ;
#155 = CARTESIAN_POINT ( 'NONE',  ( 0.0000000000000000000, 0.0000000000000000000, 0.0000000000000000000 ) ) ;
#156 = AXIS2_PLACEMENT_3D ( 'NONE', #82, #458, #191 ) ;
#157 =( GEOMETRIC_REPRESENTATION_CONTEXT ( 3 ) GLOBAL_UNCERTAINTY_ASSIGNED_CONTEXT ( ( #203 ) ) GLOBAL_UNIT_ASSIGNED_CONTEXT ( ( #38, #412, #417 ) ) REPRESENTATION_CONTEXT ( 'NONE', 'WORKASPACE' ) );
#158 = CIRCLE ( 'NONE', #8, 4.000000000000000000 ) ;
#159 = CARTESIAN_POINT ( 'NONE',  ( 7.000000000000000000, -1.000000000000000000, -3.872983346207417000 ) ) ;
#160 = CARTESIAN_POINT ( 'NONE',  ( 0.0000000000000000000, 0.0000000000000000000, 0.0000000000000000000 ) ) ;
#161 = ORIENTED_EDGE ( 'NONE', *, *, #587, .F. ) ;
#162 = CARTESIAN_POINT ( 'NONE',  ( 0.0000000000000000000, 0.0000000000000000000, 0.0000000000000000000 ) ) ;
#163 = EDGE_CURVE ( 'NONE', #95, #251, #406, .T. ) ;
#164 = CARTESIAN_POINT ( 'NONE',  ( 7.000000000000000000, -1.000000000000000000, 3.872983346207417000 ) ) ;
#165 = EDGE_CURVE ( 'NONE', #121, #385, #227, .T. ) ;
#166 =( GEOMETRIC_REPRESENTATION_CONTEXT ( 3 ) GLOBAL_UNCERTAINTY_ASSIGNED_CONTEXT ( ( #633 ) ) GLOBAL_UNIT_ASSIGNED_CONTEXT ( ( #78, #178, #579 ) ) REPRESENTATION_CONTEXT ( 'NONE', 'WORKASPACE' ) );
#167 = AXIS2_PLACEMENT_3D ( 'NONE', #84, #26, #570 ) ;
#168 = CARTESIAN_POINT ( 'NONE',  ( 7.000000000000000000, 1.000000000000000000, 3.872983346207417000 ) ) ;
#169 = ORIENTED_EDGE ( 'NONE', *, *, #623, .T. ) ;
#170 = VERTEX_POINT ( 'NONE', #490 ) ;
#171 = CARTESIAN_POINT ( 'NONE',  ( 7.000000000000000000, -1.000000000000000000, 3.872983346207417000 ) ) ;
#172 = CARTESIAN_POINT ( 'NONE',  ( 9.999999999999998200, 1.000000000000000000, -2.828427124746190300 ) ) ;
#173 = FACE_OUTER_BOUND ( 'NONE', #649, .T. ) ;
#174 = DIRECTION ( 'NONE',  ( 0.0000000000000000000, 0.0000000000000000000, 1.000000000000000000 ) ) ;
#175 = AXIS2_PLACEMENT_3D ( 'NONE', #696, #357, #34 ) ;
#176 = DIRECTION ( 'NONE',  ( 1.000000000000000000, -0.0000000000000000000, -0.0000000000000000000 ) ) ;
#177 = VERTEX_POINT ( 'NONE', #439 ) ;
#178 =( NAMED_UNIT ( * ) PLANE_ANGLE_UNIT ( ) SI_UNIT ( $, .RADIAN. ) );
#179 = CARTESIAN_POINT ( 'NONE',  ( 9.999999999999998200, 0.0000000000000000000, 0.0000000000000000000 ) ) ;
#180 = EDGE_CURVE ( 'NONE', #340, #94, #466, .T. ) ;
#181 = EDGE_LOOP ( 'NONE', ( #58, #352, #575, #525, #139, #595, #410, #555 ) ) ;
#182 = CARTESIAN_POINT ( 'NONE',  ( 9.999999999999998200, 0.0000000000000000000, 0.0000000000000000000 ) ) ;
#183 = VERTEX_POINT ( 'NONE', #168 ) ;
#184 = DIRECTION ( 'NONE',  ( 0.0000000000000000000, 0.0000000000000000000, -1.000000000000000000 ) ) ;
#185 = SURFACE_STYLE_USAGE ( .BOTH. , #138 ) ;
#186 = ORIENTED_EDGE ( 'NONE', *, *, #81, .T. ) ;
#187 = PRODUCT_RELATED_PRODUCT_CATEGORY ( 'part', '', ( #685 ) ) ;
#188 = CARTESIAN_POINT ( 'NONE',  ( 0.0000000000000000000, 3.061616997868381700E-016, -2.499999999999998700 ) ) ;
#189 = DIRECTION ( 'NONE',  ( 1.000000000000000000, 0.0000000000000000000, -0.0000000000000000000 ) ) ;
#190 = APPLICATION_PROTOCOL_DEFINITION ( 'draft international standard', 'automotive_design', 1998, #27 ) ;
#191 = DIRECTION ( 'NONE',  ( 0.0000000000000000000, 0.0000000000000000000, 1.000000000000000000 ) ) ;
#192 = DIRECTION ( 'NONE',  ( -0.0000000000000000000, -0.0000000000000000000, 1.000000000000000000 ) ) ;
#193 = VECTOR ( 'NONE', #620, 1000.000000000000000 ) ;
#194 = DIRECTION ( 'NONE',  ( 1.000000000000000000, -0.0000000000000000000, -0.0000000000000000000 ) ) ;
#195 = AXIS2_PLACEMENT_3D ( 'NONE', #140, #584, #41 ) ;
#196 = FACE_OUTER_BOUND ( 'NONE', #181, .T. ) ;
#197 = CARTESIAN_POINT ( 'NONE',  ( 5.999999999999998200, -1.000000000000000000, 7.300171619476714100 ) ) ;
#198 = DIRECTION ( 'NONE',  ( 0.0000000000000000000, 0.0000000000000000000, 1.000000000000000000 ) ) ;
#199 = CLOSED_SHELL ( 'NONE', ( #240, #69, #626, #37, #254, #517, #90, #469, #567, #343, #346, #126, #20, #453, #473, #562, #365, #590, #73 ) ) ;
#200 = CARTESIAN_POINT ( 'NONE',  ( 0.0000000000000000000, 1.000000000000000000, 2.291287847477918600 ) ) ;
#201 = CARTESIAN_POINT ( 'NONE',  ( 5.999999999999998200, -1.000000000000000000, 3.872983346207417000 ) ) ;
#202 = APPLICATION_CONTEXT ( 'automotive_design' ) ;
#203 = UNCERTAINTY_MEASURE_WITH_UNIT (LENGTH_MEASURE( 1.000000000000000100E-005 ), #38, 'distance_accuracy_value', 'NONE');
#204 = VECTOR ( 'NONE', #558, 1000.000000000000000 ) ;
#205 = DIRECTION ( 'NONE',  ( 0.0000000000000000000, 0.0000000000000000000, -1.000000000000000000 ) ) ;
#206 = ORIENTED_EDGE ( 'NONE', *, *, #277, .T. ) ;
#207 = ORIENTED_EDGE ( 'NONE', *, *, #604, .T. ) ;
#208 = ORIENTED_EDGE ( 'NONE', *, *, #480, .T. ) ;
#209 = SHAPE_DEFINITION_REPRESENTATION ( #60, #278 ) ;
#210 = CONICAL_SURFACE ( 'NONE', #700, 2.999999999999999600, 0.3217505543966425200 ) ;
#211 = DIRECTION ( 'NONE',  ( -1.000000000000000000, -0.0000000000000000000, -0.0000000000000000000 ) ) ;
#212 = VERTEX_POINT ( 'NONE', #664 ) ;
#213 = CARTESIAN_POINT ( 'NONE',  ( 5.999999999999998200, -1.000000000000000000, -2.291287847477918600 ) ) ;
#214 = AXIS2_PLACEMENT_3D ( 'NONE', #605, #655, #426 ) ;
#215 = CARTESIAN_POINT ( 'NONE',  ( 9.999999999999998200, -1.000000000000000000, 2.828427124746189400 ) ) ;
#216 =( NAMED_UNIT ( * ) PLANE_ANGLE_UNIT ( ) SI_UNIT ( $, .RADIAN. ) );
#217 = SURFACE_STYLE_FILL_AREA ( #249 ) ;
#218 = COLOUR_RGB ( '',1.000000000000000000, 0.9490196078431372100, 0.9098039215686274400 ) ;
#219 = LINE ( 'NONE', #354, #706 ) ;
#220 = EDGE_LOOP ( 'NONE', ( #658, #286, #375, #186 ) ) ;
#221 = ORIENTED_EDGE ( 'NONE', *, *, #313, .F. ) ;
#222 = CARTESIAN_POINT ( 'NONE',  ( 5.999999999999998200, 0.0000000000000000000, 0.0000000000000000000 ) ) ;
#223 = EDGE_LOOP ( 'NONE', ( #475, #682, #663, #377 ) ) ;
#224 = DIRECTION ( 'NONE',  ( 1.000000000000000000, -0.0000000000000000000, -0.0000000000000000000 ) ) ;
#225 = CARTESIAN_POINT ( 'NONE',  ( 9.999999999999998200, 1.000000000000000000, 2.291287847477918600 ) ) ;
#226 = AXIS2_PLACEMENT_3D ( 'NONE', #33, #253, #363 ) ;
#227 = LINE ( 'NONE', #59, #699 ) ;
#228 = CARTESIAN_POINT ( 'NONE',  ( 7.000000000000000000, 1.000000000000000000, 3.872983346207417000 ) ) ;
#229 = AXIS2_PLACEMENT_3D ( 'NONE', #486, #53, #505 ) ;
#230 = CARTESIAN_POINT ( 'NONE',  ( 5.999999999999998200, 1.000000000000000000, -2.291287847477918600 ) ) ;
#231 = CARTESIAN_POINT ( 'NONE',  ( 9.999999999999998200, 1.000000000000000000, 2.828427124746189400 ) ) ;
#232 = PRESENTATION_STYLE_ASSIGNMENT (( #485 ) ) ;
#233 = ORIENTED_EDGE ( 'NONE', *, *, #395, .F. ) ;
#234 = DIRECTION ( 'NONE',  ( 0.0000000000000000000, 0.0000000000000000000, 1.000000000000000000 ) ) ;
#235 = ORIENTED_EDGE ( 'NONE', *, *, #48, .T. ) ;
#236 = SURFACE_SIDE_STYLE ('',( #380 ) ) ;
#237 =( LENGTH_UNIT ( ) NAMED_UNIT ( * ) SI_UNIT ( .MILLI., .METRE. ) );
#238 = EDGE_CURVE ( 'NONE', #18, #121, #256, .T. ) ;
#239 = COLOUR_RGB ( '',1.000000000000000000, 0.9490196078431372100, 0.9098039215686274400 ) ;
#240 = ADVANCED_FACE ( 'NONE', ( #508 ), #501, .T. ) ;
#241 = AXIS2_PLACEMENT_3D ( 'NONE', #366, #422, #96 ) ;
#242 = ORIENTED_EDGE ( 'NONE', *, *, #348, .T. ) ;
#243 = ORIENTED_EDGE ( 'NONE', *, *, #180, .F. ) ;
#244 = VERTEX_POINT ( 'NONE', #129 ) ;
#245 =( LENGTH_UNIT ( ) NAMED_UNIT ( * ) SI_UNIT ( .MILLI., .METRE. ) );
#246 = CARTESIAN_POINT ( 'NONE',  ( 9.999999999999998200, 2.999999999999999600, 0.0000000000000000000 ) ) ;
#247 = VECTOR ( 'NONE', #105, 1000.000000000000000 ) ;
#248 = SURFACE_SIDE_STYLE ('',( #281 ) ) ;
#249 = FILL_AREA_STYLE ('',( #518 ) ) ;
#250 = CONICAL_SURFACE ( 'NONE', #109, 3.024999999999999900, 0.7853981633974479500 ) ;
#251 = VERTEX_POINT ( 'NONE', #619 ) ;
#252 = VERTEX_POINT ( 'NONE', #108 ) ;
#253 = DIRECTION ( 'NONE',  ( -1.000000000000000000, 0.0000000000000000000, 0.0000000000000000000 ) ) ;
#254 = ADVANCED_FACE ( 'NONE', ( #707 ), #210, .T. ) ;
#255 = FILL_AREA_STYLE_COLOUR ( '', #218 ) ;
#256 = CIRCLE ( 'NONE', #64, 2.499999999999998700 ) ;
#257 = EDGE_CURVE ( 'NONE', #2, #340, #373, .T. ) ;
#258 = CARTESIAN_POINT ( 'NONE',  ( 5.999999999999998200, 3.061616997868381700E-016, -2.499999999999998700 ) ) ;
#259 = COLOUR_RGB ( '',1.000000000000000000, 0.9490196078431372100, 0.9098039215686274400 ) ;
#260 = ORIENTED_EDGE ( 'NONE', *, *, #381, .F. ) ;
#261 = ORIENTED_EDGE ( 'NONE', *, *, #349, .T. ) ;
#262 = AXIS2_PLACEMENT_3D ( 'NONE', #63, #224, #561 ) ;
#263 = DIRECTION ( 'NONE',  ( 1.000000000000000000, -0.0000000000000000000, -0.0000000000000000000 ) ) ;
#264 = STYLED_ITEM ( 'NONE', ( #488 ), #469 ) ;
#265 = CIRCLE ( 'NONE', #355, 2.499999999999998700 ) ;
#266 = EDGE_CURVE ( 'NONE', #342, #170, #560, .T. ) ;
#267 = MECHANICAL_DESIGN_GEOMETRIC_PRESENTATION_REPRESENTATION (  '', ( #325 ), #333 ) ;
#268 = VERTEX_POINT ( 'NONE', #172 ) ;
#269 =( NAMED_UNIT ( * ) SI_UNIT ( $, .STERADIAN. ) SOLID_ANGLE_UNIT ( ) );
#270 = ORIENTED_EDGE ( 'NONE', *, *, #154, .T. ) ;
#271 = EDGE_CURVE ( 'NONE', #21, #292, #541, .T. ) ;
#272 = DIRECTION ( 'NONE',  ( 0.0000000000000000000, 0.0000000000000000000, -1.000000000000000000 ) ) ;
#273 = UNCERTAINTY_MEASURE_WITH_UNIT (LENGTH_MEASURE( 1.000000000000000100E-005 ), #102, 'distance_accuracy_value', 'NONE');
#274 = DIRECTION ( 'NONE',  ( -1.000000000000000000, 0.0000000000000000000, 0.0000000000000000000 ) ) ;
#275 = VECTOR ( 'NONE', #436, 1000.000000000000000 ) ;
#276 = ORIENTED_EDGE ( 'NONE', *, *, #376, .T. ) ;
#277 = EDGE_CURVE ( 'NONE', #118, #18, #62, .T. ) ;
#278 = ADVANCED_BREP_SHAPE_REPRESENTATION ( 'ALP0410', ( #532, #112 ), #314 ) ;
#279 = PRESENTATION_LAYER_ASSIGNMENT (  '', '', ( #408 ) ) ;
#280 = DIRECTION ( 'NONE',  ( 1.000000000000000000, -0.0000000000000000000, -0.0000000000000000000 ) ) ;
#281 = SURFACE_STYLE_FILL_AREA ( #687 ) ;
#282 = EDGE_CURVE ( 'NONE', #18, #330, #87, .T. ) ;
#283 = CARTESIAN_POINT ( 'NONE',  ( 9.999999999999998200, 1.000000000000000000, 7.300171619476714100 ) ) ;
#284 = EDGE_LOOP ( 'NONE', ( #548, #598, #435, #242, #125 ) ) ;
#285 = DIRECTION ( 'NONE',  ( 1.000000000000000000, -0.0000000000000000000, -0.0000000000000000000 ) ) ;
#286 = ORIENTED_EDGE ( 'NONE', *, *, #266, .T. ) ;
#287 = EDGE_CURVE ( 'NONE', #610, #547, #289, .T. ) ;
#288 = EDGE_CURVE ( 'NONE', #330, #21, #47, .T. ) ;
#289 = CIRCLE ( 'NONE', #150, 4.000000000000000000 ) ;
#290 =( NAMED_UNIT ( * ) SI_UNIT ( $, .STERADIAN. ) SOLID_ANGLE_UNIT ( ) );
#291 = ORIENTED_EDGE ( 'NONE', *, *, #165, .F. ) ;
#292 = VERTEX_POINT ( 'NONE', #515 ) ;
#293 = SURFACE_STYLE_USAGE ( .BOTH. , #236 ) ;
#294 = VERTEX_POINT ( 'NONE', #522 ) ;
#295 = CARTESIAN_POINT ( 'NONE',  ( 9.999999999999998200, -1.000000000000000000, -2.291287847477918600 ) ) ;
#296 = CARTESIAN_POINT ( 'NONE',  ( 9.999999999999998200, 0.0000000000000000000, 0.0000000000000000000 ) ) ;
#297 = PRESENTATION_LAYER_ASSIGNMENT (  '', '', ( #264 ) ) ;
#298 = CARTESIAN_POINT ( 'NONE',  ( 5.999999999999998200, 0.0000000000000000000, 0.0000000000000000000 ) ) ;
#299 = EDGE_LOOP ( 'NONE', ( #399, #425, #630, #329, #597, #483 ) ) ;
#300 = EDGE_CURVE ( 'NONE', #244, #610, #415, .T. ) ;
#301 = ORIENTED_EDGE ( 'NONE', *, *, #482, .T. ) ;
#302 = STYLED_ITEM ( 'NONE', ( #232 ), #37 ) ;
#303 = CARTESIAN_POINT ( 'NONE',  ( 0.5250000000000011300, 3.061616997868382200E-016, -2.499999999999999100 ) ) ;
#304 = EDGE_CURVE ( 'NONE', #523, #212, #431, .T. ) ;
#305 = AXIS2_PLACEMENT_3D ( 'NONE', #70, #350, #452 ) ;
#306 = FACE_OUTER_BOUND ( 'NONE', #19, .T. ) ;
#307 = ORIENTED_EDGE ( 'NONE', *, *, #381, .T. ) ;
#308 = DIRECTION ( 'NONE',  ( -1.000000000000000000, -0.0000000000000000000, -0.0000000000000000000 ) ) ;
#309 = DIRECTION ( 'NONE',  ( 0.0000000000000000000, 0.0000000000000000000, -1.000000000000000000 ) ) ;
#310 = APPLICATION_PROTOCOL_DEFINITION ( 'draft international standard', 'automotive_design', 1998, #202 ) ;
#311 = AXIS2_PLACEMENT_3D ( 'NONE', #182, #697, #360 ) ;
#312 = VECTOR ( 'NONE', #192, 1000.000000000000000 ) ;
#313 = EDGE_CURVE ( 'NONE', #386, #177, #389, .T. ) ;
#314 =( GEOMETRIC_REPRESENTATION_CONTEXT ( 3 ) GLOBAL_UNCERTAINTY_ASSIGNED_CONTEXT ( ( #624 ) ) GLOBAL_UNIT_ASSIGNED_CONTEXT ( ( #245, #407, #514 ) ) REPRESENTATION_CONTEXT ( 'NONE', 'WORKASPACE' ) );
#315 = AXIS2_PLACEMENT_3D ( 'NONE', #464, #516, #582 ) ;
#316 = CYLINDRICAL_SURFACE ( 'NONE', #262, 4.000000000000000000 ) ;
#317 = FACE_OUTER_BOUND ( 'NONE', #419, .T. ) ;
#318 = ORIENTED_EDGE ( 'NONE', *, *, #300, .F. ) ;
#319 = EDGE_CURVE ( 'NONE', #170, #95, #457, .T. ) ;
#320 = FILL_AREA_STYLE ('',( #611 ) ) ;
#321 = FACE_OUTER_BOUND ( 'NONE', #651, .T. ) ;
#322 = FACE_BOUND ( 'NONE', #566, .T. ) ;
#323 = AXIS2_PLACEMENT_3D ( 'NONE', #91, #263, #596 ) ;
#324 = EDGE_LOOP ( 'NONE', ( #695, #43, #75, #276 ) ) ;
#325 = STYLED_ITEM ( 'NONE', ( #364 ), #626 ) ;
#326 = DIRECTION ( 'NONE',  ( 1.000000000000000000, -0.0000000000000000000, -0.0000000000000000000 ) ) ;
#327 = CARTESIAN_POINT ( 'NONE',  ( 0.0000000000000000000, -1.000000000000000000, -3.872983346207417000 ) ) ;
#328 = LINE ( 'NONE', #421, #204 ) ;
#329 = ORIENTED_EDGE ( 'NONE', *, *, #480, .F. ) ;
#330 = VERTEX_POINT ( 'NONE', #303 ) ;
#331 = CARTESIAN_POINT ( 'NONE',  ( 0.0000000000000000000, 4.898587196589412800E-016, 4.000000000000000000 ) ) ;
#332 = DIRECTION ( 'NONE',  ( 0.0000000000000000000, 0.0000000000000000000, -1.000000000000000000 ) ) ;
#333 =( GEOMETRIC_REPRESENTATION_CONTEXT ( 3 ) GLOBAL_UNCERTAINTY_ASSIGNED_CONTEXT ( ( #680 ) ) GLOBAL_UNIT_ASSIGNED_CONTEXT ( ( #23, #216, #666 ) ) REPRESENTATION_CONTEXT ( 'NONE', 'WORKASPACE' ) );
#334 = AXIS2_PLACEMENT_3D ( 'NONE', #634, #576, #131 ) ;
#335 = CARTESIAN_POINT ( 'NONE',  ( 0.0000000000000000000, 0.0000000000000000000, 2.499999999999998700 ) ) ;
#336 = LINE ( 'NONE', #61, #193 ) ;
#337 = CARTESIAN_POINT ( 'NONE',  ( 0.8000000000000003800, 4.898587196589412800E-016, 4.000000000000000000 ) ) ;
#338 = DIRECTION ( 'NONE',  ( -1.000000000000000000, -0.0000000000000000000, -0.0000000000000000000 ) ) ;
#339 = CARTESIAN_POINT ( 'NONE',  ( 5.999999999999998200, 0.0000000000000000000, 2.499999999999998700 ) ) ;
#340 = VERTEX_POINT ( 'NONE', #135 ) ;
#341 = DIRECTION ( 'NONE',  ( -0.7071067811865479100, 8.659560562354930400E-017, -0.7071067811865472400 ) ) ;
#342 = VERTEX_POINT ( 'NONE', #583 ) ;
#343 = ADVANCED_FACE ( 'NONE', ( #306 ), #86, .T. ) ;
#344 = PRESENTATION_STYLE_ASSIGNMENT (( #185 ) ) ;
#345 = SURFACE_STYLE_FILL_AREA ( #127 ) ;
#346 = ADVANCED_FACE ( 'NONE', ( #173 ), #35, .F. ) ;
#347 = FACE_OUTER_BOUND ( 'NONE', #44, .T. ) ;
#348 = EDGE_CURVE ( 'NONE', #704, #170, #521, .T. ) ;
#349 = EDGE_CURVE ( 'NONE', #450, #342, #510, .T. ) ;
#350 = DIRECTION ( 'NONE',  ( 0.0000000000000000000, -1.000000000000000000, -0.0000000000000000000 ) ) ;
#351 = EDGE_LOOP ( 'NONE', ( #427, #40, #307, #409, #107, #368 ) ) ;
#352 = ORIENTED_EDGE ( 'NONE', *, *, #304, .T. ) ;
#353 = ORIENTED_EDGE ( 'NONE', *, *, #534, .F. ) ;
#354 = CARTESIAN_POINT ( 'NONE',  ( 9.999999999999998200, -1.000000000000000000, 7.300171619476714100 ) ) ;
#355 = AXIS2_PLACEMENT_3D ( 'NONE', #222, #285, #612 ) ;
#356 = LINE ( 'NONE', #283, #535 ) ;
#357 = DIRECTION ( 'NONE',  ( 1.000000000000000000, 0.0000000000000000000, -0.0000000000000000000 ) ) ;
#358 = DIRECTION ( 'NONE',  ( 0.0000000000000000000, -1.000000000000000000, -0.0000000000000000000 ) ) ;
#359 = EDGE_LOOP ( 'NONE', ( #613, #85, #318, #31, #683, #243, #530, #640 ) ) ;
#360 = DIRECTION ( 'NONE',  ( 0.0000000000000000000, 0.0000000000000000000, -1.000000000000000000 ) ) ;
#361 = AXIS2_PLACEMENT_3D ( 'NONE', #506, #176, #625 ) ;
#362 = DIRECTION ( 'NONE',  ( 1.000000000000000000, -0.0000000000000000000, -0.0000000000000000000 ) ) ;
#363 = DIRECTION ( 'NONE',  ( 0.0000000000000000000, 0.0000000000000000000, 1.000000000000000000 ) ) ;
#364 = PRESENTATION_STYLE_ASSIGNMENT (( #293 ) ) ;
#365 = ADVANCED_FACE ( 'NONE', ( #321 ), #51, .F. ) ;
#366 = CARTESIAN_POINT ( 'NONE',  ( 5.999999999999998200, 0.0000000000000000000, 0.0000000000000000000 ) ) ;
#367 =( NAMED_UNIT ( * ) PLANE_ANGLE_UNIT ( ) SI_UNIT ( $, .RADIAN. ) );
#368 = ORIENTED_EDGE ( 'NONE', *, *, #526, .T. ) ;
#369 = FILL_AREA_STYLE ('',( #647 ) ) ;
#370 = CARTESIAN_POINT ( 'NONE',  ( 9.999999999999998200, 0.0000000000000000000, 0.0000000000000000000 ) ) ;
#371 = ORIENTED_EDGE ( 'NONE', *, *, #434, .T. ) ;
#372 =( GEOMETRIC_REPRESENTATION_CONTEXT ( 3 ) GLOBAL_UNCERTAINTY_ASSIGNED_CONTEXT ( ( #403 ) ) GLOBAL_UNIT_ASSIGNED_CONTEXT ( ( #237, #622, #290 ) ) REPRESENTATION_CONTEXT ( 'NONE', 'WORKASPACE' ) );
#373 = CIRCLE ( 'NONE', #361, 4.000000000000000000 ) ;
#374 = EDGE_CURVE ( 'NONE', #251, #2, #444, .T. ) ;
#375 = ORIENTED_EDGE ( 'NONE', *, *, #348, .F. ) ;
#376 = EDGE_CURVE ( 'NONE', #292, #29, #689, .T. ) ;
#377 = ORIENTED_EDGE ( 'NONE', *, *, #497, .F. ) ;
#378 = CARTESIAN_POINT ( 'NONE',  ( 0.8000000000000003800, 0.0000000000000000000, 0.0000000000000000000 ) ) ;
#379 = VECTOR ( 'NONE', #691, 999.9999999999998900 ) ;
#380 = SURFACE_STYLE_FILL_AREA ( #320 ) ;
#381 = EDGE_CURVE ( 'NONE', #340, #121, #617, .T. ) ;
#382 = CARTESIAN_POINT ( 'NONE',  ( 7.000000000000000000, 0.0000000000000000000, 0.0000000000000000000 ) ) ;
#383 = CONICAL_SURFACE ( 'NONE', #472, 4.000000000000000000, 0.7853981633974505000 ) ;
#384 = AXIS2_PLACEMENT_3D ( 'NONE', #155, #274, #5 ) ;
#385 = VERTEX_POINT ( 'NONE', #614 ) ;
#386 = VERTEX_POINT ( 'NONE', #225 ) ;
#387 = AXIS2_PLACEMENT_3D ( 'NONE', #669, #705, #66 ) ;
#388 = CARTESIAN_POINT ( 'NONE',  ( 5.999999999999998200, 1.000000000000000000, 7.300171619476714100 ) ) ;
#389 = LINE ( 'NONE', #200, #397 ) ;
#390 = CARTESIAN_POINT ( 'NONE',  ( 0.0000000000000000000, 3.704556567420743300E-016, -3.024999999999999900 ) ) ;
#391 = DIRECTION ( 'NONE',  ( -0.0000000000000000000, -0.0000000000000000000, 1.000000000000000000 ) ) ;
#392 = CARTESIAN_POINT ( 'NONE',  ( 0.8000000000000003800, 4.898587196589412800E-016, 4.000000000000000000 ) ) ;
#393 = ORIENTED_EDGE ( 'NONE', *, *, #304, .F. ) ;
#394 = CARTESIAN_POINT ( 'NONE',  ( 0.0000000000000000000, 0.0000000000000000000, 0.0000000000000000000 ) ) ;
#395 = EDGE_CURVE ( 'NONE', #547, #629, #668, .T. ) ;
#396 = EDGE_CURVE ( 'NONE', #294, #523, #99, .T. ) ;
#397 = VECTOR ( 'NONE', #585, 1000.000000000000000 ) ;
#398 = PLANE ( 'NONE',  #305 ) ;
#399 = ORIENTED_EDGE ( 'NONE', *, *, #300, .T. ) ;
#400 = CARTESIAN_POINT ( 'NONE',  ( 0.0000000000000000000, 0.0000000000000000000, 0.0000000000000000000 ) ) ;
#401 = ORIENTED_EDGE ( 'NONE', *, *, #313, .T. ) ;
#402 = B_SPLINE_CURVE_WITH_KNOTS ( 'NONE', 3,
 ( #495, #487, #7, #117 ),
 .UNSPECIFIED., .F., .F.,
 ( 4, 4 ),
 ( 0.004603803028568493100, 0.007780503590687232000 ),
 .UNSPECIFIED. ) ;
#403 = UNCERTAINTY_MEASURE_WITH_UNIT (LENGTH_MEASURE( 1.000000000000000100E-005 ), #237, 'distance_accuracy_value', 'NONE');
#404 = CARTESIAN_POINT ( 'NONE',  ( 5.999999999999998200, 0.0000000000000000000, 0.0000000000000000000 ) ) ;
#405 = CIRCLE ( 'NONE', #594, 2.999999999999999600 ) ;
#406 = LINE ( 'NONE', #327, #275 ) ;
#407 =( NAMED_UNIT ( * ) PLANE_ANGLE_UNIT ( ) SI_UNIT ( $, .RADIAN. ) );
#408 = STYLED_ITEM ( 'NONE', ( #344 ), #278 ) ;
#409 = ORIENTED_EDGE ( 'NONE', *, *, #238, .F. ) ;
#410 = ORIENTED_EDGE ( 'NONE', *, *, #559, .F. ) ;
#411 = DIRECTION ( 'NONE',  ( -1.000000000000000000, -0.0000000000000000000, -0.0000000000000000000 ) ) ;
#412 =( NAMED_UNIT ( * ) PLANE_ANGLE_UNIT ( ) SI_UNIT ( $, .RADIAN. ) );
#413 = DIRECTION ( 'NONE',  ( 1.000000000000000000, -0.0000000000000000000, -0.0000000000000000000 ) ) ;
#414 = EDGE_CURVE ( 'NONE', #177, #492, #653, .T. ) ;
#415 = CIRCLE ( 'NONE', #507, 4.000000000000000000 ) ;
#416 = PLANE ( 'NONE',  #241 ) ;
#417 =( NAMED_UNIT ( * ) SI_UNIT ( $, .STERADIAN. ) SOLID_ANGLE_UNIT ( ) );
#418 = EDGE_CURVE ( 'NONE', #450, #95, #158, .T. ) ;
#419 = EDGE_LOOP ( 'NONE', ( #702, #169 ) ) ;
#420 = CARTESIAN_POINT ( 'NONE',  ( 0.0000000000000000000, 3.704556567420743300E-016, -3.024999999999999900 ) ) ;
#421 = CARTESIAN_POINT ( 'NONE',  ( 0.0000000000000000000, -1.000000000000000000, 2.291287847477918600 ) ) ;
#422 = DIRECTION ( 'NONE',  ( -1.000000000000000000, 0.0000000000000000000, 0.0000000000000000000 ) ) ;
#423 = VECTOR ( 'NONE', #55, 1000.000000000000000 ) ;
#424 = CYLINDRICAL_SURFACE ( 'NONE', #323, 4.000000000000000000 ) ;
#425 = ORIENTED_EDGE ( 'NONE', *, *, #287, .T. ) ;
#426 = DIRECTION ( 'NONE',  ( 0.0000000000000000000, 0.0000000000000000000, 1.000000000000000000 ) ) ;
#427 = ORIENTED_EDGE ( 'NONE', *, *, #374, .T. ) ;
#428 =( NAMED_UNIT ( * ) PLANE_ANGLE_UNIT ( ) SI_UNIT ( $, .RADIAN. ) );
#429 = EDGE_CURVE ( 'NONE', #556, #183, #569, .T. ) ;
#430 = PLANE ( 'NONE',  #384 ) ;
#431 = CIRCLE ( 'NONE', #334, 4.000000000000000000 ) ;
#432 = MECHANICAL_DESIGN_GEOMETRIC_PRESENTATION_REPRESENTATION (  '', ( #302 ), #455 ) ;
#433 = EDGE_LOOP ( 'NONE', ( #451, #353, #657, #393 ) ) ;
#434 = EDGE_CURVE ( 'NONE', #330, #29, #114, .T. ) ;
#435 = ORIENTED_EDGE ( 'NONE', *, *, #536, .F. ) ;
#436 = DIRECTION ( 'NONE',  ( -1.000000000000000000, 0.0000000000000000000, 0.0000000000000000000 ) ) ;
#437 = DIRECTION ( 'NONE',  ( -1.000000000000000000, -0.0000000000000000000, -0.0000000000000000000 ) ) ;
#438 = SURFACE_STYLE_FILL_AREA ( #465 ) ;
#439 = CARTESIAN_POINT ( 'NONE',  ( 5.999999999999998200, 1.000000000000000000, 2.291287847477918600 ) ) ;
#440 = CARTESIAN_POINT ( 'NONE',  ( 8.001214341714264900, 1.000000000000000000, 3.528300104301338900 ) ) ;
#441 = DIRECTION ( 'NONE',  ( 0.0000000000000000000, 0.0000000000000000000, -1.000000000000000000 ) ) ;
#442 = ORIENTED_EDGE ( 'NONE', *, *, #282, .T. ) ;
#443 = ORIENTED_EDGE ( 'NONE', *, *, #266, .F. ) ;
#444 = CIRCLE ( 'NONE', #52, 4.000000000000000000 ) ;
#445 = EDGE_CURVE ( 'NONE', #268, #385, #336, .T. ) ;
#446 = PRESENTATION_LAYER_ASSIGNMENT (  '', '', ( #325 ) ) ;
#447 = FACE_OUTER_BOUND ( 'NONE', #433, .T. ) ;
#448 = DIRECTION ( 'NONE',  ( 0.0000000000000000000, 1.000000000000000000, 0.0000000000000000000 ) ) ;
#449 = ORIENTED_EDGE ( 'NONE', *, *, #271, .F. ) ;
#450 = VERTEX_POINT ( 'NONE', #171 ) ;
#451 = ORIENTED_EDGE ( 'NONE', *, *, #396, .F. ) ;
#452 = DIRECTION ( 'NONE',  ( 0.0000000000000000000, 0.0000000000000000000, -1.000000000000000000 ) ) ;
#453 = ADVANCED_FACE ( 'NONE', ( #573 ), #122, .F. ) ;
#454 = FILL_AREA_STYLE_COLOUR ( '', #602 ) ;
#455 =( GEOMETRIC_REPRESENTATION_CONTEXT ( 3 ) GLOBAL_UNCERTAINTY_ASSIGNED_CONTEXT ( ( #273 ) ) GLOBAL_UNIT_ASSIGNED_CONTEXT ( ( #102, #428, #269 ) ) REPRESENTATION_CONTEXT ( 'NONE', 'WORKASPACE' ) );
#456 = LINE ( 'NONE', #648, #628 ) ;
#457 = B_SPLINE_CURVE_WITH_KNOTS ( 'NONE', 3,
 ( #581, #77, #144, #636 ),
 .UNSPECIFIED., .F., .F.,
 ( 4, 4 ),
 ( 0.003421533784629016700, 0.006598015130309487600 ),
 .UNSPECIFIED. ) ;
#458 = DIRECTION ( 'NONE',  ( -1.000000000000000000, -0.0000000000000000000, -0.0000000000000000000 ) ) ;
#459 = PLANE ( 'NONE',  #128 ) ;
#460 = EDGE_LOOP ( 'NONE', ( #207, #461, #221, #270, #504 ) ) ;
#461 = ORIENTED_EDGE ( 'NONE', *, *, #608, .F. ) ;
#462 = ORIENTED_EDGE ( 'NONE', *, *, #288, .T. ) ;
#463 = DIRECTION ( 'NONE',  ( 0.0000000000000000000, 0.0000000000000000000, 1.000000000000000000 ) ) ;
#464 = CARTESIAN_POINT ( 'NONE',  ( 0.8000000000000003800, 0.0000000000000000000, 0.0000000000000000000 ) ) ;
#465 = FILL_AREA_STYLE ('',( #528 ) ) ;
#466 = LINE ( 'NONE', #500, #423 ) ;
#467 = CARTESIAN_POINT ( 'NONE',  ( 5.999999999999998200, 1.000000000000000000, 7.300171619476714100 ) ) ;
#468 = UNCERTAINTY_MEASURE_WITH_UNIT (LENGTH_MEASURE( 1.000000000000000100E-005 ), #708, 'distance_accuracy_value', 'NONE');
#469 = ADVANCED_FACE ( 'NONE', ( #196 ), #316, .T. ) ;
#470 = ORIENTED_EDGE ( 'NONE', *, *, #568, .F. ) ;
#471 = ORIENTED_EDGE ( 'NONE', *, *, #288, .F. ) ;
#472 = AXIS2_PLACEMENT_3D ( 'NONE', #378, #50, #100 ) ;
#473 = ADVANCED_FACE ( 'NONE', ( #347 ), #398, .F. ) ;
#474 = FACE_OUTER_BOUND ( 'NONE', #220, .T. ) ;
#475 = ORIENTED_EDGE ( 'NONE', *, *, #97, .F. ) ;
#476 = DIRECTION ( 'NONE',  ( 0.0000000000000000000, 0.0000000000000000000, 1.000000000000000000 ) ) ;
#477 = ORIENTED_EDGE ( 'NONE', *, *, #662, .T. ) ;
#478 = CARTESIAN_POINT ( 'NONE',  ( 0.5250000000000011300, 0.0000000000000000000, 2.499999999999999100 ) ) ;
#479 = DIRECTION ( 'NONE',  ( -1.000000000000000000, -0.0000000000000000000, -0.0000000000000000000 ) ) ;
#480 = EDGE_CURVE ( 'NONE', #492, #629, #265, .T. ) ;
#481 = VECTOR ( 'NONE', #616, 1000.000000000000000 ) ;
#482 = EDGE_CURVE ( 'NONE', #629, #537, #328, .T. ) ;
#483 = ORIENTED_EDGE ( 'NONE', *, *, #608, .T. ) ;
#484 = CARTESIAN_POINT ( 'NONE',  ( 9.001709923443424800, -1.000000000000000000, 3.181375966108392900 ) ) ;
#485 = SURFACE_STYLE_USAGE ( .BOTH. , #660 ) ;
#486 = CARTESIAN_POINT ( 'NONE',  ( 5.999999999999998200, 1.000000000000000000, 7.300171619476714100 ) ) ;
#487 = CARTESIAN_POINT ( 'NONE',  ( 8.001231150939020200, 1.000000000000000000, -3.528294317470446600 ) ) ;
#488 = PRESENTATION_STYLE_ASSIGNMENT (( #123 ) ) ;
#489 = FACE_OUTER_BOUND ( 'NONE', #351, .T. ) ;
#490 = CARTESIAN_POINT ( 'NONE',  ( 9.999999999999998200, -1.000000000000000000, -2.828427124746190300 ) ) ;
#491 = FACE_OUTER_BOUND ( 'NONE', #299, .T. ) ;
#492 = VERTEX_POINT ( 'NONE', #339 ) ;
#493 = PRODUCT_DEFINITION ( 'UNKNOWN', '', #151, #701 ) ;
#494 = ORIENTED_EDGE ( 'NONE', *, *, #414, .T. ) ;
#495 = CARTESIAN_POINT ( 'NONE',  ( 7.000000000000000000, 1.000000000000000000, -3.872983346207417000 ) ) ;
#496 = CARTESIAN_POINT ( 'NONE',  ( 9.001671691273941200, 1.000000000000000000, 3.181389483221535900 ) ) ;
#497 = EDGE_CURVE ( 'NONE', #268, #556, #405, .T. ) ;
#498 = DIRECTION ( 'NONE',  ( 0.0000000000000000000, -7.105427357601001900E-015, 1.000000000000000000 ) ) ;
#499 = AXIS2_PLACEMENT_3D ( 'NONE', #246, #189, #142 ) ;
#500 = CARTESIAN_POINT ( 'NONE',  ( 0.0000000000000000000, 1.000000000000000000, -3.872983346207417000 ) ) ;
#501 = CONICAL_SURFACE ( 'NONE', #115, 4.000000000000000000, 0.7853981633974505000 ) ;
#502 = CARTESIAN_POINT ( 'NONE',  ( 0.5250000000000011300, 0.0000000000000000000, 0.0000000000000000000 ) ) ;
#503 = VECTOR ( 'NONE', #15, 1000.000000000000000 ) ;
#504 = ORIENTED_EDGE ( 'NONE', *, *, #429, .T. ) ;
#505 = DIRECTION ( 'NONE',  ( 0.0000000000000000000, -0.0000000000000000000, 1.000000000000000000 ) ) ;
#506 = CARTESIAN_POINT ( 'NONE',  ( 5.999999999999998200, 0.0000000000000000000, 0.0000000000000000000 ) ) ;
#507 = AXIS2_PLACEMENT_3D ( 'NONE', #639, #362, #39 ) ;
#508 = FACE_OUTER_BOUND ( 'NONE', #93, .T. ) ;
#509 = CONICAL_SURFACE ( 'NONE', #627, 2.999999999999999600, 0.3217505543966425200 ) ;
#510 = B_SPLINE_CURVE_WITH_KNOTS ( 'NONE', 3,
 ( #164, #659, #484, #215 ),
 .UNSPECIFIED., .F., .F.,
 ( 4, 4 ),
 ( 0.004603803028568493100, 0.007780503590687232000 ),
 .UNSPECIFIED. ) ;
#511 = ORIENTED_EDGE ( 'NONE', *, *, #536, .T. ) ;
#512 = DIRECTION ( 'NONE',  ( -1.000000000000000000, 0.0000000000000000000, 0.0000000000000000000 ) ) ;
#513 = ORIENTED_EDGE ( 'NONE', *, *, #445, .F. ) ;
#514 =( NAMED_UNIT ( * ) SI_UNIT ( $, .STERADIAN. ) SOLID_ANGLE_UNIT ( ) );
#515 = CARTESIAN_POINT ( 'NONE',  ( 0.0000000000000000000, 0.0000000000000000000, 3.024999999999999900 ) ) ;
#516 = DIRECTION ( 'NONE',  ( 1.000000000000000000, -0.0000000000000000000, -0.0000000000000000000 ) ) ;
#517 = ADVANCED_FACE ( 'NONE', ( #474 ), #571, .T. ) ;
#518 = FILL_AREA_STYLE_COLOUR ( '', #239 ) ;
#519 = DIRECTION ( 'NONE',  ( -1.000000000000000000, -0.0000000000000000000, -0.0000000000000000000 ) ) ;
#520 = CARTESIAN_POINT ( 'NONE',  ( 5.999999999999998200, 4.898587196589412800E-016, 4.000000000000000000 ) ) ;
#521 = LINE ( 'NONE', #540, #247 ) ;
#522 = CARTESIAN_POINT ( 'NONE',  ( 0.0000000000000000000, 4.408728476930469200E-016, 3.199999999999996200 ) ) ;
#523 = VERTEX_POINT ( 'NONE', #392 ) ;
#524 = DIRECTION ( 'NONE',  ( 1.000000000000000000, -0.0000000000000000000, -0.0000000000000000000 ) ) ;
#525 = ORIENTED_EDGE ( 'NONE', *, *, #374, .F. ) ;
#526 = EDGE_CURVE ( 'NONE', #118, #251, #54, .T. ) ;
#527 = CARTESIAN_POINT ( 'NONE',  ( 0.0000000000000000000, 0.0000000000000000000, 0.0000000000000000000 ) ) ;
#528 = FILL_AREA_STYLE_COLOUR ( '', #259 ) ;
#529 = COLOUR_RGB ( '',1.000000000000000000, 0.9490196078431372100, 0.9098039215686274400 ) ;
#530 = ORIENTED_EDGE ( 'NONE', *, *, #257, .F. ) ;
#531 = PLANE ( 'NONE',  #679 ) ;
#532 = MANIFOLD_SOLID_BREP ( 'Chamfer1', #199 ) ;
#533 = ORIENTED_EDGE ( 'NONE', *, *, #568, .T. ) ;
#534 = EDGE_CURVE ( 'NONE', #252, #294, #72, .T. ) ;
#535 = VECTOR ( 'NONE', #391, 1000.000000000000000 ) ;
#536 = EDGE_CURVE ( 'NONE', #704, #118, #113, .T. ) ;
#537 = VERTEX_POINT ( 'NONE', #641 ) ;
#538 = ORIENTED_EDGE ( 'NONE', *, *, #445, .T. ) ;
#539 = CARTESIAN_POINT ( 'NONE',  ( 9.999999999999998200, 0.0000000000000000000, 0.0000000000000000000 ) ) ;
#540 = CARTESIAN_POINT ( 'NONE',  ( 9.999999999999998200, -1.000000000000000000, 7.300171619476714100 ) ) ;
#541 = LINE ( 'NONE', #631, #379 ) ;
#542 = CIRCLE ( 'NONE', #545, 2.499999999999999100 ) ;
#543 = MECHANICAL_DESIGN_GEOMETRIC_PRESENTATION_REPRESENTATION (  '', ( #408 ), #166 ) ;
#544 = FACE_OUTER_BOUND ( 'NONE', #359, .T. ) ;
#545 = AXIS2_PLACEMENT_3D ( 'NONE', #502, #338, #557 ) ;
#546 = DIRECTION ( 'NONE',  ( -1.000000000000000000, -0.0000000000000000000, -0.0000000000000000000 ) ) ;
#547 = VERTEX_POINT ( 'NONE', #201 ) ;
#548 = ORIENTED_EDGE ( 'NONE', *, *, #163, .T. ) ;
#549 = DIRECTION ( 'NONE',  ( 1.000000000000000000, -0.0000000000000000000, -0.0000000000000000000 ) ) ;
#550 = CARTESIAN_POINT ( 'NONE',  ( 0.8000000000000003800, 0.0000000000000000000, 0.0000000000000000000 ) ) ;
#551 = FACE_OUTER_BOUND ( 'NONE', #223, .T. ) ;
#552 = DIRECTION ( 'NONE',  ( -0.0000000000000000000, -0.0000000000000000000, 1.000000000000000000 ) ) ;
#553 = DIRECTION ( 'NONE',  ( -1.000000000000000000, -0.0000000000000000000, -0.0000000000000000000 ) ) ;
#554 = CARTESIAN_POINT ( 'NONE',  ( 5.999999999999998200, 0.0000000000000000000, 0.0000000000000000000 ) ) ;
#555 = ORIENTED_EDGE ( 'NONE', *, *, #287, .F. ) ;
#556 = VERTEX_POINT ( 'NONE', #591 ) ;
#557 = DIRECTION ( 'NONE',  ( 0.0000000000000000000, 0.0000000000000000000, 1.000000000000000000 ) ) ;
#558 = DIRECTION ( 'NONE',  ( 1.000000000000000000, 0.0000000000000000000, 0.0000000000000000000 ) ) ;
#559 = EDGE_CURVE ( 'NONE', #547, #450, #456, .T. ) ;
#560 = CIRCLE ( 'NONE', #311, 2.999999999999999600 ) ;
#561 = DIRECTION ( 'NONE',  ( 0.0000000000000000000, 0.0000000000000000000, -1.000000000000000000 ) ) ;
#562 = ADVANCED_FACE ( 'NONE', ( #593 ), #531, .F. ) ;
#563 = EDGE_CURVE ( 'NONE', #21, #330, #542, .T. ) ;
#564 = ORIENTED_EDGE ( 'NONE', *, *, #319, .F. ) ;
#565 = DIRECTION ( 'NONE',  ( 0.7071067811865460200, 0.0000000000000000000, -0.7071067811865490200 ) ) ;
#566 = EDGE_LOOP ( 'NONE', ( #14, #470 ) ) ;
#567 = ADVANCED_FACE ( 'NONE', ( #551 ), #509, .T. ) ;
#568 = EDGE_CURVE ( 'NONE', #29, #292, #88, .T. ) ;
#569 = B_SPLINE_CURVE_WITH_KNOTS ( 'NONE', 3,
 ( #231, #496, #440, #228 ),
 .UNSPECIFIED., .F., .F.,
 ( 4, 4 ),
 ( 0.003421533784629016700, 0.006598015130309487600 ),
 .UNSPECIFIED. ) ;
#570 = DIRECTION ( 'NONE',  ( 0.0000000000000000000, 0.0000000000000000000, 1.000000000000000000 ) ) ;
#571 = PLANE ( 'NONE',  #499 ) ;
#572 = LINE ( 'NONE', #136, #24 ) ;
#573 = FACE_OUTER_BOUND ( 'NONE', #460, .T. ) ;
#574 = DIRECTION ( 'NONE',  ( 0.0000000000000000000, -0.0000000000000000000, 1.000000000000000000 ) ) ;
#575 = ORIENTED_EDGE ( 'NONE', *, *, #132, .T. ) ;
#576 = DIRECTION ( 'NONE',  ( 1.000000000000000000, -0.0000000000000000000, -0.0000000000000000000 ) ) ;
#577 = DIRECTION ( 'NONE',  ( -1.000000000000000000, 0.0000000000000000000, 0.0000000000000000000 ) ) ;
#578 = ORIENTED_EDGE ( 'NONE', *, *, #165, .T. ) ;
#579 =( NAMED_UNIT ( * ) SI_UNIT ( $, .STERADIAN. ) SOLID_ANGLE_UNIT ( ) );
#580 = STYLED_ITEM ( 'NONE', ( #645 ), #532 ) ;
#581 = CARTESIAN_POINT ( 'NONE',  ( 9.999999999999998200, -1.000000000000000000, -2.828427124746190300 ) ) ;
#582 = DIRECTION ( 'NONE',  ( 0.0000000000000000000, 0.0000000000000000000, 1.000000000000000000 ) ) ;
#583 = CARTESIAN_POINT ( 'NONE',  ( 9.999999999999998200, -1.000000000000000000, 2.828427124746189400 ) ) ;
#584 = DIRECTION ( 'NONE',  ( -1.000000000000000000, 0.0000000000000000000, 0.0000000000000000000 ) ) ;
#585 = DIRECTION ( 'NONE',  ( -1.000000000000000000, -0.0000000000000000000, -0.0000000000000000000 ) ) ;
#586 = CIRCLE ( 'NONE', #36, 2.499999999999997800 ) ;
#587 = EDGE_CURVE ( 'NONE', #212, #523, #688, .T. ) ;
#588 = CARTESIAN_POINT ( 'NONE',  ( 5.999999999999998200, 0.0000000000000000000, -4.000000000000000000 ) ) ;
#589 =( GEOMETRIC_REPRESENTATION_CONTEXT ( 3 ) GLOBAL_UNCERTAINTY_ASSIGNED_CONTEXT ( ( #468 ) ) GLOBAL_UNIT_ASSIGNED_CONTEXT ( ( #708, #367, #147 ) ) REPRESENTATION_CONTEXT ( 'NONE', 'WORKASPACE' ) );
#590 = ADVANCED_FACE ( 'NONE', ( #489 ), #459, .F. ) ;
#591 = CARTESIAN_POINT ( 'NONE',  ( 9.999999999999998200, 1.000000000000000000, 2.828427124746189400 ) ) ;
#592 = CIRCLE ( 'NONE', #226, 3.199999999999996200 ) ;
#593 = FACE_OUTER_BOUND ( 'NONE', #284, .T. ) ;
#594 = AXIS2_PLACEMENT_3D ( 'NONE', #296, #133, #184 ) ;
#595 = ORIENTED_EDGE ( 'NONE', *, *, #418, .F. ) ;
#596 = DIRECTION ( 'NONE',  ( 0.0000000000000000000, 0.0000000000000000000, -1.000000000000000000 ) ) ;
#597 = ORIENTED_EDGE ( 'NONE', *, *, #414, .F. ) ;
#598 = ORIENTED_EDGE ( 'NONE', *, *, #526, .F. ) ;
#599 = DIRECTION ( 'NONE',  ( 0.0000000000000000000, 0.0000000000000000000, 1.000000000000000000 ) ) ;
#600 = STYLED_ITEM ( 'NONE', ( #104 ), #346 ) ;
#601 = VECTOR ( 'NONE', #678, 1000.000000000000000 ) ;
#602 = COLOUR_RGB ( '',1.000000000000000000, 0.9490196078431372100, 0.9098039215686274400 ) ;
#603 = ORIENTED_EDGE ( 'NONE', *, *, #282, .F. ) ;
#604 = EDGE_CURVE ( 'NONE', #183, #244, #572, .T. ) ;
#605 = CARTESIAN_POINT ( 'NONE',  ( 9.999999999999998200, 0.0000000000000000000, 0.0000000000000000000 ) ) ;
#606 = DIRECTION ( 'NONE',  ( 1.000000000000000000, 0.0000000000000000000, 0.0000000000000000000 ) ) ;
#607 = PRESENTATION_LAYER_ASSIGNMENT (  '', '', ( #600 ) ) ;
#608 = EDGE_CURVE ( 'NONE', #177, #244, #25, .T. ) ;
#609 = CARTESIAN_POINT ( 'NONE',  ( 5.999999999999998200, 0.0000000000000000000, 0.0000000000000000000 ) ) ;
#610 = VERTEX_POINT ( 'NONE', #520 ) ;
#611 = FILL_AREA_STYLE_COLOUR ( '', #529 ) ;
#612 = DIRECTION ( 'NONE',  ( 0.0000000000000000000, 0.0000000000000000000, 1.000000000000000000 ) ) ;
#613 = ORIENTED_EDGE ( 'NONE', *, *, #587, .T. ) ;
#614 = CARTESIAN_POINT ( 'NONE',  ( 9.999999999999998200, 1.000000000000000000, -2.291287847477918600 ) ) ;
#615 = CARTESIAN_POINT ( 'NONE',  ( 0.0000000000000000000, 0.0000000000000000000, -4.000000000000000000 ) ) ;
#616 = DIRECTION ( 'NONE',  ( 1.000000000000000000, -0.0000000000000000000, -0.0000000000000000000 ) ) ;
#617 = LINE ( 'NONE', #111, #143 ) ;
#618 = CARTESIAN_POINT ( 'NONE',  ( 5.999999999999998200, -1.000000000000000000, 7.300171619476714100 ) ) ;
#619 = CARTESIAN_POINT ( 'NONE',  ( 5.999999999999998200, -1.000000000000000000, -3.872983346207417000 ) ) ;
#620 = DIRECTION ( 'NONE',  ( -0.0000000000000000000, -0.0000000000000000000, 1.000000000000000000 ) ) ;
#621 = ORIENTED_EDGE ( 'NONE', *, *, #418, .T. ) ;
#622 =( NAMED_UNIT ( * ) PLANE_ANGLE_UNIT ( ) SI_UNIT ( $, .RADIAN. ) );
#623 = EDGE_CURVE ( 'NONE', #294, #252, #592, .T. ) ;
#624 = UNCERTAINTY_MEASURE_WITH_UNIT (LENGTH_MEASURE( 1.000000000000000100E-005 ), #245, 'distance_accuracy_value', 'NONE');
#625 = DIRECTION ( 'NONE',  ( 0.0000000000000000000, 0.0000000000000000000, 1.000000000000000000 ) ) ;
#626 = ADVANCED_FACE ( 'NONE', ( #9 ), #130, .F. ) ;
#627 = AXIS2_PLACEMENT_3D ( 'NONE', #370, #98, #234 ) ;
#628 = VECTOR ( 'NONE', #194, 1000.000000000000000 ) ;
#629 = VERTEX_POINT ( 'NONE', #79 ) ;
#630 = ORIENTED_EDGE ( 'NONE', *, *, #395, .T. ) ;
#631 = CARTESIAN_POINT ( 'NONE',  ( 0.0000000000000000000, 0.0000000000000000000, 3.024999999999999900 ) ) ;
#632 = EDGE_LOOP ( 'NONE', ( #206, #442, #462, #65, #208, #301, #145, #511 ) ) ;
#633 = UNCERTAINTY_MEASURE_WITH_UNIT (LENGTH_MEASURE( 1.000000000000000100E-005 ), #78, 'distance_accuracy_value', 'NONE');
#634 = CARTESIAN_POINT ( 'NONE',  ( 0.8000000000000003800, 0.0000000000000000000, 0.0000000000000000000 ) ) ;
#635 = VECTOR ( 'NONE', #341, 999.9999999999998900 ) ;
#636 = CARTESIAN_POINT ( 'NONE',  ( 7.000000000000000000, -1.000000000000000000, -3.872983346207417000 ) ) ;
#637 = MECHANICAL_DESIGN_GEOMETRIC_PRESENTATION_REPRESENTATION (  '', ( #600 ), #589 ) ;
#638 = VECTOR ( 'NONE', #546, 1000.000000000000000 ) ;
#639 = CARTESIAN_POINT ( 'NONE',  ( 5.999999999999998200, 0.0000000000000000000, 0.0000000000000000000 ) ) ;
#640 = ORIENTED_EDGE ( 'NONE', *, *, #132, .F. ) ;
#641 = CARTESIAN_POINT ( 'NONE',  ( 9.999999999999998200, -1.000000000000000000, 2.291287847477918600 ) ) ;
#642 = DIRECTION ( 'NONE',  ( 0.0000000000000000000, 3.552713678800500900E-015, 1.000000000000000000 ) ) ;
#643 = CARTESIAN_POINT ( 'NONE',  ( 0.0000000000000000000, -1.000000000000000000, -2.291287847477918600 ) ) ;
#644 = PRODUCT_CONTEXT ( 'NONE', #27, 'mechanical' ) ;
#645 = PRESENTATION_STYLE_ASSIGNMENT (( #92 ) ) ;
#646 = SURFACE_STYLE_USAGE ( .BOTH. , #248 ) ;
#647 = FILL_AREA_STYLE_COLOUR ( '', #67 ) ;
#648 = CARTESIAN_POINT ( 'NONE',  ( 0.0000000000000000000, -1.000000000000000000, 3.872983346207417000 ) ) ;
#649 = EDGE_LOOP ( 'NONE', ( #603, #49, #578, #74, #401, #494, #106, #13 ) ) ;
#650 = AXIS2_PLACEMENT_3D ( 'NONE', #162, #553, #672 ) ;
#651 = EDGE_LOOP ( 'NONE', ( #652, #153, #538, #291, #260 ) ) ;
#652 = ORIENTED_EDGE ( 'NONE', *, *, #180, .T. ) ;
#653 = CIRCLE ( 'NONE', #684, 2.499999999999998700 ) ;
#654 = PRESENTATION_LAYER_ASSIGNMENT (  '', '', ( #580 ) ) ;
#655 = DIRECTION ( 'NONE',  ( -1.000000000000000000, -0.0000000000000000000, -0.0000000000000000000 ) ) ;
#656 = LINE ( 'NONE', #335, #638 ) ;
#657 = ORIENTED_EDGE ( 'NONE', *, *, #698, .T. ) ;
#658 = ORIENTED_EDGE ( 'NONE', *, *, #662, .F. ) ;
#659 = CARTESIAN_POINT ( 'NONE',  ( 8.001231150939020200, -1.000000000000000000, 3.528294317470446600 ) ) ;
#660 = SURFACE_SIDE_STYLE ('',( #56 ) ) ;
#661 = AXIS2_PLACEMENT_3D ( 'NONE', #382, #326, #272 ) ;
#662 = EDGE_CURVE ( 'NONE', #342, #537, #219, .T. ) ;
#663 = ORIENTED_EDGE ( 'NONE', *, *, #429, .F. ) ;
#664 = CARTESIAN_POINT ( 'NONE',  ( 0.8000000000000003800, 0.0000000000000000000, -4.000000000000000000 ) ) ;
#665 = DIRECTION ( 'NONE',  ( 1.000000000000000000, -0.0000000000000000000, -0.0000000000000000000 ) ) ;
#666 =( NAMED_UNIT ( * ) SI_UNIT ( $, .STERADIAN. ) SOLID_ANGLE_UNIT ( ) );
#667 = DIRECTION ( 'NONE',  ( 0.7071067811865460200, 8.659560562354953800E-017, 0.7071067811865490200 ) ) ;
#668 = LINE ( 'NONE', #618, #601 ) ;
#669 = CARTESIAN_POINT ( 'NONE',  ( 0.0000000000000000000, 0.0000000000000000000, 0.0000000000000000000 ) ) ;
#670 = CARTESIAN_POINT ( 'NONE',  ( 5.999999999999998200, 0.0000000000000000000, 0.0000000000000000000 ) ) ;
#671 = LINE ( 'NONE', #615, #503 ) ;
#672 = DIRECTION ( 'NONE',  ( 0.0000000000000000000, 0.0000000000000000000, 1.000000000000000000 ) ) ;
#673 = ORIENTED_EDGE ( 'NONE', *, *, #698, .F. ) ;
#674 = DIRECTION ( 'NONE',  ( 0.0000000000000000000, 5.329070518200751400E-015, 1.000000000000000000 ) ) ;
#675 = ORIENTED_EDGE ( 'NONE', *, *, #349, .F. ) ;
#676 = MECHANICAL_DESIGN_GEOMETRIC_PRESENTATION_REPRESENTATION (  '', ( #264 ), #372 ) ;
#677 = DIRECTION ( 'NONE',  ( 0.0000000000000000000, 0.0000000000000000000, 1.000000000000000000 ) ) ;
#678 = DIRECTION ( 'NONE',  ( 0.0000000000000000000, 0.0000000000000000000, -1.000000000000000000 ) ) ;
#679 = AXIS2_PLACEMENT_3D ( 'NONE', #197, #358, #205 ) ;
#680 = UNCERTAINTY_MEASURE_WITH_UNIT (LENGTH_MEASURE( 1.000000000000000100E-005 ), #23, 'distance_accuracy_value', 'NONE');
#681 = VECTOR ( 'NONE', #308, 1000.000000000000000 ) ;
#682 = ORIENTED_EDGE ( 'NONE', *, *, #76, .T. ) ;
#683 = ORIENTED_EDGE ( 'NONE', *, *, #76, .F. ) ;
#684 = AXIS2_PLACEMENT_3D ( 'NONE', #554, #120, #498 ) ;
#685 = PRODUCT ( 'ALP0410', 'ALP0410', '', ( #644 ) ) ;
#686 = VECTOR ( 'NONE', #565, 1000.000000000000100 ) ;
#687 = FILL_AREA_STYLE ('',( #255 ) ) ;
#688 = CIRCLE ( 'NONE', #315, 4.000000000000000000 ) ;
#689 = CIRCLE ( 'NONE', #89, 3.024999999999999900 ) ;
#690 = SURFACE_SIDE_STYLE ('',( #345 ) ) ;
#691 = DIRECTION ( 'NONE',  ( -0.7071067811865479100, 0.0000000000000000000, 0.7071067811865472400 ) ) ;
#692 = LINE ( 'NONE', #331, #481 ) ;
#693 = EDGE_LOOP ( 'NONE', ( #471, #371, #533, #449 ) ) ;
#694 = DIRECTION ( 'NONE',  ( 0.0000000000000000000, 0.0000000000000000000, -1.000000000000000000 ) ) ;
#695 = ORIENTED_EDGE ( 'NONE', *, *, #434, .F. ) ;
#696 = CARTESIAN_POINT ( 'NONE',  ( 9.999999999999998200, 2.999999999999999600, 0.0000000000000000000 ) ) ;
#697 = DIRECTION ( 'NONE',  ( 1.000000000000000000, -0.0000000000000000000, -0.0000000000000000000 ) ) ;
#698 = EDGE_CURVE ( 'NONE', #252, #212, #110, .T. ) ;
#699 = VECTOR ( 'NONE', #606, 1000.000000000000000 ) ;
#700 = AXIS2_PLACEMENT_3D ( 'NONE', #179, #512, #68 ) ;
#701 = PRODUCT_DEFINITION_CONTEXT ( 'detailed design', #202, 'design' ) ;
#702 = ORIENTED_EDGE ( 'NONE', *, *, #534, .T. ) ;
#703 = SURFACE_SIDE_STYLE ('',( #438 ) ) ;
#704 = VERTEX_POINT ( 'NONE', #295 ) ;
#705 = DIRECTION ( 'NONE',  ( -1.000000000000000000, -0.0000000000000000000, -0.0000000000000000000 ) ) ;
#706 = VECTOR ( 'NONE', #694, 1000.000000000000000 ) ;
#707 = FACE_OUTER_BOUND ( 'NONE', #57, .T. ) ;
#708 =( LENGTH_UNIT ( ) NAMED_UNIT ( * ) SI_UNIT ( .MILLI., .METRE. ) );
ENDSEC;
END-ISO-10303-21;
