ISO-10303-21;
HEADER;
FILE_DESCRIPTION (( 'STEP AP203' ),
    '1' );
FILE_NAME ('ALP0825.STEP',
    '2017-02-06T17:23:44',
    ( '' ),
    ( '' ),
    'SwSTEP 2.0',
    'SolidWorks 2012',
    '' );
FILE_SCHEMA (( 'CONFIG_CONTROL_DESIGN' ));
ENDSEC;

DATA;
#1 = PERSON_AND_ORGANIZATION ( #852, #879 ) ;
#2 = PERSON_AND_ORGANIZATION ( #852, #879 ) ;
#3 = CALENDAR_DATE ( 2017, 6, 2 ) ;
#4 = DATE_AND_TIME ( #3, #865 ) ;
#5 = PERSON_AND_ORGANIZATION ( #852, #879 ) ;
#6 = PERSON_AND_ORGANIZATION ( #852, #879 ) ;
#7 = CIRCLE ( 'NONE', #432, 8.899999999999998600 ) ;
#8 = PERSON_AND_ORGANIZATION ( #852, #879 ) ;
#9 = APPROVAL_PERSON_ORGANIZATION ( #6, #440, #474 ) ;
#10 = COORDINATED_UNIVERSAL_TIME_OFFSET ( 1, 0, .AHEAD. ) ;
#11 = CYLINDRICAL_SURFACE ( 'NONE', #384, 8.599999999999999600 ) ;
#12 = FACE_OUTER_BOUND ( 'NONE', #245, .T. ) ;
#13 = FACE_OUTER_BOUND ( 'NONE', #308, .T. ) ;
#14 = FACE_OUTER_BOUND ( 'NONE', #244, .T. ) ;
#15 = FACE_OUTER_BOUND ( 'NONE', #305, .T. ) ;
#16 = FACE_OUTER_BOUND ( 'NONE', #242, .T. ) ;
#17 = FACE_OUTER_BOUND ( 'NONE', #299, .T. ) ;
#18 = LINE ( 'NONE', #591, #41 ) ;
#19 = CYLINDRICAL_SURFACE ( 'NONE', #375, 12.19999999999999900 ) ;
#20 = CONICAL_SURFACE ( 'NONE', #389, 6.025000000000001200, 0.7853981633974501700 ) ;
#21 = FACE_OUTER_BOUND ( 'NONE', #310, .T. ) ;
#22 = FACE_OUTER_BOUND ( 'NONE', #302, .T. ) ;
#23 = CONICAL_SURFACE ( 'NONE', #401, 5.063781345595754300, 1.047197551196596500 ) ;
#24 = FACE_OUTER_BOUND ( 'NONE', #263, .T. ) ;
#25 = FACE_OUTER_BOUND ( 'NONE', #306, .T. ) ;
#26 = CYLINDRICAL_SURFACE ( 'NONE', #381, 5.099999999999997900 ) ;
#27 = CYLINDRICAL_SURFACE ( 'NONE', #385, 12.19999999999999900 ) ;
#28 = FACE_OUTER_BOUND ( 'NONE', #286, .T. ) ;
#29 = FACE_OUTER_BOUND ( 'NONE', #296, .T. ) ;
#30 = FACE_OUTER_BOUND ( 'NONE', #247, .T. ) ;
#31 = CYLINDRICAL_SURFACE ( 'NONE', #397, 5.099999999999997900 ) ;
#32 = FACE_OUTER_BOUND ( 'NONE', #252, .T. ) ;
#33 = FACE_OUTER_BOUND ( 'NONE', #304, .T. ) ;
#34 = CONICAL_SURFACE ( 'NONE', #400, 5.063781345595754300, 1.047197551196596500 ) ;
#35 = FACE_BOUND ( 'NONE', #300, .T. ) ;
#36 = CONICAL_SURFACE ( 'NONE', #426, 12.19999999999999900, 1.224257462360954800 ) ;
#37 = CIRCLE ( 'NONE', #427, 5.099999999999997900 ) ;
#38 = CONICAL_SURFACE ( 'NONE', #374, 5.063781345595754300, 1.047197551196596500 ) ;
#39 = FACE_BOUND ( 'NONE', #288, .T. ) ;
#40 = FACE_OUTER_BOUND ( 'NONE', #295, .T. ) ;
#41 = VECTOR ( 'NONE', #623, 1000.000000000000100 ) ;
#42 = CIRCLE ( 'NONE', #422, 8.599999999999999600 ) ;
#43 = CONICAL_SURFACE ( 'NONE', #418, 12.19999999999999900, 1.224257462360954800 ) ;
#44 = CONICAL_SURFACE ( 'NONE', #412, 5.063781345595754300, 1.047197551196596500 ) ;
#45 = FACE_OUTER_BOUND ( 'NONE', #287, .T. ) ;
#46 = CONICAL_SURFACE ( 'NONE', #378, 5.063781345595754300, 1.047197551196596500 ) ;
#47 = CONICAL_SURFACE ( 'NONE', #410, 5.063781345595754300, 1.047197551196596500 ) ;
#48 = CYLINDRICAL_SURFACE ( 'NONE', #377, 8.599999999999999600 ) ;
#49 = CIRCLE ( 'NONE', #390, 8.899999999999998600 ) ;
#50 = FACE_OUTER_BOUND ( 'NONE', #311, .T. ) ;
#51 = VECTOR ( 'NONE', #662, 1000.000000000000000 ) ;
#52 = CONICAL_SURFACE ( 'NONE', #419, 6.025000000000001200, 0.7853981633974501700 ) ;
#53 = CIRCLE ( 'NONE', #379, 8.899999999999998600 ) ;
#54 = VECTOR ( 'NONE', #753, 1000.000000000000000 ) ;
#55 = LINE ( 'NONE', #667, #51 ) ;
#56 = CIRCLE ( 'NONE', #380, 12.19999999999999900 ) ;
#57 = VECTOR ( 'NONE', #672, 999.9999999999998900 ) ;
#58 = LINE ( 'NONE', #644, #72 ) ;
#59 = CIRCLE ( 'NONE', #411, 5.099999999999997900 ) ;
#60 = CIRCLE ( 'NONE', #398, 12.20000000000000100 ) ;
#61 = LINE ( 'NONE', #728, #64 ) ;
#62 = LINE ( 'NONE', #760, #63 ) ;
#63 = VECTOR ( 'NONE', #773, 1000.000000000000000 ) ;
#64 = VECTOR ( 'NONE', #696, 1000.000000000000000 ) ;
#65 = CIRCLE ( 'NONE', #442, 6.025000000000001200 ) ;
#66 = CIRCLE ( 'NONE', #409, 12.20000000000000100 ) ;
#67 = VECTOR ( 'NONE', #660, 1000.000000000000000 ) ;
#68 = VECTOR ( 'NONE', #734, 1000.000000000000000 ) ;
#69 = VECTOR ( 'NONE', #658, 1000.000000000000000 ) ;
#70 = LINE ( 'NONE', #659, #67 ) ;
#71 = VECTOR ( 'NONE', #671, 1000.000000000000000 ) ;
#72 = VECTOR ( 'NONE', #704, 1000.000000000000000 ) ;
#73 = LINE ( 'NONE', #664, #74 ) ;
#74 = VECTOR ( 'NONE', #701, 999.9999999999998900 ) ;
#75 = LINE ( 'NONE', #748, #54 ) ;
#76 = LINE ( 'NONE', #732, #79 ) ;
#77 = LINE ( 'NONE', #693, #78 ) ;
#78 = VECTOR ( 'NONE', #714, 1000.000000000000100 ) ;
#79 = VECTOR ( 'NONE', #708, 1000.000000000000100 ) ;
#80 = VECTOR ( 'NONE', #694, 1000.000000000000000 ) ;
#81 = CIRCLE ( 'NONE', #413, 6.025000000000001200 ) ;
#82 = LINE ( 'NONE', #665, #69 ) ;
#83 = CIRCLE ( 'NONE', #408, 8.899999999999998600 ) ;
#84 = LINE ( 'NONE', #654, #68 ) ;
#85 = LINE ( 'NONE', #643, #57 ) ;
#86 = LINE ( 'NONE', #657, #71 ) ;
#87 = CIRCLE ( 'NONE', #391, 5.099999999999998800 ) ;
#88 = LINE ( 'NONE', #692, #80 ) ;
#89 = FACE_OUTER_BOUND ( 'NONE', #297, .T. ) ;
#90 = VERTEX_POINT ( 'NONE', #481 ) ;
#91 = FACE_OUTER_BOUND ( 'NONE', #309, .T. ) ;
#92 = VERTEX_POINT ( 'NONE', #484 ) ;
#93 = VERTEX_POINT ( 'NONE', #485 ) ;
#94 = VERTEX_POINT ( 'NONE', #482 ) ;
#95 = VERTEX_POINT ( 'NONE', #488 ) ;
#96 = VERTEX_POINT ( 'NONE', #483 ) ;
#97 = VERTEX_POINT ( 'NONE', #491 ) ;
#98 = VERTEX_POINT ( 'NONE', #486 ) ;
#99 = VERTEX_POINT ( 'NONE', #489 ) ;
#100 = VERTEX_POINT ( 'NONE', #487 ) ;
#101 = VERTEX_POINT ( 'NONE', #490 ) ;
#102 = VERTEX_POINT ( 'NONE', #492 ) ;
#103 = VERTEX_POINT ( 'NONE', #493 ) ;
#104 = VERTEX_POINT ( 'NONE', #494 ) ;
#105 = VERTEX_POINT ( 'NONE', #495 ) ;
#106 = FACE_OUTER_BOUND ( 'NONE', #303, .T. ) ;
#107 = VERTEX_POINT ( 'NONE', #479 ) ;
#108 = VERTEX_POINT ( 'NONE', #480 ) ;
#109 = VERTEX_POINT ( 'NONE', #514 ) ;
#110 = CONICAL_SURFACE ( 'NONE', #394, 5.063781345595754300, 1.047197551196596500 ) ;
#111 = FACE_BOUND ( 'NONE', #301, .T. ) ;
#112 = FACE_OUTER_BOUND ( 'NONE', #307, .T. ) ;
#113 = FACE_OUTER_BOUND ( 'NONE', #312, .T. ) ;
#114 = VERTEX_POINT ( 'NONE', #526 ) ;
#115 = VERTEX_POINT ( 'NONE', #515 ) ;
#116 = VERTEX_POINT ( 'NONE', #536 ) ;
#117 = VERTEX_POINT ( 'NONE', #537 ) ;
#118 = FACE_OUTER_BOUND ( 'NONE', #298, .T. ) ;
#119 = VERTEX_POINT ( 'NONE', #497 ) ;
#120 = FACE_OUTER_BOUND ( 'NONE', #314, .T. ) ;
#121 = VERTEX_POINT ( 'NONE', #531 ) ;
#122 = VERTEX_POINT ( 'NONE', #505 ) ;
#123 = VERTEX_POINT ( 'NONE', #511 ) ;
#124 = FACE_OUTER_BOUND ( 'NONE', #174, .T. ) ;
#125 = DESIGN_CONTEXT ( 'detailed design', #476, 'design' ) ;
#126 = PRODUCT_DEFINITION_SHAPE ( 'NONE', 'NONE',  #437 ) ;
#127 = ADVANCED_FACE ( 'NONE', ( #112 ), #110, .T. ) ;
#128 = ADVANCED_FACE ( 'NONE', ( #111, #113 ), #534, .F. ) ;
#129 = ADVANCED_FACE ( 'NONE', ( #118 ), #36, .T. ) ;
#130 = ADVANCED_FACE ( 'NONE', ( #106 ), #523, .F. ) ;
#131 = ADVANCED_FACE ( 'NONE', ( #124 ), #47, .T. ) ;
#132 = ADVANCED_FACE ( 'NONE', ( #89 ), #26, .F. ) ;
#133 = ADVANCED_FACE ( 'NONE', ( #120 ), #46, .T. ) ;
#134 = ADVANCED_FACE ( 'NONE', ( #33 ), #23, .T. ) ;
#135 = ADVANCED_FACE ( 'NONE', ( #91 ), #38, .T. ) ;
#136 = ADVANCED_FACE ( 'NONE', ( #50 ), #11, .F. ) ;
#137 = ADVANCED_FACE ( 'NONE', ( #45 ), #19, .T. ) ;
#138 = ADVANCED_FACE ( 'NONE', ( #40 ), #559, .F. ) ;
#139 = ADVANCED_FACE ( 'NONE', ( #24 ), #27, .T. ) ;
#140 = ADVANCED_FACE ( 'NONE', ( #28 ), #582, .F. ) ;
#141 = ADVANCED_FACE ( 'NONE', ( #35, #12 ), #547, .T. ) ;
#142 = ADVANCED_FACE ( 'NONE', ( #13 ), #31, .F. ) ;
#143 = ADVANCED_FACE ( 'NONE', ( #22 ), #48, .F. ) ;
#144 = ADVANCED_FACE ( 'NONE', ( #39, #25 ), #560, .T. ) ;
#145 = ADVANCED_FACE ( 'NONE', ( #32 ), #34, .T. ) ;
#146 = ADVANCED_FACE ( 'NONE', ( #15 ), #20, .F. ) ;
#147 = ADVANCED_FACE ( 'NONE', ( #14 ), #549, .F. ) ;
#148 = ADVANCED_FACE ( 'NONE', ( #16 ), #43, .T. ) ;
#149 = ADVANCED_FACE ( 'NONE', ( #21 ), #44, .T. ) ;
#150 = ADVANCED_FACE ( 'NONE', ( #17 ), #572, .F. ) ;
#151 = ADVANCED_FACE ( 'NONE', ( #29 ), #550, .F. ) ;
#152 = ADVANCED_FACE ( 'NONE', ( #30 ), #52, .F. ) ;
#153 = B_SPLINE_CURVE_WITH_KNOTS ( 'NONE', 3,
 ( #783, #826, #804, #807, #800, #801 ),
 .UNSPECIFIED., .F., .F.,
 ( 4, 2, 4 ),
 ( 0.02262735039209565200, 0.02523116963440532500, 0.02783498887671499400 ),
 .UNSPECIFIED. ) ;
#154 = B_SPLINE_CURVE_WITH_KNOTS ( 'NONE', 3,
 ( #805, #827, #791, #785, #802, #806, #786, #812 ),
 .UNSPECIFIED., .F., .F.,
 ( 4, 2, 2, 4 ),
 ( 0.005199475067518871800, 0.006494424564588192500, 0.007789374061657514100, 0.01037927305579615400 ),
 .UNSPECIFIED. ) ;
#155 = ADVANCED_BREP_SHAPE_REPRESENTATION ( 'ALP0825', ( #324, #433 ), #444 ) ;
#156 = B_SPLINE_CURVE_WITH_KNOTS ( 'NONE', 3,
 ( #761, #746, #782, #811, #816, #794, #799, #809 ),
 .UNSPECIFIED., .F., .F.,
 ( 4, 2, 2, 4 ),
 ( 0.005199475067518874400, 0.006494424564588196000, 0.007789374061657517600, 0.01037927305579615900 ),
 .UNSPECIFIED. ) ;
#157 = B_SPLINE_CURVE_WITH_KNOTS ( 'NONE', 3,
 ( #703, #702, #718, #722, #720, #705 ),
 .UNSPECIFIED., .F., .F.,
 ( 4, 2, 4 ),
 ( 2.380731027680444900E-007, 0.002599856570310820100, 0.005199475067518871800 ),
 .UNSPECIFIED. ) ;
#158 = B_SPLINE_CURVE_WITH_KNOTS ( 'NONE', 3,
 ( #742, #744, #745, #779, #751, #771 ),
 .UNSPECIFIED., .F., .F.,
 ( 4, 2, 4 ),
 ( 0.02410128968637851400, 0.02668410746948986200, 0.02926692525260120700 ),
 .UNSPECIFIED. ) ;
#159 = UNCERTAINTY_MEASURE_WITH_UNIT (LENGTH_MEASURE( 1.000000000000000100E-005 ), #828, 'distance_accuracy_value', 'NONE');
#160 = B_SPLINE_CURVE_WITH_KNOTS ( 'NONE', 3,
 ( #737, #766, #772, #747, #755, #765, #780, #778, #781 ),
 .UNSPECIFIED., .F., .F.,
 ( 4, 2, 1, 2, 4 ),
 ( 2.309401076759609000E-007, 0.002569439638001510700, 0.005138648335895345400, 0.007707857033789177400, 0.01027706573168300900 ),
 .UNSPECIFIED. ) ;
#161 = B_SPLINE_CURVE_WITH_KNOTS ( 'NONE', 3,
 ( #810, #784, #789, #795, #792, #815 ),
 .UNSPECIFIED., .F., .F.,
 ( 4, 2, 4 ),
 ( 0.008794226228289321900, 0.01138394595539654300, 0.01397366568250376200 ),
 .UNSPECIFIED. ) ;
#162 = B_SPLINE_CURVE_WITH_KNOTS ( 'NONE', 3,
 ( #790, #841, #830, #837, #840, #838 ),
 .UNSPECIFIED., .F., .F.,
 ( 4, 2, 4 ),
 ( 0.02783498887671499400, 0.03043719026221820100, 0.03303939164772140600 ),
 .UNSPECIFIED. ) ;
#163 = B_SPLINE_CURVE_WITH_KNOTS ( 'NONE', 3,
 ( #719, #721, #725, #729, #736, #731, #733, #690 ),
 .UNSPECIFIED., .F., .F.,
 ( 4, 2, 2, 4 ),
 ( 0.005199475067518869200, 0.006494424564588190800, 0.007789374061657512400, 0.01037927305579615400 ),
 .UNSPECIFIED. ) ;
#164 = VERTEX_POINT ( 'NONE', #639 ) ;
#165 = VERTEX_POINT ( 'NONE', #640 ) ;
#166 = VERTEX_POINT ( 'NONE', #590 ) ;
#167 = VERTEX_POINT ( 'NONE', #628 ) ;
#168 = ORIENTED_EDGE ( 'NONE', *, *, #392, .F. ) ;
#169 = ORIENTED_EDGE ( 'NONE', *, *, #425, .F. ) ;
#170 = ORIENTED_EDGE ( 'NONE', *, *, #353, .T. ) ;
#171 = ORIENTED_EDGE ( 'NONE', *, *, #354, .T. ) ;
#172 = ORIENTED_EDGE ( 'NONE', *, *, #393, .F. ) ;
#173 = ORIENTED_EDGE ( 'NONE', *, *, #383, .F. ) ;
#174 = EDGE_LOOP ( 'NONE', ( #207, #238, #198 ) ) ;
#175 = ORIENTED_EDGE ( 'NONE', *, *, #363, .T. ) ;
#176 = ORIENTED_EDGE ( 'NONE', *, *, #382, .T. ) ;
#177 = ORIENTED_EDGE ( 'NONE', *, *, #373, .F. ) ;
#178 = ORIENTED_EDGE ( 'NONE', *, *, #382, .F. ) ;
#179 = ORIENTED_EDGE ( 'NONE', *, *, #343, .F. ) ;
#180 = ORIENTED_EDGE ( 'NONE', *, *, #359, .T. ) ;
#181 = ORIENTED_EDGE ( 'NONE', *, *, #337, .T. ) ;
#182 = ORIENTED_EDGE ( 'NONE', *, *, #407, .F. ) ;
#183 = ORIENTED_EDGE ( 'NONE', *, *, #417, .F. ) ;
#184 = ORIENTED_EDGE ( 'NONE', *, *, #383, .T. ) ;
#185 = ORIENTED_EDGE ( 'NONE', *, *, #416, .F. ) ;
#186 = ORIENTED_EDGE ( 'NONE', *, *, #415, .T. ) ;
#187 = ORIENTED_EDGE ( 'NONE', *, *, #416, .T. ) ;
#188 = ORIENTED_EDGE ( 'NONE', *, *, #395, .F. ) ;
#189 = ORIENTED_EDGE ( 'NONE', *, *, #368, .T. ) ;
#190 = ORIENTED_EDGE ( 'NONE', *, *, #415, .F. ) ;
#191 = ORIENTED_EDGE ( 'NONE', *, *, #370, .F. ) ;
#192 = ORIENTED_EDGE ( 'NONE', *, *, #355, .F. ) ;
#193 = ORIENTED_EDGE ( 'NONE', *, *, #424, .F. ) ;
#194 = ORIENTED_EDGE ( 'NONE', *, *, #417, .T. ) ;
#195 = ORIENTED_EDGE ( 'NONE', *, *, #362, .F. ) ;
#196 = ORIENTED_EDGE ( 'NONE', *, *, #356, .T. ) ;
#197 = ORIENTED_EDGE ( 'NONE', *, *, #342, .F. ) ;
#198 = ORIENTED_EDGE ( 'NONE', *, *, #406, .T. ) ;
#199 = ORIENTED_EDGE ( 'NONE', *, *, #350, .F. ) ;
#200 = ORIENTED_EDGE ( 'NONE', *, *, #344, .T. ) ;
#201 = ORIENTED_EDGE ( 'NONE', *, *, #424, .T. ) ;
#202 = ORIENTED_EDGE ( 'NONE', *, *, #395, .T. ) ;
#203 = ORIENTED_EDGE ( 'NONE', *, *, #333, .F. ) ;
#204 = ORIENTED_EDGE ( 'NONE', *, *, #331, .T. ) ;
#205 = ORIENTED_EDGE ( 'NONE', *, *, #332, .F. ) ;
#206 = ORIENTED_EDGE ( 'NONE', *, *, #346, .F. ) ;
#207 = ORIENTED_EDGE ( 'NONE', *, *, #340, .T. ) ;
#208 = ORIENTED_EDGE ( 'NONE', *, *, #372, .F. ) ;
#209 = ORIENTED_EDGE ( 'NONE', *, *, #341, .T. ) ;
#210 = ORIENTED_EDGE ( 'NONE', *, *, #338, .F. ) ;
#211 = ORIENTED_EDGE ( 'NONE', *, *, #339, .T. ) ;
#212 = ORIENTED_EDGE ( 'NONE', *, *, #363, .F. ) ;
#213 = ORIENTED_EDGE ( 'NONE', *, *, #361, .F. ) ;
#214 = ORIENTED_EDGE ( 'NONE', *, *, #351, .T. ) ;
#215 = ORIENTED_EDGE ( 'NONE', *, *, #339, .F. ) ;
#216 = ORIENTED_EDGE ( 'NONE', *, *, #333, .T. ) ;
#217 = ORIENTED_EDGE ( 'NONE', *, *, #393, .T. ) ;
#218 = ORIENTED_EDGE ( 'NONE', *, *, #366, .T. ) ;
#219 = ORIENTED_EDGE ( 'NONE', *, *, #334, .T. ) ;
#220 = ORIENTED_EDGE ( 'NONE', *, *, #365, .F. ) ;
#221 = ORIENTED_EDGE ( 'NONE', *, *, #403, .F. ) ;
#222 = ORIENTED_EDGE ( 'NONE', *, *, #364, .F. ) ;
#223 = ORIENTED_EDGE ( 'NONE', *, *, #357, .T. ) ;
#224 = ORIENTED_EDGE ( 'NONE', *, *, #338, .T. ) ;
#225 = ORIENTED_EDGE ( 'NONE', *, *, #352, .F. ) ;
#226 = ORIENTED_EDGE ( 'NONE', *, *, #405, .F. ) ;
#227 = ORIENTED_EDGE ( 'NONE', *, *, #407, .T. ) ;
#228 = ORIENTED_EDGE ( 'NONE', *, *, #405, .T. ) ;
#229 = ORIENTED_EDGE ( 'NONE', *, *, #392, .T. ) ;
#230 = ORIENTED_EDGE ( 'NONE', *, *, #345, .T. ) ;
#231 = CLOSED_SHELL ( 'NONE', ( #152, #132, #127, #136, #139, #148, #150, #140, #138, #130, #151, #147, #129, #137, #128, #143, #141, #131, #134, #133, #145, #149, #135, #144, #142, #146 ) ) ;
#232 = ORIENTED_EDGE ( 'NONE', *, *, #372, .T. ) ;
#233 = ORIENTED_EDGE ( 'NONE', *, *, #361, .T. ) ;
#234 = ORIENTED_EDGE ( 'NONE', *, *, #343, .T. ) ;
#235 = ORIENTED_EDGE ( 'NONE', *, *, #425, .T. ) ;
#236 = ORIENTED_EDGE ( 'NONE', *, *, #373, .T. ) ;
#237 = ORIENTED_EDGE ( 'NONE', *, *, #358, .T. ) ;
#238 = ORIENTED_EDGE ( 'NONE', *, *, #341, .F. ) ;
#239 = ORIENTED_EDGE ( 'NONE', *, *, #403, .T. ) ;
#240 = ORIENTED_EDGE ( 'NONE', *, *, #387, .F. ) ;
#241 = ORIENTED_EDGE ( 'NONE', *, *, #347, .T. ) ;
#242 = EDGE_LOOP ( 'NONE', ( #262, #279, #264, #290, #216, #270, #277 ) ) ;
#243 = ORIENTED_EDGE ( 'NONE', *, *, #348, .F. ) ;
#244 = EDGE_LOOP ( 'NONE', ( #188, #217, #203, #185, #197, #193 ) ) ;
#245 = EDGE_LOOP ( 'NONE', ( #176, #218 ) ) ;
#246 = ORIENTED_EDGE ( 'NONE', *, *, #351, .F. ) ;
#247 = EDGE_LOOP ( 'NONE', ( #273, #280, #268, #271 ) ) ;
#248 = ORIENTED_EDGE ( 'NONE', *, *, #331, .F. ) ;
#249 = ORIENTED_EDGE ( 'NONE', *, *, #348, .T. ) ;
#250 = ORIENTED_EDGE ( 'NONE', *, *, #350, .T. ) ;
#251 = ORIENTED_EDGE ( 'NONE', *, *, #360, .F. ) ;
#252 = EDGE_LOOP ( 'NONE', ( #205, #168, #180 ) ) ;
#253 = ORIENTED_EDGE ( 'NONE', *, *, #366, .F. ) ;
#254 = ORIENTED_EDGE ( 'NONE', *, *, #406, .F. ) ;
#255 = ORIENTED_EDGE ( 'NONE', *, *, #337, .F. ) ;
#256 = ORIENTED_EDGE ( 'NONE', *, *, #340, .F. ) ;
#257 = ORIENTED_EDGE ( 'NONE', *, *, #369, .T. ) ;
#258 = ORIENTED_EDGE ( 'NONE', *, *, #356, .F. ) ;
#259 = ORIENTED_EDGE ( 'NONE', *, *, #368, .F. ) ;
#260 = ORIENTED_EDGE ( 'NONE', *, *, #364, .T. ) ;
#261 = ORIENTED_EDGE ( 'NONE', *, *, #335, .F. ) ;
#262 = ORIENTED_EDGE ( 'NONE', *, *, #336, .T. ) ;
#263 = EDGE_LOOP ( 'NONE', ( #281, #211, #282, #212 ) ) ;
#264 = ORIENTED_EDGE ( 'NONE', *, *, #367, .T. ) ;
#265 = ORIENTED_EDGE ( 'NONE', *, *, #362, .T. ) ;
#266 = ORIENTED_EDGE ( 'NONE', *, *, #344, .F. ) ;
#267 = ORIENTED_EDGE ( 'NONE', *, *, #359, .F. ) ;
#268 = ORIENTED_EDGE ( 'NONE', *, *, #365, .T. ) ;
#269 = ORIENTED_EDGE ( 'NONE', *, *, #371, .F. ) ;
#270 = ORIENTED_EDGE ( 'NONE', *, *, #349, .T. ) ;
#271 = ORIENTED_EDGE ( 'NONE', *, *, #345, .F. ) ;
#272 = ORIENTED_EDGE ( 'NONE', *, *, #358, .F. ) ;
#273 = ORIENTED_EDGE ( 'NONE', *, *, #347, .F. ) ;
#274 = ORIENTED_EDGE ( 'NONE', *, *, #360, .T. ) ;
#275 = ORIENTED_EDGE ( 'NONE', *, *, #370, .T. ) ;
#276 = ORIENTED_EDGE ( 'NONE', *, *, #336, .F. ) ;
#277 = ORIENTED_EDGE ( 'NONE', *, *, #371, .T. ) ;
#278 = ORIENTED_EDGE ( 'NONE', *, *, #335, .T. ) ;
#279 = ORIENTED_EDGE ( 'NONE', *, *, #355, .T. ) ;
#280 = ORIENTED_EDGE ( 'NONE', *, *, #352, .T. ) ;
#281 = ORIENTED_EDGE ( 'NONE', *, *, #346, .T. ) ;
#282 = ORIENTED_EDGE ( 'NONE', *, *, #367, .F. ) ;
#283 = ORIENTED_EDGE ( 'NONE', *, *, #342, .T. ) ;
#284 = ORIENTED_EDGE ( 'NONE', *, *, #387, .T. ) ;
#285 = ORIENTED_EDGE ( 'NONE', *, *, #349, .F. ) ;
#286 = EDGE_LOOP ( 'NONE', ( #261, #249, #293, #291, #255 ) ) ;
#287 = EDGE_LOOP ( 'NONE', ( #215, #233, #175, #183 ) ) ;
#288 = EDGE_LOOP ( 'NONE', ( #221, #220 ) ) ;
#289 = ORIENTED_EDGE ( 'NONE', *, *, #354, .F. ) ;
#290 = ORIENTED_EDGE ( 'NONE', *, *, #353, .F. ) ;
#291 = ORIENTED_EDGE ( 'NONE', *, *, #369, .F. ) ;
#292 = ORIENTED_EDGE ( 'NONE', *, *, #332, .T. ) ;
#293 = ORIENTED_EDGE ( 'NONE', *, *, #334, .F. ) ;
#294 = ORIENTED_EDGE ( 'NONE', *, *, #357, .F. ) ;
#295 = EDGE_LOOP ( 'NONE', ( #258, #257, #259, #276, #251, #294 ) ) ;
#296 = EDGE_LOOP ( 'NONE', ( #256, #284, #285, #172, #173 ) ) ;
#297 = EDGE_LOOP ( 'NONE', ( #265, #260, #241, #246 ) ) ;
#298 = EDGE_LOOP ( 'NONE', ( #192, #189, #219, #204, #187, #170, #194 ) ) ;
#299 = EDGE_LOOP ( 'NONE', ( #289, #283, #248, #243, #267 ) ) ;
#300 = EDGE_LOOP ( 'NONE', ( #195, #182 ) ) ;
#301 = EDGE_LOOP ( 'NONE', ( #190, #191 ) ) ;
#302 = EDGE_LOOP ( 'NONE', ( #199, #178, #200, #186 ) ) ;
#303 = EDGE_LOOP ( 'NONE', ( #272, #274, #269, #240, #254 ) ) ;
#304 = EDGE_LOOP ( 'NONE', ( #237, #169, #223 ) ) ;
#305 = EDGE_LOOP ( 'NONE', ( #225, #208, #230, #239 ) ) ;
#306 = EDGE_LOOP ( 'NONE', ( #209, #236, #234, #229, #224, #228, #235 ) ) ;
#307 = EDGE_LOOP ( 'NONE', ( #210, #292, #278 ) ) ;
#308 = EDGE_LOOP ( 'NONE', ( #222, #227, #214, #232 ) ) ;
#309 = EDGE_LOOP ( 'NONE', ( #202, #177, #184 ) ) ;
#310 = EDGE_LOOP ( 'NONE', ( #171, #179, #201 ) ) ;
#311 = EDGE_LOOP ( 'NONE', ( #253, #250, #275, #266 ) ) ;
#312 = EDGE_LOOP ( 'NONE', ( #206, #213 ) ) ;
#313 = VERTEX_POINT ( 'NONE', #616 ) ;
#314 = EDGE_LOOP ( 'NONE', ( #196, #226, #181 ) ) ;
#315 = VERTEX_POINT ( 'NONE', #621 ) ;
#316 = VERTEX_POINT ( 'NONE', #618 ) ;
#317 = VERTEX_POINT ( 'NONE', #641 ) ;
#318 = VERTEX_POINT ( 'NONE', #589 ) ;
#319 = B_SPLINE_CURVE_WITH_KNOTS ( 'NONE', 3,
 ( #625, #636, #610, #642, #666, #668, #679, #661 ),
 .UNSPECIFIED., .F., .F.,
 ( 4, 2, 2, 4 ),
 ( 0.005199475067518873600, 0.006494424564588194300, 0.007789374061657515800, 0.01037927305579615700 ),
 .UNSPECIFIED. ) ;
#320 = B_SPLINE_CURVE_WITH_KNOTS ( 'NONE', 3,
 ( #593, #617, #620, #631, #611, #602 ),
 .UNSPECIFIED., .F., .F.,
 ( 4, 2, 4 ),
 ( 0.01397366568250376200, 0.01657093197955133300, 0.01916819827659890800 ),
 .UNSPECIFIED. ) ;
#321 = B_SPLINE_CURVE_WITH_KNOTS ( 'NONE', 3,
 ( #650, #651, #652, #675, #677, #683, #688, #689, #653 ),
 .UNSPECIFIED., .F., .F.,
 ( 4, 2, 1, 2, 4 ),
 ( 2.309401076763871400E-007, 0.002569439638001512500, 0.005138648335895348000, 0.007707857033789180900, 0.01027706573168301500 ),
 .UNSPECIFIED. ) ;
#322 = B_SPLINE_CURVE_WITH_KNOTS ( 'NONE', 3,
 ( #713, #712, #711, #735, #707, #715 ),
 .UNSPECIFIED., .F., .F.,
 ( 4, 2, 4 ),
 ( 2.380731027680444900E-007, 0.002599856570310818800, 0.005199475067518869200 ),
 .UNSPECIFIED. ) ;
#323 = B_SPLINE_CURVE_WITH_KNOTS ( 'NONE', 3,
 ( #596, #594, #597, #598, #605, #627, #622, #624, #615 ),
 .UNSPECIFIED., .F., .F.,
 ( 4, 2, 1, 2, 4 ),
 ( 2.309401076763871700E-007, 0.002569439638001511200, 0.005138648335895345400, 0.007707857033789180000, 0.01027706573168301500 ),
 .UNSPECIFIED. ) ;
#324 = MANIFOLD_SOLID_BREP ( 'M12 Tapped Hole1', #231 ) ;
#325 = B_SPLINE_CURVE_WITH_KNOTS ( 'NONE', 3,
 ( #632, #613, #606, #607, #608, #626 ),
 .UNSPECIFIED., .F., .F.,
 ( 4, 2, 4 ),
 ( 2.380731027673440800E-007, 0.002599856570310820500, 0.005199475067518873600 ),
 .UNSPECIFIED. ) ;
#326 = B_SPLINE_CURVE_WITH_KNOTS ( 'NONE', 3,
 ( #609, #633, #595, #637, #599, #634 ),
 .UNSPECIFIED., .F., .F.,
 ( 4, 2, 4 ),
 ( 0.01892060120547984400, 0.02151094544592917900, 0.02410128968637851400 ),
 .UNSPECIFIED. ) ;
#327 = B_SPLINE_CURVE_WITH_KNOTS ( 'NONE', 3,
 ( #649, #655, #684, #663, #687, #669 ),
 .UNSPECIFIED., .F., .F.,
 ( 4, 2, 4 ),
 ( 2.380731027674927100E-007, 0.002599856570310820900, 0.005199475067518874400 ),
 .UNSPECIFIED. ) ;
#328 = B_SPLINE_CURVE_WITH_KNOTS ( 'NONE', 3,
 ( #706, #716, #730, #727, #724, #717 ),
 .UNSPECIFIED., .F., .F.,
 ( 4, 2, 4 ),
 ( 0.009231997268518693900, 0.01183144371536946600, 0.01443089016222023600 ),
 .UNSPECIFIED. ) ;
#329 = B_SPLINE_CURVE_WITH_KNOTS ( 'NONE', 3,
 ( #603, #600, #638, #612, #630, #592, #635, #629, #601 ),
 .UNSPECIFIED., .F., .F.,
 ( 4, 2, 1, 2, 4 ),
 ( 2.309401076753103800E-007, 0.002569439638001508100, 0.005138648335895341100, 0.007707857033789174000, 0.01027706573168300900 ),
 .UNSPECIFIED. ) ;
#330 = B_SPLINE_CURVE_WITH_KNOTS ( 'NONE', 3,
 ( #700, #709, #710, #726, #723, #691 ),
 .UNSPECIFIED., .F., .F.,
 ( 4, 2, 4 ),
 ( 0.01443089016222023600, 0.01703195275305989900, 0.01963301534389956200 ),
 .UNSPECIFIED. ) ;
#331 = EDGE_CURVE ( 'NONE', #96, #318, #329, .T. ) ;
#332 = EDGE_CURVE ( 'NONE', #115, #122, #18, .T. ) ;
#333 = EDGE_CURVE ( 'NONE', #100, #95, #320, .T. ) ;
#334 = EDGE_CURVE ( 'NONE', #116, #96, #323, .T. ) ;
#335 = EDGE_CURVE ( 'NONE', #122, #107, #325, .T. ) ;
#336 = EDGE_CURVE ( 'NONE', #99, #121, #326, .T. ) ;
#337 = EDGE_CURVE ( 'NONE', #107, #117, #319, .T. ) ;
#338 = EDGE_CURVE ( 'NONE', #115, #107, #49, .T. ) ;
#339 = EDGE_CURVE ( 'NONE', #167, #165, #55, .T. ) ;
#340 = EDGE_CURVE ( 'NONE', #119, #103, #327, .T. ) ;
#341 = EDGE_CURVE ( 'NONE', #164, #103, #53, .T. ) ;
#342 = EDGE_CURVE ( 'NONE', #313, #318, #86, .T. ) ;
#343 = EDGE_CURVE ( 'NONE', #109, #93, #83, .T. ) ;
#344 = EDGE_CURVE ( 'NONE', #92, #97, #82, .T. ) ;
#345 = EDGE_CURVE ( 'NONE', #98, #94, #85, .T. ) ;
#346 = EDGE_CURVE ( 'NONE', #105, #167, #66, .T. ) ;
#347 = EDGE_CURVE ( 'NONE', #102, #98, #87, .T. ) ;
#348 = EDGE_CURVE ( 'NONE', #122, #96, #70, .T. ) ;
#349 = EDGE_CURVE ( 'NONE', #95, #101, #321, .T. ) ;
#350 = EDGE_CURVE ( 'NONE', #90, #104, #84, .T. ) ;
#351 = EDGE_CURVE ( 'NONE', #108, #98, #58, .T. ) ;
#352 = EDGE_CURVE ( 'NONE', #102, #316, #73, .T. ) ;
#353 = EDGE_CURVE ( 'NONE', #100, #165, #77, .T. ) ;
#354 = EDGE_CURVE ( 'NONE', #313, #93, #322, .T. ) ;
#355 = EDGE_CURVE ( 'NONE', #121, #114, #76, .T. ) ;
#356 = EDGE_CURVE ( 'NONE', #117, #317, #328, .T. ) ;
#357 = EDGE_CURVE ( 'NONE', #317, #166, #330, .T. ) ;
#358 = EDGE_CURVE ( 'NONE', #166, #164, #157, .T. ) ;
#359 = EDGE_CURVE ( 'NONE', #93, #122, #163, .T. ) ;
#360 = EDGE_CURVE ( 'NONE', #166, #99, #88, .T. ) ;
#361 = EDGE_CURVE ( 'NONE', #167, #105, #60, .T. ) ;
#362 = EDGE_CURVE ( 'NONE', #108, #123, #59, .T. ) ;
#363 = EDGE_CURVE ( 'NONE', #105, #114, #61, .T. ) ;
#364 = EDGE_CURVE ( 'NONE', #123, #102, #62, .T. ) ;
#365 = EDGE_CURVE ( 'NONE', #316, #94, #81, .T. ) ;
#366 = EDGE_CURVE ( 'NONE', #90, #92, #42, .T. ) ;
#367 = EDGE_CURVE ( 'NONE', #114, #165, #56, .T. ) ;
#368 = EDGE_CURVE ( 'NONE', #121, #116, #158, .T. ) ;
#369 = EDGE_CURVE ( 'NONE', #117, #116, #75, .T. ) ;
#370 = EDGE_CURVE ( 'NONE', #104, #97, #847, .T. ) ;
#371 = EDGE_CURVE ( 'NONE', #101, #99, #160, .T. ) ;
#372 = EDGE_CURVE ( 'NONE', #98, #102, #846, .T. ) ;
#373 = EDGE_CURVE ( 'NONE', #103, #109, #845, .T. ) ;
#374 = AXIS2_PLACEMENT_3D ( 'NONE', #503, #535, #525 ) ;
#375 = AXIS2_PLACEMENT_3D ( 'NONE', #504, #538, #521 ) ;
#376 = AXIS2_PLACEMENT_3D ( 'NONE', #552, #542, #579 ) ;
#377 = AXIS2_PLACEMENT_3D ( 'NONE', #580, #581, #565 ) ;
#378 = AXIS2_PLACEMENT_3D ( 'NONE', #533, #498, #520 ) ;
#379 = AXIS2_PLACEMENT_3D ( 'NONE', #685, #673, #680 ) ;
#380 = AXIS2_PLACEMENT_3D ( 'NONE', #749, #769, #776 ) ;
#381 = AXIS2_PLACEMENT_3D ( 'NONE', #539, #510, #519 ) ;
#382 = EDGE_CURVE ( 'NONE', #92, #90, #849, .T. ) ;
#383 = EDGE_CURVE ( 'NONE', #103, #315, #156, .T. ) ;
#384 = AXIS2_PLACEMENT_3D ( 'NONE', #502, #524, #530 ) ;
#385 = AXIS2_PLACEMENT_3D ( 'NONE', #566, #577, #578 ) ;
#386 = AXIS2_PLACEMENT_3D ( 'NONE', #583, #554, #575 ) ;
#387 = EDGE_CURVE ( 'NONE', #119, #101, #850, .T. ) ;
#388 = AXIS2_PLACEMENT_3D ( 'NONE', #528, #506, #516 ) ;
#389 = AXIS2_PLACEMENT_3D ( 'NONE', #553, #584, #562 ) ;
#390 = AXIS2_PLACEMENT_3D ( 'NONE', #645, #656, #676 ) ;
#391 = AXIS2_PLACEMENT_3D ( 'NONE', #646, #674, #648 ) ;
#392 = EDGE_CURVE ( 'NONE', #93, #115, #456, .T. ) ;
#393 = EDGE_CURVE ( 'NONE', #315, #95, #458, .T. ) ;
#394 = AXIS2_PLACEMENT_3D ( 'NONE', #522, #513, #512 ) ;
#395 = EDGE_CURVE ( 'NONE', #315, #109, #153, .T. ) ;
#396 = AXIS2_PLACEMENT_3D ( 'NONE', #571, #548, #588 ) ;
#397 = AXIS2_PLACEMENT_3D ( 'NONE', #564, #556, #557 ) ;
#398 = AXIS2_PLACEMENT_3D ( 'NONE', #695, #697, #698 ) ;
#399 = AXIS2_PLACEMENT_3D ( 'NONE', #561, #586, #568 ) ;
#400 = AXIS2_PLACEMENT_3D ( 'NONE', #587, #574, #576 ) ;
#401 = AXIS2_PLACEMENT_3D ( 'NONE', #500, #499, #501 ) ;
#402 = AXIS2_PLACEMENT_3D ( 'NONE', #529, #496, #508 ) ;
#403 = EDGE_CURVE ( 'NONE', #94, #316, #65, .T. ) ;
#404 = AXIS2_PLACEMENT_3D ( 'NONE', #541, #558, #563 ) ;
#405 = EDGE_CURVE ( 'NONE', #107, #317, #844, .T. ) ;
#406 = EDGE_CURVE ( 'NONE', #164, #119, #154, .T. ) ;
#407 = EDGE_CURVE ( 'NONE', #123, #108, #37, .T. ) ;
#408 = AXIS2_PLACEMENT_3D ( 'NONE', #686, #681, #678 ) ;
#409 = AXIS2_PLACEMENT_3D ( 'NONE', #682, #670, #647 ) ;
#410 = AXIS2_PLACEMENT_3D ( 'NONE', #509, #527, #518 ) ;
#411 = AXIS2_PLACEMENT_3D ( 'NONE', #699, #750, #740 ) ;
#412 = AXIS2_PLACEMENT_3D ( 'NONE', #546, #569, #570 ) ;
#413 = AXIS2_PLACEMENT_3D ( 'NONE', #774, #741, #738 ) ;
#414 = AXIS2_PLACEMENT_3D ( 'NONE', #764, #775, #777 ) ;
#415 = EDGE_CURVE ( 'NONE', #97, #104, #843, .T. ) ;
#416 = EDGE_CURVE ( 'NONE', #318, #100, #161, .T. ) ;
#417 = EDGE_CURVE ( 'NONE', #165, #114, #859, .T. ) ;
#418 = AXIS2_PLACEMENT_3D ( 'NONE', #585, #555, #567 ) ;
#419 = AXIS2_PLACEMENT_3D ( 'NONE', #604, #614, #619 ) ;
#420 = AXIS2_PLACEMENT_3D ( 'NONE', #573, #540, #543 ) ;
#421 = AXIS2_PLACEMENT_3D ( 'NONE', #544, #545, #551 ) ;
#422 = AXIS2_PLACEMENT_3D ( 'NONE', #754, #752, #770 ) ;
#423 = AXIS2_PLACEMENT_3D ( 'NONE', #739, #763, #762 ) ;
#424 = EDGE_CURVE ( 'NONE', #109, #313, #162, .T. ) ;
#425 = EDGE_CURVE ( 'NONE', #317, #164, #7, .T. ) ;
#426 = AXIS2_PLACEMENT_3D ( 'NONE', #532, #517, #507 ) ;
#427 = AXIS2_PLACEMENT_3D ( 'NONE', #797, #798, #808 ) ;
#428 = CC_DESIGN_PERSON_AND_ORGANIZATION_ASSIGNMENT ( #855, #469, ( #851 ) ) ;
#429 = PRODUCT_DEFINITION_FORMATION_WITH_SPECIFIED_SOURCE ( 'ANY', '', #851, .NOT_KNOWN. ) ;
#430 = AXIS2_PLACEMENT_3D ( 'NONE', #756, #757, #758 ) ;
#431 = AXIS2_PLACEMENT_3D ( 'NONE', #743, #759, #768 ) ;
#432 = AXIS2_PLACEMENT_3D ( 'NONE', #836, #832, #839 ) ;
#433 = AXIS2_PLACEMENT_3D ( 'NONE', #793, #831, #466 ) ;
#434 = CC_DESIGN_PERSON_AND_ORGANIZATION_ASSIGNMENT ( #5, #459, ( #437 ) ) ;
#435 = APPROVAL ( #462, 'UNSPECIFIED' ) ;
#436 = CC_DESIGN_DATE_AND_TIME_ASSIGNMENT ( #862, #470, ( #437 ) ) ;
#437 = PRODUCT_DEFINITION ( 'UNKNOWN', '', #429, #125 ) ;
#438 = CC_DESIGN_PERSON_AND_ORGANIZATION_ASSIGNMENT ( #8, #472, ( #446 ) ) ;
#439 = PRODUCT_RELATED_PRODUCT_CATEGORY ( 'detail', '', ( #851 ) ) ;
#440 = APPROVAL ( #464, 'UNSPECIFIED' ) ;
#441 = CC_DESIGN_PERSON_AND_ORGANIZATION_ASSIGNMENT ( #2, #461, ( #429 ) ) ;
#442 = AXIS2_PLACEMENT_3D ( 'NONE', #823, #822, #819 ) ;
#443 = AXIS2_PLACEMENT_3D ( 'NONE', #796, #803, #825 ) ;
#444 =( GEOMETRIC_REPRESENTATION_CONTEXT ( 3 ) GLOBAL_UNCERTAINTY_ASSIGNED_CONTEXT ( ( #159 ) ) GLOBAL_UNIT_ASSIGNED_CONTEXT ( ( #828, #833, #834 ) ) REPRESENTATION_CONTEXT ( 'NONE', 'WORKASPACE' ) );
#445 = CC_DESIGN_APPROVAL ( #435, ( #437 ) ) ;
#446 = SECURITY_CLASSIFICATION ( '', '', #477 ) ;
#447 = APPROVAL ( #463, 'UNSPECIFIED' ) ;
#448 = AXIS2_PLACEMENT_3D ( 'NONE', #788, #813, #814 ) ;
#449 = CC_DESIGN_PERSON_AND_ORGANIZATION_ASSIGNMENT ( #1, #465, ( #429 ) ) ;
#450 = CC_DESIGN_SECURITY_CLASSIFICATION ( #446, ( #429 ) ) ;
#451 = CC_DESIGN_APPROVAL ( #447, ( #429 ) ) ;
#452 = AXIS2_PLACEMENT_3D ( 'NONE', #824, #787, #820 ) ;
#453 = CC_DESIGN_APPROVAL ( #440, ( #446 ) ) ;
#454 = CC_DESIGN_DATE_AND_TIME_ASSIGNMENT ( #4, #460, ( #446 ) ) ;
#455 = AXIS2_PLACEMENT_3D ( 'NONE', #842, #829, #835 ) ;
#456 = CIRCLE ( 'NONE', #452, 8.899999999999998600 ) ;
#457 = VECTOR ( 'NONE', #821, 1000.000000000000000 ) ;
#458 = LINE ( 'NONE', #818, #457 ) ;
#459 = PERSON_AND_ORGANIZATION_ROLE ( 'creator' ) ;
#460 = DATE_TIME_ROLE ( 'classification_date' ) ;
#461 = PERSON_AND_ORGANIZATION_ROLE ( 'creator' ) ;
#462 = APPROVAL_STATUS ( 'not_yet_approved' ) ;
#463 = APPROVAL_STATUS ( 'not_yet_approved' ) ;
#464 = APPROVAL_STATUS ( 'not_yet_approved' ) ;
#465 = PERSON_AND_ORGANIZATION_ROLE ( 'design_supplier' ) ;
#466 = DIRECTION ( 'NONE',  ( 1.000000000000000000, 0.0000000000000000000, 0.0000000000000000000 ) ) ;
#467 = APPROVAL_ROLE ( '' ) ;
#468 = APPLICATION_PROTOCOL_DEFINITION ( 'international standard', 'config_control_design', 1994, #476 ) ;
#469 = PERSON_AND_ORGANIZATION_ROLE ( 'design_owner' ) ;
#470 = DATE_TIME_ROLE ( 'creation_date' ) ;
#471 = APPROVAL_ROLE ( '' ) ;
#472 = PERSON_AND_ORGANIZATION_ROLE ( 'classification_officer' ) ;
#473 = MECHANICAL_CONTEXT ( 'NONE', #478, 'mechanical' ) ;
#474 = APPROVAL_ROLE ( '' ) ;
#475 = APPLICATION_PROTOCOL_DEFINITION ( 'international standard', 'config_control_design', 1994, #478 ) ;
#476 = APPLICATION_CONTEXT ( 'configuration controlled 3d designs of mechanical parts and assemblies' ) ;
#477 = SECURITY_CLASSIFICATION_LEVEL ( 'unclassified' ) ;
#478 = APPLICATION_CONTEXT ( 'configuration controlled 3d designs of mechanical parts and assemblies' ) ;
#479 = CARTESIAN_POINT ( 'NONE',  ( -4.450000000000002000, 11.69999999999999900, -7.707626093681510000 ) ) ;
#480 = CARTESIAN_POINT ( 'NONE',  ( 0.0000000000000000000, 1.000000000000000900, 5.099999999999997900 ) ) ;
#481 = CARTESIAN_POINT ( 'NONE',  ( 1.053196247266723700E-015, 1.000000000000000000, 8.599999999999999600 ) ) ;
#482 = CARTESIAN_POINT ( 'NONE',  ( 0.0000000000000000000, 11.69999999999999900, 6.025000000000001200 ) ) ;
#483 = CARTESIAN_POINT ( 'NONE',  ( 7.521410443860081000E-016, 2.894476325264459400, -10.27683479157534100 ) ) ;
#484 = CARTESIAN_POINT ( 'NONE',  ( 0.0000000000000000000, 1.000000000000000000, -8.599999999999999600 ) ) ;
#485 = CARTESIAN_POINT ( 'NONE',  ( 4.450000000000001100, 11.69999999999999900, -7.707626093681507300 ) ) ;
#486 = CARTESIAN_POINT ( 'NONE',  ( 0.0000000000000000000, 10.77500000000000000, 5.099999999999998800 ) ) ;
#487 = CARTESIAN_POINT ( 'NONE',  ( 8.899999999999998600, 3.391666666666666200, 6.997491578833289500E-020 ) ) ;
#488 = CARTESIAN_POINT ( 'NONE',  ( 8.899999999999998600, 2.894476325264460300, 5.138417395787668900 ) ) ;
#489 = CARTESIAN_POINT ( 'NONE',  ( -8.900000000000000400, 2.894476325264462100, 5.138417395787668900 ) ) ;
#490 = CARTESIAN_POINT ( 'NONE',  ( -5.109846096968521000E-015, 2.894476325264461200, 10.27683479157533600 ) ) ;
#491 = CARTESIAN_POINT ( 'NONE',  ( 0.0000000000000000000, 0.0000000000000000000, -8.599999999999999600 ) ) ;
#492 = CARTESIAN_POINT ( 'NONE',  ( 6.245698675651499900E-016, 10.77500000000000000, -5.099999999999998800 ) ) ;
#493 = CARTESIAN_POINT ( 'NONE',  ( 4.449999999999996600, 11.69999999999999900, 7.707626093681503800 ) ) ;
#494 = CARTESIAN_POINT ( 'NONE',  ( 1.053196247266723700E-015, 0.0000000000000000000, 8.599999999999999600 ) ) ;
#495 = CARTESIAN_POINT ( 'NONE',  ( -12.20000000000000500, 8.844093820734504800E-019, 0.0000000000000000000 ) ) ;
#496 = DIRECTION ( 'NONE',  ( 0.0000000000000000000, 1.000000000000000000, 0.0000000000000000000 ) ) ;
#497 = CARTESIAN_POINT ( 'NONE',  ( -4.790919231474801800E-015, 10.90508406245433200, 10.27683479157533600 ) ) ;
#498 = DIRECTION ( 'NONE',  ( 0.0000000000000000000, -1.000000000000000000, 0.0000000000000000000 ) ) ;
#499 = DIRECTION ( 'NONE',  ( 0.0000000000000000000, -1.000000000000000000, 0.0000000000000000000 ) ) ;
#500 = CARTESIAN_POINT ( 'NONE',  ( 0.0000000000000000000, 13.91484187279055900, 0.0000000000000000000 ) ) ;
#501 = DIRECTION ( 'NONE',  ( 0.0000000000000000000, 0.0000000000000000000, -1.000000000000000000 ) ) ;
#502 = CARTESIAN_POINT ( 'NONE',  ( 0.0000000000000000000, 1.000000000000000000, 0.0000000000000000000 ) ) ;
#503 = CARTESIAN_POINT ( 'NONE',  ( 0.0000000000000000000, 13.91484187279055900, 0.0000000000000000000 ) ) ;
#504 = CARTESIAN_POINT ( 'NONE',  ( -3.801396569324266100E-015, 0.0000000000000000000, 0.0000000000000000000 ) ) ;
#505 = CARTESIAN_POINT ( 'NONE',  ( 1.983795164398801700E-016, 10.90508406245432800, -10.27683479157534100 ) ) ;
#506 = DIRECTION ( 'NONE',  ( 0.5000000000000001100, 0.0000000000000000000, -0.8660254037844386000 ) ) ;
#507 = DIRECTION ( 'NONE',  ( 1.000000000000000000, 0.0000000000000000000, 0.0000000000000000000 ) ) ;
#508 = DIRECTION ( 'NONE',  ( 0.0000000000000000000, -0.0000000000000000000, 1.000000000000000000 ) ) ;
#509 = CARTESIAN_POINT ( 'NONE',  ( 0.0000000000000000000, 13.91484187279055900, 0.0000000000000000000 ) ) ;
#510 = DIRECTION ( 'NONE',  ( -0.0000000000000000000, 1.000000000000000000, -0.0000000000000000000 ) ) ;
#511 = CARTESIAN_POINT ( 'NONE',  ( 6.245698675651498900E-016, 1.000000000000000900, -5.099999999999997900 ) ) ;
#512 = DIRECTION ( 'NONE',  ( 0.0000000000000000000, 0.0000000000000000000, -1.000000000000000000 ) ) ;
#513 = DIRECTION ( 'NONE',  ( 0.0000000000000000000, -1.000000000000000000, 0.0000000000000000000 ) ) ;
#514 = CARTESIAN_POINT ( 'NONE',  ( 8.899999999999998600, 11.69999999999999900, 0.0000000000000000000 ) ) ;
#515 = CARTESIAN_POINT ( 'NONE',  ( 0.0000000000000000000, 11.69999999999999900, -8.899999999999998600 ) ) ;
#516 = DIRECTION ( 'NONE',  ( -0.8660254037844386000, 0.0000000000000000000, -0.5000000000000001100 ) ) ;
#517 = DIRECTION ( 'NONE',  ( -3.624628615055125000E-020, -1.000000000000000000, 0.0000000000000000000 ) ) ;
#518 = DIRECTION ( 'NONE',  ( 0.0000000000000000000, 0.0000000000000000000, -1.000000000000000000 ) ) ;
#519 = DIRECTION ( 'NONE',  ( 0.0000000000000000000, 0.0000000000000000000, 1.000000000000000000 ) ) ;
#520 = DIRECTION ( 'NONE',  ( 0.0000000000000000000, 0.0000000000000000000, -1.000000000000000000 ) ) ;
#521 = DIRECTION ( 'NONE',  ( -1.000000000000000000, 3.624628615055125000E-020, 0.0000000000000000000 ) ) ;
#522 = CARTESIAN_POINT ( 'NONE',  ( 0.0000000000000000000, 13.91484187279055900, 0.0000000000000000000 ) ) ;
#523 = PLANE ( 'NONE',  #388 ) ;
#524 = DIRECTION ( 'NONE',  ( -0.0000000000000000000, -1.000000000000000000, -0.0000000000000000000 ) ) ;
#525 = DIRECTION ( 'NONE',  ( 0.0000000000000000000, 0.0000000000000000000, -1.000000000000000000 ) ) ;
#526 = CARTESIAN_POINT ( 'NONE',  ( -12.20000000000000300, 2.200000000000000200, 1.494069094959770900E-015 ) ) ;
#527 = DIRECTION ( 'NONE',  ( 0.0000000000000000000, -1.000000000000000000, 0.0000000000000000000 ) ) ;
#528 = CARTESIAN_POINT ( 'NONE',  ( -8.900000000000000400, 11.69999999999999900, 5.138417395787668900 ) ) ;
#529 = CARTESIAN_POINT ( 'NONE',  ( 0.0000000000000000000, 0.0000000000000000000, 0.0000000000000000000 ) ) ;
#530 = DIRECTION ( 'NONE',  ( 0.0000000000000000000, 0.0000000000000000000, -1.000000000000000000 ) ) ;
#531 = CARTESIAN_POINT ( 'NONE',  ( -8.900000000000000400, 3.391666666666667900, 1.090005626123814100E-015 ) ) ;
#532 = CARTESIAN_POINT ( 'NONE',  ( -3.801316827494734500E-015, 2.200000000000000200, 0.0000000000000000000 ) ) ;
#533 = CARTESIAN_POINT ( 'NONE',  ( 0.0000000000000000000, 13.91484187279055900, 0.0000000000000000000 ) ) ;
#534 = PLANE ( 'NONE',  #402 ) ;
#535 = DIRECTION ( 'NONE',  ( 0.0000000000000000000, -1.000000000000000000, 0.0000000000000000000 ) ) ;
#536 = CARTESIAN_POINT ( 'NONE',  ( -8.900000000000000400, 2.894476325264461200, -5.138417395787674200 ) ) ;
#537 = CARTESIAN_POINT ( 'NONE',  ( -8.900000000000000400, 10.90508406245433000, -5.138417395787674200 ) ) ;
#538 = DIRECTION ( 'NONE',  ( 3.624628615055125000E-020, 1.000000000000000000, -0.0000000000000000000 ) ) ;
#539 = CARTESIAN_POINT ( 'NONE',  ( 0.0000000000000000000, 11.69999999999999900, 0.0000000000000000000 ) ) ;
#540 = DIRECTION ( 'NONE',  ( -0.4999999999999999400, 0.0000000000000000000, 0.8660254037844387100 ) ) ;
#541 = CARTESIAN_POINT ( 'NONE',  ( 8.899999999999998600, 11.69999999999999900, 5.138417395787668900 ) ) ;
#542 = DIRECTION ( 'NONE',  ( 0.0000000000000000000, -1.000000000000000000, 0.0000000000000000000 ) ) ;
#543 = DIRECTION ( 'NONE',  ( 0.8660254037844387100, 0.0000000000000000000, 0.4999999999999999400 ) ) ;
#544 = CARTESIAN_POINT ( 'NONE',  ( -5.109846096968521000E-015, 11.69999999999999900, 10.27683479157533600 ) ) ;
#545 = DIRECTION ( 'NONE',  ( -0.4999999999999997200, 0.0000000000000000000, -0.8660254037844388200 ) ) ;
#546 = CARTESIAN_POINT ( 'NONE',  ( 0.0000000000000000000, 13.91484187279055900, 0.0000000000000000000 ) ) ;
#547 = PLANE ( 'NONE',  #376 ) ;
#548 = DIRECTION ( 'NONE',  ( 0.0000000000000000000, 1.000000000000000000, 0.0000000000000000000 ) ) ;
#549 = PLANE ( 'NONE',  #404 ) ;
#550 = PLANE ( 'NONE',  #421 ) ;
#551 = DIRECTION ( 'NONE',  ( -0.8660254037844388200, 0.0000000000000000000, 0.4999999999999997200 ) ) ;
#552 = CARTESIAN_POINT ( 'NONE',  ( 0.0000000000000000000, 1.000000000000000000, 0.0000000000000000000 ) ) ;
#553 = CARTESIAN_POINT ( 'NONE',  ( 0.0000000000000000000, 11.69999999999999900, 0.0000000000000000000 ) ) ;
#554 = DIRECTION ( 'NONE',  ( 1.000000000000000000, 0.0000000000000000000, 0.0000000000000000000 ) ) ;
#555 = DIRECTION ( 'NONE',  ( -3.624628615055125000E-020, -1.000000000000000000, 0.0000000000000000000 ) ) ;
#556 = DIRECTION ( 'NONE',  ( -0.0000000000000000000, 1.000000000000000000, -0.0000000000000000000 ) ) ;
#557 = DIRECTION ( 'NONE',  ( 0.0000000000000000000, 0.0000000000000000000, 1.000000000000000000 ) ) ;
#558 = DIRECTION ( 'NONE',  ( -1.000000000000000000, 0.0000000000000000000, 0.0000000000000000000 ) ) ;
#559 = PLANE ( 'NONE',  #386 ) ;
#560 = PLANE ( 'NONE',  #396 ) ;
#561 = CARTESIAN_POINT ( 'NONE',  ( 7.521410443860081000E-016, 11.69999999999999900, -10.27683479157534100 ) ) ;
#562 = DIRECTION ( 'NONE',  ( 0.0000000000000000000, 0.0000000000000000000, 1.000000000000000000 ) ) ;
#563 = DIRECTION ( 'NONE',  ( 0.0000000000000000000, 0.0000000000000000000, 1.000000000000000000 ) ) ;
#564 = CARTESIAN_POINT ( 'NONE',  ( 0.0000000000000000000, 11.69999999999999900, 0.0000000000000000000 ) ) ;
#565 = DIRECTION ( 'NONE',  ( 0.0000000000000000000, 0.0000000000000000000, -1.000000000000000000 ) ) ;
#566 = CARTESIAN_POINT ( 'NONE',  ( -3.801396569324266100E-015, 0.0000000000000000000, 0.0000000000000000000 ) ) ;
#567 = DIRECTION ( 'NONE',  ( 1.000000000000000000, 0.0000000000000000000, 0.0000000000000000000 ) ) ;
#568 = DIRECTION ( 'NONE',  ( 0.8660254037844387100, 0.0000000000000000000, -0.4999999999999998300 ) ) ;
#569 = DIRECTION ( 'NONE',  ( 0.0000000000000000000, -1.000000000000000000, 0.0000000000000000000 ) ) ;
#570 = DIRECTION ( 'NONE',  ( 0.0000000000000000000, 0.0000000000000000000, -1.000000000000000000 ) ) ;
#571 = CARTESIAN_POINT ( 'NONE',  ( 0.0000000000000000000, 11.69999999999999900, 0.0000000000000000000 ) ) ;
#572 = PLANE ( 'NONE',  #420 ) ;
#573 = CARTESIAN_POINT ( 'NONE',  ( 8.899999999999998600, 11.69999999999999900, -5.138417395787674200 ) ) ;
#574 = DIRECTION ( 'NONE',  ( 0.0000000000000000000, -1.000000000000000000, 0.0000000000000000000 ) ) ;
#575 = DIRECTION ( 'NONE',  ( 0.0000000000000000000, 0.0000000000000000000, -1.000000000000000000 ) ) ;
#576 = DIRECTION ( 'NONE',  ( 0.0000000000000000000, 0.0000000000000000000, -1.000000000000000000 ) ) ;
#577 = DIRECTION ( 'NONE',  ( 3.624628615055125000E-020, 1.000000000000000000, -0.0000000000000000000 ) ) ;
#578 = DIRECTION ( 'NONE',  ( -1.000000000000000000, 3.624628615055125000E-020, 0.0000000000000000000 ) ) ;
#579 = DIRECTION ( 'NONE',  ( 0.0000000000000000000, -0.0000000000000000000, -1.000000000000000000 ) ) ;
#580 = CARTESIAN_POINT ( 'NONE',  ( 0.0000000000000000000, 1.000000000000000000, 0.0000000000000000000 ) ) ;
#581 = DIRECTION ( 'NONE',  ( -0.0000000000000000000, -1.000000000000000000, -0.0000000000000000000 ) ) ;
#582 = PLANE ( 'NONE',  #399 ) ;
#583 = CARTESIAN_POINT ( 'NONE',  ( -8.900000000000000400, 11.69999999999999900, -5.138417395787674200 ) ) ;
#584 = DIRECTION ( 'NONE',  ( -0.0000000000000000000, 1.000000000000000000, -0.0000000000000000000 ) ) ;
#585 = CARTESIAN_POINT ( 'NONE',  ( -3.801316827494734500E-015, 2.200000000000000200, 0.0000000000000000000 ) ) ;
#586 = DIRECTION ( 'NONE',  ( 0.4999999999999998300, -0.0000000000000000000, 0.8660254037844387100 ) ) ;
#587 = CARTESIAN_POINT ( 'NONE',  ( 0.0000000000000000000, 13.91484187279055900, 0.0000000000000000000 ) ) ;
#588 = DIRECTION ( 'NONE',  ( 0.0000000000000000000, -0.0000000000000000000, 1.000000000000000000 ) ) ;
#589 = CARTESIAN_POINT ( 'NONE',  ( 8.899999999999998600, 2.894476325264459400, -5.138417395787674200 ) ) ;
#590 = CARTESIAN_POINT ( 'NONE',  ( -8.900000000000000400, 10.90508406245433200, 5.138417395787668900 ) ) ;
#591 = CARTESIAN_POINT ( 'NONE',  ( 0.0000000000000000000, 13.91484187279055900, -5.063781345595754300 ) ) ;
#592 = CARTESIAN_POINT ( 'NONE',  ( 5.933333333333329100, 3.346206291576637100, -6.851223194383563500 ) ) ;
#593 = CARTESIAN_POINT ( 'NONE',  ( 8.899999999999998600, 3.391666666666666200, 6.997491578833289500E-020 ) ) ;
#594 = CARTESIAN_POINT ( 'NONE',  ( -8.158333333333329700, 3.049104626526589100, -5.566618845436649600 ) ) ;
#595 = CARTESIAN_POINT ( 'NONE',  ( -8.900000000000002100, 3.174344051295962200, 3.428021847007990200 ) ) ;
#596 = CARTESIAN_POINT ( 'NONE',  ( -8.900000000000000400, 2.894476325264461200, -5.138417395787674200 ) ) ;
#597 = CARTESIAN_POINT ( 'NONE',  ( -7.416666666666666100, 3.174661593472484900, -5.994820295085621500 ) ) ;
#598 = CARTESIAN_POINT ( 'NONE',  ( -5.933333333333330900, 3.346206291576637100, -6.851223194383563500 ) ) ;
#599 = CARTESIAN_POINT ( 'NONE',  ( -8.899999999999998600, 3.391666666666667900, 0.8581435863220597800 ) ) ;
#600 = CARTESIAN_POINT ( 'NONE',  ( 0.7416666666666672500, 3.049104626526589100, -9.848633341926369400 ) ) ;
#601 = CARTESIAN_POINT ( 'NONE',  ( 8.899999999999998600, 2.894476325264459400, -5.138417395787674200 ) ) ;
#602 = CARTESIAN_POINT ( 'NONE',  ( 8.899999999999998600, 2.894476325264460300, 5.138417395787668900 ) ) ;
#603 = CARTESIAN_POINT ( 'NONE',  ( 7.521410443860081000E-016, 2.894476325264459400, -10.27683479157534100 ) ) ;
#604 = CARTESIAN_POINT ( 'NONE',  ( 0.0000000000000000000, 11.69999999999999900, 0.0000000000000000000 ) ) ;
#605 = CARTESIAN_POINT ( 'NONE',  ( -4.450000000000001100, 3.437127041756694400, -7.707626093681509100 ) ) ;
#606 = CARTESIAN_POINT ( 'NONE',  ( -1.461240103188876400, 11.34764854594973300, -9.433187424648569000 ) ) ;
#607 = CARTESIAN_POINT ( 'NONE',  ( -2.943127901426983300, 11.62424020210758800, -8.577619105426975900 ) ) ;
#608 = CARTESIAN_POINT ( 'NONE',  ( -3.691851537154696900, 11.70000000000000300, -8.145343312790945600 ) ) ;
#609 = CARTESIAN_POINT ( 'NONE',  ( -8.900000000000000400, 2.894476325264462100, 5.138417395787668900 ) ) ;
#610 = CARTESIAN_POINT ( 'NONE',  ( -5.207007869874384900, 11.68121115350211900, -7.270567396230867500 ) ) ;
#611 = CARTESIAN_POINT ( 'NONE',  ( 8.899999999999998600, 3.048738719141915500, 4.284041060466383200 ) ) ;
#612 = CARTESIAN_POINT ( 'NONE',  ( 2.966666666666664600, 3.346206291576635700, -8.564028992979453700 ) ) ;
#613 = CARTESIAN_POINT ( 'NONE',  ( -0.7279613450668314100, 11.14773784414368100, -9.856546113041362700 ) ) ;
#614 = DIRECTION ( 'NONE',  ( -0.0000000000000000000, 1.000000000000000000, -0.0000000000000000000 ) ) ;
#615 = CARTESIAN_POINT ( 'NONE',  ( 7.521410443860081000E-016, 2.894476325264459400, -10.27683479157534100 ) ) ;
#616 = CARTESIAN_POINT ( 'NONE',  ( 8.899999999999998600, 10.90508406245433000, -5.138417395787674200 ) ) ;
#617 = CARTESIAN_POINT ( 'NONE',  ( 8.900000000000000400, 3.391666666666664800, 0.8581435863220588900 ) ) ;
#618 = CARTESIAN_POINT ( 'NONE',  ( 7.378496964862804100E-016, 11.69999999999999900, -6.025000000000001200 ) ) ;
#619 = DIRECTION ( 'NONE',  ( 0.0000000000000000000, 0.0000000000000000000, 1.000000000000000000 ) ) ;
#620 = CARTESIAN_POINT ( 'NONE',  ( 8.899999999999998600, 3.346029292835821100, 1.715331155869122900 ) ) ;
#621 = CARTESIAN_POINT ( 'NONE',  ( 8.899999999999998600, 10.90508406245433200, 5.138417395787668900 ) ) ;
#622 = CARTESIAN_POINT ( 'NONE',  ( -1.483333333333332100, 3.174661593472483600, -9.420431892277399300 ) ) ;
#623 = DIRECTION ( 'NONE',  ( 0.0000000000000000000, -0.5000000000000011100, -0.8660254037844379300 ) ) ;
#624 = CARTESIAN_POINT ( 'NONE',  ( -0.7416666666666654800, 3.049104626526588200, -9.848633341926369400 ) ) ;
#625 = CARTESIAN_POINT ( 'NONE',  ( -4.450000000000002000, 11.69999999999999900, -7.707626093681510000 ) ) ;
#626 = CARTESIAN_POINT ( 'NONE',  ( -4.450000000000002000, 11.69999999999999900, -7.707626093681510000 ) ) ;
#627 = CARTESIAN_POINT ( 'NONE',  ( -2.966666666666664600, 3.346206291576637100, -8.564028992979455500 ) ) ;
#628 = CARTESIAN_POINT ( 'NONE',  ( 12.19999999999999900, -9.403954806578300100E-035, 1.494069094959771300E-015 ) ) ;
#629 = CARTESIAN_POINT ( 'NONE',  ( 8.158333333333331400, 3.049104626526588600, -5.566618845436649600 ) ) ;
#630 = CARTESIAN_POINT ( 'NONE',  ( 4.449999999999996600, 3.437127041756692100, -7.707626093681510000 ) ) ;
#631 = CARTESIAN_POINT ( 'NONE',  ( 8.899999999999996800, 3.174344051295959500, 3.428021847007988400 ) ) ;
#632 = CARTESIAN_POINT ( 'NONE',  ( 1.983795164398801700E-016, 10.90508406245432800, -10.27683479157534100 ) ) ;
#633 = CARTESIAN_POINT ( 'NONE',  ( -8.900000000000002100, 3.048738719141916000, 4.284041060466380600 ) ) ;
#634 = CARTESIAN_POINT ( 'NONE',  ( -8.900000000000000400, 3.391666666666667900, 1.090005626123814100E-015 ) ) ;
#635 = CARTESIAN_POINT ( 'NONE',  ( 7.416666666666665200, 3.174661593472482200, -5.994820295085619800 ) ) ;
#636 = CARTESIAN_POINT ( 'NONE',  ( -4.827656941478067200, 11.70000000000000500, -7.489585756857817200 ) ) ;
#637 = CARTESIAN_POINT ( 'NONE',  ( -8.900000000000002100, 3.346029292835822800, 1.715331155869124700 ) ) ;
#638 = CARTESIAN_POINT ( 'NONE',  ( 1.483333333333333800, 3.174661593472482700, -9.420431892277401100 ) ) ;
#639 = CARTESIAN_POINT ( 'NONE',  ( -4.450000000000002000, 11.69999999999999900, 7.707626093681504600 ) ) ;
#640 = CARTESIAN_POINT ( 'NONE',  ( 12.19999999999999600, 2.200000000000000200, 0.0000000000000000000 ) ) ;
#641 = CARTESIAN_POINT ( 'NONE',  ( -8.900000000000000400, 11.69999999999999900, 0.0000000000000000000 ) ) ;
#642 = CARTESIAN_POINT ( 'NONE',  ( -5.957443100128943000, 11.60850045179536800, -6.837303414034019000 ) ) ;
#643 = CARTESIAN_POINT ( 'NONE',  ( 0.0000000000000000000, 11.69999999999999900, 6.025000000000001200 ) ) ;
#644 = CARTESIAN_POINT ( 'NONE',  ( 0.0000000000000000000, 11.69999999999999900, 5.099999999999997900 ) ) ;
#645 = CARTESIAN_POINT ( 'NONE',  ( 0.0000000000000000000, 11.69999999999999900, 0.0000000000000000000 ) ) ;
#646 = CARTESIAN_POINT ( 'NONE',  ( 0.0000000000000000000, 10.77500000000000000, 0.0000000000000000000 ) ) ;
#647 = DIRECTION ( 'NONE',  ( -1.000000000000000000, 3.624628615055124400E-020, 0.0000000000000000000 ) ) ;
#648 = DIRECTION ( 'NONE',  ( 0.0000000000000000000, 0.0000000000000000000, 1.000000000000000000 ) ) ;
#649 = CARTESIAN_POINT ( 'NONE',  ( -4.790919231474801800E-015, 10.90508406245433200, 10.27683479157533600 ) ) ;
#650 = CARTESIAN_POINT ( 'NONE',  ( 8.899999999999998600, 2.894476325264460300, 5.138417395787668900 ) ) ;
#651 = CARTESIAN_POINT ( 'NONE',  ( 8.158333333333331400, 3.049104626526589100, 5.566618845436641600 ) ) ;
#652 = CARTESIAN_POINT ( 'NONE',  ( 7.416666666666664300, 3.174661593472484900, 5.994820295085613500 ) ) ;
#653 = CARTESIAN_POINT ( 'NONE',  ( -5.109846096968521000E-015, 2.894476325264461200, 10.27683479157533600 ) ) ;
#654 = CARTESIAN_POINT ( 'NONE',  ( 1.053196247266723700E-015, 1.000000000000000000, 8.599999999999999600 ) ) ;
#655 = CARTESIAN_POINT ( 'NONE',  ( 0.7279613450668265300, 11.14773784414368600, 9.856546113041359200 ) ) ;
#656 = DIRECTION ( 'NONE',  ( 0.0000000000000000000, 1.000000000000000000, 0.0000000000000000000 ) ) ;
#657 = CARTESIAN_POINT ( 'NONE',  ( 8.899999999999998600, 11.69999999999999900, -5.138417395787674200 ) ) ;
#658 = DIRECTION ( 'NONE',  ( -0.0000000000000000000, -1.000000000000000000, -0.0000000000000000000 ) ) ;
#659 = CARTESIAN_POINT ( 'NONE',  ( 7.521410443860081000E-016, 11.69999999999999900, -10.27683479157534100 ) ) ;
#660 = DIRECTION ( 'NONE',  ( -0.0000000000000000000, -1.000000000000000000, -0.0000000000000000000 ) ) ;
#661 = CARTESIAN_POINT ( 'NONE',  ( -8.900000000000000400, 10.90508406245433000, -5.138417395787674200 ) ) ;
#662 = DIRECTION ( 'NONE',  ( 3.624628615055125000E-020, 1.000000000000000000, -0.0000000000000000000 ) ) ;
#663 = CARTESIAN_POINT ( 'NONE',  ( 2.943127901426978400, 11.62424020210759300, 8.577619105426968800 ) ) ;
#664 = CARTESIAN_POINT ( 'NONE',  ( 7.378496964862804100E-016, 11.69999999999999900, -6.025000000000001200 ) ) ;
#665 = CARTESIAN_POINT ( 'NONE',  ( 0.0000000000000000000, 1.000000000000000000, -8.599999999999999600 ) ) ;
#666 = CARTESIAN_POINT ( 'NONE',  ( -6.330150813454707800, 11.55464850037416200, -6.622120515416341400 ) ) ;
#667 = CARTESIAN_POINT ( 'NONE',  ( 12.19999999999999600, -4.422046910367252400E-019, 1.494069094959770900E-015 ) ) ;
#668 = CARTESIAN_POINT ( 'NONE',  ( -7.441654350841412600, 11.34694719835829000, -5.980393648900906600 ) ) ;
#669 = CARTESIAN_POINT ( 'NONE',  ( 4.449999999999996600, 11.69999999999999900, 7.707626093681503800 ) ) ;
#670 = DIRECTION ( 'NONE',  ( 3.624628615055125000E-020, 1.000000000000000000, -0.0000000000000000000 ) ) ;
#671 = DIRECTION ( 'NONE',  ( -0.0000000000000000000, -1.000000000000000000, -0.0000000000000000000 ) ) ;
#672 = DIRECTION ( 'NONE',  ( 0.0000000000000000000, 0.7071067811865462400, 0.7071067811865489100 ) ) ;
#673 = DIRECTION ( 'NONE',  ( 0.0000000000000000000, 1.000000000000000000, 0.0000000000000000000 ) ) ;
#674 = DIRECTION ( 'NONE',  ( -0.0000000000000000000, 1.000000000000000000, -0.0000000000000000000 ) ) ;
#675 = CARTESIAN_POINT ( 'NONE',  ( 5.933333333333332700, 3.346206291576638000, 6.851223194383558200 ) ) ;
#676 = DIRECTION ( 'NONE',  ( 0.0000000000000000000, 0.0000000000000000000, 1.000000000000000000 ) ) ;
#677 = CARTESIAN_POINT ( 'NONE',  ( 4.449999999999999300, 3.437127041756694400, 7.707626093681504600 ) ) ;
#678 = DIRECTION ( 'NONE',  ( 0.0000000000000000000, 0.0000000000000000000, 1.000000000000000000 ) ) ;
#679 = CARTESIAN_POINT ( 'NONE',  ( -8.173856329291897500, 11.14713195269057500, -5.557656639541344000 ) ) ;
#680 = DIRECTION ( 'NONE',  ( 0.0000000000000000000, 0.0000000000000000000, 1.000000000000000000 ) ) ;
#681 = DIRECTION ( 'NONE',  ( 0.0000000000000000000, 1.000000000000000000, 0.0000000000000000000 ) ) ;
#682 = CARTESIAN_POINT ( 'NONE',  ( -3.801396569324266100E-015, 4.422046910367252400E-019, 0.0000000000000000000 ) ) ;
#683 = CARTESIAN_POINT ( 'NONE',  ( 2.966666666666663700, 3.346206291576638800, 8.564028992979444900 ) ) ;
#684 = CARTESIAN_POINT ( 'NONE',  ( 1.461240103188871800, 11.34764854594973100, 9.433187424648563600 ) ) ;
#685 = CARTESIAN_POINT ( 'NONE',  ( 0.0000000000000000000, 11.69999999999999900, 0.0000000000000000000 ) ) ;
#686 = CARTESIAN_POINT ( 'NONE',  ( 0.0000000000000000000, 11.69999999999999900, 0.0000000000000000000 ) ) ;
#687 = CARTESIAN_POINT ( 'NONE',  ( 3.691851537154693400, 11.70000000000000600, 8.145343312790940300 ) ) ;
#688 = CARTESIAN_POINT ( 'NONE',  ( 1.483333333333331600, 3.174661593472485300, 9.420431892277390400 ) ) ;
#689 = CARTESIAN_POINT ( 'NONE',  ( 0.7416666666666632500, 3.049104626526590000, 9.848633341926360500 ) ) ;
#690 = CARTESIAN_POINT ( 'NONE',  ( 1.983795164398801700E-016, 10.90508406245432800, -10.27683479157534100 ) ) ;
#691 = CARTESIAN_POINT ( 'NONE',  ( -8.900000000000000400, 10.90508406245433200, 5.138417395787668900 ) ) ;
#692 = CARTESIAN_POINT ( 'NONE',  ( -8.900000000000000400, 11.69999999999999900, 5.138417395787668900 ) ) ;
#693 = CARTESIAN_POINT ( 'NONE',  ( 12.19999999999999600, 2.200000000000000200, 0.0000000000000000000 ) ) ;
#694 = DIRECTION ( 'NONE',  ( -0.0000000000000000000, -1.000000000000000000, -0.0000000000000000000 ) ) ;
#695 = CARTESIAN_POINT ( 'NONE',  ( -3.801396569324266100E-015, 4.422046910367252400E-019, 0.0000000000000000000 ) ) ;
#696 = DIRECTION ( 'NONE',  ( 3.624628615055125000E-020, 1.000000000000000000, -0.0000000000000000000 ) ) ;
#697 = DIRECTION ( 'NONE',  ( 3.624628615055125000E-020, 1.000000000000000000, -0.0000000000000000000 ) ) ;
#698 = DIRECTION ( 'NONE',  ( -1.000000000000000000, 3.624628615055124400E-020, 0.0000000000000000000 ) ) ;
#699 = CARTESIAN_POINT ( 'NONE',  ( 0.0000000000000000000, 1.000000000000000900, 0.0000000000000000000 ) ) ;
#700 = CARTESIAN_POINT ( 'NONE',  ( -8.900000000000000400, 11.69999999999999900, 0.0000000000000000000 ) ) ;
#701 = DIRECTION ( 'NONE',  ( 8.659560562354950100E-017, 0.7071067811865462400, -0.7071067811865489100 ) ) ;
#702 = CARTESIAN_POINT ( 'NONE',  ( -8.172038654933169600, 11.14773784414368800, 5.558706074321646500 ) ) ;
#703 = CARTESIAN_POINT ( 'NONE',  ( -8.900000000000000400, 10.90508406245433200, 5.138417395787668900 ) ) ;
#704 = DIRECTION ( 'NONE',  ( -0.0000000000000000000, 1.000000000000000000, -0.0000000000000000000 ) ) ;
#705 = CARTESIAN_POINT ( 'NONE',  ( -4.450000000000002000, 11.69999999999999900, 7.707626093681504600 ) ) ;
#706 = CARTESIAN_POINT ( 'NONE',  ( -8.900000000000000400, 10.90508406245433000, -5.138417395787674200 ) ) ;
#707 = CARTESIAN_POINT ( 'NONE',  ( 5.208148462845303900, 11.70000000000000300, -7.269908874572069900 ) ) ;
#708 = DIRECTION ( 'NONE',  ( -0.9405538996916955600, -0.3396444637775566900, 1.151846322682995800E-016 ) ) ;
#709 = CARTESIAN_POINT ( 'NONE',  ( -8.900000000000002100, 11.69999999999999800, 0.8690303569211366200 ) ) ;
#710 = CARTESIAN_POINT ( 'NONE',  ( -8.900000000000000400, 11.62325455394180200, 1.749785225985627500 ) ) ;
#711 = CARTESIAN_POINT ( 'NONE',  ( 7.438759896811124200, 11.34764854594973500, -5.982064762714447400 ) ) ;
#712 = CARTESIAN_POINT ( 'NONE',  ( 8.172038654933167800, 11.14773784414368400, -5.558706074321651000 ) ) ;
#713 = CARTESIAN_POINT ( 'NONE',  ( 8.899999999999998600, 10.90508406245433000, -5.138417395787674200 ) ) ;
#714 = DIRECTION ( 'NONE',  ( 0.9405538996916955600, -0.3396444637775566900, 0.0000000000000000000 ) ) ;
#715 = CARTESIAN_POINT ( 'NONE',  ( 4.450000000000001100, 11.69999999999999900, -7.707626093681507300 ) ) ;
#716 = CARTESIAN_POINT ( 'NONE',  ( -8.900000000000002100, 11.14639064698593000, -4.302506866568516700 ) ) ;
#717 = CARTESIAN_POINT ( 'NONE',  ( -8.900000000000000400, 11.69999999999999900, 0.0000000000000000000 ) ) ;
#718 = CARTESIAN_POINT ( 'NONE',  ( -7.438759896811124200, 11.34764854594973500, 5.982064762714443900 ) ) ;
#719 = CARTESIAN_POINT ( 'NONE',  ( 4.450000000000001100, 11.69999999999999900, -7.707626093681507300 ) ) ;
#720 = CARTESIAN_POINT ( 'NONE',  ( -5.208148462845303900, 11.70000000000000500, 7.269908874572066400 ) ) ;
#721 = CARTESIAN_POINT ( 'NONE',  ( 4.072343058521935800, 11.70000000000000100, -7.925666430505200900 ) ) ;
#722 = CARTESIAN_POINT ( 'NONE',  ( -5.956872098573018800, 11.62424020210758800, 6.837633081936034300 ) ) ;
#723 = CARTESIAN_POINT ( 'NONE',  ( -8.900000000000000400, 11.14494180680011800, 4.307525796196132200 ) ) ;
#724 = CARTESIAN_POINT ( 'NONE',  ( -8.900000000000000400, 11.69999999999999800, -0.8684903936797854200 ) ) ;
#725 = CARTESIAN_POINT ( 'NONE',  ( 3.692992130125616800, 11.68121115350212100, -8.144684791132148000 ) ) ;
#726 = CARTESIAN_POINT ( 'NONE',  ( -8.900000000000000400, 11.34466739032929400, 3.465810915729451700 ) ) ;
#727 = CARTESIAN_POINT ( 'NONE',  ( -8.900000000000000400, 11.62533614207486600, -1.731166990165996500 ) ) ;
#728 = CARTESIAN_POINT ( 'NONE',  ( -12.20000000000000300, 4.422046910367252400E-019, 0.0000000000000000000 ) ) ;
#729 = CARTESIAN_POINT ( 'NONE',  ( 2.942556899871056500, 11.60850045179537000, -8.577948773328994700 ) ) ;
#730 = CARTESIAN_POINT ( 'NONE',  ( -8.900000000000000400, 11.34870540974985800, -3.446607570256069700 ) ) ;
#731 = CARTESIAN_POINT ( 'NONE',  ( 1.458345649158589100, 11.34694719835829000, -9.434858538462112400 ) ) ;
#732 = CARTESIAN_POINT ( 'NONE',  ( -12.20000000000000300, 2.200000000000000200, 1.494069094959770900E-015 ) ) ;
#733 = CARTESIAN_POINT ( 'NONE',  ( 0.7261436707081058200, 11.14713195269057700, -9.857595547821675900 ) ) ;
#734 = DIRECTION ( 'NONE',  ( -0.0000000000000000000, -1.000000000000000000, -0.0000000000000000000 ) ) ;
#735 = CARTESIAN_POINT ( 'NONE',  ( 5.956872098573016100, 11.62424020210758600, -6.837633081936039600 ) ) ;
#736 = CARTESIAN_POINT ( 'NONE',  ( 2.569849186545295700, 11.55464850037416200, -8.793131671946676800 ) ) ;
#737 = CARTESIAN_POINT ( 'NONE',  ( -5.109846096968521000E-015, 2.894476325264461200, 10.27683479157533600 ) ) ;
#738 = DIRECTION ( 'NONE',  ( 0.0000000000000000000, 0.0000000000000000000, 1.000000000000000000 ) ) ;
#739 = CARTESIAN_POINT ( 'NONE',  ( 0.0000000000000000000, 10.77500000000000000, 0.0000000000000000000 ) ) ;
#740 = DIRECTION ( 'NONE',  ( 0.0000000000000000000, 0.0000000000000000000, -1.000000000000000000 ) ) ;
#741 = DIRECTION ( 'NONE',  ( -0.0000000000000000000, 1.000000000000000000, -0.0000000000000000000 ) ) ;
#742 = CARTESIAN_POINT ( 'NONE',  ( -8.900000000000000400, 3.391666666666667900, 1.090005626123814100E-015 ) ) ;
#743 = CARTESIAN_POINT ( 'NONE',  ( 0.0000000000000000000, 1.000000000000000000, 0.0000000000000000000 ) ) ;
#744 = CARTESIAN_POINT ( 'NONE',  ( -8.900000000000002100, 3.391666666666667100, -0.8556501798506464000 ) ) ;
#745 = CARTESIAN_POINT ( 'NONE',  ( -8.900000000000000400, 3.346277012386123000, -1.712251187219640400 ) ) ;
#746 = CARTESIAN_POINT ( 'NONE',  ( 4.827656941478065500, 11.70000000000000600, 7.489585756857812800 ) ) ;
#747 = CARTESIAN_POINT ( 'NONE',  ( -2.966666666666669900, 3.346206291576638800, 8.564028992979450200 ) ) ;
#748 = CARTESIAN_POINT ( 'NONE',  ( -8.900000000000000400, 11.69999999999999900, -5.138417395787674200 ) ) ;
#749 = CARTESIAN_POINT ( 'NONE',  ( -3.801316827494734500E-015, 2.200000000000000200, 0.0000000000000000000 ) ) ;
#750 = DIRECTION ( 'NONE',  ( 0.0000000000000000000, -1.000000000000000000, 0.0000000000000000000 ) ) ;
#751 = CARTESIAN_POINT ( 'NONE',  ( -8.900000000000000400, 3.048138286123339500, -4.287366535646197200 ) ) ;
#752 = DIRECTION ( 'NONE',  ( 0.0000000000000000000, -1.000000000000000000, 0.0000000000000000000 ) ) ;
#753 = DIRECTION ( 'NONE',  ( -0.0000000000000000000, -1.000000000000000000, -0.0000000000000000000 ) ) ;
#754 = CARTESIAN_POINT ( 'NONE',  ( 0.0000000000000000000, 1.000000000000000000, 0.0000000000000000000 ) ) ;
#755 = CARTESIAN_POINT ( 'NONE',  ( -4.450000000000004600, 3.437127041756695700, 7.707626093681504600 ) ) ;
#756 = CARTESIAN_POINT ( 'NONE',  ( 0.0000000000000000000, 11.69999999999999900, 0.0000000000000000000 ) ) ;
#757 = DIRECTION ( 'NONE',  ( 0.0000000000000000000, 1.000000000000000000, 0.0000000000000000000 ) ) ;
#758 = DIRECTION ( 'NONE',  ( 0.0000000000000000000, 0.0000000000000000000, 1.000000000000000000 ) ) ;
#759 = DIRECTION ( 'NONE',  ( 0.0000000000000000000, -1.000000000000000000, 0.0000000000000000000 ) ) ;
#760 = CARTESIAN_POINT ( 'NONE',  ( 6.245698675651498900E-016, 11.69999999999999900, -5.099999999999997900 ) ) ;
#761 = CARTESIAN_POINT ( 'NONE',  ( 4.449999999999996600, 11.69999999999999900, 7.707626093681503800 ) ) ;
#762 = DIRECTION ( 'NONE',  ( 0.0000000000000000000, 0.0000000000000000000, 1.000000000000000000 ) ) ;
#763 = DIRECTION ( 'NONE',  ( -0.0000000000000000000, 1.000000000000000000, -0.0000000000000000000 ) ) ;
#764 = CARTESIAN_POINT ( 'NONE',  ( 0.0000000000000000000, 0.0000000000000000000, 0.0000000000000000000 ) ) ;
#765 = CARTESIAN_POINT ( 'NONE',  ( -5.933333333333335300, 3.346206291576639300, 6.851223194383554600 ) ) ;
#766 = CARTESIAN_POINT ( 'NONE',  ( -0.7416666666666714700, 3.049104626526590000, 9.848633341926364100 ) ) ;
#767 = CARTESIAN_POINT ( 'NONE',  ( -5.109846096968521000E-015, 11.69999999999999900, 10.27683479157533600 ) ) ;
#768 = DIRECTION ( 'NONE',  ( 0.0000000000000000000, 0.0000000000000000000, -1.000000000000000000 ) ) ;
#769 = DIRECTION ( 'NONE',  ( 3.624628615055125000E-020, 1.000000000000000000, -0.0000000000000000000 ) ) ;
#770 = DIRECTION ( 'NONE',  ( 0.0000000000000000000, 0.0000000000000000000, -1.000000000000000000 ) ) ;
#771 = CARTESIAN_POINT ( 'NONE',  ( -8.900000000000000400, 2.894476325264461200, -5.138417395787674200 ) ) ;
#772 = CARTESIAN_POINT ( 'NONE',  ( -1.483333333333337600, 3.174661593472485300, 9.420431892277392200 ) ) ;
#773 = DIRECTION ( 'NONE',  ( -0.0000000000000000000, 1.000000000000000000, -0.0000000000000000000 ) ) ;
#774 = CARTESIAN_POINT ( 'NONE',  ( 0.0000000000000000000, 11.69999999999999900, 0.0000000000000000000 ) ) ;
#775 = DIRECTION ( 'NONE',  ( 0.0000000000000000000, -1.000000000000000000, 0.0000000000000000000 ) ) ;
#776 = DIRECTION ( 'NONE',  ( -1.000000000000000000, 0.0000000000000000000, 0.0000000000000000000 ) ) ;
#777 = DIRECTION ( 'NONE',  ( 0.0000000000000000000, 0.0000000000000000000, -1.000000000000000000 ) ) ;
#778 = CARTESIAN_POINT ( 'NONE',  ( -8.158333333333333200, 3.049104626526590000, 5.566618845436639900 ) ) ;
#779 = CARTESIAN_POINT ( 'NONE',  ( -8.900000000000000400, 3.174492321921998300, -3.427150111693294300 ) ) ;
#780 = CARTESIAN_POINT ( 'NONE',  ( -7.416666666666667000, 3.174661593472485300, 5.994820295085611800 ) ) ;
#781 = CARTESIAN_POINT ( 'NONE',  ( -8.900000000000000400, 2.894476325264462100, 5.138417395787668900 ) ) ;
#782 = CARTESIAN_POINT ( 'NONE',  ( 5.207007869874381400, 11.68121115350212400, 7.270567396230862100 ) ) ;
#783 = CARTESIAN_POINT ( 'NONE',  ( 8.899999999999998600, 10.90508406245433200, 5.138417395787668900 ) ) ;
#784 = CARTESIAN_POINT ( 'NONE',  ( 8.899999999999998600, 3.048138286123338600, -4.287366535646191900 ) ) ;
#785 = CARTESIAN_POINT ( 'NONE',  ( -2.942556899871060100, 11.60850045179537400, 8.577948773328996500 ) ) ;
#786 = CARTESIAN_POINT ( 'NONE',  ( -0.7261436707081084800, 11.14713195269057700, 9.857595547821668800 ) ) ;
#787 = DIRECTION ( 'NONE',  ( 0.0000000000000000000, 1.000000000000000000, 0.0000000000000000000 ) ) ;
#788 = CARTESIAN_POINT ( 'NONE',  ( 0.0000000000000000000, 0.0000000000000000000, 0.0000000000000000000 ) ) ;
#789 = CARTESIAN_POINT ( 'NONE',  ( 8.900000000000000400, 3.174492321921997400, -3.427150111693289400 ) ) ;
#790 = CARTESIAN_POINT ( 'NONE',  ( 8.899999999999998600, 11.69999999999999900, 0.0000000000000000000 ) ) ;
#791 = CARTESIAN_POINT ( 'NONE',  ( -3.692992130125618100, 11.68121115350211900, 8.144684791132146300 ) ) ;
#792 = CARTESIAN_POINT ( 'NONE',  ( 8.899999999999998600, 3.391666666666665700, -0.8556501798506464000 ) ) ;
#793 = CARTESIAN_POINT ( 'NONE',  ( 0.0000000000000000000, 0.0000000000000000000, 0.0000000000000000000 ) ) ;
#794 = CARTESIAN_POINT ( 'NONE',  ( 7.441654350841412600, 11.34694719835829500, 5.980393648900900400 ) ) ;
#795 = CARTESIAN_POINT ( 'NONE',  ( 8.899999999999996800, 3.346277012386121200, -1.712251187219636000 ) ) ;
#796 = CARTESIAN_POINT ( 'NONE',  ( 0.0000000000000000000, 11.69999999999999900, 0.0000000000000000000 ) ) ;
#797 = CARTESIAN_POINT ( 'NONE',  ( 0.0000000000000000000, 1.000000000000000900, 0.0000000000000000000 ) ) ;
#798 = DIRECTION ( 'NONE',  ( 0.0000000000000000000, -1.000000000000000000, 0.0000000000000000000 ) ) ;
#799 = CARTESIAN_POINT ( 'NONE',  ( 8.173856329291894000, 11.14713195269058400, 5.557656639541338700 ) ) ;
#800 = CARTESIAN_POINT ( 'NONE',  ( 8.899999999999998600, 11.69999999999999800, 0.8690303569211353900 ) ) ;
#801 = CARTESIAN_POINT ( 'NONE',  ( 8.899999999999998600, 11.69999999999999900, 0.0000000000000000000 ) ) ;
#802 = CARTESIAN_POINT ( 'NONE',  ( -2.569849186545298400, 11.55464850037416400, 8.793131671946673200 ) ) ;
#803 = DIRECTION ( 'NONE',  ( 0.0000000000000000000, 1.000000000000000000, 0.0000000000000000000 ) ) ;
#804 = CARTESIAN_POINT ( 'NONE',  ( 8.899999999999998600, 11.34466739032929700, 3.465810915729452100 ) ) ;
#805 = CARTESIAN_POINT ( 'NONE',  ( -4.450000000000002000, 11.69999999999999900, 7.707626093681504600 ) ) ;
#806 = CARTESIAN_POINT ( 'NONE',  ( -1.458345649158592400, 11.34694719835829200, 9.434858538462107100 ) ) ;
#807 = CARTESIAN_POINT ( 'NONE',  ( 8.899999999999996800, 11.62325455394179500, 1.749785225985625700 ) ) ;
#808 = DIRECTION ( 'NONE',  ( 0.0000000000000000000, 0.0000000000000000000, -1.000000000000000000 ) ) ;
#809 = CARTESIAN_POINT ( 'NONE',  ( 8.899999999999998600, 10.90508406245433200, 5.138417395787668900 ) ) ;
#810 = CARTESIAN_POINT ( 'NONE',  ( 8.899999999999998600, 2.894476325264459400, -5.138417395787674200 ) ) ;
#811 = CARTESIAN_POINT ( 'NONE',  ( 5.957443100128941200, 11.60850045179537200, 6.837303414034015400 ) ) ;
#812 = CARTESIAN_POINT ( 'NONE',  ( -4.790919231474801800E-015, 10.90508406245433200, 10.27683479157533600 ) ) ;
#813 = DIRECTION ( 'NONE',  ( 0.0000000000000000000, -1.000000000000000000, 0.0000000000000000000 ) ) ;
#814 = DIRECTION ( 'NONE',  ( 0.0000000000000000000, 0.0000000000000000000, -1.000000000000000000 ) ) ;
#815 = CARTESIAN_POINT ( 'NONE',  ( 8.899999999999998600, 3.391666666666666200, 6.997491578833289500E-020 ) ) ;
#816 = CARTESIAN_POINT ( 'NONE',  ( 6.330150813454704200, 11.55464850037416700, 6.622120515416336900 ) ) ;
#817 = DIRECTION ( 'NONE',  ( -0.0000000000000000000, -1.000000000000000000, -0.0000000000000000000 ) ) ;
#818 = CARTESIAN_POINT ( 'NONE',  ( 8.899999999999998600, 11.69999999999999900, 5.138417395787668900 ) ) ;
#819 = DIRECTION ( 'NONE',  ( 0.0000000000000000000, 0.0000000000000000000, 1.000000000000000000 ) ) ;
#820 = DIRECTION ( 'NONE',  ( 0.0000000000000000000, 0.0000000000000000000, 1.000000000000000000 ) ) ;
#821 = DIRECTION ( 'NONE',  ( -0.0000000000000000000, -1.000000000000000000, -0.0000000000000000000 ) ) ;
#822 = DIRECTION ( 'NONE',  ( -0.0000000000000000000, 1.000000000000000000, -0.0000000000000000000 ) ) ;
#823 = CARTESIAN_POINT ( 'NONE',  ( 0.0000000000000000000, 11.69999999999999900, 0.0000000000000000000 ) ) ;
#824 = CARTESIAN_POINT ( 'NONE',  ( 0.0000000000000000000, 11.69999999999999900, 0.0000000000000000000 ) ) ;
#825 = DIRECTION ( 'NONE',  ( 0.0000000000000000000, 0.0000000000000000000, 1.000000000000000000 ) ) ;
#826 = CARTESIAN_POINT ( 'NONE',  ( 8.900000000000000400, 11.14494180680011900, 4.307525796196132200 ) ) ;
#827 = CARTESIAN_POINT ( 'NONE',  ( -4.072343058521934900, 11.70000000000000300, 7.925666430505195600 ) ) ;
#828 =( LENGTH_UNIT ( ) NAMED_UNIT ( * ) SI_UNIT ( .MILLI., .METRE. ) );
#829 = DIRECTION ( 'NONE',  ( 3.624628615055125000E-020, 1.000000000000000000, -0.0000000000000000000 ) ) ;
#830 = CARTESIAN_POINT ( 'NONE',  ( 8.899999999999998600, 11.62533614207487000, -1.731166990165997200 ) ) ;
#831 = DIRECTION ( 'NONE',  ( 0.0000000000000000000, 0.0000000000000000000, 1.000000000000000000 ) ) ;
#832 = DIRECTION ( 'NONE',  ( 0.0000000000000000000, 1.000000000000000000, 0.0000000000000000000 ) ) ;
#833 =( NAMED_UNIT ( * ) PLANE_ANGLE_UNIT ( ) SI_UNIT ( $, .RADIAN. ) );
#834 =( NAMED_UNIT ( * ) SI_UNIT ( $, .STERADIAN. ) SOLID_ANGLE_UNIT ( ) );
#835 = DIRECTION ( 'NONE',  ( -1.000000000000000000, 0.0000000000000000000, 0.0000000000000000000 ) ) ;
#836 = CARTESIAN_POINT ( 'NONE',  ( 0.0000000000000000000, 11.69999999999999900, 0.0000000000000000000 ) ) ;
#837 = CARTESIAN_POINT ( 'NONE',  ( 8.899999999999996800, 11.34870540974985400, -3.446607570256068300 ) ) ;
#838 = CARTESIAN_POINT ( 'NONE',  ( 8.899999999999998600, 10.90508406245433000, -5.138417395787674200 ) ) ;
#839 = DIRECTION ( 'NONE',  ( 0.0000000000000000000, 0.0000000000000000000, 1.000000000000000000 ) ) ;
#840 = CARTESIAN_POINT ( 'NONE',  ( 8.899999999999998600, 11.14639064698593200, -4.302506866568512200 ) ) ;
#841 = CARTESIAN_POINT ( 'NONE',  ( 8.900000000000000400, 11.69999999999999600, -0.8684903936797858700 ) ) ;
#842 = CARTESIAN_POINT ( 'NONE',  ( -3.801316827494734500E-015, 2.200000000000000200, 0.0000000000000000000 ) ) ;
#843 = CIRCLE ( 'NONE', #448, 8.599999999999999600 ) ;
#844 = CIRCLE ( 'NONE', #443, 8.899999999999998600 ) ;
#845 = CIRCLE ( 'NONE', #430, 8.899999999999998600 ) ;
#846 = CIRCLE ( 'NONE', #423, 5.099999999999998800 ) ;
#847 = CIRCLE ( 'NONE', #414, 8.599999999999999600 ) ;
#848 = VECTOR ( 'NONE', #817, 1000.000000000000000 ) ;
#849 = CIRCLE ( 'NONE', #431, 8.599999999999999600 ) ;
#850 = LINE ( 'NONE', #767, #848 ) ;
#851 = PRODUCT ( 'ALP0825', 'ALP0825', '', ( #473 ) ) ;
#852 = PERSON ( 'UNSPECIFIED', 'UNSPECIFIED', 'UNSPECIFIED', ('UNSPECIFIED'), ('UNSPECIFIED'), ('UNSPECIFIED') ) ;
#853 = CALENDAR_DATE ( 2017, 6, 2 ) ;
#854 = COORDINATED_UNIVERSAL_TIME_OFFSET ( 1, 0, .AHEAD. ) ;
#855 = PERSON_AND_ORGANIZATION ( #852, #879 ) ;
#856 = DATE_AND_TIME ( #875, #877 ) ;
#857 = APPROVAL_PERSON_ORGANIZATION ( #876, #447, #471 ) ;
#858 = PERSON_AND_ORGANIZATION ( #852, #879 ) ;
#859 = CIRCLE ( 'NONE', #455, 12.19999999999999900 ) ;
#860 = APPROVAL_PERSON_ORGANIZATION ( #858, #435, #467 ) ;
#861 = CALENDAR_DATE ( 2017, 6, 2 ) ;
#862 = DATE_AND_TIME ( #880, #872 ) ;
#863 = APPROVAL_DATE_TIME ( #856, #435 ) ;
#864 = LOCAL_TIME ( 18, 23, 44.00000000000000000, #854 ) ;
#865 = LOCAL_TIME ( 18, 23, 44.00000000000000000, #867 ) ;
#866 = COORDINATED_UNIVERSAL_TIME_OFFSET ( 1, 0, .AHEAD. ) ;
#867 = COORDINATED_UNIVERSAL_TIME_OFFSET ( 1, 0, .AHEAD. ) ;
#868 = COORDINATED_UNIVERSAL_TIME_OFFSET ( 1, 0, .AHEAD. ) ;
#869 = LOCAL_TIME ( 18, 23, 44.00000000000000000, #866 ) ;
#870 = DATE_AND_TIME ( #853, #869 ) ;
#871 = SHAPE_DEFINITION_REPRESENTATION ( #126, #155 ) ;
#872 = LOCAL_TIME ( 18, 23, 44.00000000000000000, #868 ) ;
#873 = APPROVAL_DATE_TIME ( #870, #440 ) ;
#874 = DATE_AND_TIME ( #861, #864 ) ;
#875 = CALENDAR_DATE ( 2017, 6, 2 ) ;
#876 = PERSON_AND_ORGANIZATION ( #852, #879 ) ;
#877 = LOCAL_TIME ( 18, 23, 44.00000000000000000, #10 ) ;
#878 = APPROVAL_DATE_TIME ( #874, #447 ) ;
#879 = ORGANIZATION ( 'UNSPECIFIED', 'UNSPECIFIED', '' ) ;
#880 = CALENDAR_DATE ( 2017, 6, 2 ) ;
ENDSEC;
END-ISO-10303-21;
