ISO-10303-21;
HEADER;
FILE_DESCRIPTION (( 'STEP AP214' ),
    '1' );
FILE_NAME ('ALP0408.STEP',
    '2018-11-23T13:29:18',
    ( '' ),
    ( '' ),
    'SwSTEP 2.0',
    'SolidWorks 2016',
    '' );
FILE_SCHEMA (( 'AUTOMOTIVE_DESIGN' ));
ENDSEC;

DATA;
#1 = DIRECTION ( 'NONE',  ( 0.0000000000000000000, 0.0000000000000000000, 1.000000000000000000 ) ) ;
#2 = FACE_OUTER_BOUND ( 'NONE', #534, .T. ) ;
#3 =( NAMED_UNIT ( * ) PLANE_ANGLE_UNIT ( ) SI_UNIT ( $, .RADIAN. ) );
#4 = ORIENTED_EDGE ( 'NONE', *, *, #558, .F. ) ;
#5 = AXIS2_PLACEMENT_3D ( 'NONE', #204, #44, #411 ) ;
#6 = EDGE_CURVE ( 'NONE', #666, #421, #371, .T. ) ;
#7 = CARTESIAN_POINT ( 'NONE',  ( 6.000000000000000000, 0.0000000000000000000, -3.250000000000000000 ) ) ;
#8 = MANIFOLD_SOLID_BREP ( 'Chamfer1', #182 ) ;
#9 = EDGE_CURVE ( 'NONE', #323, #199, #432, .T. ) ;
#10 = EDGE_LOOP ( 'NONE', ( #190, #290, #520, #33, #331, #556, #649, #460 ) ) ;
#11 =( LENGTH_UNIT ( ) NAMED_UNIT ( * ) SI_UNIT ( .MILLI., .METRE. ) );
#12 = PRODUCT_CONTEXT ( 'NONE', #109, 'mechanical' ) ;
#13 = EDGE_LOOP ( 'NONE', ( #307, #357, #49, #343, #165, #298 ) ) ;
#14 = EDGE_LOOP ( 'NONE', ( #69, #422, #532, #679, #509, #386, #184, #356 ) ) ;
#15 = CARTESIAN_POINT ( 'NONE',  ( 0.0000000000000000000, -0.5999999999999999800, 3.194135250736887900 ) ) ;
#16 = EDGE_CURVE ( 'NONE', #55, #450, #624, .T. ) ;
#17 = DIRECTION ( 'NONE',  ( 0.0000000000000000000, 0.0000000000000000000, -1.000000000000000000 ) ) ;
#18 = DIRECTION ( 'NONE',  ( 1.000000000000000000, -0.0000000000000000000, -0.0000000000000000000 ) ) ;
#19 = DIRECTION ( 'NONE',  ( 0.7071067811865462400, 0.0000000000000000000, -0.7071067811865489100 ) ) ;
#20 = CARTESIAN_POINT ( 'NONE',  ( 6.000000000000000000, 0.5999999999999999800, 7.300171619476715000 ) ) ;
#21 = VECTOR ( 'NONE', #669, 1000.000000000000000 ) ;
#22 = CARTESIAN_POINT ( 'NONE',  ( 0.0000000000000000000, 0.0000000000000000000, -2.449999999999998400 ) ) ;
#23 = ORIENTED_EDGE ( 'NONE', *, *, #119, .T. ) ;
#24 = DIRECTION ( 'NONE',  ( 0.0000000000000000000, 0.0000000000000000000, 1.000000000000000000 ) ) ;
#25 = CARTESIAN_POINT ( 'NONE',  ( 7.000000000000000000, -0.5999999999999999800, -3.194135250736887900 ) ) ;
#26 = CARTESIAN_POINT ( 'NONE',  ( 0.0000000000000000000, 0.0000000000000000000, 0.0000000000000000000 ) ) ;
#27 = FACE_OUTER_BOUND ( 'NONE', #334, .T. ) ;
#28 = AXIS2_PLACEMENT_3D ( 'NONE', #35, #146, #569 ) ;
#29 = EDGE_CURVE ( 'NONE', #601, #640, #407, .T. ) ;
#30 = SURFACE_STYLE_FILL_AREA ( #289 ) ;
#31 = B_SPLINE_CURVE_WITH_KNOTS ( 'NONE', 3,
 ( #519, #152, #629, #40 ),
 .UNSPECIFIED., .F., .F.,
 ( 4, 4 ),
 ( 0.005602318594064002200, 0.007034751825629235700 ),
 .UNSPECIFIED. ) ;
#32 = ORIENTED_EDGE ( 'NONE', *, *, #644, .T. ) ;
#33 = ORIENTED_EDGE ( 'NONE', *, *, #467, .F. ) ;
#34 = PRODUCT_DEFINITION_FORMATION_WITH_SPECIFIED_SOURCE ( 'ANY', '', #163, .NOT_KNOWN. ) ;
#35 = CARTESIAN_POINT ( 'NONE',  ( 6.000000000000000000, 0.5999999999999999800, 7.300171619476715000 ) ) ;
#36 = CARTESIAN_POINT ( 'NONE',  ( 8.000000000000000000, -0.5999999999999999800, -2.168524844220144100 ) ) ;
#37 = SURFACE_STYLE_USAGE ( .BOTH. , #414 ) ;
#38 = CARTESIAN_POINT ( 'NONE',  ( 0.0000000000000000000, 0.0000000000000000000, 2.024999999999999900 ) ) ;
#39 = FILL_AREA_STYLE ('',( #458 ) ) ;
#40 = CARTESIAN_POINT ( 'NONE',  ( 8.000000000000000000, -0.5999999999999999800, 2.168524844220144100 ) ) ;
#41 = EDGE_CURVE ( 'NONE', #71, #441, #475, .T. ) ;
#42 = PLANE ( 'NONE',  #288 ) ;
#43 = CIRCLE ( 'NONE', #227, 3.250000000000000000 ) ;
#44 = DIRECTION ( 'NONE',  ( 1.000000000000000000, -0.0000000000000000000, -0.0000000000000000000 ) ) ;
#45 = DIRECTION ( 'NONE',  ( -1.000000000000000000, 0.0000000000000000000, 0.0000000000000000000 ) ) ;
#46 = CONICAL_SURFACE ( 'NONE', #166, 2.024999999999999900, 0.7853981633974473900 ) ;
#47 = EDGE_CURVE ( 'NONE', #263, #237, #599, .T. ) ;
#48 = PRESENTATION_STYLE_ASSIGNMENT (( #489 ) ) ;
#49 = ORIENTED_EDGE ( 'NONE', *, *, #168, .T. ) ;
#50 = CARTESIAN_POINT ( 'NONE',  ( 0.0000000000000000000, 0.0000000000000000000, 0.0000000000000000000 ) ) ;
#51 = B_SPLINE_CURVE_WITH_KNOTS ( 'NONE', 3,
 ( #635, #585, #149, #104 ),
 .UNSPECIFIED., .F., .F.,
 ( 4, 4 ),
 ( 0.01256329621998694700, 0.01399776547201874600 ),
 .UNSPECIFIED. ) ;
#52 =( LENGTH_UNIT ( ) NAMED_UNIT ( * ) SI_UNIT ( .MILLI., .METRE. ) );
#53 = CIRCLE ( 'NONE', #63, 1.649999999999997700 ) ;
#54 = ORIENTED_EDGE ( 'NONE', *, *, #581, .F. ) ;
#55 = VERTEX_POINT ( 'NONE', #504 ) ;
#56 = ADVANCED_FACE ( 'NONE', ( #657 ), #249, .T. ) ;
#57 = DIRECTION ( 'NONE',  ( 0.0000000000000000000, 0.0000000000000000000, 1.000000000000000000 ) ) ;
#58 = CARTESIAN_POINT ( 'NONE',  ( 7.000000000000000000, -0.5999999999999999800, 3.194135250736887900 ) ) ;
#59 = ADVANCED_BREP_SHAPE_REPRESENTATION ( 'ALP0408', ( #8, #400 ), #695 ) ;
#60 =( NAMED_UNIT ( * ) PLANE_ANGLE_UNIT ( ) SI_UNIT ( $, .RADIAN. ) );
#61 = FACE_OUTER_BOUND ( 'NONE', #118, .T. ) ;
#62 = CARTESIAN_POINT ( 'NONE',  ( 0.0000000000000000000, 0.0000000000000000000, 0.0000000000000000000 ) ) ;
#63 = AXIS2_PLACEMENT_3D ( 'NONE', #89, #457, #510 ) ;
#64 = DIRECTION ( 'NONE',  ( 1.000000000000000000, -0.0000000000000000000, -0.0000000000000000000 ) ) ;
#65 = COLOUR_RGB ( '',1.000000000000000000, 0.9490196078431372100, 0.9098039215686274400 ) ;
#66 = CARTESIAN_POINT ( 'NONE',  ( 0.0000000000000000000, 0.5999999999999999800, 3.194135250736887900 ) ) ;
#67 = CIRCLE ( 'NONE', #501, 3.250000000000000000 ) ;
#68 = ORIENTED_EDGE ( 'NONE', *, *, #700, .T. ) ;
#69 = ORIENTED_EDGE ( 'NONE', *, *, #259, .F. ) ;
#70 = ADVANCED_FACE ( 'NONE', ( #440 ), #691, .F. ) ;
#71 = VERTEX_POINT ( 'NONE', #612 ) ;
#72 = DIRECTION ( 'NONE',  ( 0.0000000000000000000, -0.0000000000000000000, 1.000000000000000000 ) ) ;
#73 = MECHANICAL_DESIGN_GEOMETRIC_PRESENTATION_REPRESENTATION (  '', ( #560 ), #448 ) ;
#74 = DIRECTION ( 'NONE',  ( -0.7071067811865482400, 0.0000000000000000000, 0.7071067811865469100 ) ) ;
#75 = DIRECTION ( 'NONE',  ( -1.000000000000000000, -0.0000000000000000000, -0.0000000000000000000 ) ) ;
#76 = DIRECTION ( 'NONE',  ( 0.0000000000000000000, 0.0000000000000000000, -1.000000000000000000 ) ) ;
#77 = VECTOR ( 'NONE', #362, 1000.000000000000000 ) ;
#78 = CARTESIAN_POINT ( 'NONE',  ( 0.7999999999999986000, 0.0000000000000000000, 0.0000000000000000000 ) ) ;
#79 = LINE ( 'NONE', #329, #428 ) ;
#80 = AXIS2_PLACEMENT_3D ( 'NONE', #111, #246, #76 ) ;
#81 = EDGE_CURVE ( 'NONE', #55, #640, #53, .T. ) ;
#82 = DIRECTION ( 'NONE',  ( 1.000000000000000000, 0.0000000000000000000, -0.0000000000000000000 ) ) ;
#83 = DIRECTION ( 'NONE',  ( -0.0000000000000000000, -0.0000000000000000000, 1.000000000000000000 ) ) ;
#84 = LINE ( 'NONE', #264, #493 ) ;
#85 = DIRECTION ( 'NONE',  ( -1.000000000000000000, -0.0000000000000000000, -0.0000000000000000000 ) ) ;
#86 = AXIS2_PLACEMENT_3D ( 'NONE', #193, #553, #137 ) ;
#87 = DIRECTION ( 'NONE',  ( 0.0000000000000000000, 7.105427357601001900E-015, 1.000000000000000000 ) ) ;
#88 = AXIS2_PLACEMENT_3D ( 'NONE', #690, #85, #445 ) ;
#89 = CARTESIAN_POINT ( 'NONE',  ( 8.000000000000000000, 0.0000000000000000000, 0.0000000000000000000 ) ) ;
#90 = DIRECTION ( 'NONE',  ( 1.000000000000000000, -0.0000000000000000000, -0.0000000000000000000 ) ) ;
#91 = LINE ( 'NONE', #318, #384 ) ;
#92 = ORIENTED_EDGE ( 'NONE', *, *, #168, .F. ) ;
#93 = ORIENTED_EDGE ( 'NONE', *, *, #233, .T. ) ;
#94 = CARTESIAN_POINT ( 'NONE',  ( 6.000000000000000000, 0.0000000000000000000, 0.0000000000000000000 ) ) ;
#95 = DIRECTION ( 'NONE',  ( 0.0000000000000000000, 0.0000000000000000000, 1.000000000000000000 ) ) ;
#96 = CARTESIAN_POINT ( 'NONE',  ( 0.0000000000000000000, 0.0000000000000000000, 0.0000000000000000000 ) ) ;
#97 = FACE_BOUND ( 'NONE', #210, .T. ) ;
#98 = CIRCLE ( 'NONE', #100, 2.249999999999999600 ) ;
#99 = DIRECTION ( 'NONE',  ( -1.000000000000000000, -0.0000000000000000000, -0.0000000000000000000 ) ) ;
#100 = AXIS2_PLACEMENT_3D ( 'NONE', #511, #459, #456 ) ;
#101 = VECTOR ( 'NONE', #17, 1000.000000000000000 ) ;
#102 = ORIENTED_EDGE ( 'NONE', *, *, #555, .F. ) ;
#103 = ORIENTED_EDGE ( 'NONE', *, *, #158, .F. ) ;
#104 = CARTESIAN_POINT ( 'NONE',  ( 7.000000000000000000, 0.5999999999999999800, 3.194135250736887900 ) ) ;
#105 = AXIS2_PLACEMENT_3D ( 'NONE', #96, #202, #506 ) ;
#106 = DIRECTION ( 'NONE',  ( 1.000000000000000000, -0.0000000000000000000, -0.0000000000000000000 ) ) ;
#107 = SHAPE_DEFINITION_REPRESENTATION ( #295, #59 ) ;
#108 = DIRECTION ( 'NONE',  ( 0.0000000000000000000, 0.0000000000000000000, -1.000000000000000000 ) ) ;
#109 = APPLICATION_CONTEXT ( 'automotive_design' ) ;
#110 = ORIENTED_EDGE ( 'NONE', *, *, #589, .T. ) ;
#111 = CARTESIAN_POINT ( 'NONE',  ( 6.000000000000000000, -0.5999999999999999800, 7.300171619476715000 ) ) ;
#112 = LINE ( 'NONE', #393, #701 ) ;
#113 = FACE_OUTER_BOUND ( 'NONE', #344, .T. ) ;
#114 = DIRECTION ( 'NONE',  ( 0.0000000000000000000, 2.664535259100375700E-015, 1.000000000000000000 ) ) ;
#115 = UNCERTAINTY_MEASURE_WITH_UNIT (LENGTH_MEASURE( 1.000000000000000100E-005 ), #11, 'distance_accuracy_value', 'NONE');
#116 = DIRECTION ( 'NONE',  ( -1.000000000000000000, -0.0000000000000000000, -0.0000000000000000000 ) ) ;
#117 = AXIS2_PLACEMENT_3D ( 'NONE', #447, #258, #253 ) ;
#118 = EDGE_LOOP ( 'NONE', ( #144, #453, #608, #442 ) ) ;
#119 = EDGE_CURVE ( 'NONE', #595, #667, #160, .T. ) ;
#120 = ORIENTED_EDGE ( 'NONE', *, *, #476, .T. ) ;
#121 = ADVANCED_FACE ( 'NONE', ( #704 ), #687, .F. ) ;
#122 = ORIENTED_EDGE ( 'NONE', *, *, #233, .F. ) ;
#123 =( NAMED_UNIT ( * ) SI_UNIT ( $, .STERADIAN. ) SOLID_ANGLE_UNIT ( ) );
#124 = ADVANCED_FACE ( 'NONE', ( #637 ), #571, .F. ) ;
#125 = CARTESIAN_POINT ( 'NONE',  ( 0.0000000000000000000, 0.5999999999999999800, -1.537042614893937600 ) ) ;
#126 = AXIS2_PLACEMENT_3D ( 'NONE', #417, #106, #159 ) ;
#127 = PRESENTATION_STYLE_ASSIGNMENT (( #479 ) ) ;
#128 = ORIENTED_EDGE ( 'NONE', *, *, #638, .T. ) ;
#129 = VERTEX_POINT ( 'NONE', #36 ) ;
#130 = CARTESIAN_POINT ( 'NONE',  ( 8.000000000000000000, 0.5999999999999999800, 2.168524844220144100 ) ) ;
#131 = ORIENTED_EDGE ( 'NONE', *, *, #405, .F. ) ;
#132 = EDGE_CURVE ( 'NONE', #435, #666, #205, .T. ) ;
#133 = ORIENTED_EDGE ( 'NONE', *, *, #597, .T. ) ;
#134 =( NAMED_UNIT ( * ) PLANE_ANGLE_UNIT ( ) SI_UNIT ( $, .RADIAN. ) );
#135 = CARTESIAN_POINT ( 'NONE',  ( 0.0000000000000000000, 2.479909768273389800E-016, -2.024999999999999900 ) ) ;
#136 = LINE ( 'NONE', #401, #559 ) ;
#137 = DIRECTION ( 'NONE',  ( 0.0000000000000000000, 3.552713678800500900E-015, 1.000000000000000000 ) ) ;
#138 = CARTESIAN_POINT ( 'NONE',  ( 7.668643139795226400, 0.5999999999999999800, -2.512331343577478600 ) ) ;
#139 = EDGE_LOOP ( 'NONE', ( #243, #609, #682, #275, #92 ) ) ;
#140 = DIRECTION ( 'NONE',  ( 1.000000000000000000, -0.0000000000000000000, -0.0000000000000000000 ) ) ;
#141 = AXIS2_PLACEMENT_3D ( 'NONE', #78, #18, #437 ) ;
#142 = AXIS2_PLACEMENT_3D ( 'NONE', #673, #303, #562 ) ;
#143 = ORIENTED_EDGE ( 'NONE', *, *, #638, .F. ) ;
#144 = ORIENTED_EDGE ( 'NONE', *, *, #381, .F. ) ;
#145 = VERTEX_POINT ( 'NONE', #38 ) ;
#146 = DIRECTION ( 'NONE',  ( 0.0000000000000000000, 1.000000000000000000, 0.0000000000000000000 ) ) ;
#147 = CARTESIAN_POINT ( 'NONE',  ( 6.000000000000000000, -0.5999999999999999800, -1.537042614893937600 ) ) ;
#148 = LINE ( 'NONE', #260, #77 ) ;
#149 = CARTESIAN_POINT ( 'NONE',  ( 7.334705440812096600, 0.5999999999999999800, 2.853575882629867200 ) ) ;
#150 = PRODUCT_RELATED_PRODUCT_CATEGORY ( 'part', '', ( #163 ) ) ;
#151 = SURFACE_STYLE_FILL_AREA ( #179 ) ;
#152 = CARTESIAN_POINT ( 'NONE',  ( 7.334688669596510600, -0.5999999999999999800, 2.853592947170462900 ) ) ;
#153 = EDGE_LOOP ( 'NONE', ( #206, #161, #377, #309, #403 ) ) ;
#154 = CARTESIAN_POINT ( 'NONE',  ( 0.0000000000000000000, 3.490243377569954600E-016, 2.449999999999998400 ) ) ;
#155 = CARTESIAN_POINT ( 'NONE',  ( 7.000000000000000000, 0.0000000000000000000, 0.0000000000000000000 ) ) ;
#156 = AXIS2_PLACEMENT_3D ( 'NONE', #26, #200, #261 ) ;
#157 = VECTOR ( 'NONE', #327, 1000.000000000000000 ) ;
#158 = EDGE_CURVE ( 'NONE', #339, #567, #91, .T. ) ;
#159 = DIRECTION ( 'NONE',  ( 0.0000000000000000000, 0.0000000000000000000, -1.000000000000000000 ) ) ;
#160 = CIRCLE ( 'NONE', #105, 2.449999999999998400 ) ;
#161 = ORIENTED_EDGE ( 'NONE', *, *, #644, .F. ) ;
#162 = ORIENTED_EDGE ( 'NONE', *, *, #6, .F. ) ;
#163 = PRODUCT ( 'ALP0408', 'ALP0408', '', ( #12 ) ) ;
#164 = CARTESIAN_POINT ( 'NONE',  ( 0.7999999999999986000, 0.0000000000000000000, 0.0000000000000000000 ) ) ;
#165 = ORIENTED_EDGE ( 'NONE', *, *, #374, .F. ) ;
#166 = AXIS2_PLACEMENT_3D ( 'NONE', #588, #471, #57 ) ;
#167 = SURFACE_SIDE_STYLE ('',( #505 ) ) ;
#168 = EDGE_CURVE ( 'NONE', #402, #237, #84, .T. ) ;
#169 =( LENGTH_UNIT ( ) NAMED_UNIT ( * ) SI_UNIT ( .MILLI., .METRE. ) );
#170 = FACE_OUTER_BOUND ( 'NONE', #577, .T. ) ;
#171 = EDGE_CURVE ( 'NONE', #55, #129, #354, .T. ) ;
#172 =( NAMED_UNIT ( * ) SI_UNIT ( $, .STERADIAN. ) SOLID_ANGLE_UNIT ( ) );
#173 = ORIENTED_EDGE ( 'NONE', *, *, #119, .F. ) ;
#174 = ADVANCED_FACE ( 'NONE', ( #254 ), #636, .T. ) ;
#175 = CARTESIAN_POINT ( 'NONE',  ( 6.000000000000000000, 0.5999999999999999800, 7.300171619476715000 ) ) ;
#176 = ADVANCED_FACE ( 'NONE', ( #314 ), #42, .T. ) ;
#177 = CYLINDRICAL_SURFACE ( 'NONE', #5, 3.250000000000000000 ) ;
#178 = ADVANCED_FACE ( 'NONE', ( #283 ), #46, .F. ) ;
#179 = FILL_AREA_STYLE ('',( #652 ) ) ;
#180 = AXIS2_PLACEMENT_3D ( 'NONE', #578, #369, #518 ) ;
#181 = ORIENTED_EDGE ( 'NONE', *, *, #412, .T. ) ;
#182 = CLOSED_SHELL ( 'NONE', ( #436, #536, #491, #174, #389, #56, #659, #392, #655, #176, #187, #178, #124, #238, #121, #429, #70, #340, #333 ) ) ;
#183 = EDGE_LOOP ( 'NONE', ( #528, #299, #627, #110 ) ) ;
#184 = ORIENTED_EDGE ( 'NONE', *, *, #406, .T. ) ;
#185 = DIRECTION ( 'NONE',  ( 1.000000000000000000, -0.0000000000000000000, -0.0000000000000000000 ) ) ;
#186 =( NAMED_UNIT ( * ) PLANE_ANGLE_UNIT ( ) SI_UNIT ( $, .RADIAN. ) );
#187 = ADVANCED_FACE ( 'NONE', ( #468 ), #222, .F. ) ;
#188 = FACE_OUTER_BOUND ( 'NONE', #408, .T. ) ;
#189 = CARTESIAN_POINT ( 'NONE',  ( 6.000000000000000000, 0.0000000000000000000, 0.0000000000000000000 ) ) ;
#190 = ORIENTED_EDGE ( 'NONE', *, *, #286, .F. ) ;
#191 = CARTESIAN_POINT ( 'NONE',  ( 6.000000000000000000, -0.5999999999999999800, 1.537042614893937600 ) ) ;
#192 = DIRECTION ( 'NONE',  ( 0.0000000000000000000, 0.0000000000000000000, 1.000000000000000000 ) ) ;
#193 = CARTESIAN_POINT ( 'NONE',  ( 6.000000000000000000, 0.0000000000000000000, 0.0000000000000000000 ) ) ;
#194 = EDGE_CURVE ( 'NONE', #402, #535, #483, .T. ) ;
#195 = VECTOR ( 'NONE', #45, 1000.000000000000000 ) ;
#196 = PRESENTATION_STYLE_ASSIGNMENT (( #231 ) ) ;
#197 = VERTEX_POINT ( 'NONE', #397 ) ;
#198 = EDGE_CURVE ( 'NONE', #262, #402, #617, .T. ) ;
#199 = VERTEX_POINT ( 'NONE', #434 ) ;
#200 = DIRECTION ( 'NONE',  ( -1.000000000000000000, -0.0000000000000000000, -0.0000000000000000000 ) ) ;
#201 = EDGE_CURVE ( 'NONE', #129, #223, #355, .T. ) ;
#202 = DIRECTION ( 'NONE',  ( -1.000000000000000000, 0.0000000000000000000, 0.0000000000000000000 ) ) ;
#203 = SURFACE_STYLE_FILL_AREA ( #214 ) ;
#204 = CARTESIAN_POINT ( 'NONE',  ( 0.0000000000000000000, 0.0000000000000000000, 0.0000000000000000000 ) ) ;
#205 = CIRCLE ( 'NONE', #618, 3.250000000000000000 ) ;
#206 = ORIENTED_EDGE ( 'NONE', *, *, #685, .T. ) ;
#207 = PRODUCT_DEFINITION_CONTEXT ( 'detailed design', #431, 'design' ) ;
#208 = DIRECTION ( 'NONE',  ( 0.0000000000000000000, -1.000000000000000000, -0.0000000000000000000 ) ) ;
#209 = DIRECTION ( 'NONE',  ( 0.0000000000000000000, 0.0000000000000000000, 1.000000000000000000 ) ) ;
#210 = EDGE_LOOP ( 'NONE', ( #625, #308 ) ) ;
#211 = DIRECTION ( 'NONE',  ( -0.0000000000000000000, -0.0000000000000000000, 1.000000000000000000 ) ) ;
#212 = DIRECTION ( 'NONE',  ( 0.0000000000000000000, 0.0000000000000000000, -1.000000000000000000 ) ) ;
#213 = CARTESIAN_POINT ( 'NONE',  ( 6.000000000000000000, 0.5999999999999999800, 3.194135250736887900 ) ) ;
#214 = FILL_AREA_STYLE ('',( #310 ) ) ;
#215 = AXIS2_PLACEMENT_3D ( 'NONE', #164, #590, #324 ) ;
#216 = FACE_OUTER_BOUND ( 'NONE', #527, .T. ) ;
#217 = COLOUR_RGB ( '',1.000000000000000000, 0.9490196078431372100, 0.9098039215686274400 ) ;
#218 =( NAMED_UNIT ( * ) SI_UNIT ( $, .STERADIAN. ) SOLID_ANGLE_UNIT ( ) );
#219 = ORIENTED_EDGE ( 'NONE', *, *, #444, .F. ) ;
#220 = PLANE ( 'NONE',  #80 ) ;
#221 = PRESENTATION_LAYER_ASSIGNMENT (  '', '', ( #568 ) ) ;
#222 = CYLINDRICAL_SURFACE ( 'NONE', #683, 1.649999999999998100 ) ;
#223 = VERTEX_POINT ( 'NONE', #497 ) ;
#224 = ORIENTED_EDGE ( 'NONE', *, *, #660, .T. ) ;
#225 = VERTEX_POINT ( 'NONE', #548 ) ;
#226 = DIRECTION ( 'NONE',  ( 0.7071067811865462400, 8.659560562354948900E-017, 0.7071067811865489100 ) ) ;
#227 = AXIS2_PLACEMENT_3D ( 'NONE', #472, #529, #108 ) ;
#228 = CARTESIAN_POINT ( 'NONE',  ( 0.0000000000000000000, 0.5999999999999999800, 1.537042614893937600 ) ) ;
#229 = FILL_AREA_STYLE_COLOUR ( '', #65 ) ;
#230 = CONICAL_SURFACE ( 'NONE', #353, 2.024999999999999900, 0.7853981633974473900 ) ;
#231 = SURFACE_STYLE_USAGE ( .BOTH. , #533 ) ;
#232 = MECHANICAL_DESIGN_GEOMETRIC_PRESENTATION_REPRESENTATION (  '', ( #603 ), #488 ) ;
#233 = EDGE_CURVE ( 'NONE', #435, #554, #561, .T. ) ;
#234 = CARTESIAN_POINT ( 'NONE',  ( 6.000000000000000000, 0.0000000000000000000, 0.0000000000000000000 ) ) ;
#235 = APPLICATION_PROTOCOL_DEFINITION ( 'draft international standard', 'automotive_design', 1998, #431 ) ;
#236 = CARTESIAN_POINT ( 'NONE',  ( 8.000000000000000000, 0.0000000000000000000, 0.0000000000000000000 ) ) ;
#237 = VERTEX_POINT ( 'NONE', #191 ) ;
#238 = ADVANCED_FACE ( 'NONE', ( #170 ), #342, .F. ) ;
#239 = UNCERTAINTY_MEASURE_WITH_UNIT (LENGTH_MEASURE( 1.000000000000000100E-005 ), #484, 'distance_accuracy_value', 'NONE');
#240 = DIRECTION ( 'NONE',  ( -1.000000000000000000, 0.0000000000000000000, 0.0000000000000000000 ) ) ;
#241 = CARTESIAN_POINT ( 'NONE',  ( 8.000000000000000000, 0.5999999999999999800, -2.168524844220144100 ) ) ;
#242 = DIRECTION ( 'NONE',  ( 0.0000000000000000000, 0.0000000000000000000, 1.000000000000000000 ) ) ;
#243 = ORIENTED_EDGE ( 'NONE', *, *, #194, .T. ) ;
#244 = VERTEX_POINT ( 'NONE', #130 ) ;
#245 = DIRECTION ( 'NONE',  ( 1.000000000000000000, -0.0000000000000000000, -0.0000000000000000000 ) ) ;
#246 = DIRECTION ( 'NONE',  ( 0.0000000000000000000, -1.000000000000000000, -0.0000000000000000000 ) ) ;
#247 = VECTOR ( 'NONE', #74, 1000.000000000000000 ) ;
#248 = CARTESIAN_POINT ( 'NONE',  ( 0.7999999999999986000, 3.980102097228897700E-016, 3.250000000000000000 ) ) ;
#249 = PLANE ( 'NONE',  #698 ) ;
#250 = FACE_OUTER_BOUND ( 'NONE', #10, .T. ) ;
#251 = EDGE_CURVE ( 'NONE', #596, #323, #654, .T. ) ;
#252 = CARTESIAN_POINT ( 'NONE',  ( 8.000000000000000000, -0.5999999999999999800, 2.168524844220144100 ) ) ;
#253 = DIRECTION ( 'NONE',  ( 0.0000000000000000000, 0.0000000000000000000, -1.000000000000000000 ) ) ;
#254 = FACE_OUTER_BOUND ( 'NONE', #268, .T. ) ;
#255 = AXIS2_PLACEMENT_3D ( 'NONE', #507, #574, #1 ) ;
#256 = ORIENTED_EDGE ( 'NONE', *, *, #16, .T. ) ;
#257 = ORIENTED_EDGE ( 'NONE', *, *, #632, .T. ) ;
#258 = DIRECTION ( 'NONE',  ( 1.000000000000000000, -0.0000000000000000000, -0.0000000000000000000 ) ) ;
#259 = EDGE_CURVE ( 'NONE', #596, #71, #675, .T. ) ;
#260 = CARTESIAN_POINT ( 'NONE',  ( 6.000000000000000000, -0.5999999999999999800, 7.300171619476715000 ) ) ;
#261 = DIRECTION ( 'NONE',  ( 0.0000000000000000000, 0.0000000000000000000, 1.000000000000000000 ) ) ;
#262 = VERTEX_POINT ( 'NONE', #399 ) ;
#263 = VERTEX_POINT ( 'NONE', #676 ) ;
#264 = CARTESIAN_POINT ( 'NONE',  ( 6.000000000000000000, -0.5999999999999999800, 7.300171619476715000 ) ) ;
#265 = PRESENTATION_STYLE_ASSIGNMENT (( #379 ) ) ;
#266 = CIRCLE ( 'NONE', #335, 3.250000000000000000 ) ;
#267 =( NAMED_UNIT ( * ) PLANE_ANGLE_UNIT ( ) SI_UNIT ( $, .RADIAN. ) );
#268 = EDGE_LOOP ( 'NONE', ( #321, #646, #689, #162, #686, #544, #219, #103 ) ) ;
#269 = DIRECTION ( 'NONE',  ( 0.0000000000000000000, 0.0000000000000000000, 1.000000000000000000 ) ) ;
#270 = MECHANICAL_DESIGN_GEOMETRIC_PRESENTATION_REPRESENTATION (  '', ( #568 ), #302 ) ;
#271 = DIRECTION ( 'NONE',  ( -1.000000000000000000, 0.0000000000000000000, 0.0000000000000000000 ) ) ;
#272 = LINE ( 'NONE', #279, #531 ) ;
#273 = PRESENTATION_LAYER_ASSIGNMENT (  '', '', ( #425 ) ) ;
#274 = VERTEX_POINT ( 'NONE', #665 ) ;
#275 = ORIENTED_EDGE ( 'NONE', *, *, #660, .F. ) ;
#276 = EDGE_LOOP ( 'NONE', ( #143, #694, #423, #684 ) ) ;
#277 = MECHANICAL_DESIGN_GEOMETRIC_PRESENTATION_REPRESENTATION (  '', ( #454 ), #391 ) ;
#278 = EDGE_CURVE ( 'NONE', #441, #71, #320, .T. ) ;
#279 = CARTESIAN_POINT ( 'NONE',  ( 0.0000000000000000000, 0.5999999999999999800, -3.194135250736887900 ) ) ;
#280 =( LENGTH_UNIT ( ) NAMED_UNIT ( * ) SI_UNIT ( .MILLI., .METRE. ) );
#281 = CIRCLE ( 'NONE', #86, 1.649999999999998100 ) ;
#282 = CIRCLE ( 'NONE', #156, 2.024999999999999900 ) ;
#283 = FACE_OUTER_BOUND ( 'NONE', #276, .T. ) ;
#284 = ORIENTED_EDGE ( 'NONE', *, *, #476, .F. ) ;
#285 = DIRECTION ( 'NONE',  ( 0.0000000000000000000, 0.0000000000000000000, 1.000000000000000000 ) ) ;
#286 = EDGE_CURVE ( 'NONE', #600, #262, #622, .T. ) ;
#287 = CIRCLE ( 'NONE', #537, 3.250000000000000000 ) ;
#288 = AXIS2_PLACEMENT_3D ( 'NONE', #621, #641, #373 ) ;
#289 = FILL_AREA_STYLE ('',( #602 ) ) ;
#290 = ORIENTED_EDGE ( 'NONE', *, *, #697, .T. ) ;
#291 = ORIENTED_EDGE ( 'NONE', *, *, #81, .T. ) ;
#292 = ORIENTED_EDGE ( 'NONE', *, *, #6, .T. ) ;
#293 = CARTESIAN_POINT ( 'NONE',  ( 6.000000000000000000, 0.0000000000000000000, 0.0000000000000000000 ) ) ;
#294 = CARTESIAN_POINT ( 'NONE',  ( 6.000000000000000000, 2.020667218593130300E-016, -1.649999999999998100 ) ) ;
#295 = PRODUCT_DEFINITION_SHAPE ( 'NONE', 'NONE',  #523 ) ;
#296 = LINE ( 'NONE', #359, #645 ) ;
#297 = UNCERTAINTY_MEASURE_WITH_UNIT (LENGTH_MEASURE( 1.000000000000000100E-005 ), #169, 'distance_accuracy_value', 'NONE');
#298 = ORIENTED_EDGE ( 'NONE', *, *, #555, .T. ) ;
#299 = ORIENTED_EDGE ( 'NONE', *, *, #678, .T. ) ;
#300 = DIRECTION ( 'NONE',  ( -0.0000000000000000000, -0.0000000000000000000, 1.000000000000000000 ) ) ;
#301 = PLANE ( 'NONE',  #438 ) ;
#302 =( GEOMETRIC_REPRESENTATION_CONTEXT ( 3 ) GLOBAL_UNCERTAINTY_ASSIGNED_CONTEXT ( ( #239 ) ) GLOBAL_UNIT_ASSIGNED_CONTEXT ( ( #484, #60, #123 ) ) REPRESENTATION_CONTEXT ( 'NONE', 'WORKASPACE' ) );
#303 = DIRECTION ( 'NONE',  ( 1.000000000000000000, -0.0000000000000000000, -0.0000000000000000000 ) ) ;
#304 = LINE ( 'NONE', #175, #157 ) ;
#305 = VECTOR ( 'NONE', #212, 1000.000000000000000 ) ;
#306 = MECHANICAL_DESIGN_GEOMETRIC_PRESENTATION_REPRESENTATION (  '', ( #425 ), #388 ) ;
#307 = ORIENTED_EDGE ( 'NONE', *, *, #513, .T. ) ;
#308 = ORIENTED_EDGE ( 'NONE', *, *, #427, .F. ) ;
#309 = ORIENTED_EDGE ( 'NONE', *, *, #171, .T. ) ;
#310 = FILL_AREA_STYLE_COLOUR ( '', #439 ) ;
#311 = CARTESIAN_POINT ( 'NONE',  ( 8.000000000000000000, -0.5999999999999999800, 7.300171619476715000 ) ) ;
#312 = VECTOR ( 'NONE', #64, 1000.000000000000000 ) ;
#313 = FILL_AREA_STYLE_COLOUR ( '', #485 ) ;
#314 = FACE_OUTER_BOUND ( 'NONE', #183, .T. ) ;
#315 = ORIENTED_EDGE ( 'NONE', *, *, #426, .T. ) ;
#316 =( NAMED_UNIT ( * ) SI_UNIT ( $, .STERADIAN. ) SOLID_ANGLE_UNIT ( ) );
#317 = DIRECTION ( 'NONE',  ( -1.000000000000000000, 0.0000000000000000000, 0.0000000000000000000 ) ) ;
#318 = CARTESIAN_POINT ( 'NONE',  ( 0.0000000000000000000, 0.0000000000000000000, -3.250000000000000000 ) ) ;
#319 = CIRCLE ( 'NONE', #215, 3.250000000000000000 ) ;
#320 = CIRCLE ( 'NONE', #88, 1.649999999999998600 ) ;
#321 = ORIENTED_EDGE ( 'NONE', *, *, #582, .T. ) ;
#322 = ORIENTED_EDGE ( 'NONE', *, *, #346, .T. ) ;
#323 = VERTEX_POINT ( 'NONE', #557 ) ;
#324 = DIRECTION ( 'NONE',  ( 0.0000000000000000000, 0.0000000000000000000, 1.000000000000000000 ) ) ;
#325 = DIRECTION ( 'NONE',  ( 1.000000000000000000, -0.0000000000000000000, -0.0000000000000000000 ) ) ;
#326 = ORIENTED_EDGE ( 'NONE', *, *, #81, .F. ) ;
#327 = DIRECTION ( 'NONE',  ( -0.0000000000000000000, -0.0000000000000000000, 1.000000000000000000 ) ) ;
#328 = AXIS2_PLACEMENT_3D ( 'NONE', #348, #358, #566 ) ;
#329 = CARTESIAN_POINT ( 'NONE',  ( 0.7999999999999986000, 3.980102097228896800E-016, 3.250000000000000000 ) ) ;
#330 = CONICAL_SURFACE ( 'NONE', #410, 2.249999999999999600, 0.7853981633974485000 ) ;
#331 = ORIENTED_EDGE ( 'NONE', *, *, #685, .F. ) ;
#332 = DIRECTION ( 'NONE',  ( -1.000000000000000000, 0.0000000000000000000, 0.0000000000000000000 ) ) ;
#333 = ADVANCED_FACE ( 'NONE', ( #216 ), #499, .T. ) ;
#334 = EDGE_LOOP ( 'NONE', ( #23, #363 ) ) ;
#335 = AXIS2_PLACEMENT_3D ( 'NONE', #234, #530, #114 ) ;
#336 = DIRECTION ( 'NONE',  ( 0.0000000000000000000, 0.0000000000000000000, 1.000000000000000000 ) ) ;
#337 = DIRECTION ( 'NONE',  ( 1.000000000000000000, 0.0000000000000000000, 0.0000000000000000000 ) ) ;
#338 = AXIS2_PLACEMENT_3D ( 'NONE', #20, #547, #72 ) ;
#339 = VERTEX_POINT ( 'NONE', #616 ) ;
#340 = ADVANCED_FACE ( 'NONE', ( #188 ), #301, .F. ) ;
#341 = CARTESIAN_POINT ( 'NONE',  ( 8.000000000000000000, 0.0000000000000000000, 0.0000000000000000000 ) ) ;
#342 = PLANE ( 'NONE',  #338 ) ;
#343 = ORIENTED_EDGE ( 'NONE', *, *, #47, .F. ) ;
#344 = EDGE_LOOP ( 'NONE', ( #545, #128, #452, #522 ) ) ;
#345 = DIRECTION ( 'NONE',  ( 0.0000000000000000000, 0.0000000000000000000, 1.000000000000000000 ) ) ;
#346 = EDGE_CURVE ( 'NONE', #554, #199, #296, .T. ) ;
#347 = DIRECTION ( 'NONE',  ( 0.0000000000000000000, 0.0000000000000000000, -1.000000000000000000 ) ) ;
#348 = CARTESIAN_POINT ( 'NONE',  ( 0.0000000000000000000, 0.0000000000000000000, 0.0000000000000000000 ) ) ;
#349 = LINE ( 'NONE', #576, #672 ) ;
#350 = CARTESIAN_POINT ( 'NONE',  ( 8.000000000000000000, 2.249999999999999600, 0.0000000000000000000 ) ) ;
#351 = VECTOR ( 'NONE', #211, 1000.000000000000000 ) ;
#352 = DIRECTION ( 'NONE',  ( 0.0000000000000000000, 0.0000000000000000000, 1.000000000000000000 ) ) ;
#353 = AXIS2_PLACEMENT_3D ( 'NONE', #658, #424, #285 ) ;
#354 = LINE ( 'NONE', #311, #305 ) ;
#355 = B_SPLINE_CURVE_WITH_KNOTS ( 'NONE', 3,
 ( #490, #606, #443, #25 ),
 .UNSPECIFIED., .F., .F.,
 ( 4, 4 ),
 ( 0.01256329621998695400, 0.01399776547201875400 ),
 .UNSPECIFIED. ) ;
#356 = ORIENTED_EDGE ( 'NONE', *, *, #278, .T. ) ;
#357 = ORIENTED_EDGE ( 'NONE', *, *, #198, .T. ) ;
#358 = DIRECTION ( 'NONE',  ( -1.000000000000000000, 0.0000000000000000000, 0.0000000000000000000 ) ) ;
#359 = CARTESIAN_POINT ( 'NONE',  ( 8.000000000000000000, 0.5999999999999999800, 7.300171619476715000 ) ) ;
#360 = PRESENTATION_LAYER_ASSIGNMENT (  '', '', ( #603 ) ) ;
#361 = LINE ( 'NONE', #642, #351 ) ;
#362 = DIRECTION ( 'NONE',  ( 0.0000000000000000000, 0.0000000000000000000, -1.000000000000000000 ) ) ;
#363 = ORIENTED_EDGE ( 'NONE', *, *, #381, .T. ) ;
#364 = ORIENTED_EDGE ( 'NONE', *, *, #259, .T. ) ;
#365 = DIRECTION ( 'NONE',  ( 0.0000000000000000000, 0.0000000000000000000, -1.000000000000000000 ) ) ;
#366 = CARTESIAN_POINT ( 'NONE',  ( 8.000000000000000000, 0.0000000000000000000, 0.0000000000000000000 ) ) ;
#367 = FILL_AREA_STYLE ('',( #313 ) ) ;
#368 =( LENGTH_UNIT ( ) NAMED_UNIT ( * ) SI_UNIT ( .MILLI., .METRE. ) );
#369 = DIRECTION ( 'NONE',  ( 1.000000000000000000, -0.0000000000000000000, -0.0000000000000000000 ) ) ;
#370 = AXIS2_PLACEMENT_3D ( 'NONE', #293, #398, #605 ) ;
#371 = LINE ( 'NONE', #66, #395 ) ;
#372 = ORIENTED_EDGE ( 'NONE', *, *, #412, .F. ) ;
#373 = DIRECTION ( 'NONE',  ( -0.0000000000000000000, 0.0000000000000000000, -1.000000000000000000 ) ) ;
#374 = EDGE_CURVE ( 'NONE', #225, #263, #473, .T. ) ;
#375 = DIRECTION ( 'NONE',  ( -1.000000000000000000, -0.0000000000000000000, -0.0000000000000000000 ) ) ;
#376 = CONICAL_SURFACE ( 'NONE', #677, 3.250000000000000000, 0.7853981633974501700 ) ;
#377 = ORIENTED_EDGE ( 'NONE', *, *, #16, .F. ) ;
#378 = AXIS2_PLACEMENT_3D ( 'NONE', #623, #692, #269 ) ;
#379 = SURFACE_STYLE_USAGE ( .BOTH. , #167 ) ;
#380 = APPLICATION_PROTOCOL_DEFINITION ( 'draft international standard', 'automotive_design', 1998, #109 ) ;
#381 = EDGE_CURVE ( 'NONE', #667, #595, #465, .T. ) ;
#382 = CONICAL_SURFACE ( 'NONE', #653, 2.249999999999999600, 0.7853981633974485000 ) ;
#383 = LINE ( 'NONE', #668, #651 ) ;
#384 = VECTOR ( 'NONE', #628, 1000.000000000000000 ) ;
#385 = EDGE_CURVE ( 'NONE', #145, #587, #282, .T. ) ;
#386 = ORIENTED_EDGE ( 'NONE', *, *, #374, .T. ) ;
#387 = CARTESIAN_POINT ( 'NONE',  ( 8.000000000000000000, 0.5999999999999999800, -2.168524844220144100 ) ) ;
#388 =( GEOMETRIC_REPRESENTATION_CONTEXT ( 3 ) GLOBAL_UNCERTAINTY_ASSIGNED_CONTEXT ( ( #418 ) ) GLOBAL_UNIT_ASSIGNED_CONTEXT ( ( #52, #134, #543 ) ) REPRESENTATION_CONTEXT ( 'NONE', 'WORKASPACE' ) );
#389 = ADVANCED_FACE ( 'NONE', ( #492 ), #330, .T. ) ;
#390 = VECTOR ( 'NONE', #75, 1000.000000000000000 ) ;
#391 =( GEOMETRIC_REPRESENTATION_CONTEXT ( 3 ) GLOBAL_UNCERTAINTY_ASSIGNED_CONTEXT ( ( #115 ) ) GLOBAL_UNIT_ASSIGNED_CONTEXT ( ( #11, #186, #541 ) ) REPRESENTATION_CONTEXT ( 'NONE', 'WORKASPACE' ) );
#392 = ADVANCED_FACE ( 'NONE', ( #250 ), #177, .T. ) ;
#393 = CARTESIAN_POINT ( 'NONE',  ( 0.0000000000000000000, 2.479909768273389800E-016, -2.024999999999999900 ) ) ;
#394 = DIRECTION ( 'NONE',  ( 1.000000000000000000, -0.0000000000000000000, -0.0000000000000000000 ) ) ;
#395 = VECTOR ( 'NONE', #332, 1000.000000000000000 ) ;
#396 = ORIENTED_EDGE ( 'NONE', *, *, #171, .F. ) ;
#397 = CARTESIAN_POINT ( 'NONE',  ( 8.000000000000000000, 0.5999999999999999800, 1.537042614893937600 ) ) ;
#398 = DIRECTION ( 'NONE',  ( 1.000000000000000000, -0.0000000000000000000, -0.0000000000000000000 ) ) ;
#399 = CARTESIAN_POINT ( 'NONE',  ( 6.000000000000000000, 3.980102097228897700E-016, 3.250000000000000000 ) ) ;
#400 = AXIS2_PLACEMENT_3D ( 'NONE', #50, #336, #486 ) ;
#401 = CARTESIAN_POINT ( 'NONE',  ( 6.000000000000000000, 0.5999999999999999800, 7.300171619476715000 ) ) ;
#402 = VERTEX_POINT ( 'NONE', #579 ) ;
#403 = ORIENTED_EDGE ( 'NONE', *, *, #201, .T. ) ;
#404 = STYLED_ITEM ( 'NONE', ( #634 ), #392 ) ;
#405 = EDGE_CURVE ( 'NONE', #535, #601, #31, .T. ) ;
#406 = EDGE_CURVE ( 'NONE', #263, #441, #598, .T. ) ;
#407 = LINE ( 'NONE', #663, #101 ) ;
#408 = EDGE_LOOP ( 'NONE', ( #495, #648, #257, #420, #526, #32 ) ) ;
#409 = EDGE_LOOP ( 'NONE', ( #122, #610, #372, #565 ) ) ;
#410 = AXIS2_PLACEMENT_3D ( 'NONE', #236, #240, #550 ) ;
#411 = DIRECTION ( 'NONE',  ( 0.0000000000000000000, 0.0000000000000000000, -1.000000000000000000 ) ) ;
#412 = EDGE_CURVE ( 'NONE', #244, #666, #51, .T. ) ;
#413 = ORIENTED_EDGE ( 'NONE', *, *, #406, .F. ) ;
#414 = SURFACE_SIDE_STYLE ('',( #540 ) ) ;
#415 = DIRECTION ( 'NONE',  ( 1.000000000000000000, 0.0000000000000000000, 0.0000000000000000000 ) ) ;
#416 = DIRECTION ( 'NONE',  ( -0.0000000000000000000, 0.0000000000000000000, -1.000000000000000000 ) ) ;
#417 = CARTESIAN_POINT ( 'NONE',  ( 8.000000000000000000, 0.0000000000000000000, 0.0000000000000000000 ) ) ;
#418 = UNCERTAINTY_MEASURE_WITH_UNIT (LENGTH_MEASURE( 1.000000000000000100E-005 ), #52, 'distance_accuracy_value', 'NONE');
#419 = AXIS2_PLACEMENT_3D ( 'NONE', #611, #394, #242 ) ;
#420 = ORIENTED_EDGE ( 'NONE', *, *, #251, .F. ) ;
#421 = VERTEX_POINT ( 'NONE', #213 ) ;
#422 = ORIENTED_EDGE ( 'NONE', *, *, #251, .T. ) ;
#423 = ORIENTED_EDGE ( 'NONE', *, *, #626, .T. ) ;
#424 = DIRECTION ( 'NONE',  ( -1.000000000000000000, -0.0000000000000000000, -0.0000000000000000000 ) ) ;
#425 = STYLED_ITEM ( 'NONE', ( #265 ), #59 ) ;
#426 = EDGE_CURVE ( 'NONE', #197, #244, #361, .T. ) ;
#427 = EDGE_CURVE ( 'NONE', #587, #145, #607, .T. ) ;
#428 = VECTOR ( 'NONE', #226, 1000.000000000000000 ) ;
#429 = ADVANCED_FACE ( 'NONE', ( #430 ), #220, .F. ) ;
#430 = FACE_OUTER_BOUND ( 'NONE', #153, .T. ) ;
#431 = APPLICATION_CONTEXT ( 'automotive_design' ) ;
#432 = LINE ( 'NONE', #125, #664 ) ;
#433 = ORIENTED_EDGE ( 'NONE', *, *, #632, .F. ) ;
#434 = CARTESIAN_POINT ( 'NONE',  ( 8.000000000000000000, 0.5999999999999999800, -1.537042614893937600 ) ) ;
#435 = VERTEX_POINT ( 'NONE', #575 ) ;
#436 = ADVANCED_FACE ( 'NONE', ( #61 ), #376, .T. ) ;
#437 = DIRECTION ( 'NONE',  ( 0.0000000000000000000, 0.0000000000000000000, 1.000000000000000000 ) ) ;
#438 = AXIS2_PLACEMENT_3D ( 'NONE', #681, #449, #352 ) ;
#439 = COLOUR_RGB ( '',1.000000000000000000, 0.9490196078431372100, 0.9098039215686274400 ) ;
#440 = FACE_OUTER_BOUND ( 'NONE', #680, .T. ) ;
#441 = VERTEX_POINT ( 'NONE', #563 ) ;
#442 = ORIENTED_EDGE ( 'NONE', *, *, #619, .F. ) ;
#443 = CARTESIAN_POINT ( 'NONE',  ( 7.334705440812096600, -0.5999999999999999800, -2.853575882629867200 ) ) ;
#444 = EDGE_CURVE ( 'NONE', #567, #274, #67, .T. ) ;
#445 = DIRECTION ( 'NONE',  ( 0.0000000000000000000, 0.0000000000000000000, 1.000000000000000000 ) ) ;
#446 = LINE ( 'NONE', #551, #247 ) ;
#447 = CARTESIAN_POINT ( 'NONE',  ( 0.7999999999999986000, 0.0000000000000000000, 0.0000000000000000000 ) ) ;
#448 =( GEOMETRIC_REPRESENTATION_CONTEXT ( 3 ) GLOBAL_UNCERTAINTY_ASSIGNED_CONTEXT ( ( #297 ) ) GLOBAL_UNIT_ASSIGNED_CONTEXT ( ( #169, #3, #172 ) ) REPRESENTATION_CONTEXT ( 'NONE', 'WORKASPACE' ) );
#449 = DIRECTION ( 'NONE',  ( -1.000000000000000000, 0.0000000000000000000, 0.0000000000000000000 ) ) ;
#450 = VERTEX_POINT ( 'NONE', #147 ) ;
#451 = VERTEX_POINT ( 'NONE', #572 ) ;
#452 = ORIENTED_EDGE ( 'NONE', *, *, #427, .T. ) ;
#453 = ORIENTED_EDGE ( 'NONE', *, *, #558, .T. ) ;
#454 = STYLED_ITEM ( 'NONE', ( #48 ), #8 ) ;
#455 = CARTESIAN_POINT ( 'NONE',  ( 6.000000000000000000, -0.5999999999999999800, 7.300171619476715000 ) ) ;
#456 = DIRECTION ( 'NONE',  ( 0.0000000000000000000, 0.0000000000000000000, -1.000000000000000000 ) ) ;
#457 = DIRECTION ( 'NONE',  ( -1.000000000000000000, -0.0000000000000000000, -0.0000000000000000000 ) ) ;
#458 = FILL_AREA_STYLE_COLOUR ( '', #643 ) ;
#459 = DIRECTION ( 'NONE',  ( 1.000000000000000000, -0.0000000000000000000, -0.0000000000000000000 ) ) ;
#460 = ORIENTED_EDGE ( 'NONE', *, *, #198, .F. ) ;
#461 = SURFACE_STYLE_USAGE ( .BOTH. , #524 ) ;
#462 = ORIENTED_EDGE ( 'NONE', *, *, #697, .F. ) ;
#463 =( LENGTH_UNIT ( ) NAMED_UNIT ( * ) SI_UNIT ( .MILLI., .METRE. ) );
#464 = DIRECTION ( 'NONE',  ( 1.000000000000000000, -0.0000000000000000000, -0.0000000000000000000 ) ) ;
#465 = CIRCLE ( 'NONE', #328, 2.449999999999998400 ) ;
#466 = AXIS2_PLACEMENT_3D ( 'NONE', #455, #208, #365 ) ;
#467 = EDGE_CURVE ( 'NONE', #451, #567, #287, .T. ) ;
#468 = FACE_OUTER_BOUND ( 'NONE', #14, .T. ) ;
#469 = ORIENTED_EDGE ( 'NONE', *, *, #201, .F. ) ;
#470 =( NAMED_UNIT ( * ) PLANE_ANGLE_UNIT ( ) SI_UNIT ( $, .RADIAN. ) );
#471 = DIRECTION ( 'NONE',  ( -1.000000000000000000, -0.0000000000000000000, -0.0000000000000000000 ) ) ;
#472 = CARTESIAN_POINT ( 'NONE',  ( 7.000000000000000000, 0.0000000000000000000, 0.0000000000000000000 ) ) ;
#473 = CIRCLE ( 'NONE', #370, 1.649999999999998100 ) ;
#474 = PRESENTATION_LAYER_ASSIGNMENT (  '', '', ( #404 ) ) ;
#475 = CIRCLE ( 'NONE', #525, 1.649999999999998600 ) ;
#476 = EDGE_CURVE ( 'NONE', #601, #129, #98, .T. ) ;
#477 = ORIENTED_EDGE ( 'NONE', *, *, #41, .T. ) ;
#478 = ORIENTED_EDGE ( 'NONE', *, *, #502, .T. ) ;
#479 = SURFACE_STYLE_USAGE ( .BOTH. , #591 ) ;
#480 = FILL_AREA_STYLE ('',( #229 ) ) ;
#481 = PRESENTATION_LAYER_ASSIGNMENT (  '', '', ( #454 ) ) ;
#482 = CYLINDRICAL_SURFACE ( 'NONE', #255, 1.649999999999998100 ) ;
#483 = LINE ( 'NONE', #15, #312 ) ;
#484 =( LENGTH_UNIT ( ) NAMED_UNIT ( * ) SI_UNIT ( .MILLI., .METRE. ) );
#485 = COLOUR_RGB ( '',1.000000000000000000, 0.9490196078431372100, 0.9098039215686274400 ) ;
#486 = DIRECTION ( 'NONE',  ( 1.000000000000000000, 0.0000000000000000000, 0.0000000000000000000 ) ) ;
#487 = CARTESIAN_POINT ( 'NONE',  ( 0.0000000000000000000, -0.5999999999999999800, -1.537042614893937600 ) ) ;
#488 =( GEOMETRIC_REPRESENTATION_CONTEXT ( 3 ) GLOBAL_UNCERTAINTY_ASSIGNED_CONTEXT ( ( #656 ) ) GLOBAL_UNIT_ASSIGNED_CONTEXT ( ( #463, #267, #316 ) ) REPRESENTATION_CONTEXT ( 'NONE', 'WORKASPACE' ) );
#489 = SURFACE_STYLE_USAGE ( .BOTH. , #661 ) ;
#490 = CARTESIAN_POINT ( 'NONE',  ( 8.000000000000000000, -0.5999999999999999800, -2.168524844220144100 ) ) ;
#491 = ADVANCED_FACE ( 'NONE', ( #2 ), #482, .F. ) ;
#492 = FACE_OUTER_BOUND ( 'NONE', #586, .T. ) ;
#493 = VECTOR ( 'NONE', #573, 1000.000000000000000 ) ;
#494 = EDGE_LOOP ( 'NONE', ( #706, #120, #396, #291 ) ) ;
#495 = ORIENTED_EDGE ( 'NONE', *, *, #467, .T. ) ;
#496 = CARTESIAN_POINT ( 'NONE',  ( 0.7999999999999986000, 0.0000000000000000000, 0.0000000000000000000 ) ) ;
#497 = CARTESIAN_POINT ( 'NONE',  ( 7.000000000000000000, -0.5999999999999999800, -3.194135250736887900 ) ) ;
#498 = CARTESIAN_POINT ( 'NONE',  ( 0.3750000000000020500, 0.0000000000000000000, 0.0000000000000000000 ) ) ;
#499 = CONICAL_SURFACE ( 'NONE', #117, 3.250000000000000000, 0.7853981633974501700 ) ;
#500 = DIRECTION ( 'NONE',  ( -0.7071067811865482400, 8.659560562354925500E-017, -0.7071067811865469100 ) ) ;
#501 = AXIS2_PLACEMENT_3D ( 'NONE', #94, #464, #209 ) ;
#502 = EDGE_CURVE ( 'NONE', #274, #435, #272, .T. ) ;
#503 = DIRECTION ( 'NONE',  ( -1.000000000000000000, -0.0000000000000000000, -0.0000000000000000000 ) ) ;
#504 = CARTESIAN_POINT ( 'NONE',  ( 8.000000000000000000, -0.5999999999999999800, -1.537042614893937600 ) ) ;
#505 = SURFACE_STYLE_FILL_AREA ( #480 ) ;
#506 = DIRECTION ( 'NONE',  ( 0.0000000000000000000, 0.0000000000000000000, 1.000000000000000000 ) ) ;
#507 = CARTESIAN_POINT ( 'NONE',  ( 0.0000000000000000000, 0.0000000000000000000, 0.0000000000000000000 ) ) ;
#508 = UNCERTAINTY_MEASURE_WITH_UNIT (LENGTH_MEASURE( 1.000000000000000100E-005 ), #280, 'distance_accuracy_value', 'NONE');
#509 = ORIENTED_EDGE ( 'NONE', *, *, #581, .T. ) ;
#510 = DIRECTION ( 'NONE',  ( 0.0000000000000000000, 0.0000000000000000000, 1.000000000000000000 ) ) ;
#511 = CARTESIAN_POINT ( 'NONE',  ( 8.000000000000000000, 0.0000000000000000000, 0.0000000000000000000 ) ) ;
#512 = MECHANICAL_DESIGN_GEOMETRIC_PRESENTATION_REPRESENTATION (  '', ( #404 ), #549 ) ;
#513 = EDGE_CURVE ( 'NONE', #421, #262, #266, .T. ) ;
#514 = DIRECTION ( 'NONE',  ( 1.000000000000000000, -0.0000000000000000000, -0.0000000000000000000 ) ) ;
#515 = FACE_OUTER_BOUND ( 'NONE', #409, .T. ) ;
#516 = CARTESIAN_POINT ( 'NONE',  ( 0.0000000000000000000, 0.0000000000000000000, 0.0000000000000000000 ) ) ;
#517 = VECTOR ( 'NONE', #140, 1000.000000000000000 ) ;
#518 = DIRECTION ( 'NONE',  ( 0.0000000000000000000, 0.0000000000000000000, -1.000000000000000000 ) ) ;
#519 = CARTESIAN_POINT ( 'NONE',  ( 7.000000000000000000, -0.5999999999999999800, 3.194135250736887900 ) ) ;
#520 = ORIENTED_EDGE ( 'NONE', *, *, #158, .T. ) ;
#521 = ORIENTED_EDGE ( 'NONE', *, *, #47, .T. ) ;
#522 = ORIENTED_EDGE ( 'NONE', *, *, #626, .F. ) ;
#523 = PRODUCT_DEFINITION ( 'UNKNOWN', '', #34, #207 ) ;
#524 = SURFACE_SIDE_STYLE ('',( #203 ) ) ;
#525 = AXIS2_PLACEMENT_3D ( 'NONE', #498, #503, #192 ) ;
#526 = ORIENTED_EDGE ( 'NONE', *, *, #597, .F. ) ;
#527 = EDGE_LOOP ( 'NONE', ( #4, #173, #705, #462 ) ) ;
#528 = ORIENTED_EDGE ( 'NONE', *, *, #346, .F. ) ;
#529 = DIRECTION ( 'NONE',  ( 1.000000000000000000, -0.0000000000000000000, -0.0000000000000000000 ) ) ;
#530 = DIRECTION ( 'NONE',  ( 1.000000000000000000, -0.0000000000000000000, -0.0000000000000000000 ) ) ;
#531 = VECTOR ( 'NONE', #325, 1000.000000000000000 ) ;
#532 = ORIENTED_EDGE ( 'NONE', *, *, #9, .T. ) ;
#533 = SURFACE_SIDE_STYLE ('',( #151 ) ) ;
#534 = EDGE_LOOP ( 'NONE', ( #133, #364, #477, #413, #521, #224, #326, #256 ) ) ;
#535 = VERTEX_POINT ( 'NONE', #58 ) ;
#536 = ADVANCED_FACE ( 'NONE', ( #113 ), #230, .F. ) ;
#537 = AXIS2_PLACEMENT_3D ( 'NONE', #688, #90, #87 ) ;
#538 = UNCERTAINTY_MEASURE_WITH_UNIT (LENGTH_MEASURE( 1.000000000000000100E-005 ), #368, 'distance_accuracy_value', 'NONE');
#539 = CARTESIAN_POINT ( 'NONE',  ( 7.000000000000000000, 0.5999999999999999800, -3.194135250736887900 ) ) ;
#540 = SURFACE_STYLE_FILL_AREA ( #367 ) ;
#541 =( NAMED_UNIT ( * ) SI_UNIT ( $, .STERADIAN. ) SOLID_ANGLE_UNIT ( ) );
#542 = PRESENTATION_LAYER_ASSIGNMENT (  '', '', ( #560 ) ) ;
#543 =( NAMED_UNIT ( * ) SI_UNIT ( $, .STERADIAN. ) SOLID_ANGLE_UNIT ( ) );
#544 = ORIENTED_EDGE ( 'NONE', *, *, #502, .F. ) ;
#545 = ORIENTED_EDGE ( 'NONE', *, *, #41, .F. ) ;
#546 = CARTESIAN_POINT ( 'NONE',  ( 8.000000000000000000, -0.5999999999999999800, 1.537042614893937600 ) ) ;
#547 = DIRECTION ( 'NONE',  ( 0.0000000000000000000, 1.000000000000000000, 0.0000000000000000000 ) ) ;
#548 = CARTESIAN_POINT ( 'NONE',  ( 6.000000000000000000, 0.5999999999999999800, 1.537042614893937600 ) ) ;
#549 =( GEOMETRIC_REPRESENTATION_CONTEXT ( 3 ) GLOBAL_UNCERTAINTY_ASSIGNED_CONTEXT ( ( #538 ) ) GLOBAL_UNIT_ASSIGNED_CONTEXT ( ( #368, #470, #218 ) ) REPRESENTATION_CONTEXT ( 'NONE', 'WORKASPACE' ) );
#550 = DIRECTION ( 'NONE',  ( 0.0000000000000000000, 0.0000000000000000000, 1.000000000000000000 ) ) ;
#551 = CARTESIAN_POINT ( 'NONE',  ( 0.0000000000000000000, 0.0000000000000000000, 2.024999999999999900 ) ) ;
#552 = CIRCLE ( 'NONE', #141, 3.250000000000000000 ) ;
#553 = DIRECTION ( 'NONE',  ( 1.000000000000000000, -0.0000000000000000000, -0.0000000000000000000 ) ) ;
#554 = VERTEX_POINT ( 'NONE', #387 ) ;
#555 = EDGE_CURVE ( 'NONE', #225, #421, #304, .T. ) ;
#556 = ORIENTED_EDGE ( 'NONE', *, *, #700, .F. ) ;
#557 = CARTESIAN_POINT ( 'NONE',  ( 6.000000000000000000, 0.5999999999999999800, -1.537042614893937600 ) ) ;
#558 = EDGE_CURVE ( 'NONE', #667, #600, #79, .T. ) ;
#559 = VECTOR ( 'NONE', #300, 1000.000000000000000 ) ;
#560 = STYLED_ITEM ( 'NONE', ( #127 ), #491 ) ;
#561 = B_SPLINE_CURVE_WITH_KNOTS ( 'NONE', 3,
 ( #539, #671, #138, #241 ),
 .UNSPECIFIED., .F., .F.,
 ( 4, 4 ),
 ( 0.005602318594063997000, 0.007034751825629231300 ),
 .UNSPECIFIED. ) ;
#562 = DIRECTION ( 'NONE',  ( 0.0000000000000000000, 0.0000000000000000000, 1.000000000000000000 ) ) ;
#563 = CARTESIAN_POINT ( 'NONE',  ( 0.3750000000000020500, 0.0000000000000000000, 1.649999999999998600 ) ) ;
#564 = VECTOR ( 'NONE', #604, 1000.000000000000000 ) ;
#565 = ORIENTED_EDGE ( 'NONE', *, *, #678, .F. ) ;
#566 = DIRECTION ( 'NONE',  ( 0.0000000000000000000, 0.0000000000000000000, 1.000000000000000000 ) ) ;
#567 = VERTEX_POINT ( 'NONE', #7 ) ;
#568 = STYLED_ITEM ( 'NONE', ( #196 ), #187 ) ;
#569 = DIRECTION ( 'NONE',  ( 0.0000000000000000000, -0.0000000000000000000, 1.000000000000000000 ) ) ;
#570 = CARTESIAN_POINT ( 'NONE',  ( 0.0000000000000000000, 3.980102097228897700E-016, 3.250000000000000000 ) ) ;
#571 = PLANE ( 'NONE',  #378 ) ;
#572 = CARTESIAN_POINT ( 'NONE',  ( 6.000000000000000000, -0.5999999999999999800, -3.194135250736887900 ) ) ;
#573 = DIRECTION ( 'NONE',  ( 0.0000000000000000000, 0.0000000000000000000, -1.000000000000000000 ) ) ;
#574 = DIRECTION ( 'NONE',  ( -1.000000000000000000, -0.0000000000000000000, -0.0000000000000000000 ) ) ;
#575 = CARTESIAN_POINT ( 'NONE',  ( 7.000000000000000000, 0.5999999999999999800, -3.194135250736887900 ) ) ;
#576 = CARTESIAN_POINT ( 'NONE',  ( 0.0000000000000000000, -0.5999999999999999800, 1.537042614893937600 ) ) ;
#577 = EDGE_LOOP ( 'NONE', ( #292, #102, #54, #315, #181 ) ) ;
#578 = CARTESIAN_POINT ( 'NONE',  ( 0.0000000000000000000, 0.0000000000000000000, 0.0000000000000000000 ) ) ;
#579 = CARTESIAN_POINT ( 'NONE',  ( 6.000000000000000000, -0.5999999999999999800, 3.194135250736887900 ) ) ;
#580 = DIRECTION ( 'NONE',  ( 0.0000000000000000000, 0.0000000000000000000, 1.000000000000000000 ) ) ;
#581 = EDGE_CURVE ( 'NONE', #197, #225, #674, .T. ) ;
#582 = EDGE_CURVE ( 'NONE', #339, #600, #552, .T. ) ;
#583 = VECTOR ( 'NONE', #99, 1000.000000000000000 ) ;
#584 = PRESENTATION_STYLE_ASSIGNMENT (( #37 ) ) ;
#585 = CARTESIAN_POINT ( 'NONE',  ( 7.668667350635273800, 0.5999999999999999800, 2.512306223095113600 ) ) ;
#586 = EDGE_LOOP ( 'NONE', ( #131, #68, #469, #284 ) ) ;
#587 = VERTEX_POINT ( 'NONE', #135 ) ;
#588 = CARTESIAN_POINT ( 'NONE',  ( 0.0000000000000000000, 0.0000000000000000000, 0.0000000000000000000 ) ) ;
#589 = EDGE_CURVE ( 'NONE', #197, #199, #702, .T. ) ;
#590 = DIRECTION ( 'NONE',  ( 1.000000000000000000, -0.0000000000000000000, -0.0000000000000000000 ) ) ;
#591 = SURFACE_SIDE_STYLE ('',( #693 ) ) ;
#592 = LINE ( 'NONE', #696, #195 ) ;
#593 = AXIS2_PLACEMENT_3D ( 'NONE', #703, #375, #707 ) ;
#594 = ORIENTED_EDGE ( 'NONE', *, *, #9, .F. ) ;
#595 = VERTEX_POINT ( 'NONE', #22 ) ;
#596 = VERTEX_POINT ( 'NONE', #294 ) ;
#597 = EDGE_CURVE ( 'NONE', #450, #596, #281, .T. ) ;
#598 = LINE ( 'NONE', #639, #583 ) ;
#599 = CIRCLE ( 'NONE', #142, 1.649999999999998100 ) ;
#600 = VERTEX_POINT ( 'NONE', #248 ) ;
#601 = VERTEX_POINT ( 'NONE', #252 ) ;
#602 = FILL_AREA_STYLE_COLOUR ( '', #620 ) ;
#603 = STYLED_ITEM ( 'NONE', ( #584 ), #174 ) ;
#604 = DIRECTION ( 'NONE',  ( -1.000000000000000000, -0.0000000000000000000, -0.0000000000000000000 ) ) ;
#605 = DIRECTION ( 'NONE',  ( 0.0000000000000000000, 6.217248937900876600E-015, 1.000000000000000000 ) ) ;
#606 = CARTESIAN_POINT ( 'NONE',  ( 7.668667350635273800, -0.5999999999999999800, -2.512306223095114100 ) ) ;
#607 = CIRCLE ( 'NONE', #593, 2.024999999999999900 ) ;
#608 = ORIENTED_EDGE ( 'NONE', *, *, #582, .F. ) ;
#609 = ORIENTED_EDGE ( 'NONE', *, *, #405, .T. ) ;
#610 = ORIENTED_EDGE ( 'NONE', *, *, #132, .T. ) ;
#611 = CARTESIAN_POINT ( 'NONE',  ( 6.000000000000000000, 0.0000000000000000000, 0.0000000000000000000 ) ) ;
#612 = CARTESIAN_POINT ( 'NONE',  ( 0.3750000000000020500, 2.020667218593130800E-016, -1.649999999999998600 ) ) ;
#613 = DIRECTION ( 'NONE',  ( -1.000000000000000000, -0.0000000000000000000, -0.0000000000000000000 ) ) ;
#614 = CARTESIAN_POINT ( 'NONE',  ( 0.0000000000000000000, 2.020667218593130300E-016, -1.649999999999998100 ) ) ;
#615 = CIRCLE ( 'NONE', #126, 2.249999999999999600 ) ;
#616 = CARTESIAN_POINT ( 'NONE',  ( 0.7999999999999986000, 0.0000000000000000000, -3.250000000000000000 ) ) ;
#617 = CIRCLE ( 'NONE', #419, 3.250000000000000000 ) ;
#618 = AXIS2_PLACEMENT_3D ( 'NONE', #155, #514, #633 ) ;
#619 = EDGE_CURVE ( 'NONE', #595, #339, #383, .T. ) ;
#620 = COLOUR_RGB ( '',1.000000000000000000, 0.9490196078431372100, 0.9098039215686274400 ) ;
#621 = CARTESIAN_POINT ( 'NONE',  ( 8.000000000000000000, 2.249999999999999600, 0.0000000000000000000 ) ) ;
#622 = LINE ( 'NONE', #570, #517 ) ;
#623 = CARTESIAN_POINT ( 'NONE',  ( 6.000000000000000000, 0.0000000000000000000, 0.0000000000000000000 ) ) ;
#624 = LINE ( 'NONE', #487, #564 ) ;
#625 = ORIENTED_EDGE ( 'NONE', *, *, #385, .F. ) ;
#626 = EDGE_CURVE ( 'NONE', #441, #145, #446, .T. ) ;
#627 = ORIENTED_EDGE ( 'NONE', *, *, #426, .F. ) ;
#628 = DIRECTION ( 'NONE',  ( 1.000000000000000000, -0.0000000000000000000, -0.0000000000000000000 ) ) ;
#629 = CARTESIAN_POINT ( 'NONE',  ( 7.668643139795228200, -0.5999999999999999800, 2.512331343577478100 ) ) ;
#630 = AXIS2_PLACEMENT_3D ( 'NONE', #189, #185, #345 ) ;
#631 = PLANE ( 'NONE',  #708 ) ;
#632 = EDGE_CURVE ( 'NONE', #274, #323, #136, .T. ) ;
#633 = DIRECTION ( 'NONE',  ( 0.0000000000000000000, 0.0000000000000000000, -1.000000000000000000 ) ) ;
#634 = PRESENTATION_STYLE_ASSIGNMENT (( #461 ) ) ;
#635 = CARTESIAN_POINT ( 'NONE',  ( 8.000000000000000000, 0.5999999999999999800, 2.168524844220144100 ) ) ;
#636 = CYLINDRICAL_SURFACE ( 'NONE', #180, 3.250000000000000000 ) ;
#637 = FACE_OUTER_BOUND ( 'NONE', #13, .T. ) ;
#638 = EDGE_CURVE ( 'NONE', #71, #587, #112, .T. ) ;
#639 = CARTESIAN_POINT ( 'NONE',  ( 0.0000000000000000000, 0.0000000000000000000, 1.649999999999998100 ) ) ;
#640 = VERTEX_POINT ( 'NONE', #546 ) ;
#641 = DIRECTION ( 'NONE',  ( 1.000000000000000000, 0.0000000000000000000, -0.0000000000000000000 ) ) ;
#642 = CARTESIAN_POINT ( 'NONE',  ( 8.000000000000000000, 0.5999999999999999800, 7.300171619476715000 ) ) ;
#643 = COLOUR_RGB ( '',1.000000000000000000, 0.9490196078431372100, 0.9098039215686274400 ) ;
#644 = EDGE_CURVE ( 'NONE', #450, #451, #148, .T. ) ;
#645 = VECTOR ( 'NONE', #83, 1000.000000000000000 ) ;
#646 = ORIENTED_EDGE ( 'NONE', *, *, #286, .T. ) ;
#647 =( NAMED_UNIT ( * ) PLANE_ANGLE_UNIT ( ) SI_UNIT ( $, .RADIAN. ) );
#648 = ORIENTED_EDGE ( 'NONE', *, *, #444, .T. ) ;
#649 = ORIENTED_EDGE ( 'NONE', *, *, #194, .F. ) ;
#650 =( NAMED_UNIT ( * ) SI_UNIT ( $, .STERADIAN. ) SOLID_ANGLE_UNIT ( ) );
#651 = VECTOR ( 'NONE', #19, 1000.000000000000000 ) ;
#652 = FILL_AREA_STYLE_COLOUR ( '', #217 ) ;
#653 = AXIS2_PLACEMENT_3D ( 'NONE', #366, #271, #580 ) ;
#654 = CIRCLE ( 'NONE', #630, 1.649999999999998100 ) ;
#655 = ADVANCED_FACE ( 'NONE', ( #515 ), #382, .T. ) ;
#656 = UNCERTAINTY_MEASURE_WITH_UNIT (LENGTH_MEASURE( 1.000000000000000100E-005 ), #463, 'distance_accuracy_value', 'NONE');
#657 = FACE_OUTER_BOUND ( 'NONE', #494, .T. ) ;
#658 = CARTESIAN_POINT ( 'NONE',  ( 0.0000000000000000000, 0.0000000000000000000, 0.0000000000000000000 ) ) ;
#659 = ADVANCED_FACE ( 'NONE', ( #27, #97 ), #631, .T. ) ;
#660 = EDGE_CURVE ( 'NONE', #237, #640, #349, .T. ) ;
#661 = SURFACE_SIDE_STYLE ('',( #30 ) ) ;
#662 = DIRECTION ( 'NONE',  ( 0.0000000000000000000, 0.0000000000000000000, 1.000000000000000000 ) ) ;
#663 = CARTESIAN_POINT ( 'NONE',  ( 8.000000000000000000, -0.5999999999999999800, 7.300171619476715000 ) ) ;
#664 = VECTOR ( 'NONE', #337, 1000.000000000000000 ) ;
#665 = CARTESIAN_POINT ( 'NONE',  ( 6.000000000000000000, 0.5999999999999999800, -3.194135250736887900 ) ) ;
#666 = VERTEX_POINT ( 'NONE', #699 ) ;
#667 = VERTEX_POINT ( 'NONE', #154 ) ;
#668 = CARTESIAN_POINT ( 'NONE',  ( 0.7999999999999986000, 0.0000000000000000000, -3.250000000000000000 ) ) ;
#669 = DIRECTION ( 'NONE',  ( -1.000000000000000000, -0.0000000000000000000, -0.0000000000000000000 ) ) ;
#670 = AXIS2_PLACEMENT_3D ( 'NONE', #341, #613, #24 ) ;
#671 = CARTESIAN_POINT ( 'NONE',  ( 7.334688669596510600, 0.5999999999999999800, -2.853592947170462400 ) ) ;
#672 = VECTOR ( 'NONE', #415, 1000.000000000000000 ) ;
#673 = CARTESIAN_POINT ( 'NONE',  ( 6.000000000000000000, 0.0000000000000000000, 0.0000000000000000000 ) ) ;
#674 = LINE ( 'NONE', #228, #390 ) ;
#675 = LINE ( 'NONE', #614, #21 ) ;
#676 = CARTESIAN_POINT ( 'NONE',  ( 6.000000000000000000, 0.0000000000000000000, 1.649999999999998100 ) ) ;
#677 = AXIS2_PLACEMENT_3D ( 'NONE', #496, #245, #347 ) ;
#678 = EDGE_CURVE ( 'NONE', #554, #244, #615, .T. ) ;
#679 = ORIENTED_EDGE ( 'NONE', *, *, #589, .F. ) ;
#680 = EDGE_LOOP ( 'NONE', ( #478, #93, #322, #594, #433 ) ) ;
#681 = CARTESIAN_POINT ( 'NONE',  ( 6.000000000000000000, 0.0000000000000000000, 0.0000000000000000000 ) ) ;
#682 = ORIENTED_EDGE ( 'NONE', *, *, #29, .T. ) ;
#683 = AXIS2_PLACEMENT_3D ( 'NONE', #62, #116, #662 ) ;
#684 = ORIENTED_EDGE ( 'NONE', *, *, #385, .T. ) ;
#685 = EDGE_CURVE ( 'NONE', #223, #451, #592, .T. ) ;
#686 = ORIENTED_EDGE ( 'NONE', *, *, #132, .F. ) ;
#687 = PLANE ( 'NONE',  #466 ) ;
#688 = CARTESIAN_POINT ( 'NONE',  ( 6.000000000000000000, 0.0000000000000000000, 0.0000000000000000000 ) ) ;
#689 = ORIENTED_EDGE ( 'NONE', *, *, #513, .F. ) ;
#690 = CARTESIAN_POINT ( 'NONE',  ( 0.3750000000000020500, 0.0000000000000000000, 0.0000000000000000000 ) ) ;
#691 = PLANE ( 'NONE',  #28 ) ;
#692 = DIRECTION ( 'NONE',  ( -1.000000000000000000, 0.0000000000000000000, 0.0000000000000000000 ) ) ;
#693 = SURFACE_STYLE_FILL_AREA ( #39 ) ;
#694 = ORIENTED_EDGE ( 'NONE', *, *, #278, .F. ) ;
#695 =( GEOMETRIC_REPRESENTATION_CONTEXT ( 3 ) GLOBAL_UNCERTAINTY_ASSIGNED_CONTEXT ( ( #508 ) ) GLOBAL_UNIT_ASSIGNED_CONTEXT ( ( #280, #647, #650 ) ) REPRESENTATION_CONTEXT ( 'NONE', 'WORKASPACE' ) );
#696 = CARTESIAN_POINT ( 'NONE',  ( 0.0000000000000000000, -0.5999999999999999800, -3.194135250736887900 ) ) ;
#697 = EDGE_CURVE ( 'NONE', #600, #339, #319, .T. ) ;
#698 = AXIS2_PLACEMENT_3D ( 'NONE', #350, #82, #416 ) ;
#699 = CARTESIAN_POINT ( 'NONE',  ( 7.000000000000000000, 0.5999999999999999800, 3.194135250736887900 ) ) ;
#700 = EDGE_CURVE ( 'NONE', #535, #223, #43, .T. ) ;
#701 = VECTOR ( 'NONE', #500, 1000.000000000000000 ) ;
#702 = CIRCLE ( 'NONE', #670, 1.649999999999997700 ) ;
#703 = CARTESIAN_POINT ( 'NONE',  ( 0.0000000000000000000, 0.0000000000000000000, 0.0000000000000000000 ) ) ;
#704 = FACE_OUTER_BOUND ( 'NONE', #139, .T. ) ;
#705 = ORIENTED_EDGE ( 'NONE', *, *, #619, .T. ) ;
#706 = ORIENTED_EDGE ( 'NONE', *, *, #29, .F. ) ;
#707 = DIRECTION ( 'NONE',  ( 0.0000000000000000000, 0.0000000000000000000, 1.000000000000000000 ) ) ;
#708 = AXIS2_PLACEMENT_3D ( 'NONE', #516, #317, #95 ) ;
ENDSEC;
END-ISO-10303-21;
