ISO-10303-21;
HEADER;
FILE_DESCRIPTION (( 'STEP AP203' ),
    '1' );
FILE_NAME ('ALP0820.STEP',
    '2017-02-06T16:59:31',
    ( '' ),
    ( '' ),
    'SwSTEP 2.0',
    'SolidWorks 2012',
    '' );
FILE_SCHEMA (( 'CONFIG_CONTROL_DESIGN' ));
ENDSEC;

DATA;
#1 = B_SPLINE_CURVE_WITH_KNOTS ( 'NONE', 3,
 ( #714, #717, #739, #730, #733, #734 ),
 .UNSPECIFIED., .F., .F.,
 ( 4, 2, 4 ),
 ( 0.001986463835458896900, 0.002975865905125196400, 0.003965267974791495500 ),
 .UNSPECIFIED. ) ;
#2 = B_SPLINE_CURVE_WITH_KNOTS ( 'NONE', 3,
 ( #719, #740, #731, #735 ),
 .UNSPECIFIED., .F., .F.,
 ( 4, 4 ),
 ( 2.380739682293033900E-007, 0.001986463835458896900 ),
 .UNSPECIFIED. ) ;
#3 = MANIFOLD_SOLID_BREP ( 'M4 Tapped Hole1', #267 ) ;
#4 = B_SPLINE_CURVE_WITH_KNOTS ( 'NONE', 3,
 ( #203, #197, #191, #205 ),
 .UNSPECIFIED., .F., .F.,
 ( 4, 4 ),
 ( 2.380739682293757600E-007, 0.001986463835458914700 ),
 .UNSPECIFIED. ) ;
#5 = B_SPLINE_CURVE_WITH_KNOTS ( 'NONE', 3,
 ( #206, #201, #202, #204 ),
 .UNSPECIFIED., .F., .F.,
 ( 4, 4 ),
 ( 2.380739682295318000E-007, 0.001986463835458912900 ),
 .UNSPECIFIED. ) ;
#6 = B_SPLINE_CURVE_WITH_KNOTS ( 'NONE', 3,
 ( #837, #815, #838, #833, #822 ),
 .UNSPECIFIED., .F., .F.,
 ( 4, 1, 4 ),
 ( 2.309401076760115900E-007, 0.001963221855352397200, 0.003926212770597118300 ),
 .UNSPECIFIED. ) ;
#7 = B_SPLINE_CURVE_WITH_KNOTS ( 'NONE', 3,
 ( #704, #701, #705, #706, #715, #713 ),
 .UNSPECIFIED., .F., .F.,
 ( 4, 2, 4 ),
 ( 0.003590232157103024700, 0.004583587437528458000, 0.005576942717953890400 ),
 .UNSPECIFIED. ) ;
#8 = B_SPLINE_CURVE_WITH_KNOTS ( 'NONE', 3,
 ( #168, #154, #171, #133, #131, #141 ),
 .UNSPECIFIED., .F., .F.,
 ( 4, 2, 4 ),
 ( 0.009976927586544791900, 0.01097114669372080600, 0.01196536580089682000 ),
 .UNSPECIFIED. ) ;
#9 = B_SPLINE_CURVE_WITH_KNOTS ( 'NONE', 3,
 ( #149, #160, #177, #134, #125 ),
 .UNSPECIFIED., .F., .F.,
 ( 4, 1, 4 ),
 ( 2.309401076760115900E-007, 0.001963221855352404200, 0.003926212770597132200 ),
 .UNSPECIFIED. ) ;
#10 = B_SPLINE_CURVE_WITH_KNOTS ( 'NONE', 3,
 ( #127, #136, #132, #129 ),
 .UNSPECIFIED., .F., .F.,
 ( 4, 4 ),
 ( 0.005355627874768245600, 0.007339030921369232500 ),
 .UNSPECIFIED. ) ;
#11 = B_SPLINE_CURVE_WITH_KNOTS ( 'NONE', 3,
 ( #754, #756, #767, #765, #769, #771 ),
 .UNSPECIFIED., .F., .F.,
 ( 4, 2, 4 ),
 ( 0.003376267460957325800, 0.004365947667862786100, 0.005355627874768245600 ),
 .UNSPECIFIED. ) ;
#12 = B_SPLINE_CURVE_WITH_KNOTS ( 'NONE', 3,
 ( #817, #825, #700, #711, #707, #708 ),
 .UNSPECIFIED., .F., .F.,
 ( 4, 2, 4 ),
 ( 0.009156195017130858100, 0.01014282396278960400, 0.01112945290844834900 ),
 .UNSPECIFIED. ) ;
#13 = B_SPLINE_CURVE_WITH_KNOTS ( 'NONE', 3,
 ( #836, #826, #841, #829, #842, #823 ),
 .UNSPECIFIED., .F., .F.,
 ( 4, 2, 4 ),
 ( 0.005576942717953890400, 0.006570991099213344100, 0.007565039480472797800 ),
 .UNSPECIFIED. ) ;
#14 = B_SPLINE_CURVE_WITH_KNOTS ( 'NONE', 3,
 ( #820, #827, #810, #811, #832, #812 ),
 .UNSPECIFIED., .F., .F.,
 ( 4, 2, 4 ),
 ( 0.001986463835458912900, 0.002975865905125204700, 0.003965267974791496400 ),
 .UNSPECIFIED. ) ;
#15 = ADVANCED_BREP_SHAPE_REPRESENTATION ( 'ALP0820', ( #3, #617 ), #606 ) ;
#16 = B_SPLINE_CURVE_WITH_KNOTS ( 'NONE', 3,
 ( #727, #737, #777, #774, #781, #755 ),
 .UNSPECIFIED., .F., .F.,
 ( 4, 2, 4 ),
 ( 0.01196536580089682000, 0.01295889168820021400, 0.01395241757550360800 ),
 .UNSPECIFIED. ) ;
#17 = B_SPLINE_CURVE_WITH_KNOTS ( 'NONE', 3,
 ( #698, #699, #703, #712, #702 ),
 .UNSPECIFIED., .F., .F.,
 ( 4, 1, 4 ),
 ( 2.309401076759609300E-007, 0.001963221855352405500, 0.003926212770597134800 ),
 .UNSPECIFIED. ) ;
#18 = B_SPLINE_CURVE_WITH_KNOTS ( 'NONE', 3,
 ( #746, #738, #748, #728 ),
 .UNSPECIFIED., .F., .F.,
 ( 4, 4 ),
 ( 0.007178906956775414600, 0.009156195017130858100 ),
 .UNSPECIFIED. ) ;
#19 = B_SPLINE_CURVE_WITH_KNOTS ( 'NONE', 3,
 ( #143, #126, #146, #147 ),
 .UNSPECIFIED., .F., .F.,
 ( 4, 4 ),
 ( 2.380739684940872400E-007, 0.001986463835458901200 ),
 .UNSPECIFIED. ) ;
#20 = B_SPLINE_CURVE_WITH_KNOTS ( 'NONE', 3,
 ( #158, #156, #165, #152, #166 ),
 .UNSPECIFIED., .F., .F.,
 ( 4, 1, 4 ),
 ( 2.309401076758833400E-007, 0.001963221855352398500, 0.003926212770597121800 ),
 .UNSPECIFIED. ) ;
#21 = B_SPLINE_CURVE_WITH_KNOTS ( 'NONE', 3,
 ( #193, #199, #218, #24, #35, #37 ),
 .UNSPECIFIED., .F., .F.,
 ( 4, 2, 4 ),
 ( 0.001986463835458901200, 0.002975865905125193000, 0.003965267974791485100 ),
 .UNSPECIFIED. ) ;
#22 = UNCERTAINTY_MEASURE_WITH_UNIT (LENGTH_MEASURE( 1.000000000000000100E-005 ), #807, 'distance_accuracy_value', 'NONE');
#23 = B_SPLINE_CURVE_WITH_KNOTS ( 'NONE', 3,
 ( #725, #741, #736, #751, #745, #721 ),
 .UNSPECIFIED., .F., .F.,
 ( 4, 2, 4 ),
 ( 0.001986463835458914700, 0.002975865905125196900, 0.003965267974791479100 ),
 .UNSPECIFIED. ) ;
#24 = CARTESIAN_POINT ( 'NONE',  ( 0.5571205367732989800, 4.165125822980408000, -3.604328138612306300 ) ) ;
#25 = CARTESIAN_POINT ( 'NONE',  ( 3.399999999999986100, 4.299999999999999800, -1.962990915244721600 ) ) ;
#26 = PLANE ( 'NONE',  #693 ) ;
#27 = DIRECTION ( 'NONE',  ( 0.8660254037844388200, 0.0000000000000000000, 0.4999999999999996700 ) ) ;
#28 = CARTESIAN_POINT ( 'NONE',  ( -6.520070935385675800E-015, 4.299999999999999800, -3.925981830489443200 ) ) ;
#29 = DIRECTION ( 'NONE',  ( 0.0000000000000000000, -1.000000000000000000, 0.0000000000000000000 ) ) ;
#30 = DIRECTION ( 'NONE',  ( 0.0000000000000000000, 0.0000000000000000000, 1.000000000000000000 ) ) ;
#31 = DIRECTION ( 'NONE',  ( 0.0000000000000000000, 0.0000000000000000000, -1.000000000000000000 ) ) ;
#32 = DIRECTION ( 'NONE',  ( 0.0000000000000000000, 0.0000000000000000000, 1.000000000000000000 ) ) ;
#33 = DIRECTION ( 'NONE',  ( 0.0000000000000000000, 0.0000000000000000000, 1.000000000000000000 ) ) ;
#34 = PLANE ( 'NONE',  #585 ) ;
#35 = CARTESIAN_POINT ( 'NONE',  ( 0.2774030582473008800, 4.088791934661043300, -3.765823100136335800 ) ) ;
#36 = DIRECTION ( 'NONE',  ( -1.000000000000000000, 0.0000000000000000000, 0.0000000000000000000 ) ) ;
#37 = CARTESIAN_POINT ( 'NONE',  ( -6.340460840721347400E-015, 3.996324248578059900, -3.925981830489443200 ) ) ;
#38 = DIRECTION ( 'NONE',  ( -0.8660254037844390400, 0.0000000000000000000, 0.4999999999999991700 ) ) ;
#39 = DIRECTION ( 'NONE',  ( -0.0000000000000000000, 1.000000000000000000, -0.0000000000000000000 ) ) ;
#40 = DIRECTION ( 'NONE',  ( 1.000000000000000000, 0.0000000000000000000, 0.0000000000000000000 ) ) ;
#41 = PLANE ( 'NONE',  #580 ) ;
#42 = DIRECTION ( 'NONE',  ( 0.0000000000000000000, -1.000000000000000000, 0.0000000000000000000 ) ) ;
#43 = DIRECTION ( 'NONE',  ( -3.624628615055125000E-020, -1.000000000000000000, 0.0000000000000000000 ) ) ;
#44 = DIRECTION ( 'NONE',  ( -0.0000000000000000000, -1.000000000000000000, -0.0000000000000000000 ) ) ;
#45 = CARTESIAN_POINT ( 'NONE',  ( -3.400000000000007000, 4.299999999999999800, -1.962990915244714700 ) ) ;
#46 = DIRECTION ( 'NONE',  ( 0.0000000000000000000, -1.000000000000000000, 0.0000000000000000000 ) ) ;
#47 = DIRECTION ( 'NONE',  ( -0.4999999999999996700, 0.0000000000000000000, 0.8660254037844388200 ) ) ;
#48 = CARTESIAN_POINT ( 'NONE',  ( 0.0000000000000000000, 4.299999999999999800, 0.0000000000000000000 ) ) ;
#49 = CARTESIAN_POINT ( 'NONE',  ( 0.0000000000000000000, 4.300000000000001600, 0.0000000000000000000 ) ) ;
#50 = DIRECTION ( 'NONE',  ( -0.4999999999999992200, 0.0000000000000000000, -0.8660254037844391500 ) ) ;
#51 = DIRECTION ( 'NONE',  ( -0.0000000000000000000, 1.000000000000000000, -0.0000000000000000000 ) ) ;
#52 = CARTESIAN_POINT ( 'NONE',  ( 0.0000000000000000000, 4.300000000000001600, 0.0000000000000000000 ) ) ;
#53 = DIRECTION ( 'NONE',  ( 0.0000000000000000000, 0.0000000000000000000, 1.000000000000000000 ) ) ;
#54 = CARTESIAN_POINT ( 'NONE',  ( 0.0000000000000000000, 4.299999999999999800, 0.0000000000000000000 ) ) ;
#55 = DIRECTION ( 'NONE',  ( 0.0000000000000000000, -0.0000000000000000000, -1.000000000000000000 ) ) ;
#56 = DIRECTION ( 'NONE',  ( 0.0000000000000000000, 0.0000000000000000000, -1.000000000000000000 ) ) ;
#57 = CARTESIAN_POINT ( 'NONE',  ( 3.399999999999986100, 4.299999999999999800, 1.962990915244745800 ) ) ;
#58 = DIRECTION ( 'NONE',  ( 0.0000000000000000000, 0.0000000000000000000, -1.000000000000000000 ) ) ;
#59 = DIRECTION ( 'NONE',  ( 0.0000000000000000000, 0.0000000000000000000, -1.000000000000000000 ) ) ;
#60 = CARTESIAN_POINT ( 'NONE',  ( 0.0000000000000000000, 0.2999999999999999900, 0.0000000000000000000 ) ) ;
#61 = CARTESIAN_POINT ( 'NONE',  ( 0.0000000000000000000, 5.983272012383352500, 0.0000000000000000000 ) ) ;
#62 = PLANE ( 'NONE',  #574 ) ;
#63 = CARTESIAN_POINT ( 'NONE',  ( 0.0000000000000000000, 5.983272012383352500, 0.0000000000000000000 ) ) ;
#64 = DIRECTION ( 'NONE',  ( 1.000000000000000000, 0.0000000000000000000, 0.0000000000000000000 ) ) ;
#65 = CARTESIAN_POINT ( 'NONE',  ( 0.0000000000000000000, 0.2999999999999999900, 0.0000000000000000000 ) ) ;
#66 = CARTESIAN_POINT ( 'NONE',  ( -3.801396569324266100E-015, 4.299999999999999800, 3.925981830489464000 ) ) ;
#67 = DIRECTION ( 'NONE',  ( -0.0000000000000000000, 1.000000000000000000, -0.0000000000000000000 ) ) ;
#68 = DIRECTION ( 'NONE',  ( 0.0000000000000000000, 0.0000000000000000000, 1.000000000000000000 ) ) ;
#69 = PLANE ( 'NONE',  #587 ) ;
#70 = PLANE ( 'NONE',  #611 ) ;
#71 = DIRECTION ( 'NONE',  ( -0.0000000000000000000, 1.000000000000000000, -0.0000000000000000000 ) ) ;
#72 = CARTESIAN_POINT ( 'NONE',  ( -3.801360323038115400E-015, 1.000000000000000000, 0.0000000000000000000 ) ) ;
#73 = DIRECTION ( 'NONE',  ( 0.0000000000000000000, 0.0000000000000000000, -1.000000000000000000 ) ) ;
#74 = CARTESIAN_POINT ( 'NONE',  ( -6.520070935385675800E-015, 1.346506813566458800, -3.925981830489443200 ) ) ;
#75 = CARTESIAN_POINT ( 'NONE',  ( -6.340460840721347400E-015, 3.996324248578059900, -3.925981830489443200 ) ) ;
#76 = DIRECTION ( 'NONE',  ( 0.0000000000000000000, 1.000000000000000000, 0.0000000000000000000 ) ) ;
#77 = DIRECTION ( 'NONE',  ( -1.000000000000000000, 3.624628615055124400E-020, 0.0000000000000000000 ) ) ;
#78 = CARTESIAN_POINT ( 'NONE',  ( -3.801360323038115400E-015, 1.000000000000000000, 0.0000000000000000000 ) ) ;
#79 = PLANE ( 'NONE',  #589 ) ;
#80 = CARTESIAN_POINT ( 'NONE',  ( 0.0000000000000000000, 0.0000000000000000000, 0.0000000000000000000 ) ) ;
#81 = DIRECTION ( 'NONE',  ( 0.0000000000000000000, -1.000000000000000000, 0.0000000000000000000 ) ) ;
#82 = DIRECTION ( 'NONE',  ( -3.624628615055125000E-020, -1.000000000000000000, 0.0000000000000000000 ) ) ;
#83 = DIRECTION ( 'NONE',  ( 1.000000000000000000, 0.0000000000000000000, 0.0000000000000000000 ) ) ;
#84 = CARTESIAN_POINT ( 'NONE',  ( 0.0000000000000000000, 5.983272012383352500, 0.0000000000000000000 ) ) ;
#85 = CARTESIAN_POINT ( 'NONE',  ( 0.0000000000000000000, 5.983272012383352500, 0.0000000000000000000 ) ) ;
#86 = DIRECTION ( 'NONE',  ( 0.0000000000000000000, -0.0000000000000000000, 1.000000000000000000 ) ) ;
#87 = CARTESIAN_POINT ( 'NONE',  ( -3.801396569324266100E-015, 0.0000000000000000000, 0.0000000000000000000 ) ) ;
#88 = DIRECTION ( 'NONE',  ( -0.0000000000000000000, -1.000000000000000000, -0.0000000000000000000 ) ) ;
#89 = DIRECTION ( 'NONE',  ( 0.8660254037844384900, 0.0000000000000000000, -0.5000000000000001100 ) ) ;
#90 = DIRECTION ( 'NONE',  ( -1.000000000000000000, 3.624628615055124400E-020, 0.0000000000000000000 ) ) ;
#91 = DIRECTION ( 'NONE',  ( 3.624628615055125000E-020, 1.000000000000000000, -0.0000000000000000000 ) ) ;
#92 = CARTESIAN_POINT ( 'NONE',  ( -3.400000000000007000, 1.346506813566456000, -1.962990915244714700 ) ) ;
#93 = CARTESIAN_POINT ( 'NONE',  ( -3.801396569324266100E-015, 1.346506813566451100, 3.925981830489464000 ) ) ;
#94 = CARTESIAN_POINT ( 'NONE',  ( -3.801396569324266100E-015, 0.0000000000000000000, 0.0000000000000000000 ) ) ;
#95 = DIRECTION ( 'NONE',  ( 0.0000000000000000000, 0.0000000000000000000, -1.000000000000000000 ) ) ;
#96 = DIRECTION ( 'NONE',  ( 0.0000000000000000000, -0.0000000000000000000, 1.000000000000000000 ) ) ;
#97 = CARTESIAN_POINT ( 'NONE',  ( 0.0000000000000000000, 4.299999999999999800, -3.399999999999987000 ) ) ;
#98 = DIRECTION ( 'NONE',  ( 0.0000000000000000000, -1.000000000000000000, 0.0000000000000000000 ) ) ;
#99 = CARTESIAN_POINT ( 'NONE',  ( 3.980102097228898200E-016, 0.2999999999999999900, 3.250000000000000400 ) ) ;
#100 = CARTESIAN_POINT ( 'NONE',  ( 1.699999999999991700, 4.299999999999999800, -2.944486372867079800 ) ) ;
#101 = CARTESIAN_POINT ( 'NONE',  ( 0.0000000000000000000, 5.983272012383352500, 0.0000000000000000000 ) ) ;
#102 = DIRECTION ( 'NONE',  ( 0.0000000000000000000, -1.000000000000000000, 0.0000000000000000000 ) ) ;
#103 = CARTESIAN_POINT ( 'NONE',  ( 0.0000000000000000000, 5.983272012383352500, 0.0000000000000000000 ) ) ;
#104 = CARTESIAN_POINT ( 'NONE',  ( 0.0000000000000000000, 0.2999999999999999900, 0.0000000000000000000 ) ) ;
#105 = DIRECTION ( 'NONE',  ( 0.4999999999999998300, 0.0000000000000000000, -0.8660254037844387100 ) ) ;
#106 = PLANE ( 'NONE',  #590 ) ;
#107 = CARTESIAN_POINT ( 'NONE',  ( 0.0000000000000000000, 4.299999999999999800, 0.0000000000000000000 ) ) ;
#108 = DIRECTION ( 'NONE',  ( 0.0000000000000000000, 0.0000000000000000000, -1.000000000000000000 ) ) ;
#109 = CARTESIAN_POINT ( 'NONE',  ( 0.0000000000000000000, 3.924999999999999800, 1.649999999999998600 ) ) ;
#110 = CARTESIAN_POINT ( 'NONE',  ( 0.0000000000000000000, 0.0000000000000000000, -3.250000000000000400 ) ) ;
#111 = CARTESIAN_POINT ( 'NONE',  ( 0.0000000000000000000, 4.300000000000001600, 2.024999999999999000 ) ) ;
#112 = DIRECTION ( 'NONE',  ( 0.0000000000000000000, -1.000000000000000000, 0.0000000000000000000 ) ) ;
#113 = DIRECTION ( 'NONE',  ( 0.0000000000000000000, 1.000000000000000000, 0.0000000000000000000 ) ) ;
#114 = DIRECTION ( 'NONE',  ( 0.0000000000000000000, 0.0000000000000000000, -1.000000000000000000 ) ) ;
#115 = DIRECTION ( 'NONE',  ( 0.5000000000000002200, -0.0000000000000000000, 0.8660254037844386000 ) ) ;
#116 = DIRECTION ( 'NONE',  ( 3.624628615055125000E-020, 1.000000000000000000, -0.0000000000000000000 ) ) ;
#117 = CARTESIAN_POINT ( 'NONE',  ( -3.400000000000007000, 4.299999999999999800, 1.962990915244735300 ) ) ;
#118 = PLANE ( 'NONE',  #608 ) ;
#119 = DIRECTION ( 'NONE',  ( -0.8660254037844387100, 0.0000000000000000000, -0.4999999999999998300 ) ) ;
#120 = CARTESIAN_POINT ( 'NONE',  ( 0.0000000000000000000, 5.983272012383352500, 0.0000000000000000000 ) ) ;
#121 = DIRECTION ( 'NONE',  ( 0.0000000000000000000, 0.0000000000000000000, -1.000000000000000000 ) ) ;
#122 = DIRECTION ( 'NONE',  ( 0.0000000000000000000, -1.000000000000000000, 0.0000000000000000000 ) ) ;
#123 = DIRECTION ( 'NONE',  ( 0.0000000000000000000, 0.0000000000000000000, -1.000000000000000000 ) ) ;
#124 = CARTESIAN_POINT ( 'NONE',  ( -1.699999999999996800, 4.299999999999999800, -2.944486372867085100 ) ) ;
#125 = CARTESIAN_POINT ( 'NONE',  ( -6.520070935385675800E-015, 1.346506813566458800, -3.925981830489443200 ) ) ;
#126 = CARTESIAN_POINT ( 'NONE',  ( 2.843806123042238000, 4.181722207565035100, -2.284109599827898400 ) ) ;
#127 = CARTESIAN_POINT ( 'NONE',  ( 3.399999999999986100, 1.543750000000003700, 6.006864035428261600E-020 ) ) ;
#128 = CARTESIAN_POINT ( 'NONE',  ( 3.399999999999986100, 1.543750000000003700, 6.006864035428261600E-020 ) ) ;
#129 = CARTESIAN_POINT ( 'NONE',  ( 3.399999999999986100, 1.346506813566454200, 1.962990915244745800 ) ) ;
#130 = CARTESIAN_POINT ( 'NONE',  ( 3.980102097228898200E-016, 0.2999999999999999900, 3.250000000000000400 ) ) ;
#131 = CARTESIAN_POINT ( 'NONE',  ( 3.399999999999986100, 4.300000000000000700, 0.3322035126941452800 ) ) ;
#132 = CARTESIAN_POINT ( 'NONE',  ( 3.399999999999986100, 1.468652409558377300, 1.311547736621163400 ) ) ;
#133 = CARTESIAN_POINT ( 'NONE',  ( 3.399999999999985300, 4.270641562339426000, 0.6687444612413933100 ) ) ;
#134 = CARTESIAN_POINT ( 'NONE',  ( -0.5666666666666737600, 1.469193745769254800, -3.598816677948655700 ) ) ;
#135 = CARTESIAN_POINT ( 'NONE',  ( 3.399999999999986100, 4.299999999999999800, 1.962990915244745800 ) ) ;
#136 = CARTESIAN_POINT ( 'NONE',  ( 3.399999999999986100, 1.543750000000004000, 0.6554283097441305800 ) ) ;
#137 = CARTESIAN_POINT ( 'NONE',  ( 3.980102097228898200E-016, 0.0000000000000000000, 3.250000000000000400 ) ) ;
#138 = CARTESIAN_POINT ( 'NONE',  ( 0.0000000000000000000, 0.2999999999999999300, 1.649999999999998400 ) ) ;
#139 = CARTESIAN_POINT ( 'NONE',  ( 2.020667218593130500E-016, 0.2999999999999999300, -1.649999999999998400 ) ) ;
#140 = CARTESIAN_POINT ( 'NONE',  ( -3.400000000000007000, 3.996324248578047900, 1.962990915244735300 ) ) ;
#141 = CARTESIAN_POINT ( 'NONE',  ( 3.399999999999986100, 4.299999999999999800, 0.0000000000000000000 ) ) ;
#142 = CARTESIAN_POINT ( 'NONE',  ( 0.0000000000000000000, 0.2999999999999999900, -3.250000000000000400 ) ) ;
#143 = CARTESIAN_POINT ( 'NONE',  ( 3.399999999999986100, 3.996324248578361000, -1.962990915245169400 ) ) ;
#144 = CARTESIAN_POINT ( 'NONE',  ( -3.400000000000007000, 1.346506813566452000, 1.962990915244735300 ) ) ;
#145 = CARTESIAN_POINT ( 'NONE',  ( 3.399999999999986100, 3.996324248578361000, -1.962990915245169400 ) ) ;
#146 = CARTESIAN_POINT ( 'NONE',  ( 2.279261137964820000, 4.300000000000001600, -2.610049798931999300 ) ) ;
#147 = CARTESIAN_POINT ( 'NONE',  ( 1.699999999999991700, 4.299999999999999800, -2.944486372867079800 ) ) ;
#148 = CARTESIAN_POINT ( 'NONE',  ( 3.399999999999986100, 4.299999999999999800, 0.0000000000000000000 ) ) ;
#149 = CARTESIAN_POINT ( 'NONE',  ( -3.400000000000007000, 1.346506813566456000, -1.962990915244714700 ) ) ;
#150 = CARTESIAN_POINT ( 'NONE',  ( 2.479909768273388800E-016, 4.300000000000001600, -2.024999999999999000 ) ) ;
#151 = CARTESIAN_POINT ( 'NONE',  ( -1.700000000000004600, 4.299999999999999800, 2.944486372867101100 ) ) ;
#152 = CARTESIAN_POINT ( 'NONE',  ( 2.833333333333322800, 1.469193745769254500, -2.290156067785508400 ) ) ;
#153 = CARTESIAN_POINT ( 'NONE',  ( -3.400000000000007000, 1.543749999999998800, 4.164399802413663100E-016 ) ) ;
#154 = CARTESIAN_POINT ( 'NONE',  ( 3.399999999999986100, 4.087968208735960100, 1.645526924844127500 ) ) ;
#155 = CARTESIAN_POINT ( 'NONE',  ( 4.849999999999996100, 0.0000000000000000000, 5.939536975864662000E-016 ) ) ;
#156 = CARTESIAN_POINT ( 'NONE',  ( 0.5666666666666592100, 1.469193745769254100, -3.598816677948655700 ) ) ;
#157 = CARTESIAN_POINT ( 'NONE',  ( -3.400000000000007000, 3.996324248578052800, -1.962990915244714300 ) ) ;
#158 = CARTESIAN_POINT ( 'NONE',  ( -6.520070935385675800E-015, 1.346506813566458800, -3.925981830489443200 ) ) ;
#159 = DIRECTION ( 'NONE',  ( -0.0000000000000000000, -1.000000000000000000, -0.0000000000000000000 ) ) ;
#160 = CARTESIAN_POINT ( 'NONE',  ( -2.833333333333339300, 1.469193745769252100, -2.290156067785501300 ) ) ;
#161 = CARTESIAN_POINT ( 'NONE',  ( 2.020667218593131000E-016, 3.924999999999999800, -1.649999999999998600 ) ) ;
#162 = CARTESIAN_POINT ( 'NONE',  ( 4.849999999999996100, 1.000000000000000000, 0.0000000000000000000 ) ) ;
#163 = CARTESIAN_POINT ( 'NONE',  ( -4.850000000000002300, 3.515889756603470600E-019, 0.0000000000000000000 ) ) ;
#164 = CARTESIAN_POINT ( 'NONE',  ( -4.850000000000002300, 1.000000000000000000, 5.939536975864662000E-016 ) ) ;
#165 = CARTESIAN_POINT ( 'NONE',  ( 1.699999999999988900, 1.618306254230754700, -2.944486372867082900 ) ) ;
#166 = CARTESIAN_POINT ( 'NONE',  ( 3.399999999999986100, 1.346506813566458600, -1.962990915244721600 ) ) ;
#167 = DIRECTION ( 'NONE',  ( 0.0000000000000000000, -0.5000000000000008900, -0.8660254037844381500 ) ) ;
#168 = CARTESIAN_POINT ( 'NONE',  ( 3.399999999999986100, 3.996324248578054600, 1.962990915244746200 ) ) ;
#169 = CARTESIAN_POINT ( 'NONE',  ( 1.700000000000001100, 4.299999999999999800, 2.944486372867098900 ) ) ;
#170 = CARTESIAN_POINT ( 'NONE',  ( -3.400000000000007000, 4.299999999999999800, 0.0000000000000000000 ) ) ;
#171 = CARTESIAN_POINT ( 'NONE',  ( 3.399999999999986600, 4.164250851599748900, 1.324001845399060300 ) ) ;
#172 = CARTESIAN_POINT ( 'NONE',  ( 0.0000000000000000000, 5.983272012383352500, -0.4844873515933190200 ) ) ;
#173 = CARTESIAN_POINT ( 'NONE',  ( 3.399999999999986100, 3.996324248578054600, 1.962990915244746200 ) ) ;
#174 = CARTESIAN_POINT ( 'NONE',  ( 3.399999999999986100, 1.346506813566454200, 1.962990915244745800 ) ) ;
#175 = CARTESIAN_POINT ( 'NONE',  ( -3.924137379306566400E-015, 3.996324248578047900, 3.925981830489464000 ) ) ;
#176 = CARTESIAN_POINT ( 'NONE',  ( 3.399999999999986100, 1.346506813566458600, -1.962990915244721600 ) ) ;
#177 = CARTESIAN_POINT ( 'NONE',  ( -1.700000000000007100, 1.618306254230754700, -2.944486372867078000 ) ) ;
#178 = CARTESIAN_POINT ( 'NONE',  ( -3.801396569324266100E-015, 1.757944878301735300E-019, 0.0000000000000000000 ) ) ;
#179 = DIRECTION ( 'NONE',  ( -0.0000000000000000000, -1.000000000000000000, -0.0000000000000000000 ) ) ;
#180 = DIRECTION ( 'NONE',  ( 3.624628615055125000E-020, 1.000000000000000000, -0.0000000000000000000 ) ) ;
#181 = DIRECTION ( 'NONE',  ( -1.000000000000000000, 3.624628615055124400E-020, 0.0000000000000000000 ) ) ;
#182 = DIRECTION ( 'NONE',  ( -0.0000000000000000000, 1.000000000000000000, -0.0000000000000000000 ) ) ;
#183 = DIRECTION ( 'NONE',  ( 0.0000000000000000000, 0.0000000000000000000, 1.000000000000000000 ) ) ;
#184 = CARTESIAN_POINT ( 'NONE',  ( 0.0000000000000000000, 0.2999999999999999900, 0.0000000000000000000 ) ) ;
#185 = DIRECTION ( 'NONE',  ( 0.0000000000000000000, 1.000000000000000000, 0.0000000000000000000 ) ) ;
#186 = DIRECTION ( 'NONE',  ( 0.0000000000000000000, -1.000000000000000000, 0.0000000000000000000 ) ) ;
#187 = DIRECTION ( 'NONE',  ( 0.0000000000000000000, 0.0000000000000000000, -1.000000000000000000 ) ) ;
#188 = DIRECTION ( 'NONE',  ( 0.0000000000000000000, 0.0000000000000000000, 1.000000000000000000 ) ) ;
#189 = CARTESIAN_POINT ( 'NONE',  ( 0.0000000000000000000, 3.924999999999999800, 0.0000000000000000000 ) ) ;
#190 = CARTESIAN_POINT ( 'NONE',  ( 0.0000000000000000000, 4.299999999999999800, 0.0000000000000000000 ) ) ;
#191 = CARTESIAN_POINT ( 'NONE',  ( 1.120738862035093800, 4.299999999999990100, 3.278922946802226500 ) ) ;
#192 = DIRECTION ( 'NONE',  ( 0.0000000000000000000, 1.000000000000000000, 0.0000000000000000000 ) ) ;
#193 = CARTESIAN_POINT ( 'NONE',  ( 1.699999999999991700, 4.299999999999999800, -2.944486372867079800 ) ) ;
#194 = DIRECTION ( 'NONE',  ( 0.0000000000000000000, 0.0000000000000000000, 1.000000000000000000 ) ) ;
#195 = DIRECTION ( 'NONE',  ( -1.000000000000000000, 0.0000000000000000000, 0.0000000000000000000 ) ) ;
#196 = CARTESIAN_POINT ( 'NONE',  ( 0.0000000000000000000, 4.299999999999999800, 0.0000000000000000000 ) ) ;
#197 = CARTESIAN_POINT ( 'NONE',  ( 0.5561938769575981400, 4.181722207564990700, 3.604863145906371800 ) ) ;
#198 = CARTESIAN_POINT ( 'NONE',  ( -3.801360323038115400E-015, 1.000000000000000000, 0.0000000000000000000 ) ) ;
#199 = CARTESIAN_POINT ( 'NONE',  ( 1.411451648704016500, 4.300000000000001600, -3.111079841162035700 ) ) ;
#200 = DIRECTION ( 'NONE',  ( -0.0000000000000000000, 1.000000000000000000, -0.0000000000000000000 ) ) ;
#201 = CARTESIAN_POINT ( 'NONE',  ( -2.843806123042405400, 4.181722207564989800, 2.284109599827827800 ) ) ;
#202 = CARTESIAN_POINT ( 'NONE',  ( -2.279261137964911000, 4.299999999999989200, 2.610049798931972200 ) ) ;
#203 = CARTESIAN_POINT ( 'NONE',  ( -3.924137379306566400E-015, 3.996324248578047900, 3.925981830489464000 ) ) ;
#204 = CARTESIAN_POINT ( 'NONE',  ( -1.700000000000004600, 4.299999999999999800, 2.944486372867101100 ) ) ;
#205 = CARTESIAN_POINT ( 'NONE',  ( 1.700000000000001100, 4.299999999999999800, 2.944486372867098900 ) ) ;
#206 = CARTESIAN_POINT ( 'NONE',  ( -3.400000000000007000, 3.996324248578047900, 1.962990915244735300 ) ) ;
#207 = DIRECTION ( 'NONE',  ( 3.624628615055125000E-020, 1.000000000000000000, -0.0000000000000000000 ) ) ;
#208 = CARTESIAN_POINT ( 'NONE',  ( 0.0000000000000000000, 4.300000000000001600, 0.0000000000000000000 ) ) ;
#209 = DIRECTION ( 'NONE',  ( 0.0000000000000000000, 0.0000000000000000000, 1.000000000000000000 ) ) ;
#210 = DIRECTION ( 'NONE',  ( 0.0000000000000000000, 0.0000000000000000000, -1.000000000000000000 ) ) ;
#211 = CARTESIAN_POINT ( 'NONE',  ( 0.0000000000000000000, 4.299999999999999800, 0.0000000000000000000 ) ) ;
#212 = DIRECTION ( 'NONE',  ( 0.0000000000000000000, 0.0000000000000000000, 1.000000000000000000 ) ) ;
#213 = CARTESIAN_POINT ( 'NONE',  ( -4.850000000000002300, 1.000000000000000000, 5.939536975864662000E-016 ) ) ;
#214 = DIRECTION ( 'NONE',  ( -0.9363291775690444400, -0.3511234415883919300, 1.146672530258203900E-016 ) ) ;
#215 = DIRECTION ( 'NONE',  ( 0.0000000000000000000, 1.000000000000000000, 0.0000000000000000000 ) ) ;
#216 = CARTESIAN_POINT ( 'NONE',  ( 0.0000000000000000000, 0.0000000000000000000, 0.0000000000000000000 ) ) ;
#217 = DIRECTION ( 'NONE',  ( 0.0000000000000000000, -1.000000000000000000, 0.0000000000000000000 ) ) ;
#218 = CARTESIAN_POINT ( 'NONE',  ( 1.123279411690672400, 4.270921243712998600, -3.277456159774666300 ) ) ;
#219 = CARTESIAN_POINT ( 'NONE',  ( 0.0000000000000000000, 3.924999999999999800, 0.0000000000000000000 ) ) ;
#220 = DIRECTION ( 'NONE',  ( -0.0000000000000000000, 1.000000000000000000, -0.0000000000000000000 ) ) ;
#221 = DIRECTION ( 'NONE',  ( 0.0000000000000000000, 0.0000000000000000000, 1.000000000000000000 ) ) ;
#222 = CARTESIAN_POINT ( 'NONE',  ( 4.849999999999996100, 1.000000000000000000, 0.0000000000000000000 ) ) ;
#223 = DIRECTION ( 'NONE',  ( 0.9363291775690444400, -0.3511234415883919300, 0.0000000000000000000 ) ) ;
#224 = PRODUCT_DEFINITION_SHAPE ( 'NONE', 'NONE',  #577 ) ;
#225 = DESIGN_CONTEXT ( 'detailed design', #792, 'design' ) ;
#226 = ADVANCED_FACE ( 'NONE', ( #272, #407 ), #26, .T. ) ;
#227 = ADVANCED_FACE ( 'NONE', ( #417 ), #461, .F. ) ;
#228 = ADVANCED_FACE ( 'NONE', ( #426 ), #405, .F. ) ;
#229 = ADVANCED_FACE ( 'NONE', ( #442 ), #431, .T. ) ;
#230 = ADVANCED_FACE ( 'NONE', ( #460 ), #41, .F. ) ;
#231 = ADVANCED_FACE ( 'NONE', ( #423 ), #69, .F. ) ;
#232 = ADVANCED_FACE ( 'NONE', ( #454 ), #70, .F. ) ;
#233 = ADVANCED_FACE ( 'NONE', ( #403 ), #433, .T. ) ;
#234 = ADVANCED_FACE ( 'NONE', ( #418 ), #427, .F. ) ;
#235 = ADVANCED_FACE ( 'NONE', ( #445 ), #62, .F. ) ;
#236 = ADVANCED_FACE ( 'NONE', ( #404 ), #457, .F. ) ;
#237 = ADVANCED_FACE ( 'NONE', ( #408 ), #409, .T. ) ;
#238 = ADVANCED_FACE ( 'NONE', ( #419 ), #448, .F. ) ;
#239 = ADVANCED_FACE ( 'NONE', ( #435 ), #34, .F. ) ;
#240 = ADVANCED_FACE ( 'NONE', ( #406, #424 ), #79, .F. ) ;
#241 = ADVANCED_FACE ( 'NONE', ( #438 ), #420, .T. ) ;
#242 = ADVANCED_FACE ( 'NONE', ( #446 ), #507, .T. ) ;
#243 = ADVANCED_FACE ( 'NONE', ( #437 ), #467, .T. ) ;
#244 = ADVANCED_FACE ( 'NONE', ( #425 ), #488, .T. ) ;
#245 = ADVANCED_FACE ( 'NONE', ( #439 ), #509, .T. ) ;
#246 = ADVANCED_FACE ( 'NONE', ( #434 ), #514, .T. ) ;
#247 = ADVANCED_FACE ( 'NONE', ( #450 ), #485, .F. ) ;
#248 = ADVANCED_FACE ( 'NONE', ( #472 ), #118, .F. ) ;
#249 = ADVANCED_FACE ( 'NONE', ( #519, #508 ), #106, .T. ) ;
#250 = ADVANCED_FACE ( 'NONE', ( #468 ), #515, .T. ) ;
#251 = ADVANCED_FACE ( 'NONE', ( #494 ), #503, .T. ) ;
#252 = VERTEX_POINT ( 'NONE', #97 ) ;
#253 = VERTEX_POINT ( 'NONE', #111 ) ;
#254 = VERTEX_POINT ( 'NONE', #124 ) ;
#255 = VERTEX_POINT ( 'NONE', #110 ) ;
#256 = VERTEX_POINT ( 'NONE', #93 ) ;
#257 = VERTEX_POINT ( 'NONE', #99 ) ;
#258 = VERTEX_POINT ( 'NONE', #100 ) ;
#259 = VERTEX_POINT ( 'NONE', #74 ) ;
#260 = VERTEX_POINT ( 'NONE', #75 ) ;
#261 = VERTEX_POINT ( 'NONE', #92 ) ;
#262 = VERTEX_POINT ( 'NONE', #109 ) ;
#263 = VERTEX_POINT ( 'NONE', #128 ) ;
#264 = VERTEX_POINT ( 'NONE', #157 ) ;
#265 = VERTEX_POINT ( 'NONE', #138 ) ;
#266 = VERTEX_POINT ( 'NONE', #139 ) ;
#267 = CLOSED_SHELL ( 'NONE', ( #236, #234, #251, #228, #244, #229, #230, #239, #232, #248, #231, #235, #246, #241, #240, #247, #226, #237, #245, #250, #242, #243, #233, #249, #227, #238 ) ) ;
#268 = VERTEX_POINT ( 'NONE', #145 ) ;
#269 = VERTEX_POINT ( 'NONE', #161 ) ;
#270 = VERTEX_POINT ( 'NONE', #153 ) ;
#271 = VERTEX_POINT ( 'NONE', #162 ) ;
#272 = FACE_BOUND ( 'NONE', #332, .T. ) ;
#273 = VERTEX_POINT ( 'NONE', #150 ) ;
#274 = VERTEX_POINT ( 'NONE', #142 ) ;
#275 = EDGE_LOOP ( 'NONE', ( #458, #422, #441, #428 ) ) ;
#276 = EDGE_LOOP ( 'NONE', ( #307, #304, #279, #287 ) ) ;
#277 = EDGE_LOOP ( 'NONE', ( #378, #381, #390, #373, #385, #339, #356 ) ) ;
#278 = ORIENTED_EDGE ( 'NONE', *, *, #687, .T. ) ;
#279 = ORIENTED_EDGE ( 'NONE', *, *, #688, .T. ) ;
#280 = VERTEX_POINT ( 'NONE', #163 ) ;
#281 = VERTEX_POINT ( 'NONE', #170 ) ;
#282 = VERTEX_POINT ( 'NONE', #175 ) ;
#283 = ORIENTED_EDGE ( 'NONE', *, *, #660, .T. ) ;
#284 = VERTEX_POINT ( 'NONE', #169 ) ;
#285 = ORIENTED_EDGE ( 'NONE', *, *, #685, .F. ) ;
#286 = VERTEX_POINT ( 'NONE', #140 ) ;
#287 = ORIENTED_EDGE ( 'NONE', *, *, #655, .T. ) ;
#288 = EDGE_LOOP ( 'NONE', ( #316, #300, #308, #283, #320, #299, #310 ) ) ;
#289 = ORIENTED_EDGE ( 'NONE', *, *, #691, .F. ) ;
#290 = ORIENTED_EDGE ( 'NONE', *, *, #649, .T. ) ;
#291 = EDGE_LOOP ( 'NONE', ( #367, #342, #391, #379 ) ) ;
#292 = VERTEX_POINT ( 'NONE', #151 ) ;
#293 = EDGE_LOOP ( 'NONE', ( #346, #347, #382, #340, #372, #449, #430 ) ) ;
#294 = EDGE_LOOP ( 'NONE', ( #317, #311 ) ) ;
#295 = ORIENTED_EDGE ( 'NONE', *, *, #676, .T. ) ;
#296 = EDGE_LOOP ( 'NONE', ( #432, #444 ) ) ;
#297 = EDGE_LOOP ( 'NONE', ( #451, #443, #413 ) ) ;
#298 = EDGE_LOOP ( 'NONE', ( #416, #303, #295 ) ) ;
#299 = ORIENTED_EDGE ( 'NONE', *, *, #667, .T. ) ;
#300 = ORIENTED_EDGE ( 'NONE', *, *, #651, .T. ) ;
#301 = ORIENTED_EDGE ( 'NONE', *, *, #655, .F. ) ;
#302 = EDGE_LOOP ( 'NONE', ( #360, #345, #361, #368, #341 ) ) ;
#303 = ORIENTED_EDGE ( 'NONE', *, *, #651, .F. ) ;
#304 = ORIENTED_EDGE ( 'NONE', *, *, #675, .T. ) ;
#305 = EDGE_LOOP ( 'NONE', ( #415, #429, #453 ) ) ;
#306 = EDGE_LOOP ( 'NONE', ( #352, #394, #363, #344 ) ) ;
#307 = ORIENTED_EDGE ( 'NONE', *, *, #670, .F. ) ;
#308 = ORIENTED_EDGE ( 'NONE', *, *, #682, .T. ) ;
#309 = EDGE_LOOP ( 'NONE', ( #463, #456, #459, #412 ) ) ;
#310 = ORIENTED_EDGE ( 'NONE', *, *, #654, .T. ) ;
#311 = ORIENTED_EDGE ( 'NONE', *, *, #694, .F. ) ;
#312 = EDGE_LOOP ( 'NONE', ( #401, #365, #321, #380, #397, #395 ) ) ;
#313 = VERTEX_POINT ( 'NONE', #155 ) ;
#314 = EDGE_LOOP ( 'NONE', ( #370, #387, #383, #374 ) ) ;
#315 = VERTEX_POINT ( 'NONE', #174 ) ;
#316 = ORIENTED_EDGE ( 'NONE', *, *, #644, .T. ) ;
#317 = ORIENTED_EDGE ( 'NONE', *, *, #649, .F. ) ;
#318 = VERTEX_POINT ( 'NONE', #176 ) ;
#319 = EDGE_LOOP ( 'NONE', ( #421, #399, #436 ) ) ;
#320 = ORIENTED_EDGE ( 'NONE', *, *, #673, .T. ) ;
#321 = ORIENTED_EDGE ( 'NONE', *, *, #669, .F. ) ;
#322 = VERTEX_POINT ( 'NONE', #164 ) ;
#323 = EDGE_LOOP ( 'NONE', ( #349, #358, #353, #355, #343 ) ) ;
#324 = VERTEX_POINT ( 'NONE', #148 ) ;
#325 = VERTEX_POINT ( 'NONE', #137 ) ;
#326 = EDGE_LOOP ( 'NONE', ( #375, #369, #396, #376, #386, #402 ) ) ;
#327 = VERTEX_POINT ( 'NONE', #173 ) ;
#328 = EDGE_LOOP ( 'NONE', ( #462, #465, #464 ) ) ;
#329 = EDGE_LOOP ( 'NONE', ( #362, #384, #351 ) ) ;
#330 = EDGE_LOOP ( 'NONE', ( #452, #411, #410 ) ) ;
#331 = EDGE_LOOP ( 'NONE', ( #366, #440 ) ) ;
#332 = EDGE_LOOP ( 'NONE', ( #447, #392 ) ) ;
#333 = EDGE_LOOP ( 'NONE', ( #285, #301, #278, #290 ) ) ;
#334 = EDGE_LOOP ( 'NONE', ( #398, #371, #388, #359, #364 ) ) ;
#335 = EDGE_LOOP ( 'NONE', ( #357, #400, #389, #289, #350 ) ) ;
#336 = VERTEX_POINT ( 'NONE', #144 ) ;
#337 = EDGE_LOOP ( 'NONE', ( #455, #414 ) ) ;
#338 = EDGE_LOOP ( 'NONE', ( #348, #354, #393, #377 ) ) ;
#339 = ORIENTED_EDGE ( 'NONE', *, *, #659, .T. ) ;
#340 = ORIENTED_EDGE ( 'NONE', *, *, #636, .T. ) ;
#341 = ORIENTED_EDGE ( 'NONE', *, *, #676, .F. ) ;
#342 = ORIENTED_EDGE ( 'NONE', *, *, #685, .T. ) ;
#343 = ORIENTED_EDGE ( 'NONE', *, *, #666, .F. ) ;
#344 = ORIENTED_EDGE ( 'NONE', *, *, #678, .F. ) ;
#345 = ORIENTED_EDGE ( 'NONE', *, *, #663, .T. ) ;
#346 = ORIENTED_EDGE ( 'NONE', *, *, #656, .F. ) ;
#347 = ORIENTED_EDGE ( 'NONE', *, *, #669, .T. ) ;
#348 = ORIENTED_EDGE ( 'NONE', *, *, #681, .T. ) ;
#349 = ORIENTED_EDGE ( 'NONE', *, *, #652, .F. ) ;
#350 = ORIENTED_EDGE ( 'NONE', *, *, #658, .F. ) ;
#351 = ORIENTED_EDGE ( 'NONE', *, *, #677, .T. ) ;
#352 = ORIENTED_EDGE ( 'NONE', *, *, #646, .F. ) ;
#353 = ORIENTED_EDGE ( 'NONE', *, *, #671, .F. ) ;
#354 = ORIENTED_EDGE ( 'NONE', *, *, #670, .T. ) ;
#355 = ORIENTED_EDGE ( 'NONE', *, *, #663, .F. ) ;
#356 = ORIENTED_EDGE ( 'NONE', *, *, #671, .T. ) ;
#357 = ORIENTED_EDGE ( 'NONE', *, *, #642, .F. ) ;
#358 = ORIENTED_EDGE ( 'NONE', *, *, #665, .T. ) ;
#359 = ORIENTED_EDGE ( 'NONE', *, *, #661, .F. ) ;
#360 = ORIENTED_EDGE ( 'NONE', *, *, #650, .F. ) ;
#361 = ORIENTED_EDGE ( 'NONE', *, *, #659, .F. ) ;
#362 = ORIENTED_EDGE ( 'NONE', *, *, #673, .F. ) ;
#363 = ORIENTED_EDGE ( 'NONE', *, *, #679, .T. ) ;
#364 = ORIENTED_EDGE ( 'NONE', *, *, #674, .F. ) ;
#365 = ORIENTED_EDGE ( 'NONE', *, *, #661, .T. ) ;
#366 = ORIENTED_EDGE ( 'NONE', *, *, #653, .F. ) ;
#367 = ORIENTED_EDGE ( 'NONE', *, *, #643, .F. ) ;
#368 = ORIENTED_EDGE ( 'NONE', *, *, #648, .F. ) ;
#369 = ORIENTED_EDGE ( 'NONE', *, *, #648, .T. ) ;
#370 = ORIENTED_EDGE ( 'NONE', *, *, #645, .T. ) ;
#371 = ORIENTED_EDGE ( 'NONE', *, *, #691, .T. ) ;
#372 = ORIENTED_EDGE ( 'NONE', *, *, #692, .T. ) ;
#373 = ORIENTED_EDGE ( 'NONE', *, *, #657, .F. ) ;
#374 = ORIENTED_EDGE ( 'NONE', *, *, #686, .F. ) ;
#375 = ORIENTED_EDGE ( 'NONE', *, *, #637, .F. ) ;
#376 = ORIENTED_EDGE ( 'NONE', *, *, #692, .F. ) ;
#377 = ORIENTED_EDGE ( 'NONE', *, *, #688, .F. ) ;
#378 = ORIENTED_EDGE ( 'NONE', *, *, #680, .T. ) ;
#379 = ORIENTED_EDGE ( 'NONE', *, *, #687, .F. ) ;
#380 = ORIENTED_EDGE ( 'NONE', *, *, #680, .F. ) ;
#381 = ORIENTED_EDGE ( 'NONE', *, *, #656, .T. ) ;
#382 = ORIENTED_EDGE ( 'NONE', *, *, #638, .T. ) ;
#383 = ORIENTED_EDGE ( 'NONE', *, *, #662, .F. ) ;
#384 = ORIENTED_EDGE ( 'NONE', *, *, #640, .T. ) ;
#385 = ORIENTED_EDGE ( 'NONE', *, *, #641, .T. ) ;
#386 = ORIENTED_EDGE ( 'NONE', *, *, #690, .F. ) ;
#387 = ORIENTED_EDGE ( 'NONE', *, *, #668, .T. ) ;
#388 = ORIENTED_EDGE ( 'NONE', *, *, #638, .F. ) ;
#389 = ORIENTED_EDGE ( 'NONE', *, *, #636, .F. ) ;
#390 = ORIENTED_EDGE ( 'NONE', *, *, #662, .T. ) ;
#391 = ORIENTED_EDGE ( 'NONE', *, *, #694, .T. ) ;
#392 = ORIENTED_EDGE ( 'NONE', *, *, #675, .F. ) ;
#393 = ORIENTED_EDGE ( 'NONE', *, *, #643, .T. ) ;
#394 = ORIENTED_EDGE ( 'NONE', *, *, #639, .T. ) ;
#395 = ORIENTED_EDGE ( 'NONE', *, *, #664, .F. ) ;
#396 = ORIENTED_EDGE ( 'NONE', *, *, #641, .F. ) ;
#397 = ORIENTED_EDGE ( 'NONE', *, *, #665, .F. ) ;
#398 = ORIENTED_EDGE ( 'NONE', *, *, #677, .F. ) ;
#399 = ORIENTED_EDGE ( 'NONE', *, *, #660, .F. ) ;
#400 = ORIENTED_EDGE ( 'NONE', *, *, #690, .T. ) ;
#401 = ORIENTED_EDGE ( 'NONE', *, *, #672, .F. ) ;
#402 = ORIENTED_EDGE ( 'NONE', *, *, #683, .F. ) ;
#403 = FACE_OUTER_BOUND ( 'NONE', #298, .T. ) ;
#404 = FACE_OUTER_BOUND ( 'NONE', #291, .T. ) ;
#405 = CYLINDRICAL_SURFACE ( 'NONE', #582, 3.250000000000000400 ) ;
#406 = FACE_BOUND ( 'NONE', #331, .T. ) ;
#407 = FACE_OUTER_BOUND ( 'NONE', #296, .T. ) ;
#408 = FACE_OUTER_BOUND ( 'NONE', #328, .T. ) ;
#409 = CONICAL_SURFACE ( 'NONE', #593, 0.4844873515933190200, 1.047197551196596700 ) ;
#410 = ORIENTED_EDGE ( 'NONE', *, *, #664, .T. ) ;
#411 = ORIENTED_EDGE ( 'NONE', *, *, #654, .F. ) ;
#412 = ORIENTED_EDGE ( 'NONE', *, *, #647, .F. ) ;
#413 = ORIENTED_EDGE ( 'NONE', *, *, #683, .T. ) ;
#414 = ORIENTED_EDGE ( 'NONE', *, *, #684, .F. ) ;
#415 = ORIENTED_EDGE ( 'NONE', *, *, #672, .T. ) ;
#416 = ORIENTED_EDGE ( 'NONE', *, *, #637, .T. ) ;
#417 = FACE_OUTER_BOUND ( 'NONE', #276, .T. ) ;
#418 = FACE_OUTER_BOUND ( 'NONE', #338, .T. ) ;
#419 = FACE_OUTER_BOUND ( 'NONE', #333, .T. ) ;
#420 = CYLINDRICAL_SURFACE ( 'NONE', #603, 4.849999999999999600 ) ;
#421 = ORIENTED_EDGE ( 'NONE', *, *, #640, .F. ) ;
#422 = ORIENTED_EDGE ( 'NONE', *, *, #689, .F. ) ;
#423 = FACE_OUTER_BOUND ( 'NONE', #302, .T. ) ;
#424 = FACE_OUTER_BOUND ( 'NONE', #337, .T. ) ;
#425 = FACE_OUTER_BOUND ( 'NONE', #314, .T. ) ;
#426 = FACE_OUTER_BOUND ( 'NONE', #306, .T. ) ;
#427 = CYLINDRICAL_SURFACE ( 'NONE', #602, 1.649999999999998400 ) ;
#428 = ORIENTED_EDGE ( 'NONE', *, *, #653, .T. ) ;
#429 = ORIENTED_EDGE ( 'NONE', *, *, #667, .F. ) ;
#430 = ORIENTED_EDGE ( 'NONE', *, *, #647, .T. ) ;
#431 = CONICAL_SURFACE ( 'NONE', #599, 4.849999999999999600, 1.212025656524324100 ) ;
#432 = ORIENTED_EDGE ( 'NONE', *, *, #689, .T. ) ;
#433 = CONICAL_SURFACE ( 'NONE', #592, 0.4844873515933190200, 1.047197551196596700 ) ;
#434 = FACE_OUTER_BOUND ( 'NONE', #293, .T. ) ;
#435 = FACE_OUTER_BOUND ( 'NONE', #334, .T. ) ;
#436 = ORIENTED_EDGE ( 'NONE', *, *, #658, .T. ) ;
#437 = FACE_OUTER_BOUND ( 'NONE', #297, .T. ) ;
#438 = FACE_OUTER_BOUND ( 'NONE', #309, .T. ) ;
#439 = FACE_OUTER_BOUND ( 'NONE', #330, .T. ) ;
#440 = ORIENTED_EDGE ( 'NONE', *, *, #679, .F. ) ;
#441 = ORIENTED_EDGE ( 'NONE', *, *, #678, .T. ) ;
#442 = FACE_OUTER_BOUND ( 'NONE', #277, .T. ) ;
#443 = ORIENTED_EDGE ( 'NONE', *, *, #682, .F. ) ;
#444 = ORIENTED_EDGE ( 'NONE', *, *, #646, .T. ) ;
#445 = FACE_OUTER_BOUND ( 'NONE', #326, .T. ) ;
#446 = FACE_OUTER_BOUND ( 'NONE', #319, .T. ) ;
#447 = ORIENTED_EDGE ( 'NONE', *, *, #681, .F. ) ;
#448 = CONICAL_SURFACE ( 'NONE', #618, 2.024999999999999000, 0.7853981633974463900 ) ;
#449 = ORIENTED_EDGE ( 'NONE', *, *, #657, .T. ) ;
#450 = FACE_OUTER_BOUND ( 'NONE', #275, .T. ) ;
#451 = ORIENTED_EDGE ( 'NONE', *, *, #642, .T. ) ;
#452 = ORIENTED_EDGE ( 'NONE', *, *, #652, .T. ) ;
#453 = ORIENTED_EDGE ( 'NONE', *, *, #674, .T. ) ;
#454 = FACE_OUTER_BOUND ( 'NONE', #312, .T. ) ;
#455 = ORIENTED_EDGE ( 'NONE', *, *, #645, .F. ) ;
#456 = ORIENTED_EDGE ( 'NONE', *, *, #684, .T. ) ;
#457 = CONICAL_SURFACE ( 'NONE', #614, 2.024999999999999000, 0.7853981633974463900 ) ;
#458 = ORIENTED_EDGE ( 'NONE', *, *, #639, .F. ) ;
#459 = ORIENTED_EDGE ( 'NONE', *, *, #686, .T. ) ;
#460 = FACE_OUTER_BOUND ( 'NONE', #335, .T. ) ;
#461 = CYLINDRICAL_SURFACE ( 'NONE', #579, 1.649999999999998400 ) ;
#462 = ORIENTED_EDGE ( 'NONE', *, *, #650, .T. ) ;
#463 = ORIENTED_EDGE ( 'NONE', *, *, #668, .F. ) ;
#464 = ORIENTED_EDGE ( 'NONE', *, *, #666, .T. ) ;
#465 = ORIENTED_EDGE ( 'NONE', *, *, #644, .F. ) ;
#466 = LINE ( 'NONE', #830, #500 ) ;
#467 = CONICAL_SURFACE ( 'NONE', #583, 0.4844873515933190200, 1.047197551196596700 ) ;
#468 = FACE_OUTER_BOUND ( 'NONE', #305, .T. ) ;
#469 = VECTOR ( 'NONE', #223, 1000.000000000000000 ) ;
#470 = LINE ( 'NONE', #813, #522 ) ;
#471 = LINE ( 'NONE', #752, #502 ) ;
#472 = FACE_OUTER_BOUND ( 'NONE', #323, .T. ) ;
#473 = CIRCLE ( 'NONE', #609, 1.649999999999998600 ) ;
#474 = CIRCLE ( 'NONE', #613, 2.024999999999999000 ) ;
#475 = CIRCLE ( 'NONE', #588, 1.649999999999998600 ) ;
#476 = VECTOR ( 'NONE', #818, 1000.000000000000000 ) ;
#477 = VECTOR ( 'NONE', #159, 1000.000000000000000 ) ;
#478 = CIRCLE ( 'NONE', #596, 3.399999999999987000 ) ;
#479 = VECTOR ( 'NONE', #724, 1000.000000000000000 ) ;
#480 = LINE ( 'NONE', #709, #498 ) ;
#481 = CIRCLE ( 'NONE', #600, 4.849999999999999600 ) ;
#482 = CIRCLE ( 'NONE', #622, 3.399999999999987000 ) ;
#483 = LINE ( 'NONE', #213, #510 ) ;
#484 = LINE ( 'NONE', #835, #476 ) ;
#485 = CYLINDRICAL_SURFACE ( 'NONE', #591, 3.250000000000000400 ) ;
#486 = CIRCLE ( 'NONE', #621, 1.649999999999998400 ) ;
#487 = CIRCLE ( 'NONE', #595, 4.849999999999999600 ) ;
#488 = CYLINDRICAL_SURFACE ( 'NONE', #584, 4.849999999999999600 ) ;
#489 = CIRCLE ( 'NONE', #570, 1.649999999999998400 ) ;
#490 = CIRCLE ( 'NONE', #597, 3.250000000000000400 ) ;
#491 = CIRCLE ( 'NONE', #598, 3.399999999999987000 ) ;
#492 = LINE ( 'NONE', #783, #511 ) ;
#493 = LINE ( 'NONE', #761, #497 ) ;
#494 = FACE_OUTER_BOUND ( 'NONE', #329, .T. ) ;
#495 = CIRCLE ( 'NONE', #604, 4.849999999999999600 ) ;
#496 = CIRCLE ( 'NONE', #571, 3.399999999999987000 ) ;
#497 = VECTOR ( 'NONE', #759, 1000.000000000000000 ) ;
#498 = VECTOR ( 'NONE', #710, 1000.000000000000000 ) ;
#499 = LINE ( 'NONE', #753, #501 ) ;
#500 = VECTOR ( 'NONE', #844, 1000.000000000000000 ) ;
#501 = VECTOR ( 'NONE', #782, 1000.000000000000000 ) ;
#502 = VECTOR ( 'NONE', #770, 1000.000000000000000 ) ;
#503 = CONICAL_SURFACE ( 'NONE', #619, 0.4844873515933190200, 1.047197551196596700 ) ;
#504 = CIRCLE ( 'NONE', #620, 3.399999999999987000 ) ;
#505 = VECTOR ( 'NONE', #167, 1000.000000000000000 ) ;
#506 = CIRCLE ( 'NONE', #615, 3.250000000000000400 ) ;
#507 = CONICAL_SURFACE ( 'NONE', #581, 0.4844873515933190200, 1.047197551196596700 ) ;
#508 = FACE_OUTER_BOUND ( 'NONE', #288, .T. ) ;
#509 = CONICAL_SURFACE ( 'NONE', #586, 0.4844873515933190200, 1.047197551196596700 ) ;
#510 = VECTOR ( 'NONE', #214, 1000.000000000000000 ) ;
#511 = VECTOR ( 'NONE', #775, 1000.000000000000000 ) ;
#512 = LINE ( 'NONE', #726, #479 ) ;
#513 = LINE ( 'NONE', #172, #505 ) ;
#514 = CONICAL_SURFACE ( 'NONE', #572, 4.849999999999999600, 1.212025656524324100 ) ;
#515 = CONICAL_SURFACE ( 'NONE', #605, 0.4844873515933190200, 1.047197551196596700 ) ;
#516 = CIRCLE ( 'NONE', #610, 4.849999999999999600 ) ;
#517 = CIRCLE ( 'NONE', #594, 3.250000000000000400 ) ;
#518 = LINE ( 'NONE', #222, #469 ) ;
#519 = FACE_BOUND ( 'NONE', #294, .T. ) ;
#520 = LINE ( 'NONE', #130, #477 ) ;
#521 = CIRCLE ( 'NONE', #616, 3.399999999999987000 ) ;
#522 = VECTOR ( 'NONE', #828, 1000.000000000000000 ) ;
#523 = CIRCLE ( 'NONE', #612, 3.399999999999987000 ) ;
#524 = LINE ( 'NONE', #135, #525 ) ;
#525 = VECTOR ( 'NONE', #179, 1000.000000000000000 ) ;
#526 = LINE ( 'NONE', #816, #527 ) ;
#527 = VECTOR ( 'NONE', #824, 1000.000000000000000 ) ;
#528 = PERSON_AND_ORGANIZATION ( #695, #555 ) ;
#529 = DATE_AND_TIME ( #537, #540 ) ;
#530 = PERSON_AND_ORGANIZATION ( #695, #555 ) ;
#531 = LOCAL_TIME ( 17, 59, 31.00000000000000000, #554 ) ;
#532 = COORDINATED_UNIVERSAL_TIME_OFFSET ( 1, 0, .AHEAD. ) ;
#533 = CIRCLE ( 'NONE', #601, 3.250000000000000400 ) ;
#534 = PERSON_AND_ORGANIZATION ( #695, #555 ) ;
#535 = VECTOR ( 'NONE', #757, 1000.000000000000000 ) ;
#536 = PERSON_AND_ORGANIZATION ( #695, #555 ) ;
#537 = CALENDAR_DATE ( 2017, 6, 2 ) ;
#538 = APPROVAL_DATE_TIME ( #529, #575 ) ;
#539 = CALENDAR_DATE ( 2017, 6, 2 ) ;
#540 = LOCAL_TIME ( 17, 59, 31.00000000000000000, #532 ) ;
#541 = DATE_AND_TIME ( #539, #566 ) ;
#542 = APPROVAL_PERSON_ORGANIZATION ( #536, #575, #798 ) ;
#543 = APPROVAL_DATE_TIME ( #541, #625 ) ;
#544 = PERSON_AND_ORGANIZATION ( #695, #555 ) ;
#545 = PERSON_AND_ORGANIZATION ( #695, #555 ) ;
#546 = COORDINATED_UNIVERSAL_TIME_OFFSET ( 1, 0, .AHEAD. ) ;
#547 = CALENDAR_DATE ( 2017, 6, 2 ) ;
#548 = DATE_AND_TIME ( #562, #569 ) ;
#549 = DATE_AND_TIME ( #557, #531 ) ;
#550 = PERSON_AND_ORGANIZATION ( #695, #555 ) ;
#551 = COORDINATED_UNIVERSAL_TIME_OFFSET ( 1, 0, .AHEAD. ) ;
#552 = LINE ( 'NONE', #766, #565 ) ;
#553 = APPROVAL_PERSON_ORGANIZATION ( #534, #625, #785 ) ;
#554 = COORDINATED_UNIVERSAL_TIME_OFFSET ( 1, 0, .AHEAD. ) ;
#555 = ORGANIZATION ( 'UNSPECIFIED', 'UNSPECIFIED', '' ) ;
#556 = CIRCLE ( 'NONE', #573, 2.024999999999999000 ) ;
#557 = CALENDAR_DATE ( 2017, 6, 2 ) ;
#558 = PERSON_AND_ORGANIZATION ( #695, #555 ) ;
#559 = LINE ( 'NONE', #773, #535 ) ;
#560 = DATE_AND_TIME ( #547, #567 ) ;
#561 = APPROVAL_PERSON_ORGANIZATION ( #558, #630, #804 ) ;
#562 = CALENDAR_DATE ( 2017, 6, 2 ) ;
#563 = APPROVAL_DATE_TIME ( #548, #630 ) ;
#564 = COORDINATED_UNIVERSAL_TIME_OFFSET ( 1, 0, .AHEAD. ) ;
#565 = VECTOR ( 'NONE', #778, 1000.000000000000000 ) ;
#566 = LOCAL_TIME ( 17, 59, 31.00000000000000000, #564 ) ;
#567 = LOCAL_TIME ( 17, 59, 31.00000000000000000, #546 ) ;
#568 = SHAPE_DEFINITION_REPRESENTATION ( #224, #15 ) ;
#569 = LOCAL_TIME ( 17, 59, 31.00000000000000000, #551 ) ;
#570 = AXIS2_PLACEMENT_3D ( 'NONE', #742, #743, #720 ) ;
#571 = AXIS2_PLACEMENT_3D ( 'NONE', #196, #192, #194 ) ;
#572 = AXIS2_PLACEMENT_3D ( 'NONE', #78, #82, #83 ) ;
#573 = AXIS2_PLACEMENT_3D ( 'NONE', #803, #806, #788 ) ;
#574 = AXIS2_PLACEMENT_3D ( 'NONE', #57, #36, #53 ) ;
#575 = APPROVAL ( #800, 'UNSPECIFIED' ) ;
#576 = CC_DESIGN_APPROVAL ( #575, ( #577 ) ) ;
#577 = PRODUCT_DEFINITION ( 'UNKNOWN', '', #632, #225 ) ;
#578 = CC_DESIGN_PERSON_AND_ORGANIZATION_ASSIGNMENT ( #530, #789, ( #577 ) ) ;
#579 = AXIS2_PLACEMENT_3D ( 'NONE', #54, #51, #30 ) ;
#580 = AXIS2_PLACEMENT_3D ( 'NONE', #25, #47, #27 ) ;
#581 = AXIS2_PLACEMENT_3D ( 'NONE', #103, #122, #114 ) ;
#582 = AXIS2_PLACEMENT_3D ( 'NONE', #65, #44, #58 ) ;
#583 = AXIS2_PLACEMENT_3D ( 'NONE', #101, #98, #73 ) ;
#584 = AXIS2_PLACEMENT_3D ( 'NONE', #87, #91, #77 ) ;
#585 = AXIS2_PLACEMENT_3D ( 'NONE', #28, #115, #89 ) ;
#586 = AXIS2_PLACEMENT_3D ( 'NONE', #85, #81, #121 ) ;
#587 = AXIS2_PLACEMENT_3D ( 'NONE', #66, #50, #38 ) ;
#588 = AXIS2_PLACEMENT_3D ( 'NONE', #219, #220, #221 ) ;
#589 = AXIS2_PLACEMENT_3D ( 'NONE', #80, #113, #96 ) ;
#590 = AXIS2_PLACEMENT_3D ( 'NONE', #107, #76, #86 ) ;
#591 = AXIS2_PLACEMENT_3D ( 'NONE', #104, #88, #95 ) ;
#592 = AXIS2_PLACEMENT_3D ( 'NONE', #61, #42, #56 ) ;
#593 = AXIS2_PLACEMENT_3D ( 'NONE', #63, #29, #31 ) ;
#594 = AXIS2_PLACEMENT_3D ( 'NONE', #216, #217, #210 ) ;
#595 = AXIS2_PLACEMENT_3D ( 'NONE', #834, #819, #843 ) ;
#596 = AXIS2_PLACEMENT_3D ( 'NONE', #814, #821, #697 ) ;
#597 = AXIS2_PLACEMENT_3D ( 'NONE', #744, #729, #747 ) ;
#598 = AXIS2_PLACEMENT_3D ( 'NONE', #749, #772, #763 ) ;
#599 = AXIS2_PLACEMENT_3D ( 'NONE', #72, #43, #40 ) ;
#600 = AXIS2_PLACEMENT_3D ( 'NONE', #764, #779, #780 ) ;
#601 = AXIS2_PLACEMENT_3D ( 'NONE', #758, #760, #776 ) ;
#602 = AXIS2_PLACEMENT_3D ( 'NONE', #48, #39, #68 ) ;
#603 = AXIS2_PLACEMENT_3D ( 'NONE', #94, #116, #90 ) ;
#604 = AXIS2_PLACEMENT_3D ( 'NONE', #198, #207, #195 ) ;
#605 = AXIS2_PLACEMENT_3D ( 'NONE', #84, #112, #108 ) ;
#606 =( GEOMETRIC_REPRESENTATION_CONTEXT ( 3 ) GLOBAL_UNCERTAINTY_ASSIGNED_CONTEXT ( ( #22 ) ) GLOBAL_UNIT_ASSIGNED_CONTEXT ( ( #807, #797, #787 ) ) REPRESENTATION_CONTEXT ( 'NONE', 'WORKASPACE' ) );
#607 = CC_DESIGN_PERSON_AND_ORGANIZATION_ASSIGNMENT ( #528, #805, ( #696 ) ) ;
#608 = AXIS2_PLACEMENT_3D ( 'NONE', #117, #105, #119 ) ;
#609 = AXIS2_PLACEMENT_3D ( 'NONE', #189, #182, #188 ) ;
#610 = AXIS2_PLACEMENT_3D ( 'NONE', #178, #180, #181 ) ;
#611 = AXIS2_PLACEMENT_3D ( 'NONE', #45, #64, #59 ) ;
#612 = AXIS2_PLACEMENT_3D ( 'NONE', #190, #185, #183 ) ;
#613 = AXIS2_PLACEMENT_3D ( 'NONE', #208, #200, #209 ) ;
#614 = AXIS2_PLACEMENT_3D ( 'NONE', #52, #67, #32 ) ;
#615 = AXIS2_PLACEMENT_3D ( 'NONE', #184, #186, #187 ) ;
#616 = AXIS2_PLACEMENT_3D ( 'NONE', #211, #215, #212 ) ;
#617 = AXIS2_PLACEMENT_3D ( 'NONE', #762, #768, #791 ) ;
#618 = AXIS2_PLACEMENT_3D ( 'NONE', #49, #71, #33 ) ;
#619 = AXIS2_PLACEMENT_3D ( 'NONE', #120, #102, #123 ) ;
#620 = AXIS2_PLACEMENT_3D ( 'NONE', #839, #831, #840 ) ;
#621 = AXIS2_PLACEMENT_3D ( 'NONE', #723, #750, #722 ) ;
#622 = AXIS2_PLACEMENT_3D ( 'NONE', #716, #718, #732 ) ;
#623 = CC_DESIGN_PERSON_AND_ORGANIZATION_ASSIGNMENT ( #545, #794, ( #632 ) ) ;
#624 = CC_DESIGN_APPROVAL ( #625, ( #632 ) ) ;
#625 = APPROVAL ( #809, 'UNSPECIFIED' ) ;
#626 = PRODUCT_RELATED_PRODUCT_CATEGORY ( 'detail', '', ( #696 ) ) ;
#627 = SECURITY_CLASSIFICATION ( '', '', #795 ) ;
#628 = CC_DESIGN_PERSON_AND_ORGANIZATION_ASSIGNMENT ( #550, #801, ( #627 ) ) ;
#629 = CC_DESIGN_DATE_AND_TIME_ASSIGNMENT ( #560, #802, ( #627 ) ) ;
#630 = APPROVAL ( #786, 'UNSPECIFIED' ) ;
#631 = CC_DESIGN_PERSON_AND_ORGANIZATION_ASSIGNMENT ( #544, #790, ( #632 ) ) ;
#632 = PRODUCT_DEFINITION_FORMATION_WITH_SPECIFIED_SOURCE ( 'ANY', '', #696, .NOT_KNOWN. ) ;
#633 = CC_DESIGN_SECURITY_CLASSIFICATION ( #627, ( #632 ) ) ;
#634 = CC_DESIGN_DATE_AND_TIME_ASSIGNMENT ( #549, #784, ( #577 ) ) ;
#635 = CC_DESIGN_APPROVAL ( #630, ( #627 ) ) ;
#636 = EDGE_CURVE ( 'NONE', #259, #318, #20, .T. ) ;
#637 = EDGE_CURVE ( 'NONE', #327, #324, #8, .T. ) ;
#638 = EDGE_CURVE ( 'NONE', #261, #259, #9, .T. ) ;
#639 = EDGE_CURVE ( 'NONE', #257, #325, #520, .T. ) ;
#640 = EDGE_CURVE ( 'NONE', #252, #260, #513, .T. ) ;
#641 = EDGE_CURVE ( 'NONE', #263, #315, #10, .T. ) ;
#642 = EDGE_CURVE ( 'NONE', #268, #258, #19, .T. ) ;
#643 = EDGE_CURVE ( 'NONE', #269, #262, #473, .T. ) ;
#644 = EDGE_CURVE ( 'NONE', #292, #284, #523, .T. ) ;
#645 = EDGE_CURVE ( 'NONE', #280, #313, #516, .T. ) ;
#646 = EDGE_CURVE ( 'NONE', #257, #274, #506, .T. ) ;
#647 = EDGE_CURVE ( 'NONE', #271, #322, #495, .T. ) ;
#648 = EDGE_CURVE ( 'NONE', #327, #315, #524, .T. ) ;
#649 = EDGE_CURVE ( 'NONE', #253, #273, #474, .T. ) ;
#650 = EDGE_CURVE ( 'NONE', #282, #284, #4, .T. ) ;
#651 = EDGE_CURVE ( 'NONE', #284, #324, #496, .T. ) ;
#652 = EDGE_CURVE ( 'NONE', #286, #292, #5, .T. ) ;
#653 = EDGE_CURVE ( 'NONE', #255, #325, #517, .T. ) ;
#654 = EDGE_CURVE ( 'NONE', #281, #292, #521, .T. ) ;
#655 = EDGE_CURVE ( 'NONE', #262, #269, #475, .T. ) ;
#656 = EDGE_CURVE ( 'NONE', #270, #322, #483, .T. ) ;
#657 = EDGE_CURVE ( 'NONE', #263, #271, #518, .T. ) ;
#658 = EDGE_CURVE ( 'NONE', #258, #260, #21, .T. ) ;
#659 = EDGE_CURVE ( 'NONE', #315, #256, #6, .T. ) ;
#660 = EDGE_CURVE ( 'NONE', #258, #252, #504, .T. ) ;
#661 = EDGE_CURVE ( 'NONE', #264, #261, #484, .T. ) ;
#662 = EDGE_CURVE ( 'NONE', #322, #271, #487, .T. ) ;
#663 = EDGE_CURVE ( 'NONE', #282, #256, #466, .T. ) ;
#664 = EDGE_CURVE ( 'NONE', #281, #286, #13, .T. ) ;
#665 = EDGE_CURVE ( 'NONE', #286, #336, #526, .T. ) ;
#666 = EDGE_CURVE ( 'NONE', #292, #282, #14, .T. ) ;
#667 = EDGE_CURVE ( 'NONE', #254, #281, #478, .T. ) ;
#668 = EDGE_CURVE ( 'NONE', #313, #271, #470, .T. ) ;
#669 = EDGE_CURVE ( 'NONE', #270, #261, #12, .T. ) ;
#670 = EDGE_CURVE ( 'NONE', #266, #269, #480, .T. ) ;
#671 = EDGE_CURVE ( 'NONE', #256, #336, #17, .T. ) ;
#672 = EDGE_CURVE ( 'NONE', #264, #281, #7, .T. ) ;
#673 = EDGE_CURVE ( 'NONE', #252, #254, #482, .T. ) ;
#674 = EDGE_CURVE ( 'NONE', #254, #264, #1, .T. ) ;
#675 = EDGE_CURVE ( 'NONE', #266, #265, #486, .T. ) ;
#676 = EDGE_CURVE ( 'NONE', #284, #327, #23, .T. ) ;
#677 = EDGE_CURVE ( 'NONE', #260, #254, #2, .T. ) ;
#678 = EDGE_CURVE ( 'NONE', #274, #255, #512, .T. ) ;
#679 = EDGE_CURVE ( 'NONE', #325, #255, #490, .T. ) ;
#680 = EDGE_CURVE ( 'NONE', #336, #270, #18, .T. ) ;
#681 = EDGE_CURVE ( 'NONE', #265, #266, #489, .T. ) ;
#682 = EDGE_CURVE ( 'NONE', #324, #258, #491, .T. ) ;
#683 = EDGE_CURVE ( 'NONE', #324, #268, #16, .T. ) ;
#684 = EDGE_CURVE ( 'NONE', #313, #280, #481, .T. ) ;
#685 = EDGE_CURVE ( 'NONE', #269, #273, #493, .T. ) ;
#686 = EDGE_CURVE ( 'NONE', #280, #322, #499, .T. ) ;
#687 = EDGE_CURVE ( 'NONE', #262, #253, #492, .T. ) ;
#688 = EDGE_CURVE ( 'NONE', #265, #262, #471, .T. ) ;
#689 = EDGE_CURVE ( 'NONE', #274, #257, #533, .T. ) ;
#690 = EDGE_CURVE ( 'NONE', #268, #318, #559, .T. ) ;
#691 = EDGE_CURVE ( 'NONE', #260, #259, #552, .T. ) ;
#692 = EDGE_CURVE ( 'NONE', #318, #263, #11, .T. ) ;
#693 = AXIS2_PLACEMENT_3D ( 'NONE', #60, #46, #55 ) ;
#694 = EDGE_CURVE ( 'NONE', #273, #253, #556, .T. ) ;
#695 = PERSON ( 'UNSPECIFIED', 'UNSPECIFIED', 'UNSPECIFIED', ('UNSPECIFIED'), ('UNSPECIFIED'), ('UNSPECIFIED') ) ;
#696 = PRODUCT ( 'ALP0820', 'ALP0820', '', ( #808 ) ) ;
#697 = DIRECTION ( 'NONE',  ( 0.0000000000000000000, 0.0000000000000000000, 1.000000000000000000 ) ) ;
#698 = CARTESIAN_POINT ( 'NONE',  ( -3.801396569324266100E-015, 1.346506813566451100, 3.925981830489464000 ) ) ;
#699 = CARTESIAN_POINT ( 'NONE',  ( -0.5666666666666712000, 1.469193745769246300, 3.598816677948676100 ) ) ;
#700 = CARTESIAN_POINT ( 'NONE',  ( -3.400000000000007500, 1.525725308861573000, -0.6543691447675148400 ) ) ;
#701 = CARTESIAN_POINT ( 'NONE',  ( -3.400000000000006600, 4.088561676727676900, -1.643471091415485500 ) ) ;
#702 = CARTESIAN_POINT ( 'NONE',  ( -3.400000000000007000, 1.346506813566452000, 1.962990915244735300 ) ) ;
#703 = CARTESIAN_POINT ( 'NONE',  ( -1.700000000000005300, 1.618306254230747600, 2.944486372867099800 ) ) ;
#704 = CARTESIAN_POINT ( 'NONE',  ( -3.400000000000007000, 3.996324248578052800, -1.962990915244714300 ) ) ;
#705 = CARTESIAN_POINT ( 'NONE',  ( -3.400000000000007500, 4.165810562384351100, -1.316585914349156300 ) ) ;
#706 = CARTESIAN_POINT ( 'NONE',  ( -3.400000000000007000, 4.271447815127636700, -0.6615390626893068400 ) ) ;
#707 = CARTESIAN_POINT ( 'NONE',  ( -3.400000000000007000, 1.407421983073909900, -1.638110011204958900 ) ) ;
#708 = CARTESIAN_POINT ( 'NONE',  ( -3.400000000000007000, 1.346506813566456000, -1.962990915244714700 ) ) ;
#709 = CARTESIAN_POINT ( 'NONE',  ( 2.020667218593130500E-016, 4.299999999999999800, -1.649999999999998400 ) ) ;
#710 = DIRECTION ( 'NONE',  ( -0.0000000000000000000, 1.000000000000000000, -0.0000000000000000000 ) ) ;
#711 = CARTESIAN_POINT ( 'NONE',  ( -3.400000000000007000, 1.457558331638473700, -1.309508168507863800 ) ) ;
#712 = CARTESIAN_POINT ( 'NONE',  ( -2.833333333333341500, 1.469193745769247700, 2.290156067785523900 ) ) ;
#713 = CARTESIAN_POINT ( 'NONE',  ( -3.400000000000007000, 4.299999999999999800, 0.0000000000000000000 ) ) ;
#714 = CARTESIAN_POINT ( 'NONE',  ( -1.699999999999996800, 4.299999999999999800, -2.944486372867085100 ) ) ;
#715 = CARTESIAN_POINT ( 'NONE',  ( -3.400000000000007000, 4.299999999999989200, -0.3319718835943377100 ) ) ;
#716 = CARTESIAN_POINT ( 'NONE',  ( 0.0000000000000000000, 4.299999999999999800, 0.0000000000000000000 ) ) ;
#717 = CARTESIAN_POINT ( 'NONE',  ( -1.988548351295974300, 4.299999999999998900, -2.777892904572129200 ) ) ;
#718 = DIRECTION ( 'NONE',  ( 0.0000000000000000000, 1.000000000000000000, 0.0000000000000000000 ) ) ;
#719 = CARTESIAN_POINT ( 'NONE',  ( -6.340460840721347400E-015, 3.996324248578059900, -3.925981830489443200 ) ) ;
#720 = DIRECTION ( 'NONE',  ( 0.0000000000000000000, 0.0000000000000000000, -1.000000000000000000 ) ) ;
#721 = CARTESIAN_POINT ( 'NONE',  ( 3.399999999999986100, 3.996324248578054600, 1.962990915244746200 ) ) ;
#722 = DIRECTION ( 'NONE',  ( 0.0000000000000000000, 0.0000000000000000000, -1.000000000000000000 ) ) ;
#723 = CARTESIAN_POINT ( 'NONE',  ( 0.0000000000000000000, 0.2999999999999999300, 0.0000000000000000000 ) ) ;
#724 = DIRECTION ( 'NONE',  ( -0.0000000000000000000, -1.000000000000000000, -0.0000000000000000000 ) ) ;
#725 = CARTESIAN_POINT ( 'NONE',  ( 1.700000000000001100, 4.299999999999999800, 2.944486372867098900 ) ) ;
#726 = CARTESIAN_POINT ( 'NONE',  ( 0.0000000000000000000, 0.2999999999999999900, -3.250000000000000400 ) ) ;
#727 = CARTESIAN_POINT ( 'NONE',  ( 3.399999999999986100, 4.299999999999999800, 0.0000000000000000000 ) ) ;
#728 = CARTESIAN_POINT ( 'NONE',  ( -3.400000000000007000, 1.543749999999998800, 4.164399802413663100E-016 ) ) ;
#729 = DIRECTION ( 'NONE',  ( 0.0000000000000000000, -1.000000000000000000, 0.0000000000000000000 ) ) ;
#730 = CARTESIAN_POINT ( 'NONE',  ( -2.842879463226698300, 4.165125822980403600, -2.284644607121852900 ) ) ;
#731 = CARTESIAN_POINT ( 'NONE',  ( -1.120738862035093500, 4.299999999999998900, -3.278922946802210500 ) ) ;
#732 = DIRECTION ( 'NONE',  ( 0.0000000000000000000, 0.0000000000000000000, 1.000000000000000000 ) ) ;
#733 = CARTESIAN_POINT ( 'NONE',  ( -3.122596941752698600, 4.088791934661039700, -2.123149645597823800 ) ) ;
#734 = CARTESIAN_POINT ( 'NONE',  ( -3.400000000000007000, 3.996324248578052800, -1.962990915244714300 ) ) ;
#735 = CARTESIAN_POINT ( 'NONE',  ( -1.699999999999996800, 4.299999999999999800, -2.944486372867085100 ) ) ;
#736 = CARTESIAN_POINT ( 'NONE',  ( 2.276720588309316900, 4.270921243712991500, 2.611516585959518200 ) ) ;
#737 = CARTESIAN_POINT ( 'NONE',  ( 3.399999999999986100, 4.299999999999999800, -0.3319718835943915000 ) ) ;
#738 = CARTESIAN_POINT ( 'NONE',  ( -3.400000000000007000, 1.468652409558373300, 1.311547736621157200 ) ) ;
#739 = CARTESIAN_POINT ( 'NONE',  ( -2.276720588309320900, 4.270921243712996900, -2.611516585959496900 ) ) ;
#740 = CARTESIAN_POINT ( 'NONE',  ( -0.5561938769576032500, 4.181722207565000500, -3.604863145906353200 ) ) ;
#741 = CARTESIAN_POINT ( 'NONE',  ( 1.988548351295975600, 4.299999999999989200, 2.777892904572146100 ) ) ;
#742 = CARTESIAN_POINT ( 'NONE',  ( 0.0000000000000000000, 0.2999999999999999300, 0.0000000000000000000 ) ) ;
#743 = DIRECTION ( 'NONE',  ( 0.0000000000000000000, -1.000000000000000000, 0.0000000000000000000 ) ) ;
#744 = CARTESIAN_POINT ( 'NONE',  ( 0.0000000000000000000, 0.0000000000000000000, 0.0000000000000000000 ) ) ;
#745 = CARTESIAN_POINT ( 'NONE',  ( 3.122596941752680900, 4.088791934661036200, 2.123149645597853100 ) ) ;
#746 = CARTESIAN_POINT ( 'NONE',  ( -3.400000000000007000, 1.346506813566452000, 1.962990915244735300 ) ) ;
#747 = DIRECTION ( 'NONE',  ( 0.0000000000000000000, 0.0000000000000000000, -1.000000000000000000 ) ) ;
#748 = CARTESIAN_POINT ( 'NONE',  ( -3.400000000000007000, 1.543749999999998800, 0.6554283097441276900 ) ) ;
#749 = CARTESIAN_POINT ( 'NONE',  ( 0.0000000000000000000, 4.299999999999999800, 0.0000000000000000000 ) ) ;
#750 = DIRECTION ( 'NONE',  ( 0.0000000000000000000, -1.000000000000000000, 0.0000000000000000000 ) ) ;
#751 = CARTESIAN_POINT ( 'NONE',  ( 2.842879463226685400, 4.165125822980398200, 2.284644607121879600 ) ) ;
#752 = CARTESIAN_POINT ( 'NONE',  ( 0.0000000000000000000, 4.299999999999999800, 1.649999999999998400 ) ) ;
#753 = CARTESIAN_POINT ( 'NONE',  ( -4.850000000000002300, 1.757944878301735300E-019, 0.0000000000000000000 ) ) ;
#754 = CARTESIAN_POINT ( 'NONE',  ( 3.399999999999986100, 1.346506813566458600, -1.962990915244721600 ) ) ;
#755 = CARTESIAN_POINT ( 'NONE',  ( 3.399999999999986100, 3.996324248578361000, -1.962990915245169400 ) ) ;
#756 = CARTESIAN_POINT ( 'NONE',  ( 3.399999999999986100, 1.407421983073912800, -1.638110011204964900 ) ) ;
#757 = DIRECTION ( 'NONE',  ( -0.0000000000000000000, -1.000000000000000000, -0.0000000000000000000 ) ) ;
#758 = CARTESIAN_POINT ( 'NONE',  ( 0.0000000000000000000, 0.2999999999999999900, 0.0000000000000000000 ) ) ;
#759 = DIRECTION ( 'NONE',  ( 8.659560562354915600E-017, 0.7071067811865489100, -0.7071067811865462400 ) ) ;
#760 = DIRECTION ( 'NONE',  ( 0.0000000000000000000, -1.000000000000000000, 0.0000000000000000000 ) ) ;
#761 = CARTESIAN_POINT ( 'NONE',  ( 2.479909768273388800E-016, 4.300000000000001600, -2.024999999999999000 ) ) ;
#762 = CARTESIAN_POINT ( 'NONE',  ( 0.0000000000000000000, 0.0000000000000000000, 0.0000000000000000000 ) ) ;
#763 = DIRECTION ( 'NONE',  ( 0.0000000000000000000, 0.0000000000000000000, 1.000000000000000000 ) ) ;
#764 = CARTESIAN_POINT ( 'NONE',  ( -3.801396569324266100E-015, 1.757944878301735300E-019, 0.0000000000000000000 ) ) ;
#765 = CARTESIAN_POINT ( 'NONE',  ( 3.399999999999985300, 1.525725308861577000, -0.6543691447675170600 ) ) ;
#766 = CARTESIAN_POINT ( 'NONE',  ( -6.520070935385675800E-015, 4.299999999999999800, -3.925981830489443200 ) ) ;
#767 = CARTESIAN_POINT ( 'NONE',  ( 3.399999999999986600, 1.457558331638477700, -1.309508168507868200 ) ) ;
#768 = DIRECTION ( 'NONE',  ( 0.0000000000000000000, 0.0000000000000000000, 1.000000000000000000 ) ) ;
#769 = CARTESIAN_POINT ( 'NONE',  ( 3.399999999999986100, 1.543750000000004000, -0.3270461978521722000 ) ) ;
#770 = DIRECTION ( 'NONE',  ( -0.0000000000000000000, 1.000000000000000000, -0.0000000000000000000 ) ) ;
#771 = CARTESIAN_POINT ( 'NONE',  ( 3.399999999999986100, 1.543750000000003700, 6.006864035428261600E-020 ) ) ;
#772 = DIRECTION ( 'NONE',  ( 0.0000000000000000000, 1.000000000000000000, 0.0000000000000000000 ) ) ;
#773 = CARTESIAN_POINT ( 'NONE',  ( 3.399999999999986100, 4.299999999999999800, -1.962990915244721600 ) ) ;
#774 = CARTESIAN_POINT ( 'NONE',  ( 3.399999999999985300, 4.165810562384319100, -1.316585914349363700 ) ) ;
#775 = DIRECTION ( 'NONE',  ( 0.0000000000000000000, 0.7071067811865489100, 0.7071067811865462400 ) ) ;
#776 = DIRECTION ( 'NONE',  ( 0.0000000000000000000, 0.0000000000000000000, -1.000000000000000000 ) ) ;
#777 = CARTESIAN_POINT ( 'NONE',  ( 3.399999999999986600, 4.271447815127639400, -0.6615390626894130900 ) ) ;
#778 = DIRECTION ( 'NONE',  ( -0.0000000000000000000, -1.000000000000000000, -0.0000000000000000000 ) ) ;
#779 = DIRECTION ( 'NONE',  ( 3.624628615055125000E-020, 1.000000000000000000, -0.0000000000000000000 ) ) ;
#780 = DIRECTION ( 'NONE',  ( -1.000000000000000000, 3.624628615055124400E-020, 0.0000000000000000000 ) ) ;
#781 = CARTESIAN_POINT ( 'NONE',  ( 3.399999999999986100, 4.088561676727621800, -1.643471091415742400 ) ) ;
#782 = DIRECTION ( 'NONE',  ( 3.624628615055125000E-020, 1.000000000000000000, -0.0000000000000000000 ) ) ;
#783 = CARTESIAN_POINT ( 'NONE',  ( 0.0000000000000000000, 4.300000000000001600, 2.024999999999999000 ) ) ;
#784 = DATE_TIME_ROLE ( 'creation_date' ) ;
#785 = APPROVAL_ROLE ( '' ) ;
#786 = APPROVAL_STATUS ( 'not_yet_approved' ) ;
#787 =( NAMED_UNIT ( * ) SI_UNIT ( $, .STERADIAN. ) SOLID_ANGLE_UNIT ( ) );
#788 = DIRECTION ( 'NONE',  ( 0.0000000000000000000, 0.0000000000000000000, 1.000000000000000000 ) ) ;
#789 = PERSON_AND_ORGANIZATION_ROLE ( 'creator' ) ;
#790 = PERSON_AND_ORGANIZATION_ROLE ( 'creator' ) ;
#791 = DIRECTION ( 'NONE',  ( 1.000000000000000000, 0.0000000000000000000, 0.0000000000000000000 ) ) ;
#792 = APPLICATION_CONTEXT ( 'configuration controlled 3d designs of mechanical parts and assemblies' ) ;
#793 = APPLICATION_PROTOCOL_DEFINITION ( 'international standard', 'config_control_design', 1994, #792 ) ;
#794 = PERSON_AND_ORGANIZATION_ROLE ( 'design_supplier' ) ;
#795 = SECURITY_CLASSIFICATION_LEVEL ( 'unclassified' ) ;
#796 = APPLICATION_CONTEXT ( 'configuration controlled 3d designs of mechanical parts and assemblies' ) ;
#797 =( NAMED_UNIT ( * ) PLANE_ANGLE_UNIT ( ) SI_UNIT ( $, .RADIAN. ) );
#798 = APPROVAL_ROLE ( '' ) ;
#799 = APPLICATION_PROTOCOL_DEFINITION ( 'international standard', 'config_control_design', 1994, #796 ) ;
#800 = APPROVAL_STATUS ( 'not_yet_approved' ) ;
#801 = PERSON_AND_ORGANIZATION_ROLE ( 'classification_officer' ) ;
#802 = DATE_TIME_ROLE ( 'classification_date' ) ;
#803 = CARTESIAN_POINT ( 'NONE',  ( 0.0000000000000000000, 4.300000000000001600, 0.0000000000000000000 ) ) ;
#804 = APPROVAL_ROLE ( '' ) ;
#805 = PERSON_AND_ORGANIZATION_ROLE ( 'design_owner' ) ;
#806 = DIRECTION ( 'NONE',  ( -0.0000000000000000000, 1.000000000000000000, -0.0000000000000000000 ) ) ;
#807 =( LENGTH_UNIT ( ) NAMED_UNIT ( * ) SI_UNIT ( .MILLI., .METRE. ) );
#808 = MECHANICAL_CONTEXT ( 'NONE', #796, 'mechanical' ) ;
#809 = APPROVAL_STATUS ( 'not_yet_approved' ) ;
#810 = CARTESIAN_POINT ( 'NONE',  ( -1.123279411690683000, 4.270921243712988000, 3.277456159774686700 ) ) ;
#811 = CARTESIAN_POINT ( 'NONE',  ( -0.5571205367733098600, 4.165125822980396500, 3.604328138612326700 ) ) ;
#812 = CARTESIAN_POINT ( 'NONE',  ( -3.924137379306566400E-015, 3.996324248578047900, 3.925981830489464000 ) ) ;
#813 = CARTESIAN_POINT ( 'NONE',  ( 4.849999999999996100, -1.757944878301735300E-019, 5.939536975864662000E-016 ) ) ;
#814 = CARTESIAN_POINT ( 'NONE',  ( 0.0000000000000000000, 4.299999999999999800, 0.0000000000000000000 ) ) ;
#815 = CARTESIAN_POINT ( 'NONE',  ( 2.833333333333320600, 1.469193745769248800, 2.290156067785533300 ) ) ;
#816 = CARTESIAN_POINT ( 'NONE',  ( -3.400000000000007000, 4.299999999999999800, 1.962990915244735300 ) ) ;
#817 = CARTESIAN_POINT ( 'NONE',  ( -3.400000000000007000, 1.543749999999998800, 4.164399802413663100E-016 ) ) ;
#818 = DIRECTION ( 'NONE',  ( -0.0000000000000000000, -1.000000000000000000, -0.0000000000000000000 ) ) ;
#819 = DIRECTION ( 'NONE',  ( 3.624628615055125000E-020, 1.000000000000000000, -0.0000000000000000000 ) ) ;
#820 = CARTESIAN_POINT ( 'NONE',  ( -1.700000000000004600, 4.299999999999999800, 2.944486372867101100 ) ) ;
#821 = DIRECTION ( 'NONE',  ( 0.0000000000000000000, 1.000000000000000000, 0.0000000000000000000 ) ) ;
#822 = CARTESIAN_POINT ( 'NONE',  ( -3.801396569324266100E-015, 1.346506813566451100, 3.925981830489464000 ) ) ;
#823 = CARTESIAN_POINT ( 'NONE',  ( -3.400000000000007000, 3.996324248578047900, 1.962990915244735300 ) ) ;
#824 = DIRECTION ( 'NONE',  ( -0.0000000000000000000, -1.000000000000000000, -0.0000000000000000000 ) ) ;
#825 = CARTESIAN_POINT ( 'NONE',  ( -3.400000000000006600, 1.543749999999998800, -0.3270461978521704800 ) ) ;
#826 = CARTESIAN_POINT ( 'NONE',  ( -3.400000000000006600, 4.299999999999988300, 0.3322035126941445000 ) ) ;
#827 = CARTESIAN_POINT ( 'NONE',  ( -1.411451648704027400, 4.299999999999988300, 3.111079841162054800 ) ) ;
#828 = DIRECTION ( 'NONE',  ( 3.624628615055125000E-020, 1.000000000000000000, -0.0000000000000000000 ) ) ;
#829 = CARTESIAN_POINT ( 'NONE',  ( -3.400000000000007000, 4.164250851599736500, 1.324001845399053400 ) ) ;
#830 = CARTESIAN_POINT ( 'NONE',  ( -3.801396569324266100E-015, 4.299999999999999800, 3.925981830489464000 ) ) ;
#831 = DIRECTION ( 'NONE',  ( 0.0000000000000000000, 1.000000000000000000, 0.0000000000000000000 ) ) ;
#832 = CARTESIAN_POINT ( 'NONE',  ( -0.2774030582473114800, 4.088791934661032600, 3.765823100136355800 ) ) ;
#833 = CARTESIAN_POINT ( 'NONE',  ( 0.5666666666666608800, 1.469193745769246100, 3.598816677948677400 ) ) ;
#834 = CARTESIAN_POINT ( 'NONE',  ( -3.801360323038115400E-015, 1.000000000000000000, 0.0000000000000000000 ) ) ;
#835 = CARTESIAN_POINT ( 'NONE',  ( -3.400000000000007000, 4.299999999999999800, -1.962990915244714700 ) ) ;
#836 = CARTESIAN_POINT ( 'NONE',  ( -3.400000000000007000, 4.299999999999999800, 0.0000000000000000000 ) ) ;
#837 = CARTESIAN_POINT ( 'NONE',  ( 3.399999999999986100, 1.346506813566454200, 1.962990915244745800 ) ) ;
#838 = CARTESIAN_POINT ( 'NONE',  ( 1.699999999999991500, 1.618306254230745600, 2.944486372867105600 ) ) ;
#839 = CARTESIAN_POINT ( 'NONE',  ( 0.0000000000000000000, 4.299999999999999800, 0.0000000000000000000 ) ) ;
#840 = DIRECTION ( 'NONE',  ( 0.0000000000000000000, 0.0000000000000000000, 1.000000000000000000 ) ) ;
#841 = CARTESIAN_POINT ( 'NONE',  ( -3.400000000000007500, 4.270641562339415400, 0.6687444612413906400 ) ) ;
#842 = CARTESIAN_POINT ( 'NONE',  ( -3.400000000000007000, 4.087968208735950300, 1.645526924844118400 ) ) ;
#843 = DIRECTION ( 'NONE',  ( -1.000000000000000000, 0.0000000000000000000, 0.0000000000000000000 ) ) ;
#844 = DIRECTION ( 'NONE',  ( -0.0000000000000000000, -1.000000000000000000, -0.0000000000000000000 ) ) ;
ENDSEC;
END-ISO-10303-21;
