ISO-10303-21;
HEADER;
FILE_DESCRIPTION (( 'STEP AP203' ),
    '1' );
FILE_NAME ('ALP0650.STEP',
    '2017-02-02T12:35:12',
    ( '' ),
    ( '' ),
    'SwSTEP 2.0',
    'SolidWorks 2012',
    '' );
FILE_SCHEMA (( 'CONFIG_CONTROL_DESIGN' ));
ENDSEC;

DATA;
#1 = PLANE ( 'NONE',  #893 ) ;
#2 = CARTESIAN_POINT ( 'NONE',  ( 1.224646799147351300E-015, 0.0000000000000000000, 9.000000000000000000 ) ) ;
#3 = CARTESIAN_POINT ( 'NONE',  ( 1.224646799147351300E-015, 0.5000000000000111000, 19.00000000000000000 ) ) ;
#4 = DIRECTION ( 'NONE',  ( -0.7071067811865544600, 0.7071067811865406900, 0.0000000000000000000 ) ) ;
#5 = DIRECTION ( 'NONE',  ( -0.0000000000000000000, -1.000000000000000000, -0.0000000000000000000 ) ) ;
#6 = DIRECTION ( 'NONE',  ( -0.7071067811865406900, -0.7071067811865544600, 0.0000000000000000000 ) ) ;
#7 = PLANE ( 'NONE',  #891 ) ;
#8 = DIRECTION ( 'NONE',  ( -0.0000000000000000000, -1.000000000000000000, -0.0000000000000000000 ) ) ;
#9 = PLANE ( 'NONE',  #888 ) ;
#10 = CARTESIAN_POINT ( 'NONE',  ( 0.0000000000000000000, 0.0000000000000000000, 19.00000000000000000 ) ) ;
#11 = DIRECTION ( 'NONE',  ( 0.0000000000000000000, 0.0000000000000000000, -1.000000000000000000 ) ) ;
#12 = DIRECTION ( 'NONE',  ( 0.0000000000000000000, 0.0000000000000000000, -1.000000000000000000 ) ) ;
#13 = CARTESIAN_POINT ( 'NONE',  ( 1.224646799147351300E-015, 0.0000000000000000000, 9.000000000000000000 ) ) ;
#14 = DIRECTION ( 'NONE',  ( 0.0000000000000000000, 0.0000000000000000000, -1.000000000000000000 ) ) ;
#15 = CARTESIAN_POINT ( 'NONE',  ( 1.224646799147351300E-015, 0.0000000000000000000, -9.000000000000000000 ) ) ;
#16 = DIRECTION ( 'NONE',  ( -0.0000000000000000000, -1.000000000000000000, -0.0000000000000000000 ) ) ;
#17 = DIRECTION ( 'NONE',  ( -1.000000000000000000, 0.0000000000000000000, 0.0000000000000000000 ) ) ;
#18 = DIRECTION ( 'NONE',  ( 0.0000000000000000000, 0.0000000000000000000, -1.000000000000000000 ) ) ;
#19 = PLANE ( 'NONE',  #898 ) ;
#20 = DIRECTION ( 'NONE',  ( 0.0000000000000000000, -1.000000000000000000, 0.0000000000000000000 ) ) ;
#21 = DIRECTION ( 'NONE',  ( 0.0000000000000000000, -0.0000000000000000000, -1.000000000000000000 ) ) ;
#22 = CARTESIAN_POINT ( 'NONE',  ( 1.224646799147351300E-015, 0.5000000000000111000, 19.00000000000000000 ) ) ;
#23 = DIRECTION ( 'NONE',  ( 0.7071067811865561200, 0.7071067811865390200, -0.0000000000000000000 ) ) ;
#24 = DIRECTION ( 'NONE',  ( 0.0000000000000000000, 0.0000000000000000000, 1.000000000000000000 ) ) ;
#25 = CARTESIAN_POINT ( 'NONE',  ( 9.800000000000000700, 5.000000000000000000, 19.00000000000000000 ) ) ;
#26 = CARTESIAN_POINT ( 'NONE',  ( 1.224646799147351300E-015, 0.0000000000000000000, 9.000000000000000000 ) ) ;
#27 = DIRECTION ( 'NONE',  ( -1.000000000000000000, 0.0000000000000000000, 0.0000000000000000000 ) ) ;
#28 = PLANE ( 'NONE',  #869 ) ;
#29 = CARTESIAN_POINT ( 'NONE',  ( 6.800000000000068200, 10.49999999999999800, 19.00000000000000000 ) ) ;
#30 = DIRECTION ( 'NONE',  ( -0.7071067811865390200, 0.7071067811865561200, 0.0000000000000000000 ) ) ;
#31 = CARTESIAN_POINT ( 'NONE',  ( 1.224646799147351300E-015, 0.5000000000000111000, 19.00000000000000000 ) ) ;
#32 = DIRECTION ( 'NONE',  ( 0.7071067811865561200, 0.7071067811865390200, -0.0000000000000000000 ) ) ;
#33 = CARTESIAN_POINT ( 'NONE',  ( 4.900000000000000400, 0.0000000000000000000, 19.00000000000000000 ) ) ;
#34 = DIRECTION ( 'NONE',  ( 0.0000000000000000000, 1.000000000000000000, 0.0000000000000000000 ) ) ;
#35 = DIRECTION ( 'NONE',  ( 0.0000000000000000000, -0.0000000000000000000, 1.000000000000000000 ) ) ;
#36 = DIRECTION ( 'NONE',  ( -0.7071067811865390200, 0.7071067811865561200, 0.0000000000000000000 ) ) ;
#37 = PLANE ( 'NONE',  #864 ) ;
#38 = CARTESIAN_POINT ( 'NONE',  ( 1.224646799147351300E-015, 0.0000000000000000000, -9.000000000000000000 ) ) ;
#39 = DIRECTION ( 'NONE',  ( -0.0000000000000000000, -1.000000000000000000, -0.0000000000000000000 ) ) ;
#40 = DIRECTION ( 'NONE',  ( 0.0000000000000000000, 0.0000000000000000000, -1.000000000000000000 ) ) ;
#41 = CARTESIAN_POINT ( 'NONE',  ( 1.224646799147351300E-015, 0.0000000000000000000, 9.000000000000000000 ) ) ;
#42 = DIRECTION ( 'NONE',  ( 0.0000000000000000000, 0.0000000000000000000, -1.000000000000000000 ) ) ;
#43 = DIRECTION ( 'NONE',  ( -1.000000000000000000, 0.0000000000000000000, 0.0000000000000000000 ) ) ;
#44 = CARTESIAN_POINT ( 'NONE',  ( 1.224646799147351300E-015, 0.0000000000000000000, -9.000000000000000000 ) ) ;
#45 = DIRECTION ( 'NONE',  ( -0.0000000000000000000, -1.000000000000000000, -0.0000000000000000000 ) ) ;
#46 = DIRECTION ( 'NONE',  ( -0.0000000000000000000, -1.000000000000000000, -0.0000000000000000000 ) ) ;
#47 = DIRECTION ( 'NONE',  ( 0.0000000000000000000, 0.0000000000000000000, -1.000000000000000000 ) ) ;
#48 = DIRECTION ( 'NONE',  ( 0.0000000000000000000, 0.0000000000000000000, -1.000000000000000000 ) ) ;
#49 = DIRECTION ( 'NONE',  ( 0.0000000000000000000, 0.0000000000000000000, 1.000000000000000000 ) ) ;
#50 = PLANE ( 'NONE',  #883 ) ;
#51 = CARTESIAN_POINT ( 'NONE',  ( 4.900000000000000400, 5.000000000000000000, 19.00000000000000000 ) ) ;
#52 = DIRECTION ( 'NONE',  ( -0.0000000000000000000, -1.000000000000000000, -0.0000000000000000000 ) ) ;
#53 = PLANE ( 'NONE',  #886 ) ;
#54 = PLANE ( 'NONE',  #902 ) ;
#55 = DIRECTION ( 'NONE',  ( 0.0000000000000000000, 0.0000000000000000000, 1.000000000000000000 ) ) ;
#56 = DIRECTION ( 'NONE',  ( -0.7071067811865544600, 0.7071067811865406900, 0.0000000000000000000 ) ) ;
#57 = DIRECTION ( 'NONE',  ( -1.000000000000000000, 0.0000000000000000000, 0.0000000000000000000 ) ) ;
#58 = PLANE ( 'NONE',  #895 ) ;
#59 = CARTESIAN_POINT ( 'NONE',  ( -9.800000000000000700, 7.500000000000000000, 19.00000000000000000 ) ) ;
#60 = DIRECTION ( 'NONE',  ( 0.0000000000000000000, 1.000000000000000000, -0.0000000000000000000 ) ) ;
#61 = CARTESIAN_POINT ( 'NONE',  ( 0.5000000000000001100, 0.0000000000000000000, 19.00000000000000000 ) ) ;
#62 = DIRECTION ( 'NONE',  ( 0.7071067811865394700, 0.7071067811865555700, 0.0000000000000000000 ) ) ;
#63 = PLANE ( 'NONE',  #896 ) ;
#64 = DIRECTION ( 'NONE',  ( 0.0000000000000000000, -0.0000000000000000000, 1.000000000000000000 ) ) ;
#65 = PLANE ( 'NONE',  #892 ) ;
#66 = CARTESIAN_POINT ( 'NONE',  ( -4.900000000000000400, 5.000000000000000000, 19.00000000000000000 ) ) ;
#67 = CARTESIAN_POINT ( 'NONE',  ( 1.224646799147351300E-015, 0.5000000000000111000, 19.00000000000000000 ) ) ;
#68 = DIRECTION ( 'NONE',  ( 0.7071067811865561200, 0.7071067811865390200, -0.0000000000000000000 ) ) ;
#69 = DIRECTION ( 'NONE',  ( -0.7071067811865406900, -0.7071067811865544600, 0.0000000000000000000 ) ) ;
#70 = PLANE ( 'NONE',  #899 ) ;
#71 = DIRECTION ( 'NONE',  ( 0.0000000000000000000, 1.000000000000000000, 0.0000000000000000000 ) ) ;
#72 = PLANE ( 'NONE',  #900 ) ;
#73 = CARTESIAN_POINT ( 'NONE',  ( 1.224646799147351300E-015, 0.5000000000000111000, 19.00000000000000000 ) ) ;
#74 = PLANE ( 'NONE',  #875 ) ;
#75 = CARTESIAN_POINT ( 'NONE',  ( 0.0000000000000000000, 0.0000000000000000000, -19.00000000000000000 ) ) ;
#76 = PLANE ( 'NONE',  #871 ) ;
#77 = PLANE ( 'NONE',  #889 ) ;
#78 = DIRECTION ( 'NONE',  ( -0.7071067811865390200, 0.7071067811865561200, 0.0000000000000000000 ) ) ;
#79 = DIRECTION ( 'NONE',  ( 0.0000000000000000000, 0.0000000000000000000, 1.000000000000000000 ) ) ;
#80 = CARTESIAN_POINT ( 'NONE',  ( -4.900000000000000400, 0.0000000000000000000, 19.00000000000000000 ) ) ;
#81 = DIRECTION ( 'NONE',  ( 1.000000000000000000, 0.0000000000000000000, 0.0000000000000000000 ) ) ;
#82 = DIRECTION ( 'NONE',  ( 0.0000000000000000000, 0.0000000000000000000, -1.000000000000000000 ) ) ;
#83 = PLANE ( 'NONE',  #887 ) ;
#84 = CARTESIAN_POINT ( 'NONE',  ( -9.800000000000000700, 5.000000000000000000, 19.00000000000000000 ) ) ;
#85 = DIRECTION ( 'NONE',  ( -0.0000000000000000000, -1.000000000000000000, -0.0000000000000000000 ) ) ;
#86 = CARTESIAN_POINT ( 'NONE',  ( 1.224646799147351300E-015, 0.5000000000000111000, 19.00000000000000000 ) ) ;
#87 = DIRECTION ( 'NONE',  ( -0.7071067811865544600, 0.7071067811865406900, 0.0000000000000000000 ) ) ;
#88 = DIRECTION ( 'NONE',  ( 1.000000000000000000, 0.0000000000000000000, 0.0000000000000000000 ) ) ;
#89 = DIRECTION ( 'NONE',  ( 0.0000000000000000000, 0.0000000000000000000, -1.000000000000000000 ) ) ;
#90 = CARTESIAN_POINT ( 'NONE',  ( -9.800000000000000700, 7.500000000000000000, -19.00000000000000000 ) ) ;
#91 = CARTESIAN_POINT ( 'NONE',  ( -0.5000000000000001100, 0.0000000000000000000, 19.00000000000000000 ) ) ;
#92 = DIRECTION ( 'NONE',  ( 0.7071067811865555700, -0.7071067811865394700, 0.0000000000000000000 ) ) ;
#93 = DIRECTION ( 'NONE',  ( 0.0000000000000000000, 0.0000000000000000000, -1.000000000000000000 ) ) ;
#94 = DIRECTION ( 'NONE',  ( 0.0000000000000000000, 1.000000000000000000, -0.0000000000000000000 ) ) ;
#95 = DIRECTION ( 'NONE',  ( -0.7071067811865406900, -0.7071067811865544600, 0.0000000000000000000 ) ) ;
#96 = DIRECTION ( 'NONE',  ( 0.0000000000000000000, 0.0000000000000000000, -1.000000000000000000 ) ) ;
#97 = PLANE ( 'NONE',  #863 ) ;
#98 = CARTESIAN_POINT ( 'NONE',  ( 1.224646799147351300E-015, 0.0000000000000000000, -9.000000000000000000 ) ) ;
#99 = CARTESIAN_POINT ( 'NONE',  ( -0.5000000000000001100, 0.0000000000000000000, 11.98339152643430200 ) ) ;
#100 = CARTESIAN_POINT ( 'NONE',  ( 1.562955477411807600E-015, 0.5250000000000011300, 11.49999999999999800 ) ) ;
#101 = CARTESIAN_POINT ( 'NONE',  ( -0.5000000000000001100, 0.0000000000000000000, 6.016608473565696600 ) ) ;
#102 = CARTESIAN_POINT ( 'NONE',  ( 6.800000000000068200, 10.49999999999999800, -19.00000000000000000 ) ) ;
#103 = CARTESIAN_POINT ( 'NONE',  ( 9.800000000000000700, 7.500000000000000000, 19.00000000000000000 ) ) ;
#104 = CARTESIAN_POINT ( 'NONE',  ( 0.5000000000000001100, 0.0000000000000000000, -19.00000000000000000 ) ) ;
#105 = CARTESIAN_POINT ( 'NONE',  ( 4.900000000000000400, 5.000000000000000000, -19.00000000000000000 ) ) ;
#106 = DIRECTION ( 'NONE',  ( -0.7071067811865553400, -0.7071067811865396900, 0.0000000000000000000 ) ) ;
#107 = CARTESIAN_POINT ( 'NONE',  ( 9.800000000000000700, 7.500000000000000000, -19.00000000000000000 ) ) ;
#108 = CARTESIAN_POINT ( 'NONE',  ( -9.800000000000000700, 7.500000000000000000, 19.00000000000000000 ) ) ;
#109 = DIRECTION ( 'NONE',  ( 0.7071067811865396900, -0.7071067811865553400, 0.0000000000000000000 ) ) ;
#110 = CARTESIAN_POINT ( 'NONE',  ( 1.530808498934189700E-015, 10.49999999999999800, 11.49999999999999800 ) ) ;
#111 = CARTESIAN_POINT ( 'NONE',  ( -6.800000000000070000, 10.49999999999999800, -19.00000000000000000 ) ) ;
#112 = CARTESIAN_POINT ( 'NONE',  ( 1.224646799147351300E-015, 0.5250000000000011300, 6.500000000000000900 ) ) ;
#113 = CARTESIAN_POINT ( 'NONE',  ( -4.900000000000000400, 0.0000000000000000000, -19.00000000000000000 ) ) ;
#114 = CARTESIAN_POINT ( 'NONE',  ( 4.900000000000000400, 5.000000000000000000, 19.00000000000000000 ) ) ;
#115 = CARTESIAN_POINT ( 'NONE',  ( 1.157641832416434100E-015, 0.5000000000000112100, 11.52499999999998800 ) ) ;
#116 = CARTESIAN_POINT ( 'NONE',  ( 0.5000000000000001100, 0.0000000000000000000, -6.016608473565694800 ) ) ;
#117 = CARTESIAN_POINT ( 'NONE',  ( 5.936181161279921200E-016, 0.5000000000000117700, -11.52499999999998800 ) ) ;
#118 = CARTESIAN_POINT ( 'NONE',  ( -9.800000000000000700, 5.000000000000000000, 19.00000000000000000 ) ) ;
#119 = CARTESIAN_POINT ( 'NONE',  ( 9.800000000000000700, 7.500000000000000000, -19.00000000000000000 ) ) ;
#120 = CARTESIAN_POINT ( 'NONE',  ( 1.224646799147351300E-015, 0.5250000000000011300, -11.49999999999999800 ) ) ;
#121 = CARTESIAN_POINT ( 'NONE',  ( -4.900000000000000400, 5.000000000000000000, 19.00000000000000000 ) ) ;
#122 = CARTESIAN_POINT ( 'NONE',  ( -0.5000000000000001100, 0.0000000000000000000, -6.016608473565696600 ) ) ;
#123 = CARTESIAN_POINT ( 'NONE',  ( -0.5000000000000001100, 0.0000000000000000000, 19.00000000000000000 ) ) ;
#124 = CARTESIAN_POINT ( 'NONE',  ( 1.224646799147351300E-015, 0.0000000000000000000, 9.000000000000000000 ) ) ;
#125 = CARTESIAN_POINT ( 'NONE',  ( -0.5000000000000001100, 0.0000000000000000000, -11.98339152643430200 ) ) ;
#126 = CARTESIAN_POINT ( 'NONE',  ( 9.800000000000000700, 5.000000000000000000, 19.00000000000000000 ) ) ;
#127 = CARTESIAN_POINT ( 'NONE',  ( -0.3294565384477636200, 0.1705434615522397900, -11.83905169151693900 ) ) ;
#128 = DIRECTION ( 'NONE',  ( -0.7071067811865396900, 0.7071067811865553400, 0.0000000000000000000 ) ) ;
#129 = CARTESIAN_POINT ( 'NONE',  ( 0.5000000000000001100, 0.0000000000000000000, 19.00000000000000000 ) ) ;
#130 = CARTESIAN_POINT ( 'NONE',  ( -0.5000000000000001100, 0.0000000000000000000, -19.00000000000000000 ) ) ;
#131 = CARTESIAN_POINT ( 'NONE',  ( -0.5000000000000001100, 0.0000000000000000000, -6.016608473565696600 ) ) ;
#132 = CARTESIAN_POINT ( 'NONE',  ( 6.800000000000068200, 10.49999999999999800, 19.00000000000000000 ) ) ;
#133 = CARTESIAN_POINT ( 'NONE',  ( 1.224646799147351300E-015, 10.49999999999999800, 6.500000000000001800 ) ) ;
#134 = CARTESIAN_POINT ( 'NONE',  ( 5.936181161279921200E-016, 0.5000000000000117700, -11.52499999999998800 ) ) ;
#135 = CARTESIAN_POINT ( 'NONE',  ( 0.5000000000000001100, 0.0000000000000000000, 6.016608473565696600 ) ) ;
#136 = CARTESIAN_POINT ( 'NONE',  ( 1.562955477411807600E-015, 0.5250000000000011300, -6.500000000000000900 ) ) ;
#137 = CARTESIAN_POINT ( 'NONE',  ( 9.800000000000000700, 5.000000000000000000, -19.00000000000000000 ) ) ;
#138 = CARTESIAN_POINT ( 'NONE',  ( -6.800000000000070000, 10.49999999999999800, 19.00000000000000000 ) ) ;
#139 = CARTESIAN_POINT ( 'NONE',  ( -9.800000000000000700, 5.000000000000000000, -19.00000000000000000 ) ) ;
#140 = CARTESIAN_POINT ( 'NONE',  ( 9.800000000000000700, 5.000000000000000000, 19.00000000000000000 ) ) ;
#141 = CARTESIAN_POINT ( 'NONE',  ( -0.5000000000000001100, 0.0000000000000000000, -11.98339152643430200 ) ) ;
#142 = CARTESIAN_POINT ( 'NONE',  ( -4.900000000000000400, 5.000000000000000000, -19.00000000000000000 ) ) ;
#143 = CARTESIAN_POINT ( 'NONE',  ( 4.900000000000000400, 0.0000000000000000000, 19.00000000000000000 ) ) ;
#144 = CARTESIAN_POINT ( 'NONE',  ( 1.748284303211776300E-015, 0.5000000000000105500, -6.475000000000009400 ) ) ;
#145 = CARTESIAN_POINT ( 'NONE',  ( 1.224646799147351300E-015, 10.49999999999999800, -11.49999999999999600 ) ) ;
#146 = CARTESIAN_POINT ( 'NONE',  ( -0.1623072875484931600, 0.3376927124515135000, -11.68730728754850800 ) ) ;
#147 = CARTESIAN_POINT ( 'NONE',  ( 1.224646799147351300E-015, 0.5000000000000111000, 19.00000000000000000 ) ) ;
#148 = DIRECTION ( 'NONE',  ( 0.0000000000000000000, 1.000000000000000000, 0.0000000000000000000 ) ) ;
#149 = DIRECTION ( 'NONE',  ( -0.0000000000000000000, -1.000000000000000000, -0.0000000000000000000 ) ) ;
#150 = DIRECTION ( 'NONE',  ( 0.0000000000000000000, 0.0000000000000000000, -1.000000000000000000 ) ) ;
#151 = DIRECTION ( 'NONE',  ( -0.0000000000000000000, -1.000000000000000000, -0.0000000000000000000 ) ) ;
#152 = CARTESIAN_POINT ( 'NONE',  ( -0.3294565384477632900, 0.1705434615522401500, -6.160948308483059900 ) ) ;
#153 = CARTESIAN_POINT ( 'NONE',  ( 1.157641832416434100E-015, 0.5000000000000112100, 11.52499999999998800 ) ) ;
#154 = CARTESIAN_POINT ( 'NONE',  ( -0.1623072875484928800, 0.3376927124515138300, -6.312692712451490900 ) ) ;
#155 = CARTESIAN_POINT ( 'NONE',  ( 1.530808498934189400E-015, 10.49999999999999800, -6.500000000000001800 ) ) ;
#156 = CARTESIAN_POINT ( 'NONE',  ( -9.800000000000000700, 5.000000000000000000, 19.00000000000000000 ) ) ;
#157 = CARTESIAN_POINT ( 'NONE',  ( 1.748284303211776300E-015, 0.5000000000000105500, -6.475000000000009400 ) ) ;
#158 = CARTESIAN_POINT ( 'NONE',  ( 1.224646799147351300E-015, 0.5000000000000111000, -19.00000000000000000 ) ) ;
#159 = CARTESIAN_POINT ( 'NONE',  ( 9.800000000000000700, 7.500000000000000000, 19.00000000000000000 ) ) ;
#160 = CARTESIAN_POINT ( 'NONE',  ( -4.900000000000000400, 5.000000000000000000, 19.00000000000000000 ) ) ;
#161 = CARTESIAN_POINT ( 'NONE',  ( 0.1623072875484947700, 0.3376927124515136700, 11.68730728754850800 ) ) ;
#162 = CARTESIAN_POINT ( 'NONE',  ( 1.172611540893346800E-015, 0.5000000000000111000, 6.475000000000010300 ) ) ;
#163 = CARTESIAN_POINT ( 'NONE',  ( 4.900000000000000400, 0.0000000000000000000, -19.00000000000000000 ) ) ;
#164 = CARTESIAN_POINT ( 'NONE',  ( -4.900000000000000400, 0.0000000000000000000, 19.00000000000000000 ) ) ;
#165 = CARTESIAN_POINT ( 'NONE',  ( 0.5000000000000001100, 0.0000000000000000000, 11.98339152643430200 ) ) ;
#166 = CARTESIAN_POINT ( 'NONE',  ( 0.5000000000000001100, 0.0000000000000000000, -11.98339152643430200 ) ) ;
#167 = DIRECTION ( 'NONE',  ( -0.0000000000000000000, -0.0000000000000000000, -1.000000000000000000 ) ) ;
#168 = CARTESIAN_POINT ( 'NONE',  ( -4.900000000000000400, 0.0000000000000000000, 19.00000000000000000 ) ) ;
#169 = DIRECTION ( 'NONE',  ( 8.659560562354930400E-017, -0.7071067811865479100, 0.7071067811865472400 ) ) ;
#170 = DIRECTION ( 'NONE',  ( 0.0000000000000000000, 0.0000000000000000000, -1.000000000000000000 ) ) ;
#171 = CARTESIAN_POINT ( 'NONE',  ( 0.5000000000000001100, 0.0000000000000000000, 19.00000000000000000 ) ) ;
#172 = DIRECTION ( 'NONE',  ( -0.0000000000000000000, -0.0000000000000000000, -1.000000000000000000 ) ) ;
#173 = CARTESIAN_POINT ( 'NONE',  ( -0.5000000000000001100, 0.0000000000000000000, 19.00000000000000000 ) ) ;
#174 = DIRECTION ( 'NONE',  ( -0.0000000000000000000, -0.0000000000000000000, -1.000000000000000000 ) ) ;
#175 = DIRECTION ( 'NONE',  ( -0.0000000000000000000, -0.0000000000000000000, -1.000000000000000000 ) ) ;
#176 = CARTESIAN_POINT ( 'NONE',  ( 6.800000000000068200, 10.49999999999999800, 19.00000000000000000 ) ) ;
#177 = CARTESIAN_POINT ( 'NONE',  ( -9.800000000000000700, 7.500000000000000000, 19.00000000000000000 ) ) ;
#178 = CARTESIAN_POINT ( 'NONE',  ( 0.3294565384477642400, 0.1705434615522401500, 11.83905169151694100 ) ) ;
#179 = DIRECTION ( 'NONE',  ( -0.0000000000000000000, -0.0000000000000000000, -1.000000000000000000 ) ) ;
#180 = DIRECTION ( 'NONE',  ( -0.0000000000000000000, -0.0000000000000000000, -1.000000000000000000 ) ) ;
#181 = CARTESIAN_POINT ( 'NONE',  ( -4.900000000000000400, 5.000000000000000000, -19.00000000000000000 ) ) ;
#182 = DIRECTION ( 'NONE',  ( -0.0000000000000000000, -1.000000000000000000, -0.0000000000000000000 ) ) ;
#183 = DIRECTION ( 'NONE',  ( -0.0000000000000000000, -1.000000000000000000, -0.0000000000000000000 ) ) ;
#184 = DIRECTION ( 'NONE',  ( -0.0000000000000000000, -1.000000000000000000, -0.0000000000000000000 ) ) ;
#185 = DIRECTION ( 'NONE',  ( 0.0000000000000000000, 0.0000000000000000000, -1.000000000000000000 ) ) ;
#186 = CARTESIAN_POINT ( 'NONE',  ( -9.800000000000000700, 5.000000000000000000, 19.00000000000000000 ) ) ;
#187 = DIRECTION ( 'NONE',  ( 0.7071067811865390200, -0.7071067811865561200, 0.0000000000000000000 ) ) ;
#188 = CARTESIAN_POINT ( 'NONE',  ( 0.5000000000000001100, 0.0000000000000000000, 11.98339152643430200 ) ) ;
#189 = DIRECTION ( 'NONE',  ( -0.0000000000000000000, -0.0000000000000000000, -1.000000000000000000 ) ) ;
#190 = DIRECTION ( 'NONE',  ( -0.0000000000000000000, -1.000000000000000000, -0.0000000000000000000 ) ) ;
#191 = DIRECTION ( 'NONE',  ( 1.000000000000000000, -0.0000000000000000000, -0.0000000000000000000 ) ) ;
#192 = CARTESIAN_POINT ( 'NONE',  ( 1.224646799147351300E-015, 10.49999999999999800, 9.000000000000000000 ) ) ;
#193 = CARTESIAN_POINT ( 'NONE',  ( 1.224646799147351300E-015, 0.0000000000000000000, -12.02499999999999900 ) ) ;
#194 = CARTESIAN_POINT ( 'NONE',  ( 1.530808498934189500E-015, 0.0000000000000000000, -6.500000000000000900 ) ) ;
#195 = DIRECTION ( 'NONE',  ( -0.0000000000000000000, -0.0000000000000000000, -1.000000000000000000 ) ) ;
#196 = CARTESIAN_POINT ( 'NONE',  ( 1.224646799147351300E-015, 10.49999999999999800, -9.000000000000000000 ) ) ;
#197 = DIRECTION ( 'NONE',  ( -0.0000000000000000000, -0.0000000000000000000, -1.000000000000000000 ) ) ;
#198 = CARTESIAN_POINT ( 'NONE',  ( 1.595102455889425700E-015, 0.0000000000000000000, -5.974999999999999600 ) ) ;
#199 = CARTESIAN_POINT ( 'NONE',  ( -9.800000000000000700, 7.500000000000000000, 19.00000000000000000 ) ) ;
#200 = CARTESIAN_POINT ( 'NONE',  ( -0.5000000000000001100, 0.0000000000000000000, 19.00000000000000000 ) ) ;
#201 = CARTESIAN_POINT ( 'NONE',  ( 1.224646799147351300E-015, 10.49999999999999800, 9.000000000000000000 ) ) ;
#202 = CARTESIAN_POINT ( 'NONE',  ( 1.224646799147351300E-015, 0.5000000000000111000, 19.00000000000000000 ) ) ;
#203 = CARTESIAN_POINT ( 'NONE',  ( 1.224646799147351300E-015, 0.5000000000000111000, 19.00000000000000000 ) ) ;
#204 = CARTESIAN_POINT ( 'NONE',  ( -9.800000000000000700, 5.000000000000000000, -19.00000000000000000 ) ) ;
#205 = CARTESIAN_POINT ( 'NONE',  ( 1.224646799147351300E-015, 0.5000000000000111000, 19.00000000000000000 ) ) ;
#206 = CARTESIAN_POINT ( 'NONE',  ( 4.900000000000000400, 0.0000000000000000000, 19.00000000000000000 ) ) ;
#207 = CARTESIAN_POINT ( 'NONE',  ( 1.224646799147351300E-015, 0.0000000000000000000, -11.49999999999999800 ) ) ;
#208 = DIRECTION ( 'NONE',  ( 0.0000000000000000000, -0.7071067811865479100, -0.7071067811865472400 ) ) ;
#209 = DIRECTION ( 'NONE',  ( -0.0000000000000000000, -1.000000000000000000, -0.0000000000000000000 ) ) ;
#210 = DIRECTION ( 'NONE',  ( 0.0000000000000000000, 0.0000000000000000000, -1.000000000000000000 ) ) ;
#211 = DIRECTION ( 'NONE',  ( -0.7071067811865394700, -0.7071067811865555700, -0.0000000000000000000 ) ) ;
#212 = DIRECTION ( 'NONE',  ( -0.0000000000000000000, -0.0000000000000000000, -1.000000000000000000 ) ) ;
#213 = DIRECTION ( 'NONE',  ( 1.000000000000000000, 0.0000000000000000000, 0.0000000000000000000 ) ) ;
#214 = DIRECTION ( 'NONE',  ( 0.0000000000000000000, 1.000000000000000000, 0.0000000000000000000 ) ) ;
#215 = DIRECTION ( 'NONE',  ( -0.0000000000000000000, -1.000000000000000000, -0.0000000000000000000 ) ) ;
#216 = DIRECTION ( 'NONE',  ( -0.0000000000000000000, -0.0000000000000000000, -1.000000000000000000 ) ) ;
#217 = DIRECTION ( 'NONE',  ( -0.0000000000000000000, -0.0000000000000000000, -1.000000000000000000 ) ) ;
#218 = CARTESIAN_POINT ( 'NONE',  ( 6.800000000000068200, 10.49999999999999800, 19.00000000000000000 ) ) ;
#219 = CARTESIAN_POINT ( 'NONE',  ( 9.800000000000000700, 5.000000000000000000, 19.00000000000000000 ) ) ;
#220 = DIRECTION ( 'NONE',  ( -1.000000000000000000, 0.0000000000000000000, 0.0000000000000000000 ) ) ;
#221 = DIRECTION ( 'NONE',  ( 8.659560562354930400E-017, -0.7071067811865479100, 0.7071067811865472400 ) ) ;
#222 = CARTESIAN_POINT ( 'NONE',  ( 1.224646799147351300E-015, 10.49999999999999800, -9.000000000000000000 ) ) ;
#223 = CARTESIAN_POINT ( 'NONE',  ( 1.224646799147351300E-015, 0.0000000000000000000, 9.000000000000000000 ) ) ;
#224 = DIRECTION ( 'NONE',  ( -0.0000000000000000000, -1.000000000000000000, -0.0000000000000000000 ) ) ;
#225 = DIRECTION ( 'NONE',  ( 0.0000000000000000000, 0.0000000000000000000, -1.000000000000000000 ) ) ;
#226 = CARTESIAN_POINT ( 'NONE',  ( 0.5000000000000001100, 0.0000000000000000000, 19.00000000000000000 ) ) ;
#227 = DIRECTION ( 'NONE',  ( 1.000000000000000000, -0.0000000000000000000, -0.0000000000000000000 ) ) ;
#228 = CARTESIAN_POINT ( 'NONE',  ( 1.530808498934189500E-015, 0.0000000000000000000, 11.49999999999999800 ) ) ;
#229 = CARTESIAN_POINT ( 'NONE',  ( 4.900000000000000400, 5.000000000000000000, 19.00000000000000000 ) ) ;
#230 = CARTESIAN_POINT ( 'NONE',  ( 1.595102455889425700E-015, 0.0000000000000000000, 12.02499999999999900 ) ) ;
#231 = DIRECTION ( 'NONE',  ( -0.0000000000000000000, -1.000000000000000000, -0.0000000000000000000 ) ) ;
#232 = CARTESIAN_POINT ( 'NONE',  ( 4.900000000000000400, 5.000000000000000000, 19.00000000000000000 ) ) ;
#233 = DIRECTION ( 'NONE',  ( -0.0000000000000000000, -0.0000000000000000000, -1.000000000000000000 ) ) ;
#234 = DIRECTION ( 'NONE',  ( -0.0000000000000000000, -1.000000000000000000, -0.0000000000000000000 ) ) ;
#235 = CARTESIAN_POINT ( 'NONE',  ( 4.900000000000000400, 5.000000000000000000, -19.00000000000000000 ) ) ;
#236 = DIRECTION ( 'NONE',  ( 1.000000000000000000, 0.0000000000000000000, 0.0000000000000000000 ) ) ;
#237 = DIRECTION ( 'NONE',  ( 0.0000000000000000000, 0.0000000000000000000, -1.000000000000000000 ) ) ;
#238 = CARTESIAN_POINT ( 'NONE',  ( 4.900000000000000400, 0.0000000000000000000, -19.00000000000000000 ) ) ;
#239 = DIRECTION ( 'NONE',  ( 0.0000000000000000000, 0.0000000000000000000, -1.000000000000000000 ) ) ;
#240 = CARTESIAN_POINT ( 'NONE',  ( 5.936181161279921200E-016, 0.5000000000000117700, -11.52499999999998800 ) ) ;
#241 = CARTESIAN_POINT ( 'NONE',  ( 1.224646799147351300E-015, 0.5000000000000111000, -19.00000000000000000 ) ) ;
#242 = CARTESIAN_POINT ( 'NONE',  ( -0.1623072875484928300, 0.3376927124515138300, 6.312692712451490900 ) ) ;
#243 = CARTESIAN_POINT ( 'NONE',  ( 0.1623072875484951900, 0.3376927124515131700, -6.312692712451490000 ) ) ;
#244 = CARTESIAN_POINT ( 'NONE',  ( 9.800000000000000700, 7.500000000000000000, 19.00000000000000000 ) ) ;
#245 = CARTESIAN_POINT ( 'NONE',  ( 1.224646799147351300E-015, 0.5000000000000111000, -19.00000000000000000 ) ) ;
#246 = DIRECTION ( 'NONE',  ( -0.0000000000000000000, -1.000000000000000000, -0.0000000000000000000 ) ) ;
#247 = CARTESIAN_POINT ( 'NONE',  ( 0.5000000000000001100, 0.0000000000000000000, -6.016608473565694800 ) ) ;
#248 = CARTESIAN_POINT ( 'NONE',  ( 1.748284303211776300E-015, 0.5000000000000105500, -6.475000000000009400 ) ) ;
#249 = DIRECTION ( 'NONE',  ( -0.0000000000000000000, -0.0000000000000000000, -1.000000000000000000 ) ) ;
#250 = DIRECTION ( 'NONE',  ( -0.0000000000000000000, -0.0000000000000000000, -1.000000000000000000 ) ) ;
#251 = DIRECTION ( 'NONE',  ( -0.0000000000000000000, -1.000000000000000000, -0.0000000000000000000 ) ) ;
#252 = CARTESIAN_POINT ( 'NONE',  ( -4.900000000000000400, 0.0000000000000000000, -19.00000000000000000 ) ) ;
#253 = CARTESIAN_POINT ( 'NONE',  ( -0.5000000000000001100, 0.0000000000000000000, 11.98339152643430200 ) ) ;
#254 = DIRECTION ( 'NONE',  ( 0.7071067811865390200, -0.7071067811865561200, 0.0000000000000000000 ) ) ;
#255 = CARTESIAN_POINT ( 'NONE',  ( 0.5000000000000001100, 0.0000000000000000000, -19.00000000000000000 ) ) ;
#256 = DIRECTION ( 'NONE',  ( -1.000000000000000000, 0.0000000000000000000, 0.0000000000000000000 ) ) ;
#257 = CARTESIAN_POINT ( 'NONE',  ( 1.224646799147351300E-015, 0.5250000000000011300, -9.000000000000000000 ) ) ;
#258 = CARTESIAN_POINT ( 'NONE',  ( 0.3294565384477642400, 0.1705434615522401500, 6.160948308483059000 ) ) ;
#259 = CARTESIAN_POINT ( 'NONE',  ( 6.800000000000068200, 10.49999999999999800, -19.00000000000000000 ) ) ;
#260 = DIRECTION ( 'NONE',  ( -0.0000000000000000000, -1.000000000000000000, -0.0000000000000000000 ) ) ;
#261 = CARTESIAN_POINT ( 'NONE',  ( 0.1623072875484948600, 0.3376927124515135500, 6.312692712451490000 ) ) ;
#262 = CARTESIAN_POINT ( 'NONE',  ( -0.5000000000000001100, 0.0000000000000000000, 19.00000000000000000 ) ) ;
#263 = CARTESIAN_POINT ( 'NONE',  ( 0.5000000000000001100, 0.0000000000000000000, 6.016608473565696600 ) ) ;
#264 = CARTESIAN_POINT ( 'NONE',  ( 1.172611540893346800E-015, 0.5000000000000111000, 6.475000000000010300 ) ) ;
#265 = DIRECTION ( 'NONE',  ( 1.000000000000000000, -0.0000000000000000000, -0.0000000000000000000 ) ) ;
#266 = DIRECTION ( 'NONE',  ( 0.7071067811865406900, 0.7071067811865544600, -0.0000000000000000000 ) ) ;
#267 = DIRECTION ( 'NONE',  ( 1.000000000000000000, 0.0000000000000000000, 0.0000000000000000000 ) ) ;
#268 = CARTESIAN_POINT ( 'NONE',  ( 1.224646799147351300E-015, 0.0000000000000000000, -9.000000000000000000 ) ) ;
#269 = CARTESIAN_POINT ( 'NONE',  ( 1.172611540893346800E-015, 0.5000000000000111000, 6.475000000000010300 ) ) ;
#270 = CARTESIAN_POINT ( 'NONE',  ( 1.224646799147351300E-015, 0.5000000000000111000, 19.00000000000000000 ) ) ;
#271 = DIRECTION ( 'NONE',  ( 0.7071067811865406900, 0.7071067811865544600, -0.0000000000000000000 ) ) ;
#272 = CARTESIAN_POINT ( 'NONE',  ( 0.3294565384477649600, 0.1705434615522393700, -6.160948308483058100 ) ) ;
#273 = DIRECTION ( 'NONE',  ( 0.0000000000000000000, 0.0000000000000000000, -1.000000000000000000 ) ) ;
#274 = CARTESIAN_POINT ( 'NONE',  ( 0.5000000000000001100, 0.0000000000000000000, -11.98339152643430200 ) ) ;
#275 = CARTESIAN_POINT ( 'NONE',  ( 0.1623072875484940500, 0.3376927124515143900, -11.68730728754850600 ) ) ;
#276 = DIRECTION ( 'NONE',  ( 0.0000000000000000000, -0.7071067811865479100, -0.7071067811865472400 ) ) ;
#277 = CARTESIAN_POINT ( 'NONE',  ( 1.224646799147351300E-015, 0.0000000000000000000, 6.500000000000000900 ) ) ;
#278 = DIRECTION ( 'NONE',  ( -0.0000000000000000000, -1.000000000000000000, -0.0000000000000000000 ) ) ;
#279 = CARTESIAN_POINT ( 'NONE',  ( -4.900000000000000400, 5.000000000000000000, 19.00000000000000000 ) ) ;
#280 = CARTESIAN_POINT ( 'NONE',  ( 0.3294565384477639000, 0.1705434615522404300, -11.83905169151694100 ) ) ;
#281 = CARTESIAN_POINT ( 'NONE',  ( 1.224646799147351300E-015, 0.0000000000000000000, 5.974999999999999600 ) ) ;
#282 = CARTESIAN_POINT ( 'NONE',  ( -4.900000000000000400, 0.0000000000000000000, 19.00000000000000000 ) ) ;
#283 = DIRECTION ( 'NONE',  ( -0.0000000000000000000, -1.000000000000000000, -0.0000000000000000000 ) ) ;
#284 = DIRECTION ( 'NONE',  ( -0.7071067811865394700, -0.7071067811865555700, -0.0000000000000000000 ) ) ;
#285 = DIRECTION ( 'NONE',  ( -0.0000000000000000000, -0.0000000000000000000, -1.000000000000000000 ) ) ;
#286 = DIRECTION ( 'NONE',  ( 1.000000000000000000, 0.0000000000000000000, 0.0000000000000000000 ) ) ;
#287 = DIRECTION ( 'NONE',  ( 1.000000000000000000, -0.0000000000000000000, -0.0000000000000000000 ) ) ;
#288 = CARTESIAN_POINT ( 'NONE',  ( -0.1623072875484933000, 0.3376927124515133900, 11.68730728754850800 ) ) ;
#289 = DIRECTION ( 'NONE',  ( -0.0000000000000000000, -1.000000000000000000, -0.0000000000000000000 ) ) ;
#290 = DIRECTION ( 'NONE',  ( -0.0000000000000000000, -0.0000000000000000000, -1.000000000000000000 ) ) ;
#291 = CARTESIAN_POINT ( 'NONE',  ( 1.224646799147351300E-015, 0.5250000000000011300, -9.000000000000000000 ) ) ;
#292 =( NAMED_UNIT ( * ) PLANE_ANGLE_UNIT ( ) SI_UNIT ( $, .RADIAN. ) );
#293 = DIRECTION ( 'NONE',  ( -0.0000000000000000000, -0.0000000000000000000, -1.000000000000000000 ) ) ;
#294 = CARTESIAN_POINT ( 'NONE',  ( -0.5000000000000001100, 0.0000000000000000000, -19.00000000000000000 ) ) ;
#295 = CARTESIAN_POINT ( 'NONE',  ( -6.800000000000070000, 10.49999999999999800, 19.00000000000000000 ) ) ;
#296 =( NAMED_UNIT ( * ) SI_UNIT ( $, .STERADIAN. ) SOLID_ANGLE_UNIT ( ) );
#297 = DIRECTION ( 'NONE',  ( -0.0000000000000000000, -1.000000000000000000, -0.0000000000000000000 ) ) ;
#298 = CARTESIAN_POINT ( 'NONE',  ( -0.5000000000000001100, 0.0000000000000000000, 6.016608473565696600 ) ) ;
#299 = CARTESIAN_POINT ( 'NONE',  ( -9.800000000000000700, 7.500000000000000000, -19.00000000000000000 ) ) ;
#300 = CARTESIAN_POINT ( 'NONE',  ( 1.224646799147351300E-015, 0.5250000000000011300, 9.000000000000000000 ) ) ;
#301 = CARTESIAN_POINT ( 'NONE',  ( 1.157641832416434100E-015, 0.5000000000000112100, 11.52499999999998800 ) ) ;
#302 = CARTESIAN_POINT ( 'NONE',  ( 0.5000000000000001100, 0.0000000000000000000, 19.00000000000000000 ) ) ;
#303 = DIRECTION ( 'NONE',  ( -0.0000000000000000000, -1.000000000000000000, -0.0000000000000000000 ) ) ;
#304 = DIRECTION ( 'NONE',  ( 0.0000000000000000000, 0.0000000000000000000, -1.000000000000000000 ) ) ;
#305 = CARTESIAN_POINT ( 'NONE',  ( 1.224646799147351300E-015, 0.5000000000000111000, 19.00000000000000000 ) ) ;
#306 = DIRECTION ( 'NONE',  ( -0.7071067811865396900, 0.7071067811865553400, 0.0000000000000000000 ) ) ;
#307 = CARTESIAN_POINT ( 'NONE',  ( -0.3294565384477635100, 0.1705434615522398400, 11.83905169151693900 ) ) ;
#308 = CARTESIAN_POINT ( 'NONE',  ( 9.800000000000000700, 5.000000000000000000, -19.00000000000000000 ) ) ;
#309 = CARTESIAN_POINT ( 'NONE',  ( -0.5000000000000001100, 0.0000000000000000000, 19.00000000000000000 ) ) ;
#310 = CARTESIAN_POINT ( 'NONE',  ( 4.900000000000000400, 0.0000000000000000000, 19.00000000000000000 ) ) ;
#311 = CARTESIAN_POINT ( 'NONE',  ( 1.224646799147351300E-015, 0.0000000000000000000, -9.000000000000000000 ) ) ;
#312 = CARTESIAN_POINT ( 'NONE',  ( 0.0000000000000000000, 0.0000000000000000000, 0.0000000000000000000 ) ) ;
#313 =( LENGTH_UNIT ( ) NAMED_UNIT ( * ) SI_UNIT ( .MILLI., .METRE. ) );
#314 = CARTESIAN_POINT ( 'NONE',  ( 1.224646799147351300E-015, 0.5250000000000011300, 9.000000000000000000 ) ) ;
#315 = CARTESIAN_POINT ( 'NONE',  ( 9.800000000000000700, 7.500000000000000000, 19.00000000000000000 ) ) ;
#316 = DIRECTION ( 'NONE',  ( 0.0000000000000000000, 0.0000000000000000000, -1.000000000000000000 ) ) ;
#317 = CARTESIAN_POINT ( 'NONE',  ( -0.3294565384477635700, 0.1705434615522399300, 6.160948308483059000 ) ) ;
#318 = CARTESIAN_POINT ( 'NONE',  ( 0.5000000000000001100, 0.0000000000000000000, 19.00000000000000000 ) ) ;
#319 = DIRECTION ( 'NONE',  ( 0.0000000000000000000, 1.000000000000000000, 0.0000000000000000000 ) ) ;
#320 = DIRECTION ( 'NONE',  ( -0.0000000000000000000, -0.0000000000000000000, -1.000000000000000000 ) ) ;
#321 = DIRECTION ( 'NONE',  ( 0.0000000000000000000, 1.000000000000000000, 0.0000000000000000000 ) ) ;
#322 = DIRECTION ( 'NONE',  ( -0.0000000000000000000, -1.000000000000000000, -0.0000000000000000000 ) ) ;
#323 = DIRECTION ( 'NONE',  ( 0.0000000000000000000, 0.0000000000000000000, -1.000000000000000000 ) ) ;
#324 = DIRECTION ( 'NONE',  ( 0.0000000000000000000, 0.0000000000000000000, -1.000000000000000000 ) ) ;
#325 = PERSON_AND_ORGANIZATION_ROLE ( 'creator' ) ;
#326 = APPLICATION_PROTOCOL_DEFINITION ( 'international standard', 'config_control_design', 1994, #345 ) ;
#327 = PERSON_AND_ORGANIZATION_ROLE ( 'design_owner' ) ;
#328 = APPROVAL_STATUS ( 'not_yet_approved' ) ;
#329 = APPROVAL_ROLE ( '' ) ;
#330 = PERSON_AND_ORGANIZATION_ROLE ( 'design_supplier' ) ;
#331 = APPROVAL_ROLE ( '' ) ;
#332 = DIRECTION ( 'NONE',  ( 0.0000000000000000000, 0.0000000000000000000, 1.000000000000000000 ) ) ;
#333 = PERSON_AND_ORGANIZATION_ROLE ( 'creator' ) ;
#334 = SECURITY_CLASSIFICATION_LEVEL ( 'unclassified' ) ;
#335 = DATE_TIME_ROLE ( 'classification_date' ) ;
#336 = APPROVAL_STATUS ( 'not_yet_approved' ) ;
#337 = DIRECTION ( 'NONE',  ( 1.000000000000000000, 0.0000000000000000000, 0.0000000000000000000 ) ) ;
#338 = APPLICATION_CONTEXT ( 'configuration controlled 3d designs of mechanical parts and assemblies' ) ;
#339 = PERSON_AND_ORGANIZATION_ROLE ( 'classification_officer' ) ;
#340 = MECHANICAL_CONTEXT ( 'NONE', #338, 'mechanical' ) ;
#341 = DATE_TIME_ROLE ( 'creation_date' ) ;
#342 = APPROVAL_ROLE ( '' ) ;
#343 = APPROVAL_STATUS ( 'not_yet_approved' ) ;
#344 = APPLICATION_PROTOCOL_DEFINITION ( 'international standard', 'config_control_design', 1994, #338 ) ;
#345 = APPLICATION_CONTEXT ( 'configuration controlled 3d designs of mechanical parts and assemblies' ) ;
#346 = DESIGN_CONTEXT ( 'detailed design', #345, 'design' ) ;
#347 = PRODUCT_DEFINITION_SHAPE ( 'NONE', 'NONE',  #920 ) ;
#348 = ADVANCED_FACE ( 'NONE', ( #410 ), #456, .F. ) ;
#349 = ADVANCED_FACE ( 'NONE', ( #418 ), #424, .F. ) ;
#350 = ADVANCED_FACE ( 'NONE', ( #645 ), #1, .F. ) ;
#351 = ADVANCED_FACE ( 'NONE', ( #440, #420, #445 ), #19, .F. ) ;
#352 = ADVANCED_FACE ( 'NONE', ( #427 ), #9, .F. ) ;
#353 = ADVANCED_FACE ( 'NONE', ( #422 ), #7, .F. ) ;
#354 = ADVANCED_FACE ( 'NONE', ( #425 ), #37, .F. ) ;
#355 = ADVANCED_FACE ( 'NONE', ( #441 ), #457, .F. ) ;
#356 = ADVANCED_FACE ( 'NONE', ( #426 ), #50, .F. ) ;
#357 = ADVANCED_FACE ( 'NONE', ( #429 ), #28, .F. ) ;
#358 = ADVANCED_FACE ( 'NONE', ( #461 ), #53, .F. ) ;
#359 = ADVANCED_FACE ( 'NONE', ( #423 ), #443, .F. ) ;
#360 = ADVANCED_FACE ( 'NONE', ( #444 ), #419, .F. ) ;
#361 = ADVANCED_FACE ( 'NONE', ( #430 ), #431, .F. ) ;
#362 = ADVANCED_FACE ( 'NONE', ( #436 ), #447, .F. ) ;
#363 = ADVANCED_FACE ( 'NONE', ( #437 ), #65, .T. ) ;
#364 = ADVANCED_FACE ( 'NONE', ( #458 ), #63, .F. ) ;
#365 = ADVANCED_FACE ( 'NONE', ( #462 ), #58, .F. ) ;
#366 = ADVANCED_FACE ( 'NONE', ( #435 ), #76, .F. ) ;
#367 = ADVANCED_FACE ( 'NONE', ( #442 ), #421, .F. ) ;
#368 = ADVANCED_FACE ( 'NONE', ( #428 ), #77, .F. ) ;
#369 = ADVANCED_FACE ( 'NONE', ( #448 ), #74, .F. ) ;
#370 = ADVANCED_FACE ( 'NONE', ( #434 ), #70, .F. ) ;
#371 = ADVANCED_FACE ( 'NONE', ( #439 ), #72, .F. ) ;
#372 = ADVANCED_FACE ( 'NONE', ( #446 ), #83, .F. ) ;
#373 = ADVANCED_FACE ( 'NONE', ( #464 ), #54, .F. ) ;
#374 = ADVANCED_FACE ( 'NONE', ( #432 ), #97, .F. ) ;
#375 = PRODUCT ( 'ALP0650', 'ALP0650', '', ( #340 ) ) ;
#376 = PERSON ( 'UNSPECIFIED', 'UNSPECIFIED', 'UNSPECIFIED', ('UNSPECIFIED'), ('UNSPECIFIED'), ('UNSPECIFIED') ) ;
#377 = VERTEX_POINT ( 'NONE', #110 ) ;
#378 = VERTEX_POINT ( 'NONE', #104 ) ;
#379 = VERTEX_POINT ( 'NONE', #113 ) ;
#380 = VERTEX_POINT ( 'NONE', #105 ) ;
#381 = VERTEX_POINT ( 'NONE', #107 ) ;
#382 = VERTEX_POINT ( 'NONE', #108 ) ;
#383 = VERTEX_POINT ( 'NONE', #90 ) ;
#384 = VERTEX_POINT ( 'NONE', #111 ) ;
#385 = VERTEX_POINT ( 'NONE', #112 ) ;
#386 = VERTEX_POINT ( 'NONE', #100 ) ;
#387 = VERTEX_POINT ( 'NONE', #99 ) ;
#388 = VERTEX_POINT ( 'NONE', #114 ) ;
#389 = VERTEX_POINT ( 'NONE', #115 ) ;
#390 = VERTEX_POINT ( 'NONE', #101 ) ;
#391 = VERTEX_POINT ( 'NONE', #102 ) ;
#392 = VERTEX_POINT ( 'NONE', #142 ) ;
#393 = VERTEX_POINT ( 'NONE', #158 ) ;
#394 = VERTEX_POINT ( 'NONE', #120 ) ;
#395 = VERTEX_POINT ( 'NONE', #135 ) ;
#396 = VERTEX_POINT ( 'NONE', #138 ) ;
#397 = VERTEX_POINT ( 'NONE', #121 ) ;
#398 = VERTEX_POINT ( 'NONE', #131 ) ;
#399 = VERTEX_POINT ( 'NONE', #163 ) ;
#400 = VERTEX_POINT ( 'NONE', #147 ) ;
#401 = VERTEX_POINT ( 'NONE', #136 ) ;
#402 = VERTEX_POINT ( 'NONE', #116 ) ;
#403 = VERTEX_POINT ( 'NONE', #126 ) ;
#404 = VERTEX_POINT ( 'NONE', #141 ) ;
#405 = VERTEX_POINT ( 'NONE', #164 ) ;
#406 = VERTEX_POINT ( 'NONE', #118 ) ;
#407 = VERTEX_POINT ( 'NONE', #143 ) ;
#408 = VERTEX_POINT ( 'NONE', #130 ) ;
#409 = VERTEX_POINT ( 'NONE', #166 ) ;
#410 = FACE_OUTER_BOUND ( 'NONE', #631, .T. ) ;
#411 = VERTEX_POINT ( 'NONE', #159 ) ;
#412 = VERTEX_POINT ( 'NONE', #133 ) ;
#413 = VERTEX_POINT ( 'NONE', #165 ) ;
#414 = VERTEX_POINT ( 'NONE', #123 ) ;
#415 = VERTEX_POINT ( 'NONE', #137 ) ;
#416 = VERTEX_POINT ( 'NONE', #132 ) ;
#417 = VERTEX_POINT ( 'NONE', #129 ) ;
#418 = FACE_OUTER_BOUND ( 'NONE', #637, .T. ) ;
#419 = CONICAL_SURFACE ( 'NONE', #878, 3.024999999999999900, 0.7853981633974479500 ) ;
#420 = FACE_BOUND ( 'NONE', #613, .T. ) ;
#421 = CONICAL_SURFACE ( 'NONE', #894, 3.024999999999999900, 0.7853981633974479500 ) ;
#422 = FACE_OUTER_BOUND ( 'NONE', #640, .T. ) ;
#423 = FACE_OUTER_BOUND ( 'NONE', #626, .T. ) ;
#424 = CYLINDRICAL_SURFACE ( 'NONE', #873, 2.499999999999998700 ) ;
#425 = FACE_OUTER_BOUND ( 'NONE', #642, .T. ) ;
#426 = FACE_OUTER_BOUND ( 'NONE', #609, .T. ) ;
#427 = FACE_OUTER_BOUND ( 'NONE', #623, .T. ) ;
#428 = FACE_OUTER_BOUND ( 'NONE', #644, .T. ) ;
#429 = FACE_OUTER_BOUND ( 'NONE', #643, .T. ) ;
#430 = FACE_OUTER_BOUND ( 'NONE', #634, .T. ) ;
#431 = CONICAL_SURFACE ( 'NONE', #879, 3.024999999999999900, 0.7853981633974479500 ) ;
#432 = FACE_OUTER_BOUND ( 'NONE', #610, .T. ) ;
#433 = LINE ( 'NONE', #119, #463 ) ;
#434 = FACE_OUTER_BOUND ( 'NONE', #607, .T. ) ;
#435 = FACE_OUTER_BOUND ( 'NONE', #641, .T. ) ;
#436 = FACE_OUTER_BOUND ( 'NONE', #629, .T. ) ;
#437 = FACE_OUTER_BOUND ( 'NONE', #633, .T. ) ;
#438 = LINE ( 'NONE', #160, #449 ) ;
#439 = FACE_OUTER_BOUND ( 'NONE', #638, .T. ) ;
#440 = FACE_BOUND ( 'NONE', #619, .T. ) ;
#441 = FACE_OUTER_BOUND ( 'NONE', #611, .T. ) ;
#442 = FACE_OUTER_BOUND ( 'NONE', #615, .T. ) ;
#443 = CYLINDRICAL_SURFACE ( 'NONE', #880, 2.499999999999998700 ) ;
#444 = FACE_OUTER_BOUND ( 'NONE', #646, .T. ) ;
#445 = FACE_OUTER_BOUND ( 'NONE', #620, .T. ) ;
#446 = FACE_OUTER_BOUND ( 'NONE', #630, .T. ) ;
#447 = CONICAL_SURFACE ( 'NONE', #897, 3.024999999999999900, 0.7853981633974479500 ) ;
#448 = FACE_OUTER_BOUND ( 'NONE', #608, .T. ) ;
#449 = VECTOR ( 'NONE', #167, 1000.000000000000000 ) ;
#450 = LINE ( 'NONE', #140, #451 ) ;
#451 = VECTOR ( 'NONE', #148, 1000.000000000000000 ) ;
#452 = LINE ( 'NONE', #193, #453 ) ;
#453 = VECTOR ( 'NONE', #208, 999.9999999999998900 ) ;
#454 = CIRCLE ( 'NONE', #903, 3.024999999999999900 ) ;
#455 = CIRCLE ( 'NONE', #872, 2.499999999999996900 ) ;
#456 = CYLINDRICAL_SURFACE ( 'NONE', #890, 2.499999999999998700 ) ;
#457 = CYLINDRICAL_SURFACE ( 'NONE', #874, 2.499999999999998700 ) ;
#458 = FACE_OUTER_BOUND ( 'NONE', #612, .T. ) ;
#459 = LINE ( 'NONE', #156, #460 ) ;
#460 = VECTOR ( 'NONE', #151, 1000.000000000000000 ) ;
#461 = FACE_OUTER_BOUND ( 'NONE', #622, .T. ) ;
#462 = FACE_OUTER_BOUND ( 'NONE', #635, .T. ) ;
#463 = VECTOR ( 'NONE', #128, 1000.000000000000100 ) ;
#464 = FACE_OUTER_BOUND ( 'NONE', #614, .T. ) ;
#465 = LINE ( 'NONE', #219, #497 ) ;
#466 = LINE ( 'NONE', #181, #490 ) ;
#467 = LINE ( 'NONE', #218, #474 ) ;
#468 = VECTOR ( 'NONE', #236, 1000.000000000000000 ) ;
#469 = LINE ( 'NONE', #228, #484 ) ;
#470 = LINE ( 'NONE', #206, #516 ) ;
#471 = LINE ( 'NONE', #198, #495 ) ;
#472 = LINE ( 'NONE', #230, #502 ) ;
#473 = VECTOR ( 'NONE', #211, 1000.000000000000100 ) ;
#474 = VECTOR ( 'NONE', #220, 1000.000000000000000 ) ;
#475 = CIRCLE ( 'NONE', #865, 3.024999999999999900 ) ;
#476 = VECTOR ( 'NONE', #213, 1000.000000000000000 ) ;
#477 = LINE ( 'NONE', #203, #487 ) ;
#478 = VECTOR ( 'NONE', #187, 1000.000000000000000 ) ;
#479 = LINE ( 'NONE', #204, #498 ) ;
#480 = LINE ( 'NONE', #171, #505 ) ;
#481 = LINE ( 'NONE', #202, #478 ) ;
#482 = LINE ( 'NONE', #229, #483 ) ;
#483 = VECTOR ( 'NONE', #217, 1000.000000000000000 ) ;
#484 = VECTOR ( 'NONE', #215, 1000.000000000000000 ) ;
#485 = LINE ( 'NONE', #238, #514 ) ;
#486 = CIRCLE ( 'NONE', #906, 2.499999999999996900 ) ;
#487 = VECTOR ( 'NONE', #180, 1000.000000000000000 ) ;
#488 = LINE ( 'NONE', #207, #507 ) ;
#489 = LINE ( 'NONE', #176, #511 ) ;
#490 = VECTOR ( 'NONE', #191, 1000.000000000000000 ) ;
#491 = LINE ( 'NONE', #177, #518 ) ;
#492 = LINE ( 'NONE', #194, #519 ) ;
#493 = VECTOR ( 'NONE', #227, 1000.000000000000000 ) ;
#494 = LINE ( 'NONE', #205, #512 ) ;
#495 = VECTOR ( 'NONE', #169, 999.9999999999998900 ) ;
#496 = LINE ( 'NONE', #173, #493 ) ;
#497 = VECTOR ( 'NONE', #233, 1000.000000000000000 ) ;
#498 = VECTOR ( 'NONE', #231, 1000.000000000000000 ) ;
#499 = LINE ( 'NONE', #232, #476 ) ;
#500 = VECTOR ( 'NONE', #172, 1000.000000000000000 ) ;
#501 = LINE ( 'NONE', #186, #521 ) ;
#502 = VECTOR ( 'NONE', #221, 999.9999999999998900 ) ;
#503 = LINE ( 'NONE', #226, #520 ) ;
#504 = LINE ( 'NONE', #199, #473 ) ;
#505 = VECTOR ( 'NONE', #179, 1000.000000000000000 ) ;
#506 = CIRCLE ( 'NONE', #905, 2.499999999999997800 ) ;
#507 = VECTOR ( 'NONE', #209, 1000.000000000000000 ) ;
#508 = LINE ( 'NONE', #235, #468 ) ;
#509 = LINE ( 'NONE', #200, #510 ) ;
#510 = VECTOR ( 'NONE', #197, 1000.000000000000000 ) ;
#511 = VECTOR ( 'NONE', #195, 1000.000000000000000 ) ;
#512 = VECTOR ( 'NONE', #189, 1000.000000000000000 ) ;
#513 = LINE ( 'NONE', #168, #500 ) ;
#514 = VECTOR ( 'NONE', #214, 1000.000000000000000 ) ;
#515 = CIRCLE ( 'NONE', #915, 2.499999999999998700 ) ;
#516 = VECTOR ( 'NONE', #175, 1000.000000000000000 ) ;
#517 = CIRCLE ( 'NONE', #904, 2.499999999999997800 ) ;
#518 = VECTOR ( 'NONE', #174, 1000.000000000000000 ) ;
#519 = VECTOR ( 'NONE', #182, 1000.000000000000000 ) ;
#520 = VECTOR ( 'NONE', #212, 1000.000000000000000 ) ;
#521 = VECTOR ( 'NONE', #216, 1000.000000000000000 ) ;
#522 = CIRCLE ( 'NONE', #929, 2.499999999999998700 ) ;
#523 = LINE ( 'NONE', #262, #537 ) ;
#524 = LINE ( 'NONE', #244, #563 ) ;
#525 = VECTOR ( 'NONE', #276, 999.9999999999998900 ) ;
#526 = LINE ( 'NONE', #270, #538 ) ;
#527 = LINE ( 'NONE', #282, #531 ) ;
#528 = VECTOR ( 'NONE', #271, 1000.000000000000100 ) ;
#529 = VECTOR ( 'NONE', #306, 1000.000000000000100 ) ;
#530 = LINE ( 'NONE', #302, #560 ) ;
#531 = VECTOR ( 'NONE', #283, 1000.000000000000000 ) ;
#532 = LINE ( 'NONE', #309, #548 ) ;
#533 = LINE ( 'NONE', #305, #549 ) ;
#534 = VECTOR ( 'NONE', #319, 1000.000000000000000 ) ;
#535 = VECTOR ( 'NONE', #290, 1000.000000000000000 ) ;
#536 = VECTOR ( 'NONE', #285, 1000.000000000000000 ) ;
#537 = VECTOR ( 'NONE', #249, 1000.000000000000000 ) ;
#538 = VECTOR ( 'NONE', #266, 1000.000000000000100 ) ;
#539 = LINE ( 'NONE', #255, #540 ) ;
#540 = VECTOR ( 'NONE', #267, 1000.000000000000000 ) ;
#541 = VECTOR ( 'NONE', #260, 1000.000000000000000 ) ;
#542 = LINE ( 'NONE', #281, #525 ) ;
#543 = LINE ( 'NONE', #252, #564 ) ;
#544 = LINE ( 'NONE', #277, #541 ) ;
#545 = LINE ( 'NONE', #299, #562 ) ;
#546 = VECTOR ( 'NONE', #287, 1000.000000000000000 ) ;
#547 = LINE ( 'NONE', #315, #529 ) ;
#548 = VECTOR ( 'NONE', #320, 1000.000000000000000 ) ;
#549 = VECTOR ( 'NONE', #293, 1000.000000000000000 ) ;
#550 = VECTOR ( 'NONE', #265, 1000.000000000000000 ) ;
#551 = VECTOR ( 'NONE', #256, 1000.000000000000000 ) ;
#552 = LINE ( 'NONE', #245, #528 ) ;
#553 = LINE ( 'NONE', #279, #550 ) ;
#554 = CIRCLE ( 'NONE', #919, 3.024999999999999900 ) ;
#555 = LINE ( 'NONE', #241, #566 ) ;
#556 = LINE ( 'NONE', #295, #535 ) ;
#557 = LINE ( 'NONE', #318, #536 ) ;
#558 = LINE ( 'NONE', #294, #546 ) ;
#559 = LINE ( 'NONE', #259, #551 ) ;
#560 = VECTOR ( 'NONE', #286, 1000.000000000000000 ) ;
#561 = LINE ( 'NONE', #308, #534 ) ;
#562 = VECTOR ( 'NONE', #284, 1000.000000000000100 ) ;
#563 = VECTOR ( 'NONE', #250, 1000.000000000000000 ) ;
#564 = VECTOR ( 'NONE', #246, 1000.000000000000000 ) ;
#565 = CIRCLE ( 'NONE', #917, 2.499999999999998700 ) ;
#566 = VECTOR ( 'NONE', #254, 1000.000000000000000 ) ;
#567 = CIRCLE ( 'NONE', #924, 2.499999999999998700 ) ;
#568 = DATE_AND_TIME ( #578, #585 ) ;
#569 = DATE_AND_TIME ( #594, #576 ) ;
#570 = PERSON_AND_ORGANIZATION ( #376, #574 ) ;
#571 = LINE ( 'NONE', #310, #584 ) ;
#572 = COORDINATED_UNIVERSAL_TIME_OFFSET ( 1, 0, .AHEAD. ) ;
#573 = LOCAL_TIME ( 13, 35, 12.00000000000000000, #575 ) ;
#574 = ORGANIZATION ( 'UNSPECIFIED', 'UNSPECIFIED', '' ) ;
#575 = COORDINATED_UNIVERSAL_TIME_OFFSET ( 1, 0, .AHEAD. ) ;
#576 = LOCAL_TIME ( 13, 35, 12.00000000000000000, #580 ) ;
#577 = PERSON_AND_ORGANIZATION ( #376, #574 ) ;
#578 = CALENDAR_DATE ( 2017, 2, 2 ) ;
#579 = LOCAL_TIME ( 13, 35, 12.00000000000000000, #604 ) ;
#580 = COORDINATED_UNIVERSAL_TIME_OFFSET ( 1, 0, .AHEAD. ) ;
#581 = CIRCLE ( 'NONE', #910, 3.024999999999999900 ) ;
#582 = APPROVAL_DATE_TIME ( #568, #930 ) ;
#583 = APPROVAL_PERSON_ORGANIZATION ( #586, #921, #331 ) ;
#584 = VECTOR ( 'NONE', #321, 1000.000000000000000 ) ;
#585 = LOCAL_TIME ( 13, 35, 12.00000000000000000, #572 ) ;
#586 = PERSON_AND_ORGANIZATION ( #376, #574 ) ;
#587 = PERSON_AND_ORGANIZATION ( #376, #574 ) ;
#588 = PERSON_AND_ORGANIZATION ( #376, #574 ) ;
#589 = DATE_AND_TIME ( #590, #573 ) ;
#590 = CALENDAR_DATE ( 2017, 2, 2 ) ;
#591 = APPROVAL_DATE_TIME ( #589, #921 ) ;
#592 = PERSON_AND_ORGANIZATION ( #376, #574 ) ;
#593 = PERSON_AND_ORGANIZATION ( #376, #574 ) ;
#594 = CALENDAR_DATE ( 2017, 2, 2 ) ;
#595 = DATE_AND_TIME ( #598, #579 ) ;
#596 = APPROVAL_PERSON_ORGANIZATION ( #588, #930, #329 ) ;
#597 = PERSON_AND_ORGANIZATION ( #376, #574 ) ;
#598 = CALENDAR_DATE ( 2017, 2, 2 ) ;
#599 = APPROVAL_PERSON_ORGANIZATION ( #597, #911, #342 ) ;
#600 = LOCAL_TIME ( 13, 35, 12.00000000000000000, #601 ) ;
#601 = COORDINATED_UNIVERSAL_TIME_OFFSET ( 1, 0, .AHEAD. ) ;
#602 = CALENDAR_DATE ( 2017, 2, 2 ) ;
#603 = DATE_AND_TIME ( #602, #600 ) ;
#604 = COORDINATED_UNIVERSAL_TIME_OFFSET ( 1, 0, .AHEAD. ) ;
#605 = APPROVAL_DATE_TIME ( #603, #911 ) ;
#606 = SHAPE_DEFINITION_REPRESENTATION ( #347, #795 ) ;
#607 = EDGE_LOOP ( 'NONE', ( #736, #709, #732, #734, #728, #735, #719, #700 ) ) ;
#608 = EDGE_LOOP ( 'NONE', ( #720, #725, #739, #717 ) ) ;
#609 = EDGE_LOOP ( 'NONE', ( #708, #712, #706, #716 ) ) ;
#610 = EDGE_LOOP ( 'NONE', ( #764, #782, #751, #763 ) ) ;
#611 = EDGE_LOOP ( 'NONE', ( #699, #648, #664, #676 ) ) ;
#612 = EDGE_LOOP ( 'NONE', ( #773, #780, #770, #785 ) ) ;
#613 = EDGE_LOOP ( 'NONE', ( #752, #747 ) ) ;
#614 = EDGE_LOOP ( 'NONE', ( #690, #632, #618, #659, #697, #617, #680, #616 ) ) ;
#615 = EDGE_LOOP ( 'NONE', ( #694, #698, #663, #686, #679, #695 ) ) ;
#616 = ORIENTED_EDGE ( 'NONE', *, *, #866, .T. ) ;
#617 = ORIENTED_EDGE ( 'NONE', *, *, #827, .F. ) ;
#618 = ORIENTED_EDGE ( 'NONE', *, *, #814, .F. ) ;
#619 = EDGE_LOOP ( 'NONE', ( #756, #761 ) ) ;
#620 = EDGE_LOOP ( 'NONE', ( #779, #748, #765, #744 ) ) ;
#621 = ORIENTED_EDGE ( 'NONE', *, *, #849, .T. ) ;
#622 = EDGE_LOOP ( 'NONE', ( #723, #707, #711, #724 ) ) ;
#623 = EDGE_LOOP ( 'NONE', ( #621, #681, #625, #668, #627, #693, #650, #673, #684, #628, #665, #656, #675 ) ) ;
#624 = ORIENTED_EDGE ( 'NONE', *, *, #877, .F. ) ;
#625 = ORIENTED_EDGE ( 'NONE', *, *, #861, .T. ) ;
#626 = EDGE_LOOP ( 'NONE', ( #721, #714, #649, #701 ) ) ;
#627 = ORIENTED_EDGE ( 'NONE', *, *, #838, .T. ) ;
#628 = ORIENTED_EDGE ( 'NONE', *, *, #804, .T. ) ;
#629 = EDGE_LOOP ( 'NONE', ( #742, #653, #685, #741, #692, #715 ) ) ;
#630 = EDGE_LOOP ( 'NONE', ( #783, #757, #760, #758 ) ) ;
#631 = EDGE_LOOP ( 'NONE', ( #682, #662, #688, #687 ) ) ;
#632 = ORIENTED_EDGE ( 'NONE', *, *, #845, .F. ) ;
#633 = EDGE_LOOP ( 'NONE', ( #652, #654, #647, #660, #696, #691, #661, #655, #624, #689, #674, #657, #658 ) ) ;
#634 = EDGE_LOOP ( 'NONE', ( #683, #666, #669, #678, #670, #651 ) ) ;
#635 = EDGE_LOOP ( 'NONE', ( #731, #746, #737, #718 ) ) ;
#636 = CLOSED_SHELL ( 'NONE', ( #359, #362, #349, #360, #369, #357, #365, #354, #350, #368, #370, #353, #358, #356, #374, #351, #364, #372, #366, #371, #373, #352, #363, #361, #348, #367, #355 ) ) ;
#637 = EDGE_LOOP ( 'NONE', ( #726, #733, #702, #740 ) ) ;
#638 = EDGE_LOOP ( 'NONE', ( #777, #778, #762, #745 ) ) ;
#639 = EDGE_LOOP ( 'NONE', ( #759, #769, #774, #713 ) ) ;
#640 = EDGE_LOOP ( 'NONE', ( #738, #704, #722, #705 ) ) ;
#641 = EDGE_LOOP ( 'NONE', ( #750, #776, #771, #772 ) ) ;
#642 = EDGE_LOOP ( 'NONE', ( #749, #729, #755, #730 ) ) ;
#643 = EDGE_LOOP ( 'NONE', ( #703, #775, #727, #753 ) ) ;
#644 = EDGE_LOOP ( 'NONE', ( #766, #754, #767, #768 ) ) ;
#645 = FACE_OUTER_BOUND ( 'NONE', #639, .T. ) ;
#646 = EDGE_LOOP ( 'NONE', ( #710, #743, #671, #667, #672, #677 ) ) ;
#647 = ORIENTED_EDGE ( 'NONE', *, *, #851, .F. ) ;
#648 = ORIENTED_EDGE ( 'NONE', *, *, #810, .F. ) ;
#649 = ORIENTED_EDGE ( 'NONE', *, *, #840, .T. ) ;
#650 = ORIENTED_EDGE ( 'NONE', *, *, #881, .T. ) ;
#651 = ORIENTED_EDGE ( 'NONE', *, *, #808, .F. ) ;
#652 = ORIENTED_EDGE ( 'NONE', *, *, #848, .F. ) ;
#653 = ORIENTED_EDGE ( 'NONE', *, *, #820, .T. ) ;
#654 = ORIENTED_EDGE ( 'NONE', *, *, #866, .F. ) ;
#655 = ORIENTED_EDGE ( 'NONE', *, *, #805, .F. ) ;
#656 = ORIENTED_EDGE ( 'NONE', *, *, #854, .T. ) ;
#657 = ORIENTED_EDGE ( 'NONE', *, *, #846, .F. ) ;
#658 = ORIENTED_EDGE ( 'NONE', *, *, #856, .F. ) ;
#659 = ORIENTED_EDGE ( 'NONE', *, *, #836, .F. ) ;
#660 = ORIENTED_EDGE ( 'NONE', *, *, #817, .F. ) ;
#661 = ORIENTED_EDGE ( 'NONE', *, *, #844, .F. ) ;
#662 = ORIENTED_EDGE ( 'NONE', *, *, #822, .F. ) ;
#663 = ORIENTED_EDGE ( 'NONE', *, *, #809, .T. ) ;
#664 = ORIENTED_EDGE ( 'NONE', *, *, #812, .T. ) ;
#665 = ORIENTED_EDGE ( 'NONE', *, *, #847, .T. ) ;
#666 = ORIENTED_EDGE ( 'NONE', *, *, #876, .F. ) ;
#667 = ORIENTED_EDGE ( 'NONE', *, *, #836, .T. ) ;
#668 = ORIENTED_EDGE ( 'NONE', *, *, #884, .T. ) ;
#669 = ORIENTED_EDGE ( 'NONE', *, *, #852, .T. ) ;
#670 = ORIENTED_EDGE ( 'NONE', *, *, #801, .T. ) ;
#671 = ORIENTED_EDGE ( 'NONE', *, *, #859, .F. ) ;
#672 = ORIENTED_EDGE ( 'NONE', *, *, #858, .F. ) ;
#673 = ORIENTED_EDGE ( 'NONE', *, *, #834, .T. ) ;
#674 = ORIENTED_EDGE ( 'NONE', *, *, #839, .F. ) ;
#675 = ORIENTED_EDGE ( 'NONE', *, *, #827, .T. ) ;
#676 = ORIENTED_EDGE ( 'NONE', *, *, #882, .T. ) ;
#677 = ORIENTED_EDGE ( 'NONE', *, *, #852, .F. ) ;
#678 = ORIENTED_EDGE ( 'NONE', *, *, #842, .F. ) ;
#679 = ORIENTED_EDGE ( 'NONE', *, *, #885, .T. ) ;
#680 = ORIENTED_EDGE ( 'NONE', *, *, #821, .T. ) ;
#681 = ORIENTED_EDGE ( 'NONE', *, *, #825, .T. ) ;
#682 = ORIENTED_EDGE ( 'NONE', *, *, #841, .F. ) ;
#683 = ORIENTED_EDGE ( 'NONE', *, *, #830, .F. ) ;
#684 = ORIENTED_EDGE ( 'NONE', *, *, #816, .T. ) ;
#685 = ORIENTED_EDGE ( 'NONE', *, *, #806, .F. ) ;
#686 = ORIENTED_EDGE ( 'NONE', *, *, #850, .F. ) ;
#687 = ORIENTED_EDGE ( 'NONE', *, *, #876, .T. ) ;
#688 = ORIENTED_EDGE ( 'NONE', *, *, #855, .T. ) ;
#689 = ORIENTED_EDGE ( 'NONE', *, *, #835, .F. ) ;
#690 = ORIENTED_EDGE ( 'NONE', *, *, #867, .F. ) ;
#691 = ORIENTED_EDGE ( 'NONE', *, *, #860, .F. ) ;
#692 = ORIENTED_EDGE ( 'NONE', *, *, #803, .F. ) ;
#693 = ORIENTED_EDGE ( 'NONE', *, *, #802, .T. ) ;
#694 = ORIENTED_EDGE ( 'NONE', *, *, #820, .F. ) ;
#695 = ORIENTED_EDGE ( 'NONE', *, *, #853, .F. ) ;
#696 = ORIENTED_EDGE ( 'NONE', *, *, #831, .F. ) ;
#697 = ORIENTED_EDGE ( 'NONE', *, *, #857, .F. ) ;
#698 = ORIENTED_EDGE ( 'NONE', *, *, #882, .F. ) ;
#699 = ORIENTED_EDGE ( 'NONE', *, *, #819, .F. ) ;
#700 = ORIENTED_EDGE ( 'NONE', *, *, #801, .F. ) ;
#701 = ORIENTED_EDGE ( 'NONE', *, *, #812, .F. ) ;
#702 = ORIENTED_EDGE ( 'NONE', *, *, #901, .T. ) ;
#703 = ORIENTED_EDGE ( 'NONE', *, *, #862, .F. ) ;
#704 = ORIENTED_EDGE ( 'NONE', *, *, #832, .F. ) ;
#705 = ORIENTED_EDGE ( 'NONE', *, *, #811, .T. ) ;
#706 = ORIENTED_EDGE ( 'NONE', *, *, #802, .F. ) ;
#707 = ORIENTED_EDGE ( 'NONE', *, *, #828, .F. ) ;
#708 = ORIENTED_EDGE ( 'NONE', *, *, #877, .T. ) ;
#709 = ORIENTED_EDGE ( 'NONE', *, *, #885, .F. ) ;
#710 = ORIENTED_EDGE ( 'NONE', *, *, #901, .F. ) ;
#711 = ORIENTED_EDGE ( 'NONE', *, *, #838, .F. ) ;
#712 = ORIENTED_EDGE ( 'NONE', *, *, #843, .F. ) ;
#713 = ORIENTED_EDGE ( 'NONE', *, *, #849, .F. ) ;
#714 = ORIENTED_EDGE ( 'NONE', *, *, #819, .T. ) ;
#715 = ORIENTED_EDGE ( 'NONE', *, *, #809, .F. ) ;
#716 = ORIENTED_EDGE ( 'NONE', *, *, #828, .T. ) ;
#717 = ORIENTED_EDGE ( 'NONE', *, *, #848, .T. ) ;
#718 = ORIENTED_EDGE ( 'NONE', *, *, #858, .T. ) ;
#719 = ORIENTED_EDGE ( 'NONE', *, *, #815, .T. ) ;
#720 = ORIENTED_EDGE ( 'NONE', *, *, #824, .F. ) ;
#721 = ORIENTED_EDGE ( 'NONE', *, *, #833, .F. ) ;
#722 = ORIENTED_EDGE ( 'NONE', *, *, #884, .F. ) ;
#723 = ORIENTED_EDGE ( 'NONE', *, *, #835, .T. ) ;
#724 = ORIENTED_EDGE ( 'NONE', *, *, #832, .T. ) ;
#725 = ORIENTED_EDGE ( 'NONE', *, *, #803, .T. ) ;
#726 = ORIENTED_EDGE ( 'NONE', *, *, #818, .F. ) ;
#727 = ORIENTED_EDGE ( 'NONE', *, *, #824, .T. ) ;
#728 = ORIENTED_EDGE ( 'NONE', *, *, #811, .F. ) ;
#729 = ORIENTED_EDGE ( 'NONE', *, *, #853, .T. ) ;
#730 = ORIENTED_EDGE ( 'NONE', *, *, #842, .T. ) ;
#731 = ORIENTED_EDGE ( 'NONE', *, *, #814, .T. ) ;
#732 = ORIENTED_EDGE ( 'NONE', *, *, #862, .T. ) ;
#733 = ORIENTED_EDGE ( 'NONE', *, *, #841, .T. ) ;
#734 = ORIENTED_EDGE ( 'NONE', *, *, #846, .T. ) ;
#735 = ORIENTED_EDGE ( 'NONE', *, *, #861, .F. ) ;
#736 = ORIENTED_EDGE ( 'NONE', *, *, #837, .T. ) ;
#737 = ORIENTED_EDGE ( 'NONE', *, *, #826, .F. ) ;
#738 = ORIENTED_EDGE ( 'NONE', *, *, #839, .T. ) ;
#739 = ORIENTED_EDGE ( 'NONE', *, *, #867, .T. ) ;
#740 = ORIENTED_EDGE ( 'NONE', *, *, #855, .F. ) ;
#741 = ORIENTED_EDGE ( 'NONE', *, *, #845, .T. ) ;
#742 = ORIENTED_EDGE ( 'NONE', *, *, #840, .F. ) ;
#743 = ORIENTED_EDGE ( 'NONE', *, *, #830, .T. ) ;
#744 = ORIENTED_EDGE ( 'NONE', *, *, #823, .T. ) ;
#745 = ORIENTED_EDGE ( 'NONE', *, *, #807, .T. ) ;
#746 = ORIENTED_EDGE ( 'NONE', *, *, #806, .T. ) ;
#747 = ORIENTED_EDGE ( 'NONE', *, *, #818, .T. ) ;
#748 = ORIENTED_EDGE ( 'NONE', *, *, #870, .F. ) ;
#749 = ORIENTED_EDGE ( 'NONE', *, *, #826, .T. ) ;
#750 = ORIENTED_EDGE ( 'NONE', *, *, #817, .T. ) ;
#751 = ORIENTED_EDGE ( 'NONE', *, *, #881, .F. ) ;
#752 = ORIENTED_EDGE ( 'NONE', *, *, #822, .T. ) ;
#753 = ORIENTED_EDGE ( 'NONE', *, *, #856, .T. ) ;
#754 = ORIENTED_EDGE ( 'NONE', *, *, #808, .T. ) ;
#755 = ORIENTED_EDGE ( 'NONE', *, *, #837, .F. ) ;
#756 = ORIENTED_EDGE ( 'NONE', *, *, #810, .T. ) ;
#757 = ORIENTED_EDGE ( 'NONE', *, *, #829, .F. ) ;
#758 = ORIENTED_EDGE ( 'NONE', *, *, #813, .T. ) ;
#759 = ORIENTED_EDGE ( 'NONE', *, *, #857, .T. ) ;
#760 = ORIENTED_EDGE ( 'NONE', *, *, #804, .F. ) ;
#761 = ORIENTED_EDGE ( 'NONE', *, *, #833, .T. ) ;
#762 = ORIENTED_EDGE ( 'NONE', *, *, #854, .F. ) ;
#763 = ORIENTED_EDGE ( 'NONE', *, *, #843, .T. ) ;
#764 = ORIENTED_EDGE ( 'NONE', *, *, #805, .T. ) ;
#765 = ORIENTED_EDGE ( 'NONE', *, *, #834, .F. ) ;
#766 = ORIENTED_EDGE ( 'NONE', *, *, #868, .T. ) ;
#767 = ORIENTED_EDGE ( 'NONE', *, *, #815, .F. ) ;
#768 = ORIENTED_EDGE ( 'NONE', *, *, #825, .F. ) ;
#769 = ORIENTED_EDGE ( 'NONE', *, *, #859, .T. ) ;
#770 = ORIENTED_EDGE ( 'NONE', *, *, #816, .F. ) ;
#771 = ORIENTED_EDGE ( 'NONE', *, *, #847, .F. ) ;
#772 = ORIENTED_EDGE ( 'NONE', *, *, #829, .T. ) ;
#773 = ORIENTED_EDGE ( 'NONE', *, *, #860, .T. ) ;
#774 = ORIENTED_EDGE ( 'NONE', *, *, #868, .F. ) ;
#775 = ORIENTED_EDGE ( 'NONE', *, *, #850, .T. ) ;
#776 = ORIENTED_EDGE ( 'NONE', *, *, #807, .F. ) ;
#777 = ORIENTED_EDGE ( 'NONE', *, *, #851, .T. ) ;
#778 = ORIENTED_EDGE ( 'NONE', *, *, #821, .F. ) ;
#779 = ORIENTED_EDGE ( 'NONE', *, *, #844, .T. ) ;
#780 = ORIENTED_EDGE ( 'NONE', *, *, #813, .F. ) ;
#781 = VERTEX_POINT ( 'NONE', #139 ) ;
#782 = ORIENTED_EDGE ( 'NONE', *, *, #823, .F. ) ;
#783 = ORIENTED_EDGE ( 'NONE', *, *, #831, .T. ) ;
#784 = VERTEX_POINT ( 'NONE', #162 ) ;
#785 = ORIENTED_EDGE ( 'NONE', *, *, #870, .T. ) ;
#786 = VERTEX_POINT ( 'NONE', #155 ) ;
#787 = VERTEX_POINT ( 'NONE', #134 ) ;
#788 = VERTEX_POINT ( 'NONE', #144 ) ;
#789 = VERTEX_POINT ( 'NONE', #145 ) ;
#790 = B_SPLINE_CURVE_WITH_KNOTS ( 'NONE', 3,
 ( #122, #152, #154, #157 ),
 .UNSPECIFIED., .F., .F.,
 ( 4, 4 ),
 ( 3.294101292504085900E-007, 0.0008430172476480931600 ),
 .UNSPECIFIED. ) ;
#791 = B_SPLINE_CURVE_WITH_KNOTS ( 'NONE', 3,
 ( #274, #280, #275, #240 ),
 .UNSPECIFIED., .F., .F.,
 ( 4, 4 ),
 ( 3.294101292508163800E-007, 0.0008430172476480934900 ),
 .UNSPECIFIED. ) ;
#792 = MANIFOLD_SOLID_BREP ( 'M6 Tapped Hole1', #636 ) ;
#793 = B_SPLINE_CURVE_WITH_KNOTS ( 'NONE', 3,
 ( #248, #243, #272, #247 ),
 .UNSPECIFIED., .F., .F.,
 ( 4, 4 ),
 ( 3.461328779233918500E-007, 0.0008430339703967650900 ),
 .UNSPECIFIED. ) ;
#794 = UNCERTAINTY_MEASURE_WITH_UNIT (LENGTH_MEASURE( 1.000000000000000100E-005 ), #313, 'distance_accuracy_value', 'NONE');
#795 = ADVANCED_BREP_SHAPE_REPRESENTATION ( 'ALP0650', ( #792, #925 ), #916 ) ;
#796 = B_SPLINE_CURVE_WITH_KNOTS ( 'NONE', 3,
 ( #253, #307, #288, #301 ),
 .UNSPECIFIED., .F., .F.,
 ( 4, 4 ),
 ( 3.294101292509571500E-007, 0.0008430172476480937100 ),
 .UNSPECIFIED. ) ;
#797 = B_SPLINE_CURVE_WITH_KNOTS ( 'NONE', 3,
 ( #263, #258, #261, #264 ),
 .UNSPECIFIED., .F., .F.,
 ( 4, 4 ),
 ( 3.294101292508164400E-007, 0.0008430172476480920800 ),
 .UNSPECIFIED. ) ;
#798 = B_SPLINE_CURVE_WITH_KNOTS ( 'NONE', 3,
 ( #269, #242, #317, #298 ),
 .UNSPECIFIED., .F., .F.,
 ( 4, 4 ),
 ( 3.461328779221566100E-007, 0.0008430339703967655200 ),
 .UNSPECIFIED. ) ;
#799 = B_SPLINE_CURVE_WITH_KNOTS ( 'NONE', 3,
 ( #117, #146, #127, #125 ),
 .UNSPECIFIED., .F., .F.,
 ( 4, 4 ),
 ( 3.461328779226134800E-007, 0.0008430339703967654200 ),
 .UNSPECIFIED. ) ;
#800 = B_SPLINE_CURVE_WITH_KNOTS ( 'NONE', 3,
 ( #153, #161, #178, #188 ),
 .UNSPECIFIED., .F., .F.,
 ( 4, 4 ),
 ( 3.461328779225161800E-007, 0.0008430339703967639000 ),
 .UNSPECIFIED. ) ;
#801 = EDGE_CURVE ( 'NONE', #395, #413, #454, .T. ) ;
#802 = EDGE_CURVE ( 'NONE', #403, #411, #450, .T. ) ;
#803 = EDGE_CURVE ( 'NONE', #787, #404, #799, .T. ) ;
#804 = EDGE_CURVE ( 'NONE', #382, #406, #459, .T. ) ;
#805 = EDGE_CURVE ( 'NONE', #381, #391, #433, .T. ) ;
#806 = EDGE_CURVE ( 'NONE', #398, #788, #790, .T. ) ;
#807 = EDGE_CURVE ( 'NONE', #397, #392, #438, .T. ) ;
#808 = EDGE_CURVE ( 'NONE', #389, #413, #800, .T. ) ;
#809 = EDGE_CURVE ( 'NONE', #394, #787, #452, .T. ) ;
#810 = EDGE_CURVE ( 'NONE', #789, #786, #455, .T. ) ;
#811 = EDGE_CURVE ( 'NONE', #407, #399, #470, .T. ) ;
#812 = EDGE_CURVE ( 'NONE', #789, #394, #488, .T. ) ;
#813 = EDGE_CURVE ( 'NONE', #382, #383, #491, .T. ) ;
#814 = EDGE_CURVE ( 'NONE', #390, #398, #509, .T. ) ;
#815 = EDGE_CURVE ( 'NONE', #417, #413, #480, .T. ) ;
#816 = EDGE_CURVE ( 'NONE', #396, #382, #504, .T. ) ;
#817 = EDGE_CURVE ( 'NONE', #781, #392, #466, .T. ) ;
#818 = EDGE_CURVE ( 'NONE', #377, #412, #517, .T. ) ;
#819 = EDGE_CURVE ( 'NONE', #786, #401, #492, .T. ) ;
#820 = EDGE_CURVE ( 'NONE', #401, #788, #471, .T. ) ;
#821 = EDGE_CURVE ( 'NONE', #405, #379, #513, .T. ) ;
#822 = EDGE_CURVE ( 'NONE', #412, #377, #506, .T. ) ;
#823 = EDGE_CURVE ( 'NONE', #416, #391, #489, .T. ) ;
#824 = EDGE_CURVE ( 'NONE', #787, #393, #477, .T. ) ;
#825 = EDGE_CURVE ( 'NONE', #400, #417, #481, .T. ) ;
#826 = EDGE_CURVE ( 'NONE', #784, #788, #494, .T. ) ;
#827 = EDGE_CURVE ( 'NONE', #405, #414, #496, .T. ) ;
#828 = EDGE_CURVE ( 'NONE', #403, #415, #465, .T. ) ;
#829 = EDGE_CURVE ( 'NONE', #406, #781, #501, .T. ) ;
#830 = EDGE_CURVE ( 'NONE', #386, #389, #472, .T. ) ;
#831 = EDGE_CURVE ( 'NONE', #383, #781, #479, .T. ) ;
#832 = EDGE_CURVE ( 'NONE', #388, #380, #482, .T. ) ;
#833 = EDGE_CURVE ( 'NONE', #786, #789, #486, .T. ) ;
#834 = EDGE_CURVE ( 'NONE', #416, #396, #467, .T. ) ;
#835 = EDGE_CURVE ( 'NONE', #380, #415, #508, .T. ) ;
#836 = EDGE_CURVE ( 'NONE', #387, #390, #475, .T. ) ;
#837 = EDGE_CURVE ( 'NONE', #395, #402, #503, .T. ) ;
#838 = EDGE_CURVE ( 'NONE', #388, #403, #499, .T. ) ;
#839 = EDGE_CURVE ( 'NONE', #399, #380, #485, .T. ) ;
#840 = EDGE_CURVE ( 'NONE', #401, #394, #515, .T. ) ;
#841 = EDGE_CURVE ( 'NONE', #377, #386, #469, .T. ) ;
#842 = EDGE_CURVE ( 'NONE', #395, #784, #797, .T. ) ;
#843 = EDGE_CURVE ( 'NONE', #411, #381, #524, .T. ) ;
#844 = EDGE_CURVE ( 'NONE', #391, #384, #559, .T. ) ;
#845 = EDGE_CURVE ( 'NONE', #398, #404, #554, .T. ) ;
#846 = EDGE_CURVE ( 'NONE', #378, #399, #539, .T. ) ;
#847 = EDGE_CURVE ( 'NONE', #406, #397, #553, .T. ) ;
#848 = EDGE_CURVE ( 'NONE', #408, #393, #552, .T. ) ;
#849 = EDGE_CURVE ( 'NONE', #414, #400, #526, .T. ) ;
#850 = EDGE_CURVE ( 'NONE', #409, #787, #791, .T. ) ;
#851 = EDGE_CURVE ( 'NONE', #392, #379, #543, .T. ) ;
#852 = EDGE_CURVE ( 'NONE', #385, #784, #542, .T. ) ;
#853 = EDGE_CURVE ( 'NONE', #788, #402, #793, .T. ) ;
#854 = EDGE_CURVE ( 'NONE', #397, #405, #527, .T. ) ;
#855 = EDGE_CURVE ( 'NONE', #412, #385, #544, .T. ) ;
#856 = EDGE_CURVE ( 'NONE', #393, #378, #555, .T. ) ;
#857 = EDGE_CURVE ( 'NONE', #414, #387, #523, .T. ) ;
#858 = EDGE_CURVE ( 'NONE', #784, #390, #798, .T. ) ;
#859 = EDGE_CURVE ( 'NONE', #387, #389, #796, .T. ) ;
#860 = EDGE_CURVE ( 'NONE', #384, #383, #545, .T. ) ;
#861 = EDGE_CURVE ( 'NONE', #417, #407, #530, .T. ) ;
#862 = EDGE_CURVE ( 'NONE', #409, #378, #557, .T. ) ;
#863 = AXIS2_PLACEMENT_3D ( 'NONE', #103, #106, #109 ) ;
#864 = AXIS2_PLACEMENT_3D ( 'NONE', #22, #23, #30 ) ;
#865 = AXIS2_PLACEMENT_3D ( 'NONE', #223, #224, #225 ) ;
#866 = EDGE_CURVE ( 'NONE', #379, #408, #558, .T. ) ;
#867 = EDGE_CURVE ( 'NONE', #404, #408, #532, .T. ) ;
#868 = EDGE_CURVE ( 'NONE', #400, #389, #533, .T. ) ;
#869 = AXIS2_PLACEMENT_3D ( 'NONE', #31, #32, #36 ) ;
#870 = EDGE_CURVE ( 'NONE', #396, #384, #556, .T. ) ;
#871 = AXIS2_PLACEMENT_3D ( 'NONE', #66, #60, #79 ) ;
#872 = AXIS2_PLACEMENT_3D ( 'NONE', #196, #190, #170 ) ;
#873 = AXIS2_PLACEMENT_3D ( 'NONE', #2, #5, #12 ) ;
#874 = AXIS2_PLACEMENT_3D ( 'NONE', #15, #16, #42 ) ;
#875 = AXIS2_PLACEMENT_3D ( 'NONE', #86, #87, #69 ) ;
#876 = EDGE_CURVE ( 'NONE', #385, #386, #565, .T. ) ;
#877 = EDGE_CURVE ( 'NONE', #415, #381, #561, .T. ) ;
#878 = AXIS2_PLACEMENT_3D ( 'NONE', #26, #39, #40 ) ;
#879 = AXIS2_PLACEMENT_3D ( 'NONE', #41, #46, #48 ) ;
#880 = AXIS2_PLACEMENT_3D ( 'NONE', #38, #52, #14 ) ;
#881 = EDGE_CURVE ( 'NONE', #411, #416, #547, .T. ) ;
#882 = EDGE_CURVE ( 'NONE', #394, #401, #522, .T. ) ;
#883 = AXIS2_PLACEMENT_3D ( 'NONE', #25, #43, #24 ) ;
#884 = EDGE_CURVE ( 'NONE', #407, #388, #571, .T. ) ;
#885 = EDGE_CURVE ( 'NONE', #409, #402, #581, .T. ) ;
#886 = AXIS2_PLACEMENT_3D ( 'NONE', #51, #34, #35 ) ;
#887 = AXIS2_PLACEMENT_3D ( 'NONE', #84, #88, #89 ) ;
#888 = AXIS2_PLACEMENT_3D ( 'NONE', #10, #18, #17 ) ;
#889 = AXIS2_PLACEMENT_3D ( 'NONE', #67, #68, #78 ) ;
#890 = AXIS2_PLACEMENT_3D ( 'NONE', #13, #8, #11 ) ;
#891 = AXIS2_PLACEMENT_3D ( 'NONE', #33, #27, #49 ) ;
#892 = AXIS2_PLACEMENT_3D ( 'NONE', #75, #96, #57 ) ;
#893 = AXIS2_PLACEMENT_3D ( 'NONE', #3, #4, #6 ) ;
#894 = AXIS2_PLACEMENT_3D ( 'NONE', #98, #85, #93 ) ;
#895 = AXIS2_PLACEMENT_3D ( 'NONE', #73, #56, #95 ) ;
#896 = AXIS2_PLACEMENT_3D ( 'NONE', #59, #92, #62 ) ;
#897 = AXIS2_PLACEMENT_3D ( 'NONE', #44, #45, #47 ) ;
#898 = AXIS2_PLACEMENT_3D ( 'NONE', #29, #20, #21 ) ;
#899 = AXIS2_PLACEMENT_3D ( 'NONE', #61, #71, #64 ) ;
#900 = AXIS2_PLACEMENT_3D ( 'NONE', #80, #81, #82 ) ;
#901 = EDGE_CURVE ( 'NONE', #386, #385, #567, .T. ) ;
#902 = AXIS2_PLACEMENT_3D ( 'NONE', #91, #94, #55 ) ;
#903 = AXIS2_PLACEMENT_3D ( 'NONE', #124, #149, #150 ) ;
#904 = AXIS2_PLACEMENT_3D ( 'NONE', #192, #183, #210 ) ;
#905 = AXIS2_PLACEMENT_3D ( 'NONE', #201, #184, #185 ) ;
#906 = AXIS2_PLACEMENT_3D ( 'NONE', #222, #234, #237 ) ;
#907 = CC_DESIGN_DATE_AND_TIME_ASSIGNMENT ( #569, #341, ( #920 ) ) ;
#908 = CC_DESIGN_PERSON_AND_ORGANIZATION_ASSIGNMENT ( #593, #333, ( #920 ) ) ;
#909 = CC_DESIGN_APPROVAL ( #911, ( #926 ) ) ;
#910 = AXIS2_PLACEMENT_3D ( 'NONE', #311, #322, #323 ) ;
#911 = APPROVAL ( #336, 'UNSPECIFIED' ) ;
#912 = CC_DESIGN_DATE_AND_TIME_ASSIGNMENT ( #595, #335, ( #926 ) ) ;
#913 = CC_DESIGN_PERSON_AND_ORGANIZATION_ASSIGNMENT ( #592, #325, ( #923 ) ) ;
#914 = CC_DESIGN_PERSON_AND_ORGANIZATION_ASSIGNMENT ( #577, #339, ( #926 ) ) ;
#915 = AXIS2_PLACEMENT_3D ( 'NONE', #257, #278, #239 ) ;
#916 =( GEOMETRIC_REPRESENTATION_CONTEXT ( 3 ) GLOBAL_UNCERTAINTY_ASSIGNED_CONTEXT ( ( #794 ) ) GLOBAL_UNIT_ASSIGNED_CONTEXT ( ( #313, #292, #296 ) ) REPRESENTATION_CONTEXT ( 'NONE', 'WORKASPACE' ) );
#917 = AXIS2_PLACEMENT_3D ( 'NONE', #300, #303, #316 ) ;
#918 = CC_DESIGN_PERSON_AND_ORGANIZATION_ASSIGNMENT ( #570, #330, ( #923 ) ) ;
#919 = AXIS2_PLACEMENT_3D ( 'NONE', #268, #251, #273 ) ;
#920 = PRODUCT_DEFINITION ( 'UNKNOWN', '', #923, #346 ) ;
#921 = APPROVAL ( #328, 'UNSPECIFIED' ) ;
#922 = PRODUCT_RELATED_PRODUCT_CATEGORY ( 'detail', '', ( #375 ) ) ;
#923 = PRODUCT_DEFINITION_FORMATION_WITH_SPECIFIED_SOURCE ( 'ANY', '', #375, .NOT_KNOWN. ) ;
#924 = AXIS2_PLACEMENT_3D ( 'NONE', #314, #289, #324 ) ;
#925 = AXIS2_PLACEMENT_3D ( 'NONE', #312, #332, #337 ) ;
#926 = SECURITY_CLASSIFICATION ( '', '', #334 ) ;
#927 = CC_DESIGN_PERSON_AND_ORGANIZATION_ASSIGNMENT ( #587, #327, ( #375 ) ) ;
#928 = CC_DESIGN_APPROVAL ( #930, ( #920 ) ) ;
#929 = AXIS2_PLACEMENT_3D ( 'NONE', #291, #297, #304 ) ;
#930 = APPROVAL ( #343, 'UNSPECIFIED' ) ;
#931 = CC_DESIGN_APPROVAL ( #921, ( #923 ) ) ;
#932 = CC_DESIGN_SECURITY_CLASSIFICATION ( #926, ( #923 ) ) ;
ENDSEC;
END-ISO-10303-21;
