ISO-10303-21;
HEADER;
FILE_DESCRIPTION (( 'STEP AP203' ),
    '1' );
FILE_NAME ('ALP0630.STEP',
    '2017-03-18T14:23:28',
    ( '' ),
    ( '' ),
    'SwSTEP 2.0',
    'SolidWorks 2012',
    '' );
FILE_SCHEMA (( 'CONFIG_CONTROL_DESIGN' ));
ENDSEC;

DATA;
#1 = CARTESIAN_POINT ( 'NONE',  ( 6.735557395310427200E-016, 0.0000000000000000000, 52.50000000000000700 ) ) ;
#2 = DIRECTION ( 'NONE',  ( 0.0000000000000000000, 0.0000000000000000000, -1.000000000000000000 ) ) ;
#3 = CARTESIAN_POINT ( 'NONE',  ( -6.952541905800561700E-017, 0.5000000000000119900, 55.02499999999999100 ) ) ;
#4 = CARTESIAN_POINT ( 'NONE',  ( 0.5000000000000001100, 0.0000000000000000000, 55.48339152643430300 ) ) ;
#5 = DIRECTION ( 'NONE',  ( -0.0000000000000000000, -1.000000000000000000, -0.0000000000000000000 ) ) ;
#6 = CARTESIAN_POINT ( 'NONE',  ( -0.3294565384477635700, 0.1705434615522402100, 14.66094830848306100 ) ) ;
#7 = DIRECTION ( 'NONE',  ( -0.0000000000000000000, -0.0000000000000000000, -1.000000000000000000 ) ) ;
#8 = CARTESIAN_POINT ( 'NONE',  ( 0.1623072875484945800, 0.3376927124515136100, 55.18730728754851400 ) ) ;
#9 = DIRECTION ( 'NONE',  ( -0.0000000000000000000, -0.0000000000000000000, -1.000000000000000000 ) ) ;
#10 = DIRECTION ( 'NONE',  ( 0.0000000000000000000, 0.0000000000000000000, -1.000000000000000000 ) ) ;
#11 = DIRECTION ( 'NONE',  ( -0.0000000000000000000, -0.0000000000000000000, -1.000000000000000000 ) ) ;
#12 = CARTESIAN_POINT ( 'NONE',  ( -0.5000000000000001100, 0.0000000000000000000, 60.00000000000000000 ) ) ;
#13 = CARTESIAN_POINT ( 'NONE',  ( 6.735557395310427200E-016, 0.0000000000000000000, -17.50000000000000000 ) ) ;
#14 = DIRECTION ( 'NONE',  ( 0.0000000000000000000, 0.0000000000000000000, -1.000000000000000000 ) ) ;
#15 = CARTESIAN_POINT ( 'NONE',  ( 0.5000000000000001100, 0.0000000000000000000, 60.00000000000000000 ) ) ;
#16 = DIRECTION ( 'NONE',  ( -0.0000000000000000000, -1.000000000000000000, -0.0000000000000000000 ) ) ;
#17 = CARTESIAN_POINT ( 'NONE',  ( 1.353234713057825300E-014, 5.999999999999998200, -52.50000000000000700 ) ) ;
#18 = DIRECTION ( 'NONE',  ( -0.0000000000000000000, -1.000000000000000000, -0.0000000000000000000 ) ) ;
#19 = DIRECTION ( 'NONE',  ( 0.0000000000000000000, 0.0000000000000000000, -1.000000000000000000 ) ) ;
#20 = CARTESIAN_POINT ( 'NONE',  ( 0.3294565384477647900, 0.1705434615522393700, 55.33905169151694300 ) ) ;
#21 = CARTESIAN_POINT ( 'NONE',  ( 6.735557395310427200E-016, 0.5000000000000113200, 60.00000000000000000 ) ) ;
#22 = CARTESIAN_POINT ( 'NONE',  ( 6.735557395310427200E-016, 5.999999999999998200, -17.50000000000000000 ) ) ;
#23 = CARTESIAN_POINT ( 'NONE',  ( -0.5000000000000000000, 0.0000000000000000000, 14.51660847356569700 ) ) ;
#24 = CARTESIAN_POINT ( 'NONE',  ( 5.149163960057139900E-016, 0.5000000000000114400, 14.97500000000001400 ) ) ;
#25 = DIRECTION ( 'NONE',  ( -0.0000000000000000000, -1.000000000000000000, -0.0000000000000000000 ) ) ;
#26 = CARTESIAN_POINT ( 'NONE',  ( -0.1623072875484934700, 0.3376927124515137200, 14.81269271245149400 ) ) ;
#27 = CARTESIAN_POINT ( 'NONE',  ( 6.735557395310427200E-016, 5.999999999999998200, 52.50000000000000700 ) ) ;
#28 = CARTESIAN_POINT ( 'NONE',  ( -0.5000000000000001100, 0.0000000000000000000, -14.51660847356569800 ) ) ;
#29 = DIRECTION ( 'NONE',  ( -0.0000000000000000000, -1.000000000000000000, -0.0000000000000000000 ) ) ;
#30 = DIRECTION ( 'NONE',  ( 8.659560562354941500E-017, -0.7071067811865469100, 0.7071067811865482400 ) ) ;
#31 = DIRECTION ( 'NONE',  ( 0.0000000000000000000, 0.0000000000000000000, -1.000000000000000000 ) ) ;
#32 = CARTESIAN_POINT ( 'NONE',  ( 1.353234713057825300E-014, 0.5249999999999994700, -52.50000000000000700 ) ) ;
#33 = CARTESIAN_POINT ( 'NONE',  ( 7.999999999999998200, 1.700000000000000400, -60.00000000000000000 ) ) ;
#34 = DIRECTION ( 'NONE',  ( -0.0000000000000000000, -1.000000000000000000, -0.0000000000000000000 ) ) ;
#35 = CARTESIAN_POINT ( 'NONE',  ( -0.5000000000000001100, 0.0000000000000000000, 60.00000000000000000 ) ) ;
#36 = DIRECTION ( 'NONE',  ( -0.0000000000000000000, -1.000000000000000000, -0.0000000000000000000 ) ) ;
#37 = DIRECTION ( 'NONE',  ( 0.0000000000000000000, 0.0000000000000000000, -1.000000000000000000 ) ) ;
#38 = DIRECTION ( 'NONE',  ( 1.000000000000000000, 1.224646799147353000E-016, -0.0000000000000000000 ) ) ;
#39 = CARTESIAN_POINT ( 'NONE',  ( 0.5000000000000001100, 0.0000000000000000000, 49.51660847356570400 ) ) ;
#40 = DIRECTION ( 'NONE',  ( 0.0000000000000000000, 1.000000000000000000, 0.0000000000000000000 ) ) ;
#41 = CARTESIAN_POINT ( 'NONE',  ( 6.735557395310427200E-016, 0.5249999999999994700, -17.50000000000000000 ) ) ;
#42 = CARTESIAN_POINT ( 'NONE',  ( 0.5000000000000001100, 0.0000000000000000000, 60.00000000000000000 ) ) ;
#43 = DIRECTION ( 'NONE',  ( -0.0000000000000000000, -0.0000000000000000000, -1.000000000000000000 ) ) ;
#44 = DIRECTION ( 'NONE',  ( 1.000000000000000000, -5.354084802397555600E-017, 0.0000000000000000000 ) ) ;
#45 = DIRECTION ( 'NONE',  ( -0.0000000000000000000, -0.0000000000000000000, -1.000000000000000000 ) ) ;
#46 = CARTESIAN_POINT ( 'NONE',  ( 6.735557395310427200E-016, 0.5000000000000113200, 60.00000000000000000 ) ) ;
#47 = CARTESIAN_POINT ( 'NONE',  ( 3.950000000000000200, 1.700000000000000600, -60.00000000000000000 ) ) ;
#48 = CARTESIAN_POINT ( 'NONE',  ( -7.999999999999998200, 1.699999999999998400, 60.00000000000000000 ) ) ;
#49 = CARTESIAN_POINT ( 'NONE',  ( 1.094973684494840100E-015, 0.5000000000000108800, -14.97500000000001200 ) ) ;
#50 = CARTESIAN_POINT ( 'NONE',  ( 1.390280278732032600E-014, 0.0000000000000000000, -49.47500000000000900 ) ) ;
#51 = DIRECTION ( 'NONE',  ( 0.0000000000000000000, 0.0000000000000000000, -1.000000000000000000 ) ) ;
#52 = DIRECTION ( 'NONE',  ( 0.0000000000000000000, 0.0000000000000000000, -1.000000000000000000 ) ) ;
#53 = DIRECTION ( 'NONE',  ( -0.0000000000000000000, -1.000000000000000000, -0.0000000000000000000 ) ) ;
#54 = CARTESIAN_POINT ( 'NONE',  ( -3.612708057484694800E-015, 0.5249999999999994700, 17.50000000000000000 ) ) ;
#55 = CARTESIAN_POINT ( 'NONE',  ( -0.1623072875484936600, 0.3376927124515135500, -14.81269271245149400 ) ) ;
#56 = CARTESIAN_POINT ( 'NONE',  ( -0.3294565384477637900, 0.1705434615522398200, -14.66094830848306300 ) ) ;
#57 = DIRECTION ( 'NONE',  ( -0.0000000000000000000, -1.000000000000000000, -0.0000000000000000000 ) ) ;
#58 = DIRECTION ( 'NONE',  ( 0.7071067811865392500, -0.7071067811865559000, 0.0000000000000000000 ) ) ;
#59 = CARTESIAN_POINT ( 'NONE',  ( -3.612708057484694800E-015, 0.0000000000000000000, 17.50000000000000000 ) ) ;
#60 = CARTESIAN_POINT ( 'NONE',  ( -3.949999999999998800, 1.699999999999999700, -60.00000000000000000 ) ) ;
#61 = DIRECTION ( 'NONE',  ( -0.0000000000000000000, -1.000000000000000000, -0.0000000000000000000 ) ) ;
#62 = DIRECTION ( 'NONE',  ( 0.0000000000000000000, 0.0000000000000000000, -1.000000000000000000 ) ) ;
#63 = DIRECTION ( 'NONE',  ( 1.000000000000000000, 3.212450881438531700E-016, -0.0000000000000000000 ) ) ;
#64 = CARTESIAN_POINT ( 'NONE',  ( 6.735557395310427200E-016, 0.0000000000000000000, -20.00000000000000000 ) ) ;
#65 = CARTESIAN_POINT ( 'NONE',  ( 0.3294565384477647900, 0.1705434615522393400, 49.66094830848307100 ) ) ;
#66 = CARTESIAN_POINT ( 'NONE',  ( 0.1623072875484944700, 0.3376927124515136700, 49.81269271245150100 ) ) ;
#67 = DIRECTION ( 'NONE',  ( 0.0000000000000000000, 0.0000000000000000000, -1.000000000000000000 ) ) ;
#68 = CARTESIAN_POINT ( 'NONE',  ( -5.455571098498969900E-017, 0.5000000000000119900, 49.97500000000002300 ) ) ;
#69 = DIRECTION ( 'NONE',  ( -0.0000000000000000000, -1.000000000000000000, -0.0000000000000000000 ) ) ;
#70 = CARTESIAN_POINT ( 'NONE',  ( -3.612708057484694800E-015, 0.0000000000000000000, 17.50000000000000000 ) ) ;
#71 = CARTESIAN_POINT ( 'NONE',  ( -0.5000000000000002200, 0.0000000000000000000, -20.48339152643430700 ) ) ;
#72 = CARTESIAN_POINT ( 'NONE',  ( 7.999999999999998200, 1.700000000000000400, 60.00000000000000000 ) ) ;
#73 = CARTESIAN_POINT ( 'NONE',  ( 1.416636894636962100E-015, 0.5000000000000119900, -55.02499999999999100 ) ) ;
#74 = PLANE ( 'NONE',  #491 ) ;
#75 = DIRECTION ( 'NONE',  ( 1.000000000000000000, 8.673617379883920800E-017, 0.0000000000000000000 ) ) ;
#76 = CARTESIAN_POINT ( 'NONE',  ( 6.735557395310427200E-016, 0.0000000000000000000, -17.50000000000000000 ) ) ;
#77 = DIRECTION ( 'NONE',  ( -0.0000000000000000000, -1.000000000000000000, -0.0000000000000000000 ) ) ;
#78 = DIRECTION ( 'NONE',  ( 0.0000000000000000000, 0.0000000000000000000, 1.000000000000000000 ) ) ;
#79 = DIRECTION ( 'NONE',  ( 0.0000000000000000000, 0.0000000000000000000, -1.000000000000000000 ) ) ;
#80 = DIRECTION ( 'NONE',  ( -1.000000000000000000, 0.0000000000000000000, 0.0000000000000000000 ) ) ;
#81 = CARTESIAN_POINT ( 'NONE',  ( 6.735557395310427200E-016, 0.0000000000000000000, -17.50000000000000000 ) ) ;
#82 = DIRECTION ( 'NONE',  ( -0.0000000000000000000, -1.000000000000000000, -0.0000000000000000000 ) ) ;
#83 = DIRECTION ( 'NONE',  ( 0.0000000000000000000, 0.0000000000000000000, -1.000000000000000000 ) ) ;
#84 = DIRECTION ( 'NONE',  ( -1.579616885856731500E-016, 1.000000000000000000, 0.0000000000000000000 ) ) ;
#85 = PLANE ( 'NONE',  #510 ) ;
#86 = DIRECTION ( 'NONE',  ( -0.7071067811865392500, 0.7071067811865559000, 0.0000000000000000000 ) ) ;
#87 = CARTESIAN_POINT ( 'NONE',  ( -3.612708057484694800E-015, 0.0000000000000000000, 17.50000000000000000 ) ) ;
#88 = DIRECTION ( 'NONE',  ( 0.0000000000000000000, 0.0000000000000000000, -1.000000000000000000 ) ) ;
#89 = CARTESIAN_POINT ( 'NONE',  ( 6.735557395310427200E-016, 0.5000000000000113200, 60.00000000000000000 ) ) ;
#90 = CARTESIAN_POINT ( 'NONE',  ( 1.011864417795498600E-015, 0.5249999999999994700, 55.00000000000000700 ) ) ;
#91 = PLANE ( 'NONE',  #497 ) ;
#92 = DIRECTION ( 'NONE',  ( -0.0000000000000000000, -1.000000000000000000, -0.0000000000000000000 ) ) ;
#93 = DIRECTION ( 'NONE',  ( -1.000000000000000000, 0.0000000000000000000, 0.0000000000000000000 ) ) ;
#94 = CARTESIAN_POINT ( 'NONE',  ( 0.5000000000000001100, 0.0000000000000000000, 60.00000000000000000 ) ) ;
#95 = DIRECTION ( 'NONE',  ( -0.7071067811865392500, 0.7071067811865559000, 0.0000000000000000000 ) ) ;
#96 = DIRECTION ( 'NONE',  ( -1.000000000000000000, -1.579616885856731500E-016, 0.0000000000000000000 ) ) ;
#97 = DIRECTION ( 'NONE',  ( -0.7071067811865401300, -0.7071067811865550100, 0.0000000000000000000 ) ) ;
#98 = CARTESIAN_POINT ( 'NONE',  ( 6.735557395310427200E-016, 0.5249999999999994700, -20.00000000000000000 ) ) ;
#99 = CARTESIAN_POINT ( 'NONE',  ( 0.5000000000000001100, 0.0000000000000000000, -20.48339152643430700 ) ) ;
#100 = CARTESIAN_POINT ( 'NONE',  ( -3.612708057484694800E-015, 5.999999999999998200, 15.00000000000000400 ) ) ;
#101 = DIRECTION ( 'NONE',  ( 0.7071067811865559000, 0.7071067811865392500, -0.0000000000000000000 ) ) ;
#102 = CARTESIAN_POINT ( 'NONE',  ( 6.735557395310427200E-016, 0.5000000000000113200, 60.00000000000000000 ) ) ;
#103 = DIRECTION ( 'NONE',  ( 0.7071067811865559000, 0.7071067811865392500, -0.0000000000000000000 ) ) ;
#104 = DIRECTION ( 'NONE',  ( 0.0000000000000000000, 0.0000000000000000000, -1.000000000000000000 ) ) ;
#105 = DIRECTION ( 'NONE',  ( -0.7071067811865550100, 0.7071067811865401300, 0.0000000000000000000 ) ) ;
#106 = CARTESIAN_POINT ( 'NONE',  ( -0.5000000000000001100, 0.0000000000000000000, -55.48339152643430300 ) ) ;
#107 = CARTESIAN_POINT ( 'NONE',  ( 9.797174393178809900E-016, 5.999999999999998200, -15.00000000000000400 ) ) ;
#108 = PLANE ( 'NONE',  #489 ) ;
#109 = PLANE ( 'NONE',  #496 ) ;
#110 = CARTESIAN_POINT ( 'NONE',  ( 6.735557395310427200E-016, 0.5000000000000113200, 60.00000000000000000 ) ) ;
#111 = PLANE ( 'NONE',  #504 ) ;
#112 = CARTESIAN_POINT ( 'NONE',  ( 0.0000000000000000000, 0.0000000000000000000, -60.00000000000000000 ) ) ;
#113 = CARTESIAN_POINT ( 'NONE',  ( 6.735557395310427200E-016, 5.999999999999998200, 50.00000000000000000 ) ) ;
#114 = DIRECTION ( 'NONE',  ( 0.0000000000000000000, 0.0000000000000000000, -1.000000000000000000 ) ) ;
#115 = DIRECTION ( 'NONE',  ( -0.0000000000000000000, -1.000000000000000000, -0.0000000000000000000 ) ) ;
#116 = PLANE ( 'NONE',  #501 ) ;
#117 = DIRECTION ( 'NONE',  ( -1.000000000000000000, 0.0000000000000000000, 0.0000000000000000000 ) ) ;
#118 = DIRECTION ( 'NONE',  ( -0.0000000000000000000, -1.000000000000000000, -0.0000000000000000000 ) ) ;
#119 = DIRECTION ( 'NONE',  ( -0.7071067811865392500, 0.7071067811865559000, 0.0000000000000000000 ) ) ;
#120 = CARTESIAN_POINT ( 'NONE',  ( 1.383850883036508900E-014, 5.999999999999998200, -50.00000000000000000 ) ) ;
#121 = CARTESIAN_POINT ( 'NONE',  ( -3.612708057484694800E-015, 0.0000000000000000000, 17.50000000000000000 ) ) ;
#122 = PLANE ( 'NONE',  #520 ) ;
#123 = CARTESIAN_POINT ( 'NONE',  ( 5.000000000000064800, 5.999999999999999100, 60.00000000000000000 ) ) ;
#124 = DIRECTION ( 'NONE',  ( 8.673617379883920800E-017, -1.000000000000000000, 0.0000000000000000000 ) ) ;
#125 = DIRECTION ( 'NONE',  ( 0.0000000000000000000, 0.0000000000000000000, -1.000000000000000000 ) ) ;
#126 = DIRECTION ( 'NONE',  ( -0.7071067811865550100, 0.7071067811865401300, 0.0000000000000000000 ) ) ;
#127 = PLANE ( 'NONE',  #531 ) ;
#128 = CARTESIAN_POINT ( 'NONE',  ( 6.735557395310427200E-016, 0.0000000000000000000, 52.50000000000000700 ) ) ;
#129 = CARTESIAN_POINT ( 'NONE',  ( 1.353234713057825300E-014, 0.0000000000000000000, -52.50000000000000700 ) ) ;
#130 = CARTESIAN_POINT ( 'NONE',  ( 6.735557395310427200E-016, 0.5000000000000113200, 60.00000000000000000 ) ) ;
#131 = DIRECTION ( 'NONE',  ( -0.0000000000000000000, -1.000000000000000000, -0.0000000000000000000 ) ) ;
#132 = DIRECTION ( 'NONE',  ( 0.0000000000000000000, 0.0000000000000000000, 1.000000000000000000 ) ) ;
#133 = DIRECTION ( 'NONE',  ( 0.0000000000000000000, 0.0000000000000000000, -1.000000000000000000 ) ) ;
#134 = DIRECTION ( 'NONE',  ( -0.7071067811865401300, -0.7071067811865550100, 0.0000000000000000000 ) ) ;
#135 = PLANE ( 'NONE',  #517 ) ;
#136 = CARTESIAN_POINT ( 'NONE',  ( 6.735557395310427200E-016, 0.5000000000000113200, 60.00000000000000000 ) ) ;
#137 = CARTESIAN_POINT ( 'NONE',  ( 3.950000000000000200, 5.449678256205722800E-016, 60.00000000000000000 ) ) ;
#138 = DIRECTION ( 'NONE',  ( 0.7071067811865559000, 0.7071067811865392500, -0.0000000000000000000 ) ) ;
#139 = APPROVAL_ROLE ( '' ) ;
#140 = PERSON_AND_ORGANIZATION_ROLE ( 'creator' ) ;
#141 = PERSON_AND_ORGANIZATION_ROLE ( 'design_supplier' ) ;
#142 = SECURITY_CLASSIFICATION_LEVEL ( 'unclassified' ) ;
#143 = PERSON_AND_ORGANIZATION_ROLE ( 'classification_officer' ) ;
#144 = DATE_TIME_ROLE ( 'classification_date' ) ;
#145 = APPROVAL_STATUS ( 'not_yet_approved' ) ;
#146 = APPLICATION_CONTEXT ( 'configuration controlled 3d designs of mechanical parts and assemblies' ) ;
#147 = PERSON_AND_ORGANIZATION_ROLE ( 'creator' ) ;
#148 = APPLICATION_PROTOCOL_DEFINITION ( 'international standard', 'config_control_design', 1994, #160 ) ;
#149 = DATE_TIME_ROLE ( 'creation_date' ) ;
#150 =( NAMED_UNIT ( * ) SI_UNIT ( $, .STERADIAN. ) SOLID_ANGLE_UNIT ( ) );
#151 = CARTESIAN_POINT ( 'NONE',  ( 0.0000000000000000000, 0.0000000000000000000, 0.0000000000000000000 ) ) ;
#152 = DIRECTION ( 'NONE',  ( 0.0000000000000000000, 0.0000000000000000000, 1.000000000000000000 ) ) ;
#153 = DIRECTION ( 'NONE',  ( 1.000000000000000000, 0.0000000000000000000, 0.0000000000000000000 ) ) ;
#154 = PERSON_AND_ORGANIZATION_ROLE ( 'design_owner' ) ;
#155 = APPLICATION_PROTOCOL_DEFINITION ( 'international standard', 'config_control_design', 1994, #146 ) ;
#156 = APPROVAL_STATUS ( 'not_yet_approved' ) ;
#157 = APPROVAL_STATUS ( 'not_yet_approved' ) ;
#158 = MECHANICAL_CONTEXT ( 'NONE', #160, 'mechanical' ) ;
#159 = APPROVAL_ROLE ( '' ) ;
#160 = APPLICATION_CONTEXT ( 'configuration controlled 3d designs of mechanical parts and assemblies' ) ;
#161 =( NAMED_UNIT ( * ) PLANE_ANGLE_UNIT ( ) SI_UNIT ( $, .RADIAN. ) );
#162 = PRODUCT ( 'ALP0630', 'ALP0630', '', ( #158 ) ) ;
#163 = PERSON ( 'UNSPECIFIED', 'UNSPECIFIED', 'UNSPECIFIED', ('UNSPECIFIED'), ('UNSPECIFIED'), ('UNSPECIFIED') ) ;
#164 = CARTESIAN_POINT ( 'NONE',  ( -0.1623072875484935000, 0.3376927124515137200, -49.81269271245149400 ) ) ;
#165 = CARTESIAN_POINT ( 'NONE',  ( -3.949999999999998800, -4.225031457058366400E-016, 60.00000000000000000 ) ) ;
#166 = CARTESIAN_POINT ( 'NONE',  ( 6.735557395310427200E-016, 0.5000000000000113200, -49.97500000000002300 ) ) ;
#167 = CARTESIAN_POINT ( 'NONE',  ( -3.949999999999998800, -4.225031457058366400E-016, 60.00000000000000000 ) ) ;
#168 = DIRECTION ( 'NONE',  ( -0.0000000000000000000, -0.0000000000000000000, -1.000000000000000000 ) ) ;
#169 = DIRECTION ( 'NONE',  ( -0.0000000000000000000, -1.000000000000000000, -0.0000000000000000000 ) ) ;
#170 = CARTESIAN_POINT ( 'NONE',  ( 5.000000000000064800, 5.999999999999999100, -60.00000000000000000 ) ) ;
#171 = CARTESIAN_POINT ( 'NONE',  ( 1.103742737644027000E-015, 0.5000000000000108800, 20.02499999999999100 ) ) ;
#172 = CARTESIAN_POINT ( 'NONE',  ( 1.094973684494840100E-015, 0.5000000000000108800, -14.97500000000001200 ) ) ;
#173 = CARTESIAN_POINT ( 'NONE',  ( 0.5000000000000001100, 0.0000000000000000000, 20.48339152643430300 ) ) ;
#174 = CARTESIAN_POINT ( 'NONE',  ( 6.735557395310427200E-016, 0.0000000000000000000, 50.00000000000000000 ) ) ;
#175 = DIRECTION ( 'NONE',  ( -1.000000000000000000, -8.673617379883920800E-017, 0.0000000000000000000 ) ) ;
#176 = CARTESIAN_POINT ( 'NONE',  ( 0.1623072875484946300, 0.3376927124515135000, -14.81269271245149400 ) ) ;
#177 = CARTESIAN_POINT ( 'NONE',  ( -3.242252400742620800E-015, 0.0000000000000000000, 20.52500000000000200 ) ) ;
#178 = CARTESIAN_POINT ( 'NONE',  ( 0.1623072875484941100, 0.3376927124515140000, 20.18730728754850600 ) ) ;
#179 = CARTESIAN_POINT ( 'NONE',  ( 0.3294565384477637900, 0.1705434615522403200, 20.33905169151694300 ) ) ;
#180 = DIRECTION ( 'NONE',  ( -0.0000000000000000000, -1.000000000000000000, -0.0000000000000000000 ) ) ;
#181 = DIRECTION ( 'NONE',  ( 8.659560562354941500E-017, -0.7071067811865469100, 0.7071067811865482400 ) ) ;
#182 = CARTESIAN_POINT ( 'NONE',  ( 6.735557395310427200E-016, 0.0000000000000000000, -20.52500000000000200 ) ) ;
#183 = DIRECTION ( 'NONE',  ( 0.0000000000000000000, -0.7071067811865469100, -0.7071067811865482400 ) ) ;
#184 = DIRECTION ( 'NONE',  ( 0.0000000000000000000, 0.0000000000000000000, -1.000000000000000000 ) ) ;
#185 = DIRECTION ( 'NONE',  ( -0.0000000000000000000, -1.000000000000000000, -0.0000000000000000000 ) ) ;
#186 = DIRECTION ( 'NONE',  ( -0.0000000000000000000, -1.000000000000000000, -0.0000000000000000000 ) ) ;
#187 = DIRECTION ( 'NONE',  ( 0.0000000000000000000, 0.0000000000000000000, -1.000000000000000000 ) ) ;
#188 = DIRECTION ( 'NONE',  ( 0.0000000000000000000, 0.0000000000000000000, -1.000000000000000000 ) ) ;
#189 = CARTESIAN_POINT ( 'NONE',  ( -7.999999999999998200, 1.699999999999998400, -60.00000000000000000 ) ) ;
#190 = CARTESIAN_POINT ( 'NONE',  ( 0.3294565384477642400, 0.1705434615522399000, -14.66094830848306300 ) ) ;
#191 = DIRECTION ( 'NONE',  ( -0.0000000000000000000, -1.000000000000000000, -0.0000000000000000000 ) ) ;
#192 = CARTESIAN_POINT ( 'NONE',  ( 0.5000000000000001100, 0.0000000000000000000, -14.51660847356569800 ) ) ;
#193 = CARTESIAN_POINT ( 'NONE',  ( 1.353234713057825300E-014, 0.5249999999999994700, -52.50000000000000700 ) ) ;
#194 = CARTESIAN_POINT ( 'NONE',  ( 6.735557395310427200E-016, 0.5249999999999994700, 52.50000000000000700 ) ) ;
#195 = CARTESIAN_POINT ( 'NONE',  ( 6.735557395310427200E-016, 0.0000000000000000000, -17.50000000000000000 ) ) ;
#196 = DIRECTION ( 'NONE',  ( -0.0000000000000000000, -1.000000000000000000, -0.0000000000000000000 ) ) ;
#197 = DIRECTION ( 'NONE',  ( 0.7071067811865401300, 0.7071067811865550100, -0.0000000000000000000 ) ) ;
#198 = CARTESIAN_POINT ( 'NONE',  ( 0.5000000000000001100, 0.0000000000000000000, 60.00000000000000000 ) ) ;
#199 = CARTESIAN_POINT ( 'NONE',  ( -7.999999999999998200, 2.999999999999996000, 60.00000000000000000 ) ) ;
#200 = DIRECTION ( 'NONE',  ( 8.659560562354941500E-017, -0.7071067811865469100, 0.7071067811865482400 ) ) ;
#201 = CARTESIAN_POINT ( 'NONE',  ( 1.044011396273117100E-015, 0.0000000000000000000, -14.47500000000000100 ) ) ;
#202 = DIRECTION ( 'NONE',  ( -0.0000000000000000000, -0.0000000000000000000, -1.000000000000000000 ) ) ;
#203 = DIRECTION ( 'NONE',  ( -0.7071067811865392500, -0.7071067811865559000, -0.0000000000000000000 ) ) ;
#204 = CARTESIAN_POINT ( 'NONE',  ( 6.735557395310427200E-016, 0.5000000000000113200, 60.00000000000000000 ) ) ;
#205 = CARTESIAN_POINT ( 'NONE',  ( 9.797174393178809900E-016, 0.0000000000000000000, -15.00000000000000400 ) ) ;
#206 = DIRECTION ( 'NONE',  ( -0.0000000000000000000, -1.000000000000000000, -0.0000000000000000000 ) ) ;
#207 = CARTESIAN_POINT ( 'NONE',  ( 1.416636894636962100E-015, 0.5000000000000119900, -55.02499999999999100 ) ) ;
#208 = CARTESIAN_POINT ( 'NONE',  ( -3.612708057484694800E-015, 0.5249999999999994700, 17.50000000000000000 ) ) ;
#209 = DIRECTION ( 'NONE',  ( -0.0000000000000000000, -1.000000000000000000, -0.0000000000000000000 ) ) ;
#210 = CARTESIAN_POINT ( 'NONE',  ( -0.1623072875484933800, 0.3376927124515138300, -55.18730728754851400 ) ) ;
#211 = CARTESIAN_POINT ( 'NONE',  ( 6.735557395310427200E-016, 0.5000000000000113200, 60.00000000000000000 ) ) ;
#212 = CARTESIAN_POINT ( 'NONE',  ( 6.735557395310427200E-016, 0.5000000000000113200, 60.00000000000000000 ) ) ;
#213 = CARTESIAN_POINT ( 'NONE',  ( 6.735557395310427200E-016, 5.999999999999998200, -17.50000000000000000 ) ) ;
#214 = DIRECTION ( 'NONE',  ( -0.0000000000000000000, -1.000000000000000000, -0.0000000000000000000 ) ) ;
#215 = DIRECTION ( 'NONE',  ( 0.0000000000000000000, 0.0000000000000000000, -1.000000000000000000 ) ) ;
#216 = DIRECTION ( 'NONE',  ( 0.0000000000000000000, 0.0000000000000000000, -1.000000000000000000 ) ) ;
#217 = DIRECTION ( 'NONE',  ( -0.0000000000000000000, -0.0000000000000000000, -1.000000000000000000 ) ) ;
#218 = CARTESIAN_POINT ( 'NONE',  ( -0.3294565384477625100, 0.1705434615522412000, -55.33905169151695000 ) ) ;
#219 = CARTESIAN_POINT ( 'NONE',  ( -0.5000000000000001100, 0.0000000000000000000, -55.48339152643430300 ) ) ;
#220 = DIRECTION ( 'NONE',  ( -0.0000000000000000000, -0.0000000000000000000, -1.000000000000000000 ) ) ;
#221 = DIRECTION ( 'NONE',  ( -0.0000000000000000000, -1.000000000000000000, -0.0000000000000000000 ) ) ;
#222 = CARTESIAN_POINT ( 'NONE',  ( 6.735557395310427200E-016, 0.5249999999999994700, -17.50000000000000000 ) ) ;
#223 = CARTESIAN_POINT ( 'NONE',  ( -0.5000000000000001100, 0.0000000000000000000, -49.51660847356570400 ) ) ;
#224 = DIRECTION ( 'NONE',  ( 0.0000000000000000000, 0.0000000000000000000, -1.000000000000000000 ) ) ;
#225 = CARTESIAN_POINT ( 'NONE',  ( -0.3294565384477622900, 0.1705434615522414500, -49.66094830848306400 ) ) ;
#226 = B_SPLINE_CURVE_WITH_KNOTS ( 'NONE', 3,
 ( #1302, #1304, #1303, #1311 ),
 .UNSPECIFIED., .F., .F.,
 ( 4, 4 ),
 ( 3.294101292513232300E-007, 0.0008430172476480955500 ),
 .UNSPECIFIED. ) ;
#227 = B_SPLINE_CURVE_WITH_KNOTS ( 'NONE', 3,
 ( #1290, #1297, #1282, #1296 ),
 .UNSPECIFIED., .F., .F.,
 ( 4, 4 ),
 ( 3.461328779240759400E-007, 0.0008430339703967687800 ),
 .UNSPECIFIED. ) ;
#228 = B_SPLINE_CURVE_WITH_KNOTS ( 'NONE', 3,
 ( #39, #65, #66, #68 ),
 .UNSPECIFIED., .F., .F.,
 ( 4, 4 ),
 ( 3.294101292485109700E-007, 0.0008430172476480929500 ),
 .UNSPECIFIED. ) ;
#229 = ADVANCED_BREP_SHAPE_REPRESENTATION ( 'ALP0630', ( #230, #526 ), #506 ) ;
#230 = MANIFOLD_SOLID_BREP ( 'M6 Tapped Hole2', #1077 ) ;
#231 = B_SPLINE_CURVE_WITH_KNOTS ( 'NONE', 3,
 ( #24, #26, #6, #23 ),
 .UNSPECIFIED., .F., .F.,
 ( 4, 4 ),
 ( 3.461328779226277800E-007, 0.0008430339703967666100 ),
 .UNSPECIFIED. ) ;
#232 = B_SPLINE_CURVE_WITH_KNOTS ( 'NONE', 3,
 ( #1310, #1300, #1289, #1284 ),
 .UNSPECIFIED., .F., .F.,
 ( 4, 4 ),
 ( 3.294101292535570100E-007, 0.0008430172476480979300 ),
 .UNSPECIFIED. ) ;
#233 = B_SPLINE_CURVE_WITH_KNOTS ( 'NONE', 3,
 ( #1247, #1249, #1253, #1279 ),
 .UNSPECIFIED., .F., .F.,
 ( 4, 4 ),
 ( 3.294101292499950800E-007, 0.0008430172476480923000 ),
 .UNSPECIFIED. ) ;
#234 = B_SPLINE_CURVE_WITH_KNOTS ( 'NONE', 3,
 ( #171, #178, #179, #173 ),
 .UNSPECIFIED., .F., .F.,
 ( 4, 4 ),
 ( 3.461328779215591400E-007, 0.0008430339703967628100 ),
 .UNSPECIFIED. ) ;
#235 = UNCERTAINTY_MEASURE_WITH_UNIT (LENGTH_MEASURE( 1.000000000000000100E-005 ), #735, 'distance_accuracy_value', 'NONE');
#236 = B_SPLINE_CURVE_WITH_KNOTS ( 'NONE', 3,
 ( #1259, #1256, #1251, #1257 ),
 .UNSPECIFIED., .F., .F.,
 ( 4, 4 ),
 ( 3.461328779240816600E-007, 0.0008430339703967683400 ),
 .UNSPECIFIED. ) ;
#237 = B_SPLINE_CURVE_WITH_KNOTS ( 'NONE', 3,
 ( #3, #8, #20, #4 ),
 .UNSPECIFIED., .F., .F.,
 ( 4, 4 ),
 ( 3.461328779234465900E-007, 0.0008430339703967675800 ),
 .UNSPECIFIED. ) ;
#238 = B_SPLINE_CURVE_WITH_KNOTS ( 'NONE', 3,
 ( #1254, #1248, #1260, #1268 ),
 .UNSPECIFIED., .F., .F.,
 ( 4, 4 ),
 ( 3.294101292486459100E-007, 0.0008430172476480934900 ),
 .UNSPECIFIED. ) ;
#239 = B_SPLINE_CURVE_WITH_KNOTS ( 'NONE', 3,
 ( #172, #176, #190, #192 ),
 .UNSPECIFIED., .F., .F.,
 ( 4, 4 ),
 ( 3.461328779236425700E-007, 0.0008430339703967654200 ),
 .UNSPECIFIED. ) ;
#240 = B_SPLINE_CURVE_WITH_KNOTS ( 'NONE', 3,
 ( #223, #225, #164, #166 ),
 .UNSPECIFIED., .F., .F.,
 ( 4, 4 ),
 ( 3.294101292529566800E-007, 0.0008430172476480938100 ),
 .UNSPECIFIED. ) ;
#241 = B_SPLINE_CURVE_WITH_KNOTS ( 'NONE', 3,
 ( #1276, #1244, #1255, #1270 ),
 .UNSPECIFIED., .F., .F.,
 ( 4, 4 ),
 ( 3.461328779211897800E-007, 0.0008430339703967645500 ),
 .UNSPECIFIED. ) ;
#242 = B_SPLINE_CURVE_WITH_KNOTS ( 'NONE', 3,
 ( #28, #56, #55, #49 ),
 .UNSPECIFIED., .F., .F.,
 ( 4, 4 ),
 ( 3.294101292509569900E-007, 0.0008430172476480939200 ),
 .UNSPECIFIED. ) ;
#243 = B_SPLINE_CURVE_WITH_KNOTS ( 'NONE', 3,
 ( #1305, #1283, #1308, #1309 ),
 .UNSPECIFIED., .F., .F.,
 ( 4, 4 ),
 ( 3.294101292490263400E-007, 0.0008430172476480912100 ),
 .UNSPECIFIED. ) ;
#244 = B_SPLINE_CURVE_WITH_KNOTS ( 'NONE', 3,
 ( #207, #210, #218, #219 ),
 .UNSPECIFIED., .F., .F.,
 ( 4, 4 ),
 ( 3.461328779234470700E-007, 0.0008430339703967656300 ),
 .UNSPECIFIED. ) ;
#245 = DIRECTION ( 'NONE',  ( -0.7071067811865392500, 0.7071067811865559000, 0.0000000000000000000 ) ) ;
#246 = DIRECTION ( 'NONE',  ( -1.000000000000000000, -3.212450881438531700E-016, 0.0000000000000000000 ) ) ;
#247 = CARTESIAN_POINT ( 'NONE',  ( -3.949999999999998800, 1.699999999999999700, 60.00000000000000000 ) ) ;
#248 = DIRECTION ( 'NONE',  ( -0.0000000000000000000, -1.000000000000000000, -0.0000000000000000000 ) ) ;
#249 = CARTESIAN_POINT ( 'NONE',  ( 6.735557395310427200E-016, 0.0000000000000000000, 52.50000000000000700 ) ) ;
#250 = DIRECTION ( 'NONE',  ( 0.0000000000000000000, 0.0000000000000000000, -1.000000000000000000 ) ) ;
#251 = DIRECTION ( 'NONE',  ( -3.212450881438531700E-016, 1.000000000000000000, 0.0000000000000000000 ) ) ;
#252 = DIRECTION ( 'NONE',  ( -0.0000000000000000000, -1.000000000000000000, -0.0000000000000000000 ) ) ;
#253 = CARTESIAN_POINT ( 'NONE',  ( 6.735557395310427200E-016, 0.5000000000000113200, 60.00000000000000000 ) ) ;
#254 = CARTESIAN_POINT ( 'NONE',  ( 6.735557395310427200E-016, 0.0000000000000000000, -17.50000000000000000 ) ) ;
#255 = DIRECTION ( 'NONE',  ( -1.000000000000000000, -1.224646799147353000E-016, 0.0000000000000000000 ) ) ;
#256 = DIRECTION ( 'NONE',  ( 0.7071067811865559000, 0.7071067811865392500, -0.0000000000000000000 ) ) ;
#257 = PLANE ( 'NONE',  #492 ) ;
#258 = DIRECTION ( 'NONE',  ( 0.0000000000000000000, 0.0000000000000000000, -1.000000000000000000 ) ) ;
#259 = DIRECTION ( 'NONE',  ( 0.0000000000000000000, 0.0000000000000000000, -1.000000000000000000 ) ) ;
#260 = PLANE ( 'NONE',  #498 ) ;
#261 = CARTESIAN_POINT ( 'NONE',  ( -3.612708057484694800E-015, 0.0000000000000000000, 17.50000000000000000 ) ) ;
#262 = DIRECTION ( 'NONE',  ( 0.0000000000000000000, 0.0000000000000000000, -1.000000000000000000 ) ) ;
#263 = PLANE ( 'NONE',  #631 ) ;
#264 = CARTESIAN_POINT ( 'NONE',  ( 7.999999999999998200, 2.999999999999998200, 60.00000000000000000 ) ) ;
#265 = DIRECTION ( 'NONE',  ( 0.7071067811865394700, -0.7071067811865555700, 0.0000000000000000000 ) ) ;
#266 = DIRECTION ( 'NONE',  ( -0.0000000000000000000, -1.000000000000000000, -0.0000000000000000000 ) ) ;
#267 = CARTESIAN_POINT ( 'NONE',  ( 1.353234713057825300E-014, 0.0000000000000000000, -52.50000000000000700 ) ) ;
#268 = DIRECTION ( 'NONE',  ( -0.0000000000000000000, -1.000000000000000000, -0.0000000000000000000 ) ) ;
#269 = DIRECTION ( 'NONE',  ( -0.0000000000000000000, -1.000000000000000000, -0.0000000000000000000 ) ) ;
#270 = CARTESIAN_POINT ( 'NONE',  ( 1.353234713057825300E-014, 0.0000000000000000000, -52.50000000000000700 ) ) ;
#271 = PLANE ( 'NONE',  #507 ) ;
#272 = CARTESIAN_POINT ( 'NONE',  ( 6.735557395310427200E-016, 0.5000000000000113200, 60.00000000000000000 ) ) ;
#273 = DIRECTION ( 'NONE',  ( -0.0000000000000000000, -1.000000000000000000, -0.0000000000000000000 ) ) ;
#274 = DIRECTION ( 'NONE',  ( -0.7071067811865550100, 0.7071067811865401300, 0.0000000000000000000 ) ) ;
#275 = DIRECTION ( 'NONE',  ( -1.000000000000000000, 0.0000000000000000000, 0.0000000000000000000 ) ) ;
#276 = CARTESIAN_POINT ( 'NONE',  ( 6.735557395310427200E-016, 0.0000000000000000000, 52.50000000000000700 ) ) ;
#277 = DIRECTION ( 'NONE',  ( 0.0000000000000000000, 0.0000000000000000000, -1.000000000000000000 ) ) ;
#278 = DIRECTION ( 'NONE',  ( -0.7071067811865555700, -0.7071067811865394700, 0.0000000000000000000 ) ) ;
#279 = DIRECTION ( 'NONE',  ( -0.0000000000000000000, -1.000000000000000000, -0.0000000000000000000 ) ) ;
#280 = CARTESIAN_POINT ( 'NONE',  ( 0.0000000000000000000, 0.0000000000000000000, 60.00000000000000000 ) ) ;
#281 = DIRECTION ( 'NONE',  ( 0.0000000000000000000, 0.0000000000000000000, -1.000000000000000000 ) ) ;
#282 = CARTESIAN_POINT ( 'NONE',  ( 6.735557395310427200E-016, 0.0000000000000000000, -17.50000000000000000 ) ) ;
#283 = DIRECTION ( 'NONE',  ( 0.0000000000000000000, 0.0000000000000000000, -1.000000000000000000 ) ) ;
#284 = DIRECTION ( 'NONE',  ( 0.0000000000000000000, 0.0000000000000000000, -1.000000000000000000 ) ) ;
#285 = DIRECTION ( 'NONE',  ( -0.0000000000000000000, -1.000000000000000000, -0.0000000000000000000 ) ) ;
#286 = PLANE ( 'NONE',  #530 ) ;
#287 = DIRECTION ( 'NONE',  ( -0.7071067811865401300, -0.7071067811865550100, 0.0000000000000000000 ) ) ;
#288 = DIRECTION ( 'NONE',  ( -0.7071067811865550100, 0.7071067811865401300, 0.0000000000000000000 ) ) ;
#289 = PLANE ( 'NONE',  #518 ) ;
#290 = DIRECTION ( 'NONE',  ( -0.7071067811865401300, -0.7071067811865550100, 0.0000000000000000000 ) ) ;
#291 = PLANE ( 'NONE',  #508 ) ;
#292 = CARTESIAN_POINT ( 'NONE',  ( -3.612708057484694800E-015, 0.0000000000000000000, 17.50000000000000000 ) ) ;
#293 = DIRECTION ( 'NONE',  ( 0.0000000000000000000, 0.0000000000000000000, -1.000000000000000000 ) ) ;
#294 = CARTESIAN_POINT ( 'NONE',  ( 6.735557395310427200E-016, 0.0000000000000000000, 52.50000000000000700 ) ) ;
#295 = CARTESIAN_POINT ( 'NONE',  ( -7.999999999999998200, 1.699999999999998400, 60.00000000000000000 ) ) ;
#296 = DIRECTION ( 'NONE',  ( 1.000000000000000000, 0.0000000000000000000, 0.0000000000000000000 ) ) ;
#297 = DIRECTION ( 'NONE',  ( -0.7071067811865401300, -0.7071067811865550100, 0.0000000000000000000 ) ) ;
#298 = DIRECTION ( 'NONE',  ( -0.0000000000000000000, -1.000000000000000000, -0.0000000000000000000 ) ) ;
#299 = CARTESIAN_POINT ( 'NONE',  ( 1.353234713057825300E-014, 0.0000000000000000000, -52.50000000000000700 ) ) ;
#300 = DIRECTION ( 'NONE',  ( 0.0000000000000000000, 0.0000000000000000000, -1.000000000000000000 ) ) ;
#301 = DIRECTION ( 'NONE',  ( -0.7071067811865550100, 0.7071067811865401300, 0.0000000000000000000 ) ) ;
#302 = PLANE ( 'NONE',  #495 ) ;
#303 = DIRECTION ( 'NONE',  ( 0.0000000000000000000, 0.0000000000000000000, -1.000000000000000000 ) ) ;
#304 = CARTESIAN_POINT ( 'NONE',  ( -0.5000000000000001100, 0.0000000000000000000, 60.00000000000000000 ) ) ;
#305 = CARTESIAN_POINT ( 'NONE',  ( 6.735557395310427200E-016, 0.5000000000000113200, 60.00000000000000000 ) ) ;
#306 = PLANE ( 'NONE',  #514 ) ;
#307 = DIRECTION ( 'NONE',  ( 0.0000000000000000000, 0.0000000000000000000, -1.000000000000000000 ) ) ;
#308 = DIRECTION ( 'NONE',  ( -1.224646799147353000E-016, 1.000000000000000000, 0.0000000000000000000 ) ) ;
#309 = CARTESIAN_POINT ( 'NONE',  ( 6.735557395310427200E-016, 0.5000000000000113200, 60.00000000000000000 ) ) ;
#310 = DIRECTION ( 'NONE',  ( -0.0000000000000000000, -1.000000000000000000, -0.0000000000000000000 ) ) ;
#311 = DESIGN_CONTEXT ( 'detailed design', #146, 'design' ) ;
#312 = PRODUCT_DEFINITION_SHAPE ( 'NONE', 'NONE',  #499 ) ;
#313 = DIRECTION ( 'NONE',  ( -0.0000000000000000000, -1.000000000000000000, -0.0000000000000000000 ) ) ;
#314 = PLANE ( 'NONE',  #629 ) ;
#315 = CARTESIAN_POINT ( 'NONE',  ( 6.735557395310427200E-016, 0.5000000000000113200, 60.00000000000000000 ) ) ;
#316 = DIRECTION ( 'NONE',  ( 0.7071067811865559000, 0.7071067811865392500, -0.0000000000000000000 ) ) ;
#317 = DIRECTION ( 'NONE',  ( -0.7071067811865392500, 0.7071067811865559000, 0.0000000000000000000 ) ) ;
#318 = PLANE ( 'NONE',  #627 ) ;
#319 = CARTESIAN_POINT ( 'NONE',  ( -7.999999999999998200, 2.999999999999996000, 60.00000000000000000 ) ) ;
#320 = PLANE ( 'NONE',  #630 ) ;
#321 = CARTESIAN_POINT ( 'NONE',  ( 0.5000000000000001100, 0.0000000000000000000, -60.00000000000000000 ) ) ;
#322 = DIRECTION ( 'NONE',  ( 1.000000000000000000, 1.579616885856731200E-016, 0.0000000000000000000 ) ) ;
#323 = DIRECTION ( 'NONE',  ( 0.7071067811865559000, -0.7071067811865392500, 0.0000000000000000000 ) ) ;
#324 = DIRECTION ( 'NONE',  ( 1.000000000000000000, 0.0000000000000000000, 0.0000000000000000000 ) ) ;
#325 = DIRECTION ( 'NONE',  ( 0.0000000000000000000, 0.0000000000000000000, -1.000000000000000000 ) ) ;
#326 = DIRECTION ( 'NONE',  ( 0.7071067811865392500, 0.7071067811865559000, 0.0000000000000000000 ) ) ;
#327 = DIRECTION ( 'NONE',  ( 5.354084802397555600E-017, 1.000000000000000000, -0.0000000000000000000 ) ) ;
#328 = DIRECTION ( 'NONE',  ( -1.000000000000000000, 5.354084802397555600E-017, 0.0000000000000000000 ) ) ;
#329 = CARTESIAN_POINT ( 'NONE',  ( 3.950000000000000200, 1.700000000000000600, 60.00000000000000000 ) ) ;
#330 = PLANE ( 'NONE',  #645 ) ;
#331 = CARTESIAN_POINT ( 'NONE',  ( -3.949999999999998800, -4.225031457058366400E-016, 60.00000000000000000 ) ) ;
#332 = CARTESIAN_POINT ( 'NONE',  ( -5.000000000000066600, 5.999999999999998200, 60.00000000000000000 ) ) ;
#333 = DIRECTION ( 'NONE',  ( 1.000000000000000000, -5.354084802397555600E-017, 0.0000000000000000000 ) ) ;
#334 = DIRECTION ( 'NONE',  ( -0.0000000000000000000, -1.000000000000000000, -0.0000000000000000000 ) ) ;
#335 = DIRECTION ( 'NONE',  ( -0.0000000000000000000, -0.0000000000000000000, -1.000000000000000000 ) ) ;
#336 = DIRECTION ( 'NONE',  ( 0.0000000000000000000, 1.000000000000000000, 0.0000000000000000000 ) ) ;
#337 = CARTESIAN_POINT ( 'NONE',  ( 3.950000000000000200, 1.700000000000000600, 60.00000000000000000 ) ) ;
#338 = CARTESIAN_POINT ( 'NONE',  ( -0.5000000000000001100, 0.0000000000000000000, -60.00000000000000000 ) ) ;
#339 = CARTESIAN_POINT ( 'NONE',  ( 1.353234713057825300E-014, 0.0000000000000000000, -52.50000000000000700 ) ) ;
#340 = DIRECTION ( 'NONE',  ( 0.0000000000000000000, 0.0000000000000000000, -1.000000000000000000 ) ) ;
#341 = DIRECTION ( 'NONE',  ( -0.0000000000000000000, -0.0000000000000000000, -1.000000000000000000 ) ) ;
#342 = CARTESIAN_POINT ( 'NONE',  ( -3.612708057484694800E-015, 5.999999999999998200, 17.50000000000000000 ) ) ;
#343 = DIRECTION ( 'NONE',  ( 1.000000000000000000, 1.579616885856731200E-016, 0.0000000000000000000 ) ) ;
#344 = CARTESIAN_POINT ( 'NONE',  ( 7.999999999999998200, 1.700000000000000400, 60.00000000000000000 ) ) ;
#345 = DIRECTION ( 'NONE',  ( -0.0000000000000000000, -1.000000000000000000, -0.0000000000000000000 ) ) ;
#346 = CARTESIAN_POINT ( 'NONE',  ( 3.950000000000000200, 5.449678256205722800E-016, 60.00000000000000000 ) ) ;
#347 = DIRECTION ( 'NONE',  ( 1.000000000000000000, 3.212450881438531700E-016, -0.0000000000000000000 ) ) ;
#348 = CARTESIAN_POINT ( 'NONE',  ( -3.949999999999998800, 1.699999999999999700, 60.00000000000000000 ) ) ;
#349 = DIRECTION ( 'NONE',  ( 1.000000000000000000, 1.224646799147353000E-016, -0.0000000000000000000 ) ) ;
#350 = CARTESIAN_POINT ( 'NONE',  ( 0.5000000000000001100, 0.0000000000000000000, 60.00000000000000000 ) ) ;
#351 = DIRECTION ( 'NONE',  ( -0.0000000000000000000, -0.0000000000000000000, -1.000000000000000000 ) ) ;
#352 = CARTESIAN_POINT ( 'NONE',  ( 3.950000000000000200, 1.700000000000000600, 60.00000000000000000 ) ) ;
#353 = DIRECTION ( 'NONE',  ( -0.7071067811865394700, 0.7071067811865555700, 0.0000000000000000000 ) ) ;
#354 = CARTESIAN_POINT ( 'NONE',  ( 7.999999999999998200, 2.999999999999998200, -60.00000000000000000 ) ) ;
#355 = DIRECTION ( 'NONE',  ( -0.0000000000000000000, -0.0000000000000000000, -1.000000000000000000 ) ) ;
#356 = DIRECTION ( 'NONE',  ( -0.0000000000000000000, -0.0000000000000000000, -1.000000000000000000 ) ) ;
#357 = CARTESIAN_POINT ( 'NONE',  ( -3.949999999999998800, 1.699999999999999700, 60.00000000000000000 ) ) ;
#358 = CARTESIAN_POINT ( 'NONE',  ( 3.950000000000000200, 5.449678256205722800E-016, 60.00000000000000000 ) ) ;
#359 = CARTESIAN_POINT ( 'NONE',  ( -7.999999999999998200, 2.999999999999996000, -60.00000000000000000 ) ) ;
#360 = DIRECTION ( 'NONE',  ( -0.7071067811865392500, -0.7071067811865559000, -0.0000000000000000000 ) ) ;
#361 = DIRECTION ( 'NONE',  ( 0.0000000000000000000, 0.0000000000000000000, -1.000000000000000000 ) ) ;
#362 = DIRECTION ( 'NONE',  ( -0.0000000000000000000, -1.000000000000000000, -0.0000000000000000000 ) ) ;
#363 = DIRECTION ( 'NONE',  ( -1.000000000000000000, -8.673617379883920800E-017, 0.0000000000000000000 ) ) ;
#364 = CARTESIAN_POINT ( 'NONE',  ( 7.999999999999998200, 2.999999999999998200, 60.00000000000000000 ) ) ;
#365 = CARTESIAN_POINT ( 'NONE',  ( 6.735557395310427200E-016, 0.0000000000000000000, 52.50000000000000700 ) ) ;
#366 = DIRECTION ( 'NONE',  ( 0.0000000000000000000, 0.0000000000000000000, -1.000000000000000000 ) ) ;
#367 = CARTESIAN_POINT ( 'NONE',  ( 5.000000000000064800, 5.999999999999999100, 60.00000000000000000 ) ) ;
#368 = DIRECTION ( 'NONE',  ( -0.7071067811865394700, 0.7071067811865555700, 0.0000000000000000000 ) ) ;
#369 = CARTESIAN_POINT ( 'NONE',  ( -7.999999999999998200, 2.999999999999996000, 60.00000000000000000 ) ) ;
#370 = DIRECTION ( 'NONE',  ( -0.0000000000000000000, -0.0000000000000000000, -1.000000000000000000 ) ) ;
#371 = CARTESIAN_POINT ( 'NONE',  ( 7.999999999999998200, 2.999999999999998200, 60.00000000000000000 ) ) ;
#372 = CARTESIAN_POINT ( 'NONE',  ( 5.000000000000064800, 5.999999999999999100, 60.00000000000000000 ) ) ;
#373 = CARTESIAN_POINT ( 'NONE',  ( -3.949999999999998800, -4.225031457058366400E-016, -60.00000000000000000 ) ) ;
#374 = DIRECTION ( 'NONE',  ( -0.0000000000000000000, -0.0000000000000000000, -1.000000000000000000 ) ) ;
#375 = DIRECTION ( 'NONE',  ( -0.0000000000000000000, -0.0000000000000000000, -1.000000000000000000 ) ) ;
#376 = ORIENTED_EDGE ( 'NONE', *, *, #672, .F. ) ;
#377 = ORIENTED_EDGE ( 'NONE', *, *, #677, .T. ) ;
#378 = ORIENTED_EDGE ( 'NONE', *, *, #619, .T. ) ;
#379 = ORIENTED_EDGE ( 'NONE', *, *, #557, .F. ) ;
#380 = ORIENTED_EDGE ( 'NONE', *, *, #596, .T. ) ;
#381 = ORIENTED_EDGE ( 'NONE', *, *, #664, .F. ) ;
#382 = ORIENTED_EDGE ( 'NONE', *, *, #669, .F. ) ;
#383 = ORIENTED_EDGE ( 'NONE', *, *, #668, .F. ) ;
#384 = ORIENTED_EDGE ( 'NONE', *, *, #640, .T. ) ;
#385 = ORIENTED_EDGE ( 'NONE', *, *, #636, .T. ) ;
#386 = ORIENTED_EDGE ( 'NONE', *, *, #591, .T. ) ;
#387 = ORIENTED_EDGE ( 'NONE', *, *, #611, .F. ) ;
#388 = ORIENTED_EDGE ( 'NONE', *, *, #607, .F. ) ;
#389 = ORIENTED_EDGE ( 'NONE', *, *, #582, .T. ) ;
#390 = ORIENTED_EDGE ( 'NONE', *, *, #613, .F. ) ;
#391 = ORIENTED_EDGE ( 'NONE', *, *, #556, .F. ) ;
#392 = ORIENTED_EDGE ( 'NONE', *, *, #546, .T. ) ;
#393 = ORIENTED_EDGE ( 'NONE', *, *, #605, .F. ) ;
#394 = ORIENTED_EDGE ( 'NONE', *, *, #601, .T. ) ;
#395 = ORIENTED_EDGE ( 'NONE', *, *, #545, .T. ) ;
#396 = ORIENTED_EDGE ( 'NONE', *, *, #575, .T. ) ;
#397 = ORIENTED_EDGE ( 'NONE', *, *, #620, .T. ) ;
#398 = ORIENTED_EDGE ( 'NONE', *, *, #546, .F. ) ;
#399 = ORIENTED_EDGE ( 'NONE', *, *, #558, .F. ) ;
#400 = ORIENTED_EDGE ( 'NONE', *, *, #554, .T. ) ;
#401 = ORIENTED_EDGE ( 'NONE', *, *, #606, .T. ) ;
#402 = ORIENTED_EDGE ( 'NONE', *, *, #541, .F. ) ;
#403 = ORIENTED_EDGE ( 'NONE', *, *, #566, .T. ) ;
#404 = ORIENTED_EDGE ( 'NONE', *, *, #552, .F. ) ;
#405 = ORIENTED_EDGE ( 'NONE', *, *, #549, .F. ) ;
#406 = ORIENTED_EDGE ( 'NONE', *, *, #562, .T. ) ;
#407 = ORIENTED_EDGE ( 'NONE', *, *, #543, .T. ) ;
#408 = ORIENTED_EDGE ( 'NONE', *, *, #549, .T. ) ;
#409 = ORIENTED_EDGE ( 'NONE', *, *, #548, .F. ) ;
#410 = ORIENTED_EDGE ( 'NONE', *, *, #608, .T. ) ;
#411 = ORIENTED_EDGE ( 'NONE', *, *, #562, .F. ) ;
#412 = ORIENTED_EDGE ( 'NONE', *, *, #589, .T. ) ;
#413 = ORIENTED_EDGE ( 'NONE', *, *, #553, .T. ) ;
#414 = ORIENTED_EDGE ( 'NONE', *, *, #579, .F. ) ;
#415 = ORIENTED_EDGE ( 'NONE', *, *, #621, .F. ) ;
#416 = ORIENTED_EDGE ( 'NONE', *, *, #600, .T. ) ;
#417 = ORIENTED_EDGE ( 'NONE', *, *, #603, .T. ) ;
#418 = ORIENTED_EDGE ( 'NONE', *, *, #565, .T. ) ;
#419 = ORIENTED_EDGE ( 'NONE', *, *, #544, .T. ) ;
#420 = ORIENTED_EDGE ( 'NONE', *, *, #597, .F. ) ;
#421 = ORIENTED_EDGE ( 'NONE', *, *, #572, .F. ) ;
#422 = ORIENTED_EDGE ( 'NONE', *, *, #560, .T. ) ;
#423 = ORIENTED_EDGE ( 'NONE', *, *, #593, .F. ) ;
#424 = ORIENTED_EDGE ( 'NONE', *, *, #542, .F. ) ;
#425 = ORIENTED_EDGE ( 'NONE', *, *, #568, .F. ) ;
#426 = ORIENTED_EDGE ( 'NONE', *, *, #618, .F. ) ;
#427 = ORIENTED_EDGE ( 'NONE', *, *, #569, .F. ) ;
#428 = ORIENTED_EDGE ( 'NONE', *, *, #571, .F. ) ;
#429 = ORIENTED_EDGE ( 'NONE', *, *, #573, .F. ) ;
#430 = ORIENTED_EDGE ( 'NONE', *, *, #576, .T. ) ;
#431 = ORIENTED_EDGE ( 'NONE', *, *, #613, .T. ) ;
#432 = ORIENTED_EDGE ( 'NONE', *, *, #603, .F. ) ;
#433 = ORIENTED_EDGE ( 'NONE', *, *, #611, .T. ) ;
#434 = ORIENTED_EDGE ( 'NONE', *, *, #543, .F. ) ;
#435 = ORIENTED_EDGE ( 'NONE', *, *, #576, .F. ) ;
#436 = ORIENTED_EDGE ( 'NONE', *, *, #595, .F. ) ;
#437 = ORIENTED_EDGE ( 'NONE', *, *, #587, .F. ) ;
#438 = ORIENTED_EDGE ( 'NONE', *, *, #604, .T. ) ;
#439 = ORIENTED_EDGE ( 'NONE', *, *, #597, .T. ) ;
#440 = ORIENTED_EDGE ( 'NONE', *, *, #599, .T. ) ;
#441 = ORIENTED_EDGE ( 'NONE', *, *, #579, .T. ) ;
#442 = ORIENTED_EDGE ( 'NONE', *, *, #634, .F. ) ;
#443 = ORIENTED_EDGE ( 'NONE', *, *, #551, .T. ) ;
#444 = ORIENTED_EDGE ( 'NONE', *, *, #650, .F. ) ;
#445 = ORIENTED_EDGE ( 'NONE', *, *, #570, .T. ) ;
#446 = ORIENTED_EDGE ( 'NONE', *, *, #598, .T. ) ;
#447 = ORIENTED_EDGE ( 'NONE', *, *, #617, .T. ) ;
#448 = ORIENTED_EDGE ( 'NONE', *, *, #595, .T. ) ;
#449 = ORIENTED_EDGE ( 'NONE', *, *, #574, .T. ) ;
#450 = ORIENTED_EDGE ( 'NONE', *, *, #571, .T. ) ;
#451 = ORIENTED_EDGE ( 'NONE', *, *, #559, .T. ) ;
#452 = ORIENTED_EDGE ( 'NONE', *, *, #561, .T. ) ;
#453 = ORIENTED_EDGE ( 'NONE', *, *, #556, .T. ) ;
#454 = ORIENTED_EDGE ( 'NONE', *, *, #667, .F. ) ;
#455 = ORIENTED_EDGE ( 'NONE', *, *, #584, .T. ) ;
#456 = ORIENTED_EDGE ( 'NONE', *, *, #607, .T. ) ;
#457 = ORIENTED_EDGE ( 'NONE', *, *, #612, .F. ) ;
#458 = ORIENTED_EDGE ( 'NONE', *, *, #650, .T. ) ;
#459 = ORIENTED_EDGE ( 'NONE', *, *, #609, .F. ) ;
#460 = ORIENTED_EDGE ( 'NONE', *, *, #612, .T. ) ;
#461 = ORIENTED_EDGE ( 'NONE', *, *, #557, .T. ) ;
#462 = ORIENTED_EDGE ( 'NONE', *, *, #555, .T. ) ;
#463 = ORIENTED_EDGE ( 'NONE', *, *, #590, .T. ) ;
#464 = ORIENTED_EDGE ( 'NONE', *, *, #584, .F. ) ;
#465 = ORIENTED_EDGE ( 'NONE', *, *, #649, .F. ) ;
#466 = ORIENTED_EDGE ( 'NONE', *, *, #637, .F. ) ;
#467 = ORIENTED_EDGE ( 'NONE', *, *, #542, .T. ) ;
#468 = ORIENTED_EDGE ( 'NONE', *, *, #602, .T. ) ;
#469 = ORIENTED_EDGE ( 'NONE', *, *, #547, .F. ) ;
#470 = ORIENTED_EDGE ( 'NONE', *, *, #642, .T. ) ;
#471 = ORIENTED_EDGE ( 'NONE', *, *, #657, .F. ) ;
#472 = ORIENTED_EDGE ( 'NONE', *, *, #655, .F. ) ;
#473 = ORIENTED_EDGE ( 'NONE', *, *, #599, .F. ) ;
#474 = ORIENTED_EDGE ( 'NONE', *, *, #604, .F. ) ;
#475 = ORIENTED_EDGE ( 'NONE', *, *, #567, .T. ) ;
#476 = ORIENTED_EDGE ( 'NONE', *, *, #564, .F. ) ;
#477 = ORIENTED_EDGE ( 'NONE', *, *, #602, .F. ) ;
#478 = ORIENTED_EDGE ( 'NONE', *, *, #585, .T. ) ;
#479 = ORIENTED_EDGE ( 'NONE', *, *, #550, .T. ) ;
#480 = ORIENTED_EDGE ( 'NONE', *, *, #656, .F. ) ;
#481 = ORIENTED_EDGE ( 'NONE', *, *, #588, .F. ) ;
#482 = ORIENTED_EDGE ( 'NONE', *, *, #658, .T. ) ;
#483 = ORIENTED_EDGE ( 'NONE', *, *, #547, .T. ) ;
#484 = ORIENTED_EDGE ( 'NONE', *, *, #583, .T. ) ;
#485 = ORIENTED_EDGE ( 'NONE', *, *, #661, .F. ) ;
#486 = ORIENTED_EDGE ( 'NONE', *, *, #658, .F. ) ;
#487 = ORIENTED_EDGE ( 'NONE', *, *, #657, .T. ) ;
#488 = AXIS2_PLACEMENT_3D ( 'NONE', #87, #92, #83 ) ;
#489 = AXIS2_PLACEMENT_3D ( 'NONE', #89, #101, #95 ) ;
#490 = AXIS2_PLACEMENT_3D ( 'NONE', #128, #115, #114 ) ;
#491 = AXIS2_PLACEMENT_3D ( 'NONE', #72, #80, #78 ) ;
#492 = AXIS2_PLACEMENT_3D ( 'NONE', #247, #251, #246 ) ;
#493 = AXIS2_PLACEMENT_3D ( 'NONE', #76, #77, #79 ) ;
#494 = AXIS2_PLACEMENT_3D ( 'NONE', #276, #269, #277 ) ;
#495 = AXIS2_PLACEMENT_3D ( 'NONE', #304, #308, #255 ) ;
#496 = AXIS2_PLACEMENT_3D ( 'NONE', #94, #84, #96 ) ;
#497 = AXIS2_PLACEMENT_3D ( 'NONE', #110, #105, #97 ) ;
#498 = AXIS2_PLACEMENT_3D ( 'NONE', #264, #278, #265 ) ;
#499 = PRODUCT_DEFINITION ( 'UNKNOWN', '', #519, #311 ) ;
#500 = AXIS2_PLACEMENT_3D ( 'NONE', #261, #266, #262 ) ;
#501 = AXIS2_PLACEMENT_3D ( 'NONE', #137, #117, #132 ) ;
#502 = AXIS2_PLACEMENT_3D ( 'NONE', #121, #131, #133 ) ;
#503 = AXIS2_PLACEMENT_3D ( 'NONE', #292, #285, #293 ) ;
#504 = AXIS2_PLACEMENT_3D ( 'NONE', #102, #103, #86 ) ;
#505 = AXIS2_PLACEMENT_3D ( 'NONE', #294, #310, #303 ) ;
#506 =( GEOMETRIC_REPRESENTATION_CONTEXT ( 3 ) GLOBAL_UNCERTAINTY_ASSIGNED_CONTEXT ( ( #235 ) ) GLOBAL_UNIT_ASSIGNED_CONTEXT ( ( #735, #161, #150 ) ) REPRESENTATION_CONTEXT ( 'NONE', 'WORKASPACE' ) );
#507 = AXIS2_PLACEMENT_3D ( 'NONE', #272, #274, #297 ) ;
#508 = AXIS2_PLACEMENT_3D ( 'NONE', #305, #288, #290 ) ;
#509 = CC_DESIGN_PERSON_AND_ORGANIZATION_ASSIGNMENT ( #962, #154, ( #162 ) ) ;
#510 = AXIS2_PLACEMENT_3D ( 'NONE', #112, #88, #93 ) ;
#511 = APPROVAL ( #156, 'UNSPECIFIED' ) ;
#512 = CC_DESIGN_PERSON_AND_ORGANIZATION_ASSIGNMENT ( #961, #147, ( #499 ) ) ;
#513 = CC_DESIGN_DATE_AND_TIME_ASSIGNMENT ( #959, #149, ( #499 ) ) ;
#514 = AXIS2_PLACEMENT_3D ( 'NONE', #253, #256, #245 ) ;
#515 = AXIS2_PLACEMENT_3D ( 'NONE', #267, #268, #283 ) ;
#516 = AXIS2_PLACEMENT_3D ( 'NONE', #81, #82, #104 ) ;
#517 = AXIS2_PLACEMENT_3D ( 'NONE', #136, #126, #134 ) ;
#518 = AXIS2_PLACEMENT_3D ( 'NONE', #295, #296, #307 ) ;
#519 = PRODUCT_DEFINITION_FORMATION_WITH_SPECIFIED_SOURCE ( 'ANY', '', #162, .NOT_KNOWN. ) ;
#520 = AXIS2_PLACEMENT_3D ( 'NONE', #123, #124, #75 ) ;
#521 = AXIS2_PLACEMENT_3D ( 'NONE', #254, #252, #258 ) ;
#522 = APPROVAL ( #157, 'UNSPECIFIED' ) ;
#523 = CC_DESIGN_APPROVAL ( #522, ( #519 ) ) ;
#524 = AXIS2_PLACEMENT_3D ( 'NONE', #129, #118, #125 ) ;
#525 = AXIS2_PLACEMENT_3D ( 'NONE', #299, #298, #300 ) ;
#526 = AXIS2_PLACEMENT_3D ( 'NONE', #151, #152, #153 ) ;
#527 = AXIS2_PLACEMENT_3D ( 'NONE', #249, #248, #250 ) ;
#528 = CC_DESIGN_APPROVAL ( #511, ( #499 ) ) ;
#529 = AXIS2_PLACEMENT_3D ( 'NONE', #270, #273, #259 ) ;
#530 = AXIS2_PLACEMENT_3D ( 'NONE', #309, #301, #287 ) ;
#531 = AXIS2_PLACEMENT_3D ( 'NONE', #130, #138, #119 ) ;
#532 = CC_DESIGN_DATE_AND_TIME_ASSIGNMENT ( #988, #144, ( #538 ) ) ;
#533 = CC_DESIGN_SECURITY_CLASSIFICATION ( #538, ( #519 ) ) ;
#534 = CC_DESIGN_APPROVAL ( #537, ( #538 ) ) ;
#535 = PRODUCT_RELATED_PRODUCT_CATEGORY ( 'detail', '', ( #162 ) ) ;
#536 = CC_DESIGN_PERSON_AND_ORGANIZATION_ASSIGNMENT ( #973, #141, ( #519 ) ) ;
#537 = APPROVAL ( #145, 'UNSPECIFIED' ) ;
#538 = SECURITY_CLASSIFICATION ( '', '', #142 ) ;
#539 = CC_DESIGN_PERSON_AND_ORGANIZATION_ASSIGNMENT ( #985, #143, ( #538 ) ) ;
#540 = CC_DESIGN_PERSON_AND_ORGANIZATION_ASSIGNMENT ( #972, #140, ( #519 ) ) ;
#541 = EDGE_CURVE ( 'NONE', #1160, #1152, #1201, .T. ) ;
#542 = EDGE_CURVE ( 'NONE', #1153, #1150, #226, .T. ) ;
#543 = EDGE_CURVE ( 'NONE', #1152, #1166, #227, .T. ) ;
#544 = EDGE_CURVE ( 'NONE', #1131, #1151, #243, .T. ) ;
#545 = EDGE_CURVE ( 'NONE', #1139, #1169, #1181, .T. ) ;
#546 = EDGE_CURVE ( 'NONE', #1151, #1171, #1184, .T. ) ;
#547 = EDGE_CURVE ( 'NONE', #1175, #1215, #1183, .T. ) ;
#548 = EDGE_CURVE ( 'NONE', #1149, #1141, #1219, .T. ) ;
#549 = EDGE_CURVE ( 'NONE', #1139, #1160, #1210, .T. ) ;
#550 = EDGE_CURVE ( 'NONE', #1175, #1141, #232, .T. ) ;
#551 = EDGE_CURVE ( 'NONE', #1174, #1191, #1195, .T. ) ;
#552 = EDGE_CURVE ( 'NONE', #1132, #1145, #1187, .T. ) ;
#553 = EDGE_CURVE ( 'NONE', #1140, #1143, #1200, .T. ) ;
#554 = EDGE_CURVE ( 'NONE', #1143, #1134, #1203, .T. ) ;
#555 = EDGE_CURVE ( 'NONE', #1166, #1153, #1204, .T. ) ;
#556 = EDGE_CURVE ( 'NONE', #1131, #1189, #1205, .T. ) ;
#557 = EDGE_CURVE ( 'NONE', #1141, #1191, #1214, .T. ) ;
#558 = EDGE_CURVE ( 'NONE', #1154, #1132, #1178, .T. ) ;
#559 = EDGE_CURVE ( 'NONE', #1134, #1174, #1234, .T. ) ;
#560 = EDGE_CURVE ( 'NONE', #1137, #1146, #1235, .T. ) ;
#561 = EDGE_CURVE ( 'NONE', #1176, #1225, #1232, .T. ) ;
#562 = EDGE_CURVE ( 'NONE', #1151, #1140, #241, .T. ) ;
#563 = EDGE_CURVE ( 'NONE', #1173, #1164, #1239, .T. ) ;
#564 = EDGE_CURVE ( 'NONE', #1221, #1216, #1229, .T. ) ;
#565 = EDGE_CURVE ( 'NONE', #1154, #1162, #1228, .T. ) ;
#566 = EDGE_CURVE ( 'NONE', #1171, #1189, #236, .T. ) ;
#567 = EDGE_CURVE ( 'NONE', #1167, #1158, #795, .T. ) ;
#568 = EDGE_CURVE ( 'NONE', #1137, #1148, #802, .T. ) ;
#569 = EDGE_CURVE ( 'NONE', #1168, #1136, #804, .T. ) ;
#570 = EDGE_CURVE ( 'NONE', #1191, #1215, #818, .T. ) ;
#571 = EDGE_CURVE ( 'NONE', #1157, #1169, #238, .T. ) ;
#572 = EDGE_CURVE ( 'NONE', #1145, #1172, #789, .T. ) ;
#573 = EDGE_CURVE ( 'NONE', #1148, #1149, #775, .T. ) ;
#574 = EDGE_CURVE ( 'NONE', #1188, #1172, #233, .T. ) ;
#575 = EDGE_CURVE ( 'NONE', #1168, #1139, #800, .T. ) ;
#576 = EDGE_CURVE ( 'NONE', #1146, #1149, #810, .T. ) ;
#577 = EDGE_CURVE ( 'NONE', #1177, #1163, #792, .T. ) ;
#578 = EDGE_CURVE ( 'NONE', #1136, #1168, #776, .T. ) ;
#579 = EDGE_CURVE ( 'NONE', #1158, #1170, #242, .T. ) ;
#580 = EDGE_CURVE ( 'NONE', #1145, #1162, #812, .T. ) ;
#581 = EDGE_CURVE ( 'NONE', #1129, #1147, #784, .T. ) ;
#582 = EDGE_CURVE ( 'NONE', #1146, #1171, #814, .T. ) ;
#583 = EDGE_CURVE ( 'NONE', #1224, #1206, #796, .T. ) ;
#584 = EDGE_CURVE ( 'NONE', #1208, #1186, #797, .T. ) ;
#585 = EDGE_CURVE ( 'NONE', #1225, #1224, #783, .T. ) ;
#586 = EDGE_CURVE ( 'NONE', #1164, #1223, #815, .T. ) ;
#587 = EDGE_CURVE ( 'NONE', #1220, #1208, #793, .T. ) ;
#588 = EDGE_CURVE ( 'NONE', #1188, #1192, #803, .T. ) ;
#589 = EDGE_CURVE ( 'NONE', #1153, #1167, #778, .T. ) ;
#590 = EDGE_CURVE ( 'NONE', #1142, #1152, #228, .T. ) ;
#591 = EDGE_CURVE ( 'NONE', #1223, #1218, #816, .T. ) ;
#592 = EDGE_CURVE ( 'NONE', #1148, #1137, #777, .T. ) ;
#593 = EDGE_CURVE ( 'NONE', #1156, #1129, #788, .T. ) ;
#594 = EDGE_CURVE ( 'NONE', #1156, #1135, #817, .T. ) ;
#595 = EDGE_CURVE ( 'NONE', #1172, #1167, #231, .T. ) ;
#596 = EDGE_CURVE ( 'NONE', #1169, #1186, #237, .T. ) ;
#597 = EDGE_CURVE ( 'NONE', #1152, #1150, #779, .T. ) ;
#598 = EDGE_CURVE ( 'NONE', #1163, #1157, #794, .T. ) ;
#599 = EDGE_CURVE ( 'NONE', #1142, #1192, #791, .T. ) ;
#600 = EDGE_CURVE ( 'NONE', #1157, #1166, #780, .T. ) ;
#601 = EDGE_CURVE ( 'NONE', #1158, #1140, #836, .T. ) ;
#602 = EDGE_CURVE ( 'NONE', #1172, #1170, #840, .T. ) ;
#603 = EDGE_CURVE ( 'NONE', #1162, #1145, #820, .T. ) ;
#604 = EDGE_CURVE ( 'NONE', #1188, #1182, #851, .T. ) ;
#605 = EDGE_CURVE ( 'NONE', #1135, #1156, #821, .T. ) ;
#606 = EDGE_CURVE ( 'NONE', #1135, #1147, #830, .T. ) ;
#607 = EDGE_CURVE ( 'NONE', #1141, #1134, #244, .T. ) ;
#608 = EDGE_CURVE ( 'NONE', #1147, #1170, #827, .T. ) ;
#609 = EDGE_CURVE ( 'NONE', #1163, #1220, #826, .T. ) ;
#610 = EDGE_CURVE ( 'NONE', #1207, #1173, #854, .T. ) ;
#611 = EDGE_CURVE ( 'NONE', #1147, #1129, #845, .T. ) ;
#612 = EDGE_CURVE ( 'NONE', #1220, #1169, #839, .T. ) ;
#613 = EDGE_CURVE ( 'NONE', #1143, #1171, #240, .T. ) ;
#614 = EDGE_CURVE ( 'NONE', #1177, #1180, #844, .T. ) ;
#615 = EDGE_CURVE ( 'NONE', #1222, #1177, #838, .T. ) ;
#616 = EDGE_CURVE ( 'NONE', #1194, #1179, #846, .T. ) ;
#617 = EDGE_CURVE ( 'NONE', #1150, #1192, #234, .T. ) ;
#618 = EDGE_CURVE ( 'NONE', #1136, #1160, #849, .T. ) ;
#619 = EDGE_CURVE ( 'NONE', #1170, #1182, #239, .T. ) ;
#620 = EDGE_CURVE ( 'NONE', #1162, #1150, #824, .T. ) ;
#621 = EDGE_CURVE ( 'NONE', #1129, #1151, #823, .T. ) ;
#622 = EDGE_CURVE ( 'NONE', #1160, #1139, #833, .T. ) ;
#623 = AXIS2_PLACEMENT_3D ( 'NONE', #1287, #1299, #1313 ) ;
#624 = AXIS2_PLACEMENT_3D ( 'NONE', #17, #18, #14 ) ;
#625 = EDGE_CURVE ( 'NONE', #1149, #1146, #842, .T. ) ;
#626 = AXIS2_PLACEMENT_3D ( 'NONE', #22, #5, #19 ) ;
#627 = AXIS2_PLACEMENT_3D ( 'NONE', #319, #323, #326 ) ;
#628 = AXIS2_PLACEMENT_3D ( 'NONE', #70, #57, #67 ) ;
#629 = AXIS2_PLACEMENT_3D ( 'NONE', #315, #316, #317 ) ;
#630 = AXIS2_PLACEMENT_3D ( 'NONE', #329, #327, #328 ) ;
#631 = AXIS2_PLACEMENT_3D ( 'NONE', #280, #281, #275 ) ;
#632 = AXIS2_PLACEMENT_3D ( 'NONE', #13, #16, #10 ) ;
#633 = AXIS2_PLACEMENT_3D ( 'NONE', #32, #34, #51 ) ;
#634 = EDGE_CURVE ( 'NONE', #1131, #1182, #850, .T. ) ;
#635 = AXIS2_PLACEMENT_3D ( 'NONE', #282, #279, #284 ) ;
#636 = EDGE_CURVE ( 'NONE', #1227, #1223, #822, .T. ) ;
#637 = EDGE_CURVE ( 'NONE', #1226, #1221, #834, .T. ) ;
#638 = AXIS2_PLACEMENT_3D ( 'NONE', #339, #334, #340 ) ;
#639 = AXIS2_PLACEMENT_3D ( 'NONE', #208, #209, #215 ) ;
#640 = EDGE_CURVE ( 'NONE', #1207, #1179, #870, .T. ) ;
#641 = AXIS2_PLACEMENT_3D ( 'NONE', #195, #196, #184 ) ;
#642 = EDGE_CURVE ( 'NONE', #1206, #1194, #883, .T. ) ;
#643 = AXIS2_PLACEMENT_3D ( 'NONE', #41, #53, #31 ) ;
#644 = AXIS2_PLACEMENT_3D ( 'NONE', #27, #36, #37 ) ;
#645 = AXIS2_PLACEMENT_3D ( 'NONE', #331, #324, #325 ) ;
#646 = AXIS2_PLACEMENT_3D ( 'NONE', #222, #221, #224 ) ;
#647 = AXIS2_PLACEMENT_3D ( 'NONE', #213, #214, #216 ) ;
#648 = EDGE_CURVE ( 'NONE', #1180, #1174, #901, .T. ) ;
#649 = EDGE_CURVE ( 'NONE', #1175, #1189, #856, .T. ) ;
#650 = EDGE_CURVE ( 'NONE', #1226, #1225, #859, .T. ) ;
#651 = AXIS2_PLACEMENT_3D ( 'NONE', #1325, #1326, #1318 ) ;
#652 = AXIS2_PLACEMENT_3D ( 'NONE', #194, #186, #187 ) ;
#653 = EDGE_CURVE ( 'NONE', #1132, #1154, #886, .T. ) ;
#654 = AXIS2_PLACEMENT_3D ( 'NONE', #365, #362, #366 ) ;
#655 = EDGE_CURVE ( 'NONE', #1198, #1226, #899, .T. ) ;
#656 = EDGE_CURVE ( 'NONE', #1208, #1198, #895, .T. ) ;
#657 = EDGE_CURVE ( 'NONE', #1221, #1224, #897, .T. ) ;
#658 = EDGE_CURVE ( 'NONE', #1198, #1176, #857, .T. ) ;
#659 = EDGE_CURVE ( 'NONE', #1222, #1218, #880, .T. ) ;
#660 = EDGE_CURVE ( 'NONE', #1179, #1227, #862, .T. ) ;
#661 = EDGE_CURVE ( 'NONE', #1142, #1186, #872, .T. ) ;
#662 = AXIS2_PLACEMENT_3D ( 'NONE', #1329, #1327, #1320 ) ;
#663 = EDGE_CURVE ( 'NONE', #1164, #1222, #898, .T. ) ;
#664 = EDGE_CURVE ( 'NONE', #1212, #1207, #884, .T. ) ;
#665 = AXIS2_PLACEMENT_3D ( 'NONE', #1, #25, #2 ) ;
#666 = AXIS2_PLACEMENT_3D ( 'NONE', #193, #185, #188 ) ;
#667 = EDGE_CURVE ( 'NONE', #1216, #1206, #875, .T. ) ;
#668 = EDGE_CURVE ( 'NONE', #1173, #1227, #891, .T. ) ;
#669 = EDGE_CURVE ( 'NONE', #1216, #1212, #887, .T. ) ;
#670 = AXIS2_PLACEMENT_3D ( 'NONE', #1258, #1273, #1269 ) ;
#671 = AXIS2_PLACEMENT_3D ( 'NONE', #54, #29, #52 ) ;
#672 = EDGE_CURVE ( 'NONE', #1212, #1194, #892, .T. ) ;
#673 = AXIS2_PLACEMENT_3D ( 'NONE', #1252, #1262, #1245 ) ;
#674 = EDGE_CURVE ( 'NONE', #1218, #1180, #864, .T. ) ;
#675 = AXIS2_PLACEMENT_3D ( 'NONE', #59, #61, #62 ) ;
#676 = AXIS2_PLACEMENT_3D ( 'NONE', #342, #345, #361 ) ;
#677 = EDGE_CURVE ( 'NONE', #1215, #1176, #865, .T. ) ;
#678 = ADVANCED_FACE ( 'NONE', ( #878 ), #314, .F. ) ;
#679 = ADVANCED_FACE ( 'NONE', ( #879 ), #318, .F. ) ;
#680 = ADVANCED_FACE ( 'NONE', ( #882 ), #320, .F. ) ;
#681 = ADVANCED_FACE ( 'NONE', ( #885 ), #330, .F. ) ;
#682 = ADVANCED_FACE ( 'NONE', ( #867 ), #263, .F. ) ;
#683 = ADVANCED_FACE ( 'NONE', ( #890 ), #905, .F. ) ;
#684 = ADVANCED_FACE ( 'NONE', ( #906 ), #260, .F. ) ;
#685 = ADVANCED_FACE ( 'NONE', ( #932 ), #938, .F. ) ;
#686 = ADVANCED_FACE ( 'NONE', ( #903 ), #909, .F. ) ;
#687 = ADVANCED_FACE ( 'NONE', ( #934 ), #918, .F. ) ;
#688 = ADVANCED_FACE ( 'NONE', ( #908 ), #939, .F. ) ;
#689 = ADVANCED_FACE ( 'NONE', ( #940 ), #271, .F. ) ;
#690 = ADVANCED_FACE ( 'NONE', ( #916 ), #904, .F. ) ;
#691 = ADVANCED_FACE ( 'NONE', ( #919 ), #286, .F. ) ;
#692 = ADVANCED_FACE ( 'NONE', ( #902 ), #291, .F. ) ;
#693 = ADVANCED_FACE ( 'NONE', ( #929 ), #289, .F. ) ;
#694 = ADVANCED_FACE ( 'NONE', ( #910 ), #912, .F. ) ;
#695 = ADVANCED_FACE ( 'NONE', ( #911 ), #913, .F. ) ;
#696 = ADVANCED_FACE ( 'NONE', ( #915 ), #302, .F. ) ;
#697 = ADVANCED_FACE ( 'NONE', ( #917 ), #306, .F. ) ;
#698 = ADVANCED_FACE ( 'NONE', ( #907 ), #257, .F. ) ;
#699 = ADVANCED_FACE ( 'NONE', ( #928 ), #936, .F. ) ;
#700 = ADVANCED_FACE ( 'NONE', ( #930 ), #923, .F. ) ;
#701 = ADVANCED_FACE ( 'NONE', ( #927 ), #925, .F. ) ;
#702 = ADVANCED_FACE ( 'NONE', ( #914 ), #116, .F. ) ;
#703 = ADVANCED_FACE ( 'NONE', ( #922 ), #926, .F. ) ;
#704 = ADVANCED_FACE ( 'NONE', ( #931 ), #135, .F. ) ;
#705 = ADVANCED_FACE ( 'NONE', ( #920 ), #127, .F. ) ;
#706 = ADVANCED_FACE ( 'NONE', ( #937 ), #963, .F. ) ;
#707 = ADVANCED_FACE ( 'NONE', ( #924, #980, #933, #921, #935 ), #122, .F. ) ;
#708 = ADVANCED_FACE ( 'NONE', ( #982 ), #74, .F. ) ;
#709 = ADVANCED_FACE ( 'NONE', ( #949 ), #953, .F. ) ;
#710 = ADVANCED_FACE ( 'NONE', ( #983 ), #974, .F. ) ;
#711 = ADVANCED_FACE ( 'NONE', ( #950 ), #111, .F. ) ;
#712 = ADVANCED_FACE ( 'NONE', ( #948 ), #957, .F. ) ;
#713 = ADVANCED_FACE ( 'NONE', ( #967 ), #85, .T. ) ;
#714 = ADVANCED_FACE ( 'NONE', ( #966 ), #109, .F. ) ;
#715 = ADVANCED_FACE ( 'NONE', ( #968 ), #108, .F. ) ;
#716 = ADVANCED_FACE ( 'NONE', ( #954 ), #91, .F. ) ;
#717 = APPROVAL_ROLE ( '' ) ;
#718 = CARTESIAN_POINT ( 'NONE',  ( 0.5000000000000001100, 0.0000000000000000000, -60.00000000000000000 ) ) ;
#719 = CARTESIAN_POINT ( 'NONE',  ( 6.735557395310427200E-016, 0.5000000000000113200, 60.00000000000000000 ) ) ;
#720 = CARTESIAN_POINT ( 'NONE',  ( -5.000000000000066600, 5.999999999999998200, 60.00000000000000000 ) ) ;
#721 = CARTESIAN_POINT ( 'NONE',  ( 7.999999999999998200, 1.700000000000000400, 60.00000000000000000 ) ) ;
#722 = CARTESIAN_POINT ( 'NONE',  ( -3.949999999999998800, 1.699999999999999700, 60.00000000000000000 ) ) ;
#723 = CARTESIAN_POINT ( 'NONE',  ( -7.999999999999998200, 1.699999999999998400, -60.00000000000000000 ) ) ;
#724 = CARTESIAN_POINT ( 'NONE',  ( 3.950000000000000200, 1.700000000000000600, 60.00000000000000000 ) ) ;
#725 = CARTESIAN_POINT ( 'NONE',  ( 0.5000000000000001100, 0.0000000000000000000, 55.48339152643430300 ) ) ;
#726 = CARTESIAN_POINT ( 'NONE',  ( 0.5000000000000001100, 0.0000000000000000000, 60.00000000000000000 ) ) ;
#727 = CARTESIAN_POINT ( 'NONE',  ( 3.950000000000000200, 5.449678256205722800E-016, 60.00000000000000000 ) ) ;
#728 = CARTESIAN_POINT ( 'NONE',  ( -3.949999999999998800, 1.699999999999999700, -60.00000000000000000 ) ) ;
#729 = CARTESIAN_POINT ( 'NONE',  ( 7.999999999999998200, 1.700000000000000400, -60.00000000000000000 ) ) ;
#730 = CARTESIAN_POINT ( 'NONE',  ( -7.999999999999998200, 2.999999999999996000, -60.00000000000000000 ) ) ;
#731 = CARTESIAN_POINT ( 'NONE',  ( 0.5000000000000001100, 0.0000000000000000000, -49.51660847356569700 ) ) ;
#732 = CARTESIAN_POINT ( 'NONE',  ( 7.999999999999998200, 2.999999999999998200, -60.00000000000000000 ) ) ;
#733 = CARTESIAN_POINT ( 'NONE',  ( 5.000000000000064800, 5.999999999999999100, 60.00000000000000000 ) ) ;
#734 = CARTESIAN_POINT ( 'NONE',  ( 3.950000000000000200, 1.700000000000000600, -60.00000000000000000 ) ) ;
#735 =( LENGTH_UNIT ( ) NAMED_UNIT ( * ) SI_UNIT ( .MILLI., .METRE. ) );
#736 = CARTESIAN_POINT ( 'NONE',  ( 0.5000000000000001100, 0.0000000000000000000, 14.51660847356569800 ) ) ;
#737 = CARTESIAN_POINT ( 'NONE',  ( 0.5000000000000001100, 0.0000000000000000000, 20.48339152643430300 ) ) ;
#738 = CARTESIAN_POINT ( 'NONE',  ( 6.735557395310427200E-016, 0.5000000000000113200, -60.00000000000000000 ) ) ;
#739 = CARTESIAN_POINT ( 'NONE',  ( 5.000000000000064800, 5.999999999999999100, -60.00000000000000000 ) ) ;
#740 = CARTESIAN_POINT ( 'NONE',  ( 7.999999999999998200, 2.999999999999998200, 60.00000000000000000 ) ) ;
#741 = CARTESIAN_POINT ( 'NONE',  ( -0.5000000000000001100, 0.0000000000000000000, 55.48339152643430300 ) ) ;
#742 = CARTESIAN_POINT ( 'NONE',  ( 0.5000000000000001100, 0.0000000000000000000, -55.48339152643431000 ) ) ;
#743 = CARTESIAN_POINT ( 'NONE',  ( -0.5000000000000001100, 0.0000000000000000000, 60.00000000000000000 ) ) ;
#744 = CARTESIAN_POINT ( 'NONE',  ( -0.5000000000000000000, 0.0000000000000000000, 20.48339152643430700 ) ) ;
#745 = CARTESIAN_POINT ( 'NONE',  ( -7.999999999999998200, 1.699999999999998400, 60.00000000000000000 ) ) ;
#746 = CARTESIAN_POINT ( 'NONE',  ( -0.5000000000000001100, 0.0000000000000000000, -49.51660847356570400 ) ) ;
#747 = CARTESIAN_POINT ( 'NONE',  ( 1.088773027551527200E-015, 0.5000000000000108800, -20.02499999999999100 ) ) ;
#748 = CARTESIAN_POINT ( 'NONE',  ( -3.274399379220238400E-015, 0.5249999999999994700, 20.00000000000000000 ) ) ;
#749 = CARTESIAN_POINT ( 'NONE',  ( -0.5000000000000001100, 0.0000000000000000000, -14.51660847356569800 ) ) ;
#750 = CARTESIAN_POINT ( 'NONE',  ( 6.735557395310427200E-016, 0.5000000000000113200, -49.97500000000002300 ) ) ;
#751 = CARTESIAN_POINT ( 'NONE',  ( 5.149163960057139900E-016, 0.5000000000000114400, 14.97500000000001400 ) ) ;
#752 = CARTESIAN_POINT ( 'NONE',  ( 1.094973684494840100E-015, 0.5000000000000108800, -14.97500000000001200 ) ) ;
#753 = CARTESIAN_POINT ( 'NONE',  ( -0.5000000000000001100, 0.0000000000000000000, -60.00000000000000000 ) ) ;
#754 = CARTESIAN_POINT ( 'NONE',  ( -5.000000000000066600, 5.999999999999998200, -60.00000000000000000 ) ) ;
#755 = CARTESIAN_POINT ( 'NONE',  ( 0.5000000000000001100, 0.0000000000000000000, -14.51660847356569800 ) ) ;
#756 = CARTESIAN_POINT ( 'NONE',  ( -0.5000000000000007800, 0.0000000000000000000, 49.51660847356570400 ) ) ;
#757 = CARTESIAN_POINT ( 'NONE',  ( -6.952541905800561700E-017, 0.5000000000000119900, 55.02499999999999100 ) ) ;
#758 = CARTESIAN_POINT ( 'NONE',  ( 1.353234713057825300E-014, 0.5249999999999994700, -55.00000000000000700 ) ) ;
#759 = CARTESIAN_POINT ( 'NONE',  ( -5.455571098498969900E-017, 0.5000000000000119900, 49.97500000000002300 ) ) ;
#760 = CARTESIAN_POINT ( 'NONE',  ( -3.306546357697856500E-015, 5.999999999999998200, 20.00000000000000000 ) ) ;
#761 = CARTESIAN_POINT ( 'NONE',  ( -3.612708057484694800E-015, 0.5249999999999994700, 15.00000000000000400 ) ) ;
#762 = CARTESIAN_POINT ( 'NONE',  ( -0.5000000000000000000, 0.0000000000000000000, 14.51660847356569700 ) ) ;
#763 = CARTESIAN_POINT ( 'NONE',  ( 6.735557395310427200E-016, 5.999999999999998200, -20.00000000000000000 ) ) ;
#764 = CARTESIAN_POINT ( 'NONE',  ( 1.011864417795499200E-015, 0.5249999999999994700, -15.00000000000000200 ) ) ;
#765 = CARTESIAN_POINT ( 'NONE',  ( 9.797174393178805900E-016, 5.999999999999998200, 55.00000000000000700 ) ) ;
#766 = CARTESIAN_POINT ( 'NONE',  ( -7.999999999999998200, 2.999999999999996000, 60.00000000000000000 ) ) ;
#767 = CARTESIAN_POINT ( 'NONE',  ( 3.950000000000000200, 5.449678256205722800E-016, -60.00000000000000000 ) ) ;
#768 = CARTESIAN_POINT ( 'NONE',  ( -3.949999999999998800, -4.225031457058366400E-016, 60.00000000000000000 ) ) ;
#769 = CARTESIAN_POINT ( 'NONE',  ( 1.103742737644027000E-015, 0.5000000000000108800, 20.02499999999999100 ) ) ;
#770 = CARTESIAN_POINT ( 'NONE',  ( 1.353234713057825300E-014, 5.999999999999998200, -55.00000000000000700 ) ) ;
#771 = CARTESIAN_POINT ( 'NONE',  ( 6.735557395310427200E-016, 0.5249999999999994700, 50.00000000000000000 ) ) ;
#772 = CARTESIAN_POINT ( 'NONE',  ( -3.949999999999998800, -4.225031457058366400E-016, -60.00000000000000000 ) ) ;
#773 = CARTESIAN_POINT ( 'NONE',  ( 0.5000000000000001100, 0.0000000000000000000, 49.51660847356570400 ) ) ;
#774 = CARTESIAN_POINT ( 'NONE',  ( 1.387065580884270800E-014, 0.5249999999999994700, -50.00000000000000000 ) ) ;
#775 = LINE ( 'NONE', #1266, #807 ) ;
#776 = CIRCLE ( 'NONE', #644, 2.500000000000002200 ) ;
#777 = CIRCLE ( 'NONE', #624, 2.500000000000002200 ) ;
#778 = CIRCLE ( 'NONE', #675, 3.024999999999999900 ) ;
#779 = LINE ( 'NONE', #21, #786 ) ;
#780 = CIRCLE ( 'NONE', #665, 3.024999999999999900 ) ;
#781 = VECTOR ( 'NONE', #45, 1000.000000000000000 ) ;
#782 = VECTOR ( 'NONE', #43, 1000.000000000000000 ) ;
#783 = LINE ( 'NONE', #47, #785 ) ;
#784 = CIRCLE ( 'NONE', #643, 2.499999999999998700 ) ;
#785 = VECTOR ( 'NONE', #44, 1000.000000000000000 ) ;
#786 = VECTOR ( 'NONE', #11, 1000.000000000000000 ) ;
#787 = VECTOR ( 'NONE', #40, 1000.000000000000000 ) ;
#788 = LINE ( 'NONE', #64, #799 ) ;
#789 = LINE ( 'NONE', #1261, #809 ) ;
#790 = VECTOR ( 'NONE', #38, 1000.000000000000000 ) ;
#791 = LINE ( 'NONE', #15, #805 ) ;
#792 = LINE ( 'NONE', #35, #790 ) ;
#793 = LINE ( 'NONE', #46, #819 ) ;
#794 = LINE ( 'NONE', #12, #808 ) ;
#795 = LINE ( 'NONE', #1267, #813 ) ;
#796 = LINE ( 'NONE', #33, #787 ) ;
#797 = LINE ( 'NONE', #42, #782 ) ;
#798 = VECTOR ( 'NONE', #63, 1000.000000000000000 ) ;
#799 = VECTOR ( 'NONE', #69, 1000.000000000000000 ) ;
#800 = LINE ( 'NONE', #1275, #811 ) ;
#801 = VECTOR ( 'NONE', #30, 999.9999999999998900 ) ;
#802 = CIRCLE ( 'NONE', #673, 2.500000000000002200 ) ;
#803 = CIRCLE ( 'NONE', #628, 3.024999999999999900 ) ;
#804 = CIRCLE ( 'NONE', #670, 2.500000000000002200 ) ;
#805 = VECTOR ( 'NONE', #9, 1000.000000000000000 ) ;
#806 = VECTOR ( 'NONE', #1246, 999.9999999999998900 ) ;
#807 = VECTOR ( 'NONE', #1271, 1000.000000000000000 ) ;
#808 = VECTOR ( 'NONE', #7, 1000.000000000000000 ) ;
#809 = VECTOR ( 'NONE', #1272, 999.9999999999998900 ) ;
#810 = CIRCLE ( 'NONE', #633, 2.500000000000002200 ) ;
#811 = VECTOR ( 'NONE', #1280, 1000.000000000000000 ) ;
#812 = CIRCLE ( 'NONE', #671, 2.499999999999998700 ) ;
#813 = VECTOR ( 'NONE', #1242, 1000.000000000000000 ) ;
#814 = LINE ( 'NONE', #50, #801 ) ;
#815 = LINE ( 'NONE', #48, #781 ) ;
#816 = LINE ( 'NONE', #60, #798 ) ;
#817 = CIRCLE ( 'NONE', #626, 2.499999999999998700 ) ;
#818 = LINE ( 'NONE', #1274, #806 ) ;
#819 = VECTOR ( 'NONE', #58, 999.9999999999998900 ) ;
#820 = CIRCLE ( 'NONE', #639, 2.499999999999998700 ) ;
#821 = CIRCLE ( 'NONE', #647, 2.499999999999998700 ) ;
#822 = LINE ( 'NONE', #189, #843 ) ;
#823 = LINE ( 'NONE', #182, #825 ) ;
#824 = LINE ( 'NONE', #177, #828 ) ;
#825 = VECTOR ( 'NONE', #183, 999.9999999999998900 ) ;
#826 = LINE ( 'NONE', #211, #841 ) ;
#827 = LINE ( 'NONE', #201, #837 ) ;
#828 = VECTOR ( 'NONE', #181, 999.9999999999998900 ) ;
#829 = VECTOR ( 'NONE', #206, 1000.000000000000000 ) ;
#830 = LINE ( 'NONE', #205, #829 ) ;
#831 = VECTOR ( 'NONE', #169, 1000.000000000000000 ) ;
#832 = VECTOR ( 'NONE', #180, 1000.000000000000000 ) ;
#833 = CIRCLE ( 'NONE', #652, 2.500000000000002200 ) ;
#834 = LINE ( 'NONE', #337, #868 ) ;
#835 = VECTOR ( 'NONE', #203, 1000.000000000000000 ) ;
#836 = CIRCLE ( 'NONE', #632, 3.024999999999999900 ) ;
#837 = VECTOR ( 'NONE', #200, 999.9999999999998900 ) ;
#838 = LINE ( 'NONE', #165, #831 ) ;
#839 = LINE ( 'NONE', #204, #852 ) ;
#840 = LINE ( 'NONE', #212, #855 ) ;
#841 = VECTOR ( 'NONE', #197, 1000.000000000000100 ) ;
#842 = CIRCLE ( 'NONE', #666, 2.500000000000002200 ) ;
#843 = VECTOR ( 'NONE', #191, 1000.000000000000000 ) ;
#844 = LINE ( 'NONE', #167, #853 ) ;
#845 = CIRCLE ( 'NONE', #646, 2.499999999999998700 ) ;
#846 = LINE ( 'NONE', #170, #847 ) ;
#847 = VECTOR ( 'NONE', #175, 1000.000000000000000 ) ;
#848 = VECTOR ( 'NONE', #202, 1000.000000000000000 ) ;
#849 = LINE ( 'NONE', #174, #832 ) ;
#850 = CIRCLE ( 'NONE', #641, 3.024999999999999900 ) ;
#851 = LINE ( 'NONE', #198, #848 ) ;
#852 = VECTOR ( 'NONE', #220, 1000.000000000000000 ) ;
#853 = VECTOR ( 'NONE', #168, 1000.000000000000000 ) ;
#854 = LINE ( 'NONE', #199, #835 ) ;
#855 = VECTOR ( 'NONE', #217, 1000.000000000000000 ) ;
#856 = CIRCLE ( 'NONE', #638, 3.024999999999999900 ) ;
#857 = LINE ( 'NONE', #346, #871 ) ;
#858 = VECTOR ( 'NONE', #356, 1000.000000000000000 ) ;
#859 = LINE ( 'NONE', #352, #893 ) ;
#860 = VECTOR ( 'NONE', #347, 1000.000000000000000 ) ;
#861 = VECTOR ( 'NONE', #363, 1000.000000000000000 ) ;
#862 = LINE ( 'NONE', #359, #888 ) ;
#863 = VECTOR ( 'NONE', #370, 1000.000000000000000 ) ;
#864 = LINE ( 'NONE', #373, #866 ) ;
#865 = LINE ( 'NONE', #321, #889 ) ;
#866 = VECTOR ( 'NONE', #313, 1000.000000000000000 ) ;
#867 = FACE_OUTER_BOUND ( 'NONE', #1095, .T. ) ;
#868 = VECTOR ( 'NONE', #333, 1000.000000000000000 ) ;
#869 = VECTOR ( 'NONE', #349, 1000.000000000000000 ) ;
#870 = LINE ( 'NONE', #332, #881 ) ;
#871 = VECTOR ( 'NONE', #351, 1000.000000000000000 ) ;
#872 = CIRCLE ( 'NONE', #654, 3.024999999999999900 ) ;
#873 = VECTOR ( 'NONE', #375, 1000.000000000000000 ) ;
#874 = VECTOR ( 'NONE', #353, 1000.000000000000100 ) ;
#875 = LINE ( 'NONE', #364, #873 ) ;
#876 = VECTOR ( 'NONE', #368, 1000.000000000000100 ) ;
#877 = VECTOR ( 'NONE', #374, 1000.000000000000000 ) ;
#878 = FACE_OUTER_BOUND ( 'NONE', #1104, .T. ) ;
#879 = FACE_OUTER_BOUND ( 'NONE', #1091, .T. ) ;
#880 = LINE ( 'NONE', #348, #858 ) ;
#881 = VECTOR ( 'NONE', #341, 1000.000000000000000 ) ;
#882 = FACE_OUTER_BOUND ( 'NONE', #1096, .T. ) ;
#883 = LINE ( 'NONE', #354, #874 ) ;
#884 = LINE ( 'NONE', #367, #861 ) ;
#885 = FACE_OUTER_BOUND ( 'NONE', #1144, .T. ) ;
#886 = CIRCLE ( 'NONE', #676, 2.499999999999998700 ) ;
#887 = LINE ( 'NONE', #371, #876 ) ;
#888 = VECTOR ( 'NONE', #360, 1000.000000000000000 ) ;
#889 = VECTOR ( 'NONE', #322, 1000.000000000000000 ) ;
#890 = FACE_OUTER_BOUND ( 'NONE', #1101, .T. ) ;
#891 = LINE ( 'NONE', #369, #863 ) ;
#892 = LINE ( 'NONE', #372, #877 ) ;
#893 = VECTOR ( 'NONE', #335, 1000.000000000000000 ) ;
#894 = VECTOR ( 'NONE', #336, 1000.000000000000000 ) ;
#895 = LINE ( 'NONE', #350, #896 ) ;
#896 = VECTOR ( 'NONE', #343, 1000.000000000000000 ) ;
#897 = LINE ( 'NONE', #344, #900 ) ;
#898 = LINE ( 'NONE', #357, #860 ) ;
#899 = LINE ( 'NONE', #358, #894 ) ;
#900 = VECTOR ( 'NONE', #355, 1000.000000000000000 ) ;
#901 = LINE ( 'NONE', #338, #869 ) ;
#902 = FACE_OUTER_BOUND ( 'NONE', #1074, .T. ) ;
#903 = FACE_OUTER_BOUND ( 'NONE', #1155, .T. ) ;
#904 = CONICAL_SURFACE ( 'NONE', #503, 3.024999999999999900, 0.7853981633974491700 ) ;
#905 = CYLINDRICAL_SURFACE ( 'NONE', #494, 2.500000000000002200 ) ;
#906 = FACE_OUTER_BOUND ( 'NONE', #1122, .T. ) ;
#907 = FACE_OUTER_BOUND ( 'NONE', #1105, .T. ) ;
#908 = FACE_OUTER_BOUND ( 'NONE', #1123, .T. ) ;
#909 = CONICAL_SURFACE ( 'NONE', #529, 3.024999999999999900, 0.7853981633974491700 ) ;
#910 = FACE_OUTER_BOUND ( 'NONE', #1133, .T. ) ;
#911 = FACE_OUTER_BOUND ( 'NONE', #1121, .T. ) ;
#912 = CYLINDRICAL_SURFACE ( 'NONE', #505, 2.500000000000002200 ) ;
#913 = CYLINDRICAL_SURFACE ( 'NONE', #525, 2.500000000000002200 ) ;
#914 = FACE_OUTER_BOUND ( 'NONE', #1124, .T. ) ;
#915 = FACE_OUTER_BOUND ( 'NONE', #1138, .T. ) ;
#916 = FACE_OUTER_BOUND ( 'NONE', #1086, .T. ) ;
#917 = FACE_OUTER_BOUND ( 'NONE', #1072, .T. ) ;
#918 = CONICAL_SURFACE ( 'NONE', #500, 3.024999999999999900, 0.7853981633974491700 ) ;
#919 = FACE_OUTER_BOUND ( 'NONE', #1098, .T. ) ;
#920 = FACE_OUTER_BOUND ( 'NONE', #1100, .T. ) ;
#921 = FACE_BOUND ( 'NONE', #1127, .T. ) ;
#922 = FACE_OUTER_BOUND ( 'NONE', #1165, .T. ) ;
#923 = CYLINDRICAL_SURFACE ( 'NONE', #521, 2.499999999999998700 ) ;
#924 = FACE_BOUND ( 'NONE', #1071, .T. ) ;
#925 = CONICAL_SURFACE ( 'NONE', #490, 3.024999999999999900, 0.7853981633974491700 ) ;
#926 = CYLINDRICAL_SURFACE ( 'NONE', #524, 2.500000000000002200 ) ;
#927 = FACE_OUTER_BOUND ( 'NONE', #1094, .T. ) ;
#928 = FACE_OUTER_BOUND ( 'NONE', #1079, .T. ) ;
#929 = FACE_OUTER_BOUND ( 'NONE', #1089, .T. ) ;
#930 = FACE_OUTER_BOUND ( 'NONE', #1161, .T. ) ;
#931 = FACE_OUTER_BOUND ( 'NONE', #1092, .T. ) ;
#932 = FACE_OUTER_BOUND ( 'NONE', #1130, .T. ) ;
#933 = FACE_BOUND ( 'NONE', #1090, .T. ) ;
#934 = FACE_OUTER_BOUND ( 'NONE', #1099, .T. ) ;
#935 = FACE_OUTER_BOUND ( 'NONE', #1114, .T. ) ;
#936 = CONICAL_SURFACE ( 'NONE', #527, 3.024999999999999900, 0.7853981633974491700 ) ;
#937 = FACE_OUTER_BOUND ( 'NONE', #1159, .T. ) ;
#938 = CONICAL_SURFACE ( 'NONE', #635, 3.024999999999999900, 0.7853981633974491700 ) ;
#939 = CONICAL_SURFACE ( 'NONE', #515, 3.024999999999999900, 0.7853981633974491700 ) ;
#940 = FACE_OUTER_BOUND ( 'NONE', #1087, .T. ) ;
#941 = PERSON_AND_ORGANIZATION ( #163, #975 ) ;
#942 = COORDINATED_UNIVERSAL_TIME_OFFSET ( 1, 0, .AHEAD. ) ;
#943 = LOCAL_TIME ( 15, 23, 28.00000000000000000, #942 ) ;
#944 = CALENDAR_DATE ( 2017, 18, 3 ) ;
#945 = APPROVAL_DATE_TIME ( #969, #511 ) ;
#946 = APPROVAL_PERSON_ORGANIZATION ( #941, #537, #717 ) ;
#947 = SHAPE_DEFINITION_REPRESENTATION ( #312, #229 ) ;
#948 = FACE_OUTER_BOUND ( 'NONE', #1097, .T. ) ;
#949 = FACE_OUTER_BOUND ( 'NONE', #1118, .T. ) ;
#950 = FACE_OUTER_BOUND ( 'NONE', #1103, .T. ) ;
#951 = PERSON_AND_ORGANIZATION ( #163, #975 ) ;
#952 = COORDINATED_UNIVERSAL_TIME_OFFSET ( 1, 0, .AHEAD. ) ;
#953 = CYLINDRICAL_SURFACE ( 'NONE', #493, 2.499999999999998700 ) ;
#954 = FACE_OUTER_BOUND ( 'NONE', #1084, .T. ) ;
#955 = LOCAL_TIME ( 15, 23, 28.00000000000000000, #952 ) ;
#956 = CALENDAR_DATE ( 2017, 18, 3 ) ;
#957 = CYLINDRICAL_SURFACE ( 'NONE', #488, 2.499999999999998700 ) ;
#958 = LOCAL_TIME ( 15, 23, 28.00000000000000000, #970 ) ;
#959 = DATE_AND_TIME ( #971, #958 ) ;
#960 = PERSON_AND_ORGANIZATION ( #163, #975 ) ;
#961 = PERSON_AND_ORGANIZATION ( #163, #975 ) ;
#962 = PERSON_AND_ORGANIZATION ( #163, #975 ) ;
#963 = CYLINDRICAL_SURFACE ( 'NONE', #502, 2.499999999999998700 ) ;
#964 = COORDINATED_UNIVERSAL_TIME_OFFSET ( 1, 0, .AHEAD. ) ;
#965 = LOCAL_TIME ( 15, 23, 28.00000000000000000, #964 ) ;
#966 = FACE_OUTER_BOUND ( 'NONE', #1115, .T. ) ;
#967 = FACE_OUTER_BOUND ( 'NONE', #1102, .T. ) ;
#968 = FACE_OUTER_BOUND ( 'NONE', #1082, .T. ) ;
#969 = DATE_AND_TIME ( #956, #955 ) ;
#970 = COORDINATED_UNIVERSAL_TIME_OFFSET ( 1, 0, .AHEAD. ) ;
#971 = CALENDAR_DATE ( 2017, 18, 3 ) ;
#972 = PERSON_AND_ORGANIZATION ( #163, #975 ) ;
#973 = PERSON_AND_ORGANIZATION ( #163, #975 ) ;
#974 = CONICAL_SURFACE ( 'NONE', #516, 3.024999999999999900, 0.7853981633974491700 ) ;
#975 = ORGANIZATION ( 'UNSPECIFIED', 'UNSPECIFIED', '' ) ;
#976 = DATE_AND_TIME ( #977, #965 ) ;
#977 = CALENDAR_DATE ( 2017, 18, 3 ) ;
#978 = APPROVAL_DATE_TIME ( #976, #522 ) ;
#979 = COORDINATED_UNIVERSAL_TIME_OFFSET ( 1, 0, .AHEAD. ) ;
#980 = FACE_BOUND ( 'NONE', #1075, .T. ) ;
#981 = APPROVAL_PERSON_ORGANIZATION ( #951, #511, #159 ) ;
#982 = FACE_OUTER_BOUND ( 'NONE', #1088, .T. ) ;
#983 = FACE_OUTER_BOUND ( 'NONE', #1070, .T. ) ;
#984 = APPROVAL_PERSON_ORGANIZATION ( #960, #522, #139 ) ;
#985 = PERSON_AND_ORGANIZATION ( #163, #975 ) ;
#986 = LOCAL_TIME ( 15, 23, 28.00000000000000000, #979 ) ;
#987 = CALENDAR_DATE ( 2017, 18, 3 ) ;
#988 = DATE_AND_TIME ( #987, #986 ) ;
#989 = DATE_AND_TIME ( #944, #943 ) ;
#990 = APPROVAL_DATE_TIME ( #989, #537 ) ;
#991 = ORIENTED_EDGE ( 'NONE', *, *, #616, .T. ) ;
#992 = ORIENTED_EDGE ( 'NONE', *, *, #592, .T. ) ;
#993 = ORIENTED_EDGE ( 'NONE', *, *, #614, .F. ) ;
#994 = ORIENTED_EDGE ( 'NONE', *, *, #586, .T. ) ;
#995 = ORIENTED_EDGE ( 'NONE', *, *, #672, .T. ) ;
#996 = ORIENTED_EDGE ( 'NONE', *, *, #577, .F. ) ;
#997 = ORIENTED_EDGE ( 'NONE', *, *, #594, .T. ) ;
#998 = ORIENTED_EDGE ( 'NONE', *, *, #563, .F. ) ;
#999 = ORIENTED_EDGE ( 'NONE', *, *, #569, .T. ) ;
#1000 = ORIENTED_EDGE ( 'NONE', *, *, #568, .T. ) ;
#1001 = ORIENTED_EDGE ( 'NONE', *, *, #640, .F. ) ;
#1002 = ORIENTED_EDGE ( 'NONE', *, *, #655, .T. ) ;
#1003 = ORIENTED_EDGE ( 'NONE', *, *, #637, .T. ) ;
#1004 = ORIENTED_EDGE ( 'NONE', *, *, #601, .F. ) ;
#1005 = ORIENTED_EDGE ( 'NONE', *, *, #615, .T. ) ;
#1006 = ORIENTED_EDGE ( 'NONE', *, *, #600, .F. ) ;
#1007 = ORIENTED_EDGE ( 'NONE', *, *, #554, .F. ) ;
#1008 = ORIENTED_EDGE ( 'NONE', *, *, #578, .T. ) ;
#1009 = ORIENTED_EDGE ( 'NONE', *, *, #605, .T. ) ;
#1010 = ORIENTED_EDGE ( 'NONE', *, *, #615, .F. ) ;
#1011 = ORIENTED_EDGE ( 'NONE', *, *, #610, .F. ) ;
#1012 = ORIENTED_EDGE ( 'NONE', *, *, #659, .T. ) ;
#1013 = ORIENTED_EDGE ( 'NONE', *, *, #609, .T. ) ;
#1014 = ORIENTED_EDGE ( 'NONE', *, *, #674, .T. ) ;
#1015 = ORIENTED_EDGE ( 'NONE', *, *, #553, .F. ) ;
#1016 = ORIENTED_EDGE ( 'NONE', *, *, #589, .F. ) ;
#1017 = ORIENTED_EDGE ( 'NONE', *, *, #558, .T. ) ;
#1018 = ORIENTED_EDGE ( 'NONE', *, *, #586, .F. ) ;
#1019 = ORIENTED_EDGE ( 'NONE', *, *, #663, .F. ) ;
#1020 = ORIENTED_EDGE ( 'NONE', *, *, #567, .F. ) ;
#1021 = ORIENTED_EDGE ( 'NONE', *, *, #667, .T. ) ;
#1022 = ORIENTED_EDGE ( 'NONE', *, *, #659, .F. ) ;
#1023 = ORIENTED_EDGE ( 'NONE', *, *, #660, .T. ) ;
#1024 = ORIENTED_EDGE ( 'NONE', *, *, #668, .T. ) ;
#1025 = ORIENTED_EDGE ( 'NONE', *, *, #653, .T. ) ;
#1026 = ORIENTED_EDGE ( 'NONE', *, *, #563, .T. ) ;
#1027 = ORIENTED_EDGE ( 'NONE', *, *, #614, .T. ) ;
#1028 = ORIENTED_EDGE ( 'NONE', *, *, #565, .F. ) ;
#1029 = ORIENTED_EDGE ( 'NONE', *, *, #570, .F. ) ;
#1030 = ORIENTED_EDGE ( 'NONE', *, *, #653, .F. ) ;
#1031 = ORIENTED_EDGE ( 'NONE', *, *, #551, .F. ) ;
#1032 = ORIENTED_EDGE ( 'NONE', *, *, #677, .F. ) ;
#1033 = ORIENTED_EDGE ( 'NONE', *, *, #559, .F. ) ;
#1034 = ORIENTED_EDGE ( 'NONE', *, *, #642, .F. ) ;
#1035 = ORIENTED_EDGE ( 'NONE', *, *, #580, .T. ) ;
#1036 = ORIENTED_EDGE ( 'NONE', *, *, #616, .F. ) ;
#1037 = ORIENTED_EDGE ( 'NONE', *, *, #648, .F. ) ;
#1038 = ORIENTED_EDGE ( 'NONE', *, *, #620, .F. ) ;
#1039 = ORIENTED_EDGE ( 'NONE', *, *, #583, .F. ) ;
#1040 = ORIENTED_EDGE ( 'NONE', *, *, #598, .F. ) ;
#1041 = ORIENTED_EDGE ( 'NONE', *, *, #572, .T. ) ;
#1042 = ORIENTED_EDGE ( 'NONE', *, *, #574, .F. ) ;
#1043 = ORIENTED_EDGE ( 'NONE', *, *, #591, .F. ) ;
#1044 = ORIENTED_EDGE ( 'NONE', *, *, #582, .F. ) ;
#1045 = ORIENTED_EDGE ( 'NONE', *, *, #610, .T. ) ;
#1046 = ORIENTED_EDGE ( 'NONE', *, *, #577, .T. ) ;
#1047 = ORIENTED_EDGE ( 'NONE', *, *, #656, .T. ) ;
#1048 = ORIENTED_EDGE ( 'NONE', *, *, #555, .F. ) ;
#1049 = ORIENTED_EDGE ( 'NONE', *, *, #552, .T. ) ;
#1050 = ORIENTED_EDGE ( 'NONE', *, *, #580, .F. ) ;
#1051 = ORIENTED_EDGE ( 'NONE', *, *, #663, .T. ) ;
#1052 = ORIENTED_EDGE ( 'NONE', *, *, #648, .T. ) ;
#1053 = ORIENTED_EDGE ( 'NONE', *, *, #561, .F. ) ;
#1054 = ORIENTED_EDGE ( 'NONE', *, *, #564, .T. ) ;
#1055 = ORIENTED_EDGE ( 'NONE', *, *, #634, .T. ) ;
#1056 = ORIENTED_EDGE ( 'NONE', *, *, #619, .F. ) ;
#1057 = ORIENTED_EDGE ( 'NONE', *, *, #625, .F. ) ;
#1058 = ORIENTED_EDGE ( 'NONE', *, *, #617, .F. ) ;
#1059 = ORIENTED_EDGE ( 'NONE', *, *, #585, .F. ) ;
#1060 = ORIENTED_EDGE ( 'NONE', *, *, #588, .T. ) ;
#1061 = ORIENTED_EDGE ( 'NONE', *, *, #621, .T. ) ;
#1062 = ORIENTED_EDGE ( 'NONE', *, *, #544, .F. ) ;
#1063 = ORIENTED_EDGE ( 'NONE', *, *, #587, .T. ) ;
#1064 = ORIENTED_EDGE ( 'NONE', *, *, #660, .F. ) ;
#1065 = ORIENTED_EDGE ( 'NONE', *, *, #664, .T. ) ;
#1066 = ORIENTED_EDGE ( 'NONE', *, *, #636, .F. ) ;
#1067 = ORIENTED_EDGE ( 'NONE', *, *, #669, .T. ) ;
#1068 = ORIENTED_EDGE ( 'NONE', *, *, #674, .F. ) ;
#1069 = ORIENTED_EDGE ( 'NONE', *, *, #541, .T. ) ;
#1070 = EDGE_LOOP ( 'NONE', ( #387, #410, #414, #394, #411, #415 ) ) ;
#1071 = EDGE_LOOP ( 'NONE', ( #997, #1009 ) ) ;
#1072 = EDGE_LOOP ( 'NONE', ( #473, #463, #439, #447 ) ) ;
#1073 = ORIENTED_EDGE ( 'NONE', *, *, #622, .F. ) ;
#1074 = EDGE_LOOP ( 'NONE', ( #446, #450, #457, #459 ) ) ;
#1075 = EDGE_LOOP ( 'NONE', ( #1008, #999 ) ) ;
#1076 = ORIENTED_EDGE ( 'NONE', *, *, #566, .F. ) ;
#1077 = CLOSED_SHELL ( 'NONE', ( #709, #710, #683, #699, #695, #688, #712, #690, #691, #711, #716, #697, #715, #689, #704, #678, #692, #705, #714, #702, #680, #708, #684, #707, #679, #693, #698, #681, #696, #682, #713, #687, #706, #686, #703, #701, #694, #685, #700 ) ) ;
#1078 = ORIENTED_EDGE ( 'NONE', *, *, #581, .F. ) ;
#1079 = EDGE_LOOP ( 'NONE', ( #405, #395, #428, #416, #434, #402 ) ) ;
#1080 = ORIENTED_EDGE ( 'NONE', *, *, #622, .T. ) ;
#1081 = ORIENTED_EDGE ( 'NONE', *, *, #649, .T. ) ;
#1082 = EDGE_LOOP ( 'NONE', ( #469, #479, #461, #445 ) ) ;
#1083 = ORIENTED_EDGE ( 'NONE', *, *, #606, .F. ) ;
#1084 = EDGE_LOOP ( 'NONE', ( #420, #407, #462, #467 ) ) ;
#1085 = ORIENTED_EDGE ( 'NONE', *, *, #545, .F. ) ;
#1086 = EDGE_LOOP ( 'NONE', ( #432, #397, #424, #412, #436, #421 ) ) ;
#1087 = EDGE_LOOP ( 'NONE', ( #379, #456, #451, #443 ) ) ;
#1088 = EDGE_LOOP ( 'NONE', ( #484, #454, #476, #487 ) ) ;
#1089 = EDGE_LOOP ( 'NONE', ( #385, #1018, #998, #1024 ) ) ;
#1090 = EDGE_LOOP ( 'NONE', ( #992, #1000 ) ) ;
#1091 = EDGE_LOOP ( 'NONE', ( #1023, #383, #1011, #384 ) ) ;
#1092 = EDGE_LOOP ( 'NONE', ( #475, #441, #477, #448 ) ) ;
#1093 = ORIENTED_EDGE ( 'NONE', *, *, #594, .F. ) ;
#1094 = EDGE_LOOP ( 'NONE', ( #1085, #1073, #1069, #1116, #1125, #1106 ) ) ;
#1095 = EDGE_LOOP ( 'NONE', ( #1013, #1063, #1047, #1002, #1003, #1054, #1067, #1065, #1045, #1026, #1051, #1005, #1046 ) ) ;
#1096 = EDGE_LOOP ( 'NONE', ( #478, #471, #466, #458 ) ) ;
#1097 = EDGE_LOOP ( 'NONE', ( #399, #418, #417, #404 ) ) ;
#1098 = EDGE_LOOP ( 'NONE', ( #398, #406, #413, #431 ) ) ;
#1099 = EDGE_LOOP ( 'NONE', ( #1038, #1050, #1041, #1042, #1060, #1058 ) ) ;
#1100 = EDGE_LOOP ( 'NONE', ( #460, #380, #464, #437 ) ) ;
#1101 = EDGE_LOOP ( 'NONE', ( #427, #396, #408, #426 ) ) ;
#1102 = EDGE_LOOP ( 'NONE', ( #1031, #1037, #1068, #1043, #1066, #1064, #1036, #1034, #1039, #1059, #1053, #1032, #1029 ) ) ;
#1103 = EDGE_LOOP ( 'NONE', ( #391, #419, #392, #403 ) ) ;
#1104 = EDGE_LOOP ( 'NONE', ( #468, #378, #474, #449 ) ) ;
#1105 = EDGE_LOOP ( 'NONE', ( #386, #1022, #1019, #994 ) ) ;
#1106 = ORIENTED_EDGE ( 'NONE', *, *, #596, .F. ) ;
#1107 = ORIENTED_EDGE ( 'NONE', *, *, #593, .T. ) ;
#1108 = ORIENTED_EDGE ( 'NONE', *, *, #618, .T. ) ;
#1109 = ORIENTED_EDGE ( 'NONE', *, *, #548, .T. ) ;
#1110 = ORIENTED_EDGE ( 'NONE', *, *, #573, .T. ) ;
#1111 = ORIENTED_EDGE ( 'NONE', *, *, #578, .F. ) ;
#1112 = ORIENTED_EDGE ( 'NONE', *, *, #550, .F. ) ;
#1113 = ORIENTED_EDGE ( 'NONE', *, *, #560, .F. ) ;
#1114 = EDGE_LOOP ( 'NONE', ( #991, #1001, #381, #995 ) ) ;
#1115 = EDGE_LOOP ( 'NONE', ( #438, #442, #453, #465, #483, #377, #486, #480, #455, #485, #440, #481 ) ) ;
#1116 = ORIENTED_EDGE ( 'NONE', *, *, #590, .F. ) ;
#1117 = ORIENTED_EDGE ( 'NONE', *, *, #625, .T. ) ;
#1118 = EDGE_LOOP ( 'NONE', ( #393, #401, #433, #423 ) ) ;
#1119 = ORIENTED_EDGE ( 'NONE', *, *, #581, .T. ) ;
#1120 = ORIENTED_EDGE ( 'NONE', *, *, #608, .F. ) ;
#1121 = EDGE_LOOP ( 'NONE', ( #425, #422, #430, #429 ) ) ;
#1122 = EDGE_LOOP ( 'NONE', ( #470, #376, #382, #1021 ) ) ;
#1123 = EDGE_LOOP ( 'NONE', ( #435, #389, #390, #400, #388, #409 ) ) ;
#1124 = EDGE_LOOP ( 'NONE', ( #452, #444, #472, #482 ) ) ;
#1125 = ORIENTED_EDGE ( 'NONE', *, *, #661, .T. ) ;
#1126 = ORIENTED_EDGE ( 'NONE', *, *, #575, .F. ) ;
#1127 = EDGE_LOOP ( 'NONE', ( #1025, #1017 ) ) ;
#1128 = ORIENTED_EDGE ( 'NONE', *, *, #592, .F. ) ;
#1129 = VERTEX_POINT ( 'NONE', #98 ) ;
#1130 = EDGE_LOOP ( 'NONE', ( #1120, #1078, #1061, #1062, #1055, #1056 ) ) ;
#1131 = VERTEX_POINT ( 'NONE', #99 ) ;
#1132 = VERTEX_POINT ( 'NONE', #100 ) ;
#1133 = EDGE_LOOP ( 'NONE', ( #1126, #1111, #1108, #1080 ) ) ;
#1134 = VERTEX_POINT ( 'NONE', #106 ) ;
#1135 = VERTEX_POINT ( 'NONE', #107 ) ;
#1136 = VERTEX_POINT ( 'NONE', #113 ) ;
#1137 = VERTEX_POINT ( 'NONE', #120 ) ;
#1138 = EDGE_LOOP ( 'NONE', ( #1015, #1004, #1020, #1016, #1048, #1006, #1040, #996, #1027, #1052, #1033, #1007 ) ) ;
#1139 = VERTEX_POINT ( 'NONE', #90 ) ;
#1140 = VERTEX_POINT ( 'NONE', #71 ) ;
#1141 = VERTEX_POINT ( 'NONE', #73 ) ;
#1142 = VERTEX_POINT ( 'NONE', #773 ) ;
#1143 = VERTEX_POINT ( 'NONE', #746 ) ;
#1144 = EDGE_LOOP ( 'NONE', ( #1014, #993, #1010, #1012 ) ) ;
#1145 = VERTEX_POINT ( 'NONE', #761 ) ;
#1146 = VERTEX_POINT ( 'NONE', #774 ) ;
#1147 = VERTEX_POINT ( 'NONE', #764 ) ;
#1148 = VERTEX_POINT ( 'NONE', #770 ) ;
#1149 = VERTEX_POINT ( 'NONE', #758 ) ;
#1150 = VERTEX_POINT ( 'NONE', #769 ) ;
#1151 = VERTEX_POINT ( 'NONE', #747 ) ;
#1152 = VERTEX_POINT ( 'NONE', #759 ) ;
#1153 = VERTEX_POINT ( 'NONE', #744 ) ;
#1154 = VERTEX_POINT ( 'NONE', #760 ) ;
#1155 = EDGE_LOOP ( 'NONE', ( #1044, #1057, #1109, #1112, #1081, #1076 ) ) ;
#1156 = VERTEX_POINT ( 'NONE', #763 ) ;
#1157 = VERTEX_POINT ( 'NONE', #741 ) ;
#1158 = VERTEX_POINT ( 'NONE', #749 ) ;
#1159 = EDGE_LOOP ( 'NONE', ( #1028, #1030, #1049, #1035 ) ) ;
#1160 = VERTEX_POINT ( 'NONE', #771 ) ;
#1161 = EDGE_LOOP ( 'NONE', ( #1083, #1093, #1107, #1119 ) ) ;
#1162 = VERTEX_POINT ( 'NONE', #748 ) ;
#1163 = VERTEX_POINT ( 'NONE', #743 ) ;
#1164 = VERTEX_POINT ( 'NONE', #745 ) ;
#1165 = EDGE_LOOP ( 'NONE', ( #1113, #1128, #1110, #1117 ) ) ;
#1166 = VERTEX_POINT ( 'NONE', #756 ) ;
#1167 = VERTEX_POINT ( 'NONE', #762 ) ;
#1168 = VERTEX_POINT ( 'NONE', #765 ) ;
#1169 = VERTEX_POINT ( 'NONE', #757 ) ;
#1170 = VERTEX_POINT ( 'NONE', #752 ) ;
#1171 = VERTEX_POINT ( 'NONE', #750 ) ;
#1172 = VERTEX_POINT ( 'NONE', #751 ) ;
#1173 = VERTEX_POINT ( 'NONE', #766 ) ;
#1174 = VERTEX_POINT ( 'NONE', #753 ) ;
#1175 = VERTEX_POINT ( 'NONE', #742 ) ;
#1176 = VERTEX_POINT ( 'NONE', #767 ) ;
#1177 = VERTEX_POINT ( 'NONE', #768 ) ;
#1178 = CIRCLE ( 'NONE', #651, 2.499999999999998700 ) ;
#1179 = VERTEX_POINT ( 'NONE', #754 ) ;
#1180 = VERTEX_POINT ( 'NONE', #772 ) ;
#1181 = LINE ( 'NONE', #1295, #1209 ) ;
#1182 = VERTEX_POINT ( 'NONE', #755 ) ;
#1183 = LINE ( 'NONE', #1294, #1190 ) ;
#1184 = LINE ( 'NONE', #1286, #1211 ) ;
#1185 = VECTOR ( 'NONE', #1298, 999.9999999999998900 ) ;
#1186 = VERTEX_POINT ( 'NONE', #725 ) ;
#1187 = LINE ( 'NONE', #1285, #1199 ) ;
#1188 = VERTEX_POINT ( 'NONE', #736 ) ;
#1189 = VERTEX_POINT ( 'NONE', #731 ) ;
#1190 = VECTOR ( 'NONE', #1301, 1000.000000000000000 ) ;
#1191 = VERTEX_POINT ( 'NONE', #738 ) ;
#1192 = VERTEX_POINT ( 'NONE', #737 ) ;
#1193 = VECTOR ( 'NONE', #1306, 999.9999999999998900 ) ;
#1194 = VERTEX_POINT ( 'NONE', #739 ) ;
#1195 = LINE ( 'NONE', #1314, #1196 ) ;
#1196 = VECTOR ( 'NONE', #1315, 1000.000000000000100 ) ;
#1197 = VECTOR ( 'NONE', #1323, 1000.000000000000000 ) ;
#1198 = VERTEX_POINT ( 'NONE', #727 ) ;
#1199 = VECTOR ( 'NONE', #1316, 1000.000000000000000 ) ;
#1200 = LINE ( 'NONE', #1317, #1202 ) ;
#1201 = LINE ( 'NONE', #1307, #1193 ) ;
#1202 = VECTOR ( 'NONE', #1281, 1000.000000000000000 ) ;
#1203 = CIRCLE ( 'NONE', #662, 3.024999999999999900 ) ;
#1204 = LINE ( 'NONE', #1330, #1217 ) ;
#1205 = LINE ( 'NONE', #1328, #1213 ) ;
#1206 = VERTEX_POINT ( 'NONE', #732 ) ;
#1207 = VERTEX_POINT ( 'NONE', #720 ) ;
#1208 = VERTEX_POINT ( 'NONE', #726 ) ;
#1209 = VECTOR ( 'NONE', #1293, 999.9999999999998900 ) ;
#1210 = CIRCLE ( 'NONE', #623, 2.500000000000002200 ) ;
#1211 = VECTOR ( 'NONE', #1288, 1000.000000000000000 ) ;
#1212 = VERTEX_POINT ( 'NONE', #733 ) ;
#1213 = VECTOR ( 'NONE', #1322, 1000.000000000000000 ) ;
#1214 = LINE ( 'NONE', #1321, #1197 ) ;
#1215 = VERTEX_POINT ( 'NONE', #718 ) ;
#1216 = VERTEX_POINT ( 'NONE', #740 ) ;
#1217 = VECTOR ( 'NONE', #1319, 1000.000000000000000 ) ;
#1218 = VERTEX_POINT ( 'NONE', #728 ) ;
#1219 = LINE ( 'NONE', #1292, #1185 ) ;
#1220 = VERTEX_POINT ( 'NONE', #719 ) ;
#1221 = VERTEX_POINT ( 'NONE', #721 ) ;
#1222 = VERTEX_POINT ( 'NONE', #722 ) ;
#1223 = VERTEX_POINT ( 'NONE', #723 ) ;
#1224 = VERTEX_POINT ( 'NONE', #729 ) ;
#1225 = VERTEX_POINT ( 'NONE', #734 ) ;
#1226 = VERTEX_POINT ( 'NONE', #724 ) ;
#1227 = VERTEX_POINT ( 'NONE', #730 ) ;
#1228 = LINE ( 'NONE', #1278, #1237 ) ;
#1229 = LINE ( 'NONE', #1277, #1230 ) ;
#1230 = VECTOR ( 'NONE', #1265, 1000.000000000000000 ) ;
#1231 = VECTOR ( 'NONE', #1291, 1000.000000000000000 ) ;
#1232 = LINE ( 'NONE', #1324, #1238 ) ;
#1233 = VECTOR ( 'NONE', #1243, 1000.000000000000000 ) ;
#1234 = LINE ( 'NONE', #1312, #1231 ) ;
#1235 = LINE ( 'NONE', #1240, #1236 ) ;
#1236 = VECTOR ( 'NONE', #1241, 1000.000000000000000 ) ;
#1237 = VECTOR ( 'NONE', #1263, 1000.000000000000000 ) ;
#1238 = VECTOR ( 'NONE', #1264, 1000.000000000000000 ) ;
#1239 = LINE ( 'NONE', #1250, #1233 ) ;
#1240 = CARTESIAN_POINT ( 'NONE',  ( 1.383850883036508900E-014, 0.0000000000000000000, -50.00000000000000000 ) ) ;
#1241 = DIRECTION ( 'NONE',  ( -0.0000000000000000000, -1.000000000000000000, -0.0000000000000000000 ) ) ;
#1242 = DIRECTION ( 'NONE',  ( -0.0000000000000000000, -0.0000000000000000000, -1.000000000000000000 ) ) ;
#1243 = DIRECTION ( 'NONE',  ( -0.0000000000000000000, -1.000000000000000000, -0.0000000000000000000 ) ) ;
#1244 = CARTESIAN_POINT ( 'NONE',  ( -0.1623072875484932500, 0.3376927124515139400, -20.18730728754851000 ) ) ;
#1245 = DIRECTION ( 'NONE',  ( 0.0000000000000000000, 0.0000000000000000000, -1.000000000000000000 ) ) ;
#1246 = DIRECTION ( 'NONE',  ( 0.7071067811865392500, -0.7071067811865559000, 0.0000000000000000000 ) ) ;
#1247 = CARTESIAN_POINT ( 'NONE',  ( 0.5000000000000001100, 0.0000000000000000000, 14.51660847356569800 ) ) ;
#1248 = CARTESIAN_POINT ( 'NONE',  ( -0.3294565384477645700, 0.1705434615522391000, 55.33905169151694300 ) ) ;
#1249 = CARTESIAN_POINT ( 'NONE',  ( 0.3294565384477639000, 0.1705434615522403700, 14.66094830848306300 ) ) ;
#1250 = CARTESIAN_POINT ( 'NONE',  ( -7.999999999999998200, 1.699999999999998400, 60.00000000000000000 ) ) ;
#1251 = CARTESIAN_POINT ( 'NONE',  ( 0.3294565384477632400, 0.1705434615522409500, -49.66094830848307100 ) ) ;
#1252 = CARTESIAN_POINT ( 'NONE',  ( 1.353234713057825300E-014, 5.999999999999998200, -52.50000000000000700 ) ) ;
#1253 = CARTESIAN_POINT ( 'NONE',  ( 0.1623072875484944700, 0.3376927124515136100, 14.81269271245149400 ) ) ;
#1254 = CARTESIAN_POINT ( 'NONE',  ( -0.5000000000000001100, 0.0000000000000000000, 55.48339152643430300 ) ) ;
#1255 = CARTESIAN_POINT ( 'NONE',  ( -0.3294565384477634000, 0.1705434615522403400, -20.33905169151694300 ) ) ;
#1256 = CARTESIAN_POINT ( 'NONE',  ( 0.1623072875484945500, 0.3376927124515135000, -49.81269271245150100 ) ) ;
#1257 = CARTESIAN_POINT ( 'NONE',  ( 0.5000000000000001100, 0.0000000000000000000, -49.51660847356569700 ) ) ;
#1258 = CARTESIAN_POINT ( 'NONE',  ( 6.735557395310427200E-016, 5.999999999999998200, 52.50000000000000700 ) ) ;
#1259 = CARTESIAN_POINT ( 'NONE',  ( 6.735557395310427200E-016, 0.5000000000000113200, -49.97500000000002300 ) ) ;
#1260 = CARTESIAN_POINT ( 'NONE',  ( -0.1623072875484936600, 0.3376927124515135000, 55.18730728754851400 ) ) ;
#1261 = CARTESIAN_POINT ( 'NONE',  ( -3.612708057484694800E-015, 0.0000000000000000000, 14.47500000000000100 ) ) ;
#1262 = DIRECTION ( 'NONE',  ( -0.0000000000000000000, -1.000000000000000000, -0.0000000000000000000 ) ) ;
#1263 = DIRECTION ( 'NONE',  ( -0.0000000000000000000, -1.000000000000000000, -0.0000000000000000000 ) ) ;
#1264 = DIRECTION ( 'NONE',  ( 0.0000000000000000000, 1.000000000000000000, 0.0000000000000000000 ) ) ;
#1265 = DIRECTION ( 'NONE',  ( 0.0000000000000000000, 1.000000000000000000, 0.0000000000000000000 ) ) ;
#1266 = CARTESIAN_POINT ( 'NONE',  ( 1.353234713057825300E-014, 0.0000000000000000000, -55.00000000000000700 ) ) ;
#1267 = CARTESIAN_POINT ( 'NONE',  ( -0.5000000000000001100, 0.0000000000000000000, 60.00000000000000000 ) ) ;
#1268 = CARTESIAN_POINT ( 'NONE',  ( -6.952541905800561700E-017, 0.5000000000000119900, 55.02499999999999100 ) ) ;
#1269 = DIRECTION ( 'NONE',  ( 0.0000000000000000000, 0.0000000000000000000, -1.000000000000000000 ) ) ;
#1270 = CARTESIAN_POINT ( 'NONE',  ( -0.5000000000000002200, 0.0000000000000000000, -20.48339152643430700 ) ) ;
#1271 = DIRECTION ( 'NONE',  ( -0.0000000000000000000, -1.000000000000000000, -0.0000000000000000000 ) ) ;
#1272 = DIRECTION ( 'NONE',  ( 0.0000000000000000000, -0.7071067811865469100, -0.7071067811865482400 ) ) ;
#1273 = DIRECTION ( 'NONE',  ( -0.0000000000000000000, -1.000000000000000000, -0.0000000000000000000 ) ) ;
#1274 = CARTESIAN_POINT ( 'NONE',  ( 6.735557395310427200E-016, 0.5000000000000113200, -60.00000000000000000 ) ) ;
#1275 = CARTESIAN_POINT ( 'NONE',  ( 9.797174393178809900E-016, 0.0000000000000000000, 55.00000000000000700 ) ) ;
#1276 = CARTESIAN_POINT ( 'NONE',  ( 1.088773027551527200E-015, 0.5000000000000108800, -20.02499999999999100 ) ) ;
#1277 = CARTESIAN_POINT ( 'NONE',  ( 7.999999999999998200, 1.700000000000000400, 60.00000000000000000 ) ) ;
#1278 = CARTESIAN_POINT ( 'NONE',  ( -3.306546357697856500E-015, 0.0000000000000000000, 20.00000000000000000 ) ) ;
#1279 = CARTESIAN_POINT ( 'NONE',  ( 5.149163960057139900E-016, 0.5000000000000114400, 14.97500000000001400 ) ) ;
#1280 = DIRECTION ( 'NONE',  ( -0.0000000000000000000, -1.000000000000000000, -0.0000000000000000000 ) ) ;
#1281 = DIRECTION ( 'NONE',  ( -0.0000000000000000000, -0.0000000000000000000, -1.000000000000000000 ) ) ;
#1282 = CARTESIAN_POINT ( 'NONE',  ( -0.3294565384477646200, 0.1705434615522390100, 49.66094830848307100 ) ) ;
#1283 = CARTESIAN_POINT ( 'NONE',  ( 0.3294565384477639000, 0.1705434615522402100, -20.33905169151694300 ) ) ;
#1284 = CARTESIAN_POINT ( 'NONE',  ( 1.416636894636962100E-015, 0.5000000000000119900, -55.02499999999999100 ) ) ;
#1285 = CARTESIAN_POINT ( 'NONE',  ( -3.612708057484694800E-015, 0.0000000000000000000, 15.00000000000000400 ) ) ;
#1286 = CARTESIAN_POINT ( 'NONE',  ( 6.735557395310427200E-016, 0.5000000000000113200, 60.00000000000000000 ) ) ;
#1287 = CARTESIAN_POINT ( 'NONE',  ( 6.735557395310427200E-016, 0.5249999999999994700, 52.50000000000000700 ) ) ;
#1288 = DIRECTION ( 'NONE',  ( -0.0000000000000000000, -0.0000000000000000000, -1.000000000000000000 ) ) ;
#1289 = CARTESIAN_POINT ( 'NONE',  ( 0.1623072875484944700, 0.3376927124515136100, -55.18730728754851400 ) ) ;
#1290 = CARTESIAN_POINT ( 'NONE',  ( -5.455571098498969900E-017, 0.5000000000000119900, 49.97500000000002300 ) ) ;
#1291 = DIRECTION ( 'NONE',  ( -0.0000000000000000000, -0.0000000000000000000, -1.000000000000000000 ) ) ;
#1292 = CARTESIAN_POINT ( 'NONE',  ( 1.353234713057825300E-014, 0.0000000000000000000, -55.52500000000000600 ) ) ;
#1293 = DIRECTION ( 'NONE',  ( 8.659560562354941500E-017, -0.7071067811865469100, 0.7071067811865482400 ) ) ;
#1294 = CARTESIAN_POINT ( 'NONE',  ( 0.5000000000000001100, 0.0000000000000000000, 60.00000000000000000 ) ) ;
#1295 = CARTESIAN_POINT ( 'NONE',  ( 1.044011396273117100E-015, 0.0000000000000000000, 55.52500000000000600 ) ) ;
#1296 = CARTESIAN_POINT ( 'NONE',  ( -0.5000000000000007800, 0.0000000000000000000, 49.51660847356570400 ) ) ;
#1297 = CARTESIAN_POINT ( 'NONE',  ( -0.1623072875484938600, 0.3376927124515132800, 49.81269271245150100 ) ) ;
#1298 = DIRECTION ( 'NONE',  ( 0.0000000000000000000, -0.7071067811865469100, -0.7071067811865482400 ) ) ;
#1299 = DIRECTION ( 'NONE',  ( -0.0000000000000000000, -1.000000000000000000, -0.0000000000000000000 ) ) ;
#1300 = CARTESIAN_POINT ( 'NONE',  ( 0.3294565384477631800, 0.1705434615522409300, -55.33905169151694300 ) ) ;
#1301 = DIRECTION ( 'NONE',  ( -0.0000000000000000000, -0.0000000000000000000, -1.000000000000000000 ) ) ;
#1302 = CARTESIAN_POINT ( 'NONE',  ( -0.5000000000000000000, 0.0000000000000000000, 20.48339152643430700 ) ) ;
#1303 = CARTESIAN_POINT ( 'NONE',  ( -0.1623072875484935500, 0.3376927124515137200, 20.18730728754851000 ) ) ;
#1304 = CARTESIAN_POINT ( 'NONE',  ( -0.3294565384477639600, 0.1705434615522397100, 20.33905169151694300 ) ) ;
#1305 = CARTESIAN_POINT ( 'NONE',  ( 0.5000000000000001100, 0.0000000000000000000, -20.48339152643430700 ) ) ;
#1306 = DIRECTION ( 'NONE',  ( 0.0000000000000000000, -0.7071067811865469100, -0.7071067811865482400 ) ) ;
#1307 = CARTESIAN_POINT ( 'NONE',  ( 6.735557395310427200E-016, 0.0000000000000000000, 49.47500000000000900 ) ) ;
#1308 = CARTESIAN_POINT ( 'NONE',  ( 0.1623072875484943800, 0.3376927124515137200, -20.18730728754851000 ) ) ;
#1309 = CARTESIAN_POINT ( 'NONE',  ( 1.088773027551527200E-015, 0.5000000000000108800, -20.02499999999999100 ) ) ;
#1310 = CARTESIAN_POINT ( 'NONE',  ( 0.5000000000000001100, 0.0000000000000000000, -55.48339152643431000 ) ) ;
#1311 = CARTESIAN_POINT ( 'NONE',  ( 1.103742737644027000E-015, 0.5000000000000108800, 20.02499999999999100 ) ) ;
#1312 = CARTESIAN_POINT ( 'NONE',  ( -0.5000000000000001100, 0.0000000000000000000, 60.00000000000000000 ) ) ;
#1313 = DIRECTION ( 'NONE',  ( 0.0000000000000000000, 0.0000000000000000000, -1.000000000000000000 ) ) ;
#1314 = CARTESIAN_POINT ( 'NONE',  ( 6.735557395310427200E-016, 0.5000000000000113200, -60.00000000000000000 ) ) ;
#1315 = DIRECTION ( 'NONE',  ( 0.7071067811865401300, 0.7071067811865550100, -0.0000000000000000000 ) ) ;
#1316 = DIRECTION ( 'NONE',  ( -0.0000000000000000000, -1.000000000000000000, -0.0000000000000000000 ) ) ;
#1317 = CARTESIAN_POINT ( 'NONE',  ( -0.5000000000000001100, 0.0000000000000000000, 60.00000000000000000 ) ) ;
#1318 = DIRECTION ( 'NONE',  ( 0.0000000000000000000, 0.0000000000000000000, -1.000000000000000000 ) ) ;
#1319 = DIRECTION ( 'NONE',  ( -0.0000000000000000000, -0.0000000000000000000, -1.000000000000000000 ) ) ;
#1320 = DIRECTION ( 'NONE',  ( 0.0000000000000000000, 0.0000000000000000000, -1.000000000000000000 ) ) ;
#1321 = CARTESIAN_POINT ( 'NONE',  ( 6.735557395310427200E-016, 0.5000000000000113200, 60.00000000000000000 ) ) ;
#1322 = DIRECTION ( 'NONE',  ( -0.0000000000000000000, -0.0000000000000000000, -1.000000000000000000 ) ) ;
#1323 = DIRECTION ( 'NONE',  ( -0.0000000000000000000, -0.0000000000000000000, -1.000000000000000000 ) ) ;
#1324 = CARTESIAN_POINT ( 'NONE',  ( 3.950000000000000200, 5.449678256205722800E-016, -60.00000000000000000 ) ) ;
#1325 = CARTESIAN_POINT ( 'NONE',  ( -3.612708057484694800E-015, 5.999999999999998200, 17.50000000000000000 ) ) ;
#1326 = DIRECTION ( 'NONE',  ( -0.0000000000000000000, -1.000000000000000000, -0.0000000000000000000 ) ) ;
#1327 = DIRECTION ( 'NONE',  ( -0.0000000000000000000, -1.000000000000000000, -0.0000000000000000000 ) ) ;
#1328 = CARTESIAN_POINT ( 'NONE',  ( 0.5000000000000001100, 0.0000000000000000000, 60.00000000000000000 ) ) ;
#1329 = CARTESIAN_POINT ( 'NONE',  ( 1.353234713057825300E-014, 0.0000000000000000000, -52.50000000000000700 ) ) ;
#1330 = CARTESIAN_POINT ( 'NONE',  ( -0.5000000000000001100, 0.0000000000000000000, 60.00000000000000000 ) ) ;
ENDSEC;
END-ISO-10303-21;
