ISO-10303-21;
HEADER;
FILE_DESCRIPTION (( 'STEP AP203' ),
    '1' );
FILE_NAME ('ALP0641.STEP',
    '2017-02-01T16:21:57',
    ( '' ),
    ( '' ),
    'SwSTEP 2.0',
    'SolidWorks 2012',
    '' );
FILE_SCHEMA (( 'CONFIG_CONTROL_DESIGN' ));
ENDSEC;

DATA;
#1 = PRODUCT_DEFINITION_SHAPE ( 'NONE', 'NONE',  #216 ) ;
#2 = DESIGN_CONTEXT ( 'detailed design', #132, 'design' ) ;
#3 =( BOUNDED_CURVE ( )  B_SPLINE_CURVE ( 3, ( #659, #653, #665, #636 ),
 .UNSPECIFIED., .F., .F. ) 
 B_SPLINE_CURVE_WITH_KNOTS ( ( 4, 4 ),
 ( 4.712388980384688800, 4.748110862782771900 ),
 .UNSPECIFIED. ) 
 CURVE ( )  GEOMETRIC_REPRESENTATION_ITEM ( )  RATIONAL_B_SPLINE_CURVE ( ( 1.000000000000000000, 0.9998936650867268300, 0.9998936650867268300, 1.000000000000000000 ) ) 
 REPRESENTATION_ITEM ( '' )  );
#4 =( BOUNDED_CURVE ( )  B_SPLINE_CURVE ( 3, ( #54, #38, #57, #58 ),
 .UNSPECIFIED., .F., .F. ) 
 B_SPLINE_CURVE_WITH_KNOTS ( ( 4, 4 ),
 ( 4.712388980384689700, 4.748110862782773700 ),
 .UNSPECIFIED. ) 
 CURVE ( )  GEOMETRIC_REPRESENTATION_ITEM ( )  RATIONAL_B_SPLINE_CURVE ( ( 1.000000000000000000, 0.9998936650867268300, 0.9998936650867268300, 1.000000000000000000 ) ) 
 REPRESENTATION_ITEM ( '' )  );
#5 = UNCERTAINTY_MEASURE_WITH_UNIT (LENGTH_MEASURE( 1.000000000000000100E-005 ), #130, 'distance_accuracy_value', 'NONE');
#6 =( BOUNDED_CURVE ( )  B_SPLINE_CURVE ( 3, ( #638, #639, #655, #642 ),
 .UNSPECIFIED., .F., .F. ) 
 B_SPLINE_CURVE_WITH_KNOTS ( ( 4, 4 ),
 ( 1.535074444396813800, 1.570796326794897200 ),
 .UNSPECIFIED. ) 
 CURVE ( )  GEOMETRIC_REPRESENTATION_ITEM ( )  RATIONAL_B_SPLINE_CURVE ( ( 1.000000000000000000, 0.9998936650867268300, 0.9998936650867268300, 1.000000000000000000 ) ) 
 REPRESENTATION_ITEM ( '' )  );
#7 =( BOUNDED_CURVE ( )  B_SPLINE_CURVE ( 3, ( #610, #604, #609, #616 ),
 .UNSPECIFIED., .F., .F. ) 
 B_SPLINE_CURVE_WITH_KNOTS ( ( 4, 4 ),
 ( 1.535074444396812700, 1.570796326794896100 ),
 .UNSPECIFIED. ) 
 CURVE ( )  GEOMETRIC_REPRESENTATION_ITEM ( )  RATIONAL_B_SPLINE_CURVE ( ( 1.000000000000000000, 0.9998936650867268300, 0.9998936650867268300, 1.000000000000000000 ) ) 
 REPRESENTATION_ITEM ( '' )  );
#8 = ADVANCED_BREP_SHAPE_REPRESENTATION ( 'ALP0641', ( #9, #233 ), #231 ) ;
#9 = MANIFOLD_SOLID_BREP ( 'M5 Tapped Hole1', #476 ) ;
#10 = B_SPLINE_CURVE_WITH_KNOTS ( 'NONE', 3,
 ( #662, #646, #656, #643 ),
 .UNSPECIFIED., .F., .F.,
 ( 4, 4 ),
 ( 3.265650412810600900E-007, 0.0007094680034145665800 ),
 .UNSPECIFIED. ) ;
#11 = B_SPLINE_CURVE_WITH_KNOTS ( 'NONE', 3,
 ( #669, #640, #649, #671 ),
 .UNSPECIFIED., .F., .F.,
 ( 4, 4 ),
 ( 3.421454284717039800E-007, 0.0007094835838017573800 ),
 .UNSPECIFIED. ) ;
#12 = B_SPLINE_CURVE_WITH_KNOTS ( 'NONE', 3,
 ( #666, #667, #713, #704 ),
 .UNSPECIFIED., .F., .F.,
 ( 4, 4 ),
 ( 3.421454284717039800E-007, 0.0007094835838017585700 ),
 .UNSPECIFIED. ) ;
#13 = B_SPLINE_CURVE_WITH_KNOTS ( 'NONE', 3,
 ( #64, #69, #86, #100 ),
 .UNSPECIFIED., .F., .F.,
 ( 4, 4 ),
 ( 3.265650412810820100E-007, 0.0007094680034145677700 ),
 .UNSPECIFIED. ) ;
#14 = ADVANCED_FACE ( 'NONE', ( #380 ), #719, .F. ) ;
#15 = ADVANCED_FACE ( 'NONE', ( #530 ), #717, .F. ) ;
#16 = ADVANCED_FACE ( 'NONE', ( #531 ), #727, .F. ) ;
#17 = ADVANCED_FACE ( 'NONE', ( #569 ), #535, .F. ) ;
#18 = ADVANCED_FACE ( 'NONE', ( #557 ), #718, .F. ) ;
#19 = ADVANCED_FACE ( 'NONE', ( #532 ), #726, .F. ) ;
#20 = ADVANCED_FACE ( 'NONE', ( #540 ), #738, .F. ) ;
#21 = ADVANCED_FACE ( 'NONE', ( #539 ), #743, .F. ) ;
#22 = ADVANCED_FACE ( 'NONE', ( #563 ), #753, .F. ) ;
#23 = ADVANCED_FACE ( 'NONE', ( #534 ), #751, .F. ) ;
#24 = ADVANCED_FACE ( 'NONE', ( #536 ), #560, .F. ) ;
#25 = ADVANCED_FACE ( 'NONE', ( #561 ), #628, .F. ) ;
#26 = ADVANCED_FACE ( 'NONE', ( #551 ), #611, .F. ) ;
#27 = ADVANCED_FACE ( 'NONE', ( #542 ), #632, .T. ) ;
#28 = ADVANCED_FACE ( 'NONE', ( #556, #541 ), #619, .F. ) ;
#29 = ADVANCED_FACE ( 'NONE', ( #565 ), #553, .F. ) ;
#30 = ADVANCED_FACE ( 'NONE', ( #544 ), #629, .F. ) ;
#31 = ADVANCED_FACE ( 'NONE', ( #537 ), #627, .F. ) ;
#32 = ADVANCED_FACE ( 'NONE', ( #570 ), #606, .F. ) ;
#33 = ADVANCED_FACE ( 'NONE', ( #564 ), #562, .F. ) ;
#34 = ADVANCED_FACE ( 'NONE', ( #533 ), #603, .F. ) ;
#35 = CARTESIAN_POINT ( 'NONE',  ( -4.900000000000000400, 0.0000000000000000000, -10.00000000000000000 ) ) ;
#36 = DIRECTION ( 'NONE',  ( 1.000000000000000000, -0.0000000000000000000, -0.0000000000000000000 ) ) ;
#37 = CARTESIAN_POINT ( 'NONE',  ( 4.900000000000000400, 5.000000000000000000, 10.00000000000000000 ) ) ;
#38 = CARTESIAN_POINT ( 'NONE',  ( 0.02500664727504687100, 0.4749933527249647900, 2.099999999999998800 ) ) ;
#39 = DIRECTION ( 'NONE',  ( -1.000000000000000000, 0.0000000000000000000, 0.0000000000000000000 ) ) ;
#40 = CARTESIAN_POINT ( 'NONE',  ( 9.800000000000000700, 7.500000000000000000, -10.00000000000000000 ) ) ;
#41 = DIRECTION ( 'NONE',  ( 0.7071067811865406900, 0.7071067811865544600, -0.0000000000000000000 ) ) ;
#42 = DIRECTION ( 'NONE',  ( -0.0000000000000000000, -1.000000000000000000, -0.0000000000000000000 ) ) ;
#43 = CARTESIAN_POINT ( 'NONE',  ( -9.800000000000000700, 5.000000000000000000, 10.00000000000000000 ) ) ;
#44 = DIRECTION ( 'NONE',  ( -0.0000000000000000000, -0.0000000000000000000, -1.000000000000000000 ) ) ;
#45 = DIRECTION ( 'NONE',  ( 1.000000000000000000, -0.0000000000000000000, -0.0000000000000000000 ) ) ;
#46 = DIRECTION ( 'NONE',  ( -0.0000000000000000000, -0.0000000000000000000, -1.000000000000000000 ) ) ;
#47 = CARTESIAN_POINT ( 'NONE',  ( -0.5000000000000001100, 0.0000000000000000000, 10.00000000000000000 ) ) ;
#48 = CARTESIAN_POINT ( 'NONE',  ( 4.900000000000000400, 5.000000000000000000, -10.00000000000000000 ) ) ;
#49 = DIRECTION ( 'NONE',  ( -0.0000000000000000000, -0.0000000000000000000, -1.000000000000000000 ) ) ;
#50 = CARTESIAN_POINT ( 'NONE',  ( 0.5000000000000001100, 0.0000000000000000000, 10.00000000000000000 ) ) ;
#51 = CARTESIAN_POINT ( 'NONE',  ( 9.800000000000000700, 5.000000000000000000, 10.00000000000000000 ) ) ;
#52 = CARTESIAN_POINT ( 'NONE',  ( -6.800000000000070000, 10.49999999999999800, 10.00000000000000000 ) ) ;
#53 = DIRECTION ( 'NONE',  ( -0.7071067811865396900, 0.7071067811865553400, 0.0000000000000000000 ) ) ;
#54 = CARTESIAN_POINT ( 'NONE',  ( 1.224646799147351300E-015, 0.5000000000000111000, 2.099999999999999600 ) ) ;
#55 = CARTESIAN_POINT ( 'NONE',  ( 0.0000000000000000000, 0.4250000000000000400, 0.0000000000000000000 ) ) ;
#56 = CARTESIAN_POINT ( 'NONE',  ( -4.900000000000000400, 5.000000000000000000, -10.00000000000000000 ) ) ;
#57 = CARTESIAN_POINT ( 'NONE',  ( 0.05000930593059026800, 0.4499906940694208300, 2.099553381490519400 ) ) ;
#58 = CARTESIAN_POINT ( 'NONE',  ( 0.07500000000001046100, 0.4250000000000000400, 2.098660286944982200 ) ) ;
#59 = CARTESIAN_POINT ( 'NONE',  ( 1.224646799147351300E-015, 0.5000000000000111000, 10.00000000000000000 ) ) ;
#60 = DIRECTION ( 'NONE',  ( 0.0000000000000000000, 1.000000000000000000, 0.0000000000000000000 ) ) ;
#61 = CARTESIAN_POINT ( 'NONE',  ( 9.800000000000000700, 7.500000000000000000, 10.00000000000000000 ) ) ;
#62 = DIRECTION ( 'NONE',  ( 1.000000000000000000, 0.0000000000000000000, 0.0000000000000000000 ) ) ;
#63 = DIRECTION ( 'NONE',  ( -0.0000000000000000000, -0.0000000000000000000, -1.000000000000000000 ) ) ;
#64 = CARTESIAN_POINT ( 'NONE',  ( -0.5000000000000001100, 0.0000000000000000000, 2.474999999999999600 ) ) ;
#65 = DIRECTION ( 'NONE',  ( -0.0000000000000000000, -0.0000000000000000000, -1.000000000000000000 ) ) ;
#66 = CARTESIAN_POINT ( 'NONE',  ( 6.800000000000068200, 10.49999999999999800, 10.00000000000000000 ) ) ;
#67 = CARTESIAN_POINT ( 'NONE',  ( -0.5000000000000001100, 0.0000000000000000000, -10.00000000000000000 ) ) ;
#68 = CARTESIAN_POINT ( 'NONE',  ( 6.800000000000068200, 10.49999999999999800, -10.00000000000000000 ) ) ;
#69 = CARTESIAN_POINT ( 'NONE',  ( -0.3552334930363629800, 0.1447665069636400500, 2.356554676120664400 ) ) ;
#70 = DIRECTION ( 'NONE',  ( -0.0000000000000000000, -1.000000000000000000, -0.0000000000000000000 ) ) ;
#71 = DIRECTION ( 'NONE',  ( -0.0000000000000000000, -1.000000000000000000, -0.0000000000000000000 ) ) ;
#72 = DIRECTION ( 'NONE',  ( 0.0000000000000000000, 0.0000000000000000000, -1.000000000000000000 ) ) ;
#73 = CARTESIAN_POINT ( 'NONE',  ( 9.800000000000000700, 5.000000000000000000, 10.00000000000000000 ) ) ;
#74 = DIRECTION ( 'NONE',  ( -1.000000000000000000, 0.0000000000000000000, 0.0000000000000000000 ) ) ;
#75 = DIRECTION ( 'NONE',  ( 1.000000000000000000, 0.0000000000000000000, 0.0000000000000000000 ) ) ;
#76 = CARTESIAN_POINT ( 'NONE',  ( -9.800000000000000700, 7.500000000000000000, 10.00000000000000000 ) ) ;
#77 = CARTESIAN_POINT ( 'NONE',  ( 0.5000000000000001100, 0.0000000000000000000, -10.00000000000000000 ) ) ;
#78 = CARTESIAN_POINT ( 'NONE',  ( 4.900000000000000400, 0.0000000000000000000, 10.00000000000000000 ) ) ;
#79 = CARTESIAN_POINT ( 'NONE',  ( 6.800000000000068200, 10.49999999999999800, 10.00000000000000000 ) ) ;
#80 = CARTESIAN_POINT ( 'NONE',  ( 1.224646799147351300E-015, 0.5000000000000111000, -2.099999999999996100 ) ) ;
#81 = CARTESIAN_POINT ( 'NONE',  ( -6.800000000000070000, 10.49999999999999800, 10.00000000000000000 ) ) ;
#82 = CARTESIAN_POINT ( 'NONE',  ( -4.900000000000000400, 5.000000000000000000, -10.00000000000000000 ) ) ;
#83 = DIRECTION ( 'NONE',  ( 1.000000000000000000, -0.0000000000000000000, -0.0000000000000000000 ) ) ;
#84 = CARTESIAN_POINT ( 'NONE',  ( -4.900000000000000400, 0.0000000000000000000, 10.00000000000000000 ) ) ;
#85 = CARTESIAN_POINT ( 'NONE',  ( -9.800000000000000700, 5.000000000000000000, -10.00000000000000000 ) ) ;
#86 = CARTESIAN_POINT ( 'NONE',  ( -0.2131773440634955300, 0.2868226559365101300, 2.231987783285960300 ) ) ;
#87 = CARTESIAN_POINT ( 'NONE',  ( -0.5000000000000001100, 0.0000000000000000000, -2.474999999999999600 ) ) ;
#88 = CARTESIAN_POINT ( 'NONE',  ( -9.800000000000000700, 7.500000000000000000, 10.00000000000000000 ) ) ;
#89 = DIRECTION ( 'NONE',  ( 1.000000000000000000, 0.0000000000000000000, 0.0000000000000000000 ) ) ;
#90 = CARTESIAN_POINT ( 'NONE',  ( -4.900000000000000400, 0.0000000000000000000, -10.00000000000000000 ) ) ;
#91 = CARTESIAN_POINT ( 'NONE',  ( -4.900000000000000400, 5.000000000000000000, 10.00000000000000000 ) ) ;
#92 = CARTESIAN_POINT ( 'NONE',  ( 0.07500000000001053000, 0.4249999999999999900, -2.098660286944982200 ) ) ;
#93 = CARTESIAN_POINT ( 'NONE',  ( 1.224646799147351300E-015, 0.5000000000000111000, -10.00000000000000000 ) ) ;
#94 = CARTESIAN_POINT ( 'NONE',  ( 4.900000000000000400, 5.000000000000000000, 10.00000000000000000 ) ) ;
#95 = DIRECTION ( 'NONE',  ( -0.0000000000000000000, -0.0000000000000000000, -1.000000000000000000 ) ) ;
#96 = CARTESIAN_POINT ( 'NONE',  ( 4.900000000000000400, 0.0000000000000000000, -10.00000000000000000 ) ) ;
#97 = CARTESIAN_POINT ( 'NONE',  ( -0.07500000000000835200, 0.4250000000000000400, -2.098660286944982200 ) ) ;
#98 = CARTESIAN_POINT ( 'NONE',  ( 0.5000000000000002200, 0.0000000000000000000, 2.474999999999999600 ) ) ;
#99 = DIRECTION ( 'NONE',  ( -0.0000000000000000000, -0.0000000000000000000, -1.000000000000000000 ) ) ;
#100 = CARTESIAN_POINT ( 'NONE',  ( -0.07500000000000835200, 0.4250000000000000400, 2.098660286944982200 ) ) ;
#101 = CARTESIAN_POINT ( 'NONE',  ( 9.800000000000000700, 7.500000000000000000, -10.00000000000000000 ) ) ;
#102 = CARTESIAN_POINT ( 'NONE',  ( -4.900000000000000400, 5.000000000000000000, 10.00000000000000000 ) ) ;
#103 = CARTESIAN_POINT ( 'NONE',  ( 0.07500000000001046100, 0.4250000000000000400, 2.098660286944982200 ) ) ;
#104 = CARTESIAN_POINT ( 'NONE',  ( -4.900000000000000400, 5.000000000000000000, 10.00000000000000000 ) ) ;
#105 = CARTESIAN_POINT ( 'NONE',  ( -6.800000000000070000, 10.49999999999999800, -10.00000000000000000 ) ) ;
#106 = CARTESIAN_POINT ( 'NONE',  ( 9.800000000000000700, 7.500000000000000000, 10.00000000000000000 ) ) ;
#107 = CARTESIAN_POINT ( 'NONE',  ( 0.5000000000000001100, 0.0000000000000000000, 10.00000000000000000 ) ) ;
#108 = CARTESIAN_POINT ( 'NONE',  ( -0.5000000000000001100, 0.0000000000000000000, 2.474999999999999600 ) ) ;
#109 = CARTESIAN_POINT ( 'NONE',  ( -0.07500000000000835200, 0.4250000000000000400, 2.098660286944982200 ) ) ;
#110 = CARTESIAN_POINT ( 'NONE',  ( -0.5000000000000001100, 0.0000000000000000000, 10.00000000000000000 ) ) ;
#111 = CARTESIAN_POINT ( 'NONE',  ( 6.800000000000068200, 10.49999999999999800, -10.00000000000000000 ) ) ;
#112 =( NAMED_UNIT ( * ) SI_UNIT ( $, .STERADIAN. ) SOLID_ANGLE_UNIT ( ) );
#113 = APPLICATION_CONTEXT ( 'configuration controlled 3d designs of mechanical parts and assemblies' ) ;
#114 =( NAMED_UNIT ( * ) PLANE_ANGLE_UNIT ( ) SI_UNIT ( $, .RADIAN. ) );
#115 = APPLICATION_PROTOCOL_DEFINITION ( 'international standard', 'config_control_design', 1994, #132 ) ;
#116 = APPROVAL_STATUS ( 'not_yet_approved' ) ;
#117 = APPROVAL_ROLE ( '' ) ;
#118 = PERSON_AND_ORGANIZATION_ROLE ( 'design_supplier' ) ;
#119 = SECURITY_CLASSIFICATION_LEVEL ( 'unclassified' ) ;
#120 = PERSON_AND_ORGANIZATION_ROLE ( 'classification_officer' ) ;
#121 = CARTESIAN_POINT ( 'NONE',  ( 0.0000000000000000000, 0.0000000000000000000, 0.0000000000000000000 ) ) ;
#122 = DATE_TIME_ROLE ( 'classification_date' ) ;
#123 = CARTESIAN_POINT ( 'NONE',  ( 0.5000000000000001100, 0.0000000000000000000, 10.00000000000000000 ) ) ;
#124 = APPROVAL_ROLE ( '' ) ;
#125 = DIRECTION ( 'NONE',  ( 0.0000000000000000000, 0.0000000000000000000, 1.000000000000000000 ) ) ;
#126 = DIRECTION ( 'NONE',  ( 1.000000000000000000, 0.0000000000000000000, 0.0000000000000000000 ) ) ;
#127 = MECHANICAL_CONTEXT ( 'NONE', #113, 'mechanical' ) ;
#128 = CARTESIAN_POINT ( 'NONE',  ( -9.800000000000000700, 7.500000000000000000, -10.00000000000000000 ) ) ;
#129 = CARTESIAN_POINT ( 'NONE',  ( 0.0000000000000000000, 10.49999999999999800, -2.099999999999997900 ) ) ;
#130 =( LENGTH_UNIT ( ) NAMED_UNIT ( * ) SI_UNIT ( .MILLI., .METRE. ) );
#131 = PERSON_AND_ORGANIZATION_ROLE ( 'creator' ) ;
#132 = APPLICATION_CONTEXT ( 'configuration controlled 3d designs of mechanical parts and assemblies' ) ;
#133 = APPROVAL_ROLE ( '' ) ;
#134 = DATE_TIME_ROLE ( 'creation_date' ) ;
#135 = CARTESIAN_POINT ( 'NONE',  ( 4.900000000000000400, 5.000000000000000000, 10.00000000000000000 ) ) ;
#136 = CARTESIAN_POINT ( 'NONE',  ( 9.800000000000000700, 5.000000000000000000, -10.00000000000000000 ) ) ;
#137 = APPROVAL_STATUS ( 'not_yet_approved' ) ;
#138 = PERSON_AND_ORGANIZATION_ROLE ( 'creator' ) ;
#139 = CARTESIAN_POINT ( 'NONE',  ( -0.5000000000000001100, 0.0000000000000000000, -10.00000000000000000 ) ) ;
#140 = PERSON_AND_ORGANIZATION_ROLE ( 'design_owner' ) ;
#141 = CARTESIAN_POINT ( 'NONE',  ( 2.571758278209439500E-016, 10.49999999999999800, 2.099999999999997900 ) ) ;
#142 = CARTESIAN_POINT ( 'NONE',  ( -9.800000000000000700, 5.000000000000000000, 10.00000000000000000 ) ) ;
#143 = CARTESIAN_POINT ( 'NONE',  ( 4.900000000000000400, 5.000000000000000000, -10.00000000000000000 ) ) ;
#144 = CARTESIAN_POINT ( 'NONE',  ( 1.224646799147351300E-015, 0.5000000000000111000, 10.00000000000000000 ) ) ;
#145 = CARTESIAN_POINT ( 'NONE',  ( 0.5000000000000002200, 0.0000000000000000000, -2.474999999999999600 ) ) ;
#146 = CARTESIAN_POINT ( 'NONE',  ( 1.224646799147351300E-015, 0.5000000000000111000, 2.099999999999999600 ) ) ;
#147 = APPLICATION_PROTOCOL_DEFINITION ( 'international standard', 'config_control_design', 1994, #113 ) ;
#148 = APPROVAL_STATUS ( 'not_yet_approved' ) ;
#149 = EDGE_CURVE ( 'NONE', #497, #481, #546, .T. ) ;
#150 = EDGE_CURVE ( 'NONE', #477, #499, #7, .T. ) ;
#151 = EDGE_CURVE ( 'NONE', #483, #470, #566, .T. ) ;
#152 = EDGE_CURVE ( 'NONE', #499, #472, #3, .T. ) ;
#153 = EDGE_CURVE ( 'NONE', #502, #497, #559, .T. ) ;
#154 = EDGE_CURVE ( 'NONE', #473, #475, #11, .T. ) ;
#155 = EDGE_CURVE ( 'NONE', #514, #481, #568, .T. ) ;
#156 = EDGE_CURVE ( 'NONE', #507, #506, #558, .T. ) ;
#157 = EDGE_CURVE ( 'NONE', #500, #506, #6, .T. ) ;
#158 = EDGE_CURVE ( 'NONE', #514, #477, #10, .T. ) ;
#159 = EDGE_CURVE ( 'NONE', #513, #508, #585, .T. ) ;
#160 = EDGE_CURVE ( 'NONE', #500, #472, #578, .T. ) ;
#161 = EDGE_CURVE ( 'NONE', #505, #516, #579, .T. ) ;
#162 = EDGE_CURVE ( 'NONE', #499, #497, #580, .T. ) ;
#163 = EDGE_CURVE ( 'NONE', #507, #504, #584, .T. ) ;
#164 = EDGE_CURVE ( 'NONE', #472, #492, #12, .T. ) ;
#165 = EDGE_CURVE ( 'NONE', #516, #492, #576, .T. ) ;
#166 = EDGE_CURVE ( 'NONE', #470, #515, #586, .T. ) ;
#167 = EDGE_CURVE ( 'NONE', #487, #518, #581, .T. ) ;
#168 = EDGE_CURVE ( 'NONE', #482, #501, #308, .T. ) ;
#169 = EDGE_CURVE ( 'NONE', #510, #489, #277, .T. ) ;
#170 = EDGE_CURVE ( 'NONE', #483, #503, #285, .T. ) ;
#171 = EDGE_CURVE ( 'NONE', #481, #470, #266, .T. ) ;
#172 = EDGE_CURVE ( 'NONE', #484, #496, #300, .T. ) ;
#173 = EDGE_CURVE ( 'NONE', #513, #506, #255, .T. ) ;
#174 = EDGE_CURVE ( 'NONE', #491, #490, #276, .T. ) ;
#175 = EDGE_CURVE ( 'NONE', #508, #513, #274, .T. ) ;
#176 = EDGE_CURVE ( 'NONE', #471, #482, #278, .T. ) ;
#177 = EDGE_CURVE ( 'NONE', #484, #505, #271, .T. ) ;
#178 = EDGE_CURVE ( 'NONE', #514, #475, #256, .T. ) ;
#179 = EDGE_CURVE ( 'NONE', #494, #484, #303, .T. ) ;
#180 = EDGE_CURVE ( 'NONE', #479, #510, #259, .T. ) ;
#181 = EDGE_CURVE ( 'NONE', #509, #489, #284, .T. ) ;
#182 = EDGE_CURVE ( 'NONE', #508, #499, #286, .T. ) ;
#183 = EDGE_CURVE ( 'NONE', #518, #478, #254, .T. ) ;
#184 = EDGE_CURVE ( 'NONE', #493, #496, #299, .T. ) ;
#185 = EDGE_CURVE ( 'NONE', #490, #509, #257, .T. ) ;
#186 = EDGE_CURVE ( 'NONE', #496, #502, #287, .T. ) ;
#187 = EDGE_CURVE ( 'NONE', #501, #479, #289, .T. ) ;
#188 = EDGE_CURVE ( 'NONE', #491, #479, #291, .T. ) ;
#189 = EDGE_CURVE ( 'NONE', #478, #501, #294, .T. ) ;
#190 = EDGE_CURVE ( 'NONE', #489, #493, #302, .T. ) ;
#191 = EDGE_CURVE ( 'NONE', #477, #473, #260, .T. ) ;
#192 = EDGE_CURVE ( 'NONE', #503, #515, #307, .T. ) ;
#193 = EDGE_CURVE ( 'NONE', #506, #473, #4, .T. ) ;
#194 = AXIS2_PLACEMENT_3D ( 'NONE', #721, #722, #720 ) ;
#195 = EDGE_CURVE ( 'NONE', #505, #507, #263, .T. ) ;
#196 = AXIS2_PLACEMENT_3D ( 'NONE', #729, #730, #733 ) ;
#197 = EDGE_CURVE ( 'NONE', #515, #518, #296, .T. ) ;
#198 = EDGE_CURVE ( 'NONE', #504, #475, #262, .T. ) ;
#199 = EDGE_CURVE ( 'NONE', #471, #478, #268, .T. ) ;
#200 = EDGE_CURVE ( 'NONE', #487, #471, #338, .T. ) ;
#201 = EDGE_CURVE ( 'NONE', #492, #502, #315, .T. ) ;
#202 = EDGE_CURVE ( 'NONE', #482, #491, #324, .T. ) ;
#203 = EDGE_CURVE ( 'NONE', #516, #500, #13, .T. ) ;
#204 = EDGE_CURVE ( 'NONE', #503, #487, #330, .T. ) ;
#205 = EDGE_CURVE ( 'NONE', #490, #510, #331, .T. ) ;
#206 = EDGE_CURVE ( 'NONE', #494, #493, #327, .T. ) ;
#207 = EDGE_CURVE ( 'NONE', #509, #494, #329, .T. ) ;
#208 = EDGE_CURVE ( 'NONE', #504, #483, #344, .T. ) ;
#209 = AXIS2_PLACEMENT_3D ( 'NONE', #691, #712, #678 ) ;
#210 = AXIS2_PLACEMENT_3D ( 'NONE', #625, #626, #589 ) ;
#211 = AXIS2_PLACEMENT_3D ( 'NONE', #612, #601, #597 ) ;
#212 = AXIS2_PLACEMENT_3D ( 'NONE', #752, #741, #633 ) ;
#213 = AXIS2_PLACEMENT_3D ( 'NONE', #620, #599, #600 ) ;
#214 = AXIS2_PLACEMENT_3D ( 'NONE', #590, #598, #607 ) ;
#215 = AXIS2_PLACEMENT_3D ( 'NONE', #664, #647, #652 ) ;
#216 = PRODUCT_DEFINITION ( 'UNKNOWN', '', #234, #2 ) ;
#217 = CC_DESIGN_PERSON_AND_ORGANIZATION_ASSIGNMENT ( #335, #131, ( #216 ) ) ;
#218 = CC_DESIGN_DATE_AND_TIME_ASSIGNMENT ( #309, #134, ( #216 ) ) ;
#219 = AXIS2_PLACEMENT_3D ( 'NONE', #723, #734, #728 ) ;
#220 = AXIS2_PLACEMENT_3D ( 'NONE', #735, #715, #724 ) ;
#221 = AXIS2_PLACEMENT_3D ( 'NONE', #630, #587, #602 ) ;
#222 = AXIS2_PLACEMENT_3D ( 'NONE', #595, #617, #618 ) ;
#223 = AXIS2_PLACEMENT_3D ( 'NONE', #624, #631, #596 ) ;
#224 = AXIS2_PLACEMENT_3D ( 'NONE', #716, #731, #732 ) ;
#225 = AXIS2_PLACEMENT_3D ( 'NONE', #650, #663, #645 ) ;
#226 = AXIS2_PLACEMENT_3D ( 'NONE', #621, #594, #622 ) ;
#227 = AXIS2_PLACEMENT_3D ( 'NONE', #702, #681, #682 ) ;
#228 = AXIS2_PLACEMENT_3D ( 'NONE', #744, #746, #745 ) ;
#229 = AXIS2_PLACEMENT_3D ( 'NONE', #701, #710, #675 ) ;
#230 = AXIS2_PLACEMENT_3D ( 'NONE', #623, #591, #634 ) ;
#231 =( GEOMETRIC_REPRESENTATION_CONTEXT ( 3 ) GLOBAL_UNCERTAINTY_ASSIGNED_CONTEXT ( ( #5 ) ) GLOBAL_UNIT_ASSIGNED_CONTEXT ( ( #130, #114, #112 ) ) REPRESENTATION_CONTEXT ( 'NONE', 'WORKASPACE' ) );
#232 = CC_DESIGN_PERSON_AND_ORGANIZATION_ASSIGNMENT ( #339, #140, ( #754 ) ) ;
#233 = AXIS2_PLACEMENT_3D ( 'NONE', #121, #125, #126 ) ;
#234 = PRODUCT_DEFINITION_FORMATION_WITH_SPECIFIED_SOURCE ( 'ANY', '', #754, .NOT_KNOWN. ) ;
#235 = APPROVAL ( #137, 'UNSPECIFIED' ) ;
#236 = CC_DESIGN_APPROVAL ( #237, ( #216 ) ) ;
#237 = APPROVAL ( #116, 'UNSPECIFIED' ) ;
#238 = CC_DESIGN_APPROVAL ( #235, ( #234 ) ) ;
#239 = CC_DESIGN_PERSON_AND_ORGANIZATION_ASSIGNMENT ( #351, #138, ( #234 ) ) ;
#240 = CC_DESIGN_PERSON_AND_ORGANIZATION_ASSIGNMENT ( #352, #118, ( #234 ) ) ;
#241 = AXIS2_PLACEMENT_3D ( 'NONE', #613, #614, #593 ) ;
#242 = SECURITY_CLASSIFICATION ( '', '', #119 ) ;
#243 = CC_DESIGN_PERSON_AND_ORGANIZATION_ASSIGNMENT ( #310, #120, ( #242 ) ) ;
#244 = CC_DESIGN_DATE_AND_TIME_ASSIGNMENT ( #356, #122, ( #242 ) ) ;
#245 = AXIS2_PLACEMENT_3D ( 'NONE', #739, #747, #742 ) ;
#246 = AXIS2_PLACEMENT_3D ( 'NONE', #725, #736, #737 ) ;
#247 = AXIS2_PLACEMENT_3D ( 'NONE', #749, #740, #748 ) ;
#248 = AXIS2_PLACEMENT_3D ( 'NONE', #615, #588, #592 ) ;
#249 = AXIS2_PLACEMENT_3D ( 'NONE', #55, #71, #72 ) ;
#250 = PRODUCT_RELATED_PRODUCT_CATEGORY ( 'detail', '', ( #754 ) ) ;
#251 = CC_DESIGN_SECURITY_CLASSIFICATION ( #242, ( #234 ) ) ;
#252 = APPROVAL ( #148, 'UNSPECIFIED' ) ;
#253 = CC_DESIGN_APPROVAL ( #252, ( #242 ) ) ;
#254 = LINE ( 'NONE', #674, #281 ) ;
#255 = LINE ( 'NONE', #699, #267 ) ;
#256 = CIRCLE ( 'NONE', #229, 2.524999999999999900 ) ;
#257 = LINE ( 'NONE', #43, #269 ) ;
#258 = VECTOR ( 'NONE', #36, 1000.000000000000000 ) ;
#259 = LINE ( 'NONE', #685, #280 ) ;
#260 = CIRCLE ( 'NONE', #249, 2.099999999999999200 ) ;
#261 = VECTOR ( 'NONE', #65, 1000.000000000000000 ) ;
#262 = LINE ( 'NONE', #50, #265 ) ;
#263 = LINE ( 'NONE', #59, #301 ) ;
#264 = VECTOR ( 'NONE', #673, 1000.000000000000100 ) ;
#265 = VECTOR ( 'NONE', #44, 1000.000000000000000 ) ;
#266 = LINE ( 'NONE', #692, #282 ) ;
#267 = VECTOR ( 'NONE', #679, 1000.000000000000000 ) ;
#268 = LINE ( 'NONE', #61, #272 ) ;
#269 = VECTOR ( 'NONE', #70, 1000.000000000000000 ) ;
#270 = VECTOR ( 'NONE', #696, 1000.000000000000000 ) ;
#271 = LINE ( 'NONE', #709, #305 ) ;
#272 = VECTOR ( 'NONE', #49, 1000.000000000000000 ) ;
#273 = VECTOR ( 'NONE', #672, 1000.000000000000000 ) ;
#274 = CIRCLE ( 'NONE', #209, 2.099999999999997900 ) ;
#275 = VECTOR ( 'NONE', #705, 1000.000000000000000 ) ;
#276 = LINE ( 'NONE', #711, #264 ) ;
#277 = LINE ( 'NONE', #693, #275 ) ;
#278 = LINE ( 'NONE', #698, #279 ) ;
#279 = VECTOR ( 'NONE', #706, 1000.000000000000100 ) ;
#280 = VECTOR ( 'NONE', #683, 1000.000000000000100 ) ;
#281 = VECTOR ( 'NONE', #750, 1000.000000000000000 ) ;
#282 = VECTOR ( 'NONE', #707, 1000.000000000000000 ) ;
#283 = VECTOR ( 'NONE', #677, 1000.000000000000000 ) ;
#284 = LINE ( 'NONE', #684, #297 ) ;
#285 = LINE ( 'NONE', #680, #270 ) ;
#286 = LINE ( 'NONE', #688, #298 ) ;
#287 = LINE ( 'NONE', #67, #258 ) ;
#288 = VECTOR ( 'NONE', #42, 1000.000000000000000 ) ;
#289 = LINE ( 'NONE', #68, #290 ) ;
#290 = VECTOR ( 'NONE', #39, 1000.000000000000000 ) ;
#291 = LINE ( 'NONE', #52, #261 ) ;
#292 = VECTOR ( 'NONE', #46, 1000.000000000000000 ) ;
#293 = VECTOR ( 'NONE', #45, 1000.000000000000000 ) ;
#294 = LINE ( 'NONE', #40, #295 ) ;
#295 = VECTOR ( 'NONE', #53, 1000.000000000000100 ) ;
#296 = LINE ( 'NONE', #48, #304 ) ;
#297 = VECTOR ( 'NONE', #686, 1000.000000000000000 ) ;
#298 = VECTOR ( 'NONE', #714, 1000.000000000000000 ) ;
#299 = LINE ( 'NONE', #35, #288 ) ;
#300 = LINE ( 'NONE', #694, #306 ) ;
#301 = VECTOR ( 'NONE', #41, 1000.000000000000100 ) ;
#302 = LINE ( 'NONE', #56, #293 ) ;
#303 = LINE ( 'NONE', #676, #283 ) ;
#304 = VECTOR ( 'NONE', #62, 1000.000000000000000 ) ;
#305 = VECTOR ( 'NONE', #700, 1000.000000000000000 ) ;
#306 = VECTOR ( 'NONE', #697, 1000.000000000000000 ) ;
#307 = LINE ( 'NONE', #37, #292 ) ;
#308 = LINE ( 'NONE', #695, #273 ) ;
#309 = DATE_AND_TIME ( #337, #347 ) ;
#310 = PERSON_AND_ORGANIZATION ( #755, #326 ) ;
#311 = VECTOR ( 'NONE', #99, 1000.000000000000000 ) ;
#312 = COORDINATED_UNIVERSAL_TIME_OFFSET ( 1, 0, .AHEAD. ) ;
#313 = LOCAL_TIME ( 17, 21, 57.00000000000000000, #312 ) ;
#314 = APPROVAL_DATE_TIME ( #323, #235 ) ;
#315 = LINE ( 'NONE', #47, #346 ) ;
#316 = VECTOR ( 'NONE', #83, 1000.000000000000000 ) ;
#317 = VECTOR ( 'NONE', #74, 1000.000000000000000 ) ;
#318 = DATE_AND_TIME ( #333, #349 ) ;
#319 = CALENDAR_DATE ( 2017, 1, 2 ) ;
#320 = COORDINATED_UNIVERSAL_TIME_OFFSET ( 1, 0, .AHEAD. ) ;
#321 = CALENDAR_DATE ( 2017, 1, 2 ) ;
#322 = VECTOR ( 'NONE', #89, 1000.000000000000000 ) ;
#323 = DATE_AND_TIME ( #321, #350 ) ;
#324 = LINE ( 'NONE', #66, #317 ) ;
#325 = SHAPE_DEFINITION_REPRESENTATION ( #1, #8 ) ;
#326 = ORGANIZATION ( 'UNSPECIFIED', 'UNSPECIFIED', '' ) ;
#327 = LINE ( 'NONE', #102, #311 ) ;
#328 = APPROVAL_PERSON_ORGANIZATION ( #340, #237, #117 ) ;
#329 = LINE ( 'NONE', #91, #316 ) ;
#330 = LINE ( 'NONE', #94, #345 ) ;
#331 = LINE ( 'NONE', #76, #332 ) ;
#332 = VECTOR ( 'NONE', #95, 1000.000000000000000 ) ;
#333 = CALENDAR_DATE ( 2017, 1, 2 ) ;
#334 = APPROVAL_DATE_TIME ( #318, #237 ) ;
#335 = PERSON_AND_ORGANIZATION ( #755, #326 ) ;
#336 = COORDINATED_UNIVERSAL_TIME_OFFSET ( 1, 0, .AHEAD. ) ;
#337 = CALENDAR_DATE ( 2017, 1, 2 ) ;
#338 = LINE ( 'NONE', #51, #343 ) ;
#339 = PERSON_AND_ORGANIZATION ( #755, #326 ) ;
#340 = PERSON_AND_ORGANIZATION ( #755, #326 ) ;
#341 = APPROVAL_PERSON_ORGANIZATION ( #348, #235, #133 ) ;
#342 = COORDINATED_UNIVERSAL_TIME_OFFSET ( 1, 0, .AHEAD. ) ;
#343 = VECTOR ( 'NONE', #60, 1000.000000000000000 ) ;
#344 = LINE ( 'NONE', #107, #322 ) ;
#345 = VECTOR ( 'NONE', #75, 1000.000000000000000 ) ;
#346 = VECTOR ( 'NONE', #63, 1000.000000000000000 ) ;
#347 = LOCAL_TIME ( 17, 21, 57.00000000000000000, #336 ) ;
#348 = PERSON_AND_ORGANIZATION ( #755, #326 ) ;
#349 = LOCAL_TIME ( 17, 21, 57.00000000000000000, #320 ) ;
#350 = LOCAL_TIME ( 17, 21, 57.00000000000000000, #342 ) ;
#351 = PERSON_AND_ORGANIZATION ( #755, #326 ) ;
#352 = PERSON_AND_ORGANIZATION ( #755, #326 ) ;
#353 = LOCAL_TIME ( 17, 21, 57.00000000000000000, #359 ) ;
#354 = APPROVAL_PERSON_ORGANIZATION ( #357, #252, #124 ) ;
#355 = DATE_AND_TIME ( #358, #353 ) ;
#356 = DATE_AND_TIME ( #319, #313 ) ;
#357 = PERSON_AND_ORGANIZATION ( #755, #326 ) ;
#358 = CALENDAR_DATE ( 2017, 1, 2 ) ;
#359 = COORDINATED_UNIVERSAL_TIME_OFFSET ( 1, 0, .AHEAD. ) ;
#360 = APPROVAL_DATE_TIME ( #355, #252 ) ;
#361 = ORIENTED_EDGE ( 'NONE', *, *, #152, .F. ) ;
#362 = ORIENTED_EDGE ( 'NONE', *, *, #157, .F. ) ;
#363 = ORIENTED_EDGE ( 'NONE', *, *, #159, .F. ) ;
#364 = ORIENTED_EDGE ( 'NONE', *, *, #162, .F. ) ;
#365 = ORIENTED_EDGE ( 'NONE', *, *, #160, .T. ) ;
#366 = ORIENTED_EDGE ( 'NONE', *, *, #203, .T. ) ;
#367 = ORIENTED_EDGE ( 'NONE', *, *, #151, .F. ) ;
#368 = ORIENTED_EDGE ( 'NONE', *, *, #173, .T. ) ;
#369 = ORIENTED_EDGE ( 'NONE', *, *, #182, .F. ) ;
#370 = ORIENTED_EDGE ( 'NONE', *, *, #152, .T. ) ;
#371 = ORIENTED_EDGE ( 'NONE', *, *, #150, .T. ) ;
#372 = EDGE_LOOP ( 'NONE', ( #393, #381, #388, #389 ) ) ;
#373 = ORIENTED_EDGE ( 'NONE', *, *, #171, .T. ) ;
#374 = ORIENTED_EDGE ( 'NONE', *, *, #158, .T. ) ;
#375 = ORIENTED_EDGE ( 'NONE', *, *, #162, .T. ) ;
#376 = ORIENTED_EDGE ( 'NONE', *, *, #195, .F. ) ;
#377 = ORIENTED_EDGE ( 'NONE', *, *, #155, .T. ) ;
#378 = ORIENTED_EDGE ( 'NONE', *, *, #164, .T. ) ;
#379 = ORIENTED_EDGE ( 'NONE', *, *, #178, .F. ) ;
#380 = FACE_OUTER_BOUND ( 'NONE', #372, .T. ) ;
#381 = ORIENTED_EDGE ( 'NONE', *, *, #199, .F. ) ;
#382 = ORIENTED_EDGE ( 'NONE', *, *, #167, .F. ) ;
#383 = ORIENTED_EDGE ( 'NONE', *, *, #163, .F. ) ;
#384 = ORIENTED_EDGE ( 'NONE', *, *, #156, .T. ) ;
#385 = ORIENTED_EDGE ( 'NONE', *, *, #198, .T. ) ;
#386 = ORIENTED_EDGE ( 'NONE', *, *, #204, .F. ) ;
#387 = ORIENTED_EDGE ( 'NONE', *, *, #170, .F. ) ;
#388 = ORIENTED_EDGE ( 'NONE', *, *, #200, .F. ) ;
#389 = ORIENTED_EDGE ( 'NONE', *, *, #167, .T. ) ;
#390 = ORIENTED_EDGE ( 'NONE', *, *, #161, .T. ) ;
#391 = ORIENTED_EDGE ( 'NONE', *, *, #208, .F. ) ;
#392 = ORIENTED_EDGE ( 'NONE', *, *, #157, .T. ) ;
#393 = ORIENTED_EDGE ( 'NONE', *, *, #183, .T. ) ;
#394 = ORIENTED_EDGE ( 'NONE', *, *, #154, .T. ) ;
#395 = ORIENTED_EDGE ( 'NONE', *, *, #201, .T. ) ;
#396 = ORIENTED_EDGE ( 'NONE', *, *, #176, .F. ) ;
#397 = ORIENTED_EDGE ( 'NONE', *, *, #155, .F. ) ;
#398 = ORIENTED_EDGE ( 'NONE', *, *, #199, .T. ) ;
#399 = ORIENTED_EDGE ( 'NONE', *, *, #175, .T. ) ;
#400 = ORIENTED_EDGE ( 'NONE', *, *, #193, .T. ) ;
#401 = ORIENTED_EDGE ( 'NONE', *, *, #153, .T. ) ;
#402 = ORIENTED_EDGE ( 'NONE', *, *, #198, .F. ) ;
#403 = ORIENTED_EDGE ( 'NONE', *, *, #166, .T. ) ;
#404 = ORIENTED_EDGE ( 'NONE', *, *, #151, .T. ) ;
#405 = ORIENTED_EDGE ( 'NONE', *, *, #192, .T. ) ;
#406 = ORIENTED_EDGE ( 'NONE', *, *, #149, .T. ) ;
#407 = ORIENTED_EDGE ( 'NONE', *, *, #192, .F. ) ;
#408 = ORIENTED_EDGE ( 'NONE', *, *, #159, .T. ) ;
#409 = ORIENTED_EDGE ( 'NONE', *, *, #168, .F. ) ;
#410 = ORIENTED_EDGE ( 'NONE', *, *, #187, .T. ) ;
#411 = ORIENTED_EDGE ( 'NONE', *, *, #188, .F. ) ;
#412 = ORIENTED_EDGE ( 'NONE', *, *, #202, .F. ) ;
#413 = ORIENTED_EDGE ( 'NONE', *, *, #189, .T. ) ;
#414 = ORIENTED_EDGE ( 'NONE', *, *, #197, .T. ) ;
#415 = ORIENTED_EDGE ( 'NONE', *, *, #185, .F. ) ;
#416 = ORIENTED_EDGE ( 'NONE', *, *, #176, .T. ) ;
#417 = ORIENTED_EDGE ( 'NONE', *, *, #174, .F. ) ;
#418 = ORIENTED_EDGE ( 'NONE', *, *, #184, .F. ) ;
#419 = ORIENTED_EDGE ( 'NONE', *, *, #182, .T. ) ;
#420 = ORIENTED_EDGE ( 'NONE', *, *, #163, .T. ) ;
#421 = ORIENTED_EDGE ( 'NONE', *, *, #160, .F. ) ;
#422 = ORIENTED_EDGE ( 'NONE', *, *, #161, .F. ) ;
#423 = ORIENTED_EDGE ( 'NONE', *, *, #165, .T. ) ;
#424 = ORIENTED_EDGE ( 'NONE', *, *, #164, .F. ) ;
#425 = ORIENTED_EDGE ( 'NONE', *, *, #207, .T. ) ;
#426 = ORIENTED_EDGE ( 'NONE', *, *, #179, .T. ) ;
#427 = ORIENTED_EDGE ( 'NONE', *, *, #205, .F. ) ;
#428 = ORIENTED_EDGE ( 'NONE', *, *, #190, .T. ) ;
#429 = ORIENTED_EDGE ( 'NONE', *, *, #206, .T. ) ;
#430 = ORIENTED_EDGE ( 'NONE', *, *, #156, .F. ) ;
#431 = ORIENTED_EDGE ( 'NONE', *, *, #205, .T. ) ;
#432 = ORIENTED_EDGE ( 'NONE', *, *, #191, .T. ) ;
#433 = ORIENTED_EDGE ( 'NONE', *, *, #150, .F. ) ;
#434 = ORIENTED_EDGE ( 'NONE', *, *, #174, .T. ) ;
#435 = ORIENTED_EDGE ( 'NONE', *, *, #166, .F. ) ;
#436 = ORIENTED_EDGE ( 'NONE', *, *, #184, .T. ) ;
#437 = ORIENTED_EDGE ( 'NONE', *, *, #206, .F. ) ;
#438 = ORIENTED_EDGE ( 'NONE', *, *, #158, .F. ) ;
#439 = ORIENTED_EDGE ( 'NONE', *, *, #180, .T. ) ;
#440 = ORIENTED_EDGE ( 'NONE', *, *, #188, .T. ) ;
#441 = ORIENTED_EDGE ( 'NONE', *, *, #186, .T. ) ;
#442 = ORIENTED_EDGE ( 'NONE', *, *, #203, .F. ) ;
#443 = ORIENTED_EDGE ( 'NONE', *, *, #170, .T. ) ;
#444 = ORIENTED_EDGE ( 'NONE', *, *, #175, .F. ) ;
#445 = ORIENTED_EDGE ( 'NONE', *, *, #187, .F. ) ;
#446 = ORIENTED_EDGE ( 'NONE', *, *, #191, .F. ) ;
#447 = ORIENTED_EDGE ( 'NONE', *, *, #201, .F. ) ;
#448 = ORIENTED_EDGE ( 'NONE', *, *, #173, .F. ) ;
#449 = ORIENTED_EDGE ( 'NONE', *, *, #169, .T. ) ;
#450 = ORIENTED_EDGE ( 'NONE', *, *, #185, .T. ) ;
#451 = ORIENTED_EDGE ( 'NONE', *, *, #181, .T. ) ;
#452 = ORIENTED_EDGE ( 'NONE', *, *, #180, .F. ) ;
#453 = ORIENTED_EDGE ( 'NONE', *, *, #186, .F. ) ;
#454 = ORIENTED_EDGE ( 'NONE', *, *, #172, .T. ) ;
#455 = ORIENTED_EDGE ( 'NONE', *, *, #195, .T. ) ;
#456 = ORIENTED_EDGE ( 'NONE', *, *, #177, .T. ) ;
#457 = ORIENTED_EDGE ( 'NONE', *, *, #177, .F. ) ;
#458 = ORIENTED_EDGE ( 'NONE', *, *, #181, .F. ) ;
#459 = ORIENTED_EDGE ( 'NONE', *, *, #207, .F. ) ;
#460 = ORIENTED_EDGE ( 'NONE', *, *, #190, .F. ) ;
#461 = ORIENTED_EDGE ( 'NONE', *, *, #193, .F. ) ;
#462 = ORIENTED_EDGE ( 'NONE', *, *, #202, .T. ) ;
#463 = ORIENTED_EDGE ( 'NONE', *, *, #179, .F. ) ;
#464 = ORIENTED_EDGE ( 'NONE', *, *, #169, .F. ) ;
#465 = ORIENTED_EDGE ( 'NONE', *, *, #208, .T. ) ;
#466 = ORIENTED_EDGE ( 'NONE', *, *, #189, .F. ) ;
#467 = ORIENTED_EDGE ( 'NONE', *, *, #204, .T. ) ;
#468 = ORIENTED_EDGE ( 'NONE', *, *, #168, .T. ) ;
#469 = ORIENTED_EDGE ( 'NONE', *, *, #183, .F. ) ;
#470 = VERTEX_POINT ( 'NONE', #96 ) ;
#471 = VERTEX_POINT ( 'NONE', #106 ) ;
#472 = VERTEX_POINT ( 'NONE', #97 ) ;
#473 = VERTEX_POINT ( 'NONE', #103 ) ;
#474 = ORIENTED_EDGE ( 'NONE', *, *, #197, .F. ) ;
#475 = VERTEX_POINT ( 'NONE', #98 ) ;
#476 = CLOSED_SHELL ( 'NONE', ( #33, #34, #25, #22, #26, #32, #16, #31, #14, #23, #28, #15, #20, #21, #30, #18, #19, #27, #29, #24, #17 ) ) ;
#477 = VERTEX_POINT ( 'NONE', #92 ) ;
#478 = VERTEX_POINT ( 'NONE', #101 ) ;
#479 = VERTEX_POINT ( 'NONE', #105 ) ;
#480 = ORIENTED_EDGE ( 'NONE', *, *, #149, .F. ) ;
#481 = VERTEX_POINT ( 'NONE', #77 ) ;
#482 = VERTEX_POINT ( 'NONE', #79 ) ;
#483 = VERTEX_POINT ( 'NONE', #78 ) ;
#484 = VERTEX_POINT ( 'NONE', #84 ) ;
#485 = ORIENTED_EDGE ( 'NONE', *, *, #178, .T. ) ;
#486 = ORIENTED_EDGE ( 'NONE', *, *, #172, .F. ) ;
#487 = VERTEX_POINT ( 'NONE', #73 ) ;
#488 = ORIENTED_EDGE ( 'NONE', *, *, #153, .F. ) ;
#489 = VERTEX_POINT ( 'NONE', #85 ) ;
#490 = VERTEX_POINT ( 'NONE', #88 ) ;
#491 = VERTEX_POINT ( 'NONE', #81 ) ;
#492 = VERTEX_POINT ( 'NONE', #87 ) ;
#493 = VERTEX_POINT ( 'NONE', #82 ) ;
#494 = VERTEX_POINT ( 'NONE', #104 ) ;
#495 = EDGE_LOOP ( 'NONE', ( #399, #408 ) ) ;
#496 = VERTEX_POINT ( 'NONE', #90 ) ;
#497 = VERTEX_POINT ( 'NONE', #93 ) ;
#498 = ORIENTED_EDGE ( 'NONE', *, *, #154, .F. ) ;
#499 = VERTEX_POINT ( 'NONE', #80 ) ;
#500 = VERTEX_POINT ( 'NONE', #109 ) ;
#501 = VERTEX_POINT ( 'NONE', #111 ) ;
#502 = VERTEX_POINT ( 'NONE', #139 ) ;
#503 = VERTEX_POINT ( 'NONE', #135 ) ;
#504 = VERTEX_POINT ( 'NONE', #123 ) ;
#505 = VERTEX_POINT ( 'NONE', #110 ) ;
#506 = VERTEX_POINT ( 'NONE', #146 ) ;
#507 = VERTEX_POINT ( 'NONE', #144 ) ;
#508 = VERTEX_POINT ( 'NONE', #129 ) ;
#509 = VERTEX_POINT ( 'NONE', #142 ) ;
#510 = VERTEX_POINT ( 'NONE', #128 ) ;
#511 = ORIENTED_EDGE ( 'NONE', *, *, #165, .F. ) ;
#512 = EDGE_LOOP ( 'NONE', ( #374, #371, #375, #406, #397 ) ) ;
#513 = VERTEX_POINT ( 'NONE', #141 ) ;
#514 = VERTEX_POINT ( 'NONE', #145 ) ;
#515 = VERTEX_POINT ( 'NONE', #143 ) ;
#516 = VERTEX_POINT ( 'NONE', #108 ) ;
#517 = ORIENTED_EDGE ( 'NONE', *, *, #200, .T. ) ;
#518 = VERTEX_POINT ( 'NONE', #136 ) ;
#519 = ORIENTED_EDGE ( 'NONE', *, *, #171, .F. ) ;
#520 = EDGE_LOOP ( 'NONE', ( #439, #427, #417, #440 ) ) ;
#521 = EDGE_LOOP ( 'NONE', ( #421, #442, #423, #424 ) ) ;
#522 = EDGE_LOOP ( 'NONE', ( #449, #458, #415, #431 ) ) ;
#523 = EDGE_LOOP ( 'NONE', ( #403, #407, #387, #404 ) ) ;
#524 = EDGE_LOOP ( 'NONE', ( #413, #409, #396, #398 ) ) ;
#525 = EDGE_LOOP ( 'NONE', ( #455, #420, #465, #443, #467, #517, #416, #462, #434, #450, #425, #426, #456 ) ) ;
#526 = EDGE_LOOP ( 'NONE', ( #428, #437, #459, #451 ) ) ;
#527 = EDGE_LOOP ( 'NONE', ( #384, #400, #394, #402, #383 ) ) ;
#528 = EDGE_LOOP ( 'NONE', ( #364, #370, #378, #395, #401 ) ) ;
#529 = EDGE_LOOP ( 'NONE', ( #410, #411, #412, #468 ) ) ;
#530 = FACE_OUTER_BOUND ( 'NONE', #520, .T. ) ;
#531 = FACE_OUTER_BOUND ( 'NONE', #523, .T. ) ;
#532 = FACE_OUTER_BOUND ( 'NONE', #525, .T. ) ;
#533 = FACE_OUTER_BOUND ( 'NONE', #528, .T. ) ;
#534 = FACE_OUTER_BOUND ( 'NONE', #524, .T. ) ;
#535 = CONICAL_SURFACE ( 'NONE', #246, 2.524999999999999900, 0.7853981633974492800 ) ;
#536 = FACE_OUTER_BOUND ( 'NONE', #521, .T. ) ;
#537 = FACE_OUTER_BOUND ( 'NONE', #550, .T. ) ;
#538 = EDGE_LOOP ( 'NONE', ( #446, #438, #485, #498 ) ) ;
#539 = FACE_OUTER_BOUND ( 'NONE', #526, .T. ) ;
#540 = FACE_OUTER_BOUND ( 'NONE', #522, .T. ) ;
#541 = FACE_OUTER_BOUND ( 'NONE', #529, .T. ) ;
#542 = FACE_OUTER_BOUND ( 'NONE', #547, .T. ) ;
#543 = EDGE_LOOP ( 'NONE', ( #363, #368, #362, #365, #361, #369 ) ) ;
#544 = FACE_OUTER_BOUND ( 'NONE', #549, .T. ) ;
#545 = EDGE_LOOP ( 'NONE', ( #366, #392, #430, #376, #390 ) ) ;
#546 = LINE ( 'NONE', #605, #571 ) ;
#547 = EDGE_LOOP ( 'NONE', ( #488, #453, #418, #460, #464, #452, #445, #466, #469, #474, #435, #519, #480 ) ) ;
#548 = EDGE_LOOP ( 'NONE', ( #448, #444, #419, #433, #432, #461 ) ) ;
#549 = EDGE_LOOP ( 'NONE', ( #436, #486, #463, #429 ) ) ;
#550 = EDGE_LOOP ( 'NONE', ( #414, #382, #386, #405 ) ) ;
#551 = FACE_OUTER_BOUND ( 'NONE', #512, .T. ) ;
#552 = EDGE_LOOP ( 'NONE', ( #385, #379, #377, #373, #367, #391 ) ) ;
#553 = CYLINDRICAL_SURFACE ( 'NONE', #230, 2.099999999999998800 ) ;
#554 = EDGE_LOOP ( 'NONE', ( #447, #511, #422, #457, #454, #441 ) ) ;
#555 = VECTOR ( 'NONE', #648, 1000.000000000000000 ) ;
#556 = FACE_BOUND ( 'NONE', #495, .T. ) ;
#557 = FACE_OUTER_BOUND ( 'NONE', #554, .T. ) ;
#558 = LINE ( 'NONE', #641, #573 ) ;
#559 = LINE ( 'NONE', #668, #567 ) ;
#560 = CONICAL_SURFACE ( 'NONE', #214, 2.524999999999999900, 0.7853981633974492800 ) ;
#561 = FACE_OUTER_BOUND ( 'NONE', #527, .T. ) ;
#562 = CYLINDRICAL_SURFACE ( 'NONE', #213, 2.099999999999998800 ) ;
#563 = FACE_OUTER_BOUND ( 'NONE', #545, .T. ) ;
#564 = FACE_OUTER_BOUND ( 'NONE', #543, .T. ) ;
#565 = FACE_OUTER_BOUND ( 'NONE', #548, .T. ) ;
#566 = LINE ( 'NONE', #670, #555 ) ;
#567 = VECTOR ( 'NONE', #654, 1000.000000000000100 ) ;
#568 = LINE ( 'NONE', #635, #572 ) ;
#569 = FACE_OUTER_BOUND ( 'NONE', #538, .T. ) ;
#570 = FACE_OUTER_BOUND ( 'NONE', #552, .T. ) ;
#571 = VECTOR ( 'NONE', #608, 1000.000000000000000 ) ;
#572 = VECTOR ( 'NONE', #651, 1000.000000000000000 ) ;
#573 = VECTOR ( 'NONE', #637, 1000.000000000000000 ) ;
#574 = VECTOR ( 'NONE', #660, 1000.000000000000000 ) ;
#575 = VECTOR ( 'NONE', #644, 1000.000000000000000 ) ;
#576 = CIRCLE ( 'NONE', #227, 2.524999999999999900 ) ;
#577 = VECTOR ( 'NONE', #689, 1000.000000000000000 ) ;
#578 = CIRCLE ( 'NONE', #215, 2.099999999999999200 ) ;
#579 = LINE ( 'NONE', #658, #574 ) ;
#580 = LINE ( 'NONE', #657, #575 ) ;
#581 = LINE ( 'NONE', #687, #583 ) ;
#582 = VECTOR ( 'NONE', #703, 1000.000000000000000 ) ;
#583 = VECTOR ( 'NONE', #690, 1000.000000000000000 ) ;
#584 = LINE ( 'NONE', #661, #577 ) ;
#585 = CIRCLE ( 'NONE', #225, 2.099999999999997900 ) ;
#586 = LINE ( 'NONE', #708, #582 ) ;
#587 = DIRECTION ( 'NONE',  ( 0.7071067811865561200, 0.7071067811865390200, -0.0000000000000000000 ) ) ;
#588 = DIRECTION ( 'NONE',  ( 0.0000000000000000000, 1.000000000000000000, 0.0000000000000000000 ) ) ;
#589 = DIRECTION ( 'NONE',  ( 0.0000000000000000000, 0.0000000000000000000, -1.000000000000000000 ) ) ;
#590 = CARTESIAN_POINT ( 'NONE',  ( 0.0000000000000000000, 0.0000000000000000000, 0.0000000000000000000 ) ) ;
#591 = DIRECTION ( 'NONE',  ( -0.0000000000000000000, -1.000000000000000000, -0.0000000000000000000 ) ) ;
#592 = DIRECTION ( 'NONE',  ( 0.0000000000000000000, -0.0000000000000000000, 1.000000000000000000 ) ) ;
#593 = DIRECTION ( 'NONE',  ( -0.7071067811865406900, -0.7071067811865544600, 0.0000000000000000000 ) ) ;
#594 = DIRECTION ( 'NONE',  ( 0.7071067811865561200, 0.7071067811865390200, -0.0000000000000000000 ) ) ;
#595 = CARTESIAN_POINT ( 'NONE',  ( 0.0000000000000000000, 0.0000000000000000000, -10.00000000000000000 ) ) ;
#596 = DIRECTION ( 'NONE',  ( 0.0000000000000000000, -0.0000000000000000000, -1.000000000000000000 ) ) ;
#597 = DIRECTION ( 'NONE',  ( 0.0000000000000000000, -0.0000000000000000000, 1.000000000000000000 ) ) ;
#598 = DIRECTION ( 'NONE',  ( -0.0000000000000000000, -1.000000000000000000, -0.0000000000000000000 ) ) ;
#599 = DIRECTION ( 'NONE',  ( -0.0000000000000000000, -1.000000000000000000, -0.0000000000000000000 ) ) ;
#600 = DIRECTION ( 'NONE',  ( 0.0000000000000000000, 0.0000000000000000000, -1.000000000000000000 ) ) ;
#601 = DIRECTION ( 'NONE',  ( 0.0000000000000000000, 1.000000000000000000, 0.0000000000000000000 ) ) ;
#602 = DIRECTION ( 'NONE',  ( -0.7071067811865390200, 0.7071067811865561200, 0.0000000000000000000 ) ) ;
#603 = PLANE ( 'NONE',  #241 ) ;
#604 = CARTESIAN_POINT ( 'NONE',  ( 0.05000930593059078900, 0.4499906940694202700, -2.099553381490519400 ) ) ;
#605 = CARTESIAN_POINT ( 'NONE',  ( 1.224646799147351300E-015, 0.5000000000000111000, -10.00000000000000000 ) ) ;
#606 = PLANE ( 'NONE',  #211 ) ;
#607 = DIRECTION ( 'NONE',  ( 0.0000000000000000000, 0.0000000000000000000, -1.000000000000000000 ) ) ;
#608 = DIRECTION ( 'NONE',  ( 0.7071067811865390200, -0.7071067811865561200, 0.0000000000000000000 ) ) ;
#609 = CARTESIAN_POINT ( 'NONE',  ( 0.02500664727504784900, 0.4749933527249637400, -2.099999999999998800 ) ) ;
#610 = CARTESIAN_POINT ( 'NONE',  ( 0.07500000000001053000, 0.4249999999999999900, -2.098660286944982200 ) ) ;
#611 = PLANE ( 'NONE',  #226 ) ;
#612 = CARTESIAN_POINT ( 'NONE',  ( 0.5000000000000001100, 0.0000000000000000000, 10.00000000000000000 ) ) ;
#613 = CARTESIAN_POINT ( 'NONE',  ( 1.224646799147351300E-015, 0.5000000000000111000, 10.00000000000000000 ) ) ;
#614 = DIRECTION ( 'NONE',  ( -0.7071067811865544600, 0.7071067811865406900, 0.0000000000000000000 ) ) ;
#615 = CARTESIAN_POINT ( 'NONE',  ( 4.900000000000000400, 5.000000000000000000, 10.00000000000000000 ) ) ;
#616 = CARTESIAN_POINT ( 'NONE',  ( 1.224646799147351300E-015, 0.5000000000000111000, -2.099999999999996100 ) ) ;
#617 = DIRECTION ( 'NONE',  ( 0.0000000000000000000, 0.0000000000000000000, -1.000000000000000000 ) ) ;
#618 = DIRECTION ( 'NONE',  ( -1.000000000000000000, 0.0000000000000000000, 0.0000000000000000000 ) ) ;
#619 = PLANE ( 'NONE',  #223 ) ;
#620 = CARTESIAN_POINT ( 'NONE',  ( 0.0000000000000000000, 0.0000000000000000000, 0.0000000000000000000 ) ) ;
#621 = CARTESIAN_POINT ( 'NONE',  ( 1.224646799147351300E-015, 0.5000000000000111000, 10.00000000000000000 ) ) ;
#622 = DIRECTION ( 'NONE',  ( -0.7071067811865390200, 0.7071067811865561200, 0.0000000000000000000 ) ) ;
#623 = CARTESIAN_POINT ( 'NONE',  ( 0.0000000000000000000, 0.0000000000000000000, 0.0000000000000000000 ) ) ;
#624 = CARTESIAN_POINT ( 'NONE',  ( 6.800000000000068200, 10.49999999999999800, 10.00000000000000000 ) ) ;
#625 = CARTESIAN_POINT ( 'NONE',  ( -4.900000000000000400, 0.0000000000000000000, 10.00000000000000000 ) ) ;
#626 = DIRECTION ( 'NONE',  ( 1.000000000000000000, 0.0000000000000000000, 0.0000000000000000000 ) ) ;
#627 = PLANE ( 'NONE',  #248 ) ;
#628 = PLANE ( 'NONE',  #221 ) ;
#629 = PLANE ( 'NONE',  #210 ) ;
#630 = CARTESIAN_POINT ( 'NONE',  ( 1.224646799147351300E-015, 0.5000000000000111000, 10.00000000000000000 ) ) ;
#631 = DIRECTION ( 'NONE',  ( 0.0000000000000000000, -1.000000000000000000, 0.0000000000000000000 ) ) ;
#632 = PLANE ( 'NONE',  #222 ) ;
#633 = DIRECTION ( 'NONE',  ( 0.7071067811865396900, -0.7071067811865553400, 0.0000000000000000000 ) ) ;
#634 = DIRECTION ( 'NONE',  ( 0.0000000000000000000, 0.0000000000000000000, -1.000000000000000000 ) ) ;
#635 = CARTESIAN_POINT ( 'NONE',  ( 0.5000000000000001100, 0.0000000000000000000, 10.00000000000000000 ) ) ;
#636 = CARTESIAN_POINT ( 'NONE',  ( -0.07500000000000835200, 0.4250000000000000400, -2.098660286944982200 ) ) ;
#637 = DIRECTION ( 'NONE',  ( -0.0000000000000000000, -0.0000000000000000000, -1.000000000000000000 ) ) ;
#638 = CARTESIAN_POINT ( 'NONE',  ( -0.07500000000000835200, 0.4250000000000000400, 2.098660286944982200 ) ) ;
#639 = CARTESIAN_POINT ( 'NONE',  ( -0.05000930593058846400, 0.4499906940694203800, 2.099553381490519000 ) ) ;
#640 = CARTESIAN_POINT ( 'NONE',  ( 0.2131773440634972500, 0.2868226559365099100, 2.231987783285960300 ) ) ;
#641 = CARTESIAN_POINT ( 'NONE',  ( 1.224646799147351300E-015, 0.5000000000000111000, 10.00000000000000000 ) ) ;
#642 = CARTESIAN_POINT ( 'NONE',  ( 1.224646799147351300E-015, 0.5000000000000111000, 2.099999999999999600 ) ) ;
#643 = CARTESIAN_POINT ( 'NONE',  ( 0.07500000000001053000, 0.4249999999999999900, -2.098660286944982200 ) ) ;
#644 = DIRECTION ( 'NONE',  ( -0.0000000000000000000, -0.0000000000000000000, -1.000000000000000000 ) ) ;
#645 = DIRECTION ( 'NONE',  ( 0.0000000000000000000, 0.0000000000000000000, -1.000000000000000000 ) ) ;
#646 = CARTESIAN_POINT ( 'NONE',  ( 0.3552334930363637600, 0.1447665069636399900, -2.356554676120664400 ) ) ;
#647 = DIRECTION ( 'NONE',  ( -0.0000000000000000000, -1.000000000000000000, -0.0000000000000000000 ) ) ;
#648 = DIRECTION ( 'NONE',  ( -0.0000000000000000000, -0.0000000000000000000, -1.000000000000000000 ) ) ;
#649 = CARTESIAN_POINT ( 'NONE',  ( 0.3552334930363639200, 0.1447665069636397400, 2.356554676120664800 ) ) ;
#650 = CARTESIAN_POINT ( 'NONE',  ( 0.0000000000000000000, 10.49999999999999800, 0.0000000000000000000 ) ) ;
#651 = DIRECTION ( 'NONE',  ( -0.0000000000000000000, -0.0000000000000000000, -1.000000000000000000 ) ) ;
#652 = DIRECTION ( 'NONE',  ( 0.0000000000000000000, 0.0000000000000000000, -1.000000000000000000 ) ) ;
#653 = CARTESIAN_POINT ( 'NONE',  ( -0.02500664727504438600, 0.4749933527249648500, -2.099999999999998800 ) ) ;
#654 = DIRECTION ( 'NONE',  ( 0.7071067811865406900, 0.7071067811865544600, -0.0000000000000000000 ) ) ;
#655 = CARTESIAN_POINT ( 'NONE',  ( -0.02500664727504551800, 0.4749933527249637900, 2.099999999999998800 ) ) ;
#656 = CARTESIAN_POINT ( 'NONE',  ( 0.2131773440634970300, 0.2868226559365101300, -2.231987783285960300 ) ) ;
#657 = CARTESIAN_POINT ( 'NONE',  ( 1.224646799147351300E-015, 0.5000000000000111000, 10.00000000000000000 ) ) ;
#658 = CARTESIAN_POINT ( 'NONE',  ( -0.5000000000000001100, 0.0000000000000000000, 10.00000000000000000 ) ) ;
#659 = CARTESIAN_POINT ( 'NONE',  ( 1.224646799147351300E-015, 0.5000000000000111000, -2.099999999999996100 ) ) ;
#660 = DIRECTION ( 'NONE',  ( -0.0000000000000000000, -0.0000000000000000000, -1.000000000000000000 ) ) ;
#661 = CARTESIAN_POINT ( 'NONE',  ( 1.224646799147351300E-015, 0.5000000000000111000, 10.00000000000000000 ) ) ;
#662 = CARTESIAN_POINT ( 'NONE',  ( 0.5000000000000002200, 0.0000000000000000000, -2.474999999999999600 ) ) ;
#663 = DIRECTION ( 'NONE',  ( -0.0000000000000000000, -1.000000000000000000, -0.0000000000000000000 ) ) ;
#664 = CARTESIAN_POINT ( 'NONE',  ( 0.0000000000000000000, 0.4250000000000000400, 0.0000000000000000000 ) ) ;
#665 = CARTESIAN_POINT ( 'NONE',  ( -0.05000930593058716700, 0.4499906940694216000, -2.099553381490519000 ) ) ;
#666 = CARTESIAN_POINT ( 'NONE',  ( -0.07500000000000835200, 0.4250000000000000400, -2.098660286944982200 ) ) ;
#667 = CARTESIAN_POINT ( 'NONE',  ( -0.2131773440634956200, 0.2868226559365100700, -2.231987783285960300 ) ) ;
#668 = CARTESIAN_POINT ( 'NONE',  ( 1.224646799147351300E-015, 0.5000000000000111000, -10.00000000000000000 ) ) ;
#669 = CARTESIAN_POINT ( 'NONE',  ( 0.07500000000001046100, 0.4250000000000000400, 2.098660286944982200 ) ) ;
#670 = CARTESIAN_POINT ( 'NONE',  ( 4.900000000000000400, 0.0000000000000000000, 10.00000000000000000 ) ) ;
#671 = CARTESIAN_POINT ( 'NONE',  ( 0.5000000000000002200, 0.0000000000000000000, 2.474999999999999600 ) ) ;
#672 = DIRECTION ( 'NONE',  ( -0.0000000000000000000, -0.0000000000000000000, -1.000000000000000000 ) ) ;
#673 = DIRECTION ( 'NONE',  ( -0.7071067811865394700, -0.7071067811865555700, -0.0000000000000000000 ) ) ;
#674 = CARTESIAN_POINT ( 'NONE',  ( 9.800000000000000700, 5.000000000000000000, -10.00000000000000000 ) ) ;
#675 = DIRECTION ( 'NONE',  ( 0.0000000000000000000, 0.0000000000000000000, -1.000000000000000000 ) ) ;
#676 = CARTESIAN_POINT ( 'NONE',  ( -4.900000000000000400, 0.0000000000000000000, 10.00000000000000000 ) ) ;
#677 = DIRECTION ( 'NONE',  ( -0.0000000000000000000, -1.000000000000000000, -0.0000000000000000000 ) ) ;
#678 = DIRECTION ( 'NONE',  ( 0.0000000000000000000, 0.0000000000000000000, -1.000000000000000000 ) ) ;
#679 = DIRECTION ( 'NONE',  ( -0.0000000000000000000, -1.000000000000000000, -0.0000000000000000000 ) ) ;
#680 = CARTESIAN_POINT ( 'NONE',  ( 4.900000000000000400, 0.0000000000000000000, 10.00000000000000000 ) ) ;
#681 = DIRECTION ( 'NONE',  ( -0.0000000000000000000, -1.000000000000000000, -0.0000000000000000000 ) ) ;
#682 = DIRECTION ( 'NONE',  ( 0.0000000000000000000, 0.0000000000000000000, -1.000000000000000000 ) ) ;
#683 = DIRECTION ( 'NONE',  ( -0.7071067811865394700, -0.7071067811865555700, -0.0000000000000000000 ) ) ;
#684 = CARTESIAN_POINT ( 'NONE',  ( -9.800000000000000700, 5.000000000000000000, 10.00000000000000000 ) ) ;
#685 = CARTESIAN_POINT ( 'NONE',  ( -9.800000000000000700, 7.500000000000000000, -10.00000000000000000 ) ) ;
#686 = DIRECTION ( 'NONE',  ( -0.0000000000000000000, -0.0000000000000000000, -1.000000000000000000 ) ) ;
#687 = CARTESIAN_POINT ( 'NONE',  ( 9.800000000000000700, 5.000000000000000000, 10.00000000000000000 ) ) ;
#688 = CARTESIAN_POINT ( 'NONE',  ( 0.0000000000000000000, 0.0000000000000000000, -2.099999999999998800 ) ) ;
#689 = DIRECTION ( 'NONE',  ( 0.7071067811865390200, -0.7071067811865561200, 0.0000000000000000000 ) ) ;
#690 = DIRECTION ( 'NONE',  ( -0.0000000000000000000, -0.0000000000000000000, -1.000000000000000000 ) ) ;
#691 = CARTESIAN_POINT ( 'NONE',  ( 0.0000000000000000000, 10.49999999999999800, 0.0000000000000000000 ) ) ;
#692 = CARTESIAN_POINT ( 'NONE',  ( 0.5000000000000001100, 0.0000000000000000000, -10.00000000000000000 ) ) ;
#693 = CARTESIAN_POINT ( 'NONE',  ( -9.800000000000000700, 5.000000000000000000, -10.00000000000000000 ) ) ;
#694 = CARTESIAN_POINT ( 'NONE',  ( -4.900000000000000400, 0.0000000000000000000, 10.00000000000000000 ) ) ;
#695 = CARTESIAN_POINT ( 'NONE',  ( 6.800000000000068200, 10.49999999999999800, 10.00000000000000000 ) ) ;
#696 = DIRECTION ( 'NONE',  ( 0.0000000000000000000, 1.000000000000000000, 0.0000000000000000000 ) ) ;
#697 = DIRECTION ( 'NONE',  ( -0.0000000000000000000, -0.0000000000000000000, -1.000000000000000000 ) ) ;
#698 = CARTESIAN_POINT ( 'NONE',  ( 9.800000000000000700, 7.500000000000000000, 10.00000000000000000 ) ) ;
#699 = CARTESIAN_POINT ( 'NONE',  ( 2.571758278209440000E-016, 0.0000000000000000000, 2.099999999999998800 ) ) ;
#700 = DIRECTION ( 'NONE',  ( 1.000000000000000000, -0.0000000000000000000, -0.0000000000000000000 ) ) ;
#701 = CARTESIAN_POINT ( 'NONE',  ( 0.0000000000000000000, 0.0000000000000000000, 0.0000000000000000000 ) ) ;
#702 = CARTESIAN_POINT ( 'NONE',  ( 0.0000000000000000000, 0.0000000000000000000, 0.0000000000000000000 ) ) ;
#703 = DIRECTION ( 'NONE',  ( 0.0000000000000000000, 1.000000000000000000, 0.0000000000000000000 ) ) ;
#704 = CARTESIAN_POINT ( 'NONE',  ( -0.5000000000000001100, 0.0000000000000000000, -2.474999999999999600 ) ) ;
#705 = DIRECTION ( 'NONE',  ( -0.0000000000000000000, -1.000000000000000000, -0.0000000000000000000 ) ) ;
#706 = DIRECTION ( 'NONE',  ( -0.7071067811865396900, 0.7071067811865553400, 0.0000000000000000000 ) ) ;
#707 = DIRECTION ( 'NONE',  ( 1.000000000000000000, 0.0000000000000000000, 0.0000000000000000000 ) ) ;
#708 = CARTESIAN_POINT ( 'NONE',  ( 4.900000000000000400, 0.0000000000000000000, -10.00000000000000000 ) ) ;
#709 = CARTESIAN_POINT ( 'NONE',  ( -0.5000000000000001100, 0.0000000000000000000, 10.00000000000000000 ) ) ;
#710 = DIRECTION ( 'NONE',  ( -0.0000000000000000000, -1.000000000000000000, -0.0000000000000000000 ) ) ;
#711 = CARTESIAN_POINT ( 'NONE',  ( -9.800000000000000700, 7.500000000000000000, 10.00000000000000000 ) ) ;
#712 = DIRECTION ( 'NONE',  ( -0.0000000000000000000, -1.000000000000000000, -0.0000000000000000000 ) ) ;
#713 = CARTESIAN_POINT ( 'NONE',  ( -0.3552334930363630900, 0.1447665069636398800, -2.356554676120664400 ) ) ;
#714 = DIRECTION ( 'NONE',  ( -0.0000000000000000000, -1.000000000000000000, -0.0000000000000000000 ) ) ;
#715 = DIRECTION ( 'NONE',  ( -1.000000000000000000, 0.0000000000000000000, 0.0000000000000000000 ) ) ;
#716 = CARTESIAN_POINT ( 'NONE',  ( 0.0000000000000000000, 0.0000000000000000000, 10.00000000000000000 ) ) ;
#717 = PLANE ( 'NONE',  #196 ) ;
#718 = PLANE ( 'NONE',  #219 ) ;
#719 = PLANE ( 'NONE',  #194 ) ;
#720 = DIRECTION ( 'NONE',  ( 0.0000000000000000000, 0.0000000000000000000, 1.000000000000000000 ) ) ;
#721 = CARTESIAN_POINT ( 'NONE',  ( 9.800000000000000700, 5.000000000000000000, 10.00000000000000000 ) ) ;
#722 = DIRECTION ( 'NONE',  ( -1.000000000000000000, 0.0000000000000000000, 0.0000000000000000000 ) ) ;
#723 = CARTESIAN_POINT ( 'NONE',  ( -0.5000000000000001100, 0.0000000000000000000, 10.00000000000000000 ) ) ;
#724 = DIRECTION ( 'NONE',  ( 0.0000000000000000000, 0.0000000000000000000, 1.000000000000000000 ) ) ;
#725 = CARTESIAN_POINT ( 'NONE',  ( 0.0000000000000000000, 0.0000000000000000000, 0.0000000000000000000 ) ) ;
#726 = PLANE ( 'NONE',  #224 ) ;
#727 = PLANE ( 'NONE',  #220 ) ;
#728 = DIRECTION ( 'NONE',  ( 0.0000000000000000000, 0.0000000000000000000, 1.000000000000000000 ) ) ;
#729 = CARTESIAN_POINT ( 'NONE',  ( -9.800000000000000700, 7.500000000000000000, 10.00000000000000000 ) ) ;
#730 = DIRECTION ( 'NONE',  ( 0.7071067811865555700, -0.7071067811865394700, 0.0000000000000000000 ) ) ;
#731 = DIRECTION ( 'NONE',  ( 0.0000000000000000000, 0.0000000000000000000, -1.000000000000000000 ) ) ;
#732 = DIRECTION ( 'NONE',  ( -1.000000000000000000, 0.0000000000000000000, 0.0000000000000000000 ) ) ;
#733 = DIRECTION ( 'NONE',  ( 0.7071067811865394700, 0.7071067811865555700, 0.0000000000000000000 ) ) ;
#734 = DIRECTION ( 'NONE',  ( 0.0000000000000000000, 1.000000000000000000, -0.0000000000000000000 ) ) ;
#735 = CARTESIAN_POINT ( 'NONE',  ( 4.900000000000000400, 0.0000000000000000000, 10.00000000000000000 ) ) ;
#736 = DIRECTION ( 'NONE',  ( -0.0000000000000000000, -1.000000000000000000, -0.0000000000000000000 ) ) ;
#737 = DIRECTION ( 'NONE',  ( 0.0000000000000000000, 0.0000000000000000000, -1.000000000000000000 ) ) ;
#738 = PLANE ( 'NONE',  #245 ) ;
#739 = CARTESIAN_POINT ( 'NONE',  ( -9.800000000000000700, 5.000000000000000000, 10.00000000000000000 ) ) ;
#740 = DIRECTION ( 'NONE',  ( -0.7071067811865544600, 0.7071067811865406900, 0.0000000000000000000 ) ) ;
#741 = DIRECTION ( 'NONE',  ( -0.7071067811865553400, -0.7071067811865396900, 0.0000000000000000000 ) ) ;
#742 = DIRECTION ( 'NONE',  ( 0.0000000000000000000, 0.0000000000000000000, -1.000000000000000000 ) ) ;
#743 = PLANE ( 'NONE',  #228 ) ;
#744 = CARTESIAN_POINT ( 'NONE',  ( -4.900000000000000400, 5.000000000000000000, 10.00000000000000000 ) ) ;
#745 = DIRECTION ( 'NONE',  ( 0.0000000000000000000, 0.0000000000000000000, 1.000000000000000000 ) ) ;
#746 = DIRECTION ( 'NONE',  ( 0.0000000000000000000, 1.000000000000000000, -0.0000000000000000000 ) ) ;
#747 = DIRECTION ( 'NONE',  ( 1.000000000000000000, 0.0000000000000000000, 0.0000000000000000000 ) ) ;
#748 = DIRECTION ( 'NONE',  ( -0.7071067811865406900, -0.7071067811865544600, 0.0000000000000000000 ) ) ;
#749 = CARTESIAN_POINT ( 'NONE',  ( 1.224646799147351300E-015, 0.5000000000000111000, 10.00000000000000000 ) ) ;
#750 = DIRECTION ( 'NONE',  ( 0.0000000000000000000, 1.000000000000000000, 0.0000000000000000000 ) ) ;
#751 = PLANE ( 'NONE',  #212 ) ;
#752 = CARTESIAN_POINT ( 'NONE',  ( 9.800000000000000700, 7.500000000000000000, 10.00000000000000000 ) ) ;
#753 = PLANE ( 'NONE',  #247 ) ;
#754 = PRODUCT ( 'ALP0641', 'ALP0641', '', ( #127 ) ) ;
#755 = PERSON ( 'UNSPECIFIED', 'UNSPECIFIED', 'UNSPECIFIED', ('UNSPECIFIED'), ('UNSPECIFIED'), ('UNSPECIFIED') ) ;
ENDSEC;
END-ISO-10303-21;
