ISO-10303-21;
HEADER;
FILE_DESCRIPTION (( 'STEP AP203' ),
    '1' );
FILE_NAME ('ALP0642.STEP',
    '2017-02-01T16:23:45',
    ( '' ),
    ( '' ),
    'SwSTEP 2.0',
    'SolidWorks 2012',
    '' );
FILE_SCHEMA (( 'CONFIG_CONTROL_DESIGN' ));
ENDSEC;

DATA;
#1 = B_SPLINE_CURVE_WITH_KNOTS ( 'NONE', 3,
 ( #621, #653, #622, #634 ),
 .UNSPECIFIED., .F., .F.,
 ( 4, 4 ),
 ( 3.461328779225235400E-007, 0.0008430339703967663900 ),
 .UNSPECIFIED. ) ;
#2 = B_SPLINE_CURVE_WITH_KNOTS ( 'NONE', 3,
 ( #669, #693, #704, #725 ),
 .UNSPECIFIED., .F., .F.,
 ( 4, 4 ),
 ( 3.461328779226472000E-007, 0.0008430339703967652000 ),
 .UNSPECIFIED. ) ;
#3 = ADVANCED_BREP_SHAPE_REPRESENTATION ( 'ALP0642', ( #5, #214 ), #203 ) ;
#4 = B_SPLINE_CURVE_WITH_KNOTS ( 'NONE', 3,
 ( #686, #684, #671, #657 ),
 .UNSPECIFIED., .F., .F.,
 ( 4, 4 ),
 ( 3.294101292505208200E-007, 0.0008430172476480946800 ),
 .UNSPECIFIED. ) ;
#5 = MANIFOLD_SOLID_BREP ( 'M6 Tapped Hole1', #334 ) ;
#6 = UNCERTAINTY_MEASURE_WITH_UNIT (LENGTH_MEASURE( 1.000000000000000100E-005 ), #78, 'distance_accuracy_value', 'NONE');
#7 = B_SPLINE_CURVE_WITH_KNOTS ( 'NONE', 3,
 ( #651, #629, #638, #643 ),
 .UNSPECIFIED., .F., .F.,
 ( 4, 4 ),
 ( 3.294101292505306700E-007, 0.0008430172476480931600 ),
 .UNSPECIFIED. ) ;
#8 = ADVANCED_FACE ( 'NONE', ( #249 ), #698, .T. ) ;
#9 = ADVANCED_FACE ( 'NONE', ( #387 ), #425, .F. ) ;
#10 = ADVANCED_FACE ( 'NONE', ( #391 ), #421, .F. ) ;
#11 = ADVANCED_FACE ( 'NONE', ( #441 ), #705, .F. ) ;
#12 = ADVANCED_FACE ( 'NONE', ( #393, #431 ), #707, .F. ) ;
#13 = ADVANCED_FACE ( 'NONE', ( #422 ), #712, .F. ) ;
#14 = ADVANCED_FACE ( 'NONE', ( #400 ), #721, .F. ) ;
#15 = ADVANCED_FACE ( 'NONE', ( #409 ), #714, .F. ) ;
#16 = ADVANCED_FACE ( 'NONE', ( #388 ), #424, .F. ) ;
#17 = ADVANCED_FACE ( 'NONE', ( #442 ), #597, .F. ) ;
#18 = ADVANCED_FACE ( 'NONE', ( #426 ), #601, .F. ) ;
#19 = ADVANCED_FACE ( 'NONE', ( #398 ), #569, .F. ) ;
#20 = ADVANCED_FACE ( 'NONE', ( #423 ), #403, .F. ) ;
#21 = ADVANCED_FACE ( 'NONE', ( #444 ), #570, .F. ) ;
#22 = ADVANCED_FACE ( 'NONE', ( #392 ), #592, .F. ) ;
#23 = ADVANCED_FACE ( 'NONE', ( #390 ), #590, .F. ) ;
#24 = ADVANCED_FACE ( 'NONE', ( #428 ), #610, .F. ) ;
#25 = ADVANCED_FACE ( 'NONE', ( #430 ), #611, .F. ) ;
#26 = ADVANCED_FACE ( 'NONE', ( #429 ), #576, .F. ) ;
#27 = ADVANCED_FACE ( 'NONE', ( #410 ), #613, .F. ) ;
#28 = ADVANCED_FACE ( 'NONE', ( #389 ), #578, .F. ) ;
#29 = CARTESIAN_POINT ( 'NONE',  ( 4.900000000000000400, 0.0000000000000000000, 10.00000000000000000 ) ) ;
#30 = CARTESIAN_POINT ( 'NONE',  ( 1.251092344015349300E-015, 0.5000000000000111000, -2.524999999999987900 ) ) ;
#31 = DIRECTION ( 'NONE',  ( -0.0000000000000000000, -1.000000000000000000, -0.0000000000000000000 ) ) ;
#32 = DIRECTION ( 'NONE',  ( 0.0000000000000000000, 0.0000000000000000000, -1.000000000000000000 ) ) ;
#33 = DIRECTION ( 'NONE',  ( -0.0000000000000000000, -0.0000000000000000000, -1.000000000000000000 ) ) ;
#34 = CARTESIAN_POINT ( 'NONE',  ( 1.376298398493944800E-015, 0.5000000000000109900, 2.524999999999987900 ) ) ;
#35 = CARTESIAN_POINT ( 'NONE',  ( -0.5000000000000001100, 0.0000000000000000000, -10.00000000000000000 ) ) ;
#36 = CARTESIAN_POINT ( 'NONE',  ( -0.5000000000000001100, 0.0000000000000000000, 10.00000000000000000 ) ) ;
#37 = CARTESIAN_POINT ( 'NONE',  ( -4.900000000000000400, 5.000000000000000000, -10.00000000000000000 ) ) ;
#38 = DIRECTION ( 'NONE',  ( 1.000000000000000000, 0.0000000000000000000, 0.0000000000000000000 ) ) ;
#39 = CARTESIAN_POINT ( 'NONE',  ( 9.800000000000000700, 5.000000000000000000, 10.00000000000000000 ) ) ;
#40 = CARTESIAN_POINT ( 'NONE',  ( 0.0000000000000000000, 0.0000000000000000000, -2.499999999999998700 ) ) ;
#41 = CARTESIAN_POINT ( 'NONE',  ( -9.800000000000000700, 7.500000000000000000, -10.00000000000000000 ) ) ;
#42 = CARTESIAN_POINT ( 'NONE',  ( -4.900000000000000400, 0.0000000000000000000, -10.00000000000000000 ) ) ;
#43 = DIRECTION ( 'NONE',  ( -0.7071067811865394700, -0.7071067811865555700, -0.0000000000000000000 ) ) ;
#44 = DIRECTION ( 'NONE',  ( -0.0000000000000000000, -0.0000000000000000000, -1.000000000000000000 ) ) ;
#45 = CARTESIAN_POINT ( 'NONE',  ( -9.800000000000000700, 7.500000000000000000, 10.00000000000000000 ) ) ;
#46 = DIRECTION ( 'NONE',  ( -0.0000000000000000000, -0.0000000000000000000, -1.000000000000000000 ) ) ;
#47 = DIRECTION ( 'NONE',  ( -0.7071067811865394700, -0.7071067811865555700, -0.0000000000000000000 ) ) ;
#48 = CARTESIAN_POINT ( 'NONE',  ( 0.0000000000000000000, 0.5249999999999994700, 0.0000000000000000000 ) ) ;
#49 = DIRECTION ( 'NONE',  ( -0.0000000000000000000, -1.000000000000000000, -0.0000000000000000000 ) ) ;
#50 = CARTESIAN_POINT ( 'NONE',  ( -9.800000000000000700, 7.500000000000000000, 10.00000000000000000 ) ) ;
#51 = DIRECTION ( 'NONE',  ( 1.000000000000000000, -0.0000000000000000000, -0.0000000000000000000 ) ) ;
#52 = CARTESIAN_POINT ( 'NONE',  ( -4.900000000000000400, 0.0000000000000000000, 10.00000000000000000 ) ) ;
#53 = CARTESIAN_POINT ( 'NONE',  ( 0.0000000000000000000, 0.5249999999999994700, 0.0000000000000000000 ) ) ;
#54 = DIRECTION ( 'NONE',  ( -0.0000000000000000000, -1.000000000000000000, -0.0000000000000000000 ) ) ;
#55 = DIRECTION ( 'NONE',  ( -0.0000000000000000000, -1.000000000000000000, -0.0000000000000000000 ) ) ;
#56 = DIRECTION ( 'NONE',  ( -0.0000000000000000000, -1.000000000000000000, -0.0000000000000000000 ) ) ;
#57 = CARTESIAN_POINT ( 'NONE',  ( -9.800000000000000700, 5.000000000000000000, -10.00000000000000000 ) ) ;
#58 = CARTESIAN_POINT ( 'NONE',  ( 4.900000000000000400, 5.000000000000000000, 10.00000000000000000 ) ) ;
#59 = DIRECTION ( 'NONE',  ( -0.0000000000000000000, -1.000000000000000000, -0.0000000000000000000 ) ) ;
#60 = DIRECTION ( 'NONE',  ( 0.0000000000000000000, 0.0000000000000000000, -1.000000000000000000 ) ) ;
#61 = DIRECTION ( 'NONE',  ( 1.000000000000000000, -0.0000000000000000000, -0.0000000000000000000 ) ) ;
#62 = DIRECTION ( 'NONE',  ( -0.0000000000000000000, -0.0000000000000000000, -1.000000000000000000 ) ) ;
#63 = CARTESIAN_POINT ( 'NONE',  ( 6.800000000000068200, 10.49999999999999800, 10.00000000000000000 ) ) ;
#64 = CARTESIAN_POINT ( 'NONE',  ( 0.5000000000000001100, 0.0000000000000000000, 10.00000000000000000 ) ) ;
#65 = CARTESIAN_POINT ( 'NONE',  ( -4.900000000000000400, 0.0000000000000000000, 10.00000000000000000 ) ) ;
#66 = CARTESIAN_POINT ( 'NONE',  ( -9.800000000000000700, 5.000000000000000000, 10.00000000000000000 ) ) ;
#67 = DIRECTION ( 'NONE',  ( -0.0000000000000000000, -0.0000000000000000000, -1.000000000000000000 ) ) ;
#68 = DIRECTION ( 'NONE',  ( -1.000000000000000000, 0.0000000000000000000, 0.0000000000000000000 ) ) ;
#69 = CARTESIAN_POINT ( 'NONE',  ( -9.800000000000000700, 7.500000000000000000, 10.00000000000000000 ) ) ;
#70 = CARTESIAN_POINT ( 'NONE',  ( 0.5000000000000001100, 0.0000000000000000000, 10.00000000000000000 ) ) ;
#71 = CARTESIAN_POINT ( 'NONE',  ( 0.5000000000000002200, 0.0000000000000000000, -2.983391526434302500 ) ) ;
#72 = CARTESIAN_POINT ( 'NONE',  ( 6.800000000000068200, 10.49999999999999800, 10.00000000000000000 ) ) ;
#73 = CARTESIAN_POINT ( 'NONE',  ( -9.800000000000000700, 5.000000000000000000, -10.00000000000000000 ) ) ;
#74 = CARTESIAN_POINT ( 'NONE',  ( 9.800000000000000700, 5.000000000000000000, -10.00000000000000000 ) ) ;
#75 = CARTESIAN_POINT ( 'NONE',  ( -9.800000000000000700, 7.500000000000000000, -10.00000000000000000 ) ) ;
#76 = CARTESIAN_POINT ( 'NONE',  ( 9.800000000000000700, 7.500000000000000000, 10.00000000000000000 ) ) ;
#77 = CARTESIAN_POINT ( 'NONE',  ( -4.900000000000000400, 0.0000000000000000000, -10.00000000000000000 ) ) ;
#78 =( LENGTH_UNIT ( ) NAMED_UNIT ( * ) SI_UNIT ( .MILLI., .METRE. ) );
#79 = CARTESIAN_POINT ( 'NONE',  ( -6.800000000000070000, 10.49999999999999800, -10.00000000000000000 ) ) ;
#80 = CARTESIAN_POINT ( 'NONE',  ( 0.5000000000000001100, 0.0000000000000000000, 2.983391526434302900 ) ) ;
#81 = CARTESIAN_POINT ( 'NONE',  ( 6.800000000000068200, 10.49999999999999800, -10.00000000000000000 ) ) ;
#82 = CARTESIAN_POINT ( 'NONE',  ( -4.900000000000000400, 5.000000000000000000, 10.00000000000000000 ) ) ;
#83 = CARTESIAN_POINT ( 'NONE',  ( 4.900000000000000400, 0.0000000000000000000, 10.00000000000000000 ) ) ;
#84 = CARTESIAN_POINT ( 'NONE',  ( 4.900000000000000400, 5.000000000000000000, -10.00000000000000000 ) ) ;
#85 = CARTESIAN_POINT ( 'NONE',  ( -0.5000000000000001100, 0.0000000000000000000, -2.983391526434302900 ) ) ;
#86 = CARTESIAN_POINT ( 'NONE',  ( 9.800000000000000700, 5.000000000000000000, 10.00000000000000000 ) ) ;
#87 = CARTESIAN_POINT ( 'NONE',  ( 1.224646799147351300E-015, 0.5000000000000111000, 10.00000000000000000 ) ) ;
#88 =( NAMED_UNIT ( * ) PLANE_ANGLE_UNIT ( ) SI_UNIT ( $, .RADIAN. ) );
#89 =( NAMED_UNIT ( * ) SI_UNIT ( $, .STERADIAN. ) SOLID_ANGLE_UNIT ( ) );
#90 = DIRECTION ( 'NONE',  ( -0.0000000000000000000, -0.0000000000000000000, -1.000000000000000000 ) ) ;
#91 = CARTESIAN_POINT ( 'NONE',  ( 3.383086782644562700E-016, 0.5249999999999994700, 2.499999999999999100 ) ) ;
#92 = CARTESIAN_POINT ( 'NONE',  ( 3.061616997868381200E-016, 10.49999999999999800, 2.499999999999997800 ) ) ;
#93 = CARTESIAN_POINT ( 'NONE',  ( -4.900000000000000400, 0.0000000000000000000, 10.00000000000000000 ) ) ;
#94 = CARTESIAN_POINT ( 'NONE',  ( -6.800000000000070000, 10.49999999999999800, 10.00000000000000000 ) ) ;
#95 = CARTESIAN_POINT ( 'NONE',  ( -0.5000000000000001100, 0.0000000000000000000, 2.983391526434302900 ) ) ;
#96 = CARTESIAN_POINT ( 'NONE',  ( 1.224646799147351300E-015, 0.5000000000000111000, -10.00000000000000000 ) ) ;
#97 = CARTESIAN_POINT ( 'NONE',  ( 9.800000000000000700, 7.500000000000000000, -10.00000000000000000 ) ) ;
#98 = CARTESIAN_POINT ( 'NONE',  ( 4.900000000000000400, 0.0000000000000000000, -10.00000000000000000 ) ) ;
#99 = CARTESIAN_POINT ( 'NONE',  ( 0.0000000000000000000, 10.49999999999999800, -2.499999999999997800 ) ) ;
#100 = CARTESIAN_POINT ( 'NONE',  ( 0.5000000000000001100, 0.0000000000000000000, -10.00000000000000000 ) ) ;
#101 = CARTESIAN_POINT ( 'NONE',  ( -0.5000000000000001100, 0.0000000000000000000, 10.00000000000000000 ) ) ;
#102 = CARTESIAN_POINT ( 'NONE',  ( 4.900000000000000400, 5.000000000000000000, 10.00000000000000000 ) ) ;
#103 = CARTESIAN_POINT ( 'NONE',  ( -4.900000000000000400, 5.000000000000000000, -10.00000000000000000 ) ) ;
#104 = CARTESIAN_POINT ( 'NONE',  ( 0.0000000000000000000, 0.5249999999999994700, -2.499999999999999100 ) ) ;
#105 = CARTESIAN_POINT ( 'NONE',  ( -0.5000000000000001100, 0.0000000000000000000, -10.00000000000000000 ) ) ;
#106 = APPROVAL_STATUS ( 'not_yet_approved' ) ;
#107 = APPROVAL_ROLE ( '' ) ;
#108 = APPROVAL_ROLE ( '' ) ;
#109 = APPLICATION_CONTEXT ( 'configuration controlled 3d designs of mechanical parts and assemblies' ) ;
#110 = APPROVAL_STATUS ( 'not_yet_approved' ) ;
#111 = PERSON_AND_ORGANIZATION_ROLE ( 'creator' ) ;
#112 = DATE_TIME_ROLE ( 'classification_date' ) ;
#113 = APPLICATION_PROTOCOL_DEFINITION ( 'international standard', 'config_control_design', 1994, #125 ) ;
#114 = PERSON_AND_ORGANIZATION_ROLE ( 'classification_officer' ) ;
#115 = DATE_TIME_ROLE ( 'creation_date' ) ;
#116 = APPROVAL_ROLE ( '' ) ;
#117 = DIRECTION ( 'NONE',  ( 0.0000000000000000000, 0.0000000000000000000, 1.000000000000000000 ) ) ;
#118 = APPROVAL_STATUS ( 'not_yet_approved' ) ;
#119 = MECHANICAL_CONTEXT ( 'NONE', #109, 'mechanical' ) ;
#120 = PERSON_AND_ORGANIZATION_ROLE ( 'creator' ) ;
#121 = APPLICATION_PROTOCOL_DEFINITION ( 'international standard', 'config_control_design', 1994, #109 ) ;
#122 = PERSON_AND_ORGANIZATION_ROLE ( 'design_supplier' ) ;
#123 = SECURITY_CLASSIFICATION_LEVEL ( 'unclassified' ) ;
#124 = PERSON_AND_ORGANIZATION_ROLE ( 'design_owner' ) ;
#125 = APPLICATION_CONTEXT ( 'configuration controlled 3d designs of mechanical parts and assemblies' ) ;
#126 = CARTESIAN_POINT ( 'NONE',  ( 0.0000000000000000000, 0.0000000000000000000, 0.0000000000000000000 ) ) ;
#127 = DIRECTION ( 'NONE',  ( 1.000000000000000000, 0.0000000000000000000, 0.0000000000000000000 ) ) ;
#128 = EDGE_CURVE ( 'NONE', #418, #411, #433, .T. ) ;
#129 = EDGE_CURVE ( 'NONE', #355, #358, #401, .T. ) ;
#130 = EDGE_CURVE ( 'NONE', #415, #411, #434, .T. ) ;
#131 = EDGE_CURVE ( 'NONE', #420, #415, #405, .T. ) ;
#132 = EDGE_CURVE ( 'NONE', #340, #344, #406, .T. ) ;
#133 = EDGE_CURVE ( 'NONE', #353, #443, #408, .T. ) ;
#134 = EDGE_CURVE ( 'NONE', #351, #427, #404, .T. ) ;
#135 = EDGE_CURVE ( 'NONE', #350, #325, #414, .T. ) ;
#136 = EDGE_CURVE ( 'NONE', #427, #356, #385, .T. ) ;
#137 = EDGE_CURVE ( 'NONE', #331, #407, #487, .T. ) ;
#138 = EDGE_CURVE ( 'NONE', #343, #331, #7, .T. ) ;
#139 = EDGE_CURVE ( 'NONE', #407, #350, #449, .T. ) ;
#140 = EDGE_CURVE ( 'NONE', #443, #415, #473, .T. ) ;
#141 = EDGE_CURVE ( 'NONE', #411, #352, #488, .T. ) ;
#142 = EDGE_CURVE ( 'NONE', #331, #349, #1, .T. ) ;
#143 = EDGE_CURVE ( 'NONE', #354, #331, #452, .T. ) ;
#144 = EDGE_CURVE ( 'NONE', #358, #353, #471, .T. ) ;
#145 = EDGE_CURVE ( 'NONE', #427, #324, #499, .T. ) ;
#146 = EDGE_CURVE ( 'NONE', #356, #355, #454, .T. ) ;
#147 = EDGE_CURVE ( 'NONE', #341, #340, #479, .T. ) ;
#148 = EDGE_CURVE ( 'NONE', #413, #352, #489, .T. ) ;
#149 = EDGE_CURVE ( 'NONE', #325, #353, #446, .T. ) ;
#150 = EDGE_CURVE ( 'NONE', #343, #399, #463, .T. ) ;
#151 = EDGE_CURVE ( 'NONE', #340, #341, #482, .T. ) ;
#152 = EDGE_CURVE ( 'NONE', #396, #324, #4, .T. ) ;
#153 = EDGE_CURVE ( 'NONE', #344, #324, #453, .T. ) ;
#154 = EDGE_CURVE ( 'NONE', #420, #418, #459, .T. ) ;
#155 = EDGE_CURVE ( 'NONE', #349, #394, #458, .T. ) ;
#156 = EDGE_CURVE ( 'NONE', #348, #412, #480, .T. ) ;
#157 = AXIS2_PLACEMENT_3D ( 'NONE', #697, #702, #703 ) ;
#158 = AXIS2_PLACEMENT_3D ( 'NONE', #586, #571, #587 ) ;
#159 = EDGE_CURVE ( 'NONE', #386, #351, #490, .T. ) ;
#160 = EDGE_CURVE ( 'NONE', #417, #348, #484, .T. ) ;
#161 = EDGE_CURVE ( 'NONE', #394, #407, #491, .T. ) ;
#162 = EDGE_CURVE ( 'NONE', #396, #349, #486, .T. ) ;
#163 = AXIS2_PLACEMENT_3D ( 'NONE', #719, #710, #708 ) ;
#164 = EDGE_CURVE ( 'NONE', #412, #359, #456, .T. ) ;
#165 = EDGE_CURVE ( 'NONE', #343, #350, #445, .T. ) ;
#166 = EDGE_CURVE ( 'NONE', #432, #420, #457, .T. ) ;
#167 = AXIS2_PLACEMENT_3D ( 'NONE', #701, #699, #700 ) ;
#168 = AXIS2_PLACEMENT_3D ( 'NONE', #715, #717, #716 ) ;
#169 = EDGE_CURVE ( 'NONE', #348, #419, #495, .T. ) ;
#170 = EDGE_CURVE ( 'NONE', #324, #399, #2, .T. ) ;
#171 = EDGE_CURVE ( 'NONE', #413, #417, #465, .T. ) ;
#172 = AXIS2_PLACEMENT_3D ( 'NONE', #706, #720, #713 ) ;
#173 = AXIS2_PLACEMENT_3D ( 'NONE', #726, #729, #730 ) ;
#174 = EDGE_CURVE ( 'NONE', #356, #399, #462, .T. ) ;
#175 = AXIS2_PLACEMENT_3D ( 'NONE', #727, #728, #731 ) ;
#176 = EDGE_CURVE ( 'NONE', #432, #443, #448, .T. ) ;
#177 = EDGE_CURVE ( 'NONE', #341, #354, #467, .T. ) ;
#178 = EDGE_CURVE ( 'NONE', #351, #396, #469, .T. ) ;
#179 = EDGE_CURVE ( 'NONE', #358, #432, #514, .T. ) ;
#180 = EDGE_CURVE ( 'NONE', #354, #344, #510, .T. ) ;
#181 = AXIS2_PLACEMENT_3D ( 'NONE', #585, #577, #591 ) ;
#182 = AXIS2_PLACEMENT_3D ( 'NONE', #593, #607, #566 ) ;
#183 = EDGE_CURVE ( 'NONE', #397, #394, #519, .T. ) ;
#184 = EDGE_CURVE ( 'NONE', #418, #413, #503, .T. ) ;
#185 = EDGE_CURVE ( 'NONE', #352, #416, #502, .T. ) ;
#186 = EDGE_CURVE ( 'NONE', #359, #397, #508, .T. ) ;
#187 = EDGE_CURVE ( 'NONE', #419, #359, #507, .T. ) ;
#188 = EDGE_CURVE ( 'NONE', #416, #419, #512, .T. ) ;
#189 = EDGE_CURVE ( 'NONE', #412, #386, #517, .T. ) ;
#190 = EDGE_CURVE ( 'NONE', #417, #416, #513, .T. ) ;
#191 = EDGE_CURVE ( 'NONE', #344, #354, #561, .T. ) ;
#192 = EDGE_CURVE ( 'NONE', #355, #325, #545, .T. ) ;
#193 = AXIS2_PLACEMENT_3D ( 'NONE', #605, #568, #594 ) ;
#194 = AXIS2_PLACEMENT_3D ( 'NONE', #584, #565, #573 ) ;
#195 = AXIS2_PLACEMENT_3D ( 'NONE', #608, #574, #609 ) ;
#196 = AXIS2_PLACEMENT_3D ( 'NONE', #589, #582, #575 ) ;
#197 = AXIS2_PLACEMENT_3D ( 'NONE', #579, #596, #599 ) ;
#198 = AXIS2_PLACEMENT_3D ( 'NONE', #580, #583, #612 ) ;
#199 = AXIS2_PLACEMENT_3D ( 'NONE', #602, #603, #595 ) ;
#200 = EDGE_CURVE ( 'NONE', #386, #397, #523, .T. ) ;
#201 = AXIS2_PLACEMENT_3D ( 'NONE', #709, #718, #711 ) ;
#202 = AXIS2_PLACEMENT_3D ( 'NONE', #722, #723, #724 ) ;
#203 =( GEOMETRIC_REPRESENTATION_CONTEXT ( 3 ) GLOBAL_UNCERTAINTY_ASSIGNED_CONTEXT ( ( #6 ) ) GLOBAL_UNIT_ASSIGNED_CONTEXT ( ( #78, #88, #89 ) ) REPRESENTATION_CONTEXT ( 'NONE', 'WORKASPACE' ) );
#204 = AXIS2_PLACEMENT_3D ( 'NONE', #656, #678, #674 ) ;
#205 = CC_DESIGN_PERSON_AND_ORGANIZATION_ASSIGNMENT ( #539, #124, ( #562 ) ) ;
#206 = AXIS2_PLACEMENT_3D ( 'NONE', #567, #598, #604 ) ;
#207 = CC_DESIGN_PERSON_AND_ORGANIZATION_ASSIGNMENT ( #548, #114, ( #208 ) ) ;
#208 = SECURITY_CLASSIFICATION ( '', '', #123 ) ;
#209 = CC_DESIGN_SECURITY_CLASSIFICATION ( #208, ( #227 ) ) ;
#210 = PRODUCT_DEFINITION ( 'UNKNOWN', '', #227, #732 ) ;
#211 = APPROVAL ( #110, 'UNSPECIFIED' ) ;
#212 = AXIS2_PLACEMENT_3D ( 'NONE', #670, #681, #691 ) ;
#213 = AXIS2_PLACEMENT_3D ( 'NONE', #694, #696, #687 ) ;
#214 = AXIS2_PLACEMENT_3D ( 'NONE', #126, #117, #127 ) ;
#215 = CC_DESIGN_DATE_AND_TIME_ASSIGNMENT ( #542, #112, ( #208 ) ) ;
#216 = CC_DESIGN_PERSON_AND_ORGANIZATION_ASSIGNMENT ( #538, #122, ( #227 ) ) ;
#217 = AXIS2_PLACEMENT_3D ( 'NONE', #53, #49, #60 ) ;
#218 = CC_DESIGN_APPROVAL ( #226, ( #210 ) ) ;
#219 = CC_DESIGN_APPROVAL ( #220, ( #227 ) ) ;
#220 = APPROVAL ( #106, 'UNSPECIFIED' ) ;
#221 = CC_DESIGN_PERSON_AND_ORGANIZATION_ASSIGNMENT ( #537, #120, ( #227 ) ) ;
#222 = CC_DESIGN_APPROVAL ( #211, ( #208 ) ) ;
#223 = PRODUCT_RELATED_PRODUCT_CATEGORY ( 'detail', '', ( #562 ) ) ;
#224 = CC_DESIGN_PERSON_AND_ORGANIZATION_ASSIGNMENT ( #532, #111, ( #210 ) ) ;
#225 = AXIS2_PLACEMENT_3D ( 'NONE', #662, #676, #660 ) ;
#226 = APPROVAL ( #118, 'UNSPECIFIED' ) ;
#227 = PRODUCT_DEFINITION_FORMATION_WITH_SPECIFIED_SOURCE ( 'ANY', '', #562, .NOT_KNOWN. ) ;
#228 = CC_DESIGN_DATE_AND_TIME_ASSIGNMENT ( #553, #115, ( #210 ) ) ;
#229 = AXIS2_PLACEMENT_3D ( 'NONE', #581, #606, #588 ) ;
#230 = AXIS2_PLACEMENT_3D ( 'NONE', #48, #31, #32 ) ;
#231 = EDGE_LOOP ( 'NONE', ( #268, #282 ) ) ;
#232 = ORIENTED_EDGE ( 'NONE', *, *, #152, .F. ) ;
#233 = ORIENTED_EDGE ( 'NONE', *, *, #165, .F. ) ;
#234 = ORIENTED_EDGE ( 'NONE', *, *, #162, .T. ) ;
#235 = ORIENTED_EDGE ( 'NONE', *, *, #178, .T. ) ;
#236 = ORIENTED_EDGE ( 'NONE', *, *, #177, .F. ) ;
#237 = ORIENTED_EDGE ( 'NONE', *, *, #174, .F. ) ;
#238 = ORIENTED_EDGE ( 'NONE', *, *, #143, .F. ) ;
#239 = ORIENTED_EDGE ( 'NONE', *, *, #152, .T. ) ;
#240 = ORIENTED_EDGE ( 'NONE', *, *, #174, .T. ) ;
#241 = ORIENTED_EDGE ( 'NONE', *, *, #161, .T. ) ;
#242 = ORIENTED_EDGE ( 'NONE', *, *, #142, .T. ) ;
#243 = ORIENTED_EDGE ( 'NONE', *, *, #138, .T. ) ;
#244 = ORIENTED_EDGE ( 'NONE', *, *, #145, .F. ) ;
#245 = ORIENTED_EDGE ( 'NONE', *, *, #191, .T. ) ;
#246 = ORIENTED_EDGE ( 'NONE', *, *, #153, .T. ) ;
#247 = ORIENTED_EDGE ( 'NONE', *, *, #165, .T. ) ;
#248 = ORIENTED_EDGE ( 'NONE', *, *, #155, .T. ) ;
#249 = FACE_OUTER_BOUND ( 'NONE', #374, .T. ) ;
#250 = ORIENTED_EDGE ( 'NONE', *, *, #134, .F. ) ;
#251 = ORIENTED_EDGE ( 'NONE', *, *, #139, .T. ) ;
#252 = ORIENTED_EDGE ( 'NONE', *, *, #137, .T. ) ;
#253 = ORIENTED_EDGE ( 'NONE', *, *, #170, .T. ) ;
#254 = ORIENTED_EDGE ( 'NONE', *, *, #191, .F. ) ;
#255 = ORIENTED_EDGE ( 'NONE', *, *, #150, .F. ) ;
#256 = ORIENTED_EDGE ( 'NONE', *, *, #142, .F. ) ;
#257 = ORIENTED_EDGE ( 'NONE', *, *, #151, .F. ) ;
#258 = ORIENTED_EDGE ( 'NONE', *, *, #137, .F. ) ;
#259 = ORIENTED_EDGE ( 'NONE', *, *, #136, .F. ) ;
#260 = ORIENTED_EDGE ( 'NONE', *, *, #170, .F. ) ;
#261 = ORIENTED_EDGE ( 'NONE', *, *, #148, .F. ) ;
#262 = ORIENTED_EDGE ( 'NONE', *, *, #154, .T. ) ;
#263 = ORIENTED_EDGE ( 'NONE', *, *, #132, .F. ) ;
#264 = ORIENTED_EDGE ( 'NONE', *, *, #188, .T. ) ;
#265 = ORIENTED_EDGE ( 'NONE', *, *, #155, .F. ) ;
#266 = ORIENTED_EDGE ( 'NONE', *, *, #200, .T. ) ;
#267 = ORIENTED_EDGE ( 'NONE', *, *, #176, .F. ) ;
#268 = ORIENTED_EDGE ( 'NONE', *, *, #147, .T. ) ;
#269 = ORIENTED_EDGE ( 'NONE', *, *, #184, .F. ) ;
#270 = ORIENTED_EDGE ( 'NONE', *, *, #131, .T. ) ;
#271 = ORIENTED_EDGE ( 'NONE', *, *, #140, .T. ) ;
#272 = ORIENTED_EDGE ( 'NONE', *, *, #144, .T. ) ;
#273 = ORIENTED_EDGE ( 'NONE', *, *, #146, .F. ) ;
#274 = ORIENTED_EDGE ( 'NONE', *, *, #134, .T. ) ;
#275 = ORIENTED_EDGE ( 'NONE', *, *, #160, .F. ) ;
#276 = ORIENTED_EDGE ( 'NONE', *, *, #149, .T. ) ;
#277 = ORIENTED_EDGE ( 'NONE', *, *, #187, .T. ) ;
#278 = ORIENTED_EDGE ( 'NONE', *, *, #144, .F. ) ;
#279 = ORIENTED_EDGE ( 'NONE', *, *, #183, .T. ) ;
#280 = ORIENTED_EDGE ( 'NONE', *, *, #159, .T. ) ;
#281 = ORIENTED_EDGE ( 'NONE', *, *, #141, .T. ) ;
#282 = ORIENTED_EDGE ( 'NONE', *, *, #151, .T. ) ;
#283 = ORIENTED_EDGE ( 'NONE', *, *, #154, .F. ) ;
#284 = ORIENTED_EDGE ( 'NONE', *, *, #192, .F. ) ;
#285 = ORIENTED_EDGE ( 'NONE', *, *, #171, .F. ) ;
#286 = ORIENTED_EDGE ( 'NONE', *, *, #133, .T. ) ;
#287 = ORIENTED_EDGE ( 'NONE', *, *, #166, .T. ) ;
#288 = ORIENTED_EDGE ( 'NONE', *, *, #161, .F. ) ;
#289 = ORIENTED_EDGE ( 'NONE', *, *, #186, .T. ) ;
#290 = ORIENTED_EDGE ( 'NONE', *, *, #192, .T. ) ;
#291 = ORIENTED_EDGE ( 'NONE', *, *, #190, .T. ) ;
#292 = ORIENTED_EDGE ( 'NONE', *, *, #189, .F. ) ;
#293 = ORIENTED_EDGE ( 'NONE', *, *, #136, .T. ) ;
#294 = ORIENTED_EDGE ( 'NONE', *, *, #146, .T. ) ;
#295 = ORIENTED_EDGE ( 'NONE', *, *, #128, .T. ) ;
#296 = ORIENTED_EDGE ( 'NONE', *, *, #128, .F. ) ;
#297 = ORIENTED_EDGE ( 'NONE', *, *, #164, .T. ) ;
#298 = ORIENTED_EDGE ( 'NONE', *, *, #166, .F. ) ;
#299 = ORIENTED_EDGE ( 'NONE', *, *, #135, .T. ) ;
#300 = ORIENTED_EDGE ( 'NONE', *, *, #180, .F. ) ;
#301 = ORIENTED_EDGE ( 'NONE', *, *, #159, .F. ) ;
#302 = ORIENTED_EDGE ( 'NONE', *, *, #162, .F. ) ;
#303 = ORIENTED_EDGE ( 'NONE', *, *, #179, .F. ) ;
#304 = ORIENTED_EDGE ( 'NONE', *, *, #130, .F. ) ;
#305 = ORIENTED_EDGE ( 'NONE', *, *, #164, .F. ) ;
#306 = ORIENTED_EDGE ( 'NONE', *, *, #143, .T. ) ;
#307 = ORIENTED_EDGE ( 'NONE', *, *, #156, .F. ) ;
#308 = ORIENTED_EDGE ( 'NONE', *, *, #132, .T. ) ;
#309 = ORIENTED_EDGE ( 'NONE', *, *, #129, .F. ) ;
#310 = ORIENTED_EDGE ( 'NONE', *, *, #135, .F. ) ;
#311 = ORIENTED_EDGE ( 'NONE', *, *, #188, .F. ) ;
#312 = ORIENTED_EDGE ( 'NONE', *, *, #171, .T. ) ;
#313 = ORIENTED_EDGE ( 'NONE', *, *, #138, .F. ) ;
#314 = ORIENTED_EDGE ( 'NONE', *, *, #176, .T. ) ;
#315 = ORIENTED_EDGE ( 'NONE', *, *, #190, .F. ) ;
#316 = ORIENTED_EDGE ( 'NONE', *, *, #130, .T. ) ;
#317 = ORIENTED_EDGE ( 'NONE', *, *, #145, .T. ) ;
#318 = ORIENTED_EDGE ( 'NONE', *, *, #169, .T. ) ;
#319 = ORIENTED_EDGE ( 'NONE', *, *, #129, .T. ) ;
#320 = ORIENTED_EDGE ( 'NONE', *, *, #131, .F. ) ;
#321 = ORIENTED_EDGE ( 'NONE', *, *, #189, .T. ) ;
#322 = ORIENTED_EDGE ( 'NONE', *, *, #185, .T. ) ;
#323 = ORIENTED_EDGE ( 'NONE', *, *, #150, .T. ) ;
#324 = VERTEX_POINT ( 'NONE', #34 ) ;
#325 = VERTEX_POINT ( 'NONE', #98 ) ;
#326 = EDGE_LOOP ( 'NONE', ( #281, #261, #269, #295 ) ) ;
#327 = ORIENTED_EDGE ( 'NONE', *, *, #186, .F. ) ;
#328 = ORIENTED_EDGE ( 'NONE', *, *, #140, .F. ) ;
#329 = EDGE_LOOP ( 'NONE', ( #346, #300, #306, #313, #323, #260 ) ) ;
#330 = ORIENTED_EDGE ( 'NONE', *, *, #184, .T. ) ;
#331 = VERTEX_POINT ( 'NONE', #30 ) ;
#332 = EDGE_LOOP ( 'NONE', ( #263, #381, #345, #365 ) ) ;
#333 = EDGE_LOOP ( 'NONE', ( #277, #305, #307, #318 ) ) ;
#334 = CLOSED_SHELL ( 'NONE', ( #16, #20, #21, #19, #11, #26, #17, #23, #25, #27, #18, #12, #22, #28, #13, #24, #15, #14, #8, #9, #10 ) ) ;
#335 = ORIENTED_EDGE ( 'NONE', *, *, #187, .F. ) ;
#336 = ORIENTED_EDGE ( 'NONE', *, *, #169, .F. ) ;
#337 = EDGE_LOOP ( 'NONE', ( #274, #293, #294, #319, #380, #287, #262, #330, #312, #361, #370, #321, #280 ) ) ;
#338 = EDGE_LOOP ( 'NONE', ( #271, #320, #298, #314 ) ) ;
#339 = EDGE_LOOP ( 'NONE', ( #235, #239, #244, #250 ) ) ;
#340 = VERTEX_POINT ( 'NONE', #92 ) ;
#341 = VERTEX_POINT ( 'NONE', #99 ) ;
#342 = EDGE_LOOP ( 'NONE', ( #317, #253, #237, #259 ) ) ;
#343 = VERTEX_POINT ( 'NONE', #71 ) ;
#344 = VERTEX_POINT ( 'NONE', #91 ) ;
#345 = ORIENTED_EDGE ( 'NONE', *, *, #177, .T. ) ;
#346 = ORIENTED_EDGE ( 'NONE', *, *, #153, .F. ) ;
#347 = EDGE_LOOP ( 'NONE', ( #289, #372, #292, #297 ) ) ;
#348 = VERTEX_POINT ( 'NONE', #66 ) ;
#349 = VERTEX_POINT ( 'NONE', #85 ) ;
#350 = VERTEX_POINT ( 'NONE', #100 ) ;
#351 = VERTEX_POINT ( 'NONE', #101 ) ;
#352 = VERTEX_POINT ( 'NONE', #79 ) ;
#353 = VERTEX_POINT ( 'NONE', #84 ) ;
#354 = VERTEX_POINT ( 'NONE', #104 ) ;
#355 = VERTEX_POINT ( 'NONE', #83 ) ;
#356 = VERTEX_POINT ( 'NONE', #70 ) ;
#357 = ORIENTED_EDGE ( 'NONE', *, *, #178, .F. ) ;
#358 = VERTEX_POINT ( 'NONE', #102 ) ;
#359 = VERTEX_POINT ( 'NONE', #103 ) ;
#360 = ORIENTED_EDGE ( 'NONE', *, *, #139, .F. ) ;
#361 = ORIENTED_EDGE ( 'NONE', *, *, #160, .T. ) ;
#362 = ORIENTED_EDGE ( 'NONE', *, *, #183, .F. ) ;
#363 = ORIENTED_EDGE ( 'NONE', *, *, #141, .F. ) ;
#364 = EDGE_LOOP ( 'NONE', ( #265, #302, #357, #301, #266, #279 ) ) ;
#365 = ORIENTED_EDGE ( 'NONE', *, *, #180, .T. ) ;
#366 = EDGE_LOOP ( 'NONE', ( #322, #315, #285, #369 ) ) ;
#367 = EDGE_LOOP ( 'NONE', ( #264, #336, #275, #291 ) ) ;
#368 = ORIENTED_EDGE ( 'NONE', *, *, #149, .F. ) ;
#369 = ORIENTED_EDGE ( 'NONE', *, *, #148, .T. ) ;
#370 = ORIENTED_EDGE ( 'NONE', *, *, #156, .T. ) ;
#371 = ORIENTED_EDGE ( 'NONE', *, *, #185, .F. ) ;
#372 = ORIENTED_EDGE ( 'NONE', *, *, #200, .F. ) ;
#373 = EDGE_LOOP ( 'NONE', ( #286, #267, #303, #272 ) ) ;
#374 = EDGE_LOOP ( 'NONE', ( #288, #362, #327, #335, #311, #371, #363, #304, #328, #375, #368, #310, #360 ) ) ;
#375 = ORIENTED_EDGE ( 'NONE', *, *, #133, .F. ) ;
#376 = EDGE_LOOP ( 'NONE', ( #276, #278, #309, #290 ) ) ;
#377 = EDGE_LOOP ( 'NONE', ( #316, #296, #283, #270 ) ) ;
#378 = EDGE_LOOP ( 'NONE', ( #254, #246, #232, #234, #256, #238 ) ) ;
#379 = EDGE_LOOP ( 'NONE', ( #233, #243, #252, #251 ) ) ;
#380 = ORIENTED_EDGE ( 'NONE', *, *, #179, .T. ) ;
#381 = ORIENTED_EDGE ( 'NONE', *, *, #147, .F. ) ;
#382 = EDGE_LOOP ( 'NONE', ( #257, #308, #245, #236 ) ) ;
#383 = EDGE_LOOP ( 'NONE', ( #240, #255, #247, #299, #284, #273 ) ) ;
#384 = EDGE_LOOP ( 'NONE', ( #258, #242, #248, #241 ) ) ;
#385 = LINE ( 'NONE', #645, #477 ) ;
#386 = VERTEX_POINT ( 'NONE', #93 ) ;
#387 = FACE_OUTER_BOUND ( 'NONE', #329, .T. ) ;
#388 = FACE_OUTER_BOUND ( 'NONE', #382, .T. ) ;
#389 = FACE_OUTER_BOUND ( 'NONE', #367, .T. ) ;
#390 = FACE_OUTER_BOUND ( 'NONE', #376, .T. ) ;
#391 = FACE_OUTER_BOUND ( 'NONE', #332, .T. ) ;
#392 = FACE_OUTER_BOUND ( 'NONE', #366, .T. ) ;
#393 = FACE_BOUND ( 'NONE', #231, .T. ) ;
#394 = VERTEX_POINT ( 'NONE', #105 ) ;
#395 = VECTOR ( 'NONE', #630, 1000.000000000000000 ) ;
#396 = VERTEX_POINT ( 'NONE', #95 ) ;
#397 = VERTEX_POINT ( 'NONE', #77 ) ;
#398 = FACE_OUTER_BOUND ( 'NONE', #379, .T. ) ;
#399 = VERTEX_POINT ( 'NONE', #80 ) ;
#400 = FACE_OUTER_BOUND ( 'NONE', #337, .T. ) ;
#401 = LINE ( 'NONE', #600, #402 ) ;
#402 = VECTOR ( 'NONE', #614, 1000.000000000000000 ) ;
#403 = CONICAL_SURFACE ( 'NONE', #196, 3.024999999999999900, 0.7853981633974495000 ) ;
#404 = LINE ( 'NONE', #633, #439 ) ;
#405 = LINE ( 'NONE', #564, #436 ) ;
#406 = LINE ( 'NONE', #631, #437 ) ;
#407 = VERTEX_POINT ( 'NONE', #96 ) ;
#408 = LINE ( 'NONE', #650, #438 ) ;
#409 = FACE_OUTER_BOUND ( 'NONE', #364, .T. ) ;
#410 = FACE_OUTER_BOUND ( 'NONE', #338, .T. ) ;
#411 = VERTEX_POINT ( 'NONE', #81 ) ;
#412 = VERTEX_POINT ( 'NONE', #82 ) ;
#413 = VERTEX_POINT ( 'NONE', #94 ) ;
#414 = LINE ( 'NONE', #639, #440 ) ;
#415 = VERTEX_POINT ( 'NONE', #97 ) ;
#416 = VERTEX_POINT ( 'NONE', #75 ) ;
#417 = VERTEX_POINT ( 'NONE', #69 ) ;
#418 = VERTEX_POINT ( 'NONE', #72 ) ;
#419 = VERTEX_POINT ( 'NONE', #73 ) ;
#420 = VERTEX_POINT ( 'NONE', #76 ) ;
#421 = CYLINDRICAL_SURFACE ( 'NONE', #163, 2.499999999999998700 ) ;
#422 = FACE_OUTER_BOUND ( 'NONE', #333, .T. ) ;
#423 = FACE_OUTER_BOUND ( 'NONE', #378, .T. ) ;
#424 = CYLINDRICAL_SURFACE ( 'NONE', #175, 2.499999999999998700 ) ;
#425 = CONICAL_SURFACE ( 'NONE', #157, 3.024999999999999900, 0.7853981633974495000 ) ;
#426 = FACE_OUTER_BOUND ( 'NONE', #377, .T. ) ;
#427 = VERTEX_POINT ( 'NONE', #87 ) ;
#428 = FACE_OUTER_BOUND ( 'NONE', #347, .T. ) ;
#429 = FACE_OUTER_BOUND ( 'NONE', #342, .T. ) ;
#430 = FACE_OUTER_BOUND ( 'NONE', #373, .T. ) ;
#431 = FACE_OUTER_BOUND ( 'NONE', #326, .T. ) ;
#432 = VERTEX_POINT ( 'NONE', #86 ) ;
#433 = LINE ( 'NONE', #654, #395 ) ;
#434 = LINE ( 'NONE', #572, #435 ) ;
#435 = VECTOR ( 'NONE', #635, 1000.000000000000100 ) ;
#436 = VECTOR ( 'NONE', #619, 1000.000000000000000 ) ;
#437 = VECTOR ( 'NONE', #649, 1000.000000000000000 ) ;
#438 = VECTOR ( 'NONE', #628, 1000.000000000000000 ) ;
#439 = VECTOR ( 'NONE', #642, 1000.000000000000100 ) ;
#440 = VECTOR ( 'NONE', #637, 1000.000000000000000 ) ;
#441 = FACE_OUTER_BOUND ( 'NONE', #339, .T. ) ;
#442 = FACE_OUTER_BOUND ( 'NONE', #383, .T. ) ;
#443 = VERTEX_POINT ( 'NONE', #74 ) ;
#444 = FACE_OUTER_BOUND ( 'NONE', #384, .T. ) ;
#445 = LINE ( 'NONE', #666, #464 ) ;
#446 = LINE ( 'NONE', #627, #455 ) ;
#447 = VECTOR ( 'NONE', #648, 1000.000000000000000 ) ;
#448 = LINE ( 'NONE', #39, #450 ) ;
#449 = LINE ( 'NONE', #632, #475 ) ;
#450 = VECTOR ( 'NONE', #46, 1000.000000000000000 ) ;
#451 = VECTOR ( 'NONE', #641, 1000.000000000000000 ) ;
#452 = LINE ( 'NONE', #616, #500 ) ;
#453 = LINE ( 'NONE', #683, #476 ) ;
#454 = LINE ( 'NONE', #625, #492 ) ;
#455 = VECTOR ( 'NONE', #620, 1000.000000000000000 ) ;
#456 = LINE ( 'NONE', #663, #494 ) ;
#457 = LINE ( 'NONE', #682, #468 ) ;
#458 = LINE ( 'NONE', #668, #498 ) ;
#459 = LINE ( 'NONE', #672, #460 ) ;
#460 = VECTOR ( 'NONE', #659, 1000.000000000000100 ) ;
#461 = VECTOR ( 'NONE', #54, 1000.000000000000000 ) ;
#462 = LINE ( 'NONE', #64, #497 ) ;
#463 = CIRCLE ( 'NONE', #213, 3.024999999999999900 ) ;
#464 = VECTOR ( 'NONE', #695, 1000.000000000000000 ) ;
#465 = LINE ( 'NONE', #50, #485 ) ;
#466 = VECTOR ( 'NONE', #624, 1000.000000000000000 ) ;
#467 = LINE ( 'NONE', #40, #461 ) ;
#468 = VECTOR ( 'NONE', #692, 1000.000000000000000 ) ;
#469 = LINE ( 'NONE', #36, #470 ) ;
#470 = VECTOR ( 'NONE', #67, 1000.000000000000000 ) ;
#471 = LINE ( 'NONE', #617, #501 ) ;
#472 = VECTOR ( 'NONE', #680, 1000.000000000000000 ) ;
#473 = LINE ( 'NONE', #646, #447 ) ;
#474 = VECTOR ( 'NONE', #667, 1000.000000000000000 ) ;
#475 = VECTOR ( 'NONE', #644, 1000.000000000000000 ) ;
#476 = VECTOR ( 'NONE', #664, 1000.000000000000000 ) ;
#477 = VECTOR ( 'NONE', #640, 1000.000000000000000 ) ;
#478 = VECTOR ( 'NONE', #652, 1000.000000000000000 ) ;
#479 = CIRCLE ( 'NONE', #225, 2.499999999999997800 ) ;
#480 = LINE ( 'NONE', #679, #483 ) ;
#481 = VECTOR ( 'NONE', #661, 1000.000000000000000 ) ;
#482 = CIRCLE ( 'NONE', #204, 2.499999999999997800 ) ;
#483 = VECTOR ( 'NONE', #665, 1000.000000000000000 ) ;
#484 = LINE ( 'NONE', #685, #481 ) ;
#485 = VECTOR ( 'NONE', #43, 1000.000000000000100 ) ;
#486 = CIRCLE ( 'NONE', #212, 3.024999999999999900 ) ;
#487 = LINE ( 'NONE', #636, #451 ) ;
#488 = LINE ( 'NONE', #647, #478 ) ;
#489 = LINE ( 'NONE', #658, #474 ) ;
#490 = LINE ( 'NONE', #655, #472 ) ;
#491 = LINE ( 'NONE', #688, #493 ) ;
#492 = VECTOR ( 'NONE', #618, 1000.000000000000000 ) ;
#493 = VECTOR ( 'NONE', #689, 1000.000000000000100 ) ;
#494 = VECTOR ( 'NONE', #677, 1000.000000000000000 ) ;
#495 = LINE ( 'NONE', #690, #496 ) ;
#496 = VECTOR ( 'NONE', #675, 1000.000000000000000 ) ;
#497 = VECTOR ( 'NONE', #44, 1000.000000000000000 ) ;
#498 = VECTOR ( 'NONE', #673, 1000.000000000000000 ) ;
#499 = LINE ( 'NONE', #615, #466 ) ;
#500 = VECTOR ( 'NONE', #626, 1000.000000000000000 ) ;
#501 = VECTOR ( 'NONE', #623, 1000.000000000000000 ) ;
#502 = LINE ( 'NONE', #41, #504 ) ;
#503 = LINE ( 'NONE', #63, #505 ) ;
#504 = VECTOR ( 'NONE', #47, 1000.000000000000100 ) ;
#505 = VECTOR ( 'NONE', #68, 1000.000000000000000 ) ;
#506 = VECTOR ( 'NONE', #51, 1000.000000000000000 ) ;
#507 = LINE ( 'NONE', #37, #509 ) ;
#508 = LINE ( 'NONE', #42, #511 ) ;
#509 = VECTOR ( 'NONE', #61, 1000.000000000000000 ) ;
#510 = CIRCLE ( 'NONE', #217, 2.499999999999999100 ) ;
#511 = VECTOR ( 'NONE', #55, 1000.000000000000000 ) ;
#512 = LINE ( 'NONE', #57, #515 ) ;
#513 = LINE ( 'NONE', #45, #524 ) ;
#514 = LINE ( 'NONE', #58, #516 ) ;
#515 = VECTOR ( 'NONE', #59, 1000.000000000000000 ) ;
#516 = VECTOR ( 'NONE', #38, 1000.000000000000000 ) ;
#517 = LINE ( 'NONE', #52, #518 ) ;
#518 = VECTOR ( 'NONE', #56, 1000.000000000000000 ) ;
#519 = LINE ( 'NONE', #35, #506 ) ;
#520 = PERSON_AND_ORGANIZATION ( #563, #527 ) ;
#521 = DATE_AND_TIME ( #536, #535 ) ;
#522 = VECTOR ( 'NONE', #33, 1000.000000000000000 ) ;
#523 = LINE ( 'NONE', #65, #525 ) ;
#524 = VECTOR ( 'NONE', #62, 1000.000000000000000 ) ;
#525 = VECTOR ( 'NONE', #90, 1000.000000000000000 ) ;
#526 = DATE_AND_TIME ( #540, #560 ) ;
#527 = ORGANIZATION ( 'UNSPECIFIED', 'UNSPECIFIED', '' ) ;
#528 = COORDINATED_UNIVERSAL_TIME_OFFSET ( 1, 0, .AHEAD. ) ;
#529 = LOCAL_TIME ( 17, 23, 45.00000000000000000, #528 ) ;
#530 = CALENDAR_DATE ( 2017, 1, 2 ) ;
#531 = APPROVAL_PERSON_ORGANIZATION ( #520, #226, #107 ) ;
#532 = PERSON_AND_ORGANIZATION ( #563, #527 ) ;
#533 = APPROVAL_PERSON_ORGANIZATION ( #541, #220, #116 ) ;
#534 = COORDINATED_UNIVERSAL_TIME_OFFSET ( 1, 0, .AHEAD. ) ;
#535 = LOCAL_TIME ( 17, 23, 45.00000000000000000, #534 ) ;
#536 = CALENDAR_DATE ( 2017, 1, 2 ) ;
#537 = PERSON_AND_ORGANIZATION ( #563, #527 ) ;
#538 = PERSON_AND_ORGANIZATION ( #563, #527 ) ;
#539 = PERSON_AND_ORGANIZATION ( #563, #527 ) ;
#540 = CALENDAR_DATE ( 2017, 1, 2 ) ;
#541 = PERSON_AND_ORGANIZATION ( #563, #527 ) ;
#542 = DATE_AND_TIME ( #549, #546 ) ;
#543 = APPROVAL_PERSON_ORGANIZATION ( #552, #211, #108 ) ;
#544 = COORDINATED_UNIVERSAL_TIME_OFFSET ( 1, 0, .AHEAD. ) ;
#545 = LINE ( 'NONE', #29, #522 ) ;
#546 = LOCAL_TIME ( 17, 23, 45.00000000000000000, #550 ) ;
#547 = APPROVAL_DATE_TIME ( #521, #220 ) ;
#548 = PERSON_AND_ORGANIZATION ( #563, #527 ) ;
#549 = CALENDAR_DATE ( 2017, 1, 2 ) ;
#550 = COORDINATED_UNIVERSAL_TIME_OFFSET ( 1, 0, .AHEAD. ) ;
#551 = LOCAL_TIME ( 17, 23, 45.00000000000000000, #544 ) ;
#552 = PERSON_AND_ORGANIZATION ( #563, #527 ) ;
#553 = DATE_AND_TIME ( #530, #529 ) ;
#554 = CALENDAR_DATE ( 2017, 1, 2 ) ;
#555 = DATE_AND_TIME ( #554, #551 ) ;
#556 = APPROVAL_DATE_TIME ( #555, #211 ) ;
#557 = SHAPE_DEFINITION_REPRESENTATION ( #733, #3 ) ;
#558 = COORDINATED_UNIVERSAL_TIME_OFFSET ( 1, 0, .AHEAD. ) ;
#559 = APPROVAL_DATE_TIME ( #526, #226 ) ;
#560 = LOCAL_TIME ( 17, 23, 45.00000000000000000, #558 ) ;
#561 = CIRCLE ( 'NONE', #230, 2.499999999999999100 ) ;
#562 = PRODUCT ( 'ALP0642', 'ALP0642', '', ( #119 ) ) ;
#563 = PERSON ( 'UNSPECIFIED', 'UNSPECIFIED', 'UNSPECIFIED', ('UNSPECIFIED'), ('UNSPECIFIED'), ('UNSPECIFIED') ) ;
#564 = CARTESIAN_POINT ( 'NONE',  ( 9.800000000000000700, 7.500000000000000000, 10.00000000000000000 ) ) ;
#565 = DIRECTION ( 'NONE',  ( -0.7071067811865553400, -0.7071067811865396900, 0.0000000000000000000 ) ) ;
#566 = DIRECTION ( 'NONE',  ( -0.7071067811865406900, -0.7071067811865544600, 0.0000000000000000000 ) ) ;
#567 = CARTESIAN_POINT ( 'NONE',  ( -9.800000000000000700, 5.000000000000000000, 10.00000000000000000 ) ) ;
#568 = DIRECTION ( 'NONE',  ( 0.0000000000000000000, 1.000000000000000000, 0.0000000000000000000 ) ) ;
#569 = PLANE ( 'NONE',  #195 ) ;
#570 = PLANE ( 'NONE',  #182 ) ;
#571 = DIRECTION ( 'NONE',  ( 0.7071067811865561200, 0.7071067811865390200, -0.0000000000000000000 ) ) ;
#572 = CARTESIAN_POINT ( 'NONE',  ( 9.800000000000000700, 7.500000000000000000, -10.00000000000000000 ) ) ;
#573 = DIRECTION ( 'NONE',  ( 0.7071067811865396900, -0.7071067811865553400, 0.0000000000000000000 ) ) ;
#574 = DIRECTION ( 'NONE',  ( 0.7071067811865561200, 0.7071067811865390200, -0.0000000000000000000 ) ) ;
#575 = DIRECTION ( 'NONE',  ( 0.0000000000000000000, 0.0000000000000000000, -1.000000000000000000 ) ) ;
#576 = PLANE ( 'NONE',  #158 ) ;
#577 = DIRECTION ( 'NONE',  ( 0.0000000000000000000, 1.000000000000000000, 0.0000000000000000000 ) ) ;
#578 = PLANE ( 'NONE',  #206 ) ;
#579 = CARTESIAN_POINT ( 'NONE',  ( -9.800000000000000700, 7.500000000000000000, 10.00000000000000000 ) ) ;
#580 = CARTESIAN_POINT ( 'NONE',  ( 4.900000000000000400, 0.0000000000000000000, 10.00000000000000000 ) ) ;
#581 = CARTESIAN_POINT ( 'NONE',  ( 9.800000000000000700, 5.000000000000000000, 10.00000000000000000 ) ) ;
#582 = DIRECTION ( 'NONE',  ( -0.0000000000000000000, -1.000000000000000000, -0.0000000000000000000 ) ) ;
#583 = DIRECTION ( 'NONE',  ( -1.000000000000000000, 0.0000000000000000000, 0.0000000000000000000 ) ) ;
#584 = CARTESIAN_POINT ( 'NONE',  ( 9.800000000000000700, 7.500000000000000000, 10.00000000000000000 ) ) ;
#585 = CARTESIAN_POINT ( 'NONE',  ( 4.900000000000000400, 5.000000000000000000, 10.00000000000000000 ) ) ;
#586 = CARTESIAN_POINT ( 'NONE',  ( 1.224646799147351300E-015, 0.5000000000000111000, 10.00000000000000000 ) ) ;
#587 = DIRECTION ( 'NONE',  ( -0.7071067811865390200, 0.7071067811865561200, 0.0000000000000000000 ) ) ;
#588 = DIRECTION ( 'NONE',  ( 0.0000000000000000000, 0.0000000000000000000, 1.000000000000000000 ) ) ;
#589 = CARTESIAN_POINT ( 'NONE',  ( 0.0000000000000000000, 0.0000000000000000000, 0.0000000000000000000 ) ) ;
#590 = PLANE ( 'NONE',  #198 ) ;
#591 = DIRECTION ( 'NONE',  ( 0.0000000000000000000, -0.0000000000000000000, 1.000000000000000000 ) ) ;
#592 = PLANE ( 'NONE',  #197 ) ;
#593 = CARTESIAN_POINT ( 'NONE',  ( 1.224646799147351300E-015, 0.5000000000000111000, 10.00000000000000000 ) ) ;
#594 = DIRECTION ( 'NONE',  ( 0.0000000000000000000, -0.0000000000000000000, 1.000000000000000000 ) ) ;
#595 = DIRECTION ( 'NONE',  ( 0.0000000000000000000, 0.0000000000000000000, -1.000000000000000000 ) ) ;
#596 = DIRECTION ( 'NONE',  ( 0.7071067811865555700, -0.7071067811865394700, 0.0000000000000000000 ) ) ;
#597 = PLANE ( 'NONE',  #193 ) ;
#598 = DIRECTION ( 'NONE',  ( 1.000000000000000000, 0.0000000000000000000, 0.0000000000000000000 ) ) ;
#599 = DIRECTION ( 'NONE',  ( 0.7071067811865394700, 0.7071067811865555700, 0.0000000000000000000 ) ) ;
#600 = CARTESIAN_POINT ( 'NONE',  ( 4.900000000000000400, 0.0000000000000000000, 10.00000000000000000 ) ) ;
#601 = PLANE ( 'NONE',  #194 ) ;
#602 = CARTESIAN_POINT ( 'NONE',  ( -4.900000000000000400, 0.0000000000000000000, 10.00000000000000000 ) ) ;
#603 = DIRECTION ( 'NONE',  ( 1.000000000000000000, 0.0000000000000000000, 0.0000000000000000000 ) ) ;
#604 = DIRECTION ( 'NONE',  ( 0.0000000000000000000, 0.0000000000000000000, -1.000000000000000000 ) ) ;
#605 = CARTESIAN_POINT ( 'NONE',  ( 0.5000000000000001100, 0.0000000000000000000, 10.00000000000000000 ) ) ;
#606 = DIRECTION ( 'NONE',  ( -1.000000000000000000, 0.0000000000000000000, 0.0000000000000000000 ) ) ;
#607 = DIRECTION ( 'NONE',  ( -0.7071067811865544600, 0.7071067811865406900, 0.0000000000000000000 ) ) ;
#608 = CARTESIAN_POINT ( 'NONE',  ( 1.224646799147351300E-015, 0.5000000000000111000, 10.00000000000000000 ) ) ;
#609 = DIRECTION ( 'NONE',  ( -0.7071067811865390200, 0.7071067811865561200, 0.0000000000000000000 ) ) ;
#610 = PLANE ( 'NONE',  #199 ) ;
#611 = PLANE ( 'NONE',  #181 ) ;
#612 = DIRECTION ( 'NONE',  ( 0.0000000000000000000, 0.0000000000000000000, 1.000000000000000000 ) ) ;
#613 = PLANE ( 'NONE',  #229 ) ;
#614 = DIRECTION ( 'NONE',  ( 0.0000000000000000000, 1.000000000000000000, 0.0000000000000000000 ) ) ;
#615 = CARTESIAN_POINT ( 'NONE',  ( 1.224646799147351300E-015, 0.5000000000000111000, 10.00000000000000000 ) ) ;
#616 = CARTESIAN_POINT ( 'NONE',  ( 0.0000000000000000000, 0.0000000000000000000, -3.024999999999999900 ) ) ;
#617 = CARTESIAN_POINT ( 'NONE',  ( 4.900000000000000400, 5.000000000000000000, 10.00000000000000000 ) ) ;
#618 = DIRECTION ( 'NONE',  ( 1.000000000000000000, 0.0000000000000000000, 0.0000000000000000000 ) ) ;
#619 = DIRECTION ( 'NONE',  ( -0.0000000000000000000, -0.0000000000000000000, -1.000000000000000000 ) ) ;
#620 = DIRECTION ( 'NONE',  ( 0.0000000000000000000, 1.000000000000000000, 0.0000000000000000000 ) ) ;
#621 = CARTESIAN_POINT ( 'NONE',  ( 1.251092344015349300E-015, 0.5000000000000111000, -2.524999999999987900 ) ) ;
#622 = CARTESIAN_POINT ( 'NONE',  ( -0.3294565384477633500, 0.1705434615522401800, -2.839051691516939700 ) ) ;
#623 = DIRECTION ( 'NONE',  ( -0.0000000000000000000, -0.0000000000000000000, -1.000000000000000000 ) ) ;
#624 = DIRECTION ( 'NONE',  ( -0.0000000000000000000, -0.0000000000000000000, -1.000000000000000000 ) ) ;
#625 = CARTESIAN_POINT ( 'NONE',  ( 0.5000000000000001100, 0.0000000000000000000, 10.00000000000000000 ) ) ;
#626 = DIRECTION ( 'NONE',  ( 0.0000000000000000000, -0.7071067811865466800, -0.7071067811865483500 ) ) ;
#627 = CARTESIAN_POINT ( 'NONE',  ( 4.900000000000000400, 0.0000000000000000000, -10.00000000000000000 ) ) ;
#628 = DIRECTION ( 'NONE',  ( 1.000000000000000000, 0.0000000000000000000, 0.0000000000000000000 ) ) ;
#629 = CARTESIAN_POINT ( 'NONE',  ( 0.3294565384477641200, 0.1705434615522402300, -2.839051691516939700 ) ) ;
#630 = DIRECTION ( 'NONE',  ( -0.0000000000000000000, -0.0000000000000000000, -1.000000000000000000 ) ) ;
#631 = CARTESIAN_POINT ( 'NONE',  ( 3.061616997868381700E-016, 0.0000000000000000000, 2.499999999999998700 ) ) ;
#632 = CARTESIAN_POINT ( 'NONE',  ( 1.224646799147351300E-015, 0.5000000000000111000, -10.00000000000000000 ) ) ;
#633 = CARTESIAN_POINT ( 'NONE',  ( 1.224646799147351300E-015, 0.5000000000000111000, 10.00000000000000000 ) ) ;
#634 = CARTESIAN_POINT ( 'NONE',  ( -0.5000000000000001100, 0.0000000000000000000, -2.983391526434302900 ) ) ;
#635 = DIRECTION ( 'NONE',  ( -0.7071067811865396900, 0.7071067811865553400, 0.0000000000000000000 ) ) ;
#636 = CARTESIAN_POINT ( 'NONE',  ( 1.224646799147351300E-015, 0.5000000000000111000, 10.00000000000000000 ) ) ;
#637 = DIRECTION ( 'NONE',  ( 1.000000000000000000, 0.0000000000000000000, 0.0000000000000000000 ) ) ;
#638 = CARTESIAN_POINT ( 'NONE',  ( 0.1623072875484944700, 0.3376927124515138900, -2.687307287548506900 ) ) ;
#639 = CARTESIAN_POINT ( 'NONE',  ( 0.5000000000000001100, 0.0000000000000000000, -10.00000000000000000 ) ) ;
#640 = DIRECTION ( 'NONE',  ( 0.7071067811865390200, -0.7071067811865561200, 0.0000000000000000000 ) ) ;
#641 = DIRECTION ( 'NONE',  ( -0.0000000000000000000, -0.0000000000000000000, -1.000000000000000000 ) ) ;
#642 = DIRECTION ( 'NONE',  ( 0.7071067811865406900, 0.7071067811865544600, -0.0000000000000000000 ) ) ;
#643 = CARTESIAN_POINT ( 'NONE',  ( 1.251092344015349300E-015, 0.5000000000000111000, -2.524999999999987900 ) ) ;
#644 = DIRECTION ( 'NONE',  ( 0.7071067811865390200, -0.7071067811865561200, 0.0000000000000000000 ) ) ;
#645 = CARTESIAN_POINT ( 'NONE',  ( 1.224646799147351300E-015, 0.5000000000000111000, 10.00000000000000000 ) ) ;
#646 = CARTESIAN_POINT ( 'NONE',  ( 9.800000000000000700, 5.000000000000000000, -10.00000000000000000 ) ) ;
#647 = CARTESIAN_POINT ( 'NONE',  ( 6.800000000000068200, 10.49999999999999800, -10.00000000000000000 ) ) ;
#648 = DIRECTION ( 'NONE',  ( 0.0000000000000000000, 1.000000000000000000, 0.0000000000000000000 ) ) ;
#649 = DIRECTION ( 'NONE',  ( -0.0000000000000000000, -1.000000000000000000, -0.0000000000000000000 ) ) ;
#650 = CARTESIAN_POINT ( 'NONE',  ( 4.900000000000000400, 5.000000000000000000, -10.00000000000000000 ) ) ;
#651 = CARTESIAN_POINT ( 'NONE',  ( 0.5000000000000002200, 0.0000000000000000000, -2.983391526434302500 ) ) ;
#652 = DIRECTION ( 'NONE',  ( -1.000000000000000000, 0.0000000000000000000, 0.0000000000000000000 ) ) ;
#653 = CARTESIAN_POINT ( 'NONE',  ( -0.1623072875484929700, 0.3376927124515137200, -2.687307287548507300 ) ) ;
#654 = CARTESIAN_POINT ( 'NONE',  ( 6.800000000000068200, 10.49999999999999800, 10.00000000000000000 ) ) ;
#655 = CARTESIAN_POINT ( 'NONE',  ( -0.5000000000000001100, 0.0000000000000000000, 10.00000000000000000 ) ) ;
#656 = CARTESIAN_POINT ( 'NONE',  ( 0.0000000000000000000, 10.49999999999999800, 0.0000000000000000000 ) ) ;
#657 = CARTESIAN_POINT ( 'NONE',  ( 1.376298398493944800E-015, 0.5000000000000109900, 2.524999999999987900 ) ) ;
#658 = CARTESIAN_POINT ( 'NONE',  ( -6.800000000000070000, 10.49999999999999800, 10.00000000000000000 ) ) ;
#659 = DIRECTION ( 'NONE',  ( -0.7071067811865396900, 0.7071067811865553400, 0.0000000000000000000 ) ) ;
#660 = DIRECTION ( 'NONE',  ( 0.0000000000000000000, 0.0000000000000000000, -1.000000000000000000 ) ) ;
#661 = DIRECTION ( 'NONE',  ( -0.0000000000000000000, -1.000000000000000000, -0.0000000000000000000 ) ) ;
#662 = CARTESIAN_POINT ( 'NONE',  ( 0.0000000000000000000, 10.49999999999999800, 0.0000000000000000000 ) ) ;
#663 = CARTESIAN_POINT ( 'NONE',  ( -4.900000000000000400, 5.000000000000000000, 10.00000000000000000 ) ) ;
#664 = DIRECTION ( 'NONE',  ( 8.659560562354942700E-017, -0.7071067811865466800, 0.7071067811865483500 ) ) ;
#665 = DIRECTION ( 'NONE',  ( 1.000000000000000000, -0.0000000000000000000, -0.0000000000000000000 ) ) ;
#666 = CARTESIAN_POINT ( 'NONE',  ( 0.5000000000000001100, 0.0000000000000000000, 10.00000000000000000 ) ) ;
#667 = DIRECTION ( 'NONE',  ( -0.0000000000000000000, -0.0000000000000000000, -1.000000000000000000 ) ) ;
#668 = CARTESIAN_POINT ( 'NONE',  ( -0.5000000000000001100, 0.0000000000000000000, 10.00000000000000000 ) ) ;
#669 = CARTESIAN_POINT ( 'NONE',  ( 1.376298398493944800E-015, 0.5000000000000109900, 2.524999999999987900 ) ) ;
#670 = CARTESIAN_POINT ( 'NONE',  ( 0.0000000000000000000, 0.0000000000000000000, 0.0000000000000000000 ) ) ;
#671 = CARTESIAN_POINT ( 'NONE',  ( -0.1623072875484927700, 0.3376927124515138300, 2.687307287548506900 ) ) ;
#672 = CARTESIAN_POINT ( 'NONE',  ( 9.800000000000000700, 7.500000000000000000, 10.00000000000000000 ) ) ;
#673 = DIRECTION ( 'NONE',  ( -0.0000000000000000000, -0.0000000000000000000, -1.000000000000000000 ) ) ;
#674 = DIRECTION ( 'NONE',  ( 0.0000000000000000000, 0.0000000000000000000, -1.000000000000000000 ) ) ;
#675 = DIRECTION ( 'NONE',  ( -0.0000000000000000000, -0.0000000000000000000, -1.000000000000000000 ) ) ;
#676 = DIRECTION ( 'NONE',  ( -0.0000000000000000000, -1.000000000000000000, -0.0000000000000000000 ) ) ;
#677 = DIRECTION ( 'NONE',  ( -0.0000000000000000000, -0.0000000000000000000, -1.000000000000000000 ) ) ;
#678 = DIRECTION ( 'NONE',  ( -0.0000000000000000000, -1.000000000000000000, -0.0000000000000000000 ) ) ;
#679 = CARTESIAN_POINT ( 'NONE',  ( -4.900000000000000400, 5.000000000000000000, 10.00000000000000000 ) ) ;
#680 = DIRECTION ( 'NONE',  ( 1.000000000000000000, -0.0000000000000000000, -0.0000000000000000000 ) ) ;
#681 = DIRECTION ( 'NONE',  ( -0.0000000000000000000, -1.000000000000000000, -0.0000000000000000000 ) ) ;
#682 = CARTESIAN_POINT ( 'NONE',  ( 9.800000000000000700, 5.000000000000000000, 10.00000000000000000 ) ) ;
#683 = CARTESIAN_POINT ( 'NONE',  ( 3.704556567420743300E-016, 0.0000000000000000000, 3.024999999999999900 ) ) ;
#684 = CARTESIAN_POINT ( 'NONE',  ( -0.3294565384477632900, 0.1705434615522401500, 2.839051691516940100 ) ) ;
#685 = CARTESIAN_POINT ( 'NONE',  ( -9.800000000000000700, 5.000000000000000000, 10.00000000000000000 ) ) ;
#686 = CARTESIAN_POINT ( 'NONE',  ( -0.5000000000000001100, 0.0000000000000000000, 2.983391526434302900 ) ) ;
#687 = DIRECTION ( 'NONE',  ( 0.0000000000000000000, 0.0000000000000000000, -1.000000000000000000 ) ) ;
#688 = CARTESIAN_POINT ( 'NONE',  ( 1.224646799147351300E-015, 0.5000000000000111000, -10.00000000000000000 ) ) ;
#689 = DIRECTION ( 'NONE',  ( 0.7071067811865406900, 0.7071067811865544600, -0.0000000000000000000 ) ) ;
#690 = CARTESIAN_POINT ( 'NONE',  ( -9.800000000000000700, 5.000000000000000000, 10.00000000000000000 ) ) ;
#691 = DIRECTION ( 'NONE',  ( 0.0000000000000000000, 0.0000000000000000000, -1.000000000000000000 ) ) ;
#692 = DIRECTION ( 'NONE',  ( 0.0000000000000000000, 1.000000000000000000, 0.0000000000000000000 ) ) ;
#693 = CARTESIAN_POINT ( 'NONE',  ( 0.1623072875484947400, 0.3376927124515136700, 2.687307287548507300 ) ) ;
#694 = CARTESIAN_POINT ( 'NONE',  ( 0.0000000000000000000, 0.0000000000000000000, 0.0000000000000000000 ) ) ;
#695 = DIRECTION ( 'NONE',  ( -0.0000000000000000000, -0.0000000000000000000, -1.000000000000000000 ) ) ;
#696 = DIRECTION ( 'NONE',  ( -0.0000000000000000000, -1.000000000000000000, -0.0000000000000000000 ) ) ;
#697 = CARTESIAN_POINT ( 'NONE',  ( 0.0000000000000000000, 0.0000000000000000000, 0.0000000000000000000 ) ) ;
#698 = PLANE ( 'NONE',  #167 ) ;
#699 = DIRECTION ( 'NONE',  ( 0.0000000000000000000, 0.0000000000000000000, -1.000000000000000000 ) ) ;
#700 = DIRECTION ( 'NONE',  ( -1.000000000000000000, 0.0000000000000000000, 0.0000000000000000000 ) ) ;
#701 = CARTESIAN_POINT ( 'NONE',  ( 0.0000000000000000000, 0.0000000000000000000, -10.00000000000000000 ) ) ;
#702 = DIRECTION ( 'NONE',  ( -0.0000000000000000000, -1.000000000000000000, -0.0000000000000000000 ) ) ;
#703 = DIRECTION ( 'NONE',  ( 0.0000000000000000000, 0.0000000000000000000, -1.000000000000000000 ) ) ;
#704 = CARTESIAN_POINT ( 'NONE',  ( 0.3294565384477643500, 0.1705434615522400100, 2.839051691516940100 ) ) ;
#705 = PLANE ( 'NONE',  #168 ) ;
#706 = CARTESIAN_POINT ( 'NONE',  ( -4.900000000000000400, 5.000000000000000000, 10.00000000000000000 ) ) ;
#707 = PLANE ( 'NONE',  #201 ) ;
#708 = DIRECTION ( 'NONE',  ( 0.0000000000000000000, 0.0000000000000000000, -1.000000000000000000 ) ) ;
#709 = CARTESIAN_POINT ( 'NONE',  ( 6.800000000000068200, 10.49999999999999800, 10.00000000000000000 ) ) ;
#710 = DIRECTION ( 'NONE',  ( -0.0000000000000000000, -1.000000000000000000, -0.0000000000000000000 ) ) ;
#711 = DIRECTION ( 'NONE',  ( 0.0000000000000000000, -0.0000000000000000000, -1.000000000000000000 ) ) ;
#712 = PLANE ( 'NONE',  #172 ) ;
#713 = DIRECTION ( 'NONE',  ( 0.0000000000000000000, 0.0000000000000000000, 1.000000000000000000 ) ) ;
#714 = PLANE ( 'NONE',  #173 ) ;
#715 = CARTESIAN_POINT ( 'NONE',  ( 1.224646799147351300E-015, 0.5000000000000111000, 10.00000000000000000 ) ) ;
#716 = DIRECTION ( 'NONE',  ( -0.7071067811865406900, -0.7071067811865544600, 0.0000000000000000000 ) ) ;
#717 = DIRECTION ( 'NONE',  ( -0.7071067811865544600, 0.7071067811865406900, 0.0000000000000000000 ) ) ;
#718 = DIRECTION ( 'NONE',  ( 0.0000000000000000000, -1.000000000000000000, 0.0000000000000000000 ) ) ;
#719 = CARTESIAN_POINT ( 'NONE',  ( 0.0000000000000000000, 0.0000000000000000000, 0.0000000000000000000 ) ) ;
#720 = DIRECTION ( 'NONE',  ( 0.0000000000000000000, 1.000000000000000000, -0.0000000000000000000 ) ) ;
#721 = PLANE ( 'NONE',  #202 ) ;
#722 = CARTESIAN_POINT ( 'NONE',  ( 0.0000000000000000000, 0.0000000000000000000, 10.00000000000000000 ) ) ;
#723 = DIRECTION ( 'NONE',  ( 0.0000000000000000000, 0.0000000000000000000, -1.000000000000000000 ) ) ;
#724 = DIRECTION ( 'NONE',  ( -1.000000000000000000, 0.0000000000000000000, 0.0000000000000000000 ) ) ;
#725 = CARTESIAN_POINT ( 'NONE',  ( 0.5000000000000001100, 0.0000000000000000000, 2.983391526434302900 ) ) ;
#726 = CARTESIAN_POINT ( 'NONE',  ( -0.5000000000000001100, 0.0000000000000000000, 10.00000000000000000 ) ) ;
#727 = CARTESIAN_POINT ( 'NONE',  ( 0.0000000000000000000, 0.0000000000000000000, 0.0000000000000000000 ) ) ;
#728 = DIRECTION ( 'NONE',  ( -0.0000000000000000000, -1.000000000000000000, -0.0000000000000000000 ) ) ;
#729 = DIRECTION ( 'NONE',  ( 0.0000000000000000000, 1.000000000000000000, -0.0000000000000000000 ) ) ;
#730 = DIRECTION ( 'NONE',  ( 0.0000000000000000000, 0.0000000000000000000, 1.000000000000000000 ) ) ;
#731 = DIRECTION ( 'NONE',  ( 0.0000000000000000000, 0.0000000000000000000, -1.000000000000000000 ) ) ;
#732 = DESIGN_CONTEXT ( 'detailed design', #125, 'design' ) ;
#733 = PRODUCT_DEFINITION_SHAPE ( 'NONE', 'NONE',  #210 ) ;
ENDSEC;
END-ISO-10303-21;
