ISO-10303-21;
HEADER;
FILE_DESCRIPTION (( 'STEP AP203' ),
    '1' );
FILE_NAME ('ALP0821.STEP',
    '2017-02-06T17:10:55',
    ( '' ),
    ( '' ),
    'SwSTEP 2.0',
    'SolidWorks 2012',
    '' );
FILE_SCHEMA (( 'CONFIG_CONTROL_DESIGN' ));
ENDSEC;

DATA;
#1 = B_SPLINE_CURVE_WITH_KNOTS ( 'NONE', 3,
 ( #502, #493, #516, #495, #514, #499 ),
 .UNSPECIFIED., .F., .F.,
 ( 4, 2, 4 ),
 ( 0.002278555765609474100, 0.003413457555613191700, 0.004548359345616908400 ),
 .UNSPECIFIED. ) ;
#2 = MANIFOLD_SOLID_BREP ( 'M5 Tapped Hole1', #48 ) ;
#3 = B_SPLINE_CURVE_WITH_KNOTS ( 'NONE', 3,
 ( #426, #430, #485, #458 ),
 .UNSPECIFIED., .F., .F.,
 ( 4, 4 ),
 ( 2.380737886853293500E-007, 0.002278555765609474500 ),
 .UNSPECIFIED. ) ;
#4 = B_SPLINE_CURVE_WITH_KNOTS ( 'NONE', 3,
 ( #470, #480, #473, #464, #488, #447, #477, #483 ),
 .UNSPECIFIED., .F., .F.,
 ( 4, 2, 2, 4 ),
 ( 2.330585287113515900E-007, 0.002253686818522085600, 0.003380413698518772000, 0.004507140578515458400 ),
 .UNSPECIFIED. ) ;
#5 = B_SPLINE_CURVE_WITH_KNOTS ( 'NONE', 3,
 ( #453, #484, #478, #450, #479, #461, #455, #471 ),
 .UNSPECIFIED., .F., .F.,
 ( 4, 2, 2, 4 ),
 ( 2.330585287111467100E-007, 0.002253686818522085600, 0.003380413698518772400, 0.004507140578515458400 ),
 .UNSPECIFIED. ) ;
#6 = B_SPLINE_CURVE_WITH_KNOTS ( 'NONE', 3,
 ( #489, #459, #456, #462, #465, #463 ),
 .UNSPECIFIED., .F., .F.,
 ( 4, 2, 4 ),
 ( 0.004220321396278471800, 0.005360229583824342400, 0.006500137771370213800 ),
 .UNSPECIFIED. ) ;
#7 = B_SPLINE_CURVE_WITH_KNOTS ( 'NONE', 3,
 ( #451, #457, #466, #468, #474, #469 ),
 .UNSPECIFIED., .F., .F.,
 ( 4, 2, 4 ),
 ( 0.002278555765609474500, 0.003413457555613191700, 0.004548359345616908400 ),
 .UNSPECIFIED. ) ;
#8 = ADVANCED_FACE ( 'NONE', ( #51 ), #679, .F. ) ;
#9 = ADVANCED_FACE ( 'NONE', ( #227 ), #673, .F. ) ;
#10 = ADVANCED_FACE ( 'NONE', ( #223 ), #191, .T. ) ;
#11 = ADVANCED_FACE ( 'NONE', ( #229 ), #203, .F. ) ;
#12 = ADVANCED_FACE ( 'NONE', ( #189, #201 ), #680, .F. ) ;
#13 = ADVANCED_FACE ( 'NONE', ( #228 ), #211, .F. ) ;
#14 = ADVANCED_FACE ( 'NONE', ( #230, #235 ), #662, .T. ) ;
#15 = ADVANCED_FACE ( 'NONE', ( #220 ), #665, .F. ) ;
#16 = ADVANCED_FACE ( 'NONE', ( #190 ), #204, .T. ) ;
#17 = ADVANCED_FACE ( 'NONE', ( #195 ), #689, .F. ) ;
#18 = ADVANCED_FACE ( 'NONE', ( #224 ), #214, .T. ) ;
#19 = ADVANCED_FACE ( 'NONE', ( #237 ), #700, .F. ) ;
#20 = ADVANCED_FACE ( 'NONE', ( #198 ), #239, .T. ) ;
#21 = ADVANCED_FACE ( 'NONE', ( #233 ), #232, .F. ) ;
#22 = ADVANCED_FACE ( 'NONE', ( #202 ), #205, .T. ) ;
#23 = ADVANCED_FACE ( 'NONE', ( #221 ), #244, .T. ) ;
#24 = ADVANCED_FACE ( 'NONE', ( #238 ), #284, .T. ) ;
#25 = ADVANCED_FACE ( 'NONE', ( #197 ), #267, .T. ) ;
#26 = ADVANCED_FACE ( 'NONE', ( #217 ), #285, .T. ) ;
#27 = ADVANCED_FACE ( 'NONE', ( #193 ), #289, .F. ) ;
#28 = ADVANCED_FACE ( 'NONE', ( #250 ), #257, .T. ) ;
#29 = ADVANCED_FACE ( 'NONE', ( #303, #252 ), #391, .T. ) ;
#30 = ADVANCED_FACE ( 'NONE', ( #300 ), #353, .F. ) ;
#31 = ADVANCED_FACE ( 'NONE', ( #247 ), #290, .T. ) ;
#32 = ADVANCED_FACE ( 'NONE', ( #306 ), #292, .F. ) ;
#33 = ADVANCED_FACE ( 'NONE', ( #281 ), #280, .F. ) ;
#34 = ORIENTED_EDGE ( 'NONE', *, *, #723, .F. ) ;
#35 = ORIENTED_EDGE ( 'NONE', *, *, #741, .T. ) ;
#36 = ORIENTED_EDGE ( 'NONE', *, *, #726, .T. ) ;
#37 = ORIENTED_EDGE ( 'NONE', *, *, #736, .T. ) ;
#38 = ORIENTED_EDGE ( 'NONE', *, *, #770, .T. ) ;
#39 = ORIENTED_EDGE ( 'NONE', *, *, #720, .F. ) ;
#40 = ORIENTED_EDGE ( 'NONE', *, *, #756, .F. ) ;
#41 = ORIENTED_EDGE ( 'NONE', *, *, #729, .T. ) ;
#42 = ORIENTED_EDGE ( 'NONE', *, *, #744, .T. ) ;
#43 = ORIENTED_EDGE ( 'NONE', *, *, #788, .T. ) ;
#44 = ORIENTED_EDGE ( 'NONE', *, *, #741, .F. ) ;
#45 = ORIENTED_EDGE ( 'NONE', *, *, #722, .F. ) ;
#46 = ORIENTED_EDGE ( 'NONE', *, *, #754, .T. ) ;
#47 = ORIENTED_EDGE ( 'NONE', *, *, #778, .F. ) ;
#48 = CLOSED_SHELL ( 'NONE', ( #11, #21, #20, #13, #28, #16, #30, #17, #9, #19, #8, #15, #24, #22, #12, #33, #14, #23, #25, #10, #31, #26, #18, #29, #27, #32 ) ) ;
#49 = ORIENTED_EDGE ( 'NONE', *, *, #718, .T. ) ;
#50 = ORIENTED_EDGE ( 'NONE', *, *, #760, .T. ) ;
#51 = FACE_OUTER_BOUND ( 'NONE', #143, .T. ) ;
#52 = ORIENTED_EDGE ( 'NONE', *, *, #783, .T. ) ;
#53 = ORIENTED_EDGE ( 'NONE', *, *, #716, .F. ) ;
#54 = ORIENTED_EDGE ( 'NONE', *, *, #756, .T. ) ;
#55 = ORIENTED_EDGE ( 'NONE', *, *, #716, .T. ) ;
#56 = ORIENTED_EDGE ( 'NONE', *, *, #732, .T. ) ;
#57 = VERTEX_POINT ( 'NONE', #354 ) ;
#58 = ORIENTED_EDGE ( 'NONE', *, *, #731, .T. ) ;
#59 = ORIENTED_EDGE ( 'NONE', *, *, #770, .F. ) ;
#60 = ORIENTED_EDGE ( 'NONE', *, *, #785, .T. ) ;
#61 = ORIENTED_EDGE ( 'NONE', *, *, #717, .F. ) ;
#62 = ORIENTED_EDGE ( 'NONE', *, *, #753, .F. ) ;
#63 = ORIENTED_EDGE ( 'NONE', *, *, #753, .T. ) ;
#64 = ORIENTED_EDGE ( 'NONE', *, *, #778, .T. ) ;
#65 = ORIENTED_EDGE ( 'NONE', *, *, #759, .T. ) ;
#66 = ORIENTED_EDGE ( 'NONE', *, *, #742, .F. ) ;
#67 = ORIENTED_EDGE ( 'NONE', *, *, #765, .T. ) ;
#68 = ORIENTED_EDGE ( 'NONE', *, *, #744, .F. ) ;
#69 = ORIENTED_EDGE ( 'NONE', *, *, #787, .T. ) ;
#70 = ORIENTED_EDGE ( 'NONE', *, *, #783, .F. ) ;
#71 = ORIENTED_EDGE ( 'NONE', *, *, #729, .F. ) ;
#72 = ORIENTED_EDGE ( 'NONE', *, *, #788, .F. ) ;
#73 = ORIENTED_EDGE ( 'NONE', *, *, #719, .F. ) ;
#74 = ORIENTED_EDGE ( 'NONE', *, *, #775, .F. ) ;
#75 = ORIENTED_EDGE ( 'NONE', *, *, #782, .F. ) ;
#76 = ORIENTED_EDGE ( 'NONE', *, *, #773, .T. ) ;
#77 = ORIENTED_EDGE ( 'NONE', *, *, #728, .T. ) ;
#78 = ORIENTED_EDGE ( 'NONE', *, *, #725, .F. ) ;
#79 = ORIENTED_EDGE ( 'NONE', *, *, #763, .T. ) ;
#80 = ORIENTED_EDGE ( 'NONE', *, *, #764, .T. ) ;
#81 = ORIENTED_EDGE ( 'NONE', *, *, #717, .T. ) ;
#82 = ORIENTED_EDGE ( 'NONE', *, *, #734, .F. ) ;
#83 = ORIENTED_EDGE ( 'NONE', *, *, #727, .T. ) ;
#84 = ORIENTED_EDGE ( 'NONE', *, *, #784, .F. ) ;
#85 = ORIENTED_EDGE ( 'NONE', *, *, #726, .F. ) ;
#86 = ORIENTED_EDGE ( 'NONE', *, *, #769, .F. ) ;
#87 = ORIENTED_EDGE ( 'NONE', *, *, #721, .T. ) ;
#88 = ORIENTED_EDGE ( 'NONE', *, *, #724, .F. ) ;
#89 = ORIENTED_EDGE ( 'NONE', *, *, #734, .T. ) ;
#90 = ORIENTED_EDGE ( 'NONE', *, *, #768, .F. ) ;
#91 = ORIENTED_EDGE ( 'NONE', *, *, #721, .F. ) ;
#92 = ORIENTED_EDGE ( 'NONE', *, *, #766, .T. ) ;
#93 = ORIENTED_EDGE ( 'NONE', *, *, #769, .T. ) ;
#94 = ORIENTED_EDGE ( 'NONE', *, *, #755, .T. ) ;
#95 = ORIENTED_EDGE ( 'NONE', *, *, #754, .F. ) ;
#96 = ORIENTED_EDGE ( 'NONE', *, *, #736, .F. ) ;
#97 = ORIENTED_EDGE ( 'NONE', *, *, #735, .T. ) ;
#98 = ORIENTED_EDGE ( 'NONE', *, *, #764, .F. ) ;
#99 = ORIENTED_EDGE ( 'NONE', *, *, #761, .F. ) ;
#100 = ORIENTED_EDGE ( 'NONE', *, *, #738, .T. ) ;
#101 = ORIENTED_EDGE ( 'NONE', *, *, #719, .T. ) ;
#102 = ORIENTED_EDGE ( 'NONE', *, *, #762, .F. ) ;
#103 = ORIENTED_EDGE ( 'NONE', *, *, #777, .F. ) ;
#104 = ORIENTED_EDGE ( 'NONE', *, *, #758, .T. ) ;
#105 = ORIENTED_EDGE ( 'NONE', *, *, #722, .T. ) ;
#106 = ORIENTED_EDGE ( 'NONE', *, *, #742, .T. ) ;
#107 = ORIENTED_EDGE ( 'NONE', *, *, #727, .F. ) ;
#108 = ORIENTED_EDGE ( 'NONE', *, *, #718, .F. ) ;
#109 = ORIENTED_EDGE ( 'NONE', *, *, #720, .T. ) ;
#110 = ORIENTED_EDGE ( 'NONE', *, *, #723, .T. ) ;
#111 = ORIENTED_EDGE ( 'NONE', *, *, #786, .T. ) ;
#112 = ORIENTED_EDGE ( 'NONE', *, *, #789, .T. ) ;
#113 = ORIENTED_EDGE ( 'NONE', *, *, #765, .F. ) ;
#114 = ORIENTED_EDGE ( 'NONE', *, *, #749, .T. ) ;
#115 = ORIENTED_EDGE ( 'NONE', *, *, #733, .F. ) ;
#116 = ORIENTED_EDGE ( 'NONE', *, *, #766, .F. ) ;
#117 = ORIENTED_EDGE ( 'NONE', *, *, #768, .T. ) ;
#118 = ORIENTED_EDGE ( 'NONE', *, *, #738, .F. ) ;
#119 = ORIENTED_EDGE ( 'NONE', *, *, #787, .F. ) ;
#120 = ORIENTED_EDGE ( 'NONE', *, *, #730, .T. ) ;
#121 = ORIENTED_EDGE ( 'NONE', *, *, #747, .T. ) ;
#122 = ORIENTED_EDGE ( 'NONE', *, *, #725, .T. ) ;
#123 = ORIENTED_EDGE ( 'NONE', *, *, #777, .T. ) ;
#124 = EDGE_LOOP ( 'NONE', ( #88, #122, #80, #90 ) ) ;
#125 = EDGE_LOOP ( 'NONE', ( #85, #109, #77 ) ) ;
#126 = ORIENTED_EDGE ( 'NONE', *, *, #782, .T. ) ;
#127 = EDGE_LOOP ( 'NONE', ( #78, #74, #117, #120 ) ) ;
#128 = EDGE_LOOP ( 'NONE', ( #46, #53, #93 ) ) ;
#129 = EDGE_LOOP ( 'NONE', ( #39, #59, #42 ) ) ;
#130 = EDGE_LOOP ( 'NONE', ( #37, #62, #65 ) ) ;
#131 = EDGE_LOOP ( 'NONE', ( #119, #67, #167, #138 ) ) ;
#132 = ORIENTED_EDGE ( 'NONE', *, *, #755, .F. ) ;
#133 = EDGE_LOOP ( 'NONE', ( #121, #170, #100, #173, #114, #76, #89 ) ) ;
#134 = ORIENTED_EDGE ( 'NONE', *, *, #724, .T. ) ;
#135 = VERTEX_POINT ( 'NONE', #357 ) ;
#136 = VERTEX_POINT ( 'NONE', #389 ) ;
#137 = VERTEX_POINT ( 'NONE', #359 ) ;
#138 = ORIENTED_EDGE ( 'NONE', *, *, #763, .F. ) ;
#139 = ORIENTED_EDGE ( 'NONE', *, *, #730, .F. ) ;
#140 = ORIENTED_EDGE ( 'NONE', *, *, #759, .F. ) ;
#141 = ORIENTED_EDGE ( 'NONE', *, *, #732, .F. ) ;
#142 = ORIENTED_EDGE ( 'NONE', *, *, #731, .F. ) ;
#143 = EDGE_LOOP ( 'NONE', ( #103, #92, #149, #132, #155 ) ) ;
#144 = EDGE_LOOP ( 'NONE', ( #43, #44, #60 ) ) ;
#145 = EDGE_LOOP ( 'NONE', ( #73, #142 ) ) ;
#146 = ORIENTED_EDGE ( 'NONE', *, *, #784, .T. ) ;
#147 = EDGE_LOOP ( 'NONE', ( #96, #172, #84, #164, #151, #86 ) ) ;
#148 = ORIENTED_EDGE ( 'NONE', *, *, #728, .F. ) ;
#149 = ORIENTED_EDGE ( 'NONE', *, *, #773, .F. ) ;
#150 = ORIENTED_EDGE ( 'NONE', *, *, #775, .T. ) ;
#151 = ORIENTED_EDGE ( 'NONE', *, *, #772, .F. ) ;
#152 = EDGE_LOOP ( 'NONE', ( #99, #146, #97, #112, #111, #178, #79 ) ) ;
#153 = EDGE_LOOP ( 'NONE', ( #91, #113 ) ) ;
#154 = ORIENTED_EDGE ( 'NONE', *, *, #737, .F. ) ;
#155 = ORIENTED_EDGE ( 'NONE', *, *, #785, .F. ) ;
#156 = EDGE_LOOP ( 'NONE', ( #45, #47, #49, #106 ) ) ;
#157 = EDGE_LOOP ( 'NONE', ( #139, #98 ) ) ;
#158 = EDGE_LOOP ( 'NONE', ( #87, #69, #118, #102 ) ) ;
#159 = EDGE_LOOP ( 'NONE', ( #72, #94, #162, #169, #160, #183 ) ) ;
#160 = ORIENTED_EDGE ( 'NONE', *, *, #758, .F. ) ;
#161 = EDGE_LOOP ( 'NONE', ( #34, #58, #41, #64 ) ) ;
#162 = ORIENTED_EDGE ( 'NONE', *, *, #749, .F. ) ;
#163 = EDGE_LOOP ( 'NONE', ( #148, #126, #168, #115, #140 ) ) ;
#164 = ORIENTED_EDGE ( 'NONE', *, *, #747, .F. ) ;
#165 = ORIENTED_EDGE ( 'NONE', *, *, #737, .T. ) ;
#166 = EDGE_LOOP ( 'NONE', ( #107, #105, #81, #108 ) ) ;
#167 = ORIENTED_EDGE ( 'NONE', *, *, #762, .T. ) ;
#168 = ORIENTED_EDGE ( 'NONE', *, *, #735, .F. ) ;
#169 = ORIENTED_EDGE ( 'NONE', *, *, #786, .F. ) ;
#170 = ORIENTED_EDGE ( 'NONE', *, *, #761, .T. ) ;
#171 = EDGE_LOOP ( 'NONE', ( #52, #40, #50 ) ) ;
#172 = ORIENTED_EDGE ( 'NONE', *, *, #733, .T. ) ;
#173 = ORIENTED_EDGE ( 'NONE', *, *, #774, .F. ) ;
#174 = EDGE_LOOP ( 'NONE', ( #56, #35, #54, #38, #36, #63, #55 ) ) ;
#175 = EDGE_LOOP ( 'NONE', ( #95, #177, #82, #116, #154 ) ) ;
#176 = EDGE_LOOP ( 'NONE', ( #70, #104, #179, #75, #68 ) ) ;
#177 = ORIENTED_EDGE ( 'NONE', *, *, #772, .T. ) ;
#178 = ORIENTED_EDGE ( 'NONE', *, *, #774, .T. ) ;
#179 = ORIENTED_EDGE ( 'NONE', *, *, #789, .F. ) ;
#180 = EDGE_LOOP ( 'NONE', ( #101, #110, #83, #71 ) ) ;
#181 = EDGE_LOOP ( 'NONE', ( #123, #141, #165 ) ) ;
#182 = EDGE_LOOP ( 'NONE', ( #150, #134 ) ) ;
#183 = ORIENTED_EDGE ( 'NONE', *, *, #760, .F. ) ;
#184 = EDGE_LOOP ( 'NONE', ( #66, #61 ) ) ;
#185 = VERTEX_POINT ( 'NONE', #355 ) ;
#186 = VERTEX_POINT ( 'NONE', #403 ) ;
#187 = VERTEX_POINT ( 'NONE', #385 ) ;
#188 = VERTEX_POINT ( 'NONE', #363 ) ;
#189 = FACE_BOUND ( 'NONE', #157, .T. ) ;
#190 = FACE_OUTER_BOUND ( 'NONE', #133, .T. ) ;
#191 = CONICAL_SURFACE ( 'NONE', #771, 0.8259937025394326100, 1.047197551196596500 ) ;
#192 = VERTEX_POINT ( 'NONE', #364 ) ;
#193 = FACE_OUTER_BOUND ( 'NONE', #161, .T. ) ;
#194 = VERTEX_POINT ( 'NONE', #361 ) ;
#195 = FACE_OUTER_BOUND ( 'NONE', #163, .T. ) ;
#196 = VERTEX_POINT ( 'NONE', #365 ) ;
#197 = FACE_OUTER_BOUND ( 'NONE', #128, .T. ) ;
#198 = FACE_OUTER_BOUND ( 'NONE', #125, .T. ) ;
#199 = VERTEX_POINT ( 'NONE', #362 ) ;
#200 = VERTEX_POINT ( 'NONE', #366 ) ;
#201 = FACE_OUTER_BOUND ( 'NONE', #153, .T. ) ;
#202 = FACE_OUTER_BOUND ( 'NONE', #131, .T. ) ;
#203 = CONICAL_SURFACE ( 'NONE', #776, 2.524999999999999900, 0.7853981633974482800 ) ;
#204 = CONICAL_SURFACE ( 'NONE', #740, 5.599999999999999600, 1.162647223039806800 ) ;
#205 = CYLINDRICAL_SURFACE ( 'NONE', #814, 5.599999999999999600 ) ;
#206 = VERTEX_POINT ( 'NONE', #369 ) ;
#207 = VERTEX_POINT ( 'NONE', #367 ) ;
#208 = VERTEX_POINT ( 'NONE', #370 ) ;
#209 = VERTEX_POINT ( 'NONE', #371 ) ;
#210 = VERTEX_POINT ( 'NONE', #375 ) ;
#211 = CYLINDRICAL_SURFACE ( 'NONE', #780, 3.750000000000000000 ) ;
#212 = VERTEX_POINT ( 'NONE', #376 ) ;
#213 = VERTEX_POINT ( 'NONE', #377 ) ;
#214 = CONICAL_SURFACE ( 'NONE', #781, 0.8259937025394326100, 1.047197551196596500 ) ;
#215 = VERTEX_POINT ( 'NONE', #380 ) ;
#216 = VERTEX_POINT ( 'NONE', #381 ) ;
#217 = FACE_OUTER_BOUND ( 'NONE', #171, .T. ) ;
#218 = VERTEX_POINT ( 'NONE', #387 ) ;
#219 = VERTEX_POINT ( 'NONE', #390 ) ;
#220 = FACE_OUTER_BOUND ( 'NONE', #159, .T. ) ;
#221 = FACE_OUTER_BOUND ( 'NONE', #181, .T. ) ;
#222 = VERTEX_POINT ( 'NONE', #439 ) ;
#223 = FACE_OUTER_BOUND ( 'NONE', #130, .T. ) ;
#224 = FACE_OUTER_BOUND ( 'NONE', #144, .T. ) ;
#225 = VERTEX_POINT ( 'NONE', #438 ) ;
#226 = VERTEX_POINT ( 'NONE', #418 ) ;
#227 = FACE_OUTER_BOUND ( 'NONE', #147, .T. ) ;
#228 = FACE_OUTER_BOUND ( 'NONE', #124, .T. ) ;
#229 = FACE_OUTER_BOUND ( 'NONE', #166, .T. ) ;
#230 = FACE_BOUND ( 'NONE', #145, .T. ) ;
#231 = VERTEX_POINT ( 'NONE', #414 ) ;
#232 = CYLINDRICAL_SURFACE ( 'NONE', #752, 2.099999999999999600 ) ;
#233 = FACE_OUTER_BOUND ( 'NONE', #180, .T. ) ;
#234 = VERTEX_POINT ( 'NONE', #415 ) ;
#235 = FACE_OUTER_BOUND ( 'NONE', #182, .T. ) ;
#236 = VERTEX_POINT ( 'NONE', #416 ) ;
#237 = FACE_OUTER_BOUND ( 'NONE', #175, .T. ) ;
#238 = FACE_OUTER_BOUND ( 'NONE', #152, .T. ) ;
#239 = CONICAL_SURFACE ( 'NONE', #745, 0.8259937025394326100, 1.047197551196596500 ) ;
#240 = VERTEX_POINT ( 'NONE', #405 ) ;
#241 = VERTEX_POINT ( 'NONE', #422 ) ;
#242 = VERTEX_POINT ( 'NONE', #433 ) ;
#243 = VERTEX_POINT ( 'NONE', #431 ) ;
#244 = CONICAL_SURFACE ( 'NONE', #750, 0.8259937025394326100, 1.047197551196596500 ) ;
#245 = VERTEX_POINT ( 'NONE', #434 ) ;
#246 = LINE ( 'NONE', #409, #269 ) ;
#247 = FACE_OUTER_BOUND ( 'NONE', #129, .T. ) ;
#248 = CIRCLE ( 'NONE', #805, 3.750000000000000000 ) ;
#249 = VECTOR ( 'NONE', #534, 1000.000000000000000 ) ;
#250 = FACE_OUTER_BOUND ( 'NONE', #158, .T. ) ;
#251 = VECTOR ( 'NONE', #443, 1000.000000000000000 ) ;
#252 = FACE_OUTER_BOUND ( 'NONE', #174, .T. ) ;
#253 = CIRCLE ( 'NONE', #832, 5.599999999999999600 ) ;
#254 = LINE ( 'NONE', #482, #295 ) ;
#255 = LINE ( 'NONE', #552, #305 ) ;
#256 = VECTOR ( 'NONE', #541, 999.9999999999998900 ) ;
#257 = CYLINDRICAL_SURFACE ( 'NONE', #822, 5.599999999999999600 ) ;
#258 = LINE ( 'NONE', #532, #278 ) ;
#259 = CIRCLE ( 'NONE', #819, 3.899999999999998100 ) ;
#260 = LINE ( 'NONE', #557, #256 ) ;
#261 = CIRCLE ( 'NONE', #800, 3.750000000000000000 ) ;
#262 = LINE ( 'NONE', #533, #263 ) ;
#263 = VECTOR ( 'NONE', #561, 1000.000000000000000 ) ;
#264 = VECTOR ( 'NONE', #551, 1000.000000000000000 ) ;
#265 = LINE ( 'NONE', #588, #275 ) ;
#266 = LINE ( 'NONE', #440, #296 ) ;
#267 = CONICAL_SURFACE ( 'NONE', #802, 0.8259937025394326100, 1.047197551196596500 ) ;
#268 = VECTOR ( 'NONE', #420, 1000.000000000000100 ) ;
#269 = VECTOR ( 'NONE', #424, 1000.000000000000000 ) ;
#270 = CIRCLE ( 'NONE', #831, 3.899999999999998100 ) ;
#271 = LINE ( 'NONE', #436, #282 ) ;
#272 = LINE ( 'NONE', #419, #251 ) ;
#273 = CIRCLE ( 'NONE', #830, 5.599999999999999600 ) ;
#274 = LINE ( 'NONE', #535, #264 ) ;
#275 = VECTOR ( 'NONE', #607, 1000.000000000000000 ) ;
#276 = LINE ( 'NONE', #406, #268 ) ;
#277 = CIRCLE ( 'NONE', #803, 2.100000000000000100 ) ;
#278 = VECTOR ( 'NONE', #526, 1000.000000000000000 ) ;
#279 = CIRCLE ( 'NONE', #823, 2.099999999999999600 ) ;
#280 = CYLINDRICAL_SURFACE ( 'NONE', #806, 3.750000000000000000 ) ;
#281 = FACE_OUTER_BOUND ( 'NONE', #127, .T. ) ;
#282 = VECTOR ( 'NONE', #437, 1000.000000000000000 ) ;
#283 = CIRCLE ( 'NONE', #838, 3.899999999999998100 ) ;
#284 = CONICAL_SURFACE ( 'NONE', #751, 5.599999999999999600, 1.162647223039806800 ) ;
#285 = CONICAL_SURFACE ( 'NONE', #825, 0.8259937025394326100, 1.047197551196596500 ) ;
#286 = CIRCLE ( 'NONE', #816, 5.599999999999999600 ) ;
#287 = CIRCLE ( 'NONE', #801, 3.899999999999998100 ) ;
#288 = CIRCLE ( 'NONE', #798, 2.524999999999999900 ) ;
#289 = CYLINDRICAL_SURFACE ( 'NONE', #791, 2.099999999999999600 ) ;
#290 = CONICAL_SURFACE ( 'NONE', #829, 0.8259937025394326100, 1.047197551196596500 ) ;
#291 = CIRCLE ( 'NONE', #824, 5.599999999999999600 ) ;
#292 = CONICAL_SURFACE ( 'NONE', #826, 2.524999999999999900, 0.7853981633974482800 ) ;
#293 = CIRCLE ( 'NONE', #815, 3.750000000000000000 ) ;
#294 = CIRCLE ( 'NONE', #835, 2.099999999999999600 ) ;
#295 = VECTOR ( 'NONE', #487, 1000.000000000000000 ) ;
#296 = VECTOR ( 'NONE', #408, 1000.000000000000000 ) ;
#297 = LINE ( 'NONE', #460, #307 ) ;
#298 = CIRCLE ( 'NONE', #821, 3.899999999999998100 ) ;
#299 = CIRCLE ( 'NONE', #809, 3.899999999999998100 ) ;
#300 = FACE_OUTER_BOUND ( 'NONE', #176, .T. ) ;
#301 = CIRCLE ( 'NONE', #836, 3.899999999999998100 ) ;
#302 = CIRCLE ( 'NONE', #804, 2.524999999999999900 ) ;
#303 = FACE_BOUND ( 'NONE', #184, .T. ) ;
#304 = LINE ( 'NONE', #529, #249 ) ;
#305 = VECTOR ( 'NONE', #544, 1000.000000000000000 ) ;
#306 = FACE_OUTER_BOUND ( 'NONE', #156, .T. ) ;
#307 = VECTOR ( 'NONE', #472, 1000.000000000000000 ) ;
#308 = LOCAL_TIME ( 18, 10, 55.00000000000000000, #350 ) ;
#309 = PERSON_AND_ORGANIZATION ( #860, #331 ) ;
#310 = COORDINATED_UNIVERSAL_TIME_OFFSET ( 1, 0, .AHEAD. ) ;
#311 = CALENDAR_DATE ( 2017, 6, 2 ) ;
#312 = COORDINATED_UNIVERSAL_TIME_OFFSET ( 1, 0, .AHEAD. ) ;
#313 = CALENDAR_DATE ( 2017, 6, 2 ) ;
#314 = COORDINATED_UNIVERSAL_TIME_OFFSET ( 1, 0, .AHEAD. ) ;
#315 = PERSON_AND_ORGANIZATION ( #860, #331 ) ;
#316 = SHAPE_DEFINITION_REPRESENTATION ( #841, #849 ) ;
#317 = LINE ( 'NONE', #625, #327 ) ;
#318 = PERSON_AND_ORGANIZATION ( #860, #331 ) ;
#319 = DATE_AND_TIME ( #326, #347 ) ;
#320 = CIRCLE ( 'NONE', #817, 2.100000000000000100 ) ;
#321 = PERSON_AND_ORGANIZATION ( #860, #331 ) ;
#322 = APPROVAL_PERSON_ORGANIZATION ( #321, #794, #653 ) ;
#323 = COORDINATED_UNIVERSAL_TIME_OFFSET ( 1, 0, .AHEAD. ) ;
#324 = CALENDAR_DATE ( 2017, 6, 2 ) ;
#325 = VECTOR ( 'NONE', #604, 1000.000000000000000 ) ;
#326 = CALENDAR_DATE ( 2017, 6, 2 ) ;
#327 = VECTOR ( 'NONE', #623, 1000.000000000000000 ) ;
#328 = LINE ( 'NONE', #585, #339 ) ;
#329 = APPROVAL_DATE_TIME ( #344, #794 ) ;
#330 = APPROVAL_DATE_TIME ( #342, #828 ) ;
#331 = ORGANIZATION ( 'UNSPECIFIED', 'UNSPECIFIED', '' ) ;
#332 = LOCAL_TIME ( 18, 10, 55.00000000000000000, #314 ) ;
#333 = APPROVAL_PERSON_ORGANIZATION ( #346, #811, #644 ) ;
#334 = DATE_AND_TIME ( #311, #345 ) ;
#335 = LINE ( 'NONE', #578, #325 ) ;
#336 = PERSON_AND_ORGANIZATION ( #860, #331 ) ;
#337 = LOCAL_TIME ( 18, 10, 55.00000000000000000, #323 ) ;
#338 = APPROVAL_PERSON_ORGANIZATION ( #309, #828, #616 ) ;
#339 = VECTOR ( 'NONE', #594, 999.9999999999998900 ) ;
#340 = DATE_AND_TIME ( #324, #337 ) ;
#341 = CALENDAR_DATE ( 2017, 6, 2 ) ;
#342 = DATE_AND_TIME ( #341, #332 ) ;
#343 = PERSON_AND_ORGANIZATION ( #860, #331 ) ;
#344 = DATE_AND_TIME ( #313, #308 ) ;
#345 = LOCAL_TIME ( 18, 10, 55.00000000000000000, #310 ) ;
#346 = PERSON_AND_ORGANIZATION ( #860, #331 ) ;
#347 = LOCAL_TIME ( 18, 10, 55.00000000000000000, #312 ) ;
#348 = APPROVAL_DATE_TIME ( #319, #811 ) ;
#349 = PERSON_AND_ORGANIZATION ( #860, #331 ) ;
#350 = COORDINATED_UNIVERSAL_TIME_OFFSET ( 1, 0, .AHEAD. ) ;
#351 = CIRCLE ( 'NONE', #827, 3.750000000000000000 ) ;
#352 = DIRECTION ( 'NONE',  ( 0.0000000000000000000, -1.000000000000000000, 0.0000000000000000000 ) ) ;
#353 = PLANE ( 'NONE',  #834 ) ;
#354 = CARTESIAN_POINT ( 'NONE',  ( 3.899999999999999500, 1.674234767706342500, -2.251666049839542000 ) ) ;
#355 = CARTESIAN_POINT ( 'NONE',  ( 2.571758278209441500E-016, 4.374999999999999100, -2.100000000000000100 ) ) ;
#356 = DIRECTION ( 'NONE',  ( 0.0000000000000000000, 0.0000000000000000000, -1.000000000000000000 ) ) ;
#357 = CARTESIAN_POINT ( 'NONE',  ( -5.600000000000003200, 1.200000000000000000, 6.858022075225177600E-016 ) ) ;
#358 = DIRECTION ( 'NONE',  ( -0.0000000000000000000, 1.000000000000000000, -0.0000000000000000000 ) ) ;
#359 = CARTESIAN_POINT ( 'NONE',  ( 3.092233167847066500E-016, 4.799999999999999800, -2.524999999999999900 ) ) ;
#360 = DIRECTION ( 'NONE',  ( 3.624628615055125000E-020, 1.000000000000000000, -0.0000000000000000000 ) ) ;
#361 = CARTESIAN_POINT ( 'NONE',  ( -3.960653404736762100E-016, 1.674234767706343400, -4.503332099679082200 ) ) ;
#362 = CARTESIAN_POINT ( 'NONE',  ( -5.600000000000003200, 4.059584048861739800E-019, 0.0000000000000000000 ) ) ;
#363 = CARTESIAN_POINT ( 'NONE',  ( -3.900000000000000800, 1.674234767706344900, 2.251666049839540200 ) ) ;
#364 = CARTESIAN_POINT ( 'NONE',  ( 3.899999999999999900, 4.799999999999999800, -3.755786496842895600E-016 ) ) ;
#365 = CARTESIAN_POINT ( 'NONE',  ( 0.0000000000000000000, 4.799999999999999800, -3.899999999999998100 ) ) ;
#366 = CARTESIAN_POINT ( 'NONE',  ( 3.899999999999999900, 1.674234767706804300, 2.251666049839978500 ) ) ;
#367 = CARTESIAN_POINT ( 'NONE',  ( 4.592425496802574000E-016, 0.0000000000000000000, 3.750000000000000000 ) ) ;
#368 = CARTESIAN_POINT ( 'NONE',  ( 0.0000000000000000000, 4.799999999999999800, 0.0000000000000000000 ) ) ;
#369 = CARTESIAN_POINT ( 'NONE',  ( 5.599999999999996100, 1.200000000000000000, 0.0000000000000000000 ) ) ;
#370 = CARTESIAN_POINT ( 'NONE',  ( -7.124939253119072700E-016, 1.674234767706343800, 4.503332099679081300 ) ) ;
#371 = CARTESIAN_POINT ( 'NONE',  ( 1.949999999999999100, 4.799999999999999800, 3.377499074759311000 ) ) ;
#372 = DIRECTION ( 'NONE',  ( 0.0000000000000000000, -1.000000000000000000, 0.0000000000000000000 ) ) ;
#373 = CARTESIAN_POINT ( 'NONE',  ( 0.0000000000000000000, 4.799999999999999800, 0.0000000000000000000 ) ) ;
#374 = DIRECTION ( 'NONE',  ( 0.0000000000000000000, 0.0000000000000000000, -1.000000000000000000 ) ) ;
#375 = CARTESIAN_POINT ( 'NONE',  ( 0.0000000000000000000, 0.4000000000000000200, -3.750000000000000000 ) ) ;
#376 = CARTESIAN_POINT ( 'NONE',  ( -1.950000000000000000, 4.799999999999999800, -3.377499074759312300 ) ) ;
#377 = CARTESIAN_POINT ( 'NONE',  ( 0.0000000000000000000, 0.0000000000000000000, -3.750000000000000000 ) ) ;
#378 = DIRECTION ( 'NONE',  ( -0.0000000000000000000, -1.000000000000000000, -0.0000000000000000000 ) ) ;
#379 = CARTESIAN_POINT ( 'NONE',  ( 0.0000000000000000000, 6.574778363329467200, 0.0000000000000000000 ) ) ;
#380 = CARTESIAN_POINT ( 'NONE',  ( -3.900000000000000800, 4.799999999999999800, 3.755786496842897100E-016 ) ) ;
#381 = CARTESIAN_POINT ( 'NONE',  ( 0.0000000000000000000, 4.374999999999999100, 2.100000000000000100 ) ) ;
#382 = CARTESIAN_POINT ( 'NONE',  ( 0.0000000000000000000, 6.574778363329467200, 0.0000000000000000000 ) ) ;
#383 = DIRECTION ( 'NONE',  ( 0.0000000000000000000, 1.000000000000000000, 0.0000000000000000000 ) ) ;
#384 = CARTESIAN_POINT ( 'NONE',  ( 0.0000000000000000000, 4.799999999999999800, 0.0000000000000000000 ) ) ;
#385 = CARTESIAN_POINT ( 'NONE',  ( 0.0000000000000000000, 4.799999999999999800, 2.524999999999999900 ) ) ;
#386 = DIRECTION ( 'NONE',  ( 0.0000000000000000000, 0.0000000000000000000, 1.000000000000000000 ) ) ;
#387 = CARTESIAN_POINT ( 'NONE',  ( 1.950000000000000600, 4.799999999999999800, -3.377499074759311900 ) ) ;
#388 = DIRECTION ( 'NONE',  ( 0.0000000000000000000, -1.000000000000000000, 0.0000000000000000000 ) ) ;
#389 = CARTESIAN_POINT ( 'NONE',  ( 0.0000000000000000000, 0.4000000000000001900, 2.099999999999999600 ) ) ;
#390 = CARTESIAN_POINT ( 'NONE',  ( -6.718561343690940400E-016, 4.451666049839538200, 4.503332099679081300 ) ) ;
#391 = PLANE ( 'NONE',  #799 ) ;
#392 = DIRECTION ( 'NONE',  ( 0.0000000000000000000, 0.0000000000000000000, -1.000000000000000000 ) ) ;
#393 = DIRECTION ( 'NONE',  ( 0.0000000000000000000, 0.0000000000000000000, 1.000000000000000000 ) ) ;
#394 = DIRECTION ( 'NONE',  ( 0.0000000000000000000, 0.0000000000000000000, -1.000000000000000000 ) ) ;
#395 = DIRECTION ( 'NONE',  ( -0.0000000000000000000, 1.000000000000000000, -0.0000000000000000000 ) ) ;
#396 = DIRECTION ( 'NONE',  ( -1.000000000000000000, 3.624628615055125000E-020, 0.0000000000000000000 ) ) ;
#397 = DIRECTION ( 'NONE',  ( 0.8660254037844386000, 0.0000000000000000000, 0.5000000000000000000 ) ) ;
#398 = CARTESIAN_POINT ( 'NONE',  ( 0.0000000000000000000, 6.574778363329467200, 0.0000000000000000000 ) ) ;
#399 = DIRECTION ( 'NONE',  ( 0.0000000000000000000, -0.0000000000000000000, 1.000000000000000000 ) ) ;
#400 = CARTESIAN_POINT ( 'NONE',  ( 3.899999999999999500, 4.799999999999999800, -2.251666049839542000 ) ) ;
#401 = DIRECTION ( 'NONE',  ( -0.5000000000000001100, 0.0000000000000000000, 0.8660254037844387100 ) ) ;
#402 = CARTESIAN_POINT ( 'NONE',  ( 0.0000000000000000000, 0.4000000000000000200, 0.0000000000000000000 ) ) ;
#403 = CARTESIAN_POINT ( 'NONE',  ( -3.900000000000000800, 4.451666049839538200, 2.251666049839540200 ) ) ;
#404 = CARTESIAN_POINT ( 'NONE',  ( -3.801396569324266100E-015, 0.0000000000000000000, 0.0000000000000000000 ) ) ;
#405 = CARTESIAN_POINT ( 'NONE',  ( 3.899999999999999900, 1.935135135135134500, -2.328172131554738100E-019 ) ) ;
#406 = CARTESIAN_POINT ( 'NONE',  ( 0.0000000000000000000, 6.574778363329467200, -0.8259937025394326100 ) ) ;
#407 = DIRECTION ( 'NONE',  ( 0.0000000000000000000, -1.000000000000000000, 0.0000000000000000000 ) ) ;
#408 = DIRECTION ( 'NONE',  ( -0.0000000000000000000, -1.000000000000000000, -0.0000000000000000000 ) ) ;
#409 = CARTESIAN_POINT ( 'NONE',  ( 3.092233167847066500E-016, 4.799999999999999800, -2.524999999999999900 ) ) ;
#410 = CARTESIAN_POINT ( 'NONE',  ( 0.0000000000000000000, 4.799999999999999800, 0.0000000000000000000 ) ) ;
#411 = DIRECTION ( 'NONE',  ( 0.0000000000000000000, 0.0000000000000000000, 1.000000000000000000 ) ) ;
#412 = CARTESIAN_POINT ( 'NONE',  ( 0.0000000000000000000, 0.4000000000000000200, 0.0000000000000000000 ) ) ;
#413 = CARTESIAN_POINT ( 'NONE',  ( 0.0000000000000000000, 4.799999999999999800, 0.0000000000000000000 ) ) ;
#414 = CARTESIAN_POINT ( 'NONE',  ( 3.899999999999999900, 4.451666049839538200, 2.251666049839541600 ) ) ;
#415 = CARTESIAN_POINT ( 'NONE',  ( 5.599999999999996100, 0.0000000000000000000, 6.858022075225177600E-016 ) ) ;
#416 = CARTESIAN_POINT ( 'NONE',  ( -3.900000000000001200, 1.674234767706344300, -2.251666049839542400 ) ) ;
#417 = DIRECTION ( 'NONE',  ( 0.0000000000000000000, 0.0000000000000000000, -1.000000000000000000 ) ) ;
#418 = CARTESIAN_POINT ( 'NONE',  ( -1.950000000000000600, 4.799999999999999800, 3.377499074759310100 ) ) ;
#419 = CARTESIAN_POINT ( 'NONE',  ( 0.0000000000000000000, 4.799999999999999800, 2.524999999999999900 ) ) ;
#420 = DIRECTION ( 'NONE',  ( 0.0000000000000000000, -0.5000000000000011100, -0.8660254037844379300 ) ) ;
#421 = DIRECTION ( 'NONE',  ( 3.624628615055125000E-020, 1.000000000000000000, -0.0000000000000000000 ) ) ;
#422 = CARTESIAN_POINT ( 'NONE',  ( 2.571758278209441000E-016, 0.4000000000000001900, -2.099999999999999600 ) ) ;
#423 = DIRECTION ( 'NONE',  ( 0.0000000000000000000, -1.000000000000000000, 0.0000000000000000000 ) ) ;
#424 = DIRECTION ( 'NONE',  ( 8.659560562354931600E-017, 0.7071067811865475700, -0.7071067811865474600 ) ) ;
#425 = DIRECTION ( 'NONE',  ( 0.0000000000000000000, 0.0000000000000000000, -1.000000000000000000 ) ) ;
#426 = CARTESIAN_POINT ( 'NONE',  ( -3.503733307837621100E-016, 4.451666049839537300, -4.503332099679082200 ) ) ;
#427 = CARTESIAN_POINT ( 'NONE',  ( 0.0000000000000000000, 4.374999999999999100, 0.0000000000000000000 ) ) ;
#428 = DIRECTION ( 'NONE',  ( 0.0000000000000000000, 0.0000000000000000000, 1.000000000000000000 ) ) ;
#429 = DIRECTION ( 'NONE',  ( 0.0000000000000000000, 1.000000000000000000, 0.0000000000000000000 ) ) ;
#430 = CARTESIAN_POINT ( 'NONE',  ( -0.6379874054229787200, 4.664328518314801100, -4.134989899418535200 ) ) ;
#431 = CARTESIAN_POINT ( 'NONE',  ( -3.900000000000001200, 4.451666049839537300, -2.251666049839542000 ) ) ;
#432 = CARTESIAN_POINT ( 'NONE',  ( -3.801396569324266100E-015, 2.029792024430869900E-019, 0.0000000000000000000 ) ) ;
#433 = CARTESIAN_POINT ( 'NONE',  ( 4.592425496802574000E-016, 0.4000000000000000200, 3.750000000000000000 ) ) ;
#434 = CARTESIAN_POINT ( 'NONE',  ( 3.899999999999999500, 4.451666049839636800, -2.251666049839692100 ) ) ;
#435 = CARTESIAN_POINT ( 'NONE',  ( 0.0000000000000000000, 0.4000000000000001900, 0.0000000000000000000 ) ) ;
#436 = CARTESIAN_POINT ( 'NONE',  ( 2.571758278209441000E-016, 4.799999999999999800, -2.099999999999999600 ) ) ;
#437 = DIRECTION ( 'NONE',  ( -0.0000000000000000000, 1.000000000000000000, -0.0000000000000000000 ) ) ;
#438 = CARTESIAN_POINT ( 'NONE',  ( -3.900000000000000800, 1.935135135135137400, 4.773794346825915400E-016 ) ) ;
#439 = CARTESIAN_POINT ( 'NONE',  ( -3.503733307837621100E-016, 4.451666049839537300, -4.503332099679082200 ) ) ;
#440 = CARTESIAN_POINT ( 'NONE',  ( 4.592425496802574000E-016, 0.4000000000000000200, 3.750000000000000000 ) ) ;
#441 = CARTESIAN_POINT ( 'NONE',  ( 0.0000000000000000000, 4.799999999999999800, 0.0000000000000000000 ) ) ;
#442 = DIRECTION ( 'NONE',  ( 0.0000000000000000000, 0.0000000000000000000, 1.000000000000000000 ) ) ;
#443 = DIRECTION ( 'NONE',  ( 0.0000000000000000000, 0.7071067811865475700, 0.7071067811865474600 ) ) ;
#444 = DIRECTION ( 'NONE',  ( -0.0000000000000000000, 1.000000000000000000, -0.0000000000000000000 ) ) ;
#445 = DIRECTION ( 'NONE',  ( -1.000000000000000000, 3.624628615055125000E-020, 0.0000000000000000000 ) ) ;
#446 = DIRECTION ( 'NONE',  ( 0.0000000000000000000, 1.000000000000000000, 0.0000000000000000000 ) ) ;
#447 = CARTESIAN_POINT ( 'NONE',  ( -3.250203093640586300, 1.821332000343923500, 2.626826468644734900 ) ) ;
#448 = DIRECTION ( 'NONE',  ( 0.0000000000000000000, 0.0000000000000000000, -1.000000000000000000 ) ) ;
#449 = DIRECTION ( 'NONE',  ( 0.0000000000000000000, 0.0000000000000000000, 1.000000000000000000 ) ) ;
#450 = CARTESIAN_POINT ( 'NONE',  ( -1.631401065998283200, 1.935469217477243400, -3.561442255068731500 ) ) ;
#451 = CARTESIAN_POINT ( 'NONE',  ( -1.950000000000000600, 4.799999999999999800, 3.377499074759310100 ) ) ;
#452 = CARTESIAN_POINT ( 'NONE',  ( 0.0000000000000000000, 0.4000000000000001900, 0.0000000000000000000 ) ) ;
#453 = CARTESIAN_POINT ( 'NONE',  ( -3.900000000000001200, 1.674234767706344300, -2.251666049839542400 ) ) ;
#454 = DIRECTION ( 'NONE',  ( -0.0000000000000000000, 1.000000000000000000, -0.0000000000000000000 ) ) ;
#455 = CARTESIAN_POINT ( 'NONE',  ( -0.3233012847893632100, 1.754951776918235000, -4.316674015876591500 ) ) ;
#456 = CARTESIAN_POINT ( 'NONE',  ( -3.900000000000001200, 4.646074048815885100, -1.510167994057211700 ) ) ;
#457 = CARTESIAN_POINT ( 'NONE',  ( -1.619018418580478800, 4.799999999999999800, 3.568591379888680600 ) ) ;
#458 = CARTESIAN_POINT ( 'NONE',  ( -1.950000000000000000, 4.799999999999999800, -3.377499074759312300 ) ) ;
#459 = CARTESIAN_POINT ( 'NONE',  ( -3.900000000000000800, 4.557550787798304800, -1.884870558058160000 ) ) ;
#460 = CARTESIAN_POINT ( 'NONE',  ( 0.0000000000000000000, 4.799999999999999800, 2.099999999999999600 ) ) ;
#461 = CARTESIAN_POINT ( 'NONE',  ( -0.6497969063594155600, 1.821332000343921500, -4.128171680873888900 ) ) ;
#462 = CARTESIAN_POINT ( 'NONE',  ( -3.900000000000000800, 4.767198166853259700, -0.7591898769710036000 ) ) ;
#463 = CARTESIAN_POINT ( 'NONE',  ( -3.900000000000000800, 4.799999999999999800, 3.755786496842897100E-016 ) ) ;
#464 = CARTESIAN_POINT ( 'NONE',  ( -2.268598934001718100, 1.935469217477244100, 3.193555894449891000 ) ) ;
#465 = CARTESIAN_POINT ( 'NONE',  ( -3.900000000000001200, 4.799999999999998000, -0.3811198128584623600 ) ) ;
#466 = CARTESIAN_POINT ( 'NONE',  ( -1.288467680204578200, 4.766644973163196600, 3.759434937670835800 ) ) ;
#467 = DIRECTION ( 'NONE',  ( 0.0000000000000000000, 0.0000000000000000000, -1.000000000000000000 ) ) ;
#468 = CARTESIAN_POINT ( 'NONE',  ( -0.6390500924297136700, 4.645291402556145100, 4.134376356789131200 ) ) ;
#469 = CARTESIAN_POINT ( 'NONE',  ( -6.718561343690940400E-016, 4.451666049839538200, 4.503332099679081300 ) ) ;
#470 = CARTESIAN_POINT ( 'NONE',  ( -7.124939253119072700E-016, 1.674234767706343800, 4.503332099679081300 ) ) ;
#471 = CARTESIAN_POINT ( 'NONE',  ( -3.960653404736762100E-016, 1.674234767706343400, -4.503332099679082200 ) ) ;
#472 = DIRECTION ( 'NONE',  ( -0.0000000000000000000, 1.000000000000000000, -0.0000000000000000000 ) ) ;
#473 = CARTESIAN_POINT ( 'NONE',  ( -1.291755454160669900, 1.934456055852135300, 3.757536740492251500 ) ) ;
#474 = CARTESIAN_POINT ( 'NONE',  ( -0.3181976593726306700, 4.557731936297558100, 4.319620595384785500 ) ) ;
#475 = CARTESIAN_POINT ( 'NONE',  ( 0.0000000000000000000, 0.0000000000000000000, 0.0000000000000000000 ) ) ;
#476 = CARTESIAN_POINT ( 'NONE',  ( 0.0000000000000000000, 4.799999999999999800, 0.0000000000000000000 ) ) ;
#477 = CARTESIAN_POINT ( 'NONE',  ( -3.576698715210637800, 1.754951776918236600, 2.438324133642030900 ) ) ;
#478 = CARTESIAN_POINT ( 'NONE',  ( -2.608244545839331500, 1.934456055852134900, -2.997461409026372300 ) ) ;
#479 = CARTESIAN_POINT ( 'NONE',  ( -1.304795911859433200, 1.911845029652465600, -3.750007828729516200 ) ) ;
#480 = CARTESIAN_POINT ( 'NONE',  ( -0.6446033557632102600, 1.835169652450312100, 4.131170178708657700 ) ) ;
#481 = DIRECTION ( 'NONE',  ( 0.0000000000000000000, -1.000000000000000000, 0.0000000000000000000 ) ) ;
#482 = CARTESIAN_POINT ( 'NONE',  ( -3.900000000000001200, 4.799999999999999800, -2.251666049839542400 ) ) ;
#483 = CARTESIAN_POINT ( 'NONE',  ( -3.900000000000000800, 1.674234767706344900, 2.251666049839540200 ) ) ;
#484 = CARTESIAN_POINT ( 'NONE',  ( -3.255396644236792500, 1.835169652450312900, -2.623827970809967900 ) ) ;
#485 = CARTESIAN_POINT ( 'NONE',  ( -1.285553790418771000, 4.799999999999999800, -3.761117272723061500 ) ) ;
#486 = DIRECTION ( 'NONE',  ( 0.0000000000000000000, 0.0000000000000000000, 1.000000000000000000 ) ) ;
#487 = DIRECTION ( 'NONE',  ( -0.0000000000000000000, -1.000000000000000000, -0.0000000000000000000 ) ) ;
#488 = CARTESIAN_POINT ( 'NONE',  ( -2.595204088140568900, 1.911845029652466100, 3.004990320789107500 ) ) ;
#489 = CARTESIAN_POINT ( 'NONE',  ( -3.900000000000001200, 4.451666049839537300, -2.251666049839542000 ) ) ;
#490 = DIRECTION ( 'NONE',  ( 0.0000000000000000000, -1.000000000000000000, 0.0000000000000000000 ) ) ;
#491 = DIRECTION ( 'NONE',  ( 0.0000000000000000000, 1.000000000000000000, 0.0000000000000000000 ) ) ;
#492 = DIRECTION ( 'NONE',  ( -1.000000000000000000, 0.0000000000000000000, 0.0000000000000000000 ) ) ;
#493 = CARTESIAN_POINT ( 'NONE',  ( 1.619018418580477700, 4.800000000000001600, -3.568591379888681000 ) ) ;
#494 = DIRECTION ( 'NONE',  ( 0.0000000000000000000, 1.000000000000000000, 0.0000000000000000000 ) ) ;
#495 = CARTESIAN_POINT ( 'NONE',  ( 0.6390500924297123400, 4.645291402556146000, -4.134376356789133000 ) ) ;
#496 = CARTESIAN_POINT ( 'NONE',  ( -3.900000000000001200, 1.820715539701668300, 1.504839912649532000 ) ) ;
#497 = CARTESIAN_POINT ( 'NONE',  ( 3.900000000000000400, 1.935135135135134700, 0.3759871255227071300 ) ) ;
#498 = DIRECTION ( 'NONE',  ( -0.0000000000000000000, 1.000000000000000000, -0.0000000000000000000 ) ) ;
#499 = CARTESIAN_POINT ( 'NONE',  ( -3.503733307837621100E-016, 4.451666049839537300, -4.503332099679082200 ) ) ;
#500 = CARTESIAN_POINT ( 'NONE',  ( -3.900000000000000400, 1.754243340769152200, 1.881626399424442400 ) ) ;
#501 = CARTESIAN_POINT ( 'NONE',  ( 3.899999999999999900, 1.754243340769115800, 1.881626399424631400 ) ) ;
#502 = CARTESIAN_POINT ( 'NONE',  ( 1.950000000000000600, 4.799999999999999800, -3.377499074759311900 ) ) ;
#503 = CARTESIAN_POINT ( 'NONE',  ( -3.801353073780885300E-015, 1.200000000000000000, 0.0000000000000000000 ) ) ;
#504 = CARTESIAN_POINT ( 'NONE',  ( -3.900000000000000800, 1.674234767706344900, 2.251666049839540200 ) ) ;
#505 = CARTESIAN_POINT ( 'NONE',  ( -3.900000000000000800, 1.911185608629044900, 0.7521608350017469100 ) ) ;
#506 = DIRECTION ( 'NONE',  ( 0.0000000000000000000, 0.0000000000000000000, 1.000000000000000000 ) ) ;
#507 = DIRECTION ( 'NONE',  ( 0.0000000000000000000, 0.0000000000000000000, 1.000000000000000000 ) ) ;
#508 = CARTESIAN_POINT ( 'NONE',  ( -3.900000000000001200, 1.935135135135137400, 0.3759871255226663300 ) ) ;
#509 = CARTESIAN_POINT ( 'NONE',  ( 3.899999999999999900, 1.935135135135134500, -2.328172131554738100E-019 ) ) ;
#510 = DIRECTION ( 'NONE',  ( 3.624628615055125000E-020, 1.000000000000000000, -0.0000000000000000000 ) ) ;
#511 = CARTESIAN_POINT ( 'NONE',  ( -3.900000000000000800, 1.935135135135137400, 4.773794346825915400E-016 ) ) ;
#512 = CARTESIAN_POINT ( 'NONE',  ( 0.0000000000000000000, 4.799999999999999800, 0.0000000000000000000 ) ) ;
#513 = CARTESIAN_POINT ( 'NONE',  ( 3.900000000000000400, 1.911185608629037300, 0.7521608350018198500 ) ) ;
#514 = CARTESIAN_POINT ( 'NONE',  ( 0.3181976593726284500, 4.557731936297557200, -4.319620595384786400 ) ) ;
#515 = CARTESIAN_POINT ( 'NONE',  ( 3.899999999999999500, 1.820715539701647500, 1.504839912649649200 ) ) ;
#516 = CARTESIAN_POINT ( 'NONE',  ( 1.288467680204577400, 4.766644973163197500, -3.759434937670836300 ) ) ;
#517 = CARTESIAN_POINT ( 'NONE',  ( 0.0000000000000000000, 4.799999999999999800, 0.0000000000000000000 ) ) ;
#518 = CARTESIAN_POINT ( 'NONE',  ( 3.899999999999999900, 4.557550787795320500, -1.884870558068514600 ) ) ;
#519 = CARTESIAN_POINT ( 'NONE',  ( 3.899999999999999900, 1.674234767706804300, 2.251666049839978500 ) ) ;
#520 = DIRECTION ( 'NONE',  ( 0.0000000000000000000, 0.0000000000000000000, 1.000000000000000000 ) ) ;
#521 = CARTESIAN_POINT ( 'NONE',  ( 0.0000000000000000000, 4.799999999999999800, 0.0000000000000000000 ) ) ;
#522 = CARTESIAN_POINT ( 'NONE',  ( 0.0000000000000000000, 0.0000000000000000000, 0.0000000000000000000 ) ) ;
#523 = CARTESIAN_POINT ( 'NONE',  ( 3.900000000000000400, 4.767198166851420300, -0.7591898769876653800 ) ) ;
#524 = DIRECTION ( 'NONE',  ( 0.0000000000000000000, -1.000000000000000000, 0.0000000000000000000 ) ) ;
#525 = DIRECTION ( 'NONE',  ( 0.0000000000000000000, 0.0000000000000000000, -1.000000000000000000 ) ) ;
#526 = DIRECTION ( 'NONE',  ( 3.624628615055125000E-020, 1.000000000000000000, -0.0000000000000000000 ) ) ;
#527 = CARTESIAN_POINT ( 'NONE',  ( -3.900000000000000800, 4.799999999999999800, 3.755786496842897100E-016 ) ) ;
#528 = CARTESIAN_POINT ( 'NONE',  ( -3.900000000000000400, 4.799999999999998900, 0.3814321466337926600 ) ) ;
#529 = CARTESIAN_POINT ( 'NONE',  ( 3.899999999999999900, 4.799999999999999800, 2.251666049839542000 ) ) ;
#530 = CARTESIAN_POINT ( 'NONE',  ( 3.899999999999999500, 4.451666049839636800, -2.251666049839692100 ) ) ;
#531 = DIRECTION ( 'NONE',  ( 3.624628615055125000E-020, 1.000000000000000000, -0.0000000000000000000 ) ) ;
#532 = CARTESIAN_POINT ( 'NONE',  ( -5.600000000000003200, 2.029792024430869900E-019, 0.0000000000000000000 ) ) ;
#533 = CARTESIAN_POINT ( 'NONE',  ( -7.124939253119072700E-016, 4.799999999999999800, 4.503332099679081300 ) ) ;
#534 = DIRECTION ( 'NONE',  ( -0.0000000000000000000, -1.000000000000000000, -0.0000000000000000000 ) ) ;
#535 = CARTESIAN_POINT ( 'NONE',  ( 0.0000000000000000000, 0.4000000000000000200, -3.750000000000000000 ) ) ;
#536 = CARTESIAN_POINT ( 'NONE',  ( 3.900000000000000400, 4.799999999999999800, -0.3811198128697759800 ) ) ;
#537 = CARTESIAN_POINT ( 'NONE',  ( -3.801353073780885300E-015, 1.200000000000000000, 0.0000000000000000000 ) ) ;
#538 = CARTESIAN_POINT ( 'NONE',  ( -2.614446209581230200, 4.800000000000000700, 2.993880876795561400 ) ) ;
#539 = CARTESIAN_POINT ( 'NONE',  ( -1.950000000000000600, 4.799999999999999800, 3.377499074759310100 ) ) ;
#540 = DIRECTION ( 'NONE',  ( -1.000000000000000000, 0.0000000000000000000, 0.0000000000000000000 ) ) ;
#541 = DIRECTION ( 'NONE',  ( -0.9178570359601424500, -0.3969111506854675600, 1.124050681163465300E-016 ) ) ;
#542 = CARTESIAN_POINT ( 'NONE',  ( 3.899999999999999500, 4.646074048812180600, -1.510167994074929500 ) ) ;
#543 = DIRECTION ( 'NONE',  ( -1.000000000000000000, 3.624628615055125000E-020, 0.0000000000000000000 ) ) ;
#544 = DIRECTION ( 'NONE',  ( -0.0000000000000000000, -1.000000000000000000, -0.0000000000000000000 ) ) ;
#545 = CARTESIAN_POINT ( 'NONE',  ( 3.899999999999999900, 4.799999999999999800, -3.755786496842895600E-016 ) ) ;
#546 = CARTESIAN_POINT ( 'NONE',  ( -1.950000000000000000, 4.799999999999999800, -3.377499074759312300 ) ) ;
#547 = CARTESIAN_POINT ( 'NONE',  ( -2.280981581419522900, 4.799999999999998900, -3.186406769629944100 ) ) ;
#548 = CARTESIAN_POINT ( 'NONE',  ( 0.0000000000000000000, 4.799999999999999800, 0.0000000000000000000 ) ) ;
#549 = DIRECTION ( 'NONE',  ( 0.0000000000000000000, 1.000000000000000000, 0.0000000000000000000 ) ) ;
#550 = CARTESIAN_POINT ( 'NONE',  ( -3.262012594577023100, 4.664328518314801100, 2.620008250100087200 ) ) ;
#551 = DIRECTION ( 'NONE',  ( -0.0000000000000000000, -1.000000000000000000, -0.0000000000000000000 ) ) ;
#552 = CARTESIAN_POINT ( 'NONE',  ( 3.899999999999999500, 4.799999999999999800, -2.251666049839542000 ) ) ;
#553 = DIRECTION ( 'NONE',  ( 3.624628615055125000E-020, 1.000000000000000000, -0.0000000000000000000 ) ) ;
#554 = CARTESIAN_POINT ( 'NONE',  ( -3.900000000000000800, 4.451666049839538200, 2.251666049839540200 ) ) ;
#555 = CARTESIAN_POINT ( 'NONE',  ( -3.581802340627371800, 4.557731936297557200, -2.435377554133839200 ) ) ;
#556 = CARTESIAN_POINT ( 'NONE',  ( -2.611532319795423400, 4.766644973163195700, -2.995563211847788000 ) ) ;
#557 = CARTESIAN_POINT ( 'NONE',  ( -5.600000000000003200, 1.200000000000000000, 6.858022075225177600E-016 ) ) ;
#558 = CARTESIAN_POINT ( 'NONE',  ( -3.801396569324266100E-015, 2.029792024430869900E-019, 0.0000000000000000000 ) ) ;
#559 = DIRECTION ( 'NONE',  ( 0.0000000000000000000, 0.0000000000000000000, 1.000000000000000000 ) ) ;
#560 = CARTESIAN_POINT ( 'NONE',  ( -3.260949907570287500, 4.645291402556144300, -2.620621792729492100 ) ) ;
#561 = DIRECTION ( 'NONE',  ( -0.0000000000000000000, -1.000000000000000000, -0.0000000000000000000 ) ) ;
#562 = DIRECTION ( 'NONE',  ( 0.0000000000000000000, 1.000000000000000000, 0.0000000000000000000 ) ) ;
#563 = CARTESIAN_POINT ( 'NONE',  ( -3.900000000000001200, 4.451666049839537300, -2.251666049839542000 ) ) ;
#564 = CARTESIAN_POINT ( 'NONE',  ( -3.900000000000001200, 1.754516912677964500, -1.880361129345804200 ) ) ;
#565 = DIRECTION ( 'NONE',  ( -0.0000000000000000000, 1.000000000000000000, -0.0000000000000000000 ) ) ;
#566 = DIRECTION ( 'NONE',  ( 0.0000000000000000000, 0.0000000000000000000, 1.000000000000000000 ) ) ;
#567 = CARTESIAN_POINT ( 'NONE',  ( 0.3233012847893446700, 1.754951776918229500, 4.316674015876599500 ) ) ;
#568 = CARTESIAN_POINT ( 'NONE',  ( 3.899999999999999500, 4.451666049839636800, -2.251666049839692100 ) ) ;
#569 = CARTESIAN_POINT ( 'NONE',  ( 2.614446209581203600, 4.800000000000000700, -2.993880876795577800 ) ) ;
#570 = CARTESIAN_POINT ( 'NONE',  ( -3.900000000000001200, 4.766270861751871200, 0.7674641124808995200 ) ) ;
#571 = CARTESIAN_POINT ( 'NONE',  ( -3.900000000000001200, 1.674234767706344300, -2.251666049839542400 ) ) ;
#572 = CARTESIAN_POINT ( 'NONE',  ( -7.124939253119072700E-016, 1.674234767706343800, 4.503332099679081300 ) ) ;
#573 = CARTESIAN_POINT ( 'NONE',  ( 3.899999999999999500, 1.674234767706342500, -2.251666049839542000 ) ) ;
#574 = CARTESIAN_POINT ( 'NONE',  ( 3.899999999999999500, 1.754516912677962300, -1.880361129345800700 ) ) ;
#575 = CARTESIAN_POINT ( 'NONE',  ( 2.280981581419522900, 4.799999999999999800, 3.186406769629942300 ) ) ;
#576 = CARTESIAN_POINT ( 'NONE',  ( 1.949999999999999100, 4.799999999999999800, 3.377499074759311000 ) ) ;
#577 = CARTESIAN_POINT ( 'NONE',  ( 3.255396644236618900, 1.835169652450339800, 2.623827970810066900 ) ) ;
#578 = CARTESIAN_POINT ( 'NONE',  ( -3.960653404736762100E-016, 4.799999999999999800, -4.503332099679082200 ) ) ;
#579 = CARTESIAN_POINT ( 'NONE',  ( 2.611532319795422100, 4.766644973163196600, 2.995563211847787100 ) ) ;
#580 = CARTESIAN_POINT ( 'NONE',  ( 3.260949907570286600, 4.645291402556145100, 2.620621792729491300 ) ) ;
#581 = CARTESIAN_POINT ( 'NONE',  ( 0.0000000000000000000, 4.374999999999999100, 0.0000000000000000000 ) ) ;
#582 = CARTESIAN_POINT ( 'NONE',  ( 3.581802340627371800, 4.557731936297558100, 2.435377554133838300 ) ) ;
#583 = DIRECTION ( 'NONE',  ( 0.0000000000000000000, 1.000000000000000000, 0.0000000000000000000 ) ) ;
#584 = CARTESIAN_POINT ( 'NONE',  ( 1.304795911859361300, 1.911845029652457200, 3.750007828729556600 ) ) ;
#585 = CARTESIAN_POINT ( 'NONE',  ( 5.599999999999996100, 1.200000000000000000, 0.0000000000000000000 ) ) ;
#586 = CARTESIAN_POINT ( 'NONE',  ( 2.608244545839192100, 1.934456055852143100, 2.997461409026451300 ) ) ;
#587 = CARTESIAN_POINT ( 'NONE',  ( 0.0000000000000000000, 4.799999999999999800, 0.0000000000000000000 ) ) ;
#588 = CARTESIAN_POINT ( 'NONE',  ( -3.900000000000000800, 4.799999999999999800, 2.251666049839540200 ) ) ;
#589 = CARTESIAN_POINT ( 'NONE',  ( 1.285553790418770400, 4.800000000000000700, 3.761117272723060200 ) ) ;
#590 = CARTESIAN_POINT ( 'NONE',  ( -3.900000000000000800, 1.935135135135137400, 4.773794346825915400E-016 ) ) ;
#591 = CARTESIAN_POINT ( 'NONE',  ( 1.631401065998194600, 1.935469217477237000, 3.561442255068781200 ) ) ;
#592 = CARTESIAN_POINT ( 'NONE',  ( -3.900000000000000800, 4.644290893871529500, 1.518641857535637500 ) ) ;
#593 = CARTESIAN_POINT ( 'NONE',  ( -3.900000000000000800, 4.451666049839538200, 2.251666049839540200 ) ) ;
#594 = DIRECTION ( 'NONE',  ( 0.9178570359601424500, -0.3969111506854675600, 0.0000000000000000000 ) ) ;
#595 = CARTESIAN_POINT ( 'NONE',  ( 0.0000000000000000000, 0.4000000000000000200, 0.0000000000000000000 ) ) ;
#596 = CARTESIAN_POINT ( 'NONE',  ( 3.899999999999999900, 1.674234767706804300, 2.251666049839978500 ) ) ;
#597 = CARTESIAN_POINT ( 'NONE',  ( -3.900000000000001200, 1.911171865788027400, -0.7520776425183164400 ) ) ;
#598 = CARTESIAN_POINT ( 'NONE',  ( 3.262012594576970700, 4.664328518314811800, -2.620008250100118300 ) ) ;
#599 = CARTESIAN_POINT ( 'NONE',  ( 1.950000000000000600, 4.799999999999999800, -3.377499074759311900 ) ) ;
#600 = CARTESIAN_POINT ( 'NONE',  ( 0.6379874054229778300, 4.664328518314801100, 4.134989899418535200 ) ) ;
#601 = CARTESIAN_POINT ( 'NONE',  ( -6.718561343690940400E-016, 4.451666049839538200, 4.503332099679081300 ) ) ;
#602 = CARTESIAN_POINT ( 'NONE',  ( -3.900000000000001200, 4.556813584566853600, 1.887424304962892900 ) ) ;
#603 = CARTESIAN_POINT ( 'NONE',  ( -3.900000000000000800, 1.820883640246265600, -1.503638566147315700 ) ) ;
#604 = DIRECTION ( 'NONE',  ( -0.0000000000000000000, -1.000000000000000000, -0.0000000000000000000 ) ) ;
#605 = CARTESIAN_POINT ( 'NONE',  ( 1.949999999999999100, 4.799999999999999800, 3.377499074759311000 ) ) ;
#606 = CARTESIAN_POINT ( 'NONE',  ( 0.6497969063593791500, 1.821332000343914200, 4.128171680873908400 ) ) ;
#607 = DIRECTION ( 'NONE',  ( -0.0000000000000000000, -1.000000000000000000, -0.0000000000000000000 ) ) ;
#608 = DIRECTION ( 'NONE',  ( 0.0000000000000000000, -1.000000000000000000, 0.0000000000000000000 ) ) ;
#609 = DIRECTION ( 'NONE',  ( 0.0000000000000000000, 0.0000000000000000000, -1.000000000000000000 ) ) ;
#610 = DIRECTION ( 'NONE',  ( 0.0000000000000000000, 0.0000000000000000000, 1.000000000000000000 ) ) ;
#611 = CARTESIAN_POINT ( 'NONE',  ( -3.899999999999999500, 1.935135135135137400, -0.3761321667706502000 ) ) ;
#612 =( LENGTH_UNIT ( ) NAMED_UNIT ( * ) SI_UNIT ( .MILLI., .METRE. ) );
#613 = CARTESIAN_POINT ( 'NONE',  ( 3.900000000000000400, 1.820883640246264500, -1.503638566147305300 ) ) ;
#614 = APPLICATION_PROTOCOL_DEFINITION ( 'international standard', 'config_control_design', 1994, #647 ) ;
#615 = DATE_TIME_ROLE ( 'creation_date' ) ;
#616 = APPROVAL_ROLE ( '' ) ;
#617 = PERSON_AND_ORGANIZATION_ROLE ( 'design_supplier' ) ;
#618 = DIRECTION ( 'NONE',  ( 0.0000000000000000000, 0.0000000000000000000, 1.000000000000000000 ) ) ;
#619 = APPROVAL_STATUS ( 'not_yet_approved' ) ;
#620 = APPROVAL_STATUS ( 'not_yet_approved' ) ;
#621 = PERSON_AND_ORGANIZATION_ROLE ( 'classification_officer' ) ;
#622 = APPROVAL_STATUS ( 'not_yet_approved' ) ;
#623 = DIRECTION ( 'NONE',  ( 3.624628615055125000E-020, 1.000000000000000000, -0.0000000000000000000 ) ) ;
#624 = CARTESIAN_POINT ( 'NONE',  ( 3.899999999999999900, 1.935135135135134500, -2.328172131554738100E-019 ) ) ;
#625 = CARTESIAN_POINT ( 'NONE',  ( 5.599999999999996100, -2.029792024430869900E-019, 6.858022075225177600E-016 ) ) ;
#626 = CARTESIAN_POINT ( 'NONE',  ( 3.900000000000000400, 4.556813584568143200, 1.887424304958426100 ) ) ;
#627 = CARTESIAN_POINT ( 'NONE',  ( 3.899999999999999500, 1.674234767706342500, -2.251666049839542000 ) ) ;
#628 = CARTESIAN_POINT ( 'NONE',  ( 3.900000000000000400, 1.935135135135134700, -0.3761321667706360400 ) ) ;
#629 = CARTESIAN_POINT ( 'NONE',  ( 3.899999999999999900, 4.799999999999999800, 0.3814321466627743100 ) ) ;
#630 = CARTESIAN_POINT ( 'NONE',  ( 3.899999999999999900, 4.451666049839538200, 2.251666049839541600 ) ) ;
#631 = APPLICATION_CONTEXT ( 'configuration controlled 3d designs of mechanical parts and assemblies' ) ;
#632 = CARTESIAN_POINT ( 'NONE',  ( 3.899999999999999500, 4.766270861748811400, 0.7674641125026302500 ) ) ;
#633 = CARTESIAN_POINT ( 'NONE',  ( 2.268598934001716300, 1.935469217477241900, -3.193555894449891900 ) ) ;
#634 = CARTESIAN_POINT ( 'NONE',  ( 0.6446033557632090400, 1.835169652450311200, -4.131170178708657700 ) ) ;
#635 = PERSON_AND_ORGANIZATION_ROLE ( 'design_owner' ) ;
#636 = DIRECTION ( 'NONE',  ( 1.000000000000000000, 0.0000000000000000000, 0.0000000000000000000 ) ) ;
#637 = PERSON_AND_ORGANIZATION_ROLE ( 'creator' ) ;
#638 = CARTESIAN_POINT ( 'NONE',  ( 3.899999999999999900, 4.451666049839538200, 2.251666049839541600 ) ) ;
#639 =( NAMED_UNIT ( * ) SI_UNIT ( $, .STERADIAN. ) SOLID_ANGLE_UNIT ( ) );
#640 = PERSON_AND_ORGANIZATION_ROLE ( 'creator' ) ;
#641 = CARTESIAN_POINT ( 'NONE',  ( 2.595204088140568500, 1.911845029652464300, -3.004990320789108900 ) ) ;
#642 = SECURITY_CLASSIFICATION_LEVEL ( 'unclassified' ) ;
#643 = CARTESIAN_POINT ( 'NONE',  ( 3.899999999999999900, 4.799999999999999800, -3.755786496842895600E-016 ) ) ;
#644 = APPROVAL_ROLE ( '' ) ;
#645 = CARTESIAN_POINT ( 'NONE',  ( -3.960653404736762100E-016, 1.674234767706343400, -4.503332099679082200 ) ) ;
#646 = MECHANICAL_CONTEXT ( 'NONE', #631, 'mechanical' ) ;
#647 = APPLICATION_CONTEXT ( 'configuration controlled 3d designs of mechanical parts and assemblies' ) ;
#648 = DATE_TIME_ROLE ( 'classification_date' ) ;
#649 = CARTESIAN_POINT ( 'NONE',  ( 1.291755454160669300, 1.934456055852133800, -3.757536740492252800 ) ) ;
#650 = APPLICATION_PROTOCOL_DEFINITION ( 'international standard', 'config_control_design', 1994, #631 ) ;
#651 =( NAMED_UNIT ( * ) PLANE_ANGLE_UNIT ( ) SI_UNIT ( $, .RADIAN. ) );
#652 = CARTESIAN_POINT ( 'NONE',  ( 3.576698715210636000, 1.754951776918233500, -2.438324133642032700 ) ) ;
#653 = APPROVAL_ROLE ( '' ) ;
#654 = CARTESIAN_POINT ( 'NONE',  ( 0.0000000000000000000, 0.0000000000000000000, 0.0000000000000000000 ) ) ;
#655 = CARTESIAN_POINT ( 'NONE',  ( 3.899999999999999500, 1.911171865788026100, -0.7520776425182970100 ) ) ;
#656 = CARTESIAN_POINT ( 'NONE',  ( 3.250203093640585500, 1.821332000343920000, -2.626826468644735800 ) ) ;
#657 = CARTESIAN_POINT ( 'NONE',  ( 3.900000000000000400, 4.644290893871491300, 1.518641857532987600 ) ) ;
#658 = DIRECTION ( 'NONE',  ( -9.630221786776656200E-017, 0.0000000000000000000, -1.000000000000000000 ) ) ;
#659 = CARTESIAN_POINT ( 'NONE',  ( 0.0000000000000000000, 6.574778363329467200, 0.0000000000000000000 ) ) ;
#660 = DIRECTION ( 'NONE',  ( -0.0000000000000000000, -1.000000000000000000, -0.0000000000000000000 ) ) ;
#661 = DIRECTION ( 'NONE',  ( 0.0000000000000000000, -0.0000000000000000000, 1.000000000000000000 ) ) ;
#662 = PLANE ( 'NONE',  #779 ) ;
#663 = DIRECTION ( 'NONE',  ( 0.0000000000000000000, -0.0000000000000000000, -1.000000000000000000 ) ) ;
#664 = CARTESIAN_POINT ( 'NONE',  ( -7.124939253119072700E-016, 4.799999999999999800, 4.503332099679081300 ) ) ;
#665 = PLANE ( 'NONE',  #743 ) ;
#666 = DIRECTION ( 'NONE',  ( -0.8660254037844387100, 0.0000000000000000000, 0.4999999999999997800 ) ) ;
#667 = DIRECTION ( 'NONE',  ( 0.0000000000000000000, -1.000000000000000000, 0.0000000000000000000 ) ) ;
#668 = DIRECTION ( 'NONE',  ( -0.4999999999999998300, 0.0000000000000000000, -0.8660254037844388200 ) ) ;
#669 = CARTESIAN_POINT ( 'NONE',  ( -3.900000000000001200, 4.799999999999999800, -2.251666049839542400 ) ) ;
#670 = CARTESIAN_POINT ( 'NONE',  ( 0.0000000000000000000, 4.799999999999999800, 0.0000000000000000000 ) ) ;
#671 = DIRECTION ( 'NONE',  ( 0.0000000000000000000, 0.0000000000000000000, -1.000000000000000000 ) ) ;
#672 = CARTESIAN_POINT ( 'NONE',  ( 3.899999999999999900, 4.799999999999999800, 2.251666049839542000 ) ) ;
#673 = PLANE ( 'NONE',  #746 ) ;
#674 = CARTESIAN_POINT ( 'NONE',  ( 0.0000000000000000000, 0.4000000000000000200, 0.0000000000000000000 ) ) ;
#675 = DIRECTION ( 'NONE',  ( -1.000000000000000000, 0.0000000000000000000, 9.630221786776656200E-017 ) ) ;
#676 = DIRECTION ( 'NONE',  ( 0.0000000000000000000, -1.000000000000000000, 0.0000000000000000000 ) ) ;
#677 = CARTESIAN_POINT ( 'NONE',  ( 0.0000000000000000000, 0.4000000000000000200, 0.0000000000000000000 ) ) ;
#678 = DIRECTION ( 'NONE',  ( 0.0000000000000000000, 1.000000000000000000, 0.0000000000000000000 ) ) ;
#679 = PLANE ( 'NONE',  #767 ) ;
#680 = PLANE ( 'NONE',  #739 ) ;
#681 = DIRECTION ( 'NONE',  ( -0.0000000000000000000, 1.000000000000000000, -0.0000000000000000000 ) ) ;
#682 = DIRECTION ( 'NONE',  ( 1.000000000000000000, 0.0000000000000000000, -9.630221786776656200E-017 ) ) ;
#683 = DIRECTION ( 'NONE',  ( 0.0000000000000000000, 0.0000000000000000000, 1.000000000000000000 ) ) ;
#684 = CARTESIAN_POINT ( 'NONE',  ( 0.0000000000000000000, 0.0000000000000000000, 0.0000000000000000000 ) ) ;
#685 = DIRECTION ( 'NONE',  ( 0.0000000000000000000, 0.0000000000000000000, -1.000000000000000000 ) ) ;
#686 = CARTESIAN_POINT ( 'NONE',  ( -3.801353073780885300E-015, 1.200000000000000000, 0.0000000000000000000 ) ) ;
#687 = CARTESIAN_POINT ( 'NONE',  ( 0.0000000000000000000, 6.574778363329467200, 0.0000000000000000000 ) ) ;
#688 = DIRECTION ( 'NONE',  ( 1.000000000000000000, 0.0000000000000000000, 0.0000000000000000000 ) ) ;
#689 = PLANE ( 'NONE',  #757 ) ;
#690 = DIRECTION ( 'NONE',  ( 0.0000000000000000000, -1.000000000000000000, 0.0000000000000000000 ) ) ;
#691 = DIRECTION ( 'NONE',  ( -0.8660254037844384900, 0.0000000000000000000, -0.5000000000000002200 ) ) ;
#692 = DIRECTION ( 'NONE',  ( 0.0000000000000000000, 0.0000000000000000000, -1.000000000000000000 ) ) ;
#693 = DIRECTION ( 'NONE',  ( 0.8660254037844387100, 0.0000000000000000000, -0.4999999999999998300 ) ) ;
#694 = DIRECTION ( 'NONE',  ( 0.0000000000000000000, 0.0000000000000000000, 1.000000000000000000 ) ) ;
#695 = DIRECTION ( 'NONE',  ( 0.5000000000000003300, 0.0000000000000000000, -0.8660254037844386000 ) ) ;
#696 = DIRECTION ( 'NONE',  ( 0.4999999999999998300, -0.0000000000000000000, 0.8660254037844387100 ) ) ;
#697 = CARTESIAN_POINT ( 'NONE',  ( -3.801396569324266100E-015, 0.0000000000000000000, 0.0000000000000000000 ) ) ;
#698 = DIRECTION ( 'NONE',  ( 3.624628615055125000E-020, 1.000000000000000000, -0.0000000000000000000 ) ) ;
#699 = DIRECTION ( 'NONE',  ( -1.000000000000000000, 3.624628615055125000E-020, 0.0000000000000000000 ) ) ;
#700 = PLANE ( 'NONE',  #748 ) ;
#701 = CARTESIAN_POINT ( 'NONE',  ( 0.0000000000000000000, 6.574778363329467200, 0.0000000000000000000 ) ) ;
#702 = DIRECTION ( 'NONE',  ( -0.0000000000000000000, 1.000000000000000000, -0.0000000000000000000 ) ) ;
#703 = DIRECTION ( 'NONE',  ( 0.0000000000000000000, 0.0000000000000000000, -1.000000000000000000 ) ) ;
#704 = CARTESIAN_POINT ( 'NONE',  ( -3.801353073780885300E-015, 1.200000000000000000, 0.0000000000000000000 ) ) ;
#705 = DIRECTION ( 'NONE',  ( -3.624628615055125000E-020, -1.000000000000000000, 0.0000000000000000000 ) ) ;
#706 = DIRECTION ( 'NONE',  ( 1.000000000000000000, 0.0000000000000000000, 0.0000000000000000000 ) ) ;
#707 = DIRECTION ( 'NONE',  ( 9.630221786776656200E-017, 0.0000000000000000000, 1.000000000000000000 ) ) ;
#708 = DIRECTION ( 'NONE',  ( 0.0000000000000000000, 0.0000000000000000000, -1.000000000000000000 ) ) ;
#709 = CARTESIAN_POINT ( 'NONE',  ( -3.900000000000000800, 4.799999999999999800, 2.251666049839540200 ) ) ;
#710 = DIRECTION ( 'NONE',  ( 0.0000000000000000000, -1.000000000000000000, 0.0000000000000000000 ) ) ;
#711 = CARTESIAN_POINT ( 'NONE',  ( 0.0000000000000000000, 4.799999999999999800, 0.0000000000000000000 ) ) ;
#712 = CARTESIAN_POINT ( 'NONE',  ( 0.0000000000000000000, 6.574778363329467200, 0.0000000000000000000 ) ) ;
#713 = DIRECTION ( 'NONE',  ( 0.0000000000000000000, -1.000000000000000000, 0.0000000000000000000 ) ) ;
#714 = DIRECTION ( 'NONE',  ( -3.624628615055125000E-020, -1.000000000000000000, 0.0000000000000000000 ) ) ;
#715 = CARTESIAN_POINT ( 'NONE',  ( -3.960653404736762100E-016, 4.799999999999999800, -4.503332099679082200 ) ) ;
#716 = EDGE_CURVE ( 'NONE', #215, #226, #287, .T. ) ;
#717 = EDGE_CURVE ( 'NONE', #137, #187, #288, .T. ) ;
#718 = EDGE_CURVE ( 'NONE', #216, #187, #272, .T. ) ;
#719 = EDGE_CURVE ( 'NONE', #136, #241, #279, .T. ) ;
#720 = EDGE_CURVE ( 'NONE', #196, #222, #276, .T. ) ;
#721 = EDGE_CURVE ( 'NONE', #199, #234, #291, .T. ) ;
#722 = EDGE_CURVE ( 'NONE', #185, #137, #246, .T. ) ;
#723 = EDGE_CURVE ( 'NONE', #241, #185, #271, .T. ) ;
#724 = EDGE_CURVE ( 'NONE', #242, #210, #293, .T. ) ;
#725 = EDGE_CURVE ( 'NONE', #242, #207, #266, .T. ) ;
#726 = EDGE_CURVE ( 'NONE', #196, #212, #283, .T. ) ;
#727 = EDGE_CURVE ( 'NONE', #185, #216, #277, .T. ) ;
#728 = EDGE_CURVE ( 'NONE', #222, #212, #3, .T. ) ;
#729 = EDGE_CURVE ( 'NONE', #136, #216, #297, .T. ) ;
#730 = EDGE_CURVE ( 'NONE', #213, #207, #248, .T. ) ;
#731 = EDGE_CURVE ( 'NONE', #241, #136, #294, .T. ) ;
#732 = EDGE_CURVE ( 'NONE', #226, #209, #298, .T. ) ;
#733 = EDGE_CURVE ( 'NONE', #243, #236, #254, .T. ) ;
#734 = EDGE_CURVE ( 'NONE', #208, #188, #4, .T. ) ;
#735 = EDGE_CURVE ( 'NONE', #236, #194, #5, .T. ) ;
#736 = EDGE_CURVE ( 'NONE', #243, #215, #6, .T. ) ;
#737 = EDGE_CURVE ( 'NONE', #226, #219, #7, .T. ) ;
#738 = EDGE_CURVE ( 'NONE', #135, #206, #286, .T. ) ;
#739 = AXIS2_PLACEMENT_3D ( 'NONE', #684, #678, #661 ) ;
#740 = AXIS2_PLACEMENT_3D ( 'NONE', #686, #714, #688 ) ;
#741 = EDGE_CURVE ( 'NONE', #209, #192, #270, .T. ) ;
#742 = EDGE_CURVE ( 'NONE', #187, #137, #302, .T. ) ;
#743 = AXIS2_PLACEMENT_3D ( 'NONE', #672, #675, #707 ) ;
#744 = EDGE_CURVE ( 'NONE', #218, #222, #1, .T. ) ;
#745 = AXIS2_PLACEMENT_3D ( 'NONE', #712, #713, #692 ) ;
#746 = AXIS2_PLACEMENT_3D ( 'NONE', #669, #682, #658 ) ;
#747 = EDGE_CURVE ( 'NONE', #188, #225, #852, .T. ) ;
#748 = AXIS2_PLACEMENT_3D ( 'NONE', #709, #695, #691 ) ;
#749 = EDGE_CURVE ( 'NONE', #240, #200, #850, .T. ) ;
#750 = AXIS2_PLACEMENT_3D ( 'NONE', #701, #710, #703 ) ;
#751 = AXIS2_PLACEMENT_3D ( 'NONE', #704, #705, #706 ) ;
#752 = AXIS2_PLACEMENT_3D ( 'NONE', #711, #702, #694 ) ;
#753 = EDGE_CURVE ( 'NONE', #212, #215, #299, .T. ) ;
#754 = EDGE_CURVE ( 'NONE', #186, #226, #853, .T. ) ;
#755 = EDGE_CURVE ( 'NONE', #231, #200, #304, .T. ) ;
#756 = EDGE_CURVE ( 'NONE', #192, #218, #301, .T. ) ;
#757 = AXIS2_PLACEMENT_3D ( 'NONE', #715, #696, #693 ) ;
#758 = EDGE_CURVE ( 'NONE', #245, #57, #255, .T. ) ;
#759 = EDGE_CURVE ( 'NONE', #212, #243, #845, .T. ) ;
#760 = EDGE_CURVE ( 'NONE', #192, #245, #843, .T. ) ;
#761 = EDGE_CURVE ( 'NONE', #225, #135, #260, .T. ) ;
#762 = EDGE_CURVE ( 'NONE', #199, #135, #258, .T. ) ;
#763 = EDGE_CURVE ( 'NONE', #206, #135, #253, .T. ) ;
#764 = EDGE_CURVE ( 'NONE', #207, #213, #261, .T. ) ;
#765 = EDGE_CURVE ( 'NONE', #234, #199, #273, .T. ) ;
#766 = EDGE_CURVE ( 'NONE', #219, #208, #262, .T. ) ;
#767 = AXIS2_PLACEMENT_3D ( 'NONE', #664, #668, #666 ) ;
#768 = EDGE_CURVE ( 'NONE', #210, #213, #274, .T. ) ;
#769 = EDGE_CURVE ( 'NONE', #215, #186, #844, .T. ) ;
#770 = EDGE_CURVE ( 'NONE', #218, #196, #259, .T. ) ;
#771 = AXIS2_PLACEMENT_3D ( 'NONE', #659, #667, #685 ) ;
#772 = EDGE_CURVE ( 'NONE', #186, #188, #265, .T. ) ;
#773 = EDGE_CURVE ( 'NONE', #200, #208, #854, .T. ) ;
#774 = EDGE_CURVE ( 'NONE', #240, #206, #328, .T. ) ;
#775 = EDGE_CURVE ( 'NONE', #210, #242, #351, .T. ) ;
#776 = AXIS2_PLACEMENT_3D ( 'NONE', #670, #681, #683 ) ;
#777 = EDGE_CURVE ( 'NONE', #219, #209, #848, .T. ) ;
#778 = EDGE_CURVE ( 'NONE', #216, #185, #320, .T. ) ;
#779 = AXIS2_PLACEMENT_3D ( 'NONE', #674, #676, #663 ) ;
#780 = AXIS2_PLACEMENT_3D ( 'NONE', #677, #660, #671 ) ;
#781 = AXIS2_PLACEMENT_3D ( 'NONE', #687, #690, #708 ) ;
#782 = EDGE_CURVE ( 'NONE', #222, #194, #335, .T. ) ;
#783 = EDGE_CURVE ( 'NONE', #245, #218, #851, .T. ) ;
#784 = EDGE_CURVE ( 'NONE', #225, #236, #855, .T. ) ;
#785 = EDGE_CURVE ( 'NONE', #209, #231, #858, .T. ) ;
#786 = EDGE_CURVE ( 'NONE', #57, #240, #846, .T. ) ;
#787 = EDGE_CURVE ( 'NONE', #234, #206, #317, .T. ) ;
#788 = EDGE_CURVE ( 'NONE', #231, #192, #856, .T. ) ;
#789 = EDGE_CURVE ( 'NONE', #194, #57, #847, .T. ) ;
#790 = CC_DESIGN_SECURITY_CLASSIFICATION ( #812, ( #813 ) ) ;
#791 = AXIS2_PLACEMENT_3D ( 'NONE', #368, #395, #393 ) ;
#792 = CC_DESIGN_PERSON_AND_ORGANIZATION_ASSIGNMENT ( #336, #635, ( #859 ) ) ;
#793 = CC_DESIGN_APPROVAL ( #794, ( #810 ) ) ;
#794 = APPROVAL ( #619, 'UNSPECIFIED' ) ;
#795 = CC_DESIGN_APPROVAL ( #828, ( #813 ) ) ;
#796 = CC_DESIGN_PERSON_AND_ORGANIZATION_ASSIGNMENT ( #315, #617, ( #813 ) ) ;
#797 = PRODUCT_RELATED_PRODUCT_CATEGORY ( 'detail', '', ( #859 ) ) ;
#798 = AXIS2_PLACEMENT_3D ( 'NONE', #441, #444, #442 ) ;
#799 = AXIS2_PLACEMENT_3D ( 'NONE', #373, #383, #399 ) ;
#800 = AXIS2_PLACEMENT_3D ( 'NONE', #522, #524, #525 ) ;
#801 = AXIS2_PLACEMENT_3D ( 'NONE', #413, #446, #428 ) ;
#802 = AXIS2_PLACEMENT_3D ( 'NONE', #379, #372, #392 ) ;
#803 = AXIS2_PLACEMENT_3D ( 'NONE', #427, #454, #449 ) ;
#804 = AXIS2_PLACEMENT_3D ( 'NONE', #517, #498, #506 ) ;
#805 = AXIS2_PLACEMENT_3D ( 'NONE', #475, #481, #467 ) ;
#806 = AXIS2_PLACEMENT_3D ( 'NONE', #402, #378, #374 ) ;
#807 = AXIS2_PLACEMENT_3D ( 'NONE', #654, #618, #636 ) ;
#808 = CC_DESIGN_DATE_AND_TIME_ASSIGNMENT ( #340, #615, ( #810 ) ) ;
#809 = AXIS2_PLACEMENT_3D ( 'NONE', #548, #549, #559 ) ;
#810 = PRODUCT_DEFINITION ( 'UNKNOWN', '', #813, #842 ) ;
#811 = APPROVAL ( #622, 'UNSPECIFIED' ) ;
#812 = SECURITY_CLASSIFICATION ( '', '', #642 ) ;
#813 = PRODUCT_DEFINITION_FORMATION_WITH_SPECIFIED_SOURCE ( 'ANY', '', #859, .NOT_KNOWN. ) ;
#814 = AXIS2_PLACEMENT_3D ( 'NONE', #697, #698, #699 ) ;
#815 = AXIS2_PLACEMENT_3D ( 'NONE', #412, #423, #425 ) ;
#816 = AXIS2_PLACEMENT_3D ( 'NONE', #503, #510, #492 ) ;
#817 = AXIS2_PLACEMENT_3D ( 'NONE', #581, #565, #610 ) ;
#818 =( GEOMETRIC_REPRESENTATION_CONTEXT ( 3 ) GLOBAL_UNCERTAINTY_ASSIGNED_CONTEXT ( ( #857 ) ) GLOBAL_UNIT_ASSIGNED_CONTEXT ( ( #612, #651, #639 ) ) REPRESENTATION_CONTEXT ( 'NONE', 'WORKASPACE' ) );
#819 = AXIS2_PLACEMENT_3D ( 'NONE', #587, #583, #566 ) ;
#820 = CC_DESIGN_DATE_AND_TIME_ASSIGNMENT ( #334, #648, ( #812 ) ) ;
#821 = AXIS2_PLACEMENT_3D ( 'NONE', #476, #491, #486 ) ;
#822 = AXIS2_PLACEMENT_3D ( 'NONE', #404, #360, #396 ) ;
#823 = AXIS2_PLACEMENT_3D ( 'NONE', #435, #407, #417 ) ;
#824 = AXIS2_PLACEMENT_3D ( 'NONE', #432, #421, #445 ) ;
#825 = AXIS2_PLACEMENT_3D ( 'NONE', #398, #388, #394 ) ;
#826 = AXIS2_PLACEMENT_3D ( 'NONE', #384, #358, #386 ) ;
#827 = AXIS2_PLACEMENT_3D ( 'NONE', #595, #608, #609 ) ;
#828 = APPROVAL ( #620, 'UNSPECIFIED' ) ;
#829 = AXIS2_PLACEMENT_3D ( 'NONE', #382, #352, #356 ) ;
#830 = AXIS2_PLACEMENT_3D ( 'NONE', #558, #531, #543 ) ;
#831 = AXIS2_PLACEMENT_3D ( 'NONE', #512, #494, #507 ) ;
#832 = AXIS2_PLACEMENT_3D ( 'NONE', #537, #553, #540 ) ;
#833 = CC_DESIGN_PERSON_AND_ORGANIZATION_ASSIGNMENT ( #318, #637, ( #810 ) ) ;
#834 = AXIS2_PLACEMENT_3D ( 'NONE', #400, #401, #397 ) ;
#835 = AXIS2_PLACEMENT_3D ( 'NONE', #452, #490, #448 ) ;
#836 = AXIS2_PLACEMENT_3D ( 'NONE', #521, #562, #520 ) ;
#837 = CC_DESIGN_PERSON_AND_ORGANIZATION_ASSIGNMENT ( #343, #640, ( #813 ) ) ;
#838 = AXIS2_PLACEMENT_3D ( 'NONE', #410, #429, #411 ) ;
#839 = CC_DESIGN_PERSON_AND_ORGANIZATION_ASSIGNMENT ( #349, #621, ( #812 ) ) ;
#840 = CC_DESIGN_APPROVAL ( #811, ( #812 ) ) ;
#841 = PRODUCT_DEFINITION_SHAPE ( 'NONE', 'NONE',  #810 ) ;
#842 = DESIGN_CONTEXT ( 'detailed design', #647, 'design' ) ;
#843 = B_SPLINE_CURVE_WITH_KNOTS ( 'NONE', 3,
 ( #545, #536, #523, #542, #518, #530 ),
 .UNSPECIFIED., .F., .F.,
 ( 4, 2, 4 ),
 ( 0.01327131833563922900, 0.01441099078359985400, 0.01555066323156047800 ),
 .UNSPECIFIED. ) ;
#844 = B_SPLINE_CURVE_WITH_KNOTS ( 'NONE', 3,
 ( #527, #528, #570, #592, #602, #593 ),
 .UNSPECIFIED., .F., .F.,
 ( 4, 2, 4 ),
 ( 0.006500137771370213800, 0.007640980131886718900, 0.008781822492403224000 ),
 .UNSPECIFIED. ) ;
#845 = B_SPLINE_CURVE_WITH_KNOTS ( 'NONE', 3,
 ( #546, #547, #556, #560, #555, #563 ),
 .UNSPECIFIED., .F., .F.,
 ( 4, 2, 4 ),
 ( 0.002278555765609474500, 0.003413457555613191700, 0.004548359345616908400 ),
 .UNSPECIFIED. ) ;
#846 = B_SPLINE_CURVE_WITH_KNOTS ( 'NONE', 3,
 ( #573, #574, #613, #655, #628, #624 ),
 .UNSPECIFIED., .F., .F.,
 ( 4, 2, 4 ),
 ( 0.003932623070085863000, 0.005069352296237980400, 0.006206081522390097800 ),
 .UNSPECIFIED. ) ;
#847 = B_SPLINE_CURVE_WITH_KNOTS ( 'NONE', 3,
 ( #645, #634, #649, #633, #641, #656, #652, #627 ),
 .UNSPECIFIED., .F., .F.,
 ( 4, 2, 2, 4 ),
 ( 2.330585287112787700E-007, 0.002253686818522083800, 0.003380413698518770700, 0.004507140578515457500 ),
 .UNSPECIFIED. ) ;
#848 = B_SPLINE_CURVE_WITH_KNOTS ( 'NONE', 3,
 ( #601, #600, #589, #576 ),
 .UNSPECIFIED., .F., .F.,
 ( 4, 4 ),
 ( 2.380737886853473700E-007, 0.002278555765609474900 ),
 .UNSPECIFIED. ) ;
#849 = ADVANCED_BREP_SHAPE_REPRESENTATION ( 'ALP0821', ( #2, #807 ), #818 ) ;
#850 = B_SPLINE_CURVE_WITH_KNOTS ( 'NONE', 3,
 ( #509, #497, #513, #515, #501, #519 ),
 .UNSPECIFIED., .F., .F.,
 ( 4, 2, 4 ),
 ( 0.006206081522390097800, 0.007342372411595564700, 0.008478663300801030800 ),
 .UNSPECIFIED. ) ;
#851 = B_SPLINE_CURVE_WITH_KNOTS ( 'NONE', 3,
 ( #568, #598, #569, #599 ),
 .UNSPECIFIED., .F., .F.,
 ( 4, 4 ),
 ( 2.380737887735938300E-007, 0.002278555765609474100 ),
 .UNSPECIFIED. ) ;
#852 = B_SPLINE_CURVE_WITH_KNOTS ( 'NONE', 3,
 ( #504, #500, #496, #505, #508, #511 ),
 .UNSPECIFIED., .F., .F.,
 ( 4, 2, 4 ),
 ( 0.007873880993278497400, 0.009003043740091450400, 0.01013220648690440300 ),
 .UNSPECIFIED. ) ;
#853 = B_SPLINE_CURVE_WITH_KNOTS ( 'NONE', 3,
 ( #554, #550, #538, #539 ),
 .UNSPECIFIED., .F., .F.,
 ( 4, 4 ),
 ( 2.380737886851303700E-007, 0.002278555765609474500 ),
 .UNSPECIFIED. ) ;
#854 = B_SPLINE_CURVE_WITH_KNOTS ( 'NONE', 3,
 ( #596, #577, #586, #591, #584, #606, #567, #572 ),
 .UNSPECIFIED., .F., .F.,
 ( 4, 2, 2, 4 ),
 ( 2.330585289513887300E-007, 0.002253686818522204400, 0.003380413698518830500, 0.004507140578515458400 ),
 .UNSPECIFIED. ) ;
#855 = B_SPLINE_CURVE_WITH_KNOTS ( 'NONE', 3,
 ( #590, #611, #597, #603, #564, #571 ),
 .UNSPECIFIED., .F., .F.,
 ( 4, 2, 4 ),
 ( 0.01013220648690440300, 0.01126180482090335200, 0.01239140315490230000 ),
 .UNSPECIFIED. ) ;
#856 = B_SPLINE_CURVE_WITH_KNOTS ( 'NONE', 3,
 ( #630, #626, #657, #632, #629, #643 ),
 .UNSPECIFIED., .F., .F.,
 ( 4, 2, 4 ),
 ( 0.01099010548005582300, 0.01213071190784752500, 0.01327131833563922900 ),
 .UNSPECIFIED. ) ;
#857 = UNCERTAINTY_MEASURE_WITH_UNIT (LENGTH_MEASURE( 1.000000000000000100E-005 ), #612, 'distance_accuracy_value', 'NONE');
#858 = B_SPLINE_CURVE_WITH_KNOTS ( 'NONE', 3,
 ( #605, #575, #579, #580, #582, #638 ),
 .UNSPECIFIED., .F., .F.,
 ( 4, 2, 4 ),
 ( 0.002278555765609474900, 0.003413457555613192100, 0.004548359345616909300 ),
 .UNSPECIFIED. ) ;
#859 = PRODUCT ( 'ALP0821', 'ALP0821', '', ( #646 ) ) ;
#860 = PERSON ( 'UNSPECIFIED', 'UNSPECIFIED', 'UNSPECIFIED', ('UNSPECIFIED'), ('UNSPECIFIED'), ('UNSPECIFIED') ) ;
ENDSEC;
END-ISO-10303-21;
