ISO-10303-21;
HEADER;
FILE_DESCRIPTION (( 'STEP AP203' ),
    '1' );
FILE_NAME ('ALP0314.STEP',
    '2017-02-01T11:18:16',
    ( '' ),
    ( '' ),
    'SwSTEP 2.0',
    'SolidWorks 2012',
    '' );
FILE_SCHEMA (( 'CONFIG_CONTROL_DESIGN' ));
ENDSEC;

DATA;
#1 = B_SPLINE_SURFACE_WITH_KNOTS ( 'NONE', 5, 5, ( 
 ( #121, #75, #76, #81, #92, #116, #93, #87, #108, #95, #77, #120 ),
 ( #78, #82, #106, #88, #96, #83, #97, #114, #98, #86, #84, #85 ),
 ( #89, #117, #101, #90, #99, #100, #111, #103, #104, #107, #109, #112 ),
 ( #113, #118, #131, #147, #140, #156, #164, #157, #148, #167, #165, #160 ),
 ( #153, #122, #132, #158, #155, #161, #133, #123, #154, #159, #124, #125 ),
 ( #128, #162, #129, #137, #126, #149, #130, #150, #138, #166, #127, #151 ),
 ( #152, #134, #163, #141, #142, #135, #136, #139, #143, #144, #145, #146 ),
 ( #177, #173, #171, #178, #214, #205, #211, #230, #222, #212, #188, #196 ),
 ( #183, #179, #215, #213, #192, #225, #197, #190, #209, #176, #191, #218 ),
 ( #216, #206, #219, #220, #198, #194, #175, #217, #180, #224, #193, #226 ),
 ( #169, #181, #195, #221, #199, #185, #223, #200, #172, #227, #228, #174 ),
 ( #186, #201, #182, #202, #229, #203, #184, #187, #189, #204, #207, #168 ) ),
 .UNSPECIFIED., .F., .F., .F.,
 ( 6, 3, 3, 6 ),
 ( 6, 3, 3, 6 ),
 ( -4.679617686986682100, -0.9359368915665631200, 0.9359146346176938600, 4.679617686986208700 ),
 ( -4.104733668453565800, -0.8209583998715976900, 0.8209389562367972500, 4.104733668453587100 ),
 .UNSPECIFIED. ) ;
#2 = CARTESIAN_POINT ( 'NONE',  ( 0.0000000000000000000, 0.0000000000000000000, 13.29999999999999500 ) ) ;
#3 = CARTESIAN_POINT ( 'NONE',  ( 0.0000000000000000000, 0.0000000000000000000, 3.000000000000000000 ) ) ;
#4 = DIRECTION ( 'NONE',  ( 0.0000000000000000000, 0.0000000000000000000, 1.000000000000000000 ) ) ;
#5 = DIRECTION ( 'NONE',  ( -0.0000000000000000000, -0.0000000000000000000, 1.000000000000000000 ) ) ;
#6 = DIRECTION ( 'NONE',  ( 1.000000000000000000, 0.0000000000000000000, 0.0000000000000000000 ) ) ;
#7 = CARTESIAN_POINT ( 'NONE',  ( 0.0000000000000000000, 0.0000000000000000000, 35.50000000000000700 ) ) ;
#8 = DIRECTION ( 'NONE',  ( 0.0000000000000000000, 0.0000000000000000000, 1.000000000000000000 ) ) ;
#9 = CARTESIAN_POINT ( 'NONE',  ( 0.0000000000000000000, 0.0000000000000000000, 13.29999999999999500 ) ) ;
#10 = CARTESIAN_POINT ( 'NONE',  ( 2.193931022920579300, 3.799999999999998900, 3.000000000000000000 ) ) ;
#11 = CARTESIAN_POINT ( 'NONE',  ( 0.0000000000000000000, 0.0000000000000000000, 12.50000000000000000 ) ) ;
#12 = DIRECTION ( 'NONE',  ( 1.000000000000000000, 0.0000000000000000000, 0.0000000000000000000 ) ) ;
#13 = PLANE ( 'NONE',  #919 ) ;
#14 = DIRECTION ( 'NONE',  ( 1.000000000000000000, 0.0000000000000000000, 0.0000000000000000000 ) ) ;
#15 = PLANE ( 'NONE',  #908 ) ;
#16 = DIRECTION ( 'NONE',  ( -1.000000000000000000, 0.0000000000000000000, 0.0000000000000000000 ) ) ;
#17 = DIRECTION ( 'NONE',  ( 0.0000000000000000000, 0.0000000000000000000, 1.000000000000000000 ) ) ;
#18 = DIRECTION ( 'NONE',  ( 1.000000000000000000, 0.0000000000000000000, -0.0000000000000000000 ) ) ;
#19 = DIRECTION ( 'NONE',  ( 1.000000000000000000, 0.0000000000000000000, 0.0000000000000000000 ) ) ;
#20 = DIRECTION ( 'NONE',  ( 0.0000000000000000000, 0.0000000000000000000, -1.000000000000000000 ) ) ;
#21 = CARTESIAN_POINT ( 'NONE',  ( 0.0000000000000000000, 0.0000000000000000000, 5.500000000000000000 ) ) ;
#22 = DIRECTION ( 'NONE',  ( 0.0000000000000000000, 0.0000000000000000000, 1.000000000000000000 ) ) ;
#23 = DIRECTION ( 'NONE',  ( -0.5000000000000000000, -0.8660254037844386000, 0.0000000000000000000 ) ) ;
#24 = PLANE ( 'NONE',  #898 ) ;
#25 = DIRECTION ( 'NONE',  ( -0.8660254037844387100, 0.5000000000000001100, 0.0000000000000000000 ) ) ;
#26 = DIRECTION ( 'NONE',  ( 0.0000000000000000000, 0.0000000000000000000, 1.000000000000000000 ) ) ;
#27 = CARTESIAN_POINT ( 'NONE',  ( 0.0000000000000000000, 0.0000000000000000000, 0.0000000000000000000 ) ) ;
#28 = CARTESIAN_POINT ( 'NONE',  ( 0.0000000000000000000, 0.0000000000000000000, 5.500000000000000000 ) ) ;
#29 = PLANE ( 'NONE',  #923 ) ;
#30 = CARTESIAN_POINT ( 'NONE',  ( 0.0000000000000000000, 0.0000000000000000000, 5.500000000000000000 ) ) ;
#31 = DIRECTION ( 'NONE',  ( 1.000000000000000000, 0.0000000000000000000, -0.0000000000000000000 ) ) ;
#32 = DIRECTION ( 'NONE',  ( -0.0000000000000000000, -0.0000000000000000000, -1.000000000000000000 ) ) ;
#33 = DIRECTION ( 'NONE',  ( -0.0000000000000000000, -0.0000000000000000000, -1.000000000000000000 ) ) ;
#34 = CARTESIAN_POINT ( 'NONE',  ( -4.561067126598041800, 0.1000000000000007500, 0.2000000000000000900 ) ) ;
#35 = CARTESIAN_POINT ( 'NONE',  ( 0.0000000000000000000, 0.0000000000000000000, 35.50000000000000700 ) ) ;
#36 = DIRECTION ( 'NONE',  ( 1.000000000000000000, 0.0000000000000000000, -0.0000000000000000000 ) ) ;
#37 = DIRECTION ( 'NONE',  ( -1.000000000000000000, 0.0000000000000000000, 0.0000000000000000000 ) ) ;
#38 = PLANE ( 'NONE',  #802 ) ;
#39 = DIRECTION ( 'NONE',  ( -0.0000000000000000000, -0.0000000000000000000, 1.000000000000000000 ) ) ;
#40 = DIRECTION ( 'NONE',  ( -1.000000000000000000, 0.0000000000000000000, 0.0000000000000000000 ) ) ;
#41 = CARTESIAN_POINT ( 'NONE',  ( -4.618802153517005000, 9.068368737501600700E-016, 3.000000000000000000 ) ) ;
#42 = CARTESIAN_POINT ( 'NONE',  ( 0.0000000000000000000, 0.0000000000000000000, 35.50000000000000700 ) ) ;
#43 = PLANE ( 'NONE',  #892 ) ;
#44 = CARTESIAN_POINT ( 'NONE',  ( 4.387862045841156800, -1.355252715606880500E-015, 3.000000000000000000 ) ) ;
#45 = DIRECTION ( 'NONE',  ( 0.0000000000000000000, 0.0000000000000000000, 1.000000000000000000 ) ) ;
#46 = DIRECTION ( 'NONE',  ( 0.0000000000000000000, -0.0000000000000000000, 1.000000000000000000 ) ) ;
#47 = DIRECTION ( 'NONE',  ( -1.000000000000000000, 0.0000000000000000000, 0.0000000000000000000 ) ) ;
#48 = DIRECTION ( 'NONE',  ( 0.0000000000000000000, 1.000000000000000000, 0.0000000000000000000 ) ) ;
#49 = DIRECTION ( 'NONE',  ( -0.0000000000000000000, -0.0000000000000000000, -1.000000000000000000 ) ) ;
#50 = DIRECTION ( 'NONE',  ( 0.8660254037844387100, 0.4999999999999998300, -0.0000000000000000000 ) ) ;
#51 = DIRECTION ( 'NONE',  ( -1.000000000000000000, 0.0000000000000000000, 0.0000000000000000000 ) ) ;
#52 = CARTESIAN_POINT ( 'NONE',  ( -1.690733301878142100, 3.999999999999999100, 3.000942108532701300 ) ) ;
#53 = DIRECTION ( 'NONE',  ( 1.000000000000000000, 0.0000000000000000000, 0.0000000000000000000 ) ) ;
#54 = CARTESIAN_POINT ( 'NONE',  ( -1.439134498440949100, 3.999999999999999100, 3.000572069834147800 ) ) ;
#55 = DIRECTION ( 'NONE',  ( 1.000000000000000000, 0.0000000000000000000, -0.0000000000000000000 ) ) ;
#56 = DIRECTION ( 'NONE',  ( -0.4999999999999998300, 0.8660254037844387100, 0.0000000000000000000 ) ) ;
#57 = DIRECTION ( 'NONE',  ( 0.0000000000000000000, 0.0000000000000000000, 1.000000000000000000 ) ) ;
#58 = DIRECTION ( 'NONE',  ( 0.0000000000000000000, 0.0000000000000000000, 1.000000000000000000 ) ) ;
#59 = DIRECTION ( 'NONE',  ( -0.0000000000000000000, -0.0000000000000000000, -1.000000000000000000 ) ) ;
#60 = CARTESIAN_POINT ( 'NONE',  ( -2.193931022920578400, -3.799999999999999800, 3.000000000000000000 ) ) ;
#61 = CARTESIAN_POINT ( 'NONE',  ( 2.193931022920578800, -3.799999999999999800, 3.000000000000000000 ) ) ;
#62 = DIRECTION ( 'NONE',  ( 1.000000000000000000, 0.0000000000000000000, 0.0000000000000000000 ) ) ;
#63 = DIRECTION ( 'NONE',  ( 0.0000000000000000000, 0.0000000000000000000, 1.000000000000000000 ) ) ;
#64 = CARTESIAN_POINT ( 'NONE',  ( 0.0000000000000000000, 0.0000000000000000000, 0.2000000000000000100 ) ) ;
#65 = DIRECTION ( 'NONE',  ( 1.000000000000000000, 0.0000000000000000000, 0.0000000000000000000 ) ) ;
#66 = DIRECTION ( 'NONE',  ( 1.000000000000000000, 0.0000000000000000000, 0.0000000000000000000 ) ) ;
#67 = CARTESIAN_POINT ( 'NONE',  ( 2.309401076758504300, 3.999999999999999100, 3.000000000000000000 ) ) ;
#68 = CARTESIAN_POINT ( 'NONE',  ( 0.0000000000000000000, 0.0000000000000000000, 35.50000000000000700 ) ) ;
#69 = PLANE ( 'NONE',  #896 ) ;
#70 = CARTESIAN_POINT ( 'NONE',  ( 0.0000000000000000000, 0.0000000000000000000, 35.50000000000000700 ) ) ;
#71 = DIRECTION ( 'NONE',  ( 0.0000000000000000000, 0.0000000000000000000, -1.000000000000000000 ) ) ;
#72 = DIRECTION ( 'NONE',  ( 0.0000000000000000000, 0.0000000000000000000, 1.000000000000000000 ) ) ;
#73 = DIRECTION ( 'NONE',  ( -1.000000000000000000, 0.0000000000000000000, 0.0000000000000000000 ) ) ;
#74 = CARTESIAN_POINT ( 'NONE',  ( -2.309401076758502500, 3.999999999999999100, 3.000000000000000000 ) ) ;
#75 = CARTESIAN_POINT ( 'NONE',  ( -4.679617686986681200, -3.447978614737171800, 2.903582950670972300 ) ) ;
#76 = CARTESIAN_POINT ( 'NONE',  ( -4.679617686986681200, -2.791223561020778300, 2.843901597079113900 ) ) ;
#77 = CARTESIAN_POINT ( 'NONE',  ( -4.679617686986681200, 3.447974726010229600, 2.903685720706348200 ) ) ;
#78 = CARTESIAN_POINT ( 'NONE',  ( -3.930881527902657000, -4.104733668453565800, 2.992110358043074100 ) ) ;
#79 = DIRECTION ( 'NONE',  ( -0.0000000000000000000, -0.0000000000000000000, -1.000000000000000000 ) ) ;
#80 = CARTESIAN_POINT ( 'NONE',  ( -0.8131653897669040000, 3.999999999999999100, 2.998735649744686400 ) ) ;
#81 = CARTESIAN_POINT ( 'NONE',  ( -4.679617686986681200, -2.134468507304384800, 2.859371312256548900 ) ) ;
#82 = CARTESIAN_POINT ( 'NONE',  ( -3.930881527902657000, -3.447978614737171800, 2.900141656407985400 ) ) ;
#83 = CARTESIAN_POINT ( 'NONE',  ( -3.930881527902657000, -0.1641994574282392700, 3.018026282158581300 ) ) ;
#84 = CARTESIAN_POINT ( 'NONE',  ( -3.930881527902657000, 3.447974726010229600, 2.900187842462643900 ) ) ;
#85 = CARTESIAN_POINT ( 'NONE',  ( -3.930881527902657000, 4.104733668453587100, 2.992205744872136200 ) ) ;
#86 = CARTESIAN_POINT ( 'NONE',  ( -3.930881527902657000, 2.791215783566872100, 2.863267289896296800 ) ) ;
#87 = CARTESIAN_POINT ( 'NONE',  ( -4.679617686986681200, 1.149318427458476700, 2.943446529554342800 ) ) ;
#88 = CARTESIAN_POINT ( 'NONE',  ( -3.930881527902657000, -2.134468507304384800, 2.896147117721261700 ) ) ;
#89 = CARTESIAN_POINT ( 'NONE',  ( -3.182145368818632700, -4.104733668453565800, 3.001671320380439000 ) ) ;
#90 = CARTESIAN_POINT ( 'NONE',  ( -3.182145368818632700, -2.134468507304384800, 2.986199590871272800 ) ) ;
#91 = PLANE ( 'NONE',  #865 ) ;
#92 = CARTESIAN_POINT ( 'NONE',  ( -4.679617686986681200, -1.149333982366312000, 2.943525751240307000 ) ) ;
#93 = CARTESIAN_POINT ( 'NONE',  ( -4.679617686986681200, 0.1641800137934396600, 3.005666893950195400 ) ) ;
#94 = CARTESIAN_POINT ( 'NONE',  ( 0.0000000000000000000, 0.0000000000000000000, 12.50000000000000000 ) ) ;
#95 = CARTESIAN_POINT ( 'NONE',  ( -4.679617686986681200, 2.791215783566872100, 2.843940305580716200 ) ) ;
#96 = CARTESIAN_POINT ( 'NONE',  ( -3.930881527902657000, -1.149333982366312000, 2.984653364563276700 ) ) ;
#97 = CARTESIAN_POINT ( 'NONE',  ( -3.930881527902657000, 0.1641800137934396600, 3.017879103753637400 ) ) ;
#98 = CARTESIAN_POINT ( 'NONE',  ( -3.930881527902657000, 2.134456841123514100, 2.896174255210572900 ) ) ;
#99 = CARTESIAN_POINT ( 'NONE',  ( -3.182145368818632700, -1.149333982366312000, 3.107215670178185000 ) ) ;
#100 = CARTESIAN_POINT ( 'NONE',  ( -3.182145368818632700, -0.1641994574282392700, 3.135299575168868400 ) ) ;
#101 = CARTESIAN_POINT ( 'NONE',  ( -3.182145368818632700, -2.791223561020778300, 2.920970901472197400 ) ) ;
#102 = DIRECTION ( 'NONE',  ( 0.0000000000000000000, -0.0000000000000000000, -1.000000000000000000 ) ) ;
#103 = CARTESIAN_POINT ( 'NONE',  ( -3.182145368818632700, 1.149318427458476700, 3.107198800516432200 ) ) ;
#104 = CARTESIAN_POINT ( 'NONE',  ( -3.182145368818632700, 2.134456841123514100, 2.986139157505395900 ) ) ;
#105 = CARTESIAN_POINT ( 'NONE',  ( -0.1871962810928592400, 3.999999999999999100, 3.000653603340390800 ) ) ;
#106 = CARTESIAN_POINT ( 'NONE',  ( -3.930881527902657000, -2.791223561020778300, 2.863252907502556800 ) ) ;
#107 = CARTESIAN_POINT ( 'NONE',  ( -3.182145368818632700, 2.791215783566872100, 2.920979216258294400 ) ) ;
#108 = CARTESIAN_POINT ( 'NONE',  ( -4.679617686986681200, 2.134456841123514100, 2.859550972998520500 ) ) ;
#109 = CARTESIAN_POINT ( 'NONE',  ( -3.182145368818632700, 3.447974726010229600, 2.932758717594531600 ) ) ;
#110 = CARTESIAN_POINT ( 'NONE',  ( 2.309401076758503800, -4.000000000000000000, 3.000000000000000000 ) ) ;
#111 = CARTESIAN_POINT ( 'NONE',  ( -3.182145368818632700, 0.1641800137934396600, 3.135375604864640800 ) ) ;
#112 = CARTESIAN_POINT ( 'NONE',  ( -3.182145368818632700, 4.104733668453587100, 3.001714648607757500 ) ) ;
#113 = CARTESIAN_POINT ( 'NONE',  ( -2.433409209734608900, -4.104733668453565800, 3.006970650201319800 ) ) ;
#114 = CARTESIAN_POINT ( 'NONE',  ( -3.930881527902657000, 1.149318427458476700, 2.984700755553965300 ) ) ;
#115 = DIRECTION ( 'NONE',  ( -1.000000000000000000, 0.0000000000000000000, 0.0000000000000000000 ) ) ;
#116 = CARTESIAN_POINT ( 'NONE',  ( -4.679617686986681200, -0.1641994574282392700, 3.005694968018904200 ) ) ;
#117 = CARTESIAN_POINT ( 'NONE',  ( -3.182145368818632700, -3.447978614737171800, 2.932734334611341300 ) ) ;
#118 = CARTESIAN_POINT ( 'NONE',  ( -2.433409209734609400, -3.447978614737171800, 2.996904723394616400 ) ) ;
#119 = DIRECTION ( 'NONE',  ( 0.0000000000000000000, -1.000000000000000000, 0.0000000000000000000 ) ) ;
#120 = CARTESIAN_POINT ( 'NONE',  ( -4.679617686986681200, 4.104733668453587100, 3.022931036956365300 ) ) ;
#121 = CARTESIAN_POINT ( 'NONE',  ( -4.679617686986681200, -4.104733668453565800, 3.022774299819664300 ) ) ;
#122 = CARTESIAN_POINT ( 'NONE',  ( -1.310302745413734400, -3.447978614737171800, 3.062919241327811900 ) ) ;
#123 = CARTESIAN_POINT ( 'NONE',  ( -1.310302745413734400, 1.149318427458476700, 3.634926188681324000 ) ) ;
#124 = CARTESIAN_POINT ( 'NONE',  ( -1.310302745413734400, 3.447974726010229600, 3.062884277047232200 ) ) ;
#125 = CARTESIAN_POINT ( 'NONE',  ( -1.310302745413734400, 4.104733668453587100, 2.984162082682882700 ) ) ;
#126 = CARTESIAN_POINT ( 'NONE',  ( -0.1871962810928592400, -1.149333982366312000, 3.730934668999138300 ) ) ;
#127 = CARTESIAN_POINT ( 'NONE',  ( -0.1871962810928592400, 3.447974726010229600, 3.084906295528039500 ) ) ;
#128 = CARTESIAN_POINT ( 'NONE',  ( -0.1871962810928592400, -4.104733668453565800, 2.984097305107874700 ) ) ;
#129 = CARTESIAN_POINT ( 'NONE',  ( -0.1871962810928592400, -2.791223561020778300, 3.232211563730438700 ) ) ;
#130 = CARTESIAN_POINT ( 'NONE',  ( -0.1871962810928592400, 0.1641800137934396600, 3.834034053907563700 ) ) ;
#131 = CARTESIAN_POINT ( 'NONE',  ( -2.433409209734609400, -2.791223561020778300, 3.034089734549736400 ) ) ;
#132 = CARTESIAN_POINT ( 'NONE',  ( -1.310302745413734400, -2.791223561020778300, 3.190528529993765800 ) ) ;
#133 = CARTESIAN_POINT ( 'NONE',  ( -1.310302745413734400, 0.1641800137934396600, 3.715851725549550000 ) ) ;
#134 = CARTESIAN_POINT ( 'NONE',  ( 0.1871740241439921500, -3.447978614737171800, 3.084920432703476000 ) ) ;
#135 = CARTESIAN_POINT ( 'NONE',  ( 0.1871740241439921500, -0.1641994574282392700, 3.834040669246189900 ) ) ;
#136 = CARTESIAN_POINT ( 'NONE',  ( 0.1871740241439921500, 0.1641800137934396600, 3.834040119624186900 ) ) ;
#137 = CARTESIAN_POINT ( 'NONE',  ( -0.1871962810928592400, -2.134468507304384800, 3.434241579435985100 ) ) ;
#138 = CARTESIAN_POINT ( 'NONE',  ( -0.1871962810928592400, 2.134456841123514100, 3.434216142855092400 ) ) ;
#139 = CARTESIAN_POINT ( 'NONE',  ( 0.1871740241439921500, 1.149318427458476700, 3.730930072270519200 ) ) ;
#140 = CARTESIAN_POINT ( 'NONE',  ( -2.433409209734609400, -1.149333982366312000, 3.318090309372212500 ) ) ;
#141 = CARTESIAN_POINT ( 'NONE',  ( 0.1871740241439921500, -2.134468507304384800, 3.434236832395797500 ) ) ;
#142 = CARTESIAN_POINT ( 'NONE',  ( 0.1871740241439921500, -1.149333982366312000, 3.730941521287299600 ) ) ;
#143 = CARTESIAN_POINT ( 'NONE',  ( 0.1871740241439921500, 2.134456841123514100, 3.434219110815871700 ) ) ;
#144 = CARTESIAN_POINT ( 'NONE',  ( 0.1871740241439921500, 2.791215783566872100, 3.232189633626873600 ) ) ;
#145 = CARTESIAN_POINT ( 'NONE',  ( 0.1871740241439921500, 3.447974726010229600, 3.084913732625393900 ) ) ;
#146 = CARTESIAN_POINT ( 'NONE',  ( 0.1871740241439921500, 4.104733668453587100, 2.984096801476133500 ) ) ;
#147 = CARTESIAN_POINT ( 'NONE',  ( -2.433409209734609400, -2.134468507304384800, 3.153259484117931800 ) ) ;
#148 = CARTESIAN_POINT ( 'NONE',  ( -2.433409209734609400, 2.134456841123514100, 3.153230747282160400 ) ) ;
#149 = CARTESIAN_POINT ( 'NONE',  ( -0.1871962810928592400, -0.1641994574282392700, 3.834035667149829200 ) ) ;
#150 = CARTESIAN_POINT ( 'NONE',  ( -0.1871962810928592400, 1.149318427458476700, 3.730923543494025600 ) ) ;
#151 = CARTESIAN_POINT ( 'NONE',  ( -0.1871962810928592400, 4.104733668453587100, 2.984103388164702300 ) ) ;
#152 = CARTESIAN_POINT ( 'NONE',  ( 0.1871740241439921500, -4.104733668453565800, 2.984098614386549100 ) ) ;
#153 = CARTESIAN_POINT ( 'NONE',  ( -1.310302745413734400, -4.104733668453565800, 2.984159438894744600 ) ) ;
#154 = CARTESIAN_POINT ( 'NONE',  ( -1.310302745413734400, 2.134456841123514100, 3.366382803869085700 ) ) ;
#155 = CARTESIAN_POINT ( 'NONE',  ( -1.310302745413734400, -1.149333982366312000, 3.634946167309747600 ) ) ;
#156 = CARTESIAN_POINT ( 'NONE',  ( -2.433409209734609400, -0.1641994574282392700, 3.376943208177073200 ) ) ;
#157 = CARTESIAN_POINT ( 'NONE',  ( -2.433409209734609400, 1.149318427458476700, 3.318059974253182900 ) ) ;
#158 = CARTESIAN_POINT ( 'NONE',  ( -1.310302745413734400, -2.134468507304384800, 3.366405595233373100 ) ) ;
#159 = CARTESIAN_POINT ( 'NONE',  ( -1.310302745413734400, 2.791215783566872100, 3.190451900575095800 ) ) ;
#160 = CARTESIAN_POINT ( 'NONE',  ( -2.433409209734608900, 4.104733668453587100, 3.006984554047536400 ) ) ;
#161 = CARTESIAN_POINT ( 'NONE',  ( -1.310302745413734400, -0.1641994574282392700, 3.715854227123554000 ) ) ;
#162 = CARTESIAN_POINT ( 'NONE',  ( -0.1871962810928592400, -3.447978614737171800, 3.084929399026711500 ) ) ;
#163 = CARTESIAN_POINT ( 'NONE',  ( 0.1871740241439921500, -2.791223561020778300, 3.232211583805999500 ) ) ;
#164 = CARTESIAN_POINT ( 'NONE',  ( -2.433409209734609400, 0.1641800137934396600, 3.376931467331743000 ) ) ;
#165 = CARTESIAN_POINT ( 'NONE',  ( -2.433409209734609400, 3.447974726010229600, 2.996822367555276800 ) ) ;
#166 = CARTESIAN_POINT ( 'NONE',  ( -0.1871962810928592400, 2.791215783566872100, 3.232187202920155000 ) ) ;
#167 = CARTESIAN_POINT ( 'NONE',  ( -2.433409209734609400, 2.791215783566872100, 3.034092569648017000 ) ) ;
#168 = CARTESIAN_POINT ( 'NONE',  ( 4.679617686986208700, 4.104733668453587100, 3.022949413990168900 ) ) ;
#169 = CARTESIAN_POINT ( 'NONE',  ( 3.930877076512506700, -4.104733668453565800, 2.992187269328928000 ) ) ;
#170 = CARTESIAN_POINT ( 'NONE',  ( 0.8131475835748933600, 3.999999999999999100, 2.998740940197304200 ) ) ;
#171 = CARTESIAN_POINT ( 'NONE',  ( 1.310284939854546900, -2.791223561020778300, 3.190466981683551600 ) ) ;
#172 = CARTESIAN_POINT ( 'NONE',  ( 3.930877076512507600, 2.134456841123514100, 2.896124262139744900 ) ) ;
#173 = CARTESIAN_POINT ( 'NONE',  ( 1.310284939854546900, -3.447978614737171800, 3.062891684644359500 ) ) ;
#174 = CARTESIAN_POINT ( 'NONE',  ( 3.930877076512506700, 4.104733668453587100, 2.992248756340683000 ) ) ;
#175 = CARTESIAN_POINT ( 'NONE',  ( 3.182136466038804300, 0.1641800137934396600, 3.135405086250624400 ) ) ;
#176 = CARTESIAN_POINT ( 'NONE',  ( 2.433395855565101400, 2.791215783566872100, 3.034038331487343100 ) ) ;
#177 = CARTESIAN_POINT ( 'NONE',  ( 1.310284939854546600, -4.104733668453565800, 2.984161648212906300 ) ) ;
#178 = CARTESIAN_POINT ( 'NONE',  ( 1.310284939854546900, -2.134468507304384800, 3.366419852856098200 ) ) ;
#179 = CARTESIAN_POINT ( 'NONE',  ( 2.433395855565101400, -3.447978614737171800, 2.996824273430123600 ) ) ;
#180 = CARTESIAN_POINT ( 'NONE',  ( 3.182136466038804300, 2.134456841123514100, 2.986215920233445500 ) ) ;
#181 = CARTESIAN_POINT ( 'NONE',  ( 3.930877076512507600, -3.447978614737171800, 2.900164133524102600 ) ) ;
#182 = CARTESIAN_POINT ( 'NONE',  ( 4.679617686986208700, -2.791223561020778300, 2.843871875100871800 ) ) ;
#183 = CARTESIAN_POINT ( 'NONE',  ( 2.433395855565101400, -4.104733668453565800, 3.006982792998357000 ) ) ;
#184 = CARTESIAN_POINT ( 'NONE',  ( 4.679617686986208700, 0.1641800137934396600, 3.005676661270843200 ) ) ;
#185 = CARTESIAN_POINT ( 'NONE',  ( 3.930877076512507600, -0.1641994574282392700, 3.017993050186704300 ) ) ;
#186 = CARTESIAN_POINT ( 'NONE',  ( 4.679617686986208700, -4.104733668453565800, 3.022861980995254600 ) ) ;
#187 = CARTESIAN_POINT ( 'NONE',  ( 4.679617686986208700, 1.149318427458476700, 2.943469680817719000 ) ) ;
#188 = CARTESIAN_POINT ( 'NONE',  ( 1.310284939854546900, 3.447974726010229600, 3.062894796972695800 ) ) ;
#189 = CARTESIAN_POINT ( 'NONE',  ( 4.679617686986208700, 2.134456841123514100, 2.859308301522038000 ) ) ;
#190 = CARTESIAN_POINT ( 'NONE',  ( 2.433395855565101400, 1.149318427458476700, 3.318144627774248800 ) ) ;
#191 = CARTESIAN_POINT ( 'NONE',  ( 2.433395855565101400, 3.447974726010229600, 2.996867044436153400 ) ) ;
#192 = CARTESIAN_POINT ( 'NONE',  ( 2.433395855565101400, -1.149333982366312000, 3.318142431537218800 ) ) ;
#193 = CARTESIAN_POINT ( 'NONE',  ( 3.182136466038804300, 3.447974726010229600, 2.932742227910711800 ) ) ;
#194 = CARTESIAN_POINT ( 'NONE',  ( 3.182136466038803800, -0.1641994574282392700, 3.135452622554118400 ) ) ;
#195 = CARTESIAN_POINT ( 'NONE',  ( 3.930877076512507600, -2.791223561020778300, 2.863256555777347100 ) ) ;
#196 = CARTESIAN_POINT ( 'NONE',  ( 1.310284939854546600, 4.104733668453587100, 2.984175372765792000 ) ) ;
#197 = CARTESIAN_POINT ( 'NONE',  ( 2.433395855565101400, 0.1641800137934396600, 3.376996127979081200 ) ) ;
#198 = CARTESIAN_POINT ( 'NONE',  ( 3.182136466038803800, -1.149333982366312000, 3.107217879945281900 ) ) ;
#199 = CARTESIAN_POINT ( 'NONE',  ( 3.930877076512507600, -1.149333982366312000, 2.984695072520104500 ) ) ;
#200 = CARTESIAN_POINT ( 'NONE',  ( 3.930877076512507600, 1.149318427458476700, 2.984669368633514200 ) ) ;
#201 = CARTESIAN_POINT ( 'NONE',  ( 4.679617686986208700, -3.447978614737171800, 2.903606166337777200 ) ) ;
#202 = CARTESIAN_POINT ( 'NONE',  ( 4.679617686986208700, -2.134468507304384800, 2.859390486485228400 ) ) ;
#203 = CARTESIAN_POINT ( 'NONE',  ( 4.679617686986208700, -0.1641994574282392700, 3.005669198713008900 ) ) ;
#204 = CARTESIAN_POINT ( 'NONE',  ( 4.679617686986208700, 2.791215783566872100, 2.843896454239006800 ) ) ;
#205 = CARTESIAN_POINT ( 'NONE',  ( 1.310284939854546900, -0.1641994574282392700, 3.715898586675817400 ) ) ;
#206 = CARTESIAN_POINT ( 'NONE',  ( 3.182136466038803800, -3.447978614737171800, 2.932760416723295500 ) ) ;
#207 = CARTESIAN_POINT ( 'NONE',  ( 4.679617686986208700, 3.447974726010229600, 2.903650598029937000 ) ) ;
#208 = CARTESIAN_POINT ( 'NONE',  ( 0.1871740241439921500, 3.999999999999999100, 3.000649067277756400 ) ) ;
#209 = CARTESIAN_POINT ( 'NONE',  ( 2.433395855565101400, 2.134456841123514100, 3.153260844220557900 ) ) ;
#210 = CARTESIAN_POINT ( 'NONE',  ( 0.0000000000000000000, 0.0000000000000000000, 0.2000000000000000100 ) ) ;
#211 = CARTESIAN_POINT ( 'NONE',  ( 1.310284939854546900, 0.1641800137934396600, 3.715896496795328300 ) ) ;
#212 = CARTESIAN_POINT ( 'NONE',  ( 1.310284939854546900, 2.791215783566872100, 3.190487224589724700 ) ) ;
#213 = CARTESIAN_POINT ( 'NONE',  ( 2.433395855565101400, -2.134468507304384800, 3.153254212755271600 ) ) ;
#214 = CARTESIAN_POINT ( 'NONE',  ( 1.310284939854546900, -1.149333982366312000, 3.634962030776313300 ) ) ;
#215 = CARTESIAN_POINT ( 'NONE',  ( 2.433395855565101400, -2.791223561020778300, 3.034101132727553100 ) ) ;
#216 = CARTESIAN_POINT ( 'NONE',  ( 3.182136466038803800, -4.104733668453565800, 3.001722140203686000 ) ) ;
#217 = CARTESIAN_POINT ( 'NONE',  ( 3.182136466038804300, 1.149318427458476700, 3.107245117597015900 ) ) ;
#218 = CARTESIAN_POINT ( 'NONE',  ( 2.433395855565101400, 4.104733668453587100, 3.006944897057642700 ) ) ;
#219 = CARTESIAN_POINT ( 'NONE',  ( 3.182136466038803800, -2.791223561020778300, 2.920978368002966600 ) ) ;
#220 = CARTESIAN_POINT ( 'NONE',  ( 3.182136466038803800, -2.134468507304384800, 2.986192463874110200 ) ) ;
#221 = CARTESIAN_POINT ( 'NONE',  ( 3.930877076512507600, -2.134468507304384800, 2.896128436597588300 ) ) ;
#222 = CARTESIAN_POINT ( 'NONE',  ( 1.310284939854546900, 2.134456841123514100, 3.366395553809183200 ) ) ;
#223 = CARTESIAN_POINT ( 'NONE',  ( 3.930877076512507600, 0.1641800137934396600, 3.018083244790181800 ) ) ;
#224 = CARTESIAN_POINT ( 'NONE',  ( 3.182136466038804300, 2.791215783566872100, 2.920968690313417300 ) ) ;
#225 = CARTESIAN_POINT ( 'NONE',  ( 2.433395855565101400, -0.1641994574282392700, 3.376987349679248000 ) ) ;
#226 = CARTESIAN_POINT ( 'NONE',  ( 3.182136466038803800, 4.104733668453587100, 3.001758126037509000 ) ) ;
#227 = CARTESIAN_POINT ( 'NONE',  ( 3.930877076512507600, 2.791215783566872100, 2.863262488295960300 ) ) ;
#228 = CARTESIAN_POINT ( 'NONE',  ( 3.930877076512507600, 3.447974726010229600, 2.900197685080933200 ) ) ;
#229 = CARTESIAN_POINT ( 'NONE',  ( 4.679617686986208700, -1.149333982366312000, 2.943440079446721000 ) ) ;
#230 = CARTESIAN_POINT ( 'NONE',  ( 1.310284939854546900, 1.149318427458476700, 3.634964324153939300 ) ) ;
#231 = CARTESIAN_POINT ( 'NONE',  ( -5.000000000000000000, 0.0000000000000000000, 12.50000000000000000 ) ) ;
#232 = DIRECTION ( 'NONE',  ( -1.000000000000000000, 0.0000000000000000000, -0.0000000000000000000 ) ) ;
#233 = DIRECTION ( 'NONE',  ( 0.0000000000000000000, 0.0000000000000000000, -1.000000000000000000 ) ) ;
#234 = DIRECTION ( 'NONE',  ( 0.0000000000000000000, -1.000000000000000000, 0.0000000000000000000 ) ) ;
#235 = DIRECTION ( 'NONE',  ( 0.7071067811865487900, 0.0000000000000000000, 0.7071067811865463500 ) ) ;
#236 = CARTESIAN_POINT ( 'NONE',  ( 0.0000000000000000000, 0.0000000000000000000, 3.000000000000000000 ) ) ;
#237 = DIRECTION ( 'NONE',  ( 1.000000000000000000, 0.0000000000000000000, 0.0000000000000000000 ) ) ;
#238 = CARTESIAN_POINT ( 'NONE',  ( 5.500000000000000900, 0.0000000000000000000, 3.000000000000000000 ) ) ;
#239 = CARTESIAN_POINT ( 'NONE',  ( 4.387862045841156800, -1.355252715606880500E-015, 3.000000000000000000 ) ) ;
#240 = CARTESIAN_POINT ( 'NONE',  ( 0.0000000000000000000, 0.0000000000000000000, 34.69999999999999600 ) ) ;
#241 = CARTESIAN_POINT ( 'NONE',  ( 6.000000000000000900, 7.347880794884120700E-016, 35.50000000000000700 ) ) ;
#242 = DIRECTION ( 'NONE',  ( -0.0000000000000000000, -0.0000000000000000000, -1.000000000000000000 ) ) ;
#243 = DIRECTION ( 'NONE',  ( 1.000000000000000000, 0.0000000000000000000, 0.0000000000000000000 ) ) ;
#244 = DIRECTION ( 'NONE',  ( -0.0000000000000000000, -0.0000000000000000000, -1.000000000000000000 ) ) ;
#245 = DIRECTION ( 'NONE',  ( 1.000000000000000000, 0.0000000000000000000, 0.0000000000000000000 ) ) ;
#246 = DIRECTION ( 'NONE',  ( 0.0000000000000000000, 0.0000000000000000000, 1.000000000000000000 ) ) ;
#247 = PLANE ( 'NONE',  #853 ) ;
#248 = CARTESIAN_POINT ( 'NONE',  ( -2.309401076758503400, -4.000000000000000000, 3.000000000000000000 ) ) ;
#249 = CARTESIAN_POINT ( 'NONE',  ( -4.387862045841155000, 9.757819552369539900E-016, 3.000000000000000000 ) ) ;
#250 = CARTESIAN_POINT ( 'NONE',  ( 4.618802153517006700, -1.066681451702400600E-015, 3.000000000000000000 ) ) ;
#251 = DIRECTION ( 'NONE',  ( 0.8660254037844387100, -0.5000000000000001100, 0.0000000000000000000 ) ) ;
#252 = CARTESIAN_POINT ( 'NONE',  ( 4.587862045841156100, -1.355252715606880500E-015, 3.000000000000000000 ) ) ;
#253 = DIRECTION ( 'NONE',  ( 1.000000000000000000, 0.0000000000000000000, 0.0000000000000000000 ) ) ;
#254 = PLANE ( 'NONE',  #900 ) ;
#255 = DIRECTION ( 'NONE',  ( 0.0000000000000000000, 0.0000000000000000000, 1.000000000000000000 ) ) ;
#256 = DIRECTION ( 'NONE',  ( 0.0000000000000000000, 0.0000000000000000000, -1.000000000000000000 ) ) ;
#257 = PLANE ( 'NONE',  #924 ) ;
#258 = DIRECTION ( 'NONE',  ( 0.0000000000000000000, 0.0000000000000000000, 1.000000000000000000 ) ) ;
#259 = DIRECTION ( 'NONE',  ( 0.5000000000000000000, 0.8660254037844386000, 0.0000000000000000000 ) ) ;
#260 = CARTESIAN_POINT ( 'NONE',  ( 0.0000000000000000000, 0.0000000000000000000, 13.29999999999999500 ) ) ;
#261 = DIRECTION ( 'NONE',  ( 0.0000000000000000000, 0.0000000000000000000, 1.000000000000000000 ) ) ;
#262 = DIRECTION ( 'NONE',  ( 0.4999999999999996100, -0.8660254037844388200, 0.0000000000000000000 ) ) ;
#263 = DIRECTION ( 'NONE',  ( 0.0000000000000000000, 0.0000000000000000000, 1.000000000000000000 ) ) ;
#264 = CARTESIAN_POINT ( 'NONE',  ( -2.193931022920578000, 3.799999999999998900, 3.000000000000000000 ) ) ;
#265 = DIRECTION ( 'NONE',  ( -0.0000000000000000000, -0.0000000000000000000, -1.000000000000000000 ) ) ;
#266 = CARTESIAN_POINT ( 'NONE',  ( 0.0000000000000000000, 0.0000000000000000000, 12.50000000000000000 ) ) ;
#267 = DIRECTION ( 'NONE',  ( 0.0000000000000000000, 0.0000000000000000000, 1.000000000000000000 ) ) ;
#268 = DIRECTION ( 'NONE',  ( -1.000000000000000000, 0.0000000000000000000, 0.0000000000000000000 ) ) ;
#269 = DIRECTION ( 'NONE',  ( 1.000000000000000000, 0.0000000000000000000, 0.0000000000000000000 ) ) ;
#270 = DIRECTION ( 'NONE',  ( 1.000000000000000000, 0.0000000000000000000, 0.0000000000000000000 ) ) ;
#271 = CARTESIAN_POINT ( 'NONE',  ( 0.0000000000000000000, 0.0000000000000000000, 0.2000000000000000100 ) ) ;
#272 = DIRECTION ( 'NONE',  ( 0.0000000000000000000, 0.0000000000000000000, -1.000000000000000000 ) ) ;
#273 = DIRECTION ( 'NONE',  ( -0.8660254037844388200, -0.4999999999999996100, 0.0000000000000000000 ) ) ;
#274 = CARTESIAN_POINT ( 'NONE',  ( 6.000000000000000900, 0.0000000000000000000, 13.29999999999999500 ) ) ;
#275 = CARTESIAN_POINT ( 'NONE',  ( 0.0000000000000000000, 0.0000000000000000000, 35.50000000000000700 ) ) ;
#276 = DIRECTION ( 'NONE',  ( 0.0000000000000000000, 0.0000000000000000000, -1.000000000000000000 ) ) ;
#277 = CARTESIAN_POINT ( 'NONE',  ( 4.561065866417138200, -0.1000021826814758700, 2.999492512462543100 ) ) ;
#278 = CARTESIAN_POINT ( 'NONE',  ( 0.0000000000000000000, 0.0000000000000000000, 5.500000000000000000 ) ) ;
#279 = CARTESIAN_POINT ( 'NONE',  ( -6.000000000000000900, 7.347880794884120700E-016, 13.29999999999999500 ) ) ;
#280 = CARTESIAN_POINT ( 'NONE',  ( 3.646928635408588400, -1.683334311894495700, 3.000131074386672500 ) ) ;
#281 = DIRECTION ( 'NONE',  ( -0.7071067811865487900, 8.659560562354948900E-017, 0.7071067811865463500 ) ) ;
#282 = DIRECTION ( 'NONE',  ( 1.000000000000000000, 0.0000000000000000000, 0.0000000000000000000 ) ) ;
#283 = CARTESIAN_POINT ( 'NONE',  ( -5.500000000000000900, 6.735557395310443000E-016, 3.000000000000000000 ) ) ;
#284 = DIRECTION ( 'NONE',  ( 1.000000000000000000, 0.0000000000000000000, 0.0000000000000000000 ) ) ;
#285 = CARTESIAN_POINT ( 'NONE',  ( 0.0000000000000000000, 0.0000000000000000000, 0.0000000000000000000 ) ) ;
#286 = CARTESIAN_POINT ( 'NONE',  ( 4.578689797916152500, 0.06947708043590428200, 2.999144868883001400 ) ) ;
#287 = DIRECTION ( 'NONE',  ( 0.0000000000000000000, 0.0000000000000000000, 1.000000000000000000 ) ) ;
#288 = CARTESIAN_POINT ( 'NONE',  ( 4.561067126598043600, 0.09999999999999864600, 3.000000000000000000 ) ) ;
#289 = DIRECTION ( 'NONE',  ( 0.0000000000000000000, 0.0000000000000000000, 1.000000000000000000 ) ) ;
#290 = DIRECTION ( 'NONE',  ( 0.0000000000000000000, 0.0000000000000000000, 1.000000000000000000 ) ) ;
#291 = DIRECTION ( 'NONE',  ( 1.224646799147353200E-016, 1.000000000000000000, -0.0000000000000000000 ) ) ;
#292 = CARTESIAN_POINT ( 'NONE',  ( 2.367136302832799600, -3.899999655051258300, 2.999552129378146900 ) ) ;
#293 = CARTESIAN_POINT ( 'NONE',  ( 4.587862045841160500, 0.03475310903021372500, 2.999063107284007900 ) ) ;
#294 = DIRECTION ( 'NONE',  ( 1.000000000000000000, 0.0000000000000000000, 0.0000000000000000000 ) ) ;
#295 = CARTESIAN_POINT ( 'NONE',  ( 4.587862045841160500, -1.016439536705158400E-015, 2.999062492561043400 ) ) ;
#296 = CARTESIAN_POINT ( 'NONE',  ( 0.0000000000000000000, 0.0000000000000000000, 12.50000000000000000 ) ) ;
#297 = DIRECTION ( 'NONE',  ( 0.0000000000000000000, 0.0000000000000000000, 1.000000000000000000 ) ) ;
#298 = CARTESIAN_POINT ( 'NONE',  ( 0.0000000000000000000, 0.0000000000000000000, 3.000000000000000000 ) ) ;
#299 = DIRECTION ( 'NONE',  ( -0.0000000000000000000, -0.0000000000000000000, -1.000000000000000000 ) ) ;
#300 = DIRECTION ( 'NONE',  ( 1.000000000000000000, 0.0000000000000000000, 0.0000000000000000000 ) ) ;
#301 = DIRECTION ( 'NONE',  ( -0.0000000000000000000, -0.0000000000000000000, 1.000000000000000000 ) ) ;
#302 = CARTESIAN_POINT ( 'NONE',  ( 2.193931022920578800, -4.000000000000000000, 0.2000000000000000900 ) ) ;
#303 = CARTESIAN_POINT ( 'NONE',  ( 3.829756078855957000, -1.366667890825725000, 2.999597715743185700 ) ) ;
#304 = DIRECTION ( 'NONE',  ( -0.0000000000000000000, -0.0000000000000000000, -1.000000000000000000 ) ) ;
#305 = CARTESIAN_POINT ( 'NONE',  ( 4.378238444058769800, -0.4166685672389046100, 3.003124521675961700 ) ) ;
#306 = DIRECTION ( 'NONE',  ( -0.0000000000000000000, -0.0000000000000000000, 1.000000000000000000 ) ) ;
#307 = CARTESIAN_POINT ( 'NONE',  ( 4.195410974446662800, -0.7333350336263293500, 2.999811060209163200 ) ) ;
#308 = DIRECTION ( 'NONE',  ( 1.000000000000000000, 0.0000000000000000000, 0.0000000000000000000 ) ) ;
#309 = CARTESIAN_POINT ( 'NONE',  ( 3.098446295531944700, -2.633333591615104400, 3.000327649826541400 ) ) ;
#310 = CARTESIAN_POINT ( 'NONE',  ( 4.561066498855503000, 0.1000010872662108600, 2.999496288371204000 ) ) ;
#311 = CARTESIAN_POINT ( 'NONE',  ( 0.0000000000000000000, 0.0000000000000000000, 5.500000000000000000 ) ) ;
#312 = DIRECTION ( 'NONE',  ( 1.000000000000000000, 0.0000000000000000000, 0.0000000000000000000 ) ) ;
#313 = CARTESIAN_POINT ( 'NONE',  ( 5.000000000000000000, 6.123233995736766300E-016, 12.50000000000000000 ) ) ;
#314 = DIRECTION ( 'NONE',  ( -1.000000000000000000, 1.224646799147353200E-016, 0.0000000000000000000 ) ) ;
#315 = DIRECTION ( 'NONE',  ( 0.0000000000000000000, 0.0000000000000000000, 1.000000000000000000 ) ) ;
#316 = CARTESIAN_POINT ( 'NONE',  ( 2.732791413795236500, -3.266666424818667600, 3.002153639192647500 ) ) ;
#317 = DIRECTION ( 'NONE',  ( 1.000000000000000000, 0.0000000000000000000, 0.0000000000000000000 ) ) ;
#318 = DIRECTION ( 'NONE',  ( -0.0000000000000000000, -0.0000000000000000000, 1.000000000000000000 ) ) ;
#319 = CARTESIAN_POINT ( 'NONE',  ( 0.0000000000000000000, 0.0000000000000000000, 13.29999999999999500 ) ) ;
#320 = DIRECTION ( 'NONE',  ( 1.000000000000000000, 0.0000000000000000000, 0.0000000000000000000 ) ) ;
#321 = DIRECTION ( 'NONE',  ( 1.000000000000000000, 0.0000000000000000000, 0.0000000000000000000 ) ) ;
#322 = DIRECTION ( 'NONE',  ( 0.0000000000000000000, 0.0000000000000000000, -1.000000000000000000 ) ) ;
#323 = DIRECTION ( 'NONE',  ( -1.000000000000000000, 0.0000000000000000000, 0.0000000000000000000 ) ) ;
#324 = DIRECTION ( 'NONE',  ( -0.0000000000000000000, -0.0000000000000000000, -1.000000000000000000 ) ) ;
#325 = CARTESIAN_POINT ( 'NONE',  ( 0.0000000000000000000, 0.0000000000000000000, 0.2000000000000000100 ) ) ;
#326 = DIRECTION ( 'NONE',  ( 0.0000000000000000000, -1.000000000000000000, 0.0000000000000000000 ) ) ;
#327 = DIRECTION ( 'NONE',  ( -0.0000000000000000000, -0.0000000000000000000, 1.000000000000000000 ) ) ;
#328 = CARTESIAN_POINT ( 'NONE',  ( 0.0000000000000000000, 0.0000000000000000000, 0.0000000000000000000 ) ) ;
#329 = CARTESIAN_POINT ( 'NONE',  ( -6.000000000000000900, 0.0000000000000000000, 35.50000000000000700 ) ) ;
#330 = DIRECTION ( 'NONE',  ( 0.7071067811865441300, 8.659560562354890900E-017, -0.7071067811865510100 ) ) ;
#331 = CARTESIAN_POINT ( 'NONE',  ( 2.367136103677466500, -3.899999999999999900, 3.000000000000000000 ) ) ;
#332 = CARTESIAN_POINT ( 'NONE',  ( -5.200000000000000200, 0.0000000000000000000, 35.50000000000000700 ) ) ;
#333 = CARTESIAN_POINT ( 'NONE',  ( 2.367136302832799600, -3.899999655051258300, 2.999552129378146900 ) ) ;
#334 = CARTESIAN_POINT ( 'NONE',  ( 8.500000000000000000, 1.040949779275250100E-015, 5.500000000000000000 ) ) ;
#335 = CARTESIAN_POINT ( 'NONE',  ( 0.0000000000000000000, 0.0000000000000000000, 0.0000000000000000000 ) ) ;
#336 = CARTESIAN_POINT ( 'NONE',  ( 4.387862045841156800, -1.355252715606880500E-015, 0.2000000000000000900 ) ) ;
#337 = DIRECTION ( 'NONE',  ( -0.7071067811865441300, 0.0000000000000000000, -0.7071067811865510100 ) ) ;
#338 = CARTESIAN_POINT ( 'NONE',  ( 4.818802153517004200, 0.0000000000000000000, 0.2000000000000000100 ) ) ;
#339 = DIRECTION ( 'NONE',  ( -0.0000000000000000000, -0.0000000000000000000, 1.000000000000000000 ) ) ;
#340 = DIRECTION ( 'NONE',  ( -0.0000000000000000000, -0.0000000000000000000, 1.000000000000000000 ) ) ;
#341 = CARTESIAN_POINT ( 'NONE',  ( 2.331868867025510500, -3.961085207625414800, 2.999301204959677700 ) ) ;
#342 = DIRECTION ( 'NONE',  ( -0.0000000000000000000, -0.0000000000000000000, -1.000000000000000000 ) ) ;
#343 = DIRECTION ( 'NONE',  ( 0.0000000000000000000, 0.0000000000000000000, 1.000000000000000000 ) ) ;
#344 = DIRECTION ( 'NONE',  ( -1.000000000000000000, 1.224646799147353500E-016, 0.0000000000000000000 ) ) ;
#345 = DIRECTION ( 'NONE',  ( -0.0000000000000000000, -0.0000000000000000000, -1.000000000000000000 ) ) ;
#346 = DIRECTION ( 'NONE',  ( -1.000000000000000000, 2.664535259100380800E-015, 0.0000000000000000000 ) ) ;
#347 = DIRECTION ( 'NONE',  ( 1.000000000000000000, 0.0000000000000000000, 0.0000000000000000000 ) ) ;
#348 = CARTESIAN_POINT ( 'NONE',  ( 4.387862045841156800, -1.355252715606880500E-015, 0.2000000000000000900 ) ) ;
#349 = CARTESIAN_POINT ( 'NONE',  ( -4.818802153517004200, 5.901330633028971300E-016, 0.2000000000000000100 ) ) ;
#350 = CARTESIAN_POINT ( 'NONE',  ( 1.439121143005794600, 3.999999999999999100, 3.000568974484882900 ) ) ;
#351 = CARTESIAN_POINT ( 'NONE',  ( 0.0000000000000000000, 0.0000000000000000000, 12.50000000000000000 ) ) ;
#352 = CARTESIAN_POINT ( 'NONE',  ( 5.200000000000000200, 6.368163355566236400E-016, 35.50000000000000700 ) ) ;
#353 = DIRECTION ( 'NONE',  ( 0.0000000000000000000, 0.0000000000000000000, -1.000000000000000000 ) ) ;
#354 = DIRECTION ( 'NONE',  ( 0.0000000000000000000, 0.0000000000000000000, 1.000000000000000000 ) ) ;
#355 = DIRECTION ( 'NONE',  ( 1.224646799147353200E-016, 1.000000000000000000, -0.0000000000000000000 ) ) ;
#356 = DIRECTION ( 'NONE',  ( -0.0000000000000000000, -0.0000000000000000000, 1.000000000000000000 ) ) ;
#357 = DIRECTION ( 'NONE',  ( -1.000000000000000000, 1.332267629550190200E-014, 0.0000000000000000000 ) ) ;
#358 = CARTESIAN_POINT ( 'NONE',  ( -2.367136103677465200, 3.899999999999999000, 3.000000000000000000 ) ) ;
#359 = CARTESIAN_POINT ( 'NONE',  ( -4.561066503099160000, -0.1000010799161922500, 2.999498817021389700 ) ) ;
#360 = CARTESIAN_POINT ( 'NONE',  ( 0.0000000000000000000, 0.0000000000000000000, 3.000000000000000000 ) ) ;
#361 = CARTESIAN_POINT ( 'NONE',  ( -8.500000000000000000, 0.0000000000000000000, 5.500000000000000000 ) ) ;
#362 = CARTESIAN_POINT ( 'NONE',  ( -3.646928495664842000, 1.683334553937757100, 3.000135509829120000 ) ) ;
#363 = DIRECTION ( 'NONE',  ( 0.0000000000000000000, 0.0000000000000000000, 1.000000000000000000 ) ) ;
#364 = CARTESIAN_POINT ( 'NONE',  ( -2.193931022920578400, -4.000000000000000000, 3.000000000000000000 ) ) ;
#365 = DIRECTION ( 'NONE',  ( -0.5000000000000001100, -0.8660254037844387100, 0.0000000000000000000 ) ) ;
#366 = CARTESIAN_POINT ( 'NONE',  ( 0.0000000000000000000, 0.0000000000000000000, 0.0000000000000000000 ) ) ;
#367 = DIRECTION ( 'NONE',  ( 0.0000000000000000000, 0.0000000000000000000, 1.000000000000000000 ) ) ;
#368 = CARTESIAN_POINT ( 'NONE',  ( -4.195410918208715100, 0.7333351310333088300, 2.999792724506699300 ) ) ;
#369 = DIRECTION ( 'NONE',  ( 1.000000000000000000, 0.0000000000000000000, 0.0000000000000000000 ) ) ;
#370 = CARTESIAN_POINT ( 'NONE',  ( 1.690724397199844500, 3.999999999999999100, 3.000937087384886400 ) ) ;
#371 = CARTESIAN_POINT ( 'NONE',  ( -4.596334164533619300, 0.03891747677501815300, 2.998793068567029000 ) ) ;
#372 = DIRECTION ( 'NONE',  ( -0.0000000000000000000, -0.0000000000000000000, -1.000000000000000000 ) ) ;
#373 = DIRECTION ( 'NONE',  ( -0.0000000000000000000, -0.0000000000000000000, 1.000000000000000000 ) ) ;
#374 = DIRECTION ( 'NONE',  ( 1.000000000000000000, 0.0000000000000000000, 0.0000000000000000000 ) ) ;
#375 = CARTESIAN_POINT ( 'NONE',  ( -2.264466629177504400, -4.000000063016281100, 2.999271641156596100 ) ) ;
#376 = CARTESIAN_POINT ( 'NONE',  ( -3.098446072007203800, 2.633333978771305300, 3.000325598766223800 ) ) ;
#377 = CARTESIAN_POINT ( 'NONE',  ( 2.264466579461962100, -4.000000041413771100, 2.999283159633458200 ) ) ;
#378 = DIRECTION ( 'NONE',  ( -0.0000000000000000000, -0.0000000000000000000, 1.000000000000000000 ) ) ;
#379 = CARTESIAN_POINT ( 'NONE',  ( -3.829755966786546000, 1.366668084935632100, 2.999601781613203700 ) ) ;
#380 = CARTESIAN_POINT ( 'NONE',  ( -2.367136134994080300, 3.899999945757993000, 2.999552657532591900 ) ) ;
#381 = CARTESIAN_POINT ( 'NONE',  ( -4.596334321670513000, -0.03891630589602235900, 2.998796797356741100 ) ) ;
#382 = CARTESIAN_POINT ( 'NONE',  ( -2.193930933581012000, -3.999999999999961800, 2.999555675495076300 ) ) ;
#383 = CARTESIAN_POINT ( 'NONE',  ( 0.0000000000000000000, 0.0000000000000000000, 35.50000000000000700 ) ) ;
#384 = CARTESIAN_POINT ( 'NONE',  ( 4.618802153517006700, -1.066681451702400600E-015, 0.2000000000000000900 ) ) ;
#385 = CARTESIAN_POINT ( 'NONE',  ( 0.0000000000000000000, 0.0000000000000000000, 5.500000000000000000 ) ) ;
#386 = CARTESIAN_POINT ( 'NONE',  ( -4.561065866013328800, 0.1000021833808818200, 2.999488647489831500 ) ) ;
#387 = DIRECTION ( 'NONE',  ( 0.5000000000000001100, 0.8660254037844387100, 0.0000000000000000000 ) ) ;
#388 = CARTESIAN_POINT ( 'NONE',  ( -4.378238417337480600, 0.4166686135215332800, 3.003094357224721300 ) ) ;
#389 = CARTESIAN_POINT ( 'NONE',  ( -4.618802153517005000, 9.068368737501600700E-016, 0.2000000000000000900 ) ) ;
#390 = CARTESIAN_POINT ( 'NONE',  ( -2.367136513090422100, -3.899999290874282200, 2.999544694916294500 ) ) ;
#391 = CARTESIAN_POINT ( 'NONE',  ( 2.193931022920578800, -3.799999999999999800, 0.2000000000000000900 ) ) ;
#392 = DIRECTION ( 'NONE',  ( 0.0000000000000000000, 0.0000000000000000000, -1.000000000000000000 ) ) ;
#393 = CARTESIAN_POINT ( 'NONE',  ( -4.561067126598041800, -0.09999999999999877000, 3.000000000000000000 ) ) ;
#394 = CARTESIAN_POINT ( 'NONE',  ( -2.309401076758503400, -4.000000000000000000, 0.2000000000000000900 ) ) ;
#395 = CARTESIAN_POINT ( 'NONE',  ( 2.193930905494200400, -3.999999999999984500, 2.999565609516131400 ) ) ;
#396 = CARTESIAN_POINT ( 'NONE',  ( -2.732791135307224300, 3.266666907174045100, 3.002153054889050000 ) ) ;
#397 = DIRECTION ( 'NONE',  ( 1.000000000000000000, 0.0000000000000000000, 0.0000000000000000000 ) ) ;
#398 = DIRECTION ( 'NONE',  ( -0.0000000000000000000, -0.0000000000000000000, -1.000000000000000000 ) ) ;
#399 = DIRECTION ( 'NONE',  ( -1.000000000000000000, 0.0000000000000000000, 0.0000000000000000000 ) ) ;
#400 = CARTESIAN_POINT ( 'NONE',  ( 2.367136103677466500, 3.899999999999999000, 0.2000000000000000900 ) ) ;
#401 = CARTESIAN_POINT ( 'NONE',  ( -4.561065866013328800, 0.1000021833808818200, 2.999488647489831500 ) ) ;
#402 = CARTESIAN_POINT ( 'NONE',  ( -2.331868813976187800, -3.961085315178244100, 2.999290984839984500 ) ) ;
#403 = DIRECTION ( 'NONE',  ( 1.000000000000000000, 0.0000000000000000000, 0.0000000000000000000 ) ) ;
#404 = DIRECTION ( 'NONE',  ( -0.0000000000000000000, -0.0000000000000000000, 1.000000000000000000 ) ) ;
#405 = CARTESIAN_POINT ( 'NONE',  ( 4.561067126598043600, -0.1000000000000010000, 0.2000000000000000900 ) ) ;
#406 = CARTESIAN_POINT ( 'NONE',  ( -3.098446306122838700, -2.633333573271128700, 3.000327094116943500 ) ) ;
#407 = CARTESIAN_POINT ( 'NONE',  ( -3.646928646791977300, -1.683334292177876400, 3.000128742617703000 ) ) ;
#408 = CARTESIAN_POINT ( 'NONE',  ( -3.829756091237714900, -1.366667869379893000, 2.999595130439734800 ) ) ;
#409 = DIRECTION ( 'NONE',  ( 1.000000000000000000, 0.0000000000000000000, 0.0000000000000000000 ) ) ;
#410 = DIRECTION ( 'NONE',  ( 0.0000000000000000000, 0.0000000000000000000, -1.000000000000000000 ) ) ;
#411 = CARTESIAN_POINT ( 'NONE',  ( -2.193931022920578000, 3.799999999999998900, 0.2000000000000000900 ) ) ;
#412 = DIRECTION ( 'NONE',  ( -1.000000000000000000, -4.336808689942015400E-015, 0.0000000000000000000 ) ) ;
#413 = CARTESIAN_POINT ( 'NONE',  ( -2.367136134994080300, 3.899999945757993000, 2.999552657532591900 ) ) ;
#414 = CARTESIAN_POINT ( 'NONE',  ( -4.378238451464941500, -0.4166685544110284600, 3.003137933489065300 ) ) ;
#415 = CARTESIAN_POINT ( 'NONE',  ( -4.561066503099160000, -0.1000010799161922500, 2.999498817021389700 ) ) ;
#416 = CARTESIAN_POINT ( 'NONE',  ( 2.193931022920579300, 3.999999999999999100, 3.000000000000000000 ) ) ;
#417 = CARTESIAN_POINT ( 'NONE',  ( 2.193931022920579300, 3.799999999999998900, 0.2000000000000000900 ) ) ;
#418 = DIRECTION ( 'NONE',  ( -0.0000000000000000000, -0.0000000000000000000, 1.000000000000000000 ) ) ;
#419 = CARTESIAN_POINT ( 'NONE',  ( 2.193930964254087200, 3.999999999999982700, 2.999564096860207800 ) ) ;
#420 = CARTESIAN_POINT ( 'NONE',  ( 0.0000000000000000000, 0.0000000000000000000, 0.2000000000000000100 ) ) ;
#421 = DIRECTION ( 'NONE',  ( -1.000000000000000000, 0.0000000000000000000, 0.0000000000000000000 ) ) ;
#422 = DIRECTION ( 'NONE',  ( 0.0000000000000000000, 0.0000000000000000000, -1.000000000000000000 ) ) ;
#423 = CARTESIAN_POINT ( 'NONE',  ( -2.264466462127119800, 4.000000040264615600, 2.999283749811064500 ) ) ;
#424 = CARTESIAN_POINT ( 'NONE',  ( -4.195410986905594400, -0.7333350120468283800, 2.999824127418685200 ) ) ;
#425 = DIRECTION ( 'NONE',  ( -1.000000000000000000, 2.168404344971007700E-015, 0.0000000000000000000 ) ) ;
#426 = CARTESIAN_POINT ( 'NONE',  ( 4.587862045841160500, -1.016439536705158400E-015, 2.999062492561043400 ) ) ;
#427 = CARTESIAN_POINT ( 'NONE',  ( -2.331868386667705000, 3.961085566085329500, 2.999301845524218600 ) ) ;
#428 = CARTESIAN_POINT ( 'NONE',  ( 4.587862045841160500, -0.03479496340238687900, 2.999061877097744900 ) ) ;
#429 = CARTESIAN_POINT ( 'NONE',  ( -2.193930908752363100, 3.999999999999982700, 2.999566065618614300 ) ) ;
#430 = CARTESIAN_POINT ( 'NONE',  ( -1.942332105315335500, 3.999999999999999100, 3.000573077120808100 ) ) ;
#431 = CARTESIAN_POINT ( 'NONE',  ( 4.578710618760046800, -0.06944146454206616400, 2.999141975683048400 ) ) ;
#432 = CARTESIAN_POINT ( 'NONE',  ( 2.367136501575279900, 3.899999310819187900, 2.999554612149190300 ) ) ;
#433 = CARTESIAN_POINT ( 'NONE',  ( -6.000000000000000900, 0.0000000000000000000, 13.29999999999999500 ) ) ;
#434 = CARTESIAN_POINT ( 'NONE',  ( -2.309401076758502500, 3.999999999999999100, 0.2000000000000000900 ) ) ;
#435 = CARTESIAN_POINT ( 'NONE',  ( -2.193931022920578000, 3.999999999999999100, 0.2000000000000000900 ) ) ;
#436 = CARTESIAN_POINT ( 'NONE',  ( -2.732791421308491000, -3.266666411805322100, 3.002175079170802200 ) ) ;
#437 = DIRECTION ( 'NONE',  ( -0.0000000000000000000, -0.0000000000000000000, 1.000000000000000000 ) ) ;
#438 = CARTESIAN_POINT ( 'NONE',  ( 4.561065866417138200, -0.1000021826814758700, 2.999492512462543100 ) ) ;
#439 = CARTESIAN_POINT ( 'NONE',  ( 2.264466678807333100, 4.000000041380829400, 2.999282493576342000 ) ) ;
#440 = CARTESIAN_POINT ( 'NONE',  ( -2.193930908752363100, 3.999999999999982700, 2.999566065618614300 ) ) ;
#441 = DIRECTION ( 'NONE',  ( -0.0000000000000000000, -0.0000000000000000000, 1.000000000000000000 ) ) ;
#442 = DIRECTION ( 'NONE',  ( 0.0000000000000000000, 0.0000000000000000000, 1.000000000000000000 ) ) ;
#443 = DIRECTION ( 'NONE',  ( 0.4999999999999996100, -0.8660254037844388200, 0.0000000000000000000 ) ) ;
#444 = DIRECTION ( 'NONE',  ( -1.000000000000000000, 0.0000000000000000000, 0.0000000000000000000 ) ) ;
#445 = CARTESIAN_POINT ( 'NONE',  ( 0.0000000000000000000, 0.0000000000000000000, 5.500000000000000000 ) ) ;
#446 = CARTESIAN_POINT ( 'NONE',  ( 2.331868803368727100, 3.961085317305942600, 2.999302547732194000 ) ) ;
#447 = DIRECTION ( 'NONE',  ( 0.0000000000000000000, 0.0000000000000000000, -1.000000000000000000 ) ) ;
#448 = DIRECTION ( 'NONE',  ( 0.0000000000000000000, 0.0000000000000000000, 1.000000000000000000 ) ) ;
#449 = DIRECTION ( 'NONE',  ( 1.000000000000000000, 0.0000000000000000000, 0.0000000000000000000 ) ) ;
#450 = CARTESIAN_POINT ( 'NONE',  ( -2.367136513090422100, -3.899999290874282200, 2.999544694916294500 ) ) ;
#451 = CARTESIAN_POINT ( 'NONE',  ( 5.500000000000000900, 0.0000000000000000000, 0.0000000000000000000 ) ) ;
#452 = ADVANCED_FACE ( 'NONE', ( #713, #711 ), #38, .F. ) ;
#453 = ADVANCED_FACE ( 'NONE', ( #725 ), #726, .T. ) ;
#454 = ADVANCED_FACE ( 'NONE', ( #727 ), #720, .T. ) ;
#455 = ADVANCED_FACE ( 'NONE', ( #716 ), #731, .F. ) ;
#456 = ADVANCED_FACE ( 'NONE', ( #721 ), #714, .T. ) ;
#457 = ADVANCED_FACE ( 'NONE', ( #718, #715 ), #29, .T. ) ;
#458 = ADVANCED_FACE ( 'NONE', ( #723 ), #13, .F. ) ;
#459 = ADVANCED_FACE ( 'NONE', ( #728 ), #719, .T. ) ;
#460 = ADVANCED_FACE ( 'NONE', ( #724 ), #735, .T. ) ;
#461 = ADVANCED_FACE ( 'NONE', ( #729, #730 ), #15, .F. ) ;
#462 = ADVANCED_FACE ( 'NONE', ( #717 ), #746, .T. ) ;
#463 = ADVANCED_FACE ( 'NONE', ( #744 ), #24, .T. ) ;
#464 = ADVANCED_FACE ( 'NONE', ( #742 ), #736, .T. ) ;
#465 = ADVANCED_FACE ( 'NONE', ( #733 ), #43, .F. ) ;
#466 = ADVANCED_FACE ( 'NONE', ( #738 ), #741, .F. ) ;
#467 = ADVANCED_FACE ( 'NONE', ( #732 ), #745, .T. ) ;
#468 = ADVANCED_FACE ( 'NONE', ( #747 ), #743, .F. ) ;
#469 = ADVANCED_FACE ( 'NONE', ( #737 ), #516, .F. ) ;
#470 = ADVANCED_FACE ( 'NONE', ( #740 ), #69, .F. ) ;
#471 = ADVANCED_FACE ( 'NONE', ( #739 ), #525, .T. ) ;
#472 = ADVANCED_FACE ( 'NONE', ( #537 ), #511, .T. ) ;
#473 = ADVANCED_FACE ( 'NONE', ( #734 ), #91, .F. ) ;
#474 = ADVANCED_FACE ( 'NONE', ( #512 ), #514, .T. ) ;
#475 = ADVANCED_FACE ( 'NONE', ( #538 ), #1, .F. ) ;
#476 = ADVANCED_FACE ( 'NONE', ( #526 ), #534, .T. ) ;
#477 = ADVANCED_FACE ( 'NONE', ( #545 ), #513, .T. ) ;
#478 = ADVANCED_FACE ( 'NONE', ( #519 ), #532, .F. ) ;
#479 = ADVANCED_FACE ( 'NONE', ( #515 ), #535, .F. ) ;
#480 = ADVANCED_FACE ( 'NONE', ( #536, #524 ), #247, .T. ) ;
#481 = ADVANCED_FACE ( 'NONE', ( #533 ), #254, .F. ) ;
#482 = ADVANCED_FACE ( 'NONE', ( #528 ), #544, .F. ) ;
#483 = ADVANCED_FACE ( 'NONE', ( #509 ), #530, .T. ) ;
#484 = ADVANCED_FACE ( 'NONE', ( #518 ), #257, .F. ) ;
#485 = PRODUCT_DEFINITION_SHAPE ( 'NONE', 'NONE',  #954 ) ;
#486 = DESIGN_CONTEXT ( 'detailed design', #1174, 'design' ) ;
#487 = CARTESIAN_POINT ( 'NONE',  ( 5.000000000000000000, 6.123233995736766300E-016, 12.50000000000000000 ) ) ;
#488 = CARTESIAN_POINT ( 'NONE',  ( 4.587862045841156100, -1.355252715606880500E-015, 0.2000000000000000900 ) ) ;
#489 = B_SPLINE_CURVE_WITH_KNOTS ( 'NONE', 3,
 ( #359, #381, #371, #386 ),
 .UNSPECIFIED., .F., .F.,
 ( 4, 4 ),
 ( 1.229272073262395500E-009, 0.0002086124054285194300 ),
 .UNSPECIFIED. ) ;
#490 = B_SPLINE_CURVE_WITH_KNOTS ( 'NONE', 3,
 ( #419, #439, #446, #432 ),
 .UNSPECIFIED., .F., .F.,
 ( 4, 4 ),
 ( 5.783377124652203500E-011, 0.0002086052978259716700 ),
 .UNSPECIFIED. ) ;
#491 = B_SPLINE_CURVE_WITH_KNOTS ( 'NONE', 5,
 ( #827, #884, #859, #832, #860, #864, #868, #887, #821, #891, #866, #870 ),
 .UNSPECIFIED., .F., .F.,
 ( 6, 3, 3, 6 ),
 ( 1.747733902046633100E-016, 0.001258016270880029600, 0.003129867797069008200, 0.004387861749747873000 ),
 .UNSPECIFIED. ) ;
#492 = B_SPLINE_CURVE_WITH_KNOTS ( 'NONE', 3,
 ( #413, #427, #423, #440 ),
 .UNSPECIFIED., .F., .F.,
 ( 4, 4 ),
 ( 6.174424407674537000E-011, 0.0002086046064453937200 ),
 .UNSPECIFIED. ) ;
#493 = B_SPLINE_CURVE_WITH_KNOTS ( 'NONE', 3,
 ( #310, #286, #293, #295 ),
 .UNSPECIFIED., .F., .F.,
 ( 4, 4 ),
 ( 1.237638716016542600E-009, 0.0001042440755871137400 ),
 .UNSPECIFIED. ) ;
#494 = B_SPLINE_CURVE_WITH_KNOTS ( 'NONE', 3,
 ( #333, #341, #377, #395 ),
 .UNSPECIFIED., .F., .F.,
 ( 4, 4 ),
 ( 3.926585306894466500E-010, 0.0002086052954788326400 ),
 .UNSPECIFIED. ) ;
#495 = UNCERTAINTY_MEASURE_WITH_UNIT (LENGTH_MEASURE( 1.000000000000000100E-005 ), #1156, 'distance_accuracy_value', 'NONE');
#496 = B_SPLINE_CURVE_WITH_KNOTS ( 'NONE', 3,
 ( #880, #910, #916, #912, #753, #755, #754, #756 ),
 .UNSPECIFIED., .F., .F.,
 ( 4, 2, 2, 4 ),
 ( 8.645238419929722300E-015, 0.002193929369815917300, 0.003290894054719553000, 0.004387858739623187000 ),
 .UNSPECIFIED. ) ;
#497 = B_SPLINE_CURVE_WITH_KNOTS ( 'NONE', 3,
 ( #426, #428, #431, #438 ),
 .UNSPECIFIED., .F., .F.,
 ( 4, 4 ),
 ( 0.0001042440755871137400, 0.0002086124567935795300 ),
 .UNSPECIFIED. ) ;
#498 = MANIFOLD_SOLID_BREP ( 'Chamfer1', #1054 ) ;
#499 = B_SPLINE_CURVE_WITH_KNOTS ( 'NONE', 3,
 ( #401, #388, #368, #379, #362, #376, #396, #380 ),
 .UNSPECIFIED., .F., .F.,
 ( 4, 2, 2, 4 ),
 ( 6.391826415162599900E-014, 0.001096964850035488100, 0.002193929700007058700, 0.004387859399950199700 ),
 .UNSPECIFIED. ) ;
#500 = B_SPLINE_CURVE_WITH_KNOTS ( 'NONE', 3,
 ( #277, #305, #307, #303, #280, #309, #316, #292 ),
 .UNSPECIFIED., .F., .F.,
 ( 4, 2, 2, 4 ),
 ( 6.353564232419429300E-014, 0.001096964682386403200, 0.002193929364709270900, 0.004387858729355005800 ),
 .UNSPECIFIED. ) ;
#501 = B_SPLINE_CURVE_WITH_KNOTS ( 'NONE', 3,
 ( #450, #436, #406, #407, #408, #424, #414, #415 ),
 .UNSPECIFIED., .F., .F.,
 ( 4, 2, 2, 4 ),
 ( 9.121083534677521200E-015, 0.002193929366713545200, 0.003290894050065757000, 0.004387858733417970100 ),
 .UNSPECIFIED. ) ;
#502 = B_SPLINE_CURVE_WITH_KNOTS ( 'NONE', 5,
 ( #429, #430, #52, #54, #80, #105, #208, #170, #350, #370, #862, #844 ),
 .UNSPECIFIED., .F., .F.,
 ( 6, 3, 3, 6 ),
 ( 1.647987302177966700E-016, 0.001257994017186210700, 0.003129845543370584700, 0.004387861814340911400 ),
 .UNSPECIFIED. ) ;
#503 = ADVANCED_BREP_SHAPE_REPRESENTATION ( 'ALP0314', ( #498, #938 ), #936 ) ;
#504 = B_SPLINE_CURVE_WITH_KNOTS ( 'NONE', 3,
 ( #382, #375, #402, #390 ),
 .UNSPECIFIED., .F., .F.,
 ( 4, 4 ),
 ( 8.807146723828230000E-011, 0.0002086053907751310000 ),
 .UNSPECIFIED. ) ;
#505 = VECTOR ( 'NONE', #242, 1000.000000000000000 ) ;
#506 = VECTOR ( 'NONE', #276, 1000.000000000000000 ) ;
#507 = CIRCLE ( 'NONE', #881, 5.200000000000000200 ) ;
#508 = LINE ( 'NONE', #288, #520 ) ;
#509 = FACE_OUTER_BOUND ( 'NONE', #972, .T. ) ;
#510 = CIRCLE ( 'NONE', #926, 5.200000000000002800 ) ;
#511 = CYLINDRICAL_SURFACE ( 'NONE', #917, 6.000000000000000900 ) ;
#512 = FACE_OUTER_BOUND ( 'NONE', #1016, .T. ) ;
#513 = TOROIDAL_SURFACE ( 'NONE', #861, 5.500000000000000900, 3.000000000000000000 ) ;
#514 = CYLINDRICAL_SURFACE ( 'NONE', #922, 5.000000000000000000 ) ;
#515 = FACE_OUTER_BOUND ( 'NONE', #1135, .T. ) ;
#516 = CYLINDRICAL_SURFACE ( 'NONE', #907, 0.1999999999999996500 ) ;
#517 = LINE ( 'NONE', #274, #521 ) ;
#518 = FACE_OUTER_BOUND ( 'NONE', #966, .T. ) ;
#519 = FACE_OUTER_BOUND ( 'NONE', #974, .T. ) ;
#520 = VECTOR ( 'NONE', #301, 1000.000000000000000 ) ;
#521 = VECTOR ( 'NONE', #235, 999.9999999999998900 ) ;
#522 = LINE ( 'NONE', #302, #506 ) ;
#523 = CIRCLE ( 'NONE', #925, 5.000000000000000000 ) ;
#524 = FACE_BOUND ( 'NONE', #1021, .T. ) ;
#525 = CONICAL_SURFACE ( 'NONE', #921, 5.200000000000000200, 0.7853981633974433900 ) ;
#526 = FACE_OUTER_BOUND ( 'NONE', #961, .T. ) ;
#527 = CIRCLE ( 'NONE', #855, 6.000000000000000900 ) ;
#528 = FACE_OUTER_BOUND ( 'NONE', #964, .T. ) ;
#529 = VECTOR ( 'NONE', #255, 1000.000000000000000 ) ;
#530 = CYLINDRICAL_SURFACE ( 'NONE', #918, 5.000000000000000000 ) ;
#531 = CIRCLE ( 'NONE', #894, 4.818802153517004200 ) ;
#532 = CYLINDRICAL_SURFACE ( 'NONE', #871, 0.1999999999999996500 ) ;
#533 = FACE_OUTER_BOUND ( 'NONE', #990, .T. ) ;
#534 = TOROIDAL_SURFACE ( 'NONE', #899, 4.818802153517004200, 0.2000000000000000100 ) ;
#535 = CYLINDRICAL_SURFACE ( 'NONE', #902, 0.2000000000000000900 ) ;
#536 = FACE_OUTER_BOUND ( 'NONE', #1000, .T. ) ;
#537 = FACE_OUTER_BOUND ( 'NONE', #1136, .T. ) ;
#538 = FACE_OUTER_BOUND ( 'NONE', #973, .T. ) ;
#539 = CIRCLE ( 'NONE', #854, 6.000000000000000900 ) ;
#540 = VECTOR ( 'NONE', #265, 1000.000000000000000 ) ;
#541 = LINE ( 'NONE', #252, #529 ) ;
#542 = LINE ( 'NONE', #241, #540 ) ;
#543 = LINE ( 'NONE', #231, #505 ) ;
#544 = CYLINDRICAL_SURFACE ( 'NONE', #913, 0.1999999999999996500 ) ;
#545 = FACE_OUTER_BOUND ( 'NONE', #984, .T. ) ;
#546 = CIRCLE ( 'NONE', #930, 3.000000000000000000 ) ;
#547 = LINE ( 'NONE', #352, #552 ) ;
#548 = LINE ( 'NONE', #279, #555 ) ;
#549 = LINE ( 'NONE', #329, #580 ) ;
#550 = VECTOR ( 'NONE', #392, 1000.000000000000000 ) ;
#551 = CIRCLE ( 'NONE', #875, 8.500000000000000000 ) ;
#552 = VECTOR ( 'NONE', #330, 1000.000000000000000 ) ;
#553 = CIRCLE ( 'NONE', #927, 8.500000000000000000 ) ;
#554 = CIRCLE ( 'NONE', #857, 0.1999999999999996500 ) ;
#555 = VECTOR ( 'NONE', #281, 999.9999999999998900 ) ;
#556 = CIRCLE ( 'NONE', #932, 3.000000000000000000 ) ;
#557 = CIRCLE ( 'NONE', #929, 0.2000000000000000100 ) ;
#558 = LINE ( 'NONE', #358, #567 ) ;
#559 = LINE ( 'NONE', #361, #587 ) ;
#560 = VECTOR ( 'NONE', #373, 1000.000000000000000 ) ;
#561 = CIRCLE ( 'NONE', #885, 5.000000000000000000 ) ;
#562 = LINE ( 'NONE', #416, #601 ) ;
#563 = CIRCLE ( 'NONE', #867, 0.1999999999999996500 ) ;
#564 = CIRCLE ( 'NONE', #928, 8.500000000000000000 ) ;
#565 = LINE ( 'NONE', #332, #585 ) ;
#566 = VECTOR ( 'NONE', #339, 1000.000000000000000 ) ;
#567 = VECTOR ( 'NONE', #318, 1000.000000000000000 ) ;
#568 = LINE ( 'NONE', #384, #581 ) ;
#569 = CIRCLE ( 'NONE', #877, 5.500000000000000900 ) ;
#570 = LINE ( 'NONE', #393, #560 ) ;
#571 = VECTOR ( 'NONE', #304, 1000.000000000000000 ) ;
#572 = LINE ( 'NONE', #313, #571 ) ;
#573 = LINE ( 'NONE', #331, #566 ) ;
#574 = CIRCLE ( 'NONE', #872, 6.000000000000000900 ) ;
#575 = CIRCLE ( 'NONE', #883, 0.2000000000000000900 ) ;
#576 = LINE ( 'NONE', #364, #579 ) ;
#577 = VECTOR ( 'NONE', #324, 1000.000000000000000 ) ;
#578 = LINE ( 'NONE', #389, #586 ) ;
#579 = VECTOR ( 'NONE', #378, 1000.000000000000000 ) ;
#580 = VECTOR ( 'NONE', #345, 1000.000000000000000 ) ;
#581 = VECTOR ( 'NONE', #387, 999.9999999999998900 ) ;
#582 = CIRCLE ( 'NONE', #903, 5.500000000000000900 ) ;
#583 = LINE ( 'NONE', #334, #577 ) ;
#584 = CIRCLE ( 'NONE', #934, 5.000000000000000000 ) ;
#585 = VECTOR ( 'NONE', #337, 1000.000000000000000 ) ;
#586 = VECTOR ( 'NONE', #365, 999.9999999999998900 ) ;
#587 = VECTOR ( 'NONE', #398, 1000.000000000000000 ) ;
#588 = LINE ( 'NONE', #400, #550 ) ;
#589 = CIRCLE ( 'NONE', #858, 0.1999999999999996500 ) ;
#590 = CIRCLE ( 'NONE', #869, 4.818802153517004200 ) ;
#591 = LINE ( 'NONE', #394, #605 ) ;
#592 = CIRCLE ( 'NONE', #888, 5.200000000000000200 ) ;
#593 = CIRCLE ( 'NONE', #933, 4.618802153517005000 ) ;
#594 = CIRCLE ( 'NONE', #935, 0.1999999999999996500 ) ;
#595 = VECTOR ( 'NONE', #838, 1000.000000000000000 ) ;
#596 = LINE ( 'NONE', #895, #598 ) ;
#597 = VECTOR ( 'NONE', #444, 1000.000000000000000 ) ;
#598 = VECTOR ( 'NONE', #876, 1000.000000000000000 ) ;
#599 = CIRCLE ( 'NONE', #941, 6.000000000000000900 ) ;
#600 = CIRCLE ( 'NONE', #904, 0.2000000000000000900 ) ;
#601 = VECTOR ( 'NONE', #437, 1000.000000000000000 ) ;
#602 = LINE ( 'NONE', #873, #606 ) ;
#603 = CIRCLE ( 'NONE', #943, 5.200000000000002800 ) ;
#604 = LINE ( 'NONE', #435, #611 ) ;
#605 = VECTOR ( 'NONE', #443, 1000.000000000000000 ) ;
#606 = VECTOR ( 'NONE', #886, 1000.000000000000000 ) ;
#607 = LINE ( 'NONE', #434, #597 ) ;
#608 = CIRCLE ( 'NONE', #914, 4.618802153517005000 ) ;
#609 = VECTOR ( 'NONE', #422, 1000.000000000000000 ) ;
#610 = CIRCLE ( 'NONE', #937, 0.2000000000000000900 ) ;
#611 = VECTOR ( 'NONE', #447, 1000.000000000000000 ) ;
#612 = LINE ( 'NONE', #852, #614 ) ;
#613 = SHAPE_DEFINITION_REPRESENTATION ( #485, #503 ) ;
#614 = VECTOR ( 'NONE', #835, 1000.000000000000100 ) ;
#615 = LINE ( 'NONE', #820, #595 ) ;
#616 = LINE ( 'NONE', #405, #609 ) ;
#617 = CIRCLE ( 'NONE', #940, 0.2000000000000000900 ) ;
#618 = CIRCLE ( 'NONE', #915, 8.500000000000000000 ) ;
#619 = CIRCLE ( 'NONE', #942, 5.000000000000000000 ) ;
#620 = DATE_AND_TIME ( #632, #653 ) ;
#621 = APPROVAL_PERSON_ORGANIZATION ( #640, #955, #1142 ) ;
#622 = COORDINATED_UNIVERSAL_TIME_OFFSET ( 1, 0, .AHEAD. ) ;
#623 = PERSON_AND_ORGANIZATION ( #751, #650 ) ;
#624 = COORDINATED_UNIVERSAL_TIME_OFFSET ( 1, 0, .AHEAD. ) ;
#625 = LOCAL_TIME ( 12, 18, 16.00000000000000000, #624 ) ;
#626 = CALENDAR_DATE ( 2017, 1, 2 ) ;
#627 = LOCAL_TIME ( 12, 18, 16.00000000000000000, #622 ) ;
#628 = APPROVAL_DATE_TIME ( #654, #960 ) ;
#629 = LOCAL_TIME ( 12, 18, 16.00000000000000000, #646 ) ;
#630 = COORDINATED_UNIVERSAL_TIME_OFFSET ( 1, 0, .AHEAD. ) ;
#631 = CALENDAR_DATE ( 2017, 1, 2 ) ;
#632 = CALENDAR_DATE ( 2017, 1, 2 ) ;
#633 = PERSON_AND_ORGANIZATION ( #751, #650 ) ;
#634 = PERSON_AND_ORGANIZATION ( #751, #650 ) ;
#635 = DATE_AND_TIME ( #631, #629 ) ;
#636 = PERSON_AND_ORGANIZATION ( #751, #650 ) ;
#637 = APPROVAL_PERSON_ORGANIZATION ( #633, #945, #1161 ) ;
#638 = DATE_AND_TIME ( #643, #627 ) ;
#639 = DATE_AND_TIME ( #644, #652 ) ;
#640 = PERSON_AND_ORGANIZATION ( #751, #650 ) ;
#641 = PERSON_AND_ORGANIZATION ( #751, #650 ) ;
#642 = APPROVAL_DATE_TIME ( #639, #955 ) ;
#643 = CALENDAR_DATE ( 2017, 1, 2 ) ;
#644 = CALENDAR_DATE ( 2017, 1, 2 ) ;
#645 = APPROVAL_DATE_TIME ( #638, #945 ) ;
#646 = COORDINATED_UNIVERSAL_TIME_OFFSET ( 1, 0, .AHEAD. ) ;
#647 = APPROVAL_PERSON_ORGANIZATION ( #636, #960, #1199 ) ;
#648 = PERSON_AND_ORGANIZATION ( #751, #650 ) ;
#649 = COORDINATED_UNIVERSAL_TIME_OFFSET ( 1, 0, .AHEAD. ) ;
#650 = ORGANIZATION ( 'UNSPECIFIED', 'UNSPECIFIED', '' ) ;
#651 = PERSON_AND_ORGANIZATION ( #751, #650 ) ;
#652 = LOCAL_TIME ( 12, 18, 16.00000000000000000, #630 ) ;
#653 = LOCAL_TIME ( 12, 18, 16.00000000000000000, #649 ) ;
#654 = DATE_AND_TIME ( #626, #625 ) ;
#655 = ORIENTED_EDGE ( 'NONE', *, *, #807, .T. ) ;
#656 = ORIENTED_EDGE ( 'NONE', *, *, #794, .F. ) ;
#657 = ORIENTED_EDGE ( 'NONE', *, *, #775, .F. ) ;
#658 = ORIENTED_EDGE ( 'NONE', *, *, #804, .F. ) ;
#659 = ORIENTED_EDGE ( 'NONE', *, *, #803, .T. ) ;
#660 = ORIENTED_EDGE ( 'NONE', *, *, #822, .F. ) ;
#661 = ORIENTED_EDGE ( 'NONE', *, *, #776, .F. ) ;
#662 = ORIENTED_EDGE ( 'NONE', *, *, #834, .T. ) ;
#663 = ORIENTED_EDGE ( 'NONE', *, *, #785, .T. ) ;
#664 = ORIENTED_EDGE ( 'NONE', *, *, #773, .F. ) ;
#665 = ORIENTED_EDGE ( 'NONE', *, *, #790, .T. ) ;
#666 = ORIENTED_EDGE ( 'NONE', *, *, #830, .F. ) ;
#667 = ORIENTED_EDGE ( 'NONE', *, *, #782, .T. ) ;
#668 = ORIENTED_EDGE ( 'NONE', *, *, #815, .T. ) ;
#669 = ORIENTED_EDGE ( 'NONE', *, *, #805, .F. ) ;
#670 = ORIENTED_EDGE ( 'NONE', *, *, #841, .F. ) ;
#671 = ORIENTED_EDGE ( 'NONE', *, *, #819, .T. ) ;
#672 = ORIENTED_EDGE ( 'NONE', *, *, #811, .T. ) ;
#673 = ORIENTED_EDGE ( 'NONE', *, *, #767, .F. ) ;
#674 = ORIENTED_EDGE ( 'NONE', *, *, #815, .F. ) ;
#675 = ORIENTED_EDGE ( 'NONE', *, *, #813, .T. ) ;
#676 = ORIENTED_EDGE ( 'NONE', *, *, #760, .T. ) ;
#677 = ORIENTED_EDGE ( 'NONE', *, *, #776, .T. ) ;
#678 = ORIENTED_EDGE ( 'NONE', *, *, #800, .F. ) ;
#679 = ORIENTED_EDGE ( 'NONE', *, *, #800, .T. ) ;
#680 = ORIENTED_EDGE ( 'NONE', *, *, #769, .T. ) ;
#681 = ORIENTED_EDGE ( 'NONE', *, *, #806, .F. ) ;
#682 = ORIENTED_EDGE ( 'NONE', *, *, #793, .T. ) ;
#683 = ORIENTED_EDGE ( 'NONE', *, *, #822, .T. ) ;
#684 = ORIENTED_EDGE ( 'NONE', *, *, #764, .T. ) ;
#685 = ORIENTED_EDGE ( 'NONE', *, *, #843, .T. ) ;
#686 = ORIENTED_EDGE ( 'NONE', *, *, #814, .T. ) ;
#687 = ORIENTED_EDGE ( 'NONE', *, *, #805, .T. ) ;
#688 = ORIENTED_EDGE ( 'NONE', *, *, #804, .T. ) ;
#689 = ORIENTED_EDGE ( 'NONE', *, *, #803, .F. ) ;
#690 = ORIENTED_EDGE ( 'NONE', *, *, #845, .T. ) ;
#691 = ORIENTED_EDGE ( 'NONE', *, *, #783, .F. ) ;
#692 = ORIENTED_EDGE ( 'NONE', *, *, #773, .T. ) ;
#693 = ORIENTED_EDGE ( 'NONE', *, *, #799, .T. ) ;
#694 = ORIENTED_EDGE ( 'NONE', *, *, #817, .T. ) ;
#695 = ORIENTED_EDGE ( 'NONE', *, *, #770, .T. ) ;
#696 = ORIENTED_EDGE ( 'NONE', *, *, #772, .F. ) ;
#697 = ORIENTED_EDGE ( 'NONE', *, *, #836, .F. ) ;
#698 = ORIENTED_EDGE ( 'NONE', *, *, #811, .F. ) ;
#699 = ORIENTED_EDGE ( 'NONE', *, *, #810, .T. ) ;
#700 = ORIENTED_EDGE ( 'NONE', *, *, #851, .F. ) ;
#701 = ORIENTED_EDGE ( 'NONE', *, *, #780, .T. ) ;
#702 = ORIENTED_EDGE ( 'NONE', *, *, #787, .T. ) ;
#703 = ORIENTED_EDGE ( 'NONE', *, *, #843, .F. ) ;
#704 = ORIENTED_EDGE ( 'NONE', *, *, #841, .T. ) ;
#705 = ORIENTED_EDGE ( 'NONE', *, *, #816, .T. ) ;
#706 = ORIENTED_EDGE ( 'NONE', *, *, #797, .T. ) ;
#707 = ORIENTED_EDGE ( 'NONE', *, *, #779, .T. ) ;
#708 = ORIENTED_EDGE ( 'NONE', *, *, #837, .T. ) ;
#709 = ORIENTED_EDGE ( 'NONE', *, *, #764, .F. ) ;
#710 = ORIENTED_EDGE ( 'NONE', *, *, #801, .T. ) ;
#711 = FACE_BOUND ( 'NONE', #1137, .T. ) ;
#712 = ORIENTED_EDGE ( 'NONE', *, *, #788, .T. ) ;
#713 = FACE_OUTER_BOUND ( 'NONE', #1131, .T. ) ;
#714 = CYLINDRICAL_SURFACE ( 'NONE', #889, 8.500000000000000000 ) ;
#715 = FACE_BOUND ( 'NONE', #968, .T. ) ;
#716 = FACE_OUTER_BOUND ( 'NONE', #1138, .T. ) ;
#717 = FACE_OUTER_BOUND ( 'NONE', #985, .T. ) ;
#718 = FACE_OUTER_BOUND ( 'NONE', #1009, .T. ) ;
#719 = TOROIDAL_SURFACE ( 'NONE', #890, 5.500000000000000900, 3.000000000000000000 ) ;
#720 = CONICAL_SURFACE ( 'NONE', #792, 5.200000000000000200, 0.7853981633974433900 ) ;
#721 = FACE_OUTER_BOUND ( 'NONE', #970, .T. ) ;
#722 = ORIENTED_EDGE ( 'NONE', *, *, #807, .F. ) ;
#723 = FACE_OUTER_BOUND ( 'NONE', #1018, .T. ) ;
#724 = FACE_OUTER_BOUND ( 'NONE', #1134, .T. ) ;
#725 = FACE_OUTER_BOUND ( 'NONE', #1019, .T. ) ;
#726 = CONICAL_SURFACE ( 'NONE', #791, 6.000000000000000900, 0.7853981633974499400 ) ;
#727 = FACE_OUTER_BOUND ( 'NONE', #1133, .T. ) ;
#728 = FACE_OUTER_BOUND ( 'NONE', #1017, .T. ) ;
#729 = FACE_BOUND ( 'NONE', #962, .T. ) ;
#730 = FACE_OUTER_BOUND ( 'NONE', #997, .T. ) ;
#731 = CYLINDRICAL_SURFACE ( 'NONE', #808, 0.2000000000000000900 ) ;
#732 = FACE_OUTER_BOUND ( 'NONE', #999, .T. ) ;
#733 = FACE_OUTER_BOUND ( 'NONE', #967, .T. ) ;
#734 = FACE_OUTER_BOUND ( 'NONE', #992, .T. ) ;
#735 = CONICAL_SURFACE ( 'NONE', #856, 6.000000000000000900, 0.7853981633974499400 ) ;
#736 = TOROIDAL_SURFACE ( 'NONE', #863, 4.818802153517004200, 0.2000000000000000100 ) ;
#737 = FACE_OUTER_BOUND ( 'NONE', #965, .T. ) ;
#738 = FACE_OUTER_BOUND ( 'NONE', #1015, .T. ) ;
#739 = FACE_OUTER_BOUND ( 'NONE', #971, .T. ) ;
#740 = FACE_OUTER_BOUND ( 'NONE', #1006, .T. ) ;
#741 = CYLINDRICAL_SURFACE ( 'NONE', #879, 0.2000000000000000900 ) ;
#742 = FACE_OUTER_BOUND ( 'NONE', #963, .T. ) ;
#743 = CYLINDRICAL_SURFACE ( 'NONE', #931, 0.2000000000000000900 ) ;
#744 = FACE_OUTER_BOUND ( 'NONE', #1010, .T. ) ;
#745 = CYLINDRICAL_SURFACE ( 'NONE', #911, 6.000000000000000900 ) ;
#746 = CYLINDRICAL_SURFACE ( 'NONE', #920, 8.500000000000000000 ) ;
#747 = FACE_OUTER_BOUND ( 'NONE', #969, .T. ) ;
#748 = CARTESIAN_POINT ( 'NONE',  ( -2.193931022920578000, 3.999999999999999100, 0.2000000000000000900 ) ) ;
#749 = CARTESIAN_POINT ( 'NONE',  ( -5.200000000000002800, 6.858022075225180500E-016, 12.50000000000000000 ) ) ;
#750 = PRODUCT ( 'ALP0314', 'ALP0314', '', ( #1173 ) ) ;
#751 = PERSON ( 'UNSPECIFIED', 'UNSPECIFIED', 'UNSPECIFIED', ('UNSPECIFIED'), ('UNSPECIFIED'), ('UNSPECIFIED') ) ;
#752 = CARTESIAN_POINT ( 'NONE',  ( 6.000000000000000900, 7.347880794884120700E-016, 34.69999999999999600 ) ) ;
#753 = CARTESIAN_POINT ( 'NONE',  ( 3.829756081844759600, 1.366667885648974900, 2.999594947228052100 ) ) ;
#754 = CARTESIAN_POINT ( 'NONE',  ( 4.378238447917418300, 0.4166685605555287600, 3.003141779424940000 ) ) ;
#755 = CARTESIAN_POINT ( 'NONE',  ( 4.195410978373717000, 0.7333350268244817100, 2.999824975281440300 ) ) ;
#756 = CARTESIAN_POINT ( 'NONE',  ( 4.561066498855503000, 0.1000010872662108600, 2.999496288371204000 ) ) ;
#757 = EDGE_CURVE ( 'NONE', #1094, #1088, #542, .T. ) ;
#758 = EDGE_CURVE ( 'NONE', #1092, #1121, #541, .T. ) ;
#759 = EDGE_CURVE ( 'NONE', #1124, #1094, #527, .T. ) ;
#760 = EDGE_CURVE ( 'NONE', #1093, #1095, #546, .T. ) ;
#761 = EDGE_CURVE ( 'NONE', #1106, #1088, #517, .T. ) ;
#762 = EDGE_CURVE ( 'NONE', #1088, #1085, #539, .T. ) ;
#763 = EDGE_CURVE ( 'NONE', #1108, #1111, #543, .T. ) ;
#764 = EDGE_CURVE ( 'NONE', #1126, #1119, #531, .T. ) ;
#765 = EDGE_CURVE ( 'NONE', #1109, #1125, #507, .T. ) ;
#766 = EDGE_CURVE ( 'NONE', #1123, #1121, #493, .T. ) ;
#767 = EDGE_CURVE ( 'NONE', #1122, #1111, #523, .T. ) ;
#768 = EDGE_CURVE ( 'NONE', #1087, #1106, #510, .T. ) ;
#769 = EDGE_CURVE ( 'NONE', #1100, #1123, #508, .T. ) ;
#770 = EDGE_CURVE ( 'NONE', #1132, #1101, #522, .T. ) ;
#771 = EDGE_CURVE ( 'NONE', #1087, #1085, #548, .T. ) ;
#772 = EDGE_CURVE ( 'NONE', #1096, #1129, #500, .T. ) ;
#773 = EDGE_CURVE ( 'NONE', #1113, #1102, #553, .T. ) ;
#774 = EDGE_CURVE ( 'NONE', #1095, #1090, #564, .T. ) ;
#775 = EDGE_CURVE ( 'NONE', #1110, #1090, #556, .T. ) ;
#776 = EDGE_CURVE ( 'NONE', #1110, #1093, #582, .T. ) ;
#777 = EDGE_CURVE ( 'NONE', #1124, #1085, #549, .T. ) ;
#778 = EDGE_CURVE ( 'NONE', #1091, #1122, #572, .T. ) ;
#779 = EDGE_CURVE ( 'NONE', #1107, #1120, #593, .T. ) ;
#780 = EDGE_CURVE ( 'NONE', #1113, #1095, #583, .T. ) ;
#781 = EDGE_CURVE ( 'NONE', #1091, #1108, #584, .T. ) ;
#782 = EDGE_CURVE ( 'NONE', #1107, #1119, #563, .T. ) ;
#783 = EDGE_CURVE ( 'NONE', #1120, #1126, #557, .T. ) ;
#784 = EDGE_CURVE ( 'NONE', #1109, #1094, #547, .T. ) ;
#785 = EDGE_CURVE ( 'NONE', #1092, #1100, #554, .T. ) ;
#786 = EDGE_CURVE ( 'NONE', #1125, #1124, #565, .T. ) ;
#787 = EDGE_CURVE ( 'NONE', #1097, #1092, #589, .T. ) ;
#788 = EDGE_CURVE ( 'NONE', #1115, #1129, #573, .T. ) ;
#789 = EDGE_CURVE ( 'NONE', #1085, #1088, #574, .T. ) ;
#790 = EDGE_CURVE ( 'NONE', #1112, #1117, #558, .T. ) ;
#791 = AXIS2_PLACEMENT_3D ( 'NONE', #9, #39, #19 ) ;
#792 = AXIS2_PLACEMENT_3D ( 'NONE', #7, #20, #37 ) ;
#793 = EDGE_CURVE ( 'NONE', #1119, #1126, #590, .T. ) ;
#794 = EDGE_CURVE ( 'NONE', #1116, #1117, #499, .T. ) ;
#795 = EDGE_CURVE ( 'NONE', #1129, #1132, #494, .T. ) ;
#796 = EDGE_CURVE ( 'NONE', #1127, #1116, #489, .T. ) ;
#797 = EDGE_CURVE ( 'NONE', #1101, #1115, #575, .T. ) ;
#798 = EDGE_CURVE ( 'NONE', #1128, #1130, #504, .T. ) ;
#799 = EDGE_CURVE ( 'NONE', #1089, #1128, #576, .T. ) ;
#800 = EDGE_CURVE ( 'NONE', #1112, #1084, #578, .T. ) ;
#801 = EDGE_CURVE ( 'NONE', #1104, #1098, #588, .T. ) ;
#802 = AXIS2_PLACEMENT_3D ( 'NONE', #11, #8, #36 ) ;
#803 = EDGE_CURVE ( 'NONE', #1090, #1095, #551, .T. ) ;
#804 = EDGE_CURVE ( 'NONE', #1102, #1090, #559, .T. ) ;
#805 = EDGE_CURVE ( 'NONE', #1093, #1110, #569, .T. ) ;
#806 = EDGE_CURVE ( 'NONE', #1111, #1122, #561, .T. ) ;
#807 = EDGE_CURVE ( 'NONE', #1115, #1097, #568, .T. ) ;
#808 = AXIS2_PLACEMENT_3D ( 'NONE', #10, #26, #12 ) ;
#809 = EDGE_CURVE ( 'NONE', #1125, #1109, #592, .T. ) ;
#810 = EDGE_CURVE ( 'NONE', #1099, #1127, #570, .T. ) ;
#811 = EDGE_CURVE ( 'NONE', #1099, #1114, #591, .T. ) ;
#812 = EDGE_CURVE ( 'NONE', #1103, #1104, #490, .T. ) ;
#813 = EDGE_CURVE ( 'NONE', #1118, #1103, #562, .T. ) ;
#814 = EDGE_CURVE ( 'NONE', #1086, #1112, #600, .T. ) ;
#815 = EDGE_CURVE ( 'NONE', #1118, #1086, #607, .T. ) ;
#816 = EDGE_CURVE ( 'NONE', #1120, #1107, #608, .T. ) ;
#817 = EDGE_CURVE ( 'NONE', #1096, #1097, #616, .T. ) ;
#818 = EDGE_CURVE ( 'NONE', #1117, #1105, #492, .T. ) ;
#819 = EDGE_CURVE ( 'NONE', #1105, #1086, #604, .T. ) ;
#820 = CARTESIAN_POINT ( 'NONE',  ( 2.309401076758503800, -4.000000000000000000, 0.2000000000000000900 ) ) ;
#821 = CARTESIAN_POINT ( 'NONE',  ( -1.439134472636838500, -3.999999999999999100, 3.000573359282299200 ) ) ;
#822 = EDGE_CURVE ( 'NONE', #1102, #1113, #618, .T. ) ;
#823 = DIRECTION ( 'NONE',  ( 0.0000000000000000000, 0.0000000000000000000, -1.000000000000000000 ) ) ;
#824 = EDGE_CURVE ( 'NONE', #1130, #1127, #501, .T. ) ;
#825 = EDGE_CURVE ( 'NONE', #1098, #1118, #617, .T. ) ;
#826 = CARTESIAN_POINT ( 'NONE',  ( 0.0000000000000000000, 0.0000000000000000000, 34.69999999999999600 ) ) ;
#827 = CARTESIAN_POINT ( 'NONE',  ( 2.193930905494200400, -3.999999999999984500, 2.999565609516131400 ) ) ;
#828 = EDGE_CURVE ( 'NONE', #1121, #1096, #497, .T. ) ;
#829 = CARTESIAN_POINT ( 'NONE',  ( -2.193931022920578400, -3.799999999999999800, 0.2000000000000000900 ) ) ;
#830 = EDGE_CURVE ( 'NONE', #1105, #1103, #502, .T. ) ;
#831 = DIRECTION ( 'NONE',  ( 1.000000000000000000, 0.0000000000000000000, 0.0000000000000000000 ) ) ;
#832 = CARTESIAN_POINT ( 'NONE',  ( 1.439121142968367700, -3.999999999999999100, 3.000571826144913200 ) ) ;
#833 = EDGE_CURVE ( 'NONE', #1094, #1124, #599, .T. ) ;
#834 = EDGE_CURVE ( 'NONE', #1114, #1089, #610, .T. ) ;
#835 = DIRECTION ( 'NONE',  ( -0.4999999999999998300, 0.8660254037844387100, 0.0000000000000000000 ) ) ;
#836 = EDGE_CURVE ( 'NONE', #1132, #1128, #491, .T. ) ;
#837 = EDGE_CURVE ( 'NONE', #1084, #1099, #594, .T. ) ;
#838 = DIRECTION ( 'NONE',  ( 1.000000000000000000, 0.0000000000000000000, 0.0000000000000000000 ) ) ;
#839 = EDGE_CURVE ( 'NONE', #1130, #1114, #596, .T. ) ;
#840 = CARTESIAN_POINT ( 'NONE',  ( 0.0000000000000000000, 0.0000000000000000000, 12.50000000000000000 ) ) ;
#841 = EDGE_CURVE ( 'NONE', #1100, #1098, #612, .T. ) ;
#842 = DIRECTION ( 'NONE',  ( 0.0000000000000000000, 0.0000000000000000000, 1.000000000000000000 ) ) ;
#843 = EDGE_CURVE ( 'NONE', #1089, #1101, #615, .T. ) ;
#844 = CARTESIAN_POINT ( 'NONE',  ( 2.193930964254087200, 3.999999999999982700, 2.999564096860207800 ) ) ;
#845 = EDGE_CURVE ( 'NONE', #1116, #1084, #602, .T. ) ;
#846 = CARTESIAN_POINT ( 'NONE',  ( -8.500000000000000000, 0.0000000000000000000, 3.000000000000000000 ) ) ;
#847 = EDGE_CURVE ( 'NONE', #1108, #1091, #619, .T. ) ;
#848 = DIRECTION ( 'NONE',  ( -0.0000000000000000000, -0.0000000000000000000, 1.000000000000000000 ) ) ;
#849 = EDGE_CURVE ( 'NONE', #1106, #1087, #603, .T. ) ;
#850 = DIRECTION ( 'NONE',  ( -1.000000000000000000, -2.131628207280304700E-014, 0.0000000000000000000 ) ) ;
#851 = EDGE_CURVE ( 'NONE', #1104, #1123, #496, .T. ) ;
#852 = CARTESIAN_POINT ( 'NONE',  ( 2.309401076758504300, 3.999999999999999100, 0.2000000000000000900 ) ) ;
#853 = AXIS2_PLACEMENT_3D ( 'NONE', #271, #272, #232 ) ;
#854 = AXIS2_PLACEMENT_3D ( 'NONE', #260, #306, #317 ) ;
#855 = AXIS2_PLACEMENT_3D ( 'NONE', #240, #256, #245 ) ;
#856 = AXIS2_PLACEMENT_3D ( 'NONE', #2, #5, #6 ) ;
#857 = AXIS2_PLACEMENT_3D ( 'NONE', #348, #327, #346 ) ;
#858 = AXIS2_PLACEMENT_3D ( 'NONE', #336, #356, #357 ) ;
#859 = CARTESIAN_POINT ( 'NONE',  ( 1.690724397143704000, -3.999999999999999100, 3.000942055450818400 ) ) ;
#860 = CARTESIAN_POINT ( 'NONE',  ( 0.8131475835561798900, -3.999999999999999100, 2.998735371509623400 ) ) ;
#861 = AXIS2_PLACEMENT_3D ( 'NONE', #236, #267, #237 ) ;
#862 = CARTESIAN_POINT ( 'NONE',  ( 1.942327651393893900, 3.999999999999999100, 3.000568581358916900 ) ) ;
#863 = AXIS2_PLACEMENT_3D ( 'NONE', #64, #58, #62 ) ;
#864 = CARTESIAN_POINT ( 'NONE',  ( 0.1871740241439921500, -3.999999999999999100, 3.000651856369485500 ) ) ;
#865 = AXIS2_PLACEMENT_3D ( 'NONE', #110, #119, #102 ) ;
#866 = CARTESIAN_POINT ( 'NONE',  ( -1.942332053707114900, -3.999999999999999100, 3.000568811915922000 ) ) ;
#867 = AXIS2_PLACEMENT_3D ( 'NONE', #349, #355, #344 ) ;
#868 = CARTESIAN_POINT ( 'NONE',  ( -0.1871962810928592400, -3.999999999999999100, 3.000652000222357800 ) ) ;
#869 = AXIS2_PLACEMENT_3D ( 'NONE', #335, #343, #374 ) ;
#870 = CARTESIAN_POINT ( 'NONE',  ( -2.193930933581012000, -3.999999999999961800, 2.999555675495076300 ) ) ;
#871 = AXIS2_PLACEMENT_3D ( 'NONE', #239, #258, #269 ) ;
#872 = AXIS2_PLACEMENT_3D ( 'NONE', #319, #340, #320 ) ;
#873 = CARTESIAN_POINT ( 'NONE',  ( -4.561067126598041800, 0.1000000000000007300, 0.2000000000000000900 ) ) ;
#874 = CARTESIAN_POINT ( 'NONE',  ( -4.387862045841155000, 9.757819552369539900E-016, 0.2000000000000000900 ) ) ;
#875 = AXIS2_PLACEMENT_3D ( 'NONE', #360, #363, #397 ) ;
#876 = DIRECTION ( 'NONE',  ( 0.0000000000000000000, 0.0000000000000000000, -1.000000000000000000 ) ) ;
#877 = AXIS2_PLACEMENT_3D ( 'NONE', #366, #372, #369 ) ;
#878 = DIRECTION ( 'NONE',  ( 1.000000000000000000, 0.0000000000000000000, 0.0000000000000000000 ) ) ;
#879 = AXIS2_PLACEMENT_3D ( 'NONE', #61, #72, #65 ) ;
#880 = CARTESIAN_POINT ( 'NONE',  ( 2.367136501575279900, 3.899999310819187900, 2.999554612149190300 ) ) ;
#881 = AXIS2_PLACEMENT_3D ( 'NONE', #275, #287, #282 ) ;
#882 = DIRECTION ( 'NONE',  ( -1.000000000000000000, 0.0000000000000000000, 0.0000000000000000000 ) ) ;
#883 = AXIS2_PLACEMENT_3D ( 'NONE', #391, #404, #399 ) ;
#884 = CARTESIAN_POINT ( 'NONE',  ( 1.942327651319040200, -3.999999999999999100, 3.000573115277209700 ) ) ;
#885 = AXIS2_PLACEMENT_3D ( 'NONE', #385, #367, #403 ) ;
#886 = DIRECTION ( 'NONE',  ( 0.0000000000000000000, 0.0000000000000000000, -1.000000000000000000 ) ) ;
#887 = CARTESIAN_POINT ( 'NONE',  ( -0.8131653768648488000, -3.999999999999999100, 2.998736859738349000 ) ) ;
#888 = AXIS2_PLACEMENT_3D ( 'NONE', #383, #442, #409 ) ;
#889 = AXIS2_PLACEMENT_3D ( 'NONE', #30, #33, #40 ) ;
#890 = AXIS2_PLACEMENT_3D ( 'NONE', #3, #4, #14 ) ;
#891 = CARTESIAN_POINT ( 'NONE',  ( -1.690733263171976700, -3.999999999999999100, 3.000941711315587400 ) ) ;
#892 = AXIS2_PLACEMENT_3D ( 'NONE', #67, #50, #56 ) ;
#893 = DIRECTION ( 'NONE',  ( -0.0000000000000000000, -0.0000000000000000000, 1.000000000000000000 ) ) ;
#894 = AXIS2_PLACEMENT_3D ( 'NONE', #285, #297, #294 ) ;
#895 = CARTESIAN_POINT ( 'NONE',  ( -2.367136103677465600, -3.899999999999999900, 0.2000000000000000900 ) ) ;
#896 = AXIS2_PLACEMENT_3D ( 'NONE', #74, #48, #46 ) ;
#897 = CARTESIAN_POINT ( 'NONE',  ( 6.000000000000000900, 7.347880794884120700E-016, 13.29999999999999500 ) ) ;
#898 = AXIS2_PLACEMENT_3D ( 'NONE', #35, #57, #55 ) ;
#899 = AXIS2_PLACEMENT_3D ( 'NONE', #210, #261, #253 ) ;
#900 = AXIS2_PLACEMENT_3D ( 'NONE', #248, #273, #262 ) ;
#901 = CARTESIAN_POINT ( 'NONE',  ( 0.0000000000000000000, 0.0000000000000000000, 12.50000000000000000 ) ) ;
#902 = AXIS2_PLACEMENT_3D ( 'NONE', #264, #246, #270 ) ;
#903 = AXIS2_PLACEMENT_3D ( 'NONE', #328, #342, #321 ) ;
#904 = AXIS2_PLACEMENT_3D ( 'NONE', #411, #441, #412 ) ;
#905 = DIRECTION ( 'NONE',  ( -0.0000000000000000000, -0.0000000000000000000, -1.000000000000000000 ) ) ;
#906 = DIRECTION ( 'NONE',  ( 1.000000000000000000, 0.0000000000000000000, 0.0000000000000000000 ) ) ;
#907 = AXIS2_PLACEMENT_3D ( 'NONE', #44, #45, #53 ) ;
#908 = AXIS2_PLACEMENT_3D ( 'NONE', #27, #17, #18 ) ;
#909 = CARTESIAN_POINT ( 'NONE',  ( -2.193931022920578000, -4.000000000000000000, 0.2000000000000000900 ) ) ;
#910 = CARTESIAN_POINT ( 'NONE',  ( 2.732791413940086400, 3.266666424567782100, 3.002167936806514600 ) ) ;
#911 = AXIS2_PLACEMENT_3D ( 'NONE', #68, #59, #73 ) ;
#912 = CARTESIAN_POINT ( 'NONE',  ( 3.646928637894445200, 1.683334307588861600, 3.000129066798093500 ) ) ;
#913 = AXIS2_PLACEMENT_3D ( 'NONE', #249, #263, #243 ) ;
#914 = AXIS2_PLACEMENT_3D ( 'NONE', #420, #410, #421 ) ;
#915 = AXIS2_PLACEMENT_3D ( 'NONE', #445, #448, #449 ) ;
#916 = CARTESIAN_POINT ( 'NONE',  ( 3.098446296713382800, 2.633333589568789700, 3.000327562065972400 ) ) ;
#917 = AXIS2_PLACEMENT_3D ( 'NONE', #42, #49, #51 ) ;
#918 = AXIS2_PLACEMENT_3D ( 'NONE', #266, #244, #268 ) ;
#919 = AXIS2_PLACEMENT_3D ( 'NONE', #41, #25, #23 ) ;
#920 = AXIS2_PLACEMENT_3D ( 'NONE', #28, #32, #16 ) ;
#921 = AXIS2_PLACEMENT_3D ( 'NONE', #70, #71, #47 ) ;
#922 = AXIS2_PLACEMENT_3D ( 'NONE', #94, #79, #115 ) ;
#923 = AXIS2_PLACEMENT_3D ( 'NONE', #21, #22, #31 ) ;
#924 = AXIS2_PLACEMENT_3D ( 'NONE', #250, #251, #259 ) ;
#925 = AXIS2_PLACEMENT_3D ( 'NONE', #278, #315, #308 ) ;
#926 = AXIS2_PLACEMENT_3D ( 'NONE', #296, #299, #300 ) ;
#927 = AXIS2_PLACEMENT_3D ( 'NONE', #311, #289, #284 ) ;
#928 = AXIS2_PLACEMENT_3D ( 'NONE', #298, #290, #312 ) ;
#929 = AXIS2_PLACEMENT_3D ( 'NONE', #338, #326, #353 ) ;
#930 = AXIS2_PLACEMENT_3D ( 'NONE', #238, #234, #233 ) ;
#931 = AXIS2_PLACEMENT_3D ( 'NONE', #60, #63, #66 ) ;
#932 = AXIS2_PLACEMENT_3D ( 'NONE', #283, #291, #314 ) ;
#933 = AXIS2_PLACEMENT_3D ( 'NONE', #325, #322, #323 ) ;
#934 = AXIS2_PLACEMENT_3D ( 'NONE', #351, #354, #347 ) ;
#935 = AXIS2_PLACEMENT_3D ( 'NONE', #874, #893, #850 ) ;
#936 =( GEOMETRIC_REPRESENTATION_CONTEXT ( 3 ) GLOBAL_UNCERTAINTY_ASSIGNED_CONTEXT ( ( #495 ) ) GLOBAL_UNIT_ASSIGNED_CONTEXT ( ( #1156, #1195, #1198 ) ) REPRESENTATION_CONTEXT ( 'NONE', 'WORKASPACE' ) );
#937 = AXIS2_PLACEMENT_3D ( 'NONE', #829, #848, #882 ) ;
#938 = AXIS2_PLACEMENT_3D ( 'NONE', #1158, #1141, #1180 ) ;
#939 = CC_DESIGN_PERSON_AND_ORGANIZATION_ASSIGNMENT ( #651, #1171, ( #750 ) ) ;
#940 = AXIS2_PLACEMENT_3D ( 'NONE', #417, #418, #425 ) ;
#941 = AXIS2_PLACEMENT_3D ( 'NONE', #826, #823, #831 ) ;
#942 = AXIS2_PLACEMENT_3D ( 'NONE', #840, #842, #878 ) ;
#943 = AXIS2_PLACEMENT_3D ( 'NONE', #901, #905, #906 ) ;
#944 = CC_DESIGN_APPROVAL ( #955, ( #954 ) ) ;
#945 = APPROVAL ( #1159, 'UNSPECIFIED' ) ;
#946 = CC_DESIGN_PERSON_AND_ORGANIZATION_ASSIGNMENT ( #623, #1148, ( #950 ) ) ;
#947 = CC_DESIGN_PERSON_AND_ORGANIZATION_ASSIGNMENT ( #641, #1150, ( #950 ) ) ;
#948 = CC_DESIGN_DATE_AND_TIME_ASSIGNMENT ( #620, #1145, ( #954 ) ) ;
#949 = CC_DESIGN_PERSON_AND_ORGANIZATION_ASSIGNMENT ( #648, #1143, ( #954 ) ) ;
#950 = PRODUCT_DEFINITION_FORMATION_WITH_SPECIFIED_SOURCE ( 'ANY', '', #750, .NOT_KNOWN. ) ;
#951 = CC_DESIGN_APPROVAL ( #945, ( #950 ) ) ;
#952 = SECURITY_CLASSIFICATION ( '', '', #1175 ) ;
#953 = CC_DESIGN_PERSON_AND_ORGANIZATION_ASSIGNMENT ( #634, #1176, ( #952 ) ) ;
#954 = PRODUCT_DEFINITION ( 'UNKNOWN', '', #950, #486 ) ;
#955 = APPROVAL ( #1181, 'UNSPECIFIED' ) ;
#956 = CC_DESIGN_APPROVAL ( #960, ( #952 ) ) ;
#957 = CC_DESIGN_SECURITY_CLASSIFICATION ( #952, ( #950 ) ) ;
#958 = CC_DESIGN_DATE_AND_TIME_ASSIGNMENT ( #635, #1162, ( #952 ) ) ;
#959 = PRODUCT_RELATED_PRODUCT_CATEGORY ( 'detail', '', ( #750 ) ) ;
#960 = APPROVAL ( #1200, 'UNSPECIFIED' ) ;
#961 = EDGE_LOOP ( 'NONE', ( #1083, #667, #709, #691 ) ) ;
#962 = EDGE_LOOP ( 'NONE', ( #684, #682 ) ) ;
#963 = EDGE_LOOP ( 'NONE', ( #1050, #1049, #1057, #1004 ) ) ;
#964 = EDGE_LOOP ( 'NONE', ( #1022, #1014, #993, #995 ) ) ;
#965 = EDGE_LOOP ( 'NONE', ( #1072, #1069, #1073, #1074 ) ) ;
#966 = EDGE_LOOP ( 'NONE', ( #722, #712, #696, #694 ) ) ;
#967 = EDGE_LOOP ( 'NONE', ( #670, #680, #700, #710 ) ) ;
#968 = EDGE_LOOP ( 'NONE', ( #681, #673 ) ) ;
#969 = EDGE_LOOP ( 'NONE', ( #980, #1047, #1027, #1026 ) ) ;
#970 = EDGE_LOOP ( 'NONE', ( #1080, #660, #688, #659 ) ) ;
#971 = EDGE_LOOP ( 'NONE', ( #1071, #1065, #1067, #1075 ) ) ;
#972 = EDGE_LOOP ( 'NONE', ( #1035, #1051, #1041, #1032 ) ) ;
#973 = EDGE_LOOP ( 'NONE', ( #987, #1007, #1012, #1003, #977, #982, #1008, #983, #1013, #989, #979, #998, #991 ) ) ;
#974 = EDGE_LOOP ( 'NONE', ( #981, #976, #975, #1031 ) ) ;
#975 = ORIENTED_EDGE ( 'NONE', *, *, #817, .F. ) ;
#976 = ORIENTED_EDGE ( 'NONE', *, *, #787, .F. ) ;
#977 = ORIENTED_EDGE ( 'NONE', *, *, #818, .T. ) ;
#978 = ORIENTED_EDGE ( 'NONE', *, *, #801, .F. ) ;
#979 = ORIENTED_EDGE ( 'NONE', *, *, #772, .T. ) ;
#980 = ORIENTED_EDGE ( 'NONE', *, *, #798, .F. ) ;
#981 = ORIENTED_EDGE ( 'NONE', *, *, #758, .F. ) ;
#982 = ORIENTED_EDGE ( 'NONE', *, *, #830, .T. ) ;
#983 = ORIENTED_EDGE ( 'NONE', *, *, #851, .T. ) ;
#984 = EDGE_LOOP ( 'NONE', ( #657, #669, #676, #689 ) ) ;
#985 = EDGE_LOOP ( 'NONE', ( #664, #701, #1076, #658 ) ) ;
#986 = ORIENTED_EDGE ( 'NONE', *, *, #770, .F. ) ;
#987 = ORIENTED_EDGE ( 'NONE', *, *, #798, .T. ) ;
#988 = ORIENTED_EDGE ( 'NONE', *, *, #824, .F. ) ;
#989 = ORIENTED_EDGE ( 'NONE', *, *, #828, .T. ) ;
#990 = EDGE_LOOP ( 'NONE', ( #698, #699, #988, #994 ) ) ;
#991 = ORIENTED_EDGE ( 'NONE', *, *, #836, .T. ) ;
#992 = EDGE_LOOP ( 'NONE', ( #703, #693, #697, #695 ) ) ;
#993 = ORIENTED_EDGE ( 'NONE', *, *, #837, .F. ) ;
#994 = ORIENTED_EDGE ( 'NONE', *, *, #839, .T. ) ;
#995 = ORIENTED_EDGE ( 'NONE', *, *, #845, .F. ) ;
#996 = ORIENTED_EDGE ( 'NONE', *, *, #797, .F. ) ;
#997 = EDGE_LOOP ( 'NONE', ( #687, #677 ) ) ;
#998 = ORIENTED_EDGE ( 'NONE', *, *, #795, .T. ) ;
#999 = EDGE_LOOP ( 'NONE', ( #1059, #1064, #1066, #1070 ) ) ;
#1000 = EDGE_LOOP ( 'NONE', ( #705, #707 ) ) ;
#1001 = ORIENTED_EDGE ( 'NONE', *, *, #812, .F. ) ;
#1002 = ORIENTED_EDGE ( 'NONE', *, *, #788, .F. ) ;
#1003 = ORIENTED_EDGE ( 'NONE', *, *, #794, .T. ) ;
#1004 = ORIENTED_EDGE ( 'NONE', *, *, #793, .F. ) ;
#1005 = ORIENTED_EDGE ( 'NONE', *, *, #813, .F. ) ;
#1006 = EDGE_LOOP ( 'NONE', ( #666, #671, #674, #675 ) ) ;
#1007 = ORIENTED_EDGE ( 'NONE', *, *, #824, .T. ) ;
#1008 = ORIENTED_EDGE ( 'NONE', *, *, #812, .T. ) ;
#1009 = EDGE_LOOP ( 'NONE', ( #683, #692 ) ) ;
#1010 = EDGE_LOOP ( 'NONE', ( #1030, #1048 ) ) ;
#1011 = ORIENTED_EDGE ( 'NONE', *, *, #814, .F. ) ;
#1012 = ORIENTED_EDGE ( 'NONE', *, *, #796, .T. ) ;
#1013 = ORIENTED_EDGE ( 'NONE', *, *, #766, .T. ) ;
#1014 = ORIENTED_EDGE ( 'NONE', *, *, #810, .F. ) ;
#1015 = EDGE_LOOP ( 'NONE', ( #1025, #1002, #996, #986 ) ) ;
#1016 = EDGE_LOOP ( 'NONE', ( #1077, #1061, #1063, #1062 ) ) ;
#1017 = EDGE_LOOP ( 'NONE', ( #661, #1078, #1079, #1082 ) ) ;
#1018 = EDGE_LOOP ( 'NONE', ( #656, #690, #678, #665 ) ) ;
#1019 = EDGE_LOOP ( 'NONE', ( #1060, #1046, #1058, #1068 ) ) ;
#1020 = ORIENTED_EDGE ( 'NONE', *, *, #819, .F. ) ;
#1021 = EDGE_LOOP ( 'NONE', ( #1081, #668, #686, #679, #708, #672, #662, #685, #706, #655, #702, #663, #704 ) ) ;
#1022 = ORIENTED_EDGE ( 'NONE', *, *, #796, .F. ) ;
#1023 = ORIENTED_EDGE ( 'NONE', *, *, #818, .F. ) ;
#1024 = ORIENTED_EDGE ( 'NONE', *, *, #790, .F. ) ;
#1025 = ORIENTED_EDGE ( 'NONE', *, *, #795, .F. ) ;
#1026 = ORIENTED_EDGE ( 'NONE', *, *, #839, .F. ) ;
#1027 = ORIENTED_EDGE ( 'NONE', *, *, #834, .F. ) ;
#1028 = ORIENTED_EDGE ( 'NONE', *, *, #786, .T. ) ;
#1029 = ORIENTED_EDGE ( 'NONE', *, *, #768, .T. ) ;
#1030 = ORIENTED_EDGE ( 'NONE', *, *, #809, .T. ) ;
#1031 = ORIENTED_EDGE ( 'NONE', *, *, #828, .F. ) ;
#1032 = ORIENTED_EDGE ( 'NONE', *, *, #806, .T. ) ;
#1033 = ORIENTED_EDGE ( 'NONE', *, *, #761, .T. ) ;
#1034 = ORIENTED_EDGE ( 'NONE', *, *, #825, .F. ) ;
#1035 = ORIENTED_EDGE ( 'NONE', *, *, #778, .F. ) ;
#1036 = ORIENTED_EDGE ( 'NONE', *, *, #789, .F. ) ;
#1037 = ORIENTED_EDGE ( 'NONE', *, *, #809, .F. ) ;
#1038 = ORIENTED_EDGE ( 'NONE', *, *, #849, .F. ) ;
#1039 = ORIENTED_EDGE ( 'NONE', *, *, #847, .T. ) ;
#1040 = ORIENTED_EDGE ( 'NONE', *, *, #777, .T. ) ;
#1041 = ORIENTED_EDGE ( 'NONE', *, *, #763, .T. ) ;
#1042 = ORIENTED_EDGE ( 'NONE', *, *, #789, .T. ) ;
#1043 = ORIENTED_EDGE ( 'NONE', *, *, #833, .F. ) ;
#1044 = ORIENTED_EDGE ( 'NONE', *, *, #757, .F. ) ;
#1045 = ORIENTED_EDGE ( 'NONE', *, *, #849, .T. ) ;
#1046 = ORIENTED_EDGE ( 'NONE', *, *, #771, .T. ) ;
#1047 = ORIENTED_EDGE ( 'NONE', *, *, #799, .F. ) ;
#1048 = ORIENTED_EDGE ( 'NONE', *, *, #765, .T. ) ;
#1049 = ORIENTED_EDGE ( 'NONE', *, *, #816, .F. ) ;
#1050 = ORIENTED_EDGE ( 'NONE', *, *, #782, .F. ) ;
#1051 = ORIENTED_EDGE ( 'NONE', *, *, #847, .F. ) ;
#1052 = ORIENTED_EDGE ( 'NONE', *, *, #784, .F. ) ;
#1053 = ORIENTED_EDGE ( 'NONE', *, *, #833, .T. ) ;
#1054 = CLOSED_SHELL ( 'NONE', ( #453, #471, #467, #474, #469, #476, #459, #462, #457, #456, #461, #477, #480, #458, #470, #465, #484, #473, #481, #464, #482, #468, #466, #478, #479, #455, #475, #483, #452, #472, #463, #454, #460 ) ) ;
#1055 = ORIENTED_EDGE ( 'NONE', *, *, #771, .F. ) ;
#1056 = ORIENTED_EDGE ( 'NONE', *, *, #781, .T. ) ;
#1057 = ORIENTED_EDGE ( 'NONE', *, *, #783, .T. ) ;
#1058 = ORIENTED_EDGE ( 'NONE', *, *, #762, .F. ) ;
#1059 = ORIENTED_EDGE ( 'NONE', *, *, #759, .T. ) ;
#1060 = ORIENTED_EDGE ( 'NONE', *, *, #768, .F. ) ;
#1061 = ORIENTED_EDGE ( 'NONE', *, *, #778, .T. ) ;
#1062 = ORIENTED_EDGE ( 'NONE', *, *, #763, .F. ) ;
#1063 = ORIENTED_EDGE ( 'NONE', *, *, #767, .T. ) ;
#1064 = ORIENTED_EDGE ( 'NONE', *, *, #757, .T. ) ;
#1065 = ORIENTED_EDGE ( 'NONE', *, *, #784, .T. ) ;
#1066 = ORIENTED_EDGE ( 'NONE', *, *, #762, .T. ) ;
#1067 = ORIENTED_EDGE ( 'NONE', *, *, #759, .F. ) ;
#1068 = ORIENTED_EDGE ( 'NONE', *, *, #761, .F. ) ;
#1069 = ORIENTED_EDGE ( 'NONE', *, *, #758, .T. ) ;
#1070 = ORIENTED_EDGE ( 'NONE', *, *, #777, .F. ) ;
#1071 = ORIENTED_EDGE ( 'NONE', *, *, #765, .F. ) ;
#1072 = ORIENTED_EDGE ( 'NONE', *, *, #785, .F. ) ;
#1073 = ORIENTED_EDGE ( 'NONE', *, *, #766, .F. ) ;
#1074 = ORIENTED_EDGE ( 'NONE', *, *, #769, .F. ) ;
#1075 = ORIENTED_EDGE ( 'NONE', *, *, #786, .F. ) ;
#1076 = ORIENTED_EDGE ( 'NONE', *, *, #774, .T. ) ;
#1077 = ORIENTED_EDGE ( 'NONE', *, *, #781, .F. ) ;
#1078 = ORIENTED_EDGE ( 'NONE', *, *, #775, .T. ) ;
#1079 = ORIENTED_EDGE ( 'NONE', *, *, #774, .F. ) ;
#1080 = ORIENTED_EDGE ( 'NONE', *, *, #780, .F. ) ;
#1081 = ORIENTED_EDGE ( 'NONE', *, *, #825, .T. ) ;
#1082 = ORIENTED_EDGE ( 'NONE', *, *, #760, .F. ) ;
#1083 = ORIENTED_EDGE ( 'NONE', *, *, #779, .F. ) ;
#1084 = VERTEX_POINT ( 'NONE', #34 ) ;
#1085 = VERTEX_POINT ( 'NONE', #433 ) ;
#1086 = VERTEX_POINT ( 'NONE', #748 ) ;
#1087 = VERTEX_POINT ( 'NONE', #749 ) ;
#1088 = VERTEX_POINT ( 'NONE', #897 ) ;
#1089 = VERTEX_POINT ( 'NONE', #909 ) ;
#1090 = VERTEX_POINT ( 'NONE', #846 ) ;
#1091 = VERTEX_POINT ( 'NONE', #487 ) ;
#1092 = VERTEX_POINT ( 'NONE', #488 ) ;
#1093 = VERTEX_POINT ( 'NONE', #451 ) ;
#1094 = VERTEX_POINT ( 'NONE', #752 ) ;
#1095 = VERTEX_POINT ( 'NONE', #1168 ) ;
#1096 = VERTEX_POINT ( 'NONE', #1169 ) ;
#1097 = VERTEX_POINT ( 'NONE', #1187 ) ;
#1098 = VERTEX_POINT ( 'NONE', #1191 ) ;
#1099 = VERTEX_POINT ( 'NONE', #1182 ) ;
#1100 = VERTEX_POINT ( 'NONE', #1188 ) ;
#1101 = VERTEX_POINT ( 'NONE', #1178 ) ;
#1102 = VERTEX_POINT ( 'NONE', #1157 ) ;
#1103 = VERTEX_POINT ( 'NONE', #1151 ) ;
#1104 = VERTEX_POINT ( 'NONE', #1183 ) ;
#1105 = VERTEX_POINT ( 'NONE', #1149 ) ;
#1106 = VERTEX_POINT ( 'NONE', #1154 ) ;
#1107 = VERTEX_POINT ( 'NONE', #1172 ) ;
#1108 = VERTEX_POINT ( 'NONE', #1139 ) ;
#1109 = VERTEX_POINT ( 'NONE', #1160 ) ;
#1110 = VERTEX_POINT ( 'NONE', #1189 ) ;
#1111 = VERTEX_POINT ( 'NONE', #1164 ) ;
#1112 = VERTEX_POINT ( 'NONE', #1190 ) ;
#1113 = VERTEX_POINT ( 'NONE', #1177 ) ;
#1114 = VERTEX_POINT ( 'NONE', #1165 ) ;
#1115 = VERTEX_POINT ( 'NONE', #1144 ) ;
#1116 = VERTEX_POINT ( 'NONE', #1196 ) ;
#1117 = VERTEX_POINT ( 'NONE', #1184 ) ;
#1118 = VERTEX_POINT ( 'NONE', #1197 ) ;
#1119 = VERTEX_POINT ( 'NONE', #1185 ) ;
#1120 = VERTEX_POINT ( 'NONE', #1163 ) ;
#1121 = VERTEX_POINT ( 'NONE', #1155 ) ;
#1122 = VERTEX_POINT ( 'NONE', #1166 ) ;
#1123 = VERTEX_POINT ( 'NONE', #1167 ) ;
#1124 = VERTEX_POINT ( 'NONE', #1186 ) ;
#1125 = VERTEX_POINT ( 'NONE', #1147 ) ;
#1126 = VERTEX_POINT ( 'NONE', #1152 ) ;
#1127 = VERTEX_POINT ( 'NONE', #1192 ) ;
#1128 = VERTEX_POINT ( 'NONE', #1194 ) ;
#1129 = VERTEX_POINT ( 'NONE', #1193 ) ;
#1130 = VERTEX_POINT ( 'NONE', #1179 ) ;
#1131 = EDGE_LOOP ( 'NONE', ( #1045, #1029 ) ) ;
#1132 = VERTEX_POINT ( 'NONE', #1146 ) ;
#1133 = EDGE_LOOP ( 'NONE', ( #1052, #1037, #1028, #1043 ) ) ;
#1134 = EDGE_LOOP ( 'NONE', ( #1055, #1038, #1033, #1036 ) ) ;
#1135 = EDGE_LOOP ( 'NONE', ( #1023, #1024, #1011, #1020 ) ) ;
#1136 = EDGE_LOOP ( 'NONE', ( #1044, #1053, #1040, #1042 ) ) ;
#1137 = EDGE_LOOP ( 'NONE', ( #1039, #1056 ) ) ;
#1138 = EDGE_LOOP ( 'NONE', ( #1001, #1005, #1034, #978 ) ) ;
#1139 = CARTESIAN_POINT ( 'NONE',  ( -5.000000000000000000, 0.0000000000000000000, 12.50000000000000000 ) ) ;
#1140 = APPLICATION_PROTOCOL_DEFINITION ( 'international standard', 'config_control_design', 1994, #1174 ) ;
#1141 = DIRECTION ( 'NONE',  ( 0.0000000000000000000, 0.0000000000000000000, 1.000000000000000000 ) ) ;
#1142 = APPROVAL_ROLE ( '' ) ;
#1143 = PERSON_AND_ORGANIZATION_ROLE ( 'creator' ) ;
#1144 = CARTESIAN_POINT ( 'NONE',  ( 2.367136103677465600, -3.900000000000001200, 0.2000000000000000900 ) ) ;
#1145 = DATE_TIME_ROLE ( 'creation_date' ) ;
#1146 = CARTESIAN_POINT ( 'NONE',  ( 2.193930905494200400, -3.999999999999984500, 2.999565609516131400 ) ) ;
#1147 = CARTESIAN_POINT ( 'NONE',  ( -5.200000000000000200, 0.0000000000000000000, 35.50000000000000700 ) ) ;
#1148 = PERSON_AND_ORGANIZATION_ROLE ( 'creator' ) ;
#1149 = CARTESIAN_POINT ( 'NONE',  ( -2.193930908752363100, 3.999999999999982700, 2.999566065618614300 ) ) ;
#1150 = PERSON_AND_ORGANIZATION_ROLE ( 'design_supplier' ) ;
#1151 = CARTESIAN_POINT ( 'NONE',  ( 2.193930964254087200, 3.999999999999982700, 2.999564096860207800 ) ) ;
#1152 = CARTESIAN_POINT ( 'NONE',  ( 4.818802153517004200, 0.0000000000000000000, 0.0000000000000000000 ) ) ;
#1153 = APPLICATION_PROTOCOL_DEFINITION ( 'international standard', 'config_control_design', 1994, #1170 ) ;
#1154 = CARTESIAN_POINT ( 'NONE',  ( 5.200000000000002800, 0.0000000000000000000, 12.50000000000000000 ) ) ;
#1155 = CARTESIAN_POINT ( 'NONE',  ( 4.587862045841160500, -1.016439536705158400E-015, 2.999062492561043400 ) ) ;
#1156 =( LENGTH_UNIT ( ) NAMED_UNIT ( * ) SI_UNIT ( .MILLI., .METRE. ) );
#1157 = CARTESIAN_POINT ( 'NONE',  ( -8.500000000000000000, 0.0000000000000000000, 5.500000000000000000 ) ) ;
#1158 = CARTESIAN_POINT ( 'NONE',  ( 0.0000000000000000000, 0.0000000000000000000, 0.0000000000000000000 ) ) ;
#1159 = APPROVAL_STATUS ( 'not_yet_approved' ) ;
#1160 = CARTESIAN_POINT ( 'NONE',  ( 5.200000000000000200, 6.858022075225177600E-016, 35.50000000000000700 ) ) ;
#1161 = APPROVAL_ROLE ( '' ) ;
#1162 = DATE_TIME_ROLE ( 'classification_date' ) ;
#1163 = CARTESIAN_POINT ( 'NONE',  ( 4.618802153517005000, 0.0000000000000000000, 0.2000000000000000100 ) ) ;
#1164 = CARTESIAN_POINT ( 'NONE',  ( -5.000000000000000000, 0.0000000000000000000, 5.500000000000000000 ) ) ;
#1165 = CARTESIAN_POINT ( 'NONE',  ( -2.367136103677465600, -3.899999999999999900, 0.2000000000000000900 ) ) ;
#1166 = CARTESIAN_POINT ( 'NONE',  ( 5.000000000000000000, 6.123233995736766300E-016, 5.500000000000000000 ) ) ;
#1167 = CARTESIAN_POINT ( 'NONE',  ( 4.561066498855503000, 0.1000010872662108600, 2.999496288371204000 ) ) ;
#1168 = CARTESIAN_POINT ( 'NONE',  ( 8.500000000000000000, 1.040949779275250100E-015, 3.000000000000000000 ) ) ;
#1169 = CARTESIAN_POINT ( 'NONE',  ( 4.561065866417138200, -0.1000021826814758700, 2.999492512462543100 ) ) ;
#1170 = APPLICATION_CONTEXT ( 'configuration controlled 3d designs of mechanical parts and assemblies' ) ;
#1171 = PERSON_AND_ORGANIZATION_ROLE ( 'design_owner' ) ;
#1172 = CARTESIAN_POINT ( 'NONE',  ( -4.618802153517005000, 5.778865953114235800E-016, 0.2000000000000000100 ) ) ;
#1173 = MECHANICAL_CONTEXT ( 'NONE', #1170, 'mechanical' ) ;
#1174 = APPLICATION_CONTEXT ( 'configuration controlled 3d designs of mechanical parts and assemblies' ) ;
#1175 = SECURITY_CLASSIFICATION_LEVEL ( 'unclassified' ) ;
#1176 = PERSON_AND_ORGANIZATION_ROLE ( 'classification_officer' ) ;
#1177 = CARTESIAN_POINT ( 'NONE',  ( 8.500000000000000000, 1.040949779275250100E-015, 5.500000000000000000 ) ) ;
#1178 = CARTESIAN_POINT ( 'NONE',  ( 2.193931022920578800, -4.000000000000000000, 0.2000000000000000900 ) ) ;
#1179 = CARTESIAN_POINT ( 'NONE',  ( -2.367136513090422100, -3.899999290874282200, 2.999544694916294500 ) ) ;
#1180 = DIRECTION ( 'NONE',  ( 1.000000000000000000, 0.0000000000000000000, 0.0000000000000000000 ) ) ;
#1181 = APPROVAL_STATUS ( 'not_yet_approved' ) ;
#1182 = CARTESIAN_POINT ( 'NONE',  ( -4.561067126598041800, -0.09999999999999896500, 0.2000000000000000900 ) ) ;
#1183 = CARTESIAN_POINT ( 'NONE',  ( 2.367136501575279900, 3.899999310819187900, 2.999554612149190300 ) ) ;
#1184 = CARTESIAN_POINT ( 'NONE',  ( -2.367136134994080300, 3.899999945757993000, 2.999552657532591900 ) ) ;
#1185 = CARTESIAN_POINT ( 'NONE',  ( -4.818802153517004200, 5.901330633028971300E-016, 0.0000000000000000000 ) ) ;
#1186 = CARTESIAN_POINT ( 'NONE',  ( -6.000000000000000900, 0.0000000000000000000, 34.69999999999999600 ) ) ;
#1187 = CARTESIAN_POINT ( 'NONE',  ( 4.561067126598043600, -0.1000000000000010000, 0.2000000000000000900 ) ) ;
#1188 = CARTESIAN_POINT ( 'NONE',  ( 4.561067126598044500, 0.09999999999999809000, 0.2000000000000000900 ) ) ;
#1189 = CARTESIAN_POINT ( 'NONE',  ( -5.500000000000000900, 8.572527594031473200E-016, 0.0000000000000000000 ) ) ;
#1190 = CARTESIAN_POINT ( 'NONE',  ( -2.367136103677464300, 3.900000000000000800, 0.2000000000000000900 ) ) ;
#1191 = CARTESIAN_POINT ( 'NONE',  ( 2.367136103677466500, 3.899999999999999000, 0.2000000000000000900 ) ) ;
#1192 = CARTESIAN_POINT ( 'NONE',  ( -4.561066503099160000, -0.1000010799161922500, 2.999498817021389700 ) ) ;
#1193 = CARTESIAN_POINT ( 'NONE',  ( 2.367136302832799600, -3.899999655051258300, 2.999552129378146900 ) ) ;
#1194 = CARTESIAN_POINT ( 'NONE',  ( -2.193930933581012000, -3.999999999999961800, 2.999555675495076300 ) ) ;
#1195 =( NAMED_UNIT ( * ) PLANE_ANGLE_UNIT ( ) SI_UNIT ( $, .RADIAN. ) );
#1196 = CARTESIAN_POINT ( 'NONE',  ( -4.561065866013328800, 0.1000021833808818200, 2.999488647489831500 ) ) ;
#1197 = CARTESIAN_POINT ( 'NONE',  ( 2.193931022920579300, 3.999999999999999100, 0.2000000000000000900 ) ) ;
#1198 =( NAMED_UNIT ( * ) SI_UNIT ( $, .STERADIAN. ) SOLID_ANGLE_UNIT ( ) );
#1199 = APPROVAL_ROLE ( '' ) ;
#1200 = APPROVAL_STATUS ( 'not_yet_approved' ) ;
ENDSEC;
END-ISO-10303-21;
