ISO-10303-21;
HEADER;
FILE_DESCRIPTION (( 'STEP AP203' ),
    '1' );
FILE_NAME ('ALP0640.STEP',
    '2017-02-01T15:53:47',
    ( '' ),
    ( '' ),
    'SwSTEP 2.0',
    'SolidWorks 2012',
    '' );
FILE_SCHEMA (( 'CONFIG_CONTROL_DESIGN' ));
ENDSEC;

DATA;
#1 = CC_DESIGN_SECURITY_CLASSIFICATION ( #85, ( #69 ) ) ;
#2 = CC_DESIGN_APPROVAL ( #3, ( #85 ) ) ;
#3 = APPROVAL ( #402, 'UNSPECIFIED' ) ;
#4 = CC_DESIGN_PERSON_AND_ORGANIZATION_ASSIGNMENT ( #711, #401, ( #85 ) ) ;
#5 = PRODUCT_RELATED_PRODUCT_CATEGORY ( 'detail', '', ( #333 ) ) ;
#6 = CC_DESIGN_DATE_AND_TIME_ASSIGNMENT ( #675, #415, ( #85 ) ) ;
#7 = EDGE_CURVE ( 'NONE', #545, #524, #570, .T. ) ;
#8 = EDGE_CURVE ( 'NONE', #496, #505, #245, .T. ) ;
#9 = EDGE_CURVE ( 'NONE', #533, #519, #249, .T. ) ;
#10 = EDGE_CURVE ( 'NONE', #532, #535, #575, .T. ) ;
#11 = EDGE_CURVE ( 'NONE', #488, #498, #587, .T. ) ;
#12 = EDGE_CURVE ( 'NONE', #531, #514, #552, .T. ) ;
#13 = EDGE_CURVE ( 'NONE', #548, #534, #576, .T. ) ;
#14 = EDGE_CURVE ( 'NONE', #542, #487, #607, .T. ) ;
#15 = EDGE_CURVE ( 'NONE', #550, #512, #592, .T. ) ;
#16 = EDGE_CURVE ( 'NONE', #512, #490, #553, .T. ) ;
#17 = EDGE_CURVE ( 'NONE', #529, #547, #242, .T. ) ;
#18 = EDGE_CURVE ( 'NONE', #539, #536, #606, .T. ) ;
#19 = EDGE_CURVE ( 'NONE', #500, #526, #564, .T. ) ;
#20 = EDGE_CURVE ( 'NONE', #534, #539, #579, .T. ) ;
#21 = EDGE_CURVE ( 'NONE', #526, #520, #580, .T. ) ;
#22 = EDGE_CURVE ( 'NONE', #498, #512, #605, .T. ) ;
#23 = EDGE_CURVE ( 'NONE', #524, #488, #565, .T. ) ;
#24 = EDGE_CURVE ( 'NONE', #497, #536, #555, .T. ) ;
#25 = EDGE_CURVE ( 'NONE', #501, #513, #594, .T. ) ;
#26 = EDGE_CURVE ( 'NONE', #545, #511, #595, .T. ) ;
#27 = EDGE_CURVE ( 'NONE', #535, #522, #559, .T. ) ;
#28 = EDGE_CURVE ( 'NONE', #511, #488, #597, .T. ) ;
#29 = EDGE_CURVE ( 'NONE', #501, #525, #608, .T. ) ;
#30 = EDGE_CURVE ( 'NONE', #535, #532, #556, .T. ) ;
#31 = EDGE_CURVE ( 'NONE', #532, #529, #560, .T. ) ;
#32 = EDGE_CURVE ( 'NONE', #529, #540, #604, .T. ) ;
#33 = EDGE_CURVE ( 'NONE', #492, #525, #252, .T. ) ;
#34 = EDGE_CURVE ( 'NONE', #514, #524, #562, .T. ) ;
#35 = EDGE_CURVE ( 'NONE', #519, #529, #248, .T. ) ;
#36 = EDGE_CURVE ( 'NONE', #540, #500, #638, .T. ) ;
#37 = EDGE_CURVE ( 'NONE', #543, #504, #649, .T. ) ;
#38 = EDGE_CURVE ( 'NONE', #511, #549, #614, .T. ) ;
#39 = EDGE_CURVE ( 'NONE', #496, #543, #639, .T. ) ;
#40 = EDGE_CURVE ( 'NONE', #490, #539, #651, .T. ) ;
#41 = EDGE_CURVE ( 'NONE', #533, #525, #645, .T. ) ;
#42 = EDGE_CURVE ( 'NONE', #497, #542, #665, .T. ) ;
#43 = EDGE_CURVE ( 'NONE', #513, #526, #642, .T. ) ;
#44 = EDGE_CURVE ( 'NONE', #521, #531, #669, .T. ) ;
#45 = EDGE_CURVE ( 'NONE', #513, #521, #671, .T. ) ;
#46 = EDGE_CURVE ( 'NONE', #547, #543, #244, .T. ) ;
#47 = EDGE_CURVE ( 'NONE', #487, #522, #612, .T. ) ;
#48 = EDGE_CURVE ( 'NONE', #505, #522, #250, .T. ) ;
#49 = EDGE_CURVE ( 'NONE', #534, #497, #628, .T. ) ;
#50 = EDGE_CURVE ( 'NONE', #519, #492, #634, .T. ) ;
#51 = AXIS2_PLACEMENT_3D ( 'NONE', #306, #300, #297 ) ;
#52 = EDGE_CURVE ( 'NONE', #521, #520, #623, .T. ) ;
#53 = EDGE_CURVE ( 'NONE', #531, #545, #624, .T. ) ;
#54 = EDGE_CURVE ( 'NONE', #522, #492, #246, .T. ) ;
#55 = EDGE_CURVE ( 'NONE', #533, #500, #613, .T. ) ;
#56 = EDGE_CURVE ( 'NONE', #536, #504, #635, .T. ) ;
#57 = AXIS2_PLACEMENT_3D ( 'NONE', #287, #278, #288 ) ;
#58 = EDGE_CURVE ( 'NONE', #504, #540, #636, .T. ) ;
#59 = EDGE_CURVE ( 'NONE', #542, #496, #653, .T. ) ;
#60 = EDGE_CURVE ( 'NONE', #505, #547, #662, .T. ) ;
#61 = EDGE_CURVE ( 'NONE', #520, #514, #655, .T. ) ;
#62 = EDGE_CURVE ( 'NONE', #487, #501, #618, .T. ) ;
#63 = EDGE_CURVE ( 'NONE', #548, #490, #620, .T. ) ;
#64 = EDGE_CURVE ( 'NONE', #549, #498, #667, .T. ) ;
#65 = EDGE_CURVE ( 'NONE', #550, #548, #626, .T. ) ;
#66 = EDGE_CURVE ( 'NONE', #549, #550, #625, .T. ) ;
#67 = AXIS2_PLACEMENT_3D ( 'NONE', #121, #141, #113 ) ;
#68 =( GEOMETRIC_REPRESENTATION_CONTEXT ( 3 ) GLOBAL_UNCERTAINTY_ASSIGNED_CONTEXT ( ( #251 ) ) GLOBAL_UNIT_ASSIGNED_CONTEXT ( ( #407, #412, #422 ) ) REPRESENTATION_CONTEXT ( 'NONE', 'WORKASPACE' ) );
#69 = PRODUCT_DEFINITION_FORMATION_WITH_SPECIFIED_SOURCE ( 'ANY', '', #333, .NOT_KNOWN. ) ;
#70 = AXIS2_PLACEMENT_3D ( 'NONE', #117, #112, #120 ) ;
#71 = AXIS2_PLACEMENT_3D ( 'NONE', #232, #235, #238 ) ;
#72 = AXIS2_PLACEMENT_3D ( 'NONE', #189, #215, #203 ) ;
#73 = AXIS2_PLACEMENT_3D ( 'NONE', #378, #353, #386 ) ;
#74 = AXIS2_PLACEMENT_3D ( 'NONE', #188, #221, #192 ) ;
#75 = AXIS2_PLACEMENT_3D ( 'NONE', #110, #107, #152 ) ;
#76 = AXIS2_PLACEMENT_3D ( 'NONE', #133, #155, #122 ) ;
#77 = CC_DESIGN_PERSON_AND_ORGANIZATION_ASSIGNMENT ( #672, #399, ( #333 ) ) ;
#78 = APPROVAL ( #421, 'UNSPECIFIED' ) ;
#79 = AXIS2_PLACEMENT_3D ( 'NONE', #137, #131, #126 ) ;
#80 = APPROVAL ( #398, 'UNSPECIFIED' ) ;
#81 = CC_DESIGN_APPROVAL ( #80, ( #69 ) ) ;
#82 = CC_DESIGN_PERSON_AND_ORGANIZATION_ASSIGNMENT ( #708, #400, ( #69 ) ) ;
#83 = CC_DESIGN_APPROVAL ( #78, ( #98 ) ) ;
#84 = CC_DESIGN_PERSON_AND_ORGANIZATION_ASSIGNMENT ( #709, #405, ( #69 ) ) ;
#85 = SECURITY_CLASSIFICATION ( '', '', #414 ) ;
#86 = AXIS2_PLACEMENT_3D ( 'NONE', #371, #385, #363 ) ;
#87 = AXIS2_PLACEMENT_3D ( 'NONE', #222, #214, #207 ) ;
#88 = AXIS2_PLACEMENT_3D ( 'NONE', #228, #201, #194 ) ;
#89 = AXIS2_PLACEMENT_3D ( 'NONE', #184, #179, #185 ) ;
#90 = AXIS2_PLACEMENT_3D ( 'NONE', #216, #218, #231 ) ;
#91 = AXIS2_PLACEMENT_3D ( 'NONE', #119, #153, #154 ) ;
#92 = AXIS2_PLACEMENT_3D ( 'NONE', #226, #195, #200 ) ;
#93 = AXIS2_PLACEMENT_3D ( 'NONE', #118, #156, #143 ) ;
#94 = AXIS2_PLACEMENT_3D ( 'NONE', #180, #198, #187 ) ;
#95 = AXIS2_PLACEMENT_3D ( 'NONE', #217, #213, #205 ) ;
#96 = AXIS2_PLACEMENT_3D ( 'NONE', #132, #158, #146 ) ;
#97 = AXIS2_PLACEMENT_3D ( 'NONE', #140, #138, #142 ) ;
#98 = PRODUCT_DEFINITION ( 'UNKNOWN', '', #69, #253 ) ;
#99 = CC_DESIGN_PERSON_AND_ORGANIZATION_ASSIGNMENT ( #697, #404, ( #98 ) ) ;
#100 = AXIS2_PLACEMENT_3D ( 'NONE', #199, #224, #225 ) ;
#101 = CC_DESIGN_DATE_AND_TIME_ASSIGNMENT ( #673, #409, ( #98 ) ) ;
#102 = AXIS2_PLACEMENT_3D ( 'NONE', #394, #396, #397 ) ;
#103 = AXIS2_PLACEMENT_3D ( 'NONE', #410, #417, #418 ) ;
#104 = AXIS2_PLACEMENT_3D ( 'NONE', #190, #191, #219 ) ;
#105 = AXIS2_PLACEMENT_3D ( 'NONE', #144, #145, #147 ) ;
#106 = CARTESIAN_POINT ( 'NONE',  ( -0.1250000000000070800, 0.3750000000000003300, 1.645258338377287600 ) ) ;
#107 = DIRECTION ( 'NONE',  ( -0.0000000000000000000, -1.000000000000000000, -0.0000000000000000000 ) ) ;
#108 = PLANE ( 'NONE',  #76 ) ;
#109 = CARTESIAN_POINT ( 'NONE',  ( 9.800000000000000700, 7.500000000000000000, -10.00000000000000000 ) ) ;
#110 = CARTESIAN_POINT ( 'NONE',  ( 0.0000000000000000000, -1.734723475976807100E-015, 0.0000000000000000000 ) ) ;
#111 = PLANE ( 'NONE',  #97 ) ;
#112 = DIRECTION ( 'NONE',  ( 1.000000000000000000, 0.0000000000000000000, 0.0000000000000000000 ) ) ;
#113 = DIRECTION ( 'NONE',  ( 0.0000000000000000000, 0.0000000000000000000, -1.000000000000000000 ) ) ;
#114 = CARTESIAN_POINT ( 'NONE',  ( -4.900000000000000400, 0.0000000000000000000, 10.00000000000000000 ) ) ;
#115 = CARTESIAN_POINT ( 'NONE',  ( 0.1250000000000089400, 0.3750000000000003300, 1.645258338377287400 ) ) ;
#116 = CARTESIAN_POINT ( 'NONE',  ( 6.800000000000068200, 10.49999999999999800, 10.00000000000000000 ) ) ;
#117 = CARTESIAN_POINT ( 'NONE',  ( -9.800000000000000700, 5.000000000000000000, 10.00000000000000000 ) ) ;
#118 = CARTESIAN_POINT ( 'NONE',  ( 0.5000000000000001100, 0.0000000000000000000, 10.00000000000000000 ) ) ;
#119 = CARTESIAN_POINT ( 'NONE',  ( -4.900000000000000400, 0.0000000000000000000, 10.00000000000000000 ) ) ;
#120 = DIRECTION ( 'NONE',  ( 0.0000000000000000000, 0.0000000000000000000, -1.000000000000000000 ) ) ;
#121 = CARTESIAN_POINT ( 'NONE',  ( 0.0000000000000000000, 0.0000000000000000000, 0.0000000000000000000 ) ) ;
#122 = DIRECTION ( 'NONE',  ( 0.0000000000000000000, 0.0000000000000000000, 1.000000000000000000 ) ) ;
#123 = CARTESIAN_POINT ( 'NONE',  ( -9.800000000000000700, 5.000000000000000000, -10.00000000000000000 ) ) ;
#124 = PLANE ( 'NONE',  #91 ) ;
#125 = CARTESIAN_POINT ( 'NONE',  ( 4.900000000000000400, 0.0000000000000000000, -10.00000000000000000 ) ) ;
#126 = DIRECTION ( 'NONE',  ( 0.0000000000000000000, 0.0000000000000000000, 1.000000000000000000 ) ) ;
#127 = CARTESIAN_POINT ( 'NONE',  ( -6.800000000000070000, 10.49999999999999800, -10.00000000000000000 ) ) ;
#128 = CARTESIAN_POINT ( 'NONE',  ( 1.224646799147351300E-015, 0.5000000000000111000, 10.00000000000000000 ) ) ;
#129 = CARTESIAN_POINT ( 'NONE',  ( 9.800000000000000700, 5.000000000000000000, -10.00000000000000000 ) ) ;
#130 = CARTESIAN_POINT ( 'NONE',  ( 0.5000000000000001100, 0.0000000000000000000, 10.00000000000000000 ) ) ;
#131 = DIRECTION ( 'NONE',  ( -1.000000000000000000, 0.0000000000000000000, 0.0000000000000000000 ) ) ;
#132 = CARTESIAN_POINT ( 'NONE',  ( 0.0000000000000000000, 0.0000000000000000000, 0.0000000000000000000 ) ) ;
#133 = CARTESIAN_POINT ( 'NONE',  ( -0.5000000000000001100, 0.0000000000000000000, 10.00000000000000000 ) ) ;
#134 = PLANE ( 'NONE',  #70 ) ;
#135 = PLANE ( 'NONE',  #79 ) ;
#136 = CARTESIAN_POINT ( 'NONE',  ( -9.800000000000000700, 7.500000000000000000, -10.00000000000000000 ) ) ;
#137 = CARTESIAN_POINT ( 'NONE',  ( 9.800000000000000700, 5.000000000000000000, 10.00000000000000000 ) ) ;
#138 = DIRECTION ( 'NONE',  ( -0.7071067811865553400, -0.7071067811865396900, 0.0000000000000000000 ) ) ;
#139 = PLANE ( 'NONE',  #105 ) ;
#140 = CARTESIAN_POINT ( 'NONE',  ( 9.800000000000000700, 7.500000000000000000, 10.00000000000000000 ) ) ;
#141 = DIRECTION ( 'NONE',  ( -0.0000000000000000000, -1.000000000000000000, -0.0000000000000000000 ) ) ;
#142 = DIRECTION ( 'NONE',  ( 0.7071067811865396900, -0.7071067811865553400, 0.0000000000000000000 ) ) ;
#143 = DIRECTION ( 'NONE',  ( 0.0000000000000000000, -0.0000000000000000000, 1.000000000000000000 ) ) ;
#144 = CARTESIAN_POINT ( 'NONE',  ( 4.900000000000000400, 5.000000000000000000, 10.00000000000000000 ) ) ;
#145 = DIRECTION ( 'NONE',  ( 0.0000000000000000000, 1.000000000000000000, 0.0000000000000000000 ) ) ;
#146 = DIRECTION ( 'NONE',  ( 0.0000000000000000000, 0.0000000000000000000, -1.000000000000000000 ) ) ;
#147 = DIRECTION ( 'NONE',  ( 0.0000000000000000000, -0.0000000000000000000, 1.000000000000000000 ) ) ;
#148 = PLANE ( 'NONE',  #93 ) ;
#149 = CARTESIAN_POINT ( 'NONE',  ( 6.800000000000068200, 10.49999999999999800, -10.00000000000000000 ) ) ;
#150 = CARTESIAN_POINT ( 'NONE',  ( 0.5000000000000001100, 0.0000000000000000000, -10.00000000000000000 ) ) ;
#151 = CARTESIAN_POINT ( 'NONE',  ( -0.5000000000000001100, 0.0000000000000000000, -10.00000000000000000 ) ) ;
#152 = DIRECTION ( 'NONE',  ( 0.0000000000000000000, 0.0000000000000000000, -1.000000000000000000 ) ) ;
#153 = DIRECTION ( 'NONE',  ( 1.000000000000000000, 0.0000000000000000000, 0.0000000000000000000 ) ) ;
#154 = DIRECTION ( 'NONE',  ( 0.0000000000000000000, 0.0000000000000000000, -1.000000000000000000 ) ) ;
#155 = DIRECTION ( 'NONE',  ( 0.0000000000000000000, 1.000000000000000000, -0.0000000000000000000 ) ) ;
#156 = DIRECTION ( 'NONE',  ( 0.0000000000000000000, 1.000000000000000000, 0.0000000000000000000 ) ) ;
#157 = CARTESIAN_POINT ( 'NONE',  ( -0.5000000000000018900, -1.734723475976807100E-015, 1.962300945319039000 ) ) ;
#158 = DIRECTION ( 'NONE',  ( -0.0000000000000000000, -1.000000000000000000, -0.0000000000000000000 ) ) ;
#159 = CARTESIAN_POINT ( 'NONE',  ( 4.900000000000000400, 0.0000000000000000000, 10.00000000000000000 ) ) ;
#160 = CARTESIAN_POINT ( 'NONE',  ( 4.900000000000000400, 5.000000000000000000, 10.00000000000000000 ) ) ;
#161 = CARTESIAN_POINT ( 'NONE',  ( 9.800000000000000700, 5.000000000000000000, 10.00000000000000000 ) ) ;
#162 = CARTESIAN_POINT ( 'NONE',  ( -4.900000000000000400, 5.000000000000000000, -10.00000000000000000 ) ) ;
#163 = CARTESIAN_POINT ( 'NONE',  ( -0.5000000000000001100, 0.0000000000000000000, 10.00000000000000000 ) ) ;
#164 = CARTESIAN_POINT ( 'NONE',  ( 1.224646799147351300E-015, 0.5000000000000111000, -10.00000000000000000 ) ) ;
#165 = CARTESIAN_POINT ( 'NONE',  ( -4.900000000000000400, 5.000000000000000000, 10.00000000000000000 ) ) ;
#166 = CARTESIAN_POINT ( 'NONE',  ( 0.5000000000000020000, -1.734723475976807100E-015, -1.962300945319039000 ) ) ;
#167 = CARTESIAN_POINT ( 'NONE',  ( 1.224646799147351300E-015, 0.5000000000000111000, 1.650000000000000400 ) ) ;
#168 = CARTESIAN_POINT ( 'NONE',  ( 0.1250000000000089400, 0.3750000000000003300, -1.645258338377287400 ) ) ;
#169 = CARTESIAN_POINT ( 'NONE',  ( 0.5000000000000020000, -1.734723475976807100E-015, 1.962300945319039000 ) ) ;
#170 = CARTESIAN_POINT ( 'NONE',  ( 1.224646799147351300E-015, 0.5000000000000111000, -1.649999999999997000 ) ) ;
#171 = CARTESIAN_POINT ( 'NONE',  ( -4.900000000000000400, 0.0000000000000000000, -10.00000000000000000 ) ) ;
#172 = CARTESIAN_POINT ( 'NONE',  ( 9.800000000000000700, 7.500000000000000000, 10.00000000000000000 ) ) ;
#173 = CARTESIAN_POINT ( 'NONE',  ( -6.800000000000070000, 10.49999999999999800, 10.00000000000000000 ) ) ;
#174 = CARTESIAN_POINT ( 'NONE',  ( 4.900000000000000400, 5.000000000000000000, -10.00000000000000000 ) ) ;
#175 = CARTESIAN_POINT ( 'NONE',  ( -0.5000000000000018900, -1.734723475976807100E-015, -1.962300945319039000 ) ) ;
#176 = CARTESIAN_POINT ( 'NONE',  ( 0.0000000000000000000, 10.49999999999999800, -1.649999999999997500 ) ) ;
#177 = CARTESIAN_POINT ( 'NONE',  ( 2.020667218593129800E-016, 10.49999999999999800, 1.649999999999997500 ) ) ;
#178 = CARTESIAN_POINT ( 'NONE',  ( -6.800000000000070000, 10.49999999999999800, 10.00000000000000000 ) ) ;
#179 = DIRECTION ( 'NONE',  ( 0.7071067811865555700, -0.7071067811865394700, 0.0000000000000000000 ) ) ;
#180 = CARTESIAN_POINT ( 'NONE',  ( -4.900000000000000400, 5.000000000000000000, 10.00000000000000000 ) ) ;
#181 = PLANE ( 'NONE',  #74 ) ;
#182 = CARTESIAN_POINT ( 'NONE',  ( -9.800000000000000700, 7.500000000000000000, 10.00000000000000000 ) ) ;
#183 = CARTESIAN_POINT ( 'NONE',  ( -9.800000000000000700, 5.000000000000000000, 10.00000000000000000 ) ) ;
#184 = CARTESIAN_POINT ( 'NONE',  ( -9.800000000000000700, 7.500000000000000000, 10.00000000000000000 ) ) ;
#185 = DIRECTION ( 'NONE',  ( 0.7071067811865394700, 0.7071067811865555700, 0.0000000000000000000 ) ) ;
#186 = DIRECTION ( 'NONE',  ( -0.0000000000000000000, -0.0000000000000000000, -1.000000000000000000 ) ) ;
#187 = DIRECTION ( 'NONE',  ( 0.0000000000000000000, 0.0000000000000000000, 1.000000000000000000 ) ) ;
#188 = CARTESIAN_POINT ( 'NONE',  ( 1.224646799147351300E-015, 0.5000000000000111000, 10.00000000000000000 ) ) ;
#189 = CARTESIAN_POINT ( 'NONE',  ( 6.800000000000068200, 10.49999999999999800, 10.00000000000000000 ) ) ;
#190 = CARTESIAN_POINT ( 'NONE',  ( 1.224646799147351300E-015, 0.5000000000000111000, 10.00000000000000000 ) ) ;
#191 = DIRECTION ( 'NONE',  ( -0.7071067811865544600, 0.7071067811865406900, 0.0000000000000000000 ) ) ;
#192 = DIRECTION ( 'NONE',  ( -0.7071067811865390200, 0.7071067811865561200, 0.0000000000000000000 ) ) ;
#193 = DIRECTION ( 'NONE',  ( -0.7071067811865394700, -0.7071067811865555700, -0.0000000000000000000 ) ) ;
#194 = DIRECTION ( 'NONE',  ( -0.7071067811865390200, 0.7071067811865561200, 0.0000000000000000000 ) ) ;
#195 = DIRECTION ( 'NONE',  ( 0.0000000000000000000, 0.0000000000000000000, -1.000000000000000000 ) ) ;
#196 = PLANE ( 'NONE',  #95 ) ;
#197 = PLANE ( 'NONE',  #100 ) ;
#198 = DIRECTION ( 'NONE',  ( 0.0000000000000000000, 1.000000000000000000, -0.0000000000000000000 ) ) ;
#199 = CARTESIAN_POINT ( 'NONE',  ( 0.0000000000000000000, 0.0000000000000000000, 10.00000000000000000 ) ) ;
#200 = DIRECTION ( 'NONE',  ( -1.000000000000000000, 0.0000000000000000000, 0.0000000000000000000 ) ) ;
#201 = DIRECTION ( 'NONE',  ( 0.7071067811865561200, 0.7071067811865390200, -0.0000000000000000000 ) ) ;
#202 = CARTESIAN_POINT ( 'NONE',  ( -9.800000000000000700, 5.000000000000000000, 10.00000000000000000 ) ) ;
#203 = DIRECTION ( 'NONE',  ( 0.0000000000000000000, -0.0000000000000000000, -1.000000000000000000 ) ) ;
#204 = PLANE ( 'NONE',  #72 ) ;
#205 = DIRECTION ( 'NONE',  ( -0.7071067811865406900, -0.7071067811865544600, 0.0000000000000000000 ) ) ;
#206 = PLANE ( 'NONE',  #87 ) ;
#207 = DIRECTION ( 'NONE',  ( 0.0000000000000000000, 0.0000000000000000000, 1.000000000000000000 ) ) ;
#208 = DIRECTION ( 'NONE',  ( -0.0000000000000000000, -0.0000000000000000000, -1.000000000000000000 ) ) ;
#209 = DIRECTION ( 'NONE',  ( 0.7071067811865390200, -0.7071067811865561200, 0.0000000000000000000 ) ) ;
#210 = PLANE ( 'NONE',  #89 ) ;
#211 = PLANE ( 'NONE',  #88 ) ;
#212 = PLANE ( 'NONE',  #92 ) ;
#213 = DIRECTION ( 'NONE',  ( -0.7071067811865544600, 0.7071067811865406900, 0.0000000000000000000 ) ) ;
#214 = DIRECTION ( 'NONE',  ( -1.000000000000000000, 0.0000000000000000000, 0.0000000000000000000 ) ) ;
#215 = DIRECTION ( 'NONE',  ( 0.0000000000000000000, -1.000000000000000000, 0.0000000000000000000 ) ) ;
#216 = CARTESIAN_POINT ( 'NONE',  ( 0.0000000000000000000, -1.734723475976807100E-015, 0.0000000000000000000 ) ) ;
#217 = CARTESIAN_POINT ( 'NONE',  ( 1.224646799147351300E-015, 0.5000000000000111000, 10.00000000000000000 ) ) ;
#218 = DIRECTION ( 'NONE',  ( -0.0000000000000000000, -1.000000000000000000, -0.0000000000000000000 ) ) ;
#219 = DIRECTION ( 'NONE',  ( -0.7071067811865406900, -0.7071067811865544600, 0.0000000000000000000 ) ) ;
#220 = PLANE ( 'NONE',  #94 ) ;
#221 = DIRECTION ( 'NONE',  ( 0.7071067811865561200, 0.7071067811865390200, -0.0000000000000000000 ) ) ;
#222 = CARTESIAN_POINT ( 'NONE',  ( 4.900000000000000400, 0.0000000000000000000, 10.00000000000000000 ) ) ;
#223 = DIRECTION ( 'NONE',  ( -0.0000000000000000000, -1.000000000000000000, -0.0000000000000000000 ) ) ;
#224 = DIRECTION ( 'NONE',  ( 0.0000000000000000000, 0.0000000000000000000, -1.000000000000000000 ) ) ;
#225 = DIRECTION ( 'NONE',  ( -1.000000000000000000, 0.0000000000000000000, 0.0000000000000000000 ) ) ;
#226 = CARTESIAN_POINT ( 'NONE',  ( 0.0000000000000000000, 0.0000000000000000000, -10.00000000000000000 ) ) ;
#227 = CARTESIAN_POINT ( 'NONE',  ( -9.800000000000000700, 5.000000000000000000, 10.00000000000000000 ) ) ;
#228 = CARTESIAN_POINT ( 'NONE',  ( 1.224646799147351300E-015, 0.5000000000000111000, 10.00000000000000000 ) ) ;
#229 = PLANE ( 'NONE',  #104 ) ;
#230 = CARTESIAN_POINT ( 'NONE',  ( 1.224646799147351300E-015, 0.5000000000000111000, 10.00000000000000000 ) ) ;
#231 = DIRECTION ( 'NONE',  ( 0.0000000000000000000, 0.0000000000000000000, -1.000000000000000000 ) ) ;
#232 = CARTESIAN_POINT ( 'NONE',  ( 0.0000000000000000000, 0.3750000000000003300, 0.0000000000000000000 ) ) ;
#233 = DIRECTION ( 'NONE',  ( -0.0000000000000000000, -0.0000000000000000000, -1.000000000000000000 ) ) ;
#234 = CARTESIAN_POINT ( 'NONE',  ( 4.900000000000000400, 5.000000000000000000, -10.00000000000000000 ) ) ;
#235 = DIRECTION ( 'NONE',  ( -0.0000000000000000000, -1.000000000000000000, -0.0000000000000000000 ) ) ;
#236 = DIRECTION ( 'NONE',  ( 1.000000000000000000, 0.0000000000000000000, 0.0000000000000000000 ) ) ;
#237 = DIRECTION ( 'NONE',  ( 0.7071067811865406900, 0.7071067811865544600, -0.0000000000000000000 ) ) ;
#238 = DIRECTION ( 'NONE',  ( 0.0000000000000000000, 0.0000000000000000000, -1.000000000000000000 ) ) ;
#239 = DIRECTION ( 'NONE',  ( 1.000000000000000000, -0.0000000000000000000, -0.0000000000000000000 ) ) ;
#240 = CARTESIAN_POINT ( 'NONE',  ( 1.224646799147351300E-015, 0.5000000000000111000, -10.00000000000000000 ) ) ;
#241 = CARTESIAN_POINT ( 'NONE',  ( -0.5000000000000001100, 0.0000000000000000000, 10.00000000000000000 ) ) ;
#242 =( BOUNDED_CURVE ( )  B_SPLINE_CURVE ( 3, ( #279, #284, #274, #282 ),
 .UNSPECIFIED., .F., .F. ) 
 B_SPLINE_CURVE_WITH_KNOTS ( ( 4, 4 ),
 ( 4.712388980384688800, 4.788219208711208100 ),
 .UNSPECIFIED. ) 
 CURVE ( )  GEOMETRIC_REPRESENTATION_ITEM ( )  RATIONAL_B_SPLINE_CURVE ( ( 1.000000000000000000, 0.9995208721078814300, 0.9995208721078814300, 1.000000000000000000 ) ) 
 REPRESENTATION_ITEM ( '' )  );
#243 = ADVANCED_BREP_SHAPE_REPRESENTATION ( 'ALP0640', ( #247, #103 ), #68 ) ;
#244 = B_SPLINE_CURVE_WITH_KNOTS ( 'NONE', 3,
 ( #358, #360, #361, #351 ),
 .UNSPECIFIED., .F., .F.,
 ( 4, 4 ),
 ( 3.378968984894215100E-007, 0.0006182100637836061100 ),
 .UNSPECIFIED. ) ;
#245 = B_SPLINE_CURVE_WITH_KNOTS ( 'NONE', 3,
 ( #342, #343, #344, #345 ),
 .UNSPECIFIED., .F., .F.,
 ( 4, 4 ),
 ( 3.225195998165696500E-007, 0.0006181946864849333200 ),
 .UNSPECIFIED. ) ;
#246 =( BOUNDED_CURVE ( )  B_SPLINE_CURVE ( 3, ( #388, #389, #395, #391 ),
 .UNSPECIFIED., .F., .F. ) 
 B_SPLINE_CURVE_WITH_KNOTS ( ( 4, 4 ),
 ( 4.712388980384690600, 4.788219208711209000 ),
 .UNSPECIFIED. ) 
 CURVE ( )  GEOMETRIC_REPRESENTATION_ITEM ( )  RATIONAL_B_SPLINE_CURVE ( ( 1.000000000000000000, 0.9995208721078814300, 0.9995208721078814300, 1.000000000000000000 ) ) 
 REPRESENTATION_ITEM ( '' )  );
#247 = MANIFOLD_SOLID_BREP ( 'M4 Tapped Hole1', #740 ) ;
#248 =( BOUNDED_CURVE ( )  B_SPLINE_CURVE ( 3, ( #382, #383, #384, #374 ),
 .UNSPECIFIED., .F., .F. ) 
 B_SPLINE_CURVE_WITH_KNOTS ( ( 4, 4 ),
 ( 1.494966098468377000, 1.570796326794895900 ),
 .UNSPECIFIED. ) 
 CURVE ( )  GEOMETRIC_REPRESENTATION_ITEM ( )  RATIONAL_B_SPLINE_CURVE ( ( 1.000000000000000000, 0.9995208721078814300, 0.9995208721078814300, 1.000000000000000000 ) ) 
 REPRESENTATION_ITEM ( '' )  );
#249 = B_SPLINE_CURVE_WITH_KNOTS ( 'NONE', 3,
 ( #339, #340, #335, #336 ),
 .UNSPECIFIED., .F., .F.,
 ( 4, 4 ),
 ( 3.225195998165466800E-007, 0.0006181946864849322400 ),
 .UNSPECIFIED. ) ;
#250 =( BOUNDED_CURVE ( )  B_SPLINE_CURVE ( 3, ( #354, #356, #364, #381 ),
 .UNSPECIFIED., .F., .F. ) 
 B_SPLINE_CURVE_WITH_KNOTS ( ( 4, 4 ),
 ( 1.494966098468378100, 1.570796326794897400 ),
 .UNSPECIFIED. ) 
 CURVE ( )  GEOMETRIC_REPRESENTATION_ITEM ( )  RATIONAL_B_SPLINE_CURVE ( ( 1.000000000000000000, 0.9995208721078814300, 0.9995208721078814300, 1.000000000000000000 ) ) 
 REPRESENTATION_ITEM ( '' )  );
#251 = UNCERTAINTY_MEASURE_WITH_UNIT (LENGTH_MEASURE( 1.000000000000000100E-005 ), #407, 'distance_accuracy_value', 'NONE');
#252 = B_SPLINE_CURVE_WITH_KNOTS ( 'NONE', 3,
 ( #264, #292, #293, #310 ),
 .UNSPECIFIED., .F., .F.,
 ( 4, 4 ),
 ( 3.378968984894379200E-007, 0.0006182100637836051400 ),
 .UNSPECIFIED. ) ;
#253 = DESIGN_CONTEXT ( 'detailed design', #420, 'design' ) ;
#254 = PRODUCT_DEFINITION_SHAPE ( 'NONE', 'NONE',  #98 ) ;
#255 = CARTESIAN_POINT ( 'NONE',  ( 9.800000000000000700, 7.500000000000000000, 10.00000000000000000 ) ) ;
#256 = DIRECTION ( 'NONE',  ( 1.000000000000000000, 0.0000000000000000000, 0.0000000000000000000 ) ) ;
#257 = DIRECTION ( 'NONE',  ( -0.7071067811865394700, -0.7071067811865555700, -0.0000000000000000000 ) ) ;
#258 = DIRECTION ( 'NONE',  ( -0.0000000000000000000, -0.0000000000000000000, -1.000000000000000000 ) ) ;
#259 = CARTESIAN_POINT ( 'NONE',  ( -4.900000000000000400, 5.000000000000000000, 10.00000000000000000 ) ) ;
#260 = DIRECTION ( 'NONE',  ( -0.0000000000000000000, -0.0000000000000000000, -1.000000000000000000 ) ) ;
#261 = DIRECTION ( 'NONE',  ( -0.0000000000000000000, -0.0000000000000000000, -1.000000000000000000 ) ) ;
#262 = CARTESIAN_POINT ( 'NONE',  ( -0.5000000000000001100, 0.0000000000000000000, -10.00000000000000000 ) ) ;
#263 = DIRECTION ( 'NONE',  ( -0.7071067811865396900, 0.7071067811865553400, 0.0000000000000000000 ) ) ;
#264 = CARTESIAN_POINT ( 'NONE',  ( 0.1250000000000089400, 0.3750000000000003300, 1.645258338377287400 ) ) ;
#265 = DIRECTION ( 'NONE',  ( -0.0000000000000000000, -0.0000000000000000000, -1.000000000000000000 ) ) ;
#266 = DIRECTION ( 'NONE',  ( 1.000000000000000000, 0.0000000000000000000, 0.0000000000000000000 ) ) ;
#267 = CARTESIAN_POINT ( 'NONE',  ( 9.800000000000000700, 5.000000000000000000, -10.00000000000000000 ) ) ;
#268 = CARTESIAN_POINT ( 'NONE',  ( 2.020667218593130000E-016, 0.0000000000000000000, 1.649999999999997900 ) ) ;
#269 = CARTESIAN_POINT ( 'NONE',  ( 0.5000000000000001100, 0.0000000000000000000, -10.00000000000000000 ) ) ;
#270 = CARTESIAN_POINT ( 'NONE',  ( -4.900000000000000400, 0.0000000000000000000, -10.00000000000000000 ) ) ;
#271 = DIRECTION ( 'NONE',  ( 0.0000000000000000000, 1.000000000000000000, 0.0000000000000000000 ) ) ;
#272 = DIRECTION ( 'NONE',  ( -0.0000000000000000000, -0.0000000000000000000, -1.000000000000000000 ) ) ;
#273 = CARTESIAN_POINT ( 'NONE',  ( -9.800000000000000700, 7.500000000000000000, -10.00000000000000000 ) ) ;
#274 = CARTESIAN_POINT ( 'NONE',  ( -0.08340326119238551700, 0.4165967388076225500, -1.648418688475303200 ) ) ;
#275 = CARTESIAN_POINT ( 'NONE',  ( 6.800000000000068200, 10.49999999999999800, 10.00000000000000000 ) ) ;
#276 = CARTESIAN_POINT ( 'NONE',  ( 0.5000000000000001100, 0.0000000000000000000, 10.00000000000000000 ) ) ;
#277 = CARTESIAN_POINT ( 'NONE',  ( 4.900000000000000400, 0.0000000000000000000, -10.00000000000000000 ) ) ;
#278 = DIRECTION ( 'NONE',  ( -0.0000000000000000000, -1.000000000000000000, -0.0000000000000000000 ) ) ;
#279 = CARTESIAN_POINT ( 'NONE',  ( 1.224646799147351300E-015, 0.5000000000000111000, -1.649999999999997000 ) ) ;
#280 = CARTESIAN_POINT ( 'NONE',  ( 9.800000000000000700, 7.500000000000000000, -10.00000000000000000 ) ) ;
#281 = DIRECTION ( 'NONE',  ( -0.0000000000000000000, -0.0000000000000000000, -1.000000000000000000 ) ) ;
#282 = CARTESIAN_POINT ( 'NONE',  ( -0.1250000000000070800, 0.3750000000000003300, -1.645258338377287600 ) ) ;
#283 = DIRECTION ( 'NONE',  ( -0.0000000000000000000, -1.000000000000000000, -0.0000000000000000000 ) ) ;
#284 = CARTESIAN_POINT ( 'NONE',  ( -0.04171662129381199100, 0.4582833787061968400, -1.649999999999997700 ) ) ;
#285 = CARTESIAN_POINT ( 'NONE',  ( 0.5000000000000001100, 0.0000000000000000000, 10.00000000000000000 ) ) ;
#286 = DIRECTION ( 'NONE',  ( -0.0000000000000000000, -1.000000000000000000, -0.0000000000000000000 ) ) ;
#287 = CARTESIAN_POINT ( 'NONE',  ( 0.0000000000000000000, 10.49999999999999800, 0.0000000000000000000 ) ) ;
#288 = DIRECTION ( 'NONE',  ( 0.0000000000000000000, 0.0000000000000000000, -1.000000000000000000 ) ) ;
#289 = CARTESIAN_POINT ( 'NONE',  ( 0.0000000000000000000, 0.0000000000000000000, -1.649999999999997900 ) ) ;
#290 = DIRECTION ( 'NONE',  ( -0.0000000000000000000, -1.000000000000000000, -0.0000000000000000000 ) ) ;
#291 = CARTESIAN_POINT ( 'NONE',  ( 1.224646799147351300E-015, 0.5000000000000111000, 10.00000000000000000 ) ) ;
#292 = CARTESIAN_POINT ( 'NONE',  ( 0.2469073964863234300, 0.2530926035136829000, 1.758255048562659800 ) ) ;
#293 = CARTESIAN_POINT ( 'NONE',  ( 0.3722835001588692400, 0.1277164998411340300, 1.863046209330494900 ) ) ;
#294 = DIRECTION ( 'NONE',  ( -0.0000000000000000000, -1.000000000000000000, -0.0000000000000000000 ) ) ;
#295 = DIRECTION ( 'NONE',  ( -0.7071067811865396900, 0.7071067811865553400, 0.0000000000000000000 ) ) ;
#296 = CARTESIAN_POINT ( 'NONE',  ( -4.900000000000000400, 0.0000000000000000000, 10.00000000000000000 ) ) ;
#297 = DIRECTION ( 'NONE',  ( 0.0000000000000000000, 0.0000000000000000000, -1.000000000000000000 ) ) ;
#298 = CARTESIAN_POINT ( 'NONE',  ( 1.224646799147351300E-015, 0.5000000000000111000, 10.00000000000000000 ) ) ;
#299 = DIRECTION ( 'NONE',  ( 0.0000000000000000000, 1.000000000000000000, 0.0000000000000000000 ) ) ;
#300 = DIRECTION ( 'NONE',  ( -0.0000000000000000000, -1.000000000000000000, -0.0000000000000000000 ) ) ;
#301 = DIRECTION ( 'NONE',  ( 0.7071067811865406900, 0.7071067811865544600, -0.0000000000000000000 ) ) ;
#302 = CARTESIAN_POINT ( 'NONE',  ( -4.900000000000000400, 5.000000000000000000, 10.00000000000000000 ) ) ;
#303 = DIRECTION ( 'NONE',  ( -1.000000000000000000, 0.0000000000000000000, 0.0000000000000000000 ) ) ;
#304 = CARTESIAN_POINT ( 'NONE',  ( -9.800000000000000700, 5.000000000000000000, -10.00000000000000000 ) ) ;
#305 = CARTESIAN_POINT ( 'NONE',  ( -9.800000000000000700, 7.500000000000000000, 10.00000000000000000 ) ) ;
#306 = CARTESIAN_POINT ( 'NONE',  ( 0.0000000000000000000, 10.49999999999999800, 0.0000000000000000000 ) ) ;
#307 = DIRECTION ( 'NONE',  ( -0.0000000000000000000, -0.0000000000000000000, -1.000000000000000000 ) ) ;
#308 = CARTESIAN_POINT ( 'NONE',  ( 9.800000000000000700, 5.000000000000000000, 10.00000000000000000 ) ) ;
#309 = DIRECTION ( 'NONE',  ( 1.000000000000000000, -0.0000000000000000000, -0.0000000000000000000 ) ) ;
#310 = CARTESIAN_POINT ( 'NONE',  ( 0.5000000000000020000, -1.734723475976807100E-015, 1.962300945319039000 ) ) ;
#311 = CARTESIAN_POINT ( 'NONE',  ( 6.800000000000068200, 10.49999999999999800, -10.00000000000000000 ) ) ;
#312 = ADVANCED_FACE ( 'NONE', ( #659 ), #210, .F. ) ;
#313 = ADVANCED_FACE ( 'NONE', ( #663 ), #220, .F. ) ;
#314 = ADVANCED_FACE ( 'NONE', ( #629 ), #211, .F. ) ;
#315 = ADVANCED_FACE ( 'NONE', ( #660 ), #212, .T. ) ;
#316 = ADVANCED_FACE ( 'NONE', ( #643, #619 ), #204, .F. ) ;
#317 = ADVANCED_FACE ( 'NONE', ( #627 ), #181, .F. ) ;
#318 = ADVANCED_FACE ( 'NONE', ( #630 ), #229, .F. ) ;
#319 = ADVANCED_FACE ( 'NONE', ( #622 ), #196, .F. ) ;
#320 = ADVANCED_FACE ( 'NONE', ( #632 ), #206, .F. ) ;
#321 = ADVANCED_FACE ( 'NONE', ( #647 ), #197, .F. ) ;
#322 = ADVANCED_FACE ( 'NONE', ( #654 ), #690, .F. ) ;
#323 = ADVANCED_FACE ( 'NONE', ( #713 ), #694, .F. ) ;
#324 = ADVANCED_FACE ( 'NONE', ( #716 ), #135, .F. ) ;
#325 = ADVANCED_FACE ( 'NONE', ( #677 ), #111, .F. ) ;
#326 = ADVANCED_FACE ( 'NONE', ( #698 ), #148, .F. ) ;
#327 = ADVANCED_FACE ( 'NONE', ( #696 ), #695, .F. ) ;
#328 = ADVANCED_FACE ( 'NONE', ( #680 ), #124, .F. ) ;
#329 = ADVANCED_FACE ( 'NONE', ( #720 ), #139, .F. ) ;
#330 = ADVANCED_FACE ( 'NONE', ( #704 ), #134, .F. ) ;
#331 = ADVANCED_FACE ( 'NONE', ( #689 ), #699, .F. ) ;
#332 = ADVANCED_FACE ( 'NONE', ( #683 ), #108, .F. ) ;
#333 = PRODUCT ( 'ALP0640', 'ALP0640', '', ( #419 ) ) ;
#334 = PERSON ( 'UNSPECIFIED', 'UNSPECIFIED', 'UNSPECIFIED', ('UNSPECIFIED'), ('UNSPECIFIED'), ('UNSPECIFIED') ) ;
#335 = CARTESIAN_POINT ( 'NONE',  ( 0.2469073964863234300, 0.2530926035136829600, -1.758255048562659600 ) ) ;
#336 = CARTESIAN_POINT ( 'NONE',  ( 0.1250000000000089400, 0.3750000000000003300, -1.645258338377287400 ) ) ;
#337 = CARTESIAN_POINT ( 'NONE',  ( -0.1250000000000070800, 0.3750000000000003300, -1.645258338377287600 ) ) ;
#338 = DIRECTION ( 'NONE',  ( -0.0000000000000000000, -0.0000000000000000000, -1.000000000000000000 ) ) ;
#339 = CARTESIAN_POINT ( 'NONE',  ( 0.5000000000000020000, -1.734723475976807100E-015, -1.962300945319039000 ) ) ;
#340 = CARTESIAN_POINT ( 'NONE',  ( 0.3722835001588692400, 0.1277164998411339800, -1.863046209330494500 ) ) ;
#341 = CARTESIAN_POINT ( 'NONE',  ( 9.800000000000000700, 7.500000000000000000, 10.00000000000000000 ) ) ;
#342 = CARTESIAN_POINT ( 'NONE',  ( -0.5000000000000018900, -1.734723475976807100E-015, 1.962300945319039000 ) ) ;
#343 = CARTESIAN_POINT ( 'NONE',  ( -0.3722835001588685700, 0.1277164998411340300, 1.863046209330495100 ) ) ;
#344 = CARTESIAN_POINT ( 'NONE',  ( -0.2469073964863222300, 0.2530926035136828500, 1.758255048562659800 ) ) ;
#345 = CARTESIAN_POINT ( 'NONE',  ( -0.1250000000000070800, 0.3750000000000003300, 1.645258338377287600 ) ) ;
#346 = DIRECTION ( 'NONE',  ( -0.0000000000000000000, -0.0000000000000000000, -1.000000000000000000 ) ) ;
#347 = DIRECTION ( 'NONE',  ( -0.0000000000000000000, -0.0000000000000000000, -1.000000000000000000 ) ) ;
#348 = CARTESIAN_POINT ( 'NONE',  ( 4.900000000000000400, 0.0000000000000000000, 10.00000000000000000 ) ) ;
#349 = CARTESIAN_POINT ( 'NONE',  ( -0.5000000000000001100, 0.0000000000000000000, 10.00000000000000000 ) ) ;
#350 = CARTESIAN_POINT ( 'NONE',  ( 4.900000000000000400, 5.000000000000000000, 10.00000000000000000 ) ) ;
#351 = CARTESIAN_POINT ( 'NONE',  ( -0.5000000000000018900, -1.734723475976807100E-015, -1.962300945319039000 ) ) ;
#352 = CARTESIAN_POINT ( 'NONE',  ( 1.224646799147351300E-015, 0.5000000000000111000, -10.00000000000000000 ) ) ;
#353 = DIRECTION ( 'NONE',  ( -0.0000000000000000000, -1.000000000000000000, -0.0000000000000000000 ) ) ;
#354 = CARTESIAN_POINT ( 'NONE',  ( -0.1250000000000070800, 0.3750000000000003300, 1.645258338377287600 ) ) ;
#355 = CARTESIAN_POINT ( 'NONE',  ( 6.800000000000068200, 10.49999999999999800, 10.00000000000000000 ) ) ;
#356 = CARTESIAN_POINT ( 'NONE',  ( -0.08340326119238591900, 0.4165967388076221600, 1.648418688475303200 ) ) ;
#357 = CARTESIAN_POINT ( 'NONE',  ( 4.900000000000000400, 0.0000000000000000000, 10.00000000000000000 ) ) ;
#358 = CARTESIAN_POINT ( 'NONE',  ( -0.1250000000000070800, 0.3750000000000003300, -1.645258338377287600 ) ) ;
#359 = DIRECTION ( 'NONE',  ( 0.7071067811865390200, -0.7071067811865561200, 0.0000000000000000000 ) ) ;
#360 = CARTESIAN_POINT ( 'NONE',  ( -0.2469073964863222300, 0.2530926035136828500, -1.758255048562659800 ) ) ;
#361 = CARTESIAN_POINT ( 'NONE',  ( -0.3722835001588685700, 0.1277164998411341200, -1.863046209330494700 ) ) ;
#362 = DIRECTION ( 'NONE',  ( -0.0000000000000000000, -1.000000000000000000, -0.0000000000000000000 ) ) ;
#363 = DIRECTION ( 'NONE',  ( 0.0000000000000000000, 0.0000000000000000000, -1.000000000000000000 ) ) ;
#364 = CARTESIAN_POINT ( 'NONE',  ( -0.04171662129381239300, 0.4582833787061965100, 1.649999999999997700 ) ) ;
#365 = CARTESIAN_POINT ( 'NONE',  ( -0.5000000000000001100, 0.0000000000000000000, 10.00000000000000000 ) ) ;
#366 = DIRECTION ( 'NONE',  ( -0.0000000000000000000, -0.0000000000000000000, -1.000000000000000000 ) ) ;
#367 = DIRECTION ( 'NONE',  ( 1.000000000000000000, -0.0000000000000000000, -0.0000000000000000000 ) ) ;
#368 = DIRECTION ( 'NONE',  ( 0.0000000000000000000, 1.000000000000000000, 0.0000000000000000000 ) ) ;
#369 = DIRECTION ( 'NONE',  ( 1.000000000000000000, 0.0000000000000000000, 0.0000000000000000000 ) ) ;
#370 = DIRECTION ( 'NONE',  ( 1.000000000000000000, -0.0000000000000000000, -0.0000000000000000000 ) ) ;
#371 = CARTESIAN_POINT ( 'NONE',  ( 0.0000000000000000000, -1.734723475976807100E-015, 0.0000000000000000000 ) ) ;
#372 = CARTESIAN_POINT ( 'NONE',  ( 1.224646799147351300E-015, 0.5000000000000111000, 10.00000000000000000 ) ) ;
#373 = CARTESIAN_POINT ( 'NONE',  ( 4.900000000000000400, 5.000000000000000000, 10.00000000000000000 ) ) ;
#374 = CARTESIAN_POINT ( 'NONE',  ( 1.224646799147351300E-015, 0.5000000000000111000, -1.649999999999997000 ) ) ;
#375 = DIRECTION ( 'NONE',  ( -0.0000000000000000000, -0.0000000000000000000, -1.000000000000000000 ) ) ;
#376 = CARTESIAN_POINT ( 'NONE',  ( -4.900000000000000400, 0.0000000000000000000, 10.00000000000000000 ) ) ;
#377 = DIRECTION ( 'NONE',  ( -0.0000000000000000000, -0.0000000000000000000, -1.000000000000000000 ) ) ;
#378 = CARTESIAN_POINT ( 'NONE',  ( 0.0000000000000000000, -1.734723475976807100E-015, 0.0000000000000000000 ) ) ;
#379 = CARTESIAN_POINT ( 'NONE',  ( -4.900000000000000400, 5.000000000000000000, -10.00000000000000000 ) ) ;
#380 = DIRECTION ( 'NONE',  ( -1.000000000000000000, 0.0000000000000000000, 0.0000000000000000000 ) ) ;
#381 = CARTESIAN_POINT ( 'NONE',  ( 1.224646799147351300E-015, 0.5000000000000111000, 1.650000000000000400 ) ) ;
#382 = CARTESIAN_POINT ( 'NONE',  ( 0.1250000000000089400, 0.3750000000000003300, -1.645258338377287400 ) ) ;
#383 = CARTESIAN_POINT ( 'NONE',  ( 0.08340326119238800100, 0.4165967388076221600, -1.648418688475303200 ) ) ;
#384 = CARTESIAN_POINT ( 'NONE',  ( 0.04171662129381471100, 0.4582833787061964500, -1.649999999999997700 ) ) ;
#385 = DIRECTION ( 'NONE',  ( -0.0000000000000000000, -1.000000000000000000, -0.0000000000000000000 ) ) ;
#386 = DIRECTION ( 'NONE',  ( 0.0000000000000000000, 0.0000000000000000000, -1.000000000000000000 ) ) ;
#387 = CARTESIAN_POINT ( 'NONE',  ( 9.800000000000000700, 5.000000000000000000, 10.00000000000000000 ) ) ;
#388 = CARTESIAN_POINT ( 'NONE',  ( 1.224646799147351300E-015, 0.5000000000000111000, 1.650000000000000400 ) ) ;
#389 = CARTESIAN_POINT ( 'NONE',  ( 0.04171662129381443300, 0.4582833787061967300, 1.649999999999997700 ) ) ;
#390 = DIRECTION ( 'NONE',  ( 0.0000000000000000000, 1.000000000000000000, 0.0000000000000000000 ) ) ;
#391 = CARTESIAN_POINT ( 'NONE',  ( 0.1250000000000089400, 0.3750000000000003300, 1.645258338377287400 ) ) ;
#392 = CARTESIAN_POINT ( 'NONE',  ( 0.5000000000000001100, 0.0000000000000000000, 10.00000000000000000 ) ) ;
#393 = CARTESIAN_POINT ( 'NONE',  ( -9.800000000000000700, 7.500000000000000000, 10.00000000000000000 ) ) ;
#394 = CARTESIAN_POINT ( 'NONE',  ( 0.0000000000000000000, 0.3750000000000003300, 0.0000000000000000000 ) ) ;
#395 = CARTESIAN_POINT ( 'NONE',  ( 0.08340326119238745900, 0.4165967388076227100, 1.648418688475303200 ) ) ;
#396 = DIRECTION ( 'NONE',  ( -0.0000000000000000000, -1.000000000000000000, -0.0000000000000000000 ) ) ;
#397 = DIRECTION ( 'NONE',  ( 0.0000000000000000000, 0.0000000000000000000, -1.000000000000000000 ) ) ;
#398 = APPROVAL_STATUS ( 'not_yet_approved' ) ;
#399 = PERSON_AND_ORGANIZATION_ROLE ( 'design_owner' ) ;
#400 = PERSON_AND_ORGANIZATION_ROLE ( 'creator' ) ;
#401 = PERSON_AND_ORGANIZATION_ROLE ( 'classification_officer' ) ;
#402 = APPROVAL_STATUS ( 'not_yet_approved' ) ;
#403 = APPLICATION_CONTEXT ( 'configuration controlled 3d designs of mechanical parts and assemblies' ) ;
#404 = PERSON_AND_ORGANIZATION_ROLE ( 'creator' ) ;
#405 = PERSON_AND_ORGANIZATION_ROLE ( 'design_supplier' ) ;
#406 = APPLICATION_PROTOCOL_DEFINITION ( 'international standard', 'config_control_design', 1994, #420 ) ;
#407 =( LENGTH_UNIT ( ) NAMED_UNIT ( * ) SI_UNIT ( .MILLI., .METRE. ) );
#408 = APPROVAL_ROLE ( '' ) ;
#409 = DATE_TIME_ROLE ( 'creation_date' ) ;
#410 = CARTESIAN_POINT ( 'NONE',  ( 0.0000000000000000000, 0.0000000000000000000, 0.0000000000000000000 ) ) ;
#411 = APPROVAL_ROLE ( '' ) ;
#412 =( NAMED_UNIT ( * ) PLANE_ANGLE_UNIT ( ) SI_UNIT ( $, .RADIAN. ) );
#413 = APPROVAL_ROLE ( '' ) ;
#414 = SECURITY_CLASSIFICATION_LEVEL ( 'unclassified' ) ;
#415 = DATE_TIME_ROLE ( 'classification_date' ) ;
#416 = APPLICATION_PROTOCOL_DEFINITION ( 'international standard', 'config_control_design', 1994, #403 ) ;
#417 = DIRECTION ( 'NONE',  ( 0.0000000000000000000, 0.0000000000000000000, 1.000000000000000000 ) ) ;
#418 = DIRECTION ( 'NONE',  ( 1.000000000000000000, 0.0000000000000000000, 0.0000000000000000000 ) ) ;
#419 = MECHANICAL_CONTEXT ( 'NONE', #403, 'mechanical' ) ;
#420 = APPLICATION_CONTEXT ( 'configuration controlled 3d designs of mechanical parts and assemblies' ) ;
#421 = APPROVAL_STATUS ( 'not_yet_approved' ) ;
#422 =( NAMED_UNIT ( * ) SI_UNIT ( $, .STERADIAN. ) SOLID_ANGLE_UNIT ( ) );
#423 = ORIENTED_EDGE ( 'NONE', *, *, #30, .T. ) ;
#424 = ORIENTED_EDGE ( 'NONE', *, *, #38, .F. ) ;
#425 = ORIENTED_EDGE ( 'NONE', *, *, #52, .T. ) ;
#426 = ORIENTED_EDGE ( 'NONE', *, *, #18, .F. ) ;
#427 = ORIENTED_EDGE ( 'NONE', *, *, #8, .F. ) ;
#428 = ORIENTED_EDGE ( 'NONE', *, *, #22, .F. ) ;
#429 = ORIENTED_EDGE ( 'NONE', *, *, #49, .T. ) ;
#430 = ORIENTED_EDGE ( 'NONE', *, *, #56, .F. ) ;
#431 = ORIENTED_EDGE ( 'NONE', *, *, #56, .T. ) ;
#432 = ORIENTED_EDGE ( 'NONE', *, *, #34, .T. ) ;
#433 = ORIENTED_EDGE ( 'NONE', *, *, #59, .F. ) ;
#434 = ORIENTED_EDGE ( 'NONE', *, *, #12, .F. ) ;
#435 = ORIENTED_EDGE ( 'NONE', *, *, #63, .T. ) ;
#436 = ORIENTED_EDGE ( 'NONE', *, *, #16, .F. ) ;
#437 = ORIENTED_EDGE ( 'NONE', *, *, #35, .F. ) ;
#438 = ORIENTED_EDGE ( 'NONE', *, *, #12, .T. ) ;
#439 = ORIENTED_EDGE ( 'NONE', *, *, #15, .T. ) ;
#440 = ORIENTED_EDGE ( 'NONE', *, *, #60, .F. ) ;
#441 = ORIENTED_EDGE ( 'NONE', *, *, #27, .F. ) ;
#442 = ORIENTED_EDGE ( 'NONE', *, *, #24, .T. ) ;
#443 = ORIENTED_EDGE ( 'NONE', *, *, #61, .F. ) ;
#444 = ORIENTED_EDGE ( 'NONE', *, *, #50, .F. ) ;
#445 = ORIENTED_EDGE ( 'NONE', *, *, #44, .F. ) ;
#446 = ORIENTED_EDGE ( 'NONE', *, *, #53, .F. ) ;
#447 = ORIENTED_EDGE ( 'NONE', *, *, #54, .F. ) ;
#448 = ORIENTED_EDGE ( 'NONE', *, *, #44, .T. ) ;
#449 = ORIENTED_EDGE ( 'NONE', *, *, #18, .T. ) ;
#450 = ORIENTED_EDGE ( 'NONE', *, *, #49, .F. ) ;
#451 = ORIENTED_EDGE ( 'NONE', *, *, #42, .F. ) ;
#452 = ORIENTED_EDGE ( 'NONE', *, *, #22, .T. ) ;
#453 = ORIENTED_EDGE ( 'NONE', *, *, #40, .F. ) ;
#454 = ORIENTED_EDGE ( 'NONE', *, *, #26, .T. ) ;
#455 = ORIENTED_EDGE ( 'NONE', *, *, #23, .T. ) ;
#456 = ORIENTED_EDGE ( 'NONE', *, *, #37, .F. ) ;
#457 = ORIENTED_EDGE ( 'NONE', *, *, #21, .T. ) ;
#458 = ORIENTED_EDGE ( 'NONE', *, *, #43, .T. ) ;
#459 = ORIENTED_EDGE ( 'NONE', *, *, #39, .T. ) ;
#460 = ORIENTED_EDGE ( 'NONE', *, *, #15, .F. ) ;
#461 = ORIENTED_EDGE ( 'NONE', *, *, #28, .F. ) ;
#462 = ORIENTED_EDGE ( 'NONE', *, *, #43, .F. ) ;
#463 = ORIENTED_EDGE ( 'NONE', *, *, #11, .T. ) ;
#464 = ORIENTED_EDGE ( 'NONE', *, *, #64, .F. ) ;
#465 = ORIENTED_EDGE ( 'NONE', *, *, #7, .F. ) ;
#466 = ORIENTED_EDGE ( 'NONE', *, *, #7, .T. ) ;
#467 = ORIENTED_EDGE ( 'NONE', *, *, #10, .T. ) ;
#468 = ORIENTED_EDGE ( 'NONE', *, *, #62, .T. ) ;
#469 = ORIENTED_EDGE ( 'NONE', *, *, #26, .F. ) ;
#470 = ORIENTED_EDGE ( 'NONE', *, *, #13, .F. ) ;
#471 = ORIENTED_EDGE ( 'NONE', *, *, #19, .F. ) ;
#472 = ORIENTED_EDGE ( 'NONE', *, *, #66, .T. ) ;
#473 = ORIENTED_EDGE ( 'NONE', *, *, #64, .T. ) ;
#474 = ORIENTED_EDGE ( 'NONE', *, *, #20, .T. ) ;
#475 = ORIENTED_EDGE ( 'NONE', *, *, #24, .F. ) ;
#476 = ORIENTED_EDGE ( 'NONE', *, *, #40, .T. ) ;
#477 = ORIENTED_EDGE ( 'NONE', *, *, #16, .T. ) ;
#478 = ORIENTED_EDGE ( 'NONE', *, *, #46, .F. ) ;
#479 = ORIENTED_EDGE ( 'NONE', *, *, #36, .F. ) ;
#480 = ORIENTED_EDGE ( 'NONE', *, *, #28, .T. ) ;
#481 = ORIENTED_EDGE ( 'NONE', *, *, #52, .F. ) ;
#482 = ORIENTED_EDGE ( 'NONE', *, *, #39, .F. ) ;
#483 = ORIENTED_EDGE ( 'NONE', *, *, #20, .F. ) ;
#484 = ORIENTED_EDGE ( 'NONE', *, *, #65, .F. ) ;
#485 = ORIENTED_EDGE ( 'NONE', *, *, #63, .F. ) ;
#486 = ORIENTED_EDGE ( 'NONE', *, *, #66, .F. ) ;
#487 = VERTEX_POINT ( 'NONE', #128 ) ;
#488 = VERTEX_POINT ( 'NONE', #149 ) ;
#489 = ORIENTED_EDGE ( 'NONE', *, *, #23, .F. ) ;
#490 = VERTEX_POINT ( 'NONE', #123 ) ;
#491 = EDGE_LOOP ( 'NONE', ( #463, #464, #424, #480 ) ) ;
#492 = VERTEX_POINT ( 'NONE', #115 ) ;
#493 = EDGE_LOOP ( 'NONE', ( #476, #483, #470, #435 ) ) ;
#494 = ORIENTED_EDGE ( 'NONE', *, *, #31, .T. ) ;
#495 = ORIENTED_EDGE ( 'NONE', *, *, #9, .F. ) ;
#496 = VERTEX_POINT ( 'NONE', #157 ) ;
#497 = VERTEX_POINT ( 'NONE', #114 ) ;
#498 = VERTEX_POINT ( 'NONE', #127 ) ;
#499 = ORIENTED_EDGE ( 'NONE', *, *, #11, .F. ) ;
#500 = VERTEX_POINT ( 'NONE', #150 ) ;
#501 = VERTEX_POINT ( 'NONE', #130 ) ;
#502 = EDGE_LOOP ( 'NONE', ( #456, #482, #433, #451, #442, #431 ) ) ;
#503 = ORIENTED_EDGE ( 'NONE', *, *, #58, .F. ) ;
#504 = VERTEX_POINT ( 'NONE', #151 ) ;
#505 = VERTEX_POINT ( 'NONE', #106 ) ;
#506 = EDGE_LOOP ( 'NONE', ( #503, #430, #426, #453, #436, #428, #499, #489, #523, #443, #515, #471, #479 ) ) ;
#507 = EDGE_LOOP ( 'NONE', ( #755, #434, #445, #425 ) ) ;
#508 = EDGE_LOOP ( 'NONE', ( #444, #495, #510, #518 ) ) ;
#509 = ORIENTED_EDGE ( 'NONE', *, *, #25, .T. ) ;
#510 = ORIENTED_EDGE ( 'NONE', *, *, #41, .T. ) ;
#511 = VERTEX_POINT ( 'NONE', #116 ) ;
#512 = VERTEX_POINT ( 'NONE', #136 ) ;
#513 = VERTEX_POINT ( 'NONE', #159 ) ;
#514 = VERTEX_POINT ( 'NONE', #129 ) ;
#515 = ORIENTED_EDGE ( 'NONE', *, *, #21, .F. ) ;
#516 = ORIENTED_EDGE ( 'NONE', *, *, #14, .T. ) ;
#517 = ORIENTED_EDGE ( 'NONE', *, *, #38, .T. ) ;
#518 = ORIENTED_EDGE ( 'NONE', *, *, #33, .F. ) ;
#519 = VERTEX_POINT ( 'NONE', #168 ) ;
#520 = VERTEX_POINT ( 'NONE', #174 ) ;
#521 = VERTEX_POINT ( 'NONE', #160 ) ;
#522 = VERTEX_POINT ( 'NONE', #167 ) ;
#523 = ORIENTED_EDGE ( 'NONE', *, *, #34, .F. ) ;
#524 = VERTEX_POINT ( 'NONE', #109 ) ;
#525 = VERTEX_POINT ( 'NONE', #169 ) ;
#526 = VERTEX_POINT ( 'NONE', #125 ) ;
#527 = ORIENTED_EDGE ( 'NONE', *, *, #45, .T. ) ;
#528 = ORIENTED_EDGE ( 'NONE', *, *, #53, .T. ) ;
#529 = VERTEX_POINT ( 'NONE', #170 ) ;
#530 = ORIENTED_EDGE ( 'NONE', *, *, #42, .T. ) ;
#531 = VERTEX_POINT ( 'NONE', #161 ) ;
#532 = VERTEX_POINT ( 'NONE', #176 ) ;
#533 = VERTEX_POINT ( 'NONE', #166 ) ;
#534 = VERTEX_POINT ( 'NONE', #165 ) ;
#535 = VERTEX_POINT ( 'NONE', #177 ) ;
#536 = VERTEX_POINT ( 'NONE', #171 ) ;
#537 = EDGE_LOOP ( 'NONE', ( #467, #423 ) ) ;
#538 = ORIENTED_EDGE ( 'NONE', *, *, #10, .F. ) ;
#539 = VERTEX_POINT ( 'NONE', #162 ) ;
#540 = VERTEX_POINT ( 'NONE', #164 ) ;
#541 = ORIENTED_EDGE ( 'NONE', *, *, #65, .T. ) ;
#542 = VERTEX_POINT ( 'NONE', #163 ) ;
#543 = VERTEX_POINT ( 'NONE', #175 ) ;
#544 = ORIENTED_EDGE ( 'NONE', *, *, #13, .T. ) ;
#545 = VERTEX_POINT ( 'NONE', #172 ) ;
#546 = ORIENTED_EDGE ( 'NONE', *, *, #50, .T. ) ;
#547 = VERTEX_POINT ( 'NONE', #337 ) ;
#548 = VERTEX_POINT ( 'NONE', #227 ) ;
#549 = VERTEX_POINT ( 'NONE', #173 ) ;
#550 = VERTEX_POINT ( 'NONE', #393 ) ;
#551 = EDGE_LOOP ( 'NONE', ( #516, #468, #509, #527, #448, #528, #454, #517, #472, #541, #544, #429, #530 ) ) ;
#552 = LINE ( 'NONE', #308, #585 ) ;
#553 = LINE ( 'NONE', #304, #554 ) ;
#554 = VECTOR ( 'NONE', #283, 1000.000000000000000 ) ;
#555 = LINE ( 'NONE', #296, #593 ) ;
#556 = CIRCLE ( 'NONE', #57, 1.649999999999997500 ) ;
#557 = VECTOR ( 'NONE', #338, 1000.000000000000000 ) ;
#558 = EDGE_LOOP ( 'NONE', ( #723, #725, #748, #751, #753 ) ) ;
#559 = LINE ( 'NONE', #268, #609 ) ;
#560 = LINE ( 'NONE', #289, #603 ) ;
#561 = VECTOR ( 'NONE', #265, 1000.000000000000000 ) ;
#562 = LINE ( 'NONE', #267, #599 ) ;
#563 = EDGE_LOOP ( 'NONE', ( #726, #737, #732, #733, #731 ) ) ;
#564 = LINE ( 'NONE', #269, #583 ) ;
#565 = LINE ( 'NONE', #280, #591 ) ;
#566 = EDGE_LOOP ( 'NONE', ( #739, #736, #746, #738, #462, #754 ) ) ;
#567 = EDGE_LOOP ( 'NONE', ( #722, #752, #728, #741, #724, #750 ) ) ;
#568 = EDGE_LOOP ( 'NONE', ( #449, #475, #450, #474 ) ) ;
#569 = EDGE_LOOP ( 'NONE', ( #727, #745, #734, #735, #742 ) ) ;
#570 = LINE ( 'NONE', #341, #557 ) ;
#571 = VECTOR ( 'NONE', #266, 1000.000000000000000 ) ;
#572 = VECTOR ( 'NONE', #271, 1000.000000000000000 ) ;
#573 = VECTOR ( 'NONE', #260, 1000.000000000000000 ) ;
#574 = EDGE_LOOP ( 'NONE', ( #432, #465, #446, #438 ) ) ;
#575 = CIRCLE ( 'NONE', #51, 1.649999999999997500 ) ;
#576 = LINE ( 'NONE', #302, #590 ) ;
#577 = EDGE_LOOP ( 'NONE', ( #440, #427, #459, #478 ) ) ;
#578 = VECTOR ( 'NONE', #303, 1000.000000000000000 ) ;
#579 = LINE ( 'NONE', #259, #573 ) ;
#580 = LINE ( 'NONE', #277, #572 ) ;
#581 = EDGE_LOOP ( 'NONE', ( #452, #460, #486, #473 ) ) ;
#582 = EDGE_LOOP ( 'NONE', ( #477, #485, #484, #439 ) ) ;
#583 = VECTOR ( 'NONE', #256, 1000.000000000000000 ) ;
#584 = EDGE_LOOP ( 'NONE', ( #457, #481, #749, #458 ) ) ;
#585 = VECTOR ( 'NONE', #307, 1000.000000000000000 ) ;
#586 = VECTOR ( 'NONE', #281, 1000.000000000000000 ) ;
#587 = LINE ( 'NONE', #311, #578 ) ;
#588 = EDGE_LOOP ( 'NONE', ( #441, #538, #494, #437, #546, #447 ) ) ;
#589 = VECTOR ( 'NONE', #294, 1000.000000000000000 ) ;
#590 = VECTOR ( 'NONE', #309, 1000.000000000000000 ) ;
#591 = VECTOR ( 'NONE', #295, 1000.000000000000100 ) ;
#592 = LINE ( 'NONE', #305, #586 ) ;
#593 = VECTOR ( 'NONE', #272, 1000.000000000000000 ) ;
#594 = LINE ( 'NONE', #285, #571 ) ;
#595 = LINE ( 'NONE', #255, #598 ) ;
#596 = VECTOR ( 'NONE', #301, 1000.000000000000100 ) ;
#597 = LINE ( 'NONE', #275, #601 ) ;
#598 = VECTOR ( 'NONE', #263, 1000.000000000000100 ) ;
#599 = VECTOR ( 'NONE', #299, 1000.000000000000000 ) ;
#600 = VECTOR ( 'NONE', #257, 1000.000000000000100 ) ;
#601 = VECTOR ( 'NONE', #258, 1000.000000000000000 ) ;
#602 = VECTOR ( 'NONE', #261, 1000.000000000000000 ) ;
#603 = VECTOR ( 'NONE', #290, 1000.000000000000000 ) ;
#604 = LINE ( 'NONE', #291, #561 ) ;
#605 = LINE ( 'NONE', #273, #600 ) ;
#606 = LINE ( 'NONE', #270, #589 ) ;
#607 = LINE ( 'NONE', #298, #596 ) ;
#608 = LINE ( 'NONE', #276, #602 ) ;
#609 = VECTOR ( 'NONE', #286, 1000.000000000000000 ) ;
#610 = EDGE_LOOP ( 'NONE', ( #455, #461, #469, #466 ) ) ;
#611 = EDGE_LOOP ( 'NONE', ( #744, #743, #730, #729, #747 ) ) ;
#612 = LINE ( 'NONE', #372, #648 ) ;
#613 = LINE ( 'NONE', #392, #615 ) ;
#614 = LINE ( 'NONE', #355, #631 ) ;
#615 = VECTOR ( 'NONE', #346, 1000.000000000000000 ) ;
#616 = VECTOR ( 'NONE', #367, 1000.000000000000000 ) ;
#617 = VECTOR ( 'NONE', #236, 1000.000000000000000 ) ;
#618 = LINE ( 'NONE', #230, #640 ) ;
#619 = FACE_OUTER_BOUND ( 'NONE', #491, .T. ) ;
#620 = LINE ( 'NONE', #183, #621 ) ;
#621 = VECTOR ( 'NONE', #186, 1000.000000000000000 ) ;
#622 = FACE_OUTER_BOUND ( 'NONE', #569, .T. ) ;
#623 = LINE ( 'NONE', #373, #657 ) ;
#624 = LINE ( 'NONE', #387, #664 ) ;
#625 = LINE ( 'NONE', #182, #668 ) ;
#626 = LINE ( 'NONE', #202, #661 ) ;
#627 = FACE_OUTER_BOUND ( 'NONE', #563, .T. ) ;
#628 = LINE ( 'NONE', #376, #633 ) ;
#629 = FACE_OUTER_BOUND ( 'NONE', #611, .T. ) ;
#630 = FACE_OUTER_BOUND ( 'NONE', #558, .T. ) ;
#631 = VECTOR ( 'NONE', #380, 1000.000000000000000 ) ;
#632 = FACE_OUTER_BOUND ( 'NONE', #584, .T. ) ;
#633 = VECTOR ( 'NONE', #362, 1000.000000000000000 ) ;
#634 = CIRCLE ( 'NONE', #102, 1.649999999999998600 ) ;
#635 = LINE ( 'NONE', #262, #641 ) ;
#636 = LINE ( 'NONE', #240, #666 ) ;
#637 = VECTOR ( 'NONE', #233, 1000.000000000000000 ) ;
#638 = LINE ( 'NONE', #352, #644 ) ;
#639 = CIRCLE ( 'NONE', #86, 2.024999999999999000 ) ;
#640 = VECTOR ( 'NONE', #209, 1000.000000000000000 ) ;
#641 = VECTOR ( 'NONE', #239, 1000.000000000000000 ) ;
#642 = LINE ( 'NONE', #348, #652 ) ;
#643 = FACE_BOUND ( 'NONE', #537, .T. ) ;
#644 = VECTOR ( 'NONE', #359, 1000.000000000000000 ) ;
#645 = CIRCLE ( 'NONE', #73, 2.024999999999999000 ) ;
#646 = VECTOR ( 'NONE', #208, 1000.000000000000000 ) ;
#647 = FACE_OUTER_BOUND ( 'NONE', #551, .T. ) ;
#648 = VECTOR ( 'NONE', #375, 1000.000000000000000 ) ;
#649 = LINE ( 'NONE', #365, #656 ) ;
#650 = VECTOR ( 'NONE', #370, 1000.000000000000000 ) ;
#651 = LINE ( 'NONE', #379, #650 ) ;
#652 = VECTOR ( 'NONE', #366, 1000.000000000000000 ) ;
#653 = LINE ( 'NONE', #241, #637 ) ;
#654 = FACE_OUTER_BOUND ( 'NONE', #577, .T. ) ;
#655 = LINE ( 'NONE', #234, #617 ) ;
#656 = VECTOR ( 'NONE', #347, 1000.000000000000000 ) ;
#657 = VECTOR ( 'NONE', #377, 1000.000000000000000 ) ;
#658 = VECTOR ( 'NONE', #368, 1000.000000000000000 ) ;
#659 = FACE_OUTER_BOUND ( 'NONE', #581, .T. ) ;
#660 = FACE_OUTER_BOUND ( 'NONE', #506, .T. ) ;
#661 = VECTOR ( 'NONE', #223, 1000.000000000000000 ) ;
#662 = CIRCLE ( 'NONE', #71, 1.649999999999998600 ) ;
#663 = FACE_OUTER_BOUND ( 'NONE', #493, .T. ) ;
#664 = VECTOR ( 'NONE', #390, 1000.000000000000000 ) ;
#665 = LINE ( 'NONE', #349, #616 ) ;
#666 = VECTOR ( 'NONE', #237, 1000.000000000000100 ) ;
#667 = LINE ( 'NONE', #178, #646 ) ;
#668 = VECTOR ( 'NONE', #193, 1000.000000000000100 ) ;
#669 = LINE ( 'NONE', #350, #670 ) ;
#670 = VECTOR ( 'NONE', #369, 1000.000000000000000 ) ;
#671 = LINE ( 'NONE', #357, #658 ) ;
#672 = PERSON_AND_ORGANIZATION ( #334, #721 ) ;
#673 = DATE_AND_TIME ( #703, #702 ) ;
#674 = CALENDAR_DATE ( 2017, 1, 2 ) ;
#675 = DATE_AND_TIME ( #717, #712 ) ;
#676 = PERSON_AND_ORGANIZATION ( #334, #721 ) ;
#677 = FACE_OUTER_BOUND ( 'NONE', #610, .T. ) ;
#678 = COORDINATED_UNIVERSAL_TIME_OFFSET ( 1, 0, .AHEAD. ) ;
#679 = APPROVAL_PERSON_ORGANIZATION ( #676, #3, #408 ) ;
#680 = FACE_OUTER_BOUND ( 'NONE', #568, .T. ) ;
#681 = APPROVAL_PERSON_ORGANIZATION ( #705, #80, #413 ) ;
#682 = DATE_AND_TIME ( #674, #706 ) ;
#683 = FACE_OUTER_BOUND ( 'NONE', #502, .T. ) ;
#684 = SHAPE_DEFINITION_REPRESENTATION ( #254, #243 ) ;
#685 = PERSON_AND_ORGANIZATION ( #334, #721 ) ;
#686 = COORDINATED_UNIVERSAL_TIME_OFFSET ( 1, 0, .AHEAD. ) ;
#687 = LOCAL_TIME ( 16, 53, 47.00000000000000000, #686 ) ;
#688 = APPROVAL_DATE_TIME ( #693, #3 ) ;
#689 = FACE_OUTER_BOUND ( 'NONE', #567, .T. ) ;
#690 = CONICAL_SURFACE ( 'NONE', #90, 2.024999999999999000, 0.7853981633974463900 ) ;
#691 = CALENDAR_DATE ( 2017, 1, 2 ) ;
#692 = COORDINATED_UNIVERSAL_TIME_OFFSET ( 1, 0, .AHEAD. ) ;
#693 = DATE_AND_TIME ( #691, #687 ) ;
#694 = CYLINDRICAL_SURFACE ( 'NONE', #96, 1.649999999999997900 ) ;
#695 = CONICAL_SURFACE ( 'NONE', #75, 2.024999999999999000, 0.7853981633974463900 ) ;
#696 = FACE_OUTER_BOUND ( 'NONE', #508, .T. ) ;
#697 = PERSON_AND_ORGANIZATION ( #334, #721 ) ;
#698 = FACE_OUTER_BOUND ( 'NONE', #566, .T. ) ;
#699 = CYLINDRICAL_SURFACE ( 'NONE', #67, 1.649999999999997900 ) ;
#700 = LOCAL_TIME ( 16, 53, 47.00000000000000000, #692 ) ;
#701 = DATE_AND_TIME ( #707, #700 ) ;
#702 = LOCAL_TIME ( 16, 53, 47.00000000000000000, #718 ) ;
#703 = CALENDAR_DATE ( 2017, 1, 2 ) ;
#704 = FACE_OUTER_BOUND ( 'NONE', #582, .T. ) ;
#705 = PERSON_AND_ORGANIZATION ( #334, #721 ) ;
#706 = LOCAL_TIME ( 16, 53, 47.00000000000000000, #678 ) ;
#707 = CALENDAR_DATE ( 2017, 1, 2 ) ;
#708 = PERSON_AND_ORGANIZATION ( #334, #721 ) ;
#709 = PERSON_AND_ORGANIZATION ( #334, #721 ) ;
#710 = APPROVAL_DATE_TIME ( #701, #78 ) ;
#711 = PERSON_AND_ORGANIZATION ( #334, #721 ) ;
#712 = LOCAL_TIME ( 16, 53, 47.00000000000000000, #719 ) ;
#713 = FACE_OUTER_BOUND ( 'NONE', #588, .T. ) ;
#714 = APPROVAL_DATE_TIME ( #682, #80 ) ;
#715 = APPROVAL_PERSON_ORGANIZATION ( #685, #78, #411 ) ;
#716 = FACE_OUTER_BOUND ( 'NONE', #574, .T. ) ;
#717 = CALENDAR_DATE ( 2017, 1, 2 ) ;
#718 = COORDINATED_UNIVERSAL_TIME_OFFSET ( 1, 0, .AHEAD. ) ;
#719 = COORDINATED_UNIVERSAL_TIME_OFFSET ( 1, 0, .AHEAD. ) ;
#720 = FACE_OUTER_BOUND ( 'NONE', #507, .T. ) ;
#721 = ORGANIZATION ( 'UNSPECIFIED', 'UNSPECIFIED', '' ) ;
#722 = ORIENTED_EDGE ( 'NONE', *, *, #30, .F. ) ;
#723 = ORIENTED_EDGE ( 'NONE', *, *, #32, .F. ) ;
#724 = ORIENTED_EDGE ( 'NONE', *, *, #17, .F. ) ;
#725 = ORIENTED_EDGE ( 'NONE', *, *, #17, .T. ) ;
#726 = ORIENTED_EDGE ( 'NONE', *, *, #47, .T. ) ;
#727 = ORIENTED_EDGE ( 'NONE', *, *, #8, .T. ) ;
#728 = ORIENTED_EDGE ( 'NONE', *, *, #48, .F. ) ;
#729 = ORIENTED_EDGE ( 'NONE', *, *, #36, .T. ) ;
#730 = ORIENTED_EDGE ( 'NONE', *, *, #32, .T. ) ;
#731 = ORIENTED_EDGE ( 'NONE', *, *, #62, .F. ) ;
#732 = ORIENTED_EDGE ( 'NONE', *, *, #33, .T. ) ;
#733 = ORIENTED_EDGE ( 'NONE', *, *, #29, .F. ) ;
#734 = ORIENTED_EDGE ( 'NONE', *, *, #47, .F. ) ;
#735 = ORIENTED_EDGE ( 'NONE', *, *, #14, .F. ) ;
#736 = ORIENTED_EDGE ( 'NONE', *, *, #41, .F. ) ;
#737 = ORIENTED_EDGE ( 'NONE', *, *, #54, .T. ) ;
#738 = ORIENTED_EDGE ( 'NONE', *, *, #19, .T. ) ;
#739 = ORIENTED_EDGE ( 'NONE', *, *, #29, .T. ) ;
#740 = CLOSED_SHELL ( 'NONE', ( #331, #318, #317, #319, #314, #326, #320, #329, #324, #325, #316, #312, #330, #313, #328, #332, #321, #315, #323, #322, #327 ) ) ;
#741 = ORIENTED_EDGE ( 'NONE', *, *, #60, .T. ) ;
#742 = ORIENTED_EDGE ( 'NONE', *, *, #59, .T. ) ;
#743 = ORIENTED_EDGE ( 'NONE', *, *, #35, .T. ) ;
#744 = ORIENTED_EDGE ( 'NONE', *, *, #9, .T. ) ;
#745 = ORIENTED_EDGE ( 'NONE', *, *, #48, .T. ) ;
#746 = ORIENTED_EDGE ( 'NONE', *, *, #55, .T. ) ;
#747 = ORIENTED_EDGE ( 'NONE', *, *, #55, .F. ) ;
#748 = ORIENTED_EDGE ( 'NONE', *, *, #46, .T. ) ;
#749 = ORIENTED_EDGE ( 'NONE', *, *, #45, .F. ) ;
#750 = ORIENTED_EDGE ( 'NONE', *, *, #31, .F. ) ;
#751 = ORIENTED_EDGE ( 'NONE', *, *, #37, .T. ) ;
#752 = ORIENTED_EDGE ( 'NONE', *, *, #27, .T. ) ;
#753 = ORIENTED_EDGE ( 'NONE', *, *, #58, .T. ) ;
#754 = ORIENTED_EDGE ( 'NONE', *, *, #25, .F. ) ;
#755 = ORIENTED_EDGE ( 'NONE', *, *, #61, .T. ) ;
ENDSEC;
END-ISO-10303-21;
