ISO-10303-21;
HEADER;
FILE_DESCRIPTION (( 'STEP AP203' ),
    '1' );
FILE_NAME ('ALP0666.STEP',
    '2018-11-21T11:18:32',
    ( '' ),
    ( '' ),
    'SwSTEP 2.0',
    'SolidWorks 2016',
    '' );
FILE_SCHEMA (( 'CONFIG_CONTROL_DESIGN' ));
ENDSEC;

DATA;
#1 = CIRCLE ( 'NONE', #3, 3.399999999999998600 ) ;
#2 = DIRECTION ( 'NONE',  ( 0.0000000000000000000, 0.0000000000000000000, -1.000000000000000000 ) ) ;
#3 = AXIS2_PLACEMENT_3D ( 'NONE', #246, #45, #356 ) ;
#4 = CARTESIAN_POINT ( 'NONE',  ( 0.5000000000000001100, 0.0000000000000000000, 17.99382335613384500 ) ) ;
#5 = AXIS2_PLACEMENT_3D ( 'NONE', #1058, #550, #40 ) ;
#6 = EDGE_CURVE ( 'NONE', #112, #1012, #162, .T. ) ;
#7 = ORIENTED_EDGE ( 'NONE', *, *, #1206, .F. ) ;
#8 = DIRECTION ( 'NONE',  ( 0.0000000000000000000, 0.0000000000000000000, -1.000000000000000000 ) ) ;
#9 = LINE ( 'NONE', #291, #29 ) ;
#10 = DIRECTION ( 'NONE',  ( -0.0000000000000000000, -1.000000000000000000, -0.0000000000000000000 ) ) ;
#11 = EDGE_LOOP ( 'NONE', ( #886, #756 ) ) ;
#12 = ORIENTED_EDGE ( 'NONE', *, *, #771, .F. ) ;
#13 = EDGE_CURVE ( 'NONE', #1182, #245, #180, .T. ) ;
#14 = ORIENTED_EDGE ( 'NONE', *, *, #976, .F. ) ;
#15 = CARTESIAN_POINT ( 'NONE',  ( 2.102871634985898800E-014, 0.6250000000000005600, -75.59999999999999400 ) ) ;
#16 = ADVANCED_FACE ( 'NONE', ( #1327 ), #591, .F. ) ;
#17 = CARTESIAN_POINT ( 'NONE',  ( -0.1633496420033408200, 0.3366503579966659300, -10.31165035799665800 ) ) ;
#18 = DIRECTION ( 'NONE',  ( -0.0000000000000000000, -0.0000000000000000000, -1.000000000000000000 ) ) ;
#19 = VECTOR ( 'NONE', #372, 1000.000000000000000 ) ;
#20 = VECTOR ( 'NONE', #1134, 1000.000000000000000 ) ;
#21 = DIRECTION ( 'NONE',  ( -0.0000000000000000000, -1.000000000000000000, -0.0000000000000000000 ) ) ;
#22 = APPROVAL ( #918, 'UNSPECIFIED' ) ;
#23 = DIRECTION ( 'NONE',  ( 0.7071067811865562300, -0.7071067811865388000, 0.0000000000000000000 ) ) ;
#24 = AXIS2_PLACEMENT_3D ( 'NONE', #62, #957, #1161 ) ;
#25 = LINE ( 'NONE', #312, #1075 ) ;
#26 = LINE ( 'NONE', #420, #841 ) ;
#27 = ORIENTED_EDGE ( 'NONE', *, *, #131, .F. ) ;
#28 = EDGE_CURVE ( 'NONE', #1215, #1168, #1019, .T. ) ;
#29 = VECTOR ( 'NONE', #298, 1000.000000000000000 ) ;
#30 = CARTESIAN_POINT ( 'NONE',  ( 9.800000000000000700, 7.499999999999996400, 90.00000000000000000 ) ) ;
#31 = ORIENTED_EDGE ( 'NONE', *, *, #426, .F. ) ;
#32 = CC_DESIGN_PERSON_AND_ORGANIZATION_ASSIGNMENT ( #948, #1009, ( #1118 ) ) ;
#33 = ORIENTED_EDGE ( 'NONE', *, *, #79, .F. ) ;
#34 = DATE_AND_TIME ( #1286, #320 ) ;
#35 = VERTEX_POINT ( 'NONE', #195 ) ;
#36 = ORIENTED_EDGE ( 'NONE', *, *, #1304, .T. ) ;
#37 = CARTESIAN_POINT ( 'NONE',  ( -6.800000000000070000, 10.49999999999999800, 90.00000000000000000 ) ) ;
#38 = PLANE ( 'NONE',  #396 ) ;
#39 = AXIS2_PLACEMENT_3D ( 'NONE', #741, #226, #927 ) ;
#40 = DIRECTION ( 'NONE',  ( 0.0000000000000000000, 0.0000000000000000000, -1.000000000000000000 ) ) ;
#41 = LINE ( 'NONE', #359, #1088 ) ;
#42 = FACE_OUTER_BOUND ( 'NONE', #82, .T. ) ;
#43 = DIRECTION ( 'NONE',  ( -0.0000000000000000000, -1.000000000000000000, -0.0000000000000000000 ) ) ;
#44 = ORIENTED_EDGE ( 'NONE', *, *, #1100, .T. ) ;
#45 = DIRECTION ( 'NONE',  ( -0.0000000000000000000, -1.000000000000000000, -0.0000000000000000000 ) ) ;
#46 = LINE ( 'NONE', #599, #829 ) ;
#47 = EDGE_CURVE ( 'NONE', #67, #1269, #352, .T. ) ;
#48 = ORIENTED_EDGE ( 'NONE', *, *, #976, .T. ) ;
#49 = CARTESIAN_POINT ( 'NONE',  ( -0.5000000000000001100, 0.0000000000000000000, 90.00000000000000000 ) ) ;
#50 = VERTEX_POINT ( 'NONE', #900 ) ;
#51 = AXIS2_PLACEMENT_3D ( 'NONE', #424, #10, #115 ) ;
#52 = DIRECTION ( 'NONE',  ( 0.0000000000000000000, 0.0000000000000000000, -1.000000000000000000 ) ) ;
#53 = EDGE_CURVE ( 'NONE', #1234, #770, #986, .T. ) ;
#54 = DIRECTION ( 'NONE',  ( -1.000000000000000000, -1.224646799147353500E-016, 0.0000000000000000000 ) ) ;
#55 = AXIS2_PLACEMENT_3D ( 'NONE', #205, #1122, #110 ) ;
#56 = CYLINDRICAL_SURFACE ( 'NONE', #433, 3.400000000000000400 ) ;
#57 = FACE_OUTER_BOUND ( 'NONE', #548, .T. ) ;
#58 = ORIENTED_EDGE ( 'NONE', *, *, #555, .F. ) ;
#59 = ADVANCED_FACE ( 'NONE', ( #1119 ), #680, .T. ) ;
#60 = VECTOR ( 'NONE', #848, 1000.000000000000000 ) ;
#61 = AXIS2_PLACEMENT_3D ( 'NONE', #1211, #1125, #630 ) ;
#62 = CARTESIAN_POINT ( 'NONE',  ( 1.224646799147352100E-015, 0.5000000000000111000, 90.00000000000000000 ) ) ;
#63 = ORIENTED_EDGE ( 'NONE', *, *, #281, .T. ) ;
#64 = ORIENTED_EDGE ( 'NONE', *, *, #6, .F. ) ;
#65 = DATE_AND_TIME ( #349, #463 ) ;
#66 = ORIENTED_EDGE ( 'NONE', *, *, #1100, .F. ) ;
#67 = VERTEX_POINT ( 'NONE', #684 ) ;
#68 = EDGE_CURVE ( 'NONE', #112, #1314, #822, .T. ) ;
#69 = VECTOR ( 'NONE', #585, 1000.000000000000000 ) ;
#70 = CARTESIAN_POINT ( 'NONE',  ( 1.224646799147352100E-015, 0.5000000000000111000, 90.00000000000000000 ) ) ;
#71 = FACE_OUTER_BOUND ( 'NONE', #907, .T. ) ;
#72 = B_SPLINE_CURVE_WITH_KNOTS ( 'NONE', 3,
 ( #499, #1087, #693, #595 ),
 .UNSPECIFIED., .F., .F.,
 ( 4, 4 ),
 ( 3.332785926255074200E-007, 0.0008487408099448643900 ),
 .UNSPECIFIED. ) ;
#73 = FACE_OUTER_BOUND ( 'NONE', #1227, .T. ) ;
#74 = CARTESIAN_POINT ( 'NONE',  ( 0.1633496420033337700, 0.3366503579966745900, -17.68834964200333100 ) ) ;
#75 = VERTEX_POINT ( 'NONE', #313 ) ;
#76 = VECTOR ( 'NONE', #1197, 1000.000000000000000 ) ;
#77 = PRODUCT_DEFINITION ( 'UNKNOWN', '', #1118, #579 ) ;
#78 = AXIS2_PLACEMENT_3D ( 'NONE', #1160, #562, #135 ) ;
#79 = EDGE_CURVE ( 'NONE', #1032, #35, #392, .T. ) ;
#80 = ORIENTED_EDGE ( 'NONE', *, *, #837, .F. ) ;
#81 = ORIENTED_EDGE ( 'NONE', *, *, #814, .F. ) ;
#82 = EDGE_LOOP ( 'NONE', ( #233, #1154, #683, #331 ) ) ;
#83 = LINE ( 'NONE', #835, #648 ) ;
#84 = CARTESIAN_POINT ( 'NONE',  ( 2.057406622567553000E-014, 0.0000000000000000000, -79.00000000000000000 ) ) ;
#85 = LINE ( 'NONE', #1065, #19 ) ;
#86 = ADVANCED_FACE ( 'NONE', ( #696 ), #898, .F. ) ;
#87 = CARTESIAN_POINT ( 'NONE',  ( -8.760763370866180500E-015, 0.5000000000000210900, -17.52499999999997700 ) ) ;
#88 = CARTESIAN_POINT ( 'NONE',  ( 0.3302917213469093200, 0.1697082786530949800, 10.15596335922838700 ) ) ;
#89 = CARTESIAN_POINT ( 'NONE',  ( 1.224646799147352100E-015, 0.5000000000000111000, -90.00000000000000000 ) ) ;
#90 = ORIENTED_EDGE ( 'NONE', *, *, #339, .F. ) ;
#91 = CARTESIAN_POINT ( 'NONE',  ( -0.3302917213469098700, 0.1697082786530936800, -17.84403664077161300 ) ) ;
#92 = ORIENTED_EDGE ( 'NONE', *, *, #1190, .F. ) ;
#93 = AXIS2_PLACEMENT_3D ( 'NONE', #265, #1263, #865 ) ;
#94 = DIRECTION ( 'NONE',  ( 0.0000000000000000000, 0.0000000000000000000, -1.000000000000000000 ) ) ;
#95 = ORIENTED_EDGE ( 'NONE', *, *, #834, .T. ) ;
#96 = CARTESIAN_POINT ( 'NONE',  ( 5.070037748470038400E-015, 10.49999999999999800, -10.60000000000000000 ) ) ;
#97 = ORIENTED_EDGE ( 'NONE', *, *, #760, .F. ) ;
#98 = CARTESIAN_POINT ( 'NONE',  ( -0.5000000000000001100, 0.0000000000000000000, 90.00000000000000000 ) ) ;
#99 = CARTESIAN_POINT ( 'NONE',  ( 9.800000000000000700, 5.000000000000000900, 90.00000000000000000 ) ) ;
#100 = DIRECTION ( 'NONE',  ( -0.7071067811865406900, -0.7071067811865543500, 0.0000000000000000000 ) ) ;
#101 = AXIS2_PLACEMENT_3D ( 'NONE', #347, #238, #759 ) ;
#102 = VECTOR ( 'NONE', #1052, 1000.000000000000000 ) ;
#103 = DIRECTION ( 'NONE',  ( -1.000000000000000000, 0.0000000000000000000, 0.0000000000000000000 ) ) ;
#104 = ADVANCED_FACE ( 'NONE', ( #241 ), #644, .F. ) ;
#105 = CARTESIAN_POINT ( 'NONE',  ( -0.3302917213469109300, 0.1697082786530926000, 75.15596335922839400 ) ) ;
#106 = EDGE_LOOP ( 'NONE', ( #947, #766, #343, #152 ) ) ;
#107 = VECTOR ( 'NONE', #1130, 999.9999999999998900 ) ;
#108 = CARTESIAN_POINT ( 'NONE',  ( 1.224646799147352100E-015, 0.0000000000000000000, 13.99999999999999800 ) ) ;
#109 = CARTESIAN_POINT ( 'NONE',  ( 6.800000000000066400, 10.49999999999999800, 90.00000000000000000 ) ) ;
#110 = DIRECTION ( 'NONE',  ( 0.0000000000000000000, 0.0000000000000000000, -1.000000000000000000 ) ) ;
#111 = EDGE_CURVE ( 'NONE', #951, #635, #1071, .T. ) ;
#112 = VERTEX_POINT ( 'NONE', #746 ) ;
#113 = EDGE_LOOP ( 'NONE', ( #1092, #267, #285, #1185, #283, #1278 ) ) ;
#114 = DIRECTION ( 'NONE',  ( 0.0000000000000000000, 0.0000000000000000000, -1.000000000000000000 ) ) ;
#115 = DIRECTION ( 'NONE',  ( 0.0000000000000000000, 0.0000000000000000000, -1.000000000000000000 ) ) ;
#116 = CARTESIAN_POINT ( 'NONE',  ( 0.1633496420033494200, 0.3366503579966588800, -10.31165035799665300 ) ) ;
#117 = CIRCLE ( 'NONE', #462, 3.399999999999996800 ) ;
#118 = EDGE_CURVE ( 'NONE', #210, #1081, #224, .T. ) ;
#119 = FACE_OUTER_BOUND ( 'NONE', #1050, .T. ) ;
#120 = EDGE_LOOP ( 'NONE', ( #1059, #606 ) ) ;
#121 = ORIENTED_EDGE ( 'NONE', *, *, #13, .T. ) ;
#122 = ORIENTED_EDGE ( 'NONE', *, *, #569, .F. ) ;
#123 = CARTESIAN_POINT ( 'NONE',  ( 5.146578173416748700E-015, 0.0000000000000000000, -9.974999999999997900 ) ) ;
#124 = ORIENTED_EDGE ( 'NONE', *, *, #212, .F. ) ;
#125 = AXIS2_PLACEMENT_3D ( 'NONE', #1223, #21, #232 ) ;
#126 = VERTEX_POINT ( 'NONE', #912 ) ;
#127 = CARTESIAN_POINT ( 'NONE',  ( -0.5000000000000001100, 0.0000000000000000000, 90.00000000000000000 ) ) ;
#128 = FACE_OUTER_BOUND ( 'NONE', #721, .T. ) ;
#129 = CARTESIAN_POINT ( 'NONE',  ( 0.3302917213469115900, 0.1697082786530927100, 82.84403664077160600 ) ) ;
#130 = CARTESIAN_POINT ( 'NONE',  ( 1.224646799147352100E-015, 0.5000000000000111000, 90.00000000000000000 ) ) ;
#131 = EDGE_CURVE ( 'NONE', #758, #1083, #1103, .T. ) ;
#132 = EDGE_LOOP ( 'NONE', ( #465, #821, #228, #390 ) ) ;
#133 = LINE ( 'NONE', #304, #496 ) ;
#134 = ORIENTED_EDGE ( 'NONE', *, *, #212, .T. ) ;
#135 = DIRECTION ( 'NONE',  ( -0.7071067811865390200, 0.7071067811865561200, 0.0000000000000000000 ) ) ;
#136 = CARTESIAN_POINT ( 'NONE',  ( 1.224646799147352100E-015, -0.0000000000000000000, 13.99999999999999800 ) ) ;
#137 = ORIENTED_EDGE ( 'NONE', *, *, #748, .F. ) ;
#138 = APPROVAL_DATE_TIME ( #65, #221 ) ;
#139 = ORIENTED_EDGE ( 'NONE', *, *, #513, .F. ) ;
#140 = ORIENTED_EDGE ( 'NONE', *, *, #657, .T. ) ;
#141 = DIRECTION ( 'NONE',  ( -0.0000000000000000000, -1.000000000000000000, -0.0000000000000000000 ) ) ;
#142 = CARTESIAN_POINT ( 'NONE',  ( 0.5000000000000001100, 0.0000000000000000000, 90.00000000000000000 ) ) ;
#143 = AXIS2_PLACEMENT_3D ( 'NONE', #357, #141, #1053 ) ;
#144 = EDGE_CURVE ( 'NONE', #626, #694, #476, .T. ) ;
#145 = DIRECTION ( 'NONE',  ( 0.0000000000000000000, 0.0000000000000000000, -1.000000000000000000 ) ) ;
#146 = CYLINDRICAL_SURFACE ( 'NONE', #101, 3.400000000000000400 ) ;
#147 = CARTESIAN_POINT ( 'NONE',  ( 2.057406622567553000E-014, 0.0000000000000000000, -79.00000000000000000 ) ) ;
#148 = CARTESIAN_POINT ( 'NONE',  ( 1.224646799147352100E-015, 10.49999999999999800, 75.59999999999999400 ) ) ;
#149 = CYLINDRICAL_SURFACE ( 'NONE', #795, 3.400000000000000400 ) ;
#150 = ORIENTED_EDGE ( 'NONE', *, *, #920, .F. ) ;
#151 = CARTESIAN_POINT ( 'NONE',  ( 1.224646799147352100E-015, 10.49999999999999800, 10.60000000000000000 ) ) ;
#152 = ORIENTED_EDGE ( 'NONE', *, *, #632, .F. ) ;
#153 = PERSON_AND_ORGANIZATION ( #799, #368 ) ;
#154 = ORIENTED_EDGE ( 'NONE', *, *, #344, .T. ) ;
#155 = ADVANCED_FACE ( 'NONE', ( #866 ), #631, .F. ) ;
#156 = ORIENTED_EDGE ( 'NONE', *, *, #834, .F. ) ;
#157 = DIRECTION ( 'NONE',  ( -0.0000000000000000000, -0.0000000000000000000, -1.000000000000000000 ) ) ;
#158 = AXIS2_PLACEMENT_3D ( 'NONE', #452, #869, #666 ) ;
#159 = DIRECTION ( 'NONE',  ( -1.000000000000000000, 0.0000000000000000000, 0.0000000000000000000 ) ) ;
#160 = EDGE_CURVE ( 'NONE', #694, #1032, #1085, .T. ) ;
#161 = CIRCLE ( 'NONE', #1188, 3.399999999999998600 ) ;
#162 = B_SPLINE_CURVE_WITH_KNOTS ( 'NONE', 3,
 ( #483, #88, #382, #1289 ),
 .UNSPECIFIED., .F., .F.,
 ( 4, 4 ),
 ( 3.332785926281769000E-007, 0.0008487408099448302300 ),
 .UNSPECIFIED. ) ;
#163 = DIRECTION ( 'NONE',  ( 0.0000000000000000000, 0.0000000000000000000, -1.000000000000000000 ) ) ;
#164 = DIRECTION ( 'NONE',  ( -0.0000000000000000000, -0.0000000000000000000, -1.000000000000000000 ) ) ;
#165 = EDGE_CURVE ( 'NONE', #545, #1063, #1295, .T. ) ;
#166 = CARTESIAN_POINT ( 'NONE',  ( -0.1633496420033337700, 0.3366503579966729800, -82.68834964200333100 ) ) ;
#167 = LINE ( 'NONE', #890, #475 ) ;
#168 = AXIS2_PLACEMENT_3D ( 'NONE', #84, #288, #487 ) ;
#169 = CLOSED_SHELL ( 'NONE', ( #471, #1322, #1199, #173, #875, #536, #182, #797, #573, #610, #431, #586, #1187, #997, #387, #155, #710, #528, #1072, #975, #1220, #16, #602, #1133, #701, #295, #686, #104, #417, #1284, #59, #988, #627, #188, #928, #501, #317, #86, #231 ) ) ;
#170 = CARTESIAN_POINT ( 'NONE',  ( 0.5000000000000001100, 0.0000000000000000000, 82.99382335613383100 ) ) ;
#171 = LINE ( 'NONE', #588, #1077 ) ;
#172 = AXIS2_PLACEMENT_3D ( 'NONE', #881, #282, #389 ) ;
#173 = ADVANCED_FACE ( 'NONE', ( #594 ), #612, .F. ) ;
#174 = VERTEX_POINT ( 'NONE', #727 ) ;
#175 = PERSON_AND_ORGANIZATION ( #799, #368 ) ;
#176 = B_SPLINE_CURVE_WITH_KNOTS ( 'NONE', 3,
 ( #87, #628, #91, #402 ),
 .UNSPECIFIED., .F., .F.,
 ( 4, 4 ),
 ( 3.462573506242436400E-007, 0.0008487537887028141600 ),
 .UNSPECIFIED. ) ;
#177 = DIRECTION ( 'NONE',  ( 1.000000000000000000, 0.0000000000000000000, 0.0000000000000000000 ) ) ;
#178 = ORIENTED_EDGE ( 'NONE', *, *, #952, .T. ) ;
#179 = DIRECTION ( 'NONE',  ( -0.7071067811865543500, 0.7071067811865406900, 0.0000000000000000000 ) ) ;
#180 = CIRCLE ( 'NONE', #1233, 3.400000000000000400 ) ;
#181 = CARTESIAN_POINT ( 'NONE',  ( 4.900000000000001200, 6.613092715395709400E-016, -90.00000000000000000 ) ) ;
#182 = ADVANCED_FACE ( 'NONE', ( #1257 ), #1038, .F. ) ;
#183 = DIRECTION ( 'NONE',  ( -0.7071067811865390200, 0.7071067811865561200, 0.0000000000000000000 ) ) ;
#184 = FACE_BOUND ( 'NONE', #457, .T. ) ;
#185 = DIRECTION ( 'NONE',  ( -0.0000000000000000000, -0.0000000000000000000, -1.000000000000000000 ) ) ;
#186 = DIRECTION ( 'NONE',  ( -1.502975617135388500E-016, 1.000000000000000000, 0.0000000000000000000 ) ) ;
#187 = VERTEX_POINT ( 'NONE', #538 ) ;
#188 = ADVANCED_FACE ( 'NONE', ( #293 ), #1224, .F. ) ;
#189 = ORIENTED_EDGE ( 'NONE', *, *, #1005, .T. ) ;
#190 = AXIS2_PLACEMENT_3D ( 'NONE', #108, #913, #223 ) ;
#191 = AXIS2_PLACEMENT_3D ( 'NONE', #554, #950, #1245 ) ;
#192 = DIRECTION ( 'NONE',  ( 0.7071067811865390200, -0.7071067811865561200, 0.0000000000000000000 ) ) ;
#193 = EDGE_CURVE ( 'NONE', #1095, #1114, #989, .T. ) ;
#194 = LOCAL_TIME ( 12, 18, 31.00000000000000000, #891 ) ;
#195 = CARTESIAN_POINT ( 'NONE',  ( -0.5000000000000002200, 0.0000000000000000000, 17.99382335613381700 ) ) ;
#196 = ORIENTED_EDGE ( 'NONE', *, *, #879, .T. ) ;
#197 = CC_DESIGN_APPROVAL ( #1101, ( #419 ) ) ;
#198 = DIRECTION ( 'NONE',  ( 0.0000000000000000000, 0.0000000000000000000, 1.000000000000000000 ) ) ;
#199 = ORIENTED_EDGE ( 'NONE', *, *, #248, .F. ) ;
#200 = CARTESIAN_POINT ( 'NONE',  ( -4.900000000000001200, 5.000000000000000000, -90.00000000000000000 ) ) ;
#201 = DIRECTION ( 'NONE',  ( 0.0000000000000000000, 0.0000000000000000000, 1.000000000000000000 ) ) ;
#202 = VECTOR ( 'NONE', #1069, 1000.000000000000000 ) ;
#203 = FACE_OUTER_BOUND ( 'NONE', #132, .T. ) ;
#204 = PLANE ( 'NONE',  #709 ) ;
#205 = CARTESIAN_POINT ( 'NONE',  ( 1.224646799147352100E-015, 0.0000000000000000000, 13.99999999999999800 ) ) ;
#206 = LINE ( 'NONE', #1000, #991 ) ;
#207 = VERTEX_POINT ( 'NONE', #836 ) ;
#208 = DIRECTION ( 'NONE',  ( -0.7071067811865543500, 0.7071067811865406900, 0.0000000000000000000 ) ) ;
#209 = VECTOR ( 'NONE', #658, 999.9999999999998900 ) ;
#210 = VERTEX_POINT ( 'NONE', #15 ) ;
#211 = CARTESIAN_POINT ( 'NONE',  ( 0.3302917213469151500, 0.1697082786530890700, 75.15596335922839400 ) ) ;
#212 = EDGE_CURVE ( 'NONE', #1012, #944, #571, .T. ) ;
#213 = VERTEX_POINT ( 'NONE', #744 ) ;
#214 = SECURITY_CLASSIFICATION_LEVEL ( 'unclassified' ) ;
#215 = ADVANCED_BREP_SHAPE_REPRESENTATION ( 'ALP0666', ( #1013, #1252 ), #856 ) ;
#216 = CARTESIAN_POINT ( 'NONE',  ( -4.900000000000001200, 5.000000000000000000, 90.00000000000000000 ) ) ;
#217 = ORIENTED_EDGE ( 'NONE', *, *, #935, .T. ) ;
#218 = APPROVAL_ROLE ( '' ) ;
#219 = CARTESIAN_POINT ( 'NONE',  ( 1.224646799147352100E-015, 0.6250000000000005600, 79.00000000000000000 ) ) ;
#220 = AXIS2_PLACEMENT_3D ( 'NONE', #529, #1137, #925 ) ;
#221 = APPROVAL ( #1121, 'UNSPECIFIED' ) ;
#222 = VECTOR ( 'NONE', #1174, 1000.000000000000000 ) ;
#223 = DIRECTION ( 'NONE',  ( 0.0000000000000000000, 0.0000000000000000000, -1.000000000000000000 ) ) ;
#224 = LINE ( 'NONE', #917, #258 ) ;
#225 = EDGE_CURVE ( 'NONE', #1017, #50, #737, .T. ) ;
#226 = DIRECTION ( 'NONE',  ( -0.0000000000000000000, -1.000000000000000000, -0.0000000000000000000 ) ) ;
#227 = DIRECTION ( 'NONE',  ( -1.000000000000000000, -3.540251991789403400E-016, 0.0000000000000000000 ) ) ;
#228 = ORIENTED_EDGE ( 'NONE', *, *, #193, .T. ) ;
#229 = LINE ( 'NONE', #456, #994 ) ;
#230 = ORIENTED_EDGE ( 'NONE', *, *, #911, .F. ) ;
#231 = ADVANCED_FACE ( 'NONE', ( #203 ), #1023, .F. ) ;
#232 = DIRECTION ( 'NONE',  ( 0.0000000000000000000, 0.0000000000000000000, -1.000000000000000000 ) ) ;
#233 = ORIENTED_EDGE ( 'NONE', *, *, #441, .T. ) ;
#234 = CARTESIAN_POINT ( 'NONE',  ( 1.641026710857451900E-015, -0.0000000000000000000, 17.39999999999999900 ) ) ;
#235 = ORIENTED_EDGE ( 'NONE', *, *, #520, .T. ) ;
#236 = ORIENTED_EDGE ( 'NONE', *, *, #871, .T. ) ;
#237 = CARTESIAN_POINT ( 'NONE',  ( 1.717567135804161800E-015, 0.0000000000000000000, 83.02500000000000600 ) ) ;
#238 = DIRECTION ( 'NONE',  ( -0.0000000000000000000, -1.000000000000000000, -0.0000000000000000000 ) ) ;
#239 = VECTOR ( 'NONE', #367, 1000.000000000000000 ) ;
#240 = CARTESIAN_POINT ( 'NONE',  ( 2.057406622567553000E-014, 10.49999999999999800, -79.00000000000000000 ) ) ;
#241 = FACE_OUTER_BOUND ( 'NONE', #664, .T. ) ;
#242 = PRODUCT_DEFINITION_SHAPE ( 'NONE', 'NONE',  #77 ) ;
#243 = VECTOR ( 'NONE', #682, 1000.000000000000200 ) ;
#244 = SHAPE_DEFINITION_REPRESENTATION ( #242, #215 ) ;
#245 = VERTEX_POINT ( 'NONE', #857 ) ;
#246 = CARTESIAN_POINT ( 'NONE',  ( 1.224646799147352100E-015, 10.49999999999999800, 13.99999999999999800 ) ) ;
#247 = LINE ( 'NONE', #1243, #1279 ) ;
#248 = EDGE_CURVE ( 'NONE', #1214, #75, #1291, .T. ) ;
#249 = ORIENTED_EDGE ( 'NONE', *, *, #281, .F. ) ;
#250 = DATE_AND_TIME ( #518, #919 ) ;
#251 = CARTESIAN_POINT ( 'NONE',  ( 0.5000000000000001100, 0.0000000000000000000, 82.99382335613383100 ) ) ;
#252 = AXIS2_PLACEMENT_3D ( 'NONE', #1300, #481, #700 ) ;
#253 = ORIENTED_EDGE ( 'NONE', *, *, #1011, .T. ) ;
#254 = ORIENTED_EDGE ( 'NONE', *, *, #111, .F. ) ;
#255 = CARTESIAN_POINT ( 'NONE',  ( 9.725104008227855000E-015, 0.5000000000000026600, 17.52499999999999500 ) ) ;
#256 = CARTESIAN_POINT ( 'NONE',  ( -0.1633496420033383500, 0.3366503579966683700, 82.68834964200333100 ) ) ;
#257 = DIRECTION ( 'NONE',  ( -0.7071067811865395800, 0.7071067811865554600, 0.0000000000000000000 ) ) ;
#258 = VECTOR ( 'NONE', #325, 999.9999999999998900 ) ;
#259 = CARTESIAN_POINT ( 'NONE',  ( -6.800000000000070000, 10.49999999999999800, -90.00000000000000000 ) ) ;
#260 = CONICAL_SURFACE ( 'NONE', #168, 4.025000000000000400, 0.7853981633974492800 ) ;
#261 = ORIENTED_EDGE ( 'NONE', *, *, #809, .T. ) ;
#262 = LINE ( 'NONE', #949, #860 ) ;
#263 = ORIENTED_EDGE ( 'NONE', *, *, #225, .T. ) ;
#264 = DIRECTION ( 'NONE',  ( -0.0000000000000000000, -0.0000000000000000000, -1.000000000000000000 ) ) ;
#265 = CARTESIAN_POINT ( 'NONE',  ( 1.224646799147352100E-015, 0.6250000000000005600, 13.99999999999999800 ) ) ;
#266 = ORIENTED_EDGE ( 'NONE', *, *, #301, .F. ) ;
#267 = ORIENTED_EDGE ( 'NONE', *, *, #118, .T. ) ;
#268 = CARTESIAN_POINT ( 'NONE',  ( 4.653657836759938800E-015, 10.49999999999999800, -13.99999999999999800 ) ) ;
#269 = EDGE_CURVE ( 'NONE', #587, #713, #698, .T. ) ;
#270 = EDGE_CURVE ( 'NONE', #1095, #545, #1, .T. ) ;
#271 = CIRCLE ( 'NONE', #61, 3.400000000000000400 ) ;
#272 = CARTESIAN_POINT ( 'NONE',  ( 0.5000000000000001100, 0.0000000000000000000, -90.00000000000000000 ) ) ;
#273 = AXIS2_PLACEMENT_3D ( 'NONE', #1002, #311, #887 ) ;
#274 = PLANE ( 'NONE',  #1282 ) ;
#275 = VECTOR ( 'NONE', #307, 1000.000000000000000 ) ;
#276 = ORIENTED_EDGE ( 'NONE', *, *, #565, .T. ) ;
#277 = CIRCLE ( 'NONE', #5, 3.400000000000000400 ) ;
#278 = B_SPLINE_CURVE_WITH_KNOTS ( 'NONE', 3,
 ( #665, #442, #354, #941 ),
 .UNSPECIFIED., .F., .F.,
 ( 4, 4 ),
 ( 3.462573506692525900E-007, 0.0008487537887028516700 ),
 .UNSPECIFIED. ) ;
#279 = CARTESIAN_POINT ( 'NONE',  ( 1.224646799147352100E-015, 0.5000000000000111000, 90.00000000000000000 ) ) ;
#280 = ORIENTED_EDGE ( 'NONE', *, *, #225, .F. ) ;
#281 = EDGE_CURVE ( 'NONE', #560, #652, #1056, .T. ) ;
#282 = DIRECTION ( 'NONE',  ( -1.000000000000000000, 0.0000000000000000000, 0.0000000000000000000 ) ) ;
#283 = ORIENTED_EDGE ( 'NONE', *, *, #53, .F. ) ;
#284 = DIRECTION ( 'NONE',  ( 0.0000000000000000000, 0.0000000000000000000, -1.000000000000000000 ) ) ;
#285 = ORIENTED_EDGE ( 'NONE', *, *, #1011, .F. ) ;
#286 = DIRECTION ( 'NONE',  ( 0.7071067811865561200, 0.7071067811865390200, -0.0000000000000000000 ) ) ;
#287 = EDGE_CURVE ( 'NONE', #210, #1269, #1193, .T. ) ;
#288 = DIRECTION ( 'NONE',  ( -0.0000000000000000000, -1.000000000000000000, -0.0000000000000000000 ) ) ;
#289 = AXIS2_PLACEMENT_3D ( 'NONE', #1186, #800, #507 ) ;
#290 = B_SPLINE_CURVE_WITH_KNOTS ( 'NONE', 3,
 ( #374, #485, #461, #981 ),
 .UNSPECIFIED., .F., .F.,
 ( 4, 4 ),
 ( 3.332785926399394300E-007, 0.0008487408099448042100 ),
 .UNSPECIFIED. ) ;
#291 = CARTESIAN_POINT ( 'NONE',  ( 1.641026710857451900E-015, -0.0000000000000000000, 82.40000000000000600 ) ) ;
#292 = CONICAL_SURFACE ( 'NONE', #125, 4.025000000000000400, 0.7853981633974492800 ) ;
#293 = FACE_OUTER_BOUND ( 'NONE', #707, .T. ) ;
#294 = PLANE ( 'NONE',  #504 ) ;
#295 = ADVANCED_FACE ( 'NONE', ( #956 ), #38, .F. ) ;
#296 = CC_DESIGN_APPROVAL ( #221, ( #77 ) ) ;
#297 = ORIENTED_EDGE ( 'NONE', *, *, #1247, .T. ) ;
#298 = DIRECTION ( 'NONE',  ( -0.0000000000000000000, -1.000000000000000000, -0.0000000000000000000 ) ) ;
#299 = VECTOR ( 'NONE', #177, 1000.000000000000000 ) ;
#300 = AXIS2_PLACEMENT_3D ( 'NONE', #478, #1173, #967 ) ;
#301 = EDGE_CURVE ( 'NONE', #1145, #691, #41, .T. ) ;
#302 = CARTESIAN_POINT ( 'NONE',  ( 1.224646799147352100E-015, 0.5000000000000111000, 90.00000000000000000 ) ) ;
#303 = ORIENTED_EDGE ( 'NONE', *, *, #1163, .T. ) ;
#304 = CARTESIAN_POINT ( 'NONE',  ( 0.5000000000000001100, 0.0000000000000000000, 90.00000000000000000 ) ) ;
#305 = ORIENTED_EDGE ( 'NONE', *, *, #909, .F. ) ;
#306 = EDGE_CURVE ( 'NONE', #904, #674, #762, .T. ) ;
#307 = DIRECTION ( 'NONE',  ( -0.0000000000000000000, -0.0000000000000000000, -1.000000000000000000 ) ) ;
#308 = DIRECTION ( 'NONE',  ( -0.7071067811865388000, -0.7071067811865562300, -0.0000000000000000000 ) ) ;
#309 = LINE ( 'NONE', #376, #202 ) ;
#310 = CIRCLE ( 'NONE', #769, 4.025000000000000400 ) ;
#311 = DIRECTION ( 'NONE',  ( -0.0000000000000000000, -1.000000000000000000, -0.0000000000000000000 ) ) ;
#312 = CARTESIAN_POINT ( 'NONE',  ( 1.224646799147352100E-015, 0.0000000000000000000, 74.97499999999999400 ) ) ;
#313 = CARTESIAN_POINT ( 'NONE',  ( 4.619080196566617100E-016, 0.5000000000000118800, 82.52499999999999100 ) ) ;
#314 = EDGE_LOOP ( 'NONE', ( #775, #978, #14, #505, #902, #415 ) ) ;
#315 = VECTOR ( 'NONE', #423, 1000.000000000000000 ) ;
#316 = DIRECTION ( 'NONE',  ( -0.0000000000000000000, -0.0000000000000000000, -1.000000000000000000 ) ) ;
#317 = ADVANCED_FACE ( 'NONE', ( #327 ), #146, .F. ) ;
#318 = DIRECTION ( 'NONE',  ( 0.0000000000000000000, -1.000000000000000000, 0.0000000000000000000 ) ) ;
#319 = ORIENTED_EDGE ( 'NONE', *, *, #79, .T. ) ;
#320 = LOCAL_TIME ( 12, 18, 31.00000000000000000, #818 ) ;
#321 = ORIENTED_EDGE ( 'NONE', *, *, #53, .T. ) ;
#322 = DIRECTION ( 'NONE',  ( 0.0000000000000000000, 0.0000000000000000000, -1.000000000000000000 ) ) ;
#323 = ORIENTED_EDGE ( 'NONE', *, *, #165, .T. ) ;
#324 = DIRECTION ( 'NONE',  ( -0.0000000000000000000, -0.0000000000000000000, -1.000000000000000000 ) ) ;
#325 = DIRECTION ( 'NONE',  ( 8.659560562354942700E-017, -0.7071067811865468000, 0.7071067811865483500 ) ) ;
#326 = CIRCLE ( 'NONE', #93, 3.399999999999998600 ) ;
#327 = FACE_OUTER_BOUND ( 'NONE', #1232, .T. ) ;
#328 = CARTESIAN_POINT ( 'NONE',  ( 4.655402799902039400E-016, 0.5000000000000118800, 75.47500000000000900 ) ) ;
#329 = PERSON_AND_ORGANIZATION_ROLE ( 'classification_officer' ) ;
#330 = FACE_OUTER_BOUND ( 'NONE', #578, .T. ) ;
#331 = ORIENTED_EDGE ( 'NONE', *, *, #28, .T. ) ;
#332 = LINE ( 'NONE', #1062, #209 ) ;
#333 = EDGE_CURVE ( 'NONE', #691, #410, #491, .T. ) ;
#334 = DIRECTION ( 'NONE',  ( -0.0000000000000000000, -1.000000000000000000, -0.0000000000000000000 ) ) ;
#335 = VERTEX_POINT ( 'NONE', #938 ) ;
#336 = CARTESIAN_POINT ( 'NONE',  ( 1.224646799147352100E-015, 0.5000000000000111000, 90.00000000000000000 ) ) ;
#337 = VERTEX_POINT ( 'NONE', #1040 ) ;
#338 = DIRECTION ( 'NONE',  ( -0.0000000000000000000, -1.000000000000000000, -0.0000000000000000000 ) ) ;
#339 = EDGE_CURVE ( 'NONE', #705, #1145, #394, .T. ) ;
#340 = LINE ( 'NONE', #109, #1022 ) ;
#341 = VECTOR ( 'NONE', #1104, 1000.000000000000000 ) ;
#342 = LINE ( 'NONE', #1307, #1312 ) ;
#343 = ORIENTED_EDGE ( 'NONE', *, *, #915, .F. ) ;
#344 = EDGE_CURVE ( 'NONE', #694, #802, #428, .T. ) ;
#345 = VECTOR ( 'NONE', #894, 1000.000000000000100 ) ;
#346 = CARTESIAN_POINT ( 'NONE',  ( 4.653657836759938800E-015, 0.6250000000000005600, -13.99999999999999800 ) ) ;
#347 = CARTESIAN_POINT ( 'NONE',  ( 1.224646799147352100E-015, -0.0000000000000000000, 79.00000000000000000 ) ) ;
#348 = ORIENTED_EDGE ( 'NONE', *, *, #160, .T. ) ;
#349 = CALENDAR_DATE ( 2018, 21, 11 ) ;
#350 = AXIS2_PLACEMENT_3D ( 'NONE', #801, #793, #183 ) ;
#351 = ORIENTED_EDGE ( 'NONE', *, *, #1066, .T. ) ;
#352 = LINE ( 'NONE', #474, #69 ) ;
#353 = DIRECTION ( 'NONE',  ( -0.0000000000000000000, -1.000000000000000000, -0.0000000000000000000 ) ) ;
#354 = CARTESIAN_POINT ( 'NONE',  ( 0.3302917213469331900, 0.1697082786530710900, -75.15596335922838000 ) ) ;
#355 = FACE_OUTER_BOUND ( 'NONE', #1196, .T. ) ;
#356 = DIRECTION ( 'NONE',  ( 0.0000000000000000000, 0.0000000000000000000, -1.000000000000000000 ) ) ;
#357 = CARTESIAN_POINT ( 'NONE',  ( 2.057406622567553000E-014, 0.0000000000000000000, -79.00000000000000000 ) ) ;
#358 = EDGE_LOOP ( 'NONE', ( #1260, #321, #189, #373 ) ) ;
#359 = CARTESIAN_POINT ( 'NONE',  ( -4.900000000000001200, 5.000000000000000000, -90.00000000000000000 ) ) ;
#360 = FACE_OUTER_BOUND ( 'NONE', #862, .T. ) ;
#361 = CARTESIAN_POINT ( 'NONE',  ( 1.224646799147352100E-015, 0.5000000000000111000, 90.00000000000000000 ) ) ;
#362 = VERTEX_POINT ( 'NONE', #1153 ) ;
#363 = AXIS2_PLACEMENT_3D ( 'NONE', #147, #681, #962 ) ;
#364 = EDGE_LOOP ( 'NONE', ( #1262, #253, #305, #1210 ) ) ;
#365 = EDGE_CURVE ( 'NONE', #674, #904, #117, .T. ) ;
#366 = CARTESIAN_POINT ( 'NONE',  ( 1.224646799147352100E-015, 0.0000000000000000000, 75.59999999999999400 ) ) ;
#367 = DIRECTION ( 'NONE',  ( -0.0000000000000000000, -0.0000000000000000000, -1.000000000000000000 ) ) ;
#368 = ORGANIZATION ( 'UNSPECIFIED', 'UNSPECIFIED', '' ) ;
#369 = B_SPLINE_CURVE_WITH_KNOTS ( 'NONE', 3,
 ( #383, #786, #74, #1288 ),
 .UNSPECIFIED., .F., .F.,
 ( 4, 4 ),
 ( 3.332785926291132900E-007, 0.0008487408099448308900 ),
 .UNSPECIFIED. ) ;
#370 = ORIENTED_EDGE ( 'NONE', *, *, #858, .T. ) ;
#371 = CARTESIAN_POINT ( 'NONE',  ( -8.211709361842960900E-015, 0.5000000000000205400, 10.47500000000001900 ) ) ;
#372 = DIRECTION ( 'NONE',  ( -0.0000000000000000000, -1.000000000000000000, -0.0000000000000000000 ) ) ;
#373 = ORIENTED_EDGE ( 'NONE', *, *, #1169, .T. ) ;
#374 = CARTESIAN_POINT ( 'NONE',  ( -0.5000000000000001100, 0.0000000000000000000, -75.00617664386618300 ) ) ;
#375 = ORIENTED_EDGE ( 'NONE', *, *, #895, .T. ) ;
#376 = CARTESIAN_POINT ( 'NONE',  ( 9.800000000000000700, 5.000000000000000900, -90.00000000000000000 ) ) ;
#377 = EDGE_CURVE ( 'NONE', #904, #946, #826, .T. ) ;
#378 = EDGE_LOOP ( 'NONE', ( #1183, #1299, #1026, #876 ) ) ;
#379 = DIRECTION ( 'NONE',  ( -0.0000000000000000000, -0.0000000000000000000, -1.000000000000000000 ) ) ;
#380 = DIRECTION ( 'NONE',  ( -0.0000000000000000000, -1.000000000000000000, -0.0000000000000000000 ) ) ;
#381 = PLANE ( 'NONE',  #350 ) ;
#382 = CARTESIAN_POINT ( 'NONE',  ( 0.1633496420033342900, 0.3366503579966739800, 10.31165035799666700 ) ) ;
#383 = CARTESIAN_POINT ( 'NONE',  ( 0.5000000000000002200, 0.0000000000000000000, -17.99382335613382000 ) ) ;
#384 = ORIENTED_EDGE ( 'NONE', *, *, #1120, .T. ) ;
#385 = CIRCLE ( 'NONE', #363, 4.025000000000000400 ) ;
#386 = CARTESIAN_POINT ( 'NONE',  ( 0.5000000000000001100, 0.0000000000000000000, 17.99382335613384500 ) ) ;
#387 = ADVANCED_FACE ( 'NONE', ( #1162 ), #464, .F. ) ;
#388 = ORIENTED_EDGE ( 'NONE', *, *, #365, .F. ) ;
#389 = DIRECTION ( 'NONE',  ( 0.0000000000000000000, 0.0000000000000000000, 1.000000000000000000 ) ) ;
#390 = ORIENTED_EDGE ( 'NONE', *, *, #787, .T. ) ;
#391 = CARTESIAN_POINT ( 'NONE',  ( 9.725104008227855000E-015, 0.5000000000000026600, 17.52499999999999500 ) ) ;
#392 = LINE ( 'NONE', #98, #642 ) ;
#393 = DIRECTION ( 'NONE',  ( -0.7071067811865406900, -0.7071067811865543500, 0.0000000000000000000 ) ) ;
#394 = LINE ( 'NONE', #1045, #527 ) ;
#395 = CARTESIAN_POINT ( 'NONE',  ( 0.5000000000000001100, 0.0000000000000000000, 90.00000000000000000 ) ) ;
#396 = AXIS2_PLACEMENT_3D ( 'NONE', #654, #23, #1055 ) ;
#397 = DIRECTION ( 'NONE',  ( 0.0000000000000000000, 0.0000000000000000000, -1.000000000000000000 ) ) ;
#398 = EDGE_LOOP ( 'NONE', ( #1251, #833, #1250, #266, #90, #776, #512, #482, #805, #878, #480, #280, #156 ) ) ;
#399 = EDGE_CURVE ( 'NONE', #674, #618, #1054, .T. ) ;
#400 = DIRECTION ( 'NONE',  ( -0.0000000000000000000, -1.000000000000000000, -0.0000000000000000000 ) ) ;
#401 = ORIENTED_EDGE ( 'NONE', *, *, #306, .T. ) ;
#402 = CARTESIAN_POINT ( 'NONE',  ( -0.5000000000000001100, 0.0000000000000000000, -17.99382335613381700 ) ) ;
#403 = VERTEX_POINT ( 'NONE', #259 ) ;
#404 = CARTESIAN_POINT ( 'NONE',  ( 0.5000000000000001100, 0.0000000000000000000, -75.00617664386611200 ) ) ;
#405 = CARTESIAN_POINT ( 'NONE',  ( -9.800000000000000700, 4.999999999999998200, 90.00000000000000000 ) ) ;
#406 = CARTESIAN_POINT ( 'NONE',  ( 1.224646799147352100E-015, 0.6250000000000005600, 79.00000000000000000 ) ) ;
#407 = APPLICATION_PROTOCOL_DEFINITION ( 'international standard', 'config_control_design', 1994, #633 ) ;
#408 = CARTESIAN_POINT ( 'NONE',  ( -9.800000000000000700, 7.499999999999993800, 90.00000000000000000 ) ) ;
#409 = CARTESIAN_POINT ( 'NONE',  ( 4.655402799902039400E-016, 0.5000000000000118800, 75.47500000000000900 ) ) ;
#410 = VERTEX_POINT ( 'NONE', #774 ) ;
#411 = FACE_OUTER_BOUND ( 'NONE', #998, .T. ) ;
#412 = DIRECTION ( 'NONE',  ( -0.0000000000000000000, -1.000000000000000000, -0.0000000000000000000 ) ) ;
#413 = ORIENTED_EDGE ( 'NONE', *, *, #824, .F. ) ;
#414 = PLANE ( 'NONE',  #1287 ) ;
#415 = ORIENTED_EDGE ( 'NONE', *, *, #1247, .F. ) ;
#416 = ORIENTED_EDGE ( 'NONE', *, *, #466, .T. ) ;
#417 = ADVANCED_FACE ( 'NONE', ( #71 ), #274, .F. ) ;
#418 = CARTESIAN_POINT ( 'NONE',  ( -0.5000000000000002200, 0.0000000000000000000, 75.00617664386618300 ) ) ;
#419 = SECURITY_CLASSIFICATION ( '', '', #214 ) ;
#420 = CARTESIAN_POINT ( 'NONE',  ( 1.224646799147352100E-015, 0.0000000000000000000, 9.974999999999997900 ) ) ;
#421 = ORIENTED_EDGE ( 'NONE', *, *, #569, .T. ) ;
#422 = CIRCLE ( 'NONE', #523, 3.400000000000000400 ) ;
#423 = DIRECTION ( 'NONE',  ( 3.469446951953613700E-016, -1.000000000000000000, -0.0000000000000000000 ) ) ;
#424 = CARTESIAN_POINT ( 'NONE',  ( 2.057406622567553000E-014, 0.0000000000000000000, -79.00000000000000000 ) ) ;
#425 = AXIS2_PLACEMENT_3D ( 'NONE', #70, #286, #1271 ) ;
#426 = EDGE_CURVE ( 'NONE', #362, #676, #734, .T. ) ;
#427 = LINE ( 'NONE', #408, #440 ) ;
#428 = LINE ( 'NONE', #130, #669 ) ;
#429 = CARTESIAN_POINT ( 'NONE',  ( 0.1633496420033398200, 0.3366503579966685400, 75.31165035799666900 ) ) ;
#430 = ORIENTED_EDGE ( 'NONE', *, *, #68, .F. ) ;
#431 = ADVANCED_FACE ( 'NONE', ( #355 ), #964, .F. ) ;
#432 = DIRECTION ( 'NONE',  ( 0.0000000000000000000, 0.0000000000000000000, -1.000000000000000000 ) ) ;
#433 = AXIS2_PLACEMENT_3D ( 'NONE', #1308, #400, #1218 ) ;
#434 = ORIENTED_EDGE ( 'NONE', *, *, #1255, .F. ) ;
#435 = EDGE_LOOP ( 'NONE', ( #388, #502, #743, #672 ) ) ;
#436 = DIRECTION ( 'NONE',  ( 0.0000000000000000000, 0.0000000000000000000, -1.000000000000000000 ) ) ;
#437 = ORIENTED_EDGE ( 'NONE', *, *, #1074, .T. ) ;
#438 = DIRECTION ( 'NONE',  ( -0.0000000000000000000, -1.000000000000000000, -0.0000000000000000000 ) ) ;
#439 = CARTESIAN_POINT ( 'NONE',  ( 4.619080196566617100E-016, 0.5000000000000118800, 82.52499999999999100 ) ) ;
#440 = VECTOR ( 'NONE', #308, 1000.000000000000000 ) ;
#441 = EDGE_CURVE ( 'NONE', #1168, #403, #1102, .T. ) ;
#442 = CARTESIAN_POINT ( 'NONE',  ( 0.1633496420033632700, 0.3366503579966451100, -75.31165035799664100 ) ) ;
#443 = CARTESIAN_POINT ( 'NONE',  ( -0.5000000000000001100, 0.0000000000000000000, 90.00000000000000000 ) ) ;
#444 = ORIENTED_EDGE ( 'NONE', *, *, #731, .T. ) ;
#445 = LINE ( 'NONE', #678, #785 ) ;
#446 = CARTESIAN_POINT ( 'NONE',  ( -0.5000000000000001100, 0.0000000000000000000, -17.99382335613381700 ) ) ;
#447 = DIRECTION ( 'NONE',  ( -0.0000000000000000000, -0.0000000000000000000, -1.000000000000000000 ) ) ;
#448 = ORIENTED_EDGE ( 'NONE', *, *, #500, .F. ) ;
#449 = VERTEX_POINT ( 'NONE', #761 ) ;
#450 = PLANE ( 'NONE',  #78 ) ;
#451 = DIRECTION ( 'NONE',  ( 3.469446951953613700E-016, -1.000000000000000000, -0.0000000000000000000 ) ) ;
#452 = CARTESIAN_POINT ( 'NONE',  ( 1.224646799147352100E-015, -0.0000000000000000000, 13.99999999999999800 ) ) ;
#453 = EDGE_CURVE ( 'NONE', #676, #1200, #309, .T. ) ;
#454 = VECTOR ( 'NONE', #1236, 1000.000000000000000 ) ;
#455 = LINE ( 'NONE', #237, #840 ) ;
#456 = CARTESIAN_POINT ( 'NONE',  ( 4.900000000000001200, 6.613092715395709400E-016, 90.00000000000000000 ) ) ;
#457 = EDGE_LOOP ( 'NONE', ( #401, #477 ) ) ;
#458 = DIRECTION ( 'NONE',  ( -0.0000000000000000000, -1.000000000000000000, -0.0000000000000000000 ) ) ;
#459 = FACE_OUTER_BOUND ( 'NONE', #106, .T. ) ;
#460 = VERTEX_POINT ( 'NONE', #148 ) ;
#461 = CARTESIAN_POINT ( 'NONE',  ( -0.1633496420033444800, 0.3366503579966622100, -75.31165035799665500 ) ) ;
#462 = AXIS2_PLACEMENT_3D ( 'NONE', #268, #564, #52 ) ;
#463 = LOCAL_TIME ( 12, 18, 31.00000000000000000, #624 ) ;
#464 = PLANE ( 'NONE',  #24 ) ;
#465 = ORIENTED_EDGE ( 'NONE', *, *, #165, .F. ) ;
#466 = EDGE_CURVE ( 'NONE', #112, #449, #1070, .T. ) ;
#467 = ORIENTED_EDGE ( 'NONE', *, *, #615, .T. ) ;
#468 = CARTESIAN_POINT ( 'NONE',  ( 1.224646799147352100E-015, 10.49999999999999800, 13.99999999999999800 ) ) ;
#469 = CARTESIAN_POINT ( 'NONE',  ( -4.900000000000001200, 5.000000000000000000, 90.00000000000000000 ) ) ;
#470 = EDGE_CURVE ( 'NONE', #410, #174, #808, .T. ) ;
#471 = ADVANCED_FACE ( 'NONE', ( #779 ), #897, .F. ) ;
#472 = VECTOR ( 'NONE', #552, 1000.000000000000000 ) ;
#473 = DIRECTION ( 'NONE',  ( 1.000000000000000000, 3.540251991789402400E-016, -0.0000000000000000000 ) ) ;
#474 = CARTESIAN_POINT ( 'NONE',  ( 2.057406622567553000E-014, 0.0000000000000000000, -82.40000000000000600 ) ) ;
#475 = VECTOR ( 'NONE', #1176, 1000.000000000000000 ) ;
#476 = B_SPLINE_CURVE_WITH_KNOTS ( 'NONE', 3,
 ( #641, #211, #429, #328 ),
 .UNSPECIFIED., .F., .F.,
 ( 4, 4 ),
 ( 3.332785926262610700E-007, 0.0008487408099448204800 ),
 .UNSPECIFIED. ) ;
#477 = ORIENTED_EDGE ( 'NONE', *, *, #365, .T. ) ;
#478 = CARTESIAN_POINT ( 'NONE',  ( 4.653657836759938800E-015, 0.0000000000000000000, -13.99999999999999800 ) ) ;
#479 = CYLINDRICAL_SURFACE ( 'NONE', #39, 3.400000000000000400 ) ;
#480 = ORIENTED_EDGE ( 'NONE', *, *, #1120, .F. ) ;
#481 = DIRECTION ( 'NONE',  ( 0.7071067811865561200, 0.7071067811865390200, -0.0000000000000000000 ) ) ;
#482 = ORIENTED_EDGE ( 'NONE', *, *, #952, .F. ) ;
#483 = CARTESIAN_POINT ( 'NONE',  ( 0.5000000000000001100, 0.0000000000000000000, 10.00617664386617800 ) ) ;
#484 = ORIENTED_EDGE ( 'NONE', *, *, #657, .F. ) ;
#485 = CARTESIAN_POINT ( 'NONE',  ( -0.3302917213469117000, 0.1697082786530919600, -75.15596335922839400 ) ) ;
#486 = ORIENTED_EDGE ( 'NONE', *, *, #555, .T. ) ;
#487 = DIRECTION ( 'NONE',  ( 0.0000000000000000000, 0.0000000000000000000, -1.000000000000000000 ) ) ;
#488 = FACE_OUTER_BOUND ( 'NONE', #1042, .T. ) ;
#489 = B_SPLINE_CURVE_WITH_KNOTS ( 'NONE', 3,
 ( #391, #1094, #1194, #386 ),
 .UNSPECIFIED., .F., .F.,
 ( 4, 4 ),
 ( 3.462573506435657900E-007, 0.0008487537887028289000 ),
 .UNSPECIFIED. ) ;
#490 = CARTESIAN_POINT ( 'NONE',  ( -0.5000000000000001100, 0.0000000000000000000, 90.00000000000000000 ) ) ;
#491 = LINE ( 'NONE', #558, #798 ) ;
#492 = CARTESIAN_POINT ( 'NONE',  ( -4.899999999999999500, -5.388445916248353000E-016, 90.00000000000000000 ) ) ;
#493 = EDGE_CURVE ( 'NONE', #516, #460, #1238, .T. ) ;
#494 = CARTESIAN_POINT ( 'NONE',  ( -6.800000000000070000, 10.49999999999999800, 90.00000000000000000 ) ) ;
#495 = ORIENTED_EDGE ( 'NONE', *, *, #333, .T. ) ;
#496 = VECTOR ( 'NONE', #1302, 1000.000000000000000 ) ;
#497 = ORIENTED_EDGE ( 'NONE', *, *, #781, .F. ) ;
#498 = CARTESIAN_POINT ( 'NONE',  ( 0.5000000000000001100, 0.0000000000000000000, 90.00000000000000000 ) ) ;
#499 = CARTESIAN_POINT ( 'NONE',  ( 0.5000000000000002200, 0.0000000000000000000, -82.99382335613383100 ) ) ;
#500 = EDGE_CURVE ( 'NONE', #187, #210, #85, .T. ) ;
#501 = ADVANCED_FACE ( 'NONE', ( #128 ), #667, .F. ) ;
#502 = ORIENTED_EDGE ( 'NONE', *, *, #399, .T. ) ;
#503 = CARTESIAN_POINT ( 'NONE',  ( 0.5000000000000001100, 0.0000000000000000000, 90.00000000000000000 ) ) ;
#504 = AXIS2_PLACEMENT_3D ( 'NONE', #395, #186, #990 ) ;
#505 = ORIENTED_EDGE ( 'NONE', *, *, #1275, .T. ) ;
#506 = DIRECTION ( 'NONE',  ( 0.0000000000000000000, -0.7071067811865468000, -0.7071067811865483500 ) ) ;
#507 = DIRECTION ( 'NONE',  ( 0.7071067811865395800, -0.7071067811865554600, 0.0000000000000000000 ) ) ;
#508 = VECTOR ( 'NONE', #582, 1000.000000000000000 ) ;
#509 = EDGE_CURVE ( 'NONE', #1063, #1114, #326, .T. ) ;
#510 = DATE_TIME_ROLE ( 'classification_date' ) ;
#511 = VECTOR ( 'NONE', #526, 1000.000000000000000 ) ;
#512 = ORIENTED_EDGE ( 'NONE', *, *, #441, .F. ) ;
#513 = EDGE_CURVE ( 'NONE', #713, #337, #736, .T. ) ;
#514 = CIRCLE ( 'NONE', #661, 4.025000000000000400 ) ;
#515 = ORIENTED_EDGE ( 'NONE', *, *, #984, .T. ) ;
#516 = VERTEX_POINT ( 'NONE', #977 ) ;
#517 = DATE_TIME_ROLE ( 'creation_date' ) ;
#518 = CALENDAR_DATE ( 2018, 21, 11 ) ;
#519 = ORIENTED_EDGE ( 'NONE', *, *, #1255, .T. ) ;
#520 = EDGE_CURVE ( 'NONE', #1234, #126, #1007, .T. ) ;
#521 = DIRECTION ( 'NONE',  ( -0.0000000000000000000, -0.0000000000000000000, -1.000000000000000000 ) ) ;
#522 = DIRECTION ( 'NONE',  ( 1.000000000000000000, 0.0000000000000000000, 0.0000000000000000000 ) ) ;
#523 = AXIS2_PLACEMENT_3D ( 'NONE', #240, #937, #1039 ) ;
#524 = CARTESIAN_POINT ( 'NONE',  ( 6.800000000000066400, 10.49999999999999800, 90.00000000000000000 ) ) ;
#525 = CARTESIAN_POINT ( 'NONE',  ( 1.224646799147352100E-015, 0.0000000000000000000, 79.00000000000000000 ) ) ;
#526 = DIRECTION ( 'NONE',  ( 0.0000000000000000000, 1.000000000000000000, 0.0000000000000000000 ) ) ;
#527 = VECTOR ( 'NONE', #650, 1000.000000000000000 ) ;
#528 = ADVANCED_FACE ( 'NONE', ( #1151 ), #1293, .F. ) ;
#529 = CARTESIAN_POINT ( 'NONE',  ( 1.224646799147352100E-015, 0.5000000000000111000, 90.00000000000000000 ) ) ;
#530 = ORIENTED_EDGE ( 'NONE', *, *, #131, .T. ) ;
#531 = LINE ( 'NONE', #181, #76 ) ;
#532 = ORIENTED_EDGE ( 'NONE', *, *, #605, .F. ) ;
#533 = ORIENTED_EDGE ( 'NONE', *, *, #958, .F. ) ;
#534 = CARTESIAN_POINT ( 'NONE',  ( 1.224646799147352100E-015, 0.0000000000000000000, 10.60000000000000000 ) ) ;
#535 = ORIENTED_EDGE ( 'NONE', *, *, #771, .T. ) ;
#536 = ADVANCED_FACE ( 'NONE', ( #885 ), #260, .F. ) ;
#537 = DIRECTION ( 'NONE',  ( -0.0000000000000000000, -1.000000000000000000, -0.0000000000000000000 ) ) ;
#538 = CARTESIAN_POINT ( 'NONE',  ( 2.099044613738563200E-014, 10.49999999999999800, -75.59999999999999400 ) ) ;
#539 = DIRECTION ( 'NONE',  ( -1.000000000000000000, 0.0000000000000000000, 0.0000000000000000000 ) ) ;
#540 = VECTOR ( 'NONE', #896, 1000.000000000000000 ) ;
#541 = CIRCLE ( 'NONE', #1254, 3.400000000000000400 ) ;
#542 = AXIS2_PLACEMENT_3D ( 'NONE', #1106, #284, #1008 ) ;
#543 = CARTESIAN_POINT ( 'NONE',  ( 1.224646799147352100E-015, 0.0000000000000000000, 79.00000000000000000 ) ) ;
#544 = CIRCLE ( 'NONE', #1272, 3.400000000000000400 ) ;
#545 = VERTEX_POINT ( 'NONE', #996 ) ;
#546 = LINE ( 'NONE', #89, #345 ) ;
#547 = ORIENTED_EDGE ( 'NONE', *, *, #1049, .F. ) ;
#548 = EDGE_LOOP ( 'NONE', ( #384, #640, #27, #692 ) ) ;
#549 = APPROVAL_PERSON_ORGANIZATION ( #175, #1101, #1316 ) ;
#550 = DIRECTION ( 'NONE',  ( -0.0000000000000000000, -1.000000000000000000, -0.0000000000000000000 ) ) ;
#551 = ORIENTED_EDGE ( 'NONE', *, *, #915, .T. ) ;
#552 = DIRECTION ( 'NONE',  ( 1.000000000000000000, 1.502975617135388300E-016, 0.0000000000000000000 ) ) ;
#553 = ORIENTED_EDGE ( 'NONE', *, *, #28, .F. ) ;
#554 = CARTESIAN_POINT ( 'NONE',  ( 2.057406622567553000E-014, 0.6250000000000005600, -79.00000000000000000 ) ) ;
#555 = EDGE_CURVE ( 'NONE', #213, #1234, #72, .T. ) ;
#556 = CARTESIAN_POINT ( 'NONE',  ( 1.224646799147352100E-015, 0.0000000000000000000, 79.00000000000000000 ) ) ;
#557 = FACE_OUTER_BOUND ( 'NONE', #364, .T. ) ;
#558 = CARTESIAN_POINT ( 'NONE',  ( -4.899999999999999500, -5.388445916248353000E-016, -90.00000000000000000 ) ) ;
#559 = VECTOR ( 'NONE', #1192, 1000.000000000000000 ) ;
#560 = VERTEX_POINT ( 'NONE', #1195 ) ;
#561 = FACE_OUTER_BOUND ( 'NONE', #378, .T. ) ;
#562 = DIRECTION ( 'NONE',  ( 0.7071067811865561200, 0.7071067811865390200, -0.0000000000000000000 ) ) ;
#563 = AXIS2_PLACEMENT_3D ( 'NONE', #1131, #827, #432 ) ;
#564 = DIRECTION ( 'NONE',  ( -0.0000000000000000000, -1.000000000000000000, -0.0000000000000000000 ) ) ;
#565 = EDGE_CURVE ( 'NONE', #846, #1265, #369, .T. ) ;
#566 = ORIENTED_EDGE ( 'NONE', *, *, #871, .F. ) ;
#567 = ORIENTED_EDGE ( 'NONE', *, *, #399, .F. ) ;
#568 = DIRECTION ( 'NONE',  ( 0.0000000000000000000, 0.0000000000000000000, -1.000000000000000000 ) ) ;
#569 = EDGE_CURVE ( 'NONE', #337, #691, #167, .T. ) ;
#570 = CARTESIAN_POINT ( 'NONE',  ( 9.800000000000000700, 5.000000000000000900, 90.00000000000000000 ) ) ;
#571 = LINE ( 'NONE', #336, #20 ) ;
#572 = B_SPLINE_CURVE_WITH_KNOTS ( 'NONE', 3,
 ( #1021, #116, #1225, #1027 ),
 .UNSPECIFIED., .F., .F.,
 ( 4, 4 ),
 ( 3.462573506447255900E-007, 0.0008487537887028289000 ),
 .UNSPECIFIED. ) ;
#573 = ADVANCED_FACE ( 'NONE', ( #1259 ), #611, .F. ) ;
#574 = LINE ( 'NONE', #99, #511 ) ;
#575 = ORIENTED_EDGE ( 'NONE', *, *, #1030, .F. ) ;
#576 = LINE ( 'NONE', #604, #299 ) ;
#577 = DIRECTION ( 'NONE',  ( 0.0000000000000000000, 0.0000000000000000000, -1.000000000000000000 ) ) ;
#578 = EDGE_LOOP ( 'NONE', ( #567, #623, #982, #196 ) ) ;
#579 = DESIGN_CONTEXT ( 'detailed design', #633, 'design' ) ;
#580 = ORIENTED_EDGE ( 'NONE', *, *, #1241, .T. ) ;
#581 = PERSON_AND_ORGANIZATION ( #799, #368 ) ;
#582 = DIRECTION ( 'NONE',  ( 1.000000000000000000, 1.224646799147353200E-016, -0.0000000000000000000 ) ) ;
#583 = EDGE_LOOP ( 'NONE', ( #1098, #1228, #134, #849 ) ) ;
#584 = EDGE_CURVE ( 'NONE', #921, #1215, #720, .T. ) ;
#585 = DIRECTION ( 'NONE',  ( -0.0000000000000000000, -1.000000000000000000, -0.0000000000000000000 ) ) ;
#586 = ADVANCED_FACE ( 'NONE', ( #73 ), #294, .F. ) ;
#587 = VERTEX_POINT ( 'NONE', #985 ) ;
#588 = CARTESIAN_POINT ( 'NONE',  ( 2.057406622567553000E-014, 0.0000000000000000000, -83.02500000000000600 ) ) ;
#589 = ORIENTED_EDGE ( 'NONE', *, *, #1105, .F. ) ;
#590 = EDGE_CURVE ( 'NONE', #815, #335, #1311, .T. ) ;
#591 = PLANE ( 'NONE',  #794 ) ;
#592 = AXIS2_PLACEMENT_3D ( 'NONE', #1277, #953, #969 ) ;
#593 = CARTESIAN_POINT ( 'NONE',  ( -9.800000000000000700, 4.999999999999998200, -90.00000000000000000 ) ) ;
#594 = FACE_OUTER_BOUND ( 'NONE', #1109, .T. ) ;
#595 = CARTESIAN_POINT ( 'NONE',  ( -2.266893126802786500E-014, 0.5000000000000349700, -82.52499999999996300 ) ) ;
#596 = FACE_OUTER_BOUND ( 'NONE', #1149, .T. ) ;
#597 = PRODUCT ( 'ALP0666', 'ALP0666', '', ( #1015 ) ) ;
#598 = ORIENTED_EDGE ( 'NONE', *, *, #1003, .F. ) ;
#599 = CARTESIAN_POINT ( 'NONE',  ( -9.800000000000000700, 7.499999999999993800, -90.00000000000000000 ) ) ;
#600 = CIRCLE ( 'NONE', #1107, 3.400000000000000400 ) ;
#601 = CARTESIAN_POINT ( 'NONE',  ( 9.800000000000000700, 7.499999999999996400, 90.00000000000000000 ) ) ;
#602 = ADVANCED_FACE ( 'NONE', ( #596 ), #1305, .F. ) ;
#603 = ORIENTED_EDGE ( 'NONE', *, *, #270, .T. ) ;
#604 = CARTESIAN_POINT ( 'NONE',  ( 4.900000000000001200, 5.000000000000000900, -90.00000000000000000 ) ) ;
#605 = EDGE_CURVE ( 'NONE', #1063, #802, #1242, .T. ) ;
#606 = ORIENTED_EDGE ( 'NONE', *, *, #1030, .T. ) ;
#607 = CARTESIAN_POINT ( 'NONE',  ( 5.108307960943394800E-015, 0.6250000000000005600, -10.60000000000000000 ) ) ;
#608 = ORIENTED_EDGE ( 'NONE', *, *, #1143, .F. ) ;
#609 = DIRECTION ( 'NONE',  ( -0.7071067811865406900, -0.7071067811865543500, 0.0000000000000000000 ) ) ;
#610 = ADVANCED_FACE ( 'NONE', ( #763 ), #381, .F. ) ;
#611 = PLANE ( 'NONE',  #819 ) ;
#612 = CONICAL_SURFACE ( 'NONE', #677, 4.025000000000000400, 0.7853981633974492800 ) ;
#613 = FACE_BOUND ( 'NONE', #120, .T. ) ;
#614 = PLANE ( 'NONE',  #289 ) ;
#615 = EDGE_CURVE ( 'NONE', #930, #403, #943, .T. ) ;
#616 = CARTESIAN_POINT ( 'NONE',  ( -0.5000000000000001100, 0.0000000000000000000, 90.00000000000000000 ) ) ;
#617 = LINE ( 'NONE', #492, #1041 ) ;
#618 = VERTEX_POINT ( 'NONE', #607 ) ;
#619 = CARTESIAN_POINT ( 'NONE',  ( -8.760763370866180500E-015, 0.5000000000000210900, -17.52499999999997700 ) ) ;
#620 = ORIENTED_EDGE ( 'NONE', *, *, #160, .F. ) ;
#621 = DIRECTION ( 'NONE',  ( -0.0000000000000000000, -1.000000000000000000, -0.0000000000000000000 ) ) ;
#622 = AXIS2_PLACEMENT_3D ( 'NONE', #1313, #715, #1221 ) ;
#623 = ORIENTED_EDGE ( 'NONE', *, *, #306, .F. ) ;
#624 = COORDINATED_UNIVERSAL_TIME_OFFSET ( 1, 0, .AHEAD. ) ;
#625 = ORIENTED_EDGE ( 'NONE', *, *, #1090, .F. ) ;
#626 = VERTEX_POINT ( 'NONE', #893 ) ;
#627 = ADVANCED_FACE ( 'NONE', ( #330 ), #56, .F. ) ;
#628 = CARTESIAN_POINT ( 'NONE',  ( -0.1633496420033369900, 0.3366503579966697000, -17.68834964200333500 ) ) ;
#629 = PERSON_AND_ORGANIZATION_ROLE ( 'creator' ) ;
#630 = DIRECTION ( 'NONE',  ( 0.0000000000000000000, 0.0000000000000000000, -1.000000000000000000 ) ) ;
#631 = PLANE ( 'NONE',  #220 ) ;
#632 = EDGE_CURVE ( 'NONE', #652, #207, #206, .T. ) ;
#633 = APPLICATION_CONTEXT ( 'configuration controlled 3d designs of mechanical parts and assemblies' ) ;
#634 = AXIS2_PLACEMENT_3D ( 'NONE', #993, #806, #609 ) ;
#635 = VERTEX_POINT ( 'NONE', #714 ) ;
#636 = CARTESIAN_POINT ( 'NONE',  ( -0.3302917213469104800, 0.1697082786530929600, 10.15596335922838600 ) ) ;
#637 = CIRCLE ( 'NONE', #1171, 3.399999999999998600 ) ;
#638 = DIRECTION ( 'NONE',  ( -0.0000000000000000000, -1.000000000000000000, -0.0000000000000000000 ) ) ;
#639 = CARTESIAN_POINT ( 'NONE',  ( 1.224646799147352100E-015, 0.0000000000000000000, 13.99999999999999800 ) ) ;
#640 = ORIENTED_EDGE ( 'NONE', *, *, #895, .F. ) ;
#641 = CARTESIAN_POINT ( 'NONE',  ( 0.5000000000000001100, 0.0000000000000000000, 75.00617664386618300 ) ) ;
#642 = VECTOR ( 'NONE', #521, 1000.000000000000000 ) ;
#643 = EDGE_CURVE ( 'NONE', #1012, #815, #872, .T. ) ;
#644 = PLANE ( 'NONE',  #725 ) ;
#645 = VECTOR ( 'NONE', #159, 1000.000000000000000 ) ;
#646 = LINE ( 'NONE', #503, #960 ) ;
#647 = EDGE_LOOP ( 'NONE', ( #1158, #137, #803, #515 ) ) ;
#648 = VECTOR ( 'NONE', #649, 1000.000000000000000 ) ;
#649 = DIRECTION ( 'NONE',  ( 0.7071067811865390200, -0.7071067811865561200, 0.0000000000000000000 ) ) ;
#650 = DIRECTION ( 'NONE',  ( -0.0000000000000000000, -1.000000000000000000, -0.0000000000000000000 ) ) ;
#651 = PERSON_AND_ORGANIZATION ( #799, #368 ) ;
#652 = VERTEX_POINT ( 'NONE', #616 ) ;
#653 = CARTESIAN_POINT ( 'NONE',  ( 4.900000000000001200, 5.000000000000000900, -90.00000000000000000 ) ) ;
#654 = CARTESIAN_POINT ( 'NONE',  ( -9.800000000000000700, 7.499999999999993800, 90.00000000000000000 ) ) ;
#655 = EDGE_CURVE ( 'NONE', #1083, #362, #739, .T. ) ;
#656 = CARTESIAN_POINT ( 'NONE',  ( -0.3302917213469145400, 0.1697082786530890200, 82.84403664077160600 ) ) ;
#657 = EDGE_CURVE ( 'NONE', #1182, #694, #25, .T. ) ;
#658 = DIRECTION ( 'NONE',  ( 0.0000000000000000000, -0.7071067811865468000, -0.7071067811865483500 ) ) ;
#659 = ORIENTED_EDGE ( 'NONE', *, *, #1005, .F. ) ;
#660 = CIRCLE ( 'NONE', #729, 3.400000000000000400 ) ;
#661 = AXIS2_PLACEMENT_3D ( 'NONE', #556, #43, #145 ) ;
#662 = PERSON_AND_ORGANIZATION ( #799, #368 ) ;
#663 = CARTESIAN_POINT ( 'NONE',  ( -9.800000000000000700, 7.499999999999993800, 90.00000000000000000 ) ) ;
#664 = EDGE_LOOP ( 'NONE', ( #934, #122, #139, #1248 ) ) ;
#665 = CARTESIAN_POINT ( 'NONE',  ( 2.359637956040458800E-014, 0.4999999999999887300, -75.47499999999998000 ) ) ;
#666 = DIRECTION ( 'NONE',  ( 0.0000000000000000000, 0.0000000000000000000, -1.000000000000000000 ) ) ;
#667 = CONICAL_SURFACE ( 'NONE', #1073, 4.025000000000000400, 0.7853981633974492800 ) ;
#668 = DIRECTION ( 'NONE',  ( -0.7071067811865406900, -0.7071067811865543500, 0.0000000000000000000 ) ) ;
#669 = VECTOR ( 'NONE', #447, 1000.000000000000000 ) ;
#670 = FACE_BOUND ( 'NONE', #754, .T. ) ;
#671 = CARTESIAN_POINT ( 'NONE',  ( 1.224646799147352100E-015, 0.0000000000000000000, 79.00000000000000000 ) ) ;
#672 = ORIENTED_EDGE ( 'NONE', *, *, #377, .F. ) ;
#673 = DIRECTION ( 'NONE',  ( -0.0000000000000000000, -1.000000000000000000, -0.0000000000000000000 ) ) ;
#674 = VERTEX_POINT ( 'NONE', #96 ) ;
#675 = PERSON_AND_ORGANIZATION ( #799, #368 ) ;
#676 = VERTEX_POINT ( 'NONE', #706 ) ;
#677 = AXIS2_PLACEMENT_3D ( 'NONE', #525, #638, #2 ) ;
#678 = CARTESIAN_POINT ( 'NONE',  ( 0.5000000000000001100, 0.0000000000000000000, 90.00000000000000000 ) ) ;
#679 = AXIS2_PLACEMENT_3D ( 'NONE', #724, #712, #1004 ) ;
#680 = PLANE ( 'NONE',  #542 ) ;
#681 = DIRECTION ( 'NONE',  ( -0.0000000000000000000, -1.000000000000000000, -0.0000000000000000000 ) ) ;
#682 = DIRECTION ( 'NONE',  ( -0.7071067811865395800, 0.7071067811865554600, 0.0000000000000000000 ) ) ;
#683 = ORIENTED_EDGE ( 'NONE', *, *, #796, .F. ) ;
#684 = CARTESIAN_POINT ( 'NONE',  ( 2.057406622567553000E-014, 10.49999999999999800, -82.40000000000000600 ) ) ;
#685 = UNCERTAINTY_MEASURE_WITH_UNIT (LENGTH_MEASURE( 1.000000000000000100E-005 ), #830, 'distance_accuracy_value', 'NONE');
#686 = ADVANCED_FACE ( 'NONE', ( #1240 ), #813, .F. ) ;
#687 = LINE ( 'NONE', #663, #844 ) ;
#688 = ORIENTED_EDGE ( 'NONE', *, *, #47, .T. ) ;
#689 = CARTESIAN_POINT ( 'NONE',  ( 9.800000000000000700, 7.499999999999996400, -90.00000000000000000 ) ) ;
#690 = ORIENTED_EDGE ( 'NONE', *, *, #1229, .F. ) ;
#691 = VERTEX_POINT ( 'NONE', #200 ) ;
#692 = ORIENTED_EDGE ( 'NONE', *, *, #920, .T. ) ;
#693 = CARTESIAN_POINT ( 'NONE',  ( 0.1633496420033208900, 0.3366503579966874700, -82.68834964200331700 ) ) ;
#694 = VERTEX_POINT ( 'NONE', #908 ) ;
#695 = CARTESIAN_POINT ( 'NONE',  ( 1.224646799147352100E-015, 0.6250000000000005600, 10.60000000000000000 ) ) ;
#696 = FACE_OUTER_BOUND ( 'NONE', #992, .T. ) ;
#697 = PLANE ( 'NONE',  #634 ) ;
#698 = LINE ( 'NONE', #750, #454 ) ;
#699 = EDGE_CURVE ( 'NONE', #1265, #951, #176, .T. ) ;
#700 = DIRECTION ( 'NONE',  ( -0.7071067811865390200, 0.7071067811865561200, 0.0000000000000000000 ) ) ;
#701 = ADVANCED_FACE ( 'NONE', ( #670, #1164, #613, #184, #42 ), #414, .F. ) ;
#702 = ORIENTED_EDGE ( 'NONE', *, *, #470, .T. ) ;
#703 = CARTESIAN_POINT ( 'NONE',  ( -2.266893126802786500E-014, 0.5000000000000349700, -82.52499999999996300 ) ) ;
#704 = CONICAL_SURFACE ( 'NONE', #765, 4.025000000000000400, 0.7853981633974492800 ) ;
#705 = VERTEX_POINT ( 'NONE', #1010 ) ;
#706 = CARTESIAN_POINT ( 'NONE',  ( 9.800000000000000700, 5.000000000000000900, -90.00000000000000000 ) ) ;
#707 = EDGE_LOOP ( 'NONE', ( #745, #1018, #437, #58, #1132, #730 ) ) ;
#708 = CARTESIAN_POINT ( 'NONE',  ( 4.900000000000001200, 6.613092715395709400E-016, 90.00000000000000000 ) ) ;
#709 = AXIS2_PLACEMENT_3D ( 'NONE', #1115, #208, #100 ) ;
#710 = ADVANCED_FACE ( 'NONE', ( #557 ), #204, .F. ) ;
#711 = ORIENTED_EDGE ( 'NONE', *, *, #655, .F. ) ;
#712 = DIRECTION ( 'NONE',  ( 1.000000000000000000, 0.0000000000000000000, 0.0000000000000000000 ) ) ;
#713 = VERTEX_POINT ( 'NONE', #405 ) ;
#714 = CARTESIAN_POINT ( 'NONE',  ( -0.5000000000000001100, 0.0000000000000000000, -75.00617664386618300 ) ) ;
#715 = DIRECTION ( 'NONE',  ( -0.0000000000000000000, -1.000000000000000000, -0.0000000000000000000 ) ) ;
#716 = VECTOR ( 'NONE', #1148, 1000.000000000000000 ) ;
#717 = VECTOR ( 'NONE', #324, 1000.000000000000000 ) ;
#718 = EDGE_CURVE ( 'NONE', #846, #449, #310, .T. ) ;
#719 = DIRECTION ( 'NONE',  ( 0.7071067811865406900, 0.7071067811865544600, -0.0000000000000000000 ) ) ;
#720 = LINE ( 'NONE', #601, #243 ) ;
#721 = EDGE_LOOP ( 'NONE', ( #1147, #1048, #140, #1157, #1326, #230 ) ) ;
#722 = VECTOR ( 'NONE', #157, 1000.000000000000000 ) ;
#723 = PLANE ( 'NONE',  #868 ) ;
#724 = CARTESIAN_POINT ( 'NONE',  ( -9.800000000000000700, 4.999999999999998200, 90.00000000000000000 ) ) ;
#725 = AXIS2_PLACEMENT_3D ( 'NONE', #216, #738, #227 ) ;
#726 = ORIENTED_EDGE ( 'NONE', *, *, #287, .T. ) ;
#727 = CARTESIAN_POINT ( 'NONE',  ( -0.5000000000000001100, 0.0000000000000000000, -90.00000000000000000 ) ) ;
#728 = CARTESIAN_POINT ( 'NONE',  ( 2.057406622567553000E-014, 0.6250000000000005600, -82.40000000000000600 ) ) ;
#729 = AXIS2_PLACEMENT_3D ( 'NONE', #1082, #673, #577 ) ;
#730 = ORIENTED_EDGE ( 'NONE', *, *, #935, .F. ) ;
#731 = EDGE_CURVE ( 'NONE', #1269, #210, #271, .T. ) ;
#732 = CARTESIAN_POINT ( 'NONE',  ( -4.899999999999999500, -5.388445916248353000E-016, 90.00000000000000000 ) ) ;
#733 = CARTESIAN_POINT ( 'NONE',  ( 0.0000000000000000000, 0.0000000000000000000, 0.0000000000000000000 ) ) ;
#734 = LINE ( 'NONE', #570, #1123 ) ;
#735 = DIRECTION ( 'NONE',  ( 0.0000000000000000000, 0.0000000000000000000, -1.000000000000000000 ) ) ;
#736 = LINE ( 'NONE', #469, #954 ) ;
#737 = LINE ( 'NONE', #850, #472 ) ;
#738 = DIRECTION ( 'NONE',  ( -3.540251991789403400E-016, 1.000000000000000000, 0.0000000000000000000 ) ) ;
#739 = LINE ( 'NONE', #1096, #341 ) ;
#740 = ORIENTED_EDGE ( 'NONE', *, *, #47, .F. ) ;
#741 = CARTESIAN_POINT ( 'NONE',  ( 2.057406622567553000E-014, 0.0000000000000000000, -79.00000000000000000 ) ) ;
#742 = LINE ( 'NONE', #1152, #1155 ) ;
#743 = ORIENTED_EDGE ( 'NONE', *, *, #760, .T. ) ;
#744 = CARTESIAN_POINT ( 'NONE',  ( 0.5000000000000002200, 0.0000000000000000000, -82.99382335613383100 ) ) ;
#745 = ORIENTED_EDGE ( 'NONE', *, *, #118, .F. ) ;
#746 = CARTESIAN_POINT ( 'NONE',  ( 0.5000000000000001100, 0.0000000000000000000, 10.00617664386617800 ) ) ;
#747 = ORIENTED_EDGE ( 'NONE', *, *, #1057, .T. ) ;
#748 = EDGE_CURVE ( 'NONE', #713, #1145, #973, .T. ) ;
#749 = VECTOR ( 'NONE', #1226, 1000.000000000000000 ) ;
#750 = CARTESIAN_POINT ( 'NONE',  ( -9.800000000000000700, 4.999999999999998200, 90.00000000000000000 ) ) ;
#751 = AXIS2_PLACEMENT_3D ( 'NONE', #883, #873, #163 ) ;
#752 = VECTOR ( 'NONE', #164, 1000.000000000000000 ) ;
#753 = CIRCLE ( 'NONE', #273, 4.025000000000000400 ) ;
#754 = EDGE_LOOP ( 'NONE', ( #603, #1079 ) ) ;
#755 = DIRECTION ( 'NONE',  ( -0.0000000000000000000, -0.0000000000000000000, -1.000000000000000000 ) ) ;
#756 = ORIENTED_EDGE ( 'NONE', *, *, #493, .T. ) ;
#757 = LOCAL_TIME ( 12, 18, 31.00000000000000000, #1184 ) ;
#758 = VERTEX_POINT ( 'NONE', #899 ) ;
#759 = DIRECTION ( 'NONE',  ( 0.0000000000000000000, 0.0000000000000000000, -1.000000000000000000 ) ) ;
#760 = EDGE_CURVE ( 'NONE', #618, #946, #541, .T. ) ;
#761 = CARTESIAN_POINT ( 'NONE',  ( 0.5000000000000001100, 0.0000000000000000000, -10.00617664386615100 ) ) ;
#762 = CIRCLE ( 'NONE', #1273, 3.399999999999996800 ) ;
#763 = FACE_OUTER_BOUND ( 'NONE', #583, .T. ) ;
#764 = CARTESIAN_POINT ( 'NONE',  ( 4.619080196566617100E-016, 0.5000000000000118800, 82.52499999999999100 ) ) ;
#765 = AXIS2_PLACEMENT_3D ( 'NONE', #639, #412, #322 ) ;
#766 = ORIENTED_EDGE ( 'NONE', *, *, #248, .T. ) ;
#767 = CARTESIAN_POINT ( 'NONE',  ( 1.224646799147352100E-015, 0.5000000000000111000, 90.00000000000000000 ) ) ;
#768 = FACE_OUTER_BOUND ( 'NONE', #1189, .T. ) ;
#769 = AXIS2_PLACEMENT_3D ( 'NONE', #825, #621, #1310 ) ;
#770 = VERTEX_POINT ( 'NONE', #807 ) ;
#771 = EDGE_CURVE ( 'NONE', #930, #587, #427, .T. ) ;
#772 = CARTESIAN_POINT ( 'NONE',  ( 2.359637956040458800E-014, 0.4999999999999887300, -75.47499999999998000 ) ) ;
#773 = APPROVAL_PERSON_ORGANIZATION ( #581, #22, #1325 ) ;
#774 = CARTESIAN_POINT ( 'NONE',  ( -4.899999999999999500, -5.388445916248353000E-016, -90.00000000000000000 ) ) ;
#775 = ORIENTED_EDGE ( 'NONE', *, *, #509, .F. ) ;
#776 = ORIENTED_EDGE ( 'NONE', *, *, #1163, .F. ) ;
#777 = CARTESIAN_POINT ( 'NONE',  ( 1.679296923330808200E-015, 0.6250000000000005600, 17.39999999999999900 ) ) ;
#778 = AXIS2_PLACEMENT_3D ( 'NONE', #543, #537, #8 ) ;
#779 = FACE_OUTER_BOUND ( 'NONE', #842, .T. ) ;
#780 = VECTOR ( 'NONE', #18, 1000.000000000000000 ) ;
#781 = EDGE_CURVE ( 'NONE', #944, #449, #572, .T. ) ;
#782 = CARTESIAN_POINT ( 'NONE',  ( 5.070037748470038400E-015, 0.0000000000000000000, -10.60000000000000000 ) ) ;
#783 = VECTOR ( 'NONE', #1329, 1000.000000000000000 ) ;
#784 = ORIENTED_EDGE ( 'NONE', *, *, #718, .F. ) ;
#785 = VECTOR ( 'NONE', #1086, 1000.000000000000000 ) ;
#786 = CARTESIAN_POINT ( 'NONE',  ( 0.3302917213469082100, 0.1697082786530961200, -17.84403664077160900 ) ) ;
#787 = EDGE_CURVE ( 'NONE', #1114, #1063, #161, .T. ) ;
#788 = DIRECTION ( 'NONE',  ( -0.0000000000000000000, -1.000000000000000000, -0.0000000000000000000 ) ) ;
#789 = ORIENTED_EDGE ( 'NONE', *, *, #590, .T. ) ;
#790 = APPROVAL_DATE_TIME ( #34, #22 ) ;
#791 = ORIENTED_EDGE ( 'NONE', *, *, #979, .F. ) ;
#792 = ORIENTED_EDGE ( 'NONE', *, *, #909, .T. ) ;
#793 = DIRECTION ( 'NONE',  ( 0.7071067811865561200, 0.7071067811865390200, -0.0000000000000000000 ) ) ;
#794 = AXIS2_PLACEMENT_3D ( 'NONE', #1078, #1084, #972 ) ;
#795 = AXIS2_PLACEMENT_3D ( 'NONE', #1191, #1297, #397 ) ;
#796 = EDGE_CURVE ( 'NONE', #1215, #930, #340, .T. ) ;
#797 = ADVANCED_FACE ( 'NONE', ( #488 ), #292, .F. ) ;
#798 = VECTOR ( 'NONE', #451, 1000.000000000000000 ) ;
#799 = PERSON ( 'UNSPECIFIED', 'UNSPECIFIED', 'UNSPECIFIED', ('UNSPECIFIED'), ('UNSPECIFIED'), ('UNSPECIFIED') ) ;
#800 = DIRECTION ( 'NONE',  ( -0.7071067811865554600, -0.7071067811865395800, 0.0000000000000000000 ) ) ;
#801 = CARTESIAN_POINT ( 'NONE',  ( 1.224646799147352100E-015, 0.5000000000000111000, 90.00000000000000000 ) ) ;
#802 = VERTEX_POINT ( 'NONE', #1031 ) ;
#803 = ORIENTED_EDGE ( 'NONE', *, *, #269, .F. ) ;
#804 = DIRECTION ( 'NONE',  ( -1.000000000000000000, 0.0000000000000000000, 0.0000000000000000000 ) ) ;
#805 = ORIENTED_EDGE ( 'NONE', *, *, #453, .F. ) ;
#806 = DIRECTION ( 'NONE',  ( -0.7071067811865543500, 0.7071067811865406900, 0.0000000000000000000 ) ) ;
#807 = CARTESIAN_POINT ( 'NONE',  ( -0.5000000000000001100, 0.0000000000000000000, -82.99382335613381700 ) ) ;
#808 = LINE ( 'NONE', #861, #508 ) ;
#809 = EDGE_CURVE ( 'NONE', #245, #75, #455, .T. ) ;
#810 = PERSON_AND_ORGANIZATION_ROLE ( 'design_owner' ) ;
#811 = LINE ( 'NONE', #1112, #783 ) ;
#812 = ORIENTED_EDGE ( 'NONE', *, *, #1330, .F. ) ;
#813 = PLANE ( 'NONE',  #679 ) ;
#814 = EDGE_CURVE ( 'NONE', #1214, #1032, #1006, .T. ) ;
#815 = VERTEX_POINT ( 'NONE', #931 ) ;
#816 = ORIENTED_EDGE ( 'NONE', *, *, #852, .F. ) ;
#817 =( NAMED_UNIT ( * ) SI_UNIT ( $, .STERADIAN. ) SOLID_ANGLE_UNIT ( ) );
#818 = COORDINATED_UNIVERSAL_TIME_OFFSET ( 1, 0, .AHEAD. ) ;
#819 = AXIS2_PLACEMENT_3D ( 'NONE', #302, #179, #393 ) ;
#820 = VERTEX_POINT ( 'NONE', #924 ) ;
#821 = ORIENTED_EDGE ( 'NONE', *, *, #270, .F. ) ;
#822 = CIRCLE ( 'NONE', #55, 4.025000000000000400 ) ;
#823 = APPLICATION_PROTOCOL_DEFINITION ( 'international standard', 'config_control_design', 1994, #910 ) ;
#824 = EDGE_CURVE ( 'NONE', #335, #944, #1266, .T. ) ;
#825 = CARTESIAN_POINT ( 'NONE',  ( 4.653657836759938800E-015, 0.0000000000000000000, -13.99999999999999800 ) ) ;
#826 = LINE ( 'NONE', #942, #102 ) ;
#827 = DIRECTION ( 'NONE',  ( -0.0000000000000000000, -1.000000000000000000, -0.0000000000000000000 ) ) ;
#828 = ORIENTED_EDGE ( 'NONE', *, *, #269, .T. ) ;
#829 = VECTOR ( 'NONE', #1292, 1000.000000000000000 ) ;
#830 =( LENGTH_UNIT ( ) NAMED_UNIT ( * ) SI_UNIT ( .MILLI., .METRE. ) );
#831 = EDGE_LOOP ( 'NONE', ( #792, #217, #959, #276 ) ) ;
#832 = EDGE_LOOP ( 'NONE', ( #303, #1219, #12, #467 ) ) ;
#833 = ORIENTED_EDGE ( 'NONE', *, *, #470, .F. ) ;
#834 = EDGE_CURVE ( 'NONE', #126, #1017, #83, .T. ) ;
#835 = CARTESIAN_POINT ( 'NONE',  ( 1.224646799147352100E-015, 0.5000000000000111000, -90.00000000000000000 ) ) ;
#836 = CARTESIAN_POINT ( 'NONE',  ( 1.224646799147352100E-015, 0.5000000000000111000, 90.00000000000000000 ) ) ;
#837 = EDGE_CURVE ( 'NONE', #67, #187, #422, .T. ) ;
#838 = CARTESIAN_POINT ( 'NONE',  ( 1.224646799147352100E-015, 0.6250000000000005600, 13.99999999999999800 ) ) ;
#839 = DIRECTION ( 'NONE',  ( -0.0000000000000000000, -1.000000000000000000, -0.0000000000000000000 ) ) ;
#840 = VECTOR ( 'NONE', #1036, 999.9999999999998900 ) ;
#841 = VECTOR ( 'NONE', #1204, 999.9999999999998900 ) ;
#842 = EDGE_LOOP ( 'NONE', ( #625, #323, #905, #1303 ) ) ;
#843 = CARTESIAN_POINT ( 'NONE',  ( 4.653657836759938800E-015, 10.49999999999999800, -13.99999999999999800 ) ) ;
#844 = VECTOR ( 'NONE', #264, 1000.000000000000000 ) ;
#845 = ORIENTED_EDGE ( 'NONE', *, *, #879, .F. ) ;
#846 = VERTEX_POINT ( 'NONE', #1239 ) ;
#847 = DATE_AND_TIME ( #1113, #194 ) ;
#848 = DIRECTION ( 'NONE',  ( -0.0000000000000000000, -0.0000000000000000000, -1.000000000000000000 ) ) ;
#849 = ORIENTED_EDGE ( 'NONE', *, *, #781, .T. ) ;
#850 = CARTESIAN_POINT ( 'NONE',  ( 0.5000000000000001100, 0.0000000000000000000, -90.00000000000000000 ) ) ;
#851 = ORIENTED_EDGE ( 'NONE', *, *, #1129, .T. ) ;
#852 = EDGE_CURVE ( 'NONE', #245, #1182, #600, .T. ) ;
#853 = CARTESIAN_POINT ( 'NONE',  ( 4.653657836759938800E-015, 10.49999999999999800, -17.39999999999999500 ) ) ;
#854 = DIRECTION ( 'NONE',  ( 0.0000000000000000000, 0.0000000000000000000, -1.000000000000000000 ) ) ;
#855 = CARTESIAN_POINT ( 'NONE',  ( 0.1633496420033381800, 0.3366503579966701500, 82.68834964200333100 ) ) ;
#856 =( GEOMETRIC_REPRESENTATION_CONTEXT ( 3 ) GLOBAL_UNCERTAINTY_ASSIGNED_CONTEXT ( ( #685 ) ) GLOBAL_UNIT_ASSIGNED_CONTEXT ( ( #830, #1025, #817 ) ) REPRESENTATION_CONTEXT ( 'NONE', 'WORKASPACE' ) );
#857 = CARTESIAN_POINT ( 'NONE',  ( 1.679296923330807100E-015, 0.6250000000000005600, 82.40000000000000600 ) ) ;
#858 = EDGE_CURVE ( 'NONE', #337, #560, #1315, .T. ) ;
#859 = EDGE_LOOP ( 'NONE', ( #154, #1126, #1140, #1290 ) ) ;
#860 = VECTOR ( 'NONE', #1044, 1000.000000000000000 ) ;
#861 = CARTESIAN_POINT ( 'NONE',  ( -0.5000000000000001100, 0.0000000000000000000, -90.00000000000000000 ) ) ;
#862 = EDGE_LOOP ( 'NONE', ( #319, #48, #1264, #348 ) ) ;
#863 = CARTESIAN_POINT ( 'NONE',  ( -0.1633496420033398700, 0.3366503579966667600, 17.68834964200333500 ) ) ;
#864 = CARTESIAN_POINT ( 'NONE',  ( -0.5000000000000001100, 0.0000000000000000000, 90.00000000000000000 ) ) ;
#865 = DIRECTION ( 'NONE',  ( 0.0000000000000000000, 0.0000000000000000000, -1.000000000000000000 ) ) ;
#866 = FACE_OUTER_BOUND ( 'NONE', #874, .T. ) ;
#867 = DIRECTION ( 'NONE',  ( 0.0000000000000000000, -0.7071067811865468000, -0.7071067811865483500 ) ) ;
#868 = AXIS2_PLACEMENT_3D ( 'NONE', #1128, #1309, #103 ) ;
#869 = DIRECTION ( 'NONE',  ( -0.0000000000000000000, -1.000000000000000000, -0.0000000000000000000 ) ) ;
#870 = ORIENTED_EDGE ( 'NONE', *, *, #513, .T. ) ;
#871 = EDGE_CURVE ( 'NONE', #618, #944, #1261, .T. ) ;
#872 = B_SPLINE_CURVE_WITH_KNOTS ( 'NONE', 3,
 ( #1201, #903, #636, #1328 ),
 .UNSPECIFIED., .F., .F.,
 ( 4, 4 ),
 ( 3.462573506242421100E-007, 0.0008487537887028153500 ),
 .UNSPECIFIED. ) ;
#873 = DIRECTION ( 'NONE',  ( -0.0000000000000000000, -1.000000000000000000, -0.0000000000000000000 ) ) ;
#874 = EDGE_LOOP ( 'NONE', ( #434, #486, #235, #95 ) ) ;
#875 = ADVANCED_FACE ( 'NONE', ( #768 ), #479, .F. ) ;
#876 = ORIENTED_EDGE ( 'NONE', *, *, #1066, .F. ) ;
#877 = PERSON_AND_ORGANIZATION ( #799, #368 ) ;
#878 = ORIENTED_EDGE ( 'NONE', *, *, #1129, .F. ) ;
#879 = EDGE_CURVE ( 'NONE', #946, #618, #277, .T. ) ;
#880 = PLANE ( 'NONE',  #1237 ) ;
#881 = CARTESIAN_POINT ( 'NONE',  ( 9.800000000000000700, 5.000000000000000900, 90.00000000000000000 ) ) ;
#882 = CARTESIAN_POINT ( 'NONE',  ( -0.5000000000000001100, 0.0000000000000000000, -82.99382335613381700 ) ) ;
#883 = CARTESIAN_POINT ( 'NONE',  ( 4.653657836759938800E-015, 0.0000000000000000000, -13.99999999999999800 ) ) ;
#884 = DIRECTION ( 'NONE',  ( 8.659560562354942700E-017, -0.7071067811865468000, 0.7071067811865483500 ) ) ;
#885 = FACE_OUTER_BOUND ( 'NONE', #113, .T. ) ;
#886 = ORIENTED_EDGE ( 'NONE', *, *, #1330, .T. ) ;
#887 = DIRECTION ( 'NONE',  ( 0.0000000000000000000, 0.0000000000000000000, -1.000000000000000000 ) ) ;
#888 = FACE_OUTER_BOUND ( 'NONE', #1244, .T. ) ;
#889 = EDGE_LOOP ( 'NONE', ( #851, #31, #711, #375 ) ) ;
#890 = CARTESIAN_POINT ( 'NONE',  ( -4.900000000000001200, 5.000000000000000000, 90.00000000000000000 ) ) ;
#891 = COORDINATED_UNIVERSAL_TIME_OFFSET ( 1, 0, .AHEAD. ) ;
#892 = ORIENTED_EDGE ( 'NONE', *, *, #655, .T. ) ;
#893 = CARTESIAN_POINT ( 'NONE',  ( 0.5000000000000001100, 0.0000000000000000000, 75.00617664386618300 ) ) ;
#894 = DIRECTION ( 'NONE',  ( 0.7071067811865406900, 0.7071067811865544600, -0.0000000000000000000 ) ) ;
#895 = EDGE_CURVE ( 'NONE', #1083, #965, #247, .T. ) ;
#896 = DIRECTION ( 'NONE',  ( -0.0000000000000000000, -0.0000000000000000000, -1.000000000000000000 ) ) ;
#897 = CYLINDRICAL_SURFACE ( 'NONE', #158, 3.399999999999998600 ) ;
#898 = CONICAL_SURFACE ( 'NONE', #622, 4.025000000000000400, 0.7853981633974492800 ) ;
#899 = CARTESIAN_POINT ( 'NONE',  ( 4.900000000000001200, 6.613092715395709400E-016, 90.00000000000000000 ) ) ;
#900 = CARTESIAN_POINT ( 'NONE',  ( 4.900000000000001200, 6.613092715395709400E-016, -90.00000000000000000 ) ) ;
#901 = CARTESIAN_POINT ( 'NONE',  ( 1.224646799147352100E-015, 0.6250000000000005600, 75.59999999999999400 ) ) ;
#902 = ORIENTED_EDGE ( 'NONE', *, *, #643, .F. ) ;
#903 = CARTESIAN_POINT ( 'NONE',  ( -0.1633496420033372100, 0.3366503579966695400, 10.31165035799666200 ) ) ;
#904 = VERTEX_POINT ( 'NONE', #853 ) ;
#905 = ORIENTED_EDGE ( 'NONE', *, *, #509, .T. ) ;
#906 = PERSON_AND_ORGANIZATION_ROLE ( 'creator' ) ;
#907 = EDGE_LOOP ( 'NONE', ( #495, #690, #1046, #421 ) ) ;
#908 = CARTESIAN_POINT ( 'NONE',  ( 4.655402799902039400E-016, 0.5000000000000118800, 75.47500000000000900 ) ) ;
#909 = EDGE_CURVE ( 'NONE', #1265, #1081, #262, .T. ) ;
#910 = APPLICATION_CONTEXT ( 'configuration controlled 3d designs of mechanical parts and assemblies' ) ;
#911 = EDGE_CURVE ( 'NONE', #75, #1067, #970, .T. ) ;
#912 = CARTESIAN_POINT ( 'NONE',  ( 1.224646799147352100E-015, 0.5000000000000111000, -90.00000000000000000 ) ) ;
#913 = DIRECTION ( 'NONE',  ( -0.0000000000000000000, -1.000000000000000000, -0.0000000000000000000 ) ) ;
#914 = ORIENTED_EDGE ( 'NONE', *, *, #940, .F. ) ;
#915 = EDGE_CURVE ( 'NONE', #207, #75, #1212, .T. ) ;
#916 = LINE ( 'NONE', #864, #722 ) ;
#917 = CARTESIAN_POINT ( 'NONE',  ( 2.106698656233234200E-014, 0.0000000000000000000, -74.97499999999999400 ) ) ;
#918 = APPROVAL_STATUS ( 'not_yet_approved' ) ;
#919 = LOCAL_TIME ( 12, 18, 31.00000000000000000, #1321 ) ;
#920 = EDGE_CURVE ( 'NONE', #758, #50, #229, .T. ) ;
#921 = VERTEX_POINT ( 'NONE', #30 ) ;
#922 = DIRECTION ( 'NONE',  ( 0.0000000000000000000, 0.0000000000000000000, -1.000000000000000000 ) ) ;
#923 = VECTOR ( 'NONE', #379, 1000.000000000000000 ) ;
#924 = CARTESIAN_POINT ( 'NONE',  ( 0.5000000000000001100, 0.0000000000000000000, 90.00000000000000000 ) ) ;
#925 = DIRECTION ( 'NONE',  ( -0.7071067811865390200, 0.7071067811865561200, 0.0000000000000000000 ) ) ;
#926 = VECTOR ( 'NONE', #338, 1000.000000000000000 ) ;
#927 = DIRECTION ( 'NONE',  ( 0.0000000000000000000, 0.0000000000000000000, -1.000000000000000000 ) ) ;
#928 = ADVANCED_FACE ( 'NONE', ( #1014 ), #945, .F. ) ;
#929 = DIRECTION ( 'NONE',  ( 0.0000000000000000000, 1.000000000000000000, 0.0000000000000000000 ) ) ;
#930 = VERTEX_POINT ( 'NONE', #37 ) ;
#931 = CARTESIAN_POINT ( 'NONE',  ( -0.5000000000000002200, 0.0000000000000000000, 10.00617664386618000 ) ) ;
#932 = ORIENTED_EDGE ( 'NONE', *, *, #453, .T. ) ;
#933 = DATE_AND_TIME ( #1080, #757 ) ;
#934 = ORIENTED_EDGE ( 'NONE', *, *, #301, .T. ) ;
#935 = EDGE_CURVE ( 'NONE', #1081, #1296, #278, .T. ) ;
#936 = ORIENTED_EDGE ( 'NONE', *, *, #1035, .T. ) ;
#937 = DIRECTION ( 'NONE',  ( -0.0000000000000000000, -1.000000000000000000, -0.0000000000000000000 ) ) ;
#938 = CARTESIAN_POINT ( 'NONE',  ( -0.5000000000000001100, 0.0000000000000000000, -10.00617664386618000 ) ) ;
#939 = CC_DESIGN_DATE_AND_TIME_ASSIGNMENT ( #933, #510, ( #419 ) ) ;
#940 = EDGE_CURVE ( 'NONE', #626, #1067, #514, .T. ) ;
#941 = CARTESIAN_POINT ( 'NONE',  ( 0.5000000000000001100, 0.0000000000000000000, -75.00617664386611200 ) ) ;
#942 = CARTESIAN_POINT ( 'NONE',  ( 4.653657836759938800E-015, 0.0000000000000000000, -17.39999999999999900 ) ) ;
#943 = LINE ( 'NONE', #494, #559 ) ;
#944 = VERTEX_POINT ( 'NONE', #1159 ) ;
#945 = CYLINDRICAL_SURFACE ( 'NONE', #143, 3.400000000000000400 ) ;
#946 = VERTEX_POINT ( 'NONE', #1051 ) ;
#947 = ORIENTED_EDGE ( 'NONE', *, *, #979, .T. ) ;
#948 = PERSON_AND_ORGANIZATION ( #799, #368 ) ;
#949 = CARTESIAN_POINT ( 'NONE',  ( 1.224646799147352100E-015, 0.5000000000000111000, 90.00000000000000000 ) ) ;
#950 = DIRECTION ( 'NONE',  ( -0.0000000000000000000, -1.000000000000000000, -0.0000000000000000000 ) ) ;
#951 = VERTEX_POINT ( 'NONE', #446 ) ;
#952 = EDGE_CURVE ( 'NONE', #1200, #1168, #742, .T. ) ;
#953 = DIRECTION ( 'NONE',  ( -0.0000000000000000000, -1.000000000000000000, -0.0000000000000000000 ) ) ;
#954 = VECTOR ( 'NONE', #473, 1000.000000000000000 ) ;
#955 = CARTESIAN_POINT ( 'NONE',  ( -0.3302917213469115900, 0.1697082786530920200, 17.84403664077161300 ) ) ;
#956 = FACE_OUTER_BOUND ( 'NONE', #832, .T. ) ;
#957 = DIRECTION ( 'NONE',  ( -0.7071067811865543500, 0.7071067811865406900, 0.0000000000000000000 ) ) ;
#958 = EDGE_CURVE ( 'NONE', #946, #1265, #332, .T. ) ;
#959 = ORIENTED_EDGE ( 'NONE', *, *, #1241, .F. ) ;
#960 = VECTOR ( 'NONE', #316, 1000.000000000000000 ) ;
#961 = ORIENTED_EDGE ( 'NONE', *, *, #426, .T. ) ;
#962 = DIRECTION ( 'NONE',  ( 0.0000000000000000000, 0.0000000000000000000, -1.000000000000000000 ) ) ;
#963 = EDGE_LOOP ( 'NONE', ( #551, #1318, #1029, #92 ) ) ;
#964 = PLANE ( 'NONE',  #1142 ) ;
#965 = VERTEX_POINT ( 'NONE', #653 ) ;
#966 = ORIENTED_EDGE ( 'NONE', *, *, #68, .T. ) ;
#967 = DIRECTION ( 'NONE',  ( 0.0000000000000000000, 0.0000000000000000000, -1.000000000000000000 ) ) ;
#968 = ORIENTED_EDGE ( 'NONE', *, *, #632, .T. ) ;
#969 = DIRECTION ( 'NONE',  ( 0.0000000000000000000, 0.0000000000000000000, -1.000000000000000000 ) ) ;
#970 = B_SPLINE_CURVE_WITH_KNOTS ( 'NONE', 3,
 ( #764, #855, #129, #251 ),
 .UNSPECIFIED., .F., .F.,
 ( 4, 4 ),
 ( 3.462573506243667800E-007, 0.0008487537887028158900 ),
 .UNSPECIFIED. ) ;
#971 = DIRECTION ( 'NONE',  ( -1.224646799147353500E-016, 1.000000000000000000, 0.0000000000000000000 ) ) ;
#972 = DIRECTION ( 'NONE',  ( 0.0000000000000000000, -0.0000000000000000000, 1.000000000000000000 ) ) ;
#973 = LINE ( 'NONE', #1207, #717 ) ;
#974 = CARTESIAN_POINT ( 'NONE',  ( 4.900000000000001200, 5.000000000000000900, 90.00000000000000000 ) ) ;
#975 = ADVANCED_FACE ( 'NONE', ( #1246 ), #450, .F. ) ;
#976 = EDGE_CURVE ( 'NONE', #35, #802, #1165, .T. ) ;
#977 = CARTESIAN_POINT ( 'NONE',  ( 1.641026710857451700E-015, 10.49999999999999800, 82.40000000000000600 ) ) ;
#978 = ORIENTED_EDGE ( 'NONE', *, *, #605, .T. ) ;
#979 = EDGE_CURVE ( 'NONE', #652, #1214, #1043, .T. ) ;
#980 = VECTOR ( 'NONE', #1170, 1000.000000000000000 ) ;
#981 = CARTESIAN_POINT ( 'NONE',  ( 2.359637956040458800E-014, 0.4999999999999887300, -75.47499999999998000 ) ) ;
#982 = ORIENTED_EDGE ( 'NONE', *, *, #377, .T. ) ;
#983 = ORIENTED_EDGE ( 'NONE', *, *, #1057, .F. ) ;
#984 = EDGE_CURVE ( 'NONE', #587, #705, #687, .T. ) ;
#985 = CARTESIAN_POINT ( 'NONE',  ( -9.800000000000000700, 7.499999999999993800, 90.00000000000000000 ) ) ;
#986 = B_SPLINE_CURVE_WITH_KNOTS ( 'NONE', 3,
 ( #1209, #166, #1202, #882 ),
 .UNSPECIFIED., .F., .F.,
 ( 4, 4 ),
 ( 3.462573506143082100E-007, 0.0008487537887028128500 ),
 .UNSPECIFIED. ) ;
#987 = DIRECTION ( 'NONE',  ( 0.0000000000000000000, 0.0000000000000000000, -1.000000000000000000 ) ) ;
#988 = ADVANCED_FACE ( 'NONE', ( #411 ), #1181, .F. ) ;
#989 = LINE ( 'NONE', #534, #749 ) ;
#990 = DIRECTION ( 'NONE',  ( -1.000000000000000000, -1.502975617135388500E-016, 0.0000000000000000000 ) ) ;
#991 = VECTOR ( 'NONE', #719, 1000.000000000000100 ) ;
#992 = EDGE_LOOP ( 'NONE', ( #532, #1111, #297, #64, #966, #7 ) ) ;
#993 = CARTESIAN_POINT ( 'NONE',  ( 1.224646799147352100E-015, 0.5000000000000111000, 90.00000000000000000 ) ) ;
#994 = VECTOR ( 'NONE', #1256, 1000.000000000000000 ) ;
#995 = ORIENTED_EDGE ( 'NONE', *, *, #584, .F. ) ;
#996 = CARTESIAN_POINT ( 'NONE',  ( 1.641026710857451700E-015, 10.49999999999999800, 17.39999999999999500 ) ) ;
#997 = ADVANCED_FACE ( 'NONE', ( #1110 ), #1166, .F. ) ;
#998 = EDGE_LOOP ( 'NONE', ( #566, #845, #1144, #1203, #1320, #497 ) ) ;
#999 = EDGE_LOOP ( 'NONE', ( #124, #1001, #789, #1179 ) ) ;
#1000 = CARTESIAN_POINT ( 'NONE',  ( 1.224646799147352100E-015, 0.5000000000000111000, 90.00000000000000000 ) ) ;
#1001 = ORIENTED_EDGE ( 'NONE', *, *, #643, .T. ) ;
#1002 = CARTESIAN_POINT ( 'NONE',  ( 2.057406622567553000E-014, 0.0000000000000000000, -79.00000000000000000 ) ) ;
#1003 = EDGE_CURVE ( 'NONE', #921, #1200, #1127, .T. ) ;
#1004 = DIRECTION ( 'NONE',  ( 0.0000000000000000000, 0.0000000000000000000, -1.000000000000000000 ) ) ;
#1005 = EDGE_CURVE ( 'NONE', #770, #174, #916, .T. ) ;
#1006 = CIRCLE ( 'NONE', #778, 4.025000000000000400 ) ;
#1007 = LINE ( 'NONE', #767, #540 ) ;
#1008 = DIRECTION ( 'NONE',  ( -1.000000000000000000, 0.0000000000000000000, 0.0000000000000000000 ) ) ;
#1009 = PERSON_AND_ORGANIZATION_ROLE ( 'design_supplier' ) ;
#1010 = CARTESIAN_POINT ( 'NONE',  ( -9.800000000000000700, 7.499999999999993800, -90.00000000000000000 ) ) ;
#1011 = EDGE_CURVE ( 'NONE', #635, #1081, #290, .T. ) ;
#1012 = VERTEX_POINT ( 'NONE', #371 ) ;
#1013 = MANIFOLD_SOLID_BREP ( 'M8 Tapped Hole4', #169 ) ;
#1014 = FACE_OUTER_BOUND ( 'NONE', #1205, .T. ) ;
#1015 = MECHANICAL_CONTEXT ( 'NONE', #910, 'mechanical' ) ;
#1016 = ORIENTED_EDGE ( 'NONE', *, *, #584, .T. ) ;
#1017 = VERTEX_POINT ( 'NONE', #272 ) ;
#1018 = ORIENTED_EDGE ( 'NONE', *, *, #731, .F. ) ;
#1019 = LINE ( 'NONE', #1117, #923 ) ;
#1020 = CARTESIAN_POINT ( 'NONE',  ( -0.1633496420033366300, 0.3366503579966700900, 75.31165035799666900 ) ) ;
#1021 = CARTESIAN_POINT ( 'NONE',  ( 1.030516129631308400E-014, 0.5000000000000020000, -10.47500000000000000 ) ) ;
#1022 = VECTOR ( 'NONE', #539, 1000.000000000000000 ) ;
#1023 = CYLINDRICAL_SURFACE ( 'NONE', #1253, 3.399999999999998600 ) ;
#1024 = CARTESIAN_POINT ( 'NONE',  ( -0.5000000000000001100, 0.0000000000000000000, 90.00000000000000000 ) ) ;
#1025 =( NAMED_UNIT ( * ) PLANE_ANGLE_UNIT ( ) SI_UNIT ( $, .RADIAN. ) );
#1026 = ORIENTED_EDGE ( 'NONE', *, *, #852, .T. ) ;
#1027 = CARTESIAN_POINT ( 'NONE',  ( 0.5000000000000001100, 0.0000000000000000000, -10.00617664386615100 ) ) ;
#1028 = LINE ( 'NONE', #366, #1093 ) ;
#1029 = ORIENTED_EDGE ( 'NONE', *, *, #1222, .F. ) ;
#1030 = EDGE_CURVE ( 'NONE', #187, #67, #660, .T. ) ;
#1031 = CARTESIAN_POINT ( 'NONE',  ( 9.725104008227855000E-015, 0.5000000000000026600, 17.52499999999999500 ) ) ;
#1032 = VERTEX_POINT ( 'NONE', #1276 ) ;
#1033 = CC_DESIGN_PERSON_AND_ORGANIZATION_ASSIGNMENT ( #662, #329, ( #419 ) ) ;
#1034 = ORIENTED_EDGE ( 'NONE', *, *, #500, .T. ) ;
#1035 = EDGE_CURVE ( 'NONE', #626, #1314, #445, .T. ) ;
#1036 = DIRECTION ( 'NONE',  ( 8.659560562354942700E-017, -0.7071067811865468000, 0.7071067811865483500 ) ) ;
#1037 = DIRECTION ( 'NONE',  ( 1.000000000000000000, 3.540251991789402400E-016, -0.0000000000000000000 ) ) ;
#1038 = CYLINDRICAL_SURFACE ( 'NONE', #563, 3.400000000000000400 ) ;
#1039 = DIRECTION ( 'NONE',  ( 0.0000000000000000000, 0.0000000000000000000, -1.000000000000000000 ) ) ;
#1040 = CARTESIAN_POINT ( 'NONE',  ( -4.900000000000001200, 5.000000000000000000, 90.00000000000000000 ) ) ;
#1041 = VECTOR ( 'NONE', #185, 1000.000000000000000 ) ;
#1042 = EDGE_LOOP ( 'NONE', ( #97, #236, #413, #747, #1267, #533 ) ) ;
#1043 = LINE ( 'NONE', #127, #60 ) ;
#1044 = DIRECTION ( 'NONE',  ( -0.0000000000000000000, -0.0000000000000000000, -1.000000000000000000 ) ) ;
#1045 = CARTESIAN_POINT ( 'NONE',  ( -9.800000000000000700, 4.999999999999998200, -90.00000000000000000 ) ) ;
#1046 = ORIENTED_EDGE ( 'NONE', *, *, #858, .F. ) ;
#1047 = APPROVAL_PERSON_ORGANIZATION ( #153, #221, #218 ) ;
#1048 = ORIENTED_EDGE ( 'NONE', *, *, #13, .F. ) ;
#1049 = EDGE_CURVE ( 'NONE', #635, #770, #385, .T. ) ;
#1050 = EDGE_LOOP ( 'NONE', ( #968, #1198, #44, #530, #892, #36, #1016, #1323, #535, #828, #870, #370, #63 ) ) ;
#1051 = CARTESIAN_POINT ( 'NONE',  ( 4.653657836759938800E-015, 0.6250000000000005600, -17.39999999999999900 ) ) ;
#1052 = DIRECTION ( 'NONE',  ( -0.0000000000000000000, -1.000000000000000000, -0.0000000000000000000 ) ) ;
#1053 = DIRECTION ( 'NONE',  ( 0.0000000000000000000, 0.0000000000000000000, -1.000000000000000000 ) ) ;
#1054 = LINE ( 'NONE', #782, #222 ) ;
#1055 = DIRECTION ( 'NONE',  ( 0.7071067811865388000, 0.7071067811865562300, 0.0000000000000000000 ) ) ;
#1056 = LINE ( 'NONE', #443, #716 ) ;
#1057 = EDGE_CURVE ( 'NONE', #335, #951, #1298, .T. ) ;
#1058 = CARTESIAN_POINT ( 'NONE',  ( 4.653657836759938800E-015, 0.6250000000000005600, -13.99999999999999800 ) ) ;
#1059 = ORIENTED_EDGE ( 'NONE', *, *, #837, .T. ) ;
#1060 = CARTESIAN_POINT ( 'NONE',  ( 6.800000000000066400, 10.49999999999999800, -90.00000000000000000 ) ) ;
#1061 = VECTOR ( 'NONE', #1150, 1000.000000000000000 ) ;
#1062 = CARTESIAN_POINT ( 'NONE',  ( 4.653657836759938800E-015, 0.0000000000000000000, -18.02499999999999900 ) ) ;
#1063 = VERTEX_POINT ( 'NONE', #777 ) ;
#1064 = CC_DESIGN_DATE_AND_TIME_ASSIGNMENT ( #847, #517, ( #77 ) ) ;
#1065 = CARTESIAN_POINT ( 'NONE',  ( 2.099044613738563200E-014, 0.0000000000000000000, -75.59999999999999400 ) ) ;
#1066 = EDGE_CURVE ( 'NONE', #460, #1182, #1028, .T. ) ;
#1067 = VERTEX_POINT ( 'NONE', #170 ) ;
#1068 = CARTESIAN_POINT ( 'NONE',  ( 6.800000000000066400, 10.49999999999999800, -90.00000000000000000 ) ) ;
#1069 = DIRECTION ( 'NONE',  ( 0.0000000000000000000, 1.000000000000000000, 0.0000000000000000000 ) ) ;
#1070 = LINE ( 'NONE', #142, #239 ) ;
#1071 = LINE ( 'NONE', #1024, #780 ) ;
#1072 = ADVANCED_FACE ( 'NONE', ( #459 ), #880, .F. ) ;
#1073 = AXIS2_PLACEMENT_3D ( 'NONE', #671, #458, #568 ) ;
#1074 = EDGE_CURVE ( 'NONE', #1269, #1234, #171, .T. ) ;
#1075 = VECTOR ( 'NONE', #506, 999.9999999999998900 ) ;
#1076 = FACE_OUTER_BOUND ( 'NONE', #314, .T. ) ;
#1077 = VECTOR ( 'NONE', #867, 999.9999999999998900 ) ;
#1078 = CARTESIAN_POINT ( 'NONE',  ( 4.900000000000001200, 5.000000000000000900, 90.00000000000000000 ) ) ;
#1079 = ORIENTED_EDGE ( 'NONE', *, *, #1090, .T. ) ;
#1080 = CALENDAR_DATE ( 2018, 21, 11 ) ;
#1081 = VERTEX_POINT ( 'NONE', #772 ) ;
#1082 = CARTESIAN_POINT ( 'NONE',  ( 2.057406622567553000E-014, 10.49999999999999800, -79.00000000000000000 ) ) ;
#1083 = VERTEX_POINT ( 'NONE', #974 ) ;
#1084 = DIRECTION ( 'NONE',  ( 0.0000000000000000000, 1.000000000000000000, 0.0000000000000000000 ) ) ;
#1085 = B_SPLINE_CURVE_WITH_KNOTS ( 'NONE', 3,
 ( #409, #1020, #105, #418 ),
 .UNSPECIFIED., .F., .F.,
 ( 4, 4 ),
 ( 3.462573506249940100E-007, 0.0008487537887028173000 ),
 .UNSPECIFIED. ) ;
#1086 = DIRECTION ( 'NONE',  ( -0.0000000000000000000, -0.0000000000000000000, -1.000000000000000000 ) ) ;
#1087 = CARTESIAN_POINT ( 'NONE',  ( 0.3302917213469053800, 0.1697082786530989000, -82.84403664077160600 ) ) ;
#1088 = VECTOR ( 'NONE', #1037, 1000.000000000000000 ) ;
#1089 = CARTESIAN_POINT ( 'NONE',  ( -0.5000000000000002200, 0.0000000000000000000, 82.99382335613383100 ) ) ;
#1090 = EDGE_CURVE ( 'NONE', #545, #1095, #637, .T. ) ;
#1091 = CARTESIAN_POINT ( 'NONE',  ( 1.717567135804161800E-015, 0.0000000000000000000, 18.02499999999999900 ) ) ;
#1092 = ORIENTED_EDGE ( 'NONE', *, *, #287, .F. ) ;
#1093 = VECTOR ( 'NONE', #1283, 1000.000000000000000 ) ;
#1094 = CARTESIAN_POINT ( 'NONE',  ( 0.1633496420033492000, 0.3366503579966592100, 17.68834964200334500 ) ) ;
#1095 = VERTEX_POINT ( 'NONE', #151 ) ;
#1096 = CARTESIAN_POINT ( 'NONE',  ( 4.900000000000001200, 5.000000000000000900, 90.00000000000000000 ) ) ;
#1097 = ORIENTED_EDGE ( 'NONE', *, *, #814, .T. ) ;
#1098 = ORIENTED_EDGE ( 'NONE', *, *, #466, .F. ) ;
#1099 = PLANE ( 'NONE',  #1301 ) ;
#1100 = EDGE_CURVE ( 'NONE', #820, #758, #133, .T. ) ;
#1101 = APPROVAL ( #1208, 'UNSPECIFIED' ) ;
#1102 = LINE ( 'NONE', #1060, #645 ) ;
#1103 = LINE ( 'NONE', #1213, #1136 ) ;
#1104 = DIRECTION ( 'NONE',  ( 1.000000000000000000, 0.0000000000000000000, 0.0000000000000000000 ) ) ;
#1105 = EDGE_CURVE ( 'NONE', #213, #1296, #753, .T. ) ;
#1106 = CARTESIAN_POINT ( 'NONE',  ( 0.0000000000000000000, 0.0000000000000000000, -90.00000000000000000 ) ) ;
#1107 = AXIS2_PLACEMENT_3D ( 'NONE', #219, #1146, #114 ) ;
#1108 = CIRCLE ( 'NONE', #190, 4.025000000000000400 ) ;
#1109 = EDGE_LOOP ( 'NONE', ( #816, #261, #199, #1097, #620, #484 ) ) ;
#1110 = FACE_OUTER_BOUND ( 'NONE', #859, .T. ) ;
#1111 = ORIENTED_EDGE ( 'NONE', *, *, #787, .F. ) ;
#1112 = CARTESIAN_POINT ( 'NONE',  ( 0.5000000000000001100, 0.0000000000000000000, 90.00000000000000000 ) ) ;
#1113 = CALENDAR_DATE ( 2018, 21, 11 ) ;
#1114 = VERTEX_POINT ( 'NONE', #695 ) ;
#1115 = CARTESIAN_POINT ( 'NONE',  ( 1.224646799147352100E-015, 0.5000000000000111000, 90.00000000000000000 ) ) ;
#1116 = ORIENTED_EDGE ( 'NONE', *, *, #1275, .F. ) ;
#1117 = CARTESIAN_POINT ( 'NONE',  ( 6.800000000000066400, 10.49999999999999800, 90.00000000000000000 ) ) ;
#1118 = PRODUCT_DEFINITION_FORMATION_WITH_SPECIFIED_SOURCE ( 'ANY', '', #597, .NOT_KNOWN. ) ;
#1119 = FACE_OUTER_BOUND ( 'NONE', #398, .T. ) ;
#1120 = EDGE_CURVE ( 'NONE', #50, #965, #531, .T. ) ;
#1121 = APPROVAL_STATUS ( 'not_yet_approved' ) ;
#1122 = DIRECTION ( 'NONE',  ( -0.0000000000000000000, -1.000000000000000000, -0.0000000000000000000 ) ) ;
#1123 = VECTOR ( 'NONE', #1270, 1000.000000000000000 ) ;
#1124 = CC_DESIGN_SECURITY_CLASSIFICATION ( #419, ( #1118 ) ) ;
#1125 = DIRECTION ( 'NONE',  ( -0.0000000000000000000, -1.000000000000000000, -0.0000000000000000000 ) ) ;
#1126 = ORIENTED_EDGE ( 'NONE', *, *, #1206, .T. ) ;
#1127 = LINE ( 'NONE', #1180, #980 ) ;
#1128 = CARTESIAN_POINT ( 'NONE',  ( 0.0000000000000000000, 0.0000000000000000000, 90.00000000000000000 ) ) ;
#1129 = EDGE_CURVE ( 'NONE', #965, #676, #576, .T. ) ;
#1130 = DIRECTION ( 'NONE',  ( 8.659560562354942700E-017, -0.7071067811865468000, 0.7071067811865483500 ) ) ;
#1131 = CARTESIAN_POINT ( 'NONE',  ( 4.653657836759938800E-015, 0.0000000000000000000, -13.99999999999999800 ) ) ;
#1132 = ORIENTED_EDGE ( 'NONE', *, *, #1105, .T. ) ;
#1133 = ADVANCED_FACE ( 'NONE', ( #888 ), #614, .F. ) ;
#1134 = DIRECTION ( 'NONE',  ( -0.0000000000000000000, -0.0000000000000000000, -1.000000000000000000 ) ) ;
#1135 = DIRECTION ( 'NONE',  ( -0.0000000000000000000, -1.000000000000000000, -0.0000000000000000000 ) ) ;
#1136 = VECTOR ( 'NONE', #929, 1000.000000000000000 ) ;
#1137 = DIRECTION ( 'NONE',  ( 0.7071067811865561200, 0.7071067811865390200, -0.0000000000000000000 ) ) ;
#1138 = CARTESIAN_POINT ( 'NONE',  ( -0.3302917213469126500, 0.1697082786530909000, -10.15596335922838400 ) ) ;
#1139 = LINE ( 'NONE', #498, #275 ) ;
#1140 = ORIENTED_EDGE ( 'NONE', *, *, #1035, .F. ) ;
#1141 = CARTESIAN_POINT ( 'NONE',  ( -0.5000000000000002200, 0.0000000000000000000, 82.99382335613383100 ) ) ;
#1142 = AXIS2_PLACEMENT_3D ( 'NONE', #49, #971, #54 ) ;
#1143 = EDGE_CURVE ( 'NONE', #516, #245, #9, .T. ) ;
#1144 = ORIENTED_EDGE ( 'NONE', *, *, #958, .T. ) ;
#1145 = VERTEX_POINT ( 'NONE', #593 ) ;
#1146 = DIRECTION ( 'NONE',  ( -0.0000000000000000000, -1.000000000000000000, -0.0000000000000000000 ) ) ;
#1147 = ORIENTED_EDGE ( 'NONE', *, *, #809, .F. ) ;
#1148 = DIRECTION ( 'NONE',  ( 1.000000000000000000, 1.224646799147353200E-016, -0.0000000000000000000 ) ) ;
#1149 = EDGE_LOOP ( 'NONE', ( #932, #598, #1317, #961 ) ) ;
#1150 = DIRECTION ( 'NONE',  ( -0.0000000000000000000, -0.0000000000000000000, -1.000000000000000000 ) ) ;
#1151 = FACE_OUTER_BOUND ( 'NONE', #831, .T. ) ;
#1152 = CARTESIAN_POINT ( 'NONE',  ( 9.800000000000000700, 7.499999999999996400, -90.00000000000000000 ) ) ;
#1153 = CARTESIAN_POINT ( 'NONE',  ( 9.800000000000000700, 5.000000000000000900, 90.00000000000000000 ) ) ;
#1154 = ORIENTED_EDGE ( 'NONE', *, *, #615, .F. ) ;
#1155 = VECTOR ( 'NONE', #257, 1000.000000000000200 ) ;
#1156 = CARTESIAN_POINT ( 'NONE',  ( -0.5000000000000002200, 0.0000000000000000000, 17.99382335613381700 ) ) ;
#1157 = ORIENTED_EDGE ( 'NONE', *, *, #144, .F. ) ;
#1158 = ORIENTED_EDGE ( 'NONE', *, *, #339, .T. ) ;
#1159 = CARTESIAN_POINT ( 'NONE',  ( 1.030516129631308400E-014, 0.5000000000000020000, -10.47500000000000000 ) ) ;
#1160 = CARTESIAN_POINT ( 'NONE',  ( 1.224646799147352100E-015, 0.5000000000000111000, 90.00000000000000000 ) ) ;
#1161 = DIRECTION ( 'NONE',  ( -0.7071067811865406900, -0.7071067811865543500, 0.0000000000000000000 ) ) ;
#1162 = FACE_OUTER_BOUND ( 'NONE', #358, .T. ) ;
#1163 = EDGE_CURVE ( 'NONE', #403, #705, #46, .T. ) ;
#1164 = FACE_BOUND ( 'NONE', #11, .T. ) ;
#1165 = B_SPLINE_CURVE_WITH_KNOTS ( 'NONE', 3,
 ( #1156, #955, #863, #255 ),
 .UNSPECIFIED., .F., .F.,
 ( 4, 4 ),
 ( 3.332785926306641600E-007, 0.0008487408099448120200 ),
 .UNSPECIFIED. ) ;
#1166 = PLANE ( 'NONE',  #425 ) ;
#1167 = CARTESIAN_POINT ( 'NONE',  ( -4.899999999999999500, -5.388445916248353000E-016, 90.00000000000000000 ) ) ;
#1168 = VERTEX_POINT ( 'NONE', #1068 ) ;
#1169 = EDGE_CURVE ( 'NONE', #174, #126, #546, .T. ) ;
#1170 = DIRECTION ( 'NONE',  ( -0.0000000000000000000, -0.0000000000000000000, -1.000000000000000000 ) ) ;
#1171 = AXIS2_PLACEMENT_3D ( 'NONE', #468, #380, #987 ) ;
#1172 = ORIENTED_EDGE ( 'NONE', *, *, #1229, .T. ) ;
#1173 = DIRECTION ( 'NONE',  ( -0.0000000000000000000, -1.000000000000000000, -0.0000000000000000000 ) ) ;
#1174 = DIRECTION ( 'NONE',  ( -0.0000000000000000000, -1.000000000000000000, -0.0000000000000000000 ) ) ;
#1175 = CC_DESIGN_APPROVAL ( #22, ( #1118 ) ) ;
#1176 = DIRECTION ( 'NONE',  ( -0.0000000000000000000, -0.0000000000000000000, -1.000000000000000000 ) ) ;
#1177 = DIRECTION ( 'NONE',  ( 0.0000000000000000000, 0.0000000000000000000, -1.000000000000000000 ) ) ;
#1178 = VECTOR ( 'NONE', #884, 999.9999999999998900 ) ;
#1179 = ORIENTED_EDGE ( 'NONE', *, *, #824, .T. ) ;
#1180 = CARTESIAN_POINT ( 'NONE',  ( 9.800000000000000700, 7.499999999999996400, 90.00000000000000000 ) ) ;
#1181 = CONICAL_SURFACE ( 'NONE', #300, 4.025000000000000400, 0.7853981633974492800 ) ;
#1182 = VERTEX_POINT ( 'NONE', #901 ) ;
#1183 = ORIENTED_EDGE ( 'NONE', *, *, #493, .F. ) ;
#1184 = COORDINATED_UNIVERSAL_TIME_OFFSET ( 1, 0, .AHEAD. ) ;
#1185 = ORIENTED_EDGE ( 'NONE', *, *, #1049, .T. ) ;
#1186 = CARTESIAN_POINT ( 'NONE',  ( 9.800000000000000700, 7.499999999999996400, 90.00000000000000000 ) ) ;
#1187 = ADVANCED_FACE ( 'NONE', ( #360 ), #697, .F. ) ;
#1188 = AXIS2_PLACEMENT_3D ( 'NONE', #838, #438, #922 ) ;
#1189 = EDGE_LOOP ( 'NONE', ( #575, #1034, #726, #740 ) ) ;
#1190 = EDGE_CURVE ( 'NONE', #207, #820, #342, .T. ) ;
#1191 = CARTESIAN_POINT ( 'NONE',  ( 1.224646799147352100E-015, -0.0000000000000000000, 79.00000000000000000 ) ) ;
#1192 = DIRECTION ( 'NONE',  ( -0.0000000000000000000, -0.0000000000000000000, -1.000000000000000000 ) ) ;
#1193 = CIRCLE ( 'NONE', #191, 3.400000000000000400 ) ;
#1194 = CARTESIAN_POINT ( 'NONE',  ( 0.3302917213469212500, 0.1697082786530829900, 17.84403664077162000 ) ) ;
#1195 = CARTESIAN_POINT ( 'NONE',  ( -4.899999999999999500, -5.388445916248353000E-016, 90.00000000000000000 ) ) ;
#1196 = EDGE_LOOP ( 'NONE', ( #1306, #1116, #33, #81, #791, #249, #1172, #702, #659, #547, #254, #983 ) ) ;
#1197 = DIRECTION ( 'NONE',  ( 0.0000000000000000000, 1.000000000000000000, 0.0000000000000000000 ) ) ;
#1198 = ORIENTED_EDGE ( 'NONE', *, *, #1190, .T. ) ;
#1199 = ADVANCED_FACE ( 'NONE', ( #561 ), #149, .F. ) ;
#1200 = VERTEX_POINT ( 'NONE', #689 ) ;
#1201 = CARTESIAN_POINT ( 'NONE',  ( -8.211709361842960900E-015, 0.5000000000000205400, 10.47500000000001900 ) ) ;
#1202 = CARTESIAN_POINT ( 'NONE',  ( -0.3302917213469089800, 0.1697082786530945700, -82.84403664077160600 ) ) ;
#1203 = ORIENTED_EDGE ( 'NONE', *, *, #565, .F. ) ;
#1204 = DIRECTION ( 'NONE',  ( 0.0000000000000000000, -0.7071067811865468000, -0.7071067811865483500 ) ) ;
#1205 = EDGE_LOOP ( 'NONE', ( #448, #80, #688, #444 ) ) ;
#1206 = EDGE_CURVE ( 'NONE', #802, #1314, #489, .T. ) ;
#1207 = CARTESIAN_POINT ( 'NONE',  ( -9.800000000000000700, 4.999999999999998200, 90.00000000000000000 ) ) ;
#1208 = APPROVAL_STATUS ( 'not_yet_approved' ) ;
#1209 = CARTESIAN_POINT ( 'NONE',  ( -2.266893126802786500E-014, 0.5000000000000349700, -82.52499999999996300 ) ) ;
#1210 = ORIENTED_EDGE ( 'NONE', *, *, #699, .T. ) ;
#1211 = CARTESIAN_POINT ( 'NONE',  ( 2.057406622567553000E-014, 0.6250000000000005600, -79.00000000000000000 ) ) ;
#1212 = LINE ( 'NONE', #361, #1061 ) ;
#1213 = CARTESIAN_POINT ( 'NONE',  ( 4.900000000000001200, 6.613092715395709400E-016, 90.00000000000000000 ) ) ;
#1214 = VERTEX_POINT ( 'NONE', #1089 ) ;
#1215 = VERTEX_POINT ( 'NONE', #1294 ) ;
#1216 = CARTESIAN_POINT ( 'NONE',  ( 1.224646799147352100E-015, 10.49999999999999800, 79.00000000000000000 ) ) ;
#1217 = APPROVAL_DATE_TIME ( #250, #1101 ) ;
#1218 = DIRECTION ( 'NONE',  ( 0.0000000000000000000, 0.0000000000000000000, -1.000000000000000000 ) ) ;
#1219 = ORIENTED_EDGE ( 'NONE', *, *, #984, .F. ) ;
#1220 = ADVANCED_FACE ( 'NONE', ( #57 ), #1099, .F. ) ;
#1221 = DIRECTION ( 'NONE',  ( 0.0000000000000000000, 0.0000000000000000000, -1.000000000000000000 ) ) ;
#1222 = EDGE_CURVE ( 'NONE', #820, #1067, #1139, .T. ) ;
#1223 = CARTESIAN_POINT ( 'NONE',  ( 4.653657836759938800E-015, 0.0000000000000000000, -13.99999999999999800 ) ) ;
#1224 = CONICAL_SURFACE ( 'NONE', #51, 4.025000000000000400, 0.7853981633974492800 ) ;
#1225 = CARTESIAN_POINT ( 'NONE',  ( 0.3302917213469208100, 0.1697082786530834100, -10.15596335922837700 ) ) ;
#1226 = DIRECTION ( 'NONE',  ( -0.0000000000000000000, -1.000000000000000000, -0.0000000000000000000 ) ) ;
#1227 = EDGE_LOOP ( 'NONE', ( #936, #430, #416, #784, #580, #589, #519, #263, #150, #66, #1285, #914 ) ) ;
#1228 = ORIENTED_EDGE ( 'NONE', *, *, #6, .T. ) ;
#1229 = EDGE_CURVE ( 'NONE', #560, #410, #617, .T. ) ;
#1230 = CARTESIAN_POINT ( 'NONE',  ( -0.5000000000000001100, 0.0000000000000000000, -10.00617664386618000 ) ) ;
#1231 = PRODUCT_RELATED_PRODUCT_CATEGORY ( 'detail', '', ( #597 ) ) ;
#1232 = EDGE_LOOP ( 'NONE', ( #608, #812, #351, #121 ) ) ;
#1233 = AXIS2_PLACEMENT_3D ( 'NONE', #406, #788, #1177 ) ;
#1234 = VERTEX_POINT ( 'NONE', #703 ) ;
#1235 = CARTESIAN_POINT ( 'NONE',  ( 1.030516129631308400E-014, 0.5000000000000020000, -10.47500000000000000 ) ) ;
#1236 = DIRECTION ( 'NONE',  ( -0.0000000000000000000, -1.000000000000000000, -0.0000000000000000000 ) ) ;
#1237 = AXIS2_PLACEMENT_3D ( 'NONE', #279, #1268, #668 ) ;
#1238 = CIRCLE ( 'NONE', #592, 3.400000000000000400 ) ;
#1239 = CARTESIAN_POINT ( 'NONE',  ( 0.5000000000000002200, 0.0000000000000000000, -17.99382335613382000 ) ) ;
#1240 = FACE_OUTER_BOUND ( 'NONE', #647, .T. ) ;
#1241 = EDGE_CURVE ( 'NONE', #846, #1296, #646, .T. ) ;
#1242 = LINE ( 'NONE', #1091, #1178 ) ;
#1243 = CARTESIAN_POINT ( 'NONE',  ( 4.900000000000001200, 5.000000000000000900, 90.00000000000000000 ) ) ;
#1244 = EDGE_LOOP ( 'NONE', ( #178, #553, #995, #1280 ) ) ;
#1245 = DIRECTION ( 'NONE',  ( 0.0000000000000000000, 0.0000000000000000000, -1.000000000000000000 ) ) ;
#1246 = FACE_OUTER_BOUND ( 'NONE', #963, .T. ) ;
#1247 = EDGE_CURVE ( 'NONE', #1114, #1012, #26, .T. ) ;
#1248 = ORIENTED_EDGE ( 'NONE', *, *, #748, .T. ) ;
#1249 = CC_DESIGN_PERSON_AND_ORGANIZATION_ASSIGNMENT ( #651, #629, ( #1118 ) ) ;
#1250 = ORIENTED_EDGE ( 'NONE', *, *, #333, .F. ) ;
#1251 = ORIENTED_EDGE ( 'NONE', *, *, #1169, .F. ) ;
#1252 = AXIS2_PLACEMENT_3D ( 'NONE', #733, #201, #522 ) ;
#1253 = AXIS2_PLACEMENT_3D ( 'NONE', #136, #353, #436 ) ;
#1254 = AXIS2_PLACEMENT_3D ( 'NONE', #346, #1135, #735 ) ;
#1255 = EDGE_CURVE ( 'NONE', #213, #1017, #811, .T. ) ;
#1256 = DIRECTION ( 'NONE',  ( -0.0000000000000000000, -0.0000000000000000000, -1.000000000000000000 ) ) ;
#1257 = FACE_OUTER_BOUND ( 'NONE', #435, .T. ) ;
#1258 = DIRECTION ( 'NONE',  ( -3.469446951953614200E-016, 1.000000000000000000, 0.0000000000000000000 ) ) ;
#1259 = FACE_OUTER_BOUND ( 'NONE', #999, .T. ) ;
#1260 = ORIENTED_EDGE ( 'NONE', *, *, #520, .F. ) ;
#1261 = LINE ( 'NONE', #123, #107 ) ;
#1262 = ORIENTED_EDGE ( 'NONE', *, *, #111, .T. ) ;
#1263 = DIRECTION ( 'NONE',  ( -0.0000000000000000000, -1.000000000000000000, -0.0000000000000000000 ) ) ;
#1264 = ORIENTED_EDGE ( 'NONE', *, *, #344, .F. ) ;
#1265 = VERTEX_POINT ( 'NONE', #619 ) ;
#1266 = B_SPLINE_CURVE_WITH_KNOTS ( 'NONE', 3,
 ( #1230, #1138, #17, #1235 ),
 .UNSPECIFIED., .F., .F.,
 ( 4, 4 ),
 ( 3.332785926291391300E-007, 0.0008487408099448107200 ),
 .UNSPECIFIED. ) ;
#1267 = ORIENTED_EDGE ( 'NONE', *, *, #699, .F. ) ;
#1268 = DIRECTION ( 'NONE',  ( -0.7071067811865543500, 0.7071067811865406900, 0.0000000000000000000 ) ) ;
#1269 = VERTEX_POINT ( 'NONE', #728 ) ;
#1270 = DIRECTION ( 'NONE',  ( -0.0000000000000000000, -0.0000000000000000000, -1.000000000000000000 ) ) ;
#1271 = DIRECTION ( 'NONE',  ( -0.7071067811865390200, 0.7071067811865561200, 0.0000000000000000000 ) ) ;
#1272 = AXIS2_PLACEMENT_3D ( 'NONE', #1216, #334, #94 ) ;
#1273 = AXIS2_PLACEMENT_3D ( 'NONE', #843, #839, #854 ) ;
#1274 = DIRECTION ( 'NONE',  ( 1.000000000000000000, 3.469446951953614200E-016, -0.0000000000000000000 ) ) ;
#1275 = EDGE_CURVE ( 'NONE', #35, #815, #1108, .T. ) ;
#1276 = CARTESIAN_POINT ( 'NONE',  ( -0.5000000000000002200, 0.0000000000000000000, 75.00617664386618300 ) ) ;
#1277 = CARTESIAN_POINT ( 'NONE',  ( 1.224646799147352100E-015, 10.49999999999999800, 79.00000000000000000 ) ) ;
#1278 = ORIENTED_EDGE ( 'NONE', *, *, #1074, .F. ) ;
#1279 = VECTOR ( 'NONE', #755, 1000.000000000000000 ) ;
#1280 = ORIENTED_EDGE ( 'NONE', *, *, #1003, .T. ) ;
#1281 = CC_DESIGN_PERSON_AND_ORGANIZATION_ASSIGNMENT ( #877, #810, ( #597 ) ) ;
#1282 = AXIS2_PLACEMENT_3D ( 'NONE', #1167, #1274, #1258 ) ;
#1283 = DIRECTION ( 'NONE',  ( -0.0000000000000000000, -1.000000000000000000, -0.0000000000000000000 ) ) ;
#1284 = ADVANCED_FACE ( 'NONE', ( #119 ), #723, .F. ) ;
#1285 = ORIENTED_EDGE ( 'NONE', *, *, #1222, .T. ) ;
#1286 = CALENDAR_DATE ( 2018, 21, 11 ) ;
#1287 = AXIS2_PLACEMENT_3D ( 'NONE', #524, #318, #1319 ) ;
#1288 = CARTESIAN_POINT ( 'NONE',  ( -8.760763370866180500E-015, 0.5000000000000210900, -17.52499999999997700 ) ) ;
#1289 = CARTESIAN_POINT ( 'NONE',  ( -8.211709361842960900E-015, 0.5000000000000205400, 10.47500000000001900 ) ) ;
#1290 = ORIENTED_EDGE ( 'NONE', *, *, #144, .T. ) ;
#1291 = B_SPLINE_CURVE_WITH_KNOTS ( 'NONE', 3,
 ( #1141, #656, #256, #439 ),
 .UNSPECIFIED., .F., .F.,
 ( 4, 4 ),
 ( 3.332785926264210000E-007, 0.0008487408099448218900 ),
 .UNSPECIFIED. ) ;
#1292 = DIRECTION ( 'NONE',  ( -0.7071067811865388000, -0.7071067811865562300, -0.0000000000000000000 ) ) ;
#1293 = PLANE ( 'NONE',  #252 ) ;
#1294 = CARTESIAN_POINT ( 'NONE',  ( 6.800000000000066400, 10.49999999999999800, 90.00000000000000000 ) ) ;
#1295 = LINE ( 'NONE', #234, #926 ) ;
#1296 = VERTEX_POINT ( 'NONE', #404 ) ;
#1297 = DIRECTION ( 'NONE',  ( -0.0000000000000000000, -1.000000000000000000, -0.0000000000000000000 ) ) ;
#1298 = CIRCLE ( 'NONE', #751, 4.025000000000000400 ) ;
#1299 = ORIENTED_EDGE ( 'NONE', *, *, #1143, .T. ) ;
#1300 = CARTESIAN_POINT ( 'NONE',  ( 1.224646799147352100E-015, 0.5000000000000111000, 90.00000000000000000 ) ) ;
#1301 = AXIS2_PLACEMENT_3D ( 'NONE', #708, #804, #198 ) ;
#1302 = DIRECTION ( 'NONE',  ( 1.000000000000000000, 1.502975617135388300E-016, 0.0000000000000000000 ) ) ;
#1303 = ORIENTED_EDGE ( 'NONE', *, *, #193, .F. ) ;
#1304 = EDGE_CURVE ( 'NONE', #362, #921, #574, .T. ) ;
#1305 = PLANE ( 'NONE',  #172 ) ;
#1306 = ORIENTED_EDGE ( 'NONE', *, *, #590, .F. ) ;
#1307 = CARTESIAN_POINT ( 'NONE',  ( 1.224646799147352100E-015, 0.5000000000000111000, 90.00000000000000000 ) ) ;
#1308 = CARTESIAN_POINT ( 'NONE',  ( 4.653657836759938800E-015, 0.0000000000000000000, -13.99999999999999800 ) ) ;
#1309 = DIRECTION ( 'NONE',  ( 0.0000000000000000000, 0.0000000000000000000, -1.000000000000000000 ) ) ;
#1310 = DIRECTION ( 'NONE',  ( 0.0000000000000000000, 0.0000000000000000000, -1.000000000000000000 ) ) ;
#1311 = LINE ( 'NONE', #490, #752 ) ;
#1312 = VECTOR ( 'NONE', #192, 1000.000000000000000 ) ;
#1313 = CARTESIAN_POINT ( 'NONE',  ( 1.224646799147352100E-015, 0.0000000000000000000, 13.99999999999999800 ) ) ;
#1314 = VERTEX_POINT ( 'NONE', #4 ) ;
#1315 = LINE ( 'NONE', #732, #315 ) ;
#1316 = APPROVAL_ROLE ( '' ) ;
#1317 = ORIENTED_EDGE ( 'NONE', *, *, #1304, .F. ) ;
#1318 = ORIENTED_EDGE ( 'NONE', *, *, #911, .T. ) ;
#1319 = DIRECTION ( 'NONE',  ( 0.0000000000000000000, -0.0000000000000000000, -1.000000000000000000 ) ) ;
#1320 = ORIENTED_EDGE ( 'NONE', *, *, #718, .T. ) ;
#1321 = COORDINATED_UNIVERSAL_TIME_OFFSET ( 1, 0, .AHEAD. ) ;
#1322 = ADVANCED_FACE ( 'NONE', ( #1076 ), #704, .F. ) ;
#1323 = ORIENTED_EDGE ( 'NONE', *, *, #796, .T. ) ;
#1324 = CC_DESIGN_PERSON_AND_ORGANIZATION_ASSIGNMENT ( #675, #906, ( #77 ) ) ;
#1325 = APPROVAL_ROLE ( '' ) ;
#1326 = ORIENTED_EDGE ( 'NONE', *, *, #940, .T. ) ;
#1327 = FACE_OUTER_BOUND ( 'NONE', #889, .T. ) ;
#1328 = CARTESIAN_POINT ( 'NONE',  ( -0.5000000000000002200, 0.0000000000000000000, 10.00617664386618000 ) ) ;
#1329 = DIRECTION ( 'NONE',  ( -0.0000000000000000000, -0.0000000000000000000, -1.000000000000000000 ) ) ;
#1330 = EDGE_CURVE ( 'NONE', #460, #516, #544, .T. ) ;
ENDSEC;
END-ISO-10303-21;
