ISO-10303-21;
HEADER;
FILE_DESCRIPTION (( 'STEP AP203' ),
    '1' );
FILE_NAME ('ALP0824.STEP',
    '2017-02-06T17:20:44',
    ( '' ),
    ( '' ),
    'SwSTEP 2.0',
    'SolidWorks 2012',
    '' );
FILE_SCHEMA (( 'CONFIG_CONTROL_DESIGN' ));
ENDSEC;

DATA;
#1 = COORDINATED_UNIVERSAL_TIME_OFFSET ( 1, 0, .AHEAD. ) ;
#2 = DATE_AND_TIME ( #12, #16 ) ;
#3 = DATE_AND_TIME ( #23, #22 ) ;
#4 = APPROVAL_PERSON_ORGANIZATION ( #8, #433, #847 ) ;
#5 = COORDINATED_UNIVERSAL_TIME_OFFSET ( 1, 0, .AHEAD. ) ;
#6 = COORDINATED_UNIVERSAL_TIME_OFFSET ( 1, 0, .AHEAD. ) ;
#7 = APPROVAL_DATE_TIME ( #3, #433 ) ;
#8 = PERSON_AND_ORGANIZATION ( #346, #21 ) ;
#9 = PERSON_AND_ORGANIZATION ( #346, #21 ) ;
#10 = COORDINATED_UNIVERSAL_TIME_OFFSET ( 1, 0, .AHEAD. ) ;
#11 = APPROVAL_PERSON_ORGANIZATION ( #34, #431, #853 ) ;
#12 = CALENDAR_DATE ( 2017, 6, 2 ) ;
#13 = LOCAL_TIME ( 18, 20, 44.00000000000000000, #10 ) ;
#14 = DATE_AND_TIME ( #28, #13 ) ;
#15 = APPROVAL_PERSON_ORGANIZATION ( #17, #447, #862 ) ;
#16 = LOCAL_TIME ( 18, 20, 44.00000000000000000, #1 ) ;
#17 = PERSON_AND_ORGANIZATION ( #346, #21 ) ;
#18 = COORDINATED_UNIVERSAL_TIME_OFFSET ( 1, 0, .AHEAD. ) ;
#19 = LOCAL_TIME ( 18, 20, 44.00000000000000000, #6 ) ;
#20 = PERSON_AND_ORGANIZATION ( #346, #21 ) ;
#21 = ORGANIZATION ( 'UNSPECIFIED', 'UNSPECIFIED', '' ) ;
#22 = LOCAL_TIME ( 18, 20, 44.00000000000000000, #5 ) ;
#23 = CALENDAR_DATE ( 2017, 6, 2 ) ;
#24 = LOCAL_TIME ( 18, 20, 44.00000000000000000, #18 ) ;
#25 = DATE_AND_TIME ( #29, #24 ) ;
#26 = PERSON_AND_ORGANIZATION ( #346, #21 ) ;
#27 = APPROVAL_DATE_TIME ( #36, #431 ) ;
#28 = CALENDAR_DATE ( 2017, 6, 2 ) ;
#29 = CALENDAR_DATE ( 2017, 6, 2 ) ;
#30 = APPROVAL_DATE_TIME ( #25, #447 ) ;
#31 = PERSON_AND_ORGANIZATION ( #346, #21 ) ;
#32 = SHAPE_DEFINITION_REPRESENTATION ( #888, #875 ) ;
#33 = PERSON_AND_ORGANIZATION ( #346, #21 ) ;
#34 = PERSON_AND_ORGANIZATION ( #346, #21 ) ;
#35 = CALENDAR_DATE ( 2017, 6, 2 ) ;
#36 = DATE_AND_TIME ( #35, #19 ) ;
#37 = ADVANCED_FACE ( 'NONE', ( #297 ), #272, .T. ) ;
#38 = ADVANCED_FACE ( 'NONE', ( #290 ), #287, .F. ) ;
#39 = ADVANCED_FACE ( 'NONE', ( #97 ), #274, .T. ) ;
#40 = ADVANCED_FACE ( 'NONE', ( #283 ), #477, .F. ) ;
#41 = ADVANCED_FACE ( 'NONE', ( #288 ), #276, .T. ) ;
#42 = ADVANCED_FACE ( 'NONE', ( #284 ), #286, .T. ) ;
#43 = ADVANCED_FACE ( 'NONE', ( #296 ), #275, .F. ) ;
#44 = ADVANCED_FACE ( 'NONE', ( #291 ), #282, .T. ) ;
#45 = ADVANCED_FACE ( 'NONE', ( #273 ), #304, .T. ) ;
#46 = ADVANCED_FACE ( 'NONE', ( #281 ), #315, .T. ) ;
#47 = ADVANCED_FACE ( 'NONE', ( #295 ), #309, .F. ) ;
#48 = ADVANCED_FACE ( 'NONE', ( #292 ), #310, .T. ) ;
#49 = ADVANCED_FACE ( 'NONE', ( #278 ), #526, .F. ) ;
#50 = ADVANCED_FACE ( 'NONE', ( #280, #285 ), #514, .T. ) ;
#51 = ADVANCED_FACE ( 'NONE', ( #298 ), #314, .T. ) ;
#52 = ADVANCED_FACE ( 'NONE', ( #311 ), #524, .F. ) ;
#53 = ADVANCED_FACE ( 'NONE', ( #305 ), #299, .F. ) ;
#54 = ADVANCED_FACE ( 'NONE', ( #300 ), #303, .F. ) ;
#55 = ADVANCED_FACE ( 'NONE', ( #308 ), #499, .F. ) ;
#56 = ADVANCED_FACE ( 'NONE', ( #313 ), #586, .F. ) ;
#57 = ADVANCED_FACE ( 'NONE', ( #302 ), #316, .T. ) ;
#58 = ADVANCED_FACE ( 'NONE', ( #312, #317 ), #532, .F. ) ;
#59 = ADVANCED_FACE ( 'NONE', ( #301, #332 ), #567, .T. ) ;
#60 = ADVANCED_FACE ( 'NONE', ( #333 ), #582, .F. ) ;
#61 = ADVANCED_FACE ( 'NONE', ( #318 ), #334, .T. ) ;
#62 = ADVANCED_FACE ( 'NONE', ( #335 ), #327, .F. ) ;
#63 = CIRCLE ( 'NONE', #437, 9.300000000000002500 ) ;
#64 = VECTOR ( 'NONE', #681, 1000.000000000000000 ) ;
#65 = VECTOR ( 'NONE', #670, 1000.000000000000000 ) ;
#66 = VECTOR ( 'NONE', #684, 1000.000000000000000 ) ;
#67 = VECTOR ( 'NONE', #662, 1000.000000000000000 ) ;
#68 = LINE ( 'NONE', #661, #67 ) ;
#69 = VECTOR ( 'NONE', #752, 1000.000000000000000 ) ;
#70 = LINE ( 'NONE', #668, #66 ) ;
#71 = CIRCLE ( 'NONE', #449, 5.025000000000001200 ) ;
#72 = LINE ( 'NONE', #659, #65 ) ;
#73 = LINE ( 'NONE', #677, #64 ) ;
#74 = CIRCLE ( 'NONE', #450, 6.999999999999998200 ) ;
#75 = LINE ( 'NONE', #682, #86 ) ;
#76 = VECTOR ( 'NONE', #671, 1000.000000000000000 ) ;
#77 = LINE ( 'NONE', #657, #78 ) ;
#78 = VECTOR ( 'NONE', #698, 1000.000000000000100 ) ;
#79 = VECTOR ( 'NONE', #722, 1000.000000000000000 ) ;
#80 = LINE ( 'NONE', #830, #81 ) ;
#81 = VECTOR ( 'NONE', #842, 1000.000000000000000 ) ;
#82 = LINE ( 'NONE', #673, #76 ) ;
#83 = LINE ( 'NONE', #680, #84 ) ;
#84 = VECTOR ( 'NONE', #665, 1000.000000000000000 ) ;
#85 = CIRCLE ( 'NONE', #456, 6.999999999999998200 ) ;
#86 = VECTOR ( 'NONE', #664, 999.9999999999998900 ) ;
#87 = CIRCLE ( 'NONE', #448, 4.249999999999998200 ) ;
#88 = CIRCLE ( 'NONE', #462, 4.249999999999999100 ) ;
#89 = LINE ( 'NONE', #719, #79 ) ;
#90 = CIRCLE ( 'NONE', #430, 6.600000000000000500 ) ;
#91 = CIRCLE ( 'NONE', #454, 6.999999999999998200 ) ;
#92 = CIRCLE ( 'NONE', #467, 6.999999999999998200 ) ;
#93 = LINE ( 'NONE', #774, #94 ) ;
#94 = VECTOR ( 'NONE', #776, 1000.000000000000000 ) ;
#95 = ORIENTED_EDGE ( 'NONE', *, *, #349, .T. ) ;
#96 = ORIENTED_EDGE ( 'NONE', *, *, #356, .F. ) ;
#97 = FACE_OUTER_BOUND ( 'NONE', #230, .T. ) ;
#98 = ORIENTED_EDGE ( 'NONE', *, *, #355, .T. ) ;
#99 = ORIENTED_EDGE ( 'NONE', *, *, #368, .F. ) ;
#100 = ORIENTED_EDGE ( 'NONE', *, *, #367, .T. ) ;
#101 = ORIENTED_EDGE ( 'NONE', *, *, #354, .T. ) ;
#102 = ORIENTED_EDGE ( 'NONE', *, *, #364, .F. ) ;
#103 = ORIENTED_EDGE ( 'NONE', *, *, #363, .T. ) ;
#104 = ORIENTED_EDGE ( 'NONE', *, *, #359, .T. ) ;
#105 = ORIENTED_EDGE ( 'NONE', *, *, #362, .F. ) ;
#106 = ORIENTED_EDGE ( 'NONE', *, *, #362, .T. ) ;
#107 = ORIENTED_EDGE ( 'NONE', *, *, #373, .T. ) ;
#108 = ORIENTED_EDGE ( 'NONE', *, *, #361, .F. ) ;
#109 = ORIENTED_EDGE ( 'NONE', *, *, #372, .T. ) ;
#110 = ORIENTED_EDGE ( 'NONE', *, *, #369, .F. ) ;
#111 = ORIENTED_EDGE ( 'NONE', *, *, #352, .F. ) ;
#112 = ORIENTED_EDGE ( 'NONE', *, *, #357, .F. ) ;
#113 = ORIENTED_EDGE ( 'NONE', *, *, #352, .T. ) ;
#114 = ORIENTED_EDGE ( 'NONE', *, *, #365, .T. ) ;
#115 = ORIENTED_EDGE ( 'NONE', *, *, #371, .T. ) ;
#116 = EDGE_LOOP ( 'NONE', ( #153, #149, #132, #144, #176 ) ) ;
#117 = ORIENTED_EDGE ( 'NONE', *, *, #350, .F. ) ;
#118 = ORIENTED_EDGE ( 'NONE', *, *, #369, .T. ) ;
#119 = ORIENTED_EDGE ( 'NONE', *, *, #406, .T. ) ;
#120 = ORIENTED_EDGE ( 'NONE', *, *, #360, .F. ) ;
#121 = ORIENTED_EDGE ( 'NONE', *, *, #411, .T. ) ;
#122 = ORIENTED_EDGE ( 'NONE', *, *, #353, .F. ) ;
#123 = ORIENTED_EDGE ( 'NONE', *, *, #397, .T. ) ;
#124 = ORIENTED_EDGE ( 'NONE', *, *, #351, .F. ) ;
#125 = ORIENTED_EDGE ( 'NONE', *, *, #410, .F. ) ;
#126 = ORIENTED_EDGE ( 'NONE', *, *, #353, .T. ) ;
#127 = ORIENTED_EDGE ( 'NONE', *, *, #418, .F. ) ;
#128 = ORIENTED_EDGE ( 'NONE', *, *, #399, .T. ) ;
#129 = ORIENTED_EDGE ( 'NONE', *, *, #376, .F. ) ;
#130 = ORIENTED_EDGE ( 'NONE', *, *, #360, .T. ) ;
#131 = ORIENTED_EDGE ( 'NONE', *, *, #377, .T. ) ;
#132 = ORIENTED_EDGE ( 'NONE', *, *, #420, .F. ) ;
#133 = ORIENTED_EDGE ( 'NONE', *, *, #426, .F. ) ;
#134 = ORIENTED_EDGE ( 'NONE', *, *, #411, .F. ) ;
#135 = ORIENTED_EDGE ( 'NONE', *, *, #399, .F. ) ;
#136 = ORIENTED_EDGE ( 'NONE', *, *, #400, .F. ) ;
#137 = ORIENTED_EDGE ( 'NONE', *, *, #407, .T. ) ;
#138 = ORIENTED_EDGE ( 'NONE', *, *, #374, .F. ) ;
#139 = ORIENTED_EDGE ( 'NONE', *, *, #398, .F. ) ;
#140 = ORIENTED_EDGE ( 'NONE', *, *, #387, .F. ) ;
#141 = ORIENTED_EDGE ( 'NONE', *, *, #347, .T. ) ;
#142 = ORIENTED_EDGE ( 'NONE', *, *, #377, .F. ) ;
#143 = ORIENTED_EDGE ( 'NONE', *, *, #375, .F. ) ;
#144 = ORIENTED_EDGE ( 'NONE', *, *, #358, .F. ) ;
#145 = ORIENTED_EDGE ( 'NONE', *, *, #408, .F. ) ;
#146 = ORIENTED_EDGE ( 'NONE', *, *, #349, .F. ) ;
#147 = ORIENTED_EDGE ( 'NONE', *, *, #351, .T. ) ;
#148 = ORIENTED_EDGE ( 'NONE', *, *, #347, .F. ) ;
#149 = ORIENTED_EDGE ( 'NONE', *, *, #375, .T. ) ;
#150 = ORIENTED_EDGE ( 'NONE', *, *, #372, .F. ) ;
#151 = ORIENTED_EDGE ( 'NONE', *, *, #419, .F. ) ;
#152 = ORIENTED_EDGE ( 'NONE', *, *, #355, .F. ) ;
#153 = ORIENTED_EDGE ( 'NONE', *, *, #383, .F. ) ;
#154 = ORIENTED_EDGE ( 'NONE', *, *, #357, .T. ) ;
#155 = ORIENTED_EDGE ( 'NONE', *, *, #354, .F. ) ;
#156 = ORIENTED_EDGE ( 'NONE', *, *, #418, .T. ) ;
#157 = ORIENTED_EDGE ( 'NONE', *, *, #427, .F. ) ;
#158 = ORIENTED_EDGE ( 'NONE', *, *, #382, .T. ) ;
#159 = ORIENTED_EDGE ( 'NONE', *, *, #416, .F. ) ;
#160 = ORIENTED_EDGE ( 'NONE', *, *, #358, .T. ) ;
#161 = ORIENTED_EDGE ( 'NONE', *, *, #401, .F. ) ;
#162 = ORIENTED_EDGE ( 'NONE', *, *, #356, .T. ) ;
#163 = ORIENTED_EDGE ( 'NONE', *, *, #420, .T. ) ;
#164 = ORIENTED_EDGE ( 'NONE', *, *, #387, .T. ) ;
#165 = ORIENTED_EDGE ( 'NONE', *, *, #361, .T. ) ;
#166 = ORIENTED_EDGE ( 'NONE', *, *, #415, .T. ) ;
#167 = ORIENTED_EDGE ( 'NONE', *, *, #382, .F. ) ;
#168 = ORIENTED_EDGE ( 'NONE', *, *, #370, .T. ) ;
#169 = CLOSED_SHELL ( 'NONE', ( #53, #54, #39, #43, #48, #46, #55, #40, #49, #52, #56, #60, #61, #57, #58, #62, #59, #45, #37, #42, #41, #51, #44, #50, #38, #47 ) ) ;
#170 = ORIENTED_EDGE ( 'NONE', *, *, #391, .F. ) ;
#171 = ORIENTED_EDGE ( 'NONE', *, *, #350, .T. ) ;
#172 = ORIENTED_EDGE ( 'NONE', *, *, #397, .F. ) ;
#173 = ORIENTED_EDGE ( 'NONE', *, *, #415, .F. ) ;
#174 = ORIENTED_EDGE ( 'NONE', *, *, #371, .F. ) ;
#175 = ORIENTED_EDGE ( 'NONE', *, *, #398, .T. ) ;
#176 = ORIENTED_EDGE ( 'NONE', *, *, #406, .F. ) ;
#177 = ORIENTED_EDGE ( 'NONE', *, *, #366, .F. ) ;
#178 = ORIENTED_EDGE ( 'NONE', *, *, #370, .F. ) ;
#179 = ORIENTED_EDGE ( 'NONE', *, *, #405, .F. ) ;
#180 = ORIENTED_EDGE ( 'NONE', *, *, #407, .F. ) ;
#181 = EDGE_LOOP ( 'NONE', ( #240, #162 ) ) ;
#182 = EDGE_LOOP ( 'NONE', ( #236, #159, #221 ) ) ;
#183 = EDGE_LOOP ( 'NONE', ( #171, #115, #154, #124, #126, #128, #163 ) ) ;
#184 = ORIENTED_EDGE ( 'NONE', *, *, #366, .T. ) ;
#185 = ORIENTED_EDGE ( 'NONE', *, *, #393, .F. ) ;
#186 = ORIENTED_EDGE ( 'NONE', *, *, #409, .F. ) ;
#187 = EDGE_LOOP ( 'NONE', ( #150, #201, #118, #244 ) ) ;
#188 = ORIENTED_EDGE ( 'NONE', *, *, #416, .T. ) ;
#189 = EDGE_LOOP ( 'NONE', ( #193, #129, #165, #223 ) ) ;
#190 = EDGE_LOOP ( 'NONE', ( #167, #160, #135, #173, #179 ) ) ;
#191 = ORIENTED_EDGE ( 'NONE', *, *, #374, .T. ) ;
#192 = EDGE_LOOP ( 'NONE', ( #238, #227 ) ) ;
#193 = ORIENTED_EDGE ( 'NONE', *, *, #373, .F. ) ;
#194 = EDGE_LOOP ( 'NONE', ( #138, #166, #122, #172, #134, #178 ) ) ;
#195 = ORIENTED_EDGE ( 'NONE', *, *, #391, .T. ) ;
#196 = EDGE_LOOP ( 'NONE', ( #125, #156, #139, #117, #143, #157 ) ) ;
#197 = EDGE_LOOP ( 'NONE', ( #203, #151, #226 ) ) ;
#198 = EDGE_LOOP ( 'NONE', ( #158, #133, #119 ) ) ;
#199 = EDGE_LOOP ( 'NONE', ( #146, #243, #209, #237 ) ) ;
#200 = ORIENTED_EDGE ( 'NONE', *, *, #363, .F. ) ;
#201 = ORIENTED_EDGE ( 'NONE', *, *, #413, .F. ) ;
#202 = EDGE_LOOP ( 'NONE', ( #174, #175, #131, #130, #123, #147, #141 ) ) ;
#203 = ORIENTED_EDGE ( 'NONE', *, *, #383, .T. ) ;
#204 = EDGE_LOOP ( 'NONE', ( #217, #205, #218, #188, #206, #215, #233 ) ) ;
#205 = ORIENTED_EDGE ( 'NONE', *, *, #393, .T. ) ;
#206 = ORIENTED_EDGE ( 'NONE', *, *, #364, .T. ) ;
#207 = EDGE_LOOP ( 'NONE', ( #161, #152 ) ) ;
#208 = EDGE_LOOP ( 'NONE', ( #96, #109, #98, #110 ) ) ;
#209 = ORIENTED_EDGE ( 'NONE', *, *, #368, .T. ) ;
#210 = ORIENTED_EDGE ( 'NONE', *, *, #410, .T. ) ;
#211 = ORIENTED_EDGE ( 'NONE', *, *, #414, .F. ) ;
#212 = EDGE_LOOP ( 'NONE', ( #191, #185, #216 ) ) ;
#213 = EDGE_LOOP ( 'NONE', ( #195, #211, #168 ) ) ;
#214 = VERTEX_POINT ( 'NONE', #585 ) ;
#215 = ORIENTED_EDGE ( 'NONE', *, *, #409, .T. ) ;
#216 = ORIENTED_EDGE ( 'NONE', *, *, #405, .T. ) ;
#217 = ORIENTED_EDGE ( 'NONE', *, *, #426, .T. ) ;
#218 = ORIENTED_EDGE ( 'NONE', *, *, #414, .T. ) ;
#219 = EDGE_LOOP ( 'NONE', ( #239, #224 ) ) ;
#220 = EDGE_LOOP ( 'NONE', ( #200, #136 ) ) ;
#221 = ORIENTED_EDGE ( 'NONE', *, *, #408, .T. ) ;
#222 = EDGE_LOOP ( 'NONE', ( #170, #121, #120, #140, #145 ) ) ;
#223 = ORIENTED_EDGE ( 'NONE', *, *, #428, .T. ) ;
#224 = ORIENTED_EDGE ( 'NONE', *, *, #359, .F. ) ;
#225 = EDGE_LOOP ( 'NONE', ( #111, #229, #184, #148 ) ) ;
#226 = ORIENTED_EDGE ( 'NONE', *, *, #427, .T. ) ;
#227 = ORIENTED_EDGE ( 'NONE', *, *, #348, .F. ) ;
#228 = EDGE_LOOP ( 'NONE', ( #114, #113, #112, #177 ) ) ;
#229 = ORIENTED_EDGE ( 'NONE', *, *, #348, .T. ) ;
#230 = EDGE_LOOP ( 'NONE', ( #102, #100, #101 ) ) ;
#231 = VERTEX_POINT ( 'NONE', #560 ) ;
#232 = VERTEX_POINT ( 'NONE', #535 ) ;
#233 = ORIENTED_EDGE ( 'NONE', *, *, #419, .T. ) ;
#234 = EDGE_LOOP ( 'NONE', ( #105, #107, #104, #108 ) ) ;
#235 = EDGE_LOOP ( 'NONE', ( #155, #164, #142, #127, #180 ) ) ;
#236 = ORIENTED_EDGE ( 'NONE', *, *, #367, .F. ) ;
#237 = ORIENTED_EDGE ( 'NONE', *, *, #376, .T. ) ;
#238 = ORIENTED_EDGE ( 'NONE', *, *, #365, .F. ) ;
#239 = ORIENTED_EDGE ( 'NONE', *, *, #428, .F. ) ;
#240 = ORIENTED_EDGE ( 'NONE', *, *, #413, .T. ) ;
#241 = EDGE_LOOP ( 'NONE', ( #210, #186, #137 ) ) ;
#242 = EDGE_LOOP ( 'NONE', ( #103, #95, #106, #99 ) ) ;
#243 = ORIENTED_EDGE ( 'NONE', *, *, #400, .T. ) ;
#244 = ORIENTED_EDGE ( 'NONE', *, *, #401, .T. ) ;
#245 = VERTEX_POINT ( 'NONE', #561 ) ;
#246 = VERTEX_POINT ( 'NONE', #575 ) ;
#247 = VERTEX_POINT ( 'NONE', #545 ) ;
#248 = VERTEX_POINT ( 'NONE', #534 ) ;
#249 = VERTEX_POINT ( 'NONE', #570 ) ;
#250 = VERTEX_POINT ( 'NONE', #536 ) ;
#251 = VERTEX_POINT ( 'NONE', #537 ) ;
#252 = VERTEX_POINT ( 'NONE', #574 ) ;
#253 = VERTEX_POINT ( 'NONE', #564 ) ;
#254 = VERTEX_POINT ( 'NONE', #569 ) ;
#255 = VERTEX_POINT ( 'NONE', #571 ) ;
#256 = VERTEX_POINT ( 'NONE', #572 ) ;
#257 = VERTEX_POINT ( 'NONE', #576 ) ;
#258 = VERTEX_POINT ( 'NONE', #577 ) ;
#259 = VERTEX_POINT ( 'NONE', #540 ) ;
#260 = VERTEX_POINT ( 'NONE', #553 ) ;
#261 = VERTEX_POINT ( 'NONE', #578 ) ;
#262 = VERTEX_POINT ( 'NONE', #556 ) ;
#263 = VERTEX_POINT ( 'NONE', #542 ) ;
#264 = VERTEX_POINT ( 'NONE', #579 ) ;
#265 = VERTEX_POINT ( 'NONE', #541 ) ;
#266 = VERTEX_POINT ( 'NONE', #546 ) ;
#267 = VERTEX_POINT ( 'NONE', #547 ) ;
#268 = VERTEX_POINT ( 'NONE', #548 ) ;
#269 = VERTEX_POINT ( 'NONE', #549 ) ;
#270 = VERTEX_POINT ( 'NONE', #550 ) ;
#271 = VERTEX_POINT ( 'NONE', #554 ) ;
#272 = CONICAL_SURFACE ( 'NONE', #404, 3.376345780297537000, 1.047197551196596700 ) ;
#273 = FACE_OUTER_BOUND ( 'NONE', #198, .T. ) ;
#274 = CONICAL_SURFACE ( 'NONE', #412, 3.376345780297537000, 1.047197551196596700 ) ;
#275 = CYLINDRICAL_SURFACE ( 'NONE', #417, 6.600000000000000500 ) ;
#276 = CONICAL_SURFACE ( 'NONE', #392, 3.376345780297537000, 1.047197551196596700 ) ;
#277 = VERTEX_POINT ( 'NONE', #607 ) ;
#278 = FACE_OUTER_BOUND ( 'NONE', #196, .T. ) ;
#279 = VERTEX_POINT ( 'NONE', #611 ) ;
#280 = FACE_BOUND ( 'NONE', #219, .T. ) ;
#281 = FACE_OUTER_BOUND ( 'NONE', #183, .T. ) ;
#282 = CONICAL_SURFACE ( 'NONE', #378, 3.376345780297537000, 1.047197551196596700 ) ;
#283 = FACE_OUTER_BOUND ( 'NONE', #235, .T. ) ;
#284 = FACE_OUTER_BOUND ( 'NONE', #241, .T. ) ;
#285 = FACE_OUTER_BOUND ( 'NONE', #204, .T. ) ;
#286 = CONICAL_SURFACE ( 'NONE', #384, 3.376345780297537000, 1.047197551196596700 ) ;
#287 = CYLINDRICAL_SURFACE ( 'NONE', #424, 4.249999999999998200 ) ;
#288 = FACE_OUTER_BOUND ( 'NONE', #182, .T. ) ;
#289 = VERTEX_POINT ( 'NONE', #606 ) ;
#290 = FACE_OUTER_BOUND ( 'NONE', #199, .T. ) ;
#291 = FACE_OUTER_BOUND ( 'NONE', #212, .T. ) ;
#292 = FACE_OUTER_BOUND ( 'NONE', #228, .T. ) ;
#293 = VERTEX_POINT ( 'NONE', #605 ) ;
#294 = VERTEX_POINT ( 'NONE', #629 ) ;
#295 = FACE_OUTER_BOUND ( 'NONE', #189, .T. ) ;
#296 = FACE_OUTER_BOUND ( 'NONE', #208, .T. ) ;
#297 = FACE_OUTER_BOUND ( 'NONE', #197, .T. ) ;
#298 = FACE_OUTER_BOUND ( 'NONE', #213, .T. ) ;
#299 = CONICAL_SURFACE ( 'NONE', #379, 5.025000000000001200, 0.7853981633974505000 ) ;
#300 = FACE_OUTER_BOUND ( 'NONE', #242, .T. ) ;
#301 = FACE_BOUND ( 'NONE', #220, .T. ) ;
#302 = FACE_OUTER_BOUND ( 'NONE', #225, .T. ) ;
#303 = CYLINDRICAL_SURFACE ( 'NONE', #381, 4.249999999999998200 ) ;
#304 = CONICAL_SURFACE ( 'NONE', #395, 3.376345780297537000, 1.047197551196596700 ) ;
#305 = FACE_OUTER_BOUND ( 'NONE', #234, .T. ) ;
#306 = CIRCLE ( 'NONE', #441, 6.999999999999998200 ) ;
#307 = CIRCLE ( 'NONE', #457, 6.600000000000000500 ) ;
#308 = FACE_OUTER_BOUND ( 'NONE', #222, .T. ) ;
#309 = CONICAL_SURFACE ( 'NONE', #422, 5.025000000000001200, 0.7853981633974505000 ) ;
#310 = CYLINDRICAL_SURFACE ( 'NONE', #385, 9.300000000000002500 ) ;
#311 = FACE_OUTER_BOUND ( 'NONE', #116, .T. ) ;
#312 = FACE_BOUND ( 'NONE', #207, .T. ) ;
#313 = FACE_OUTER_BOUND ( 'NONE', #190, .T. ) ;
#314 = CONICAL_SURFACE ( 'NONE', #425, 3.376345780297537000, 1.047197551196596700 ) ;
#315 = CONICAL_SURFACE ( 'NONE', #421, 9.300000000000004300, 1.152571997215668100 ) ;
#316 = CYLINDRICAL_SURFACE ( 'NONE', #388, 9.300000000000002500 ) ;
#317 = FACE_OUTER_BOUND ( 'NONE', #192, .T. ) ;
#318 = FACE_OUTER_BOUND ( 'NONE', #202, .T. ) ;
#319 = CIRCLE ( 'NONE', #435, 9.300000000000004300 ) ;
#320 = CIRCLE ( 'NONE', #471, 6.600000000000000500 ) ;
#321 = CIRCLE ( 'NONE', #444, 9.300000000000002500 ) ;
#322 = LINE ( 'NONE', #608, #323 ) ;
#323 = VECTOR ( 'NONE', #623, 1000.000000000000000 ) ;
#324 = LINE ( 'NONE', #613, #325 ) ;
#325 = VECTOR ( 'NONE', #593, 1000.000000000000000 ) ;
#326 = LINE ( 'NONE', #609, #331 ) ;
#327 = CYLINDRICAL_SURFACE ( 'NONE', #468, 6.600000000000000500 ) ;
#328 = CIRCLE ( 'NONE', #459, 6.999999999999998200 ) ;
#329 = CIRCLE ( 'NONE', #438, 9.300000000000004300 ) ;
#330 = LINE ( 'NONE', #590, #342 ) ;
#331 = VECTOR ( 'NONE', #599, 999.9999999999998900 ) ;
#332 = FACE_OUTER_BOUND ( 'NONE', #181, .T. ) ;
#333 = FACE_OUTER_BOUND ( 'NONE', #194, .T. ) ;
#334 = CONICAL_SURFACE ( 'NONE', #394, 9.300000000000004300, 1.152571997215668100 ) ;
#335 = FACE_OUTER_BOUND ( 'NONE', #187, .T. ) ;
#336 = CIRCLE ( 'NONE', #440, 6.600000000000000500 ) ;
#337 = CIRCLE ( 'NONE', #465, 4.249999999999998200 ) ;
#338 = CIRCLE ( 'NONE', #463, 5.025000000000001200 ) ;
#339 = VECTOR ( 'NONE', #632, 1000.000000000000100 ) ;
#340 = LINE ( 'NONE', #781, #69 ) ;
#341 = LINE ( 'NONE', #650, #339 ) ;
#342 = VECTOR ( 'NONE', #652, 1000.000000000000000 ) ;
#343 = CIRCLE ( 'NONE', #470, 6.999999999999998200 ) ;
#344 = CIRCLE ( 'NONE', #432, 4.249999999999999100 ) ;
#345 = PRODUCT ( 'ALP0824', 'ALP0824', '', ( #857 ) ) ;
#346 = PERSON ( 'UNSPECIFIED', 'UNSPECIFIED', 'UNSPECIFIED', ('UNSPECIFIED'), ('UNSPECIFIED'), ('UNSPECIFIED') ) ;
#347 = EDGE_CURVE ( 'NONE', #232, #260, #319, .T. ) ;
#348 = EDGE_CURVE ( 'NONE', #214, #263, #321, .T. ) ;
#349 = EDGE_CURVE ( 'NONE', #248, #255, #322, .T. ) ;
#350 = EDGE_CURVE ( 'NONE', #253, #264, #880, .T. ) ;
#351 = EDGE_CURVE ( 'NONE', #261, #232, #326, .T. ) ;
#352 = EDGE_CURVE ( 'NONE', #214, #232, #324, .T. ) ;
#353 = EDGE_CURVE ( 'NONE', #261, #266, #878, .T. ) ;
#354 = EDGE_CURVE ( 'NONE', #259, #250, #872, .T. ) ;
#355 = EDGE_CURVE ( 'NONE', #258, #231, #320, .T. ) ;
#356 = EDGE_CURVE ( 'NONE', #256, #251, #336, .T. ) ;
#357 = EDGE_CURVE ( 'NONE', #260, #232, #329, .T. ) ;
#358 = EDGE_CURVE ( 'NONE', #289, #293, #330, .T. ) ;
#359 = EDGE_CURVE ( 'NONE', #249, #257, #338, .T. ) ;
#360 = EDGE_CURVE ( 'NONE', #267, #254, #877, .T. ) ;
#361 = EDGE_CURVE ( 'NONE', #262, #257, #341, .T. ) ;
#362 = EDGE_CURVE ( 'NONE', #255, #262, #344, .T. ) ;
#363 = EDGE_CURVE ( 'NONE', #269, #248, #337, .T. ) ;
#364 = EDGE_CURVE ( 'NONE', #247, #250, #343, .T. ) ;
#365 = EDGE_CURVE ( 'NONE', #263, #214, #63, .T. ) ;
#366 = EDGE_CURVE ( 'NONE', #263, #260, #70, .T. ) ;
#367 = EDGE_CURVE ( 'NONE', #247, #259, #68, .T. ) ;
#368 = EDGE_CURVE ( 'NONE', #269, #262, #72, .T. ) ;
#369 = EDGE_CURVE ( 'NONE', #251, #231, #73, .T. ) ;
#370 = EDGE_CURVE ( 'NONE', #265, #277, #886, .T. ) ;
#371 = EDGE_CURVE ( 'NONE', #264, #260, #75, .T. ) ;
#372 = EDGE_CURVE ( 'NONE', #256, #258, #82, .T. ) ;
#373 = EDGE_CURVE ( 'NONE', #255, #249, #77, .T. ) ;
#374 = EDGE_CURVE ( 'NONE', #271, #265, #871, .T. ) ;
#375 = EDGE_CURVE ( 'NONE', #245, #253, #83, .T. ) ;
#376 = EDGE_CURVE ( 'NONE', #262, #255, #88, .T. ) ;
#377 = EDGE_CURVE ( 'NONE', #268, #267, #882, .T. ) ;
#378 = AXIS2_PLACEMENT_3D ( 'NONE', #487, #489, #504 ) ;
#379 = AXIS2_PLACEMENT_3D ( 'NONE', #494, #519, #525 ) ;
#380 = AXIS2_PLACEMENT_3D ( 'NONE', #478, #479, #481 ) ;
#381 = AXIS2_PLACEMENT_3D ( 'NONE', #485, #496, #491 ) ;
#382 = EDGE_CURVE ( 'NONE', #289, #279, #879, .T. ) ;
#383 = EDGE_CURVE ( 'NONE', #245, #294, #883, .T. ) ;
#384 = AXIS2_PLACEMENT_3D ( 'NONE', #486, #506, #492 ) ;
#385 = AXIS2_PLACEMENT_3D ( 'NONE', #528, #498, #490 ) ;
#386 = AXIS2_PLACEMENT_3D ( 'NONE', #573, #584, #557 ) ;
#387 = EDGE_CURVE ( 'NONE', #259, #267, #89, .T. ) ;
#388 = AXIS2_PLACEMENT_3D ( 'NONE', #551, #562, #588 ) ;
#389 = AXIS2_PLACEMENT_3D ( 'NONE', #558, #563, #565 ) ;
#390 = AXIS2_PLACEMENT_3D ( 'NONE', #559, #568, #533 ) ;
#391 = EDGE_CURVE ( 'NONE', #277, #252, #881, .T. ) ;
#392 = AXIS2_PLACEMENT_3D ( 'NONE', #510, #520, #500 ) ;
#393 = EDGE_CURVE ( 'NONE', #279, #265, #85, .T. ) ;
#394 = AXIS2_PLACEMENT_3D ( 'NONE', #538, #580, #555 ) ;
#395 = AXIS2_PLACEMENT_3D ( 'NONE', #511, #515, #523 ) ;
#396 = AXIS2_PLACEMENT_3D ( 'NONE', #544, #583, #543 ) ;
#397 = EDGE_CURVE ( 'NONE', #254, #261, #873, .T. ) ;
#398 = EDGE_CURVE ( 'NONE', #264, #268, #876, .T. ) ;
#399 = EDGE_CURVE ( 'NONE', #266, #293, #874, .T. ) ;
#400 = EDGE_CURVE ( 'NONE', #248, #269, #87, .T. ) ;
#401 = EDGE_CURVE ( 'NONE', #231, #258, #90, .T. ) ;
#402 = AXIS2_PLACEMENT_3D ( 'NONE', #527, #521, #529 ) ;
#403 = AXIS2_PLACEMENT_3D ( 'NONE', #495, #531, #493 ) ;
#404 = AXIS2_PLACEMENT_3D ( 'NONE', #484, #473, #475 ) ;
#405 = EDGE_CURVE ( 'NONE', #279, #271, #866, .T. ) ;
#406 = EDGE_CURVE ( 'NONE', #294, #289, #868, .T. ) ;
#407 = EDGE_CURVE ( 'NONE', #250, #270, #864, .T. ) ;
#408 = EDGE_CURVE ( 'NONE', #252, #259, #884, .T. ) ;
#409 = EDGE_CURVE ( 'NONE', #250, #246, #91, .T. ) ;
#410 = EDGE_CURVE ( 'NONE', #270, #246, #867, .T. ) ;
#411 = EDGE_CURVE ( 'NONE', #277, #254, #93, .T. ) ;
#412 = AXIS2_PLACEMENT_3D ( 'NONE', #476, #482, #480 ) ;
#413 = EDGE_CURVE ( 'NONE', #251, #256, #307, .T. ) ;
#414 = EDGE_CURVE ( 'NONE', #265, #252, #328, .T. ) ;
#415 = EDGE_CURVE ( 'NONE', #271, #266, #340, .T. ) ;
#416 = EDGE_CURVE ( 'NONE', #252, #247, #74, .T. ) ;
#417 = AXIS2_PLACEMENT_3D ( 'NONE', #507, #501, #508 ) ;
#418 = EDGE_CURVE ( 'NONE', #270, #268, #80, .T. ) ;
#419 = EDGE_CURVE ( 'NONE', #246, #294, #92, .T. ) ;
#420 = EDGE_CURVE ( 'NONE', #293, #253, #885, .T. ) ;
#421 = AXIS2_PLACEMENT_3D ( 'NONE', #513, #522, #517 ) ;
#422 = AXIS2_PLACEMENT_3D ( 'NONE', #488, #509, #512 ) ;
#423 = AXIS2_PLACEMENT_3D ( 'NONE', #502, #505, #497 ) ;
#424 = AXIS2_PLACEMENT_3D ( 'NONE', #483, #472, #474 ) ;
#425 = AXIS2_PLACEMENT_3D ( 'NONE', #530, #516, #518 ) ;
#426 = EDGE_CURVE ( 'NONE', #294, #279, #306, .T. ) ;
#427 = EDGE_CURVE ( 'NONE', #246, #245, #869, .T. ) ;
#428 = EDGE_CURVE ( 'NONE', #257, #249, #71, .T. ) ;
#429 = AXIS2_PLACEMENT_3D ( 'NONE', #503, #587, #552 ) ;
#430 = AXIS2_PLACEMENT_3D ( 'NONE', #795, #786, #761 ) ;
#431 = APPROVAL ( #850, 'UNSPECIFIED' ) ;
#432 = AXIS2_PLACEMENT_3D ( 'NONE', #660, #688, #685 ) ;
#433 = APPROVAL ( #844, 'UNSPECIFIED' ) ;
#434 = CC_DESIGN_APPROVAL ( #431, ( #452 ) ) ;
#435 = AXIS2_PLACEMENT_3D ( 'NONE', #622, #601, #596 ) ;
#436 =( GEOMETRIC_REPRESENTATION_CONTEXT ( 3 ) GLOBAL_UNCERTAINTY_ASSIGNED_CONTEXT ( ( #870 ) ) GLOBAL_UNIT_ASSIGNED_CONTEXT ( ( #805, #814, #818 ) ) REPRESENTATION_CONTEXT ( 'NONE', 'WORKASPACE' ) );
#437 = AXIS2_PLACEMENT_3D ( 'NONE', #675, #672, #693 ) ;
#438 = AXIS2_PLACEMENT_3D ( 'NONE', #639, #642, #643 ) ;
#439 = AXIS2_PLACEMENT_3D ( 'NONE', #836, #841, #856 ) ;
#440 = AXIS2_PLACEMENT_3D ( 'NONE', #631, #641, #635 ) ;
#441 = AXIS2_PLACEMENT_3D ( 'NONE', #822, #806, #817 ) ;
#442 = CC_DESIGN_DATE_AND_TIME_ASSIGNMENT ( #2, #860, ( #452 ) ) ;
#443 = PRODUCT_DEFINITION_FORMATION_WITH_SPECIFIED_SOURCE ( 'ANY', '', #345, .NOT_KNOWN. ) ;
#444 = AXIS2_PLACEMENT_3D ( 'NONE', #597, #614, #612 ) ;
#445 = CC_DESIGN_PERSON_AND_ORGANIZATION_ASSIGNMENT ( #31, #859, ( #443 ) ) ;
#446 = SECURITY_CLASSIFICATION ( '', '', #852 ) ;
#447 = APPROVAL ( #854, 'UNSPECIFIED' ) ;
#448 = AXIS2_PLACEMENT_3D ( 'NONE', #777, #794, #802 ) ;
#449 = AXIS2_PLACEMENT_3D ( 'NONE', #831, #838, #840 ) ;
#450 = AXIS2_PLACEMENT_3D ( 'NONE', #812, #807, #819 ) ;
#451 = PRODUCT_RELATED_PRODUCT_CATEGORY ( 'detail', '', ( #345 ) ) ;
#452 = PRODUCT_DEFINITION ( 'UNKNOWN', '', #443, #887 ) ;
#453 = CC_DESIGN_PERSON_AND_ORGANIZATION_ASSIGNMENT ( #9, #855, ( #446 ) ) ;
#454 = AXIS2_PLACEMENT_3D ( 'NONE', #797, #800, #801 ) ;
#455 = CC_DESIGN_PERSON_AND_ORGANIZATION_ASSIGNMENT ( #20, #858, ( #452 ) ) ;
#456 = AXIS2_PLACEMENT_3D ( 'NONE', #735, #726, #742 ) ;
#457 = AXIS2_PLACEMENT_3D ( 'NONE', #811, #823, #828 ) ;
#458 = CC_DESIGN_APPROVAL ( #447, ( #446 ) ) ;
#459 = AXIS2_PLACEMENT_3D ( 'NONE', #804, #837, #826 ) ;
#460 = CC_DESIGN_DATE_AND_TIME_ASSIGNMENT ( #14, #846, ( #446 ) ) ;
#461 = CC_DESIGN_APPROVAL ( #433, ( #443 ) ) ;
#462 = AXIS2_PLACEMENT_3D ( 'NONE', #701, #678, #654 ) ;
#463 = AXIS2_PLACEMENT_3D ( 'NONE', #634, #651, #633 ) ;
#464 = CC_DESIGN_PERSON_AND_ORGANIZATION_ASSIGNMENT ( #26, #848, ( #443 ) ) ;
#465 = AXIS2_PLACEMENT_3D ( 'NONE', #655, #687, #663 ) ;
#466 = CC_DESIGN_SECURITY_CLASSIFICATION ( #446, ( #443 ) ) ;
#467 = AXIS2_PLACEMENT_3D ( 'NONE', #810, #839, #813 ) ;
#468 = AXIS2_PLACEMENT_3D ( 'NONE', #581, #539, #566 ) ;
#469 = CC_DESIGN_PERSON_AND_ORGANIZATION_ASSIGNMENT ( #33, #863, ( #345 ) ) ;
#470 = AXIS2_PLACEMENT_3D ( 'NONE', #686, #667, #656 ) ;
#471 = AXIS2_PLACEMENT_3D ( 'NONE', #591, #604, #640 ) ;
#472 = DIRECTION ( 'NONE',  ( -0.0000000000000000000, 1.000000000000000000, -0.0000000000000000000 ) ) ;
#473 = DIRECTION ( 'NONE',  ( 0.0000000000000000000, -1.000000000000000000, 0.0000000000000000000 ) ) ;
#474 = DIRECTION ( 'NONE',  ( 0.0000000000000000000, 0.0000000000000000000, 1.000000000000000000 ) ) ;
#475 = DIRECTION ( 'NONE',  ( 0.0000000000000000000, 0.0000000000000000000, -1.000000000000000000 ) ) ;
#476 = CARTESIAN_POINT ( 'NONE',  ( 0.0000000000000000000, 10.99211773919534500, 0.0000000000000000000 ) ) ;
#477 = PLANE ( 'NONE',  #380 ) ;
#478 = CARTESIAN_POINT ( 'NONE',  ( 9.381471834844453400E-016, 8.900000000000000400, -8.082903768654762900 ) ) ;
#479 = DIRECTION ( 'NONE',  ( 0.4999999999999997800, -0.0000000000000000000, 0.8660254037844388200 ) ) ;
#480 = DIRECTION ( 'NONE',  ( 0.0000000000000000000, 0.0000000000000000000, -1.000000000000000000 ) ) ;
#481 = DIRECTION ( 'NONE',  ( 0.8660254037844388200, 0.0000000000000000000, -0.4999999999999997800 ) ) ;
#482 = DIRECTION ( 'NONE',  ( 0.0000000000000000000, -1.000000000000000000, 0.0000000000000000000 ) ) ;
#483 = CARTESIAN_POINT ( 'NONE',  ( 0.0000000000000000000, 8.900000000000000400, 0.0000000000000000000 ) ) ;
#484 = CARTESIAN_POINT ( 'NONE',  ( 0.0000000000000000000, 10.99211773919534500, 0.0000000000000000000 ) ) ;
#485 = CARTESIAN_POINT ( 'NONE',  ( 0.0000000000000000000, 8.900000000000000400, 0.0000000000000000000 ) ) ;
#486 = CARTESIAN_POINT ( 'NONE',  ( 0.0000000000000000000, 10.99211773919534500, 0.0000000000000000000 ) ) ;
#487 = CARTESIAN_POINT ( 'NONE',  ( 0.0000000000000000000, 10.99211773919534500, 0.0000000000000000000 ) ) ;
#488 = CARTESIAN_POINT ( 'NONE',  ( 0.0000000000000000000, 8.900000000000000400, 0.0000000000000000000 ) ) ;
#489 = DIRECTION ( 'NONE',  ( 0.0000000000000000000, -1.000000000000000000, 0.0000000000000000000 ) ) ;
#490 = DIRECTION ( 'NONE',  ( -1.000000000000000000, 3.624628615055124400E-020, 0.0000000000000000000 ) ) ;
#491 = DIRECTION ( 'NONE',  ( 0.0000000000000000000, 0.0000000000000000000, 1.000000000000000000 ) ) ;
#492 = DIRECTION ( 'NONE',  ( 0.0000000000000000000, 0.0000000000000000000, -1.000000000000000000 ) ) ;
#493 = DIRECTION ( 'NONE',  ( -0.8660254037844386000, 0.0000000000000000000, -0.5000000000000000000 ) ) ;
#494 = CARTESIAN_POINT ( 'NONE',  ( 0.0000000000000000000, 8.900000000000000400, 0.0000000000000000000 ) ) ;
#495 = CARTESIAN_POINT ( 'NONE',  ( -7.000000000000002700, 8.900000000000000400, 4.041451884327380600 ) ) ;
#496 = DIRECTION ( 'NONE',  ( -0.0000000000000000000, 1.000000000000000000, -0.0000000000000000000 ) ) ;
#497 = DIRECTION ( 'NONE',  ( 0.0000000000000000000, -0.0000000000000000000, 1.000000000000000000 ) ) ;
#498 = DIRECTION ( 'NONE',  ( 3.624628615055125000E-020, 1.000000000000000000, -0.0000000000000000000 ) ) ;
#499 = PLANE ( 'NONE',  #429 ) ;
#500 = DIRECTION ( 'NONE',  ( 0.0000000000000000000, 0.0000000000000000000, -1.000000000000000000 ) ) ;
#501 = DIRECTION ( 'NONE',  ( -0.0000000000000000000, -1.000000000000000000, -0.0000000000000000000 ) ) ;
#502 = CARTESIAN_POINT ( 'NONE',  ( 0.0000000000000000000, 8.900000000000000400, 0.0000000000000000000 ) ) ;
#503 = CARTESIAN_POINT ( 'NONE',  ( 6.999999999999998200, 8.900000000000000400, -4.041451884327385000 ) ) ;
#504 = DIRECTION ( 'NONE',  ( 0.0000000000000000000, 0.0000000000000000000, -1.000000000000000000 ) ) ;
#505 = DIRECTION ( 'NONE',  ( 0.0000000000000000000, 1.000000000000000000, 0.0000000000000000000 ) ) ;
#506 = DIRECTION ( 'NONE',  ( 0.0000000000000000000, -1.000000000000000000, 0.0000000000000000000 ) ) ;
#507 = CARTESIAN_POINT ( 'NONE',  ( 0.0000000000000000000, 0.8000000000000000400, 0.0000000000000000000 ) ) ;
#508 = DIRECTION ( 'NONE',  ( 0.0000000000000000000, 0.0000000000000000000, -1.000000000000000000 ) ) ;
#509 = DIRECTION ( 'NONE',  ( -0.0000000000000000000, 1.000000000000000000, -0.0000000000000000000 ) ) ;
#510 = CARTESIAN_POINT ( 'NONE',  ( 0.0000000000000000000, 10.99211773919534500, 0.0000000000000000000 ) ) ;
#511 = CARTESIAN_POINT ( 'NONE',  ( 0.0000000000000000000, 10.99211773919534500, 0.0000000000000000000 ) ) ;
#512 = DIRECTION ( 'NONE',  ( 0.0000000000000000000, 0.0000000000000000000, 1.000000000000000000 ) ) ;
#513 = CARTESIAN_POINT ( 'NONE',  ( -3.801331326009194800E-015, 1.800000000000000000, 0.0000000000000000000 ) ) ;
#514 = PLANE ( 'NONE',  #423 ) ;
#515 = DIRECTION ( 'NONE',  ( 0.0000000000000000000, -1.000000000000000000, 0.0000000000000000000 ) ) ;
#516 = DIRECTION ( 'NONE',  ( 0.0000000000000000000, -1.000000000000000000, 0.0000000000000000000 ) ) ;
#517 = DIRECTION ( 'NONE',  ( 1.000000000000000000, 0.0000000000000000000, 0.0000000000000000000 ) ) ;
#518 = DIRECTION ( 'NONE',  ( 0.0000000000000000000, 0.0000000000000000000, -1.000000000000000000 ) ) ;
#519 = DIRECTION ( 'NONE',  ( -0.0000000000000000000, 1.000000000000000000, -0.0000000000000000000 ) ) ;
#520 = DIRECTION ( 'NONE',  ( 0.0000000000000000000, -1.000000000000000000, 0.0000000000000000000 ) ) ;
#521 = DIRECTION ( 'NONE',  ( 1.000000000000000000, 0.0000000000000000000, 0.0000000000000000000 ) ) ;
#522 = DIRECTION ( 'NONE',  ( -3.624628615055125000E-020, -1.000000000000000000, 0.0000000000000000000 ) ) ;
#523 = DIRECTION ( 'NONE',  ( 0.0000000000000000000, 0.0000000000000000000, -1.000000000000000000 ) ) ;
#524 = PLANE ( 'NONE',  #403 ) ;
#525 = DIRECTION ( 'NONE',  ( 0.0000000000000000000, 0.0000000000000000000, 1.000000000000000000 ) ) ;
#526 = PLANE ( 'NONE',  #402 ) ;
#527 = CARTESIAN_POINT ( 'NONE',  ( -7.000000000000002700, 8.900000000000000400, -4.041451884327383200 ) ) ;
#528 = CARTESIAN_POINT ( 'NONE',  ( -3.801396569324266100E-015, 0.0000000000000000000, 0.0000000000000000000 ) ) ;
#529 = DIRECTION ( 'NONE',  ( 0.0000000000000000000, 0.0000000000000000000, -1.000000000000000000 ) ) ;
#530 = CARTESIAN_POINT ( 'NONE',  ( 0.0000000000000000000, 10.99211773919534500, 0.0000000000000000000 ) ) ;
#531 = DIRECTION ( 'NONE',  ( 0.5000000000000001100, 0.0000000000000000000, -0.8660254037844387100 ) ) ;
#532 = PLANE ( 'NONE',  #389 ) ;
#533 = DIRECTION ( 'NONE',  ( 0.0000000000000000000, -0.0000000000000000000, -1.000000000000000000 ) ) ;
#534 = CARTESIAN_POINT ( 'NONE',  ( 5.204748896376249700E-016, 0.8000000000000003800, -4.249999999999998200 ) ) ;
#535 = CARTESIAN_POINT ( 'NONE',  ( 9.300000000000000700, 1.800000000000000000, 0.0000000000000000000 ) ) ;
#536 = CARTESIAN_POINT ( 'NONE',  ( -3.499999999999999600, 8.900000000000000400, -6.062177826491074000 ) ) ;
#537 = CARTESIAN_POINT ( 'NONE',  ( 0.0000000000000000000, 0.8000000000000000400, -6.600000000000000500 ) ) ;
#538 = CARTESIAN_POINT ( 'NONE',  ( -3.801331326009194800E-015, 1.800000000000000000, 0.0000000000000000000 ) ) ;
#539 = DIRECTION ( 'NONE',  ( -0.0000000000000000000, -1.000000000000000000, -0.0000000000000000000 ) ) ;
#540 = CARTESIAN_POINT ( 'NONE',  ( 1.270842860780373000E-015, 8.274785217660710400, -8.082903768654762900 ) ) ;
#541 = CARTESIAN_POINT ( 'NONE',  ( 6.999999999999997300, 8.900000000000000400, 7.511572993685786300E-016 ) ) ;
#542 = CARTESIAN_POINT ( 'NONE',  ( -9.300000000000006000, 6.741809224002533700E-019, 0.0000000000000000000 ) ) ;
#543 = DIRECTION ( 'NONE',  ( -1.073081856240827100E-016, 0.0000000000000000000, 1.000000000000000000 ) ) ;
#544 = CARTESIAN_POINT ( 'NONE',  ( 6.999999999999997300, 8.900000000000000400, 4.041451884327383200 ) ) ;
#545 = CARTESIAN_POINT ( 'NONE',  ( 0.0000000000000000000, 8.900000000000000400, -6.999999999999998200 ) ) ;
#546 = CARTESIAN_POINT ( 'NONE',  ( 6.999999999999997300, 2.340931658375661900, 4.041451884327383200 ) ) ;
#547 = CARTESIAN_POINT ( 'NONE',  ( 9.381471834844453400E-016, 2.340931658375661900, -8.082903768654762900 ) ) ;
#548 = CARTESIAN_POINT ( 'NONE',  ( -7.000000000000002700, 2.340931658375662700, -4.041451884327383200 ) ) ;
#549 = CARTESIAN_POINT ( 'NONE',  ( 0.0000000000000000000, 0.8000000000000003800, 4.249999999999998200 ) ) ;
#550 = CARTESIAN_POINT ( 'NONE',  ( -7.000000000000002700, 8.274785217660708600, -4.041451884327383200 ) ) ;
#551 = CARTESIAN_POINT ( 'NONE',  ( -3.801396569324266100E-015, 0.0000000000000000000, 0.0000000000000000000 ) ) ;
#552 = DIRECTION ( 'NONE',  ( 0.8660254037844386000, 0.0000000000000000000, 0.5000000000000000000 ) ) ;
#553 = CARTESIAN_POINT ( 'NONE',  ( -9.300000000000007800, 1.800000000000000000, 1.138921523207039200E-015 ) ) ;
#554 = CARTESIAN_POINT ( 'NONE',  ( 6.999999999999997300, 8.274785217660712200, 4.041451884327383200 ) ) ;
#555 = DIRECTION ( 'NONE',  ( 1.000000000000000000, 0.0000000000000000000, 0.0000000000000000000 ) ) ;
#556 = CARTESIAN_POINT ( 'NONE',  ( 0.0000000000000000000, 8.125000000000001800, 4.249999999999999100 ) ) ;
#557 = DIRECTION ( 'NONE',  ( -0.8660254037844387100, 0.0000000000000000000, 0.4999999999999998900 ) ) ;
#558 = CARTESIAN_POINT ( 'NONE',  ( 0.0000000000000000000, 0.0000000000000000000, 0.0000000000000000000 ) ) ;
#559 = CARTESIAN_POINT ( 'NONE',  ( 0.0000000000000000000, 0.8000000000000000400, 0.0000000000000000000 ) ) ;
#560 = CARTESIAN_POINT ( 'NONE',  ( 0.0000000000000000000, 0.0000000000000000000, -6.600000000000000500 ) ) ;
#561 = CARTESIAN_POINT ( 'NONE',  ( -7.000000000000002700, 8.274785217660710400, 4.041451884327380600 ) ) ;
#562 = DIRECTION ( 'NONE',  ( 3.624628615055125000E-020, 1.000000000000000000, -0.0000000000000000000 ) ) ;
#563 = DIRECTION ( 'NONE',  ( 0.0000000000000000000, 1.000000000000000000, 0.0000000000000000000 ) ) ;
#564 = CARTESIAN_POINT ( 'NONE',  ( -7.000000000000002700, 2.340931658375663200, 4.041451884327380600 ) ) ;
#565 = DIRECTION ( 'NONE',  ( 0.0000000000000000000, -0.0000000000000000000, 1.000000000000000000 ) ) ;
#566 = DIRECTION ( 'NONE',  ( 0.0000000000000000000, 0.0000000000000000000, -1.000000000000000000 ) ) ;
#567 = PLANE ( 'NONE',  #390 ) ;
#568 = DIRECTION ( 'NONE',  ( 0.0000000000000000000, -1.000000000000000000, 0.0000000000000000000 ) ) ;
#569 = CARTESIAN_POINT ( 'NONE',  ( 6.999999999999998200, 2.340931658375661400, -4.041451884327385000 ) ) ;
#570 = CARTESIAN_POINT ( 'NONE',  ( 6.153850165715450700E-016, 8.900000000000000400, -5.025000000000001200 ) ) ;
#571 = CARTESIAN_POINT ( 'NONE',  ( 5.204748896376249700E-016, 8.125000000000001800, -4.249999999999999100 ) ) ;
#572 = CARTESIAN_POINT ( 'NONE',  ( 8.082668874372532000E-016, 0.8000000000000000400, 6.600000000000000500 ) ) ;
#573 = CARTESIAN_POINT ( 'NONE',  ( -1.892768581116928100E-015, 8.900000000000000400, 8.082903768654762900 ) ) ;
#574 = CARTESIAN_POINT ( 'NONE',  ( 3.500000000000000000, 8.900000000000000400, -6.062177826491071300 ) ) ;
#575 = CARTESIAN_POINT ( 'NONE',  ( -7.000000000000002700, 8.900000000000000400, 0.0000000000000000000 ) ) ;
#576 = CARTESIAN_POINT ( 'NONE',  ( 0.0000000000000000000, 8.900000000000000400, 5.025000000000001200 ) ) ;
#577 = CARTESIAN_POINT ( 'NONE',  ( 8.082668874372532000E-016, 0.0000000000000000000, 6.600000000000000500 ) ) ;
#578 = CARTESIAN_POINT ( 'NONE',  ( 6.999999999999997300, 2.822222222222222000, -2.855408895281011800E-019 ) ) ;
#579 = CARTESIAN_POINT ( 'NONE',  ( -7.000000000000002700, 2.822222222222222900, 8.569672184909744700E-016 ) ) ;
#580 = DIRECTION ( 'NONE',  ( -3.624628615055125000E-020, -1.000000000000000000, 0.0000000000000000000 ) ) ;
#581 = CARTESIAN_POINT ( 'NONE',  ( 0.0000000000000000000, 0.8000000000000000400, 0.0000000000000000000 ) ) ;
#582 = PLANE ( 'NONE',  #396 ) ;
#583 = DIRECTION ( 'NONE',  ( -1.000000000000000000, 0.0000000000000000000, -1.073081856240827100E-016 ) ) ;
#584 = DIRECTION ( 'NONE',  ( -0.4999999999999998900, 0.0000000000000000000, -0.8660254037844387100 ) ) ;
#585 = CARTESIAN_POINT ( 'NONE',  ( 9.299999999999998900, 0.0000000000000000000, 1.138921523207038800E-015 ) ) ;
#586 = PLANE ( 'NONE',  #386 ) ;
#587 = DIRECTION ( 'NONE',  ( -0.5000000000000001100, 0.0000000000000000000, 0.8660254037844387100 ) ) ;
#588 = DIRECTION ( 'NONE',  ( -1.000000000000000000, 3.624628615055124400E-020, 0.0000000000000000000 ) ) ;
#589 = CARTESIAN_POINT ( 'NONE',  ( -3.499999999999999600, 8.900000000000000400, -6.062177826491074000 ) ) ;
#590 = CARTESIAN_POINT ( 'NONE',  ( -1.892768581116928100E-015, 8.900000000000000400, 8.082903768654762900 ) ) ;
#591 = CARTESIAN_POINT ( 'NONE',  ( 0.0000000000000000000, 0.0000000000000000000, 0.0000000000000000000 ) ) ;
#592 = CARTESIAN_POINT ( 'NONE',  ( -7.000000000000001800, 2.822222222222222400, 0.6751692657825400000 ) ) ;
#593 = DIRECTION ( 'NONE',  ( 3.624628615055125000E-020, 1.000000000000000000, -0.0000000000000000000 ) ) ;
#594 = CARTESIAN_POINT ( 'NONE',  ( 6.999999999999997300, 2.340931658375661900, 4.041451884327383200 ) ) ;
#595 = CARTESIAN_POINT ( 'NONE',  ( 1.270842860780373000E-015, 8.274785217660710400, -8.082903768654762900 ) ) ;
#596 = DIRECTION ( 'NONE',  ( -1.000000000000000000, 0.0000000000000000000, 0.0000000000000000000 ) ) ;
#597 = CARTESIAN_POINT ( 'NONE',  ( -3.801396569324266100E-015, 3.370904612001266900E-019, 0.0000000000000000000 ) ) ;
#598 = CARTESIAN_POINT ( 'NONE',  ( -7.000000000000004400, 2.414581115207660800, 3.710029328583390700 ) ) ;
#599 = DIRECTION ( 'NONE',  ( 0.9138115486202574900, -0.4061384660534471700, 0.0000000000000000000 ) ) ;
#600 = CARTESIAN_POINT ( 'NONE',  ( -1.149289600728294000, 8.622869552474133700, -7.419361108297446900 ) ) ;
#601 = DIRECTION ( 'NONE',  ( 3.624628615055125000E-020, 1.000000000000000000, -0.0000000000000000000 ) ) ;
#602 = CARTESIAN_POINT ( 'NONE',  ( 6.999999999999997300, 2.822222222222222000, -2.855408895281011800E-019 ) ) ;
#603 = CARTESIAN_POINT ( 'NONE',  ( 6.999999999999999100, 2.822222222222222000, 0.6751692657825414400 ) ) ;
#604 = DIRECTION ( 'NONE',  ( 0.0000000000000000000, -1.000000000000000000, 0.0000000000000000000 ) ) ;
#605 = CARTESIAN_POINT ( 'NONE',  ( -1.892768581116928100E-015, 2.340931658375662700, 8.082903768654762900 ) ) ;
#606 = CARTESIAN_POINT ( 'NONE',  ( -1.827404887421606900E-015, 8.274785217660710400, 8.082903768654762900 ) ) ;
#607 = CARTESIAN_POINT ( 'NONE',  ( 6.999999999999998200, 8.274785217660710400, -4.041451884327384100 ) ) ;
#608 = CARTESIAN_POINT ( 'NONE',  ( 5.204748896376249700E-016, 8.900000000000000400, -4.249999999999998200 ) ) ;
#609 = CARTESIAN_POINT ( 'NONE',  ( 9.300000000000000700, 1.800000000000000000, 0.0000000000000000000 ) ) ;
#610 = CARTESIAN_POINT ( 'NONE',  ( -7.000000000000002700, 2.340931658375663200, 4.041451884327380600 ) ) ;
#611 = CARTESIAN_POINT ( 'NONE',  ( 3.499999999999998700, 8.900000000000000400, 6.062177826491070400 ) ) ;
#612 = DIRECTION ( 'NONE',  ( -1.000000000000000000, 3.624628615055124400E-020, 0.0000000000000000000 ) ) ;
#613 = CARTESIAN_POINT ( 'NONE',  ( 9.299999999999998900, -3.370904612001266900E-019, 1.138921523207038800E-015 ) ) ;
#614 = DIRECTION ( 'NONE',  ( 3.624628615055125000E-020, 1.000000000000000000, -0.0000000000000000000 ) ) ;
#615 = CARTESIAN_POINT ( 'NONE',  ( -7.000000000000002700, 2.777997013487258500, 1.350832044143323900 ) ) ;
#616 = CARTESIAN_POINT ( 'NONE',  ( -7.000000000000002700, 2.822222222222222900, 8.569672184909744700E-016 ) ) ;
#617 = CARTESIAN_POINT ( 'NONE',  ( 6.999999999999997300, 2.777997013487258000, 1.350832044143324400 ) ) ;
#618 = CARTESIAN_POINT ( 'NONE',  ( 6.999999999999994700, 2.652631338931262600, 2.364984908227202500 ) ) ;
#619 = CARTESIAN_POINT ( 'NONE',  ( 6.999999999999997300, 2.481928500783014100, 3.376474726200004100 ) ) ;
#620 = CARTESIAN_POINT ( 'NONE',  ( 6.999999999999995600, 2.414581115207659100, 3.710029328583395600 ) ) ;
#621 = CARTESIAN_POINT ( 'NONE',  ( -7.000000000000002700, 2.600980293089421000, 2.704073362852809300 ) ) ;
#622 = CARTESIAN_POINT ( 'NONE',  ( -3.801331326009194800E-015, 1.800000000000000000, 0.0000000000000000000 ) ) ;
#623 = DIRECTION ( 'NONE',  ( -0.0000000000000000000, 1.000000000000000000, -0.0000000000000000000 ) ) ;
#624 = CARTESIAN_POINT ( 'NONE',  ( -7.000000000000003600, 2.481928500783016300, 3.376474726200002800 ) ) ;
#625 = CARTESIAN_POINT ( 'NONE',  ( -7.000000000000001800, 2.652631338931264300, 2.364984908227201600 ) ) ;
#626 = CARTESIAN_POINT ( 'NONE',  ( -0.5725536409688220000, 8.465636431317506100, -7.752339769915914200 ) ) ;
#627 = CARTESIAN_POINT ( 'NONE',  ( 6.999999999999996400, 2.600980293089419700, 2.704073362852810200 ) ) ;
#628 = CARTESIAN_POINT ( 'NONE',  ( -2.314819300145793500, 8.840413589602411200, -6.746442222590250300 ) ) ;
#629 = CARTESIAN_POINT ( 'NONE',  ( -3.500000000000002200, 8.900000000000000400, 6.062177826491074000 ) ) ;
#630 = CARTESIAN_POINT ( 'NONE',  ( -2.903703173212677700, 8.900000000000003900, -6.406449959953655500 ) ) ;
#631 = CARTESIAN_POINT ( 'NONE',  ( 0.0000000000000000000, 0.8000000000000000400, 0.0000000000000000000 ) ) ;
#632 = DIRECTION ( 'NONE',  ( 0.0000000000000000000, 0.7071067811865460200, 0.7071067811865490200 ) ) ;
#633 = DIRECTION ( 'NONE',  ( 0.0000000000000000000, 0.0000000000000000000, 1.000000000000000000 ) ) ;
#634 = CARTESIAN_POINT ( 'NONE',  ( 0.0000000000000000000, 8.900000000000000400, 0.0000000000000000000 ) ) ;
#635 = DIRECTION ( 'NONE',  ( 0.0000000000000000000, 0.0000000000000000000, -1.000000000000000000 ) ) ;
#636 = CARTESIAN_POINT ( 'NONE',  ( 9.381471834844453400E-016, 2.340931658375661900, -8.082903768654762900 ) ) ;
#637 = CARTESIAN_POINT ( 'NONE',  ( 2.318795460625326500, 2.776668540771930300, -6.744146585267048800 ) ) ;
#638 = CARTESIAN_POINT ( 'NONE',  ( 1.156987528085242400, 2.610245947680553500, -7.414916707865709900 ) ) ;
#639 = CARTESIAN_POINT ( 'NONE',  ( -3.801331326009194800E-015, 1.800000000000000000, 0.0000000000000000000 ) ) ;
#640 = DIRECTION ( 'NONE',  ( 0.0000000000000000000, 0.0000000000000000000, -1.000000000000000000 ) ) ;
#641 = DIRECTION ( 'NONE',  ( 0.0000000000000000000, -1.000000000000000000, 0.0000000000000000000 ) ) ;
#642 = DIRECTION ( 'NONE',  ( 3.624628615055125000E-020, 1.000000000000000000, -0.0000000000000000000 ) ) ;
#643 = DIRECTION ( 'NONE',  ( -1.000000000000000000, 0.0000000000000000000, 0.0000000000000000000 ) ) ;
#644 = CARTESIAN_POINT ( 'NONE',  ( 0.5778556445171626500, 2.489209485893317800, -7.749278656740035100 ) ) ;
#645 = CARTESIAN_POINT ( 'NONE',  ( 4.657880882618673700, 2.779315511145211500, -5.393674987221662500 ) ) ;
#646 = CARTESIAN_POINT ( 'NONE',  ( 5.835323117847909000, 2.612023384263976800, -4.713878395756829300 ) ) ;
#647 = CARTESIAN_POINT ( 'NONE',  ( 6.420224698111205400, 2.489702070204548700, -4.376185310942376300 ) ) ;
#648 = CARTESIAN_POINT ( 'NONE',  ( 6.999999999999998200, 2.340931658375661400, -4.041451884327385000 ) ) ;
#649 = CARTESIAN_POINT ( 'NONE',  ( 2.901495885546511400, 2.821534366615884500, -6.407724338081894000 ) ) ;
#650 = CARTESIAN_POINT ( 'NONE',  ( 0.0000000000000000000, 8.900000000000000400, 5.025000000000001200 ) ) ;
#651 = DIRECTION ( 'NONE',  ( -0.0000000000000000000, 1.000000000000000000, -0.0000000000000000000 ) ) ;
#652 = DIRECTION ( 'NONE',  ( -0.0000000000000000000, -1.000000000000000000, -0.0000000000000000000 ) ) ;
#653 = CARTESIAN_POINT ( 'NONE',  ( 4.071036897839232600, 2.822894110695846500, -5.732489519806384800 ) ) ;
#654 = DIRECTION ( 'NONE',  ( 0.0000000000000000000, 0.0000000000000000000, 1.000000000000000000 ) ) ;
#655 = CARTESIAN_POINT ( 'NONE',  ( 0.0000000000000000000, 0.8000000000000003800, 0.0000000000000000000 ) ) ;
#656 = DIRECTION ( 'NONE',  ( 0.0000000000000000000, 0.0000000000000000000, 1.000000000000000000 ) ) ;
#657 = CARTESIAN_POINT ( 'NONE',  ( 6.153850165715450700E-016, 8.900000000000000400, -5.025000000000001200 ) ) ;
#658 = CARTESIAN_POINT ( 'NONE',  ( -5.843012471914758700, 2.610245947680554400, -4.709438945116438900 ) ) ;
#659 = CARTESIAN_POINT ( 'NONE',  ( 0.0000000000000000000, 8.900000000000000400, 4.249999999999998200 ) ) ;
#660 = CARTESIAN_POINT ( 'NONE',  ( 0.0000000000000000000, 8.125000000000001800, 0.0000000000000000000 ) ) ;
#661 = CARTESIAN_POINT ( 'NONE',  ( 0.0000000000000000000, 10.99211773919534500, -3.376345780297537000 ) ) ;
#662 = DIRECTION ( 'NONE',  ( 0.0000000000000000000, -0.5000000000000008900, -0.8660254037844381500 ) ) ;
#663 = DIRECTION ( 'NONE',  ( 0.0000000000000000000, 0.0000000000000000000, -1.000000000000000000 ) ) ;
#664 = DIRECTION ( 'NONE',  ( -0.9138115486202574900, -0.4061384660534471700, 1.119096388041684100E-016 ) ) ;
#665 = DIRECTION ( 'NONE',  ( -0.0000000000000000000, -1.000000000000000000, -0.0000000000000000000 ) ) ;
#666 = CARTESIAN_POINT ( 'NONE',  ( 6.999999999999996400, 8.900000000000000400, -0.6832549928910968100 ) ) ;
#667 = DIRECTION ( 'NONE',  ( 0.0000000000000000000, 1.000000000000000000, 0.0000000000000000000 ) ) ;
#668 = CARTESIAN_POINT ( 'NONE',  ( -9.300000000000006000, 3.370904612001266900E-019, 0.0000000000000000000 ) ) ;
#669 = CARTESIAN_POINT ( 'NONE',  ( 6.999999999999999100, 8.623716282064592100, -2.710709102696762700 ) ) ;
#670 = DIRECTION ( 'NONE',  ( -0.0000000000000000000, 1.000000000000000000, -0.0000000000000000000 ) ) ;
#671 = DIRECTION ( 'NONE',  ( -0.0000000000000000000, -1.000000000000000000, -0.0000000000000000000 ) ) ;
#672 = DIRECTION ( 'NONE',  ( 3.624628615055125000E-020, 1.000000000000000000, -0.0000000000000000000 ) ) ;
#673 = CARTESIAN_POINT ( 'NONE',  ( 8.082668874372532000E-016, 0.8000000000000000400, 6.600000000000000500 ) ) ;
#674 = CARTESIAN_POINT ( 'NONE',  ( 6.999999999999997300, 8.274785217660712200, 4.041451884327383200 ) ) ;
#675 = CARTESIAN_POINT ( 'NONE',  ( -3.801396569324266100E-015, 3.370904612001266900E-019, 0.0000000000000000000 ) ) ;
#676 = CARTESIAN_POINT ( 'NONE',  ( -7.000000000000002700, 2.340931658375662700, -4.041451884327383200 ) ) ;
#677 = CARTESIAN_POINT ( 'NONE',  ( 0.0000000000000000000, 0.8000000000000000400, -6.600000000000000500 ) ) ;
#678 = DIRECTION ( 'NONE',  ( -0.0000000000000000000, 1.000000000000000000, -0.0000000000000000000 ) ) ;
#679 = CARTESIAN_POINT ( 'NONE',  ( 6.999999999999998200, 8.274785217660710400, -4.041451884327384100 ) ) ;
#680 = CARTESIAN_POINT ( 'NONE',  ( -7.000000000000002700, 8.900000000000000400, 4.041451884327380600 ) ) ;
#681 = DIRECTION ( 'NONE',  ( -0.0000000000000000000, -1.000000000000000000, -0.0000000000000000000 ) ) ;
#682 = CARTESIAN_POINT ( 'NONE',  ( -9.300000000000007800, 1.800000000000000000, 1.138921523207039200E-015 ) ) ;
#683 = CARTESIAN_POINT ( 'NONE',  ( 6.999999999999997300, 8.900000000000000400, 7.511572993685786300E-016 ) ) ;
#684 = DIRECTION ( 'NONE',  ( 3.624628615055125000E-020, 1.000000000000000000, -0.0000000000000000000 ) ) ;
#685 = DIRECTION ( 'NONE',  ( 0.0000000000000000000, 0.0000000000000000000, 1.000000000000000000 ) ) ;
#686 = CARTESIAN_POINT ( 'NONE',  ( 0.0000000000000000000, 8.900000000000000400, 0.0000000000000000000 ) ) ;
#687 = DIRECTION ( 'NONE',  ( 0.0000000000000000000, -1.000000000000000000, 0.0000000000000000000 ) ) ;
#688 = DIRECTION ( 'NONE',  ( -0.0000000000000000000, 1.000000000000000000, -0.0000000000000000000 ) ) ;
#689 = CARTESIAN_POINT ( 'NONE',  ( 6.999999999999999100, 8.464626439322046300, -3.383822601750711400 ) ) ;
#690 = CARTESIAN_POINT ( 'NONE',  ( -6.422144355482841700, 2.489209485893320000, -4.375076996242113700 ) ) ;
#691 = CARTESIAN_POINT ( 'NONE',  ( 6.999999999999996400, 8.463448642522655200, 3.387902609545702800 ) ) ;
#692 = CARTESIAN_POINT ( 'NONE',  ( 6.999999999999998200, 8.841249284819719300, -1.361765661679196400 ) ) ;
#693 = DIRECTION ( 'NONE',  ( -1.000000000000000000, 3.624628615055124400E-020, 0.0000000000000000000 ) ) ;
#694 = CARTESIAN_POINT ( 'NONE',  ( 6.999999999999997300, 8.900000000000000400, 0.6837026348881764000 ) ) ;
#695 = CARTESIAN_POINT ( 'NONE',  ( 6.999999999999998200, 8.620519796286426800, 2.725909361907404200 ) ) ;
#696 = CARTESIAN_POINT ( 'NONE',  ( 6.999999999999997300, 8.900000000000000400, 7.511572993685786300E-016 ) ) ;
#697 = CARTESIAN_POINT ( 'NONE',  ( 6.999999999999998200, 8.839599741837226100, 1.376514626693780400 ) ) ;
#698 = DIRECTION ( 'NONE',  ( 8.659560562354952600E-017, 0.7071067811865460200, -0.7071067811865490200 ) ) ;
#699 = CARTESIAN_POINT ( 'NONE',  ( -1.827404887421606900E-015, 8.274785217660710400, 8.082903768654762900 ) ) ;
#700 = CARTESIAN_POINT ( 'NONE',  ( 0.5725536409688210000, 8.465636431317504300, 7.752339769915912400 ) ) ;
#701 = CARTESIAN_POINT ( 'NONE',  ( 0.0000000000000000000, 8.125000000000001800, 0.0000000000000000000 ) ) ;
#702 = CARTESIAN_POINT ( 'NONE',  ( 2.342119117381323200, 2.779315511145212400, 6.730680665760486300 ) ) ;
#703 = CARTESIAN_POINT ( 'NONE',  ( -5.850710399271707600, 8.622869552474133700, 4.704994544684698400 ) ) ;
#704 = CARTESIAN_POINT ( 'NONE',  ( 1.164676882152089000, 2.612023384263978200, 7.410477257225319500 ) ) ;
#705 = CARTESIAN_POINT ( 'NONE',  ( -4.098504114453489500, 2.821534366615885900, -5.716631314900253900 ) ) ;
#706 = CARTESIAN_POINT ( 'NONE',  ( -1.164676882152090800, 2.612023384263978200, -7.410477257225323000 ) ) ;
#707 = CARTESIAN_POINT ( 'NONE',  ( -0.5797753018887930000, 2.489702070204550000, -7.748170342039772500 ) ) ;
#708 = CARTESIAN_POINT ( 'NONE',  ( -3.500000000000002200, 8.900000000000000400, 6.062177826491074000 ) ) ;
#709 = CARTESIAN_POINT ( 'NONE',  ( -7.000000000000002700, 8.274785217660710400, 4.041451884327380600 ) ) ;
#710 = CARTESIAN_POINT ( 'NONE',  ( 6.999999999999997300, 2.822222222222222000, -0.6754988348976721500 ) ) ;
#711 = CARTESIAN_POINT ( 'NONE',  ( 6.999999999999997300, 2.822222222222222000, -2.855408895281011800E-019 ) ) ;
#712 = CARTESIAN_POINT ( 'NONE',  ( -7.000000000000002700, 2.488874718085328100, -3.375708115633895300 ) ) ;
#713 = CARTESIAN_POINT ( 'NONE',  ( 5.850710399271705800, 8.622869552474133700, -4.704994544684703700 ) ) ;
#714 = CARTESIAN_POINT ( 'NONE',  ( -2.342119117381325800, 2.779315511145212800, -6.730680665760487200 ) ) ;
#715 = CARTESIAN_POINT ( 'NONE',  ( -4.096296826787324500, 8.900000000000005700, 5.717905693028491500 ) ) ;
#716 = CARTESIAN_POINT ( 'NONE',  ( 3.500000000000000000, 8.900000000000000400, -6.062177826491071300 ) ) ;
#717 = CARTESIAN_POINT ( 'NONE',  ( 4.098504114453485900, 2.821534366615885000, 5.716631314900253000 ) ) ;
#718 = CARTESIAN_POINT ( 'NONE',  ( 2.928963102160763400, 2.822894110695848300, 6.391866133175764000 ) ) ;
#719 = CARTESIAN_POINT ( 'NONE',  ( 9.381471834844453400E-016, 8.900000000000000400, -8.082903768654762900 ) ) ;
#720 = CARTESIAN_POINT ( 'NONE',  ( 0.5797753018887918900, 2.489702070204550000, 7.748170342039769800 ) ) ;
#721 = CARTESIAN_POINT ( 'NONE',  ( -1.892768581116928100E-015, 2.340931658375662700, 8.082903768654762900 ) ) ;
#722 = DIRECTION ( 'NONE',  ( -0.0000000000000000000, -1.000000000000000000, -0.0000000000000000000 ) ) ;
#723 = CARTESIAN_POINT ( 'NONE',  ( 4.685180699854205600, 8.840413589602411200, -5.377913430391898500 ) ) ;
#724 = CARTESIAN_POINT ( 'NONE',  ( 2.903703173212676300, 8.900000000000005700, 6.406449959953652000 ) ) ;
#725 = CARTESIAN_POINT ( 'NONE',  ( 3.499999999999998700, 8.900000000000000400, 6.062177826491070400 ) ) ;
#726 = DIRECTION ( 'NONE',  ( 0.0000000000000000000, 1.000000000000000000, 0.0000000000000000000 ) ) ;
#727 = CARTESIAN_POINT ( 'NONE',  ( 6.999999999999996400, 2.777966842384451200, -1.350503820535395900 ) ) ;
#728 = CARTESIAN_POINT ( 'NONE',  ( -7.000000000000002700, 2.822222222222222900, 8.569672184909744700E-016 ) ) ;
#729 = CARTESIAN_POINT ( 'NONE',  ( 4.681204539374672200, 2.776668540771930300, 5.380209067715097300 ) ) ;
#730 = CARTESIAN_POINT ( 'NONE',  ( -2.928963102160765200, 2.822894110695849200, -6.391866133175764900 ) ) ;
#731 = CARTESIAN_POINT ( 'NONE',  ( -4.681204539374675700, 2.776668540771931600, -5.380209067715097300 ) ) ;
#732 = CARTESIAN_POINT ( 'NONE',  ( 6.999999999999998200, 8.274785217660710400, -4.041451884327384100 ) ) ;
#733 = CARTESIAN_POINT ( 'NONE',  ( 4.096296826787323700, 8.900000000000003900, -5.717905693028493300 ) ) ;
#734 = CARTESIAN_POINT ( 'NONE',  ( -7.000000000000003600, 2.777966842384453000, -1.350503820535395400 ) ) ;
#735 = CARTESIAN_POINT ( 'NONE',  ( 0.0000000000000000000, 8.900000000000000400, 0.0000000000000000000 ) ) ;
#736 = CARTESIAN_POINT ( 'NONE',  ( 2.314819300145792600, 8.840413589602413000, 6.746442222590246700 ) ) ;
#737 = CARTESIAN_POINT ( 'NONE',  ( -7.000000000000001800, 2.611332865888580400, -2.699642008697625200 ) ) ;
#738 = CARTESIAN_POINT ( 'NONE',  ( 1.149289600728293600, 8.622869552474139000, 7.419361108297445100 ) ) ;
#739 = CARTESIAN_POINT ( 'NONE',  ( -4.685180699854207400, 8.840413589602409400, 5.377913430391895000 ) ) ;
#740 = CARTESIAN_POINT ( 'NONE',  ( 9.381471834844453400E-016, 2.340931658375661900, -8.082903768654762900 ) ) ;
#741 = CARTESIAN_POINT ( 'NONE',  ( -6.427446359031178800, 8.465636431317506100, 4.372015883066231000 ) ) ;
#742 = DIRECTION ( 'NONE',  ( 0.0000000000000000000, 0.0000000000000000000, 1.000000000000000000 ) ) ;
#743 = CARTESIAN_POINT ( 'NONE',  ( 6.999999999999998200, 2.488874718085327200, -3.375708115633895700 ) ) ;
#744 = CARTESIAN_POINT ( 'NONE',  ( -7.000000000000002700, 2.340931658375662700, -4.041451884327383200 ) ) ;
#745 = CARTESIAN_POINT ( 'NONE',  ( 6.422144355482834600, 2.489209485893318300, 4.375076996242111000 ) ) ;
#746 = CARTESIAN_POINT ( 'NONE',  ( 6.427446359031177900, 8.465636431317506100, -4.372015883066237200 ) ) ;
#747 = CARTESIAN_POINT ( 'NONE',  ( 6.999999999999998200, 2.611332865888580400, -2.699642008697626900 ) ) ;
#748 = CARTESIAN_POINT ( 'NONE',  ( 6.999999999999998200, 2.340931658375661400, -4.041451884327385000 ) ) ;
#749 = CARTESIAN_POINT ( 'NONE',  ( -7.000000000000004400, 2.822222222222222900, -0.6754988348976730400 ) ) ;
#750 = CARTESIAN_POINT ( 'NONE',  ( 6.999999999999997300, 2.340931658375661900, 4.041451884327383200 ) ) ;
#751 = CARTESIAN_POINT ( 'NONE',  ( 5.843012471914756900, 2.610245947680553500, 4.709438945116437100 ) ) ;
#752 = DIRECTION ( 'NONE',  ( -0.0000000000000000000, -1.000000000000000000, -0.0000000000000000000 ) ) ;
#753 = CARTESIAN_POINT ( 'NONE',  ( 6.428875813607931800, 8.465159946458335600, 4.371190587081549900 ) ) ;
#754 = CARTESIAN_POINT ( 'NONE',  ( -4.978770456732871900, 8.785678570821428200, -5.208409305226684400 ) ) ;
#755 = CARTESIAN_POINT ( 'NONE',  ( -7.000000000000002700, 8.274785217660708600, -4.041451884327383200 ) ) ;
#756 = CARTESIAN_POINT ( 'NONE',  ( -7.000000000000001800, 8.841249284819692600, -1.361765661679349600 ) ) ;
#757 = CARTESIAN_POINT ( 'NONE',  ( 4.685629577104318600, 8.828034040544260100, 5.377654270990709600 ) ) ;
#758 = CARTESIAN_POINT ( 'NONE',  ( -1.827404887421606900E-015, 8.274785217660710400, 8.082903768654762900 ) ) ;
#759 = CARTESIAN_POINT ( 'NONE',  ( 5.852986662415525600, 8.622317995948801400, 4.703680343545869400 ) ) ;
#760 = CARTESIAN_POINT ( 'NONE',  ( -3.797033804170448300, 8.900000000000000400, -5.890685279694848100 ) ) ;
#761 = DIRECTION ( 'NONE',  ( 0.0000000000000000000, 0.0000000000000000000, -1.000000000000000000 ) ) ;
#762 = CARTESIAN_POINT ( 'NONE',  ( -1.147013337584476000, 8.622317995948801400, 7.420675309436276700 ) ) ;
#763 = CARTESIAN_POINT ( 'NONE',  ( -4.685629577104320400, 8.828034040544254800, -5.377654270990710500 ) ) ;
#764 = CARTESIAN_POINT ( 'NONE',  ( 2.021229543267130800, 8.785678570821428200, -6.915946347755463500 ) ) ;
#765 = CARTESIAN_POINT ( 'NONE',  ( 1.270842860780373000E-015, 8.274785217660710400, -8.082903768654762900 ) ) ;
#766 = CARTESIAN_POINT ( 'NONE',  ( -3.500000000000002200, 8.900000000000000400, 6.062177826491074000 ) ) ;
#767 = CARTESIAN_POINT ( 'NONE',  ( -7.000000000000003600, 8.623716282064556500, -2.710709102696932300 ) ) ;
#768 = CARTESIAN_POINT ( 'NONE',  ( -7.000000000000002700, 8.274785217660708600, -4.041451884327383200 ) ) ;
#769 = CARTESIAN_POINT ( 'NONE',  ( -7.000000000000002700, 8.899999999999998600, -0.6832549928911994000 ) ) ;
#770 = CARTESIAN_POINT ( 'NONE',  ( -7.000000000000002700, 8.900000000000000400, 0.0000000000000000000 ) ) ;
#771 = CARTESIAN_POINT ( 'NONE',  ( 4.978770456732869200, 8.785678570821430000, 5.208409305226683500 ) ) ;
#772 = CARTESIAN_POINT ( 'NONE',  ( -4.095399654374514100, 8.885222241539503700, -5.718423675762538000 ) ) ;
#773 = CARTESIAN_POINT ( 'NONE',  ( 1.147013337584474900, 8.622317995948797900, -7.420675309436279400 ) ) ;
#774 = CARTESIAN_POINT ( 'NONE',  ( 6.999999999999998200, 8.900000000000000400, -4.041451884327385000 ) ) ;
#775 = CARTESIAN_POINT ( 'NONE',  ( -6.428875813607937100, 8.465159946458335600, -4.371190587081552600 ) ) ;
#776 = DIRECTION ( 'NONE',  ( -0.0000000000000000000, -1.000000000000000000, -0.0000000000000000000 ) ) ;
#777 = CARTESIAN_POINT ( 'NONE',  ( 0.0000000000000000000, 0.8000000000000003800, 0.0000000000000000000 ) ) ;
#778 = CARTESIAN_POINT ( 'NONE',  ( 4.095399654374514100, 8.885222241539505500, 5.718423675762534400 ) ) ;
#779 = CARTESIAN_POINT ( 'NONE',  ( -3.499999999999999600, 8.900000000000000400, -6.062177826491074000 ) ) ;
#780 = CARTESIAN_POINT ( 'NONE',  ( -7.000000000000004400, 8.464626439322019600, -3.383822601750796200 ) ) ;
#781 = CARTESIAN_POINT ( 'NONE',  ( 6.999999999999997300, 8.900000000000000400, 4.041451884327383200 ) ) ;
#782 = CARTESIAN_POINT ( 'NONE',  ( 6.999999999999997300, 8.274785217660712200, 4.041451884327383200 ) ) ;
#783 = CARTESIAN_POINT ( 'NONE',  ( 3.797033804170444800, 8.900000000000003900, 5.890685279694846300 ) ) ;
#784 = CARTESIAN_POINT ( 'NONE',  ( -3.202966195829555700, 8.900000000000005700, 6.233670373287298000 ) ) ;
#785 = CARTESIAN_POINT ( 'NONE',  ( -5.852986662415528200, 8.622317995948799700, -4.703680343545870300 ) ) ;
#786 = DIRECTION ( 'NONE',  ( 0.0000000000000000000, -1.000000000000000000, 0.0000000000000000000 ) ) ;
#787 = CARTESIAN_POINT ( 'NONE',  ( 3.499999999999998700, 8.900000000000000400, 6.062177826491070400 ) ) ;
#788 = CARTESIAN_POINT ( 'NONE',  ( -2.021229543267132100, 8.785678570821428200, 6.915946347755461700 ) ) ;
#789 = CARTESIAN_POINT ( 'NONE',  ( -2.904600345625485900, 8.885222241539505500, 6.405931977219608200 ) ) ;
#790 = CARTESIAN_POINT ( 'NONE',  ( 3.202966195829554800, 8.900000000000005700, -6.233670373287300700 ) ) ;
#791 = CARTESIAN_POINT ( 'NONE',  ( 2.904600345625486300, 8.885222241539505500, -6.405931977219612600 ) ) ;
#792 = CARTESIAN_POINT ( 'NONE',  ( 0.5711241863920683000, 8.465159946458330300, -7.753165065900596200 ) ) ;
#793 = CARTESIAN_POINT ( 'NONE',  ( 3.500000000000000000, 8.900000000000000400, -6.062177826491071300 ) ) ;
#794 = DIRECTION ( 'NONE',  ( 0.0000000000000000000, -1.000000000000000000, 0.0000000000000000000 ) ) ;
#795 = CARTESIAN_POINT ( 'NONE',  ( 0.0000000000000000000, 0.0000000000000000000, 0.0000000000000000000 ) ) ;
#796 = CARTESIAN_POINT ( 'NONE',  ( -2.314370422895680500, 8.828034040544258300, 6.746701381991433000 ) ) ;
#797 = CARTESIAN_POINT ( 'NONE',  ( 0.0000000000000000000, 8.900000000000000400, 0.0000000000000000000 ) ) ;
#798 = CARTESIAN_POINT ( 'NONE',  ( -0.5711241863920695200, 8.465159946458335600, 7.753165065900596200 ) ) ;
#799 = CARTESIAN_POINT ( 'NONE',  ( 2.314370422895681000, 8.828034040544256600, -6.746701381991434800 ) ) ;
#800 = DIRECTION ( 'NONE',  ( 0.0000000000000000000, 1.000000000000000000, 0.0000000000000000000 ) ) ;
#801 = DIRECTION ( 'NONE',  ( 0.0000000000000000000, 0.0000000000000000000, 1.000000000000000000 ) ) ;
#802 = DIRECTION ( 'NONE',  ( 0.0000000000000000000, 0.0000000000000000000, -1.000000000000000000 ) ) ;
#803 = CARTESIAN_POINT ( 'NONE',  ( -4.071036897839237100, 2.822894110695849200, 5.732489519806381200 ) ) ;
#804 = CARTESIAN_POINT ( 'NONE',  ( 0.0000000000000000000, 8.900000000000000400, 0.0000000000000000000 ) ) ;
#805 =( LENGTH_UNIT ( ) NAMED_UNIT ( * ) SI_UNIT ( .MILLI., .METRE. ) );
#806 = DIRECTION ( 'NONE',  ( 0.0000000000000000000, 1.000000000000000000, 0.0000000000000000000 ) ) ;
#807 = DIRECTION ( 'NONE',  ( 0.0000000000000000000, 1.000000000000000000, 0.0000000000000000000 ) ) ;
#808 = CARTESIAN_POINT ( 'NONE',  ( -1.892768581116928100E-015, 2.340931658375662700, 8.082903768654762900 ) ) ;
#809 = CARTESIAN_POINT ( 'NONE',  ( -7.000000000000002700, 8.463448642522662300, 3.387902609545677500 ) ) ;
#810 = CARTESIAN_POINT ( 'NONE',  ( 0.0000000000000000000, 8.900000000000000400, 0.0000000000000000000 ) ) ;
#811 = CARTESIAN_POINT ( 'NONE',  ( 0.0000000000000000000, 0.8000000000000000400, 0.0000000000000000000 ) ) ;
#812 = CARTESIAN_POINT ( 'NONE',  ( 0.0000000000000000000, 8.900000000000000400, 0.0000000000000000000 ) ) ;
#813 = DIRECTION ( 'NONE',  ( 0.0000000000000000000, 0.0000000000000000000, 1.000000000000000000 ) ) ;
#814 =( NAMED_UNIT ( * ) PLANE_ANGLE_UNIT ( ) SI_UNIT ( $, .RADIAN. ) );
#815 = CARTESIAN_POINT ( 'NONE',  ( -7.000000000000002700, 2.340931658375663200, 4.041451884327380600 ) ) ;
#816 = CARTESIAN_POINT ( 'NONE',  ( -7.000000000000002700, 8.900000000000000400, 0.0000000000000000000 ) ) ;
#817 = DIRECTION ( 'NONE',  ( 0.0000000000000000000, 0.0000000000000000000, 1.000000000000000000 ) ) ;
#818 =( NAMED_UNIT ( * ) SI_UNIT ( $, .STERADIAN. ) SOLID_ANGLE_UNIT ( ) );
#819 = DIRECTION ( 'NONE',  ( 0.0000000000000000000, 0.0000000000000000000, 1.000000000000000000 ) ) ;
#820 = CARTESIAN_POINT ( 'NONE',  ( -2.901495885546513600, 2.821534366615887200, 6.407724338081889600 ) ) ;
#821 = CARTESIAN_POINT ( 'NONE',  ( -4.657880882618676400, 2.779315511145213700, 5.393674987221658100 ) ) ;
#822 = CARTESIAN_POINT ( 'NONE',  ( 0.0000000000000000000, 8.900000000000000400, 0.0000000000000000000 ) ) ;
#823 = DIRECTION ( 'NONE',  ( 0.0000000000000000000, -1.000000000000000000, 0.0000000000000000000 ) ) ;
#824 = CARTESIAN_POINT ( 'NONE',  ( -5.835323117847912600, 2.612023384263979500, 4.713878395756824000 ) ) ;
#825 = CARTESIAN_POINT ( 'NONE',  ( -7.000000000000004400, 8.899999999999998600, 0.6837026348884230900 ) ) ;
#826 = DIRECTION ( 'NONE',  ( 0.0000000000000000000, 0.0000000000000000000, 1.000000000000000000 ) ) ;
#827 = CARTESIAN_POINT ( 'NONE',  ( -1.156987528085243300, 2.610245947680554800, 7.414916707865709000 ) ) ;
#828 = DIRECTION ( 'NONE',  ( 0.0000000000000000000, 0.0000000000000000000, -1.000000000000000000 ) ) ;
#829 = CARTESIAN_POINT ( 'NONE',  ( -7.000000000000001800, 8.620519796286418000, 2.725909361907414000 ) ) ;
#830 = CARTESIAN_POINT ( 'NONE',  ( -7.000000000000002700, 8.900000000000000400, -4.041451884327383200 ) ) ;
#831 = CARTESIAN_POINT ( 'NONE',  ( 0.0000000000000000000, 8.900000000000000400, 0.0000000000000000000 ) ) ;
#832 = CARTESIAN_POINT ( 'NONE',  ( -0.5778556445171636500, 2.489209485893318700, 7.749278656740034200 ) ) ;
#833 = CARTESIAN_POINT ( 'NONE',  ( -6.420224698111209000, 2.489702070204550900, 4.376185310942372700 ) ) ;
#834 = CARTESIAN_POINT ( 'NONE',  ( -7.000000000000002700, 8.274785217660710400, 4.041451884327380600 ) ) ;
#835 = CARTESIAN_POINT ( 'NONE',  ( -2.318795460625327400, 2.776668540771931600, 6.744146585267046100 ) ) ;
#836 = CARTESIAN_POINT ( 'NONE',  ( 0.0000000000000000000, 0.0000000000000000000, 0.0000000000000000000 ) ) ;
#837 = DIRECTION ( 'NONE',  ( 0.0000000000000000000, 1.000000000000000000, 0.0000000000000000000 ) ) ;
#838 = DIRECTION ( 'NONE',  ( -0.0000000000000000000, 1.000000000000000000, -0.0000000000000000000 ) ) ;
#839 = DIRECTION ( 'NONE',  ( 0.0000000000000000000, 1.000000000000000000, 0.0000000000000000000 ) ) ;
#840 = DIRECTION ( 'NONE',  ( 0.0000000000000000000, 0.0000000000000000000, 1.000000000000000000 ) ) ;
#841 = DIRECTION ( 'NONE',  ( 0.0000000000000000000, 0.0000000000000000000, 1.000000000000000000 ) ) ;
#842 = DIRECTION ( 'NONE',  ( -0.0000000000000000000, -1.000000000000000000, -0.0000000000000000000 ) ) ;
#843 = CARTESIAN_POINT ( 'NONE',  ( -7.000000000000003600, 8.839599741837185200, 1.376514626694054000 ) ) ;
#844 = APPROVAL_STATUS ( 'not_yet_approved' ) ;
#845 = APPLICATION_CONTEXT ( 'configuration controlled 3d designs of mechanical parts and assemblies' ) ;
#846 = DATE_TIME_ROLE ( 'classification_date' ) ;
#847 = APPROVAL_ROLE ( '' ) ;
#848 = PERSON_AND_ORGANIZATION_ROLE ( 'creator' ) ;
#849 = APPLICATION_CONTEXT ( 'configuration controlled 3d designs of mechanical parts and assemblies' ) ;
#850 = APPROVAL_STATUS ( 'not_yet_approved' ) ;
#851 = APPLICATION_PROTOCOL_DEFINITION ( 'international standard', 'config_control_design', 1994, #845 ) ;
#852 = SECURITY_CLASSIFICATION_LEVEL ( 'unclassified' ) ;
#853 = APPROVAL_ROLE ( '' ) ;
#854 = APPROVAL_STATUS ( 'not_yet_approved' ) ;
#855 = PERSON_AND_ORGANIZATION_ROLE ( 'classification_officer' ) ;
#856 = DIRECTION ( 'NONE',  ( 1.000000000000000000, 0.0000000000000000000, 0.0000000000000000000 ) ) ;
#857 = MECHANICAL_CONTEXT ( 'NONE', #849, 'mechanical' ) ;
#858 = PERSON_AND_ORGANIZATION_ROLE ( 'creator' ) ;
#859 = PERSON_AND_ORGANIZATION_ROLE ( 'design_supplier' ) ;
#860 = DATE_TIME_ROLE ( 'creation_date' ) ;
#861 = APPLICATION_PROTOCOL_DEFINITION ( 'international standard', 'config_control_design', 1994, #849 ) ;
#862 = APPROVAL_ROLE ( '' ) ;
#863 = PERSON_AND_ORGANIZATION_ROLE ( 'design_owner' ) ;
#864 = B_SPLINE_CURVE_WITH_KNOTS ( 'NONE', 3,
 ( #779, #760, #772, #763, #754, #785, #775, #768 ),
 .UNSPECIFIED., .F., .F.,
 ( 4, 2, 2, 4 ),
 ( 0.004089525732751300700, 0.005108025760995419900, 0.006126525789239538200, 0.008163525845727777300 ),
 .UNSPECIFIED. ) ;
#865 = MANIFOLD_SOLID_BREP ( 'M10 Tapped Hole1', #169 ) ;
#866 = B_SPLINE_CURVE_WITH_KNOTS ( 'NONE', 3,
 ( #787, #783, #778, #757, #771, #759, #753, #782 ),
 .UNSPECIFIED., .F., .F.,
 ( 4, 2, 2, 4 ),
 ( 0.004089525732751302400, 0.005108025760995420700, 0.006126525789239539000, 0.008163525845727773900 ),
 .UNSPECIFIED. ) ;
#867 = B_SPLINE_CURVE_WITH_KNOTS ( 'NONE', 3,
 ( #755, #780, #767, #756, #769, #770 ),
 .UNSPECIFIED., .F., .F.,
 ( 4, 2, 4 ),
 ( 0.007320165263377048500, 0.009364964035195525200, 0.01140976280701400100 ),
 .UNSPECIFIED. ) ;
#868 = B_SPLINE_CURVE_WITH_KNOTS ( 'NONE', 3,
 ( #766, #784, #789, #796, #788, #762, #798, #758 ),
 .UNSPECIFIED., .F., .F.,
 ( 4, 2, 2, 4 ),
 ( 0.004089525732751302400, 0.005108025760995420700, 0.006126525789239539000, 0.008163525845727775600 ),
 .UNSPECIFIED. ) ;
#869 = B_SPLINE_CURVE_WITH_KNOTS ( 'NONE', 3,
 ( #816, #825, #843, #829, #809, #834 ),
 .UNSPECIFIED., .F., .F.,
 ( 4, 2, 4 ),
 ( 0.01140976280701400100, 0.01345590125115929100, 0.01550203969530457800 ),
 .UNSPECIFIED. ) ;
#870 = UNCERTAINTY_MEASURE_WITH_UNIT (LENGTH_MEASURE( 1.000000000000000100E-005 ), #805, 'distance_accuracy_value', 'NONE');
#871 = B_SPLINE_CURVE_WITH_KNOTS ( 'NONE', 3,
 ( #674, #691, #695, #697, #694, #696 ),
 .UNSPECIFIED., .F., .F.,
 ( 4, 2, 4 ),
 ( 0.01800014977631218500, 0.02004803267498635200, 0.02209591557366052300 ),
 .UNSPECIFIED. ) ;
#872 = B_SPLINE_CURVE_WITH_KNOTS ( 'NONE', 3,
 ( #595, #626, #600, #628, #630, #589 ),
 .UNSPECIFIED., .F., .F.,
 ( 4, 2, 4 ),
 ( 2.380732479876068100E-007, 0.002044881902999643900, 0.004089525732751300700 ),
 .UNSPECIFIED. ) ;
#873 = B_SPLINE_CURVE_WITH_KNOTS ( 'NONE', 3,
 ( #748, #743, #747, #727, #710, #711 ),
 .UNSPECIFIED., .F., .F.,
 ( 4, 2, 4 ),
 ( 0.007034055448671887800, 0.009074613135109726000, 0.01111517082154756300 ),
 .UNSPECIFIED. ) ;
#874 = B_SPLINE_CURVE_WITH_KNOTS ( 'NONE', 3,
 ( #750, #745, #751, #729, #717, #718, #702, #704, #720, #721 ),
 .UNSPECIFIED., .F., .F.,
 ( 4, 2, 2, 2, 4 ),
 ( 2.333751882439410200E-007, 0.002023090407546902900, 0.004045947439905561900, 0.006068804472264221300, 0.008091661504622879900 ),
 .UNSPECIFIED. ) ;
#875 = ADVANCED_BREP_SHAPE_REPRESENTATION ( 'ALP0824', ( #865, #439 ), #436 ) ;
#876 = B_SPLINE_CURVE_WITH_KNOTS ( 'NONE', 3,
 ( #728, #749, #734, #737, #712, #744 ),
 .UNSPECIFIED., .F., .F.,
 ( 4, 2, 4 ),
 ( 0.01787713689697695300, 0.01990339829084823000, 0.02192965968471951100 ),
 .UNSPECIFIED. ) ;
#877 = B_SPLINE_CURVE_WITH_KNOTS ( 'NONE', 3,
 ( #636, #644, #638, #637, #649, #653, #645, #646, #647, #648 ),
 .UNSPECIFIED., .F., .F.,
 ( 4, 2, 2, 2, 4 ),
 ( 2.333751882441632100E-007, 0.002023090407546902900, 0.004045947439905561000, 0.006068804472264219600, 0.008091661504622878200 ),
 .UNSPECIFIED. ) ;
#878 = B_SPLINE_CURVE_WITH_KNOTS ( 'NONE', 3,
 ( #602, #603, #617, #618, #627, #619, #620, #594 ),
 .UNSPECIFIED., .F., .F.,
 ( 4, 2, 2, 4 ),
 ( 0.01111517082154756300, 0.01315473294033027900, 0.01417451399972163700, 0.01519429505911299400 ),
 .UNSPECIFIED. ) ;
#879 = B_SPLINE_CURVE_WITH_KNOTS ( 'NONE', 3,
 ( #699, #700, #738, #736, #724, #725 ),
 .UNSPECIFIED., .F., .F.,
 ( 4, 2, 4 ),
 ( 2.380732479879728100E-007, 0.002044881902999645200, 0.004089525732751302400 ),
 .UNSPECIFIED. ) ;
#880 = B_SPLINE_CURVE_WITH_KNOTS ( 'NONE', 3,
 ( #610, #598, #624, #621, #625, #615, #592, #616 ),
 .UNSPECIFIED., .F., .F.,
 ( 4, 2, 2, 4 ),
 ( 0.01382659129450876400, 0.01483922769512581100, 0.01585186409574285800, 0.01787713689697695300 ),
 .UNSPECIFIED. ) ;
#881 = B_SPLINE_CURVE_WITH_KNOTS ( 'NONE', 3,
 ( #732, #746, #713, #723, #733, #716 ),
 .UNSPECIFIED., .F., .F.,
 ( 4, 2, 4 ),
 ( 2.380732479871295600E-007, 0.002044881902999641800, 0.004089525732751296400 ),
 .UNSPECIFIED. ) ;
#882 = B_SPLINE_CURVE_WITH_KNOTS ( 'NONE', 3,
 ( #676, #690, #658, #731, #705, #730, #714, #706, #707, #740 ),
 .UNSPECIFIED., .F., .F.,
 ( 4, 2, 2, 2, 4 ),
 ( 2.333751882439410500E-007, 0.002023090407546903700, 0.004045947439905563600, 0.006068804472264223100, 0.008091661504622883400 ),
 .UNSPECIFIED. ) ;
#883 = B_SPLINE_CURVE_WITH_KNOTS ( 'NONE', 3,
 ( #709, #741, #703, #739, #715, #708 ),
 .UNSPECIFIED., .F., .F.,
 ( 4, 2, 4 ),
 ( 2.380732479878730700E-007, 0.002044881902999645200, 0.004089525732751302400 ),
 .UNSPECIFIED. ) ;
#884 = B_SPLINE_CURVE_WITH_KNOTS ( 'NONE', 3,
 ( #793, #790, #791, #799, #764, #773, #792, #765 ),
 .UNSPECIFIED., .F., .F.,
 ( 4, 2, 2, 4 ),
 ( 0.004089525732751296400, 0.005108025760995414700, 0.006126525789239533000, 0.008163525845727770400 ),
 .UNSPECIFIED. ) ;
#885 = B_SPLINE_CURVE_WITH_KNOTS ( 'NONE', 3,
 ( #808, #832, #827, #835, #820, #803, #821, #824, #833, #815 ),
 .UNSPECIFIED., .F., .F.,
 ( 4, 2, 2, 2, 4 ),
 ( 2.333751882434980500E-007, 0.002023090407546902400, 0.004045947439905561900, 0.006068804472264221300, 0.008091661504622879900 ),
 .UNSPECIFIED. ) ;
#886 = B_SPLINE_CURVE_WITH_KNOTS ( 'NONE', 3,
 ( #683, #666, #692, #669, #689, #679 ),
 .UNSPECIFIED., .F., .F.,
 ( 4, 2, 4 ),
 ( 0.02209591557366052300, 0.02414245765785808700, 0.02618899974205565100 ),
 .UNSPECIFIED. ) ;
#887 = DESIGN_CONTEXT ( 'detailed design', #845, 'design' ) ;
#888 = PRODUCT_DEFINITION_SHAPE ( 'NONE', 'NONE',  #452 ) ;
ENDSEC;
END-ISO-10303-21;
