ISO-10303-21;
HEADER;
/* Generated by software containing ST-Developer
 * from STEP Tools, Inc. (www.steptools.com) 
 */

FILE_DESCRIPTION(
/* description */ (''),
/* implementation_level */ '2;1');

FILE_NAME(
/* name */ 'ALP0613.step',
/* time_stamp */ '2023-04-12T15:26:43+02:00',
/* author */ (''),
/* organization */ (''),
/* preprocessor_version */ 'ST-DEVELOPER v19.2',
/* originating_system */ 'Autodesk Translation Framework v12.4.0.73',
/* authorisation */ '');

FILE_SCHEMA (('AUTOMOTIVE_DESIGN { 1 0 10303 214 3 1 1 }'));
ENDSEC;

DATA;
#10=MECHANICAL_DESIGN_GEOMETRIC_PRESENTATION_REPRESENTATION('',(#13),#614);
#11=SHAPE_REPRESENTATION_RELATIONSHIP('SRR','None',#621,#12);
#12=ADVANCED_BREP_SHAPE_REPRESENTATION('',(#14),#613);
#13=STYLED_ITEM('',(#630),#14);
#14=MANIFOLD_SOLID_BREP('Body1',#370);
#15=FACE_BOUND('',#68,.T.);
#16=PLANE('',#393);
#17=PLANE('',#394);
#18=PLANE('',#395);
#19=PLANE('',#396);
#20=PLANE('',#397);
#21=PLANE('',#398);
#22=PLANE('',#399);
#23=PLANE('',#400);
#24=PLANE('',#401);
#25=PLANE('',#402);
#26=PLANE('',#403);
#27=PLANE('',#404);
#28=PLANE('',#405);
#29=PLANE('',#406);
#30=PLANE('',#407);
#31=PLANE('',#408);
#32=PLANE('',#409);
#33=FACE_OUTER_BOUND('',#51,.T.);
#34=FACE_OUTER_BOUND('',#52,.T.);
#35=FACE_OUTER_BOUND('',#53,.T.);
#36=FACE_OUTER_BOUND('',#54,.T.);
#37=FACE_OUTER_BOUND('',#55,.T.);
#38=FACE_OUTER_BOUND('',#56,.T.);
#39=FACE_OUTER_BOUND('',#57,.T.);
#40=FACE_OUTER_BOUND('',#58,.T.);
#41=FACE_OUTER_BOUND('',#59,.T.);
#42=FACE_OUTER_BOUND('',#60,.T.);
#43=FACE_OUTER_BOUND('',#61,.T.);
#44=FACE_OUTER_BOUND('',#62,.T.);
#45=FACE_OUTER_BOUND('',#63,.T.);
#46=FACE_OUTER_BOUND('',#64,.T.);
#47=FACE_OUTER_BOUND('',#65,.T.);
#48=FACE_OUTER_BOUND('',#66,.T.);
#49=FACE_OUTER_BOUND('',#67,.T.);
#50=FACE_OUTER_BOUND('',#69,.T.);
#51=EDGE_LOOP('',(#249,#250,#251,#252,#253,#254,#255,#256,#257,#258));
#52=EDGE_LOOP('',(#259,#260,#261,#262,#263,#264,#265));
#53=EDGE_LOOP('',(#266,#267,#268,#269));
#54=EDGE_LOOP('',(#270,#271,#272,#273));
#55=EDGE_LOOP('',(#274,#275,#276,#277,#278,#279,#280,#281,#282,#283,#284,
#285,#286));
#56=EDGE_LOOP('',(#287,#288,#289,#290));
#57=EDGE_LOOP('',(#291,#292,#293,#294));
#58=EDGE_LOOP('',(#295,#296,#297,#298));
#59=EDGE_LOOP('',(#299,#300,#301,#302));
#60=EDGE_LOOP('',(#303,#304,#305,#306,#307,#308));
#61=EDGE_LOOP('',(#309,#310,#311,#312));
#62=EDGE_LOOP('',(#313,#314,#315,#316));
#63=EDGE_LOOP('',(#317,#318,#319,#320));
#64=EDGE_LOOP('',(#321,#322,#323,#324));
#65=EDGE_LOOP('',(#325,#326,#327,#328));
#66=EDGE_LOOP('',(#329,#330,#331,#332));
#67=EDGE_LOOP('',(#333,#334,#335,#336));
#68=EDGE_LOOP('',(#337));
#69=EDGE_LOOP('',(#338,#339,#340,#341,#342,#343,#344,#345,#346,#347,#348,
#349,#350));
#70=LINE('',#523,#113);
#71=LINE('',#528,#114);
#72=LINE('',#530,#115);
#73=LINE('',#532,#116);
#74=LINE('',#534,#117);
#75=LINE('',#535,#118);
#76=LINE('',#538,#119);
#77=LINE('',#539,#120);
#78=LINE('',#542,#121);
#79=LINE('',#543,#122);
#80=LINE('',#547,#123);
#81=LINE('',#549,#124);
#82=LINE('',#551,#125);
#83=LINE('',#553,#126);
#84=LINE('',#555,#127);
#85=LINE('',#557,#128);
#86=LINE('',#559,#129);
#87=LINE('',#560,#130);
#88=LINE('',#562,#131);
#89=LINE('',#564,#132);
#90=LINE('',#566,#133);
#91=LINE('',#567,#134);
#92=LINE('',#570,#135);
#93=LINE('',#572,#136);
#94=LINE('',#573,#137);
#95=LINE('',#576,#138);
#96=LINE('',#577,#139);
#97=LINE('',#580,#140);
#98=LINE('',#581,#141);
#99=LINE('',#584,#142);
#100=LINE('',#585,#143);
#101=LINE('',#587,#144);
#102=LINE('',#588,#145);
#103=LINE('',#590,#146);
#104=LINE('',#594,#147);
#105=LINE('',#595,#148);
#106=LINE('',#598,#149);
#107=LINE('',#599,#150);
#108=LINE('',#602,#151);
#109=LINE('',#603,#152);
#110=LINE('',#606,#153);
#111=LINE('',#607,#154);
#112=LINE('',#609,#155);
#113=VECTOR('',#426,2.5175);
#114=VECTOR('',#433,10.);
#115=VECTOR('',#434,10.);
#116=VECTOR('',#435,10.);
#117=VECTOR('',#436,10.);
#118=VECTOR('',#437,10.);
#119=VECTOR('',#440,10.);
#120=VECTOR('',#441,10.);
#121=VECTOR('',#444,10.);
#122=VECTOR('',#445,10.);
#123=VECTOR('',#448,10.);
#124=VECTOR('',#449,10.);
#125=VECTOR('',#450,10.);
#126=VECTOR('',#451,10.);
#127=VECTOR('',#452,10.);
#128=VECTOR('',#453,10.);
#129=VECTOR('',#454,10.);
#130=VECTOR('',#455,10.);
#131=VECTOR('',#456,10.);
#132=VECTOR('',#457,10.);
#133=VECTOR('',#458,10.);
#134=VECTOR('',#459,10.);
#135=VECTOR('',#462,10.);
#136=VECTOR('',#463,10.);
#137=VECTOR('',#464,10.);
#138=VECTOR('',#467,10.);
#139=VECTOR('',#468,10.);
#140=VECTOR('',#471,10.);
#141=VECTOR('',#472,10.);
#142=VECTOR('',#475,10.);
#143=VECTOR('',#476,10.);
#144=VECTOR('',#479,10.);
#145=VECTOR('',#480,10.);
#146=VECTOR('',#483,10.);
#147=VECTOR('',#488,10.);
#148=VECTOR('',#489,10.);
#149=VECTOR('',#492,10.);
#150=VECTOR('',#493,10.);
#151=VECTOR('',#496,10.);
#152=VECTOR('',#497,10.);
#153=VECTOR('',#500,10.);
#154=VECTOR('',#501,10.);
#155=VECTOR('',#504,10.);
#156=CIRCLE('',#387,2.5175);
#157=CIRCLE('',#390,2.5175);
#158=CIRCLE('',#391,2.5175);
#159=CIRCLE('',#392,2.5175);
#160=ELLIPSE('',#385,3.56028264327443,2.5175);
#161=ELLIPSE('',#386,3.56028264327441,2.5175);
#162=ELLIPSE('',#388,3.56028264327441,2.5175);
#163=ELLIPSE('',#389,3.56028264327443,2.5175);
#164=VERTEX_POINT('',#509);
#165=VERTEX_POINT('',#510);
#166=VERTEX_POINT('',#512);
#167=VERTEX_POINT('',#514);
#168=VERTEX_POINT('',#516);
#169=VERTEX_POINT('',#518);
#170=VERTEX_POINT('',#520);
#171=VERTEX_POINT('',#522);
#172=VERTEX_POINT('',#527);
#173=VERTEX_POINT('',#529);
#174=VERTEX_POINT('',#531);
#175=VERTEX_POINT('',#533);
#176=VERTEX_POINT('',#537);
#177=VERTEX_POINT('',#541);
#178=VERTEX_POINT('',#545);
#179=VERTEX_POINT('',#546);
#180=VERTEX_POINT('',#548);
#181=VERTEX_POINT('',#550);
#182=VERTEX_POINT('',#552);
#183=VERTEX_POINT('',#554);
#184=VERTEX_POINT('',#556);
#185=VERTEX_POINT('',#558);
#186=VERTEX_POINT('',#561);
#187=VERTEX_POINT('',#563);
#188=VERTEX_POINT('',#565);
#189=VERTEX_POINT('',#569);
#190=VERTEX_POINT('',#571);
#191=VERTEX_POINT('',#575);
#192=VERTEX_POINT('',#579);
#193=VERTEX_POINT('',#583);
#194=VERTEX_POINT('',#593);
#195=VERTEX_POINT('',#597);
#196=VERTEX_POINT('',#601);
#197=VERTEX_POINT('',#605);
#198=EDGE_CURVE('',#164,#165,#160,.T.);
#199=EDGE_CURVE('',#166,#164,#161,.T.);
#200=EDGE_CURVE('',#167,#166,#156,.T.);
#201=EDGE_CURVE('',#168,#167,#162,.T.);
#202=EDGE_CURVE('',#169,#168,#163,.T.);
#203=EDGE_CURVE('',#170,#169,#157,.T.);
#204=EDGE_CURVE('',#170,#171,#70,.T.);
#205=EDGE_CURVE('',#171,#171,#158,.T.);
#206=EDGE_CURVE('',#165,#170,#159,.T.);
#207=EDGE_CURVE('',#169,#172,#71,.T.);
#208=EDGE_CURVE('',#173,#172,#72,.T.);
#209=EDGE_CURVE('',#174,#173,#73,.T.);
#210=EDGE_CURVE('',#175,#174,#74,.T.);
#211=EDGE_CURVE('',#175,#165,#75,.T.);
#212=EDGE_CURVE('',#168,#176,#76,.T.);
#213=EDGE_CURVE('',#172,#176,#77,.T.);
#214=EDGE_CURVE('',#167,#177,#78,.T.);
#215=EDGE_CURVE('',#176,#177,#79,.T.);
#216=EDGE_CURVE('',#178,#179,#80,.T.);
#217=EDGE_CURVE('',#179,#180,#81,.T.);
#218=EDGE_CURVE('',#180,#181,#82,.T.);
#219=EDGE_CURVE('',#181,#182,#83,.T.);
#220=EDGE_CURVE('',#182,#183,#84,.T.);
#221=EDGE_CURVE('',#183,#184,#85,.T.);
#222=EDGE_CURVE('',#184,#185,#86,.T.);
#223=EDGE_CURVE('',#185,#175,#87,.T.);
#224=EDGE_CURVE('',#174,#186,#88,.T.);
#225=EDGE_CURVE('',#186,#187,#89,.T.);
#226=EDGE_CURVE('',#187,#188,#90,.T.);
#227=EDGE_CURVE('',#188,#178,#91,.T.);
#228=EDGE_CURVE('',#179,#189,#92,.T.);
#229=EDGE_CURVE('',#190,#189,#93,.T.);
#230=EDGE_CURVE('',#180,#190,#94,.T.);
#231=EDGE_CURVE('',#191,#190,#95,.T.);
#232=EDGE_CURVE('',#181,#191,#96,.T.);
#233=EDGE_CURVE('',#192,#191,#97,.T.);
#234=EDGE_CURVE('',#182,#192,#98,.T.);
#235=EDGE_CURVE('',#193,#192,#99,.T.);
#236=EDGE_CURVE('',#183,#193,#100,.T.);
#237=EDGE_CURVE('',#184,#166,#101,.T.);
#238=EDGE_CURVE('',#177,#193,#102,.T.);
#239=EDGE_CURVE('',#185,#164,#103,.T.);
#240=EDGE_CURVE('',#194,#173,#104,.T.);
#241=EDGE_CURVE('',#186,#194,#105,.T.);
#242=EDGE_CURVE('',#195,#194,#106,.T.);
#243=EDGE_CURVE('',#187,#195,#107,.T.);
#244=EDGE_CURVE('',#196,#195,#108,.T.);
#245=EDGE_CURVE('',#188,#196,#109,.T.);
#246=EDGE_CURVE('',#197,#196,#110,.T.);
#247=EDGE_CURVE('',#178,#197,#111,.T.);
#248=EDGE_CURVE('',#189,#197,#112,.T.);
#249=ORIENTED_EDGE('',*,*,#198,.F.);
#250=ORIENTED_EDGE('',*,*,#199,.F.);
#251=ORIENTED_EDGE('',*,*,#200,.F.);
#252=ORIENTED_EDGE('',*,*,#201,.F.);
#253=ORIENTED_EDGE('',*,*,#202,.F.);
#254=ORIENTED_EDGE('',*,*,#203,.F.);
#255=ORIENTED_EDGE('',*,*,#204,.T.);
#256=ORIENTED_EDGE('',*,*,#205,.F.);
#257=ORIENTED_EDGE('',*,*,#204,.F.);
#258=ORIENTED_EDGE('',*,*,#206,.F.);
#259=ORIENTED_EDGE('',*,*,#206,.T.);
#260=ORIENTED_EDGE('',*,*,#203,.T.);
#261=ORIENTED_EDGE('',*,*,#207,.T.);
#262=ORIENTED_EDGE('',*,*,#208,.F.);
#263=ORIENTED_EDGE('',*,*,#209,.F.);
#264=ORIENTED_EDGE('',*,*,#210,.F.);
#265=ORIENTED_EDGE('',*,*,#211,.T.);
#266=ORIENTED_EDGE('',*,*,#202,.T.);
#267=ORIENTED_EDGE('',*,*,#212,.T.);
#268=ORIENTED_EDGE('',*,*,#213,.F.);
#269=ORIENTED_EDGE('',*,*,#207,.F.);
#270=ORIENTED_EDGE('',*,*,#201,.T.);
#271=ORIENTED_EDGE('',*,*,#214,.T.);
#272=ORIENTED_EDGE('',*,*,#215,.F.);
#273=ORIENTED_EDGE('',*,*,#212,.F.);
#274=ORIENTED_EDGE('',*,*,#216,.T.);
#275=ORIENTED_EDGE('',*,*,#217,.T.);
#276=ORIENTED_EDGE('',*,*,#218,.T.);
#277=ORIENTED_EDGE('',*,*,#219,.T.);
#278=ORIENTED_EDGE('',*,*,#220,.T.);
#279=ORIENTED_EDGE('',*,*,#221,.T.);
#280=ORIENTED_EDGE('',*,*,#222,.T.);
#281=ORIENTED_EDGE('',*,*,#223,.T.);
#282=ORIENTED_EDGE('',*,*,#210,.T.);
#283=ORIENTED_EDGE('',*,*,#224,.T.);
#284=ORIENTED_EDGE('',*,*,#225,.T.);
#285=ORIENTED_EDGE('',*,*,#226,.T.);
#286=ORIENTED_EDGE('',*,*,#227,.T.);
#287=ORIENTED_EDGE('',*,*,#228,.T.);
#288=ORIENTED_EDGE('',*,*,#229,.F.);
#289=ORIENTED_EDGE('',*,*,#230,.F.);
#290=ORIENTED_EDGE('',*,*,#217,.F.);
#291=ORIENTED_EDGE('',*,*,#230,.T.);
#292=ORIENTED_EDGE('',*,*,#231,.F.);
#293=ORIENTED_EDGE('',*,*,#232,.F.);
#294=ORIENTED_EDGE('',*,*,#218,.F.);
#295=ORIENTED_EDGE('',*,*,#232,.T.);
#296=ORIENTED_EDGE('',*,*,#233,.F.);
#297=ORIENTED_EDGE('',*,*,#234,.F.);
#298=ORIENTED_EDGE('',*,*,#219,.F.);
#299=ORIENTED_EDGE('',*,*,#234,.T.);
#300=ORIENTED_EDGE('',*,*,#235,.F.);
#301=ORIENTED_EDGE('',*,*,#236,.F.);
#302=ORIENTED_EDGE('',*,*,#220,.F.);
#303=ORIENTED_EDGE('',*,*,#200,.T.);
#304=ORIENTED_EDGE('',*,*,#237,.F.);
#305=ORIENTED_EDGE('',*,*,#221,.F.);
#306=ORIENTED_EDGE('',*,*,#236,.T.);
#307=ORIENTED_EDGE('',*,*,#238,.F.);
#308=ORIENTED_EDGE('',*,*,#214,.F.);
#309=ORIENTED_EDGE('',*,*,#199,.T.);
#310=ORIENTED_EDGE('',*,*,#239,.F.);
#311=ORIENTED_EDGE('',*,*,#222,.F.);
#312=ORIENTED_EDGE('',*,*,#237,.T.);
#313=ORIENTED_EDGE('',*,*,#198,.T.);
#314=ORIENTED_EDGE('',*,*,#211,.F.);
#315=ORIENTED_EDGE('',*,*,#223,.F.);
#316=ORIENTED_EDGE('',*,*,#239,.T.);
#317=ORIENTED_EDGE('',*,*,#209,.T.);
#318=ORIENTED_EDGE('',*,*,#240,.F.);
#319=ORIENTED_EDGE('',*,*,#241,.F.);
#320=ORIENTED_EDGE('',*,*,#224,.F.);
#321=ORIENTED_EDGE('',*,*,#241,.T.);
#322=ORIENTED_EDGE('',*,*,#242,.F.);
#323=ORIENTED_EDGE('',*,*,#243,.F.);
#324=ORIENTED_EDGE('',*,*,#225,.F.);
#325=ORIENTED_EDGE('',*,*,#243,.T.);
#326=ORIENTED_EDGE('',*,*,#244,.F.);
#327=ORIENTED_EDGE('',*,*,#245,.F.);
#328=ORIENTED_EDGE('',*,*,#226,.F.);
#329=ORIENTED_EDGE('',*,*,#245,.T.);
#330=ORIENTED_EDGE('',*,*,#246,.F.);
#331=ORIENTED_EDGE('',*,*,#247,.F.);
#332=ORIENTED_EDGE('',*,*,#227,.F.);
#333=ORIENTED_EDGE('',*,*,#247,.T.);
#334=ORIENTED_EDGE('',*,*,#248,.F.);
#335=ORIENTED_EDGE('',*,*,#228,.F.);
#336=ORIENTED_EDGE('',*,*,#216,.F.);
#337=ORIENTED_EDGE('',*,*,#205,.T.);
#338=ORIENTED_EDGE('',*,*,#248,.T.);
#339=ORIENTED_EDGE('',*,*,#246,.T.);
#340=ORIENTED_EDGE('',*,*,#244,.T.);
#341=ORIENTED_EDGE('',*,*,#242,.T.);
#342=ORIENTED_EDGE('',*,*,#240,.T.);
#343=ORIENTED_EDGE('',*,*,#208,.T.);
#344=ORIENTED_EDGE('',*,*,#213,.T.);
#345=ORIENTED_EDGE('',*,*,#215,.T.);
#346=ORIENTED_EDGE('',*,*,#238,.T.);
#347=ORIENTED_EDGE('',*,*,#235,.T.);
#348=ORIENTED_EDGE('',*,*,#233,.T.);
#349=ORIENTED_EDGE('',*,*,#231,.T.);
#350=ORIENTED_EDGE('',*,*,#229,.T.);
#351=CYLINDRICAL_SURFACE('',#384,2.5175);
#352=ADVANCED_FACE('',(#33),#351,.F.);
#353=ADVANCED_FACE('',(#34),#16,.T.);
#354=ADVANCED_FACE('',(#35),#17,.T.);
#355=ADVANCED_FACE('',(#36),#18,.T.);
#356=ADVANCED_FACE('',(#37),#19,.T.);
#357=ADVANCED_FACE('',(#38),#20,.T.);
#358=ADVANCED_FACE('',(#39),#21,.T.);
#359=ADVANCED_FACE('',(#40),#22,.T.);
#360=ADVANCED_FACE('',(#41),#23,.T.);
#361=ADVANCED_FACE('',(#42),#24,.T.);
#362=ADVANCED_FACE('',(#43),#25,.T.);
#363=ADVANCED_FACE('',(#44),#26,.T.);
#364=ADVANCED_FACE('',(#45),#27,.T.);
#365=ADVANCED_FACE('',(#46),#28,.T.);
#366=ADVANCED_FACE('',(#47),#29,.T.);
#367=ADVANCED_FACE('',(#48),#30,.T.);
#368=ADVANCED_FACE('',(#49,#15),#31,.T.);
#369=ADVANCED_FACE('',(#50),#32,.T.);
#370=CLOSED_SHELL('',(#352,#353,#354,#355,#356,#357,#358,#359,#360,#361,
#362,#363,#364,#365,#366,#367,#368,#369));
#371=DERIVED_UNIT_ELEMENT(#373,1.);
#372=DERIVED_UNIT_ELEMENT(#616,-3.);
#373=(
MASS_UNIT()
NAMED_UNIT(*)
SI_UNIT(.KILO.,.GRAM.)
);
#374=DERIVED_UNIT((#371,#372));
#375=MEASURE_REPRESENTATION_ITEM('density measure',
POSITIVE_RATIO_MEASURE(2700.),#374);
#376=PROPERTY_DEFINITION_REPRESENTATION(#381,#378);
#377=PROPERTY_DEFINITION_REPRESENTATION(#382,#379);
#378=REPRESENTATION('material name',(#380),#613);
#379=REPRESENTATION('density',(#375),#613);
#380=DESCRIPTIVE_REPRESENTATION_ITEM('Aluminum','Aluminum');
#381=PROPERTY_DEFINITION('material property','material name',#623);
#382=PROPERTY_DEFINITION('material property','density of part',#623);
#383=AXIS2_PLACEMENT_3D('',#507,#410,#411);
#384=AXIS2_PLACEMENT_3D('',#508,#412,#413);
#385=AXIS2_PLACEMENT_3D('',#511,#414,#415);
#386=AXIS2_PLACEMENT_3D('',#513,#416,#417);
#387=AXIS2_PLACEMENT_3D('',#515,#418,#419);
#388=AXIS2_PLACEMENT_3D('',#517,#420,#421);
#389=AXIS2_PLACEMENT_3D('',#519,#422,#423);
#390=AXIS2_PLACEMENT_3D('',#521,#424,#425);
#391=AXIS2_PLACEMENT_3D('',#524,#427,#428);
#392=AXIS2_PLACEMENT_3D('',#525,#429,#430);
#393=AXIS2_PLACEMENT_3D('',#526,#431,#432);
#394=AXIS2_PLACEMENT_3D('',#536,#438,#439);
#395=AXIS2_PLACEMENT_3D('',#540,#442,#443);
#396=AXIS2_PLACEMENT_3D('',#544,#446,#447);
#397=AXIS2_PLACEMENT_3D('',#568,#460,#461);
#398=AXIS2_PLACEMENT_3D('',#574,#465,#466);
#399=AXIS2_PLACEMENT_3D('',#578,#469,#470);
#400=AXIS2_PLACEMENT_3D('',#582,#473,#474);
#401=AXIS2_PLACEMENT_3D('',#586,#477,#478);
#402=AXIS2_PLACEMENT_3D('',#589,#481,#482);
#403=AXIS2_PLACEMENT_3D('',#591,#484,#485);
#404=AXIS2_PLACEMENT_3D('',#592,#486,#487);
#405=AXIS2_PLACEMENT_3D('',#596,#490,#491);
#406=AXIS2_PLACEMENT_3D('',#600,#494,#495);
#407=AXIS2_PLACEMENT_3D('',#604,#498,#499);
#408=AXIS2_PLACEMENT_3D('',#608,#502,#503);
#409=AXIS2_PLACEMENT_3D('',#610,#505,#506);
#410=DIRECTION('axis',(0.,0.,1.));
#411=DIRECTION('refdir',(1.,0.,0.));
#412=DIRECTION('center_axis',(1.61907524424502E-15,0.,-1.));
#413=DIRECTION('ref_axis',(1.,0.,1.61907524424502E-15));
#414=DIRECTION('center_axis',(-0.707106781186578,0.,-0.707106781186517));
#415=DIRECTION('ref_axis',(0.707106781186517,0.,-0.707106781186578));
#416=DIRECTION('center_axis',(0.707106781186577,0.,-0.707106781186518));
#417=DIRECTION('ref_axis',(0.707106781186518,0.,0.707106781186578));
#418=DIRECTION('center_axis',(-1.61907524424502E-15,0.,-1.));
#419=DIRECTION('ref_axis',(1.,0.,1.61907524424502E-15));
#420=DIRECTION('center_axis',(0.707106781186577,0.,-0.707106781186518));
#421=DIRECTION('ref_axis',(0.707106781186518,0.,0.707106781186578));
#422=DIRECTION('center_axis',(-0.707106781186578,0.,-0.707106781186517));
#423=DIRECTION('ref_axis',(0.707106781186517,0.,-0.707106781186578));
#424=DIRECTION('center_axis',(1.61907524424502E-15,0.,-1.));
#425=DIRECTION('ref_axis',(1.,0.,1.61907524424502E-15));
#426=DIRECTION('',(1.61907524424502E-15,0.,-1.));
#427=DIRECTION('center_axis',(0.,0.,1.));
#428=DIRECTION('ref_axis',(1.,0.,1.61907524424502E-15));
#429=DIRECTION('center_axis',(1.61907524424502E-15,0.,-1.));
#430=DIRECTION('ref_axis',(1.,0.,1.61907524424502E-15));
#431=DIRECTION('center_axis',(-1.61907524424502E-15,0.,1.));
#432=DIRECTION('ref_axis',(1.,0.,1.61907524424502E-15));
#433=DIRECTION('',(0.,1.,0.));
#434=DIRECTION('',(1.,0.,1.61907524424502E-15));
#435=DIRECTION('',(0.,1.,0.));
#436=DIRECTION('',(-1.,0.,-1.61907524424502E-15));
#437=DIRECTION('',(0.,1.,0.));
#438=DIRECTION('center_axis',(0.707106781186578,0.,0.707106781186517));
#439=DIRECTION('ref_axis',(0.707106781186517,0.,-0.707106781186578));
#440=DIRECTION('',(0.,1.,0.));
#441=DIRECTION('',(0.707106781186517,0.,-0.707106781186578));
#442=DIRECTION('center_axis',(-0.707106781186577,0.,0.707106781186518));
#443=DIRECTION('ref_axis',(0.707106781186518,0.,0.707106781186577));
#444=DIRECTION('',(0.,1.,0.));
#445=DIRECTION('',(0.707106781186518,0.,0.707106781186577));
#446=DIRECTION('center_axis',(0.,-1.,0.));
#447=DIRECTION('ref_axis',(0.,0.,-1.));
#448=DIRECTION('',(1.,0.,0.));
#449=DIRECTION('',(0.686623532963716,0.,0.727013152549817));
#450=DIRECTION('',(0.,0.,1.));
#451=DIRECTION('',(-1.,0.,3.96508223080413E-16));
#452=DIRECTION('',(0.,0.,1.));
#453=DIRECTION('',(-1.,0.,1.61907524424502E-15));
#454=DIRECTION('',(-0.707106781186518,0.,-0.707106781186577));
#455=DIRECTION('',(-0.707106781186517,0.,0.707106781186578));
#456=DIRECTION('',(0.,0.,-1.));
#457=DIRECTION('',(-1.,0.,0.));
#458=DIRECTION('',(0.,0.,-1.));
#459=DIRECTION('',(0.686623532963717,0.,-0.727013152549817));
#460=DIRECTION('center_axis',(0.727013152549817,0.,-0.686623532963716));
#461=DIRECTION('ref_axis',(-0.686623532963716,0.,-0.727013152549817));
#462=DIRECTION('',(0.,1.,0.));
#463=DIRECTION('',(-0.686623532963716,0.,-0.727013152549817));
#464=DIRECTION('',(0.,1.,0.));
#465=DIRECTION('center_axis',(1.,0.,0.));
#466=DIRECTION('ref_axis',(0.,0.,-1.));
#467=DIRECTION('',(0.,0.,-1.));
#468=DIRECTION('',(0.,1.,0.));
#469=DIRECTION('center_axis',(3.96508223080413E-16,0.,1.));
#470=DIRECTION('ref_axis',(1.,0.,-3.96508223080413E-16));
#471=DIRECTION('',(1.,0.,-3.96508223080413E-16));
#472=DIRECTION('',(0.,1.,0.));
#473=DIRECTION('center_axis',(1.,0.,0.));
#474=DIRECTION('ref_axis',(0.,0.,-1.));
#475=DIRECTION('',(0.,0.,-1.));
#476=DIRECTION('',(0.,1.,0.));
#477=DIRECTION('center_axis',(1.61907524424502E-15,0.,1.));
#478=DIRECTION('ref_axis',(1.,0.,-1.61907524424502E-15));
#479=DIRECTION('',(0.,1.,0.));
#480=DIRECTION('',(1.,0.,-1.61907524424502E-15));
#481=DIRECTION('center_axis',(-0.707106781186577,0.,0.707106781186518));
#482=DIRECTION('ref_axis',(0.707106781186518,0.,0.707106781186577));
#483=DIRECTION('',(0.,1.,0.));
#484=DIRECTION('center_axis',(0.707106781186578,0.,0.707106781186517));
#485=DIRECTION('ref_axis',(0.707106781186517,0.,-0.707106781186578));
#486=DIRECTION('center_axis',(-1.,0.,0.));
#487=DIRECTION('ref_axis',(0.,0.,1.));
#488=DIRECTION('',(0.,0.,1.));
#489=DIRECTION('',(0.,1.,0.));
#490=DIRECTION('center_axis',(0.,0.,1.));
#491=DIRECTION('ref_axis',(1.,0.,0.));
#492=DIRECTION('',(1.,0.,0.));
#493=DIRECTION('',(0.,1.,0.));
#494=DIRECTION('center_axis',(-1.,0.,0.));
#495=DIRECTION('ref_axis',(0.,0.,1.));
#496=DIRECTION('',(0.,0.,1.));
#497=DIRECTION('',(0.,1.,0.));
#498=DIRECTION('center_axis',(-0.727013152549817,0.,-0.686623532963717));
#499=DIRECTION('ref_axis',(-0.686623532963717,0.,0.727013152549817));
#500=DIRECTION('',(-0.686623532963717,0.,0.727013152549817));
#501=DIRECTION('',(0.,1.,0.));
#502=DIRECTION('center_axis',(0.,0.,-1.));
#503=DIRECTION('ref_axis',(-1.,0.,0.));
#504=DIRECTION('',(-1.,0.,0.));
#505=DIRECTION('center_axis',(0.,1.,0.));
#506=DIRECTION('ref_axis',(0.,0.,1.));
#507=CARTESIAN_POINT('',(0.,0.,0.));
#508=CARTESIAN_POINT('Origin',(-2.42861286636754E-15,0.,1.50000000000001));
#509=CARTESIAN_POINT('',(-3.46944695195361E-16,-2.5175,3.49999999999996));
#510=CARTESIAN_POINT('',(-0.5,-2.46734801963566,4.));
#511=CARTESIAN_POINT('Origin',(-5.66676335485752E-15,0.,3.49999999999997));
#512=CARTESIAN_POINT('',(0.5,-2.46734801963566,4.));
#513=CARTESIAN_POINT('Origin',(-5.6667633548575E-15,0.,3.49999999999996));
#514=CARTESIAN_POINT('',(0.5,2.46734801963566,4.));
#515=CARTESIAN_POINT('Origin',(-6.47630097698009E-15,0.,4.));
#516=CARTESIAN_POINT('',(-3.46944695195361E-16,2.5175,3.49999999999996));
#517=CARTESIAN_POINT('Origin',(-5.6667633548575E-15,0.,3.49999999999996));
#518=CARTESIAN_POINT('',(-0.5,2.46734801963566,4.));
#519=CARTESIAN_POINT('Origin',(-5.66676335485752E-15,0.,3.49999999999997));
#520=CARTESIAN_POINT('',(-2.51750000000001,3.08304831685346E-16,4.));
#521=CARTESIAN_POINT('Origin',(-6.47630097698009E-15,0.,4.));
#522=CARTESIAN_POINT('',(-2.5175,-3.08304831685346E-16,-1.04598043189815E-14));
#523=CARTESIAN_POINT('',(-2.5175,3.08304831685346E-16,1.5));
#524=CARTESIAN_POINT('Origin',(1.03537993810258E-29,0.,-6.38378239159465E-15));
#525=CARTESIAN_POINT('Origin',(-6.47630097698009E-15,0.,4.));
#526=CARTESIAN_POINT('Origin',(-2.9,0.,4.));
#527=CARTESIAN_POINT('',(-0.5,6.,4.));
#528=CARTESIAN_POINT('',(-0.5,0.,4.));
#529=CARTESIAN_POINT('',(-2.9,6.,4.));
#530=CARTESIAN_POINT('',(-2.9,6.,4.));
#531=CARTESIAN_POINT('',(-2.9,-6.,4.));
#532=CARTESIAN_POINT('',(-2.9,0.,4.));
#533=CARTESIAN_POINT('',(-0.5,-6.,4.));
#534=CARTESIAN_POINT('',(-2.9,-6.,4.));
#535=CARTESIAN_POINT('',(-0.5,0.,4.));
#536=CARTESIAN_POINT('Origin',(-0.5,0.,4.));
#537=CARTESIAN_POINT('',(-5.55111512312578E-16,6.,3.49999999999996));
#538=CARTESIAN_POINT('',(-3.46944695195361E-16,0.,3.49999999999996));
#539=CARTESIAN_POINT('',(-0.5,6.,4.));
#540=CARTESIAN_POINT('Origin',(-3.46944695195361E-16,0.,3.49999999999996));
#541=CARTESIAN_POINT('',(0.5,6.,4.));
#542=CARTESIAN_POINT('',(0.5,0.,4.));
#543=CARTESIAN_POINT('',(0.5,6.,4.));
#544=CARTESIAN_POINT('Origin',(0.,-6.,2.));
#545=CARTESIAN_POINT('',(-4.,-6.,0.));
#546=CARTESIAN_POINT('',(4.,-6.,1.12246949261663E-15));
#547=CARTESIAN_POINT('',(0.,-6.,0.));
#548=CARTESIAN_POINT('',(5.7,-6.,1.8));
#549=CARTESIAN_POINT('',(4.,-6.,1.12246949261663E-15));
#550=CARTESIAN_POINT('',(5.7,-6.,2.8));
#551=CARTESIAN_POINT('',(5.7,-6.,1.8));
#552=CARTESIAN_POINT('',(2.9,-6.,2.8));
#553=CARTESIAN_POINT('',(5.7,-6.,2.8));
#554=CARTESIAN_POINT('',(2.9,-6.,4.));
#555=CARTESIAN_POINT('',(2.9,-6.,2.8));
#556=CARTESIAN_POINT('',(0.5,-6.,4.));
#557=CARTESIAN_POINT('',(2.9,-6.,4.));
#558=CARTESIAN_POINT('',(-5.55111512312578E-16,-6.,3.49999999999996));
#559=CARTESIAN_POINT('',(0.5,-6.,4.));
#560=CARTESIAN_POINT('',(-0.5,-6.,4.));
#561=CARTESIAN_POINT('',(-2.9,-6.,2.8));
#562=CARTESIAN_POINT('',(-2.9,-6.,2.8));
#563=CARTESIAN_POINT('',(-5.7,-6.,2.8));
#564=CARTESIAN_POINT('',(-5.7,-6.,2.8));
#565=CARTESIAN_POINT('',(-5.7,-6.,1.8));
#566=CARTESIAN_POINT('',(-5.7,-6.,1.8));
#567=CARTESIAN_POINT('',(-4.,-6.,0.));
#568=CARTESIAN_POINT('Origin',(5.7,0.,1.8));
#569=CARTESIAN_POINT('',(4.,6.,1.12246949261663E-15));
#570=CARTESIAN_POINT('',(4.,0.,1.12246949261663E-15));
#571=CARTESIAN_POINT('',(5.7,6.,1.8));
#572=CARTESIAN_POINT('',(4.,6.,1.12246949261663E-15));
#573=CARTESIAN_POINT('',(5.7,0.,1.8));
#574=CARTESIAN_POINT('Origin',(5.7,0.,2.8));
#575=CARTESIAN_POINT('',(5.7,6.,2.8));
#576=CARTESIAN_POINT('',(5.7,6.,1.8));
#577=CARTESIAN_POINT('',(5.7,0.,2.8));
#578=CARTESIAN_POINT('Origin',(2.9,0.,2.8));
#579=CARTESIAN_POINT('',(2.9,6.,2.8));
#580=CARTESIAN_POINT('',(5.7,6.,2.8));
#581=CARTESIAN_POINT('',(2.9,0.,2.8));
#582=CARTESIAN_POINT('Origin',(2.9,0.,4.));
#583=CARTESIAN_POINT('',(2.9,6.,4.));
#584=CARTESIAN_POINT('',(2.9,6.,2.8));
#585=CARTESIAN_POINT('',(2.9,0.,4.));
#586=CARTESIAN_POINT('Origin',(0.5,0.,4.));
#587=CARTESIAN_POINT('',(0.5,0.,4.));
#588=CARTESIAN_POINT('',(2.9,6.,4.));
#589=CARTESIAN_POINT('Origin',(-3.46944695195361E-16,0.,3.49999999999996));
#590=CARTESIAN_POINT('',(-3.46944695195361E-16,0.,3.49999999999996));
#591=CARTESIAN_POINT('Origin',(-0.5,0.,4.));
#592=CARTESIAN_POINT('Origin',(-2.9,0.,2.8));
#593=CARTESIAN_POINT('',(-2.9,6.,2.8));
#594=CARTESIAN_POINT('',(-2.9,6.,2.8));
#595=CARTESIAN_POINT('',(-2.9,0.,2.8));
#596=CARTESIAN_POINT('Origin',(-5.7,0.,2.8));
#597=CARTESIAN_POINT('',(-5.7,6.,2.8));
#598=CARTESIAN_POINT('',(-5.7,6.,2.8));
#599=CARTESIAN_POINT('',(-5.7,0.,2.8));
#600=CARTESIAN_POINT('Origin',(-5.7,0.,1.8));
#601=CARTESIAN_POINT('',(-5.7,6.,1.8));
#602=CARTESIAN_POINT('',(-5.7,6.,1.8));
#603=CARTESIAN_POINT('',(-5.7,0.,1.8));
#604=CARTESIAN_POINT('Origin',(-4.,0.,0.));
#605=CARTESIAN_POINT('',(-4.,6.,0.));
#606=CARTESIAN_POINT('',(-4.,6.,0.));
#607=CARTESIAN_POINT('',(-4.,0.,0.));
#608=CARTESIAN_POINT('Origin',(4.,0.,0.));
#609=CARTESIAN_POINT('',(0.,6.,0.));
#610=CARTESIAN_POINT('Origin',(0.,6.,2.));
#611=UNCERTAINTY_MEASURE_WITH_UNIT(LENGTH_MEASURE(0.01),#615,
'DISTANCE_ACCURACY_VALUE',
'Maximum model space distance between geometric entities at asserted c
onnectivities');
#612=UNCERTAINTY_MEASURE_WITH_UNIT(LENGTH_MEASURE(0.01),#615,
'DISTANCE_ACCURACY_VALUE',
'Maximum model space distance between geometric entities at asserted c
onnectivities');
#613=(
GEOMETRIC_REPRESENTATION_CONTEXT(3)
GLOBAL_UNCERTAINTY_ASSIGNED_CONTEXT((#611))
GLOBAL_UNIT_ASSIGNED_CONTEXT((#615,#617,#618))
REPRESENTATION_CONTEXT('','3D')
);
#614=(
GEOMETRIC_REPRESENTATION_CONTEXT(3)
GLOBAL_UNCERTAINTY_ASSIGNED_CONTEXT((#612))
GLOBAL_UNIT_ASSIGNED_CONTEXT((#615,#617,#618))
REPRESENTATION_CONTEXT('','3D')
);
#615=(
LENGTH_UNIT()
NAMED_UNIT(*)
SI_UNIT(.MILLI.,.METRE.)
);
#616=(
LENGTH_UNIT()
NAMED_UNIT(*)
SI_UNIT($,.METRE.)
);
#617=(
NAMED_UNIT(*)
PLANE_ANGLE_UNIT()
SI_UNIT($,.RADIAN.)
);
#618=(
NAMED_UNIT(*)
SI_UNIT($,.STERADIAN.)
SOLID_ANGLE_UNIT()
);
#619=SHAPE_DEFINITION_REPRESENTATION(#620,#621);
#620=PRODUCT_DEFINITION_SHAPE('',$,#623);
#621=SHAPE_REPRESENTATION('',(#383),#613);
#622=PRODUCT_DEFINITION_CONTEXT('part definition',#627,'design');
#623=PRODUCT_DEFINITION('Klizna navrtka M6 T6',
'Klizna navrtka M6 T6 v1',#624,#622);
#624=PRODUCT_DEFINITION_FORMATION('',$,#629);
#625=PRODUCT_RELATED_PRODUCT_CATEGORY('Klizna navrtka M6 T6 v1',
'Klizna navrtka M6 T6 v1',(#629));
#626=APPLICATION_PROTOCOL_DEFINITION('international standard',
'automotive_design',2009,#627);
#627=APPLICATION_CONTEXT(
'Core Data for Automotive Mechanical Design Process');
#628=PRODUCT_CONTEXT('part definition',#627,'mechanical');
#629=PRODUCT('Klizna navrtka M6 T6','Klizna navrtka M6 T6 v1',$,(#628));
#630=PRESENTATION_STYLE_ASSIGNMENT((#631));
#631=SURFACE_STYLE_USAGE(.BOTH.,#632);
#632=SURFACE_SIDE_STYLE('',(#633));
#633=SURFACE_STYLE_FILL_AREA(#634);
#634=FILL_AREA_STYLE('Aluminum - Satin',(#635));
#635=FILL_AREA_STYLE_COLOUR('Aluminum - Satin',#636);
#636=COLOUR_RGB('Aluminum - Satin',0.96078431372549,0.96078431372549,0.964705882352941);
ENDSEC;
END-ISO-10303-21;
