ISO-10303-21;
HEADER;
FILE_DESCRIPTION (( 'STEP AP203' ),
    '1' );
FILE_NAME ('ALP0652.STEP',
    '2017-02-02T12:58:39',
    ( '' ),
    ( '' ),
    'SwSTEP 2.0',
    'SolidWorks 2012',
    '' );
FILE_SCHEMA (( 'CONFIG_CONTROL_DESIGN' ));
ENDSEC;

DATA;
#1 = DESIGN_CONTEXT ( 'detailed design', #100, 'design' ) ;
#2 = PRODUCT_DEFINITION_SHAPE ( 'NONE', 'NONE',  #754 ) ;
#3 = DIRECTION ( 'NONE',  ( -0.7071067811865396900, 0.7071067811865553400, 0.0000000000000000000 ) ) ;
#4 = CARTESIAN_POINT ( 'NONE',  ( 1.224646799147351300E-015, 0.5000000000000111000, 22.00000000000000000 ) ) ;
#5 = DIRECTION ( 'NONE',  ( 0.7071067811865390200, -0.7071067811865561200, 0.0000000000000000000 ) ) ;
#6 = DIRECTION ( 'NONE',  ( 0.0000000000000000000, 1.000000000000000000, 0.0000000000000000000 ) ) ;
#7 = CARTESIAN_POINT ( 'NONE',  ( 4.900000000000000400, 0.0000000000000000000, 22.00000000000000000 ) ) ;
#8 = DIRECTION ( 'NONE',  ( 0.7071067811865390200, -0.7071067811865561200, 0.0000000000000000000 ) ) ;
#9 = CARTESIAN_POINT ( 'NONE',  ( 1.224646799147351300E-015, 0.5000000000000111000, -22.00000000000000000 ) ) ;
#10 = CARTESIAN_POINT ( 'NONE',  ( -0.3302917213469110400, 0.1697082786530925400, -15.84403664077161400 ) ) ;
#11 = CARTESIAN_POINT ( 'NONE',  ( 1.224646799147351300E-015, 0.5000000000000111000, 22.00000000000000000 ) ) ;
#12 = CARTESIAN_POINT ( 'NONE',  ( -0.4999999999999996700, 0.0000000000000000000, -15.99382335613382200 ) ) ;
#13 = CARTESIAN_POINT ( 'NONE',  ( -0.5000000000000002200, 0.0000000000000000000, -8.006176643866181700 ) ) ;
#14 = DIRECTION ( 'NONE',  ( -0.0000000000000000000, -1.000000000000000000, -0.0000000000000000000 ) ) ;
#15 = DIRECTION ( 'NONE',  ( -0.0000000000000000000, -0.0000000000000000000, -1.000000000000000000 ) ) ;
#16 = CARTESIAN_POINT ( 'NONE',  ( 1.224646799147351300E-015, 10.49999999999999800, -12.00000000000000000 ) ) ;
#17 = CARTESIAN_POINT ( 'NONE',  ( 2.222186386012700800E-015, 0.5000000000000101000, -15.52499999999999000 ) ) ;
#18 = DIRECTION ( 'NONE',  ( -0.0000000000000000000, -0.0000000000000000000, -1.000000000000000000 ) ) ;
#19 = DIRECTION ( 'NONE',  ( -0.0000000000000000000, -1.000000000000000000, -0.0000000000000000000 ) ) ;
#20 = DIRECTION ( 'NONE',  ( -0.0000000000000000000, -1.000000000000000000, -0.0000000000000000000 ) ) ;
#21 = CARTESIAN_POINT ( 'NONE',  ( -0.5000000000000001100, 0.0000000000000000000, 22.00000000000000000 ) ) ;
#22 = CARTESIAN_POINT ( 'NONE',  ( 1.224646799147351300E-015, 0.0000000000000000000, 8.600000000000001400 ) ) ;
#23 = CARTESIAN_POINT ( 'NONE',  ( -0.3302917213469115400, 0.1697082786530919600, -8.155963359228387300 ) ) ;
#24 = CARTESIAN_POINT ( 'NONE',  ( 0.1633496420033398200, 0.3366503579966684800, -8.311650357996663600 ) ) ;
#25 = CARTESIAN_POINT ( 'NONE',  ( 0.5000000000000001100, 0.0000000000000000000, -8.006176643866183400 ) ) ;
#26 = CARTESIAN_POINT ( 'NONE',  ( 1.717567135804161000E-015, 0.0000000000000000000, 16.02500000000000200 ) ) ;
#27 = CARTESIAN_POINT ( 'NONE',  ( 1.224646799147351300E-015, 0.0000000000000000000, -12.00000000000000000 ) ) ;
#28 = DIRECTION ( 'NONE',  ( -0.0000000000000000000, -1.000000000000000000, -0.0000000000000000000 ) ) ;
#29 = DIRECTION ( 'NONE',  ( 0.0000000000000000000, 0.0000000000000000000, -1.000000000000000000 ) ) ;
#30 = CARTESIAN_POINT ( 'NONE',  ( -0.1633496420033387400, 0.3366503579966679800, -15.68834964200333600 ) ) ;
#31 = CARTESIAN_POINT ( 'NONE',  ( 1.641026710857451300E-015, 0.0000000000000000000, 15.39999999999999900 ) ) ;
#32 = CARTESIAN_POINT ( 'NONE',  ( 1.224646799147351300E-015, 0.0000000000000000000, -12.00000000000000000 ) ) ;
#33 = DIRECTION ( 'NONE',  ( 0.0000000000000000000, 0.0000000000000000000, -1.000000000000000000 ) ) ;
#34 = DIRECTION ( 'NONE',  ( 0.0000000000000000000, 0.0000000000000000000, -1.000000000000000000 ) ) ;
#35 = CARTESIAN_POINT ( 'NONE',  ( -1.031795611633453200E-016, 0.5000000000000123200, -8.475000000000012100 ) ) ;
#36 = CARTESIAN_POINT ( 'NONE',  ( 0.3302917213469109800, 0.1697082786530932100, -8.155963359228387300 ) ) ;
#37 = CARTESIAN_POINT ( 'NONE',  ( -0.5000000000000002200, 0.0000000000000000000, -8.006176643866181700 ) ) ;
#38 = CARTESIAN_POINT ( 'NONE',  ( 0.5000000000000001100, 0.0000000000000000000, -15.99382335613382200 ) ) ;
#39 = CARTESIAN_POINT ( 'NONE',  ( 1.224646799147351300E-015, 0.5000000000000111000, -22.00000000000000000 ) ) ;
#40 = CARTESIAN_POINT ( 'NONE',  ( 2.222186386012700800E-015, 0.5000000000000101000, -15.52499999999999000 ) ) ;
#41 = CARTESIAN_POINT ( 'NONE',  ( 1.224646799147351300E-015, 0.6250000000000005600, -15.39999999999999900 ) ) ;
#42 = CARTESIAN_POINT ( 'NONE',  ( 1.641026710857451300E-015, 10.49999999999999800, -8.600000000000003200 ) ) ;
#43 = DIRECTION ( 'NONE',  ( -0.0000000000000000000, -0.0000000000000000000, -1.000000000000000000 ) ) ;
#44 = CARTESIAN_POINT ( 'NONE',  ( -0.1633496420033387100, 0.3366503579966679800, -8.311650357996663600 ) ) ;
#45 = CARTESIAN_POINT ( 'NONE',  ( -0.5000000000000002200, 0.0000000000000000000, 8.006176643866181700 ) ) ;
#46 = DIRECTION ( 'NONE',  ( -0.0000000000000000000, -1.000000000000000000, -0.0000000000000000000 ) ) ;
#47 = DIRECTION ( 'NONE',  ( 0.0000000000000000000, 0.0000000000000000000, -1.000000000000000000 ) ) ;
#48 = CARTESIAN_POINT ( 'NONE',  ( -0.3302917213469113700, 0.1697082786530921300, 8.155963359228387300 ) ) ;
#49 = CARTESIAN_POINT ( 'NONE',  ( -0.3302917213469109300, 0.1697082786530926000, 15.84403664077161400 ) ) ;
#50 = CARTESIAN_POINT ( 'NONE',  ( -0.1633496420033386500, 0.3366503579966680400, 15.68834964200333600 ) ) ;
#51 = CARTESIAN_POINT ( 'NONE',  ( 1.224646799147351300E-015, 0.0000000000000000000, 7.974999999999999600 ) ) ;
#52 = CARTESIAN_POINT ( 'NONE',  ( 1.224646799147351300E-015, 0.0000000000000000000, -16.02500000000000200 ) ) ;
#53 = CARTESIAN_POINT ( 'NONE',  ( 1.224646799147351300E-015, 0.5000000000000111000, 22.00000000000000000 ) ) ;
#54 = DIRECTION ( 'NONE',  ( 0.0000000000000000000, -0.7071067811865468000, -0.7071067811865483500 ) ) ;
#55 = DIRECTION ( 'NONE',  ( -0.0000000000000000000, -1.000000000000000000, -0.0000000000000000000 ) ) ;
#56 = CARTESIAN_POINT ( 'NONE',  ( 1.224646799147351300E-015, 10.49999999999999800, 12.00000000000000000 ) ) ;
#57 = CARTESIAN_POINT ( 'NONE',  ( 1.224646799147351300E-015, 10.49999999999999800, 8.600000000000003200 ) ) ;
#58 = DIRECTION ( 'NONE',  ( -0.0000000000000000000, -1.000000000000000000, -0.0000000000000000000 ) ) ;
#59 = CARTESIAN_POINT ( 'NONE',  ( -1.031795611633453200E-016, 0.5000000000000123200, -8.475000000000012100 ) ) ;
#60 = DIRECTION ( 'NONE',  ( -0.0000000000000000000, -0.0000000000000000000, -1.000000000000000000 ) ) ;
#61 = CARTESIAN_POINT ( 'NONE',  ( 0.5000000000000001100, 0.0000000000000000000, -15.99382335613382200 ) ) ;
#62 = CARTESIAN_POINT ( 'NONE',  ( 1.051486626324335600E-015, 0.5000000000000113200, 15.52499999999998800 ) ) ;
#63 = CARTESIAN_POINT ( 'NONE',  ( 2.222186386012700800E-015, 0.5000000000000101000, -15.52499999999999000 ) ) ;
#64 = DIRECTION ( 'NONE',  ( 0.0000000000000000000, -0.7071067811865468000, -0.7071067811865483500 ) ) ;
#65 = DIRECTION ( 'NONE',  ( 8.659560562354942700E-017, -0.7071067811865468000, 0.7071067811865483500 ) ) ;
#66 = CARTESIAN_POINT ( 'NONE',  ( 1.224646799147351300E-015, 0.6250000000000005600, 8.600000000000001400 ) ) ;
#67 = CARTESIAN_POINT ( 'NONE',  ( 1.224646799147351300E-015, 0.6250000000000005600, 12.00000000000000000 ) ) ;
#68 = CARTESIAN_POINT ( 'NONE',  ( 0.5000000000000001100, 0.0000000000000000000, 22.00000000000000000 ) ) ;
#69 = CARTESIAN_POINT ( 'NONE',  ( 0.1633496420033413400, 0.3366503579966668700, -15.68834964200333600 ) ) ;
#70 = CARTESIAN_POINT ( 'NONE',  ( -0.5000000000000002200, 0.0000000000000000000, 15.99382335613382200 ) ) ;
#71 = DIRECTION ( 'NONE',  ( 0.0000000000000000000, 0.0000000000000000000, -1.000000000000000000 ) ) ;
#72 = CARTESIAN_POINT ( 'NONE',  ( 1.052550490452003900E-015, 0.5000000000000113200, 8.475000000000012100 ) ) ;
#73 = CARTESIAN_POINT ( 'NONE',  ( -0.1633496420033386200, 0.3366503579966680400, 8.311650357996663600 ) ) ;
#74 = DIRECTION ( 'NONE',  ( -0.0000000000000000000, -0.0000000000000000000, -1.000000000000000000 ) ) ;
#75 = CARTESIAN_POINT ( 'NONE',  ( 0.3302917213469119300, 0.1697082786530924300, -15.84403664077161400 ) ) ;
#76 = CARTESIAN_POINT ( 'NONE',  ( 1.679296923330806100E-015, 0.6250000000000005600, 15.40000000000000000 ) ) ;
#77 = CARTESIAN_POINT ( 'NONE',  ( 1.051486626324335600E-015, 0.5000000000000113200, 15.52499999999998800 ) ) ;
#78 = CARTESIAN_POINT ( 'NONE',  ( -0.5000000000000001100, 0.0000000000000000000, -22.00000000000000000 ) ) ;
#79 = CARTESIAN_POINT ( 'NONE',  ( -0.5000000000000002200, 0.0000000000000000000, 8.006176643866181700 ) ) ;
#80 = CARTESIAN_POINT ( 'NONE',  ( 1.052550490452003900E-015, 0.5000000000000113200, 8.475000000000012100 ) ) ;
#81 = CARTESIAN_POINT ( 'NONE',  ( -0.5000000000000001100, 0.0000000000000000000, 22.00000000000000000 ) ) ;
#82 = CARTESIAN_POINT ( 'NONE',  ( -0.5000000000000002200, 0.0000000000000000000, 15.99382335613382200 ) ) ;
#83 =( NAMED_UNIT ( * ) SI_UNIT ( $, .STERADIAN. ) SOLID_ANGLE_UNIT ( ) );
#84 = SECURITY_CLASSIFICATION_LEVEL ( 'unclassified' ) ;
#85 = PERSON_AND_ORGANIZATION_ROLE ( 'creator' ) ;
#86 = PERSON_AND_ORGANIZATION_ROLE ( 'design_supplier' ) ;
#87 = APPLICATION_PROTOCOL_DEFINITION ( 'international standard', 'config_control_design', 1994, #100 ) ;
#88 = CARTESIAN_POINT ( 'NONE',  ( -0.4999999999999996700, 0.0000000000000000000, -15.99382335613382200 ) ) ;
#89 = CARTESIAN_POINT ( 'NONE',  ( 1.224646799147351300E-015, 10.49999999999999800, -15.39999999999999700 ) ) ;
#90 = APPROVAL_ROLE ( '' ) ;
#91 =( LENGTH_UNIT ( ) NAMED_UNIT ( * ) SI_UNIT ( .MILLI., .METRE. ) );
#92 = MECHANICAL_CONTEXT ( 'NONE', #106, 'mechanical' ) ;
#93 = PERSON_AND_ORGANIZATION_ROLE ( 'classification_officer' ) ;
#94 = APPROVAL_STATUS ( 'not_yet_approved' ) ;
#95 = APPROVAL_STATUS ( 'not_yet_approved' ) ;
#96 = DATE_TIME_ROLE ( 'creation_date' ) ;
#97 = APPROVAL_STATUS ( 'not_yet_approved' ) ;
#98 = APPROVAL_ROLE ( '' ) ;
#99 =( NAMED_UNIT ( * ) PLANE_ANGLE_UNIT ( ) SI_UNIT ( $, .RADIAN. ) );
#100 = APPLICATION_CONTEXT ( 'configuration controlled 3d designs of mechanical parts and assemblies' ) ;
#101 = DIRECTION ( 'NONE',  ( 1.000000000000000000, 0.0000000000000000000, 0.0000000000000000000 ) ) ;
#102 = CARTESIAN_POINT ( 'NONE',  ( 1.641026710857451300E-015, 10.49999999999999800, 15.39999999999999700 ) ) ;
#103 = PERSON_AND_ORGANIZATION_ROLE ( 'design_owner' ) ;
#104 = DIRECTION ( 'NONE',  ( 0.0000000000000000000, 0.0000000000000000000, 1.000000000000000000 ) ) ;
#105 = APPROVAL_ROLE ( '' ) ;
#106 = APPLICATION_CONTEXT ( 'configuration controlled 3d designs of mechanical parts and assemblies' ) ;
#107 = APPLICATION_PROTOCOL_DEFINITION ( 'international standard', 'config_control_design', 1994, #106 ) ;
#108 = PERSON_AND_ORGANIZATION_ROLE ( 'creator' ) ;
#109 = DATE_TIME_ROLE ( 'classification_date' ) ;
#110 = CARTESIAN_POINT ( 'NONE',  ( -1.031795611633453200E-016, 0.5000000000000123200, -8.475000000000012100 ) ) ;
#111 = CARTESIAN_POINT ( 'NONE',  ( 0.0000000000000000000, 0.0000000000000000000, 0.0000000000000000000 ) ) ;
#112 = CARTESIAN_POINT ( 'NONE',  ( 0.5000000000000001100, 0.0000000000000000000, -8.006176643866183400 ) ) ;
#113 = CARTESIAN_POINT ( 'NONE',  ( 6.800000000000068200, 10.49999999999999800, 22.00000000000000000 ) ) ;
#114 = CARTESIAN_POINT ( 'NONE',  ( -4.900000000000000400, 5.000000000000000000, 22.00000000000000000 ) ) ;
#115 = CARTESIAN_POINT ( 'NONE',  ( 4.900000000000000400, 0.0000000000000000000, -22.00000000000000000 ) ) ;
#116 = CARTESIAN_POINT ( 'NONE',  ( 1.679296923330806100E-015, 0.6250000000000005600, -8.599999999999999600 ) ) ;
#117 = CARTESIAN_POINT ( 'NONE',  ( -6.800000000000070000, 10.49999999999999800, -22.00000000000000000 ) ) ;
#118 = CARTESIAN_POINT ( 'NONE',  ( 9.800000000000000700, 7.500000000000000000, 22.00000000000000000 ) ) ;
#119 = CARTESIAN_POINT ( 'NONE',  ( 4.900000000000000400, 5.000000000000000000, 22.00000000000000000 ) ) ;
#120 = CARTESIAN_POINT ( 'NONE',  ( 9.800000000000000700, 5.000000000000000000, -22.00000000000000000 ) ) ;
#121 = CARTESIAN_POINT ( 'NONE',  ( -4.900000000000000400, 5.000000000000000000, -22.00000000000000000 ) ) ;
#122 = DIRECTION ( 'NONE',  ( -0.0000000000000000000, -0.0000000000000000000, -1.000000000000000000 ) ) ;
#123 = CARTESIAN_POINT ( 'NONE',  ( 4.900000000000000400, 5.000000000000000000, -22.00000000000000000 ) ) ;
#124 = CARTESIAN_POINT ( 'NONE',  ( 0.5000000000000001100, 0.0000000000000000000, -22.00000000000000000 ) ) ;
#125 = CARTESIAN_POINT ( 'NONE',  ( -4.900000000000000400, 0.0000000000000000000, 22.00000000000000000 ) ) ;
#126 = CARTESIAN_POINT ( 'NONE',  ( 9.800000000000000700, 7.500000000000000000, -22.00000000000000000 ) ) ;
#127 = CARTESIAN_POINT ( 'NONE',  ( -9.800000000000000700, 5.000000000000000000, -22.00000000000000000 ) ) ;
#128 = CARTESIAN_POINT ( 'NONE',  ( 1.224646799147351300E-015, 0.5000000000000111000, 22.00000000000000000 ) ) ;
#129 = CARTESIAN_POINT ( 'NONE',  ( -9.800000000000000700, 5.000000000000000000, 22.00000000000000000 ) ) ;
#130 = CARTESIAN_POINT ( 'NONE',  ( 0.5000000000000001100, 0.0000000000000000000, 22.00000000000000000 ) ) ;
#131 = CARTESIAN_POINT ( 'NONE',  ( 0.5000000000000001100, 0.0000000000000000000, 15.99382335613382200 ) ) ;
#132 = CARTESIAN_POINT ( 'NONE',  ( -9.800000000000000700, 7.500000000000000000, 22.00000000000000000 ) ) ;
#133 = CARTESIAN_POINT ( 'NONE',  ( 6.800000000000068200, 10.49999999999999800, -22.00000000000000000 ) ) ;
#134 = CARTESIAN_POINT ( 'NONE',  ( -0.5000000000000001100, 0.0000000000000000000, 22.00000000000000000 ) ) ;
#135 = CARTESIAN_POINT ( 'NONE',  ( 9.800000000000000700, 5.000000000000000000, 22.00000000000000000 ) ) ;
#136 = CARTESIAN_POINT ( 'NONE',  ( 1.224646799147351300E-015, 0.5000000000000111000, 22.00000000000000000 ) ) ;
#137 = CARTESIAN_POINT ( 'NONE',  ( -6.800000000000070000, 10.49999999999999800, 22.00000000000000000 ) ) ;
#138 = CARTESIAN_POINT ( 'NONE',  ( 4.900000000000000400, 0.0000000000000000000, 22.00000000000000000 ) ) ;
#139 = CARTESIAN_POINT ( 'NONE',  ( -9.800000000000000700, 7.500000000000000000, -22.00000000000000000 ) ) ;
#140 = CARTESIAN_POINT ( 'NONE',  ( -4.900000000000000400, 0.0000000000000000000, -22.00000000000000000 ) ) ;
#141 = CARTESIAN_POINT ( 'NONE',  ( 0.5000000000000001100, 0.0000000000000000000, 8.006176643866179900 ) ) ;
#142 = CARTESIAN_POINT ( 'NONE',  ( 1.224646799147351300E-015, 0.5000000000000111000, 22.00000000000000000 ) ) ;
#143 = DIRECTION ( 'NONE',  ( 1.000000000000000000, 0.0000000000000000000, 0.0000000000000000000 ) ) ;
#144 = CARTESIAN_POINT ( 'NONE',  ( 1.224646799147351300E-015, 0.5000000000000111000, -22.00000000000000000 ) ) ;
#145 = CARTESIAN_POINT ( 'NONE',  ( 6.800000000000068200, 10.49999999999999800, 22.00000000000000000 ) ) ;
#146 = CARTESIAN_POINT ( 'NONE',  ( 6.800000000000068200, 10.49999999999999800, -22.00000000000000000 ) ) ;
#147 = DIRECTION ( 'NONE',  ( -0.0000000000000000000, -1.000000000000000000, -0.0000000000000000000 ) ) ;
#148 = CARTESIAN_POINT ( 'NONE',  ( 1.224646799147351300E-015, 0.0000000000000000000, 12.00000000000000000 ) ) ;
#149 = CARTESIAN_POINT ( 'NONE',  ( 0.5000000000000001100, 0.0000000000000000000, -22.00000000000000000 ) ) ;
#150 = CARTESIAN_POINT ( 'NONE',  ( 9.800000000000000700, 5.000000000000000000, 22.00000000000000000 ) ) ;
#151 = DIRECTION ( 'NONE',  ( -0.7071067811865394700, -0.7071067811865555700, -0.0000000000000000000 ) ) ;
#152 = DIRECTION ( 'NONE',  ( -1.000000000000000000, 0.0000000000000000000, 0.0000000000000000000 ) ) ;
#153 = DIRECTION ( 'NONE',  ( -1.000000000000000000, 0.0000000000000000000, 0.0000000000000000000 ) ) ;
#154 = CARTESIAN_POINT ( 'NONE',  ( -9.800000000000000700, 7.500000000000000000, -22.00000000000000000 ) ) ;
#155 = CARTESIAN_POINT ( 'NONE',  ( -9.800000000000000700, 7.500000000000000000, 22.00000000000000000 ) ) ;
#156 = DIRECTION ( 'NONE',  ( 0.7071067811865406900, 0.7071067811865544600, -0.0000000000000000000 ) ) ;
#157 = CARTESIAN_POINT ( 'NONE',  ( -9.800000000000000700, 7.500000000000000000, 22.00000000000000000 ) ) ;
#158 = DIRECTION ( 'NONE',  ( -0.7071067811865394700, -0.7071067811865555700, -0.0000000000000000000 ) ) ;
#159 = CARTESIAN_POINT ( 'NONE',  ( 1.224646799147351300E-015, 0.0000000000000000000, 12.00000000000000000 ) ) ;
#160 = DIRECTION ( 'NONE',  ( 0.7071067811865406900, 0.7071067811865544600, -0.0000000000000000000 ) ) ;
#161 = DIRECTION ( 'NONE',  ( -0.0000000000000000000, -0.0000000000000000000, -1.000000000000000000 ) ) ;
#162 = DIRECTION ( 'NONE',  ( -0.0000000000000000000, -0.0000000000000000000, -1.000000000000000000 ) ) ;
#163 = CARTESIAN_POINT ( 'NONE',  ( -6.800000000000070000, 10.49999999999999800, 22.00000000000000000 ) ) ;
#164 = DIRECTION ( 'NONE',  ( -0.0000000000000000000, -0.0000000000000000000, -1.000000000000000000 ) ) ;
#165 = CARTESIAN_POINT ( 'NONE',  ( 6.800000000000068200, 10.49999999999999800, 22.00000000000000000 ) ) ;
#166 = DIRECTION ( 'NONE',  ( 0.0000000000000000000, 0.0000000000000000000, -1.000000000000000000 ) ) ;
#167 = DIRECTION ( 'NONE',  ( 0.0000000000000000000, 0.0000000000000000000, -1.000000000000000000 ) ) ;
#168 = DIRECTION ( 'NONE',  ( -0.0000000000000000000, -1.000000000000000000, -0.0000000000000000000 ) ) ;
#169 = DIRECTION ( 'NONE',  ( 0.0000000000000000000, 0.0000000000000000000, 1.000000000000000000 ) ) ;
#170 = DIRECTION ( 'NONE',  ( 0.0000000000000000000, 0.0000000000000000000, 1.000000000000000000 ) ) ;
#171 = DIRECTION ( 'NONE',  ( 0.0000000000000000000, 0.0000000000000000000, -1.000000000000000000 ) ) ;
#172 = DIRECTION ( 'NONE',  ( -1.000000000000000000, 0.0000000000000000000, 0.0000000000000000000 ) ) ;
#173 = CARTESIAN_POINT ( 'NONE',  ( 1.224646799147351300E-015, 0.0000000000000000000, -12.00000000000000000 ) ) ;
#174 = CARTESIAN_POINT ( 'NONE',  ( 1.224646799147351300E-015, 0.0000000000000000000, -12.00000000000000000 ) ) ;
#175 = DIRECTION ( 'NONE',  ( -0.0000000000000000000, -1.000000000000000000, -0.0000000000000000000 ) ) ;
#176 = DIRECTION ( 'NONE',  ( 0.0000000000000000000, 0.0000000000000000000, -1.000000000000000000 ) ) ;
#177 = PLANE ( 'NONE',  #741 ) ;
#178 = PLANE ( 'NONE',  #580 ) ;
#179 = DIRECTION ( 'NONE',  ( 0.0000000000000000000, 0.0000000000000000000, -1.000000000000000000 ) ) ;
#180 = CARTESIAN_POINT ( 'NONE',  ( 1.224646799147351300E-015, 10.49999999999999800, 12.00000000000000000 ) ) ;
#181 = DIRECTION ( 'NONE',  ( -1.000000000000000000, 0.0000000000000000000, 0.0000000000000000000 ) ) ;
#182 = DIRECTION ( 'NONE',  ( 0.0000000000000000000, 0.0000000000000000000, -1.000000000000000000 ) ) ;
#183 = CARTESIAN_POINT ( 'NONE',  ( 4.900000000000000400, 0.0000000000000000000, 22.00000000000000000 ) ) ;
#184 = DIRECTION ( 'NONE',  ( -0.7071067811865552300, -0.7071067811865398000, 0.0000000000000000000 ) ) ;
#185 = PLANE ( 'NONE',  #772 ) ;
#186 = CARTESIAN_POINT ( 'NONE',  ( 1.224646799147351300E-015, 0.5000000000000111000, 22.00000000000000000 ) ) ;
#187 = DIRECTION ( 'NONE',  ( -0.7071067811865389100, 0.7071067811865561200, 0.0000000000000000000 ) ) ;
#188 = CARTESIAN_POINT ( 'NONE',  ( 9.800000000000000700, 5.000000000000000000, 22.00000000000000000 ) ) ;
#189 = CARTESIAN_POINT ( 'NONE',  ( 4.900000000000000400, 5.000000000000000000, 22.00000000000000000 ) ) ;
#190 = DIRECTION ( 'NONE',  ( -0.0000000000000000000, -1.000000000000000000, -0.0000000000000000000 ) ) ;
#191 = CARTESIAN_POINT ( 'NONE',  ( 9.800000000000000700, 7.500000000000000000, 22.00000000000000000 ) ) ;
#192 = CARTESIAN_POINT ( 'NONE',  ( 1.224646799147351300E-015, 0.0000000000000000000, 12.00000000000000000 ) ) ;
#193 = PLANE ( 'NONE',  #735 ) ;
#194 = DIRECTION ( 'NONE',  ( 0.7071067811865561200, 0.7071067811865389100, -0.0000000000000000000 ) ) ;
#195 = DIRECTION ( 'NONE',  ( 0.0000000000000000000, 1.000000000000000000, 0.0000000000000000000 ) ) ;
#196 = DIRECTION ( 'NONE',  ( -0.7071067811865406900, -0.7071067811865543500, 0.0000000000000000000 ) ) ;
#197 = DIRECTION ( 'NONE',  ( -0.7071067811865389100, 0.7071067811865561200, 0.0000000000000000000 ) ) ;
#198 = DIRECTION ( 'NONE',  ( 0.0000000000000000000, -0.0000000000000000000, 1.000000000000000000 ) ) ;
#199 = DIRECTION ( 'NONE',  ( 0.0000000000000000000, 0.0000000000000000000, -1.000000000000000000 ) ) ;
#200 = PLANE ( 'NONE',  #744 ) ;
#201 = CARTESIAN_POINT ( 'NONE',  ( 1.224646799147351300E-015, 0.5000000000000111000, 22.00000000000000000 ) ) ;
#202 = DIRECTION ( 'NONE',  ( -0.7071067811865543500, 0.7071067811865406900, 0.0000000000000000000 ) ) ;
#203 = PLANE ( 'NONE',  #740 ) ;
#204 = PLANE ( 'NONE',  #766 ) ;
#205 = DIRECTION ( 'NONE',  ( -0.0000000000000000000, -1.000000000000000000, -0.0000000000000000000 ) ) ;
#206 = DIRECTION ( 'NONE',  ( 0.0000000000000000000, 1.000000000000000000, 0.0000000000000000000 ) ) ;
#207 = DIRECTION ( 'NONE',  ( -0.0000000000000000000, -1.000000000000000000, -0.0000000000000000000 ) ) ;
#208 = CARTESIAN_POINT ( 'NONE',  ( 1.224646799147351300E-015, 0.0000000000000000000, -12.00000000000000000 ) ) ;
#209 = DIRECTION ( 'NONE',  ( -0.0000000000000000000, -1.000000000000000000, -0.0000000000000000000 ) ) ;
#210 = PLANE ( 'NONE',  #771 ) ;
#211 = DIRECTION ( 'NONE',  ( 0.7071067811865398000, -0.7071067811865552300, 0.0000000000000000000 ) ) ;
#212 = CARTESIAN_POINT ( 'NONE',  ( 0.5000000000000001100, 0.0000000000000000000, 22.00000000000000000 ) ) ;
#213 = DIRECTION ( 'NONE',  ( -0.0000000000000000000, -0.0000000000000000000, -1.000000000000000000 ) ) ;
#214 = CARTESIAN_POINT ( 'NONE',  ( 1.224646799147351300E-015, 0.5000000000000111000, 22.00000000000000000 ) ) ;
#215 = DIRECTION ( 'NONE',  ( 0.7071067811865561200, 0.7071067811865389100, -0.0000000000000000000 ) ) ;
#216 = DIRECTION ( 'NONE',  ( 0.0000000000000000000, -0.0000000000000000000, 1.000000000000000000 ) ) ;
#217 = DIRECTION ( 'NONE',  ( 0.0000000000000000000, 0.0000000000000000000, -1.000000000000000000 ) ) ;
#218 = PLANE ( 'NONE',  #763 ) ;
#219 = CARTESIAN_POINT ( 'NONE',  ( 0.0000000000000000000, 0.0000000000000000000, 22.00000000000000000 ) ) ;
#220 = DIRECTION ( 'NONE',  ( 0.0000000000000000000, 0.0000000000000000000, -1.000000000000000000 ) ) ;
#221 = DIRECTION ( 'NONE',  ( -1.000000000000000000, 0.0000000000000000000, 0.0000000000000000000 ) ) ;
#222 = PLANE ( 'NONE',  #765 ) ;
#223 = PLANE ( 'NONE',  #739 ) ;
#224 = DIRECTION ( 'NONE',  ( 0.7071067811865556800, -0.7071067811865394700, 0.0000000000000000000 ) ) ;
#225 = CARTESIAN_POINT ( 'NONE',  ( -4.900000000000000400, 0.0000000000000000000, 22.00000000000000000 ) ) ;
#226 = CARTESIAN_POINT ( 'NONE',  ( -9.800000000000000700, 5.000000000000000000, 22.00000000000000000 ) ) ;
#227 = PLANE ( 'NONE',  #775 ) ;
#228 = DIRECTION ( 'NONE',  ( 0.0000000000000000000, 0.0000000000000000000, -1.000000000000000000 ) ) ;
#229 = DIRECTION ( 'NONE',  ( 1.000000000000000000, 0.0000000000000000000, 0.0000000000000000000 ) ) ;
#230 = DIRECTION ( 'NONE',  ( 0.0000000000000000000, 0.0000000000000000000, 1.000000000000000000 ) ) ;
#231 = DIRECTION ( 'NONE',  ( -0.7071067811865406900, -0.7071067811865543500, 0.0000000000000000000 ) ) ;
#232 = DIRECTION ( 'NONE',  ( -0.7071067811865406900, -0.7071067811865543500, 0.0000000000000000000 ) ) ;
#233 = PLANE ( 'NONE',  #777 ) ;
#234 = CARTESIAN_POINT ( 'NONE',  ( 1.224646799147351300E-015, 0.0000000000000000000, 12.00000000000000000 ) ) ;
#235 = CARTESIAN_POINT ( 'NONE',  ( -4.900000000000000400, 5.000000000000000000, 22.00000000000000000 ) ) ;
#236 = DIRECTION ( 'NONE',  ( 0.0000000000000000000, 0.0000000000000000000, -1.000000000000000000 ) ) ;
#237 = CARTESIAN_POINT ( 'NONE',  ( 1.224646799147351300E-015, 0.0000000000000000000, 12.00000000000000000 ) ) ;
#238 = PLANE ( 'NONE',  #750 ) ;
#239 = CARTESIAN_POINT ( 'NONE',  ( 1.224646799147351300E-015, 0.0000000000000000000, 12.00000000000000000 ) ) ;
#240 = CARTESIAN_POINT ( 'NONE',  ( -9.800000000000000700, 7.500000000000000000, 22.00000000000000000 ) ) ;
#241 = PLANE ( 'NONE',  #770 ) ;
#242 = DIRECTION ( 'NONE',  ( -1.000000000000000000, 0.0000000000000000000, 0.0000000000000000000 ) ) ;
#243 = PLANE ( 'NONE',  #747 ) ;
#244 = DIRECTION ( 'NONE',  ( 0.7071067811865561200, 0.7071067811865389100, -0.0000000000000000000 ) ) ;
#245 = DIRECTION ( 'NONE',  ( 0.0000000000000000000, 0.0000000000000000000, -1.000000000000000000 ) ) ;
#246 = DIRECTION ( 'NONE',  ( -0.7071067811865389100, 0.7071067811865561200, 0.0000000000000000000 ) ) ;
#247 = DIRECTION ( 'NONE',  ( 0.0000000000000000000, 0.0000000000000000000, -1.000000000000000000 ) ) ;
#248 = DIRECTION ( 'NONE',  ( -0.7071067811865543500, 0.7071067811865406900, 0.0000000000000000000 ) ) ;
#249 = PLANE ( 'NONE',  #776 ) ;
#250 = DIRECTION ( 'NONE',  ( -0.0000000000000000000, -1.000000000000000000, -0.0000000000000000000 ) ) ;
#251 = CARTESIAN_POINT ( 'NONE',  ( 1.224646799147351300E-015, 0.5000000000000111000, 22.00000000000000000 ) ) ;
#252 = DIRECTION ( 'NONE',  ( -0.0000000000000000000, -1.000000000000000000, -0.0000000000000000000 ) ) ;
#253 = DIRECTION ( 'NONE',  ( -0.0000000000000000000, -1.000000000000000000, -0.0000000000000000000 ) ) ;
#254 = PLANE ( 'NONE',  #743 ) ;
#255 = DIRECTION ( 'NONE',  ( -0.0000000000000000000, -1.000000000000000000, -0.0000000000000000000 ) ) ;
#256 = DIRECTION ( 'NONE',  ( 0.0000000000000000000, 1.000000000000000000, -0.0000000000000000000 ) ) ;
#257 = DIRECTION ( 'NONE',  ( 0.7071067811865393600, 0.7071067811865555700, 0.0000000000000000000 ) ) ;
#258 = CARTESIAN_POINT ( 'NONE',  ( 0.0000000000000000000, 0.0000000000000000000, -22.00000000000000000 ) ) ;
#259 = DIRECTION ( 'NONE',  ( -0.7071067811865543500, 0.7071067811865406900, 0.0000000000000000000 ) ) ;
#260 = CARTESIAN_POINT ( 'NONE',  ( 1.224646799147351300E-015, 0.0000000000000000000, -12.00000000000000000 ) ) ;
#261 = CARTESIAN_POINT ( 'NONE',  ( 1.224646799147351300E-015, 0.5000000000000111000, 22.00000000000000000 ) ) ;
#262 = CARTESIAN_POINT ( 'NONE',  ( 1.224646799147351300E-015, 0.5000000000000111000, 22.00000000000000000 ) ) ;
#263 = DIRECTION ( 'NONE',  ( 0.0000000000000000000, 0.0000000000000000000, -1.000000000000000000 ) ) ;
#264 = DIRECTION ( 'NONE',  ( 0.0000000000000000000, 0.0000000000000000000, -1.000000000000000000 ) ) ;
#265 = DIRECTION ( 'NONE',  ( 1.000000000000000000, 0.0000000000000000000, 0.0000000000000000000 ) ) ;
#266 = CARTESIAN_POINT ( 'NONE',  ( -0.5000000000000001100, 0.0000000000000000000, 22.00000000000000000 ) ) ;
#267 = CARTESIAN_POINT ( 'NONE',  ( 1.224646799147351300E-015, 10.49999999999999800, -12.00000000000000000 ) ) ;
#268 = DIRECTION ( 'NONE',  ( 0.0000000000000000000, 0.0000000000000000000, -1.000000000000000000 ) ) ;
#269 = CARTESIAN_POINT ( 'NONE',  ( -4.900000000000000400, 5.000000000000000000, 22.00000000000000000 ) ) ;
#270 = DIRECTION ( 'NONE',  ( -0.0000000000000000000, -1.000000000000000000, -0.0000000000000000000 ) ) ;
#271 = DIRECTION ( 'NONE',  ( -0.0000000000000000000, -1.000000000000000000, -0.0000000000000000000 ) ) ;
#272 = CARTESIAN_POINT ( 'NONE',  ( 0.5000000000000001100, 0.0000000000000000000, 22.00000000000000000 ) ) ;
#273 = CARTESIAN_POINT ( 'NONE',  ( -4.900000000000000400, 0.0000000000000000000, 22.00000000000000000 ) ) ;
#274 = DIRECTION ( 'NONE',  ( -0.0000000000000000000, -0.0000000000000000000, -1.000000000000000000 ) ) ;
#275 = DIRECTION ( 'NONE',  ( 0.0000000000000000000, 1.000000000000000000, -0.0000000000000000000 ) ) ;
#276 = DIRECTION ( 'NONE',  ( 1.000000000000000000, -0.0000000000000000000, -0.0000000000000000000 ) ) ;
#277 = CARTESIAN_POINT ( 'NONE',  ( 0.5000000000000001100, 0.0000000000000000000, 22.00000000000000000 ) ) ;
#278 = DIRECTION ( 'NONE',  ( 1.000000000000000000, -0.0000000000000000000, -0.0000000000000000000 ) ) ;
#279 = CARTESIAN_POINT ( 'NONE',  ( -4.900000000000000400, 5.000000000000000000, -22.00000000000000000 ) ) ;
#280 = DIRECTION ( 'NONE',  ( -0.0000000000000000000, -1.000000000000000000, -0.0000000000000000000 ) ) ;
#281 = CARTESIAN_POINT ( 'NONE',  ( 0.5000000000000001100, 0.0000000000000000000, 8.006176643866179900 ) ) ;
#282 = CARTESIAN_POINT ( 'NONE',  ( 1.224646799147351300E-015, 0.6250000000000005600, -12.00000000000000000 ) ) ;
#283 = DIRECTION ( 'NONE',  ( -0.0000000000000000000, -1.000000000000000000, -0.0000000000000000000 ) ) ;
#284 = DIRECTION ( 'NONE',  ( -0.0000000000000000000, -0.0000000000000000000, -1.000000000000000000 ) ) ;
#285 = DIRECTION ( 'NONE',  ( -0.0000000000000000000, -0.0000000000000000000, -1.000000000000000000 ) ) ;
#286 = CARTESIAN_POINT ( 'NONE',  ( -0.5000000000000001100, 0.0000000000000000000, -22.00000000000000000 ) ) ;
#287 = DIRECTION ( 'NONE',  ( -0.0000000000000000000, -0.0000000000000000000, -1.000000000000000000 ) ) ;
#288 = CARTESIAN_POINT ( 'NONE',  ( -9.800000000000000700, 5.000000000000000000, 22.00000000000000000 ) ) ;
#289 = CARTESIAN_POINT ( 'NONE',  ( 1.224646799147351300E-015, 0.0000000000000000000, -15.39999999999999900 ) ) ;
#290 = CARTESIAN_POINT ( 'NONE',  ( 4.900000000000000400, 0.0000000000000000000, -22.00000000000000000 ) ) ;
#291 = DIRECTION ( 'NONE',  ( -0.0000000000000000000, -0.0000000000000000000, -1.000000000000000000 ) ) ;
#292 = CARTESIAN_POINT ( 'NONE',  ( 9.800000000000000700, 7.500000000000000000, -22.00000000000000000 ) ) ;
#293 = CARTESIAN_POINT ( 'NONE',  ( 0.3302917213469125400, 0.1697082786530918200, 8.155963359228387300 ) ) ;
#294 = DIRECTION ( 'NONE',  ( -0.7071067811865396900, 0.7071067811865553400, 0.0000000000000000000 ) ) ;
#295 = DIRECTION ( 'NONE',  ( -0.0000000000000000000, -1.000000000000000000, -0.0000000000000000000 ) ) ;
#296 = DIRECTION ( 'NONE',  ( 0.0000000000000000000, 0.0000000000000000000, 1.000000000000000000 ) ) ;
#297 = DIRECTION ( 'NONE',  ( 0.0000000000000000000, 1.000000000000000000, 0.0000000000000000000 ) ) ;
#298 = CARTESIAN_POINT ( 'NONE',  ( 6.800000000000068200, 10.49999999999999800, 22.00000000000000000 ) ) ;
#299 = CARTESIAN_POINT ( 'NONE',  ( 1.641026710857451300E-015, 0.0000000000000000000, -8.600000000000001400 ) ) ;
#300 = CARTESIAN_POINT ( 'NONE',  ( -9.800000000000000700, 5.000000000000000000, 22.00000000000000000 ) ) ;
#301 = DIRECTION ( 'NONE',  ( 0.0000000000000000000, 0.0000000000000000000, -1.000000000000000000 ) ) ;
#302 = CARTESIAN_POINT ( 'NONE',  ( -0.5000000000000001100, 0.0000000000000000000, 22.00000000000000000 ) ) ;
#303 = DIRECTION ( 'NONE',  ( 1.000000000000000000, -0.0000000000000000000, -0.0000000000000000000 ) ) ;
#304 = DIRECTION ( 'NONE',  ( -0.0000000000000000000, -1.000000000000000000, -0.0000000000000000000 ) ) ;
#305 = PLANE ( 'NONE',  #745 ) ;
#306 = CARTESIAN_POINT ( 'NONE',  ( -4.900000000000000400, 0.0000000000000000000, -22.00000000000000000 ) ) ;
#307 = DIRECTION ( 'NONE',  ( 0.0000000000000000000, -1.000000000000000000, 0.0000000000000000000 ) ) ;
#308 = DIRECTION ( 'NONE',  ( 0.0000000000000000000, -0.0000000000000000000, -1.000000000000000000 ) ) ;
#309 = DIRECTION ( 'NONE',  ( -0.0000000000000000000, -0.0000000000000000000, -1.000000000000000000 ) ) ;
#310 = CARTESIAN_POINT ( 'NONE',  ( -9.800000000000000700, 5.000000000000000000, -22.00000000000000000 ) ) ;
#311 = DIRECTION ( 'NONE',  ( 0.0000000000000000000, 0.0000000000000000000, -1.000000000000000000 ) ) ;
#312 = DIRECTION ( 'NONE',  ( 0.0000000000000000000, 1.000000000000000000, 0.0000000000000000000 ) ) ;
#313 = DIRECTION ( 'NONE',  ( -0.0000000000000000000, -0.0000000000000000000, -1.000000000000000000 ) ) ;
#314 = CARTESIAN_POINT ( 'NONE',  ( -4.900000000000000400, 5.000000000000000000, 22.00000000000000000 ) ) ;
#315 = DIRECTION ( 'NONE',  ( 8.659560562354942700E-017, -0.7071067811865468000, 0.7071067811865483500 ) ) ;
#316 = DIRECTION ( 'NONE',  ( 1.000000000000000000, 0.0000000000000000000, 0.0000000000000000000 ) ) ;
#317 = CARTESIAN_POINT ( 'NONE',  ( 9.800000000000000700, 7.500000000000000000, 22.00000000000000000 ) ) ;
#318 = CARTESIAN_POINT ( 'NONE',  ( 1.051486626324335600E-015, 0.5000000000000113200, 15.52499999999998800 ) ) ;
#319 = DIRECTION ( 'NONE',  ( 0.0000000000000000000, 1.000000000000000000, 0.0000000000000000000 ) ) ;
#320 = CARTESIAN_POINT ( 'NONE',  ( 0.5000000000000001100, 0.0000000000000000000, 15.99382335613382200 ) ) ;
#321 = CARTESIAN_POINT ( 'NONE',  ( 1.224646799147351300E-015, 0.6250000000000005600, 12.00000000000000000 ) ) ;
#322 = DIRECTION ( 'NONE',  ( 1.000000000000000000, 0.0000000000000000000, 0.0000000000000000000 ) ) ;
#323 = CARTESIAN_POINT ( 'NONE',  ( 4.900000000000000400, 0.0000000000000000000, 22.00000000000000000 ) ) ;
#324 = CARTESIAN_POINT ( 'NONE',  ( 9.800000000000000700, 7.500000000000000000, 22.00000000000000000 ) ) ;
#325 = CARTESIAN_POINT ( 'NONE',  ( 0.5000000000000001100, 0.0000000000000000000, 22.00000000000000000 ) ) ;
#326 = CARTESIAN_POINT ( 'NONE',  ( 0.1633496420033402600, 0.3366503579966679800, 15.68834964200333600 ) ) ;
#327 = CARTESIAN_POINT ( 'NONE',  ( -0.5000000000000001100, 0.0000000000000000000, 22.00000000000000000 ) ) ;
#328 = CARTESIAN_POINT ( 'NONE',  ( 1.717567135804161000E-015, 0.0000000000000000000, -7.974999999999999600 ) ) ;
#329 = CARTESIAN_POINT ( 'NONE',  ( 4.900000000000000400, 5.000000000000000000, 22.00000000000000000 ) ) ;
#330 = DIRECTION ( 'NONE',  ( 1.000000000000000000, 0.0000000000000000000, 0.0000000000000000000 ) ) ;
#331 = DIRECTION ( 'NONE',  ( -0.0000000000000000000, -0.0000000000000000000, -1.000000000000000000 ) ) ;
#332 = CARTESIAN_POINT ( 'NONE',  ( -4.900000000000000400, 0.0000000000000000000, 22.00000000000000000 ) ) ;
#333 = CARTESIAN_POINT ( 'NONE',  ( 9.800000000000000700, 5.000000000000000000, -22.00000000000000000 ) ) ;
#334 = CARTESIAN_POINT ( 'NONE',  ( 1.224646799147351300E-015, 0.6250000000000005600, -12.00000000000000000 ) ) ;
#335 = DIRECTION ( 'NONE',  ( -0.0000000000000000000, -1.000000000000000000, -0.0000000000000000000 ) ) ;
#336 = DIRECTION ( 'NONE',  ( -0.0000000000000000000, -0.0000000000000000000, -1.000000000000000000 ) ) ;
#337 = DIRECTION ( 'NONE',  ( -0.0000000000000000000, -1.000000000000000000, -0.0000000000000000000 ) ) ;
#338 = CARTESIAN_POINT ( 'NONE',  ( 4.900000000000000400, 5.000000000000000000, -22.00000000000000000 ) ) ;
#339 = DIRECTION ( 'NONE',  ( 1.000000000000000000, -0.0000000000000000000, -0.0000000000000000000 ) ) ;
#340 = CARTESIAN_POINT ( 'NONE',  ( 9.800000000000000700, 5.000000000000000000, 22.00000000000000000 ) ) ;
#341 = CARTESIAN_POINT ( 'NONE',  ( 4.900000000000000400, 5.000000000000000000, 22.00000000000000000 ) ) ;
#342 = CARTESIAN_POINT ( 'NONE',  ( 0.1633496420033404800, 0.3366503579966677600, 8.311650357996663600 ) ) ;
#343 = DIRECTION ( 'NONE',  ( -0.0000000000000000000, -1.000000000000000000, -0.0000000000000000000 ) ) ;
#344 = DIRECTION ( 'NONE',  ( -0.0000000000000000000, -1.000000000000000000, -0.0000000000000000000 ) ) ;
#345 = CARTESIAN_POINT ( 'NONE',  ( 0.3302917213469113700, 0.1697082786530928500, 15.84403664077161400 ) ) ;
#346 = CARTESIAN_POINT ( 'NONE',  ( 1.052550490452003900E-015, 0.5000000000000113200, 8.475000000000012100 ) ) ;
#347 = DIRECTION ( 'NONE',  ( 0.0000000000000000000, 0.0000000000000000000, -1.000000000000000000 ) ) ;
#348 = CC_DESIGN_PERSON_AND_ORGANIZATION_ASSIGNMENT ( #670, #86, ( #760 ) ) ;
#349 = CC_DESIGN_APPROVAL ( #355, ( #351 ) ) ;
#350 = CC_DESIGN_PERSON_AND_ORGANIZATION_ASSIGNMENT ( #641, #108, ( #760 ) ) ;
#351 = SECURITY_CLASSIFICATION ( '', '', #84 ) ;
#352 = CC_DESIGN_PERSON_AND_ORGANIZATION_ASSIGNMENT ( #665, #93, ( #351 ) ) ;
#353 = CC_DESIGN_DATE_AND_TIME_ASSIGNMENT ( #666, #109, ( #351 ) ) ;
#354 = CC_DESIGN_SECURITY_CLASSIFICATION ( #351, ( #760 ) ) ;
#355 = APPROVAL ( #97, 'UNSPECIFIED' ) ;
#356 = PRODUCT_RELATED_PRODUCT_CATEGORY ( 'detail', '', ( #357 ) ) ;
#357 = PRODUCT ( 'ALP0652', 'ALP0652', '', ( #92 ) ) ;
#358 = PERSON ( 'UNSPECIFIED', 'UNSPECIFIED', 'UNSPECIFIED', ('UNSPECIFIED'), ('UNSPECIFIED'), ('UNSPECIFIED') ) ;
#359 = ORIENTED_EDGE ( 'NONE', *, *, #590, .T. ) ;
#360 = ORIENTED_EDGE ( 'NONE', *, *, #537, .T. ) ;
#361 = ORIENTED_EDGE ( 'NONE', *, *, #576, .T. ) ;
#362 = ORIENTED_EDGE ( 'NONE', *, *, #680, .F. ) ;
#363 = ORIENTED_EDGE ( 'NONE', *, *, #675, .T. ) ;
#364 = ORIENTED_EDGE ( 'NONE', *, *, #596, .T. ) ;
#365 = ORIENTED_EDGE ( 'NONE', *, *, #683, .F. ) ;
#366 = ORIENTED_EDGE ( 'NONE', *, *, #536, .T. ) ;
#367 = ORIENTED_EDGE ( 'NONE', *, *, #527, .T. ) ;
#368 = ORIENTED_EDGE ( 'NONE', *, *, #685, .T. ) ;
#369 = ORIENTED_EDGE ( 'NONE', *, *, #612, .F. ) ;
#370 = ORIENTED_EDGE ( 'NONE', *, *, #680, .T. ) ;
#371 = ORIENTED_EDGE ( 'NONE', *, *, #687, .T. ) ;
#372 = ORIENTED_EDGE ( 'NONE', *, *, #539, .F. ) ;
#373 = ORIENTED_EDGE ( 'NONE', *, *, #610, .F. ) ;
#374 = ORIENTED_EDGE ( 'NONE', *, *, #677, .T. ) ;
#375 = ORIENTED_EDGE ( 'NONE', *, *, #604, .F. ) ;
#376 = ORIENTED_EDGE ( 'NONE', *, *, #540, .T. ) ;
#377 = ORIENTED_EDGE ( 'NONE', *, *, #529, .F. ) ;
#378 = ORIENTED_EDGE ( 'NONE', *, *, #604, .T. ) ;
#379 = ORIENTED_EDGE ( 'NONE', *, *, #608, .F. ) ;
#380 = ORIENTED_EDGE ( 'NONE', *, *, #606, .F. ) ;
#381 = ORIENTED_EDGE ( 'NONE', *, *, #681, .T. ) ;
#382 = ORIENTED_EDGE ( 'NONE', *, *, #586, .T. ) ;
#383 = ORIENTED_EDGE ( 'NONE', *, *, #606, .T. ) ;
#384 = ORIENTED_EDGE ( 'NONE', *, *, #532, .T. ) ;
#385 = ORIENTED_EDGE ( 'NONE', *, *, #598, .T. ) ;
#386 = ORIENTED_EDGE ( 'NONE', *, *, #574, .T. ) ;
#387 = ORIENTED_EDGE ( 'NONE', *, *, #605, .T. ) ;
#388 = ORIENTED_EDGE ( 'NONE', *, *, #689, .T. ) ;
#389 = ORIENTED_EDGE ( 'NONE', *, *, #611, .T. ) ;
#390 = ORIENTED_EDGE ( 'NONE', *, *, #690, .F. ) ;
#391 = ORIENTED_EDGE ( 'NONE', *, *, #600, .F. ) ;
#392 = ORIENTED_EDGE ( 'NONE', *, *, #607, .F. ) ;
#393 = ORIENTED_EDGE ( 'NONE', *, *, #684, .F. ) ;
#394 = ORIENTED_EDGE ( 'NONE', *, *, #682, .T. ) ;
#395 = ORIENTED_EDGE ( 'NONE', *, *, #685, .F. ) ;
#396 = ORIENTED_EDGE ( 'NONE', *, *, #596, .F. ) ;
#397 = ORIENTED_EDGE ( 'NONE', *, *, #601, .F. ) ;
#398 = ORIENTED_EDGE ( 'NONE', *, *, #576, .F. ) ;
#399 = ORIENTED_EDGE ( 'NONE', *, *, #594, .T. ) ;
#400 = ORIENTED_EDGE ( 'NONE', *, *, #583, .T. ) ;
#401 = ORIENTED_EDGE ( 'NONE', *, *, #688, .F. ) ;
#402 = ORIENTED_EDGE ( 'NONE', *, *, #530, .T. ) ;
#403 = ORIENTED_EDGE ( 'NONE', *, *, #674, .T. ) ;
#404 = ORIENTED_EDGE ( 'NONE', *, *, #532, .F. ) ;
#405 = ORIENTED_EDGE ( 'NONE', *, *, #673, .T. ) ;
#406 = ORIENTED_EDGE ( 'NONE', *, *, #679, .T. ) ;
#407 = ORIENTED_EDGE ( 'NONE', *, *, #612, .T. ) ;
#408 = ORIENTED_EDGE ( 'NONE', *, *, #583, .F. ) ;
#409 = ORIENTED_EDGE ( 'NONE', *, *, #579, .T. ) ;
#410 = ORIENTED_EDGE ( 'NONE', *, *, #683, .T. ) ;
#411 = ORIENTED_EDGE ( 'NONE', *, *, #595, .F. ) ;
#412 = ORIENTED_EDGE ( 'NONE', *, *, #676, .T. ) ;
#413 = ORIENTED_EDGE ( 'NONE', *, *, #587, .F. ) ;
#414 = ORIENTED_EDGE ( 'NONE', *, *, #528, .F. ) ;
#415 = ORIENTED_EDGE ( 'NONE', *, *, #528, .T. ) ;
#416 = ORIENTED_EDGE ( 'NONE', *, *, #603, .F. ) ;
#417 = ORIENTED_EDGE ( 'NONE', *, *, #602, .T. ) ;
#418 = ORIENTED_EDGE ( 'NONE', *, *, #593, .T. ) ;
#419 = LINE ( 'NONE', #332, #437 ) ;
#420 = VECTOR ( 'NONE', #339, 1000.000000000000000 ) ;
#421 = CYLINDRICAL_SURFACE ( 'NONE', #774, 3.399999999999998600 ) ;
#422 = FACE_BOUND ( 'NONE', #691, .T. ) ;
#423 = LINE ( 'NONE', #286, #480 ) ;
#424 = VECTOR ( 'NONE', #344, 1000.000000000000000 ) ;
#425 = VECTOR ( 'NONE', #285, 1000.000000000000000 ) ;
#426 = LINE ( 'NONE', #328, #432 ) ;
#427 = CIRCLE ( 'NONE', #751, 3.399999999999998600 ) ;
#428 = LINE ( 'NONE', #338, #438 ) ;
#429 = VECTOR ( 'NONE', #284, 1000.000000000000000 ) ;
#430 = VECTOR ( 'NONE', #303, 1000.000000000000000 ) ;
#431 = LINE ( 'NONE', #272, #477 ) ;
#432 = VECTOR ( 'NONE', #315, 999.9999999999998900 ) ;
#433 = LINE ( 'NONE', #277, #429 ) ;
#434 = VECTOR ( 'NONE', #291, 1000.000000000000000 ) ;
#435 = FACE_OUTER_BOUND ( 'NONE', #710, .T. ) ;
#436 = VECTOR ( 'NONE', #270, 1000.000000000000000 ) ;
#437 = VECTOR ( 'NONE', #335, 1000.000000000000000 ) ;
#438 = VECTOR ( 'NONE', #330, 1000.000000000000000 ) ;
#439 = LINE ( 'NONE', #310, #424 ) ;
#440 = VECTOR ( 'NONE', #331, 1000.000000000000000 ) ;
#441 = LINE ( 'NONE', #279, #454 ) ;
#442 = LINE ( 'NONE', #340, #446 ) ;
#443 = LINE ( 'NONE', #325, #445 ) ;
#444 = CIRCLE ( 'NONE', #733, 3.399999999999998600 ) ;
#445 = VECTOR ( 'NONE', #322, 1000.000000000000000 ) ;
#446 = VECTOR ( 'NONE', #319, 1000.000000000000000 ) ;
#447 = CIRCLE ( 'NONE', #764, 3.399999999999996800 ) ;
#448 = LINE ( 'NONE', #269, #425 ) ;
#449 = LINE ( 'NONE', #299, #436 ) ;
#450 = LINE ( 'NONE', #273, #452 ) ;
#451 = LINE ( 'NONE', #292, #453 ) ;
#452 = VECTOR ( 'NONE', #274, 1000.000000000000000 ) ;
#453 = VECTOR ( 'NONE', #294, 1000.000000000000100 ) ;
#454 = VECTOR ( 'NONE', #276, 1000.000000000000000 ) ;
#455 = VECTOR ( 'NONE', #295, 1000.000000000000000 ) ;
#456 = LINE ( 'NONE', #324, #859 ) ;
#457 = LINE ( 'NONE', #290, #475 ) ;
#458 = LINE ( 'NONE', #289, #455 ) ;
#459 = LINE ( 'NONE', #327, #481 ) ;
#460 = LINE ( 'NONE', #329, #440 ) ;
#461 = LINE ( 'NONE', #323, #483 ) ;
#462 = LINE ( 'NONE', #333, #485 ) ;
#463 = CONICAL_SURFACE ( 'NONE', #742, 4.025000000000000400, 0.7853981633974492800 ) ;
#464 = LINE ( 'NONE', #314, #420 ) ;
#465 = FACE_OUTER_BOUND ( 'NONE', #694, .T. ) ;
#466 = FACE_BOUND ( 'NONE', #709, .T. ) ;
#467 = LINE ( 'NONE', #300, #479 ) ;
#468 = LINE ( 'NONE', #302, #430 ) ;
#469 = FACE_OUTER_BOUND ( 'NONE', #719, .T. ) ;
#470 = LINE ( 'NONE', #288, #434 ) ;
#471 = FACE_OUTER_BOUND ( 'NONE', #712, .T. ) ;
#472 = LINE ( 'NONE', #306, #474 ) ;
#473 = FACE_OUTER_BOUND ( 'NONE', #705, .T. ) ;
#474 = VECTOR ( 'NONE', #304, 1000.000000000000000 ) ;
#475 = VECTOR ( 'NONE', #297, 1000.000000000000000 ) ;
#476 = FACE_OUTER_BOUND ( 'NONE', #718, .T. ) ;
#477 = VECTOR ( 'NONE', #287, 1000.000000000000000 ) ;
#478 = FACE_OUTER_BOUND ( 'NONE', #697, .T. ) ;
#479 = VECTOR ( 'NONE', #280, 1000.000000000000000 ) ;
#480 = VECTOR ( 'NONE', #278, 1000.000000000000000 ) ;
#481 = VECTOR ( 'NONE', #336, 1000.000000000000000 ) ;
#482 = CIRCLE ( 'NONE', #736, 3.399999999999998600 ) ;
#483 = VECTOR ( 'NONE', #313, 1000.000000000000000 ) ;
#484 = LOCAL_TIME ( 13, 58, 39.00000000000000000, #490 ) ;
#485 = VECTOR ( 'NONE', #312, 1000.000000000000000 ) ;
#486 = LINE ( 'NONE', #341, #488 ) ;
#487 = LINE ( 'NONE', #317, #489 ) ;
#488 = VECTOR ( 'NONE', #316, 1000.000000000000000 ) ;
#489 = VECTOR ( 'NONE', #309, 1000.000000000000000 ) ;
#490 = COORDINATED_UNIVERSAL_TIME_OFFSET ( 1, 0, .AHEAD. ) ;
#491 = VERTEX_POINT ( 'NONE', #115 ) ;
#492 = VERTEX_POINT ( 'NONE', #116 ) ;
#493 = VERTEX_POINT ( 'NONE', #117 ) ;
#494 = VERTEX_POINT ( 'NONE', #112 ) ;
#495 = VERTEX_POINT ( 'NONE', #113 ) ;
#496 = VERTEX_POINT ( 'NONE', #114 ) ;
#497 = ORIENTED_EDGE ( 'NONE', *, *, #611, .F. ) ;
#498 = ORIENTED_EDGE ( 'NONE', *, *, #572, .F. ) ;
#499 = VERTEX_POINT ( 'NONE', #120 ) ;
#500 = VERTEX_POINT ( 'NONE', #121 ) ;
#501 = VERTEX_POINT ( 'NONE', #138 ) ;
#502 = VERTEX_POINT ( 'NONE', #123 ) ;
#503 = VERTEX_POINT ( 'NONE', #124 ) ;
#504 = VERTEX_POINT ( 'NONE', #118 ) ;
#505 = VERTEX_POINT ( 'NONE', #125 ) ;
#506 = VERTEX_POINT ( 'NONE', #119 ) ;
#507 = VERTEX_POINT ( 'NONE', #139 ) ;
#508 = VERTEX_POINT ( 'NONE', #126 ) ;
#509 = VERTEX_POINT ( 'NONE', #131 ) ;
#510 = ORIENTED_EDGE ( 'NONE', *, *, #587, .T. ) ;
#511 = VERTEX_POINT ( 'NONE', #127 ) ;
#512 = VERTEX_POINT ( 'NONE', #128 ) ;
#513 = CLOSED_SHELL ( 'NONE', ( #557, #542, #563, #553, #556, #548, #543, #544, #565, #564, #549, #546, #550, #545, #547, #568, #554, #558, #559, #566, #567, #561, #560, #562, #555, #551, #552 ) ) ;
#514 = VERTEX_POINT ( 'NONE', #129 ) ;
#515 = VERTEX_POINT ( 'NONE', #140 ) ;
#516 = VERTEX_POINT ( 'NONE', #132 ) ;
#517 = VERTEX_POINT ( 'NONE', #130 ) ;
#518 = ORIENTED_EDGE ( 'NONE', *, *, #675, .F. ) ;
#519 = VERTEX_POINT ( 'NONE', #133 ) ;
#520 = ORIENTED_EDGE ( 'NONE', *, *, #570, .T. ) ;
#521 = VERTEX_POINT ( 'NONE', #134 ) ;
#522 = VERTEX_POINT ( 'NONE', #135 ) ;
#523 = VERTEX_POINT ( 'NONE', #141 ) ;
#524 = ORIENTED_EDGE ( 'NONE', *, *, #686, .T. ) ;
#525 = VERTEX_POINT ( 'NONE', #137 ) ;
#526 = EDGE_CURVE ( 'NONE', #521, #512, #809, .T. ) ;
#527 = EDGE_CURVE ( 'NONE', #519, #493, #845, .T. ) ;
#528 = EDGE_CURVE ( 'NONE', #824, #816, #813, .T. ) ;
#529 = EDGE_CURVE ( 'NONE', #523, #509, #843, .T. ) ;
#530 = EDGE_CURVE ( 'NONE', #503, #491, #803, .T. ) ;
#531 = EDGE_CURVE ( 'NONE', #495, #525, #846, .T. ) ;
#532 = EDGE_CURVE ( 'NONE', #522, #499, #852, .T. ) ;
#533 = EDGE_CURVE ( 'NONE', #493, #507, #831, .T. ) ;
#534 = EDGE_CURVE ( 'NONE', #516, #507, #851, .T. ) ;
#535 = EDGE_CURVE ( 'NONE', #525, #516, #820, .T. ) ;
#536 = EDGE_CURVE ( 'NONE', #802, #717, #799, .T. ) ;
#537 = EDGE_CURVE ( 'NONE', #842, #816, #798, .T. ) ;
#538 = EDGE_CURVE ( 'NONE', #525, #493, #849, .T. ) ;
#539 = EDGE_CURVE ( 'NONE', #495, #519, #795, .T. ) ;
#540 = EDGE_CURVE ( 'NONE', #804, #837, #819, .T. ) ;
#541 = ORIENTED_EDGE ( 'NONE', *, *, #574, .F. ) ;
#542 = ADVANCED_FACE ( 'NONE', ( #815 ), #841, .F. ) ;
#543 = ADVANCED_FACE ( 'NONE', ( #827 ), #178, .F. ) ;
#544 = ADVANCED_FACE ( 'NONE', ( #840 ), #203, .F. ) ;
#545 = ADVANCED_FACE ( 'NONE', ( #797 ), #193, .F. ) ;
#546 = ADVANCED_FACE ( 'NONE', ( #853 ), #200, .F. ) ;
#547 = ADVANCED_FACE ( 'NONE', ( #811 ), #210, .F. ) ;
#548 = ADVANCED_FACE ( 'NONE', ( #823 ), #185, .F. ) ;
#549 = ADVANCED_FACE ( 'NONE', ( #796 ), #204, .F. ) ;
#550 = ADVANCED_FACE ( 'NONE', ( #850 ), #177, .F. ) ;
#551 = ADVANCED_FACE ( 'NONE', ( #794 ), #836, .F. ) ;
#552 = ADVANCED_FACE ( 'NONE', ( #834 ), #828, .F. ) ;
#553 = ADVANCED_FACE ( 'NONE', ( #822 ), #860, .F. ) ;
#554 = ADVANCED_FACE ( 'NONE', ( #825 ), #227, .F. ) ;
#555 = ADVANCED_FACE ( 'NONE', ( #800 ), #856, .F. ) ;
#556 = ADVANCED_FACE ( 'NONE', ( #792 ), #241, .F. ) ;
#557 = ADVANCED_FACE ( 'NONE', ( #826 ), #857, .F. ) ;
#558 = ADVANCED_FACE ( 'NONE', ( #858 ), #254, .F. ) ;
#559 = ADVANCED_FACE ( 'NONE', ( #862 ), #238, .F. ) ;
#560 = ADVANCED_FACE ( 'NONE', ( #854 ), #222, .T. ) ;
#561 = ADVANCED_FACE ( 'NONE', ( #855 ), #249, .F. ) ;
#562 = ADVANCED_FACE ( 'NONE', ( #476 ), #463, .F. ) ;
#563 = ADVANCED_FACE ( 'NONE', ( #473 ), #421, .F. ) ;
#564 = ADVANCED_FACE ( 'NONE', ( #465 ), #243, .F. ) ;
#565 = ADVANCED_FACE ( 'NONE', ( #435 ), #223, .F. ) ;
#566 = ADVANCED_FACE ( 'NONE', ( #469 ), #233, .F. ) ;
#567 = ADVANCED_FACE ( 'NONE', ( #478 ), #218, .F. ) ;
#568 = ADVANCED_FACE ( 'NONE', ( #422, #466, #471 ), #305, .F. ) ;
#569 = EDGE_CURVE ( 'NONE', #500, #515, #472, .T. ) ;
#570 = EDGE_CURVE ( 'NONE', #835, #492, #444, .T. ) ;
#571 = EDGE_CURVE ( 'NONE', #511, #500, #441, .T. ) ;
#572 = EDGE_CURVE ( 'NONE', #829, #492, #449, .T. ) ;
#573 = EDGE_CURVE ( 'NONE', #516, #514, #467, .T. ) ;
#574 = EDGE_CURVE ( 'NONE', #829, #847, #447, .T. ) ;
#575 = AXIS2_PLACEMENT_3D ( 'NONE', #180, #209, #171 ) ;
#576 = EDGE_CURVE ( 'NONE', #523, #494, #433, .T. ) ;
#577 = EDGE_CURVE ( 'NONE', #505, #515, #450, .T. ) ;
#578 = AXIS2_PLACEMENT_3D ( 'NONE', #208, #205, #182 ) ;
#579 = EDGE_CURVE ( 'NONE', #491, #502, #457, .T. ) ;
#580 = AXIS2_PLACEMENT_3D ( 'NONE', #186, #202, #196 ) ;
#581 = EDGE_CURVE ( 'NONE', #496, #500, #448, .T. ) ;
#582 = EDGE_CURVE ( 'NONE', #505, #521, #468, .T. ) ;
#583 = EDGE_CURVE ( 'NONE', #517, #509, #431, .T. ) ;
#584 = EDGE_CURVE ( 'NONE', #515, #842, #423, .T. ) ;
#585 = EDGE_CURVE ( 'NONE', #514, #511, #470, .T. ) ;
#586 = EDGE_CURVE ( 'NONE', #508, #519, #451, .T. ) ;
#587 = EDGE_CURVE ( 'NONE', #847, #835, #458, .T. ) ;
#588 = AXIS2_PLACEMENT_3D ( 'NONE', #148, #147, #167 ) ;
#589 = AXIS2_PLACEMENT_3D ( 'NONE', #159, #168, #166 ) ;
#590 = EDGE_CURVE ( 'NONE', #523, #801, #780, .T. ) ;
#591 = EDGE_CURVE ( 'NONE', #806, #821, #482, .T. ) ;
#592 = EDGE_CURVE ( 'NONE', #514, #496, #464, .T. ) ;
#593 = EDGE_CURVE ( 'NONE', #492, #830, #426, .T. ) ;
#594 = EDGE_CURVE ( 'NONE', #521, #802, #459, .T. ) ;
#595 = EDGE_CURVE ( 'NONE', #492, #835, #427, .T. ) ;
#596 = EDGE_CURVE ( 'NONE', #506, #502, #460, .T. ) ;
#597 = EDGE_CURVE ( 'NONE', #496, #505, #419, .T. ) ;
#598 = EDGE_CURVE ( 'NONE', #502, #499, #428, .T. ) ;
#599 = EDGE_CURVE ( 'NONE', #507, #511, #439, .T. ) ;
#600 = EDGE_CURVE ( 'NONE', #517, #501, #443, .T. ) ;
#601 = EDGE_CURVE ( 'NONE', #522, #504, #442, .T. ) ;
#602 = EDGE_CURVE ( 'NONE', #499, #508, #462, .T. ) ;
#603 = EDGE_CURVE ( 'NONE', #506, #522, #486, .T. ) ;
#604 = EDGE_CURVE ( 'NONE', #504, #508, #487, .T. ) ;
#605 = EDGE_CURVE ( 'NONE', #793, #509, #783, .T. ) ;
#606 = EDGE_CURVE ( 'NONE', #501, #491, #461, .T. ) ;
#607 = EDGE_CURVE ( 'NONE', #504, #495, #456, .T. ) ;
#608 = EDGE_CURVE ( 'NONE', #512, #517, #861, .T. ) ;
#609 = EDGE_CURVE ( 'NONE', #501, #506, #615, .T. ) ;
#610 = EDGE_CURVE ( 'NONE', #810, #494, #651, .T. ) ;
#611 = EDGE_CURVE ( 'NONE', #847, #829, #656, .T. ) ;
#612 = EDGE_CURVE ( 'NONE', #512, #793, #618, .T. ) ;
#613 = VECTOR ( 'NONE', #8, 1000.000000000000000 ) ;
#614 = CIRCLE ( 'NONE', #738, 4.025000000000000400 ) ;
#615 = LINE ( 'NONE', #7, #650 ) ;
#616 = LINE ( 'NONE', #9, #613 ) ;
#617 = LINE ( 'NONE', #26, #642 ) ;
#618 = LINE ( 'NONE', #11, #619 ) ;
#619 = VECTOR ( 'NONE', #15, 1000.000000000000000 ) ;
#620 = ORGANIZATION ( 'UNSPECIFIED', 'UNSPECIFIED', '' ) ;
#621 = PERSON_AND_ORGANIZATION ( #358, #620 ) ;
#622 = COORDINATED_UNIVERSAL_TIME_OFFSET ( 1, 0, .AHEAD. ) ;
#623 = VECTOR ( 'NONE', #18, 1000.000000000000000 ) ;
#624 = APPROVAL_DATE_TIME ( #634, #768 ) ;
#625 = PERSON_AND_ORGANIZATION ( #358, #620 ) ;
#626 = COORDINATED_UNIVERSAL_TIME_OFFSET ( 1, 0, .AHEAD. ) ;
#627 = LOCAL_TIME ( 13, 58, 39.00000000000000000, #626 ) ;
#628 = CALENDAR_DATE ( 2017, 2, 2 ) ;
#629 = CIRCLE ( 'NONE', #753, 3.399999999999998600 ) ;
#630 = DATE_AND_TIME ( #628, #627 ) ;
#631 = PERSON_AND_ORGANIZATION ( #358, #620 ) ;
#632 = LINE ( 'NONE', #81, #655 ) ;
#633 = VECTOR ( 'NONE', #54, 999.9999999999998900 ) ;
#634 = DATE_AND_TIME ( #660, #659 ) ;
#635 = APPROVAL_PERSON_ORGANIZATION ( #631, #761, #105 ) ;
#636 = COORDINATED_UNIVERSAL_TIME_OFFSET ( 1, 0, .AHEAD. ) ;
#637 = LOCAL_TIME ( 13, 58, 39.00000000000000000, #636 ) ;
#638 = CALENDAR_DATE ( 2017, 2, 2 ) ;
#639 = DATE_AND_TIME ( #638, #637 ) ;
#640 = APPROVAL_DATE_TIME ( #639, #761 ) ;
#641 = PERSON_AND_ORGANIZATION ( #358, #620 ) ;
#642 = VECTOR ( 'NONE', #65, 999.9999999999998900 ) ;
#643 = VECTOR ( 'NONE', #20, 1000.000000000000000 ) ;
#644 = LINE ( 'NONE', #51, #648 ) ;
#645 = LINE ( 'NONE', #21, #623 ) ;
#646 = LINE ( 'NONE', #52, #633 ) ;
#647 = CIRCLE ( 'NONE', #767, 3.399999999999996800 ) ;
#648 = VECTOR ( 'NONE', #64, 999.9999999999998900 ) ;
#649 = LINE ( 'NONE', #68, #661 ) ;
#650 = VECTOR ( 'NONE', #6, 1000.000000000000000 ) ;
#651 = CIRCLE ( 'NONE', #734, 4.025000000000000400 ) ;
#652 = LINE ( 'NONE', #53, #653 ) ;
#653 = VECTOR ( 'NONE', #60, 1000.000000000000000 ) ;
#654 = LINE ( 'NONE', #31, #662 ) ;
#655 = VECTOR ( 'NONE', #74, 1000.000000000000000 ) ;
#656 = CIRCLE ( 'NONE', #752, 3.399999999999996800 ) ;
#657 = PERSON_AND_ORGANIZATION ( #358, #620 ) ;
#658 = APPROVAL_PERSON_ORGANIZATION ( #657, #768, #90 ) ;
#659 = LOCAL_TIME ( 13, 58, 39.00000000000000000, #622 ) ;
#660 = CALENDAR_DATE ( 2017, 2, 2 ) ;
#661 = VECTOR ( 'NONE', #43, 1000.000000000000000 ) ;
#662 = VECTOR ( 'NONE', #46, 1000.000000000000000 ) ;
#663 = LINE ( 'NONE', #22, #643 ) ;
#664 = LOCAL_TIME ( 13, 58, 39.00000000000000000, #671 ) ;
#665 = PERSON_AND_ORGANIZATION ( #358, #620 ) ;
#666 = DATE_AND_TIME ( #668, #664 ) ;
#667 = PERSON_AND_ORGANIZATION ( #358, #620 ) ;
#668 = CALENDAR_DATE ( 2017, 2, 2 ) ;
#669 = APPROVAL_PERSON_ORGANIZATION ( #667, #355, #98 ) ;
#670 = PERSON_AND_ORGANIZATION ( #358, #620 ) ;
#671 = COORDINATED_UNIVERSAL_TIME_OFFSET ( 1, 0, .AHEAD. ) ;
#672 = EDGE_CURVE ( 'NONE', #804, #806, #663, .T. ) ;
#673 = EDGE_CURVE ( 'NONE', #824, #838, #781, .T. ) ;
#674 = EDGE_CURVE ( 'NONE', #717, #807, #645, .T. ) ;
#675 = EDGE_CURVE ( 'NONE', #830, #494, #786, .T. ) ;
#676 = EDGE_CURVE ( 'NONE', #807, #838, #614, .T. ) ;
#677 = EDGE_CURVE ( 'NONE', #816, #503, #616, .T. ) ;
#678 = EDGE_CURVE ( 'NONE', #837, #821, #654, .T. ) ;
#679 = EDGE_CURVE ( 'NONE', #807, #830, #785, .T. ) ;
#680 = EDGE_CURVE ( 'NONE', #810, #503, #649, .T. ) ;
#681 = EDGE_CURVE ( 'NONE', #837, #804, #647, .T. ) ;
#682 = EDGE_CURVE ( 'NONE', #821, #793, #617, .T. ) ;
#683 = EDGE_CURVE ( 'NONE', #801, #830, #652, .T. ) ;
#684 = EDGE_CURVE ( 'NONE', #801, #717, #784, .T. ) ;
#685 = EDGE_CURVE ( 'NONE', #802, #793, #787, .T. ) ;
#686 = EDGE_CURVE ( 'NONE', #835, #824, #646, .T. ) ;
#687 = EDGE_CURVE ( 'NONE', #838, #842, #632, .T. ) ;
#688 = EDGE_CURVE ( 'NONE', #806, #801, #644, .T. ) ;
#689 = EDGE_CURVE ( 'NONE', #810, #824, #788, .T. ) ;
#690 = EDGE_CURVE ( 'NONE', #821, #806, #629, .T. ) ;
#691 = EDGE_LOOP ( 'NONE', ( #389, #386 ) ) ;
#692 = EDGE_LOOP ( 'NONE', ( #928, #923, #901, #921 ) ) ;
#693 = EDGE_LOOP ( 'NONE', ( #927, #922, #887, #931 ) ) ;
#694 = EDGE_LOOP ( 'NONE', ( #407, #387, #408, #379 ) ) ;
#695 = EDGE_LOOP ( 'NONE', ( #876, #882, #908, #879, #894, #867, #898, #918, #897, #885, #920, #892, #868 ) ) ;
#696 = EDGE_LOOP ( 'NONE', ( #417, #375, #397, #384 ) ) ;
#697 = EDGE_LOOP ( 'NONE', ( #888, #924, #873, #864, #878, #889, #895, #871 ) ) ;
#698 = EDGE_LOOP ( 'NONE', ( #886, #910, #874, #866 ) ) ;
#699 = EDGE_LOOP ( 'NONE', ( #926, #884, #896, #903, #877, #865, #914, #916, #863, #906, #904, #902, #899 ) ) ;
#700 = EDGE_LOOP ( 'NONE', ( #403, #406, #365, #869 ) ) ;
#701 = EDGE_LOOP ( 'NONE', ( #410, #363, #398, #359 ) ) ;
#702 = EDGE_LOOP ( 'NONE', ( #409, #396, #870, #383 ) ) ;
#703 = EDGE_LOOP ( 'NONE', ( #541, #779, #725, #413 ) ) ;
#704 = EDGE_LOOP ( 'NONE', ( #362, #388, #415, #374 ) ) ;
#705 = EDGE_LOOP ( 'NONE', ( #721, #724, #722, #723 ) ) ;
#706 = EDGE_LOOP ( 'NONE', ( #382, #372, #392, #378 ) ) ;
#707 = EDGE_LOOP ( 'NONE', ( #361, #373, #370, #402, #380, #391, #400, #377 ) ) ;
#708 = EDGE_LOOP ( 'NONE', ( #390, #394, #395, #366, #393, #401 ) ) ;
#709 = EDGE_LOOP ( 'NONE', ( #376, #381 ) ) ;
#710 = EDGE_LOOP ( 'NONE', ( #399, #368, #369, #872 ) ) ;
#711 = EDGE_LOOP ( 'NONE', ( #414, #405, #371, #360 ) ) ;
#712 = EDGE_LOOP ( 'NONE', ( #367, #881, #905, #893 ) ) ;
#713 = EDGE_LOOP ( 'NONE', ( #411, #418, #726, #412, #727, #728 ) ) ;
#714 = VECTOR ( 'NONE', #5, 1000.000000000000000 ) ;
#715 = EDGE_LOOP ( 'NONE', ( #875, #907, #890, #880 ) ) ;
#716 = EDGE_LOOP ( 'NONE', ( #385, #404, #416, #364 ) ) ;
#717 = VERTEX_POINT ( 'NONE', #79 ) ;
#718 = EDGE_LOOP ( 'NONE', ( #929, #917, #925, #909, #930, #919 ) ) ;
#719 = EDGE_LOOP ( 'NONE', ( #883, #891, #915, #932 ) ) ;
#720 = EDGE_LOOP ( 'NONE', ( #900, #911, #524, #912, #913, #518 ) ) ;
#721 = ORIENTED_EDGE ( 'NONE', *, *, #681, .F. ) ;
#722 = ORIENTED_EDGE ( 'NONE', *, *, #690, .T. ) ;
#723 = ORIENTED_EDGE ( 'NONE', *, *, #672, .F. ) ;
#724 = ORIENTED_EDGE ( 'NONE', *, *, #678, .T. ) ;
#725 = ORIENTED_EDGE ( 'NONE', *, *, #595, .T. ) ;
#726 = ORIENTED_EDGE ( 'NONE', *, *, #679, .F. ) ;
#727 = ORIENTED_EDGE ( 'NONE', *, *, #673, .F. ) ;
#728 = ORIENTED_EDGE ( 'NONE', *, *, #686, .F. ) ;
#729 = SHAPE_DEFINITION_REPRESENTATION ( #2, #790 ) ;
#730 = DATE_AND_TIME ( #732, #484 ) ;
#731 = APPROVAL_DATE_TIME ( #730, #355 ) ;
#732 = CALENDAR_DATE ( 2017, 2, 2 ) ;
#733 = AXIS2_PLACEMENT_3D ( 'NONE', #282, #271, #268 ) ;
#734 = AXIS2_PLACEMENT_3D ( 'NONE', #27, #19, #33 ) ;
#735 = AXIS2_PLACEMENT_3D ( 'NONE', #188, #181, #170 ) ;
#736 = AXIS2_PLACEMENT_3D ( 'NONE', #321, #337, #347 ) ;
#737 = CC_DESIGN_PERSON_AND_ORGANIZATION_ASSIGNMENT ( #621, #103, ( #357 ) ) ;
#738 = AXIS2_PLACEMENT_3D ( 'NONE', #32, #28, #29 ) ;
#739 = AXIS2_PLACEMENT_3D ( 'NONE', #261, #248, #232 ) ;
#740 = AXIS2_PLACEMENT_3D ( 'NONE', #214, #215, #197 ) ;
#741 = AXIS2_PLACEMENT_3D ( 'NONE', #189, #195, #198 ) ;
#742 = AXIS2_PLACEMENT_3D ( 'NONE', #237, #255, #220 ) ;
#743 = AXIS2_PLACEMENT_3D ( 'NONE', #226, #229, #245 ) ;
#744 = AXIS2_PLACEMENT_3D ( 'NONE', #183, #172, #169 ) ;
#745 = AXIS2_PLACEMENT_3D ( 'NONE', #298, #307, #308 ) ;
#746 = AXIS2_PLACEMENT_3D ( 'NONE', #111, #104, #101 ) ;
#747 = AXIS2_PLACEMENT_3D ( 'NONE', #251, #244, #246 ) ;
#748 = AXIS2_PLACEMENT_3D ( 'NONE', #173, #207, #199 ) ;
#749 = AXIS2_PLACEMENT_3D ( 'NONE', #260, #253, #228 ) ;
#750 = AXIS2_PLACEMENT_3D ( 'NONE', #235, #256, #230 ) ;
#751 = AXIS2_PLACEMENT_3D ( 'NONE', #334, #343, #311 ) ;
#752 = AXIS2_PLACEMENT_3D ( 'NONE', #16, #14, #34 ) ;
#753 = AXIS2_PLACEMENT_3D ( 'NONE', #67, #58, #71 ) ;
#754 = PRODUCT_DEFINITION ( 'UNKNOWN', '', #760, #1 ) ;
#755 = CC_DESIGN_APPROVAL ( #768, ( #754 ) ) ;
#756 =( GEOMETRIC_REPRESENTATION_CONTEXT ( 3 ) GLOBAL_UNCERTAINTY_ASSIGNED_CONTEXT ( ( #789 ) ) GLOBAL_UNIT_ASSIGNED_CONTEXT ( ( #91, #99, #83 ) ) REPRESENTATION_CONTEXT ( 'NONE', 'WORKASPACE' ) );
#757 = CC_DESIGN_PERSON_AND_ORGANIZATION_ASSIGNMENT ( #625, #85, ( #754 ) ) ;
#758 = AXIS2_PLACEMENT_3D ( 'NONE', #192, #190, #179 ) ;
#759 = CC_DESIGN_DATE_AND_TIME_ASSIGNMENT ( #630, #96, ( #754 ) ) ;
#760 = PRODUCT_DEFINITION_FORMATION_WITH_SPECIFIED_SOURCE ( 'ANY', '', #357, .NOT_KNOWN. ) ;
#761 = APPROVAL ( #94, 'UNSPECIFIED' ) ;
#762 = AXIS2_PLACEMENT_3D ( 'NONE', #174, #175, #176 ) ;
#763 = AXIS2_PLACEMENT_3D ( 'NONE', #266, #275, #296 ) ;
#764 = AXIS2_PLACEMENT_3D ( 'NONE', #267, #283, #301 ) ;
#765 = AXIS2_PLACEMENT_3D ( 'NONE', #258, #263, #242 ) ;
#766 = AXIS2_PLACEMENT_3D ( 'NONE', #212, #206, #216 ) ;
#767 = AXIS2_PLACEMENT_3D ( 'NONE', #56, #55, #47 ) ;
#768 = APPROVAL ( #95, 'UNSPECIFIED' ) ;
#769 = CC_DESIGN_APPROVAL ( #761, ( #760 ) ) ;
#770 = AXIS2_PLACEMENT_3D ( 'NONE', #262, #259, #231 ) ;
#771 = AXIS2_PLACEMENT_3D ( 'NONE', #191, #184, #211 ) ;
#772 = AXIS2_PLACEMENT_3D ( 'NONE', #201, #194, #187 ) ;
#773 = AXIS2_PLACEMENT_3D ( 'NONE', #234, #250, #236 ) ;
#774 = AXIS2_PLACEMENT_3D ( 'NONE', #239, #252, #264 ) ;
#775 = AXIS2_PLACEMENT_3D ( 'NONE', #240, #224, #257 ) ;
#776 = AXIS2_PLACEMENT_3D ( 'NONE', #219, #247, #221 ) ;
#777 = AXIS2_PLACEMENT_3D ( 'NONE', #225, #265, #217 ) ;
#778 = EDGE_LOOP ( 'NONE', ( #498, #497, #510, #520 ) ) ;
#779 = ORIENTED_EDGE ( 'NONE', *, *, #572, .T. ) ;
#780 = B_SPLINE_CURVE_WITH_KNOTS ( 'NONE', 3,
 ( #281, #293, #342, #346 ),
 .UNSPECIFIED., .F., .F.,
 ( 4, 4 ),
 ( 3.332785926282433400E-007, 0.0008487408099448145100 ),
 .UNSPECIFIED. ) ;
#781 = B_SPLINE_CURVE_WITH_KNOTS ( 'NONE', 3,
 ( #17, #30, #10, #12 ),
 .UNSPECIFIED., .F., .F.,
 ( 4, 4 ),
 ( 3.462573506291739600E-007, 0.0008487537887028150200 ),
 .UNSPECIFIED. ) ;
#782 = MANIFOLD_SOLID_BREP ( 'M8 Tapped Hole1', #513 ) ;
#783 = B_SPLINE_CURVE_WITH_KNOTS ( 'NONE', 3,
 ( #318, #326, #345, #320 ),
 .UNSPECIFIED., .F., .F.,
 ( 4, 4 ),
 ( 3.462573506283817700E-007, 0.0008487537887028139400 ),
 .UNSPECIFIED. ) ;
#784 = B_SPLINE_CURVE_WITH_KNOTS ( 'NONE', 3,
 ( #72, #73, #48, #45 ),
 .UNSPECIFIED., .F., .F.,
 ( 4, 4 ),
 ( 3.462573506285167600E-007, 0.0008487537887028153500 ),
 .UNSPECIFIED. ) ;
#785 = B_SPLINE_CURVE_WITH_KNOTS ( 'NONE', 3,
 ( #13, #23, #44, #59 ),
 .UNSPECIFIED., .F., .F.,
 ( 4, 4 ),
 ( 3.332785926290531500E-007, 0.0008487408099448162500 ),
 .UNSPECIFIED. ) ;
#786 = B_SPLINE_CURVE_WITH_KNOTS ( 'NONE', 3,
 ( #35, #24, #36, #25 ),
 .UNSPECIFIED., .F., .F.,
 ( 4, 4 ),
 ( 3.462573506274122900E-007, 0.0008487537887028127500 ),
 .UNSPECIFIED. ) ;
#787 = B_SPLINE_CURVE_WITH_KNOTS ( 'NONE', 3,
 ( #70, #49, #50, #62 ),
 .UNSPECIFIED., .F., .F.,
 ( 4, 4 ),
 ( 3.332785926293593000E-007, 0.0008487408099448162500 ),
 .UNSPECIFIED. ) ;
#788 = B_SPLINE_CURVE_WITH_KNOTS ( 'NONE', 3,
 ( #61, #75, #69, #63 ),
 .UNSPECIFIED., .F., .F.,
 ( 4, 4 ),
 ( 3.332785926292019100E-007, 0.0008487408099448120200 ),
 .UNSPECIFIED. ) ;
#789 = UNCERTAINTY_MEASURE_WITH_UNIT (LENGTH_MEASURE( 1.000000000000000100E-005 ), #91, 'distance_accuracy_value', 'NONE');
#790 = ADVANCED_BREP_SHAPE_REPRESENTATION ( 'ALP0652', ( #782, #746 ), #756 ) ;
#791 = VECTOR ( 'NONE', #213, 1000.000000000000000 ) ;
#792 = FACE_OUTER_BOUND ( 'NONE', #711, .T. ) ;
#793 = VERTEX_POINT ( 'NONE', #77 ) ;
#794 = FACE_OUTER_BOUND ( 'NONE', #720, .T. ) ;
#795 = LINE ( 'NONE', #145, #791 ) ;
#796 = FACE_OUTER_BOUND ( 'NONE', #707, .T. ) ;
#797 = FACE_OUTER_BOUND ( 'NONE', #696, .T. ) ;
#798 = LINE ( 'NONE', #144, #833 ) ;
#799 = CIRCLE ( 'NONE', #589, 4.025000000000000400 ) ;
#800 = FACE_OUTER_BOUND ( 'NONE', #692, .T. ) ;
#801 = VERTEX_POINT ( 'NONE', #80 ) ;
#802 = VERTEX_POINT ( 'NONE', #82 ) ;
#803 = LINE ( 'NONE', #149, #817 ) ;
#804 = VERTEX_POINT ( 'NONE', #57 ) ;
#805 = VECTOR ( 'NONE', #122, 1000.000000000000000 ) ;
#806 = VERTEX_POINT ( 'NONE', #66 ) ;
#807 = VERTEX_POINT ( 'NONE', #37 ) ;
#808 = VECTOR ( 'NONE', #162, 1000.000000000000000 ) ;
#809 = LINE ( 'NONE', #142, #812 ) ;
#810 = VERTEX_POINT ( 'NONE', #38 ) ;
#811 = FACE_OUTER_BOUND ( 'NONE', #706, .T. ) ;
#812 = VECTOR ( 'NONE', #156, 1000.000000000000100 ) ;
#813 = LINE ( 'NONE', #136, #805 ) ;
#814 = VECTOR ( 'NONE', #161, 1000.000000000000000 ) ;
#815 = FACE_OUTER_BOUND ( 'NONE', #713, .T. ) ;
#816 = VERTEX_POINT ( 'NONE', #39 ) ;
#817 = VECTOR ( 'NONE', #143, 1000.000000000000000 ) ;
#818 = VECTOR ( 'NONE', #158, 1000.000000000000100 ) ;
#819 = CIRCLE ( 'NONE', #575, 3.399999999999996800 ) ;
#820 = LINE ( 'NONE', #155, #848 ) ;
#821 = VERTEX_POINT ( 'NONE', #76 ) ;
#822 = FACE_OUTER_BOUND ( 'NONE', #708, .T. ) ;
#823 = FACE_OUTER_BOUND ( 'NONE', #704, .T. ) ;
#824 = VERTEX_POINT ( 'NONE', #40 ) ;
#825 = FACE_OUTER_BOUND ( 'NONE', #693, .T. ) ;
#826 = FACE_OUTER_BOUND ( 'NONE', #703, .T. ) ;
#827 = FACE_OUTER_BOUND ( 'NONE', #700, .T. ) ;
#828 = CYLINDRICAL_SURFACE ( 'NONE', #762, 3.399999999999998600 ) ;
#829 = VERTEX_POINT ( 'NONE', #42 ) ;
#830 = VERTEX_POINT ( 'NONE', #110 ) ;
#831 = LINE ( 'NONE', #154, #818 ) ;
#832 = VECTOR ( 'NONE', #153, 1000.000000000000000 ) ;
#833 = VECTOR ( 'NONE', #160, 1000.000000000000100 ) ;
#834 = FACE_OUTER_BOUND ( 'NONE', #778, .T. ) ;
#835 = VERTEX_POINT ( 'NONE', #41 ) ;
#836 = CONICAL_SURFACE ( 'NONE', #748, 4.025000000000000400, 0.7853981633974492800 ) ;
#837 = VERTEX_POINT ( 'NONE', #102 ) ;
#838 = VERTEX_POINT ( 'NONE', #88 ) ;
#839 = VECTOR ( 'NONE', #164, 1000.000000000000000 ) ;
#840 = FACE_OUTER_BOUND ( 'NONE', #701, .T. ) ;
#841 = CONICAL_SURFACE ( 'NONE', #578, 4.025000000000000400, 0.7853981633974492800 ) ;
#842 = VERTEX_POINT ( 'NONE', #78 ) ;
#843 = CIRCLE ( 'NONE', #588, 4.025000000000000400 ) ;
#844 = VECTOR ( 'NONE', #152, 1000.000000000000000 ) ;
#845 = LINE ( 'NONE', #146, #844 ) ;
#846 = LINE ( 'NONE', #165, #832 ) ;
#847 = VERTEX_POINT ( 'NONE', #89 ) ;
#848 = VECTOR ( 'NONE', #151, 1000.000000000000100 ) ;
#849 = LINE ( 'NONE', #163, #839 ) ;
#850 = FACE_OUTER_BOUND ( 'NONE', #716, .T. ) ;
#851 = LINE ( 'NONE', #157, #808 ) ;
#852 = LINE ( 'NONE', #150, #814 ) ;
#853 = FACE_OUTER_BOUND ( 'NONE', #702, .T. ) ;
#854 = FACE_OUTER_BOUND ( 'NONE', #699, .T. ) ;
#855 = FACE_OUTER_BOUND ( 'NONE', #695, .T. ) ;
#856 = CYLINDRICAL_SURFACE ( 'NONE', #773, 3.399999999999998600 ) ;
#857 = CYLINDRICAL_SURFACE ( 'NONE', #749, 3.399999999999998600 ) ;
#858 = FACE_OUTER_BOUND ( 'NONE', #715, .T. ) ;
#859 = VECTOR ( 'NONE', #3, 1000.000000000000100 ) ;
#860 = CONICAL_SURFACE ( 'NONE', #758, 4.025000000000000400, 0.7853981633974492800 ) ;
#861 = LINE ( 'NONE', #4, #714 ) ;
#862 = FACE_OUTER_BOUND ( 'NONE', #698, .T. ) ;
#863 = ORIENTED_EDGE ( 'NONE', *, *, #602, .F. ) ;
#864 = ORIENTED_EDGE ( 'NONE', *, *, #536, .F. ) ;
#865 = ORIENTED_EDGE ( 'NONE', *, *, #533, .F. ) ;
#866 = ORIENTED_EDGE ( 'NONE', *, *, #585, .T. ) ;
#867 = ORIENTED_EDGE ( 'NONE', *, *, #601, .T. ) ;
#868 = ORIENTED_EDGE ( 'NONE', *, *, #582, .T. ) ;
#869 = ORIENTED_EDGE ( 'NONE', *, *, #684, .T. ) ;
#870 = ORIENTED_EDGE ( 'NONE', *, *, #609, .F. ) ;
#871 = ORIENTED_EDGE ( 'NONE', *, *, #584, .T. ) ;
#872 = ORIENTED_EDGE ( 'NONE', *, *, #526, .F. ) ;
#873 = ORIENTED_EDGE ( 'NONE', *, *, #674, .F. ) ;
#874 = ORIENTED_EDGE ( 'NONE', *, *, #592, .F. ) ;
#875 = ORIENTED_EDGE ( 'NONE', *, *, #599, .T. ) ;
#876 = ORIENTED_EDGE ( 'NONE', *, *, #526, .T. ) ;
#877 = ORIENTED_EDGE ( 'NONE', *, *, #599, .F. ) ;
#878 = ORIENTED_EDGE ( 'NONE', *, *, #594, .F. ) ;
#879 = ORIENTED_EDGE ( 'NONE', *, *, #609, .T. ) ;
#880 = ORIENTED_EDGE ( 'NONE', *, *, #534, .T. ) ;
#881 = ORIENTED_EDGE ( 'NONE', *, *, #538, .F. ) ;
#882 = ORIENTED_EDGE ( 'NONE', *, *, #608, .T. ) ;
#883 = ORIENTED_EDGE ( 'NONE', *, *, #569, .T. ) ;
#884 = ORIENTED_EDGE ( 'NONE', *, *, #584, .F. ) ;
#885 = ORIENTED_EDGE ( 'NONE', *, *, #573, .T. ) ;
#886 = ORIENTED_EDGE ( 'NONE', *, *, #571, .T. ) ;
#887 = ORIENTED_EDGE ( 'NONE', *, *, #535, .F. ) ;
#888 = ORIENTED_EDGE ( 'NONE', *, *, #687, .F. ) ;
#889 = ORIENTED_EDGE ( 'NONE', *, *, #582, .F. ) ;
#890 = ORIENTED_EDGE ( 'NONE', *, *, #573, .F. ) ;
#891 = ORIENTED_EDGE ( 'NONE', *, *, #577, .F. ) ;
#892 = ORIENTED_EDGE ( 'NONE', *, *, #597, .T. ) ;
#893 = ORIENTED_EDGE ( 'NONE', *, *, #539, .T. ) ;
#894 = ORIENTED_EDGE ( 'NONE', *, *, #603, .T. ) ;
#895 = ORIENTED_EDGE ( 'NONE', *, *, #577, .T. ) ;
#896 = ORIENTED_EDGE ( 'NONE', *, *, #569, .F. ) ;
#897 = ORIENTED_EDGE ( 'NONE', *, *, #535, .T. ) ;
#898 = ORIENTED_EDGE ( 'NONE', *, *, #607, .T. ) ;
#899 = ORIENTED_EDGE ( 'NONE', *, *, #677, .F. ) ;
#900 = ORIENTED_EDGE ( 'NONE', *, *, #593, .F. ) ;
#901 = ORIENTED_EDGE ( 'NONE', *, *, #672, .T. ) ;
#902 = ORIENTED_EDGE ( 'NONE', *, *, #530, .F. ) ;
#903 = ORIENTED_EDGE ( 'NONE', *, *, #571, .F. ) ;
#904 = ORIENTED_EDGE ( 'NONE', *, *, #579, .F. ) ;
#905 = ORIENTED_EDGE ( 'NONE', *, *, #531, .F. ) ;
#906 = ORIENTED_EDGE ( 'NONE', *, *, #598, .F. ) ;
#907 = ORIENTED_EDGE ( 'NONE', *, *, #585, .F. ) ;
#908 = ORIENTED_EDGE ( 'NONE', *, *, #600, .T. ) ;
#909 = ORIENTED_EDGE ( 'NONE', *, *, #590, .F. ) ;
#910 = ORIENTED_EDGE ( 'NONE', *, *, #581, .F. ) ;
#911 = ORIENTED_EDGE ( 'NONE', *, *, #570, .F. ) ;
#912 = ORIENTED_EDGE ( 'NONE', *, *, #689, .F. ) ;
#913 = ORIENTED_EDGE ( 'NONE', *, *, #610, .T. ) ;
#914 = ORIENTED_EDGE ( 'NONE', *, *, #527, .F. ) ;
#915 = ORIENTED_EDGE ( 'NONE', *, *, #597, .F. ) ;
#916 = ORIENTED_EDGE ( 'NONE', *, *, #586, .F. ) ;
#917 = ORIENTED_EDGE ( 'NONE', *, *, #591, .F. ) ;
#918 = ORIENTED_EDGE ( 'NONE', *, *, #531, .T. ) ;
#919 = ORIENTED_EDGE ( 'NONE', *, *, #605, .F. ) ;
#920 = ORIENTED_EDGE ( 'NONE', *, *, #592, .T. ) ;
#921 = ORIENTED_EDGE ( 'NONE', *, *, #591, .T. ) ;
#922 = ORIENTED_EDGE ( 'NONE', *, *, #534, .F. ) ;
#923 = ORIENTED_EDGE ( 'NONE', *, *, #540, .F. ) ;
#924 = ORIENTED_EDGE ( 'NONE', *, *, #676, .F. ) ;
#925 = ORIENTED_EDGE ( 'NONE', *, *, #688, .T. ) ;
#926 = ORIENTED_EDGE ( 'NONE', *, *, #537, .F. ) ;
#927 = ORIENTED_EDGE ( 'NONE', *, *, #533, .T. ) ;
#928 = ORIENTED_EDGE ( 'NONE', *, *, #678, .F. ) ;
#929 = ORIENTED_EDGE ( 'NONE', *, *, #682, .F. ) ;
#930 = ORIENTED_EDGE ( 'NONE', *, *, #529, .T. ) ;
#931 = ORIENTED_EDGE ( 'NONE', *, *, #538, .T. ) ;
#932 = ORIENTED_EDGE ( 'NONE', *, *, #581, .T. ) ;
ENDSEC;
END-ISO-10303-21;
