ISO-10303-21;
HEADER;
FILE_DESCRIPTION (( 'STEP AP203' ),
    '1' );
FILE_NAME ('ALP0518.STEP',
    '2017-02-01T15:23:10',
    ( '' ),
    ( '' ),
    'SwSTEP 2.0',
    'SolidWorks 2012',
    '' );
FILE_SCHEMA (( 'CONFIG_CONTROL_DESIGN' ));
ENDSEC;

DATA;
#1 = DIRECTION ( 'NONE',  ( -0.0000000000000000000, -0.0000000000000000000, -1.000000000000000000 ) ) ;
#2 = DIRECTION ( 'NONE',  ( -2.168404344971003300E-015, 1.000000000000000000, 0.0000000000000000000 ) ) ;
#3 = DESIGN_CONTEXT ( 'detailed design', #1241, 'design' ) ;
#4 = PRODUCT_DEFINITION_SHAPE ( 'NONE', 'NONE',  #207 ) ;
#5 = ADVANCED_FACE ( 'NONE', ( #861 ), #887, .T. ) ;
#6 = ADVANCED_FACE ( 'NONE', ( #894 ), #564, .T. ) ;
#7 = ADVANCED_FACE ( 'NONE', ( #877 ), #567, .F. ) ;
#8 = ADVANCED_FACE ( 'NONE', ( #1088 ), #566, .F. ) ;
#9 = ADVANCED_FACE ( 'NONE', ( #896 ), #612, .F. ) ;
#10 = ADVANCED_FACE ( 'NONE', ( #906 ), #569, .F. ) ;
#11 = ADVANCED_FACE ( 'NONE', ( #905 ), #595, .T. ) ;
#12 = ADVANCED_FACE ( 'NONE', ( #873 ), #863, .T. ) ;
#13 = ADVANCED_FACE ( 'NONE', ( #862 ), #588, .F. ) ;
#14 = ADVANCED_FACE ( 'NONE', ( #865 ), #874, .F. ) ;
#15 = ADVANCED_FACE ( 'NONE', ( #859 ), #593, .F. ) ;
#16 = ADVANCED_FACE ( 'NONE', ( #867 ), #584, .F. ) ;
#17 = ADVANCED_FACE ( 'NONE', ( #860 ), #582, .T. ) ;
#18 = ADVANCED_FACE ( 'NONE', ( #884 ), #596, .F. ) ;
#19 = ADVANCED_FACE ( 'NONE', ( #907 ), #605, .F. ) ;
#20 = ADVANCED_FACE ( 'NONE', ( #864 ), #609, .T. ) ;
#21 = ADVANCED_FACE ( 'NONE', ( #890 ), #614, .F. ) ;
#22 = ADVANCED_FACE ( 'NONE', ( #897 ), #888, .T. ) ;
#23 = ADVANCED_FACE ( 'NONE', ( #866 ), #462, .F. ) ;
#24 = ADVANCED_FACE ( 'NONE', ( #868 ), #891, .F. ) ;
#25 = ADVANCED_FACE ( 'NONE', ( #876 ), #439, .F. ) ;
#26 = ADVANCED_FACE ( 'NONE', ( #900 ), #885, .T. ) ;
#27 = ADVANCED_FACE ( 'NONE', ( #903 ), #880, .F. ) ;
#28 = ADVANCED_FACE ( 'NONE', ( #881 ), #871, .F. ) ;
#29 = ADVANCED_FACE ( 'NONE', ( #872 ), #443, .F. ) ;
#30 = ADVANCED_FACE ( 'NONE', ( #869 ), #455, .T. ) ;
#31 = ADVANCED_FACE ( 'NONE', ( #892 ), #879, .T. ) ;
#32 = ADVANCED_FACE ( 'NONE', ( #902, #886 ), #495, .F. ) ;
#33 = ADVANCED_FACE ( 'NONE', ( #901 ), #893, .T. ) ;
#34 = ADVANCED_FACE ( 'NONE', ( #895 ), #942, .F. ) ;
#35 = ADVANCED_FACE ( 'NONE', ( #878 ), #479, .F. ) ;
#36 = ADVANCED_FACE ( 'NONE', ( #965 ), #477, .F. ) ;
#37 = ADVANCED_FACE ( 'NONE', ( #904 ), #497, .F. ) ;
#38 = ADVANCED_FACE ( 'NONE', ( #875 ), #486, .T. ) ;
#39 = ADVANCED_FACE ( 'NONE', ( #912 ), #914, .F. ) ;
#40 = ADVANCED_FACE ( 'NONE', ( #964 ), #933, .T. ) ;
#41 = ADVANCED_FACE ( 'NONE', ( #950 ), #949, .T. ) ;
#42 = ADVANCED_FACE ( 'NONE', ( #929 ), #489, .F. ) ;
#43 = ADVANCED_FACE ( 'NONE', ( #930 ), #936, .F. ) ;
#44 = ADVANCED_FACE ( 'NONE', ( #920 ), #541, .F. ) ;
#45 = DIRECTION ( 'NONE',  ( -1.000000000000000000, -7.359237060048027600E-016, 0.0000000000000000000 ) ) ;
#46 = CARTESIAN_POINT ( 'NONE',  ( 0.0000000000000000000, 4.299999999999999800, 0.0000000000000000000 ) ) ;
#47 = DIRECTION ( 'NONE',  ( -0.5735764363510504900, 0.8191520442889888000, 0.0000000000000000000 ) ) ;
#48 = DIRECTION ( 'NONE',  ( 0.0000000000000000000, 0.0000000000000000000, 1.000000000000000000 ) ) ;
#49 = CARTESIAN_POINT ( 'NONE',  ( 2.044212999274302800, 6.855323878632723300, 0.0000000000000000000 ) ) ;
#50 = CARTESIAN_POINT ( 'NONE',  ( 6.063830408857800300, 1.114715287270210900, -8.000000000000000000 ) ) ;
#51 = CARTESIAN_POINT ( 'NONE',  ( -3.099999999999997400, 9.200000000000002800, -8.000000000000000000 ) ) ;
#52 = DIRECTION ( 'NONE',  ( 0.0000000000000000000, 0.0000000000000000000, 1.000000000000000000 ) ) ;
#53 = CARTESIAN_POINT ( 'NONE',  ( 0.8955096817967515000, 8.147152872702104500, -8.000000000000000000 ) ) ;
#54 = DIRECTION ( 'NONE',  ( -1.000000000000000000, -7.359237060048027600E-016, 0.0000000000000000000 ) ) ;
#55 = DIRECTION ( 'NONE',  ( 0.8191520442889888000, 0.5735764363510504900, 0.0000000000000000000 ) ) ;
#56 = DIRECTION ( 'NONE',  ( -0.5735764363510504900, 0.8191520442889888000, 0.0000000000000000000 ) ) ;
#57 = DIRECTION ( 'NONE',  ( -0.5735764363510502700, 0.8191520442889888000, 0.0000000000000000000 ) ) ;
#58 = DIRECTION ( 'NONE',  ( 0.0000000000000000000, 0.0000000000000000000, 1.000000000000000000 ) ) ;
#59 = CARTESIAN_POINT ( 'NONE',  ( -0.7427944067812265500, 7.000000000000002700, 2.999999999999999100 ) ) ;
#60 = DIRECTION ( 'NONE',  ( -0.0000000000000000000, 0.0000000000000000000, -1.000000000000000000 ) ) ;
#61 = DIRECTION ( 'NONE',  ( -1.000000000000000000, 0.0000000000000000000, 0.0000000000000000000 ) ) ;
#62 = CARTESIAN_POINT ( 'NONE',  ( -0.7427944067812268800, 9.000000000000005300, -8.000000000000000000 ) ) ;
#63 = CARTESIAN_POINT ( 'NONE',  ( -0.7427944067812268800, 9.200000000000004600, 8.000000000000000000 ) ) ;
#64 = CARTESIAN_POINT ( 'NONE',  ( 2.044212999274302800, 6.855323878632723300, 3.000000000000000000 ) ) ;
#65 = EDGE_CURVE ( 'NONE', #820, #794, #909, .T. ) ;
#66 = EDGE_CURVE ( 'NONE', #774, #763, #946, .T. ) ;
#67 = EDGE_CURVE ( 'NONE', #753, #790, #910, .T. ) ;
#68 = EDGE_CURVE ( 'NONE', #815, #795, #911, .T. ) ;
#69 = EDGE_CURVE ( 'NONE', #790, #747, #952, .T. ) ;
#70 = EDGE_CURVE ( 'NONE', #762, #793, #938, .T. ) ;
#71 = EDGE_CURVE ( 'NONE', #801, #803, #913, .T. ) ;
#72 = EDGE_CURVE ( 'NONE', #797, #804, #916, .T. ) ;
#73 = EDGE_CURVE ( 'NONE', #790, #797, #918, .T. ) ;
#74 = EDGE_CURVE ( 'NONE', #814, #824, #917, .T. ) ;
#75 = EDGE_CURVE ( 'NONE', #789, #808, #962, .T. ) ;
#76 = EDGE_CURVE ( 'NONE', #1087, #748, #919, .T. ) ;
#77 = EDGE_CURVE ( 'NONE', #797, #805, #945, .T. ) ;
#78 = EDGE_CURVE ( 'NONE', #808, #791, #948, .T. ) ;
#79 = EDGE_CURVE ( 'NONE', #805, #825, #961, .T. ) ;
#80 = EDGE_CURVE ( 'NONE', #792, #794, #925, .T. ) ;
#81 = EDGE_CURVE ( 'NONE', #813, #822, #628, .T. ) ;
#82 = EDGE_CURVE ( 'NONE', #826, #806, #963, .T. ) ;
#83 = EDGE_CURVE ( 'NONE', #825, #803, #926, .T. ) ;
#84 = EDGE_CURVE ( 'NONE', #805, #801, #937, .T. ) ;
#85 = EDGE_CURVE ( 'NONE', #811, #824, #939, .T. ) ;
#86 = EDGE_CURVE ( 'NONE', #793, #826, #954, .T. ) ;
#87 = EDGE_CURVE ( 'NONE', #822, #826, #932, .T. ) ;
#88 = EDGE_CURVE ( 'NONE', #824, #815, #958, .T. ) ;
#89 = EDGE_CURVE ( 'NONE', #806, #825, #955, .T. ) ;
#90 = EDGE_CURVE ( 'NONE', #794, #819, #973, .T. ) ;
#91 = EDGE_CURVE ( 'NONE', #738, #761, #967, .T. ) ;
#92 = EDGE_CURVE ( 'NONE', #747, #804, #625, .T. ) ;
#93 = EDGE_CURVE ( 'NONE', #814, #789, #980, .T. ) ;
#94 = EDGE_CURVE ( 'NONE', #812, #802, #970, .T. ) ;
#95 = EDGE_CURVE ( 'NONE', #791, #792, #971, .T. ) ;
#96 = EDGE_CURVE ( 'NONE', #813, #804, #974, .T. ) ;
#97 = EDGE_CURVE ( 'NONE', #791, #820, #972, .T. ) ;
#98 = EDGE_CURVE ( 'NONE', #795, #820, #985, .T. ) ;
#99 = EDGE_CURVE ( 'NONE', #803, #802, #981, .T. ) ;
#100 = EDGE_CURVE ( 'NONE', #821, #802, #977, .T. ) ;
#101 = EDGE_CURVE ( 'NONE', #789, #815, #993, .T. ) ;
#102 = EDGE_CURVE ( 'NONE', #735, #786, #986, .T. ) ;
#103 = EDGE_CURVE ( 'NONE', #801, #821, #983, .T. ) ;
#104 = EDGE_CURVE ( 'NONE', #772, #823, #988, .T. ) ;
#105 = EDGE_CURVE ( 'NONE', #745, #743, #968, .T. ) ;
#106 = EDGE_CURVE ( 'NONE', #737, #821, #1000, .T. ) ;
#107 = EDGE_CURVE ( 'NONE', #808, #795, #998, .T. ) ;
#108 = EDGE_CURVE ( 'NONE', #744, #814, #1045, .T. ) ;
#109 = EDGE_CURVE ( 'NONE', #792, #800, #1022, .T. ) ;
#110 = EDGE_CURVE ( 'NONE', #788, #763, #1002, .T. ) ;
#111 = EDGE_CURVE ( 'NONE', #798, #766, #1015, .T. ) ;
#112 = EDGE_CURVE ( 'NONE', #734, #787, #1003, .T. ) ;
#113 = EDGE_CURVE ( 'NONE', #813, #806, #1027, .T. ) ;
#114 = EDGE_CURVE ( 'NONE', #736, #755, #1001, .T. ) ;
#115 = EDGE_CURVE ( 'NONE', #763, #783, #1006, .T. ) ;
#116 = EDGE_CURVE ( 'NONE', #738, #735, #1005, .T. ) ;
#117 = EDGE_CURVE ( 'NONE', #755, #772, #1020, .T. ) ;
#118 = EDGE_CURVE ( 'NONE', #748, #818, #1030, .T. ) ;
#119 = EDGE_CURVE ( 'NONE', #744, #811, #1041, .T. ) ;
#120 = EDGE_CURVE ( 'NONE', #799, #796, #1023, .T. ) ;
#121 = EDGE_CURVE ( 'NONE', #767, #751, #1007, .T. ) ;
#122 = EDGE_CURVE ( 'NONE', #811, #816, #1008, .T. ) ;
#123 = EDGE_CURVE ( 'NONE', #783, #752, #1029, .T. ) ;
#124 = EDGE_CURVE ( 'NONE', #796, #755, #1012, .T. ) ;
#125 = EDGE_CURVE ( 'NONE', #732, #730, #1031, .T. ) ;
#126 = EDGE_CURVE ( 'NONE', #731, #781, #1025, .T. ) ;
#127 = EDGE_CURVE ( 'NONE', #767, #754, #1037, .T. ) ;
#128 = EDGE_CURVE ( 'NONE', #746, #1087, #1017, .T. ) ;
#129 = EDGE_CURVE ( 'NONE', #768, #1087, #1039, .T. ) ;
#130 = EDGE_CURVE ( 'NONE', #782, #747, #629, .T. ) ;
#131 = EDGE_CURVE ( 'NONE', #735, #822, #1042, .T. ) ;
#132 = EDGE_CURVE ( 'NONE', #822, #762, #627, .T. ) ;
#133 = EDGE_CURVE ( 'NONE', #745, #775, #1021, .T. ) ;
#134 = EDGE_CURVE ( 'NONE', #782, #762, #1036, .T. ) ;
#135 = EDGE_CURVE ( 'NONE', #817, #743, #1050, .T. ) ;
#136 = EDGE_CURVE ( 'NONE', #737, #778, #1073, .T. ) ;
#137 = EDGE_CURVE ( 'NONE', #766, #767, #1066, .T. ) ;
#138 = EDGE_CURVE ( 'NONE', #766, #736, #1046, .T. ) ;
#139 = EDGE_CURVE ( 'NONE', #751, #778, #1057, .T. ) ;
#140 = EDGE_CURVE ( 'NONE', #812, #737, #1047, .T. ) ;
#141 = EDGE_CURVE ( 'NONE', #788, #746, #1048, .T. ) ;
#142 = EDGE_CURVE ( 'NONE', #761, #786, #1049, .T. ) ;
#143 = EDGE_CURVE ( 'NONE', #775, #773, #1062, .T. ) ;
#144 = EDGE_CURVE ( 'NONE', #823, #796, #1071, .T. ) ;
#145 = EDGE_CURVE ( 'NONE', #745, #734, #1055, .T. ) ;
#146 = EDGE_CURVE ( 'NONE', #736, #799, #1063, .T. ) ;
#147 = EDGE_CURVE ( 'NONE', #798, #732, #1051, .T. ) ;
#148 = EDGE_CURVE ( 'NONE', #786, #747, #1056, .T. ) ;
#149 = EDGE_CURVE ( 'NONE', #817, #746, #1065, .T. ) ;
#150 = EDGE_CURVE ( 'NONE', #786, #735, #1069, .T. ) ;
#151 = EDGE_CURVE ( 'NONE', #742, #788, #1064, .T. ) ;
#152 = EDGE_CURVE ( 'NONE', #778, #754, #1058, .T. ) ;
#153 = EDGE_CURVE ( 'NONE', #742, #817, #1078, .T. ) ;
#154 = EDGE_CURVE ( 'NONE', #731, #734, #1080, .T. ) ;
#155 = EDGE_CURVE ( 'NONE', #744, #781, #1082, .T. ) ;
#156 = EDGE_CURVE ( 'NONE', #773, #748, #1083, .T. ) ;
#157 = EDGE_CURVE ( 'NONE', #787, #743, #1085, .T. ) ;
#158 = EDGE_CURVE ( 'NONE', #787, #751, #1075, .T. ) ;
#159 = EDGE_CURVE ( 'NONE', #754, #772, #941, .T. ) ;
#160 = EDGE_CURVE ( 'NONE', #783, #768, #996, .T. ) ;
#161 = EDGE_CURVE ( 'NONE', #812, #742, #1072, .T. ) ;
#162 = EDGE_CURVE ( 'NONE', #816, #775, #994, .T. ) ;
#163 = EDGE_CURVE ( 'NONE', #761, #738, #1346, .T. ) ;
#164 = AXIS2_PLACEMENT_3D ( 'NONE', #576, #598, #599 ) ;
#165 = EDGE_CURVE ( 'NONE', #732, #731, #1335, .T. ) ;
#166 = AXIS2_PLACEMENT_3D ( 'NONE', #580, #578, #601 ) ;
#167 = AXIS2_PLACEMENT_3D ( 'NONE', #621, #616, #622 ) ;
#168 = AXIS2_PLACEMENT_3D ( 'NONE', #617, #623, #619 ) ;
#169 = AXIS2_PLACEMENT_3D ( 'NONE', #463, #459, #457 ) ;
#170 = AXIS2_PLACEMENT_3D ( 'NONE', #456, #458, #451 ) ;
#171 = AXIS2_PLACEMENT_3D ( 'NONE', #440, #441, #442 ) ;
#172 = AXIS2_PLACEMENT_3D ( 'NONE', #585, #574, #577 ) ;
#173 = AXIS2_PLACEMENT_3D ( 'NONE', #587, #603, #606 ) ;
#174 = AXIS2_PLACEMENT_3D ( 'NONE', #449, #450, #453 ) ;
#175 = AXIS2_PLACEMENT_3D ( 'NONE', #570, #610, #589 ) ;
#176 = AXIS2_PLACEMENT_3D ( 'NONE', #460, #448, #461 ) ;
#177 = AXIS2_PLACEMENT_3D ( 'NONE', #445, #446, #447 ) ;
#178 = AXIS2_PLACEMENT_3D ( 'NONE', #615, #618, #620 ) ;
#179 = EDGE_CURVE ( 'NONE', #730, #823, #1336, .T. ) ;
#180 = EDGE_CURVE ( 'NONE', #740, #773, #1333, .T. ) ;
#181 = EDGE_CURVE ( 'NONE', #818, #768, #1331, .T. ) ;
#182 = EDGE_CURVE ( 'NONE', #753, #782, #1339, .T. ) ;
#183 = EDGE_CURVE ( 'NONE', #816, #740, #1340, .T. ) ;
#184 = EDGE_CURVE ( 'NONE', #800, #753, #1343, .T. ) ;
#185 = EDGE_CURVE ( 'NONE', #752, #818, #1345, .T. ) ;
#186 = EDGE_CURVE ( 'NONE', #752, #774, #1344, .T. ) ;
#187 = AXIS2_PLACEMENT_3D ( 'NONE', #565, #555, #556 ) ;
#188 = EDGE_CURVE ( 'NONE', #819, #793, #1342, .T. ) ;
#189 = AXIS2_PLACEMENT_3D ( 'NONE', #562, #558, #559 ) ;
#190 = EDGE_CURVE ( 'NONE', #799, #798, #1324, .T. ) ;
#191 = EDGE_CURVE ( 'NONE', #781, #730, #1326, .T. ) ;
#192 = AXIS2_PLACEMENT_3D ( 'NONE', #560, #563, #561 ) ;
#193 = AXIS2_PLACEMENT_3D ( 'NONE', #579, #592, #568 ) ;
#194 = AXIS2_PLACEMENT_3D ( 'NONE', #590, #573, #594 ) ;
#195 = EDGE_CURVE ( 'NONE', #800, #819, #1325, .T. ) ;
#196 = AXIS2_PLACEMENT_3D ( 'NONE', #604, #571, #572 ) ;
#197 = EDGE_CURVE ( 'NONE', #740, #774, #1328, .T. ) ;
#198 = AXIS2_PLACEMENT_3D ( 'NONE', #600, #586, #581 ) ;
#199 = AXIS2_PLACEMENT_3D ( 'NONE', #583, #602, #597 ) ;
#200 = AXIS2_PLACEMENT_3D ( 'NONE', #607, #608, #613 ) ;
#201 = AXIS2_PLACEMENT_3D ( 'NONE', #452, #454, #444 ) ;
#202 = AXIS2_PLACEMENT_3D ( 'NONE', #611, #575, #591 ) ;
#203 = AXIS2_PLACEMENT_3D ( 'NONE', #488, #509, #493 ) ;
#204 = AXIS2_PLACEMENT_3D ( 'NONE', #1255, #1285, #1294 ) ;
#205 = CC_DESIGN_PERSON_AND_ORGANIZATION_ASSIGNMENT ( #1349, #1237, ( #1316 ) ) ;
#206 = AXIS2_PLACEMENT_3D ( 'NONE', #360, #372, #373 ) ;
#207 = PRODUCT_DEFINITION ( 'UNKNOWN', '', #227, #3 ) ;
#208 = AXIS2_PLACEMENT_3D ( 'NONE', #287, #288, #280 ) ;
#209 = AXIS2_PLACEMENT_3D ( 'NONE', #307, #336, #337 ) ;
#210 = AXIS2_PLACEMENT_3D ( 'NONE', #409, #421, #389 ) ;
#211 =( GEOMETRIC_REPRESENTATION_CONTEXT ( 3 ) GLOBAL_UNCERTAINTY_ASSIGNED_CONTEXT ( ( #626 ) ) GLOBAL_UNIT_ASSIGNED_CONTEXT ( ( #1196, #1223, #1235 ) ) REPRESENTATION_CONTEXT ( 'NONE', 'WORKASPACE' ) );
#212 = AXIS2_PLACEMENT_3D ( 'NONE', #547, #550, #551 ) ;
#213 = AXIS2_PLACEMENT_3D ( 'NONE', #546, #527, #536 ) ;
#214 = AXIS2_PLACEMENT_3D ( 'NONE', #420, #393, #418 ) ;
#215 = AXIS2_PLACEMENT_3D ( 'NONE', #351, #370, #382 ) ;
#216 = AXIS2_PLACEMENT_3D ( 'NONE', #406, #403, #407 ) ;
#217 = AXIS2_PLACEMENT_3D ( 'NONE', #483, #501, #502 ) ;
#218 = AXIS2_PLACEMENT_3D ( 'NONE', #533, #532, #539 ) ;
#219 = AXIS2_PLACEMENT_3D ( 'NONE', #1251, #1245, #1253 ) ;
#220 = APPROVAL ( #1199, 'UNSPECIFIED' ) ;
#221 = CC_DESIGN_APPROVAL ( #220, ( #207 ) ) ;
#222 = AXIS2_PLACEMENT_3D ( 'NONE', #470, #465, #473 ) ;
#223 = CC_DESIGN_PERSON_AND_ORGANIZATION_ASSIGNMENT ( #1377, #1204, ( #207 ) ) ;
#224 = AXIS2_PLACEMENT_3D ( 'NONE', #1295, #1280, #1263 ) ;
#225 = AXIS2_PLACEMENT_3D ( 'NONE', #1207, #1201, #1221 ) ;
#226 = CC_DESIGN_DATE_AND_TIME_ASSIGNMENT ( #1373, #1232, ( #207 ) ) ;
#227 = PRODUCT_DEFINITION_FORMATION_WITH_SPECIFIED_SOURCE ( 'ANY', '', #1316, .NOT_KNOWN. ) ;
#228 = AXIS2_PLACEMENT_3D ( 'NONE', #414, #412, #388 ) ;
#229 = AXIS2_PLACEMENT_3D ( 'NONE', #380, #385, #358 ) ;
#230 = AXIS2_PLACEMENT_3D ( 'NONE', #504, #505, #506 ) ;
#231 = AXIS2_PLACEMENT_3D ( 'NONE', #426, #428, #430 ) ;
#232 = AXIS2_PLACEMENT_3D ( 'NONE', #476, #466, #492 ) ;
#233 = AXIS2_PLACEMENT_3D ( 'NONE', #468, #494, #471 ) ;
#234 = AXIS2_PLACEMENT_3D ( 'NONE', #507, #487, #491 ) ;
#235 = AXIS2_PLACEMENT_3D ( 'NONE', #510, #478, #496 ) ;
#236 = AXIS2_PLACEMENT_3D ( 'NONE', #503, #469, #464 ) ;
#237 = AXIS2_PLACEMENT_3D ( 'NONE', #480, #484, #485 ) ;
#238 = AXIS2_PLACEMENT_3D ( 'NONE', #481, #508, #511 ) ;
#239 = AXIS2_PLACEMENT_3D ( 'NONE', #306, #302, #305 ) ;
#240 = AXIS2_PLACEMENT_3D ( 'NONE', #270, #292, #271 ) ;
#241 = AXIS2_PLACEMENT_3D ( 'NONE', #344, #374, #345 ) ;
#242 = AXIS2_PLACEMENT_3D ( 'NONE', #398, #404, #408 ) ;
#243 = AXIS2_PLACEMENT_3D ( 'NONE', #317, #323, #314 ) ;
#244 = AXIS2_PLACEMENT_3D ( 'NONE', #437, #438, #434 ) ;
#245 = AXIS2_PLACEMENT_3D ( 'NONE', #431, #432, #435 ) ;
#246 = AXIS2_PLACEMENT_3D ( 'NONE', #436, #424, #427 ) ;
#247 = AXIS2_PLACEMENT_3D ( 'NONE', #49, #55, #56 ) ;
#248 = AXIS2_PLACEMENT_3D ( 'NONE', #46, #1318, #1319 ) ;
#249 = AXIS2_PLACEMENT_3D ( 'NONE', #498, #482, #474 ) ;
#250 = AXIS2_PLACEMENT_3D ( 'NONE', #376, #350, #346 ) ;
#251 = AXIS2_PLACEMENT_3D ( 'NONE', #59, #60, #61 ) ;
#252 = AXIS2_PLACEMENT_3D ( 'NONE', #1256, #1248, #1252 ) ;
#253 = AXIS2_PLACEMENT_3D ( 'NONE', #472, #500, #490 ) ;
#254 = AXIS2_PLACEMENT_3D ( 'NONE', #475, #467, #499 ) ;
#255 = APPROVAL ( #1209, 'UNSPECIFIED' ) ;
#256 = CC_DESIGN_PERSON_AND_ORGANIZATION_ASSIGNMENT ( #1381, #1224, ( #227 ) ) ;
#257 = CC_DESIGN_SECURITY_CLASSIFICATION ( #263, ( #227 ) ) ;
#258 = CC_DESIGN_APPROVAL ( #255, ( #227 ) ) ;
#259 = CC_DESIGN_PERSON_AND_ORGANIZATION_ASSIGNMENT ( #1351, #1242, ( #227 ) ) ;
#260 = CC_DESIGN_DATE_AND_TIME_ASSIGNMENT ( #1353, #1213, ( #263 ) ) ;
#261 = APPROVAL ( #1195, 'UNSPECIFIED' ) ;
#262 = PRODUCT_RELATED_PRODUCT_CATEGORY ( 'detail', '', ( #1316 ) ) ;
#263 = SECURITY_CLASSIFICATION ( '', '', #1230 ) ;
#264 = CC_DESIGN_PERSON_AND_ORGANIZATION_ASSIGNMENT ( #1366, #1225, ( #263 ) ) ;
#265 = CC_DESIGN_APPROVAL ( #261, ( #263 ) ) ;
#266 = DIRECTION ( 'NONE',  ( -0.5735764363510503800, 0.8191520442889888000, 0.0000000000000000000 ) ) ;
#267 = CARTESIAN_POINT ( 'NONE',  ( 5.900000000000002100, 1.000000000000000900, 8.000000000000000000 ) ) ;
#268 = CARTESIAN_POINT ( 'NONE',  ( -12.28856717251798300, 8.999999999999996400, -3.000000000000000000 ) ) ;
#269 = DIRECTION ( 'NONE',  ( 0.5735764363510503800, -0.8191520442889888000, 0.0000000000000000000 ) ) ;
#270 = CARTESIAN_POINT ( 'NONE',  ( 3.068748073356192000, 3.299999999999999800, -8.000000000000000000 ) ) ;
#271 = DIRECTION ( 'NONE',  ( 1.000000000000000000, 0.0000000000000000000, 0.0000000000000000000 ) ) ;
#272 = CARTESIAN_POINT ( 'NONE',  ( 0.4999999999999952300, 0.0000000000000000000, -8.000000000000000000 ) ) ;
#273 = CARTESIAN_POINT ( 'NONE',  ( 4.000000000000000000, 0.0000000000000000000, 8.000000000000000000 ) ) ;
#274 = DIRECTION ( 'NONE',  ( 1.000000000000000000, 0.0000000000000000000, 0.0000000000000000000 ) ) ;
#275 = CARTESIAN_POINT ( 'NONE',  ( 4.653657836759942700E-016, 0.5000000000000000000, 2.524999999999999000 ) ) ;
#276 = DIRECTION ( 'NONE',  ( 0.0000000000000000000, 1.000000000000000000, 0.0000000000000000000 ) ) ;
#277 = CARTESIAN_POINT ( 'NONE',  ( -4.000000000000000000, 3.469446951953614200E-015, -8.000000000000000000 ) ) ;
#278 = DIRECTION ( 'NONE',  ( -0.0000000000000000000, -1.000000000000000000, -0.0000000000000000000 ) ) ;
#279 = CARTESIAN_POINT ( 'NONE',  ( 0.4999999999999952300, 0.0000000000000000000, 2.983391526434303400 ) ) ;
#280 = DIRECTION ( 'NONE',  ( 1.000000000000000000, 0.0000000000000000000, 0.0000000000000000000 ) ) ;
#281 = CARTESIAN_POINT ( 'NONE',  ( -4.000000000000000000, 1.000000000000001800, 8.000000000000000000 ) ) ;
#282 = CARTESIAN_POINT ( 'NONE',  ( 3.068748073356192000, 4.299999999999999800, -8.000000000000000000 ) ) ;
#283 = CARTESIAN_POINT ( 'NONE',  ( 6.063830408857800300, 1.114715287270210900, -8.000000000000000000 ) ) ;
#284 = CARTESIAN_POINT ( 'NONE',  ( 4.000000000000000000, 0.0000000000000000000, -8.000000000000000000 ) ) ;
#285 = DIRECTION ( 'NONE',  ( -1.000000000000000000, -1.413217568296177700E-016, 0.0000000000000000000 ) ) ;
#286 = DIRECTION ( 'NONE',  ( 0.0000000000000000000, 1.000000000000000000, 0.0000000000000000000 ) ) ;
#287 = CARTESIAN_POINT ( 'NONE',  ( 0.0000000000000000000, 4.299999999999999800, 0.0000000000000000000 ) ) ;
#288 = DIRECTION ( 'NONE',  ( 1.413217568296177700E-016, -1.000000000000000000, 0.0000000000000000000 ) ) ;
#289 = CARTESIAN_POINT ( 'NONE',  ( 0.1623072875484925500, 0.3376927124515062300, 2.687307287548514400 ) ) ;
#290 = CARTESIAN_POINT ( 'NONE',  ( 4.000000000000000000, 1.000000000000000000, -8.000000000000000000 ) ) ;
#291 = DIRECTION ( 'NONE',  ( -0.8191520442889888000, -0.5735764363510504900, 0.0000000000000000000 ) ) ;
#292 = DIRECTION ( 'NONE',  ( 0.0000000000000000000, 0.0000000000000000000, 1.000000000000000000 ) ) ;
#293 = CARTESIAN_POINT ( 'NONE',  ( 3.068748073356192000, 4.299999999999999800, 8.000000000000000000 ) ) ;
#294 = DIRECTION ( 'NONE',  ( -1.000000000000000000, -1.413217568296177700E-016, 0.0000000000000000000 ) ) ;
#295 = DIRECTION ( 'NONE',  ( 1.000000000000000000, -4.565061778886329100E-016, -0.0000000000000000000 ) ) ;
#296 = DIRECTION ( 'NONE',  ( 1.000000000000000000, 4.565061778886329100E-016, 0.0000000000000000000 ) ) ;
#297 = CARTESIAN_POINT ( 'NONE',  ( -0.4999999999999952300, 3.469446951953614200E-015, -8.000000000000000000 ) ) ;
#298 = DIRECTION ( 'NONE',  ( 0.7071067811865469100, 0.7071067811865482400, 0.0000000000000000000 ) ) ;
#299 = CARTESIAN_POINT ( 'NONE',  ( 0.3294565384477607900, 0.1705434615522362600, 2.839051691516944100 ) ) ;
#300 = DIRECTION ( 'NONE',  ( -0.0000000000000000000, -0.0000000000000000000, -1.000000000000000000 ) ) ;
#301 = CARTESIAN_POINT ( 'NONE',  ( 4.653657836759942700E-016, 0.5000000000000000000, 8.000000000000000000 ) ) ;
#302 = DIRECTION ( 'NONE',  ( -0.0000000000000000000, -1.000000000000000000, -0.0000000000000000000 ) ) ;
#303 = CARTESIAN_POINT ( 'NONE',  ( -3.099999999999997400, 9.200000000000002800, -5.000000000000000000 ) ) ;
#304 = CARTESIAN_POINT ( 'NONE',  ( -3.068748073356192000, 4.299999999999998900, 8.000000000000000000 ) ) ;
#305 = DIRECTION ( 'NONE',  ( 0.0000000000000000000, 0.0000000000000000000, -1.000000000000000000 ) ) ;
#306 = CARTESIAN_POINT ( 'NONE',  ( 0.0000000000000000000, 0.0000000000000000000, 0.0000000000000000000 ) ) ;
#307 = CARTESIAN_POINT ( 'NONE',  ( 0.0000000000000000000, 0.5249999999999990200, 0.0000000000000000000 ) ) ;
#308 = DIRECTION ( 'NONE',  ( 0.8191520442889888000, 0.5735764363510503800, -0.0000000000000000000 ) ) ;
#309 = DIRECTION ( 'NONE',  ( -0.5735764363510507100, -0.8191520442889885800, -0.0000000000000000000 ) ) ;
#310 = CARTESIAN_POINT ( 'NONE',  ( -0.7427944067812268800, 9.200000000000004600, -8.000000000000000000 ) ) ;
#311 = CARTESIAN_POINT ( 'NONE',  ( -3.887900117645180800, 3.873576436351049000, 8.000000000000000000 ) ) ;
#312 = DIRECTION ( 'NONE',  ( 0.0000000000000000000, 0.0000000000000000000, 1.000000000000000000 ) ) ;
#313 = CARTESIAN_POINT ( 'NONE',  ( 6.063830408857800300, 1.114715287270210900, 8.000000000000000000 ) ) ;
#314 = DIRECTION ( 'NONE',  ( 1.000000000000000000, 0.0000000000000000000, 0.0000000000000000000 ) ) ;
#315 = DIRECTION ( 'NONE',  ( 0.8191520442889888000, 0.5735764363510503800, -0.0000000000000000000 ) ) ;
#316 = CARTESIAN_POINT ( 'NONE',  ( -1.099999999999996800, 9.000000000000007100, 8.000000000000000000 ) ) ;
#317 = CARTESIAN_POINT ( 'NONE',  ( 3.068748073356192000, 3.299999999999999800, 8.000000000000000000 ) ) ;
#318 = DIRECTION ( 'NONE',  ( -0.0000000000000000000, -1.000000000000000000, -0.0000000000000000000 ) ) ;
#319 = DIRECTION ( 'NONE',  ( 2.168404344971003300E-015, -1.000000000000000000, -0.0000000000000000000 ) ) ;
#320 = DIRECTION ( 'NONE',  ( -0.8191520442889888000, -0.5735764363510504900, 0.0000000000000000000 ) ) ;
#321 = DIRECTION ( 'NONE',  ( -0.0000000000000000000, -0.0000000000000000000, -1.000000000000000000 ) ) ;
#322 = CARTESIAN_POINT ( 'NONE',  ( 5.900000000000002100, 1.000000000000000900, 8.000000000000000000 ) ) ;
#323 = DIRECTION ( 'NONE',  ( 0.0000000000000000000, 0.0000000000000000000, 1.000000000000000000 ) ) ;
#324 = CARTESIAN_POINT ( 'NONE',  ( -1.099999999999997200, 9.200000000000006400, 3.000000000000000000 ) ) ;
#325 = CARTESIAN_POINT ( 'NONE',  ( 0.0000000000000000000, 0.0000000000000000000, -2.499999999999999600 ) ) ;
#326 = CARTESIAN_POINT ( 'NONE',  ( 0.4999999999999952300, 0.0000000000000000000, 8.000000000000000000 ) ) ;
#327 = DIRECTION ( 'NONE',  ( -2.168404344971003300E-015, 1.000000000000000000, -0.0000000000000000000 ) ) ;
#328 = DIRECTION ( 'NONE',  ( -0.0000000000000000000, -0.0000000000000000000, -1.000000000000000000 ) ) ;
#329 = DIRECTION ( 'NONE',  ( 1.000000000000000000, 4.565061778886329100E-016, 0.0000000000000000000 ) ) ;
#330 = CARTESIAN_POINT ( 'NONE',  ( 4.000000000000000000, 1.000000000000000000, 8.000000000000000000 ) ) ;
#331 = DIRECTION ( 'NONE',  ( -1.000000000000000000, -7.359237060048027600E-016, 0.0000000000000000000 ) ) ;
#332 = CARTESIAN_POINT ( 'NONE',  ( -5.900000000000002100, 1.000000000000002700, -8.000000000000000000 ) ) ;
#333 = CARTESIAN_POINT ( 'NONE',  ( -3.099999999999997400, 9.200000000000002800, -8.000000000000000000 ) ) ;
#334 = DIRECTION ( 'NONE',  ( -0.0000000000000000000, -0.0000000000000000000, -1.000000000000000000 ) ) ;
#335 = DIRECTION ( 'NONE',  ( -0.0000000000000000000, -0.0000000000000000000, -1.000000000000000000 ) ) ;
#336 = DIRECTION ( 'NONE',  ( -0.0000000000000000000, -1.000000000000000000, -0.0000000000000000000 ) ) ;
#337 = DIRECTION ( 'NONE',  ( 0.0000000000000000000, 0.0000000000000000000, -1.000000000000000000 ) ) ;
#338 = CARTESIAN_POINT ( 'NONE',  ( -5.900000000000002100, 1.000000000000002700, 8.000000000000000000 ) ) ;
#339 = CARTESIAN_POINT ( 'NONE',  ( -4.000000000000000000, 3.469446951953614200E-015, 8.000000000000000000 ) ) ;
#340 = CARTESIAN_POINT ( 'NONE',  ( -6.508523421979901100, 0.8666333641497263600, 3.000000000000000000 ) ) ;
#341 = DIRECTION ( 'NONE',  ( -0.0000000000000000000, -0.0000000000000000000, -1.000000000000000000 ) ) ;
#342 = DIRECTION ( 'NONE',  ( -0.0000000000000000000, -1.000000000000000000, -0.0000000000000000000 ) ) ;
#343 = CARTESIAN_POINT ( 'NONE',  ( -6.508523421979901100, 0.8666333641497263600, -3.000000000000000000 ) ) ;
#344 = CARTESIAN_POINT ( 'NONE',  ( -1.099999999999997200, 9.200000000000004600, 6.000000000000000000 ) ) ;
#345 = DIRECTION ( 'NONE',  ( -1.000000000000000000, -8.673617379884035500E-016, 0.0000000000000000000 ) ) ;
#346 = DIRECTION ( 'NONE',  ( -1.000000000000000000, -8.673617379884035500E-016, 0.0000000000000000000 ) ) ;
#347 = CARTESIAN_POINT ( 'NONE',  ( 0.8955096817967515000, 8.147152872702104500, -8.000000000000000000 ) ) ;
#348 = CARTESIAN_POINT ( 'NONE',  ( -3.099999999999997000, 9.000000000000003600, -6.000000000000000000 ) ) ;
#349 = CARTESIAN_POINT ( 'NONE',  ( -0.3294565384477625700, 0.1705434615522364600, 2.839051691516944100 ) ) ;
#350 = DIRECTION ( 'NONE',  ( 7.359237060048027600E-016, -1.000000000000000000, -0.0000000000000000000 ) ) ;
#351 = CARTESIAN_POINT ( 'NONE',  ( -0.7427944067812265500, 7.000000000000002700, 2.999999999999999100 ) ) ;
#352 = DIRECTION ( 'NONE',  ( -0.5735764363510503800, 0.8191520442889888000, 0.0000000000000000000 ) ) ;
#353 = DIRECTION ( 'NONE',  ( 0.0000000000000000000, 0.0000000000000000000, 1.000000000000000000 ) ) ;
#354 = CARTESIAN_POINT ( 'NONE',  ( -0.1623072875484931100, 0.3376927124515062300, -2.687307287548514900 ) ) ;
#355 = DIRECTION ( 'NONE',  ( -2.168404344971003300E-015, 1.000000000000000000, 0.0000000000000000000 ) ) ;
#356 = CARTESIAN_POINT ( 'NONE',  ( -0.7427944067812269900, 9.200000000000004600, -8.000000000000000000 ) ) ;
#357 = CARTESIAN_POINT ( 'NONE',  ( -0.4999999999999987200, 0.0000000000000000000, 2.983391526434302900 ) ) ;
#358 = DIRECTION ( 'NONE',  ( -1.000000000000000000, -8.673617379884035500E-016, 0.0000000000000000000 ) ) ;
#359 = CARTESIAN_POINT ( 'NONE',  ( 0.0000000000000000000, 0.0000000000000000000, -3.024999999999999900 ) ) ;
#360 = CARTESIAN_POINT ( 'NONE',  ( -1.099999999999997900, 9.200000000000004600, -6.000000000000000000 ) ) ;
#361 = CARTESIAN_POINT ( 'NONE',  ( -0.1623072875484929100, 0.3376927124515062300, 2.687307287548514400 ) ) ;
#362 = CARTESIAN_POINT ( 'NONE',  ( 4.653657836759942700E-016, 0.5000000000000000000, 2.524999999999999000 ) ) ;
#363 = DIRECTION ( 'NONE',  ( 0.0000000000000000000, 0.0000000000000000000, 1.000000000000000000 ) ) ;
#364 = CARTESIAN_POINT ( 'NONE',  ( 3.887900117645180800, 3.873576436351049900, 8.000000000000000000 ) ) ;
#365 = CARTESIAN_POINT ( 'NONE',  ( -3.899661160121576000, 14.99536655257559700, -3.000000000000000000 ) ) ;
#366 = DIRECTION ( 'NONE',  ( -1.000000000000000000, -7.359237060048027600E-016, 0.0000000000000000000 ) ) ;
#367 = CARTESIAN_POINT ( 'NONE',  ( 3.898408801597434300E-016, 0.4999999999999998900, -2.524999999999999000 ) ) ;
#368 = DIRECTION ( 'NONE',  ( 0.0000000000000000000, 0.0000000000000000000, 1.000000000000000000 ) ) ;
#369 = DIRECTION ( 'NONE',  ( 0.0000000000000000000, -0.7071067811865466800, -0.7071067811865483500 ) ) ;
#370 = DIRECTION ( 'NONE',  ( -0.0000000000000000000, 0.0000000000000000000, -1.000000000000000000 ) ) ;
#371 = CARTESIAN_POINT ( 'NONE',  ( -3.099999999999997000, 9.000000000000003600, -8.000000000000000000 ) ) ;
#372 = DIRECTION ( 'NONE',  ( -7.359237060048027600E-016, 1.000000000000000000, 0.0000000000000000000 ) ) ;
#373 = DIRECTION ( 'NONE',  ( -1.000000000000000000, -8.673617379884035500E-016, 0.0000000000000000000 ) ) ;
#374 = DIRECTION ( 'NONE',  ( -7.359237060048027600E-016, 1.000000000000000000, 0.0000000000000000000 ) ) ;
#375 = CARTESIAN_POINT ( 'NONE',  ( -12.28856717251798300, 9.199999999999995700, -3.000000000000000000 ) ) ;
#376 = CARTESIAN_POINT ( 'NONE',  ( -1.099999999999996800, 9.000000000000005300, -5.000000000000000000 ) ) ;
#377 = CARTESIAN_POINT ( 'NONE',  ( -0.7427944067812268800, 9.000000000000005300, -8.000000000000000000 ) ) ;
#378 = CARTESIAN_POINT ( 'NONE',  ( 5.900000000000002100, 1.000000000000000900, -8.000000000000000000 ) ) ;
#379 = DIRECTION ( 'NONE',  ( 0.0000000000000000000, 0.0000000000000000000, 1.000000000000000000 ) ) ;
#380 = CARTESIAN_POINT ( 'NONE',  ( -1.099999999999997200, 9.200000000000004600, -5.000000000000000000 ) ) ;
#381 = DIRECTION ( 'NONE',  ( 2.168404344971003300E-015, -1.000000000000000000, -0.0000000000000000000 ) ) ;
#382 = DIRECTION ( 'NONE',  ( -1.000000000000000000, 0.0000000000000000000, 0.0000000000000000000 ) ) ;
#383 = DIRECTION ( 'NONE',  ( -0.0000000000000000000, -0.0000000000000000000, -1.000000000000000000 ) ) ;
#384 = CARTESIAN_POINT ( 'NONE',  ( -3.099999999999997400, 9.200000000000002800, 6.000000000000000000 ) ) ;
#385 = DIRECTION ( 'NONE',  ( -7.359237060048027600E-016, 1.000000000000000000, 0.0000000000000000000 ) ) ;
#386 = DIRECTION ( 'NONE',  ( 1.000000000000000000, 7.359237060048027600E-016, 0.0000000000000000000 ) ) ;
#387 = DIRECTION ( 'NONE',  ( 8.659560562354942700E-017, -0.7071067811865466800, 0.7071067811865483500 ) ) ;
#388 = DIRECTION ( 'NONE',  ( -1.000000000000000000, -8.673617379884035500E-016, 0.0000000000000000000 ) ) ;
#389 = DIRECTION ( 'NONE',  ( -1.000000000000000000, -8.673617379884035500E-016, 0.0000000000000000000 ) ) ;
#390 = CARTESIAN_POINT ( 'NONE',  ( 1.059340090654549600, 8.261868159972316100, -8.000000000000000000 ) ) ;
#391 = DIRECTION ( 'NONE',  ( -0.5735764363510503800, 0.8191520442889888000, 0.0000000000000000000 ) ) ;
#392 = DIRECTION ( 'NONE',  ( -0.0000000000000000000, -1.000000000000000000, -0.0000000000000000000 ) ) ;
#393 = DIRECTION ( 'NONE',  ( -0.0000000000000000000, -1.000000000000000000, -0.0000000000000000000 ) ) ;
#394 = DIRECTION ( 'NONE',  ( 1.000000000000000000, 7.359237060048027600E-016, 0.0000000000000000000 ) ) ;
#395 = CARTESIAN_POINT ( 'NONE',  ( 6.063830408857800300, 1.114715287270210900, 8.000000000000000000 ) ) ;
#396 = DIRECTION ( 'NONE',  ( -0.5735764363510502700, 0.8191520442889888000, 0.0000000000000000000 ) ) ;
#397 = CARTESIAN_POINT ( 'NONE',  ( 6.063830408857800300, 1.114715287270210900, -8.000000000000000000 ) ) ;
#398 = CARTESIAN_POINT ( 'NONE',  ( 1.880382590416503700, 6.740608591362512700, 0.0000000000000000000 ) ) ;
#399 = CARTESIAN_POINT ( 'NONE',  ( -0.4999999999999987200, 0.0000000000000000000, -2.983391526434302900 ) ) ;
#400 = CARTESIAN_POINT ( 'NONE',  ( -3.735830751263778300, 15.11008183984580500, -3.000000000000000000 ) ) ;
#401 = CARTESIAN_POINT ( 'NONE',  ( -6.508523421979907300, 9.200000000000001100, 3.000000000000000000 ) ) ;
#402 = DIRECTION ( 'NONE',  ( 2.168404344971003300E-015, -1.000000000000000000, 0.0000000000000000000 ) ) ;
#403 = DIRECTION ( 'NONE',  ( 0.0000000000000000000, 0.0000000000000000000, 1.000000000000000000 ) ) ;
#404 = DIRECTION ( 'NONE',  ( -0.8191520442889888000, -0.5735764363510503800, 0.0000000000000000000 ) ) ;
#405 = CARTESIAN_POINT ( 'NONE',  ( -0.3294565384477626300, 0.1705434615522363800, -2.839051691516944100 ) ) ;
#406 = CARTESIAN_POINT ( 'NONE',  ( -0.7427944067812265500, 7.000000000000002700, -3.000000000000000000 ) ) ;
#407 = DIRECTION ( 'NONE',  ( 1.000000000000000000, 0.0000000000000000000, 0.0000000000000000000 ) ) ;
#408 = DIRECTION ( 'NONE',  ( -0.5735764363510503800, 0.8191520442889888000, 8.881784197001251300E-016 ) ) ;
#409 = CARTESIAN_POINT ( 'NONE',  ( -1.099999999999996800, 9.000000000000005300, 6.000000000000000000 ) ) ;
#410 = DIRECTION ( 'NONE',  ( 0.5735764363510504900, -0.8191520442889888000, 0.0000000000000000000 ) ) ;
#411 = CARTESIAN_POINT ( 'NONE',  ( -6.508523421979907300, 9.000000000000001800, 3.000000000000000000 ) ) ;
#412 = DIRECTION ( 'NONE',  ( -7.359237060048027600E-016, 1.000000000000000000, 0.0000000000000000000 ) ) ;
#413 = CARTESIAN_POINT ( 'NONE',  ( 3.061616997868382600E-016, 0.0000000000000000000, 2.499999999999999600 ) ) ;
#414 = CARTESIAN_POINT ( 'NONE',  ( -1.099999999999997200, 9.200000000000004600, 5.000000000000000900 ) ) ;
#415 = CARTESIAN_POINT ( 'NONE',  ( 3.704556567420743300E-016, 0.0000000000000000000, 3.024999999999999900 ) ) ;
#416 = DIRECTION ( 'NONE',  ( 0.0000000000000000000, 0.0000000000000000000, 1.000000000000000000 ) ) ;
#417 = DIRECTION ( 'NONE',  ( 0.0000000000000000000, 0.0000000000000000000, 1.000000000000000000 ) ) ;
#418 = DIRECTION ( 'NONE',  ( 0.0000000000000000000, 0.0000000000000000000, -1.000000000000000000 ) ) ;
#419 = CARTESIAN_POINT ( 'NONE',  ( -0.7427944067812269900, 9.200000000000004600, -8.000000000000000000 ) ) ;
#420 = CARTESIAN_POINT ( 'NONE',  ( 0.0000000000000000000, 0.0000000000000000000, 0.0000000000000000000 ) ) ;
#421 = DIRECTION ( 'NONE',  ( 7.359237060048027600E-016, -1.000000000000000000, -0.0000000000000000000 ) ) ;
#422 = DIRECTION ( 'NONE',  ( 0.0000000000000000000, 0.0000000000000000000, 1.000000000000000000 ) ) ;
#423 = CARTESIAN_POINT ( 'NONE',  ( -3.099999999999997000, 9.000000000000003600, 5.000000000000000900 ) ) ;
#424 = DIRECTION ( 'NONE',  ( 0.0000000000000000000, 0.0000000000000000000, 1.000000000000000000 ) ) ;
#425 = DIRECTION ( 'NONE',  ( 0.0000000000000000000, 0.0000000000000000000, 1.000000000000000000 ) ) ;
#426 = CARTESIAN_POINT ( 'NONE',  ( -0.7427944067812265500, 7.000000000000002700, 8.000000000000000000 ) ) ;
#427 = DIRECTION ( 'NONE',  ( 1.000000000000000000, 0.0000000000000000000, 0.0000000000000000000 ) ) ;
#428 = DIRECTION ( 'NONE',  ( 0.0000000000000000000, 0.0000000000000000000, 1.000000000000000000 ) ) ;
#429 = CARTESIAN_POINT ( 'NONE',  ( 1.059340090654549600, 8.261868159972316100, -8.000000000000000000 ) ) ;
#430 = DIRECTION ( 'NONE',  ( 1.000000000000000000, 0.0000000000000000000, 0.0000000000000000000 ) ) ;
#431 = CARTESIAN_POINT ( 'NONE',  ( 0.0000000000000000000, 0.5249999999999990200, 0.0000000000000000000 ) ) ;
#432 = DIRECTION ( 'NONE',  ( -0.0000000000000000000, -1.000000000000000000, -0.0000000000000000000 ) ) ;
#433 = CARTESIAN_POINT ( 'NONE',  ( 1.880382590416503700, 6.740608591362511800, 3.000000000000000000 ) ) ;
#434 = DIRECTION ( 'NONE',  ( 1.000000000000000000, 0.0000000000000000000, 0.0000000000000000000 ) ) ;
#435 = DIRECTION ( 'NONE',  ( 0.0000000000000000000, 0.0000000000000000000, -1.000000000000000000 ) ) ;
#436 = CARTESIAN_POINT ( 'NONE',  ( -0.7427944067812265500, 7.000000000000002700, -8.000000000000000000 ) ) ;
#437 = CARTESIAN_POINT ( 'NONE',  ( -0.7427944067812265500, 7.000000000000002700, -3.000000000000000000 ) ) ;
#438 = DIRECTION ( 'NONE',  ( 0.0000000000000000000, 0.0000000000000000000, 1.000000000000000000 ) ) ;
#439 = PLANE ( 'NONE',  #169 ) ;
#440 = CARTESIAN_POINT ( 'NONE',  ( -6.508523421979901100, 0.8666333641497263600, 0.0000000000000000000 ) ) ;
#441 = DIRECTION ( 'NONE',  ( 0.8191520442889886900, 0.5735764363510503800, -0.0000000000000000000 ) ) ;
#442 = DIRECTION ( 'NONE',  ( -0.5735764363510504900, 0.8191520442889886900, 0.0000000000000000000 ) ) ;
#443 = PLANE ( 'NONE',  #177 ) ;
#444 = DIRECTION ( 'NONE',  ( -1.000000000000000000, -1.734723475976807100E-015, 0.0000000000000000000 ) ) ;
#445 = CARTESIAN_POINT ( 'NONE',  ( 6.063830408857800300, 1.114715287270210900, -8.000000000000000000 ) ) ;
#446 = DIRECTION ( 'NONE',  ( -0.5735764363510504900, 0.8191520442889888000, 0.0000000000000000000 ) ) ;
#447 = DIRECTION ( 'NONE',  ( -0.8191520442889888000, -0.5735764363510504900, 0.0000000000000000000 ) ) ;
#448 = DIRECTION ( 'NONE',  ( -0.0000000000000000000, -1.000000000000000000, -0.0000000000000000000 ) ) ;
#449 = CARTESIAN_POINT ( 'NONE',  ( 0.4999999999999952300, 0.0000000000000000000, 8.000000000000000000 ) ) ;
#450 = DIRECTION ( 'NONE',  ( 0.0000000000000000000, 1.000000000000000000, 0.0000000000000000000 ) ) ;
#451 = DIRECTION ( 'NONE',  ( 1.000000000000000000, 0.0000000000000000000, 0.0000000000000000000 ) ) ;
#452 = CARTESIAN_POINT ( 'NONE',  ( -1.099999999999996800, 9.000000000000007100, 5.000000000000000900 ) ) ;
#453 = DIRECTION ( 'NONE',  ( 0.0000000000000000000, -0.0000000000000000000, 1.000000000000000000 ) ) ;
#454 = DIRECTION ( 'NONE',  ( -2.168404344971003300E-015, 1.000000000000000000, 0.0000000000000000000 ) ) ;
#455 = PLANE ( 'NONE',  #232 ) ;
#456 = CARTESIAN_POINT ( 'NONE',  ( -0.7427944067812265500, 7.000000000000002700, -8.000000000000000000 ) ) ;
#457 = DIRECTION ( 'NONE',  ( -0.7071067811865439100, 0.7071067811865512400, 0.0000000000000000000 ) ) ;
#458 = DIRECTION ( 'NONE',  ( 0.0000000000000000000, 0.0000000000000000000, 1.000000000000000000 ) ) ;
#459 = DIRECTION ( 'NONE',  ( 0.7071067811865512400, 0.7071067811865439100, -0.0000000000000000000 ) ) ;
#460 = CARTESIAN_POINT ( 'NONE',  ( 0.0000000000000000000, 0.0000000000000000000, 0.0000000000000000000 ) ) ;
#461 = DIRECTION ( 'NONE',  ( 0.0000000000000000000, 0.0000000000000000000, -1.000000000000000000 ) ) ;
#462 = PLANE ( 'NONE',  #174 ) ;
#463 = CARTESIAN_POINT ( 'NONE',  ( 0.4999999999999952300, 0.0000000000000000000, 8.000000000000000000 ) ) ;
#464 = DIRECTION ( 'NONE',  ( -1.000000000000000000, 0.0000000000000000000, 0.0000000000000000000 ) ) ;
#465 = DIRECTION ( 'NONE',  ( 1.413217568296177700E-016, -1.000000000000000000, 0.0000000000000000000 ) ) ;
#466 = DIRECTION ( 'NONE',  ( 0.8191520442889889100, 0.5735764363510503800, -0.0000000000000000000 ) ) ;
#467 = DIRECTION ( 'NONE',  ( -7.359237060048027600E-016, 1.000000000000000000, 0.0000000000000000000 ) ) ;
#468 = CARTESIAN_POINT ( 'NONE',  ( 3.068748073356192000, 3.299999999999999800, 8.000000000000000000 ) ) ;
#469 = DIRECTION ( 'NONE',  ( 0.0000000000000000000, 0.0000000000000000000, -1.000000000000000000 ) ) ;
#470 = CARTESIAN_POINT ( 'NONE',  ( 3.068748073356192000, 4.299999999999999800, 8.000000000000000000 ) ) ;
#471 = DIRECTION ( 'NONE',  ( -1.000000000000000000, 0.0000000000000000000, 0.0000000000000000000 ) ) ;
#472 = CARTESIAN_POINT ( 'NONE',  ( -0.4999999999999952300, 3.469446951953614200E-015, 8.000000000000000000 ) ) ;
#473 = DIRECTION ( 'NONE',  ( 1.000000000000000000, 1.413217568296177700E-016, 0.0000000000000000000 ) ) ;
#474 = DIRECTION ( 'NONE',  ( 0.0000000000000000000, 0.0000000000000000000, -1.000000000000000000 ) ) ;
#475 = CARTESIAN_POINT ( 'NONE',  ( -0.7427944067812267700, 9.000000000000005300, -8.000000000000000000 ) ) ;
#476 = CARTESIAN_POINT ( 'NONE',  ( 6.063830408857800300, 1.114715287270210900, -8.000000000000000000 ) ) ;
#477 = PLANE ( 'NONE',  #253 ) ;
#478 = DIRECTION ( 'NONE',  ( -0.0000000000000000000, -0.0000000000000000000, -1.000000000000000000 ) ) ;
#479 = PLANE ( 'NONE',  #254 ) ;
#480 = CARTESIAN_POINT ( 'NONE',  ( -0.7427944067812265500, 7.000000000000002700, -8.000000000000000000 ) ) ;
#481 = CARTESIAN_POINT ( 'NONE',  ( -1.099999999999985200, 3.299999999999990900, -6.000000000000000000 ) ) ;
#482 = DIRECTION ( 'NONE',  ( -0.0000000000000000000, -1.000000000000000000, -0.0000000000000000000 ) ) ;
#483 = CARTESIAN_POINT ( 'NONE',  ( -4.000000000000000000, 1.000000000000001800, 8.000000000000000000 ) ) ;
#484 = DIRECTION ( 'NONE',  ( 0.0000000000000000000, 0.0000000000000000000, 1.000000000000000000 ) ) ;
#485 = DIRECTION ( 'NONE',  ( 1.000000000000000000, 0.0000000000000000000, 0.0000000000000000000 ) ) ;
#486 = PLANE ( 'NONE',  #236 ) ;
#487 = DIRECTION ( 'NONE',  ( 1.000000000000000000, 2.168404344971003300E-015, -0.0000000000000000000 ) ) ;
#488 = CARTESIAN_POINT ( 'NONE',  ( -0.7427944067812265500, 7.000000000000002700, -8.000000000000000000 ) ) ;
#489 = PLANE ( 'NONE',  #234 ) ;
#490 = DIRECTION ( 'NONE',  ( -0.7071067811865470200, -0.7071067811865481300, 0.0000000000000000000 ) ) ;
#491 = DIRECTION ( 'NONE',  ( -2.168404344971003300E-015, 1.000000000000000000, 0.0000000000000000000 ) ) ;
#492 = DIRECTION ( 'NONE',  ( -0.5735764363510502700, 0.8191520442889888000, 0.0000000000000000000 ) ) ;
#493 = DIRECTION ( 'NONE',  ( 1.000000000000000000, 0.0000000000000000000, 0.0000000000000000000 ) ) ;
#494 = DIRECTION ( 'NONE',  ( -0.0000000000000000000, -0.0000000000000000000, -1.000000000000000000 ) ) ;
#495 = PLANE ( 'NONE',  #222 ) ;
#496 = DIRECTION ( 'NONE',  ( -1.000000000000000000, 0.0000000000000000000, 0.0000000000000000000 ) ) ;
#497 = PLANE ( 'NONE',  #217 ) ;
#498 = CARTESIAN_POINT ( 'NONE',  ( 0.0000000000000000000, 0.0000000000000000000, 0.0000000000000000000 ) ) ;
#499 = DIRECTION ( 'NONE',  ( -1.000000000000000000, -7.359237060048027600E-016, 0.0000000000000000000 ) ) ;
#500 = DIRECTION ( 'NONE',  ( -0.7071067811865481300, 0.7071067811865470200, 0.0000000000000000000 ) ) ;
#501 = DIRECTION ( 'NONE',  ( 4.565061778886329100E-016, 1.000000000000000000, -0.0000000000000000000 ) ) ;
#502 = DIRECTION ( 'NONE',  ( -1.000000000000000000, 4.565061778886329100E-016, 0.0000000000000000000 ) ) ;
#503 = CARTESIAN_POINT ( 'NONE',  ( -6.508523421979901100, 0.8666333641497263600, 3.000000000000000000 ) ) ;
#504 = CARTESIAN_POINT ( 'NONE',  ( 0.0000000000000000000, 0.0000000000000000000, 0.0000000000000000000 ) ) ;
#505 = DIRECTION ( 'NONE',  ( -0.0000000000000000000, -1.000000000000000000, -0.0000000000000000000 ) ) ;
#506 = DIRECTION ( 'NONE',  ( 0.0000000000000000000, 0.0000000000000000000, -1.000000000000000000 ) ) ;
#507 = CARTESIAN_POINT ( 'NONE',  ( -3.099999999999997000, 9.000000000000003600, -8.000000000000000000 ) ) ;
#508 = DIRECTION ( 'NONE',  ( -2.168404344971003300E-015, 1.000000000000000000, 0.0000000000000000000 ) ) ;
#509 = DIRECTION ( 'NONE',  ( 0.0000000000000000000, 0.0000000000000000000, 1.000000000000000000 ) ) ;
#510 = CARTESIAN_POINT ( 'NONE',  ( -3.068748073356192000, 3.299999999999998900, 8.000000000000000000 ) ) ;
#511 = DIRECTION ( 'NONE',  ( -1.000000000000000000, -2.168404344971008900E-015, 0.0000000000000000000 ) ) ;
#512 = CARTESIAN_POINT ( 'NONE',  ( 0.4999999999999952300, 0.0000000000000000000, 8.000000000000000000 ) ) ;
#513 = DIRECTION ( 'NONE',  ( -0.5735764363510507100, -0.8191520442889885800, -0.0000000000000000000 ) ) ;
#514 = CARTESIAN_POINT ( 'NONE',  ( -1.099999999999996800, 9.000000000000007100, -3.000000000000000000 ) ) ;
#515 = CARTESIAN_POINT ( 'NONE',  ( 4.000000000000000000, 1.000000000000000000, 8.000000000000000000 ) ) ;
#516 = CARTESIAN_POINT ( 'NONE',  ( -4.000000000000000000, 1.000000000000001800, -8.000000000000000000 ) ) ;
#517 = DIRECTION ( 'NONE',  ( -0.0000000000000000000, -0.0000000000000000000, -1.000000000000000000 ) ) ;
#518 = DIRECTION ( 'NONE',  ( 1.000000000000000000, 0.0000000000000000000, 0.0000000000000000000 ) ) ;
#519 = CARTESIAN_POINT ( 'NONE',  ( 0.4999999999999952300, 0.0000000000000000000, -8.000000000000000000 ) ) ;
#520 = CARTESIAN_POINT ( 'NONE',  ( -0.4999999999999952300, 3.469446951953614200E-015, 8.000000000000000000 ) ) ;
#521 = DIRECTION ( 'NONE',  ( -0.0000000000000000000, -0.0000000000000000000, -1.000000000000000000 ) ) ;
#522 = DIRECTION ( 'NONE',  ( -0.0000000000000000000, -0.0000000000000000000, -1.000000000000000000 ) ) ;
#523 = DIRECTION ( 'NONE',  ( 1.000000000000000000, -4.565061778886329100E-016, -0.0000000000000000000 ) ) ;
#524 = CARTESIAN_POINT ( 'NONE',  ( 0.4999999999999952300, 0.0000000000000000000, -2.983391526434303400 ) ) ;
#525 = CARTESIAN_POINT ( 'NONE',  ( 0.3294565384477607400, 0.1705434615522363200, -2.839051691516944100 ) ) ;
#526 = DIRECTION ( 'NONE',  ( -2.168404344971003300E-015, 1.000000000000000000, 0.0000000000000000000 ) ) ;
#527 = DIRECTION ( 'NONE',  ( 0.0000000000000000000, 0.0000000000000000000, 1.000000000000000000 ) ) ;
#528 = CARTESIAN_POINT ( 'NONE',  ( 0.1623072875484926100, 0.3376927124515061200, -2.687307287548514900 ) ) ;
#529 = CARTESIAN_POINT ( 'NONE',  ( -5.900000000000002100, 1.000000000000002700, 8.000000000000000000 ) ) ;
#530 = CARTESIAN_POINT ( 'NONE',  ( 4.000000000000000000, 0.0000000000000000000, 8.000000000000000000 ) ) ;
#531 = CARTESIAN_POINT ( 'NONE',  ( 3.898408801597434300E-016, 0.4999999999999998900, -2.524999999999999000 ) ) ;
#532 = DIRECTION ( 'NONE',  ( 0.0000000000000000000, 0.0000000000000000000, 1.000000000000000000 ) ) ;
#533 = CARTESIAN_POINT ( 'NONE',  ( -3.068748073356192000, 3.299999999999998900, 8.000000000000000000 ) ) ;
#534 = CARTESIAN_POINT ( 'NONE',  ( -4.000000000000000000, 1.000000000000001800, 8.000000000000000000 ) ) ;
#535 = CARTESIAN_POINT ( 'NONE',  ( 3.068748073356192000, 4.299999999999999800, 8.000000000000000000 ) ) ;
#536 = DIRECTION ( 'NONE',  ( -1.000000000000000000, 0.0000000000000000000, 0.0000000000000000000 ) ) ;
#537 = CARTESIAN_POINT ( 'NONE',  ( 0.4999999999999952300, 0.0000000000000000000, 8.000000000000000000 ) ) ;
#538 = DIRECTION ( 'NONE',  ( -0.0000000000000000000, -0.0000000000000000000, -1.000000000000000000 ) ) ;
#539 = DIRECTION ( 'NONE',  ( -1.000000000000000000, 0.0000000000000000000, 0.0000000000000000000 ) ) ;
#540 = DIRECTION ( 'NONE',  ( 2.168404344971003300E-015, -1.000000000000000000, -0.0000000000000000000 ) ) ;
#541 = PLANE ( 'NONE',  #212 ) ;
#542 = CARTESIAN_POINT ( 'NONE',  ( -0.4999999999999952300, 3.469446951953614200E-015, 8.000000000000000000 ) ) ;
#543 = DIRECTION ( 'NONE',  ( 0.7071067811865439100, -0.7071067811865512400, -0.0000000000000000000 ) ) ;
#544 = DIRECTION ( 'NONE',  ( 0.7071067811865469100, 0.7071067811865482400, 0.0000000000000000000 ) ) ;
#545 = CARTESIAN_POINT ( 'NONE',  ( 0.4999999999999952300, 0.0000000000000000000, 8.000000000000000000 ) ) ;
#546 = CARTESIAN_POINT ( 'NONE',  ( -3.068748073356192000, 3.299999999999998900, -8.000000000000000000 ) ) ;
#547 = CARTESIAN_POINT ( 'NONE',  ( -0.4999999999999952300, 3.469446951953614200E-015, 8.000000000000000000 ) ) ;
#548 = CARTESIAN_POINT ( 'NONE',  ( 4.653657836759942700E-016, 0.5000000000000000000, 8.000000000000000000 ) ) ;
#549 = DIRECTION ( 'NONE',  ( -0.0000000000000000000, -0.0000000000000000000, -1.000000000000000000 ) ) ;
#550 = DIRECTION ( 'NONE',  ( 0.0000000000000000000, 1.000000000000000000, -0.0000000000000000000 ) ) ;
#551 = DIRECTION ( 'NONE',  ( 0.0000000000000000000, 0.0000000000000000000, 1.000000000000000000 ) ) ;
#552 = DIRECTION ( 'NONE',  ( -0.0000000000000000000, -0.0000000000000000000, -1.000000000000000000 ) ) ;
#553 = DIRECTION ( 'NONE',  ( -0.0000000000000000000, -0.0000000000000000000, -1.000000000000000000 ) ) ;
#554 = CARTESIAN_POINT ( 'NONE',  ( -1.099999999999985200, 3.299999999999990900, -8.000000000000000000 ) ) ;
#555 = DIRECTION ( 'NONE',  ( 0.0000000000000000000, 0.0000000000000000000, 1.000000000000000000 ) ) ;
#556 = DIRECTION ( 'NONE',  ( 1.000000000000000000, 0.0000000000000000000, -0.0000000000000000000 ) ) ;
#557 = DIRECTION ( 'NONE',  ( 0.7071067811865439100, -0.7071067811865512400, -0.0000000000000000000 ) ) ;
#558 = DIRECTION ( 'NONE',  ( 0.0000000000000000000, 0.0000000000000000000, 1.000000000000000000 ) ) ;
#559 = DIRECTION ( 'NONE',  ( 1.000000000000000000, 0.0000000000000000000, -0.0000000000000000000 ) ) ;
#560 = CARTESIAN_POINT ( 'NONE',  ( -0.7427944067812265500, 7.000000000000002700, -8.000000000000000000 ) ) ;
#561 = DIRECTION ( 'NONE',  ( 1.000000000000000000, 0.0000000000000000000, 0.0000000000000000000 ) ) ;
#562 = CARTESIAN_POINT ( 'NONE',  ( 3.068748073356192000, 3.299999999999999800, -8.000000000000000000 ) ) ;
#563 = DIRECTION ( 'NONE',  ( 0.0000000000000000000, 0.0000000000000000000, 1.000000000000000000 ) ) ;
#564 = PLANE ( 'NONE',  #187 ) ;
#565 = CARTESIAN_POINT ( 'NONE',  ( 3.068748073356192000, 3.299999999999999800, 8.000000000000000000 ) ) ;
#566 = PLANE ( 'NONE',  #202 ) ;
#567 = PLANE ( 'NONE',  #189 ) ;
#568 = DIRECTION ( 'NONE',  ( -0.5735764363510503800, 0.8191520442889888000, 0.0000000000000000000 ) ) ;
#569 = PLANE ( 'NONE',  #175 ) ;
#570 = CARTESIAN_POINT ( 'NONE',  ( -0.4999999999999952300, 3.469446951953614200E-015, 8.000000000000000000 ) ) ;
#571 = DIRECTION ( 'NONE',  ( 2.168404344971003300E-015, -1.000000000000000000, 0.0000000000000000000 ) ) ;
#572 = DIRECTION ( 'NONE',  ( 1.000000000000000000, 1.734723475976807100E-015, 0.0000000000000000000 ) ) ;
#573 = DIRECTION ( 'NONE',  ( -7.359237060048027600E-016, 1.000000000000000000, 0.0000000000000000000 ) ) ;
#574 = DIRECTION ( 'NONE',  ( -0.0000000000000000000, -1.000000000000000000, -0.0000000000000000000 ) ) ;
#575 = DIRECTION ( 'NONE',  ( 0.8191520442889885800, -0.5735764363510507100, 0.0000000000000000000 ) ) ;
#576 = CARTESIAN_POINT ( 'NONE',  ( -4.000000000000000000, 3.469446951953614200E-015, 8.000000000000000000 ) ) ;
#577 = DIRECTION ( 'NONE',  ( 0.0000000000000000000, 0.0000000000000000000, -1.000000000000000000 ) ) ;
#578 = DIRECTION ( 'NONE',  ( -7.359237060048027600E-016, 1.000000000000000000, 0.0000000000000000000 ) ) ;
#579 = CARTESIAN_POINT ( 'NONE',  ( 5.900000000000002100, 1.000000000000000900, -8.000000000000000000 ) ) ;
#580 = CARTESIAN_POINT ( 'NONE',  ( -0.7427944067812267700, 9.000000000000005300, -8.000000000000000000 ) ) ;
#581 = DIRECTION ( 'NONE',  ( 0.0000000000000000000, 0.0000000000000000000, 1.000000000000000000 ) ) ;
#582 = PLANE ( 'NONE',  #199 ) ;
#583 = CARTESIAN_POINT ( 'NONE',  ( -0.7427944067812268800, 9.200000000000004600, -8.000000000000000000 ) ) ;
#584 = PLANE ( 'NONE',  #166 ) ;
#585 = CARTESIAN_POINT ( 'NONE',  ( 0.0000000000000000000, 0.0000000000000000000, 0.0000000000000000000 ) ) ;
#586 = DIRECTION ( 'NONE',  ( -1.000000000000000000, 0.0000000000000000000, 0.0000000000000000000 ) ) ;
#587 = CARTESIAN_POINT ( 'NONE',  ( -3.099999999999997000, 9.000000000000003600, -8.000000000000000000 ) ) ;
#588 = PLANE ( 'NONE',  #164 ) ;
#589 = DIRECTION ( 'NONE',  ( -0.7071067811865470200, -0.7071067811865481300, 0.0000000000000000000 ) ) ;
#590 = CARTESIAN_POINT ( 'NONE',  ( -0.7427944067812268800, 9.200000000000004600, -8.000000000000000000 ) ) ;
#591 = DIRECTION ( 'NONE',  ( 0.5735764363510507100, 0.8191520442889885800, 0.0000000000000000000 ) ) ;
#592 = DIRECTION ( 'NONE',  ( 0.8191520442889888000, 0.5735764363510503800, -0.0000000000000000000 ) ) ;
#593 = PLANE ( 'NONE',  #198 ) ;
#594 = DIRECTION ( 'NONE',  ( -1.000000000000000000, -7.359237060048027600E-016, 0.0000000000000000000 ) ) ;
#595 = PLANE ( 'NONE',  #194 ) ;
#596 = PLANE ( 'NONE',  #173 ) ;
#597 = DIRECTION ( 'NONE',  ( -1.000000000000000000, -7.359237060048027600E-016, 0.0000000000000000000 ) ) ;
#598 = DIRECTION ( 'NONE',  ( 1.000000000000000000, 0.0000000000000000000, 0.0000000000000000000 ) ) ;
#599 = DIRECTION ( 'NONE',  ( 0.0000000000000000000, 0.0000000000000000000, -1.000000000000000000 ) ) ;
#600 = CARTESIAN_POINT ( 'NONE',  ( 4.000000000000000000, 0.0000000000000000000, 8.000000000000000000 ) ) ;
#601 = DIRECTION ( 'NONE',  ( -1.000000000000000000, -7.359237060048027600E-016, 0.0000000000000000000 ) ) ;
#602 = DIRECTION ( 'NONE',  ( -7.359237060048027600E-016, 1.000000000000000000, 0.0000000000000000000 ) ) ;
#603 = DIRECTION ( 'NONE',  ( 1.000000000000000000, 2.168404344971003300E-015, -0.0000000000000000000 ) ) ;
#604 = CARTESIAN_POINT ( 'NONE',  ( -1.099999999999996800, 9.000000000000007100, -5.000000000000000000 ) ) ;
#605 = PLANE ( 'NONE',  #200 ) ;
#606 = DIRECTION ( 'NONE',  ( -2.168404344971003300E-015, 1.000000000000000000, 0.0000000000000000000 ) ) ;
#607 = CARTESIAN_POINT ( 'NONE',  ( 4.000000000000000000, 1.000000000000000000, 8.000000000000000000 ) ) ;
#608 = DIRECTION ( 'NONE',  ( -4.565061778886329100E-016, 1.000000000000000000, 0.0000000000000000000 ) ) ;
#609 = PLANE ( 'NONE',  #178 ) ;
#610 = DIRECTION ( 'NONE',  ( -0.7071067811865481300, 0.7071067811865470200, 0.0000000000000000000 ) ) ;
#611 = CARTESIAN_POINT ( 'NONE',  ( -5.900000000000002100, 1.000000000000002700, 8.000000000000000000 ) ) ;
#612 = PLANE ( 'NONE',  #193 ) ;
#613 = DIRECTION ( 'NONE',  ( -1.000000000000000000, -4.565061778886329100E-016, 0.0000000000000000000 ) ) ;
#614 = PLANE ( 'NONE',  #167 ) ;
#615 = CARTESIAN_POINT ( 'NONE',  ( -12.28856717251798300, 9.121391325362809600, -3.000000000000000000 ) ) ;
#616 = DIRECTION ( 'NONE',  ( 0.7071067811865512400, 0.7071067811865439100, -0.0000000000000000000 ) ) ;
#617 = CARTESIAN_POINT ( 'NONE',  ( -1.099999999999996800, 9.000000000000007100, 6.000000000000000000 ) ) ;
#618 = DIRECTION ( 'NONE',  ( 0.0000000000000000000, 0.0000000000000000000, 1.000000000000000000 ) ) ;
#619 = DIRECTION ( 'NONE',  ( 1.000000000000000000, 1.734723475976807100E-015, 0.0000000000000000000 ) ) ;
#620 = DIRECTION ( 'NONE',  ( 1.000000000000000000, 0.0000000000000000000, -0.0000000000000000000 ) ) ;
#621 = CARTESIAN_POINT ( 'NONE',  ( 0.4999999999999952300, 0.0000000000000000000, 8.000000000000000000 ) ) ;
#622 = DIRECTION ( 'NONE',  ( -0.7071067811865439100, 0.7071067811865512400, 0.0000000000000000000 ) ) ;
#623 = DIRECTION ( 'NONE',  ( 2.168404344971003300E-015, -1.000000000000000000, 0.0000000000000000000 ) ) ;
#624 = MANIFOLD_SOLID_BREP ( 'Fillet1', #1142 ) ;
#625 = B_SPLINE_CURVE_WITH_KNOTS ( 'NONE', 3,
 ( #275, #289, #299, #279 ),
 .UNSPECIFIED., .F., .F.,
 ( 4, 4 ),
 ( 3.461328779227638800E-007, 0.0008430339703967505600 ),
 .UNSPECIFIED. ) ;
#626 = UNCERTAINTY_MEASURE_WITH_UNIT (LENGTH_MEASURE( 1.000000000000000100E-005 ), #1196, 'distance_accuracy_value', 'NONE');
#627 = B_SPLINE_CURVE_WITH_KNOTS ( 'NONE', 3,
 ( #367, #354, #405, #399 ),
 .UNSPECIFIED., .F., .F.,
 ( 4, 4 ),
 ( 3.461328779225460900E-007, 0.0008430339703967524000 ),
 .UNSPECIFIED. ) ;
#628 = B_SPLINE_CURVE_WITH_KNOTS ( 'NONE', 3,
 ( #524, #525, #528, #531 ),
 .UNSPECIFIED., .F., .F.,
 ( 4, 4 ),
 ( 3.294101292506713300E-007, 0.0008430172476480782000 ),
 .UNSPECIFIED. ) ;
#629 = B_SPLINE_CURVE_WITH_KNOTS ( 'NONE', 3,
 ( #357, #349, #361, #362 ),
 .UNSPECIFIED., .F., .F.,
 ( 4, 4 ),
 ( 3.294101292449300300E-007, 0.0008430172476480749500 ),
 .UNSPECIFIED. ) ;
#630 = ADVANCED_BREP_SHAPE_REPRESENTATION ( 'ALP0518', ( #624, #225 ), #211 ) ;
#631 = ORIENTED_EDGE ( 'NONE', *, *, #96, .F. ) ;
#632 = ORIENTED_EDGE ( 'NONE', *, *, #184, .F. ) ;
#633 = ORIENTED_EDGE ( 'NONE', *, *, #123, .T. ) ;
#634 = ORIENTED_EDGE ( 'NONE', *, *, #161, .T. ) ;
#635 = ORIENTED_EDGE ( 'NONE', *, *, #165, .T. ) ;
#636 = ORIENTED_EDGE ( 'NONE', *, *, #89, .T. ) ;
#637 = ORIENTED_EDGE ( 'NONE', *, *, #185, .T. ) ;
#638 = ORIENTED_EDGE ( 'NONE', *, *, #79, .F. ) ;
#639 = ORIENTED_EDGE ( 'NONE', *, *, #120, .T. ) ;
#640 = ORIENTED_EDGE ( 'NONE', *, *, #133, .T. ) ;
#641 = ORIENTED_EDGE ( 'NONE', *, *, #125, .F. ) ;
#642 = ORIENTED_EDGE ( 'NONE', *, *, #134, .F. ) ;
#643 = ORIENTED_EDGE ( 'NONE', *, *, #145, .F. ) ;
#644 = ORIENTED_EDGE ( 'NONE', *, *, #191, .T. ) ;
#645 = ORIENTED_EDGE ( 'NONE', *, *, #125, .T. ) ;
#646 = ORIENTED_EDGE ( 'NONE', *, *, #155, .T. ) ;
#647 = ORIENTED_EDGE ( 'NONE', *, *, #162, .F. ) ;
#648 = ORIENTED_EDGE ( 'NONE', *, *, #126, .F. ) ;
#649 = ORIENTED_EDGE ( 'NONE', *, *, #160, .F. ) ;
#650 = ORIENTED_EDGE ( 'NONE', *, *, #183, .F. ) ;
#651 = ORIENTED_EDGE ( 'NONE', *, *, #124, .T. ) ;
#652 = ORIENTED_EDGE ( 'NONE', *, *, #120, .F. ) ;
#653 = ORIENTED_EDGE ( 'NONE', *, *, #182, .F. ) ;
#654 = ORIENTED_EDGE ( 'NONE', *, *, #188, .T. ) ;
#655 = ORIENTED_EDGE ( 'NONE', *, *, #70, .F. ) ;
#656 = ORIENTED_EDGE ( 'NONE', *, *, #119, .F. ) ;
#657 = ORIENTED_EDGE ( 'NONE', *, *, #136, .F. ) ;
#658 = ORIENTED_EDGE ( 'NONE', *, *, #85, .T. ) ;
#659 = ORIENTED_EDGE ( 'NONE', *, *, #91, .T. ) ;
#660 = ORIENTED_EDGE ( 'NONE', *, *, #179, .T. ) ;
#661 = ORIENTED_EDGE ( 'NONE', *, *, #190, .T. ) ;
#662 = ORIENTED_EDGE ( 'NONE', *, *, #197, .F. ) ;
#663 = ORIENTED_EDGE ( 'NONE', *, *, #82, .T. ) ;
#664 = ORIENTED_EDGE ( 'NONE', *, *, #195, .T. ) ;
#665 = ORIENTED_EDGE ( 'NONE', *, *, #113, .T. ) ;
#666 = ORIENTED_EDGE ( 'NONE', *, *, #162, .T. ) ;
#667 = ORIENTED_EDGE ( 'NONE', *, *, #79, .T. ) ;
#668 = ORIENTED_EDGE ( 'NONE', *, *, #81, .T. ) ;
#669 = ORIENTED_EDGE ( 'NONE', *, *, #80, .F. ) ;
#670 = ORIENTED_EDGE ( 'NONE', *, *, #97, .T. ) ;
#671 = ORIENTED_EDGE ( 'NONE', *, *, #72, .F. ) ;
#672 = ORIENTED_EDGE ( 'NONE', *, *, #74, .F. ) ;
#673 = ORIENTED_EDGE ( 'NONE', *, *, #100, .F. ) ;
#674 = ORIENTED_EDGE ( 'NONE', *, *, #92, .T. ) ;
#675 = ORIENTED_EDGE ( 'NONE', *, *, #75, .F. ) ;
#676 = ORIENTED_EDGE ( 'NONE', *, *, #182, .T. ) ;
#677 = ORIENTED_EDGE ( 'NONE', *, *, #69, .T. ) ;
#678 = ORIENTED_EDGE ( 'NONE', *, *, #78, .F. ) ;
#679 = ORIENTED_EDGE ( 'NONE', *, *, #65, .T. ) ;
#680 = ORIENTED_EDGE ( 'NONE', *, *, #108, .F. ) ;
#681 = ORIENTED_EDGE ( 'NONE', *, *, #84, .F. ) ;
#682 = ORIENTED_EDGE ( 'NONE', *, *, #103, .F. ) ;
#683 = ORIENTED_EDGE ( 'NONE', *, *, #72, .T. ) ;
#684 = ORIENTED_EDGE ( 'NONE', *, *, #130, .T. ) ;
#685 = ORIENTED_EDGE ( 'NONE', *, *, #98, .T. ) ;
#686 = ORIENTED_EDGE ( 'NONE', *, *, #74, .T. ) ;
#687 = ORIENTED_EDGE ( 'NONE', *, *, #90, .T. ) ;
#688 = ORIENTED_EDGE ( 'NONE', *, *, #68, .T. ) ;
#689 = ORIENTED_EDGE ( 'NONE', *, *, #163, .T. ) ;
#690 = ORIENTED_EDGE ( 'NONE', *, *, #132, .T. ) ;
#691 = ORIENTED_EDGE ( 'NONE', *, *, #83, .T. ) ;
#692 = ORIENTED_EDGE ( 'NONE', *, *, #77, .F. ) ;
#693 = ORIENTED_EDGE ( 'NONE', *, *, #87, .T. ) ;
#694 = ORIENTED_EDGE ( 'NONE', *, *, #73, .F. ) ;
#695 = ORIENTED_EDGE ( 'NONE', *, *, #93, .F. ) ;
#696 = ORIENTED_EDGE ( 'NONE', *, *, #95, .F. ) ;
#697 = ORIENTED_EDGE ( 'NONE', *, *, #67, .F. ) ;
#698 = ORIENTED_EDGE ( 'NONE', *, *, #119, .T. ) ;
#699 = ORIENTED_EDGE ( 'NONE', *, *, #104, .T. ) ;
#700 = ORIENTED_EDGE ( 'NONE', *, *, #179, .F. ) ;
#701 = ORIENTED_EDGE ( 'NONE', *, *, #159, .T. ) ;
#702 = ORIENTED_EDGE ( 'NONE', *, *, #191, .F. ) ;
#703 = ORIENTED_EDGE ( 'NONE', *, *, #71, .F. ) ;
#704 = ORIENTED_EDGE ( 'NONE', *, *, #195, .F. ) ;
#705 = ORIENTED_EDGE ( 'NONE', *, *, #97, .F. ) ;
#706 = ORIENTED_EDGE ( 'NONE', *, *, #87, .F. ) ;
#707 = ORIENTED_EDGE ( 'NONE', *, *, #86, .T. ) ;
#708 = ORIENTED_EDGE ( 'NONE', *, *, #71, .T. ) ;
#709 = ORIENTED_EDGE ( 'NONE', *, *, #77, .T. ) ;
#710 = ORIENTED_EDGE ( 'NONE', *, *, #108, .T. ) ;
#711 = ORIENTED_EDGE ( 'NONE', *, *, #80, .T. ) ;
#712 = ORIENTED_EDGE ( 'NONE', *, *, #107, .T. ) ;
#713 = ORIENTED_EDGE ( 'NONE', *, *, #103, .T. ) ;
#714 = ORIENTED_EDGE ( 'NONE', *, *, #70, .T. ) ;
#715 = ORIENTED_EDGE ( 'NONE', *, *, #155, .F. ) ;
#716 = ORIENTED_EDGE ( 'NONE', *, *, #113, .F. ) ;
#717 = ORIENTED_EDGE ( 'NONE', *, *, #88, .T. ) ;
#718 = ORIENTED_EDGE ( 'NONE', *, *, #99, .T. ) ;
#719 = ORIENTED_EDGE ( 'NONE', *, *, #93, .T. ) ;
#720 = ORIENTED_EDGE ( 'NONE', *, *, #75, .T. ) ;
#721 = ORIENTED_EDGE ( 'NONE', *, *, #95, .T. ) ;
#722 = ORIENTED_EDGE ( 'NONE', *, *, #106, .F. ) ;
#723 = ORIENTED_EDGE ( 'NONE', *, *, #110, .F. ) ;
#724 = ORIENTED_EDGE ( 'NONE', *, *, #136, .T. ) ;
#725 = ORIENTED_EDGE ( 'NONE', *, *, #109, .F. ) ;
#726 = ORIENTED_EDGE ( 'NONE', *, *, #107, .F. ) ;
#727 = ORIENTED_EDGE ( 'NONE', *, *, #101, .T. ) ;
#728 = ORIENTED_EDGE ( 'NONE', *, *, #69, .F. ) ;
#729 = ORIENTED_EDGE ( 'NONE', *, *, #101, .F. ) ;
#730 = VERTEX_POINT ( 'NONE', #1291 ) ;
#731 = VERTEX_POINT ( 'NONE', #1293 ) ;
#732 = VERTEX_POINT ( 'NONE', #1254 ) ;
#733 = ORIENTED_EDGE ( 'NONE', *, *, #98, .F. ) ;
#734 = VERTEX_POINT ( 'NONE', #1278 ) ;
#735 = VERTEX_POINT ( 'NONE', #1277 ) ;
#736 = VERTEX_POINT ( 'NONE', #1279 ) ;
#737 = VERTEX_POINT ( 'NONE', #1247 ) ;
#738 = VERTEX_POINT ( 'NONE', #1268 ) ;
#739 = ORIENTED_EDGE ( 'NONE', *, *, #90, .F. ) ;
#740 = VERTEX_POINT ( 'NONE', #1283 ) ;
#741 = ORIENTED_EDGE ( 'NONE', *, *, #83, .F. ) ;
#742 = VERTEX_POINT ( 'NONE', #1261 ) ;
#743 = VERTEX_POINT ( 'NONE', #1288 ) ;
#744 = VERTEX_POINT ( 'NONE', #1271 ) ;
#745 = VERTEX_POINT ( 'NONE', #1264 ) ;
#746 = VERTEX_POINT ( 'NONE', #1289 ) ;
#747 = VERTEX_POINT ( 'NONE', #1250 ) ;
#748 = VERTEX_POINT ( 'NONE', #1282 ) ;
#749 = ORIENTED_EDGE ( 'NONE', *, *, #82, .F. ) ;
#750 = ORIENTED_EDGE ( 'NONE', *, *, #78, .T. ) ;
#751 = VERTEX_POINT ( 'NONE', #1275 ) ;
#752 = VERTEX_POINT ( 'NONE', #1276 ) ;
#753 = VERTEX_POINT ( 'NONE', #1262 ) ;
#754 = VERTEX_POINT ( 'NONE', #1265 ) ;
#755 = VERTEX_POINT ( 'NONE', #1266 ) ;
#756 = ORIENTED_EDGE ( 'NONE', *, *, #84, .T. ) ;
#757 = ORIENTED_EDGE ( 'NONE', *, *, #151, .F. ) ;
#758 = ORIENTED_EDGE ( 'NONE', *, *, #67, .T. ) ;
#759 = ORIENTED_EDGE ( 'NONE', *, *, #65, .F. ) ;
#760 = ORIENTED_EDGE ( 'NONE', *, *, #161, .F. ) ;
#761 = VERTEX_POINT ( 'NONE', #1290 ) ;
#762 = VERTEX_POINT ( 'NONE', #1257 ) ;
#763 = VERTEX_POINT ( 'NONE', #1267 ) ;
#764 = ORIENTED_EDGE ( 'NONE', *, *, #109, .T. ) ;
#765 = ORIENTED_EDGE ( 'NONE', *, *, #89, .F. ) ;
#766 = VERTEX_POINT ( 'NONE', #1284 ) ;
#767 = VERTEX_POINT ( 'NONE', #1269 ) ;
#768 = VERTEX_POINT ( 'NONE', #1286 ) ;
#769 = ORIENTED_EDGE ( 'NONE', *, *, #73, .T. ) ;
#770 = ORIENTED_EDGE ( 'NONE', *, *, #184, .T. ) ;
#771 = ORIENTED_EDGE ( 'NONE', *, *, #152, .T. ) ;
#772 = VERTEX_POINT ( 'NONE', #1270 ) ;
#773 = VERTEX_POINT ( 'NONE', #1311 ) ;
#774 = VERTEX_POINT ( 'NONE', #1310 ) ;
#775 = VERTEX_POINT ( 'NONE', #1287 ) ;
#776 = ORIENTED_EDGE ( 'NONE', *, *, #66, .T. ) ;
#777 = ORIENTED_EDGE ( 'NONE', *, *, #94, .T. ) ;
#778 = VERTEX_POINT ( 'NONE', #1292 ) ;
#779 = ORIENTED_EDGE ( 'NONE', *, *, #197, .T. ) ;
#780 = ORIENTED_EDGE ( 'NONE', *, *, #99, .F. ) ;
#781 = VERTEX_POINT ( 'NONE', #1306 ) ;
#782 = VERTEX_POINT ( 'NONE', #1307 ) ;
#783 = VERTEX_POINT ( 'NONE', #1301 ) ;
#784 = ORIENTED_EDGE ( 'NONE', *, *, #86, .F. ) ;
#785 = ORIENTED_EDGE ( 'NONE', *, *, #188, .F. ) ;
#786 = VERTEX_POINT ( 'NONE', #1304 ) ;
#787 = VERTEX_POINT ( 'NONE', #1302 ) ;
#788 = VERTEX_POINT ( 'NONE', #1303 ) ;
#789 = VERTEX_POINT ( 'NONE', #1300 ) ;
#790 = VERTEX_POINT ( 'NONE', #1299 ) ;
#791 = VERTEX_POINT ( 'NONE', #1305 ) ;
#792 = VERTEX_POINT ( 'NONE', #1312 ) ;
#793 = VERTEX_POINT ( 'NONE', #1315 ) ;
#794 = VERTEX_POINT ( 'NONE', #1297 ) ;
#795 = VERTEX_POINT ( 'NONE', #1313 ) ;
#796 = VERTEX_POINT ( 'NONE', #1314 ) ;
#797 = VERTEX_POINT ( 'NONE', #1296 ) ;
#798 = VERTEX_POINT ( 'NONE', #1298 ) ;
#799 = VERTEX_POINT ( 'NONE', #1308 ) ;
#800 = VERTEX_POINT ( 'NONE', #1309 ) ;
#801 = VERTEX_POINT ( 'NONE', #1222 ) ;
#802 = VERTEX_POINT ( 'NONE', #1218 ) ;
#803 = VERTEX_POINT ( 'NONE', #1214 ) ;
#804 = VERTEX_POINT ( 'NONE', #1219 ) ;
#805 = VERTEX_POINT ( 'NONE', #1234 ) ;
#806 = VERTEX_POINT ( 'NONE', #1216 ) ;
#807 = EDGE_LOOP ( 'NONE', ( #631, #665, #636, #638, #692, #683 ) ) ;
#808 = VERTEX_POINT ( 'NONE', #1203 ) ;
#809 = EDGE_LOOP ( 'NONE', ( #779, #776, #723, #757, #760, #777, #780, #741, #765, #749, #784, #785, #739, #759, #733, #1086, #1146, #1115, #1090, #1123 ) ) ;
#810 = EDGE_LOOP ( 'NONE', ( #687, #704, #725, #711 ) ) ;
#811 = VERTEX_POINT ( 'NONE', #1211 ) ;
#812 = VERTEX_POINT ( 'NONE', #1239 ) ;
#813 = VERTEX_POINT ( 'NONE', #1233 ) ;
#814 = VERTEX_POINT ( 'NONE', #1215 ) ;
#815 = VERTEX_POINT ( 'NONE', #1238 ) ;
#816 = VERTEX_POINT ( 'NONE', #1205 ) ;
#817 = VERTEX_POINT ( 'NONE', #1240 ) ;
#818 = VERTEX_POINT ( 'NONE', #1231 ) ;
#819 = VERTEX_POINT ( 'NONE', #1197 ) ;
#820 = VERTEX_POINT ( 'NONE', #1226 ) ;
#821 = VERTEX_POINT ( 'NONE', #1202 ) ;
#822 = VERTEX_POINT ( 'NONE', #1228 ) ;
#823 = VERTEX_POINT ( 'NONE', #1217 ) ;
#824 = VERTEX_POINT ( 'NONE', #1206 ) ;
#825 = VERTEX_POINT ( 'NONE', #1212 ) ;
#826 = VERTEX_POINT ( 'NONE', #1220 ) ;
#827 = EDGE_LOOP ( 'NONE', ( #1148, #1149, #1158, #1150 ) ) ;
#828 = EDGE_LOOP ( 'NONE', ( #1092, #1116, #1089, #1119, #1130, #1094, #1099, #1118 ) ) ;
#829 = EDGE_LOOP ( 'NONE', ( #1138, #1131, #1145, #1133 ) ) ;
#830 = EDGE_LOOP ( 'NONE', ( #1111, #1129, #1113, #1100, #1114, #1125, #1096, #1097 ) ) ;
#831 = EDGE_LOOP ( 'NONE', ( #701, #699, #700, #702, #715, #710, #719, #720, #750, #721, #764, #770, #758, #769, #709, #756, #713, #722, #724, #771 ) ) ;
#832 = EDGE_LOOP ( 'NONE', ( #1117, #1109, #1095, #1104, #1127, #1124 ) ) ;
#833 = EDGE_LOOP ( 'NONE', ( #1174, #1171, #1147, #1134, #1153, #1170 ) ) ;
#834 = EDGE_LOOP ( 'NONE', ( #688, #726, #675, #727 ) ) ;
#835 = EDGE_LOOP ( 'NONE', ( #1110, #1101, #1120, #1137 ) ) ;
#836 = EDGE_LOOP ( 'NONE', ( #717, #729, #695, #686 ) ) ;
#837 = EDGE_LOOP ( 'NONE', ( #1164, #1155, #1166, #1178, #1152, #657, #1184, #634 ) ) ;
#838 = EDGE_LOOP ( 'NONE', ( #1165, #1151, #1154, #1159 ) ) ;
#839 = EDGE_LOOP ( 'NONE', ( #1156, #1162, #1143, #1176 ) ) ;
#840 = EDGE_LOOP ( 'NONE', ( #1102, #1107, #1103, #1122 ) ) ;
#841 = EDGE_LOOP ( 'NONE', ( #1112, #1108, #1121, #1135 ) ) ;
#842 = EDGE_LOOP ( 'NONE', ( #642, #653, #632, #664, #654, #655 ) ) ;
#843 = EDGE_LOOP ( 'NONE', ( #1190, #1194, #650, #666 ) ) ;
#844 = EDGE_LOOP ( 'NONE', ( #691, #703, #681, #667 ) ) ;
#845 = EDGE_LOOP ( 'NONE', ( #639, #651, #1161, #1157 ) ) ;
#846 = EDGE_LOOP ( 'NONE', ( #658, #672, #680, #698 ) ) ;
#847 = EDGE_LOOP ( 'NONE', ( #706, #690, #714, #707 ) ) ;
#848 = EDGE_LOOP ( 'NONE', ( #1139, #1098, #1105, #1128 ) ) ;
#849 = EDGE_LOOP ( 'NONE', ( #635, #1189, #644, #641 ) ) ;
#850 = EDGE_LOOP ( 'NONE', ( #1182, #1186, #1185, #1192, #662, #1188 ) ) ;
#851 = EDGE_LOOP ( 'NONE', ( #659, #689 ) ) ;
#852 = EDGE_LOOP ( 'NONE', ( #1177, #1179, #1181, #1163, #1167, #1168 ) ) ;
#853 = EDGE_LOOP ( 'NONE', ( #716, #668, #693, #663 ) ) ;
#854 = EDGE_LOOP ( 'NONE', ( #1093, #1136, #1126, #1132 ) ) ;
#855 = EDGE_LOOP ( 'NONE', ( #718, #673, #682, #708 ) ) ;
#856 = EDGE_LOOP ( 'NONE', ( #685, #705, #678, #712 ) ) ;
#857 = EDGE_LOOP ( 'NONE', ( #1091, #1144, #1106, #1141 ) ) ;
#858 = EDGE_LOOP ( 'NONE', ( #640, #647, #1191, #656, #646, #648, #1183, #643 ) ) ;
#859 = FACE_OUTER_BOUND ( 'NONE', #844, .T. ) ;
#860 = FACE_OUTER_BOUND ( 'NONE', #852, .T. ) ;
#861 = FACE_OUTER_BOUND ( 'NONE', #838, .T. ) ;
#862 = FACE_OUTER_BOUND ( 'NONE', #810, .T. ) ;
#863 = CYLINDRICAL_SURFACE ( 'NONE', #196, 2.000000000000000000 ) ;
#864 = FACE_OUTER_BOUND ( 'NONE', #830, .T. ) ;
#865 = FACE_OUTER_BOUND ( 'NONE', #839, .T. ) ;
#866 = FACE_OUTER_BOUND ( 'NONE', #807, .T. ) ;
#867 = FACE_OUTER_BOUND ( 'NONE', #850, .T. ) ;
#868 = FACE_OUTER_BOUND ( 'NONE', #843, .T. ) ;
#869 = FACE_OUTER_BOUND ( 'NONE', #837, .T. ) ;
#870 = EDGE_LOOP ( 'NONE', ( #676, #684, #728, #697 ) ) ;
#871 = CYLINDRICAL_SURFACE ( 'NONE', #171, 3.000000000000000900 ) ;
#872 = FACE_OUTER_BOUND ( 'NONE', #835, .T. ) ;
#873 = FACE_OUTER_BOUND ( 'NONE', #854, .T. ) ;
#874 = CYLINDRICAL_SURFACE ( 'NONE', #172, 2.499999999999999600 ) ;
#875 = FACE_OUTER_BOUND ( 'NONE', #828, .T. ) ;
#876 = FACE_OUTER_BOUND ( 'NONE', #899, .T. ) ;
#877 = FACE_OUTER_BOUND ( 'NONE', #809, .T. ) ;
#878 = FACE_OUTER_BOUND ( 'NONE', #908, .T. ) ;
#879 = CYLINDRICAL_SURFACE ( 'NONE', #233, 1.000000000000000000 ) ;
#880 = CONICAL_SURFACE ( 'NONE', #176, 3.024999999999999900, 0.7853981633974495000 ) ;
#881 = FACE_OUTER_BOUND ( 'NONE', #848, .T. ) ;
#882 = VECTOR ( 'NONE', #47, 999.9999999999998900 ) ;
#883 = EDGE_LOOP ( 'NONE', ( #679, #669, #696, #670 ) ) ;
#884 = FACE_OUTER_BOUND ( 'NONE', #898, .T. ) ;
#885 = CYLINDRICAL_SURFACE ( 'NONE', #201, 2.000000000000000000 ) ;
#886 = FACE_OUTER_BOUND ( 'NONE', #836, .T. ) ;
#887 = CYLINDRICAL_SURFACE ( 'NONE', #192, 2.200000000000001500 ) ;
#888 = CYLINDRICAL_SURFACE ( 'NONE', #168, 2.000000000000000000 ) ;
#889 = EDGE_LOOP ( 'NONE', ( #1172, #1175, #1169, #1180, #1173, #1140 ) ) ;
#890 = FACE_OUTER_BOUND ( 'NONE', #853, .T. ) ;
#891 = CYLINDRICAL_SURFACE ( 'NONE', #170, 2.000000000000001300 ) ;
#892 = FACE_OUTER_BOUND ( 'NONE', #846, .T. ) ;
#893 = CYLINDRICAL_SURFACE ( 'NONE', #235, 0.9999999999999995600 ) ;
#894 = FACE_OUTER_BOUND ( 'NONE', #831, .T. ) ;
#895 = FACE_OUTER_BOUND ( 'NONE', #889, .T. ) ;
#896 = FACE_OUTER_BOUND ( 'NONE', #858, .T. ) ;
#897 = FACE_OUTER_BOUND ( 'NONE', #840, .T. ) ;
#898 = EDGE_LOOP ( 'NONE', ( #637, #1187, #649, #633 ) ) ;
#899 = EDGE_LOOP ( 'NONE', ( #677, #674, #671, #694 ) ) ;
#900 = FACE_OUTER_BOUND ( 'NONE', #829, .T. ) ;
#901 = FACE_OUTER_BOUND ( 'NONE', #834, .T. ) ;
#902 = FACE_BOUND ( 'NONE', #851, .T. ) ;
#903 = FACE_OUTER_BOUND ( 'NONE', #832, .T. ) ;
#904 = FACE_OUTER_BOUND ( 'NONE', #883, .T. ) ;
#905 = FACE_OUTER_BOUND ( 'NONE', #833, .T. ) ;
#906 = FACE_OUTER_BOUND ( 'NONE', #847, .T. ) ;
#907 = FACE_OUTER_BOUND ( 'NONE', #855, .T. ) ;
#908 = EDGE_LOOP ( 'NONE', ( #660, #1160, #652, #661, #1193, #645 ) ) ;
#909 = LINE ( 'NONE', #516, #951 ) ;
#910 = LINE ( 'NONE', #520, #959 ) ;
#911 = CIRCLE ( 'NONE', #213, 0.9999999999999995600 ) ;
#912 = FACE_OUTER_BOUND ( 'NONE', #857, .T. ) ;
#913 = LINE ( 'NONE', #515, #915 ) ;
#914 = CYLINDRICAL_SURFACE ( 'NONE', #230, 2.499999999999999600 ) ;
#915 = VECTOR ( 'NONE', #549, 1000.000000000000000 ) ;
#916 = LINE ( 'NONE', #537, #940 ) ;
#917 = LINE ( 'NONE', #535, #931 ) ;
#918 = LINE ( 'NONE', #545, #934 ) ;
#919 = LINE ( 'NONE', #514, #943 ) ;
#920 = FACE_OUTER_BOUND ( 'NONE', #842, .T. ) ;
#921 = VECTOR ( 'NONE', #518, 1000.000000000000000 ) ;
#922 = VECTOR ( 'NONE', #517, 1000.000000000000000 ) ;
#923 = VECTOR ( 'NONE', #286, 1000.000000000000000 ) ;
#924 = VECTOR ( 'NONE', #526, 1000.000000000000000 ) ;
#925 = LINE ( 'NONE', #534, #953 ) ;
#926 = LINE ( 'NONE', #284, #928 ) ;
#927 = VECTOR ( 'NONE', #557, 999.9999999999998900 ) ;
#928 = VECTOR ( 'NONE', #276, 1000.000000000000000 ) ;
#929 = FACE_OUTER_BOUND ( 'NONE', #845, .T. ) ;
#930 = FACE_OUTER_BOUND ( 'NONE', #849, .T. ) ;
#931 = VECTOR ( 'NONE', #538, 1000.000000000000000 ) ;
#932 = LINE ( 'NONE', #301, #957 ) ;
#933 = CYLINDRICAL_SURFACE ( 'NONE', #238, 2.000000000000000000 ) ;
#934 = VECTOR ( 'NONE', #543, 999.9999999999998900 ) ;
#935 = VECTOR ( 'NONE', #513, 1000.000000000000100 ) ;
#936 = CYLINDRICAL_SURFACE ( 'NONE', #203, 2.000000000000001300 ) ;
#937 = LINE ( 'NONE', #273, #923 ) ;
#938 = LINE ( 'NONE', #542, #956 ) ;
#939 = CIRCLE ( 'NONE', #240, 0.9999999999999995600 ) ;
#940 = VECTOR ( 'NONE', #553, 1000.000000000000000 ) ;
#941 = LINE ( 'NONE', #63, #982 ) ;
#942 = CONICAL_SURFACE ( 'NONE', #249, 3.024999999999999900, 0.7853981633974495000 ) ;
#943 = VECTOR ( 'NONE', #540, 1000.000000000000000 ) ;
#944 = VECTOR ( 'NONE', #552, 1000.000000000000000 ) ;
#945 = LINE ( 'NONE', #512, #921 ) ;
#946 = LINE ( 'NONE', #554, #924 ) ;
#947 = VECTOR ( 'NONE', #298, 999.9999999999998900 ) ;
#948 = LINE ( 'NONE', #529, #935 ) ;
#949 = CYLINDRICAL_SURFACE ( 'NONE', #237, 2.200000000000001500 ) ;
#950 = FACE_OUTER_BOUND ( 'NONE', #827, .T. ) ;
#951 = VECTOR ( 'NONE', #523, 1000.000000000000000 ) ;
#952 = LINE ( 'NONE', #548, #944 ) ;
#953 = VECTOR ( 'NONE', #521, 1000.000000000000000 ) ;
#954 = LINE ( 'NONE', #297, #947 ) ;
#955 = LINE ( 'NONE', #272, #969 ) ;
#956 = VECTOR ( 'NONE', #522, 1000.000000000000000 ) ;
#957 = VECTOR ( 'NONE', #300, 1000.000000000000000 ) ;
#958 = LINE ( 'NONE', #282, #960 ) ;
#959 = VECTOR ( 'NONE', #544, 999.9999999999998900 ) ;
#960 = VECTOR ( 'NONE', #285, 1000.000000000000000 ) ;
#961 = LINE ( 'NONE', #530, #922 ) ;
#962 = CIRCLE ( 'NONE', #218, 0.9999999999999995600 ) ;
#963 = LINE ( 'NONE', #519, #927 ) ;
#964 = FACE_OUTER_BOUND ( 'NONE', #841, .T. ) ;
#965 = FACE_OUTER_BOUND ( 'NONE', #870, .T. ) ;
#966 = VECTOR ( 'NONE', #278, 1000.000000000000000 ) ;
#967 = CIRCLE ( 'NONE', #208, 2.499999999999999600 ) ;
#968 = LINE ( 'NONE', #343, #995 ) ;
#969 = VECTOR ( 'NONE', #274, 1000.000000000000000 ) ;
#970 = LINE ( 'NONE', #283, #991 ) ;
#971 = LINE ( 'NONE', #281, #992 ) ;
#972 = LINE ( 'NONE', #338, #975 ) ;
#973 = LINE ( 'NONE', #277, #966 ) ;
#974 = CIRCLE ( 'NONE', #239, 3.024999999999999900 ) ;
#975 = VECTOR ( 'NONE', #334, 1000.000000000000000 ) ;
#976 = VECTOR ( 'NONE', #296, 1000.000000000000000 ) ;
#977 = LINE ( 'NONE', #322, #984 ) ;
#978 = VECTOR ( 'NONE', #294, 1000.000000000000000 ) ;
#979 = VECTOR ( 'NONE', #309, 1000.000000000000100 ) ;
#980 = LINE ( 'NONE', #293, #978 ) ;
#981 = LINE ( 'NONE', #290, #976 ) ;
#982 = VECTOR ( 'NONE', #54, 1000.000000000000000 ) ;
#983 = LINE ( 'NONE', #330, #987 ) ;
#984 = VECTOR ( 'NONE', #335, 1000.000000000000000 ) ;
#985 = LINE ( 'NONE', #332, #979 ) ;
#986 = CIRCLE ( 'NONE', #209, 2.499999999999999600 ) ;
#987 = VECTOR ( 'NONE', #329, 1000.000000000000000 ) ;
#988 = LINE ( 'NONE', #316, #990 ) ;
#989 = VECTOR ( 'NONE', #341, 1000.000000000000000 ) ;
#990 = VECTOR ( 'NONE', #319, 1000.000000000000000 ) ;
#991 = VECTOR ( 'NONE', #291, 999.9999999999998900 ) ;
#992 = VECTOR ( 'NONE', #295, 1000.000000000000000 ) ;
#993 = LINE ( 'NONE', #304, #989 ) ;
#994 = LINE ( 'NONE', #53, #1011 ) ;
#995 = VECTOR ( 'NONE', #308, 1000.000000000000100 ) ;
#996 = LINE ( 'NONE', #51, #1034 ) ;
#997 = VECTOR ( 'NONE', #320, 999.9999999999998900 ) ;
#998 = LINE ( 'NONE', #311, #999 ) ;
#999 = VECTOR ( 'NONE', #321, 1000.000000000000000 ) ;
#1000 = LINE ( 'NONE', #313, #997 ) ;
#1001 = LINE ( 'NONE', #333, #1043 ) ;
#1002 = LINE ( 'NONE', #310, #1004 ) ;
#1003 = LINE ( 'NONE', #340, #1019 ) ;
#1004 = VECTOR ( 'NONE', #331, 1000.000000000000000 ) ;
#1005 = LINE ( 'NONE', #325, #1026 ) ;
#1006 = CIRCLE ( 'NONE', #206, 2.000000000000000000 ) ;
#1007 = CIRCLE ( 'NONE', #215, 2.200000000000001500 ) ;
#1008 = LINE ( 'NONE', #378, #1010 ) ;
#1009 = VECTOR ( 'NONE', #383, 1000.000000000000000 ) ;
#1010 = VECTOR ( 'NONE', #352, 1000.000000000000000 ) ;
#1011 = VECTOR ( 'NONE', #58, 1000.000000000000000 ) ;
#1012 = LINE ( 'NONE', #384, #1040 ) ;
#1013 = VECTOR ( 'NONE', #381, 1000.000000000000000 ) ;
#1014 = VECTOR ( 'NONE', #379, 1000.000000000000000 ) ;
#1015 = LINE ( 'NONE', #324, #1018 ) ;
#1016 = VECTOR ( 'NONE', #353, 1000.000000000000000 ) ;
#1017 = LINE ( 'NONE', #375, #1032 ) ;
#1018 = VECTOR ( 'NONE', #327, 1000.000000000000000 ) ;
#1019 = VECTOR ( 'NONE', #315, 1000.000000000000100 ) ;
#1020 = CIRCLE ( 'NONE', #241, 2.000000000000000000 ) ;
#1021 = LINE ( 'NONE', #365, #1035 ) ;
#1022 = LINE ( 'NONE', #339, #1038 ) ;
#1023 = LINE ( 'NONE', #371, #1024 ) ;
#1024 = VECTOR ( 'NONE', #368, 1000.000000000000000 ) ;
#1025 = LINE ( 'NONE', #347, #1014 ) ;
#1026 = VECTOR ( 'NONE', #342, 1000.000000000000000 ) ;
#1027 = LINE ( 'NONE', #326, #1028 ) ;
#1028 = VECTOR ( 'NONE', #328, 1000.000000000000000 ) ;
#1029 = LINE ( 'NONE', #348, #1013 ) ;
#1030 = CIRCLE ( 'NONE', #250, 2.000000000000000000 ) ;
#1031 = LINE ( 'NONE', #377, #1016 ) ;
#1032 = VECTOR ( 'NONE', #366, 1000.000000000000000 ) ;
#1033 = VECTOR ( 'NONE', #363, 1000.000000000000000 ) ;
#1034 = VECTOR ( 'NONE', #48, 1000.000000000000000 ) ;
#1035 = VECTOR ( 'NONE', #391, 1000.000000000000000 ) ;
#1036 = CIRCLE ( 'NONE', #214, 3.024999999999999900 ) ;
#1037 = LINE ( 'NONE', #356, #1033 ) ;
#1038 = VECTOR ( 'NONE', #318, 1000.000000000000000 ) ;
#1039 = CIRCLE ( 'NONE', #229, 2.000000000000000000 ) ;
#1040 = VECTOR ( 'NONE', #355, 1000.000000000000000 ) ;
#1041 = LINE ( 'NONE', #364, #1009 ) ;
#1042 = LINE ( 'NONE', #359, #1044 ) ;
#1043 = VECTOR ( 'NONE', #312, 1000.000000000000000 ) ;
#1044 = VECTOR ( 'NONE', #369, 1000.000000000000000 ) ;
#1045 = CIRCLE ( 'NONE', #243, 0.9999999999999995600 ) ;
#1046 = CIRCLE ( 'NONE', #228, 2.000000000000000000 ) ;
#1047 = LINE ( 'NONE', #397, #1074 ) ;
#1048 = LINE ( 'NONE', #419, #1052 ) ;
#1049 = LINE ( 'NONE', #413, #1067 ) ;
#1050 = LINE ( 'NONE', #400, #1068 ) ;
#1051 = LINE ( 'NONE', #411, #1060 ) ;
#1052 = VECTOR ( 'NONE', #416, 1000.000000000000000 ) ;
#1053 = VECTOR ( 'NONE', #394, 1000.000000000000000 ) ;
#1054 = VECTOR ( 'NONE', #402, 1000.000000000000000 ) ;
#1055 = CIRCLE ( 'NONE', #242, 3.000000000000000400 ) ;
#1056 = LINE ( 'NONE', #415, #1070 ) ;
#1057 = LINE ( 'NONE', #390, #1059 ) ;
#1058 = CIRCLE ( 'NONE', #231, 2.200000000000001500 ) ;
#1059 = VECTOR ( 'NONE', #417, 1000.000000000000000 ) ;
#1060 = VECTOR ( 'NONE', #386, 1000.000000000000000 ) ;
#1061 = VECTOR ( 'NONE', #396, 1000.000000000000100 ) ;
#1062 = CIRCLE ( 'NONE', #216, 2.000000000000001300 ) ;
#1063 = LINE ( 'NONE', #423, #1054 ) ;
#1064 = CIRCLE ( 'NONE', #246, 2.200000000000001500 ) ;
#1065 = CIRCLE ( 'NONE', #244, 2.200000000000001500 ) ;
#1066 = LINE ( 'NONE', #401, #1053 ) ;
#1067 = VECTOR ( 'NONE', #392, 1000.000000000000000 ) ;
#1068 = VECTOR ( 'NONE', #410, 999.9999999999998900 ) ;
#1069 = CIRCLE ( 'NONE', #245, 2.499999999999999600 ) ;
#1070 = VECTOR ( 'NONE', #387, 1000.000000000000000 ) ;
#1071 = CIRCLE ( 'NONE', #210, 2.000000000000000000 ) ;
#1072 = LINE ( 'NONE', #50, #1084 ) ;
#1073 = LINE ( 'NONE', #395, #1061 ) ;
#1074 = VECTOR ( 'NONE', #422, 1000.000000000000000 ) ;
#1075 = LINE ( 'NONE', #64, #882 ) ;
#1076 = VECTOR ( 'NONE', #266, 1000.000000000000000 ) ;
#1077 = VECTOR ( 'NONE', #269, 1000.000000000000000 ) ;
#1078 = LINE ( 'NONE', #429, #1079 ) ;
#1079 = VECTOR ( 'NONE', #425, 1000.000000000000000 ) ;
#1080 = LINE ( 'NONE', #433, #1077 ) ;
#1081 = VECTOR ( 'NONE', #45, 1000.000000000000000 ) ;
#1082 = LINE ( 'NONE', #267, #1076 ) ;
#1083 = LINE ( 'NONE', #268, #1081 ) ;
#1084 = VECTOR ( 'NONE', #57, 1000.000000000000100 ) ;
#1085 = CIRCLE ( 'NONE', #247, 3.000000000000000400 ) ;
#1086 = ORIENTED_EDGE ( 'NONE', *, *, #68, .F. ) ;
#1087 = VERTEX_POINT ( 'NONE', #1210 ) ;
#1088 = FACE_OUTER_BOUND ( 'NONE', #856, .T. ) ;
#1089 = ORIENTED_EDGE ( 'NONE', *, *, #137, .T. ) ;
#1090 = ORIENTED_EDGE ( 'NONE', *, *, #122, .T. ) ;
#1091 = ORIENTED_EDGE ( 'NONE', *, *, #142, .F. ) ;
#1092 = ORIENTED_EDGE ( 'NONE', *, *, #147, .F. ) ;
#1093 = ORIENTED_EDGE ( 'NONE', *, *, #118, .F. ) ;
#1094 = ORIENTED_EDGE ( 'NONE', *, *, #112, .F. ) ;
#1095 = ORIENTED_EDGE ( 'NONE', *, *, #131, .T. ) ;
#1096 = ORIENTED_EDGE ( 'NONE', *, *, #135, .F. ) ;
#1097 = ORIENTED_EDGE ( 'NONE', *, *, #149, .T. ) ;
#1098 = ORIENTED_EDGE ( 'NONE', *, *, #112, .T. ) ;
#1099 = ORIENTED_EDGE ( 'NONE', *, *, #154, .F. ) ;
#1100 = ORIENTED_EDGE ( 'NONE', *, *, #143, .F. ) ;
#1101 = ORIENTED_EDGE ( 'NONE', *, *, #100, .T. ) ;
#1102 = ORIENTED_EDGE ( 'NONE', *, *, #144, .F. ) ;
#1103 = ORIENTED_EDGE ( 'NONE', *, *, #117, .F. ) ;
#1104 = ORIENTED_EDGE ( 'NONE', *, *, #81, .F. ) ;
#1105 = ORIENTED_EDGE ( 'NONE', *, *, #157, .T. ) ;
#1106 = ORIENTED_EDGE ( 'NONE', *, *, #116, .T. ) ;
#1107 = ORIENTED_EDGE ( 'NONE', *, *, #104, .F. ) ;
#1108 = ORIENTED_EDGE ( 'NONE', *, *, #123, .F. ) ;
#1109 = ORIENTED_EDGE ( 'NONE', *, *, #102, .F. ) ;
#1110 = ORIENTED_EDGE ( 'NONE', *, *, #106, .T. ) ;
#1111 = ORIENTED_EDGE ( 'NONE', *, *, #128, .T. ) ;
#1112 = ORIENTED_EDGE ( 'NONE', *, *, #186, .F. ) ;
#1113 = ORIENTED_EDGE ( 'NONE', *, *, #156, .F. ) ;
#1114 = ORIENTED_EDGE ( 'NONE', *, *, #133, .F. ) ;
#1115 = ORIENTED_EDGE ( 'NONE', *, *, #85, .F. ) ;
#1116 = ORIENTED_EDGE ( 'NONE', *, *, #111, .T. ) ;
#1117 = ORIENTED_EDGE ( 'NONE', *, *, #148, .F. ) ;
#1118 = ORIENTED_EDGE ( 'NONE', *, *, #165, .F. ) ;
#1119 = ORIENTED_EDGE ( 'NONE', *, *, #121, .T. ) ;
#1120 = ORIENTED_EDGE ( 'NONE', *, *, #94, .F. ) ;
#1121 = ORIENTED_EDGE ( 'NONE', *, *, #115, .F. ) ;
#1122 = ORIENTED_EDGE ( 'NONE', *, *, #124, .F. ) ;
#1123 = ORIENTED_EDGE ( 'NONE', *, *, #183, .T. ) ;
#1124 = ORIENTED_EDGE ( 'NONE', *, *, #92, .F. ) ;
#1125 = ORIENTED_EDGE ( 'NONE', *, *, #105, .T. ) ;
#1126 = ORIENTED_EDGE ( 'NONE', *, *, #129, .F. ) ;
#1127 = ORIENTED_EDGE ( 'NONE', *, *, #96, .T. ) ;
#1128 = ORIENTED_EDGE ( 'NONE', *, *, #105, .F. ) ;
#1129 = ORIENTED_EDGE ( 'NONE', *, *, #76, .T. ) ;
#1130 = ORIENTED_EDGE ( 'NONE', *, *, #158, .F. ) ;
#1131 = ORIENTED_EDGE ( 'NONE', *, *, #111, .F. ) ;
#1132 = ORIENTED_EDGE ( 'NONE', *, *, #181, .F. ) ;
#1133 = ORIENTED_EDGE ( 'NONE', *, *, #146, .F. ) ;
#1134 = ORIENTED_EDGE ( 'NONE', *, *, #141, .F. ) ;
#1135 = ORIENTED_EDGE ( 'NONE', *, *, #66, .F. ) ;
#1136 = ORIENTED_EDGE ( 'NONE', *, *, #76, .F. ) ;
#1137 = ORIENTED_EDGE ( 'NONE', *, *, #140, .T. ) ;
#1138 = ORIENTED_EDGE ( 'NONE', *, *, #138, .F. ) ;
#1139 = ORIENTED_EDGE ( 'NONE', *, *, #145, .T. ) ;
#1140 = ORIENTED_EDGE ( 'NONE', *, *, #131, .F. ) ;
#1141 = ORIENTED_EDGE ( 'NONE', *, *, #102, .T. ) ;
#1142 = CLOSED_SHELL ( 'NONE', ( #14, #34, #11, #17, #41, #5, #30, #9, #24, #43, #16, #35, #18, #42, #44, #23, #21, #10, #31, #32, #33, #8, #37, #13, #36, #25, #15, #19, #6, #7, #29, #27, #39, #20, #38, #28, #12, #40, #22, #26 ) ) ;
#1143 = ORIENTED_EDGE ( 'NONE', *, *, #150, .T. ) ;
#1144 = ORIENTED_EDGE ( 'NONE', *, *, #91, .F. ) ;
#1145 = ORIENTED_EDGE ( 'NONE', *, *, #190, .F. ) ;
#1146 = ORIENTED_EDGE ( 'NONE', *, *, #88, .F. ) ;
#1147 = ORIENTED_EDGE ( 'NONE', *, *, #128, .F. ) ;
#1148 = ORIENTED_EDGE ( 'NONE', *, *, #141, .T. ) ;
#1149 = ORIENTED_EDGE ( 'NONE', *, *, #149, .F. ) ;
#1150 = ORIENTED_EDGE ( 'NONE', *, *, #151, .T. ) ;
#1151 = ORIENTED_EDGE ( 'NONE', *, *, #121, .F. ) ;
#1152 = ORIENTED_EDGE ( 'NONE', *, *, #139, .T. ) ;
#1153 = ORIENTED_EDGE ( 'NONE', *, *, #110, .T. ) ;
#1154 = ORIENTED_EDGE ( 'NONE', *, *, #127, .T. ) ;
#1155 = ORIENTED_EDGE ( 'NONE', *, *, #135, .T. ) ;
#1156 = ORIENTED_EDGE ( 'NONE', *, *, #163, .F. ) ;
#1157 = ORIENTED_EDGE ( 'NONE', *, *, #146, .T. ) ;
#1158 = ORIENTED_EDGE ( 'NONE', *, *, #153, .F. ) ;
#1159 = ORIENTED_EDGE ( 'NONE', *, *, #152, .F. ) ;
#1160 = ORIENTED_EDGE ( 'NONE', *, *, #144, .T. ) ;
#1161 = ORIENTED_EDGE ( 'NONE', *, *, #114, .F. ) ;
#1162 = ORIENTED_EDGE ( 'NONE', *, *, #142, .T. ) ;
#1163 = ORIENTED_EDGE ( 'NONE', *, *, #127, .F. ) ;
#1164 = ORIENTED_EDGE ( 'NONE', *, *, #153, .T. ) ;
#1165 = ORIENTED_EDGE ( 'NONE', *, *, #139, .F. ) ;
#1166 = ORIENTED_EDGE ( 'NONE', *, *, #157, .F. ) ;
#1167 = ORIENTED_EDGE ( 'NONE', *, *, #137, .F. ) ;
#1168 = ORIENTED_EDGE ( 'NONE', *, *, #138, .T. ) ;
#1169 = ORIENTED_EDGE ( 'NONE', *, *, #130, .F. ) ;
#1170 = ORIENTED_EDGE ( 'NONE', *, *, #115, .T. ) ;
#1171 = ORIENTED_EDGE ( 'NONE', *, *, #129, .T. ) ;
#1172 = ORIENTED_EDGE ( 'NONE', *, *, #150, .F. ) ;
#1173 = ORIENTED_EDGE ( 'NONE', *, *, #132, .F. ) ;
#1174 = ORIENTED_EDGE ( 'NONE', *, *, #160, .T. ) ;
#1175 = ORIENTED_EDGE ( 'NONE', *, *, #148, .T. ) ;
#1176 = ORIENTED_EDGE ( 'NONE', *, *, #116, .F. ) ;
#1177 = ORIENTED_EDGE ( 'NONE', *, *, #114, .T. ) ;
#1178 = ORIENTED_EDGE ( 'NONE', *, *, #158, .T. ) ;
#1179 = ORIENTED_EDGE ( 'NONE', *, *, #117, .T. ) ;
#1180 = ORIENTED_EDGE ( 'NONE', *, *, #134, .T. ) ;
#1181 = ORIENTED_EDGE ( 'NONE', *, *, #159, .F. ) ;
#1182 = ORIENTED_EDGE ( 'NONE', *, *, #156, .T. ) ;
#1183 = ORIENTED_EDGE ( 'NONE', *, *, #154, .T. ) ;
#1184 = ORIENTED_EDGE ( 'NONE', *, *, #140, .F. ) ;
#1185 = ORIENTED_EDGE ( 'NONE', *, *, #185, .F. ) ;
#1186 = ORIENTED_EDGE ( 'NONE', *, *, #118, .T. ) ;
#1187 = ORIENTED_EDGE ( 'NONE', *, *, #181, .T. ) ;
#1188 = ORIENTED_EDGE ( 'NONE', *, *, #180, .T. ) ;
#1189 = ORIENTED_EDGE ( 'NONE', *, *, #126, .T. ) ;
#1190 = ORIENTED_EDGE ( 'NONE', *, *, #143, .T. ) ;
#1191 = ORIENTED_EDGE ( 'NONE', *, *, #122, .F. ) ;
#1192 = ORIENTED_EDGE ( 'NONE', *, *, #186, .T. ) ;
#1193 = ORIENTED_EDGE ( 'NONE', *, *, #147, .T. ) ;
#1194 = ORIENTED_EDGE ( 'NONE', *, *, #180, .F. ) ;
#1195 = APPROVAL_STATUS ( 'not_yet_approved' ) ;
#1196 =( LENGTH_UNIT ( ) NAMED_UNIT ( * ) SI_UNIT ( .MILLI., .METRE. ) );
#1197 = CARTESIAN_POINT ( 'NONE',  ( -4.000000000000000000, 3.469446951953614200E-015, -8.000000000000000000 ) ) ;
#1198 = MECHANICAL_CONTEXT ( 'NONE', #1227, 'mechanical' ) ;
#1199 = APPROVAL_STATUS ( 'not_yet_approved' ) ;
#1200 = APPROVAL_ROLE ( '' ) ;
#1201 = DIRECTION ( 'NONE',  ( 0.0000000000000000000, 0.0000000000000000000, 1.000000000000000000 ) ) ;
#1202 = CARTESIAN_POINT ( 'NONE',  ( 5.900000000000002100, 1.000000000000000900, 8.000000000000000000 ) ) ;
#1203 = CARTESIAN_POINT ( 'NONE',  ( -3.887900117645180800, 3.873576436351049000, 8.000000000000000000 ) ) ;
#1204 = PERSON_AND_ORGANIZATION_ROLE ( 'creator' ) ;
#1205 = CARTESIAN_POINT ( 'NONE',  ( 0.8955096817967515000, 8.147152872702104500, -8.000000000000000000 ) ) ;
#1206 = CARTESIAN_POINT ( 'NONE',  ( 3.068748073356192000, 4.299999999999999800, -8.000000000000000000 ) ) ;
#1207 = CARTESIAN_POINT ( 'NONE',  ( 0.0000000000000000000, 0.0000000000000000000, 0.0000000000000000000 ) ) ;
#1208 = APPLICATION_PROTOCOL_DEFINITION ( 'international standard', 'config_control_design', 1994, #1227 ) ;
#1209 = APPROVAL_STATUS ( 'not_yet_approved' ) ;
#1210 = CARTESIAN_POINT ( 'NONE',  ( -1.099999999999996800, 9.200000000000004600, -3.000000000000000000 ) ) ;
#1211 = CARTESIAN_POINT ( 'NONE',  ( 3.887900117645180400, 3.873576436351050800, -8.000000000000000000 ) ) ;
#1212 = CARTESIAN_POINT ( 'NONE',  ( 4.000000000000000000, 0.0000000000000000000, -8.000000000000000000 ) ) ;
#1213 = DATE_TIME_ROLE ( 'classification_date' ) ;
#1214 = CARTESIAN_POINT ( 'NONE',  ( 4.000000000000000000, 1.000000000000000000, -8.000000000000000000 ) ) ;
#1215 = CARTESIAN_POINT ( 'NONE',  ( 3.068748073356192000, 4.299999999999999800, 8.000000000000000000 ) ) ;
#1216 = CARTESIAN_POINT ( 'NONE',  ( 0.4999999999999952300, 0.0000000000000000000, -8.000000000000000000 ) ) ;
#1217 = CARTESIAN_POINT ( 'NONE',  ( -1.099999999999996800, 9.000000000000005300, 8.000000000000000000 ) ) ;
#1218 = CARTESIAN_POINT ( 'NONE',  ( 5.900000000000002100, 1.000000000000000900, -8.000000000000000000 ) ) ;
#1219 = CARTESIAN_POINT ( 'NONE',  ( 0.4999999999999952300, 0.0000000000000000000, 2.983391526434303400 ) ) ;
#1220 = CARTESIAN_POINT ( 'NONE',  ( 4.653657836759942700E-016, 0.5000000000000000000, -8.000000000000000000 ) ) ;
#1221 = DIRECTION ( 'NONE',  ( 1.000000000000000000, 0.0000000000000000000, 0.0000000000000000000 ) ) ;
#1222 = CARTESIAN_POINT ( 'NONE',  ( 4.000000000000000000, 1.000000000000000000, 8.000000000000000000 ) ) ;
#1223 =( NAMED_UNIT ( * ) PLANE_ANGLE_UNIT ( ) SI_UNIT ( $, .RADIAN. ) );
#1224 = PERSON_AND_ORGANIZATION_ROLE ( 'design_supplier' ) ;
#1225 = PERSON_AND_ORGANIZATION_ROLE ( 'classification_officer' ) ;
#1226 = CARTESIAN_POINT ( 'NONE',  ( -5.900000000000002100, 1.000000000000002700, -8.000000000000000000 ) ) ;
#1227 = APPLICATION_CONTEXT ( 'configuration controlled 3d designs of mechanical parts and assemblies' ) ;
#1228 = CARTESIAN_POINT ( 'NONE',  ( 3.898408801597434300E-016, 0.4999999999999998900, -2.524999999999999000 ) ) ;
#1229 = APPROVAL_ROLE ( '' ) ;
#1230 = SECURITY_CLASSIFICATION_LEVEL ( 'unclassified' ) ;
#1231 = CARTESIAN_POINT ( 'NONE',  ( -3.099999999999997000, 9.000000000000003600, -5.000000000000000000 ) ) ;
#1232 = DATE_TIME_ROLE ( 'creation_date' ) ;
#1233 = CARTESIAN_POINT ( 'NONE',  ( 0.4999999999999952300, 0.0000000000000000000, -2.983391526434303400 ) ) ;
#1234 = CARTESIAN_POINT ( 'NONE',  ( 4.000000000000000000, 0.0000000000000000000, 8.000000000000000000 ) ) ;
#1235 =( NAMED_UNIT ( * ) SI_UNIT ( $, .STERADIAN. ) SOLID_ANGLE_UNIT ( ) );
#1236 = APPLICATION_PROTOCOL_DEFINITION ( 'international standard', 'config_control_design', 1994, #1241 ) ;
#1237 = PERSON_AND_ORGANIZATION_ROLE ( 'design_owner' ) ;
#1238 = CARTESIAN_POINT ( 'NONE',  ( -3.068748073356192000, 4.299999999999998900, -8.000000000000000000 ) ) ;
#1239 = CARTESIAN_POINT ( 'NONE',  ( 6.063830408857800300, 1.114715287270210900, -8.000000000000000000 ) ) ;
#1240 = CARTESIAN_POINT ( 'NONE',  ( 1.059340090654549600, 8.261868159972316100, -3.000000000000000000 ) ) ;
#1241 = APPLICATION_CONTEXT ( 'configuration controlled 3d designs of mechanical parts and assemblies' ) ;
#1242 = PERSON_AND_ORGANIZATION_ROLE ( 'creator' ) ;
#1243 = APPROVAL_ROLE ( '' ) ;
#1244 = DIRECTION ( 'NONE',  ( -0.0000000000000000000, -0.0000000000000000000, -1.000000000000000000 ) ) ;
#1245 = DIRECTION ( 'NONE',  ( 0.0000000000000000000, 0.0000000000000000000, 1.000000000000000000 ) ) ;
#1246 = DIRECTION ( 'NONE',  ( 1.000000000000000000, -0.0000000000000000000, -0.0000000000000000000 ) ) ;
#1247 = CARTESIAN_POINT ( 'NONE',  ( 6.063830408857800300, 1.114715287270210900, 8.000000000000000000 ) ) ;
#1248 = DIRECTION ( 'NONE',  ( 7.359237060048027600E-016, -1.000000000000000000, -0.0000000000000000000 ) ) ;
#1249 = DIRECTION ( 'NONE',  ( 1.000000000000000000, -0.0000000000000000000, -0.0000000000000000000 ) ) ;
#1250 = CARTESIAN_POINT ( 'NONE',  ( 4.653657836759942700E-016, 0.5000000000000000000, 2.524999999999999000 ) ) ;
#1251 = CARTESIAN_POINT ( 'NONE',  ( -0.7427944067812265500, 7.000000000000002700, -8.000000000000000000 ) ) ;
#1252 = DIRECTION ( 'NONE',  ( -1.000000000000000000, -8.673617379884035500E-016, 0.0000000000000000000 ) ) ;
#1253 = DIRECTION ( 'NONE',  ( 1.000000000000000000, 0.0000000000000000000, 0.0000000000000000000 ) ) ;
#1254 = CARTESIAN_POINT ( 'NONE',  ( -0.7427944067812268800, 9.000000000000005300, 2.999999999999999100 ) ) ;
#1255 = CARTESIAN_POINT ( 'NONE',  ( -1.099999999999996800, 9.000000000000005300, 5.000000000000000900 ) ) ;
#1256 = CARTESIAN_POINT ( 'NONE',  ( -1.099999999999997400, 9.000000000000005300, -6.000000000000000000 ) ) ;
#1257 = CARTESIAN_POINT ( 'NONE',  ( -0.4999999999999987200, 0.0000000000000000000, -2.983391526434302900 ) ) ;
#1258 = CARTESIAN_POINT ( 'NONE',  ( -0.7427944067812267700, 9.000000000000005300, -8.000000000000000000 ) ) ;
#1259 = DIRECTION ( 'NONE',  ( 0.0000000000000000000, 0.0000000000000000000, 1.000000000000000000 ) ) ;
#1260 = DIRECTION ( 'NONE',  ( -1.000000000000000000, -7.359237060048027600E-016, 0.0000000000000000000 ) ) ;
#1261 = CARTESIAN_POINT ( 'NONE',  ( 1.059340090654549600, 8.261868159972316100, -8.000000000000000000 ) ) ;
#1262 = CARTESIAN_POINT ( 'NONE',  ( -0.4999999999999952300, 3.469446951953614200E-015, 8.000000000000000000 ) ) ;
#1263 = DIRECTION ( 'NONE',  ( 1.000000000000000000, 0.0000000000000000000, 0.0000000000000000000 ) ) ;
#1264 = CARTESIAN_POINT ( 'NONE',  ( 1.880382590416504100, 6.740608591362513600, -3.000000000000000000 ) ) ;
#1265 = CARTESIAN_POINT ( 'NONE',  ( -0.7427944067812269900, 9.200000000000004600, 8.000000000000000000 ) ) ;
#1266 = CARTESIAN_POINT ( 'NONE',  ( -3.099999999999997400, 9.200000000000002800, 6.000000000000000000 ) ) ;
#1267 = CARTESIAN_POINT ( 'NONE',  ( -1.099999999999997900, 9.200000000000004600, -8.000000000000000000 ) ) ;
#1268 = CARTESIAN_POINT ( 'NONE',  ( 0.0000000000000000000, 4.299999999999999800, -2.499999999999999600 ) ) ;
#1269 = CARTESIAN_POINT ( 'NONE',  ( -0.7427944067812269900, 9.200000000000004600, 2.999999999999999100 ) ) ;
#1270 = CARTESIAN_POINT ( 'NONE',  ( -1.099999999999997200, 9.200000000000004600, 8.000000000000000000 ) ) ;
#1271 = CARTESIAN_POINT ( 'NONE',  ( 3.887900117645180800, 3.873576436351049900, 8.000000000000000000 ) ) ;
#1272 = CARTESIAN_POINT ( 'NONE',  ( -0.4999999999999952300, 3.469446951953614200E-015, 8.000000000000000000 ) ) ;
#1273 = CARTESIAN_POINT ( 'NONE',  ( -0.4999999999999952300, 3.469446951953614200E-015, -8.000000000000000000 ) ) ;
#1274 = CARTESIAN_POINT ( 'NONE',  ( -3.099999999999997000, 9.000000000000003600, -8.000000000000000000 ) ) ;
#1275 = CARTESIAN_POINT ( 'NONE',  ( 1.059340090654550300, 8.261868159972316100, 3.000000000000000000 ) ) ;
#1276 = CARTESIAN_POINT ( 'NONE',  ( -3.099999999999997000, 9.000000000000003600, -6.000000000000000000 ) ) ;
#1277 = CARTESIAN_POINT ( 'NONE',  ( 0.0000000000000000000, 0.5249999999999990200, -2.499999999999999600 ) ) ;
#1278 = CARTESIAN_POINT ( 'NONE',  ( 1.880382590416503700, 6.740608591362512700, 3.000000000000000000 ) ) ;
#1279 = CARTESIAN_POINT ( 'NONE',  ( -3.099999999999997400, 9.200000000000002800, 5.000000000000000900 ) ) ;
#1280 = DIRECTION ( 'NONE',  ( 0.0000000000000000000, 0.0000000000000000000, 1.000000000000000000 ) ) ;
#1281 = CARTESIAN_POINT ( 'NONE',  ( -4.000000000000000000, 3.469446951953614200E-015, 8.000000000000000000 ) ) ;
#1282 = CARTESIAN_POINT ( 'NONE',  ( -1.099999999999996800, 9.000000000000005300, -3.000000000000000000 ) ) ;
#1283 = CARTESIAN_POINT ( 'NONE',  ( -0.7427944067812268800, 9.000000000000005300, -8.000000000000000000 ) ) ;
#1284 = CARTESIAN_POINT ( 'NONE',  ( -1.099999999999997600, 9.200000000000004600, 3.000000000000000000 ) ) ;
#1285 = DIRECTION ( 'NONE',  ( 7.359237060048027600E-016, -1.000000000000000000, -0.0000000000000000000 ) ) ;
#1286 = CARTESIAN_POINT ( 'NONE',  ( -3.099999999999997400, 9.200000000000002800, -5.000000000000000000 ) ) ;
#1287 = CARTESIAN_POINT ( 'NONE',  ( 0.8955096817967515000, 8.147152872702104500, -3.000000000000000000 ) ) ;
#1288 = CARTESIAN_POINT ( 'NONE',  ( 2.044212999274302800, 6.855323878632723300, -3.000000000000000000 ) ) ;
#1289 = CARTESIAN_POINT ( 'NONE',  ( -0.7427944067812269900, 9.200000000000004600, -3.000000000000000000 ) ) ;
#1290 = CARTESIAN_POINT ( 'NONE',  ( 3.061616997868382600E-016, 4.299999999999999800, 2.499999999999999600 ) ) ;
#1291 = CARTESIAN_POINT ( 'NONE',  ( -0.7427944067812268800, 9.000000000000005300, 8.000000000000000000 ) ) ;
#1292 = CARTESIAN_POINT ( 'NONE',  ( 1.059340090654549600, 8.261868159972316100, 8.000000000000000000 ) ) ;
#1293 = CARTESIAN_POINT ( 'NONE',  ( 0.8955096817967515000, 8.147152872702104500, 2.999999999999999100 ) ) ;
#1294 = DIRECTION ( 'NONE',  ( -1.000000000000000000, -8.673617379884035500E-016, 0.0000000000000000000 ) ) ;
#1295 = CARTESIAN_POINT ( 'NONE',  ( -0.7427944067812265500, 7.000000000000002700, 8.000000000000000000 ) ) ;
#1296 = CARTESIAN_POINT ( 'NONE',  ( 0.4999999999999952300, 0.0000000000000000000, 8.000000000000000000 ) ) ;
#1297 = CARTESIAN_POINT ( 'NONE',  ( -4.000000000000000000, 1.000000000000001800, -8.000000000000000000 ) ) ;
#1298 = CARTESIAN_POINT ( 'NONE',  ( -1.099999999999996800, 9.000000000000005300, 3.000000000000000000 ) ) ;
#1299 = CARTESIAN_POINT ( 'NONE',  ( 4.653657836759942700E-016, 0.5000000000000000000, 8.000000000000000000 ) ) ;
#1300 = CARTESIAN_POINT ( 'NONE',  ( -3.068748073356192000, 4.299999999999998900, 8.000000000000000000 ) ) ;
#1301 = CARTESIAN_POINT ( 'NONE',  ( -3.099999999999997400, 9.200000000000002800, -6.000000000000000000 ) ) ;
#1302 = CARTESIAN_POINT ( 'NONE',  ( 2.044212999274302800, 6.855323878632723300, 3.000000000000000000 ) ) ;
#1303 = CARTESIAN_POINT ( 'NONE',  ( -0.7427944067812269900, 9.200000000000004600, -8.000000000000000000 ) ) ;
#1304 = CARTESIAN_POINT ( 'NONE',  ( 3.383086782644562700E-016, 0.5249999999999990200, 2.499999999999999600 ) ) ;
#1305 = CARTESIAN_POINT ( 'NONE',  ( -5.900000000000002100, 1.000000000000002700, 8.000000000000000000 ) ) ;
#1306 = CARTESIAN_POINT ( 'NONE',  ( 0.8955096817967515000, 8.147152872702104500, 8.000000000000000000 ) ) ;
#1307 = CARTESIAN_POINT ( 'NONE',  ( -0.4999999999999987200, 0.0000000000000000000, 2.983391526434302900 ) ) ;
#1308 = CARTESIAN_POINT ( 'NONE',  ( -3.099999999999997000, 9.000000000000003600, 5.000000000000000900 ) ) ;
#1309 = CARTESIAN_POINT ( 'NONE',  ( -4.000000000000000000, 3.469446951953614200E-015, 8.000000000000000000 ) ) ;
#1310 = CARTESIAN_POINT ( 'NONE',  ( -1.099999999999997400, 9.000000000000005300, -8.000000000000000000 ) ) ;
#1311 = CARTESIAN_POINT ( 'NONE',  ( -0.7427944067812268800, 9.000000000000005300, -3.000000000000000000 ) ) ;
#1312 = CARTESIAN_POINT ( 'NONE',  ( -4.000000000000000000, 1.000000000000001800, 8.000000000000000000 ) ) ;
#1313 = CARTESIAN_POINT ( 'NONE',  ( -3.887900117645180800, 3.873576436351049000, -8.000000000000000000 ) ) ;
#1314 = CARTESIAN_POINT ( 'NONE',  ( -3.099999999999997000, 9.000000000000003600, 6.000000000000000000 ) ) ;
#1315 = CARTESIAN_POINT ( 'NONE',  ( -0.4999999999999952300, 3.469446951953614200E-015, -8.000000000000000000 ) ) ;
#1316 = PRODUCT ( 'ALP0518', 'ALP0518', '', ( #1198 ) ) ;
#1317 = PERSON ( 'UNSPECIFIED', 'UNSPECIFIED', 'UNSPECIFIED', ('UNSPECIFIED'), ('UNSPECIFIED'), ('UNSPECIFIED') ) ;
#1318 = DIRECTION ( 'NONE',  ( 1.413217568296177700E-016, -1.000000000000000000, 0.0000000000000000000 ) ) ;
#1319 = DIRECTION ( 'NONE',  ( 1.000000000000000000, 0.0000000000000000000, 0.0000000000000000000 ) ) ;
#1320 = CARTESIAN_POINT ( 'NONE',  ( -0.7427944067812267700, 9.000000000000005300, 8.000000000000000000 ) ) ;
#1321 = DIRECTION ( 'NONE',  ( -1.000000000000000000, -7.359237060048027600E-016, 0.0000000000000000000 ) ) ;
#1322 = CARTESIAN_POINT ( 'NONE',  ( -0.4999999999999952300, 3.469446951953614200E-015, 8.000000000000000000 ) ) ;
#1323 = VECTOR ( 'NONE', #1249, 1000.000000000000000 ) ;
#1324 = CIRCLE ( 'NONE', #204, 2.000000000000000000 ) ;
#1325 = LINE ( 'NONE', #1281, #1327 ) ;
#1326 = CIRCLE ( 'NONE', #224, 2.000000000000001300 ) ;
#1327 = VECTOR ( 'NONE', #1244, 1000.000000000000000 ) ;
#1328 = LINE ( 'NONE', #1258, #1332 ) ;
#1329 = VECTOR ( 'NONE', #1, 1000.000000000000000 ) ;
#1330 = VECTOR ( 'NONE', #1321, 1000.000000000000000 ) ;
#1331 = LINE ( 'NONE', #303, #1337 ) ;
#1332 = VECTOR ( 'NONE', #1260, 1000.000000000000000 ) ;
#1333 = LINE ( 'NONE', #62, #1334 ) ;
#1334 = VECTOR ( 'NONE', #52, 1000.000000000000000 ) ;
#1335 = CIRCLE ( 'NONE', #251, 2.000000000000001300 ) ;
#1336 = LINE ( 'NONE', #1320, #1330 ) ;
#1337 = VECTOR ( 'NONE', #2, 1000.000000000000000 ) ;
#1338 = VECTOR ( 'NONE', #1259, 1000.000000000000000 ) ;
#1339 = LINE ( 'NONE', #1322, #1329 ) ;
#1340 = CIRCLE ( 'NONE', #219, 2.000000000000001300 ) ;
#1341 = VECTOR ( 'NONE', #1246, 1000.000000000000000 ) ;
#1342 = LINE ( 'NONE', #1273, #1323 ) ;
#1343 = LINE ( 'NONE', #1272, #1341 ) ;
#1344 = CIRCLE ( 'NONE', #252, 2.000000000000000000 ) ;
#1345 = LINE ( 'NONE', #1274, #1338 ) ;
#1346 = CIRCLE ( 'NONE', #248, 2.499999999999999600 ) ;
#1347 = ORGANIZATION ( 'UNSPECIFIED', 'UNSPECIFIED', '' ) ;
#1348 = SHAPE_DEFINITION_REPRESENTATION ( #4, #630 ) ;
#1349 = PERSON_AND_ORGANIZATION ( #1317, #1347 ) ;
#1350 = PERSON_AND_ORGANIZATION ( #1317, #1347 ) ;
#1351 = PERSON_AND_ORGANIZATION ( #1317, #1347 ) ;
#1352 = CALENDAR_DATE ( 2017, 1, 2 ) ;
#1353 = DATE_AND_TIME ( #1370, #1369 ) ;
#1354 = PERSON_AND_ORGANIZATION ( #1317, #1347 ) ;
#1355 = CALENDAR_DATE ( 2017, 1, 2 ) ;
#1356 = COORDINATED_UNIVERSAL_TIME_OFFSET ( 1, 0, .AHEAD. ) ;
#1357 = COORDINATED_UNIVERSAL_TIME_OFFSET ( 1, 0, .AHEAD. ) ;
#1358 = DATE_AND_TIME ( #1355, #1375 ) ;
#1359 = APPROVAL_PERSON_ORGANIZATION ( #1368, #220, #1229 ) ;
#1360 = APPROVAL_DATE_TIME ( #1358, #220 ) ;
#1361 = CALENDAR_DATE ( 2017, 1, 2 ) ;
#1362 = COORDINATED_UNIVERSAL_TIME_OFFSET ( 1, 0, .AHEAD. ) ;
#1363 = LOCAL_TIME ( 16, 23, 10.00000000000000000, #1362 ) ;
#1364 = DATE_AND_TIME ( #1352, #1363 ) ;
#1365 = APPROVAL_DATE_TIME ( #1364, #255 ) ;
#1366 = PERSON_AND_ORGANIZATION ( #1317, #1347 ) ;
#1367 = COORDINATED_UNIVERSAL_TIME_OFFSET ( 1, 0, .AHEAD. ) ;
#1368 = PERSON_AND_ORGANIZATION ( #1317, #1347 ) ;
#1369 = LOCAL_TIME ( 16, 23, 10.00000000000000000, #1367 ) ;
#1370 = CALENDAR_DATE ( 2017, 1, 2 ) ;
#1371 = APPROVAL_PERSON_ORGANIZATION ( #1354, #261, #1243 ) ;
#1372 = COORDINATED_UNIVERSAL_TIME_OFFSET ( 1, 0, .AHEAD. ) ;
#1373 = DATE_AND_TIME ( #1361, #1379 ) ;
#1374 = LOCAL_TIME ( 16, 23, 10.00000000000000000, #1372 ) ;
#1375 = LOCAL_TIME ( 16, 23, 10.00000000000000000, #1356 ) ;
#1376 = DATE_AND_TIME ( #1378, #1374 ) ;
#1377 = PERSON_AND_ORGANIZATION ( #1317, #1347 ) ;
#1378 = CALENDAR_DATE ( 2017, 1, 2 ) ;
#1379 = LOCAL_TIME ( 16, 23, 10.00000000000000000, #1357 ) ;
#1380 = APPROVAL_DATE_TIME ( #1376, #261 ) ;
#1381 = PERSON_AND_ORGANIZATION ( #1317, #1347 ) ;
#1382 = APPROVAL_PERSON_ORGANIZATION ( #1350, #255, #1200 ) ;
ENDSEC;
END-ISO-10303-21;
