ISO-10303-21;
HEADER;
FILE_DESCRIPTION (( 'STEP AP203' ),
    '1' );
FILE_NAME ('ALP0660.STEP',
    '2017-02-02T14:33:40',
    ( '' ),
    ( '' ),
    'SwSTEP 2.0',
    'SolidWorks 2012',
    '' );
FILE_SCHEMA (( 'CONFIG_CONTROL_DESIGN' ));
ENDSEC;

DATA;
#1 = CARTESIAN_POINT ( 'NONE',  ( 1.224646799147351300E-015, 0.0000000000000000000, -10.00000000000000000 ) ) ;
#2 = DIRECTION ( 'NONE',  ( -0.0000000000000000000, -1.000000000000000000, -0.0000000000000000000 ) ) ;
#3 = CARTESIAN_POINT ( 'NONE',  ( 1.224646799147351300E-015, 0.5250000000000011300, 10.00000000000000400 ) ) ;
#4 = DIRECTION ( 'NONE',  ( 0.0000000000000000000, 0.0000000000000000000, -1.000000000000000000 ) ) ;
#5 = DIRECTION ( 'NONE',  ( 0.0000000000000000000, 0.0000000000000000000, -1.000000000000000000 ) ) ;
#6 = DIRECTION ( 'NONE',  ( 0.0000000000000000000, 0.0000000000000000000, -1.000000000000000000 ) ) ;
#7 = CARTESIAN_POINT ( 'NONE',  ( 1.224646799147351300E-015, 0.5250000000000011300, -10.00000000000000000 ) ) ;
#8 = CARTESIAN_POINT ( 'NONE',  ( 1.224646799147351300E-015, 10.49999999999999800, -30.00000000000000000 ) ) ;
#9 = CARTESIAN_POINT ( 'NONE',  ( -0.5000000000000001100, 0.0000000000000000000, 40.00000000000000000 ) ) ;
#10 = DIRECTION ( 'NONE',  ( -0.0000000000000000000, -0.0000000000000000000, -1.000000000000000000 ) ) ;
#11 = DIRECTION ( 'NONE',  ( -0.0000000000000000000, -0.0000000000000000000, -1.000000000000000000 ) ) ;
#12 = DIRECTION ( 'NONE',  ( -0.0000000000000000000, -1.000000000000000000, -0.0000000000000000000 ) ) ;
#13 = DIRECTION ( 'NONE',  ( -0.0000000000000000000, -1.000000000000000000, -0.0000000000000000000 ) ) ;
#14 = DIRECTION ( 'NONE',  ( 0.0000000000000000000, 0.0000000000000000000, -1.000000000000000000 ) ) ;
#15 = DIRECTION ( 'NONE',  ( -0.0000000000000000000, -1.000000000000000000, -0.0000000000000000000 ) ) ;
#16 = DIRECTION ( 'NONE',  ( -0.0000000000000000000, -0.0000000000000000000, -1.000000000000000000 ) ) ;
#17 = CARTESIAN_POINT ( 'NONE',  ( 0.0000000000000000000, 0.0000000000000000000, 0.0000000000000000000 ) ) ;
#18 = CARTESIAN_POINT ( 'NONE',  ( -6.800000000000070000, 10.49999999999999800, 40.00000000000000000 ) ) ;
#19 = CARTESIAN_POINT ( 'NONE',  ( 1.224646799147351300E-015, 0.5250000000000011300, -30.00000000000000000 ) ) ;
#20 = DIRECTION ( 'NONE',  ( -0.0000000000000000000, -1.000000000000000000, -0.0000000000000000000 ) ) ;
#21 = PERSON_AND_ORGANIZATION_ROLE ( 'classification_officer' ) ;
#22 =( LENGTH_UNIT ( ) NAMED_UNIT ( * ) SI_UNIT ( .MILLI., .METRE. ) );
#23 = MECHANICAL_CONTEXT ( 'NONE', #33, 'mechanical' ) ;
#24 = APPROVAL_STATUS ( 'not_yet_approved' ) ;
#25 = APPROVAL_STATUS ( 'not_yet_approved' ) ;
#26 = PERSON_AND_ORGANIZATION_ROLE ( 'creator' ) ;
#27 =( NAMED_UNIT ( * ) PLANE_ANGLE_UNIT ( ) SI_UNIT ( $, .RADIAN. ) );
#28 = APPLICATION_PROTOCOL_DEFINITION ( 'international standard', 'config_control_design', 1994, #33 ) ;
#29 = APPLICATION_CONTEXT ( 'configuration controlled 3d designs of mechanical parts and assemblies' ) ;
#30 = DATE_TIME_ROLE ( 'classification_date' ) ;
#31 = DIRECTION ( 'NONE',  ( 0.0000000000000000000, 0.0000000000000000000, -1.000000000000000000 ) ) ;
#32 = DIRECTION ( 'NONE',  ( 0.0000000000000000000, 0.0000000000000000000, 1.000000000000000000 ) ) ;
#33 = APPLICATION_CONTEXT ( 'configuration controlled 3d designs of mechanical parts and assemblies' ) ;
#34 = APPROVAL_ROLE ( '' ) ;
#35 = PERSON_AND_ORGANIZATION_ROLE ( 'design_supplier' ) ;
#36 = APPROVAL_ROLE ( '' ) ;
#37 =( NAMED_UNIT ( * ) SI_UNIT ( $, .STERADIAN. ) SOLID_ANGLE_UNIT ( ) );
#38 = DIRECTION ( 'NONE',  ( 1.000000000000000000, 0.0000000000000000000, 0.0000000000000000000 ) ) ;
#39 = SECURITY_CLASSIFICATION_LEVEL ( 'unclassified' ) ;
#40 = APPROVAL_STATUS ( 'not_yet_approved' ) ;
#41 = PERSON_AND_ORGANIZATION_ROLE ( 'creator' ) ;
#42 = DATE_TIME_ROLE ( 'creation_date' ) ;
#43 = PERSON_AND_ORGANIZATION_ROLE ( 'design_owner' ) ;
#44 = APPLICATION_PROTOCOL_DEFINITION ( 'international standard', 'config_control_design', 1994, #29 ) ;
#45 = APPROVAL_ROLE ( '' ) ;
#46 = DIRECTION ( 'NONE',  ( 0.0000000000000000000, 1.000000000000000000, -0.0000000000000000000 ) ) ;
#47 = PLANE ( 'NONE',  #1132 ) ;
#48 = PLANE ( 'NONE',  #1146 ) ;
#49 = CARTESIAN_POINT ( 'NONE',  ( 1.224646799147351300E-015, 0.5000000000000111000, 40.00000000000000000 ) ) ;
#50 = DIRECTION ( 'NONE',  ( 0.0000000000000000000, 0.0000000000000000000, -1.000000000000000000 ) ) ;
#51 = DIRECTION ( 'NONE',  ( 0.0000000000000000000, 0.0000000000000000000, 1.000000000000000000 ) ) ;
#52 = CARTESIAN_POINT ( 'NONE',  ( 1.224646799147351300E-015, 0.5000000000000111000, 40.00000000000000000 ) ) ;
#53 = DIRECTION ( 'NONE',  ( 0.0000000000000000000, -0.0000000000000000000, -1.000000000000000000 ) ) ;
#54 = CARTESIAN_POINT ( 'NONE',  ( 1.224646799147351300E-015, 0.5000000000000111000, 40.00000000000000000 ) ) ;
#55 = DIRECTION ( 'NONE',  ( 0.7071067811865561200, 0.7071067811865390200, -0.0000000000000000000 ) ) ;
#56 = PLANE ( 'NONE',  #1169 ) ;
#57 = PLANE ( 'NONE',  #1122 ) ;
#58 = CARTESIAN_POINT ( 'NONE',  ( 9.800000000000000700, 7.500000000000000000, 40.00000000000000000 ) ) ;
#59 = DIRECTION ( 'NONE',  ( -0.0000000000000000000, -1.000000000000000000, -0.0000000000000000000 ) ) ;
#60 = CARTESIAN_POINT ( 'NONE',  ( 6.800000000000068200, 10.49999999999999800, 40.00000000000000000 ) ) ;
#61 = DIRECTION ( 'NONE',  ( 0.0000000000000000000, -1.000000000000000000, 0.0000000000000000000 ) ) ;
#62 = DIRECTION ( 'NONE',  ( -0.7071067811865544600, 0.7071067811865406900, 0.0000000000000000000 ) ) ;
#63 = DIRECTION ( 'NONE',  ( -0.7071067811865406900, -0.7071067811865544600, 0.0000000000000000000 ) ) ;
#64 = DIRECTION ( 'NONE',  ( 0.0000000000000000000, 0.0000000000000000000, -1.000000000000000000 ) ) ;
#65 = DIRECTION ( 'NONE',  ( -0.7071067811865406900, -0.7071067811865544600, 0.0000000000000000000 ) ) ;
#66 = DIRECTION ( 'NONE',  ( -0.7071067811865544600, 0.7071067811865406900, 0.0000000000000000000 ) ) ;
#67 = PLANE ( 'NONE',  #1133 ) ;
#68 = DIRECTION ( 'NONE',  ( -0.7071067811865390200, 0.7071067811865561200, 0.0000000000000000000 ) ) ;
#69 = CARTESIAN_POINT ( 'NONE',  ( 1.224646799147351300E-015, 0.0000000000000000000, 10.00000000000000400 ) ) ;
#70 = CARTESIAN_POINT ( 'NONE',  ( 1.224646799147351300E-015, 0.5000000000000111000, 40.00000000000000000 ) ) ;
#71 = DIRECTION ( 'NONE',  ( -0.7071067811865544600, 0.7071067811865406900, 0.0000000000000000000 ) ) ;
#72 = PLANE ( 'NONE',  #1145 ) ;
#73 = DIRECTION ( 'NONE',  ( 0.7071067811865396900, -0.7071067811865553400, 0.0000000000000000000 ) ) ;
#74 = DIRECTION ( 'NONE',  ( -0.0000000000000000000, -1.000000000000000000, -0.0000000000000000000 ) ) ;
#75 = DIRECTION ( 'NONE',  ( -0.7071067811865406900, -0.7071067811865544600, 0.0000000000000000000 ) ) ;
#76 = CARTESIAN_POINT ( 'NONE',  ( -4.900000000000000400, 5.000000000000000000, 40.00000000000000000 ) ) ;
#77 = CARTESIAN_POINT ( 'NONE',  ( 1.224646799147351300E-015, 0.0000000000000000000, 30.00000000000000000 ) ) ;
#78 = DIRECTION ( 'NONE',  ( -0.0000000000000000000, -1.000000000000000000, -0.0000000000000000000 ) ) ;
#79 = DIRECTION ( 'NONE',  ( 0.0000000000000000000, 0.0000000000000000000, -1.000000000000000000 ) ) ;
#80 = CARTESIAN_POINT ( 'NONE',  ( 1.224646799147351300E-015, 0.0000000000000000000, -30.00000000000000000 ) ) ;
#81 = DIRECTION ( 'NONE',  ( -0.7071067811865553400, -0.7071067811865396900, 0.0000000000000000000 ) ) ;
#82 = PLANE ( 'NONE',  #1149 ) ;
#83 = DIRECTION ( 'NONE',  ( -0.0000000000000000000, -1.000000000000000000, -0.0000000000000000000 ) ) ;
#84 = CARTESIAN_POINT ( 'NONE',  ( 1.224646799147351300E-015, 0.0000000000000000000, 30.00000000000000000 ) ) ;
#85 = CARTESIAN_POINT ( 'NONE',  ( -9.800000000000000700, 7.500000000000000000, 40.00000000000000000 ) ) ;
#86 = PLANE ( 'NONE',  #1126 ) ;
#87 = PLANE ( 'NONE',  #1164 ) ;
#88 = DIRECTION ( 'NONE',  ( 0.0000000000000000000, -0.0000000000000000000, 1.000000000000000000 ) ) ;
#89 = DIRECTION ( 'NONE',  ( 0.7071067811865555700, -0.7071067811865394700, 0.0000000000000000000 ) ) ;
#90 = DIRECTION ( 'NONE',  ( 0.0000000000000000000, 1.000000000000000000, -0.0000000000000000000 ) ) ;
#91 = DIRECTION ( 'NONE',  ( -1.000000000000000000, 0.0000000000000000000, 0.0000000000000000000 ) ) ;
#92 = CARTESIAN_POINT ( 'NONE',  ( 1.224646799147351300E-015, 0.5000000000000111000, 40.00000000000000000 ) ) ;
#93 = CARTESIAN_POINT ( 'NONE',  ( -0.5000000000000001100, 0.0000000000000000000, 40.00000000000000000 ) ) ;
#94 = CARTESIAN_POINT ( 'NONE',  ( 1.224646799147351300E-015, 0.5000000000000111000, 40.00000000000000000 ) ) ;
#95 = DIRECTION ( 'NONE',  ( 0.0000000000000000000, 0.0000000000000000000, -1.000000000000000000 ) ) ;
#96 = DIRECTION ( 'NONE',  ( -0.7071067811865390200, 0.7071067811865561200, 0.0000000000000000000 ) ) ;
#97 = DIRECTION ( 'NONE',  ( -0.0000000000000000000, -1.000000000000000000, -0.0000000000000000000 ) ) ;
#98 = PLANE ( 'NONE',  #1125 ) ;
#99 = DIRECTION ( 'NONE',  ( -0.0000000000000000000, -1.000000000000000000, -0.0000000000000000000 ) ) ;
#100 = DIRECTION ( 'NONE',  ( 0.0000000000000000000, 0.0000000000000000000, -1.000000000000000000 ) ) ;
#101 = DIRECTION ( 'NONE',  ( 0.0000000000000000000, 0.0000000000000000000, -1.000000000000000000 ) ) ;
#102 = CARTESIAN_POINT ( 'NONE',  ( 0.5000000000000001100, 0.0000000000000000000, 40.00000000000000000 ) ) ;
#103 = PLANE ( 'NONE',  #1157 ) ;
#104 = PLANE ( 'NONE',  #1128 ) ;
#105 = DIRECTION ( 'NONE',  ( 0.0000000000000000000, 0.0000000000000000000, 1.000000000000000000 ) ) ;
#106 = DIRECTION ( 'NONE',  ( 0.0000000000000000000, 0.0000000000000000000, 1.000000000000000000 ) ) ;
#107 = DIRECTION ( 'NONE',  ( 0.7071067811865561200, 0.7071067811865390200, -0.0000000000000000000 ) ) ;
#108 = CARTESIAN_POINT ( 'NONE',  ( 1.224646799147351300E-015, 0.0000000000000000000, -10.00000000000000000 ) ) ;
#109 = PLANE ( 'NONE',  #1150 ) ;
#110 = DIRECTION ( 'NONE',  ( 0.7071067811865394700, 0.7071067811865555700, 0.0000000000000000000 ) ) ;
#111 = DIRECTION ( 'NONE',  ( 0.0000000000000000000, 1.000000000000000000, 0.0000000000000000000 ) ) ;
#112 = DIRECTION ( 'NONE',  ( 0.7071067811865561200, 0.7071067811865390200, -0.0000000000000000000 ) ) ;
#113 = DIRECTION ( 'NONE',  ( -0.7071067811865390200, 0.7071067811865561200, 0.0000000000000000000 ) ) ;
#114 = CARTESIAN_POINT ( 'NONE',  ( 4.900000000000000400, 0.0000000000000000000, 40.00000000000000000 ) ) ;
#115 = CARTESIAN_POINT ( 'NONE',  ( 1.224646799147351300E-015, 0.0000000000000000000, -30.00000000000000000 ) ) ;
#116 = CARTESIAN_POINT ( 'NONE',  ( 1.224646799147351300E-015, 0.0000000000000000000, -30.00000000000000000 ) ) ;
#117 = DIRECTION ( 'NONE',  ( -0.0000000000000000000, -1.000000000000000000, -0.0000000000000000000 ) ) ;
#118 = DIRECTION ( 'NONE',  ( -1.000000000000000000, 0.0000000000000000000, 0.0000000000000000000 ) ) ;
#119 = CARTESIAN_POINT ( 'NONE',  ( 1.224646799147351300E-015, 0.0000000000000000000, 30.00000000000000000 ) ) ;
#120 = CARTESIAN_POINT ( 'NONE',  ( -9.800000000000000700, 5.000000000000000000, 40.00000000000000000 ) ) ;
#121 = DIRECTION ( 'NONE',  ( 0.0000000000000000000, 0.0000000000000000000, -1.000000000000000000 ) ) ;
#122 = DIRECTION ( 'NONE',  ( 0.7071067811865561200, 0.7071067811865390200, -0.0000000000000000000 ) ) ;
#123 = PLANE ( 'NONE',  #1179 ) ;
#124 = PLANE ( 'NONE',  #1194 ) ;
#125 = CARTESIAN_POINT ( 'NONE',  ( 1.224646799147351300E-015, 0.5000000000000111000, 40.00000000000000000 ) ) ;
#126 = DIRECTION ( 'NONE',  ( -0.0000000000000000000, -1.000000000000000000, -0.0000000000000000000 ) ) ;
#127 = DIRECTION ( 'NONE',  ( 0.0000000000000000000, 0.0000000000000000000, -1.000000000000000000 ) ) ;
#128 = DIRECTION ( 'NONE',  ( 1.000000000000000000, 0.0000000000000000000, 0.0000000000000000000 ) ) ;
#129 = CARTESIAN_POINT ( 'NONE',  ( 1.224646799147351300E-015, 0.0000000000000000000, 10.00000000000000400 ) ) ;
#130 = CARTESIAN_POINT ( 'NONE',  ( 0.0000000000000000000, 0.0000000000000000000, -40.00000000000000000 ) ) ;
#131 = DIRECTION ( 'NONE',  ( 0.0000000000000000000, 0.0000000000000000000, -1.000000000000000000 ) ) ;
#132 = DIRECTION ( 'NONE',  ( 0.0000000000000000000, 0.0000000000000000000, -1.000000000000000000 ) ) ;
#133 = DIRECTION ( 'NONE',  ( -0.0000000000000000000, -1.000000000000000000, -0.0000000000000000000 ) ) ;
#134 = DIRECTION ( 'NONE',  ( -0.0000000000000000000, -1.000000000000000000, -0.0000000000000000000 ) ) ;
#135 = DIRECTION ( 'NONE',  ( 0.0000000000000000000, 1.000000000000000000, 0.0000000000000000000 ) ) ;
#136 = DIRECTION ( 'NONE',  ( 0.0000000000000000000, 0.0000000000000000000, -1.000000000000000000 ) ) ;
#137 = PLANE ( 'NONE',  #1189 ) ;
#138 = DIRECTION ( 'NONE',  ( -0.0000000000000000000, -1.000000000000000000, -0.0000000000000000000 ) ) ;
#139 = PLANE ( 'NONE',  #1200 ) ;
#140 = CARTESIAN_POINT ( 'NONE',  ( 0.0000000000000000000, 0.0000000000000000000, 40.00000000000000000 ) ) ;
#141 = DIRECTION ( 'NONE',  ( 0.0000000000000000000, -0.0000000000000000000, 1.000000000000000000 ) ) ;
#142 = DIRECTION ( 'NONE',  ( -1.000000000000000000, 0.0000000000000000000, 0.0000000000000000000 ) ) ;
#143 = DIRECTION ( 'NONE',  ( 0.0000000000000000000, 0.0000000000000000000, -1.000000000000000000 ) ) ;
#144 = DIRECTION ( 'NONE',  ( -0.7071067811865390200, 0.7071067811865561200, 0.0000000000000000000 ) ) ;
#145 = DIRECTION ( 'NONE',  ( 0.0000000000000000000, 0.0000000000000000000, -1.000000000000000000 ) ) ;
#146 = DIRECTION ( 'NONE',  ( -0.7071067811865406900, -0.7071067811865544600, 0.0000000000000000000 ) ) ;
#147 = DIRECTION ( 'NONE',  ( 0.0000000000000000000, 0.0000000000000000000, -1.000000000000000000 ) ) ;
#148 = CARTESIAN_POINT ( 'NONE',  ( 4.900000000000000400, 5.000000000000000000, 40.00000000000000000 ) ) ;
#149 = CARTESIAN_POINT ( 'NONE',  ( 1.224646799147351300E-015, 0.0000000000000000000, -10.00000000000000000 ) ) ;
#150 = PLANE ( 'NONE',  #1196 ) ;
#151 = CARTESIAN_POINT ( 'NONE',  ( -4.900000000000000400, 0.0000000000000000000, 40.00000000000000000 ) ) ;
#152 = DIRECTION ( 'NONE',  ( -0.7071067811865544600, 0.7071067811865406900, 0.0000000000000000000 ) ) ;
#153 = DIRECTION ( 'NONE',  ( 0.0000000000000000000, 0.0000000000000000000, -1.000000000000000000 ) ) ;
#154 = DIRECTION ( 'NONE',  ( 0.0000000000000000000, 0.0000000000000000000, -1.000000000000000000 ) ) ;
#155 = CARTESIAN_POINT ( 'NONE',  ( 1.224646799147351300E-015, 0.0000000000000000000, -30.00000000000000000 ) ) ;
#156 = DIRECTION ( 'NONE',  ( 1.000000000000000000, 0.0000000000000000000, 0.0000000000000000000 ) ) ;
#157 = PLANE ( 'NONE',  #1199 ) ;
#158 = CARTESIAN_POINT ( 'NONE',  ( 1.224646799147351300E-015, 0.0000000000000000000, 10.00000000000000400 ) ) ;
#159 = PLANE ( 'NONE',  #1185 ) ;
#160 = CARTESIAN_POINT ( 'NONE',  ( 1.224646799147351300E-015, 0.5000000000000111000, 40.00000000000000000 ) ) ;
#161 = DIRECTION ( 'NONE',  ( -0.0000000000000000000, -1.000000000000000000, -0.0000000000000000000 ) ) ;
#162 = DIRECTION ( 'NONE',  ( 0.7071067811865561200, 0.7071067811865390200, -0.0000000000000000000 ) ) ;
#163 = CARTESIAN_POINT ( 'NONE',  ( 1.224646799147351300E-015, 0.5000000000000111000, 40.00000000000000000 ) ) ;
#164 = PLANE ( 'NONE',  #1178 ) ;
#165 = CARTESIAN_POINT ( 'NONE',  ( -0.5000000000000001100, 0.0000000000000000000, -12.98339152643430300 ) ) ;
#166 = CARTESIAN_POINT ( 'NONE',  ( 4.653395943009815300E-015, 0.5000000000000075500, -32.52499999999999100 ) ) ;
#167 = CARTESIAN_POINT ( 'NONE',  ( 6.111562200029851900E-016, 0.5000000000000117700, -7.475000000000012100 ) ) ;
#168 = CARTESIAN_POINT ( 'NONE',  ( 9.800000000000000700, 5.000000000000000000, 40.00000000000000000 ) ) ;
#169 = DIRECTION ( 'NONE',  ( -0.0000000000000000000, -1.000000000000000000, -0.0000000000000000000 ) ) ;
#170 = CARTESIAN_POINT ( 'NONE',  ( 1.224646799147351300E-015, 0.5000000000000111000, 40.00000000000000000 ) ) ;
#171 = CARTESIAN_POINT ( 'NONE',  ( 1.748284304019569800E-015, 0.5000000000000105500, -12.52499999999999000 ) ) ;
#172 = CARTESIAN_POINT ( 'NONE',  ( 1.224646799147351300E-015, 0.0000000000000000000, 10.00000000000000400 ) ) ;
#173 = CARTESIAN_POINT ( 'NONE',  ( 1.224646799147351300E-015, 0.0000000000000000000, -10.00000000000000000 ) ) ;
#174 = PLANE ( 'NONE',  #1172 ) ;
#175 = DIRECTION ( 'NONE',  ( 0.0000000000000000000, 0.0000000000000000000, -1.000000000000000000 ) ) ;
#176 = DIRECTION ( 'NONE',  ( -0.7071067811865544600, 0.7071067811865406900, 0.0000000000000000000 ) ) ;
#177 = DIRECTION ( 'NONE',  ( -0.0000000000000000000, -1.000000000000000000, -0.0000000000000000000 ) ) ;
#178 = PLANE ( 'NONE',  #1182 ) ;
#179 = DIRECTION ( 'NONE',  ( -0.7071067811865390200, 0.7071067811865561200, 0.0000000000000000000 ) ) ;
#180 = DIRECTION ( 'NONE',  ( -0.0000000000000000000, -1.000000000000000000, -0.0000000000000000000 ) ) ;
#181 = DIRECTION ( 'NONE',  ( -0.7071067811865406900, -0.7071067811865544600, 0.0000000000000000000 ) ) ;
#182 = CARTESIAN_POINT ( 'NONE',  ( 1.224646799147351300E-015, 0.5250000000000011300, 7.500000000000005300 ) ) ;
#183 = CARTESIAN_POINT ( 'NONE',  ( 1.224646799147351300E-015, 10.49999999999999800, 27.50000000000000000 ) ) ;
#184 = CARTESIAN_POINT ( 'NONE',  ( 1.224646799147351300E-015, 0.5250000000000011300, -32.50000000000000000 ) ) ;
#185 = CARTESIAN_POINT ( 'NONE',  ( 1.562955477411807600E-015, 0.5250000000000011300, 12.50000000000000200 ) ) ;
#186 = CARTESIAN_POINT ( 'NONE',  ( -0.5000000000000001100, 0.0000000000000000000, 12.98339152643430700 ) ) ;
#187 = CARTESIAN_POINT ( 'NONE',  ( -0.5000000000000001100, 0.0000000000000000000, -7.016608473565697500 ) ) ;
#188 = CARTESIAN_POINT ( 'NONE',  ( 0.5000000000000001100, 0.0000000000000000000, -27.01660847356570000 ) ) ;
#189 = CARTESIAN_POINT ( 'NONE',  ( 1.530808498934189400E-015, 10.49999999999999800, -7.500000000000002700 ) ) ;
#190 = DIRECTION ( 'NONE',  ( -0.0000000000000000000, -1.000000000000000000, -0.0000000000000000000 ) ) ;
#191 = DIRECTION ( 'NONE',  ( 0.0000000000000000000, 0.0000000000000000000, -1.000000000000000000 ) ) ;
#192 = DIRECTION ( 'NONE',  ( 0.0000000000000000000, 0.0000000000000000000, -1.000000000000000000 ) ) ;
#193 = DIRECTION ( 'NONE',  ( 0.0000000000000000000, 0.0000000000000000000, -1.000000000000000000 ) ) ;
#194 = CARTESIAN_POINT ( 'NONE',  ( 1.099243143299202800E-017, 0.5000000000000122100, 32.52499999999998400 ) ) ;
#195 = CARTESIAN_POINT ( 'NONE',  ( 1.224646799147351300E-015, 10.49999999999999800, -32.49999999999999300 ) ) ;
#196 = DIRECTION ( 'NONE',  ( -1.000000000000000000, 0.0000000000000000000, 0.0000000000000000000 ) ) ;
#197 = CARTESIAN_POINT ( 'NONE',  ( 1.530808498934189400E-015, 10.49999999999999800, -27.50000000000000000 ) ) ;
#198 = CARTESIAN_POINT ( 'NONE',  ( -0.5000000000000007800, 0.0000000000000000000, -32.98339152643429600 ) ) ;
#199 = CARTESIAN_POINT ( 'NONE',  ( 1.530808498934189700E-015, 10.49999999999999800, 12.50000000000000200 ) ) ;
#200 = CARTESIAN_POINT ( 'NONE',  ( 1.163090221503108700E-015, 0.5000000000000112100, 27.47500000000000900 ) ) ;
#201 = CARTESIAN_POINT ( 'NONE',  ( 1.224646799147351300E-015, 0.5250000000000011300, -12.49999999999999800 ) ) ;
#202 = CARTESIAN_POINT ( 'NONE',  ( 1.562955477411807200E-015, 0.5250000000000011300, 32.50000000000000000 ) ) ;
#203 = CARTESIAN_POINT ( 'NONE',  ( 9.800000000000000700, 5.000000000000000000, 40.00000000000000000 ) ) ;
#204 = CARTESIAN_POINT ( 'NONE',  ( 1.224646799147351300E-015, 0.0000000000000000000, 30.00000000000000000 ) ) ;
#205 = CARTESIAN_POINT ( 'NONE',  ( 1.224646799147351300E-015, 0.5250000000000011300, 27.50000000000000000 ) ) ;
#206 = CARTESIAN_POINT ( 'NONE',  ( 1.224646799147351300E-015, 0.0000000000000000000, -10.00000000000000000 ) ) ;
#207 = DIRECTION ( 'NONE',  ( 0.0000000000000000000, 0.0000000000000000000, 1.000000000000000000 ) ) ;
#208 = CARTESIAN_POINT ( 'NONE',  ( 1.224646799147351300E-015, 10.49999999999999800, 7.500000000000006200 ) ) ;
#209 = CARTESIAN_POINT ( 'NONE',  ( -6.800000000000070000, 10.49999999999999800, -40.00000000000000000 ) ) ;
#210 = CARTESIAN_POINT ( 'NONE',  ( 9.800000000000000700, 7.500000000000000000, -40.00000000000000000 ) ) ;
#211 = CARTESIAN_POINT ( 'NONE',  ( 4.900000000000000400, 0.0000000000000000000, -40.00000000000000000 ) ) ;
#212 = DIRECTION ( 'NONE',  ( -0.0000000000000000000, -1.000000000000000000, -0.0000000000000000000 ) ) ;
#213 = CARTESIAN_POINT ( 'NONE',  ( -0.5000000000000001100, 0.0000000000000000000, 27.01660847356569700 ) ) ;
#214 = CARTESIAN_POINT ( 'NONE',  ( -4.900000000000000400, 0.0000000000000000000, -40.00000000000000000 ) ) ;
#215 = DIRECTION ( 'NONE',  ( -0.0000000000000000000, -0.0000000000000000000, -1.000000000000000000 ) ) ;
#216 = CARTESIAN_POINT ( 'NONE',  ( -0.5000000000000001100, 0.0000000000000000000, 40.00000000000000000 ) ) ;
#217 = CARTESIAN_POINT ( 'NONE',  ( 5.936181153201985600E-016, 0.5000000000000117700, 12.52499999999999300 ) ) ;
#218 = CARTESIAN_POINT ( 'NONE',  ( 1.562955477411807600E-015, 0.5250000000000011300, -27.50000000000000000 ) ) ;
#219 = CARTESIAN_POINT ( 'NONE',  ( -0.5000000000000001100, 0.0000000000000000000, 7.016608473565701100 ) ) ;
#220 = CARTESIAN_POINT ( 'NONE',  ( 4.900000000000000400, 0.0000000000000000000, 40.00000000000000000 ) ) ;
#221 = CARTESIAN_POINT ( 'NONE',  ( -0.5000000000000001100, 0.0000000000000000000, -40.00000000000000000 ) ) ;
#222 = CARTESIAN_POINT ( 'NONE',  ( 0.5000000000000001100, 0.0000000000000000000, 27.01660847356569300 ) ) ;
#223 = CARTESIAN_POINT ( 'NONE',  ( -9.800000000000000700, 5.000000000000000000, 40.00000000000000000 ) ) ;
#224 = CARTESIAN_POINT ( 'NONE',  ( 0.5000000000000001100, 0.0000000000000000000, 7.016608473565701100 ) ) ;
#225 = CARTESIAN_POINT ( 'NONE',  ( 4.900000000000000400, 5.000000000000000000, -40.00000000000000000 ) ) ;
#226 = CARTESIAN_POINT ( 'NONE',  ( -4.900000000000000400, 5.000000000000000000, -40.00000000000000000 ) ) ;
#227 = CARTESIAN_POINT ( 'NONE',  ( 0.5000000000000001100, 0.0000000000000000000, 12.98339152643430500 ) ) ;
#228 = CARTESIAN_POINT ( 'NONE',  ( -9.800000000000000700, 7.500000000000000000, 40.00000000000000000 ) ) ;
#229 = CARTESIAN_POINT ( 'NONE',  ( -9.800000000000000700, 5.000000000000000000, -40.00000000000000000 ) ) ;
#230 = CARTESIAN_POINT ( 'NONE',  ( -4.900000000000000400, 0.0000000000000000000, 40.00000000000000000 ) ) ;
#231 = CARTESIAN_POINT ( 'NONE',  ( 9.800000000000000700, 7.500000000000000000, 40.00000000000000000 ) ) ;
#232 = CARTESIAN_POINT ( 'NONE',  ( 0.5000000000000001100, 0.0000000000000000000, 32.98339152643429600 ) ) ;
#233 = CARTESIAN_POINT ( 'NONE',  ( 0.5000000000000001100, 0.0000000000000000000, -7.016608473565699300 ) ) ;
#234 = CARTESIAN_POINT ( 'NONE',  ( 9.800000000000000700, 5.000000000000000000, -40.00000000000000000 ) ) ;
#235 = CARTESIAN_POINT ( 'NONE',  ( 1.224646799147351300E-015, 0.5000000000000111000, -40.00000000000000000 ) ) ;
#236 = CARTESIAN_POINT ( 'NONE',  ( -1.157138933261189500E-015, 0.5000000000000134300, -27.47500000000001200 ) ) ;
#237 = CARTESIAN_POINT ( 'NONE',  ( 0.5000000000000001100, 0.0000000000000000000, -40.00000000000000000 ) ) ;
#238 = CARTESIAN_POINT ( 'NONE',  ( -9.800000000000000700, 7.500000000000000000, -40.00000000000000000 ) ) ;
#239 = CARTESIAN_POINT ( 'NONE',  ( -4.900000000000000400, 5.000000000000000000, 40.00000000000000000 ) ) ;
#240 = CARTESIAN_POINT ( 'NONE',  ( 0.5000000000000001100, 0.0000000000000000000, -12.98339152643430300 ) ) ;
#241 = CARTESIAN_POINT ( 'NONE',  ( 1.562955477411807600E-015, 0.5250000000000011300, -7.500000000000001800 ) ) ;
#242 = CARTESIAN_POINT ( 'NONE',  ( 6.800000000000068200, 10.49999999999999800, -40.00000000000000000 ) ) ;
#243 = CARTESIAN_POINT ( 'NONE',  ( 1.224646799147351300E-015, 0.5000000000000111000, 40.00000000000000000 ) ) ;
#244 = CARTESIAN_POINT ( 'NONE',  ( 4.900000000000000400, 5.000000000000000000, 40.00000000000000000 ) ) ;
#245 = CARTESIAN_POINT ( 'NONE',  ( 1.224646799147351300E-015, 10.49999999999999800, -12.49999999999999600 ) ) ;
#246 = CARTESIAN_POINT ( 'NONE',  ( 1.530808498934189000E-015, 10.49999999999999800, 32.49999999999999300 ) ) ;
#247 = CARTESIAN_POINT ( 'NONE',  ( 1.748284304019569800E-015, 0.5000000000000105500, 7.475000000000013900 ) ) ;
#248 = CARTESIAN_POINT ( 'NONE',  ( -9.800000000000000700, 7.500000000000000000, 40.00000000000000000 ) ) ;
#249 = CARTESIAN_POINT ( 'NONE',  ( 1.224646799147351300E-015, 10.49999999999999800, 10.00000000000000400 ) ) ;
#250 = DIRECTION ( 'NONE',  ( 0.0000000000000000000, 0.0000000000000000000, -1.000000000000000000 ) ) ;
#251 = DIRECTION ( 'NONE',  ( -0.0000000000000000000, -0.0000000000000000000, -1.000000000000000000 ) ) ;
#252 = CARTESIAN_POINT ( 'NONE',  ( 0.5000000000000001100, 0.0000000000000000000, 40.00000000000000000 ) ) ;
#253 = CARTESIAN_POINT ( 'NONE',  ( -0.5000000000000001100, 0.0000000000000000000, -27.01660847356569700 ) ) ;
#254 = CARTESIAN_POINT ( 'NONE',  ( -0.5000000000000001100, 0.0000000000000000000, 32.98339152643429600 ) ) ;
#255 = CARTESIAN_POINT ( 'NONE',  ( -4.900000000000000400, 5.000000000000000000, 40.00000000000000000 ) ) ;
#256 = DIRECTION ( 'NONE',  ( -0.0000000000000000000, -0.0000000000000000000, -1.000000000000000000 ) ) ;
#257 = CARTESIAN_POINT ( 'NONE',  ( 0.5000000000000001100, 0.0000000000000000000, -32.98339152643429600 ) ) ;
#258 = CARTESIAN_POINT ( 'NONE',  ( -9.800000000000000700, 5.000000000000000000, 40.00000000000000000 ) ) ;
#259 = CARTESIAN_POINT ( 'NONE',  ( 6.800000000000068200, 10.49999999999999800, 40.00000000000000000 ) ) ;
#260 = CARTESIAN_POINT ( 'NONE',  ( -6.800000000000070000, 10.49999999999999800, 40.00000000000000000 ) ) ;
#261 = CARTESIAN_POINT ( 'NONE',  ( 1.224646799147351300E-015, 0.5250000000000011300, 30.00000000000000000 ) ) ;
#262 = CARTESIAN_POINT ( 'NONE',  ( -4.900000000000000400, 0.0000000000000000000, -40.00000000000000000 ) ) ;
#263 = CARTESIAN_POINT ( 'NONE',  ( 1.224646799147351300E-015, 10.49999999999999800, 30.00000000000000000 ) ) ;
#264 = DIRECTION ( 'NONE',  ( -0.0000000000000000000, -1.000000000000000000, -0.0000000000000000000 ) ) ;
#265 = CARTESIAN_POINT ( 'NONE',  ( 0.1623072875484944100, 0.3376927124515138900, 32.68730728754851400 ) ) ;
#266 = DIRECTION ( 'NONE',  ( 0.0000000000000000000, 1.000000000000000000, 0.0000000000000000000 ) ) ;
#267 = DIRECTION ( 'NONE',  ( 0.0000000000000000000, 1.000000000000000000, 0.0000000000000000000 ) ) ;
#268 = CARTESIAN_POINT ( 'NONE',  ( -9.800000000000000700, 7.500000000000000000, 40.00000000000000000 ) ) ;
#269 = DIRECTION ( 'NONE',  ( -0.0000000000000000000, -1.000000000000000000, -0.0000000000000000000 ) ) ;
#270 = CARTESIAN_POINT ( 'NONE',  ( 4.900000000000000400, 0.0000000000000000000, 40.00000000000000000 ) ) ;
#271 = DIRECTION ( 'NONE',  ( 0.0000000000000000000, 0.0000000000000000000, -1.000000000000000000 ) ) ;
#272 = DIRECTION ( 'NONE',  ( 0.0000000000000000000, 0.0000000000000000000, -1.000000000000000000 ) ) ;
#273 = DIRECTION ( 'NONE',  ( -0.7071067811865394700, -0.7071067811865555700, -0.0000000000000000000 ) ) ;
#274 = DIRECTION ( 'NONE',  ( -0.0000000000000000000, -1.000000000000000000, -0.0000000000000000000 ) ) ;
#275 = CARTESIAN_POINT ( 'NONE',  ( 6.800000000000068200, 10.49999999999999800, 40.00000000000000000 ) ) ;
#276 = DIRECTION ( 'NONE',  ( -0.0000000000000000000, -0.0000000000000000000, -1.000000000000000000 ) ) ;
#277 = CARTESIAN_POINT ( 'NONE',  ( 9.800000000000000700, 7.500000000000000000, -40.00000000000000000 ) ) ;
#278 = DIRECTION ( 'NONE',  ( -0.7071067811865396900, 0.7071067811865553400, 0.0000000000000000000 ) ) ;
#279 = CARTESIAN_POINT ( 'NONE',  ( 9.800000000000000700, 7.500000000000000000, 40.00000000000000000 ) ) ;
#280 = CARTESIAN_POINT ( 'NONE',  ( -0.5000000000000001100, 0.0000000000000000000, 40.00000000000000000 ) ) ;
#281 = CARTESIAN_POINT ( 'NONE',  ( 1.099243143299202800E-017, 0.5000000000000122100, 32.52499999999998400 ) ) ;
#282 = CARTESIAN_POINT ( 'NONE',  ( 4.900000000000000400, 0.0000000000000000000, -40.00000000000000000 ) ) ;
#283 = CARTESIAN_POINT ( 'NONE',  ( -4.900000000000000400, 5.000000000000000000, 40.00000000000000000 ) ) ;
#284 = CARTESIAN_POINT ( 'NONE',  ( 0.3294565384477648500, 0.1705434615522395100, 32.83905169151693600 ) ) ;
#285 = CARTESIAN_POINT ( 'NONE',  ( 0.5000000000000001100, 0.0000000000000000000, 32.98339152643429600 ) ) ;
#286 = DIRECTION ( 'NONE',  ( 1.000000000000000000, -0.0000000000000000000, -0.0000000000000000000 ) ) ;
#287 = DIRECTION ( 'NONE',  ( -0.0000000000000000000, -0.0000000000000000000, -1.000000000000000000 ) ) ;
#288 = DIRECTION ( 'NONE',  ( -0.0000000000000000000, -1.000000000000000000, -0.0000000000000000000 ) ) ;
#289 = CARTESIAN_POINT ( 'NONE',  ( -4.900000000000000400, 0.0000000000000000000, 40.00000000000000000 ) ) ;
#290 = DIRECTION ( 'NONE',  ( -0.0000000000000000000, -0.0000000000000000000, -1.000000000000000000 ) ) ;
#291 = DIRECTION ( 'NONE',  ( 0.7071067811865406900, 0.7071067811865544600, -0.0000000000000000000 ) ) ;
#292 = DIRECTION ( 'NONE',  ( -0.0000000000000000000, -1.000000000000000000, -0.0000000000000000000 ) ) ;
#293 = CARTESIAN_POINT ( 'NONE',  ( -0.5000000000000001100, 0.0000000000000000000, 40.00000000000000000 ) ) ;
#294 = CARTESIAN_POINT ( 'NONE',  ( 9.800000000000000700, 5.000000000000000000, 40.00000000000000000 ) ) ;
#295 = CARTESIAN_POINT ( 'NONE',  ( -0.5000000000000001100, 0.0000000000000000000, -40.00000000000000000 ) ) ;
#296 = DIRECTION ( 'NONE',  ( 0.0000000000000000000, 1.000000000000000000, 0.0000000000000000000 ) ) ;
#297 = CARTESIAN_POINT ( 'NONE',  ( 1.224646799147351300E-015, 10.49999999999999800, -10.00000000000000000 ) ) ;
#298 = DIRECTION ( 'NONE',  ( -0.7071067811865396900, 0.7071067811865553400, 0.0000000000000000000 ) ) ;
#299 = CARTESIAN_POINT ( 'NONE',  ( 0.1623072875484939900, 0.3376927124515144400, 27.31269271245149000 ) ) ;
#300 = CARTESIAN_POINT ( 'NONE',  ( 9.800000000000000700, 5.000000000000000000, 40.00000000000000000 ) ) ;
#301 = CARTESIAN_POINT ( 'NONE',  ( 0.3294565384477637400, 0.1705434615522405100, 27.16094830848306100 ) ) ;
#302 = CARTESIAN_POINT ( 'NONE',  ( 1.163090221503108700E-015, 0.5000000000000112100, 27.47500000000000900 ) ) ;
#303 = DIRECTION ( 'NONE',  ( -0.0000000000000000000, -0.0000000000000000000, -1.000000000000000000 ) ) ;
#304 = DIRECTION ( 'NONE',  ( 1.000000000000000000, -0.0000000000000000000, -0.0000000000000000000 ) ) ;
#305 = CARTESIAN_POINT ( 'NONE',  ( 0.5000000000000001100, 0.0000000000000000000, 27.01660847356569300 ) ) ;
#306 = CARTESIAN_POINT ( 'NONE',  ( 9.800000000000000700, 7.500000000000000000, 40.00000000000000000 ) ) ;
#307 = DIRECTION ( 'NONE',  ( 0.0000000000000000000, 0.0000000000000000000, -1.000000000000000000 ) ) ;
#308 = DIRECTION ( 'NONE',  ( -0.0000000000000000000, -0.0000000000000000000, -1.000000000000000000 ) ) ;
#309 = DIRECTION ( 'NONE',  ( 1.000000000000000000, -0.0000000000000000000, -0.0000000000000000000 ) ) ;
#310 = CARTESIAN_POINT ( 'NONE',  ( 1.224646799147351300E-015, 0.5000000000000111000, 40.00000000000000000 ) ) ;
#311 = CARTESIAN_POINT ( 'NONE',  ( 4.900000000000000400, 5.000000000000000000, 40.00000000000000000 ) ) ;
#312 = CARTESIAN_POINT ( 'NONE',  ( 9.800000000000000700, 5.000000000000000000, -40.00000000000000000 ) ) ;
#313 = DIRECTION ( 'NONE',  ( 0.0000000000000000000, 1.000000000000000000, 0.0000000000000000000 ) ) ;
#314 = DIRECTION ( 'NONE',  ( -0.0000000000000000000, -0.0000000000000000000, -1.000000000000000000 ) ) ;
#315 = CARTESIAN_POINT ( 'NONE',  ( -9.800000000000000700, 5.000000000000000000, -40.00000000000000000 ) ) ;
#316 = DIRECTION ( 'NONE',  ( -0.0000000000000000000, -1.000000000000000000, -0.0000000000000000000 ) ) ;
#317 = CARTESIAN_POINT ( 'NONE',  ( -0.1623072875484922500, 0.3376927124515144400, 27.31269271245149400 ) ) ;
#318 = CARTESIAN_POINT ( 'NONE',  ( -0.3294565384477627900, 0.1705434615522407300, 27.16094830848306100 ) ) ;
#319 = CARTESIAN_POINT ( 'NONE',  ( 1.224646799147351300E-015, 0.5250000000000011300, -10.00000000000000000 ) ) ;
#320 = DIRECTION ( 'NONE',  ( -0.0000000000000000000, -1.000000000000000000, -0.0000000000000000000 ) ) ;
#321 = CARTESIAN_POINT ( 'NONE',  ( 1.224646799147351300E-015, 0.0000000000000000000, -30.00000000000000000 ) ) ;
#322 = CARTESIAN_POINT ( 'NONE',  ( 1.224646799147351300E-015, 10.49999999999999800, -10.00000000000000000 ) ) ;
#323 = DIRECTION ( 'NONE',  ( -0.0000000000000000000, -1.000000000000000000, -0.0000000000000000000 ) ) ;
#324 = CARTESIAN_POINT ( 'NONE',  ( 1.224646799147351300E-015, 0.5000000000000111000, 40.00000000000000000 ) ) ;
#325 = CARTESIAN_POINT ( 'NONE',  ( -0.5000000000000001100, 0.0000000000000000000, 27.01660847356569700 ) ) ;
#326 = CARTESIAN_POINT ( 'NONE',  ( 1.530808498934189500E-015, 0.0000000000000000000, 32.50000000000000000 ) ) ;
#327 = DIRECTION ( 'NONE',  ( 0.0000000000000000000, 0.0000000000000000000, -1.000000000000000000 ) ) ;
#328 = CARTESIAN_POINT ( 'NONE',  ( 6.800000000000068200, 10.49999999999999800, -40.00000000000000000 ) ) ;
#329 = CARTESIAN_POINT ( 'NONE',  ( 1.163090221503108700E-015, 0.5000000000000112100, 27.47500000000000900 ) ) ;
#330 = DIRECTION ( 'NONE',  ( -0.0000000000000000000, -1.000000000000000000, -0.0000000000000000000 ) ) ;
#331 = DIRECTION ( 'NONE',  ( 0.0000000000000000000, 0.0000000000000000000, -1.000000000000000000 ) ) ;
#332 = CARTESIAN_POINT ( 'NONE',  ( -9.800000000000000700, 7.500000000000000000, -40.00000000000000000 ) ) ;
#333 = CARTESIAN_POINT ( 'NONE',  ( 1.224646799147351300E-015, 0.0000000000000000000, 27.50000000000000000 ) ) ;
#334 = DIRECTION ( 'NONE',  ( -0.0000000000000000000, -1.000000000000000000, -0.0000000000000000000 ) ) ;
#335 = CARTESIAN_POINT ( 'NONE',  ( 1.224646799147351300E-015, 10.49999999999999800, 30.00000000000000000 ) ) ;
#336 = DIRECTION ( 'NONE',  ( -0.7071067811865394700, -0.7071067811865555700, -0.0000000000000000000 ) ) ;
#337 = DIRECTION ( 'NONE',  ( 0.0000000000000000000, 0.0000000000000000000, -1.000000000000000000 ) ) ;
#338 = DIRECTION ( 'NONE',  ( -1.000000000000000000, 0.0000000000000000000, 0.0000000000000000000 ) ) ;
#339 = DIRECTION ( 'NONE',  ( 0.0000000000000000000, 0.0000000000000000000, -1.000000000000000000 ) ) ;
#340 = DIRECTION ( 'NONE',  ( -0.0000000000000000000, -1.000000000000000000, -0.0000000000000000000 ) ) ;
#341 = CARTESIAN_POINT ( 'NONE',  ( -0.3294565384477631800, 0.1705434615522402600, -7.160948308483060700 ) ) ;
#342 = CARTESIAN_POINT ( 'NONE',  ( -0.3294565384477641200, 0.1705434615522392600, 32.83905169151694300 ) ) ;
#343 = CARTESIAN_POINT ( 'NONE',  ( 1.099243143299202800E-017, 0.5000000000000122100, 32.52499999999998400 ) ) ;
#344 = CARTESIAN_POINT ( 'NONE',  ( 0.5000000000000001100, 0.0000000000000000000, 40.00000000000000000 ) ) ;
#345 = CARTESIAN_POINT ( 'NONE',  ( 1.224646799147351300E-015, 0.0000000000000000000, -13.02500000000000000 ) ) ;
#346 = DIRECTION ( 'NONE',  ( -0.0000000000000000000, -0.0000000000000000000, -1.000000000000000000 ) ) ;
#347 = DIRECTION ( 'NONE',  ( 0.0000000000000000000, 0.0000000000000000000, -1.000000000000000000 ) ) ;
#348 = CARTESIAN_POINT ( 'NONE',  ( 1.224646799147351300E-015, 10.49999999999999800, -30.00000000000000000 ) ) ;
#349 = CARTESIAN_POINT ( 'NONE',  ( -0.5000000000000001100, 0.0000000000000000000, 40.00000000000000000 ) ) ;
#350 = CARTESIAN_POINT ( 'NONE',  ( 1.224646799147351300E-015, 0.5000000000000111000, -40.00000000000000000 ) ) ;
#351 = CARTESIAN_POINT ( 'NONE',  ( 1.224646799147351300E-015, 0.0000000000000000000, 7.500000000000005300 ) ) ;
#352 = DIRECTION ( 'NONE',  ( -0.0000000000000000000, -0.0000000000000000000, -1.000000000000000000 ) ) ;
#353 = DIRECTION ( 'NONE',  ( -0.0000000000000000000, -0.0000000000000000000, -1.000000000000000000 ) ) ;
#354 = DIRECTION ( 'NONE',  ( 0.7071067811865406900, 0.7071067811865544600, -0.0000000000000000000 ) ) ;
#355 = CARTESIAN_POINT ( 'NONE',  ( -0.1623072875484929100, 0.3376927124515137800, 32.68730728754851400 ) ) ;
#356 = CARTESIAN_POINT ( 'NONE',  ( 1.224646799147351300E-015, 0.0000000000000000000, 26.97499999999999800 ) ) ;
#357 = DIRECTION ( 'NONE',  ( -0.0000000000000000000, -1.000000000000000000, -0.0000000000000000000 ) ) ;
#358 = DIRECTION ( 'NONE',  ( -0.0000000000000000000, -1.000000000000000000, -0.0000000000000000000 ) ) ;
#359 = CARTESIAN_POINT ( 'NONE',  ( -0.5000000000000001100, 0.0000000000000000000, 32.98339152643429600 ) ) ;
#360 = CARTESIAN_POINT ( 'NONE',  ( 1.224646799147351300E-015, 0.0000000000000000000, 10.00000000000000400 ) ) ;
#361 = CARTESIAN_POINT ( 'NONE',  ( -0.5000000000000001100, 0.0000000000000000000, -7.016608473565697500 ) ) ;
#362 = DIRECTION ( 'NONE',  ( 0.0000000000000000000, 0.0000000000000000000, -1.000000000000000000 ) ) ;
#363 = CARTESIAN_POINT ( 'NONE',  ( -0.3294565384477649600, 0.1705434615522386200, -32.83905169151694300 ) ) ;
#364 = DIRECTION ( 'NONE',  ( 0.0000000000000000000, 0.0000000000000000000, -1.000000000000000000 ) ) ;
#365 = CARTESIAN_POINT ( 'NONE',  ( 0.1623072875484949400, 0.3376927124515133900, 7.312692712451494400 ) ) ;
#366 = DIRECTION ( 'NONE',  ( 0.0000000000000000000, -0.7071067811865479100, -0.7071067811865472400 ) ) ;
#367 = DIRECTION ( 'NONE',  ( -0.0000000000000000000, -0.0000000000000000000, -1.000000000000000000 ) ) ;
#368 = CARTESIAN_POINT ( 'NONE',  ( 1.748284304019569800E-015, 0.5000000000000105500, -12.52499999999999000 ) ) ;
#369 = CARTESIAN_POINT ( 'NONE',  ( 1.224646799147351300E-015, 0.0000000000000000000, -12.49999999999999800 ) ) ;
#370 = DIRECTION ( 'NONE',  ( -0.0000000000000000000, -0.0000000000000000000, -1.000000000000000000 ) ) ;
#371 = DIRECTION ( 'NONE',  ( -0.0000000000000000000, -1.000000000000000000, -0.0000000000000000000 ) ) ;
#372 = CARTESIAN_POINT ( 'NONE',  ( 0.5000000000000001100, 0.0000000000000000000, 7.016608473565701100 ) ) ;
#373 = CARTESIAN_POINT ( 'NONE',  ( -0.1623072875484937400, 0.3376927124515129400, -32.68730728754851400 ) ) ;
#374 = CARTESIAN_POINT ( 'NONE',  ( 1.748284304019569800E-015, 0.5000000000000105500, 7.475000000000013900 ) ) ;
#375 = CARTESIAN_POINT ( 'NONE',  ( 6.111562200029851900E-016, 0.5000000000000117700, -7.475000000000012100 ) ) ;
#376 = CARTESIAN_POINT ( 'NONE',  ( 0.5000000000000001100, 0.0000000000000000000, 40.00000000000000000 ) ) ;
#377 = DIRECTION ( 'NONE',  ( -0.0000000000000000000, -1.000000000000000000, -0.0000000000000000000 ) ) ;
#378 = CARTESIAN_POINT ( 'NONE',  ( 0.5000000000000001100, 0.0000000000000000000, -12.98339152643430300 ) ) ;
#379 = DIRECTION ( 'NONE',  ( 0.0000000000000000000, 0.0000000000000000000, -1.000000000000000000 ) ) ;
#380 = CARTESIAN_POINT ( 'NONE',  ( 0.5000000000000001100, 0.0000000000000000000, -32.98339152643429600 ) ) ;
#381 = CARTESIAN_POINT ( 'NONE',  ( 0.1623072875484986000, 0.3376927124515097200, -32.68730728754850600 ) ) ;
#382 = CARTESIAN_POINT ( 'NONE',  ( 4.653395943009815300E-015, 0.5000000000000075500, -32.52499999999999100 ) ) ;
#383 = CARTESIAN_POINT ( 'NONE',  ( 1.595102455889425700E-015, 0.0000000000000000000, -6.975000000000000500 ) ) ;
#384 = CARTESIAN_POINT ( 'NONE',  ( 4.653395943009815300E-015, 0.5000000000000075500, -32.52499999999999100 ) ) ;
#385 = CARTESIAN_POINT ( 'NONE',  ( 0.5000000000000001100, 0.0000000000000000000, 40.00000000000000000 ) ) ;
#386 = DIRECTION ( 'NONE',  ( -0.0000000000000000000, -1.000000000000000000, -0.0000000000000000000 ) ) ;
#387 = CARTESIAN_POINT ( 'NONE',  ( 0.1623072875484948800, 0.3376927124515133900, -12.68730728754851000 ) ) ;
#388 = CARTESIAN_POINT ( 'NONE',  ( 1.224646799147351300E-015, 0.0000000000000000000, 6.975000000000004100 ) ) ;
#389 = CARTESIAN_POINT ( 'NONE',  ( -0.1623072875484927700, 0.3376927124515138900, -7.312692712451491800 ) ) ;
#390 = CARTESIAN_POINT ( 'NONE',  ( -0.5000000000000007800, 0.0000000000000000000, -32.98339152643429600 ) ) ;
#391 = CARTESIAN_POINT ( 'NONE',  ( 0.3294565384477668400, 0.1705434615522375400, -32.83905169151694300 ) ) ;
#392 = CARTESIAN_POINT ( 'NONE',  ( 0.3294565384477642400, 0.1705434615522400700, 7.160948308483063400 ) ) ;
#393 = CARTESIAN_POINT ( 'NONE',  ( 1.224646799147351300E-015, 0.5250000000000011300, -30.00000000000000000 ) ) ;
#394 = DIRECTION ( 'NONE',  ( 0.0000000000000000000, -0.7071067811865479100, -0.7071067811865472400 ) ) ;
#395 = CARTESIAN_POINT ( 'NONE',  ( 0.3294565384477642400, 0.1705434615522400700, -12.83905169151694100 ) ) ;
#396 = CARTESIAN_POINT ( 'NONE',  ( 1.224646799147351300E-015, 0.0000000000000000000, -32.50000000000000000 ) ) ;
#397 = CARTESIAN_POINT ( 'NONE',  ( 1.224646799147351300E-015, 0.0000000000000000000, -10.00000000000000000 ) ) ;
#398 = DIRECTION ( 'NONE',  ( -0.0000000000000000000, -1.000000000000000000, -0.0000000000000000000 ) ) ;
#399 = CARTESIAN_POINT ( 'NONE',  ( 1.595102455889425700E-015, 0.0000000000000000000, -26.97499999999999800 ) ) ;
#400 = DIRECTION ( 'NONE',  ( 0.0000000000000000000, -0.7071067811865479100, -0.7071067811865472400 ) ) ;
#401 = DIRECTION ( 'NONE',  ( 8.659560562354930400E-017, -0.7071067811865479100, 0.7071067811865472400 ) ) ;
#402 = DIRECTION ( 'NONE',  ( 8.659560562354930400E-017, -0.7071067811865479100, 0.7071067811865472400 ) ) ;
#403 = DIRECTION ( 'NONE',  ( -0.0000000000000000000, -1.000000000000000000, -0.0000000000000000000 ) ) ;
#404 = CARTESIAN_POINT ( 'NONE',  ( 1.530808498934189500E-015, 0.0000000000000000000, 12.50000000000000200 ) ) ;
#405 = CARTESIAN_POINT ( 'NONE',  ( 1.595102455889425700E-015, 0.0000000000000000000, 33.02499999999999900 ) ) ;
#406 = CARTESIAN_POINT ( 'NONE',  ( -0.5000000000000001100, 0.0000000000000000000, 40.00000000000000000 ) ) ;
#407 = CARTESIAN_POINT ( 'NONE',  ( 1.530808498934189500E-015, 0.0000000000000000000, -7.500000000000001800 ) ) ;
#408 = DIRECTION ( 'NONE',  ( -0.0000000000000000000, -1.000000000000000000, -0.0000000000000000000 ) ) ;
#409 = DIRECTION ( 'NONE',  ( 8.659560562354930400E-017, -0.7071067811865479100, 0.7071067811865472400 ) ) ;
#410 = DIRECTION ( 'NONE',  ( -0.0000000000000000000, -0.0000000000000000000, -1.000000000000000000 ) ) ;
#411 = CARTESIAN_POINT ( 'NONE',  ( -1.157138933261189500E-015, 0.5000000000000134300, -27.47500000000001200 ) ) ;
#412 = DIRECTION ( 'NONE',  ( 0.0000000000000000000, 0.0000000000000000000, -1.000000000000000000 ) ) ;
#413 = DIRECTION ( 'NONE',  ( 1.000000000000000000, 0.0000000000000000000, 0.0000000000000000000 ) ) ;
#414 = DIRECTION ( 'NONE',  ( 0.0000000000000000000, 0.0000000000000000000, -1.000000000000000000 ) ) ;
#415 = CARTESIAN_POINT ( 'NONE',  ( 1.748284304019569800E-015, 0.5000000000000105500, -12.52499999999999000 ) ) ;
#416 = CARTESIAN_POINT ( 'NONE',  ( -0.1623072875484931600, 0.3376927124515135000, -12.68730728754851000 ) ) ;
#417 = CARTESIAN_POINT ( 'NONE',  ( 1.595102455889425700E-015, 0.0000000000000000000, 13.02500000000000400 ) ) ;
#418 = DIRECTION ( 'NONE',  ( -0.0000000000000000000, -1.000000000000000000, -0.0000000000000000000 ) ) ;
#419 = CARTESIAN_POINT ( 'NONE',  ( -0.1623072875484933000, 0.3376927124515133900, 12.68730728754851400 ) ) ;
#420 = DIRECTION ( 'NONE',  ( -0.0000000000000000000, -1.000000000000000000, -0.0000000000000000000 ) ) ;
#421 = CARTESIAN_POINT ( 'NONE',  ( 0.3294565384477626800, 0.1705434615522417300, -27.16094830848306100 ) ) ;
#422 = CARTESIAN_POINT ( 'NONE',  ( 4.900000000000000400, 0.0000000000000000000, 40.00000000000000000 ) ) ;
#423 = CARTESIAN_POINT ( 'NONE',  ( -0.5000000000000001100, 0.0000000000000000000, -12.98339152643430300 ) ) ;
#424 = DIRECTION ( 'NONE',  ( -0.0000000000000000000, -0.0000000000000000000, -1.000000000000000000 ) ) ;
#425 = CARTESIAN_POINT ( 'NONE',  ( -0.3294565384477636200, 0.1705434615522397900, -12.83905169151693900 ) ) ;
#426 = CARTESIAN_POINT ( 'NONE',  ( -0.3294565384477635100, 0.1705434615522398400, 12.83905169151694300 ) ) ;
#427 = CARTESIAN_POINT ( 'NONE',  ( 0.1623072875484928800, 0.3376927124515155000, -27.31269271245149000 ) ) ;
#428 = CARTESIAN_POINT ( 'NONE',  ( 1.224646799147351300E-015, 0.5250000000000011300, 30.00000000000000000 ) ) ;
#429 = CARTESIAN_POINT ( 'NONE',  ( 0.5000000000000001100, 0.0000000000000000000, -40.00000000000000000 ) ) ;
#430 = CARTESIAN_POINT ( 'NONE',  ( 1.224646799147351300E-015, 0.0000000000000000000, -33.02499999999999900 ) ) ;
#431 = CARTESIAN_POINT ( 'NONE',  ( 5.936181153201985600E-016, 0.5000000000000117700, 12.52499999999999300 ) ) ;
#432 = CARTESIAN_POINT ( 'NONE',  ( 1.224646799147351300E-015, 0.0000000000000000000, 10.00000000000000400 ) ) ;
#433 = CARTESIAN_POINT ( 'NONE',  ( 0.5000000000000001100, 0.0000000000000000000, -27.01660847356570000 ) ) ;
#434 = DIRECTION ( 'NONE',  ( -0.0000000000000000000, -1.000000000000000000, -0.0000000000000000000 ) ) ;
#435 = DIRECTION ( 'NONE',  ( 0.0000000000000000000, -0.7071067811865479100, -0.7071067811865472400 ) ) ;
#436 = CARTESIAN_POINT ( 'NONE',  ( -0.5000000000000001100, 0.0000000000000000000, -27.01660847356569700 ) ) ;
#437 = CARTESIAN_POINT ( 'NONE',  ( -0.5000000000000001100, 0.0000000000000000000, 12.98339152643430700 ) ) ;
#438 = CARTESIAN_POINT ( 'NONE',  ( 1.224646799147351300E-015, 0.0000000000000000000, 30.00000000000000000 ) ) ;
#439 = CARTESIAN_POINT ( 'NONE',  ( 0.1623072875484938300, 0.3376927124515145500, 12.68730728754851200 ) ) ;
#440 = CARTESIAN_POINT ( 'NONE',  ( 0.5000000000000001100, 0.0000000000000000000, -7.016608473565699300 ) ) ;
#441 = DIRECTION ( 'NONE',  ( -0.0000000000000000000, -1.000000000000000000, -0.0000000000000000000 ) ) ;
#442 = CARTESIAN_POINT ( 'NONE',  ( 6.111562200029851900E-016, 0.5000000000000117700, -7.475000000000012100 ) ) ;
#443 = CARTESIAN_POINT ( 'NONE',  ( 0.1623072875484936600, 0.3376927124515146600, -7.312692712451492700 ) ) ;
#444 = DIRECTION ( 'NONE',  ( 8.659560562354930400E-017, -0.7071067811865479100, 0.7071067811865472400 ) ) ;
#445 = DIRECTION ( 'NONE',  ( 0.0000000000000000000, 0.0000000000000000000, -1.000000000000000000 ) ) ;
#446 = DIRECTION ( 'NONE',  ( -0.0000000000000000000, -1.000000000000000000, -0.0000000000000000000 ) ) ;
#447 = CARTESIAN_POINT ( 'NONE',  ( 1.224646799147351300E-015, 0.0000000000000000000, -30.00000000000000000 ) ) ;
#448 = DIRECTION ( 'NONE',  ( 0.0000000000000000000, 0.0000000000000000000, -1.000000000000000000 ) ) ;
#449 = DIRECTION ( 'NONE',  ( 1.000000000000000000, 0.0000000000000000000, 0.0000000000000000000 ) ) ;
#450 = CARTESIAN_POINT ( 'NONE',  ( 5.936181153201985600E-016, 0.5000000000000117700, 12.52499999999999300 ) ) ;
#451 = CARTESIAN_POINT ( 'NONE',  ( -4.900000000000000400, 0.0000000000000000000, 40.00000000000000000 ) ) ;
#452 = DIRECTION ( 'NONE',  ( -0.0000000000000000000, -0.0000000000000000000, -1.000000000000000000 ) ) ;
#453 = DIRECTION ( 'NONE',  ( -0.0000000000000000000, -1.000000000000000000, -0.0000000000000000000 ) ) ;
#454 = CARTESIAN_POINT ( 'NONE',  ( -0.3294565384477627400, 0.1705434615522408700, -27.16094830848306100 ) ) ;
#455 = CARTESIAN_POINT ( 'NONE',  ( 0.5000000000000001100, 0.0000000000000000000, 40.00000000000000000 ) ) ;
#456 = CARTESIAN_POINT ( 'NONE',  ( 0.3294565384477633500, 0.1705434615522410700, -7.160948308483060700 ) ) ;
#457 = CARTESIAN_POINT ( 'NONE',  ( -0.1623072875484919400, 0.3376927124515147800, -27.31269271245149000 ) ) ;
#458 = CARTESIAN_POINT ( 'NONE',  ( -1.157138933261189500E-015, 0.5000000000000134300, -27.47500000000001200 ) ) ;
#459 = CARTESIAN_POINT ( 'NONE',  ( 4.900000000000000400, 5.000000000000000000, 40.00000000000000000 ) ) ;
#460 = DIRECTION ( 'NONE',  ( 1.000000000000000000, 0.0000000000000000000, 0.0000000000000000000 ) ) ;
#461 = CARTESIAN_POINT ( 'NONE',  ( 0.5000000000000001100, 0.0000000000000000000, 40.00000000000000000 ) ) ;
#462 = CARTESIAN_POINT ( 'NONE',  ( 1.224646799147351300E-015, 0.5250000000000011300, 10.00000000000000400 ) ) ;
#463 = DIRECTION ( 'NONE',  ( -0.0000000000000000000, -0.0000000000000000000, -1.000000000000000000 ) ) ;
#464 = DIRECTION ( 'NONE',  ( -0.0000000000000000000, -0.0000000000000000000, -1.000000000000000000 ) ) ;
#465 = DIRECTION ( 'NONE',  ( -0.0000000000000000000, -1.000000000000000000, -0.0000000000000000000 ) ) ;
#466 = DIRECTION ( 'NONE',  ( 0.7071067811865390200, -0.7071067811865561200, 0.0000000000000000000 ) ) ;
#467 = CARTESIAN_POINT ( 'NONE',  ( 1.224646799147351300E-015, 0.5000000000000111000, 40.00000000000000000 ) ) ;
#468 = CARTESIAN_POINT ( 'NONE',  ( -4.900000000000000400, 5.000000000000000000, -40.00000000000000000 ) ) ;
#469 = DIRECTION ( 'NONE',  ( -0.0000000000000000000, -0.0000000000000000000, -1.000000000000000000 ) ) ;
#470 = DIRECTION ( 'NONE',  ( 1.000000000000000000, -0.0000000000000000000, -0.0000000000000000000 ) ) ;
#471 = CARTESIAN_POINT ( 'NONE',  ( 1.224646799147351300E-015, 10.49999999999999800, 10.00000000000000400 ) ) ;
#472 = DIRECTION ( 'NONE',  ( 0.0000000000000000000, 0.0000000000000000000, -1.000000000000000000 ) ) ;
#473 = DIRECTION ( 'NONE',  ( 0.0000000000000000000, 0.0000000000000000000, -1.000000000000000000 ) ) ;
#474 = CARTESIAN_POINT ( 'NONE',  ( -0.5000000000000001100, 0.0000000000000000000, 40.00000000000000000 ) ) ;
#475 = DIRECTION ( 'NONE',  ( 0.0000000000000000000, 0.0000000000000000000, -1.000000000000000000 ) ) ;
#476 = DIRECTION ( 'NONE',  ( 0.7071067811865390200, -0.7071067811865561200, 0.0000000000000000000 ) ) ;
#477 = CARTESIAN_POINT ( 'NONE',  ( 1.224646799147351300E-015, 0.5000000000000111000, 40.00000000000000000 ) ) ;
#478 = DIRECTION ( 'NONE',  ( -1.000000000000000000, 0.0000000000000000000, 0.0000000000000000000 ) ) ;
#479 = DIRECTION ( 'NONE',  ( -0.0000000000000000000, -1.000000000000000000, -0.0000000000000000000 ) ) ;
#480 = CARTESIAN_POINT ( 'NONE',  ( 0.3294565384477636800, 0.1705434615522405900, 12.83905169151694300 ) ) ;
#481 = DIRECTION ( 'NONE',  ( 1.000000000000000000, 0.0000000000000000000, 0.0000000000000000000 ) ) ;
#482 = DIRECTION ( 'NONE',  ( -0.0000000000000000000, -1.000000000000000000, -0.0000000000000000000 ) ) ;
#483 = CARTESIAN_POINT ( 'NONE',  ( 1.748284304019569800E-015, 0.5000000000000105500, 7.475000000000013900 ) ) ;
#484 = CARTESIAN_POINT ( 'NONE',  ( 1.224646799147351300E-015, 0.5000000000000111000, 40.00000000000000000 ) ) ;
#485 = CARTESIAN_POINT ( 'NONE',  ( 1.224646799147351300E-015, 0.0000000000000000000, 30.00000000000000000 ) ) ;
#486 = DIRECTION ( 'NONE',  ( -0.0000000000000000000, -1.000000000000000000, -0.0000000000000000000 ) ) ;
#487 = CARTESIAN_POINT ( 'NONE',  ( 1.224646799147351300E-015, 0.5000000000000111000, 40.00000000000000000 ) ) ;
#488 = CARTESIAN_POINT ( 'NONE',  ( -9.800000000000000700, 5.000000000000000000, 40.00000000000000000 ) ) ;
#489 = CARTESIAN_POINT ( 'NONE',  ( 1.224646799147351300E-015, 0.5000000000000111000, 40.00000000000000000 ) ) ;
#490 = CARTESIAN_POINT ( 'NONE',  ( 6.800000000000068200, 10.49999999999999800, 40.00000000000000000 ) ) ;
#491 = CARTESIAN_POINT ( 'NONE',  ( 0.5000000000000001100, 0.0000000000000000000, 40.00000000000000000 ) ) ;
#492 = DIRECTION ( 'NONE',  ( -0.0000000000000000000, -1.000000000000000000, -0.0000000000000000000 ) ) ;
#493 = DIRECTION ( 'NONE',  ( -0.0000000000000000000, -0.0000000000000000000, -1.000000000000000000 ) ) ;
#494 = CARTESIAN_POINT ( 'NONE',  ( 1.224646799147351300E-015, 0.5000000000000111000, -40.00000000000000000 ) ) ;
#495 = CARTESIAN_POINT ( 'NONE',  ( 0.5000000000000001100, 0.0000000000000000000, 12.98339152643430500 ) ) ;
#496 = CARTESIAN_POINT ( 'NONE',  ( -0.1623072875484928600, 0.3376927124515138300, 7.312692712451495300 ) ) ;
#497 = CARTESIAN_POINT ( 'NONE',  ( -0.3294565384477636800, 0.1705434615522398700, 7.160948308483063400 ) ) ;
#498 = CARTESIAN_POINT ( 'NONE',  ( 1.530808498934189500E-015, 0.0000000000000000000, -27.50000000000000000 ) ) ;
#499 = DIRECTION ( 'NONE',  ( -0.0000000000000000000, -0.0000000000000000000, -1.000000000000000000 ) ) ;
#500 = CARTESIAN_POINT ( 'NONE',  ( 4.900000000000000400, 5.000000000000000000, -40.00000000000000000 ) ) ;
#501 = CARTESIAN_POINT ( 'NONE',  ( -0.5000000000000001100, 0.0000000000000000000, 7.016608473565701100 ) ) ;
#502 = ADVANCED_FACE ( 'NONE', ( #838 ), #72, .F. ) ;
#503 = ADVANCED_FACE ( 'NONE', ( #1097 ), #858, .F. ) ;
#504 = ADVANCED_FACE ( 'NONE', ( #839 ), #56, .F. ) ;
#505 = ADVANCED_FACE ( 'NONE', ( #884 ), #82, .F. ) ;
#506 = ADVANCED_FACE ( 'NONE', ( #801 ), #57, .F. ) ;
#507 = ADVANCED_FACE ( 'NONE', ( #879 ), #47, .F. ) ;
#508 = ADVANCED_FACE ( 'NONE', ( #881 ), #852, .F. ) ;
#509 = ADVANCED_FACE ( 'NONE', ( #863 ), #889, .F. ) ;
#510 = ADVANCED_FACE ( 'NONE', ( #878, #882, #859, #862, #868 ), #67, .F. ) ;
#511 = ADVANCED_FACE ( 'NONE', ( #894 ), #48, .F. ) ;
#512 = ADVANCED_FACE ( 'NONE', ( #857 ), #873, .F. ) ;
#513 = ADVANCED_FACE ( 'NONE', ( #890 ), #98, .F. ) ;
#514 = ADVANCED_FACE ( 'NONE', ( #864 ), #109, .F. ) ;
#515 = ADVANCED_FACE ( 'NONE', ( #880 ), #86, .F. ) ;
#516 = ADVANCED_FACE ( 'NONE', ( #865 ), #883, .F. ) ;
#517 = ADVANCED_FACE ( 'NONE', ( #861 ), #103, .F. ) ;
#518 = ADVANCED_FACE ( 'NONE', ( #885 ), #87, .F. ) ;
#519 = ADVANCED_FACE ( 'NONE', ( #898 ), #104, .F. ) ;
#520 = ADVANCED_FACE ( 'NONE', ( #895 ), #855, .F. ) ;
#521 = ADVANCED_FACE ( 'NONE', ( #847 ), #891, .F. ) ;
#522 = ADVANCED_FACE ( 'NONE', ( #892 ), #849, .F. ) ;
#523 = ADVANCED_FACE ( 'NONE', ( #876 ), #150, .F. ) ;
#524 = ADVANCED_FACE ( 'NONE', ( #874 ), #139, .F. ) ;
#525 = ADVANCED_FACE ( 'NONE', ( #899 ), #851, .F. ) ;
#526 = ADVANCED_FACE ( 'NONE', ( #896 ), #157, .T. ) ;
#527 = ADVANCED_FACE ( 'NONE', ( #897 ), #846, .F. ) ;
#528 = ADVANCED_FACE ( 'NONE', ( #848 ), #137, .F. ) ;
#529 = ADVANCED_FACE ( 'NONE', ( #860 ), #124, .F. ) ;
#530 = ADVANCED_FACE ( 'NONE', ( #854 ), #850, .F. ) ;
#531 = ADVANCED_FACE ( 'NONE', ( #853 ), #866, .F. ) ;
#532 = ADVANCED_FACE ( 'NONE', ( #870 ), #159, .F. ) ;
#533 = ADVANCED_FACE ( 'NONE', ( #887 ), #123, .F. ) ;
#534 = ADVANCED_FACE ( 'NONE', ( #888 ), #871, .F. ) ;
#535 = ADVANCED_FACE ( 'NONE', ( #867 ), #174, .F. ) ;
#536 = ADVANCED_FACE ( 'NONE', ( #872 ), #869, .F. ) ;
#537 = ADVANCED_FACE ( 'NONE', ( #886 ), #893, .F. ) ;
#538 = ADVANCED_FACE ( 'NONE', ( #856 ), #164, .F. ) ;
#539 = ADVANCED_FACE ( 'NONE', ( #877 ), #178, .F. ) ;
#540 = ADVANCED_FACE ( 'NONE', ( #875 ), #940, .F. ) ;
#541 = PRODUCT_DEFINITION_SHAPE ( 'NONE', 'NONE',  #1216 ) ;
#542 = DESIGN_CONTEXT ( 'detailed design', #29, 'design' ) ;
#543 = ORIENTED_EDGE ( 'NONE', *, *, #1240, .F. ) ;
#544 = ORIENTED_EDGE ( 'NONE', *, *, #1260, .T. ) ;
#545 = EDGE_LOOP ( 'NONE', ( #651, #659 ) ) ;
#546 = ORIENTED_EDGE ( 'NONE', *, *, #1258, .T. ) ;
#547 = ORIENTED_EDGE ( 'NONE', *, *, #1273, .F. ) ;
#548 = ORIENTED_EDGE ( 'NONE', *, *, #1241, .T. ) ;
#549 = ORIENTED_EDGE ( 'NONE', *, *, #1254, .F. ) ;
#550 = EDGE_LOOP ( 'NONE', ( #598, #619, #621, #594 ) ) ;
#551 = ORIENTED_EDGE ( 'NONE', *, *, #1267, .T. ) ;
#552 = EDGE_LOOP ( 'NONE', ( #718, #722, #770, #767 ) ) ;
#553 = EDGE_LOOP ( 'NONE', ( #778, #760, #546, #562 ) ) ;
#554 = EDGE_LOOP ( 'NONE', ( #628, #699, #700, #678 ) ) ;
#555 = EDGE_LOOP ( 'NONE', ( #607, #623, #625, #616 ) ) ;
#556 = EDGE_LOOP ( 'NONE', ( #582, #575, #566, #580 ) ) ;
#557 = EDGE_LOOP ( 'NONE', ( #663, #662, #633, #642 ) ) ;
#558 = EDGE_LOOP ( 'NONE', ( #671, #741, #725, #745 ) ) ;
#559 = EDGE_LOOP ( 'NONE', ( #715, #750, #692, #731 ) ) ;
#560 = ORIENTED_EDGE ( 'NONE', *, *, #1258, .F. ) ;
#561 = EDGE_LOOP ( 'NONE', ( #776, #788, #773, #796, #793, #777 ) ) ;
#562 = ORIENTED_EDGE ( 'NONE', *, *, #1263, .F. ) ;
#563 = EDGE_LOOP ( 'NONE', ( #590, #597, #656, #658 ) ) ;
#564 = EDGE_LOOP ( 'NONE', ( #657, #643 ) ) ;
#565 = ORIENTED_EDGE ( 'NONE', *, *, #1280, .T. ) ;
#566 = ORIENTED_EDGE ( 'NONE', *, *, #1268, .T. ) ;
#567 = ORIENTED_EDGE ( 'NONE', *, *, #1237, .F. ) ;
#568 = EDGE_LOOP ( 'NONE', ( #784, #719, #780, #775 ) ) ;
#569 = ORIENTED_EDGE ( 'NONE', *, *, #1290, .T. ) ;
#570 = ORIENTED_EDGE ( 'NONE', *, *, #1285, .F. ) ;
#571 = EDGE_LOOP ( 'NONE', ( #712, #728, #710, #704, #672, #668 ) ) ;
#572 = EDGE_LOOP ( 'NONE', ( #751, #743, #694, #758 ) ) ;
#573 = ORIENTED_EDGE ( 'NONE', *, *, #1236, .T. ) ;
#574 = ORIENTED_EDGE ( 'NONE', *, *, #1282, .F. ) ;
#575 = ORIENTED_EDGE ( 'NONE', *, *, #1277, .T. ) ;
#576 = ORIENTED_EDGE ( 'NONE', *, *, #1257, .F. ) ;
#577 = EDGE_LOOP ( 'NONE', ( #661, #634, #665, #654 ) ) ;
#578 = ORIENTED_EDGE ( 'NONE', *, *, #1239, .F. ) ;
#579 = ORIENTED_EDGE ( 'NONE', *, *, #1271, .F. ) ;
#580 = ORIENTED_EDGE ( 'NONE', *, *, #1282, .T. ) ;
#581 = ORIENTED_EDGE ( 'NONE', *, *, #1271, .T. ) ;
#582 = ORIENTED_EDGE ( 'NONE', *, *, #1242, .F. ) ;
#583 = EDGE_LOOP ( 'NONE', ( #666, #630, #647, #645 ) ) ;
#584 = ORIENTED_EDGE ( 'NONE', *, *, #1275, .T. ) ;
#585 = EDGE_LOOP ( 'NONE', ( #614, #624, #592, #595, #569, #588, #589, #570, #608, #610, #611, #622 ) ) ;
#586 = ORIENTED_EDGE ( 'NONE', *, *, #1264, .T. ) ;
#587 = EDGE_LOOP ( 'NONE', ( #576, #544, #600, #584 ) ) ;
#588 = ORIENTED_EDGE ( 'NONE', *, *, #1272, .T. ) ;
#589 = ORIENTED_EDGE ( 'NONE', *, *, #1276, .F. ) ;
#590 = ORIENTED_EDGE ( 'NONE', *, *, #1153, .T. ) ;
#591 = ORIENTED_EDGE ( 'NONE', *, *, #1270, .T. ) ;
#592 = ORIENTED_EDGE ( 'NONE', *, *, #1257, .T. ) ;
#593 = ORIENTED_EDGE ( 'NONE', *, *, #1252, .F. ) ;
#594 = ORIENTED_EDGE ( 'NONE', *, *, #1303, .T. ) ;
#595 = ORIENTED_EDGE ( 'NONE', *, *, #1284, .F. ) ;
#596 = ORIENTED_EDGE ( 'NONE', *, *, #1295, .F. ) ;
#597 = ORIENTED_EDGE ( 'NONE', *, *, #1243, .T. ) ;
#598 = ORIENTED_EDGE ( 'NONE', *, *, #1309, .T. ) ;
#599 = ORIENTED_EDGE ( 'NONE', *, *, #1301, .T. ) ;
#600 = ORIENTED_EDGE ( 'NONE', *, *, #1242, .T. ) ;
#601 = ORIENTED_EDGE ( 'NONE', *, *, #1292, .T. ) ;
#602 = ORIENTED_EDGE ( 'NONE', *, *, #1244, .F. ) ;
#603 = ORIENTED_EDGE ( 'NONE', *, *, #1281, .T. ) ;
#604 = ORIENTED_EDGE ( 'NONE', *, *, #1141, .T. ) ;
#605 = ORIENTED_EDGE ( 'NONE', *, *, #1279, .F. ) ;
#606 = ORIENTED_EDGE ( 'NONE', *, *, #1256, .F. ) ;
#607 = ORIENTED_EDGE ( 'NONE', *, *, #1301, .F. ) ;
#608 = ORIENTED_EDGE ( 'NONE', *, *, #1279, .T. ) ;
#609 = ORIENTED_EDGE ( 'NONE', *, *, #1156, .T. ) ;
#610 = ORIENTED_EDGE ( 'NONE', *, *, #1297, .F. ) ;
#611 = ORIENTED_EDGE ( 'NONE', *, *, #1244, .T. ) ;
#612 = ORIENTED_EDGE ( 'NONE', *, *, #1290, .F. ) ;
#613 = ORIENTED_EDGE ( 'NONE', *, *, #1259, .T. ) ;
#614 = ORIENTED_EDGE ( 'NONE', *, *, #1256, .T. ) ;
#615 = ORIENTED_EDGE ( 'NONE', *, *, #1243, .F. ) ;
#616 = ORIENTED_EDGE ( 'NONE', *, *, #1248, .T. ) ;
#617 = ORIENTED_EDGE ( 'NONE', *, *, #1240, .T. ) ;
#618 = ORIENTED_EDGE ( 'NONE', *, *, #1295, .T. ) ;
#619 = ORIENTED_EDGE ( 'NONE', *, *, #1249, .T. ) ;
#620 = ORIENTED_EDGE ( 'NONE', *, *, #1308, .T. ) ;
#621 = ORIENTED_EDGE ( 'NONE', *, *, #1292, .F. ) ;
#622 = ORIENTED_EDGE ( 'NONE', *, *, #1247, .F. ) ;
#623 = ORIENTED_EDGE ( 'NONE', *, *, #1254, .T. ) ;
#624 = ORIENTED_EDGE ( 'NONE', *, *, #1261, .F. ) ;
#625 = ORIENTED_EDGE ( 'NONE', *, *, #1246, .T. ) ;
#626 = ORIENTED_EDGE ( 'NONE', *, *, #1238, .T. ) ;
#627 = ORIENTED_EDGE ( 'NONE', *, *, #1136, .T. ) ;
#628 = ORIENTED_EDGE ( 'NONE', *, *, #1171, .T. ) ;
#629 = ORIENTED_EDGE ( 'NONE', *, *, #1130, .T. ) ;
#630 = ORIENTED_EDGE ( 'NONE', *, *, #1160, .F. ) ;
#631 = ORIENTED_EDGE ( 'NONE', *, *, #1288, .T. ) ;
#632 = ORIENTED_EDGE ( 'NONE', *, *, #1289, .T. ) ;
#633 = ORIENTED_EDGE ( 'NONE', *, *, #1144, .F. ) ;
#634 = ORIENTED_EDGE ( 'NONE', *, *, #1165, .F. ) ;
#635 = ORIENTED_EDGE ( 'NONE', *, *, #1139, .T. ) ;
#636 = ORIENTED_EDGE ( 'NONE', *, *, #1298, .F. ) ;
#637 = ORIENTED_EDGE ( 'NONE', *, *, #1139, .F. ) ;
#638 = ORIENTED_EDGE ( 'NONE', *, *, #1299, .F. ) ;
#639 = ORIENTED_EDGE ( 'NONE', *, *, #1293, .F. ) ;
#640 = ORIENTED_EDGE ( 'NONE', *, *, #1127, .F. ) ;
#641 = ORIENTED_EDGE ( 'NONE', *, *, #1239, .T. ) ;
#642 = ORIENTED_EDGE ( 'NONE', *, *, #1165, .T. ) ;
#643 = ORIENTED_EDGE ( 'NONE', *, *, #1291, .T. ) ;
#644 = ORIENTED_EDGE ( 'NONE', *, *, #1140, .T. ) ;
#645 = ORIENTED_EDGE ( 'NONE', *, *, #1276, .T. ) ;
#646 = ORIENTED_EDGE ( 'NONE', *, *, #1155, .T. ) ;
#647 = ORIENTED_EDGE ( 'NONE', *, *, #1136, .F. ) ;
#648 = ORIENTED_EDGE ( 'NONE', *, *, #1151, .F. ) ;
#649 = ORIENTED_EDGE ( 'NONE', *, *, #1152, .T. ) ;
#650 = ORIENTED_EDGE ( 'NONE', *, *, #1127, .T. ) ;
#651 = ORIENTED_EDGE ( 'NONE', *, *, #1307, .T. ) ;
#652 = ORIENTED_EDGE ( 'NONE', *, *, #1304, .F. ) ;
#653 = ORIENTED_EDGE ( 'NONE', *, *, #1253, .T. ) ;
#654 = ORIENTED_EDGE ( 'NONE', *, *, #1160, .T. ) ;
#655 = ORIENTED_EDGE ( 'NONE', *, *, #1294, .T. ) ;
#656 = ORIENTED_EDGE ( 'NONE', *, *, #1289, .F. ) ;
#657 = ORIENTED_EDGE ( 'NONE', *, *, #1123, .T. ) ;
#658 = ORIENTED_EDGE ( 'NONE', *, *, #1158, .F. ) ;
#659 = ORIENTED_EDGE ( 'NONE', *, *, #1245, .T. ) ;
#660 = ORIENTED_EDGE ( 'NONE', *, *, #1168, .T. ) ;
#661 = ORIENTED_EDGE ( 'NONE', *, *, #1302, .T. ) ;
#662 = ORIENTED_EDGE ( 'NONE', *, *, #1152, .F. ) ;
#663 = ORIENTED_EDGE ( 'NONE', *, *, #1161, .T. ) ;
#664 = ORIENTED_EDGE ( 'NONE', *, *, #1310, .F. ) ;
#665 = ORIENTED_EDGE ( 'NONE', *, *, #1283, .F. ) ;
#666 = ORIENTED_EDGE ( 'NONE', *, *, #1135, .T. ) ;
#667 = ORIENTED_EDGE ( 'NONE', *, *, #1280, .F. ) ;
#668 = ORIENTED_EDGE ( 'NONE', *, *, #1281, .F. ) ;
#669 = ORIENTED_EDGE ( 'NONE', *, *, #1309, .F. ) ;
#670 = ORIENTED_EDGE ( 'NONE', *, *, #1134, .T. ) ;
#671 = ORIENTED_EDGE ( 'NONE', *, *, #1265, .F. ) ;
#672 = ORIENTED_EDGE ( 'NONE', *, *, #1261, .T. ) ;
#673 = ORIENTED_EDGE ( 'NONE', *, *, #1137, .T. ) ;
#674 = ORIENTED_EDGE ( 'NONE', *, *, #1159, .F. ) ;
#675 = ORIENTED_EDGE ( 'NONE', *, *, #1248, .F. ) ;
#676 = ORIENTED_EDGE ( 'NONE', *, *, #1124, .T. ) ;
#677 = ORIENTED_EDGE ( 'NONE', *, *, #1241, .F. ) ;
#678 = ORIENTED_EDGE ( 'NONE', *, *, #1310, .T. ) ;
#679 = ORIENTED_EDGE ( 'NONE', *, *, #1148, .F. ) ;
#680 = ORIENTED_EDGE ( 'NONE', *, *, #1285, .T. ) ;
#681 = ORIENTED_EDGE ( 'NONE', *, *, #1153, .F. ) ;
#682 = ORIENTED_EDGE ( 'NONE', *, *, #1236, .F. ) ;
#683 = ORIENTED_EDGE ( 'NONE', *, *, #1154, .F. ) ;
#684 = ORIENTED_EDGE ( 'NONE', *, *, #1296, .T. ) ;
#685 = ORIENTED_EDGE ( 'NONE', *, *, #1167, .T. ) ;
#686 = ORIENTED_EDGE ( 'NONE', *, *, #1148, .T. ) ;
#687 = ORIENTED_EDGE ( 'NONE', *, *, #1159, .T. ) ;
#688 = ORIENTED_EDGE ( 'NONE', *, *, #1143, .T. ) ;
#689 = ORIENTED_EDGE ( 'NONE', *, *, #1161, .F. ) ;
#690 = ORIENTED_EDGE ( 'NONE', *, *, #1246, .F. ) ;
#691 = ORIENTED_EDGE ( 'NONE', *, *, #1287, .F. ) ;
#692 = ORIENTED_EDGE ( 'NONE', *, *, #1263, .T. ) ;
#693 = ORIENTED_EDGE ( 'NONE', *, *, #1247, .T. ) ;
#694 = ORIENTED_EDGE ( 'NONE', *, *, #1255, .T. ) ;
#695 = ORIENTED_EDGE ( 'NONE', *, *, #1262, .T. ) ;
#696 = ORIENTED_EDGE ( 'NONE', *, *, #1308, .F. ) ;
#697 = ORIENTED_EDGE ( 'NONE', *, *, #1158, .T. ) ;
#698 = ORIENTED_EDGE ( 'NONE', *, *, #1305, .F. ) ;
#699 = ORIENTED_EDGE ( 'NONE', *, *, #1124, .F. ) ;
#700 = ORIENTED_EDGE ( 'NONE', *, *, #1138, .F. ) ;
#701 = ORIENTED_EDGE ( 'NONE', *, *, #1137, .F. ) ;
#702 = ORIENTED_EDGE ( 'NONE', *, *, #1268, .F. ) ;
#703 = ORIENTED_EDGE ( 'NONE', *, *, #1143, .F. ) ;
#704 = ORIENTED_EDGE ( 'NONE', *, *, #1260, .F. ) ;
#705 = ORIENTED_EDGE ( 'NONE', *, *, #1151, .T. ) ;
#706 = ORIENTED_EDGE ( 'NONE', *, *, #1283, .T. ) ;
#707 = ORIENTED_EDGE ( 'NONE', *, *, #1302, .F. ) ;
#708 = ORIENTED_EDGE ( 'NONE', *, *, #1156, .F. ) ;
#709 = ORIENTED_EDGE ( 'NONE', *, *, #1274, .F. ) ;
#710 = ORIENTED_EDGE ( 'NONE', *, *, #1250, .T. ) ;
#711 = ORIENTED_EDGE ( 'NONE', *, *, #1288, .F. ) ;
#712 = ORIENTED_EDGE ( 'NONE', *, *, #1266, .F. ) ;
#713 = ORIENTED_EDGE ( 'NONE', *, *, #1298, .T. ) ;
#714 = ORIENTED_EDGE ( 'NONE', *, *, #1252, .T. ) ;
#715 = ORIENTED_EDGE ( 'NONE', *, *, #1300, .F. ) ;
#716 = ORIENTED_EDGE ( 'NONE', *, *, #1131, .F. ) ;
#717 = ORIENTED_EDGE ( 'NONE', *, *, #1237, .T. ) ;
#718 = ORIENTED_EDGE ( 'NONE', *, *, #1291, .F. ) ;
#719 = ORIENTED_EDGE ( 'NONE', *, *, #1269, .T. ) ;
#720 = ORIENTED_EDGE ( 'NONE', *, *, #1306, .F. ) ;
#721 = ORIENTED_EDGE ( 'NONE', *, *, #1311, .F. ) ;
#722 = ORIENTED_EDGE ( 'NONE', *, *, #1265, .T. ) ;
#723 = ORIENTED_EDGE ( 'NONE', *, *, #1130, .F. ) ;
#724 = ORIENTED_EDGE ( 'NONE', *, *, #1299, .T. ) ;
#725 = ORIENTED_EDGE ( 'NONE', *, *, #1251, .T. ) ;
#726 = ORIENTED_EDGE ( 'NONE', *, *, #1141, .F. ) ;
#727 = ORIENTED_EDGE ( 'NONE', *, *, #1144, .T. ) ;
#728 = ORIENTED_EDGE ( 'NONE', *, *, #1170, .F. ) ;
#729 = ORIENTED_EDGE ( 'NONE', *, *, #1284, .T. ) ;
#730 = ORIENTED_EDGE ( 'NONE', *, *, #1264, .F. ) ;
#731 = ORIENTED_EDGE ( 'NONE', *, *, #1311, .T. ) ;
#732 = ORIENTED_EDGE ( 'NONE', *, *, #1297, .T. ) ;
#733 = ORIENTED_EDGE ( 'NONE', *, *, #1154, .T. ) ;
#734 = ORIENTED_EDGE ( 'NONE', *, *, #1140, .F. ) ;
#735 = ORIENTED_EDGE ( 'NONE', *, *, #1287, .T. ) ;
#736 = ORIENTED_EDGE ( 'NONE', *, *, #1272, .F. ) ;
#737 = ORIENTED_EDGE ( 'NONE', *, *, #1138, .T. ) ;
#738 = ORIENTED_EDGE ( 'NONE', *, *, #1293, .T. ) ;
#739 = ORIENTED_EDGE ( 'NONE', *, *, #1135, .F. ) ;
#740 = ORIENTED_EDGE ( 'NONE', *, *, #1267, .F. ) ;
#741 = ORIENTED_EDGE ( 'NONE', *, *, #1123, .F. ) ;
#742 = ORIENTED_EDGE ( 'NONE', *, *, #1167, .F. ) ;
#743 = ORIENTED_EDGE ( 'NONE', *, *, #1155, .F. ) ;
#744 = ORIENTED_EDGE ( 'NONE', *, *, #1131, .T. ) ;
#745 = ORIENTED_EDGE ( 'NONE', *, *, #1305, .T. ) ;
#746 = ORIENTED_EDGE ( 'NONE', *, *, #1273, .T. ) ;
#747 = ORIENTED_EDGE ( 'NONE', *, *, #1259, .F. ) ;
#748 = ORIENTED_EDGE ( 'NONE', *, *, #1296, .F. ) ;
#749 = ORIENTED_EDGE ( 'NONE', *, *, #1171, .F. ) ;
#750 = ORIENTED_EDGE ( 'NONE', *, *, #1307, .F. ) ;
#751 = ORIENTED_EDGE ( 'NONE', *, *, #1269, .F. ) ;
#752 = ORIENTED_EDGE ( 'NONE', *, *, #1168, .F. ) ;
#753 = ORIENTED_EDGE ( 'NONE', *, *, #1253, .F. ) ;
#754 = ORIENTED_EDGE ( 'NONE', *, *, #1294, .F. ) ;
#755 = ORIENTED_EDGE ( 'NONE', *, *, #1275, .F. ) ;
#756 = ORIENTED_EDGE ( 'NONE', *, *, #1278, .F. ) ;
#757 = CLOSED_SHELL ( 'NONE', ( #537, #534, #536, #521, #531, #509, #508, #530, #504, #532, #518, #507, #517, #523, #511, #538, #539, #505, #513, #519, #533, #535, #502, #510, #514, #528, #506, #524, #515, #529, #526, #540, #520, #512, #527, #503, #522, #525, #516 ) ) ;
#758 = ORIENTED_EDGE ( 'NONE', *, *, #1170, .T. ) ;
#759 = ORIENTED_EDGE ( 'NONE', *, *, #1277, .F. ) ;
#760 = ORIENTED_EDGE ( 'NONE', *, *, #1300, .T. ) ;
#761 = ORIENTED_EDGE ( 'NONE', *, *, #1249, .F. ) ;
#762 = ORIENTED_EDGE ( 'NONE', *, *, #1134, .F. ) ;
#763 = ORIENTED_EDGE ( 'NONE', *, *, #1304, .T. ) ;
#764 = VERTEX_POINT ( 'NONE', #205 ) ;
#765 = ORIENTED_EDGE ( 'NONE', *, *, #1250, .F. ) ;
#766 = VERTEX_POINT ( 'NONE', #183 ) ;
#767 = ORIENTED_EDGE ( 'NONE', *, *, #1251, .F. ) ;
#768 = VERTEX_POINT ( 'NONE', #166 ) ;
#769 = VERTEX_POINT ( 'NONE', #194 ) ;
#770 = ORIENTED_EDGE ( 'NONE', *, *, #1286, .T. ) ;
#771 = VERTEX_POINT ( 'NONE', #171 ) ;
#772 = VERTEX_POINT ( 'NONE', #182 ) ;
#773 = ORIENTED_EDGE ( 'NONE', *, *, #1270, .F. ) ;
#774 = VERTEX_POINT ( 'NONE', #185 ) ;
#775 = ORIENTED_EDGE ( 'NONE', *, *, #1255, .F. ) ;
#776 = ORIENTED_EDGE ( 'NONE', *, *, #1286, .F. ) ;
#777 = ORIENTED_EDGE ( 'NONE', *, *, #1262, .F. ) ;
#778 = ORIENTED_EDGE ( 'NONE', *, *, #1245, .F. ) ;
#779 = VERTEX_POINT ( 'NONE', #189 ) ;
#780 = ORIENTED_EDGE ( 'NONE', *, *, #1306, .T. ) ;
#781 = VERTEX_POINT ( 'NONE', #184 ) ;
#782 = VERTEX_POINT ( 'NONE', #197 ) ;
#783 = VERTEX_POINT ( 'NONE', #186 ) ;
#784 = ORIENTED_EDGE ( 'NONE', *, *, #1238, .F. ) ;
#785 = ORIENTED_EDGE ( 'NONE', *, *, #1266, .T. ) ;
#786 = VERTEX_POINT ( 'NONE', #165 ) ;
#787 = VERTEX_POINT ( 'NONE', #198 ) ;
#788 = ORIENTED_EDGE ( 'NONE', *, *, #1278, .T. ) ;
#789 = VERTEX_POINT ( 'NONE', #201 ) ;
#790 = VERTEX_POINT ( 'NONE', #187 ) ;
#791 = VERTEX_POINT ( 'NONE', #200 ) ;
#792 = VERTEX_POINT ( 'NONE', #167 ) ;
#793 = ORIENTED_EDGE ( 'NONE', *, *, #1303, .F. ) ;
#794 = VERTEX_POINT ( 'NONE', #195 ) ;
#795 = VERTEX_POINT ( 'NONE', #199 ) ;
#796 = ORIENTED_EDGE ( 'NONE', *, *, #1274, .T. ) ;
#797 = VERTEX_POINT ( 'NONE', #203 ) ;
#798 = VERTEX_POINT ( 'NONE', #238 ) ;
#799 = VERTEX_POINT ( 'NONE', #226 ) ;
#800 = VERTEX_POINT ( 'NONE', #188 ) ;
#801 = FACE_OUTER_BOUND ( 'NONE', #1110, .T. ) ;
#802 = VERTEX_POINT ( 'NONE', #208 ) ;
#803 = VERTEX_POINT ( 'NONE', #260 ) ;
#804 = VERTEX_POINT ( 'NONE', #216 ) ;
#805 = VERTEX_POINT ( 'NONE', #202 ) ;
#806 = VERTEX_POINT ( 'NONE', #221 ) ;
#807 = VERTEX_POINT ( 'NONE', #223 ) ;
#808 = VERTEX_POINT ( 'NONE', #217 ) ;
#809 = VERTEX_POINT ( 'NONE', #218 ) ;
#810 = VERTEX_POINT ( 'NONE', #245 ) ;
#811 = VERTEX_POINT ( 'NONE', #239 ) ;
#812 = VERTEX_POINT ( 'NONE', #241 ) ;
#813 = VERTEX_POINT ( 'NONE', #233 ) ;
#814 = VERTEX_POINT ( 'NONE', #213 ) ;
#815 = VERTEX_POINT ( 'NONE', #230 ) ;
#816 = VERTEX_POINT ( 'NONE', #259 ) ;
#817 = VERTEX_POINT ( 'NONE', #219 ) ;
#818 = VERTEX_POINT ( 'NONE', #211 ) ;
#819 = VERTEX_POINT ( 'NONE', #209 ) ;
#820 = VERTEX_POINT ( 'NONE', #252 ) ;
#821 = VERTEX_POINT ( 'NONE', #220 ) ;
#822 = VERTEX_POINT ( 'NONE', #224 ) ;
#823 = VERTEX_POINT ( 'NONE', #235 ) ;
#824 = VERTEX_POINT ( 'NONE', #246 ) ;
#825 = VERTEX_POINT ( 'NONE', #225 ) ;
#826 = VERTEX_POINT ( 'NONE', #228 ) ;
#827 = VERTEX_POINT ( 'NONE', #234 ) ;
#828 = VERTEX_POINT ( 'NONE', #240 ) ;
#829 = VERTEX_POINT ( 'NONE', #253 ) ;
#830 = VERTEX_POINT ( 'NONE', #222 ) ;
#831 = VERTEX_POINT ( 'NONE', #231 ) ;
#832 = VERTEX_POINT ( 'NONE', #227 ) ;
#833 = VERTEX_POINT ( 'NONE', #229 ) ;
#834 = VERTEX_POINT ( 'NONE', #242 ) ;
#835 = VERTEX_POINT ( 'NONE', #210 ) ;
#836 = VERTEX_POINT ( 'NONE', #237 ) ;
#837 = VERTEX_POINT ( 'NONE', #214 ) ;
#838 = FACE_OUTER_BOUND ( 'NONE', #1111, .T. ) ;
#839 = FACE_OUTER_BOUND ( 'NONE', #556, .T. ) ;
#840 = VERTEX_POINT ( 'NONE', #232 ) ;
#841 = VERTEX_POINT ( 'NONE', #244 ) ;
#842 = VERTEX_POINT ( 'NONE', #257 ) ;
#843 = VERTEX_POINT ( 'NONE', #243 ) ;
#844 = VERTEX_POINT ( 'NONE', #236 ) ;
#845 = VERTEX_POINT ( 'NONE', #254 ) ;
#846 = CYLINDRICAL_SURFACE ( 'NONE', #1211, 2.500000000000002200 ) ;
#847 = FACE_OUTER_BOUND ( 'NONE', #561, .T. ) ;
#848 = FACE_OUTER_BOUND ( 'NONE', #1098, .T. ) ;
#849 = CYLINDRICAL_SURFACE ( 'NONE', #1188, 2.499999999999998700 ) ;
#850 = CONICAL_SURFACE ( 'NONE', #1195, 3.024999999999999900, 0.7853981633974479500 ) ;
#851 = CONICAL_SURFACE ( 'NONE', #1208, 3.024999999999999900, 0.7853981633974479500 ) ;
#852 = CYLINDRICAL_SURFACE ( 'NONE', #1129, 2.499999999999998700 ) ;
#853 = FACE_OUTER_BOUND ( 'NONE', #553, .T. ) ;
#854 = FACE_OUTER_BOUND ( 'NONE', #1119, .T. ) ;
#855 = CYLINDRICAL_SURFACE ( 'NONE', #1181, 2.499999999999998700 ) ;
#856 = FACE_OUTER_BOUND ( 'NONE', #1102, .T. ) ;
#857 = FACE_OUTER_BOUND ( 'NONE', #1114, .T. ) ;
#858 = CONICAL_SURFACE ( 'NONE', #1162, 3.024999999999999900, 0.7853981633974479500 ) ;
#859 = FACE_BOUND ( 'NONE', #545, .T. ) ;
#860 = FACE_OUTER_BOUND ( 'NONE', #1113, .T. ) ;
#861 = FACE_OUTER_BOUND ( 'NONE', #1101, .T. ) ;
#862 = FACE_BOUND ( 'NONE', #1099, .T. ) ;
#863 = FACE_OUTER_BOUND ( 'NONE', #1103, .T. ) ;
#864 = FACE_OUTER_BOUND ( 'NONE', #554, .T. ) ;
#865 = FACE_OUTER_BOUND ( 'NONE', #572, .T. ) ;
#866 = CYLINDRICAL_SURFACE ( 'NONE', #1197, 2.500000000000002200 ) ;
#867 = FACE_OUTER_BOUND ( 'NONE', #557, .T. ) ;
#868 = FACE_OUTER_BOUND ( 'NONE', #1118, .T. ) ;
#869 = CYLINDRICAL_SURFACE ( 'NONE', #1190, 2.499999999999998700 ) ;
#870 = FACE_OUTER_BOUND ( 'NONE', #587, .T. ) ;
#871 = CONICAL_SURFACE ( 'NONE', #1174, 3.024999999999999900, 0.7853981633974479500 ) ;
#872 = FACE_OUTER_BOUND ( 'NONE', #552, .T. ) ;
#873 = CONICAL_SURFACE ( 'NONE', #1147, 3.024999999999999900, 0.7853981633974479500 ) ;
#874 = FACE_OUTER_BOUND ( 'NONE', #1108, .T. ) ;
#875 = FACE_OUTER_BOUND ( 'NONE', #1117, .T. ) ;
#876 = FACE_OUTER_BOUND ( 'NONE', #555, .T. ) ;
#877 = FACE_OUTER_BOUND ( 'NONE', #1104, .T. ) ;
#878 = FACE_BOUND ( 'NONE', #1100, .T. ) ;
#879 = FACE_OUTER_BOUND ( 'NONE', #550, .T. ) ;
#880 = FACE_OUTER_BOUND ( 'NONE', #1106, .T. ) ;
#881 = FACE_OUTER_BOUND ( 'NONE', #1105, .T. ) ;
#882 = FACE_BOUND ( 'NONE', #564, .T. ) ;
#883 = CYLINDRICAL_SURFACE ( 'NONE', #1163, 2.499999999999998700 ) ;
#884 = FACE_OUTER_BOUND ( 'NONE', #563, .T. ) ;
#885 = FACE_OUTER_BOUND ( 'NONE', #585, .T. ) ;
#886 = FACE_OUTER_BOUND ( 'NONE', #568, .T. ) ;
#887 = FACE_OUTER_BOUND ( 'NONE', #577, .T. ) ;
#888 = FACE_OUTER_BOUND ( 'NONE', #1109, .T. ) ;
#889 = CONICAL_SURFACE ( 'NONE', #1142, 3.024999999999999900, 0.7853981633974479500 ) ;
#890 = FACE_OUTER_BOUND ( 'NONE', #1112, .T. ) ;
#891 = CONICAL_SURFACE ( 'NONE', #1166, 3.024999999999999900, 0.7853981633974479500 ) ;
#892 = FACE_OUTER_BOUND ( 'NONE', #558, .T. ) ;
#893 = CYLINDRICAL_SURFACE ( 'NONE', #1206, 2.499999999999998700 ) ;
#894 = FACE_OUTER_BOUND ( 'NONE', #1107, .T. ) ;
#895 = FACE_OUTER_BOUND ( 'NONE', #1115, .T. ) ;
#896 = FACE_OUTER_BOUND ( 'NONE', #1096, .T. ) ;
#897 = FACE_OUTER_BOUND ( 'NONE', #559, .T. ) ;
#898 = FACE_OUTER_BOUND ( 'NONE', #583, .T. ) ;
#899 = FACE_OUTER_BOUND ( 'NONE', #571, .T. ) ;
#900 = VECTOR ( 'NONE', #256, 1000.000000000000000 ) ;
#901 = VECTOR ( 'NONE', #266, 1000.000000000000000 ) ;
#902 = LINE ( 'NONE', #293, #907 ) ;
#903 = LINE ( 'NONE', #295, #911 ) ;
#904 = LINE ( 'NONE', #255, #900 ) ;
#905 = LINE ( 'NONE', #280, #945 ) ;
#906 = VECTOR ( 'NONE', #264, 1000.000000000000000 ) ;
#907 = VECTOR ( 'NONE', #308, 1000.000000000000000 ) ;
#908 = LINE ( 'NONE', #248, #936 ) ;
#909 = LINE ( 'NONE', #258, #931 ) ;
#910 = LINE ( 'NONE', #306, #944 ) ;
#911 = VECTOR ( 'NONE', #309, 1000.000000000000000 ) ;
#912 = LINE ( 'NONE', #262, #906 ) ;
#913 = VECTOR ( 'NONE', #267, 1000.000000000000000 ) ;
#914 = CIRCLE ( 'NONE', #1215, 2.499999999999997800 ) ;
#915 = VECTOR ( 'NONE', #298, 1000.000000000000100 ) ;
#916 = LINE ( 'NONE', #310, #946 ) ;
#917 = LINE ( 'NONE', #312, #938 ) ;
#918 = VECTOR ( 'NONE', #273, 1000.000000000000100 ) ;
#919 = VECTOR ( 'NONE', #286, 1000.000000000000000 ) ;
#920 = LINE ( 'NONE', #328, #951 ) ;
#921 = VECTOR ( 'NONE', #287, 1000.000000000000000 ) ;
#922 = VECTOR ( 'NONE', #314, 1000.000000000000000 ) ;
#923 = LINE ( 'NONE', #315, #948 ) ;
#924 = CIRCLE ( 'NONE', #1209, 2.499999999999996900 ) ;
#925 = CIRCLE ( 'NONE', #1212, 2.499999999999998700 ) ;
#926 = LINE ( 'NONE', #289, #937 ) ;
#927 = LINE ( 'NONE', #270, #913 ) ;
#928 = LINE ( 'NONE', #268, #918 ) ;
#929 = LINE ( 'NONE', #282, #901 ) ;
#930 = LINE ( 'NONE', #277, #943 ) ;
#931 = VECTOR ( 'NONE', #215, 1000.000000000000000 ) ;
#932 = LINE ( 'NONE', #283, #919 ) ;
#933 = LINE ( 'NONE', #279, #915 ) ;
#934 = LINE ( 'NONE', #311, #921 ) ;
#935 = VECTOR ( 'NONE', #296, 1000.000000000000000 ) ;
#936 = VECTOR ( 'NONE', #251, 1000.000000000000000 ) ;
#937 = VECTOR ( 'NONE', #303, 1000.000000000000000 ) ;
#938 = VECTOR ( 'NONE', #313, 1000.000000000000000 ) ;
#939 = CIRCLE ( 'NONE', #1175, 2.499999999999998700 ) ;
#940 = CONICAL_SURFACE ( 'NONE', #1205, 3.024999999999999900, 0.7853981633974479500 ) ;
#941 = LINE ( 'NONE', #275, #952 ) ;
#942 = LINE ( 'NONE', #300, #935 ) ;
#943 = VECTOR ( 'NONE', #278, 1000.000000000000100 ) ;
#944 = VECTOR ( 'NONE', #290, 1000.000000000000000 ) ;
#945 = VECTOR ( 'NONE', #304, 1000.000000000000000 ) ;
#946 = VECTOR ( 'NONE', #291, 1000.000000000000100 ) ;
#947 = LINE ( 'NONE', #294, #922 ) ;
#948 = VECTOR ( 'NONE', #288, 1000.000000000000000 ) ;
#949 = CIRCLE ( 'NONE', #1191, 2.499999999999998700 ) ;
#950 = LINE ( 'NONE', #332, #953 ) ;
#951 = VECTOR ( 'NONE', #338, 1000.000000000000000 ) ;
#952 = VECTOR ( 'NONE', #276, 1000.000000000000000 ) ;
#953 = VECTOR ( 'NONE', #336, 1000.000000000000100 ) ;
#954 = CIRCLE ( 'NONE', #1207, 3.024999999999999900 ) ;
#955 = VECTOR ( 'NONE', #334, 1000.000000000000000 ) ;
#956 = LINE ( 'NONE', #388, #957 ) ;
#957 = VECTOR ( 'NONE', #394, 999.9999999999998900 ) ;
#958 = VECTOR ( 'NONE', #408, 1000.000000000000000 ) ;
#959 = VECTOR ( 'NONE', #402, 999.9999999999998900 ) ;
#960 = LINE ( 'NONE', #407, #966 ) ;
#961 = LINE ( 'NONE', #333, #955 ) ;
#962 = VECTOR ( 'NONE', #352, 1000.000000000000000 ) ;
#963 = LINE ( 'NONE', #350, #983 ) ;
#964 = VECTOR ( 'NONE', #386, 1000.000000000000000 ) ;
#965 = LINE ( 'NONE', #406, #1006 ) ;
#966 = VECTOR ( 'NONE', #418, 1000.000000000000000 ) ;
#967 = CIRCLE ( 'NONE', #1203, 2.500000000000002200 ) ;
#968 = LINE ( 'NONE', #429, #969 ) ;
#969 = VECTOR ( 'NONE', #413, 1000.000000000000000 ) ;
#970 = VECTOR ( 'NONE', #435, 999.9999999999998900 ) ;
#971 = CIRCLE ( 'NONE', #1221, 3.024999999999999900 ) ;
#972 = CIRCLE ( 'NONE', #1192, 2.499999999999996900 ) ;
#973 = LINE ( 'NONE', #345, #991 ) ;
#974 = LINE ( 'NONE', #405, #1004 ) ;
#975 = VECTOR ( 'NONE', #353, 1000.000000000000000 ) ;
#976 = LINE ( 'NONE', #396, #958 ) ;
#977 = LINE ( 'NONE', #422, #1037 ) ;
#978 = VECTOR ( 'NONE', #346, 1000.000000000000000 ) ;
#979 = LINE ( 'NONE', #324, #962 ) ;
#980 = LINE ( 'NONE', #349, #978 ) ;
#981 = CIRCLE ( 'NONE', #1176, 3.024999999999999900 ) ;
#982 = VECTOR ( 'NONE', #366, 999.9999999999998900 ) ;
#983 = VECTOR ( 'NONE', #354, 1000.000000000000100 ) ;
#984 = VECTOR ( 'NONE', #316, 1000.000000000000000 ) ;
#985 = LINE ( 'NONE', #385, #1007 ) ;
#986 = VECTOR ( 'NONE', #371, 1000.000000000000000 ) ;
#987 = CIRCLE ( 'NONE', #1201, 3.024999999999999900 ) ;
#988 = VECTOR ( 'NONE', #367, 1000.000000000000000 ) ;
#989 = LINE ( 'NONE', #404, #998 ) ;
#990 = LINE ( 'NONE', #399, #959 ) ;
#991 = VECTOR ( 'NONE', #400, 999.9999999999998900 ) ;
#992 = LINE ( 'NONE', #326, #984 ) ;
#993 = LINE ( 'NONE', #344, #975 ) ;
#994 = LINE ( 'NONE', #351, #986 ) ;
#995 = LINE ( 'NONE', #356, #982 ) ;
#996 = LINE ( 'NONE', #369, #964 ) ;
#997 = LINE ( 'NONE', #376, #988 ) ;
#998 = VECTOR ( 'NONE', #403, 1000.000000000000000 ) ;
#999 = CIRCLE ( 'NONE', #1202, 2.499999999999998700 ) ;
#1000 = CIRCLE ( 'NONE', #1198, 2.499999999999995100 ) ;
#1001 = LINE ( 'NONE', #383, #1002 ) ;
#1002 = VECTOR ( 'NONE', #401, 999.9999999999998900 ) ;
#1003 = CIRCLE ( 'NONE', #1193, 2.499999999999998700 ) ;
#1004 = VECTOR ( 'NONE', #409, 999.9999999999998900 ) ;
#1005 = LINE ( 'NONE', #430, #970 ) ;
#1006 = VECTOR ( 'NONE', #410, 1000.000000000000000 ) ;
#1007 = VECTOR ( 'NONE', #370, 1000.000000000000000 ) ;
#1008 = VECTOR ( 'NONE', #479, 1000.000000000000000 ) ;
#1009 = CIRCLE ( 'NONE', #1222, 2.499999999999998700 ) ;
#1010 = VECTOR ( 'NONE', #444, 999.9999999999998900 ) ;
#1011 = VECTOR ( 'NONE', #453, 1000.000000000000000 ) ;
#1012 = VECTOR ( 'NONE', #493, 1000.000000000000000 ) ;
#1013 = LINE ( 'NONE', #467, #1012 ) ;
#1014 = VECTOR ( 'NONE', #476, 1000.000000000000000 ) ;
#1015 = VECTOR ( 'NONE', #16, 1000.000000000000000 ) ;
#1016 = LINE ( 'NONE', #461, #1039 ) ;
#1017 = LINE ( 'NONE', #9, #1053 ) ;
#1018 = VECTOR ( 'NONE', #464, 1000.000000000000000 ) ;
#1019 = VECTOR ( 'NONE', #463, 1000.000000000000000 ) ;
#1020 = CIRCLE ( 'NONE', #1180, 3.024999999999999900 ) ;
#1021 = VECTOR ( 'NONE', #460, 1000.000000000000000 ) ;
#1022 = LINE ( 'NONE', #451, #1011 ) ;
#1023 = VECTOR ( 'NONE', #478, 1000.000000000000000 ) ;
#1024 = LINE ( 'NONE', #459, #1021 ) ;
#1025 = LINE ( 'NONE', #468, #1026 ) ;
#1026 = VECTOR ( 'NONE', #470, 1000.000000000000000 ) ;
#1027 = LINE ( 'NONE', #498, #1008 ) ;
#1028 = CIRCLE ( 'NONE', #1204, 3.024999999999999900 ) ;
#1029 = LINE ( 'NONE', #487, #1046 ) ;
#1030 = VECTOR ( 'NONE', #481, 1000.000000000000000 ) ;
#1031 = CIRCLE ( 'NONE', #1183, 3.024999999999999900 ) ;
#1032 = CIRCLE ( 'NONE', #1210, 2.499999999999998700 ) ;
#1033 = LINE ( 'NONE', #489, #1048 ) ;
#1034 = LINE ( 'NONE', #477, #1019 ) ;
#1035 = CIRCLE ( 'NONE', #1184, 2.499999999999998700 ) ;
#1036 = LINE ( 'NONE', #417, #1010 ) ;
#1037 = VECTOR ( 'NONE', #424, 1000.000000000000000 ) ;
#1038 = LINE ( 'NONE', #455, #1045 ) ;
#1039 = VECTOR ( 'NONE', #449, 1000.000000000000000 ) ;
#1040 = LINE ( 'NONE', #491, #1041 ) ;
#1041 = VECTOR ( 'NONE', #469, 1000.000000000000000 ) ;
#1042 = LINE ( 'NONE', #490, #1023 ) ;
#1043 = LINE ( 'NONE', #494, #1014 ) ;
#1044 = CIRCLE ( 'NONE', #1224, 2.499999999999997800 ) ;
#1045 = VECTOR ( 'NONE', #452, 1000.000000000000000 ) ;
#1046 = VECTOR ( 'NONE', #466, 1000.000000000000000 ) ;
#1047 = LINE ( 'NONE', #484, #1018 ) ;
#1048 = VECTOR ( 'NONE', #499, 1000.000000000000000 ) ;
#1049 = LINE ( 'NONE', #500, #1030 ) ;
#1050 = CIRCLE ( 'NONE', #1173, 3.024999999999999900 ) ;
#1051 = CIRCLE ( 'NONE', #1186, 2.500000000000002200 ) ;
#1052 = LINE ( 'NONE', #474, #1015 ) ;
#1053 = VECTOR ( 'NONE', #11, 1000.000000000000000 ) ;
#1054 = LINE ( 'NONE', #18, #1055 ) ;
#1055 = VECTOR ( 'NONE', #10, 1000.000000000000000 ) ;
#1056 = CIRCLE ( 'NONE', #1213, 2.499999999999995100 ) ;
#1057 = LINE ( 'NONE', #488, #1058 ) ;
#1058 = VECTOR ( 'NONE', #482, 1000.000000000000000 ) ;
#1059 = COORDINATED_UNIVERSAL_TIME_OFFSET ( 1, 0, .AHEAD. ) ;
#1060 = PERSON_AND_ORGANIZATION ( #1120, #1091 ) ;
#1061 = LOCAL_TIME ( 15, 33, 40.00000000000000000, #1066 ) ;
#1062 = CALENDAR_DATE ( 2017, 2, 2 ) ;
#1063 = CALENDAR_DATE ( 2017, 2, 2 ) ;
#1064 = PERSON_AND_ORGANIZATION ( #1120, #1091 ) ;
#1065 = APPROVAL_PERSON_ORGANIZATION ( #1072, #1226, #45 ) ;
#1066 = COORDINATED_UNIVERSAL_TIME_OFFSET ( 1, 0, .AHEAD. ) ;
#1067 = DATE_AND_TIME ( #1071, #1079 ) ;
#1068 = APPROVAL_PERSON_ORGANIZATION ( #1086, #1177, #34 ) ;
#1069 = DATE_AND_TIME ( #1070, #1061 ) ;
#1070 = CALENDAR_DATE ( 2017, 2, 2 ) ;
#1071 = CALENDAR_DATE ( 2017, 2, 2 ) ;
#1072 = PERSON_AND_ORGANIZATION ( #1120, #1091 ) ;
#1073 = COORDINATED_UNIVERSAL_TIME_OFFSET ( 1, 0, .AHEAD. ) ;
#1074 = PERSON_AND_ORGANIZATION ( #1120, #1091 ) ;
#1075 = DATE_AND_TIME ( #1094, #1090 ) ;
#1076 = SHAPE_DEFINITION_REPRESENTATION ( #541, #1321 ) ;
#1077 = PERSON_AND_ORGANIZATION ( #1120, #1091 ) ;
#1078 = LOCAL_TIME ( 15, 33, 40.00000000000000000, #1059 ) ;
#1079 = LOCAL_TIME ( 15, 33, 40.00000000000000000, #1083 ) ;
#1080 = APPROVAL_DATE_TIME ( #1088, #1226 ) ;
#1081 = APPROVAL_PERSON_ORGANIZATION ( #1074, #1229, #36 ) ;
#1082 = APPROVAL_DATE_TIME ( #1069, #1177 ) ;
#1083 = COORDINATED_UNIVERSAL_TIME_OFFSET ( 1, 0, .AHEAD. ) ;
#1084 = COORDINATED_UNIVERSAL_TIME_OFFSET ( 1, 0, .AHEAD. ) ;
#1085 = PERSON_AND_ORGANIZATION ( #1120, #1091 ) ;
#1086 = PERSON_AND_ORGANIZATION ( #1120, #1091 ) ;
#1087 = LOCAL_TIME ( 15, 33, 40.00000000000000000, #1073 ) ;
#1088 = DATE_AND_TIME ( #1062, #1087 ) ;
#1089 = PERSON_AND_ORGANIZATION ( #1120, #1091 ) ;
#1090 = LOCAL_TIME ( 15, 33, 40.00000000000000000, #1084 ) ;
#1091 = ORGANIZATION ( 'UNSPECIFIED', 'UNSPECIFIED', '' ) ;
#1092 = DATE_AND_TIME ( #1063, #1078 ) ;
#1093 = APPROVAL_DATE_TIME ( #1075, #1229 ) ;
#1094 = CALENDAR_DATE ( 2017, 2, 2 ) ;
#1095 = VERTEX_POINT ( 'NONE', #247 ) ;
#1096 = EDGE_LOOP ( 'NONE', ( #675, #674, #762, #748, #742, #749, #752, #734, #689, #707, #739, #736, #754 ) ) ;
#1097 = FACE_OUTER_BOUND ( 'NONE', #1116, .T. ) ;
#1098 = EDGE_LOOP ( 'NONE', ( #685, #701, #638, #676 ) ) ;
#1099 = EDGE_LOOP ( 'NONE', ( #629, #641 ) ) ;
#1100 = EDGE_LOOP ( 'NONE', ( #646, #626 ) ) ;
#1101 = EDGE_LOOP ( 'NONE', ( #601, #603, #606, #653 ) ) ;
#1102 = EDGE_LOOP ( 'NONE', ( #620, #591, #596, #617 ) ) ;
#1103 = EDGE_LOOP ( 'NONE', ( #560, #586, #574, #573, #549, #547 ) ) ;
#1104 = EDGE_LOOP ( 'NONE', ( #618, #631, #602, #609 ) ) ;
#1105 = EDGE_LOOP ( 'NONE', ( #578, #548, #581, #567 ) ) ;
#1106 = EDGE_LOOP ( 'NONE', ( #702, #652, #669, #709, #696, #667, #681, #683, #686, #687, #690, #682 ) ) ;
#1107 = EDGE_LOOP ( 'NONE', ( #612, #613, #599, #655 ) ) ;
#1108 = EDGE_LOOP ( 'NONE', ( #670, #679, #691, #650 ) ) ;
#1109 = EDGE_LOOP ( 'NONE', ( #720, #785, #761, #763, #759, #765 ) ) ;
#1110 = EDGE_LOOP ( 'NONE', ( #684, #640, #703, #673 ) ) ;
#1111 = EDGE_LOOP ( 'NONE', ( #644, #637, #648, #649 ) ) ;
#1112 = EDGE_LOOP ( 'NONE', ( #632, #604, #605, #636 ) ) ;
#1113 = EDGE_LOOP ( 'NONE', ( #697, #713, #680, #627, #706, #727, #705, #738, #737, #724, #688, #735, #733 ) ) ;
#1114 = EDGE_LOOP ( 'NONE', ( #730, #721, #746, #747, #729, #755 ) ) ;
#1115 = EDGE_LOOP ( 'NONE', ( #677, #723, #717, #744 ) ) ;
#1116 = EDGE_LOOP ( 'NONE', ( #756, #698, #695, #753, #693, #711 ) ) ;
#1117 = EDGE_LOOP ( 'NONE', ( #740, #716, #714, #708, #732, #726 ) ) ;
#1118 = EDGE_LOOP ( 'NONE', ( #660, #664, #639, #635 ) ) ;
#1119 = EDGE_LOOP ( 'NONE', ( #579, #551, #615, #565, #543, #593 ) ) ;
#1120 = PERSON ( 'UNSPECIFIED', 'UNSPECIFIED', 'UNSPECIFIED', ('UNSPECIFIED'), ('UNSPECIFIED'), ('UNSPECIFIED') ) ;
#1121 = PRODUCT ( 'ALP0660', 'ALP0660', '', ( #23 ) ) ;
#1122 = AXIS2_PLACEMENT_3D ( 'NONE', #76, #46, #51 ) ;
#1123 = EDGE_CURVE ( 'NONE', #802, #795, #914, .T. ) ;
#1124 = EDGE_CURVE ( 'NONE', #826, #798, #908, .T. ) ;
#1125 = AXIS2_PLACEMENT_3D ( 'NONE', #92, #107, #96 ) ;
#1126 = AXIS2_PLACEMENT_3D ( 'NONE', #93, #90, #106 ) ;
#1127 = EDGE_CURVE ( 'NONE', #811, #799, #904, .T. ) ;
#1128 = AXIS2_PLACEMENT_3D ( 'NONE', #114, #91, #105 ) ;
#1129 = AXIS2_PLACEMENT_3D ( 'NONE', #77, #78, #79 ) ;
#1130 = EDGE_CURVE ( 'NONE', #766, #824, #939, .T. ) ;
#1131 = EDGE_CURVE ( 'NONE', #764, #805, #949, .T. ) ;
#1132 = AXIS2_PLACEMENT_3D ( 'NONE', #70, #66, #63 ) ;
#1133 = AXIS2_PLACEMENT_3D ( 'NONE', #60, #61, #53 ) ;
#1134 = EDGE_CURVE ( 'NONE', #799, #837, #912, .T. ) ;
#1135 = EDGE_CURVE ( 'NONE', #818, #825, #929, .T. ) ;
#1136 = EDGE_CURVE ( 'NONE', #821, #841, #927, .T. ) ;
#1137 = EDGE_CURVE ( 'NONE', #807, #833, #909, .T. ) ;
#1138 = EDGE_CURVE ( 'NONE', #803, #826, #928, .T. ) ;
#1139 = EDGE_CURVE ( 'NONE', #816, #834, #941, .T. ) ;
#1140 = EDGE_CURVE ( 'NONE', #835, #834, #930, .T. ) ;
#1141 = EDGE_CURVE ( 'NONE', #769, #840, #1326, .T. ) ;
#1142 = AXIS2_PLACEMENT_3D ( 'NONE', #80, #59, #64 ) ;
#1143 = EDGE_CURVE ( 'NONE', #807, #811, #932, .T. ) ;
#1144 = EDGE_CURVE ( 'NONE', #797, #831, #942, .T. ) ;
#1145 = AXIS2_PLACEMENT_3D ( 'NONE', #58, #81, #73 ) ;
#1146 = AXIS2_PLACEMENT_3D ( 'NONE', #49, #55, #68 ) ;
#1147 = AXIS2_PLACEMENT_3D ( 'NONE', #115, #97, #100 ) ;
#1148 = EDGE_CURVE ( 'NONE', #815, #837, #926, .T. ) ;
#1149 = AXIS2_PLACEMENT_3D ( 'NONE', #54, #62, #65 ) ;
#1150 = AXIS2_PLACEMENT_3D ( 'NONE', #85, #89, #110 ) ;
#1151 = EDGE_CURVE ( 'NONE', #831, #816, #933, .T. ) ;
#1152 = EDGE_CURVE ( 'NONE', #831, #835, #910, .T. ) ;
#1153 = EDGE_CURVE ( 'NONE', #804, #845, #902, .T. ) ;
#1154 = EDGE_CURVE ( 'NONE', #815, #804, #905, .T. ) ;
#1155 = EDGE_CURVE ( 'NONE', #810, #779, #924, .T. ) ;
#1156 = EDGE_CURVE ( 'NONE', #830, #791, #1327, .T. ) ;
#1157 = AXIS2_PLACEMENT_3D ( 'NONE', #94, #112, #113 ) ;
#1158 = EDGE_CURVE ( 'NONE', #804, #843, #916, .T. ) ;
#1159 = EDGE_CURVE ( 'NONE', #837, #806, #903, .T. ) ;
#1160 = EDGE_CURVE ( 'NONE', #841, #825, #934, .T. ) ;
#1161 = EDGE_CURVE ( 'NONE', #827, #835, #917, .T. ) ;
#1162 = AXIS2_PLACEMENT_3D ( 'NONE', #69, #74, #50 ) ;
#1163 = AXIS2_PLACEMENT_3D ( 'NONE', #108, #99, #101 ) ;
#1164 = AXIS2_PLACEMENT_3D ( 'NONE', #102, #111, #88 ) ;
#1165 = EDGE_CURVE ( 'NONE', #797, #827, #947, .T. ) ;
#1166 = AXIS2_PLACEMENT_3D ( 'NONE', #158, #126, #143 ) ;
#1167 = EDGE_CURVE ( 'NONE', #798, #833, #923, .T. ) ;
#1168 = EDGE_CURVE ( 'NONE', #834, #819, #920, .T. ) ;
#1169 = AXIS2_PLACEMENT_3D ( 'NONE', #52, #71, #75 ) ;
#1170 = EDGE_CURVE ( 'NONE', #789, #812, #925, .T. ) ;
#1171 = EDGE_CURVE ( 'NONE', #819, #798, #950, .T. ) ;
#1172 = AXIS2_PLACEMENT_3D ( 'NONE', #168, #196, #207 ) ;
#1173 = AXIS2_PLACEMENT_3D ( 'NONE', #1, #2, #4 ) ;
#1174 = AXIS2_PLACEMENT_3D ( 'NONE', #173, #169, #193 ) ;
#1175 = AXIS2_PLACEMENT_3D ( 'NONE', #263, #269, #271 ) ;
#1176 = AXIS2_PLACEMENT_3D ( 'NONE', #360, #357, #362 ) ;
#1177 = APPROVAL ( #40, 'UNSPECIFIED' ) ;
#1178 = AXIS2_PLACEMENT_3D ( 'NONE', #170, #176, #181 ) ;
#1179 = AXIS2_PLACEMENT_3D ( 'NONE', #148, #135, #141 ) ;
#1180 = AXIS2_PLACEMENT_3D ( 'NONE', #438, #441, #445 ) ;
#1181 = AXIS2_PLACEMENT_3D ( 'NONE', #84, #83, #95 ) ;
#1182 = AXIS2_PLACEMENT_3D ( 'NONE', #163, #162, #179 ) ;
#1183 = AXIS2_PLACEMENT_3D ( 'NONE', #485, #486, #472 ) ;
#1184 = AXIS2_PLACEMENT_3D ( 'NONE', #3, #12, #5 ) ;
#1185 = AXIS2_PLACEMENT_3D ( 'NONE', #160, #122, #144 ) ;
#1186 = AXIS2_PLACEMENT_3D ( 'NONE', #19, #20, #31 ) ;
#1187 = AXIS2_PLACEMENT_3D ( 'NONE', #17, #32, #38 ) ;
#1188 = AXIS2_PLACEMENT_3D ( 'NONE', #129, #117, #127 ) ;
#1189 = AXIS2_PLACEMENT_3D ( 'NONE', #120, #156, #145 ) ;
#1190 = AXIS2_PLACEMENT_3D ( 'NONE', #172, #190, #191 ) ;
#1191 = AXIS2_PLACEMENT_3D ( 'NONE', #261, #274, #272 ) ;
#1192 = AXIS2_PLACEMENT_3D ( 'NONE', #322, #323, #339 ) ;
#1193 = AXIS2_PLACEMENT_3D ( 'NONE', #335, #340, #337 ) ;
#1194 = AXIS2_PLACEMENT_3D ( 'NONE', #140, #136, #142 ) ;
#1195 = AXIS2_PLACEMENT_3D ( 'NONE', #119, #133, #121 ) ;
#1196 = AXIS2_PLACEMENT_3D ( 'NONE', #125, #152, #146 ) ;
#1197 = AXIS2_PLACEMENT_3D ( 'NONE', #116, #134, #147 ) ;
#1198 = AXIS2_PLACEMENT_3D ( 'NONE', #348, #358, #347 ) ;
#1199 = AXIS2_PLACEMENT_3D ( 'NONE', #130, #154, #118 ) ;
#1200 = AXIS2_PLACEMENT_3D ( 'NONE', #151, #128, #153 ) ;
#1201 = AXIS2_PLACEMENT_3D ( 'NONE', #397, #398, #364 ) ;
#1202 = AXIS2_PLACEMENT_3D ( 'NONE', #428, #434, #414 ) ;
#1203 = AXIS2_PLACEMENT_3D ( 'NONE', #393, #377, #379 ) ;
#1204 = AXIS2_PLACEMENT_3D ( 'NONE', #447, #446, #448 ) ;
#1205 = AXIS2_PLACEMENT_3D ( 'NONE', #204, #180, #192 ) ;
#1206 = AXIS2_PLACEMENT_3D ( 'NONE', #206, #177, #175 ) ;
#1207 = AXIS2_PLACEMENT_3D ( 'NONE', #321, #330, #331 ) ;
#1208 = AXIS2_PLACEMENT_3D ( 'NONE', #149, #161, #131 ) ;
#1209 = AXIS2_PLACEMENT_3D ( 'NONE', #297, #292, #307 ) ;
#1210 = AXIS2_PLACEMENT_3D ( 'NONE', #462, #465, #475 ) ;
#1211 = AXIS2_PLACEMENT_3D ( 'NONE', #155, #138, #132 ) ;
#1212 = AXIS2_PLACEMENT_3D ( 'NONE', #319, #320, #327 ) ;
#1213 = AXIS2_PLACEMENT_3D ( 'NONE', #8, #15, #6 ) ;
#1214 = CC_DESIGN_PERSON_AND_ORGANIZATION_ASSIGNMENT ( #1060, #43, ( #1121 ) ) ;
#1215 = AXIS2_PLACEMENT_3D ( 'NONE', #249, #212, #250 ) ;
#1216 = PRODUCT_DEFINITION ( 'UNKNOWN', '', #1220, #542 ) ;
#1217 = CC_DESIGN_APPROVAL ( #1177, ( #1216 ) ) ;
#1218 = CC_DESIGN_PERSON_AND_ORGANIZATION_ASSIGNMENT ( #1064, #41, ( #1216 ) ) ;
#1219 = CC_DESIGN_DATE_AND_TIME_ASSIGNMENT ( #1067, #42, ( #1216 ) ) ;
#1220 = PRODUCT_DEFINITION_FORMATION_WITH_SPECIFIED_SOURCE ( 'ANY', '', #1121, .NOT_KNOWN. ) ;
#1221 = AXIS2_PLACEMENT_3D ( 'NONE', #432, #420, #412 ) ;
#1222 = AXIS2_PLACEMENT_3D ( 'NONE', #7, #13, #14 ) ;
#1223 =( GEOMETRIC_REPRESENTATION_CONTEXT ( 3 ) GLOBAL_UNCERTAINTY_ASSIGNED_CONTEXT ( ( #1330 ) ) GLOBAL_UNIT_ASSIGNED_CONTEXT ( ( #22, #27, #37 ) ) REPRESENTATION_CONTEXT ( 'NONE', 'WORKASPACE' ) );
#1224 = AXIS2_PLACEMENT_3D ( 'NONE', #471, #492, #473 ) ;
#1225 = CC_DESIGN_APPROVAL ( #1226, ( #1220 ) ) ;
#1226 = APPROVAL ( #25, 'UNSPECIFIED' ) ;
#1227 = CC_DESIGN_SECURITY_CLASSIFICATION ( #1231, ( #1220 ) ) ;
#1228 = CC_DESIGN_PERSON_AND_ORGANIZATION_ASSIGNMENT ( #1089, #35, ( #1220 ) ) ;
#1229 = APPROVAL ( #24, 'UNSPECIFIED' ) ;
#1230 = PRODUCT_RELATED_PRODUCT_CATEGORY ( 'detail', '', ( #1121 ) ) ;
#1231 = SECURITY_CLASSIFICATION ( '', '', #39 ) ;
#1232 = CC_DESIGN_PERSON_AND_ORGANIZATION_ASSIGNMENT ( #1077, #21, ( #1231 ) ) ;
#1233 = CC_DESIGN_DATE_AND_TIME_ASSIGNMENT ( #1092, #30, ( #1231 ) ) ;
#1234 = CC_DESIGN_APPROVAL ( #1229, ( #1231 ) ) ;
#1235 = CC_DESIGN_PERSON_AND_ORGANIZATION_ASSIGNMENT ( #1085, #26, ( #1220 ) ) ;
#1236 = EDGE_CURVE ( 'NONE', #829, #787, #954, .T. ) ;
#1237 = EDGE_CURVE ( 'NONE', #766, #764, #961, .T. ) ;
#1238 = EDGE_CURVE ( 'NONE', #779, #810, #972, .T. ) ;
#1239 = EDGE_CURVE ( 'NONE', #824, #766, #1003, .T. ) ;
#1240 = EDGE_CURVE ( 'NONE', #791, #814, #1312, .T. ) ;
#1241 = EDGE_CURVE ( 'NONE', #824, #805, #992, .T. ) ;
#1242 = EDGE_CURVE ( 'NONE', #771, #844, #979, .T. ) ;
#1243 = EDGE_CURVE ( 'NONE', #845, #769, #1313, .T. ) ;
#1244 = EDGE_CURVE ( 'NONE', #830, #832, #993, .T. ) ;
#1245 = EDGE_CURVE ( 'NONE', #782, #794, #1000, .T. ) ;
#1246 = EDGE_CURVE ( 'NONE', #787, #806, #980, .T. ) ;
#1247 = EDGE_CURVE ( 'NONE', #822, #832, #981, .T. ) ;
#1248 = EDGE_CURVE ( 'NONE', #806, #823, #963, .T. ) ;
#1249 = EDGE_CURVE ( 'NONE', #790, #792, #1315, .T. ) ;
#1250 = EDGE_CURVE ( 'NONE', #789, #771, #973, .T. ) ;
#1251 = EDGE_CURVE ( 'NONE', #802, #772, #994, .T. ) ;
#1252 = EDGE_CURVE ( 'NONE', #764, #791, #995, .T. ) ;
#1253 = EDGE_CURVE ( 'NONE', #822, #1095, #1324, .T. ) ;
#1254 = EDGE_CURVE ( 'NONE', #768, #787, #1328, .T. ) ;
#1255 = EDGE_CURVE ( 'NONE', #810, #789, #996, .T. ) ;
#1256 = EDGE_CURVE ( 'NONE', #822, #813, #985, .T. ) ;
#1257 = EDGE_CURVE ( 'NONE', #828, #800, #997, .T. ) ;
#1258 = EDGE_CURVE ( 'NONE', #809, #781, #967, .T. ) ;
#1259 = EDGE_CURVE ( 'NONE', #842, #768, #1329, .T. ) ;
#1260 = EDGE_CURVE ( 'NONE', #828, #771, #1323, .T. ) ;
#1261 = EDGE_CURVE ( 'NONE', #828, #813, #987, .T. ) ;
#1262 = EDGE_CURVE ( 'NONE', #772, #1095, #956, .T. ) ;
#1263 = EDGE_CURVE ( 'NONE', #794, #781, #976, .T. ) ;
#1264 = EDGE_CURVE ( 'NONE', #809, #844, #990, .T. ) ;
#1265 = EDGE_CURVE ( 'NONE', #795, #774, #989, .T. ) ;
#1266 = EDGE_CURVE ( 'NONE', #812, #792, #1001, .T. ) ;
#1267 = EDGE_CURVE ( 'NONE', #805, #769, #974, .T. ) ;
#1268 = EDGE_CURVE ( 'NONE', #786, #829, #965, .T. ) ;
#1269 = EDGE_CURVE ( 'NONE', #779, #812, #960, .T. ) ;
#1270 = EDGE_CURVE ( 'NONE', #783, #808, #1322, .T. ) ;
#1271 = EDGE_CURVE ( 'NONE', #805, #764, #999, .T. ) ;
#1272 = EDGE_CURVE ( 'NONE', #836, #818, #968, .T. ) ;
#1273 = EDGE_CURVE ( 'NONE', #781, #768, #1005, .T. ) ;
#1274 = EDGE_CURVE ( 'NONE', #783, #817, #971, .T. ) ;
#1275 = EDGE_CURVE ( 'NONE', #844, #800, #1316, .T. ) ;
#1276 = EDGE_CURVE ( 'NONE', #821, #818, #977, .T. ) ;
#1277 = EDGE_CURVE ( 'NONE', #771, #786, #1325, .T. ) ;
#1278 = EDGE_CURVE ( 'NONE', #774, #808, #1036, .T. ) ;
#1279 = EDGE_CURVE ( 'NONE', #820, #840, #1038, .T. ) ;
#1280 = EDGE_CURVE ( 'NONE', #845, #814, #1020, .T. ) ;
#1281 = EDGE_CURVE ( 'NONE', #792, #813, #1317, .T. ) ;
#1282 = EDGE_CURVE ( 'NONE', #829, #844, #1318, .T. ) ;
#1283 = EDGE_CURVE ( 'NONE', #841, #797, #1024, .T. ) ;
#1284 = EDGE_CURVE ( 'NONE', #842, #800, #1028, .T. ) ;
#1285 = EDGE_CURVE ( 'NONE', #820, #821, #1016, .T. ) ;
#1286 = EDGE_CURVE ( 'NONE', #774, #772, #1032, .T. ) ;
#1287 = EDGE_CURVE ( 'NONE', #811, #815, #1022, .T. ) ;
#1288 = EDGE_CURVE ( 'NONE', #808, #832, #1320, .T. ) ;
#1289 = EDGE_CURVE ( 'NONE', #843, #769, #1034, .T. ) ;
#1290 = EDGE_CURVE ( 'NONE', #842, #836, #1040, .T. ) ;
#1291 = EDGE_CURVE ( 'NONE', #795, #802, #1044, .T. ) ;
#1292 = EDGE_CURVE ( 'NONE', #1095, #792, #1013, .T. ) ;
#1293 = EDGE_CURVE ( 'NONE', #816, #803, #1042, .T. ) ;
#1294 = EDGE_CURVE ( 'NONE', #823, #836, #1043, .T. ) ;
#1295 = EDGE_CURVE ( 'NONE', #791, #808, #1047, .T. ) ;
#1296 = EDGE_CURVE ( 'NONE', #833, #799, #1025, .T. ) ;
#1297 = EDGE_CURVE ( 'NONE', #830, #840, #1031, .T. ) ;
#1298 = EDGE_CURVE ( 'NONE', #843, #820, #1029, .T. ) ;
#1299 = EDGE_CURVE ( 'NONE', #826, #807, #1057, .T. ) ;
#1300 = EDGE_CURVE ( 'NONE', #782, #809, #1027, .T. ) ;
#1301 = EDGE_CURVE ( 'NONE', #768, #823, #1033, .T. ) ;
#1302 = EDGE_CURVE ( 'NONE', #825, #827, #1049, .T. ) ;
#1303 = EDGE_CURVE ( 'NONE', #1095, #817, #1319, .T. ) ;
#1304 = EDGE_CURVE ( 'NONE', #790, #786, #1050, .T. ) ;
#1305 = EDGE_CURVE ( 'NONE', #772, #774, #1035, .T. ) ;
#1306 = EDGE_CURVE ( 'NONE', #812, #789, #1009, .T. ) ;
#1307 = EDGE_CURVE ( 'NONE', #794, #782, #1056, .T. ) ;
#1308 = EDGE_CURVE ( 'NONE', #814, #783, #1052, .T. ) ;
#1309 = EDGE_CURVE ( 'NONE', #817, #790, #1017, .T. ) ;
#1310 = EDGE_CURVE ( 'NONE', #803, #819, #1054, .T. ) ;
#1311 = EDGE_CURVE ( 'NONE', #781, #809, #1051, .T. ) ;
#1312 = B_SPLINE_CURVE_WITH_KNOTS ( 'NONE', 3,
 ( #329, #317, #318, #325 ),
 .UNSPECIFIED., .F., .F.,
 ( 4, 4 ),
 ( 3.461328779216641700E-007, 0.0008430339703967642200 ),
 .UNSPECIFIED. ) ;
#1313 = B_SPLINE_CURVE_WITH_KNOTS ( 'NONE', 3,
 ( #359, #342, #355, #343 ),
 .UNSPECIFIED., .F., .F.,
 ( 4, 4 ),
 ( 3.294101292486491400E-007, 0.0008430172476480937100 ),
 .UNSPECIFIED. ) ;
#1314 = MANIFOLD_SOLID_BREP ( 'M6 Tapped Hole1', #757 ) ;
#1315 = B_SPLINE_CURVE_WITH_KNOTS ( 'NONE', 3,
 ( #361, #341, #389, #375 ),
 .UNSPECIFIED., .F., .F.,
 ( 4, 4 ),
 ( 3.294101292504085900E-007, 0.0008430172476480937100 ),
 .UNSPECIFIED. ) ;
#1316 = B_SPLINE_CURVE_WITH_KNOTS ( 'NONE', 3,
 ( #411, #427, #421, #433 ),
 .UNSPECIFIED., .F., .F.,
 ( 4, 4 ),
 ( 3.461328779183408400E-007, 0.0008430339703967614000 ),
 .UNSPECIFIED. ) ;
#1317 = B_SPLINE_CURVE_WITH_KNOTS ( 'NONE', 3,
 ( #442, #443, #456, #440 ),
 .UNSPECIFIED., .F., .F.,
 ( 4, 4 ),
 ( 3.461328779207930500E-007, 0.0008430339703967628100 ),
 .UNSPECIFIED. ) ;
#1318 = B_SPLINE_CURVE_WITH_KNOTS ( 'NONE', 3,
 ( #436, #454, #457, #458 ),
 .UNSPECIFIED., .F., .F.,
 ( 4, 4 ),
 ( 3.294101292505365400E-007, 0.0008430172476480944600 ),
 .UNSPECIFIED. ) ;
#1319 = B_SPLINE_CURVE_WITH_KNOTS ( 'NONE', 3,
 ( #483, #496, #497, #501 ),
 .UNSPECIFIED., .F., .F.,
 ( 4, 4 ),
 ( 3.461328779225087200E-007, 0.0008430339703967655200 ),
 .UNSPECIFIED. ) ;
#1320 = B_SPLINE_CURVE_WITH_KNOTS ( 'NONE', 3,
 ( #450, #439, #480, #495 ),
 .UNSPECIFIED., .F., .F.,
 ( 4, 4 ),
 ( 3.461328779211485400E-007, 0.0008430339703967632500 ),
 .UNSPECIFIED. ) ;
#1321 = ADVANCED_BREP_SHAPE_REPRESENTATION ( 'ALP0660', ( #1314, #1187 ), #1223 ) ;
#1322 = B_SPLINE_CURVE_WITH_KNOTS ( 'NONE', 3,
 ( #437, #426, #419, #431 ),
 .UNSPECIFIED., .F., .F.,
 ( 4, 4 ),
 ( 3.294101292509571500E-007, 0.0008430172476480937100 ),
 .UNSPECIFIED. ) ;
#1323 = B_SPLINE_CURVE_WITH_KNOTS ( 'NONE', 3,
 ( #378, #395, #387, #368 ),
 .UNSPECIFIED., .F., .F.,
 ( 4, 4 ),
 ( 3.294101292508163800E-007, 0.0008430172476480916500 ),
 .UNSPECIFIED. ) ;
#1324 = B_SPLINE_CURVE_WITH_KNOTS ( 'NONE', 3,
 ( #372, #392, #365, #374 ),
 .UNSPECIFIED., .F., .F.,
 ( 4, 4 ),
 ( 3.294101292508163800E-007, 0.0008430172476480915400 ),
 .UNSPECIFIED. ) ;
#1325 = B_SPLINE_CURVE_WITH_KNOTS ( 'NONE', 3,
 ( #415, #416, #425, #423 ),
 .UNSPECIFIED., .F., .F.,
 ( 4, 4 ),
 ( 3.461328779226214200E-007, 0.0008430339703967654200 ),
 .UNSPECIFIED. ) ;
#1326 = B_SPLINE_CURVE_WITH_KNOTS ( 'NONE', 3,
 ( #281, #265, #284, #285 ),
 .UNSPECIFIED., .F., .F.,
 ( 4, 4 ),
 ( 3.461328779234550600E-007, 0.0008430339703967678000 ),
 .UNSPECIFIED. ) ;
#1327 = B_SPLINE_CURVE_WITH_KNOTS ( 'NONE', 3,
 ( #305, #301, #299, #302 ),
 .UNSPECIFIED., .F., .F.,
 ( 4, 4 ),
 ( 3.294101292490237400E-007, 0.0008430172476480916500 ),
 .UNSPECIFIED. ) ;
#1328 = B_SPLINE_CURVE_WITH_KNOTS ( 'NONE', 3,
 ( #384, #373, #363, #390 ),
 .UNSPECIFIED., .F., .F.,
 ( 4, 4 ),
 ( 3.461328779271611500E-007, 0.0008430339703967697500 ),
 .UNSPECIFIED. ) ;
#1329 = B_SPLINE_CURVE_WITH_KNOTS ( 'NONE', 3,
 ( #380, #391, #381, #382 ),
 .UNSPECIFIED., .F., .F.,
 ( 4, 4 ),
 ( 3.294101292485084300E-007, 0.0008430172476480829700 ),
 .UNSPECIFIED. ) ;
#1330 = UNCERTAINTY_MEASURE_WITH_UNIT (LENGTH_MEASURE( 1.000000000000000100E-005 ), #22, 'distance_accuracy_value', 'NONE');
ENDSEC;
END-ISO-10303-21;
