ISO-10303-21;
HEADER;
FILE_DESCRIPTION (( 'STEP AP203' ),
    '1' );
FILE_NAME ('ALP0654.STEP',
    '2017-02-02T13:00:24',
    ( '' ),
    ( '' ),
    'SwSTEP 2.0',
    'SolidWorks 2012',
    '' );
FILE_SCHEMA (( 'CONFIG_CONTROL_DESIGN' ));
ENDSEC;

DATA;
#1 = DIRECTION ( 'NONE',  ( -0.0000000000000000000, -0.0000000000000000000, -1.000000000000000000 ) ) ;
#2 = DIRECTION ( 'NONE',  ( -0.0000000000000000000, -0.0000000000000000000, -1.000000000000000000 ) ) ;
#3 = CARTESIAN_POINT ( 'NONE',  ( 9.800000000000000700, 7.500000000000000000, -32.50000000000000000 ) ) ;
#4 = CARTESIAN_POINT ( 'NONE',  ( 0.3302917213469117600, 0.1697082786530924600, -26.34403664077161300 ) ) ;
#5 = DIRECTION ( 'NONE',  ( -0.7071067811865396900, 0.7071067811865553400, 0.0000000000000000000 ) ) ;
#6 = CARTESIAN_POINT ( 'NONE',  ( 1.224646799147351300E-015, 0.0000000000000000000, -22.50000000000000000 ) ) ;
#7 = CARTESIAN_POINT ( 'NONE',  ( 1.224646799147351300E-015, 0.0000000000000000000, 18.47499999999999800 ) ) ;
#8 = DIRECTION ( 'NONE',  ( 0.0000000000000000000, -0.7071067811865468000, -0.7071067811865483500 ) ) ;
#9 = DIRECTION ( 'NONE',  ( -1.000000000000000000, 0.0000000000000000000, 0.0000000000000000000 ) ) ;
#10 = DIRECTION ( 'NONE',  ( 0.0000000000000000000, 0.0000000000000000000, -1.000000000000000000 ) ) ;
#11 = CARTESIAN_POINT ( 'NONE',  ( 0.1633496420033412100, 0.3366503579966672000, -18.81165035799666200 ) ) ;
#12 = CARTESIAN_POINT ( 'NONE',  ( 1.622022597038810800E-015, 0.5000000000000106600, 26.02499999999998800 ) ) ;
#13 = CARTESIAN_POINT ( 'NONE',  ( 0.1633496420033411200, 0.3366503579966672000, -26.18834964200333800 ) ) ;
#14 = CARTESIAN_POINT ( 'NONE',  ( -4.900000000000000400, 0.0000000000000000000, 32.50000000000000000 ) ) ;
#15 = CARTESIAN_POINT ( 'NONE',  ( 0.3302917213469118700, 0.1697082786530924600, -18.65596335922838400 ) ) ;
#16 = CARTESIAN_POINT ( 'NONE',  ( 0.5000000000000001100, 0.0000000000000000000, -18.50617664386618000 ) ) ;
#17 = CARTESIAN_POINT ( 'NONE',  ( -0.5000000000000001100, 0.0000000000000000000, 32.50000000000000000 ) ) ;
#18 = DIRECTION ( 'NONE',  ( -0.0000000000000000000, -1.000000000000000000, -0.0000000000000000000 ) ) ;
#19 = CARTESIAN_POINT ( 'NONE',  ( 1.636992304707930000E-015, 0.5000000000000106600, -26.02499999999998800 ) ) ;
#20 = CARTESIAN_POINT ( 'NONE',  ( -0.5000000000000001100, 0.0000000000000000000, 26.49382335613381700 ) ) ;
#21 = DIRECTION ( 'NONE',  ( 0.0000000000000000000, 0.0000000000000000000, -1.000000000000000000 ) ) ;
#22 = CARTESIAN_POINT ( 'NONE',  ( 1.224646799147351300E-015, 0.6250000000000005600, 22.50000000000000000 ) ) ;
#23 = DIRECTION ( 'NONE',  ( -0.0000000000000000000, -1.000000000000000000, -0.0000000000000000000 ) ) ;
#24 = DIRECTION ( 'NONE',  ( 0.0000000000000000000, 0.0000000000000000000, -1.000000000000000000 ) ) ;
#25 = CARTESIAN_POINT ( 'NONE',  ( -0.1633496420033391800, 0.3366503579966674300, 26.18834964200333500 ) ) ;
#26 = DIRECTION ( 'NONE',  ( -0.0000000000000000000, -1.000000000000000000, -0.0000000000000000000 ) ) ;
#27 = CARTESIAN_POINT ( 'NONE',  ( 1.224646799147351300E-015, 0.0000000000000000000, 22.50000000000000000 ) ) ;
#28 = CARTESIAN_POINT ( 'NONE',  ( -0.3302917213469109800, 0.1697082786530924900, 26.34403664077161300 ) ) ;
#29 = DIRECTION ( 'NONE',  ( 1.000000000000000000, -0.0000000000000000000, -0.0000000000000000000 ) ) ;
#30 = CARTESIAN_POINT ( 'NONE',  ( 1.622022597038810800E-015, 0.5000000000000106600, -18.97500000000000900 ) ) ;
#31 = CARTESIAN_POINT ( 'NONE',  ( -0.5000000000000001100, 0.0000000000000000000, 32.50000000000000000 ) ) ;
#32 = CARTESIAN_POINT ( 'NONE',  ( 6.800000000000068200, 10.49999999999999800, -32.50000000000000000 ) ) ;
#33 = DIRECTION ( 'NONE',  ( -0.0000000000000000000, -0.0000000000000000000, -1.000000000000000000 ) ) ;
#34 = CARTESIAN_POINT ( 'NONE',  ( -9.800000000000000700, 7.500000000000000000, 32.50000000000000000 ) ) ;
#35 = DIRECTION ( 'NONE',  ( -0.0000000000000000000, -1.000000000000000000, -0.0000000000000000000 ) ) ;
#36 = CARTESIAN_POINT ( 'NONE',  ( -4.900000000000000400, 0.0000000000000000000, -32.50000000000000000 ) ) ;
#37 = DIRECTION ( 'NONE',  ( -0.0000000000000000000, -0.0000000000000000000, -1.000000000000000000 ) ) ;
#38 = DIRECTION ( 'NONE',  ( 0.0000000000000000000, 0.0000000000000000000, -1.000000000000000000 ) ) ;
#39 = DIRECTION ( 'NONE',  ( -0.0000000000000000000, -0.0000000000000000000, -1.000000000000000000 ) ) ;
#40 = CARTESIAN_POINT ( 'NONE',  ( 6.800000000000068200, 10.49999999999999800, 32.50000000000000000 ) ) ;
#41 = DIRECTION ( 'NONE',  ( -0.0000000000000000000, -0.0000000000000000000, -1.000000000000000000 ) ) ;
#42 = CARTESIAN_POINT ( 'NONE',  ( -9.800000000000000700, 7.500000000000000000, 32.50000000000000000 ) ) ;
#43 = CARTESIAN_POINT ( 'NONE',  ( 0.5000000000000002200, 0.0000000000000000000, 18.50617664386618000 ) ) ;
#44 = CARTESIAN_POINT ( 'NONE',  ( -4.900000000000000400, 5.000000000000000000, 32.50000000000000000 ) ) ;
#45 = DIRECTION ( 'NONE',  ( -0.7071067811865394700, -0.7071067811865555700, -0.0000000000000000000 ) ) ;
#46 = DIRECTION ( 'NONE',  ( 1.000000000000000000, -0.0000000000000000000, -0.0000000000000000000 ) ) ;
#47 = CARTESIAN_POINT ( 'NONE',  ( 1.224646799147351300E-015, 0.6250000000000005600, -22.50000000000000000 ) ) ;
#48 = CARTESIAN_POINT ( 'NONE',  ( -6.800000000000070000, 10.49999999999999800, 32.50000000000000000 ) ) ;
#49 = DIRECTION ( 'NONE',  ( -0.0000000000000000000, -1.000000000000000000, -0.0000000000000000000 ) ) ;
#50 = DIRECTION ( 'NONE',  ( 1.000000000000000000, -0.0000000000000000000, -0.0000000000000000000 ) ) ;
#51 = DIRECTION ( 'NONE',  ( -0.0000000000000000000, -1.000000000000000000, -0.0000000000000000000 ) ) ;
#52 = DIRECTION ( 'NONE',  ( 0.0000000000000000000, 0.0000000000000000000, -1.000000000000000000 ) ) ;
#53 = CARTESIAN_POINT ( 'NONE',  ( 0.1633496420033411200, 0.3366503579966672000, 18.81165035799665800 ) ) ;
#54 = CARTESIAN_POINT ( 'NONE',  ( 1.224646799147351300E-015, 10.49999999999999800, -22.50000000000000000 ) ) ;
#55 = DIRECTION ( 'NONE',  ( 1.000000000000000000, -0.0000000000000000000, -0.0000000000000000000 ) ) ;
#56 = CARTESIAN_POINT ( 'NONE',  ( -4.900000000000000400, 0.0000000000000000000, 32.50000000000000000 ) ) ;
#57 = DIRECTION ( 'NONE',  ( -0.0000000000000000000, -0.0000000000000000000, -1.000000000000000000 ) ) ;
#58 = DIRECTION ( 'NONE',  ( -0.7071067811865396900, 0.7071067811865553400, 0.0000000000000000000 ) ) ;
#59 = CARTESIAN_POINT ( 'NONE',  ( -9.800000000000000700, 5.000000000000000000, 32.50000000000000000 ) ) ;
#60 = DIRECTION ( 'NONE',  ( -0.0000000000000000000, -1.000000000000000000, -0.0000000000000000000 ) ) ;
#61 = CARTESIAN_POINT ( 'NONE',  ( 9.800000000000000700, 7.500000000000000000, 32.50000000000000000 ) ) ;
#62 = CARTESIAN_POINT ( 'NONE',  ( 1.636992304707930000E-015, 0.5000000000000106600, 18.97500000000000900 ) ) ;
#63 = CARTESIAN_POINT ( 'NONE',  ( 1.224646799147351300E-015, 0.6250000000000005600, 22.50000000000000000 ) ) ;
#64 = DIRECTION ( 'NONE',  ( -0.0000000000000000000, -0.0000000000000000000, -1.000000000000000000 ) ) ;
#65 = DIRECTION ( 'NONE',  ( 0.0000000000000000000, 0.0000000000000000000, -1.000000000000000000 ) ) ;
#66 = CARTESIAN_POINT ( 'NONE',  ( -4.900000000000000400, 5.000000000000000000, -32.50000000000000000 ) ) ;
#67 = CARTESIAN_POINT ( 'NONE',  ( -0.5000000000000001100, 0.0000000000000000000, -32.50000000000000000 ) ) ;
#68 = DIRECTION ( 'NONE',  ( -0.0000000000000000000, -0.0000000000000000000, -1.000000000000000000 ) ) ;
#69 = CARTESIAN_POINT ( 'NONE',  ( 0.3302917213469117600, 0.1697082786530924600, 18.65596335922838400 ) ) ;
#70 = CARTESIAN_POINT ( 'NONE',  ( 1.224646799147351300E-015, 0.5000000000000111000, 32.50000000000000000 ) ) ;
#71 = DIRECTION ( 'NONE',  ( -0.0000000000000000000, -1.000000000000000000, -0.0000000000000000000 ) ) ;
#72 = APPLICATION_CONTEXT ( 'configuration controlled 3d designs of mechanical parts and assemblies' ) ;
#73 = APPLICATION_PROTOCOL_DEFINITION ( 'international standard', 'config_control_design', 1994, #105 ) ;
#74 = APPROVAL_STATUS ( 'not_yet_approved' ) ;
#75 = PERSON_AND_ORGANIZATION_ROLE ( 'design_supplier' ) ;
#76 = PERSON_AND_ORGANIZATION_ROLE ( 'classification_officer' ) ;
#77 = CARTESIAN_POINT ( 'NONE',  ( 6.800000000000068200, 10.49999999999999800, 32.50000000000000000 ) ) ;
#78 = APPROVAL_STATUS ( 'not_yet_approved' ) ;
#79 = APPROVAL_ROLE ( '' ) ;
#80 = CARTESIAN_POINT ( 'NONE',  ( -9.800000000000000700, 5.000000000000000000, -32.50000000000000000 ) ) ;
#81 = APPROVAL_ROLE ( '' ) ;
#82 = SECURITY_CLASSIFICATION_LEVEL ( 'unclassified' ) ;
#83 = DIRECTION ( 'NONE',  ( -0.0000000000000000000, -1.000000000000000000, -0.0000000000000000000 ) ) ;
#84 = CARTESIAN_POINT ( 'NONE',  ( 1.224646799147351300E-015, 10.49999999999999800, 22.50000000000000000 ) ) ;
#85 = DIRECTION ( 'NONE',  ( 0.0000000000000000000, 0.0000000000000000000, 1.000000000000000000 ) ) ;
#86 = DATE_TIME_ROLE ( 'creation_date' ) ;
#87 = DIRECTION ( 'NONE',  ( -0.0000000000000000000, -1.000000000000000000, -0.0000000000000000000 ) ) ;
#88 = CARTESIAN_POINT ( 'NONE',  ( -0.5000000000000001100, 0.0000000000000000000, 32.50000000000000000 ) ) ;
#89 = DIRECTION ( 'NONE',  ( -0.7071067811865394700, -0.7071067811865555700, -0.0000000000000000000 ) ) ;
#90 = CARTESIAN_POINT ( 'NONE',  ( -4.900000000000000400, 5.000000000000000000, 32.50000000000000000 ) ) ;
#91 = CARTESIAN_POINT ( 'NONE',  ( -9.800000000000000700, 7.500000000000000000, -32.50000000000000000 ) ) ;
#92 = CARTESIAN_POINT ( 'NONE',  ( -9.800000000000000700, 5.000000000000000000, 32.50000000000000000 ) ) ;
#93 = DIRECTION ( 'NONE',  ( 1.000000000000000000, 0.0000000000000000000, 0.0000000000000000000 ) ) ;
#94 = DIRECTION ( 'NONE',  ( -0.0000000000000000000, -0.0000000000000000000, -1.000000000000000000 ) ) ;
#95 =( NAMED_UNIT ( * ) PLANE_ANGLE_UNIT ( ) SI_UNIT ( $, .RADIAN. ) );
#96 = CARTESIAN_POINT ( 'NONE',  ( 0.0000000000000000000, 0.0000000000000000000, 0.0000000000000000000 ) ) ;
#97 = APPROVAL_STATUS ( 'not_yet_approved' ) ;
#98 = DIRECTION ( 'NONE',  ( -0.0000000000000000000, -0.0000000000000000000, -1.000000000000000000 ) ) ;
#99 = PERSON_AND_ORGANIZATION_ROLE ( 'creator' ) ;
#100 =( LENGTH_UNIT ( ) NAMED_UNIT ( * ) SI_UNIT ( .MILLI., .METRE. ) );
#101 = APPROVAL_ROLE ( '' ) ;
#102 = DIRECTION ( 'NONE',  ( 0.0000000000000000000, 0.0000000000000000000, -1.000000000000000000 ) ) ;
#103 = CARTESIAN_POINT ( 'NONE',  ( 1.224646799147351300E-015, 0.5000000000000111000, 32.50000000000000000 ) ) ;
#104 = PERSON_AND_ORGANIZATION_ROLE ( 'creator' ) ;
#105 = APPLICATION_CONTEXT ( 'configuration controlled 3d designs of mechanical parts and assemblies' ) ;
#106 = DATE_TIME_ROLE ( 'classification_date' ) ;
#107 = DIRECTION ( 'NONE',  ( -1.000000000000000000, 0.0000000000000000000, 0.0000000000000000000 ) ) ;
#108 = DIRECTION ( 'NONE',  ( -0.0000000000000000000, -1.000000000000000000, -0.0000000000000000000 ) ) ;
#109 = MECHANICAL_CONTEXT ( 'NONE', #105, 'mechanical' ) ;
#110 = APPLICATION_PROTOCOL_DEFINITION ( 'international standard', 'config_control_design', 1994, #72 ) ;
#111 = DIRECTION ( 'NONE',  ( -0.0000000000000000000, -0.0000000000000000000, -1.000000000000000000 ) ) ;
#112 = PERSON_AND_ORGANIZATION_ROLE ( 'design_owner' ) ;
#113 =( NAMED_UNIT ( * ) SI_UNIT ( $, .STERADIAN. ) SOLID_ANGLE_UNIT ( ) );
#114 = PLANE ( 'NONE',  #862 ) ;
#115 = CARTESIAN_POINT ( 'NONE',  ( 4.900000000000000400, 5.000000000000000000, 32.50000000000000000 ) ) ;
#116 = PLANE ( 'NONE',  #864 ) ;
#117 = DIRECTION ( 'NONE',  ( 0.7071067811865560100, 0.7071067811865391400, -0.0000000000000000000 ) ) ;
#118 = DIRECTION ( 'NONE',  ( -0.7071067811865391400, 0.7071067811865560100, 0.0000000000000000000 ) ) ;
#119 = DIRECTION ( 'NONE',  ( 0.0000000000000000000, 1.000000000000000000, 0.0000000000000000000 ) ) ;
#120 = CARTESIAN_POINT ( 'NONE',  ( 1.224646799147351300E-015, 0.5000000000000111000, 32.50000000000000000 ) ) ;
#121 = PLANE ( 'NONE',  #870 ) ;
#122 = PLANE ( 'NONE',  #851 ) ;
#123 = DIRECTION ( 'NONE',  ( -0.0000000000000000000, -1.000000000000000000, -0.0000000000000000000 ) ) ;
#124 = DIRECTION ( 'NONE',  ( 0.0000000000000000000, 1.000000000000000000, -0.0000000000000000000 ) ) ;
#125 = PLANE ( 'NONE',  #839 ) ;
#126 = DIRECTION ( 'NONE',  ( 0.0000000000000000000, 0.0000000000000000000, 1.000000000000000000 ) ) ;
#127 = PLANE ( 'NONE',  #859 ) ;
#128 = CARTESIAN_POINT ( 'NONE',  ( 1.224646799147351300E-015, 0.5000000000000111000, 32.50000000000000000 ) ) ;
#129 = DIRECTION ( 'NONE',  ( -1.000000000000000000, 0.0000000000000000000, 0.0000000000000000000 ) ) ;
#130 = CARTESIAN_POINT ( 'NONE',  ( 1.224646799147351300E-015, 0.0000000000000000000, 22.50000000000000000 ) ) ;
#131 = DIRECTION ( 'NONE',  ( 0.0000000000000000000, 0.0000000000000000000, -1.000000000000000000 ) ) ;
#132 = PLANE ( 'NONE',  #838 ) ;
#133 = DIRECTION ( 'NONE',  ( -0.7071067811865544600, 0.7071067811865406900, 0.0000000000000000000 ) ) ;
#134 = CARTESIAN_POINT ( 'NONE',  ( 1.224646799147351300E-015, 0.0000000000000000000, -22.50000000000000000 ) ) ;
#135 = DIRECTION ( 'NONE',  ( 0.0000000000000000000, 0.0000000000000000000, -1.000000000000000000 ) ) ;
#136 = CARTESIAN_POINT ( 'NONE',  ( -4.900000000000000400, 5.000000000000000000, 32.50000000000000000 ) ) ;
#137 = PLANE ( 'NONE',  #840 ) ;
#138 = DIRECTION ( 'NONE',  ( 0.0000000000000000000, 1.000000000000000000, -0.0000000000000000000 ) ) ;
#139 = DIRECTION ( 'NONE',  ( -0.0000000000000000000, -1.000000000000000000, -0.0000000000000000000 ) ) ;
#140 = DIRECTION ( 'NONE',  ( 0.7071067811865560100, 0.7071067811865391400, -0.0000000000000000000 ) ) ;
#141 = PLANE ( 'NONE',  #879 ) ;
#142 = DIRECTION ( 'NONE',  ( -1.000000000000000000, 0.0000000000000000000, 0.0000000000000000000 ) ) ;
#143 = CARTESIAN_POINT ( 'NONE',  ( -0.5000000000000001100, 0.0000000000000000000, 32.50000000000000000 ) ) ;
#144 = DIRECTION ( 'NONE',  ( -0.7071067811865406900, -0.7071067811865544600, 0.0000000000000000000 ) ) ;
#145 = DIRECTION ( 'NONE',  ( 0.0000000000000000000, 0.0000000000000000000, 1.000000000000000000 ) ) ;
#146 = CARTESIAN_POINT ( 'NONE',  ( 6.800000000000068200, 10.49999999999999800, 32.50000000000000000 ) ) ;
#147 = DIRECTION ( 'NONE',  ( 0.0000000000000000000, -1.000000000000000000, 0.0000000000000000000 ) ) ;
#148 = CARTESIAN_POINT ( 'NONE',  ( 1.224646799147351300E-015, 0.5000000000000111000, 32.50000000000000000 ) ) ;
#149 = DIRECTION ( 'NONE',  ( -0.7071067811865391400, 0.7071067811865560100, 0.0000000000000000000 ) ) ;
#150 = DIRECTION ( 'NONE',  ( 0.0000000000000000000, 0.0000000000000000000, -1.000000000000000000 ) ) ;
#151 = CARTESIAN_POINT ( 'NONE',  ( 9.800000000000000700, 5.000000000000000000, 32.50000000000000000 ) ) ;
#152 = DIRECTION ( 'NONE',  ( 0.0000000000000000000, -0.0000000000000000000, -1.000000000000000000 ) ) ;
#153 = DIRECTION ( 'NONE',  ( 0.0000000000000000000, -0.0000000000000000000, 1.000000000000000000 ) ) ;
#154 = DIRECTION ( 'NONE',  ( 0.0000000000000000000, 0.0000000000000000000, 1.000000000000000000 ) ) ;
#155 = PRODUCT ( 'ALP0654', 'ALP0654', '', ( #109 ) ) ;
#156 = CARTESIAN_POINT ( 'NONE',  ( 0.0000000000000000000, 0.0000000000000000000, 32.50000000000000000 ) ) ;
#157 = PLANE ( 'NONE',  #900 ) ;
#158 = CARTESIAN_POINT ( 'NONE',  ( 9.800000000000000700, 7.500000000000000000, 32.50000000000000000 ) ) ;
#159 = DIRECTION ( 'NONE',  ( -0.7071067811865553400, -0.7071067811865396900, 0.0000000000000000000 ) ) ;
#160 = DIRECTION ( 'NONE',  ( 0.0000000000000000000, 0.0000000000000000000, -1.000000000000000000 ) ) ;
#161 = CARTESIAN_POINT ( 'NONE',  ( 1.224646799147351300E-015, 0.0000000000000000000, -22.50000000000000000 ) ) ;
#162 = DIRECTION ( 'NONE',  ( 0.0000000000000000000, 0.0000000000000000000, -1.000000000000000000 ) ) ;
#163 = PLANE ( 'NONE',  #833 ) ;
#164 = DIRECTION ( 'NONE',  ( 0.7071067811865393600, 0.7071067811865555700, 0.0000000000000000000 ) ) ;
#165 = CARTESIAN_POINT ( 'NONE',  ( -9.800000000000000700, 5.000000000000000000, 32.50000000000000000 ) ) ;
#166 = DIRECTION ( 'NONE',  ( -1.000000000000000000, 0.0000000000000000000, 0.0000000000000000000 ) ) ;
#167 = DIRECTION ( 'NONE',  ( 0.0000000000000000000, 0.0000000000000000000, -1.000000000000000000 ) ) ;
#168 = DIRECTION ( 'NONE',  ( 0.7071067811865556800, -0.7071067811865394700, 0.0000000000000000000 ) ) ;
#169 = DIRECTION ( 'NONE',  ( 0.0000000000000000000, 0.0000000000000000000, -1.000000000000000000 ) ) ;
#170 = CARTESIAN_POINT ( 'NONE',  ( -4.900000000000000400, 0.0000000000000000000, 32.50000000000000000 ) ) ;
#171 = PLANE ( 'NONE',  #905 ) ;
#172 = CARTESIAN_POINT ( 'NONE',  ( 0.0000000000000000000, 0.0000000000000000000, -32.50000000000000000 ) ) ;
#173 = PLANE ( 'NONE',  #913 ) ;
#174 = DIRECTION ( 'NONE',  ( -0.0000000000000000000, -1.000000000000000000, -0.0000000000000000000 ) ) ;
#175 = DIRECTION ( 'NONE',  ( 0.0000000000000000000, 0.0000000000000000000, -1.000000000000000000 ) ) ;
#176 = CARTESIAN_POINT ( 'NONE',  ( 1.224646799147351300E-015, 0.5000000000000111000, 32.50000000000000000 ) ) ;
#177 = DIRECTION ( 'NONE',  ( 0.7071067811865396900, -0.7071067811865553400, 0.0000000000000000000 ) ) ;
#178 = DIRECTION ( 'NONE',  ( -1.000000000000000000, 0.0000000000000000000, 0.0000000000000000000 ) ) ;
#179 = DIRECTION ( 'NONE',  ( 0.0000000000000000000, 0.0000000000000000000, 1.000000000000000000 ) ) ;
#180 = DIRECTION ( 'NONE',  ( -0.0000000000000000000, -1.000000000000000000, -0.0000000000000000000 ) ) ;
#181 = PLANE ( 'NONE',  #916 ) ;
#182 = PLANE ( 'NONE',  #911 ) ;
#183 = CARTESIAN_POINT ( 'NONE',  ( 0.5000000000000001100, 0.0000000000000000000, 32.50000000000000000 ) ) ;
#184 = DIRECTION ( 'NONE',  ( 0.0000000000000000000, 0.0000000000000000000, -1.000000000000000000 ) ) ;
#185 = PLANE ( 'NONE',  #831 ) ;
#186 = PERSON ( 'UNSPECIFIED', 'UNSPECIFIED', 'UNSPECIFIED', ('UNSPECIFIED'), ('UNSPECIFIED'), ('UNSPECIFIED') ) ;
#187 = DIRECTION ( 'NONE',  ( 1.000000000000000000, 0.0000000000000000000, 0.0000000000000000000 ) ) ;
#188 = DIRECTION ( 'NONE',  ( 1.000000000000000000, 0.0000000000000000000, 0.0000000000000000000 ) ) ;
#189 = CARTESIAN_POINT ( 'NONE',  ( 1.224646799147351300E-015, 0.0000000000000000000, 22.50000000000000000 ) ) ;
#190 = CARTESIAN_POINT ( 'NONE',  ( 1.224646799147351300E-015, 0.5000000000000111000, 32.50000000000000000 ) ) ;
#191 = CARTESIAN_POINT ( 'NONE',  ( 1.224646799147351300E-015, 0.0000000000000000000, -22.50000000000000000 ) ) ;
#192 = PLANE ( 'NONE',  #860 ) ;
#193 = DIRECTION ( 'NONE',  ( -0.7071067811865544600, 0.7071067811865406900, 0.0000000000000000000 ) ) ;
#194 = CARTESIAN_POINT ( 'NONE',  ( 1.224646799147351300E-015, 0.0000000000000000000, 22.50000000000000000 ) ) ;
#195 = DIRECTION ( 'NONE',  ( 0.0000000000000000000, 0.0000000000000000000, -1.000000000000000000 ) ) ;
#196 = DIRECTION ( 'NONE',  ( 0.7071067811865560100, 0.7071067811865391400, -0.0000000000000000000 ) ) ;
#197 = PLANE ( 'NONE',  #863 ) ;
#198 = CARTESIAN_POINT ( 'NONE',  ( -9.800000000000000700, 7.500000000000000000, 32.50000000000000000 ) ) ;
#199 = DIRECTION ( 'NONE',  ( -0.0000000000000000000, -1.000000000000000000, -0.0000000000000000000 ) ) ;
#200 = DIRECTION ( 'NONE',  ( -0.0000000000000000000, -1.000000000000000000, -0.0000000000000000000 ) ) ;
#201 = DIRECTION ( 'NONE',  ( 0.0000000000000000000, 0.0000000000000000000, -1.000000000000000000 ) ) ;
#202 = DIRECTION ( 'NONE',  ( -0.7071067811865391400, 0.7071067811865560100, 0.0000000000000000000 ) ) ;
#203 = CARTESIAN_POINT ( 'NONE',  ( 4.900000000000000400, 0.0000000000000000000, 32.50000000000000000 ) ) ;
#204 = DIRECTION ( 'NONE',  ( -0.7071067811865406900, -0.7071067811865544600, 0.0000000000000000000 ) ) ;
#205 = DIRECTION ( 'NONE',  ( -0.0000000000000000000, -1.000000000000000000, -0.0000000000000000000 ) ) ;
#206 = CARTESIAN_POINT ( 'NONE',  ( 1.224646799147351300E-015, 0.0000000000000000000, -22.50000000000000000 ) ) ;
#207 = DIRECTION ( 'NONE',  ( -0.7071067811865406900, -0.7071067811865544600, 0.0000000000000000000 ) ) ;
#208 = CARTESIAN_POINT ( 'NONE',  ( 9.800000000000000700, 5.000000000000000000, 32.50000000000000000 ) ) ;
#209 = DIRECTION ( 'NONE',  ( 0.0000000000000000000, 1.000000000000000000, 0.0000000000000000000 ) ) ;
#210 = CARTESIAN_POINT ( 'NONE',  ( 9.800000000000000700, 7.500000000000000000, -32.50000000000000000 ) ) ;
#211 = CARTESIAN_POINT ( 'NONE',  ( 6.800000000000068200, 10.49999999999999800, 32.50000000000000000 ) ) ;
#212 = CARTESIAN_POINT ( 'NONE',  ( 9.800000000000000700, 5.000000000000000000, 32.50000000000000000 ) ) ;
#213 = CARTESIAN_POINT ( 'NONE',  ( 1.641026710857450900E-015, 10.49999999999999800, -19.10000000000000100 ) ) ;
#214 = DIRECTION ( 'NONE',  ( -0.0000000000000000000, -1.000000000000000000, -0.0000000000000000000 ) ) ;
#215 = CARTESIAN_POINT ( 'NONE',  ( 6.800000000000068200, 10.49999999999999800, -32.50000000000000000 ) ) ;
#216 = CARTESIAN_POINT ( 'NONE',  ( 9.800000000000000700, 5.000000000000000000, -32.50000000000000000 ) ) ;
#217 = CARTESIAN_POINT ( 'NONE',  ( 1.224646799147351300E-015, 10.49999999999999800, -25.89999999999999500 ) ) ;
#218 = CARTESIAN_POINT ( 'NONE',  ( -0.5000000000000005600, 0.0000000000000000000, -26.49382335613381700 ) ) ;
#219 = CARTESIAN_POINT ( 'NONE',  ( -4.900000000000000400, 0.0000000000000000000, -32.50000000000000000 ) ) ;
#220 = CARTESIAN_POINT ( 'NONE',  ( 1.679296923330806100E-015, 0.6250000000000005600, 25.89999999999999900 ) ) ;
#221 = CARTESIAN_POINT ( 'NONE',  ( -4.900000000000000400, 5.000000000000000000, -32.50000000000000000 ) ) ;
#222 = CARTESIAN_POINT ( 'NONE',  ( -9.800000000000000700, 5.000000000000000000, 32.50000000000000000 ) ) ;
#223 = CARTESIAN_POINT ( 'NONE',  ( 4.900000000000000400, 5.000000000000000000, -32.50000000000000000 ) ) ;
#224 = CARTESIAN_POINT ( 'NONE',  ( 1.636992304707930000E-015, 0.5000000000000106600, -26.02499999999998800 ) ) ;
#225 = DIRECTION ( 'NONE',  ( 0.0000000000000000000, 0.0000000000000000000, -1.000000000000000000 ) ) ;
#226 = CARTESIAN_POINT ( 'NONE',  ( 1.224646799147351300E-015, 0.0000000000000000000, 22.50000000000000000 ) ) ;
#227 = CARTESIAN_POINT ( 'NONE',  ( -4.900000000000000400, 5.000000000000000000, 32.50000000000000000 ) ) ;
#228 = CARTESIAN_POINT ( 'NONE',  ( 1.224646799147351300E-015, 0.5000000000000111000, 32.50000000000000000 ) ) ;
#229 = CARTESIAN_POINT ( 'NONE',  ( 4.900000000000000400, 5.000000000000000000, 32.50000000000000000 ) ) ;
#230 = CARTESIAN_POINT ( 'NONE',  ( 1.679296923330806100E-015, 0.6250000000000005600, -19.09999999999999800 ) ) ;
#231 = PLANE ( 'NONE',  #890 ) ;
#232 = CARTESIAN_POINT ( 'NONE',  ( 1.641026710857450900E-015, 10.49999999999999800, 25.89999999999999500 ) ) ;
#233 = CARTESIAN_POINT ( 'NONE',  ( 0.5000000000000001100, 0.0000000000000000000, 26.49382335613382000 ) ) ;
#234 = CARTESIAN_POINT ( 'NONE',  ( 4.900000000000000400, 0.0000000000000000000, 32.50000000000000000 ) ) ;
#235 = CARTESIAN_POINT ( 'NONE',  ( -4.900000000000000400, 0.0000000000000000000, 32.50000000000000000 ) ) ;
#236 = CARTESIAN_POINT ( 'NONE',  ( 0.5000000000000001100, 0.0000000000000000000, 32.50000000000000000 ) ) ;
#237 = CARTESIAN_POINT ( 'NONE',  ( 9.800000000000000700, 7.500000000000000000, 32.50000000000000000 ) ) ;
#238 = CARTESIAN_POINT ( 'NONE',  ( -6.800000000000070000, 10.49999999999999800, 32.50000000000000000 ) ) ;
#239 = CARTESIAN_POINT ( 'NONE',  ( -9.800000000000000700, 7.500000000000000000, -32.50000000000000000 ) ) ;
#240 = CARTESIAN_POINT ( 'NONE',  ( 1.224646799147351300E-015, 0.5000000000000111000, -32.50000000000000000 ) ) ;
#241 = DIRECTION ( 'NONE',  ( 0.0000000000000000000, 1.000000000000000000, 0.0000000000000000000 ) ) ;
#242 = CARTESIAN_POINT ( 'NONE',  ( -9.800000000000000700, 7.500000000000000000, 32.50000000000000000 ) ) ;
#243 = CARTESIAN_POINT ( 'NONE',  ( 0.5000000000000001100, 0.0000000000000000000, -18.50617664386618000 ) ) ;
#244 = CARTESIAN_POINT ( 'NONE',  ( -6.800000000000070000, 10.49999999999999800, -32.50000000000000000 ) ) ;
#245 = CARTESIAN_POINT ( 'NONE',  ( -0.5000000000000001100, 0.0000000000000000000, 32.50000000000000000 ) ) ;
#246 = CARTESIAN_POINT ( 'NONE',  ( 1.622022597038810800E-015, 0.5000000000000106600, 26.02499999999998800 ) ) ;
#247 = CARTESIAN_POINT ( 'NONE',  ( 1.622022597038810800E-015, 0.5000000000000106600, -18.97500000000000900 ) ) ;
#248 = CARTESIAN_POINT ( 'NONE',  ( 0.5000000000000001100, 0.0000000000000000000, -32.50000000000000000 ) ) ;
#249 = CARTESIAN_POINT ( 'NONE',  ( 1.224646799147351300E-015, 0.6250000000000005600, -25.89999999999999900 ) ) ;
#250 = CARTESIAN_POINT ( 'NONE',  ( 4.900000000000000400, 0.0000000000000000000, -32.50000000000000000 ) ) ;
#251 = CARTESIAN_POINT ( 'NONE',  ( 1.224646799147351300E-015, 0.5000000000000111000, 32.50000000000000000 ) ) ;
#252 = CARTESIAN_POINT ( 'NONE',  ( -0.5000000000000001100, 0.0000000000000000000, -18.50617664386618300 ) ) ;
#253 = CARTESIAN_POINT ( 'NONE',  ( -0.5000000000000001100, 0.0000000000000000000, 18.50617664386618300 ) ) ;
#254 = DIRECTION ( 'NONE',  ( 0.0000000000000000000, -0.0000000000000000000, 1.000000000000000000 ) ) ;
#255 = CARTESIAN_POINT ( 'NONE',  ( 0.5000000000000002200, 0.0000000000000000000, 18.50617664386618000 ) ) ;
#256 = DIRECTION ( 'NONE',  ( -0.7071067811865544600, 0.7071067811865406900, 0.0000000000000000000 ) ) ;
#257 = CARTESIAN_POINT ( 'NONE',  ( -0.5000000000000001100, 0.0000000000000000000, 26.49382335613381700 ) ) ;
#258 = CARTESIAN_POINT ( 'NONE',  ( 1.224646799147351300E-015, 10.49999999999999800, 19.10000000000000100 ) ) ;
#259 = CARTESIAN_POINT ( 'NONE',  ( 1.224646799147351300E-015, 0.6250000000000005600, 19.09999999999999800 ) ) ;
#260 = CARTESIAN_POINT ( 'NONE',  ( 1.636992304707930000E-015, 0.5000000000000106600, 18.97500000000000900 ) ) ;
#261 = CARTESIAN_POINT ( 'NONE',  ( 0.5000000000000002200, 0.0000000000000000000, -26.49382335613382000 ) ) ;
#262 = CARTESIAN_POINT ( 'NONE',  ( -9.800000000000000700, 5.000000000000000000, -32.50000000000000000 ) ) ;
#263 = CARTESIAN_POINT ( 'NONE',  ( -0.5000000000000001100, 0.0000000000000000000, -32.50000000000000000 ) ) ;
#264 = CARTESIAN_POINT ( 'NONE',  ( 0.5000000000000001100, 0.0000000000000000000, 32.50000000000000000 ) ) ;
#265 = DIRECTION ( 'NONE',  ( -0.0000000000000000000, -1.000000000000000000, -0.0000000000000000000 ) ) ;
#266 = DIRECTION ( 'NONE',  ( 0.0000000000000000000, 0.0000000000000000000, -1.000000000000000000 ) ) ;
#267 = DIRECTION ( 'NONE',  ( 0.0000000000000000000, 0.0000000000000000000, -1.000000000000000000 ) ) ;
#268 = CARTESIAN_POINT ( 'NONE',  ( 4.900000000000000400, 5.000000000000000000, 32.50000000000000000 ) ) ;
#269 = CARTESIAN_POINT ( 'NONE',  ( 1.717567135804161000E-015, 0.0000000000000000000, -18.47499999999999800 ) ) ;
#270 = CARTESIAN_POINT ( 'NONE',  ( 1.622022597038810800E-015, 0.5000000000000106600, 26.02499999999998800 ) ) ;
#271 = CARTESIAN_POINT ( 'NONE',  ( 1.636992304707930000E-015, 0.5000000000000106600, -26.02499999999998800 ) ) ;
#272 = CARTESIAN_POINT ( 'NONE',  ( 1.224646799147351300E-015, 0.5000000000000111000, 32.50000000000000000 ) ) ;
#273 = DIRECTION ( 'NONE',  ( -0.0000000000000000000, -0.0000000000000000000, -1.000000000000000000 ) ) ;
#274 = CARTESIAN_POINT ( 'NONE',  ( 1.224646799147351300E-015, 0.5000000000000111000, 32.50000000000000000 ) ) ;
#275 = DIRECTION ( 'NONE',  ( 0.0000000000000000000, 1.000000000000000000, 0.0000000000000000000 ) ) ;
#276 = DIRECTION ( 'NONE',  ( -0.0000000000000000000, -0.0000000000000000000, -1.000000000000000000 ) ) ;
#277 = DIRECTION ( 'NONE',  ( 0.7071067811865390200, -0.7071067811865561200, 0.0000000000000000000 ) ) ;
#278 = CARTESIAN_POINT ( 'NONE',  ( -0.3302917213469109300, 0.1697082786530924600, -26.34403664077161300 ) ) ;
#279 = CARTESIAN_POINT ( 'NONE',  ( 1.224646799147351300E-015, 10.49999999999999800, -22.50000000000000000 ) ) ;
#280 = DIRECTION ( 'NONE',  ( -0.0000000000000000000, -1.000000000000000000, -0.0000000000000000000 ) ) ;
#281 = DIRECTION ( 'NONE',  ( 0.0000000000000000000, -0.7071067811865468000, -0.7071067811865483500 ) ) ;
#282 = DIRECTION ( 'NONE',  ( -0.0000000000000000000, -0.0000000000000000000, -1.000000000000000000 ) ) ;
#283 = DIRECTION ( 'NONE',  ( -0.0000000000000000000, -1.000000000000000000, -0.0000000000000000000 ) ) ;
#284 = DIRECTION ( 'NONE',  ( 0.0000000000000000000, 0.0000000000000000000, -1.000000000000000000 ) ) ;
#285 = CARTESIAN_POINT ( 'NONE',  ( 0.5000000000000001100, 0.0000000000000000000, -32.50000000000000000 ) ) ;
#286 = DIRECTION ( 'NONE',  ( 0.7071067811865406900, 0.7071067811865544600, -0.0000000000000000000 ) ) ;
#287 = CARTESIAN_POINT ( 'NONE',  ( -0.5000000000000001100, 0.0000000000000000000, 32.50000000000000000 ) ) ;
#288 = CARTESIAN_POINT ( 'NONE',  ( 1.224646799147351300E-015, 0.0000000000000000000, -22.50000000000000000 ) ) ;
#289 = CARTESIAN_POINT ( 'NONE',  ( 4.900000000000000400, 5.000000000000000000, 32.50000000000000000 ) ) ;
#290 = DIRECTION ( 'NONE',  ( -0.0000000000000000000, -1.000000000000000000, -0.0000000000000000000 ) ) ;
#291 = DIRECTION ( 'NONE',  ( 1.000000000000000000, 0.0000000000000000000, 0.0000000000000000000 ) ) ;
#292 = DIRECTION ( 'NONE',  ( -0.0000000000000000000, -0.0000000000000000000, -1.000000000000000000 ) ) ;
#293 = CARTESIAN_POINT ( 'NONE',  ( 1.224646799147351300E-015, 0.5000000000000111000, -32.50000000000000000 ) ) ;
#294 = CARTESIAN_POINT ( 'NONE',  ( 9.800000000000000700, 5.000000000000000000, 32.50000000000000000 ) ) ;
#295 = DIRECTION ( 'NONE',  ( 0.7071067811865406900, 0.7071067811865544600, -0.0000000000000000000 ) ) ;
#296 = CARTESIAN_POINT ( 'NONE',  ( -0.1633496420033392900, 0.3366503579966673200, -26.18834964200333500 ) ) ;
#297 = CARTESIAN_POINT ( 'NONE',  ( 4.900000000000000400, 0.0000000000000000000, -32.50000000000000000 ) ) ;
#298 = CARTESIAN_POINT ( 'NONE',  ( -0.5000000000000005600, 0.0000000000000000000, -26.49382335613381700 ) ) ;
#299 = DIRECTION ( 'NONE',  ( -0.0000000000000000000, -0.0000000000000000000, -1.000000000000000000 ) ) ;
#300 = DIRECTION ( 'NONE',  ( 1.000000000000000000, 0.0000000000000000000, 0.0000000000000000000 ) ) ;
#301 = CARTESIAN_POINT ( 'NONE',  ( 1.224646799147351300E-015, 0.5000000000000111000, 32.50000000000000000 ) ) ;
#302 = CARTESIAN_POINT ( 'NONE',  ( 4.900000000000000400, 0.0000000000000000000, 32.50000000000000000 ) ) ;
#303 = DIRECTION ( 'NONE',  ( -0.0000000000000000000, -0.0000000000000000000, -1.000000000000000000 ) ) ;
#304 = CARTESIAN_POINT ( 'NONE',  ( 1.224646799147351300E-015, 0.0000000000000000000, -25.89999999999999900 ) ) ;
#305 = CARTESIAN_POINT ( 'NONE',  ( 1.224646799147351300E-015, 10.49999999999999800, 22.50000000000000000 ) ) ;
#306 = CARTESIAN_POINT ( 'NONE',  ( 1.224646799147351300E-015, 0.0000000000000000000, -26.52499999999999900 ) ) ;
#307 = DIRECTION ( 'NONE',  ( 1.000000000000000000, 0.0000000000000000000, 0.0000000000000000000 ) ) ;
#308 = CARTESIAN_POINT ( 'NONE',  ( 0.3302917213469118700, 0.1697082786530924600, 26.34403664077161300 ) ) ;
#309 = DIRECTION ( 'NONE',  ( 0.0000000000000000000, 0.0000000000000000000, -1.000000000000000000 ) ) ;
#310 = CARTESIAN_POINT ( 'NONE',  ( 1.636992304707930000E-015, 0.5000000000000106600, 18.97500000000000900 ) ) ;
#311 = CARTESIAN_POINT ( 'NONE',  ( 4.900000000000000400, 0.0000000000000000000, 32.50000000000000000 ) ) ;
#312 = CARTESIAN_POINT ( 'NONE',  ( 1.224646799147351300E-015, 0.6250000000000005600, -22.50000000000000000 ) ) ;
#313 = CARTESIAN_POINT ( 'NONE',  ( 1.641026710857451300E-015, 0.0000000000000000000, 25.89999999999999900 ) ) ;
#314 = DIRECTION ( 'NONE',  ( 0.0000000000000000000, 1.000000000000000000, 0.0000000000000000000 ) ) ;
#315 = CARTESIAN_POINT ( 'NONE',  ( 1.224646799147351300E-015, 0.0000000000000000000, 19.09999999999999800 ) ) ;
#316 = CARTESIAN_POINT ( 'NONE',  ( 0.5000000000000001100, 0.0000000000000000000, 32.50000000000000000 ) ) ;
#317 = CARTESIAN_POINT ( 'NONE',  ( 0.5000000000000001100, 0.0000000000000000000, 32.50000000000000000 ) ) ;
#318 = CARTESIAN_POINT ( 'NONE',  ( 4.900000000000000400, 5.000000000000000000, -32.50000000000000000 ) ) ;
#319 = CARTESIAN_POINT ( 'NONE',  ( -0.1633496420033391800, 0.3366503579966674300, -18.81165035799666200 ) ) ;
#320 = DIRECTION ( 'NONE',  ( 1.000000000000000000, 0.0000000000000000000, 0.0000000000000000000 ) ) ;
#321 = CARTESIAN_POINT ( 'NONE',  ( 0.5000000000000001100, 0.0000000000000000000, 32.50000000000000000 ) ) ;
#322 = DIRECTION ( 'NONE',  ( -0.0000000000000000000, -1.000000000000000000, -0.0000000000000000000 ) ) ;
#323 = DIRECTION ( 'NONE',  ( 0.0000000000000000000, 0.0000000000000000000, -1.000000000000000000 ) ) ;
#324 = CARTESIAN_POINT ( 'NONE',  ( 0.5000000000000002200, 0.0000000000000000000, -26.49382335613382000 ) ) ;
#325 = DIRECTION ( 'NONE',  ( 8.659560562354942700E-017, -0.7071067811865468000, 0.7071067811865483500 ) ) ;
#326 = CARTESIAN_POINT ( 'NONE',  ( -0.5000000000000001100, 0.0000000000000000000, -18.50617664386618300 ) ) ;
#327 = CARTESIAN_POINT ( 'NONE',  ( -0.3302917213469109800, 0.1697082786530924900, -18.65596335922838400 ) ) ;
#328 = CARTESIAN_POINT ( 'NONE',  ( 9.800000000000000700, 5.000000000000000000, -32.50000000000000000 ) ) ;
#329 = CARTESIAN_POINT ( 'NONE',  ( 9.800000000000000700, 7.500000000000000000, 32.50000000000000000 ) ) ;
#330 = CARTESIAN_POINT ( 'NONE',  ( -0.3302917213469110400, 0.1697082786530924900, 18.65596335922838400 ) ) ;
#331 = CARTESIAN_POINT ( 'NONE',  ( 0.5000000000000001100, 0.0000000000000000000, 26.49382335613382000 ) ) ;
#332 = CARTESIAN_POINT ( 'NONE',  ( 1.641026710857451300E-015, 0.0000000000000000000, -19.09999999999999800 ) ) ;
#333 = CARTESIAN_POINT ( 'NONE',  ( 0.1633496420033412100, 0.3366503579966672000, 26.18834964200333500 ) ) ;
#334 = DIRECTION ( 'NONE',  ( -0.0000000000000000000, -1.000000000000000000, -0.0000000000000000000 ) ) ;
#335 = CARTESIAN_POINT ( 'NONE',  ( 1.622022597038810800E-015, 0.5000000000000106600, -18.97500000000000900 ) ) ;
#336 = DIRECTION ( 'NONE',  ( -0.0000000000000000000, -1.000000000000000000, -0.0000000000000000000 ) ) ;
#337 = CARTESIAN_POINT ( 'NONE',  ( 1.717567135804161000E-015, 0.0000000000000000000, 26.52499999999999900 ) ) ;
#338 = CARTESIAN_POINT ( 'NONE',  ( 1.224646799147351300E-015, 0.0000000000000000000, 22.50000000000000000 ) ) ;
#339 = DIRECTION ( 'NONE',  ( 0.0000000000000000000, 1.000000000000000000, 0.0000000000000000000 ) ) ;
#340 = CARTESIAN_POINT ( 'NONE',  ( -0.1633496420033392300, 0.3366503579966674300, 18.81165035799666200 ) ) ;
#341 = CARTESIAN_POINT ( 'NONE',  ( -0.5000000000000001100, 0.0000000000000000000, 18.50617664386618300 ) ) ;
#342 = CARTESIAN_POINT ( 'NONE',  ( 1.224646799147351300E-015, 0.5000000000000111000, -32.50000000000000000 ) ) ;
#343 = DIRECTION ( 'NONE',  ( -0.0000000000000000000, -1.000000000000000000, -0.0000000000000000000 ) ) ;
#344 = DIRECTION ( 'NONE',  ( 0.7071067811865390200, -0.7071067811865561200, 0.0000000000000000000 ) ) ;
#345 = DIRECTION ( 'NONE',  ( 8.659560562354942700E-017, -0.7071067811865468000, 0.7071067811865483500 ) ) ;
#346 = DIRECTION ( 'NONE',  ( -0.0000000000000000000, -0.0000000000000000000, -1.000000000000000000 ) ) ;
#347 = DIRECTION ( 'NONE',  ( -0.0000000000000000000, -1.000000000000000000, -0.0000000000000000000 ) ) ;
#348 = ADVANCED_FACE ( 'NONE', ( #582 ), #116, .F. ) ;
#349 = ADVANCED_FACE ( 'NONE', ( #397 ), #121, .F. ) ;
#350 = ADVANCED_FACE ( 'NONE', ( #588 ), #114, .F. ) ;
#351 = ADVANCED_FACE ( 'NONE', ( #583, #585, #589 ), #137, .F. ) ;
#352 = ADVANCED_FACE ( 'NONE', ( #593 ), #141, .F. ) ;
#353 = ADVANCED_FACE ( 'NONE', ( #609 ), #610, .F. ) ;
#354 = ADVANCED_FACE ( 'NONE', ( #599 ), #132, .F. ) ;
#355 = ADVANCED_FACE ( 'NONE', ( #603 ), #122, .F. ) ;
#356 = ADVANCED_FACE ( 'NONE', ( #595 ), #125, .F. ) ;
#357 = ADVANCED_FACE ( 'NONE', ( #612 ), #127, .F. ) ;
#358 = ADVANCED_FACE ( 'NONE', ( #613 ), #611, .F. ) ;
#359 = ADVANCED_FACE ( 'NONE', ( #639 ), #634, .F. ) ;
#360 = ADVANCED_FACE ( 'NONE', ( #614 ), #192, .F. ) ;
#361 = ADVANCED_FACE ( 'NONE', ( #642 ), #185, .F. ) ;
#362 = ADVANCED_FACE ( 'NONE', ( #655 ), #631, .F. ) ;
#363 = ADVANCED_FACE ( 'NONE', ( #656 ), #197, .F. ) ;
#364 = ADVANCED_FACE ( 'NONE', ( #615 ), #623, .F. ) ;
#365 = ADVANCED_FACE ( 'NONE', ( #641 ), #163, .F. ) ;
#366 = ADVANCED_FACE ( 'NONE', ( #644 ), #171, .F. ) ;
#367 = ADVANCED_FACE ( 'NONE', ( #643 ), #638, .F. ) ;
#368 = ADVANCED_FACE ( 'NONE', ( #629 ), #181, .F. ) ;
#369 = ADVANCED_FACE ( 'NONE', ( #645 ), #157, .F. ) ;
#370 = ADVANCED_FACE ( 'NONE', ( #616 ), #173, .T. ) ;
#371 = ADVANCED_FACE ( 'NONE', ( #635 ), #649, .F. ) ;
#372 = ADVANCED_FACE ( 'NONE', ( #650 ), #182, .F. ) ;
#373 = ADVANCED_FACE ( 'NONE', ( #632 ), #652, .F. ) ;
#374 = ADVANCED_FACE ( 'NONE', ( #617 ), #231, .F. ) ;
#375 = DESIGN_CONTEXT ( 'detailed design', #72, 'design' ) ;
#376 = PRODUCT_DEFINITION_SHAPE ( 'NONE', 'NONE',  #920 ) ;
#377 = EDGE_LOOP ( 'NONE', ( #521, #569 ) ) ;
#378 = EDGE_LOOP ( 'NONE', ( #529, #592, #537, #567 ) ) ;
#379 = EDGE_LOOP ( 'NONE', ( #496, #492, #491, #495 ) ) ;
#380 = EDGE_LOOP ( 'NONE', ( #596, #556, #527, #553 ) ) ;
#381 = EDGE_LOOP ( 'NONE', ( #513, #558, #534, #597 ) ) ;
#382 = EDGE_LOOP ( 'NONE', ( #505, #550, #502, #456 ) ) ;
#383 = EDGE_LOOP ( 'NONE', ( #484, #472, #482, #507 ) ) ;
#384 = EDGE_LOOP ( 'NONE', ( #504, #552, #549, #601 ) ) ;
#385 = EDGE_LOOP ( 'NONE', ( #528, #575, #523, #563 ) ) ;
#386 = EDGE_LOOP ( 'NONE', ( #471, #488, #497, #494 ) ) ;
#387 = EDGE_LOOP ( 'NONE', ( #564, #561, #517, #580, #581, #576 ) ) ;
#388 = EDGE_LOOP ( 'NONE', ( #477, #490, #474, #493 ) ) ;
#389 = EDGE_LOOP ( 'NONE', ( #566, #503, #458, #486 ) ) ;
#390 = EDGE_LOOP ( 'NONE', ( #591, #574, #606, #579 ) ) ;
#391 = EDGE_LOOP ( 'NONE', ( #544, #542, #568, #562, #533, #515, #555, #520 ) ) ;
#392 = EDGE_LOOP ( 'NONE', ( #598, #538, #602, #531, #535, #546, #519, #524, #548, #518, #578, #547, #608 ) ) ;
#393 = EDGE_LOOP ( 'NONE', ( #560, #522 ) ) ;
#394 = EDGE_LOOP ( 'NONE', ( #508, #506, #483, #476 ) ) ;
#395 = EDGE_LOOP ( 'NONE', ( #571, #536, #551, #557 ) ) ;
#396 = CLOSED_SHELL ( 'NONE', ( #371, #367, #358, #373, #350, #366, #374, #348, #360, #356, #372, #363, #349, #357, #368, #351, #365, #369, #352, #361, #354, #355, #370, #362, #364, #359, #353 ) ) ;
#397 = FACE_OUTER_BOUND ( 'NONE', #389, .T. ) ;
#398 = EDGE_LOOP ( 'NONE', ( #475, #463, #499, #501, #465, #478 ) ) ;
#399 = EDGE_LOOP ( 'NONE', ( #466, #510, #461, #511 ) ) ;
#400 = EDGE_LOOP ( 'NONE', ( #487, #473, #498, #565 ) ) ;
#401 = EDGE_LOOP ( 'NONE', ( #485, #509, #459, #464, #489, #469 ) ) ;
#402 = EDGE_LOOP ( 'NONE', ( #586, #604, #600, #605 ) ) ;
#403 = EDGE_LOOP ( 'NONE', ( #468, #530, #500, #455, #516, #532, #554, #462 ) ) ;
#404 = EDGE_LOOP ( 'NONE', ( #540, #541, #525, #526, #539, #570, #587, #572, #543, #545, #512, #514, #559 ) ) ;
#405 = EDGE_LOOP ( 'NONE', ( #481, #467, #460, #454 ) ) ;
#406 = EDGE_LOOP ( 'NONE', ( #594, #607, #573, #577, #590, #584 ) ) ;
#407 = VERTEX_POINT ( 'NONE', #228 ) ;
#408 = VERTEX_POINT ( 'NONE', #262 ) ;
#409 = VERTEX_POINT ( 'NONE', #230 ) ;
#410 = VERTEX_POINT ( 'NONE', #232 ) ;
#411 = VERTEX_POINT ( 'NONE', #222 ) ;
#412 = VERTEX_POINT ( 'NONE', #219 ) ;
#413 = VERTEX_POINT ( 'NONE', #221 ) ;
#414 = VERTEX_POINT ( 'NONE', #215 ) ;
#415 = VERTEX_POINT ( 'NONE', #227 ) ;
#416 = VERTEX_POINT ( 'NONE', #229 ) ;
#417 = VERTEX_POINT ( 'NONE', #236 ) ;
#418 = VERTEX_POINT ( 'NONE', #233 ) ;
#419 = VERTEX_POINT ( 'NONE', #234 ) ;
#420 = VERTEX_POINT ( 'NONE', #242 ) ;
#421 = VERTEX_POINT ( 'NONE', #235 ) ;
#422 = VERTEX_POINT ( 'NONE', #210 ) ;
#423 = VERTEX_POINT ( 'NONE', #247 ) ;
#424 = VERTEX_POINT ( 'NONE', #255 ) ;
#425 = VERTEX_POINT ( 'NONE', #237 ) ;
#426 = VERTEX_POINT ( 'NONE', #238 ) ;
#427 = VERTEX_POINT ( 'NONE', #243 ) ;
#428 = EDGE_LOOP ( 'NONE', ( #480, #457, #470, #479 ) ) ;
#429 = VERTEX_POINT ( 'NONE', #216 ) ;
#430 = VERTEX_POINT ( 'NONE', #248 ) ;
#431 = VERTEX_POINT ( 'NONE', #223 ) ;
#432 = VERTEX_POINT ( 'NONE', #244 ) ;
#433 = VERTEX_POINT ( 'NONE', #239 ) ;
#434 = VERTEX_POINT ( 'NONE', #213 ) ;
#435 = VERTEX_POINT ( 'NONE', #249 ) ;
#436 = VERTEX_POINT ( 'NONE', #217 ) ;
#437 = VERTEX_POINT ( 'NONE', #218 ) ;
#438 = VERTEX_POINT ( 'NONE', #257 ) ;
#439 = VERTEX_POINT ( 'NONE', #224 ) ;
#440 = VERTEX_POINT ( 'NONE', #258 ) ;
#441 = VERTEX_POINT ( 'NONE', #220 ) ;
#442 = VERTEX_POINT ( 'NONE', #245 ) ;
#443 = VERTEX_POINT ( 'NONE', #250 ) ;
#444 = VERTEX_POINT ( 'NONE', #240 ) ;
#445 = VERTEX_POINT ( 'NONE', #252 ) ;
#446 = VERTEX_POINT ( 'NONE', #246 ) ;
#447 = VERTEX_POINT ( 'NONE', #253 ) ;
#448 = VERTEX_POINT ( 'NONE', #263 ) ;
#449 = VERTEX_POINT ( 'NONE', #259 ) ;
#450 = VERTEX_POINT ( 'NONE', #260 ) ;
#451 = VERTEX_POINT ( 'NONE', #261 ) ;
#452 = VERTEX_POINT ( 'NONE', #211 ) ;
#453 = VERTEX_POINT ( 'NONE', #212 ) ;
#454 = ORIENTED_EDGE ( 'NONE', *, *, #854, .T. ) ;
#455 = ORIENTED_EDGE ( 'NONE', *, *, #797, .T. ) ;
#456 = ORIENTED_EDGE ( 'NONE', *, *, #803, .T. ) ;
#457 = ORIENTED_EDGE ( 'NONE', *, *, #835, .T. ) ;
#458 = ORIENTED_EDGE ( 'NONE', *, *, #795, .F. ) ;
#459 = ORIENTED_EDGE ( 'NONE', *, *, #818, .F. ) ;
#460 = ORIENTED_EDGE ( 'NONE', *, *, #808, .F. ) ;
#461 = ORIENTED_EDGE ( 'NONE', *, *, #852, .F. ) ;
#462 = ORIENTED_EDGE ( 'NONE', *, *, #823, .F. ) ;
#463 = ORIENTED_EDGE ( 'NONE', *, *, #809, .T. ) ;
#464 = ORIENTED_EDGE ( 'NONE', *, *, #791, .T. ) ;
#465 = ORIENTED_EDGE ( 'NONE', *, *, #812, .F. ) ;
#466 = ORIENTED_EDGE ( 'NONE', *, *, #843, .T. ) ;
#467 = ORIENTED_EDGE ( 'NONE', *, *, #842, .T. ) ;
#468 = ORIENTED_EDGE ( 'NONE', *, *, #808, .T. ) ;
#469 = ORIENTED_EDGE ( 'NONE', *, *, #806, .F. ) ;
#470 = ORIENTED_EDGE ( 'NONE', *, *, #798, .F. ) ;
#471 = ORIENTED_EDGE ( 'NONE', *, *, #807, .F. ) ;
#472 = ORIENTED_EDGE ( 'NONE', *, *, #825, .F. ) ;
#473 = ORIENTED_EDGE ( 'NONE', *, *, #813, .T. ) ;
#474 = ORIENTED_EDGE ( 'NONE', *, *, #821, .T. ) ;
#475 = ORIENTED_EDGE ( 'NONE', *, *, #830, .F. ) ;
#476 = ORIENTED_EDGE ( 'NONE', *, *, #801, .T. ) ;
#477 = ORIENTED_EDGE ( 'NONE', *, *, #804, .F. ) ;
#478 = ORIENTED_EDGE ( 'NONE', *, *, #841, .F. ) ;
#479 = ORIENTED_EDGE ( 'NONE', *, *, #796, .F. ) ;
#480 = ORIENTED_EDGE ( 'NONE', *, *, #793, .T. ) ;
#481 = ORIENTED_EDGE ( 'NONE', *, *, #852, .T. ) ;
#482 = ORIENTED_EDGE ( 'NONE', *, *, #790, .F. ) ;
#483 = ORIENTED_EDGE ( 'NONE', *, *, #874, .T. ) ;
#484 = ORIENTED_EDGE ( 'NONE', *, *, #814, .T. ) ;
#485 = ORIENTED_EDGE ( 'NONE', *, *, #821, .F. ) ;
#486 = ORIENTED_EDGE ( 'NONE', *, *, #792, .T. ) ;
#487 = ORIENTED_EDGE ( 'NONE', *, *, #798, .T. ) ;
#488 = ORIENTED_EDGE ( 'NONE', *, *, #815, .T. ) ;
#489 = ORIENTED_EDGE ( 'NONE', *, *, #802, .F. ) ;
#490 = ORIENTED_EDGE ( 'NONE', *, *, #811, .T. ) ;
#491 = ORIENTED_EDGE ( 'NONE', *, *, #877, .T. ) ;
#492 = ORIENTED_EDGE ( 'NONE', *, *, #834, .T. ) ;
#493 = ORIENTED_EDGE ( 'NONE', *, *, #805, .F. ) ;
#494 = ORIENTED_EDGE ( 'NONE', *, *, #817, .F. ) ;
#495 = ORIENTED_EDGE ( 'NONE', *, *, #816, .T. ) ;
#496 = ORIENTED_EDGE ( 'NONE', *, *, #826, .F. ) ;
#497 = ORIENTED_EDGE ( 'NONE', *, *, #830, .T. ) ;
#498 = ORIENTED_EDGE ( 'NONE', *, *, #819, .F. ) ;
#499 = ORIENTED_EDGE ( 'NONE', *, *, #835, .F. ) ;
#500 = ORIENTED_EDGE ( 'NONE', *, *, #826, .T. ) ;
#501 = ORIENTED_EDGE ( 'NONE', *, *, #828, .T. ) ;
#502 = ORIENTED_EDGE ( 'NONE', *, *, #820, .F. ) ;
#503 = ORIENTED_EDGE ( 'NONE', *, *, #794, .F. ) ;
#504 = ORIENTED_EDGE ( 'NONE', *, *, #827, .T. ) ;
#505 = ORIENTED_EDGE ( 'NONE', *, *, #800, .T. ) ;
#506 = ORIENTED_EDGE ( 'NONE', *, *, #802, .T. ) ;
#507 = ORIENTED_EDGE ( 'NONE', *, *, #794, .T. ) ;
#508 = ORIENTED_EDGE ( 'NONE', *, *, #877, .F. ) ;
#509 = ORIENTED_EDGE ( 'NONE', *, *, #810, .T. ) ;
#510 = ORIENTED_EDGE ( 'NONE', *, *, #818, .T. ) ;
#511 = ORIENTED_EDGE ( 'NONE', *, *, #812, .T. ) ;
#512 = ORIENTED_EDGE ( 'NONE', *, *, #800, .F. ) ;
#513 = ORIENTED_EDGE ( 'NONE', *, *, #873, .T. ) ;
#514 = ORIENTED_EDGE ( 'NONE', *, *, #797, .F. ) ;
#515 = ORIENTED_EDGE ( 'NONE', *, *, #836, .F. ) ;
#516 = ORIENTED_EDGE ( 'NONE', *, *, #803, .F. ) ;
#517 = ORIENTED_EDGE ( 'NONE', *, *, #841, .T. ) ;
#518 = ORIENTED_EDGE ( 'NONE', *, *, #876, .T. ) ;
#519 = ORIENTED_EDGE ( 'NONE', *, *, #856, .T. ) ;
#520 = ORIENTED_EDGE ( 'NONE', *, *, #846, .T. ) ;
#521 = ORIENTED_EDGE ( 'NONE', *, *, #869, .T. ) ;
#522 = ORIENTED_EDGE ( 'NONE', *, *, #804, .T. ) ;
#523 = ORIENTED_EDGE ( 'NONE', *, *, #878, .F. ) ;
#524 = ORIENTED_EDGE ( 'NONE', *, *, #878, .T. ) ;
#525 = ORIENTED_EDGE ( 'NONE', *, *, #865, .F. ) ;
#526 = ORIENTED_EDGE ( 'NONE', *, *, #844, .F. ) ;
#527 = ORIENTED_EDGE ( 'NONE', *, *, #871, .F. ) ;
#528 = ORIENTED_EDGE ( 'NONE', *, *, #837, .T. ) ;
#529 = ORIENTED_EDGE ( 'NONE', *, *, #865, .T. ) ;
#530 = ORIENTED_EDGE ( 'NONE', *, *, #829, .F. ) ;
#531 = ORIENTED_EDGE ( 'NONE', *, *, #820, .T. ) ;
#532 = ORIENTED_EDGE ( 'NONE', *, *, #822, .F. ) ;
#533 = ORIENTED_EDGE ( 'NONE', *, *, #793, .F. ) ;
#534 = ORIENTED_EDGE ( 'NONE', *, *, #867, .F. ) ;
#535 = ORIENTED_EDGE ( 'NONE', *, *, #795, .T. ) ;
#536 = ORIENTED_EDGE ( 'NONE', *, *, #857, .F. ) ;
#537 = ORIENTED_EDGE ( 'NONE', *, *, #845, .F. ) ;
#538 = ORIENTED_EDGE ( 'NONE', *, *, #799, .T. ) ;
#539 = ORIENTED_EDGE ( 'NONE', *, *, #875, .F. ) ;
#540 = ORIENTED_EDGE ( 'NONE', *, *, #801, .F. ) ;
#541 = ORIENTED_EDGE ( 'NONE', *, *, #846, .F. ) ;
#542 = ORIENTED_EDGE ( 'NONE', *, *, #791, .F. ) ;
#543 = ORIENTED_EDGE ( 'NONE', *, *, #814, .F. ) ;
#544 = ORIENTED_EDGE ( 'NONE', *, *, #874, .F. ) ;
#545 = ORIENTED_EDGE ( 'NONE', *, *, #824, .F. ) ;
#546 = ORIENTED_EDGE ( 'NONE', *, *, #790, .T. ) ;
#547 = ORIENTED_EDGE ( 'NONE', *, *, #845, .T. ) ;
#548 = ORIENTED_EDGE ( 'NONE', *, *, #867, .T. ) ;
#549 = ORIENTED_EDGE ( 'NONE', *, *, #856, .F. ) ;
#550 = ORIENTED_EDGE ( 'NONE', *, *, #792, .F. ) ;
#551 = ORIENTED_EDGE ( 'NONE', *, *, #876, .F. ) ;
#552 = ORIENTED_EDGE ( 'NONE', *, *, #866, .F. ) ;
#553 = ORIENTED_EDGE ( 'NONE', *, *, #857, .T. ) ;
#554 = ORIENTED_EDGE ( 'NONE', *, *, #819, .T. ) ;
#555 = ORIENTED_EDGE ( 'NONE', *, *, #849, .T. ) ;
#556 = ORIENTED_EDGE ( 'NONE', *, *, #872, .F. ) ;
#557 = ORIENTED_EDGE ( 'NONE', *, *, #858, .T. ) ;
#558 = ORIENTED_EDGE ( 'NONE', *, *, #858, .F. ) ;
#559 = ORIENTED_EDGE ( 'NONE', *, *, #816, .F. ) ;
#560 = ORIENTED_EDGE ( 'NONE', *, *, #847, .T. ) ;
#561 = ORIENTED_EDGE ( 'NONE', *, *, #861, .F. ) ;
#562 = ORIENTED_EDGE ( 'NONE', *, *, #828, .F. ) ;
#563 = ORIENTED_EDGE ( 'NONE', *, *, #866, .T. ) ;
#564 = ORIENTED_EDGE ( 'NONE', *, *, #809, .F. ) ;
#565 = ORIENTED_EDGE ( 'NONE', *, *, #799, .F. ) ;
#566 = ORIENTED_EDGE ( 'NONE', *, *, #824, .T. ) ;
#567 = ORIENTED_EDGE ( 'NONE', *, *, #872, .T. ) ;
#568 = ORIENTED_EDGE ( 'NONE', *, *, #843, .F. ) ;
#569 = ORIENTED_EDGE ( 'NONE', *, *, #807, .T. ) ;
#570 = ORIENTED_EDGE ( 'NONE', *, *, #873, .F. ) ;
#571 = ORIENTED_EDGE ( 'NONE', *, *, #875, .T. ) ;
#572 = ORIENTED_EDGE ( 'NONE', *, *, #827, .F. ) ;
#573 = ORIENTED_EDGE ( 'NONE', *, *, #806, .T. ) ;
#574 = ORIENTED_EDGE ( 'NONE', *, *, #847, .F. ) ;
#575 = ORIENTED_EDGE ( 'NONE', *, *, #848, .F. ) ;
#576 = ORIENTED_EDGE ( 'NONE', *, *, #813, .F. ) ;
#577 = ORIENTED_EDGE ( 'NONE', *, *, #834, .F. ) ;
#578 = ORIENTED_EDGE ( 'NONE', *, *, #871, .T. ) ;
#579 = ORIENTED_EDGE ( 'NONE', *, *, #868, .T. ) ;
#580 = ORIENTED_EDGE ( 'NONE', *, *, #854, .F. ) ;
#581 = ORIENTED_EDGE ( 'NONE', *, *, #823, .T. ) ;
#582 = FACE_OUTER_BOUND ( 'NONE', #405, .T. ) ;
#583 = FACE_BOUND ( 'NONE', #393, .T. ) ;
#584 = ORIENTED_EDGE ( 'NONE', *, *, #842, .F. ) ;
#585 = FACE_BOUND ( 'NONE', #377, .T. ) ;
#586 = ORIENTED_EDGE ( 'NONE', *, *, #815, .F. ) ;
#587 = ORIENTED_EDGE ( 'NONE', *, *, #837, .F. ) ;
#588 = FACE_OUTER_BOUND ( 'NONE', #394, .T. ) ;
#589 = FACE_OUTER_BOUND ( 'NONE', #385, .T. ) ;
#590 = ORIENTED_EDGE ( 'NONE', *, *, #829, .T. ) ;
#591 = ORIENTED_EDGE ( 'NONE', *, *, #811, .F. ) ;
#592 = ORIENTED_EDGE ( 'NONE', *, *, #849, .F. ) ;
#593 = FACE_OUTER_BOUND ( 'NONE', #380, .T. ) ;
#594 = ORIENTED_EDGE ( 'NONE', *, *, #810, .F. ) ;
#595 = FACE_OUTER_BOUND ( 'NONE', #400, .T. ) ;
#596 = ORIENTED_EDGE ( 'NONE', *, *, #844, .T. ) ;
#597 = ORIENTED_EDGE ( 'NONE', *, *, #848, .T. ) ;
#598 = ORIENTED_EDGE ( 'NONE', *, *, #796, .T. ) ;
#599 = FACE_OUTER_BOUND ( 'NONE', #391, .T. ) ;
#600 = ORIENTED_EDGE ( 'NONE', *, *, #817, .T. ) ;
#601 = ORIENTED_EDGE ( 'NONE', *, *, #825, .T. ) ;
#602 = ORIENTED_EDGE ( 'NONE', *, *, #822, .T. ) ;
#603 = FACE_OUTER_BOUND ( 'NONE', #392, .T. ) ;
#604 = ORIENTED_EDGE ( 'NONE', *, *, #869, .F. ) ;
#605 = ORIENTED_EDGE ( 'NONE', *, *, #861, .T. ) ;
#606 = ORIENTED_EDGE ( 'NONE', *, *, #805, .T. ) ;
#607 = ORIENTED_EDGE ( 'NONE', *, *, #868, .F. ) ;
#608 = ORIENTED_EDGE ( 'NONE', *, *, #836, .T. ) ;
#609 = FACE_OUTER_BOUND ( 'NONE', #390, .T. ) ;
#610 = CYLINDRICAL_SURFACE ( 'NONE', #880, 3.400000000000000400 ) ;
#611 = CYLINDRICAL_SURFACE ( 'NONE', #850, 3.400000000000000400 ) ;
#612 = FACE_OUTER_BOUND ( 'NONE', #383, .T. ) ;
#613 = FACE_OUTER_BOUND ( 'NONE', #386, .T. ) ;
#614 = FACE_OUTER_BOUND ( 'NONE', #428, .T. ) ;
#615 = FACE_OUTER_BOUND ( 'NONE', #402, .T. ) ;
#616 = FACE_OUTER_BOUND ( 'NONE', #404, .T. ) ;
#617 = FACE_OUTER_BOUND ( 'NONE', #399, .T. ) ;
#618 = LINE ( 'NONE', #287, #653 ) ;
#619 = LINE ( 'NONE', #268, #637 ) ;
#620 = VECTOR ( 'NONE', #295, 1000.000000000000100 ) ;
#621 = VECTOR ( 'NONE', #292, 1000.000000000000000 ) ;
#622 = VECTOR ( 'NONE', #299, 1000.000000000000000 ) ;
#623 = CYLINDRICAL_SURFACE ( 'NONE', #832, 3.400000000000000400 ) ;
#624 = LINE ( 'NONE', #285, #647 ) ;
#625 = VECTOR ( 'NONE', #275, 1000.000000000000000 ) ;
#626 = LINE ( 'NONE', #272, #627 ) ;
#627 = VECTOR ( 'NONE', #277, 1000.000000000000000 ) ;
#628 = LINE ( 'NONE', #294, #633 ) ;
#629 = FACE_OUTER_BOUND ( 'NONE', #384, .T. ) ;
#630 = LINE ( 'NONE', #301, #621 ) ;
#631 = CONICAL_SURFACE ( 'NONE', #855, 4.025000000000000400, 0.7853981633974492800 ) ;
#632 = FACE_OUTER_BOUND ( 'NONE', #398, .T. ) ;
#633 = VECTOR ( 'NONE', #276, 1000.000000000000000 ) ;
#634 = CONICAL_SURFACE ( 'NONE', #853, 4.025000000000000400, 0.7853981633974492800 ) ;
#635 = FACE_OUTER_BOUND ( 'NONE', #388, .T. ) ;
#636 = VECTOR ( 'NONE', #209, 1000.000000000000000 ) ;
#637 = VECTOR ( 'NONE', #300, 1000.000000000000000 ) ;
#638 = CONICAL_SURFACE ( 'NONE', #887, 4.025000000000000400, 0.7853981633974492800 ) ;
#639 = FACE_OUTER_BOUND ( 'NONE', #406, .T. ) ;
#640 = LINE ( 'NONE', #297, #625 ) ;
#641 = FACE_OUTER_BOUND ( 'NONE', #381, .T. ) ;
#642 = FACE_OUTER_BOUND ( 'NONE', #378, .T. ) ;
#643 = FACE_OUTER_BOUND ( 'NONE', #401, .T. ) ;
#644 = FACE_OUTER_BOUND ( 'NONE', #379, .T. ) ;
#645 = FACE_OUTER_BOUND ( 'NONE', #395, .T. ) ;
#646 = LINE ( 'NONE', #274, #620 ) ;
#647 = VECTOR ( 'NONE', #291, 1000.000000000000000 ) ;
#648 = LINE ( 'NONE', #208, #636 ) ;
#649 = CYLINDRICAL_SURFACE ( 'NONE', #892, 3.400000000000000400 ) ;
#650 = FACE_OUTER_BOUND ( 'NONE', #403, .T. ) ;
#651 = LINE ( 'NONE', #289, #622 ) ;
#652 = CONICAL_SURFACE ( 'NONE', #898, 4.025000000000000400, 0.7853981633974492800 ) ;
#653 = VECTOR ( 'NONE', #273, 1000.000000000000000 ) ;
#654 = CIRCLE ( 'NONE', #885, 4.025000000000000400 ) ;
#655 = FACE_OUTER_BOUND ( 'NONE', #387, .T. ) ;
#656 = FACE_OUTER_BOUND ( 'NONE', #382, .T. ) ;
#657 = VECTOR ( 'NONE', #303, 1000.000000000000000 ) ;
#658 = LINE ( 'NONE', #302, #657 ) ;
#659 = CIRCLE ( 'NONE', #906, 3.399999999999996800 ) ;
#660 = LINE ( 'NONE', #304, #689 ) ;
#661 = LINE ( 'NONE', #293, #662 ) ;
#662 = VECTOR ( 'NONE', #286, 1000.000000000000100 ) ;
#663 = LINE ( 'NONE', #311, #665 ) ;
#664 = LINE ( 'NONE', #329, #670 ) ;
#665 = VECTOR ( 'NONE', #314, 1000.000000000000000 ) ;
#666 = LINE ( 'NONE', #264, #684 ) ;
#667 = VECTOR ( 'NONE', #307, 1000.000000000000000 ) ;
#668 = LINE ( 'NONE', #321, #671 ) ;
#669 = LINE ( 'NONE', #318, #688 ) ;
#670 = VECTOR ( 'NONE', #1, 1000.000000000000000 ) ;
#671 = VECTOR ( 'NONE', #2, 1000.000000000000000 ) ;
#672 = CIRCLE ( 'NONE', #881, 4.025000000000000400 ) ;
#673 = LINE ( 'NONE', #317, #667 ) ;
#674 = LINE ( 'NONE', #3, #676 ) ;
#675 = CIRCLE ( 'NONE', #886, 3.400000000000000400 ) ;
#676 = VECTOR ( 'NONE', #5, 1000.000000000000100 ) ;
#677 = CIRCLE ( 'NONE', #918, 4.025000000000000400 ) ;
#678 = VECTOR ( 'NONE', #334, 1000.000000000000000 ) ;
#679 = LINE ( 'NONE', #315, #693 ) ;
#680 = CIRCLE ( 'NONE', #893, 3.399999999999996800 ) ;
#681 = VECTOR ( 'NONE', #339, 1000.000000000000000 ) ;
#682 = LINE ( 'NONE', #316, #683 ) ;
#683 = VECTOR ( 'NONE', #346, 1000.000000000000000 ) ;
#684 = VECTOR ( 'NONE', #282, 1000.000000000000000 ) ;
#685 = LINE ( 'NONE', #337, #697 ) ;
#686 = LINE ( 'NONE', #306, #698 ) ;
#687 = LINE ( 'NONE', #328, #681 ) ;
#688 = VECTOR ( 'NONE', #320, 1000.000000000000000 ) ;
#689 = VECTOR ( 'NONE', #280, 1000.000000000000000 ) ;
#690 = LINE ( 'NONE', #332, #678 ) ;
#691 = LINE ( 'NONE', #313, #699 ) ;
#692 = VECTOR ( 'NONE', #344, 1000.000000000000000 ) ;
#693 = VECTOR ( 'NONE', #336, 1000.000000000000000 ) ;
#694 = LINE ( 'NONE', #269, #695 ) ;
#695 = VECTOR ( 'NONE', #325, 999.9999999999998900 ) ;
#696 = LINE ( 'NONE', #342, #692 ) ;
#697 = VECTOR ( 'NONE', #345, 999.9999999999998900 ) ;
#698 = VECTOR ( 'NONE', #281, 999.9999999999998900 ) ;
#699 = VECTOR ( 'NONE', #347, 1000.000000000000000 ) ;
#700 = VECTOR ( 'NONE', #41, 1000.000000000000000 ) ;
#701 = CIRCLE ( 'NONE', #919, 3.400000000000000400 ) ;
#702 = LINE ( 'NONE', #92, #716 ) ;
#703 = LINE ( 'NONE', #61, #731 ) ;
#704 = LINE ( 'NONE', #66, #732 ) ;
#705 = VECTOR ( 'NONE', #35, 1000.000000000000000 ) ;
#706 = LINE ( 'NONE', #80, #709 ) ;
#707 = LINE ( 'NONE', #91, #745 ) ;
#708 = LINE ( 'NONE', #36, #705 ) ;
#709 = VECTOR ( 'NONE', #108, 1000.000000000000000 ) ;
#710 = VECTOR ( 'NONE', #39, 1000.000000000000000 ) ;
#711 = VECTOR ( 'NONE', #64, 1000.000000000000000 ) ;
#712 = CIRCLE ( 'NONE', #891, 3.400000000000000400 ) ;
#713 = LINE ( 'NONE', #42, #749 ) ;
#714 = LINE ( 'NONE', #88, #750 ) ;
#715 = LINE ( 'NONE', #103, #718 ) ;
#716 = VECTOR ( 'NONE', #83, 1000.000000000000000 ) ;
#717 = LINE ( 'NONE', #56, #719 ) ;
#718 = VECTOR ( 'NONE', #94, 1000.000000000000000 ) ;
#719 = VECTOR ( 'NONE', #68, 1000.000000000000000 ) ;
#720 = LINE ( 'NONE', #77, #721 ) ;
#721 = VECTOR ( 'NONE', #107, 1000.000000000000000 ) ;
#722 = VECTOR ( 'NONE', #55, 1000.000000000000000 ) ;
#723 = VECTOR ( 'NONE', #37, 1000.000000000000000 ) ;
#724 = LINE ( 'NONE', #17, #729 ) ;
#725 = LINE ( 'NONE', #40, #700 ) ;
#726 = LINE ( 'NONE', #70, #723 ) ;
#727 = CIRCLE ( 'NONE', #914, 3.399999999999996800 ) ;
#728 = CIRCLE ( 'NONE', #888, 4.025000000000000400 ) ;
#729 = VECTOR ( 'NONE', #33, 1000.000000000000000 ) ;
#730 = VECTOR ( 'NONE', #29, 1000.000000000000000 ) ;
#731 = VECTOR ( 'NONE', #58, 1000.000000000000100 ) ;
#732 = VECTOR ( 'NONE', #50, 1000.000000000000000 ) ;
#733 = VECTOR ( 'NONE', #71, 1000.000000000000000 ) ;
#734 = LINE ( 'NONE', #67, #722 ) ;
#735 = CIRCLE ( 'NONE', #908, 3.399999999999996800 ) ;
#736 = VECTOR ( 'NONE', #9, 1000.000000000000000 ) ;
#737 = LINE ( 'NONE', #7, #752 ) ;
#738 = VECTOR ( 'NONE', #46, 1000.000000000000000 ) ;
#739 = LINE ( 'NONE', #48, #742 ) ;
#740 = LINE ( 'NONE', #90, #741 ) ;
#741 = VECTOR ( 'NONE', #98, 1000.000000000000000 ) ;
#742 = VECTOR ( 'NONE', #57, 1000.000000000000000 ) ;
#743 = CIRCLE ( 'NONE', #894, 3.400000000000000400 ) ;
#744 = LINE ( 'NONE', #59, #711 ) ;
#745 = VECTOR ( 'NONE', #89, 1000.000000000000100 ) ;
#746 = LINE ( 'NONE', #34, #710 ) ;
#747 = LINE ( 'NONE', #44, #738 ) ;
#748 = LINE ( 'NONE', #31, #730 ) ;
#749 = VECTOR ( 'NONE', #45, 1000.000000000000100 ) ;
#750 = VECTOR ( 'NONE', #111, 1000.000000000000000 ) ;
#751 = LINE ( 'NONE', #32, #736 ) ;
#752 = VECTOR ( 'NONE', #8, 999.9999999999998900 ) ;
#753 = LINE ( 'NONE', #14, #733 ) ;
#754 = CALENDAR_DATE ( 2017, 2, 2 ) ;
#755 = DATE_AND_TIME ( #754, #783 ) ;
#756 = PERSON_AND_ORGANIZATION ( #186, #770 ) ;
#757 = PERSON_AND_ORGANIZATION ( #186, #770 ) ;
#758 = CALENDAR_DATE ( 2017, 2, 2 ) ;
#759 = DATE_AND_TIME ( #758, #776 ) ;
#760 = SHAPE_DEFINITION_REPRESENTATION ( #376, #931 ) ;
#761 = LOCAL_TIME ( 14, 0, 24.00000000000000000, #780 ) ;
#762 = DATE_AND_TIME ( #774, #761 ) ;
#763 = APPROVAL_PERSON_ORGANIZATION ( #766, #882, #101 ) ;
#764 = APPROVAL_DATE_TIME ( #759, #901 ) ;
#765 = COORDINATED_UNIVERSAL_TIME_OFFSET ( 1, 0, .AHEAD. ) ;
#766 = PERSON_AND_ORGANIZATION ( #186, #770 ) ;
#767 = COORDINATED_UNIVERSAL_TIME_OFFSET ( 1, 0, .AHEAD. ) ;
#768 = LOCAL_TIME ( 14, 0, 24.00000000000000000, #767 ) ;
#769 = APPROVAL_PERSON_ORGANIZATION ( #775, #901, #81 ) ;
#770 = ORGANIZATION ( 'UNSPECIFIED', 'UNSPECIFIED', '' ) ;
#771 = CALENDAR_DATE ( 2017, 2, 2 ) ;
#772 = DATE_AND_TIME ( #771, #768 ) ;
#773 = PERSON_AND_ORGANIZATION ( #186, #770 ) ;
#774 = CALENDAR_DATE ( 2017, 2, 2 ) ;
#775 = PERSON_AND_ORGANIZATION ( #186, #770 ) ;
#776 = LOCAL_TIME ( 14, 0, 24.00000000000000000, #765 ) ;
#777 = APPROVAL_DATE_TIME ( #772, #882 ) ;
#778 = PERSON_AND_ORGANIZATION ( #186, #770 ) ;
#779 = PERSON_AND_ORGANIZATION ( #186, #770 ) ;
#780 = COORDINATED_UNIVERSAL_TIME_OFFSET ( 1, 0, .AHEAD. ) ;
#781 = PERSON_AND_ORGANIZATION ( #186, #770 ) ;
#782 = COORDINATED_UNIVERSAL_TIME_OFFSET ( 1, 0, .AHEAD. ) ;
#783 = LOCAL_TIME ( 14, 0, 24.00000000000000000, #782 ) ;
#784 = APPROVAL_PERSON_ORGANIZATION ( #756, #912, #79 ) ;
#785 = CALENDAR_DATE ( 2017, 2, 2 ) ;
#786 = APPROVAL_DATE_TIME ( #788, #912 ) ;
#787 = COORDINATED_UNIVERSAL_TIME_OFFSET ( 1, 0, .AHEAD. ) ;
#788 = DATE_AND_TIME ( #785, #789 ) ;
#789 = LOCAL_TIME ( 14, 0, 24.00000000000000000, #787 ) ;
#790 = EDGE_CURVE ( 'NONE', #453, #425, #648, .T. ) ;
#791 = EDGE_CURVE ( 'NONE', #445, #437, #654, .T. ) ;
#792 = EDGE_CURVE ( 'NONE', #416, #431, #651, .T. ) ;
#793 = EDGE_CURVE ( 'NONE', #442, #438, #618, .T. ) ;
#794 = EDGE_CURVE ( 'NONE', #453, #429, #628, .T. ) ;
#795 = EDGE_CURVE ( 'NONE', #416, #453, #619, .T. ) ;
#796 = EDGE_CURVE ( 'NONE', #442, #407, #646, .T. ) ;
#797 = EDGE_CURVE ( 'NONE', #430, #443, #624, .T. ) ;
#798 = EDGE_CURVE ( 'NONE', #407, #446, #630, .T. ) ;
#799 = EDGE_CURVE ( 'NONE', #407, #417, #626, .T. ) ;
#800 = EDGE_CURVE ( 'NONE', #443, #431, #640, .T. ) ;
#801 = EDGE_CURVE ( 'NONE', #448, #444, #661, .T. ) ;
#802 = EDGE_CURVE ( 'NONE', #439, #437, #923, .T. ) ;
#803 = EDGE_CURVE ( 'NONE', #419, #443, #658, .T. ) ;
#804 = EDGE_CURVE ( 'NONE', #434, #436, #659, .T. ) ;
#805 = EDGE_CURVE ( 'NONE', #436, #435, #660, .T. ) ;
#806 = EDGE_CURVE ( 'NONE', #435, #439, #686, .T. ) ;
#807 = EDGE_CURVE ( 'NONE', #410, #440, #680, .T. ) ;
#808 = EDGE_CURVE ( 'NONE', #424, #427, #666, .T. ) ;
#809 = EDGE_CURVE ( 'NONE', #441, #446, #685, .T. ) ;
#810 = EDGE_CURVE ( 'NONE', #409, #423, #694, .T. ) ;
#811 = EDGE_CURVE ( 'NONE', #434, #409, #690, .T. ) ;
#812 = EDGE_CURVE ( 'NONE', #450, #447, #926, .T. ) ;
#813 = EDGE_CURVE ( 'NONE', #446, #418, #924, .T. ) ;
#814 = EDGE_CURVE ( 'NONE', #429, #422, #687, .T. ) ;
#815 = EDGE_CURVE ( 'NONE', #410, #441, #691, .T. ) ;
#816 = EDGE_CURVE ( 'NONE', #444, #430, #696, .T. ) ;
#817 = EDGE_CURVE ( 'NONE', #440, #449, #679, .T. ) ;
#818 = EDGE_CURVE ( 'NONE', #445, #423, #925, .T. ) ;
#819 = EDGE_CURVE ( 'NONE', #417, #418, #682, .T. ) ;
#820 = EDGE_CURVE ( 'NONE', #419, #416, #663, .T. ) ;
#821 = EDGE_CURVE ( 'NONE', #409, #435, #675, .T. ) ;
#822 = EDGE_CURVE ( 'NONE', #417, #419, #673, .T. ) ;
#823 = EDGE_CURVE ( 'NONE', #424, #418, #672, .T. ) ;
#824 = EDGE_CURVE ( 'NONE', #431, #429, #669, .T. ) ;
#825 = EDGE_CURVE ( 'NONE', #425, #422, #664, .T. ) ;
#826 = EDGE_CURVE ( 'NONE', #451, #430, #668, .T. ) ;
#827 = EDGE_CURVE ( 'NONE', #422, #414, #674, .T. ) ;
#828 = EDGE_CURVE ( 'NONE', #438, #447, #677, .T. ) ;
#829 = EDGE_CURVE ( 'NONE', #451, #427, #728, .T. ) ;
#830 = EDGE_CURVE ( 'NONE', #441, #449, #701, .T. ) ;
#831 = AXIS2_PLACEMENT_3D ( 'NONE', #170, #187, #201 ) ;
#832 = AXIS2_PLACEMENT_3D ( 'NONE', #189, #180, #167 ) ;
#833 = AXIS2_PLACEMENT_3D ( 'NONE', #198, #168, #164 ) ;
#834 = EDGE_CURVE ( 'NONE', #451, #439, #930, .T. ) ;
#835 = EDGE_CURVE ( 'NONE', #438, #446, #928, .T. ) ;
#836 = EDGE_CURVE ( 'NONE', #421, #442, #748, .T. ) ;
#837 = EDGE_CURVE ( 'NONE', #414, #432, #751, .T. ) ;
#838 = AXIS2_PLACEMENT_3D ( 'NONE', #143, #138, #154 ) ;
#839 = AXIS2_PLACEMENT_3D ( 'NONE', #128, #140, #149 ) ;
#840 = AXIS2_PLACEMENT_3D ( 'NONE', #146, #147, #152 ) ;
#841 = EDGE_CURVE ( 'NONE', #449, #450, #737, .T. ) ;
#842 = EDGE_CURVE ( 'NONE', #423, #427, #929, .T. ) ;
#843 = EDGE_CURVE ( 'NONE', #447, #445, #724, .T. ) ;
#844 = EDGE_CURVE ( 'NONE', #408, #413, #704, .T. ) ;
#845 = EDGE_CURVE ( 'NONE', #415, #421, #753, .T. ) ;
#846 = EDGE_CURVE ( 'NONE', #412, #448, #734, .T. ) ;
#847 = EDGE_CURVE ( 'NONE', #436, #434, #735, .T. ) ;
#848 = EDGE_CURVE ( 'NONE', #426, #432, #739, .T. ) ;
#849 = EDGE_CURVE ( 'NONE', #421, #412, #717, .T. ) ;
#850 = AXIS2_PLACEMENT_3D ( 'NONE', #130, #139, #131 ) ;
#851 = AXIS2_PLACEMENT_3D ( 'NONE', #156, #135, #129 ) ;
#852 = EDGE_CURVE ( 'NONE', #450, #423, #726, .T. ) ;
#853 = AXIS2_PLACEMENT_3D ( 'NONE', #191, #200, #184 ) ;
#854 = EDGE_CURVE ( 'NONE', #424, #450, #932, .T. ) ;
#855 = AXIS2_PLACEMENT_3D ( 'NONE', #194, #199, #195 ) ;
#856 = EDGE_CURVE ( 'NONE', #425, #452, #703, .T. ) ;
#857 = EDGE_CURVE ( 'NONE', #411, #408, #744, .T. ) ;
#858 = EDGE_CURVE ( 'NONE', #420, #433, #746, .T. ) ;
#859 = AXIS2_PLACEMENT_3D ( 'NONE', #151, #142, #126 ) ;
#860 = AXIS2_PLACEMENT_3D ( 'NONE', #190, #193, #204 ) ;
#861 = EDGE_CURVE ( 'NONE', #449, #441, #712, .T. ) ;
#862 = AXIS2_PLACEMENT_3D ( 'NONE', #148, #133, #144 ) ;
#863 = AXIS2_PLACEMENT_3D ( 'NONE', #203, #178, #179 ) ;
#864 = AXIS2_PLACEMENT_3D ( 'NONE', #120, #117, #118 ) ;
#865 = EDGE_CURVE ( 'NONE', #413, #412, #708, .T. ) ;
#866 = EDGE_CURVE ( 'NONE', #452, #414, #725, .T. ) ;
#867 = EDGE_CURVE ( 'NONE', #426, #420, #713, .T. ) ;
#868 = EDGE_CURVE ( 'NONE', #435, #409, #743, .T. ) ;
#869 = EDGE_CURVE ( 'NONE', #440, #410, #727, .T. ) ;
#870 = AXIS2_PLACEMENT_3D ( 'NONE', #115, #119, #153 ) ;
#871 = EDGE_CURVE ( 'NONE', #411, #415, #747, .T. ) ;
#872 = EDGE_CURVE ( 'NONE', #415, #413, #740, .T. ) ;
#873 = EDGE_CURVE ( 'NONE', #432, #433, #707, .T. ) ;
#874 = EDGE_CURVE ( 'NONE', #437, #448, #714, .T. ) ;
#875 = EDGE_CURVE ( 'NONE', #433, #408, #706, .T. ) ;
#876 = EDGE_CURVE ( 'NONE', #420, #411, #702, .T. ) ;
#877 = EDGE_CURVE ( 'NONE', #439, #444, #715, .T. ) ;
#878 = EDGE_CURVE ( 'NONE', #452, #426, #720, .T. ) ;
#879 = AXIS2_PLACEMENT_3D ( 'NONE', #136, #124, #145 ) ;
#880 = AXIS2_PLACEMENT_3D ( 'NONE', #134, #123, #150 ) ;
#881 = AXIS2_PLACEMENT_3D ( 'NONE', #338, #322, #323 ) ;
#882 = APPROVAL ( #97, 'UNSPECIFIED' ) ;
#883 = CC_DESIGN_APPROVAL ( #882, ( #915 ) ) ;
#884 = PRODUCT_RELATED_PRODUCT_CATEGORY ( 'detail', '', ( #155 ) ) ;
#885 = AXIS2_PLACEMENT_3D ( 'NONE', #288, #290, #267 ) ;
#886 = AXIS2_PLACEMENT_3D ( 'NONE', #312, #343, #309 ) ;
#887 = AXIS2_PLACEMENT_3D ( 'NONE', #206, #205, #162 ) ;
#888 = AXIS2_PLACEMENT_3D ( 'NONE', #6, #23, #10 ) ;
#889 = CC_DESIGN_APPROVAL ( #912, ( #902 ) ) ;
#890 = AXIS2_PLACEMENT_3D ( 'NONE', #251, #256, #207 ) ;
#891 = AXIS2_PLACEMENT_3D ( 'NONE', #63, #51, #38 ) ;
#892 = AXIS2_PLACEMENT_3D ( 'NONE', #161, #174, #175 ) ;
#893 = AXIS2_PLACEMENT_3D ( 'NONE', #305, #283, #284 ) ;
#894 = AXIS2_PLACEMENT_3D ( 'NONE', #47, #49, #52 ) ;
#895 =( GEOMETRIC_REPRESENTATION_CONTEXT ( 3 ) GLOBAL_UNCERTAINTY_ASSIGNED_CONTEXT ( ( #927 ) ) GLOBAL_UNIT_ASSIGNED_CONTEXT ( ( #100, #95, #113 ) ) REPRESENTATION_CONTEXT ( 'NONE', 'WORKASPACE' ) );
#896 = CC_DESIGN_DATE_AND_TIME_ASSIGNMENT ( #762, #86, ( #920 ) ) ;
#897 = CC_DESIGN_PERSON_AND_ORGANIZATION_ASSIGNMENT ( #781, #76, ( #902 ) ) ;
#898 = AXIS2_PLACEMENT_3D ( 'NONE', #226, #214, #225 ) ;
#899 = CC_DESIGN_PERSON_AND_ORGANIZATION_ASSIGNMENT ( #757, #112, ( #155 ) ) ;
#900 = AXIS2_PLACEMENT_3D ( 'NONE', #165, #188, #169 ) ;
#901 = APPROVAL ( #74, 'UNSPECIFIED' ) ;
#902 = SECURITY_CLASSIFICATION ( '', '', #82 ) ;
#903 = CC_DESIGN_SECURITY_CLASSIFICATION ( #902, ( #915 ) ) ;
#904 = CC_DESIGN_PERSON_AND_ORGANIZATION_ASSIGNMENT ( #778, #104, ( #915 ) ) ;
#905 = AXIS2_PLACEMENT_3D ( 'NONE', #176, #196, #202 ) ;
#906 = AXIS2_PLACEMENT_3D ( 'NONE', #279, #265, #266 ) ;
#907 = CC_DESIGN_APPROVAL ( #901, ( #920 ) ) ;
#908 = AXIS2_PLACEMENT_3D ( 'NONE', #54, #60, #65 ) ;
#909 = AXIS2_PLACEMENT_3D ( 'NONE', #96, #85, #93 ) ;
#910 = CC_DESIGN_PERSON_AND_ORGANIZATION_ASSIGNMENT ( #773, #99, ( #920 ) ) ;
#911 = AXIS2_PLACEMENT_3D ( 'NONE', #183, #241, #254 ) ;
#912 = APPROVAL ( #78, 'UNSPECIFIED' ) ;
#913 = AXIS2_PLACEMENT_3D ( 'NONE', #172, #160, #166 ) ;
#914 = AXIS2_PLACEMENT_3D ( 'NONE', #84, #87, #102 ) ;
#915 = PRODUCT_DEFINITION_FORMATION_WITH_SPECIFIED_SOURCE ( 'ANY', '', #155, .NOT_KNOWN. ) ;
#916 = AXIS2_PLACEMENT_3D ( 'NONE', #158, #159, #177 ) ;
#917 = CC_DESIGN_DATE_AND_TIME_ASSIGNMENT ( #755, #106, ( #902 ) ) ;
#918 = AXIS2_PLACEMENT_3D ( 'NONE', #27, #26, #21 ) ;
#919 = AXIS2_PLACEMENT_3D ( 'NONE', #22, #18, #24 ) ;
#920 = PRODUCT_DEFINITION ( 'UNKNOWN', '', #915, #375 ) ;
#921 = CC_DESIGN_PERSON_AND_ORGANIZATION_ASSIGNMENT ( #779, #75, ( #915 ) ) ;
#922 = MANIFOLD_SOLID_BREP ( 'M8 Tapped Hole1', #396 ) ;
#923 = B_SPLINE_CURVE_WITH_KNOTS ( 'NONE', 3,
 ( #271, #296, #278, #298 ),
 .UNSPECIFIED., .F., .F.,
 ( 4, 4 ),
 ( 3.462573506301413700E-007, 0.0008487537887028141600 ),
 .UNSPECIFIED. ) ;
#924 = B_SPLINE_CURVE_WITH_KNOTS ( 'NONE', 3,
 ( #270, #333, #308, #331 ),
 .UNSPECIFIED., .F., .F.,
 ( 4, 4 ),
 ( 3.462573506304982900E-007, 0.0008487537887028137200 ),
 .UNSPECIFIED. ) ;
#925 = B_SPLINE_CURVE_WITH_KNOTS ( 'NONE', 3,
 ( #326, #327, #319, #335 ),
 .UNSPECIFIED., .F., .F.,
 ( 4, 4 ),
 ( 3.332785926307578100E-007, 0.0008487408099448147300 ),
 .UNSPECIFIED. ) ;
#926 = B_SPLINE_CURVE_WITH_KNOTS ( 'NONE', 3,
 ( #310, #340, #330, #341 ),
 .UNSPECIFIED., .F., .F.,
 ( 4, 4 ),
 ( 3.462573506301413700E-007, 0.0008487537887028139400 ),
 .UNSPECIFIED. ) ;
#927 = UNCERTAINTY_MEASURE_WITH_UNIT (LENGTH_MEASURE( 1.000000000000000100E-005 ), #100, 'distance_accuracy_value', 'NONE');
#928 = B_SPLINE_CURVE_WITH_KNOTS ( 'NONE', 3,
 ( #20, #28, #25, #12 ),
 .UNSPECIFIED., .F., .F.,
 ( 4, 4 ),
 ( 3.332785926307578100E-007, 0.0008487408099448147300 ),
 .UNSPECIFIED. ) ;
#929 = B_SPLINE_CURVE_WITH_KNOTS ( 'NONE', 3,
 ( #30, #11, #15, #16 ),
 .UNSPECIFIED., .F., .F.,
 ( 4, 4 ),
 ( 3.462573506304982900E-007, 0.0008487537887028137200 ),
 .UNSPECIFIED. ) ;
#930 = B_SPLINE_CURVE_WITH_KNOTS ( 'NONE', 3,
 ( #324, #4, #13, #19 ),
 .UNSPECIFIED., .F., .F.,
 ( 4, 4 ),
 ( 3.332785926291007500E-007, 0.0008487408099448124500 ),
 .UNSPECIFIED. ) ;
#931 = ADVANCED_BREP_SHAPE_REPRESENTATION ( 'ALP0654', ( #922, #909 ), #895 ) ;
#932 = B_SPLINE_CURVE_WITH_KNOTS ( 'NONE', 3,
 ( #43, #69, #53, #62 ),
 .UNSPECIFIED., .F., .F.,
 ( 4, 4 ),
 ( 3.332785926291007500E-007, 0.0008487408099448124500 ),
 .UNSPECIFIED. ) ;
ENDSEC;
END-ISO-10303-21;
