ISO-10303-21;
HEADER;
FILE_DESCRIPTION (( 'STEP AP203' ),
    '1' );
FILE_NAME ('ALP0662.STEP',
    '2017-02-02T14:40:25',
    ( '' ),
    ( '' ),
    'SwSTEP 2.0',
    'SolidWorks 2012',
    '' );
FILE_SCHEMA (( 'CONFIG_CONTROL_DESIGN' ));
ENDSEC;

DATA;
#1 = DESIGN_CONTEXT ( 'detailed design', #515, 'design' ) ;
#2 = PRODUCT_DEFINITION_SHAPE ( 'NONE', 'NONE',  #1233 ) ;
#3 = ADVANCED_FACE ( 'NONE', ( #876 ), #48, .F. ) ;
#4 = ADVANCED_FACE ( 'NONE', ( #547 ), #53, .F. ) ;
#5 = ADVANCED_FACE ( 'NONE', ( #842 ), #46, .F. ) ;
#6 = ADVANCED_FACE ( 'NONE', ( #838 ), #56, .F. ) ;
#7 = ADVANCED_FACE ( 'NONE', ( #846 ), #862, .F. ) ;
#8 = ADVANCED_FACE ( 'NONE', ( #845 ), #63, .F. ) ;
#9 = ADVANCED_FACE ( 'NONE', ( #852 ), #917, .F. ) ;
#10 = ADVANCED_FACE ( 'NONE', ( #855 ), #922, .F. ) ;
#11 = ADVANCED_FACE ( 'NONE', ( #863, #891, #847, #881, #919 ), #51, .F. ) ;
#12 = ADVANCED_FACE ( 'NONE', ( #878 ), #77, .T. ) ;
#13 = ADVANCED_FACE ( 'NONE', ( #904 ), #43, .F. ) ;
#14 = ADVANCED_FACE ( 'NONE', ( #916 ), #49, .F. ) ;
#15 = ADVANCED_FACE ( 'NONE', ( #888 ), #85, .F. ) ;
#16 = ADVANCED_FACE ( 'NONE', ( #906 ), #923, .F. ) ;
#17 = ADVANCED_FACE ( 'NONE', ( #901 ), #88, .F. ) ;
#18 = ADVANCED_FACE ( 'NONE', ( #907 ), #893, .F. ) ;
#19 = ADVANCED_FACE ( 'NONE', ( #920 ), #119, .F. ) ;
#20 = ADVANCED_FACE ( 'NONE', ( #882 ), #94, .F. ) ;
#21 = ADVANCED_FACE ( 'NONE', ( #925 ), #924, .F. ) ;
#22 = ADVANCED_FACE ( 'NONE', ( #887 ), #93, .F. ) ;
#23 = ADVANCED_FACE ( 'NONE', ( #908 ), #895, .F. ) ;
#24 = ADVANCED_FACE ( 'NONE', ( #905 ), #100, .F. ) ;
#25 = ADVANCED_FACE ( 'NONE', ( #879 ), #101, .F. ) ;
#26 = ADVANCED_FACE ( 'NONE', ( #915 ), #124, .F. ) ;
#27 = ADVANCED_FACE ( 'NONE', ( #903 ), #143, .F. ) ;
#28 = ADVANCED_FACE ( 'NONE', ( #880 ), #890, .F. ) ;
#29 = ADVANCED_FACE ( 'NONE', ( #909 ), #172, .F. ) ;
#30 = ADVANCED_FACE ( 'NONE', ( #885 ), #918, .F. ) ;
#31 = ADVANCED_FACE ( 'NONE', ( #894 ), #912, .F. ) ;
#32 = ADVANCED_FACE ( 'NONE', ( #910 ), #166, .F. ) ;
#33 = ADVANCED_FACE ( 'NONE', ( #913 ), #144, .F. ) ;
#34 = ADVANCED_FACE ( 'NONE', ( #896 ), #898, .F. ) ;
#35 = ADVANCED_FACE ( 'NONE', ( #892 ), #902, .F. ) ;
#36 = ADVANCED_FACE ( 'NONE', ( #897 ), #886, .F. ) ;
#37 = ADVANCED_FACE ( 'NONE', ( #911 ), #899, .F. ) ;
#38 = ADVANCED_FACE ( 'NONE', ( #921 ), #900, .F. ) ;
#39 = ADVANCED_FACE ( 'NONE', ( #883 ), #889, .F. ) ;
#40 = ADVANCED_FACE ( 'NONE', ( #914 ), #132, .F. ) ;
#41 = ADVANCED_FACE ( 'NONE', ( #884 ), #201, .F. ) ;
#42 = DIRECTION ( 'NONE',  ( 1.000000000000000000, 0.0000000000000000000, 0.0000000000000000000 ) ) ;
#43 = PLANE ( 'NONE',  #1187 ) ;
#44 = DIRECTION ( 'NONE',  ( -1.000000000000000000, 0.0000000000000000000, 0.0000000000000000000 ) ) ;
#45 = CARTESIAN_POINT ( 'NONE',  ( 4.900000000000000400, 0.0000000000000000000, 40.00000000000000000 ) ) ;
#46 = PLANE ( 'NONE',  #1155 ) ;
#47 = DIRECTION ( 'NONE',  ( 0.0000000000000000000, 0.0000000000000000000, -1.000000000000000000 ) ) ;
#48 = PLANE ( 'NONE',  #1131 ) ;
#49 = PLANE ( 'NONE',  #1193 ) ;
#50 = CARTESIAN_POINT ( 'NONE',  ( 1.224646799147351300E-015, 0.5000000000000111000, 40.00000000000000000 ) ) ;
#51 = PLANE ( 'NONE',  #1159 ) ;
#52 = DIRECTION ( 'NONE',  ( 0.7071067811865561200, 0.7071067811865390200, -0.0000000000000000000 ) ) ;
#53 = PLANE ( 'NONE',  #1161 ) ;
#54 = DIRECTION ( 'NONE',  ( 0.0000000000000000000, 0.0000000000000000000, -1.000000000000000000 ) ) ;
#55 = CARTESIAN_POINT ( 'NONE',  ( 0.0000000000000000000, 0.0000000000000000000, 40.00000000000000000 ) ) ;
#56 = PLANE ( 'NONE',  #1132 ) ;
#57 = CARTESIAN_POINT ( 'NONE',  ( 1.224646799147351300E-015, 0.0000000000000000000, -30.00000000000000000 ) ) ;
#58 = CARTESIAN_POINT ( 'NONE',  ( 1.224646799147351300E-015, 0.0000000000000000000, 30.00000000000000000 ) ) ;
#59 = DIRECTION ( 'NONE',  ( 0.0000000000000000000, 0.0000000000000000000, 1.000000000000000000 ) ) ;
#60 = DIRECTION ( 'NONE',  ( 0.0000000000000000000, 0.0000000000000000000, 1.000000000000000000 ) ) ;
#61 = DIRECTION ( 'NONE',  ( -1.000000000000000000, 0.0000000000000000000, 0.0000000000000000000 ) ) ;
#62 = CARTESIAN_POINT ( 'NONE',  ( -4.900000000000000400, 0.0000000000000000000, 40.00000000000000000 ) ) ;
#63 = PLANE ( 'NONE',  #1148 ) ;
#64 = DIRECTION ( 'NONE',  ( -0.0000000000000000000, -1.000000000000000000, -0.0000000000000000000 ) ) ;
#65 = DIRECTION ( 'NONE',  ( 0.7071067811865394700, 0.7071067811865555700, 0.0000000000000000000 ) ) ;
#66 = DIRECTION ( 'NONE',  ( 0.0000000000000000000, 0.0000000000000000000, -1.000000000000000000 ) ) ;
#67 = DIRECTION ( 'NONE',  ( 0.7071067811865555700, -0.7071067811865394700, 0.0000000000000000000 ) ) ;
#68 = DIRECTION ( 'NONE',  ( -0.0000000000000000000, -1.000000000000000000, -0.0000000000000000000 ) ) ;
#69 = CARTESIAN_POINT ( 'NONE',  ( 6.800000000000068200, 10.49999999999999800, 40.00000000000000000 ) ) ;
#70 = DIRECTION ( 'NONE',  ( -0.0000000000000000000, -1.000000000000000000, -0.0000000000000000000 ) ) ;
#71 = CARTESIAN_POINT ( 'NONE',  ( -9.800000000000000700, 7.500000000000000000, 40.00000000000000000 ) ) ;
#72 = DIRECTION ( 'NONE',  ( 0.0000000000000000000, 0.0000000000000000000, -1.000000000000000000 ) ) ;
#73 = DIRECTION ( 'NONE',  ( 0.0000000000000000000, -0.0000000000000000000, -1.000000000000000000 ) ) ;
#74 = CARTESIAN_POINT ( 'NONE',  ( 1.224646799147351300E-015, 0.5000000000000111000, 40.00000000000000000 ) ) ;
#75 = DIRECTION ( 'NONE',  ( 0.0000000000000000000, 0.0000000000000000000, -1.000000000000000000 ) ) ;
#76 = CARTESIAN_POINT ( 'NONE',  ( 1.224646799147351300E-015, 0.0000000000000000000, 30.00000000000000000 ) ) ;
#77 = PLANE ( 'NONE',  #1188 ) ;
#78 = DIRECTION ( 'NONE',  ( -1.000000000000000000, 0.0000000000000000000, 0.0000000000000000000 ) ) ;
#79 = DIRECTION ( 'NONE',  ( 0.0000000000000000000, 0.0000000000000000000, -1.000000000000000000 ) ) ;
#80 = DIRECTION ( 'NONE',  ( -1.000000000000000000, 0.0000000000000000000, 0.0000000000000000000 ) ) ;
#81 = DIRECTION ( 'NONE',  ( -0.7071067811865544600, 0.7071067811865406900, 0.0000000000000000000 ) ) ;
#82 = DIRECTION ( 'NONE',  ( 0.0000000000000000000, -1.000000000000000000, 0.0000000000000000000 ) ) ;
#83 = DIRECTION ( 'NONE',  ( -0.7071067811865406900, -0.7071067811865544600, 0.0000000000000000000 ) ) ;
#84 = CARTESIAN_POINT ( 'NONE',  ( 0.0000000000000000000, 0.0000000000000000000, -40.00000000000000000 ) ) ;
#85 = PLANE ( 'NONE',  #1189 ) ;
#86 = CARTESIAN_POINT ( 'NONE',  ( 9.800000000000000700, 5.000000000000000000, 40.00000000000000000 ) ) ;
#87 = CARTESIAN_POINT ( 'NONE',  ( 1.224646799147351300E-015, 0.0000000000000000000, 10.00000000000000400 ) ) ;
#88 = PLANE ( 'NONE',  #1196 ) ;
#89 = DIRECTION ( 'NONE',  ( -0.0000000000000000000, -1.000000000000000000, -0.0000000000000000000 ) ) ;
#90 = DIRECTION ( 'NONE',  ( -0.0000000000000000000, -1.000000000000000000, -0.0000000000000000000 ) ) ;
#91 = DIRECTION ( 'NONE',  ( 0.0000000000000000000, 0.0000000000000000000, -1.000000000000000000 ) ) ;
#92 = DIRECTION ( 'NONE',  ( 0.7071067811865561200, 0.7071067811865390200, -0.0000000000000000000 ) ) ;
#93 = PLANE ( 'NONE',  #1219 ) ;
#94 = PLANE ( 'NONE',  #1197 ) ;
#95 = DIRECTION ( 'NONE',  ( 0.7071067811865561200, 0.7071067811865390200, -0.0000000000000000000 ) ) ;
#96 = DIRECTION ( 'NONE',  ( -0.7071067811865390200, 0.7071067811865561200, 0.0000000000000000000 ) ) ;
#97 = DIRECTION ( 'NONE',  ( -0.7071067811865406900, -0.7071067811865544600, 0.0000000000000000000 ) ) ;
#98 = DIRECTION ( 'NONE',  ( 0.0000000000000000000, -0.0000000000000000000, 1.000000000000000000 ) ) ;
#99 = CARTESIAN_POINT ( 'NONE',  ( 1.224646799147351300E-015, 0.0000000000000000000, 10.00000000000000400 ) ) ;
#100 = PLANE ( 'NONE',  #1215 ) ;
#101 = PLANE ( 'NONE',  #1185 ) ;
#102 = CARTESIAN_POINT ( 'NONE',  ( 1.224646799147351300E-015, 0.5000000000000111000, 40.00000000000000000 ) ) ;
#103 = DIRECTION ( 'NONE',  ( -0.7071067811865544600, 0.7071067811865406900, 0.0000000000000000000 ) ) ;
#104 = DIRECTION ( 'NONE',  ( 0.0000000000000000000, 0.0000000000000000000, 1.000000000000000000 ) ) ;
#105 = CARTESIAN_POINT ( 'NONE',  ( 1.224646799147351300E-015, 0.0000000000000000000, -30.00000000000000000 ) ) ;
#106 = DIRECTION ( 'NONE',  ( 0.0000000000000000000, 1.000000000000000000, 0.0000000000000000000 ) ) ;
#107 = CARTESIAN_POINT ( 'NONE',  ( 4.900000000000000400, 5.000000000000000000, 40.00000000000000000 ) ) ;
#108 = DIRECTION ( 'NONE',  ( 0.0000000000000000000, 0.0000000000000000000, -1.000000000000000000 ) ) ;
#109 = DIRECTION ( 'NONE',  ( 0.0000000000000000000, 0.0000000000000000000, -1.000000000000000000 ) ) ;
#110 = CARTESIAN_POINT ( 'NONE',  ( 0.5000000000000001100, 0.0000000000000000000, 40.00000000000000000 ) ) ;
#111 = DIRECTION ( 'NONE',  ( 0.0000000000000000000, 0.0000000000000000000, -1.000000000000000000 ) ) ;
#112 = DIRECTION ( 'NONE',  ( -0.7071067811865406900, -0.7071067811865544600, 0.0000000000000000000 ) ) ;
#113 = DIRECTION ( 'NONE',  ( 0.0000000000000000000, -0.0000000000000000000, 1.000000000000000000 ) ) ;
#114 = CARTESIAN_POINT ( 'NONE',  ( 1.224646799147351300E-015, 0.0000000000000000000, -10.00000000000000000 ) ) ;
#115 = DIRECTION ( 'NONE',  ( -0.7071067811865390200, 0.7071067811865561200, 0.0000000000000000000 ) ) ;
#116 = DIRECTION ( 'NONE',  ( -0.0000000000000000000, -1.000000000000000000, -0.0000000000000000000 ) ) ;
#117 = CARTESIAN_POINT ( 'NONE',  ( 1.224646799147351300E-015, 0.5000000000000111000, 40.00000000000000000 ) ) ;
#118 = DIRECTION ( 'NONE',  ( -0.7071067811865390200, 0.7071067811865561200, 0.0000000000000000000 ) ) ;
#119 = PLANE ( 'NONE',  #1183 ) ;
#120 = CARTESIAN_POINT ( 'NONE',  ( 1.224646799147351300E-015, 0.5000000000000111000, 40.00000000000000000 ) ) ;
#121 = DIRECTION ( 'NONE',  ( -0.0000000000000000000, -1.000000000000000000, -0.0000000000000000000 ) ) ;
#122 = CARTESIAN_POINT ( 'NONE',  ( 1.224646799147351300E-015, 0.5000000000000111000, 40.00000000000000000 ) ) ;
#123 = DIRECTION ( 'NONE',  ( 0.0000000000000000000, 1.000000000000000000, -0.0000000000000000000 ) ) ;
#124 = PLANE ( 'NONE',  #1202 ) ;
#125 = CARTESIAN_POINT ( 'NONE',  ( -0.5000000000000001100, 0.0000000000000000000, 40.00000000000000000 ) ) ;
#126 = DIRECTION ( 'NONE',  ( -0.7071067811865544600, 0.7071067811865406900, 0.0000000000000000000 ) ) ;
#127 = DIRECTION ( 'NONE',  ( 0.0000000000000000000, 1.000000000000000000, 0.0000000000000000000 ) ) ;
#128 = CARTESIAN_POINT ( 'NONE',  ( 1.224646799147351300E-015, 0.0000000000000000000, -10.00000000000000000 ) ) ;
#129 = DIRECTION ( 'NONE',  ( -0.7071067811865406900, -0.7071067811865544600, 0.0000000000000000000 ) ) ;
#130 = DIRECTION ( 'NONE',  ( -0.0000000000000000000, -1.000000000000000000, -0.0000000000000000000 ) ) ;
#131 = DIRECTION ( 'NONE',  ( 0.0000000000000000000, 0.0000000000000000000, -1.000000000000000000 ) ) ;
#132 = PLANE ( 'NONE',  #1180 ) ;
#133 = CARTESIAN_POINT ( 'NONE',  ( 1.224646799147351300E-015, 0.5000000000000111000, 40.00000000000000000 ) ) ;
#134 = DIRECTION ( 'NONE',  ( -0.0000000000000000000, -1.000000000000000000, -0.0000000000000000000 ) ) ;
#135 = DIRECTION ( 'NONE',  ( -0.7071067811865553400, -0.7071067811865396900, 0.0000000000000000000 ) ) ;
#136 = DIRECTION ( 'NONE',  ( 0.0000000000000000000, 0.0000000000000000000, -1.000000000000000000 ) ) ;
#137 = DIRECTION ( 'NONE',  ( 0.0000000000000000000, 0.0000000000000000000, -1.000000000000000000 ) ) ;
#138 = CARTESIAN_POINT ( 'NONE',  ( 1.224646799147351300E-015, 0.0000000000000000000, 30.00000000000000000 ) ) ;
#139 = DIRECTION ( 'NONE',  ( -0.0000000000000000000, -1.000000000000000000, -0.0000000000000000000 ) ) ;
#140 = DIRECTION ( 'NONE',  ( 0.0000000000000000000, 0.0000000000000000000, -1.000000000000000000 ) ) ;
#141 = DIRECTION ( 'NONE',  ( 0.0000000000000000000, 0.0000000000000000000, 1.000000000000000000 ) ) ;
#142 = CARTESIAN_POINT ( 'NONE',  ( -4.900000000000000400, 5.000000000000000000, 40.00000000000000000 ) ) ;
#143 = PLANE ( 'NONE',  #1207 ) ;
#144 = PLANE ( 'NONE',  #1178 ) ;
#145 = CARTESIAN_POINT ( 'NONE',  ( 1.224646799147351300E-015, 0.0000000000000000000, -30.00000000000000000 ) ) ;
#146 = DIRECTION ( 'NONE',  ( -0.7071067811865544600, 0.7071067811865406900, 0.0000000000000000000 ) ) ;
#147 = CARTESIAN_POINT ( 'NONE',  ( 1.224646799147351300E-015, 0.0000000000000000000, -10.00000000000000000 ) ) ;
#148 = CARTESIAN_POINT ( 'NONE',  ( 9.800000000000000700, 7.500000000000000000, 40.00000000000000000 ) ) ;
#149 = DIRECTION ( 'NONE',  ( 0.7071067811865561200, 0.7071067811865390200, -0.0000000000000000000 ) ) ;
#150 = DIRECTION ( 'NONE',  ( -0.0000000000000000000, -1.000000000000000000, -0.0000000000000000000 ) ) ;
#151 = DIRECTION ( 'NONE',  ( 0.0000000000000000000, 0.0000000000000000000, -1.000000000000000000 ) ) ;
#152 = CARTESIAN_POINT ( 'NONE',  ( 1.224646799147351300E-015, 0.5000000000000111000, 40.00000000000000000 ) ) ;
#153 = DIRECTION ( 'NONE',  ( 0.0000000000000000000, 1.000000000000000000, -0.0000000000000000000 ) ) ;
#154 = DIRECTION ( 'NONE',  ( 1.000000000000000000, 0.0000000000000000000, 0.0000000000000000000 ) ) ;
#155 = DIRECTION ( 'NONE',  ( 0.0000000000000000000, 0.0000000000000000000, -1.000000000000000000 ) ) ;
#156 = CARTESIAN_POINT ( 'NONE',  ( 1.224646799147351300E-015, 0.0000000000000000000, 30.00000000000000000 ) ) ;
#157 = CARTESIAN_POINT ( 'NONE',  ( 1.224646799147351300E-015, 0.0000000000000000000, -30.00000000000000000 ) ) ;
#158 = DIRECTION ( 'NONE',  ( -0.0000000000000000000, -1.000000000000000000, -0.0000000000000000000 ) ) ;
#159 = CARTESIAN_POINT ( 'NONE',  ( 1.224646799147351300E-015, 0.0000000000000000000, 10.00000000000000400 ) ) ;
#160 = DIRECTION ( 'NONE',  ( -0.0000000000000000000, -1.000000000000000000, -0.0000000000000000000 ) ) ;
#161 = CARTESIAN_POINT ( 'NONE',  ( -9.800000000000000700, 5.000000000000000000, 40.00000000000000000 ) ) ;
#162 = DIRECTION ( 'NONE',  ( 0.7071067811865396900, -0.7071067811865553400, 0.0000000000000000000 ) ) ;
#163 = DIRECTION ( 'NONE',  ( 0.0000000000000000000, 0.0000000000000000000, -1.000000000000000000 ) ) ;
#164 = DIRECTION ( 'NONE',  ( -0.0000000000000000000, -1.000000000000000000, -0.0000000000000000000 ) ) ;
#165 = DIRECTION ( 'NONE',  ( 0.0000000000000000000, 0.0000000000000000000, -1.000000000000000000 ) ) ;
#166 = PLANE ( 'NONE',  #1182 ) ;
#167 = DIRECTION ( 'NONE',  ( -0.7071067811865390200, 0.7071067811865561200, 0.0000000000000000000 ) ) ;
#168 = CARTESIAN_POINT ( 'NONE',  ( 1.224646799147351300E-015, 0.0000000000000000000, -10.00000000000000000 ) ) ;
#169 = DIRECTION ( 'NONE',  ( -0.0000000000000000000, -1.000000000000000000, -0.0000000000000000000 ) ) ;
#170 = DIRECTION ( 'NONE',  ( -0.0000000000000000000, -1.000000000000000000, -0.0000000000000000000 ) ) ;
#171 = CARTESIAN_POINT ( 'NONE',  ( 1.224646799147351300E-015, 0.5000000000000111000, 40.00000000000000000 ) ) ;
#172 = PLANE ( 'NONE',  #1226 ) ;
#173 = DIRECTION ( 'NONE',  ( 0.0000000000000000000, 0.0000000000000000000, -1.000000000000000000 ) ) ;
#174 = DIRECTION ( 'NONE',  ( 0.0000000000000000000, 0.0000000000000000000, -1.000000000000000000 ) ) ;
#175 = CARTESIAN_POINT ( 'NONE',  ( 1.224646799147351300E-015, 0.0000000000000000000, 10.00000000000000400 ) ) ;
#176 = CARTESIAN_POINT ( 'NONE',  ( 1.224646799147351300E-015, 0.5000000000000111000, -40.00000000000000000 ) ) ;
#177 = CARTESIAN_POINT ( 'NONE',  ( 4.900000000000000400, 0.0000000000000000000, -40.00000000000000000 ) ) ;
#178 = CARTESIAN_POINT ( 'NONE',  ( -4.900000000000000400, 5.000000000000000000, 40.00000000000000000 ) ) ;
#179 = CARTESIAN_POINT ( 'NONE',  ( 9.800000000000000700, 7.500000000000000000, -40.00000000000000000 ) ) ;
#180 = CARTESIAN_POINT ( 'NONE',  ( -9.800000000000000700, 5.000000000000000000, 40.00000000000000000 ) ) ;
#181 = CARTESIAN_POINT ( 'NONE',  ( 1.224646799147351300E-015, 0.6250000000000005600, 26.59999999999999800 ) ) ;
#182 = CARTESIAN_POINT ( 'NONE',  ( 1.642129097523574600E-015, 0.5000000000000106600, -13.52499999999999000 ) ) ;
#183 = CARTESIAN_POINT ( 'NONE',  ( -4.900000000000000400, 5.000000000000000000, -40.00000000000000000 ) ) ;
#184 = DIRECTION ( 'NONE',  ( 0.7071067811865561200, 0.7071067811865390200, -0.0000000000000000000 ) ) ;
#185 = CARTESIAN_POINT ( 'NONE',  ( 0.5000000000000001100, 0.0000000000000000000, -13.99382335613382000 ) ) ;
#186 = CARTESIAN_POINT ( 'NONE',  ( -0.5000000000000001100, 0.0000000000000000000, 26.00617664386618000 ) ) ;
#187 = CARTESIAN_POINT ( 'NONE',  ( 1.224646799147351300E-015, 10.49999999999999800, -33.39999999999999900 ) ) ;
#188 = CARTESIAN_POINT ( 'NONE',  ( 0.5000000000000001100, 0.0000000000000000000, 40.00000000000000000 ) ) ;
#189 = DIRECTION ( 'NONE',  ( -0.7071067811865544600, 0.7071067811865406900, 0.0000000000000000000 ) ) ;
#190 = CARTESIAN_POINT ( 'NONE',  ( -6.832368492485747000E-016, 0.5000000000000129900, -26.47500000000001200 ) ) ;
#191 = CARTESIAN_POINT ( 'NONE',  ( 1.641026710857451100E-015, 10.49999999999999800, -6.600000000000002300 ) ) ;
#192 = CARTESIAN_POINT ( 'NONE',  ( 1.679296923330806100E-015, 0.6250000000000005600, -6.600000000000000500 ) ) ;
#193 = CARTESIAN_POINT ( 'NONE',  ( 1.641026710857450900E-015, 10.49999999999999800, -26.60000000000000100 ) ) ;
#194 = CARTESIAN_POINT ( 'NONE',  ( 0.5000000000000001100, 0.0000000000000000000, 6.006176643866183400 ) ) ;
#195 = CARTESIAN_POINT ( 'NONE',  ( 0.5000000000000001100, 0.0000000000000000000, 33.99382335613381700 ) ) ;
#196 = CARTESIAN_POINT ( 'NONE',  ( 6.800000000000068200, 10.49999999999999800, -40.00000000000000000 ) ) ;
#197 = CARTESIAN_POINT ( 'NONE',  ( -9.800000000000000700, 5.000000000000000000, -40.00000000000000000 ) ) ;
#198 = CARTESIAN_POINT ( 'NONE',  ( 0.5000000000000001100, 0.0000000000000000000, -40.00000000000000000 ) ) ;
#199 = CARTESIAN_POINT ( 'NONE',  ( -6.800000000000070000, 10.49999999999999800, -40.00000000000000000 ) ) ;
#200 = CARTESIAN_POINT ( 'NONE',  ( 1.679296923330806100E-015, 0.6250000000000005600, 13.40000000000000200 ) ) ;
#201 = PLANE ( 'NONE',  #1186 ) ;
#202 = CARTESIAN_POINT ( 'NONE',  ( 1.679296923330806100E-015, 0.6250000000000005600, 33.39999999999999900 ) ) ;
#203 = CARTESIAN_POINT ( 'NONE',  ( 1.224646799147351300E-015, 0.5000000000000111000, 40.00000000000000000 ) ) ;
#204 = CARTESIAN_POINT ( 'NONE',  ( -0.5000000000000001100, 0.0000000000000000000, 13.99382335613382400 ) ) ;
#205 = CARTESIAN_POINT ( 'NONE',  ( 6.800000000000068200, 10.49999999999999800, 40.00000000000000000 ) ) ;
#206 = DIRECTION ( 'NONE',  ( -0.7071067811865390200, 0.7071067811865561200, 0.0000000000000000000 ) ) ;
#207 = CARTESIAN_POINT ( 'NONE',  ( 4.619080196566617100E-016, 0.5000000000000118800, 33.52499999999998400 ) ) ;
#208 = CARTESIAN_POINT ( 'NONE',  ( 1.641026710857450900E-015, 10.49999999999999800, 33.39999999999999900 ) ) ;
#209 = CARTESIAN_POINT ( 'NONE',  ( -0.5000000000000001100, 0.0000000000000000000, 40.00000000000000000 ) ) ;
#210 = CARTESIAN_POINT ( 'NONE',  ( -0.5000000000000001100, 0.0000000000000000000, -33.99382335613381700 ) ) ;
#211 = CARTESIAN_POINT ( 'NONE',  ( 9.800000000000000700, 5.000000000000000000, -40.00000000000000000 ) ) ;
#212 = CARTESIAN_POINT ( 'NONE',  ( 0.5000000000000001100, 0.0000000000000000000, 13.99382335613382400 ) ) ;
#213 = CARTESIAN_POINT ( 'NONE',  ( 1.641026710857451100E-015, 10.49999999999999800, 13.40000000000000200 ) ) ;
#214 = CARTESIAN_POINT ( 'NONE',  ( -0.5000000000000001100, 0.0000000000000000000, -40.00000000000000000 ) ) ;
#215 = CARTESIAN_POINT ( 'NONE',  ( 0.5000000000000001100, 0.0000000000000000000, 26.00617664386617600 ) ) ;
#216 = CARTESIAN_POINT ( 'NONE',  ( 1.645761357453220100E-015, 0.5000000000000106600, 6.475000000000014700 ) ) ;
#217 = DIRECTION ( 'NONE',  ( -0.7071067811865406900, -0.7071067811865544600, 0.0000000000000000000 ) ) ;
#218 = CARTESIAN_POINT ( 'NONE',  ( 2.788466900620399600E-015, 0.5000000000000095500, -33.52499999999999100 ) ) ;
#219 = CARTESIAN_POINT ( 'NONE',  ( 1.636992305515723500E-015, 0.5000000000000106600, 26.47500000000000900 ) ) ;
#220 = CARTESIAN_POINT ( 'NONE',  ( -0.5000000000000001100, 0.0000000000000000000, -6.006176643866180800 ) ) ;
#221 = CARTESIAN_POINT ( 'NONE',  ( 4.619080196566617100E-016, 0.5000000000000118800, 13.52499999999999100 ) ) ;
#222 = CARTESIAN_POINT ( 'NONE',  ( 0.5000000000000001100, 0.0000000000000000000, -6.006176643866181700 ) ) ;
#223 = CARTESIAN_POINT ( 'NONE',  ( -4.900000000000000400, 0.0000000000000000000, 40.00000000000000000 ) ) ;
#224 = CARTESIAN_POINT ( 'NONE',  ( -0.5000000000000001100, 0.0000000000000000000, 33.99382335613381700 ) ) ;
#225 = CARTESIAN_POINT ( 'NONE',  ( -9.800000000000000700, 7.500000000000000000, -40.00000000000000000 ) ) ;
#226 = CARTESIAN_POINT ( 'NONE',  ( 4.619080196566617100E-016, 0.5000000000000118800, -6.475000000000012100 ) ) ;
#227 = CARTESIAN_POINT ( 'NONE',  ( 1.224646799147351300E-015, 0.6250000000000005600, 6.600000000000005000 ) ) ;
#228 = CARTESIAN_POINT ( 'NONE',  ( 1.224646799147351300E-015, 10.49999999999999800, 6.600000000000005900 ) ) ;
#229 = CARTESIAN_POINT ( 'NONE',  ( 0.5000000000000001100, 0.0000000000000000000, -33.99382335613381700 ) ) ;
#230 = CARTESIAN_POINT ( 'NONE',  ( 4.900000000000000400, 5.000000000000000000, 40.00000000000000000 ) ) ;
#231 = CARTESIAN_POINT ( 'NONE',  ( -4.900000000000000400, 0.0000000000000000000, -40.00000000000000000 ) ) ;
#232 = CARTESIAN_POINT ( 'NONE',  ( 0.5000000000000001100, 0.0000000000000000000, -26.00617664386618300 ) ) ;
#233 = CARTESIAN_POINT ( 'NONE',  ( -0.5000000000000001100, 0.0000000000000000000, -26.00617664386618000 ) ) ;
#234 = CARTESIAN_POINT ( 'NONE',  ( 1.224646799147351300E-015, 10.49999999999999800, -13.39999999999999900 ) ) ;
#235 = CARTESIAN_POINT ( 'NONE',  ( -0.5000000000000001100, 0.0000000000000000000, -13.99382335613382000 ) ) ;
#236 = CARTESIAN_POINT ( 'NONE',  ( 1.679296923330805900E-015, 0.6250000000000005600, -26.59999999999999800 ) ) ;
#237 = CARTESIAN_POINT ( 'NONE',  ( -0.5000000000000001100, 0.0000000000000000000, 6.006176643866184300 ) ) ;
#238 = CARTESIAN_POINT ( 'NONE',  ( 1.224646799147351300E-015, 10.49999999999999800, 26.60000000000000100 ) ) ;
#239 = CARTESIAN_POINT ( 'NONE',  ( -4.900000000000000400, 5.000000000000000000, 40.00000000000000000 ) ) ;
#240 = CARTESIAN_POINT ( 'NONE',  ( -4.900000000000000400, 5.000000000000000000, 40.00000000000000000 ) ) ;
#241 = DIRECTION ( 'NONE',  ( -0.0000000000000000000, -0.0000000000000000000, -1.000000000000000000 ) ) ;
#242 = CARTESIAN_POINT ( 'NONE',  ( 1.224646799147351300E-015, 0.5000000000000111000, 40.00000000000000000 ) ) ;
#243 = CARTESIAN_POINT ( 'NONE',  ( -9.800000000000000700, 7.500000000000000000, 40.00000000000000000 ) ) ;
#244 = CARTESIAN_POINT ( 'NONE',  ( -9.800000000000000700, 5.000000000000000000, -40.00000000000000000 ) ) ;
#245 = CARTESIAN_POINT ( 'NONE',  ( 0.3302917213469119300, 0.1697082786530923500, 33.84403664077162000 ) ) ;
#246 = DIRECTION ( 'NONE',  ( -0.0000000000000000000, -0.0000000000000000000, -1.000000000000000000 ) ) ;
#247 = CARTESIAN_POINT ( 'NONE',  ( -9.800000000000000700, 7.500000000000000000, 40.00000000000000000 ) ) ;
#248 = CARTESIAN_POINT ( 'NONE',  ( 0.5000000000000001100, 0.0000000000000000000, 26.00617664386617600 ) ) ;
#249 = CARTESIAN_POINT ( 'NONE',  ( 4.619080196566617100E-016, 0.5000000000000118800, 33.52499999999998400 ) ) ;
#250 = CARTESIAN_POINT ( 'NONE',  ( 1.224646799147351300E-015, 0.6250000000000005600, -33.39999999999999900 ) ) ;
#251 = DIRECTION ( 'NONE',  ( 0.7071067811865390200, -0.7071067811865561200, 0.0000000000000000000 ) ) ;
#252 = DIRECTION ( 'NONE',  ( 0.0000000000000000000, 0.0000000000000000000, -1.000000000000000000 ) ) ;
#253 = CARTESIAN_POINT ( 'NONE',  ( 1.224646799147351300E-015, 0.6250000000000005600, -13.39999999999999900 ) ) ;
#254 = CARTESIAN_POINT ( 'NONE',  ( 1.636992305515723500E-015, 0.5000000000000106600, 26.47500000000000900 ) ) ;
#255 = DIRECTION ( 'NONE',  ( 1.000000000000000000, -0.0000000000000000000, -0.0000000000000000000 ) ) ;
#256 = CARTESIAN_POINT ( 'NONE',  ( 0.1633496420033406500, 0.3366503579966676500, 33.68834964200333800 ) ) ;
#257 = CARTESIAN_POINT ( 'NONE',  ( -6.800000000000070000, 10.49999999999999800, 40.00000000000000000 ) ) ;
#258 = CARTESIAN_POINT ( 'NONE',  ( 4.900000000000000400, 5.000000000000000000, -40.00000000000000000 ) ) ;
#259 = CARTESIAN_POINT ( 'NONE',  ( 4.900000000000000400, 5.000000000000000000, 40.00000000000000000 ) ) ;
#260 = DIRECTION ( 'NONE',  ( -0.0000000000000000000, -0.0000000000000000000, -1.000000000000000000 ) ) ;
#261 = CARTESIAN_POINT ( 'NONE',  ( 9.800000000000000700, 5.000000000000000000, 40.00000000000000000 ) ) ;
#262 = DIRECTION ( 'NONE',  ( -0.0000000000000000000, -1.000000000000000000, -0.0000000000000000000 ) ) ;
#263 = CARTESIAN_POINT ( 'NONE',  ( 1.224646799147351300E-015, 10.49999999999999800, 30.00000000000000000 ) ) ;
#264 = CARTESIAN_POINT ( 'NONE',  ( -0.5000000000000001100, 0.0000000000000000000, 40.00000000000000000 ) ) ;
#265 = CARTESIAN_POINT ( 'NONE',  ( 1.224646799147351300E-015, 0.5000000000000111000, 40.00000000000000000 ) ) ;
#266 = CARTESIAN_POINT ( 'NONE',  ( 0.5000000000000001100, 0.0000000000000000000, 33.99382335613381700 ) ) ;
#267 = CARTESIAN_POINT ( 'NONE',  ( -0.5000000000000001100, 0.0000000000000000000, 40.00000000000000000 ) ) ;
#268 = CARTESIAN_POINT ( 'NONE',  ( -9.800000000000000700, 7.500000000000000000, -40.00000000000000000 ) ) ;
#269 = CARTESIAN_POINT ( 'NONE',  ( 4.900000000000000400, 0.0000000000000000000, 40.00000000000000000 ) ) ;
#270 = CARTESIAN_POINT ( 'NONE',  ( 1.224646799147351300E-015, 0.5000000000000111000, 40.00000000000000000 ) ) ;
#271 = DIRECTION ( 'NONE',  ( 0.0000000000000000000, 0.0000000000000000000, -1.000000000000000000 ) ) ;
#272 = CARTESIAN_POINT ( 'NONE',  ( 0.3302917213469119300, 0.1697082786530925100, 26.15596335922838400 ) ) ;
#273 = CARTESIAN_POINT ( 'NONE',  ( 4.900000000000000400, 0.0000000000000000000, 40.00000000000000000 ) ) ;
#274 = DIRECTION ( 'NONE',  ( -0.0000000000000000000, -1.000000000000000000, -0.0000000000000000000 ) ) ;
#275 = CARTESIAN_POINT ( 'NONE',  ( 0.1633496420033412300, 0.3366503579966670900, 26.31165035799665800 ) ) ;
#276 = DIRECTION ( 'NONE',  ( 1.000000000000000000, -0.0000000000000000000, -0.0000000000000000000 ) ) ;
#277 = DIRECTION ( 'NONE',  ( -0.0000000000000000000, -1.000000000000000000, -0.0000000000000000000 ) ) ;
#278 = DIRECTION ( 'NONE',  ( 1.000000000000000000, 0.0000000000000000000, 0.0000000000000000000 ) ) ;
#279 = DIRECTION ( 'NONE',  ( -0.7071067811865394700, -0.7071067811865555700, -0.0000000000000000000 ) ) ;
#280 = CARTESIAN_POINT ( 'NONE',  ( 9.800000000000000700, 7.500000000000000000, 40.00000000000000000 ) ) ;
#281 = CARTESIAN_POINT ( 'NONE',  ( 1.224646799147351300E-015, 0.0000000000000000000, -10.00000000000000000 ) ) ;
#282 = CARTESIAN_POINT ( 'NONE',  ( 9.800000000000000700, 5.000000000000000000, -40.00000000000000000 ) ) ;
#283 = DIRECTION ( 'NONE',  ( 0.0000000000000000000, 1.000000000000000000, 0.0000000000000000000 ) ) ;
#284 = DIRECTION ( 'NONE',  ( -0.7071067811865396900, 0.7071067811865553400, 0.0000000000000000000 ) ) ;
#285 = CARTESIAN_POINT ( 'NONE',  ( -4.900000000000000400, 0.0000000000000000000, -40.00000000000000000 ) ) ;
#286 = DIRECTION ( 'NONE',  ( -0.0000000000000000000, -0.0000000000000000000, -1.000000000000000000 ) ) ;
#287 = DIRECTION ( 'NONE',  ( -0.0000000000000000000, -1.000000000000000000, -0.0000000000000000000 ) ) ;
#288 = CARTESIAN_POINT ( 'NONE',  ( 6.800000000000068200, 10.49999999999999800, -40.00000000000000000 ) ) ;
#289 = CARTESIAN_POINT ( 'NONE',  ( -9.800000000000000700, 5.000000000000000000, 40.00000000000000000 ) ) ;
#290 = DIRECTION ( 'NONE',  ( -1.000000000000000000, 0.0000000000000000000, 0.0000000000000000000 ) ) ;
#291 = DIRECTION ( 'NONE',  ( -0.0000000000000000000, -0.0000000000000000000, -1.000000000000000000 ) ) ;
#292 = CARTESIAN_POINT ( 'NONE',  ( 9.800000000000000700, 7.500000000000000000, 40.00000000000000000 ) ) ;
#293 = DIRECTION ( 'NONE',  ( -0.0000000000000000000, -1.000000000000000000, -0.0000000000000000000 ) ) ;
#294 = CARTESIAN_POINT ( 'NONE',  ( 1.224646799147351300E-015, 0.6250000000000005600, 10.00000000000000400 ) ) ;
#295 = DIRECTION ( 'NONE',  ( 0.0000000000000000000, 0.0000000000000000000, -1.000000000000000000 ) ) ;
#296 = CARTESIAN_POINT ( 'NONE',  ( -0.5000000000000001100, 0.0000000000000000000, -40.00000000000000000 ) ) ;
#297 = DIRECTION ( 'NONE',  ( 0.0000000000000000000, 1.000000000000000000, 0.0000000000000000000 ) ) ;
#298 = DIRECTION ( 'NONE',  ( -0.0000000000000000000, -0.0000000000000000000, -1.000000000000000000 ) ) ;
#299 = CARTESIAN_POINT ( 'NONE',  ( -9.800000000000000700, 5.000000000000000000, 40.00000000000000000 ) ) ;
#300 = DIRECTION ( 'NONE',  ( -0.0000000000000000000, -0.0000000000000000000, -1.000000000000000000 ) ) ;
#301 = DIRECTION ( 'NONE',  ( 0.0000000000000000000, 0.0000000000000000000, -1.000000000000000000 ) ) ;
#302 = CARTESIAN_POINT ( 'NONE',  ( 1.224646799147351300E-015, 10.49999999999999800, 10.00000000000000400 ) ) ;
#303 = CARTESIAN_POINT ( 'NONE',  ( 0.5000000000000001100, 0.0000000000000000000, 40.00000000000000000 ) ) ;
#304 = DIRECTION ( 'NONE',  ( -0.0000000000000000000, -0.0000000000000000000, -1.000000000000000000 ) ) ;
#305 = CARTESIAN_POINT ( 'NONE',  ( 0.5000000000000001100, 0.0000000000000000000, 40.00000000000000000 ) ) ;
#306 = CARTESIAN_POINT ( 'NONE',  ( 1.224646799147351300E-015, 0.0000000000000000000, -30.00000000000000000 ) ) ;
#307 = DIRECTION ( 'NONE',  ( -0.0000000000000000000, -1.000000000000000000, -0.0000000000000000000 ) ) ;
#308 = DIRECTION ( 'NONE',  ( 1.000000000000000000, -0.0000000000000000000, -0.0000000000000000000 ) ) ;
#309 = DIRECTION ( 'NONE',  ( -0.0000000000000000000, -1.000000000000000000, -0.0000000000000000000 ) ) ;
#310 = CARTESIAN_POINT ( 'NONE',  ( 9.800000000000000700, 7.500000000000000000, -40.00000000000000000 ) ) ;
#311 = DIRECTION ( 'NONE',  ( -0.0000000000000000000, -1.000000000000000000, -0.0000000000000000000 ) ) ;
#312 = CARTESIAN_POINT ( 'NONE',  ( 9.800000000000000700, 5.000000000000000000, 40.00000000000000000 ) ) ;
#313 = DIRECTION ( 'NONE',  ( 0.0000000000000000000, 0.0000000000000000000, -1.000000000000000000 ) ) ;
#314 = CARTESIAN_POINT ( 'NONE',  ( 4.900000000000000400, 5.000000000000000000, -40.00000000000000000 ) ) ;
#315 = DIRECTION ( 'NONE',  ( 1.000000000000000000, 0.0000000000000000000, 0.0000000000000000000 ) ) ;
#316 = DIRECTION ( 'NONE',  ( -0.0000000000000000000, -1.000000000000000000, -0.0000000000000000000 ) ) ;
#317 = DIRECTION ( 'NONE',  ( 0.0000000000000000000, 0.0000000000000000000, -1.000000000000000000 ) ) ;
#318 = CARTESIAN_POINT ( 'NONE',  ( -9.800000000000000700, 7.500000000000000000, 40.00000000000000000 ) ) ;
#319 = DIRECTION ( 'NONE',  ( -0.7071067811865396900, 0.7071067811865553400, 0.0000000000000000000 ) ) ;
#320 = CARTESIAN_POINT ( 'NONE',  ( 1.224646799147351300E-015, 0.0000000000000000000, 10.00000000000000400 ) ) ;
#321 = DIRECTION ( 'NONE',  ( -0.7071067811865394700, -0.7071067811865555700, -0.0000000000000000000 ) ) ;
#322 = DIRECTION ( 'NONE',  ( -0.0000000000000000000, -1.000000000000000000, -0.0000000000000000000 ) ) ;
#323 = DIRECTION ( 'NONE',  ( -0.0000000000000000000, -0.0000000000000000000, -1.000000000000000000 ) ) ;
#324 = DIRECTION ( 'NONE',  ( -0.0000000000000000000, -1.000000000000000000, -0.0000000000000000000 ) ) ;
#325 = DIRECTION ( 'NONE',  ( 8.659560562354942700E-017, -0.7071067811865468000, 0.7071067811865483500 ) ) ;
#326 = DIRECTION ( 'NONE',  ( 0.0000000000000000000, 1.000000000000000000, 0.0000000000000000000 ) ) ;
#327 = CARTESIAN_POINT ( 'NONE',  ( 4.900000000000000400, 0.0000000000000000000, -40.00000000000000000 ) ) ;
#328 = CARTESIAN_POINT ( 'NONE',  ( 1.224646799147351300E-015, 0.0000000000000000000, 30.00000000000000000 ) ) ;
#329 = DIRECTION ( 'NONE',  ( 0.0000000000000000000, 0.0000000000000000000, -1.000000000000000000 ) ) ;
#330 = CARTESIAN_POINT ( 'NONE',  ( -4.900000000000000400, 0.0000000000000000000, 40.00000000000000000 ) ) ;
#331 = DIRECTION ( 'NONE',  ( -0.0000000000000000000, -0.0000000000000000000, -1.000000000000000000 ) ) ;
#332 = DIRECTION ( 'NONE',  ( -0.0000000000000000000, -1.000000000000000000, -0.0000000000000000000 ) ) ;
#333 = DIRECTION ( 'NONE',  ( 0.7071067811865406900, 0.7071067811865544600, -0.0000000000000000000 ) ) ;
#334 = CARTESIAN_POINT ( 'NONE',  ( 0.1633496420033401200, 0.3366503579966682000, 13.68834964200334000 ) ) ;
#335 = CARTESIAN_POINT ( 'NONE',  ( 9.800000000000000700, 7.500000000000000000, 40.00000000000000000 ) ) ;
#336 = CARTESIAN_POINT ( 'NONE',  ( 1.224646799147351300E-015, 10.49999999999999800, -30.00000000000000000 ) ) ;
#337 = CARTESIAN_POINT ( 'NONE',  ( 1.224646799147351300E-015, 0.6250000000000005600, -30.00000000000000000 ) ) ;
#338 = DIRECTION ( 'NONE',  ( -0.0000000000000000000, -0.0000000000000000000, -1.000000000000000000 ) ) ;
#339 = CARTESIAN_POINT ( 'NONE',  ( -6.800000000000070000, 10.49999999999999800, 40.00000000000000000 ) ) ;
#340 = DIRECTION ( 'NONE',  ( 0.0000000000000000000, 0.0000000000000000000, -1.000000000000000000 ) ) ;
#341 = DIRECTION ( 'NONE',  ( 0.0000000000000000000, 0.0000000000000000000, -1.000000000000000000 ) ) ;
#342 = CARTESIAN_POINT ( 'NONE',  ( 1.224646799147351300E-015, 10.49999999999999800, -10.00000000000000000 ) ) ;
#343 = CARTESIAN_POINT ( 'NONE',  ( 4.619080196566617100E-016, 0.5000000000000118800, 13.52499999999999100 ) ) ;
#344 = CARTESIAN_POINT ( 'NONE',  ( 1.224646799147351300E-015, 0.0000000000000000000, 6.600000000000005000 ) ) ;
#345 = DIRECTION ( 'NONE',  ( -0.0000000000000000000, -0.0000000000000000000, -1.000000000000000000 ) ) ;
#346 = CARTESIAN_POINT ( 'NONE',  ( 0.3302917213469119800, 0.1697082786530923800, 13.84403664077161600 ) ) ;
#347 = CARTESIAN_POINT ( 'NONE',  ( 1.224646799147351300E-015, 0.6250000000000005600, -10.00000000000000000 ) ) ;
#348 = DIRECTION ( 'NONE',  ( -0.0000000000000000000, -0.0000000000000000000, -1.000000000000000000 ) ) ;
#349 = DIRECTION ( 'NONE',  ( 0.0000000000000000000, 0.0000000000000000000, -1.000000000000000000 ) ) ;
#350 = CARTESIAN_POINT ( 'NONE',  ( 0.5000000000000001100, 0.0000000000000000000, 40.00000000000000000 ) ) ;
#351 = DIRECTION ( 'NONE',  ( -0.0000000000000000000, -1.000000000000000000, -0.0000000000000000000 ) ) ;
#352 = CARTESIAN_POINT ( 'NONE',  ( 4.900000000000000400, 0.0000000000000000000, 40.00000000000000000 ) ) ;
#353 = DIRECTION ( 'NONE',  ( 1.000000000000000000, 0.0000000000000000000, 0.0000000000000000000 ) ) ;
#354 = DIRECTION ( 'NONE',  ( -0.0000000000000000000, -1.000000000000000000, -0.0000000000000000000 ) ) ;
#355 = CARTESIAN_POINT ( 'NONE',  ( 1.224646799147351300E-015, 0.0000000000000000000, 5.975000000000003200 ) ) ;
#356 = DIRECTION ( 'NONE',  ( 0.0000000000000000000, -0.7071067811865468000, -0.7071067811865483500 ) ) ;
#357 = CARTESIAN_POINT ( 'NONE',  ( 1.717567135804161000E-015, 0.0000000000000000000, 34.02499999999999900 ) ) ;
#358 = DIRECTION ( 'NONE',  ( -0.0000000000000000000, -0.0000000000000000000, -1.000000000000000000 ) ) ;
#359 = CARTESIAN_POINT ( 'NONE',  ( 6.800000000000068200, 10.49999999999999800, 40.00000000000000000 ) ) ;
#360 = DIRECTION ( 'NONE',  ( 0.0000000000000000000, 0.0000000000000000000, -1.000000000000000000 ) ) ;
#361 = DIRECTION ( 'NONE',  ( -0.0000000000000000000, -1.000000000000000000, -0.0000000000000000000 ) ) ;
#362 = CARTESIAN_POINT ( 'NONE',  ( 1.224646799147351300E-015, 0.5000000000000111000, 40.00000000000000000 ) ) ;
#363 = CARTESIAN_POINT ( 'NONE',  ( 0.5000000000000001100, 0.0000000000000000000, 13.99382335613382400 ) ) ;
#364 = CARTESIAN_POINT ( 'NONE',  ( 1.224646799147351300E-015, 0.5000000000000111000, 40.00000000000000000 ) ) ;
#365 = DIRECTION ( 'NONE',  ( -0.0000000000000000000, -1.000000000000000000, -0.0000000000000000000 ) ) ;
#366 = DIRECTION ( 'NONE',  ( -0.0000000000000000000, -0.0000000000000000000, -1.000000000000000000 ) ) ;
#367 = CARTESIAN_POINT ( 'NONE',  ( 1.224646799147351300E-015, 10.49999999999999800, 30.00000000000000000 ) ) ;
#368 = CARTESIAN_POINT ( 'NONE',  ( -0.3302917213469103200, 0.1697082786530931500, -26.15596335922838400 ) ) ;
#369 = CARTESIAN_POINT ( 'NONE',  ( -0.5000000000000001100, 0.0000000000000000000, 40.00000000000000000 ) ) ;
#370 = CARTESIAN_POINT ( 'NONE',  ( -0.5000000000000001100, 0.0000000000000000000, -26.00617664386618000 ) ) ;
#371 = CARTESIAN_POINT ( 'NONE',  ( 1.641026710857451300E-015, 0.0000000000000000000, -26.59999999999999800 ) ) ;
#372 = DIRECTION ( 'NONE',  ( -0.0000000000000000000, -1.000000000000000000, -0.0000000000000000000 ) ) ;
#373 = CARTESIAN_POINT ( 'NONE',  ( -0.5000000000000001100, 0.0000000000000000000, 33.99382335613381700 ) ) ;
#374 = DIRECTION ( 'NONE',  ( -0.0000000000000000000, -1.000000000000000000, -0.0000000000000000000 ) ) ;
#375 = DIRECTION ( 'NONE',  ( 0.0000000000000000000, 0.0000000000000000000, -1.000000000000000000 ) ) ;
#376 = CARTESIAN_POINT ( 'NONE',  ( 1.641026710857451300E-015, 0.0000000000000000000, 33.39999999999999900 ) ) ;
#377 = CARTESIAN_POINT ( 'NONE',  ( 1.717567135804161000E-015, 0.0000000000000000000, -25.97499999999999800 ) ) ;
#378 = CARTESIAN_POINT ( 'NONE',  ( -0.1633496420033390100, 0.3366503579966676500, 33.68834964200333800 ) ) ;
#379 = DIRECTION ( 'NONE',  ( -0.0000000000000000000, -1.000000000000000000, -0.0000000000000000000 ) ) ;
#380 = CARTESIAN_POINT ( 'NONE',  ( 1.224646799147351300E-015, 0.6250000000000005600, -30.00000000000000000 ) ) ;
#381 = CARTESIAN_POINT ( 'NONE',  ( -6.832368492485747000E-016, 0.5000000000000129900, -26.47500000000001200 ) ) ;
#382 = CARTESIAN_POINT ( 'NONE',  ( 1.717567135804161000E-015, 0.0000000000000000000, 14.02500000000000400 ) ) ;
#383 = CARTESIAN_POINT ( 'NONE',  ( -0.3302917213469098700, 0.1697082786530935400, 33.84403664077161300 ) ) ;
#384 = DIRECTION ( 'NONE',  ( 8.659560562354942700E-017, -0.7071067811865468000, 0.7071067811865483500 ) ) ;
#385 = CARTESIAN_POINT ( 'NONE',  ( 1.224646799147351300E-015, 10.49999999999999800, -30.00000000000000000 ) ) ;
#386 = CARTESIAN_POINT ( 'NONE',  ( 1.224646799147351300E-015, 0.0000000000000000000, 25.97499999999999800 ) ) ;
#387 = DIRECTION ( 'NONE',  ( -0.0000000000000000000, -1.000000000000000000, -0.0000000000000000000 ) ) ;
#388 = DIRECTION ( 'NONE',  ( 0.0000000000000000000, 0.0000000000000000000, -1.000000000000000000 ) ) ;
#389 = CARTESIAN_POINT ( 'NONE',  ( 1.224646799147351300E-015, 0.5000000000000111000, 40.00000000000000000 ) ) ;
#390 = DIRECTION ( 'NONE',  ( 0.0000000000000000000, 0.0000000000000000000, -1.000000000000000000 ) ) ;
#391 = CARTESIAN_POINT ( 'NONE',  ( -0.1633496420033373200, 0.3366503579966693700, -26.31165035799666200 ) ) ;
#392 = DIRECTION ( 'NONE',  ( -0.0000000000000000000, -1.000000000000000000, -0.0000000000000000000 ) ) ;
#393 = CARTESIAN_POINT ( 'NONE',  ( 1.224646799147351300E-015, 0.0000000000000000000, 10.00000000000000400 ) ) ;
#394 = DIRECTION ( 'NONE',  ( 8.659560562354942700E-017, -0.7071067811865468000, 0.7071067811865483500 ) ) ;
#395 = CARTESIAN_POINT ( 'NONE',  ( 1.224646799147351300E-015, 0.0000000000000000000, 30.00000000000000000 ) ) ;
#396 = DIRECTION ( 'NONE',  ( 0.0000000000000000000, 0.0000000000000000000, -1.000000000000000000 ) ) ;
#397 = CARTESIAN_POINT ( 'NONE',  ( 4.619080196566617100E-016, 0.5000000000000118800, 33.52499999999998400 ) ) ;
#398 = DIRECTION ( 'NONE',  ( -0.0000000000000000000, -0.0000000000000000000, -1.000000000000000000 ) ) ;
#399 = DIRECTION ( 'NONE',  ( 0.0000000000000000000, 0.0000000000000000000, -1.000000000000000000 ) ) ;
#400 = DIRECTION ( 'NONE',  ( 0.0000000000000000000, 0.0000000000000000000, -1.000000000000000000 ) ) ;
#401 = CARTESIAN_POINT ( 'NONE',  ( 1.224646799147351300E-015, 0.0000000000000000000, -13.39999999999999900 ) ) ;
#402 = DIRECTION ( 'NONE',  ( 0.0000000000000000000, -0.7071067811865468000, -0.7071067811865483500 ) ) ;
#403 = DIRECTION ( 'NONE',  ( -0.0000000000000000000, -1.000000000000000000, -0.0000000000000000000 ) ) ;
#404 = DIRECTION ( 'NONE',  ( -0.0000000000000000000, -1.000000000000000000, -0.0000000000000000000 ) ) ;
#405 = DIRECTION ( 'NONE',  ( -0.0000000000000000000, -1.000000000000000000, -0.0000000000000000000 ) ) ;
#406 = CARTESIAN_POINT ( 'NONE',  ( 1.224646799147351300E-015, 0.0000000000000000000, -10.00000000000000000 ) ) ;
#407 = CARTESIAN_POINT ( 'NONE',  ( -0.1633496420033393500, 0.3366503579966672600, -33.68834964200333800 ) ) ;
#408 = CARTESIAN_POINT ( 'NONE',  ( 0.1633496420033400700, 0.3366503579966682600, -6.311650357996662700 ) ) ;
#409 = CARTESIAN_POINT ( 'NONE',  ( -0.5000000000000001100, 0.0000000000000000000, 13.99382335613382400 ) ) ;
#410 = CARTESIAN_POINT ( 'NONE',  ( 4.619080196566617100E-016, 0.5000000000000118800, -6.475000000000012100 ) ) ;
#411 = DIRECTION ( 'NONE',  ( 0.0000000000000000000, 0.0000000000000000000, -1.000000000000000000 ) ) ;
#412 = CARTESIAN_POINT ( 'NONE',  ( 0.1633496420033405100, 0.3366503579966678700, -13.68834964200333600 ) ) ;
#413 = DIRECTION ( 'NONE',  ( -0.0000000000000000000, -0.0000000000000000000, -1.000000000000000000 ) ) ;
#414 = CARTESIAN_POINT ( 'NONE',  ( -0.1633496420033392900, 0.3366503579966673700, 26.31165035799666200 ) ) ;
#415 = CARTESIAN_POINT ( 'NONE',  ( 0.3302917213469117000, 0.1697082786530926500, -6.155963359228385600 ) ) ;
#416 = CARTESIAN_POINT ( 'NONE',  ( 1.641026710857451300E-015, 0.0000000000000000000, -6.600000000000001400 ) ) ;
#417 = CARTESIAN_POINT ( 'NONE',  ( 0.5000000000000001100, 0.0000000000000000000, -6.006176643866181700 ) ) ;
#418 = CARTESIAN_POINT ( 'NONE',  ( 1.642129097523574600E-015, 0.5000000000000106600, -13.52499999999999000 ) ) ;
#419 = DIRECTION ( 'NONE',  ( -0.0000000000000000000, -1.000000000000000000, -0.0000000000000000000 ) ) ;
#420 = CARTESIAN_POINT ( 'NONE',  ( -0.1633496420033384900, 0.3366503579966682000, -6.311650357996662700 ) ) ;
#421 = CARTESIAN_POINT ( 'NONE',  ( -0.5000000000000001100, 0.0000000000000000000, -6.006176643866180800 ) ) ;
#422 = CARTESIAN_POINT ( 'NONE',  ( -0.3302917213469115400, 0.1697082786530919000, 13.84403664077161600 ) ) ;
#423 = CARTESIAN_POINT ( 'NONE',  ( -0.1633496420033387400, 0.3366503579966679800, 13.68834964200334000 ) ) ;
#424 = CARTESIAN_POINT ( 'NONE',  ( -0.3302917213469111500, 0.1697082786530921800, -6.155963359228386400 ) ) ;
#425 = CARTESIAN_POINT ( 'NONE',  ( 1.224646799147351300E-015, 0.0000000000000000000, -30.00000000000000000 ) ) ;
#426 = CARTESIAN_POINT ( 'NONE',  ( 2.788466900620399600E-015, 0.5000000000000095500, -33.52499999999999100 ) ) ;
#427 = CARTESIAN_POINT ( 'NONE',  ( -0.5000000000000001100, 0.0000000000000000000, 40.00000000000000000 ) ) ;
#428 = CARTESIAN_POINT ( 'NONE',  ( 1.641026710857451300E-015, 0.0000000000000000000, 13.40000000000000200 ) ) ;
#429 = CARTESIAN_POINT ( 'NONE',  ( 0.3302917213469123700, 0.1697082786530920200, -13.84403664077161300 ) ) ;
#430 = CARTESIAN_POINT ( 'NONE',  ( 4.619080196566617100E-016, 0.5000000000000118800, -6.475000000000012100 ) ) ;
#431 = CARTESIAN_POINT ( 'NONE',  ( -0.5000000000000001100, 0.0000000000000000000, -33.99382335613381700 ) ) ;
#432 = CARTESIAN_POINT ( 'NONE',  ( 0.5000000000000001100, 0.0000000000000000000, -40.00000000000000000 ) ) ;
#433 = CARTESIAN_POINT ( 'NONE',  ( 0.5000000000000001100, 0.0000000000000000000, -13.99382335613382000 ) ) ;
#434 = DIRECTION ( 'NONE',  ( -0.0000000000000000000, -1.000000000000000000, -0.0000000000000000000 ) ) ;
#435 = DIRECTION ( 'NONE',  ( 0.0000000000000000000, 0.0000000000000000000, -1.000000000000000000 ) ) ;
#436 = DIRECTION ( 'NONE',  ( -0.0000000000000000000, -0.0000000000000000000, -1.000000000000000000 ) ) ;
#437 = DIRECTION ( 'NONE',  ( -0.0000000000000000000, -1.000000000000000000, -0.0000000000000000000 ) ) ;
#438 = CARTESIAN_POINT ( 'NONE',  ( 1.224646799147351300E-015, 0.5000000000000111000, 40.00000000000000000 ) ) ;
#439 = CARTESIAN_POINT ( 'NONE',  ( -0.3302917213469104800, 0.1697082786530929900, -33.84403664077161300 ) ) ;
#440 = CARTESIAN_POINT ( 'NONE',  ( 4.619080196566617100E-016, 0.5000000000000118800, 13.52499999999999100 ) ) ;
#441 = DIRECTION ( 'NONE',  ( 1.000000000000000000, 0.0000000000000000000, 0.0000000000000000000 ) ) ;
#442 = DIRECTION ( 'NONE',  ( -0.0000000000000000000, -1.000000000000000000, -0.0000000000000000000 ) ) ;
#443 = CARTESIAN_POINT ( 'NONE',  ( -0.5000000000000001100, 0.0000000000000000000, 26.00617664386618000 ) ) ;
#444 = DIRECTION ( 'NONE',  ( 0.0000000000000000000, 0.0000000000000000000, -1.000000000000000000 ) ) ;
#445 = CARTESIAN_POINT ( 'NONE',  ( 1.224646799147351300E-015, 0.6250000000000005600, -10.00000000000000000 ) ) ;
#446 = DIRECTION ( 'NONE',  ( -0.0000000000000000000, -1.000000000000000000, -0.0000000000000000000 ) ) ;
#447 = DIRECTION ( 'NONE',  ( -0.0000000000000000000, -0.0000000000000000000, -1.000000000000000000 ) ) ;
#448 = CARTESIAN_POINT ( 'NONE',  ( 1.636992305515723500E-015, 0.5000000000000106600, 26.47500000000000900 ) ) ;
#449 = CARTESIAN_POINT ( 'NONE',  ( 1.224646799147351300E-015, 10.49999999999999800, 10.00000000000000400 ) ) ;
#450 = CARTESIAN_POINT ( 'NONE',  ( -0.5000000000000001100, 0.0000000000000000000, 40.00000000000000000 ) ) ;
#451 = CARTESIAN_POINT ( 'NONE',  ( -0.3302917213469110400, 0.1697082786530924300, 26.15596335922838400 ) ) ;
#452 = CARTESIAN_POINT ( 'NONE',  ( -6.832368492485747000E-016, 0.5000000000000129900, -26.47500000000001200 ) ) ;
#453 = CARTESIAN_POINT ( 'NONE',  ( 1.224646799147351300E-015, 0.0000000000000000000, -34.02499999999999900 ) ) ;
#454 = CARTESIAN_POINT ( 'NONE',  ( 0.1633496420033385100, 0.3366503579966698100, -26.31165035799666200 ) ) ;
#455 = CARTESIAN_POINT ( 'NONE',  ( 1.224646799147351300E-015, 10.49999999999999800, -10.00000000000000000 ) ) ;
#456 = DIRECTION ( 'NONE',  ( -0.0000000000000000000, -1.000000000000000000, -0.0000000000000000000 ) ) ;
#457 = CARTESIAN_POINT ( 'NONE',  ( 0.3302917213469103200, 0.1697082786530940100, -26.15596335922838400 ) ) ;
#458 = CARTESIAN_POINT ( 'NONE',  ( -0.5000000000000001100, 0.0000000000000000000, 40.00000000000000000 ) ) ;
#459 = CARTESIAN_POINT ( 'NONE',  ( 2.788466900620399600E-015, 0.5000000000000095500, -33.52499999999999100 ) ) ;
#460 = DIRECTION ( 'NONE',  ( 0.0000000000000000000, -0.7071067811865468000, -0.7071067811865483500 ) ) ;
#461 = CARTESIAN_POINT ( 'NONE',  ( 1.224646799147351300E-015, 0.0000000000000000000, -33.39999999999999900 ) ) ;
#462 = CARTESIAN_POINT ( 'NONE',  ( 0.5000000000000001100, 0.0000000000000000000, 6.006176643866183400 ) ) ;
#463 = DIRECTION ( 'NONE',  ( -0.0000000000000000000, -1.000000000000000000, -0.0000000000000000000 ) ) ;
#464 = CARTESIAN_POINT ( 'NONE',  ( 0.1633496420033407600, 0.3366503579966675900, 6.311650357996666300 ) ) ;
#465 = CARTESIAN_POINT ( 'NONE',  ( 1.224646799147351300E-015, 0.6250000000000005600, 30.00000000000000000 ) ) ;
#466 = CARTESIAN_POINT ( 'NONE',  ( 1.645761357453220100E-015, 0.5000000000000106600, 6.475000000000014700 ) ) ;
#467 = DIRECTION ( 'NONE',  ( -0.0000000000000000000, -1.000000000000000000, -0.0000000000000000000 ) ) ;
#468 = CARTESIAN_POINT ( 'NONE',  ( 0.1633496420033412300, 0.3366503579966670900, -33.68834964200333800 ) ) ;
#469 = DIRECTION ( 'NONE',  ( -0.0000000000000000000, -0.0000000000000000000, -1.000000000000000000 ) ) ;
#470 = CARTESIAN_POINT ( 'NONE',  ( 1.642129097523574600E-015, 0.5000000000000106600, -13.52499999999999000 ) ) ;
#471 = CARTESIAN_POINT ( 'NONE',  ( -0.1633496420033387900, 0.3366503579966679800, -13.68834964200333600 ) ) ;
#472 = DIRECTION ( 'NONE',  ( 0.0000000000000000000, 0.0000000000000000000, -1.000000000000000000 ) ) ;
#473 = DIRECTION ( 'NONE',  ( 8.659560562354942700E-017, -0.7071067811865468000, 0.7071067811865483500 ) ) ;
#474 = CARTESIAN_POINT ( 'NONE',  ( 1.717567135804161000E-015, 0.0000000000000000000, -5.974999999999999600 ) ) ;
#475 = DIRECTION ( 'NONE',  ( 0.0000000000000000000, 0.0000000000000000000, -1.000000000000000000 ) ) ;
#476 = DIRECTION ( 'NONE',  ( 0.0000000000000000000, -0.7071067811865468000, -0.7071067811865483500 ) ) ;
#477 = DIRECTION ( 'NONE',  ( -0.0000000000000000000, -1.000000000000000000, -0.0000000000000000000 ) ) ;
#478 = CARTESIAN_POINT ( 'NONE',  ( 1.224646799147351300E-015, 0.5000000000000111000, 40.00000000000000000 ) ) ;
#479 = DIRECTION ( 'NONE',  ( -0.0000000000000000000, -0.0000000000000000000, -1.000000000000000000 ) ) ;
#480 = DIRECTION ( 'NONE',  ( 0.0000000000000000000, 1.000000000000000000, 0.0000000000000000000 ) ) ;
#481 = CARTESIAN_POINT ( 'NONE',  ( 0.5000000000000001100, 0.0000000000000000000, -26.00617664386618300 ) ) ;
#482 = DIRECTION ( 'NONE',  ( -0.0000000000000000000, -0.0000000000000000000, -1.000000000000000000 ) ) ;
#483 = CARTESIAN_POINT ( 'NONE',  ( 0.5000000000000001100, 0.0000000000000000000, 40.00000000000000000 ) ) ;
#484 = CARTESIAN_POINT ( 'NONE',  ( 1.224646799147351300E-015, 0.6250000000000005600, 10.00000000000000400 ) ) ;
#485 = CARTESIAN_POINT ( 'NONE',  ( 1.224646799147351300E-015, 0.5000000000000111000, -40.00000000000000000 ) ) ;
#486 = DIRECTION ( 'NONE',  ( 0.0000000000000000000, 0.0000000000000000000, -1.000000000000000000 ) ) ;
#487 = DIRECTION ( 'NONE',  ( 0.7071067811865390200, -0.7071067811865561200, 0.0000000000000000000 ) ) ;
#488 = CARTESIAN_POINT ( 'NONE',  ( 0.3302917213469127600, 0.1697082786530916000, -33.84403664077162000 ) ) ;
#489 = CARTESIAN_POINT ( 'NONE',  ( 0.3302917213469126500, 0.1697082786530917400, 6.155963359228390000 ) ) ;
#490 = CARTESIAN_POINT ( 'NONE',  ( 1.224646799147351300E-015, 0.6250000000000005600, 30.00000000000000000 ) ) ;
#491 = DIRECTION ( 'NONE',  ( -0.0000000000000000000, -1.000000000000000000, -0.0000000000000000000 ) ) ;
#492 = DIRECTION ( 'NONE',  ( 0.0000000000000000000, 0.0000000000000000000, -1.000000000000000000 ) ) ;
#493 = CARTESIAN_POINT ( 'NONE',  ( 0.5000000000000001100, 0.0000000000000000000, -33.99382335613381700 ) ) ;
#494 = CARTESIAN_POINT ( 'NONE',  ( 1.224646799147351300E-015, 0.0000000000000000000, -14.02500000000000000 ) ) ;
#495 = CARTESIAN_POINT ( 'NONE',  ( 9.800000000000000700, 5.000000000000000000, 40.00000000000000000 ) ) ;
#496 = CARTESIAN_POINT ( 'NONE',  ( -0.3302917213469113700, 0.1697082786530921500, 6.155963359228390000 ) ) ;
#497 = CARTESIAN_POINT ( 'NONE',  ( 0.0000000000000000000, 0.0000000000000000000, 0.0000000000000000000 ) ) ;
#498 = PERSON_AND_ORGANIZATION_ROLE ( 'creator' ) ;
#499 = APPROVAL_ROLE ( '' ) ;
#500 = DIRECTION ( 'NONE',  ( 1.000000000000000000, -0.0000000000000000000, -0.0000000000000000000 ) ) ;
#501 = CARTESIAN_POINT ( 'NONE',  ( 4.900000000000000400, 5.000000000000000000, 40.00000000000000000 ) ) ;
#502 = CARTESIAN_POINT ( 'NONE',  ( 1.224646799147351300E-015, 0.0000000000000000000, 26.59999999999999800 ) ) ;
#503 = DIRECTION ( 'NONE',  ( -0.0000000000000000000, -1.000000000000000000, -0.0000000000000000000 ) ) ;
#504 = DIRECTION ( 'NONE',  ( 0.0000000000000000000, 0.0000000000000000000, 1.000000000000000000 ) ) ;
#505 = APPROVAL_STATUS ( 'not_yet_approved' ) ;
#506 = APPLICATION_CONTEXT ( 'configuration controlled 3d designs of mechanical parts and assemblies' ) ;
#507 = CARTESIAN_POINT ( 'NONE',  ( -0.5000000000000001100, 0.0000000000000000000, -13.99382335613382000 ) ) ;
#508 = CARTESIAN_POINT ( 'NONE',  ( 6.800000000000068200, 10.49999999999999800, 40.00000000000000000 ) ) ;
#509 = APPLICATION_PROTOCOL_DEFINITION ( 'international standard', 'config_control_design', 1994, #506 ) ;
#510 = CARTESIAN_POINT ( 'NONE',  ( -4.900000000000000400, 0.0000000000000000000, 40.00000000000000000 ) ) ;
#511 = DIRECTION ( 'NONE',  ( -0.0000000000000000000, -0.0000000000000000000, -1.000000000000000000 ) ) ;
#512 = CARTESIAN_POINT ( 'NONE',  ( 0.5000000000000001100, 0.0000000000000000000, 40.00000000000000000 ) ) ;
#513 = DIRECTION ( 'NONE',  ( -0.0000000000000000000, -0.0000000000000000000, -1.000000000000000000 ) ) ;
#514 = CARTESIAN_POINT ( 'NONE',  ( 1.224646799147351300E-015, 0.5000000000000111000, -40.00000000000000000 ) ) ;
#515 = APPLICATION_CONTEXT ( 'configuration controlled 3d designs of mechanical parts and assemblies' ) ;
#516 = CARTESIAN_POINT ( 'NONE',  ( 0.5000000000000001100, 0.0000000000000000000, 40.00000000000000000 ) ) ;
#517 = CARTESIAN_POINT ( 'NONE',  ( -4.900000000000000400, 5.000000000000000000, -40.00000000000000000 ) ) ;
#518 =( NAMED_UNIT ( * ) SI_UNIT ( $, .STERADIAN. ) SOLID_ANGLE_UNIT ( ) );
#519 = DIRECTION ( 'NONE',  ( 0.7071067811865406900, 0.7071067811865544600, -0.0000000000000000000 ) ) ;
#520 = APPLICATION_PROTOCOL_DEFINITION ( 'international standard', 'config_control_design', 1994, #515 ) ;
#521 = APPROVAL_STATUS ( 'not_yet_approved' ) ;
#522 = DATE_TIME_ROLE ( 'creation_date' ) ;
#523 = PERSON_AND_ORGANIZATION_ROLE ( 'creator' ) ;
#524 = PERSON_AND_ORGANIZATION_ROLE ( 'design_supplier' ) ;
#525 = SECURITY_CLASSIFICATION_LEVEL ( 'unclassified' ) ;
#526 = DIRECTION ( 'NONE',  ( -1.000000000000000000, 0.0000000000000000000, 0.0000000000000000000 ) ) ;
#527 = DATE_TIME_ROLE ( 'classification_date' ) ;
#528 = PERSON_AND_ORGANIZATION_ROLE ( 'classification_officer' ) ;
#529 = DIRECTION ( 'NONE',  ( -0.0000000000000000000, -1.000000000000000000, -0.0000000000000000000 ) ) ;
#530 = CARTESIAN_POINT ( 'NONE',  ( -0.3302917213469114800, 0.1697082786530919300, -13.84403664077161300 ) ) ;
#531 =( NAMED_UNIT ( * ) PLANE_ANGLE_UNIT ( ) SI_UNIT ( $, .RADIAN. ) );
#532 = APPROVAL_ROLE ( '' ) ;
#533 = APPROVAL_ROLE ( '' ) ;
#534 = CARTESIAN_POINT ( 'NONE',  ( 1.645761357453220100E-015, 0.5000000000000106600, 6.475000000000014700 ) ) ;
#535 = CARTESIAN_POINT ( 'NONE',  ( -0.1633496420033386800, 0.3366503579966680400, 6.311650357996667200 ) ) ;
#536 = APPROVAL_STATUS ( 'not_yet_approved' ) ;
#537 =( LENGTH_UNIT ( ) NAMED_UNIT ( * ) SI_UNIT ( .MILLI., .METRE. ) );
#538 = CARTESIAN_POINT ( 'NONE',  ( -0.5000000000000001100, 0.0000000000000000000, 6.006176643866184300 ) ) ;
#539 = DIRECTION ( 'NONE',  ( -0.0000000000000000000, -0.0000000000000000000, -1.000000000000000000 ) ) ;
#540 = DIRECTION ( 'NONE',  ( 1.000000000000000000, 0.0000000000000000000, 0.0000000000000000000 ) ) ;
#541 = MECHANICAL_CONTEXT ( 'NONE', #506, 'mechanical' ) ;
#542 = PERSON_AND_ORGANIZATION_ROLE ( 'design_owner' ) ;
#543 = EDGE_LOOP ( 'NONE', ( #632, #664 ) ) ;
#544 = ORIENTED_EDGE ( 'NONE', *, *, #1289, .T. ) ;
#545 = ORIENTED_EDGE ( 'NONE', *, *, #1289, .F. ) ;
#546 = ORIENTED_EDGE ( 'NONE', *, *, #1263, .T. ) ;
#547 = FACE_OUTER_BOUND ( 'NONE', #801, .T. ) ;
#548 = ORIENTED_EDGE ( 'NONE', *, *, #1259, .F. ) ;
#549 = ORIENTED_EDGE ( 'NONE', *, *, #1262, .F. ) ;
#550 = ORIENTED_EDGE ( 'NONE', *, *, #1280, .F. ) ;
#551 = ORIENTED_EDGE ( 'NONE', *, *, #1266, .T. ) ;
#552 = ORIENTED_EDGE ( 'NONE', *, *, #1252, .F. ) ;
#553 = ORIENTED_EDGE ( 'NONE', *, *, #1253, .F. ) ;
#554 = ORIENTED_EDGE ( 'NONE', *, *, #1290, .F. ) ;
#555 = ORIENTED_EDGE ( 'NONE', *, *, #1310, .F. ) ;
#556 = ORIENTED_EDGE ( 'NONE', *, *, #1268, .T. ) ;
#557 = ORIENTED_EDGE ( 'NONE', *, *, #1267, .F. ) ;
#558 = ORIENTED_EDGE ( 'NONE', *, *, #1302, .T. ) ;
#559 = ORIENTED_EDGE ( 'NONE', *, *, #1261, .T. ) ;
#560 = ORIENTED_EDGE ( 'NONE', *, *, #1264, .F. ) ;
#561 = ORIENTED_EDGE ( 'NONE', *, *, #1303, .F. ) ;
#562 = ORIENTED_EDGE ( 'NONE', *, *, #1275, .T. ) ;
#563 = ORIENTED_EDGE ( 'NONE', *, *, #1257, .T. ) ;
#564 = ORIENTED_EDGE ( 'NONE', *, *, #1301, .F. ) ;
#565 = ORIENTED_EDGE ( 'NONE', *, *, #1277, .F. ) ;
#566 = ORIENTED_EDGE ( 'NONE', *, *, #1293, .T. ) ;
#567 = ORIENTED_EDGE ( 'NONE', *, *, #1285, .T. ) ;
#568 = ORIENTED_EDGE ( 'NONE', *, *, #1273, .T. ) ;
#569 = ORIENTED_EDGE ( 'NONE', *, *, #1274, .F. ) ;
#570 = ORIENTED_EDGE ( 'NONE', *, *, #1262, .T. ) ;
#571 = ORIENTED_EDGE ( 'NONE', *, *, #1297, .T. ) ;
#572 = ORIENTED_EDGE ( 'NONE', *, *, #1127, .F. ) ;
#573 = ORIENTED_EDGE ( 'NONE', *, *, #1297, .F. ) ;
#574 = ORIENTED_EDGE ( 'NONE', *, *, #1273, .F. ) ;
#575 = ORIENTED_EDGE ( 'NONE', *, *, #1281, .T. ) ;
#576 = ORIENTED_EDGE ( 'NONE', *, *, #1280, .T. ) ;
#577 = ORIENTED_EDGE ( 'NONE', *, *, #1278, .T. ) ;
#578 = ORIENTED_EDGE ( 'NONE', *, *, #1271, .T. ) ;
#579 = ORIENTED_EDGE ( 'NONE', *, *, #1265, .F. ) ;
#580 = ORIENTED_EDGE ( 'NONE', *, *, #1274, .T. ) ;
#581 = ORIENTED_EDGE ( 'NONE', *, *, #1309, .T. ) ;
#582 = ORIENTED_EDGE ( 'NONE', *, *, #1292, .T. ) ;
#583 = ORIENTED_EDGE ( 'NONE', *, *, #1265, .T. ) ;
#584 = ORIENTED_EDGE ( 'NONE', *, *, #1276, .T. ) ;
#585 = ORIENTED_EDGE ( 'NONE', *, *, #1269, .T. ) ;
#586 = ORIENTED_EDGE ( 'NONE', *, *, #1261, .F. ) ;
#587 = ORIENTED_EDGE ( 'NONE', *, *, #1258, .T. ) ;
#588 = ORIENTED_EDGE ( 'NONE', *, *, #1138, .F. ) ;
#589 = ORIENTED_EDGE ( 'NONE', *, *, #1304, .T. ) ;
#590 = ORIENTED_EDGE ( 'NONE', *, *, #1294, .F. ) ;
#591 = ORIENTED_EDGE ( 'NONE', *, *, #1304, .F. ) ;
#592 = ORIENTED_EDGE ( 'NONE', *, *, #1129, .T. ) ;
#593 = ORIENTED_EDGE ( 'NONE', *, *, #1254, .F. ) ;
#594 = ORIENTED_EDGE ( 'NONE', *, *, #1260, .T. ) ;
#595 = ORIENTED_EDGE ( 'NONE', *, *, #1295, .T. ) ;
#596 = ORIENTED_EDGE ( 'NONE', *, *, #1272, .T. ) ;
#597 = ORIENTED_EDGE ( 'NONE', *, *, #1166, .T. ) ;
#598 = ORIENTED_EDGE ( 'NONE', *, *, #1141, .T. ) ;
#599 = ORIENTED_EDGE ( 'NONE', *, *, #1146, .T. ) ;
#600 = ORIENTED_EDGE ( 'NONE', *, *, #1130, .T. ) ;
#601 = ORIENTED_EDGE ( 'NONE', *, *, #1173, .F. ) ;
#602 = ORIENTED_EDGE ( 'NONE', *, *, #1175, .F. ) ;
#603 = ORIENTED_EDGE ( 'NONE', *, *, #1175, .T. ) ;
#604 = ORIENTED_EDGE ( 'NONE', *, *, #1303, .T. ) ;
#605 = ORIENTED_EDGE ( 'NONE', *, *, #1174, .F. ) ;
#606 = ORIENTED_EDGE ( 'NONE', *, *, #1254, .T. ) ;
#607 = ORIENTED_EDGE ( 'NONE', *, *, #1283, .T. ) ;
#608 = ORIENTED_EDGE ( 'NONE', *, *, #1138, .T. ) ;
#609 = ORIENTED_EDGE ( 'NONE', *, *, #1264, .T. ) ;
#610 = ORIENTED_EDGE ( 'NONE', *, *, #1147, .F. ) ;
#611 = ORIENTED_EDGE ( 'NONE', *, *, #1177, .F. ) ;
#612 = ORIENTED_EDGE ( 'NONE', *, *, #1152, .T. ) ;
#613 = ORIENTED_EDGE ( 'NONE', *, *, #1277, .T. ) ;
#614 = ORIENTED_EDGE ( 'NONE', *, *, #1139, .T. ) ;
#615 = ORIENTED_EDGE ( 'NONE', *, *, #1137, .F. ) ;
#616 = ORIENTED_EDGE ( 'NONE', *, *, #1158, .T. ) ;
#617 = ORIENTED_EDGE ( 'NONE', *, *, #1126, .F. ) ;
#618 = ORIENTED_EDGE ( 'NONE', *, *, #1300, .T. ) ;
#619 = ORIENTED_EDGE ( 'NONE', *, *, #1124, .T. ) ;
#620 = ORIENTED_EDGE ( 'NONE', *, *, #1299, .T. ) ;
#621 = ORIENTED_EDGE ( 'NONE', *, *, #1160, .T. ) ;
#622 = ORIENTED_EDGE ( 'NONE', *, *, #1172, .T. ) ;
#623 = ORIENTED_EDGE ( 'NONE', *, *, #1168, .F. ) ;
#624 = ORIENTED_EDGE ( 'NONE', *, *, #1307, .F. ) ;
#625 = ORIENTED_EDGE ( 'NONE', *, *, #1136, .T. ) ;
#626 = ORIENTED_EDGE ( 'NONE', *, *, #1308, .F. ) ;
#627 = ORIENTED_EDGE ( 'NONE', *, *, #1306, .F. ) ;
#628 = ORIENTED_EDGE ( 'NONE', *, *, #1164, .F. ) ;
#629 = ORIENTED_EDGE ( 'NONE', *, *, #1147, .T. ) ;
#630 = ORIENTED_EDGE ( 'NONE', *, *, #1137, .T. ) ;
#631 = ORIENTED_EDGE ( 'NONE', *, *, #1133, .T. ) ;
#632 = ORIENTED_EDGE ( 'NONE', *, *, #1122, .T. ) ;
#633 = ORIENTED_EDGE ( 'NONE', *, *, #1293, .F. ) ;
#634 = ORIENTED_EDGE ( 'NONE', *, *, #1128, .F. ) ;
#635 = ORIENTED_EDGE ( 'NONE', *, *, #1306, .T. ) ;
#636 = ORIENTED_EDGE ( 'NONE', *, *, #1164, .T. ) ;
#637 = ORIENTED_EDGE ( 'NONE', *, *, #1144, .T. ) ;
#638 = ORIENTED_EDGE ( 'NONE', *, *, #1308, .T. ) ;
#639 = ORIENTED_EDGE ( 'NONE', *, *, #1266, .F. ) ;
#640 = ORIENTED_EDGE ( 'NONE', *, *, #1311, .F. ) ;
#641 = ORIENTED_EDGE ( 'NONE', *, *, #1165, .F. ) ;
#642 = ORIENTED_EDGE ( 'NONE', *, *, #1176, .T. ) ;
#643 = ORIENTED_EDGE ( 'NONE', *, *, #1296, .T. ) ;
#644 = ORIENTED_EDGE ( 'NONE', *, *, #1153, .F. ) ;
#645 = ORIENTED_EDGE ( 'NONE', *, *, #1176, .F. ) ;
#646 = ORIENTED_EDGE ( 'NONE', *, *, #1134, .F. ) ;
#647 = ORIENTED_EDGE ( 'NONE', *, *, #1281, .F. ) ;
#648 = ORIENTED_EDGE ( 'NONE', *, *, #1288, .F. ) ;
#649 = ORIENTED_EDGE ( 'NONE', *, *, #1283, .F. ) ;
#650 = ORIENTED_EDGE ( 'NONE', *, *, #1136, .F. ) ;
#651 = ORIENTED_EDGE ( 'NONE', *, *, #1140, .F. ) ;
#652 = ORIENTED_EDGE ( 'NONE', *, *, #1170, .T. ) ;
#653 = ORIENTED_EDGE ( 'NONE', *, *, #1150, .F. ) ;
#654 = ORIENTED_EDGE ( 'NONE', *, *, #1162, .F. ) ;
#655 = ORIENTED_EDGE ( 'NONE', *, *, #1154, .T. ) ;
#656 = ORIENTED_EDGE ( 'NONE', *, *, #1270, .T. ) ;
#657 = ORIENTED_EDGE ( 'NONE', *, *, #1135, .T. ) ;
#658 = ORIENTED_EDGE ( 'NONE', *, *, #1123, .F. ) ;
#659 = ORIENTED_EDGE ( 'NONE', *, *, #1141, .F. ) ;
#660 = ORIENTED_EDGE ( 'NONE', *, *, #1294, .T. ) ;
#661 = ORIENTED_EDGE ( 'NONE', *, *, #1287, .T. ) ;
#662 = ORIENTED_EDGE ( 'NONE', *, *, #1269, .F. ) ;
#663 = ORIENTED_EDGE ( 'NONE', *, *, #1169, .T. ) ;
#664 = ORIENTED_EDGE ( 'NONE', *, *, #1267, .T. ) ;
#665 = ORIENTED_EDGE ( 'NONE', *, *, #1152, .F. ) ;
#666 = ORIENTED_EDGE ( 'NONE', *, *, #1162, .T. ) ;
#667 = ORIENTED_EDGE ( 'NONE', *, *, #1171, .T. ) ;
#668 = ORIENTED_EDGE ( 'NONE', *, *, #1291, .T. ) ;
#669 = ORIENTED_EDGE ( 'NONE', *, *, #1144, .F. ) ;
#670 = ORIENTED_EDGE ( 'NONE', *, *, #1123, .T. ) ;
#671 = ORIENTED_EDGE ( 'NONE', *, *, #1287, .F. ) ;
#672 = ORIENTED_EDGE ( 'NONE', *, *, #1309, .F. ) ;
#673 = ORIENTED_EDGE ( 'NONE', *, *, #1171, .F. ) ;
#674 = ORIENTED_EDGE ( 'NONE', *, *, #1157, .F. ) ;
#675 = ORIENTED_EDGE ( 'NONE', *, *, #1285, .F. ) ;
#676 = ORIENTED_EDGE ( 'NONE', *, *, #1258, .F. ) ;
#677 = ORIENTED_EDGE ( 'NONE', *, *, #1145, .F. ) ;
#678 = ORIENTED_EDGE ( 'NONE', *, *, #1165, .T. ) ;
#679 = ORIENTED_EDGE ( 'NONE', *, *, #1305, .T. ) ;
#680 = ORIENTED_EDGE ( 'NONE', *, *, #1125, .T. ) ;
#681 = ORIENTED_EDGE ( 'NONE', *, *, #1268, .F. ) ;
#682 = ORIENTED_EDGE ( 'NONE', *, *, #1173, .T. ) ;
#683 = ORIENTED_EDGE ( 'NONE', *, *, #1170, .F. ) ;
#684 = ORIENTED_EDGE ( 'NONE', *, *, #1305, .F. ) ;
#685 = ORIENTED_EDGE ( 'NONE', *, *, #1288, .T. ) ;
#686 = ORIENTED_EDGE ( 'NONE', *, *, #1310, .T. ) ;
#687 = ORIENTED_EDGE ( 'NONE', *, *, #1153, .T. ) ;
#688 = ORIENTED_EDGE ( 'NONE', *, *, #1177, .T. ) ;
#689 = ORIENTED_EDGE ( 'NONE', *, *, #1140, .T. ) ;
#690 = ORIENTED_EDGE ( 'NONE', *, *, #1151, .T. ) ;
#691 = ORIENTED_EDGE ( 'NONE', *, *, #1139, .F. ) ;
#692 = ORIENTED_EDGE ( 'NONE', *, *, #1276, .F. ) ;
#693 = ORIENTED_EDGE ( 'NONE', *, *, #1160, .F. ) ;
#694 = ORIENTED_EDGE ( 'NONE', *, *, #1163, .F. ) ;
#695 = ORIENTED_EDGE ( 'NONE', *, *, #1128, .T. ) ;
#696 = ORIENTED_EDGE ( 'NONE', *, *, #1172, .F. ) ;
#697 = ORIENTED_EDGE ( 'NONE', *, *, #1255, .F. ) ;
#698 = ORIENTED_EDGE ( 'NONE', *, *, #1157, .T. ) ;
#699 = ORIENTED_EDGE ( 'NONE', *, *, #1295, .F. ) ;
#700 = ORIENTED_EDGE ( 'NONE', *, *, #1158, .F. ) ;
#701 = ORIENTED_EDGE ( 'NONE', *, *, #1135, .F. ) ;
#702 = ORIENTED_EDGE ( 'NONE', *, *, #1174, .T. ) ;
#703 = ORIENTED_EDGE ( 'NONE', *, *, #1257, .F. ) ;
#704 = ORIENTED_EDGE ( 'NONE', *, *, #1134, .T. ) ;
#705 = ORIENTED_EDGE ( 'NONE', *, *, #1260, .F. ) ;
#706 = ORIENTED_EDGE ( 'NONE', *, *, #1149, .F. ) ;
#707 = ORIENTED_EDGE ( 'NONE', *, *, #1169, .F. ) ;
#708 = ORIENTED_EDGE ( 'NONE', *, *, #1253, .T. ) ;
#709 = ORIENTED_EDGE ( 'NONE', *, *, #1150, .T. ) ;
#710 = ORIENTED_EDGE ( 'NONE', *, *, #1163, .T. ) ;
#711 = ORIENTED_EDGE ( 'NONE', *, *, #1311, .T. ) ;
#712 = ORIENTED_EDGE ( 'NONE', *, *, #1292, .F. ) ;
#713 = ORIENTED_EDGE ( 'NONE', *, *, #1124, .F. ) ;
#714 = ORIENTED_EDGE ( 'NONE', *, *, #1301, .T. ) ;
#715 = ORIENTED_EDGE ( 'NONE', *, *, #1296, .F. ) ;
#716 = ORIENTED_EDGE ( 'NONE', *, *, #1263, .F. ) ;
#717 = ORIENTED_EDGE ( 'NONE', *, *, #1129, .F. ) ;
#718 = ORIENTED_EDGE ( 'NONE', *, *, #1271, .F. ) ;
#719 = ORIENTED_EDGE ( 'NONE', *, *, #1300, .F. ) ;
#720 = ORIENTED_EDGE ( 'NONE', *, *, #1145, .T. ) ;
#721 = ORIENTED_EDGE ( 'NONE', *, *, #1299, .F. ) ;
#722 = ORIENTED_EDGE ( 'NONE', *, *, #1133, .F. ) ;
#723 = ORIENTED_EDGE ( 'NONE', *, *, #1151, .F. ) ;
#724 = ORIENTED_EDGE ( 'NONE', *, *, #1122, .F. ) ;
#725 = ORIENTED_EDGE ( 'NONE', *, *, #1290, .T. ) ;
#726 = ORIENTED_EDGE ( 'NONE', *, *, #1154, .F. ) ;
#727 = ORIENTED_EDGE ( 'NONE', *, *, #1130, .F. ) ;
#728 = ORIENTED_EDGE ( 'NONE', *, *, #1259, .T. ) ;
#729 = ORIENTED_EDGE ( 'NONE', *, *, #1125, .F. ) ;
#730 = EDGE_LOOP ( 'NONE', ( #616, #605, #624, #625 ) ) ;
#731 = EDGE_LOOP ( 'NONE', ( #765, #741, #760, #747, #774, #775 ) ) ;
#732 = ORIENTED_EDGE ( 'NONE', *, *, #1149, .T. ) ;
#733 = EDGE_LOOP ( 'NONE', ( #639, #697, #692, #703, #675, #705, #691, #729, #702, #690, #721, #647 ) ) ;
#734 = EDGE_LOOP ( 'NONE', ( #718, #694, #725, #699, #709, #712 ) ) ;
#735 = EDGE_LOOP ( 'NONE', ( #662, #724, #686, #685 ) ) ;
#736 = EDGE_LOOP ( 'NONE', ( #630, #592, #588, #572 ) ) ;
#737 = ORIENTED_EDGE ( 'NONE', *, *, #1256, .T. ) ;
#738 = ORIENTED_EDGE ( 'NONE', *, *, #1126, .T. ) ;
#739 = ORIENTED_EDGE ( 'NONE', *, *, #1307, .T. ) ;
#740 = ORIENTED_EDGE ( 'NONE', *, *, #1168, .T. ) ;
#741 = ORIENTED_EDGE ( 'NONE', *, *, #1286, .T. ) ;
#742 = EDGE_LOOP ( 'NONE', ( #573, #587, #560, #594, #574, #548 ) ) ;
#743 = ORIENTED_EDGE ( 'NONE', *, *, #1127, .T. ) ;
#744 = ORIENTED_EDGE ( 'NONE', *, *, #1252, .T. ) ;
#745 = ORIENTED_EDGE ( 'NONE', *, *, #1275, .F. ) ;
#746 = ORIENTED_EDGE ( 'NONE', *, *, #1298, .T. ) ;
#747 = ORIENTED_EDGE ( 'NONE', *, *, #1255, .T. ) ;
#748 = ORIENTED_EDGE ( 'NONE', *, *, #1270, .F. ) ;
#749 = ORIENTED_EDGE ( 'NONE', *, *, #1291, .F. ) ;
#750 = ORIENTED_EDGE ( 'NONE', *, *, #1282, .T. ) ;
#751 = EDGE_LOOP ( 'NONE', ( #619, #669, #654, #670 ) ) ;
#752 = EDGE_LOOP ( 'NONE', ( #613, #577, #590, #618 ) ) ;
#753 = EDGE_LOOP ( 'NONE', ( #579, #578, #586, #575, #569, #554 ) ) ;
#754 = EDGE_LOOP ( 'NONE', ( #663, #606 ) ) ;
#755 = ORIENTED_EDGE ( 'NONE', *, *, #1167, .T. ) ;
#756 = ORIENTED_EDGE ( 'NONE', *, *, #1286, .F. ) ;
#757 = ORIENTED_EDGE ( 'NONE', *, *, #1167, .F. ) ;
#758 = ORIENTED_EDGE ( 'NONE', *, *, #1279, .T. ) ;
#759 = ORIENTED_EDGE ( 'NONE', *, *, #1256, .F. ) ;
#760 = ORIENTED_EDGE ( 'NONE', *, *, #1272, .F. ) ;
#761 = EDGE_LOOP ( 'NONE', ( #657, #658, #644, #642 ) ) ;
#762 = ORIENTED_EDGE ( 'NONE', *, *, #1279, .F. ) ;
#763 = EDGE_LOOP ( 'NONE', ( #557, #585, #571, #555 ) ) ;
#764 = ORIENTED_EDGE ( 'NONE', *, *, #1284, .T. ) ;
#765 = ORIENTED_EDGE ( 'NONE', *, *, #1282, .F. ) ;
#766 = ORIENTED_EDGE ( 'NONE', *, *, #1278, .F. ) ;
#767 = EDGE_LOOP ( 'NONE', ( #749, #758, #750, #759 ) ) ;
#768 = EDGE_LOOP ( 'NONE', ( #621, #645, #640, #678 ) ) ;
#769 = EDGE_LOOP ( 'NONE', ( #660, #617, #604, #653, #635, #607, #628, #611, #608, #601, #629, #677 ) ) ;
#770 = CLOSED_SHELL ( 'NONE', ( #38, #16, #18, #21, #30, #23, #10, #35, #41, #22, #17, #40, #25, #14, #5, #33, #27, #19, #20, #13, #24, #3, #32, #11, #8, #29, #26, #6, #15, #4, #12, #9, #34, #28, #7, #36, #37, #39, #31 ) ) ;
#771 = EDGE_LOOP ( 'NONE', ( #627, #595, #566, #643 ) ) ;
#772 = EDGE_LOOP ( 'NONE', ( #672, #723, #700, #684, #713, #701, #693, #726, #722, #665, #683, #649, #715 ) ) ;
#773 = EDGE_LOOP ( 'NONE', ( #748, #764, #544, #552 ) ) ;
#774 = ORIENTED_EDGE ( 'NONE', *, *, #1302, .F. ) ;
#775 = ORIENTED_EDGE ( 'NONE', *, *, #1298, .F. ) ;
#776 = EDGE_LOOP ( 'NONE', ( #614, #609, #615, #623 ) ) ;
#777 = EDGE_LOOP ( 'NONE', ( #633, #580, #620, #581 ) ) ;
#778 = ORIENTED_EDGE ( 'NONE', *, *, #1284, .F. ) ;
#779 = ORIENTED_EDGE ( 'NONE', *, *, #1146, .F. ) ;
#780 = ORIENTED_EDGE ( 'NONE', *, *, #1166, .F. ) ;
#781 = EDGE_LOOP ( 'NONE', ( #631, #673, #671, #598 ) ) ;
#782 = EDGE_LOOP ( 'NONE', ( #762, #780, #737, #755 ) ) ;
#783 = VERTEX_POINT ( 'NONE', #219 ) ;
#784 = VERTEX_POINT ( 'NONE', #204 ) ;
#785 = EDGE_LOOP ( 'NONE', ( #676, #648, #728, #727, #682, #717 ) ) ;
#786 = EDGE_LOOP ( 'NONE', ( #652, #626, #651, #636 ) ) ;
#787 = EDGE_LOOP ( 'NONE', ( #681, #707, #714, #710 ) ) ;
#788 = VERTEX_POINT ( 'NONE', #220 ) ;
#789 = VERTEX_POINT ( 'NONE', #187 ) ;
#790 = EDGE_LOOP ( 'NONE', ( #599, #656 ) ) ;
#791 = VERTEX_POINT ( 'NONE', #236 ) ;
#792 = VERTEX_POINT ( 'NONE', #207 ) ;
#793 = EDGE_LOOP ( 'NONE', ( #545, #546, #550, #563, #591, #553 ) ) ;
#794 = EDGE_LOOP ( 'NONE', ( #612, #659, #634, #638 ) ) ;
#795 = VERTEX_POINT ( 'NONE', #202 ) ;
#796 = VERTEX_POINT ( 'NONE', #233 ) ;
#797 = VERTEX_POINT ( 'NONE', #229 ) ;
#798 = VERTEX_POINT ( 'NONE', #218 ) ;
#799 = VERTEX_POINT ( 'NONE', #234 ) ;
#800 = EDGE_LOOP ( 'NONE', ( #597, #668 ) ) ;
#801 = EDGE_LOOP ( 'NONE', ( #740, #743, #688, #689, #695, #661, #698, #711, #687, #666, #704, #739, #680 ) ) ;
#802 = EDGE_LOOP ( 'NONE', ( #549, #558, #551, #559 ) ) ;
#803 = EDGE_LOOP ( 'NONE', ( #603, #622, #610, #600 ) ) ;
#804 = EDGE_LOOP ( 'NONE', ( #655, #641, #674, #667 ) ) ;
#805 = VERTEX_POINT ( 'NONE', #238 ) ;
#806 = EDGE_LOOP ( 'NONE', ( #567, #576, #602, #568 ) ) ;
#807 = VERTEX_POINT ( 'NONE', #228 ) ;
#808 = VERTEX_POINT ( 'NONE', #186 ) ;
#809 = VERTEX_POINT ( 'NONE', #192 ) ;
#810 = EDGE_LOOP ( 'NONE', ( #584, #596, #565, #589 ) ) ;
#811 = VERTEX_POINT ( 'NONE', #237 ) ;
#812 = EDGE_LOOP ( 'NONE', ( #756, #757, #746, #745, #738, #766 ) ) ;
#813 = VERTEX_POINT ( 'NONE', #182 ) ;
#814 = VERTEX_POINT ( 'NONE', #235 ) ;
#815 = VERTEX_POINT ( 'NONE', #208 ) ;
#816 = VERTEX_POINT ( 'NONE', #190 ) ;
#817 = EDGE_LOOP ( 'NONE', ( #778, #779, #744, #732 ) ) ;
#818 = EDGE_LOOP ( 'NONE', ( #716, #706, #708, #719, #720, #696 ) ) ;
#819 = VERTEX_POINT ( 'NONE', #185 ) ;
#820 = VERTEX_POINT ( 'NONE', #222 ) ;
#821 = EDGE_LOOP ( 'NONE', ( #561, #562, #570, #582 ) ) ;
#822 = VERTEX_POINT ( 'NONE', #176 ) ;
#823 = VERTEX_POINT ( 'NONE', #200 ) ;
#824 = EDGE_LOOP ( 'NONE', ( #679, #650, #646, #637 ) ) ;
#825 = VERTEX_POINT ( 'NONE', #191 ) ;
#826 = VERTEX_POINT ( 'NONE', #221 ) ;
#827 = VERTEX_POINT ( 'NONE', #193 ) ;
#828 = EDGE_LOOP ( 'NONE', ( #593, #556, #583, #564 ) ) ;
#829 = VERTEX_POINT ( 'NONE', #212 ) ;
#830 = VERTEX_POINT ( 'NONE', #177 ) ;
#831 = VERTEX_POINT ( 'NONE', #209 ) ;
#832 = VERTEX_POINT ( 'NONE', #194 ) ;
#833 = VERTEX_POINT ( 'NONE', #213 ) ;
#834 = VERTEX_POINT ( 'NONE', #223 ) ;
#835 = VERTEX_POINT ( 'NONE', #205 ) ;
#836 = VERTEX_POINT ( 'NONE', #225 ) ;
#837 = VERTEX_POINT ( 'NONE', #210 ) ;
#838 = FACE_OUTER_BOUND ( 'NONE', #730, .T. ) ;
#839 = VERTEX_POINT ( 'NONE', #188 ) ;
#840 = VERTEX_POINT ( 'NONE', #214 ) ;
#841 = VERTEX_POINT ( 'NONE', #215 ) ;
#842 = FACE_OUTER_BOUND ( 'NONE', #806, .T. ) ;
#843 = VERTEX_POINT ( 'NONE', #226 ) ;
#844 = VERTEX_POINT ( 'NONE', #211 ) ;
#845 = FACE_OUTER_BOUND ( 'NONE', #761, .T. ) ;
#846 = FACE_OUTER_BOUND ( 'NONE', #787, .T. ) ;
#847 = FACE_BOUND ( 'NONE', #754, .T. ) ;
#848 = VERTEX_POINT ( 'NONE', #230 ) ;
#849 = VERTEX_POINT ( 'NONE', #196 ) ;
#850 = VERTEX_POINT ( 'NONE', #216 ) ;
#851 = VERTEX_POINT ( 'NONE', #197 ) ;
#852 = FACE_OUTER_BOUND ( 'NONE', #785, .T. ) ;
#853 = VERTEX_POINT ( 'NONE', #178 ) ;
#854 = VERTEX_POINT ( 'NONE', #224 ) ;
#855 = FACE_OUTER_BOUND ( 'NONE', #763, .T. ) ;
#856 = VERTEX_POINT ( 'NONE', #227 ) ;
#857 = VERTEX_POINT ( 'NONE', #195 ) ;
#858 = VERTEX_POINT ( 'NONE', #179 ) ;
#859 = VERTEX_POINT ( 'NONE', #231 ) ;
#860 = VERTEX_POINT ( 'NONE', #232 ) ;
#861 = VERTEX_POINT ( 'NONE', #180 ) ;
#862 = CYLINDRICAL_SURFACE ( 'NONE', #1142, 3.400000000000000400 ) ;
#863 = FACE_BOUND ( 'NONE', #800, .T. ) ;
#864 = VERTEX_POINT ( 'NONE', #198 ) ;
#865 = VERTEX_POINT ( 'NONE', #181 ) ;
#866 = VERTEX_POINT ( 'NONE', #183 ) ;
#867 = VERTEX_POINT ( 'NONE', #199 ) ;
#868 = VERTEX_POINT ( 'NONE', #261 ) ;
#869 = VERTEX_POINT ( 'NONE', #250 ) ;
#870 = VERTEX_POINT ( 'NONE', #253 ) ;
#871 = VERTEX_POINT ( 'NONE', #270 ) ;
#872 = VERTEX_POINT ( 'NONE', #273 ) ;
#873 = VERTEX_POINT ( 'NONE', #280 ) ;
#874 = VERTEX_POINT ( 'NONE', #243 ) ;
#875 = VERTEX_POINT ( 'NONE', #258 ) ;
#876 = FACE_OUTER_BOUND ( 'NONE', #781, .T. ) ;
#877 = VERTEX_POINT ( 'NONE', #257 ) ;
#878 = FACE_OUTER_BOUND ( 'NONE', #772, .T. ) ;
#879 = FACE_OUTER_BOUND ( 'NONE', #777, .T. ) ;
#880 = FACE_OUTER_BOUND ( 'NONE', #734, .T. ) ;
#881 = FACE_BOUND ( 'NONE', #543, .T. ) ;
#882 = FACE_OUTER_BOUND ( 'NONE', #769, .T. ) ;
#883 = FACE_OUTER_BOUND ( 'NONE', #812, .T. ) ;
#884 = FACE_OUTER_BOUND ( 'NONE', #802, .T. ) ;
#885 = FACE_OUTER_BOUND ( 'NONE', #828, .T. ) ;
#886 = CONICAL_SURFACE ( 'NONE', #1198, 4.025000000000000400, 0.7853981633974492800 ) ;
#887 = FACE_OUTER_BOUND ( 'NONE', #821, .T. ) ;
#888 = FACE_OUTER_BOUND ( 'NONE', #733, .T. ) ;
#889 = CONICAL_SURFACE ( 'NONE', #1216, 4.025000000000000400, 0.7853981633974492800 ) ;
#890 = CONICAL_SURFACE ( 'NONE', #1211, 4.025000000000000400, 0.7853981633974492800 ) ;
#891 = FACE_BOUND ( 'NONE', #790, .T. ) ;
#892 = FACE_OUTER_BOUND ( 'NONE', #742, .T. ) ;
#893 = CYLINDRICAL_SURFACE ( 'NONE', #1203, 3.399999999999998600 ) ;
#894 = FACE_OUTER_BOUND ( 'NONE', #782, .T. ) ;
#895 = CONICAL_SURFACE ( 'NONE', #1209, 4.025000000000000400, 0.7853981633974492800 ) ;
#896 = FACE_OUTER_BOUND ( 'NONE', #735, .T. ) ;
#897 = FACE_OUTER_BOUND ( 'NONE', #818, .T. ) ;
#898 = CYLINDRICAL_SURFACE ( 'NONE', #1179, 3.400000000000000400 ) ;
#899 = CYLINDRICAL_SURFACE ( 'NONE', #1205, 3.399999999999998600 ) ;
#900 = CYLINDRICAL_SURFACE ( 'NONE', #1184, 3.399999999999998600 ) ;
#901 = FACE_OUTER_BOUND ( 'NONE', #810, .T. ) ;
#902 = CONICAL_SURFACE ( 'NONE', #1201, 4.025000000000000400, 0.7853981633974492800 ) ;
#903 = FACE_OUTER_BOUND ( 'NONE', #776, .T. ) ;
#904 = FACE_OUTER_BOUND ( 'NONE', #786, .T. ) ;
#905 = FACE_OUTER_BOUND ( 'NONE', #794, .T. ) ;
#906 = FACE_OUTER_BOUND ( 'NONE', #731, .T. ) ;
#907 = FACE_OUTER_BOUND ( 'NONE', #773, .T. ) ;
#908 = FACE_OUTER_BOUND ( 'NONE', #753, .T. ) ;
#909 = FACE_OUTER_BOUND ( 'NONE', #751, .T. ) ;
#910 = FACE_OUTER_BOUND ( 'NONE', #804, .T. ) ;
#911 = FACE_OUTER_BOUND ( 'NONE', #817, .T. ) ;
#912 = CYLINDRICAL_SURFACE ( 'NONE', #1181, 3.399999999999998600 ) ;
#913 = FACE_OUTER_BOUND ( 'NONE', #803, .T. ) ;
#914 = FACE_OUTER_BOUND ( 'NONE', #752, .T. ) ;
#915 = FACE_OUTER_BOUND ( 'NONE', #824, .T. ) ;
#916 = FACE_OUTER_BOUND ( 'NONE', #771, .T. ) ;
#917 = CONICAL_SURFACE ( 'NONE', #1143, 4.025000000000000400, 0.7853981633974492800 ) ;
#918 = CYLINDRICAL_SURFACE ( 'NONE', #1214, 3.400000000000000400 ) ;
#919 = FACE_OUTER_BOUND ( 'NONE', #768, .T. ) ;
#920 = FACE_OUTER_BOUND ( 'NONE', #736, .T. ) ;
#921 = FACE_OUTER_BOUND ( 'NONE', #767, .T. ) ;
#922 = CYLINDRICAL_SURFACE ( 'NONE', #1156, 3.400000000000000400 ) ;
#923 = CONICAL_SURFACE ( 'NONE', #1210, 4.025000000000000400, 0.7853981633974492800 ) ;
#924 = CONICAL_SURFACE ( 'NONE', #1212, 4.025000000000000400, 0.7853981633974492800 ) ;
#925 = FACE_OUTER_BOUND ( 'NONE', #793, .T. ) ;
#926 = VECTOR ( 'NONE', #251, 1000.000000000000000 ) ;
#927 = VECTOR ( 'NONE', #300, 1000.000000000000000 ) ;
#928 = LINE ( 'NONE', #292, #929 ) ;
#929 = VECTOR ( 'NONE', #284, 1000.000000000000100 ) ;
#930 = LINE ( 'NONE', #259, #937 ) ;
#931 = VECTOR ( 'NONE', #241, 1000.000000000000000 ) ;
#932 = VECTOR ( 'NONE', #246, 1000.000000000000000 ) ;
#933 = VECTOR ( 'NONE', #297, 1000.000000000000000 ) ;
#934 = VECTOR ( 'NONE', #315, 1000.000000000000000 ) ;
#935 = VECTOR ( 'NONE', #279, 1000.000000000000100 ) ;
#936 = VECTOR ( 'NONE', #291, 1000.000000000000000 ) ;
#937 = VECTOR ( 'NONE', #278, 1000.000000000000000 ) ;
#938 = VECTOR ( 'NONE', #260, 1000.000000000000000 ) ;
#939 = VECTOR ( 'NONE', #274, 1000.000000000000000 ) ;
#940 = LINE ( 'NONE', #312, #936 ) ;
#941 = LINE ( 'NONE', #242, #932 ) ;
#942 = LINE ( 'NONE', #299, #943 ) ;
#943 = VECTOR ( 'NONE', #286, 1000.000000000000000 ) ;
#944 = CIRCLE ( 'NONE', #1190, 4.025000000000000400 ) ;
#945 = CIRCLE ( 'NONE', #1217, 3.399999999999997700 ) ;
#946 = VECTOR ( 'NONE', #308, 1000.000000000000000 ) ;
#947 = CIRCLE ( 'NONE', #1194, 4.025000000000000400 ) ;
#948 = VECTOR ( 'NONE', #298, 1000.000000000000000 ) ;
#949 = LINE ( 'NONE', #265, #926 ) ;
#950 = LINE ( 'NONE', #285, #952 ) ;
#951 = LINE ( 'NONE', #239, #954 ) ;
#952 = VECTOR ( 'NONE', #287, 1000.000000000000000 ) ;
#953 = LINE ( 'NONE', #318, #955 ) ;
#954 = VECTOR ( 'NONE', #255, 1000.000000000000000 ) ;
#955 = VECTOR ( 'NONE', #321, 1000.000000000000100 ) ;
#956 = CIRCLE ( 'NONE', #1204, 3.399999999999996800 ) ;
#957 = LINE ( 'NONE', #240, #931 ) ;
#958 = LINE ( 'NONE', #264, #960 ) ;
#959 = LINE ( 'NONE', #268, #935 ) ;
#960 = VECTOR ( 'NONE', #276, 1000.000000000000000 ) ;
#961 = LINE ( 'NONE', #305, #948 ) ;
#962 = LINE ( 'NONE', #267, #927 ) ;
#963 = LINE ( 'NONE', #244, #939 ) ;
#964 = VECTOR ( 'NONE', #304, 1000.000000000000000 ) ;
#965 = CIRCLE ( 'NONE', #1191, 4.025000000000000400 ) ;
#966 = LINE ( 'NONE', #296, #946 ) ;
#967 = LINE ( 'NONE', #269, #933 ) ;
#968 = CIRCLE ( 'NONE', #1195, 3.399999999999998600 ) ;
#969 = LINE ( 'NONE', #314, #934 ) ;
#970 = LINE ( 'NONE', #247, #938 ) ;
#971 = VECTOR ( 'NONE', #319, 1000.000000000000100 ) ;
#972 = LINE ( 'NONE', #282, #973 ) ;
#973 = VECTOR ( 'NONE', #283, 1000.000000000000000 ) ;
#974 = LINE ( 'NONE', #303, #964 ) ;
#975 = LINE ( 'NONE', #310, #971 ) ;
#976 = LINE ( 'NONE', #288, #985 ) ;
#977 = CIRCLE ( 'NONE', #1192, 3.399999999999998600 ) ;
#978 = VECTOR ( 'NONE', #323, 1000.000000000000000 ) ;
#979 = VECTOR ( 'NONE', #293, 1000.000000000000000 ) ;
#980 = LINE ( 'NONE', #344, #1005 ) ;
#981 = VECTOR ( 'NONE', #348, 1000.000000000000000 ) ;
#982 = VECTOR ( 'NONE', #338, 1000.000000000000000 ) ;
#983 = CIRCLE ( 'NONE', #1206, 3.400000000000000400 ) ;
#984 = LINE ( 'NONE', #362, #981 ) ;
#985 = VECTOR ( 'NONE', #290, 1000.000000000000000 ) ;
#986 = CIRCLE ( 'NONE', #1200, 3.400000000000000400 ) ;
#987 = CIRCLE ( 'NONE', #1218, 3.400000000000000400 ) ;
#988 = LINE ( 'NONE', #359, #1006 ) ;
#989 = LINE ( 'NONE', #352, #978 ) ;
#990 = VECTOR ( 'NONE', #345, 1000.000000000000000 ) ;
#991 = CIRCLE ( 'NONE', #1208, 4.025000000000000400 ) ;
#992 = LINE ( 'NONE', #355, #998 ) ;
#993 = LINE ( 'NONE', #289, #979 ) ;
#994 = VECTOR ( 'NONE', #326, 1000.000000000000000 ) ;
#995 = LINE ( 'NONE', #350, #997 ) ;
#996 = VECTOR ( 'NONE', #333, 1000.000000000000100 ) ;
#997 = VECTOR ( 'NONE', #353, 1000.000000000000000 ) ;
#998 = VECTOR ( 'NONE', #356, 999.9999999999998900 ) ;
#999 = LINE ( 'NONE', #364, #996 ) ;
#1000 = VECTOR ( 'NONE', #358, 1000.000000000000000 ) ;
#1001 = ORGANIZATION ( 'UNSPECIFIED', 'UNSPECIFIED', '' ) ;
#1002 = LINE ( 'NONE', #330, #990 ) ;
#1003 = LINE ( 'NONE', #327, #994 ) ;
#1004 = LINE ( 'NONE', #339, #1000 ) ;
#1005 = VECTOR ( 'NONE', #354, 1000.000000000000000 ) ;
#1006 = VECTOR ( 'NONE', #331, 1000.000000000000000 ) ;
#1007 = CIRCLE ( 'NONE', #1199, 4.025000000000000400 ) ;
#1008 = CIRCLE ( 'NONE', #1213, 3.399999999999998600 ) ;
#1009 = LINE ( 'NONE', #335, #982 ) ;
#1010 = VECTOR ( 'NONE', #392, 1000.000000000000000 ) ;
#1011 = PERSON_AND_ORGANIZATION ( #1121, #1001 ) ;
#1012 = VECTOR ( 'NONE', #394, 999.9999999999998900 ) ;
#1013 = LINE ( 'NONE', #369, #1026 ) ;
#1014 = PERSON_AND_ORGANIZATION ( #1121, #1001 ) ;
#1015 = LINE ( 'NONE', #377, #1016 ) ;
#1016 = VECTOR ( 'NONE', #384, 999.9999999999998900 ) ;
#1017 = LINE ( 'NONE', #401, #1010 ) ;
#1018 = LINE ( 'NONE', #357, #1019 ) ;
#1019 = VECTOR ( 'NONE', #325, 999.9999999999998900 ) ;
#1020 = CIRCLE ( 'NONE', #1220, 4.025000000000000400 ) ;
#1021 = VECTOR ( 'NONE', #366, 1000.000000000000000 ) ;
#1022 = LINE ( 'NONE', #427, #1038 ) ;
#1023 = CIRCLE ( 'NONE', #1223, 3.399999999999996800 ) ;
#1024 = LINE ( 'NONE', #382, #1012 ) ;
#1025 = LINE ( 'NONE', #376, #1032 ) ;
#1026 = VECTOR ( 'NONE', #398, 1000.000000000000000 ) ;
#1027 = LINE ( 'NONE', #386, #1028 ) ;
#1028 = VECTOR ( 'NONE', #402, 999.9999999999998900 ) ;
#1029 = LINE ( 'NONE', #371, #1031 ) ;
#1030 = LINE ( 'NONE', #389, #1021 ) ;
#1031 = VECTOR ( 'NONE', #372, 1000.000000000000000 ) ;
#1032 = VECTOR ( 'NONE', #403, 1000.000000000000000 ) ;
#1033 = CIRCLE ( 'NONE', #1224, 3.399999999999997700 ) ;
#1034 = CIRCLE ( 'NONE', #1222, 3.400000000000000400 ) ;
#1035 = CIRCLE ( 'NONE', #1221, 4.025000000000000400 ) ;
#1036 = LINE ( 'NONE', #438, #1037 ) ;
#1037 = VECTOR ( 'NONE', #413, 1000.000000000000000 ) ;
#1038 = VECTOR ( 'NONE', #436, 1000.000000000000000 ) ;
#1039 = APPROVAL_PERSON_ORGANIZATION ( #1014, #1240, #533 ) ;
#1040 = COORDINATED_UNIVERSAL_TIME_OFFSET ( 1, 0, .AHEAD. ) ;
#1041 = VECTOR ( 'NONE', #441, 1000.000000000000000 ) ;
#1042 = LINE ( 'NONE', #428, #1061 ) ;
#1043 = LINE ( 'NONE', #416, #1045 ) ;
#1044 = CIRCLE ( 'NONE', #1225, 4.025000000000000400 ) ;
#1045 = VECTOR ( 'NONE', #419, 1000.000000000000000 ) ;
#1046 = LOCAL_TIME ( 15, 40, 25.00000000000000000, #1040 ) ;
#1047 = CALENDAR_DATE ( 2017, 2, 2 ) ;
#1048 = CIRCLE ( 'NONE', #1242, 3.399999999999998600 ) ;
#1049 = LINE ( 'NONE', #432, #1041 ) ;
#1050 = LINE ( 'NONE', #474, #1055 ) ;
#1051 = LINE ( 'NONE', #495, #1076 ) ;
#1052 = DATE_AND_TIME ( #1047, #1046 ) ;
#1053 = VECTOR ( 'NONE', #479, 1000.000000000000000 ) ;
#1054 = VECTOR ( 'NONE', #460, 999.9999999999998900 ) ;
#1055 = VECTOR ( 'NONE', #473, 999.9999999999998900 ) ;
#1056 = LINE ( 'NONE', #485, #1060 ) ;
#1057 = CIRCLE ( 'NONE', #1239, 3.400000000000000400 ) ;
#1058 = VECTOR ( 'NONE', #482, 1000.000000000000000 ) ;
#1059 = CIRCLE ( 'NONE', #1228, 3.399999999999998600 ) ;
#1060 = VECTOR ( 'NONE', #487, 1000.000000000000000 ) ;
#1061 = VECTOR ( 'NONE', #446, 1000.000000000000000 ) ;
#1062 = LINE ( 'NONE', #458, #1064 ) ;
#1063 = VECTOR ( 'NONE', #447, 1000.000000000000000 ) ;
#1064 = VECTOR ( 'NONE', #469, 1000.000000000000000 ) ;
#1065 = LINE ( 'NONE', #483, #1053 ) ;
#1066 = CIRCLE ( 'NONE', #1232, 3.400000000000000400 ) ;
#1067 = VECTOR ( 'NONE', #476, 999.9999999999998900 ) ;
#1068 = LINE ( 'NONE', #517, #1079 ) ;
#1069 = VECTOR ( 'NONE', #467, 1000.000000000000000 ) ;
#1070 = VECTOR ( 'NONE', #513, 1000.000000000000000 ) ;
#1071 = CIRCLE ( 'NONE', #1247, 3.399999999999998600 ) ;
#1072 = LINE ( 'NONE', #516, #1070 ) ;
#1073 = LINE ( 'NONE', #453, #1054 ) ;
#1074 = LINE ( 'NONE', #478, #1058 ) ;
#1075 = LINE ( 'NONE', #494, #1067 ) ;
#1076 = VECTOR ( 'NONE', #480, 1000.000000000000000 ) ;
#1077 = LINE ( 'NONE', #512, #1080 ) ;
#1078 = LINE ( 'NONE', #461, #1069 ) ;
#1079 = VECTOR ( 'NONE', #500, 1000.000000000000000 ) ;
#1080 = VECTOR ( 'NONE', #511, 1000.000000000000000 ) ;
#1081 = LINE ( 'NONE', #450, #1063 ) ;
#1082 = LINE ( 'NONE', #510, #1087 ) ;
#1083 = LINE ( 'NONE', #514, #1084 ) ;
#1084 = VECTOR ( 'NONE', #519, 1000.000000000000100 ) ;
#1085 = LINE ( 'NONE', #501, #1089 ) ;
#1086 = APPROVAL_DATE_TIME ( #1052, #1240 ) ;
#1087 = VECTOR ( 'NONE', #529, 1000.000000000000000 ) ;
#1088 = LINE ( 'NONE', #502, #1091 ) ;
#1089 = VECTOR ( 'NONE', #539, 1000.000000000000000 ) ;
#1090 = LINE ( 'NONE', #508, #1092 ) ;
#1091 = VECTOR ( 'NONE', #503, 1000.000000000000000 ) ;
#1092 = VECTOR ( 'NONE', #526, 1000.000000000000000 ) ;
#1093 = LOCAL_TIME ( 15, 40, 25.00000000000000000, #1101 ) ;
#1094 = APPROVAL_PERSON_ORGANIZATION ( #1102, #1230, #532 ) ;
#1095 = PERSON_AND_ORGANIZATION ( #1121, #1001 ) ;
#1096 = COORDINATED_UNIVERSAL_TIME_OFFSET ( 1, 0, .AHEAD. ) ;
#1097 = DATE_AND_TIME ( #1100, #1116 ) ;
#1098 = CALENDAR_DATE ( 2017, 2, 2 ) ;
#1099 = APPROVAL_DATE_TIME ( #1105, #1249 ) ;
#1100 = CALENDAR_DATE ( 2017, 2, 2 ) ;
#1101 = COORDINATED_UNIVERSAL_TIME_OFFSET ( 1, 0, .AHEAD. ) ;
#1102 = PERSON_AND_ORGANIZATION ( #1121, #1001 ) ;
#1103 = DATE_AND_TIME ( #1109, #1111 ) ;
#1104 = SHAPE_DEFINITION_REPRESENTATION ( #2, #1315 ) ;
#1105 = DATE_AND_TIME ( #1098, #1114 ) ;
#1106 = PERSON_AND_ORGANIZATION ( #1121, #1001 ) ;
#1107 = APPROVAL_PERSON_ORGANIZATION ( #1106, #1249, #499 ) ;
#1108 = PERSON_AND_ORGANIZATION ( #1121, #1001 ) ;
#1109 = CALENDAR_DATE ( 2017, 2, 2 ) ;
#1110 = DATE_AND_TIME ( #1117, #1093 ) ;
#1111 = LOCAL_TIME ( 15, 40, 25.00000000000000000, #1115 ) ;
#1112 = PERSON_AND_ORGANIZATION ( #1121, #1001 ) ;
#1113 = APPROVAL_DATE_TIME ( #1103, #1230 ) ;
#1114 = LOCAL_TIME ( 15, 40, 25.00000000000000000, #1118 ) ;
#1115 = COORDINATED_UNIVERSAL_TIME_OFFSET ( 1, 0, .AHEAD. ) ;
#1116 = LOCAL_TIME ( 15, 40, 25.00000000000000000, #1096 ) ;
#1117 = CALENDAR_DATE ( 2017, 2, 2 ) ;
#1118 = COORDINATED_UNIVERSAL_TIME_OFFSET ( 1, 0, .AHEAD. ) ;
#1119 = PERSON_AND_ORGANIZATION ( #1121, #1001 ) ;
#1120 = PRODUCT ( 'ALP0662', 'ALP0662', '', ( #541 ) ) ;
#1121 = PERSON ( 'UNSPECIFIED', 'UNSPECIFIED', 'UNSPECIFIED', ('UNSPECIFIED'), ('UNSPECIFIED'), ('UNSPECIFIED') ) ;
#1122 = EDGE_CURVE ( 'NONE', #805, #815, #956, .T. ) ;
#1123 = EDGE_CURVE ( 'NONE', #874, #836, #970, .T. ) ;
#1124 = EDGE_CURVE ( 'NONE', #836, #851, #963, .T. ) ;
#1125 = EDGE_CURVE ( 'NONE', #834, #831, #958, .T. ) ;
#1126 = EDGE_CURVE ( 'NONE', #819, #820, #947, .T. ) ;
#1127 = EDGE_CURVE ( 'NONE', #871, #839, #949, .T. ) ;
#1128 = EDGE_CURVE ( 'NONE', #848, #868, #930, .T. ) ;
#1129 = EDGE_CURVE ( 'NONE', #792, #857, #1322, .T. ) ;
#1130 = EDGE_CURVE ( 'NONE', #841, #783, #1328, .T. ) ;
#1131 = AXIS2_PLACEMENT_3D ( 'NONE', #86, #78, #60 ) ;
#1132 = AXIS2_PLACEMENT_3D ( 'NONE', #62, #42, #47 ) ;
#1133 = EDGE_CURVE ( 'NONE', #844, #858, #972, .T. ) ;
#1134 = EDGE_CURVE ( 'NONE', #861, #853, #951, .T. ) ;
#1135 = EDGE_CURVE ( 'NONE', #867, #836, #959, .T. ) ;
#1136 = EDGE_CURVE ( 'NONE', #853, #866, #957, .T. ) ;
#1137 = EDGE_CURVE ( 'NONE', #871, #792, #941, .T. ) ;
#1138 = EDGE_CURVE ( 'NONE', #839, #857, #974, .T. ) ;
#1139 = EDGE_CURVE ( 'NONE', #831, #854, #962, .T. ) ;
#1140 = EDGE_CURVE ( 'NONE', #872, #848, #967, .T. ) ;
#1141 = EDGE_CURVE ( 'NONE', #868, #844, #940, .T. ) ;
#1142 = AXIS2_PLACEMENT_3D ( 'NONE', #57, #64, #75 ) ;
#1143 = AXIS2_PLACEMENT_3D ( 'NONE', #58, #70, #72 ) ;
#1144 = EDGE_CURVE ( 'NONE', #861, #851, #942, .T. ) ;
#1145 = EDGE_CURVE ( 'NONE', #832, #829, #944, .T. ) ;
#1146 = EDGE_CURVE ( 'NONE', #807, #833, #945, .T. ) ;
#1147 = EDGE_CURVE ( 'NONE', #841, #829, #961, .T. ) ;
#1148 = AXIS2_PLACEMENT_3D ( 'NONE', #71, #67, #65 ) ;
#1149 = EDGE_CURVE ( 'NONE', #856, #823, #968, .T. ) ;
#1150 = EDGE_CURVE ( 'NONE', #797, #860, #965, .T. ) ;
#1151 = EDGE_CURVE ( 'NONE', #859, #840, #966, .T. ) ;
#1152 = EDGE_CURVE ( 'NONE', #875, #844, #969, .T. ) ;
#1153 = EDGE_CURVE ( 'NONE', #877, #874, #953, .T. ) ;
#1154 = EDGE_CURVE ( 'NONE', #858, #849, #975, .T. ) ;
#1155 = AXIS2_PLACEMENT_3D ( 'NONE', #74, #81, #83 ) ;
#1156 = AXIS2_PLACEMENT_3D ( 'NONE', #76, #68, #66 ) ;
#1157 = EDGE_CURVE ( 'NONE', #873, #835, #928, .T. ) ;
#1158 = EDGE_CURVE ( 'NONE', #866, #859, #950, .T. ) ;
#1159 = AXIS2_PLACEMENT_3D ( 'NONE', #69, #82, #73 ) ;
#1160 = EDGE_CURVE ( 'NONE', #849, #867, #976, .T. ) ;
#1161 = AXIS2_PLACEMENT_3D ( 'NONE', #55, #54, #61 ) ;
#1162 = EDGE_CURVE ( 'NONE', #874, #861, #993, .T. ) ;
#1163 = EDGE_CURVE ( 'NONE', #869, #791, #987, .T. ) ;
#1164 = EDGE_CURVE ( 'NONE', #872, #830, #989, .T. ) ;
#1165 = EDGE_CURVE ( 'NONE', #835, #849, #988, .T. ) ;
#1166 = EDGE_CURVE ( 'NONE', #799, #825, #977, .T. ) ;
#1167 = EDGE_CURVE ( 'NONE', #870, #809, #1008, .T. ) ;
#1168 = EDGE_CURVE ( 'NONE', #831, #871, #999, .T. ) ;
#1169 = EDGE_CURVE ( 'NONE', #789, #827, #983, .T. ) ;
#1170 = EDGE_CURVE ( 'NONE', #830, #875, #1003, .T. ) ;
#1171 = EDGE_CURVE ( 'NONE', #873, #858, #1009, .T. ) ;
#1172 = EDGE_CURVE ( 'NONE', #826, #829, #1323, .T. ) ;
#1173 = EDGE_CURVE ( 'NONE', #841, #857, #1007, .T. ) ;
#1174 = EDGE_CURVE ( 'NONE', #834, #859, #1002, .T. ) ;
#1175 = EDGE_CURVE ( 'NONE', #783, #826, #984, .T. ) ;
#1176 = EDGE_CURVE ( 'NONE', #877, #867, #1004, .T. ) ;
#1177 = EDGE_CURVE ( 'NONE', #839, #872, #995, .T. ) ;
#1178 = AXIS2_PLACEMENT_3D ( 'NONE', #171, #149, #167 ) ;
#1179 = AXIS2_PLACEMENT_3D ( 'NONE', #138, #139, #155 ) ;
#1180 = AXIS2_PLACEMENT_3D ( 'NONE', #133, #184, #206 ) ;
#1181 = AXIS2_PLACEMENT_3D ( 'NONE', #147, #164, #140 ) ;
#1182 = AXIS2_PLACEMENT_3D ( 'NONE', #148, #135, #162 ) ;
#1183 = AXIS2_PLACEMENT_3D ( 'NONE', #120, #92, #118 ) ;
#1184 = AXIS2_PLACEMENT_3D ( 'NONE', #168, #169, #174 ) ;
#1185 = AXIS2_PLACEMENT_3D ( 'NONE', #102, #103, #112 ) ;
#1186 = AXIS2_PLACEMENT_3D ( 'NONE', #203, #189, #217 ) ;
#1187 = AXIS2_PLACEMENT_3D ( 'NONE', #45, #44, #59 ) ;
#1188 = AXIS2_PLACEMENT_3D ( 'NONE', #84, #79, #80 ) ;
#1189 = AXIS2_PLACEMENT_3D ( 'NONE', #125, #123, #104 ) ;
#1190 = AXIS2_PLACEMENT_3D ( 'NONE', #320, #311, #295 ) ;
#1191 = AXIS2_PLACEMENT_3D ( 'NONE', #306, #307, #301 ) ;
#1192 = AXIS2_PLACEMENT_3D ( 'NONE', #342, #361, #360 ) ;
#1193 = AXIS2_PLACEMENT_3D ( 'NONE', #50, #52, #115 ) ;
#1194 = AXIS2_PLACEMENT_3D ( 'NONE', #281, #277, #252 ) ;
#1195 = AXIS2_PLACEMENT_3D ( 'NONE', #294, #309, #313 ) ;
#1196 = AXIS2_PLACEMENT_3D ( 'NONE', #117, #126, #97 ) ;
#1197 = AXIS2_PLACEMENT_3D ( 'NONE', #110, #127, #98 ) ;
#1198 = AXIS2_PLACEMENT_3D ( 'NONE', #159, #170, #136 ) ;
#1199 = AXIS2_PLACEMENT_3D ( 'NONE', #328, #351, #329 ) ;
#1200 = AXIS2_PLACEMENT_3D ( 'NONE', #385, #405, #400 ) ;
#1201 = AXIS2_PLACEMENT_3D ( 'NONE', #156, #158, #173 ) ;
#1202 = AXIS2_PLACEMENT_3D ( 'NONE', #142, #153, #141 ) ;
#1203 = AXIS2_PLACEMENT_3D ( 'NONE', #87, #116, #109 ) ;
#1204 = AXIS2_PLACEMENT_3D ( 'NONE', #263, #262, #271 ) ;
#1205 = AXIS2_PLACEMENT_3D ( 'NONE', #175, #160, #165 ) ;
#1206 = AXIS2_PLACEMENT_3D ( 'NONE', #336, #322, #349 ) ;
#1207 = AXIS2_PLACEMENT_3D ( 'NONE', #152, #146, #129 ) ;
#1208 = AXIS2_PLACEMENT_3D ( 'NONE', #406, #365, #396 ) ;
#1209 = AXIS2_PLACEMENT_3D ( 'NONE', #105, #121, #91 ) ;
#1210 = AXIS2_PLACEMENT_3D ( 'NONE', #114, #90, #108 ) ;
#1211 = AXIS2_PLACEMENT_3D ( 'NONE', #157, #150, #163 ) ;
#1212 = AXIS2_PLACEMENT_3D ( 'NONE', #99, #89, #111 ) ;
#1213 = AXIS2_PLACEMENT_3D ( 'NONE', #347, #324, #340 ) ;
#1214 = AXIS2_PLACEMENT_3D ( 'NONE', #145, #134, #137 ) ;
#1215 = AXIS2_PLACEMENT_3D ( 'NONE', #107, #106, #113 ) ;
#1216 = AXIS2_PLACEMENT_3D ( 'NONE', #128, #130, #131 ) ;
#1217 = AXIS2_PLACEMENT_3D ( 'NONE', #302, #316, #317 ) ;
#1218 = AXIS2_PLACEMENT_3D ( 'NONE', #337, #332, #341 ) ;
#1219 = AXIS2_PLACEMENT_3D ( 'NONE', #122, #95, #96 ) ;
#1220 = AXIS2_PLACEMENT_3D ( 'NONE', #393, #404, #390 ) ;
#1221 = AXIS2_PLACEMENT_3D ( 'NONE', #395, #387, #388 ) ;
#1222 = AXIS2_PLACEMENT_3D ( 'NONE', #380, #379, #399 ) ;
#1223 = AXIS2_PLACEMENT_3D ( 'NONE', #367, #374, #375 ) ;
#1224 = AXIS2_PLACEMENT_3D ( 'NONE', #449, #437, #411 ) ;
#1225 = AXIS2_PLACEMENT_3D ( 'NONE', #425, #434, #435 ) ;
#1226 = AXIS2_PLACEMENT_3D ( 'NONE', #161, #154, #151 ) ;
#1227 = CC_DESIGN_PERSON_AND_ORGANIZATION_ASSIGNMENT ( #1119, #523, ( #1229 ) ) ;
#1228 = AXIS2_PLACEMENT_3D ( 'NONE', #455, #456, #486 ) ;
#1229 = PRODUCT_DEFINITION_FORMATION_WITH_SPECIFIED_SOURCE ( 'ANY', '', #1120, .NOT_KNOWN. ) ;
#1230 = APPROVAL ( #505, 'UNSPECIFIED' ) ;
#1231 = CC_DESIGN_APPROVAL ( #1230, ( #1237 ) ) ;
#1232 = AXIS2_PLACEMENT_3D ( 'NONE', #490, #491, #492 ) ;
#1233 = PRODUCT_DEFINITION ( 'UNKNOWN', '', #1229, #1 ) ;
#1234 = CC_DESIGN_PERSON_AND_ORGANIZATION_ASSIGNMENT ( #1095, #528, ( #1237 ) ) ;
#1235 = CC_DESIGN_APPROVAL ( #1249, ( #1229 ) ) ;
#1236 = CC_DESIGN_PERSON_AND_ORGANIZATION_ASSIGNMENT ( #1108, #524, ( #1229 ) ) ;
#1237 = SECURITY_CLASSIFICATION ( '', '', #525 ) ;
#1238 = CC_DESIGN_PERSON_AND_ORGANIZATION_ASSIGNMENT ( #1011, #542, ( #1120 ) ) ;
#1239 = AXIS2_PLACEMENT_3D ( 'NONE', #465, #463, #472 ) ;
#1240 = APPROVAL ( #521, 'UNSPECIFIED' ) ;
#1241 = CC_DESIGN_SECURITY_CLASSIFICATION ( #1237, ( #1229 ) ) ;
#1242 = AXIS2_PLACEMENT_3D ( 'NONE', #445, #442, #444 ) ;
#1243 =( GEOMETRIC_REPRESENTATION_CONTEXT ( 3 ) GLOBAL_UNCERTAINTY_ASSIGNED_CONTEXT ( ( #1317 ) ) GLOBAL_UNIT_ASSIGNED_CONTEXT ( ( #537, #531, #518 ) ) REPRESENTATION_CONTEXT ( 'NONE', 'WORKASPACE' ) );
#1244 = PRODUCT_RELATED_PRODUCT_CATEGORY ( 'detail', '', ( #1120 ) ) ;
#1245 = CC_DESIGN_APPROVAL ( #1240, ( #1233 ) ) ;
#1246 = CC_DESIGN_DATE_AND_TIME_ASSIGNMENT ( #1110, #522, ( #1233 ) ) ;
#1247 = AXIS2_PLACEMENT_3D ( 'NONE', #484, #477, #475 ) ;
#1248 = CC_DESIGN_PERSON_AND_ORGANIZATION_ASSIGNMENT ( #1112, #498, ( #1233 ) ) ;
#1249 = APPROVAL ( #536, 'UNSPECIFIED' ) ;
#1250 = CC_DESIGN_DATE_AND_TIME_ASSIGNMENT ( #1097, #527, ( #1237 ) ) ;
#1251 = AXIS2_PLACEMENT_3D ( 'NONE', #497, #504, #540 ) ;
#1252 = EDGE_CURVE ( 'NONE', #807, #856, #980, .T. ) ;
#1253 = EDGE_CURVE ( 'NONE', #856, #850, #992, .T. ) ;
#1254 = EDGE_CURVE ( 'NONE', #827, #789, #986, .T. ) ;
#1255 = EDGE_CURVE ( 'NONE', #788, #814, #991, .T. ) ;
#1256 = EDGE_CURVE ( 'NONE', #799, #870, #1017, .T. ) ;
#1257 = EDGE_CURVE ( 'NONE', #784, #811, #1020, .T. ) ;
#1258 = EDGE_CURVE ( 'NONE', #795, #792, #1018, .T. ) ;
#1259 = EDGE_CURVE ( 'NONE', #865, #783, #1027, .T. ) ;
#1260 = EDGE_CURVE ( 'NONE', #854, #808, #1035, .T. ) ;
#1261 = EDGE_CURVE ( 'NONE', #796, #816, #1324, .T. ) ;
#1262 = EDGE_CURVE ( 'NONE', #813, #816, #1030, .T. ) ;
#1263 = EDGE_CURVE ( 'NONE', #823, #826, #1024, .T. ) ;
#1264 = EDGE_CURVE ( 'NONE', #854, #792, #1325, .T. ) ;
#1265 = EDGE_CURVE ( 'NONE', #791, #869, #1034, .T. ) ;
#1266 = EDGE_CURVE ( 'NONE', #814, #796, #1013, .T. ) ;
#1267 = EDGE_CURVE ( 'NONE', #815, #805, #1023, .T. ) ;
#1268 = EDGE_CURVE ( 'NONE', #827, #791, #1029, .T. ) ;
#1269 = EDGE_CURVE ( 'NONE', #815, #795, #1025, .T. ) ;
#1270 = EDGE_CURVE ( 'NONE', #833, #807, #1033, .T. ) ;
#1271 = EDGE_CURVE ( 'NONE', #791, #816, #1015, .T. ) ;
#1272 = EDGE_CURVE ( 'NONE', #788, #843, #1326, .T. ) ;
#1273 = EDGE_CURVE ( 'NONE', #783, #808, #1327, .T. ) ;
#1274 = EDGE_CURVE ( 'NONE', #798, #837, #1330, .T. ) ;
#1275 = EDGE_CURVE ( 'NONE', #819, #813, #1313, .T. ) ;
#1276 = EDGE_CURVE ( 'NONE', #811, #788, #1022, .T. ) ;
#1277 = EDGE_CURVE ( 'NONE', #850, #843, #1036, .T. ) ;
#1278 = EDGE_CURVE ( 'NONE', #843, #820, #1312, .T. ) ;
#1279 = EDGE_CURVE ( 'NONE', #825, #809, #1043, .T. ) ;
#1280 = EDGE_CURVE ( 'NONE', #784, #826, #1319, .T. ) ;
#1281 = EDGE_CURVE ( 'NONE', #796, #837, #1044, .T. ) ;
#1282 = EDGE_CURVE ( 'NONE', #809, #870, #1048, .T. ) ;
#1283 = EDGE_CURVE ( 'NONE', #864, #830, #1049, .T. ) ;
#1284 = EDGE_CURVE ( 'NONE', #833, #823, #1042, .T. ) ;
#1285 = EDGE_CURVE ( 'NONE', #808, #784, #1081, .T. ) ;
#1286 = EDGE_CURVE ( 'NONE', #809, #843, #1050, .T. ) ;
#1287 = EDGE_CURVE ( 'NONE', #868, #873, #1051, .T. ) ;
#1288 = EDGE_CURVE ( 'NONE', #865, #795, #1057, .T. ) ;
#1289 = EDGE_CURVE ( 'NONE', #823, #856, #1071, .T. ) ;
#1290 = EDGE_CURVE ( 'NONE', #869, #798, #1073, .T. ) ;
#1291 = EDGE_CURVE ( 'NONE', #825, #799, #1059, .T. ) ;
#1292 = EDGE_CURVE ( 'NONE', #816, #860, #1320, .T. ) ;
#1293 = EDGE_CURVE ( 'NONE', #798, #822, #1074, .T. ) ;
#1294 = EDGE_CURVE ( 'NONE', #832, #820, #1065, .T. ) ;
#1295 = EDGE_CURVE ( 'NONE', #797, #798, #1318, .T. ) ;
#1296 = EDGE_CURVE ( 'NONE', #822, #864, #1056, .T. ) ;
#1297 = EDGE_CURVE ( 'NONE', #795, #865, #1066, .T. ) ;
#1298 = EDGE_CURVE ( 'NONE', #870, #813, #1075, .T. ) ;
#1299 = EDGE_CURVE ( 'NONE', #837, #840, #1062, .T. ) ;
#1300 = EDGE_CURVE ( 'NONE', #832, #850, #1321, .T. ) ;
#1301 = EDGE_CURVE ( 'NONE', #789, #869, #1078, .T. ) ;
#1302 = EDGE_CURVE ( 'NONE', #813, #814, #1314, .T. ) ;
#1303 = EDGE_CURVE ( 'NONE', #819, #860, #1072, .T. ) ;
#1304 = EDGE_CURVE ( 'NONE', #850, #811, #1316, .T. ) ;
#1305 = EDGE_CURVE ( 'NONE', #851, #866, #1068, .T. ) ;
#1306 = EDGE_CURVE ( 'NONE', #797, #864, #1077, .T. ) ;
#1307 = EDGE_CURVE ( 'NONE', #853, #834, #1082, .T. ) ;
#1308 = EDGE_CURVE ( 'NONE', #848, #875, #1085, .T. ) ;
#1309 = EDGE_CURVE ( 'NONE', #840, #822, #1083, .T. ) ;
#1310 = EDGE_CURVE ( 'NONE', #805, #865, #1088, .T. ) ;
#1311 = EDGE_CURVE ( 'NONE', #835, #877, #1090, .T. ) ;
#1312 = B_SPLINE_CURVE_WITH_KNOTS ( 'NONE', 3,
 ( #430, #408, #415, #417 ),
 .UNSPECIFIED., .F., .F.,
 ( 4, 4 ),
 ( 3.462573506278945700E-007, 0.0008487537887028135000 ),
 .UNSPECIFIED. ) ;
#1313 = B_SPLINE_CURVE_WITH_KNOTS ( 'NONE', 3,
 ( #433, #429, #412, #418 ),
 .UNSPECIFIED., .F., .F.,
 ( 4, 4 ),
 ( 3.332785926288932200E-007, 0.0008487408099448134300 ),
 .UNSPECIFIED. ) ;
#1314 = B_SPLINE_CURVE_WITH_KNOTS ( 'NONE', 3,
 ( #470, #471, #530, #507 ),
 .UNSPECIFIED., .F., .F.,
 ( 4, 4 ),
 ( 3.462573506291816900E-007, 0.0008487537887028154600 ),
 .UNSPECIFIED. ) ;
#1315 = ADVANCED_BREP_SHAPE_REPRESENTATION ( 'ALP0662', ( #1329, #1251 ), #1243 ) ;
#1316 = B_SPLINE_CURVE_WITH_KNOTS ( 'NONE', 3,
 ( #534, #535, #496, #538 ),
 .UNSPECIFIED., .F., .F.,
 ( 4, 4 ),
 ( 3.462573506288867100E-007, 0.0008487537887028152400 ),
 .UNSPECIFIED. ) ;
#1317 = UNCERTAINTY_MEASURE_WITH_UNIT (LENGTH_MEASURE( 1.000000000000000100E-005 ), #537, 'distance_accuracy_value', 'NONE');
#1318 = B_SPLINE_CURVE_WITH_KNOTS ( 'NONE', 3,
 ( #493, #488, #468, #459 ),
 .UNSPECIFIED., .F., .F.,
 ( 4, 4 ),
 ( 3.332785926327055600E-007, 0.0008487408099448139700 ),
 .UNSPECIFIED. ) ;
#1319 = B_SPLINE_CURVE_WITH_KNOTS ( 'NONE', 3,
 ( #409, #422, #423, #440 ),
 .UNSPECIFIED., .F., .F.,
 ( 4, 4 ),
 ( 3.332785926291467500E-007, 0.0008487408099448162500 ),
 .UNSPECIFIED. ) ;
#1320 = B_SPLINE_CURVE_WITH_KNOTS ( 'NONE', 3,
 ( #452, #454, #457, #481 ),
 .UNSPECIFIED., .F., .F.,
 ( 4, 4 ),
 ( 3.462573506252938000E-007, 0.0008487537887028112300 ),
 .UNSPECIFIED. ) ;
#1321 = B_SPLINE_CURVE_WITH_KNOTS ( 'NONE', 3,
 ( #462, #489, #464, #466 ),
 .UNSPECIFIED., .F., .F.,
 ( 4, 4 ),
 ( 3.332785926285350300E-007, 0.0008487408099448134300 ),
 .UNSPECIFIED. ) ;
#1322 = B_SPLINE_CURVE_WITH_KNOTS ( 'NONE', 3,
 ( #249, #256, #245, #266 ),
 .UNSPECIFIED., .F., .F.,
 ( 4, 4 ),
 ( 3.462573506282005000E-007, 0.0008487537887028135000 ),
 .UNSPECIFIED. ) ;
#1323 = B_SPLINE_CURVE_WITH_KNOTS ( 'NONE', 3,
 ( #343, #334, #346, #363 ),
 .UNSPECIFIED., .F., .F.,
 ( 4, 4 ),
 ( 3.462573506278944600E-007, 0.0008487537887028140500 ),
 .UNSPECIFIED. ) ;
#1324 = B_SPLINE_CURVE_WITH_KNOTS ( 'NONE', 3,
 ( #370, #368, #391, #381 ),
 .UNSPECIFIED., .F., .F.,
 ( 4, 4 ),
 ( 3.332785926307578100E-007, 0.0008487408099448182000 ),
 .UNSPECIFIED. ) ;
#1325 = B_SPLINE_CURVE_WITH_KNOTS ( 'NONE', 3,
 ( #373, #383, #378, #397 ),
 .UNSPECIFIED., .F., .F.,
 ( 4, 4 ),
 ( 3.332785926284705000E-007, 0.0008487408099448123500 ),
 .UNSPECIFIED. ) ;
#1326 = B_SPLINE_CURVE_WITH_KNOTS ( 'NONE', 3,
 ( #421, #424, #420, #410 ),
 .UNSPECIFIED., .F., .F.,
 ( 4, 4 ),
 ( 3.332785926285374200E-007, 0.0008487408099448157100 ),
 .UNSPECIFIED. ) ;
#1327 = B_SPLINE_CURVE_WITH_KNOTS ( 'NONE', 3,
 ( #448, #414, #451, #443 ),
 .UNSPECIFIED., .F., .F.,
 ( 4, 4 ),
 ( 3.462573506301413700E-007, 0.0008487537887028141600 ),
 .UNSPECIFIED. ) ;
#1328 = B_SPLINE_CURVE_WITH_KNOTS ( 'NONE', 3,
 ( #248, #272, #275, #254 ),
 .UNSPECIFIED., .F., .F.,
 ( 4, 4 ),
 ( 3.332785926291355300E-007, 0.0008487408099448125600 ),
 .UNSPECIFIED. ) ;
#1329 = MANIFOLD_SOLID_BREP ( 'M8 Tapped Hole1', #770 ) ;
#1330 = B_SPLINE_CURVE_WITH_KNOTS ( 'NONE', 3,
 ( #426, #407, #439, #431 ),
 .UNSPECIFIED., .F., .F.,
 ( 4, 4 ),
 ( 3.462573506314326200E-007, 0.0008487537887028129600 ),
 .UNSPECIFIED. ) ;
ENDSEC;
END-ISO-10303-21;
