ISO-10303-21;
HEADER;
FILE_DESCRIPTION (( 'STEP AP203' ),
    '1' );
FILE_NAME ('ALP0413.STEP',
    '2017-02-01T13:30:21',
    ( '' ),
    ( '' ),
    'SwSTEP 2.0',
    'SolidWorks 2012',
    '' );
FILE_SCHEMA (( 'CONFIG_CONTROL_DESIGN' ));
ENDSEC;

DATA;
#1 = APPROVAL_ROLE ( '' ) ;
#2 = DIRECTION ( 'NONE',  ( -1.000000000000000000, -0.0000000000000000000, -0.0000000000000000000 ) ) ;
#3 = MECHANICAL_CONTEXT ( 'NONE', #10, 'mechanical' ) ;
#4 = DIRECTION ( 'NONE',  ( 0.0000000000000000000, 0.0000000000000000000, 1.000000000000000000 ) ) ;
#5 = DATE_TIME_ROLE ( 'classification_date' ) ;
#6 = PERSON_AND_ORGANIZATION_ROLE ( 'creator' ) ;
#7 =( LENGTH_UNIT ( ) NAMED_UNIT ( * ) SI_UNIT ( .MILLI., .METRE. ) );
#8 =( NAMED_UNIT ( * ) SI_UNIT ( $, .STERADIAN. ) SOLID_ANGLE_UNIT ( ) );
#9 = PERSON_AND_ORGANIZATION_ROLE ( 'creator' ) ;
#10 = APPLICATION_CONTEXT ( 'configuration controlled 3d designs of mechanical parts and assemblies' ) ;
#11 = CARTESIAN_POINT ( 'NONE',  ( 0.0000000000000000000, 0.0000000000000000000, 0.0000000000000000000 ) ) ;
#12 = APPROVAL_ROLE ( '' ) ;
#13 = SECURITY_CLASSIFICATION_LEVEL ( 'unclassified' ) ;
#14 = DIRECTION ( 'NONE',  ( 0.0000000000000000000, 0.0000000000000000000, 1.000000000000000000 ) ) ;
#15 = CARTESIAN_POINT ( 'NONE',  ( -1.734723475976807100E-015, 0.0000000000000000000, 0.0000000000000000000 ) ) ;
#16 = PERSON_AND_ORGANIZATION_ROLE ( 'design_owner' ) ;
#17 = APPLICATION_CONTEXT ( 'configuration controlled 3d designs of mechanical parts and assemblies' ) ;
#18 = APPROVAL_STATUS ( 'not_yet_approved' ) ;
#19 = PERSON_AND_ORGANIZATION_ROLE ( 'classification_officer' ) ;
#20 = APPLICATION_PROTOCOL_DEFINITION ( 'international standard', 'config_control_design', 1994, #10 ) ;
#21 = DIRECTION ( 'NONE',  ( 1.000000000000000000, 0.0000000000000000000, 0.0000000000000000000 ) ) ;
#22 = DATE_TIME_ROLE ( 'creation_date' ) ;
#23 = PERSON_AND_ORGANIZATION_ROLE ( 'design_supplier' ) ;
#24 =( NAMED_UNIT ( * ) PLANE_ANGLE_UNIT ( ) SI_UNIT ( $, .RADIAN. ) );
#25 = APPROVAL_STATUS ( 'not_yet_approved' ) ;
#26 = APPLICATION_PROTOCOL_DEFINITION ( 'international standard', 'config_control_design', 1994, #17 ) ;
#27 = APPROVAL_ROLE ( '' ) ;
#28 = APPROVAL_STATUS ( 'not_yet_approved' ) ;
#29 = VERTEX_POINT ( 'NONE', #635 ) ;
#30 = VERTEX_POINT ( 'NONE', #625 ) ;
#31 = VERTEX_POINT ( 'NONE', #617 ) ;
#32 = VERTEX_POINT ( 'NONE', #620 ) ;
#33 = VERTEX_POINT ( 'NONE', #618 ) ;
#34 = VERTEX_POINT ( 'NONE', #619 ) ;
#35 = VERTEX_POINT ( 'NONE', #615 ) ;
#36 = ORIENTED_EDGE ( 'NONE', *, *, #349, .T. ) ;
#37 = ORIENTED_EDGE ( 'NONE', *, *, #377, .F. ) ;
#38 = VERTEX_POINT ( 'NONE', #616 ) ;
#39 = ORIENTED_EDGE ( 'NONE', *, *, #344, .F. ) ;
#40 = ORIENTED_EDGE ( 'NONE', *, *, #350, .T. ) ;
#41 = VERTEX_POINT ( 'NONE', #629 ) ;
#42 = ORIENTED_EDGE ( 'NONE', *, *, #336, .F. ) ;
#43 = ORIENTED_EDGE ( 'NONE', *, *, #367, .F. ) ;
#44 = ORIENTED_EDGE ( 'NONE', *, *, #344, .T. ) ;
#45 = ORIENTED_EDGE ( 'NONE', *, *, #363, .F. ) ;
#46 = ORIENTED_EDGE ( 'NONE', *, *, #376, .F. ) ;
#47 = VERTEX_POINT ( 'NONE', #623 ) ;
#48 = ORIENTED_EDGE ( 'NONE', *, *, #355, .T. ) ;
#49 = ORIENTED_EDGE ( 'NONE', *, *, #334, .T. ) ;
#50 = ORIENTED_EDGE ( 'NONE', *, *, #380, .F. ) ;
#51 = ORIENTED_EDGE ( 'NONE', *, *, #366, .T. ) ;
#52 = ORIENTED_EDGE ( 'NONE', *, *, #334, .F. ) ;
#53 = VERTEX_POINT ( 'NONE', #631 ) ;
#54 = VERTEX_POINT ( 'NONE', #621 ) ;
#55 = VERTEX_POINT ( 'NONE', #630 ) ;
#56 = VERTEX_POINT ( 'NONE', #639 ) ;
#57 = VERTEX_POINT ( 'NONE', #638 ) ;
#58 = VERTEX_POINT ( 'NONE', #624 ) ;
#59 = VERTEX_POINT ( 'NONE', #654 ) ;
#60 = VERTEX_POINT ( 'NONE', #647 ) ;
#61 = ORIENTED_EDGE ( 'NONE', *, *, #358, .T. ) ;
#62 = ORIENTED_EDGE ( 'NONE', *, *, #347, .F. ) ;
#63 = VERTEX_POINT ( 'NONE', #640 ) ;
#64 = VERTEX_POINT ( 'NONE', #644 ) ;
#65 = ORIENTED_EDGE ( 'NONE', *, *, #343, .T. ) ;
#66 = VERTEX_POINT ( 'NONE', #645 ) ;
#67 = VERTEX_POINT ( 'NONE', #655 ) ;
#68 = ORIENTED_EDGE ( 'NONE', *, *, #348, .F. ) ;
#69 = ORIENTED_EDGE ( 'NONE', *, *, #373, .T. ) ;
#70 = ORIENTED_EDGE ( 'NONE', *, *, #383, .F. ) ;
#71 = ORIENTED_EDGE ( 'NONE', *, *, #382, .F. ) ;
#72 = ORIENTED_EDGE ( 'NONE', *, *, #381, .F. ) ;
#73 = ORIENTED_EDGE ( 'NONE', *, *, #331, .F. ) ;
#74 = VERTEX_POINT ( 'NONE', #648 ) ;
#75 = VERTEX_POINT ( 'NONE', #653 ) ;
#76 = ORIENTED_EDGE ( 'NONE', *, *, #357, .T. ) ;
#77 = CLOSED_SHELL ( 'NONE', ( #444, #438, #440, #445, #455, #454, #443, #442, #451, #441, #453, #456, #452, #447, #449, #439, #446, #448, #450 ) ) ;
#78 = VERTEX_POINT ( 'NONE', #656 ) ;
#79 = VERTEX_POINT ( 'NONE', #646 ) ;
#80 = VERTEX_POINT ( 'NONE', #636 ) ;
#81 = VERTEX_POINT ( 'NONE', #641 ) ;
#82 = VERTEX_POINT ( 'NONE', #626 ) ;
#83 = VERTEX_POINT ( 'NONE', #657 ) ;
#84 = VERTEX_POINT ( 'NONE', #634 ) ;
#85 = VERTEX_POINT ( 'NONE', #658 ) ;
#86 = ORIENTED_EDGE ( 'NONE', *, *, #354, .F. ) ;
#87 = ORIENTED_EDGE ( 'NONE', *, *, #342, .T. ) ;
#88 = ORIENTED_EDGE ( 'NONE', *, *, #365, .T. ) ;
#89 = ORIENTED_EDGE ( 'NONE', *, *, #362, .F. ) ;
#90 = ORIENTED_EDGE ( 'NONE', *, *, #352, .T. ) ;
#91 = ORIENTED_EDGE ( 'NONE', *, *, #340, .T. ) ;
#92 = ORIENTED_EDGE ( 'NONE', *, *, #379, .F. ) ;
#93 = ORIENTED_EDGE ( 'NONE', *, *, #333, .F. ) ;
#94 = ORIENTED_EDGE ( 'NONE', *, *, #362, .T. ) ;
#95 = ORIENTED_EDGE ( 'NONE', *, *, #378, .F. ) ;
#96 = ORIENTED_EDGE ( 'NONE', *, *, #361, .F. ) ;
#97 = ORIENTED_EDGE ( 'NONE', *, *, #338, .F. ) ;
#98 = ORIENTED_EDGE ( 'NONE', *, *, #374, .F. ) ;
#99 = ORIENTED_EDGE ( 'NONE', *, *, #348, .T. ) ;
#100 = ORIENTED_EDGE ( 'NONE', *, *, #382, .T. ) ;
#101 = ORIENTED_EDGE ( 'NONE', *, *, #374, .T. ) ;
#102 = ORIENTED_EDGE ( 'NONE', *, *, #376, .T. ) ;
#103 = ORIENTED_EDGE ( 'NONE', *, *, #377, .T. ) ;
#104 = ORIENTED_EDGE ( 'NONE', *, *, #379, .T. ) ;
#105 = ORIENTED_EDGE ( 'NONE', *, *, #378, .T. ) ;
#106 = ORIENTED_EDGE ( 'NONE', *, *, #364, .F. ) ;
#107 = ORIENTED_EDGE ( 'NONE', *, *, #343, .F. ) ;
#108 = ORIENTED_EDGE ( 'NONE', *, *, #335, .T. ) ;
#109 = ORIENTED_EDGE ( 'NONE', *, *, #375, .F. ) ;
#110 = ORIENTED_EDGE ( 'NONE', *, *, #367, .T. ) ;
#111 = ORIENTED_EDGE ( 'NONE', *, *, #357, .F. ) ;
#112 = ORIENTED_EDGE ( 'NONE', *, *, #368, .F. ) ;
#113 = ORIENTED_EDGE ( 'NONE', *, *, #380, .T. ) ;
#114 = ORIENTED_EDGE ( 'NONE', *, *, #353, .F. ) ;
#115 = ORIENTED_EDGE ( 'NONE', *, *, #339, .F. ) ;
#116 = ORIENTED_EDGE ( 'NONE', *, *, #337, .F. ) ;
#117 = ORIENTED_EDGE ( 'NONE', *, *, #353, .T. ) ;
#118 = ORIENTED_EDGE ( 'NONE', *, *, #361, .T. ) ;
#119 = ORIENTED_EDGE ( 'NONE', *, *, #352, .F. ) ;
#120 = ORIENTED_EDGE ( 'NONE', *, *, #372, .T. ) ;
#121 = ORIENTED_EDGE ( 'NONE', *, *, #351, .T. ) ;
#122 = ORIENTED_EDGE ( 'NONE', *, *, #371, .F. ) ;
#123 = ORIENTED_EDGE ( 'NONE', *, *, #337, .T. ) ;
#124 = ORIENTED_EDGE ( 'NONE', *, *, #355, .F. ) ;
#125 = ORIENTED_EDGE ( 'NONE', *, *, #346, .F. ) ;
#126 = ORIENTED_EDGE ( 'NONE', *, *, #339, .T. ) ;
#127 = ORIENTED_EDGE ( 'NONE', *, *, #335, .F. ) ;
#128 = ORIENTED_EDGE ( 'NONE', *, *, #356, .T. ) ;
#129 = ORIENTED_EDGE ( 'NONE', *, *, #350, .F. ) ;
#130 = ORIENTED_EDGE ( 'NONE', *, *, #359, .T. ) ;
#131 = ORIENTED_EDGE ( 'NONE', *, *, #338, .T. ) ;
#132 = ORIENTED_EDGE ( 'NONE', *, *, #371, .T. ) ;
#133 = ORIENTED_EDGE ( 'NONE', *, *, #356, .F. ) ;
#134 = ORIENTED_EDGE ( 'NONE', *, *, #341, .T. ) ;
#135 = ORIENTED_EDGE ( 'NONE', *, *, #331, .T. ) ;
#136 = ORIENTED_EDGE ( 'NONE', *, *, #340, .F. ) ;
#137 = ORIENTED_EDGE ( 'NONE', *, *, #360, .T. ) ;
#138 = ORIENTED_EDGE ( 'NONE', *, *, #365, .F. ) ;
#139 = ORIENTED_EDGE ( 'NONE', *, *, #358, .F. ) ;
#140 = ORIENTED_EDGE ( 'NONE', *, *, #381, .T. ) ;
#141 = ORIENTED_EDGE ( 'NONE', *, *, #360, .F. ) ;
#142 = ORIENTED_EDGE ( 'NONE', *, *, #346, .T. ) ;
#143 = ORIENTED_EDGE ( 'NONE', *, *, #363, .T. ) ;
#144 = ORIENTED_EDGE ( 'NONE', *, *, #332, .F. ) ;
#145 = ORIENTED_EDGE ( 'NONE', *, *, #333, .T. ) ;
#146 = ORIENTED_EDGE ( 'NONE', *, *, #342, .F. ) ;
#147 = ORIENTED_EDGE ( 'NONE', *, *, #366, .F. ) ;
#148 = ORIENTED_EDGE ( 'NONE', *, *, #351, .F. ) ;
#149 = ORIENTED_EDGE ( 'NONE', *, *, #332, .T. ) ;
#150 = EDGE_LOOP ( 'NONE', ( #104, #106, #107, #113, #101 ) ) ;
#151 = LINE ( 'NONE', #627, #153 ) ;
#152 = VECTOR ( 'NONE', #672, 1000.000000000000000 ) ;
#153 = VECTOR ( 'NONE', #628, 1000.000000000000000 ) ;
#154 = ORIENTED_EDGE ( 'NONE', *, *, #341, .F. ) ;
#155 = EDGE_LOOP ( 'NONE', ( #109, #97 ) ) ;
#156 = EDGE_LOOP ( 'NONE', ( #43, #135, #50, #44 ) ) ;
#157 = ORIENTED_EDGE ( 'NONE', *, *, #336, .T. ) ;
#158 = ORIENTED_EDGE ( 'NONE', *, *, #359, .F. ) ;
#159 = EDGE_LOOP ( 'NONE', ( #52, #36, #103, #72, #92, #95, #122, #125 ) ) ;
#160 = CIRCLE ( 'NONE', #417, 3.399999999999996400 ) ;
#161 = ORIENTED_EDGE ( 'NONE', *, *, #383, .T. ) ;
#162 = EDGE_LOOP ( 'NONE', ( #119, #88, #51, #68, #137, #149, #102, #145 ) ) ;
#163 = EDGE_LOOP ( 'NONE', ( #158, #169, #205, #203 ) ) ;
#164 = LINE ( 'NONE', #668, #176 ) ;
#165 = CIRCLE ( 'NONE', #403, 5.999999999999999100 ) ;
#166 = EDGE_LOOP ( 'NONE', ( #111, #93, #143, #179 ) ) ;
#167 = EDGE_LOOP ( 'NONE', ( #117, #142, #87, #133, #144, #202 ) ) ;
#168 = VECTOR ( 'NONE', #676, 1000.000000000000000 ) ;
#169 = ORIENTED_EDGE ( 'NONE', *, *, #372, .F. ) ;
#170 = EDGE_LOOP ( 'NONE', ( #132, #121, #110, #124, #146 ) ) ;
#171 = EDGE_LOOP ( 'NONE', ( #69, #90, #100, #46, #128, #48, #39, #65 ) ) ;
#172 = EDGE_LOOP ( 'NONE', ( #120, #61 ) ) ;
#173 = EDGE_LOOP ( 'NONE', ( #140, #157, #134, #138, #174, #196 ) ) ;
#174 = ORIENTED_EDGE ( 'NONE', *, *, #373, .F. ) ;
#175 = CIRCLE ( 'NONE', #432, 5.999999999999999100 ) ;
#176 = VECTOR ( 'NONE', #680, 1000.000000000000000 ) ;
#177 = CIRCLE ( 'NONE', #386, 4.025000000000000400 ) ;
#178 = VECTOR ( 'NONE', #679, 1000.000000000000000 ) ;
#179 = ORIENTED_EDGE ( 'NONE', *, *, #375, .T. ) ;
#180 = LINE ( 'NONE', #681, #197 ) ;
#181 = EDGE_LOOP ( 'NONE', ( #115, #94, #62, #99 ) ) ;
#182 = CIRCLE ( 'NONE', #345, 5.000000000000000000 ) ;
#183 = LINE ( 'NONE', #673, #168 ) ;
#184 = CIRCLE ( 'NONE', #369, 3.399999999999997200 ) ;
#185 = EDGE_LOOP ( 'NONE', ( #139, #130, #129, #86 ) ) ;
#186 = EDGE_LOOP ( 'NONE', ( #108, #123, #126, #147, #154 ) ) ;
#187 = VECTOR ( 'NONE', #479, 1000.000000000000000 ) ;
#188 = EDGE_LOOP ( 'NONE', ( #71, #76, #131, #45 ) ) ;
#189 = LINE ( 'NONE', #678, #193 ) ;
#190 = CIRCLE ( 'NONE', #434, 5.999999999999999100 ) ;
#191 = LINE ( 'NONE', #637, #192 ) ;
#192 = VECTOR ( 'NONE', #650, 1000.000000000000000 ) ;
#193 = VECTOR ( 'NONE', #457, 1000.000000000000000 ) ;
#194 = CIRCLE ( 'NONE', #416, 5.999999999999999100 ) ;
#195 = ORIENTED_EDGE ( 'NONE', *, *, #347, .T. ) ;
#196 = ORIENTED_EDGE ( 'NONE', *, *, #364, .T. ) ;
#197 = VECTOR ( 'NONE', #677, 1000.000000000000000 ) ;
#198 = CIRCLE ( 'NONE', #435, 5.999999999999999100 ) ;
#199 = LINE ( 'NONE', #669, #178 ) ;
#200 = LINE ( 'NONE', #459, #187 ) ;
#201 = LINE ( 'NONE', #666, #152 ) ;
#202 = ORIENTED_EDGE ( 'NONE', *, *, #368, .T. ) ;
#203 = ORIENTED_EDGE ( 'NONE', *, *, #349, .F. ) ;
#204 = EDGE_LOOP ( 'NONE', ( #98, #73, #148, #105 ) ) ;
#205 = ORIENTED_EDGE ( 'NONE', *, *, #354, .T. ) ;
#206 = CIRCLE ( 'NONE', #370, 3.399999999999998100 ) ;
#207 = LINE ( 'NONE', #476, #254 ) ;
#208 = EDGE_LOOP ( 'NONE', ( #116, #118, #70, #89 ) ) ;
#209 = EDGE_LOOP ( 'NONE', ( #91, #112, #141, #195, #161 ) ) ;
#210 = EDGE_LOOP ( 'NONE', ( #40, #49, #114, #136, #96, #127, #42, #37 ) ) ;
#211 = CIRCLE ( 'NONE', #397, 3.399999999999996400 ) ;
#212 = CIRCLE ( 'NONE', #430, 3.399999999999997200 ) ;
#213 = LINE ( 'NONE', #500, #268 ) ;
#214 = VECTOR ( 'NONE', #553, 1000.000000000000000 ) ;
#215 = VECTOR ( 'NONE', #497, 1000.000000000000000 ) ;
#216 = VECTOR ( 'NONE', #515, 1000.000000000000000 ) ;
#217 = LINE ( 'NONE', #539, #219 ) ;
#218 = LINE ( 'NONE', #560, #261 ) ;
#219 = VECTOR ( 'NONE', #555, 1000.000000000000000 ) ;
#220 = FACE_OUTER_BOUND ( 'NONE', #181, .T. ) ;
#221 = CIRCLE ( 'NONE', #387, 3.399999999999998100 ) ;
#222 = VECTOR ( 'NONE', #511, 1000.000000000000100 ) ;
#223 = CYLINDRICAL_SURFACE ( 'NONE', #395, 5.999999999999999100 ) ;
#224 = FACE_OUTER_BOUND ( 'NONE', #150, .T. ) ;
#225 = LINE ( 'NONE', #519, #260 ) ;
#226 = FACE_OUTER_BOUND ( 'NONE', #208, .T. ) ;
#227 = FACE_OUTER_BOUND ( 'NONE', #167, .T. ) ;
#228 = CONICAL_SURFACE ( 'NONE', #422, 5.999999999999999100, 0.7853981633974505000 ) ;
#229 = FACE_OUTER_BOUND ( 'NONE', #173, .T. ) ;
#230 = FACE_OUTER_BOUND ( 'NONE', #186, .T. ) ;
#231 = FACE_OUTER_BOUND ( 'NONE', #170, .T. ) ;
#232 = FACE_OUTER_BOUND ( 'NONE', #163, .T. ) ;
#233 = LINE ( 'NONE', #522, #251 ) ;
#234 = FACE_OUTER_BOUND ( 'NONE', #204, .T. ) ;
#235 = LINE ( 'NONE', #466, #250 ) ;
#236 = VECTOR ( 'NONE', #503, 1000.000000000000000 ) ;
#237 = CONICAL_SURFACE ( 'NONE', #420, 4.025000000000000400, 0.7853981633974485000 ) ;
#238 = CIRCLE ( 'NONE', #425, 6.000000000000000000 ) ;
#239 = FACE_OUTER_BOUND ( 'NONE', #188, .T. ) ;
#240 = LINE ( 'NONE', #510, #222 ) ;
#241 = FACE_OUTER_BOUND ( 'NONE', #159, .T. ) ;
#242 = FACE_OUTER_BOUND ( 'NONE', #172, .T. ) ;
#243 = CIRCLE ( 'NONE', #431, 6.000000000000000000 ) ;
#244 = LINE ( 'NONE', #496, #215 ) ;
#245 = FACE_BOUND ( 'NONE', #155, .T. ) ;
#246 = CIRCLE ( 'NONE', #414, 5.199999999999994800 ) ;
#247 = FACE_OUTER_BOUND ( 'NONE', #185, .T. ) ;
#248 = LINE ( 'NONE', #556, #214 ) ;
#249 = VECTOR ( 'NONE', #468, 1000.000000000000000 ) ;
#250 = VECTOR ( 'NONE', #474, 999.9999999999998900 ) ;
#251 = VECTOR ( 'NONE', #513, 1000.000000000000000 ) ;
#252 = VECTOR ( 'NONE', #507, 1000.000000000000000 ) ;
#253 = FACE_OUTER_BOUND ( 'NONE', #210, .T. ) ;
#254 = VECTOR ( 'NONE', #470, 1000.000000000000100 ) ;
#255 = CYLINDRICAL_SURFACE ( 'NONE', #411, 3.399999999999997200 ) ;
#256 = CYLINDRICAL_SURFACE ( 'NONE', #384, 5.999999999999999100 ) ;
#257 = VECTOR ( 'NONE', #505, 1000.000000000000000 ) ;
#258 = LINE ( 'NONE', #467, #249 ) ;
#259 = LINE ( 'NONE', #498, #257 ) ;
#260 = VECTOR ( 'NONE', #520, 1000.000000000000000 ) ;
#261 = VECTOR ( 'NONE', #533, 1000.000000000000000 ) ;
#262 = FACE_OUTER_BOUND ( 'NONE', #171, .T. ) ;
#263 = CIRCLE ( 'NONE', #415, 5.999999999999999100 ) ;
#264 = FACE_OUTER_BOUND ( 'NONE', #209, .T. ) ;
#265 = CIRCLE ( 'NONE', #385, 4.025000000000000400 ) ;
#266 = FACE_OUTER_BOUND ( 'NONE', #156, .T. ) ;
#267 = CIRCLE ( 'NONE', #423, 3.399999999999997200 ) ;
#268 = VECTOR ( 'NONE', #514, 999.9999999999998900 ) ;
#269 = LINE ( 'NONE', #493, #216 ) ;
#270 = CIRCLE ( 'NONE', #418, 5.199999999999994800 ) ;
#271 = CIRCLE ( 'NONE', #433, 3.399999999999997200 ) ;
#272 = CIRCLE ( 'NONE', #412, 5.000000000000000000 ) ;
#273 = LINE ( 'NONE', #521, #252 ) ;
#274 = LINE ( 'NONE', #518, #236 ) ;
#275 = COORDINATED_UNIVERSAL_TIME_OFFSET ( 1, 0, .AHEAD. ) ;
#276 = CONICAL_SURFACE ( 'NONE', #429, 5.000000000000000000, 0.1973955598498808000 ) ;
#277 = CYLINDRICAL_SURFACE ( 'NONE', #408, 3.399999999999997200 ) ;
#278 = PERSON_AND_ORGANIZATION ( #437, #300 ) ;
#279 = CONICAL_SURFACE ( 'NONE', #426, 5.000000000000000000, 0.1973955598498808000 ) ;
#280 = APPROVAL_PERSON_ORGANIZATION ( #278, #399, #1 ) ;
#281 = CALENDAR_DATE ( 2017, 1, 2 ) ;
#282 = COORDINATED_UNIVERSAL_TIME_OFFSET ( 1, 0, .AHEAD. ) ;
#283 = CALENDAR_DATE ( 2017, 1, 2 ) ;
#284 = PERSON_AND_ORGANIZATION ( #437, #300 ) ;
#285 = COORDINATED_UNIVERSAL_TIME_OFFSET ( 1, 0, .AHEAD. ) ;
#286 = COORDINATED_UNIVERSAL_TIME_OFFSET ( 1, 0, .AHEAD. ) ;
#287 = CALENDAR_DATE ( 2017, 1, 2 ) ;
#288 = DATE_AND_TIME ( #287, #304 ) ;
#289 = PERSON_AND_ORGANIZATION ( #437, #300 ) ;
#290 = LOCAL_TIME ( 14, 30, 21.00000000000000000, #275 ) ;
#291 = APPROVAL_DATE_TIME ( #288, #398 ) ;
#292 = DATE_AND_TIME ( #299, #290 ) ;
#293 = DATE_AND_TIME ( #281, #312 ) ;
#294 = APPROVAL_PERSON_ORGANIZATION ( #298, #327, #27 ) ;
#295 = COORDINATED_UNIVERSAL_TIME_OFFSET ( 1, 0, .AHEAD. ) ;
#296 = LOCAL_TIME ( 14, 30, 21.00000000000000000, #295 ) ;
#297 = CALENDAR_DATE ( 2017, 1, 2 ) ;
#298 = PERSON_AND_ORGANIZATION ( #437, #300 ) ;
#299 = CALENDAR_DATE ( 2017, 1, 2 ) ;
#300 = ORGANIZATION ( 'UNSPECIFIED', 'UNSPECIFIED', '' ) ;
#301 = PERSON_AND_ORGANIZATION ( #437, #300 ) ;
#302 = LOCAL_TIME ( 14, 30, 21.00000000000000000, #282 ) ;
#303 = FACE_OUTER_BOUND ( 'NONE', #162, .T. ) ;
#304 = LOCAL_TIME ( 14, 30, 21.00000000000000000, #286 ) ;
#305 = PERSON_AND_ORGANIZATION ( #437, #300 ) ;
#306 = DATE_AND_TIME ( #297, #296 ) ;
#307 = APPROVAL_DATE_TIME ( #306, #327 ) ;
#308 = APPROVAL_DATE_TIME ( #293, #399 ) ;
#309 = DATE_AND_TIME ( #283, #302 ) ;
#310 = SHAPE_DEFINITION_REPRESENTATION ( #683, #324 ) ;
#311 = FACE_OUTER_BOUND ( 'NONE', #166, .T. ) ;
#312 = LOCAL_TIME ( 14, 30, 21.00000000000000000, #285 ) ;
#313 = PERSON_AND_ORGANIZATION ( #437, #300 ) ;
#314 = CONICAL_SURFACE ( 'NONE', #388, 4.025000000000000400, 0.7853981633974485000 ) ;
#315 = PERSON_AND_ORGANIZATION ( #437, #300 ) ;
#316 = CONICAL_SURFACE ( 'NONE', #421, 5.999999999999999100, 0.7853981633974505000 ) ;
#317 = APPROVAL_PERSON_ORGANIZATION ( #284, #398, #12 ) ;
#318 = B_SPLINE_CURVE_WITH_KNOTS ( 'NONE', 3,
 ( #662, #663, #664, #667 ),
 .UNSPECIFIED., .F., .F.,
 ( 4, 4 ),
 ( 0.008050389891662675800, 0.01315736564690493700 ),
 .UNSPECIFIED. ) ;
#319 = B_SPLINE_CURVE_WITH_KNOTS ( 'NONE', 3,
 ( #530, #531, #526, #527 ),
 .UNSPECIFIED., .F., .F.,
 ( 4, 4 ),
 ( 0.005929747869324667800, 0.01103669547631487000 ),
 .UNSPECIFIED. ) ;
#320 = MANIFOLD_SOLID_BREP ( 'Chamfer1', #77 ) ;
#321 = B_SPLINE_CURVE_WITH_KNOTS ( 'NONE', 3,
 ( #557, #559, #534, #546 ),
 .UNSPECIFIED., .F., .F.,
 ( 4, 4 ),
 ( 0.005929747869324667800, 0.01103669547631487000 ),
 .UNSPECIFIED. ) ;
#322 = UNCERTAINTY_MEASURE_WITH_UNIT (LENGTH_MEASURE( 1.000000000000000100E-005 ), #7, 'distance_accuracy_value', 'NONE');
#323 = B_SPLINE_CURVE_WITH_KNOTS ( 'NONE', 3,
 ( #460, #469, #488, #464 ),
 .UNSPECIFIED., .F., .F.,
 ( 4, 4 ),
 ( 0.008050389891662675800, 0.01315736564690493700 ),
 .UNSPECIFIED. ) ;
#324 = ADVANCED_BREP_SHAPE_REPRESENTATION ( 'ALP0413', ( #320, #396 ), #389 ) ;
#325 = PRODUCT_RELATED_PRODUCT_CATEGORY ( 'detail', '', ( #436 ) ) ;
#326 = CC_DESIGN_PERSON_AND_ORGANIZATION_ASSIGNMENT ( #305, #19, ( #409 ) ) ;
#327 = APPROVAL ( #18, 'UNSPECIFIED' ) ;
#328 = CC_DESIGN_DATE_AND_TIME_ASSIGNMENT ( #292, #5, ( #409 ) ) ;
#329 = CC_DESIGN_SECURITY_CLASSIFICATION ( #409, ( #402 ) ) ;
#330 = CC_DESIGN_APPROVAL ( #327, ( #409 ) ) ;
#331 = EDGE_CURVE ( 'NONE', #54, #83, #182, .T. ) ;
#332 = EDGE_CURVE ( 'NONE', #34, #81, #184, .T. ) ;
#333 = EDGE_CURVE ( 'NONE', #63, #84, #206, .T. ) ;
#334 = EDGE_CURVE ( 'NONE', #74, #57, #151, .T. ) ;
#335 = EDGE_CURVE ( 'NONE', #41, #79, #191, .T. ) ;
#336 = EDGE_CURVE ( 'NONE', #60, #41, #175, .T. ) ;
#337 = EDGE_CURVE ( 'NONE', #79, #59, #318, .T. ) ;
#338 = EDGE_CURVE ( 'NONE', #47, #32, #177, .T. ) ;
#339 = EDGE_CURVE ( 'NONE', #59, #31, #201, .T. ) ;
#340 = EDGE_CURVE ( 'NONE', #85, #30, #183, .T. ) ;
#341 = EDGE_CURVE ( 'NONE', #41, #38, #164, .T. ) ;
#342 = EDGE_CURVE ( 'NONE', #56, #82, #180, .T. ) ;
#343 = EDGE_CURVE ( 'NONE', #80, #66, #199, .T. ) ;
#344 = EDGE_CURVE ( 'NONE', #80, #33, #211, .T. ) ;
#345 = AXIS2_PLACEMENT_3D ( 'NONE', #642, #643, #649 ) ;
#346 = EDGE_CURVE ( 'NONE', #57, #56, #190, .T. ) ;
#347 = EDGE_CURVE ( 'NONE', #67, #75, #189, .T. ) ;
#348 = EDGE_CURVE ( 'NONE', #67, #31, #160, .T. ) ;
#349 = EDGE_CURVE ( 'NONE', #74, #55, #198, .T. ) ;
#350 = EDGE_CURVE ( 'NONE', #55, #74, #194, .T. ) ;
#351 = EDGE_CURVE ( 'NONE', #35, #54, #323, .T. ) ;
#352 = EDGE_CURVE ( 'NONE', #58, #84, #200, .T. ) ;
#353 = EDGE_CURVE ( 'NONE', #30, #57, #165, .T. ) ;
#354 = EDGE_CURVE ( 'NONE', #78, #55, #207, .T. ) ;
#355 = EDGE_CURVE ( 'NONE', #82, #33, #258, .T. ) ;
#356 = EDGE_CURVE ( 'NONE', #81, #82, #267, .T. ) ;
#357 = EDGE_CURVE ( 'NONE', #84, #47, #235, .T. ) ;
#358 = EDGE_CURVE ( 'NONE', #64, #78, #246, .T. ) ;
#359 = EDGE_CURVE ( 'NONE', #64, #74, #240, .T. ) ;
#360 = EDGE_CURVE ( 'NONE', #67, #34, #259, .T. ) ;
#361 = EDGE_CURVE ( 'NONE', #79, #85, #243, .T. ) ;
#362 = EDGE_CURVE ( 'NONE', #59, #75, #272, .T. ) ;
#363 = EDGE_CURVE ( 'NONE', #63, #32, #213, .T. ) ;
#364 = EDGE_CURVE ( 'NONE', #66, #29, #273, .T. ) ;
#365 = EDGE_CURVE ( 'NONE', #58, #38, #212, .T. ) ;
#366 = EDGE_CURVE ( 'NONE', #38, #31, #244, .T. ) ;
#367 = EDGE_CURVE ( 'NONE', #54, #33, #225, .T. ) ;
#368 = EDGE_CURVE ( 'NONE', #34, #30, #269, .T. ) ;
#369 = AXIS2_PLACEMENT_3D ( 'NONE', #659, #651, #633 ) ;
#370 = AXIS2_PLACEMENT_3D ( 'NONE', #652, #622, #632 ) ;
#371 = EDGE_CURVE ( 'NONE', #56, #35, #233, .T. ) ;
#372 = EDGE_CURVE ( 'NONE', #78, #64, #270, .T. ) ;
#373 = EDGE_CURVE ( 'NONE', #66, #58, #271, .T. ) ;
#374 = EDGE_CURVE ( 'NONE', #83, #53, #319, .T. ) ;
#375 = EDGE_CURVE ( 'NONE', #32, #47, #265, .T. ) ;
#376 = EDGE_CURVE ( 'NONE', #81, #63, #274, .T. ) ;
#377 = EDGE_CURVE ( 'NONE', #55, #60, #248, .T. ) ;
#378 = EDGE_CURVE ( 'NONE', #35, #53, #238, .T. ) ;
#379 = EDGE_CURVE ( 'NONE', #53, #29, #218, .T. ) ;
#380 = EDGE_CURVE ( 'NONE', #80, #83, #217, .T. ) ;
#381 = EDGE_CURVE ( 'NONE', #29, #60, #263, .T. ) ;
#382 = EDGE_CURVE ( 'NONE', #84, #63, #221, .T. ) ;
#383 = EDGE_CURVE ( 'NONE', #75, #85, #321, .T. ) ;
#384 = AXIS2_PLACEMENT_3D ( 'NONE', #570, #575, #597 ) ;
#385 = AXIS2_PLACEMENT_3D ( 'NONE', #524, #563, #542 ) ;
#386 = AXIS2_PLACEMENT_3D ( 'NONE', #670, #675, #671 ) ;
#387 = AXIS2_PLACEMENT_3D ( 'NONE', #564, #558, #537 ) ;
#388 = AXIS2_PLACEMENT_3D ( 'NONE', #15, #2, #14 ) ;
#389 =( GEOMETRIC_REPRESENTATION_CONTEXT ( 3 ) GLOBAL_UNCERTAINTY_ASSIGNED_CONTEXT ( ( #322 ) ) GLOBAL_UNIT_ASSIGNED_CONTEXT ( ( #7, #24, #8 ) ) REPRESENTATION_CONTEXT ( 'NONE', 'WORKASPACE' ) );
#390 = CC_DESIGN_PERSON_AND_ORGANIZATION_ASSIGNMENT ( #301, #16, ( #436 ) ) ;
#391 = PRODUCT_DEFINITION ( 'UNKNOWN', '', #402, #682 ) ;
#392 = CC_DESIGN_APPROVAL ( #399, ( #391 ) ) ;
#393 = CC_DESIGN_PERSON_AND_ORGANIZATION_ASSIGNMENT ( #315, #6, ( #391 ) ) ;
#394 = CC_DESIGN_DATE_AND_TIME_ASSIGNMENT ( #309, #22, ( #391 ) ) ;
#395 = AXIS2_PLACEMENT_3D ( 'NONE', #586, #590, #591 ) ;
#396 = AXIS2_PLACEMENT_3D ( 'NONE', #11, #4, #21 ) ;
#397 = AXIS2_PLACEMENT_3D ( 'NONE', #489, #478, #458 ) ;
#398 = APPROVAL ( #28, 'UNSPECIFIED' ) ;
#399 = APPROVAL ( #25, 'UNSPECIFIED' ) ;
#400 = CC_DESIGN_APPROVAL ( #398, ( #402 ) ) ;
#401 = AXIS2_PLACEMENT_3D ( 'NONE', #549, #550, #580 ) ;
#402 = PRODUCT_DEFINITION_FORMATION_WITH_SPECIFIED_SOURCE ( 'ANY', '', #436, .NOT_KNOWN. ) ;
#403 = AXIS2_PLACEMENT_3D ( 'NONE', #471, #472, #473 ) ;
#404 = AXIS2_PLACEMENT_3D ( 'NONE', #609, #579, #587 ) ;
#405 = CC_DESIGN_PERSON_AND_ORGANIZATION_ASSIGNMENT ( #313, #9, ( #402 ) ) ;
#406 = CC_DESIGN_PERSON_AND_ORGANIZATION_ASSIGNMENT ( #289, #23, ( #402 ) ) ;
#407 = AXIS2_PLACEMENT_3D ( 'NONE', #606, #584, #610 ) ;
#408 = AXIS2_PLACEMENT_3D ( 'NONE', #569, #604, #573 ) ;
#409 = SECURITY_CLASSIFICATION ( '', '', #13 ) ;
#410 = AXIS2_PLACEMENT_3D ( 'NONE', #566, #547, #567 ) ;
#411 = AXIS2_PLACEMENT_3D ( 'NONE', #541, #548, #543 ) ;
#412 = AXIS2_PLACEMENT_3D ( 'NONE', #504, #499, #506 ) ;
#413 = AXIS2_PLACEMENT_3D ( 'NONE', #601, #583, #585 ) ;
#414 = AXIS2_PLACEMENT_3D ( 'NONE', #492, #509, #495 ) ;
#415 = AXIS2_PLACEMENT_3D ( 'NONE', #565, #552, #561 ) ;
#416 = AXIS2_PLACEMENT_3D ( 'NONE', #462, #463, #487 ) ;
#417 = AXIS2_PLACEMENT_3D ( 'NONE', #461, #485, #465 ) ;
#418 = AXIS2_PLACEMENT_3D ( 'NONE', #491, #525, #528 ) ;
#419 = AXIS2_PLACEMENT_3D ( 'NONE', #598, #600, #607 ) ;
#420 = AXIS2_PLACEMENT_3D ( 'NONE', #562, #538, #535 ) ;
#421 = AXIS2_PLACEMENT_3D ( 'NONE', #593, #594, #595 ) ;
#422 = AXIS2_PLACEMENT_3D ( 'NONE', #611, #574, #612 ) ;
#423 = AXIS2_PLACEMENT_3D ( 'NONE', #481, #482, #512 ) ;
#424 = AXIS2_PLACEMENT_3D ( 'NONE', #613, #614, #592 ) ;
#425 = AXIS2_PLACEMENT_3D ( 'NONE', #554, #568, #545 ) ;
#426 = AXIS2_PLACEMENT_3D ( 'NONE', #536, #551, #588 ) ;
#427 = AXIS2_PLACEMENT_3D ( 'NONE', #578, #674, #477 ) ;
#428 = AXIS2_PLACEMENT_3D ( 'NONE', #581, #582, #599 ) ;
#429 = AXIS2_PLACEMENT_3D ( 'NONE', #572, #602, #576 ) ;
#430 = AXIS2_PLACEMENT_3D ( 'NONE', #516, #494, #517 ) ;
#431 = AXIS2_PLACEMENT_3D ( 'NONE', #501, #502, #508 ) ;
#432 = AXIS2_PLACEMENT_3D ( 'NONE', #665, #660, #661 ) ;
#433 = AXIS2_PLACEMENT_3D ( 'NONE', #529, #532, #523 ) ;
#434 = AXIS2_PLACEMENT_3D ( 'NONE', #490, #480, #484 ) ;
#435 = AXIS2_PLACEMENT_3D ( 'NONE', #483, #486, #475 ) ;
#436 = PRODUCT ( 'ALP0413', 'ALP0413', '', ( #3 ) ) ;
#437 = PERSON ( 'UNSPECIFIED', 'UNSPECIFIED', 'UNSPECIFIED', ('UNSPECIFIED'), ('UNSPECIFIED'), ('UNSPECIFIED') ) ;
#438 = ADVANCED_FACE ( 'NONE', ( #239 ), #237, .F. ) ;
#439 = ADVANCED_FACE ( 'NONE', ( #224 ), #540, .F. ) ;
#440 = ADVANCED_FACE ( 'NONE', ( #262 ), #255, .F. ) ;
#441 = ADVANCED_FACE ( 'NONE', ( #220 ), #544, .T. ) ;
#442 = ADVANCED_FACE ( 'NONE', ( #241 ), #256, .T. ) ;
#443 = ADVANCED_FACE ( 'NONE', ( #242, #245 ), #596, .T. ) ;
#444 = ADVANCED_FACE ( 'NONE', ( #247 ), #228, .T. ) ;
#445 = ADVANCED_FACE ( 'NONE', ( #253 ), #223, .T. ) ;
#446 = ADVANCED_FACE ( 'NONE', ( #230 ), #589, .F. ) ;
#447 = ADVANCED_FACE ( 'NONE', ( #264 ), #605, .F. ) ;
#448 = ADVANCED_FACE ( 'NONE', ( #229 ), #608, .F. ) ;
#449 = ADVANCED_FACE ( 'NONE', ( #231 ), #571, .F. ) ;
#450 = ADVANCED_FACE ( 'NONE', ( #232 ), #316, .T. ) ;
#451 = ADVANCED_FACE ( 'NONE', ( #226 ), #276, .T. ) ;
#452 = ADVANCED_FACE ( 'NONE', ( #227 ), #603, .F. ) ;
#453 = ADVANCED_FACE ( 'NONE', ( #303 ), #277, .F. ) ;
#454 = ADVANCED_FACE ( 'NONE', ( #266 ), #577, .T. ) ;
#455 = ADVANCED_FACE ( 'NONE', ( #234 ), #279, .T. ) ;
#456 = ADVANCED_FACE ( 'NONE', ( #311 ), #314, .F. ) ;
#457 = DIRECTION ( 'NONE',  ( -0.0000000000000000000, -0.0000000000000000000, 1.000000000000000000 ) ) ;
#458 = DIRECTION ( 'NONE',  ( 0.0000000000000000000, 0.0000000000000000000, 1.000000000000000000 ) ) ;
#459 = CARTESIAN_POINT ( 'NONE',  ( 0.0000000000000000000, 4.163799117100997600E-016, -3.399999999999997200 ) ) ;
#460 = CARTESIAN_POINT ( 'NONE',  ( 10.00000000000000000, -1.500000000000000000, 5.809475019311125100 ) ) ;
#461 = CARTESIAN_POINT ( 'NONE',  ( 15.00000000000000000, 0.0000000000000000000, 0.0000000000000000000 ) ) ;
#462 = CARTESIAN_POINT ( 'NONE',  ( 0.8000000000000012700, 0.0000000000000000000, 0.0000000000000000000 ) ) ;
#463 = DIRECTION ( 'NONE',  ( 1.000000000000000000, -0.0000000000000000000, -0.0000000000000000000 ) ) ;
#464 = CARTESIAN_POINT ( 'NONE',  ( 15.00000000000000000, -1.500000000000000000, 4.769696007084728100 ) ) ;
#465 = DIRECTION ( 'NONE',  ( 0.0000000000000000000, 0.0000000000000000000, 1.000000000000000000 ) ) ;
#466 = CARTESIAN_POINT ( 'NONE',  ( -1.734723475976807100E-015, 4.929203366568097200E-016, -4.025000000000000400 ) ) ;
#467 = CARTESIAN_POINT ( 'NONE',  ( 0.0000000000000000000, -1.500000000000000000, 3.051229260478468300 ) ) ;
#468 = DIRECTION ( 'NONE',  ( 1.000000000000000000, 0.0000000000000000000, 0.0000000000000000000 ) ) ;
#469 = CARTESIAN_POINT ( 'NONE',  ( 11.66713225960866600, -1.500000000000000000, 5.465113660517018500 ) ) ;
#470 = DIRECTION ( 'NONE',  ( 0.7071067811865460200, 0.0000000000000000000, -0.7071067811865490200 ) ) ;
#471 = CARTESIAN_POINT ( 'NONE',  ( 9.000000000000000000, 0.0000000000000000000, 0.0000000000000000000 ) ) ;
#472 = DIRECTION ( 'NONE',  ( 1.000000000000000000, -0.0000000000000000000, -0.0000000000000000000 ) ) ;
#473 = DIRECTION ( 'NONE',  ( 0.0000000000000000000, -5.329070518200752200E-015, 1.000000000000000000 ) ) ;
#474 = DIRECTION ( 'NONE',  ( -0.7071067811865473500, 8.659560562354936600E-017, -0.7071067811865477900 ) ) ;
#475 = DIRECTION ( 'NONE',  ( 0.0000000000000000000, 0.0000000000000000000, 1.000000000000000000 ) ) ;
#476 = CARTESIAN_POINT ( 'NONE',  ( 0.8000000000000012700, 0.0000000000000000000, -5.999999999999999100 ) ) ;
#477 = DIRECTION ( 'NONE',  ( -0.0000000000000000000, 0.0000000000000000000, -1.000000000000000000 ) ) ;
#478 = DIRECTION ( 'NONE',  ( -1.000000000000000000, -0.0000000000000000000, -0.0000000000000000000 ) ) ;
#479 = DIRECTION ( 'NONE',  ( -1.000000000000000000, -0.0000000000000000000, -0.0000000000000000000 ) ) ;
#480 = DIRECTION ( 'NONE',  ( 1.000000000000000000, -0.0000000000000000000, -0.0000000000000000000 ) ) ;
#481 = CARTESIAN_POINT ( 'NONE',  ( 9.000000000000000000, 0.0000000000000000000, 0.0000000000000000000 ) ) ;
#482 = DIRECTION ( 'NONE',  ( 1.000000000000000000, -0.0000000000000000000, -0.0000000000000000000 ) ) ;
#483 = CARTESIAN_POINT ( 'NONE',  ( 0.8000000000000012700, 0.0000000000000000000, 0.0000000000000000000 ) ) ;
#484 = DIRECTION ( 'NONE',  ( 0.0000000000000000000, 0.0000000000000000000, 1.000000000000000000 ) ) ;
#485 = DIRECTION ( 'NONE',  ( -1.000000000000000000, -0.0000000000000000000, -0.0000000000000000000 ) ) ;
#486 = DIRECTION ( 'NONE',  ( 1.000000000000000000, -0.0000000000000000000, -0.0000000000000000000 ) ) ;
#487 = DIRECTION ( 'NONE',  ( 0.0000000000000000000, 0.0000000000000000000, 1.000000000000000000 ) ) ;
#488 = CARTESIAN_POINT ( 'NONE',  ( 13.33390575269489500, -1.500000000000000000, 5.119004274284639800 ) ) ;
#489 = CARTESIAN_POINT ( 'NONE',  ( 15.00000000000000000, 0.0000000000000000000, 0.0000000000000000000 ) ) ;
#490 = CARTESIAN_POINT ( 'NONE',  ( 9.000000000000000000, 0.0000000000000000000, 0.0000000000000000000 ) ) ;
#491 = CARTESIAN_POINT ( 'NONE',  ( 0.0000000000000000000, 0.0000000000000000000, 0.0000000000000000000 ) ) ;
#492 = CARTESIAN_POINT ( 'NONE',  ( 0.0000000000000000000, 0.0000000000000000000, 0.0000000000000000000 ) ) ;
#493 = CARTESIAN_POINT ( 'NONE',  ( 9.000000000000000000, 1.500000000000000000, 7.300171619476714100 ) ) ;
#494 = DIRECTION ( 'NONE',  ( 1.000000000000000000, -0.0000000000000000000, -0.0000000000000000000 ) ) ;
#495 = DIRECTION ( 'NONE',  ( 0.0000000000000000000, 0.0000000000000000000, 1.000000000000000000 ) ) ;
#496 = CARTESIAN_POINT ( 'NONE',  ( 0.0000000000000000000, 1.500000000000000000, -3.051229260478468300 ) ) ;
#497 = DIRECTION ( 'NONE',  ( 1.000000000000000000, 0.0000000000000000000, 0.0000000000000000000 ) ) ;
#498 = CARTESIAN_POINT ( 'NONE',  ( 0.0000000000000000000, 1.500000000000000000, 3.051229260478468300 ) ) ;
#499 = DIRECTION ( 'NONE',  ( 1.000000000000000000, -0.0000000000000000000, -0.0000000000000000000 ) ) ;
#500 = CARTESIAN_POINT ( 'NONE',  ( -1.734723475976807100E-015, 0.0000000000000000000, 4.025000000000000400 ) ) ;
#501 = CARTESIAN_POINT ( 'NONE',  ( 10.00000000000000000, 0.0000000000000000000, 0.0000000000000000000 ) ) ;
#502 = DIRECTION ( 'NONE',  ( 1.000000000000000000, -0.0000000000000000000, -0.0000000000000000000 ) ) ;
#503 = DIRECTION ( 'NONE',  ( -1.000000000000000000, -0.0000000000000000000, -0.0000000000000000000 ) ) ;
#504 = CARTESIAN_POINT ( 'NONE',  ( 15.00000000000000000, 0.0000000000000000000, 0.0000000000000000000 ) ) ;
#505 = DIRECTION ( 'NONE',  ( -1.000000000000000000, -0.0000000000000000000, -0.0000000000000000000 ) ) ;
#506 = DIRECTION ( 'NONE',  ( 0.0000000000000000000, 0.0000000000000000000, -1.000000000000000000 ) ) ;
#507 = DIRECTION ( 'NONE',  ( 0.0000000000000000000, 0.0000000000000000000, -1.000000000000000000 ) ) ;
#508 = DIRECTION ( 'NONE',  ( 0.0000000000000000000, 0.0000000000000000000, -1.000000000000000000 ) ) ;
#509 = DIRECTION ( 'NONE',  ( -1.000000000000000000, 0.0000000000000000000, 0.0000000000000000000 ) ) ;
#510 = CARTESIAN_POINT ( 'NONE',  ( 0.8000000000000012700, 7.347880794884118800E-016, 5.999999999999999100 ) ) ;
#511 = DIRECTION ( 'NONE',  ( 0.7071067811865460200, 8.659560562354952600E-017, 0.7071067811865490200 ) ) ;
#512 = DIRECTION ( 'NONE',  ( 0.0000000000000000000, 0.0000000000000000000, 1.000000000000000000 ) ) ;
#513 = DIRECTION ( 'NONE',  ( 1.000000000000000000, -0.0000000000000000000, -0.0000000000000000000 ) ) ;
#514 = DIRECTION ( 'NONE',  ( -0.7071067811865473500, 0.0000000000000000000, 0.7071067811865477900 ) ) ;
#515 = DIRECTION ( 'NONE',  ( -0.0000000000000000000, -0.0000000000000000000, 1.000000000000000000 ) ) ;
#516 = CARTESIAN_POINT ( 'NONE',  ( 9.000000000000000000, 0.0000000000000000000, 0.0000000000000000000 ) ) ;
#517 = DIRECTION ( 'NONE',  ( 0.0000000000000000000, 0.0000000000000000000, 1.000000000000000000 ) ) ;
#518 = CARTESIAN_POINT ( 'NONE',  ( 0.0000000000000000000, 0.0000000000000000000, 3.399999999999997200 ) ) ;
#519 = CARTESIAN_POINT ( 'NONE',  ( 15.00000000000000000, -1.500000000000000000, 7.300171619476714100 ) ) ;
#520 = DIRECTION ( 'NONE',  ( 0.0000000000000000000, 0.0000000000000000000, -1.000000000000000000 ) ) ;
#521 = CARTESIAN_POINT ( 'NONE',  ( 9.000000000000000000, -1.500000000000000000, 7.300171619476714100 ) ) ;
#522 = CARTESIAN_POINT ( 'NONE',  ( 0.0000000000000000000, -1.500000000000000000, 5.809475019311124200 ) ) ;
#523 = DIRECTION ( 'NONE',  ( 0.0000000000000000000, 3.552713678800500900E-015, 1.000000000000000000 ) ) ;
#524 = CARTESIAN_POINT ( 'NONE',  ( -1.734723475976807100E-015, 0.0000000000000000000, 0.0000000000000000000 ) ) ;
#525 = DIRECTION ( 'NONE',  ( -1.000000000000000000, 0.0000000000000000000, 0.0000000000000000000 ) ) ;
#526 = CARTESIAN_POINT ( 'NONE',  ( 11.66712884614914200, -1.500000000000000000, -5.465114365598185300 ) ) ;
#527 = CARTESIAN_POINT ( 'NONE',  ( 10.00000000000000000, -1.500000000000000000, -5.809475019311126000 ) ) ;
#528 = DIRECTION ( 'NONE',  ( 0.0000000000000000000, 0.0000000000000000000, 1.000000000000000000 ) ) ;
#529 = CARTESIAN_POINT ( 'NONE',  ( 9.000000000000000000, 0.0000000000000000000, 0.0000000000000000000 ) ) ;
#530 = CARTESIAN_POINT ( 'NONE',  ( 15.00000000000000000, -1.500000000000000000, -4.769696007084729000 ) ) ;
#531 = CARTESIAN_POINT ( 'NONE',  ( 13.33390100904257400, -1.500000000000000000, -5.119005268824399700 ) ) ;
#532 = DIRECTION ( 'NONE',  ( 1.000000000000000000, -0.0000000000000000000, -0.0000000000000000000 ) ) ;
#533 = DIRECTION ( 'NONE',  ( -1.000000000000000000, 0.0000000000000000000, 0.0000000000000000000 ) ) ;
#534 = CARTESIAN_POINT ( 'NONE',  ( 11.66712884614914200, 1.500000000000000000, 5.465114365598185300 ) ) ;
#535 = DIRECTION ( 'NONE',  ( 0.0000000000000000000, 0.0000000000000000000, 1.000000000000000000 ) ) ;
#536 = CARTESIAN_POINT ( 'NONE',  ( 15.00000000000000000, 0.0000000000000000000, 0.0000000000000000000 ) ) ;
#537 = DIRECTION ( 'NONE',  ( 0.0000000000000000000, 0.0000000000000000000, 1.000000000000000000 ) ) ;
#538 = DIRECTION ( 'NONE',  ( -1.000000000000000000, -0.0000000000000000000, -0.0000000000000000000 ) ) ;
#539 = CARTESIAN_POINT ( 'NONE',  ( 15.00000000000000000, -1.500000000000000000, 7.300171619476714100 ) ) ;
#540 = PLANE ( 'NONE',  #410 ) ;
#541 = CARTESIAN_POINT ( 'NONE',  ( 0.0000000000000000000, 0.0000000000000000000, 0.0000000000000000000 ) ) ;
#542 = DIRECTION ( 'NONE',  ( 0.0000000000000000000, 0.0000000000000000000, 1.000000000000000000 ) ) ;
#543 = DIRECTION ( 'NONE',  ( 0.0000000000000000000, 0.0000000000000000000, 1.000000000000000000 ) ) ;
#544 = PLANE ( 'NONE',  #401 ) ;
#545 = DIRECTION ( 'NONE',  ( 0.0000000000000000000, 0.0000000000000000000, -1.000000000000000000 ) ) ;
#546 = CARTESIAN_POINT ( 'NONE',  ( 10.00000000000000000, 1.500000000000000000, 5.809475019311126000 ) ) ;
#547 = DIRECTION ( 'NONE',  ( 0.0000000000000000000, -1.000000000000000000, -0.0000000000000000000 ) ) ;
#548 = DIRECTION ( 'NONE',  ( -1.000000000000000000, -0.0000000000000000000, -0.0000000000000000000 ) ) ;
#549 = CARTESIAN_POINT ( 'NONE',  ( 15.00000000000000000, 5.000000000000000000, 0.0000000000000000000 ) ) ;
#550 = DIRECTION ( 'NONE',  ( 1.000000000000000000, 0.0000000000000000000, -0.0000000000000000000 ) ) ;
#551 = DIRECTION ( 'NONE',  ( -1.000000000000000000, 0.0000000000000000000, 0.0000000000000000000 ) ) ;
#552 = DIRECTION ( 'NONE',  ( 1.000000000000000000, -0.0000000000000000000, -0.0000000000000000000 ) ) ;
#553 = DIRECTION ( 'NONE',  ( 1.000000000000000000, -0.0000000000000000000, -0.0000000000000000000 ) ) ;
#554 = CARTESIAN_POINT ( 'NONE',  ( 10.00000000000000000, 0.0000000000000000000, 0.0000000000000000000 ) ) ;
#555 = DIRECTION ( 'NONE',  ( 0.0000000000000000000, 0.0000000000000000000, -1.000000000000000000 ) ) ;
#556 = CARTESIAN_POINT ( 'NONE',  ( 0.0000000000000000000, 0.0000000000000000000, -5.999999999999999100 ) ) ;
#557 = CARTESIAN_POINT ( 'NONE',  ( 15.00000000000000000, 1.500000000000000000, 4.769696007084728100 ) ) ;
#558 = DIRECTION ( 'NONE',  ( -1.000000000000000000, -0.0000000000000000000, -0.0000000000000000000 ) ) ;
#559 = CARTESIAN_POINT ( 'NONE',  ( 13.33390100904257400, 1.500000000000000000, 5.119005268824399700 ) ) ;
#560 = CARTESIAN_POINT ( 'NONE',  ( 0.0000000000000000000, -1.500000000000000000, -5.809475019311124200 ) ) ;
#561 = DIRECTION ( 'NONE',  ( 0.0000000000000000000, 5.329070518200752200E-015, 1.000000000000000000 ) ) ;
#562 = CARTESIAN_POINT ( 'NONE',  ( -1.734723475976807100E-015, 0.0000000000000000000, 0.0000000000000000000 ) ) ;
#563 = DIRECTION ( 'NONE',  ( -1.000000000000000000, -0.0000000000000000000, -0.0000000000000000000 ) ) ;
#564 = CARTESIAN_POINT ( 'NONE',  ( 0.6250000000000005600, 0.0000000000000000000, 0.0000000000000000000 ) ) ;
#565 = CARTESIAN_POINT ( 'NONE',  ( 9.000000000000000000, 0.0000000000000000000, 0.0000000000000000000 ) ) ;
#566 = CARTESIAN_POINT ( 'NONE',  ( 9.000000000000000000, -1.500000000000000000, 7.300171619476714100 ) ) ;
#567 = DIRECTION ( 'NONE',  ( 0.0000000000000000000, 0.0000000000000000000, -1.000000000000000000 ) ) ;
#568 = DIRECTION ( 'NONE',  ( 1.000000000000000000, -0.0000000000000000000, -0.0000000000000000000 ) ) ;
#569 = CARTESIAN_POINT ( 'NONE',  ( 0.0000000000000000000, 0.0000000000000000000, 0.0000000000000000000 ) ) ;
#570 = CARTESIAN_POINT ( 'NONE',  ( 0.0000000000000000000, 0.0000000000000000000, 0.0000000000000000000 ) ) ;
#571 = PLANE ( 'NONE',  #424 ) ;
#572 = CARTESIAN_POINT ( 'NONE',  ( 15.00000000000000000, 0.0000000000000000000, 0.0000000000000000000 ) ) ;
#573 = DIRECTION ( 'NONE',  ( 0.0000000000000000000, 0.0000000000000000000, 1.000000000000000000 ) ) ;
#574 = DIRECTION ( 'NONE',  ( 1.000000000000000000, -0.0000000000000000000, -0.0000000000000000000 ) ) ;
#575 = DIRECTION ( 'NONE',  ( 1.000000000000000000, -0.0000000000000000000, -0.0000000000000000000 ) ) ;
#576 = DIRECTION ( 'NONE',  ( 0.0000000000000000000, 0.0000000000000000000, 1.000000000000000000 ) ) ;
#577 = PLANE ( 'NONE',  #427 ) ;
#578 = CARTESIAN_POINT ( 'NONE',  ( 15.00000000000000000, 5.000000000000000000, 0.0000000000000000000 ) ) ;
#579 = DIRECTION ( 'NONE',  ( -1.000000000000000000, 0.0000000000000000000, 0.0000000000000000000 ) ) ;
#580 = DIRECTION ( 'NONE',  ( -0.0000000000000000000, 0.0000000000000000000, -1.000000000000000000 ) ) ;
#581 = CARTESIAN_POINT ( 'NONE',  ( 9.000000000000000000, 0.0000000000000000000, 0.0000000000000000000 ) ) ;
#582 = DIRECTION ( 'NONE',  ( -1.000000000000000000, 0.0000000000000000000, 0.0000000000000000000 ) ) ;
#583 = DIRECTION ( 'NONE',  ( 0.0000000000000000000, 1.000000000000000000, 0.0000000000000000000 ) ) ;
#584 = DIRECTION ( 'NONE',  ( -1.000000000000000000, 0.0000000000000000000, 0.0000000000000000000 ) ) ;
#585 = DIRECTION ( 'NONE',  ( 0.0000000000000000000, -0.0000000000000000000, 1.000000000000000000 ) ) ;
#586 = CARTESIAN_POINT ( 'NONE',  ( 0.0000000000000000000, 0.0000000000000000000, 0.0000000000000000000 ) ) ;
#587 = DIRECTION ( 'NONE',  ( 0.0000000000000000000, 0.0000000000000000000, 1.000000000000000000 ) ) ;
#588 = DIRECTION ( 'NONE',  ( 0.0000000000000000000, 0.0000000000000000000, 1.000000000000000000 ) ) ;
#589 = PLANE ( 'NONE',  #413 ) ;
#590 = DIRECTION ( 'NONE',  ( 1.000000000000000000, -0.0000000000000000000, -0.0000000000000000000 ) ) ;
#591 = DIRECTION ( 'NONE',  ( 0.0000000000000000000, 0.0000000000000000000, -1.000000000000000000 ) ) ;
#592 = DIRECTION ( 'NONE',  ( 0.0000000000000000000, 0.0000000000000000000, -1.000000000000000000 ) ) ;
#593 = CARTESIAN_POINT ( 'NONE',  ( 0.8000000000000012700, 0.0000000000000000000, 0.0000000000000000000 ) ) ;
#594 = DIRECTION ( 'NONE',  ( 1.000000000000000000, -0.0000000000000000000, -0.0000000000000000000 ) ) ;
#595 = DIRECTION ( 'NONE',  ( 0.0000000000000000000, 0.0000000000000000000, -1.000000000000000000 ) ) ;
#596 = PLANE ( 'NONE',  #407 ) ;
#597 = DIRECTION ( 'NONE',  ( 0.0000000000000000000, 0.0000000000000000000, -1.000000000000000000 ) ) ;
#598 = CARTESIAN_POINT ( 'NONE',  ( 9.000000000000000000, 1.500000000000000000, 7.300171619476714100 ) ) ;
#599 = DIRECTION ( 'NONE',  ( 0.0000000000000000000, 0.0000000000000000000, 1.000000000000000000 ) ) ;
#600 = DIRECTION ( 'NONE',  ( 0.0000000000000000000, 1.000000000000000000, 0.0000000000000000000 ) ) ;
#601 = CARTESIAN_POINT ( 'NONE',  ( 9.000000000000000000, 1.500000000000000000, 7.300171619476714100 ) ) ;
#602 = DIRECTION ( 'NONE',  ( -1.000000000000000000, 0.0000000000000000000, 0.0000000000000000000 ) ) ;
#603 = PLANE ( 'NONE',  #404 ) ;
#604 = DIRECTION ( 'NONE',  ( -1.000000000000000000, -0.0000000000000000000, -0.0000000000000000000 ) ) ;
#605 = PLANE ( 'NONE',  #419 ) ;
#606 = CARTESIAN_POINT ( 'NONE',  ( 0.0000000000000000000, 0.0000000000000000000, 0.0000000000000000000 ) ) ;
#607 = DIRECTION ( 'NONE',  ( 0.0000000000000000000, -0.0000000000000000000, 1.000000000000000000 ) ) ;
#608 = PLANE ( 'NONE',  #428 ) ;
#609 = CARTESIAN_POINT ( 'NONE',  ( 9.000000000000000000, 0.0000000000000000000, 0.0000000000000000000 ) ) ;
#610 = DIRECTION ( 'NONE',  ( 0.0000000000000000000, 0.0000000000000000000, 1.000000000000000000 ) ) ;
#611 = CARTESIAN_POINT ( 'NONE',  ( 0.8000000000000012700, 0.0000000000000000000, 0.0000000000000000000 ) ) ;
#612 = DIRECTION ( 'NONE',  ( 0.0000000000000000000, 0.0000000000000000000, -1.000000000000000000 ) ) ;
#613 = CARTESIAN_POINT ( 'NONE',  ( 9.000000000000000000, -1.500000000000000000, 7.300171619476714100 ) ) ;
#614 = DIRECTION ( 'NONE',  ( 0.0000000000000000000, -1.000000000000000000, -0.0000000000000000000 ) ) ;
#615 = CARTESIAN_POINT ( 'NONE',  ( 10.00000000000000000, -1.500000000000000000, 5.809475019311125100 ) ) ;
#616 = CARTESIAN_POINT ( 'NONE',  ( 9.000000000000000000, 1.500000000000000000, -3.051229260478468300 ) ) ;
#617 = CARTESIAN_POINT ( 'NONE',  ( 15.00000000000000000, 1.500000000000000000, -3.051229260478468300 ) ) ;
#618 = CARTESIAN_POINT ( 'NONE',  ( 15.00000000000000000, -1.500000000000000000, 3.051229260478468300 ) ) ;
#619 = CARTESIAN_POINT ( 'NONE',  ( 9.000000000000000000, 1.500000000000000000, 3.051229260478468300 ) ) ;
#620 = CARTESIAN_POINT ( 'NONE',  ( -1.734723475976807100E-015, 0.0000000000000000000, 4.025000000000000400 ) ) ;
#621 = CARTESIAN_POINT ( 'NONE',  ( 15.00000000000000000, -1.500000000000000000, 4.769696007084728100 ) ) ;
#622 = DIRECTION ( 'NONE',  ( -1.000000000000000000, -0.0000000000000000000, -0.0000000000000000000 ) ) ;
#623 = CARTESIAN_POINT ( 'NONE',  ( -1.734723475976807100E-015, 4.929203366568097200E-016, -4.025000000000000400 ) ) ;
#624 = CARTESIAN_POINT ( 'NONE',  ( 9.000000000000000000, 4.163799117100997600E-016, -3.399999999999997200 ) ) ;
#625 = CARTESIAN_POINT ( 'NONE',  ( 9.000000000000000000, 1.500000000000000000, 5.809475019311124200 ) ) ;
#626 = CARTESIAN_POINT ( 'NONE',  ( 9.000000000000000000, -1.500000000000000000, 3.051229260478468300 ) ) ;
#627 = CARTESIAN_POINT ( 'NONE',  ( 0.0000000000000000000, 7.347880794884118800E-016, 5.999999999999999100 ) ) ;
#628 = DIRECTION ( 'NONE',  ( 1.000000000000000000, -0.0000000000000000000, -0.0000000000000000000 ) ) ;
#629 = CARTESIAN_POINT ( 'NONE',  ( 9.000000000000000000, 1.500000000000000000, -5.809475019311124200 ) ) ;
#630 = CARTESIAN_POINT ( 'NONE',  ( 0.8000000000000012700, 0.0000000000000000000, -5.999999999999999100 ) ) ;
#631 = CARTESIAN_POINT ( 'NONE',  ( 10.00000000000000000, -1.500000000000000000, -5.809475019311126000 ) ) ;
#632 = DIRECTION ( 'NONE',  ( 0.0000000000000000000, 0.0000000000000000000, 1.000000000000000000 ) ) ;
#633 = DIRECTION ( 'NONE',  ( 0.0000000000000000000, -5.329070518200751400E-015, 1.000000000000000000 ) ) ;
#634 = CARTESIAN_POINT ( 'NONE',  ( 0.6250000000000005600, 4.163799117100998100E-016, -3.399999999999998100 ) ) ;
#635 = CARTESIAN_POINT ( 'NONE',  ( 9.000000000000000000, -1.500000000000000000, -5.809475019311124200 ) ) ;
#636 = CARTESIAN_POINT ( 'NONE',  ( 15.00000000000000000, -1.500000000000000000, -3.051229260478468300 ) ) ;
#637 = CARTESIAN_POINT ( 'NONE',  ( 0.0000000000000000000, 1.500000000000000000, -5.809475019311124200 ) ) ;
#638 = CARTESIAN_POINT ( 'NONE',  ( 9.000000000000000000, 7.347880794884118800E-016, 5.999999999999999100 ) ) ;
#639 = CARTESIAN_POINT ( 'NONE',  ( 9.000000000000000000, -1.500000000000000000, 5.809475019311124200 ) ) ;
#640 = CARTESIAN_POINT ( 'NONE',  ( 0.6250000000000005600, 0.0000000000000000000, 3.399999999999998100 ) ) ;
#641 = CARTESIAN_POINT ( 'NONE',  ( 9.000000000000000000, 0.0000000000000000000, 3.399999999999997200 ) ) ;
#642 = CARTESIAN_POINT ( 'NONE',  ( 15.00000000000000000, 0.0000000000000000000, 0.0000000000000000000 ) ) ;
#643 = DIRECTION ( 'NONE',  ( 1.000000000000000000, -0.0000000000000000000, -0.0000000000000000000 ) ) ;
#644 = CARTESIAN_POINT ( 'NONE',  ( 0.0000000000000000000, 6.858022075225173600E-016, 5.199999999999994800 ) ) ;
#645 = CARTESIAN_POINT ( 'NONE',  ( 9.000000000000000000, -1.500000000000000000, -3.051229260478468300 ) ) ;
#646 = CARTESIAN_POINT ( 'NONE',  ( 10.00000000000000000, 1.500000000000000000, -5.809475019311125100 ) ) ;
#647 = CARTESIAN_POINT ( 'NONE',  ( 9.000000000000000000, 0.0000000000000000000, -5.999999999999999100 ) ) ;
#648 = CARTESIAN_POINT ( 'NONE',  ( 0.8000000000000012700, 7.347880794884118800E-016, 5.999999999999999100 ) ) ;
#649 = DIRECTION ( 'NONE',  ( 0.0000000000000000000, 0.0000000000000000000, -1.000000000000000000 ) ) ;
#650 = DIRECTION ( 'NONE',  ( 1.000000000000000000, -0.0000000000000000000, -0.0000000000000000000 ) ) ;
#651 = DIRECTION ( 'NONE',  ( 1.000000000000000000, -0.0000000000000000000, -0.0000000000000000000 ) ) ;
#652 = CARTESIAN_POINT ( 'NONE',  ( 0.6250000000000005600, 0.0000000000000000000, 0.0000000000000000000 ) ) ;
#653 = CARTESIAN_POINT ( 'NONE',  ( 15.00000000000000000, 1.500000000000000000, 4.769696007084728100 ) ) ;
#654 = CARTESIAN_POINT ( 'NONE',  ( 15.00000000000000000, 1.500000000000000000, -4.769696007084729000 ) ) ;
#655 = CARTESIAN_POINT ( 'NONE',  ( 15.00000000000000000, 1.500000000000000000, 3.051229260478468300 ) ) ;
#656 = CARTESIAN_POINT ( 'NONE',  ( 0.0000000000000000000, 0.0000000000000000000, -5.199999999999994800 ) ) ;
#657 = CARTESIAN_POINT ( 'NONE',  ( 15.00000000000000000, -1.500000000000000000, -4.769696007084729000 ) ) ;
#658 = CARTESIAN_POINT ( 'NONE',  ( 10.00000000000000000, 1.500000000000000000, 5.809475019311126000 ) ) ;
#659 = CARTESIAN_POINT ( 'NONE',  ( 9.000000000000000000, 0.0000000000000000000, 0.0000000000000000000 ) ) ;
#660 = DIRECTION ( 'NONE',  ( 1.000000000000000000, -0.0000000000000000000, -0.0000000000000000000 ) ) ;
#661 = DIRECTION ( 'NONE',  ( 0.0000000000000000000, 0.0000000000000000000, 1.000000000000000000 ) ) ;
#662 = CARTESIAN_POINT ( 'NONE',  ( 10.00000000000000000, 1.500000000000000000, -5.809475019311125100 ) ) ;
#663 = CARTESIAN_POINT ( 'NONE',  ( 11.66713225960866600, 1.500000000000000000, -5.465113660517018500 ) ) ;
#664 = CARTESIAN_POINT ( 'NONE',  ( 13.33390575269489500, 1.500000000000000000, -5.119004274284639800 ) ) ;
#665 = CARTESIAN_POINT ( 'NONE',  ( 9.000000000000000000, 0.0000000000000000000, 0.0000000000000000000 ) ) ;
#666 = CARTESIAN_POINT ( 'NONE',  ( 15.00000000000000000, 1.500000000000000000, 7.300171619476714100 ) ) ;
#667 = CARTESIAN_POINT ( 'NONE',  ( 15.00000000000000000, 1.500000000000000000, -4.769696007084729000 ) ) ;
#668 = CARTESIAN_POINT ( 'NONE',  ( 9.000000000000000000, 1.500000000000000000, 7.300171619476714100 ) ) ;
#669 = CARTESIAN_POINT ( 'NONE',  ( 0.0000000000000000000, -1.500000000000000000, -3.051229260478468300 ) ) ;
#670 = CARTESIAN_POINT ( 'NONE',  ( -1.734723475976807100E-015, 0.0000000000000000000, 0.0000000000000000000 ) ) ;
#671 = DIRECTION ( 'NONE',  ( 0.0000000000000000000, 0.0000000000000000000, 1.000000000000000000 ) ) ;
#672 = DIRECTION ( 'NONE',  ( -0.0000000000000000000, -0.0000000000000000000, 1.000000000000000000 ) ) ;
#673 = CARTESIAN_POINT ( 'NONE',  ( 0.0000000000000000000, 1.500000000000000000, 5.809475019311124200 ) ) ;
#674 = DIRECTION ( 'NONE',  ( 1.000000000000000000, 0.0000000000000000000, -0.0000000000000000000 ) ) ;
#675 = DIRECTION ( 'NONE',  ( -1.000000000000000000, -0.0000000000000000000, -0.0000000000000000000 ) ) ;
#676 = DIRECTION ( 'NONE',  ( -1.000000000000000000, 0.0000000000000000000, 0.0000000000000000000 ) ) ;
#677 = DIRECTION ( 'NONE',  ( 0.0000000000000000000, 0.0000000000000000000, -1.000000000000000000 ) ) ;
#678 = CARTESIAN_POINT ( 'NONE',  ( 15.00000000000000000, 1.500000000000000000, 7.300171619476714100 ) ) ;
#679 = DIRECTION ( 'NONE',  ( -1.000000000000000000, -0.0000000000000000000, -0.0000000000000000000 ) ) ;
#680 = DIRECTION ( 'NONE',  ( -0.0000000000000000000, -0.0000000000000000000, 1.000000000000000000 ) ) ;
#681 = CARTESIAN_POINT ( 'NONE',  ( 9.000000000000000000, -1.500000000000000000, 7.300171619476714100 ) ) ;
#682 = DESIGN_CONTEXT ( 'detailed design', #17, 'design' ) ;
#683 = PRODUCT_DEFINITION_SHAPE ( 'NONE', 'NONE',  #391 ) ;
ENDSEC;
END-ISO-10303-21;
