ISO-10303-21;
HEADER;
FILE_DESCRIPTION (( 'STEP AP203' ),
    '1' );
FILE_NAME ('ALP0643.STEP',
    '2017-02-01T16:25:24',
    ( '' ),
    ( '' ),
    'SwSTEP 2.0',
    'SolidWorks 2012',
    '' );
FILE_SCHEMA (( 'CONFIG_CONTROL_DESIGN' ));
ENDSEC;

DATA;
#1 = ADVANCED_FACE ( 'NONE', ( #243 ), #705, .F. ) ;
#2 = ADVANCED_FACE ( 'NONE', ( #425 ), #273, .F. ) ;
#3 = ADVANCED_FACE ( 'NONE', ( #253 ), #711, .F. ) ;
#4 = ADVANCED_FACE ( 'NONE', ( #249 ), #717, .F. ) ;
#5 = ADVANCED_FACE ( 'NONE', ( #295 ), #279, .F. ) ;
#6 = ADVANCED_FACE ( 'NONE', ( #275 ), #702, .F. ) ;
#7 = ADVANCED_FACE ( 'NONE', ( #272 ), #254, .F. ) ;
#8 = ADVANCED_FACE ( 'NONE', ( #274 ), #728, .F. ) ;
#9 = ADVANCED_FACE ( 'NONE', ( #257 ), #731, .F. ) ;
#10 = ADVANCED_FACE ( 'NONE', ( #285 ), #729, .F. ) ;
#11 = ADVANCED_FACE ( 'NONE', ( #293 ), #578, .T. ) ;
#12 = ADVANCED_FACE ( 'NONE', ( #291 ), #588, .F. ) ;
#13 = ADVANCED_FACE ( 'NONE', ( #242 ), #579, .F. ) ;
#14 = ADVANCED_FACE ( 'NONE', ( #287 ), #598, .F. ) ;
#15 = ADVANCED_FACE ( 'NONE', ( #240 ), #592, .F. ) ;
#16 = ADVANCED_FACE ( 'NONE', ( #286 ), #267, .F. ) ;
#17 = ADVANCED_FACE ( 'NONE', ( #244 ), #571, .F. ) ;
#18 = ADVANCED_FACE ( 'NONE', ( #245 ), #575, .F. ) ;
#19 = ADVANCED_FACE ( 'NONE', ( #271 ), #628, .F. ) ;
#20 = ADVANCED_FACE ( 'NONE', ( #247 ), #612, .F. ) ;
#21 = ADVANCED_FACE ( 'NONE', ( #251, #256 ), #607, .F. ) ;
#22 = PRODUCT_DEFINITION_SHAPE ( 'NONE', 'NONE',  #226 ) ;
#23 = DESIGN_CONTEXT ( 'detailed design', #90, 'design' ) ;
#24 = CARTESIAN_POINT ( 'NONE',  ( 1.224646799147351300E-015, 0.5000000000000111000, 10.00000000000000000 ) ) ;
#25 = DIRECTION ( 'NONE',  ( -0.0000000000000000000, -0.0000000000000000000, -1.000000000000000000 ) ) ;
#26 = CARTESIAN_POINT ( 'NONE',  ( 1.224646799147351300E-015, 0.5000000000000111000, 10.00000000000000000 ) ) ;
#27 = DIRECTION ( 'NONE',  ( -0.0000000000000000000, -1.000000000000000000, -0.0000000000000000000 ) ) ;
#28 = DIRECTION ( 'NONE',  ( 0.0000000000000000000, 0.0000000000000000000, -1.000000000000000000 ) ) ;
#29 = CARTESIAN_POINT ( 'NONE',  ( -4.900000000000000400, 5.000000000000000000, 10.00000000000000000 ) ) ;
#30 = CARTESIAN_POINT ( 'NONE',  ( -4.900000000000000400, 5.000000000000000000, 10.00000000000000000 ) ) ;
#31 = CARTESIAN_POINT ( 'NONE',  ( -0.1633496420033390100, 0.3366503579966675900, 3.688349642003337300 ) ) ;
#32 = DIRECTION ( 'NONE',  ( -0.0000000000000000000, -0.0000000000000000000, -1.000000000000000000 ) ) ;
#33 = DIRECTION ( 'NONE',  ( -0.0000000000000000000, -0.0000000000000000000, -1.000000000000000000 ) ) ;
#34 = DIRECTION ( 'NONE',  ( -0.0000000000000000000, -0.0000000000000000000, -1.000000000000000000 ) ) ;
#35 = CARTESIAN_POINT ( 'NONE',  ( 0.5000000000000001100, 0.0000000000000000000, -10.00000000000000000 ) ) ;
#36 = CARTESIAN_POINT ( 'NONE',  ( 0.5000000000000001100, 0.0000000000000000000, 10.00000000000000000 ) ) ;
#37 = CARTESIAN_POINT ( 'NONE',  ( 0.0000000000000000000, 0.0000000000000000000, 0.0000000000000000000 ) ) ;
#38 = CARTESIAN_POINT ( 'NONE',  ( 0.0000000000000000000, 0.0000000000000000000, -3.399999999999998600 ) ) ;
#39 = CARTESIAN_POINT ( 'NONE',  ( -0.3302917213469115400, 0.1697082786530918500, 3.844036640771613600 ) ) ;
#40 = CARTESIAN_POINT ( 'NONE',  ( 0.0000000000000000000, 0.0000000000000000000, -4.025000000000000400 ) ) ;
#41 = DIRECTION ( 'NONE',  ( 1.000000000000000000, -0.0000000000000000000, -0.0000000000000000000 ) ) ;
#42 = DIRECTION ( 'NONE',  ( -0.0000000000000000000, -1.000000000000000000, -0.0000000000000000000 ) ) ;
#43 = DIRECTION ( 'NONE',  ( 1.000000000000000000, 0.0000000000000000000, 0.0000000000000000000 ) ) ;
#44 = CARTESIAN_POINT ( 'NONE',  ( -4.900000000000000400, 0.0000000000000000000, 10.00000000000000000 ) ) ;
#45 = DIRECTION ( 'NONE',  ( 0.0000000000000000000, 0.0000000000000000000, -1.000000000000000000 ) ) ;
#46 = CARTESIAN_POINT ( 'NONE',  ( 1.201495306152802200E-015, 0.5000000000000111000, -3.524999999999988800 ) ) ;
#47 = CARTESIAN_POINT ( 'NONE',  ( -6.800000000000070000, 10.49999999999999800, 10.00000000000000000 ) ) ;
#48 = CARTESIAN_POINT ( 'NONE',  ( 4.900000000000000400, 5.000000000000000000, -10.00000000000000000 ) ) ;
#49 = CARTESIAN_POINT ( 'NONE',  ( 4.900000000000000400, 5.000000000000000000, 10.00000000000000000 ) ) ;
#50 = DIRECTION ( 'NONE',  ( -0.0000000000000000000, -0.0000000000000000000, -1.000000000000000000 ) ) ;
#51 = DIRECTION ( 'NONE',  ( 1.000000000000000000, -0.0000000000000000000, -0.0000000000000000000 ) ) ;
#52 = CARTESIAN_POINT ( 'NONE',  ( -0.5000000000000001100, 0.0000000000000000000, 3.993823356133820100 ) ) ;
#53 = DIRECTION ( 'NONE',  ( 1.000000000000000000, 0.0000000000000000000, 0.0000000000000000000 ) ) ;
#54 = CARTESIAN_POINT ( 'NONE',  ( -0.5000000000000001100, 0.0000000000000000000, 10.00000000000000000 ) ) ;
#55 = DIRECTION ( 'NONE',  ( -0.0000000000000000000, -0.0000000000000000000, -1.000000000000000000 ) ) ;
#56 = DIRECTION ( 'NONE',  ( -0.0000000000000000000, -0.0000000000000000000, -1.000000000000000000 ) ) ;
#57 = DIRECTION ( 'NONE',  ( -0.0000000000000000000, -1.000000000000000000, -0.0000000000000000000 ) ) ;
#58 = CARTESIAN_POINT ( 'NONE',  ( -9.800000000000000700, 5.000000000000000000, 10.00000000000000000 ) ) ;
#59 = DIRECTION ( 'NONE',  ( 0.7071067811865390200, -0.7071067811865561200, 0.0000000000000000000 ) ) ;
#60 = DIRECTION ( 'NONE',  ( 0.0000000000000000000, -0.7071067811865468000, -0.7071067811865483500 ) ) ;
#61 = DIRECTION ( 'NONE',  ( -0.0000000000000000000, -0.0000000000000000000, -1.000000000000000000 ) ) ;
#62 = CARTESIAN_POINT ( 'NONE',  ( -9.800000000000000700, 5.000000000000000000, -10.00000000000000000 ) ) ;
#63 = CARTESIAN_POINT ( 'NONE',  ( -6.800000000000070000, 10.49999999999999800, -10.00000000000000000 ) ) ;
#64 = CARTESIAN_POINT ( 'NONE',  ( -0.5000000000000001100, 0.0000000000000000000, -10.00000000000000000 ) ) ;
#65 = CARTESIAN_POINT ( 'NONE',  ( 1.199679176591876300E-015, 0.5000000000000111000, 3.524999999999988800 ) ) ;
#66 = CARTESIAN_POINT ( 'NONE',  ( 6.800000000000068200, 10.49999999999999800, 10.00000000000000000 ) ) ;
#67 = PERSON_AND_ORGANIZATION_ROLE ( 'creator' ) ;
#68 = CARTESIAN_POINT ( 'NONE',  ( 4.900000000000000400, 0.0000000000000000000, 10.00000000000000000 ) ) ;
#69 = CARTESIAN_POINT ( 'NONE',  ( -0.5000000000000001100, 0.0000000000000000000, -3.993823356133820100 ) ) ;
#70 = CARTESIAN_POINT ( 'NONE',  ( 9.800000000000000700, 7.500000000000000000, -10.00000000000000000 ) ) ;
#71 = CARTESIAN_POINT ( 'NONE',  ( 9.800000000000000700, 7.500000000000000000, 10.00000000000000000 ) ) ;
#72 = CARTESIAN_POINT ( 'NONE',  ( -9.800000000000000700, 5.000000000000000000, -10.00000000000000000 ) ) ;
#73 = APPLICATION_PROTOCOL_DEFINITION ( 'international standard', 'config_control_design', 1994, #112 ) ;
#74 = CARTESIAN_POINT ( 'NONE',  ( 0.0000000000000000000, 0.0000000000000000000, 0.0000000000000000000 ) ) ;
#75 = PERSON_AND_ORGANIZATION_ROLE ( 'design_owner' ) ;
#76 = CARTESIAN_POINT ( 'NONE',  ( -0.5000000000000001100, 0.0000000000000000000, 3.993823356133820100 ) ) ;
#77 = CARTESIAN_POINT ( 'NONE',  ( 9.800000000000000700, 5.000000000000000000, -10.00000000000000000 ) ) ;
#78 = CARTESIAN_POINT ( 'NONE',  ( 0.5000000000000002200, 0.0000000000000000000, -3.993823356133820100 ) ) ;
#79 = CARTESIAN_POINT ( 'NONE',  ( 4.163799117100998600E-016, 10.49999999999999800, 3.399999999999997700 ) ) ;
#80 = CARTESIAN_POINT ( 'NONE',  ( 4.900000000000000400, 5.000000000000000000, 10.00000000000000000 ) ) ;
#81 = DIRECTION ( 'NONE',  ( 0.0000000000000000000, 0.0000000000000000000, 1.000000000000000000 ) ) ;
#82 = CARTESIAN_POINT ( 'NONE',  ( 1.199679176591876300E-015, 0.5000000000000111000, 3.524999999999988800 ) ) ;
#83 = CARTESIAN_POINT ( 'NONE',  ( 1.224646799147351300E-015, 0.5000000000000111000, -10.00000000000000000 ) ) ;
#84 = CARTESIAN_POINT ( 'NONE',  ( 0.5000000000000001100, 0.0000000000000000000, 3.993823356133820100 ) ) ;
#85 = CARTESIAN_POINT ( 'NONE',  ( 0.0000000000000000000, 0.6250000000000005600, -3.399999999999999000 ) ) ;
#86 = CARTESIAN_POINT ( 'NONE',  ( -0.5000000000000001100, 0.0000000000000000000, 10.00000000000000000 ) ) ;
#87 = APPROVAL_STATUS ( 'not_yet_approved' ) ;
#88 = CARTESIAN_POINT ( 'NONE',  ( 4.900000000000000400, 0.0000000000000000000, -10.00000000000000000 ) ) ;
#89 = CARTESIAN_POINT ( 'NONE',  ( -6.800000000000070000, 10.49999999999999800, 10.00000000000000000 ) ) ;
#90 = APPLICATION_CONTEXT ( 'configuration controlled 3d designs of mechanical parts and assemblies' ) ;
#91 = DATE_TIME_ROLE ( 'creation_date' ) ;
#92 = CARTESIAN_POINT ( 'NONE',  ( -4.900000000000000400, 0.0000000000000000000, 10.00000000000000000 ) ) ;
#93 = DIRECTION ( 'NONE',  ( 1.000000000000000000, -0.0000000000000000000, -0.0000000000000000000 ) ) ;
#94 = CARTESIAN_POINT ( 'NONE',  ( -4.900000000000000400, 5.000000000000000000, 10.00000000000000000 ) ) ;
#95 = CARTESIAN_POINT ( 'NONE',  ( -9.800000000000000700, 7.500000000000000000, -10.00000000000000000 ) ) ;
#96 = CARTESIAN_POINT ( 'NONE',  ( 4.546501241834548900E-016, 0.6250000000000005600, 3.399999999999999000 ) ) ;
#97 = CARTESIAN_POINT ( 'NONE',  ( -9.800000000000000700, 5.000000000000000000, 10.00000000000000000 ) ) ;
#98 = CARTESIAN_POINT ( 'NONE',  ( 0.5000000000000001100, 0.0000000000000000000, -10.00000000000000000 ) ) ;
#99 = CARTESIAN_POINT ( 'NONE',  ( -9.800000000000000700, 7.500000000000000000, 10.00000000000000000 ) ) ;
#100 = CARTESIAN_POINT ( 'NONE',  ( 9.800000000000000700, 5.000000000000000000, 10.00000000000000000 ) ) ;
#101 = DIRECTION ( 'NONE',  ( -0.0000000000000000000, -1.000000000000000000, -0.0000000000000000000 ) ) ;
#102 = CARTESIAN_POINT ( 'NONE',  ( -4.900000000000000400, 0.0000000000000000000, -10.00000000000000000 ) ) ;
#103 = CARTESIAN_POINT ( 'NONE',  ( 0.0000000000000000000, 10.49999999999999800, -3.399999999999997700 ) ) ;
#104 = CARTESIAN_POINT ( 'NONE',  ( 0.5000000000000001100, 0.0000000000000000000, 10.00000000000000000 ) ) ;
#105 =( LENGTH_UNIT ( ) NAMED_UNIT ( * ) SI_UNIT ( .MILLI., .METRE. ) );
#106 =( NAMED_UNIT ( * ) SI_UNIT ( $, .STERADIAN. ) SOLID_ANGLE_UNIT ( ) );
#107 = CARTESIAN_POINT ( 'NONE',  ( -4.900000000000000400, 5.000000000000000000, -10.00000000000000000 ) ) ;
#108 = APPLICATION_PROTOCOL_DEFINITION ( 'international standard', 'config_control_design', 1994, #90 ) ;
#109 =( NAMED_UNIT ( * ) PLANE_ANGLE_UNIT ( ) SI_UNIT ( $, .RADIAN. ) );
#110 = CARTESIAN_POINT ( 'NONE',  ( 1.224646799147351300E-015, 0.5000000000000111000, 10.00000000000000000 ) ) ;
#111 = CARTESIAN_POINT ( 'NONE',  ( 4.900000000000000400, 5.000000000000000000, -10.00000000000000000 ) ) ;
#112 = APPLICATION_CONTEXT ( 'configuration controlled 3d designs of mechanical parts and assemblies' ) ;
#113 = CARTESIAN_POINT ( 'NONE',  ( -4.900000000000000400, 5.000000000000000000, -10.00000000000000000 ) ) ;
#114 = MECHANICAL_CONTEXT ( 'NONE', #112, 'mechanical' ) ;
#115 = APPROVAL_ROLE ( '' ) ;
#116 = APPROVAL_STATUS ( 'not_yet_approved' ) ;
#117 = APPROVAL_ROLE ( '' ) ;
#118 = CARTESIAN_POINT ( 'NONE',  ( -4.900000000000000400, 0.0000000000000000000, 10.00000000000000000 ) ) ;
#119 = CARTESIAN_POINT ( 'NONE',  ( 6.800000000000068200, 10.49999999999999800, -10.00000000000000000 ) ) ;
#120 = CARTESIAN_POINT ( 'NONE',  ( -0.5000000000000001100, 0.0000000000000000000, -10.00000000000000000 ) ) ;
#121 = DIRECTION ( 'NONE',  ( 1.000000000000000000, 0.0000000000000000000, 0.0000000000000000000 ) ) ;
#122 = DIRECTION ( 'NONE',  ( -0.0000000000000000000, -1.000000000000000000, -0.0000000000000000000 ) ) ;
#123 = PERSON_AND_ORGANIZATION_ROLE ( 'design_supplier' ) ;
#124 = DATE_TIME_ROLE ( 'classification_date' ) ;
#125 = APPROVAL_ROLE ( '' ) ;
#126 = PERSON_AND_ORGANIZATION_ROLE ( 'creator' ) ;
#127 = SECURITY_CLASSIFICATION_LEVEL ( 'unclassified' ) ;
#128 = PERSON_AND_ORGANIZATION_ROLE ( 'classification_officer' ) ;
#129 = APPROVAL_STATUS ( 'not_yet_approved' ) ;
#130 = B_SPLINE_CURVE_WITH_KNOTS ( 'NONE', 3,
 ( #646, #656, #647, #643 ),
 .UNSPECIFIED., .F., .F.,
 ( 4, 4 ),
 ( 3.462573506291612000E-007, 0.0008487537887028145900 ),
 .UNSPECIFIED. ) ;
#131 = B_SPLINE_CURVE_WITH_KNOTS ( 'NONE', 3,
 ( #672, #674, #634, #673 ),
 .UNSPECIFIED., .F., .F.,
 ( 4, 4 ),
 ( 3.332785926285128000E-007, 0.0008487408099448140800 ),
 .UNSPECIFIED. ) ;
#132 = B_SPLINE_CURVE_WITH_KNOTS ( 'NONE', 3,
 ( #52, #39, #31, #65 ),
 .UNSPECIFIED., .F., .F.,
 ( 4, 4 ),
 ( 3.332785926285373100E-007, 0.0008487408099448153800 ),
 .UNSPECIFIED. ) ;
#133 = ADVANCED_BREP_SHAPE_REPRESENTATION ( 'ALP0643', ( #136, #205 ), #202 ) ;
#134 = UNCERTAINTY_MEASURE_WITH_UNIT (LENGTH_MEASURE( 1.000000000000000100E-005 ), #105, 'distance_accuracy_value', 'NONE');
#135 = B_SPLINE_CURVE_WITH_KNOTS ( 'NONE', 3,
 ( #632, #637, #697, #682 ),
 .UNSPECIFIED., .F., .F.,
 ( 4, 4 ),
 ( 3.462573506289175200E-007, 0.0008487537887028155600 ),
 .UNSPECIFIED. ) ;
#136 = MANIFOLD_SOLID_BREP ( 'M8 Tapped Hole1', #505 ) ;
#137 = EDGE_CURVE ( 'NONE', #557, #276, #294, .T. ) ;
#138 = EDGE_CURVE ( 'NONE', #259, #566, #266, .T. ) ;
#139 = EDGE_CURVE ( 'NONE', #276, #262, #250, .T. ) ;
#140 = EDGE_CURVE ( 'NONE', #556, #558, #278, .T. ) ;
#141 = EDGE_CURVE ( 'NONE', #504, #255, #282, .T. ) ;
#142 = EDGE_CURVE ( 'NONE', #280, #241, #131, .T. ) ;
#143 = EDGE_CURVE ( 'NONE', #258, #500, #284, .T. ) ;
#144 = EDGE_CURVE ( 'NONE', #566, #560, #290, .T. ) ;
#145 = EDGE_CURVE ( 'NONE', #560, #263, #324, .T. ) ;
#146 = EDGE_CURVE ( 'NONE', #556, #563, #322, .T. ) ;
#147 = EDGE_CURVE ( 'NONE', #500, #501, #331, .T. ) ;
#148 = EDGE_CURVE ( 'NONE', #559, #569, #342, .T. ) ;
#149 = EDGE_CURVE ( 'NONE', #557, #564, #343, .T. ) ;
#150 = EDGE_CURVE ( 'NONE', #562, #504, #335, .T. ) ;
#151 = EDGE_CURVE ( 'NONE', #263, #270, #130, .T. ) ;
#152 = EDGE_CURVE ( 'NONE', #277, #265, #309, .T. ) ;
#153 = EDGE_CURVE ( 'NONE', #558, #565, #336, .T. ) ;
#154 = EDGE_CURVE ( 'NONE', #268, #261, #325, .T. ) ;
#155 = EDGE_CURVE ( 'NONE', #262, #269, #326, .T. ) ;
#156 = EDGE_CURVE ( 'NONE', #559, #270, #307, .T. ) ;
#157 = EDGE_CURVE ( 'NONE', #500, #263, #327, .T. ) ;
#158 = EDGE_CURVE ( 'NONE', #268, #269, #311, .T. ) ;
#159 = EDGE_CURVE ( 'NONE', #564, #268, #312, .T. ) ;
#160 = EDGE_CURVE ( 'NONE', #569, #260, #328, .T. ) ;
#161 = EDGE_CURVE ( 'NONE', #260, #561, #344, .T. ) ;
#162 = EDGE_CURVE ( 'NONE', #569, #568, #338, .T. ) ;
#163 = EDGE_CURVE ( 'NONE', #255, #567, #330, .T. ) ;
#164 = EDGE_CURVE ( 'NONE', #241, #562, #135, .T. ) ;
#165 = EDGE_CURVE ( 'NONE', #568, #556, #314, .T. ) ;
#166 = EDGE_CURVE ( 'NONE', #292, #258, #349, .T. ) ;
#167 = EDGE_CURVE ( 'NONE', #501, #500, #315, .T. ) ;
#168 = EDGE_CURVE ( 'NONE', #563, #557, #318, .T. ) ;
#169 = EDGE_CURVE ( 'NONE', #565, #276, #300, .T. ) ;
#170 = EDGE_CURVE ( 'NONE', #258, #292, #321, .T. ) ;
#171 = EDGE_CURVE ( 'NONE', #563, #565, #329, .T. ) ;
#172 = EDGE_CURVE ( 'NONE', #280, #270, #317, .T. ) ;
#173 = EDGE_CURVE ( 'NONE', #568, #561, #333, .T. ) ;
#174 = EDGE_CURVE ( 'NONE', #241, #255, #301, .T. ) ;
#175 = EDGE_CURVE ( 'NONE', #570, #263, #132, .T. ) ;
#176 = EDGE_CURVE ( 'NONE', #560, #559, #297, .T. ) ;
#177 = EDGE_CURVE ( 'NONE', #280, #567, #304, .T. ) ;
#178 = EDGE_CURVE ( 'NONE', #501, #241, #376, .T. ) ;
#179 = EDGE_CURVE ( 'NONE', #567, #260, #357, .T. ) ;
#180 = EDGE_CURVE ( 'NONE', #561, #558, #373, .T. ) ;
#181 = EDGE_CURVE ( 'NONE', #570, #562, #356, .T. ) ;
#182 = EDGE_CURVE ( 'NONE', #566, #570, #370, .T. ) ;
#183 = EDGE_CURVE ( 'NONE', #292, #501, #369, .T. ) ;
#184 = EDGE_CURVE ( 'NONE', #265, #504, #358, .T. ) ;
#185 = EDGE_CURVE ( 'NONE', #564, #262, #353, .T. ) ;
#186 = CC_DESIGN_APPROVAL ( #209, ( #221 ) ) ;
#187 = EDGE_CURVE ( 'NONE', #261, #252, #362, .T. ) ;
#188 = AXIS2_PLACEMENT_3D ( 'NONE', #576, #585, #587 ) ;
#189 = EDGE_CURVE ( 'NONE', #261, #248, #363, .T. ) ;
#190 = AXIS2_PLACEMENT_3D ( 'NONE', #726, #725, #719 ) ;
#191 = AXIS2_PLACEMENT_3D ( 'NONE', #710, #716, #703 ) ;
#192 = AXIS2_PLACEMENT_3D ( 'NONE', #586, #583, #594 ) ;
#193 = AXIS2_PLACEMENT_3D ( 'NONE', #654, #655, #659 ) ;
#194 = EDGE_CURVE ( 'NONE', #252, #277, #359, .T. ) ;
#195 = AXIS2_PLACEMENT_3D ( 'NONE', #581, #574, #602 ) ;
#196 = AXIS2_PLACEMENT_3D ( 'NONE', #688, #684, #685 ) ;
#197 = AXIS2_PLACEMENT_3D ( 'NONE', #689, #690, #694 ) ;
#198 = CC_DESIGN_DATE_AND_TIME_ASSIGNMENT ( #391, #91, ( #226 ) ) ;
#199 = EDGE_CURVE ( 'NONE', #259, #265, #354, .T. ) ;
#200 = AXIS2_PLACEMENT_3D ( 'NONE', #595, #593, #597 ) ;
#201 = AXIS2_PLACEMENT_3D ( 'NONE', #601, #573, #590 ) ;
#202 =( GEOMETRIC_REPRESENTATION_CONTEXT ( 3 ) GLOBAL_UNCERTAINTY_ASSIGNED_CONTEXT ( ( #134 ) ) GLOBAL_UNIT_ASSIGNED_CONTEXT ( ( #105, #109, #106 ) ) REPRESENTATION_CONTEXT ( 'NONE', 'WORKASPACE' ) );
#203 = AXIS2_PLACEMENT_3D ( 'NONE', #621, #613, #611 ) ;
#204 = AXIS2_PLACEMENT_3D ( 'NONE', #616, #610, #627 ) ;
#205 = AXIS2_PLACEMENT_3D ( 'NONE', #74, #81, #121 ) ;
#206 = APPROVAL ( #87, 'UNSPECIFIED' ) ;
#207 = AXIS2_PLACEMENT_3D ( 'NONE', #615, #618, #622 ) ;
#208 = AXIS2_PLACEMENT_3D ( 'NONE', #724, #727, #720 ) ;
#209 = APPROVAL ( #116, 'UNSPECIFIED' ) ;
#210 = EDGE_CURVE ( 'NONE', #269, #248, #361, .T. ) ;
#211 = AXIS2_PLACEMENT_3D ( 'NONE', #599, #57, #28 ) ;
#212 = CC_DESIGN_PERSON_AND_ORGANIZATION_ASSIGNMENT ( #355, #75, ( #732 ) ) ;
#213 = CC_DESIGN_PERSON_AND_ORGANIZATION_ASSIGNMENT ( #399, #126, ( #221 ) ) ;
#214 = AXIS2_PLACEMENT_3D ( 'NONE', #589, #596, #600 ) ;
#215 = AXIS2_PLACEMENT_3D ( 'NONE', #580, #591, #584 ) ;
#216 = AXIS2_PLACEMENT_3D ( 'NONE', #706, #707, #713 ) ;
#217 = AXIS2_PLACEMENT_3D ( 'NONE', #698, #699, #708 ) ;
#218 = EDGE_CURVE ( 'NONE', #248, #277, #368, .T. ) ;
#219 = AXIS2_PLACEMENT_3D ( 'NONE', #609, #614, #617 ) ;
#220 = CC_DESIGN_PERSON_AND_ORGANIZATION_ASSIGNMENT ( #390, #67, ( #226 ) ) ;
#221 = PRODUCT_DEFINITION_FORMATION_WITH_SPECIFIED_SOURCE ( 'ANY', '', #732, .NOT_KNOWN. ) ;
#222 = EDGE_CURVE ( 'NONE', #252, #259, #381, .T. ) ;
#223 = AXIS2_PLACEMENT_3D ( 'NONE', #577, #582, #572 ) ;
#224 = AXIS2_PLACEMENT_3D ( 'NONE', #37, #27, #45 ) ;
#225 = AXIS2_PLACEMENT_3D ( 'NONE', #704, #730, #718 ) ;
#226 = PRODUCT_DEFINITION ( 'UNKNOWN', '', #221, #23 ) ;
#227 = AXIS2_PLACEMENT_3D ( 'NONE', #714, #712, #715 ) ;
#228 = CC_DESIGN_APPROVAL ( #206, ( #226 ) ) ;
#229 = AXIS2_PLACEMENT_3D ( 'NONE', #721, #722, #723 ) ;
#230 = AXIS2_PLACEMENT_3D ( 'NONE', #709, #700, #701 ) ;
#231 = AXIS2_PLACEMENT_3D ( 'NONE', #691, #678, #679 ) ;
#232 = CC_DESIGN_APPROVAL ( #237, ( #235 ) ) ;
#233 = CC_DESIGN_SECURITY_CLASSIFICATION ( #235, ( #221 ) ) ;
#234 = CC_DESIGN_PERSON_AND_ORGANIZATION_ASSIGNMENT ( #407, #123, ( #221 ) ) ;
#235 = SECURITY_CLASSIFICATION ( '', '', #127 ) ;
#236 = CC_DESIGN_DATE_AND_TIME_ASSIGNMENT ( #405, #124, ( #235 ) ) ;
#237 = APPROVAL ( #129, 'UNSPECIFIED' ) ;
#238 = CC_DESIGN_PERSON_AND_ORGANIZATION_ASSIGNMENT ( #400, #128, ( #235 ) ) ;
#239 = PRODUCT_RELATED_PRODUCT_CATEGORY ( 'detail', '', ( #732 ) ) ;
#240 = FACE_OUTER_BOUND ( 'NONE', #503, .T. ) ;
#241 = VERTEX_POINT ( 'NONE', #46 ) ;
#242 = FACE_OUTER_BOUND ( 'NONE', #552, .T. ) ;
#243 = FACE_OUTER_BOUND ( 'NONE', #528, .T. ) ;
#244 = FACE_OUTER_BOUND ( 'NONE', #544, .T. ) ;
#245 = FACE_OUTER_BOUND ( 'NONE', #514, .T. ) ;
#246 = VECTOR ( 'NONE', #620, 1000.000000000000000 ) ;
#247 = FACE_OUTER_BOUND ( 'NONE', #508, .T. ) ;
#248 = VERTEX_POINT ( 'NONE', #72 ) ;
#249 = FACE_OUTER_BOUND ( 'NONE', #515, .T. ) ;
#250 = LINE ( 'NONE', #623, #288 ) ;
#251 = FACE_BOUND ( 'NONE', #498, .T. ) ;
#252 = VERTEX_POINT ( 'NONE', #94 ) ;
#253 = FACE_OUTER_BOUND ( 'NONE', #523, .T. ) ;
#254 = CONICAL_SURFACE ( 'NONE', #208, 4.025000000000000400, 0.7853981633974492800 ) ;
#255 = VERTEX_POINT ( 'NONE', #83 ) ;
#256 = FACE_OUTER_BOUND ( 'NONE', #543, .T. ) ;
#257 = FACE_OUTER_BOUND ( 'NONE', #554, .T. ) ;
#258 = VERTEX_POINT ( 'NONE', #79 ) ;
#259 = VERTEX_POINT ( 'NONE', #118 ) ;
#260 = VERTEX_POINT ( 'NONE', #88 ) ;
#261 = VERTEX_POINT ( 'NONE', #97 ) ;
#262 = VERTEX_POINT ( 'NONE', #63 ) ;
#263 = VERTEX_POINT ( 'NONE', #82 ) ;
#264 = VECTOR ( 'NONE', #608, 1000.000000000000000 ) ;
#265 = VERTEX_POINT ( 'NONE', #102 ) ;
#266 = LINE ( 'NONE', #629, #264 ) ;
#267 = CONICAL_SURFACE ( 'NONE', #201, 4.025000000000000400, 0.7853981633974492800 ) ;
#268 = VERTEX_POINT ( 'NONE', #99 ) ;
#269 = VERTEX_POINT ( 'NONE', #95 ) ;
#270 = VERTEX_POINT ( 'NONE', #84 ) ;
#271 = FACE_OUTER_BOUND ( 'NONE', #516, .T. ) ;
#272 = FACE_OUTER_BOUND ( 'NONE', #520, .T. ) ;
#273 = CYLINDRICAL_SURFACE ( 'NONE', #216, 3.399999999999998600 ) ;
#274 = FACE_OUTER_BOUND ( 'NONE', #531, .T. ) ;
#275 = FACE_OUTER_BOUND ( 'NONE', #533, .T. ) ;
#276 = VERTEX_POINT ( 'NONE', #119 ) ;
#277 = VERTEX_POINT ( 'NONE', #113 ) ;
#278 = LINE ( 'NONE', #625, #281 ) ;
#279 = CYLINDRICAL_SURFACE ( 'NONE', #230, 3.399999999999998600 ) ;
#280 = VERTEX_POINT ( 'NONE', #78 ) ;
#281 = VECTOR ( 'NONE', #603, 1000.000000000000000 ) ;
#282 = LINE ( 'NONE', #630, #283 ) ;
#283 = VECTOR ( 'NONE', #604, 1000.000000000000100 ) ;
#284 = LINE ( 'NONE', #626, #289 ) ;
#285 = FACE_OUTER_BOUND ( 'NONE', #535, .T. ) ;
#286 = FACE_OUTER_BOUND ( 'NONE', #439, .T. ) ;
#287 = FACE_OUTER_BOUND ( 'NONE', #541, .T. ) ;
#288 = VECTOR ( 'NONE', #624, 1000.000000000000000 ) ;
#289 = VECTOR ( 'NONE', #666, 1000.000000000000000 ) ;
#290 = LINE ( 'NONE', #606, #350 ) ;
#291 = FACE_OUTER_BOUND ( 'NONE', #524, .T. ) ;
#292 = VERTEX_POINT ( 'NONE', #103 ) ;
#293 = FACE_OUTER_BOUND ( 'NONE', #509, .T. ) ;
#294 = LINE ( 'NONE', #619, #246 ) ;
#295 = FACE_OUTER_BOUND ( 'NONE', #540, .T. ) ;
#296 = VECTOR ( 'NONE', #651, 1000.000000000000000 ) ;
#297 = LINE ( 'NONE', #26, #303 ) ;
#298 = VECTOR ( 'NONE', #648, 1000.000000000000000 ) ;
#299 = VECTOR ( 'NONE', #696, 1000.000000000000000 ) ;
#300 = LINE ( 'NONE', #683, #320 ) ;
#301 = LINE ( 'NONE', #24, #339 ) ;
#302 = VECTOR ( 'NONE', #32, 1000.000000000000000 ) ;
#303 = VECTOR ( 'NONE', #59, 1000.000000000000000 ) ;
#304 = LINE ( 'NONE', #36, #374 ) ;
#305 = VECTOR ( 'NONE', #667, 1000.000000000000000 ) ;
#306 = VECTOR ( 'NONE', #661, 1000.000000000000000 ) ;
#307 = LINE ( 'NONE', #660, #345 ) ;
#308 = VECTOR ( 'NONE', #668, 999.9999999999998900 ) ;
#309 = LINE ( 'NONE', #652, #306 ) ;
#310 = VECTOR ( 'NONE', #675, 1000.000000000000000 ) ;
#311 = LINE ( 'NONE', #670, #332 ) ;
#312 = LINE ( 'NONE', #664, #313 ) ;
#313 = VECTOR ( 'NONE', #665, 1000.000000000000100 ) ;
#314 = LINE ( 'NONE', #687, #299 ) ;
#315 = CIRCLE ( 'NONE', #196, 3.399999999999999000 ) ;
#316 = VECTOR ( 'NONE', #635, 1000.000000000000000 ) ;
#317 = CIRCLE ( 'NONE', #211, 4.025000000000000400 ) ;
#318 = LINE ( 'NONE', #676, #319 ) ;
#319 = VECTOR ( 'NONE', #686, 1000.000000000000100 ) ;
#320 = VECTOR ( 'NONE', #692, 1000.000000000000100 ) ;
#321 = CIRCLE ( 'NONE', #197, 3.399999999999997700 ) ;
#322 = LINE ( 'NONE', #605, #298 ) ;
#323 = VECTOR ( 'NONE', #658, 1000.000000000000000 ) ;
#324 = LINE ( 'NONE', #640, #305 ) ;
#325 = LINE ( 'NONE', #631, #296 ) ;
#326 = LINE ( 'NONE', #671, #348 ) ;
#327 = LINE ( 'NONE', #650, #308 ) ;
#328 = LINE ( 'NONE', #633, #316 ) ;
#329 = LINE ( 'NONE', #693, #334 ) ;
#330 = LINE ( 'NONE', #695, #310 ) ;
#331 = CIRCLE ( 'NONE', #193, 3.399999999999999000 ) ;
#332 = VECTOR ( 'NONE', #663, 1000.000000000000000 ) ;
#333 = LINE ( 'NONE', #49, #302 ) ;
#334 = VECTOR ( 'NONE', #677, 1000.000000000000000 ) ;
#335 = LINE ( 'NONE', #638, #340 ) ;
#336 = LINE ( 'NONE', #639, #323 ) ;
#337 = VECTOR ( 'NONE', #645, 1000.000000000000000 ) ;
#338 = LINE ( 'NONE', #680, #347 ) ;
#339 = VECTOR ( 'NONE', #50, 1000.000000000000000 ) ;
#340 = VECTOR ( 'NONE', #641, 1000.000000000000000 ) ;
#341 = VECTOR ( 'NONE', #649, 1000.000000000000000 ) ;
#342 = LINE ( 'NONE', #644, #337 ) ;
#343 = LINE ( 'NONE', #657, #341 ) ;
#344 = LINE ( 'NONE', #669, #346 ) ;
#345 = VECTOR ( 'NONE', #662, 1000.000000000000000 ) ;
#346 = VECTOR ( 'NONE', #636, 1000.000000000000000 ) ;
#347 = VECTOR ( 'NONE', #681, 1000.000000000000000 ) ;
#348 = VECTOR ( 'NONE', #642, 1000.000000000000100 ) ;
#349 = CIRCLE ( 'NONE', #231, 3.399999999999997700 ) ;
#350 = VECTOR ( 'NONE', #653, 1000.000000000000100 ) ;
#351 = SHAPE_DEFINITION_REPRESENTATION ( #22, #133 ) ;
#352 = ORGANIZATION ( 'UNSPECIFIED', 'UNSPECIFIED', '' ) ;
#353 = LINE ( 'NONE', #47, #377 ) ;
#354 = LINE ( 'NONE', #44, #367 ) ;
#355 = PERSON_AND_ORGANIZATION ( #733, #352 ) ;
#356 = CIRCLE ( 'NONE', #224, 4.025000000000000400 ) ;
#357 = LINE ( 'NONE', #35, #360 ) ;
#358 = LINE ( 'NONE', #64, #366 ) ;
#359 = LINE ( 'NONE', #29, #378 ) ;
#360 = VECTOR ( 'NONE', #53, 1000.000000000000000 ) ;
#361 = LINE ( 'NONE', #62, #380 ) ;
#362 = LINE ( 'NONE', #30, #372 ) ;
#363 = LINE ( 'NONE', #58, #375 ) ;
#364 = VECTOR ( 'NONE', #60, 999.9999999999998900 ) ;
#365 = VECTOR ( 'NONE', #33, 1000.000000000000000 ) ;
#366 = VECTOR ( 'NONE', #51, 1000.000000000000000 ) ;
#367 = VECTOR ( 'NONE', #61, 1000.000000000000000 ) ;
#368 = LINE ( 'NONE', #107, #379 ) ;
#369 = LINE ( 'NONE', #38, #371 ) ;
#370 = LINE ( 'NONE', #54, #365 ) ;
#371 = VECTOR ( 'NONE', #42, 1000.000000000000000 ) ;
#372 = VECTOR ( 'NONE', #41, 1000.000000000000000 ) ;
#373 = LINE ( 'NONE', #48, #383 ) ;
#374 = VECTOR ( 'NONE', #25, 1000.000000000000000 ) ;
#375 = VECTOR ( 'NONE', #56, 1000.000000000000000 ) ;
#376 = LINE ( 'NONE', #40, #364 ) ;
#377 = VECTOR ( 'NONE', #55, 1000.000000000000000 ) ;
#378 = VECTOR ( 'NONE', #34, 1000.000000000000000 ) ;
#379 = VECTOR ( 'NONE', #93, 1000.000000000000000 ) ;
#380 = VECTOR ( 'NONE', #101, 1000.000000000000000 ) ;
#381 = LINE ( 'NONE', #92, #382 ) ;
#382 = VECTOR ( 'NONE', #122, 1000.000000000000000 ) ;
#383 = VECTOR ( 'NONE', #43, 1000.000000000000000 ) ;
#384 = APPROVAL_DATE_TIME ( #387, #206 ) ;
#385 = CALENDAR_DATE ( 2017, 1, 2 ) ;
#386 = COORDINATED_UNIVERSAL_TIME_OFFSET ( 1, 0, .AHEAD. ) ;
#387 = DATE_AND_TIME ( #389, #388 ) ;
#388 = LOCAL_TIME ( 17, 25, 24.00000000000000000, #386 ) ;
#389 = CALENDAR_DATE ( 2017, 1, 2 ) ;
#390 = PERSON_AND_ORGANIZATION ( #733, #352 ) ;
#391 = DATE_AND_TIME ( #385, #406 ) ;
#392 = APPROVAL_PERSON_ORGANIZATION ( #401, #209, #117 ) ;
#393 = COORDINATED_UNIVERSAL_TIME_OFFSET ( 1, 0, .AHEAD. ) ;
#394 = APPROVAL_PERSON_ORGANIZATION ( #395, #206, #115 ) ;
#395 = PERSON_AND_ORGANIZATION ( #733, #352 ) ;
#396 = LOCAL_TIME ( 17, 25, 24.00000000000000000, #393 ) ;
#397 = DATE_AND_TIME ( #408, #396 ) ;
#398 = APPROVAL_DATE_TIME ( #397, #209 ) ;
#399 = PERSON_AND_ORGANIZATION ( #733, #352 ) ;
#400 = PERSON_AND_ORGANIZATION ( #733, #352 ) ;
#401 = PERSON_AND_ORGANIZATION ( #733, #352 ) ;
#402 = COORDINATED_UNIVERSAL_TIME_OFFSET ( 1, 0, .AHEAD. ) ;
#403 = LOCAL_TIME ( 17, 25, 24.00000000000000000, #402 ) ;
#404 = CALENDAR_DATE ( 2017, 1, 2 ) ;
#405 = DATE_AND_TIME ( #404, #403 ) ;
#406 = LOCAL_TIME ( 17, 25, 24.00000000000000000, #409 ) ;
#407 = PERSON_AND_ORGANIZATION ( #733, #352 ) ;
#408 = CALENDAR_DATE ( 2017, 1, 2 ) ;
#409 = COORDINATED_UNIVERSAL_TIME_OFFSET ( 1, 0, .AHEAD. ) ;
#410 = LOCAL_TIME ( 17, 25, 24.00000000000000000, #416 ) ;
#411 = CALENDAR_DATE ( 2017, 1, 2 ) ;
#412 = PERSON_AND_ORGANIZATION ( #733, #352 ) ;
#413 = DATE_AND_TIME ( #411, #410 ) ;
#414 = APPROVAL_DATE_TIME ( #413, #237 ) ;
#415 = APPROVAL_PERSON_ORGANIZATION ( #412, #237, #125 ) ;
#416 = COORDINATED_UNIVERSAL_TIME_OFFSET ( 1, 0, .AHEAD. ) ;
#417 = ORIENTED_EDGE ( 'NONE', *, *, #157, .T. ) ;
#418 = ORIENTED_EDGE ( 'NONE', *, *, #175, .F. ) ;
#419 = ORIENTED_EDGE ( 'NONE', *, *, #164, .F. ) ;
#420 = ORIENTED_EDGE ( 'NONE', *, *, #144, .F. ) ;
#421 = ORIENTED_EDGE ( 'NONE', *, *, #145, .T. ) ;
#422 = ORIENTED_EDGE ( 'NONE', *, *, #137, .F. ) ;
#423 = ORIENTED_EDGE ( 'NONE', *, *, #171, .T. ) ;
#424 = ORIENTED_EDGE ( 'NONE', *, *, #183, .F. ) ;
#425 = FACE_OUTER_BOUND ( 'NONE', #555, .T. ) ;
#426 = ORIENTED_EDGE ( 'NONE', *, *, #150, .T. ) ;
#427 = ORIENTED_EDGE ( 'NONE', *, *, #181, .T. ) ;
#428 = ORIENTED_EDGE ( 'NONE', *, *, #174, .T. ) ;
#429 = ORIENTED_EDGE ( 'NONE', *, *, #182, .T. ) ;
#430 = ORIENTED_EDGE ( 'NONE', *, *, #177, .F. ) ;
#431 = ORIENTED_EDGE ( 'NONE', *, *, #147, .F. ) ;
#432 = ORIENTED_EDGE ( 'NONE', *, *, #174, .F. ) ;
#433 = ORIENTED_EDGE ( 'NONE', *, *, #147, .T. ) ;
#434 = ORIENTED_EDGE ( 'NONE', *, *, #143, .T. ) ;
#435 = ORIENTED_EDGE ( 'NONE', *, *, #141, .T. ) ;
#436 = ORIENTED_EDGE ( 'NONE', *, *, #164, .T. ) ;
#437 = ORIENTED_EDGE ( 'NONE', *, *, #163, .T. ) ;
#438 = ORIENTED_EDGE ( 'NONE', *, *, #175, .T. ) ;
#439 = EDGE_LOOP ( 'NONE', ( #431, #417, #418, #427, #419, #442 ) ) ;
#440 = ORIENTED_EDGE ( 'NONE', *, *, #170, .F. ) ;
#441 = ORIENTED_EDGE ( 'NONE', *, *, #145, .F. ) ;
#442 = ORIENTED_EDGE ( 'NONE', *, *, #178, .F. ) ;
#443 = ORIENTED_EDGE ( 'NONE', *, *, #142, .T. ) ;
#444 = ORIENTED_EDGE ( 'NONE', *, *, #176, .T. ) ;
#445 = ORIENTED_EDGE ( 'NONE', *, *, #170, .T. ) ;
#446 = ORIENTED_EDGE ( 'NONE', *, *, #155, .T. ) ;
#447 = ORIENTED_EDGE ( 'NONE', *, *, #180, .T. ) ;
#448 = ORIENTED_EDGE ( 'NONE', *, *, #169, .T. ) ;
#449 = ORIENTED_EDGE ( 'NONE', *, *, #166, .T. ) ;
#450 = ORIENTED_EDGE ( 'NONE', *, *, #173, .F. ) ;
#451 = ORIENTED_EDGE ( 'NONE', *, *, #173, .T. ) ;
#452 = ORIENTED_EDGE ( 'NONE', *, *, #149, .T. ) ;
#453 = ORIENTED_EDGE ( 'NONE', *, *, #149, .F. ) ;
#454 = ORIENTED_EDGE ( 'NONE', *, *, #159, .F. ) ;
#455 = ORIENTED_EDGE ( 'NONE', *, *, #177, .T. ) ;
#456 = ORIENTED_EDGE ( 'NONE', *, *, #146, .F. ) ;
#457 = ORIENTED_EDGE ( 'NONE', *, *, #160, .F. ) ;
#458 = ORIENTED_EDGE ( 'NONE', *, *, #140, .T. ) ;
#459 = ORIENTED_EDGE ( 'NONE', *, *, #168, .T. ) ;
#460 = ORIENTED_EDGE ( 'NONE', *, *, #199, .T. ) ;
#461 = ORIENTED_EDGE ( 'NONE', *, *, #180, .F. ) ;
#462 = ORIENTED_EDGE ( 'NONE', *, *, #165, .F. ) ;
#463 = ORIENTED_EDGE ( 'NONE', *, *, #152, .F. ) ;
#464 = ORIENTED_EDGE ( 'NONE', *, *, #218, .T. ) ;
#465 = ORIENTED_EDGE ( 'NONE', *, *, #162, .T. ) ;
#466 = ORIENTED_EDGE ( 'NONE', *, *, #168, .F. ) ;
#467 = ORIENTED_EDGE ( 'NONE', *, *, #218, .F. ) ;
#468 = ORIENTED_EDGE ( 'NONE', *, *, #169, .F. ) ;
#469 = ORIENTED_EDGE ( 'NONE', *, *, #179, .F. ) ;
#470 = ORIENTED_EDGE ( 'NONE', *, *, #140, .F. ) ;
#471 = ORIENTED_EDGE ( 'NONE', *, *, #156, .T. ) ;
#472 = ORIENTED_EDGE ( 'NONE', *, *, #151, .T. ) ;
#473 = ORIENTED_EDGE ( 'NONE', *, *, #156, .F. ) ;
#474 = ORIENTED_EDGE ( 'NONE', *, *, #171, .F. ) ;
#475 = ORIENTED_EDGE ( 'NONE', *, *, #141, .F. ) ;
#476 = ORIENTED_EDGE ( 'NONE', *, *, #150, .F. ) ;
#477 = ORIENTED_EDGE ( 'NONE', *, *, #176, .F. ) ;
#478 = ORIENTED_EDGE ( 'NONE', *, *, #158, .F. ) ;
#479 = ORIENTED_EDGE ( 'NONE', *, *, #172, .F. ) ;
#480 = ORIENTED_EDGE ( 'NONE', *, *, #148, .F. ) ;
#481 = ORIENTED_EDGE ( 'NONE', *, *, #162, .F. ) ;
#482 = ORIENTED_EDGE ( 'NONE', *, *, #160, .T. ) ;
#483 = ORIENTED_EDGE ( 'NONE', *, *, #143, .F. ) ;
#484 = ORIENTED_EDGE ( 'NONE', *, *, #161, .T. ) ;
#485 = ORIENTED_EDGE ( 'NONE', *, *, #153, .T. ) ;
#486 = ORIENTED_EDGE ( 'NONE', *, *, #210, .F. ) ;
#487 = ORIENTED_EDGE ( 'NONE', *, *, #146, .T. ) ;
#488 = ORIENTED_EDGE ( 'NONE', *, *, #179, .T. ) ;
#489 = ORIENTED_EDGE ( 'NONE', *, *, #187, .T. ) ;
#490 = ORIENTED_EDGE ( 'NONE', *, *, #139, .F. ) ;
#491 = ORIENTED_EDGE ( 'NONE', *, *, #185, .F. ) ;
#492 = ORIENTED_EDGE ( 'NONE', *, *, #137, .T. ) ;
#493 = ORIENTED_EDGE ( 'NONE', *, *, #148, .T. ) ;
#494 = ORIENTED_EDGE ( 'NONE', *, *, #194, .F. ) ;
#495 = ORIENTED_EDGE ( 'NONE', *, *, #161, .F. ) ;
#496 = ORIENTED_EDGE ( 'NONE', *, *, #152, .T. ) ;
#497 = ORIENTED_EDGE ( 'NONE', *, *, #139, .T. ) ;
#498 = EDGE_LOOP ( 'NONE', ( #449, #445 ) ) ;
#499 = ORIENTED_EDGE ( 'NONE', *, *, #222, .T. ) ;
#500 = VERTEX_POINT ( 'NONE', #96 ) ;
#501 = VERTEX_POINT ( 'NONE', #85 ) ;
#502 = ORIENTED_EDGE ( 'NONE', *, *, #187, .F. ) ;
#503 = EDGE_LOOP ( 'NONE', ( #430, #443, #428, #437 ) ) ;
#504 = VERTEX_POINT ( 'NONE', #120 ) ;
#505 = CLOSED_SHELL ( 'NONE', ( #5, #16, #12, #15, #18, #4, #1, #6, #19, #17, #3, #21, #20, #10, #14, #13, #8, #9, #11, #7, #2 ) ) ;
#506 = ORIENTED_EDGE ( 'NONE', *, *, #153, .F. ) ;
#507 = ORIENTED_EDGE ( 'NONE', *, *, #184, .T. ) ;
#508 = EDGE_LOOP ( 'NONE', ( #446, #478, #454, #519 ) ) ;
#509 = EDGE_LOOP ( 'NONE', ( #475, #539, #463, #467, #486, #546, #490, #468, #506, #461, #495, #469, #513 ) ) ;
#510 = ORIENTED_EDGE ( 'NONE', *, *, #144, .T. ) ;
#511 = ORIENTED_EDGE ( 'NONE', *, *, #189, .F. ) ;
#512 = ORIENTED_EDGE ( 'NONE', *, *, #189, .T. ) ;
#513 = ORIENTED_EDGE ( 'NONE', *, *, #163, .F. ) ;
#514 = EDGE_LOOP ( 'NONE', ( #429, #438, #441, #420 ) ) ;
#515 = EDGE_LOOP ( 'NONE', ( #421, #472, #473, #477 ) ) ;
#516 = EDGE_LOOP ( 'NONE', ( #447, #470, #462, #451 ) ) ;
#517 = ORIENTED_EDGE ( 'NONE', *, *, #222, .F. ) ;
#518 = ORIENTED_EDGE ( 'NONE', *, *, #183, .T. ) ;
#519 = ORIENTED_EDGE ( 'NONE', *, *, #185, .T. ) ;
#520 = EDGE_LOOP ( 'NONE', ( #545, #522, #548, #550, #536, #525 ) ) ;
#521 = ORIENTED_EDGE ( 'NONE', *, *, #210, .T. ) ;
#522 = ORIENTED_EDGE ( 'NONE', *, *, #167, .F. ) ;
#523 = EDGE_LOOP ( 'NONE', ( #448, #422, #466, #423 ) ) ;
#524 = EDGE_LOOP ( 'NONE', ( #432, #436, #426, #435 ) ) ;
#525 = ORIENTED_EDGE ( 'NONE', *, *, #151, .F. ) ;
#526 = ORIENTED_EDGE ( 'NONE', *, *, #167, .T. ) ;
#527 = ORIENTED_EDGE ( 'NONE', *, *, #158, .T. ) ;
#528 = EDGE_LOOP ( 'NONE', ( #471, #479, #455, #488, #457, #480 ) ) ;
#529 = ORIENTED_EDGE ( 'NONE', *, *, #199, .F. ) ;
#530 = ORIENTED_EDGE ( 'NONE', *, *, #181, .F. ) ;
#531 = EDGE_LOOP ( 'NONE', ( #476, #530, #547, #538, #460, #507 ) ) ;
#532 = ORIENTED_EDGE ( 'NONE', *, *, #159, .T. ) ;
#533 = EDGE_LOOP ( 'NONE', ( #484, #450, #481, #482 ) ) ;
#534 = ORIENTED_EDGE ( 'NONE', *, *, #165, .T. ) ;
#535 = EDGE_LOOP ( 'NONE', ( #521, #511, #542, #527 ) ) ;
#536 = ORIENTED_EDGE ( 'NONE', *, *, #172, .T. ) ;
#537 = ORIENTED_EDGE ( 'NONE', *, *, #194, .T. ) ;
#538 = ORIENTED_EDGE ( 'NONE', *, *, #138, .F. ) ;
#539 = ORIENTED_EDGE ( 'NONE', *, *, #184, .F. ) ;
#540 = EDGE_LOOP ( 'NONE', ( #440, #434, #433, #424 ) ) ;
#541 = EDGE_LOOP ( 'NONE', ( #464, #494, #502, #512 ) ) ;
#542 = ORIENTED_EDGE ( 'NONE', *, *, #154, .F. ) ;
#543 = EDGE_LOOP ( 'NONE', ( #497, #491, #453, #492 ) ) ;
#544 = EDGE_LOOP ( 'NONE', ( #485, #474, #456, #458 ) ) ;
#545 = ORIENTED_EDGE ( 'NONE', *, *, #157, .F. ) ;
#546 = ORIENTED_EDGE ( 'NONE', *, *, #155, .F. ) ;
#547 = ORIENTED_EDGE ( 'NONE', *, *, #182, .F. ) ;
#548 = ORIENTED_EDGE ( 'NONE', *, *, #178, .T. ) ;
#549 = ORIENTED_EDGE ( 'NONE', *, *, #166, .F. ) ;
#550 = ORIENTED_EDGE ( 'NONE', *, *, #142, .F. ) ;
#551 = ORIENTED_EDGE ( 'NONE', *, *, #154, .T. ) ;
#552 = EDGE_LOOP ( 'NONE', ( #496, #529, #517, #537 ) ) ;
#553 = ORIENTED_EDGE ( 'NONE', *, *, #138, .T. ) ;
#554 = EDGE_LOOP ( 'NONE', ( #510, #444, #493, #465, #534, #487, #459, #452, #532, #551, #489, #499, #553 ) ) ;
#555 = EDGE_LOOP ( 'NONE', ( #483, #549, #518, #526 ) ) ;
#556 = VERTEX_POINT ( 'NONE', #100 ) ;
#557 = VERTEX_POINT ( 'NONE', #66 ) ;
#558 = VERTEX_POINT ( 'NONE', #77 ) ;
#559 = VERTEX_POINT ( 'NONE', #104 ) ;
#560 = VERTEX_POINT ( 'NONE', #110 ) ;
#561 = VERTEX_POINT ( 'NONE', #111 ) ;
#562 = VERTEX_POINT ( 'NONE', #69 ) ;
#563 = VERTEX_POINT ( 'NONE', #71 ) ;
#564 = VERTEX_POINT ( 'NONE', #89 ) ;
#565 = VERTEX_POINT ( 'NONE', #70 ) ;
#566 = VERTEX_POINT ( 'NONE', #86 ) ;
#567 = VERTEX_POINT ( 'NONE', #98 ) ;
#568 = VERTEX_POINT ( 'NONE', #80 ) ;
#569 = VERTEX_POINT ( 'NONE', #68 ) ;
#570 = VERTEX_POINT ( 'NONE', #76 ) ;
#571 = PLANE ( 'NONE',  #195 ) ;
#572 = DIRECTION ( 'NONE',  ( -0.7071067811865406900, -0.7071067811865544600, 0.0000000000000000000 ) ) ;
#573 = DIRECTION ( 'NONE',  ( -0.0000000000000000000, -1.000000000000000000, -0.0000000000000000000 ) ) ;
#574 = DIRECTION ( 'NONE',  ( -1.000000000000000000, 0.0000000000000000000, 0.0000000000000000000 ) ) ;
#575 = PLANE ( 'NONE',  #204 ) ;
#576 = CARTESIAN_POINT ( 'NONE',  ( -4.900000000000000400, 0.0000000000000000000, 10.00000000000000000 ) ) ;
#577 = CARTESIAN_POINT ( 'NONE',  ( 1.224646799147351300E-015, 0.5000000000000111000, 10.00000000000000000 ) ) ;
#578 = PLANE ( 'NONE',  #192 ) ;
#579 = PLANE ( 'NONE',  #188 ) ;
#580 = CARTESIAN_POINT ( 'NONE',  ( -4.900000000000000400, 5.000000000000000000, 10.00000000000000000 ) ) ;
#581 = CARTESIAN_POINT ( 'NONE',  ( 9.800000000000000700, 5.000000000000000000, 10.00000000000000000 ) ) ;
#582 = DIRECTION ( 'NONE',  ( -0.7071067811865544600, 0.7071067811865406900, 0.0000000000000000000 ) ) ;
#583 = DIRECTION ( 'NONE',  ( 0.0000000000000000000, 0.0000000000000000000, -1.000000000000000000 ) ) ;
#584 = DIRECTION ( 'NONE',  ( 0.0000000000000000000, 0.0000000000000000000, 1.000000000000000000 ) ) ;
#585 = DIRECTION ( 'NONE',  ( 1.000000000000000000, 0.0000000000000000000, 0.0000000000000000000 ) ) ;
#586 = CARTESIAN_POINT ( 'NONE',  ( 0.0000000000000000000, 0.0000000000000000000, -10.00000000000000000 ) ) ;
#587 = DIRECTION ( 'NONE',  ( 0.0000000000000000000, 0.0000000000000000000, -1.000000000000000000 ) ) ;
#588 = PLANE ( 'NONE',  #223 ) ;
#589 = CARTESIAN_POINT ( 'NONE',  ( -9.800000000000000700, 5.000000000000000000, 10.00000000000000000 ) ) ;
#590 = DIRECTION ( 'NONE',  ( 0.0000000000000000000, 0.0000000000000000000, -1.000000000000000000 ) ) ;
#591 = DIRECTION ( 'NONE',  ( 0.0000000000000000000, 1.000000000000000000, -0.0000000000000000000 ) ) ;
#592 = PLANE ( 'NONE',  #200 ) ;
#593 = DIRECTION ( 'NONE',  ( 0.7071067811865561200, 0.7071067811865390200, -0.0000000000000000000 ) ) ;
#594 = DIRECTION ( 'NONE',  ( -1.000000000000000000, 0.0000000000000000000, 0.0000000000000000000 ) ) ;
#595 = CARTESIAN_POINT ( 'NONE',  ( 1.224646799147351300E-015, 0.5000000000000111000, 10.00000000000000000 ) ) ;
#596 = DIRECTION ( 'NONE',  ( 1.000000000000000000, 0.0000000000000000000, 0.0000000000000000000 ) ) ;
#597 = DIRECTION ( 'NONE',  ( -0.7071067811865390200, 0.7071067811865561200, 0.0000000000000000000 ) ) ;
#598 = PLANE ( 'NONE',  #215 ) ;
#599 = CARTESIAN_POINT ( 'NONE',  ( 0.0000000000000000000, 0.0000000000000000000, 0.0000000000000000000 ) ) ;
#600 = DIRECTION ( 'NONE',  ( 0.0000000000000000000, 0.0000000000000000000, -1.000000000000000000 ) ) ;
#601 = CARTESIAN_POINT ( 'NONE',  ( 0.0000000000000000000, 0.0000000000000000000, 0.0000000000000000000 ) ) ;
#602 = DIRECTION ( 'NONE',  ( 0.0000000000000000000, 0.0000000000000000000, 1.000000000000000000 ) ) ;
#603 = DIRECTION ( 'NONE',  ( -0.0000000000000000000, -0.0000000000000000000, -1.000000000000000000 ) ) ;
#604 = DIRECTION ( 'NONE',  ( 0.7071067811865406900, 0.7071067811865544600, -0.0000000000000000000 ) ) ;
#605 = CARTESIAN_POINT ( 'NONE',  ( 9.800000000000000700, 5.000000000000000000, 10.00000000000000000 ) ) ;
#606 = CARTESIAN_POINT ( 'NONE',  ( 1.224646799147351300E-015, 0.5000000000000111000, 10.00000000000000000 ) ) ;
#607 = PLANE ( 'NONE',  #207 ) ;
#608 = DIRECTION ( 'NONE',  ( 1.000000000000000000, -0.0000000000000000000, -0.0000000000000000000 ) ) ;
#609 = CARTESIAN_POINT ( 'NONE',  ( -9.800000000000000700, 7.500000000000000000, 10.00000000000000000 ) ) ;
#610 = DIRECTION ( 'NONE',  ( -0.7071067811865544600, 0.7071067811865406900, 0.0000000000000000000 ) ) ;
#611 = DIRECTION ( 'NONE',  ( 0.0000000000000000000, -0.0000000000000000000, 1.000000000000000000 ) ) ;
#612 = PLANE ( 'NONE',  #219 ) ;
#613 = DIRECTION ( 'NONE',  ( 0.0000000000000000000, 1.000000000000000000, 0.0000000000000000000 ) ) ;
#614 = DIRECTION ( 'NONE',  ( 0.7071067811865555700, -0.7071067811865394700, 0.0000000000000000000 ) ) ;
#615 = CARTESIAN_POINT ( 'NONE',  ( 6.800000000000068200, 10.49999999999999800, 10.00000000000000000 ) ) ;
#616 = CARTESIAN_POINT ( 'NONE',  ( 1.224646799147351300E-015, 0.5000000000000111000, 10.00000000000000000 ) ) ;
#617 = DIRECTION ( 'NONE',  ( 0.7071067811865394700, 0.7071067811865555700, 0.0000000000000000000 ) ) ;
#618 = DIRECTION ( 'NONE',  ( 0.0000000000000000000, -1.000000000000000000, 0.0000000000000000000 ) ) ;
#619 = CARTESIAN_POINT ( 'NONE',  ( 6.800000000000068200, 10.49999999999999800, 10.00000000000000000 ) ) ;
#620 = DIRECTION ( 'NONE',  ( -0.0000000000000000000, -0.0000000000000000000, -1.000000000000000000 ) ) ;
#621 = CARTESIAN_POINT ( 'NONE',  ( 4.900000000000000400, 5.000000000000000000, 10.00000000000000000 ) ) ;
#622 = DIRECTION ( 'NONE',  ( 0.0000000000000000000, -0.0000000000000000000, -1.000000000000000000 ) ) ;
#623 = CARTESIAN_POINT ( 'NONE',  ( 6.800000000000068200, 10.49999999999999800, -10.00000000000000000 ) ) ;
#624 = DIRECTION ( 'NONE',  ( -1.000000000000000000, 0.0000000000000000000, 0.0000000000000000000 ) ) ;
#625 = CARTESIAN_POINT ( 'NONE',  ( 9.800000000000000700, 5.000000000000000000, 10.00000000000000000 ) ) ;
#626 = CARTESIAN_POINT ( 'NONE',  ( 4.163799117100999100E-016, 0.0000000000000000000, 3.399999999999998600 ) ) ;
#627 = DIRECTION ( 'NONE',  ( -0.7071067811865406900, -0.7071067811865544600, 0.0000000000000000000 ) ) ;
#628 = PLANE ( 'NONE',  #203 ) ;
#629 = CARTESIAN_POINT ( 'NONE',  ( -0.5000000000000001100, 0.0000000000000000000, 10.00000000000000000 ) ) ;
#630 = CARTESIAN_POINT ( 'NONE',  ( 1.224646799147351300E-015, 0.5000000000000111000, -10.00000000000000000 ) ) ;
#631 = CARTESIAN_POINT ( 'NONE',  ( -9.800000000000000700, 5.000000000000000000, 10.00000000000000000 ) ) ;
#632 = CARTESIAN_POINT ( 'NONE',  ( 1.201495306152802200E-015, 0.5000000000000111000, -3.524999999999988800 ) ) ;
#633 = CARTESIAN_POINT ( 'NONE',  ( 4.900000000000000400, 0.0000000000000000000, 10.00000000000000000 ) ) ;
#634 = CARTESIAN_POINT ( 'NONE',  ( 0.1633496420033406200, 0.3366503579966676500, -3.688349642003337300 ) ) ;
#635 = DIRECTION ( 'NONE',  ( -0.0000000000000000000, -0.0000000000000000000, -1.000000000000000000 ) ) ;
#636 = DIRECTION ( 'NONE',  ( 0.0000000000000000000, 1.000000000000000000, 0.0000000000000000000 ) ) ;
#637 = CARTESIAN_POINT ( 'NONE',  ( -0.1633496420033389300, 0.3366503579966677600, -3.688349642003337300 ) ) ;
#638 = CARTESIAN_POINT ( 'NONE',  ( -0.5000000000000001100, 0.0000000000000000000, 10.00000000000000000 ) ) ;
#639 = CARTESIAN_POINT ( 'NONE',  ( 9.800000000000000700, 5.000000000000000000, -10.00000000000000000 ) ) ;
#640 = CARTESIAN_POINT ( 'NONE',  ( 1.224646799147351300E-015, 0.5000000000000111000, 10.00000000000000000 ) ) ;
#641 = DIRECTION ( 'NONE',  ( -0.0000000000000000000, -0.0000000000000000000, -1.000000000000000000 ) ) ;
#642 = DIRECTION ( 'NONE',  ( -0.7071067811865394700, -0.7071067811865555700, -0.0000000000000000000 ) ) ;
#643 = CARTESIAN_POINT ( 'NONE',  ( 0.5000000000000001100, 0.0000000000000000000, 3.993823356133820100 ) ) ;
#644 = CARTESIAN_POINT ( 'NONE',  ( 0.5000000000000001100, 0.0000000000000000000, 10.00000000000000000 ) ) ;
#645 = DIRECTION ( 'NONE',  ( 1.000000000000000000, 0.0000000000000000000, 0.0000000000000000000 ) ) ;
#646 = CARTESIAN_POINT ( 'NONE',  ( 1.199679176591876300E-015, 0.5000000000000111000, 3.524999999999988800 ) ) ;
#647 = CARTESIAN_POINT ( 'NONE',  ( 0.3302917213469123700, 0.1697082786530920200, 3.844036640771613600 ) ) ;
#648 = DIRECTION ( 'NONE',  ( 0.0000000000000000000, 1.000000000000000000, 0.0000000000000000000 ) ) ;
#649 = DIRECTION ( 'NONE',  ( -1.000000000000000000, 0.0000000000000000000, 0.0000000000000000000 ) ) ;
#650 = CARTESIAN_POINT ( 'NONE',  ( 4.929203366568097200E-016, 0.0000000000000000000, 4.025000000000000400 ) ) ;
#651 = DIRECTION ( 'NONE',  ( -0.0000000000000000000, -1.000000000000000000, -0.0000000000000000000 ) ) ;
#652 = CARTESIAN_POINT ( 'NONE',  ( -4.900000000000000400, 0.0000000000000000000, -10.00000000000000000 ) ) ;
#653 = DIRECTION ( 'NONE',  ( 0.7071067811865406900, 0.7071067811865544600, -0.0000000000000000000 ) ) ;
#654 = CARTESIAN_POINT ( 'NONE',  ( 0.0000000000000000000, 0.6250000000000005600, 0.0000000000000000000 ) ) ;
#655 = DIRECTION ( 'NONE',  ( -0.0000000000000000000, -1.000000000000000000, -0.0000000000000000000 ) ) ;
#656 = CARTESIAN_POINT ( 'NONE',  ( 0.1633496420033405100, 0.3366503579966678200, 3.688349642003336800 ) ) ;
#657 = CARTESIAN_POINT ( 'NONE',  ( 6.800000000000068200, 10.49999999999999800, 10.00000000000000000 ) ) ;
#658 = DIRECTION ( 'NONE',  ( 0.0000000000000000000, 1.000000000000000000, 0.0000000000000000000 ) ) ;
#659 = DIRECTION ( 'NONE',  ( 0.0000000000000000000, 0.0000000000000000000, -1.000000000000000000 ) ) ;
#660 = CARTESIAN_POINT ( 'NONE',  ( 0.5000000000000001100, 0.0000000000000000000, 10.00000000000000000 ) ) ;
#661 = DIRECTION ( 'NONE',  ( -0.0000000000000000000, -1.000000000000000000, -0.0000000000000000000 ) ) ;
#662 = DIRECTION ( 'NONE',  ( -0.0000000000000000000, -0.0000000000000000000, -1.000000000000000000 ) ) ;
#663 = DIRECTION ( 'NONE',  ( -0.0000000000000000000, -0.0000000000000000000, -1.000000000000000000 ) ) ;
#664 = CARTESIAN_POINT ( 'NONE',  ( -9.800000000000000700, 7.500000000000000000, 10.00000000000000000 ) ) ;
#665 = DIRECTION ( 'NONE',  ( -0.7071067811865394700, -0.7071067811865555700, -0.0000000000000000000 ) ) ;
#666 = DIRECTION ( 'NONE',  ( -0.0000000000000000000, -1.000000000000000000, -0.0000000000000000000 ) ) ;
#667 = DIRECTION ( 'NONE',  ( -0.0000000000000000000, -0.0000000000000000000, -1.000000000000000000 ) ) ;
#668 = DIRECTION ( 'NONE',  ( 8.659560562354942700E-017, -0.7071067811865468000, 0.7071067811865483500 ) ) ;
#669 = CARTESIAN_POINT ( 'NONE',  ( 4.900000000000000400, 0.0000000000000000000, -10.00000000000000000 ) ) ;
#670 = CARTESIAN_POINT ( 'NONE',  ( -9.800000000000000700, 7.500000000000000000, 10.00000000000000000 ) ) ;
#671 = CARTESIAN_POINT ( 'NONE',  ( -9.800000000000000700, 7.500000000000000000, -10.00000000000000000 ) ) ;
#672 = CARTESIAN_POINT ( 'NONE',  ( 0.5000000000000002200, 0.0000000000000000000, -3.993823356133820100 ) ) ;
#673 = CARTESIAN_POINT ( 'NONE',  ( 1.201495306152802200E-015, 0.5000000000000111000, -3.524999999999988800 ) ) ;
#674 = CARTESIAN_POINT ( 'NONE',  ( 0.3302917213469124800, 0.1697082786530918200, -3.844036640771613600 ) ) ;
#675 = DIRECTION ( 'NONE',  ( 0.7071067811865390200, -0.7071067811865561200, 0.0000000000000000000 ) ) ;
#676 = CARTESIAN_POINT ( 'NONE',  ( 9.800000000000000700, 7.500000000000000000, 10.00000000000000000 ) ) ;
#677 = DIRECTION ( 'NONE',  ( -0.0000000000000000000, -0.0000000000000000000, -1.000000000000000000 ) ) ;
#678 = DIRECTION ( 'NONE',  ( -0.0000000000000000000, -1.000000000000000000, -0.0000000000000000000 ) ) ;
#679 = DIRECTION ( 'NONE',  ( 0.0000000000000000000, 0.0000000000000000000, -1.000000000000000000 ) ) ;
#680 = CARTESIAN_POINT ( 'NONE',  ( 4.900000000000000400, 0.0000000000000000000, 10.00000000000000000 ) ) ;
#681 = DIRECTION ( 'NONE',  ( 0.0000000000000000000, 1.000000000000000000, 0.0000000000000000000 ) ) ;
#682 = CARTESIAN_POINT ( 'NONE',  ( -0.5000000000000001100, 0.0000000000000000000, -3.993823356133820100 ) ) ;
#683 = CARTESIAN_POINT ( 'NONE',  ( 9.800000000000000700, 7.500000000000000000, -10.00000000000000000 ) ) ;
#684 = DIRECTION ( 'NONE',  ( -0.0000000000000000000, -1.000000000000000000, -0.0000000000000000000 ) ) ;
#685 = DIRECTION ( 'NONE',  ( 0.0000000000000000000, 0.0000000000000000000, -1.000000000000000000 ) ) ;
#686 = DIRECTION ( 'NONE',  ( -0.7071067811865396900, 0.7071067811865553400, 0.0000000000000000000 ) ) ;
#687 = CARTESIAN_POINT ( 'NONE',  ( 4.900000000000000400, 5.000000000000000000, 10.00000000000000000 ) ) ;
#688 = CARTESIAN_POINT ( 'NONE',  ( 0.0000000000000000000, 0.6250000000000005600, 0.0000000000000000000 ) ) ;
#689 = CARTESIAN_POINT ( 'NONE',  ( 0.0000000000000000000, 10.49999999999999800, 0.0000000000000000000 ) ) ;
#690 = DIRECTION ( 'NONE',  ( -0.0000000000000000000, -1.000000000000000000, -0.0000000000000000000 ) ) ;
#691 = CARTESIAN_POINT ( 'NONE',  ( 0.0000000000000000000, 10.49999999999999800, 0.0000000000000000000 ) ) ;
#692 = DIRECTION ( 'NONE',  ( -0.7071067811865396900, 0.7071067811865553400, 0.0000000000000000000 ) ) ;
#693 = CARTESIAN_POINT ( 'NONE',  ( 9.800000000000000700, 7.500000000000000000, 10.00000000000000000 ) ) ;
#694 = DIRECTION ( 'NONE',  ( 0.0000000000000000000, 0.0000000000000000000, -1.000000000000000000 ) ) ;
#695 = CARTESIAN_POINT ( 'NONE',  ( 1.224646799147351300E-015, 0.5000000000000111000, -10.00000000000000000 ) ) ;
#696 = DIRECTION ( 'NONE',  ( 1.000000000000000000, 0.0000000000000000000, 0.0000000000000000000 ) ) ;
#697 = CARTESIAN_POINT ( 'NONE',  ( -0.3302917213469113700, 0.1697082786530920700, -3.844036640771614000 ) ) ;
#698 = CARTESIAN_POINT ( 'NONE',  ( 1.224646799147351300E-015, 0.5000000000000111000, 10.00000000000000000 ) ) ;
#699 = DIRECTION ( 'NONE',  ( 0.7071067811865561200, 0.7071067811865390200, -0.0000000000000000000 ) ) ;
#700 = DIRECTION ( 'NONE',  ( -0.0000000000000000000, -1.000000000000000000, -0.0000000000000000000 ) ) ;
#701 = DIRECTION ( 'NONE',  ( 0.0000000000000000000, 0.0000000000000000000, -1.000000000000000000 ) ) ;
#702 = PLANE ( 'NONE',  #225 ) ;
#703 = DIRECTION ( 'NONE',  ( 0.0000000000000000000, -0.0000000000000000000, 1.000000000000000000 ) ) ;
#704 = CARTESIAN_POINT ( 'NONE',  ( 4.900000000000000400, 0.0000000000000000000, 10.00000000000000000 ) ) ;
#705 = PLANE ( 'NONE',  #191 ) ;
#706 = CARTESIAN_POINT ( 'NONE',  ( 0.0000000000000000000, 0.0000000000000000000, 0.0000000000000000000 ) ) ;
#707 = DIRECTION ( 'NONE',  ( -0.0000000000000000000, -1.000000000000000000, -0.0000000000000000000 ) ) ;
#708 = DIRECTION ( 'NONE',  ( -0.7071067811865390200, 0.7071067811865561200, 0.0000000000000000000 ) ) ;
#709 = CARTESIAN_POINT ( 'NONE',  ( 0.0000000000000000000, 0.0000000000000000000, 0.0000000000000000000 ) ) ;
#710 = CARTESIAN_POINT ( 'NONE',  ( 0.5000000000000001100, 0.0000000000000000000, 10.00000000000000000 ) ) ;
#711 = PLANE ( 'NONE',  #227 ) ;
#712 = DIRECTION ( 'NONE',  ( -0.7071067811865553400, -0.7071067811865396900, 0.0000000000000000000 ) ) ;
#713 = DIRECTION ( 'NONE',  ( 0.0000000000000000000, 0.0000000000000000000, -1.000000000000000000 ) ) ;
#714 = CARTESIAN_POINT ( 'NONE',  ( 9.800000000000000700, 7.500000000000000000, 10.00000000000000000 ) ) ;
#715 = DIRECTION ( 'NONE',  ( 0.7071067811865396900, -0.7071067811865553400, 0.0000000000000000000 ) ) ;
#716 = DIRECTION ( 'NONE',  ( 0.0000000000000000000, 1.000000000000000000, 0.0000000000000000000 ) ) ;
#717 = PLANE ( 'NONE',  #217 ) ;
#718 = DIRECTION ( 'NONE',  ( 0.0000000000000000000, 0.0000000000000000000, 1.000000000000000000 ) ) ;
#719 = DIRECTION ( 'NONE',  ( 0.0000000000000000000, 0.0000000000000000000, 1.000000000000000000 ) ) ;
#720 = DIRECTION ( 'NONE',  ( 0.0000000000000000000, 0.0000000000000000000, -1.000000000000000000 ) ) ;
#721 = CARTESIAN_POINT ( 'NONE',  ( 0.0000000000000000000, 0.0000000000000000000, 10.00000000000000000 ) ) ;
#722 = DIRECTION ( 'NONE',  ( 0.0000000000000000000, 0.0000000000000000000, -1.000000000000000000 ) ) ;
#723 = DIRECTION ( 'NONE',  ( -1.000000000000000000, 0.0000000000000000000, 0.0000000000000000000 ) ) ;
#724 = CARTESIAN_POINT ( 'NONE',  ( 0.0000000000000000000, 0.0000000000000000000, 0.0000000000000000000 ) ) ;
#725 = DIRECTION ( 'NONE',  ( 0.0000000000000000000, 1.000000000000000000, -0.0000000000000000000 ) ) ;
#726 = CARTESIAN_POINT ( 'NONE',  ( -0.5000000000000001100, 0.0000000000000000000, 10.00000000000000000 ) ) ;
#727 = DIRECTION ( 'NONE',  ( -0.0000000000000000000, -1.000000000000000000, -0.0000000000000000000 ) ) ;
#728 = PLANE ( 'NONE',  #190 ) ;
#729 = PLANE ( 'NONE',  #214 ) ;
#730 = DIRECTION ( 'NONE',  ( -1.000000000000000000, 0.0000000000000000000, 0.0000000000000000000 ) ) ;
#731 = PLANE ( 'NONE',  #229 ) ;
#732 = PRODUCT ( 'ALP0643', 'ALP0643', '', ( #114 ) ) ;
#733 = PERSON ( 'UNSPECIFIED', 'UNSPECIFIED', 'UNSPECIFIED', ('UNSPECIFIED'), ('UNSPECIFIED'), ('UNSPECIFIED') ) ;
ENDSEC;
END-ISO-10303-21;
