ISO-10303-21;
HEADER;
FILE_DESCRIPTION (( 'STEP AP203' ),
    '1' );
FILE_NAME ('ALP0823.STEP',
    '2017-02-06T17:17:15',
    ( '' ),
    ( '' ),
    'SwSTEP 2.0',
    'SolidWorks 2012',
    '' );
FILE_SCHEMA (( 'CONFIG_CONTROL_DESIGN' ));
ENDSEC;

DATA;
#1 = ADVANCED_FACE ( 'NONE', ( #231, #101 ), #714, .T. ) ;
#2 = ADVANCED_FACE ( 'NONE', ( #192 ), #202, .T. ) ;
#3 = ADVANCED_FACE ( 'NONE', ( #194, #253 ), #713, .T. ) ;
#4 = ADVANCED_FACE ( 'NONE', ( #195, #290 ), #722, .F. ) ;
#5 = ADVANCED_FACE ( 'NONE', ( #296 ), #731, .F. ) ;
#6 = ADVANCED_FACE ( 'NONE', ( #240 ), #246, .T. ) ;
#7 = ADVANCED_FACE ( 'NONE', ( #271 ), #260, .T. ) ;
#8 = ADVANCED_FACE ( 'NONE', ( #261 ), #258, .T. ) ;
#9 = ADVANCED_FACE ( 'NONE', ( #264 ), #414, .F. ) ;
#10 = ADVANCED_FACE ( 'NONE', ( #262 ), #245, .F. ) ;
#11 = ADVANCED_FACE ( 'NONE', ( #241 ), #275, .T. ) ;
#12 = ADVANCED_FACE ( 'NONE', ( #255 ), #270, .T. ) ;
#13 = ADVANCED_FACE ( 'NONE', ( #242 ), #402, .F. ) ;
#14 = ADVANCED_FACE ( 'NONE', ( #239 ), #292, .T. ) ;
#15 = ADVANCED_FACE ( 'NONE', ( #250 ), #251, .T. ) ;
#16 = ADVANCED_FACE ( 'NONE', ( #235 ), #280, .F. ) ;
#17 = ADVANCED_FACE ( 'NONE', ( #236 ), #265, .F. ) ;
#18 = ADVANCED_FACE ( 'NONE', ( #281 ), #403, .F. ) ;
#19 = ADVANCED_FACE ( 'NONE', ( #263 ), #276, .F. ) ;
#20 = ADVANCED_FACE ( 'NONE', ( #273 ), #407, .F. ) ;
#21 = ADVANCED_FACE ( 'NONE', ( #284 ), #247, .T. ) ;
#22 = ADVANCED_FACE ( 'NONE', ( #248 ), #268, .F. ) ;
#23 = ADVANCED_FACE ( 'NONE', ( #279 ), #285, .T. ) ;
#24 = ADVANCED_FACE ( 'NONE', ( #266 ), #454, .F. ) ;
#25 = ADVANCED_FACE ( 'NONE', ( #257 ), #277, .T. ) ;
#26 = ADVANCED_FACE ( 'NONE', ( #259 ), #269, .F. ) ;
#27 = B_SPLINE_CURVE_WITH_KNOTS ( 'NONE', 3,
 ( #552, #549, #551, #532, #535, #564, #556, #562, #547 ),
 .UNSPECIFIED., .F., .F.,
 ( 4, 2, 1, 2, 4 ),
 ( 2.309401076756356100E-007, 0.001840534923149606700, 0.003680838906191537700, 0.005521142889233468700, 0.007361446872275399300 ),
 .UNSPECIFIED. ) ;
#28 = B_SPLINE_CURVE_WITH_KNOTS ( 'NONE', 3,
 ( #603, #574, #639, #627, #631, #617, #626, #618 ),
 .UNSPECIFIED., .F., .F.,
 ( 4, 2, 2, 4 ),
 ( 0.003724410820005690100, 0.004651973522984844900, 0.005579536225964000500, 0.007434661631922311700 ),
 .UNSPECIFIED. ) ;
#29 = B_SPLINE_CURVE_WITH_KNOTS ( 'NONE', 3,
 ( #638, #646, #630, #622, #629, #620 ),
 .UNSPECIFIED., .F., .F.,
 ( 4, 2, 4 ),
 ( 2.380733146774796000E-007, 0.001862324446660183900, 0.003724410820005690100 ),
 .UNSPECIFIED. ) ;
#30 = B_SPLINE_CURVE_WITH_KNOTS ( 'NONE', 3,
 ( #655, #665, #687, #649, #671, #667 ),
 .UNSPECIFIED., .F., .F.,
 ( 4, 2, 4 ),
 ( 0.02023722913883035600, 0.02210097461678547600, 0.02396472009474059600 ),
 .UNSPECIFIED. ) ;
#31 = B_SPLINE_CURVE_WITH_KNOTS ( 'NONE', 3,
 ( #577, #590, #587, #591, #581, #584, #602, #599 ),
 .UNSPECIFIED., .F., .F.,
 ( 4, 2, 2, 4 ),
 ( 0.003724410820005695300, 0.004651973522984851800, 0.005579536225964007400, 0.007434661631922318700 ),
 .UNSPECIFIED. ) ;
#32 = B_SPLINE_CURVE_WITH_KNOTS ( 'NONE', 3,
 ( #690, #691, #707, #696, #708, #701 ),
 .UNSPECIFIED., .F., .F.,
 ( 4, 2, 4 ),
 ( 0.01650723481250819200, 0.01837223197566927400, 0.02023722913883035600 ),
 .UNSPECIFIED. ) ;
#33 = B_SPLINE_CURVE_WITH_KNOTS ( 'NONE', 3,
 ( #488, #528, #516, #505, #500, #518, #495, #529, #490 ),
 .UNSPECIFIED., .F., .F.,
 ( 4, 2, 1, 2, 4 ),
 ( 2.309401076759608700E-007, 0.001840534923149607500, 0.003680838906191539400, 0.005521142889233471300, 0.007361446872275402700 ),
 .UNSPECIFIED. ) ;
#34 = B_SPLINE_CURVE_WITH_KNOTS ( 'NONE', 3,
 ( #662, #651, #693, #663, #685, #677 ),
 .UNSPECIFIED., .F., .F.,
 ( 4, 2, 4 ),
 ( 0.006304706763215316700, 0.008159820910299407000, 0.01001493505738349600 ),
 .UNSPECIFIED. ) ;
#35 = B_SPLINE_CURVE_WITH_KNOTS ( 'NONE', 3,
 ( #571, #597, #572, #605, #598, #594 ),
 .UNSPECIFIED., .F., .F.,
 ( 4, 2, 4 ),
 ( 2.380733146787894300E-007, 0.001862324446660187200, 0.003724410820005695300 ),
 .UNSPECIFIED. ) ;
#36 = B_SPLINE_CURVE_WITH_KNOTS ( 'NONE', 3,
 ( #524, #493, #526, #515, #503, #525 ),
 .UNSPECIFIED., .F., .F.,
 ( 4, 2, 4 ),
 ( 0.006692155490046789600, 0.008554507031257079600, 0.01041685857246736800 ),
 .UNSPECIFIED. ) ;
#37 = MANIFOLD_SOLID_BREP ( 'M8 Tapped Hole1', #87 ) ;
#38 = B_SPLINE_CURVE_WITH_KNOTS ( 'NONE', 3,
 ( #487, #523, #513, #504, #499, #514 ),
 .UNSPECIFIED., .F., .F.,
 ( 4, 2, 4 ),
 ( 0.01001493505738349600, 0.01187515315479711400, 0.01373537125221073100 ),
 .UNSPECIFIED. ) ;
#39 = B_SPLINE_CURVE_WITH_KNOTS ( 'NONE', 3,
 ( #543, #559, #568, #542, #569, #540 ),
 .UNSPECIFIED., .F., .F.,
 ( 4, 2, 4 ),
 ( 2.380733146781389900E-007, 0.001862324446660186300, 0.003724410820005694500 ),
 .UNSPECIFIED. ) ;
#40 = B_SPLINE_CURVE_WITH_KNOTS ( 'NONE', 3,
 ( #480, #466, #484, #479, #482, #471 ),
 .UNSPECIFIED., .F., .F.,
 ( 4, 2, 4 ),
 ( 2.380733146774796000E-007, 0.001862324446660185700, 0.003724410820005693600 ),
 .UNSPECIFIED. ) ;
#41 = B_SPLINE_CURVE_WITH_KNOTS ( 'NONE', 3,
 ( #566, #533, #585, #586, #606, #607, #593, #575, #608 ),
 .UNSPECIFIED., .F., .F.,
 ( 4, 2, 1, 2, 4 ),
 ( 2.309401076754191400E-007, 0.001840534923149607300, 0.003680838906191539000, 0.005521142889233470400, 0.007361446872275402700 ),
 .UNSPECIFIED. ) ;
#42 = B_SPLINE_CURVE_WITH_KNOTS ( 'NONE', 3,
 ( #614, #604, #582, #610, #576, #579, #570, #580, #573 ),
 .UNSPECIFIED., .F., .F.,
 ( 4, 2, 1, 2, 4 ),
 ( 2.309401076754191900E-007, 0.001840534923149607800, 0.003680838906191539900, 0.005521142889233472200, 0.007361446872275404500 ),
 .UNSPECIFIED. ) ;
#43 = B_SPLINE_CURVE_WITH_KNOTS ( 'NONE', 3,
 ( #596, #600, #588, #589, #637, #616 ),
 .UNSPECIFIED., .F., .F.,
 ( 4, 2, 4 ),
 ( 0.01726509610795778200, 0.01911513424958789100, 0.02096517239121800300 ),
 .UNSPECIFIED. ) ;
#44 = B_SPLINE_CURVE_WITH_KNOTS ( 'NONE', 3,
 ( #668, #658, #656, #674, #694, #672, #673, #675 ),
 .UNSPECIFIED., .F., .F.,
 ( 4, 2, 2, 4 ),
 ( 0.003724410820005693600, 0.004651973522984848400, 0.005579536225964004000, 0.007434661631922315200 ),
 .UNSPECIFIED. ) ;
#45 = B_SPLINE_CURVE_WITH_KNOTS ( 'NONE', 3,
 ( #670, #695, #659, #688, #676, #689, #678, #682 ),
 .UNSPECIFIED., .F., .F.,
 ( 4, 2, 2, 4 ),
 ( 0.003724410820005694500, 0.004651973522984851000, 0.005579536225964005700, 0.007434661631922315200 ),
 .UNSPECIFIED. ) ;
#46 = B_SPLINE_CURVE_WITH_KNOTS ( 'NONE', 3,
 ( #640, #624, #645, #635, #643, #641 ),
 .UNSPECIFIED., .F., .F.,
 ( 4, 2, 4 ),
 ( 0.01041685857246736800, 0.01228046086272038100, 0.01414406315297339600 ),
 .UNSPECIFIED. ) ;
#47 = B_SPLINE_CURVE_WITH_KNOTS ( 'NONE', 3,
 ( #506, #498, #522, #501, #527, #502 ),
 .UNSPECIFIED., .F., .F.,
 ( 4, 2, 4 ),
 ( 0.01355483985512808900, 0.01540996798154293600, 0.01726509610795778200 ),
 .UNSPECIFIED. ) ;
#48 = ORIENTED_EDGE ( 'NONE', *, *, #736, .T. ) ;
#49 = ORIENTED_EDGE ( 'NONE', *, *, #749, .T. ) ;
#50 = ORIENTED_EDGE ( 'NONE', *, *, #747, .F. ) ;
#51 = ORIENTED_EDGE ( 'NONE', *, *, #740, .T. ) ;
#52 = VERTEX_POINT ( 'NONE', #420 ) ;
#53 = VERTEX_POINT ( 'NONE', #451 ) ;
#54 = VERTEX_POINT ( 'NONE', #421 ) ;
#55 = VERTEX_POINT ( 'NONE', #462 ) ;
#56 = ORIENTED_EDGE ( 'NONE', *, *, #765, .T. ) ;
#57 = ORIENTED_EDGE ( 'NONE', *, *, #747, .T. ) ;
#58 = VERTEX_POINT ( 'NONE', #422 ) ;
#59 = VERTEX_POINT ( 'NONE', #464 ) ;
#60 = VERTEX_POINT ( 'NONE', #460 ) ;
#61 = VERTEX_POINT ( 'NONE', #441 ) ;
#62 = ORIENTED_EDGE ( 'NONE', *, *, #793, .T. ) ;
#63 = VERTEX_POINT ( 'NONE', #433 ) ;
#64 = ORIENTED_EDGE ( 'NONE', *, *, #827, .T. ) ;
#65 = ORIENTED_EDGE ( 'NONE', *, *, #778, .F. ) ;
#66 = VERTEX_POINT ( 'NONE', #445 ) ;
#67 = VERTEX_POINT ( 'NONE', #423 ) ;
#68 = ORIENTED_EDGE ( 'NONE', *, *, #763, .T. ) ;
#69 = VERTEX_POINT ( 'NONE', #424 ) ;
#70 = ORIENTED_EDGE ( 'NONE', *, *, #751, .T. ) ;
#71 = ORIENTED_EDGE ( 'NONE', *, *, #750, .T. ) ;
#72 = VERTEX_POINT ( 'NONE', #444 ) ;
#73 = VERTEX_POINT ( 'NONE', #450 ) ;
#74 = VERTEX_POINT ( 'NONE', #463 ) ;
#75 = VERTEX_POINT ( 'NONE', #425 ) ;
#76 = ORIENTED_EDGE ( 'NONE', *, *, #759, .F. ) ;
#77 = VERTEX_POINT ( 'NONE', #448 ) ;
#78 = VERTEX_POINT ( 'NONE', #446 ) ;
#79 = VERTEX_POINT ( 'NONE', #417 ) ;
#80 = VERTEX_POINT ( 'NONE', #418 ) ;
#81 = VERTEX_POINT ( 'NONE', #429 ) ;
#82 = VERTEX_POINT ( 'NONE', #426 ) ;
#83 = VERTEX_POINT ( 'NONE', #430 ) ;
#84 = VERTEX_POINT ( 'NONE', #431 ) ;
#85 = ORIENTED_EDGE ( 'NONE', *, *, #804, .T. ) ;
#86 = ORIENTED_EDGE ( 'NONE', *, *, #760, .T. ) ;
#87 = CLOSED_SHELL ( 'NONE', ( #17, #10, #11, #19, #2, #14, #9, #20, #5, #13, #24, #18, #7, #15, #4, #26, #1, #25, #21, #23, #8, #6, #12, #3, #16, #22 ) ) ;
#88 = VERTEX_POINT ( 'NONE', #434 ) ;
#89 = ORIENTED_EDGE ( 'NONE', *, *, #751, .F. ) ;
#90 = ORIENTED_EDGE ( 'NONE', *, *, #740, .F. ) ;
#91 = ORIENTED_EDGE ( 'NONE', *, *, #759, .T. ) ;
#92 = ORIENTED_EDGE ( 'NONE', *, *, #773, .T. ) ;
#93 = ORIENTED_EDGE ( 'NONE', *, *, #797, .T. ) ;
#94 = ORIENTED_EDGE ( 'NONE', *, *, #804, .F. ) ;
#95 = ORIENTED_EDGE ( 'NONE', *, *, #754, .T. ) ;
#96 = ORIENTED_EDGE ( 'NONE', *, *, #737, .F. ) ;
#97 = ORIENTED_EDGE ( 'NONE', *, *, #773, .F. ) ;
#98 = VERTEX_POINT ( 'NONE', #452 ) ;
#99 = ORIENTED_EDGE ( 'NONE', *, *, #833, .T. ) ;
#100 = ORIENTED_EDGE ( 'NONE', *, *, #763, .F. ) ;
#101 = FACE_OUTER_BOUND ( 'NONE', #224, .T. ) ;
#102 = VERTEX_POINT ( 'NONE', #435 ) ;
#103 = VERTEX_POINT ( 'NONE', #436 ) ;
#104 = VERTEX_POINT ( 'NONE', #457 ) ;
#105 = VERTEX_POINT ( 'NONE', #475 ) ;
#106 = ORIENTED_EDGE ( 'NONE', *, *, #757, .T. ) ;
#107 = ORIENTED_EDGE ( 'NONE', *, *, #754, .F. ) ;
#108 = ORIENTED_EDGE ( 'NONE', *, *, #755, .T. ) ;
#109 = ORIENTED_EDGE ( 'NONE', *, *, #744, .T. ) ;
#110 = ORIENTED_EDGE ( 'NONE', *, *, #753, .F. ) ;
#111 = ORIENTED_EDGE ( 'NONE', *, *, #768, .F. ) ;
#112 = ORIENTED_EDGE ( 'NONE', *, *, #788, .F. ) ;
#113 = ORIENTED_EDGE ( 'NONE', *, *, #743, .F. ) ;
#114 = ORIENTED_EDGE ( 'NONE', *, *, #826, .F. ) ;
#115 = ORIENTED_EDGE ( 'NONE', *, *, #748, .F. ) ;
#116 = ORIENTED_EDGE ( 'NONE', *, *, #752, .F. ) ;
#117 = ORIENTED_EDGE ( 'NONE', *, *, #803, .F. ) ;
#118 = ORIENTED_EDGE ( 'NONE', *, *, #766, .F. ) ;
#119 = ORIENTED_EDGE ( 'NONE', *, *, #830, .F. ) ;
#120 = ORIENTED_EDGE ( 'NONE', *, *, #741, .T. ) ;
#121 = ORIENTED_EDGE ( 'NONE', *, *, #777, .F. ) ;
#122 = ORIENTED_EDGE ( 'NONE', *, *, #793, .F. ) ;
#123 = ORIENTED_EDGE ( 'NONE', *, *, #769, .T. ) ;
#124 = ORIENTED_EDGE ( 'NONE', *, *, #772, .T. ) ;
#125 = ORIENTED_EDGE ( 'NONE', *, *, #764, .T. ) ;
#126 = ORIENTED_EDGE ( 'NONE', *, *, #769, .F. ) ;
#127 = ORIENTED_EDGE ( 'NONE', *, *, #765, .F. ) ;
#128 = ORIENTED_EDGE ( 'NONE', *, *, #745, .T. ) ;
#129 = ORIENTED_EDGE ( 'NONE', *, *, #767, .F. ) ;
#130 = ORIENTED_EDGE ( 'NONE', *, *, #770, .T. ) ;
#131 = ORIENTED_EDGE ( 'NONE', *, *, #794, .F. ) ;
#132 = ORIENTED_EDGE ( 'NONE', *, *, #762, .T. ) ;
#133 = ORIENTED_EDGE ( 'NONE', *, *, #776, .T. ) ;
#134 = ORIENTED_EDGE ( 'NONE', *, *, #761, .F. ) ;
#135 = ORIENTED_EDGE ( 'NONE', *, *, #799, .F. ) ;
#136 = ORIENTED_EDGE ( 'NONE', *, *, #801, .F. ) ;
#137 = ORIENTED_EDGE ( 'NONE', *, *, #742, .T. ) ;
#138 = ORIENTED_EDGE ( 'NONE', *, *, #738, .F. ) ;
#139 = ORIENTED_EDGE ( 'NONE', *, *, #770, .F. ) ;
#140 = ORIENTED_EDGE ( 'NONE', *, *, #739, .T. ) ;
#141 = ORIENTED_EDGE ( 'NONE', *, *, #748, .T. ) ;
#142 = ORIENTED_EDGE ( 'NONE', *, *, #738, .T. ) ;
#143 = ORIENTED_EDGE ( 'NONE', *, *, #777, .T. ) ;
#144 = ORIENTED_EDGE ( 'NONE', *, *, #736, .F. ) ;
#145 = ORIENTED_EDGE ( 'NONE', *, *, #772, .F. ) ;
#146 = ORIENTED_EDGE ( 'NONE', *, *, #739, .F. ) ;
#147 = ORIENTED_EDGE ( 'NONE', *, *, #758, .T. ) ;
#148 = ORIENTED_EDGE ( 'NONE', *, *, #771, .F. ) ;
#149 = ORIENTED_EDGE ( 'NONE', *, *, #764, .F. ) ;
#150 = ORIENTED_EDGE ( 'NONE', *, *, #799, .T. ) ;
#151 = ORIENTED_EDGE ( 'NONE', *, *, #776, .F. ) ;
#152 = ORIENTED_EDGE ( 'NONE', *, *, #774, .F. ) ;
#153 = ORIENTED_EDGE ( 'NONE', *, *, #746, .F. ) ;
#154 = ORIENTED_EDGE ( 'NONE', *, *, #830, .T. ) ;
#155 = ORIENTED_EDGE ( 'NONE', *, *, #781, .F. ) ;
#156 = ORIENTED_EDGE ( 'NONE', *, *, #744, .F. ) ;
#157 = ORIENTED_EDGE ( 'NONE', *, *, #767, .T. ) ;
#158 = ORIENTED_EDGE ( 'NONE', *, *, #743, .T. ) ;
#159 = ORIENTED_EDGE ( 'NONE', *, *, #752, .T. ) ;
#160 = ORIENTED_EDGE ( 'NONE', *, *, #753, .T. ) ;
#161 = ORIENTED_EDGE ( 'NONE', *, *, #746, .T. ) ;
#162 = ORIENTED_EDGE ( 'NONE', *, *, #775, .T. ) ;
#163 = ORIENTED_EDGE ( 'NONE', *, *, #756, .T. ) ;
#164 = ORIENTED_EDGE ( 'NONE', *, *, #822, .F. ) ;
#165 = ORIENTED_EDGE ( 'NONE', *, *, #787, .T. ) ;
#166 = ORIENTED_EDGE ( 'NONE', *, *, #757, .F. ) ;
#167 = ORIENTED_EDGE ( 'NONE', *, *, #803, .T. ) ;
#168 = ORIENTED_EDGE ( 'NONE', *, *, #766, .T. ) ;
#169 = ORIENTED_EDGE ( 'NONE', *, *, #762, .F. ) ;
#170 = ORIENTED_EDGE ( 'NONE', *, *, #758, .F. ) ;
#171 = ORIENTED_EDGE ( 'NONE', *, *, #745, .F. ) ;
#172 = ORIENTED_EDGE ( 'NONE', *, *, #742, .F. ) ;
#173 = ORIENTED_EDGE ( 'NONE', *, *, #822, .T. ) ;
#174 = ORIENTED_EDGE ( 'NONE', *, *, #826, .T. ) ;
#175 = ORIENTED_EDGE ( 'NONE', *, *, #797, .F. ) ;
#176 = ORIENTED_EDGE ( 'NONE', *, *, #760, .F. ) ;
#177 = EDGE_LOOP ( 'NONE', ( #71, #162, #146, #134 ) ) ;
#178 = EDGE_LOOP ( 'NONE', ( #152, #128, #110, #153, #148 ) ) ;
#179 = EDGE_LOOP ( 'NONE', ( #158, #175, #210 ) ) ;
#180 = EDGE_LOOP ( 'NONE', ( #170, #167, #169, #119, #136 ) ) ;
#181 = ORIENTED_EDGE ( 'NONE', *, *, #741, .F. ) ;
#182 = ORIENTED_EDGE ( 'NONE', *, *, #750, .F. ) ;
#183 = ORIENTED_EDGE ( 'NONE', *, *, #794, .T. ) ;
#184 = EDGE_LOOP ( 'NONE', ( #149, #161, #118, #151, #111 ) ) ;
#185 = EDGE_LOOP ( 'NONE', ( #138, #123, #156, #117, #135 ) ) ;
#186 = EDGE_LOOP ( 'NONE', ( #145, #122 ) ) ;
#187 = EDGE_LOOP ( 'NONE', ( #100, #95, #51, #50 ) ) ;
#188 = EDGE_LOOP ( 'NONE', ( #107, #94, #57, #91 ) ) ;
#189 = VERTEX_POINT ( 'NONE', #467 ) ;
#190 = VERTEX_POINT ( 'NONE', #470 ) ;
#191 = EDGE_LOOP ( 'NONE', ( #182, #155 ) ) ;
#192 = FACE_OUTER_BOUND ( 'NONE', #177, .T. ) ;
#193 = EDGE_LOOP ( 'NONE', ( #127, #120, #125 ) ) ;
#194 = FACE_BOUND ( 'NONE', #226, .T. ) ;
#195 = FACE_BOUND ( 'NONE', #216, .T. ) ;
#196 = EDGE_LOOP ( 'NONE', ( #113, #133, #139, #115, #126, #121 ) ) ;
#197 = ORIENTED_EDGE ( 'NONE', *, *, #801, .T. ) ;
#198 = EDGE_LOOP ( 'NONE', ( #147, #220, #150 ) ) ;
#199 = VERTEX_POINT ( 'NONE', #432 ) ;
#200 = EDGE_LOOP ( 'NONE', ( #114, #154, #172, #131, #171, #112 ) ) ;
#201 = EDGE_LOOP ( 'NONE', ( #222, #176, #207 ) ) ;
#202 = CYLINDRICAL_SURFACE ( 'NONE', #831, 8.849999999999999600 ) ;
#203 = EDGE_LOOP ( 'NONE', ( #181, #208, #219 ) ) ;
#204 = EDGE_LOOP ( 'NONE', ( #89, #62, #92, #85 ) ) ;
#205 = ORIENTED_EDGE ( 'NONE', *, *, #781, .T. ) ;
#206 = ORIENTED_EDGE ( 'NONE', *, *, #761, .T. ) ;
#207 = ORIENTED_EDGE ( 'NONE', *, *, #788, .T. ) ;
#208 = ORIENTED_EDGE ( 'NONE', *, *, #827, .F. ) ;
#209 = ORIENTED_EDGE ( 'NONE', *, *, #756, .F. ) ;
#210 = ORIENTED_EDGE ( 'NONE', *, *, #768, .T. ) ;
#211 = ORIENTED_EDGE ( 'NONE', *, *, #778, .T. ) ;
#212 = ORIENTED_EDGE ( 'NONE', *, *, #755, .F. ) ;
#213 = EDGE_LOOP ( 'NONE', ( #65, #49, #48, #96 ) ) ;
#214 = EDGE_LOOP ( 'NONE', ( #116, #130, #168, #160, #183, #157, #173 ) ) ;
#215 = EDGE_LOOP ( 'NONE', ( #218, #205, #206, #164 ) ) ;
#216 = EDGE_LOOP ( 'NONE', ( #234, #144 ) ) ;
#217 = ORIENTED_EDGE ( 'NONE', *, *, #749, .F. ) ;
#218 = ORIENTED_EDGE ( 'NONE', *, *, #775, .F. ) ;
#219 = ORIENTED_EDGE ( 'NONE', *, *, #771, .T. ) ;
#220 = ORIENTED_EDGE ( 'NONE', *, *, #833, .F. ) ;
#221 = EDGE_LOOP ( 'NONE', ( #217, #209, #228, #165 ) ) ;
#222 = ORIENTED_EDGE ( 'NONE', *, *, #774, .T. ) ;
#223 = EDGE_LOOP ( 'NONE', ( #124, #70, #68, #97 ) ) ;
#224 = EDGE_LOOP ( 'NONE', ( #163, #211 ) ) ;
#225 = EDGE_LOOP ( 'NONE', ( #141, #159, #140, #129, #137, #132, #109 ) ) ;
#226 = EDGE_LOOP ( 'NONE', ( #76, #90 ) ) ;
#227 = EDGE_LOOP ( 'NONE', ( #99, #108, #86, #64, #56, #93, #106 ) ) ;
#228 = ORIENTED_EDGE ( 'NONE', *, *, #737, .T. ) ;
#229 = VERTEX_POINT ( 'NONE', #481 ) ;
#230 = VERTEX_POINT ( 'NONE', #477 ) ;
#231 = FACE_BOUND ( 'NONE', #186, .T. ) ;
#232 = EDGE_LOOP ( 'NONE', ( #174, #212, #197 ) ) ;
#233 = EDGE_LOOP ( 'NONE', ( #142, #166, #143 ) ) ;
#234 = ORIENTED_EDGE ( 'NONE', *, *, #787, .F. ) ;
#235 = FACE_OUTER_BOUND ( 'NONE', #204, .T. ) ;
#236 = FACE_OUTER_BOUND ( 'NONE', #187, .T. ) ;
#237 = VECTOR ( 'NONE', #469, 1000.000000000000000 ) ;
#238 = VECTOR ( 'NONE', #492, 1000.000000000000000 ) ;
#239 = FACE_OUTER_BOUND ( 'NONE', #225, .T. ) ;
#240 = FACE_OUTER_BOUND ( 'NONE', #201, .T. ) ;
#241 = FACE_OUTER_BOUND ( 'NONE', #193, .T. ) ;
#242 = FACE_OUTER_BOUND ( 'NONE', #185, .T. ) ;
#243 = LINE ( 'NONE', #519, #288 ) ;
#244 = LINE ( 'NONE', #538, #249 ) ;
#245 = CYLINDRICAL_SURFACE ( 'NONE', #779, 3.399999999999998600 ) ;
#246 = CONICAL_SURFACE ( 'NONE', #795, 2.830384348594538600, 1.047197551196596500 ) ;
#247 = CONICAL_SURFACE ( 'NONE', #784, 2.830384348594538600, 1.047197551196596500 ) ;
#248 = FACE_OUTER_BOUND ( 'NONE', #188, .T. ) ;
#249 = VECTOR ( 'NONE', #536, 999.9999999999998900 ) ;
#250 = FACE_OUTER_BOUND ( 'NONE', #215, .T. ) ;
#251 = CYLINDRICAL_SURFACE ( 'NONE', #783, 8.849999999999999600 ) ;
#252 = CIRCLE ( 'NONE', #807, 8.849999999999999600 ) ;
#253 = FACE_OUTER_BOUND ( 'NONE', #227, .T. ) ;
#254 = LINE ( 'NONE', #491, #238 ) ;
#255 = FACE_OUTER_BOUND ( 'NONE', #232, .T. ) ;
#256 = VECTOR ( 'NONE', #497, 999.9999999999998900 ) ;
#257 = FACE_OUTER_BOUND ( 'NONE', #198, .T. ) ;
#258 = CONICAL_SURFACE ( 'NONE', #786, 2.830384348594538600, 1.047197551196596500 ) ;
#259 = FACE_OUTER_BOUND ( 'NONE', #221, .T. ) ;
#260 = CONICAL_SURFACE ( 'NONE', #800, 8.849999999999999600, 1.222025323210989400 ) ;
#261 = FACE_OUTER_BOUND ( 'NONE', #203, .T. ) ;
#262 = FACE_OUTER_BOUND ( 'NONE', #223, .T. ) ;
#263 = FACE_OUTER_BOUND ( 'NONE', #213, .T. ) ;
#264 = FACE_OUTER_BOUND ( 'NONE', #178, .T. ) ;
#265 = CONICAL_SURFACE ( 'NONE', #806, 4.025000000000000400, 0.7853981633974485000 ) ;
#266 = FACE_OUTER_BOUND ( 'NONE', #180, .T. ) ;
#267 = CIRCLE ( 'NONE', #805, 6.099999999999999600 ) ;
#268 = CONICAL_SURFACE ( 'NONE', #828, 4.025000000000000400, 0.7853981633974485000 ) ;
#269 = CYLINDRICAL_SURFACE ( 'NONE', #789, 6.099999999999999600 ) ;
#270 = CONICAL_SURFACE ( 'NONE', #782, 2.830384348594538600, 1.047197551196596500 ) ;
#271 = FACE_OUTER_BOUND ( 'NONE', #214, .T. ) ;
#272 = LINE ( 'NONE', #483, #237 ) ;
#273 = FACE_OUTER_BOUND ( 'NONE', #184, .T. ) ;
#274 = LINE ( 'NONE', #486, #282 ) ;
#275 = CONICAL_SURFACE ( 'NONE', #813, 2.830384348594538600, 1.047197551196596500 ) ;
#276 = CYLINDRICAL_SURFACE ( 'NONE', #811, 6.099999999999999600 ) ;
#277 = CONICAL_SURFACE ( 'NONE', #791, 2.830384348594538600, 1.047197551196596500 ) ;
#278 = CIRCLE ( 'NONE', #792, 4.025000000000000400 ) ;
#279 = FACE_OUTER_BOUND ( 'NONE', #179, .T. ) ;
#280 = CYLINDRICAL_SURFACE ( 'NONE', #808, 3.399999999999998600 ) ;
#281 = FACE_OUTER_BOUND ( 'NONE', #200, .T. ) ;
#282 = VECTOR ( 'NONE', #520, 1000.000000000000100 ) ;
#283 = LINE ( 'NONE', #489, #286 ) ;
#284 = FACE_OUTER_BOUND ( 'NONE', #233, .T. ) ;
#285 = CONICAL_SURFACE ( 'NONE', #814, 2.830384348594538600, 1.047197551196596500 ) ;
#286 = VECTOR ( 'NONE', #494, 1000.000000000000000 ) ;
#287 = LINE ( 'NONE', #496, #256 ) ;
#288 = VECTOR ( 'NONE', #521, 1000.000000000000000 ) ;
#289 = CIRCLE ( 'NONE', #809, 8.850000000000001400 ) ;
#290 = FACE_OUTER_BOUND ( 'NONE', #191, .T. ) ;
#291 = LINE ( 'NONE', #507, #293 ) ;
#292 = CONICAL_SURFACE ( 'NONE', #790, 8.849999999999999600, 1.222025323210989400 ) ;
#293 = VECTOR ( 'NONE', #510, 1000.000000000000000 ) ;
#294 = LINE ( 'NONE', #508, #295 ) ;
#295 = VECTOR ( 'NONE', #561, 1000.000000000000200 ) ;
#296 = FACE_OUTER_BOUND ( 'NONE', #196, .T. ) ;
#297 = CIRCLE ( 'NONE', #832, 6.374999999999999100 ) ;
#298 = VECTOR ( 'NONE', #601, 1000.000000000000200 ) ;
#299 = CIRCLE ( 'NONE', #815, 6.374999999999999100 ) ;
#300 = CIRCLE ( 'NONE', #816, 6.099999999999999600 ) ;
#301 = CIRCLE ( 'NONE', #810, 6.374999999999999100 ) ;
#302 = CIRCLE ( 'NONE', #819, 6.374999999999999100 ) ;
#303 = CIRCLE ( 'NONE', #817, 4.025000000000000400 ) ;
#304 = VECTOR ( 'NONE', #548, 1000.000000000000000 ) ;
#305 = LINE ( 'NONE', #615, #298 ) ;
#306 = CIRCLE ( 'NONE', #821, 3.399999999999998600 ) ;
#307 = CIRCLE ( 'NONE', #820, 3.399999999999999000 ) ;
#308 = LINE ( 'NONE', #583, #309 ) ;
#309 = VECTOR ( 'NONE', #611, 1000.000000000000000 ) ;
#310 = LINE ( 'NONE', #633, #311 ) ;
#311 = VECTOR ( 'NONE', #634, 1000.000000000000000 ) ;
#312 = LINE ( 'NONE', #647, #313 ) ;
#313 = VECTOR ( 'NONE', #619, 1000.000000000000000 ) ;
#314 = LINE ( 'NONE', #621, #316 ) ;
#315 = LINE ( 'NONE', #537, #304 ) ;
#316 = VECTOR ( 'NONE', #636, 1000.000000000000000 ) ;
#317 = LINE ( 'NONE', #669, #318 ) ;
#318 = VECTOR ( 'NONE', #705, 1000.000000000000000 ) ;
#319 = CIRCLE ( 'NONE', #839, 6.374999999999999100 ) ;
#320 = CIRCLE ( 'NONE', #849, 3.399999999999998600 ) ;
#321 = SHAPE_DEFINITION_REPRESENTATION ( #877, #366 ) ;
#322 = CIRCLE ( 'NONE', #840, 6.099999999999999600 ) ;
#323 = CIRCLE ( 'NONE', #824, 8.850000000000001400 ) ;
#324 = LINE ( 'NONE', #660, #328 ) ;
#325 = CIRCLE ( 'NONE', #844, 6.374999999999999100 ) ;
#326 = CIRCLE ( 'NONE', #823, 6.099999999999999600 ) ;
#327 = CIRCLE ( 'NONE', #854, 6.374999999999999100 ) ;
#328 = VECTOR ( 'NONE', #661, 1000.000000000000000 ) ;
#329 = CIRCLE ( 'NONE', #845, 3.399999999999999000 ) ;
#330 = CIRCLE ( 'NONE', #856, 8.849999999999999600 ) ;
#331 = PERSON_AND_ORGANIZATION ( #879, #335 ) ;
#332 = DATE_AND_TIME ( #338, #340 ) ;
#333 = COORDINATED_UNIVERSAL_TIME_OFFSET ( 1, 0, .AHEAD. ) ;
#334 = LOCAL_TIME ( 18, 17, 15.00000000000000000, #333 ) ;
#335 = ORGANIZATION ( 'UNSPECIFIED', 'UNSPECIFIED', '' ) ;
#336 = CALENDAR_DATE ( 2017, 6, 2 ) ;
#337 = APPROVAL_PERSON_ORGANIZATION ( #344, #852, #861 ) ;
#338 = CALENDAR_DATE ( 2017, 6, 2 ) ;
#339 = APPROVAL_PERSON_ORGANIZATION ( #347, #858, #870 ) ;
#340 = LOCAL_TIME ( 18, 17, 15.00000000000000000, #343 ) ;
#341 = DATE_AND_TIME ( #336, #334 ) ;
#342 = PERSON_AND_ORGANIZATION ( #879, #335 ) ;
#343 = COORDINATED_UNIVERSAL_TIME_OFFSET ( 1, 0, .AHEAD. ) ;
#344 = PERSON_AND_ORGANIZATION ( #879, #335 ) ;
#345 = CALENDAR_DATE ( 2017, 6, 2 ) ;
#346 = APPROVAL_DATE_TIME ( #341, #852 ) ;
#347 = PERSON_AND_ORGANIZATION ( #879, #335 ) ;
#348 = PERSON_AND_ORGANIZATION ( #879, #335 ) ;
#349 = COORDINATED_UNIVERSAL_TIME_OFFSET ( 1, 0, .AHEAD. ) ;
#350 = DATE_AND_TIME ( #345, #351 ) ;
#351 = LOCAL_TIME ( 18, 17, 15.00000000000000000, #349 ) ;
#352 = APPROVAL_DATE_TIME ( #350, #858 ) ;
#353 = DATE_AND_TIME ( #357, #363 ) ;
#354 = CALENDAR_DATE ( 2017, 6, 2 ) ;
#355 = DATE_AND_TIME ( #354, #360 ) ;
#356 = PERSON_AND_ORGANIZATION ( #879, #335 ) ;
#357 = CALENDAR_DATE ( 2017, 6, 2 ) ;
#358 = APPROVAL_PERSON_ORGANIZATION ( #365, #860, #864 ) ;
#359 = COORDINATED_UNIVERSAL_TIME_OFFSET ( 1, 0, .AHEAD. ) ;
#360 = LOCAL_TIME ( 18, 17, 15.00000000000000000, #359 ) ;
#361 = PERSON_AND_ORGANIZATION ( #879, #335 ) ;
#362 = COORDINATED_UNIVERSAL_TIME_OFFSET ( 1, 0, .AHEAD. ) ;
#363 = LOCAL_TIME ( 18, 17, 15.00000000000000000, #362 ) ;
#364 = APPROVAL_DATE_TIME ( #355, #860 ) ;
#365 = PERSON_AND_ORGANIZATION ( #879, #335 ) ;
#366 = ADVANCED_BREP_SHAPE_REPRESENTATION ( 'ALP0823', ( #37, #841 ), #857 ) ;
#367 = UNCERTAINTY_MEASURE_WITH_UNIT (LENGTH_MEASURE( 1.000000000000000100E-005 ), #734, 'distance_accuracy_value', 'NONE');
#368 = DIRECTION ( 'NONE',  ( 0.8660254037844386000, 0.0000000000000000000, 0.4999999999999999400 ) ) ;
#369 = DIRECTION ( 'NONE',  ( 3.624628615055125000E-020, 1.000000000000000000, -0.0000000000000000000 ) ) ;
#370 = DIRECTION ( 'NONE',  ( 0.5000000000000002200, 0.0000000000000000000, -0.8660254037844386000 ) ) ;
#371 = CARTESIAN_POINT ( 'NONE',  ( -3.801396569324266100E-015, 0.0000000000000000000, 0.0000000000000000000 ) ) ;
#372 = CARTESIAN_POINT ( 'NONE',  ( 0.0000000000000000000, 10.04648480051271000, 0.0000000000000000000 ) ) ;
#373 = DIRECTION ( 'NONE',  ( -0.0000000000000000000, 1.000000000000000000, -0.0000000000000000000 ) ) ;
#374 = DIRECTION ( 'NONE',  ( 0.0000000000000000000, -1.000000000000000000, 0.0000000000000000000 ) ) ;
#375 = DIRECTION ( 'NONE',  ( -0.0000000000000000000, 1.000000000000000000, -0.0000000000000000000 ) ) ;
#376 = CARTESIAN_POINT ( 'NONE',  ( 0.0000000000000000000, 8.000000000000000000, 0.0000000000000000000 ) ) ;
#377 = DIRECTION ( 'NONE',  ( -1.000000000000000000, 0.0000000000000000000, 1.178285959793849300E-016 ) ) ;
#378 = CARTESIAN_POINT ( 'NONE',  ( 1.964491093315921500E-015, 8.000000000000000000, -7.361215932167731100 ) ) ;
#379 = CARTESIAN_POINT ( 'NONE',  ( -3.801331326009194800E-015, 1.800000000000000000, 0.0000000000000000000 ) ) ;
#380 = DIRECTION ( 'NONE',  ( -0.5000000000000000000, 0.0000000000000000000, 0.8660254037844387100 ) ) ;
#381 = DIRECTION ( 'NONE',  ( 0.0000000000000000000, 0.0000000000000000000, 1.000000000000000000 ) ) ;
#382 = DIRECTION ( 'NONE',  ( 0.0000000000000000000, 0.0000000000000000000, -1.000000000000000000 ) ) ;
#383 = DIRECTION ( 'NONE',  ( -0.0000000000000000000, -1.000000000000000000, -0.0000000000000000000 ) ) ;
#384 = DIRECTION ( 'NONE',  ( 0.4999999999999998300, -0.0000000000000000000, 0.8660254037844387100 ) ) ;
#385 = CARTESIAN_POINT ( 'NONE',  ( 0.0000000000000000000, 10.04648480051271000, 0.0000000000000000000 ) ) ;
#386 = DIRECTION ( 'NONE',  ( -0.8660254037844386000, 0.0000000000000000000, -0.5000000000000002200 ) ) ;
#387 = DIRECTION ( 'NONE',  ( 1.000000000000000000, 0.0000000000000000000, 0.0000000000000000000 ) ) ;
#388 = DIRECTION ( 'NONE',  ( -1.000000000000000000, 3.624628615055125000E-020, 0.0000000000000000000 ) ) ;
#389 = DIRECTION ( 'NONE',  ( 0.0000000000000000000, 0.0000000000000000000, -1.000000000000000000 ) ) ;
#390 = CARTESIAN_POINT ( 'NONE',  ( -3.801331326009194800E-015, 1.800000000000000000, 0.0000000000000000000 ) ) ;
#391 = CARTESIAN_POINT ( 'NONE',  ( 6.374999999999998200, 8.000000000000000000, -3.680607966083869100 ) ) ;
#392 = CARTESIAN_POINT ( 'NONE',  ( 0.0000000000000000000, 8.000000000000000000, 0.0000000000000000000 ) ) ;
#393 = CARTESIAN_POINT ( 'NONE',  ( 0.0000000000000000000, 8.000000000000000000, 0.0000000000000000000 ) ) ;
#394 =( NAMED_UNIT ( * ) SI_UNIT ( $, .STERADIAN. ) SOLID_ANGLE_UNIT ( ) );
#395 = DIRECTION ( 'NONE',  ( 1.178285959793849300E-016, 0.0000000000000000000, 1.000000000000000000 ) ) ;
#396 = CARTESIAN_POINT ( 'NONE',  ( -6.375000000000000900, 8.000000000000000000, 3.680607966083863800 ) ) ;
#397 = CARTESIAN_POINT ( 'NONE',  ( 0.0000000000000000000, 10.04648480051271000, 0.0000000000000000000 ) ) ;
#398 = DIRECTION ( 'NONE',  ( 0.0000000000000000000, 0.0000000000000000000, 1.000000000000000000 ) ) ;
#399 = DIRECTION ( 'NONE',  ( -3.624628615055125000E-020, -1.000000000000000000, 0.0000000000000000000 ) ) ;
#400 = DIRECTION ( 'NONE',  ( -0.0000000000000000000, 1.000000000000000000, -0.0000000000000000000 ) ) ;
#401 = DIRECTION ( 'NONE',  ( 0.0000000000000000000, 0.0000000000000000000, 1.000000000000000000 ) ) ;
#402 = PLANE ( 'NONE',  #812 ) ;
#403 = PLANE ( 'NONE',  #802 ) ;
#404 = DIRECTION ( 'NONE',  ( -3.624628615055125000E-020, -1.000000000000000000, 0.0000000000000000000 ) ) ;
#405 = CARTESIAN_POINT ( 'NONE',  ( 6.374999999999999100, 8.000000000000000000, 3.680607966083866400 ) ) ;
#406 = CARTESIAN_POINT ( 'NONE',  ( 0.0000000000000000000, 0.5000000000000000000, 0.0000000000000000000 ) ) ;
#407 = PLANE ( 'NONE',  #825 ) ;
#408 = DIRECTION ( 'NONE',  ( 0.8660254037844387100, 0.0000000000000000000, -0.4999999999999998300 ) ) ;
#409 = DIRECTION ( 'NONE',  ( 0.0000000000000000000, 0.0000000000000000000, -1.000000000000000000 ) ) ;
#410 = MECHANICAL_CONTEXT ( 'NONE', #465, 'mechanical' ) ;
#411 = DIRECTION ( 'NONE',  ( 0.0000000000000000000, -1.000000000000000000, 0.0000000000000000000 ) ) ;
#412 = DIRECTION ( 'NONE',  ( 1.000000000000000000, 0.0000000000000000000, 0.0000000000000000000 ) ) ;
#413 = DIRECTION ( 'NONE',  ( 0.0000000000000000000, -1.000000000000000000, 0.0000000000000000000 ) ) ;
#414 = PLANE ( 'NONE',  #829 ) ;
#415 = DIRECTION ( 'NONE',  ( 0.0000000000000000000, 0.0000000000000000000, -1.000000000000000000 ) ) ;
#416 = DIRECTION ( 'NONE',  ( 0.0000000000000000000, 0.0000000000000000000, 1.000000000000000000 ) ) ;
#417 = CARTESIAN_POINT ( 'NONE',  ( 6.374999999999998200, 2.341376024666280000, -3.680607966083869100 ) ) ;
#418 = CARTESIAN_POINT ( 'NONE',  ( 6.374999999999999100, 2.699999999999999700, 5.815220060380041500E-020 ) ) ;
#419 = DIRECTION ( 'NONE',  ( 0.0000000000000000000, -1.000000000000000000, 0.0000000000000000000 ) ) ;
#420 = CARTESIAN_POINT ( 'NONE',  ( 6.374999999999999100, 7.430607966083862000, 3.680607966083866900 ) ) ;
#421 = CARTESIAN_POINT ( 'NONE',  ( -6.375000000000000900, 2.341376024666282300, 3.680607966083863800 ) ) ;
#422 = CARTESIAN_POINT ( 'NONE',  ( 0.0000000000000000000, 0.0000000000000000000, -6.099999999999999600 ) ) ;
#423 = CARTESIAN_POINT ( 'NONE',  ( 1.849373953278544200E-015, 7.430607966083861100, -7.361215932167731100 ) ) ;
#424 = CARTESIAN_POINT ( 'NONE',  ( 3.187500000000001300, 8.000000000000000000, -5.520911949125799200 ) ) ;
#425 = CARTESIAN_POINT ( 'NONE',  ( 4.163799117101000100E-016, 7.374999999999999100, -3.399999999999999500 ) ) ;
#426 = CARTESIAN_POINT ( 'NONE',  ( -8.850000000000003200, 1.800000000000000000, 1.083812417245407700E-015 ) ) ;
#427 = CARTESIAN_POINT ( 'NONE',  ( 0.0000000000000000000, 0.5000000000000000000, 0.0000000000000000000 ) ) ;
#428 = CARTESIAN_POINT ( 'NONE',  ( 0.0000000000000000000, 10.04648480051271000, 0.0000000000000000000 ) ) ;
#429 = CARTESIAN_POINT ( 'NONE',  ( 1.964491093315921500E-015, 2.341376024666280500, -7.361215932167731100 ) ) ;
#430 = CARTESIAN_POINT ( 'NONE',  ( 0.0000000000000000000, 0.5000000000000000000, -6.099999999999999600 ) ) ;
#431 = CARTESIAN_POINT ( 'NONE',  ( -6.375000000000000900, 7.430607966083861100, -3.680607966083866900 ) ) ;
#432 = CARTESIAN_POINT ( 'NONE',  ( 3.187499999999998700, 8.000000000000000000, 5.520911949125797400 ) ) ;
#433 = CARTESIAN_POINT ( 'NONE',  ( -8.850000000000005000, 6.415592648647572500E-019, 0.0000000000000000000 ) ) ;
#434 = CARTESIAN_POINT ( 'NONE',  ( 6.374999999999999100, 2.341376024666280000, 3.680607966083866400 ) ) ;
#435 = CARTESIAN_POINT ( 'NONE',  ( 0.0000000000000000000, 8.000000000000000000, 4.025000000000000400 ) ) ;
#436 = CARTESIAN_POINT ( 'NONE',  ( -6.375000000000000900, 2.700000000000001500, 7.807704866165844300E-016 ) ) ;
#437 = CARTESIAN_POINT ( 'NONE',  ( 0.0000000000000000000, 10.04648480051271000, 0.0000000000000000000 ) ) ;
#438 = DIRECTION ( 'NONE',  ( 0.0000000000000000000, -1.000000000000000000, 0.0000000000000000000 ) ) ;
#439 = CARTESIAN_POINT ( 'NONE',  ( 0.0000000000000000000, 10.04648480051271000, 0.0000000000000000000 ) ) ;
#440 = DIRECTION ( 'NONE',  ( 0.0000000000000000000, 0.0000000000000000000, -1.000000000000000000 ) ) ;
#441 = CARTESIAN_POINT ( 'NONE',  ( -1.999641294747890800E-015, 2.341376024666281400, 7.361215932167728400 ) ) ;
#442 = DIRECTION ( 'NONE',  ( -0.0000000000000000000, 1.000000000000000000, -0.0000000000000000000 ) ) ;
#443 = CARTESIAN_POINT ( 'NONE',  ( -1.999641294747890800E-015, 8.000000000000000000, 7.361215932167728400 ) ) ;
#444 = CARTESIAN_POINT ( 'NONE',  ( -6.375000000000000900, 8.000000000000000000, 0.0000000000000000000 ) ) ;
#445 = CARTESIAN_POINT ( 'NONE',  ( 0.0000000000000000000, 7.374999999999999100, 3.399999999999999000 ) ) ;
#446 = CARTESIAN_POINT ( 'NONE',  ( 4.929203366568097200E-016, 8.000000000000000000, -4.025000000000000400 ) ) ;
#447 = DIRECTION ( 'NONE',  ( 0.0000000000000000000, 0.0000000000000000000, -1.000000000000000000 ) ) ;
#448 = CARTESIAN_POINT ( 'NONE',  ( 0.0000000000000000000, 8.000000000000000000, -6.374999999999999100 ) ) ;
#449 = DIRECTION ( 'NONE',  ( 0.0000000000000000000, 0.0000000000000000000, -1.000000000000000000 ) ) ;
#450 = CARTESIAN_POINT ( 'NONE',  ( 7.470345474798854300E-016, 0.5000000000000000000, 6.099999999999999600 ) ) ;
#451 = CARTESIAN_POINT ( 'NONE',  ( 7.470345474798854300E-016, 0.0000000000000000000, 6.099999999999999600 ) ) ;
#452 = CARTESIAN_POINT ( 'NONE',  ( -6.375000000000000900, 2.341376024666281400, -3.680607966083867300 ) ) ;
#453 = CARTESIAN_POINT ( 'NONE',  ( 0.0000000000000000000, 8.000000000000000000, 0.0000000000000000000 ) ) ;
#454 = PLANE ( 'NONE',  #798 ) ;
#455 = DIRECTION ( 'NONE',  ( -0.4999999999999996700, 0.0000000000000000000, -0.8660254037844388200 ) ) ;
#456 = DIRECTION ( 'NONE',  ( -0.8660254037844388200, 0.0000000000000000000, 0.4999999999999996700 ) ) ;
#457 = CARTESIAN_POINT ( 'NONE',  ( 8.849999999999997900, 0.0000000000000000000, 1.083812417245407900E-015 ) ) ;
#458 = DIRECTION ( 'NONE',  ( -0.0000000000000000000, -1.000000000000000000, -0.0000000000000000000 ) ) ;
#459 = DIRECTION ( 'NONE',  ( 0.0000000000000000000, -1.000000000000000000, 0.0000000000000000000 ) ) ;
#460 = CARTESIAN_POINT ( 'NONE',  ( 8.849999999999996100, 1.800000000000000000, 0.0000000000000000000 ) ) ;
#461 = DIRECTION ( 'NONE',  ( 0.0000000000000000000, 0.0000000000000000000, -1.000000000000000000 ) ) ;
#462 = CARTESIAN_POINT ( 'NONE',  ( 0.0000000000000000000, 0.5000000000000004400, 3.399999999999998600 ) ) ;
#463 = CARTESIAN_POINT ( 'NONE',  ( 6.374999999999998200, 7.430607966083862000, -3.680607966083869100 ) ) ;
#464 = CARTESIAN_POINT ( 'NONE',  ( 4.163799117100999100E-016, 0.5000000000000004400, -3.399999999999998600 ) ) ;
#465 = APPLICATION_CONTEXT ( 'configuration controlled 3d designs of mechanical parts and assemblies' ) ;
#466 = CARTESIAN_POINT ( 'NONE',  ( -5.853567314326088700, 7.604418861309070200, 3.981657267521965200 ) ) ;
#467 = CARTESIAN_POINT ( 'NONE',  ( -2.120038929260274700E-015, 7.430607966083862000, 7.361215932167728400 ) ) ;
#468 = DIRECTION ( 'NONE',  ( 0.0000000000000000000, 0.0000000000000000000, -1.000000000000000000 ) ) ;
#469 = DIRECTION ( 'NONE',  ( -0.0000000000000000000, -1.000000000000000000, -0.0000000000000000000 ) ) ;
#470 = CARTESIAN_POINT ( 'NONE',  ( -6.375000000000000900, 7.430607966083862000, 3.680607966083863800 ) ) ;
#471 = CARTESIAN_POINT ( 'NONE',  ( -3.187500000000000900, 8.000000000000000000, 5.520911949125795600 ) ) ;
#472 = CARTESIAN_POINT ( 'NONE',  ( -3.801331326009194800E-015, 1.800000000000000000, 0.0000000000000000000 ) ) ;
#473 = DIRECTION ( 'NONE',  ( 0.0000000000000000000, -1.000000000000000000, 0.0000000000000000000 ) ) ;
#474 = DIRECTION ( 'NONE',  ( 1.000000000000000000, 0.0000000000000000000, 0.0000000000000000000 ) ) ;
#475 = CARTESIAN_POINT ( 'NONE',  ( -3.187500000000000400, 8.000000000000000000, -5.520911949125799200 ) ) ;
#476 = CARTESIAN_POINT ( 'NONE',  ( 0.0000000000000000000, 0.0000000000000000000, 0.0000000000000000000 ) ) ;
#477 = CARTESIAN_POINT ( 'NONE',  ( 6.374999999999999100, 8.000000000000000000, -7.511572993685787300E-016 ) ) ;
#478 = DIRECTION ( 'NONE',  ( 3.624628615055125000E-020, 1.000000000000000000, -0.0000000000000000000 ) ) ;
#479 = CARTESIAN_POINT ( 'NONE',  ( -4.266861160801235000, 7.945733782857374200, 4.897742492384376000 ) ) ;
#480 = CARTESIAN_POINT ( 'NONE',  ( -6.375000000000000900, 7.430607966083862000, 3.680607966083863800 ) ) ;
#481 = CARTESIAN_POINT ( 'NONE',  ( -3.187500000000000900, 8.000000000000000000, 5.520911949125795600 ) ) ;
#482 = CARTESIAN_POINT ( 'NONE',  ( -3.730556157030949600, 8.000000000000003600, 5.207378330678893400 ) ) ;
#483 = CARTESIAN_POINT ( 'NONE',  ( 0.0000000000000000000, 0.5000000000000000000, -6.099999999999999600 ) ) ;
#484 = CARTESIAN_POINT ( 'NONE',  ( -5.328325696132995200, 7.747613304620498900, 4.284905657175343700 ) ) ;
#485 = DIRECTION ( 'NONE',  ( -1.000000000000000000, 0.0000000000000000000, 0.0000000000000000000 ) ) ;
#486 = CARTESIAN_POINT ( 'NONE',  ( 0.0000000000000000000, 10.04648480051271000, -2.830384348594538600 ) ) ;
#487 = CARTESIAN_POINT ( 'NONE',  ( 6.374999999999999100, 2.699999999999999700, 5.815220060380041500E-020 ) ) ;
#488 = CARTESIAN_POINT ( 'NONE',  ( -1.999641294747890800E-015, 2.341376024666281400, 7.361215932167728400 ) ) ;
#489 = CARTESIAN_POINT ( 'NONE',  ( 1.964491093315921500E-015, 8.000000000000000000, -7.361215932167731100 ) ) ;
#490 = CARTESIAN_POINT ( 'NONE',  ( -6.375000000000000900, 2.341376024666282300, 3.680607966083863800 ) ) ;
#491 = CARTESIAN_POINT ( 'NONE',  ( 6.374999999999998200, 8.000000000000000000, -3.680607966083869100 ) ) ;
#492 = DIRECTION ( 'NONE',  ( -0.0000000000000000000, -1.000000000000000000, -0.0000000000000000000 ) ) ;
#493 = CARTESIAN_POINT ( 'NONE',  ( -6.375000000000000900, 7.603520390830001800, -3.081621756243441800 ) ) ;
#494 = DIRECTION ( 'NONE',  ( -0.0000000000000000000, -1.000000000000000000, -0.0000000000000000000 ) ) ;
#495 = CARTESIAN_POINT ( 'NONE',  ( -5.312500000000000900, 2.543473986648655800, 4.294042627097841300 ) ) ;
#496 = CARTESIAN_POINT ( 'NONE',  ( 0.0000000000000000000, 8.000000000000000000, 4.025000000000000400 ) ) ;
#497 = DIRECTION ( 'NONE',  ( 0.0000000000000000000, 0.7071067811865473500, 0.7071067811865477900 ) ) ;
#498 = CARTESIAN_POINT ( 'NONE',  ( -6.375000000000000900, 2.452605382379089400, 3.068846498663424500 ) ) ;
#499 = CARTESIAN_POINT ( 'NONE',  ( 6.374999999999999100, 2.452605382379087200, 3.068846498663425000 ) ) ;
#500 = CARTESIAN_POINT ( 'NONE',  ( -3.187500000000000400, 2.732790621774689100, 5.520911949125795600 ) ) ;
#501 = CARTESIAN_POINT ( 'NONE',  ( -6.375000000000001800, 2.667086238568297000, 1.228617123230217400 ) ) ;
#502 = CARTESIAN_POINT ( 'NONE',  ( -6.375000000000000900, 2.700000000000001500, 7.807704866165844300E-016 ) ) ;
#503 = CARTESIAN_POINT ( 'NONE',  ( -6.375000000000000900, 8.000000000000001800, -0.6223266806795915200 ) ) ;
#504 = CARTESIAN_POINT ( 'NONE',  ( 6.374999999999996400, 2.543251066661376600, 2.455420641273227600 ) ) ;
#505 = CARTESIAN_POINT ( 'NONE',  ( -2.125000000000000900, 2.667209378225312100, 6.134346610139771400 ) ) ;
#506 = CARTESIAN_POINT ( 'NONE',  ( -6.375000000000000900, 2.341376024666282300, 3.680607966083863800 ) ) ;
#507 = CARTESIAN_POINT ( 'NONE',  ( 4.163799117100999100E-016, 8.000000000000000000, -3.399999999999998600 ) ) ;
#508 = CARTESIAN_POINT ( 'NONE',  ( -8.850000000000003200, 1.800000000000000000, 1.083812417245407700E-015 ) ) ;
#509 = APPLICATION_PROTOCOL_DEFINITION ( 'international standard', 'config_control_design', 1994, #465 ) ;
#510 = DIRECTION ( 'NONE',  ( -0.0000000000000000000, 1.000000000000000000, -0.0000000000000000000 ) ) ;
#511 = DIRECTION ( 'NONE',  ( -0.0000000000000000000, 1.000000000000000000, -0.0000000000000000000 ) ) ;
#512 = DIRECTION ( 'NONE',  ( 0.0000000000000000000, 0.0000000000000000000, 1.000000000000000000 ) ) ;
#513 = CARTESIAN_POINT ( 'NONE',  ( 6.375000000000000000, 2.667086238568295600, 1.228617123230216300 ) ) ;
#514 = CARTESIAN_POINT ( 'NONE',  ( 6.374999999999999100, 2.341376024666280000, 3.680607966083866400 ) ) ;
#515 = CARTESIAN_POINT ( 'NONE',  ( -6.375000000000000900, 7.946483161108680800, -1.240258588970067500 ) ) ;
#516 = CARTESIAN_POINT ( 'NONE',  ( -1.062500000000002200, 2.543473986648653500, 6.747781271153749900 ) ) ;
#517 = CARTESIAN_POINT ( 'NONE',  ( 0.0000000000000000000, 8.000000000000000000, 0.0000000000000000000 ) ) ;
#518 = CARTESIAN_POINT ( 'NONE',  ( -4.250000000000001800, 2.667209378225313000, 4.907477288111818900 ) ) ;
#519 = CARTESIAN_POINT ( 'NONE',  ( 7.470345474798854300E-016, 0.5000000000000000000, 6.099999999999999600 ) ) ;
#520 = DIRECTION ( 'NONE',  ( 0.0000000000000000000, -0.5000000000000011100, -0.8660254037844379300 ) ) ;
#521 = DIRECTION ( 'NONE',  ( -0.0000000000000000000, -1.000000000000000000, -0.0000000000000000000 ) ) ;
#522 = CARTESIAN_POINT ( 'NONE',  ( -6.375000000000000900, 2.543251066661378800, 2.455420641273228000 ) ) ;
#523 = CARTESIAN_POINT ( 'NONE',  ( 6.374999999999998200, 2.699999999999999700, 0.6146368262567963900 ) ) ;
#524 = CARTESIAN_POINT ( 'NONE',  ( -6.375000000000000900, 7.430607966083861100, -3.680607966083866900 ) ) ;
#525 = CARTESIAN_POINT ( 'NONE',  ( -6.375000000000000900, 8.000000000000000000, 0.0000000000000000000 ) ) ;
#526 = CARTESIAN_POINT ( 'NONE',  ( -6.375000000000000900, 7.748389381967095700, -2.468644601788828800 ) ) ;
#527 = CARTESIAN_POINT ( 'NONE',  ( -6.375000000000000900, 2.700000000000001500, 0.6146368262567987200 ) ) ;
#528 = CARTESIAN_POINT ( 'NONE',  ( -0.5312500000000020000, 2.452909599396094500, 7.054498601660738700 ) ) ;
#529 = CARTESIAN_POINT ( 'NONE',  ( -5.843750000000000000, 2.452909599396095400, 3.987325296590853400 ) ) ;
#530 = DIRECTION ( 'NONE',  ( -0.0000000000000000000, 1.000000000000000000, -0.0000000000000000000 ) ) ;
#531 = CARTESIAN_POINT ( 'NONE',  ( 0.0000000000000000000, 8.000000000000000000, 0.0000000000000000000 ) ) ;
#532 = CARTESIAN_POINT ( 'NONE',  ( 2.125000000000000000, 2.667209378225310300, -6.134346610139775000 ) ) ;
#533 = CARTESIAN_POINT ( 'NONE',  ( 5.843749999999998200, 2.452909599396093200, 3.987325296590856100 ) ) ;
#534 = CARTESIAN_POINT ( 'NONE',  ( -3.801396569324266100E-015, 3.207796324323786300E-019, 0.0000000000000000000 ) ) ;
#535 = CARTESIAN_POINT ( 'NONE',  ( 3.187500000000000900, 2.732790621774687300, -5.520911949125797400 ) ) ;
#536 = DIRECTION ( 'NONE',  ( 8.659560562354936600E-017, 0.7071067811865473500, -0.7071067811865477900 ) ) ;
#537 = CARTESIAN_POINT ( 'NONE',  ( -8.850000000000003200, 3.207796324323785800E-019, 0.0000000000000000000 ) ) ;
#538 = CARTESIAN_POINT ( 'NONE',  ( 4.929203366568097200E-016, 8.000000000000000000, -4.025000000000000400 ) ) ;
#539 = DIRECTION ( 'NONE',  ( 0.0000000000000000000, 0.0000000000000000000, 1.000000000000000000 ) ) ;
#540 = CARTESIAN_POINT ( 'NONE',  ( 3.187499999999998700, 8.000000000000000000, 5.520911949125797400 ) ) ;
#541 = DIRECTION ( 'NONE',  ( 0.0000000000000000000, 0.0000000000000000000, 1.000000000000000000 ) ) ;
#542 = CARTESIAN_POINT ( 'NONE',  ( 2.108138839198764100, 7.945733782857374200, 6.144081405867216200 ) ) ;
#543 = CARTESIAN_POINT ( 'NONE',  ( -2.120038929260274700E-015, 7.430607966083862000, 7.361215932167728400 ) ) ;
#544 = CARTESIAN_POINT ( 'NONE',  ( 0.0000000000000000000, 8.000000000000000000, 0.0000000000000000000 ) ) ;
#545 = DIRECTION ( 'NONE',  ( 0.0000000000000000000, 1.000000000000000000, 0.0000000000000000000 ) ) ;
#546 = DIRECTION ( 'NONE',  ( 0.0000000000000000000, 0.0000000000000000000, 1.000000000000000000 ) ) ;
#547 = CARTESIAN_POINT ( 'NONE',  ( 6.374999999999998200, 2.341376024666280000, -3.680607966083869100 ) ) ;
#548 = DIRECTION ( 'NONE',  ( 3.624628615055125000E-020, 1.000000000000000000, -0.0000000000000000000 ) ) ;
#549 = CARTESIAN_POINT ( 'NONE',  ( 0.5312500000000017800, 2.452909599396093700, -7.054498601660741400 ) ) ;
#550 = DIRECTION ( 'NONE',  ( 3.624628615055125000E-020, 1.000000000000000000, -0.0000000000000000000 ) ) ;
#551 = CARTESIAN_POINT ( 'NONE',  ( 1.062500000000001800, 2.543473986648652200, -6.747781271153754400 ) ) ;
#552 = CARTESIAN_POINT ( 'NONE',  ( 1.964491093315921500E-015, 2.341376024666280500, -7.361215932167731100 ) ) ;
#553 = DIRECTION ( 'NONE',  ( -1.000000000000000000, 3.624628615055125000E-020, 0.0000000000000000000 ) ) ;
#554 = DIRECTION ( 'NONE',  ( 0.0000000000000000000, 1.000000000000000000, 0.0000000000000000000 ) ) ;
#555 = DIRECTION ( 'NONE',  ( 0.0000000000000000000, 1.000000000000000000, 0.0000000000000000000 ) ) ;
#556 = CARTESIAN_POINT ( 'NONE',  ( 5.312499999999998200, 2.543473986648652700, -4.294042627097847600 ) ) ;
#557 = DIRECTION ( 'NONE',  ( 0.0000000000000000000, -1.000000000000000000, 0.0000000000000000000 ) ) ;
#558 = DIRECTION ( 'NONE',  ( 0.0000000000000000000, 0.0000000000000000000, -1.000000000000000000 ) ) ;
#559 = CARTESIAN_POINT ( 'NONE',  ( 0.5214326856739084400, 7.604418861309070200, 7.060166630729624700 ) ) ;
#560 = CARTESIAN_POINT ( 'NONE',  ( 0.0000000000000000000, 0.5000000000000000000, 0.0000000000000000000 ) ) ;
#561 = DIRECTION ( 'NONE',  ( -0.9397934234884369700, -0.3417430630867044900, 1.150915007934847000E-016 ) ) ;
#562 = CARTESIAN_POINT ( 'NONE',  ( 5.843749999999998200, 2.452909599396093700, -3.987325296590857900 ) ) ;
#563 = CARTESIAN_POINT ( 'NONE',  ( 0.0000000000000000000, 8.000000000000000000, 0.0000000000000000000 ) ) ;
#564 = CARTESIAN_POINT ( 'NONE',  ( 4.249999999999997300, 2.667209378225309900, -4.907477288111824300 ) ) ;
#565 = CARTESIAN_POINT ( 'NONE',  ( 0.0000000000000000000, 8.000000000000000000, 0.0000000000000000000 ) ) ;
#566 = CARTESIAN_POINT ( 'NONE',  ( 6.374999999999999100, 2.341376024666280000, 3.680607966083866400 ) ) ;
#567 = DIRECTION ( 'NONE',  ( 0.0000000000000000000, 0.0000000000000000000, 1.000000000000000000 ) ) ;
#568 = CARTESIAN_POINT ( 'NONE',  ( 1.046674303867003700, 7.747613304620498000, 6.756918241076250300 ) ) ;
#569 = CARTESIAN_POINT ( 'NONE',  ( 2.644443842969050000, 8.000000000000003600, 5.834445567572700500 ) ) ;
#570 = CARTESIAN_POINT ( 'NONE',  ( -1.062499999999999800, 2.543473986648653100, -6.747781271153753500 ) ) ;
#571 = CARTESIAN_POINT ( 'NONE',  ( 1.849373953278544200E-015, 7.430607966083861100, -7.361215932167731100 ) ) ;
#572 = CARTESIAN_POINT ( 'NONE',  ( -1.046674303867004800, 7.747613304620498000, -6.756918241076252100 ) ) ;
#573 = CARTESIAN_POINT ( 'NONE',  ( 1.964491093315921500E-015, 2.341376024666280500, -7.361215932167731100 ) ) ;
#574 = CARTESIAN_POINT ( 'NONE',  ( 2.916986964678176500, 8.000000000000001800, -5.677092722888157400 ) ) ;
#575 = CARTESIAN_POINT ( 'NONE',  ( 0.5312499999999987800, 2.452909599396095000, 7.054498601660739600 ) ) ;
#576 = CARTESIAN_POINT ( 'NONE',  ( -3.187499999999999600, 2.732790621774688200, -5.520911949125799200 ) ) ;
#577 = CARTESIAN_POINT ( 'NONE',  ( -3.187500000000000400, 8.000000000000000000, -5.520911949125799200 ) ) ;
#578 = DIRECTION ( 'NONE',  ( -0.0000000000000000000, 1.000000000000000000, -0.0000000000000000000 ) ) ;
#579 = CARTESIAN_POINT ( 'NONE',  ( -2.125000000000000400, 2.667209378225312600, -6.134346610139774100 ) ) ;
#580 = CARTESIAN_POINT ( 'NONE',  ( -0.5312499999999993300, 2.452909599396094100, -7.054498601660741400 ) ) ;
#581 = CARTESIAN_POINT ( 'NONE',  ( -4.534237444648390200, 7.895885830837777100, -4.743372722930303100 ) ) ;
#582 = CARTESIAN_POINT ( 'NONE',  ( -5.312500000000000900, 2.543473986648654400, -4.294042627097844900 ) ) ;
#583 = CARTESIAN_POINT ( 'NONE',  ( -6.375000000000000900, 8.000000000000000000, 3.680607966083863800 ) ) ;
#584 = CARTESIAN_POINT ( 'NONE',  ( -5.330398607009463800, 7.747111021472759900, -4.283708861522810300 ) ) ;
#585 = CARTESIAN_POINT ( 'NONE',  ( 5.312499999999999100, 2.543473986648652200, 4.294042627097844000 ) ) ;
#586 = CARTESIAN_POINT ( 'NONE',  ( 4.249999999999999100, 2.667209378225309900, 4.907477288111821600 ) ) ;
#587 = CARTESIAN_POINT ( 'NONE',  ( -3.729739057163549400, 7.986541678394384100, -5.207850083507294100 ) ) ;
#588 = CARTESIAN_POINT ( 'NONE',  ( -6.375000000000000900, 2.667254729344849200, -1.226554016583766700 ) ) ;
#589 = CARTESIAN_POINT ( 'NONE',  ( -6.375000000000000900, 2.543340617736827600, -2.454926573839083300 ) ) ;
#590 = CARTESIAN_POINT ( 'NONE',  ( -3.458013035321821700, 8.000000000000003600, -5.364731175363441000 ) ) ;
#591 = CARTESIAN_POINT ( 'NONE',  ( -4.267269865577421100, 7.934459563159761900, -4.897506526571826900 ) ) ;
#592 = DIRECTION ( 'NONE',  ( 0.0000000000000000000, 1.000000000000000000, 0.0000000000000000000 ) ) ;
#593 = CARTESIAN_POINT ( 'NONE',  ( 1.062499999999998200, 2.543473986648654000, 6.747781271153752600 ) ) ;
#594 = CARTESIAN_POINT ( 'NONE',  ( -3.187500000000000400, 8.000000000000000000, -5.520911949125799200 ) ) ;
#595 = DIRECTION ( 'NONE',  ( 0.0000000000000000000, 0.0000000000000000000, 1.000000000000000000 ) ) ;
#596 = CARTESIAN_POINT ( 'NONE',  ( -6.375000000000000900, 2.700000000000001500, 7.807704866165844300E-016 ) ) ;
#597 = CARTESIAN_POINT ( 'NONE',  ( -0.5214326856739094400, 7.604418861309070200, -7.060166630729630000 ) ) ;
#598 = CARTESIAN_POINT ( 'NONE',  ( -2.644443842969050400, 8.000000000000003600, -5.834445567572701400 ) ) ;
#599 = CARTESIAN_POINT ( 'NONE',  ( -6.375000000000000900, 7.430607966083861100, -3.680607966083866900 ) ) ;
#600 = CARTESIAN_POINT ( 'NONE',  ( -6.375000000000000900, 2.700000000000002000, -0.6129504240890738500 ) ) ;
#601 = DIRECTION ( 'NONE',  ( 0.9397934234884369700, -0.3417430630867044900, 0.0000000000000000000 ) ) ;
#602 = CARTESIAN_POINT ( 'NONE',  ( -5.854869065026279400, 7.603984944408727700, -3.980905701404796800 ) ) ;
#603 = CARTESIAN_POINT ( 'NONE',  ( 3.187500000000001300, 8.000000000000000000, -5.520911949125799200 ) ) ;
#604 = CARTESIAN_POINT ( 'NONE',  ( -5.843750000000000000, 2.452909599396095000, -3.987325296590857000 ) ) ;
#605 = CARTESIAN_POINT ( 'NONE',  ( -2.108138839198764500, 7.945733782857374200, -6.144081405867219700 ) ) ;
#606 = CARTESIAN_POINT ( 'NONE',  ( 3.187500000000000000, 2.732790621774688200, 5.520911949125794700 ) ) ;
#607 = CARTESIAN_POINT ( 'NONE',  ( 2.124999999999997300, 2.667209378225312100, 6.134346610139775000 ) ) ;
#608 = CARTESIAN_POINT ( 'NONE',  ( -1.999641294747890800E-015, 2.341376024666281400, 7.361215932167728400 ) ) ;
#609 = CARTESIAN_POINT ( 'NONE',  ( 0.0000000000000000000, 7.374999999999999100, 0.0000000000000000000 ) ) ;
#610 = CARTESIAN_POINT ( 'NONE',  ( -4.249999999999999100, 2.667209378225311700, -4.907477288111822500 ) ) ;
#611 = DIRECTION ( 'NONE',  ( -0.0000000000000000000, -1.000000000000000000, -0.0000000000000000000 ) ) ;
#612 = DIRECTION ( 'NONE',  ( 0.0000000000000000000, 0.0000000000000000000, 1.000000000000000000 ) ) ;
#613 = CARTESIAN_POINT ( 'NONE',  ( 0.0000000000000000000, 8.000000000000000000, 0.0000000000000000000 ) ) ;
#614 = CARTESIAN_POINT ( 'NONE',  ( -6.375000000000000900, 2.341376024666281400, -3.680607966083867300 ) ) ;
#615 = CARTESIAN_POINT ( 'NONE',  ( 8.849999999999996100, 1.800000000000000000, 0.0000000000000000000 ) ) ;
#616 = CARTESIAN_POINT ( 'NONE',  ( -6.375000000000000900, 2.341376024666281400, -3.680607966083867300 ) ) ;
#617 = CARTESIAN_POINT ( 'NONE',  ( 1.044601392990536400, 7.747111021472760800, -6.758115036728786300 ) ) ;
#618 = CARTESIAN_POINT ( 'NONE',  ( 1.849373953278544200E-015, 7.430607966083861100, -7.361215932167731100 ) ) ;
#619 = DIRECTION ( 'NONE',  ( 3.624628615055125000E-020, 1.000000000000000000, -0.0000000000000000000 ) ) ;
#620 = CARTESIAN_POINT ( 'NONE',  ( 3.187500000000001300, 8.000000000000000000, -5.520911949125799200 ) ) ;
#621 = CARTESIAN_POINT ( 'NONE',  ( -6.375000000000000900, 8.000000000000000000, -3.680607966083867300 ) ) ;
#622 = CARTESIAN_POINT ( 'NONE',  ( 4.266861160801233200, 7.945733782857376000, -4.897742492384380400 ) ) ;
#623 = DIRECTION ( 'NONE',  ( 0.0000000000000000000, -1.000000000000000000, 0.0000000000000000000 ) ) ;
#624 = CARTESIAN_POINT ( 'NONE',  ( -6.375000000000000900, 7.999999999999998200, 0.6227446331890377200 ) ) ;
#625 = CARTESIAN_POINT ( 'NONE',  ( 0.0000000000000000000, 0.5000000000000000000, 0.0000000000000000000 ) ) ;
#626 = CARTESIAN_POINT ( 'NONE',  ( 0.5201309349737214300, 7.603984944408727700, -7.060918196846803800 ) ) ;
#627 = CARTESIAN_POINT ( 'NONE',  ( 2.107730134422575800, 7.934459563159758300, -6.144317371679769700 ) ) ;
#628 = DIRECTION ( 'NONE',  ( 0.0000000000000000000, -1.000000000000000000, 0.0000000000000000000 ) ) ;
#629 = CARTESIAN_POINT ( 'NONE',  ( 3.730556157030948700, 8.000000000000001800, -5.207378330678897900 ) ) ;
#630 = CARTESIAN_POINT ( 'NONE',  ( 5.328325696132994300, 7.747613304620498900, -4.284905657175348100 ) ) ;
#631 = CARTESIAN_POINT ( 'NONE',  ( 1.840762555351611800, 7.895885830837775300, -6.298451175321295300 ) ) ;
#632 = DIRECTION ( 'NONE',  ( 0.0000000000000000000, 0.0000000000000000000, -1.000000000000000000 ) ) ;
#633 = CARTESIAN_POINT ( 'NONE',  ( 0.0000000000000000000, 8.000000000000000000, 3.399999999999998600 ) ) ;
#634 = DIRECTION ( 'NONE',  ( -0.0000000000000000000, 1.000000000000000000, -0.0000000000000000000 ) ) ;
#635 = CARTESIAN_POINT ( 'NONE',  ( -6.375000000000000900, 7.745471852432010500, 2.482517708051645800 ) ) ;
#636 = DIRECTION ( 'NONE',  ( -0.0000000000000000000, -1.000000000000000000, -0.0000000000000000000 ) ) ;
#637 = CARTESIAN_POINT ( 'NONE',  ( -6.375000000000000900, 2.452197971845772700, -3.071087256596665100 ) ) ;
#638 = CARTESIAN_POINT ( 'NONE',  ( 6.374999999999998200, 7.430607966083862000, -3.680607966083869100 ) ) ;
#639 = CARTESIAN_POINT ( 'NONE',  ( 2.645260942836450600, 7.986541678394382300, -5.833973814744303400 ) ) ;
#640 = CARTESIAN_POINT ( 'NONE',  ( -6.375000000000000900, 8.000000000000000000, 0.0000000000000000000 ) ) ;
#641 = CARTESIAN_POINT ( 'NONE',  ( -6.375000000000000900, 7.430607966083862000, 3.680607966083863800 ) ) ;
#642 = CARTESIAN_POINT ( 'NONE',  ( 0.0000000000000000000, 0.5000000000000004400, 0.0000000000000000000 ) ) ;
#643 = CARTESIAN_POINT ( 'NONE',  ( -6.375000000000000900, 7.602431723040004000, 3.085393012093057100 ) ) ;
#644 = DIRECTION ( 'NONE',  ( 0.0000000000000000000, 0.0000000000000000000, -1.000000000000000000 ) ) ;
#645 = CARTESIAN_POINT ( 'NONE',  ( -6.375000000000000900, 7.944976644462257400, 1.253726279987043200 ) ) ;
#646 = CARTESIAN_POINT ( 'NONE',  ( 5.853567314326087800, 7.604418861309070200, -3.981657267521969200 ) ) ;
#647 = CARTESIAN_POINT ( 'NONE',  ( 8.849999999999996100, -3.207796324323785800E-019, 1.083812417245407700E-015 ) ) ;
#648 = CARTESIAN_POINT ( 'NONE',  ( 0.0000000000000000000, 0.0000000000000000000, 0.0000000000000000000 ) ) ;
#649 = CARTESIAN_POINT ( 'NONE',  ( 6.374999999999998200, 7.748389381967093900, -2.468644601788831100 ) ) ;
#650 = DIRECTION ( 'NONE',  ( 0.0000000000000000000, 0.0000000000000000000, -1.000000000000000000 ) ) ;
#651 = CARTESIAN_POINT ( 'NONE',  ( 6.374999999999998200, 2.452197971845771400, -3.071087256596667800 ) ) ;
#652 = CARTESIAN_POINT ( 'NONE',  ( 0.0000000000000000000, 8.000000000000000000, 0.0000000000000000000 ) ) ;
#653 = CARTESIAN_POINT ( 'NONE',  ( 0.0000000000000000000, 0.5000000000000004400, 0.0000000000000000000 ) ) ;
#654 = DIRECTION ( 'NONE',  ( 0.0000000000000000000, 1.000000000000000000, 0.0000000000000000000 ) ) ;
#655 = CARTESIAN_POINT ( 'NONE',  ( 6.374999999999999100, 8.000000000000000000, -7.511572993685787300E-016 ) ) ;
#656 = CARTESIAN_POINT ( 'NONE',  ( -2.645260942836452000, 7.986541678394382300, 5.833973814744300800 ) ) ;
#657 = DIRECTION ( 'NONE',  ( 3.624628615055125000E-020, 1.000000000000000000, -0.0000000000000000000 ) ) ;
#658 = CARTESIAN_POINT ( 'NONE',  ( -2.916986964678177400, 8.000000000000003600, 5.677092722888154700 ) ) ;
#659 = CARTESIAN_POINT ( 'NONE',  ( 3.729739057163548000, 7.986541678394384100, 5.207850083507293200 ) ) ;
#660 = CARTESIAN_POINT ( 'NONE',  ( -1.999641294747890800E-015, 8.000000000000000000, 7.361215932167728400 ) ) ;
#661 = DIRECTION ( 'NONE',  ( -0.0000000000000000000, -1.000000000000000000, -0.0000000000000000000 ) ) ;
#662 = CARTESIAN_POINT ( 'NONE',  ( 6.374999999999998200, 2.341376024666280000, -3.680607966083869100 ) ) ;
#663 = CARTESIAN_POINT ( 'NONE',  ( 6.374999999999999100, 2.667254729344846100, -1.226554016583770300 ) ) ;
#664 = DIRECTION ( 'NONE',  ( 0.0000000000000000000, -1.000000000000000000, 0.0000000000000000000 ) ) ;
#665 = CARTESIAN_POINT ( 'NONE',  ( 6.374999999999998200, 8.000000000000000000, -0.6223266806795914000 ) ) ;
#666 = CARTESIAN_POINT ( 'NONE',  ( -3.801396569324266100E-015, 3.207796324323786300E-019, 0.0000000000000000000 ) ) ;
#667 = CARTESIAN_POINT ( 'NONE',  ( 6.374999999999998200, 7.430607966083862000, -3.680607966083869100 ) ) ;
#668 = CARTESIAN_POINT ( 'NONE',  ( -3.187500000000000900, 8.000000000000000000, 5.520911949125795600 ) ) ;
#669 = CARTESIAN_POINT ( 'NONE',  ( 6.374999999999999100, 8.000000000000000000, 3.680607966083866400 ) ) ;
#670 = CARTESIAN_POINT ( 'NONE',  ( 3.187499999999998700, 8.000000000000000000, 5.520911949125797400 ) ) ;
#671 = CARTESIAN_POINT ( 'NONE',  ( 6.374999999999998200, 7.603520390830005300, -3.081621756243443600 ) ) ;
#672 = CARTESIAN_POINT ( 'NONE',  ( -1.044601392990537300, 7.747111021472762500, 6.758115036728784600 ) ) ;
#673 = CARTESIAN_POINT ( 'NONE',  ( -0.5201309349737225400, 7.603984944408730400, 7.060918196846802000 ) ) ;
#674 = CARTESIAN_POINT ( 'NONE',  ( -2.107730134422576700, 7.934459563159758300, 6.144317371679766100 ) ) ;
#675 = CARTESIAN_POINT ( 'NONE',  ( -2.120038929260274700E-015, 7.430607966083862000, 7.361215932167728400 ) ) ;
#676 = CARTESIAN_POINT ( 'NONE',  ( 4.534237444648387500, 7.895885830837778800, 4.743372722930301300 ) ) ;
#677 = CARTESIAN_POINT ( 'NONE',  ( 6.374999999999999100, 2.699999999999999700, 5.815220060380041500E-020 ) ) ;
#678 = CARTESIAN_POINT ( 'NONE',  ( 5.854869065026277600, 7.603984944408726000, 3.980905701404795900 ) ) ;
#679 = DIRECTION ( 'NONE',  ( -1.000000000000000000, 3.624628615055125000E-020, 0.0000000000000000000 ) ) ;
#680 = CARTESIAN_POINT ( 'NONE',  ( 0.0000000000000000000, 7.374999999999999100, 0.0000000000000000000 ) ) ;
#681 = DIRECTION ( 'NONE',  ( -0.0000000000000000000, 1.000000000000000000, -0.0000000000000000000 ) ) ;
#682 = CARTESIAN_POINT ( 'NONE',  ( 6.374999999999999100, 7.430607966083862000, 3.680607966083866900 ) ) ;
#683 = DIRECTION ( 'NONE',  ( 0.0000000000000000000, 0.0000000000000000000, 1.000000000000000000 ) ) ;
#684 = DIRECTION ( 'NONE',  ( 0.0000000000000000000, 0.0000000000000000000, -1.000000000000000000 ) ) ;
#685 = CARTESIAN_POINT ( 'NONE',  ( 6.374999999999999100, 2.699999999999999700, -0.6129504240890769600 ) ) ;
#686 = DIRECTION ( 'NONE',  ( 0.0000000000000000000, 0.0000000000000000000, 1.000000000000000000 ) ) ;
#687 = CARTESIAN_POINT ( 'NONE',  ( 6.374999999999999100, 7.946483161108687900, -1.240258588970069200 ) ) ;
#688 = CARTESIAN_POINT ( 'NONE',  ( 4.267269865577422800, 7.934459563159761900, 4.897506526571826100 ) ) ;
#689 = CARTESIAN_POINT ( 'NONE',  ( 5.330398607009464700, 7.747111021472761600, 4.283708861522810300 ) ) ;
#690 = CARTESIAN_POINT ( 'NONE',  ( 6.374999999999999100, 7.430607966083862000, 3.680607966083866900 ) ) ;
#691 = CARTESIAN_POINT ( 'NONE',  ( 6.374999999999998200, 7.602431723040003100, 3.085393012093058800 ) ) ;
#692 = DIRECTION ( 'NONE',  ( 0.0000000000000000000, -1.000000000000000000, 0.0000000000000000000 ) ) ;
#693 = CARTESIAN_POINT ( 'NONE',  ( 6.374999999999999100, 2.543340617736826300, -2.454926573839087300 ) ) ;
#694 = CARTESIAN_POINT ( 'NONE',  ( -1.840762555351612500, 7.895885830837778800, 6.298451175321292600 ) ) ;
#695 = CARTESIAN_POINT ( 'NONE',  ( 3.458013035321822600, 8.000000000000007100, 5.364731175363441900 ) ) ;
#696 = CARTESIAN_POINT ( 'NONE',  ( 6.374999999999996400, 7.944976644462255600, 1.253726279987045200 ) ) ;
#697 = DIRECTION ( 'NONE',  ( 3.624628615055125000E-020, 1.000000000000000000, -0.0000000000000000000 ) ) ;
#698 = CARTESIAN_POINT ( 'NONE',  ( 0.0000000000000000000, 8.000000000000000000, 0.0000000000000000000 ) ) ;
#699 = DIRECTION ( 'NONE',  ( -1.000000000000000000, 0.0000000000000000000, 0.0000000000000000000 ) ) ;
#700 = CARTESIAN_POINT ( 'NONE',  ( -3.801331326009194800E-015, 1.800000000000000000, 0.0000000000000000000 ) ) ;
#701 = CARTESIAN_POINT ( 'NONE',  ( 6.374999999999999100, 8.000000000000000000, -7.511572993685787300E-016 ) ) ;
#702 = DIRECTION ( 'NONE',  ( 0.0000000000000000000, 0.0000000000000000000, 1.000000000000000000 ) ) ;
#703 = DIRECTION ( 'NONE',  ( 0.0000000000000000000, 1.000000000000000000, 0.0000000000000000000 ) ) ;
#704 = CARTESIAN_POINT ( 'NONE',  ( 0.0000000000000000000, 0.0000000000000000000, 0.0000000000000000000 ) ) ;
#705 = DIRECTION ( 'NONE',  ( -0.0000000000000000000, -1.000000000000000000, -0.0000000000000000000 ) ) ;
#706 = DIRECTION ( 'NONE',  ( 0.0000000000000000000, 0.0000000000000000000, 1.000000000000000000 ) ) ;
#707 = CARTESIAN_POINT ( 'NONE',  ( 6.375000000000000000, 7.745471852432011400, 2.482517708051649800 ) ) ;
#708 = CARTESIAN_POINT ( 'NONE',  ( 6.374999999999999100, 8.000000000000001800, 0.6227446331890387200 ) ) ;
#709 = CARTESIAN_POINT ( 'NONE',  ( 0.0000000000000000000, 8.000000000000000000, 0.0000000000000000000 ) ) ;
#710 = DIRECTION ( 'NONE',  ( 0.0000000000000000000, 1.000000000000000000, 0.0000000000000000000 ) ) ;
#711 =( NAMED_UNIT ( * ) PLANE_ANGLE_UNIT ( ) SI_UNIT ( $, .RADIAN. ) );
#712 = CARTESIAN_POINT ( 'NONE',  ( -3.801396569324266100E-015, 0.0000000000000000000, 0.0000000000000000000 ) ) ;
#713 = PLANE ( 'NONE',  #780 ) ;
#714 = PLANE ( 'NONE',  #796 ) ;
#715 = DIRECTION ( 'NONE',  ( 1.000000000000000000, 0.0000000000000000000, 0.0000000000000000000 ) ) ;
#716 = CARTESIAN_POINT ( 'NONE',  ( 0.0000000000000000000, 0.0000000000000000000, 0.0000000000000000000 ) ) ;
#717 = CARTESIAN_POINT ( 'NONE',  ( 0.0000000000000000000, 10.04648480051271000, 0.0000000000000000000 ) ) ;
#718 = DIRECTION ( 'NONE',  ( 0.0000000000000000000, -0.0000000000000000000, 1.000000000000000000 ) ) ;
#719 = DIRECTION ( 'NONE',  ( 0.0000000000000000000, -1.000000000000000000, 0.0000000000000000000 ) ) ;
#720 = DIRECTION ( 'NONE',  ( 0.0000000000000000000, 1.000000000000000000, 0.0000000000000000000 ) ) ;
#721 = DIRECTION ( 'NONE',  ( 0.0000000000000000000, -0.0000000000000000000, 1.000000000000000000 ) ) ;
#722 = PLANE ( 'NONE',  #785 ) ;
#723 = DIRECTION ( 'NONE',  ( 0.0000000000000000000, -0.0000000000000000000, -1.000000000000000000 ) ) ;
#724 = DIRECTION ( 'NONE',  ( 3.624628615055125000E-020, 1.000000000000000000, -0.0000000000000000000 ) ) ;
#725 = DIRECTION ( 'NONE',  ( 0.0000000000000000000, 1.000000000000000000, 0.0000000000000000000 ) ) ;
#726 = CARTESIAN_POINT ( 'NONE',  ( -6.375000000000000900, 8.000000000000000000, -3.680607966083867300 ) ) ;
#727 = DIRECTION ( 'NONE',  ( 0.0000000000000000000, 0.0000000000000000000, -1.000000000000000000 ) ) ;
#728 = DIRECTION ( 'NONE',  ( -1.000000000000000000, 3.624628615055125000E-020, 0.0000000000000000000 ) ) ;
#729 = DIRECTION ( 'NONE',  ( 0.0000000000000000000, 0.0000000000000000000, -1.000000000000000000 ) ) ;
#730 = CARTESIAN_POINT ( 'NONE',  ( 0.0000000000000000000, 0.5000000000000000000, 0.0000000000000000000 ) ) ;
#731 = PLANE ( 'NONE',  #818 ) ;
#732 = CARTESIAN_POINT ( 'NONE',  ( 0.0000000000000000000, 8.000000000000000000, 0.0000000000000000000 ) ) ;
#733 = DIRECTION ( 'NONE',  ( 0.0000000000000000000, 0.0000000000000000000, 1.000000000000000000 ) ) ;
#734 =( LENGTH_UNIT ( ) NAMED_UNIT ( * ) SI_UNIT ( .MILLI., .METRE. ) );
#735 = DIRECTION ( 'NONE',  ( 0.0000000000000000000, -1.000000000000000000, 0.0000000000000000000 ) ) ;
#736 = EDGE_CURVE ( 'NONE', #53, #58, #267, .T. ) ;
#737 = EDGE_CURVE ( 'NONE', #83, #58, #272, .T. ) ;
#738 = EDGE_CURVE ( 'NONE', #190, #229, #40, .T. ) ;
#739 = EDGE_CURVE ( 'NONE', #82, #60, #252, .T. ) ;
#740 = EDGE_CURVE ( 'NONE', #78, #102, #278, .T. ) ;
#741 = EDGE_CURVE ( 'NONE', #77, #67, #274, .T. ) ;
#742 = EDGE_CURVE ( 'NONE', #80, #88, #38, .T. ) ;
#743 = EDGE_CURVE ( 'NONE', #84, #72, #36, .T. ) ;
#744 = EDGE_CURVE ( 'NONE', #61, #54, #33, .T. ) ;
#745 = EDGE_CURVE ( 'NONE', #74, #79, #254, .T. ) ;
#746 = EDGE_CURVE ( 'NONE', #67, #81, #283, .T. ) ;
#747 = EDGE_CURVE ( 'NONE', #66, #102, #287, .T. ) ;
#748 = EDGE_CURVE ( 'NONE', #54, #103, #47, .T. ) ;
#749 = EDGE_CURVE ( 'NONE', #73, #53, #243, .T. ) ;
#750 = EDGE_CURVE ( 'NONE', #63, #104, #289, .T. ) ;
#751 = EDGE_CURVE ( 'NONE', #59, #75, #291, .T. ) ;
#752 = EDGE_CURVE ( 'NONE', #103, #82, #294, .T. ) ;
#753 = EDGE_CURVE ( 'NONE', #81, #79, #27, .T. ) ;
#754 = EDGE_CURVE ( 'NONE', #75, #78, #244, .T. ) ;
#755 = EDGE_CURVE ( 'NONE', #199, #230, #299, .T. ) ;
#756 = EDGE_CURVE ( 'NONE', #83, #73, #300, .T. ) ;
#757 = EDGE_CURVE ( 'NONE', #72, #229, #301, .T. ) ;
#758 = EDGE_CURVE ( 'NONE', #189, #199, #39, .T. ) ;
#759 = EDGE_CURVE ( 'NONE', #102, #78, #303, .T. ) ;
#760 = EDGE_CURVE ( 'NONE', #230, #69, #302, .T. ) ;
#761 = EDGE_CURVE ( 'NONE', #63, #82, #315, .T. ) ;
#762 = EDGE_CURVE ( 'NONE', #88, #61, #41, .T. ) ;
#763 = EDGE_CURVE ( 'NONE', #75, #66, #307, .T. ) ;
#764 = EDGE_CURVE ( 'NONE', #67, #105, #35, .T. ) ;
#765 = EDGE_CURVE ( 'NONE', #77, #105, #297, .T. ) ;
#766 = EDGE_CURVE ( 'NONE', #98, #81, #42, .T. ) ;
#767 = EDGE_CURVE ( 'NONE', #80, #60, #305, .T. ) ;
#768 = EDGE_CURVE ( 'NONE', #105, #84, #31, .T. ) ;
#769 = EDGE_CURVE ( 'NONE', #190, #54, #308, .T. ) ;
#770 = EDGE_CURVE ( 'NONE', #103, #98, #43, .T. ) ;
#771 = EDGE_CURVE ( 'NONE', #69, #67, #28, .T. ) ;
#772 = EDGE_CURVE ( 'NONE', #55, #59, #306, .T. ) ;
#773 = EDGE_CURVE ( 'NONE', #55, #66, #310, .T. ) ;
#774 = EDGE_CURVE ( 'NONE', #74, #69, #29, .T. ) ;
#775 = EDGE_CURVE ( 'NONE', #104, #60, #312, .T. ) ;
#776 = EDGE_CURVE ( 'NONE', #84, #98, #314, .T. ) ;
#777 = EDGE_CURVE ( 'NONE', #72, #190, #46, .T. ) ;
#778 = EDGE_CURVE ( 'NONE', #73, #83, #326, .T. ) ;
#779 = AXIS2_PLACEMENT_3D ( 'NONE', #376, #373, #381 ) ;
#780 = AXIS2_PLACEMENT_3D ( 'NONE', #732, #720, #721 ) ;
#781 = EDGE_CURVE ( 'NONE', #104, #63, #323, .T. ) ;
#782 = AXIS2_PLACEMENT_3D ( 'NONE', #385, #411, #382 ) ;
#783 = AXIS2_PLACEMENT_3D ( 'NONE', #371, #369, #388 ) ;
#784 = AXIS2_PLACEMENT_3D ( 'NONE', #428, #419, #461 ) ;
#785 = AXIS2_PLACEMENT_3D ( 'NONE', #716, #725, #718 ) ;
#786 = AXIS2_PLACEMENT_3D ( 'NONE', #397, #413, #415 ) ;
#787 = EDGE_CURVE ( 'NONE', #58, #53, #322, .T. ) ;
#788 = EDGE_CURVE ( 'NONE', #230, #74, #30, .T. ) ;
#789 = AXIS2_PLACEMENT_3D ( 'NONE', #427, #458, #447 ) ;
#790 = AXIS2_PLACEMENT_3D ( 'NONE', #379, #399, #387 ) ;
#791 = AXIS2_PLACEMENT_3D ( 'NONE', #439, #459, #440 ) ;
#792 = AXIS2_PLACEMENT_3D ( 'NONE', #517, #511, #512 ) ;
#793 = EDGE_CURVE ( 'NONE', #59, #55, #320, .T. ) ;
#794 = EDGE_CURVE ( 'NONE', #79, #80, #34, .T. ) ;
#795 = AXIS2_PLACEMENT_3D ( 'NONE', #717, #719, #729 ) ;
#796 = AXIS2_PLACEMENT_3D ( 'NONE', #730, #735, #723 ) ;
#797 = EDGE_CURVE ( 'NONE', #105, #72, #325, .T. ) ;
#798 = AXIS2_PLACEMENT_3D ( 'NONE', #443, #455, #456 ) ;
#799 = EDGE_CURVE ( 'NONE', #229, #189, #44, .T. ) ;
#800 = AXIS2_PLACEMENT_3D ( 'NONE', #390, #404, #412 ) ;
#801 = EDGE_CURVE ( 'NONE', #199, #52, #45, .T. ) ;
#802 = AXIS2_PLACEMENT_3D ( 'NONE', #405, #377, #395 ) ;
#803 = EDGE_CURVE ( 'NONE', #189, #61, #324, .T. ) ;
#804 = EDGE_CURVE ( 'NONE', #66, #75, #329, .T. ) ;
#805 = AXIS2_PLACEMENT_3D ( 'NONE', #476, #473, #468 ) ;
#806 = AXIS2_PLACEMENT_3D ( 'NONE', #392, #400, #401 ) ;
#807 = AXIS2_PLACEMENT_3D ( 'NONE', #472, #478, #485 ) ;
#808 = AXIS2_PLACEMENT_3D ( 'NONE', #393, #375, #398 ) ;
#809 = AXIS2_PLACEMENT_3D ( 'NONE', #534, #550, #553 ) ;
#810 = AXIS2_PLACEMENT_3D ( 'NONE', #563, #545, #567 ) ;
#811 = AXIS2_PLACEMENT_3D ( 'NONE', #406, #383, #389 ) ;
#812 = AXIS2_PLACEMENT_3D ( 'NONE', #396, #370, #386 ) ;
#813 = AXIS2_PLACEMENT_3D ( 'NONE', #372, #374, #409 ) ;
#814 = AXIS2_PLACEMENT_3D ( 'NONE', #437, #438, #449 ) ;
#815 = AXIS2_PLACEMENT_3D ( 'NONE', #565, #554, #541 ) ;
#816 = AXIS2_PLACEMENT_3D ( 'NONE', #560, #557, #558 ) ;
#817 = AXIS2_PLACEMENT_3D ( 'NONE', #531, #530, #539 ) ;
#818 = AXIS2_PLACEMENT_3D ( 'NONE', #726, #715, #727 ) ;
#819 = AXIS2_PLACEMENT_3D ( 'NONE', #544, #555, #546 ) ;
#820 = AXIS2_PLACEMENT_3D ( 'NONE', #609, #578, #612 ) ;
#821 = AXIS2_PLACEMENT_3D ( 'NONE', #642, #623, #644 ) ;
#822 = EDGE_CURVE ( 'NONE', #60, #82, #330, .T. ) ;
#823 = AXIS2_PLACEMENT_3D ( 'NONE', #625, #628, #632 ) ;
#824 = AXIS2_PLACEMENT_3D ( 'NONE', #666, #657, #679 ) ;
#825 = AXIS2_PLACEMENT_3D ( 'NONE', #378, #384, #408 ) ;
#826 = EDGE_CURVE ( 'NONE', #52, #230, #32, .T. ) ;
#827 = EDGE_CURVE ( 'NONE', #69, #77, #327, .T. ) ;
#828 = AXIS2_PLACEMENT_3D ( 'NONE', #453, #442, #416 ) ;
#829 = AXIS2_PLACEMENT_3D ( 'NONE', #391, #380, #368 ) ;
#830 = EDGE_CURVE ( 'NONE', #52, #88, #317, .T. ) ;
#831 = AXIS2_PLACEMENT_3D ( 'NONE', #712, #724, #728 ) ;
#832 = AXIS2_PLACEMENT_3D ( 'NONE', #613, #592, #595 ) ;
#833 = EDGE_CURVE ( 'NONE', #229, #199, #319, .T. ) ;
#834 = CC_DESIGN_PERSON_AND_ORGANIZATION_ASSIGNMENT ( #361, #871, ( #838 ) ) ;
#835 = PRODUCT_DEFINITION ( 'UNKNOWN', '', #855, #878 ) ;
#836 = CC_DESIGN_PERSON_AND_ORGANIZATION_ASSIGNMENT ( #342, #866, ( #855 ) ) ;
#837 = CC_DESIGN_APPROVAL ( #858, ( #835 ) ) ;
#838 = SECURITY_CLASSIFICATION ( '', '', #865 ) ;
#839 = AXIS2_PLACEMENT_3D ( 'NONE', #709, #710, #733 ) ;
#840 = AXIS2_PLACEMENT_3D ( 'NONE', #648, #664, #650 ) ;
#841 = AXIS2_PLACEMENT_3D ( 'NONE', #704, #706, #474 ) ;
#842 = CC_DESIGN_PERSON_AND_ORGANIZATION_ASSIGNMENT ( #348, #867, ( #880 ) ) ;
#843 = CC_DESIGN_DATE_AND_TIME_ASSIGNMENT ( #332, #862, ( #835 ) ) ;
#844 = AXIS2_PLACEMENT_3D ( 'NONE', #652, #654, #686 ) ;
#845 = AXIS2_PLACEMENT_3D ( 'NONE', #680, #681, #683 ) ;
#846 = CC_DESIGN_PERSON_AND_ORGANIZATION_ASSIGNMENT ( #331, #872, ( #835 ) ) ;
#847 = CC_DESIGN_PERSON_AND_ORGANIZATION_ASSIGNMENT ( #356, #863, ( #855 ) ) ;
#848 = PRODUCT_RELATED_PRODUCT_CATEGORY ( 'detail', '', ( #880 ) ) ;
#849 = AXIS2_PLACEMENT_3D ( 'NONE', #653, #692, #684 ) ;
#850 = CC_DESIGN_SECURITY_CLASSIFICATION ( #838, ( #855 ) ) ;
#851 = CC_DESIGN_APPROVAL ( #860, ( #838 ) ) ;
#852 = APPROVAL ( #869, 'UNSPECIFIED' ) ;
#853 = CC_DESIGN_DATE_AND_TIME_ASSIGNMENT ( #353, #874, ( #838 ) ) ;
#854 = AXIS2_PLACEMENT_3D ( 'NONE', #698, #703, #702 ) ;
#855 = PRODUCT_DEFINITION_FORMATION_WITH_SPECIFIED_SOURCE ( 'ANY', '', #880, .NOT_KNOWN. ) ;
#856 = AXIS2_PLACEMENT_3D ( 'NONE', #700, #697, #699 ) ;
#857 =( GEOMETRIC_REPRESENTATION_CONTEXT ( 3 ) GLOBAL_UNCERTAINTY_ASSIGNED_CONTEXT ( ( #367 ) ) GLOBAL_UNIT_ASSIGNED_CONTEXT ( ( #734, #711, #394 ) ) REPRESENTATION_CONTEXT ( 'NONE', 'WORKASPACE' ) );
#858 = APPROVAL ( #873, 'UNSPECIFIED' ) ;
#859 = CC_DESIGN_APPROVAL ( #852, ( #855 ) ) ;
#860 = APPROVAL ( #876, 'UNSPECIFIED' ) ;
#861 = APPROVAL_ROLE ( '' ) ;
#862 = DATE_TIME_ROLE ( 'creation_date' ) ;
#863 = PERSON_AND_ORGANIZATION_ROLE ( 'design_supplier' ) ;
#864 = APPROVAL_ROLE ( '' ) ;
#865 = SECURITY_CLASSIFICATION_LEVEL ( 'unclassified' ) ;
#866 = PERSON_AND_ORGANIZATION_ROLE ( 'creator' ) ;
#867 = PERSON_AND_ORGANIZATION_ROLE ( 'design_owner' ) ;
#868 = APPLICATION_CONTEXT ( 'configuration controlled 3d designs of mechanical parts and assemblies' ) ;
#869 = APPROVAL_STATUS ( 'not_yet_approved' ) ;
#870 = APPROVAL_ROLE ( '' ) ;
#871 = PERSON_AND_ORGANIZATION_ROLE ( 'classification_officer' ) ;
#872 = PERSON_AND_ORGANIZATION_ROLE ( 'creator' ) ;
#873 = APPROVAL_STATUS ( 'not_yet_approved' ) ;
#874 = DATE_TIME_ROLE ( 'classification_date' ) ;
#875 = APPLICATION_PROTOCOL_DEFINITION ( 'international standard', 'config_control_design', 1994, #868 ) ;
#876 = APPROVAL_STATUS ( 'not_yet_approved' ) ;
#877 = PRODUCT_DEFINITION_SHAPE ( 'NONE', 'NONE',  #835 ) ;
#878 = DESIGN_CONTEXT ( 'detailed design', #868, 'design' ) ;
#879 = PERSON ( 'UNSPECIFIED', 'UNSPECIFIED', 'UNSPECIFIED', ('UNSPECIFIED'), ('UNSPECIFIED'), ('UNSPECIFIED') ) ;
#880 = PRODUCT ( 'ALP0823', 'ALP0823', '', ( #410 ) ) ;
ENDSEC;
END-ISO-10303-21;
