ISO-10303-21;
HEADER;
FILE_DESCRIPTION (( 'STEP AP203' ),
    '1' );
FILE_NAME ('ALP2460.STEP',
    '2018-06-21T07:44:44',
    ( '' ),
    ( '' ),
    'SwSTEP 2.0',
    'SolidWorks 2016',
    '' );
FILE_SCHEMA (( 'CONFIG_CONTROL_DESIGN' ));
ENDSEC;

DATA;
#1 = VERTEX_POINT ( 'NONE', #526 ) ;
#2 = MANIFOLD_SOLID_BREP ( 'Mirror1', #218 ) ;
#3 = ORIENTED_EDGE ( 'NONE', *, *, #167, .F. ) ;
#4 = CARTESIAN_POINT ( 'NONE',  ( -60.00000000000000000, 0.0000000000000000000, 0.0000000000000000000 ) ) ;
#5 = AXIS2_PLACEMENT_3D ( 'NONE', #106, #470, #150 ) ;
#6 = ADVANCED_FACE ( 'NONE', ( #412 ), #8, .F. ) ;
#7 = VECTOR ( 'NONE', #441, 1000.000000000000000 ) ;
#8 = CYLINDRICAL_SURFACE ( 'NONE', #334, 4.249999999999996400 ) ;
#9 = ORIENTED_EDGE ( 'NONE', *, *, #556, .T. ) ;
#10 = ORIENTED_EDGE ( 'NONE', *, *, #384, .F. ) ;
#11 = CC_DESIGN_PERSON_AND_ORGANIZATION_ASSIGNMENT ( #467, #574, ( #435 ) ) ;
#12 = DIRECTION ( 'NONE',  ( -0.7071067811865511300, 0.0000000000000000000, 0.7071067811865439100 ) ) ;
#13 = UNCERTAINTY_MEASURE_WITH_UNIT (LENGTH_MEASURE( 1.000000000000000100E-005 ), #159, 'distance_accuracy_value', 'NONE');
#14 = AXIS2_PLACEMENT_3D ( 'NONE', #322, #502, #229 ) ;
#15 = VECTOR ( 'NONE', #533, 1000.000000000000000 ) ;
#16 = ADVANCED_FACE ( 'NONE', ( #224 ), #497, .F. ) ;
#17 = ORIENTED_EDGE ( 'NONE', *, *, #230, .F. ) ;
#18 = ORIENTED_EDGE ( 'NONE', *, *, #372, .F. ) ;
#19 = DIRECTION ( 'NONE',  ( 1.000000000000000000, -0.0000000000000000000, -0.0000000000000000000 ) ) ;
#20 = AXIS2_PLACEMENT_3D ( 'NONE', #498, #346, #403 ) ;
#21 = CALENDAR_DATE ( 2018, 21, 6 ) ;
#22 = CARTESIAN_POINT ( 'NONE',  ( -24.39782473475928600, 54.00000000000000000, -5.999999999999999100 ) ) ;
#23 = CIRCLE ( 'NONE', #400, 5.999999999999998200 ) ;
#24 = CALENDAR_DATE ( 2018, 21, 6 ) ;
#25 = ORIENTED_EDGE ( 'NONE', *, *, #29, .T. ) ;
#26 = ORIENTED_EDGE ( 'NONE', *, *, #398, .T. ) ;
#27 = PRODUCT_RELATED_PRODUCT_CATEGORY ( 'detail', '', ( #296 ) ) ;
#28 = DIRECTION ( 'NONE',  ( -0.0000000000000000000, -0.0000000000000000000, -1.000000000000000000 ) ) ;
#29 = EDGE_CURVE ( 'NONE', #314, #253, #241, .T. ) ;
#30 = LINE ( 'NONE', #495, #152 ) ;
#31 = PERSON_AND_ORGANIZATION ( #370, #205 ) ;
#32 = VECTOR ( 'NONE', #165, 1000.000000000000000 ) ;
#33 = LINE ( 'NONE', #103, #306 ) ;
#34 = EDGE_LOOP ( 'NONE', ( #131, #308, #461, #82 ) ) ;
#35 = EDGE_CURVE ( 'NONE', #485, #116, #329, .T. ) ;
#36 = APPROVAL_ROLE ( '' ) ;
#37 = PLANE ( 'NONE',  #59 ) ;
#38 = DIRECTION ( 'NONE',  ( -0.0000000000000000000, 1.000000000000000000, -0.0000000000000000000 ) ) ;
#39 = AXIS2_PLACEMENT_3D ( 'NONE', #190, #457, #187 ) ;
#40 = ORIENTED_EDGE ( 'NONE', *, *, #88, .F. ) ;
#41 = DIRECTION ( 'NONE',  ( 0.0000000000000000000, 0.0000000000000000000, 1.000000000000000000 ) ) ;
#42 = CYLINDRICAL_SURFACE ( 'NONE', #149, 5.999999999999998200 ) ;
#43 = CARTESIAN_POINT ( 'NONE',  ( -54.00000000000000000, 54.00000000000000000, -5.999999999999999100 ) ) ;
#44 = ORIENTED_EDGE ( 'NONE', *, *, #70, .T. ) ;
#45 = EDGE_LOOP ( 'NONE', ( #531, #185, #476, #146 ) ) ;
#46 = DIRECTION ( 'NONE',  ( 0.3826834323650875600, -0.0000000000000000000, 0.9238795325112877400 ) ) ;
#47 = DIRECTION ( 'NONE',  ( -0.0000000000000000000, -0.0000000000000000000, -1.000000000000000000 ) ) ;
#48 = AXIS2_PLACEMENT_3D ( 'NONE', #494, #47, #354 ) ;
#49 = ADVANCED_FACE ( 'NONE', ( #277 ), #137, .F. ) ;
#50 = PLANE ( 'NONE',  #279 ) ;
#51 = ORIENTED_EDGE ( 'NONE', *, *, #396, .T. ) ;
#52 = PLANE ( 'NONE',  #404 ) ;
#53 = DIRECTION ( 'NONE',  ( -1.000000000000000000, 0.0000000000000000000, 0.0000000000000000000 ) ) ;
#54 = CIRCLE ( 'NONE', #48, 4.249999999999996400 ) ;
#55 = CARTESIAN_POINT ( 'NONE',  ( 27.71781675011152000, 26.99999999999999600, -27.71781675011122600 ) ) ;
#56 = LINE ( 'NONE', #434, #359 ) ;
#57 = ORIENTED_EDGE ( 'NONE', *, *, #268, .F. ) ;
#58 = CARTESIAN_POINT ( 'NONE',  ( -39.19891236737964100, 26.99999999999999600, -8.673617379884035500E-016 ) ) ;
#59 = AXIS2_PLACEMENT_3D ( 'NONE', #345, #41, #437 ) ;
#60 = CARTESIAN_POINT ( 'NONE',  ( 12.72792206135793500, 54.00000000000000000, -21.21320343559634100 ) ) ;
#61 = CIRCLE ( 'NONE', #532, 5.999999999999998200 ) ;
#62 = VERTEX_POINT ( 'NONE', #302 ) ;
#63 = CARTESIAN_POINT ( 'NONE',  ( -24.39782473475928600, 0.0000000000000000000, -5.999999999999999100 ) ) ;
#64 = CC_DESIGN_PERSON_AND_ORGANIZATION_ASSIGNMENT ( #31, #110, ( #214 ) ) ;
#65 = AXIS2_PLACEMENT_3D ( 'NONE', #364, #141, #53 ) ;
#66 = APPROVAL_PERSON_ORGANIZATION ( #71, #432, #578 ) ;
#67 = DIRECTION ( 'NONE',  ( 0.0000000000000000000, 1.000000000000000000, 0.0000000000000000000 ) ) ;
#68 = FACE_OUTER_BOUND ( 'NONE', #376, .T. ) ;
#69 = ORIENTED_EDGE ( 'NONE', *, *, #522, .F. ) ;
#70 = EDGE_CURVE ( 'NONE', #330, #314, #154, .T. ) ;
#71 = PERSON_AND_ORGANIZATION ( #370, #205 ) ;
#72 = LINE ( 'NONE', #504, #318 ) ;
#73 = CARTESIAN_POINT ( 'NONE',  ( -60.00000000000000000, 54.00000000000000000, 0.0000000000000000000 ) ) ;
#74 = VERTEX_POINT ( 'NONE', #210 ) ;
#75 = VERTEX_POINT ( 'NONE', #585 ) ;
#76 = APPLICATION_CONTEXT ( 'configuration controlled 3d designs of mechanical parts and assemblies' ) ;
#77 = DIRECTION ( 'NONE',  ( -0.0000000000000000000, -1.000000000000000000, 0.0000000000000000000 ) ) ;
#78 = AXIS2_PLACEMENT_3D ( 'NONE', #447, #355, #553 ) ;
#79 = DESIGN_CONTEXT ( 'detailed design', #333, 'design' ) ;
#80 = CYLINDRICAL_SURFACE ( 'NONE', #65, 4.249999999999996400 ) ;
#81 = AXIS2_PLACEMENT_3D ( 'NONE', #561, #512, #325 ) ;
#82 = ORIENTED_EDGE ( 'NONE', *, *, #228, .T. ) ;
#83 = CARTESIAN_POINT ( 'NONE',  ( 24.71261293006867600, 26.99999999999999600, -24.71261293006841700 ) ) ;
#84 = ORIENTED_EDGE ( 'NONE', *, *, #414, .F. ) ;
#85 = EDGE_CURVE ( 'NONE', #395, #471, #200, .T. ) ;
#86 = CARTESIAN_POINT ( 'NONE',  ( 23.47517606299226500, 26.99999999999999600, -31.96045743723052700 ) ) ;
#87 = CARTESIAN_POINT ( 'NONE',  ( -54.00000000000000000, 0.0000000000000000000, -5.999999999999999100 ) ) ;
#88 = EDGE_CURVE ( 'NONE', #331, #393, #105, .T. ) ;
#89 = VERTEX_POINT ( 'NONE', #339 ) ;
#90 = CC_DESIGN_APPROVAL ( #432, ( #118 ) ) ;
#91 = CARTESIAN_POINT ( 'NONE',  ( 0.0000000000000000000, 0.0000000000000000000, 0.0000000000000000000 ) ) ;
#92 = CYLINDRICAL_SURFACE ( 'NONE', #272, 5.999999999999998200 ) ;
#93 = LINE ( 'NONE', #579, #305 ) ;
#94 = VECTOR ( 'NONE', #575, 999.9999999999998900 ) ;
#95 = AXIS2_PLACEMENT_3D ( 'NONE', #240, #147, #463 ) ;
#96 = CARTESIAN_POINT ( 'NONE',  ( 38.18376618407375400, 54.00000000000000000, -38.18376618407335600 ) ) ;
#97 = VERTEX_POINT ( 'NONE', #307 ) ;
#98 = ORIENTED_EDGE ( 'NONE', *, *, #440, .F. ) ;
#99 = EDGE_CURVE ( 'NONE', #509, #453, #543, .T. ) ;
#100 = ADVANCED_FACE ( 'NONE', ( #199, #342 ), #37, .F. ) ;
#101 = ORIENTED_EDGE ( 'NONE', *, *, #236, .T. ) ;
#102 = AXIS2_PLACEMENT_3D ( 'NONE', #60, #415, #142 ) ;
#103 = CARTESIAN_POINT ( 'NONE',  ( 0.0000000000000000000, 54.00000000000000000, 0.0000000000000000000 ) ) ;
#104 = LINE ( 'NONE', #267, #260 ) ;
#105 = LINE ( 'NONE', #162, #122 ) ;
#106 = CARTESIAN_POINT ( 'NONE',  ( -39.19891236737964100, 26.99999999999999600, -5.999999999999999100 ) ) ;
#107 = ORIENTED_EDGE ( 'NONE', *, *, #264, .F. ) ;
#108 = EDGE_LOOP ( 'NONE', ( #157, #184, #462, #516 ) ) ;
#109 = APPROVAL_STATUS ( 'not_yet_approved' ) ;
#110 = PERSON_AND_ORGANIZATION_ROLE ( 'creator' ) ;
#111 = VECTOR ( 'NONE', #121, 1000.000000000000000 ) ;
#112 = ORIENTED_EDGE ( 'NONE', *, *, #134, .F. ) ;
#113 = AXIS2_PLACEMENT_3D ( 'NONE', #160, #297, #479 ) ;
#114 = APPROVAL ( #528, 'UNSPECIFIED' ) ;
#115 = CARTESIAN_POINT ( 'NONE',  ( 42.42640687119306600, 54.00000000000000000, -42.42640687119262600 ) ) ;
#116 = VERTEX_POINT ( 'NONE', #207 ) ;
#117 = CARTESIAN_POINT ( 'NONE',  ( -24.39782473475928600, 1.387778780781445700E-014, -5.999999999999999100 ) ) ;
#118 = SECURITY_CLASSIFICATION ( '', '', #474 ) ;
#119 = CARTESIAN_POINT ( 'NONE',  ( 0.0000000000000000000, 54.00000000000000000, 0.0000000000000000000 ) ) ;
#120 = FACE_BOUND ( 'NONE', #172, .T. ) ;
#121 = DIRECTION ( 'NONE',  ( -0.0000000000000000000, -1.000000000000000000, -0.0000000000000000000 ) ) ;
#122 = VECTOR ( 'NONE', #385, 999.9999999999998900 ) ;
#123 = VERTEX_POINT ( 'NONE', #390 ) ;
#124 = CARTESIAN_POINT ( 'NONE',  ( 11.59501306665690000, 0.0000000000000000000, -22.90872156564149300 ) ) ;
#125 = CARTESIAN_POINT ( 'NONE',  ( -54.00000000000000000, 54.00000000000000000, -5.999999999999999100 ) ) ;
#126 = LOCAL_TIME ( 9, 44, 44.00000000000000000, #444 ) ;
#127 = FACE_OUTER_BOUND ( 'NONE', #213, .T. ) ;
#128 = CC_DESIGN_DATE_AND_TIME_ASSIGNMENT ( #564, #250, ( #118 ) ) ;
#129 = DIRECTION ( 'NONE',  ( 0.0000000000000000000, 1.000000000000000000, 0.0000000000000000000 ) ) ;
#130 = LINE ( 'NONE', #261, #234 ) ;
#131 = ORIENTED_EDGE ( 'NONE', *, *, #188, .F. ) ;
#132 = ORIENTED_EDGE ( 'NONE', *, *, #156, .T. ) ;
#133 = DIRECTION ( 'NONE',  ( -0.7071067811865438000, 0.0000000000000000000, -0.7071067811865512400 ) ) ;
#134 = EDGE_CURVE ( 'NONE', #471, #509, #451, .T. ) ;
#135 = DIRECTION ( 'NONE',  ( 0.0000000000000000000, -1.000000000000000000, -0.0000000000000000000 ) ) ;
#136 = CC_DESIGN_APPROVAL ( #114, ( #435 ) ) ;
#137 = CYLINDRICAL_SURFACE ( 'NONE', #113, 2.000000000000001800 ) ;
#138 = DIRECTION ( 'NONE',  ( 0.0000000000000000000, 0.0000000000000000000, -1.000000000000000000 ) ) ;
#139 = ORIENTED_EDGE ( 'NONE', *, *, #191, .T. ) ;
#140 = ORIENTED_EDGE ( 'NONE', *, *, #372, .T. ) ;
#141 = DIRECTION ( 'NONE',  ( -0.0000000000000000000, -0.0000000000000000000, -1.000000000000000000 ) ) ;
#142 = DIRECTION ( 'NONE',  ( 0.7071067811865515700, 0.0000000000000000000, -0.7071067811865435800 ) ) ;
#143 = DIRECTION ( 'NONE',  ( -0.7071067811865511300, 0.0000000000000000000, 0.7071067811865439100 ) ) ;
#144 = EDGE_CURVE ( 'NONE', #500, #97, #93, .T. ) ;
#145 = ORIENTED_EDGE ( 'NONE', *, *, #258, .T. ) ;
#146 = ORIENTED_EDGE ( 'NONE', *, *, #156, .F. ) ;
#147 = DIRECTION ( 'NONE',  ( -0.7071067811865436900, -0.0000000000000000000, -0.7071067811865514600 ) ) ;
#148 = PLANE ( 'NONE',  #81 ) ;
#149 = AXIS2_PLACEMENT_3D ( 'NONE', #413, #511, #549 ) ;
#150 = DIRECTION ( 'NONE',  ( -1.000000000000000000, 0.0000000000000000000, 0.0000000000000000000 ) ) ;
#151 = CARTESIAN_POINT ( 'NONE',  ( -54.00000000000000000, 0.0000000000000000000, 8.673617379884035500E-016 ) ) ;
#152 = VECTOR ( 'NONE', #216, 1000.000000000000000 ) ;
#153 = PERSON_AND_ORGANIZATION_ROLE ( 'design_supplier' ) ;
#154 = LINE ( 'NONE', #73, #312 ) ;
#155 = ORIENTED_EDGE ( 'NONE', *, *, #589, .T. ) ;
#156 = EDGE_CURVE ( 'NONE', #523, #430, #568, .T. ) ;
#157 = ORIENTED_EDGE ( 'NONE', *, *, #580, .F. ) ;
#158 = APPLICATION_PROTOCOL_DEFINITION ( 'international standard', 'config_control_design', 1994, #333 ) ;
#159 =( LENGTH_UNIT ( ) NAMED_UNIT ( * ) SI_UNIT ( .MILLI., .METRE. ) );
#160 = CARTESIAN_POINT ( 'NONE',  ( 11.59501306665690000, 54.00000000000000000, -22.90872156564149300 ) ) ;
#161 = DIRECTION ( 'NONE',  ( -0.0000000000000000000, -1.000000000000000000, -0.0000000000000000000 ) ) ;
#162 = CARTESIAN_POINT ( 'NONE',  ( 0.0000000000000000000, 0.0000000000000000000, 0.0000000000000000000 ) ) ;
#163 = VERTEX_POINT ( 'NONE', #83 ) ;
#164 = ORIENTED_EDGE ( 'NONE', *, *, #264, .T. ) ;
#165 = DIRECTION ( 'NONE',  ( -0.0000000000000000000, -1.000000000000000000, 0.0000000000000000000 ) ) ;
#166 = DIRECTION ( 'NONE',  ( 0.0000000000000000000, -1.000000000000000000, 0.0000000000000000000 ) ) ;
#167 = EDGE_CURVE ( 'NONE', #439, #74, #484, .T. ) ;
#168 = CARTESIAN_POINT ( 'NONE',  ( -24.39782473475928600, 0.0000000000000000000, -8.000000000000000000 ) ) ;
#169 = LINE ( 'NONE', #591, #490 ) ;
#170 = CC_DESIGN_DATE_AND_TIME_ASSIGNMENT ( #304, #519, ( #435 ) ) ;
#171 = EDGE_LOOP ( 'NONE', ( #278, #139, #438, #18 ) ) ;
#172 = EDGE_LOOP ( 'NONE', ( #555, #26 ) ) ;
#173 = EDGE_CURVE ( 'NONE', #430, #1, #192, .T. ) ;
#174 = CARTESIAN_POINT ( 'NONE',  ( -60.00000000000000000, 54.00000000000000000, -5.999999999999999100 ) ) ;
#175 = CIRCLE ( 'NONE', #316, 4.249999999999997300 ) ;
#176 = ORIENTED_EDGE ( 'NONE', *, *, #191, .F. ) ;
#177 = DIRECTION ( 'NONE',  ( -0.7071067811865515700, -0.0000000000000000000, 0.7071067811865435800 ) ) ;
#178 = ORIENTED_EDGE ( 'NONE', *, *, #440, .T. ) ;
#179 = DIRECTION ( 'NONE',  ( 0.0000000000000000000, 1.000000000000000000, 0.0000000000000000000 ) ) ;
#180 = CIRCLE ( 'NONE', #341, 4.249999999999996400 ) ;
#181 = AXIS2_PLACEMENT_3D ( 'NONE', #418, #514, #143 ) ;
#182 = CARTESIAN_POINT ( 'NONE',  ( 42.42640687119306600, 0.0000000000000000000, -42.42640687119262600 ) ) ;
#183 = SHAPE_DEFINITION_REPRESENTATION ( #407, #423 ) ;
#184 = ORIENTED_EDGE ( 'NONE', *, *, #391, .F. ) ;
#185 = ORIENTED_EDGE ( 'NONE', *, *, #228, .F. ) ;
#186 = ADVANCED_FACE ( 'NONE', ( #367 ), #252, .F. ) ;
#187 = DIRECTION ( 'NONE',  ( -1.000000000000000000, 0.0000000000000000000, -0.0000000000000000000 ) ) ;
#188 = EDGE_CURVE ( 'NONE', #509, #123, #508, .T. ) ;
#189 = ADVANCED_FACE ( 'NONE', ( #68 ), #276, .T. ) ;
#190 = CARTESIAN_POINT ( 'NONE',  ( 0.0000000000000000000, 54.00000000000000000, 0.0000000000000000000 ) ) ;
#191 = EDGE_CURVE ( 'NONE', #350, #286, #56, .T. ) ;
#192 = CIRCLE ( 'NONE', #446, 2.000000000000000000 ) ;
#193 = CARTESIAN_POINT ( 'NONE',  ( 26.48037988303510600, 26.99999999999999600, -34.96566125727333900 ) ) ;
#194 = EDGE_LOOP ( 'NONE', ( #145, #349, #107, #140 ) ) ;
#195 = ORIENTED_EDGE ( 'NONE', *, *, #251, .T. ) ;
#196 = CARTESIAN_POINT ( 'NONE',  ( -34.94891236737964800, 26.99999999999999600, -8.673617379884035500E-016 ) ) ;
#197 = DIRECTION ( 'NONE',  ( 3.469446951953615400E-015, 0.0000000000000000000, -1.000000000000000000 ) ) ;
#198 = CIRCLE ( 'NONE', #5, 4.249999999999996400 ) ;
#199 = FACE_BOUND ( 'NONE', #544, .T. ) ;
#200 = LINE ( 'NONE', #299, #552 ) ;
#201 = ORIENTED_EDGE ( 'NONE', *, *, #99, .F. ) ;
#202 = VERTEX_POINT ( 'NONE', #488 ) ;
#203 = DIRECTION ( 'NONE',  ( -0.7071067811865511300, 0.0000000000000000000, 0.7071067811865439100 ) ) ;
#204 = EDGE_CURVE ( 'NONE', #116, #393, #436, .T. ) ;
#205 = ORGANIZATION ( 'UNSPECIFIED', 'UNSPECIFIED', '' ) ;
#206 = ORIENTED_EDGE ( 'NONE', *, *, #337, .F. ) ;
#207 = CARTESIAN_POINT ( 'NONE',  ( 42.42640687119306600, 54.00000000000000000, -42.42640687119262600 ) ) ;
#208 = CARTESIAN_POINT ( 'NONE',  ( -23.99999999999997200, 54.00000000000000000, -5.999999999999999100 ) ) ;
#209 = LINE ( 'NONE', #310, #247 ) ;
#210 = CARTESIAN_POINT ( 'NONE',  ( -43.44891236737964100, 26.99999999999999600, -5.999999999999999100 ) ) ;
#211 = ORIENTED_EDGE ( 'NONE', *, *, #70, .F. ) ;
#212 = DIRECTION ( 'NONE',  ( -3.469446951953614200E-015, 0.0000000000000000000, -1.000000000000000000 ) ) ;
#213 = EDGE_LOOP ( 'NONE', ( #425, #155, #380, #40, #375, #25, #57, #477, #545, #101 ) ) ;
#214 = PRODUCT_DEFINITION_FORMATION_WITH_SPECIFIED_SOURCE ( 'ANY', '', #296, .NOT_KNOWN. ) ;
#215 = EDGE_CURVE ( 'NONE', #123, #523, #239, .T. ) ;
#216 = DIRECTION ( 'NONE',  ( -0.7071067811865515700, -0.0000000000000000000, 0.7071067811865435800 ) ) ;
#217 = COORDINATED_UNIVERSAL_TIME_OFFSET ( 1, 0, .AHEAD. ) ;
#218 = CLOSED_SHELL ( 'NONE', ( #16, #6, #458, #362, #448, #503, #221, #100, #186, #402, #353, #189, #49, #365, #406, #546 ) ) ;
#219 = EDGE_CURVE ( 'NONE', #75, #89, #473, .T. ) ;
#220 = DIRECTION ( 'NONE',  ( -0.0000000000000000000, 1.000000000000000000, -0.0000000000000000000 ) ) ;
#221 = ADVANCED_FACE ( 'NONE', ( #551 ), #50, .F. ) ;
#222 = CIRCLE ( 'NONE', #14, 6.000000000000000000 ) ;
#223 = PERSON_AND_ORGANIZATION ( #370, #205 ) ;
#224 = FACE_OUTER_BOUND ( 'NONE', #525, .T. ) ;
#225 = DIRECTION ( 'NONE',  ( -0.0000000000000000000, -1.000000000000000000, -0.0000000000000000000 ) ) ;
#226 = ORIENTED_EDGE ( 'NONE', *, *, #204, .T. ) ;
#227 = ORIENTED_EDGE ( 'NONE', *, *, #236, .F. ) ;
#228 = EDGE_CURVE ( 'NONE', #1, #123, #130, .T. ) ;
#229 = DIRECTION ( 'NONE',  ( 0.0000000000000000000, 0.0000000000000000000, -1.000000000000000000 ) ) ;
#230 = EDGE_CURVE ( 'NONE', #253, #343, #348, .T. ) ;
#231 = CYLINDRICAL_SURFACE ( 'NONE', #95, 4.249999999999997300 ) ;
#232 = CALENDAR_DATE ( 2018, 21, 6 ) ;
#233 = DIRECTION ( 'NONE',  ( -1.000000000000000000, 0.0000000000000000000, 0.0000000000000000000 ) ) ;
#234 = VECTOR ( 'NONE', #590, 1000.000000000000000 ) ;
#235 = DIRECTION ( 'NONE',  ( 1.000000000000000000, -0.0000000000000000000, -0.0000000000000000000 ) ) ;
#236 = EDGE_CURVE ( 'NONE', #453, #395, #541, .T. ) ;
#237 = CARTESIAN_POINT ( 'NONE',  ( 20.46997224294942400, 26.99999999999999600, -28.95525361718771900 ) ) ;
#238 = CARTESIAN_POINT ( 'NONE',  ( 38.18376618407375400, 54.00000000000000000, -38.18376618407335600 ) ) ;
#239 = CIRCLE ( 'NONE', #20, 2.000000000000000000 ) ;
#240 = CARTESIAN_POINT ( 'NONE',  ( 23.47517606299226500, 26.99999999999999600, -31.96045743723052700 ) ) ;
#241 = CIRCLE ( 'NONE', #538, 6.000000000000000000 ) ;
#242 = ORIENTED_EDGE ( 'NONE', *, *, #268, .T. ) ;
#243 = VERTEX_POINT ( 'NONE', #394 ) ;
#244 = DIRECTION ( 'NONE',  ( 0.0000000000000000000, -1.000000000000000000, 0.0000000000000000000 ) ) ;
#245 = CC_DESIGN_APPROVAL ( #468, ( #214 ) ) ;
#246 = DIRECTION ( 'NONE',  ( 1.000000000000000000, 0.0000000000000000000, 0.0000000000000000000 ) ) ;
#247 = VECTOR ( 'NONE', #351, 1000.000000000000000 ) ;
#248 = ORIENTED_EDGE ( 'NONE', *, *, #352, .T. ) ;
#249 = DIRECTION ( 'NONE',  ( -0.7071067811865436900, -0.0000000000000000000, -0.7071067811865514600 ) ) ;
#250 = DATE_TIME_ROLE ( 'classification_date' ) ;
#251 = EDGE_CURVE ( 'NONE', #523, #343, #327, .T. ) ;
#252 = PLANE ( 'NONE',  #573 ) ;
#253 = VERTEX_POINT ( 'NONE', #87 ) ;
#254 = CC_DESIGN_PERSON_AND_ORGANIZATION_ASSIGNMENT ( #311, #153, ( #214 ) ) ;
#255 = ORIENTED_EDGE ( 'NONE', *, *, #456, .T. ) ;
#256 = EDGE_LOOP ( 'NONE', ( #493, #178, #51, #164, #301, #387, #515, #195, #571, #9 ) ) ;
#257 = CARTESIAN_POINT ( 'NONE',  ( 12.36037993138707600, 0.0000000000000000000, -21.06096250061891300 ) ) ;
#258 = EDGE_CURVE ( 'NONE', #202, #395, #104, .T. ) ;
#259 = CC_DESIGN_PERSON_AND_ORGANIZATION_ASSIGNMENT ( #593, #478, ( #296 ) ) ;
#260 = VECTOR ( 'NONE', #177, 1000.000000000000000 ) ;
#261 = CARTESIAN_POINT ( 'NONE',  ( -23.63245787002911100, 54.00000000000000000, -6.152240934977424300 ) ) ;
#262 = APPROVAL_DATE_TIME ( #379, #468 ) ;
#263 = CIRCLE ( 'NONE', #452, 5.999999999999998200 ) ;
#264 = EDGE_CURVE ( 'NONE', #243, #471, #30, .T. ) ;
#265 = DIRECTION ( 'NONE',  ( 0.0000000000000000000, 0.0000000000000000000, -1.000000000000000000 ) ) ;
#266 = EDGE_LOOP ( 'NONE', ( #388, #411, #382, #386 ) ) ;
#267 = CARTESIAN_POINT ( 'NONE',  ( 12.72792206135793500, 0.0000000000000000000, -21.21320343559634100 ) ) ;
#268 = EDGE_CURVE ( 'NONE', #430, #253, #209, .T. ) ;
#269 = DIRECTION ( 'NONE',  ( 0.9238795325112876300, 0.0000000000000000000, -0.3826834323650875100 ) ) ;
#270 = ORIENTED_EDGE ( 'NONE', *, *, #580, .T. ) ;
#271 = EDGE_LOOP ( 'NONE', ( #176, #98, #226, #10 ) ) ;
#272 = AXIS2_PLACEMENT_3D ( 'NONE', #518, #244, #464 ) ;
#273 = PLANE ( 'NONE',  #39 ) ;
#274 = FACE_BOUND ( 'NONE', #510, .T. ) ;
#275 = CALENDAR_DATE ( 2018, 21, 6 ) ;
#276 = CYLINDRICAL_SURFACE ( 'NONE', #481, 6.000000000000000000 ) ;
#277 = FACE_OUTER_BOUND ( 'NONE', #554, .T. ) ;
#278 = ORIENTED_EDGE ( 'NONE', *, *, #396, .F. ) ;
#279 = AXIS2_PLACEMENT_3D ( 'NONE', #443, #46, #269 ) ;
#280 = CARTESIAN_POINT ( 'NONE',  ( 13.00922662902998700, 0.0000000000000000000, -21.49450800326839000 ) ) ;
#281 = CARTESIAN_POINT ( 'NONE',  ( 12.36037993138707600, 0.0000000000000000000, -21.06096250061891700 ) ) ;
#282 = EDGE_CURVE ( 'NONE', #485, #331, #169, .T. ) ;
#283 = LOCAL_TIME ( 9, 44, 44.00000000000000000, #534 ) ;
#284 = CARTESIAN_POINT ( 'NONE',  ( 0.0000000000000000000, 0.0000000000000000000, 0.0000000000000000000 ) ) ;
#285 = VECTOR ( 'NONE', #569, 1000.000000000000100 ) ;
#286 = VERTEX_POINT ( 'NONE', #309 ) ;
#287 = CARTESIAN_POINT ( 'NONE',  ( 12.36037993138707600, 54.00000000000000000, -21.06096250061891700 ) ) ;
#288 = CARTESIAN_POINT ( 'NONE',  ( 38.18376618407375400, 0.0000000000000000000, -38.18376618407335600 ) ) ;
#289 = DIRECTION ( 'NONE',  ( -0.9238795325112877400, -0.0000000000000000000, 0.3826834323650875100 ) ) ;
#290 = CIRCLE ( 'NONE', #78, 4.249999999999997300 ) ;
#291 = APPROVAL_PERSON_ORGANIZATION ( #408, #468, #36 ) ;
#292 = APPROVAL_ROLE ( '' ) ;
#293 = ORIENTED_EDGE ( 'NONE', *, *, #584, .T. ) ;
#294 = ORIENTED_EDGE ( 'NONE', *, *, #398, .F. ) ;
#295 = EDGE_CURVE ( 'NONE', #439, #500, #54, .T. ) ;
#296 = PRODUCT ( 'ALP2460', 'ALP2460', '', ( #383 ) ) ;
#297 = DIRECTION ( 'NONE',  ( 0.0000000000000000000, 1.000000000000000000, 0.0000000000000000000 ) ) ;
#298 = FACE_OUTER_BOUND ( 'NONE', #45, .T. ) ;
#299 = CARTESIAN_POINT ( 'NONE',  ( 13.00922662902998700, 54.00000000000000000, -21.49450800326839000 ) ) ;
#300 = EDGE_CURVE ( 'NONE', #62, #163, #290, .T. ) ;
#301 = ORIENTED_EDGE ( 'NONE', *, *, #134, .T. ) ;
#302 = CARTESIAN_POINT ( 'NONE',  ( 30.72302057015436100, 26.99999999999999600, -30.72302057015403400 ) ) ;
#303 = VECTOR ( 'NONE', #289, 1000.000000000000000 ) ;
#304 = DATE_AND_TIME ( #550, #536 ) ;
#305 = VECTOR ( 'NONE', #433, 1000.000000000000000 ) ;
#306 = VECTOR ( 'NONE', #235, 1000.000000000000000 ) ;
#307 = CARTESIAN_POINT ( 'NONE',  ( -34.94891236737964800, 26.99999999999999600, -5.999999999999999100 ) ) ;
#308 = ORIENTED_EDGE ( 'NONE', *, *, #99, .T. ) ;
#309 = CARTESIAN_POINT ( 'NONE',  ( 38.18376618407375400, 0.0000000000000000000, -44.18376618407335600 ) ) ;
#310 = CARTESIAN_POINT ( 'NONE',  ( -60.00000000000000000, 0.0000000000000000000, -5.999999999999999100 ) ) ;
#311 = PERSON_AND_ORGANIZATION ( #370, #205 ) ;
#312 = VECTOR ( 'NONE', #431, 1000.000000000000000 ) ;
#313 = ORIENTED_EDGE ( 'NONE', *, *, #167, .T. ) ;
#314 = VERTEX_POINT ( 'NONE', #4 ) ;
#315 = CARTESIAN_POINT ( 'NONE',  ( -60.00000000000000000, 54.00000000000000000, 0.0000000000000000000 ) ) ;
#316 = AXIS2_PLACEMENT_3D ( 'NONE', #55, #133, #12 ) ;
#317 = DIRECTION ( 'NONE',  ( 0.0000000000000000000, 0.0000000000000000000, -1.000000000000000000 ) ) ;
#318 = VECTOR ( 'NONE', #450, 1000.000000000000000 ) ;
#319 = CARTESIAN_POINT ( 'NONE',  ( -43.44891236737964100, 26.99999999999999600, -8.673617379884035500E-016 ) ) ;
#320 = ORIENTED_EDGE ( 'NONE', *, *, #144, .T. ) ;
#321 = ORIENTED_EDGE ( 'NONE', *, *, #414, .T. ) ;
#322 = CARTESIAN_POINT ( 'NONE',  ( -54.00000000000000000, 54.00000000000000000, 8.673617379884035500E-016 ) ) ;
#323 = DIRECTION ( 'NONE',  ( -0.0000000000000000000, -0.0000000000000000000, -1.000000000000000000 ) ) ;
#324 = EDGE_LOOP ( 'NONE', ( #445, #132, #242, #537 ) ) ;
#325 = DIRECTION ( 'NONE',  ( -0.7071067811865512400, 0.0000000000000000000, 0.7071067811865439100 ) ) ;
#326 = CARTESIAN_POINT ( 'NONE',  ( -23.99999999999997200, 0.0000000000000000000, -5.999999999999999100 ) ) ;
#327 = LINE ( 'NONE', #174, #466 ) ;
#328 = AXIS2_PLACEMENT_3D ( 'NONE', #455, #405, #366 ) ;
#329 = LINE ( 'NONE', #377, #94 ) ;
#330 = VERTEX_POINT ( 'NONE', #315 ) ;
#331 = VERTEX_POINT ( 'NONE', #397 ) ;
#332 = CARTESIAN_POINT ( 'NONE',  ( 23.47517606299226500, 26.99999999999999600, -31.96045743723052700 ) ) ;
#333 = APPLICATION_CONTEXT ( 'configuration controlled 3d designs of mechanical parts and assemblies' ) ;
#334 = AXIS2_PLACEMENT_3D ( 'NONE', #429, #28, #475 ) ;
#335 = LINE ( 'NONE', #193, #409 ) ;
#336 = ORIENTED_EDGE ( 'NONE', *, *, #219, .F. ) ;
#337 = EDGE_CURVE ( 'NONE', #343, #330, #222, .T. ) ;
#338 =( NAMED_UNIT ( * ) PLANE_ANGLE_UNIT ( ) SI_UNIT ( $, .RADIAN. ) );
#339 = CARTESIAN_POINT ( 'NONE',  ( 26.48037988303510600, 26.99999999999999600, -34.96566125727333900 ) ) ;
#340 = CARTESIAN_POINT ( 'NONE',  ( -54.00000000000000000, 54.00000000000000000, 8.673617379884035500E-016 ) ) ;
#341 = AXIS2_PLACEMENT_3D ( 'NONE', #58, #410, #557 ) ;
#342 = FACE_OUTER_BOUND ( 'NONE', #324, .T. ) ;
#343 = VERTEX_POINT ( 'NONE', #125 ) ;
#344 = AXIS2_PLACEMENT_3D ( 'NONE', #332, #249, #203 ) ;
#345 = CARTESIAN_POINT ( 'NONE',  ( -60.00000000000000000, 54.00000000000000000, -5.999999999999999100 ) ) ;
#346 = DIRECTION ( 'NONE',  ( -0.0000000000000000000, -1.000000000000000000, -0.0000000000000000000 ) ) ;
#347 = DATE_AND_TIME ( #21, #283 ) ;
#348 = LINE ( 'NONE', #43, #459 ) ;
#349 = ORIENTED_EDGE ( 'NONE', *, *, #85, .T. ) ;
#350 = VERTEX_POINT ( 'NONE', #507 ) ;
#351 = DIRECTION ( 'NONE',  ( -1.000000000000000000, -0.0000000000000000000, -0.0000000000000000000 ) ) ;
#352 = EDGE_CURVE ( 'NONE', #74, #97, #496, .T. ) ;
#353 = ADVANCED_FACE ( 'NONE', ( #416 ), #42, .T. ) ;
#354 = DIRECTION ( 'NONE',  ( -1.000000000000000000, 0.0000000000000000000, 0.0000000000000000000 ) ) ;
#355 = DIRECTION ( 'NONE',  ( -0.7071067811865438000, 0.0000000000000000000, -0.7071067811865512400 ) ) ;
#356 = APPROVAL_DATE_TIME ( #347, #432 ) ;
#357 = LINE ( 'NONE', #237, #285 ) ;
#358 = DATE_AND_TIME ( #24, #559 ) ;
#359 = VECTOR ( 'NONE', #166, 1000.000000000000000 ) ;
#360 = DIRECTION ( 'NONE',  ( 0.0000000000000000000, 0.0000000000000000000, -1.000000000000000000 ) ) ;
#361 = EDGE_LOOP ( 'NONE', ( #336, #84 ) ) ;
#362 = ADVANCED_FACE ( 'NONE', ( #120, #505 ), #273, .F. ) ;
#363 = CARTESIAN_POINT ( 'NONE',  ( -39.19891236737964100, 26.99999999999999600, -5.999999999999999100 ) ) ;
#364 = CARTESIAN_POINT ( 'NONE',  ( -39.19891236737964100, 26.99999999999999600, -5.999999999999999100 ) ) ;
#365 = ADVANCED_FACE ( 'NONE', ( #298 ), #565, .F. ) ;
#366 = DIRECTION ( 'NONE',  ( 0.0000000000000000000, 0.0000000000000000000, 1.000000000000000000 ) ) ;
#367 = FACE_OUTER_BOUND ( 'NONE', #256, .T. ) ;
#368 = LINE ( 'NONE', #284, #421 ) ;
#369 = AXIS2_PLACEMENT_3D ( 'NONE', #363, #323, #233 ) ;
#370 = PERSON ( 'UNSPECIFIED', 'UNSPECIFIED', 'UNSPECIFIED', ('UNSPECIFIED'), ('UNSPECIFIED'), ('UNSPECIFIED') ) ;
#371 = CARTESIAN_POINT ( 'NONE',  ( 13.00922662902998700, 54.00000000000000000, -21.49450800326839000 ) ) ;
#372 = EDGE_CURVE ( 'NONE', #243, #202, #72, .T. ) ;
#373 = PERSON_AND_ORGANIZATION ( #370, #205 ) ;
#374 = FACE_OUTER_BOUND ( 'NONE', #586, .T. ) ;
#375 = ORIENTED_EDGE ( 'NONE', *, *, #584, .F. ) ;
#376 = EDGE_LOOP ( 'NONE', ( #206, #17, #530, #211 ) ) ;
#377 = CARTESIAN_POINT ( 'NONE',  ( 0.0000000000000000000, 54.00000000000000000, 0.0000000000000000000 ) ) ;
#378 = AXIS2_PLACEMENT_3D ( 'NONE', #480, #529, #489 ) ;
#379 = DATE_AND_TIME ( #275, #506 ) ;
#380 = ORIENTED_EDGE ( 'NONE', *, *, #384, .T. ) ;
#381 = APPROVAL_STATUS ( 'not_yet_approved' ) ;
#382 = ORIENTED_EDGE ( 'NONE', *, *, #35, .F. ) ;
#383 = MECHANICAL_CONTEXT ( 'NONE', #76, 'mechanical' ) ;
#384 = EDGE_CURVE ( 'NONE', #286, #393, #61, .T. ) ;
#385 = DIRECTION ( 'NONE',  ( 0.7071067811865512400, 0.0000000000000000000, -0.7071067811865439100 ) ) ;
#386 = ORIENTED_EDGE ( 'NONE', *, *, #282, .T. ) ;
#387 = ORIENTED_EDGE ( 'NONE', *, *, #188, .T. ) ;
#388 = ORIENTED_EDGE ( 'NONE', *, *, #88, .T. ) ;
#389 = DIRECTION ( 'NONE',  ( -0.0000000000000000000, -0.0000000000000000000, -1.000000000000000000 ) ) ;
#390 = CARTESIAN_POINT ( 'NONE',  ( -23.63245787002911100, 54.00000000000000000, -6.152240934977424300 ) ) ;
#391 = EDGE_CURVE ( 'NONE', #163, #62, #175, .T. ) ;
#392 = DIRECTION ( 'NONE',  ( 0.0000000000000000000, 1.000000000000000000, 0.0000000000000000000 ) ) ;
#393 = VERTEX_POINT ( 'NONE', #182 ) ;
#394 = CARTESIAN_POINT ( 'NONE',  ( 33.94112549695449100, 54.00000000000000000, -42.42640687119266100 ) ) ;
#395 = VERTEX_POINT ( 'NONE', #280 ) ;
#396 = EDGE_CURVE ( 'NONE', #350, #243, #520, .T. ) ;
#397 = CARTESIAN_POINT ( 'NONE',  ( 0.0000000000000000000, 0.0000000000000000000, 0.0000000000000000000 ) ) ;
#398 = EDGE_CURVE ( 'NONE', #500, #439, #180, .T. ) ;
#399 = FACE_OUTER_BOUND ( 'NONE', #171, .T. ) ;
#400 = AXIS2_PLACEMENT_3D ( 'NONE', #238, #67, #197 ) ;
#401 = ORIENTED_EDGE ( 'NONE', *, *, #352, .F. ) ;
#402 = ADVANCED_FACE ( 'NONE', ( #127 ), #52, .T. ) ;
#403 = DIRECTION ( 'NONE',  ( 0.0000000000000000000, 0.0000000000000000000, -1.000000000000000000 ) ) ;
#404 = AXIS2_PLACEMENT_3D ( 'NONE', #91, #135, #360 ) ;
#405 = DIRECTION ( 'NONE',  ( 0.0000000000000000000, 1.000000000000000000, -0.0000000000000000000 ) ) ;
#406 = ADVANCED_FACE ( 'NONE', ( #374 ), #80, .F. ) ;
#407 = PRODUCT_DEFINITION_SHAPE ( 'NONE', 'NONE',  #435 ) ;
#408 = PERSON_AND_ORGANIZATION ( #370, #205 ) ;
#409 = VECTOR ( 'NONE', #422, 1000.000000000000100 ) ;
#410 = DIRECTION ( 'NONE',  ( -0.0000000000000000000, -0.0000000000000000000, -1.000000000000000000 ) ) ;
#411 = ORIENTED_EDGE ( 'NONE', *, *, #204, .F. ) ;
#412 = FACE_OUTER_BOUND ( 'NONE', #560, .T. ) ;
#413 = CARTESIAN_POINT ( 'NONE',  ( 38.18376618407375400, 54.00000000000000000, -38.18376618407335600 ) ) ;
#414 = EDGE_CURVE ( 'NONE', #89, #75, #535, .T. ) ;
#415 = DIRECTION ( 'NONE',  ( 0.7071067811865435800, -0.0000000000000000000, 0.7071067811865515700 ) ) ;
#416 = FACE_OUTER_BOUND ( 'NONE', #271, .T. ) ;
#417 = ORIENTED_EDGE ( 'NONE', *, *, #282, .F. ) ;
#418 = CARTESIAN_POINT ( 'NONE',  ( 23.47517606299226500, 26.99999999999999600, -31.96045743723052700 ) ) ;
#419 = AXIS2_PLACEMENT_3D ( 'NONE', #96, #179, #317 ) ;
#420 = LINE ( 'NONE', #326, #303 ) ;
#421 = VECTOR ( 'NONE', #19, 1000.000000000000000 ) ;
#422 = DIRECTION ( 'NONE',  ( -0.7071067811865435800, -0.0000000000000000000, -0.7071067811865513500 ) ) ;
#423 = ADVANCED_BREP_SHAPE_REPRESENTATION ( 'ALP2460', ( #2, #587 ), #567 ) ;
#424 = ORIENTED_EDGE ( 'NONE', *, *, #300, .F. ) ;
#425 = ORIENTED_EDGE ( 'NONE', *, *, #258, .F. ) ;
#426 = PERSON_AND_ORGANIZATION_ROLE ( 'classification_officer' ) ;
#427 =( NAMED_UNIT ( * ) SI_UNIT ( $, .STERADIAN. ) SOLID_ANGLE_UNIT ( ) );
#428 = AXIS2_PLACEMENT_3D ( 'NONE', #124, #129, #265 ) ;
#429 = CARTESIAN_POINT ( 'NONE',  ( -39.19891236737964100, 26.99999999999999600, -5.999999999999999100 ) ) ;
#430 = VERTEX_POINT ( 'NONE', #63 ) ;
#431 = DIRECTION ( 'NONE',  ( -0.0000000000000000000, -1.000000000000000000, -0.0000000000000000000 ) ) ;
#432 = APPROVAL ( #381, 'UNSPECIFIED' ) ;
#433 = DIRECTION ( 'NONE',  ( -0.0000000000000000000, -0.0000000000000000000, -1.000000000000000000 ) ) ;
#434 = CARTESIAN_POINT ( 'NONE',  ( 38.18376618407375400, 54.00000000000000000, -44.18376618407335600 ) ) ;
#435 = PRODUCT_DEFINITION ( 'UNKNOWN', '', #214, #79 ) ;
#436 = LINE ( 'NONE', #115, #111 ) ;
#437 = DIRECTION ( 'NONE',  ( 1.000000000000000000, 0.0000000000000000000, -0.0000000000000000000 ) ) ;
#438 = ORIENTED_EDGE ( 'NONE', *, *, #589, .F. ) ;
#439 = VERTEX_POINT ( 'NONE', #319 ) ;
#440 = EDGE_CURVE ( 'NONE', #116, #350, #23, .T. ) ;
#441 = DIRECTION ( 'NONE',  ( 0.0000000000000000000, -1.000000000000000000, 0.0000000000000000000 ) ) ;
#442 = DIRECTION ( 'NONE',  ( -0.7071067811865436900, -0.0000000000000000000, -0.7071067811865514600 ) ) ;
#443 = CARTESIAN_POINT ( 'NONE',  ( -23.99999999999997200, 54.00000000000000000, -5.999999999999999100 ) ) ;
#444 = COORDINATED_UNIVERSAL_TIME_OFFSET ( 1, 0, .AHEAD. ) ;
#445 = ORIENTED_EDGE ( 'NONE', *, *, #251, .F. ) ;
#446 = AXIS2_PLACEMENT_3D ( 'NONE', #168, #392, #212 ) ;
#447 = CARTESIAN_POINT ( 'NONE',  ( 27.71781675011152000, 26.99999999999999600, -27.71781675011122600 ) ) ;
#448 = ADVANCED_FACE ( 'NONE', ( #274, #582 ), #148, .F. ) ;
#449 = COORDINATED_UNIVERSAL_TIME_OFFSET ( 1, 0, .AHEAD. ) ;
#450 = DIRECTION ( 'NONE',  ( 0.0000000000000000000, -1.000000000000000000, 0.0000000000000000000 ) ) ;
#451 = CIRCLE ( 'NONE', #378, 2.000000000000001800 ) ;
#452 = AXIS2_PLACEMENT_3D ( 'NONE', #288, #161, #524 ) ;
#453 = VERTEX_POINT ( 'NONE', #281 ) ;
#454 = EDGE_LOOP ( 'NONE', ( #293, #417, #492, #44 ) ) ;
#455 = CARTESIAN_POINT ( 'NONE',  ( -24.39782473475928600, 54.00000000000000000, -8.000000000000000000 ) ) ;
#456 = EDGE_CURVE ( 'NONE', #97, #74, #198, .T. ) ;
#457 = DIRECTION ( 'NONE',  ( 0.0000000000000000000, 0.0000000000000000000, -1.000000000000000000 ) ) ;
#458 = ADVANCED_FACE ( 'NONE', ( #399 ), #92, .T. ) ;
#459 = VECTOR ( 'NONE', #220, 1000.000000000000000 ) ;
#460 = APPROVAL_PERSON_ORGANIZATION ( #223, #114, #292 ) ;
#461 = ORIENTED_EDGE ( 'NONE', *, *, #513, .T. ) ;
#462 = ORIENTED_EDGE ( 'NONE', *, *, #522, .T. ) ;
#463 = DIRECTION ( 'NONE',  ( -0.7071067811865511300, 0.0000000000000000000, 0.7071067811865439100 ) ) ;
#464 = DIRECTION ( 'NONE',  ( 0.0000000000000000000, 0.0000000000000000000, -1.000000000000000000 ) ) ;
#465 = CARTESIAN_POINT ( 'NONE',  ( 0.0000000000000000000, 54.00000000000000000, 0.0000000000000000000 ) ) ;
#466 = VECTOR ( 'NONE', #540, 1000.000000000000000 ) ;
#467 = PERSON_AND_ORGANIZATION ( #370, #205 ) ;
#468 = APPROVAL ( #109, 'UNSPECIFIED' ) ;
#469 = ORIENTED_EDGE ( 'NONE', *, *, #85, .F. ) ;
#470 = DIRECTION ( 'NONE',  ( -0.0000000000000000000, -0.0000000000000000000, -1.000000000000000000 ) ) ;
#471 = VERTEX_POINT ( 'NONE', #371 ) ;
#472 = DIRECTION ( 'NONE',  ( -0.0000000000000000000, -1.000000000000000000, -0.0000000000000000000 ) ) ;
#473 = CIRCLE ( 'NONE', #548, 4.249999999999997300 ) ;
#474 = SECURITY_CLASSIFICATION_LEVEL ( 'unclassified' ) ;
#475 = DIRECTION ( 'NONE',  ( -1.000000000000000000, 0.0000000000000000000, 0.0000000000000000000 ) ) ;
#476 = ORIENTED_EDGE ( 'NONE', *, *, #173, .F. ) ;
#477 = ORIENTED_EDGE ( 'NONE', *, *, #173, .T. ) ;
#478 = PERSON_AND_ORGANIZATION_ROLE ( 'design_owner' ) ;
#479 = DIRECTION ( 'NONE',  ( 0.0000000000000000000, 0.0000000000000000000, 1.000000000000000000 ) ) ;
#480 = CARTESIAN_POINT ( 'NONE',  ( 11.59501306665690000, 54.00000000000000000, -22.90872156564149300 ) ) ;
#481 = AXIS2_PLACEMENT_3D ( 'NONE', #340, #77, #581 ) ;
#482 = APPLICATION_PROTOCOL_DEFINITION ( 'international standard', 'config_control_design', 1994, #76 ) ;
#483 = FACE_OUTER_BOUND ( 'NONE', #194, .T. ) ;
#484 = LINE ( 'NONE', #588, #592 ) ;
#485 = VERTEX_POINT ( 'NONE', #465 ) ;
#486 = ORIENTED_EDGE ( 'NONE', *, *, #300, .T. ) ;
#487 = ORIENTED_EDGE ( 'NONE', *, *, #144, .F. ) ;
#488 = CARTESIAN_POINT ( 'NONE',  ( 33.94112549695449100, 0.0000000000000000000, -42.42640687119266100 ) ) ;
#489 = DIRECTION ( 'NONE',  ( 0.0000000000000000000, 0.0000000000000000000, -1.000000000000000000 ) ) ;
#490 = VECTOR ( 'NONE', #542, 1000.000000000000000 ) ;
#491 = DIRECTION ( 'NONE',  ( -0.7071067811865511300, 0.0000000000000000000, 0.7071067811865439100 ) ) ;
#492 = ORIENTED_EDGE ( 'NONE', *, *, #556, .F. ) ;
#493 = ORIENTED_EDGE ( 'NONE', *, *, #35, .T. ) ;
#494 = CARTESIAN_POINT ( 'NONE',  ( -39.19891236737964100, 26.99999999999999600, -8.673617379884035500E-016 ) ) ;
#495 = CARTESIAN_POINT ( 'NONE',  ( 12.72792206135793500, 54.00000000000000000, -21.21320343559634100 ) ) ;
#496 = CIRCLE ( 'NONE', #369, 4.249999999999996400 ) ;
#497 = CYLINDRICAL_SURFACE ( 'NONE', #344, 4.249999999999997300 ) ;
#498 = CARTESIAN_POINT ( 'NONE',  ( -24.39782473475928600, 54.00000000000000000, -8.000000000000000000 ) ) ;
#499 = ORIENTED_EDGE ( 'NONE', *, *, #456, .F. ) ;
#500 = VERTEX_POINT ( 'NONE', #196 ) ;
#501 = CC_DESIGN_SECURITY_CLASSIFICATION ( #118, ( #214 ) ) ;
#502 = DIRECTION ( 'NONE',  ( 0.0000000000000000000, 1.000000000000000000, 0.0000000000000000000 ) ) ;
#503 = ADVANCED_FACE ( 'NONE', ( #527, #483 ), #517, .F. ) ;
#504 = CARTESIAN_POINT ( 'NONE',  ( 33.94112549695449100, 54.00000000000000000, -42.42640687119266100 ) ) ;
#505 = FACE_OUTER_BOUND ( 'NONE', #454, .T. ) ;
#506 = LOCAL_TIME ( 9, 44, 44.00000000000000000, #521 ) ;
#507 = CARTESIAN_POINT ( 'NONE',  ( 38.18376618407375400, 54.00000000000000000, -44.18376618407335600 ) ) ;
#508 = LINE ( 'NONE', #208, #15 ) ;
#509 = VERTEX_POINT ( 'NONE', #287 ) ;
#510 = EDGE_LOOP ( 'NONE', ( #570, #486 ) ) ;
#511 = DIRECTION ( 'NONE',  ( 0.0000000000000000000, -1.000000000000000000, 0.0000000000000000000 ) ) ;
#512 = DIRECTION ( 'NONE',  ( -0.7071067811865439100, 0.0000000000000000000, -0.7071067811865512400 ) ) ;
#513 = EDGE_CURVE ( 'NONE', #453, #1, #420, .T. ) ;
#514 = DIRECTION ( 'NONE',  ( -0.7071067811865436900, -0.0000000000000000000, -0.7071067811865514600 ) ) ;
#515 = ORIENTED_EDGE ( 'NONE', *, *, #215, .T. ) ;
#516 = ORIENTED_EDGE ( 'NONE', *, *, #219, .T. ) ;
#517 = PLANE ( 'NONE',  #102 ) ;
#518 = CARTESIAN_POINT ( 'NONE',  ( 38.18376618407375400, 54.00000000000000000, -38.18376618407335600 ) ) ;
#519 = DATE_TIME_ROLE ( 'creation_date' ) ;
#520 = CIRCLE ( 'NONE', #419, 5.999999999999998200 ) ;
#521 = COORDINATED_UNIVERSAL_TIME_OFFSET ( 1, 0, .AHEAD. ) ;
#522 = EDGE_CURVE ( 'NONE', #163, #75, #357, .T. ) ;
#523 = VERTEX_POINT ( 'NONE', #22 ) ;
#524 = DIRECTION ( 'NONE',  ( 0.0000000000000000000, 0.0000000000000000000, -1.000000000000000000 ) ) ;
#525 = EDGE_LOOP ( 'NONE', ( #424, #270, #321, #69 ) ) ;
#526 = CARTESIAN_POINT ( 'NONE',  ( -23.63245787002911100, 0.0000000000000000000, -6.152240934977424300 ) ) ;
#527 = FACE_BOUND ( 'NONE', #361, .T. ) ;
#528 = APPROVAL_STATUS ( 'not_yet_approved' ) ;
#529 = DIRECTION ( 'NONE',  ( -0.0000000000000000000, -1.000000000000000000, -0.0000000000000000000 ) ) ;
#530 = ORIENTED_EDGE ( 'NONE', *, *, #29, .F. ) ;
#531 = ORIENTED_EDGE ( 'NONE', *, *, #215, .F. ) ;
#532 = AXIS2_PLACEMENT_3D ( 'NONE', #547, #225, #138 ) ;
#533 = DIRECTION ( 'NONE',  ( -0.9238795325112877400, -0.0000000000000000000, 0.3826834323650875100 ) ) ;
#534 = COORDINATED_UNIVERSAL_TIME_OFFSET ( 1, 0, .AHEAD. ) ;
#535 = CIRCLE ( 'NONE', #181, 4.249999999999997300 ) ;
#536 = LOCAL_TIME ( 9, 44, 44.00000000000000000, #449 ) ;
#537 = ORIENTED_EDGE ( 'NONE', *, *, #230, .T. ) ;
#538 = AXIS2_PLACEMENT_3D ( 'NONE', #151, #472, #572 ) ;
#539 = DIRECTION ( 'NONE',  ( 0.0000000000000000000, -1.000000000000000000, -0.0000000000000000000 ) ) ;
#540 = DIRECTION ( 'NONE',  ( -1.000000000000000000, -0.0000000000000000000, -0.0000000000000000000 ) ) ;
#541 = CIRCLE ( 'NONE', #428, 2.000000000000001800 ) ;
#542 = DIRECTION ( 'NONE',  ( -0.0000000000000000000, -1.000000000000000000, -0.0000000000000000000 ) ) ;
#543 = LINE ( 'NONE', #257, #7 ) ;
#544 = EDGE_LOOP ( 'NONE', ( #401, #499 ) ) ;
#545 = ORIENTED_EDGE ( 'NONE', *, *, #513, .F. ) ;
#546 = ADVANCED_FACE ( 'NONE', ( #583 ), #231, .F. ) ;
#547 = CARTESIAN_POINT ( 'NONE',  ( 38.18376618407375400, 0.0000000000000000000, -38.18376618407335600 ) ) ;
#548 = AXIS2_PLACEMENT_3D ( 'NONE', #86, #442, #491 ) ;
#549 = DIRECTION ( 'NONE',  ( 0.0000000000000000000, 0.0000000000000000000, -1.000000000000000000 ) ) ;
#550 = CALENDAR_DATE ( 2018, 21, 6 ) ;
#551 = FACE_OUTER_BOUND ( 'NONE', #34, .T. ) ;
#552 = VECTOR ( 'NONE', #38, 1000.000000000000000 ) ;
#553 = DIRECTION ( 'NONE',  ( -0.7071067811865511300, 0.0000000000000000000, 0.7071067811865439100 ) ) ;
#554 = EDGE_LOOP ( 'NONE', ( #112, #469, #227, #201 ) ) ;
#555 = ORIENTED_EDGE ( 'NONE', *, *, #295, .T. ) ;
#556 = EDGE_CURVE ( 'NONE', #330, #485, #33, .T. ) ;
#557 = DIRECTION ( 'NONE',  ( -1.000000000000000000, 0.0000000000000000000, 0.0000000000000000000 ) ) ;
#558 = CARTESIAN_POINT ( 'NONE',  ( 0.0000000000000000000, 0.0000000000000000000, 0.0000000000000000000 ) ) ;
#559 = LOCAL_TIME ( 9, 44, 44.00000000000000000, #217 ) ;
#560 = EDGE_LOOP ( 'NONE', ( #294, #320, #255, #3 ) ) ;
#561 = CARTESIAN_POINT ( 'NONE',  ( 0.0000000000000000000, 54.00000000000000000, 0.0000000000000000000 ) ) ;
#562 = CC_DESIGN_PERSON_AND_ORGANIZATION_ASSIGNMENT ( #373, #426, ( #118 ) ) ;
#563 = DIRECTION ( 'NONE',  ( 0.0000000000000000000, 0.0000000000000000000, 1.000000000000000000 ) ) ;
#564 = DATE_AND_TIME ( #232, #126 ) ;
#565 = CYLINDRICAL_SURFACE ( 'NONE', #328, 2.000000000000000000 ) ;
#566 = APPROVAL_DATE_TIME ( #358, #114 ) ;
#567 =( GEOMETRIC_REPRESENTATION_CONTEXT ( 3 ) GLOBAL_UNCERTAINTY_ASSIGNED_CONTEXT ( ( #13 ) ) GLOBAL_UNIT_ASSIGNED_CONTEXT ( ( #159, #338, #427 ) ) REPRESENTATION_CONTEXT ( 'NONE', 'WORKASPACE' ) );
#568 = LINE ( 'NONE', #117, #32 ) ;
#569 = DIRECTION ( 'NONE',  ( -0.7071067811865435800, -0.0000000000000000000, -0.7071067811865513500 ) ) ;
#570 = ORIENTED_EDGE ( 'NONE', *, *, #391, .T. ) ;
#571 = ORIENTED_EDGE ( 'NONE', *, *, #337, .T. ) ;
#572 = DIRECTION ( 'NONE',  ( 0.0000000000000000000, 0.0000000000000000000, -1.000000000000000000 ) ) ;
#573 = AXIS2_PLACEMENT_3D ( 'NONE', #119, #539, #577 ) ;
#574 = PERSON_AND_ORGANIZATION_ROLE ( 'creator' ) ;
#575 = DIRECTION ( 'NONE',  ( 0.7071067811865512400, 0.0000000000000000000, -0.7071067811865439100 ) ) ;
#576 = ORIENTED_EDGE ( 'NONE', *, *, #295, .F. ) ;
#577 = DIRECTION ( 'NONE',  ( 0.0000000000000000000, 0.0000000000000000000, -1.000000000000000000 ) ) ;
#578 = APPROVAL_ROLE ( '' ) ;
#579 = CARTESIAN_POINT ( 'NONE',  ( -34.94891236737964800, 26.99999999999999600, -5.999999999999999100 ) ) ;
#580 = EDGE_CURVE ( 'NONE', #62, #89, #335, .T. ) ;
#581 = DIRECTION ( 'NONE',  ( 0.0000000000000000000, 0.0000000000000000000, -1.000000000000000000 ) ) ;
#582 = FACE_OUTER_BOUND ( 'NONE', #266, .T. ) ;
#583 = FACE_OUTER_BOUND ( 'NONE', #108, .T. ) ;
#584 = EDGE_CURVE ( 'NONE', #314, #331, #368, .T. ) ;
#585 = CARTESIAN_POINT ( 'NONE',  ( 20.46997224294942400, 26.99999999999999600, -28.95525361718771900 ) ) ;
#586 = EDGE_LOOP ( 'NONE', ( #487, #576, #313, #248 ) ) ;
#587 = AXIS2_PLACEMENT_3D ( 'NONE', #558, #563, #246 ) ;
#588 = CARTESIAN_POINT ( 'NONE',  ( -43.44891236737964100, 26.99999999999999600, -5.999999999999999100 ) ) ;
#589 = EDGE_CURVE ( 'NONE', #202, #286, #263, .T. ) ;
#590 = DIRECTION ( 'NONE',  ( 0.0000000000000000000, 1.000000000000000000, -0.0000000000000000000 ) ) ;
#591 = CARTESIAN_POINT ( 'NONE',  ( 0.0000000000000000000, 54.00000000000000000, 0.0000000000000000000 ) ) ;
#592 = VECTOR ( 'NONE', #389, 1000.000000000000000 ) ;
#593 = PERSON_AND_ORGANIZATION ( #370, #205 ) ;
ENDSEC;
END-ISO-10303-21;
