ISO-10303-21;
HEADER;
FILE_DESCRIPTION (( 'STEP AP203' ),
    '1' );
FILE_NAME ('ALP2012.STEP',
    '2017-02-17T16:26:41',
    ( '' ),
    ( '' ),
    'SwSTEP 2.0',
    'SolidWorks 2012',
    '' );
FILE_SCHEMA (( 'CONFIG_CONTROL_DESIGN' ));
ENDSEC;

DATA;
#1 = PERSON ( 'UNSPECIFIED', 'UNSPECIFIED', 'UNSPECIFIED', ('UNSPECIFIED'), ('UNSPECIFIED'), ('UNSPECIFIED') ) ;
#2 = PRODUCT ( 'ALP2012', 'ALP2012', '', ( #511 ) ) ;
#3 = CC_DESIGN_APPROVAL ( #11, ( #9 ) ) ;
#4 = CC_DESIGN_PERSON_AND_ORGANIZATION_ASSIGNMENT ( #363, #505, ( #9 ) ) ;
#5 = CC_DESIGN_DATE_AND_TIME_ASSIGNMENT ( #376, #519, ( #14 ) ) ;
#6 = APPROVAL ( #509, 'UNSPECIFIED' ) ;
#7 = CC_DESIGN_PERSON_AND_ORGANIZATION_ASSIGNMENT ( #364, #507, ( #22 ) ) ;
#8 = PRODUCT_RELATED_PRODUCT_CATEGORY ( 'detail', '', ( #2 ) ) ;
#9 = SECURITY_CLASSIFICATION ( '', '', #523 ) ;
#10 = CC_DESIGN_APPROVAL ( #6, ( #14 ) ) ;
#11 = APPROVAL ( #518, 'UNSPECIFIED' ) ;
#12 = AXIS2_PLACEMENT_3D ( 'NONE', #494, #495, #496 ) ;
#13 = AXIS2_PLACEMENT_3D ( 'NONE', #513, #524, #506 ) ;
#14 = PRODUCT_DEFINITION ( 'UNKNOWN', '', #22, #90 ) ;
#15 = CC_DESIGN_SECURITY_CLASSIFICATION ( #9, ( #22 ) ) ;
#16 = CC_DESIGN_APPROVAL ( #17, ( #22 ) ) ;
#17 = APPROVAL ( #515, 'UNSPECIFIED' ) ;
#18 = CC_DESIGN_PERSON_AND_ORGANIZATION_ASSIGNMENT ( #375, #520, ( #14 ) ) ;
#19 = CC_DESIGN_PERSON_AND_ORGANIZATION_ASSIGNMENT ( #345, #521, ( #22 ) ) ;
#20 = CC_DESIGN_PERSON_AND_ORGANIZATION_ASSIGNMENT ( #367, #514, ( #2 ) ) ;
#21 = CC_DESIGN_DATE_AND_TIME_ASSIGNMENT ( #342, #512, ( #9 ) ) ;
#22 = PRODUCT_DEFINITION_FORMATION_WITH_SPECIFIED_SOURCE ( 'ANY', '', #2, .NOT_KNOWN. ) ;
#23 = AXIS2_PLACEMENT_3D ( 'NONE', #490, #493, #498 ) ;
#24 =( GEOMETRIC_REPRESENTATION_CONTEXT ( 3 ) GLOBAL_UNCERTAINTY_ASSIGNED_CONTEXT ( ( #157 ) ) GLOBAL_UNIT_ASSIGNED_CONTEXT ( ( #501, #502, #503 ) ) REPRESENTATION_CONTEXT ( 'NONE', 'WORKASPACE' ) );
#25 = EDGE_CURVE ( 'NONE', #244, #242, #261, .T. ) ;
#26 = EDGE_CURVE ( 'NONE', #199, #233, #250, .T. ) ;
#27 = EDGE_CURVE ( 'NONE', #217, #231, #274, .T. ) ;
#28 = EDGE_CURVE ( 'NONE', #194, #231, #269, .T. ) ;
#29 = EDGE_CURVE ( 'NONE', #194, #198, #281, .T. ) ;
#30 = EDGE_CURVE ( 'NONE', #188, #184, #247, .T. ) ;
#31 = AXIS2_PLACEMENT_3D ( 'NONE', #408, #415, #417 ) ;
#32 = AXIS2_PLACEMENT_3D ( 'NONE', #414, #429, #406 ) ;
#33 = EDGE_CURVE ( 'NONE', #244, #176, #248, .T. ) ;
#34 = EDGE_CURVE ( 'NONE', #181, #188, #326, .T. ) ;
#35 = AXIS2_PLACEMENT_3D ( 'NONE', #455, #473, #453 ) ;
#36 = AXIS2_PLACEMENT_3D ( 'NONE', #469, #475, #478 ) ;
#37 = EDGE_CURVE ( 'NONE', #175, #232, #322, .T. ) ;
#38 = EDGE_CURVE ( 'NONE', #179, #232, #293, .T. ) ;
#39 = EDGE_CURVE ( 'NONE', #207, #175, #320, .T. ) ;
#40 = EDGE_CURVE ( 'NONE', #226, #182, #306, .T. ) ;
#41 = AXIS2_PLACEMENT_3D ( 'NONE', #149, #138, #150 ) ;
#42 = AXIS2_PLACEMENT_3D ( 'NONE', #142, #144, #145 ) ;
#43 = AXIS2_PLACEMENT_3D ( 'NONE', #137, #131, #134 ) ;
#44 = AXIS2_PLACEMENT_3D ( 'NONE', #447, #451, #481 ) ;
#45 = EDGE_CURVE ( 'NONE', #219, #183, #294, .T. ) ;
#46 = EDGE_CURVE ( 'NONE', #184, #233, #288, .T. ) ;
#47 = EDGE_CURVE ( 'NONE', #201, #219, #295, .T. ) ;
#48 = AXIS2_PLACEMENT_3D ( 'NONE', #445, #407, #487 ) ;
#49 = AXIS2_PLACEMENT_3D ( 'NONE', #124, #103, #98 ) ;
#50 = AXIS2_PLACEMENT_3D ( 'NONE', #460, #449, #462 ) ;
#51 = EDGE_CURVE ( 'NONE', #198, #199, #303, .T. ) ;
#52 = EDGE_CURVE ( 'NONE', #184, #230, #302, .T. ) ;
#53 = AXIS2_PLACEMENT_3D ( 'NONE', #122, #111, #114 ) ;
#54 = AXIS2_PLACEMENT_3D ( 'NONE', #448, #458, #459 ) ;
#55 = AXIS2_PLACEMENT_3D ( 'NONE', #456, #467, #461 ) ;
#56 = AXIS2_PLACEMENT_3D ( 'NONE', #465, #488, #468 ) ;
#57 = AXIS2_PLACEMENT_3D ( 'NONE', #432, #428, #430 ) ;
#58 = AXIS2_PLACEMENT_3D ( 'NONE', #466, #464, #480 ) ;
#59 = EDGE_CURVE ( 'NONE', #230, #181, #329, .T. ) ;
#60 = AXIS2_PLACEMENT_3D ( 'NONE', #500, #492, #499 ) ;
#61 = AXIS2_PLACEMENT_3D ( 'NONE', #477, #450, #479 ) ;
#62 = EDGE_CURVE ( 'NONE', #198, #217, #296, .T. ) ;
#63 = AXIS2_PLACEMENT_3D ( 'NONE', #431, #435, #437 ) ;
#64 = AXIS2_PLACEMENT_3D ( 'NONE', #483, #463, #472 ) ;
#65 = EDGE_CURVE ( 'NONE', #231, #244, #332, .T. ) ;
#66 = EDGE_CURVE ( 'NONE', #183, #242, #314, .T. ) ;
#67 = EDGE_CURVE ( 'NONE', #201, #188, #319, .T. ) ;
#68 = EDGE_CURVE ( 'NONE', #219, #181, #305, .T. ) ;
#69 = EDGE_CURVE ( 'NONE', #232, #179, #321, .T. ) ;
#70 = EDGE_CURVE ( 'NONE', #206, #226, #287, .T. ) ;
#71 = EDGE_CURVE ( 'NONE', #230, #199, #292, .T. ) ;
#72 = EDGE_CURVE ( 'NONE', #176, #183, #300, .T. ) ;
#73 = AXIS2_PLACEMENT_3D ( 'NONE', #97, #95, #92 ) ;
#74 = AXIS2_PLACEMENT_3D ( 'NONE', #93, #110, #112 ) ;
#75 = EDGE_CURVE ( 'NONE', #220, #182, #301, .T. ) ;
#76 = AXIS2_PLACEMENT_3D ( 'NONE', #441, #421, #427 ) ;
#77 = EDGE_CURVE ( 'NONE', #176, #217, #289, .T. ) ;
#78 = EDGE_CURVE ( 'NONE', #206, #220, #307, .T. ) ;
#79 = EDGE_CURVE ( 'NONE', #207, #179, #323, .T. ) ;
#80 = EDGE_CURVE ( 'NONE', #220, #206, #324, .T. ) ;
#81 = AXIS2_PLACEMENT_3D ( 'NONE', #105, #121, #106 ) ;
#82 = EDGE_CURVE ( 'NONE', #242, #201, #304, .T. ) ;
#83 = AXIS2_PLACEMENT_3D ( 'NONE', #419, #416, #413 ) ;
#84 = EDGE_CURVE ( 'NONE', #175, #207, #313, .T. ) ;
#85 = AXIS2_PLACEMENT_3D ( 'NONE', #129, #130, #132 ) ;
#86 = EDGE_CURVE ( 'NONE', #233, #194, #315, .T. ) ;
#87 = AXIS2_PLACEMENT_3D ( 'NONE', #412, #424, #425 ) ;
#88 = EDGE_CURVE ( 'NONE', #182, #226, #312, .T. ) ;
#89 = PRODUCT_DEFINITION_SHAPE ( 'NONE', 'NONE',  #14 ) ;
#90 = DESIGN_CONTEXT ( 'detailed design', #522, 'design' ) ;
#91 = DIRECTION ( 'NONE',  ( 0.0000000000000000000, 1.000000000000000000, 0.0000000000000000000 ) ) ;
#92 = DIRECTION ( 'NONE',  ( -1.000000000000000000, 0.0000000000000000000, 0.0000000000000000000 ) ) ;
#93 = CARTESIAN_POINT ( 'NONE',  ( 12.00000000000000400, 27.00000000000000400, 0.0000000000000000000 ) ) ;
#94 = CARTESIAN_POINT ( 'NONE',  ( -11.99999999999999600, 30.00000000000000400, 3.000000000000000000 ) ) ;
#95 = DIRECTION ( 'NONE',  ( -0.0000000000000000000, -0.0000000000000000000, 1.000000000000000000 ) ) ;
#96 = CARTESIAN_POINT ( 'NONE',  ( -3.399999999999999900, 15.00000000000000000, -8.673617379884035500E-016 ) ) ;
#97 = CARTESIAN_POINT ( 'NONE',  ( -11.99999999999999600, 27.00000000000000000, 3.000000000000000000 ) ) ;
#98 = DIRECTION ( 'NONE',  ( 1.000000000000000000, 0.0000000000000000000, 0.0000000000000000000 ) ) ;
#99 = CARTESIAN_POINT ( 'NONE',  ( -14.99999999999999600, -29.99999999999999600, 3.000000000000000000 ) ) ;
#100 = DIRECTION ( 'NONE',  ( 1.000000000000000000, 0.0000000000000000000, 0.0000000000000000000 ) ) ;
#101 = CARTESIAN_POINT ( 'NONE',  ( -14.99999999999999600, -26.99999999999999600, 3.000000000000000000 ) ) ;
#102 = DIRECTION ( 'NONE',  ( -0.0000000000000000000, -0.0000000000000000000, 1.000000000000000000 ) ) ;
#103 = DIRECTION ( 'NONE',  ( 0.0000000000000000000, 0.0000000000000000000, 1.000000000000000000 ) ) ;
#104 = DIRECTION ( 'NONE',  ( 0.0000000000000000000, 0.0000000000000000000, -1.000000000000000000 ) ) ;
#105 = CARTESIAN_POINT ( 'NONE',  ( 0.0000000000000000000, -15.00000000000000000, 3.000000000000000000 ) ) ;
#106 = DIRECTION ( 'NONE',  ( -1.000000000000000000, 0.0000000000000000000, 0.0000000000000000000 ) ) ;
#107 = CARTESIAN_POINT ( 'NONE',  ( -11.99999999999999600, -29.99999999999999600, 3.000000000000000000 ) ) ;
#108 = CARTESIAN_POINT ( 'NONE',  ( -14.99999999999999600, -29.99999999999999600, 3.000000000000000000 ) ) ;
#109 = DIRECTION ( 'NONE',  ( 0.0000000000000000000, 0.0000000000000000000, -1.000000000000000000 ) ) ;
#110 = DIRECTION ( 'NONE',  ( 0.0000000000000000000, 0.0000000000000000000, -1.000000000000000000 ) ) ;
#111 = DIRECTION ( 'NONE',  ( 0.0000000000000000000, 0.0000000000000000000, -1.000000000000000000 ) ) ;
#112 = DIRECTION ( 'NONE',  ( -1.000000000000000000, 0.0000000000000000000, 0.0000000000000000000 ) ) ;
#113 = CARTESIAN_POINT ( 'NONE',  ( 12.00000000000000400, -29.99999999999999600, 3.000000000000000000 ) ) ;
#114 = DIRECTION ( 'NONE',  ( -1.000000000000000000, 0.0000000000000000000, 0.0000000000000000000 ) ) ;
#115 = DIRECTION ( 'NONE',  ( -0.0000000000000000000, -1.000000000000000000, -0.0000000000000000000 ) ) ;
#116 = CARTESIAN_POINT ( 'NONE',  ( 15.00000000000000400, -26.99999999999999600, 3.000000000000000000 ) ) ;
#117 = DIRECTION ( 'NONE',  ( 0.0000000000000000000, 0.0000000000000000000, -1.000000000000000000 ) ) ;
#118 = DIRECTION ( 'NONE',  ( -0.0000000000000000000, -0.0000000000000000000, 1.000000000000000000 ) ) ;
#119 = DIRECTION ( 'NONE',  ( -0.7071067811865486800, 8.659560562354947600E-017, 0.7071067811865464600 ) ) ;
#120 = DIRECTION ( 'NONE',  ( -0.0000000000000000000, -0.0000000000000000000, 1.000000000000000000 ) ) ;
#121 = DIRECTION ( 'NONE',  ( 0.0000000000000000000, 0.0000000000000000000, -1.000000000000000000 ) ) ;
#122 = CARTESIAN_POINT ( 'NONE',  ( 0.0000000000000000000, 15.00000000000000000, 3.000000000000000000 ) ) ;
#123 = CARTESIAN_POINT ( 'NONE',  ( 15.00000000000000400, -29.99999999999999600, 3.000000000000000000 ) ) ;
#124 = CARTESIAN_POINT ( 'NONE',  ( 0.0000000000000000000, 15.00000000000000000, 0.0000000000000000000 ) ) ;
#125 = CARTESIAN_POINT ( 'NONE',  ( -14.99999999999999600, 27.00000000000000000, 3.000000000000000000 ) ) ;
#126 = DIRECTION ( 'NONE',  ( 0.0000000000000000000, 0.0000000000000000000, -1.000000000000000000 ) ) ;
#127 = CARTESIAN_POINT ( 'NONE',  ( 12.00000000000000400, 30.00000000000000400, 3.000000000000000000 ) ) ;
#128 = CARTESIAN_POINT ( 'NONE',  ( -14.99999999999999600, -29.99999999999999600, 0.0000000000000000000 ) ) ;
#129 = CARTESIAN_POINT ( 'NONE',  ( -11.99999999999999600, 27.00000000000000000, 0.0000000000000000000 ) ) ;
#130 = DIRECTION ( 'NONE',  ( 0.0000000000000000000, 0.0000000000000000000, -1.000000000000000000 ) ) ;
#131 = DIRECTION ( 'NONE',  ( 0.0000000000000000000, 0.0000000000000000000, -1.000000000000000000 ) ) ;
#132 = DIRECTION ( 'NONE',  ( -1.000000000000000000, 0.0000000000000000000, 0.0000000000000000000 ) ) ;
#133 = CARTESIAN_POINT ( 'NONE',  ( 15.00000000000000400, 27.00000000000000000, 3.000000000000000000 ) ) ;
#134 = DIRECTION ( 'NONE',  ( -1.000000000000000000, 0.0000000000000000000, 0.0000000000000000000 ) ) ;
#135 = DIRECTION ( 'NONE',  ( 1.000000000000000000, 0.0000000000000000000, 0.0000000000000000000 ) ) ;
#136 = DIRECTION ( 'NONE',  ( -0.0000000000000000000, -0.0000000000000000000, 1.000000000000000000 ) ) ;
#137 = CARTESIAN_POINT ( 'NONE',  ( -11.99999999999999600, -26.99999999999999600, 0.0000000000000000000 ) ) ;
#138 = DIRECTION ( 'NONE',  ( -0.0000000000000000000, -0.0000000000000000000, 1.000000000000000000 ) ) ;
#139 = DIRECTION ( 'NONE',  ( -1.000000000000000000, -0.0000000000000000000, -0.0000000000000000000 ) ) ;
#140 = DIRECTION ( 'NONE',  ( -0.7071067811865486800, 8.659560562354947600E-017, 0.7071067811865464600 ) ) ;
#141 = DIRECTION ( 'NONE',  ( -0.0000000000000000000, -1.000000000000000000, -0.0000000000000000000 ) ) ;
#142 = CARTESIAN_POINT ( 'NONE',  ( 0.0000000000000000000, 15.00000000000000000, 3.000000000000000000 ) ) ;
#143 = DIRECTION ( 'NONE',  ( -1.000000000000000000, -0.0000000000000000000, -0.0000000000000000000 ) ) ;
#144 = DIRECTION ( 'NONE',  ( 0.0000000000000000000, 0.0000000000000000000, -1.000000000000000000 ) ) ;
#145 = DIRECTION ( 'NONE',  ( -1.000000000000000000, 0.0000000000000000000, 0.0000000000000000000 ) ) ;
#146 = CARTESIAN_POINT ( 'NONE',  ( -14.99999999999999600, -29.99999999999999600, 0.0000000000000000000 ) ) ;
#147 = CARTESIAN_POINT ( 'NONE',  ( -3.399999999999999900, -15.00000000000000000, -8.673617379884035500E-016 ) ) ;
#148 = CARTESIAN_POINT ( 'NONE',  ( -14.99999999999999600, 30.00000000000000400, 0.0000000000000000000 ) ) ;
#149 = CARTESIAN_POINT ( 'NONE',  ( 12.00000000000000400, -26.99999999999999600, 3.000000000000000000 ) ) ;
#150 = DIRECTION ( 'NONE',  ( -1.000000000000000000, 0.0000000000000000000, 0.0000000000000000000 ) ) ;
#151 = CARTESIAN_POINT ( 'NONE',  ( -14.99999999999999600, 30.00000000000000400, 3.000000000000000000 ) ) ;
#152 = CARTESIAN_POINT ( 'NONE',  ( 3.399999999999999900, -15.00000000000000000, -8.673617379884035500E-016 ) ) ;
#153 = DIRECTION ( 'NONE',  ( 0.7071067811865486800, 0.0000000000000000000, 0.7071067811865464600 ) ) ;
#154 = CARTESIAN_POINT ( 'NONE',  ( 15.00000000000000400, -29.99999999999999600, 0.0000000000000000000 ) ) ;
#155 = DIRECTION ( 'NONE',  ( 0.0000000000000000000, 1.000000000000000000, 0.0000000000000000000 ) ) ;
#156 = ADVANCED_BREP_SHAPE_REPRESENTATION ( 'ALP2012', ( #158, #13 ), #24 ) ;
#157 = UNCERTAINTY_MEASURE_WITH_UNIT (LENGTH_MEASURE( 1.000000000000000100E-005 ), #501, 'distance_accuracy_value', 'NONE');
#158 = MANIFOLD_SOLID_BREP ( 'Fillet1', #160 ) ;
#159 = EDGE_LOOP ( 'NONE', ( #243, #237, #236, #209 ) ) ;
#160 = CLOSED_SHELL ( 'NONE', ( #402, #403, #398, #393, #404, #405, #395, #396, #394, #399, #401, #400, #392, #397 ) ) ;
#161 = EDGE_LOOP ( 'NONE', ( #213, #218 ) ) ;
#162 = EDGE_LOOP ( 'NONE', ( #229, #241, #227, #193 ) ) ;
#163 = EDGE_LOOP ( 'NONE', ( #225, #238, #240, #275, #265, #245, #262, #285 ) ) ;
#164 = EDGE_LOOP ( 'NONE', ( #200, #210 ) ) ;
#165 = EDGE_LOOP ( 'NONE', ( #266, #254, #260, #253 ) ) ;
#166 = EDGE_LOOP ( 'NONE', ( #234, #235, #203, #221 ) ) ;
#167 = EDGE_LOOP ( 'NONE', ( #211, #187 ) ) ;
#168 = EDGE_LOOP ( 'NONE', ( #278, #276, #273, #268 ) ) ;
#169 = EDGE_LOOP ( 'NONE', ( #277, #267, #257, #272 ) ) ;
#170 = EDGE_LOOP ( 'NONE', ( #197, #239 ) ) ;
#171 = EDGE_LOOP ( 'NONE', ( #189, #195, #185, #214 ) ) ;
#172 = EDGE_LOOP ( 'NONE', ( #224, #215, #222, #190 ) ) ;
#173 = EDGE_LOOP ( 'NONE', ( #263, #283, #255, #271 ) ) ;
#174 = EDGE_LOOP ( 'NONE', ( #249, #258, #256, #251 ) ) ;
#175 = VERTEX_POINT ( 'NONE', #420 ) ;
#176 = VERTEX_POINT ( 'NONE', #410 ) ;
#177 = EDGE_LOOP ( 'NONE', ( #280, #284, #246, #264 ) ) ;
#178 = EDGE_LOOP ( 'NONE', ( #186, #208, #223, #202 ) ) ;
#179 = VERTEX_POINT ( 'NONE', #436 ) ;
#180 = EDGE_LOOP ( 'NONE', ( #191, #212, #216, #204, #205, #196, #192, #228 ) ) ;
#181 = VERTEX_POINT ( 'NONE', #423 ) ;
#182 = VERTEX_POINT ( 'NONE', #411 ) ;
#183 = VERTEX_POINT ( 'NONE', #433 ) ;
#184 = VERTEX_POINT ( 'NONE', #426 ) ;
#185 = ORIENTED_EDGE ( 'NONE', *, *, #88, .F. ) ;
#186 = ORIENTED_EDGE ( 'NONE', *, *, #72, .T. ) ;
#187 = ORIENTED_EDGE ( 'NONE', *, *, #69, .T. ) ;
#188 = VERTEX_POINT ( 'NONE', #434 ) ;
#189 = ORIENTED_EDGE ( 'NONE', *, *, #78, .F. ) ;
#190 = ORIENTED_EDGE ( 'NONE', *, *, #47, .T. ) ;
#191 = ORIENTED_EDGE ( 'NONE', *, *, #67, .T. ) ;
#192 = ORIENTED_EDGE ( 'NONE', *, *, #25, .T. ) ;
#193 = ORIENTED_EDGE ( 'NONE', *, *, #26, .T. ) ;
#194 = VERTEX_POINT ( 'NONE', #444 ) ;
#195 = ORIENTED_EDGE ( 'NONE', *, *, #70, .T. ) ;
#196 = ORIENTED_EDGE ( 'NONE', *, *, #65, .T. ) ;
#197 = ORIENTED_EDGE ( 'NONE', *, *, #80, .T. ) ;
#198 = VERTEX_POINT ( 'NONE', #439 ) ;
#199 = VERTEX_POINT ( 'NONE', #409 ) ;
#200 = ORIENTED_EDGE ( 'NONE', *, *, #88, .T. ) ;
#201 = VERTEX_POINT ( 'NONE', #438 ) ;
#202 = ORIENTED_EDGE ( 'NONE', *, *, #33, .T. ) ;
#203 = ORIENTED_EDGE ( 'NONE', *, *, #38, .F. ) ;
#204 = ORIENTED_EDGE ( 'NONE', *, *, #86, .T. ) ;
#205 = ORIENTED_EDGE ( 'NONE', *, *, #28, .T. ) ;
#206 = VERTEX_POINT ( 'NONE', #442 ) ;
#207 = VERTEX_POINT ( 'NONE', #443 ) ;
#208 = ORIENTED_EDGE ( 'NONE', *, *, #66, .T. ) ;
#209 = ORIENTED_EDGE ( 'NONE', *, *, #29, .T. ) ;
#210 = ORIENTED_EDGE ( 'NONE', *, *, #40, .T. ) ;
#211 = ORIENTED_EDGE ( 'NONE', *, *, #38, .T. ) ;
#212 = ORIENTED_EDGE ( 'NONE', *, *, #30, .T. ) ;
#213 = ORIENTED_EDGE ( 'NONE', *, *, #39, .T. ) ;
#214 = ORIENTED_EDGE ( 'NONE', *, *, #75, .F. ) ;
#215 = ORIENTED_EDGE ( 'NONE', *, *, #34, .T. ) ;
#216 = ORIENTED_EDGE ( 'NONE', *, *, #46, .T. ) ;
#217 = VERTEX_POINT ( 'NONE', #484 ) ;
#218 = ORIENTED_EDGE ( 'NONE', *, *, #84, .T. ) ;
#219 = VERTEX_POINT ( 'NONE', #440 ) ;
#220 = VERTEX_POINT ( 'NONE', #446 ) ;
#221 = ORIENTED_EDGE ( 'NONE', *, *, #79, .F. ) ;
#222 = ORIENTED_EDGE ( 'NONE', *, *, #67, .F. ) ;
#223 = ORIENTED_EDGE ( 'NONE', *, *, #25, .F. ) ;
#224 = ORIENTED_EDGE ( 'NONE', *, *, #68, .T. ) ;
#225 = ORIENTED_EDGE ( 'NONE', *, *, #71, .F. ) ;
#226 = VERTEX_POINT ( 'NONE', #482 ) ;
#227 = ORIENTED_EDGE ( 'NONE', *, *, #71, .T. ) ;
#228 = ORIENTED_EDGE ( 'NONE', *, *, #82, .T. ) ;
#229 = ORIENTED_EDGE ( 'NONE', *, *, #46, .F. ) ;
#230 = VERTEX_POINT ( 'NONE', #485 ) ;
#231 = VERTEX_POINT ( 'NONE', #452 ) ;
#232 = VERTEX_POINT ( 'NONE', #486 ) ;
#233 = VERTEX_POINT ( 'NONE', #474 ) ;
#234 = ORIENTED_EDGE ( 'NONE', *, *, #84, .F. ) ;
#235 = ORIENTED_EDGE ( 'NONE', *, *, #37, .T. ) ;
#236 = ORIENTED_EDGE ( 'NONE', *, *, #28, .F. ) ;
#237 = ORIENTED_EDGE ( 'NONE', *, *, #27, .T. ) ;
#238 = ORIENTED_EDGE ( 'NONE', *, *, #59, .T. ) ;
#239 = ORIENTED_EDGE ( 'NONE', *, *, #78, .T. ) ;
#240 = ORIENTED_EDGE ( 'NONE', *, *, #68, .F. ) ;
#241 = ORIENTED_EDGE ( 'NONE', *, *, #52, .T. ) ;
#242 = VERTEX_POINT ( 'NONE', #457 ) ;
#243 = ORIENTED_EDGE ( 'NONE', *, *, #62, .T. ) ;
#244 = VERTEX_POINT ( 'NONE', #454 ) ;
#245 = ORIENTED_EDGE ( 'NONE', *, *, #77, .T. ) ;
#246 = ORIENTED_EDGE ( 'NONE', *, *, #79, .T. ) ;
#247 = CIRCLE ( 'NONE', #73, 2.999999999999999100 ) ;
#248 = LINE ( 'NONE', #116, #270 ) ;
#249 = ORIENTED_EDGE ( 'NONE', *, *, #65, .F. ) ;
#250 = LINE ( 'NONE', #101, #252 ) ;
#251 = ORIENTED_EDGE ( 'NONE', *, *, #33, .F. ) ;
#252 = VECTOR ( 'NONE', #102, 1000.000000000000000 ) ;
#253 = ORIENTED_EDGE ( 'NONE', *, *, #29, .F. ) ;
#254 = ORIENTED_EDGE ( 'NONE', *, *, #26, .F. ) ;
#255 = ORIENTED_EDGE ( 'NONE', *, *, #75, .T. ) ;
#256 = ORIENTED_EDGE ( 'NONE', *, *, #77, .F. ) ;
#257 = ORIENTED_EDGE ( 'NONE', *, *, #59, .F. ) ;
#258 = ORIENTED_EDGE ( 'NONE', *, *, #27, .F. ) ;
#259 = VECTOR ( 'NONE', #91, 1000.000000000000000 ) ;
#260 = ORIENTED_EDGE ( 'NONE', *, *, #51, .F. ) ;
#261 = LINE ( 'NONE', #123, #259 ) ;
#262 = ORIENTED_EDGE ( 'NONE', *, *, #62, .F. ) ;
#263 = ORIENTED_EDGE ( 'NONE', *, *, #70, .F. ) ;
#264 = ORIENTED_EDGE ( 'NONE', *, *, #69, .F. ) ;
#265 = ORIENTED_EDGE ( 'NONE', *, *, #72, .F. ) ;
#266 = ORIENTED_EDGE ( 'NONE', *, *, #86, .F. ) ;
#267 = ORIENTED_EDGE ( 'NONE', *, *, #34, .F. ) ;
#268 = ORIENTED_EDGE ( 'NONE', *, *, #47, .F. ) ;
#269 = LINE ( 'NONE', #99, #286 ) ;
#270 = VECTOR ( 'NONE', #117, 1000.000000000000000 ) ;
#271 = ORIENTED_EDGE ( 'NONE', *, *, #40, .F. ) ;
#272 = ORIENTED_EDGE ( 'NONE', *, *, #52, .F. ) ;
#273 = ORIENTED_EDGE ( 'NONE', *, *, #45, .F. ) ;
#274 = LINE ( 'NONE', #113, #279 ) ;
#275 = ORIENTED_EDGE ( 'NONE', *, *, #45, .T. ) ;
#276 = ORIENTED_EDGE ( 'NONE', *, *, #66, .F. ) ;
#277 = ORIENTED_EDGE ( 'NONE', *, *, #30, .F. ) ;
#278 = ORIENTED_EDGE ( 'NONE', *, *, #82, .F. ) ;
#279 = VECTOR ( 'NONE', #120, 1000.000000000000000 ) ;
#280 = ORIENTED_EDGE ( 'NONE', *, *, #37, .F. ) ;
#281 = LINE ( 'NONE', #107, #282 ) ;
#282 = VECTOR ( 'NONE', #104, 1000.000000000000000 ) ;
#283 = ORIENTED_EDGE ( 'NONE', *, *, #80, .F. ) ;
#284 = ORIENTED_EDGE ( 'NONE', *, *, #39, .F. ) ;
#285 = ORIENTED_EDGE ( 'NONE', *, *, #51, .T. ) ;
#286 = VECTOR ( 'NONE', #100, 1000.000000000000000 ) ;
#287 = LINE ( 'NONE', #147, #311 ) ;
#288 = LINE ( 'NONE', #108, #327 ) ;
#289 = CIRCLE ( 'NONE', #76, 2.999999999999999100 ) ;
#290 = VECTOR ( 'NONE', #135, 1000.000000000000000 ) ;
#291 = VECTOR ( 'NONE', #155, 1000.000000000000000 ) ;
#292 = LINE ( 'NONE', #146, #298 ) ;
#293 = CIRCLE ( 'NONE', #53, 6.400000000000011000 ) ;
#294 = CIRCLE ( 'NONE', #74, 2.999999999999999100 ) ;
#295 = LINE ( 'NONE', #127, #299 ) ;
#296 = LINE ( 'NONE', #128, #290 ) ;
#297 = VECTOR ( 'NONE', #143, 1000.000000000000000 ) ;
#298 = VECTOR ( 'NONE', #141, 1000.000000000000000 ) ;
#299 = VECTOR ( 'NONE', #126, 1000.000000000000000 ) ;
#300 = LINE ( 'NONE', #154, #291 ) ;
#301 = LINE ( 'NONE', #152, #334 ) ;
#302 = LINE ( 'NONE', #125, #308 ) ;
#303 = CIRCLE ( 'NONE', #43, 2.999999999999999100 ) ;
#304 = CIRCLE ( 'NONE', #83, 2.999999999999999100 ) ;
#305 = LINE ( 'NONE', #148, #297 ) ;
#306 = CIRCLE ( 'NONE', #81, 6.400000000000011000 ) ;
#307 = CIRCLE ( 'NONE', #63, 3.399999999999999900 ) ;
#308 = VECTOR ( 'NONE', #109, 1000.000000000000000 ) ;
#309 = FACE_OUTER_BOUND ( 'NONE', #174, .T. ) ;
#310 = VECTOR ( 'NONE', #418, 1000.000000000000000 ) ;
#311 = VECTOR ( 'NONE', #140, 1000.000000000000000 ) ;
#312 = CIRCLE ( 'NONE', #32, 6.400000000000011000 ) ;
#313 = CIRCLE ( 'NONE', #31, 3.399999999999999900 ) ;
#314 = LINE ( 'NONE', #133, #335 ) ;
#315 = CIRCLE ( 'NONE', #57, 2.999999999999999100 ) ;
#316 = FACE_OUTER_BOUND ( 'NONE', #172, .T. ) ;
#317 = FACE_OUTER_BOUND ( 'NONE', #173, .T. ) ;
#318 = FACE_BOUND ( 'NONE', #170, .T. ) ;
#319 = LINE ( 'NONE', #151, #330 ) ;
#320 = CIRCLE ( 'NONE', #49, 3.399999999999999900 ) ;
#321 = CIRCLE ( 'NONE', #42, 6.400000000000011000 ) ;
#322 = LINE ( 'NONE', #96, #331 ) ;
#323 = LINE ( 'NONE', #422, #310 ) ;
#324 = CIRCLE ( 'NONE', #87, 3.399999999999999900 ) ;
#325 = CONICAL_SURFACE ( 'NONE', #35, 3.399999999999999900, 0.7853981633974498300 ) ;
#326 = LINE ( 'NONE', #94, #333 ) ;
#327 = VECTOR ( 'NONE', #115, 1000.000000000000000 ) ;
#328 = CYLINDRICAL_SURFACE ( 'NONE', #48, 2.999999999999999100 ) ;
#329 = CIRCLE ( 'NONE', #85, 2.999999999999999100 ) ;
#330 = VECTOR ( 'NONE', #139, 1000.000000000000000 ) ;
#331 = VECTOR ( 'NONE', #119, 1000.000000000000000 ) ;
#332 = CIRCLE ( 'NONE', #41, 2.999999999999999100 ) ;
#333 = VECTOR ( 'NONE', #118, 1000.000000000000000 ) ;
#334 = VECTOR ( 'NONE', #153, 1000.000000000000000 ) ;
#335 = VECTOR ( 'NONE', #136, 1000.000000000000000 ) ;
#336 = CALENDAR_DATE ( 2017, 17, 2 ) ;
#337 = PERSON_AND_ORGANIZATION ( #1, #369 ) ;
#338 = DATE_AND_TIME ( #373, #380 ) ;
#339 = APPROVAL_DATE_TIME ( #338, #17 ) ;
#340 = LOCAL_TIME ( 17, 26, 41.00000000000000000, #350 ) ;
#341 = CALENDAR_DATE ( 2017, 17, 2 ) ;
#342 = DATE_AND_TIME ( #341, #340 ) ;
#343 = FACE_OUTER_BOUND ( 'NONE', #166, .T. ) ;
#344 = APPROVAL_DATE_TIME ( #360, #6 ) ;
#345 = PERSON_AND_ORGANIZATION ( #1, #369 ) ;
#346 = FACE_OUTER_BOUND ( 'NONE', #163, .T. ) ;
#347 = CONICAL_SURFACE ( 'NONE', #50, 3.399999999999999900, 0.7853981633974498300 ) ;
#348 = LOCAL_TIME ( 17, 26, 41.00000000000000000, #371 ) ;
#349 = CALENDAR_DATE ( 2017, 17, 2 ) ;
#350 = COORDINATED_UNIVERSAL_TIME_OFFSET ( 1, 0, .AHEAD. ) ;
#351 = FACE_BOUND ( 'NONE', #164, .T. ) ;
#352 = CYLINDRICAL_SURFACE ( 'NONE', #64, 2.999999999999999100 ) ;
#353 = CONICAL_SURFACE ( 'NONE', #56, 3.399999999999999900, 0.7853981633974498300 ) ;
#354 = LOCAL_TIME ( 17, 26, 41.00000000000000000, #356 ) ;
#355 = FACE_OUTER_BOUND ( 'NONE', #177, .T. ) ;
#356 = COORDINATED_UNIVERSAL_TIME_OFFSET ( 1, 0, .AHEAD. ) ;
#357 = PERSON_AND_ORGANIZATION ( #1, #369 ) ;
#358 = FACE_OUTER_BOUND ( 'NONE', #162, .T. ) ;
#359 = CYLINDRICAL_SURFACE ( 'NONE', #54, 2.999999999999999100 ) ;
#360 = DATE_AND_TIME ( #336, #348 ) ;
#361 = FACE_BOUND ( 'NONE', #161, .T. ) ;
#362 = APPROVAL_PERSON_ORGANIZATION ( #370, #6, #510 ) ;
#363 = PERSON_AND_ORGANIZATION ( #1, #369 ) ;
#364 = PERSON_AND_ORGANIZATION ( #1, #369 ) ;
#365 = FACE_OUTER_BOUND ( 'NONE', #165, .T. ) ;
#366 = CONICAL_SURFACE ( 'NONE', #60, 3.399999999999999900, 0.7853981633974498300 ) ;
#367 = PERSON_AND_ORGANIZATION ( #1, #369 ) ;
#368 = FACE_OUTER_BOUND ( 'NONE', #169, .T. ) ;
#369 = ORGANIZATION ( 'UNSPECIFIED', 'UNSPECIFIED', '' ) ;
#370 = PERSON_AND_ORGANIZATION ( #1, #369 ) ;
#371 = COORDINATED_UNIVERSAL_TIME_OFFSET ( 1, 0, .AHEAD. ) ;
#372 = APPROVAL_PERSON_ORGANIZATION ( #337, #17, #517 ) ;
#373 = CALENDAR_DATE ( 2017, 17, 2 ) ;
#374 = FACE_OUTER_BOUND ( 'NONE', #180, .T. ) ;
#375 = PERSON_AND_ORGANIZATION ( #1, #369 ) ;
#376 = DATE_AND_TIME ( #349, #354 ) ;
#377 = FACE_OUTER_BOUND ( 'NONE', #159, .T. ) ;
#378 = FACE_OUTER_BOUND ( 'NONE', #171, .T. ) ;
#379 = COORDINATED_UNIVERSAL_TIME_OFFSET ( 1, 0, .AHEAD. ) ;
#380 = LOCAL_TIME ( 17, 26, 41.00000000000000000, #379 ) ;
#381 = CYLINDRICAL_SURFACE ( 'NONE', #61, 2.999999999999999100 ) ;
#382 = FACE_OUTER_BOUND ( 'NONE', #178, .T. ) ;
#383 = FACE_BOUND ( 'NONE', #167, .T. ) ;
#384 = SHAPE_DEFINITION_REPRESENTATION ( #89, #156 ) ;
#385 = FACE_OUTER_BOUND ( 'NONE', #168, .T. ) ;
#386 = COORDINATED_UNIVERSAL_TIME_OFFSET ( 1, 0, .AHEAD. ) ;
#387 = LOCAL_TIME ( 17, 26, 41.00000000000000000, #386 ) ;
#388 = APPROVAL_PERSON_ORGANIZATION ( #357, #11, #516 ) ;
#389 = APPROVAL_DATE_TIME ( #391, #11 ) ;
#390 = CALENDAR_DATE ( 2017, 17, 2 ) ;
#391 = DATE_AND_TIME ( #390, #387 ) ;
#392 = ADVANCED_FACE ( 'NONE', ( #309 ), #328, .T. ) ;
#393 = ADVANCED_FACE ( 'NONE', ( #316 ), #470, .F. ) ;
#394 = ADVANCED_FACE ( 'NONE', ( #317 ), #325, .F. ) ;
#395 = ADVANCED_FACE ( 'NONE', ( #351, #383, #374 ), #489, .F. ) ;
#396 = ADVANCED_FACE ( 'NONE', ( #318, #361, #346 ), #471, .T. ) ;
#397 = ADVANCED_FACE ( 'NONE', ( #365 ), #359, .T. ) ;
#398 = ADVANCED_FACE ( 'NONE', ( #382 ), #476, .F. ) ;
#399 = ADVANCED_FACE ( 'NONE', ( #355 ), #347, .F. ) ;
#400 = ADVANCED_FACE ( 'NONE', ( #385 ), #381, .T. ) ;
#401 = ADVANCED_FACE ( 'NONE', ( #368 ), #352, .T. ) ;
#402 = ADVANCED_FACE ( 'NONE', ( #343 ), #353, .F. ) ;
#403 = ADVANCED_FACE ( 'NONE', ( #378 ), #366, .F. ) ;
#404 = ADVANCED_FACE ( 'NONE', ( #358 ), #497, .F. ) ;
#405 = ADVANCED_FACE ( 'NONE', ( #377 ), #491, .F. ) ;
#406 = DIRECTION ( 'NONE',  ( -1.000000000000000000, 0.0000000000000000000, 0.0000000000000000000 ) ) ;
#407 = DIRECTION ( 'NONE',  ( 0.0000000000000000000, 0.0000000000000000000, -1.000000000000000000 ) ) ;
#408 = CARTESIAN_POINT ( 'NONE',  ( 0.0000000000000000000, 15.00000000000000000, 0.0000000000000000000 ) ) ;
#409 = CARTESIAN_POINT ( 'NONE',  ( -14.99999999999999600, -26.99999999999999600, 0.0000000000000000000 ) ) ;
#410 = CARTESIAN_POINT ( 'NONE',  ( 15.00000000000000400, -26.99999999999999600, 0.0000000000000000000 ) ) ;
#411 = CARTESIAN_POINT ( 'NONE',  ( 6.400000000000010100, -15.00000000000000000, 3.000000000000000000 ) ) ;
#412 = CARTESIAN_POINT ( 'NONE',  ( 0.0000000000000000000, -15.00000000000000000, 0.0000000000000000000 ) ) ;
#413 = DIRECTION ( 'NONE',  ( -1.000000000000000000, 0.0000000000000000000, 0.0000000000000000000 ) ) ;
#414 = CARTESIAN_POINT ( 'NONE',  ( 0.0000000000000000000, -15.00000000000000000, 3.000000000000000000 ) ) ;
#415 = DIRECTION ( 'NONE',  ( 0.0000000000000000000, 0.0000000000000000000, 1.000000000000000000 ) ) ;
#416 = DIRECTION ( 'NONE',  ( -0.0000000000000000000, -0.0000000000000000000, 1.000000000000000000 ) ) ;
#417 = DIRECTION ( 'NONE',  ( 1.000000000000000000, 0.0000000000000000000, 0.0000000000000000000 ) ) ;
#418 = DIRECTION ( 'NONE',  ( 0.7071067811865486800, 0.0000000000000000000, 0.7071067811865464600 ) ) ;
#419 = CARTESIAN_POINT ( 'NONE',  ( 12.00000000000000400, 27.00000000000000400, 3.000000000000000000 ) ) ;
#420 = CARTESIAN_POINT ( 'NONE',  ( -3.399999999999999900, 15.00000000000000000, 0.0000000000000000000 ) ) ;
#421 = DIRECTION ( 'NONE',  ( 0.0000000000000000000, 0.0000000000000000000, -1.000000000000000000 ) ) ;
#422 = CARTESIAN_POINT ( 'NONE',  ( 3.399999999999999900, 15.00000000000000000, -8.673617379884035500E-016 ) ) ;
#423 = CARTESIAN_POINT ( 'NONE',  ( -11.99999999999999600, 30.00000000000000400, 0.0000000000000000000 ) ) ;
#424 = DIRECTION ( 'NONE',  ( 0.0000000000000000000, 0.0000000000000000000, 1.000000000000000000 ) ) ;
#425 = DIRECTION ( 'NONE',  ( 1.000000000000000000, 0.0000000000000000000, 0.0000000000000000000 ) ) ;
#426 = CARTESIAN_POINT ( 'NONE',  ( -14.99999999999999600, 27.00000000000000000, 3.000000000000000000 ) ) ;
#427 = DIRECTION ( 'NONE',  ( -1.000000000000000000, 0.0000000000000000000, 0.0000000000000000000 ) ) ;
#428 = DIRECTION ( 'NONE',  ( -0.0000000000000000000, -0.0000000000000000000, 1.000000000000000000 ) ) ;
#429 = DIRECTION ( 'NONE',  ( 0.0000000000000000000, 0.0000000000000000000, -1.000000000000000000 ) ) ;
#430 = DIRECTION ( 'NONE',  ( -1.000000000000000000, 0.0000000000000000000, 0.0000000000000000000 ) ) ;
#431 = CARTESIAN_POINT ( 'NONE',  ( 0.0000000000000000000, -15.00000000000000000, 0.0000000000000000000 ) ) ;
#432 = CARTESIAN_POINT ( 'NONE',  ( -11.99999999999999600, -26.99999999999999600, 3.000000000000000000 ) ) ;
#433 = CARTESIAN_POINT ( 'NONE',  ( 15.00000000000000400, 27.00000000000000000, 0.0000000000000000000 ) ) ;
#434 = CARTESIAN_POINT ( 'NONE',  ( -11.99999999999999600, 30.00000000000000400, 3.000000000000000000 ) ) ;
#435 = DIRECTION ( 'NONE',  ( 0.0000000000000000000, 0.0000000000000000000, 1.000000000000000000 ) ) ;
#436 = CARTESIAN_POINT ( 'NONE',  ( 6.400000000000010100, 15.00000000000000000, 3.000000000000000000 ) ) ;
#437 = DIRECTION ( 'NONE',  ( 1.000000000000000000, 0.0000000000000000000, 0.0000000000000000000 ) ) ;
#438 = CARTESIAN_POINT ( 'NONE',  ( 12.00000000000000400, 30.00000000000000400, 3.000000000000000000 ) ) ;
#439 = CARTESIAN_POINT ( 'NONE',  ( -11.99999999999999600, -29.99999999999999600, 0.0000000000000000000 ) ) ;
#440 = CARTESIAN_POINT ( 'NONE',  ( 12.00000000000000400, 30.00000000000000400, 0.0000000000000000000 ) ) ;
#441 = CARTESIAN_POINT ( 'NONE',  ( 12.00000000000000400, -26.99999999999999600, 0.0000000000000000000 ) ) ;
#442 = CARTESIAN_POINT ( 'NONE',  ( -3.399999999999999900, -15.00000000000000000, 0.0000000000000000000 ) ) ;
#443 = CARTESIAN_POINT ( 'NONE',  ( 3.399999999999999900, 15.00000000000000000, 0.0000000000000000000 ) ) ;
#444 = CARTESIAN_POINT ( 'NONE',  ( -11.99999999999999600, -29.99999999999999600, 3.000000000000000000 ) ) ;
#445 = CARTESIAN_POINT ( 'NONE',  ( 12.00000000000000400, -26.99999999999999600, 3.000000000000000000 ) ) ;
#446 = CARTESIAN_POINT ( 'NONE',  ( 3.399999999999999900, -15.00000000000000000, 0.0000000000000000000 ) ) ;
#447 = CARTESIAN_POINT ( 'NONE',  ( -14.99999999999999600, 30.00000000000000400, 3.000000000000000000 ) ) ;
#448 = CARTESIAN_POINT ( 'NONE',  ( -11.99999999999999600, -26.99999999999999600, 3.000000000000000000 ) ) ;
#449 = DIRECTION ( 'NONE',  ( 0.0000000000000000000, 0.0000000000000000000, 1.000000000000000000 ) ) ;
#450 = DIRECTION ( 'NONE',  ( 0.0000000000000000000, 0.0000000000000000000, -1.000000000000000000 ) ) ;
#451 = DIRECTION ( 'NONE',  ( 0.0000000000000000000, -1.000000000000000000, 0.0000000000000000000 ) ) ;
#452 = CARTESIAN_POINT ( 'NONE',  ( 12.00000000000000400, -29.99999999999999600, 3.000000000000000000 ) ) ;
#453 = DIRECTION ( 'NONE',  ( 1.000000000000000000, 0.0000000000000000000, 0.0000000000000000000 ) ) ;
#454 = CARTESIAN_POINT ( 'NONE',  ( 15.00000000000000400, -26.99999999999999600, 3.000000000000000000 ) ) ;
#455 = CARTESIAN_POINT ( 'NONE',  ( 0.0000000000000000000, -15.00000000000000000, -8.673617379884035500E-016 ) ) ;
#456 = CARTESIAN_POINT ( 'NONE',  ( 15.00000000000000400, -29.99999999999999600, 3.000000000000000000 ) ) ;
#457 = CARTESIAN_POINT ( 'NONE',  ( 15.00000000000000400, 27.00000000000000000, 3.000000000000000000 ) ) ;
#458 = DIRECTION ( 'NONE',  ( 0.0000000000000000000, 0.0000000000000000000, -1.000000000000000000 ) ) ;
#459 = DIRECTION ( 'NONE',  ( -1.000000000000000000, 0.0000000000000000000, 0.0000000000000000000 ) ) ;
#460 = CARTESIAN_POINT ( 'NONE',  ( 0.0000000000000000000, 15.00000000000000000, -8.673617379884035500E-016 ) ) ;
#461 = DIRECTION ( 'NONE',  ( 0.0000000000000000000, 0.0000000000000000000, 1.000000000000000000 ) ) ;
#462 = DIRECTION ( 'NONE',  ( 1.000000000000000000, 0.0000000000000000000, 0.0000000000000000000 ) ) ;
#463 = DIRECTION ( 'NONE',  ( 0.0000000000000000000, 0.0000000000000000000, -1.000000000000000000 ) ) ;
#464 = DIRECTION ( 'NONE',  ( 0.0000000000000000000, 0.0000000000000000000, -1.000000000000000000 ) ) ;
#465 = CARTESIAN_POINT ( 'NONE',  ( 0.0000000000000000000, 15.00000000000000000, -8.673617379884035500E-016 ) ) ;
#466 = CARTESIAN_POINT ( 'NONE',  ( 0.0000000000000000000, 0.0000000000000000000, 0.0000000000000000000 ) ) ;
#467 = DIRECTION ( 'NONE',  ( -1.000000000000000000, 0.0000000000000000000, 0.0000000000000000000 ) ) ;
#468 = DIRECTION ( 'NONE',  ( 1.000000000000000000, 0.0000000000000000000, 0.0000000000000000000 ) ) ;
#469 = CARTESIAN_POINT ( 'NONE',  ( 0.0000000000000000000, 0.0000000000000000000, 3.000000000000000000 ) ) ;
#470 = PLANE ( 'NONE',  #44 ) ;
#471 = PLANE ( 'NONE',  #58 ) ;
#472 = DIRECTION ( 'NONE',  ( -1.000000000000000000, 0.0000000000000000000, 0.0000000000000000000 ) ) ;
#473 = DIRECTION ( 'NONE',  ( 0.0000000000000000000, 0.0000000000000000000, 1.000000000000000000 ) ) ;
#474 = CARTESIAN_POINT ( 'NONE',  ( -14.99999999999999600, -26.99999999999999600, 3.000000000000000000 ) ) ;
#475 = DIRECTION ( 'NONE',  ( 0.0000000000000000000, 0.0000000000000000000, -1.000000000000000000 ) ) ;
#476 = PLANE ( 'NONE',  #55 ) ;
#477 = CARTESIAN_POINT ( 'NONE',  ( 12.00000000000000400, 27.00000000000000400, 3.000000000000000000 ) ) ;
#478 = DIRECTION ( 'NONE',  ( -1.000000000000000000, 0.0000000000000000000, -0.0000000000000000000 ) ) ;
#479 = DIRECTION ( 'NONE',  ( -1.000000000000000000, 0.0000000000000000000, 0.0000000000000000000 ) ) ;
#480 = DIRECTION ( 'NONE',  ( -1.000000000000000000, 0.0000000000000000000, -0.0000000000000000000 ) ) ;
#481 = DIRECTION ( 'NONE',  ( 0.0000000000000000000, -0.0000000000000000000, -1.000000000000000000 ) ) ;
#482 = CARTESIAN_POINT ( 'NONE',  ( -6.400000000000010100, -15.00000000000000000, 3.000000000000000000 ) ) ;
#483 = CARTESIAN_POINT ( 'NONE',  ( -11.99999999999999600, 27.00000000000000000, 3.000000000000000000 ) ) ;
#484 = CARTESIAN_POINT ( 'NONE',  ( 12.00000000000000400, -29.99999999999999600, 0.0000000000000000000 ) ) ;
#485 = CARTESIAN_POINT ( 'NONE',  ( -14.99999999999999600, 27.00000000000000000, 0.0000000000000000000 ) ) ;
#486 = CARTESIAN_POINT ( 'NONE',  ( -6.400000000000010100, 15.00000000000000000, 3.000000000000000000 ) ) ;
#487 = DIRECTION ( 'NONE',  ( -1.000000000000000000, 0.0000000000000000000, 0.0000000000000000000 ) ) ;
#488 = DIRECTION ( 'NONE',  ( 0.0000000000000000000, 0.0000000000000000000, 1.000000000000000000 ) ) ;
#489 = PLANE ( 'NONE',  #36 ) ;
#490 = CARTESIAN_POINT ( 'NONE',  ( -14.99999999999999600, -29.99999999999999600, 3.000000000000000000 ) ) ;
#491 = PLANE ( 'NONE',  #12 ) ;
#492 = DIRECTION ( 'NONE',  ( 0.0000000000000000000, 0.0000000000000000000, 1.000000000000000000 ) ) ;
#493 = DIRECTION ( 'NONE',  ( 1.000000000000000000, 0.0000000000000000000, 0.0000000000000000000 ) ) ;
#494 = CARTESIAN_POINT ( 'NONE',  ( -14.99999999999999600, -29.99999999999999600, 3.000000000000000000 ) ) ;
#495 = DIRECTION ( 'NONE',  ( 0.0000000000000000000, 1.000000000000000000, 0.0000000000000000000 ) ) ;
#496 = DIRECTION ( 'NONE',  ( 0.0000000000000000000, -0.0000000000000000000, 1.000000000000000000 ) ) ;
#497 = PLANE ( 'NONE',  #23 ) ;
#498 = DIRECTION ( 'NONE',  ( 0.0000000000000000000, 0.0000000000000000000, -1.000000000000000000 ) ) ;
#499 = DIRECTION ( 'NONE',  ( 1.000000000000000000, 0.0000000000000000000, 0.0000000000000000000 ) ) ;
#500 = CARTESIAN_POINT ( 'NONE',  ( 0.0000000000000000000, -15.00000000000000000, -8.673617379884035500E-016 ) ) ;
#501 =( LENGTH_UNIT ( ) NAMED_UNIT ( * ) SI_UNIT ( .MILLI., .METRE. ) );
#502 =( NAMED_UNIT ( * ) PLANE_ANGLE_UNIT ( ) SI_UNIT ( $, .RADIAN. ) );
#503 =( NAMED_UNIT ( * ) SI_UNIT ( $, .STERADIAN. ) SOLID_ANGLE_UNIT ( ) );
#504 = APPLICATION_PROTOCOL_DEFINITION ( 'international standard', 'config_control_design', 1994, #525 ) ;
#505 = PERSON_AND_ORGANIZATION_ROLE ( 'classification_officer' ) ;
#506 = DIRECTION ( 'NONE',  ( 1.000000000000000000, 0.0000000000000000000, 0.0000000000000000000 ) ) ;
#507 = PERSON_AND_ORGANIZATION_ROLE ( 'design_supplier' ) ;
#508 = APPLICATION_PROTOCOL_DEFINITION ( 'international standard', 'config_control_design', 1994, #522 ) ;
#509 = APPROVAL_STATUS ( 'not_yet_approved' ) ;
#510 = APPROVAL_ROLE ( '' ) ;
#511 = MECHANICAL_CONTEXT ( 'NONE', #525, 'mechanical' ) ;
#512 = DATE_TIME_ROLE ( 'classification_date' ) ;
#513 = CARTESIAN_POINT ( 'NONE',  ( 0.0000000000000000000, 0.0000000000000000000, 0.0000000000000000000 ) ) ;
#514 = PERSON_AND_ORGANIZATION_ROLE ( 'design_owner' ) ;
#515 = APPROVAL_STATUS ( 'not_yet_approved' ) ;
#516 = APPROVAL_ROLE ( '' ) ;
#517 = APPROVAL_ROLE ( '' ) ;
#518 = APPROVAL_STATUS ( 'not_yet_approved' ) ;
#519 = DATE_TIME_ROLE ( 'creation_date' ) ;
#520 = PERSON_AND_ORGANIZATION_ROLE ( 'creator' ) ;
#521 = PERSON_AND_ORGANIZATION_ROLE ( 'creator' ) ;
#522 = APPLICATION_CONTEXT ( 'configuration controlled 3d designs of mechanical parts and assemblies' ) ;
#523 = SECURITY_CLASSIFICATION_LEVEL ( 'unclassified' ) ;
#524 = DIRECTION ( 'NONE',  ( 0.0000000000000000000, 0.0000000000000000000, 1.000000000000000000 ) ) ;
#525 = APPLICATION_CONTEXT ( 'configuration controlled 3d designs of mechanical parts and assemblies' ) ;
ENDSEC;
END-ISO-10303-21;
