ISO-10303-21;
HEADER;
/* Generated by software containing ST-Developer
 * from STEP Tools, Inc. (www.steptools.com) 
 */

FILE_DESCRIPTION(
/* description */ (''),
/* implementation_level */ '2;1');

FILE_NAME(
/* name */ 'ALP2156.step',
/* time_stamp */ '2023-03-21T12:22:43+01:00',
/* author */ (''),
/* organization */ (''),
/* preprocessor_version */ 'ST-DEVELOPER v19.2',
/* originating_system */ 'Autodesk Translation Framework v11.17.0.187',

/* authorisation */ '');

FILE_SCHEMA (('AUTOMOTIVE_DESIGN { 1 0 10303 214 3 1 1 }'));
ENDSEC;

DATA;
#10=MECHANICAL_DESIGN_GEOMETRIC_PRESENTATION_REPRESENTATION('',(#13),#914);
#11=SHAPE_REPRESENTATION_RELATIONSHIP('SRR','None',#921,#12);
#12=ADVANCED_BREP_SHAPE_REPRESENTATION('',(#14),#913);
#13=STYLED_ITEM('',(#930),#14);
#14=MANIFOLD_SOLID_BREP('Body1',#530);
#15=FACE_BOUND('',#110,.T.);
#16=FACE_BOUND('',#111,.T.);
#17=FACE_BOUND('',#120,.T.);
#18=FACE_BOUND('',#121,.T.);
#19=FACE_BOUND('',#124,.T.);
#20=FACE_BOUND('',#125,.T.);
#21=FACE_BOUND('',#129,.T.);
#22=FACE_BOUND('',#130,.T.);
#23=CIRCLE('',#546,4.25);
#24=CIRCLE('',#547,4.25);
#25=CIRCLE('',#550,4.25000000000001);
#26=CIRCLE('',#551,4.25000000000001);
#27=CIRCLE('',#554,4.25);
#28=CIRCLE('',#555,4.25);
#29=CIRCLE('',#558,4.25);
#30=CIRCLE('',#559,4.25);
#31=CIRCLE('',#561,54.25);
#32=CIRCLE('',#562,54.25);
#33=CIRCLE('',#564,4.25);
#34=CIRCLE('',#565,4.25);
#35=CIRCLE('',#567,45.75);
#36=CIRCLE('',#568,45.75);
#37=CIRCLE('',#570,4.25);
#38=CIRCLE('',#571,4.25);
#39=CIRCLE('',#573,4.25);
#40=CIRCLE('',#574,4.25);
#41=CIRCLE('',#576,0.5);
#42=CIRCLE('',#577,0.5);
#43=CIRCLE('',#580,0.5);
#44=CIRCLE('',#582,0.5);
#45=CIRCLE('',#585,3.);
#46=CIRCLE('',#586,3.);
#47=CIRCLE('',#589,0.5);
#48=CIRCLE('',#591,0.5);
#49=CIRCLE('',#596,65.);
#50=CIRCLE('',#599,65.);
#51=CYLINDRICAL_SURFACE('',#545,4.25);
#52=CYLINDRICAL_SURFACE('',#549,4.25000000000001);
#53=CYLINDRICAL_SURFACE('',#553,4.25);
#54=CYLINDRICAL_SURFACE('',#557,4.25);
#55=CYLINDRICAL_SURFACE('',#560,54.25);
#56=CYLINDRICAL_SURFACE('',#563,4.25);
#57=CYLINDRICAL_SURFACE('',#566,45.75);
#58=CYLINDRICAL_SURFACE('',#569,4.25);
#59=CYLINDRICAL_SURFACE('',#572,4.25);
#60=CYLINDRICAL_SURFACE('',#575,0.5);
#61=CYLINDRICAL_SURFACE('',#581,0.5);
#62=CYLINDRICAL_SURFACE('',#584,3.);
#63=CYLINDRICAL_SURFACE('',#592,0.5);
#64=CYLINDRICAL_SURFACE('',#598,65.);
#65=FACE_OUTER_BOUND('',#94,.T.);
#66=FACE_OUTER_BOUND('',#95,.T.);
#67=FACE_OUTER_BOUND('',#96,.T.);
#68=FACE_OUTER_BOUND('',#97,.T.);
#69=FACE_OUTER_BOUND('',#98,.T.);
#70=FACE_OUTER_BOUND('',#99,.T.);
#71=FACE_OUTER_BOUND('',#100,.T.);
#72=FACE_OUTER_BOUND('',#101,.T.);
#73=FACE_OUTER_BOUND('',#102,.T.);
#74=FACE_OUTER_BOUND('',#103,.T.);
#75=FACE_OUTER_BOUND('',#104,.T.);
#76=FACE_OUTER_BOUND('',#105,.T.);
#77=FACE_OUTER_BOUND('',#106,.T.);
#78=FACE_OUTER_BOUND('',#107,.T.);
#79=FACE_OUTER_BOUND('',#108,.T.);
#80=FACE_OUTER_BOUND('',#109,.T.);
#81=FACE_OUTER_BOUND('',#112,.T.);
#82=FACE_OUTER_BOUND('',#113,.T.);
#83=FACE_OUTER_BOUND('',#114,.T.);
#84=FACE_OUTER_BOUND('',#115,.T.);
#85=FACE_OUTER_BOUND('',#116,.T.);
#86=FACE_OUTER_BOUND('',#117,.T.);
#87=FACE_OUTER_BOUND('',#118,.T.);
#88=FACE_OUTER_BOUND('',#119,.T.);
#89=FACE_OUTER_BOUND('',#122,.T.);
#90=FACE_OUTER_BOUND('',#123,.T.);
#91=FACE_OUTER_BOUND('',#126,.T.);
#92=FACE_OUTER_BOUND('',#127,.T.);
#93=FACE_OUTER_BOUND('',#128,.T.);
#94=EDGE_LOOP('',(#340,#341,#342,#343));
#95=EDGE_LOOP('',(#344,#345,#346,#347));
#96=EDGE_LOOP('',(#348,#349,#350,#351));
#97=EDGE_LOOP('',(#352,#353,#354,#355));
#98=EDGE_LOOP('',(#356,#357,#358,#359));
#99=EDGE_LOOP('',(#360,#361,#362,#363));
#100=EDGE_LOOP('',(#364,#365,#366,#367));
#101=EDGE_LOOP('',(#368,#369,#370,#371));
#102=EDGE_LOOP('',(#372,#373,#374,#375));
#103=EDGE_LOOP('',(#376,#377,#378,#379));
#104=EDGE_LOOP('',(#380,#381,#382,#383));
#105=EDGE_LOOP('',(#384,#385,#386,#387));
#106=EDGE_LOOP('',(#388,#389,#390,#391));
#107=EDGE_LOOP('',(#392,#393,#394,#395));
#108=EDGE_LOOP('',(#396,#397,#398,#399));
#109=EDGE_LOOP('',(#400,#401,#402,#403,#404,#405));
#110=EDGE_LOOP('',(#406,#407,#408,#409));
#111=EDGE_LOOP('',(#410,#411,#412,#413));
#112=EDGE_LOOP('',(#414,#415,#416,#417));
#113=EDGE_LOOP('',(#418,#419,#420,#421));
#114=EDGE_LOOP('',(#422,#423,#424,#425));
#115=EDGE_LOOP('',(#426,#427,#428,#429));
#116=EDGE_LOOP('',(#430,#431,#432,#433));
#117=EDGE_LOOP('',(#434,#435,#436,#437));
#118=EDGE_LOOP('',(#438,#439,#440,#441));
#119=EDGE_LOOP('',(#442,#443,#444,#445,#446,#447));
#120=EDGE_LOOP('',(#448,#449,#450,#451));
#121=EDGE_LOOP('',(#452,#453,#454,#455));
#122=EDGE_LOOP('',(#456,#457,#458,#459));
#123=EDGE_LOOP('',(#460,#461,#462,#463));
#124=EDGE_LOOP('',(#464,#465,#466,#467));
#125=EDGE_LOOP('',(#468));
#126=EDGE_LOOP('',(#469,#470,#471,#472));
#127=EDGE_LOOP('',(#473,#474,#475,#476));
#128=EDGE_LOOP('',(#477,#478,#479,#480));
#129=EDGE_LOOP('',(#481,#482,#483,#484));
#130=EDGE_LOOP('',(#485));
#131=LINE('',#766,#176);
#132=LINE('',#768,#177);
#133=LINE('',#770,#178);
#134=LINE('',#771,#179);
#135=LINE('',#776,#180);
#136=LINE('',#780,#181);
#137=LINE('',#782,#182);
#138=LINE('',#783,#183);
#139=LINE('',#790,#184);
#140=LINE('',#792,#185);
#141=LINE('',#794,#186);
#142=LINE('',#795,#187);
#143=LINE('',#800,#188);
#144=LINE('',#804,#189);
#145=LINE('',#806,#190);
#146=LINE('',#807,#191);
#147=LINE('',#816,#192);
#148=LINE('',#819,#193);
#149=LINE('',#824,#194);
#150=LINE('',#830,#195);
#151=LINE('',#839,#196);
#152=LINE('',#846,#197);
#153=LINE('',#849,#198);
#154=LINE('',#852,#199);
#155=LINE('',#854,#200);
#156=LINE('',#855,#201);
#157=LINE('',#858,#202);
#158=LINE('',#860,#203);
#159=LINE('',#862,#204);
#160=LINE('',#867,#205);
#161=LINE('',#870,#206);
#162=LINE('',#871,#207);
#163=LINE('',#874,#208);
#164=LINE('',#878,#209);
#165=LINE('',#881,#210);
#166=LINE('',#882,#211);
#167=LINE('',#886,#212);
#168=LINE('',#889,#213);
#169=LINE('',#892,#214);
#170=LINE('',#896,#215);
#171=LINE('',#898,#216);
#172=LINE('',#899,#217);
#173=LINE('',#902,#218);
#174=LINE('',#906,#219);
#175=LINE('',#907,#220);
#176=VECTOR('',#605,10.);
#177=VECTOR('',#606,10.);
#178=VECTOR('',#607,10.);
#179=VECTOR('',#608,10.);
#180=VECTOR('',#613,10.);
#181=VECTOR('',#618,10.);
#182=VECTOR('',#619,10.);
#183=VECTOR('',#620,10.);
#184=VECTOR('',#629,10.);
#185=VECTOR('',#630,10.);
#186=VECTOR('',#631,10.);
#187=VECTOR('',#632,10.);
#188=VECTOR('',#637,10.);
#189=VECTOR('',#642,10.);
#190=VECTOR('',#643,10.);
#191=VECTOR('',#644,10.);
#192=VECTOR('',#655,10.);
#193=VECTOR('',#658,10.);
#194=VECTOR('',#663,10.);
#195=VECTOR('',#670,10.);
#196=VECTOR('',#683,4.25);
#197=VECTOR('',#690,10.);
#198=VECTOR('',#693,10.);
#199=VECTOR('',#696,10.);
#200=VECTOR('',#697,10.);
#201=VECTOR('',#698,10.);
#202=VECTOR('',#701,1.6);
#203=VECTOR('',#702,10.);
#204=VECTOR('',#703,1.6);
#205=VECTOR('',#710,10.);
#206=VECTOR('',#713,10.);
#207=VECTOR('',#714,10.);
#208=VECTOR('',#717,10.);
#209=VECTOR('',#720,10.);
#210=VECTOR('',#725,1.6);
#211=VECTOR('',#726,10.);
#212=VECTOR('',#731,10.);
#213=VECTOR('',#734,10.);
#214=VECTOR('',#739,10.);
#215=VECTOR('',#744,10.);
#216=VECTOR('',#745,10.);
#217=VECTOR('',#746,10.);
#218=VECTOR('',#749,10.);
#219=VECTOR('',#754,10.);
#220=VECTOR('',#755,10.);
#221=VERTEX_POINT('',#764);
#222=VERTEX_POINT('',#765);
#223=VERTEX_POINT('',#767);
#224=VERTEX_POINT('',#769);
#225=VERTEX_POINT('',#773);
#226=VERTEX_POINT('',#775);
#227=VERTEX_POINT('',#779);
#228=VERTEX_POINT('',#781);
#229=VERTEX_POINT('',#788);
#230=VERTEX_POINT('',#789);
#231=VERTEX_POINT('',#791);
#232=VERTEX_POINT('',#793);
#233=VERTEX_POINT('',#797);
#234=VERTEX_POINT('',#799);
#235=VERTEX_POINT('',#803);
#236=VERTEX_POINT('',#805);
#237=VERTEX_POINT('',#812);
#238=VERTEX_POINT('',#813);
#239=VERTEX_POINT('',#815);
#240=VERTEX_POINT('',#817);
#241=VERTEX_POINT('',#821);
#242=VERTEX_POINT('',#823);
#243=VERTEX_POINT('',#827);
#244=VERTEX_POINT('',#829);
#245=VERTEX_POINT('',#836);
#246=VERTEX_POINT('',#838);
#247=VERTEX_POINT('',#842);
#248=VERTEX_POINT('',#843);
#249=VERTEX_POINT('',#845);
#250=VERTEX_POINT('',#847);
#251=VERTEX_POINT('',#851);
#252=VERTEX_POINT('',#853);
#253=VERTEX_POINT('',#857);
#254=VERTEX_POINT('',#859);
#255=VERTEX_POINT('',#861);
#256=VERTEX_POINT('',#865);
#257=VERTEX_POINT('',#869);
#258=VERTEX_POINT('',#873);
#259=VERTEX_POINT('',#875);
#260=VERTEX_POINT('',#877);
#261=VERTEX_POINT('',#884);
#262=VERTEX_POINT('',#888);
#263=VERTEX_POINT('',#895);
#264=VERTEX_POINT('',#897);
#265=VERTEX_POINT('',#901);
#266=VERTEX_POINT('',#905);
#267=EDGE_CURVE('',#221,#222,#131,.T.);
#268=EDGE_CURVE('',#221,#223,#132,.T.);
#269=EDGE_CURVE('',#224,#223,#133,.T.);
#270=EDGE_CURVE('',#222,#224,#134,.T.);
#271=EDGE_CURVE('',#225,#221,#23,.T.);
#272=EDGE_CURVE('',#225,#226,#135,.T.);
#273=EDGE_CURVE('',#223,#226,#24,.T.);
#274=EDGE_CURVE('',#227,#225,#136,.T.);
#275=EDGE_CURVE('',#227,#228,#137,.T.);
#276=EDGE_CURVE('',#226,#228,#138,.T.);
#277=EDGE_CURVE('',#222,#227,#25,.T.);
#278=EDGE_CURVE('',#228,#224,#26,.T.);
#279=EDGE_CURVE('',#229,#230,#139,.T.);
#280=EDGE_CURVE('',#229,#231,#140,.T.);
#281=EDGE_CURVE('',#232,#231,#141,.T.);
#282=EDGE_CURVE('',#230,#232,#142,.T.);
#283=EDGE_CURVE('',#233,#229,#27,.T.);
#284=EDGE_CURVE('',#233,#234,#143,.T.);
#285=EDGE_CURVE('',#231,#234,#28,.T.);
#286=EDGE_CURVE('',#235,#233,#144,.T.);
#287=EDGE_CURVE('',#235,#236,#145,.T.);
#288=EDGE_CURVE('',#234,#236,#146,.T.);
#289=EDGE_CURVE('',#230,#235,#29,.T.);
#290=EDGE_CURVE('',#236,#232,#30,.T.);
#291=EDGE_CURVE('',#237,#238,#31,.T.);
#292=EDGE_CURVE('',#237,#239,#147,.T.);
#293=EDGE_CURVE('',#240,#239,#32,.T.);
#294=EDGE_CURVE('',#238,#240,#148,.T.);
#295=EDGE_CURVE('',#241,#237,#33,.T.);
#296=EDGE_CURVE('',#241,#242,#149,.T.);
#297=EDGE_CURVE('',#239,#242,#34,.T.);
#298=EDGE_CURVE('',#243,#241,#35,.T.);
#299=EDGE_CURVE('',#243,#244,#150,.T.);
#300=EDGE_CURVE('',#242,#244,#36,.T.);
#301=EDGE_CURVE('',#238,#243,#37,.T.);
#302=EDGE_CURVE('',#244,#240,#38,.T.);
#303=EDGE_CURVE('',#245,#245,#39,.T.);
#304=EDGE_CURVE('',#245,#246,#151,.T.);
#305=EDGE_CURVE('',#246,#246,#40,.T.);
#306=EDGE_CURVE('',#247,#248,#41,.T.);
#307=EDGE_CURVE('',#248,#249,#152,.T.);
#308=EDGE_CURVE('',#249,#250,#42,.T.);
#309=EDGE_CURVE('',#250,#247,#153,.T.);
#310=EDGE_CURVE('',#251,#250,#154,.T.);
#311=EDGE_CURVE('',#252,#251,#155,.T.);
#312=EDGE_CURVE('',#247,#252,#156,.T.);
#313=EDGE_CURVE('',#249,#253,#157,.T.);
#314=EDGE_CURVE('',#253,#254,#158,.T.);
#315=EDGE_CURVE('',#255,#254,#159,.T.);
#316=EDGE_CURVE('',#251,#255,#43,.T.);
#317=EDGE_CURVE('',#256,#252,#44,.T.);
#318=EDGE_CURVE('',#255,#256,#160,.T.);
#319=EDGE_CURVE('',#254,#257,#161,.T.);
#320=EDGE_CURVE('',#256,#257,#162,.T.);
#321=EDGE_CURVE('',#257,#258,#163,.T.);
#322=EDGE_CURVE('',#257,#259,#45,.T.);
#323=EDGE_CURVE('',#260,#259,#164,.T.);
#324=EDGE_CURVE('',#260,#258,#46,.T.);
#325=EDGE_CURVE('',#258,#248,#165,.T.);
#326=EDGE_CURVE('',#258,#253,#166,.T.);
#327=EDGE_CURVE('',#254,#261,#47,.T.);
#328=EDGE_CURVE('',#259,#261,#167,.T.);
#329=EDGE_CURVE('',#262,#260,#168,.T.);
#330=EDGE_CURVE('',#253,#262,#48,.T.);
#331=EDGE_CURVE('',#261,#262,#169,.T.);
#332=EDGE_CURVE('',#260,#263,#170,.T.);
#333=EDGE_CURVE('',#263,#264,#171,.T.);
#334=EDGE_CURVE('',#262,#264,#172,.T.);
#335=EDGE_CURVE('',#265,#259,#173,.T.);
#336=EDGE_CURVE('',#263,#265,#49,.T.);
#337=EDGE_CURVE('',#266,#261,#174,.T.);
#338=EDGE_CURVE('',#265,#266,#175,.T.);
#339=EDGE_CURVE('',#264,#266,#50,.T.);
#340=ORIENTED_EDGE('',*,*,#267,.F.);
#341=ORIENTED_EDGE('',*,*,#268,.T.);
#342=ORIENTED_EDGE('',*,*,#269,.F.);
#343=ORIENTED_EDGE('',*,*,#270,.F.);
#344=ORIENTED_EDGE('',*,*,#271,.F.);
#345=ORIENTED_EDGE('',*,*,#272,.T.);
#346=ORIENTED_EDGE('',*,*,#273,.F.);
#347=ORIENTED_EDGE('',*,*,#268,.F.);
#348=ORIENTED_EDGE('',*,*,#274,.F.);
#349=ORIENTED_EDGE('',*,*,#275,.T.);
#350=ORIENTED_EDGE('',*,*,#276,.F.);
#351=ORIENTED_EDGE('',*,*,#272,.F.);
#352=ORIENTED_EDGE('',*,*,#277,.F.);
#353=ORIENTED_EDGE('',*,*,#270,.T.);
#354=ORIENTED_EDGE('',*,*,#278,.F.);
#355=ORIENTED_EDGE('',*,*,#275,.F.);
#356=ORIENTED_EDGE('',*,*,#279,.F.);
#357=ORIENTED_EDGE('',*,*,#280,.T.);
#358=ORIENTED_EDGE('',*,*,#281,.F.);
#359=ORIENTED_EDGE('',*,*,#282,.F.);
#360=ORIENTED_EDGE('',*,*,#283,.F.);
#361=ORIENTED_EDGE('',*,*,#284,.T.);
#362=ORIENTED_EDGE('',*,*,#285,.F.);
#363=ORIENTED_EDGE('',*,*,#280,.F.);
#364=ORIENTED_EDGE('',*,*,#286,.F.);
#365=ORIENTED_EDGE('',*,*,#287,.T.);
#366=ORIENTED_EDGE('',*,*,#288,.F.);
#367=ORIENTED_EDGE('',*,*,#284,.F.);
#368=ORIENTED_EDGE('',*,*,#289,.F.);
#369=ORIENTED_EDGE('',*,*,#282,.T.);
#370=ORIENTED_EDGE('',*,*,#290,.F.);
#371=ORIENTED_EDGE('',*,*,#287,.F.);
#372=ORIENTED_EDGE('',*,*,#291,.F.);
#373=ORIENTED_EDGE('',*,*,#292,.T.);
#374=ORIENTED_EDGE('',*,*,#293,.F.);
#375=ORIENTED_EDGE('',*,*,#294,.F.);
#376=ORIENTED_EDGE('',*,*,#295,.F.);
#377=ORIENTED_EDGE('',*,*,#296,.T.);
#378=ORIENTED_EDGE('',*,*,#297,.F.);
#379=ORIENTED_EDGE('',*,*,#292,.F.);
#380=ORIENTED_EDGE('',*,*,#298,.F.);
#381=ORIENTED_EDGE('',*,*,#299,.T.);
#382=ORIENTED_EDGE('',*,*,#300,.F.);
#383=ORIENTED_EDGE('',*,*,#296,.F.);
#384=ORIENTED_EDGE('',*,*,#301,.F.);
#385=ORIENTED_EDGE('',*,*,#294,.T.);
#386=ORIENTED_EDGE('',*,*,#302,.F.);
#387=ORIENTED_EDGE('',*,*,#299,.F.);
#388=ORIENTED_EDGE('',*,*,#303,.F.);
#389=ORIENTED_EDGE('',*,*,#304,.T.);
#390=ORIENTED_EDGE('',*,*,#305,.F.);
#391=ORIENTED_EDGE('',*,*,#304,.F.);
#392=ORIENTED_EDGE('',*,*,#306,.T.);
#393=ORIENTED_EDGE('',*,*,#307,.T.);
#394=ORIENTED_EDGE('',*,*,#308,.T.);
#395=ORIENTED_EDGE('',*,*,#309,.T.);
#396=ORIENTED_EDGE('',*,*,#309,.F.);
#397=ORIENTED_EDGE('',*,*,#310,.F.);
#398=ORIENTED_EDGE('',*,*,#311,.F.);
#399=ORIENTED_EDGE('',*,*,#312,.F.);
#400=ORIENTED_EDGE('',*,*,#308,.F.);
#401=ORIENTED_EDGE('',*,*,#313,.T.);
#402=ORIENTED_EDGE('',*,*,#314,.T.);
#403=ORIENTED_EDGE('',*,*,#315,.F.);
#404=ORIENTED_EDGE('',*,*,#316,.F.);
#405=ORIENTED_EDGE('',*,*,#310,.T.);
#406=ORIENTED_EDGE('',*,*,#267,.T.);
#407=ORIENTED_EDGE('',*,*,#277,.T.);
#408=ORIENTED_EDGE('',*,*,#274,.T.);
#409=ORIENTED_EDGE('',*,*,#271,.T.);
#410=ORIENTED_EDGE('',*,*,#279,.T.);
#411=ORIENTED_EDGE('',*,*,#289,.T.);
#412=ORIENTED_EDGE('',*,*,#286,.T.);
#413=ORIENTED_EDGE('',*,*,#283,.T.);
#414=ORIENTED_EDGE('',*,*,#317,.T.);
#415=ORIENTED_EDGE('',*,*,#311,.T.);
#416=ORIENTED_EDGE('',*,*,#316,.T.);
#417=ORIENTED_EDGE('',*,*,#318,.T.);
#418=ORIENTED_EDGE('',*,*,#318,.F.);
#419=ORIENTED_EDGE('',*,*,#315,.T.);
#420=ORIENTED_EDGE('',*,*,#319,.T.);
#421=ORIENTED_EDGE('',*,*,#320,.F.);
#422=ORIENTED_EDGE('',*,*,#321,.F.);
#423=ORIENTED_EDGE('',*,*,#322,.T.);
#424=ORIENTED_EDGE('',*,*,#323,.F.);
#425=ORIENTED_EDGE('',*,*,#324,.T.);
#426=ORIENTED_EDGE('',*,*,#307,.F.);
#427=ORIENTED_EDGE('',*,*,#325,.F.);
#428=ORIENTED_EDGE('',*,*,#326,.T.);
#429=ORIENTED_EDGE('',*,*,#313,.F.);
#430=ORIENTED_EDGE('',*,*,#319,.F.);
#431=ORIENTED_EDGE('',*,*,#327,.T.);
#432=ORIENTED_EDGE('',*,*,#328,.F.);
#433=ORIENTED_EDGE('',*,*,#322,.F.);
#434=ORIENTED_EDGE('',*,*,#326,.F.);
#435=ORIENTED_EDGE('',*,*,#324,.F.);
#436=ORIENTED_EDGE('',*,*,#329,.F.);
#437=ORIENTED_EDGE('',*,*,#330,.F.);
#438=ORIENTED_EDGE('',*,*,#314,.F.);
#439=ORIENTED_EDGE('',*,*,#330,.T.);
#440=ORIENTED_EDGE('',*,*,#331,.F.);
#441=ORIENTED_EDGE('',*,*,#327,.F.);
#442=ORIENTED_EDGE('',*,*,#306,.F.);
#443=ORIENTED_EDGE('',*,*,#312,.T.);
#444=ORIENTED_EDGE('',*,*,#317,.F.);
#445=ORIENTED_EDGE('',*,*,#320,.T.);
#446=ORIENTED_EDGE('',*,*,#321,.T.);
#447=ORIENTED_EDGE('',*,*,#325,.T.);
#448=ORIENTED_EDGE('',*,*,#269,.T.);
#449=ORIENTED_EDGE('',*,*,#273,.T.);
#450=ORIENTED_EDGE('',*,*,#276,.T.);
#451=ORIENTED_EDGE('',*,*,#278,.T.);
#452=ORIENTED_EDGE('',*,*,#281,.T.);
#453=ORIENTED_EDGE('',*,*,#285,.T.);
#454=ORIENTED_EDGE('',*,*,#288,.T.);
#455=ORIENTED_EDGE('',*,*,#290,.T.);
#456=ORIENTED_EDGE('',*,*,#329,.T.);
#457=ORIENTED_EDGE('',*,*,#332,.T.);
#458=ORIENTED_EDGE('',*,*,#333,.T.);
#459=ORIENTED_EDGE('',*,*,#334,.F.);
#460=ORIENTED_EDGE('',*,*,#323,.T.);
#461=ORIENTED_EDGE('',*,*,#335,.F.);
#462=ORIENTED_EDGE('',*,*,#336,.F.);
#463=ORIENTED_EDGE('',*,*,#332,.F.);
#464=ORIENTED_EDGE('',*,*,#293,.T.);
#465=ORIENTED_EDGE('',*,*,#297,.T.);
#466=ORIENTED_EDGE('',*,*,#300,.T.);
#467=ORIENTED_EDGE('',*,*,#302,.T.);
#468=ORIENTED_EDGE('',*,*,#305,.T.);
#469=ORIENTED_EDGE('',*,*,#328,.T.);
#470=ORIENTED_EDGE('',*,*,#337,.F.);
#471=ORIENTED_EDGE('',*,*,#338,.F.);
#472=ORIENTED_EDGE('',*,*,#335,.T.);
#473=ORIENTED_EDGE('',*,*,#336,.T.);
#474=ORIENTED_EDGE('',*,*,#338,.T.);
#475=ORIENTED_EDGE('',*,*,#339,.F.);
#476=ORIENTED_EDGE('',*,*,#333,.F.);
#477=ORIENTED_EDGE('',*,*,#331,.T.);
#478=ORIENTED_EDGE('',*,*,#334,.T.);
#479=ORIENTED_EDGE('',*,*,#339,.T.);
#480=ORIENTED_EDGE('',*,*,#337,.T.);
#481=ORIENTED_EDGE('',*,*,#291,.T.);
#482=ORIENTED_EDGE('',*,*,#301,.T.);
#483=ORIENTED_EDGE('',*,*,#298,.T.);
#484=ORIENTED_EDGE('',*,*,#295,.T.);
#485=ORIENTED_EDGE('',*,*,#303,.T.);
#486=PLANE('',#544);
#487=PLANE('',#548);
#488=PLANE('',#552);
#489=PLANE('',#556);
#490=PLANE('',#578);
#491=PLANE('',#579);
#492=PLANE('',#583);
#493=PLANE('',#587);
#494=PLANE('',#588);
#495=PLANE('',#590);
#496=PLANE('',#593);
#497=PLANE('',#594);
#498=PLANE('',#595);
#499=PLANE('',#597);
#500=PLANE('',#600);
#501=ADVANCED_FACE('',(#65),#486,.F.);
#502=ADVANCED_FACE('',(#66),#51,.F.);
#503=ADVANCED_FACE('',(#67),#487,.F.);
#504=ADVANCED_FACE('',(#68),#52,.F.);
#505=ADVANCED_FACE('',(#69),#488,.F.);
#506=ADVANCED_FACE('',(#70),#53,.F.);
#507=ADVANCED_FACE('',(#71),#489,.F.);
#508=ADVANCED_FACE('',(#72),#54,.F.);
#509=ADVANCED_FACE('',(#73),#55,.F.);
#510=ADVANCED_FACE('',(#74),#56,.F.);
#511=ADVANCED_FACE('',(#75),#57,.T.);
#512=ADVANCED_FACE('',(#76),#58,.F.);
#513=ADVANCED_FACE('',(#77),#59,.F.);
#514=ADVANCED_FACE('',(#78),#60,.T.);
#515=ADVANCED_FACE('',(#79),#490,.T.);
#516=ADVANCED_FACE('',(#80,#15,#16),#491,.F.);
#517=ADVANCED_FACE('',(#81),#61,.T.);
#518=ADVANCED_FACE('',(#82),#492,.T.);
#519=ADVANCED_FACE('',(#83),#62,.T.);
#520=ADVANCED_FACE('',(#84),#493,.T.);
#521=ADVANCED_FACE('',(#85),#494,.T.);
#522=ADVANCED_FACE('',(#86),#495,.T.);
#523=ADVANCED_FACE('',(#87),#63,.F.);
#524=ADVANCED_FACE('',(#88,#17,#18),#496,.T.);
#525=ADVANCED_FACE('',(#89),#497,.T.);
#526=ADVANCED_FACE('',(#90,#19,#20),#498,.F.);
#527=ADVANCED_FACE('',(#91),#499,.T.);
#528=ADVANCED_FACE('',(#92),#64,.T.);
#529=ADVANCED_FACE('',(#93,#21,#22),#500,.T.);
#530=CLOSED_SHELL('',(#501,#502,#503,#504,#505,#506,#507,#508,#509,#510,
#511,#512,#513,#514,#515,#516,#517,#518,#519,#520,#521,#522,#523,#524,#525,
#526,#527,#528,#529));
#531=DERIVED_UNIT_ELEMENT(#533,1.);
#532=DERIVED_UNIT_ELEMENT(#916,-3.);
#533=(
MASS_UNIT()
NAMED_UNIT(*)
SI_UNIT(.KILO.,.GRAM.)
);
#534=DERIVED_UNIT((#531,#532));
#535=MEASURE_REPRESENTATION_ITEM('density measure',
POSITIVE_RATIO_MEASURE(2700.),#534);
#536=PROPERTY_DEFINITION_REPRESENTATION(#541,#538);
#537=PROPERTY_DEFINITION_REPRESENTATION(#542,#539);
#538=REPRESENTATION('material name',(#540),#913);
#539=REPRESENTATION('density',(#535),#913);
#540=DESCRIPTIVE_REPRESENTATION_ITEM('Aluminum','Aluminum');
#541=PROPERTY_DEFINITION('material property','material name',#923);
#542=PROPERTY_DEFINITION('material property','density of part',#923);
#543=AXIS2_PLACEMENT_3D('placement',#762,#601,#602);
#544=AXIS2_PLACEMENT_3D('',#763,#603,#604);
#545=AXIS2_PLACEMENT_3D('',#772,#609,#610);
#546=AXIS2_PLACEMENT_3D('',#774,#611,#612);
#547=AXIS2_PLACEMENT_3D('',#777,#614,#615);
#548=AXIS2_PLACEMENT_3D('',#778,#616,#617);
#549=AXIS2_PLACEMENT_3D('',#784,#621,#622);
#550=AXIS2_PLACEMENT_3D('',#785,#623,#624);
#551=AXIS2_PLACEMENT_3D('',#786,#625,#626);
#552=AXIS2_PLACEMENT_3D('',#787,#627,#628);
#553=AXIS2_PLACEMENT_3D('',#796,#633,#634);
#554=AXIS2_PLACEMENT_3D('',#798,#635,#636);
#555=AXIS2_PLACEMENT_3D('',#801,#638,#639);
#556=AXIS2_PLACEMENT_3D('',#802,#640,#641);
#557=AXIS2_PLACEMENT_3D('',#808,#645,#646);
#558=AXIS2_PLACEMENT_3D('',#809,#647,#648);
#559=AXIS2_PLACEMENT_3D('',#810,#649,#650);
#560=AXIS2_PLACEMENT_3D('',#811,#651,#652);
#561=AXIS2_PLACEMENT_3D('',#814,#653,#654);
#562=AXIS2_PLACEMENT_3D('',#818,#656,#657);
#563=AXIS2_PLACEMENT_3D('',#820,#659,#660);
#564=AXIS2_PLACEMENT_3D('',#822,#661,#662);
#565=AXIS2_PLACEMENT_3D('',#825,#664,#665);
#566=AXIS2_PLACEMENT_3D('',#826,#666,#667);
#567=AXIS2_PLACEMENT_3D('',#828,#668,#669);
#568=AXIS2_PLACEMENT_3D('',#831,#671,#672);
#569=AXIS2_PLACEMENT_3D('',#832,#673,#674);
#570=AXIS2_PLACEMENT_3D('',#833,#675,#676);
#571=AXIS2_PLACEMENT_3D('',#834,#677,#678);
#572=AXIS2_PLACEMENT_3D('',#835,#679,#680);
#573=AXIS2_PLACEMENT_3D('',#837,#681,#682);
#574=AXIS2_PLACEMENT_3D('',#840,#684,#685);
#575=AXIS2_PLACEMENT_3D('',#841,#686,#687);
#576=AXIS2_PLACEMENT_3D('',#844,#688,#689);
#577=AXIS2_PLACEMENT_3D('',#848,#691,#692);
#578=AXIS2_PLACEMENT_3D('',#850,#694,#695);
#579=AXIS2_PLACEMENT_3D('',#856,#699,#700);
#580=AXIS2_PLACEMENT_3D('',#863,#704,#705);
#581=AXIS2_PLACEMENT_3D('',#864,#706,#707);
#582=AXIS2_PLACEMENT_3D('',#866,#708,#709);
#583=AXIS2_PLACEMENT_3D('',#868,#711,#712);
#584=AXIS2_PLACEMENT_3D('',#872,#715,#716);
#585=AXIS2_PLACEMENT_3D('',#876,#718,#719);
#586=AXIS2_PLACEMENT_3D('',#879,#721,#722);
#587=AXIS2_PLACEMENT_3D('',#880,#723,#724);
#588=AXIS2_PLACEMENT_3D('',#883,#727,#728);
#589=AXIS2_PLACEMENT_3D('',#885,#729,#730);
#590=AXIS2_PLACEMENT_3D('',#887,#732,#733);
#591=AXIS2_PLACEMENT_3D('',#890,#735,#736);
#592=AXIS2_PLACEMENT_3D('',#891,#737,#738);
#593=AXIS2_PLACEMENT_3D('',#893,#740,#741);
#594=AXIS2_PLACEMENT_3D('',#894,#742,#743);
#595=AXIS2_PLACEMENT_3D('',#900,#747,#748);
#596=AXIS2_PLACEMENT_3D('',#903,#750,#751);
#597=AXIS2_PLACEMENT_3D('',#904,#752,#753);
#598=AXIS2_PLACEMENT_3D('',#908,#756,#757);
#599=AXIS2_PLACEMENT_3D('',#909,#758,#759);
#600=AXIS2_PLACEMENT_3D('',#910,#760,#761);
#601=DIRECTION('axis',(0.,0.,1.));
#602=DIRECTION('refdir',(1.,0.,0.));
#603=DIRECTION('center_axis',(-5.19549658862694E-51,-1.,0.));
#604=DIRECTION('ref_axis',(-1.,5.19549658862694E-51,6.12323399573677E-17));
#605=DIRECTION('',(-1.,5.19549658862694E-51,3.06161699786838E-17));
#606=DIRECTION('',(0.,0.,-1.));
#607=DIRECTION('',(1.,-5.19549658862694E-51,-6.12323399573677E-17));
#608=DIRECTION('',(0.,0.,-1.));
#609=DIRECTION('center_axis',(0.,0.,-1.));
#610=DIRECTION('ref_axis',(1.5450353107351E-33,-1.,0.));
#611=DIRECTION('center_axis',(-3.06161699786838E-17,-1.36642833800019E-16,
-1.));
#612=DIRECTION('ref_axis',(1.5450353107351E-33,-1.,0.));
#613=DIRECTION('',(0.,0.,-1.));
#614=DIRECTION('center_axis',(6.12323399573677E-17,1.36642833800019E-16,
1.));
#615=DIRECTION('ref_axis',(1.5450353107351E-33,-1.,0.));
#616=DIRECTION('center_axis',(1.0449157878825E-15,1.,0.));
#617=DIRECTION('ref_axis',(1.,-1.0449157878825E-15,-6.12323399573676E-17));
#618=DIRECTION('',(1.,-1.0449157878825E-15,-3.06161699786837E-17));
#619=DIRECTION('',(0.,0.,-1.));
#620=DIRECTION('',(-1.,1.0449157878825E-15,6.12323399573675E-17));
#621=DIRECTION('center_axis',(0.,0.,-1.));
#622=DIRECTION('ref_axis',(1.0449157878825E-15,1.,0.));
#623=DIRECTION('center_axis',(-3.06161699786838E-17,-1.36642833800019E-16,
-1.));
#624=DIRECTION('ref_axis',(1.0449157878825E-15,1.,0.));
#625=DIRECTION('center_axis',(6.12323399573677E-17,1.36642833800019E-16,
1.));
#626=DIRECTION('ref_axis',(1.0449157878825E-15,1.,0.));
#627=DIRECTION('center_axis',(-1.0449157878825E-15,1.,0.));
#628=DIRECTION('ref_axis',(1.,1.0449157878825E-15,-6.12323399573677E-17));
#629=DIRECTION('',(1.,1.0449157878825E-15,-3.0616169978684E-17));
#630=DIRECTION('',(0.,0.,-1.));
#631=DIRECTION('',(-1.,-1.0449157878825E-15,6.12323399573678E-17));
#632=DIRECTION('',(0.,0.,-1.));
#633=DIRECTION('center_axis',(0.,0.,-1.));
#634=DIRECTION('ref_axis',(-4.17966315153E-15,1.,0.));
#635=DIRECTION('center_axis',(-3.06161699786838E-17,-1.36642833800019E-16,
-1.));
#636=DIRECTION('ref_axis',(-4.17966315153E-15,1.,0.));
#637=DIRECTION('',(0.,0.,-1.));
#638=DIRECTION('center_axis',(6.12323399573677E-17,1.36642833800019E-16,
1.));
#639=DIRECTION('ref_axis',(-4.17966315153E-15,1.,0.));
#640=DIRECTION('center_axis',(1.0449157878825E-15,-1.,0.));
#641=DIRECTION('ref_axis',(-1.,-1.0449157878825E-15,6.12323399573677E-17));
#642=DIRECTION('',(-1.,-1.0449157878825E-15,3.0616169978684E-17));
#643=DIRECTION('',(0.,0.,-1.));
#644=DIRECTION('',(1.,1.0449157878825E-15,-6.12323399573678E-17));
#645=DIRECTION('center_axis',(0.,0.,-1.));
#646=DIRECTION('ref_axis',(4.17966315153E-15,-1.,0.));
#647=DIRECTION('center_axis',(-3.06161699786838E-17,-1.36642833800019E-16,
-1.));
#648=DIRECTION('ref_axis',(4.17966315153E-15,-1.,0.));
#649=DIRECTION('center_axis',(6.12323399573677E-17,1.36642833800019E-16,
1.));
#650=DIRECTION('ref_axis',(4.17966315153E-15,-1.,0.));
#651=DIRECTION('center_axis',(-1.,0.,0.));
#652=DIRECTION('ref_axis',(0.,1.,0.));
#653=DIRECTION('center_axis',(-1.,0.,0.));
#654=DIRECTION('ref_axis',(0.,1.,0.));
#655=DIRECTION('',(-1.,0.,0.));
#656=DIRECTION('center_axis',(1.,0.,0.));
#657=DIRECTION('ref_axis',(0.,1.,0.));
#658=DIRECTION('',(-1.,0.,0.));
#659=DIRECTION('center_axis',(-1.,0.,0.));
#660=DIRECTION('ref_axis',(0.,-1.,0.));
#661=DIRECTION('center_axis',(-1.,0.,0.));
#662=DIRECTION('ref_axis',(0.,-1.,0.));
#663=DIRECTION('',(-1.,0.,0.));
#664=DIRECTION('center_axis',(1.,0.,0.));
#665=DIRECTION('ref_axis',(0.,-1.,0.));
#666=DIRECTION('center_axis',(-1.,0.,0.));
#667=DIRECTION('ref_axis',(0.,1.,0.));
#668=DIRECTION('center_axis',(1.,0.,0.));
#669=DIRECTION('ref_axis',(0.,1.,0.));
#670=DIRECTION('',(-1.,0.,0.));
#671=DIRECTION('center_axis',(-1.,0.,0.));
#672=DIRECTION('ref_axis',(0.,1.,0.));
#673=DIRECTION('center_axis',(-1.,0.,0.));
#674=DIRECTION('ref_axis',(0.,-1.,0.));
#675=DIRECTION('center_axis',(-1.,0.,0.));
#676=DIRECTION('ref_axis',(0.,-1.,0.));
#677=DIRECTION('center_axis',(1.,0.,0.));
#678=DIRECTION('ref_axis',(0.,-1.,0.));
#679=DIRECTION('center_axis',(-1.,0.,0.));
#680=DIRECTION('ref_axis',(0.,1.,0.));
#681=DIRECTION('center_axis',(-1.,0.,0.));
#682=DIRECTION('ref_axis',(0.,1.,0.));
#683=DIRECTION('',(-1.,0.,0.));
#684=DIRECTION('center_axis',(1.,0.,0.));
#685=DIRECTION('ref_axis',(0.,1.,0.));
#686=DIRECTION('center_axis',(-6.12323399573677E-17,-1.36642833800019E-16,
-1.));
#687=DIRECTION('ref_axis',(0.707106781186554,0.707106781186541,0.));
#688=DIRECTION('center_axis',(6.12323399573677E-17,1.36642833800019E-16,
1.));
#689=DIRECTION('ref_axis',(0.707106781186554,0.707106781186541,0.));
#690=DIRECTION('',(6.12323399573677E-17,1.36642833800019E-16,1.));
#691=DIRECTION('center_axis',(-3.06161699786838E-17,-1.36642833800019E-16,
-1.));
#692=DIRECTION('ref_axis',(0.707106781186554,0.707106781186541,0.));
#693=DIRECTION('',(-6.12323399573677E-17,-1.36642833800019E-16,-1.));
#694=DIRECTION('center_axis',(1.,0.,-6.12323399573677E-17));
#695=DIRECTION('ref_axis',(0.,-1.,1.36642833800019E-16));
#696=DIRECTION('',(0.,1.,-1.36642833800019E-16));
#697=DIRECTION('',(6.12323399573677E-17,1.36642833800019E-16,1.));
#698=DIRECTION('',(0.,-1.,1.36642833800019E-16));
#699=DIRECTION('center_axis',(-3.06161699786838E-17,-1.36642833800019E-16,
-1.));
#700=DIRECTION('ref_axis',(-1.,-1.36642833800019E-16,3.06161699786838E-17));
#701=DIRECTION('',(-1.,0.,9.62964972193618E-33));
#702=DIRECTION('',(0.,-1.,1.36642833800019E-16));
#703=DIRECTION('',(-1.,0.,9.62964972193618E-33));
#704=DIRECTION('center_axis',(-3.06161699786838E-17,-1.36642833800019E-16,
-1.));
#705=DIRECTION('ref_axis',(0.707106781186541,-0.707106781186554,0.));
#706=DIRECTION('center_axis',(-6.12323399573677E-17,-1.36642833800019E-16,
-1.));
#707=DIRECTION('ref_axis',(0.707106781186541,-0.707106781186554,0.));
#708=DIRECTION('center_axis',(6.12323399573677E-17,1.36642833800019E-16,
1.));
#709=DIRECTION('ref_axis',(0.707106781186541,-0.707106781186554,0.));
#710=DIRECTION('',(-6.12323399573677E-17,-1.36642833800019E-16,-1.));
#711=DIRECTION('center_axis',(0.,-1.,1.36642833800019E-16));
#712=DIRECTION('ref_axis',(-1.,0.,6.12323399573677E-17));
#713=DIRECTION('',(-6.12323399573677E-17,-1.36642833800019E-16,-1.));
#714=DIRECTION('',(-1.,0.,6.12323399573677E-17));
#715=DIRECTION('center_axis',(0.,-1.,1.36642833800019E-16));
#716=DIRECTION('ref_axis',(-1.,0.,0.));
#717=DIRECTION('',(0.,1.,-1.36642833800019E-16));
#718=DIRECTION('center_axis',(0.,1.,-1.36642833800019E-16));
#719=DIRECTION('ref_axis',(0.,0.,-1.));
#720=DIRECTION('',(0.,-1.,1.36642833800019E-16));
#721=DIRECTION('center_axis',(0.,-1.,1.36642833800019E-16));
#722=DIRECTION('ref_axis',(-1.,0.,1.48029736616687E-15));
#723=DIRECTION('center_axis',(0.,1.,-1.36642833800019E-16));
#724=DIRECTION('ref_axis',(1.,0.,0.));
#725=DIRECTION('',(1.,0.,-9.62964972193618E-33));
#726=DIRECTION('',(6.12323399573677E-17,1.36642833800019E-16,1.));
#727=DIRECTION('center_axis',(0.,-1.,1.36642833800019E-16));
#728=DIRECTION('ref_axis',(0.,-1.36642833800019E-16,-1.));
#729=DIRECTION('center_axis',(0.,1.,-1.36642833800019E-16));
#730=DIRECTION('ref_axis',(0.,0.,-1.));
#731=DIRECTION('',(1.,0.,0.));
#732=DIRECTION('center_axis',(0.,1.,-1.36642833800019E-16));
#733=DIRECTION('ref_axis',(0.,1.36642833800019E-16,1.));
#734=DIRECTION('',(-1.,0.,0.));
#735=DIRECTION('center_axis',(0.,1.,-1.36642833800019E-16));
#736=DIRECTION('ref_axis',(0.,0.,-1.));
#737=DIRECTION('center_axis',(0.,-1.,1.36642833800019E-16));
#738=DIRECTION('ref_axis',(-1.,0.,0.));
#739=DIRECTION('',(0.,1.,-1.36642833800019E-16));
#740=DIRECTION('center_axis',(-6.12323399573677E-17,-1.36642833800019E-16,
-1.));
#741=DIRECTION('ref_axis',(-1.,-1.36642833800019E-16,6.12323399573677E-17));
#742=DIRECTION('center_axis',(0.,1.,0.));
#743=DIRECTION('ref_axis',(0.,0.,1.));
#744=DIRECTION('',(0.,0.,1.));
#745=DIRECTION('',(1.,0.,0.));
#746=DIRECTION('',(0.,0.,1.));
#747=DIRECTION('center_axis',(1.,0.,0.));
#748=DIRECTION('ref_axis',(0.,1.,0.));
#749=DIRECTION('',(0.,0.,-1.));
#750=DIRECTION('center_axis',(1.,0.,0.));
#751=DIRECTION('ref_axis',(0.,1.,4.52947203895382E-17));
#752=DIRECTION('center_axis',(0.,-1.,0.));
#753=DIRECTION('ref_axis',(0.,0.,-1.));
#754=DIRECTION('',(0.,0.,-1.));
#755=DIRECTION('',(1.,0.,0.));
#756=DIRECTION('center_axis',(1.,0.,0.));
#757=DIRECTION('ref_axis',(0.,1.,4.52947203895382E-17));
#758=DIRECTION('center_axis',(1.,0.,0.));
#759=DIRECTION('ref_axis',(0.,1.,4.52947203895382E-17));
#760=DIRECTION('center_axis',(1.,0.,0.));
#761=DIRECTION('ref_axis',(0.,1.,0.));
#762=CARTESIAN_POINT('',(0.,0.,0.));
#763=CARTESIAN_POINT('Origin',(20.55,45.75,-14.5));
#764=CARTESIAN_POINT('',(20.55,45.75,-14.5));
#765=CARTESIAN_POINT('',(12.05,45.75,-14.5));
#766=CARTESIAN_POINT('',(17.896681469282,45.75,-14.5));
#767=CARTESIAN_POINT('',(20.55,45.75,-17.));
#768=CARTESIAN_POINT('',(20.55,45.75,-14.5));
#769=CARTESIAN_POINT('',(12.05,45.75,-17.));
#770=CARTESIAN_POINT('',(17.896681469282,45.75,-17.));
#771=CARTESIAN_POINT('',(12.05,45.75,-14.5));
#772=CARTESIAN_POINT('Origin',(20.55,50.,-14.5));
#773=CARTESIAN_POINT('',(20.55,54.25,-14.5));
#774=CARTESIAN_POINT('Origin',(20.55,50.,-14.5));
#775=CARTESIAN_POINT('',(20.55,54.25,-17.));
#776=CARTESIAN_POINT('',(20.55,54.25,-14.5));
#777=CARTESIAN_POINT('Origin',(20.55,50.,-17.));
#778=CARTESIAN_POINT('Origin',(12.05,54.25,-14.5));
#779=CARTESIAN_POINT('',(12.05,54.25,-14.5));
#780=CARTESIAN_POINT('',(13.6466814692821,54.25,-14.5));
#781=CARTESIAN_POINT('',(12.05,54.25,-17.));
#782=CARTESIAN_POINT('',(12.05,54.25,-14.5));
#783=CARTESIAN_POINT('',(13.6466814692821,54.25,-17.));
#784=CARTESIAN_POINT('Origin',(12.05,50.,-14.5));
#785=CARTESIAN_POINT('Origin',(12.05,50.,-14.5));
#786=CARTESIAN_POINT('Origin',(12.05,50.,-17.));
#787=CARTESIAN_POINT('Origin',(12.05,-45.75,-14.5));
#788=CARTESIAN_POINT('',(12.05,-45.75,-14.5));
#789=CARTESIAN_POINT('',(20.55,-45.75,-14.5));
#790=CARTESIAN_POINT('',(13.6466814692821,-45.75,-14.5));
#791=CARTESIAN_POINT('',(12.05,-45.75,-17.));
#792=CARTESIAN_POINT('',(12.05,-45.75,-14.5));
#793=CARTESIAN_POINT('',(20.55,-45.75,-17.));
#794=CARTESIAN_POINT('',(13.6466814692821,-45.75,-17.));
#795=CARTESIAN_POINT('',(20.55,-45.75,-14.5));
#796=CARTESIAN_POINT('Origin',(12.05,-50.,-14.5));
#797=CARTESIAN_POINT('',(12.05,-54.25,-14.5));
#798=CARTESIAN_POINT('Origin',(12.05,-50.,-14.5));
#799=CARTESIAN_POINT('',(12.05,-54.25,-17.));
#800=CARTESIAN_POINT('',(12.05,-54.25,-14.5));
#801=CARTESIAN_POINT('Origin',(12.05,-50.,-17.));
#802=CARTESIAN_POINT('Origin',(20.55,-54.25,-14.5));
#803=CARTESIAN_POINT('',(20.55,-54.25,-14.5));
#804=CARTESIAN_POINT('',(17.8966814692821,-54.25,-14.5));
#805=CARTESIAN_POINT('',(20.55,-54.25,-17.));
#806=CARTESIAN_POINT('',(20.55,-54.25,-14.5));
#807=CARTESIAN_POINT('',(17.8966814692821,-54.25,-17.));
#808=CARTESIAN_POINT('Origin',(20.55,-50.,-14.5));
#809=CARTESIAN_POINT('Origin',(20.55,-50.,-14.5));
#810=CARTESIAN_POINT('Origin',(20.55,-50.,-17.));
#811=CARTESIAN_POINT('Origin',(2.5,0.,0.));
#812=CARTESIAN_POINT('',(2.5,-54.25,0.));
#813=CARTESIAN_POINT('',(2.5,54.25,-5.20474889637625E-16));
#814=CARTESIAN_POINT('Origin',(2.5,0.,0.));
#815=CARTESIAN_POINT('',(0.,-54.25,0.));
#816=CARTESIAN_POINT('',(2.5,-54.25,0.));
#817=CARTESIAN_POINT('',(0.,54.25,-5.20474889637625E-16));
#818=CARTESIAN_POINT('Origin',(0.,0.,0.));
#819=CARTESIAN_POINT('',(2.5,54.25,-5.20474889637625E-16));
#820=CARTESIAN_POINT('Origin',(2.5,-50.,0.));
#821=CARTESIAN_POINT('',(2.5,-45.75,-5.20474889637625E-16));
#822=CARTESIAN_POINT('Origin',(2.5,-50.,0.));
#823=CARTESIAN_POINT('',(0.,-45.75,-5.20474889637625E-16));
#824=CARTESIAN_POINT('',(2.5,-45.75,-5.20474889637625E-16));
#825=CARTESIAN_POINT('Origin',(0.,-50.,0.));
#826=CARTESIAN_POINT('Origin',(2.5,0.,0.));
#827=CARTESIAN_POINT('',(2.5,45.75,0.));
#828=CARTESIAN_POINT('Origin',(2.5,0.,0.));
#829=CARTESIAN_POINT('',(0.,45.75,0.));
#830=CARTESIAN_POINT('',(2.5,45.75,0.));
#831=CARTESIAN_POINT('Origin',(0.,0.,0.));
#832=CARTESIAN_POINT('Origin',(2.5,50.,0.));
#833=CARTESIAN_POINT('Origin',(2.5,50.,0.));
#834=CARTESIAN_POINT('Origin',(0.,50.,0.));
#835=CARTESIAN_POINT('Origin',(2.5,0.,0.));
#836=CARTESIAN_POINT('',(2.5,-4.25,-5.20474889637625E-16));
#837=CARTESIAN_POINT('Origin',(2.5,0.,0.));
#838=CARTESIAN_POINT('',(0.,-4.25,-5.20474889637625E-16));
#839=CARTESIAN_POINT('',(2.5,-4.25,5.20474889637625E-16));
#840=CARTESIAN_POINT('Origin',(0.,0.,0.));
#841=CARTESIAN_POINT('Origin',(29.5,64.5,-14.5));
#842=CARTESIAN_POINT('',(30.,64.5,-17.));
#843=CARTESIAN_POINT('',(29.5,65.,-17.));
#844=CARTESIAN_POINT('Origin',(29.5,64.5,-17.));
#845=CARTESIAN_POINT('',(29.5,65.,-14.5));
#846=CARTESIAN_POINT('',(29.5,65.,-14.5));
#847=CARTESIAN_POINT('',(30.,64.5,-14.5));
#848=CARTESIAN_POINT('Origin',(29.5,64.5,-14.5));
#849=CARTESIAN_POINT('',(30.,64.5,-14.5));
#850=CARTESIAN_POINT('Origin',(30.,65.,-14.5));
#851=CARTESIAN_POINT('',(30.,-64.5,-14.5));
#852=CARTESIAN_POINT('',(30.,-65.,-14.5));
#853=CARTESIAN_POINT('',(30.,-64.5,-17.));
#854=CARTESIAN_POINT('',(30.,-64.5,-14.5));
#855=CARTESIAN_POINT('',(30.,-65.,-17.));
#856=CARTESIAN_POINT('Origin',(15.2433629385641,1.94806728853298E-15,-14.5));
#857=CARTESIAN_POINT('',(3.,65.,-14.5));
#858=CARTESIAN_POINT('',(-2.02654824574367,65.,-14.5));
#859=CARTESIAN_POINT('',(3.,-65.,-14.5));
#860=CARTESIAN_POINT('',(3.,9.39872935816487E-16,-14.5));
#861=CARTESIAN_POINT('',(29.5,-65.,-14.5));
#862=CARTESIAN_POINT('',(-2.02654824574367,-65.,-14.5));
#863=CARTESIAN_POINT('Origin',(29.5,-64.5,-14.5));
#864=CARTESIAN_POINT('Origin',(29.5,-64.5,-14.5));
#865=CARTESIAN_POINT('',(29.5,-65.,-17.));
#866=CARTESIAN_POINT('Origin',(29.5,-64.5,-17.));
#867=CARTESIAN_POINT('',(29.5,-65.,-14.5));
#868=CARTESIAN_POINT('Origin',(30.,-65.,-14.5));
#869=CARTESIAN_POINT('',(3.,-65.,-17.));
#870=CARTESIAN_POINT('',(3.,-65.,-15.05));
#871=CARTESIAN_POINT('',(3.,-65.,-17.));
#872=CARTESIAN_POINT('Origin',(3.,0.,-14.));
#873=CARTESIAN_POINT('',(3.,65.,-17.));
#874=CARTESIAN_POINT('',(3.,5.98265851316439E-16,-17.));
#875=CARTESIAN_POINT('',(0.,-65.,-14.));
#876=CARTESIAN_POINT('Origin',(3.,-65.,-14.));
#877=CARTESIAN_POINT('',(0.,65.,-14.));
#878=CARTESIAN_POINT('',(0.,-32.5,-14.));
#879=CARTESIAN_POINT('Origin',(3.,65.,-14.));
#880=CARTESIAN_POINT('Origin',(0.486725877128162,65.,-14.5));
#881=CARTESIAN_POINT('',(-2.02654824574367,65.,-17.));
#882=CARTESIAN_POINT('',(3.,65.,-15.05));
#883=CARTESIAN_POINT('Origin',(3.,-65.,-14.5));
#884=CARTESIAN_POINT('',(2.5,-65.,-14.));
#885=CARTESIAN_POINT('Origin',(3.,-65.,-14.));
#886=CARTESIAN_POINT('',(1.25,-65.,-14.));
#887=CARTESIAN_POINT('Origin',(3.,65.,-17.));
#888=CARTESIAN_POINT('',(2.5,65.,-14.));
#889=CARTESIAN_POINT('',(1.25,65.,-14.));
#890=CARTESIAN_POINT('Origin',(3.,65.,-14.));
#891=CARTESIAN_POINT('Origin',(3.,0.,-14.));
#892=CARTESIAN_POINT('',(2.5,-32.5,-14.));
#893=CARTESIAN_POINT('Origin',(15.2433629385641,1.60646020403294E-15,-17.));
#894=CARTESIAN_POINT('Origin',(0.,65.,-17.));
#895=CARTESIAN_POINT('',(0.,65.,0.));
#896=CARTESIAN_POINT('',(0.,65.,-17.));
#897=CARTESIAN_POINT('',(2.5,65.,0.));
#898=CARTESIAN_POINT('',(0.,65.,0.));
#899=CARTESIAN_POINT('',(2.5,65.,-17.));
#900=CARTESIAN_POINT('Origin',(0.,0.,24.));
#901=CARTESIAN_POINT('',(0.,-65.,0.));
#902=CARTESIAN_POINT('',(0.,-65.,0.));
#903=CARTESIAN_POINT('Origin',(0.,4.75358654088122E-16,-2.94415682531998E-15));
#904=CARTESIAN_POINT('Origin',(0.,-65.,0.));
#905=CARTESIAN_POINT('',(2.5,-65.,0.));
#906=CARTESIAN_POINT('',(2.5,-65.,0.));
#907=CARTESIAN_POINT('',(0.,-65.,0.));
#908=CARTESIAN_POINT('Origin',(0.,4.75358654088122E-16,-2.94415682531998E-15));
#909=CARTESIAN_POINT('Origin',(2.5,4.75358654088122E-16,-2.94415682531998E-15));
#910=CARTESIAN_POINT('Origin',(2.5,0.,24.));
#911=UNCERTAINTY_MEASURE_WITH_UNIT(LENGTH_MEASURE(0.01),#915,
'DISTANCE_ACCURACY_VALUE',
'Maximum model space distance between geometric entities at asserted c
onnectivities');
#912=UNCERTAINTY_MEASURE_WITH_UNIT(LENGTH_MEASURE(0.01),#915,
'DISTANCE_ACCURACY_VALUE',
'Maximum model space distance between geometric entities at asserted c
onnectivities');
#913=(
GEOMETRIC_REPRESENTATION_CONTEXT(3)
GLOBAL_UNCERTAINTY_ASSIGNED_CONTEXT((#911))
GLOBAL_UNIT_ASSIGNED_CONTEXT((#915,#917,#918))
REPRESENTATION_CONTEXT('','3D')
);
#914=(
GEOMETRIC_REPRESENTATION_CONTEXT(3)
GLOBAL_UNCERTAINTY_ASSIGNED_CONTEXT((#912))
GLOBAL_UNIT_ASSIGNED_CONTEXT((#915,#917,#918))
REPRESENTATION_CONTEXT('','3D')
);
#915=(
LENGTH_UNIT()
NAMED_UNIT(*)
SI_UNIT(.MILLI.,.METRE.)
);
#916=(
LENGTH_UNIT()
NAMED_UNIT(*)
SI_UNIT($,.METRE.)
);
#917=(
NAMED_UNIT(*)
PLANE_ANGLE_UNIT()
SI_UNIT($,.RADIAN.)
);
#918=(
NAMED_UNIT(*)
SI_UNIT($,.STERADIAN.)
SOLID_ANGLE_UNIT()
);
#919=SHAPE_DEFINITION_REPRESENTATION(#920,#921);
#920=PRODUCT_DEFINITION_SHAPE('',$,#923);
#921=SHAPE_REPRESENTATION('',(#543),#913);
#922=PRODUCT_DEFINITION_CONTEXT('part definition',#927,'design');
#923=PRODUCT_DEFINITION('ALP2156','Ug. zak. spo. 50 v3',#924,#922);
#924=PRODUCT_DEFINITION_FORMATION('',$,#929);
#925=PRODUCT_RELATED_PRODUCT_CATEGORY('Ug. zak. spo. 50 v3',
'Ug. zak. spo. 50 v3',(#929));
#926=APPLICATION_PROTOCOL_DEFINITION('international standard',
'automotive_design',2009,#927);
#927=APPLICATION_CONTEXT(
'Core Data for Automotive Mechanical Design Process');
#928=PRODUCT_CONTEXT('part definition',#927,'mechanical');
#929=PRODUCT('ALP2156','Ug. zak. spo. 50 v3',$,(#928));
#930=PRESENTATION_STYLE_ASSIGNMENT((#931));
#931=SURFACE_STYLE_USAGE(.BOTH.,#932);
#932=SURFACE_SIDE_STYLE('',(#933));
#933=SURFACE_STYLE_FILL_AREA(#934);
#934=FILL_AREA_STYLE('Aluminum - Satin',(#935));
#935=FILL_AREA_STYLE_COLOUR('Aluminum - Satin',#936);
#936=COLOUR_RGB('Aluminum - Satin',0.96078431372549,0.96078431372549,0.964705882352941);
ENDSEC;
END-ISO-10303-21;
