ISO-10303-21;
HEADER;
FILE_DESCRIPTION (( 'STEP AP203' ),
    '1' );
FILE_NAME ('ALP2430.STEP',
    '2018-06-21T07:35:28',
    ( '' ),
    ( '' ),
    'SwSTEP 2.0',
    'SolidWorks 2016',
    '' );
FILE_SCHEMA (( 'CONFIG_CONTROL_DESIGN' ));
ENDSEC;

DATA;
#1 = ORIENTED_EDGE ( 'NONE', *, *, #580, .F. ) ;
#2 = FACE_OUTER_BOUND ( 'NONE', #553, .T. ) ;
#3 = EDGE_CURVE ( 'NONE', #221, #204, #319, .T. ) ;
#4 = ORIENTED_EDGE ( 'NONE', *, *, #106, .F. ) ;
#5 = CARTESIAN_POINT ( 'NONE',  ( -24.39782473475928600, 0.0000000000000000000, -5.999999999999999100 ) ) ;
#6 = DIRECTION ( 'NONE',  ( 1.000000000000000000, -0.0000000000000000000, -0.0000000000000000000 ) ) ;
#7 = CIRCLE ( 'NONE', #406, 5.999999999999998200 ) ;
#8 = CARTESIAN_POINT ( 'NONE',  ( 38.18376618407375400, 27.00000000000000000, -44.18376618407335600 ) ) ;
#9 = VERTEX_POINT ( 'NONE', #41 ) ;
#10 = EDGE_CURVE ( 'NONE', #517, #524, #205, .T. ) ;
#11 = CARTESIAN_POINT ( 'NONE',  ( -42.44891236737964100, 13.49999999999999800, -8.673617379884035500E-016 ) ) ;
#12 = LINE ( 'NONE', #119, #487 ) ;
#13 = CARTESIAN_POINT ( 'NONE',  ( 42.42640687119306600, 27.00000000000000000, -42.42640687119262600 ) ) ;
#14 = EDGE_CURVE ( 'NONE', #288, #248, #525, .T. ) ;
#15 = EDGE_LOOP ( 'NONE', ( #275, #566, #544, #432 ) ) ;
#16 = VECTOR ( 'NONE', #552, 1000.000000000000000 ) ;
#17 = VERTEX_POINT ( 'NONE', #591 ) ;
#18 = DIRECTION ( 'NONE',  ( 0.0000000000000000000, 1.000000000000000000, 0.0000000000000000000 ) ) ;
#19 = EDGE_CURVE ( 'NONE', #577, #538, #571, .T. ) ;
#20 = ADVANCED_FACE ( 'NONE', ( #174, #141 ), #267, .F. ) ;
#21 = DIRECTION ( 'NONE',  ( 1.000000000000000000, -0.0000000000000000000, -0.0000000000000000000 ) ) ;
#22 = CYLINDRICAL_SURFACE ( 'NONE', #316, 2.000000000000001800 ) ;
#23 = ORIENTED_EDGE ( 'NONE', *, *, #372, .T. ) ;
#24 = CARTESIAN_POINT ( 'NONE',  ( -60.00000000000000000, 0.0000000000000000000, -5.999999999999999100 ) ) ;
#25 = PERSON_AND_ORGANIZATION ( #347, #121 ) ;
#26 = CIRCLE ( 'NONE', #429, 2.000000000000001800 ) ;
#27 = PLANE ( 'NONE',  #228 ) ;
#28 = CC_DESIGN_PERSON_AND_ORGANIZATION_ASSIGNMENT ( #285, #180, ( #124 ) ) ;
#29 = VERTEX_POINT ( 'NONE', #511 ) ;
#30 = VERTEX_POINT ( 'NONE', #183 ) ;
#31 = DIRECTION ( 'NONE',  ( 0.0000000000000000000, 0.0000000000000000000, -1.000000000000000000 ) ) ;
#32 = DIRECTION ( 'NONE',  ( 0.0000000000000000000, -1.000000000000000000, 0.0000000000000000000 ) ) ;
#33 = AXIS2_PLACEMENT_3D ( 'NONE', #95, #145, #507 ) ;
#34 = DIRECTION ( 'NONE',  ( 0.0000000000000000000, 1.000000000000000000, 0.0000000000000000000 ) ) ;
#35 = MANIFOLD_SOLID_BREP ( 'Mirror1', #164 ) ;
#36 = DATE_TIME_ROLE ( 'classification_date' ) ;
#37 = ORIENTED_EDGE ( 'NONE', *, *, #502, .F. ) ;
#38 = FACE_BOUND ( 'NONE', #109, .T. ) ;
#39 = EDGE_LOOP ( 'NONE', ( #302, #165, #320, #300 ) ) ;
#40 = SECURITY_CLASSIFICATION_LEVEL ( 'unclassified' ) ;
#41 = CARTESIAN_POINT ( 'NONE',  ( 12.36037993138707600, 0.0000000000000000000, -21.06096250061891700 ) ) ;
#42 = EDGE_CURVE ( 'NONE', #9, #408, #531, .T. ) ;
#43 = PERSON_AND_ORGANIZATION ( #347, #121 ) ;
#44 = FACE_OUTER_BOUND ( 'NONE', #15, .T. ) ;
#45 = DIRECTION ( 'NONE',  ( 0.0000000000000000000, -1.000000000000000000, 0.0000000000000000000 ) ) ;
#46 = CARTESIAN_POINT ( 'NONE',  ( 33.94112549695449100, 27.00000000000000000, -42.42640687119266100 ) ) ;
#47 = PERSON_AND_ORGANIZATION_ROLE ( 'design_owner' ) ;
#48 = ORIENTED_EDGE ( 'NONE', *, *, #264, .F. ) ;
#49 = ORIENTED_EDGE ( 'NONE', *, *, #292, .F. ) ;
#50 = DATE_AND_TIME ( #239, #360 ) ;
#51 = AXIS2_PLACEMENT_3D ( 'NONE', #218, #551, #179 ) ;
#52 = CARTESIAN_POINT ( 'NONE',  ( -23.63245787002911100, 27.00000000000000000, -6.152240934977424300 ) ) ;
#53 = VERTEX_POINT ( 'NONE', #422 ) ;
#54 = CIRCLE ( 'NONE', #568, 3.249999999999996000 ) ;
#55 = AXIS2_PLACEMENT_3D ( 'NONE', #518, #115, #394 ) ;
#56 = VERTEX_POINT ( 'NONE', #5 ) ;
#57 = CARTESIAN_POINT ( 'NONE',  ( 12.72792206135793500, 27.00000000000000000, -21.21320343559634100 ) ) ;
#58 = CYLINDRICAL_SURFACE ( 'NONE', #51, 6.000000000000000000 ) ;
#59 = DIRECTION ( 'NONE',  ( 0.0000000000000000000, 1.000000000000000000, -0.0000000000000000000 ) ) ;
#60 = CARTESIAN_POINT ( 'NONE',  ( 0.0000000000000000000, 27.00000000000000000, 0.0000000000000000000 ) ) ;
#61 = EDGE_CURVE ( 'NONE', #524, #517, #558, .T. ) ;
#62 = DIRECTION ( 'NONE',  ( 0.0000000000000000000, 0.0000000000000000000, -1.000000000000000000 ) ) ;
#63 = ORIENTED_EDGE ( 'NONE', *, *, #3, .T. ) ;
#64 = FACE_OUTER_BOUND ( 'NONE', #310, .T. ) ;
#65 = CARTESIAN_POINT ( 'NONE',  ( -54.00000000000000000, 0.0000000000000000000, 8.673617379884035500E-016 ) ) ;
#66 = CYLINDRICAL_SURFACE ( 'NONE', #434, 2.000000000000000000 ) ;
#67 = CARTESIAN_POINT ( 'NONE',  ( -23.63245787002911100, 0.0000000000000000000, -6.152240934977424300 ) ) ;
#68 = ORIENTED_EDGE ( 'NONE', *, *, #19, .T. ) ;
#69 = VECTOR ( 'NONE', #6, 1000.000000000000000 ) ;
#70 = ORIENTED_EDGE ( 'NONE', *, *, #502, .T. ) ;
#71 = ADVANCED_FACE ( 'NONE', ( #311 ), #22, .F. ) ;
#72 = EDGE_CURVE ( 'NONE', #261, #271, #77, .T. ) ;
#73 = CARTESIAN_POINT ( 'NONE',  ( -24.39782473475928600, 27.00000000000000000, -8.000000000000000000 ) ) ;
#74 = EDGE_CURVE ( 'NONE', #577, #532, #289, .T. ) ;
#75 = DIRECTION ( 'NONE',  ( -0.0000000000000000000, -0.0000000000000000000, -1.000000000000000000 ) ) ;
#76 = ORIENTED_EDGE ( 'NONE', *, *, #512, .F. ) ;
#77 = LINE ( 'NONE', #52, #437 ) ;
#78 = CARTESIAN_POINT ( 'NONE',  ( 11.59501306665690000, 27.00000000000000000, -22.90872156564149300 ) ) ;
#79 = DIRECTION ( 'NONE',  ( 0.0000000000000000000, 0.0000000000000000000, -1.000000000000000000 ) ) ;
#80 = PLANE ( 'NONE',  #550 ) ;
#81 = ORIENTED_EDGE ( 'NONE', *, *, #327, .F. ) ;
#82 = CYLINDRICAL_SURFACE ( 'NONE', #208, 3.249999999999996000 ) ;
#83 = ORIENTED_EDGE ( 'NONE', *, *, #14, .F. ) ;
#84 = DATE_AND_TIME ( #526, #473 ) ;
#85 = EDGE_CURVE ( 'NONE', #582, #149, #452, .T. ) ;
#86 = LINE ( 'NONE', #528, #219 ) ;
#87 = EDGE_LOOP ( 'NONE', ( #195, #236, #159, #570 ) ) ;
#88 = CARTESIAN_POINT ( 'NONE',  ( 13.00922662902998700, 27.00000000000000000, -21.49450800326839000 ) ) ;
#89 = VECTOR ( 'NONE', #212, 1000.000000000000100 ) ;
#90 = CC_DESIGN_APPROVAL ( #527, ( #99 ) ) ;
#91 = DIRECTION ( 'NONE',  ( -0.7071067811865438000, 0.0000000000000000000, -0.7071067811865512400 ) ) ;
#92 = AXIS2_PLACEMENT_3D ( 'NONE', #146, #188, #325 ) ;
#93 = VERTEX_POINT ( 'NONE', #563 ) ;
#94 = VECTOR ( 'NONE', #481, 1000.000000000000000 ) ;
#95 = CARTESIAN_POINT ( 'NONE',  ( 27.71781675011152000, 13.49999999999999800, -27.71781675011122600 ) ) ;
#96 = ORIENTED_EDGE ( 'NONE', *, *, #19, .F. ) ;
#97 = DIRECTION ( 'NONE',  ( -0.0000000000000000000, -1.000000000000000000, -0.0000000000000000000 ) ) ;
#98 = UNCERTAINTY_MEASURE_WITH_UNIT (LENGTH_MEASURE( 1.000000000000000100E-005 ), #457, 'distance_accuracy_value', 'NONE');
#99 = PRODUCT_DEFINITION_FORMATION_WITH_SPECIFIED_SOURCE ( 'ANY', '', #407, .NOT_KNOWN. ) ;
#100 = DIRECTION ( 'NONE',  ( -1.000000000000000000, 0.0000000000000000000, 0.0000000000000000000 ) ) ;
#101 = EDGE_CURVE ( 'NONE', #186, #175, #466, .T. ) ;
#102 = EDGE_LOOP ( 'NONE', ( #393, #147, #63, #215 ) ) ;
#103 = DIRECTION ( 'NONE',  ( -0.0000000000000000000, -0.0000000000000000000, -1.000000000000000000 ) ) ;
#104 = FACE_OUTER_BOUND ( 'NONE', #39, .T. ) ;
#105 = CARTESIAN_POINT ( 'NONE',  ( 0.0000000000000000000, 0.0000000000000000000, 0.0000000000000000000 ) ) ;
#106 = EDGE_CURVE ( 'NONE', #30, #29, #401, .T. ) ;
#107 = DIRECTION ( 'NONE',  ( 0.0000000000000000000, -1.000000000000000000, -0.0000000000000000000 ) ) ;
#108 = CARTESIAN_POINT ( 'NONE',  ( 38.18376618407375400, 27.00000000000000000, -44.18376618407335600 ) ) ;
#109 = EDGE_LOOP ( 'NONE', ( #70, #226 ) ) ;
#110 = FACE_OUTER_BOUND ( 'NONE', #373, .T. ) ;
#111 = ORIENTED_EDGE ( 'NONE', *, *, #223, .T. ) ;
#112 = AXIS2_PLACEMENT_3D ( 'NONE', #581, #32, #79 ) ;
#113 = FACE_OUTER_BOUND ( 'NONE', #446, .T. ) ;
#114 = ADVANCED_FACE ( 'NONE', ( #500 ), #539, .F. ) ;
#115 = DIRECTION ( 'NONE',  ( 0.0000000000000000000, -1.000000000000000000, 0.0000000000000000000 ) ) ;
#116 = EDGE_CURVE ( 'NONE', #246, #186, #276, .T. ) ;
#117 = DIRECTION ( 'NONE',  ( 0.0000000000000000000, 1.000000000000000000, 0.0000000000000000000 ) ) ;
#118 = EDGE_LOOP ( 'NONE', ( #332, #37, #509, #411 ) ) ;
#119 = CARTESIAN_POINT ( 'NONE',  ( -35.94891236737964800, 13.49999999999999800, -5.999999999999999100 ) ) ;
#120 = EDGE_CURVE ( 'NONE', #17, #175, #125, .T. ) ;
#121 = ORGANIZATION ( 'UNSPECIFIED', 'UNSPECIFIED', '' ) ;
#122 = DIRECTION ( 'NONE',  ( 0.0000000000000000000, 0.0000000000000000000, -1.000000000000000000 ) ) ;
#123 = CARTESIAN_POINT ( 'NONE',  ( -54.00000000000000000, 27.00000000000000000, -5.999999999999999100 ) ) ;
#124 = SECURITY_CLASSIFICATION ( '', '', #40 ) ;
#125 = LINE ( 'NONE', #13, #426 ) ;
#126 = ORIENTED_EDGE ( 'NONE', *, *, #101, .F. ) ;
#127 = DIRECTION ( 'NONE',  ( 0.0000000000000000000, 0.0000000000000000000, 1.000000000000000000 ) ) ;
#128 = DIRECTION ( 'NONE',  ( 0.0000000000000000000, 0.0000000000000000000, 1.000000000000000000 ) ) ;
#129 = DIRECTION ( 'NONE',  ( -0.7071067811865436900, -0.0000000000000000000, -0.7071067811865514600 ) ) ;
#130 = VECTOR ( 'NONE', #291, 1000.000000000000000 ) ;
#131 = ORIENTED_EDGE ( 'NONE', *, *, #580, .T. ) ;
#132 = EDGE_CURVE ( 'NONE', #204, #221, #54, .T. ) ;
#133 = CARTESIAN_POINT ( 'NONE',  ( 12.36037993138707600, 0.0000000000000000000, -21.06096250061891300 ) ) ;
#134 = EDGE_CURVE ( 'NONE', #277, #30, #516, .T. ) ;
#135 = DIRECTION ( 'NONE',  ( -0.0000000000000000000, -0.0000000000000000000, -1.000000000000000000 ) ) ;
#136 = LINE ( 'NONE', #541, #442 ) ;
#137 =( NAMED_UNIT ( * ) PLANE_ANGLE_UNIT ( ) SI_UNIT ( $, .RADIAN. ) );
#138 = DIRECTION ( 'NONE',  ( 1.000000000000000000, 0.0000000000000000000, -0.0000000000000000000 ) ) ;
#139 = CARTESIAN_POINT ( 'NONE',  ( -39.19891236737964100, 13.49999999999999800, -5.999999999999999100 ) ) ;
#140 = ORIENTED_EDGE ( 'NONE', *, *, #120, .T. ) ;
#141 = FACE_OUTER_BOUND ( 'NONE', #206, .T. ) ;
#142 = ORIENTED_EDGE ( 'NONE', *, *, #199, .F. ) ;
#143 = COORDINATED_UNIVERSAL_TIME_OFFSET ( 1, 0, .AHEAD. ) ;
#144 = CC_DESIGN_PERSON_AND_ORGANIZATION_ASSIGNMENT ( #258, #459, ( #99 ) ) ;
#145 = DIRECTION ( 'NONE',  ( -0.7071067811865438000, 0.0000000000000000000, -0.7071067811865512400 ) ) ;
#146 = CARTESIAN_POINT ( 'NONE',  ( 38.18376618407375400, 0.0000000000000000000, -38.18376618407335600 ) ) ;
#147 = ORIENTED_EDGE ( 'NONE', *, *, #450, .T. ) ;
#148 = LINE ( 'NONE', #573, #94 ) ;
#149 = VERTEX_POINT ( 'NONE', #11 ) ;
#150 = CARTESIAN_POINT ( 'NONE',  ( 42.42640687119306600, 0.0000000000000000000, -42.42640687119262600 ) ) ;
#151 = DIRECTION ( 'NONE',  ( -1.000000000000000000, 0.0000000000000000000, 0.0000000000000000000 ) ) ;
#152 = DIRECTION ( 'NONE',  ( 0.0000000000000000000, -1.000000000000000000, 0.0000000000000000000 ) ) ;
#153 = LOCAL_TIME ( 9, 35, 28.00000000000000000, #322 ) ;
#154 = CARTESIAN_POINT ( 'NONE',  ( -23.63245787002911100, 27.00000000000000000, -6.152240934977424300 ) ) ;
#155 = ADVANCED_FACE ( 'NONE', ( #237, #2 ), #197, .F. ) ;
#156 = DIRECTION ( 'NONE',  ( -0.7071067811865435800, -0.0000000000000000000, -0.7071067811865513500 ) ) ;
#157 = EDGE_LOOP ( 'NONE', ( #290, #340 ) ) ;
#158 = LINE ( 'NONE', #440, #262 ) ;
#159 = ORIENTED_EDGE ( 'NONE', *, *, #14, .T. ) ;
#160 = DIRECTION ( 'NONE',  ( 0.0000000000000000000, 0.0000000000000000000, -1.000000000000000000 ) ) ;
#161 = CIRCLE ( 'NONE', #469, 5.999999999999998200 ) ;
#162 = EDGE_CURVE ( 'NONE', #93, #374, #196, .T. ) ;
#163 = DIRECTION ( 'NONE',  ( 0.0000000000000000000, 0.0000000000000000000, -1.000000000000000000 ) ) ;
#164 = CLOSED_SHELL ( 'NONE', ( #114, #385, #390, #203, #523, #155, #381, #20, #441, #301, #213, #529, #71, #416, #242, #335 ) ) ;
#165 = ORIENTED_EDGE ( 'NONE', *, *, #61, .F. ) ;
#166 = CARTESIAN_POINT ( 'NONE',  ( 0.0000000000000000000, 27.00000000000000000, 0.0000000000000000000 ) ) ;
#167 = PRODUCT_DEFINITION_SHAPE ( 'NONE', 'NONE',  #567 ) ;
#168 = EDGE_CURVE ( 'NONE', #56, #261, #331, .T. ) ;
#169 = CARTESIAN_POINT ( 'NONE',  ( 0.0000000000000000000, 27.00000000000000000, 0.0000000000000000000 ) ) ;
#170 = DATE_AND_TIME ( #377, #562 ) ;
#171 = CC_DESIGN_PERSON_AND_ORGANIZATION_ASSIGNMENT ( #43, #417, ( #99 ) ) ;
#172 = CARTESIAN_POINT ( 'NONE',  ( 33.94112549695449100, 0.0000000000000000000, -42.42640687119266100 ) ) ;
#173 = ORIENTED_EDGE ( 'NONE', *, *, #576, .F. ) ;
#174 = FACE_BOUND ( 'NONE', #157, .T. ) ;
#175 = VERTEX_POINT ( 'NONE', #150 ) ;
#176 = APPLICATION_CONTEXT ( 'configuration controlled 3d designs of mechanical parts and assemblies' ) ;
#177 = AXIS2_PLACEMENT_3D ( 'NONE', #321, #431, #376 ) ;
#178 = CYLINDRICAL_SURFACE ( 'NONE', #194, 3.249999999999996000 ) ;
#179 = DIRECTION ( 'NONE',  ( 0.0000000000000000000, 0.0000000000000000000, -1.000000000000000000 ) ) ;
#180 = PERSON_AND_ORGANIZATION_ROLE ( 'classification_officer' ) ;
#181 = VECTOR ( 'NONE', #480, 1000.000000000000000 ) ;
#182 = LINE ( 'NONE', #445, #337 ) ;
#183 = CARTESIAN_POINT ( 'NONE',  ( -60.00000000000000000, 0.0000000000000000000, 0.0000000000000000000 ) ) ;
#184 = DIRECTION ( 'NONE',  ( -0.7071067811865513500, 0.0000000000000000000, 0.7071067811865438000 ) ) ;
#185 = EDGE_LOOP ( 'NONE', ( #420, #351 ) ) ;
#186 = VERTEX_POINT ( 'NONE', #564 ) ;
#187 = EDGE_LOOP ( 'NONE', ( #530, #256, #557, #76 ) ) ;
#188 = DIRECTION ( 'NONE',  ( -0.0000000000000000000, -1.000000000000000000, -0.0000000000000000000 ) ) ;
#189 = PERSON_AND_ORGANIZATION ( #347, #121 ) ;
#190 = CC_DESIGN_PERSON_AND_ORGANIZATION_ASSIGNMENT ( #479, #547, ( #567 ) ) ;
#191 = LINE ( 'NONE', #488, #89 ) ;
#192 = DIRECTION ( 'NONE',  ( 0.7071067811865435800, -0.0000000000000000000, 0.7071067811865515700 ) ) ;
#193 = DIRECTION ( 'NONE',  ( 0.0000000000000000000, 1.000000000000000000, 0.0000000000000000000 ) ) ;
#194 = AXIS2_PLACEMENT_3D ( 'NONE', #210, #75, #298 ) ;
#195 = ORIENTED_EDGE ( 'NONE', *, *, #10, .F. ) ;
#196 = LINE ( 'NONE', #559, #490 ) ;
#197 = PLANE ( 'NONE',  #458 ) ;
#198 = FACE_OUTER_BOUND ( 'NONE', #427, .T. ) ;
#199 = EDGE_CURVE ( 'NONE', #53, #374, #295, .T. ) ;
#200 = CARTESIAN_POINT ( 'NONE',  ( 21.17707902413597800, 13.49999999999999800, -29.66236039837426100 ) ) ;
#201 = CARTESIAN_POINT ( 'NONE',  ( 25.77327310184855200, 13.49999999999999800, -34.25855447608679300 ) ) ;
#202 =( GEOMETRIC_REPRESENTATION_CONTEXT ( 3 ) GLOBAL_UNCERTAINTY_ASSIGNED_CONTEXT ( ( #98 ) ) GLOBAL_UNIT_ASSIGNED_CONTEXT ( ( #457, #137, #259 ) ) REPRESENTATION_CONTEXT ( 'NONE', 'WORKASPACE' ) );
#203 = ADVANCED_FACE ( 'NONE', ( #38, #110 ), #279, .F. ) ;
#204 = VERTEX_POINT ( 'NONE', #522 ) ;
#205 = CIRCLE ( 'NONE', #542, 3.249999999999995600 ) ;
#206 = EDGE_LOOP ( 'NONE', ( #217, #543, #255, #572 ) ) ;
#207 = DIRECTION ( 'NONE',  ( 0.0000000000000000000, 0.0000000000000000000, -1.000000000000000000 ) ) ;
#208 = AXIS2_PLACEMENT_3D ( 'NONE', #533, #574, #569 ) ;
#209 = DIRECTION ( 'NONE',  ( 3.469446951953615400E-015, 0.0000000000000000000, -1.000000000000000000 ) ) ;
#210 = CARTESIAN_POINT ( 'NONE',  ( -39.19891236737964100, 13.49999999999999800, -5.999999999999999100 ) ) ;
#211 = EDGE_LOOP ( 'NONE', ( #173, #83 ) ) ;
#212 = DIRECTION ( 'NONE',  ( -0.7071067811865435800, -0.0000000000000000000, -0.7071067811865513500 ) ) ;
#213 = ADVANCED_FACE ( 'NONE', ( #64 ), #216, .T. ) ;
#214 = CARTESIAN_POINT ( 'NONE',  ( -23.99999999999997200, 27.00000000000000000, -5.999999999999999100 ) ) ;
#215 = ORIENTED_EDGE ( 'NONE', *, *, #244, .F. ) ;
#216 = CYLINDRICAL_SURFACE ( 'NONE', #55, 5.999999999999998200 ) ;
#217 = ORIENTED_EDGE ( 'NONE', *, *, #162, .F. ) ;
#218 = CARTESIAN_POINT ( 'NONE',  ( -54.00000000000000000, 27.00000000000000000, 8.673617379884035500E-016 ) ) ;
#219 = VECTOR ( 'NONE', #21, 1000.000000000000000 ) ;
#220 = CARTESIAN_POINT ( 'NONE',  ( -35.94891236737964800, 13.49999999999999800, -8.673617379884035500E-016 ) ) ;
#221 = VERTEX_POINT ( 'NONE', #386 ) ;
#222 = CARTESIAN_POINT ( 'NONE',  ( 30.01591378896780400, 13.49999999999999800, -30.01591378896749200 ) ) ;
#223 = EDGE_CURVE ( 'NONE', #29, #175, #447, .T. ) ;
#224 = CARTESIAN_POINT ( 'NONE',  ( 11.59501306665690000, 0.0000000000000000000, -22.90872156564149300 ) ) ;
#225 = AXIS2_PLACEMENT_3D ( 'NONE', #280, #193, #521 ) ;
#226 = ORIENTED_EDGE ( 'NONE', *, *, #85, .T. ) ;
#227 = VECTOR ( 'NONE', #379, 1000.000000000000000 ) ;
#228 = AXIS2_PLACEMENT_3D ( 'NONE', #398, #339, #122 ) ;
#229 = CALENDAR_DATE ( 2018, 21, 6 ) ;
#230 = CARTESIAN_POINT ( 'NONE',  ( -39.19891236737964100, 13.49999999999999800, -8.673617379884035500E-016 ) ) ;
#231 = FACE_OUTER_BOUND ( 'NONE', #499, .T. ) ;
#232 = ORIENTED_EDGE ( 'NONE', *, *, #134, .T. ) ;
#233 = DIRECTION ( 'NONE',  ( -0.0000000000000000000, -1.000000000000000000, -0.0000000000000000000 ) ) ;
#234 = CC_DESIGN_DATE_AND_TIME_ASSIGNMENT ( #84, #589, ( #567 ) ) ;
#235 = DIRECTION ( 'NONE',  ( 0.0000000000000000000, 0.0000000000000000000, -1.000000000000000000 ) ) ;
#236 = ORIENTED_EDGE ( 'NONE', *, *, #254, .T. ) ;
#237 = FACE_BOUND ( 'NONE', #211, .T. ) ;
#238 = ORIENTED_EDGE ( 'NONE', *, *, #342, .T. ) ;
#239 = CALENDAR_DATE ( 2018, 21, 6 ) ;
#240 = AXIS2_PLACEMENT_3D ( 'NONE', #60, #62, #333 ) ;
#241 = CARTESIAN_POINT ( 'NONE',  ( -54.00000000000000000, 27.00000000000000000, 8.673617379884035500E-016 ) ) ;
#242 = ADVANCED_FACE ( 'NONE', ( #477 ), #82, .F. ) ;
#243 = DIRECTION ( 'NONE',  ( 0.7071067811865512400, 0.0000000000000000000, -0.7071067811865439100 ) ) ;
#244 = EDGE_CURVE ( 'NONE', #149, #204, #554, .T. ) ;
#245 = AXIS2_PLACEMENT_3D ( 'NONE', #405, #128, #503 ) ;
#246 = VERTEX_POINT ( 'NONE', #108 ) ;
#247 = LINE ( 'NONE', #443, #130 ) ;
#248 = VERTEX_POINT ( 'NONE', #200 ) ;
#249 = DIRECTION ( 'NONE',  ( 0.9238795325112876300, 0.0000000000000000000, -0.3826834323650875100 ) ) ;
#250 = APPROVAL_PERSON_ORGANIZATION ( #519, #375, #356 ) ;
#251 = VECTOR ( 'NONE', #435, 1000.000000000000000 ) ;
#252 = EDGE_CURVE ( 'NONE', #374, #277, #349, .T. ) ;
#253 = DIRECTION ( 'NONE',  ( -0.0000000000000000000, -1.000000000000000000, -0.0000000000000000000 ) ) ;
#254 = EDGE_CURVE ( 'NONE', #517, #288, #158, .T. ) ;
#255 = ORIENTED_EDGE ( 'NONE', *, *, #472, .T. ) ;
#256 = ORIENTED_EDGE ( 'NONE', *, *, #372, .F. ) ;
#257 = DIRECTION ( 'NONE',  ( -0.0000000000000000000, 1.000000000000000000, -0.0000000000000000000 ) ) ;
#258 = PERSON_AND_ORGANIZATION ( #347, #121 ) ;
#259 =( NAMED_UNIT ( * ) SI_UNIT ( $, .STERADIAN. ) SOLID_ANGLE_UNIT ( ) );
#260 = AXIS2_PLACEMENT_3D ( 'NONE', #549, #362, #419 ) ;
#261 = VERTEX_POINT ( 'NONE', #67 ) ;
#262 = VECTOR ( 'NONE', #156, 1000.000000000000100 ) ;
#263 = PLANE ( 'NONE',  #260 ) ;
#264 = EDGE_CURVE ( 'NONE', #30, #53, #583, .T. ) ;
#265 = ORIENTED_EDGE ( 'NONE', *, *, #252, .F. ) ;
#266 = APPROVAL_STATUS ( 'not_yet_approved' ) ;
#267 = PLANE ( 'NONE',  #483 ) ;
#268 = EDGE_CURVE ( 'NONE', #17, #246, #7, .T. ) ;
#269 = DIRECTION ( 'NONE',  ( -0.0000000000000000000, -0.0000000000000000000, -1.000000000000000000 ) ) ;
#270 = ORIENTED_EDGE ( 'NONE', *, *, #281, .T. ) ;
#271 = VERTEX_POINT ( 'NONE', #154 ) ;
#272 = APPROVAL_DATE_TIME ( #50, #375 ) ;
#273 = DIRECTION ( 'NONE',  ( -0.7071067811865436900, -0.0000000000000000000, -0.7071067811865514600 ) ) ;
#274 = AXIS2_PLACEMENT_3D ( 'NONE', #139, #135, #366 ) ;
#275 = ORIENTED_EDGE ( 'NONE', *, *, #281, .F. ) ;
#276 = LINE ( 'NONE', #8, #365 ) ;
#277 = VERTEX_POINT ( 'NONE', #329 ) ;
#278 = CC_DESIGN_PERSON_AND_ORGANIZATION_ASSIGNMENT ( #25, #47, ( #407 ) ) ;
#279 = PLANE ( 'NONE',  #240 ) ;
#280 = CARTESIAN_POINT ( 'NONE',  ( -24.39782473475928600, 0.0000000000000000000, -8.000000000000000000 ) ) ;
#281 = EDGE_CURVE ( 'NONE', #348, #271, #148, .T. ) ;
#282 = ORIENTED_EDGE ( 'NONE', *, *, #380, .F. ) ;
#283 = CARTESIAN_POINT ( 'NONE',  ( 0.0000000000000000000, 0.0000000000000000000, 0.0000000000000000000 ) ) ;
#284 = AXIS2_PLACEMENT_3D ( 'NONE', #224, #508, #317 ) ;
#285 = PERSON_AND_ORGANIZATION ( #347, #121 ) ;
#286 = AXIS2_PLACEMENT_3D ( 'NONE', #410, #269, #308 ) ;
#287 = PLANE ( 'NONE',  #438 ) ;
#288 = VERTEX_POINT ( 'NONE', #201 ) ;
#289 = LINE ( 'NONE', #359, #16 ) ;
#290 = ORIENTED_EDGE ( 'NONE', *, *, #132, .F. ) ;
#291 = DIRECTION ( 'NONE',  ( -0.0000000000000000000, -1.000000000000000000, -0.0000000000000000000 ) ) ;
#292 = EDGE_CURVE ( 'NONE', #465, #29, #247, .T. ) ;
#293 = VECTOR ( 'NONE', #396, 999.9999999999998900 ) ;
#294 = ORIENTED_EDGE ( 'NONE', *, *, #120, .F. ) ;
#295 = LINE ( 'NONE', #430, #227 ) ;
#296 = DIRECTION ( 'NONE',  ( 0.0000000000000000000, 0.0000000000000000000, -1.000000000000000000 ) ) ;
#297 = LINE ( 'NONE', #24, #579 ) ;
#298 = DIRECTION ( 'NONE',  ( -1.000000000000000000, 0.0000000000000000000, 0.0000000000000000000 ) ) ;
#299 = CARTESIAN_POINT ( 'NONE',  ( 23.47517606299226500, 13.49999999999999800, -31.96045743723052700 ) ) ;
#300 = ORIENTED_EDGE ( 'NONE', *, *, #576, .T. ) ;
#301 = ADVANCED_FACE ( 'NONE', ( #231 ), #287, .T. ) ;
#302 = ORIENTED_EDGE ( 'NONE', *, *, #254, .F. ) ;
#303 = APPROVAL_ROLE ( '' ) ;
#304 = COORDINATED_UNIVERSAL_TIME_OFFSET ( 1, 0, .AHEAD. ) ;
#305 = LINE ( 'NONE', #578, #415 ) ;
#306 = EDGE_CURVE ( 'NONE', #277, #465, #86, .T. ) ;
#307 = APPROVAL_STATUS ( 'not_yet_approved' ) ;
#308 = DIRECTION ( 'NONE',  ( -1.000000000000000000, 0.0000000000000000000, 0.0000000000000000000 ) ) ;
#309 = EDGE_CURVE ( 'NONE', #93, #56, #428, .T. ) ;
#310 = EDGE_LOOP ( 'NONE', ( #326, #460, #140, #126 ) ) ;
#311 = FACE_OUTER_BOUND ( 'NONE', #187, .T. ) ;
#312 = CARTESIAN_POINT ( 'NONE',  ( -60.00000000000000000, 27.00000000000000000, -5.999999999999999100 ) ) ;
#313 = DIRECTION ( 'NONE',  ( 0.0000000000000000000, 0.0000000000000000000, 1.000000000000000000 ) ) ;
#314 = FACE_OUTER_BOUND ( 'NONE', #102, .T. ) ;
#315 = DESIGN_CONTEXT ( 'detailed design', #461, 'design' ) ;
#316 = AXIS2_PLACEMENT_3D ( 'NONE', #363, #462, #313 ) ;
#317 = DIRECTION ( 'NONE',  ( 0.0000000000000000000, 0.0000000000000000000, -1.000000000000000000 ) ) ;
#318 = ORIENTED_EDGE ( 'NONE', *, *, #101, .T. ) ;
#319 = CIRCLE ( 'NONE', #274, 3.249999999999996000 ) ;
#320 = ORIENTED_EDGE ( 'NONE', *, *, #423, .T. ) ;
#321 = CARTESIAN_POINT ( 'NONE',  ( 23.47517606299226500, 13.49999999999999800, -31.96045743723052700 ) ) ;
#322 = COORDINATED_UNIVERSAL_TIME_OFFSET ( 1, 0, .AHEAD. ) ;
#323 = SHAPE_DEFINITION_REPRESENTATION ( #167, #587 ) ;
#324 = AXIS2_PLACEMENT_3D ( 'NONE', #65, #233, #235 ) ;
#325 = DIRECTION ( 'NONE',  ( 0.0000000000000000000, 0.0000000000000000000, -1.000000000000000000 ) ) ;
#326 = ORIENTED_EDGE ( 'NONE', *, *, #116, .F. ) ;
#327 = EDGE_CURVE ( 'NONE', #271, #93, #463, .T. ) ;
#328 = LINE ( 'NONE', #166, #293 ) ;
#329 = CARTESIAN_POINT ( 'NONE',  ( -60.00000000000000000, 27.00000000000000000, 0.0000000000000000000 ) ) ;
#330 = ORIENTED_EDGE ( 'NONE', *, *, #162, .T. ) ;
#331 = CIRCLE ( 'NONE', #225, 2.000000000000000000 ) ;
#332 = ORIENTED_EDGE ( 'NONE', *, *, #450, .F. ) ;
#333 = DIRECTION ( 'NONE',  ( -1.000000000000000000, 0.0000000000000000000, -0.0000000000000000000 ) ) ;
#334 = EDGE_CURVE ( 'NONE', #538, #186, #397, .T. ) ;
#335 = ADVANCED_FACE ( 'NONE', ( #104 ), #506, .F. ) ;
#336 = CARTESIAN_POINT ( 'NONE',  ( 0.0000000000000000000, 0.0000000000000000000, 0.0000000000000000000 ) ) ;
#337 = VECTOR ( 'NONE', #485, 1000.000000000000000 ) ;
#338 = DIRECTION ( 'NONE',  ( -0.7071067811865436900, -0.0000000000000000000, -0.7071067811865514600 ) ) ;
#339 = DIRECTION ( 'NONE',  ( 0.0000000000000000000, -1.000000000000000000, -0.0000000000000000000 ) ) ;
#340 = ORIENTED_EDGE ( 'NONE', *, *, #3, .F. ) ;
#341 = APPROVAL_DATE_TIME ( #505, #389 ) ;
#342 = EDGE_CURVE ( 'NONE', #538, #408, #136, .T. ) ;
#343 = FACE_OUTER_BOUND ( 'NONE', #489, .T. ) ;
#344 = CARTESIAN_POINT ( 'NONE',  ( 13.00922662902998700, 0.0000000000000000000, -21.49450800326839000 ) ) ;
#345 = CARTESIAN_POINT ( 'NONE',  ( 12.36037993138707600, 27.00000000000000000, -21.06096250061891700 ) ) ;
#346 = AXIS2_PLACEMENT_3D ( 'NONE', #230, #103, #100 ) ;
#347 = PERSON ( 'UNSPECIFIED', 'UNSPECIFIED', 'UNSPECIFIED', ('UNSPECIFIED'), ('UNSPECIFIED'), ('UNSPECIFIED') ) ;
#348 = VERTEX_POINT ( 'NONE', #345 ) ;
#349 = CIRCLE ( 'NONE', #369, 6.000000000000000000 ) ;
#350 = CARTESIAN_POINT ( 'NONE',  ( -24.39782473475928600, 27.00000000000000000, -8.000000000000000000 ) ) ;
#351 = ORIENTED_EDGE ( 'NONE', *, *, #10, .T. ) ;
#352 = DIRECTION ( 'NONE',  ( -0.7071067811865513500, 0.0000000000000000000, 0.7071067811865438000 ) ) ;
#353 = APPROVAL_PERSON_ORGANIZATION ( #189, #527, #303 ) ;
#354 = CC_DESIGN_DATE_AND_TIME_ASSIGNMENT ( #170, #36, ( #124 ) ) ;
#355 = FACE_OUTER_BOUND ( 'NONE', #436, .T. ) ;
#356 = APPROVAL_ROLE ( '' ) ;
#357 = AXIS2_PLACEMENT_3D ( 'NONE', #449, #253, #163 ) ;
#358 = ORIENTED_EDGE ( 'NONE', *, *, #264, .T. ) ;
#359 = CARTESIAN_POINT ( 'NONE',  ( 12.72792206135793500, 27.00000000000000000, -21.21320343559634100 ) ) ;
#360 = LOCAL_TIME ( 9, 35, 28.00000000000000000, #395 ) ;
#361 = FACE_OUTER_BOUND ( 'NONE', #409, .T. ) ;
#362 = DIRECTION ( 'NONE',  ( -0.7071067811865439100, 0.0000000000000000000, -0.7071067811865512400 ) ) ;
#363 = CARTESIAN_POINT ( 'NONE',  ( 11.59501306665690000, 27.00000000000000000, -22.90872156564149300 ) ) ;
#364 = ORIENTED_EDGE ( 'NONE', *, *, #342, .F. ) ;
#365 = VECTOR ( 'NONE', #152, 1000.000000000000000 ) ;
#366 = DIRECTION ( 'NONE',  ( -1.000000000000000000, 0.0000000000000000000, 0.0000000000000000000 ) ) ;
#367 = ORIENTED_EDGE ( 'NONE', *, *, #223, .F. ) ;
#368 = LOCAL_TIME ( 9, 35, 28.00000000000000000, #593 ) ;
#369 = AXIS2_PLACEMENT_3D ( 'NONE', #241, #18, #207 ) ;
#370 = DIRECTION ( 'NONE',  ( -0.0000000000000000000, -0.0000000000000000000, -1.000000000000000000 ) ) ;
#371 = DIRECTION ( 'NONE',  ( -1.000000000000000000, -0.0000000000000000000, -0.0000000000000000000 ) ) ;
#372 = EDGE_CURVE ( 'NONE', #408, #532, #305, .T. ) ;
#373 = EDGE_LOOP ( 'NONE', ( #383, #49, #492, #232 ) ) ;
#374 = VERTEX_POINT ( 'NONE', #123 ) ;
#375 = APPROVAL ( #307, 'UNSPECIFIED' ) ;
#376 = DIRECTION ( 'NONE',  ( -0.7071067811865513500, 0.0000000000000000000, 0.7071067811865438000 ) ) ;
#377 = CALENDAR_DATE ( 2018, 21, 6 ) ;
#378 = LINE ( 'NONE', #133, #455 ) ;
#379 = DIRECTION ( 'NONE',  ( -0.0000000000000000000, 1.000000000000000000, -0.0000000000000000000 ) ) ;
#380 = EDGE_CURVE ( 'NONE', #465, #17, #328, .T. ) ;
#381 = ADVANCED_FACE ( 'NONE', ( #44 ), #80, .F. ) ;
#382 = CARTESIAN_POINT ( 'NONE',  ( -42.44891236737964100, 13.49999999999999800, -5.999999999999999100 ) ) ;
#383 = ORIENTED_EDGE ( 'NONE', *, *, #106, .T. ) ;
#384 = ORIENTED_EDGE ( 'NONE', *, *, #268, .T. ) ;
#385 = ADVANCED_FACE ( 'NONE', ( #314 ), #178, .F. ) ;
#386 = CARTESIAN_POINT ( 'NONE',  ( -35.94891236737964800, 13.49999999999999800, -5.999999999999999100 ) ) ;
#387 = PERSON_AND_ORGANIZATION ( #347, #121 ) ;
#388 = CARTESIAN_POINT ( 'NONE',  ( 38.18376618407375400, 27.00000000000000000, -38.18376618407335600 ) ) ;
#389 = APPROVAL ( #266, 'UNSPECIFIED' ) ;
#390 = ADVANCED_FACE ( 'NONE', ( #343 ), #585, .T. ) ;
#391 = ORIENTED_EDGE ( 'NONE', *, *, #412, .T. ) ;
#392 = VECTOR ( 'NONE', #243, 999.9999999999998900 ) ;
#393 = ORIENTED_EDGE ( 'NONE', *, *, #85, .F. ) ;
#394 = DIRECTION ( 'NONE',  ( 0.0000000000000000000, 0.0000000000000000000, -1.000000000000000000 ) ) ;
#395 = COORDINATED_UNIVERSAL_TIME_OFFSET ( 1, 0, .AHEAD. ) ;
#396 = DIRECTION ( 'NONE',  ( 0.7071067811865512400, 0.0000000000000000000, -0.7071067811865439100 ) ) ;
#397 = CIRCLE ( 'NONE', #357, 5.999999999999998200 ) ;
#398 = CARTESIAN_POINT ( 'NONE',  ( 0.0000000000000000000, 27.00000000000000000, 0.0000000000000000000 ) ) ;
#399 = DIRECTION ( 'NONE',  ( -0.7071067811865515700, -0.0000000000000000000, 0.7071067811865435800 ) ) ;
#400 = ORIENTED_EDGE ( 'NONE', *, *, #334, .F. ) ;
#401 = LINE ( 'NONE', #105, #69 ) ;
#402 = CC_DESIGN_SECURITY_CLASSIFICATION ( #124, ( #99 ) ) ;
#403 = APPROVAL_DATE_TIME ( #414, #527 ) ;
#404 = DIRECTION ( 'NONE',  ( 0.3826834323650875600, -0.0000000000000000000, 0.9238795325112877400 ) ) ;
#405 = CARTESIAN_POINT ( 'NONE',  ( 0.0000000000000000000, 0.0000000000000000000, 0.0000000000000000000 ) ) ;
#406 = AXIS2_PLACEMENT_3D ( 'NONE', #388, #117, #209 ) ;
#407 = PRODUCT ( 'ALP2430', 'ALP2430', '', ( #454 ) ) ;
#408 = VERTEX_POINT ( 'NONE', #344 ) ;
#409 = EDGE_LOOP ( 'NONE', ( #111, #294, #282, #425 ) ) ;
#410 = CARTESIAN_POINT ( 'NONE',  ( -39.19891236737964100, 13.49999999999999800, -8.673617379884035500E-016 ) ) ;
#411 = ORIENTED_EDGE ( 'NONE', *, *, #132, .T. ) ;
#412 = EDGE_CURVE ( 'NONE', #532, #348, #26, .T. ) ;
#413 = DIRECTION ( 'NONE',  ( 0.0000000000000000000, 0.0000000000000000000, -1.000000000000000000 ) ) ;
#414 = DATE_AND_TIME ( #229, #368 ) ;
#415 = VECTOR ( 'NONE', #257, 1000.000000000000000 ) ;
#416 = ADVANCED_FACE ( 'NONE', ( #198 ), #66, .F. ) ;
#417 = PERSON_AND_ORGANIZATION_ROLE ( 'creator' ) ;
#418 = CARTESIAN_POINT ( 'NONE',  ( 23.47517606299226500, 13.49999999999999800, -31.96045743723052700 ) ) ;
#419 = DIRECTION ( 'NONE',  ( -0.7071067811865512400, 0.0000000000000000000, 0.7071067811865439100 ) ) ;
#420 = ORIENTED_EDGE ( 'NONE', *, *, #61, .T. ) ;
#421 = VECTOR ( 'NONE', #464, 1000.000000000000000 ) ;
#422 = CARTESIAN_POINT ( 'NONE',  ( -54.00000000000000000, 0.0000000000000000000, -5.999999999999999100 ) ) ;
#423 = EDGE_CURVE ( 'NONE', #524, #248, #191, .T. ) ;
#424 = PRODUCT_RELATED_PRODUCT_CATEGORY ( 'detail', '', ( #407 ) ) ;
#425 = ORIENTED_EDGE ( 'NONE', *, *, #292, .T. ) ;
#426 = VECTOR ( 'NONE', #97, 1000.000000000000000 ) ;
#427 = EDGE_LOOP ( 'NONE', ( #81, #515, #484, #560 ) ) ;
#428 = LINE ( 'NONE', #482, #251 ) ;
#429 = AXIS2_PLACEMENT_3D ( 'NONE', #78, #534, #296 ) ;
#430 = CARTESIAN_POINT ( 'NONE',  ( -54.00000000000000000, 27.00000000000000000, -5.999999999999999100 ) ) ;
#431 = DIRECTION ( 'NONE',  ( -0.7071067811865436900, -0.0000000000000000000, -0.7071067811865514600 ) ) ;
#432 = ORIENTED_EDGE ( 'NONE', *, *, #72, .T. ) ;
#433 = VECTOR ( 'NONE', #514, 1000.000000000000000 ) ;
#434 = AXIS2_PLACEMENT_3D ( 'NONE', #350, #536, #127 ) ;
#435 = DIRECTION ( 'NONE',  ( -0.0000000000000000000, -1.000000000000000000, 0.0000000000000000000 ) ) ;
#436 = EDGE_LOOP ( 'NONE', ( #590, #384, #131, #471, #391, #270, #451, #330, #546, #565 ) ) ;
#437 = VECTOR ( 'NONE', #59, 1000.000000000000000 ) ;
#438 = AXIS2_PLACEMENT_3D ( 'NONE', #283, #107, #160 ) ;
#439 = ORIENTED_EDGE ( 'NONE', *, *, #472, .F. ) ;
#440 = CARTESIAN_POINT ( 'NONE',  ( 25.77327310184855200, 13.49999999999999800, -34.25855447608679300 ) ) ;
#441 = ADVANCED_FACE ( 'NONE', ( #355 ), #27, .F. ) ;
#442 = VECTOR ( 'NONE', #399, 1000.000000000000000 ) ;
#443 = CARTESIAN_POINT ( 'NONE',  ( 0.0000000000000000000, 27.00000000000000000, 0.0000000000000000000 ) ) ;
#444 = EDGE_CURVE ( 'NONE', #9, #261, #182, .T. ) ;
#445 = CARTESIAN_POINT ( 'NONE',  ( -23.99999999999997200, 0.0000000000000000000, -5.999999999999999100 ) ) ;
#446 = EDGE_LOOP ( 'NONE', ( #265, #142, #48, #467 ) ) ;
#447 = LINE ( 'NONE', #336, #392 ) ;
#448 = DIRECTION ( 'NONE',  ( -1.000000000000000000, -0.0000000000000000000, -0.0000000000000000000 ) ) ;
#449 = CARTESIAN_POINT ( 'NONE',  ( 38.18376618407375400, 0.0000000000000000000, -38.18376618407335600 ) ) ;
#450 = EDGE_CURVE ( 'NONE', #582, #221, #12, .T. ) ;
#451 = ORIENTED_EDGE ( 'NONE', *, *, #327, .T. ) ;
#452 = CIRCLE ( 'NONE', #346, 3.249999999999996000 ) ;
#453 = ORIENTED_EDGE ( 'NONE', *, *, #116, .T. ) ;
#454 = MECHANICAL_CONTEXT ( 'NONE', #176, 'mechanical' ) ;
#455 = VECTOR ( 'NONE', #45, 1000.000000000000000 ) ;
#456 = CARTESIAN_POINT ( 'NONE',  ( 33.94112549695449100, 27.00000000000000000, -42.42640687119266100 ) ) ;
#457 =( LENGTH_UNIT ( ) NAMED_UNIT ( * ) SI_UNIT ( .MILLI., .METRE. ) );
#458 = AXIS2_PLACEMENT_3D ( 'NONE', #57, #192, #470 ) ;
#459 = PERSON_AND_ORGANIZATION_ROLE ( 'design_supplier' ) ;
#460 = ORIENTED_EDGE ( 'NONE', *, *, #268, .F. ) ;
#461 = APPLICATION_CONTEXT ( 'configuration controlled 3d designs of mechanical parts and assemblies' ) ;
#462 = DIRECTION ( 'NONE',  ( 0.0000000000000000000, 1.000000000000000000, 0.0000000000000000000 ) ) ;
#463 = CIRCLE ( 'NONE', #497, 2.000000000000000000 ) ;
#464 = DIRECTION ( 'NONE',  ( 0.0000000000000000000, -1.000000000000000000, 0.0000000000000000000 ) ) ;
#465 = VERTEX_POINT ( 'NONE', #169 ) ;
#466 = CIRCLE ( 'NONE', #92, 5.999999999999998200 ) ;
#467 = ORIENTED_EDGE ( 'NONE', *, *, #134, .F. ) ;
#468 = CARTESIAN_POINT ( 'NONE',  ( -39.19891236737964100, 13.49999999999999800, -5.999999999999999100 ) ) ;
#469 = AXIS2_PLACEMENT_3D ( 'NONE', #592, #34, #413 ) ;
#470 = DIRECTION ( 'NONE',  ( 0.7071067811865515700, 0.0000000000000000000, -0.7071067811865435800 ) ) ;
#471 = ORIENTED_EDGE ( 'NONE', *, *, #74, .T. ) ;
#472 = EDGE_CURVE ( 'NONE', #56, #53, #297, .T. ) ;
#473 = LOCAL_TIME ( 9, 35, 28.00000000000000000, #304 ) ;
#474 = CC_DESIGN_APPROVAL ( #375, ( #124 ) ) ;
#475 = CARTESIAN_POINT ( 'NONE',  ( 23.47517606299226500, 13.49999999999999800, -31.96045743723052700 ) ) ;
#476 = ORIENTED_EDGE ( 'NONE', *, *, #42, .T. ) ;
#477 = FACE_OUTER_BOUND ( 'NONE', #118, .T. ) ;
#478 = ORIENTED_EDGE ( 'NONE', *, *, #444, .F. ) ;
#479 = PERSON_AND_ORGANIZATION ( #347, #121 ) ;
#480 = DIRECTION ( 'NONE',  ( -0.0000000000000000000, -0.0000000000000000000, -1.000000000000000000 ) ) ;
#481 = DIRECTION ( 'NONE',  ( -0.9238795325112877400, -0.0000000000000000000, 0.3826834323650875100 ) ) ;
#482 = CARTESIAN_POINT ( 'NONE',  ( -24.39782473475928600, 6.938893903907228400E-015, -5.999999999999999100 ) ) ;
#483 = AXIS2_PLACEMENT_3D ( 'NONE', #312, #556, #138 ) ;
#484 = ORIENTED_EDGE ( 'NONE', *, *, #168, .F. ) ;
#485 = DIRECTION ( 'NONE',  ( -0.9238795325112877400, -0.0000000000000000000, 0.3826834323650875100 ) ) ;
#486 = CALENDAR_DATE ( 2018, 21, 6 ) ;
#487 = VECTOR ( 'NONE', #537, 1000.000000000000000 ) ;
#488 = CARTESIAN_POINT ( 'NONE',  ( 21.17707902413597800, 13.49999999999999800, -29.66236039837426100 ) ) ;
#489 = EDGE_LOOP ( 'NONE', ( #1, #453, #400, #96 ) ) ;
#490 = VECTOR ( 'NONE', #371, 1000.000000000000000 ) ;
#491 = CARTESIAN_POINT ( 'NONE',  ( 25.41971971125523300, 13.49999999999999800, -25.41971971125496300 ) ) ;
#492 = ORIENTED_EDGE ( 'NONE', *, *, #306, .F. ) ;
#493 = AXIS2_PLACEMENT_3D ( 'NONE', #299, #129, #352 ) ;
#494 = DIRECTION ( 'NONE',  ( -0.7071067811865513500, 0.0000000000000000000, 0.7071067811865438000 ) ) ;
#495 = APPROVAL_PERSON_ORGANIZATION ( #387, #389, #498 ) ;
#496 = APPLICATION_PROTOCOL_DEFINITION ( 'international standard', 'config_control_design', 1994, #461 ) ;
#497 = AXIS2_PLACEMENT_3D ( 'NONE', #73, #575, #31 ) ;
#498 = APPROVAL_ROLE ( '' ) ;
#499 = EDGE_LOOP ( 'NONE', ( #364, #584, #318, #367, #4, #358, #439, #510, #478, #476 ) ) ;
#500 = FACE_OUTER_BOUND ( 'NONE', #87, .T. ) ;
#501 = ORIENTED_EDGE ( 'NONE', *, *, #74, .F. ) ;
#502 = EDGE_CURVE ( 'NONE', #149, #582, #548, .T. ) ;
#503 = DIRECTION ( 'NONE',  ( 1.000000000000000000, 0.0000000000000000000, 0.0000000000000000000 ) ) ;
#504 = CC_DESIGN_APPROVAL ( #389, ( #567 ) ) ;
#505 = DATE_AND_TIME ( #486, #153 ) ;
#506 = CYLINDRICAL_SURFACE ( 'NONE', #520, 3.249999999999995600 ) ;
#507 = DIRECTION ( 'NONE',  ( -0.7071067811865513500, 0.0000000000000000000, 0.7071067811865438000 ) ) ;
#508 = DIRECTION ( 'NONE',  ( 0.0000000000000000000, 1.000000000000000000, 0.0000000000000000000 ) ) ;
#509 = ORIENTED_EDGE ( 'NONE', *, *, #244, .T. ) ;
#510 = ORIENTED_EDGE ( 'NONE', *, *, #168, .T. ) ;
#511 = CARTESIAN_POINT ( 'NONE',  ( 0.0000000000000000000, 0.0000000000000000000, 0.0000000000000000000 ) ) ;
#512 = EDGE_CURVE ( 'NONE', #348, #9, #378, .T. ) ;
#513 = DIRECTION ( 'NONE',  ( -0.7071067811865513500, 0.0000000000000000000, 0.7071067811865438000 ) ) ;
#514 = DIRECTION ( 'NONE',  ( -0.0000000000000000000, -1.000000000000000000, -0.0000000000000000000 ) ) ;
#515 = ORIENTED_EDGE ( 'NONE', *, *, #72, .F. ) ;
#516 = LINE ( 'NONE', #561, #433 ) ;
#517 = VERTEX_POINT ( 'NONE', #222 ) ;
#518 = CARTESIAN_POINT ( 'NONE',  ( 38.18376618407375400, 27.00000000000000000, -38.18376618407335600 ) ) ;
#519 = PERSON_AND_ORGANIZATION ( #347, #121 ) ;
#520 = AXIS2_PLACEMENT_3D ( 'NONE', #475, #338, #494 ) ;
#521 = DIRECTION ( 'NONE',  ( -3.469446951953614200E-015, 0.0000000000000000000, -1.000000000000000000 ) ) ;
#522 = CARTESIAN_POINT ( 'NONE',  ( -42.44891236737964100, 13.49999999999999800, -5.999999999999999100 ) ) ;
#523 = ADVANCED_FACE ( 'NONE', ( #555, #361 ), #263, .F. ) ;
#524 = VERTEX_POINT ( 'NONE', #491 ) ;
#525 = CIRCLE ( 'NONE', #586, 3.249999999999995600 ) ;
#526 = CALENDAR_DATE ( 2018, 21, 6 ) ;
#527 = APPROVAL ( #545, 'UNSPECIFIED' ) ;
#528 = CARTESIAN_POINT ( 'NONE',  ( 0.0000000000000000000, 27.00000000000000000, 0.0000000000000000000 ) ) ;
#529 = ADVANCED_FACE ( 'NONE', ( #113 ), #58, .T. ) ;
#530 = ORIENTED_EDGE ( 'NONE', *, *, #412, .F. ) ;
#531 = CIRCLE ( 'NONE', #284, 2.000000000000001800 ) ;
#532 = VERTEX_POINT ( 'NONE', #88 ) ;
#533 = CARTESIAN_POINT ( 'NONE',  ( -39.19891236737964100, 13.49999999999999800, -5.999999999999999100 ) ) ;
#534 = DIRECTION ( 'NONE',  ( -0.0000000000000000000, -1.000000000000000000, -0.0000000000000000000 ) ) ;
#535 = CIRCLE ( 'NONE', #493, 3.249999999999995600 ) ;
#536 = DIRECTION ( 'NONE',  ( 0.0000000000000000000, 1.000000000000000000, -0.0000000000000000000 ) ) ;
#537 = DIRECTION ( 'NONE',  ( -0.0000000000000000000, -0.0000000000000000000, -1.000000000000000000 ) ) ;
#538 = VERTEX_POINT ( 'NONE', #172 ) ;
#539 = CYLINDRICAL_SURFACE ( 'NONE', #177, 3.249999999999995600 ) ;
#540 = CARTESIAN_POINT ( 'NONE',  ( 27.71781675011152000, 13.49999999999999800, -27.71781675011122600 ) ) ;
#541 = CARTESIAN_POINT ( 'NONE',  ( 12.72792206135793500, 0.0000000000000000000, -21.21320343559634100 ) ) ;
#542 = AXIS2_PLACEMENT_3D ( 'NONE', #540, #91, #513 ) ;
#543 = ORIENTED_EDGE ( 'NONE', *, *, #309, .T. ) ;
#544 = ORIENTED_EDGE ( 'NONE', *, *, #444, .T. ) ;
#545 = APPROVAL_STATUS ( 'not_yet_approved' ) ;
#546 = ORIENTED_EDGE ( 'NONE', *, *, #252, .T. ) ;
#547 = PERSON_AND_ORGANIZATION_ROLE ( 'creator' ) ;
#548 = CIRCLE ( 'NONE', #286, 3.249999999999996000 ) ;
#549 = CARTESIAN_POINT ( 'NONE',  ( 0.0000000000000000000, 27.00000000000000000, 0.0000000000000000000 ) ) ;
#550 = AXIS2_PLACEMENT_3D ( 'NONE', #214, #404, #249 ) ;
#551 = DIRECTION ( 'NONE',  ( -0.0000000000000000000, -1.000000000000000000, 0.0000000000000000000 ) ) ;
#552 = DIRECTION ( 'NONE',  ( -0.7071067811865515700, -0.0000000000000000000, 0.7071067811865435800 ) ) ;
#553 = EDGE_LOOP ( 'NONE', ( #238, #23, #501, #68 ) ) ;
#554 = LINE ( 'NONE', #382, #181 ) ;
#555 = FACE_BOUND ( 'NONE', #185, .T. ) ;
#556 = DIRECTION ( 'NONE',  ( 0.0000000000000000000, 0.0000000000000000000, 1.000000000000000000 ) ) ;
#557 = ORIENTED_EDGE ( 'NONE', *, *, #42, .F. ) ;
#558 = CIRCLE ( 'NONE', #33, 3.249999999999995600 ) ;
#559 = CARTESIAN_POINT ( 'NONE',  ( -60.00000000000000000, 27.00000000000000000, -5.999999999999999100 ) ) ;
#560 = ORIENTED_EDGE ( 'NONE', *, *, #309, .F. ) ;
#561 = CARTESIAN_POINT ( 'NONE',  ( -60.00000000000000000, 27.00000000000000000, 0.0000000000000000000 ) ) ;
#562 = LOCAL_TIME ( 9, 35, 28.00000000000000000, #143 ) ;
#563 = CARTESIAN_POINT ( 'NONE',  ( -24.39782473475928600, 27.00000000000000000, -5.999999999999999100 ) ) ;
#564 = CARTESIAN_POINT ( 'NONE',  ( 38.18376618407375400, 0.0000000000000000000, -44.18376618407335600 ) ) ;
#565 = ORIENTED_EDGE ( 'NONE', *, *, #306, .T. ) ;
#566 = ORIENTED_EDGE ( 'NONE', *, *, #512, .T. ) ;
#567 = PRODUCT_DEFINITION ( 'UNKNOWN', '', #99, #315 ) ;
#568 = AXIS2_PLACEMENT_3D ( 'NONE', #468, #370, #151 ) ;
#569 = DIRECTION ( 'NONE',  ( -1.000000000000000000, 0.0000000000000000000, 0.0000000000000000000 ) ) ;
#570 = ORIENTED_EDGE ( 'NONE', *, *, #423, .F. ) ;
#571 = LINE ( 'NONE', #46, #421 ) ;
#572 = ORIENTED_EDGE ( 'NONE', *, *, #199, .T. ) ;
#573 = CARTESIAN_POINT ( 'NONE',  ( -23.99999999999997200, 27.00000000000000000, -5.999999999999999100 ) ) ;
#574 = DIRECTION ( 'NONE',  ( -0.0000000000000000000, -0.0000000000000000000, -1.000000000000000000 ) ) ;
#575 = DIRECTION ( 'NONE',  ( -0.0000000000000000000, -1.000000000000000000, -0.0000000000000000000 ) ) ;
#576 = EDGE_CURVE ( 'NONE', #248, #288, #535, .T. ) ;
#577 = VERTEX_POINT ( 'NONE', #456 ) ;
#578 = CARTESIAN_POINT ( 'NONE',  ( 13.00922662902998700, 27.00000000000000000, -21.49450800326839000 ) ) ;
#579 = VECTOR ( 'NONE', #448, 1000.000000000000000 ) ;
#580 = EDGE_CURVE ( 'NONE', #246, #577, #161, .T. ) ;
#581 = CARTESIAN_POINT ( 'NONE',  ( 38.18376618407375400, 27.00000000000000000, -38.18376618407335600 ) ) ;
#582 = VERTEX_POINT ( 'NONE', #220 ) ;
#583 = CIRCLE ( 'NONE', #324, 6.000000000000000000 ) ;
#584 = ORIENTED_EDGE ( 'NONE', *, *, #334, .T. ) ;
#585 = CYLINDRICAL_SURFACE ( 'NONE', #112, 5.999999999999998200 ) ;
#586 = AXIS2_PLACEMENT_3D ( 'NONE', #418, #273, #184 ) ;
#587 = ADVANCED_BREP_SHAPE_REPRESENTATION ( 'ALP2430', ( #35, #245 ), #202 ) ;
#588 = APPLICATION_PROTOCOL_DEFINITION ( 'international standard', 'config_control_design', 1994, #176 ) ;
#589 = DATE_TIME_ROLE ( 'creation_date' ) ;
#590 = ORIENTED_EDGE ( 'NONE', *, *, #380, .T. ) ;
#591 = CARTESIAN_POINT ( 'NONE',  ( 42.42640687119306600, 27.00000000000000000, -42.42640687119262600 ) ) ;
#592 = CARTESIAN_POINT ( 'NONE',  ( 38.18376618407375400, 27.00000000000000000, -38.18376618407335600 ) ) ;
#593 = COORDINATED_UNIVERSAL_TIME_OFFSET ( 1, 0, .AHEAD. ) ;
ENDSEC;
END-ISO-10303-21;
