ISO-10303-21;
HEADER;
FILE_DESCRIPTION (( 'STEP AP203' ),
    '1' );
FILE_NAME ('ALP2171.STEP',
    '2017-02-17T19:42:40',
    ( '' ),
    ( '' ),
    'SwSTEP 2.0',
    'SolidWorks 2012',
    '' );
FILE_SCHEMA (( 'CONFIG_CONTROL_DESIGN' ));
ENDSEC;

DATA;
#1 = EDGE_LOOP ( 'NONE', ( #256, #243, #259, #274 ) ) ;
#2 = EDGE_LOOP ( 'NONE', ( #215, #200, #204, #197, #210, #192, #202, #208, #223, #224 ) ) ;
#3 = VERTEX_POINT ( 'NONE', #840 ) ;
#4 = VERTEX_POINT ( 'NONE', #843 ) ;
#5 = VERTEX_POINT ( 'NONE', #834 ) ;
#6 = VERTEX_POINT ( 'NONE', #835 ) ;
#7 = VERTEX_POINT ( 'NONE', #836 ) ;
#8 = EDGE_LOOP ( 'NONE', ( #155, #217 ) ) ;
#9 = ORIENTED_EDGE ( 'NONE', *, *, #910, .F. ) ;
#10 = VERTEX_POINT ( 'NONE', #839 ) ;
#11 = VERTEX_POINT ( 'NONE', #841 ) ;
#12 = VERTEX_POINT ( 'NONE', #842 ) ;
#13 = EDGE_LOOP ( 'NONE', ( #254, #148 ) ) ;
#14 = EDGE_LOOP ( 'NONE', ( #9, #222, #221, #191 ) ) ;
#15 = VERTEX_POINT ( 'NONE', #838 ) ;
#16 = VERTEX_POINT ( 'NONE', #844 ) ;
#17 = VERTEX_POINT ( 'NONE', #845 ) ;
#18 = EDGE_LOOP ( 'NONE', ( #194, #225 ) ) ;
#19 = VERTEX_POINT ( 'NONE', #846 ) ;
#20 = EDGE_LOOP ( 'NONE', ( #242, #262, #268, #261 ) ) ;
#21 = VERTEX_POINT ( 'NONE', #837 ) ;
#22 = VERTEX_POINT ( 'NONE', #849 ) ;
#23 = VERTEX_POINT ( 'NONE', #847 ) ;
#24 = VERTEX_POINT ( 'NONE', #848 ) ;
#25 = VERTEX_POINT ( 'NONE', #833 ) ;
#26 = VERTEX_POINT ( 'NONE', #787 ) ;
#27 = VERTEX_POINT ( 'NONE', #779 ) ;
#28 = EDGE_LOOP ( 'NONE', ( #238, #258, #269, #270 ) ) ;
#29 = VERTEX_POINT ( 'NONE', #788 ) ;
#30 = VERTEX_POINT ( 'NONE', #778 ) ;
#31 = VERTEX_POINT ( 'NONE', #789 ) ;
#32 = EDGE_LOOP ( 'NONE', ( #183, #181, #188, #199, #211, #209, #206, #184, #248, #189 ) ) ;
#33 = VERTEX_POINT ( 'NONE', #790 ) ;
#34 = VERTEX_POINT ( 'NONE', #791 ) ;
#35 = VERTEX_POINT ( 'NONE', #786 ) ;
#36 = VERTEX_POINT ( 'NONE', #784 ) ;
#37 = EDGE_LOOP ( 'NONE', ( #150, #190, #168, #154, #164 ) ) ;
#38 = EDGE_LOOP ( 'NONE', ( #263, #267, #241, #249 ) ) ;
#39 = VERTEX_POINT ( 'NONE', #785 ) ;
#40 = EDGE_LOOP ( 'NONE', ( #203, #153, #178, #160, #175, #176, #198, #170 ) ) ;
#41 = VERTEX_POINT ( 'NONE', #783 ) ;
#42 = EDGE_LOOP ( 'NONE', ( #205, #273, #233, #231 ) ) ;
#43 = EDGE_LOOP ( 'NONE', ( #240, #236, #234, #182 ) ) ;
#44 = EDGE_LOOP ( 'NONE', ( #271, #272, #239, #255 ) ) ;
#45 = EDGE_LOOP ( 'NONE', ( #157, #161, #159, #179, #177, #134, #172, #212, #149, #171 ) ) ;
#46 = VERTEX_POINT ( 'NONE', #775 ) ;
#47 = VERTEX_POINT ( 'NONE', #792 ) ;
#48 = VERTEX_POINT ( 'NONE', #773 ) ;
#49 = EDGE_LOOP ( 'NONE', ( #187, #152, #174, #158, #214, #227, #162, #186 ) ) ;
#50 = VERTEX_POINT ( 'NONE', #774 ) ;
#51 = VERTEX_POINT ( 'NONE', #776 ) ;
#52 = EDGE_LOOP ( 'NONE', ( #244, #230, #229, #228 ) ) ;
#53 = VERTEX_POINT ( 'NONE', #780 ) ;
#54 = EDGE_LOOP ( 'NONE', ( #185, #237, #201, #226 ) ) ;
#55 = EDGE_LOOP ( 'NONE', ( #253, #275, #250, #235 ) ) ;
#56 = VERTEX_POINT ( 'NONE', #781 ) ;
#57 = VERTEX_POINT ( 'NONE', #777 ) ;
#58 = VERTEX_POINT ( 'NONE', #782 ) ;
#59 = EDGE_LOOP ( 'NONE', ( #102, #83, #112, #115 ) ) ;
#60 = EDGE_LOOP ( 'NONE', ( #196, #147, #218, #156 ) ) ;
#61 = EDGE_LOOP ( 'NONE', ( #151, #128 ) ) ;
#62 = EDGE_LOOP ( 'NONE', ( #129, #166, #130, #133, #163 ) ) ;
#63 = EDGE_LOOP ( 'NONE', ( #107, #110, #125, #108 ) ) ;
#64 = EDGE_LOOP ( 'NONE', ( #140, #114, #131, #81 ) ) ;
#65 = VERTEX_POINT ( 'NONE', #793 ) ;
#66 = EDGE_LOOP ( 'NONE', ( #146, #141, #78, #142 ) ) ;
#67 = EDGE_LOOP ( 'NONE', ( #82, #100, #145, #123 ) ) ;
#68 = EDGE_LOOP ( 'NONE', ( #121, #126, #136, #144 ) ) ;
#69 = EDGE_LOOP ( 'NONE', ( #207, #232, #220, #109 ) ) ;
#70 = VERTEX_POINT ( 'NONE', #794 ) ;
#71 = EDGE_LOOP ( 'NONE', ( #116, #127, #117, #103 ) ) ;
#72 = EDGE_LOOP ( 'NONE', ( #111, #106, #99, #113 ) ) ;
#73 = EDGE_LOOP ( 'NONE', ( #195, #216, #173, #193, #165 ) ) ;
#74 = EDGE_LOOP ( 'NONE', ( #104, #135, #118, #143, #80, #139, #120, #122, #124, #137 ) ) ;
#75 = VERTEX_POINT ( 'NONE', #801 ) ;
#76 = EDGE_LOOP ( 'NONE', ( #138, #105, #132, #101 ) ) ;
#77 = EDGE_LOOP ( 'NONE', ( #169, #167, #180, #219, #213 ) ) ;
#78 = ORIENTED_EDGE ( 'NONE', *, *, #871, .F. ) ;
#79 = VERTEX_POINT ( 'NONE', #799 ) ;
#80 = ORIENTED_EDGE ( 'NONE', *, *, #870, .F. ) ;
#81 = ORIENTED_EDGE ( 'NONE', *, *, #941, .T. ) ;
#82 = ORIENTED_EDGE ( 'NONE', *, *, #927, .F. ) ;
#83 = ORIENTED_EDGE ( 'NONE', *, *, #941, .F. ) ;
#84 = VERTEX_POINT ( 'NONE', #796 ) ;
#85 = VERTEX_POINT ( 'NONE', #795 ) ;
#86 = VERTEX_POINT ( 'NONE', #800 ) ;
#87 = VERTEX_POINT ( 'NONE', #797 ) ;
#88 = VERTEX_POINT ( 'NONE', #759 ) ;
#89 = VERTEX_POINT ( 'NONE', #760 ) ;
#90 = VERTEX_POINT ( 'NONE', #755 ) ;
#91 = VERTEX_POINT ( 'NONE', #756 ) ;
#92 = VERTEX_POINT ( 'NONE', #751 ) ;
#93 = VERTEX_POINT ( 'NONE', #750 ) ;
#94 = VERTEX_POINT ( 'NONE', #757 ) ;
#95 = VERTEX_POINT ( 'NONE', #761 ) ;
#96 = VERTEX_POINT ( 'NONE', #754 ) ;
#97 = VERTEX_POINT ( 'NONE', #758 ) ;
#98 = VERTEX_POINT ( 'NONE', #752 ) ;
#99 = ORIENTED_EDGE ( 'NONE', *, *, #881, .F. ) ;
#100 = ORIENTED_EDGE ( 'NONE', *, *, #940, .F. ) ;
#101 = ORIENTED_EDGE ( 'NONE', *, *, #862, .T. ) ;
#102 = ORIENTED_EDGE ( 'NONE', *, *, #937, .F. ) ;
#103 = ORIENTED_EDGE ( 'NONE', *, *, #940, .T. ) ;
#104 = ORIENTED_EDGE ( 'NONE', *, *, #877, .F. ) ;
#105 = ORIENTED_EDGE ( 'NONE', *, *, #956, .F. ) ;
#106 = ORIENTED_EDGE ( 'NONE', *, *, #909, .F. ) ;
#107 = ORIENTED_EDGE ( 'NONE', *, *, #954, .T. ) ;
#108 = ORIENTED_EDGE ( 'NONE', *, *, #956, .T. ) ;
#109 = ORIENTED_EDGE ( 'NONE', *, *, #923, .T. ) ;
#110 = ORIENTED_EDGE ( 'NONE', *, *, #926, .F. ) ;
#111 = ORIENTED_EDGE ( 'NONE', *, *, #955, .T. ) ;
#112 = ORIENTED_EDGE ( 'NONE', *, *, #924, .T. ) ;
#113 = ORIENTED_EDGE ( 'NONE', *, *, #953, .T. ) ;
#114 = ORIENTED_EDGE ( 'NONE', *, *, #935, .F. ) ;
#115 = ORIENTED_EDGE ( 'NONE', *, *, #912, .T. ) ;
#116 = ORIENTED_EDGE ( 'NONE', *, *, #945, .F. ) ;
#117 = ORIENTED_EDGE ( 'NONE', *, *, #943, .T. ) ;
#118 = ORIENTED_EDGE ( 'NONE', *, *, #954, .F. ) ;
#119 = CLOSED_SHELL ( 'NONE', ( #990, #992, #994, #984, #968, #969, #986, #972, #976, #983, #977, #996, #970, #980, #974, #981, #997, #995, #966, #985, #973, #975, #987, #991, #988, #989, #993, #982, #971, #967, #978, #979 ) ) ;
#120 = ORIENTED_EDGE ( 'NONE', *, *, #932, .F. ) ;
#121 = ORIENTED_EDGE ( 'NONE', *, *, #939, .T. ) ;
#122 = ORIENTED_EDGE ( 'NONE', *, *, #867, .F. ) ;
#123 = ORIENTED_EDGE ( 'NONE', *, *, #889, .T. ) ;
#124 = ORIENTED_EDGE ( 'NONE', *, *, #878, .F. ) ;
#125 = ORIENTED_EDGE ( 'NONE', *, *, #874, .F. ) ;
#126 = ORIENTED_EDGE ( 'NONE', *, *, #949, .F. ) ;
#127 = ORIENTED_EDGE ( 'NONE', *, *, #866, .F. ) ;
#128 = ORIENTED_EDGE ( 'NONE', *, *, #917, .F. ) ;
#129 = ORIENTED_EDGE ( 'NONE', *, *, #896, .F. ) ;
#130 = ORIENTED_EDGE ( 'NONE', *, *, #871, .T. ) ;
#131 = ORIENTED_EDGE ( 'NONE', *, *, #946, .T. ) ;
#132 = ORIENTED_EDGE ( 'NONE', *, *, #890, .F. ) ;
#133 = ORIENTED_EDGE ( 'NONE', *, *, #881, .T. ) ;
#134 = ORIENTED_EDGE ( 'NONE', *, *, #933, .F. ) ;
#135 = ORIENTED_EDGE ( 'NONE', *, *, #939, .F. ) ;
#136 = ORIENTED_EDGE ( 'NONE', *, *, #876, .F. ) ;
#137 = ORIENTED_EDGE ( 'NONE', *, *, #855, .F. ) ;
#138 = ORIENTED_EDGE ( 'NONE', *, *, #944, .T. ) ;
#139 = ORIENTED_EDGE ( 'NONE', *, *, #955, .F. ) ;
#140 = ORIENTED_EDGE ( 'NONE', *, *, #918, .F. ) ;
#141 = ORIENTED_EDGE ( 'NONE', *, *, #953, .F. ) ;
#142 = ORIENTED_EDGE ( 'NONE', *, *, #942, .T. ) ;
#143 = ORIENTED_EDGE ( 'NONE', *, *, #944, .F. ) ;
#144 = ORIENTED_EDGE ( 'NONE', *, *, #926, .T. ) ;
#145 = ORIENTED_EDGE ( 'NONE', *, *, #913, .T. ) ;
#146 = ORIENTED_EDGE ( 'NONE', *, *, #932, .T. ) ;
#147 = ORIENTED_EDGE ( 'NONE', *, *, #906, .T. ) ;
#148 = ORIENTED_EDGE ( 'NONE', *, *, #929, .T. ) ;
#149 = ORIENTED_EDGE ( 'NONE', *, *, #882, .F. ) ;
#150 = ORIENTED_EDGE ( 'NONE', *, *, #891, .F. ) ;
#151 = ORIENTED_EDGE ( 'NONE', *, *, #912, .F. ) ;
#152 = ORIENTED_EDGE ( 'NONE', *, *, #903, .T. ) ;
#153 = ORIENTED_EDGE ( 'NONE', *, *, #892, .F. ) ;
#154 = ORIENTED_EDGE ( 'NONE', *, *, #857, .T. ) ;
#155 = ORIENTED_EDGE ( 'NONE', *, *, #935, .T. ) ;
#156 = ORIENTED_EDGE ( 'NONE', *, *, #855, .T. ) ;
#157 = ORIENTED_EDGE ( 'NONE', *, *, #915, .F. ) ;
#158 = ORIENTED_EDGE ( 'NONE', *, *, #895, .T. ) ;
#159 = ORIENTED_EDGE ( 'NONE', *, *, #894, .F. ) ;
#160 = ORIENTED_EDGE ( 'NONE', *, *, #870, .T. ) ;
#161 = ORIENTED_EDGE ( 'NONE', *, *, #861, .F. ) ;
#162 = ORIENTED_EDGE ( 'NONE', *, *, #888, .T. ) ;
#163 = ORIENTED_EDGE ( 'NONE', *, *, #892, .T. ) ;
#164 = ORIENTED_EDGE ( 'NONE', *, *, #938, .F. ) ;
#165 = ORIENTED_EDGE ( 'NONE', *, *, #886, .T. ) ;
#166 = ORIENTED_EDGE ( 'NONE', *, *, #864, .T. ) ;
#167 = ORIENTED_EDGE ( 'NONE', *, *, #902, .T. ) ;
#168 = ORIENTED_EDGE ( 'NONE', *, *, #869, .F. ) ;
#169 = ORIENTED_EDGE ( 'NONE', *, *, #947, .F. ) ;
#170 = ORIENTED_EDGE ( 'NONE', *, *, #880, .T. ) ;
#171 = ORIENTED_EDGE ( 'NONE', *, *, #893, .F. ) ;
#172 = ORIENTED_EDGE ( 'NONE', *, *, #873, .F. ) ;
#173 = ORIENTED_EDGE ( 'NONE', *, *, #885, .T. ) ;
#174 = ORIENTED_EDGE ( 'NONE', *, *, #880, .F. ) ;
#175 = ORIENTED_EDGE ( 'NONE', *, *, #862, .F. ) ;
#176 = ORIENTED_EDGE ( 'NONE', *, *, #902, .F. ) ;
#177 = ORIENTED_EDGE ( 'NONE', *, *, #888, .F. ) ;
#178 = ORIENTED_EDGE ( 'NONE', *, *, #909, .T. ) ;
#179 = ORIENTED_EDGE ( 'NONE', *, *, #884, .F. ) ;
#180 = ORIENTED_EDGE ( 'NONE', *, *, #890, .T. ) ;
#181 = ORIENTED_EDGE ( 'NONE', *, *, #949, .T. ) ;
#182 = ORIENTED_EDGE ( 'NONE', *, *, #907, .F. ) ;
#183 = ORIENTED_EDGE ( 'NONE', *, *, #947, .T. ) ;
#184 = ORIENTED_EDGE ( 'NONE', *, *, #857, .F. ) ;
#185 = ORIENTED_EDGE ( 'NONE', *, *, #934, .F. ) ;
#186 = ORIENTED_EDGE ( 'NONE', *, *, #875, .F. ) ;
#187 = ORIENTED_EDGE ( 'NONE', *, *, #865, .F. ) ;
#188 = ORIENTED_EDGE ( 'NONE', *, *, #877, .T. ) ;
#189 = ORIENTED_EDGE ( 'NONE', *, *, #921, .F. ) ;
#190 = ORIENTED_EDGE ( 'NONE', *, *, #936, .F. ) ;
#191 = ORIENTED_EDGE ( 'NONE', *, *, #946, .F. ) ;
#192 = ORIENTED_EDGE ( 'NONE', *, *, #858, .F. ) ;
#193 = ORIENTED_EDGE ( 'NONE', *, *, #868, .T. ) ;
#194 = ORIENTED_EDGE ( 'NONE', *, *, #889, .F. ) ;
#195 = ORIENTED_EDGE ( 'NONE', *, *, #865, .T. ) ;
#196 = ORIENTED_EDGE ( 'NONE', *, *, #911, .F. ) ;
#197 = ORIENTED_EDGE ( 'NONE', *, *, #923, .F. ) ;
#198 = ORIENTED_EDGE ( 'NONE', *, *, #921, .T. ) ;
#199 = ORIENTED_EDGE ( 'NONE', *, *, #931, .F. ) ;
#200 = ORIENTED_EDGE ( 'NONE', *, *, #911, .T. ) ;
#201 = ORIENTED_EDGE ( 'NONE', *, *, #884, .T. ) ;
#202 = ORIENTED_EDGE ( 'NONE', *, *, #903, .F. ) ;
#203 = ORIENTED_EDGE ( 'NONE', *, *, #858, .T. ) ;
#204 = ORIENTED_EDGE ( 'NONE', *, *, #878, .T. ) ;
#205 = ORIENTED_EDGE ( 'NONE', *, *, #906, .F. ) ;
#206 = ORIENTED_EDGE ( 'NONE', *, *, #856, .F. ) ;
#207 = ORIENTED_EDGE ( 'NONE', *, *, #867, .T. ) ;
#208 = ORIENTED_EDGE ( 'NONE', *, *, #886, .F. ) ;
#209 = ORIENTED_EDGE ( 'NONE', *, *, #882, .T. ) ;
#210 = ORIENTED_EDGE ( 'NONE', *, *, #896, .T. ) ;
#211 = ORIENTED_EDGE ( 'NONE', *, *, #883, .T. ) ;
#212 = ORIENTED_EDGE ( 'NONE', *, *, #860, .F. ) ;
#213 = ORIENTED_EDGE ( 'NONE', *, *, #876, .T. ) ;
#214 = ORIENTED_EDGE ( 'NONE', *, *, #869, .T. ) ;
#215 = ORIENTED_EDGE ( 'NONE', *, *, #950, .F. ) ;
#216 = ORIENTED_EDGE ( 'NONE', *, *, #934, .T. ) ;
#217 = ORIENTED_EDGE ( 'NONE', *, *, #910, .T. ) ;
#218 = ORIENTED_EDGE ( 'NONE', *, *, #931, .T. ) ;
#219 = ORIENTED_EDGE ( 'NONE', *, *, #874, .T. ) ;
#220 = ORIENTED_EDGE ( 'NONE', *, *, #864, .F. ) ;
#221 = ORIENTED_EDGE ( 'NONE', *, *, #908, .T. ) ;
#222 = ORIENTED_EDGE ( 'NONE', *, *, #918, .T. ) ;
#223 = ORIENTED_EDGE ( 'NONE', *, *, #907, .T. ) ;
#224 = ORIENTED_EDGE ( 'NONE', *, *, #915, .T. ) ;
#225 = ORIENTED_EDGE ( 'NONE', *, *, #948, .F. ) ;
#226 = ORIENTED_EDGE ( 'NONE', *, *, #863, .F. ) ;
#227 = ORIENTED_EDGE ( 'NONE', *, *, #879, .T. ) ;
#228 = ORIENTED_EDGE ( 'NONE', *, *, #887, .F. ) ;
#229 = ORIENTED_EDGE ( 'NONE', *, *, #894, .T. ) ;
#230 = ORIENTED_EDGE ( 'NONE', *, *, #863, .T. ) ;
#231 = ORIENTED_EDGE ( 'NONE', *, *, #883, .F. ) ;
#232 = ORIENTED_EDGE ( 'NONE', *, *, #942, .F. ) ;
#233 = ORIENTED_EDGE ( 'NONE', *, *, #893, .T. ) ;
#234 = ORIENTED_EDGE ( 'NONE', *, *, #861, .T. ) ;
#235 = ORIENTED_EDGE ( 'NONE', *, *, #924, .F. ) ;
#236 = ORIENTED_EDGE ( 'NONE', *, *, #887, .T. ) ;
#237 = ORIENTED_EDGE ( 'NONE', *, *, #875, .T. ) ;
#238 = ORIENTED_EDGE ( 'NONE', *, *, #859, .F. ) ;
#239 = ORIENTED_EDGE ( 'NONE', *, *, #856, .T. ) ;
#240 = ORIENTED_EDGE ( 'NONE', *, *, #868, .F. ) ;
#241 = ORIENTED_EDGE ( 'NONE', *, *, #859, .T. ) ;
#242 = ORIENTED_EDGE ( 'NONE', *, *, #922, .F. ) ;
#243 = ORIENTED_EDGE ( 'NONE', *, *, #945, .T. ) ;
#244 = ORIENTED_EDGE ( 'NONE', *, *, #885, .F. ) ;
#245 = LINE ( 'NONE', #762, #246 ) ;
#246 = VECTOR ( 'NONE', #765, 1000.000000000000000 ) ;
#247 = VECTOR ( 'NONE', #764, 1000.000000000000000 ) ;
#248 = ORIENTED_EDGE ( 'NONE', *, *, #895, .F. ) ;
#249 = ORIENTED_EDGE ( 'NONE', *, *, #933, .T. ) ;
#250 = ORIENTED_EDGE ( 'NONE', *, *, #917, .T. ) ;
#251 = VECTOR ( 'NONE', #763, 1000.000000000000000 ) ;
#252 = LINE ( 'NONE', #766, #264 ) ;
#253 = ORIENTED_EDGE ( 'NONE', *, *, #908, .F. ) ;
#254 = ORIENTED_EDGE ( 'NONE', *, *, #866, .T. ) ;
#255 = ORIENTED_EDGE ( 'NONE', *, *, #860, .T. ) ;
#256 = ORIENTED_EDGE ( 'NONE', *, *, #929, .F. ) ;
#257 = LINE ( 'NONE', #753, #251 ) ;
#258 = ORIENTED_EDGE ( 'NONE', *, *, #891, .T. ) ;
#259 = ORIENTED_EDGE ( 'NONE', *, *, #922, .T. ) ;
#260 = LINE ( 'NONE', #767, #247 ) ;
#261 = ORIENTED_EDGE ( 'NONE', *, *, #913, .F. ) ;
#262 = ORIENTED_EDGE ( 'NONE', *, *, #927, .T. ) ;
#263 = ORIENTED_EDGE ( 'NONE', *, *, #879, .F. ) ;
#264 = VECTOR ( 'NONE', #770, 1000.000000000000000 ) ;
#265 = LINE ( 'NONE', #809, #266 ) ;
#266 = VECTOR ( 'NONE', #808, 1000.000000000000000 ) ;
#267 = ORIENTED_EDGE ( 'NONE', *, *, #936, .T. ) ;
#268 = ORIENTED_EDGE ( 'NONE', *, *, #948, .T. ) ;
#269 = ORIENTED_EDGE ( 'NONE', *, *, #872, .T. ) ;
#270 = ORIENTED_EDGE ( 'NONE', *, *, #873, .T. ) ;
#271 = ORIENTED_EDGE ( 'NONE', *, *, #872, .F. ) ;
#272 = ORIENTED_EDGE ( 'NONE', *, *, #938, .T. ) ;
#273 = ORIENTED_EDGE ( 'NONE', *, *, #950, .T. ) ;
#274 = ORIENTED_EDGE ( 'NONE', *, *, #943, .F. ) ;
#275 = ORIENTED_EDGE ( 'NONE', *, *, #937, .T. ) ;
#276 = VECTOR ( 'NONE', #813, 1000.000000000000000 ) ;
#277 = LINE ( 'NONE', #806, #278 ) ;
#278 = VECTOR ( 'NONE', #821, 1000.000000000000000 ) ;
#279 = LINE ( 'NONE', #807, #283 ) ;
#280 = VECTOR ( 'NONE', #818, 1000.000000000000000 ) ;
#281 = CIRCLE ( 'NONE', #914, 2.499999999999996900 ) ;
#282 = LINE ( 'NONE', #814, #284 ) ;
#283 = VECTOR ( 'NONE', #816, 1000.000000000000000 ) ;
#284 = VECTOR ( 'NONE', #810, 1000.000000000000000 ) ;
#285 = LINE ( 'NONE', #811, #276 ) ;
#286 = LINE ( 'NONE', #820, #280 ) ;
#287 = LINE ( 'NONE', #812, #288 ) ;
#288 = VECTOR ( 'NONE', #815, 1000.000000000000000 ) ;
#289 = LINE ( 'NONE', #827, #309 ) ;
#290 = LINE ( 'NONE', #1003, #304 ) ;
#291 = LINE ( 'NONE', #745, #301 ) ;
#292 = VECTOR ( 'NONE', #1005, 1000.000000000000000 ) ;
#293 = LINE ( 'NONE', #1019, #318 ) ;
#294 = CIRCLE ( 'NONE', #897, 3.024999999999999900 ) ;
#295 = VECTOR ( 'NONE', #1026, 1000.000000000000000 ) ;
#296 = LINE ( 'NONE', #734, #333 ) ;
#297 = VECTOR ( 'NONE', #1002, 1000.000000000000000 ) ;
#298 = LINE ( 'NONE', #1004, #299 ) ;
#299 = VECTOR ( 'NONE', #826, 1000.000000000000000 ) ;
#300 = LINE ( 'NONE', #738, #315 ) ;
#301 = VECTOR ( 'NONE', #746, 1000.000000000000000 ) ;
#302 = LINE ( 'NONE', #828, #314 ) ;
#303 = VECTOR ( 'NONE', #1009, 999.9999999999998900 ) ;
#304 = VECTOR ( 'NONE', #1006, 1000.000000000000000 ) ;
#305 = LINE ( 'NONE', #831, #306 ) ;
#306 = VECTOR ( 'NONE', #850, 1000.000000000000000 ) ;
#307 = VECTOR ( 'NONE', #741, 1000.000000000000000 ) ;
#308 = VECTOR ( 'NONE', #1025, 1000.000000000000000 ) ;
#309 = VECTOR ( 'NONE', #829, 1000.000000000000000 ) ;
#310 = LINE ( 'NONE', #1027, #323 ) ;
#311 = VECTOR ( 'NONE', #742, 1000.000000000000000 ) ;
#312 = LINE ( 'NONE', #1016, #326 ) ;
#313 = LINE ( 'NONE', #743, #325 ) ;
#314 = VECTOR ( 'NONE', #830, 1000.000000000000000 ) ;
#315 = VECTOR ( 'NONE', #749, 1000.000000000000000 ) ;
#316 = LINE ( 'NONE', #851, #322 ) ;
#317 = LINE ( 'NONE', #1001, #303 ) ;
#318 = VECTOR ( 'NONE', #1015, 1000.000000000000000 ) ;
#319 = LINE ( 'NONE', #1021, #295 ) ;
#320 = VECTOR ( 'NONE', #737, 1000.000000000000000 ) ;
#321 = LINE ( 'NONE', #1007, #292 ) ;
#322 = VECTOR ( 'NONE', #853, 1000.000000000000000 ) ;
#323 = VECTOR ( 'NONE', #1028, 999.9999999999998900 ) ;
#324 = LINE ( 'NONE', #1029, #337 ) ;
#325 = VECTOR ( 'NONE', #744, 1000.000000000000000 ) ;
#326 = VECTOR ( 'NONE', #1018, 1000.000000000000000 ) ;
#327 = LINE ( 'NONE', #1024, #308 ) ;
#328 = LINE ( 'NONE', #1023, #329 ) ;
#329 = VECTOR ( 'NONE', #1022, 1000.000000000000000 ) ;
#330 = VECTOR ( 'NONE', #1011, 1000.000000000000000 ) ;
#331 = LINE ( 'NONE', #740, #307 ) ;
#332 = LINE ( 'NONE', #739, #311 ) ;
#333 = VECTOR ( 'NONE', #736, 1000.000000000000000 ) ;
#334 = LINE ( 'NONE', #1010, #330 ) ;
#335 = LINE ( 'NONE', #748, #320 ) ;
#336 = LINE ( 'NONE', #1013, #297 ) ;
#337 = VECTOR ( 'NONE', #823, 1000.000000000000000 ) ;
#338 = LINE ( 'NONE', #817, #348 ) ;
#339 = VECTOR ( 'NONE', #962, 1000.000000000000000 ) ;
#340 = VECTOR ( 'NONE', #731, 1000.000000000000000 ) ;
#341 = LINE ( 'NONE', #824, #355 ) ;
#342 = LINE ( 'NONE', #747, #344 ) ;
#343 = VECTOR ( 'NONE', #1012, 1000.000000000000000 ) ;
#344 = VECTOR ( 'NONE', #733, 1000.000000000000000 ) ;
#345 = LINE ( 'NONE', #965, #339 ) ;
#346 = VECTOR ( 'NONE', #852, 1000.000000000000100 ) ;
#347 = VECTOR ( 'NONE', #732, 1000.000000000000000 ) ;
#348 = VECTOR ( 'NONE', #819, 1000.000000000000000 ) ;
#349 = CIRCLE ( 'NONE', #916, 2.499999999999997300 ) ;
#350 = VECTOR ( 'NONE', #735, 1000.000000000000000 ) ;
#351 = LINE ( 'NONE', #728, #359 ) ;
#352 = CIRCLE ( 'NONE', #919, 3.024999999999999900 ) ;
#353 = LINE ( 'NONE', #542, #393 ) ;
#354 = VECTOR ( 'NONE', #805, 1000.000000000000000 ) ;
#355 = VECTOR ( 'NONE', #958, 1000.000000000000000 ) ;
#356 = LINE ( 'NONE', #959, #347 ) ;
#357 = LINE ( 'NONE', #1008, #343 ) ;
#358 = LINE ( 'NONE', #825, #354 ) ;
#359 = VECTOR ( 'NONE', #729, 1000.000000000000000 ) ;
#360 = VECTOR ( 'NONE', #769, 1000.000000000000000 ) ;
#361 = LINE ( 'NONE', #854, #346 ) ;
#362 = LINE ( 'NONE', #832, #350 ) ;
#363 = LINE ( 'NONE', #730, #340 ) ;
#364 = CIRCLE ( 'NONE', #925, 2.499999999999998200 ) ;
#365 = LINE ( 'NONE', #768, #360 ) ;
#366 = CIRCLE ( 'NONE', #952, 2.499999999999996900 ) ;
#367 = LINE ( 'NONE', #547, #401 ) ;
#368 = VECTOR ( 'NONE', #524, 999.9999999999998900 ) ;
#369 = LINE ( 'NONE', #525, #391 ) ;
#370 = LINE ( 'NONE', #562, #398 ) ;
#371 = LINE ( 'NONE', #540, #368 ) ;
#372 = CIRCLE ( 'NONE', #898, 2.499999999999998200 ) ;
#373 = LINE ( 'NONE', #555, #374 ) ;
#374 = VECTOR ( 'NONE', #564, 1000.000000000000000 ) ;
#375 = LINE ( 'NONE', #515, #389 ) ;
#376 = LINE ( 'NONE', #575, #377 ) ;
#377 = VECTOR ( 'NONE', #565, 1000.000000000000000 ) ;
#378 = LINE ( 'NONE', #569, #379 ) ;
#379 = VECTOR ( 'NONE', #567, 999.9999999999998900 ) ;
#380 = CIRCLE ( 'NONE', #904, 3.024999999999999900 ) ;
#381 = VECTOR ( 'NONE', #532, 1000.000000000000000 ) ;
#382 = VECTOR ( 'NONE', #527, 1000.000000000000000 ) ;
#383 = LINE ( 'NONE', #531, #402 ) ;
#384 = LINE ( 'NONE', #534, #392 ) ;
#385 = CIRCLE ( 'NONE', #951, 2.499999999999988500 ) ;
#386 = LINE ( 'NONE', #530, #394 ) ;
#387 = LINE ( 'NONE', #509, #396 ) ;
#388 = LINE ( 'NONE', #538, #381 ) ;
#389 = VECTOR ( 'NONE', #535, 1000.000000000000000 ) ;
#390 = LINE ( 'NONE', #546, #397 ) ;
#391 = VECTOR ( 'NONE', #533, 1000.000000000000000 ) ;
#392 = VECTOR ( 'NONE', #508, 1000.000000000000000 ) ;
#393 = VECTOR ( 'NONE', #537, 1000.000000000000000 ) ;
#394 = VECTOR ( 'NONE', #529, 1000.000000000000000 ) ;
#395 = LINE ( 'NONE', #541, #382 ) ;
#396 = VECTOR ( 'NONE', #523, 1000.000000000000000 ) ;
#397 = VECTOR ( 'NONE', #543, 1000.000000000000100 ) ;
#398 = VECTOR ( 'NONE', #582, 1000.000000000000000 ) ;
#399 = CIRCLE ( 'NONE', #928, 2.499999999999997300 ) ;
#400 = LINE ( 'NONE', #528, #405 ) ;
#401 = VECTOR ( 'NONE', #519, 999.9999999999998900 ) ;
#402 = VECTOR ( 'NONE', #513, 1000.000000000000000 ) ;
#403 = LINE ( 'NONE', #522, #404 ) ;
#404 = VECTOR ( 'NONE', #558, 1000.000000000000000 ) ;
#405 = VECTOR ( 'NONE', #517, 1000.000000000000000 ) ;
#406 = CIRCLE ( 'NONE', #930, 2.499999999999988500 ) ;
#407 = FACE_BOUND ( 'NONE', #18, .T. ) ;
#408 = FACE_BOUND ( 'NONE', #8, .T. ) ;
#409 = FACE_OUTER_BOUND ( 'NONE', #64, .T. ) ;
#410 = FACE_OUTER_BOUND ( 'NONE', #67, .T. ) ;
#411 = FACE_BOUND ( 'NONE', #13, .T. ) ;
#412 = FACE_OUTER_BOUND ( 'NONE', #52, .T. ) ;
#413 = LINE ( 'NONE', #576, #426 ) ;
#414 = CIRCLE ( 'NONE', #899, 3.024999999999999900 ) ;
#415 = FACE_OUTER_BOUND ( 'NONE', #69, .T. ) ;
#416 = FACE_OUTER_BOUND ( 'NONE', #44, .T. ) ;
#417 = VECTOR ( 'NONE', #560, 1000.000000000000000 ) ;
#418 = CONICAL_SURFACE ( 'NONE', #900, 3.024999999999999900, 0.7853981633974487200 ) ;
#419 = VECTOR ( 'NONE', #580, 1000.000000000000000 ) ;
#420 = FACE_OUTER_BOUND ( 'NONE', #59, .T. ) ;
#421 = FACE_OUTER_BOUND ( 'NONE', #71, .T. ) ;
#422 = LINE ( 'NONE', #571, #443 ) ;
#423 = LINE ( 'NONE', #584, #431 ) ;
#424 = LINE ( 'NONE', #559, #427 ) ;
#425 = LINE ( 'NONE', #578, #417 ) ;
#426 = VECTOR ( 'NONE', #577, 1000.000000000000000 ) ;
#427 = VECTOR ( 'NONE', #585, 1000.000000000000000 ) ;
#428 = LINE ( 'NONE', #518, #429 ) ;
#429 = VECTOR ( 'NONE', #573, 1000.000000000000000 ) ;
#430 = LINE ( 'NONE', #588, #435 ) ;
#431 = VECTOR ( 'NONE', #568, 1000.000000000000000 ) ;
#432 = VECTOR ( 'NONE', #587, 999.9999999999998900 ) ;
#433 = FACE_OUTER_BOUND ( 'NONE', #42, .T. ) ;
#434 = LINE ( 'NONE', #589, #419 ) ;
#435 = VECTOR ( 'NONE', #586, 1000.000000000000000 ) ;
#436 = FACE_BOUND ( 'NONE', #61, .T. ) ;
#437 = LINE ( 'NONE', #554, #432 ) ;
#438 = FACE_OUTER_BOUND ( 'NONE', #60, .T. ) ;
#439 = FACE_OUTER_BOUND ( 'NONE', #40, .T. ) ;
#440 = FACE_OUTER_BOUND ( 'NONE', #49, .T. ) ;
#441 = CYLINDRICAL_SURFACE ( 'NONE', #1040, 2.499999999999997800 ) ;
#442 = FACE_OUTER_BOUND ( 'NONE', #38, .T. ) ;
#443 = VECTOR ( 'NONE', #570, 1000.000000000000000 ) ;
#444 = FACE_OUTER_BOUND ( 'NONE', #54, .T. ) ;
#445 = FACE_OUTER_BOUND ( 'NONE', #2, .T. ) ;
#446 = FACE_OUTER_BOUND ( 'NONE', #77, .T. ) ;
#447 = FACE_OUTER_BOUND ( 'NONE', #45, .T. ) ;
#448 = CYLINDRICAL_SURFACE ( 'NONE', #1052, 2.499999999999993300 ) ;
#449 = FACE_OUTER_BOUND ( 'NONE', #74, .T. ) ;
#450 = FACE_OUTER_BOUND ( 'NONE', #43, .T. ) ;
#451 = CONICAL_SURFACE ( 'NONE', #1044, 3.024999999999999900, 0.7853981633974334000 ) ;
#452 = FACE_OUTER_BOUND ( 'NONE', #1, .T. ) ;
#453 = FACE_OUTER_BOUND ( 'NONE', #37, .T. ) ;
#454 = CYLINDRICAL_SURFACE ( 'NONE', #1049, 2.499999999999997800 ) ;
#455 = FACE_OUTER_BOUND ( 'NONE', #72, .T. ) ;
#456 = FACE_OUTER_BOUND ( 'NONE', #55, .T. ) ;
#457 = CONICAL_SURFACE ( 'NONE', #1072, 3.024999999999999900, 0.7853981633974487200 ) ;
#458 = FACE_OUTER_BOUND ( 'NONE', #76, .T. ) ;
#459 = FACE_OUTER_BOUND ( 'NONE', #14, .T. ) ;
#460 = FACE_OUTER_BOUND ( 'NONE', #62, .T. ) ;
#461 = FACE_OUTER_BOUND ( 'NONE', #20, .T. ) ;
#462 = FACE_OUTER_BOUND ( 'NONE', #66, .T. ) ;
#463 = FACE_OUTER_BOUND ( 'NONE', #63, .T. ) ;
#464 = FACE_OUTER_BOUND ( 'NONE', #32, .T. ) ;
#465 = FACE_OUTER_BOUND ( 'NONE', #68, .T. ) ;
#466 = APPROVAL_PERSON_ORGANIZATION ( #479, #1063, #715 ) ;
#467 = COORDINATED_UNIVERSAL_TIME_OFFSET ( 1, 0, .AHEAD. ) ;
#468 = LOCAL_TIME ( 20, 42, 40.00000000000000000, #467 ) ;
#469 = CONICAL_SURFACE ( 'NONE', #1059, 3.024999999999999900, 0.7853981633974334000 ) ;
#470 = SHAPE_DEFINITION_REPRESENTATION ( #771, #1000 ) ;
#471 = FACE_OUTER_BOUND ( 'NONE', #73, .T. ) ;
#472 = ORGANIZATION ( 'UNSPECIFIED', 'UNSPECIFIED', '' ) ;
#473 = CALENDAR_DATE ( 2017, 17, 2 ) ;
#474 = DATE_AND_TIME ( #473, #468 ) ;
#475 = APPROVAL_DATE_TIME ( #474, #1063 ) ;
#476 = PERSON_AND_ORGANIZATION ( #507, #472 ) ;
#477 = CYLINDRICAL_SURFACE ( 'NONE', #1065, 2.499999999999993300 ) ;
#478 = FACE_OUTER_BOUND ( 'NONE', #28, .T. ) ;
#479 = PERSON_AND_ORGANIZATION ( #507, #472 ) ;
#480 = DATE_AND_TIME ( #497, #505 ) ;
#481 = CALENDAR_DATE ( 2017, 17, 2 ) ;
#482 = APPROVAL_PERSON_ORGANIZATION ( #486, #1032, #696 ) ;
#483 = DATE_AND_TIME ( #481, #488 ) ;
#484 = LOCAL_TIME ( 20, 42, 40.00000000000000000, #493 ) ;
#485 = APPROVAL_DATE_TIME ( #500, #1070 ) ;
#486 = PERSON_AND_ORGANIZATION ( #507, #472 ) ;
#487 = APPROVAL_DATE_TIME ( #483, #1032 ) ;
#488 = LOCAL_TIME ( 20, 42, 40.00000000000000000, #501 ) ;
#489 = APPROVAL_PERSON_ORGANIZATION ( #504, #1070, #722 ) ;
#490 = PERSON_AND_ORGANIZATION ( #507, #472 ) ;
#491 = PERSON_AND_ORGANIZATION ( #507, #472 ) ;
#492 = COORDINATED_UNIVERSAL_TIME_OFFSET ( 1, 0, .AHEAD. ) ;
#493 = COORDINATED_UNIVERSAL_TIME_OFFSET ( 1, 0, .AHEAD. ) ;
#494 = PERSON_AND_ORGANIZATION ( #507, #472 ) ;
#495 = PERSON_AND_ORGANIZATION ( #507, #472 ) ;
#496 = COORDINATED_UNIVERSAL_TIME_OFFSET ( 1, 0, .AHEAD. ) ;
#497 = CALENDAR_DATE ( 2017, 17, 2 ) ;
#498 = LOCAL_TIME ( 20, 42, 40.00000000000000000, #492 ) ;
#499 = DATE_AND_TIME ( #502, #498 ) ;
#500 = DATE_AND_TIME ( #503, #484 ) ;
#501 = COORDINATED_UNIVERSAL_TIME_OFFSET ( 1, 0, .AHEAD. ) ;
#502 = CALENDAR_DATE ( 2017, 17, 2 ) ;
#503 = CALENDAR_DATE ( 2017, 17, 2 ) ;
#504 = PERSON_AND_ORGANIZATION ( #507, #472 ) ;
#505 = LOCAL_TIME ( 20, 42, 40.00000000000000000, #496 ) ;
#506 = PRODUCT ( 'ALP2171', 'ALP2171', '', ( #699 ) ) ;
#507 = PERSON ( 'UNSPECIFIED', 'UNSPECIFIED', 'UNSPECIFIED', ('UNSPECIFIED'), ('UNSPECIFIED'), ('UNSPECIFIED') ) ;
#508 = DIRECTION ( 'NONE',  ( -0.0000000000000000000, -0.0000000000000000000, -1.000000000000000000 ) ) ;
#509 = CARTESIAN_POINT ( 'NONE',  ( 7.849999999999996100, 13.20000000000000100, 24.50000000000000000 ) ) ;
#510 = DIRECTION ( 'NONE',  ( -0.0000000000000000000, 1.000000000000000000, -0.0000000000000000000 ) ) ;
#511 = CARTESIAN_POINT ( 'NONE',  ( 0.0000000000000000000, -0.5250000000000254500, 10.00000000000000000 ) ) ;
#512 = CARTESIAN_POINT ( 'NONE',  ( 0.0000000000000000000, 7.200000000000002800, 22.19999999999999600 ) ) ;
#513 = DIRECTION ( 'NONE',  ( 0.7071067811865459100, -0.7071067811865491300, 0.0000000000000000000 ) ) ;
#514 = CARTESIAN_POINT ( 'NONE',  ( 0.0000000000000000000, 7.200000000000002800, 30.00000000000000000 ) ) ;
#515 = CARTESIAN_POINT ( 'NONE',  ( -3.900000000000000800, -1.799999999999997800, 22.19999999999999600 ) ) ;
#516 = DIRECTION ( 'NONE',  ( -0.0000000000000000000, -0.0000000000000000000, -1.000000000000000000 ) ) ;
#517 = DIRECTION ( 'NONE',  ( -0.7071067811865459100, 0.7071067811865491300, 0.0000000000000000000 ) ) ;
#518 = CARTESIAN_POINT ( 'NONE',  ( -3.900000000000000800, -1.799999999999997800, 24.50000000000000000 ) ) ;
#519 = DIRECTION ( 'NONE',  ( 0.7071067811865479100, 8.659560562354937800E-017, -0.7071067811865472400 ) ) ;
#520 = DIRECTION ( 'NONE',  ( 0.0000000000000000000, 0.0000000000000000000, 1.000000000000000000 ) ) ;
#521 = DIRECTION ( 'NONE',  ( -1.000000000000000000, 0.0000000000000000000, 0.0000000000000000000 ) ) ;
#522 = CARTESIAN_POINT ( 'NONE',  ( -3.900000000000000400, -2.300000000000003400, 19.99999999999999600 ) ) ;
#523 = DIRECTION ( 'NONE',  ( 0.0000000000000000000, 0.0000000000000000000, 1.000000000000000000 ) ) ;
#524 = DIRECTION ( 'NONE',  ( -0.7071067811865479100, 0.0000000000000000000, -0.7071067811865472400 ) ) ;
#525 = CARTESIAN_POINT ( 'NONE',  ( 7.849999999999996100, -4.799999999999998900, 19.99999999999999600 ) ) ;
#526 = DIRECTION ( 'NONE',  ( -0.0000000000000000000, -0.0000000000000000000, -1.000000000000000000 ) ) ;
#527 = DIRECTION ( 'NONE',  ( -0.0000000000000000000, 1.000000000000000000, -0.0000000000000000000 ) ) ;
#528 = CARTESIAN_POINT ( 'NONE',  ( -7.849999999999996100, -4.799999999999998900, 19.99999999999999600 ) ) ;
#529 = DIRECTION ( 'NONE',  ( 1.885568995626961300E-016, -1.000000000000000000, 0.0000000000000000000 ) ) ;
#530 = CARTESIAN_POINT ( 'NONE',  ( -3.900000000000000800, 0.0000000000000000000, 30.00000000000000000 ) ) ;
#531 = CARTESIAN_POINT ( 'NONE',  ( -7.849999999999996100, -4.799999999999998900, 0.0000000000000000000 ) ) ;
#532 = DIRECTION ( 'NONE',  ( -0.0000000000000000000, 1.000000000000000000, -0.0000000000000000000 ) ) ;
#533 = DIRECTION ( 'NONE',  ( 0.7071067811865459100, 0.7071067811865491300, 0.0000000000000000000 ) ) ;
#534 = CARTESIAN_POINT ( 'NONE',  ( 2.499999999999997800, 7.200000000000002800, 22.19999999999999600 ) ) ;
#535 = DIRECTION ( 'NONE',  ( -0.0000000000000000000, 1.000000000000000000, -0.0000000000000000000 ) ) ;
#536 = DIRECTION ( 'NONE',  ( -0.0000000000000000000, 1.000000000000000000, -0.0000000000000000000 ) ) ;
#537 = DIRECTION ( 'NONE',  ( 1.885568995626961300E-016, 1.000000000000000000, -0.0000000000000000000 ) ) ;
#538 = CARTESIAN_POINT ( 'NONE',  ( 3.900000000000000800, -1.799999999999997800, 24.50000000000000000 ) ) ;
#539 = DIRECTION ( 'NONE',  ( 0.0000000000000000000, 0.0000000000000000000, 1.000000000000000000 ) ) ;
#540 = CARTESIAN_POINT ( 'NONE',  ( -3.024999999999999900, 7.200000000000002800, 22.19999999999999600 ) ) ;
#541 = CARTESIAN_POINT ( 'NONE',  ( -7.849999999999996100, -1.799999999999997800, 24.50000000000000000 ) ) ;
#542 = CARTESIAN_POINT ( 'NONE',  ( 3.900000000000000800, 0.0000000000000000000, 0.0000000000000000000 ) ) ;
#543 = DIRECTION ( 'NONE',  ( 8.659560562354803400E-017, 0.7071067811865580100, -0.7071067811865369100 ) ) ;
#544 = CARTESIAN_POINT ( 'NONE',  ( 0.0000000000000000000, -7.799999999999999800, 10.00000000000000000 ) ) ;
#545 = DIRECTION ( 'NONE',  ( -1.000000000000000000, 0.0000000000000000000, 0.0000000000000000000 ) ) ;
#546 = CARTESIAN_POINT ( 'NONE',  ( 3.704556567420743300E-016, 1.734723475976807100E-015, 6.975000000000000500 ) ) ;
#547 = CARTESIAN_POINT ( 'NONE',  ( 3.024999999999999900, 7.200000000000002800, 22.19999999999999600 ) ) ;
#548 = PLANE ( 'NONE',  #901 ) ;
#549 = DIRECTION ( 'NONE',  ( 0.0000000000000000000, 0.0000000000000000000, 1.000000000000000000 ) ) ;
#550 = CARTESIAN_POINT ( 'NONE',  ( 0.0000000000000000000, 7.200000000000002800, 22.19999999999999600 ) ) ;
#551 = DIRECTION ( 'NONE',  ( 1.000000000000000000, 0.0000000000000000000, -0.0000000000000000000 ) ) ;
#552 = DIRECTION ( 'NONE',  ( -0.0000000000000000000, -0.0000000000000000000, -1.000000000000000000 ) ) ;
#553 = DIRECTION ( 'NONE',  ( -0.0000000000000000000, -0.0000000000000000000, -1.000000000000000000 ) ) ;
#554 = CARTESIAN_POINT ( 'NONE',  ( 7.849999999999996100, 13.20000000000000100, 27.00000000000000000 ) ) ;
#555 = CARTESIAN_POINT ( 'NONE',  ( 7.849999999999996100, -1.799999999999997800, 24.50000000000000000 ) ) ;
#556 = CARTESIAN_POINT ( 'NONE',  ( 3.900000000000000800, -1.799999999999997800, 22.19999999999999600 ) ) ;
#557 = DIRECTION ( 'NONE',  ( -1.000000000000000000, 0.0000000000000000000, 0.0000000000000000000 ) ) ;
#558 = DIRECTION ( 'NONE',  ( 1.000000000000000000, -6.587557503709402000E-016, 0.0000000000000000000 ) ) ;
#559 = CARTESIAN_POINT ( 'NONE',  ( -3.900000000000000400, -1.799999999999997800, 30.00000000000000000 ) ) ;
#560 = DIRECTION ( 'NONE',  ( -0.0000000000000000000, -0.0000000000000000000, -1.000000000000000000 ) ) ;
#561 = CARTESIAN_POINT ( 'NONE',  ( 0.0000000000000000000, 1.734723475976807100E-015, 10.00000000000000000 ) ) ;
#562 = CARTESIAN_POINT ( 'NONE',  ( -3.900000000000000800, 13.20000000000000100, 24.50000000000000000 ) ) ;
#563 = DIRECTION ( 'NONE',  ( -0.0000000000000000000, 1.000000000000000000, -0.0000000000000000000 ) ) ;
#564 = DIRECTION ( 'NONE',  ( -0.0000000000000000000, 1.000000000000000000, -0.0000000000000000000 ) ) ;
#565 = DIRECTION ( 'NONE',  ( -0.0000000000000000000, 1.000000000000000000, -0.0000000000000000000 ) ) ;
#566 = DIRECTION ( 'NONE',  ( 0.0000000000000000000, 0.0000000000000000000, 1.000000000000000000 ) ) ;
#567 = DIRECTION ( 'NONE',  ( -0.7071067811865464600, -0.0000000000000000000, -0.7071067811865486800 ) ) ;
#568 = DIRECTION ( 'NONE',  ( -0.0000000000000000000, -0.0000000000000000000, -1.000000000000000000 ) ) ;
#569 = CARTESIAN_POINT ( 'NONE',  ( -7.849999999999996100, 13.20000000000000100, 27.00000000000000000 ) ) ;
#570 = DIRECTION ( 'NONE',  ( -0.0000000000000000000, 1.000000000000000000, -0.0000000000000000000 ) ) ;
#571 = CARTESIAN_POINT ( 'NONE',  ( 3.061616997868373800E-016, 0.0000000000000000000, 7.500000000000007100 ) ) ;
#572 = DIRECTION ( 'NONE',  ( -0.0000000000000000000, 1.000000000000000000, -0.0000000000000000000 ) ) ;
#573 = DIRECTION ( 'NONE',  ( -0.0000000000000000000, 1.000000000000000000, -0.0000000000000000000 ) ) ;
#574 = DIRECTION ( 'NONE',  ( 0.0000000000000000000, 0.0000000000000000000, 1.000000000000000000 ) ) ;
#575 = CARTESIAN_POINT ( 'NONE',  ( 0.0000000000000000000, 0.0000000000000000000, 12.49999999999999300 ) ) ;
#576 = CARTESIAN_POINT ( 'NONE',  ( 7.849999999999996100, -1.799999999999997800, 27.00000000000000000 ) ) ;
#577 = DIRECTION ( 'NONE',  ( -0.0000000000000000000, 1.000000000000000000, -0.0000000000000000000 ) ) ;
#578 = CARTESIAN_POINT ( 'NONE',  ( -7.849999999999996100, 13.20000000000000100, 24.50000000000000000 ) ) ;
#579 = DIRECTION ( 'NONE',  ( -1.000000000000000000, 0.0000000000000000000, 0.0000000000000000000 ) ) ;
#580 = DIRECTION ( 'NONE',  ( -0.0000000000000000000, 1.000000000000000000, -0.0000000000000000000 ) ) ;
#581 = CARTESIAN_POINT ( 'NONE',  ( 0.0000000000000000000, -0.5250000000000254500, 10.00000000000000000 ) ) ;
#582 = DIRECTION ( 'NONE',  ( 1.000000000000000000, -0.0000000000000000000, -0.0000000000000000000 ) ) ;
#583 = CARTESIAN_POINT ( 'NONE',  ( 0.0000000000000000000, 7.200000000000002800, 22.72499999999999800 ) ) ;
#584 = CARTESIAN_POINT ( 'NONE',  ( -2.499999999999997800, 7.200000000000002800, 22.19999999999999600 ) ) ;
#585 = DIRECTION ( 'NONE',  ( 0.0000000000000000000, 0.0000000000000000000, -1.000000000000000000 ) ) ;
#586 = DIRECTION ( 'NONE',  ( -0.0000000000000000000, -0.0000000000000000000, -1.000000000000000000 ) ) ;
#587 = DIRECTION ( 'NONE',  ( -0.7071067811865464600, 0.0000000000000000000, 0.7071067811865486800 ) ) ;
#588 = CARTESIAN_POINT ( 'NONE',  ( 3.900000000000000800, 0.0000000000000000000, 30.00000000000000000 ) ) ;
#589 = CARTESIAN_POINT ( 'NONE',  ( -7.849999999999996100, -1.799999999999997800, 27.00000000000000000 ) ) ;
#590 = DIRECTION ( 'NONE',  ( 1.000000000000000000, -6.587557503709402000E-016, 0.0000000000000000000 ) ) ;
#591 = DIRECTION ( 'NONE',  ( 0.0000000000000000000, 1.000000000000000000, -0.0000000000000000000 ) ) ;
#592 = PLANE ( 'NONE',  #905 ) ;
#593 = CARTESIAN_POINT ( 'NONE',  ( -3.900000000000000800, 0.0000000000000000000, 30.00000000000000000 ) ) ;
#594 = CARTESIAN_POINT ( 'NONE',  ( 7.849999999999996100, -4.799999999999998900, 30.00000000000000000 ) ) ;
#595 = DIRECTION ( 'NONE',  ( -0.7071067811865459100, 0.7071067811865491300, 0.0000000000000000000 ) ) ;
#596 = CARTESIAN_POINT ( 'NONE',  ( -7.849999999999996100, -4.799999999999998900, 30.00000000000000000 ) ) ;
#597 = PLANE ( 'NONE',  #1055 ) ;
#598 = CARTESIAN_POINT ( 'NONE',  ( 0.0000000000000000000, 1.734723475976807100E-015, 10.00000000000000000 ) ) ;
#599 = DIRECTION ( 'NONE',  ( -0.0000000000000000000, 1.000000000000000000, -0.0000000000000000000 ) ) ;
#600 = PLANE ( 'NONE',  #1042 ) ;
#601 = DIRECTION ( 'NONE',  ( -1.000000000000000000, 0.0000000000000000000, 0.0000000000000000000 ) ) ;
#602 = PLANE ( 'NONE',  #1045 ) ;
#603 = DIRECTION ( 'NONE',  ( 0.0000000000000000000, 0.0000000000000000000, 1.000000000000000000 ) ) ;
#604 = PLANE ( 'NONE',  #1050 ) ;
#605 = DIRECTION ( 'NONE',  ( -1.000000000000000000, 0.0000000000000000000, 0.0000000000000000000 ) ) ;
#606 = DIRECTION ( 'NONE',  ( -0.7071067811865491300, 0.7071067811865459100, 0.0000000000000000000 ) ) ;
#607 = DIRECTION ( 'NONE',  ( 1.000000000000000000, 0.0000000000000000000, 0.0000000000000000000 ) ) ;
#608 = CARTESIAN_POINT ( 'NONE',  ( -3.900000000000000400, -2.300000000000003400, 30.00000000000000000 ) ) ;
#609 = DIRECTION ( 'NONE',  ( -0.0000000000000000000, 1.000000000000000000, -0.0000000000000000000 ) ) ;
#610 = DIRECTION ( 'NONE',  ( 0.7071067811865491300, 0.7071067811865459100, -0.0000000000000000000 ) ) ;
#611 = PLANE ( 'NONE',  #1041 ) ;
#612 = CARTESIAN_POINT ( 'NONE',  ( 0.0000000000000000000, -1.799999999999997800, 0.0000000000000000000 ) ) ;
#613 = PLANE ( 'NONE',  #1051 ) ;
#614 = DIRECTION ( 'NONE',  ( 0.0000000000000000000, 0.0000000000000000000, 1.000000000000000000 ) ) ;
#615 = PLANE ( 'NONE',  #1047 ) ;
#616 = DIRECTION ( 'NONE',  ( -1.885568995626961300E-016, -1.000000000000000000, 0.0000000000000000000 ) ) ;
#617 = CARTESIAN_POINT ( 'NONE',  ( 4.850000000000008500, -7.799999999999999800, 30.00000000000000000 ) ) ;
#618 = PLANE ( 'NONE',  #920 ) ;
#619 = DIRECTION ( 'NONE',  ( 0.0000000000000000000, -1.000000000000000000, 0.0000000000000000000 ) ) ;
#620 = DIRECTION ( 'NONE',  ( 0.0000000000000000000, -1.000000000000000000, 0.0000000000000000000 ) ) ;
#621 = DIRECTION ( 'NONE',  ( -1.000000000000000000, 1.885568995626961300E-016, 0.0000000000000000000 ) ) ;
#622 = DIRECTION ( 'NONE',  ( 0.0000000000000000000, -0.0000000000000000000, -1.000000000000000000 ) ) ;
#623 = DIRECTION ( 'NONE',  ( -0.0000000000000000000, 0.0000000000000000000, 1.000000000000000000 ) ) ;
#624 = DIRECTION ( 'NONE',  ( -0.7071067811865459100, -0.7071067811865491300, 0.0000000000000000000 ) ) ;
#625 = CARTESIAN_POINT ( 'NONE',  ( 3.900000000000000800, -1.799999999999997800, 24.50000000000000000 ) ) ;
#626 = DIRECTION ( 'NONE',  ( -0.0000000000000000000, 0.0000000000000000000, 1.000000000000000000 ) ) ;
#627 = DIRECTION ( 'NONE',  ( 1.000000000000000000, 0.0000000000000000000, 0.0000000000000000000 ) ) ;
#628 = DIRECTION ( 'NONE',  ( 0.0000000000000000000, 0.0000000000000000000, 1.000000000000000000 ) ) ;
#629 = DIRECTION ( 'NONE',  ( 0.0000000000000000000, 0.0000000000000000000, 1.000000000000000000 ) ) ;
#630 = CARTESIAN_POINT ( 'NONE',  ( 3.900000000000000800, 0.0000000000000000000, 30.00000000000000000 ) ) ;
#631 = DIRECTION ( 'NONE',  ( -0.0000000000000000000, -0.0000000000000000000, -1.000000000000000000 ) ) ;
#632 = CARTESIAN_POINT ( 'NONE',  ( 7.849999999999996100, -2.300000000000000700, 30.00000000000000000 ) ) ;
#633 = CARTESIAN_POINT ( 'NONE',  ( 0.0000000000000000000, 0.0000000000000000000, 10.00000000000000000 ) ) ;
#634 = CARTESIAN_POINT ( 'NONE',  ( 0.0000000000000000000, 7.200000000000002800, 22.19999999999999600 ) ) ;
#635 = PLANE ( 'NONE',  #1043 ) ;
#636 = CARTESIAN_POINT ( 'NONE',  ( 0.0000000000000000000, 0.0000000000000000000, 30.00000000000000000 ) ) ;
#637 = DIRECTION ( 'NONE',  ( -6.587557503709402000E-016, -1.000000000000000000, 0.0000000000000000000 ) ) ;
#638 = DIRECTION ( 'NONE',  ( 0.0000000000000000000, -0.0000000000000000000, -1.000000000000000000 ) ) ;
#639 = PLANE ( 'NONE',  #1048 ) ;
#640 = PLANE ( 'NONE',  #1073 ) ;
#641 = DIRECTION ( 'NONE',  ( 0.0000000000000000000, 0.0000000000000000000, 1.000000000000000000 ) ) ;
#642 = DIRECTION ( 'NONE',  ( 0.0000000000000000000, 0.0000000000000000000, 1.000000000000000000 ) ) ;
#643 = PLANE ( 'NONE',  #1077 ) ;
#644 = DIRECTION ( 'NONE',  ( 0.0000000000000000000, 0.0000000000000000000, 1.000000000000000000 ) ) ;
#645 = DIRECTION ( 'NONE',  ( -1.885568995626961300E-016, 1.000000000000000000, 0.0000000000000000000 ) ) ;
#646 = DIRECTION ( 'NONE',  ( 0.0000000000000000000, -1.000000000000000000, 0.0000000000000000000 ) ) ;
#647 = DIRECTION ( 'NONE',  ( 1.000000000000000000, 1.885568995626961300E-016, -0.0000000000000000000 ) ) ;
#648 = DIRECTION ( 'NONE',  ( -0.0000000000000000000, 1.000000000000000000, -0.0000000000000000000 ) ) ;
#649 = DIRECTION ( 'NONE',  ( -0.7071067811865464600, 0.0000000000000000000, -0.7071067811865486800 ) ) ;
#650 = DIRECTION ( 'NONE',  ( 0.0000000000000000000, 0.0000000000000000000, 1.000000000000000000 ) ) ;
#651 = CARTESIAN_POINT ( 'NONE',  ( 0.0000000000000000000, 0.0000000000000000000, 10.00000000000000000 ) ) ;
#652 = DIRECTION ( 'NONE',  ( 1.000000000000000000, 0.0000000000000000000, -0.0000000000000000000 ) ) ;
#653 = CARTESIAN_POINT ( 'NONE',  ( 7.849999999999996100, -1.799999999999997800, 24.50000000000000000 ) ) ;
#654 = CARTESIAN_POINT ( 'NONE',  ( -7.849999999999996100, -1.799999999999997800, 24.50000000000000000 ) ) ;
#655 = CARTESIAN_POINT ( 'NONE',  ( 7.849999999999996100, -1.799999999999997800, 27.00000000000000000 ) ) ;
#656 = CARTESIAN_POINT ( 'NONE',  ( 0.0000000000000000000, 1.734723475976807100E-015, 10.00000000000000000 ) ) ;
#657 = PLANE ( 'NONE',  #1046 ) ;
#658 = CARTESIAN_POINT ( 'NONE',  ( -3.900000000000000800, 0.0000000000000000000, 30.00000000000000000 ) ) ;
#659 = DIRECTION ( 'NONE',  ( -0.0000000000000000000, 0.0000000000000000000, -1.000000000000000000 ) ) ;
#660 = CARTESIAN_POINT ( 'NONE',  ( 0.0000000000000000000, 7.200000000000002800, 22.19999999999999600 ) ) ;
#661 = PLANE ( 'NONE',  #1061 ) ;
#662 = DIRECTION ( 'NONE',  ( 0.0000000000000000000, -0.0000000000000000000, -1.000000000000000000 ) ) ;
#663 = DIRECTION ( 'NONE',  ( -1.000000000000000000, 0.0000000000000000000, 0.0000000000000000000 ) ) ;
#664 = DIRECTION ( 'NONE',  ( -0.0000000000000000000, 1.000000000000000000, -0.0000000000000000000 ) ) ;
#665 = PLANE ( 'NONE',  #1078 ) ;
#666 = PLANE ( 'NONE',  #1054 ) ;
#667 = CARTESIAN_POINT ( 'NONE',  ( -3.900000000000000800, -1.799999999999997800, 24.50000000000000000 ) ) ;
#668 = DIRECTION ( 'NONE',  ( -0.0000000000000000000, 0.0000000000000000000, 1.000000000000000000 ) ) ;
#669 = CARTESIAN_POINT ( 'NONE',  ( 0.0000000000000000000, -1.799999999999997800, 0.0000000000000000000 ) ) ;
#670 = CARTESIAN_POINT ( 'NONE',  ( 3.900000000000000400, -2.300000000000003400, 30.00000000000000000 ) ) ;
#671 = CARTESIAN_POINT ( 'NONE',  ( 0.0000000000000000000, 0.0000000000000000000, 0.0000000000000000000 ) ) ;
#672 = DIRECTION ( 'NONE',  ( 1.000000000000000000, 0.0000000000000000000, 0.0000000000000000000 ) ) ;
#673 = DIRECTION ( 'NONE',  ( 6.587557503709402000E-016, -1.000000000000000000, 0.0000000000000000000 ) ) ;
#674 = DIRECTION ( 'NONE',  ( -1.000000000000000000, 0.0000000000000000000, 0.0000000000000000000 ) ) ;
#675 = DIRECTION ( 'NONE',  ( 0.0000000000000000000, -1.000000000000000000, 0.0000000000000000000 ) ) ;
#676 = DIRECTION ( 'NONE',  ( 0.7071067811865486800, 0.0000000000000000000, -0.7071067811865464600 ) ) ;
#677 = PLANE ( 'NONE',  #1053 ) ;
#678 = DIRECTION ( 'NONE',  ( 1.000000000000000000, 6.587557503709402000E-016, 0.0000000000000000000 ) ) ;
#679 = DIRECTION ( 'NONE',  ( -0.0000000000000000000, -0.0000000000000000000, -1.000000000000000000 ) ) ;
#680 = DIRECTION ( 'NONE',  ( -0.7071067811865486800, 0.0000000000000000000, -0.7071067811865464600 ) ) ;
#681 = PLANE ( 'NONE',  #1056 ) ;
#682 = DIRECTION ( 'NONE',  ( 1.000000000000000000, 0.0000000000000000000, -0.0000000000000000000 ) ) ;
#683 = PLANE ( 'NONE',  #1074 ) ;
#684 = CARTESIAN_POINT ( 'NONE',  ( 0.0000000000000000000, 13.20000000000000100, 0.0000000000000000000 ) ) ;
#685 = CARTESIAN_POINT ( 'NONE',  ( -7.849999999999996100, -1.799999999999997800, 27.00000000000000000 ) ) ;
#686 = DIRECTION ( 'NONE',  ( -0.7071067811865464600, 0.0000000000000000000, 0.7071067811865486800 ) ) ;
#687 = DIRECTION ( 'NONE',  ( 0.0000000000000000000, -0.0000000000000000000, -1.000000000000000000 ) ) ;
#688 = PERSON_AND_ORGANIZATION_ROLE ( 'creator' ) ;
#689 = CARTESIAN_POINT ( 'NONE',  ( 0.0000000000000000000, 7.200000000000002800, 22.19999999999999600 ) ) ;
#690 = DIRECTION ( 'NONE',  ( -0.0000000000000000000, 0.0000000000000000000, -1.000000000000000000 ) ) ;
#691 = DIRECTION ( 'NONE',  ( -1.000000000000000000, 0.0000000000000000000, 0.0000000000000000000 ) ) ;
#692 = APPROVAL_STATUS ( 'not_yet_approved' ) ;
#693 = CARTESIAN_POINT ( 'NONE',  ( -7.849999999999996100, -2.300000000000000700, 30.00000000000000000 ) ) ;
#694 = DIRECTION ( 'NONE',  ( 1.000000000000000000, 0.0000000000000000000, 0.0000000000000000000 ) ) ;
#695 =( NAMED_UNIT ( * ) PLANE_ANGLE_UNIT ( ) SI_UNIT ( $, .RADIAN. ) );
#696 = APPROVAL_ROLE ( '' ) ;
#697 = DIRECTION ( 'NONE',  ( -0.0000000000000000000, -0.0000000000000000000, -1.000000000000000000 ) ) ;
#698 = APPLICATION_PROTOCOL_DEFINITION ( 'international standard', 'config_control_design', 1994, #704 ) ;
#699 = MECHANICAL_CONTEXT ( 'NONE', #709, 'mechanical' ) ;
#700 = DIRECTION ( 'NONE',  ( 1.000000000000000000, 0.0000000000000000000, 0.0000000000000000000 ) ) ;
#701 = DIRECTION ( 'NONE',  ( -1.000000000000000000, 0.0000000000000000000, 0.0000000000000000000 ) ) ;
#702 =( NAMED_UNIT ( * ) SI_UNIT ( $, .STERADIAN. ) SOLID_ANGLE_UNIT ( ) );
#703 = PERSON_AND_ORGANIZATION_ROLE ( 'design_owner' ) ;
#704 = APPLICATION_CONTEXT ( 'configuration controlled 3d designs of mechanical parts and assemblies' ) ;
#705 = CARTESIAN_POINT ( 'NONE',  ( 0.0000000000000000000, 0.0000000000000000000, 19.99999999999999600 ) ) ;
#706 = APPROVAL_STATUS ( 'not_yet_approved' ) ;
#707 = PERSON_AND_ORGANIZATION_ROLE ( 'creator' ) ;
#708 = APPLICATION_PROTOCOL_DEFINITION ( 'international standard', 'config_control_design', 1994, #709 ) ;
#709 = APPLICATION_CONTEXT ( 'configuration controlled 3d designs of mechanical parts and assemblies' ) ;
#710 = DIRECTION ( 'NONE',  ( 1.000000000000000000, 0.0000000000000000000, -0.0000000000000000000 ) ) ;
#711 = APPROVAL_STATUS ( 'not_yet_approved' ) ;
#712 = PLANE ( 'NONE',  #1057 ) ;
#713 = CARTESIAN_POINT ( 'NONE',  ( 0.0000000000000000000, 0.0000000000000000000, 19.99999999999999600 ) ) ;
#714 = CARTESIAN_POINT ( 'NONE',  ( 0.0000000000000000000, 0.0000000000000000000, 0.0000000000000000000 ) ) ;
#715 = APPROVAL_ROLE ( '' ) ;
#716 =( LENGTH_UNIT ( ) NAMED_UNIT ( * ) SI_UNIT ( .MILLI., .METRE. ) );
#717 = DATE_TIME_ROLE ( 'creation_date' ) ;
#718 = SECURITY_CLASSIFICATION_LEVEL ( 'unclassified' ) ;
#719 = PLANE ( 'NONE',  #1062 ) ;
#720 = DIRECTION ( 'NONE',  ( -0.0000000000000000000, 0.0000000000000000000, -1.000000000000000000 ) ) ;
#721 = DIRECTION ( 'NONE',  ( -0.0000000000000000000, 0.0000000000000000000, 1.000000000000000000 ) ) ;
#722 = APPROVAL_ROLE ( '' ) ;
#723 = PLANE ( 'NONE',  #1058 ) ;
#724 = PERSON_AND_ORGANIZATION_ROLE ( 'classification_officer' ) ;
#725 = DATE_TIME_ROLE ( 'classification_date' ) ;
#726 = PERSON_AND_ORGANIZATION_ROLE ( 'design_supplier' ) ;
#727 = DIRECTION ( 'NONE',  ( 0.0000000000000000000, 0.0000000000000000000, 1.000000000000000000 ) ) ;
#728 = CARTESIAN_POINT ( 'NONE',  ( -3.900000000000000800, -7.799999999999999800, 30.00000000000000000 ) ) ;
#729 = DIRECTION ( 'NONE',  ( 0.0000000000000000000, 0.0000000000000000000, -1.000000000000000000 ) ) ;
#730 = CARTESIAN_POINT ( 'NONE',  ( 4.850000000000005000, -1.799999999999997800, 30.00000000000000000 ) ) ;
#731 = DIRECTION ( 'NONE',  ( -0.0000000000000000000, 1.000000000000000000, -0.0000000000000000000 ) ) ;
#732 = DIRECTION ( 'NONE',  ( -1.000000000000000000, -0.0000000000000000000, -0.0000000000000000000 ) ) ;
#733 = DIRECTION ( 'NONE',  ( 0.0000000000000000000, 0.0000000000000000000, 1.000000000000000000 ) ) ;
#734 = CARTESIAN_POINT ( 'NONE',  ( -3.900000000000000800, 13.20000000000000100, 22.19999999999999600 ) ) ;
#735 = DIRECTION ( 'NONE',  ( -0.0000000000000000000, 1.000000000000000000, -0.0000000000000000000 ) ) ;
#736 = DIRECTION ( 'NONE',  ( -0.0000000000000000000, -0.0000000000000000000, -1.000000000000000000 ) ) ;
#737 = DIRECTION ( 'NONE',  ( 0.0000000000000000000, 0.0000000000000000000, 1.000000000000000000 ) ) ;
#738 = CARTESIAN_POINT ( 'NONE',  ( -3.900000000000000800, -1.799999999999997800, 24.50000000000000000 ) ) ;
#739 = CARTESIAN_POINT ( 'NONE',  ( -7.849999999999996100, -2.300000000000000700, 30.00000000000000000 ) ) ;
#740 = CARTESIAN_POINT ( 'NONE',  ( -7.849999999999996100, -2.300000000000000700, 0.0000000000000000000 ) ) ;
#741 = DIRECTION ( 'NONE',  ( 0.0000000000000000000, -1.000000000000000000, 0.0000000000000000000 ) ) ;
#742 = DIRECTION ( 'NONE',  ( -0.0000000000000000000, -0.0000000000000000000, -1.000000000000000000 ) ) ;
#743 = CARTESIAN_POINT ( 'NONE',  ( 4.850000000000008500, -7.799999999999999800, 30.00000000000000000 ) ) ;
#744 = DIRECTION ( 'NONE',  ( -0.0000000000000000000, -0.0000000000000000000, -1.000000000000000000 ) ) ;
#745 = CARTESIAN_POINT ( 'NONE',  ( -7.849999999999996100, -1.799999999999997800, 24.50000000000000000 ) ) ;
#746 = DIRECTION ( 'NONE',  ( -0.0000000000000000000, -0.0000000000000000000, -1.000000000000000000 ) ) ;
#747 = CARTESIAN_POINT ( 'NONE',  ( 3.900000000000000800, -7.799999999999999800, 30.00000000000000000 ) ) ;
#748 = CARTESIAN_POINT ( 'NONE',  ( 3.900000000000000800, 13.20000000000000100, 22.19999999999999600 ) ) ;
#749 = DIRECTION ( 'NONE',  ( 1.000000000000000000, -0.0000000000000000000, -0.0000000000000000000 ) ) ;
#750 = CARTESIAN_POINT ( 'NONE',  ( 7.849999999999996100, 13.20000000000000100, 24.50000000000000000 ) ) ;
#751 = CARTESIAN_POINT ( 'NONE',  ( 4.850000000000005000, -1.799999999999997800, 30.00000000000000000 ) ) ;
#752 = CARTESIAN_POINT ( 'NONE',  ( 4.850000000000005000, 13.20000000000000100, 30.00000000000000000 ) ) ;
#753 = CARTESIAN_POINT ( 'NONE',  ( -3.900000000000000400, -2.300000000000003400, 30.00000000000000000 ) ) ;
#754 = CARTESIAN_POINT ( 'NONE',  ( 7.849999999999996100, -1.799999999999997800, 24.50000000000000000 ) ) ;
#755 = CARTESIAN_POINT ( 'NONE',  ( -4.850000000000008500, -7.799999999999999800, 0.0000000000000000000 ) ) ;
#756 = CARTESIAN_POINT ( 'NONE',  ( -7.849999999999996100, -4.799999999999998900, 0.0000000000000000000 ) ) ;
#757 = CARTESIAN_POINT ( 'NONE',  ( -7.849999999999996100, 13.20000000000000100, 24.50000000000000000 ) ) ;
#758 = CARTESIAN_POINT ( 'NONE',  ( 7.849999999999996100, -2.300000000000000700, 19.99999999999999600 ) ) ;
#759 = CARTESIAN_POINT ( 'NONE',  ( -7.849999999999996100, 13.20000000000000100, 27.00000000000000000 ) ) ;
#760 = CARTESIAN_POINT ( 'NONE',  ( -4.850000000000005000, -1.799999999999997800, 30.00000000000000000 ) ) ;
#761 = CARTESIAN_POINT ( 'NONE',  ( 7.849999999999996100, 13.20000000000000100, 27.00000000000000000 ) ) ;
#762 = CARTESIAN_POINT ( 'NONE',  ( -3.900000000000000800, 0.0000000000000000000, 19.99999999999999600 ) ) ;
#763 = DIRECTION ( 'NONE',  ( -0.0000000000000000000, -0.0000000000000000000, -1.000000000000000000 ) ) ;
#764 = DIRECTION ( 'NONE',  ( 1.000000000000000000, -0.0000000000000000000, -0.0000000000000000000 ) ) ;
#765 = DIRECTION ( 'NONE',  ( -0.0000000000000000000, 1.000000000000000000, -0.0000000000000000000 ) ) ;
#766 = CARTESIAN_POINT ( 'NONE',  ( 3.900000000000000800, 0.0000000000000000000, 30.00000000000000000 ) ) ;
#767 = CARTESIAN_POINT ( 'NONE',  ( 3.900000000000000800, 13.20000000000000100, 22.19999999999999600 ) ) ;
#768 = CARTESIAN_POINT ( 'NONE',  ( 3.900000000000000400, -1.799999999999997800, 30.00000000000000000 ) ) ;
#769 = DIRECTION ( 'NONE',  ( 0.0000000000000000000, 0.0000000000000000000, 1.000000000000000000 ) ) ;
#770 = DIRECTION ( 'NONE',  ( 1.885568995626961300E-016, 1.000000000000000000, -0.0000000000000000000 ) ) ;
#771 = PRODUCT_DEFINITION_SHAPE ( 'NONE', 'NONE',  #1068 ) ;
#772 = DESIGN_CONTEXT ( 'detailed design', #704, 'design' ) ;
#773 = CARTESIAN_POINT ( 'NONE',  ( 4.850000000000008500, -7.799999999999999800, 19.99999999999999600 ) ) ;
#774 = CARTESIAN_POINT ( 'NONE',  ( 7.849999999999996100, -4.799999999999998900, 19.99999999999999600 ) ) ;
#775 = CARTESIAN_POINT ( 'NONE',  ( 0.0000000000000000000, -0.5250000000000254500, 12.49999999999998900 ) ) ;
#776 = CARTESIAN_POINT ( 'NONE',  ( 3.900000000000000800, -1.799999999999997800, 30.00000000000000000 ) ) ;
#777 = CARTESIAN_POINT ( 'NONE',  ( 0.0000000000000000000, 1.734723475976807100E-015, 13.02500000000000000 ) ) ;
#778 = CARTESIAN_POINT ( 'NONE',  ( 4.850000000000008500, -7.799999999999999800, 0.0000000000000000000 ) ) ;
#779 = CARTESIAN_POINT ( 'NONE',  ( -3.900000000000000800, -7.799999999999999800, 30.00000000000000000 ) ) ;
#780 = CARTESIAN_POINT ( 'NONE',  ( 3.061616997868371800E-016, -0.5250000000000254500, 7.500000000000011500 ) ) ;
#781 = CARTESIAN_POINT ( 'NONE',  ( -3.024999999999999900, 7.200000000000002800, 22.19999999999999600 ) ) ;
#782 = CARTESIAN_POINT ( 'NONE',  ( 7.849999999999996100, -2.300000000000000700, 0.0000000000000000000 ) ) ;
#783 = CARTESIAN_POINT ( 'NONE',  ( -2.499999999999997300, 7.200000000000002800, 30.00000000000000000 ) ) ;
#784 = CARTESIAN_POINT ( 'NONE',  ( 3.061616997868380200E-016, -7.799999999999999800, 7.500000000000002700 ) ) ;
#785 = CARTESIAN_POINT ( 'NONE',  ( 3.704556567420743300E-016, 1.734723475976807100E-015, 6.975000000000000500 ) ) ;
#786 = CARTESIAN_POINT ( 'NONE',  ( -2.499999999999998200, 7.200000000000002800, 22.72499999999999800 ) ) ;
#787 = CARTESIAN_POINT ( 'NONE',  ( -3.900000000000000400, -2.300000000000003400, 0.0000000000000000000 ) ) ;
#788 = CARTESIAN_POINT ( 'NONE',  ( 3.900000000000000800, 0.0000000000000000000, 22.19999999999999600 ) ) ;
#789 = CARTESIAN_POINT ( 'NONE',  ( 0.0000000000000000000, -7.799999999999999800, 12.49999999999999600 ) ) ;
#790 = CARTESIAN_POINT ( 'NONE',  ( 3.900000000000000800, 13.20000000000000100, 22.19999999999999600 ) ) ;
#791 = CARTESIAN_POINT ( 'NONE',  ( 3.900000000000000400, -2.300000000000003400, 0.0000000000000000000 ) ) ;
#792 = CARTESIAN_POINT ( 'NONE',  ( -7.849999999999996100, -2.300000000000000700, 19.99999999999999600 ) ) ;
#793 = CARTESIAN_POINT ( 'NONE',  ( -4.850000000000008500, -7.799999999999999800, 19.99999999999999600 ) ) ;
#794 = CARTESIAN_POINT ( 'NONE',  ( -7.849999999999996100, -4.799999999999998900, 19.99999999999999600 ) ) ;
#795 = CARTESIAN_POINT ( 'NONE',  ( -7.849999999999996100, -1.799999999999997800, 24.50000000000000000 ) ) ;
#796 = CARTESIAN_POINT ( 'NONE',  ( -7.849999999999996100, -1.799999999999997800, 27.00000000000000000 ) ) ;
#797 = CARTESIAN_POINT ( 'NONE',  ( -4.850000000000005000, 13.20000000000000100, 30.00000000000000000 ) ) ;
#798 = DIRECTION ( 'NONE',  ( -1.000000000000000000, 0.0000000000000000000, 0.0000000000000000000 ) ) ;
#799 = CARTESIAN_POINT ( 'NONE',  ( 7.849999999999996100, -1.799999999999997800, 27.00000000000000000 ) ) ;
#800 = CARTESIAN_POINT ( 'NONE',  ( 3.900000000000000800, 13.20000000000000100, 24.50000000000000000 ) ) ;
#801 = CARTESIAN_POINT ( 'NONE',  ( 7.849999999999996100, -4.799999999999998900, 0.0000000000000000000 ) ) ;
#802 = DIRECTION ( 'NONE',  ( -0.0000000000000000000, -0.0000000000000000000, -1.000000000000000000 ) ) ;
#803 = DIRECTION ( 'NONE',  ( -1.000000000000000000, 0.0000000000000000000, 0.0000000000000000000 ) ) ;
#804 = CARTESIAN_POINT ( 'NONE',  ( 0.0000000000000000000, 7.200000000000002800, 30.00000000000000000 ) ) ;
#805 = DIRECTION ( 'NONE',  ( -1.000000000000000000, 0.0000000000000000000, 0.0000000000000000000 ) ) ;
#806 = CARTESIAN_POINT ( 'NONE',  ( 7.849999999999996100, -4.799999999999998900, 30.00000000000000000 ) ) ;
#807 = CARTESIAN_POINT ( 'NONE',  ( 3.900000000000000800, -1.799999999999997800, 24.50000000000000000 ) ) ;
#808 = DIRECTION ( 'NONE',  ( -0.0000000000000000000, -0.0000000000000000000, -1.000000000000000000 ) ) ;
#809 = CARTESIAN_POINT ( 'NONE',  ( -7.849999999999996100, -4.799999999999998900, 30.00000000000000000 ) ) ;
#810 = DIRECTION ( 'NONE',  ( -1.000000000000000000, 6.587557503709402000E-016, 0.0000000000000000000 ) ) ;
#811 = CARTESIAN_POINT ( 'NONE',  ( 3.900000000000000400, -2.300000000000003400, 0.0000000000000000000 ) ) ;
#812 = CARTESIAN_POINT ( 'NONE',  ( -4.850000000000005000, -1.799999999999997800, 30.00000000000000000 ) ) ;
#813 = DIRECTION ( 'NONE',  ( -1.000000000000000000, -6.587557503709402000E-016, -0.0000000000000000000 ) ) ;
#814 = CARTESIAN_POINT ( 'NONE',  ( -3.900000000000000400, -2.300000000000003400, 0.0000000000000000000 ) ) ;
#815 = DIRECTION ( 'NONE',  ( -0.0000000000000000000, 1.000000000000000000, -0.0000000000000000000 ) ) ;
#816 = DIRECTION ( 'NONE',  ( 1.000000000000000000, 0.0000000000000000000, 0.0000000000000000000 ) ) ;
#817 = CARTESIAN_POINT ( 'NONE',  ( 7.849999999999996100, -2.300000000000000700, 0.0000000000000000000 ) ) ;
#818 = DIRECTION ( 'NONE',  ( 1.000000000000000000, 0.0000000000000000000, 0.0000000000000000000 ) ) ;
#819 = DIRECTION ( 'NONE',  ( -0.0000000000000000000, 1.000000000000000000, -0.0000000000000000000 ) ) ;
#820 = CARTESIAN_POINT ( 'NONE',  ( 4.850000000000008500, -7.799999999999999800, 19.99999999999999600 ) ) ;
#821 = DIRECTION ( 'NONE',  ( -0.0000000000000000000, -0.0000000000000000000, -1.000000000000000000 ) ) ;
#822 = CARTESIAN_POINT ( 'NONE',  ( 0.0000000000000000000, 7.200000000000002800, 22.19999999999999600 ) ) ;
#823 = DIRECTION ( 'NONE',  ( 0.0000000000000000000, 1.000000000000000000, 0.0000000000000000000 ) ) ;
#824 = CARTESIAN_POINT ( 'NONE',  ( -4.850000000000005000, -1.799999999999997800, 30.00000000000000000 ) ) ;
#825 = CARTESIAN_POINT ( 'NONE',  ( -3.900000000000000800, 0.0000000000000000000, 22.19999999999999600 ) ) ;
#826 = DIRECTION ( 'NONE',  ( 0.7071067811865459100, 0.7071067811865491300, -0.0000000000000000000 ) ) ;
#827 = CARTESIAN_POINT ( 'NONE',  ( 7.849999999999996100, -2.300000000000000700, 19.99999999999999600 ) ) ;
#828 = CARTESIAN_POINT ( 'NONE',  ( 3.900000000000000800, 0.0000000000000000000, 19.99999999999999600 ) ) ;
#829 = DIRECTION ( 'NONE',  ( 0.0000000000000000000, 1.000000000000000000, 0.0000000000000000000 ) ) ;
#830 = DIRECTION ( 'NONE',  ( 0.0000000000000000000, -1.000000000000000000, 0.0000000000000000000 ) ) ;
#831 = CARTESIAN_POINT ( 'NONE',  ( 7.849999999999996100, -2.300000000000000700, 30.00000000000000000 ) ) ;
#832 = CARTESIAN_POINT ( 'NONE',  ( 3.900000000000000800, -1.799999999999997800, 22.19999999999999600 ) ) ;
#833 = CARTESIAN_POINT ( 'NONE',  ( 3.900000000000000800, 0.0000000000000000000, 0.0000000000000000000 ) ) ;
#834 = CARTESIAN_POINT ( 'NONE',  ( 3.024999999999999900, 7.200000000000002800, 22.19999999999999600 ) ) ;
#835 = CARTESIAN_POINT ( 'NONE',  ( -3.900000000000000800, -7.799999999999999800, 19.99999999999999600 ) ) ;
#836 = CARTESIAN_POINT ( 'NONE',  ( -3.900000000000000800, 0.0000000000000000000, 22.19999999999999600 ) ) ;
#837 = CARTESIAN_POINT ( 'NONE',  ( -3.900000000000000800, 0.0000000000000000000, 0.0000000000000000000 ) ) ;
#838 = CARTESIAN_POINT ( 'NONE',  ( 3.900000000000000800, -2.300000000000002000, 19.99999999999999600 ) ) ;
#839 = CARTESIAN_POINT ( 'NONE',  ( 2.499999999999998200, 7.200000000000002800, 22.72499999999999800 ) ) ;
#840 = CARTESIAN_POINT ( 'NONE',  ( -7.849999999999996100, -2.300000000000000700, 0.0000000000000000000 ) ) ;
#841 = CARTESIAN_POINT ( 'NONE',  ( -3.900000000000000400, -1.799999999999997800, 24.50000000000000000 ) ) ;
#842 = CARTESIAN_POINT ( 'NONE',  ( 3.900000000000000800, -1.799999999999997800, 24.50000000000000000 ) ) ;
#843 = CARTESIAN_POINT ( 'NONE',  ( 2.499999999999997300, 7.200000000000002800, 30.00000000000000000 ) ) ;
#844 = CARTESIAN_POINT ( 'NONE',  ( -3.900000000000000800, -2.300000000000002000, 19.99999999999999600 ) ) ;
#845 = CARTESIAN_POINT ( 'NONE',  ( -3.900000000000000800, -1.799999999999997800, 30.00000000000000000 ) ) ;
#846 = CARTESIAN_POINT ( 'NONE',  ( 3.900000000000000800, -7.799999999999999800, 19.99999999999999600 ) ) ;
#847 = CARTESIAN_POINT ( 'NONE',  ( -3.900000000000000800, 13.20000000000000100, 22.19999999999999600 ) ) ;
#848 = CARTESIAN_POINT ( 'NONE',  ( -3.900000000000000800, 13.20000000000000100, 24.50000000000000000 ) ) ;
#849 = CARTESIAN_POINT ( 'NONE',  ( 3.900000000000000800, -7.799999999999999800, 30.00000000000000000 ) ) ;
#850 = DIRECTION ( 'NONE',  ( -0.0000000000000000000, -0.0000000000000000000, -1.000000000000000000 ) ) ;
#851 = CARTESIAN_POINT ( 'NONE',  ( 4.850000000000008500, -7.799999999999999800, 0.0000000000000000000 ) ) ;
#852 = DIRECTION ( 'NONE',  ( 0.0000000000000000000, 0.7071067811865580100, 0.7071067811865369100 ) ) ;
#853 = DIRECTION ( 'NONE',  ( 1.000000000000000000, -0.0000000000000000000, -0.0000000000000000000 ) ) ;
#854 = CARTESIAN_POINT ( 'NONE',  ( 0.0000000000000000000, 1.734723475976807100E-015, 13.02500000000000000 ) ) ;
#855 = EDGE_CURVE ( 'NONE', #23, #33, #260, .T. ) ;
#856 = EDGE_CURVE ( 'NONE', #16, #26, #257, .T. ) ;
#857 = EDGE_CURVE ( 'NONE', #6, #16, #245, .T. ) ;
#858 = EDGE_CURVE ( 'NONE', #22, #51, #252, .T. ) ;
#859 = EDGE_CURVE ( 'NONE', #70, #91, #265, .T. ) ;
#860 = EDGE_CURVE ( 'NONE', #26, #3, #282, .T. ) ;
#861 = EDGE_CURVE ( 'NONE', #58, #34, #285, .T. ) ;
#862 = EDGE_CURVE ( 'NONE', #89, #87, #287, .T. ) ;
#863 = EDGE_CURVE ( 'NONE', #50, #75, #277, .T. ) ;
#864 = EDGE_CURVE ( 'NONE', #12, #96, #279, .T. ) ;
#865 = EDGE_CURVE ( 'NONE', #19, #48, #286, .T. ) ;
#866 = EDGE_CURVE ( 'NONE', #31, #36, #281, .T. ) ;
#867 = EDGE_CURVE ( 'NONE', #86, #93, #312, .T. ) ;
#868 = EDGE_CURVE ( 'NONE', #97, #15, #293, .T. ) ;
#869 = EDGE_CURVE ( 'NONE', #6, #65, #328, .T. ) ;
#870 = EDGE_CURVE ( 'NONE', #98, #87, #319, .T. ) ;
#871 = EDGE_CURVE ( 'NONE', #96, #79, #327, .T. ) ;
#872 = EDGE_CURVE ( 'NONE', #47, #3, #332, .T. ) ;
#873 = EDGE_CURVE ( 'NONE', #3, #91, #331, .T. ) ;
#874 = EDGE_CURVE ( 'NONE', #84, #85, #291, .T. ) ;
#875 = EDGE_CURVE ( 'NONE', #48, #30, #313, .T. ) ;
#876 = EDGE_CURVE ( 'NONE', #85, #11, #300, .T. ) ;
#877 = EDGE_CURVE ( 'NONE', #24, #23, #296, .T. ) ;
#878 = EDGE_CURVE ( 'NONE', #33, #86, #335, .T. ) ;
#879 = EDGE_CURVE ( 'NONE', #65, #90, #334, .T. ) ;
#880 = EDGE_CURVE ( 'NONE', #27, #22, #336, .T. ) ;
#881 = EDGE_CURVE ( 'NONE', #79, #92, #317, .T. ) ;
#882 = EDGE_CURVE ( 'NONE', #21, #26, #321, .T. ) ;
#883 = EDGE_CURVE ( 'NONE', #7, #21, #290, .T. ) ;
#884 = EDGE_CURVE ( 'NONE', #30, #75, #298, .T. ) ;
#885 = EDGE_CURVE ( 'NONE', #50, #97, #289, .T. ) ;
#886 = EDGE_CURVE ( 'NONE', #15, #19, #302, .T. ) ;
#887 = EDGE_CURVE ( 'NONE', #97, #58, #305, .T. ) ;
#888 = EDGE_CURVE ( 'NONE', #90, #30, #316, .T. ) ;
#889 = EDGE_CURVE ( 'NONE', #57, #39, #294, .T. ) ;
#890 = EDGE_CURVE ( 'NONE', #89, #84, #310, .T. ) ;
#891 = EDGE_CURVE ( 'NONE', #70, #47, #324, .T. ) ;
#892 = EDGE_CURVE ( 'NONE', #92, #51, #341, .T. ) ;
#893 = EDGE_CURVE ( 'NONE', #25, #21, #356, .T. ) ;
#894 = EDGE_CURVE ( 'NONE', #75, #58, #338, .T. ) ;
#895 = EDGE_CURVE ( 'NONE', #27, #6, #351, .T. ) ;
#896 = EDGE_CURVE ( 'NONE', #12, #51, #365, .T. ) ;
#897 = AXIS2_PLACEMENT_3D ( 'NONE', #963, #961, #964 ) ;
#898 = AXIS2_PLACEMENT_3D ( 'NONE', #583, #552, #579 ) ;
#899 = AXIS2_PLACEMENT_3D ( 'NONE', #561, #572, #574 ) ;
#900 = AXIS2_PLACEMENT_3D ( 'NONE', #550, #553, #557 ) ;
#901 = AXIS2_PLACEMENT_3D ( 'NONE', #556, #549, #551 ) ;
#902 = EDGE_CURVE ( 'NONE', #17, #89, #345, .T. ) ;
#903 = EDGE_CURVE ( 'NONE', #19, #22, #342, .T. ) ;
#904 = AXIS2_PLACEMENT_3D ( 'NONE', #512, #526, #545 ) ;
#905 = AXIS2_PLACEMENT_3D ( 'NONE', #630, #621, #616 ) ;
#906 = EDGE_CURVE ( 'NONE', #29, #7, #358, .T. ) ;
#907 = EDGE_CURVE ( 'NONE', #15, #34, #357, .T. ) ;
#908 = EDGE_CURVE ( 'NONE', #10, #35, #364, .T. ) ;
#909 = EDGE_CURVE ( 'NONE', #92, #98, #363, .T. ) ;
#910 = EDGE_CURVE ( 'NONE', #4, #41, #349, .T. ) ;
#911 = EDGE_CURVE ( 'NONE', #29, #33, #362, .T. ) ;
#912 = EDGE_CURVE ( 'NONE', #56, #5, #352, .T. ) ;
#913 = EDGE_CURVE ( 'NONE', #46, #57, #361, .T. ) ;
#914 = AXIS2_PLACEMENT_3D ( 'NONE', #1014, #1020, #1017 ) ;
#915 = EDGE_CURVE ( 'NONE', #34, #25, #353, .T. ) ;
#916 = AXIS2_PLACEMENT_3D ( 'NONE', #804, #1031, #1030 ) ;
#917 = EDGE_CURVE ( 'NONE', #5, #56, #380, .T. ) ;
#918 = EDGE_CURVE ( 'NONE', #4, #10, #384, .T. ) ;
#919 = AXIS2_PLACEMENT_3D ( 'NONE', #822, #802, #803 ) ;
#920 = AXIS2_PLACEMENT_3D ( 'NONE', #593, #620, #622 ) ;
#921 = EDGE_CURVE ( 'NONE', #17, #27, #386, .T. ) ;
#922 = EDGE_CURVE ( 'NONE', #53, #46, #385, .T. ) ;
#923 = EDGE_CURVE ( 'NONE', #12, #86, #388, .T. ) ;
#924 = EDGE_CURVE ( 'NONE', #35, #56, #371, .T. ) ;
#925 = AXIS2_PLACEMENT_3D ( 'NONE', #960, #957, #798 ) ;
#926 = EDGE_CURVE ( 'NONE', #85, #94, #395, .T. ) ;
#927 = EDGE_CURVE ( 'NONE', #53, #39, #390, .T. ) ;
#928 = AXIS2_PLACEMENT_3D ( 'NONE', #514, #516, #521 ) ;
#929 = EDGE_CURVE ( 'NONE', #36, #31, #366, .T. ) ;
#930 = AXIS2_PLACEMENT_3D ( 'NONE', #581, #563, #566 ) ;
#931 = EDGE_CURVE ( 'NONE', #7, #23, #375, .T. ) ;
#932 = EDGE_CURVE ( 'NONE', #93, #95, #387, .T. ) ;
#933 = EDGE_CURVE ( 'NONE', #91, #90, #383, .T. ) ;
#934 = EDGE_CURVE ( 'NONE', #48, #50, #369, .T. ) ;
#935 = EDGE_CURVE ( 'NONE', #41, #4, #399, .T. ) ;
#936 = EDGE_CURVE ( 'NONE', #65, #70, #400, .T. ) ;
#937 = EDGE_CURVE ( 'NONE', #10, #5, #367, .T. ) ;
#938 = EDGE_CURVE ( 'NONE', #47, #16, #403, .T. ) ;
#939 = EDGE_CURVE ( 'NONE', #94, #24, #370, .T. ) ;
#940 = EDGE_CURVE ( 'NONE', #46, #53, #406, .T. ) ;
#941 = EDGE_CURVE ( 'NONE', #35, #10, #372, .T. ) ;
#942 = EDGE_CURVE ( 'NONE', #96, #93, #373, .T. ) ;
#943 = EDGE_CURVE ( 'NONE', #31, #46, #376, .T. ) ;
#944 = EDGE_CURVE ( 'NONE', #87, #88, #378, .T. ) ;
#945 = EDGE_CURVE ( 'NONE', #36, #53, #422, .T. ) ;
#946 = EDGE_CURVE ( 'NONE', #41, #35, #423, .T. ) ;
#947 = EDGE_CURVE ( 'NONE', #17, #11, #424, .T. ) ;
#948 = EDGE_CURVE ( 'NONE', #39, #57, #414, .T. ) ;
#949 = EDGE_CURVE ( 'NONE', #11, #24, #428, .T. ) ;
#950 = EDGE_CURVE ( 'NONE', #29, #25, #430, .T. ) ;
#951 = AXIS2_PLACEMENT_3D ( 'NONE', #511, #536, #539 ) ;
#952 = AXIS2_PLACEMENT_3D ( 'NONE', #544, #510, #520 ) ;
#953 = EDGE_CURVE ( 'NONE', #79, #95, #413, .T. ) ;
#954 = EDGE_CURVE ( 'NONE', #88, #94, #425, .T. ) ;
#955 = EDGE_CURVE ( 'NONE', #95, #98, #437, .T. ) ;
#956 = EDGE_CURVE ( 'NONE', #84, #88, #434, .T. ) ;
#957 = DIRECTION ( 'NONE',  ( -0.0000000000000000000, -0.0000000000000000000, -1.000000000000000000 ) ) ;
#958 = DIRECTION ( 'NONE',  ( -1.000000000000000000, -0.0000000000000000000, -0.0000000000000000000 ) ) ;
#959 = CARTESIAN_POINT ( 'NONE',  ( -3.900000000000000800, 0.0000000000000000000, 0.0000000000000000000 ) ) ;
#960 = CARTESIAN_POINT ( 'NONE',  ( 0.0000000000000000000, 7.200000000000002800, 22.72499999999999800 ) ) ;
#961 = DIRECTION ( 'NONE',  ( -0.0000000000000000000, 1.000000000000000000, -0.0000000000000000000 ) ) ;
#962 = DIRECTION ( 'NONE',  ( -1.000000000000000000, -0.0000000000000000000, -0.0000000000000000000 ) ) ;
#963 = CARTESIAN_POINT ( 'NONE',  ( 0.0000000000000000000, 1.734723475976807100E-015, 10.00000000000000000 ) ) ;
#964 = DIRECTION ( 'NONE',  ( 0.0000000000000000000, 0.0000000000000000000, 1.000000000000000000 ) ) ;
#965 = CARTESIAN_POINT ( 'NONE',  ( -4.850000000000005000, -1.799999999999997800, 30.00000000000000000 ) ) ;
#966 = ADVANCED_FACE ( 'NONE', ( #436, #438 ), #548, .F. ) ;
#967 = ADVANCED_FACE ( 'NONE', ( #420 ), #418, .F. ) ;
#968 = ADVANCED_FACE ( 'NONE', ( #445 ), #592, .F. ) ;
#969 = ADVANCED_FACE ( 'NONE', ( #407, #433 ), #618, .F. ) ;
#970 = ADVANCED_FACE ( 'NONE', ( #442 ), #639, .F. ) ;
#971 = ADVANCED_FACE ( 'NONE', ( #409 ), #441, .F. ) ;
#972 = ADVANCED_FACE ( 'NONE', ( #444 ), #635, .F. ) ;
#973 = ADVANCED_FACE ( 'NONE', ( #446 ), #604, .T. ) ;
#974 = ADVANCED_FACE ( 'NONE', ( #408, #439 ), #600, .T. ) ;
#975 = ADVANCED_FACE ( 'NONE', ( #415 ), #613, .F. ) ;
#976 = ADVANCED_FACE ( 'NONE', ( #412 ), #611, .F. ) ;
#977 = ADVANCED_FACE ( 'NONE', ( #416 ), #597, .F. ) ;
#978 = ADVANCED_FACE ( 'NONE', ( #421 ), #448, .F. ) ;
#979 = ADVANCED_FACE ( 'NONE', ( #410 ), #451, .F. ) ;
#980 = ADVANCED_FACE ( 'NONE', ( #411, #440 ), #602, .F. ) ;
#981 = ADVANCED_FACE ( 'NONE', ( #447 ), #615, .F. ) ;
#982 = ADVANCED_FACE ( 'NONE', ( #449 ), #657, .F. ) ;
#983 = ADVANCED_FACE ( 'NONE', ( #450 ), #677, .F. ) ;
#984 = ADVANCED_FACE ( 'NONE', ( #459 ), #454, .F. ) ;
#985 = ADVANCED_FACE ( 'NONE', ( #460 ), #666, .T. ) ;
#986 = ADVANCED_FACE ( 'NONE', ( #464 ), #643, .F. ) ;
#987 = ADVANCED_FACE ( 'NONE', ( #462 ), #661, .F. ) ;
#988 = ADVANCED_FACE ( 'NONE', ( #458 ), #681, .F. ) ;
#989 = ADVANCED_FACE ( 'NONE', ( #463 ), #640, .F. ) ;
#990 = ADVANCED_FACE ( 'NONE', ( #461 ), #469, .F. ) ;
#991 = ADVANCED_FACE ( 'NONE', ( #455 ), #683, .F. ) ;
#992 = ADVANCED_FACE ( 'NONE', ( #452 ), #477, .F. ) ;
#993 = ADVANCED_FACE ( 'NONE', ( #465 ), #665, .F. ) ;
#994 = ADVANCED_FACE ( 'NONE', ( #456 ), #457, .F. ) ;
#995 = ADVANCED_FACE ( 'NONE', ( #471 ), #712, .T. ) ;
#996 = ADVANCED_FACE ( 'NONE', ( #478 ), #723, .F. ) ;
#997 = ADVANCED_FACE ( 'NONE', ( #453 ), #719, .F. ) ;
#998 = MANIFOLD_SOLID_BREP ( 'M6 Tapped Hole2', #119 ) ;
#999 = UNCERTAINTY_MEASURE_WITH_UNIT (LENGTH_MEASURE( 1.000000000000000100E-005 ), #716, 'distance_accuracy_value', 'NONE');
#1000 = ADVANCED_BREP_SHAPE_REPRESENTATION ( 'ALP2171', ( #998, #1060 ), #1064 ) ;
#1001 = CARTESIAN_POINT ( 'NONE',  ( 7.849999999999996100, -1.799999999999997800, 27.00000000000000000 ) ) ;
#1002 = DIRECTION ( 'NONE',  ( 1.000000000000000000, -0.0000000000000000000, -0.0000000000000000000 ) ) ;
#1003 = CARTESIAN_POINT ( 'NONE',  ( -3.900000000000000800, 0.0000000000000000000, 30.00000000000000000 ) ) ;
#1004 = CARTESIAN_POINT ( 'NONE',  ( 7.849999999999996100, -4.799999999999998900, 0.0000000000000000000 ) ) ;
#1005 = DIRECTION ( 'NONE',  ( 1.885568995626961300E-016, -1.000000000000000000, 0.0000000000000000000 ) ) ;
#1006 = DIRECTION ( 'NONE',  ( -0.0000000000000000000, -0.0000000000000000000, -1.000000000000000000 ) ) ;
#1007 = CARTESIAN_POINT ( 'NONE',  ( -3.900000000000000800, 0.0000000000000000000, 0.0000000000000000000 ) ) ;
#1008 = CARTESIAN_POINT ( 'NONE',  ( 3.900000000000000400, -2.300000000000003400, 30.00000000000000000 ) ) ;
#1009 = DIRECTION ( 'NONE',  ( -0.7071067811865464600, 0.0000000000000000000, 0.7071067811865486800 ) ) ;
#1010 = CARTESIAN_POINT ( 'NONE',  ( -4.850000000000008500, -7.799999999999999800, 30.00000000000000000 ) ) ;
#1011 = DIRECTION ( 'NONE',  ( -0.0000000000000000000, -0.0000000000000000000, -1.000000000000000000 ) ) ;
#1012 = DIRECTION ( 'NONE',  ( -0.0000000000000000000, -0.0000000000000000000, -1.000000000000000000 ) ) ;
#1013 = CARTESIAN_POINT ( 'NONE',  ( 4.850000000000008500, -7.799999999999999800, 30.00000000000000000 ) ) ;
#1014 = CARTESIAN_POINT ( 'NONE',  ( 0.0000000000000000000, -7.799999999999999800, 10.00000000000000000 ) ) ;
#1015 = DIRECTION ( 'NONE',  ( -1.000000000000000000, -6.587557503709402000E-016, 0.0000000000000000000 ) ) ;
#1016 = CARTESIAN_POINT ( 'NONE',  ( 3.900000000000000800, 13.20000000000000100, 24.50000000000000000 ) ) ;
#1017 = DIRECTION ( 'NONE',  ( 0.0000000000000000000, 0.0000000000000000000, 1.000000000000000000 ) ) ;
#1018 = DIRECTION ( 'NONE',  ( 1.000000000000000000, 0.0000000000000000000, 0.0000000000000000000 ) ) ;
#1019 = CARTESIAN_POINT ( 'NONE',  ( 3.900000000000000400, -2.300000000000003400, 19.99999999999999600 ) ) ;
#1020 = DIRECTION ( 'NONE',  ( -0.0000000000000000000, 1.000000000000000000, -0.0000000000000000000 ) ) ;
#1021 = CARTESIAN_POINT ( 'NONE',  ( -4.850000000000005000, 13.20000000000000100, 30.00000000000000000 ) ) ;
#1022 = DIRECTION ( 'NONE',  ( -1.000000000000000000, 0.0000000000000000000, 0.0000000000000000000 ) ) ;
#1023 = CARTESIAN_POINT ( 'NONE',  ( 4.850000000000008500, -7.799999999999999800, 19.99999999999999600 ) ) ;
#1024 = CARTESIAN_POINT ( 'NONE',  ( 7.849999999999996100, -1.799999999999997800, 24.50000000000000000 ) ) ;
#1025 = DIRECTION ( 'NONE',  ( 0.0000000000000000000, 0.0000000000000000000, 1.000000000000000000 ) ) ;
#1026 = DIRECTION ( 'NONE',  ( -1.000000000000000000, -0.0000000000000000000, -0.0000000000000000000 ) ) ;
#1027 = CARTESIAN_POINT ( 'NONE',  ( -7.849999999999996100, -1.799999999999997800, 27.00000000000000000 ) ) ;
#1028 = DIRECTION ( 'NONE',  ( -0.7071067811865464600, -0.0000000000000000000, -0.7071067811865486800 ) ) ;
#1029 = CARTESIAN_POINT ( 'NONE',  ( -7.849999999999996100, -2.300000000000000700, 19.99999999999999600 ) ) ;
#1030 = DIRECTION ( 'NONE',  ( -1.000000000000000000, 0.0000000000000000000, 0.0000000000000000000 ) ) ;
#1031 = DIRECTION ( 'NONE',  ( -0.0000000000000000000, -0.0000000000000000000, -1.000000000000000000 ) ) ;
#1032 = APPROVAL ( #692, 'UNSPECIFIED' ) ;
#1033 = SECURITY_CLASSIFICATION ( '', '', #718 ) ;
#1034 = CC_DESIGN_DATE_AND_TIME_ASSIGNMENT ( #480, #725, ( #1033 ) ) ;
#1035 = CC_DESIGN_APPROVAL ( #1032, ( #1033 ) ) ;
#1036 = PRODUCT_RELATED_PRODUCT_CATEGORY ( 'detail', '', ( #506 ) ) ;
#1037 = CC_DESIGN_PERSON_AND_ORGANIZATION_ASSIGNMENT ( #491, #724, ( #1033 ) ) ;
#1038 = CC_DESIGN_PERSON_AND_ORGANIZATION_ASSIGNMENT ( #494, #726, ( #1069 ) ) ;
#1039 = CC_DESIGN_SECURITY_CLASSIFICATION ( #1033, ( #1069 ) ) ;
#1040 = AXIS2_PLACEMENT_3D ( 'NONE', #634, #631, #605 ) ;
#1041 = AXIS2_PLACEMENT_3D ( 'NONE', #632, #601, #628 ) ;
#1042 = AXIS2_PLACEMENT_3D ( 'NONE', #636, #623, #607 ) ;
#1043 = AXIS2_PLACEMENT_3D ( 'NONE', #594, #606, #624 ) ;
#1044 = AXIS2_PLACEMENT_3D ( 'NONE', #598, #599, #629 ) ;
#1045 = AXIS2_PLACEMENT_3D ( 'NONE', #617, #591, #603 ) ;
#1046 = AXIS2_PLACEMENT_3D ( 'NONE', #684, #646, #662 ) ;
#1047 = AXIS2_PLACEMENT_3D ( 'NONE', #671, #668, #672 ) ;
#1048 = AXIS2_PLACEMENT_3D ( 'NONE', #596, #610, #595 ) ;
#1049 = AXIS2_PLACEMENT_3D ( 'NONE', #660, #679, #674 ) ;
#1050 = AXIS2_PLACEMENT_3D ( 'NONE', #612, #619, #638 ) ;
#1051 = AXIS2_PLACEMENT_3D ( 'NONE', #625, #626, #627 ) ;
#1052 = AXIS2_PLACEMENT_3D ( 'NONE', #633, #609, #614 ) ;
#1053 = AXIS2_PLACEMENT_3D ( 'NONE', #670, #673, #678 ) ;
#1054 = AXIS2_PLACEMENT_3D ( 'NONE', #669, #675, #687 ) ;
#1055 = AXIS2_PLACEMENT_3D ( 'NONE', #608, #637, #590 ) ;
#1056 = AXIS2_PLACEMENT_3D ( 'NONE', #685, #676, #649 ) ;
#1057 = AXIS2_PLACEMENT_3D ( 'NONE', #705, #721, #700 ) ;
#1058 = AXIS2_PLACEMENT_3D ( 'NONE', #693, #710, #690 ) ;
#1059 = AXIS2_PLACEMENT_3D ( 'NONE', #656, #648, #644 ) ;
#1060 = AXIS2_PLACEMENT_3D ( 'NONE', #714, #727, #694 ) ;
#1061 = AXIS2_PLACEMENT_3D ( 'NONE', #653, #663, #642 ) ;
#1062 = AXIS2_PLACEMENT_3D ( 'NONE', #713, #720, #691 ) ;
#1063 = APPROVAL ( #711, 'UNSPECIFIED' ) ;
#1064 =( GEOMETRIC_REPRESENTATION_CONTEXT ( 3 ) GLOBAL_UNCERTAINTY_ASSIGNED_CONTEXT ( ( #999 ) ) GLOBAL_UNIT_ASSIGNED_CONTEXT ( ( #716, #695, #702 ) ) REPRESENTATION_CONTEXT ( 'NONE', 'WORKASPACE' ) );
#1065 = AXIS2_PLACEMENT_3D ( 'NONE', #651, #664, #650 ) ;
#1066 = CC_DESIGN_PERSON_AND_ORGANIZATION_ASSIGNMENT ( #495, #707, ( #1068 ) ) ;
#1067 = CC_DESIGN_DATE_AND_TIME_ASSIGNMENT ( #499, #717, ( #1068 ) ) ;
#1068 = PRODUCT_DEFINITION ( 'UNKNOWN', '', #1069, #772 ) ;
#1069 = PRODUCT_DEFINITION_FORMATION_WITH_SPECIFIED_SOURCE ( 'ANY', '', #506, .NOT_KNOWN. ) ;
#1070 = APPROVAL ( #706, 'UNSPECIFIED' ) ;
#1071 = CC_DESIGN_APPROVAL ( #1070, ( #1069 ) ) ;
#1072 = AXIS2_PLACEMENT_3D ( 'NONE', #689, #697, #701 ) ;
#1073 = AXIS2_PLACEMENT_3D ( 'NONE', #654, #682, #659 ) ;
#1074 = AXIS2_PLACEMENT_3D ( 'NONE', #655, #680, #686 ) ;
#1075 = CC_DESIGN_PERSON_AND_ORGANIZATION_ASSIGNMENT ( #476, #703, ( #506 ) ) ;
#1076 = CC_DESIGN_APPROVAL ( #1063, ( #1068 ) ) ;
#1077 = AXIS2_PLACEMENT_3D ( 'NONE', #658, #647, #645 ) ;
#1078 = AXIS2_PLACEMENT_3D ( 'NONE', #667, #641, #652 ) ;
#1079 = CC_DESIGN_PERSON_AND_ORGANIZATION_ASSIGNMENT ( #490, #688, ( #1069 ) ) ;
ENDSEC;
END-ISO-10303-21;
