ISO-10303-21;
HEADER;
/* Generated by software containing ST-Developer
 * from STEP Tools, Inc. (www.steptools.com) 
 */

FILE_DESCRIPTION(
/* description */ (''),
/* implementation_level */ '2;1');

FILE_NAME(
/* name */ 'ALP2062.step',
/* time_stamp */ '2023-03-21T12:34:53+01:00',
/* author */ (''),
/* organization */ (''),
/* preprocessor_version */ 'ST-DEVELOPER v19.2',
/* originating_system */ 'Autodesk Translation Framework v11.17.0.187',

/* authorisation */ '');

FILE_SCHEMA (('AUTOMOTIVE_DESIGN { 1 0 10303 214 3 1 1 }'));
ENDSEC;

DATA;
#10=MECHANICAL_DESIGN_GEOMETRIC_PRESENTATION_REPRESENTATION('',(#13),#1289);
#11=SHAPE_REPRESENTATION_RELATIONSHIP('SRR','None',#1296,#12);
#12=ADVANCED_BREP_SHAPE_REPRESENTATION('',(#14),#1288);
#13=STYLED_ITEM('',(#1306),#14);
#14=MANIFOLD_SOLID_BREP('Body1',#758);
#15=ELLIPSE('',#843,3.09682279140482,3.00000000000975);
#16=ELLIPSE('',#845,3.48662426573997,2.99999999995004);
#17=SPHERICAL_SURFACE('',#815,3.);
#18=SPHERICAL_SURFACE('',#819,3.);
#19=SPHERICAL_SURFACE('',#823,3.);
#20=FACE_BOUND('',#92,.T.);
#21=FACE_BOUND('',#93,.T.);
#22=FACE_BOUND('',#94,.T.);
#23=FACE_BOUND('',#97,.T.);
#24=FACE_BOUND('',#100,.T.);
#25=FACE_BOUND('',#105,.T.);
#26=FACE_BOUND('',#106,.T.);
#27=FACE_BOUND('',#107,.T.);
#28=PLANE('',#775);
#29=PLANE('',#777);
#30=PLANE('',#785);
#31=PLANE('',#786);
#32=PLANE('',#789);
#33=PLANE('',#792);
#34=PLANE('',#798);
#35=PLANE('',#802);
#36=PLANE('',#809);
#37=PLANE('',#810);
#38=PLANE('',#811);
#39=PLANE('',#812);
#40=PLANE('',#827);
#41=PLANE('',#829);
#42=PLANE('',#831);
#43=PLANE('',#833);
#44=PLANE('',#835);
#45=PLANE('',#837);
#46=PLANE('',#839);
#47=PLANE('',#841);
#48=FACE_OUTER_BOUND('',#89,.T.);
#49=FACE_OUTER_BOUND('',#90,.T.);
#50=FACE_OUTER_BOUND('',#91,.T.);
#51=FACE_OUTER_BOUND('',#95,.T.);
#52=FACE_OUTER_BOUND('',#96,.T.);
#53=FACE_OUTER_BOUND('',#98,.T.);
#54=FACE_OUTER_BOUND('',#99,.T.);
#55=FACE_OUTER_BOUND('',#101,.T.);
#56=FACE_OUTER_BOUND('',#102,.T.);
#57=FACE_OUTER_BOUND('',#103,.T.);
#58=FACE_OUTER_BOUND('',#104,.T.);
#59=FACE_OUTER_BOUND('',#108,.T.);
#60=FACE_OUTER_BOUND('',#109,.T.);
#61=FACE_OUTER_BOUND('',#110,.T.);
#62=FACE_OUTER_BOUND('',#111,.T.);
#63=FACE_OUTER_BOUND('',#112,.T.);
#64=FACE_OUTER_BOUND('',#113,.T.);
#65=FACE_OUTER_BOUND('',#114,.T.);
#66=FACE_OUTER_BOUND('',#115,.T.);
#67=FACE_OUTER_BOUND('',#116,.T.);
#68=FACE_OUTER_BOUND('',#117,.T.);
#69=FACE_OUTER_BOUND('',#118,.T.);
#70=FACE_OUTER_BOUND('',#119,.T.);
#71=FACE_OUTER_BOUND('',#120,.T.);
#72=FACE_OUTER_BOUND('',#121,.T.);
#73=FACE_OUTER_BOUND('',#122,.T.);
#74=FACE_OUTER_BOUND('',#123,.T.);
#75=FACE_OUTER_BOUND('',#124,.T.);
#76=FACE_OUTER_BOUND('',#125,.T.);
#77=FACE_OUTER_BOUND('',#126,.T.);
#78=FACE_OUTER_BOUND('',#127,.T.);
#79=FACE_OUTER_BOUND('',#128,.T.);
#80=FACE_OUTER_BOUND('',#129,.T.);
#81=FACE_OUTER_BOUND('',#130,.T.);
#82=FACE_OUTER_BOUND('',#131,.T.);
#83=FACE_OUTER_BOUND('',#132,.T.);
#84=FACE_OUTER_BOUND('',#133,.T.);
#85=FACE_OUTER_BOUND('',#134,.T.);
#86=FACE_OUTER_BOUND('',#135,.T.);
#87=FACE_OUTER_BOUND('',#136,.T.);
#88=FACE_OUTER_BOUND('',#137,.T.);
#89=EDGE_LOOP('',(#487,#488,#489,#490));
#90=EDGE_LOOP('',(#491,#492,#493,#494,#495,#496,#497));
#91=EDGE_LOOP('',(#498,#499,#500,#501,#502));
#92=EDGE_LOOP('',(#503,#504,#505,#506));
#93=EDGE_LOOP('',(#507,#508,#509,#510));
#94=EDGE_LOOP('',(#511,#512,#513,#514));
#95=EDGE_LOOP('',(#515,#516,#517,#518));
#96=EDGE_LOOP('',(#519,#520,#521,#522));
#97=EDGE_LOOP('',(#523,#524,#525,#526));
#98=EDGE_LOOP('',(#527,#528,#529,#530,#531,#532,#533,#534));
#99=EDGE_LOOP('',(#535,#536,#537,#538));
#100=EDGE_LOOP('',(#539,#540,#541,#542));
#101=EDGE_LOOP('',(#543,#544,#545,#546));
#102=EDGE_LOOP('',(#547,#548,#549,#550));
#103=EDGE_LOOP('',(#551,#552,#553,#554));
#104=EDGE_LOOP('',(#555,#556,#557,#558));
#105=EDGE_LOOP('',(#559,#560,#561,#562));
#106=EDGE_LOOP('',(#563,#564,#565,#566));
#107=EDGE_LOOP('',(#567,#568,#569,#570));
#108=EDGE_LOOP('',(#571,#572,#573,#574,#575,#576,#577,#578));
#109=EDGE_LOOP('',(#579,#580,#581,#582));
#110=EDGE_LOOP('',(#583,#584,#585,#586,#587,#588,#589,#590,#591));
#111=EDGE_LOOP('',(#592,#593,#594,#595,#596,#597));
#112=EDGE_LOOP('',(#598,#599,#600,#601));
#113=EDGE_LOOP('',(#602,#603,#604));
#114=EDGE_LOOP('',(#605,#606,#607,#608));
#115=EDGE_LOOP('',(#609,#610,#611));
#116=EDGE_LOOP('',(#612,#613,#614,#615));
#117=EDGE_LOOP('',(#616,#617,#618));
#118=EDGE_LOOP('',(#619,#620,#621,#622));
#119=EDGE_LOOP('',(#623,#624,#625,#626));
#120=EDGE_LOOP('',(#627,#628,#629,#630));
#121=EDGE_LOOP('',(#631,#632,#633,#634));
#122=EDGE_LOOP('',(#635,#636,#637,#638));
#123=EDGE_LOOP('',(#639,#640,#641,#642));
#124=EDGE_LOOP('',(#643,#644,#645,#646));
#125=EDGE_LOOP('',(#647,#648,#649,#650));
#126=EDGE_LOOP('',(#651,#652,#653,#654));
#127=EDGE_LOOP('',(#655,#656,#657,#658));
#128=EDGE_LOOP('',(#659,#660,#661,#662));
#129=EDGE_LOOP('',(#663,#664,#665,#666));
#130=EDGE_LOOP('',(#667,#668,#669,#670));
#131=EDGE_LOOP('',(#671,#672,#673,#674));
#132=EDGE_LOOP('',(#675,#676,#677,#678));
#133=EDGE_LOOP('',(#679,#680,#681,#682));
#134=EDGE_LOOP('',(#683,#684,#685,#686));
#135=EDGE_LOOP('',(#687,#688,#689,#690));
#136=EDGE_LOOP('',(#691,#692,#693,#694));
#137=EDGE_LOOP('',(#695,#696,#697,#698));
#138=CIRCLE('',#773,3.);
#139=CIRCLE('',#774,2.99999999999614);
#140=CIRCLE('',#776,3.);
#141=CIRCLE('',#778,3.);
#142=CIRCLE('',#779,4.5);
#143=CIRCLE('',#780,4.5);
#144=CIRCLE('',#781,4.5);
#145=CIRCLE('',#782,4.5);
#146=CIRCLE('',#783,4.5);
#147=CIRCLE('',#784,4.5);
#148=CIRCLE('',#787,4.5);
#149=CIRCLE('',#788,4.5);
#150=CIRCLE('',#790,3.);
#151=CIRCLE('',#791,3.);
#152=CIRCLE('',#793,4.5);
#153=CIRCLE('',#794,4.5);
#154=CIRCLE('',#796,3.);
#155=CIRCLE('',#797,3.00000000001433);
#156=CIRCLE('',#800,3.);
#157=CIRCLE('',#801,3.00000000002382);
#158=CIRCLE('',#803,4.5);
#159=CIRCLE('',#804,4.5);
#160=CIRCLE('',#805,4.5);
#161=CIRCLE('',#806,4.5);
#162=CIRCLE('',#807,4.5);
#163=CIRCLE('',#808,4.5);
#164=CIRCLE('',#814,3.);
#165=CIRCLE('',#816,3.);
#166=CIRCLE('',#818,3.00000000000001);
#167=CIRCLE('',#820,3.);
#168=CIRCLE('',#822,3.);
#169=CIRCLE('',#824,3.);
#170=LINE('',#1075,#242);
#171=LINE('',#1079,#243);
#172=LINE('',#1083,#244);
#173=LINE('',#1085,#245);
#174=LINE('',#1089,#246);
#175=LINE('',#1091,#247);
#176=LINE('',#1092,#248);
#177=LINE('',#1096,#249);
#178=LINE('',#1097,#250);
#179=LINE('',#1100,#251);
#180=LINE('',#1105,#252);
#181=LINE('',#1108,#253);
#182=LINE('',#1113,#254);
#183=LINE('',#1116,#255);
#184=LINE('',#1121,#256);
#185=LINE('',#1124,#257);
#186=LINE('',#1128,#258);
#187=LINE('',#1129,#259);
#188=LINE('',#1130,#260);
#189=LINE('',#1134,#261);
#190=LINE('',#1135,#262);
#191=LINE('',#1136,#263);
#192=LINE('',#1139,#264);
#193=LINE('',#1143,#265);
#194=LINE('',#1147,#266);
#195=LINE('',#1151,#267);
#196=LINE('',#1153,#268);
#197=LINE('',#1155,#269);
#198=LINE('',#1157,#270);
#199=LINE('',#1161,#271);
#200=LINE('',#1163,#272);
#201=LINE('',#1164,#273);
#202=LINE('',#1169,#274);
#203=LINE('',#1172,#275);
#204=LINE('',#1177,#276);
#205=LINE('',#1181,#277);
#206=LINE('',#1183,#278);
#207=LINE('',#1184,#279);
#208=LINE('',#1189,#280);
#209=LINE('',#1192,#281);
#210=LINE('',#1193,#282);
#211=LINE('',#1198,#283);
#212=LINE('',#1201,#284);
#213=LINE('',#1206,#285);
#214=LINE('',#1209,#286);
#215=LINE('',#1214,#287);
#216=LINE('',#1217,#288);
#217=LINE('',#1220,#289);
#218=LINE('',#1222,#290);
#219=LINE('',#1224,#291);
#220=LINE('',#1225,#292);
#221=LINE('',#1227,#293);
#222=LINE('',#1228,#294);
#223=LINE('',#1233,#295);
#224=LINE('',#1234,#296);
#225=LINE('',#1235,#297);
#226=LINE('',#1250,#298);
#227=LINE('',#1251,#299);
#228=LINE('',#1253,#300);
#229=LINE('',#1255,#301);
#230=LINE('',#1258,#302);
#231=LINE('',#1259,#303);
#232=LINE('',#1261,#304);
#233=LINE('',#1263,#305);
#234=LINE('',#1266,#306);
#235=LINE('',#1267,#307);
#236=LINE('',#1269,#308);
#237=LINE('',#1271,#309);
#238=LINE('',#1274,#310);
#239=LINE('',#1275,#311);
#240=LINE('',#1277,#312);
#241=LINE('',#1279,#313);
#242=VECTOR('',#851,1000.);
#243=VECTOR('',#854,1000.);
#244=VECTOR('',#859,1000.);
#245=VECTOR('',#860,1000.);
#246=VECTOR('',#863,1000.);
#247=VECTOR('',#864,1000.);
#248=VECTOR('',#865,1000.);
#249=VECTOR('',#868,1000.);
#250=VECTOR('',#869,1000.);
#251=VECTOR('',#872,1000.);
#252=VECTOR('',#875,1000.);
#253=VECTOR('',#878,1000.);
#254=VECTOR('',#881,1000.);
#255=VECTOR('',#884,1000.);
#256=VECTOR('',#887,1000.);
#257=VECTOR('',#890,1000.);
#258=VECTOR('',#893,1000.);
#259=VECTOR('',#894,1000.);
#260=VECTOR('',#895,1000.);
#261=VECTOR('',#898,1000.);
#262=VECTOR('',#899,1000.);
#263=VECTOR('',#900,1000.);
#264=VECTOR('',#901,1000.);
#265=VECTOR('',#904,1000.);
#266=VECTOR('',#909,1000.);
#267=VECTOR('',#912,1000.);
#268=VECTOR('',#913,1000.);
#269=VECTOR('',#914,1000.);
#270=VECTOR('',#915,1000.);
#271=VECTOR('',#920,1000.);
#272=VECTOR('',#921,1000.);
#273=VECTOR('',#922,1000.);
#274=VECTOR('',#925,1000.);
#275=VECTOR('',#928,1000.);
#276=VECTOR('',#933,1000.);
#277=VECTOR('',#938,1000.);
#278=VECTOR('',#939,1000.);
#279=VECTOR('',#940,1000.);
#280=VECTOR('',#945,1000.);
#281=VECTOR('',#950,1000.);
#282=VECTOR('',#951,1000.);
#283=VECTOR('',#954,1000.);
#284=VECTOR('',#957,1000.);
#285=VECTOR('',#960,1000.);
#286=VECTOR('',#963,1000.);
#287=VECTOR('',#966,1000.);
#288=VECTOR('',#969,1000.);
#289=VECTOR('',#972,1000.);
#290=VECTOR('',#973,1000.);
#291=VECTOR('',#974,1000.);
#292=VECTOR('',#975,1000.);
#293=VECTOR('',#978,1000.);
#294=VECTOR('',#979,1000.);
#295=VECTOR('',#984,1000.);
#296=VECTOR('',#985,1000.);
#297=VECTOR('',#986,1000.);
#298=VECTOR('',#1015,1000.);
#299=VECTOR('',#1016,1000.);
#300=VECTOR('',#1019,1000.);
#301=VECTOR('',#1022,1000.);
#302=VECTOR('',#1027,1000.);
#303=VECTOR('',#1028,1000.);
#304=VECTOR('',#1031,1000.);
#305=VECTOR('',#1034,1000.);
#306=VECTOR('',#1039,1000.);
#307=VECTOR('',#1040,1000.);
#308=VECTOR('',#1043,1000.);
#309=VECTOR('',#1046,1000.);
#310=VECTOR('',#1051,1000.);
#311=VECTOR('',#1052,1000.);
#312=VECTOR('',#1055,1000.);
#313=VECTOR('',#1058,1000.);
#314=VERTEX_POINT('',#1073);
#315=VERTEX_POINT('',#1074);
#316=VERTEX_POINT('',#1076);
#317=VERTEX_POINT('',#1078);
#318=VERTEX_POINT('',#1082);
#319=VERTEX_POINT('',#1084);
#320=VERTEX_POINT('',#1086);
#321=VERTEX_POINT('',#1088);
#322=VERTEX_POINT('',#1090);
#323=VERTEX_POINT('',#1094);
#324=VERTEX_POINT('',#1095);
#325=VERTEX_POINT('',#1098);
#326=VERTEX_POINT('',#1101);
#327=VERTEX_POINT('',#1102);
#328=VERTEX_POINT('',#1104);
#329=VERTEX_POINT('',#1106);
#330=VERTEX_POINT('',#1109);
#331=VERTEX_POINT('',#1110);
#332=VERTEX_POINT('',#1112);
#333=VERTEX_POINT('',#1114);
#334=VERTEX_POINT('',#1117);
#335=VERTEX_POINT('',#1118);
#336=VERTEX_POINT('',#1120);
#337=VERTEX_POINT('',#1122);
#338=VERTEX_POINT('',#1126);
#339=VERTEX_POINT('',#1127);
#340=VERTEX_POINT('',#1132);
#341=VERTEX_POINT('',#1133);
#342=VERTEX_POINT('',#1137);
#343=VERTEX_POINT('',#1138);
#344=VERTEX_POINT('',#1140);
#345=VERTEX_POINT('',#1142);
#346=VERTEX_POINT('',#1146);
#347=VERTEX_POINT('',#1148);
#348=VERTEX_POINT('',#1150);
#349=VERTEX_POINT('',#1152);
#350=VERTEX_POINT('',#1154);
#351=VERTEX_POINT('',#1156);
#352=VERTEX_POINT('',#1160);
#353=VERTEX_POINT('',#1162);
#354=VERTEX_POINT('',#1165);
#355=VERTEX_POINT('',#1166);
#356=VERTEX_POINT('',#1168);
#357=VERTEX_POINT('',#1170);
#358=VERTEX_POINT('',#1174);
#359=VERTEX_POINT('',#1176);
#360=VERTEX_POINT('',#1180);
#361=VERTEX_POINT('',#1182);
#362=VERTEX_POINT('',#1186);
#363=VERTEX_POINT('',#1188);
#364=VERTEX_POINT('',#1194);
#365=VERTEX_POINT('',#1195);
#366=VERTEX_POINT('',#1197);
#367=VERTEX_POINT('',#1199);
#368=VERTEX_POINT('',#1202);
#369=VERTEX_POINT('',#1203);
#370=VERTEX_POINT('',#1205);
#371=VERTEX_POINT('',#1207);
#372=VERTEX_POINT('',#1210);
#373=VERTEX_POINT('',#1211);
#374=VERTEX_POINT('',#1213);
#375=VERTEX_POINT('',#1215);
#376=VERTEX_POINT('',#1219);
#377=VERTEX_POINT('',#1221);
#378=VERTEX_POINT('',#1223);
#379=VERTEX_POINT('',#1231);
#380=VERTEX_POINT('',#1232);
#381=EDGE_CURVE('',#314,#315,#170,.T.);
#382=EDGE_CURVE('',#315,#316,#138,.T.);
#383=EDGE_CURVE('',#317,#316,#171,.T.);
#384=EDGE_CURVE('',#314,#317,#139,.T.);
#385=EDGE_CURVE('',#316,#318,#172,.T.);
#386=EDGE_CURVE('',#319,#318,#173,.T.);
#387=EDGE_CURVE('',#319,#320,#140,.T.);
#388=EDGE_CURVE('',#320,#321,#174,.T.);
#389=EDGE_CURVE('',#322,#321,#175,.T.);
#390=EDGE_CURVE('',#317,#322,#176,.T.);
#391=EDGE_CURVE('',#323,#324,#177,.T.);
#392=EDGE_CURVE('',#323,#319,#178,.T.);
#393=EDGE_CURVE('',#318,#325,#141,.T.);
#394=EDGE_CURVE('',#324,#325,#179,.T.);
#395=EDGE_CURVE('',#326,#327,#142,.T.);
#396=EDGE_CURVE('',#328,#326,#180,.T.);
#397=EDGE_CURVE('',#329,#328,#143,.T.);
#398=EDGE_CURVE('',#327,#329,#181,.T.);
#399=EDGE_CURVE('',#330,#331,#144,.T.);
#400=EDGE_CURVE('',#332,#330,#182,.T.);
#401=EDGE_CURVE('',#333,#332,#145,.T.);
#402=EDGE_CURVE('',#331,#333,#183,.T.);
#403=EDGE_CURVE('',#334,#335,#146,.T.);
#404=EDGE_CURVE('',#336,#334,#184,.T.);
#405=EDGE_CURVE('',#337,#336,#147,.T.);
#406=EDGE_CURVE('',#335,#337,#185,.T.);
#407=EDGE_CURVE('',#338,#339,#186,.T.);
#408=EDGE_CURVE('',#338,#323,#187,.T.);
#409=EDGE_CURVE('',#339,#324,#188,.T.);
#410=EDGE_CURVE('',#340,#341,#189,.T.);
#411=EDGE_CURVE('',#340,#338,#190,.T.);
#412=EDGE_CURVE('',#339,#341,#191,.T.);
#413=EDGE_CURVE('',#342,#343,#192,.T.);
#414=EDGE_CURVE('',#343,#344,#148,.T.);
#415=EDGE_CURVE('',#344,#345,#193,.T.);
#416=EDGE_CURVE('',#345,#342,#149,.T.);
#417=EDGE_CURVE('',#346,#341,#194,.T.);
#418=EDGE_CURVE('',#346,#347,#150,.T.);
#419=EDGE_CURVE('',#348,#347,#195,.T.);
#420=EDGE_CURVE('',#349,#348,#196,.T.);
#421=EDGE_CURVE('',#349,#350,#197,.T.);
#422=EDGE_CURVE('',#350,#351,#198,.T.);
#423=EDGE_CURVE('',#351,#340,#151,.T.);
#424=EDGE_CURVE('',#347,#352,#199,.T.);
#425=EDGE_CURVE('',#353,#352,#200,.T.);
#426=EDGE_CURVE('',#348,#353,#201,.T.);
#427=EDGE_CURVE('',#354,#355,#152,.T.);
#428=EDGE_CURVE('',#356,#354,#202,.T.);
#429=EDGE_CURVE('',#357,#356,#153,.T.);
#430=EDGE_CURVE('',#355,#357,#203,.T.);
#431=EDGE_CURVE('',#352,#358,#154,.T.);
#432=EDGE_CURVE('',#359,#358,#204,.T.);
#433=EDGE_CURVE('',#353,#359,#155,.T.);
#434=EDGE_CURVE('',#358,#360,#205,.T.);
#435=EDGE_CURVE('',#361,#360,#206,.T.);
#436=EDGE_CURVE('',#359,#361,#207,.T.);
#437=EDGE_CURVE('',#360,#362,#156,.T.);
#438=EDGE_CURVE('',#363,#362,#208,.T.);
#439=EDGE_CURVE('',#361,#363,#157,.T.);
#440=EDGE_CURVE('',#362,#315,#209,.T.);
#441=EDGE_CURVE('',#363,#314,#210,.T.);
#442=EDGE_CURVE('',#364,#365,#158,.T.);
#443=EDGE_CURVE('',#366,#364,#211,.T.);
#444=EDGE_CURVE('',#367,#366,#159,.T.);
#445=EDGE_CURVE('',#365,#367,#212,.T.);
#446=EDGE_CURVE('',#368,#369,#160,.T.);
#447=EDGE_CURVE('',#370,#368,#213,.T.);
#448=EDGE_CURVE('',#371,#370,#161,.T.);
#449=EDGE_CURVE('',#369,#371,#214,.T.);
#450=EDGE_CURVE('',#372,#373,#162,.T.);
#451=EDGE_CURVE('',#374,#372,#215,.T.);
#452=EDGE_CURVE('',#375,#374,#163,.T.);
#453=EDGE_CURVE('',#373,#375,#216,.T.);
#454=EDGE_CURVE('',#325,#376,#217,.T.);
#455=EDGE_CURVE('',#376,#377,#218,.T.);
#456=EDGE_CURVE('',#377,#378,#219,.T.);
#457=EDGE_CURVE('',#378,#346,#220,.T.);
#458=EDGE_CURVE('',#321,#350,#221,.T.);
#459=EDGE_CURVE('',#322,#349,#222,.T.);
#460=EDGE_CURVE('',#379,#380,#223,.T.);
#461=EDGE_CURVE('',#380,#351,#224,.T.);
#462=EDGE_CURVE('',#320,#379,#225,.T.);
#463=EDGE_CURVE('',#352,#378,#164,.T.);
#464=EDGE_CURVE('',#358,#378,#165,.T.);
#465=EDGE_CURVE('',#360,#377,#166,.T.);
#466=EDGE_CURVE('',#362,#377,#167,.T.);
#467=EDGE_CURVE('',#315,#376,#168,.T.);
#468=EDGE_CURVE('',#316,#376,#169,.T.);
#469=EDGE_CURVE('',#335,#372,#226,.T.);
#470=EDGE_CURVE('',#334,#373,#227,.T.);
#471=EDGE_CURVE('',#337,#374,#228,.T.);
#472=EDGE_CURVE('',#336,#375,#229,.T.);
#473=EDGE_CURVE('',#331,#368,#230,.T.);
#474=EDGE_CURVE('',#330,#369,#231,.T.);
#475=EDGE_CURVE('',#333,#370,#232,.T.);
#476=EDGE_CURVE('',#332,#371,#233,.T.);
#477=EDGE_CURVE('',#327,#364,#234,.T.);
#478=EDGE_CURVE('',#326,#365,#235,.T.);
#479=EDGE_CURVE('',#329,#366,#236,.T.);
#480=EDGE_CURVE('',#328,#367,#237,.T.);
#481=EDGE_CURVE('',#343,#354,#238,.T.);
#482=EDGE_CURVE('',#344,#355,#239,.T.);
#483=EDGE_CURVE('',#342,#356,#240,.T.);
#484=EDGE_CURVE('',#345,#357,#241,.T.);
#485=EDGE_CURVE('',#379,#323,#15,.T.);
#486=EDGE_CURVE('',#380,#338,#16,.T.);
#487=ORIENTED_EDGE('',*,*,#381,.T.);
#488=ORIENTED_EDGE('',*,*,#382,.T.);
#489=ORIENTED_EDGE('',*,*,#383,.F.);
#490=ORIENTED_EDGE('',*,*,#384,.F.);
#491=ORIENTED_EDGE('',*,*,#383,.T.);
#492=ORIENTED_EDGE('',*,*,#385,.T.);
#493=ORIENTED_EDGE('',*,*,#386,.F.);
#494=ORIENTED_EDGE('',*,*,#387,.T.);
#495=ORIENTED_EDGE('',*,*,#388,.T.);
#496=ORIENTED_EDGE('',*,*,#389,.F.);
#497=ORIENTED_EDGE('',*,*,#390,.F.);
#498=ORIENTED_EDGE('',*,*,#391,.F.);
#499=ORIENTED_EDGE('',*,*,#392,.T.);
#500=ORIENTED_EDGE('',*,*,#386,.T.);
#501=ORIENTED_EDGE('',*,*,#393,.T.);
#502=ORIENTED_EDGE('',*,*,#394,.F.);
#503=ORIENTED_EDGE('',*,*,#395,.F.);
#504=ORIENTED_EDGE('',*,*,#396,.F.);
#505=ORIENTED_EDGE('',*,*,#397,.F.);
#506=ORIENTED_EDGE('',*,*,#398,.F.);
#507=ORIENTED_EDGE('',*,*,#399,.F.);
#508=ORIENTED_EDGE('',*,*,#400,.F.);
#509=ORIENTED_EDGE('',*,*,#401,.F.);
#510=ORIENTED_EDGE('',*,*,#402,.F.);
#511=ORIENTED_EDGE('',*,*,#403,.F.);
#512=ORIENTED_EDGE('',*,*,#404,.F.);
#513=ORIENTED_EDGE('',*,*,#405,.F.);
#514=ORIENTED_EDGE('',*,*,#406,.F.);
#515=ORIENTED_EDGE('',*,*,#407,.F.);
#516=ORIENTED_EDGE('',*,*,#408,.T.);
#517=ORIENTED_EDGE('',*,*,#391,.T.);
#518=ORIENTED_EDGE('',*,*,#409,.F.);
#519=ORIENTED_EDGE('',*,*,#410,.F.);
#520=ORIENTED_EDGE('',*,*,#411,.T.);
#521=ORIENTED_EDGE('',*,*,#407,.T.);
#522=ORIENTED_EDGE('',*,*,#412,.T.);
#523=ORIENTED_EDGE('',*,*,#413,.T.);
#524=ORIENTED_EDGE('',*,*,#414,.T.);
#525=ORIENTED_EDGE('',*,*,#415,.T.);
#526=ORIENTED_EDGE('',*,*,#416,.T.);
#527=ORIENTED_EDGE('',*,*,#417,.F.);
#528=ORIENTED_EDGE('',*,*,#418,.T.);
#529=ORIENTED_EDGE('',*,*,#419,.F.);
#530=ORIENTED_EDGE('',*,*,#420,.F.);
#531=ORIENTED_EDGE('',*,*,#421,.T.);
#532=ORIENTED_EDGE('',*,*,#422,.T.);
#533=ORIENTED_EDGE('',*,*,#423,.T.);
#534=ORIENTED_EDGE('',*,*,#410,.T.);
#535=ORIENTED_EDGE('',*,*,#419,.T.);
#536=ORIENTED_EDGE('',*,*,#424,.T.);
#537=ORIENTED_EDGE('',*,*,#425,.F.);
#538=ORIENTED_EDGE('',*,*,#426,.F.);
#539=ORIENTED_EDGE('',*,*,#427,.F.);
#540=ORIENTED_EDGE('',*,*,#428,.F.);
#541=ORIENTED_EDGE('',*,*,#429,.F.);
#542=ORIENTED_EDGE('',*,*,#430,.F.);
#543=ORIENTED_EDGE('',*,*,#425,.T.);
#544=ORIENTED_EDGE('',*,*,#431,.T.);
#545=ORIENTED_EDGE('',*,*,#432,.F.);
#546=ORIENTED_EDGE('',*,*,#433,.F.);
#547=ORIENTED_EDGE('',*,*,#432,.T.);
#548=ORIENTED_EDGE('',*,*,#434,.T.);
#549=ORIENTED_EDGE('',*,*,#435,.F.);
#550=ORIENTED_EDGE('',*,*,#436,.F.);
#551=ORIENTED_EDGE('',*,*,#435,.T.);
#552=ORIENTED_EDGE('',*,*,#437,.T.);
#553=ORIENTED_EDGE('',*,*,#438,.F.);
#554=ORIENTED_EDGE('',*,*,#439,.F.);
#555=ORIENTED_EDGE('',*,*,#438,.T.);
#556=ORIENTED_EDGE('',*,*,#440,.T.);
#557=ORIENTED_EDGE('',*,*,#381,.F.);
#558=ORIENTED_EDGE('',*,*,#441,.F.);
#559=ORIENTED_EDGE('',*,*,#442,.F.);
#560=ORIENTED_EDGE('',*,*,#443,.F.);
#561=ORIENTED_EDGE('',*,*,#444,.F.);
#562=ORIENTED_EDGE('',*,*,#445,.F.);
#563=ORIENTED_EDGE('',*,*,#446,.F.);
#564=ORIENTED_EDGE('',*,*,#447,.F.);
#565=ORIENTED_EDGE('',*,*,#448,.F.);
#566=ORIENTED_EDGE('',*,*,#449,.F.);
#567=ORIENTED_EDGE('',*,*,#450,.F.);
#568=ORIENTED_EDGE('',*,*,#451,.F.);
#569=ORIENTED_EDGE('',*,*,#452,.F.);
#570=ORIENTED_EDGE('',*,*,#453,.F.);
#571=ORIENTED_EDGE('',*,*,#394,.T.);
#572=ORIENTED_EDGE('',*,*,#454,.T.);
#573=ORIENTED_EDGE('',*,*,#455,.T.);
#574=ORIENTED_EDGE('',*,*,#456,.T.);
#575=ORIENTED_EDGE('',*,*,#457,.T.);
#576=ORIENTED_EDGE('',*,*,#417,.T.);
#577=ORIENTED_EDGE('',*,*,#412,.F.);
#578=ORIENTED_EDGE('',*,*,#409,.T.);
#579=ORIENTED_EDGE('',*,*,#458,.T.);
#580=ORIENTED_EDGE('',*,*,#421,.F.);
#581=ORIENTED_EDGE('',*,*,#459,.F.);
#582=ORIENTED_EDGE('',*,*,#389,.T.);
#583=ORIENTED_EDGE('',*,*,#384,.T.);
#584=ORIENTED_EDGE('',*,*,#390,.T.);
#585=ORIENTED_EDGE('',*,*,#459,.T.);
#586=ORIENTED_EDGE('',*,*,#420,.T.);
#587=ORIENTED_EDGE('',*,*,#426,.T.);
#588=ORIENTED_EDGE('',*,*,#433,.T.);
#589=ORIENTED_EDGE('',*,*,#436,.T.);
#590=ORIENTED_EDGE('',*,*,#439,.T.);
#591=ORIENTED_EDGE('',*,*,#441,.T.);
#592=ORIENTED_EDGE('',*,*,#460,.T.);
#593=ORIENTED_EDGE('',*,*,#461,.T.);
#594=ORIENTED_EDGE('',*,*,#422,.F.);
#595=ORIENTED_EDGE('',*,*,#458,.F.);
#596=ORIENTED_EDGE('',*,*,#388,.F.);
#597=ORIENTED_EDGE('',*,*,#462,.T.);
#598=ORIENTED_EDGE('',*,*,#463,.F.);
#599=ORIENTED_EDGE('',*,*,#424,.F.);
#600=ORIENTED_EDGE('',*,*,#418,.F.);
#601=ORIENTED_EDGE('',*,*,#457,.F.);
#602=ORIENTED_EDGE('',*,*,#431,.F.);
#603=ORIENTED_EDGE('',*,*,#463,.T.);
#604=ORIENTED_EDGE('',*,*,#464,.F.);
#605=ORIENTED_EDGE('',*,*,#465,.F.);
#606=ORIENTED_EDGE('',*,*,#434,.F.);
#607=ORIENTED_EDGE('',*,*,#464,.T.);
#608=ORIENTED_EDGE('',*,*,#456,.F.);
#609=ORIENTED_EDGE('',*,*,#437,.F.);
#610=ORIENTED_EDGE('',*,*,#465,.T.);
#611=ORIENTED_EDGE('',*,*,#466,.F.);
#612=ORIENTED_EDGE('',*,*,#467,.F.);
#613=ORIENTED_EDGE('',*,*,#440,.F.);
#614=ORIENTED_EDGE('',*,*,#466,.T.);
#615=ORIENTED_EDGE('',*,*,#455,.F.);
#616=ORIENTED_EDGE('',*,*,#382,.F.);
#617=ORIENTED_EDGE('',*,*,#467,.T.);
#618=ORIENTED_EDGE('',*,*,#468,.F.);
#619=ORIENTED_EDGE('',*,*,#393,.F.);
#620=ORIENTED_EDGE('',*,*,#385,.F.);
#621=ORIENTED_EDGE('',*,*,#468,.T.);
#622=ORIENTED_EDGE('',*,*,#454,.F.);
#623=ORIENTED_EDGE('',*,*,#403,.T.);
#624=ORIENTED_EDGE('',*,*,#469,.T.);
#625=ORIENTED_EDGE('',*,*,#450,.T.);
#626=ORIENTED_EDGE('',*,*,#470,.F.);
#627=ORIENTED_EDGE('',*,*,#406,.T.);
#628=ORIENTED_EDGE('',*,*,#471,.T.);
#629=ORIENTED_EDGE('',*,*,#451,.T.);
#630=ORIENTED_EDGE('',*,*,#469,.F.);
#631=ORIENTED_EDGE('',*,*,#405,.T.);
#632=ORIENTED_EDGE('',*,*,#472,.T.);
#633=ORIENTED_EDGE('',*,*,#452,.T.);
#634=ORIENTED_EDGE('',*,*,#471,.F.);
#635=ORIENTED_EDGE('',*,*,#404,.T.);
#636=ORIENTED_EDGE('',*,*,#470,.T.);
#637=ORIENTED_EDGE('',*,*,#453,.T.);
#638=ORIENTED_EDGE('',*,*,#472,.F.);
#639=ORIENTED_EDGE('',*,*,#399,.T.);
#640=ORIENTED_EDGE('',*,*,#473,.T.);
#641=ORIENTED_EDGE('',*,*,#446,.T.);
#642=ORIENTED_EDGE('',*,*,#474,.F.);
#643=ORIENTED_EDGE('',*,*,#402,.T.);
#644=ORIENTED_EDGE('',*,*,#475,.T.);
#645=ORIENTED_EDGE('',*,*,#447,.T.);
#646=ORIENTED_EDGE('',*,*,#473,.F.);
#647=ORIENTED_EDGE('',*,*,#401,.T.);
#648=ORIENTED_EDGE('',*,*,#476,.T.);
#649=ORIENTED_EDGE('',*,*,#448,.T.);
#650=ORIENTED_EDGE('',*,*,#475,.F.);
#651=ORIENTED_EDGE('',*,*,#400,.T.);
#652=ORIENTED_EDGE('',*,*,#474,.T.);
#653=ORIENTED_EDGE('',*,*,#449,.T.);
#654=ORIENTED_EDGE('',*,*,#476,.F.);
#655=ORIENTED_EDGE('',*,*,#395,.T.);
#656=ORIENTED_EDGE('',*,*,#477,.T.);
#657=ORIENTED_EDGE('',*,*,#442,.T.);
#658=ORIENTED_EDGE('',*,*,#478,.F.);
#659=ORIENTED_EDGE('',*,*,#398,.T.);
#660=ORIENTED_EDGE('',*,*,#479,.T.);
#661=ORIENTED_EDGE('',*,*,#443,.T.);
#662=ORIENTED_EDGE('',*,*,#477,.F.);
#663=ORIENTED_EDGE('',*,*,#397,.T.);
#664=ORIENTED_EDGE('',*,*,#480,.T.);
#665=ORIENTED_EDGE('',*,*,#444,.T.);
#666=ORIENTED_EDGE('',*,*,#479,.F.);
#667=ORIENTED_EDGE('',*,*,#396,.T.);
#668=ORIENTED_EDGE('',*,*,#478,.T.);
#669=ORIENTED_EDGE('',*,*,#445,.T.);
#670=ORIENTED_EDGE('',*,*,#480,.F.);
#671=ORIENTED_EDGE('',*,*,#481,.T.);
#672=ORIENTED_EDGE('',*,*,#427,.T.);
#673=ORIENTED_EDGE('',*,*,#482,.F.);
#674=ORIENTED_EDGE('',*,*,#414,.F.);
#675=ORIENTED_EDGE('',*,*,#483,.T.);
#676=ORIENTED_EDGE('',*,*,#428,.T.);
#677=ORIENTED_EDGE('',*,*,#481,.F.);
#678=ORIENTED_EDGE('',*,*,#413,.F.);
#679=ORIENTED_EDGE('',*,*,#484,.T.);
#680=ORIENTED_EDGE('',*,*,#429,.T.);
#681=ORIENTED_EDGE('',*,*,#483,.F.);
#682=ORIENTED_EDGE('',*,*,#416,.F.);
#683=ORIENTED_EDGE('',*,*,#482,.T.);
#684=ORIENTED_EDGE('',*,*,#430,.T.);
#685=ORIENTED_EDGE('',*,*,#484,.F.);
#686=ORIENTED_EDGE('',*,*,#415,.F.);
#687=ORIENTED_EDGE('',*,*,#387,.F.);
#688=ORIENTED_EDGE('',*,*,#392,.F.);
#689=ORIENTED_EDGE('',*,*,#485,.F.);
#690=ORIENTED_EDGE('',*,*,#462,.F.);
#691=ORIENTED_EDGE('',*,*,#485,.T.);
#692=ORIENTED_EDGE('',*,*,#408,.F.);
#693=ORIENTED_EDGE('',*,*,#486,.F.);
#694=ORIENTED_EDGE('',*,*,#460,.F.);
#695=ORIENTED_EDGE('',*,*,#486,.T.);
#696=ORIENTED_EDGE('',*,*,#411,.F.);
#697=ORIENTED_EDGE('',*,*,#423,.F.);
#698=ORIENTED_EDGE('',*,*,#461,.F.);
#699=CYLINDRICAL_SURFACE('',#772,3.);
#700=CYLINDRICAL_SURFACE('',#795,3.);
#701=CYLINDRICAL_SURFACE('',#799,3.);
#702=CYLINDRICAL_SURFACE('',#813,3.);
#703=CYLINDRICAL_SURFACE('',#817,2.99999999999999);
#704=CYLINDRICAL_SURFACE('',#821,3.);
#705=CYLINDRICAL_SURFACE('',#825,3.);
#706=CYLINDRICAL_SURFACE('',#826,4.5);
#707=CYLINDRICAL_SURFACE('',#828,4.5);
#708=CYLINDRICAL_SURFACE('',#830,4.5);
#709=CYLINDRICAL_SURFACE('',#832,4.5);
#710=CYLINDRICAL_SURFACE('',#834,4.5);
#711=CYLINDRICAL_SURFACE('',#836,4.5);
#712=CYLINDRICAL_SURFACE('',#838,4.5);
#713=CYLINDRICAL_SURFACE('',#840,4.5);
#714=CYLINDRICAL_SURFACE('',#842,3.);
#715=CYLINDRICAL_SURFACE('',#844,3.00000000001178);
#716=CYLINDRICAL_SURFACE('',#846,3.);
#717=ADVANCED_FACE('',(#48),#699,.T.);
#718=ADVANCED_FACE('',(#49),#28,.T.);
#719=ADVANCED_FACE('',(#50,#20,#21,#22),#29,.T.);
#720=ADVANCED_FACE('',(#51),#30,.T.);
#721=ADVANCED_FACE('',(#52,#23),#31,.F.);
#722=ADVANCED_FACE('',(#53),#32,.T.);
#723=ADVANCED_FACE('',(#54,#24),#33,.T.);
#724=ADVANCED_FACE('',(#55),#700,.T.);
#725=ADVANCED_FACE('',(#56),#34,.T.);
#726=ADVANCED_FACE('',(#57),#701,.T.);
#727=ADVANCED_FACE('',(#58,#25,#26,#27),#35,.T.);
#728=ADVANCED_FACE('',(#59),#36,.T.);
#729=ADVANCED_FACE('',(#60),#37,.F.);
#730=ADVANCED_FACE('',(#61),#38,.T.);
#731=ADVANCED_FACE('',(#62),#39,.F.);
#732=ADVANCED_FACE('',(#63),#702,.T.);
#733=ADVANCED_FACE('',(#64),#17,.T.);
#734=ADVANCED_FACE('',(#65),#703,.T.);
#735=ADVANCED_FACE('',(#66),#18,.T.);
#736=ADVANCED_FACE('',(#67),#704,.T.);
#737=ADVANCED_FACE('',(#68),#19,.T.);
#738=ADVANCED_FACE('',(#69),#705,.T.);
#739=ADVANCED_FACE('',(#70),#706,.F.);
#740=ADVANCED_FACE('',(#71),#40,.F.);
#741=ADVANCED_FACE('',(#72),#707,.F.);
#742=ADVANCED_FACE('',(#73),#41,.F.);
#743=ADVANCED_FACE('',(#74),#708,.F.);
#744=ADVANCED_FACE('',(#75),#42,.F.);
#745=ADVANCED_FACE('',(#76),#709,.F.);
#746=ADVANCED_FACE('',(#77),#43,.F.);
#747=ADVANCED_FACE('',(#78),#710,.F.);
#748=ADVANCED_FACE('',(#79),#44,.F.);
#749=ADVANCED_FACE('',(#80),#711,.F.);
#750=ADVANCED_FACE('',(#81),#45,.F.);
#751=ADVANCED_FACE('',(#82),#712,.F.);
#752=ADVANCED_FACE('',(#83),#46,.F.);
#753=ADVANCED_FACE('',(#84),#713,.F.);
#754=ADVANCED_FACE('',(#85),#47,.F.);
#755=ADVANCED_FACE('',(#86),#714,.F.);
#756=ADVANCED_FACE('',(#87),#715,.F.);
#757=ADVANCED_FACE('',(#88),#716,.F.);
#758=CLOSED_SHELL('',(#717,#718,#719,#720,#721,#722,#723,#724,#725,#726,
#727,#728,#729,#730,#731,#732,#733,#734,#735,#736,#737,#738,#739,#740,#741,
#742,#743,#744,#745,#746,#747,#748,#749,#750,#751,#752,#753,#754,#755,#756,
#757));
#759=DERIVED_UNIT_ELEMENT(#761,1.);
#760=DERIVED_UNIT_ELEMENT(#1291,-3.);
#761=(
MASS_UNIT()
NAMED_UNIT(*)
SI_UNIT(.KILO.,.GRAM.)
);
#762=DERIVED_UNIT((#759,#760));
#763=MEASURE_REPRESENTATION_ITEM('density measure',
POSITIVE_RATIO_MEASURE(7850.),#762);
#764=PROPERTY_DEFINITION_REPRESENTATION(#769,#766);
#765=PROPERTY_DEFINITION_REPRESENTATION(#770,#767);
#766=REPRESENTATION('material name',(#768),#1288);
#767=REPRESENTATION('density',(#763),#1288);
#768=DESCRIPTIVE_REPRESENTATION_ITEM('Steel','Steel');
#769=PROPERTY_DEFINITION('material property','material name',#1298);
#770=PROPERTY_DEFINITION('material property','density of part',#1298);
#771=AXIS2_PLACEMENT_3D('placement',#1071,#847,#848);
#772=AXIS2_PLACEMENT_3D('',#1072,#849,#850);
#773=AXIS2_PLACEMENT_3D('',#1077,#852,#853);
#774=AXIS2_PLACEMENT_3D('',#1080,#855,#856);
#775=AXIS2_PLACEMENT_3D('',#1081,#857,#858);
#776=AXIS2_PLACEMENT_3D('',#1087,#861,#862);
#777=AXIS2_PLACEMENT_3D('',#1093,#866,#867);
#778=AXIS2_PLACEMENT_3D('',#1099,#870,#871);
#779=AXIS2_PLACEMENT_3D('',#1103,#873,#874);
#780=AXIS2_PLACEMENT_3D('',#1107,#876,#877);
#781=AXIS2_PLACEMENT_3D('',#1111,#879,#880);
#782=AXIS2_PLACEMENT_3D('',#1115,#882,#883);
#783=AXIS2_PLACEMENT_3D('',#1119,#885,#886);
#784=AXIS2_PLACEMENT_3D('',#1123,#888,#889);
#785=AXIS2_PLACEMENT_3D('',#1125,#891,#892);
#786=AXIS2_PLACEMENT_3D('',#1131,#896,#897);
#787=AXIS2_PLACEMENT_3D('',#1141,#902,#903);
#788=AXIS2_PLACEMENT_3D('',#1144,#905,#906);
#789=AXIS2_PLACEMENT_3D('',#1145,#907,#908);
#790=AXIS2_PLACEMENT_3D('',#1149,#910,#911);
#791=AXIS2_PLACEMENT_3D('',#1158,#916,#917);
#792=AXIS2_PLACEMENT_3D('',#1159,#918,#919);
#793=AXIS2_PLACEMENT_3D('',#1167,#923,#924);
#794=AXIS2_PLACEMENT_3D('',#1171,#926,#927);
#795=AXIS2_PLACEMENT_3D('',#1173,#929,#930);
#796=AXIS2_PLACEMENT_3D('',#1175,#931,#932);
#797=AXIS2_PLACEMENT_3D('',#1178,#934,#935);
#798=AXIS2_PLACEMENT_3D('',#1179,#936,#937);
#799=AXIS2_PLACEMENT_3D('',#1185,#941,#942);
#800=AXIS2_PLACEMENT_3D('',#1187,#943,#944);
#801=AXIS2_PLACEMENT_3D('',#1190,#946,#947);
#802=AXIS2_PLACEMENT_3D('',#1191,#948,#949);
#803=AXIS2_PLACEMENT_3D('',#1196,#952,#953);
#804=AXIS2_PLACEMENT_3D('',#1200,#955,#956);
#805=AXIS2_PLACEMENT_3D('',#1204,#958,#959);
#806=AXIS2_PLACEMENT_3D('',#1208,#961,#962);
#807=AXIS2_PLACEMENT_3D('',#1212,#964,#965);
#808=AXIS2_PLACEMENT_3D('',#1216,#967,#968);
#809=AXIS2_PLACEMENT_3D('',#1218,#970,#971);
#810=AXIS2_PLACEMENT_3D('',#1226,#976,#977);
#811=AXIS2_PLACEMENT_3D('',#1229,#980,#981);
#812=AXIS2_PLACEMENT_3D('',#1230,#982,#983);
#813=AXIS2_PLACEMENT_3D('',#1236,#987,#988);
#814=AXIS2_PLACEMENT_3D('',#1237,#989,#990);
#815=AXIS2_PLACEMENT_3D('',#1238,#991,#992);
#816=AXIS2_PLACEMENT_3D('',#1239,#993,#994);
#817=AXIS2_PLACEMENT_3D('',#1240,#995,#996);
#818=AXIS2_PLACEMENT_3D('',#1241,#997,#998);
#819=AXIS2_PLACEMENT_3D('',#1242,#999,#1000);
#820=AXIS2_PLACEMENT_3D('',#1243,#1001,#1002);
#821=AXIS2_PLACEMENT_3D('',#1244,#1003,#1004);
#822=AXIS2_PLACEMENT_3D('',#1245,#1005,#1006);
#823=AXIS2_PLACEMENT_3D('',#1246,#1007,#1008);
#824=AXIS2_PLACEMENT_3D('',#1247,#1009,#1010);
#825=AXIS2_PLACEMENT_3D('',#1248,#1011,#1012);
#826=AXIS2_PLACEMENT_3D('',#1249,#1013,#1014);
#827=AXIS2_PLACEMENT_3D('',#1252,#1017,#1018);
#828=AXIS2_PLACEMENT_3D('',#1254,#1020,#1021);
#829=AXIS2_PLACEMENT_3D('',#1256,#1023,#1024);
#830=AXIS2_PLACEMENT_3D('',#1257,#1025,#1026);
#831=AXIS2_PLACEMENT_3D('',#1260,#1029,#1030);
#832=AXIS2_PLACEMENT_3D('',#1262,#1032,#1033);
#833=AXIS2_PLACEMENT_3D('',#1264,#1035,#1036);
#834=AXIS2_PLACEMENT_3D('',#1265,#1037,#1038);
#835=AXIS2_PLACEMENT_3D('',#1268,#1041,#1042);
#836=AXIS2_PLACEMENT_3D('',#1270,#1044,#1045);
#837=AXIS2_PLACEMENT_3D('',#1272,#1047,#1048);
#838=AXIS2_PLACEMENT_3D('',#1273,#1049,#1050);
#839=AXIS2_PLACEMENT_3D('',#1276,#1053,#1054);
#840=AXIS2_PLACEMENT_3D('',#1278,#1056,#1057);
#841=AXIS2_PLACEMENT_3D('',#1280,#1059,#1060);
#842=AXIS2_PLACEMENT_3D('',#1281,#1061,#1062);
#843=AXIS2_PLACEMENT_3D('',#1282,#1063,#1064);
#844=AXIS2_PLACEMENT_3D('',#1283,#1065,#1066);
#845=AXIS2_PLACEMENT_3D('',#1284,#1067,#1068);
#846=AXIS2_PLACEMENT_3D('',#1285,#1069,#1070);
#847=DIRECTION('axis',(0.,0.,1.));
#848=DIRECTION('refdir',(1.,0.,0.));
#849=DIRECTION('center_axis',(0.,0.,1.));
#850=DIRECTION('ref_axis',(1.,0.,0.));
#851=DIRECTION('',(0.,0.,1.));
#852=DIRECTION('center_axis',(0.,0.,-1.));
#853=DIRECTION('ref_axis',(1.,0.,0.));
#854=DIRECTION('',(0.,0.,1.));
#855=DIRECTION('center_axis',(0.,0.,-1.));
#856=DIRECTION('ref_axis',(-1.,0.,0.));
#857=DIRECTION('center_axis',(1.,0.,0.));
#858=DIRECTION('ref_axis',(0.,0.,-1.));
#859=DIRECTION('',(0.,-1.,0.));
#860=DIRECTION('',(0.,0.,1.));
#861=DIRECTION('center_axis',(-1.,0.,0.));
#862=DIRECTION('ref_axis',(0.,0.,-1.));
#863=DIRECTION('',(-3.46944695194477E-12,-1.,0.));
#864=DIRECTION('',(0.,0.,1.));
#865=DIRECTION('',(2.11497486196094E-11,-1.,0.));
#866=DIRECTION('center_axis',(0.,-1.,0.));
#867=DIRECTION('ref_axis',(0.,0.,-1.));
#868=DIRECTION('',(0.,0.,1.));
#869=DIRECTION('',(1.,0.,0.));
#870=DIRECTION('center_axis',(0.,-1.,0.));
#871=DIRECTION('ref_axis',(0.,0.,-1.));
#872=DIRECTION('',(1.,0.,0.));
#873=DIRECTION('center_axis',(0.,-1.,0.));
#874=DIRECTION('ref_axis',(0.,0.,-1.));
#875=DIRECTION('',(-1.,0.,0.));
#876=DIRECTION('center_axis',(0.,-1.,0.));
#877=DIRECTION('ref_axis',(0.,0.,-1.));
#878=DIRECTION('',(1.,0.,0.));
#879=DIRECTION('center_axis',(0.,-1.,0.));
#880=DIRECTION('ref_axis',(0.,0.,-1.));
#881=DIRECTION('',(-1.,0.,0.));
#882=DIRECTION('center_axis',(0.,-1.,0.));
#883=DIRECTION('ref_axis',(0.,0.,-1.));
#884=DIRECTION('',(1.,0.,0.));
#885=DIRECTION('center_axis',(0.,-1.,0.));
#886=DIRECTION('ref_axis',(0.,0.,-1.));
#887=DIRECTION('',(-1.,0.,0.));
#888=DIRECTION('center_axis',(0.,-1.,0.));
#889=DIRECTION('ref_axis',(0.,0.,-1.));
#890=DIRECTION('',(1.,0.,0.));
#891=DIRECTION('center_axis',(0.480683402802884,-0.876894216122926,0.));
#892=DIRECTION('ref_axis',(0.876894216122926,0.480683402802884,0.));
#893=DIRECTION('',(0.,0.,1.));
#894=DIRECTION('',(0.876894216122926,0.480683402802883,0.));
#895=DIRECTION('',(0.876894216122926,0.480683402802884,0.));
#896=DIRECTION('center_axis',(-1.,0.,0.));
#897=DIRECTION('ref_axis',(0.,0.,1.));
#898=DIRECTION('',(0.,0.,1.));
#899=DIRECTION('',(0.,1.,0.));
#900=DIRECTION('',(0.,-1.,0.));
#901=DIRECTION('',(0.,1.,-2.31296463463574E-16));
#902=DIRECTION('center_axis',(-1.,0.,0.));
#903=DIRECTION('ref_axis',(0.,0.,1.));
#904=DIRECTION('',(0.,-1.,0.));
#905=DIRECTION('center_axis',(-1.,0.,0.));
#906=DIRECTION('ref_axis',(0.,0.,1.));
#907=DIRECTION('center_axis',(0.,-1.,0.));
#908=DIRECTION('ref_axis',(0.,0.,-1.));
#909=DIRECTION('',(1.,0.,0.));
#910=DIRECTION('center_axis',(0.,-1.,0.));
#911=DIRECTION('ref_axis',(0.,0.,-1.));
#912=DIRECTION('',(0.,0.,1.));
#913=DIRECTION('',(-1.,1.24753279909958E-16,0.));
#914=DIRECTION('',(0.,0.,1.));
#915=DIRECTION('',(-1.,0.,0.));
#916=DIRECTION('center_axis',(0.,1.,0.));
#917=DIRECTION('ref_axis',(0.,0.,-1.));
#918=DIRECTION('center_axis',(-1.,0.,0.));
#919=DIRECTION('ref_axis',(0.,0.,1.));
#920=DIRECTION('',(0.,1.,0.));
#921=DIRECTION('',(0.,0.,1.));
#922=DIRECTION('',(0.,1.,0.));
#923=DIRECTION('center_axis',(-1.,0.,0.));
#924=DIRECTION('ref_axis',(0.,0.,1.));
#925=DIRECTION('',(0.,1.,-2.31296463463574E-16));
#926=DIRECTION('center_axis',(-1.,0.,0.));
#927=DIRECTION('ref_axis',(0.,0.,1.));
#928=DIRECTION('',(0.,-1.,0.));
#929=DIRECTION('center_axis',(0.,0.,1.));
#930=DIRECTION('ref_axis',(1.,0.,0.));
#931=DIRECTION('center_axis',(0.,0.,-1.));
#932=DIRECTION('ref_axis',(1.,4.62592926927148E-15,0.));
#933=DIRECTION('',(0.,0.,1.));
#934=DIRECTION('center_axis',(0.,0.,-1.));
#935=DIRECTION('ref_axis',(-1.,0.,0.));
#936=DIRECTION('center_axis',(-0.480683402802883,0.876894216122926,0.));
#937=DIRECTION('ref_axis',(-0.876894216122926,-0.480683402802883,0.));
#938=DIRECTION('',(0.876894216122926,0.480683402802883,0.));
#939=DIRECTION('',(0.,0.,1.));
#940=DIRECTION('',(0.876894216122752,0.480683402803201,0.));
#941=DIRECTION('center_axis',(0.,0.,1.));
#942=DIRECTION('ref_axis',(1.,0.,0.));
#943=DIRECTION('center_axis',(0.,0.,-1.));
#944=DIRECTION('ref_axis',(1.,-9.25185853854296E-15,0.));
#945=DIRECTION('',(0.,0.,1.));
#946=DIRECTION('center_axis',(0.,0.,-1.));
#947=DIRECTION('ref_axis',(-1.,0.,0.));
#948=DIRECTION('center_axis',(0.,1.,0.));
#949=DIRECTION('ref_axis',(0.,0.,1.));
#950=DIRECTION('',(1.,0.,0.));
#951=DIRECTION('',(1.,-1.31337187025301E-13,0.));
#952=DIRECTION('center_axis',(0.,1.,0.));
#953=DIRECTION('ref_axis',(0.,0.,1.));
#954=DIRECTION('',(-1.,0.,0.));
#955=DIRECTION('center_axis',(0.,1.,0.));
#956=DIRECTION('ref_axis',(0.,0.,1.));
#957=DIRECTION('',(1.,0.,0.));
#958=DIRECTION('center_axis',(0.,1.,0.));
#959=DIRECTION('ref_axis',(0.,0.,1.));
#960=DIRECTION('',(-1.,0.,0.));
#961=DIRECTION('center_axis',(0.,1.,0.));
#962=DIRECTION('ref_axis',(0.,0.,1.));
#963=DIRECTION('',(1.,0.,0.));
#964=DIRECTION('center_axis',(0.,1.,0.));
#965=DIRECTION('ref_axis',(0.,0.,1.));
#966=DIRECTION('',(-1.,0.,0.));
#967=DIRECTION('center_axis',(0.,1.,0.));
#968=DIRECTION('ref_axis',(0.,0.,1.));
#969=DIRECTION('',(1.,0.,0.));
#970=DIRECTION('center_axis',(0.,0.,1.));
#971=DIRECTION('ref_axis',(1.,0.,0.));
#972=DIRECTION('',(0.,1.,0.));
#973=DIRECTION('',(-1.,0.,0.));
#974=DIRECTION('',(-0.876894216122926,-0.480683402802883,0.));
#975=DIRECTION('',(0.,-1.,0.));
#976=DIRECTION('center_axis',(-0.373776270851416,0.927518894334994,0.));
#977=DIRECTION('ref_axis',(-0.927518894334994,-0.373776270851416,0.));
#978=DIRECTION('',(-0.927518894334994,-0.373776270851416,0.));
#979=DIRECTION('',(-0.927518894334994,-0.373776270851416,0.));
#980=DIRECTION('center_axis',(0.,0.,-1.));
#981=DIRECTION('ref_axis',(-1.,0.,0.));
#982=DIRECTION('center_axis',(0.,0.,-1.));
#983=DIRECTION('ref_axis',(-1.,0.,0.));
#984=DIRECTION('',(-0.876894216122926,-0.480683402802883,0.));
#985=DIRECTION('',(0.,-1.,0.));
#986=DIRECTION('',(-1.,0.,0.));
#987=DIRECTION('center_axis',(0.,-1.,0.));
#988=DIRECTION('ref_axis',(0.,0.,-1.));
#989=DIRECTION('center_axis',(0.,1.,-8.55565618351761E-12));
#990=DIRECTION('ref_axis',(0.,8.55565618351761E-12,1.));
#991=DIRECTION('center_axis',(7.40148683083438E-17,1.,0.));
#992=DIRECTION('ref_axis',(1.,0.,0.));
#993=DIRECTION('center_axis',(0.876894216116537,0.480683402814539,-2.53528163774271E-16));
#994=DIRECTION('ref_axis',(-0.480683402814539,0.876894216116537,4.93038065763133E-32));
#995=DIRECTION('center_axis',(-0.876894216122926,-0.480683402802883,0.));
#996=DIRECTION('ref_axis',(0.480683402802883,-0.876894216122926,0.));
#997=DIRECTION('center_axis',(0.876894216122926,0.480683402802883,-2.37456747297995E-11));
#998=DIRECTION('ref_axis',(-0.480683402802883,0.876894216122926,0.));
#999=DIRECTION('center_axis',(0.,1.,0.));
#1000=DIRECTION('ref_axis',(1.,0.,0.));
#1001=DIRECTION('center_axis',(1.,1.5404344466674E-12,0.));
#1002=DIRECTION('ref_axis',(-1.5404344466674E-12,1.,0.));
#1003=DIRECTION('center_axis',(-1.,0.,0.));
#1004=DIRECTION('ref_axis',(0.,0.,1.));
#1005=DIRECTION('center_axis',(1.,0.,-8.48395427984391E-12));
#1006=DIRECTION('ref_axis',(-8.4839542798439E-12,0.,-1.));
#1007=DIRECTION('center_axis',(0.,1.,0.));
#1008=DIRECTION('ref_axis',(1.,0.,0.));
#1009=DIRECTION('center_axis',(-3.63598040564738E-12,-1.,0.));
#1010=DIRECTION('ref_axis',(1.,-3.63598040564738E-12,0.));
#1011=DIRECTION('center_axis',(0.,1.,0.));
#1012=DIRECTION('ref_axis',(0.,0.,1.));
#1013=DIRECTION('center_axis',(0.,1.,0.));
#1014=DIRECTION('ref_axis',(0.,0.,1.));
#1015=DIRECTION('',(0.,1.,0.));
#1016=DIRECTION('',(0.,1.,0.));
#1017=DIRECTION('center_axis',(0.,0.,-1.));
#1018=DIRECTION('ref_axis',(-1.,0.,0.));
#1019=DIRECTION('',(0.,1.,0.));
#1020=DIRECTION('center_axis',(0.,1.,0.));
#1021=DIRECTION('ref_axis',(0.,0.,1.));
#1022=DIRECTION('',(0.,1.,0.));
#1023=DIRECTION('center_axis',(0.,0.,1.));
#1024=DIRECTION('ref_axis',(1.,0.,0.));
#1025=DIRECTION('center_axis',(0.,1.,0.));
#1026=DIRECTION('ref_axis',(0.,0.,1.));
#1027=DIRECTION('',(0.,1.,0.));
#1028=DIRECTION('',(0.,1.,0.));
#1029=DIRECTION('center_axis',(0.,0.,-1.));
#1030=DIRECTION('ref_axis',(-1.,0.,0.));
#1031=DIRECTION('',(0.,1.,0.));
#1032=DIRECTION('center_axis',(0.,1.,0.));
#1033=DIRECTION('ref_axis',(0.,0.,1.));
#1034=DIRECTION('',(0.,1.,0.));
#1035=DIRECTION('center_axis',(0.,0.,1.));
#1036=DIRECTION('ref_axis',(1.,0.,0.));
#1037=DIRECTION('center_axis',(0.,1.,0.));
#1038=DIRECTION('ref_axis',(0.,0.,1.));
#1039=DIRECTION('',(0.,1.,0.));
#1040=DIRECTION('',(0.,1.,0.));
#1041=DIRECTION('center_axis',(0.,0.,-1.));
#1042=DIRECTION('ref_axis',(-1.,0.,0.));
#1043=DIRECTION('',(0.,1.,0.));
#1044=DIRECTION('center_axis',(0.,1.,0.));
#1045=DIRECTION('ref_axis',(0.,0.,1.));
#1046=DIRECTION('',(0.,1.,0.));
#1047=DIRECTION('center_axis',(0.,0.,1.));
#1048=DIRECTION('ref_axis',(1.,0.,0.));
#1049=DIRECTION('center_axis',(-1.,0.,0.));
#1050=DIRECTION('ref_axis',(0.,0.,1.));
#1051=DIRECTION('',(-1.,0.,0.));
#1052=DIRECTION('',(-1.,0.,0.));
#1053=DIRECTION('center_axis',(0.,2.31296463463574E-16,1.));
#1054=DIRECTION('ref_axis',(0.,-1.,2.31296463463574E-16));
#1055=DIRECTION('',(-1.,0.,0.));
#1056=DIRECTION('center_axis',(-1.,0.,0.));
#1057=DIRECTION('ref_axis',(0.,0.,1.));
#1058=DIRECTION('',(-1.,0.,0.));
#1059=DIRECTION('center_axis',(0.,0.,-1.));
#1060=DIRECTION('ref_axis',(-1.,0.,0.));
#1061=DIRECTION('center_axis',(1.,0.,0.));
#1062=DIRECTION('ref_axis',(0.,0.,-1.));
#1063=DIRECTION('center_axis',(0.968734797593356,0.248098552861077,3.00222640202976E-11));
#1064=DIRECTION('ref_axis',(0.248098552861077,-0.968734797593356,-2.51467546706534E-11));
#1065=DIRECTION('center_axis',(0.876894216122926,0.480683402802884,0.));
#1066=DIRECTION('ref_axis',(-0.480683402802884,0.876894216122926,0.));
#1067=DIRECTION('center_axis',(0.509566775389313,0.860431113697859,-7.29069653788337E-11));
#1068=DIRECTION('ref_axis',(0.860431113697859,-0.509566775389313,2.13052190915008E-11));
#1069=DIRECTION('center_axis',(0.,1.,0.));
#1070=DIRECTION('ref_axis',(0.,0.,1.));
#1071=CARTESIAN_POINT('',(0.,0.,0.));
#1072=CARTESIAN_POINT('Origin',(203.,87.,-42.));
#1073=CARTESIAN_POINT('',(202.999999999975,89.9999999999961,-46.));
#1074=CARTESIAN_POINT('',(202.999999999975,89.999999999975,-3.00000000000002));
#1075=CARTESIAN_POINT('',(202.999999999975,89.999999999975,-42.));
#1076=CARTESIAN_POINT('',(206.000000000017,86.9999999999891,-3.00000000000002));
#1077=CARTESIAN_POINT('Origin',(203.,87.,-3.00000000000001));
#1078=CARTESIAN_POINT('',(205.999999999996,86.9999999999891,-46.));
#1079=CARTESIAN_POINT('',(206.000000000017,86.9999999999891,-42.));
#1080=CARTESIAN_POINT('Origin',(203.,87.,-46.));
#1081=CARTESIAN_POINT('Origin',(206.000000000017,-291500.,-42.));
#1082=CARTESIAN_POINT('',(206.000000000017,86.0000000000127,-3.00000000000002));
#1083=CARTESIAN_POINT('',(206.000000000017,-291500.,-3.));
#1084=CARTESIAN_POINT('',(206.000000000017,86.0000000000127,-39.));
#1085=CARTESIAN_POINT('',(206.000000000017,86.0000000000127,-42.));
#1086=CARTESIAN_POINT('',(206.000000000007,83.0000000000127,-42.));
#1087=CARTESIAN_POINT('Origin',(206.000000000017,83.0000000000127,-39.));
#1088=CARTESIAN_POINT('',(206.,81.,-42.));
#1089=CARTESIAN_POINT('',(206.000000000017,86.0000000000127,-42.));
#1090=CARTESIAN_POINT('',(206.,81.,-46.));
#1091=CARTESIAN_POINT('',(206.,81.,-46.));
#1092=CARTESIAN_POINT('',(205.999999999996,86.9999999999891,-46.));
#1093=CARTESIAN_POINT('Origin',(-399899.,86.0000000000127,-42.));
#1094=CARTESIAN_POINT('',(53.0000000001678,86.0000000000127,-39.));
#1095=CARTESIAN_POINT('',(53.0000000001678,86.0000000000127,0.));
#1096=CARTESIAN_POINT('',(53.0000000001678,86.0000000000127,-42.));
#1097=CARTESIAN_POINT('',(-399899.,86.0000000000127,-39.));
#1098=CARTESIAN_POINT('',(203.000000000031,86.0000000000127,0.));
#1099=CARTESIAN_POINT('Origin',(203.000000000017,86.0000000000127,-3.));
#1100=CARTESIAN_POINT('',(-399899.,86.0000000000127,0.));
#1101=CARTESIAN_POINT('',(112.243894248977,86.0000000000127,-18.));
#1102=CARTESIAN_POINT('',(112.243894248977,86.0000000000127,-27.));
#1103=CARTESIAN_POINT('Origin',(112.243894248977,86.0000000000127,-22.5));
#1104=CARTESIAN_POINT('',(142.24389424902,86.0000000000127,-18.));
#1105=CARTESIAN_POINT('',(-399899.,86.0000000000127,-18.));
#1106=CARTESIAN_POINT('',(142.243894248977,86.0000000000127,-27.));
#1107=CARTESIAN_POINT('Origin',(142.243894248977,86.0000000000127,-22.5));
#1108=CARTESIAN_POINT('',(-399899.,86.0000000000127,-27.));
#1109=CARTESIAN_POINT('',(162.243894248977,86.0000000000127,-18.));
#1110=CARTESIAN_POINT('',(162.243894248977,86.0000000000127,-27.));
#1111=CARTESIAN_POINT('Origin',(162.243894248977,86.0000000000127,-22.5));
#1112=CARTESIAN_POINT('',(192.243894248975,86.0000000000127,-18.));
#1113=CARTESIAN_POINT('',(-399899.,86.0000000000127,-18.));
#1114=CARTESIAN_POINT('',(192.243894248977,86.0000000000127,-27.));
#1115=CARTESIAN_POINT('Origin',(192.243894248977,86.0000000000127,-22.5));
#1116=CARTESIAN_POINT('',(-399899.,86.0000000000127,-27.));
#1117=CARTESIAN_POINT('',(62.2438942489766,86.0000000000127,-18.));
#1118=CARTESIAN_POINT('',(62.2438942489766,86.0000000000127,-27.));
#1119=CARTESIAN_POINT('Origin',(62.2438942489766,86.0000000000127,-22.5));
#1120=CARTESIAN_POINT('',(92.2438942490089,86.0000000000127,-18.));
#1121=CARTESIAN_POINT('',(-399899.,86.0000000000127,-18.));
#1122=CARTESIAN_POINT('',(92.2438942489766,86.0000000000127,-27.));
#1123=CARTESIAN_POINT('Origin',(92.2438942489766,86.0000000000127,-22.5));
#1124=CARTESIAN_POINT('',(-399899.,86.0000000000127,-27.));
#1125=CARTESIAN_POINT('Origin',(-430393.453449941,-235870.016318103,-42.));
#1126=CARTESIAN_POINT('',(1.13686837721616E-10,56.9472136089644,-39.));
#1127=CARTESIAN_POINT('',(1.13686837721616E-10,56.9472136089644,0.));
#1128=CARTESIAN_POINT('',(1.13686837721616E-10,56.9472136089644,-42.));
#1129=CARTESIAN_POINT('',(-430393.453449941,-235870.016318103,-39.));
#1130=CARTESIAN_POINT('',(-430393.453449941,-235870.016318103,0.));
#1131=CARTESIAN_POINT('Origin',(0.,-291500.,-42.));
#1132=CARTESIAN_POINT('',(0.,0.,-39.));
#1133=CARTESIAN_POINT('',(0.,0.,0.));
#1134=CARTESIAN_POINT('',(0.,0.,-42.));
#1135=CARTESIAN_POINT('',(0.,56.9472136089644,-39.));
#1136=CARTESIAN_POINT('',(0.,-291500.,0.));
#1137=CARTESIAN_POINT('',(0.,13.,-18.));
#1138=CARTESIAN_POINT('',(0.,43.,-18.));
#1139=CARTESIAN_POINT('',(0.,-291500.,-17.9999999999326));
#1140=CARTESIAN_POINT('',(0.,43.,-27.));
#1141=CARTESIAN_POINT('Origin',(0.,43.,-22.5));
#1142=CARTESIAN_POINT('',(0.,12.9999999999768,-27.));
#1143=CARTESIAN_POINT('',(0.,-291500.,-27.));
#1144=CARTESIAN_POINT('Origin',(0.,13.,-22.5));
#1145=CARTESIAN_POINT('Origin',(-399899.,0.,-42.));
#1146=CARTESIAN_POINT('',(-1.0000000000332,0.,0.));
#1147=CARTESIAN_POINT('',(-399899.,0.,0.));
#1148=CARTESIAN_POINT('',(-4.0000000000191,0.,-3.00000000000002));
#1149=CARTESIAN_POINT('Origin',(-1.0000000000191,0.,-3.));
#1150=CARTESIAN_POINT('',(-4.0000000000191,0.,-46.));
#1151=CARTESIAN_POINT('',(-4.0000000000191,0.,-42.));
#1152=CARTESIAN_POINT('',(5.,-6.23766399549792E-16,-46.));
#1153=CARTESIAN_POINT('',(5.,-6.23766399549792E-16,-46.));
#1154=CARTESIAN_POINT('',(5.,-6.23766399549792E-16,-42.));
#1155=CARTESIAN_POINT('',(5.,-6.23766399549792E-16,-46.));
#1156=CARTESIAN_POINT('',(3.,0.,-42.));
#1157=CARTESIAN_POINT('',(0.,0.,-42.));
#1158=CARTESIAN_POINT('Origin',(3.,0.,-39.));
#1159=CARTESIAN_POINT('Origin',(-4.0000000000191,-291500.,-42.));
#1160=CARTESIAN_POINT('',(-4.0000000000191,57.5394362369934,-3.00000000000002));
#1161=CARTESIAN_POINT('',(-4.0000000000191,-291500.,-3.));
#1162=CARTESIAN_POINT('',(-4.00000000001433,57.5394362369934,-46.));
#1163=CARTESIAN_POINT('',(-4.0000000000191,57.5394362369934,-42.));
#1164=CARTESIAN_POINT('',(-4.0000000000191,0.,-46.));
#1165=CARTESIAN_POINT('',(-4.0000000000191,43.,-18.));
#1166=CARTESIAN_POINT('',(-4.0000000000191,43.0000000000064,-27.));
#1167=CARTESIAN_POINT('Origin',(-4.0000000000191,43.,-22.5));
#1168=CARTESIAN_POINT('',(-4.0000000000191,13.,-18.));
#1169=CARTESIAN_POINT('',(-4.0000000000191,43.,-18.));
#1170=CARTESIAN_POINT('',(-4.0000000000191,13.,-27.));
#1171=CARTESIAN_POINT('Origin',(-4.0000000000191,13.,-22.5));
#1172=CARTESIAN_POINT('',(-4.0000000000191,43.,-27.));
#1173=CARTESIAN_POINT('Origin',(-1.,57.5394362370191,-42.));
#1174=CARTESIAN_POINT('',(-2.44205020844362,60.1701188853687,-3.00000000000002));
#1175=CARTESIAN_POINT('Origin',(-1.,57.5394362370191,-3.00000000000001));
#1176=CARTESIAN_POINT('',(-2.44205020844821,60.1701188853771,-46.));
#1177=CARTESIAN_POINT('',(-2.44205020844362,60.1701188853687,-42.));
#1178=CARTESIAN_POINT('Origin',(-1.,57.5394362370191,-46.));
#1179=CARTESIAN_POINT('Origin',(-430395.376183553,-235866.508741238,-42.));
#1180=CARTESIAN_POINT('',(51.3018440404949,89.6306826483624,-3.00000000000002));
#1181=CARTESIAN_POINT('',(-430395.376183553,-235866.508741238,-3.));
#1182=CARTESIAN_POINT('',(51.3018440404987,89.6306826483554,-46.));
#1183=CARTESIAN_POINT('',(51.3018440404949,89.6306826483624,-42.));
#1184=CARTESIAN_POINT('',(-2.44205020844821,60.1701188853771,-46.));
#1185=CARTESIAN_POINT('Origin',(52.7438942489812,87.,-42.));
#1186=CARTESIAN_POINT('',(52.7438942489766,90.,-3.00000000000002));
#1187=CARTESIAN_POINT('Origin',(52.7438942489812,87.,-3.00000000000001));
#1188=CARTESIAN_POINT('',(52.7438942489766,90.0000000000159,-46.));
#1189=CARTESIAN_POINT('',(52.7438942489766,90.,-42.));
#1190=CARTESIAN_POINT('Origin',(52.7438942489812,87.,-46.));
#1191=CARTESIAN_POINT('Origin',(-399899.,89.999999999975,-42.));
#1192=CARTESIAN_POINT('',(-399899.,89.999999999975,-3.));
#1193=CARTESIAN_POINT('',(52.7438942489766,90.0000000000159,-46.));
#1194=CARTESIAN_POINT('',(112.243894248977,89.999999999975,-27.));
#1195=CARTESIAN_POINT('',(112.243894248934,89.999999999975,-18.));
#1196=CARTESIAN_POINT('Origin',(112.243894248977,89.999999999975,-22.5));
#1197=CARTESIAN_POINT('',(142.243894248977,89.999999999975,-27.));
#1198=CARTESIAN_POINT('',(112.243894248977,89.999999999975,-27.));
#1199=CARTESIAN_POINT('',(142.243894248977,89.999999999975,-18.));
#1200=CARTESIAN_POINT('Origin',(142.243894248977,89.999999999975,-22.5));
#1201=CARTESIAN_POINT('',(112.243894248977,89.999999999975,-18.));
#1202=CARTESIAN_POINT('',(162.243894248977,89.999999999975,-27.));
#1203=CARTESIAN_POINT('',(162.243894248945,89.999999999975,-18.));
#1204=CARTESIAN_POINT('Origin',(162.243894248977,89.999999999975,-22.5));
#1205=CARTESIAN_POINT('',(192.243894248977,89.999999999975,-27.));
#1206=CARTESIAN_POINT('',(162.243894248977,89.999999999975,-27.));
#1207=CARTESIAN_POINT('',(192.243894248977,89.999999999975,-18.));
#1208=CARTESIAN_POINT('Origin',(192.243894248977,89.999999999975,-22.5));
#1209=CARTESIAN_POINT('',(162.243894248977,89.999999999975,-18.));
#1210=CARTESIAN_POINT('',(62.2438942489766,89.999999999975,-27.));
#1211=CARTESIAN_POINT('',(62.2438942489794,89.999999999975,-18.));
#1212=CARTESIAN_POINT('Origin',(62.2438942489766,89.999999999975,-22.5));
#1213=CARTESIAN_POINT('',(92.2438942489766,89.999999999975,-27.));
#1214=CARTESIAN_POINT('',(62.2438942489766,89.999999999975,-27.));
#1215=CARTESIAN_POINT('',(92.2438942489766,89.999999999975,-18.));
#1216=CARTESIAN_POINT('Origin',(92.2438942489766,89.999999999975,-22.5));
#1217=CARTESIAN_POINT('',(62.2438942489766,89.999999999975,-18.));
#1218=CARTESIAN_POINT('Origin',(203.,87.,0.));
#1219=CARTESIAN_POINT('',(203.,86.999999999975,0.));
#1220=CARTESIAN_POINT('',(203.000000000017,87.,0.));
#1221=CARTESIAN_POINT('',(52.7438942489758,87.0000000000099,0.));
#1222=CARTESIAN_POINT('',(203.,86.999999999975,0.));
#1223=CARTESIAN_POINT('',(-1.0000000000191,57.5394362370191,0.));
#1224=CARTESIAN_POINT('',(168.282345033372,150.334225105483,0.));
#1225=CARTESIAN_POINT('',(-1.0000000000191,87.,0.));
#1226=CARTESIAN_POINT('Origin',(206.,81.,-46.));
#1227=CARTESIAN_POINT('',(206.,81.,-42.));
#1228=CARTESIAN_POINT('',(206.,81.,-46.));
#1229=CARTESIAN_POINT('Origin',(203.,87.,-46.));
#1230=CARTESIAN_POINT('Origin',(203.,87.,-42.));
#1231=CARTESIAN_POINT('',(53.7683172532719,83.0000000000127,-42.));
#1232=CARTESIAN_POINT('',(3.,55.1705457247001,-42.));
#1233=CARTESIAN_POINT('',(170.205078644633,146.826648240901,-42.));
#1234=CARTESIAN_POINT('',(3.,0.,-42.));
#1235=CARTESIAN_POINT('',(203.,83.0000000000127,-42.));
#1236=CARTESIAN_POINT('Origin',(-1.0000000000191,87.,-3.));
#1237=CARTESIAN_POINT('Origin',(-1.0000000000191,57.5394362369934,-3.));
#1238=CARTESIAN_POINT('Origin',(-1.,57.5394362370191,-3.));
#1239=CARTESIAN_POINT('Origin',(-1.,57.5394362370191,-3.00000000000002));
#1240=CARTESIAN_POINT('Origin',(168.282345033372,150.334225105483,-3.));
#1241=CARTESIAN_POINT('Origin',(52.7438942489051,86.9999999999907,-3.));
#1242=CARTESIAN_POINT('Origin',(52.7438942489812,87.,-3.));
#1243=CARTESIAN_POINT('Origin',(52.7438942489812,87.,-3.00000000000002));
#1244=CARTESIAN_POINT('Origin',(203.,86.999999999975,-3.));
#1245=CARTESIAN_POINT('Origin',(202.999999999975,86.999999999975,-3.));
#1246=CARTESIAN_POINT('Origin',(203.,87.,-3.));
#1247=CARTESIAN_POINT('Origin',(203.,87.,-3.00000000000002));
#1248=CARTESIAN_POINT('Origin',(203.000000000017,87.,-3.));
#1249=CARTESIAN_POINT('Origin',(62.2438942489766,0.,-22.5));
#1250=CARTESIAN_POINT('',(62.2438942489766,0.,-27.));
#1251=CARTESIAN_POINT('',(62.2438942489766,0.,-18.));
#1252=CARTESIAN_POINT('Origin',(62.2438942489766,0.,-27.));
#1253=CARTESIAN_POINT('',(92.2438942489766,0.,-27.));
#1254=CARTESIAN_POINT('Origin',(92.2438942489766,0.,-22.5));
#1255=CARTESIAN_POINT('',(92.2438942489766,0.,-18.));
#1256=CARTESIAN_POINT('Origin',(62.2438942489766,0.,-18.));
#1257=CARTESIAN_POINT('Origin',(162.243894248977,0.,-22.5));
#1258=CARTESIAN_POINT('',(162.243894248977,0.,-27.));
#1259=CARTESIAN_POINT('',(162.243894248977,0.,-18.));
#1260=CARTESIAN_POINT('Origin',(162.243894248977,0.,-27.));
#1261=CARTESIAN_POINT('',(192.243894248977,0.,-27.));
#1262=CARTESIAN_POINT('Origin',(192.243894248977,0.,-22.5));
#1263=CARTESIAN_POINT('',(192.243894248977,0.,-18.));
#1264=CARTESIAN_POINT('Origin',(162.243894248977,0.,-18.));
#1265=CARTESIAN_POINT('Origin',(112.243894248977,0.,-22.5));
#1266=CARTESIAN_POINT('',(112.243894248977,0.,-27.));
#1267=CARTESIAN_POINT('',(112.243894248977,0.,-18.));
#1268=CARTESIAN_POINT('Origin',(112.243894248977,0.,-27.));
#1269=CARTESIAN_POINT('',(142.243894248977,0.,-27.));
#1270=CARTESIAN_POINT('Origin',(142.243894248977,0.,-22.5));
#1271=CARTESIAN_POINT('',(142.243894248977,0.,-18.));
#1272=CARTESIAN_POINT('Origin',(112.243894248977,0.,-18.));
#1273=CARTESIAN_POINT('Origin',(206.000000000017,43.,-22.5));
#1274=CARTESIAN_POINT('',(206.000000000017,43.,-18.));
#1275=CARTESIAN_POINT('',(206.000000000017,43.,-27.));
#1276=CARTESIAN_POINT('Origin',(206.000000000017,43.,-18.));
#1277=CARTESIAN_POINT('',(206.000000000017,13.,-18.));
#1278=CARTESIAN_POINT('Origin',(206.000000000017,13.,-22.5));
#1279=CARTESIAN_POINT('',(206.000000000017,13.,-27.));
#1280=CARTESIAN_POINT('Origin',(206.000000000017,43.,-27.));
#1281=CARTESIAN_POINT('Origin',(-399899.,83.0000000000127,-39.));
#1282=CARTESIAN_POINT('Origin',(53.7683172531825,82.9999999999987,-38.9999999999903));
#1283=CARTESIAN_POINT('Origin',(-430392.011399733,-235872.647000751,-39.));
#1284=CARTESIAN_POINT('Origin',(3.00000000013031,55.1705457248771,-39.00000000005));
#1285=CARTESIAN_POINT('Origin',(3.,87.,-39.));
#1286=UNCERTAINTY_MEASURE_WITH_UNIT(LENGTH_MEASURE(0.01),#1290,
'DISTANCE_ACCURACY_VALUE',
'Maximum model space distance between geometric entities at asserted c
onnectivities');
#1287=UNCERTAINTY_MEASURE_WITH_UNIT(LENGTH_MEASURE(0.01),#1290,
'DISTANCE_ACCURACY_VALUE',
'Maximum model space distance between geometric entities at asserted c
onnectivities');
#1288=(
GEOMETRIC_REPRESENTATION_CONTEXT(3)
GLOBAL_UNCERTAINTY_ASSIGNED_CONTEXT((#1286))
GLOBAL_UNIT_ASSIGNED_CONTEXT((#1290,#1292,#1293))
REPRESENTATION_CONTEXT('','3D')
);
#1289=(
GEOMETRIC_REPRESENTATION_CONTEXT(3)
GLOBAL_UNCERTAINTY_ASSIGNED_CONTEXT((#1287))
GLOBAL_UNIT_ASSIGNED_CONTEXT((#1290,#1292,#1293))
REPRESENTATION_CONTEXT('','3D')
);
#1290=(
LENGTH_UNIT()
NAMED_UNIT(*)
SI_UNIT(.MILLI.,.METRE.)
);
#1291=(
LENGTH_UNIT()
NAMED_UNIT(*)
SI_UNIT($,.METRE.)
);
#1292=(
NAMED_UNIT(*)
PLANE_ANGLE_UNIT()
SI_UNIT($,.RADIAN.)
);
#1293=(
NAMED_UNIT(*)
SI_UNIT($,.STERADIAN.)
SOLID_ANGLE_UNIT()
);
#1294=SHAPE_DEFINITION_REPRESENTATION(#1295,#1296);
#1295=PRODUCT_DEFINITION_SHAPE('',$,#1298);
#1296=SHAPE_REPRESENTATION('',(#771),#1288);
#1297=PRODUCT_DEFINITION_CONTEXT('part definition',#1302,'design');
#1298=PRODUCT_DEFINITION('ALP2062','ALP2062 v1',#1299,#1297);
#1299=PRODUCT_DEFINITION_FORMATION('',$,#1304);
#1300=PRODUCT_RELATED_PRODUCT_CATEGORY('ALP2062 v1','ALP2062 v1',(#1304));
#1301=APPLICATION_PROTOCOL_DEFINITION('international standard',
'automotive_design',2009,#1302);
#1302=APPLICATION_CONTEXT(
'Core Data for Automotive Mechanical Design Process');
#1303=PRODUCT_CONTEXT('part definition',#1302,'mechanical');
#1304=PRODUCT('ALP2062','ALP2062 v1',$,(#1303));
#1305=PRESENTATION_STYLE_ASSIGNMENT((#1307));
#1306=PRESENTATION_STYLE_ASSIGNMENT((#1308));
#1307=SURFACE_STYLE_USAGE(.BOTH.,#1309);
#1308=SURFACE_STYLE_USAGE(.BOTH.,#1310);
#1309=SURFACE_SIDE_STYLE('',(#1311));
#1310=SURFACE_SIDE_STYLE('',(#1312));
#1311=SURFACE_STYLE_FILL_AREA(#1313);
#1312=SURFACE_STYLE_FILL_AREA(#1314);
#1313=FILL_AREA_STYLE('Steel - Satin',(#1315));
#1314=FILL_AREA_STYLE('Opaque(229,234,237)',(#1316));
#1315=FILL_AREA_STYLE_COLOUR('Steel - Satin',#1317);
#1316=FILL_AREA_STYLE_COLOUR('Opaque(229,234,237)',#1318);
#1317=COLOUR_RGB('Steel - Satin',0.627450980392157,0.627450980392157,0.627450980392157);
#1318=COLOUR_RGB('Opaque(229,234,237)',0.898039215686275,0.917647058823529,
0.929411764705882);
ENDSEC;
END-ISO-10303-21;
