ISO-10303-21;
HEADER;
FILE_DESCRIPTION (( 'STEP AP214' ),
    '1' );
FILE_NAME ('ALP2020.STEP',
    '2019-10-28T12:32:48',
    ( '' ),
    ( '' ),
    'SwSTEP 2.0',
    'SolidWorks 2016',
    '' );
FILE_SCHEMA (( 'AUTOMOTIVE_DESIGN' ));
ENDSEC;

DATA;
#1 = LINE ( 'NONE', #743, #781 ) ;
#2 = CIRCLE ( 'NONE', #596, 9.000000000000001800 ) ;
#3 = PRODUCT_DEFINITION ( 'UNKNOWN', '', #612, #1102 ) ;
#4 = EDGE_CURVE ( 'NONE', #1152, #822, #1161, .T. ) ;
#5 = DIRECTION ( 'NONE',  ( 1.000000000000000000, 0.0000000000000000000, 0.0000000000000000000 ) ) ;
#6 = EDGE_LOOP ( 'NONE', ( #1084, #238, #140, #11 ) ) ;
#7 = SURFACE_STYLE_USAGE ( .BOTH. , #326 ) ;
#8 = AXIS2_PLACEMENT_3D ( 'NONE', #894, #296, #376 ) ;
#9 = DIRECTION ( 'NONE',  ( 0.0000000000000000000, 1.000000000000000000, 0.0000000000000000000 ) ) ;
#10 = CIRCLE ( 'NONE', #1111, 6.025000000000001200 ) ;
#11 = ORIENTED_EDGE ( 'NONE', *, *, #174, .T. ) ;
#12 = LINE ( 'NONE', #887, #1192 ) ;
#13 = FACE_BOUND ( 'NONE', #1074, .T. ) ;
#14 = DIRECTION ( 'NONE',  ( -1.000000000000000000, 0.0000000000000000000, -0.0000000000000000000 ) ) ;
#15 = LINE ( 'NONE', #926, #431 ) ;
#16 = CARTESIAN_POINT ( 'NONE',  ( -40.00000000000000700, 37.00000000000000000, 10.00000000000000000 ) ) ;
#17 = ORIENTED_EDGE ( 'NONE', *, *, #1238, .F. ) ;
#18 = EDGE_LOOP ( 'NONE', ( #506, #1251, #630, #299 ) ) ;
#19 = AXIS2_PLACEMENT_3D ( 'NONE', #1045, #945, #327 ) ;
#20 = ORIENTED_EDGE ( 'NONE', *, *, #1044, .T. ) ;
#21 = ORIENTED_EDGE ( 'NONE', *, *, #527, .F. ) ;
#22 = ORIENTED_EDGE ( 'NONE', *, *, #941, .T. ) ;
#23 = ORIENTED_EDGE ( 'NONE', *, *, #47, .T. ) ;
#24 = VERTEX_POINT ( 'NONE', #657 ) ;
#25 = CARTESIAN_POINT ( 'NONE',  ( 39.99999999999999300, -37.00000000000000000, 10.00000000000000000 ) ) ;
#26 = VERTEX_POINT ( 'NONE', #344 ) ;
#27 = DIRECTION ( 'NONE',  ( -0.0000000000000000000, -0.0000000000000000000, 1.000000000000000000 ) ) ;
#28 = DIRECTION ( 'NONE',  ( 0.0000000000000000000, -1.000000000000000000, 0.0000000000000000000 ) ) ;
#29 = CARTESIAN_POINT ( 'NONE',  ( 39.99999999999999300, -37.00000000000000000, 7.999999999999984900 ) ) ;
#30 = ORIENTED_EDGE ( 'NONE', *, *, #1056, .F. ) ;
#31 = CARTESIAN_POINT ( 'NONE',  ( -37.00000000000000700, -38.00000000000000000, 10.00000000000000000 ) ) ;
#32 = LINE ( 'NONE', #254, #1069 ) ;
#33 = LINE ( 'NONE', #713, #929 ) ;
#34 = EDGE_CURVE ( 'NONE', #1099, #752, #675, .T. ) ;
#35 =( LENGTH_UNIT ( ) NAMED_UNIT ( * ) SI_UNIT ( .MILLI., .METRE. ) );
#36 = ORIENTED_EDGE ( 'NONE', *, *, #1238, .T. ) ;
#37 = AXIS2_PLACEMENT_3D ( 'NONE', #213, #600, #678 ) ;
#38 = ORIENTED_EDGE ( 'NONE', *, *, #897, .F. ) ;
#39 = ORIENTED_EDGE ( 'NONE', *, *, #304, .F. ) ;
#40 = DIRECTION ( 'NONE',  ( -1.000000000000000000, 0.0000000000000000000, -0.0000000000000000000 ) ) ;
#41 =( NAMED_UNIT ( * ) SI_UNIT ( $, .STERADIAN. ) SOLID_ANGLE_UNIT ( ) );
#42 = ORIENTED_EDGE ( 'NONE', *, *, #933, .T. ) ;
#43 = CARTESIAN_POINT ( 'NONE',  ( 20.00000000000000700, -20.00000000000000000, 1.734723475976807100E-015 ) ) ;
#44 = ORIENTED_EDGE ( 'NONE', *, *, #924, .F. ) ;
#45 = DIRECTION ( 'NONE',  ( -0.0000000000000000000, -0.0000000000000000000, 1.000000000000000000 ) ) ;
#46 = VECTOR ( 'NONE', #860, 1000.000000000000000 ) ;
#47 = EDGE_CURVE ( 'NONE', #611, #911, #505, .T. ) ;
#48 = FACE_BOUND ( 'NONE', #855, .T. ) ;
#49 = ADVANCED_FACE ( 'NONE', ( #447 ), #404, .T. ) ;
#50 = DIRECTION ( 'NONE',  ( 0.0000000000000000000, 0.0000000000000000000, -1.000000000000000000 ) ) ;
#51 = FACE_OUTER_BOUND ( 'NONE', #875, .T. ) ;
#52 = VECTOR ( 'NONE', #130, 1000.000000000000000 ) ;
#53 = DIRECTION ( 'NONE',  ( 1.000000000000000000, -0.0000000000000000000, 0.0000000000000000000 ) ) ;
#54 = DIRECTION ( 'NONE',  ( 0.0000000000000000000, 0.0000000000000000000, -1.000000000000000000 ) ) ;
#55 = EDGE_CURVE ( 'NONE', #26, #1235, #1178, .T. ) ;
#56 = ORIENTED_EDGE ( 'NONE', *, *, #662, .F. ) ;
#57 = MANIFOLD_SOLID_BREP ( 'Chamfer1', #737 ) ;
#58 = APPLICATION_PROTOCOL_DEFINITION ( 'draft international standard', 'automotive_design', 1998, #987 ) ;
#59 = ORIENTED_EDGE ( 'NONE', *, *, #1187, .F. ) ;
#60 = AXIS2_PLACEMENT_3D ( 'NONE', #426, #815, #1015 ) ;
#61 = EDGE_CURVE ( 'NONE', #1014, #388, #418, .T. ) ;
#62 = CARTESIAN_POINT ( 'NONE',  ( -28.99999999999999300, -20.00000000000000000, 4.000000000000000000 ) ) ;
#63 = FILL_AREA_STYLE_COLOUR ( '', #912 ) ;
#64 = FACE_OUTER_BOUND ( 'NONE', #6, .T. ) ;
#65 = CYLINDRICAL_SURFACE ( 'NONE', #377, 9.000000000000001800 ) ;
#66 = DIRECTION ( 'NONE',  ( -0.0000000000000000000, -0.7071067811865500200, -0.7071067811865451300 ) ) ;
#67 = FACE_OUTER_BOUND ( 'NONE', #512, .T. ) ;
#68 = CARTESIAN_POINT ( 'NONE',  ( -40.00000000000000700, -40.00000000000000000, 0.0000000000000000000 ) ) ;
#69 = CIRCLE ( 'NONE', #699, 6.250000000000001800 ) ;
#70 = DIRECTION ( 'NONE',  ( -0.0000000000000000000, -0.0000000000000000000, 1.000000000000000000 ) ) ;
#71 = ORIENTED_EDGE ( 'NONE', *, *, #843, .T. ) ;
#72 = ORIENTED_EDGE ( 'NONE', *, *, #119, .T. ) ;
#73 = ORIENTED_EDGE ( 'NONE', *, *, #287, .T. ) ;
#74 = CARTESIAN_POINT ( 'NONE',  ( 6.025000000000001200, 0.0000000000000000000, 10.00000000000000000 ) ) ;
#75 = CARTESIAN_POINT ( 'NONE',  ( -19.99999999999999300, 20.00000000000000000, 1.734723475976807100E-015 ) ) ;
#76 = DIRECTION ( 'NONE',  ( 0.0000000000000000000, 0.0000000000000000000, 1.000000000000000000 ) ) ;
#77 = AXIS2_PLACEMENT_3D ( 'NONE', #1104, #497, #811 ) ;
#78 = EDGE_CURVE ( 'NONE', #199, #1014, #118, .T. ) ;
#79 = CARTESIAN_POINT ( 'NONE',  ( -19.99999999999999300, -20.00000000000000000, 10.00000000000000000 ) ) ;
#80 = ADVANCED_FACE ( 'NONE', ( #1207 ), #450, .F. ) ;
#81 = ORIENTED_EDGE ( 'NONE', *, *, #1244, .T. ) ;
#82 = FACE_OUTER_BOUND ( 'NONE', #574, .T. ) ;
#83 = CIRCLE ( 'NONE', #380, 6.249999999999998200 ) ;
#84 = ADVANCED_FACE ( 'NONE', ( #718 ), #367, .T. ) ;
#85 = AXIS2_PLACEMENT_3D ( 'NONE', #730, #1224, #9 ) ;
#86 = FACE_OUTER_BOUND ( 'NONE', #696, .T. ) ;
#87 = CARTESIAN_POINT ( 'NONE',  ( -37.00000000000000700, 40.00000000000000000, 7.999999999999984900 ) ) ;
#88 = LINE ( 'NONE', #458, #1107 ) ;
#89 = EDGE_CURVE ( 'NONE', #460, #322, #351, .T. ) ;
#90 = DIRECTION ( 'NONE',  ( -0.0000000000000000000, -0.0000000000000000000, 1.000000000000000000 ) ) ;
#91 = EDGE_LOOP ( 'NONE', ( #481, #123, #769, #1076 ) ) ;
#92 = ORIENTED_EDGE ( 'NONE', *, *, #258, .T. ) ;
#93 = CARTESIAN_POINT ( 'NONE',  ( -37.00000000000000700, -40.00000000000000000, 0.0000000000000000000 ) ) ;
#94 = EDGE_CURVE ( 'NONE', #1235, #26, #1088, .T. ) ;
#95 = ORIENTED_EDGE ( 'NONE', *, *, #960, .T. ) ;
#96 = DIRECTION ( 'NONE',  ( 0.0000000000000000000, -0.0000000000000000000, 1.000000000000000000 ) ) ;
#97 = DIRECTION ( 'NONE',  ( -0.0000000000000000000, -0.0000000000000000000, 1.000000000000000000 ) ) ;
#98 = CYLINDRICAL_SURFACE ( 'NONE', #853, 6.250000000000001800 ) ;
#99 = CARTESIAN_POINT ( 'NONE',  ( -40.00000000000000700, -40.00000000000000000, 10.00000000000000000 ) ) ;
#100 = CIRCLE ( 'NONE', #827, 6.250000000000000000 ) ;
#101 = AXIS2_PLACEMENT_3D ( 'NONE', #337, #141, #1033 ) ;
#102 = CARTESIAN_POINT ( 'NONE',  ( -19.99999999999999300, -20.00000000000000000, 4.000000000000000000 ) ) ;
#103 = ORIENTED_EDGE ( 'NONE', *, *, #545, .T. ) ;
#104 = ORIENTED_EDGE ( 'NONE', *, *, #209, .T. ) ;
#105 = EDGE_CURVE ( 'NONE', #1235, #24, #944, .T. ) ;
#106 = CARTESIAN_POINT ( 'NONE',  ( 39.99999999999999300, -40.00000000000000000, 10.00000000000000000 ) ) ;
#107 = EDGE_LOOP ( 'NONE', ( #1092, #902, #1124, #239 ) ) ;
#108 = ORIENTED_EDGE ( 'NONE', *, *, #1300, .T. ) ;
#109 = AXIS2_PLACEMENT_3D ( 'NONE', #828, #419, #5 ) ;
#110 = CARTESIAN_POINT ( 'NONE',  ( 39.99999999999999300, -40.00000000000000000, 7.999999999999984900 ) ) ;
#111 = AXIS2_PLACEMENT_3D ( 'NONE', #154, #866, #1048 ) ;
#112 = ORIENTED_EDGE ( 'NONE', *, *, #117, .T. ) ;
#113 = CIRCLE ( 'NONE', #1075, 6.249999999999998200 ) ;
#114 = CARTESIAN_POINT ( 'NONE',  ( 11.00000000000000700, -20.00000000000000000, 4.000000000000000000 ) ) ;
#115 = CIRCLE ( 'NONE', #253, 3.000000000000002700 ) ;
#116 = CIRCLE ( 'NONE', #8, 6.249999999999998200 ) ;
#117 = EDGE_CURVE ( 'NONE', #759, #378, #882, .T. ) ;
#118 = LINE ( 'NONE', #744, #826 ) ;
#119 = EDGE_CURVE ( 'NONE', #1143, #1123, #1285, .T. ) ;
#120 = DIRECTION ( 'NONE',  ( -0.0000000000000000000, -0.0000000000000000000, 1.000000000000000000 ) ) ;
#121 = DIRECTION ( 'NONE',  ( -0.0000000000000000000, -0.0000000000000000000, 1.000000000000000000 ) ) ;
#122 = CARTESIAN_POINT ( 'NONE',  ( -28.99999999999999300, 20.00000000000000000, 10.00000000000000000 ) ) ;
#123 = ORIENTED_EDGE ( 'NONE', *, *, #907, .F. ) ;
#124 = EDGE_LOOP ( 'NONE', ( #23, #22, #1189, #542 ) ) ;
#125 = EDGE_CURVE ( 'NONE', #1201, #918, #69, .T. ) ;
#126 = DIRECTION ( 'NONE',  ( -1.000000000000000000, 0.0000000000000000000, -0.0000000000000000000 ) ) ;
#127 = AXIS2_PLACEMENT_3D ( 'NONE', #955, #134, #329 ) ;
#128 = ORIENTED_EDGE ( 'NONE', *, *, #197, .F. ) ;
#129 = CARTESIAN_POINT ( 'NONE',  ( 36.99999999999999300, 40.00000000000000000, 0.0000000000000000000 ) ) ;
#130 = DIRECTION ( 'NONE',  ( 0.0000000000000000000, -1.000000000000000000, 0.0000000000000000000 ) ) ;
#131 = PRESENTATION_STYLE_ASSIGNMENT (( #580 ) ) ;
#132 = VECTOR ( 'NONE', #363, 1000.000000000000000 ) ;
#133 = EDGE_CURVE ( 'NONE', #1139, #408, #88, .T. ) ;
#134 = DIRECTION ( 'NONE',  ( 1.000000000000000000, 0.0000000000000000000, 0.0000000000000000000 ) ) ;
#135 = CIRCLE ( 'NONE', #805, 3.000000000000002700 ) ;
#136 = DIRECTION ( 'NONE',  ( 0.0000000000000000000, -0.0000000000000000000, -1.000000000000000000 ) ) ;
#137 = VECTOR ( 'NONE', #166, 1000.000000000000000 ) ;
#138 = PLANE ( 'NONE',  #346 ) ;
#139 = VERTEX_POINT ( 'NONE', #565 ) ;
#140 = ORIENTED_EDGE ( 'NONE', *, *, #133, .T. ) ;
#141 = DIRECTION ( 'NONE',  ( 0.0000000000000000000, 0.0000000000000000000, -1.000000000000000000 ) ) ;
#142 = CARTESIAN_POINT ( 'NONE',  ( 0.0000000000000000000, 0.0000000000000000000, 10.00000000000000000 ) ) ;
#143 = DIRECTION ( 'NONE',  ( 1.000000000000000000, 0.0000000000000000000, 0.0000000000000000000 ) ) ;
#144 = ORIENTED_EDGE ( 'NONE', *, *, #430, .F. ) ;
#145 = AXIS2_PLACEMENT_3D ( 'NONE', #959, #349, #345 ) ;
#146 = EDGE_CURVE ( 'NONE', #462, #1129, #306, .T. ) ;
#147 = DIRECTION ( 'NONE',  ( -0.0000000000000000000, -0.0000000000000000000, 1.000000000000000000 ) ) ;
#148 =( LENGTH_UNIT ( ) NAMED_UNIT ( * ) SI_UNIT ( .MILLI., .METRE. ) );
#149 = LINE ( 'NONE', #723, #245 ) ;
#150 = VECTOR ( 'NONE', #979, 1000.000000000000000 ) ;
#151 = CIRCLE ( 'NONE', #1062, 9.000000000000001800 ) ;
#152 = CARTESIAN_POINT ( 'NONE',  ( -19.99999999999999300, 20.00000000000000000, 10.00000000000000000 ) ) ;
#153 = CARTESIAN_POINT ( 'NONE',  ( 20.00000000000000700, -20.00000000000000000, 4.000000000000000000 ) ) ;
#154 = CARTESIAN_POINT ( 'NONE',  ( 36.99999999999999300, -37.00000000000000000, 10.00000000000000000 ) ) ;
#155 = AXIS2_PLACEMENT_3D ( 'NONE', #464, #670, #676 ) ;
#156 = ORIENTED_EDGE ( 'NONE', *, *, #209, .F. ) ;
#157 = CARTESIAN_POINT ( 'NONE',  ( 0.0000000000000000000, 0.0000000000000000000, 0.0000000000000000000 ) ) ;
#158 = CARTESIAN_POINT ( 'NONE',  ( -13.74999999999999500, 20.00000000000000000, 10.00000000000000000 ) ) ;
#159 = ORIENTED_EDGE ( 'NONE', *, *, #1198, .T. ) ;
#160 = DIRECTION ( 'NONE',  ( 1.000000000000000000, 0.0000000000000000000, 0.0000000000000000000 ) ) ;
#161 = CARTESIAN_POINT ( 'NONE',  ( 0.0000000000000000000, 0.0000000000000000000, 10.00000000000000000 ) ) ;
#162 = VERTEX_POINT ( 'NONE', #879 ) ;
#163 = FACE_OUTER_BOUND ( 'NONE', #410, .T. ) ;
#164 = CARTESIAN_POINT ( 'NONE',  ( -37.00000000000000700, 40.00000000000000000, 10.00000000000000000 ) ) ;
#165 = LINE ( 'NONE', #294, #1025 ) ;
#166 = DIRECTION ( 'NONE',  ( -0.0000000000000000000, -0.0000000000000000000, 1.000000000000000000 ) ) ;
#167 = VECTOR ( 'NONE', #628, 1000.000000000000000 ) ;
#168 = DIRECTION ( 'NONE',  ( -0.0000000000000000000, -0.0000000000000000000, 1.000000000000000000 ) ) ;
#169 = CIRCLE ( 'NONE', #155, 3.000000000000002700 ) ;
#170 =( NAMED_UNIT ( * ) PLANE_ANGLE_UNIT ( ) SI_UNIT ( $, .RADIAN. ) );
#171 = CARTESIAN_POINT ( 'NONE',  ( -19.99999999999999300, 20.00000000000000000, 1.734723475976807100E-015 ) ) ;
#172 = ORIENTED_EDGE ( 'NONE', *, *, #405, .F. ) ;
#173 = EDGE_LOOP ( 'NONE', ( #1223, #44, #701, #997 ) ) ;
#174 = EDGE_CURVE ( 'NONE', #408, #834, #1071, .T. ) ;
#175 = CARTESIAN_POINT ( 'NONE',  ( -19.99999999999999300, -20.00000000000000000, 10.00000000000000000 ) ) ;
#176 = DIRECTION ( 'NONE',  ( -0.0000000000000000000, -1.000000000000000000, -0.0000000000000000000 ) ) ;
#177 = CARTESIAN_POINT ( 'NONE',  ( 36.99999999999999300, 37.00000000000000000, 0.0000000000000000000 ) ) ;
#178 = PRODUCT_CONTEXT ( 'NONE', #1249, 'mechanical' ) ;
#179 = CARTESIAN_POINT ( 'NONE',  ( 37.99999999999999300, 37.00000000000000000, 10.00000000000000000 ) ) ;
#180 = ORIENTED_EDGE ( 'NONE', *, *, #119, .F. ) ;
#181 = DIRECTION ( 'NONE',  ( 1.000000000000000000, 0.0000000000000000000, 0.0000000000000000000 ) ) ;
#182 = CIRCLE ( 'NONE', #111, 1.000000000000000900 ) ;
#183 = ADVANCED_FACE ( 'NONE', ( #1136 ), #1039, .F. ) ;
#184 = CIRCLE ( 'NONE', #336, 9.000000000000001800 ) ;
#185 = CARTESIAN_POINT ( 'NONE',  ( 39.99999999999999300, 37.00000000000000000, 0.0000000000000000000 ) ) ;
#186 = STYLED_ITEM ( 'NONE', ( #131 ), #442 ) ;
#187 = FACE_OUTER_BOUND ( 'NONE', #888, .T. ) ;
#188 = DIRECTION ( 'NONE',  ( -1.000000000000000000, 0.0000000000000000000, 0.0000000000000000000 ) ) ;
#189 = CIRCLE ( 'NONE', #37, 1.000000000000000900 ) ;
#190 = ORIENTED_EDGE ( 'NONE', *, *, #316, .F. ) ;
#191 = VERTEX_POINT ( 'NONE', #1264 ) ;
#192 = CARTESIAN_POINT ( 'NONE',  ( -10.99999999999999300, 20.00000000000000000, 10.00000000000000000 ) ) ;
#193 = ADVANCED_FACE ( 'NONE', ( #384 ), #783, .T. ) ;
#194 = EDGE_LOOP ( 'NONE', ( #708, #736 ) ) ;
#195 = EDGE_LOOP ( 'NONE', ( #1142, #624, #833, #1256 ) ) ;
#196 = VERTEX_POINT ( 'NONE', #473 ) ;
#197 = EDGE_CURVE ( 'NONE', #348, #642, #432, .T. ) ;
#198 = ORIENTED_EDGE ( 'NONE', *, *, #613, .T. ) ;
#199 = VERTEX_POINT ( 'NONE', #864 ) ;
#200 = CARTESIAN_POINT ( 'NONE',  ( 26.25000000000000700, -20.00000000000000000, 1.734723475976807100E-015 ) ) ;
#201 = ORIENTED_EDGE ( 'NONE', *, *, #463, .T. ) ;
#202 = ORIENTED_EDGE ( 'NONE', *, *, #394, .T. ) ;
#203 = EDGE_CURVE ( 'NONE', #1234, #1123, #169, .T. ) ;
#204 = VECTOR ( 'NONE', #831, 1000.000000000000000 ) ;
#205 = AXIS2_PLACEMENT_3D ( 'NONE', #1239, #1237, #739 ) ;
#206 = FACE_BOUND ( 'NONE', #1097, .T. ) ;
#207 = EDGE_CURVE ( 'NONE', #460, #439, #1119, .T. ) ;
#208 = DIRECTION ( 'NONE',  ( -0.0000000000000000000, -0.0000000000000000000, 1.000000000000000000 ) ) ;
#209 = EDGE_CURVE ( 'NONE', #834, #408, #2, .T. ) ;
#210 = VERTEX_POINT ( 'NONE', #976 ) ;
#211 = DIRECTION ( 'NONE',  ( 0.0000000000000000000, 1.000000000000000000, 0.0000000000000000000 ) ) ;
#212 = DIRECTION ( 'NONE',  ( -0.0000000000000000000, -0.0000000000000000000, 1.000000000000000000 ) ) ;
#213 = CARTESIAN_POINT ( 'NONE',  ( -37.00000000000000700, -37.00000000000000000, 10.00000000000000000 ) ) ;
#214 = FACE_OUTER_BOUND ( 'NONE', #508, .T. ) ;
#215 = LINE ( 'NONE', #110, #799 ) ;
#216 = AXIS2_PLACEMENT_3D ( 'NONE', #79, #577, #881 ) ;
#217 = EDGE_CURVE ( 'NONE', #378, #191, #989, .T. ) ;
#218 = CIRCLE ( 'NONE', #579, 9.000000000000001800 ) ;
#219 = ORIENTED_EDGE ( 'NONE', *, *, #34, .F. ) ;
#220 = EDGE_LOOP ( 'NONE', ( #103, #309, #36, #610 ) ) ;
#221 = DIRECTION ( 'NONE',  ( -0.0000000000000000000, -0.0000000000000000000, 1.000000000000000000 ) ) ;
#222 = VERTEX_POINT ( 'NONE', #1010 ) ;
#223 = CARTESIAN_POINT ( 'NONE',  ( -26.24999999999999600, 20.00000000000000000, 4.000000000000000000 ) ) ;
#224 = AXIS2_PLACEMENT_3D ( 'NONE', #693, #684, #680 ) ;
#225 = CARTESIAN_POINT ( 'NONE',  ( 0.0000000000000000000, 0.0000000000000000000, 10.00000000000000000 ) ) ;
#226 = ORIENTED_EDGE ( 'NONE', *, *, #495, .F. ) ;
#227 = LINE ( 'NONE', #1127, #1022 ) ;
#228 = FACE_OUTER_BOUND ( 'NONE', #374, .T. ) ;
#229 = CARTESIAN_POINT ( 'NONE',  ( -40.00000000000000700, 40.00000000000000000, 7.999999999999984900 ) ) ;
#230 = VECTOR ( 'NONE', #433, 1000.000000000000000 ) ;
#231 = AXIS2_PLACEMENT_3D ( 'NONE', #660, #757, #1162 ) ;
#232 = CARTESIAN_POINT ( 'NONE',  ( -10.99999999999999300, -20.00000000000000000, 10.00000000000000000 ) ) ;
#233 = ORIENTED_EDGE ( 'NONE', *, *, #1198, .F. ) ;
#234 = DIRECTION ( 'NONE',  ( -0.0000000000000000000, -0.0000000000000000000, 1.000000000000000000 ) ) ;
#235 = DIRECTION ( 'NONE',  ( 1.000000000000000000, 0.0000000000000000000, 0.0000000000000000000 ) ) ;
#236 = ORIENTED_EDGE ( 'NONE', *, *, #626, .F. ) ;
#237 = ORIENTED_EDGE ( 'NONE', *, *, #1208, .T. ) ;
#238 = ORIENTED_EDGE ( 'NONE', *, *, #933, .F. ) ;
#239 = ORIENTED_EDGE ( 'NONE', *, *, #598, .F. ) ;
#240 = PLANE ( 'NONE',  #127 ) ;
#241 = CARTESIAN_POINT ( 'NONE',  ( -5.249999999999996400, 6.429395695523600200E-016, 9.224999999999996100 ) ) ;
#242 = EDGE_CURVE ( 'NONE', #322, #371, #218, .T. ) ;
#243 = DIRECTION ( 'NONE',  ( 0.0000000000000000000, 0.0000000000000000000, -1.000000000000000000 ) ) ;
#244 = DIRECTION ( 'NONE',  ( -0.0000000000000000000, -0.0000000000000000000, 1.000000000000000000 ) ) ;
#245 = VECTOR ( 'NONE', #1230, 1000.000000000000000 ) ;
#246 = EDGE_CURVE ( 'NONE', #388, #496, #189, .T. ) ;
#247 = CARTESIAN_POINT ( 'NONE',  ( -40.00000000000000700, -37.00000000000000000, 10.00000000000000000 ) ) ;
#248 = FACE_OUTER_BOUND ( 'NONE', #1064, .T. ) ;
#249 = DIRECTION ( 'NONE',  ( -1.000000000000000000, 0.0000000000000000000, 0.0000000000000000000 ) ) ;
#250 = ADVANCED_FACE ( 'NONE', ( #478 ), #958, .F. ) ;
#251 = AXIS2_PLACEMENT_3D ( 'NONE', #75, #576, #297 ) ;
#252 = ORIENTED_EDGE ( 'NONE', *, *, #405, .T. ) ;
#253 = AXIS2_PLACEMENT_3D ( 'NONE', #1131, #825, #821 ) ;
#254 = CARTESIAN_POINT ( 'NONE',  ( 39.99999999999999300, 37.00000000000000000, 10.00000000000000000 ) ) ;
#255 = VERTEX_POINT ( 'NONE', #1304 ) ;
#256 = DIRECTION ( 'NONE',  ( -0.7071067811865471300, 8.659560562354927900E-017, 0.7071067811865479100 ) ) ;
#257 = DIRECTION ( 'NONE',  ( -0.0000000000000000000, -0.0000000000000000000, 1.000000000000000000 ) ) ;
#258 = EDGE_CURVE ( 'NONE', #741, #1139, #1246, .T. ) ;
#259 = DIRECTION ( 'NONE',  ( 1.000000000000000000, 0.0000000000000000000, 0.0000000000000000000 ) ) ;
#260 = FACE_OUTER_BOUND ( 'NONE', #714, .T. ) ;
#261 = DIRECTION ( 'NONE',  ( -0.0000000000000000000, -0.0000000000000000000, 1.000000000000000000 ) ) ;
#262 = FACE_OUTER_BOUND ( 'NONE', #930, .T. ) ;
#263 = PRESENTATION_STYLE_ASSIGNMENT (( #7 ) ) ;
#264 = PLANE ( 'NONE',  #1146 ) ;
#265 = EDGE_CURVE ( 'NONE', #1129, #1060, #151, .T. ) ;
#266 = EDGE_LOOP ( 'NONE', ( #72, #237, #493, #95 ) ) ;
#267 = PRODUCT_DEFINITION_SHAPE ( 'NONE', 'NONE',  #3 ) ;
#268 = ORIENTED_EDGE ( 'NONE', *, *, #246, .F. ) ;
#269 = ORIENTED_EDGE ( 'NONE', *, *, #982, .F. ) ;
#270 = DIRECTION ( 'NONE',  ( -1.000000000000000000, 0.0000000000000000000, 0.0000000000000000000 ) ) ;
#271 = EDGE_LOOP ( 'NONE', ( #1057, #937 ) ) ;
#272 = EDGE_LOOP ( 'NONE', ( #1168, #854 ) ) ;
#273 =( NAMED_UNIT ( * ) PLANE_ANGLE_UNIT ( ) SI_UNIT ( $, .RADIAN. ) );
#274 = DIRECTION ( 'NONE',  ( 0.0000000000000000000, 0.0000000000000000000, -1.000000000000000000 ) ) ;
#275 = DIRECTION ( 'NONE',  ( -1.000000000000000000, 0.0000000000000000000, 0.0000000000000000000 ) ) ;
#276 =( GEOMETRIC_REPRESENTATION_CONTEXT ( 3 ) GLOBAL_UNCERTAINTY_ASSIGNED_CONTEXT ( ( #605 ) ) GLOBAL_UNIT_ASSIGNED_CONTEXT ( ( #35, #1156, #547 ) ) REPRESENTATION_CONTEXT ( 'NONE', 'WORKASPACE' ) );
#277 = FACE_OUTER_BOUND ( 'NONE', #560, .T. ) ;
#278 = DIRECTION ( 'NONE',  ( -0.0000000000000000000, -0.0000000000000000000, 1.000000000000000000 ) ) ;
#279 = FACE_BOUND ( 'NONE', #272, .T. ) ;
#280 = DIRECTION ( 'NONE',  ( -0.0000000000000000000, -0.0000000000000000000, 1.000000000000000000 ) ) ;
#281 = CIRCLE ( 'NONE', #904, 1.000000000000000900 ) ;
#282 = CARTESIAN_POINT ( 'NONE',  ( -26.24999999999999300, -20.00000000000000000, 1.734723475976807100E-015 ) ) ;
#283 = VECTOR ( 'NONE', #1258, 1000.000000000000000 ) ;
#284 = ADVANCED_FACE ( 'NONE', ( #603 ), #1002, .F. ) ;
#285 = ORIENTED_EDGE ( 'NONE', *, *, #982, .T. ) ;
#286 = APPLICATION_PROTOCOL_DEFINITION ( 'draft international standard', 'automotive_design', 1998, #1249 ) ;
#287 = EDGE_CURVE ( 'NONE', #741, #834, #33, .T. ) ;
#288 = CARTESIAN_POINT ( 'NONE',  ( 20.00000000000000000, 20.00000000000000000, 10.00000000000000000 ) ) ;
#289 = EDGE_LOOP ( 'NONE', ( #1059, #268, #56, #226 ) ) ;
#290 = DIRECTION ( 'NONE',  ( 1.000000000000000000, 0.0000000000000000000, 0.0000000000000000000 ) ) ;
#291 = ORIENTED_EDGE ( 'NONE', *, *, #415, .F. ) ;
#292 = CARTESIAN_POINT ( 'NONE',  ( 13.75000000000000000, 20.00000000000000000, 10.00000000000000000 ) ) ;
#293 = CYLINDRICAL_SURFACE ( 'NONE', #608, 6.250000000000001800 ) ;
#294 = CARTESIAN_POINT ( 'NONE',  ( -26.24999999999999300, -20.00000000000000000, 10.00000000000000000 ) ) ;
#295 = ORIENTED_EDGE ( 'NONE', *, *, #771, .F. ) ;
#296 = DIRECTION ( 'NONE',  ( -0.0000000000000000000, -0.0000000000000000000, 1.000000000000000000 ) ) ;
#297 = DIRECTION ( 'NONE',  ( 1.000000000000000000, 0.0000000000000000000, 0.0000000000000000000 ) ) ;
#298 = EDGE_CURVE ( 'NONE', #191, #1138, #1262, .T. ) ;
#299 = ORIENTED_EDGE ( 'NONE', *, *, #999, .T. ) ;
#300 = DIRECTION ( 'NONE',  ( 1.000000000000000000, 0.0000000000000000000, 0.0000000000000000000 ) ) ;
#301 = PLANE ( 'NONE',  #486 ) ;
#302 = ORIENTED_EDGE ( 'NONE', *, *, #1244, .F. ) ;
#303 = DIRECTION ( 'NONE',  ( -0.0000000000000000000, -0.0000000000000000000, 1.000000000000000000 ) ) ;
#304 = EDGE_CURVE ( 'NONE', #395, #951, #731, .T. ) ;
#305 = VECTOR ( 'NONE', #1051, 1000.000000000000100 ) ;
#306 = LINE ( 'NONE', #767, #137 ) ;
#307 = DIRECTION ( 'NONE',  ( 0.0000000000000000000, 0.0000000000000000000, 1.000000000000000000 ) ) ;
#308 = ORIENTED_EDGE ( 'NONE', *, *, #999, .F. ) ;
#309 = ORIENTED_EDGE ( 'NONE', *, *, #415, .T. ) ;
#310 =( GEOMETRIC_REPRESENTATION_CONTEXT ( 3 ) GLOBAL_UNCERTAINTY_ASSIGNED_CONTEXT ( ( #1175 ) ) GLOBAL_UNIT_ASSIGNED_CONTEXT ( ( #819, #735, #947 ) ) REPRESENTATION_CONTEXT ( 'NONE', 'WORKASPACE' ) );
#311 = ORIENTED_EDGE ( 'NONE', *, *, #1211, .T. ) ;
#312 = VERTEX_POINT ( 'NONE', #409 ) ;
#313 = DIRECTION ( 'NONE',  ( 1.000000000000000000, 0.0000000000000000000, 0.0000000000000000000 ) ) ;
#314 = FACE_OUTER_BOUND ( 'NONE', #91, .T. ) ;
#315 = FACE_OUTER_BOUND ( 'NONE', #568, .T. ) ;
#316 = EDGE_CURVE ( 'NONE', #378, #759, #446, .T. ) ;
#317 = DIRECTION ( 'NONE',  ( -0.0000000000000000000, -0.0000000000000000000, 1.000000000000000000 ) ) ;
#318 = VERTEX_POINT ( 'NONE', #681 ) ;
#319 = DIRECTION ( 'NONE',  ( 0.0000000000000000000, 0.7071067811865451300, 0.7071067811865500200 ) ) ;
#320 = CARTESIAN_POINT ( 'NONE',  ( -19.99999999999999300, 20.00000000000000000, 10.00000000000000000 ) ) ;
#321 = EDGE_CURVE ( 'NONE', #829, #462, #705, .T. ) ;
#322 = VERTEX_POINT ( 'NONE', #403 ) ;
#323 = DIRECTION ( 'NONE',  ( 1.000000000000000000, 0.0000000000000000000, 0.0000000000000000000 ) ) ;
#324 = ORIENTED_EDGE ( 'NONE', *, *, #1220, .T. ) ;
#325 = AXIS2_PLACEMENT_3D ( 'NONE', #153, #858, #259 ) ;
#326 = SURFACE_SIDE_STYLE ('',( #366 ) ) ;
#327 = DIRECTION ( 'NONE',  ( -1.000000000000000000, 0.0000000000000000000, 0.0000000000000000000 ) ) ;
#328 = CARTESIAN_POINT ( 'NONE',  ( -13.74999999999999300, -20.00000000000000000, 4.000000000000000000 ) ) ;
#329 = DIRECTION ( 'NONE',  ( 0.0000000000000000000, 0.0000000000000000000, -1.000000000000000000 ) ) ;
#330 = FACE_OUTER_BOUND ( 'NONE', #936, .T. ) ;
#331 = DIRECTION ( 'NONE',  ( -1.000000000000000000, 0.0000000000000000000, 0.0000000000000000000 ) ) ;
#332 = VECTOR ( 'NONE', #456, 1000.000000000000000 ) ;
#333 = DIRECTION ( 'NONE',  ( -1.000000000000000000, 0.0000000000000000000, 0.0000000000000000000 ) ) ;
#334 = CIRCLE ( 'NONE', #205, 3.000000000000002700 ) ;
#335 = SURFACE_STYLE_FILL_AREA ( #851 ) ;
#336 = AXIS2_PLACEMENT_3D ( 'NONE', #790, #168, #695 ) ;
#337 = CARTESIAN_POINT ( 'NONE',  ( -37.00000000000000700, -37.00000000000000000, 7.999999999999984900 ) ) ;
#338 = EDGE_LOOP ( 'NONE', ( #1172, #622, #198, #1095 ) ) ;
#339 = DIRECTION ( 'NONE',  ( 0.0000000000000000000, 0.0000000000000000000, -1.000000000000000000 ) ) ;
#340 = DIRECTION ( 'NONE',  ( -0.0000000000000000000, -0.0000000000000000000, 1.000000000000000000 ) ) ;
#341 = ORIENTED_EDGE ( 'NONE', *, *, #830, .T. ) ;
#342 = ADVANCED_FACE ( 'NONE', ( #674, #187 ), #301, .F. ) ;
#343 = CARTESIAN_POINT ( 'NONE',  ( 36.99999999999999300, 37.00000000000000000, 10.00000000000000000 ) ) ;
#344 = CARTESIAN_POINT ( 'NONE',  ( 29.00000000000000000, 20.00000000000000000, 4.000000000000000000 ) ) ;
#345 = DIRECTION ( 'NONE',  ( 1.000000000000000000, 0.0000000000000000000, 0.0000000000000000000 ) ) ;
#346 = AXIS2_PLACEMENT_3D ( 'NONE', #531, #1120, #427 ) ;
#347 = EDGE_CURVE ( 'NONE', #611, #752, #15, .T. ) ;
#348 = VERTEX_POINT ( 'NONE', #618 ) ;
#349 = DIRECTION ( 'NONE',  ( -0.0000000000000000000, -0.0000000000000000000, 1.000000000000000000 ) ) ;
#350 = CYLINDRICAL_SURFACE ( 'NONE', #216, 6.249999999999998200 ) ;
#351 = LINE ( 'NONE', #636, #706 ) ;
#352 = AXIS2_PLACEMENT_3D ( 'NONE', #664, #1179, #863 ) ;
#353 = CARTESIAN_POINT ( 'NONE',  ( -37.00000000000000700, -40.00000000000000000, 10.00000000000000000 ) ) ;
#354 = DIRECTION ( 'NONE',  ( 1.000000000000000000, 0.0000000000000000000, 0.0000000000000000000 ) ) ;
#355 = ORIENTED_EDGE ( 'NONE', *, *, #771, .T. ) ;
#356 = ORIENTED_EDGE ( 'NONE', *, *, #960, .F. ) ;
#357 = DIRECTION ( 'NONE',  ( 0.7071067811865451300, 0.0000000000000000000, -0.7071067811865500200 ) ) ;
#358 = ORIENTED_EDGE ( 'NONE', *, *, #626, .T. ) ;
#359 = CARTESIAN_POINT ( 'NONE',  ( 26.25000000000001100, -20.00000000000000000, 10.00000000000000000 ) ) ;
#360 = ORIENTED_EDGE ( 'NONE', *, *, #369, .F. ) ;
#361 = AXIS2_PLACEMENT_3D ( 'NONE', #836, #28, #136 ) ;
#362 = ORIENTED_EDGE ( 'NONE', *, *, #495, .T. ) ;
#363 = DIRECTION ( 'NONE',  ( -0.0000000000000000000, -0.0000000000000000000, 1.000000000000000000 ) ) ;
#364 = VECTOR ( 'NONE', #357, 1000.000000000000100 ) ;
#365 = CARTESIAN_POINT ( 'NONE',  ( 0.0000000000000000000, 38.00000000000000000, 10.00000000000000000 ) ) ;
#366 = SURFACE_STYLE_FILL_AREA ( #509 ) ;
#367 = CYLINDRICAL_SURFACE ( 'NONE', #1227, 3.000000000000002700 ) ;
#368 = CARTESIAN_POINT ( 'NONE',  ( -19.99999999999999300, -20.00000000000000000, 10.00000000000000000 ) ) ;
#369 = EDGE_CURVE ( 'NONE', #1060, #1129, #1217, .T. ) ;
#370 = CARTESIAN_POINT ( 'NONE',  ( 29.00000000000000000, 20.00000000000000000, 10.00000000000000000 ) ) ;
#371 = VERTEX_POINT ( 'NONE', #1206 ) ;
#372 = ORIENTED_EDGE ( 'NONE', *, *, #662, .T. ) ;
#373 = DIRECTION ( 'NONE',  ( 0.0000000000000000000, 0.0000000000000000000, -1.000000000000000000 ) ) ;
#374 = EDGE_LOOP ( 'NONE', ( #1151, #1225, #399, #1110, #1122, #700, #762, #285 ) ) ;
#375 = ADVANCED_FACE ( 'NONE', ( #970 ), #928, .F. ) ;
#376 = DIRECTION ( 'NONE',  ( 1.000000000000000000, 0.0000000000000000000, 0.0000000000000000000 ) ) ;
#377 = AXIS2_PLACEMENT_3D ( 'NONE', #648, #750, #655 ) ;
#378 = VERTEX_POINT ( 'NONE', #1020 ) ;
#379 = ORIENTED_EDGE ( 'NONE', *, *, #689, .F. ) ;
#380 = AXIS2_PLACEMENT_3D ( 'NONE', #1174, #983, #627 ) ;
#381 = CARTESIAN_POINT ( 'NONE',  ( -13.74999999999999300, 20.00000000000000000, 4.000000000000000000 ) ) ;
#382 = FACE_OUTER_BOUND ( 'NONE', #922, .T. ) ;
#383 = FACE_BOUND ( 'NONE', #903, .T. ) ;
#384 = FACE_OUTER_BOUND ( 'NONE', #1089, .T. ) ;
#385 = VERTEX_POINT ( 'NONE', #934 ) ;
#386 = DIRECTION ( 'NONE',  ( -0.0000000000000000000, -0.0000000000000000000, 1.000000000000000000 ) ) ;
#387 = EDGE_CURVE ( 'NONE', #1181, #24, #956, .T. ) ;
#388 = VERTEX_POINT ( 'NONE', #1026 ) ;
#389 = STYLED_ITEM ( 'NONE', ( #591 ), #57 ) ;
#390 = EDGE_LOOP ( 'NONE', ( #585, #768, #471, #694 ) ) ;
#391 = DIRECTION ( 'NONE',  ( 0.7071067811865471300, 0.0000000000000000000, 0.7071067811865479100 ) ) ;
#392 = ORIENTED_EDGE ( 'NONE', *, *, #500, .T. ) ;
#393 = EDGE_CURVE ( 'NONE', #496, #139, #465, .T. ) ;
#394 = EDGE_CURVE ( 'NONE', #162, #642, #1027, .T. ) ;
#395 = VERTEX_POINT ( 'NONE', #129 ) ;
#396 = AXIS2_PLACEMENT_3D ( 'NONE', #225, #221, #1031 ) ;
#397 = CARTESIAN_POINT ( 'NONE',  ( -19.99999999999999300, 20.00000000000000000, 10.00000000000000000 ) ) ;
#398 = CYLINDRICAL_SURFACE ( 'NONE', #720, 6.250000000000001800 ) ;
#399 = ORIENTED_EDGE ( 'NONE', *, *, #907, .T. ) ;
#400 = EDGE_CURVE ( 'NONE', #849, #162, #519, .T. ) ;
#401 = CIRCLE ( 'NONE', #1213, 5.249999999999995600 ) ;
#402 = LINE ( 'NONE', #938, #167 ) ;
#403 = CARTESIAN_POINT ( 'NONE',  ( 11.00000000000000700, -20.00000000000000000, 10.00000000000000000 ) ) ;
#404 = CYLINDRICAL_SURFACE ( 'NONE', #725, 3.000000000000002700 ) ;
#405 = EDGE_CURVE ( 'NONE', #139, #1123, #717, .T. ) ;
#406 = ORIENTED_EDGE ( 'NONE', *, *, #1300, .F. ) ;
#407 = DIRECTION ( 'NONE',  ( -1.000000000000000000, 0.0000000000000000000, 0.0000000000000000000 ) ) ;
#408 = VERTEX_POINT ( 'NONE', #232 ) ;
#409 = CARTESIAN_POINT ( 'NONE',  ( -40.00000000000000700, -37.00000000000000000, 7.999999999999984900 ) ) ;
#410 = EDGE_LOOP ( 'NONE', ( #302, #202, #546, #1202 ) ) ;
#411 = AXIS2_PLACEMENT_3D ( 'NONE', #707, #121, #935 ) ;
#412 = DIRECTION ( 'NONE',  ( 1.000000000000000000, 0.0000000000000000000, 0.0000000000000000000 ) ) ;
#413 = LINE ( 'NONE', #25, #46 ) ;
#414 = AXIS2_PLACEMENT_3D ( 'NONE', #758, #340, #453 ) ;
#415 = EDGE_CURVE ( 'NONE', #222, #1234, #215, .T. ) ;
#416 = FACE_BOUND ( 'NONE', #271, .T. ) ;
#417 = LINE ( 'NONE', #353, #810 ) ;
#418 = LINE ( 'NONE', #732, #52 ) ;
#419 = DIRECTION ( 'NONE',  ( -0.0000000000000000000, -0.0000000000000000000, 1.000000000000000000 ) ) ;
#420 = CARTESIAN_POINT ( 'NONE',  ( 36.99999999999999300, 38.00000000000000000, 10.00000000000000000 ) ) ;
#421 = AXIS2_PLACEMENT_3D ( 'NONE', #381, #1279, #1287 ) ;
#422 = ORIENTED_EDGE ( 'NONE', *, *, #1276, .F. ) ;
#423 = DIRECTION ( 'NONE',  ( 0.0000000000000000000, -0.7071067811865451300, -0.7071067811865500200 ) ) ;
#424 = DIRECTION ( 'NONE',  ( 0.0000000000000000000, 0.0000000000000000000, -1.000000000000000000 ) ) ;
#425 = ORIENTED_EDGE ( 'NONE', *, *, #558, .F. ) ;
#426 = CARTESIAN_POINT ( 'NONE',  ( 20.00000000000000700, -20.00000000000000000, 1.734723475976807100E-015 ) ) ;
#427 = DIRECTION ( 'NONE',  ( 0.0000000000000000000, -1.000000000000000000, 0.0000000000000000000 ) ) ;
#428 = CIRCLE ( 'NONE', #1286, 5.249999999999996400 ) ;
#429 = CONICAL_SURFACE ( 'NONE', #652, 1.000000000000000900, 0.7853981633974442800 ) ;
#430 = EDGE_CURVE ( 'NONE', #395, #793, #1105, .T. ) ;
#431 = VECTOR ( 'NONE', #120, 1000.000000000000000 ) ;
#432 = CIRCLE ( 'NONE', #1024, 6.250000000000001800 ) ;
#433 = DIRECTION ( 'NONE',  ( 0.0000000000000000000, 1.000000000000000000, 0.0000000000000000000 ) ) ;
#434 = ORIENTED_EDGE ( 'NONE', *, *, #321, .T. ) ;
#435 = CARTESIAN_POINT ( 'NONE',  ( 36.99999999999999300, 38.00000000000000000, 10.00000000000000000 ) ) ;
#436 = CARTESIAN_POINT ( 'NONE',  ( -40.00000000000000700, -40.00000000000000000, 7.999999999999984900 ) ) ;
#437 = AXIS2_PLACEMENT_3D ( 'NONE', #1154, #1149, #1034 ) ;
#438 = DIRECTION ( 'NONE',  ( -0.0000000000000000000, -0.0000000000000000000, 1.000000000000000000 ) ) ;
#439 = VERTEX_POINT ( 'NONE', #1221 ) ;
#440 = CIRCLE ( 'NONE', #581, 3.000000000000002700 ) ;
#441 = FACE_OUTER_BOUND ( 'NONE', #885, .T. ) ;
#442 = ADVANCED_BREP_SHAPE_REPRESENTATION ( 'ALP2020', ( #57, #1219 ), #276 ) ;
#443 = ORIENTED_EDGE ( 'NONE', *, *, #298, .T. ) ;
#444 = CARTESIAN_POINT ( 'NONE',  ( 37.99999999999999300, -37.00000000000000000, 10.00000000000000000 ) ) ;
#445 = STYLED_ITEM ( 'NONE', ( #656 ), #639 ) ;
#446 = CIRCLE ( 'NONE', #251, 6.249999999999998200 ) ;
#447 = FACE_OUTER_BOUND ( 'NONE', #621, .T. ) ;
#448 = AXIS2_PLACEMENT_3D ( 'NONE', #529, #424, #333 ) ;
#449 = DIRECTION ( 'NONE',  ( -0.0000000000000000000, -0.0000000000000000000, 1.000000000000000000 ) ) ;
#450 = PLANE ( 'NONE',  #361 ) ;
#451 = ORIENTED_EDGE ( 'NONE', *, *, #1083, .F. ) ;
#452 = DIRECTION ( 'NONE',  ( 1.000000000000000000, 0.0000000000000000000, 0.0000000000000000000 ) ) ;
#453 = DIRECTION ( 'NONE',  ( 1.000000000000000000, 0.0000000000000000000, 0.0000000000000000000 ) ) ;
#454 = ORIENTED_EDGE ( 'NONE', *, *, #843, .F. ) ;
#455 = EDGE_CURVE ( 'NONE', #312, #199, #402, .T. ) ;
#456 = DIRECTION ( 'NONE',  ( -0.0000000000000000000, -0.0000000000000000000, 1.000000000000000000 ) ) ;
#457 = ORIENTED_EDGE ( 'NONE', *, *, #394, .F. ) ;
#458 = CARTESIAN_POINT ( 'NONE',  ( -10.99999999999999300, -20.00000000000000000, 10.00000000000000000 ) ) ;
#459 = DIRECTION ( 'NONE',  ( -0.0000000000000000000, -0.0000000000000000000, 1.000000000000000000 ) ) ;
#460 = VERTEX_POINT ( 'NONE', #114 ) ;
#461 = VECTOR ( 'NONE', #484, 1000.000000000000000 ) ;
#462 = VERTEX_POINT ( 'NONE', #526 ) ;
#463 = EDGE_CURVE ( 'NONE', #385, #793, #135, .T. ) ;
#464 = CARTESIAN_POINT ( 'NONE',  ( 36.99999999999999300, -37.00000000000000000, 7.999999999999984900 ) ) ;
#465 = LINE ( 'NONE', #835, #687 ) ;
#466 = EDGE_LOOP ( 'NONE', ( #814, #1113, #667, #1078 ) ) ;
#467 = STYLED_ITEM ( 'NONE', ( #263 ), #477 ) ;
#468 = DIRECTION ( 'NONE',  ( 0.0000000000000000000, 0.0000000000000000000, -1.000000000000000000 ) ) ;
#469 = CARTESIAN_POINT ( 'NONE',  ( -19.99999999999999300, -20.00000000000000000, 10.00000000000000000 ) ) ;
#470 = DIRECTION ( 'NONE',  ( -1.000000000000000000, 0.0000000000000000000, 0.0000000000000000000 ) ) ;
#471 = ORIENTED_EDGE ( 'NONE', *, *, #242, .T. ) ;
#472 =( LENGTH_UNIT ( ) NAMED_UNIT ( * ) SI_UNIT ( .MILLI., .METRE. ) );
#473 = CARTESIAN_POINT ( 'NONE',  ( -13.74999999999999300, -20.00000000000000000, 4.000000000000000000 ) ) ;
#474 = ORIENTED_EDGE ( 'NONE', *, *, #1171, .F. ) ;
#475 = CARTESIAN_POINT ( 'NONE',  ( -40.00000000000000700, -37.00000000000000000, 7.999999999999984900 ) ) ;
#476 = CARTESIAN_POINT ( 'NONE',  ( -28.99999999999999300, -20.00000000000000000, 10.00000000000000000 ) ) ;
#477 = ADVANCED_FACE ( 'NONE', ( #880 ), #942, .F. ) ;
#478 = FACE_OUTER_BOUND ( 'NONE', #390, .T. ) ;
#479 = EDGE_CURVE ( 'NONE', #318, #312, #1176, .T. ) ;
#480 = CARTESIAN_POINT ( 'NONE',  ( -6.025000000000001200, 7.378496964862804100E-016, 10.00000000000000000 ) ) ;
#481 = ORIENTED_EDGE ( 'NONE', *, *, #78, .T. ) ;
#482 = CARTESIAN_POINT ( 'NONE',  ( -37.00000000000000700, 40.00000000000000000, 0.0000000000000000000 ) ) ;
#483 = ORIENTED_EDGE ( 'NONE', *, *, #400, .F. ) ;
#484 = DIRECTION ( 'NONE',  ( 0.0000000000000000000, 1.000000000000000000, 0.0000000000000000000 ) ) ;
#485 = ADVANCED_FACE ( 'NONE', ( #844 ), #240, .F. ) ;
#486 = AXIS2_PLACEMENT_3D ( 'NONE', #501, #775, #14 ) ;
#487 = ORIENTED_EDGE ( 'NONE', *, *, #174, .F. ) ;
#488 = DIRECTION ( 'NONE',  ( -1.000000000000000000, 0.0000000000000000000, -0.0000000000000000000 ) ) ;
#489 = FACE_BOUND ( 'NONE', #194, .T. ) ;
#490 = LINE ( 'NONE', #292, #1001 ) ;
#491 = CARTESIAN_POINT ( 'NONE',  ( -10.99999999999999300, 20.00000000000000000, 4.000000000000000000 ) ) ;
#492 = DIRECTION ( 'NONE',  ( -0.0000000000000000000, -0.0000000000000000000, 1.000000000000000000 ) ) ;
#493 = ORIENTED_EDGE ( 'NONE', *, *, #733, .T. ) ;
#494 = VERTEX_POINT ( 'NONE', #857 ) ;
#495 = EDGE_CURVE ( 'NONE', #561, #312, #537, .T. ) ;
#496 = VERTEX_POINT ( 'NONE', #31 ) ;
#497 = DIRECTION ( 'NONE',  ( -0.0000000000000000000, -0.0000000000000000000, 1.000000000000000000 ) ) ;
#498 = ORIENTED_EDGE ( 'NONE', *, *, #818, .T. ) ;
#499 = ORIENTED_EDGE ( 'NONE', *, *, #573, .T. ) ;
#500 = EDGE_CURVE ( 'NONE', #607, #196, #100, .T. ) ;
#501 = CARTESIAN_POINT ( 'NONE',  ( 26.25000000000001100, -20.00000000000000000, 4.000000000000000000 ) ) ;
#502 = CIRCLE ( 'NONE', #791, 9.000000000000001800 ) ;
#503 = PLANE ( 'NONE',  #1186 ) ;
#504 = VECTOR ( 'NONE', #520, 1000.000000000000000 ) ;
#505 = CIRCLE ( 'NONE', #19, 5.249999999999995600 ) ;
#506 = ORIENTED_EDGE ( 'NONE', *, *, #89, .F. ) ;
#507 = MECHANICAL_DESIGN_GEOMETRIC_PRESENTATION_REPRESENTATION (  '', ( #467 ), #310 ) ;
#508 = EDGE_LOOP ( 'NONE', ( #1077, #1274, #615, #895 ) ) ;
#509 = FILL_AREA_STYLE ('',( #614 ) ) ;
#510 = AXIS2_PLACEMENT_3D ( 'NONE', #175, #588, #1290 ) ;
#511 = DIRECTION ( 'NONE',  ( 0.0000000000000000000, -1.000000000000000000, 0.0000000000000000000 ) ) ;
#512 = EDGE_LOOP ( 'NONE', ( #59, #190, #562, #443 ) ) ;
#513 = ORIENTED_EDGE ( 'NONE', *, *, #265, .T. ) ;
#514 = AXIS2_PLACEMENT_3D ( 'NONE', #1041, #234, #1130 ) ;
#515 = CARTESIAN_POINT ( 'NONE',  ( -40.00000000000000700, 40.00000000000000000, 0.0000000000000000000 ) ) ;
#516 = VECTOR ( 'NONE', #785, 1000.000000000000000 ) ;
#517 = CIRCLE ( 'NONE', #224, 9.000000000000001800 ) ;
#518 = CARTESIAN_POINT ( 'NONE',  ( 29.00000000000000000, 20.00000000000000000, 10.00000000000000000 ) ) ;
#519 = CIRCLE ( 'NONE', #60, 6.249999999999998200 ) ;
#520 = DIRECTION ( 'NONE',  ( -1.000000000000000000, -0.0000000000000000000, -0.0000000000000000000 ) ) ;
#521 = EDGE_CURVE ( 'NONE', #494, #951, #635, .T. ) ;
#522 = CARTESIAN_POINT ( 'NONE',  ( -37.00000000000000700, 40.00000000000000000, 7.999999999999984900 ) ) ;
#523 = ORIENTED_EDGE ( 'NONE', *, *, #669, .F. ) ;
#524 = AXIS2_PLACEMENT_3D ( 'NONE', #152, #536, #644 ) ;
#525 = EDGE_LOOP ( 'NONE', ( #308, #1266 ) ) ;
#526 = CARTESIAN_POINT ( 'NONE',  ( -28.99999999999999300, 20.00000000000000000, 4.000000000000000000 ) ) ;
#527 = EDGE_CURVE ( 'NONE', #822, #222, #334, .T. ) ;
#528 = DIRECTION ( 'NONE',  ( 0.0000000000000000000, 0.0000000000000000000, -1.000000000000000000 ) ) ;
#529 = CARTESIAN_POINT ( 'NONE',  ( -37.00000000000000700, 37.00000000000000000, 10.00000000000000000 ) ) ;
#530 = PLANE ( 'NONE',  #1196 ) ;
#531 = CARTESIAN_POINT ( 'NONE',  ( -38.00000000000000700, 0.0000000000000000000, 10.00000000000000000 ) ) ;
#532 = CYLINDRICAL_SURFACE ( 'NONE', #414, 9.000000000000001800 ) ;
#533 = LINE ( 'NONE', #68, #1229 ) ;
#534 = ADVANCED_FACE ( 'NONE', ( #1134, #602 ), #530, .F. ) ;
#535 = AXIS2_PLACEMENT_3D ( 'NONE', #710, #807, #915 ) ;
#536 = DIRECTION ( 'NONE',  ( -0.0000000000000000000, -0.0000000000000000000, 1.000000000000000000 ) ) ;
#537 = CIRCLE ( 'NONE', #101, 3.000000000000002700 ) ;
#538 = CARTESIAN_POINT ( 'NONE',  ( 36.99999999999999300, -37.00000000000000000, 10.00000000000000000 ) ) ;
#539 = ORIENTED_EDGE ( 'NONE', *, *, #455, .F. ) ;
#540 = DIRECTION ( 'NONE',  ( -1.000000000000000000, 0.0000000000000000000, 0.0000000000000000000 ) ) ;
#541 = SURFACE_STYLE_USAGE ( .BOTH. , #1135 ) ;
#542 = ORIENTED_EDGE ( 'NONE', *, *, #347, .F. ) ;
#543 = DIRECTION ( 'NONE',  ( 0.0000000000000000000, 0.7071067811865500200, -0.7071067811865451300 ) ) ;
#544 = ORIENTED_EDGE ( 'NONE', *, *, #613, .F. ) ;
#545 = EDGE_CURVE ( 'NONE', #951, #222, #32, .T. ) ;
#546 = ORIENTED_EDGE ( 'NONE', *, *, #897, .T. ) ;
#547 =( NAMED_UNIT ( * ) SI_UNIT ( $, .STERADIAN. ) SOLID_ANGLE_UNIT ( ) );
#548 = EDGE_LOOP ( 'NONE', ( #698, #1167, #1145, #974 ) ) ;
#549 = ADVANCED_FACE ( 'NONE', ( #67 ), #1037, .F. ) ;
#550 = CARTESIAN_POINT ( 'NONE',  ( 26.25000000000000400, 20.00000000000000000, 10.00000000000000000 ) ) ;
#551 = COLOUR_RGB ( '',0.8941176470588234600, 0.9137254901960784000, 0.9294117647058823800 ) ;
#552 = VECTOR ( 'NONE', #599, 1000.000000000000000 ) ;
#553 = CARTESIAN_POINT ( 'NONE',  ( -19.99999999999999300, -20.00000000000000000, 10.00000000000000000 ) ) ;
#554 = AXIS2_PLACEMENT_3D ( 'NONE', #583, #792, #181 ) ;
#555 = CYLINDRICAL_SURFACE ( 'NONE', #554, 9.000000000000001800 ) ;
#556 = COLOUR_RGB ( '',0.8941176470588234600, 0.9137254901960784000, 0.9294117647058823800 ) ;
#557 = CARTESIAN_POINT ( 'NONE',  ( 0.0000000000000000000, 38.00000000000000000, 10.00000000000000000 ) ) ;
#558 = EDGE_CURVE ( 'NONE', #255, #1152, #281, .T. ) ;
#559 = CARTESIAN_POINT ( 'NONE',  ( 0.0000000000000000000, -38.00000000000000000, 10.00000000000000000 ) ) ;
#560 = EDGE_LOOP ( 'NONE', ( #637, #1094, #341, #358 ) ) ;
#561 = VERTEX_POINT ( 'NONE', #1245 ) ;
#562 = ORIENTED_EDGE ( 'NONE', *, *, #217, .T. ) ;
#563 = FILL_AREA_STYLE ('',( #63 ) ) ;
#564 = ORIENTED_EDGE ( 'NONE', *, *, #867, .T. ) ;
#565 = CARTESIAN_POINT ( 'NONE',  ( 36.99999999999999300, -38.00000000000000000, 10.00000000000000000 ) ) ;
#566 = ORIENTED_EDGE ( 'NONE', *, *, #4, .F. ) ;
#567 = CARTESIAN_POINT ( 'NONE',  ( 20.00000000000000000, 20.00000000000000000, 4.000000000000000000 ) ) ;
#568 = EDGE_LOOP ( 'NONE', ( #1226, #802, #594, #905 ) ) ;
#569 = DIRECTION ( 'NONE',  ( 1.000000000000000000, 0.0000000000000000000, 0.0000000000000000000 ) ) ;
#570 = FACE_BOUND ( 'NONE', #1306, .T. ) ;
#571 = FACE_OUTER_BOUND ( 'NONE', #466, .T. ) ;
#572 = AXIS2_PLACEMENT_3D ( 'NONE', #1177, #1080, #991 ) ;
#573 = EDGE_CURVE ( 'NONE', #1099, #980, #1, .T. ) ;
#574 = EDGE_LOOP ( 'NONE', ( #451, #625, #513, #233 ) ) ;
#575 = DIRECTION ( 'NONE',  ( -0.0000000000000000000, -0.0000000000000000000, 1.000000000000000000 ) ) ;
#576 = DIRECTION ( 'NONE',  ( -0.0000000000000000000, -0.0000000000000000000, 1.000000000000000000 ) ) ;
#577 = DIRECTION ( 'NONE',  ( -0.0000000000000000000, -0.0000000000000000000, 1.000000000000000000 ) ) ;
#578 = ADVANCED_FACE ( 'NONE', ( #571 ), #617, .F. ) ;
#579 = AXIS2_PLACEMENT_3D ( 'NONE', #916, #1210, #597 ) ;
#580 = SURFACE_STYLE_USAGE ( .BOTH. , #1073 ) ;
#581 = AXIS2_PLACEMENT_3D ( 'NONE', #721, #1233, #634 ) ;
#582 = ORIENTED_EDGE ( 'NONE', *, *, #393, .F. ) ;
#583 = CARTESIAN_POINT ( 'NONE',  ( 20.00000000000000000, 20.00000000000000000, 10.00000000000000000 ) ) ;
#584 = ADVANCED_FACE ( 'NONE', ( #248 ), #65, .F. ) ;
#585 = ORIENTED_EDGE ( 'NONE', *, *, #207, .F. ) ;
#586 = SHAPE_DEFINITION_REPRESENTATION ( #267, #442 ) ;
#587 = CIRCLE ( 'NONE', #411, 9.000000000000001800 ) ;
#588 = DIRECTION ( 'NONE',  ( -0.0000000000000000000, -0.0000000000000000000, 1.000000000000000000 ) ) ;
#589 = CONICAL_SURFACE ( 'NONE', #352, 6.025000000000001200, 0.7853981633974477200 ) ;
#590 = DIRECTION ( 'NONE',  ( 0.0000000000000000000, 0.0000000000000000000, -1.000000000000000000 ) ) ;
#591 = PRESENTATION_STYLE_ASSIGNMENT (( #541 ) ) ;
#592 = PRESENTATION_LAYER_ASSIGNMENT (  '', '', ( #389 ) ) ;
#593 = CARTESIAN_POINT ( 'NONE',  ( 20.00000000000000700, -20.00000000000000000, 10.00000000000000000 ) ) ;
#594 = ORIENTED_EDGE ( 'NONE', *, *, #1056, .T. ) ;
#595 = DIRECTION ( 'NONE',  ( 1.000000000000000000, 0.0000000000000000000, 0.0000000000000000000 ) ) ;
#596 = AXIS2_PLACEMENT_3D ( 'NONE', #1058, #212, #1214 ) ;
#597 = DIRECTION ( 'NONE',  ( 1.000000000000000000, 0.0000000000000000000, 0.0000000000000000000 ) ) ;
#598 = EDGE_CURVE ( 'NONE', #210, #918, #1012, .T. ) ;
#599 = DIRECTION ( 'NONE',  ( -0.0000000000000000000, -0.0000000000000000000, 1.000000000000000000 ) ) ;
#600 = DIRECTION ( 'NONE',  ( -0.0000000000000000000, -0.0000000000000000000, 1.000000000000000000 ) ) ;
#601 = VECTOR ( 'NONE', #27, 1000.000000000000000 ) ;
#602 = FACE_OUTER_BOUND ( 'NONE', #1183, .T. ) ;
#603 = FACE_OUTER_BOUND ( 'NONE', #107, .T. ) ;
#604 = CARTESIAN_POINT ( 'NONE',  ( 20.00000000000000000, 20.00000000000000000, 1.734723475976807100E-015 ) ) ;
#605 = UNCERTAINTY_MEASURE_WITH_UNIT (LENGTH_MEASURE( 1.000000000000000100E-005 ), #35, 'distance_accuracy_value', 'NONE');
#606 = DIRECTION ( 'NONE',  ( 1.000000000000000000, 0.0000000000000000000, 0.0000000000000000000 ) ) ;
#607 = VERTEX_POINT ( 'NONE', #1070 ) ;
#608 = AXIS2_PLACEMENT_3D ( 'NONE', #609, #208, #1303 ) ;
#609 = CARTESIAN_POINT ( 'NONE',  ( 20.00000000000000000, 20.00000000000000000, 10.00000000000000000 ) ) ;
#610 = ORIENTED_EDGE ( 'NONE', *, *, #521, .T. ) ;
#611 = VERTEX_POINT ( 'NONE', #884 ) ;
#612 = PRODUCT_DEFINITION_FORMATION_WITH_SPECIFIED_SOURCE ( 'ANY', '', #996, .NOT_KNOWN. ) ;
#613 = EDGE_CURVE ( 'NONE', #822, #395, #812, .T. ) ;
#614 = FILL_AREA_STYLE_COLOUR ( '', #556 ) ;
#615 = ORIENTED_EDGE ( 'NONE', *, *, #1003, .T. ) ;
#616 = LINE ( 'NONE', #1284, #461 ) ;
#617 = CYLINDRICAL_SURFACE ( 'NONE', #1282, 6.249999999999998200 ) ;
#618 = CARTESIAN_POINT ( 'NONE',  ( 26.25000000000001100, -20.00000000000000000, 4.000000000000000000 ) ) ;
#619 = CARTESIAN_POINT ( 'NONE',  ( 36.99999999999999300, -40.00000000000000000, 7.999999999999984900 ) ) ;
#620 = AXIS2_PLACEMENT_3D ( 'NONE', #786, #386, #1292 ) ;
#621 = EDGE_LOOP ( 'NONE', ( #973, #362, #770, #872 ) ) ;
#622 = ORIENTED_EDGE ( 'NONE', *, *, #1203, .T. ) ;
#623 = DIRECTION ( 'NONE',  ( -0.0000000000000000000, -0.0000000000000000000, 1.000000000000000000 ) ) ;
#624 = ORIENTED_EDGE ( 'NONE', *, *, #689, .T. ) ;
#625 = ORIENTED_EDGE ( 'NONE', *, *, #146, .T. ) ;
#626 = EDGE_CURVE ( 'NONE', #868, #980, #703, .T. ) ;
#627 = DIRECTION ( 'NONE',  ( 1.000000000000000000, 0.0000000000000000000, 0.0000000000000000000 ) ) ;
#628 = DIRECTION ( 'NONE',  ( 0.0000000000000000000, 1.000000000000000000, 0.0000000000000000000 ) ) ;
#629 = ORIENTED_EDGE ( 'NONE', *, *, #1017, .T. ) ;
#630 = ORIENTED_EDGE ( 'NONE', *, *, #803, .T. ) ;
#631 = DIRECTION ( 'NONE',  ( -0.0000000000000000000, -0.0000000000000000000, 1.000000000000000000 ) ) ;
#632 = EDGE_CURVE ( 'NONE', #1152, #1240, #1158, .T. ) ;
#633 = FACE_BOUND ( 'NONE', #683, .T. ) ;
#634 = DIRECTION ( 'NONE',  ( -1.000000000000000000, 0.0000000000000000000, 0.0000000000000000000 ) ) ;
#635 = LINE ( 'NONE', #1141, #230 ) ;
#636 = CARTESIAN_POINT ( 'NONE',  ( 11.00000000000000700, -20.00000000000000000, 10.00000000000000000 ) ) ;
#637 = ORIENTED_EDGE ( 'NONE', *, *, #573, .F. ) ;
#638 = CARTESIAN_POINT ( 'NONE',  ( 13.74999999999999800, 20.00000000000000000, 4.000000000000000000 ) ) ;
#639 = ADVANCED_FACE ( 'NONE', ( #729 ), #940, .F. ) ;
#640 = ORIENTED_EDGE ( 'NONE', *, *, #1253, .F. ) ;
#641 = AXIS2_PLACEMENT_3D ( 'NONE', #559, #543, #53 ) ;
#642 = VERTEX_POINT ( 'NONE', #668 ) ;
#643 = AXIS2_PLACEMENT_3D ( 'NONE', #171, #1053, #1066 ) ;
#644 = DIRECTION ( 'NONE',  ( 1.000000000000000000, 0.0000000000000000000, 0.0000000000000000000 ) ) ;
#645 =( NAMED_UNIT ( * ) PLANE_ANGLE_UNIT ( ) SI_UNIT ( $, .RADIAN. ) );
#646 = CARTESIAN_POINT ( 'NONE',  ( 0.0000000000000000000, 0.0000000000000000000, 10.00000000000000000 ) ) ;
#647 = ADVANCED_FACE ( 'NONE', ( #228, #673, #633, #383, #206, #570 ), #264, .F. ) ;
#648 = CARTESIAN_POINT ( 'NONE',  ( 20.00000000000000000, 20.00000000000000000, 10.00000000000000000 ) ) ;
#649 = ORIENTED_EDGE ( 'NONE', *, *, #400, .T. ) ;
#650 = DIRECTION ( 'NONE',  ( 0.0000000000000000000, 0.7071067811865451300, -0.7071067811865500200 ) ) ;
#651 = CIRCLE ( 'NONE', #1082, 6.250000000000001800 ) ;
#652 = AXIS2_PLACEMENT_3D ( 'NONE', #774, #468, #1182 ) ;
#653 = VECTOR ( 'NONE', #690, 1000.000000000000100 ) ;
#654 = AXIS2_PLACEMENT_3D ( 'NONE', #142, #438, #1163 ) ;
#655 = DIRECTION ( 'NONE',  ( 1.000000000000000000, 0.0000000000000000000, 0.0000000000000000000 ) ) ;
#656 = PRESENTATION_STYLE_ASSIGNMENT (( #966 ) ) ;
#657 = CARTESIAN_POINT ( 'NONE',  ( 11.00000000000000000, 20.00000000000000000, 10.00000000000000000 ) ) ;
#658 = FILL_AREA_STYLE_COLOUR ( '', #551 ) ;
#659 = SURFACE_SIDE_STYLE ('',( #840 ) ) ;
#660 = CARTESIAN_POINT ( 'NONE',  ( 20.00000000000000000, 20.00000000000000000, 4.000000000000000000 ) ) ;
#661 = CARTESIAN_POINT ( 'NONE',  ( 0.0000000000000000000, 0.0000000000000000000, 0.0000000000000000000 ) ) ;
#662 = EDGE_CURVE ( 'NONE', #312, #388, #1194, .T. ) ;
#663 = ADVANCED_FACE ( 'NONE', ( #262 ), #429, .T. ) ;
#664 = CARTESIAN_POINT ( 'NONE',  ( 0.0000000000000000000, 0.0000000000000000000, 10.00000000000000000 ) ) ;
#665 = DIRECTION ( 'NONE',  ( -0.0000000000000000000, -0.0000000000000000000, 1.000000000000000000 ) ) ;
#666 = DIRECTION ( 'NONE',  ( 1.000000000000000000, 0.0000000000000000000, 0.0000000000000000000 ) ) ;
#667 = ORIENTED_EDGE ( 'NONE', *, *, #1276, .T. ) ;
#668 = CARTESIAN_POINT ( 'NONE',  ( 13.75000000000000500, -20.00000000000000000, 4.000000000000000000 ) ) ;
#669 = EDGE_CURVE ( 'NONE', #385, #318, #533, .T. ) ;
#670 = DIRECTION ( 'NONE',  ( 0.0000000000000000000, 0.0000000000000000000, -1.000000000000000000 ) ) ;
#671 = LINE ( 'NONE', #16, #986 ) ;
#672 = PRESENTATION_LAYER_ASSIGNMENT (  '', '', ( #445 ) ) ;
#673 = FACE_BOUND ( 'NONE', #525, .T. ) ;
#674 = FACE_BOUND ( 'NONE', #1170, .T. ) ;
#675 = CIRCLE ( 'NONE', #514, 5.249999999999996400 ) ;
#676 = DIRECTION ( 'NONE',  ( -1.000000000000000000, 0.0000000000000000000, 0.0000000000000000000 ) ) ;
#677 = ORIENTED_EDGE ( 'NONE', *, *, #125, .F. ) ;
#678 = DIRECTION ( 'NONE',  ( -1.000000000000000000, 0.0000000000000000000, 0.0000000000000000000 ) ) ;
#679 =( NAMED_UNIT ( * ) SI_UNIT ( $, .STERADIAN. ) SOLID_ANGLE_UNIT ( ) );
#680 = DIRECTION ( 'NONE',  ( 1.000000000000000000, 0.0000000000000000000, 0.0000000000000000000 ) ) ;
#681 = CARTESIAN_POINT ( 'NONE',  ( -40.00000000000000700, -37.00000000000000000, 0.0000000000000000000 ) ) ;
#682 =( LENGTH_UNIT ( ) NAMED_UNIT ( * ) SI_UNIT ( .MILLI., .METRE. ) );
#683 = EDGE_LOOP ( 'NONE', ( #487, #156 ) ) ;
#684 = DIRECTION ( 'NONE',  ( -0.0000000000000000000, -0.0000000000000000000, 1.000000000000000000 ) ) ;
#685 = CIRCLE ( 'NONE', #620, 6.249999999999998200 ) ;
#686 = ORIENTED_EDGE ( 'NONE', *, *, #1083, .T. ) ;
#687 = VECTOR ( 'NONE', #1128, 1000.000000000000000 ) ;
#688 = AXIS2_PLACEMENT_3D ( 'NONE', #1193, #1063, #1295 ) ;
#689 = EDGE_CURVE ( 'NONE', #911, #611, #401, .T. ) ;
#690 = DIRECTION ( 'NONE',  ( 0.0000000000000000000, -0.7071067811865451300, 0.7071067811865500200 ) ) ;
#691 = ADVANCED_FACE ( 'NONE', ( #86 ), #589, .F. ) ;
#692 = ORIENTED_EDGE ( 'NONE', *, *, #463, .F. ) ;
#693 = CARTESIAN_POINT ( 'NONE',  ( 20.00000000000000700, -20.00000000000000000, 4.000000000000000000 ) ) ;
#694 = ORIENTED_EDGE ( 'NONE', *, *, #803, .F. ) ;
#695 = DIRECTION ( 'NONE',  ( 1.000000000000000000, 0.0000000000000000000, 0.0000000000000000000 ) ) ;
#696 = EDGE_LOOP ( 'NONE', ( #219, #499, #324, #820 ) ) ;
#697 = CARTESIAN_POINT ( 'NONE',  ( 36.99999999999999300, -37.00000000000000000, 0.0000000000000000000 ) ) ;
#698 = ORIENTED_EDGE ( 'NONE', *, *, #479, .T. ) ;
#699 = AXIS2_PLACEMENT_3D ( 'NONE', #567, #1269, #354 ) ;
#700 = ORIENTED_EDGE ( 'NONE', *, *, #393, .T. ) ;
#701 = ORIENTED_EDGE ( 'NONE', *, *, #598, .T. ) ;
#702 = CARTESIAN_POINT ( 'NONE',  ( -26.24999999999999300, 20.00000000000000000, 1.734723475976807100E-015 ) ) ;
#703 = CIRCLE ( 'NONE', #990, 6.025000000000001200 ) ;
#704 = DIRECTION ( 'NONE',  ( -0.0000000000000000000, -0.0000000000000000000, 1.000000000000000000 ) ) ;
#705 = CIRCLE ( 'NONE', #1132, 9.000000000000001800 ) ;
#706 = VECTOR ( 'NONE', #244, 1000.000000000000000 ) ;
#707 = CARTESIAN_POINT ( 'NONE',  ( -19.99999999999999300, 20.00000000000000000, 4.000000000000000000 ) ) ;
#708 = ORIENTED_EDGE ( 'NONE', *, *, #1294, .F. ) ;
#709 = ORIENTED_EDGE ( 'NONE', *, *, #304, .T. ) ;
#710 = CARTESIAN_POINT ( 'NONE',  ( -19.99999999999999300, -20.00000000000000000, 4.000000000000000000 ) ) ;
#711 = AXIS2_PLACEMENT_3D ( 'NONE', #1118, #838, #323 ) ;
#712 = EDGE_CURVE ( 'NONE', #849, #348, #969, .T. ) ;
#713 = CARTESIAN_POINT ( 'NONE',  ( -28.99999999999999300, -20.00000000000000000, 10.00000000000000000 ) ) ;
#714 = EDGE_LOOP ( 'NONE', ( #372, #964, #886, #539 ) ) ;
#715 = LINE ( 'NONE', #436, #1277 ) ;
#716 = FACE_BOUND ( 'NONE', #1164, .T. ) ;
#717 = LINE ( 'NONE', #1018, #1231 ) ;
#718 = FACE_OUTER_BOUND ( 'NONE', #1270, .T. ) ;
#719 = AXIS2_PLACEMENT_3D ( 'NONE', #102, #280, #1006 ) ;
#720 = AXIS2_PLACEMENT_3D ( 'NONE', #1004, #303, #1068 ) ;
#721 = CARTESIAN_POINT ( 'NONE',  ( -37.00000000000000700, -37.00000000000000000, 0.0000000000000000000 ) ) ;
#722 = EDGE_LOOP ( 'NONE', ( #544, #995, #932, #39 ) ) ;
#723 = CARTESIAN_POINT ( 'NONE',  ( -26.24999999999999300, 20.00000000000000000, 10.00000000000000000 ) ) ;
#724 = ORIENTED_EDGE ( 'NONE', *, *, #753, .F. ) ;
#725 = AXIS2_PLACEMENT_3D ( 'NONE', #1248, #339, #249 ) ;
#726 = CARTESIAN_POINT ( 'NONE',  ( -10.99999999999999300, 20.00000000000000000, 10.00000000000000000 ) ) ;
#727 = CONICAL_SURFACE ( 'NONE', #448, 1.000000000000000900, 0.7853981633974442800 ) ;
#728 = ORIENTED_EDGE ( 'NONE', *, *, #1160, .F. ) ;
#729 = FACE_OUTER_BOUND ( 'NONE', #124, .T. ) ;
#730 = CARTESIAN_POINT ( 'NONE',  ( 37.99999999999999300, 0.0000000000000000000, 10.00000000000000000 ) ) ;
#731 = CIRCLE ( 'NONE', #1046, 3.000000000000002700 ) ;
#732 = CARTESIAN_POINT ( 'NONE',  ( -38.00000000000000700, 0.0000000000000000000, 10.00000000000000000 ) ) ;
#733 = EDGE_CURVE ( 'NONE', #561, #754, #417, .T. ) ;
#734 = MECHANICAL_DESIGN_GEOMETRIC_PRESENTATION_REPRESENTATION (  '', ( #445 ), #1072 ) ;
#735 =( NAMED_UNIT ( * ) PLANE_ANGLE_UNIT ( ) SI_UNIT ( $, .RADIAN. ) );
#736 = ORIENTED_EDGE ( 'NONE', *, *, #500, .F. ) ;
#737 = CLOSED_SHELL ( 'NONE', ( #250, #954, #183, #1055, #1255, #578, #584, #284, #691, #639, #891, #80, #485, #892, #647, #847, #49, #84, #747, #193, #477, #1288, #949, #534, #780, #549, #787, #1165, #1054, #1185, #1278, #755, #342, #963, #1243, #1289, #992, #375, #1157, #663, #1147, #1043 ) ) ;
#738 = CARTESIAN_POINT ( 'NONE',  ( 11.00000000000000000, 20.00000000000000000, 4.000000000000000000 ) ) ;
#739 = DIRECTION ( 'NONE',  ( -1.000000000000000000, 0.0000000000000000000, 0.0000000000000000000 ) ) ;
#740 = DIRECTION ( 'NONE',  ( -0.0000000000000000000, -0.0000000000000000000, 1.000000000000000000 ) ) ;
#741 = VERTEX_POINT ( 'NONE', #62 ) ;
#742 = AXIS2_PLACEMENT_3D ( 'NONE', #328, #1032, #126 ) ;
#743 = CARTESIAN_POINT ( 'NONE',  ( -6.025000000000001200, 7.378496964862804100E-016, 10.00000000000000000 ) ) ;
#744 = CARTESIAN_POINT ( 'NONE',  ( -40.00000000000000700, 37.00000000000000000, 7.999999999999984900 ) ) ;
#745 = LINE ( 'NONE', #179, #1205 ) ;
#746 = DIRECTION ( 'NONE',  ( -0.0000000000000000000, -0.0000000000000000000, 1.000000000000000000 ) ) ;
#747 = ADVANCED_FACE ( 'NONE', ( #878 ), #1133, .T. ) ;
#748 = VECTOR ( 'NONE', #623, 1000.000000000000000 ) ;
#749 = VECTOR ( 'NONE', #801, 1000.000000000000000 ) ;
#750 = DIRECTION ( 'NONE',  ( -0.0000000000000000000, -0.0000000000000000000, 1.000000000000000000 ) ) ;
#751 = ORIENTED_EDGE ( 'NONE', *, *, #105, .T. ) ;
#752 = VERTEX_POINT ( 'NONE', #1190 ) ;
#753 = EDGE_CURVE ( 'NONE', #793, #1140, #797, .T. ) ;
#754 = VERTEX_POINT ( 'NONE', #93 ) ;
#755 = ADVANCED_FACE ( 'NONE', ( #51 ), #98, .F. ) ;
#756 = DIRECTION ( 'NONE',  ( -0.0000000000000000000, -0.0000000000000000000, 1.000000000000000000 ) ) ;
#757 = DIRECTION ( 'NONE',  ( -0.0000000000000000000, -0.0000000000000000000, 1.000000000000000000 ) ) ;
#758 = CARTESIAN_POINT ( 'NONE',  ( -19.99999999999999300, 20.00000000000000000, 10.00000000000000000 ) ) ;
#759 = VERTEX_POINT ( 'NONE', #702 ) ;
#760 = DIRECTION ( 'NONE',  ( 1.000000000000000000, 0.0000000000000000000, 0.0000000000000000000 ) ) ;
#761 = CARTESIAN_POINT ( 'NONE',  ( 20.00000000000000000, 20.00000000000000000, 4.000000000000000000 ) ) ;
#762 = ORIENTED_EDGE ( 'NONE', *, *, #1253, .T. ) ;
#763 = AXIS2_PLACEMENT_3D ( 'NONE', #925, #492, #412 ) ;
#764 = LINE ( 'NONE', #229, #839 ) ;
#765 = LINE ( 'NONE', #74, #1260 ) ;
#766 = DIRECTION ( 'NONE',  ( -0.0000000000000000000, -0.0000000000000000000, 1.000000000000000000 ) ) ;
#767 = CARTESIAN_POINT ( 'NONE',  ( -28.99999999999999300, 20.00000000000000000, 10.00000000000000000 ) ) ;
#768 = ORIENTED_EDGE ( 'NONE', *, *, #89, .T. ) ;
#769 = ORIENTED_EDGE ( 'NONE', *, *, #1003, .F. ) ;
#770 = ORIENTED_EDGE ( 'NONE', *, *, #479, .F. ) ;
#771 = EDGE_CURVE ( 'NONE', #494, #1143, #861, .T. ) ;
#772 = CARTESIAN_POINT ( 'NONE',  ( 36.99999999999999300, -40.00000000000000000, 10.00000000000000000 ) ) ;
#773 = PLANE ( 'NONE',  #813 ) ;
#774 = CARTESIAN_POINT ( 'NONE',  ( 36.99999999999999300, 37.00000000000000000, 10.00000000000000000 ) ) ;
#775 = DIRECTION ( 'NONE',  ( 0.0000000000000000000, 0.0000000000000000000, -1.000000000000000000 ) ) ;
#776 =( GEOMETRIC_REPRESENTATION_CONTEXT ( 3 ) GLOBAL_UNCERTAINTY_ASSIGNED_CONTEXT ( ( #817 ) ) GLOBAL_UNIT_ASSIGNED_CONTEXT ( ( #682, #273, #679 ) ) REPRESENTATION_CONTEXT ( 'NONE', 'WORKASPACE' ) );
#777 = EDGE_CURVE ( 'NONE', #1090, #1079, #116, .T. ) ;
#778 = CYLINDRICAL_SURFACE ( 'NONE', #572, 9.000000000000001800 ) ;
#779 = CARTESIAN_POINT ( 'NONE',  ( -38.00000000000000700, 37.00000000000000000, 10.00000000000000000 ) ) ;
#780 = ADVANCED_FACE ( 'NONE', ( #315 ), #555, .F. ) ;
#781 = VECTOR ( 'NONE', #256, 1000.000000000000000 ) ;
#782 = PLANE ( 'NONE',  #421 ) ;
#783 = CYLINDRICAL_SURFACE ( 'NONE', #1271, 3.000000000000002700 ) ;
#784 = ORIENTED_EDGE ( 'NONE', *, *, #197, .T. ) ;
#785 = DIRECTION ( 'NONE',  ( -0.0000000000000000000, -0.0000000000000000000, 1.000000000000000000 ) ) ;
#786 = CARTESIAN_POINT ( 'NONE',  ( 20.00000000000000000, 20.00000000000000000, 1.734723475976807100E-015 ) ) ;
#787 = ADVANCED_FACE ( 'NONE', ( #13, #1067 ), #782, .F. ) ;
#788 = EDGE_LOOP ( 'NONE', ( #252, #1029, #406, #640 ) ) ;
#789 = AXIS2_PLACEMENT_3D ( 'NONE', #1061, #50, #971 ) ;
#790 = CARTESIAN_POINT ( 'NONE',  ( 20.00000000000000700, -20.00000000000000000, 10.00000000000000000 ) ) ;
#791 = AXIS2_PLACEMENT_3D ( 'NONE', #288, #1197, #1275 ) ;
#792 = DIRECTION ( 'NONE',  ( -0.0000000000000000000, -0.0000000000000000000, 1.000000000000000000 ) ) ;
#793 = VERTEX_POINT ( 'NONE', #482 ) ;
#794 = CIRCLE ( 'NONE', #145, 6.250000000000000000 ) ;
#795 = DIRECTION ( 'NONE',  ( -0.0000000000000000000, -0.0000000000000000000, 1.000000000000000000 ) ) ;
#796 = VECTOR ( 'NONE', #704, 1000.000000000000000 ) ;
#797 = LINE ( 'NONE', #164, #132 ) ;
#798 = MECHANICAL_DESIGN_GEOMETRIC_PRESENTATION_REPRESENTATION (  '', ( #389 ), #1125 ) ;
#799 = VECTOR ( 'NONE', #511, 1000.000000000000000 ) ;
#800 = ORIENTED_EDGE ( 'NONE', *, *, #1261, .F. ) ;
#801 = DIRECTION ( 'NONE',  ( -0.0000000000000000000, -0.0000000000000000000, 1.000000000000000000 ) ) ;
#802 = ORIENTED_EDGE ( 'NONE', *, *, #55, .F. ) ;
#803 = EDGE_CURVE ( 'NONE', #439, #371, #1087, .T. ) ;
#804 = CARTESIAN_POINT ( 'NONE',  ( 26.25000000000000400, 20.00000000000000000, 4.000000000000000000 ) ) ;
#805 = AXIS2_PLACEMENT_3D ( 'NONE', #1232, #1218, #1030 ) ;
#806 = DIRECTION ( 'NONE',  ( 1.000000000000000000, 0.0000000000000000000, 0.0000000000000000000 ) ) ;
#807 = DIRECTION ( 'NONE',  ( -0.0000000000000000000, -0.0000000000000000000, 1.000000000000000000 ) ) ;
#808 = EDGE_LOOP ( 'NONE', ( #108, #291, #1268, #269 ) ) ;
#809 = DIRECTION ( 'NONE',  ( -0.0000000000000000000, -0.0000000000000000000, 1.000000000000000000 ) ) ;
#810 = VECTOR ( 'NONE', #54, 1000.000000000000000 ) ;
#811 = DIRECTION ( 'NONE',  ( -1.000000000000000000, 0.0000000000000000000, 0.0000000000000000000 ) ) ;
#812 = LINE ( 'NONE', #869, #1283 ) ;
#813 = AXIS2_PLACEMENT_3D ( 'NONE', #365, #66, #470 ) ;
#814 = ORIENTED_EDGE ( 'NONE', *, *, #117, .F. ) ;
#815 = DIRECTION ( 'NONE',  ( -0.0000000000000000000, -0.0000000000000000000, 1.000000000000000000 ) ) ;
#816 = VERTEX_POINT ( 'NONE', #899 ) ;
#817 = UNCERTAINTY_MEASURE_WITH_UNIT (LENGTH_MEASURE( 1.000000000000000100E-005 ), #682, 'distance_accuracy_value', 'NONE');
#818 = EDGE_CURVE ( 'NONE', #439, #460, #517, .T. ) ;
#819 =( LENGTH_UNIT ( ) NAMED_UNIT ( * ) SI_UNIT ( .MILLI., .METRE. ) );
#820 = ORIENTED_EDGE ( 'NONE', *, *, #830, .F. ) ;
#821 = DIRECTION ( 'NONE',  ( -1.000000000000000000, 0.0000000000000000000, 0.0000000000000000000 ) ) ;
#822 = VERTEX_POINT ( 'NONE', #1081 ) ;
#823 = SURFACE_STYLE_FILL_AREA ( #1265 ) ;
#824 = CYLINDRICAL_SURFACE ( 'NONE', #711, 9.000000000000001800 ) ;
#825 = DIRECTION ( 'NONE',  ( 0.0000000000000000000, 0.0000000000000000000, -1.000000000000000000 ) ) ;
#826 = VECTOR ( 'NONE', #957, 1000.000000000000100 ) ;
#827 = AXIS2_PLACEMENT_3D ( 'NONE', #1247, #631, #452 ) ;
#828 = CARTESIAN_POINT ( 'NONE',  ( 20.00000000000000000, 20.00000000000000000, 10.00000000000000000 ) ) ;
#829 = VERTEX_POINT ( 'NONE', #491 ) ;
#830 = EDGE_CURVE ( 'NONE', #752, #868, #765, .T. ) ;
#831 = DIRECTION ( 'NONE',  ( -0.0000000000000000000, -0.0000000000000000000, 1.000000000000000000 ) ) ;
#832 = ORIENTED_EDGE ( 'NONE', *, *, #298, .F. ) ;
#833 = ORIENTED_EDGE ( 'NONE', *, *, #347, .T. ) ;
#834 = VERTEX_POINT ( 'NONE', #476 ) ;
#835 = CARTESIAN_POINT ( 'NONE',  ( 0.0000000000000000000, -38.00000000000000000, 10.00000000000000000 ) ) ;
#836 = CARTESIAN_POINT ( 'NONE',  ( -40.00000000000000700, 40.00000000000000000, 10.00000000000000000 ) ) ;
#837 = EDGE_CURVE ( 'NONE', #977, #1201, #490, .T. ) ;
#838 = DIRECTION ( 'NONE',  ( -0.0000000000000000000, -0.0000000000000000000, 1.000000000000000000 ) ) ;
#839 = VECTOR ( 'NONE', #235, 1000.000000000000000 ) ;
#840 = SURFACE_STYLE_FILL_AREA ( #563 ) ;
#841 = CARTESIAN_POINT ( 'NONE',  ( 26.25000000000000400, 20.00000000000000000, 4.000000000000000000 ) ) ;
#842 = UNCERTAINTY_MEASURE_WITH_UNIT (LENGTH_MEASURE( 1.000000000000000100E-005 ), #472, 'distance_accuracy_value', 'NONE');
#843 = EDGE_CURVE ( 'NONE', #1079, #607, #165, .T. ) ;
#844 = FACE_OUTER_BOUND ( 'NONE', #548, .T. ) ;
#845 = DIRECTION ( 'NONE',  ( 1.000000000000000000, 0.0000000000000000000, 0.0000000000000000000 ) ) ;
#846 = EDGE_CURVE ( 'NONE', #977, #210, #685, .T. ) ;
#847 = ADVANCED_FACE ( 'NONE', ( #1117, #416, #48, #279, #716, #441 ), #985, .T. ) ;
#848 = CARTESIAN_POINT ( 'NONE',  ( 36.99999999999999300, -37.00000000000000000, 10.00000000000000000 ) ) ;
#849 = VERTEX_POINT ( 'NONE', #200 ) ;
#850 = EDGE_LOOP ( 'NONE', ( #434, #686 ) ) ;
#851 = FILL_AREA_STYLE ('',( #1241 ) ) ;
#852 = DIRECTION ( 'NONE',  ( 1.000000000000000000, 0.0000000000000000000, 0.0000000000000000000 ) ) ;
#853 = AXIS2_PLACEMENT_3D ( 'NONE', #593, #998, #290 ) ;
#854 = ORIENTED_EDGE ( 'NONE', *, *, #846, .T. ) ;
#855 = EDGE_LOOP ( 'NONE', ( #994, #112 ) ) ;
#856 = AXIS2_PLACEMENT_3D ( 'NONE', #106, #407, #307 ) ;
#857 = CARTESIAN_POINT ( 'NONE',  ( 39.99999999999999300, -37.00000000000000000, 0.0000000000000000000 ) ) ;
#858 = DIRECTION ( 'NONE',  ( -0.0000000000000000000, -0.0000000000000000000, 1.000000000000000000 ) ) ;
#859 = LINE ( 'NONE', #370, #516 ) ;
#860 = DIRECTION ( 'NONE',  ( 0.0000000000000000000, 0.0000000000000000000, -1.000000000000000000 ) ) ;
#861 = CIRCLE ( 'NONE', #1250, 3.000000000000002700 ) ;
#862 = VECTOR ( 'NONE', #257, 1000.000000000000000 ) ;
#863 = DIRECTION ( 'NONE',  ( 1.000000000000000000, 0.0000000000000000000, 0.0000000000000000000 ) ) ;
#864 = CARTESIAN_POINT ( 'NONE',  ( -40.00000000000000700, 37.00000000000000000, 7.999999999999984900 ) ) ;
#865 = ORIENTED_EDGE ( 'NONE', *, *, #47, .F. ) ;
#866 = DIRECTION ( 'NONE',  ( -0.0000000000000000000, -0.0000000000000000000, 1.000000000000000000 ) ) ;
#867 = EDGE_CURVE ( 'NONE', #1090, #196, #1116, .T. ) ;
#868 = VERTEX_POINT ( 'NONE', #1297 ) ;
#869 = CARTESIAN_POINT ( 'NONE',  ( 36.99999999999999300, 40.00000000000000000, 10.00000000000000000 ) ) ;
#870 = ORIENTED_EDGE ( 'NONE', *, *, #321, .F. ) ;
#871 = CARTESIAN_POINT ( 'NONE',  ( 20.00000000000000700, -20.00000000000000000, 4.000000000000000000 ) ) ;
#872 = ORIENTED_EDGE ( 'NONE', *, *, #1211, .F. ) ;
#873 = DIRECTION ( 'NONE',  ( 0.0000000000000000000, 0.0000000000000000000, -1.000000000000000000 ) ) ;
#874 = DIRECTION ( 'NONE',  ( 0.0000000000000000000, 0.0000000000000000000, -1.000000000000000000 ) ) ;
#875 = EDGE_LOOP ( 'NONE', ( #457, #483, #1296, #784 ) ) ;
#876 = AXIS2_PLACEMENT_3D ( 'NONE', #1106, #70, #806 ) ;
#877 = DIRECTION ( 'NONE',  ( 0.0000000000000000000, 0.0000000000000000000, -1.000000000000000000 ) ) ;
#878 = FACE_OUTER_BOUND ( 'NONE', #722, .T. ) ;
#879 = CARTESIAN_POINT ( 'NONE',  ( 13.75000000000000900, -20.00000000000000000, 1.734723475976807100E-015 ) ) ;
#880 = FACE_OUTER_BOUND ( 'NONE', #195, .T. ) ;
#881 = DIRECTION ( 'NONE',  ( 1.000000000000000000, 0.0000000000000000000, 0.0000000000000000000 ) ) ;
#882 = CIRCLE ( 'NONE', #643, 6.249999999999998200 ) ;
#883 = EDGE_LOOP ( 'NONE', ( #965, #870, #159, #1121 ) ) ;
#884 = CARTESIAN_POINT ( 'NONE',  ( 5.249999999999995600, 0.0000000000000000000, 0.0000000000000000000 ) ) ;
#885 = EDGE_LOOP ( 'NONE', ( #356, #311, #523, #201, #144, #709, #1093, #355 ) ) ;
#886 = ORIENTED_EDGE ( 'NONE', *, *, #78, .F. ) ;
#887 = CARTESIAN_POINT ( 'NONE',  ( -40.00000000000000700, -40.00000000000000000, 0.0000000000000000000 ) ) ;
#888 = EDGE_LOOP ( 'NONE', ( #498, #931 ) ) ;
#889 = AXIS2_PLACEMENT_3D ( 'NONE', #604, #1204, #595 ) ;
#890 = DIRECTION ( 'NONE',  ( 0.7071067811865451300, 0.0000000000000000000, -0.7071067811865500200 ) ) ;
#891 = ADVANCED_FACE ( 'NONE', ( #898 ), #1109, .F. ) ;
#892 = ADVANCED_FACE ( 'NONE', ( #1308 ), #503, .F. ) ;
#893 = ORIENTED_EDGE ( 'NONE', *, *, #133, .F. ) ;
#894 = CARTESIAN_POINT ( 'NONE',  ( -19.99999999999999300, -20.00000000000000000, 1.734723475976807100E-015 ) ) ;
#895 = ORIENTED_EDGE ( 'NONE', *, *, #632, .F. ) ;
#896 = AXIS2_PLACEMENT_3D ( 'NONE', #553, #261, #852 ) ;
#897 = EDGE_CURVE ( 'NONE', #642, #348, #1086, .T. ) ;
#898 = FACE_OUTER_BOUND ( 'NONE', #220, .T. ) ;
#899 = CARTESIAN_POINT ( 'NONE',  ( 37.99999999999999300, -37.00000000000000000, 10.00000000000000000 ) ) ;
#900 = CARTESIAN_POINT ( 'NONE',  ( -13.74999999999999500, -20.00000000000000000, 10.00000000000000000 ) ) ;
#901 = ORIENTED_EDGE ( 'NONE', *, *, #1096, .F. ) ;
#902 = ORIENTED_EDGE ( 'NONE', *, *, #837, .T. ) ;
#903 = EDGE_LOOP ( 'NONE', ( #360, #1236 ) ) ;
#904 = AXIS2_PLACEMENT_3D ( 'NONE', #343, #756, #540 ) ;
#905 = ORIENTED_EDGE ( 'NONE', *, *, #387, .T. ) ;
#906 = ORIENTED_EDGE ( 'NONE', *, *, #1208, .F. ) ;
#907 = EDGE_CURVE ( 'NONE', #1240, #1014, #1216, .T. ) ;
#908 = DIRECTION ( 'NONE',  ( 0.0000000000000000000, 0.0000000000000000000, -1.000000000000000000 ) ) ;
#909 = DIRECTION ( 'NONE',  ( -0.0000000000000000000, -0.0000000000000000000, 1.000000000000000000 ) ) ;
#910 = ORIENTED_EDGE ( 'NONE', *, *, #387, .F. ) ;
#911 = VERTEX_POINT ( 'NONE', #1212 ) ;
#912 = COLOUR_RGB ( '',0.8941176470588234600, 0.9137254901960784000, 0.9294117647058823800 ) ;
#913 = VECTOR ( 'NONE', #147, 1000.000000000000000 ) ;
#914 = COLOUR_RGB ( '',0.8941176470588234600, 0.9137254901960784000, 0.9294117647058823800 ) ;
#915 = DIRECTION ( 'NONE',  ( 1.000000000000000000, 0.0000000000000000000, 0.0000000000000000000 ) ) ;
#916 = CARTESIAN_POINT ( 'NONE',  ( 20.00000000000000700, -20.00000000000000000, 10.00000000000000000 ) ) ;
#917 = ORIENTED_EDGE ( 'NONE', *, *, #94, .T. ) ;
#918 = VERTEX_POINT ( 'NONE', #804 ) ;
#919 = EDGE_LOOP ( 'NONE', ( #1291, #73, #104, #893 ) ) ;
#920 = ORIENTED_EDGE ( 'NONE', *, *, #1112, .T. ) ;
#921 = CARTESIAN_POINT ( 'NONE',  ( 20.00000000000000700, -20.00000000000000000, 4.000000000000000000 ) ) ;
#922 = EDGE_LOOP ( 'NONE', ( #454, #1173, #564, #1126 ) ) ;
#923 = PRODUCT_RELATED_PRODUCT_CATEGORY ( 'part', '', ( #996 ) ) ;
#924 = EDGE_CURVE ( 'NONE', #210, #977, #1228, .T. ) ;
#925 = CARTESIAN_POINT ( 'NONE',  ( 20.00000000000000000, 20.00000000000000000, 10.00000000000000000 ) ) ;
#926 = CARTESIAN_POINT ( 'NONE',  ( 5.249999999999995600, 0.0000000000000000000, 10.00000000000000000 ) ) ;
#927 = CONICAL_SURFACE ( 'NONE', #688, 1.000000000000000900, 0.7853981633974442800 ) ;
#928 = PLANE ( 'NONE',  #85 ) ;
#929 = VECTOR ( 'NONE', #97, 1000.000000000000000 ) ;
#930 = EDGE_LOOP ( 'NONE', ( #20, #21, #566, #425 ) ) ;
#931 = ORIENTED_EDGE ( 'NONE', *, *, #207, .T. ) ;
#932 = ORIENTED_EDGE ( 'NONE', *, *, #545, .F. ) ;
#933 = EDGE_CURVE ( 'NONE', #1139, #741, #1050, .T. ) ;
#934 = CARTESIAN_POINT ( 'NONE',  ( -40.00000000000000700, 37.00000000000000000, 0.0000000000000000000 ) ) ;
#935 = DIRECTION ( 'NONE',  ( 1.000000000000000000, 0.0000000000000000000, 0.0000000000000000000 ) ) ;
#936 = EDGE_LOOP ( 'NONE', ( #474, #906, #172, #582 ) ) ;
#937 = ORIENTED_EDGE ( 'NONE', *, *, #1096, .T. ) ;
#938 = CARTESIAN_POINT ( 'NONE',  ( -40.00000000000000700, -40.00000000000000000, 7.999999999999984900 ) ) ;
#939 = LINE ( 'NONE', #87, #653 ) ;
#940 = CYLINDRICAL_SURFACE ( 'NONE', #943, 5.249999999999995600 ) ;
#941 = EDGE_CURVE ( 'NONE', #911, #1099, #1000, .T. ) ;
#942 = CYLINDRICAL_SURFACE ( 'NONE', #396, 5.249999999999995600 ) ;
#943 = AXIS2_PLACEMENT_3D ( 'NONE', #161, #1252, #1267 ) ;
#944 = LINE ( 'NONE', #952, #862 ) ;
#945 = DIRECTION ( 'NONE',  ( 0.0000000000000000000, 0.0000000000000000000, -1.000000000000000000 ) ) ;
#946 = CARTESIAN_POINT ( 'NONE',  ( 36.99999999999999300, -40.00000000000000000, 0.0000000000000000000 ) ) ;
#947 =( NAMED_UNIT ( * ) SI_UNIT ( $, .STERADIAN. ) SOLID_ANGLE_UNIT ( ) );
#948 = DIRECTION ( 'NONE',  ( -0.0000000000000000000, -0.0000000000000000000, 1.000000000000000000 ) ) ;
#949 = ADVANCED_FACE ( 'NONE', ( #968 ), #293, .F. ) ;
#950 = AXIS2_PLACEMENT_3D ( 'NONE', #1199, #590, #488 ) ;
#951 = VERTEX_POINT ( 'NONE', #185 ) ;
#952 = CARTESIAN_POINT ( 'NONE',  ( 11.00000000000000000, 20.00000000000000000, 10.00000000000000000 ) ) ;
#953 = FACE_OUTER_BOUND ( 'NONE', #18, .T. ) ;
#954 = ADVANCED_FACE ( 'NONE', ( #163 ), #398, .F. ) ;
#955 = CARTESIAN_POINT ( 'NONE',  ( -40.00000000000000700, -40.00000000000000000, 10.00000000000000000 ) ) ;
#956 = CIRCLE ( 'NONE', #109, 9.000000000000001800 ) ;
#957 = DIRECTION ( 'NONE',  ( 0.7071067811865451300, 0.0000000000000000000, 0.7071067811865500200 ) ) ;
#958 = CYLINDRICAL_SURFACE ( 'NONE', #1209, 9.000000000000001800 ) ;
#959 = CARTESIAN_POINT ( 'NONE',  ( -19.99999999999999300, -20.00000000000000000, 4.000000000000000000 ) ) ;
#960 = EDGE_CURVE ( 'NONE', #754, #1143, #12, .T. ) ;
#961 = DIRECTION ( 'NONE',  ( -0.0000000000000000000, -0.0000000000000000000, 1.000000000000000000 ) ) ;
#962 = DIRECTION ( 'NONE',  ( 1.000000000000000000, 0.0000000000000000000, 0.0000000000000000000 ) ) ;
#963 = ADVANCED_FACE ( 'NONE', ( #953 ), #778, .F. ) ;
#964 = ORIENTED_EDGE ( 'NONE', *, *, #61, .F. ) ;
#965 = ORIENTED_EDGE ( 'NONE', *, *, #146, .F. ) ;
#966 = SURFACE_STYLE_USAGE ( .BOTH. , #659 ) ;
#967 = DIRECTION ( 'NONE',  ( 1.000000000000000000, 0.0000000000000000000, 0.0000000000000000000 ) ) ;
#968 = FACE_OUTER_BOUND ( 'NONE', #173, .T. ) ;
#969 = LINE ( 'NONE', #359, #332 ) ;
#970 = FACE_OUTER_BOUND ( 'NONE', #808, .T. ) ;
#971 = DIRECTION ( 'NONE',  ( -1.000000000000000000, 0.0000000000000000000, 0.0000000000000000000 ) ) ;
#972 = CARTESIAN_POINT ( 'NONE',  ( 13.75000000000000200, 20.00000000000000000, 1.734723475976807100E-015 ) ) ;
#973 = ORIENTED_EDGE ( 'NONE', *, *, #733, .F. ) ;
#974 = ORIENTED_EDGE ( 'NONE', *, *, #669, .T. ) ;
#975 = ORIENTED_EDGE ( 'NONE', *, *, #1220, .F. ) ;
#976 = CARTESIAN_POINT ( 'NONE',  ( 26.25000000000000000, 20.00000000000000000, 1.734723475976807100E-015 ) ) ;
#977 = VERTEX_POINT ( 'NONE', #972 ) ;
#978 = CARTESIAN_POINT ( 'NONE',  ( -13.74999999999999500, -20.00000000000000000, 1.734723475976807100E-015 ) ) ;
#979 = DIRECTION ( 'NONE',  ( -1.000000000000000000, 0.0000000000000000000, 0.0000000000000000000 ) ) ;
#980 = VERTEX_POINT ( 'NONE', #480 ) ;
#981 = MECHANICAL_DESIGN_GEOMETRIC_PRESENTATION_REPRESENTATION (  '', ( #186 ), #776 ) ;
#982 = EDGE_CURVE ( 'NONE', #816, #255, #616, .T. ) ;
#983 = DIRECTION ( 'NONE',  ( -0.0000000000000000000, -0.0000000000000000000, 1.000000000000000000 ) ) ;
#984 = LINE ( 'NONE', #444, #364 ) ;
#985 = PLANE ( 'NONE',  #950 ) ;
#986 = VECTOR ( 'NONE', #1021, 1000.000000000000000 ) ;
#987 = APPLICATION_CONTEXT ( 'automotive_design' ) ;
#988 = DIRECTION ( 'NONE',  ( 1.000000000000000000, 0.0000000000000000000, 0.0000000000000000000 ) ) ;
#989 = LINE ( 'NONE', #158, #749 ) ;
#990 = AXIS2_PLACEMENT_3D ( 'NONE', #1273, #278, #1065 ) ;
#991 = DIRECTION ( 'NONE',  ( 1.000000000000000000, 0.0000000000000000000, 0.0000000000000000000 ) ) ;
#992 = ADVANCED_FACE ( 'NONE', ( #1011 ), #927, .T. ) ;
#993 = ORIENTED_EDGE ( 'NONE', *, *, #94, .F. ) ;
#994 = ORIENTED_EDGE ( 'NONE', *, *, #316, .T. ) ;
#995 = ORIENTED_EDGE ( 'NONE', *, *, #527, .T. ) ;
#996 = PRODUCT ( 'ALP2020', 'ALP2020', '', ( #178 ) ) ;
#997 = ORIENTED_EDGE ( 'NONE', *, *, #1261, .T. ) ;
#998 = DIRECTION ( 'NONE',  ( -0.0000000000000000000, -0.0000000000000000000, 1.000000000000000000 ) ) ;
#999 = EDGE_CURVE ( 'NONE', #371, #322, #184, .T. ) ;
#1000 = LINE ( 'NONE', #1008, #552 ) ;
#1001 = VECTOR ( 'NONE', #90, 1000.000000000000000 ) ;
#1002 = CYLINDRICAL_SURFACE ( 'NONE', #763, 6.250000000000001800 ) ;
#1003 = EDGE_CURVE ( 'NONE', #1140, #1240, #939, .T. ) ;
#1004 = CARTESIAN_POINT ( 'NONE',  ( 20.00000000000000700, -20.00000000000000000, 10.00000000000000000 ) ) ;
#1005 = ORIENTED_EDGE ( 'NONE', *, *, #203, .T. ) ;
#1006 = DIRECTION ( 'NONE',  ( 1.000000000000000000, 0.0000000000000000000, 0.0000000000000000000 ) ) ;
#1007 = ORIENTED_EDGE ( 'NONE', *, *, #867, .F. ) ;
#1008 = CARTESIAN_POINT ( 'NONE',  ( -5.249999999999995600, 6.429395695523600200E-016, 10.00000000000000000 ) ) ;
#1009 = CONICAL_SURFACE ( 'NONE', #654, 6.025000000000001200, 0.7853981633974477200 ) ;
#1010 = CARTESIAN_POINT ( 'NONE',  ( 39.99999999999999300, 37.00000000000000000, 7.999999999999984900 ) ) ;
#1011 = FACE_OUTER_BOUND ( 'NONE', #289, .T. ) ;
#1012 = LINE ( 'NONE', #550, #601 ) ;
#1013 = VECTOR ( 'NONE', #650, 1000.000000000000100 ) ;
#1014 = VERTEX_POINT ( 'NONE', #779 ) ;
#1015 = DIRECTION ( 'NONE',  ( 1.000000000000000000, 0.0000000000000000000, 0.0000000000000000000 ) ) ;
#1016 = EDGE_LOOP ( 'NONE', ( #42, #92 ) ) ;
#1017 = EDGE_CURVE ( 'NONE', #24, #1181, #502, .T. ) ;
#1018 = CARTESIAN_POINT ( 'NONE',  ( 36.99999999999999300, -38.00000000000000000, 10.00000000000000000 ) ) ;
#1019 = CARTESIAN_POINT ( 'NONE',  ( -10.99999999999999300, -20.00000000000000000, 4.000000000000000000 ) ) ;
#1020 = CARTESIAN_POINT ( 'NONE',  ( -13.74999999999999500, 20.00000000000000000, 1.734723475976807100E-015 ) ) ;
#1021 = DIRECTION ( 'NONE',  ( 0.0000000000000000000, 0.0000000000000000000, -1.000000000000000000 ) ) ;
#1022 = VECTOR ( 'NONE', #319, 1000.000000000000100 ) ;
#1023 = ORIENTED_EDGE ( 'NONE', *, *, #55, .T. ) ;
#1024 = AXIS2_PLACEMENT_3D ( 'NONE', #871, #45, #760 ) ;
#1025 = VECTOR ( 'NONE', #795, 1000.000000000000000 ) ;
#1026 = CARTESIAN_POINT ( 'NONE',  ( -38.00000000000000700, -37.00000000000000000, 10.00000000000000000 ) ) ;
#1027 = LINE ( 'NONE', #1115, #748 ) ;
#1028 = DIRECTION ( 'NONE',  ( -1.000000000000000000, 0.0000000000000000000, 0.0000000000000000000 ) ) ;
#1029 = ORIENTED_EDGE ( 'NONE', *, *, #203, .F. ) ;
#1030 = DIRECTION ( 'NONE',  ( -1.000000000000000000, 0.0000000000000000000, 0.0000000000000000000 ) ) ;
#1031 = DIRECTION ( 'NONE',  ( 1.000000000000000000, 0.0000000000000000000, 0.0000000000000000000 ) ) ;
#1032 = DIRECTION ( 'NONE',  ( 0.0000000000000000000, 0.0000000000000000000, -1.000000000000000000 ) ) ;
#1033 = DIRECTION ( 'NONE',  ( -1.000000000000000000, 0.0000000000000000000, 0.0000000000000000000 ) ) ;
#1034 = DIRECTION ( 'NONE',  ( 1.000000000000000000, 0.0000000000000000000, 0.0000000000000000000 ) ) ;
#1035 = FACE_OUTER_BOUND ( 'NONE', #1200, .T. ) ;
#1036 = CARTESIAN_POINT ( 'NONE',  ( -19.99999999999999300, 20.00000000000000000, 4.000000000000000000 ) ) ;
#1037 = CYLINDRICAL_SURFACE ( 'NONE', #524, 6.249999999999998200 ) ;
#1038 = EDGE_CURVE ( 'NONE', #752, #1099, #428, .T. ) ;
#1039 = CYLINDRICAL_SURFACE ( 'NONE', #1114, 9.000000000000001800 ) ;
#1040 = CARTESIAN_POINT ( 'NONE',  ( -19.99999999999999300, 20.00000000000000000, 10.00000000000000000 ) ) ;
#1041 = CARTESIAN_POINT ( 'NONE',  ( 0.0000000000000000000, 0.0000000000000000000, 9.224999999999996100 ) ) ;
#1042 = DIRECTION ( 'NONE',  ( 0.0000000000000000000, 0.0000000000000000000, -1.000000000000000000 ) ) ;
#1043 = ADVANCED_FACE ( 'NONE', ( #214 ), #773, .F. ) ;
#1044 = EDGE_CURVE ( 'NONE', #255, #222, #745, .T. ) ;
#1045 = CARTESIAN_POINT ( 'NONE',  ( 0.0000000000000000000, 0.0000000000000000000, 0.0000000000000000000 ) ) ;
#1046 = AXIS2_PLACEMENT_3D ( 'NONE', #177, #373, #1184 ) ;
#1047 = DIRECTION ( 'NONE',  ( -0.0000000000000000000, -0.0000000000000000000, 1.000000000000000000 ) ) ;
#1048 = DIRECTION ( 'NONE',  ( -1.000000000000000000, 0.0000000000000000000, 0.0000000000000000000 ) ) ;
#1049 = FACE_OUTER_BOUND ( 'NONE', #788, .T. ) ;
#1050 = CIRCLE ( 'NONE', #535, 9.000000000000001800 ) ;
#1051 = DIRECTION ( 'NONE',  ( 0.7071067811865451300, 0.0000000000000000000, 0.7071067811865500200 ) ) ;
#1052 = VECTOR ( 'NONE', #575, 1000.000000000000000 ) ;
#1053 = DIRECTION ( 'NONE',  ( -0.0000000000000000000, -0.0000000000000000000, 1.000000000000000000 ) ) ;
#1054 = ADVANCED_FACE ( 'NONE', ( #382 ), #350, .F. ) ;
#1055 = ADVANCED_FACE ( 'NONE', ( #1035 ), #1280, .F. ) ;
#1056 = EDGE_CURVE ( 'NONE', #26, #1181, #859, .T. ) ;
#1057 = ORIENTED_EDGE ( 'NONE', *, *, #777, .T. ) ;
#1058 = CARTESIAN_POINT ( 'NONE',  ( -19.99999999999999300, -20.00000000000000000, 10.00000000000000000 ) ) ;
#1059 = ORIENTED_EDGE ( 'NONE', *, *, #1171, .T. ) ;
#1060 = VERTEX_POINT ( 'NONE', #192 ) ;
#1061 = CARTESIAN_POINT ( 'NONE',  ( 36.99999999999999300, 37.00000000000000000, 10.00000000000000000 ) ) ;
#1062 = AXIS2_PLACEMENT_3D ( 'NONE', #397, #909, #1100 ) ;
#1063 = DIRECTION ( 'NONE',  ( 0.0000000000000000000, 0.0000000000000000000, -1.000000000000000000 ) ) ;
#1064 = EDGE_LOOP ( 'NONE', ( #993, #751, #629, #30 ) ) ;
#1065 = DIRECTION ( 'NONE',  ( 1.000000000000000000, 0.0000000000000000000, 0.0000000000000000000 ) ) ;
#1066 = DIRECTION ( 'NONE',  ( 1.000000000000000000, 0.0000000000000000000, 0.0000000000000000000 ) ) ;
#1067 = FACE_OUTER_BOUND ( 'NONE', #850, .T. ) ;
#1068 = DIRECTION ( 'NONE',  ( 1.000000000000000000, 0.0000000000000000000, 0.0000000000000000000 ) ) ;
#1069 = VECTOR ( 'NONE', #449, 1000.000000000000000 ) ;
#1070 = CARTESIAN_POINT ( 'NONE',  ( -26.24999999999999600, -20.00000000000000000, 4.000000000000000000 ) ) ;
#1071 = CIRCLE ( 'NONE', #1299, 9.000000000000001800 ) ;
#1072 =( GEOMETRIC_REPRESENTATION_CONTEXT ( 3 ) GLOBAL_UNCERTAINTY_ASSIGNED_CONTEXT ( ( #842 ) ) GLOBAL_UNIT_ASSIGNED_CONTEXT ( ( #472, #170, #1263 ) ) REPRESENTATION_CONTEXT ( 'NONE', 'WORKASPACE' ) );
#1073 = SURFACE_SIDE_STYLE ('',( #823 ) ) ;
#1074 = EDGE_LOOP ( 'NONE', ( #832, #422 ) ) ;
#1075 = AXIS2_PLACEMENT_3D ( 'NONE', #43, #948, #160 ) ;
#1076 = ORIENTED_EDGE ( 'NONE', *, *, #1112, .F. ) ;
#1077 = ORIENTED_EDGE ( 'NONE', *, *, #4, .T. ) ;
#1078 = ORIENTED_EDGE ( 'NONE', *, *, #217, .F. ) ;
#1079 = VERTEX_POINT ( 'NONE', #282 ) ;
#1080 = DIRECTION ( 'NONE',  ( -0.0000000000000000000, -0.0000000000000000000, 1.000000000000000000 ) ) ;
#1081 = CARTESIAN_POINT ( 'NONE',  ( 36.99999999999999300, 40.00000000000000000, 7.999999999999984900 ) ) ;
#1082 = AXIS2_PLACEMENT_3D ( 'NONE', #761, #459, #845 ) ;
#1083 = EDGE_CURVE ( 'NONE', #462, #829, #587, .T. ) ;
#1084 = ORIENTED_EDGE ( 'NONE', *, *, #287, .F. ) ;
#1085 = CIRCLE ( 'NONE', #1148, 6.250000000000000000 ) ;
#1086 = CIRCLE ( 'NONE', #1293, 6.250000000000001800 ) ;
#1087 = LINE ( 'NONE', #1195, #1052 ) ;
#1088 = CIRCLE ( 'NONE', #231, 9.000000000000001800 ) ;
#1089 = EDGE_LOOP ( 'NONE', ( #728, #920, #724, #692 ) ) ;
#1090 = VERTEX_POINT ( 'NONE', #978 ) ;
#1091 = AXIS2_PLACEMENT_3D ( 'NONE', #320, #317, #313 ) ;
#1092 = ORIENTED_EDGE ( 'NONE', *, *, #846, .F. ) ;
#1093 = ORIENTED_EDGE ( 'NONE', *, *, #521, .F. ) ;
#1094 = ORIENTED_EDGE ( 'NONE', *, *, #1038, .F. ) ;
#1095 = ORIENTED_EDGE ( 'NONE', *, *, #430, .T. ) ;
#1096 = EDGE_CURVE ( 'NONE', #1079, #1090, #83, .T. ) ;
#1097 = EDGE_LOOP ( 'NONE', ( #910, #1108 ) ) ;
#1098 = EDGE_LOOP ( 'NONE', ( #800, #677 ) ) ;
#1099 = VERTEX_POINT ( 'NONE', #241 ) ;
#1100 = DIRECTION ( 'NONE',  ( 1.000000000000000000, 0.0000000000000000000, 0.0000000000000000000 ) ) ;
#1101 = DIRECTION ( 'NONE',  ( -0.0000000000000000000, -0.0000000000000000000, 1.000000000000000000 ) ) ;
#1102 = PRODUCT_DEFINITION_CONTEXT ( 'detailed design', #987, 'design' ) ;
#1103 = CARTESIAN_POINT ( 'NONE',  ( -19.99999999999999300, 20.00000000000000000, 4.000000000000000000 ) ) ;
#1104 = CARTESIAN_POINT ( 'NONE',  ( -37.00000000000000700, 37.00000000000000000, 10.00000000000000000 ) ) ;
#1105 = LINE ( 'NONE', #515, #504 ) ;
#1106 = CARTESIAN_POINT ( 'NONE',  ( -19.99999999999999300, 20.00000000000000000, 4.000000000000000000 ) ) ;
#1107 = VECTOR ( 'NONE', #665, 1000.000000000000000 ) ;
#1108 = ORIENTED_EDGE ( 'NONE', *, *, #1017, .F. ) ;
#1109 = PLANE ( 'NONE',  #856 ) ;
#1110 = ORIENTED_EDGE ( 'NONE', *, *, #61, .T. ) ;
#1111 = AXIS2_PLACEMENT_3D ( 'NONE', #646, #740, #1144 ) ;
#1112 = EDGE_CURVE ( 'NONE', #199, #1140, #115, .T. ) ;
#1113 = ORIENTED_EDGE ( 'NONE', *, *, #1187, .T. ) ;
#1114 = AXIS2_PLACEMENT_3D ( 'NONE', #469, #1047, #1180 ) ;
#1115 = CARTESIAN_POINT ( 'NONE',  ( 13.75000000000000700, -20.00000000000000000, 10.00000000000000000 ) ) ;
#1116 = LINE ( 'NONE', #900, #796 ) ;
#1117 = FACE_BOUND ( 'NONE', #1302, .T. ) ;
#1118 = CARTESIAN_POINT ( 'NONE',  ( -19.99999999999999300, 20.00000000000000000, 10.00000000000000000 ) ) ;
#1119 = CIRCLE ( 'NONE', #325, 9.000000000000001800 ) ;
#1120 = DIRECTION ( 'NONE',  ( 0.7071067811865500200, 0.0000000000000000000, -0.7071067811865451300 ) ) ;
#1121 = ORIENTED_EDGE ( 'NONE', *, *, #369, .T. ) ;
#1122 = ORIENTED_EDGE ( 'NONE', *, *, #246, .T. ) ;
#1123 = VERTEX_POINT ( 'NONE', #619 ) ;
#1124 = ORIENTED_EDGE ( 'NONE', *, *, #125, .T. ) ;
#1125 =( GEOMETRIC_REPRESENTATION_CONTEXT ( 3 ) GLOBAL_UNCERTAINTY_ASSIGNED_CONTEXT ( ( #1305 ) ) GLOBAL_UNIT_ASSIGNED_CONTEXT ( ( #148, #645, #41 ) ) REPRESENTATION_CONTEXT ( 'NONE', 'WORKASPACE' ) );
#1126 = ORIENTED_EDGE ( 'NONE', *, *, #1294, .T. ) ;
#1127 = CARTESIAN_POINT ( 'NONE',  ( -37.00000000000000700, -40.00000000000000000, 7.999999999999984900 ) ) ;
#1128 = DIRECTION ( 'NONE',  ( 1.000000000000000000, 0.0000000000000000000, 0.0000000000000000000 ) ) ;
#1129 = VERTEX_POINT ( 'NONE', #122 ) ;
#1130 = DIRECTION ( 'NONE',  ( 1.000000000000000000, 0.0000000000000000000, 0.0000000000000000000 ) ) ;
#1131 = CARTESIAN_POINT ( 'NONE',  ( -37.00000000000000700, 37.00000000000000000, 7.999999999999984900 ) ) ;
#1132 = AXIS2_PLACEMENT_3D ( 'NONE', #1103, #809, #606 ) ;
#1133 = CYLINDRICAL_SURFACE ( 'NONE', #789, 3.000000000000002700 ) ;
#1134 = FACE_BOUND ( 'NONE', #1098, .T. ) ;
#1135 = SURFACE_SIDE_STYLE ('',( #335 ) ) ;
#1136 = FACE_OUTER_BOUND ( 'NONE', #919, .T. ) ;
#1137 = CARTESIAN_POINT ( 'NONE',  ( -37.00000000000000700, 38.00000000000000000, 10.00000000000000000 ) ) ;
#1138 = VERTEX_POINT ( 'NONE', #223 ) ;
#1139 = VERTEX_POINT ( 'NONE', #1019 ) ;
#1140 = VERTEX_POINT ( 'NONE', #522 ) ;
#1141 = CARTESIAN_POINT ( 'NONE',  ( 39.99999999999999300, -40.00000000000000000, 0.0000000000000000000 ) ) ;
#1142 = ORIENTED_EDGE ( 'NONE', *, *, #941, .F. ) ;
#1143 = VERTEX_POINT ( 'NONE', #946 ) ;
#1144 = DIRECTION ( 'NONE',  ( 1.000000000000000000, 0.0000000000000000000, 0.0000000000000000000 ) ) ;
#1145 = ORIENTED_EDGE ( 'NONE', *, *, #1160, .T. ) ;
#1146 = AXIS2_PLACEMENT_3D ( 'NONE', #1166, #877, #1257 ) ;
#1147 = ADVANCED_FACE ( 'NONE', ( #314 ), #727, .T. ) ;
#1148 = AXIS2_PLACEMENT_3D ( 'NONE', #1036, #746, #962 ) ;
#1149 = DIRECTION ( 'NONE',  ( -0.0000000000000000000, -0.0000000000000000000, 1.000000000000000000 ) ) ;
#1150 = PLANE ( 'NONE',  #641 ) ;
#1151 = ORIENTED_EDGE ( 'NONE', *, *, #558, .T. ) ;
#1152 = VERTEX_POINT ( 'NONE', #420 ) ;
#1153 = CYLINDRICAL_SURFACE ( 'NONE', #896, 9.000000000000001800 ) ;
#1154 = CARTESIAN_POINT ( 'NONE',  ( 20.00000000000000000, 20.00000000000000000, 4.000000000000000000 ) ) ;
#1155 = LINE ( 'NONE', #726, #204 ) ;
#1156 =( NAMED_UNIT ( * ) PLANE_ANGLE_UNIT ( ) SI_UNIT ( $, .RADIAN. ) );
#1157 = ADVANCED_FACE ( 'NONE', ( #260 ), #138, .F. ) ;
#1158 = LINE ( 'NONE', #557, #150 ) ;
#1159 = PRESENTATION_LAYER_ASSIGNMENT (  '', '', ( #186 ) ) ;
#1160 = EDGE_CURVE ( 'NONE', #199, #385, #671, .T. ) ;
#1161 = LINE ( 'NONE', #435, #1013 ) ;
#1162 = DIRECTION ( 'NONE',  ( 1.000000000000000000, 0.0000000000000000000, 0.0000000000000000000 ) ) ;
#1163 = DIRECTION ( 'NONE',  ( 1.000000000000000000, 0.0000000000000000000, 0.0000000000000000000 ) ) ;
#1164 = EDGE_LOOP ( 'NONE', ( #865, #379 ) ) ;
#1165 = ADVANCED_FACE ( 'NONE', ( #1298 ), #824, .F. ) ;
#1166 = CARTESIAN_POINT ( 'NONE',  ( 0.0000000000000000000, 0.0000000000000000000, 10.00000000000000000 ) ) ;
#1167 = ORIENTED_EDGE ( 'NONE', *, *, #455, .T. ) ;
#1168 = ORIENTED_EDGE ( 'NONE', *, *, #924, .T. ) ;
#1169 = PRESENTATION_LAYER_ASSIGNMENT (  '', '', ( #467 ) ) ;
#1170 = EDGE_LOOP ( 'NONE', ( #128, #38 ) ) ;
#1171 = EDGE_CURVE ( 'NONE', #561, #496, #227, .T. ) ;
#1172 = ORIENTED_EDGE ( 'NONE', *, *, #753, .T. ) ;
#1173 = ORIENTED_EDGE ( 'NONE', *, *, #777, .F. ) ;
#1174 = CARTESIAN_POINT ( 'NONE',  ( -19.99999999999999300, -20.00000000000000000, 1.734723475976807100E-015 ) ) ;
#1175 = UNCERTAINTY_MEASURE_WITH_UNIT (LENGTH_MEASURE( 1.000000000000000100E-005 ), #819, 'distance_accuracy_value', 'NONE');
#1176 = LINE ( 'NONE', #247, #913 ) ;
#1177 = CARTESIAN_POINT ( 'NONE',  ( 20.00000000000000700, -20.00000000000000000, 10.00000000000000000 ) ) ;
#1178 = CIRCLE ( 'NONE', #437, 9.000000000000001800 ) ;
#1179 = DIRECTION ( 'NONE',  ( -0.0000000000000000000, -0.0000000000000000000, 1.000000000000000000 ) ) ;
#1180 = DIRECTION ( 'NONE',  ( 1.000000000000000000, 0.0000000000000000000, 0.0000000000000000000 ) ) ;
#1181 = VERTEX_POINT ( 'NONE', #518 ) ;
#1182 = DIRECTION ( 'NONE',  ( -1.000000000000000000, 0.0000000000000000000, 0.0000000000000000000 ) ) ;
#1183 = EDGE_LOOP ( 'NONE', ( #1023, #917 ) ) ;
#1184 = DIRECTION ( 'NONE',  ( -1.000000000000000000, 0.0000000000000000000, 0.0000000000000000000 ) ) ;
#1185 = ADVANCED_FACE ( 'NONE', ( #489, #1259 ), #1222, .F. ) ;
#1186 = AXIS2_PLACEMENT_3D ( 'NONE', #99, #211, #96 ) ;
#1187 = EDGE_CURVE ( 'NONE', #759, #1138, #149, .T. ) ;
#1188 = DIRECTION ( 'NONE',  ( -0.0000000000000000000, -0.0000000000000000000, 1.000000000000000000 ) ) ;
#1189 = ORIENTED_EDGE ( 'NONE', *, *, #34, .T. ) ;
#1190 = CARTESIAN_POINT ( 'NONE',  ( 5.249999999999996400, 0.0000000000000000000, 9.224999999999996100 ) ) ;
#1191 = CONICAL_SURFACE ( 'NONE', #1215, 1.000000000000000900, 0.7853981633974442800 ) ;
#1192 = VECTOR ( 'NONE', #569, 1000.000000000000000 ) ;
#1193 = CARTESIAN_POINT ( 'NONE',  ( -37.00000000000000700, -37.00000000000000000, 10.00000000000000000 ) ) ;
#1194 = LINE ( 'NONE', #475, #305 ) ;
#1195 = CARTESIAN_POINT ( 'NONE',  ( 29.00000000000000700, -20.00000000000000000, 10.00000000000000000 ) ) ;
#1196 = AXIS2_PLACEMENT_3D ( 'NONE', #841, #243, #40 ) ;
#1197 = DIRECTION ( 'NONE',  ( -0.0000000000000000000, -0.0000000000000000000, 1.000000000000000000 ) ) ;
#1198 = EDGE_CURVE ( 'NONE', #829, #1060, #1155, .T. ) ;
#1199 = CARTESIAN_POINT ( 'NONE',  ( 0.0000000000000000000, 0.0000000000000000000, 0.0000000000000000000 ) ) ;
#1200 = EDGE_LOOP ( 'NONE', ( #901, #71, #392, #1007 ) ) ;
#1201 = VERTEX_POINT ( 'NONE', #638 ) ;
#1202 = ORIENTED_EDGE ( 'NONE', *, *, #712, .F. ) ;
#1203 = EDGE_CURVE ( 'NONE', #1140, #822, #764, .T. ) ;
#1204 = DIRECTION ( 'NONE',  ( -0.0000000000000000000, -0.0000000000000000000, 1.000000000000000000 ) ) ;
#1205 = VECTOR ( 'NONE', #890, 1000.000000000000100 ) ;
#1206 = CARTESIAN_POINT ( 'NONE',  ( 29.00000000000000700, -20.00000000000000000, 10.00000000000000000 ) ) ;
#1207 = FACE_OUTER_BOUND ( 'NONE', #338, .T. ) ;
#1208 = EDGE_CURVE ( 'NONE', #1123, #561, #715, .T. ) ;
#1209 = AXIS2_PLACEMENT_3D ( 'NONE', #1301, #1281, #1307 ) ;
#1210 = DIRECTION ( 'NONE',  ( -0.0000000000000000000, -0.0000000000000000000, 1.000000000000000000 ) ) ;
#1211 = EDGE_CURVE ( 'NONE', #754, #318, #440, .T. ) ;
#1212 = CARTESIAN_POINT ( 'NONE',  ( -5.249999999999995600, 6.429395695523600200E-016, 0.0000000000000000000 ) ) ;
#1213 = AXIS2_PLACEMENT_3D ( 'NONE', #157, #873, #270 ) ;
#1214 = DIRECTION ( 'NONE',  ( 1.000000000000000000, 0.0000000000000000000, 0.0000000000000000000 ) ) ;
#1215 = AXIS2_PLACEMENT_3D ( 'NONE', #538, #1042, #1242 ) ;
#1216 = CIRCLE ( 'NONE', #77, 1.000000000000000900 ) ;
#1217 = CIRCLE ( 'NONE', #1091, 9.000000000000001800 ) ;
#1218 = DIRECTION ( 'NONE',  ( 0.0000000000000000000, 0.0000000000000000000, -1.000000000000000000 ) ) ;
#1219 = AXIS2_PLACEMENT_3D ( 'NONE', #661, #76, #666 ) ;
#1220 = EDGE_CURVE ( 'NONE', #980, #868, #10, .T. ) ;
#1221 = CARTESIAN_POINT ( 'NONE',  ( 29.00000000000000700, -20.00000000000000000, 4.000000000000000000 ) ) ;
#1222 = PLANE ( 'NONE',  #742 ) ;
#1223 = ORIENTED_EDGE ( 'NONE', *, *, #837, .F. ) ;
#1224 = DIRECTION ( 'NONE',  ( -0.7071067811865500200, 0.0000000000000000000, -0.7071067811865451300 ) ) ;
#1225 = ORIENTED_EDGE ( 'NONE', *, *, #632, .T. ) ;
#1226 = ORIENTED_EDGE ( 'NONE', *, *, #105, .F. ) ;
#1227 = AXIS2_PLACEMENT_3D ( 'NONE', #848, #528, #331 ) ;
#1228 = CIRCLE ( 'NONE', #889, 6.249999999999998200 ) ;
#1229 = VECTOR ( 'NONE', #176, 1000.000000000000000 ) ;
#1230 = DIRECTION ( 'NONE',  ( -0.0000000000000000000, -0.0000000000000000000, 1.000000000000000000 ) ) ;
#1231 = VECTOR ( 'NONE', #423, 1000.000000000000100 ) ;
#1232 = CARTESIAN_POINT ( 'NONE',  ( -37.00000000000000700, 37.00000000000000000, 0.0000000000000000000 ) ) ;
#1233 = DIRECTION ( 'NONE',  ( 0.0000000000000000000, 0.0000000000000000000, -1.000000000000000000 ) ) ;
#1234 = VERTEX_POINT ( 'NONE', #29 ) ;
#1235 = VERTEX_POINT ( 'NONE', #738 ) ;
#1236 = ORIENTED_EDGE ( 'NONE', *, *, #265, .F. ) ;
#1237 = DIRECTION ( 'NONE',  ( 0.0000000000000000000, 0.0000000000000000000, -1.000000000000000000 ) ) ;
#1238 = EDGE_CURVE ( 'NONE', #1234, #494, #413, .T. ) ;
#1239 = CARTESIAN_POINT ( 'NONE',  ( 36.99999999999999300, 37.00000000000000000, 7.999999999999984900 ) ) ;
#1240 = VERTEX_POINT ( 'NONE', #1137 ) ;
#1241 = FILL_AREA_STYLE_COLOUR ( '', #914 ) ;
#1242 = DIRECTION ( 'NONE',  ( -1.000000000000000000, 0.0000000000000000000, 0.0000000000000000000 ) ) ;
#1243 = ADVANCED_FACE ( 'NONE', ( #330 ), #1150, .F. ) ;
#1244 = EDGE_CURVE ( 'NONE', #162, #849, #113, .T. ) ;
#1245 = CARTESIAN_POINT ( 'NONE',  ( -37.00000000000000700, -40.00000000000000000, 7.999999999999984900 ) ) ;
#1246 = CIRCLE ( 'NONE', #719, 9.000000000000001800 ) ;
#1247 = CARTESIAN_POINT ( 'NONE',  ( -19.99999999999999300, -20.00000000000000000, 4.000000000000000000 ) ) ;
#1248 = CARTESIAN_POINT ( 'NONE',  ( -37.00000000000000700, -37.00000000000000000, 10.00000000000000000 ) ) ;
#1249 = APPLICATION_CONTEXT ( 'automotive_design' ) ;
#1250 = AXIS2_PLACEMENT_3D ( 'NONE', #697, #908, #188 ) ;
#1251 = ORIENTED_EDGE ( 'NONE', *, *, #818, .F. ) ;
#1252 = DIRECTION ( 'NONE',  ( -0.0000000000000000000, -0.0000000000000000000, 1.000000000000000000 ) ) ;
#1253 = EDGE_CURVE ( 'NONE', #139, #816, #182, .T. ) ;
#1254 = CARTESIAN_POINT ( 'NONE',  ( -37.00000000000000700, 37.00000000000000000, 10.00000000000000000 ) ) ;
#1255 = ADVANCED_FACE ( 'NONE', ( #82 ), #532, .F. ) ;
#1256 = ORIENTED_EDGE ( 'NONE', *, *, #1038, .T. ) ;
#1257 = DIRECTION ( 'NONE',  ( -1.000000000000000000, 0.0000000000000000000, -0.0000000000000000000 ) ) ;
#1258 = DIRECTION ( 'NONE',  ( -0.0000000000000000000, -0.0000000000000000000, 1.000000000000000000 ) ) ;
#1259 = FACE_OUTER_BOUND ( 'NONE', #1016, .T. ) ;
#1260 = VECTOR ( 'NONE', #391, 1000.000000000000000 ) ;
#1261 = EDGE_CURVE ( 'NONE', #918, #1201, #651, .T. ) ;
#1262 = CIRCLE ( 'NONE', #876, 6.250000000000000000 ) ;
#1263 =( NAMED_UNIT ( * ) SI_UNIT ( $, .STERADIAN. ) SOLID_ANGLE_UNIT ( ) );
#1264 = CARTESIAN_POINT ( 'NONE',  ( -13.74999999999999300, 20.00000000000000000, 4.000000000000000000 ) ) ;
#1265 = FILL_AREA_STYLE ('',( #658 ) ) ;
#1266 = ORIENTED_EDGE ( 'NONE', *, *, #242, .F. ) ;
#1267 = DIRECTION ( 'NONE',  ( 1.000000000000000000, 0.0000000000000000000, 0.0000000000000000000 ) ) ;
#1268 = ORIENTED_EDGE ( 'NONE', *, *, #1044, .F. ) ;
#1269 = DIRECTION ( 'NONE',  ( -0.0000000000000000000, -0.0000000000000000000, 1.000000000000000000 ) ) ;
#1270 = EDGE_LOOP ( 'NONE', ( #17, #1005, #180, #295 ) ) ;
#1271 = AXIS2_PLACEMENT_3D ( 'NONE', #1254, #874, #275 ) ;
#1272 = CARTESIAN_POINT ( 'NONE',  ( 0.0000000000000000000, 0.0000000000000000000, 9.224999999999996100 ) ) ;
#1273 = CARTESIAN_POINT ( 'NONE',  ( 0.0000000000000000000, 0.0000000000000000000, 10.00000000000000000 ) ) ;
#1274 = ORIENTED_EDGE ( 'NONE', *, *, #1203, .F. ) ;
#1275 = DIRECTION ( 'NONE',  ( 1.000000000000000000, 0.0000000000000000000, 0.0000000000000000000 ) ) ;
#1276 = EDGE_CURVE ( 'NONE', #1138, #191, #1085, .T. ) ;
#1277 = VECTOR ( 'NONE', #1028, 1000.000000000000000 ) ;
#1278 = ADVANCED_FACE ( 'NONE', ( #64 ), #1153, .F. ) ;
#1279 = DIRECTION ( 'NONE',  ( 0.0000000000000000000, 0.0000000000000000000, -1.000000000000000000 ) ) ;
#1280 = CYLINDRICAL_SURFACE ( 'NONE', #510, 6.249999999999998200 ) ;
#1281 = DIRECTION ( 'NONE',  ( -0.0000000000000000000, -0.0000000000000000000, 1.000000000000000000 ) ) ;
#1282 = AXIS2_PLACEMENT_3D ( 'NONE', #1040, #961, #143 ) ;
#1283 = VECTOR ( 'NONE', #274, 1000.000000000000000 ) ;
#1284 = CARTESIAN_POINT ( 'NONE',  ( 37.99999999999999300, 0.0000000000000000000, 10.00000000000000000 ) ) ;
#1285 = LINE ( 'NONE', #772, #283 ) ;
#1286 = AXIS2_PLACEMENT_3D ( 'NONE', #1272, #1188, #988 ) ;
#1287 = DIRECTION ( 'NONE',  ( -1.000000000000000000, 0.0000000000000000000, -0.0000000000000000000 ) ) ;
#1288 = ADVANCED_FACE ( 'NONE', ( #277 ), #1009, .F. ) ;
#1289 = ADVANCED_FACE ( 'NONE', ( #1049 ), #1191, .T. ) ;
#1290 = DIRECTION ( 'NONE',  ( 1.000000000000000000, 0.0000000000000000000, 0.0000000000000000000 ) ) ;
#1291 = ORIENTED_EDGE ( 'NONE', *, *, #258, .F. ) ;
#1292 = DIRECTION ( 'NONE',  ( 1.000000000000000000, 0.0000000000000000000, 0.0000000000000000000 ) ) ;
#1293 = AXIS2_PLACEMENT_3D ( 'NONE', #921, #1101, #300 ) ;
#1294 = EDGE_CURVE ( 'NONE', #196, #607, #794, .T. ) ;
#1295 = DIRECTION ( 'NONE',  ( -1.000000000000000000, 0.0000000000000000000, 0.0000000000000000000 ) ) ;
#1296 = ORIENTED_EDGE ( 'NONE', *, *, #712, .T. ) ;
#1297 = CARTESIAN_POINT ( 'NONE',  ( 6.025000000000001200, 0.0000000000000000000, 10.00000000000000000 ) ) ;
#1298 = FACE_OUTER_BOUND ( 'NONE', #883, .T. ) ;
#1299 = AXIS2_PLACEMENT_3D ( 'NONE', #368, #766, #967 ) ;
#1300 = EDGE_CURVE ( 'NONE', #816, #1234, #984, .T. ) ;
#1301 = CARTESIAN_POINT ( 'NONE',  ( 20.00000000000000700, -20.00000000000000000, 10.00000000000000000 ) ) ;
#1302 = EDGE_LOOP ( 'NONE', ( #649, #81 ) ) ;
#1303 = DIRECTION ( 'NONE',  ( 1.000000000000000000, 0.0000000000000000000, 0.0000000000000000000 ) ) ;
#1304 = CARTESIAN_POINT ( 'NONE',  ( 37.99999999999999300, 37.00000000000000000, 10.00000000000000000 ) ) ;
#1305 = UNCERTAINTY_MEASURE_WITH_UNIT (LENGTH_MEASURE( 1.000000000000000100E-005 ), #148, 'distance_accuracy_value', 'NONE');
#1306 = EDGE_LOOP ( 'NONE', ( #236, #975 ) ) ;
#1307 = DIRECTION ( 'NONE',  ( 1.000000000000000000, 0.0000000000000000000, 0.0000000000000000000 ) ) ;
#1308 = FACE_OUTER_BOUND ( 'NONE', #266, .T. ) ;
ENDSEC;
END-ISO-10303-21;
