ISO-10303-21;
HEADER;
FILE_DESCRIPTION (( 'STEP AP203' ),
    '1' );
FILE_NAME ('ALP2420.STEP',
    '2018-06-21T07:02:28',
    ( '' ),
    ( '' ),
    'SwSTEP 2.0',
    'SolidWorks 2016',
    '' );
FILE_SCHEMA (( 'CONFIG_CONTROL_DESIGN' ));
ENDSEC;

DATA;
#1 = EDGE_CURVE ( 'NONE', #32, #234, #487, .T. ) ;
#2 = VERTEX_POINT ( 'NONE', #432 ) ;
#3 = EDGE_CURVE ( 'NONE', #168, #166, #115, .T. ) ;
#4 = VECTOR ( 'NONE', #335, 1000.000000000000000 ) ;
#5 = FACE_OUTER_BOUND ( 'NONE', #423, .T. ) ;
#6 = DIRECTION ( 'NONE',  ( -1.000000000000000000, 0.0000000000000000000, 0.0000000000000000000 ) ) ;
#7 = ORIENTED_EDGE ( 'NONE', *, *, #171, .T. ) ;
#8 = ORIENTED_EDGE ( 'NONE', *, *, #10, .T. ) ;
#9 = CARTESIAN_POINT ( 'NONE',  ( 38.18376618407376100, 17.00000000000000000, -38.18376618407336300 ) ) ;
#10 = EDGE_CURVE ( 'NONE', #308, #250, #369, .T. ) ;
#11 = DIRECTION ( 'NONE',  ( 0.7071067811865515700, 0.0000000000000000000, -0.7071067811865435800 ) ) ;
#12 = PLANE ( 'NONE',  #225 ) ;
#13 = CIRCLE ( 'NONE', #309, 2.749999999999995600 ) ;
#14 = APPLICATION_CONTEXT ( 'configuration controlled 3d designs of mechanical parts and assemblies' ) ;
#15 = ORIENTED_EDGE ( 'NONE', *, *, #238, .T. ) ;
#16 = DIRECTION ( 'NONE',  ( 0.0000000000000000000, -1.000000000000000000, -0.0000000000000000000 ) ) ;
#17 = ORIENTED_EDGE ( 'NONE', *, *, #261, .F. ) ;
#18 = PERSON_AND_ORGANIZATION_ROLE ( 'classification_officer' ) ;
#19 = CARTESIAN_POINT ( 'NONE',  ( 0.0000000000000000000, 17.00000000000000000, 0.0000000000000000000 ) ) ;
#20 = CARTESIAN_POINT ( 'NONE',  ( 0.0000000000000000000, 0.0000000000000000000, 0.0000000000000000000 ) ) ;
#21 =( NAMED_UNIT ( * ) PLANE_ANGLE_UNIT ( ) SI_UNIT ( $, .RADIAN. ) );
#22 = CC_DESIGN_APPROVAL ( #279, ( #480 ) ) ;
#23 = LINE ( 'NONE', #361, #39 ) ;
#24 = DATE_TIME_ROLE ( 'classification_date' ) ;
#25 = DIRECTION ( 'NONE',  ( -1.000000000000000000, 0.0000000000000000000, 0.0000000000000000000 ) ) ;
#26 = FACE_BOUND ( 'NONE', #74, .T. ) ;
#27 = DIRECTION ( 'NONE',  ( 1.000000000000000000, -0.0000000000000000000, -0.0000000000000000000 ) ) ;
#28 = EDGE_CURVE ( 'NONE', #201, #499, #94, .T. ) ;
#29 = APPROVAL_ROLE ( '' ) ;
#30 = ORIENTED_EDGE ( 'NONE', *, *, #568, .F. ) ;
#31 = DIRECTION ( 'NONE',  ( -1.000000000000000000, -0.0000000000000000000, -0.0000000000000000000 ) ) ;
#32 = VERTEX_POINT ( 'NONE', #180 ) ;
#33 = ADVANCED_FACE ( 'NONE', ( #199 ), #386, .F. ) ;
#34 = ADVANCED_FACE ( 'NONE', ( #256 ), #379, .F. ) ;
#35 = EDGE_CURVE ( 'NONE', #431, #166, #65, .T. ) ;
#36 = ORIENTED_EDGE ( 'NONE', *, *, #179, .F. ) ;
#37 = ADVANCED_FACE ( 'NONE', ( #244 ), #56, .F. ) ;
#38 = CARTESIAN_POINT ( 'NONE',  ( 42.42640687119306600, 17.00000000000000000, -42.42640687119262600 ) ) ;
#39 = VECTOR ( 'NONE', #86, 1000.000000000000000 ) ;
#40 = DIRECTION ( 'NONE',  ( -0.0000000000000000000, -0.0000000000000000000, -1.000000000000000000 ) ) ;
#41 = CYLINDRICAL_SURFACE ( 'NONE', #418, 6.000000000000000000 ) ;
#42 = EDGE_LOOP ( 'NONE', ( #500, #219, #549, #107 ) ) ;
#43 = PLANE ( 'NONE',  #473 ) ;
#44 = DIRECTION ( 'NONE',  ( -0.0000000000000000000, -0.0000000000000000000, -1.000000000000000000 ) ) ;
#45 = AXIS2_PLACEMENT_3D ( 'NONE', #544, #416, #468 ) ;
#46 = CARTESIAN_POINT ( 'NONE',  ( 23.47517606299226500, 8.500000000000007100, -31.96045743723052700 ) ) ;
#47 = CALENDAR_DATE ( 2018, 21, 6 ) ;
#48 = DIRECTION ( 'NONE',  ( 0.0000000000000000000, 0.0000000000000000000, -1.000000000000000000 ) ) ;
#49 = DIRECTION ( 'NONE',  ( -0.0000000000000000000, -0.0000000000000000000, -1.000000000000000000 ) ) ;
#50 = PERSON ( 'UNSPECIFIED', 'UNSPECIFIED', 'UNSPECIFIED', ('UNSPECIFIED'), ('UNSPECIFIED'), ('UNSPECIFIED') ) ;
#51 = ORIENTED_EDGE ( 'NONE', *, *, #179, .T. ) ;
#52 = ADVANCED_FACE ( 'NONE', ( #397 ), #434, .F. ) ;
#53 = PLANE ( 'NONE',  #467 ) ;
#54 = CC_DESIGN_DATE_AND_TIME_ASSIGNMENT ( #281, #24, ( #480 ) ) ;
#55 = CARTESIAN_POINT ( 'NONE',  ( 13.00922662902999800, 0.0000000000000000000, -21.49450800326839700 ) ) ;
#56 = CYLINDRICAL_SURFACE ( 'NONE', #333, 2.749999999999995600 ) ;
#57 = VERTEX_POINT ( 'NONE', #461 ) ;
#58 = ORIENTED_EDGE ( 'NONE', *, *, #509, .F. ) ;
#59 = PLANE ( 'NONE',  #402 ) ;
#60 = AXIS2_PLACEMENT_3D ( 'NONE', #392, #161, #540 ) ;
#61 = DIRECTION ( 'NONE',  ( -0.9238795325112877400, -0.0000000000000000000, 0.3826834323650875100 ) ) ;
#62 = FACE_OUTER_BOUND ( 'NONE', #326, .T. ) ;
#63 = CARTESIAN_POINT ( 'NONE',  ( 27.71781675011151700, 8.500000000000007100, -27.71781675011122900 ) ) ;
#64 = DIRECTION ( 'NONE',  ( 0.7071067811865512400, 0.0000000000000000000, -0.7071067811865439100 ) ) ;
#65 = LINE ( 'NONE', #541, #505 ) ;
#66 = EDGE_LOOP ( 'NONE', ( #184, #327, #415, #579 ) ) ;
#67 = EDGE_CURVE ( 'NONE', #260, #439, #497, .T. ) ;
#68 = CARTESIAN_POINT ( 'NONE',  ( -41.94891236737964100, 8.500000000000007100, -5.999999999999999100 ) ) ;
#69 = DIRECTION ( 'NONE',  ( -0.0000000000000000000, -1.000000000000000000, -0.0000000000000000000 ) ) ;
#70 = VECTOR ( 'NONE', #192, 1000.000000000000000 ) ;
#71 = PERSON_AND_ORGANIZATION_ROLE ( 'creator' ) ;
#72 = CARTESIAN_POINT ( 'NONE',  ( -23.63245787002911100, 0.0000000000000000000, -6.152240934977424300 ) ) ;
#73 = EDGE_LOOP ( 'NONE', ( #577, #302, #567, #109 ) ) ;
#74 = EDGE_LOOP ( 'NONE', ( #399, #316 ) ) ;
#75 = DIRECTION ( 'NONE',  ( 0.0000000000000000000, -1.000000000000000000, 0.0000000000000000000 ) ) ;
#76 = CC_DESIGN_SECURITY_CLASSIFICATION ( #480, ( #164 ) ) ;
#77 = ADVANCED_FACE ( 'NONE', ( #493 ), #41, .T. ) ;
#78 = PERSON_AND_ORGANIZATION ( #50, #469 ) ;
#79 = CARTESIAN_POINT ( 'NONE',  ( -60.00000000000000000, 0.0000000000000000000, 0.0000000000000000000 ) ) ;
#80 = ADVANCED_FACE ( 'NONE', ( #26, #401 ), #226, .F. ) ;
#81 = ORIENTED_EDGE ( 'NONE', *, *, #520, .F. ) ;
#82 = EDGE_CURVE ( 'NONE', #470, #433, #377, .T. ) ;
#83 = CARTESIAN_POINT ( 'NONE',  ( 13.00922662902999800, 17.00000000000000000, -21.49450800326839700 ) ) ;
#84 = VERTEX_POINT ( 'NONE', #370 ) ;
#85 = DIRECTION ( 'NONE',  ( 0.0000000000000000000, -1.000000000000000000, 0.0000000000000000000 ) ) ;
#86 = DIRECTION ( 'NONE',  ( 0.0000000000000000000, -1.000000000000000000, 0.0000000000000000000 ) ) ;
#87 = ADVANCED_FACE ( 'NONE', ( #517, #62 ), #53, .F. ) ;
#88 = COORDINATED_UNIVERSAL_TIME_OFFSET ( 1, 0, .AHEAD. ) ;
#89 = APPROVAL_PERSON_ORGANIZATION ( #325, #175, #207 ) ;
#90 = ORIENTED_EDGE ( 'NONE', *, *, #35, .T. ) ;
#91 = DIRECTION ( 'NONE',  ( -0.0000000000000000000, -0.0000000000000000000, -1.000000000000000000 ) ) ;
#92 = AXIS2_PLACEMENT_3D ( 'NONE', #296, #85, #162 ) ;
#93 = LOCAL_TIME ( 9, 2, 28.00000000000000000, #332 ) ;
#94 = LINE ( 'NONE', #345, #174 ) ;
#95 = ORIENTED_EDGE ( 'NONE', *, *, #563, .T. ) ;
#96 = EDGE_CURVE ( 'NONE', #2, #431, #411, .T. ) ;
#97 = CIRCLE ( 'NONE', #149, 2.750000000000000000 ) ;
#98 = LINE ( 'NONE', #284, #588 ) ;
#99 = EDGE_LOOP ( 'NONE', ( #8, #270, #95, #559, #7, #328, #301, #422, #336, #393 ) ) ;
#100 = ORIENTED_EDGE ( 'NONE', *, *, #171, .F. ) ;
#101 = DIRECTION ( 'NONE',  ( -0.7071067811865435800, -0.0000000000000000000, -0.7071067811865513500 ) ) ;
#102 = DIRECTION ( 'NONE',  ( -0.0000000000000000000, -0.0000000000000000000, -1.000000000000000000 ) ) ;
#103 = PRODUCT ( 'ALP2420', 'ALP2420', '', ( #290 ) ) ;
#104 = DIRECTION ( 'NONE',  ( 0.3826834323650875600, -0.0000000000000000000, 0.9238795325112876300 ) ) ;
#105 = LINE ( 'NONE', #169, #396 ) ;
#106 = CC_DESIGN_PERSON_AND_ORGANIZATION_ASSIGNMENT ( #216, #521, ( #103 ) ) ;
#107 = ORIENTED_EDGE ( 'NONE', *, *, #3, .T. ) ;
#108 = CARTESIAN_POINT ( 'NONE',  ( -39.19891236737964100, 8.500000000000007100, -8.673617379884035500E-016 ) ) ;
#109 = ORIENTED_EDGE ( 'NONE', *, *, #581, .T. ) ;
#110 = AXIS2_PLACEMENT_3D ( 'NONE', #46, #543, #367 ) ;
#111 = EDGE_CURVE ( 'NONE', #318, #222, #430, .T. ) ;
#112 = VECTOR ( 'NONE', #27, 1000.000000000000000 ) ;
#113 = APPLICATION_CONTEXT ( 'configuration controlled 3d designs of mechanical parts and assemblies' ) ;
#114 = ORIENTED_EDGE ( 'NONE', *, *, #458, .T. ) ;
#115 = CIRCLE ( 'NONE', #395, 2.749999999999995600 ) ;
#116 = CARTESIAN_POINT ( 'NONE',  ( 23.47517606299226500, 8.500000000000007100, -31.96045743723052700 ) ) ;
#117 = CC_DESIGN_DATE_AND_TIME_ASSIGNMENT ( #555, #575, ( #266 ) ) ;
#118 = CARTESIAN_POINT ( 'NONE',  ( 0.0000000000000000000, 17.00000000000000000, 0.0000000000000000000 ) ) ;
#119 = CARTESIAN_POINT ( 'NONE',  ( -60.00000000000000000, 17.00000000000000000, -5.999999999999999100 ) ) ;
#120 = FACE_OUTER_BOUND ( 'NONE', #99, .T. ) ;
#121 = VECTOR ( 'NONE', #61, 1000.000000000000000 ) ;
#122 = AXIS2_PLACEMENT_3D ( 'NONE', #592, #321, #366 ) ;
#123 = VECTOR ( 'NONE', #64, 999.9999999999998900 ) ;
#124 = CARTESIAN_POINT ( 'NONE',  ( 33.94112549695450600, 17.00000000000000000, -42.42640687119267500 ) ) ;
#125 = DIRECTION ( 'NONE',  ( 0.0000000000000000000, -1.000000000000000000, 0.0000000000000000000 ) ) ;
#126 = CC_DESIGN_PERSON_AND_ORGANIZATION_ASSIGNMENT ( #315, #18, ( #480 ) ) ;
#127 = AXIS2_PLACEMENT_3D ( 'NONE', #138, #453, #265 ) ;
#128 = ORIENTED_EDGE ( 'NONE', *, *, #523, .F. ) ;
#129 = ORIENTED_EDGE ( 'NONE', *, *, #206, .F. ) ;
#130 = CARTESIAN_POINT ( 'NONE',  ( -39.19891236737964100, 8.500000000000007100, -5.999999999999999100 ) ) ;
#131 = FACE_BOUND ( 'NONE', #320, .T. ) ;
#132 = CIRCLE ( 'NONE', #217, 2.000000000000001800 ) ;
#133 = APPROVAL_PERSON_ORGANIZATION ( #78, #279, #29 ) ;
#134 = DIRECTION ( 'NONE',  ( -0.9238795325112877400, -0.0000000000000000000, 0.3826834323650875100 ) ) ;
#135 = CARTESIAN_POINT ( 'NONE',  ( -54.00000000000000000, 17.00000000000000000, 8.673617379884035500E-016 ) ) ;
#136 = EDGE_LOOP ( 'NONE', ( #211, #235, #114, #229, #406, #170, #137, #51, #570, #203 ) ) ;
#137 = ORIENTED_EDGE ( 'NONE', *, *, #556, .F. ) ;
#138 = CARTESIAN_POINT ( 'NONE',  ( 0.0000000000000000000, 17.00000000000000000, 0.0000000000000000000 ) ) ;
#139 = DIRECTION ( 'NONE',  ( -0.0000000000000000000, -1.000000000000000000, -0.0000000000000000000 ) ) ;
#140 = EDGE_CURVE ( 'NONE', #414, #533, #314, .T. ) ;
#141 = DIRECTION ( 'NONE',  ( -0.7071067811865519000, 0.0000000000000000000, 0.7071067811865430200 ) ) ;
#142 = VECTOR ( 'NONE', #31, 1000.000000000000000 ) ;
#143 = ORIENTED_EDGE ( 'NONE', *, *, #82, .T. ) ;
#144 = EDGE_LOOP ( 'NONE', ( #362, #589, #36, #291 ) ) ;
#145 = PLANE ( 'NONE',  #271 ) ;
#146 = LINE ( 'NONE', #38, #220 ) ;
#147 = FACE_OUTER_BOUND ( 'NONE', #136, .T. ) ;
#148 = VERTEX_POINT ( 'NONE', #55 ) ;
#149 = AXIS2_PLACEMENT_3D ( 'NONE', #116, #562, #285 ) ;
#150 = ORIENTED_EDGE ( 'NONE', *, *, #297, .F. ) ;
#151 = EDGE_CURVE ( 'NONE', #250, #57, #503, .T. ) ;
#152 = LINE ( 'NONE', #391, #231 ) ;
#153 = CARTESIAN_POINT ( 'NONE',  ( 38.18376618407376100, 17.00000000000000000, -38.18376618407336300 ) ) ;
#154 = CARTESIAN_POINT ( 'NONE',  ( 11.59501306665691400, 17.00000000000000000, -22.90872156564150000 ) ) ;
#155 = ORIENTED_EDGE ( 'NONE', *, *, #353, .F. ) ;
#156 = APPROVAL_STATUS ( 'not_yet_approved' ) ;
#157 = ORIENTED_EDGE ( 'NONE', *, *, #363, .T. ) ;
#158 = DIRECTION ( 'NONE',  ( 1.000000000000000000, -0.0000000000000000000, -0.0000000000000000000 ) ) ;
#159 = CIRCLE ( 'NONE', #440, 2.000000000000000000 ) ;
#160 = PERSON_AND_ORGANIZATION ( #50, #469 ) ;
#161 = DIRECTION ( 'NONE',  ( 0.0000000000000000000, 1.000000000000000000, 0.0000000000000000000 ) ) ;
#162 = DIRECTION ( 'NONE',  ( 0.0000000000000000000, 0.0000000000000000000, -1.000000000000000000 ) ) ;
#163 = EDGE_CURVE ( 'NONE', #585, #186, #462, .T. ) ;
#164 = PRODUCT_DEFINITION_FORMATION_WITH_SPECIFIED_SOURCE ( 'ANY', '', #103, .NOT_KNOWN. ) ;
#165 = APPROVAL_DATE_TIME ( #547, #279 ) ;
#166 = VERTEX_POINT ( 'NONE', #233 ) ;
#167 = ORIENTED_EDGE ( 'NONE', *, *, #151, .F. ) ;
#168 = VERTEX_POINT ( 'NONE', #510 ) ;
#169 = CARTESIAN_POINT ( 'NONE',  ( -23.99999999999997200, 17.00000000000000000, -5.999999999999999100 ) ) ;
#170 = ORIENTED_EDGE ( 'NONE', *, *, #67, .T. ) ;
#171 = EDGE_CURVE ( 'NONE', #234, #388, #132, .T. ) ;
#172 = CARTESIAN_POINT ( 'NONE',  ( -54.00000000000000000, 0.0000000000000000000, -5.999999999999999100 ) ) ;
#173 = FACE_OUTER_BOUND ( 'NONE', #528, .T. ) ;
#174 = VECTOR ( 'NONE', #337, 999.9999999999998900 ) ;
#175 = APPROVAL ( #156, 'UNSPECIFIED' ) ;
#176 = DIRECTION ( 'NONE',  ( 0.0000000000000000000, 0.0000000000000000000, -1.000000000000000000 ) ) ;
#177 = ORIENTED_EDGE ( 'NONE', *, *, #446, .F. ) ;
#178 = DIRECTION ( 'NONE',  ( -1.000000000000000000, 0.0000000000000000000, 0.0000000000000000000 ) ) ;
#179 = EDGE_CURVE ( 'NONE', #433, #222, #242, .T. ) ;
#180 = CARTESIAN_POINT ( 'NONE',  ( 33.94112549695450600, 17.00000000000000000, -42.42640687119267500 ) ) ;
#181 = CARTESIAN_POINT ( 'NONE',  ( -23.63245787002911100, 17.00000000000000000, -6.152240934977424300 ) ) ;
#182 = ADVANCED_FACE ( 'NONE', ( #147 ), #12, .T. ) ;
#183 = DIRECTION ( 'NONE',  ( 0.0000000000000000000, 0.0000000000000000000, -1.000000000000000000 ) ) ;
#184 = ORIENTED_EDGE ( 'NONE', *, *, #28, .T. ) ;
#185 = ORIENTED_EDGE ( 'NONE', *, *, #509, .T. ) ;
#186 = VERTEX_POINT ( 'NONE', #515 ) ;
#187 = DIRECTION ( 'NONE',  ( -0.0000000000000000000, -1.000000000000000000, -0.0000000000000000000 ) ) ;
#188 = AXIS2_PLACEMENT_3D ( 'NONE', #447, #40, #178 ) ;
#189 = DIRECTION ( 'NONE',  ( 1.000000000000000000, 0.0000000000000000000, -0.0000000000000000000 ) ) ;
#190 = CARTESIAN_POINT ( 'NONE',  ( 23.47517606299226500, 8.500000000000007100, -31.96045743723052700 ) ) ;
#191 = DATE_AND_TIME ( #47, #306 ) ;
#192 = DIRECTION ( 'NONE',  ( -0.0000000000000000000, 1.000000000000000000, -0.0000000000000000000 ) ) ;
#193 = EDGE_CURVE ( 'NONE', #308, #201, #98, .T. ) ;
#194 = ORIENTED_EDGE ( 'NONE', *, *, #568, .T. ) ;
#195 = DIRECTION ( 'NONE',  ( 0.9238795325112876300, 0.0000000000000000000, -0.3826834323650875600 ) ) ;
#196 = DIRECTION ( 'NONE',  ( 0.0000000000000000000, 1.000000000000000000, 0.0000000000000000000 ) ) ;
#197 = PERSON_AND_ORGANIZATION ( #50, #469 ) ;
#198 =( LENGTH_UNIT ( ) NAMED_UNIT ( * ) SI_UNIT ( .MILLI., .METRE. ) );
#199 = FACE_OUTER_BOUND ( 'NONE', #448, .T. ) ;
#200 = DIRECTION ( 'NONE',  ( -3.469446951953614200E-015, 0.0000000000000000000, -1.000000000000000000 ) ) ;
#201 = VERTEX_POINT ( 'NONE', #20 ) ;
#202 = AXIS2_PLACEMENT_3D ( 'NONE', #9, #196, #507 ) ;
#203 = ORIENTED_EDGE ( 'NONE', *, *, #523, .T. ) ;
#204 = DIRECTION ( 'NONE',  ( 0.0000000000000000000, 1.000000000000000000, 0.0000000000000000000 ) ) ;
#205 = CARTESIAN_POINT ( 'NONE',  ( 0.0000000000000000000, 0.0000000000000000000, 0.0000000000000000000 ) ) ;
#206 = EDGE_CURVE ( 'NONE', #2, #168, #481, .T. ) ;
#207 = APPROVAL_ROLE ( '' ) ;
#208 = FACE_OUTER_BOUND ( 'NONE', #534, .T. ) ;
#209 = LINE ( 'NONE', #249, #546 ) ;
#210 = DATE_AND_TIME ( #444, #274 ) ;
#211 = ORIENTED_EDGE ( 'NONE', *, *, #238, .F. ) ;
#212 = CC_DESIGN_PERSON_AND_ORGANIZATION_ASSIGNMENT ( #554, #569, ( #266 ) ) ;
#213 = VECTOR ( 'NONE', #158, 1000.000000000000000 ) ;
#214 = CARTESIAN_POINT ( 'NONE',  ( 38.18376618407376100, 0.0000000000000000000, -38.18376618407336300 ) ) ;
#215 = ORIENTED_EDGE ( 'NONE', *, *, #163, .F. ) ;
#216 = PERSON_AND_ORGANIZATION ( #50, #469 ) ;
#217 = AXIS2_PLACEMENT_3D ( 'NONE', #154, #471, #561 ) ;
#218 = CARTESIAN_POINT ( 'NONE',  ( -36.44891236737964800, 8.500000000000007100, -8.673617379884035500E-016 ) ) ;
#219 = ORIENTED_EDGE ( 'NONE', *, *, #96, .F. ) ;
#220 = VECTOR ( 'NONE', #358, 1000.000000000000000 ) ;
#221 = DIRECTION ( 'NONE',  ( 0.0000000000000000000, 1.000000000000000000, -0.0000000000000000000 ) ) ;
#222 = VERTEX_POINT ( 'NONE', #72 ) ;
#223 = CARTESIAN_POINT ( 'NONE',  ( 13.00922662902999800, 17.00000000000000000, -21.49450800326839700 ) ) ;
#224 = VERTEX_POINT ( 'NONE', #513 ) ;
#225 = AXIS2_PLACEMENT_3D ( 'NONE', #205, #16, #426 ) ;
#226 = PLANE ( 'NONE',  #127 ) ;
#227 = DIRECTION ( 'NONE',  ( -0.7071067811865436900, -0.0000000000000000000, -0.7071067811865514600 ) ) ;
#228 = EDGE_CURVE ( 'NONE', #84, #308, #331, .T. ) ;
#229 = ORIENTED_EDGE ( 'NONE', *, *, #28, .F. ) ;
#230 = ORIENTED_EDGE ( 'NONE', *, *, #520, .T. ) ;
#231 = VECTOR ( 'NONE', #69, 1000.000000000000000 ) ;
#232 = CALENDAR_DATE ( 2018, 21, 6 ) ;
#233 = CARTESIAN_POINT ( 'NONE',  ( -36.44891236737964800, 8.500000000000007100, -5.999999999999999100 ) ) ;
#234 = VERTEX_POINT ( 'NONE', #83 ) ;
#235 = ORIENTED_EDGE ( 'NONE', *, *, #261, .T. ) ;
#236 = AXIS2_PLACEMENT_3D ( 'NONE', #424, #475, #200 ) ;
#237 = EDGE_LOOP ( 'NONE', ( #177, #58, #449, #30 ) ) ;
#238 = EDGE_CURVE ( 'NONE', #454, #148, #299, .T. ) ;
#239 = PERSON_AND_ORGANIZATION_ROLE ( 'design_supplier' ) ;
#240 = CARTESIAN_POINT ( 'NONE',  ( 38.18376618407376100, 17.00000000000000000, -38.18376618407336300 ) ) ;
#241 = CIRCLE ( 'NONE', #552, 2.000000000000001800 ) ;
#242 = CIRCLE ( 'NONE', #236, 2.000000000000000000 ) ;
#243 = CALENDAR_DATE ( 2018, 21, 6 ) ;
#244 = FACE_OUTER_BOUND ( 'NONE', #42, .T. ) ;
#245 = CARTESIAN_POINT ( 'NONE',  ( 25.77327310184850300, 8.500000000000007100, -25.77327310184823300 ) ) ;
#246 = ORIENTED_EDGE ( 'NONE', *, *, #581, .F. ) ;
#247 = ADVANCED_FACE ( 'NONE', ( #5 ), #342, .T. ) ;
#248 = FACE_OUTER_BOUND ( 'NONE', #437, .T. ) ;
#249 = CARTESIAN_POINT ( 'NONE',  ( -23.63245787002911100, 17.00000000000000000, -6.152240934977424300 ) ) ;
#250 = VERTEX_POINT ( 'NONE', #350 ) ;
#251 = EDGE_CURVE ( 'NONE', #57, #380, #443, .T. ) ;
#252 = ORIENTED_EDGE ( 'NONE', *, *, #111, .T. ) ;
#253 = DIRECTION ( 'NONE',  ( 0.0000000000000000000, -1.000000000000000000, -0.0000000000000000000 ) ) ;
#254 = CYLINDRICAL_SURFACE ( 'NONE', #92, 5.999999999999998200 ) ;
#255 = PRODUCT_RELATED_PRODUCT_CATEGORY ( 'detail', '', ( #103 ) ) ;
#256 = FACE_OUTER_BOUND ( 'NONE', #498, .T. ) ;
#257 = CARTESIAN_POINT ( 'NONE',  ( -24.39782473475928600, 17.00000000000000000, -8.000000000000000000 ) ) ;
#258 = ORIENTED_EDGE ( 'NONE', *, *, #1, .F. ) ;
#259 = ORIENTED_EDGE ( 'NONE', *, *, #363, .F. ) ;
#260 = VERTEX_POINT ( 'NONE', #79 ) ;
#261 = EDGE_CURVE ( 'NONE', #454, #380, #359, .T. ) ;
#262 = DIRECTION ( 'NONE',  ( 0.0000000000000000000, 0.0000000000000000000, 1.000000000000000000 ) ) ;
#263 = CARTESIAN_POINT ( 'NONE',  ( 23.47517606299226500, 8.500000000000007100, -31.96045743723052700 ) ) ;
#264 = CYLINDRICAL_SURFACE ( 'NONE', #188, 2.749999999999995600 ) ;
#265 = DIRECTION ( 'NONE',  ( -0.7071067811865512400, 0.0000000000000000000, 0.7071067811865439100 ) ) ;
#266 = PRODUCT_DEFINITION ( 'UNKNOWN', '', #164, #394 ) ;
#267 = EDGE_LOOP ( 'NONE', ( #412, #558 ) ) ;
#268 = CARTESIAN_POINT ( 'NONE',  ( -24.39782473475928600, 0.0000000000000000000, -5.999999999999999100 ) ) ;
#269 = ORIENTED_EDGE ( 'NONE', *, *, #458, .F. ) ;
#270 = ORIENTED_EDGE ( 'NONE', *, *, #151, .T. ) ;
#271 = AXIS2_PLACEMENT_3D ( 'NONE', #501, #48, #460 ) ;
#272 = CIRCLE ( 'NONE', #429, 2.749999999999995600 ) ;
#273 = VECTOR ( 'NONE', #322, 1000.000000000000000 ) ;
#274 = LOCAL_TIME ( 9, 2, 28.00000000000000000, #289 ) ;
#275 = EDGE_CURVE ( 'NONE', #32, #454, #566, .T. ) ;
#276 = ORIENTED_EDGE ( 'NONE', *, *, #405, .T. ) ;
#277 = ORIENTED_EDGE ( 'NONE', *, *, #452, .T. ) ;
#278 = CARTESIAN_POINT ( 'NONE',  ( 12.72792206135793500, 17.00000000000000000, -21.21320343559634100 ) ) ;
#279 = APPROVAL ( #295, 'UNSPECIFIED' ) ;
#280 = VECTOR ( 'NONE', #75, 1000.000000000000000 ) ;
#281 = DATE_AND_TIME ( #243, #378 ) ;
#282 = EDGE_CURVE ( 'NONE', #222, #483, #209, .T. ) ;
#283 = EDGE_LOOP ( 'NONE', ( #421, #259 ) ) ;
#284 = CARTESIAN_POINT ( 'NONE',  ( 0.0000000000000000000, 17.00000000000000000, 0.0000000000000000000 ) ) ;
#285 = DIRECTION ( 'NONE',  ( -0.7071067811865513500, 0.0000000000000000000, 0.7071067811865438000 ) ) ;
#286 = DIRECTION ( 'NONE',  ( 0.0000000000000000000, 0.0000000000000000000, -1.000000000000000000 ) ) ;
#287 = CIRCLE ( 'NONE', #373, 2.749999999999997800 ) ;
#288 = DIRECTION ( 'NONE',  ( 1.000000000000000000, 0.0000000000000000000, 0.0000000000000000000 ) ) ;
#289 = COORDINATED_UNIVERSAL_TIME_OFFSET ( 1, 0, .AHEAD. ) ;
#290 = MECHANICAL_CONTEXT ( 'NONE', #14, 'mechanical' ) ;
#291 = ORIENTED_EDGE ( 'NONE', *, *, #82, .F. ) ;
#292 = DIRECTION ( 'NONE',  ( -0.0000000000000000000, -0.0000000000000000000, -1.000000000000000000 ) ) ;
#293 = ORIENTED_EDGE ( 'NONE', *, *, #539, .F. ) ;
#294 = ORIENTED_EDGE ( 'NONE', *, *, #275, .F. ) ;
#295 = APPROVAL_STATUS ( 'not_yet_approved' ) ;
#296 = CARTESIAN_POINT ( 'NONE',  ( 38.18376618407376100, 17.00000000000000000, -38.18376618407336300 ) ) ;
#297 = EDGE_CURVE ( 'NONE', #470, #224, #584, .T. ) ;
#298 = DIRECTION ( 'NONE',  ( 0.0000000000000000000, 0.0000000000000000000, -1.000000000000000000 ) ) ;
#299 = LINE ( 'NONE', #578, #524 ) ;
#300 = EDGE_CURVE ( 'NONE', #260, #201, #531, .T. ) ;
#301 = ORIENTED_EDGE ( 'NONE', *, *, #375, .T. ) ;
#302 = ORIENTED_EDGE ( 'NONE', *, *, #476, .F. ) ;
#303 = CARTESIAN_POINT ( 'NONE',  ( 0.0000000000000000000, 0.0000000000000000000, 0.0000000000000000000 ) ) ;
#304 = ORIENTED_EDGE ( 'NONE', *, *, #452, .F. ) ;
#305 = AXIS2_PLACEMENT_3D ( 'NONE', #263, #457, #141 ) ;
#306 = LOCAL_TIME ( 9, 2, 28.00000000000000000, #88 ) ;
#307 = CARTESIAN_POINT ( 'NONE',  ( 29.66236039837453100, 8.500000000000007100, -29.66236039837422200 ) ) ;
#308 = VERTEX_POINT ( 'NONE', #482 ) ;
#309 = AXIS2_PLACEMENT_3D ( 'NONE', #130, #91, #442 ) ;
#310 = DIRECTION ( 'NONE',  ( -0.0000000000000000000, -1.000000000000000000, -0.0000000000000000000 ) ) ;
#311 = ADVANCED_FACE ( 'NONE', ( #479 ), #254, .T. ) ;
#312 = EDGE_CURVE ( 'NONE', #250, #499, #146, .T. ) ;
#313 = CARTESIAN_POINT ( 'NONE',  ( -54.00000000000000000, 0.0000000000000000000, 8.673617379884035500E-016 ) ) ;
#314 = LINE ( 'NONE', #417, #390 ) ;
#315 = PERSON_AND_ORGANIZATION ( #50, #469 ) ;
#316 = ORIENTED_EDGE ( 'NONE', *, *, #539, .T. ) ;
#317 = ADVANCED_BREP_SHAPE_REPRESENTATION ( 'ALP2420', ( #542, #576 ), #450 ) ;
#318 = VERTEX_POINT ( 'NONE', #355 ) ;
#319 = AXIS2_PLACEMENT_3D ( 'NONE', #214, #351, #438 ) ;
#320 = EDGE_LOOP ( 'NONE', ( #246, #304 ) ) ;
#321 = DIRECTION ( 'NONE',  ( 0.0000000000000000000, 1.000000000000000000, 0.0000000000000000000 ) ) ;
#322 = DIRECTION ( 'NONE',  ( -0.0000000000000000000, -1.000000000000000000, 0.0000000000000000000 ) ) ;
#323 = LINE ( 'NONE', #557, #4 ) ;
#324 = VECTOR ( 'NONE', #125, 1000.000000000000000 ) ;
#325 = PERSON_AND_ORGANIZATION ( #50, #469 ) ;
#326 = EDGE_LOOP ( 'NONE', ( #150, #143, #371, #185 ) ) ;
#327 = ORIENTED_EDGE ( 'NONE', *, *, #312, .F. ) ;
#328 = ORIENTED_EDGE ( 'NONE', *, *, #353, .T. ) ;
#329 = DIRECTION ( 'NONE',  ( 0.0000000000000000000, 1.000000000000000000, 0.0000000000000000000 ) ) ;
#330 = CARTESIAN_POINT ( 'NONE',  ( -54.00000000000000000, 17.00000000000000000, -5.999999999999999100 ) ) ;
#331 = LINE ( 'NONE', #118, #213 ) ;
#332 = COORDINATED_UNIVERSAL_TIME_OFFSET ( 1, 0, .AHEAD. ) ;
#333 = AXIS2_PLACEMENT_3D ( 'NONE', #456, #44, #591 ) ;
#334 = VECTOR ( 'NONE', #477, 1000.000000000000000 ) ;
#335 = DIRECTION ( 'NONE',  ( -1.000000000000000000, -0.0000000000000000000, -0.0000000000000000000 ) ) ;
#336 = ORIENTED_EDGE ( 'NONE', *, *, #446, .T. ) ;
#337 = DIRECTION ( 'NONE',  ( 0.7071067811865512400, 0.0000000000000000000, -0.7071067811865439100 ) ) ;
#338 = EDGE_LOOP ( 'NONE', ( #155, #276, #252, #354 ) ) ;
#339 = CARTESIAN_POINT ( 'NONE',  ( 0.0000000000000000000, 0.0000000000000000000, 0.0000000000000000000 ) ) ;
#340 = DIRECTION ( 'NONE',  ( -0.0000000000000000000, -1.000000000000000000, -0.0000000000000000000 ) ) ;
#341 = CIRCLE ( 'NONE', #587, 5.999999999999998200 ) ;
#342 = CYLINDRICAL_SURFACE ( 'NONE', #385, 5.999999999999998200 ) ;
#343 = AXIS2_PLACEMENT_3D ( 'NONE', #403, #139, #455 ) ;
#344 = ORIENTED_EDGE ( 'NONE', *, *, #405, .F. ) ;
#345 = CARTESIAN_POINT ( 'NONE',  ( 0.0000000000000000000, 0.0000000000000000000, 0.0000000000000000000 ) ) ;
#346 = ORIENTED_EDGE ( 'NONE', *, *, #563, .F. ) ;
#347 = AXIS2_PLACEMENT_3D ( 'NONE', #368, #221, #262 ) ;
#348 = PERSON_AND_ORGANIZATION ( #50, #469 ) ;
#349 = ORIENTED_EDGE ( 'NONE', *, *, #193, .F. ) ;
#350 = CARTESIAN_POINT ( 'NONE',  ( 42.42640687119306600, 17.00000000000000000, -42.42640687119262600 ) ) ;
#351 = DIRECTION ( 'NONE',  ( -0.0000000000000000000, -1.000000000000000000, -0.0000000000000000000 ) ) ;
#352 = SHAPE_DEFINITION_REPRESENTATION ( #427, #317 ) ;
#353 = EDGE_CURVE ( 'NONE', #388, #483, #105, .T. ) ;
#354 = ORIENTED_EDGE ( 'NONE', *, *, #282, .T. ) ;
#355 = CARTESIAN_POINT ( 'NONE',  ( 12.36037993138709000, 0.0000000000000000000, -21.06096250061892400 ) ) ;
#356 = ADVANCED_FACE ( 'NONE', ( #120 ), #43, .F. ) ;
#357 = LINE ( 'NONE', #330, #511 ) ;
#358 = DIRECTION ( 'NONE',  ( -0.0000000000000000000, -1.000000000000000000, -0.0000000000000000000 ) ) ;
#359 = CIRCLE ( 'NONE', #319, 5.999999999999998200 ) ;
#360 = LOCAL_TIME ( 9, 2, 28.00000000000000000, #538 ) ;
#361 = CARTESIAN_POINT ( 'NONE',  ( 12.36037993138708800, 0.0000000000000000000, -21.06096250061892400 ) ) ;
#362 = ORIENTED_EDGE ( 'NONE', *, *, #375, .F. ) ;
#363 = EDGE_CURVE ( 'NONE', #166, #168, #13, .T. ) ;
#364 = DIRECTION ( 'NONE',  ( 0.0000000000000000000, 0.0000000000000000000, -1.000000000000000000 ) ) ;
#365 = ORIENTED_EDGE ( 'NONE', *, *, #275, .T. ) ;
#366 = DIRECTION ( 'NONE',  ( 0.0000000000000000000, 0.0000000000000000000, -1.000000000000000000 ) ) ;
#367 = DIRECTION ( 'NONE',  ( -0.7071067811865519000, 0.0000000000000000000, 0.7071067811865430200 ) ) ;
#368 = CARTESIAN_POINT ( 'NONE',  ( -24.39782473475928600, 17.00000000000000000, -8.000000000000000000 ) ) ;
#369 = LINE ( 'NONE', #19, #123 ) ;
#370 = CARTESIAN_POINT ( 'NONE',  ( -60.00000000000000000, 17.00000000000000000, 0.0000000000000000000 ) ) ;
#371 = ORIENTED_EDGE ( 'NONE', *, *, #556, .T. ) ;
#372 = EDGE_LOOP ( 'NONE', ( #346, #465, #17, #294 ) ) ;
#373 = AXIS2_PLACEMENT_3D ( 'NONE', #506, #560, #384 ) ;
#374 = CARTESIAN_POINT ( 'NONE',  ( -23.99999999999997200, 17.00000000000000000, -5.999999999999999100 ) ) ;
#375 = EDGE_CURVE ( 'NONE', #483, #470, #159, .T. ) ;
#376 = LINE ( 'NONE', #223, #70 ) ;
#377 = LINE ( 'NONE', #268, #273 ) ;
#378 = LOCAL_TIME ( 9, 2, 28.00000000000000000, #504 ) ;
#379 = CYLINDRICAL_SURFACE ( 'NONE', #110, 2.749999999999997800 ) ;
#380 = VERTEX_POINT ( 'NONE', #535 ) ;
#381 = DIRECTION ( 'NONE',  ( 0.7071067811865435800, -0.0000000000000000000, 0.7071067811865515700 ) ) ;
#382 = DIRECTION ( 'NONE',  ( 0.0000000000000000000, 0.0000000000000000000, 1.000000000000000000 ) ) ;
#383 = DIRECTION ( 'NONE',  ( -0.7071067811865439100, 0.0000000000000000000, -0.7071067811865512400 ) ) ;
#384 = DIRECTION ( 'NONE',  ( -0.7071067811865506800, 0.0000000000000000000, 0.7071067811865443500 ) ) ;
#385 = AXIS2_PLACEMENT_3D ( 'NONE', #240, #574, #298 ) ;
#386 = CYLINDRICAL_SURFACE ( 'NONE', #60, 2.000000000000001800 ) ;
#387 = APPLICATION_PROTOCOL_DEFINITION ( 'international standard', 'config_control_design', 1994, #14 ) ;
#388 = VERTEX_POINT ( 'NONE', #586 ) ;
#389 = DIRECTION ( 'NONE',  ( 0.0000000000000000000, 0.0000000000000000000, 1.000000000000000000 ) ) ;
#390 = VECTOR ( 'NONE', #101, 1000.000000000000100 ) ;
#391 = CARTESIAN_POINT ( 'NONE',  ( -60.00000000000000000, 17.00000000000000000, 0.0000000000000000000 ) ) ;
#392 = CARTESIAN_POINT ( 'NONE',  ( 11.59501306665691400, 17.00000000000000000, -22.90872156564150000 ) ) ;
#393 = ORIENTED_EDGE ( 'NONE', *, *, #228, .T. ) ;
#394 = DESIGN_CONTEXT ( 'detailed design', #113, 'design' ) ;
#395 = AXIS2_PLACEMENT_3D ( 'NONE', #519, #292, #25 ) ;
#396 = VECTOR ( 'NONE', #134, 1000.000000000000000 ) ;
#397 = FACE_OUTER_BOUND ( 'NONE', #144, .T. ) ;
#398 = CC_DESIGN_APPROVAL ( #175, ( #164 ) ) ;
#399 = ORIENTED_EDGE ( 'NONE', *, *, #476, .T. ) ;
#400 = CIRCLE ( 'NONE', #527, 2.750000000000000000 ) ;
#401 = FACE_OUTER_BOUND ( 'NONE', #66, .T. ) ;
#402 = AXIS2_PLACEMENT_3D ( 'NONE', #278, #381, #11 ) ;
#403 = CARTESIAN_POINT ( 'NONE',  ( 38.18376618407376100, 0.0000000000000000000, -38.18376618407336300 ) ) ;
#404 = CALENDAR_DATE ( 2018, 21, 6 ) ;
#405 = EDGE_CURVE ( 'NONE', #388, #318, #23, .T. ) ;
#406 = ORIENTED_EDGE ( 'NONE', *, *, #300, .F. ) ;
#407 = CARTESIAN_POINT ( 'NONE',  ( -24.39782473475928600, 17.00000000000000000, -5.999999999999999100 ) ) ;
#408 = ADVANCED_FACE ( 'NONE', ( #248 ), #264, .F. ) ;
#409 = CARTESIAN_POINT ( 'NONE',  ( 21.53063241472924700, 8.500000000000007100, -30.01591378896753400 ) ) ;
#410 = CIRCLE ( 'NONE', #343, 5.999999999999998200 ) ;
#411 = CIRCLE ( 'NONE', #45, 2.749999999999995600 ) ;
#412 = ORIENTED_EDGE ( 'NONE', *, *, #96, .T. ) ;
#413 = CARTESIAN_POINT ( 'NONE',  ( 25.41971971125527900, 8.500000000000007100, -33.90500108549351700 ) ) ;
#414 = VERTEX_POINT ( 'NONE', #307 ) ;
#415 = ORIENTED_EDGE ( 'NONE', *, *, #10, .F. ) ;
#416 = DIRECTION ( 'NONE',  ( -0.0000000000000000000, -0.0000000000000000000, -1.000000000000000000 ) ) ;
#417 = CARTESIAN_POINT ( 'NONE',  ( 25.41971971125527900, 8.500000000000007100, -33.90500108549351700 ) ) ;
#418 = AXIS2_PLACEMENT_3D ( 'NONE', #135, #459, #183 ) ;
#419 = VECTOR ( 'NONE', #572, 1000.000000000000000 ) ;
#420 = DIRECTION ( 'NONE',  ( -0.0000000000000000000, 1.000000000000000000, -0.0000000000000000000 ) ) ;
#421 = ORIENTED_EDGE ( 'NONE', *, *, #3, .F. ) ;
#422 = ORIENTED_EDGE ( 'NONE', *, *, #297, .T. ) ;
#423 = EDGE_LOOP ( 'NONE', ( #550, #167, #463, #269 ) ) ;
#424 = CARTESIAN_POINT ( 'NONE',  ( -24.39782473475928600, 0.0000000000000000000, -8.000000000000000000 ) ) ;
#425 = APPROVAL_ROLE ( '' ) ;
#426 = DIRECTION ( 'NONE',  ( 0.0000000000000000000, 0.0000000000000000000, -1.000000000000000000 ) ) ;
#427 = PRODUCT_DEFINITION_SHAPE ( 'NONE', 'NONE',  #266 ) ;
#428 = CIRCLE ( 'NONE', #495, 2.749999999999997800 ) ;
#429 = AXIS2_PLACEMENT_3D ( 'NONE', #108, #102, #6 ) ;
#430 = LINE ( 'NONE', #593, #121 ) ;
#431 = VERTEX_POINT ( 'NONE', #218 ) ;
#432 = CARTESIAN_POINT ( 'NONE',  ( -41.94891236737964100, 8.500000000000007100, -8.673617379884035500E-016 ) ) ;
#433 = VERTEX_POINT ( 'NONE', #529 ) ;
#434 = CYLINDRICAL_SURFACE ( 'NONE', #347, 2.000000000000000000 ) ;
#435 = CC_DESIGN_PERSON_AND_ORGANIZATION_ASSIGNMENT ( #160, #71, ( #164 ) ) ;
#436 = ADVANCED_FACE ( 'NONE', ( #474, #208 ), #145, .F. ) ;
#437 = EDGE_LOOP ( 'NONE', ( #571, #90, #157, #129 ) ) ;
#438 = DIRECTION ( 'NONE',  ( 0.0000000000000000000, 0.0000000000000000000, -1.000000000000000000 ) ) ;
#439 = VERTEX_POINT ( 'NONE', #172 ) ;
#440 = AXIS2_PLACEMENT_3D ( 'NONE', #257, #310, #488 ) ;
#441 = CYLINDRICAL_SURFACE ( 'NONE', #305, 2.749999999999997800 ) ;
#442 = DIRECTION ( 'NONE',  ( -1.000000000000000000, 0.0000000000000000000, 0.0000000000000000000 ) ) ;
#443 = LINE ( 'NONE', #522, #280 ) ;
#444 = CALENDAR_DATE ( 2018, 21, 6 ) ;
#445 = ADVANCED_FACE ( 'NONE', ( #486 ), #441, .F. ) ;
#446 = EDGE_CURVE ( 'NONE', #224, #84, #492, .T. ) ;
#447 = CARTESIAN_POINT ( 'NONE',  ( -39.19891236737964100, 8.500000000000007100, -5.999999999999999100 ) ) ;
#448 = EDGE_LOOP ( 'NONE', ( #100, #81, #128, #344 ) ) ;
#449 = ORIENTED_EDGE ( 'NONE', *, *, #67, .F. ) ;
#450 =( GEOMETRIC_REPRESENTATION_CONTEXT ( 3 ) GLOBAL_UNCERTAINTY_ASSIGNED_CONTEXT ( ( #485 ) ) GLOBAL_UNIT_ASSIGNED_CONTEXT ( ( #198, #21, #573 ) ) REPRESENTATION_CONTEXT ( 'NONE', 'WORKASPACE' ) );
#451 = DIRECTION ( 'NONE',  ( -0.7071067811865513500, 0.0000000000000000000, 0.7071067811865438000 ) ) ;
#452 = EDGE_CURVE ( 'NONE', #533, #186, #400, .T. ) ;
#453 = DIRECTION ( 'NONE',  ( -0.7071067811865439100, 0.0000000000000000000, -0.7071067811865512400 ) ) ;
#454 = VERTEX_POINT ( 'NONE', #537 ) ;
#455 = DIRECTION ( 'NONE',  ( 0.0000000000000000000, 0.0000000000000000000, -1.000000000000000000 ) ) ;
#456 = CARTESIAN_POINT ( 'NONE',  ( -39.19891236737964100, 8.500000000000007100, -5.999999999999999100 ) ) ;
#457 = DIRECTION ( 'NONE',  ( -0.7071067811865436900, -0.0000000000000000000, -0.7071067811865514600 ) ) ;
#458 = EDGE_CURVE ( 'NONE', #380, #499, #410, .T. ) ;
#459 = DIRECTION ( 'NONE',  ( -0.0000000000000000000, -1.000000000000000000, 0.0000000000000000000 ) ) ;
#460 = DIRECTION ( 'NONE',  ( -1.000000000000000000, 0.0000000000000000000, -0.0000000000000000000 ) ) ;
#461 = CARTESIAN_POINT ( 'NONE',  ( 38.18376618407376100, 17.00000000000000000, -44.18376618407336300 ) ) ;
#462 = LINE ( 'NONE', #409, #532 ) ;
#463 = ORIENTED_EDGE ( 'NONE', *, *, #312, .T. ) ;
#464 = AXIS2_PLACEMENT_3D ( 'NONE', #374, #104, #195 ) ;
#465 = ORIENTED_EDGE ( 'NONE', *, *, #251, .T. ) ;
#466 = CARTESIAN_POINT ( 'NONE',  ( 42.42640687119306600, 0.0000000000000000000, -42.42640687119262600 ) ) ;
#467 = AXIS2_PLACEMENT_3D ( 'NONE', #496, #382, #189 ) ;
#468 = DIRECTION ( 'NONE',  ( -1.000000000000000000, 0.0000000000000000000, 0.0000000000000000000 ) ) ;
#469 = ORGANIZATION ( 'UNSPECIFIED', 'UNSPECIFIED', '' ) ;
#470 = VERTEX_POINT ( 'NONE', #407 ) ;
#471 = DIRECTION ( 'NONE',  ( -0.0000000000000000000, -1.000000000000000000, -0.0000000000000000000 ) ) ;
#472 = DIRECTION ( 'NONE',  ( -0.7071067811865506800, 0.0000000000000000000, 0.7071067811865443500 ) ) ;
#473 = AXIS2_PLACEMENT_3D ( 'NONE', #491, #253, #176 ) ;
#474 = FACE_BOUND ( 'NONE', #267, .T. ) ;
#475 = DIRECTION ( 'NONE',  ( 0.0000000000000000000, 1.000000000000000000, 0.0000000000000000000 ) ) ;
#476 = EDGE_CURVE ( 'NONE', #585, #414, #287, .T. ) ;
#477 = DIRECTION ( 'NONE',  ( -0.7071067811865515700, -0.0000000000000000000, 0.7071067811865435800 ) ) ;
#478 = SECURITY_CLASSIFICATION_LEVEL ( 'unclassified' ) ;
#479 = FACE_OUTER_BOUND ( 'NONE', #372, .T. ) ;
#480 = SECURITY_CLASSIFICATION ( '', '', #478 ) ;
#481 = LINE ( 'NONE', #68, #419 ) ;
#482 = CARTESIAN_POINT ( 'NONE',  ( 0.0000000000000000000, 17.00000000000000000, 0.0000000000000000000 ) ) ;
#483 = VERTEX_POINT ( 'NONE', #181 ) ;
#484 = AXIS2_PLACEMENT_3D ( 'NONE', #313, #187, #364 ) ;
#485 = UNCERTAINTY_MEASURE_WITH_UNIT (LENGTH_MEASURE( 1.000000000000000100E-005 ), #198, 'distance_accuracy_value', 'NONE');
#486 = FACE_OUTER_BOUND ( 'NONE', #73, .T. ) ;
#487 = LINE ( 'NONE', #512, #334 ) ;
#488 = DIRECTION ( 'NONE',  ( 0.0000000000000000000, 0.0000000000000000000, -1.000000000000000000 ) ) ;
#489 = ORIENTED_EDGE ( 'NONE', *, *, #140, .T. ) ;
#490 = ORIENTED_EDGE ( 'NONE', *, *, #300, .T. ) ;
#491 = CARTESIAN_POINT ( 'NONE',  ( 0.0000000000000000000, 17.00000000000000000, 0.0000000000000000000 ) ) ;
#492 = CIRCLE ( 'NONE', #122, 6.000000000000000000 ) ;
#493 = FACE_OUTER_BOUND ( 'NONE', #237, .T. ) ;
#494 = APPROVAL_DATE_TIME ( #210, #175 ) ;
#495 = AXIS2_PLACEMENT_3D ( 'NONE', #63, #383, #472 ) ;
#496 = CARTESIAN_POINT ( 'NONE',  ( -60.00000000000000000, 17.00000000000000000, -5.999999999999999100 ) ) ;
#497 = CIRCLE ( 'NONE', #484, 6.000000000000000000 ) ;
#498 = EDGE_LOOP ( 'NONE', ( #293, #489, #277, #215 ) ) ;
#499 = VERTEX_POINT ( 'NONE', #466 ) ;
#500 = ORIENTED_EDGE ( 'NONE', *, *, #35, .F. ) ;
#501 = CARTESIAN_POINT ( 'NONE',  ( 0.0000000000000000000, 17.00000000000000000, 0.0000000000000000000 ) ) ;
#502 = ADVANCED_FACE ( 'NONE', ( #545 ), #590, .F. ) ;
#503 = CIRCLE ( 'NONE', #202, 5.999999999999998200 ) ;
#504 = COORDINATED_UNIVERSAL_TIME_OFFSET ( 1, 0, .AHEAD. ) ;
#505 = VECTOR ( 'NONE', #49, 1000.000000000000000 ) ;
#506 = CARTESIAN_POINT ( 'NONE',  ( 27.71781675011151700, 8.500000000000007100, -27.71781675011122900 ) ) ;
#507 = DIRECTION ( 'NONE',  ( 3.469446951953615400E-015, 0.0000000000000000000, -1.000000000000000000 ) ) ;
#508 = CARTESIAN_POINT ( 'NONE',  ( 11.59501306665691400, 0.0000000000000000000, -22.90872156564150000 ) ) ;
#509 = EDGE_CURVE ( 'NONE', #439, #224, #357, .T. ) ;
#510 = CARTESIAN_POINT ( 'NONE',  ( -41.94891236737964100, 8.500000000000007100, -5.999999999999999100 ) ) ;
#511 = VECTOR ( 'NONE', #420, 1000.000000000000000 ) ;
#512 = CARTESIAN_POINT ( 'NONE',  ( 12.72792206135793500, 17.00000000000000000, -21.21320343559634100 ) ) ;
#513 = CARTESIAN_POINT ( 'NONE',  ( -54.00000000000000000, 17.00000000000000000, -5.999999999999999100 ) ) ;
#514 = APPROVAL ( #565, 'UNSPECIFIED' ) ;
#515 = CARTESIAN_POINT ( 'NONE',  ( 21.53063241472924700, 8.500000000000007100, -30.01591378896753400 ) ) ;
#516 = APPROVAL_DATE_TIME ( #191, #514 ) ;
#517 = FACE_BOUND ( 'NONE', #283, .T. ) ;
#518 = APPLICATION_PROTOCOL_DEFINITION ( 'international standard', 'config_control_design', 1994, #113 ) ;
#519 = CARTESIAN_POINT ( 'NONE',  ( -39.19891236737964100, 8.500000000000007100, -5.999999999999999100 ) ) ;
#520 = EDGE_CURVE ( 'NONE', #148, #234, #376, .T. ) ;
#521 = PERSON_AND_ORGANIZATION_ROLE ( 'design_owner' ) ;
#522 = CARTESIAN_POINT ( 'NONE',  ( 38.18376618407376100, 17.00000000000000000, -44.18376618407336300 ) ) ;
#523 = EDGE_CURVE ( 'NONE', #318, #148, #241, .T. ) ;
#524 = VECTOR ( 'NONE', #525, 1000.000000000000000 ) ;
#525 = DIRECTION ( 'NONE',  ( -0.7071067811865515700, -0.0000000000000000000, 0.7071067811865435800 ) ) ;
#526 = CLOSED_SHELL ( 'NONE', ( #34, #408, #311, #436, #80, #536, #502, #87, #356, #182, #247, #77, #33, #52, #37, #445 ) ) ;
#527 = AXIS2_PLACEMENT_3D ( 'NONE', #190, #227, #451 ) ;
#528 = EDGE_LOOP ( 'NONE', ( #15, #230, #258, #365 ) ) ;
#529 = CARTESIAN_POINT ( 'NONE',  ( -24.39782473475928600, 0.0000000000000000000, -5.999999999999999100 ) ) ;
#530 = EDGE_CURVE ( 'NONE', #431, #2, #272, .T. ) ;
#531 = LINE ( 'NONE', #303, #112 ) ;
#532 = VECTOR ( 'NONE', #551, 1000.000000000000100 ) ;
#533 = VERTEX_POINT ( 'NONE', #413 ) ;
#534 = EDGE_LOOP ( 'NONE', ( #490, #349, #580, #194 ) ) ;
#535 = CARTESIAN_POINT ( 'NONE',  ( 38.18376618407376100, 0.0000000000000000000, -44.18376618407336300 ) ) ;
#536 = ADVANCED_FACE ( 'NONE', ( #131, #173 ), #59, .F. ) ;
#537 = CARTESIAN_POINT ( 'NONE',  ( 33.94112549695450600, 0.0000000000000000000, -42.42640687119267500 ) ) ;
#538 = COORDINATED_UNIVERSAL_TIME_OFFSET ( 1, 0, .AHEAD. ) ;
#539 = EDGE_CURVE ( 'NONE', #414, #585, #428, .T. ) ;
#540 = DIRECTION ( 'NONE',  ( 0.0000000000000000000, 0.0000000000000000000, 1.000000000000000000 ) ) ;
#541 = CARTESIAN_POINT ( 'NONE',  ( -36.44891236737964800, 8.500000000000007100, -5.999999999999999100 ) ) ;
#542 = MANIFOLD_SOLID_BREP ( 'Mirror1', #526 ) ;
#543 = DIRECTION ( 'NONE',  ( -0.7071067811865436900, -0.0000000000000000000, -0.7071067811865514600 ) ) ;
#544 = CARTESIAN_POINT ( 'NONE',  ( -39.19891236737964100, 8.500000000000007100, -8.673617379884035500E-016 ) ) ;
#545 = FACE_OUTER_BOUND ( 'NONE', #338, .T. ) ;
#546 = VECTOR ( 'NONE', #582, 1000.000000000000000 ) ;
#547 = DATE_AND_TIME ( #232, #360 ) ;
#548 = CC_DESIGN_PERSON_AND_ORGANIZATION_ASSIGNMENT ( #197, #239, ( #164 ) ) ;
#549 = ORIENTED_EDGE ( 'NONE', *, *, #206, .T. ) ;
#550 = ORIENTED_EDGE ( 'NONE', *, *, #251, .F. ) ;
#551 = DIRECTION ( 'NONE',  ( -0.7071067811865435800, -0.0000000000000000000, -0.7071067811865513500 ) ) ;
#552 = AXIS2_PLACEMENT_3D ( 'NONE', #508, #329, #553 ) ;
#553 = DIRECTION ( 'NONE',  ( 0.0000000000000000000, 0.0000000000000000000, -1.000000000000000000 ) ) ;
#554 = PERSON_AND_ORGANIZATION ( #50, #469 ) ;
#555 = DATE_AND_TIME ( #404, #93 ) ;
#556 = EDGE_CURVE ( 'NONE', #433, #439, #323, .T. ) ;
#557 = CARTESIAN_POINT ( 'NONE',  ( -60.00000000000000000, 0.0000000000000000000, -5.999999999999999100 ) ) ;
#558 = ORIENTED_EDGE ( 'NONE', *, *, #530, .T. ) ;
#559 = ORIENTED_EDGE ( 'NONE', *, *, #1, .T. ) ;
#560 = DIRECTION ( 'NONE',  ( -0.7071067811865439100, 0.0000000000000000000, -0.7071067811865512400 ) ) ;
#561 = DIRECTION ( 'NONE',  ( 0.0000000000000000000, 0.0000000000000000000, -1.000000000000000000 ) ) ;
#562 = DIRECTION ( 'NONE',  ( -0.7071067811865436900, -0.0000000000000000000, -0.7071067811865514600 ) ) ;
#563 = EDGE_CURVE ( 'NONE', #57, #32, #341, .T. ) ;
#564 = APPROVAL_PERSON_ORGANIZATION ( #348, #514, #425 ) ;
#565 = APPROVAL_STATUS ( 'not_yet_approved' ) ;
#566 = LINE ( 'NONE', #124, #324 ) ;
#567 = ORIENTED_EDGE ( 'NONE', *, *, #163, .T. ) ;
#568 = EDGE_CURVE ( 'NONE', #84, #260, #152, .T. ) ;
#569 = PERSON_AND_ORGANIZATION_ROLE ( 'creator' ) ;
#570 = ORIENTED_EDGE ( 'NONE', *, *, #111, .F. ) ;
#571 = ORIENTED_EDGE ( 'NONE', *, *, #530, .F. ) ;
#572 = DIRECTION ( 'NONE',  ( -0.0000000000000000000, -0.0000000000000000000, -1.000000000000000000 ) ) ;
#573 =( NAMED_UNIT ( * ) SI_UNIT ( $, .STERADIAN. ) SOLID_ANGLE_UNIT ( ) );
#574 = DIRECTION ( 'NONE',  ( 0.0000000000000000000, -1.000000000000000000, 0.0000000000000000000 ) ) ;
#575 = DATE_TIME_ROLE ( 'creation_date' ) ;
#576 = AXIS2_PLACEMENT_3D ( 'NONE', #339, #389, #288 ) ;
#577 = ORIENTED_EDGE ( 'NONE', *, *, #140, .F. ) ;
#578 = CARTESIAN_POINT ( 'NONE',  ( 12.72792206135793500, 0.0000000000000000000, -21.21320343559634100 ) ) ;
#579 = ORIENTED_EDGE ( 'NONE', *, *, #193, .T. ) ;
#580 = ORIENTED_EDGE ( 'NONE', *, *, #228, .F. ) ;
#581 = EDGE_CURVE ( 'NONE', #186, #533, #97, .T. ) ;
#582 = DIRECTION ( 'NONE',  ( 0.0000000000000000000, 1.000000000000000000, -0.0000000000000000000 ) ) ;
#583 = CC_DESIGN_APPROVAL ( #514, ( #266 ) ) ;
#584 = LINE ( 'NONE', #119, #142 ) ;
#585 = VERTEX_POINT ( 'NONE', #245 ) ;
#586 = CARTESIAN_POINT ( 'NONE',  ( 12.36037993138709000, 17.00000000000000000, -21.06096250061892400 ) ) ;
#587 = AXIS2_PLACEMENT_3D ( 'NONE', #153, #204, #286 ) ;
#588 = VECTOR ( 'NONE', #340, 1000.000000000000000 ) ;
#589 = ORIENTED_EDGE ( 'NONE', *, *, #282, .F. ) ;
#590 = PLANE ( 'NONE',  #464 ) ;
#591 = DIRECTION ( 'NONE',  ( -1.000000000000000000, 0.0000000000000000000, 0.0000000000000000000 ) ) ;
#592 = CARTESIAN_POINT ( 'NONE',  ( -54.00000000000000000, 17.00000000000000000, 8.673617379884035500E-016 ) ) ;
#593 = CARTESIAN_POINT ( 'NONE',  ( -23.99999999999997200, 0.0000000000000000000, -5.999999999999999100 ) ) ;
ENDSEC;
END-ISO-10303-21;
