ISO-10303-21;
HEADER;
FILE_DESCRIPTION (( 'STEP AP203' ),
    '1' );
FILE_NAME ('ALP2172.STEP',
    '2017-02-17T19:52:41',
    ( '' ),
    ( '' ),
    'SwSTEP 2.0',
    'SolidWorks 2012',
    '' );
FILE_SCHEMA (( 'CONFIG_CONTROL_DESIGN' ));
ENDSEC;

DATA;
#1 = ORIENTED_EDGE ( 'NONE', *, *, #517, .F. ) ;
#2 = ORIENTED_EDGE ( 'NONE', *, *, #264, .T. ) ;
#3 = ORIENTED_EDGE ( 'NONE', *, *, #505, .F. ) ;
#4 = EDGE_LOOP ( 'NONE', ( #171, #154, #133, #142 ) ) ;
#5 = EDGE_LOOP ( 'NONE', ( #158, #173, #164, #170 ) ) ;
#6 = EDGE_LOOP ( 'NONE', ( #225, #786 ) ) ;
#7 = EDGE_LOOP ( 'NONE', ( #144, #138, #199, #134, #180, #137, #143, #140, #178, #175 ) ) ;
#8 = EDGE_LOOP ( 'NONE', ( #159, #168, #152, #169 ) ) ;
#9 = CLOSED_SHELL ( 'NONE', ( #955, #968, #981, #962, #963, #975, #956, #961, #973, #965, #960, #985, #983, #982, #978, #980, #957, #971, #977, #967, #979, #984, #970, #976, #972, #954, #964, #959, #958, #974, #966, #969 ) ) ;
#10 = EDGE_LOOP ( 'NONE', ( #191, #196, #183, #147 ) ) ;
#11 = EDGE_LOOP ( 'NONE', ( #193, #150, #202, #151 ) ) ;
#12 = EDGE_LOOP ( 'NONE', ( #810, #795, #768, #771, #814 ) ) ;
#13 = EDGE_LOOP ( 'NONE', ( #785, #203, #209, #204 ) ) ;
#14 = EDGE_LOOP ( 'NONE', ( #780, #207 ) ) ;
#15 = EDGE_LOOP ( 'NONE', ( #794, #797, #765, #766 ) ) ;
#16 = EDGE_LOOP ( 'NONE', ( #172, #167, #155, #130, #129, #145, #161, #160, #139, #165 ) ) ;
#17 = EDGE_LOOP ( 'NONE', ( #212, #227, #3, #206, #219 ) ) ;
#18 = EDGE_LOOP ( 'NONE', ( #115, #108, #124, #119 ) ) ;
#19 = EDGE_LOOP ( 'NONE', ( #186, #194, #181, #200 ) ) ;
#20 = EDGE_LOOP ( 'NONE', ( #121, #126, #90, #91, #113, #94, #100, #96, #116, #112 ) ) ;
#21 = EDGE_LOOP ( 'NONE', ( #176, #132, #179, #135 ) ) ;
#22 = EDGE_LOOP ( 'NONE', ( #774, #2, #226, #808 ) ) ;
#23 = EDGE_LOOP ( 'NONE', ( #220, #1, #790, #811, #779, #784, #222, #772, #228, #787 ) ) ;
#24 = EDGE_LOOP ( 'NONE', ( #190, #146, #189, #174 ) ) ;
#25 = EDGE_LOOP ( 'NONE', ( #177, #188 ) ) ;
#26 = EDGE_LOOP ( 'NONE', ( #218, #208, #230, #799, #224 ) ) ;
#27 = EDGE_LOOP ( 'NONE', ( #205, #216, #213, #789 ) ) ;
#28 = EDGE_LOOP ( 'NONE', ( #131, #157, #163, #153 ) ) ;
#29 = EDGE_LOOP ( 'NONE', ( #162, #156, #99, #148 ) ) ;
#30 = EDGE_LOOP ( 'NONE', ( #127, #123, #101, #105 ) ) ;
#31 = EDGE_LOOP ( 'NONE', ( #815, #812, #770, #107 ) ) ;
#32 = EDGE_LOOP ( 'NONE', ( #813, #788, #792, #767 ) ) ;
#33 = VERTEX_POINT ( 'NONE', #389 ) ;
#34 = VERTEX_POINT ( 'NONE', #392 ) ;
#35 = VERTEX_POINT ( 'NONE', #397 ) ;
#36 = VERTEX_POINT ( 'NONE', #393 ) ;
#37 = EDGE_LOOP ( 'NONE', ( #120, #106, #104, #89 ) ) ;
#38 = VERTEX_POINT ( 'NONE', #398 ) ;
#39 = VERTEX_POINT ( 'NONE', #402 ) ;
#40 = VERTEX_POINT ( 'NONE', #390 ) ;
#41 = VERTEX_POINT ( 'NONE', #391 ) ;
#42 = VERTEX_POINT ( 'NONE', #394 ) ;
#43 = EDGE_LOOP ( 'NONE', ( #185, #195, #197, #192, #198, #201, #187, #806 ) ) ;
#44 = EDGE_LOOP ( 'NONE', ( #182, #136, #184, #149 ) ) ;
#45 = VERTEX_POINT ( 'NONE', #399 ) ;
#46 = VERTEX_POINT ( 'NONE', #395 ) ;
#47 = VERTEX_POINT ( 'NONE', #396 ) ;
#48 = VERTEX_POINT ( 'NONE', #400 ) ;
#49 = VERTEX_POINT ( 'NONE', #401 ) ;
#50 = VERTEX_POINT ( 'NONE', #420 ) ;
#51 = VERTEX_POINT ( 'NONE', #428 ) ;
#52 = VERTEX_POINT ( 'NONE', #447 ) ;
#53 = VERTEX_POINT ( 'NONE', #451 ) ;
#54 = VERTEX_POINT ( 'NONE', #455 ) ;
#55 = VERTEX_POINT ( 'NONE', #440 ) ;
#56 = VERTEX_POINT ( 'NONE', #413 ) ;
#57 = VERTEX_POINT ( 'NONE', #437 ) ;
#58 = VERTEX_POINT ( 'NONE', #429 ) ;
#59 = VERTEX_POINT ( 'NONE', #449 ) ;
#60 = VERTEX_POINT ( 'NONE', #412 ) ;
#61 = EDGE_LOOP ( 'NONE', ( #122, #92, #110, #93 ) ) ;
#62 = EDGE_LOOP ( 'NONE', ( #211, #807, #214, #217, #223, #229, #215, #221 ) ) ;
#63 = EDGE_LOOP ( 'NONE', ( #141, #166 ) ) ;
#64 = EDGE_LOOP ( 'NONE', ( #98, #95, #88, #111 ) ) ;
#65 = EDGE_LOOP ( 'NONE', ( #805, #210, #798, #791, #809 ) ) ;
#66 = VERTEX_POINT ( 'NONE', #452 ) ;
#67 = VERTEX_POINT ( 'NONE', #458 ) ;
#68 = VERTEX_POINT ( 'NONE', #439 ) ;
#69 = VERTEX_POINT ( 'NONE', #454 ) ;
#70 = VERTEX_POINT ( 'NONE', #438 ) ;
#71 = VERTEX_POINT ( 'NONE', #405 ) ;
#72 = VERTEX_POINT ( 'NONE', #418 ) ;
#73 = VERTEX_POINT ( 'NONE', #410 ) ;
#74 = VERTEX_POINT ( 'NONE', #432 ) ;
#75 = VERTEX_POINT ( 'NONE', #450 ) ;
#76 = VERTEX_POINT ( 'NONE', #446 ) ;
#77 = VERTEX_POINT ( 'NONE', #414 ) ;
#78 = VERTEX_POINT ( 'NONE', #415 ) ;
#79 = VERTEX_POINT ( 'NONE', #453 ) ;
#80 = VERTEX_POINT ( 'NONE', #456 ) ;
#81 = VERTEX_POINT ( 'NONE', #411 ) ;
#82 = VERTEX_POINT ( 'NONE', #435 ) ;
#83 = VERTEX_POINT ( 'NONE', #457 ) ;
#84 = VERTEX_POINT ( 'NONE', #425 ) ;
#85 = VERTEX_POINT ( 'NONE', #459 ) ;
#86 = VERTEX_POINT ( 'NONE', #442 ) ;
#87 = VERTEX_POINT ( 'NONE', #441 ) ;
#88 = ORIENTED_EDGE ( 'NONE', *, *, #233, .T. ) ;
#89 = ORIENTED_EDGE ( 'NONE', *, *, #255, .T. ) ;
#90 = ORIENTED_EDGE ( 'NONE', *, *, #514, .F. ) ;
#91 = ORIENTED_EDGE ( 'NONE', *, *, #507, .F. ) ;
#92 = ORIENTED_EDGE ( 'NONE', *, *, #503, .F. ) ;
#93 = ORIENTED_EDGE ( 'NONE', *, *, #272, .T. ) ;
#94 = ORIENTED_EDGE ( 'NONE', *, *, #510, .F. ) ;
#95 = ORIENTED_EDGE ( 'NONE', *, *, #271, .F. ) ;
#96 = ORIENTED_EDGE ( 'NONE', *, *, #522, .F. ) ;
#97 = VERTEX_POINT ( 'NONE', #404 ) ;
#98 = ORIENTED_EDGE ( 'NONE', *, *, #256, .F. ) ;
#99 = ORIENTED_EDGE ( 'NONE', *, *, #254, .T. ) ;
#100 = ORIENTED_EDGE ( 'NONE', *, *, #519, .F. ) ;
#101 = ORIENTED_EDGE ( 'NONE', *, *, #274, .F. ) ;
#102 = VERTEX_POINT ( 'NONE', #419 ) ;
#103 = VERTEX_POINT ( 'NONE', #416 ) ;
#104 = ORIENTED_EDGE ( 'NONE', *, *, #243, .T. ) ;
#105 = ORIENTED_EDGE ( 'NONE', *, *, #502, .T. ) ;
#106 = ORIENTED_EDGE ( 'NONE', *, *, #520, .F. ) ;
#107 = ORIENTED_EDGE ( 'NONE', *, *, #513, .T. ) ;
#108 = ORIENTED_EDGE ( 'NONE', *, *, #276, .F. ) ;
#109 = VERTEX_POINT ( 'NONE', #448 ) ;
#110 = ORIENTED_EDGE ( 'NONE', *, *, #239, .T. ) ;
#111 = ORIENTED_EDGE ( 'NONE', *, *, #520, .T. ) ;
#112 = ORIENTED_EDGE ( 'NONE', *, *, #288, .F. ) ;
#113 = ORIENTED_EDGE ( 'NONE', *, *, #284, .F. ) ;
#114 = VERTEX_POINT ( 'NONE', #430 ) ;
#115 = ORIENTED_EDGE ( 'NONE', *, *, #266, .F. ) ;
#116 = ORIENTED_EDGE ( 'NONE', *, *, #263, .F. ) ;
#117 = VERTEX_POINT ( 'NONE', #417 ) ;
#118 = VERTEX_POINT ( 'NONE', #422 ) ;
#119 = ORIENTED_EDGE ( 'NONE', *, *, #503, .T. ) ;
#120 = ORIENTED_EDGE ( 'NONE', *, *, #241, .F. ) ;
#121 = ORIENTED_EDGE ( 'NONE', *, *, #506, .F. ) ;
#122 = ORIENTED_EDGE ( 'NONE', *, *, #247, .F. ) ;
#123 = ORIENTED_EDGE ( 'NONE', *, *, #237, .F. ) ;
#124 = ORIENTED_EDGE ( 'NONE', *, *, #240, .T. ) ;
#125 = VERTEX_POINT ( 'NONE', #431 ) ;
#126 = ORIENTED_EDGE ( 'NONE', *, *, #532, .F. ) ;
#127 = ORIENTED_EDGE ( 'NONE', *, *, #532, .T. ) ;
#128 = VERTEX_POINT ( 'NONE', #421 ) ;
#129 = ORIENTED_EDGE ( 'NONE', *, *, #250, .T. ) ;
#130 = ORIENTED_EDGE ( 'NONE', *, *, #238, .F. ) ;
#131 = ORIENTED_EDGE ( 'NONE', *, *, #246, .F. ) ;
#132 = ORIENTED_EDGE ( 'NONE', *, *, #278, .T. ) ;
#133 = ORIENTED_EDGE ( 'NONE', *, *, #252, .T. ) ;
#134 = ORIENTED_EDGE ( 'NONE', *, *, #523, .F. ) ;
#135 = ORIENTED_EDGE ( 'NONE', *, *, #518, .F. ) ;
#136 = ORIENTED_EDGE ( 'NONE', *, *, #283, .T. ) ;
#137 = ORIENTED_EDGE ( 'NONE', *, *, #289, .T. ) ;
#138 = ORIENTED_EDGE ( 'NONE', *, *, #237, .T. ) ;
#139 = ORIENTED_EDGE ( 'NONE', *, *, #245, .T. ) ;
#140 = ORIENTED_EDGE ( 'NONE', *, *, #282, .F. ) ;
#141 = ORIENTED_EDGE ( 'NONE', *, *, #255, .F. ) ;
#142 = ORIENTED_EDGE ( 'NONE', *, *, #243, .F. ) ;
#143 = ORIENTED_EDGE ( 'NONE', *, *, #511, .F. ) ;
#144 = ORIENTED_EDGE ( 'NONE', *, *, #244, .T. ) ;
#145 = ORIENTED_EDGE ( 'NONE', *, *, #251, .F. ) ;
#146 = ORIENTED_EDGE ( 'NONE', *, *, #518, .T. ) ;
#147 = ORIENTED_EDGE ( 'NONE', *, *, #278, .F. ) ;
#148 = ORIENTED_EDGE ( 'NONE', *, *, #240, .F. ) ;
#149 = ORIENTED_EDGE ( 'NONE', *, *, #268, .T. ) ;
#150 = ORIENTED_EDGE ( 'NONE', *, *, #509, .T. ) ;
#151 = ORIENTED_EDGE ( 'NONE', *, *, #270, .T. ) ;
#152 = ORIENTED_EDGE ( 'NONE', *, *, #265, .T. ) ;
#153 = ORIENTED_EDGE ( 'NONE', *, *, #233, .F. ) ;
#154 = ORIENTED_EDGE ( 'NONE', *, *, #241, .T. ) ;
#155 = ORIENTED_EDGE ( 'NONE', *, *, #263, .T. ) ;
#156 = ORIENTED_EDGE ( 'NONE', *, *, #266, .T. ) ;
#157 = ORIENTED_EDGE ( 'NONE', *, *, #256, .T. ) ;
#158 = ORIENTED_EDGE ( 'NONE', *, *, #254, .F. ) ;
#159 = ORIENTED_EDGE ( 'NONE', *, *, #264, .F. ) ;
#160 = ORIENTED_EDGE ( 'NONE', *, *, #253, .F. ) ;
#161 = ORIENTED_EDGE ( 'NONE', *, *, #234, .F. ) ;
#162 = ORIENTED_EDGE ( 'NONE', *, *, #235, .F. ) ;
#163 = ORIENTED_EDGE ( 'NONE', *, *, #236, .T. ) ;
#164 = ORIENTED_EDGE ( 'NONE', *, *, #242, .T. ) ;
#165 = ORIENTED_EDGE ( 'NONE', *, *, #262, .T. ) ;
#166 = ORIENTED_EDGE ( 'NONE', *, *, #252, .F. ) ;
#167 = ORIENTED_EDGE ( 'NONE', *, *, #248, .T. ) ;
#168 = ORIENTED_EDGE ( 'NONE', *, *, #249, .T. ) ;
#169 = ORIENTED_EDGE ( 'NONE', *, *, #257, .F. ) ;
#170 = ORIENTED_EDGE ( 'NONE', *, *, #239, .F. ) ;
#171 = ORIENTED_EDGE ( 'NONE', *, *, #236, .F. ) ;
#172 = ORIENTED_EDGE ( 'NONE', *, *, #249, .F. ) ;
#173 = ORIENTED_EDGE ( 'NONE', *, *, #247, .T. ) ;
#174 = ORIENTED_EDGE ( 'NONE', *, *, #245, .F. ) ;
#175 = ORIENTED_EDGE ( 'NONE', *, *, #500, .F. ) ;
#176 = ORIENTED_EDGE ( 'NONE', *, *, #512, .F. ) ;
#177 = ORIENTED_EDGE ( 'NONE', *, *, #271, .T. ) ;
#178 = ORIENTED_EDGE ( 'NONE', *, *, #515, .F. ) ;
#179 = ORIENTED_EDGE ( 'NONE', *, *, #280, .T. ) ;
#180 = ORIENTED_EDGE ( 'NONE', *, *, #257, .T. ) ;
#181 = ORIENTED_EDGE ( 'NONE', *, *, #281, .T. ) ;
#182 = ORIENTED_EDGE ( 'NONE', *, *, #258, .F. ) ;
#183 = ORIENTED_EDGE ( 'NONE', *, *, #287, .T. ) ;
#184 = ORIENTED_EDGE ( 'NONE', *, *, #511, .T. ) ;
#185 = ORIENTED_EDGE ( 'NONE', *, *, #293, .F. ) ;
#186 = ORIENTED_EDGE ( 'NONE', *, *, #290, .F. ) ;
#187 = ORIENTED_EDGE ( 'NONE', *, *, #279, .T. ) ;
#188 = ORIENTED_EDGE ( 'NONE', *, *, #246, .T. ) ;
#189 = ORIENTED_EDGE ( 'NONE', *, *, #517, .T. ) ;
#190 = ORIENTED_EDGE ( 'NONE', *, *, #269, .F. ) ;
#191 = ORIENTED_EDGE ( 'NONE', *, *, #277, .F. ) ;
#192 = ORIENTED_EDGE ( 'NONE', *, *, #515, .T. ) ;
#193 = ORIENTED_EDGE ( 'NONE', *, *, #281, .F. ) ;
#194 = ORIENTED_EDGE ( 'NONE', *, *, #286, .T. ) ;
#195 = ORIENTED_EDGE ( 'NONE', *, *, #234, .T. ) ;
#196 = ORIENTED_EDGE ( 'NONE', *, *, #261, .T. ) ;
#197 = ORIENTED_EDGE ( 'NONE', *, *, #260, .F. ) ;
#198 = ORIENTED_EDGE ( 'NONE', *, *, #505, .T. ) ;
#199 = ORIENTED_EDGE ( 'NONE', *, *, #506, .T. ) ;
#200 = ORIENTED_EDGE ( 'NONE', *, *, #516, .T. ) ;
#201 = ORIENTED_EDGE ( 'NONE', *, *, #290, .T. ) ;
#202 = ORIENTED_EDGE ( 'NONE', *, *, #258, .T. ) ;
#203 = ORIENTED_EDGE ( 'NONE', *, *, #521, .F. ) ;
#204 = ORIENTED_EDGE ( 'NONE', *, *, #238, .T. ) ;
#205 = ORIENTED_EDGE ( 'NONE', *, *, #519, .T. ) ;
#206 = ORIENTED_EDGE ( 'NONE', *, *, #282, .T. ) ;
#207 = ORIENTED_EDGE ( 'NONE', *, *, #235, .T. ) ;
#208 = ORIENTED_EDGE ( 'NONE', *, *, #277, .T. ) ;
#209 = ORIENTED_EDGE ( 'NONE', *, *, #291, .F. ) ;
#210 = ORIENTED_EDGE ( 'NONE', *, *, #291, .T. ) ;
#211 = ORIENTED_EDGE ( 'NONE', *, *, #251, .T. ) ;
#212 = ORIENTED_EDGE ( 'NONE', *, *, #509, .F. ) ;
#213 = ORIENTED_EDGE ( 'NONE', *, *, #292, .F. ) ;
#214 = ORIENTED_EDGE ( 'NONE', *, *, #275, .T. ) ;
#215 = ORIENTED_EDGE ( 'NONE', *, *, #500, .T. ) ;
#216 = ORIENTED_EDGE ( 'NONE', *, *, #501, .F. ) ;
#217 = ORIENTED_EDGE ( 'NONE', *, *, #284, .T. ) ;
#218 = ORIENTED_EDGE ( 'NONE', *, *, #293, .T. ) ;
#219 = ORIENTED_EDGE ( 'NONE', *, *, #283, .F. ) ;
#220 = ORIENTED_EDGE ( 'NONE', *, *, #262, .F. ) ;
#221 = ORIENTED_EDGE ( 'NONE', *, *, #260, .T. ) ;
#222 = ORIENTED_EDGE ( 'NONE', *, *, #270, .F. ) ;
#223 = ORIENTED_EDGE ( 'NONE', *, *, #504, .F. ) ;
#224 = ORIENTED_EDGE ( 'NONE', *, *, #253, .T. ) ;
#225 = ORIENTED_EDGE ( 'NONE', *, *, #272, .F. ) ;
#226 = ORIENTED_EDGE ( 'NONE', *, *, #523, .T. ) ;
#227 = ORIENTED_EDGE ( 'NONE', *, *, #286, .F. ) ;
#228 = ORIENTED_EDGE ( 'NONE', *, *, #289, .F. ) ;
#229 = ORIENTED_EDGE ( 'NONE', *, *, #285, .F. ) ;
#230 = ORIENTED_EDGE ( 'NONE', *, *, #512, .T. ) ;
#231 = PERSON ( 'UNSPECIFIED', 'UNSPECIFIED', 'UNSPECIFIED', ('UNSPECIFIED'), ('UNSPECIFIED'), ('UNSPECIFIED') ) ;
#232 = PRODUCT ( 'ALP2172', 'ALP2172', '', ( #374 ) ) ;
#233 = EDGE_CURVE ( 'NONE', #56, #39, #801, .T. ) ;
#234 = EDGE_CURVE ( 'NONE', #85, #45, #796, .T. ) ;
#235 = EDGE_CURVE ( 'NONE', #68, #41, #775, .T. ) ;
#236 = EDGE_CURVE ( 'NONE', #87, #39, #783, .T. ) ;
#237 = EDGE_CURVE ( 'NONE', #57, #33, #800, .T. ) ;
#238 = EDGE_CURVE ( 'NONE', #58, #66, #778, .T. ) ;
#239 = EDGE_CURVE ( 'NONE', #53, #51, #773, .T. ) ;
#240 = EDGE_CURVE ( 'NONE', #41, #53, #803, .T. ) ;
#241 = EDGE_CURVE ( 'NONE', #87, #82, #804, .T. ) ;
#242 = EDGE_CURVE ( 'NONE', #86, #51, #828, .T. ) ;
#243 = EDGE_CURVE ( 'NONE', #39, #80, #825, .T. ) ;
#244 = EDGE_CURVE ( 'NONE', #70, #57, #829, .T. ) ;
#245 = EDGE_CURVE ( 'NONE', #47, #52, #824, .T. ) ;
#246 = EDGE_CURVE ( 'NONE', #40, #56, #826, .T. ) ;
#247 = EDGE_CURVE ( 'NONE', #109, #86, #819, .T. ) ;
#248 = EDGE_CURVE ( 'NONE', #125, #81, #821, .T. ) ;
#249 = EDGE_CURVE ( 'NONE', #125, #76, #822, .T. ) ;
#250 = EDGE_CURVE ( 'NONE', #58, #54, #837, .T. ) ;
#251 = EDGE_CURVE ( 'NONE', #45, #54, #830, .T. ) ;
#252 = EDGE_CURVE ( 'NONE', #82, #80, #843, .T. ) ;
#253 = EDGE_CURVE ( 'NONE', #47, #85, #835, .T. ) ;
#254 = EDGE_CURVE ( 'NONE', #109, #53, #834, .T. ) ;
#255 = EDGE_CURVE ( 'NONE', #80, #82, #844, .T. ) ;
#256 = EDGE_CURVE ( 'NONE', #40, #87, #839, .T. ) ;
#257 = EDGE_CURVE ( 'NONE', #73, #75, #836, .T. ) ;
#258 = EDGE_CURVE ( 'NONE', #79, #60, #845, .T. ) ;
#259 = EDGE_CURVE ( 'NONE', #55, #83, #841, .T. ) ;
#260 = EDGE_CURVE ( 'NONE', #49, #45, #857, .T. ) ;
#261 = EDGE_CURVE ( 'NONE', #72, #59, #846, .T. ) ;
#262 = EDGE_CURVE ( 'NONE', #52, #76, #847, .T. ) ;
#263 = EDGE_CURVE ( 'NONE', #81, #66, #856, .T. ) ;
#264 = EDGE_CURVE ( 'NONE', #125, #73, #848, .T. ) ;
#265 = EDGE_CURVE ( 'NONE', #76, #75, #860, .T. ) ;
#266 = EDGE_CURVE ( 'NONE', #68, #109, #859, .T. ) ;
#267 = EDGE_CURVE ( 'NONE', #74, #54, #868, .T. ) ;
#268 = EDGE_CURVE ( 'NONE', #103, #60, #870, .T. ) ;
#269 = EDGE_CURVE ( 'NONE', #36, #47, #875, .T. ) ;
#270 = EDGE_CURVE ( 'NONE', #60, #78, #861, .T. ) ;
#271 = EDGE_CURVE ( 'NONE', #56, #40, #866, .T. ) ;
#272 = EDGE_CURVE ( 'NONE', #51, #86, #863, .T. ) ;
#273 = EDGE_CURVE ( 'NONE', #48, #55, #862, .T. ) ;
#274 = EDGE_CURVE ( 'NONE', #83, #57, #873, .T. ) ;
#275 = EDGE_CURVE ( 'NONE', #74, #77, #864, .T. ) ;
#276 = EDGE_CURVE ( 'NONE', #41, #68, #908, .T. ) ;
#277 = EDGE_CURVE ( 'NONE', #72, #69, #893, .T. ) ;
#278 = EDGE_CURVE ( 'NONE', #69, #97, #894, .T. ) ;
#279 = EDGE_CURVE ( 'NONE', #117, #59, #877, .T. ) ;
#280 = EDGE_CURVE ( 'NONE', #97, #35, #880, .T. ) ;
#281 = EDGE_CURVE ( 'NONE', #118, #78, #910, .T. ) ;
#282 = EDGE_CURVE ( 'NONE', #50, #102, #911, .T. ) ;
#283 = EDGE_CURVE ( 'NONE', #79, #102, #899, .T. ) ;
#284 = EDGE_CURVE ( 'NONE', #77, #67, #884, .T. ) ;
#285 = EDGE_CURVE ( 'NONE', #70, #48, #902, .T. ) ;
#286 = EDGE_CURVE ( 'NONE', #128, #118, #883, .T. ) ;
#287 = EDGE_CURVE ( 'NONE', #59, #97, #882, .T. ) ;
#288 = EDGE_CURVE ( 'NONE', #84, #81, #879, .T. ) ;
#289 = EDGE_CURVE ( 'NONE', #75, #103, #886, .T. ) ;
#290 = EDGE_CURVE ( 'NONE', #128, #117, #890, .T. ) ;
#291 = EDGE_CURVE ( 'NONE', #58, #42, #900, .T. ) ;
#292 = EDGE_CURVE ( 'NONE', #42, #71, #896, .T. ) ;
#293 = EDGE_CURVE ( 'NONE', #85, #72, #903, .T. ) ;
#294 = CARTESIAN_POINT ( 'NONE',  ( 7.500000000000006200, -8.699999999999999300, 0.0000000000000000000 ) ) ;
#295 = DIRECTION ( 'NONE',  ( -0.0000000000000000000, -0.0000000000000000000, -1.000000000000000000 ) ) ;
#296 = DIRECTION ( 'NONE',  ( 0.0000000000000000000, -1.000000000000000000, 0.0000000000000000000 ) ) ;
#297 = DIRECTION ( 'NONE',  ( -0.0000000000000000000, 1.000000000000000000, -0.0000000000000000000 ) ) ;
#298 = CARTESIAN_POINT ( 'NONE',  ( 0.0000000000000000000, 13.30000000000000200, 38.00000000000000000 ) ) ;
#299 = CARTESIAN_POINT ( 'NONE',  ( 7.500000000000007100, -1.700000000000000200, 37.99999999999999300 ) ) ;
#300 = DIRECTION ( 'NONE',  ( 0.7071067811865461300, 0.7071067811865489100, 0.0000000000000000000 ) ) ;
#301 = DIRECTION ( 'NONE',  ( -1.000000000000000000, 0.0000000000000000000, 0.0000000000000000000 ) ) ;
#302 = DIRECTION ( 'NONE',  ( -3.540251991789401900E-016, -1.000000000000000000, 0.0000000000000000000 ) ) ;
#303 = CARTESIAN_POINT ( 'NONE',  ( 9.499999999999992900, -1.700000000000000200, 36.00000000000000700 ) ) ;
#304 = DIRECTION ( 'NONE',  ( -0.7071067811865474600, -0.0000000000000000000, -0.7071067811865474600 ) ) ;
#305 = DIRECTION ( 'NONE',  ( 1.000000000000000000, 1.156482317317870500E-016, -0.0000000000000000000 ) ) ;
#306 = CARTESIAN_POINT ( 'NONE',  ( 0.0000000000000000000, -8.700000000000001100, 12.00000000000000000 ) ) ;
#307 = CARTESIAN_POINT ( 'NONE',  ( 9.499999999999996400, -4.899999999999999500, 0.0000000000000000000 ) ) ;
#308 = DIRECTION ( 'NONE',  ( -0.0000000000000000000, 1.000000000000000000, -0.0000000000000000000 ) ) ;
#309 = DIRECTION ( 'NONE',  ( 0.0000000000000000000, 0.0000000000000000000, 1.000000000000000000 ) ) ;
#310 = DIRECTION ( 'NONE',  ( 1.000000000000000000, -0.0000000000000000000, -0.0000000000000000000 ) ) ;
#311 = CARTESIAN_POINT ( 'NONE',  ( 0.0000000000000000000, 13.30000000000000200, 29.30000000000000100 ) ) ;
#312 = CARTESIAN_POINT ( 'NONE',  ( -9.500000000000000000, -1.700000000000000200, 36.00000000000000700 ) ) ;
#313 = CARTESIAN_POINT ( 'NONE',  ( 9.499999999999996400, -6.700000000000001100, 38.00000000000000000 ) ) ;
#314 = DIRECTION ( 'NONE',  ( -0.0000000000000000000, -0.0000000000000000000, -1.000000000000000000 ) ) ;
#315 = DIRECTION ( 'NONE',  ( -0.0000000000000000000, 1.000000000000000000, -0.0000000000000000000 ) ) ;
#316 = CARTESIAN_POINT ( 'NONE',  ( -4.900000000000002100, -1.700000000000000200, 34.20000000000000300 ) ) ;
#317 = DIRECTION ( 'NONE',  ( -0.0000000000000000000, -0.0000000000000000000, -1.000000000000000000 ) ) ;
#318 = DIRECTION ( 'NONE',  ( -0.0000000000000000000, -0.0000000000000000000, -1.000000000000000000 ) ) ;
#319 = DIRECTION ( 'NONE',  ( -1.000000000000000000, 0.0000000000000000000, 0.0000000000000000000 ) ) ;
#320 = CARTESIAN_POINT ( 'NONE',  ( 9.499999999999996400, -6.700000000000001100, 26.00000000000000000 ) ) ;
#321 = PLANE ( 'NONE',  #572 ) ;
#322 = DIRECTION ( 'NONE',  ( 1.000000000000000000, 0.0000000000000000000, 0.0000000000000000000 ) ) ;
#323 = CARTESIAN_POINT ( 'NONE',  ( -4.900000000000002100, 1.925929944387235900E-031, 38.00000000000000000 ) ) ;
#324 = DIRECTION ( 'NONE',  ( 0.0000000000000000000, -0.0000000000000000000, -1.000000000000000000 ) ) ;
#325 = PLANE ( 'NONE',  #571 ) ;
#326 = PLANE ( 'NONE',  #587 ) ;
#327 = CARTESIAN_POINT ( 'NONE',  ( -9.499999999999996400, -4.900000000000002100, 38.00000000000000000 ) ) ;
#328 = CARTESIAN_POINT ( 'NONE',  ( 4.899999999999997700, -1.700000000000000200, 29.30000000000000100 ) ) ;
#329 = DIRECTION ( 'NONE',  ( 1.000000000000000000, 0.0000000000000000000, -0.0000000000000000000 ) ) ;
#330 =( NAMED_UNIT ( * ) PLANE_ANGLE_UNIT ( ) SI_UNIT ( $, .RADIAN. ) );
#331 = PLANE ( 'NONE',  #583 ) ;
#332 = CARTESIAN_POINT ( 'NONE',  ( 0.0000000000000000000, 13.30000000000000200, 29.30000000000000100 ) ) ;
#333 = PLANE ( 'NONE',  #582 ) ;
#334 = PLANE ( 'NONE',  #557 ) ;
#335 = DIRECTION ( 'NONE',  ( -0.7071067811865463500, 0.7071067811865487900, 0.0000000000000000000 ) ) ;
#336 = DIRECTION ( 'NONE',  ( -0.0000000000000000000, 0.0000000000000000000, 1.000000000000000000 ) ) ;
#337 = DIRECTION ( 'NONE',  ( -0.7071067811865472400, 0.0000000000000000000, 0.7071067811865479100 ) ) ;
#338 = CARTESIAN_POINT ( 'NONE',  ( 4.899999999999996800, -1.700000000000000200, 34.20000000000000300 ) ) ;
#339 = DIRECTION ( 'NONE',  ( 0.0000000000000000000, -1.000000000000000000, 0.0000000000000000000 ) ) ;
#340 = DIRECTION ( 'NONE',  ( -1.000000000000000000, 0.0000000000000000000, 0.0000000000000000000 ) ) ;
#341 = DIRECTION ( 'NONE',  ( 1.000000000000000000, 0.0000000000000000000, 0.0000000000000000000 ) ) ;
#342 = DIRECTION ( 'NONE',  ( -0.0000000000000000000, -0.0000000000000000000, -1.000000000000000000 ) ) ;
#343 = CARTESIAN_POINT ( 'NONE',  ( 7.500000000000006200, -8.699999999999999300, 38.00000000000000000 ) ) ;
#344 = CARTESIAN_POINT ( 'NONE',  ( 0.0000000000000000000, 0.0000000000000000000, 38.00000000000000000 ) ) ;
#345 = DIRECTION ( 'NONE',  ( 1.000000000000000000, 0.0000000000000000000, 0.0000000000000000000 ) ) ;
#346 = PLANE ( 'NONE',  #562 ) ;
#347 = CARTESIAN_POINT ( 'NONE',  ( -9.499999999999996400, -6.700000000000003700, 38.00000000000000000 ) ) ;
#348 = DIRECTION ( 'NONE',  ( -0.0000000000000000000, -0.0000000000000000000, -1.000000000000000000 ) ) ;
#349 = CARTESIAN_POINT ( 'NONE',  ( 9.499999999999992900, -1.700000000000000200, 36.00000000000000700 ) ) ;
#350 = DIRECTION ( 'NONE',  ( -0.0000000000000000000, 0.0000000000000000000, 1.000000000000000000 ) ) ;
#351 = DIRECTION ( 'NONE',  ( 1.000000000000000000, 0.0000000000000000000, -0.0000000000000000000 ) ) ;
#352 = PLANE ( 'NONE',  #568 ) ;
#353 =( LENGTH_UNIT ( ) NAMED_UNIT ( * ) SI_UNIT ( .MILLI., .METRE. ) );
#354 = CARTESIAN_POINT ( 'NONE',  ( 0.0000000000000000000, 13.30000000000000200, 29.30000000000000100 ) ) ;
#355 = DIRECTION ( 'NONE',  ( -0.0000000000000000000, 0.0000000000000000000, -1.000000000000000000 ) ) ;
#356 = DIRECTION ( 'NONE',  ( -0.0000000000000000000, 0.0000000000000000000, 1.000000000000000000 ) ) ;
#357 = DIRECTION ( 'NONE',  ( -1.000000000000000000, -1.156482317317870500E-016, 0.0000000000000000000 ) ) ;
#358 = CARTESIAN_POINT ( 'NONE',  ( 0.0000000000000000000, 0.0000000000000000000, 0.0000000000000000000 ) ) ;
#359 = DIRECTION ( 'NONE',  ( 0.7071067811865487900, 0.7071067811865463500, -0.0000000000000000000 ) ) ;
#360 = DIRECTION ( 'NONE',  ( 0.0000000000000000000, 0.0000000000000000000, 1.000000000000000000 ) ) ;
#361 = DIRECTION ( 'NONE',  ( 1.000000000000000000, 1.224646799147353000E-016, 0.0000000000000000000 ) ) ;
#362 = PLANE ( 'NONE',  #559 ) ;
#363 = DIRECTION ( 'NONE',  ( 1.224646799147353000E-016, -1.000000000000000000, 0.0000000000000000000 ) ) ;
#364 = PLANE ( 'NONE',  #558 ) ;
#365 = DIRECTION ( 'NONE',  ( -0.7071067811865479100, 0.0000000000000000000, -0.7071067811865472400 ) ) ;
#366 = CARTESIAN_POINT ( 'NONE',  ( 0.0000000000000000000, -1.700000000000000200, 0.0000000000000000000 ) ) ;
#367 = DIRECTION ( 'NONE',  ( -1.000000000000000000, 0.0000000000000000000, 0.0000000000000000000 ) ) ;
#368 = DIRECTION ( 'NONE',  ( -1.156482317317870500E-016, 1.000000000000000000, 0.0000000000000000000 ) ) ;
#369 = DIRECTION ( 'NONE',  ( 0.0000000000000000000, 0.0000000000000000000, 1.000000000000000000 ) ) ;
#370 = PERSON_AND_ORGANIZATION_ROLE ( 'design_owner' ) ;
#371 = APPLICATION_PROTOCOL_DEFINITION ( 'international standard', 'config_control_design', 1994, #375 ) ;
#372 = DIRECTION ( 'NONE',  ( 1.000000000000000000, 0.0000000000000000000, 0.0000000000000000000 ) ) ;
#373 = CARTESIAN_POINT ( 'NONE',  ( 0.0000000000000000000, 0.0000000000000000000, 0.0000000000000000000 ) ) ;
#374 = MECHANICAL_CONTEXT ( 'NONE', #381, 'mechanical' ) ;
#375 = APPLICATION_CONTEXT ( 'configuration controlled 3d designs of mechanical parts and assemblies' ) ;
#376 = APPROVAL_STATUS ( 'not_yet_approved' ) ;
#377 = APPROVAL_ROLE ( '' ) ;
#378 = PERSON_AND_ORGANIZATION_ROLE ( 'creator' ) ;
#379 =( NAMED_UNIT ( * ) SI_UNIT ( $, .STERADIAN. ) SOLID_ANGLE_UNIT ( ) );
#380 = DATE_TIME_ROLE ( 'creation_date' ) ;
#381 = APPLICATION_CONTEXT ( 'configuration controlled 3d designs of mechanical parts and assemblies' ) ;
#382 = APPLICATION_PROTOCOL_DEFINITION ( 'international standard', 'config_control_design', 1994, #381 ) ;
#383 = APPROVAL_STATUS ( 'not_yet_approved' ) ;
#384 = APPROVAL_ROLE ( '' ) ;
#385 = PERSON_AND_ORGANIZATION_ROLE ( 'creator' ) ;
#386 = PERSON_AND_ORGANIZATION_ROLE ( 'design_supplier' ) ;
#387 = PRODUCT_DEFINITION_SHAPE ( 'NONE', 'NONE',  #586 ) ;
#388 = DESIGN_CONTEXT ( 'detailed design', #375, 'design' ) ;
#389 = CARTESIAN_POINT ( 'NONE',  ( -4.900000000000002100, 23.30000000000000100, 34.20000000000000300 ) ) ;
#390 = CARTESIAN_POINT ( 'NONE',  ( 4.163799117100998600E-016, -8.700000000000001100, 8.600000000000001400 ) ) ;
#391 = CARTESIAN_POINT ( 'NONE',  ( -3.399999999999998100, 13.30000000000000200, 38.00000000000000000 ) ) ;
#392 = CARTESIAN_POINT ( 'NONE',  ( -9.500000000000000000, 23.30000000000000100, 36.00000000000000700 ) ) ;
#393 = CARTESIAN_POINT ( 'NONE',  ( 9.499999999999996400, -4.899999999999999500, 26.00000000000000000 ) ) ;
#394 = CARTESIAN_POINT ( 'NONE',  ( 9.499999999999991100, -1.700000000000000200, 34.20000000000000300 ) ) ;
#395 = CARTESIAN_POINT ( 'NONE',  ( -9.499999999999998200, 23.30000000000000100, 34.20000000000000300 ) ) ;
#396 = CARTESIAN_POINT ( 'NONE',  ( 4.900000000000001200, -4.899999999999999500, 26.00000000000000000 ) ) ;
#397 = CARTESIAN_POINT ( 'NONE',  ( 9.499999999999996400, -4.899999999999999500, 0.0000000000000000000 ) ) ;
#398 = CARTESIAN_POINT ( 'NONE',  ( 9.499999999999992900, 23.30000000000000100, 36.00000000000000700 ) ) ;
#399 = CARTESIAN_POINT ( 'NONE',  ( 4.900000000000001200, -8.700000000000001100, 38.00000000000000000 ) ) ;
#400 = CARTESIAN_POINT ( 'NONE',  ( -7.500000000000011500, -1.700000000000000200, 37.99999999999999300 ) ) ;
#401 = CARTESIAN_POINT ( 'NONE',  ( -4.900000000000002100, -8.700000000000001100, 38.00000000000000000 ) ) ;
#402 = CARTESIAN_POINT ( 'NONE',  ( 0.0000000000000000000, -0.6250000000000005600, 15.39999999999999900 ) ) ;
#403 = CARTESIAN_POINT ( 'NONE',  ( 4.900000000000001200, -8.699999999999999300, 38.00000000000000000 ) ) ;
#404 = CARTESIAN_POINT ( 'NONE',  ( 9.499999999999996400, -6.700000000000001100, 0.0000000000000000000 ) ) ;
#405 = CARTESIAN_POINT ( 'NONE',  ( 9.499999999999992900, -1.700000000000000200, 36.00000000000000700 ) ) ;
#406 = DIRECTION ( 'NONE',  ( 0.0000000000000000000, 0.0000000000000000000, 1.000000000000000000 ) ) ;
#407 = DIRECTION ( 'NONE',  ( 0.0000000000000000000, 0.0000000000000000000, 1.000000000000000000 ) ) ;
#408 = CARTESIAN_POINT ( 'NONE',  ( 0.0000000000000000000, 13.30000000000000200, 38.00000000000000000 ) ) ;
#409 = CARTESIAN_POINT ( 'NONE',  ( 4.899999999999996800, -1.700000000000000200, 34.20000000000000300 ) ) ;
#410 = CARTESIAN_POINT ( 'NONE',  ( -4.900000000000003000, 0.0000000000000000000, 29.30000000000000100 ) ) ;
#411 = CARTESIAN_POINT ( 'NONE',  ( 4.899999999999997700, 23.30000000000000100, 29.30000000000000100 ) ) ;
#412 = CARTESIAN_POINT ( 'NONE',  ( -9.499999999999996400, -4.900000000000002100, 0.0000000000000000000 ) ) ;
#413 = CARTESIAN_POINT ( 'NONE',  ( 0.0000000000000000000, -8.700000000000001100, 15.39999999999999900 ) ) ;
#414 = CARTESIAN_POINT ( 'NONE',  ( 7.500000000000007100, 23.30000000000000100, 37.99999999999999300 ) ) ;
#415 = CARTESIAN_POINT ( 'NONE',  ( -9.499999999999996400, -6.700000000000003700, 0.0000000000000000000 ) ) ;
#416 = CARTESIAN_POINT ( 'NONE',  ( -4.900000000000003900, -4.900000000000000400, 0.0000000000000000000 ) ) ;
#417 = CARTESIAN_POINT ( 'NONE',  ( -7.500000000000006200, -8.700000000000001100, 0.0000000000000000000 ) ) ;
#418 = CARTESIAN_POINT ( 'NONE',  ( 7.500000000000007100, -8.699999999999999300, 26.00000000000000000 ) ) ;
#419 = CARTESIAN_POINT ( 'NONE',  ( -4.900000000000001200, -4.900000000000001200, 26.00000000000000000 ) ) ;
#420 = CARTESIAN_POINT ( 'NONE',  ( -4.900000000000001200, -8.700000000000001100, 26.00000000000000000 ) ) ;
#421 = CARTESIAN_POINT ( 'NONE',  ( -7.500000000000006200, -8.700000000000001100, 26.00000000000000000 ) ) ;
#422 = CARTESIAN_POINT ( 'NONE',  ( -9.499999999999996400, -6.700000000000003700, 26.00000000000000000 ) ) ;
#423 = CARTESIAN_POINT ( 'NONE',  ( -4.025000000000000400, 13.30000000000000200, 29.30000000000000100 ) ) ;
#424 = DIRECTION ( 'NONE',  ( -0.0000000000000000000, -0.0000000000000000000, -1.000000000000000000 ) ) ;
#425 = CARTESIAN_POINT ( 'NONE',  ( -4.900000000000003000, 23.30000000000000100, 29.30000000000000100 ) ) ;
#426 = DIRECTION ( 'NONE',  ( -1.000000000000000000, 0.0000000000000000000, 0.0000000000000000000 ) ) ;
#427 = CARTESIAN_POINT ( 'NONE',  ( -3.399999999999998600, 13.30000000000000200, 29.30000000000000100 ) ) ;
#428 = CARTESIAN_POINT ( 'NONE',  ( -4.025000000000000400, 13.30000000000000200, 29.30000000000000100 ) ) ;
#429 = CARTESIAN_POINT ( 'NONE',  ( 4.899999999999996800, -1.700000000000000200, 34.20000000000000300 ) ) ;
#430 = CARTESIAN_POINT ( 'NONE',  ( 9.499999999999991100, 23.30000000000000100, 34.20000000000000300 ) ) ;
#431 = CARTESIAN_POINT ( 'NONE',  ( 4.899999999999997700, 1.301042606982605300E-015, 29.30000000000000100 ) ) ;
#432 = CARTESIAN_POINT ( 'NONE',  ( 7.500000000000007100, -1.700000000000000200, 37.99999999999999300 ) ) ;
#433 = CARTESIAN_POINT ( 'NONE',  ( 0.0000000000000000000, 0.0000000000000000000, 15.39999999999999900 ) ) ;
#434 = DIRECTION ( 'NONE',  ( -0.0000000000000000000, 1.000000000000000000, -0.0000000000000000000 ) ) ;
#435 = CARTESIAN_POINT ( 'NONE',  ( 4.929203366568097200E-016, 0.0000000000000000000, 7.974999999999999600 ) ) ;
#436 = CARTESIAN_POINT ( 'NONE',  ( -4.900000000000002100, -1.700000000000000200, 34.20000000000000300 ) ) ;
#437 = CARTESIAN_POINT ( 'NONE',  ( -4.900000000000003000, -1.700000000000000200, 34.20000000000000300 ) ) ;
#438 = CARTESIAN_POINT ( 'NONE',  ( -4.900000000000003900, -1.700000000000000200, 37.99999999999999300 ) ) ;
#439 = CARTESIAN_POINT ( 'NONE',  ( 3.399999999999998100, 13.30000000000000200, 38.00000000000000000 ) ) ;
#440 = CARTESIAN_POINT ( 'NONE',  ( -9.500000000000000000, -1.700000000000000200, 36.00000000000000700 ) ) ;
#441 = CARTESIAN_POINT ( 'NONE',  ( 4.163799117101000100E-016, -0.6250000000000005600, 8.599999999999999600 ) ) ;
#442 = CARTESIAN_POINT ( 'NONE',  ( 4.025000000000000400, 13.30000000000000200, 29.30000000000000100 ) ) ;
#443 = DIRECTION ( 'NONE',  ( -0.0000000000000000000, 1.000000000000000000, -0.0000000000000000000 ) ) ;
#444 = CARTESIAN_POINT ( 'NONE',  ( 0.0000000000000000000, -0.6250000000000005600, 12.00000000000000000 ) ) ;
#445 = DIRECTION ( 'NONE',  ( -0.0000000000000000000, 1.000000000000000000, -0.0000000000000000000 ) ) ;
#446 = CARTESIAN_POINT ( 'NONE',  ( 4.900000000000000400, 1.200153863164406700E-015, 0.0000000000000000000 ) ) ;
#447 = CARTESIAN_POINT ( 'NONE',  ( 4.900000000000002100, -4.899999999999999500, 0.0000000000000000000 ) ) ;
#448 = CARTESIAN_POINT ( 'NONE',  ( 3.399999999999999500, 13.30000000000000200, 29.92500000000000100 ) ) ;
#449 = CARTESIAN_POINT ( 'NONE',  ( 7.500000000000006200, -8.699999999999999300, 0.0000000000000000000 ) ) ;
#450 = CARTESIAN_POINT ( 'NONE',  ( -4.900000000000002100, 1.925929944387235900E-031, 0.0000000000000000000 ) ) ;
#451 = CARTESIAN_POINT ( 'NONE',  ( -3.399999999999999000, 13.30000000000000200, 29.92500000000000100 ) ) ;
#452 = CARTESIAN_POINT ( 'NONE',  ( 4.899999999999996800, 23.30000000000000100, 34.20000000000000300 ) ) ;
#453 = CARTESIAN_POINT ( 'NONE',  ( -9.499999999999996400, -4.900000000000002100, 26.00000000000000000 ) ) ;
#454 = CARTESIAN_POINT ( 'NONE',  ( 9.499999999999996400, -6.700000000000001100, 26.00000000000000000 ) ) ;
#455 = CARTESIAN_POINT ( 'NONE',  ( 4.900000000000003000, -1.700000000000000200, 37.99999999999999300 ) ) ;
#456 = CARTESIAN_POINT ( 'NONE',  ( 0.0000000000000000000, 0.0000000000000000000, 16.02500000000000200 ) ) ;
#457 = CARTESIAN_POINT ( 'NONE',  ( -9.499999999999998200, -1.700000000000000200, 34.20000000000000300 ) ) ;
#458 = CARTESIAN_POINT ( 'NONE',  ( -7.500000000000011500, 23.30000000000000100, 37.99999999999999300 ) ) ;
#459 = CARTESIAN_POINT ( 'NONE',  ( 4.900000000000001200, -8.699999999999999300, 26.00000000000000000 ) ) ;
#460 = CARTESIAN_POINT ( 'NONE',  ( 0.0000000000000000000, 0.0000000000000000000, 16.02500000000000200 ) ) ;
#461 = DIRECTION ( 'NONE',  ( -1.000000000000000000, 0.0000000000000000000, 0.0000000000000000000 ) ) ;
#462 = CARTESIAN_POINT ( 'NONE',  ( -4.900000000000003000, -1.700000000000000200, 38.00000000000000000 ) ) ;
#463 = DIRECTION ( 'NONE',  ( -0.0000000000000000000, 1.000000000000000000, -0.0000000000000000000 ) ) ;
#464 = DIRECTION ( 'NONE',  ( 0.7071067811865483500, 8.659560562354942700E-017, -0.7071067811865468000 ) ) ;
#465 = DIRECTION ( 'NONE',  ( -0.7071067811865483500, 0.0000000000000000000, -0.7071067811865468000 ) ) ;
#466 = CARTESIAN_POINT ( 'NONE',  ( 4.899999999999997700, -1.700000000000000200, 29.30000000000000100 ) ) ;
#467 = DIRECTION ( 'NONE',  ( -0.0000000000000000000, -0.0000000000000000000, -1.000000000000000000 ) ) ;
#468 = CARTESIAN_POINT ( 'NONE',  ( 4.900000000000000400, 1.200153863164406700E-015, 38.00000000000000000 ) ) ;
#469 = CARTESIAN_POINT ( 'NONE',  ( 4.900000000000002100, -4.899999999999999500, 38.00000000000000000 ) ) ;
#470 = DIRECTION ( 'NONE',  ( -0.0000000000000000000, -0.0000000000000000000, -1.000000000000000000 ) ) ;
#471 = DIRECTION ( 'NONE',  ( 0.0000000000000000000, 0.0000000000000000000, -1.000000000000000000 ) ) ;
#472 = CARTESIAN_POINT ( 'NONE',  ( 4.163799117100999100E-016, 0.0000000000000000000, 8.600000000000001400 ) ) ;
#473 = CARTESIAN_POINT ( 'NONE',  ( 4.929203366568097200E-016, 0.0000000000000000000, 7.974999999999999600 ) ) ;
#474 = DIRECTION ( 'NONE',  ( -0.0000000000000000000, -0.0000000000000000000, -1.000000000000000000 ) ) ;
#475 = CARTESIAN_POINT ( 'NONE',  ( 4.025000000000000400, 13.30000000000000200, 29.30000000000000100 ) ) ;
#476 = DIRECTION ( 'NONE',  ( -0.0000000000000000000, 1.000000000000000000, -0.0000000000000000000 ) ) ;
#477 = DIRECTION ( 'NONE',  ( -0.0000000000000000000, -0.0000000000000000000, -1.000000000000000000 ) ) ;
#478 = CARTESIAN_POINT ( 'NONE',  ( 0.0000000000000000000, -8.700000000000001100, 12.00000000000000000 ) ) ;
#479 = DIRECTION ( 'NONE',  ( 0.0000000000000000000, 0.0000000000000000000, 1.000000000000000000 ) ) ;
#480 = DIRECTION ( 'NONE',  ( -0.0000000000000000000, 1.000000000000000000, -0.0000000000000000000 ) ) ;
#481 = DIRECTION ( 'NONE',  ( 8.659560562354942700E-017, 0.7071067811865468000, -0.7071067811865483500 ) ) ;
#482 = DIRECTION ( 'NONE',  ( 0.0000000000000000000, 0.7071067811865468000, 0.7071067811865483500 ) ) ;
#483 = CARTESIAN_POINT ( 'NONE',  ( 0.0000000000000000000, 13.30000000000000200, 29.30000000000000100 ) ) ;
#484 = DIRECTION ( 'NONE',  ( -0.0000000000000000000, 1.000000000000000000, -0.0000000000000000000 ) ) ;
#485 = DIRECTION ( 'NONE',  ( 0.0000000000000000000, 0.0000000000000000000, 1.000000000000000000 ) ) ;
#486 = DIRECTION ( 'NONE',  ( -1.000000000000000000, -3.771137991253935000E-016, 0.0000000000000000000 ) ) ;
#487 = CARTESIAN_POINT ( 'NONE',  ( -9.499999999999996400, -4.900000000000002100, 0.0000000000000000000 ) ) ;
#488 = DIRECTION ( 'NONE',  ( -0.0000000000000000000, 1.000000000000000000, -0.0000000000000000000 ) ) ;
#489 = DIRECTION ( 'NONE',  ( -1.000000000000000000, -1.224646799147353000E-016, 0.0000000000000000000 ) ) ;
#490 = CARTESIAN_POINT ( 'NONE',  ( -4.900000000000002100, 1.925929944387235900E-031, 29.30000000000000100 ) ) ;
#491 = CARTESIAN_POINT ( 'NONE',  ( -9.499999999999996400, -6.700000000000003700, 38.00000000000000000 ) ) ;
#492 = CARTESIAN_POINT ( 'NONE',  ( -4.900000000000002100, 1.925929944387235900E-031, 0.0000000000000000000 ) ) ;
#493 = DIRECTION ( 'NONE',  ( -1.000000000000000000, -1.224646799147353000E-016, -0.0000000000000000000 ) ) ;
#494 = CARTESIAN_POINT ( 'NONE',  ( 3.399999999999998600, 13.30000000000000200, 29.30000000000000100 ) ) ;
#495 = DIRECTION ( 'NONE',  ( -0.0000000000000000000, -0.0000000000000000000, -1.000000000000000000 ) ) ;
#496 = DIRECTION ( 'NONE',  ( -1.000000000000000000, 0.0000000000000000000, 0.0000000000000000000 ) ) ;
#497 = CARTESIAN_POINT ( 'NONE',  ( -7.500000000000011500, -1.700000000000000200, 37.99999999999999300 ) ) ;
#498 = DIRECTION ( 'NONE',  ( -1.000000000000000000, -0.0000000000000000000, -0.0000000000000000000 ) ) ;
#499 = CARTESIAN_POINT ( 'NONE',  ( -4.900000000000003900, -4.900000000000000400, 0.0000000000000000000 ) ) ;
#500 = EDGE_CURVE ( 'NONE', #70, #49, #934, .T. ) ;
#501 = EDGE_CURVE ( 'NONE', #71, #38, #945, .T. ) ;
#502 = EDGE_CURVE ( 'NONE', #83, #46, #937, .T. ) ;
#503 = EDGE_CURVE ( 'NONE', #53, #109, #921, .T. ) ;
#504 = EDGE_CURVE ( 'NONE', #48, #67, #928, .T. ) ;
#505 = EDGE_CURVE ( 'NONE', #50, #128, #918, .T. ) ;
#506 = EDGE_CURVE ( 'NONE', #33, #84, #925, .T. ) ;
#507 = EDGE_CURVE ( 'NONE', #67, #34, #929, .T. ) ;
#508 = EDGE_CURVE ( 'NONE', #71, #74, #942, .T. ) ;
#509 = EDGE_CURVE ( 'NONE', #118, #79, #924, .T. ) ;
#510 = EDGE_CURVE ( 'NONE', #38, #77, #944, .T. ) ;
#511 = EDGE_CURVE ( 'NONE', #102, #103, #939, .T. ) ;
#512 = EDGE_CURVE ( 'NONE', #69, #36, #919, .T. ) ;
#513 = EDGE_CURVE ( 'NONE', #55, #34, #913, .T. ) ;
#514 = EDGE_CURVE ( 'NONE', #34, #46, #912, .T. ) ;
#515 = EDGE_CURVE ( 'NONE', #49, #50, #914, .T. ) ;
#516 = EDGE_CURVE ( 'NONE', #78, #117, #943, .T. ) ;
#517 = EDGE_CURVE ( 'NONE', #35, #52, #917, .T. ) ;
#518 = EDGE_CURVE ( 'NONE', #36, #35, #941, .T. ) ;
#519 = EDGE_CURVE ( 'NONE', #114, #38, #951, .T. ) ;
#520 = EDGE_CURVE ( 'NONE', #39, #87, #949, .T. ) ;
#521 = EDGE_CURVE ( 'NONE', #42, #114, #953, .T. ) ;
#522 = EDGE_CURVE ( 'NONE', #66, #114, #708, .T. ) ;
#523 = EDGE_CURVE ( 'NONE', #73, #84, #679, .T. ) ;
#524 = AXIS2_PLACEMENT_3D ( 'NONE', #995, #1031, #1013 ) ;
#525 = AXIS2_PLACEMENT_3D ( 'NONE', #1033, #1003, #1008 ) ;
#526 = AXIS2_PLACEMENT_3D ( 'NONE', #1026, #1004, #1034 ) ;
#527 = AXIS2_PLACEMENT_3D ( 'NONE', #641, #646, #642 ) ;
#528 = AXIS2_PLACEMENT_3D ( 'NONE', #1073, #1022, #1010 ) ;
#529 = AXIS2_PLACEMENT_3D ( 'NONE', #408, #424, #426 ) ;
#530 = AXIS2_PLACEMENT_3D ( 'NONE', #1009, #1002, #1019 ) ;
#531 = AXIS2_PLACEMENT_3D ( 'NONE', #1025, #1021, #1015 ) ;
#532 = EDGE_CURVE ( 'NONE', #46, #33, #701, .T. ) ;
#533 = AXIS2_PLACEMENT_3D ( 'NONE', #478, #476, #479 ) ;
#534 = AXIS2_PLACEMENT_3D ( 'NONE', #630, #599, #629 ) ;
#535 = AXIS2_PLACEMENT_3D ( 'NONE', #658, #659, #650 ) ;
#536 = AXIS2_PLACEMENT_3D ( 'NONE', #638, #648, #649 ) ;
#537 = AXIS2_PLACEMENT_3D ( 'NONE', #444, #445, #407 ) ;
#538 = AXIS2_PLACEMENT_3D ( 'NONE', #608, #635, #636 ) ;
#539 = AXIS2_PLACEMENT_3D ( 'NONE', #1001, #1023, #1035 ) ;
#540 = AXIS2_PLACEMENT_3D ( 'NONE', #483, #477, #461 ) ;
#541 = AXIS2_PLACEMENT_3D ( 'NONE', #656, #653, #661 ) ;
#542 = AXIS2_PLACEMENT_3D ( 'NONE', #306, #297, #309 ) ;
#543 = AXIS2_PLACEMENT_3D ( 'NONE', #992, #1029, #999 ) ;
#544 = AXIS2_PLACEMENT_3D ( 'NONE', #655, #484, #485 ) ;
#545 = AXIS2_PLACEMENT_3D ( 'NONE', #298, #318, #319 ) ;
#546 = AXIS2_PLACEMENT_3D ( 'NONE', #1011, #1016, #998 ) ;
#547 = AXIS2_PLACEMENT_3D ( 'NONE', #1006, #990, #987 ) ;
#548 = AXIS2_PLACEMENT_3D ( 'NONE', #1012, #1018, #986 ) ;
#549 = AXIS2_PLACEMENT_3D ( 'NONE', #311, #314, #301 ) ;
#550 = AXIS2_PLACEMENT_3D ( 'NONE', #993, #1017, #996 ) ;
#551 = AXIS2_PLACEMENT_3D ( 'NONE', #1027, #1020, #989 ) ;
#552 = AXIS2_PLACEMENT_3D ( 'NONE', #1039, #1048, #997 ) ;
#553 = CC_DESIGN_PERSON_AND_ORGANIZATION_ASSIGNMENT ( #728, #370, ( #232 ) ) ;
#554 = APPROVAL ( #383, 'UNSPECIFIED' ) ;
#555 = CC_DESIGN_PERSON_AND_ORGANIZATION_ASSIGNMENT ( #761, #386, ( #563 ) ) ;
#556 = SECURITY_CLASSIFICATION ( '', '', #1044 ) ;
#557 = AXIS2_PLACEMENT_3D ( 'NONE', #328, #360, #351 ) ;
#558 = AXIS2_PLACEMENT_3D ( 'NONE', #344, #336, #341 ) ;
#559 = AXIS2_PLACEMENT_3D ( 'NONE', #343, #368, #357 ) ;
#560 = AXIS2_PLACEMENT_3D ( 'NONE', #1028, #1032, #991 ) ;
#561 = APPROVAL ( #376, 'UNSPECIFIED' ) ;
#562 = AXIS2_PLACEMENT_3D ( 'NONE', #347, #359, #335 ) ;
#563 = PRODUCT_DEFINITION_FORMATION_WITH_SPECIFIED_SOURCE ( 'ANY', '', #232, .NOT_KNOWN. ) ;
#564 = CC_DESIGN_PERSON_AND_ORGANIZATION_ASSIGNMENT ( #759, #385, ( #563 ) ) ;
#565 = CC_DESIGN_PERSON_AND_ORGANIZATION_ASSIGNMENT ( #763, #1045, ( #556 ) ) ;
#566 = APPROVAL ( #606, 'UNSPECIFIED' ) ;
#567 = CC_DESIGN_APPROVAL ( #566, ( #556 ) ) ;
#568 = AXIS2_PLACEMENT_3D ( 'NONE', #358, #356, #345 ) ;
#569 =( GEOMETRIC_REPRESENTATION_CONTEXT ( 3 ) GLOBAL_UNCERTAINTY_ASSIGNED_CONTEXT ( ( #678 ) ) GLOBAL_UNIT_ASSIGNED_CONTEXT ( ( #353, #330, #379 ) ) REPRESENTATION_CONTEXT ( 'NONE', 'WORKASPACE' ) );
#570 = AXIS2_PLACEMENT_3D ( 'NONE', #1052, #1040, #1043 ) ;
#571 = AXIS2_PLACEMENT_3D ( 'NONE', #323, #363, #361 ) ;
#572 = AXIS2_PLACEMENT_3D ( 'NONE', #338, #350, #322 ) ;
#573 = CC_DESIGN_PERSON_AND_ORGANIZATION_ASSIGNMENT ( #720, #378, ( #586 ) ) ;
#574 = CC_DESIGN_APPROVAL ( #554, ( #563 ) ) ;
#575 = CC_DESIGN_DATE_AND_TIME_ASSIGNMENT ( #756, #672, ( #556 ) ) ;
#576 = CC_DESIGN_SECURITY_CLASSIFICATION ( #556, ( #563 ) ) ;
#577 = AXIS2_PLACEMENT_3D ( 'NONE', #332, #342, #340 ) ;
#578 = AXIS2_PLACEMENT_3D ( 'NONE', #354, #348, #367 ) ;
#579 = CC_DESIGN_APPROVAL ( #561, ( #586 ) ) ;
#580 = CC_DESIGN_DATE_AND_TIME_ASSIGNMENT ( #733, #380, ( #586 ) ) ;
#581 = PRODUCT_RELATED_PRODUCT_CATEGORY ( 'detail', '', ( #232 ) ) ;
#582 = AXIS2_PLACEMENT_3D ( 'NONE', #366, #339, #324 ) ;
#583 = AXIS2_PLACEMENT_3D ( 'NONE', #349, #365, #337 ) ;
#584 = AXIS2_PLACEMENT_3D ( 'NONE', #373, #369, #372 ) ;
#585 = AXIS2_PLACEMENT_3D ( 'NONE', #1050, #1041, #1042 ) ;
#586 = PRODUCT_DEFINITION ( 'UNKNOWN', '', #563, #388 ) ;
#587 = AXIS2_PLACEMENT_3D ( 'NONE', #327, #329, #355 ) ;
#588 = AXIS2_PLACEMENT_3D ( 'NONE', #1049, #1038, #1037 ) ;
#589 = DIRECTION ( 'NONE',  ( -3.540251991789401900E-016, 1.000000000000000000, -0.0000000000000000000 ) ) ;
#590 = CARTESIAN_POINT ( 'NONE',  ( 4.900000000000001200, -1.700000000000000200, 38.00000000000000000 ) ) ;
#591 = CARTESIAN_POINT ( 'NONE',  ( 4.900000000000000400, 1.200153863164406700E-015, 38.00000000000000000 ) ) ;
#592 = DIRECTION ( 'NONE',  ( 0.0000000000000000000, 0.0000000000000000000, 1.000000000000000000 ) ) ;
#593 = APPROVAL_ROLE ( '' ) ;
#594 = DIRECTION ( 'NONE',  ( -1.000000000000000000, -1.156482317317870500E-016, 0.0000000000000000000 ) ) ;
#595 = DIRECTION ( 'NONE',  ( -0.0000000000000000000, 1.000000000000000000, -0.0000000000000000000 ) ) ;
#596 = DIRECTION ( 'NONE',  ( -0.7071067811865474600, -0.0000000000000000000, -0.7071067811865474600 ) ) ;
#597 = CARTESIAN_POINT ( 'NONE',  ( -9.500000000000000000, -1.700000000000000200, 36.00000000000000700 ) ) ;
#598 = CARTESIAN_POINT ( 'NONE',  ( -7.500000000000011500, -1.700000000000000200, 37.99999999999999300 ) ) ;
#599 = DIRECTION ( 'NONE',  ( -0.0000000000000000000, -0.0000000000000000000, -1.000000000000000000 ) ) ;
#600 = CARTESIAN_POINT ( 'NONE',  ( -4.900000000000003000, 23.30000000000000100, 29.30000000000000100 ) ) ;
#601 = CARTESIAN_POINT ( 'NONE',  ( 9.499999999999991100, 23.30000000000000100, 34.20000000000000300 ) ) ;
#602 = CARTESIAN_POINT ( 'NONE',  ( -9.499999999999996400, -4.900000000000002100, 26.00000000000000000 ) ) ;
#603 = DIRECTION ( 'NONE',  ( -0.0000000000000000000, 1.000000000000000000, -0.0000000000000000000 ) ) ;
#604 = DIRECTION ( 'NONE',  ( -0.7071067811865472400, 0.0000000000000000000, 0.7071067811865479100 ) ) ;
#605 = CARTESIAN_POINT ( 'NONE',  ( -9.499999999999998200, -1.700000000000000200, 34.20000000000000300 ) ) ;
#606 = APPROVAL_STATUS ( 'not_yet_approved' ) ;
#607 = DIRECTION ( 'NONE',  ( 9.637352644315579000E-016, 0.0000000000000000000, 1.000000000000000000 ) ) ;
#608 = CARTESIAN_POINT ( 'NONE',  ( 0.0000000000000000000, -0.6250000000000005600, 12.00000000000000000 ) ) ;
#609 = DIRECTION ( 'NONE',  ( -0.7071067811865472400, 0.0000000000000000000, 0.7071067811865479100 ) ) ;
#610 = CARTESIAN_POINT ( 'NONE',  ( 9.499999999999996400, -4.899999999999999500, 26.00000000000000000 ) ) ;
#611 = CARTESIAN_POINT ( 'NONE',  ( 9.499999999999992900, -1.700000000000000200, 36.00000000000000700 ) ) ;
#612 = DIRECTION ( 'NONE',  ( 9.637352644315579000E-016, -0.0000000000000000000, -1.000000000000000000 ) ) ;
#613 = CARTESIAN_POINT ( 'NONE',  ( -4.900000000000002100, -8.700000000000001100, 38.00000000000000000 ) ) ;
#614 = CARTESIAN_POINT ( 'NONE',  ( -9.499999999999998200, 23.30000000000000100, 34.20000000000000300 ) ) ;
#615 = CARTESIAN_POINT ( 'NONE',  ( -9.499999999999996400, -6.700000000000003700, 0.0000000000000000000 ) ) ;
#616 = CARTESIAN_POINT ( 'NONE',  ( -4.900000000000003900, -4.900000000000000400, 38.00000000000000000 ) ) ;
#617 = CARTESIAN_POINT ( 'NONE',  ( 9.499999999999991100, -1.700000000000000200, 34.20000000000000300 ) ) ;
#618 = DIRECTION ( 'NONE',  ( -1.770125995894700500E-016, -0.0000000000000000000, -1.000000000000000000 ) ) ;
#619 = CARTESIAN_POINT ( 'NONE',  ( 4.900000000000002100, -4.899999999999999500, 0.0000000000000000000 ) ) ;
#620 = DIRECTION ( 'NONE',  ( -0.0000000000000000000, 1.000000000000000000, -0.0000000000000000000 ) ) ;
#621 = CARTESIAN_POINT ( 'NONE',  ( 7.500000000000006200, -8.699999999999999300, 26.00000000000000000 ) ) ;
#622 = CARTESIAN_POINT ( 'NONE',  ( -9.500000000000000000, 23.30000000000000100, 36.00000000000000700 ) ) ;
#623 = DIRECTION ( 'NONE',  ( 0.0000000000000000000, 0.0000000000000000000, -1.000000000000000000 ) ) ;
#624 = DIRECTION ( 'NONE',  ( 0.7071067811865463500, -0.7071067811865487900, 0.0000000000000000000 ) ) ;
#625 = DIRECTION ( 'NONE',  ( -0.0000000000000000000, 1.000000000000000000, -0.0000000000000000000 ) ) ;
#626 = CARTESIAN_POINT ( 'NONE',  ( 9.499999999999996400, -4.899999999999999500, 38.00000000000000000 ) ) ;
#627 = CARTESIAN_POINT ( 'NONE',  ( 9.499999999999992900, 23.30000000000000100, 36.00000000000000700 ) ) ;
#628 = DIRECTION ( 'NONE',  ( -0.0000000000000000000, -0.0000000000000000000, -1.000000000000000000 ) ) ;
#629 = DIRECTION ( 'NONE',  ( -1.000000000000000000, 0.0000000000000000000, 0.0000000000000000000 ) ) ;
#630 = CARTESIAN_POINT ( 'NONE',  ( 0.0000000000000000000, 13.30000000000000200, 29.92500000000000100 ) ) ;
#631 = DIRECTION ( 'NONE',  ( 0.0000000000000000000, 1.000000000000000000, 0.0000000000000000000 ) ) ;
#632 = DIRECTION ( 'NONE',  ( -1.000000000000000000, -0.0000000000000000000, -0.0000000000000000000 ) ) ;
#633 = DIRECTION ( 'NONE',  ( 0.0000000000000000000, 1.000000000000000000, 0.0000000000000000000 ) ) ;
#634 = DIRECTION ( 'NONE',  ( -0.0000000000000000000, -0.0000000000000000000, -1.000000000000000000 ) ) ;
#635 = DIRECTION ( 'NONE',  ( -0.0000000000000000000, 1.000000000000000000, -0.0000000000000000000 ) ) ;
#636 = DIRECTION ( 'NONE',  ( 0.0000000000000000000, 0.0000000000000000000, 1.000000000000000000 ) ) ;
#637 = DIRECTION ( 'NONE',  ( -0.0000000000000000000, 1.000000000000000000, -0.0000000000000000000 ) ) ;
#638 = CARTESIAN_POINT ( 'NONE',  ( 0.0000000000000000000, 0.0000000000000000000, 12.00000000000000000 ) ) ;
#639 = PLANE ( 'NONE',  #527 ) ;
#640 = DIRECTION ( 'NONE',  ( 1.000000000000000000, 0.0000000000000000000, 0.0000000000000000000 ) ) ;
#641 = CARTESIAN_POINT ( 'NONE',  ( -9.499999999999998200, -1.700000000000000200, 34.20000000000000300 ) ) ;
#642 = DIRECTION ( 'NONE',  ( 9.637352644315579000E-016, 0.0000000000000000000, -1.000000000000000000 ) ) ;
#643 = CARTESIAN_POINT ( 'NONE',  ( 4.899999999999996800, 23.30000000000000100, 34.20000000000000300 ) ) ;
#644 = CARTESIAN_POINT ( 'NONE',  ( -4.900000000000003000, -1.700000000000000200, 29.30000000000000100 ) ) ;
#645 = CARTESIAN_POINT ( 'NONE',  ( -4.900000000000002100, 23.30000000000000100, 34.20000000000000300 ) ) ;
#646 = DIRECTION ( 'NONE',  ( 1.000000000000000000, 0.0000000000000000000, 9.637352644315579000E-016 ) ) ;
#647 = DIRECTION ( 'NONE',  ( 1.000000000000000000, -0.0000000000000000000, -0.0000000000000000000 ) ) ;
#648 = DIRECTION ( 'NONE',  ( -0.0000000000000000000, 1.000000000000000000, -0.0000000000000000000 ) ) ;
#649 = DIRECTION ( 'NONE',  ( 0.0000000000000000000, 0.0000000000000000000, 1.000000000000000000 ) ) ;
#650 = DIRECTION ( 'NONE',  ( -1.000000000000000000, 0.0000000000000000000, 0.0000000000000000000 ) ) ;
#651 = DIRECTION ( 'NONE',  ( -1.770125995894700500E-016, 0.0000000000000000000, 1.000000000000000000 ) ) ;
#652 = CARTESIAN_POINT ( 'NONE',  ( 4.900000000000000400, 1.200153863164406700E-015, 26.00000000000000000 ) ) ;
#653 = DIRECTION ( 'NONE',  ( -0.0000000000000000000, 1.000000000000000000, -0.0000000000000000000 ) ) ;
#654 = CARTESIAN_POINT ( 'NONE',  ( 4.900000000000002100, -4.899999999999999500, 26.00000000000000000 ) ) ;
#655 = CARTESIAN_POINT ( 'NONE',  ( 0.0000000000000000000, 0.0000000000000000000, 12.00000000000000000 ) ) ;
#656 = CARTESIAN_POINT ( 'NONE',  ( 0.0000000000000000000, 0.0000000000000000000, 12.00000000000000000 ) ) ;
#657 = DIRECTION ( 'NONE',  ( 9.070116125430879500E-017, -1.000000000000000000, 0.0000000000000000000 ) ) ;
#658 = CARTESIAN_POINT ( 'NONE',  ( 0.0000000000000000000, 13.30000000000000200, 29.92500000000000100 ) ) ;
#659 = DIRECTION ( 'NONE',  ( -0.0000000000000000000, -0.0000000000000000000, -1.000000000000000000 ) ) ;
#660 = DIRECTION ( 'NONE',  ( -0.0000000000000000000, 1.000000000000000000, -0.0000000000000000000 ) ) ;
#661 = DIRECTION ( 'NONE',  ( 0.0000000000000000000, 0.0000000000000000000, 1.000000000000000000 ) ) ;
#662 = CARTESIAN_POINT ( 'NONE',  ( 7.500000000000006200, -8.699999999999999300, 38.00000000000000000 ) ) ;
#663 = CARTESIAN_POINT ( 'NONE',  ( 4.899999999999997700, 23.30000000000000100, 29.30000000000000100 ) ) ;
#664 = DIRECTION ( 'NONE',  ( -0.0000000000000000000, -0.0000000000000000000, -1.000000000000000000 ) ) ;
#665 = CARTESIAN_POINT ( 'NONE',  ( -9.499999999999998200, -1.700000000000000200, 34.20000000000000300 ) ) ;
#666 = CARTESIAN_POINT ( 'NONE',  ( 4.900000000000000400, 1.200153863164406700E-015, 0.0000000000000000000 ) ) ;
#667 = DIRECTION ( 'NONE',  ( -0.0000000000000000000, -0.0000000000000000000, -1.000000000000000000 ) ) ;
#668 = DIRECTION ( 'NONE',  ( -3.540251991789401900E-016, 1.000000000000000000, -0.0000000000000000000 ) ) ;
#669 = DIRECTION ( 'NONE',  ( -0.0000000000000000000, -0.0000000000000000000, -1.000000000000000000 ) ) ;
#670 = DIRECTION ( 'NONE',  ( 9.637352644315579000E-016, -0.0000000000000000000, -1.000000000000000000 ) ) ;
#671 = CARTESIAN_POINT ( 'NONE',  ( -9.499999999999996400, -4.900000000000002100, 38.00000000000000000 ) ) ;
#672 = DATE_TIME_ROLE ( 'classification_date' ) ;
#673 = CARTESIAN_POINT ( 'NONE',  ( -4.900000000000002100, 1.925929944387235900E-031, 38.00000000000000000 ) ) ;
#674 = CARTESIAN_POINT ( 'NONE',  ( 7.500000000000006200, -8.699999999999999300, 38.00000000000000000 ) ) ;
#675 = DIRECTION ( 'NONE',  ( 1.000000000000000000, 1.156482317317870500E-016, -0.0000000000000000000 ) ) ;
#676 = ADVANCED_BREP_SHAPE_REPRESENTATION ( 'ALP2172', ( #677, #584 ), #569 ) ;
#677 = MANIFOLD_SOLID_BREP ( 'M8 Tapped Hole2', #9 ) ;
#678 = UNCERTAINTY_MEASURE_WITH_UNIT (LENGTH_MEASURE( 1.000000000000000100E-005 ), #353, 'distance_accuracy_value', 'NONE');
#679 = LINE ( 'NONE', #644, #692 ) ;
#680 = VECTOR ( 'NONE', #647, 1000.000000000000000 ) ;
#681 = FACE_OUTER_BOUND ( 'NONE', #20, .T. ) ;
#682 = CYLINDRICAL_SURFACE ( 'NONE', #531, 3.399999999999998600 ) ;
#683 = FACE_OUTER_BOUND ( 'NONE', #64, .T. ) ;
#684 = FACE_OUTER_BOUND ( 'NONE', #27, .T. ) ;
#685 = FACE_OUTER_BOUND ( 'NONE', #32, .T. ) ;
#686 = FACE_OUTER_BOUND ( 'NONE', #24, .T. ) ;
#687 = CYLINDRICAL_SURFACE ( 'NONE', #560, 3.399999999999998600 ) ;
#688 = FACE_OUTER_BOUND ( 'NONE', #37, .T. ) ;
#689 = FACE_OUTER_BOUND ( 'NONE', #21, .T. ) ;
#690 = CONICAL_SURFACE ( 'NONE', #536, 4.025000000000000400, 0.7853981633974492800 ) ;
#691 = FACE_OUTER_BOUND ( 'NONE', #30, .T. ) ;
#692 = VECTOR ( 'NONE', #637, 1000.000000000000000 ) ;
#693 = FACE_OUTER_BOUND ( 'NONE', #44, .T. ) ;
#694 = FACE_OUTER_BOUND ( 'NONE', #29, .T. ) ;
#695 = FACE_OUTER_BOUND ( 'NONE', #61, .T. ) ;
#696 = FACE_OUTER_BOUND ( 'NONE', #65, .T. ) ;
#697 = FACE_OUTER_BOUND ( 'NONE', #28, .T. ) ;
#698 = CYLINDRICAL_SURFACE ( 'NONE', #524, 3.399999999999998600 ) ;
#699 = FACE_OUTER_BOUND ( 'NONE', #7, .T. ) ;
#700 = FACE_OUTER_BOUND ( 'NONE', #10, .T. ) ;
#701 = LINE ( 'NONE', #645, #680 ) ;
#702 = FACE_OUTER_BOUND ( 'NONE', #26, .T. ) ;
#703 = FACE_OUTER_BOUND ( 'NONE', #4, .T. ) ;
#704 = VECTOR ( 'NONE', #640, 1000.000000000000000 ) ;
#705 = FACE_OUTER_BOUND ( 'NONE', #16, .T. ) ;
#706 = FACE_OUTER_BOUND ( 'NONE', #18, .T. ) ;
#707 = CYLINDRICAL_SURFACE ( 'NONE', #548, 3.399999999999998600 ) ;
#708 = LINE ( 'NONE', #643, #704 ) ;
#709 = FACE_OUTER_BOUND ( 'NONE', #31, .T. ) ;
#710 = FACE_OUTER_BOUND ( 'NONE', #17, .T. ) ;
#711 = CONICAL_SURFACE ( 'NONE', #550, 4.025000000000000400, 0.7853981633974492800 ) ;
#712 = PERSON_AND_ORGANIZATION ( #231, #732 ) ;
#713 = CALENDAR_DATE ( 2017, 17, 2 ) ;
#714 = LOCAL_TIME ( 20, 52, 41.00000000000000000, #723 ) ;
#715 = APPROVAL_PERSON_ORGANIZATION ( #721, #554, #384 ) ;
#716 = FACE_BOUND ( 'NONE', #25, .T. ) ;
#717 = APPROVAL_DATE_TIME ( #749, #561 ) ;
#718 = FACE_OUTER_BOUND ( 'NONE', #5, .T. ) ;
#719 = COORDINATED_UNIVERSAL_TIME_OFFSET ( 1, 0, .AHEAD. ) ;
#720 = PERSON_AND_ORGANIZATION ( #231, #732 ) ;
#721 = PERSON_AND_ORGANIZATION ( #231, #732 ) ;
#722 = FACE_BOUND ( 'NONE', #6, .T. ) ;
#723 = COORDINATED_UNIVERSAL_TIME_OFFSET ( 1, 0, .AHEAD. ) ;
#724 = FACE_OUTER_BOUND ( 'NONE', #15, .T. ) ;
#725 = COORDINATED_UNIVERSAL_TIME_OFFSET ( 1, 0, .AHEAD. ) ;
#726 = LOCAL_TIME ( 20, 52, 41.00000000000000000, #719 ) ;
#727 = CONICAL_SURFACE ( 'NONE', #578, 4.025000000000000400, 0.7853981633974492800 ) ;
#728 = PERSON_AND_ORGANIZATION ( #231, #732 ) ;
#729 = FACE_OUTER_BOUND ( 'NONE', #11, .T. ) ;
#730 = FACE_OUTER_BOUND ( 'NONE', #62, .T. ) ;
#731 = FACE_OUTER_BOUND ( 'NONE', #12, .T. ) ;
#732 = ORGANIZATION ( 'UNSPECIFIED', 'UNSPECIFIED', '' ) ;
#733 = DATE_AND_TIME ( #743, #714 ) ;
#734 = FACE_BOUND ( 'NONE', #63, .T. ) ;
#735 = LOCAL_TIME ( 20, 52, 41.00000000000000000, #725 ) ;
#736 = DATE_AND_TIME ( #741, #735 ) ;
#737 = SHAPE_DEFINITION_REPRESENTATION ( #387, #676 ) ;
#738 = FACE_OUTER_BOUND ( 'NONE', #8, .T. ) ;
#739 = FACE_BOUND ( 'NONE', #14, .T. ) ;
#740 = FACE_OUTER_BOUND ( 'NONE', #23, .T. ) ;
#741 = CALENDAR_DATE ( 2017, 17, 2 ) ;
#742 = FACE_OUTER_BOUND ( 'NONE', #19, .T. ) ;
#743 = CALENDAR_DATE ( 2017, 17, 2 ) ;
#744 = FACE_OUTER_BOUND ( 'NONE', #43, .T. ) ;
#745 = APPROVAL_PERSON_ORGANIZATION ( #712, #561, #377 ) ;
#746 = CONICAL_SURFACE ( 'NONE', #577, 4.025000000000000400, 0.7853981633974492800 ) ;
#747 = FACE_OUTER_BOUND ( 'NONE', #13, .T. ) ;
#748 = FACE_OUTER_BOUND ( 'NONE', #22, .T. ) ;
#749 = DATE_AND_TIME ( #713, #726 ) ;
#750 = LOCAL_TIME ( 20, 52, 41.00000000000000000, #752 ) ;
#751 = PERSON_AND_ORGANIZATION ( #231, #732 ) ;
#752 = COORDINATED_UNIVERSAL_TIME_OFFSET ( 1, 0, .AHEAD. ) ;
#753 = DATE_AND_TIME ( #755, #750 ) ;
#754 = APPROVAL_DATE_TIME ( #736, #554 ) ;
#755 = CALENDAR_DATE ( 2017, 17, 2 ) ;
#756 = DATE_AND_TIME ( #762, #764 ) ;
#757 = APPROVAL_PERSON_ORGANIZATION ( #751, #566, #593 ) ;
#758 = COORDINATED_UNIVERSAL_TIME_OFFSET ( 1, 0, .AHEAD. ) ;
#759 = PERSON_AND_ORGANIZATION ( #231, #732 ) ;
#760 = APPROVAL_DATE_TIME ( #753, #566 ) ;
#761 = PERSON_AND_ORGANIZATION ( #231, #732 ) ;
#762 = CALENDAR_DATE ( 2017, 17, 2 ) ;
#763 = PERSON_AND_ORGANIZATION ( #231, #732 ) ;
#764 = LOCAL_TIME ( 20, 52, 41.00000000000000000, #758 ) ;
#765 = ORIENTED_EDGE ( 'NONE', *, *, #508, .F. ) ;
#766 = ORIENTED_EDGE ( 'NONE', *, *, #501, .T. ) ;
#767 = ORIENTED_EDGE ( 'NONE', *, *, #504, .T. ) ;
#768 = ORIENTED_EDGE ( 'NONE', *, *, #273, .T. ) ;
#769 = VECTOR ( 'NONE', #434, 1000.000000000000000 ) ;
#770 = ORIENTED_EDGE ( 'NONE', *, *, #259, .F. ) ;
#771 = ORIENTED_EDGE ( 'NONE', *, *, #259, .T. ) ;
#772 = ORIENTED_EDGE ( 'NONE', *, *, #268, .F. ) ;
#773 = LINE ( 'NONE', #423, #777 ) ;
#774 = ORIENTED_EDGE ( 'NONE', *, *, #248, .F. ) ;
#775 = CIRCLE ( 'NONE', #529, 3.399999999999998100 ) ;
#776 = VECTOR ( 'NONE', #443, 1000.000000000000000 ) ;
#777 = VECTOR ( 'NONE', #465, 999.9999999999998900 ) ;
#778 = LINE ( 'NONE', #409, #793 ) ;
#779 = ORIENTED_EDGE ( 'NONE', *, *, #279, .F. ) ;
#780 = ORIENTED_EDGE ( 'NONE', *, *, #276, .T. ) ;
#781 = VECTOR ( 'NONE', #467, 1000.000000000000000 ) ;
#782 = VECTOR ( 'NONE', #481, 999.9999999999998900 ) ;
#783 = CIRCLE ( 'NONE', #537, 3.399999999999998600 ) ;
#784 = ORIENTED_EDGE ( 'NONE', *, *, #516, .F. ) ;
#785 = ORIENTED_EDGE ( 'NONE', *, *, #522, .T. ) ;
#786 = ORIENTED_EDGE ( 'NONE', *, *, #242, .F. ) ;
#787 = ORIENTED_EDGE ( 'NONE', *, *, #265, .F. ) ;
#788 = ORIENTED_EDGE ( 'NONE', *, *, #513, .F. ) ;
#789 = ORIENTED_EDGE ( 'NONE', *, *, #521, .T. ) ;
#790 = ORIENTED_EDGE ( 'NONE', *, *, #280, .F. ) ;
#791 = ORIENTED_EDGE ( 'NONE', *, *, #508, .T. ) ;
#792 = ORIENTED_EDGE ( 'NONE', *, *, #273, .F. ) ;
#793 = VECTOR ( 'NONE', #480, 1000.000000000000000 ) ;
#794 = ORIENTED_EDGE ( 'NONE', *, *, #510, .T. ) ;
#795 = ORIENTED_EDGE ( 'NONE', *, *, #285, .T. ) ;
#796 = LINE ( 'NONE', #403, #802 ) ;
#797 = ORIENTED_EDGE ( 'NONE', *, *, #275, .F. ) ;
#798 = ORIENTED_EDGE ( 'NONE', *, *, #292, .T. ) ;
#799 = ORIENTED_EDGE ( 'NONE', *, *, #269, .T. ) ;
#800 = LINE ( 'NONE', #436, #776 ) ;
#801 = LINE ( 'NONE', #433, #769 ) ;
#802 = VECTOR ( 'NONE', #406, 1000.000000000000000 ) ;
#803 = LINE ( 'NONE', #427, #781 ) ;
#804 = LINE ( 'NONE', #473, #782 ) ;
#805 = ORIENTED_EDGE ( 'NONE', *, *, #250, .F. ) ;
#806 = ORIENTED_EDGE ( 'NONE', *, *, #261, .F. ) ;
#807 = ORIENTED_EDGE ( 'NONE', *, *, #267, .F. ) ;
#808 = ORIENTED_EDGE ( 'NONE', *, *, #288, .T. ) ;
#809 = ORIENTED_EDGE ( 'NONE', *, *, #267, .T. ) ;
#810 = ORIENTED_EDGE ( 'NONE', *, *, #244, .F. ) ;
#811 = ORIENTED_EDGE ( 'NONE', *, *, #287, .F. ) ;
#812 = ORIENTED_EDGE ( 'NONE', *, *, #502, .F. ) ;
#813 = ORIENTED_EDGE ( 'NONE', *, *, #507, .T. ) ;
#814 = ORIENTED_EDGE ( 'NONE', *, *, #274, .T. ) ;
#815 = ORIENTED_EDGE ( 'NONE', *, *, #514, .T. ) ;
#816 = VECTOR ( 'NONE', #474, 1000.000000000000000 ) ;
#817 = VECTOR ( 'NONE', #471, 1000.000000000000000 ) ;
#818 = VECTOR ( 'NONE', #482, 999.9999999999998900 ) ;
#819 = LINE ( 'NONE', #475, #820 ) ;
#820 = VECTOR ( 'NONE', #464, 999.9999999999998900 ) ;
#821 = LINE ( 'NONE', #466, #827 ) ;
#822 = LINE ( 'NONE', #468, #823 ) ;
#823 = VECTOR ( 'NONE', #470, 1000.000000000000000 ) ;
#824 = LINE ( 'NONE', #469, #816 ) ;
#825 = LINE ( 'NONE', #460, #818 ) ;
#826 = CIRCLE ( 'NONE', #533, 3.399999999999998600 ) ;
#827 = VECTOR ( 'NONE', #463, 1000.000000000000000 ) ;
#828 = CIRCLE ( 'NONE', #540, 4.025000000000000400 ) ;
#829 = LINE ( 'NONE', #462, #817 ) ;
#830 = LINE ( 'NONE', #591, #838 ) ;
#831 = VECTOR ( 'NONE', #669, 1000.000000000000000 ) ;
#832 = VECTOR ( 'NONE', #657, 1000.000000000000000 ) ;
#833 = VECTOR ( 'NONE', #660, 1000.000000000000000 ) ;
#834 = CIRCLE ( 'NONE', #535, 3.399999999999999000 ) ;
#835 = LINE ( 'NONE', #652, #832 ) ;
#836 = LINE ( 'NONE', #673, #840 ) ;
#837 = LINE ( 'NONE', #590, #842 ) ;
#838 = VECTOR ( 'NONE', #589, 1000.000000000000000 ) ;
#839 = LINE ( 'NONE', #472, #833 ) ;
#840 = VECTOR ( 'NONE', #664, 1000.000000000000000 ) ;
#841 = LINE ( 'NONE', #665, #855 ) ;
#842 = VECTOR ( 'NONE', #592, 1000.000000000000000 ) ;
#843 = CIRCLE ( 'NONE', #541, 4.025000000000000400 ) ;
#844 = CIRCLE ( 'NONE', #544, 4.025000000000000400 ) ;
#845 = LINE ( 'NONE', #671, #831 ) ;
#846 = LINE ( 'NONE', #662, #850 ) ;
#847 = LINE ( 'NONE', #666, #852 ) ;
#848 = LINE ( 'NONE', #490, #853 ) ;
#849 = VECTOR ( 'NONE', #493, 1000.000000000000000 ) ;
#850 = VECTOR ( 'NONE', #667, 1000.000000000000000 ) ;
#851 = VECTOR ( 'NONE', #651, 1000.000000000000000 ) ;
#852 = VECTOR ( 'NONE', #668, 1000.000000000000000 ) ;
#853 = VECTOR ( 'NONE', #489, 1000.000000000000000 ) ;
#854 = VECTOR ( 'NONE', #495, 1000.000000000000000 ) ;
#855 = VECTOR ( 'NONE', #670, 1000.000000000000000 ) ;
#856 = LINE ( 'NONE', #663, #851 ) ;
#857 = LINE ( 'NONE', #674, #858 ) ;
#858 = VECTOR ( 'NONE', #675, 1000.000000000000000 ) ;
#859 = LINE ( 'NONE', #494, #854 ) ;
#860 = LINE ( 'NONE', #492, #849 ) ;
#861 = LINE ( 'NONE', #487, #872 ) ;
#862 = LINE ( 'NONE', #312, #867 ) ;
#863 = CIRCLE ( 'NONE', #549, 4.025000000000000400 ) ;
#864 = LINE ( 'NONE', #299, #869 ) ;
#865 = VECTOR ( 'NONE', #496, 1000.000000000000000 ) ;
#866 = CIRCLE ( 'NONE', #542, 3.399999999999998600 ) ;
#867 = VECTOR ( 'NONE', #304, 1000.000000000000100 ) ;
#868 = LINE ( 'NONE', #497, #876 ) ;
#869 = VECTOR ( 'NONE', #315, 1000.000000000000000 ) ;
#870 = LINE ( 'NONE', #499, #871 ) ;
#871 = VECTOR ( 'NONE', #486, 1000.000000000000000 ) ;
#872 = VECTOR ( 'NONE', #296, 1000.000000000000000 ) ;
#873 = LINE ( 'NONE', #316, #874 ) ;
#874 = VECTOR ( 'NONE', #310, 1000.000000000000000 ) ;
#875 = LINE ( 'NONE', #654, #865 ) ;
#876 = VECTOR ( 'NONE', #498, 1000.000000000000000 ) ;
#877 = LINE ( 'NONE', #294, #906 ) ;
#878 = VECTOR ( 'NONE', #1060, 1000.000000000000000 ) ;
#879 = LINE ( 'NONE', #1058, #885 ) ;
#880 = LINE ( 'NONE', #307, #904 ) ;
#881 = VECTOR ( 'NONE', #1079, 1000.000000000000000 ) ;
#882 = LINE ( 'NONE', #1065, #905 ) ;
#883 = LINE ( 'NONE', #1072, #909 ) ;
#884 = LINE ( 'NONE', #1066, #895 ) ;
#885 = VECTOR ( 'NONE', #1067, 1000.000000000000000 ) ;
#886 = LINE ( 'NONE', #1057, #887 ) ;
#887 = VECTOR ( 'NONE', #1078, 1000.000000000000000 ) ;
#888 = VECTOR ( 'NONE', #1063, 1000.000000000000000 ) ;
#889 = VECTOR ( 'NONE', #1059, 1000.000000000000000 ) ;
#890 = LINE ( 'NONE', #1068, #891 ) ;
#891 = VECTOR ( 'NONE', #1069, 1000.000000000000000 ) ;
#892 = VECTOR ( 'NONE', #1064, 1000.000000000000000 ) ;
#893 = LINE ( 'NONE', #320, #898 ) ;
#894 = LINE ( 'NONE', #313, #901 ) ;
#895 = VECTOR ( 'NONE', #1053, 1000.000000000000000 ) ;
#896 = LINE ( 'NONE', #1070, #897 ) ;
#897 = VECTOR ( 'NONE', #1074, 1000.000000000000000 ) ;
#898 = VECTOR ( 'NONE', #300, 1000.000000000000100 ) ;
#899 = LINE ( 'NONE', #1062, #888 ) ;
#900 = LINE ( 'NONE', #1055, #889 ) ;
#901 = VECTOR ( 'NONE', #317, 1000.000000000000000 ) ;
#902 = LINE ( 'NONE', #1071, #881 ) ;
#903 = LINE ( 'NONE', #1075, #892 ) ;
#904 = VECTOR ( 'NONE', #308, 1000.000000000000000 ) ;
#905 = VECTOR ( 'NONE', #1056, 1000.000000000000100 ) ;
#906 = VECTOR ( 'NONE', #305, 1000.000000000000000 ) ;
#907 = VECTOR ( 'NONE', #295, 1000.000000000000000 ) ;
#908 = CIRCLE ( 'NONE', #545, 3.399999999999998100 ) ;
#909 = VECTOR ( 'NONE', #1054, 1000.000000000000000 ) ;
#910 = LINE ( 'NONE', #491, #907 ) ;
#911 = LINE ( 'NONE', #1061, #878 ) ;
#912 = LINE ( 'NONE', #614, #932 ) ;
#913 = LINE ( 'NONE', #597, #931 ) ;
#914 = LINE ( 'NONE', #613, #915 ) ;
#915 = VECTOR ( 'NONE', #623, 1000.000000000000000 ) ;
#916 = VECTOR ( 'NONE', #624, 1000.000000000000000 ) ;
#917 = LINE ( 'NONE', #619, #920 ) ;
#918 = LINE ( 'NONE', #621, #936 ) ;
#919 = LINE ( 'NONE', #610, #926 ) ;
#920 = VECTOR ( 'NONE', #632, 1000.000000000000000 ) ;
#921 = CIRCLE ( 'NONE', #534, 3.399999999999999000 ) ;
#922 = VECTOR ( 'NONE', #604, 999.9999999999998900 ) ;
#923 = VECTOR ( 'NONE', #595, 1000.000000000000000 ) ;
#924 = LINE ( 'NONE', #602, #947 ) ;
#925 = LINE ( 'NONE', #600, #938 ) ;
#926 = VECTOR ( 'NONE', #633, 1000.000000000000000 ) ;
#927 = VECTOR ( 'NONE', #488, 1000.000000000000000 ) ;
#928 = LINE ( 'NONE', #598, #946 ) ;
#929 = LINE ( 'NONE', #622, #930 ) ;
#930 = VECTOR ( 'NONE', #596, 1000.000000000000100 ) ;
#931 = VECTOR ( 'NONE', #625, 1000.000000000000000 ) ;
#932 = VECTOR ( 'NONE', #612, 1000.000000000000000 ) ;
#933 = VECTOR ( 'NONE', #302, 1000.000000000000000 ) ;
#934 = LINE ( 'NONE', #1076, #933 ) ;
#935 = VECTOR ( 'NONE', #634, 1000.000000000000000 ) ;
#936 = VECTOR ( 'NONE', #594, 1000.000000000000000 ) ;
#937 = LINE ( 'NONE', #605, #923 ) ;
#938 = VECTOR ( 'NONE', #618, 1000.000000000000000 ) ;
#939 = LINE ( 'NONE', #616, #935 ) ;
#940 = VECTOR ( 'NONE', #609, 999.9999999999998900 ) ;
#941 = LINE ( 'NONE', #626, #952 ) ;
#942 = LINE ( 'NONE', #611, #940 ) ;
#943 = LINE ( 'NONE', #615, #916 ) ;
#944 = LINE ( 'NONE', #627, #922 ) ;
#945 = LINE ( 'NONE', #303, #927 ) ;
#946 = VECTOR ( 'NONE', #620, 1000.000000000000000 ) ;
#947 = VECTOR ( 'NONE', #631, 1000.000000000000000 ) ;
#948 = VECTOR ( 'NONE', #607, 1000.000000000000000 ) ;
#949 = CIRCLE ( 'NONE', #538, 3.399999999999998600 ) ;
#950 = VECTOR ( 'NONE', #603, 1000.000000000000000 ) ;
#951 = LINE ( 'NONE', #601, #948 ) ;
#952 = VECTOR ( 'NONE', #628, 1000.000000000000000 ) ;
#953 = LINE ( 'NONE', #617, #950 ) ;
#954 = ADVANCED_FACE ( 'NONE', ( #709 ), #639, .F. ) ;
#955 = ADVANCED_FACE ( 'NONE', ( #703 ), #690, .F. ) ;
#956 = ADVANCED_FACE ( 'NONE', ( #699 ), #1077, .F. ) ;
#957 = ADVANCED_FACE ( 'NONE', ( #710 ), #1030, .F. ) ;
#958 = ADVANCED_FACE ( 'NONE', ( #706 ), #707, .F. ) ;
#959 = ADVANCED_FACE ( 'NONE', ( #681 ), #994, .F. ) ;
#960 = ADVANCED_FACE ( 'NONE', ( #693 ), #1024, .F. ) ;
#961 = ADVANCED_FACE ( 'NONE', ( #700 ), #1007, .F. ) ;
#962 = ADVANCED_FACE ( 'NONE', ( #694 ), #698, .F. ) ;
#963 = ADVANCED_FACE ( 'NONE', ( #705 ), #1000, .F. ) ;
#964 = ADVANCED_FACE ( 'NONE', ( #691 ), #1014, .F. ) ;
#965 = ADVANCED_FACE ( 'NONE', ( #686 ), #988, .F. ) ;
#966 = ADVANCED_FACE ( 'NONE', ( #683 ), #682, .F. ) ;
#967 = ADVANCED_FACE ( 'NONE', ( #696 ), #1005, .T. ) ;
#968 = ADVANCED_FACE ( 'NONE', ( #697 ), #687, .F. ) ;
#969 = ADVANCED_FACE ( 'NONE', ( #688 ), #711, .F. ) ;
#970 = ADVANCED_FACE ( 'NONE', ( #684 ), #1036, .F. ) ;
#971 = ADVANCED_FACE ( 'NONE', ( #702 ), #1046, .T. ) ;
#972 = ADVANCED_FACE ( 'NONE', ( #685 ), #1051, .F. ) ;
#973 = ADVANCED_FACE ( 'NONE', ( #689 ), #1047, .F. ) ;
#974 = ADVANCED_FACE ( 'NONE', ( #695 ), #746, .F. ) ;
#975 = ADVANCED_FACE ( 'NONE', ( #734, #738 ), #325, .F. ) ;
#976 = ADVANCED_FACE ( 'NONE', ( #724 ), #331, .F. ) ;
#977 = ADVANCED_FACE ( 'NONE', ( #722, #748 ), #334, .F. ) ;
#978 = ADVANCED_FACE ( 'NONE', ( #739, #730 ), #364, .T. ) ;
#979 = ADVANCED_FACE ( 'NONE', ( #731 ), #333, .T. ) ;
#980 = ADVANCED_FACE ( 'NONE', ( #740 ), #352, .F. ) ;
#981 = ADVANCED_FACE ( 'NONE', ( #718 ), #727, .F. ) ;
#982 = ADVANCED_FACE ( 'NONE', ( #716, #744 ), #362, .F. ) ;
#983 = ADVANCED_FACE ( 'NONE', ( #742 ), #346, .F. ) ;
#984 = ADVANCED_FACE ( 'NONE', ( #747 ), #321, .F. ) ;
#985 = ADVANCED_FACE ( 'NONE', ( #729 ), #326, .F. ) ;
#986 = DIRECTION ( 'NONE',  ( -1.000000000000000000, 0.0000000000000000000, 0.0000000000000000000 ) ) ;
#987 = DIRECTION ( 'NONE',  ( -0.7071067811865461300, -0.7071067811865489100, 0.0000000000000000000 ) ) ;
#988 = PLANE ( 'NONE',  #525 ) ;
#989 = DIRECTION ( 'NONE',  ( 0.0000000000000000000, -0.0000000000000000000, -1.000000000000000000 ) ) ;
#990 = DIRECTION ( 'NONE',  ( -0.7071067811865489100, 0.7071067811865461300, 0.0000000000000000000 ) ) ;
#991 = DIRECTION ( 'NONE',  ( 0.0000000000000000000, 0.0000000000000000000, 1.000000000000000000 ) ) ;
#992 = CARTESIAN_POINT ( 'NONE',  ( 0.0000000000000000000, 23.30000000000000100, 0.0000000000000000000 ) ) ;
#993 = CARTESIAN_POINT ( 'NONE',  ( 0.0000000000000000000, 0.0000000000000000000, 12.00000000000000000 ) ) ;
#994 = PLANE ( 'NONE',  #543 ) ;
#995 = CARTESIAN_POINT ( 'NONE',  ( 0.0000000000000000000, 13.30000000000000200, 29.30000000000000100 ) ) ;
#996 = DIRECTION ( 'NONE',  ( 0.0000000000000000000, 0.0000000000000000000, 1.000000000000000000 ) ) ;
#997 = DIRECTION ( 'NONE',  ( 0.0000000000000000000, 0.0000000000000000000, 1.000000000000000000 ) ) ;
#998 = DIRECTION ( 'NONE',  ( 1.000000000000000000, 3.771137991253935000E-016, 0.0000000000000000000 ) ) ;
#999 = DIRECTION ( 'NONE',  ( 0.0000000000000000000, -0.0000000000000000000, -1.000000000000000000 ) ) ;
#1000 = PLANE ( 'NONE',  #526 ) ;
#1001 = CARTESIAN_POINT ( 'NONE',  ( 0.0000000000000000000, 0.0000000000000000000, 26.00000000000000000 ) ) ;
#1002 = DIRECTION ( 'NONE',  ( 0.0000000000000000000, 0.0000000000000000000, 1.000000000000000000 ) ) ;
#1003 = DIRECTION ( 'NONE',  ( 0.0000000000000000000, -1.000000000000000000, 0.0000000000000000000 ) ) ;
#1004 = DIRECTION ( 'NONE',  ( -1.000000000000000000, -3.540251991789401900E-016, 0.0000000000000000000 ) ) ;
#1005 = PLANE ( 'NONE',  #551 ) ;
#1006 = CARTESIAN_POINT ( 'NONE',  ( 9.499999999999996400, -6.700000000000001100, 38.00000000000000000 ) ) ;
#1007 = PLANE ( 'NONE',  #547 ) ;
#1008 = DIRECTION ( 'NONE',  ( 0.0000000000000000000, -0.0000000000000000000, -1.000000000000000000 ) ) ;
#1009 = CARTESIAN_POINT ( 'NONE',  ( -4.900000000000002100, -1.700000000000000200, 34.20000000000000300 ) ) ;
#1010 = DIRECTION ( 'NONE',  ( 3.540251991789401900E-016, 1.000000000000000000, 0.0000000000000000000 ) ) ;
#1011 = CARTESIAN_POINT ( 'NONE',  ( -4.900000000000003900, -4.900000000000000400, 38.00000000000000000 ) ) ;
#1012 = CARTESIAN_POINT ( 'NONE',  ( 0.0000000000000000000, 13.30000000000000200, 29.30000000000000100 ) ) ;
#1013 = DIRECTION ( 'NONE',  ( -1.000000000000000000, 0.0000000000000000000, 0.0000000000000000000 ) ) ;
#1014 = PLANE ( 'NONE',  #530 ) ;
#1015 = DIRECTION ( 'NONE',  ( 0.0000000000000000000, 0.0000000000000000000, 1.000000000000000000 ) ) ;
#1016 = DIRECTION ( 'NONE',  ( 3.771137991253935000E-016, -1.000000000000000000, 0.0000000000000000000 ) ) ;
#1017 = DIRECTION ( 'NONE',  ( -0.0000000000000000000, 1.000000000000000000, -0.0000000000000000000 ) ) ;
#1018 = DIRECTION ( 'NONE',  ( -0.0000000000000000000, -0.0000000000000000000, -1.000000000000000000 ) ) ;
#1019 = DIRECTION ( 'NONE',  ( 1.000000000000000000, 0.0000000000000000000, -0.0000000000000000000 ) ) ;
#1020 = DIRECTION ( 'NONE',  ( 0.0000000000000000000, -1.000000000000000000, 0.0000000000000000000 ) ) ;
#1021 = DIRECTION ( 'NONE',  ( -0.0000000000000000000, 1.000000000000000000, -0.0000000000000000000 ) ) ;
#1022 = DIRECTION ( 'NONE',  ( 1.000000000000000000, -3.540251991789401900E-016, 0.0000000000000000000 ) ) ;
#1023 = DIRECTION ( 'NONE',  ( 0.0000000000000000000, 0.0000000000000000000, -1.000000000000000000 ) ) ;
#1024 = PLANE ( 'NONE',  #546 ) ;
#1025 = CARTESIAN_POINT ( 'NONE',  ( 0.0000000000000000000, 0.0000000000000000000, 12.00000000000000000 ) ) ;
#1026 = CARTESIAN_POINT ( 'NONE',  ( 4.900000000000000400, 1.200153863164406700E-015, 38.00000000000000000 ) ) ;
#1027 = CARTESIAN_POINT ( 'NONE',  ( 0.0000000000000000000, -1.700000000000000200, 0.0000000000000000000 ) ) ;
#1028 = CARTESIAN_POINT ( 'NONE',  ( 0.0000000000000000000, 0.0000000000000000000, 12.00000000000000000 ) ) ;
#1029 = DIRECTION ( 'NONE',  ( 0.0000000000000000000, -1.000000000000000000, 0.0000000000000000000 ) ) ;
#1030 = PLANE ( 'NONE',  #539 ) ;
#1031 = DIRECTION ( 'NONE',  ( -0.0000000000000000000, -0.0000000000000000000, -1.000000000000000000 ) ) ;
#1032 = DIRECTION ( 'NONE',  ( -0.0000000000000000000, 1.000000000000000000, -0.0000000000000000000 ) ) ;
#1033 = CARTESIAN_POINT ( 'NONE',  ( 4.900000000000002100, -4.899999999999999500, 38.00000000000000000 ) ) ;
#1034 = DIRECTION ( 'NONE',  ( 3.540251991789401900E-016, -1.000000000000000000, 0.0000000000000000000 ) ) ;
#1035 = DIRECTION ( 'NONE',  ( -1.000000000000000000, 0.0000000000000000000, -0.0000000000000000000 ) ) ;
#1036 = PLANE ( 'NONE',  #585 ) ;
#1037 = DIRECTION ( 'NONE',  ( 1.000000000000000000, 0.0000000000000000000, 0.0000000000000000000 ) ) ;
#1038 = DIRECTION ( 'NONE',  ( -0.0000000000000000000, 0.0000000000000000000, 1.000000000000000000 ) ) ;
#1039 = CARTESIAN_POINT ( 'NONE',  ( 9.499999999999996400, -4.899999999999999500, 38.00000000000000000 ) ) ;
#1040 = DIRECTION ( 'NONE',  ( 0.7071067811865475700, 0.0000000000000000000, -0.7071067811865475700 ) ) ;
#1041 = DIRECTION ( 'NONE',  ( -1.000000000000000000, 0.0000000000000000000, 9.637352644315579000E-016 ) ) ;
#1042 = DIRECTION ( 'NONE',  ( 9.637352644315579000E-016, 0.0000000000000000000, 1.000000000000000000 ) ) ;
#1043 = DIRECTION ( 'NONE',  ( -0.7071067811865474600, 0.0000000000000000000, -0.7071067811865474600 ) ) ;
#1044 = SECURITY_CLASSIFICATION_LEVEL ( 'unclassified' ) ;
#1045 = PERSON_AND_ORGANIZATION_ROLE ( 'classification_officer' ) ;
#1046 = PLANE ( 'NONE',  #588 ) ;
#1047 = PLANE ( 'NONE',  #552 ) ;
#1048 = DIRECTION ( 'NONE',  ( -1.000000000000000000, 0.0000000000000000000, 0.0000000000000000000 ) ) ;
#1049 = CARTESIAN_POINT ( 'NONE',  ( 0.0000000000000000000, 0.0000000000000000000, 26.00000000000000000 ) ) ;
#1050 = CARTESIAN_POINT ( 'NONE',  ( 9.499999999999991100, -1.700000000000000200, 34.20000000000000300 ) ) ;
#1051 = PLANE ( 'NONE',  #570 ) ;
#1052 = CARTESIAN_POINT ( 'NONE',  ( -9.500000000000000000, -1.700000000000000200, 36.00000000000000700 ) ) ;
#1053 = DIRECTION ( 'NONE',  ( -1.000000000000000000, -0.0000000000000000000, -0.0000000000000000000 ) ) ;
#1054 = DIRECTION ( 'NONE',  ( -0.7071067811865463500, 0.7071067811865487900, 0.0000000000000000000 ) ) ;
#1055 = CARTESIAN_POINT ( 'NONE',  ( 4.899999999999996800, -1.700000000000000200, 34.20000000000000300 ) ) ;
#1056 = DIRECTION ( 'NONE',  ( 0.7071067811865461300, 0.7071067811865489100, -0.0000000000000000000 ) ) ;
#1057 = CARTESIAN_POINT ( 'NONE',  ( -4.900000000000002100, 1.925929944387235900E-031, 0.0000000000000000000 ) ) ;
#1058 = CARTESIAN_POINT ( 'NONE',  ( 4.899999999999997700, 23.30000000000000100, 29.30000000000000100 ) ) ;
#1059 = DIRECTION ( 'NONE',  ( 1.000000000000000000, 0.0000000000000000000, 0.0000000000000000000 ) ) ;
#1060 = DIRECTION ( 'NONE',  ( -9.070116125430883200E-017, 1.000000000000000000, -0.0000000000000000000 ) ) ;
#1061 = CARTESIAN_POINT ( 'NONE',  ( -4.900000000000002100, 1.925929944387235900E-031, 26.00000000000000000 ) ) ;
#1062 = CARTESIAN_POINT ( 'NONE',  ( -4.900000000000003900, -4.900000000000000400, 26.00000000000000000 ) ) ;
#1063 = DIRECTION ( 'NONE',  ( 1.000000000000000000, 3.771137991253935000E-016, 0.0000000000000000000 ) ) ;
#1064 = DIRECTION ( 'NONE',  ( 1.000000000000000000, 1.156482317317870500E-016, 0.0000000000000000000 ) ) ;
#1065 = CARTESIAN_POINT ( 'NONE',  ( 9.499999999999996400, -6.700000000000001100, 0.0000000000000000000 ) ) ;
#1066 = CARTESIAN_POINT ( 'NONE',  ( -7.500000000000011500, 23.30000000000000100, 37.99999999999999300 ) ) ;
#1067 = DIRECTION ( 'NONE',  ( 1.000000000000000000, -0.0000000000000000000, -0.0000000000000000000 ) ) ;
#1068 = CARTESIAN_POINT ( 'NONE',  ( -7.500000000000006200, -8.700000000000001100, 38.00000000000000000 ) ) ;
#1069 = DIRECTION ( 'NONE',  ( -0.0000000000000000000, -0.0000000000000000000, -1.000000000000000000 ) ) ;
#1070 = CARTESIAN_POINT ( 'NONE',  ( 9.499999999999991100, -1.700000000000000200, 34.20000000000000300 ) ) ;
#1071 = CARTESIAN_POINT ( 'NONE',  ( -7.500000000000011500, -1.700000000000000200, 37.99999999999999300 ) ) ;
#1072 = CARTESIAN_POINT ( 'NONE',  ( -9.499999999999996400, -6.700000000000003700, 26.00000000000000000 ) ) ;
#1073 = CARTESIAN_POINT ( 'NONE',  ( -4.900000000000002100, 1.925929944387235900E-031, 38.00000000000000000 ) ) ;
#1074 = DIRECTION ( 'NONE',  ( 9.637352644315579000E-016, 0.0000000000000000000, 1.000000000000000000 ) ) ;
#1075 = CARTESIAN_POINT ( 'NONE',  ( 7.500000000000006200, -8.699999999999999300, 26.00000000000000000 ) ) ;
#1076 = CARTESIAN_POINT ( 'NONE',  ( -4.900000000000002100, 1.925929944387235900E-031, 38.00000000000000000 ) ) ;
#1077 = PLANE ( 'NONE',  #528 ) ;
#1078 = DIRECTION ( 'NONE',  ( -3.540251991789401900E-016, -1.000000000000000000, 0.0000000000000000000 ) ) ;
#1079 = DIRECTION ( 'NONE',  ( -1.000000000000000000, -0.0000000000000000000, -0.0000000000000000000 ) ) ;
ENDSEC;
END-ISO-10303-21;
