ISO-10303-21;
HEADER;
FILE_DESCRIPTION (( 'STEP AP203' ),
    '1' );
FILE_NAME ('ALP2440.STEP',
    '2018-06-21T07:39:09',
    ( '' ),
    ( '' ),
    'SwSTEP 2.0',
    'SolidWorks 2016',
    '' );
FILE_SCHEMA (( 'CONFIG_CONTROL_DESIGN' ));
ENDSEC;

DATA;
#1 = DIRECTION ( 'NONE',  ( -0.0000000000000000000, -1.000000000000000000, 0.0000000000000000000 ) ) ;
#2 = PERSON_AND_ORGANIZATION ( #484, #69 ) ;
#3 = DIRECTION ( 'NONE',  ( -0.0000000000000000000, -1.000000000000000000, -0.0000000000000000000 ) ) ;
#4 = FACE_OUTER_BOUND ( 'NONE', #337, .T. ) ;
#5 = ORIENTED_EDGE ( 'NONE', *, *, #554, .T. ) ;
#6 = EDGE_CURVE ( 'NONE', #348, #538, #590, .T. ) ;
#7 = ORIENTED_EDGE ( 'NONE', *, *, #576, .F. ) ;
#8 = CARTESIAN_POINT ( 'NONE',  ( 21.17707902413597800, 16.99999999999999600, -29.66236039837426100 ) ) ;
#9 = DIRECTION ( 'NONE',  ( -0.0000000000000000000, -0.0000000000000000000, -1.000000000000000000 ) ) ;
#10 = AXIS2_PLACEMENT_3D ( 'NONE', #271, #510, #149 ) ;
#11 = DIRECTION ( 'NONE',  ( -0.7071067811865436900, -0.0000000000000000000, -0.7071067811865514600 ) ) ;
#12 = DIRECTION ( 'NONE',  ( 0.7071067811865512400, 0.0000000000000000000, -0.7071067811865439100 ) ) ;
#13 = APPROVAL_DATE_TIME ( #168, #424 ) ;
#14 = DIRECTION ( 'NONE',  ( 0.0000000000000000000, 1.000000000000000000, 0.0000000000000000000 ) ) ;
#15 = VECTOR ( 'NONE', #516, 1000.000000000000000 ) ;
#16 = VECTOR ( 'NONE', #173, 1000.000000000000000 ) ;
#17 = ORIENTED_EDGE ( 'NONE', *, *, #276, .T. ) ;
#18 = CC_DESIGN_PERSON_AND_ORGANIZATION_ASSIGNMENT ( #477, #116, ( #115 ) ) ;
#19 = CARTESIAN_POINT ( 'NONE',  ( 12.36037993138709000, 0.0000000000000000000, -21.06096250061892400 ) ) ;
#20 = ADVANCED_BREP_SHAPE_REPRESENTATION ( 'ALP2440', ( #122, #57 ), #71 ) ;
#21 = CARTESIAN_POINT ( 'NONE',  ( 12.72792206135793500, 34.00000000000000000, -21.21320343559634100 ) ) ;
#22 = DIRECTION ( 'NONE',  ( -1.000000000000000000, -0.0000000000000000000, -0.0000000000000000000 ) ) ;
#23 = DIRECTION ( 'NONE',  ( 0.0000000000000000000, 0.0000000000000000000, -1.000000000000000000 ) ) ;
#24 = COORDINATED_UNIVERSAL_TIME_OFFSET ( 1, 0, .AHEAD. ) ;
#25 = CIRCLE ( 'NONE', #254, 5.999999999999998200 ) ;
#26 = VERTEX_POINT ( 'NONE', #589 ) ;
#27 = EDGE_CURVE ( 'NONE', #442, #348, #165, .T. ) ;
#28 = ORIENTED_EDGE ( 'NONE', *, *, #587, .T. ) ;
#29 = DIRECTION ( 'NONE',  ( -0.0000000000000000000, -1.000000000000000000, -0.0000000000000000000 ) ) ;
#30 = DIRECTION ( 'NONE',  ( 1.000000000000000000, -0.0000000000000000000, -0.0000000000000000000 ) ) ;
#31 = DIRECTION ( 'NONE',  ( 0.0000000000000000000, 1.000000000000000000, 0.0000000000000000000 ) ) ;
#32 = DIRECTION ( 'NONE',  ( 0.7071067811865512400, 0.0000000000000000000, -0.7071067811865439100 ) ) ;
#33 = VERTEX_POINT ( 'NONE', #449 ) ;
#34 = CALENDAR_DATE ( 2018, 21, 6 ) ;
#35 = APPROVAL_STATUS ( 'not_yet_approved' ) ;
#36 = ORIENTED_EDGE ( 'NONE', *, *, #395, .F. ) ;
#37 = ORIENTED_EDGE ( 'NONE', *, *, #587, .F. ) ;
#38 = DIRECTION ( 'NONE',  ( 0.0000000000000000000, 0.0000000000000000000, -1.000000000000000000 ) ) ;
#39 = AXIS2_PLACEMENT_3D ( 'NONE', #360, #551, #593 ) ;
#40 = CARTESIAN_POINT ( 'NONE',  ( 11.59501306665691400, 34.00000000000000000, -22.90872156564150000 ) ) ;
#41 = LINE ( 'NONE', #104, #584 ) ;
#42 = ADVANCED_FACE ( 'NONE', ( #110 ), #581, .F. ) ;
#43 = ORIENTED_EDGE ( 'NONE', *, *, #241, .F. ) ;
#44 = CARTESIAN_POINT ( 'NONE',  ( 0.0000000000000000000, 34.00000000000000000, 0.0000000000000000000 ) ) ;
#45 = CC_DESIGN_PERSON_AND_ORGANIZATION_ASSIGNMENT ( #2, #447, ( #115 ) ) ;
#46 = DIRECTION ( 'NONE',  ( -0.0000000000000000000, -0.0000000000000000000, -1.000000000000000000 ) ) ;
#47 = CARTESIAN_POINT ( 'NONE',  ( -54.00000000000000000, 34.00000000000000000, -5.999999999999999100 ) ) ;
#48 = VERTEX_POINT ( 'NONE', #80 ) ;
#49 = ORIENTED_EDGE ( 'NONE', *, *, #199, .T. ) ;
#50 = DIRECTION ( 'NONE',  ( -0.7071067811865436900, -0.0000000000000000000, -0.7071067811865514600 ) ) ;
#51 = CARTESIAN_POINT ( 'NONE',  ( 0.0000000000000000000, 34.00000000000000000, 0.0000000000000000000 ) ) ;
#52 = DIRECTION ( 'NONE',  ( 0.0000000000000000000, 0.0000000000000000000, -1.000000000000000000 ) ) ;
#53 = CARTESIAN_POINT ( 'NONE',  ( 23.47517606299226500, 16.99999999999999600, -31.96045743723052700 ) ) ;
#54 = APPROVAL_PERSON_ORGANIZATION ( #421, #424, #311 ) ;
#55 = FACE_OUTER_BOUND ( 'NONE', #258, .T. ) ;
#56 = LINE ( 'NONE', #504, #407 ) ;
#57 = AXIS2_PLACEMENT_3D ( 'NONE', #157, #298, #577 ) ;
#58 = CARTESIAN_POINT ( 'NONE',  ( -54.00000000000000000, 0.0000000000000000000, 8.673617379884035500E-016 ) ) ;
#59 = ORIENTED_EDGE ( 'NONE', *, *, #229, .F. ) ;
#60 = DIRECTION ( 'NONE',  ( -0.9238795325112877400, -0.0000000000000000000, 0.3826834323650875100 ) ) ;
#61 = DIRECTION ( 'NONE',  ( -0.7071067811865435800, -0.0000000000000000000, -0.7071067811865513500 ) ) ;
#62 = DIRECTION ( 'NONE',  ( -0.0000000000000000000, -1.000000000000000000, -0.0000000000000000000 ) ) ;
#63 = DIRECTION ( 'NONE',  ( -0.0000000000000000000, -0.0000000000000000000, -1.000000000000000000 ) ) ;
#64 = CARTESIAN_POINT ( 'NONE',  ( 0.0000000000000000000, 34.00000000000000000, 0.0000000000000000000 ) ) ;
#65 = VERTEX_POINT ( 'NONE', #177 ) ;
#66 = ORIENTED_EDGE ( 'NONE', *, *, #27, .T. ) ;
#67 = CARTESIAN_POINT ( 'NONE',  ( 33.94112549695450600, 34.00000000000000000, -42.42640687119267500 ) ) ;
#68 = AXIS2_PLACEMENT_3D ( 'NONE', #88, #3, #319 ) ;
#69 = ORGANIZATION ( 'UNSPECIFIED', 'UNSPECIFIED', '' ) ;
#70 = FACE_OUTER_BOUND ( 'NONE', #388, .T. ) ;
#71 =( GEOMETRIC_REPRESENTATION_CONTEXT ( 3 ) GLOBAL_UNCERTAINTY_ASSIGNED_CONTEXT ( ( #372 ) ) GLOBAL_UNIT_ASSIGNED_CONTEXT ( ( #113, #73, #160 ) ) REPRESENTATION_CONTEXT ( 'NONE', 'WORKASPACE' ) );
#72 = VERTEX_POINT ( 'NONE', #217 ) ;
#73 =( NAMED_UNIT ( * ) PLANE_ANGLE_UNIT ( ) SI_UNIT ( $, .RADIAN. ) );
#74 = EDGE_CURVE ( 'NONE', #96, #48, #451, .T. ) ;
#75 = APPROVAL_PERSON_ORGANIZATION ( #117, #461, #222 ) ;
#76 = FACE_OUTER_BOUND ( 'NONE', #252, .T. ) ;
#77 = ORIENTED_EDGE ( 'NONE', *, *, #123, .F. ) ;
#78 = APPROVAL_STATUS ( 'not_yet_approved' ) ;
#79 = VERTEX_POINT ( 'NONE', #494 ) ;
#80 = CARTESIAN_POINT ( 'NONE',  ( -23.63245787002911100, 0.0000000000000000000, -6.152240934977424300 ) ) ;
#81 = EDGE_CURVE ( 'NONE', #65, #320, #563, .T. ) ;
#82 = CARTESIAN_POINT ( 'NONE',  ( 42.42640687119306600, 34.00000000000000000, -42.42640687119262600 ) ) ;
#83 = LOCAL_TIME ( 9, 39, 9.000000000000000000, #125 ) ;
#84 = VECTOR ( 'NONE', #12, 999.9999999999998900 ) ;
#85 = ORIENTED_EDGE ( 'NONE', *, *, #309, .T. ) ;
#86 = ORIENTED_EDGE ( 'NONE', *, *, #395, .T. ) ;
#87 = CC_DESIGN_APPROVAL ( #375, ( #570 ) ) ;
#88 = CARTESIAN_POINT ( 'NONE',  ( -24.39782473475928600, 34.00000000000000000, -8.000000000000000000 ) ) ;
#89 = ORIENTED_EDGE ( 'NONE', *, *, #290, .F. ) ;
#90 = VERTEX_POINT ( 'NONE', #82 ) ;
#91 = DIRECTION ( 'NONE',  ( -0.0000000000000000000, -0.0000000000000000000, -1.000000000000000000 ) ) ;
#92 = ADVANCED_FACE ( 'NONE', ( #230 ), #555, .F. ) ;
#93 = DIRECTION ( 'NONE',  ( 0.0000000000000000000, 0.0000000000000000000, -1.000000000000000000 ) ) ;
#94 = AXIS2_PLACEMENT_3D ( 'NONE', #51, #247, #559 ) ;
#95 = CIRCLE ( 'NONE', #10, 3.249999999999996000 ) ;
#96 = VERTEX_POINT ( 'NONE', #459 ) ;
#97 = CARTESIAN_POINT ( 'NONE',  ( -24.39782473475928600, 34.00000000000000000, -8.000000000000000000 ) ) ;
#98 = DIRECTION ( 'NONE',  ( -0.7071067811865513500, 0.0000000000000000000, 0.7071067811865438000 ) ) ;
#99 = COORDINATED_UNIVERSAL_TIME_OFFSET ( 1, 0, .AHEAD. ) ;
#100 = EDGE_CURVE ( 'NONE', #567, #586, #483, .T. ) ;
#101 = CIRCLE ( 'NONE', #68, 2.000000000000000000 ) ;
#102 = DIRECTION ( 'NONE',  ( 1.000000000000000000, -0.0000000000000000000, -0.0000000000000000000 ) ) ;
#103 = ORIENTED_EDGE ( 'NONE', *, *, #488, .F. ) ;
#104 = CARTESIAN_POINT ( 'NONE',  ( 25.77327310184855200, 16.99999999999999600, -34.25855447608679300 ) ) ;
#105 = CARTESIAN_POINT ( 'NONE',  ( 13.00922662902999800, 34.00000000000000000, -21.49450800326839700 ) ) ;
#106 = CARTESIAN_POINT ( 'NONE',  ( 42.42640687119306600, 34.00000000000000000, -42.42640687119262600 ) ) ;
#107 = CARTESIAN_POINT ( 'NONE',  ( 38.18376618407376100, 0.0000000000000000000, -38.18376618407336300 ) ) ;
#108 = AXIS2_PLACEMENT_3D ( 'NONE', #289, #14, #112 ) ;
#109 = VECTOR ( 'NONE', #22, 1000.000000000000000 ) ;
#110 = FACE_OUTER_BOUND ( 'NONE', #426, .T. ) ;
#111 = ORIENTED_EDGE ( 'NONE', *, *, #74, .F. ) ;
#112 = DIRECTION ( 'NONE',  ( 3.469446951953615400E-015, 0.0000000000000000000, -1.000000000000000000 ) ) ;
#113 =( LENGTH_UNIT ( ) NAMED_UNIT ( * ) SI_UNIT ( .MILLI., .METRE. ) );
#114 = DIRECTION ( 'NONE',  ( 0.0000000000000000000, 0.0000000000000000000, -1.000000000000000000 ) ) ;
#115 = PRODUCT_DEFINITION_FORMATION_WITH_SPECIFIED_SOURCE ( 'ANY', '', #436, .NOT_KNOWN. ) ;
#116 = PERSON_AND_ORGANIZATION_ROLE ( 'design_supplier' ) ;
#117 = PERSON_AND_ORGANIZATION ( #484, #69 ) ;
#118 = LINE ( 'NONE', #67, #178 ) ;
#119 = LINE ( 'NONE', #47, #327 ) ;
#120 = ORIENTED_EDGE ( 'NONE', *, *, #410, .F. ) ;
#121 = ORIENTED_EDGE ( 'NONE', *, *, #401, .T. ) ;
#122 = MANIFOLD_SOLID_BREP ( 'Mirror1', #195 ) ;
#123 = EDGE_CURVE ( 'NONE', #26, #442, #194, .T. ) ;
#124 = APPROVAL_ROLE ( '' ) ;
#125 = COORDINATED_UNIVERSAL_TIME_OFFSET ( 1, 0, .AHEAD. ) ;
#126 = CARTESIAN_POINT ( 'NONE',  ( -24.39782473475928600, 0.0000000000000000000, -8.000000000000000000 ) ) ;
#127 = ORIENTED_EDGE ( 'NONE', *, *, #582, .F. ) ;
#128 = ORIENTED_EDGE ( 'NONE', *, *, #196, .T. ) ;
#129 = AXIS2_PLACEMENT_3D ( 'NONE', #186, #1, #93 ) ;
#130 = DIRECTION ( 'NONE',  ( 0.3826834323650875600, -0.0000000000000000000, 0.9238795325112876300 ) ) ;
#131 = CARTESIAN_POINT ( 'NONE',  ( 11.59501306665691400, 34.00000000000000000, -22.90872156564150000 ) ) ;
#132 = DATE_TIME_ROLE ( 'classification_date' ) ;
#133 = AXIS2_PLACEMENT_3D ( 'NONE', #146, #198, #335 ) ;
#134 = LINE ( 'NONE', #192, #218 ) ;
#135 = EDGE_LOOP ( 'NONE', ( #480, #49, #278, #386 ) ) ;
#136 = DIRECTION ( 'NONE',  ( -0.7071067811865439100, 0.0000000000000000000, -0.7071067811865512400 ) ) ;
#137 = EDGE_CURVE ( 'NONE', #446, #79, #185, .T. ) ;
#138 = CC_DESIGN_PERSON_AND_ORGANIZATION_ASSIGNMENT ( #359, #585, ( #342 ) ) ;
#139 = DIRECTION ( 'NONE',  ( -0.0000000000000000000, -0.0000000000000000000, -1.000000000000000000 ) ) ;
#140 = CARTESIAN_POINT ( 'NONE',  ( -23.99999999999997200, 34.00000000000000000, -5.999999999999999100 ) ) ;
#141 = ADVANCED_FACE ( 'NONE', ( #76 ), #313, .T. ) ;
#142 = CIRCLE ( 'NONE', #466, 2.000000000000001800 ) ;
#143 = ORIENTED_EDGE ( 'NONE', *, *, #554, .F. ) ;
#144 = ORIENTED_EDGE ( 'NONE', *, *, #349, .T. ) ;
#145 = AXIS2_PLACEMENT_3D ( 'NONE', #64, #341, #114 ) ;
#146 = CARTESIAN_POINT ( 'NONE',  ( -39.19891236737964100, 16.99999999999999600, -5.999999999999999100 ) ) ;
#147 = EDGE_CURVE ( 'NONE', #573, #338, #470, .T. ) ;
#148 = CARTESIAN_POINT ( 'NONE',  ( 38.18376618407376100, 0.0000000000000000000, -38.18376618407336300 ) ) ;
#149 = DIRECTION ( 'NONE',  ( -1.000000000000000000, 0.0000000000000000000, 0.0000000000000000000 ) ) ;
#150 = FACE_OUTER_BOUND ( 'NONE', #546, .T. ) ;
#151 = ORIENTED_EDGE ( 'NONE', *, *, #382, .T. ) ;
#152 = DIRECTION ( 'NONE',  ( 1.000000000000000000, 0.0000000000000000000, -0.0000000000000000000 ) ) ;
#153 = CARTESIAN_POINT ( 'NONE',  ( 12.36037993138709000, 34.00000000000000000, -21.06096250061892400 ) ) ;
#154 = CARTESIAN_POINT ( 'NONE',  ( -54.00000000000000000, 34.00000000000000000, -5.999999999999999100 ) ) ;
#155 = EDGE_CURVE ( 'NONE', #491, #531, #245, .T. ) ;
#156 = SHAPE_DEFINITION_REPRESENTATION ( #481, #20 ) ;
#157 = CARTESIAN_POINT ( 'NONE',  ( 0.0000000000000000000, 0.0000000000000000000, 0.0000000000000000000 ) ) ;
#158 = ORIENTED_EDGE ( 'NONE', *, *, #349, .F. ) ;
#159 = ORIENTED_EDGE ( 'NONE', *, *, #123, .T. ) ;
#160 =( NAMED_UNIT ( * ) SI_UNIT ( $, .STERADIAN. ) SOLID_ANGLE_UNIT ( ) );
#161 = CARTESIAN_POINT ( 'NONE',  ( -24.39782473475928600, 0.0000000000000000000, -5.999999999999999100 ) ) ;
#162 = AXIS2_PLACEMENT_3D ( 'NONE', #236, #332, #280 ) ;
#163 = PLANE ( 'NONE',  #420 ) ;
#164 = AXIS2_PLACEMENT_3D ( 'NONE', #324, #283, #197 ) ;
#165 = CIRCLE ( 'NONE', #174, 2.000000000000001800 ) ;
#166 = ORIENTED_EDGE ( 'NONE', *, *, #100, .T. ) ;
#167 = EDGE_CURVE ( 'NONE', #306, #380, #101, .T. ) ;
#168 = DATE_AND_TIME ( #292, #411 ) ;
#169 = LINE ( 'NONE', #294, #528 ) ;
#170 = PERSON_AND_ORGANIZATION_ROLE ( 'creator' ) ;
#171 = VERTEX_POINT ( 'NONE', #323 ) ;
#172 = ORIENTED_EDGE ( 'NONE', *, *, #523, .T. ) ;
#173 = DIRECTION ( 'NONE',  ( 0.0000000000000000000, -1.000000000000000000, 0.0000000000000000000 ) ) ;
#174 = AXIS2_PLACEMENT_3D ( 'NONE', #131, #358, #492 ) ;
#175 = DIRECTION ( 'NONE',  ( 0.0000000000000000000, -1.000000000000000000, 0.0000000000000000000 ) ) ;
#176 = DATE_AND_TIME ( #34, #83 ) ;
#177 = CARTESIAN_POINT ( 'NONE',  ( 38.18376618407376100, 34.00000000000000000, -44.18376618407336300 ) ) ;
#178 = VECTOR ( 'NONE', #204, 1000.000000000000000 ) ;
#179 = EDGE_CURVE ( 'NONE', #348, #306, #545, .T. ) ;
#180 = ORIENTED_EDGE ( 'NONE', *, *, #452, .T. ) ;
#181 = ORIENTED_EDGE ( 'NONE', *, *, #540, .T. ) ;
#182 = CARTESIAN_POINT ( 'NONE',  ( -42.44891236737964100, 16.99999999999999600, -5.999999999999999100 ) ) ;
#183 = DIRECTION ( 'NONE',  ( -0.7071067811865439100, 0.0000000000000000000, -0.7071067811865512400 ) ) ;
#184 = CIRCLE ( 'NONE', #345, 6.000000000000000000 ) ;
#185 = CIRCLE ( 'NONE', #493, 3.249999999999995600 ) ;
#186 = CARTESIAN_POINT ( 'NONE',  ( -54.00000000000000000, 34.00000000000000000, 8.673617379884035500E-016 ) ) ;
#187 = EDGE_LOOP ( 'NONE', ( #530, #399, #238, #296 ) ) ;
#188 = EDGE_CURVE ( 'NONE', #491, #72, #336, .T. ) ;
#189 = ORIENTED_EDGE ( 'NONE', *, *, #267, .T. ) ;
#190 = ADVANCED_FACE ( 'NONE', ( #318, #433 ), #365, .F. ) ;
#191 = AXIS2_PLACEMENT_3D ( 'NONE', #239, #9, #377 ) ;
#192 = CARTESIAN_POINT ( 'NONE',  ( -23.99999999999997200, 0.0000000000000000000, -5.999999999999999100 ) ) ;
#193 = LINE ( 'NONE', #340, #489 ) ;
#194 = LINE ( 'NONE', #279, #362 ) ;
#195 = CLOSED_SHELL ( 'NONE', ( #273, #281, #467, #266, #190, #549, #42, #223, #330, #454, #234, #141, #92, #285, #274, #543 ) ) ;
#196 = EDGE_CURVE ( 'NONE', #259, #573, #119, .T. ) ;
#197 = DIRECTION ( 'NONE',  ( -0.7071067811865513500, 0.0000000000000000000, 0.7071067811865438000 ) ) ;
#198 = DIRECTION ( 'NONE',  ( -0.0000000000000000000, -0.0000000000000000000, -1.000000000000000000 ) ) ;
#199 = EDGE_CURVE ( 'NONE', #72, #33, #208, .T. ) ;
#200 = APPROVAL_DATE_TIME ( #176, #375 ) ;
#201 = CARTESIAN_POINT ( 'NONE',  ( -23.63245787002911100, 34.00000000000000000, -6.152240934977424300 ) ) ;
#202 = ORIENTED_EDGE ( 'NONE', *, *, #382, .F. ) ;
#203 = ORIENTED_EDGE ( 'NONE', *, *, #188, .F. ) ;
#204 = DIRECTION ( 'NONE',  ( 0.0000000000000000000, -1.000000000000000000, 0.0000000000000000000 ) ) ;
#205 = AXIS2_PLACEMENT_3D ( 'NONE', #371, #50, #226 ) ;
#206 = APPROVAL_PERSON_ORGANIZATION ( #445, #375, #124 ) ;
#207 = CIRCLE ( 'NONE', #282, 3.249999999999996000 ) ;
#208 = LINE ( 'NONE', #366, #354 ) ;
#209 = PLANE ( 'NONE',  #145 ) ;
#210 = VERTEX_POINT ( 'NONE', #44 ) ;
#211 = DIRECTION ( 'NONE',  ( 0.7071067811865515700, 0.0000000000000000000, -0.7071067811865435800 ) ) ;
#212 = AXIS2_PLACEMENT_3D ( 'NONE', #307, #130, #403 ) ;
#213 = DATE_AND_TIME ( #244, #506 ) ;
#214 = FACE_BOUND ( 'NONE', #261, .T. ) ;
#215 = VECTOR ( 'NONE', #175, 1000.000000000000000 ) ;
#216 = ORIENTED_EDGE ( 'NONE', *, *, #229, .T. ) ;
#217 = CARTESIAN_POINT ( 'NONE',  ( -35.94891236737964800, 16.99999999999999600, -8.673617379884035500E-016 ) ) ;
#218 = VECTOR ( 'NONE', #60, 1000.000000000000000 ) ;
#219 = VERTEX_POINT ( 'NONE', #233 ) ;
#220 = EDGE_CURVE ( 'NONE', #72, #491, #95, .T. ) ;
#221 = ORIENTED_EDGE ( 'NONE', *, *, #250, .F. ) ;
#222 = APPROVAL_ROLE ( '' ) ;
#223 = ADVANCED_FACE ( 'NONE', ( #463, #440 ), #539, .F. ) ;
#224 = DIRECTION ( 'NONE',  ( 0.0000000000000000000, 1.000000000000000000, 0.0000000000000000000 ) ) ;
#225 = AXIS2_PLACEMENT_3D ( 'NONE', #552, #550, #38 ) ;
#226 = DIRECTION ( 'NONE',  ( -0.7071067811865513500, 0.0000000000000000000, 0.7071067811865438000 ) ) ;
#227 = DIRECTION ( 'NONE',  ( -0.0000000000000000000, 1.000000000000000000, -0.0000000000000000000 ) ) ;
#228 = VECTOR ( 'NONE', #32, 999.9999999999998900 ) ;
#229 = EDGE_CURVE ( 'NONE', #446, #567, #41, .T. ) ;
#230 = FACE_OUTER_BOUND ( 'NONE', #453, .T. ) ;
#231 = ORIENTED_EDGE ( 'NONE', *, *, #100, .F. ) ;
#232 = ORIENTED_EDGE ( 'NONE', *, *, #147, .T. ) ;
#233 = CARTESIAN_POINT ( 'NONE',  ( -60.00000000000000000, 0.0000000000000000000, 0.0000000000000000000 ) ) ;
#234 = ADVANCED_FACE ( 'NONE', ( #305 ), #526, .T. ) ;
#235 = LINE ( 'NONE', #568, #109 ) ;
#236 = CARTESIAN_POINT ( 'NONE',  ( -39.19891236737964100, 16.99999999999999600, -5.999999999999999100 ) ) ;
#237 = VECTOR ( 'NONE', #495, 1000.000000000000000 ) ;
#238 = ORIENTED_EDGE ( 'NONE', *, *, #578, .F. ) ;
#239 = CARTESIAN_POINT ( 'NONE',  ( -39.19891236737964100, 16.99999999999999600, -5.999999999999999100 ) ) ;
#240 = CARTESIAN_POINT ( 'NONE',  ( 23.47517606299226500, 16.99999999999999600, -31.96045743723052700 ) ) ;
#241 = EDGE_CURVE ( 'NONE', #33, #531, #302, .T. ) ;
#242 = AXIS2_PLACEMENT_3D ( 'NONE', #548, #136, #322 ) ;
#243 = DIRECTION ( 'NONE',  ( 0.0000000000000000000, 0.0000000000000000000, -1.000000000000000000 ) ) ;
#244 = CALENDAR_DATE ( 2018, 21, 6 ) ;
#245 = LINE ( 'NONE', #182, #413 ) ;
#246 = ORIENTED_EDGE ( 'NONE', *, *, #6, .F. ) ;
#247 = DIRECTION ( 'NONE',  ( 0.0000000000000000000, 0.0000000000000000000, -1.000000000000000000 ) ) ;
#248 = ORIENTED_EDGE ( 'NONE', *, *, #368, .T. ) ;
#249 = CARTESIAN_POINT ( 'NONE',  ( 30.01591378896780400, 16.99999999999999600, -30.01591378896749500 ) ) ;
#250 = EDGE_CURVE ( 'NONE', #380, #573, #56, .T. ) ;
#251 = APPROVAL_DATE_TIME ( #367, #461 ) ;
#252 = EDGE_LOOP ( 'NONE', ( #343, #363, #272, #127 ) ) ;
#253 = ORIENTED_EDGE ( 'NONE', *, *, #220, .T. ) ;
#254 = AXIS2_PLACEMENT_3D ( 'NONE', #572, #31, #299 ) ;
#255 = DIRECTION ( 'NONE',  ( -0.0000000000000000000, -1.000000000000000000, -0.0000000000000000000 ) ) ;
#256 = AXIS2_PLACEMENT_3D ( 'NONE', #53, #381, #98 ) ;
#257 = LINE ( 'NONE', #161, #15 ) ;
#258 = EDGE_LOOP ( 'NONE', ( #7, #172, #263, #143, #103, #321, #415, #592, #89, #86 ) ) ;
#259 = VERTEX_POINT ( 'NONE', #431 ) ;
#260 = CIRCLE ( 'NONE', #588, 5.999999999999998200 ) ;
#261 = EDGE_LOOP ( 'NONE', ( #37, #231 ) ) ;
#262 = MECHANICAL_CONTEXT ( 'NONE', #532, 'mechanical' ) ;
#263 = ORIENTED_EDGE ( 'NONE', *, *, #566, .T. ) ;
#264 = DIRECTION ( 'NONE',  ( -3.469446951953614200E-015, 0.0000000000000000000, -1.000000000000000000 ) ) ;
#265 = AXIS2_PLACEMENT_3D ( 'NONE', #437, #475, #519 ) ;
#266 = ADVANCED_FACE ( 'NONE', ( #537, #287 ), #560, .F. ) ;
#267 = EDGE_CURVE ( 'NONE', #79, #586, #396, .T. ) ;
#268 = LINE ( 'NONE', #21, #369 ) ;
#269 = VECTOR ( 'NONE', #465, 1000.000000000000100 ) ;
#270 = AXIS2_PLACEMENT_3D ( 'NONE', #428, #419, #243 ) ;
#271 = CARTESIAN_POINT ( 'NONE',  ( -39.19891236737964100, 16.99999999999999600, -8.673617379884035500E-016 ) ) ;
#272 = ORIENTED_EDGE ( 'NONE', *, *, #520, .F. ) ;
#273 = ADVANCED_FACE ( 'NONE', ( #70 ), #379, .F. ) ;
#274 = ADVANCED_FACE ( 'NONE', ( #150 ), #361, .F. ) ;
#275 = DIRECTION ( 'NONE',  ( -0.0000000000000000000, 1.000000000000000000, -0.0000000000000000000 ) ) ;
#276 = EDGE_CURVE ( 'NONE', #79, #446, #496, .T. ) ;
#277 = ORIENTED_EDGE ( 'NONE', *, *, #179, .T. ) ;
#278 = ORIENTED_EDGE ( 'NONE', *, *, #241, .T. ) ;
#279 = CARTESIAN_POINT ( 'NONE',  ( 13.00922662902999800, 34.00000000000000000, -21.49450800326839700 ) ) ;
#280 = DIRECTION ( 'NONE',  ( -1.000000000000000000, 0.0000000000000000000, 0.0000000000000000000 ) ) ;
#281 = ADVANCED_FACE ( 'NONE', ( #507 ), #450, .F. ) ;
#282 = AXIS2_PLACEMENT_3D ( 'NONE', #558, #63, #564 ) ;
#283 = DIRECTION ( 'NONE',  ( -0.7071067811865439100, 0.0000000000000000000, -0.7071067811865512400 ) ) ;
#284 = CIRCLE ( 'NONE', #505, 5.999999999999998200 ) ;
#285 = ADVANCED_FACE ( 'NONE', ( #385 ), #499, .F. ) ;
#286 = DIRECTION ( 'NONE',  ( 0.0000000000000000000, 1.000000000000000000, -0.0000000000000000000 ) ) ;
#287 = FACE_OUTER_BOUND ( 'NONE', #187, .T. ) ;
#288 = ORIENTED_EDGE ( 'NONE', *, *, #81, .F. ) ;
#289 = CARTESIAN_POINT ( 'NONE',  ( 38.18376618407376100, 34.00000000000000000, -38.18376618407336300 ) ) ;
#290 = EDGE_CURVE ( 'NONE', #538, #48, #134, .T. ) ;
#291 = CARTESIAN_POINT ( 'NONE',  ( 11.59501306665691400, 0.0000000000000000000, -22.90872156564150000 ) ) ;
#292 = CALENDAR_DATE ( 2018, 21, 6 ) ;
#293 = VECTOR ( 'NONE', #474, 1000.000000000000000 ) ;
#294 = CARTESIAN_POINT ( 'NONE',  ( 0.0000000000000000000, 34.00000000000000000, 0.0000000000000000000 ) ) ;
#295 = EDGE_LOOP ( 'NONE', ( #288, #472, #408, #344 ) ) ;
#296 = ORIENTED_EDGE ( 'NONE', *, *, #582, .T. ) ;
#297 = CARTESIAN_POINT ( 'NONE',  ( 33.94112549695450600, 0.0000000000000000000, -42.42640687119267500 ) ) ;
#298 = DIRECTION ( 'NONE',  ( 0.0000000000000000000, 0.0000000000000000000, 1.000000000000000000 ) ) ;
#299 = DIRECTION ( 'NONE',  ( 0.0000000000000000000, 0.0000000000000000000, -1.000000000000000000 ) ) ;
#300 = CARTESIAN_POINT ( 'NONE',  ( 25.77327310184855200, 16.99999999999999600, -34.25855447608679300 ) ) ;
#301 = LINE ( 'NONE', #569, #583 ) ;
#302 = CIRCLE ( 'NONE', #162, 3.249999999999996000 ) ;
#303 = ORIENTED_EDGE ( 'NONE', *, *, #290, .T. ) ;
#304 = APPLICATION_PROTOCOL_DEFINITION ( 'international standard', 'config_control_design', 1994, #532 ) ;
#305 = FACE_OUTER_BOUND ( 'NONE', #295, .T. ) ;
#306 = VERTEX_POINT ( 'NONE', #439 ) ;
#307 = CARTESIAN_POINT ( 'NONE',  ( -23.99999999999997200, 34.00000000000000000, -5.999999999999999100 ) ) ;
#308 = VERTEX_POINT ( 'NONE', #512 ) ;
#309 = EDGE_CURVE ( 'NONE', #210, #90, #525, .T. ) ;
#310 = CC_DESIGN_APPROVAL ( #424, ( #115 ) ) ;
#311 = APPROVAL_ROLE ( '' ) ;
#312 = FACE_OUTER_BOUND ( 'NONE', #356, .T. ) ;
#313 = CYLINDRICAL_SURFACE ( 'NONE', #129, 6.000000000000000000 ) ;
#314 = EDGE_LOOP ( 'NONE', ( #485, #43 ) ) ;
#315 = DIRECTION ( 'NONE',  ( 0.0000000000000000000, 0.0000000000000000000, 1.000000000000000000 ) ) ;
#316 = COORDINATED_UNIVERSAL_TIME_OFFSET ( 1, 0, .AHEAD. ) ;
#317 = LINE ( 'NONE', #389, #228 ) ;
#318 = FACE_BOUND ( 'NONE', #479, .T. ) ;
#319 = DIRECTION ( 'NONE',  ( 0.0000000000000000000, 0.0000000000000000000, -1.000000000000000000 ) ) ;
#320 = VERTEX_POINT ( 'NONE', #390 ) ;
#321 = ORIENTED_EDGE ( 'NONE', *, *, #520, .T. ) ;
#322 = DIRECTION ( 'NONE',  ( -0.7071067811865512400, 0.0000000000000000000, 0.7071067811865439100 ) ) ;
#323 = CARTESIAN_POINT ( 'NONE',  ( 33.94112549695450600, 34.00000000000000000, -42.42640687119267500 ) ) ;
#324 = CARTESIAN_POINT ( 'NONE',  ( 27.71781675011151700, 16.99999999999999600, -27.71781675011122900 ) ) ;
#325 = PERSON_AND_ORGANIZATION ( #484, #69 ) ;
#326 = AXIS2_PLACEMENT_3D ( 'NONE', #40, #355, #315 ) ;
#327 = VECTOR ( 'NONE', #275, 1000.000000000000000 ) ;
#328 = CC_DESIGN_SECURITY_CLASSIFICATION ( #342, ( #115 ) ) ;
#329 = ORIENTED_EDGE ( 'NONE', *, *, #460, .T. ) ;
#330 = ADVANCED_FACE ( 'NONE', ( #423 ), #209, .F. ) ;
#331 = CARTESIAN_POINT ( 'NONE',  ( 0.0000000000000000000, 0.0000000000000000000, 0.0000000000000000000 ) ) ;
#332 = DIRECTION ( 'NONE',  ( -0.0000000000000000000, -0.0000000000000000000, -1.000000000000000000 ) ) ;
#333 = DIRECTION ( 'NONE',  ( 0.0000000000000000000, 0.0000000000000000000, 1.000000000000000000 ) ) ;
#334 = CALENDAR_DATE ( 2018, 21, 6 ) ;
#335 = DIRECTION ( 'NONE',  ( -1.000000000000000000, 0.0000000000000000000, 0.0000000000000000000 ) ) ;
#336 = CIRCLE ( 'NONE', #536, 3.249999999999996000 ) ;
#337 = EDGE_LOOP ( 'NONE', ( #202, #527, #458, #158 ) ) ;
#338 = VERTEX_POINT ( 'NONE', #434 ) ;
#339 = CARTESIAN_POINT ( 'NONE',  ( -42.44891236737964100, 16.99999999999999600, -5.999999999999999100 ) ) ;
#340 = CARTESIAN_POINT ( 'NONE',  ( 0.0000000000000000000, 34.00000000000000000, 0.0000000000000000000 ) ) ;
#341 = DIRECTION ( 'NONE',  ( 0.0000000000000000000, -1.000000000000000000, -0.0000000000000000000 ) ) ;
#342 = SECURITY_CLASSIFICATION ( '', '', #482 ) ;
#343 = ORIENTED_EDGE ( 'NONE', *, *, #147, .F. ) ;
#344 = ORIENTED_EDGE ( 'NONE', *, *, #566, .F. ) ;
#345 = AXIS2_PLACEMENT_3D ( 'NONE', #58, #62, #378 ) ;
#346 = LINE ( 'NONE', #201, #293 ) ;
#347 = ORIENTED_EDGE ( 'NONE', *, *, #137, .F. ) ;
#348 = VERTEX_POINT ( 'NONE', #153 ) ;
#349 = EDGE_CURVE ( 'NONE', #171, #574, #118, .T. ) ;
#350 = PERSON_AND_ORGANIZATION_ROLE ( 'design_owner' ) ;
#351 = AXIS2_PLACEMENT_3D ( 'NONE', #240, #11, #508 ) ;
#352 = CARTESIAN_POINT ( 'NONE',  ( 12.36037993138708800, 0.0000000000000000000, -21.06096250061892400 ) ) ;
#353 = VECTOR ( 'NONE', #391, 1000.000000000000000 ) ;
#354 = VECTOR ( 'NONE', #91, 1000.000000000000000 ) ;
#355 = DIRECTION ( 'NONE',  ( 0.0000000000000000000, 1.000000000000000000, 0.0000000000000000000 ) ) ;
#356 = EDGE_LOOP ( 'NONE', ( #59, #501, #189, #28 ) ) ;
#357 = APPROVAL_STATUS ( 'not_yet_approved' ) ;
#358 = DIRECTION ( 'NONE',  ( -0.0000000000000000000, -1.000000000000000000, -0.0000000000000000000 ) ) ;
#359 = PERSON_AND_ORGANIZATION ( #484, #69 ) ;
#360 = CARTESIAN_POINT ( 'NONE',  ( -54.00000000000000000, 34.00000000000000000, 8.673617379884035500E-016 ) ) ;
#361 = CYLINDRICAL_SURFACE ( 'NONE', #133, 3.249999999999996000 ) ;
#362 = VECTOR ( 'NONE', #227, 1000.000000000000000 ) ;
#363 = ORIENTED_EDGE ( 'NONE', *, *, #196, .F. ) ;
#364 = ORIENTED_EDGE ( 'NONE', *, *, #455, .T. ) ;
#365 = PLANE ( 'NONE',  #242 ) ;
#366 = CARTESIAN_POINT ( 'NONE',  ( -35.94891236737964800, 16.99999999999999600, -5.999999999999999100 ) ) ;
#367 = DATE_AND_TIME ( #334, #393 ) ;
#368 = EDGE_CURVE ( 'NONE', #380, #96, #257, .T. ) ;
#369 = VECTOR ( 'NONE', #376, 1000.000000000000000 ) ;
#370 = CC_DESIGN_APPROVAL ( #461, ( #342 ) ) ;
#371 = CARTESIAN_POINT ( 'NONE',  ( 23.47517606299226500, 16.99999999999999600, -31.96045743723052700 ) ) ;
#372 = UNCERTAINTY_MEASURE_WITH_UNIT (LENGTH_MEASURE( 1.000000000000000100E-005 ), #113, 'distance_accuracy_value', 'NONE');
#373 = EDGE_LOOP ( 'NONE', ( #221, #248, #180, #128 ) ) ;
#374 = EDGE_LOOP ( 'NONE', ( #5, #120, #414, #121 ) ) ;
#375 = APPROVAL ( #78, 'UNSPECIFIED' ) ;
#376 = DIRECTION ( 'NONE',  ( -0.7071067811865515700, -0.0000000000000000000, 0.7071067811865435800 ) ) ;
#377 = DIRECTION ( 'NONE',  ( -1.000000000000000000, 0.0000000000000000000, 0.0000000000000000000 ) ) ;
#378 = DIRECTION ( 'NONE',  ( 0.0000000000000000000, 0.0000000000000000000, -1.000000000000000000 ) ) ;
#379 = CYLINDRICAL_SURFACE ( 'NONE', #256, 3.249999999999995600 ) ;
#380 = VERTEX_POINT ( 'NONE', #513 ) ;
#381 = DIRECTION ( 'NONE',  ( -0.7071067811865436900, -0.0000000000000000000, -0.7071067811865514600 ) ) ;
#382 = EDGE_CURVE ( 'NONE', #65, #171, #25, .T. ) ;
#383 = CARTESIAN_POINT ( 'NONE',  ( 38.18376618407376100, 34.00000000000000000, -38.18376618407336300 ) ) ;
#384 = COORDINATED_UNIVERSAL_TIME_OFFSET ( 1, 0, .AHEAD. ) ;
#385 = FACE_OUTER_BOUND ( 'NONE', #502, .T. ) ;
#386 = ORIENTED_EDGE ( 'NONE', *, *, #155, .F. ) ;
#387 = CC_DESIGN_PERSON_AND_ORGANIZATION_ASSIGNMENT ( #325, #350, ( #436 ) ) ;
#388 = EDGE_LOOP ( 'NONE', ( #347, #216, #166, #509 ) ) ;
#389 = CARTESIAN_POINT ( 'NONE',  ( 0.0000000000000000000, 0.0000000000000000000, 0.0000000000000000000 ) ) ;
#390 = CARTESIAN_POINT ( 'NONE',  ( 38.18376618407376100, 0.0000000000000000000, -44.18376618407336300 ) ) ;
#391 = DIRECTION ( 'NONE',  ( -0.7071067811865515700, -0.0000000000000000000, 0.7071067811865435800 ) ) ;
#392 = DIRECTION ( 'NONE',  ( -0.0000000000000000000, -1.000000000000000000, -0.0000000000000000000 ) ) ;
#393 = LOCAL_TIME ( 9, 39, 9.000000000000000000, #316 ) ;
#394 = LINE ( 'NONE', #331, #462 ) ;
#395 = EDGE_CURVE ( 'NONE', #538, #26, #142, .T. ) ;
#396 = LINE ( 'NONE', #8, #269 ) ;
#397 = ORIENTED_EDGE ( 'NONE', *, *, #179, .F. ) ;
#398 = CC_DESIGN_DATE_AND_TIME_ASSIGNMENT ( #213, #132, ( #342 ) ) ;
#399 = ORIENTED_EDGE ( 'NONE', *, *, #401, .F. ) ;
#400 = APPLICATION_CONTEXT ( 'configuration controlled 3d designs of mechanical parts and assemblies' ) ;
#401 = EDGE_CURVE ( 'NONE', #210, #308, #193, .T. ) ;
#402 = ORIENTED_EDGE ( 'NONE', *, *, #429, .F. ) ;
#403 = DIRECTION ( 'NONE',  ( 0.9238795325112876300, 0.0000000000000000000, -0.3826834323650875600 ) ) ;
#404 = PRODUCT_RELATED_PRODUCT_CATEGORY ( 'detail', '', ( #436 ) ) ;
#405 = LINE ( 'NONE', #473, #353 ) ;
#406 = VECTOR ( 'NONE', #29, 1000.000000000000000 ) ;
#407 = VECTOR ( 'NONE', #468, 1000.000000000000000 ) ;
#408 = ORIENTED_EDGE ( 'NONE', *, *, #410, .T. ) ;
#409 = CARTESIAN_POINT ( 'NONE',  ( -39.19891236737964100, 16.99999999999999600, -8.673617379884035500E-016 ) ) ;
#410 = EDGE_CURVE ( 'NONE', #90, #497, #469, .T. ) ;
#411 = LOCAL_TIME ( 9, 39, 9.000000000000000000, #99 ) ;
#412 = CYLINDRICAL_SURFACE ( 'NONE', #557, 5.999999999999998200 ) ;
#413 = VECTOR ( 'NONE', #46, 1000.000000000000000 ) ;
#414 = ORIENTED_EDGE ( 'NONE', *, *, #309, .F. ) ;
#415 = ORIENTED_EDGE ( 'NONE', *, *, #452, .F. ) ;
#416 = DIRECTION ( 'NONE',  ( -0.7071067811865513500, 0.0000000000000000000, 0.7071067811865438000 ) ) ;
#417 = AXIS2_PLACEMENT_3D ( 'NONE', #126, #224, #264 ) ;
#418 = DIRECTION ( 'NONE',  ( 0.0000000000000000000, 0.0000000000000000000, -1.000000000000000000 ) ) ;
#419 = DIRECTION ( 'NONE',  ( 0.0000000000000000000, -1.000000000000000000, 0.0000000000000000000 ) ) ;
#420 = AXIS2_PLACEMENT_3D ( 'NONE', #521, #514, #211 ) ;
#421 = PERSON_AND_ORGANIZATION ( #484, #69 ) ;
#422 = CARTESIAN_POINT ( 'NONE',  ( -42.44891236737964100, 16.99999999999999600, -8.673617379884035500E-016 ) ) ;
#423 = FACE_OUTER_BOUND ( 'NONE', #490, .T. ) ;
#424 = APPROVAL ( #35, 'UNSPECIFIED' ) ;
#425 = DIRECTION ( 'NONE',  ( 0.0000000000000000000, 0.0000000000000000000, 1.000000000000000000 ) ) ;
#426 = EDGE_LOOP ( 'NONE', ( #397, #529, #303, #565 ) ) ;
#427 = ORIENTED_EDGE ( 'NONE', *, *, #250, .T. ) ;
#428 = CARTESIAN_POINT ( 'NONE',  ( 38.18376618407376100, 34.00000000000000000, -38.18376618407336300 ) ) ;
#429 = EDGE_CURVE ( 'NONE', #48, #306, #346, .T. ) ;
#430 = CARTESIAN_POINT ( 'NONE',  ( 42.42640687119306600, 0.0000000000000000000, -42.42640687119262600 ) ) ;
#431 = CARTESIAN_POINT ( 'NONE',  ( -54.00000000000000000, 0.0000000000000000000, -5.999999999999999100 ) ) ;
#432 = FACE_OUTER_BOUND ( 'NONE', #591, .T. ) ;
#433 = FACE_OUTER_BOUND ( 'NONE', #374, .T. ) ;
#434 = CARTESIAN_POINT ( 'NONE',  ( -60.00000000000000000, 34.00000000000000000, 0.0000000000000000000 ) ) ;
#435 = ORIENTED_EDGE ( 'NONE', *, *, #368, .F. ) ;
#436 = PRODUCT ( 'ALP2440', 'ALP2440', '', ( #262 ) ) ;
#437 = CARTESIAN_POINT ( 'NONE',  ( 23.47517606299226500, 16.99999999999999600, -31.96045743723052700 ) ) ;
#438 = CALENDAR_DATE ( 2018, 21, 6 ) ;
#439 = CARTESIAN_POINT ( 'NONE',  ( -23.63245787002911100, 34.00000000000000000, -6.152240934977424300 ) ) ;
#440 = FACE_OUTER_BOUND ( 'NONE', #373, .T. ) ;
#441 = AXIS2_PLACEMENT_3D ( 'NONE', #97, #286, #425 ) ;
#442 = VERTEX_POINT ( 'NONE', #105 ) ;
#443 = CARTESIAN_POINT ( 'NONE',  ( 21.17707902413597800, 16.99999999999999600, -29.66236039837426100 ) ) ;
#444 = APPLICATION_PROTOCOL_DEFINITION ( 'international standard', 'config_control_design', 1994, #400 ) ;
#445 = PERSON_AND_ORGANIZATION ( #484, #69 ) ;
#446 = VERTEX_POINT ( 'NONE', #249 ) ;
#447 = PERSON_AND_ORGANIZATION_ROLE ( 'creator' ) ;
#448 = AXIS2_PLACEMENT_3D ( 'NONE', #500, #333, #152 ) ;
#449 = CARTESIAN_POINT ( 'NONE',  ( -35.94891236737964800, 16.99999999999999600, -5.999999999999999100 ) ) ;
#450 = CYLINDRICAL_SURFACE ( 'NONE', #191, 3.249999999999996000 ) ;
#451 = CIRCLE ( 'NONE', #417, 2.000000000000000000 ) ;
#452 = EDGE_CURVE ( 'NONE', #96, #259, #235, .T. ) ;
#453 = EDGE_LOOP ( 'NONE', ( #579, #77, #36, #246 ) ) ;
#454 = ADVANCED_FACE ( 'NONE', ( #55 ), #476, .T. ) ;
#455 = EDGE_CURVE ( 'NONE', #531, #33, #207, .T. ) ;
#456 = ORIENTED_EDGE ( 'NONE', *, *, #199, .F. ) ;
#457 = EDGE_LOOP ( 'NONE', ( #518, #253 ) ) ;
#458 = ORIENTED_EDGE ( 'NONE', *, *, #523, .F. ) ;
#459 = CARTESIAN_POINT ( 'NONE',  ( -24.39782473475928600, 0.0000000000000000000, -5.999999999999999100 ) ) ;
#460 = EDGE_CURVE ( 'NONE', #171, #442, #268, .T. ) ;
#461 = APPROVAL ( #357, 'UNSPECIFIED' ) ;
#462 = VECTOR ( 'NONE', #102, 1000.000000000000000 ) ;
#463 = FACE_BOUND ( 'NONE', #314, .T. ) ;
#464 = ORIENTED_EDGE ( 'NONE', *, *, #167, .T. ) ;
#465 = DIRECTION ( 'NONE',  ( -0.7071067811865435800, -0.0000000000000000000, -0.7071067811865513500 ) ) ;
#466 = AXIS2_PLACEMENT_3D ( 'NONE', #291, #524, #575 ) ;
#467 = ADVANCED_FACE ( 'NONE', ( #4 ), #412, .T. ) ;
#468 = DIRECTION ( 'NONE',  ( -1.000000000000000000, -0.0000000000000000000, -0.0000000000000000000 ) ) ;
#469 = LINE ( 'NONE', #106, #406 ) ;
#470 = CIRCLE ( 'NONE', #39, 6.000000000000000000 ) ;
#471 = ORIENTED_EDGE ( 'NONE', *, *, #167, .F. ) ;
#472 = ORIENTED_EDGE ( 'NONE', *, *, #540, .F. ) ;
#473 = CARTESIAN_POINT ( 'NONE',  ( 12.72792206135793500, 0.0000000000000000000, -21.21320343559634100 ) ) ;
#474 = DIRECTION ( 'NONE',  ( 0.0000000000000000000, 1.000000000000000000, -0.0000000000000000000 ) ) ;
#475 = DIRECTION ( 'NONE',  ( -0.7071067811865436900, -0.0000000000000000000, -0.7071067811865514600 ) ) ;
#476 = PLANE ( 'NONE',  #225 ) ;
#477 = PERSON_AND_ORGANIZATION ( #484, #69 ) ;
#478 = LOCAL_TIME ( 9, 39, 9.000000000000000000, #384 ) ;
#479 = EDGE_LOOP ( 'NONE', ( #17, #486 ) ) ;
#480 = ORIENTED_EDGE ( 'NONE', *, *, #220, .F. ) ;
#481 = PRODUCT_DEFINITION_SHAPE ( 'NONE', 'NONE',  #570 ) ;
#482 = SECURITY_CLASSIFICATION_LEVEL ( 'unclassified' ) ;
#483 = CIRCLE ( 'NONE', #205, 3.249999999999995600 ) ;
#484 = PERSON ( 'UNSPECIFIED', 'UNSPECIFIED', 'UNSPECIFIED', ('UNSPECIFIED'), ('UNSPECIFIED'), ('UNSPECIFIED') ) ;
#485 = ORIENTED_EDGE ( 'NONE', *, *, #455, .F. ) ;
#486 = ORIENTED_EDGE ( 'NONE', *, *, #137, .T. ) ;
#487 = DATE_TIME_ROLE ( 'creation_date' ) ;
#488 = EDGE_CURVE ( 'NONE', #219, #308, #394, .T. ) ;
#489 = VECTOR ( 'NONE', #255, 1000.000000000000000 ) ;
#490 = EDGE_LOOP ( 'NONE', ( #85, #181, #151, #329, #66, #277, #464, #427, #232, #517 ) ) ;
#491 = VERTEX_POINT ( 'NONE', #422 ) ;
#492 = DIRECTION ( 'NONE',  ( 0.0000000000000000000, 0.0000000000000000000, -1.000000000000000000 ) ) ;
#493 = AXIS2_PLACEMENT_3D ( 'NONE', #542, #183, #416 ) ;
#494 = CARTESIAN_POINT ( 'NONE',  ( 25.41971971125523000, 16.99999999999999600, -25.41971971125496700 ) ) ;
#495 = DIRECTION ( 'NONE',  ( -0.9238795325112877400, -0.0000000000000000000, 0.3826834323650875100 ) ) ;
#496 = CIRCLE ( 'NONE', #164, 3.249999999999995600 ) ;
#497 = VERTEX_POINT ( 'NONE', #430 ) ;
#498 = DIRECTION ( 'NONE',  ( -1.000000000000000000, 0.0000000000000000000, 0.0000000000000000000 ) ) ;
#499 = CYLINDRICAL_SURFACE ( 'NONE', #441, 2.000000000000000000 ) ;
#500 = CARTESIAN_POINT ( 'NONE',  ( -60.00000000000000000, 34.00000000000000000, -5.999999999999999100 ) ) ;
#501 = ORIENTED_EDGE ( 'NONE', *, *, #276, .F. ) ;
#502 = EDGE_LOOP ( 'NONE', ( #471, #402, #111, #435 ) ) ;
#503 = CC_DESIGN_PERSON_AND_ORGANIZATION_ASSIGNMENT ( #553, #170, ( #570 ) ) ;
#504 = CARTESIAN_POINT ( 'NONE',  ( -60.00000000000000000, 34.00000000000000000, -5.999999999999999100 ) ) ;
#505 = AXIS2_PLACEMENT_3D ( 'NONE', #148, #561, #418 ) ;
#506 = LOCAL_TIME ( 9, 39, 9.000000000000000000, #24 ) ;
#507 = FACE_OUTER_BOUND ( 'NONE', #135, .T. ) ;
#508 = DIRECTION ( 'NONE',  ( -0.7071067811865513500, 0.0000000000000000000, 0.7071067811865438000 ) ) ;
#509 = ORIENTED_EDGE ( 'NONE', *, *, #267, .F. ) ;
#510 = DIRECTION ( 'NONE',  ( -0.0000000000000000000, -0.0000000000000000000, -1.000000000000000000 ) ) ;
#511 = DIRECTION ( 'NONE',  ( 0.0000000000000000000, -1.000000000000000000, 0.0000000000000000000 ) ) ;
#512 = CARTESIAN_POINT ( 'NONE',  ( 0.0000000000000000000, 0.0000000000000000000, 0.0000000000000000000 ) ) ;
#513 = CARTESIAN_POINT ( 'NONE',  ( -24.39782473475928600, 34.00000000000000000, -5.999999999999999100 ) ) ;
#514 = DIRECTION ( 'NONE',  ( 0.7071067811865435800, -0.0000000000000000000, 0.7071067811865515700 ) ) ;
#515 = CIRCLE ( 'NONE', #265, 3.249999999999995600 ) ;
#516 = DIRECTION ( 'NONE',  ( -0.0000000000000000000, -1.000000000000000000, 0.0000000000000000000 ) ) ;
#517 = ORIENTED_EDGE ( 'NONE', *, *, #578, .T. ) ;
#518 = ORIENTED_EDGE ( 'NONE', *, *, #188, .T. ) ;
#519 = DIRECTION ( 'NONE',  ( -0.7071067811865513500, 0.0000000000000000000, 0.7071067811865438000 ) ) ;
#520 = EDGE_CURVE ( 'NONE', #219, #259, #184, .T. ) ;
#521 = CARTESIAN_POINT ( 'NONE',  ( 12.72792206135793500, 34.00000000000000000, -21.21320343559634100 ) ) ;
#522 = DIRECTION ( 'NONE',  ( -0.0000000000000000000, -1.000000000000000000, -0.0000000000000000000 ) ) ;
#523 = EDGE_CURVE ( 'NONE', #574, #320, #284, .T. ) ;
#524 = DIRECTION ( 'NONE',  ( 0.0000000000000000000, 1.000000000000000000, 0.0000000000000000000 ) ) ;
#525 = LINE ( 'NONE', #562, #84 ) ;
#526 = CYLINDRICAL_SURFACE ( 'NONE', #270, 5.999999999999998200 ) ;
#527 = ORIENTED_EDGE ( 'NONE', *, *, #81, .T. ) ;
#528 = VECTOR ( 'NONE', #30, 1000.000000000000000 ) ;
#529 = ORIENTED_EDGE ( 'NONE', *, *, #6, .T. ) ;
#530 = ORIENTED_EDGE ( 'NONE', *, *, #488, .T. ) ;
#531 = VERTEX_POINT ( 'NONE', #339 ) ;
#532 = APPLICATION_CONTEXT ( 'configuration controlled 3d designs of mechanical parts and assemblies' ) ;
#533 = CC_DESIGN_DATE_AND_TIME_ASSIGNMENT ( #535, #487, ( #570 ) ) ;
#534 = CARTESIAN_POINT ( 'NONE',  ( 38.18376618407376100, 34.00000000000000000, -44.18376618407336300 ) ) ;
#535 = DATE_AND_TIME ( #438, #478 ) ;
#536 = AXIS2_PLACEMENT_3D ( 'NONE', #409, #139, #498 ) ;
#537 = FACE_BOUND ( 'NONE', #457, .T. ) ;
#538 = VERTEX_POINT ( 'NONE', #19 ) ;
#539 = PLANE ( 'NONE',  #448 ) ;
#540 = EDGE_CURVE ( 'NONE', #90, #65, #571, .T. ) ;
#541 = DESIGN_CONTEXT ( 'detailed design', #400, 'design' ) ;
#542 = CARTESIAN_POINT ( 'NONE',  ( 27.71781675011151700, 16.99999999999999600, -27.71781675011122900 ) ) ;
#543 = ADVANCED_FACE ( 'NONE', ( #312 ), #544, .F. ) ;
#544 = CYLINDRICAL_SURFACE ( 'NONE', #351, 3.249999999999995600 ) ;
#545 = LINE ( 'NONE', #140, #237 ) ;
#546 = EDGE_LOOP ( 'NONE', ( #456, #203, #556, #364 ) ) ;
#547 = ORIENTED_EDGE ( 'NONE', *, *, #460, .F. ) ;
#548 = CARTESIAN_POINT ( 'NONE',  ( 0.0000000000000000000, 34.00000000000000000, 0.0000000000000000000 ) ) ;
#549 = ADVANCED_FACE ( 'NONE', ( #214, #432 ), #163, .F. ) ;
#550 = DIRECTION ( 'NONE',  ( 0.0000000000000000000, -1.000000000000000000, -0.0000000000000000000 ) ) ;
#551 = DIRECTION ( 'NONE',  ( 0.0000000000000000000, 1.000000000000000000, 0.0000000000000000000 ) ) ;
#552 = CARTESIAN_POINT ( 'NONE',  ( 0.0000000000000000000, 0.0000000000000000000, 0.0000000000000000000 ) ) ;
#553 = PERSON_AND_ORGANIZATION ( #484, #69 ) ;
#554 = EDGE_CURVE ( 'NONE', #308, #497, #317, .T. ) ;
#555 = CYLINDRICAL_SURFACE ( 'NONE', #326, 2.000000000000001800 ) ;
#556 = ORIENTED_EDGE ( 'NONE', *, *, #155, .T. ) ;
#557 = AXIS2_PLACEMENT_3D ( 'NONE', #383, #511, #52 ) ;
#558 = CARTESIAN_POINT ( 'NONE',  ( -39.19891236737964100, 16.99999999999999600, -5.999999999999999100 ) ) ;
#559 = DIRECTION ( 'NONE',  ( -1.000000000000000000, 0.0000000000000000000, -0.0000000000000000000 ) ) ;
#560 = PLANE ( 'NONE',  #94 ) ;
#561 = DIRECTION ( 'NONE',  ( -0.0000000000000000000, -1.000000000000000000, -0.0000000000000000000 ) ) ;
#562 = CARTESIAN_POINT ( 'NONE',  ( 0.0000000000000000000, 34.00000000000000000, 0.0000000000000000000 ) ) ;
#563 = LINE ( 'NONE', #534, #16 ) ;
#564 = DIRECTION ( 'NONE',  ( -1.000000000000000000, 0.0000000000000000000, 0.0000000000000000000 ) ) ;
#565 = ORIENTED_EDGE ( 'NONE', *, *, #429, .T. ) ;
#566 = EDGE_CURVE ( 'NONE', #320, #497, #260, .T. ) ;
#567 = VERTEX_POINT ( 'NONE', #300 ) ;
#568 = CARTESIAN_POINT ( 'NONE',  ( -60.00000000000000000, 0.0000000000000000000, -5.999999999999999100 ) ) ;
#569 = CARTESIAN_POINT ( 'NONE',  ( -60.00000000000000000, 34.00000000000000000, 0.0000000000000000000 ) ) ;
#570 = PRODUCT_DEFINITION ( 'UNKNOWN', '', #115, #541 ) ;
#571 = CIRCLE ( 'NONE', #108, 5.999999999999998200 ) ;
#572 = CARTESIAN_POINT ( 'NONE',  ( 38.18376618407376100, 34.00000000000000000, -38.18376618407336300 ) ) ;
#573 = VERTEX_POINT ( 'NONE', #154 ) ;
#574 = VERTEX_POINT ( 'NONE', #297 ) ;
#575 = DIRECTION ( 'NONE',  ( 0.0000000000000000000, 0.0000000000000000000, -1.000000000000000000 ) ) ;
#576 = EDGE_CURVE ( 'NONE', #574, #26, #405, .T. ) ;
#577 = DIRECTION ( 'NONE',  ( 1.000000000000000000, 0.0000000000000000000, 0.0000000000000000000 ) ) ;
#578 = EDGE_CURVE ( 'NONE', #338, #210, #169, .T. ) ;
#579 = ORIENTED_EDGE ( 'NONE', *, *, #27, .F. ) ;
#580 = ORIENTED_EDGE ( 'NONE', *, *, #576, .T. ) ;
#581 = PLANE ( 'NONE',  #212 ) ;
#582 = EDGE_CURVE ( 'NONE', #338, #219, #301, .T. ) ;
#583 = VECTOR ( 'NONE', #392, 1000.000000000000000 ) ;
#584 = VECTOR ( 'NONE', #61, 1000.000000000000100 ) ;
#585 = PERSON_AND_ORGANIZATION_ROLE ( 'classification_officer' ) ;
#586 = VERTEX_POINT ( 'NONE', #443 ) ;
#587 = EDGE_CURVE ( 'NONE', #586, #567, #515, .T. ) ;
#588 = AXIS2_PLACEMENT_3D ( 'NONE', #107, #522, #23 ) ;
#589 = CARTESIAN_POINT ( 'NONE',  ( 13.00922662902999800, 0.0000000000000000000, -21.49450800326839700 ) ) ;
#590 = LINE ( 'NONE', #352, #215 ) ;
#591 = EDGE_LOOP ( 'NONE', ( #580, #159, #547, #144 ) ) ;
#592 = ORIENTED_EDGE ( 'NONE', *, *, #74, .T. ) ;
#593 = DIRECTION ( 'NONE',  ( 0.0000000000000000000, 0.0000000000000000000, -1.000000000000000000 ) ) ;
ENDSEC;
END-ISO-10303-21;
