ISO-10303-21;
HEADER;
FILE_DESCRIPTION (( 'STEP AP203' ),
    '1' );
FILE_NAME ('ALP2013.STEP',
    '2017-02-17T17:51:43',
    ( '' ),
    ( '' ),
    'SwSTEP 2.0',
    'SolidWorks 2012',
    '' );
FILE_SCHEMA (( 'CONFIG_CONTROL_DESIGN' ));
ENDSEC;

DATA;
#1 = PERSON ( 'UNSPECIFIED', 'UNSPECIFIED', 'UNSPECIFIED', ('UNSPECIFIED'), ('UNSPECIFIED'), ('UNSPECIFIED') ) ;
#2 = PRODUCT ( 'ALP2013', 'ALP2013', '', ( #29 ) ) ;
#3 = DIRECTION ( 'NONE',  ( 1.000000000000000000, 0.0000000000000000000, 0.0000000000000000000 ) ) ;
#4 = DIRECTION ( 'NONE',  ( -0.0000000000000000000, -0.0000000000000000000, 1.000000000000000000 ) ) ;
#5 = DIRECTION ( 'NONE',  ( 0.0000000000000000000, 0.0000000000000000000, 1.000000000000000000 ) ) ;
#6 = DIRECTION ( 'NONE',  ( 0.0000000000000000000, 0.0000000000000000000, -1.000000000000000000 ) ) ;
#7 =( NAMED_UNIT ( * ) PLANE_ANGLE_UNIT ( ) SI_UNIT ( $, .RADIAN. ) );
#8 = PERSON_AND_ORGANIZATION_ROLE ( 'design_supplier' ) ;
#9 = DIRECTION ( 'NONE',  ( -1.000000000000000000, 0.0000000000000000000, 0.0000000000000000000 ) ) ;
#10 = APPLICATION_CONTEXT ( 'configuration controlled 3d designs of mechanical parts and assemblies' ) ;
#11 = CARTESIAN_POINT ( 'NONE',  ( 17.00000000000000700, -36.99999999999999300, 4.000000000000000000 ) ) ;
#12 = APPLICATION_CONTEXT ( 'configuration controlled 3d designs of mechanical parts and assemblies' ) ;
#13 = CARTESIAN_POINT ( 'NONE',  ( -19.99999999999999300, 37.00000000000000700, 4.000000000000000000 ) ) ;
#14 = APPROVAL_ROLE ( '' ) ;
#15 = DIRECTION ( 'NONE',  ( 0.0000000000000000000, 0.0000000000000000000, 1.000000000000000000 ) ) ;
#16 = DIRECTION ( 'NONE',  ( -1.000000000000000000, 0.0000000000000000000, 0.0000000000000000000 ) ) ;
#17 = DIRECTION ( 'NONE',  ( 0.0000000000000000000, 0.0000000000000000000, 1.000000000000000000 ) ) ;
#18 = CARTESIAN_POINT ( 'NONE',  ( 0.0000000000000000000, 20.00000000000000000, 0.0000000000000000000 ) ) ;
#19 = APPROVAL_STATUS ( 'not_yet_approved' ) ;
#20 = DATE_TIME_ROLE ( 'creation_date' ) ;
#21 = APPROVAL_STATUS ( 'not_yet_approved' ) ;
#22 = CARTESIAN_POINT ( 'NONE',  ( 0.0000000000000000000, -20.00000000000000000, 0.0000000000000000000 ) ) ;
#23 = PERSON_AND_ORGANIZATION_ROLE ( 'creator' ) ;
#24 = APPROVAL_ROLE ( '' ) ;
#25 = DIRECTION ( 'NONE',  ( 1.000000000000000000, 0.0000000000000000000, 0.0000000000000000000 ) ) ;
#26 = SECURITY_CLASSIFICATION_LEVEL ( 'unclassified' ) ;
#27 = DIRECTION ( 'NONE',  ( 0.0000000000000000000, 0.0000000000000000000, -1.000000000000000000 ) ) ;
#28 = CARTESIAN_POINT ( 'NONE',  ( 0.0000000000000000000, 0.0000000000000000000, 0.0000000000000000000 ) ) ;
#29 = MECHANICAL_CONTEXT ( 'NONE', #12, 'mechanical' ) ;
#30 = APPROVAL_ROLE ( '' ) ;
#31 = PERSON_AND_ORGANIZATION_ROLE ( 'classification_officer' ) ;
#32 = CARTESIAN_POINT ( 'NONE',  ( -16.99999999999999300, -36.99999999999999300, 0.0000000000000000000 ) ) ;
#33 =( LENGTH_UNIT ( ) NAMED_UNIT ( * ) SI_UNIT ( .MILLI., .METRE. ) );
#34 =( NAMED_UNIT ( * ) SI_UNIT ( $, .STERADIAN. ) SOLID_ANGLE_UNIT ( ) );
#35 = APPLICATION_PROTOCOL_DEFINITION ( 'international standard', 'config_control_design', 1994, #10 ) ;
#36 = DIRECTION ( 'NONE',  ( 0.0000000000000000000, 0.0000000000000000000, -1.000000000000000000 ) ) ;
#37 = DIRECTION ( 'NONE',  ( 1.000000000000000000, 0.0000000000000000000, 0.0000000000000000000 ) ) ;
#38 = PERSON_AND_ORGANIZATION_ROLE ( 'creator' ) ;
#39 = CARTESIAN_POINT ( 'NONE',  ( 20.00000000000000700, -36.99999999999999300, 4.000000000000000000 ) ) ;
#40 = PERSON_AND_ORGANIZATION_ROLE ( 'design_owner' ) ;
#41 = DATE_TIME_ROLE ( 'classification_date' ) ;
#42 = APPROVAL_STATUS ( 'not_yet_approved' ) ;
#43 = APPLICATION_PROTOCOL_DEFINITION ( 'international standard', 'config_control_design', 1994, #12 ) ;
#44 = CARTESIAN_POINT ( 'NONE',  ( -4.599999999999999600, -20.00000000000000000, 0.0000000000000000000 ) ) ;
#45 = CARTESIAN_POINT ( 'NONE',  ( -19.99999999999999300, 37.00000000000000700, 0.0000000000000000000 ) ) ;
#46 = DIRECTION ( 'NONE',  ( 0.0000000000000000000, -0.0000000000000000000, 1.000000000000000000 ) ) ;
#47 = CARTESIAN_POINT ( 'NONE',  ( -19.99999999999999300, 37.00000000000000700, 4.000000000000000000 ) ) ;
#48 = PLANE ( 'NONE',  #484 ) ;
#49 = DIRECTION ( 'NONE',  ( 0.0000000000000000000, -0.0000000000000000000, -1.000000000000000000 ) ) ;
#50 = CARTESIAN_POINT ( 'NONE',  ( 17.00000000000000700, -36.99999999999999300, 4.000000000000000000 ) ) ;
#51 = DIRECTION ( 'NONE',  ( -1.000000000000000000, 0.0000000000000000000, 0.0000000000000000000 ) ) ;
#52 = CARTESIAN_POINT ( 'NONE',  ( -8.600000000000010300, 20.00000000000000000, 4.000000000000000000 ) ) ;
#53 = CARTESIAN_POINT ( 'NONE',  ( 8.600000000000010300, -20.00000000000000000, 4.000000000000000000 ) ) ;
#54 = CARTESIAN_POINT ( 'NONE',  ( -19.99999999999999300, -36.99999999999999300, 4.000000000000000000 ) ) ;
#55 = CARTESIAN_POINT ( 'NONE',  ( -16.99999999999999300, 40.00000000000000700, 0.0000000000000000000 ) ) ;
#56 = CARTESIAN_POINT ( 'NONE',  ( 20.00000000000000700, -36.99999999999999300, 0.0000000000000000000 ) ) ;
#57 = CARTESIAN_POINT ( 'NONE',  ( 17.00000000000001100, 40.00000000000000700, 4.000000000000000000 ) ) ;
#58 = CARTESIAN_POINT ( 'NONE',  ( -19.99999999999999300, 40.00000000000000700, 4.000000000000000000 ) ) ;
#59 = CARTESIAN_POINT ( 'NONE',  ( 20.00000000000000700, -36.99999999999999300, 4.000000000000000000 ) ) ;
#60 = CARTESIAN_POINT ( 'NONE',  ( 20.00000000000000700, 37.00000000000000700, 4.000000000000000000 ) ) ;
#61 = CARTESIAN_POINT ( 'NONE',  ( 4.599999999999999600, -20.00000000000000000, 0.0000000000000000000 ) ) ;
#62 = DIRECTION ( 'NONE',  ( 0.0000000000000000000, 1.000000000000000000, 0.0000000000000000000 ) ) ;
#63 = PLANE ( 'NONE',  #501 ) ;
#64 = CARTESIAN_POINT ( 'NONE',  ( 17.00000000000001100, -39.99999999999999300, 4.000000000000000000 ) ) ;
#65 = CARTESIAN_POINT ( 'NONE',  ( -16.99999999999999300, 40.00000000000000700, 4.000000000000000000 ) ) ;
#66 = CARTESIAN_POINT ( 'NONE',  ( 17.00000000000001100, -39.99999999999999300, 0.0000000000000000000 ) ) ;
#67 = CARTESIAN_POINT ( 'NONE',  ( 20.00000000000000700, 37.00000000000000700, 0.0000000000000000000 ) ) ;
#68 = CARTESIAN_POINT ( 'NONE',  ( 4.599999999999999600, 20.00000000000000000, 0.0000000000000000000 ) ) ;
#69 = CARTESIAN_POINT ( 'NONE',  ( -16.99999999999999300, -39.99999999999999300, 4.000000000000000000 ) ) ;
#70 = CARTESIAN_POINT ( 'NONE',  ( -16.99999999999999300, -39.99999999999999300, 0.0000000000000000000 ) ) ;
#71 = CARTESIAN_POINT ( 'NONE',  ( 17.00000000000001100, 40.00000000000000700, 0.0000000000000000000 ) ) ;
#72 = CARTESIAN_POINT ( 'NONE',  ( -4.599999999999999600, 20.00000000000000000, 0.0000000000000000000 ) ) ;
#73 = DIRECTION ( 'NONE',  ( 0.0000000000000000000, 0.0000000000000000000, -1.000000000000000000 ) ) ;
#74 = CARTESIAN_POINT ( 'NONE',  ( 8.600000000000010300, 20.00000000000000000, 4.000000000000000000 ) ) ;
#75 = CARTESIAN_POINT ( 'NONE',  ( -19.99999999999999300, -39.99999999999999300, 4.000000000000000000 ) ) ;
#76 = CARTESIAN_POINT ( 'NONE',  ( -19.99999999999999300, -36.99999999999999300, 0.0000000000000000000 ) ) ;
#77 = CARTESIAN_POINT ( 'NONE',  ( -8.600000000000010300, -20.00000000000000000, 4.000000000000000000 ) ) ;
#78 = DIRECTION ( 'NONE',  ( 0.0000000000000000000, -1.000000000000000000, 0.0000000000000000000 ) ) ;
#79 = DIRECTION ( 'NONE',  ( -1.000000000000000000, 0.0000000000000000000, 0.0000000000000000000 ) ) ;
#80 = DIRECTION ( 'NONE',  ( -0.0000000000000000000, -0.0000000000000000000, 1.000000000000000000 ) ) ;
#81 = DIRECTION ( 'NONE',  ( 0.0000000000000000000, 0.0000000000000000000, 1.000000000000000000 ) ) ;
#82 = DIRECTION ( 'NONE',  ( 0.0000000000000000000, 0.0000000000000000000, -1.000000000000000000 ) ) ;
#83 = CARTESIAN_POINT ( 'NONE',  ( 17.00000000000001100, 37.00000000000000700, 0.0000000000000000000 ) ) ;
#84 = DIRECTION ( 'NONE',  ( -1.000000000000000000, 0.0000000000000000000, 0.0000000000000000000 ) ) ;
#85 = CARTESIAN_POINT ( 'NONE',  ( -4.599999999999999600, 20.00000000000000000, 1.734723475976807100E-015 ) ) ;
#86 = CARTESIAN_POINT ( 'NONE',  ( 17.00000000000001100, 40.00000000000000700, 4.000000000000000000 ) ) ;
#87 = CARTESIAN_POINT ( 'NONE',  ( 0.0000000000000000000, -20.00000000000000000, 4.000000000000000000 ) ) ;
#88 = DIRECTION ( 'NONE',  ( 0.0000000000000000000, 0.0000000000000000000, -1.000000000000000000 ) ) ;
#89 = CARTESIAN_POINT ( 'NONE',  ( 17.00000000000001100, -39.99999999999999300, 4.000000000000000000 ) ) ;
#90 = DIRECTION ( 'NONE',  ( 1.000000000000000000, 0.0000000000000000000, 0.0000000000000000000 ) ) ;
#91 = DIRECTION ( 'NONE',  ( 0.7071067811865486800, 0.0000000000000000000, 0.7071067811865464600 ) ) ;
#92 = CARTESIAN_POINT ( 'NONE',  ( 17.00000000000000700, -36.99999999999999300, 0.0000000000000000000 ) ) ;
#93 = DIRECTION ( 'NONE',  ( 0.0000000000000000000, 0.0000000000000000000, 1.000000000000000000 ) ) ;
#94 = DIRECTION ( 'NONE',  ( 0.0000000000000000000, 0.0000000000000000000, -1.000000000000000000 ) ) ;
#95 = DIRECTION ( 'NONE',  ( -0.7071067811865486800, 8.659560562354948900E-017, 0.7071067811865464600 ) ) ;
#96 = DIRECTION ( 'NONE',  ( 0.0000000000000000000, 0.0000000000000000000, -1.000000000000000000 ) ) ;
#97 = CARTESIAN_POINT ( 'NONE',  ( 4.599999999999999600, 20.00000000000000000, 1.734723475976807100E-015 ) ) ;
#98 = DIRECTION ( 'NONE',  ( -1.000000000000000000, 0.0000000000000000000, 0.0000000000000000000 ) ) ;
#99 = DIRECTION ( 'NONE',  ( 1.000000000000000000, 0.0000000000000000000, 0.0000000000000000000 ) ) ;
#100 = CARTESIAN_POINT ( 'NONE',  ( -19.99999999999999300, 40.00000000000000700, 0.0000000000000000000 ) ) ;
#101 = DIRECTION ( 'NONE',  ( -0.0000000000000000000, -0.0000000000000000000, 1.000000000000000000 ) ) ;
#102 = CARTESIAN_POINT ( 'NONE',  ( -16.99999999999999300, 40.00000000000000700, 4.000000000000000000 ) ) ;
#103 = CARTESIAN_POINT ( 'NONE',  ( 0.0000000000000000000, 20.00000000000000000, 0.0000000000000000000 ) ) ;
#104 = CARTESIAN_POINT ( 'NONE',  ( -19.99999999999999300, -39.99999999999999300, 4.000000000000000000 ) ) ;
#105 = DIRECTION ( 'NONE',  ( -1.000000000000000000, -0.0000000000000000000, -0.0000000000000000000 ) ) ;
#106 = DIRECTION ( 'NONE',  ( -0.7071067811865486800, 8.659560562354948900E-017, 0.7071067811865464600 ) ) ;
#107 = DIRECTION ( 'NONE',  ( 0.0000000000000000000, 0.0000000000000000000, -1.000000000000000000 ) ) ;
#108 = CARTESIAN_POINT ( 'NONE',  ( -4.599999999999999600, -20.00000000000000000, 1.734723475976807100E-015 ) ) ;
#109 = DIRECTION ( 'NONE',  ( -1.000000000000000000, 0.0000000000000000000, 0.0000000000000000000 ) ) ;
#110 = CARTESIAN_POINT ( 'NONE',  ( 0.0000000000000000000, -20.00000000000000000, 0.0000000000000000000 ) ) ;
#111 = CARTESIAN_POINT ( 'NONE',  ( 0.0000000000000000000, 20.00000000000000000, 4.000000000000000000 ) ) ;
#112 = DIRECTION ( 'NONE',  ( 1.000000000000000000, 0.0000000000000000000, 0.0000000000000000000 ) ) ;
#113 = CARTESIAN_POINT ( 'NONE',  ( 20.00000000000000700, 37.00000000000000700, 4.000000000000000000 ) ) ;
#114 = DIRECTION ( 'NONE',  ( 1.000000000000000000, 0.0000000000000000000, 0.0000000000000000000 ) ) ;
#115 = DIRECTION ( 'NONE',  ( 0.0000000000000000000, 0.0000000000000000000, -1.000000000000000000 ) ) ;
#116 = DIRECTION ( 'NONE',  ( 0.0000000000000000000, 1.000000000000000000, 0.0000000000000000000 ) ) ;
#117 = CARTESIAN_POINT ( 'NONE',  ( 0.0000000000000000000, 20.00000000000000000, 4.000000000000000000 ) ) ;
#118 = CARTESIAN_POINT ( 'NONE',  ( 20.00000000000000700, -39.99999999999999300, 0.0000000000000000000 ) ) ;
#119 = DIRECTION ( 'NONE',  ( -0.0000000000000000000, -0.0000000000000000000, 1.000000000000000000 ) ) ;
#120 = DIRECTION ( 'NONE',  ( -1.000000000000000000, 0.0000000000000000000, 0.0000000000000000000 ) ) ;
#121 = CARTESIAN_POINT ( 'NONE',  ( 0.0000000000000000000, -20.00000000000000000, 4.000000000000000000 ) ) ;
#122 = CARTESIAN_POINT ( 'NONE',  ( -19.99999999999999300, 40.00000000000000700, 4.000000000000000000 ) ) ;
#123 = CARTESIAN_POINT ( 'NONE',  ( -16.99999999999999300, 37.00000000000000700, 0.0000000000000000000 ) ) ;
#124 = DIRECTION ( 'NONE',  ( -0.0000000000000000000, -1.000000000000000000, -0.0000000000000000000 ) ) ;
#125 = DIRECTION ( 'NONE',  ( -0.0000000000000000000, -0.0000000000000000000, 1.000000000000000000 ) ) ;
#126 = CARTESIAN_POINT ( 'NONE',  ( -16.99999999999999300, -39.99999999999999300, 4.000000000000000000 ) ) ;
#127 = DIRECTION ( 'NONE',  ( -1.000000000000000000, 0.0000000000000000000, 0.0000000000000000000 ) ) ;
#128 = DIRECTION ( 'NONE',  ( -0.0000000000000000000, -1.000000000000000000, -0.0000000000000000000 ) ) ;
#129 = DIRECTION ( 'NONE',  ( -1.000000000000000000, 0.0000000000000000000, 0.0000000000000000000 ) ) ;
#130 = DIRECTION ( 'NONE',  ( 0.0000000000000000000, 0.0000000000000000000, -1.000000000000000000 ) ) ;
#131 = CARTESIAN_POINT ( 'NONE',  ( -16.99999999999999300, 37.00000000000000700, 4.000000000000000000 ) ) ;
#132 = DIRECTION ( 'NONE',  ( -1.000000000000000000, 0.0000000000000000000, 0.0000000000000000000 ) ) ;
#133 = CARTESIAN_POINT ( 'NONE',  ( 20.00000000000000700, -39.99999999999999300, 4.000000000000000000 ) ) ;
#134 = DIRECTION ( 'NONE',  ( -0.0000000000000000000, -0.0000000000000000000, 1.000000000000000000 ) ) ;
#135 = DIRECTION ( 'NONE',  ( 0.7071067811865486800, 0.0000000000000000000, 0.7071067811865464600 ) ) ;
#136 = CARTESIAN_POINT ( 'NONE',  ( -19.99999999999999300, -39.99999999999999300, 0.0000000000000000000 ) ) ;
#137 = DIRECTION ( 'NONE',  ( -1.000000000000000000, 0.0000000000000000000, 0.0000000000000000000 ) ) ;
#138 = DIRECTION ( 'NONE',  ( 0.0000000000000000000, 0.0000000000000000000, -1.000000000000000000 ) ) ;
#139 = DIRECTION ( 'NONE',  ( -1.000000000000000000, -0.0000000000000000000, -0.0000000000000000000 ) ) ;
#140 = DIRECTION ( 'NONE',  ( 0.0000000000000000000, 0.0000000000000000000, -1.000000000000000000 ) ) ;
#141 = CARTESIAN_POINT ( 'NONE',  ( -19.99999999999999300, -39.99999999999999300, 4.000000000000000000 ) ) ;
#142 = CARTESIAN_POINT ( 'NONE',  ( -19.99999999999999300, -36.99999999999999300, 4.000000000000000000 ) ) ;
#143 = CARTESIAN_POINT ( 'NONE',  ( 4.599999999999999600, -20.00000000000000000, 1.734723475976807100E-015 ) ) ;
#144 = DIRECTION ( 'NONE',  ( 0.0000000000000000000, 1.000000000000000000, 0.0000000000000000000 ) ) ;
#145 = CARTESIAN_POINT ( 'NONE',  ( -16.99999999999999300, -36.99999999999999300, 4.000000000000000000 ) ) ;
#146 = DIRECTION ( 'NONE',  ( -0.0000000000000000000, -0.0000000000000000000, 1.000000000000000000 ) ) ;
#147 = CARTESIAN_POINT ( 'NONE',  ( -19.99999999999999300, -39.99999999999999300, 0.0000000000000000000 ) ) ;
#148 = DIRECTION ( 'NONE',  ( 1.000000000000000000, 0.0000000000000000000, 0.0000000000000000000 ) ) ;
#149 = PLANE ( 'NONE',  #463 ) ;
#150 = DIRECTION ( 'NONE',  ( 0.0000000000000000000, 0.0000000000000000000, -1.000000000000000000 ) ) ;
#151 = CARTESIAN_POINT ( 'NONE',  ( -19.99999999999999300, -39.99999999999999300, 4.000000000000000000 ) ) ;
#152 = DIRECTION ( 'NONE',  ( 0.0000000000000000000, 0.0000000000000000000, -1.000000000000000000 ) ) ;
#153 = DIRECTION ( 'NONE',  ( 0.0000000000000000000, 0.0000000000000000000, -1.000000000000000000 ) ) ;
#154 = DIRECTION ( 'NONE',  ( 0.0000000000000000000, 0.0000000000000000000, -1.000000000000000000 ) ) ;
#155 = CARTESIAN_POINT ( 'NONE',  ( 0.0000000000000000000, 0.0000000000000000000, 4.000000000000000000 ) ) ;
#156 = DIRECTION ( 'NONE',  ( 0.0000000000000000000, 0.0000000000000000000, -1.000000000000000000 ) ) ;
#157 = CARTESIAN_POINT ( 'NONE',  ( -16.99999999999999300, 37.00000000000000700, 4.000000000000000000 ) ) ;
#158 = DIRECTION ( 'NONE',  ( 0.0000000000000000000, 0.0000000000000000000, 1.000000000000000000 ) ) ;
#159 = CARTESIAN_POINT ( 'NONE',  ( 17.00000000000001100, 37.00000000000000700, 4.000000000000000000 ) ) ;
#160 = CARTESIAN_POINT ( 'NONE',  ( 0.0000000000000000000, 20.00000000000000000, 1.734723475976807100E-015 ) ) ;
#161 = CARTESIAN_POINT ( 'NONE',  ( 0.0000000000000000000, 0.0000000000000000000, 0.0000000000000000000 ) ) ;
#162 = CARTESIAN_POINT ( 'NONE',  ( 0.0000000000000000000, -20.00000000000000000, 1.734723475976807100E-015 ) ) ;
#163 = DIRECTION ( 'NONE',  ( -1.000000000000000000, 0.0000000000000000000, -0.0000000000000000000 ) ) ;
#164 = DIRECTION ( 'NONE',  ( -1.000000000000000000, 0.0000000000000000000, 0.0000000000000000000 ) ) ;
#165 = DIRECTION ( 'NONE',  ( -1.000000000000000000, 0.0000000000000000000, 0.0000000000000000000 ) ) ;
#166 = DIRECTION ( 'NONE',  ( 0.0000000000000000000, 0.0000000000000000000, 1.000000000000000000 ) ) ;
#167 = DIRECTION ( 'NONE',  ( 1.000000000000000000, 0.0000000000000000000, 0.0000000000000000000 ) ) ;
#168 = CARTESIAN_POINT ( 'NONE',  ( 17.00000000000001100, 37.00000000000000700, 4.000000000000000000 ) ) ;
#169 = DIRECTION ( 'NONE',  ( 0.0000000000000000000, 0.0000000000000000000, 1.000000000000000000 ) ) ;
#170 = DIRECTION ( 'NONE',  ( 1.000000000000000000, 0.0000000000000000000, 0.0000000000000000000 ) ) ;
#171 = PLANE ( 'NONE',  #450 ) ;
#172 = PLANE ( 'NONE',  #465 ) ;
#173 = DIRECTION ( 'NONE',  ( -1.000000000000000000, 0.0000000000000000000, -0.0000000000000000000 ) ) ;
#174 = DIRECTION ( 'NONE',  ( -1.000000000000000000, 0.0000000000000000000, 0.0000000000000000000 ) ) ;
#175 = CARTESIAN_POINT ( 'NONE',  ( 20.00000000000000700, -39.99999999999999300, 4.000000000000000000 ) ) ;
#176 = PLANE ( 'NONE',  #467 ) ;
#177 = DIRECTION ( 'NONE',  ( 0.0000000000000000000, 0.0000000000000000000, -1.000000000000000000 ) ) ;
#178 = DIRECTION ( 'NONE',  ( -1.000000000000000000, 0.0000000000000000000, 0.0000000000000000000 ) ) ;
#179 = CARTESIAN_POINT ( 'NONE',  ( -16.99999999999999300, -36.99999999999999300, 4.000000000000000000 ) ) ;
#180 = CARTESIAN_POINT ( 'NONE',  ( 0.0000000000000000000, -20.00000000000000000, 1.734723475976807100E-015 ) ) ;
#181 = CARTESIAN_POINT ( 'NONE',  ( 0.0000000000000000000, 20.00000000000000000, 1.734723475976807100E-015 ) ) ;
#182 = DIRECTION ( 'NONE',  ( 1.000000000000000000, 0.0000000000000000000, 0.0000000000000000000 ) ) ;
#183 = DIRECTION ( 'NONE',  ( -0.0000000000000000000, -0.0000000000000000000, 1.000000000000000000 ) ) ;
#184 = DIRECTION ( 'NONE',  ( -1.000000000000000000, 0.0000000000000000000, 0.0000000000000000000 ) ) ;
#185 = DIRECTION ( 'NONE',  ( 0.0000000000000000000, 0.0000000000000000000, 1.000000000000000000 ) ) ;
#186 = DIRECTION ( 'NONE',  ( 1.000000000000000000, 0.0000000000000000000, 0.0000000000000000000 ) ) ;
#187 = DIRECTION ( 'NONE',  ( 0.0000000000000000000, 0.0000000000000000000, 1.000000000000000000 ) ) ;
#188 = MANIFOLD_SOLID_BREP ( 'Fillet1', #263 ) ;
#189 = UNCERTAINTY_MEASURE_WITH_UNIT (LENGTH_MEASURE( 1.000000000000000100E-005 ), #33, 'distance_accuracy_value', 'NONE');
#190 = ADVANCED_BREP_SHAPE_REPRESENTATION ( 'ALP2013', ( #188, #516 ), #489 ) ;
#191 = ADVANCED_FACE ( 'NONE', ( #213 ), #149, .F. ) ;
#192 = ADVANCED_FACE ( 'NONE', ( #209 ), #303, .T. ) ;
#193 = ADVANCED_FACE ( 'NONE', ( #318 ), #305, .F. ) ;
#194 = ADVANCED_FACE ( 'NONE', ( #306 ), #319, .T. ) ;
#195 = ADVANCED_FACE ( 'NONE', ( #312 ), #171, .F. ) ;
#196 = ADVANCED_FACE ( 'NONE', ( #321, #323, #292 ), #172, .F. ) ;
#197 = ADVANCED_FACE ( 'NONE', ( #304, #311, #322 ), #176, .T. ) ;
#198 = ADVANCED_FACE ( 'NONE', ( #297 ), #301, .T. ) ;
#199 = ADVANCED_FACE ( 'NONE', ( #348 ), #352, .F. ) ;
#200 = ADVANCED_FACE ( 'NONE', ( #298 ), #347, .F. ) ;
#201 = ADVANCED_FACE ( 'NONE', ( #359 ), #388, .F. ) ;
#202 = ADVANCED_FACE ( 'NONE', ( #350 ), #48, .F. ) ;
#203 = ADVANCED_FACE ( 'NONE', ( #369 ), #63, .F. ) ;
#204 = ADVANCED_FACE ( 'NONE', ( #349 ), #386, .T. ) ;
#205 = PRODUCT_DEFINITION_SHAPE ( 'NONE', 'NONE',  #517 ) ;
#206 = DESIGN_CONTEXT ( 'detailed design', #10, 'design' ) ;
#207 = VERTEX_POINT ( 'NONE', #44 ) ;
#208 = VERTEX_POINT ( 'NONE', #77 ) ;
#209 = FACE_OUTER_BOUND ( 'NONE', #214, .T. ) ;
#210 = VERTEX_POINT ( 'NONE', #69 ) ;
#211 = VERTEX_POINT ( 'NONE', #74 ) ;
#212 = VERTEX_POINT ( 'NONE', #52 ) ;
#213 = FACE_OUTER_BOUND ( 'NONE', #268, .T. ) ;
#214 = EDGE_LOOP ( 'NONE', ( #249, #275, #260, #254 ) ) ;
#215 = VERTEX_POINT ( 'NONE', #45 ) ;
#216 = VERTEX_POINT ( 'NONE', #64 ) ;
#217 = EDGE_LOOP ( 'NONE', ( #286, #315 ) ) ;
#218 = VERTEX_POINT ( 'NONE', #47 ) ;
#219 = VERTEX_POINT ( 'NONE', #65 ) ;
#220 = VERTEX_POINT ( 'NONE', #53 ) ;
#221 = VERTEX_POINT ( 'NONE', #54 ) ;
#222 = VERTEX_POINT ( 'NONE', #55 ) ;
#223 = EDGE_LOOP ( 'NONE', ( #328, #258, #289, #255 ) ) ;
#224 = VERTEX_POINT ( 'NONE', #66 ) ;
#225 = VERTEX_POINT ( 'NONE', #67 ) ;
#226 = EDGE_LOOP ( 'NONE', ( #310, #335, #296, #265 ) ) ;
#227 = VERTEX_POINT ( 'NONE', #56 ) ;
#228 = VERTEX_POINT ( 'NONE', #57 ) ;
#229 = VERTEX_POINT ( 'NONE', #59 ) ;
#230 = EDGE_LOOP ( 'NONE', ( #337, #295 ) ) ;
#231 = VERTEX_POINT ( 'NONE', #71 ) ;
#232 = VERTEX_POINT ( 'NONE', #60 ) ;
#233 = VERTEX_POINT ( 'NONE', #68 ) ;
#234 = EDGE_LOOP ( 'NONE', ( #293, #314, #252, #253 ) ) ;
#235 = VERTEX_POINT ( 'NONE', #72 ) ;
#236 = EDGE_LOOP ( 'NONE', ( #316, #334 ) ) ;
#237 = EDGE_LOOP ( 'NONE', ( #327, #313, #331, #325 ) ) ;
#238 = VERTEX_POINT ( 'NONE', #70 ) ;
#239 = EDGE_LOOP ( 'NONE', ( #261, #248, #271, #277 ) ) ;
#240 = EDGE_LOOP ( 'NONE', ( #274, #282, #256, #262 ) ) ;
#241 = EDGE_LOOP ( 'NONE', ( #291, #338, #290, #317, #302, #330, #333, #336 ) ) ;
#242 = EDGE_LOOP ( 'NONE', ( #267, #284, #266, #251 ) ) ;
#243 = VERTEX_POINT ( 'NONE', #61 ) ;
#244 = VERTEX_POINT ( 'NONE', #76 ) ;
#245 = EDGE_LOOP ( 'NONE', ( #308, #320, #332, #300, #287, #324, #326, #309 ) ) ;
#246 = ORIENTED_EDGE ( 'NONE', *, *, #442, .T. ) ;
#247 = ORIENTED_EDGE ( 'NONE', *, *, #461, .T. ) ;
#248 = ORIENTED_EDGE ( 'NONE', *, *, #448, .F. ) ;
#249 = ORIENTED_EDGE ( 'NONE', *, *, #478, .F. ) ;
#250 = ORIENTED_EDGE ( 'NONE', *, *, #453, .F. ) ;
#251 = ORIENTED_EDGE ( 'NONE', *, *, #440, .F. ) ;
#252 = ORIENTED_EDGE ( 'NONE', *, *, #476, .F. ) ;
#253 = ORIENTED_EDGE ( 'NONE', *, *, #457, .T. ) ;
#254 = ORIENTED_EDGE ( 'NONE', *, *, #457, .F. ) ;
#255 = ORIENTED_EDGE ( 'NONE', *, *, #480, .T. ) ;
#256 = ORIENTED_EDGE ( 'NONE', *, *, #477, .F. ) ;
#257 = ORIENTED_EDGE ( 'NONE', *, *, #473, .F. ) ;
#258 = ORIENTED_EDGE ( 'NONE', *, *, #464, .T. ) ;
#259 = ORIENTED_EDGE ( 'NONE', *, *, #475, .T. ) ;
#260 = ORIENTED_EDGE ( 'NONE', *, *, #445, .F. ) ;
#261 = ORIENTED_EDGE ( 'NONE', *, *, #485, .F. ) ;
#262 = ORIENTED_EDGE ( 'NONE', *, *, #486, .F. ) ;
#263 = CLOSED_SHELL ( 'NONE', ( #201, #199, #195, #203, #191, #202, #196, #197, #200, #193, #194, #192, #204, #198 ) ) ;
#264 = EDGE_LOOP ( 'NONE', ( #299, #294 ) ) ;
#265 = ORIENTED_EDGE ( 'NONE', *, *, #456, .F. ) ;
#266 = ORIENTED_EDGE ( 'NONE', *, *, #443, .T. ) ;
#267 = ORIENTED_EDGE ( 'NONE', *, *, #455, .F. ) ;
#268 = EDGE_LOOP ( 'NONE', ( #329, #307, #259, #247 ) ) ;
#269 = ORIENTED_EDGE ( 'NONE', *, *, #461, .F. ) ;
#270 = EDGE_LOOP ( 'NONE', ( #280, #278, #281, #285 ) ) ;
#271 = ORIENTED_EDGE ( 'NONE', *, *, #444, .F. ) ;
#272 = EDGE_LOOP ( 'NONE', ( #279, #246, #250, #283 ) ) ;
#273 = ORIENTED_EDGE ( 'NONE', *, *, #481, .F. ) ;
#274 = ORIENTED_EDGE ( 'NONE', *, *, #460, .F. ) ;
#275 = ORIENTED_EDGE ( 'NONE', *, *, #464, .F. ) ;
#276 = EDGE_LOOP ( 'NONE', ( #257, #269, #273, #288 ) ) ;
#277 = ORIENTED_EDGE ( 'NONE', *, *, #480, .F. ) ;
#278 = ORIENTED_EDGE ( 'NONE', *, *, #455, .T. ) ;
#279 = ORIENTED_EDGE ( 'NONE', *, *, #479, .F. ) ;
#280 = ORIENTED_EDGE ( 'NONE', *, *, #441, .F. ) ;
#281 = ORIENTED_EDGE ( 'NONE', *, *, #470, .F. ) ;
#282 = ORIENTED_EDGE ( 'NONE', *, *, #454, .F. ) ;
#283 = ORIENTED_EDGE ( 'NONE', *, *, #462, .F. ) ;
#284 = ORIENTED_EDGE ( 'NONE', *, *, #487, .F. ) ;
#285 = ORIENTED_EDGE ( 'NONE', *, *, #443, .F. ) ;
#286 = ORIENTED_EDGE ( 'NONE', *, *, #487, .T. ) ;
#287 = ORIENTED_EDGE ( 'NONE', *, *, #447, .T. ) ;
#288 = ORIENTED_EDGE ( 'NONE', *, *, #459, .F. ) ;
#289 = ORIENTED_EDGE ( 'NONE', *, *, #458, .F. ) ;
#290 = ORIENTED_EDGE ( 'NONE', *, *, #449, .F. ) ;
#291 = ORIENTED_EDGE ( 'NONE', *, *, #475, .F. ) ;
#292 = FACE_OUTER_BOUND ( 'NONE', #245, .T. ) ;
#293 = ORIENTED_EDGE ( 'NONE', *, *, #449, .T. ) ;
#294 = ORIENTED_EDGE ( 'NONE', *, *, #456, .T. ) ;
#295 = ORIENTED_EDGE ( 'NONE', *, *, #440, .T. ) ;
#296 = ORIENTED_EDGE ( 'NONE', *, *, #462, .T. ) ;
#297 = FACE_OUTER_BOUND ( 'NONE', #276, .T. ) ;
#298 = FACE_OUTER_BOUND ( 'NONE', #226, .T. ) ;
#299 = ORIENTED_EDGE ( 'NONE', *, *, #453, .T. ) ;
#300 = ORIENTED_EDGE ( 'NONE', *, *, #473, .T. ) ;
#301 = CYLINDRICAL_SURFACE ( 'NONE', #469, 2.999999999999999100 ) ;
#302 = ORIENTED_EDGE ( 'NONE', *, *, #474, .F. ) ;
#303 = CYLINDRICAL_SURFACE ( 'NONE', #482, 2.999999999999999100 ) ;
#304 = FACE_BOUND ( 'NONE', #236, .T. ) ;
#305 = CONICAL_SURFACE ( 'NONE', #451, 4.599999999999999600, 0.7853981633974498300 ) ;
#306 = FACE_OUTER_BOUND ( 'NONE', #240, .T. ) ;
#307 = ORIENTED_EDGE ( 'NONE', *, *, #486, .T. ) ;
#308 = ORIENTED_EDGE ( 'NONE', *, *, #476, .T. ) ;
#309 = ORIENTED_EDGE ( 'NONE', *, *, #478, .T. ) ;
#310 = ORIENTED_EDGE ( 'NONE', *, *, #442, .F. ) ;
#311 = FACE_BOUND ( 'NONE', #217, .T. ) ;
#312 = FACE_OUTER_BOUND ( 'NONE', #223, .T. ) ;
#313 = ORIENTED_EDGE ( 'NONE', *, *, #448, .T. ) ;
#314 = ORIENTED_EDGE ( 'NONE', *, *, #454, .T. ) ;
#315 = ORIENTED_EDGE ( 'NONE', *, *, #441, .T. ) ;
#316 = ORIENTED_EDGE ( 'NONE', *, *, #446, .T. ) ;
#317 = ORIENTED_EDGE ( 'NONE', *, *, #445, .T. ) ;
#318 = FACE_OUTER_BOUND ( 'NONE', #242, .T. ) ;
#319 = CYLINDRICAL_SURFACE ( 'NONE', #452, 2.999999999999999100 ) ;
#320 = ORIENTED_EDGE ( 'NONE', *, *, #460, .T. ) ;
#321 = FACE_BOUND ( 'NONE', #264, .T. ) ;
#322 = FACE_OUTER_BOUND ( 'NONE', #241, .T. ) ;
#323 = FACE_BOUND ( 'NONE', #230, .T. ) ;
#324 = ORIENTED_EDGE ( 'NONE', *, *, #485, .T. ) ;
#325 = ORIENTED_EDGE ( 'NONE', *, *, #459, .T. ) ;
#326 = ORIENTED_EDGE ( 'NONE', *, *, #458, .T. ) ;
#327 = ORIENTED_EDGE ( 'NONE', *, *, #472, .T. ) ;
#328 = ORIENTED_EDGE ( 'NONE', *, *, #474, .T. ) ;
#329 = ORIENTED_EDGE ( 'NONE', *, *, #468, .F. ) ;
#330 = ORIENTED_EDGE ( 'NONE', *, *, #444, .T. ) ;
#331 = ORIENTED_EDGE ( 'NONE', *, *, #447, .F. ) ;
#332 = ORIENTED_EDGE ( 'NONE', *, *, #468, .T. ) ;
#333 = ORIENTED_EDGE ( 'NONE', *, *, #472, .F. ) ;
#334 = ORIENTED_EDGE ( 'NONE', *, *, #479, .T. ) ;
#335 = ORIENTED_EDGE ( 'NONE', *, *, #446, .F. ) ;
#336 = ORIENTED_EDGE ( 'NONE', *, *, #481, .T. ) ;
#337 = ORIENTED_EDGE ( 'NONE', *, *, #470, .T. ) ;
#338 = ORIENTED_EDGE ( 'NONE', *, *, #477, .T. ) ;
#339 = CIRCLE ( 'NONE', #499, 2.999999999999999100 ) ;
#340 = CIRCLE ( 'NONE', #509, 4.599999999999999600 ) ;
#341 = LINE ( 'NONE', #108, #345 ) ;
#342 = CIRCLE ( 'NONE', #513, 8.600000000000010300 ) ;
#343 = CIRCLE ( 'NONE', #493, 8.600000000000010300 ) ;
#344 = VECTOR ( 'NONE', #94, 1000.000000000000000 ) ;
#345 = VECTOR ( 'NONE', #95, 1000.000000000000000 ) ;
#346 = LINE ( 'NONE', #143, #373 ) ;
#347 = CONICAL_SURFACE ( 'NONE', #471, 4.599999999999999600, 0.7853981633974498300 ) ;
#348 = FACE_OUTER_BOUND ( 'NONE', #272, .T. ) ;
#349 = FACE_OUTER_BOUND ( 'NONE', #239, .T. ) ;
#350 = FACE_OUTER_BOUND ( 'NONE', #237, .T. ) ;
#351 = LINE ( 'NONE', #133, #354 ) ;
#352 = CONICAL_SURFACE ( 'NONE', #483, 4.599999999999999600, 0.7853981633974498300 ) ;
#353 = LINE ( 'NONE', #104, #371 ) ;
#354 = VECTOR ( 'NONE', #116, 1000.000000000000000 ) ;
#355 = VECTOR ( 'NONE', #105, 1000.000000000000000 ) ;
#356 = LINE ( 'NONE', #100, #355 ) ;
#357 = VECTOR ( 'NONE', #134, 1000.000000000000000 ) ;
#358 = VECTOR ( 'NONE', #138, 1000.000000000000000 ) ;
#359 = FACE_OUTER_BOUND ( 'NONE', #270, .T. ) ;
#360 = LINE ( 'NONE', #89, #383 ) ;
#361 = CIRCLE ( 'NONE', #511, 2.999999999999999100 ) ;
#362 = LINE ( 'NONE', #85, #374 ) ;
#363 = LINE ( 'NONE', #126, #358 ) ;
#364 = CIRCLE ( 'NONE', #519, 2.999999999999999100 ) ;
#365 = LINE ( 'NONE', #97, #366 ) ;
#366 = VECTOR ( 'NONE', #91, 1000.000000000000000 ) ;
#367 = CIRCLE ( 'NONE', #494, 4.599999999999999600 ) ;
#368 = CIRCLE ( 'NONE', #512, 4.599999999999999600 ) ;
#369 = FACE_OUTER_BOUND ( 'NONE', #234, .T. ) ;
#370 = LINE ( 'NONE', #136, #385 ) ;
#371 = VECTOR ( 'NONE', #99, 1000.000000000000000 ) ;
#372 = CIRCLE ( 'NONE', #514, 8.600000000000010300 ) ;
#373 = VECTOR ( 'NONE', #135, 1000.000000000000000 ) ;
#374 = VECTOR ( 'NONE', #106, 1000.000000000000000 ) ;
#375 = LINE ( 'NONE', #141, #380 ) ;
#376 = LINE ( 'NONE', #86, #344 ) ;
#377 = CIRCLE ( 'NONE', #502, 2.999999999999999100 ) ;
#378 = VECTOR ( 'NONE', #80, 1000.000000000000000 ) ;
#379 = LINE ( 'NONE', #113, #392 ) ;
#380 = VECTOR ( 'NONE', #124, 1000.000000000000000 ) ;
#381 = LINE ( 'NONE', #142, #357 ) ;
#382 = LINE ( 'NONE', #102, #378 ) ;
#383 = VECTOR ( 'NONE', #101, 1000.000000000000000 ) ;
#384 = LINE ( 'NONE', #147, #393 ) ;
#385 = VECTOR ( 'NONE', #114, 1000.000000000000000 ) ;
#386 = CYLINDRICAL_SURFACE ( 'NONE', #491, 2.999999999999999100 ) ;
#387 = CIRCLE ( 'NONE', #490, 2.999999999999999100 ) ;
#388 = CONICAL_SURFACE ( 'NONE', #466, 4.599999999999999600, 0.7853981633974498300 ) ;
#389 = LINE ( 'NONE', #118, #391 ) ;
#390 = CIRCLE ( 'NONE', #500, 8.600000000000010300 ) ;
#391 = VECTOR ( 'NONE', #144, 1000.000000000000000 ) ;
#392 = VECTOR ( 'NONE', #119, 1000.000000000000000 ) ;
#393 = VECTOR ( 'NONE', #128, 1000.000000000000000 ) ;
#394 = LINE ( 'NONE', #122, #395 ) ;
#395 = VECTOR ( 'NONE', #139, 1000.000000000000000 ) ;
#396 = CIRCLE ( 'NONE', #495, 2.999999999999999100 ) ;
#397 = DATE_AND_TIME ( #407, #406 ) ;
#398 = PERSON_AND_ORGANIZATION ( #1, #432 ) ;
#399 = PERSON_AND_ORGANIZATION ( #1, #432 ) ;
#400 = COORDINATED_UNIVERSAL_TIME_OFFSET ( 1, 0, .AHEAD. ) ;
#401 = DATE_AND_TIME ( #420, #419 ) ;
#402 = LOCAL_TIME ( 18, 51, 43.00000000000000000, #400 ) ;
#403 = DATE_AND_TIME ( #426, #402 ) ;
#404 = CIRCLE ( 'NONE', #515, 2.999999999999999100 ) ;
#405 = APPROVAL_PERSON_ORGANIZATION ( #438, #506, #30 ) ;
#406 = LOCAL_TIME ( 18, 51, 43.00000000000000000, #435 ) ;
#407 = CALENDAR_DATE ( 2017, 17, 2 ) ;
#408 = PERSON_AND_ORGANIZATION ( #1, #432 ) ;
#409 = CALENDAR_DATE ( 2017, 17, 2 ) ;
#410 = VECTOR ( 'NONE', #27, 1000.000000000000000 ) ;
#411 = PERSON_AND_ORGANIZATION ( #1, #432 ) ;
#412 = CIRCLE ( 'NONE', #492, 4.599999999999999600 ) ;
#413 = PERSON_AND_ORGANIZATION ( #1, #432 ) ;
#414 = LINE ( 'NONE', #13, #410 ) ;
#415 = CALENDAR_DATE ( 2017, 17, 2 ) ;
#416 = PERSON_AND_ORGANIZATION ( #1, #432 ) ;
#417 = COORDINATED_UNIVERSAL_TIME_OFFSET ( 1, 0, .AHEAD. ) ;
#418 = LINE ( 'NONE', #39, #433 ) ;
#419 = LOCAL_TIME ( 18, 51, 43.00000000000000000, #417 ) ;
#420 = CALENDAR_DATE ( 2017, 17, 2 ) ;
#421 = APPROVAL_PERSON_ORGANIZATION ( #411, #523, #14 ) ;
#422 = APPROVAL_PERSON_ORGANIZATION ( #398, #518, #24 ) ;
#423 = COORDINATED_UNIVERSAL_TIME_OFFSET ( 1, 0, .AHEAD. ) ;
#424 = COORDINATED_UNIVERSAL_TIME_OFFSET ( 1, 0, .AHEAD. ) ;
#425 = APPROVAL_DATE_TIME ( #397, #506 ) ;
#426 = CALENDAR_DATE ( 2017, 17, 2 ) ;
#427 = CIRCLE ( 'NONE', #496, 2.999999999999999100 ) ;
#428 = DATE_AND_TIME ( #415, #434 ) ;
#429 = APPROVAL_DATE_TIME ( #436, #518 ) ;
#430 = APPROVAL_DATE_TIME ( #403, #523 ) ;
#431 = SHAPE_DEFINITION_REPRESENTATION ( #205, #190 ) ;
#432 = ORGANIZATION ( 'UNSPECIFIED', 'UNSPECIFIED', '' ) ;
#433 = VECTOR ( 'NONE', #6, 1000.000000000000000 ) ;
#434 = LOCAL_TIME ( 18, 51, 43.00000000000000000, #424 ) ;
#435 = COORDINATED_UNIVERSAL_TIME_OFFSET ( 1, 0, .AHEAD. ) ;
#436 = DATE_AND_TIME ( #409, #439 ) ;
#437 = PERSON_AND_ORGANIZATION ( #1, #432 ) ;
#438 = PERSON_AND_ORGANIZATION ( #1, #432 ) ;
#439 = LOCAL_TIME ( 18, 51, 43.00000000000000000, #423 ) ;
#440 = EDGE_CURVE ( 'NONE', #212, #211, #343, .T. ) ;
#441 = EDGE_CURVE ( 'NONE', #235, #233, #367, .T. ) ;
#442 = EDGE_CURVE ( 'NONE', #207, #208, #341, .T. ) ;
#443 = EDGE_CURVE ( 'NONE', #233, #211, #365, .T. ) ;
#444 = EDGE_CURVE ( 'NONE', #227, #224, #361, .T. ) ;
#445 = EDGE_CURVE ( 'NONE', #231, #225, #364, .T. ) ;
#446 = EDGE_CURVE ( 'NONE', #243, #207, #368, .T. ) ;
#447 = EDGE_CURVE ( 'NONE', #210, #216, #353, .T. ) ;
#448 = EDGE_CURVE ( 'NONE', #224, #216, #360, .T. ) ;
#449 = EDGE_CURVE ( 'NONE', #231, #222, #356, .T. ) ;
#450 = AXIS2_PLACEMENT_3D ( 'NONE', #175, #178, #158 ) ;
#451 = AXIS2_PLACEMENT_3D ( 'NONE', #160, #169, #170 ) ;
#452 = AXIS2_PLACEMENT_3D ( 'NONE', #157, #154, #164 ) ;
#453 = EDGE_CURVE ( 'NONE', #220, #208, #390, .T. ) ;
#454 = EDGE_CURVE ( 'NONE', #222, #219, #382, .T. ) ;
#455 = EDGE_CURVE ( 'NONE', #235, #212, #362, .T. ) ;
#456 = EDGE_CURVE ( 'NONE', #208, #220, #342, .T. ) ;
#457 = EDGE_CURVE ( 'NONE', #228, #231, #376, .T. ) ;
#458 = EDGE_CURVE ( 'NONE', #229, #232, #351, .T. ) ;
#459 = EDGE_CURVE ( 'NONE', #210, #238, #363, .T. ) ;
#460 = EDGE_CURVE ( 'NONE', #219, #218, #377, .T. ) ;
#461 = EDGE_CURVE ( 'NONE', #244, #221, #381, .T. ) ;
#462 = EDGE_CURVE ( 'NONE', #243, #220, #346, .T. ) ;
#463 = AXIS2_PLACEMENT_3D ( 'NONE', #151, #148, #150 ) ;
#464 = EDGE_CURVE ( 'NONE', #225, #232, #379, .T. ) ;
#465 = AXIS2_PLACEMENT_3D ( 'NONE', #155, #156, #173 ) ;
#466 = AXIS2_PLACEMENT_3D ( 'NONE', #181, #187, #182 ) ;
#467 = AXIS2_PLACEMENT_3D ( 'NONE', #161, #177, #163 ) ;
#468 = EDGE_CURVE ( 'NONE', #218, #221, #375, .T. ) ;
#469 = AXIS2_PLACEMENT_3D ( 'NONE', #179, #152, #165 ) ;
#470 = EDGE_CURVE ( 'NONE', #211, #212, #372, .T. ) ;
#471 = AXIS2_PLACEMENT_3D ( 'NONE', #180, #185, #186 ) ;
#472 = EDGE_CURVE ( 'NONE', #238, #224, #370, .T. ) ;
#473 = EDGE_CURVE ( 'NONE', #221, #210, #387, .T. ) ;
#474 = EDGE_CURVE ( 'NONE', #227, #225, #389, .T. ) ;
#475 = EDGE_CURVE ( 'NONE', #215, #244, #384, .T. ) ;
#476 = EDGE_CURVE ( 'NONE', #228, #219, #394, .T. ) ;
#477 = EDGE_CURVE ( 'NONE', #215, #222, #396, .T. ) ;
#478 = EDGE_CURVE ( 'NONE', #232, #228, #339, .T. ) ;
#479 = EDGE_CURVE ( 'NONE', #207, #243, #340, .T. ) ;
#480 = EDGE_CURVE ( 'NONE', #229, #227, #418, .T. ) ;
#481 = EDGE_CURVE ( 'NONE', #238, #244, #427, .T. ) ;
#482 = AXIS2_PLACEMENT_3D ( 'NONE', #168, #153, #174 ) ;
#483 = AXIS2_PLACEMENT_3D ( 'NONE', #162, #166, #167 ) ;
#484 = AXIS2_PLACEMENT_3D ( 'NONE', #75, #62, #46 ) ;
#485 = EDGE_CURVE ( 'NONE', #216, #229, #404, .T. ) ;
#486 = EDGE_CURVE ( 'NONE', #218, #215, #414, .T. ) ;
#487 = EDGE_CURVE ( 'NONE', #233, #235, #412, .T. ) ;
#488 = PRODUCT_DEFINITION_FORMATION_WITH_SPECIFIED_SOURCE ( 'ANY', '', #2, .NOT_KNOWN. ) ;
#489 =( GEOMETRIC_REPRESENTATION_CONTEXT ( 3 ) GLOBAL_UNCERTAINTY_ASSIGNED_CONTEXT ( ( #189 ) ) GLOBAL_UNIT_ASSIGNED_CONTEXT ( ( #33, #7, #34 ) ) REPRESENTATION_CONTEXT ( 'NONE', 'WORKASPACE' ) );
#490 = AXIS2_PLACEMENT_3D ( 'NONE', #145, #125, #137 ) ;
#491 = AXIS2_PLACEMENT_3D ( 'NONE', #50, #73, #51 ) ;
#492 = AXIS2_PLACEMENT_3D ( 'NONE', #18, #5, #25 ) ;
#493 = AXIS2_PLACEMENT_3D ( 'NONE', #111, #107, #79 ) ;
#494 = AXIS2_PLACEMENT_3D ( 'NONE', #103, #81, #90 ) ;
#495 = AXIS2_PLACEMENT_3D ( 'NONE', #123, #130, #132 ) ;
#496 = AXIS2_PLACEMENT_3D ( 'NONE', #32, #36, #16 ) ;
#497 = CC_DESIGN_PERSON_AND_ORGANIZATION_ASSIGNMENT ( #399, #40, ( #2 ) ) ;
#498 = CC_DESIGN_APPROVAL ( #518, ( #517 ) ) ;
#499 = AXIS2_PLACEMENT_3D ( 'NONE', #159, #183, #184 ) ;
#500 = AXIS2_PLACEMENT_3D ( 'NONE', #87, #82, #84 ) ;
#501 = AXIS2_PLACEMENT_3D ( 'NONE', #58, #78, #49 ) ;
#502 = AXIS2_PLACEMENT_3D ( 'NONE', #131, #146, #127 ) ;
#503 = CC_DESIGN_DATE_AND_TIME_ASSIGNMENT ( #428, #20, ( #517 ) ) ;
#504 = CC_DESIGN_APPROVAL ( #506, ( #488 ) ) ;
#505 = CC_DESIGN_PERSON_AND_ORGANIZATION_ASSIGNMENT ( #413, #38, ( #488 ) ) ;
#506 = APPROVAL ( #21, 'UNSPECIFIED' ) ;
#507 = CC_DESIGN_PERSON_AND_ORGANIZATION_ASSIGNMENT ( #437, #8, ( #488 ) ) ;
#508 = SECURITY_CLASSIFICATION ( '', '', #26 ) ;
#509 = AXIS2_PLACEMENT_3D ( 'NONE', #22, #15, #3 ) ;
#510 = CC_DESIGN_PERSON_AND_ORGANIZATION_ASSIGNMENT ( #408, #31, ( #508 ) ) ;
#511 = AXIS2_PLACEMENT_3D ( 'NONE', #92, #88, #98 ) ;
#512 = AXIS2_PLACEMENT_3D ( 'NONE', #110, #93, #112 ) ;
#513 = AXIS2_PLACEMENT_3D ( 'NONE', #121, #140, #129 ) ;
#514 = AXIS2_PLACEMENT_3D ( 'NONE', #117, #115, #120 ) ;
#515 = AXIS2_PLACEMENT_3D ( 'NONE', #11, #4, #9 ) ;
#516 = AXIS2_PLACEMENT_3D ( 'NONE', #28, #17, #37 ) ;
#517 = PRODUCT_DEFINITION ( 'UNKNOWN', '', #488, #206 ) ;
#518 = APPROVAL ( #19, 'UNSPECIFIED' ) ;
#519 = AXIS2_PLACEMENT_3D ( 'NONE', #83, #96, #109 ) ;
#520 = CC_DESIGN_PERSON_AND_ORGANIZATION_ASSIGNMENT ( #416, #23, ( #517 ) ) ;
#521 = CC_DESIGN_DATE_AND_TIME_ASSIGNMENT ( #401, #41, ( #508 ) ) ;
#522 = CC_DESIGN_APPROVAL ( #523, ( #508 ) ) ;
#523 = APPROVAL ( #42, 'UNSPECIFIED' ) ;
#524 = CC_DESIGN_SECURITY_CLASSIFICATION ( #508, ( #488 ) ) ;
#525 = PRODUCT_RELATED_PRODUCT_CATEGORY ( 'detail', '', ( #2 ) ) ;
ENDSEC;
END-ISO-10303-21;
