ISO-10303-21;
HEADER;
FILE_DESCRIPTION (( 'STEP AP203' ),
    '1' );
FILE_NAME ('ALP2490.STEP',
    '2018-08-09T11:01:10',
    ( '' ),
    ( '' ),
    'SwSTEP 2.0',
    'SolidWorks 2016',
    '' );
FILE_SCHEMA (( 'CONFIG_CONTROL_DESIGN' ));
ENDSEC;

DATA;
#1 = DIRECTION ( 'NONE',  ( -0.7071067811865436900, -0.0000000000000000000, -0.7071067811865514600 ) ) ;
#2 = AXIS2_PLACEMENT_3D ( 'NONE', #409, #51, #108 ) ;
#3 = ORIENTED_EDGE ( 'NONE', *, *, #627, .F. ) ;
#4 = ORIENTED_EDGE ( 'NONE', *, *, #543, .T. ) ;
#5 =( NAMED_UNIT ( * ) SI_UNIT ( $, .STERADIAN. ) SOLID_ANGLE_UNIT ( ) );
#6 = CARTESIAN_POINT ( 'NONE',  ( 20.46997224294942800, 64.50000000000000000, -28.95525361718772600 ) ) ;
#7 = CARTESIAN_POINT ( 'NONE',  ( 0.0000000000000000000, 0.0000000000000000000, 0.0000000000000000000 ) ) ;
#8 = CARTESIAN_POINT ( 'NONE',  ( -39.19891236737964100, 64.50000000000000000, -5.999999999999999100 ) ) ;
#9 = VECTOR ( 'NONE', #717, 1000.000000000000000 ) ;
#10 = CARTESIAN_POINT ( 'NONE',  ( 13.00922662902998700, 84.00000000000000000, -21.49450800326839000 ) ) ;
#11 = CARTESIAN_POINT ( 'NONE',  ( -39.19891236737964100, 64.50000000000000000, -5.999999999999999100 ) ) ;
#12 = ADVANCED_FACE ( 'NONE', ( #513 ), #503, .F. ) ;
#13 = ORIENTED_EDGE ( 'NONE', *, *, #262, .F. ) ;
#14 = DIRECTION ( 'NONE',  ( -1.000000000000000000, 0.0000000000000000000, -0.0000000000000000000 ) ) ;
#15 = EDGE_CURVE ( 'NONE', #521, #735, #117, .T. ) ;
#16 = VERTEX_POINT ( 'NONE', #524 ) ;
#17 = CARTESIAN_POINT ( 'NONE',  ( 38.18376618407376100, 84.00000000000000000, -38.18376618407336300 ) ) ;
#18 = FACE_OUTER_BOUND ( 'NONE', #318, .T. ) ;
#19 = CARTESIAN_POINT ( 'NONE',  ( 12.72792206135793500, 0.0000000000000000000, -21.21320343559634100 ) ) ;
#20 = ADVANCED_FACE ( 'NONE', ( #263 ), #604, .F. ) ;
#21 = CARTESIAN_POINT ( 'NONE',  ( -43.44891236737964100, 64.50000000000000000, -8.673617379884035500E-016 ) ) ;
#22 = ORIENTED_EDGE ( 'NONE', *, *, #244, .F. ) ;
#23 = AXIS2_PLACEMENT_3D ( 'NONE', #574, #179, #532 ) ;
#24 = CARTESIAN_POINT ( 'NONE',  ( 13.00922662902998700, 84.00000000000000000, -21.49450800326839000 ) ) ;
#25 = LINE ( 'NONE', #386, #602 ) ;
#26 = EDGE_CURVE ( 'NONE', #175, #307, #396, .T. ) ;
#27 = DIRECTION ( 'NONE',  ( -0.7071067811865515700, 0.0000000000000000000, 0.7071067811865433500 ) ) ;
#28 = DIRECTION ( 'NONE',  ( -0.0000000000000000000, -0.0000000000000000000, -1.000000000000000000 ) ) ;
#29 = EDGE_LOOP ( 'NONE', ( #354, #554, #70, #48 ) ) ;
#30 = ORIENTED_EDGE ( 'NONE', *, *, #496, .F. ) ;
#31 = ORIENTED_EDGE ( 'NONE', *, *, #200, .T. ) ;
#32 = CARTESIAN_POINT ( 'NONE',  ( -60.00000000000000000, 84.00000000000000000, 0.0000000000000000000 ) ) ;
#33 = CARTESIAN_POINT ( 'NONE',  ( 23.47517606299226500, 64.50000000000000000, -31.96045743723052700 ) ) ;
#34 = FACE_OUTER_BOUND ( 'NONE', #481, .T. ) ;
#35 = FACE_BOUND ( 'NONE', #413, .T. ) ;
#36 = AXIS2_PLACEMENT_3D ( 'NONE', #7, #741, #423 ) ;
#37 = DIRECTION ( 'NONE',  ( -1.000000000000000000, -0.0000000000000000000, -0.0000000000000000000 ) ) ;
#38 = ORIENTED_EDGE ( 'NONE', *, *, #269, .T. ) ;
#39 = CARTESIAN_POINT ( 'NONE',  ( -60.00000000000000000, 0.0000000000000000000, 0.0000000000000000000 ) ) ;
#40 = ORIENTED_EDGE ( 'NONE', *, *, #119, .F. ) ;
#41 = PERSON_AND_ORGANIZATION ( #397, #610 ) ;
#42 = DIRECTION ( 'NONE',  ( -0.0000000000000000000, -0.0000000000000000000, -1.000000000000000000 ) ) ;
#43 = FACE_OUTER_BOUND ( 'NONE', #166, .T. ) ;
#44 = FACE_OUTER_BOUND ( 'NONE', #111, .T. ) ;
#45 = LINE ( 'NONE', #428, #442 ) ;
#46 = CARTESIAN_POINT ( 'NONE',  ( 12.36037993138707600, 0.0000000000000000000, -21.06096250061891300 ) ) ;
#47 = EDGE_LOOP ( 'NONE', ( #495, #721 ) ) ;
#48 = ORIENTED_EDGE ( 'NONE', *, *, #399, .T. ) ;
#49 = EDGE_CURVE ( 'NONE', #618, #146, #145, .T. ) ;
#50 = DATE_AND_TIME ( #662, #536 ) ;
#51 = DIRECTION ( 'NONE',  ( -0.7071067811865436900, -0.0000000000000000000, -0.7071067811865514600 ) ) ;
#52 = CARTESIAN_POINT ( 'NONE',  ( -34.94891236737965600, 19.50000000000000000, -5.999999999999999100 ) ) ;
#53 = DIRECTION ( 'NONE',  ( -0.9238795325112877400, -0.0000000000000000000, 0.3826834323650875100 ) ) ;
#54 = VERTEX_POINT ( 'NONE', #6 ) ;
#55 = ORIENTED_EDGE ( 'NONE', *, *, #97, .T. ) ;
#56 = ADVANCED_FACE ( 'NONE', ( #136, #35, #129 ), #181, .F. ) ;
#57 = APPLICATION_CONTEXT ( 'configuration controlled 3d designs of mechanical parts and assemblies' ) ;
#58 = APPROVAL_PERSON_ORGANIZATION ( #516, #138, #425 ) ;
#59 = AXIS2_PLACEMENT_3D ( 'NONE', #360, #635, #580 ) ;
#60 = LINE ( 'NONE', #619, #555 ) ;
#61 = APPLICATION_CONTEXT ( 'configuration controlled 3d designs of mechanical parts and assemblies' ) ;
#62 = VECTOR ( 'NONE', #322, 1000.000000000000000 ) ;
#63 = DIRECTION ( 'NONE',  ( 0.7071067811865515700, 0.0000000000000000000, -0.7071067811865435800 ) ) ;
#64 = PERSON_AND_ORGANIZATION_ROLE ( 'creator' ) ;
#65 = DIRECTION ( 'NONE',  ( -1.000000000000000000, 0.0000000000000000000, 0.0000000000000000000 ) ) ;
#66 = AXIS2_PLACEMENT_3D ( 'NONE', #470, #465, #294 ) ;
#67 = ORIENTED_EDGE ( 'NONE', *, *, #410, .F. ) ;
#68 = ORIENTED_EDGE ( 'NONE', *, *, #266, .F. ) ;
#69 = APPLICATION_PROTOCOL_DEFINITION ( 'international standard', 'config_control_design', 1994, #57 ) ;
#70 = ORIENTED_EDGE ( 'NONE', *, *, #667, .T. ) ;
#71 = DIRECTION ( 'NONE',  ( -0.0000000000000000000, -1.000000000000000000, -0.0000000000000000000 ) ) ;
#72 = LINE ( 'NONE', #159, #573 ) ;
#73 = CARTESIAN_POINT ( 'NONE',  ( 23.47517606299226500, 64.50000000000000000, -31.96045743723052700 ) ) ;
#74 = AXIS2_PLACEMENT_3D ( 'NONE', #436, #86, #613 ) ;
#75 = CIRCLE ( 'NONE', #304, 4.249999999999990200 ) ;
#76 = ORIENTED_EDGE ( 'NONE', *, *, #224, .F. ) ;
#77 = CARTESIAN_POINT ( 'NONE',  ( 38.18376618407376100, 0.0000000000000000000, -44.18376618407336300 ) ) ;
#78 = ORIENTED_EDGE ( 'NONE', *, *, #680, .F. ) ;
#79 = DIRECTION ( 'NONE',  ( -0.7071067811865515700, -0.0000000000000000000, 0.7071067811865435800 ) ) ;
#80 = CC_DESIGN_PERSON_AND_ORGANIZATION_ASSIGNMENT ( #626, #64, ( #126 ) ) ;
#81 = ORIENTED_EDGE ( 'NONE', *, *, #652, .F. ) ;
#82 = CARTESIAN_POINT ( 'NONE',  ( 42.42640687119306600, 0.0000000000000000000, -42.42640687119262600 ) ) ;
#83 = VECTOR ( 'NONE', #169, 1000.000000000000100 ) ;
#84 = FACE_OUTER_BOUND ( 'NONE', #552, .T. ) ;
#85 = EDGE_CURVE ( 'NONE', #498, #469, #144, .T. ) ;
#86 = DIRECTION ( 'NONE',  ( -0.0000000000000000000, -0.0000000000000000000, -1.000000000000000000 ) ) ;
#87 = LINE ( 'NONE', #534, #603 ) ;
#88 = AXIS2_PLACEMENT_3D ( 'NONE', #33, #609, #216 ) ;
#89 = PERSON_AND_ORGANIZATION ( #397, #610 ) ;
#90 = DIRECTION ( 'NONE',  ( -0.0000000000000000000, -0.0000000000000000000, -1.000000000000000000 ) ) ;
#91 = LINE ( 'NONE', #125, #651 ) ;
#92 = EDGE_CURVE ( 'NONE', #270, #277, #230, .T. ) ;
#93 = CARTESIAN_POINT ( 'NONE',  ( -34.94891236737965600, 19.50000000000000000, -5.999999999999999100 ) ) ;
#94 = DIRECTION ( 'NONE',  ( -0.7071067811865512400, 0.0000000000000000000, 0.7071067811865439100 ) ) ;
#95 = VERTEX_POINT ( 'NONE', #172 ) ;
#96 = VERTEX_POINT ( 'NONE', #285 ) ;
#97 = EDGE_CURVE ( 'NONE', #669, #260, #639, .T. ) ;
#98 = DIRECTION ( 'NONE',  ( -0.0000000000000000000, -0.0000000000000000000, -1.000000000000000000 ) ) ;
#99 = CARTESIAN_POINT ( 'NONE',  ( 12.36037993138707600, 0.0000000000000000000, -21.06096250061891700 ) ) ;
#100 = ORIENTED_EDGE ( 'NONE', *, *, #319, .F. ) ;
#101 = EDGE_CURVE ( 'NONE', #215, #567, #675, .T. ) ;
#102 = CALENDAR_DATE ( 2018, 9, 8 ) ;
#103 = DIRECTION ( 'NONE',  ( -0.0000000000000000000, -1.000000000000000000, -0.0000000000000000000 ) ) ;
#104 = FACE_OUTER_BOUND ( 'NONE', #122, .T. ) ;
#105 = CARTESIAN_POINT ( 'NONE',  ( -54.00000000000000000, 84.00000000000000000, 0.0000000000000000000 ) ) ;
#106 = AXIS2_PLACEMENT_3D ( 'NONE', #211, #154, #452 ) ;
#107 = DIRECTION ( 'NONE',  ( -0.0000000000000000000, -0.0000000000000000000, -1.000000000000000000 ) ) ;
#108 = DIRECTION ( 'NONE',  ( -0.7071067811865515700, 0.0000000000000000000, 0.7071067811865433500 ) ) ;
#109 = ORIENTED_EDGE ( 'NONE', *, *, #334, .F. ) ;
#110 = VERTEX_POINT ( 'NONE', #170 ) ;
#111 = EDGE_LOOP ( 'NONE', ( #468, #258, #695, #632 ) ) ;
#112 = CARTESIAN_POINT ( 'NONE',  ( 38.18376618407376100, 0.0000000000000000000, -38.18376618407336300 ) ) ;
#113 = DIRECTION ( 'NONE',  ( -0.0000000000000000000, -0.0000000000000000000, -1.000000000000000000 ) ) ;
#114 = CC_DESIGN_PERSON_AND_ORGANIZATION_ASSIGNMENT ( #561, #638, ( #234 ) ) ;
#115 = CYLINDRICAL_SURFACE ( 'NONE', #264, 5.999999999999998200 ) ;
#116 = ADVANCED_FACE ( 'NONE', ( #161 ), #192, .F. ) ;
#117 = CIRCLE ( 'NONE', #358, 4.249999999999997300 ) ;
#118 = DIRECTION ( 'NONE',  ( -0.0000000000000000000, -0.0000000000000000000, -1.000000000000000000 ) ) ;
#119 = EDGE_CURVE ( 'NONE', #618, #139, #210, .T. ) ;
#120 = ADVANCED_FACE ( 'NONE', ( #313 ), #681, .F. ) ;
#121 = APPROVAL_STATUS ( 'not_yet_approved' ) ;
#122 = EDGE_LOOP ( 'NONE', ( #40, #164, #447, #598 ) ) ;
#123 = DIRECTION ( 'NONE',  ( 0.0000000000000000000, 0.0000000000000000000, -1.000000000000000000 ) ) ;
#124 = PERSON_AND_ORGANIZATION ( #397, #610 ) ;
#125 = CARTESIAN_POINT ( 'NONE',  ( -60.00000000000000000, 84.00000000000000000, 0.0000000000000000000 ) ) ;
#126 = PRODUCT_DEFINITION ( 'UNKNOWN', '', #219, #195 ) ;
#127 = FACE_OUTER_BOUND ( 'NONE', #259, .T. ) ;
#128 = DIRECTION ( 'NONE',  ( -0.9238795325112877400, -0.0000000000000000000, 0.3826834323650875100 ) ) ;
#129 = FACE_OUTER_BOUND ( 'NONE', #448, .T. ) ;
#130 = ADVANCED_FACE ( 'NONE', ( #538, #256, #34 ), #487, .F. ) ;
#131 = EDGE_CURVE ( 'NONE', #96, #54, #75, .T. ) ;
#132 = ORIENTED_EDGE ( 'NONE', *, *, #606, .F. ) ;
#133 = ORIENTED_EDGE ( 'NONE', *, *, #200, .F. ) ;
#134 = ORIENTED_EDGE ( 'NONE', *, *, #251, .T. ) ;
#135 = CIRCLE ( 'NONE', #366, 2.000000000000000000 ) ;
#136 = FACE_BOUND ( 'NONE', #401, .T. ) ;
#137 = DIRECTION ( 'NONE',  ( 0.0000000000000000000, -1.000000000000000000, 0.0000000000000000000 ) ) ;
#138 = APPROVAL ( #292, 'UNSPECIFIED' ) ;
#139 = VERTEX_POINT ( 'NONE', #701 ) ;
#140 = VERTEX_POINT ( 'NONE', #645 ) ;
#141 = ADVANCED_BREP_SHAPE_REPRESENTATION ( 'ALP2490', ( #628, #59 ), #444 ) ;
#142 = LINE ( 'NONE', #46, #434 ) ;
#143 = CARTESIAN_POINT ( 'NONE',  ( -54.00000000000000000, 84.00000000000000000, 0.0000000000000000000 ) ) ;
#144 = CIRCLE ( 'NONE', #710, 4.249999999999996400 ) ;
#145 = LINE ( 'NONE', #177, #683 ) ;
#146 = VERTEX_POINT ( 'NONE', #77 ) ;
#147 = EDGE_LOOP ( 'NONE', ( #133, #631 ) ) ;
#148 = DIRECTION ( 'NONE',  ( 0.0000000000000000000, -1.000000000000000000, 0.0000000000000000000 ) ) ;
#149 = AXIS2_PLACEMENT_3D ( 'NONE', #605, #316, #385 ) ;
#150 = EDGE_LOOP ( 'NONE', ( #353, #703, #206, #31 ) ) ;
#151 = DIRECTION ( 'NONE',  ( 0.0000000000000000000, 0.0000000000000000000, -1.000000000000000000 ) ) ;
#152 = CYLINDRICAL_SURFACE ( 'NONE', #559, 2.000000000000000000 ) ;
#153 = FACE_BOUND ( 'NONE', #47, .T. ) ;
#154 = DIRECTION ( 'NONE',  ( 0.0000000000000000000, 1.000000000000000000, 0.0000000000000000000 ) ) ;
#155 = CARTESIAN_POINT ( 'NONE',  ( -54.00000000000000000, 84.00000000000000000, -5.999999999999999100 ) ) ;
#156 = ORIENTED_EDGE ( 'NONE', *, *, #97, .F. ) ;
#157 = ORIENTED_EDGE ( 'NONE', *, *, #257, .F. ) ;
#158 = EDGE_CURVE ( 'NONE', #277, #270, #284, .T. ) ;
#159 = CARTESIAN_POINT ( 'NONE',  ( 20.46997224294942400, 19.50000000000000000, -28.95525361718772200 ) ) ;
#160 = VECTOR ( 'NONE', #98, 1000.000000000000000 ) ;
#161 = FACE_OUTER_BOUND ( 'NONE', #29, .T. ) ;
#162 = SECURITY_CLASSIFICATION ( '', '', #420 ) ;
#163 = DIRECTION ( 'NONE',  ( -0.7071067811865436900, -0.0000000000000000000, -0.7071067811865514600 ) ) ;
#164 = ORIENTED_EDGE ( 'NONE', *, *, #49, .T. ) ;
#165 = DIRECTION ( 'NONE',  ( -1.000000000000000000, 0.0000000000000000000, 0.0000000000000000000 ) ) ;
#166 = EDGE_LOOP ( 'NONE', ( #437, #592, #589, #3, #68, #331, #286, #727, #463, #382 ) ) ;
#167 = CLOSED_SHELL ( 'NONE', ( #12, #525, #247, #261, #419, #183, #475, #56, #707, #130, #483, #702, #295, #586, #120, #647, #194, #20, #116, #636 ) ) ;
#168 = EDGE_CURVE ( 'NONE', #16, #505, #528, .T. ) ;
#169 = DIRECTION ( 'NONE',  ( -0.7071067811865435800, -0.0000000000000000000, -0.7071067811865513500 ) ) ;
#170 = CARTESIAN_POINT ( 'NONE',  ( -23.63245787002910700, 0.0000000000000000000, -6.152240934977426100 ) ) ;
#171 = VECTOR ( 'NONE', #53, 1000.000000000000000 ) ;
#172 = CARTESIAN_POINT ( 'NONE',  ( -43.44891236737964800, 19.50000000000000000, -5.999999999999999100 ) ) ;
#173 = EDGE_CURVE ( 'NONE', #497, #110, #550, .T. ) ;
#174 = DIRECTION ( 'NONE',  ( -1.000000000000000000, 0.0000000000000000000, 0.0000000000000000000 ) ) ;
#175 = VERTEX_POINT ( 'NONE', #485 ) ;
#176 = EDGE_LOOP ( 'NONE', ( #390, #76, #414, #189 ) ) ;
#177 = CARTESIAN_POINT ( 'NONE',  ( 38.18376618407376100, 84.00000000000000000, -44.18376618407336300 ) ) ;
#178 = CC_DESIGN_DATE_AND_TIME_ASSIGNMENT ( #50, #582, ( #126 ) ) ;
#179 = DIRECTION ( 'NONE',  ( 0.3826834323650874500, -0.0000000000000000000, 0.9238795325112877400 ) ) ;
#180 = FACE_OUTER_BOUND ( 'NONE', #176, .T. ) ;
#181 = PLANE ( 'NONE',  #327 ) ;
#182 = LINE ( 'NONE', #364, #9 ) ;
#183 = ADVANCED_FACE ( 'NONE', ( #377, #153, #203 ), #370, .F. ) ;
#184 = CARTESIAN_POINT ( 'NONE',  ( -39.19891236737964800, 19.50000000000000000, -5.999999999999999100 ) ) ;
#185 = AXIS2_PLACEMENT_3D ( 'NONE', #633, #291, #738 ) ;
#186 = ORIENTED_EDGE ( 'NONE', *, *, #378, .F. ) ;
#187 = DIRECTION ( 'NONE',  ( -0.7071067811865436900, -0.0000000000000000000, -0.7071067811865514600 ) ) ;
#188 = VERTEX_POINT ( 'NONE', #643 ) ;
#189 = ORIENTED_EDGE ( 'NONE', *, *, #244, .T. ) ;
#190 = DATE_AND_TIME ( #102, #254 ) ;
#191 = DIRECTION ( 'NONE',  ( -1.000000000000000000, 0.0000000000000000000, 0.0000000000000000000 ) ) ;
#192 = CYLINDRICAL_SURFACE ( 'NONE', #2, 4.249999999999990200 ) ;
#193 = DIRECTION ( 'NONE',  ( 0.0000000000000000000, 1.000000000000000000, 0.0000000000000000000 ) ) ;
#194 = ADVANCED_FACE ( 'NONE', ( #407 ), #476, .F. ) ;
#195 = DESIGN_CONTEXT ( 'detailed design', #61, 'design' ) ;
#196 = ORIENTED_EDGE ( 'NONE', *, *, #319, .T. ) ;
#197 = ORIENTED_EDGE ( 'NONE', *, *, #543, .F. ) ;
#198 = CARTESIAN_POINT ( 'NONE',  ( 27.71781675011152000, 64.50000000000000000, -27.71781675011122200 ) ) ;
#199 = DATE_AND_TIME ( #272, #310 ) ;
#200 = EDGE_CURVE ( 'NONE', #95, #578, #339, .T. ) ;
#201 = CARTESIAN_POINT ( 'NONE',  ( 11.59501306665690000, 0.0000000000000000000, -22.90872156564149300 ) ) ;
#202 = CIRCLE ( 'NONE', #74, 4.249999999999996400 ) ;
#203 = FACE_OUTER_BOUND ( 'NONE', #391, .T. ) ;
#204 = AXIS2_PLACEMENT_3D ( 'NONE', #439, #90, #314 ) ;
#205 = ORIENTED_EDGE ( 'NONE', *, *, #168, .T. ) ;
#206 = ORIENTED_EDGE ( 'NONE', *, *, #652, .T. ) ;
#207 = DIRECTION ( 'NONE',  ( -0.7071067811865435800, -0.0000000000000000000, -0.7071067811865513500 ) ) ;
#208 = CALENDAR_DATE ( 2018, 9, 8 ) ;
#209 = EDGE_CURVE ( 'NONE', #449, #512, #91, .T. ) ;
#210 = CIRCLE ( 'NONE', #473, 5.999999999999998200 ) ;
#211 = CARTESIAN_POINT ( 'NONE',  ( -24.39782473475927900, 0.0000000000000000000, -7.999999999999998200 ) ) ;
#212 = ORIENTED_EDGE ( 'NONE', *, *, #85, .F. ) ;
#213 = ORIENTED_EDGE ( 'NONE', *, *, #101, .F. ) ;
#214 = DIRECTION ( 'NONE',  ( 0.7071067811865512400, 0.0000000000000000000, -0.7071067811865439100 ) ) ;
#215 = VERTEX_POINT ( 'NONE', #424 ) ;
#216 = DIRECTION ( 'NONE',  ( -0.7071067811865515700, 0.0000000000000000000, 0.7071067811865433500 ) ) ;
#217 = LINE ( 'NONE', #221, #416 ) ;
#218 = LINE ( 'NONE', #275, #474 ) ;
#219 = PRODUCT_DEFINITION_FORMATION_WITH_SPECIFIED_SOURCE ( 'ANY', '', #234, .NOT_KNOWN. ) ;
#220 = LINE ( 'NONE', #19, #502 ) ;
#221 = CARTESIAN_POINT ( 'NONE',  ( 26.48037988303510600, 19.50000000000000000, -34.96566125727333900 ) ) ;
#222 = CARTESIAN_POINT ( 'NONE',  ( 0.0000000000000000000, 0.0000000000000000000, 0.0000000000000000000 ) ) ;
#223 = ORIENTED_EDGE ( 'NONE', *, *, #594, .F. ) ;
#224 = EDGE_CURVE ( 'NONE', #677, #271, #45, .T. ) ;
#225 = EDGE_LOOP ( 'NONE', ( #308, #670 ) ) ;
#226 = CARTESIAN_POINT ( 'NONE',  ( -54.00000000000000000, 84.00000000000000000, -5.999999999999999100 ) ) ;
#227 = CALENDAR_DATE ( 2018, 9, 8 ) ;
#228 = CARTESIAN_POINT ( 'NONE',  ( -43.44891236737964800, 19.50000000000000000, -5.999999999999999100 ) ) ;
#229 = CIRCLE ( 'NONE', #324, 2.000000000000001800 ) ;
#230 = CIRCLE ( 'NONE', #66, 4.249999999999996400 ) ;
#231 = EDGE_CURVE ( 'NONE', #677, #618, #387, .T. ) ;
#232 = AXIS2_PLACEMENT_3D ( 'NONE', #112, #103, #400 ) ;
#233 = DIRECTION ( 'NONE',  ( -1.000000000000000000, 0.0000000000000000000, 0.0000000000000000000 ) ) ;
#234 = PRODUCT ( 'ALP2490', 'ALP2490', '', ( #692 ) ) ;
#235 =( LENGTH_UNIT ( ) NAMED_UNIT ( * ) SI_UNIT ( .MILLI., .METRE. ) );
#236 = ORIENTED_EDGE ( 'NONE', *, *, #173, .T. ) ;
#237 = ORIENTED_EDGE ( 'NONE', *, *, #410, .T. ) ;
#238 = DIRECTION ( 'NONE',  ( -0.7071067811865515700, 0.0000000000000000000, 0.7071067811865434600 ) ) ;
#239 = AXIS2_PLACEMENT_3D ( 'NONE', #143, #599, #544 ) ;
#240 = CARTESIAN_POINT ( 'NONE',  ( -39.19891236737964100, 64.50000000000000000, -5.999999999999999100 ) ) ;
#241 = VECTOR ( 'NONE', #630, 1000.000000000000000 ) ;
#242 = CIRCLE ( 'NONE', #232, 5.999999999999998200 ) ;
#243 = CARTESIAN_POINT ( 'NONE',  ( -54.00000000000000000, 0.0000000000000000000, 0.0000000000000000000 ) ) ;
#244 = EDGE_CURVE ( 'NONE', #140, #568, #87, .T. ) ;
#245 = DIRECTION ( 'NONE',  ( 0.0000000000000000000, 0.0000000000000000000, -1.000000000000000000 ) ) ;
#246 = CARTESIAN_POINT ( 'NONE',  ( -39.19891236737964800, 19.50000000000000000, -5.999999999999999100 ) ) ;
#247 = ADVANCED_FACE ( 'NONE', ( #509 ), #359, .F. ) ;
#248 = VERTEX_POINT ( 'NONE', #303 ) ;
#249 = ORIENTED_EDGE ( 'NONE', *, *, #101, .T. ) ;
#250 = PERSON_AND_ORGANIZATION_ROLE ( 'design_supplier' ) ;
#251 = EDGE_CURVE ( 'NONE', #480, #482, #220, .T. ) ;
#252 = CARTESIAN_POINT ( 'NONE',  ( -39.19891236737964100, 64.50000000000000000, -8.673617379884035500E-016 ) ) ;
#253 = AXIS2_PLACEMENT_3D ( 'NONE', #201, #320, #548 ) ;
#254 = LOCAL_TIME ( 13, 1, 10.00000000000000000, #299 ) ;
#255 = CIRCLE ( 'NONE', #149, 4.249999999999997300 ) ;
#256 = FACE_BOUND ( 'NONE', #325, .T. ) ;
#257 = EDGE_CURVE ( 'NONE', #449, #140, #182, .T. ) ;
#258 = ORIENTED_EDGE ( 'NONE', *, *, #640, .F. ) ;
#259 = EDGE_LOOP ( 'NONE', ( #429, #625, #4, #344 ) ) ;
#260 = VERTEX_POINT ( 'NONE', #600 ) ;
#261 = ADVANCED_FACE ( 'NONE', ( #369 ), #268, .F. ) ;
#262 = EDGE_CURVE ( 'NONE', #248, #490, #302, .T. ) ;
#263 = FACE_OUTER_BOUND ( 'NONE', #150, .T. ) ;
#264 = AXIS2_PLACEMENT_3D ( 'NONE', #708, #137, #389 ) ;
#265 = ORIENTED_EDGE ( 'NONE', *, *, #281, .F. ) ;
#266 = EDGE_CURVE ( 'NONE', #512, #568, #517, .T. ) ;
#267 = APPROVAL_DATE_TIME ( #715, #138 ) ;
#268 = CYLINDRICAL_SURFACE ( 'NONE', #641, 4.249999999999996400 ) ;
#269 = EDGE_CURVE ( 'NONE', #260, #669, #732, .T. ) ;
#270 = VERTEX_POINT ( 'NONE', #21 ) ;
#271 = VERTEX_POINT ( 'NONE', #82 ) ;
#272 = CALENDAR_DATE ( 2018, 9, 8 ) ;
#273 = CC_DESIGN_PERSON_AND_ORGANIZATION_ASSIGNMENT ( #41, #570, ( #219 ) ) ;
#274 = CARTESIAN_POINT ( 'NONE',  ( 0.0000000000000000000, 84.00000000000000000, 0.0000000000000000000 ) ) ;
#275 = CARTESIAN_POINT ( 'NONE',  ( -60.00000000000000000, 0.0000000000000000000, -5.999999999999999100 ) ) ;
#276 = EDGE_CURVE ( 'NONE', #505, #449, #426, .T. ) ;
#277 = VERTEX_POINT ( 'NONE', #597 ) ;
#278 = CARTESIAN_POINT ( 'NONE',  ( -23.63245787002910700, 84.00000000000000000, -6.152240934977426100 ) ) ;
#279 = LOCAL_TIME ( 13, 1, 10.00000000000000000, #335 ) ;
#280 = DIRECTION ( 'NONE',  ( -0.7071067811865511300, 0.0000000000000000000, 0.7071067811865439100 ) ) ;
#281 = EDGE_CURVE ( 'NONE', #482, #691, #716, .T. ) ;
#282 = VECTOR ( 'NONE', #405, 1000.000000000000000 ) ;
#283 = AXIS2_PLACEMENT_3D ( 'NONE', #329, #330, #94 ) ;
#284 = CIRCLE ( 'NONE', #706, 4.249999999999996400 ) ;
#285 = CARTESIAN_POINT ( 'NONE',  ( 26.48037988303510200, 64.50000000000000000, -34.96566125727333200 ) ) ;
#286 = ORIENTED_EDGE ( 'NONE', *, *, #486, .F. ) ;
#287 = EDGE_CURVE ( 'NONE', #735, #521, #255, .T. ) ;
#288 = ORIENTED_EDGE ( 'NONE', *, *, #168, .F. ) ;
#289 = VERTEX_POINT ( 'NONE', #656 ) ;
#290 = CARTESIAN_POINT ( 'NONE',  ( 42.42640687119306600, 84.00000000000000000, -42.42640687119262600 ) ) ;
#291 = DIRECTION ( 'NONE',  ( -0.7071067811865438000, 0.0000000000000000000, -0.7071067811865512400 ) ) ;
#292 = APPROVAL_STATUS ( 'not_yet_approved' ) ;
#293 = FACE_OUTER_BOUND ( 'NONE', #297, .T. ) ;
#294 = DIRECTION ( 'NONE',  ( -1.000000000000000000, 0.0000000000000000000, 0.0000000000000000000 ) ) ;
#295 = ADVANCED_FACE ( 'NONE', ( #84 ), #655, .T. ) ;
#296 =( NAMED_UNIT ( * ) PLANE_ANGLE_UNIT ( ) SI_UNIT ( $, .RADIAN. ) );
#297 = EDGE_LOOP ( 'NONE', ( #156, #558, #306, #305 ) ) ;
#298 = AXIS2_PLACEMENT_3D ( 'NONE', #515, #343, #165 ) ;
#299 = COORDINATED_UNIVERSAL_TIME_OFFSET ( 1, 0, .AHEAD. ) ;
#300 = DIRECTION ( 'NONE',  ( -0.0000000000000000000, -0.0000000000000000000, -1.000000000000000000 ) ) ;
#301 = CIRCLE ( 'NONE', #106, 2.000000000000000000 ) ;
#302 = CIRCLE ( 'NONE', #556, 4.249999999999997300 ) ;
#303 = CARTESIAN_POINT ( 'NONE',  ( 20.46997224294942400, 19.50000000000000000, -28.95525361718772200 ) ) ;
#304 = AXIS2_PLACEMENT_3D ( 'NONE', #73, #187, #590 ) ;
#305 = ORIENTED_EDGE ( 'NONE', *, *, #667, .F. ) ;
#306 = ORIENTED_EDGE ( 'NONE', *, *, #131, .T. ) ;
#307 = VERTEX_POINT ( 'NONE', #443 ) ;
#308 = ORIENTED_EDGE ( 'NONE', *, *, #15, .T. ) ;
#309 = DIRECTION ( 'NONE',  ( -1.000000000000000000, -0.0000000000000000000, -0.0000000000000000000 ) ) ;
#310 = LOCAL_TIME ( 13, 1, 10.00000000000000000, #432 ) ;
#311 = LINE ( 'NONE', #412, #241 ) ;
#312 = DIRECTION ( 'NONE',  ( 3.469446951953615400E-015, 0.0000000000000000000, -1.000000000000000000 ) ) ;
#313 = FACE_OUTER_BOUND ( 'NONE', #317, .T. ) ;
#314 = DIRECTION ( 'NONE',  ( -1.000000000000000000, 0.0000000000000000000, 0.0000000000000000000 ) ) ;
#315 = AXIS2_PLACEMENT_3D ( 'NONE', #560, #163, #280 ) ;
#316 = DIRECTION ( 'NONE',  ( -0.7071067811865438000, 0.0000000000000000000, -0.7071067811865512400 ) ) ;
#317 = EDGE_LOOP ( 'NONE', ( #30, #265, #109, #223 ) ) ;
#318 = EDGE_LOOP ( 'NONE', ( #545, #326, #713, #78 ) ) ;
#319 = EDGE_CURVE ( 'NONE', #307, #175, #699, .T. ) ;
#320 = DIRECTION ( 'NONE',  ( 0.0000000000000000000, 1.000000000000000000, 0.0000000000000000000 ) ) ;
#321 = LINE ( 'NONE', #454, #459 ) ;
#322 = DIRECTION ( 'NONE',  ( 1.000000000000000000, -0.0000000000000000000, -0.0000000000000000000 ) ) ;
#323 = DIRECTION ( 'NONE',  ( 0.0000000000000000000, 0.0000000000000000000, -1.000000000000000000 ) ) ;
#324 = AXIS2_PLACEMENT_3D ( 'NONE', #722, #392, #724 ) ;
#325 = EDGE_LOOP ( 'NONE', ( #212, #342 ) ) ;
#326 = ORIENTED_EDGE ( 'NONE', *, *, #634, .F. ) ;
#327 = AXIS2_PLACEMENT_3D ( 'NONE', #520, #349, #63 ) ;
#328 = PERSON_AND_ORGANIZATION ( #397, #610 ) ;
#329 = CARTESIAN_POINT ( 'NONE',  ( 0.0000000000000000000, 84.00000000000000000, 0.0000000000000000000 ) ) ;
#330 = DIRECTION ( 'NONE',  ( -0.7071067811865439100, 0.0000000000000000000, -0.7071067811865512400 ) ) ;
#331 = ORIENTED_EDGE ( 'NONE', *, *, #718, .T. ) ;
#332 = ORIENTED_EDGE ( 'NONE', *, *, #26, .T. ) ;
#333 = DIRECTION ( 'NONE',  ( -0.7071067811865436900, -0.0000000000000000000, -0.7071067811865514600 ) ) ;
#334 = EDGE_CURVE ( 'NONE', #497, #482, #547, .T. ) ;
#335 = COORDINATED_UNIVERSAL_TIME_OFFSET ( 1, 0, .AHEAD. ) ;
#336 = FACE_OUTER_BOUND ( 'NONE', #345, .T. ) ;
#337 = CARTESIAN_POINT ( 'NONE',  ( 38.18376618407376100, 0.0000000000000000000, -38.18376618407336300 ) ) ;
#338 = LINE ( 'NONE', #711, #723 ) ;
#339 = CIRCLE ( 'NONE', #341, 4.249999999999996400 ) ;
#340 = CARTESIAN_POINT ( 'NONE',  ( 20.46997224294942800, 64.50000000000000000, -28.95525361718772600 ) ) ;
#341 = AXIS2_PLACEMENT_3D ( 'NONE', #246, #479, #191 ) ;
#342 = ORIENTED_EDGE ( 'NONE', *, *, #646, .F. ) ;
#343 = DIRECTION ( 'NONE',  ( -0.0000000000000000000, -0.0000000000000000000, -1.000000000000000000 ) ) ;
#344 = ORIENTED_EDGE ( 'NONE', *, *, #262, .T. ) ;
#345 = EDGE_LOOP ( 'NONE', ( #213, #591, #236, #456 ) ) ;
#346 = APPROVAL_DATE_TIME ( #199, #531 ) ;
#347 = DIRECTION ( 'NONE',  ( 0.0000000000000000000, 0.0000000000000000000, -1.000000000000000000 ) ) ;
#348 = SHAPE_DEFINITION_REPRESENTATION ( #614, #141 ) ;
#349 = DIRECTION ( 'NONE',  ( 0.7071067811865435800, -0.0000000000000000000, 0.7071067811865515700 ) ) ;
#350 = DIRECTION ( 'NONE',  ( -0.0000000000000000000, -1.000000000000000000, 0.0000000000000000000 ) ) ;
#351 = DIRECTION ( 'NONE',  ( -0.0000000000000000000, -0.0000000000000000000, -1.000000000000000000 ) ) ;
#352 = AXIS2_PLACEMENT_3D ( 'NONE', #337, #728, #245 ) ;
#353 = ORIENTED_EDGE ( 'NONE', *, *, #438, .F. ) ;
#354 = ORIENTED_EDGE ( 'NONE', *, *, #519, .F. ) ;
#355 = PERSON_AND_ORGANIZATION_ROLE ( 'classification_officer' ) ;
#356 = PLANE ( 'NONE',  #23 ) ;
#357 = CARTESIAN_POINT ( 'NONE',  ( -23.99999999999997200, 84.00000000000000000, -5.999999999999999100 ) ) ;
#358 = AXIS2_PLACEMENT_3D ( 'NONE', #693, #418, #629 ) ;
#359 = CYLINDRICAL_SURFACE ( 'NONE', #596, 4.249999999999996400 ) ;
#360 = CARTESIAN_POINT ( 'NONE',  ( 0.0000000000000000000, 0.0000000000000000000, 0.0000000000000000000 ) ) ;
#361 = DIRECTION ( 'NONE',  ( -1.000000000000000000, 0.0000000000000000000, 0.0000000000000000000 ) ) ;
#362 = APPROVAL_ROLE ( '' ) ;
#363 = ORIENTED_EDGE ( 'NONE', *, *, #85, .T. ) ;
#364 = CARTESIAN_POINT ( 'NONE',  ( 0.0000000000000000000, 84.00000000000000000, 0.0000000000000000000 ) ) ;
#365 = ORIENTED_EDGE ( 'NONE', *, *, #276, .T. ) ;
#366 = AXIS2_PLACEMENT_3D ( 'NONE', #408, #466, #682 ) ;
#367 = ORIENTED_EDGE ( 'NONE', *, *, #496, .T. ) ;
#368 = CARTESIAN_POINT ( 'NONE',  ( -23.99999999999997200, 0.0000000000000000000, -5.999999999999999100 ) ) ;
#369 = FACE_OUTER_BOUND ( 'NONE', #659, .T. ) ;
#370 = PLANE ( 'NONE',  #657 ) ;
#371 = AXIS2_PLACEMENT_3D ( 'NONE', #472, #113, #233 ) ;
#372 = DIRECTION ( 'NONE',  ( -0.0000000000000000000, -1.000000000000000000, -0.0000000000000000000 ) ) ;
#373 = UNCERTAINTY_MEASURE_WITH_UNIT (LENGTH_MEASURE( 1.000000000000000100E-005 ), #235, 'distance_accuracy_value', 'NONE');
#374 = ORIENTED_EDGE ( 'NONE', *, *, #231, .F. ) ;
#375 = CIRCLE ( 'NONE', #352, 5.999999999999998200 ) ;
#376 = VECTOR ( 'NONE', #488, 1000.000000000000000 ) ;
#377 = FACE_BOUND ( 'NONE', #514, .T. ) ;
#378 = EDGE_CURVE ( 'NONE', #277, #469, #338, .T. ) ;
#379 = CARTESIAN_POINT ( 'NONE',  ( 0.0000000000000000000, 0.0000000000000000000, 0.0000000000000000000 ) ) ;
#380 = AXIS2_PLACEMENT_3D ( 'NONE', #105, #350, #347 ) ;
#381 = DIRECTION ( 'NONE',  ( -0.7071067811865438000, 0.0000000000000000000, -0.7071067811865512400 ) ) ;
#382 = ORIENTED_EDGE ( 'NONE', *, *, #334, .T. ) ;
#383 = ORIENTED_EDGE ( 'NONE', *, *, #686, .T. ) ;
#384 = AXIS2_PLACEMENT_3D ( 'NONE', #17, #193, #312 ) ;
#385 = DIRECTION ( 'NONE',  ( -0.7071067811865511300, 0.0000000000000000000, 0.7071067811865439100 ) ) ;
#386 = CARTESIAN_POINT ( 'NONE',  ( 33.94112549695450600, 84.00000000000000000, -42.42640687119267500 ) ) ;
#387 = CIRCLE ( 'NONE', #384, 5.999999999999998200 ) ;
#388 = EDGE_CURVE ( 'NONE', #578, #95, #202, .T. ) ;
#389 = DIRECTION ( 'NONE',  ( 0.0000000000000000000, 0.0000000000000000000, -1.000000000000000000 ) ) ;
#390 = ORIENTED_EDGE ( 'NONE', *, *, #627, .T. ) ;
#391 = EDGE_LOOP ( 'NONE', ( #704, #22, #157, #668 ) ) ;
#392 = DIRECTION ( 'NONE',  ( -0.0000000000000000000, -1.000000000000000000, -0.0000000000000000000 ) ) ;
#393 = ORIENTED_EDGE ( 'NONE', *, *, #611, .F. ) ;
#394 = CARTESIAN_POINT ( 'NONE',  ( 33.94112549695450600, 0.0000000000000000000, -42.42640687119267500 ) ) ;
#395 = CIRCLE ( 'NONE', #315, 4.249999999999997300 ) ;
#396 = CIRCLE ( 'NONE', #729, 4.249999999999996400 ) ;
#397 = PERSON ( 'UNSPECIFIED', 'UNSPECIFIED', 'UNSPECIFIED', ('UNSPECIFIED'), ('UNSPECIFIED'), ('UNSPECIFIED') ) ;
#398 = DIRECTION ( 'NONE',  ( -0.7071067811865435800, -0.0000000000000000000, -0.7071067811865513500 ) ) ;
#399 = EDGE_CURVE ( 'NONE', #54, #96, #453, .T. ) ;
#400 = DIRECTION ( 'NONE',  ( 0.0000000000000000000, 0.0000000000000000000, -1.000000000000000000 ) ) ;
#401 = EDGE_LOOP ( 'NONE', ( #13, #132 ) ) ;
#402 = EDGE_LOOP ( 'NONE', ( #100, #688, #737, #81 ) ) ;
#403 = DIRECTION ( 'NONE',  ( -0.7071067811865515700, 0.0000000000000000000, 0.7071067811865434600 ) ) ;
#404 = AXIS2_PLACEMENT_3D ( 'NONE', #243, #523, #123 ) ;
#405 = DIRECTION ( 'NONE',  ( -0.0000000000000000000, 1.000000000000000000, -0.0000000000000000000 ) ) ;
#406 = FACE_BOUND ( 'NONE', #225, .T. ) ;
#407 = FACE_OUTER_BOUND ( 'NONE', #489, .T. ) ;
#408 = CARTESIAN_POINT ( 'NONE',  ( -24.39782473475927900, 84.00000000000000000, -7.999999999999998200 ) ) ;
#409 = CARTESIAN_POINT ( 'NONE',  ( 23.47517606299226500, 64.50000000000000000, -31.96045743723052700 ) ) ;
#410 = EDGE_CURVE ( 'NONE', #139, #691, #690, .T. ) ;
#411 = ORIENTED_EDGE ( 'NONE', *, *, #158, .F. ) ;
#412 = CARTESIAN_POINT ( 'NONE',  ( -24.39782473475927900, 2.775557561562891400E-014, -5.999999999999999100 ) ) ;
#413 = EDGE_LOOP ( 'NONE', ( #607, #623 ) ) ;
#414 = ORIENTED_EDGE ( 'NONE', *, *, #460, .F. ) ;
#415 = DIRECTION ( 'NONE',  ( 0.0000000000000000000, 1.000000000000000000, 0.0000000000000000000 ) ) ;
#416 = VECTOR ( 'NONE', #471, 1000.000000000000100 ) ;
#417 = VECTOR ( 'NONE', #678, 999.9999999999998900 ) ;
#418 = DIRECTION ( 'NONE',  ( -0.7071067811865438000, 0.0000000000000000000, -0.7071067811865512400 ) ) ;
#419 = ADVANCED_FACE ( 'NONE', ( #104 ), #115, .T. ) ;
#420 = SECURITY_CLASSIFICATION_LEVEL ( 'unclassified' ) ;
#421 = CC_DESIGN_PERSON_AND_ORGANIZATION_ASSIGNMENT ( #89, #355, ( #162 ) ) ;
#422 = EDGE_LOOP ( 'NONE', ( #430, #565, #644, #237, #367, #249, #461, #205, #365, #477 ) ) ;
#423 = DIRECTION ( 'NONE',  ( 0.0000000000000000000, 0.0000000000000000000, -1.000000000000000000 ) ) ;
#424 = CARTESIAN_POINT ( 'NONE',  ( 12.36037993138707600, 84.00000000000000000, -21.06096250061891700 ) ) ;
#425 = APPROVAL_ROLE ( '' ) ;
#426 = CIRCLE ( 'NONE', #239, 6.000000000000000000 ) ;
#427 = EDGE_CURVE ( 'NONE', #289, #110, #301, .T. ) ;
#428 = CARTESIAN_POINT ( 'NONE',  ( 42.42640687119306600, 84.00000000000000000, -42.42640687119262600 ) ) ;
#429 = ORIENTED_EDGE ( 'NONE', *, *, #686, .F. ) ;
#430 = ORIENTED_EDGE ( 'NONE', *, *, #460, .T. ) ;
#431 = DIRECTION ( 'NONE',  ( -0.0000000000000000000, -0.0000000000000000000, -1.000000000000000000 ) ) ;
#432 = COORDINATED_UNIVERSAL_TIME_OFFSET ( 1, 0, .AHEAD. ) ;
#433 = LINE ( 'NONE', #228, #526 ) ;
#434 = VECTOR ( 'NONE', #730, 1000.000000000000000 ) ;
#435 = CARTESIAN_POINT ( 'NONE',  ( 23.47517606299226500, 19.50000000000000000, -31.96045743723052700 ) ) ;
#436 = CARTESIAN_POINT ( 'NONE',  ( -39.19891236737964800, 19.50000000000000000, -5.999999999999999100 ) ) ;
#437 = ORIENTED_EDGE ( 'NONE', *, *, #251, .F. ) ;
#438 = EDGE_CURVE ( 'NONE', #307, #578, #492, .T. ) ;
#439 = CARTESIAN_POINT ( 'NONE',  ( -39.19891236737964800, 19.50000000000000000, -8.673617379884035500E-016 ) ) ;
#440 = LOCAL_TIME ( 13, 1, 10.00000000000000000, #583 ) ;
#441 = LINE ( 'NONE', #222, #417 ) ;
#442 = VECTOR ( 'NONE', #653, 1000.000000000000000 ) ;
#443 = CARTESIAN_POINT ( 'NONE',  ( -34.94891236737965600, 19.50000000000000000, -8.673617379884035500E-016 ) ) ;
#444 =( GEOMETRIC_REPRESENTATION_CONTEXT ( 3 ) GLOBAL_UNCERTAINTY_ASSIGNED_CONTEXT ( ( #373 ) ) GLOBAL_UNIT_ASSIGNED_CONTEXT ( ( #235, #296, #5 ) ) REPRESENTATION_CONTEXT ( 'NONE', 'WORKASPACE' ) );
#445 = PLANE ( 'NONE',  #506 ) ;
#446 = ORIENTED_EDGE ( 'NONE', *, *, #287, .F. ) ;
#447 = ORIENTED_EDGE ( 'NONE', *, *, #672, .F. ) ;
#448 = EDGE_LOOP ( 'NONE', ( #134, #608, #67, #622 ) ) ;
#449 = VERTEX_POINT ( 'NONE', #32 ) ;
#450 = EDGE_CURVE ( 'NONE', #270, #498, #542, .T. ) ;
#451 = DIRECTION ( 'NONE',  ( -0.7071067811865515700, -0.0000000000000000000, 0.7071067811865435800 ) ) ;
#452 = DIRECTION ( 'NONE',  ( 6.938893903907228400E-015, 0.0000000000000000000, -1.000000000000000000 ) ) ;
#453 = CIRCLE ( 'NONE', #88, 4.249999999999990200 ) ;
#454 = CARTESIAN_POINT ( 'NONE',  ( 26.48037988303510200, 64.50000000000000000, -34.96566125727333200 ) ) ;
#455 = DIRECTION ( 'NONE',  ( -0.7071067811865515700, 0.0000000000000000000, 0.7071067811865433500 ) ) ;
#456 = ORIENTED_EDGE ( 'NONE', *, *, #634, .T. ) ;
#457 = AXIS2_PLACEMENT_3D ( 'NONE', #720, #333, #455 ) ;
#458 = DATE_AND_TIME ( #208, #279 ) ;
#459 = VECTOR ( 'NONE', #398, 1000.000000000000100 ) ;
#460 = EDGE_CURVE ( 'NONE', #140, #677, #584, .T. ) ;
#461 = ORIENTED_EDGE ( 'NONE', *, *, #581, .T. ) ;
#462 = EDGE_LOOP ( 'NONE', ( #446, #383, #719, #197 ) ) ;
#463 = ORIENTED_EDGE ( 'NONE', *, *, #173, .F. ) ;
#464 = CARTESIAN_POINT ( 'NONE',  ( -24.39782473475927900, 84.00000000000000000, -7.999999999999998200 ) ) ;
#465 = DIRECTION ( 'NONE',  ( -0.0000000000000000000, -0.0000000000000000000, -1.000000000000000000 ) ) ;
#466 = DIRECTION ( 'NONE',  ( -0.0000000000000000000, -1.000000000000000000, -0.0000000000000000000 ) ) ;
#467 = DIRECTION ( 'NONE',  ( 0.0000000000000000000, 0.0000000000000000000, -1.000000000000000000 ) ) ;
#468 = ORIENTED_EDGE ( 'NONE', *, *, #276, .F. ) ;
#469 = VERTEX_POINT ( 'NONE', #504 ) ;
#470 = CARTESIAN_POINT ( 'NONE',  ( -39.19891236737964100, 64.50000000000000000, -8.673617379884035500E-016 ) ) ;
#471 = DIRECTION ( 'NONE',  ( -0.7071067811865435800, -0.0000000000000000000, -0.7071067811865513500 ) ) ;
#472 = CARTESIAN_POINT ( 'NONE',  ( -39.19891236737964800, 19.50000000000000000, -5.999999999999999100 ) ) ;
#473 = AXIS2_PLACEMENT_3D ( 'NONE', #571, #415, #467 ) ;
#474 = VECTOR ( 'NONE', #37, 1000.000000000000000 ) ;
#475 = ADVANCED_FACE ( 'NONE', ( #406, #674, #180 ), #666, .F. ) ;
#476 = CYLINDRICAL_SURFACE ( 'NONE', #697, 4.249999999999996400 ) ;
#477 = ORIENTED_EDGE ( 'NONE', *, *, #257, .T. ) ;
#478 = DATE_TIME_ROLE ( 'classification_date' ) ;
#479 = DIRECTION ( 'NONE',  ( -0.0000000000000000000, -0.0000000000000000000, -1.000000000000000000 ) ) ;
#480 = VERTEX_POINT ( 'NONE', #394 ) ;
#481 = EDGE_LOOP ( 'NONE', ( #288, #687, #533, #654 ) ) ;
#482 = VERTEX_POINT ( 'NONE', #726 ) ;
#483 = ADVANCED_FACE ( 'NONE', ( #537 ), #445, .F. ) ;
#484 = COORDINATED_UNIVERSAL_TIME_OFFSET ( 1, 0, .AHEAD. ) ;
#485 = CARTESIAN_POINT ( 'NONE',  ( -43.44891236737964800, 19.50000000000000000, -8.673617379884035500E-016 ) ) ;
#486 = EDGE_CURVE ( 'NONE', #289, #188, #218, .T. ) ;
#487 = PLANE ( 'NONE',  #510 ) ;
#488 = DIRECTION ( 'NONE',  ( -0.0000000000000000000, 1.000000000000000000, -0.0000000000000000000 ) ) ;
#489 = EDGE_LOOP ( 'NONE', ( #186, #660, #511, #363 ) ) ;
#490 = VERTEX_POINT ( 'NONE', #673 ) ;
#491 = DIRECTION ( 'NONE',  ( -0.0000000000000000000, -0.0000000000000000000, -1.000000000000000000 ) ) ;
#492 = LINE ( 'NONE', #93, #709 ) ;
#493 = DIRECTION ( 'NONE',  ( -0.7071067811865511300, 0.0000000000000000000, 0.7071067811865439100 ) ) ;
#494 = VECTOR ( 'NONE', #128, 1000.000000000000000 ) ;
#495 = ORIENTED_EDGE ( 'NONE', *, *, #92, .T. ) ;
#496 = EDGE_CURVE ( 'NONE', #691, #215, #229, .T. ) ;
#497 = VERTEX_POINT ( 'NONE', #99 ) ;
#498 = VERTEX_POINT ( 'NONE', #507 ) ;
#499 = APPROVAL_PERSON_ORGANIZATION ( #328, #531, #362 ) ;
#500 = CARTESIAN_POINT ( 'NONE',  ( 0.0000000000000000000, 0.0000000000000000000, 0.0000000000000000000 ) ) ;
#501 = CIRCLE ( 'NONE', #298, 4.249999999999996400 ) ;
#502 = VECTOR ( 'NONE', #79, 1000.000000000000000 ) ;
#503 = CYLINDRICAL_SURFACE ( 'NONE', #535, 4.249999999999994700 ) ;
#504 = CARTESIAN_POINT ( 'NONE',  ( -34.94891236737964800, 64.50000000000000000, -5.999999999999999100 ) ) ;
#505 = VERTEX_POINT ( 'NONE', #155 ) ;
#506 = AXIS2_PLACEMENT_3D ( 'NONE', #617, #671, #151 ) ;
#507 = CARTESIAN_POINT ( 'NONE',  ( -43.44891236737964100, 64.50000000000000000, -5.999999999999999100 ) ) ;
#508 = CYLINDRICAL_SURFACE ( 'NONE', #380, 6.000000000000000000 ) ;
#509 = FACE_OUTER_BOUND ( 'NONE', #402, .T. ) ;
#510 = AXIS2_PLACEMENT_3D ( 'NONE', #585, #587, #698 ) ;
#511 = ORIENTED_EDGE ( 'NONE', *, *, #450, .T. ) ;
#512 = VERTEX_POINT ( 'NONE', #39 ) ;
#513 = FACE_OUTER_BOUND ( 'NONE', #462, .T. ) ;
#514 = EDGE_LOOP ( 'NONE', ( #332, #196 ) ) ;
#515 = CARTESIAN_POINT ( 'NONE',  ( -39.19891236737964100, 64.50000000000000000, -5.999999999999999100 ) ) ;
#516 = PERSON_AND_ORGANIZATION ( #397, #610 ) ;
#517 = LINE ( 'NONE', #379, #62 ) ;
#518 = DIRECTION ( 'NONE',  ( -0.7071067811865436900, -0.0000000000000000000, -0.7071067811865514600 ) ) ;
#519 = EDGE_CURVE ( 'NONE', #669, #96, #321, .T. ) ;
#520 = CARTESIAN_POINT ( 'NONE',  ( 12.72792206135793500, 84.00000000000000000, -21.21320343559634100 ) ) ;
#521 = VERTEX_POINT ( 'NONE', #551 ) ;
#522 = ORIENTED_EDGE ( 'NONE', *, *, #224, .T. ) ;
#523 = DIRECTION ( 'NONE',  ( -0.0000000000000000000, -1.000000000000000000, -0.0000000000000000000 ) ) ;
#524 = CARTESIAN_POINT ( 'NONE',  ( -24.39782473475927900, 84.00000000000000000, -5.999999999999999100 ) ) ;
#525 = ADVANCED_FACE ( 'NONE', ( #293 ), #740, .F. ) ;
#526 = VECTOR ( 'NONE', #107, 1000.000000000000000 ) ;
#527 = DIRECTION ( 'NONE',  ( -1.000000000000000000, 0.0000000000000000000, 0.0000000000000000000 ) ) ;
#528 = LINE ( 'NONE', #593, #665 ) ;
#529 = APPLICATION_PROTOCOL_DEFINITION ( 'international standard', 'config_control_design', 1994, #61 ) ;
#530 = CARTESIAN_POINT ( 'NONE',  ( -39.19891236737964800, 19.50000000000000000, -8.673617379884035500E-016 ) ) ;
#531 = APPROVAL ( #121, 'UNSPECIFIED' ) ;
#532 = DIRECTION ( 'NONE',  ( 0.9238795325112877400, 0.0000000000000000000, -0.3826834323650874500 ) ) ;
#533 = ORIENTED_EDGE ( 'NONE', *, *, #486, .T. ) ;
#534 = CARTESIAN_POINT ( 'NONE',  ( 0.0000000000000000000, 84.00000000000000000, 0.0000000000000000000 ) ) ;
#535 = AXIS2_PLACEMENT_3D ( 'NONE', #575, #1, #238 ) ;
#536 = LOCAL_TIME ( 13, 1, 10.00000000000000000, #484 ) ;
#537 = FACE_OUTER_BOUND ( 'NONE', #422, .T. ) ;
#538 = FACE_BOUND ( 'NONE', #147, .T. ) ;
#539 = CARTESIAN_POINT ( 'NONE',  ( 0.0000000000000000000, 84.00000000000000000, 0.0000000000000000000 ) ) ;
#540 = ORIENTED_EDGE ( 'NONE', *, *, #378, .T. ) ;
#541 = ORIENTED_EDGE ( 'NONE', *, *, #450, .F. ) ;
#542 = LINE ( 'NONE', #612, #160 ) ;
#543 = EDGE_CURVE ( 'NONE', #521, #248, #72, .T. ) ;
#544 = DIRECTION ( 'NONE',  ( 0.0000000000000000000, 0.0000000000000000000, -1.000000000000000000 ) ) ;
#545 = ORIENTED_EDGE ( 'NONE', *, *, #581, .F. ) ;
#546 = DIRECTION ( 'NONE',  ( 0.0000000000000000000, -1.000000000000000000, 0.0000000000000000000 ) ) ;
#547 = CIRCLE ( 'NONE', #253, 2.000000000000001800 ) ;
#548 = DIRECTION ( 'NONE',  ( 0.0000000000000000000, 0.0000000000000000000, -1.000000000000000000 ) ) ;
#549 = CC_DESIGN_APPROVAL ( #138, ( #126 ) ) ;
#550 = LINE ( 'NONE', #368, #494 ) ;
#551 = CARTESIAN_POINT ( 'NONE',  ( 24.71261293006868300, 19.50000000000000000, -24.71261293006841700 ) ) ;
#552 = EDGE_LOOP ( 'NONE', ( #616, #374, #522, #393 ) ) ;
#553 = EDGE_CURVE ( 'NONE', #139, #480, #25, .T. ) ;
#554 = ORIENTED_EDGE ( 'NONE', *, *, #269, .F. ) ;
#555 = VECTOR ( 'NONE', #566, 1000.000000000000000 ) ;
#556 = AXIS2_PLACEMENT_3D ( 'NONE', #435, #658, #493 ) ;
#557 = DIRECTION ( 'NONE',  ( 0.0000000000000000000, 1.000000000000000000, -0.0000000000000000000 ) ) ;
#558 = ORIENTED_EDGE ( 'NONE', *, *, #519, .T. ) ;
#559 = AXIS2_PLACEMENT_3D ( 'NONE', #464, #557, #733 ) ;
#560 = CARTESIAN_POINT ( 'NONE',  ( 23.47517606299226500, 19.50000000000000000, -31.96045743723052700 ) ) ;
#561 = PERSON_AND_ORGANIZATION ( #397, #610 ) ;
#562 = CARTESIAN_POINT ( 'NONE',  ( 38.18376618407376100, 84.00000000000000000, -44.18376618407336300 ) ) ;
#563 = VECTOR ( 'NONE', #451, 1000.000000000000000 ) ;
#564 = AXIS2_PLACEMENT_3D ( 'NONE', #198, #381, #27 ) ;
#565 = ORIENTED_EDGE ( 'NONE', *, *, #231, .T. ) ;
#566 = DIRECTION ( 'NONE',  ( 0.0000000000000000000, 1.000000000000000000, -0.0000000000000000000 ) ) ;
#567 = VERTEX_POINT ( 'NONE', #278 ) ;
#568 = VERTEX_POINT ( 'NONE', #500 ) ;
#569 = DIRECTION ( 'NONE',  ( 0.0000000000000000000, 1.000000000000000000, 0.0000000000000000000 ) ) ;
#570 = PERSON_AND_ORGANIZATION_ROLE ( 'creator' ) ;
#571 = CARTESIAN_POINT ( 'NONE',  ( 38.18376618407376100, 84.00000000000000000, -38.18376618407336300 ) ) ;
#572 = CYLINDRICAL_SURFACE ( 'NONE', #725, 4.249999999999994700 ) ;
#573 = VECTOR ( 'NONE', #207, 1000.000000000000100 ) ;
#574 = CARTESIAN_POINT ( 'NONE',  ( -23.99999999999997200, 84.00000000000000000, -5.999999999999999100 ) ) ;
#575 = CARTESIAN_POINT ( 'NONE',  ( 23.47517606299226500, 19.50000000000000000, -31.96045743723052700 ) ) ;
#576 = PLANE ( 'NONE',  #36 ) ;
#577 = DIRECTION ( 'NONE',  ( 0.0000000000000000000, -1.000000000000000000, 0.0000000000000000000 ) ) ;
#578 = VERTEX_POINT ( 'NONE', #52 ) ;
#579 = EDGE_LOOP ( 'NONE', ( #38, #55 ) ) ;
#580 = DIRECTION ( 'NONE',  ( 1.000000000000000000, 0.0000000000000000000, 0.0000000000000000000 ) ) ;
#581 = EDGE_CURVE ( 'NONE', #567, #16, #135, .T. ) ;
#582 = DATE_TIME_ROLE ( 'creation_date' ) ;
#583 = COORDINATED_UNIVERSAL_TIME_OFFSET ( 1, 0, .AHEAD. ) ;
#584 = LINE ( 'NONE', #274, #620 ) ;
#585 = CARTESIAN_POINT ( 'NONE',  ( -60.00000000000000000, 84.00000000000000000, -5.999999999999999100 ) ) ;
#586 = ADVANCED_FACE ( 'NONE', ( #44 ), #508, .T. ) ;
#587 = DIRECTION ( 'NONE',  ( 0.0000000000000000000, 0.0000000000000000000, 1.000000000000000000 ) ) ;
#588 = CC_DESIGN_APPROVAL ( #531, ( #219 ) ) ;
#589 = ORIENTED_EDGE ( 'NONE', *, *, #611, .T. ) ;
#590 = DIRECTION ( 'NONE',  ( -0.7071067811865515700, 0.0000000000000000000, 0.7071067811865433500 ) ) ;
#591 = ORIENTED_EDGE ( 'NONE', *, *, #594, .T. ) ;
#592 = ORIENTED_EDGE ( 'NONE', *, *, #672, .T. ) ;
#593 = CARTESIAN_POINT ( 'NONE',  ( -60.00000000000000000, 84.00000000000000000, -5.999999999999999100 ) ) ;
#594 = EDGE_CURVE ( 'NONE', #215, #497, #142, .T. ) ;
#595 = CARTESIAN_POINT ( 'NONE',  ( 38.18376618407376100, 84.00000000000000000, -38.18376618407336300 ) ) ;
#596 = AXIS2_PLACEMENT_3D ( 'NONE', #184, #696, #361 ) ;
#597 = CARTESIAN_POINT ( 'NONE',  ( -34.94891236737964800, 64.50000000000000000, -8.673617379884035500E-016 ) ) ;
#598 = ORIENTED_EDGE ( 'NONE', *, *, #553, .F. ) ;
#599 = DIRECTION ( 'NONE',  ( 0.0000000000000000000, 1.000000000000000000, 0.0000000000000000000 ) ) ;
#600 = CARTESIAN_POINT ( 'NONE',  ( 24.71261293006868700, 64.50000000000000000, -24.71261293006842100 ) ) ;
#601 = PRODUCT_RELATED_PRODUCT_CATEGORY ( 'detail', '', ( #234 ) ) ;
#602 = VECTOR ( 'NONE', #148, 1000.000000000000000 ) ;
#603 = VECTOR ( 'NONE', #372, 1000.000000000000000 ) ;
#604 = CYLINDRICAL_SURFACE ( 'NONE', #371, 4.249999999999996400 ) ;
#605 = CARTESIAN_POINT ( 'NONE',  ( 27.71781675011152000, 19.50000000000000000, -27.71781675011122200 ) ) ;
#606 = EDGE_CURVE ( 'NONE', #490, #248, #395, .T. ) ;
#607 = ORIENTED_EDGE ( 'NONE', *, *, #399, .F. ) ;
#608 = ORIENTED_EDGE ( 'NONE', *, *, #281, .T. ) ;
#609 = DIRECTION ( 'NONE',  ( -0.7071067811865436900, -0.0000000000000000000, -0.7071067811865514600 ) ) ;
#610 = ORGANIZATION ( 'UNSPECIFIED', 'UNSPECIFIED', '' ) ;
#611 = EDGE_CURVE ( 'NONE', #146, #271, #242, .T. ) ;
#612 = CARTESIAN_POINT ( 'NONE',  ( -43.44891236737964100, 64.50000000000000000, -5.999999999999999100 ) ) ;
#613 = DIRECTION ( 'NONE',  ( -1.000000000000000000, 0.0000000000000000000, 0.0000000000000000000 ) ) ;
#614 = PRODUCT_DEFINITION_SHAPE ( 'NONE', 'NONE',  #126 ) ;
#615 = AXIS2_PLACEMENT_3D ( 'NONE', #595, #546, #323 ) ;
#616 = ORIENTED_EDGE ( 'NONE', *, *, #49, .F. ) ;
#617 = CARTESIAN_POINT ( 'NONE',  ( 0.0000000000000000000, 84.00000000000000000, 0.0000000000000000000 ) ) ;
#618 = VERTEX_POINT ( 'NONE', #562 ) ;
#619 = CARTESIAN_POINT ( 'NONE',  ( -23.63245787002910700, 84.00000000000000000, -6.152240934977426100 ) ) ;
#620 = VECTOR ( 'NONE', #214, 999.9999999999998900 ) ;
#621 = AXIS2_PLACEMENT_3D ( 'NONE', #685, #569, #739 ) ;
#622 = ORIENTED_EDGE ( 'NONE', *, *, #553, .T. ) ;
#623 = ORIENTED_EDGE ( 'NONE', *, *, #131, .F. ) ;
#624 = CC_DESIGN_DATE_AND_TIME_ASSIGNMENT ( #458, #478, ( #162 ) ) ;
#625 = ORIENTED_EDGE ( 'NONE', *, *, #15, .F. ) ;
#626 = PERSON_AND_ORGANIZATION ( #397, #610 ) ;
#627 = EDGE_CURVE ( 'NONE', #568, #271, #441, .T. ) ;
#628 = MANIFOLD_SOLID_BREP ( 'Mirror1', #167 ) ;
#629 = DIRECTION ( 'NONE',  ( -0.7071067811865511300, 0.0000000000000000000, 0.7071067811865439100 ) ) ;
#630 = DIRECTION ( 'NONE',  ( -0.0000000000000000000, -1.000000000000000000, 0.0000000000000000000 ) ) ;
#631 = ORIENTED_EDGE ( 'NONE', *, *, #388, .F. ) ;
#632 = ORIENTED_EDGE ( 'NONE', *, *, #209, .F. ) ;
#633 = CARTESIAN_POINT ( 'NONE',  ( 27.71781675011152000, 64.50000000000000000, -27.71781675011122200 ) ) ;
#634 = EDGE_CURVE ( 'NONE', #110, #567, #60, .T. ) ;
#635 = DIRECTION ( 'NONE',  ( 0.0000000000000000000, 0.0000000000000000000, 1.000000000000000000 ) ) ;
#636 = ADVANCED_FACE ( 'NONE', ( #127 ), #572, .F. ) ;
#637 = LINE ( 'NONE', #340, #83 ) ;
#638 = PERSON_AND_ORGANIZATION_ROLE ( 'design_owner' ) ;
#639 = CIRCLE ( 'NONE', #185, 4.249999999999990200 ) ;
#640 = EDGE_CURVE ( 'NONE', #188, #505, #731, .T. ) ;
#641 = AXIS2_PLACEMENT_3D ( 'NONE', #11, #491, #712 ) ;
#642 = APPROVAL_ROLE ( '' ) ;
#643 = CARTESIAN_POINT ( 'NONE',  ( -54.00000000000000000, 0.0000000000000000000, -5.999999999999999100 ) ) ;
#644 = ORIENTED_EDGE ( 'NONE', *, *, #119, .T. ) ;
#645 = CARTESIAN_POINT ( 'NONE',  ( 0.0000000000000000000, 84.00000000000000000, 0.0000000000000000000 ) ) ;
#646 = EDGE_CURVE ( 'NONE', #469, #498, #501, .T. ) ;
#647 = ADVANCED_FACE ( 'NONE', ( #18 ), #152, .F. ) ;
#648 = APPROVAL_DATE_TIME ( #190, #664 ) ;
#649 = CIRCLE ( 'NONE', #404, 6.000000000000000000 ) ;
#650 = DIRECTION ( 'NONE',  ( -1.000000000000000000, 0.0000000000000000000, 0.0000000000000000000 ) ) ;
#651 = VECTOR ( 'NONE', #71, 1000.000000000000000 ) ;
#652 = EDGE_CURVE ( 'NONE', #175, #95, #433, .T. ) ;
#653 = DIRECTION ( 'NONE',  ( -0.0000000000000000000, -1.000000000000000000, -0.0000000000000000000 ) ) ;
#654 = ORIENTED_EDGE ( 'NONE', *, *, #640, .T. ) ;
#655 = CYLINDRICAL_SURFACE ( 'NONE', #615, 5.999999999999998200 ) ;
#656 = CARTESIAN_POINT ( 'NONE',  ( -24.39782473475927900, 0.0000000000000000000, -5.999999999999999100 ) ) ;
#657 = AXIS2_PLACEMENT_3D ( 'NONE', #539, #705, #14 ) ;
#658 = DIRECTION ( 'NONE',  ( -0.7071067811865436900, -0.0000000000000000000, -0.7071067811865514600 ) ) ;
#659 = EDGE_LOOP ( 'NONE', ( #411, #540, #736, #541 ) ) ;
#660 = ORIENTED_EDGE ( 'NONE', *, *, #92, .F. ) ;
#661 = APPROVAL_PERSON_ORGANIZATION ( #679, #664, #642 ) ;
#662 = CALENDAR_DATE ( 2018, 9, 8 ) ;
#663 = CARTESIAN_POINT ( 'NONE',  ( 12.72792206135793500, 84.00000000000000000, -21.21320343559634100 ) ) ;
#664 = APPROVAL ( #689, 'UNSPECIFIED' ) ;
#665 = VECTOR ( 'NONE', #309, 1000.000000000000000 ) ;
#666 = PLANE ( 'NONE',  #283 ) ;
#667 = EDGE_CURVE ( 'NONE', #260, #54, #637, .T. ) ;
#668 = ORIENTED_EDGE ( 'NONE', *, *, #209, .T. ) ;
#669 = VERTEX_POINT ( 'NONE', #684 ) ;
#670 = ORIENTED_EDGE ( 'NONE', *, *, #287, .T. ) ;
#671 = DIRECTION ( 'NONE',  ( 0.0000000000000000000, -1.000000000000000000, -0.0000000000000000000 ) ) ;
#672 = EDGE_CURVE ( 'NONE', #480, #146, #375, .T. ) ;
#673 = CARTESIAN_POINT ( 'NONE',  ( 26.48037988303510600, 19.50000000000000000, -34.96566125727333900 ) ) ;
#674 = FACE_BOUND ( 'NONE', #579, .T. ) ;
#675 = LINE ( 'NONE', #357, #171 ) ;
#676 = CARTESIAN_POINT ( 'NONE',  ( 23.47517606299226500, 19.50000000000000000, -31.96045743723052700 ) ) ;
#677 = VERTEX_POINT ( 'NONE', #290 ) ;
#678 = DIRECTION ( 'NONE',  ( 0.7071067811865512400, 0.0000000000000000000, -0.7071067811865439100 ) ) ;
#679 = PERSON_AND_ORGANIZATION ( #397, #610 ) ;
#680 = EDGE_CURVE ( 'NONE', #16, #289, #311, .T. ) ;
#681 = CYLINDRICAL_SURFACE ( 'NONE', #621, 2.000000000000001800 ) ;
#682 = DIRECTION ( 'NONE',  ( 0.0000000000000000000, 0.0000000000000000000, -1.000000000000000000 ) ) ;
#683 = VECTOR ( 'NONE', #577, 1000.000000000000000 ) ;
#684 = CARTESIAN_POINT ( 'NONE',  ( 30.72302057015435800, 64.50000000000000000, -30.72302057015402400 ) ) ;
#685 = CARTESIAN_POINT ( 'NONE',  ( 11.59501306665690000, 84.00000000000000000, -22.90872156564149300 ) ) ;
#686 = EDGE_CURVE ( 'NONE', #735, #490, #217, .T. ) ;
#687 = ORIENTED_EDGE ( 'NONE', *, *, #680, .T. ) ;
#688 = ORIENTED_EDGE ( 'NONE', *, *, #438, .T. ) ;
#689 = APPROVAL_STATUS ( 'not_yet_approved' ) ;
#690 = LINE ( 'NONE', #663, #563 ) ;
#691 = VERTEX_POINT ( 'NONE', #10 ) ;
#692 = MECHANICAL_CONTEXT ( 'NONE', #57, 'mechanical' ) ;
#693 = CARTESIAN_POINT ( 'NONE',  ( 27.71781675011152000, 19.50000000000000000, -27.71781675011122200 ) ) ;
#694 = CARTESIAN_POINT ( 'NONE',  ( 30.72302057015436100, 19.50000000000000000, -30.72302057015403100 ) ) ;
#695 = ORIENTED_EDGE ( 'NONE', *, *, #718, .F. ) ;
#696 = DIRECTION ( 'NONE',  ( -0.0000000000000000000, -0.0000000000000000000, -1.000000000000000000 ) ) ;
#697 = AXIS2_PLACEMENT_3D ( 'NONE', #8, #300, #65 ) ;
#698 = DIRECTION ( 'NONE',  ( 1.000000000000000000, 0.0000000000000000000, -0.0000000000000000000 ) ) ;
#699 = CIRCLE ( 'NONE', #204, 4.249999999999996400 ) ;
#700 = CC_DESIGN_APPROVAL ( #664, ( #162 ) ) ;
#701 = CARTESIAN_POINT ( 'NONE',  ( 33.94112549695450600, 84.00000000000000000, -42.42640687119267500 ) ) ;
#702 = ADVANCED_FACE ( 'NONE', ( #43 ), #576, .T. ) ;
#703 = ORIENTED_EDGE ( 'NONE', *, *, #26, .F. ) ;
#704 = ORIENTED_EDGE ( 'NONE', *, *, #266, .T. ) ;
#705 = DIRECTION ( 'NONE',  ( 0.0000000000000000000, 0.0000000000000000000, -1.000000000000000000 ) ) ;
#706 = AXIS2_PLACEMENT_3D ( 'NONE', #252, #431, #650 ) ;
#707 = ADVANCED_FACE ( 'NONE', ( #336 ), #356, .F. ) ;
#708 = CARTESIAN_POINT ( 'NONE',  ( 38.18376618407376100, 84.00000000000000000, -38.18376618407336300 ) ) ;
#709 = VECTOR ( 'NONE', #42, 1000.000000000000000 ) ;
#710 = AXIS2_PLACEMENT_3D ( 'NONE', #240, #351, #174 ) ;
#711 = CARTESIAN_POINT ( 'NONE',  ( -34.94891236737964800, 64.50000000000000000, -5.999999999999999100 ) ) ;
#712 = DIRECTION ( 'NONE',  ( -1.000000000000000000, 0.0000000000000000000, 0.0000000000000000000 ) ) ;
#713 = ORIENTED_EDGE ( 'NONE', *, *, #427, .F. ) ;
#714 = CC_DESIGN_PERSON_AND_ORGANIZATION_ASSIGNMENT ( #124, #250, ( #219 ) ) ;
#715 = DATE_AND_TIME ( #227, #440 ) ;
#716 = LINE ( 'NONE', #24, #376 ) ;
#717 = DIRECTION ( 'NONE',  ( 1.000000000000000000, -0.0000000000000000000, -0.0000000000000000000 ) ) ;
#718 = EDGE_CURVE ( 'NONE', #512, #188, #649, .T. ) ;
#719 = ORIENTED_EDGE ( 'NONE', *, *, #606, .T. ) ;
#720 = CARTESIAN_POINT ( 'NONE',  ( 23.47517606299226500, 64.50000000000000000, -31.96045743723052700 ) ) ;
#721 = ORIENTED_EDGE ( 'NONE', *, *, #158, .T. ) ;
#722 = CARTESIAN_POINT ( 'NONE',  ( 11.59501306665690000, 84.00000000000000000, -22.90872156564149300 ) ) ;
#723 = VECTOR ( 'NONE', #28, 1000.000000000000000 ) ;
#724 = DIRECTION ( 'NONE',  ( 0.0000000000000000000, 0.0000000000000000000, -1.000000000000000000 ) ) ;
#725 = AXIS2_PLACEMENT_3D ( 'NONE', #676, #518, #403 ) ;
#726 = CARTESIAN_POINT ( 'NONE',  ( 13.00922662902998700, 0.0000000000000000000, -21.49450800326839000 ) ) ;
#727 = ORIENTED_EDGE ( 'NONE', *, *, #427, .T. ) ;
#728 = DIRECTION ( 'NONE',  ( -0.0000000000000000000, -1.000000000000000000, -0.0000000000000000000 ) ) ;
#729 = AXIS2_PLACEMENT_3D ( 'NONE', #530, #118, #527 ) ;
#730 = DIRECTION ( 'NONE',  ( 0.0000000000000000000, -1.000000000000000000, 0.0000000000000000000 ) ) ;
#731 = LINE ( 'NONE', #226, #282 ) ;
#732 = CIRCLE ( 'NONE', #564, 4.249999999999990200 ) ;
#733 = DIRECTION ( 'NONE',  ( 0.0000000000000000000, 0.0000000000000000000, 1.000000000000000000 ) ) ;
#734 = CC_DESIGN_SECURITY_CLASSIFICATION ( #162, ( #219 ) ) ;
#735 = VERTEX_POINT ( 'NONE', #694 ) ;
#736 = ORIENTED_EDGE ( 'NONE', *, *, #646, .T. ) ;
#737 = ORIENTED_EDGE ( 'NONE', *, *, #388, .T. ) ;
#738 = DIRECTION ( 'NONE',  ( -0.7071067811865515700, 0.0000000000000000000, 0.7071067811865433500 ) ) ;
#739 = DIRECTION ( 'NONE',  ( 0.0000000000000000000, 0.0000000000000000000, 1.000000000000000000 ) ) ;
#740 = CYLINDRICAL_SURFACE ( 'NONE', #457, 4.249999999999990200 ) ;
#741 = DIRECTION ( 'NONE',  ( 0.0000000000000000000, -1.000000000000000000, -0.0000000000000000000 ) ) ;
ENDSEC;
END-ISO-10303-21;
