ISO-10303-21;
HEADER;
FILE_DESCRIPTION (( 'STEP AP203' ),
    '1' );
FILE_NAME ('ALP2445.STEP',
    '2018-06-21T07:43:05',
    ( '' ),
    ( '' ),
    'SwSTEP 2.0',
    'SolidWorks 2016',
    '' );
FILE_SCHEMA (( 'CONFIG_CONTROL_DESIGN' ));
ENDSEC;

DATA;
#1 = CARTESIAN_POINT ( 'NONE',  ( -23.99999999999997200, 39.00000000000000000, -5.999999999999999100 ) ) ;
#2 = PRODUCT_DEFINITION_FORMATION_WITH_SPECIFIED_SOURCE ( 'ANY', '', #265, .NOT_KNOWN. ) ;
#3 = AXIS2_PLACEMENT_3D ( 'NONE', #435, #210, #483 ) ;
#4 = CARTESIAN_POINT ( 'NONE',  ( 42.42640687119306600, 0.0000000000000000000, -42.42640687119262600 ) ) ;
#5 = CIRCLE ( 'NONE', #101, 5.999999999999998200 ) ;
#6 = EDGE_LOOP ( 'NONE', ( #306, #168, #304, #161 ) ) ;
#7 = ADVANCED_FACE ( 'NONE', ( #86 ), #147, .T. ) ;
#8 = ORIENTED_EDGE ( 'NONE', *, *, #353, .F. ) ;
#9 = CARTESIAN_POINT ( 'NONE',  ( -39.19891236737964100, 19.49999999999999600, -8.673617379884035500E-016 ) ) ;
#10 = AXIS2_PLACEMENT_3D ( 'NONE', #165, #24, #487 ) ;
#11 = EDGE_CURVE ( 'NONE', #327, #363, #584, .T. ) ;
#12 = CARTESIAN_POINT ( 'NONE',  ( 33.94112549695450600, 39.00000000000000000, -42.42640687119267500 ) ) ;
#13 = CARTESIAN_POINT ( 'NONE',  ( 38.18376618407376100, 39.00000000000000000, -38.18376618407336300 ) ) ;
#14 = ORIENTED_EDGE ( 'NONE', *, *, #425, .F. ) ;
#15 = ORIENTED_EDGE ( 'NONE', *, *, #154, .F. ) ;
#16 = ORIENTED_EDGE ( 'NONE', *, *, #195, .F. ) ;
#17 = CARTESIAN_POINT ( 'NONE',  ( 38.18376618407376100, 0.0000000000000000000, -38.18376618407336300 ) ) ;
#18 = ADVANCED_FACE ( 'NONE', ( #276 ), #385, .F. ) ;
#19 = LINE ( 'NONE', #458, #490 ) ;
#20 = ORIENTED_EDGE ( 'NONE', *, *, #519, .T. ) ;
#21 =( NAMED_UNIT ( * ) PLANE_ANGLE_UNIT ( ) SI_UNIT ( $, .RADIAN. ) );
#22 = ORIENTED_EDGE ( 'NONE', *, *, #154, .T. ) ;
#23 = APPROVAL_ROLE ( '' ) ;
#24 = DIRECTION ( 'NONE',  ( 0.3826834323650875100, -0.0000000000000000000, 0.9238795325112877400 ) ) ;
#25 = CARTESIAN_POINT ( 'NONE',  ( 13.00922662902999400, 39.00000000000000000, -21.49450800326839300 ) ) ;
#26 = EDGE_CURVE ( 'NONE', #130, #212, #240, .T. ) ;
#27 = APPROVAL_DATE_TIME ( #180, #127 ) ;
#28 = ORIENTED_EDGE ( 'NONE', *, *, #455, .T. ) ;
#29 = ORIENTED_EDGE ( 'NONE', *, *, #307, .F. ) ;
#30 = ORIENTED_EDGE ( 'NONE', *, *, #300, .F. ) ;
#31 = PLANE ( 'NONE',  #67 ) ;
#32 = CALENDAR_DATE ( 2018, 21, 6 ) ;
#33 = CC_DESIGN_PERSON_AND_ORGANIZATION_ASSIGNMENT ( #383, #525, ( #2 ) ) ;
#34 = CYLINDRICAL_SURFACE ( 'NONE', #562, 4.249999999999997300 ) ;
#35 = VECTOR ( 'NONE', #526, 1000.000000000000000 ) ;
#36 = ORIENTED_EDGE ( 'NONE', *, *, #177, .T. ) ;
#37 = EDGE_CURVE ( 'NONE', #43, #247, #262, .T. ) ;
#38 = DIRECTION ( 'NONE',  ( 0.0000000000000000000, 0.0000000000000000000, -1.000000000000000000 ) ) ;
#39 = EDGE_CURVE ( 'NONE', #270, #498, #356, .T. ) ;
#40 = VECTOR ( 'NONE', #367, 1000.000000000000000 ) ;
#41 = AXIS2_PLACEMENT_3D ( 'NONE', #305, #221, #489 ) ;
#42 = VERTEX_POINT ( 'NONE', #294 ) ;
#43 = VERTEX_POINT ( 'NONE', #25 ) ;
#44 = EDGE_CURVE ( 'NONE', #522, #394, #218, .T. ) ;
#45 = COORDINATED_UNIVERSAL_TIME_OFFSET ( 1, 0, .AHEAD. ) ;
#46 = VECTOR ( 'NONE', #388, 1000.000000000000000 ) ;
#47 = ORIENTED_EDGE ( 'NONE', *, *, #76, .T. ) ;
#48 = CARTESIAN_POINT ( 'NONE',  ( -54.00000000000000000, 39.00000000000000000, -5.999999999999999100 ) ) ;
#49 = ADVANCED_FACE ( 'NONE', ( #203 ), #208, .F. ) ;
#50 = CARTESIAN_POINT ( 'NONE',  ( -34.94891236737964800, 19.49999999999999600, -8.673617379884035500E-016 ) ) ;
#51 = APPROVAL ( #112, 'UNSPECIFIED' ) ;
#52 = ADVANCED_FACE ( 'NONE', ( #370, #234 ), #346, .F. ) ;
#53 = CARTESIAN_POINT ( 'NONE',  ( -54.00000000000000000, 0.0000000000000000000, -5.999999999999999100 ) ) ;
#54 = FACE_OUTER_BOUND ( 'NONE', #336, .T. ) ;
#55 = LINE ( 'NONE', #75, #530 ) ;
#56 = DIRECTION ( 'NONE',  ( -0.7071067811865435800, -0.0000000000000000000, -0.7071067811865513500 ) ) ;
#57 = VERTEX_POINT ( 'NONE', #528 ) ;
#58 = EDGE_CURVE ( 'NONE', #327, #533, #436, .T. ) ;
#59 = CARTESIAN_POINT ( 'NONE',  ( -54.00000000000000000, 39.00000000000000000, 8.673617379884035500E-016 ) ) ;
#60 = DIRECTION ( 'NONE',  ( -0.0000000000000000000, -0.0000000000000000000, -1.000000000000000000 ) ) ;
#61 = CARTESIAN_POINT ( 'NONE',  ( 12.72792206135793500, 0.0000000000000000000, -21.21320343559634100 ) ) ;
#62 = CARTESIAN_POINT ( 'NONE',  ( 0.0000000000000000000, 39.00000000000000000, 0.0000000000000000000 ) ) ;
#63 = LINE ( 'NONE', #420, #536 ) ;
#64 = ADVANCED_FACE ( 'NONE', ( #114, #391 ), #31, .F. ) ;
#65 = ORIENTED_EDGE ( 'NONE', *, *, #250, .F. ) ;
#66 = CC_DESIGN_APPROVAL ( #255, ( #2 ) ) ;
#67 = AXIS2_PLACEMENT_3D ( 'NONE', #74, #532, #351 ) ;
#68 = MECHANICAL_CONTEXT ( 'NONE', #527, 'mechanical' ) ;
#69 = VECTOR ( 'NONE', #56, 1000.000000000000100 ) ;
#70 = FACE_BOUND ( 'NONE', #138, .T. ) ;
#71 = CARTESIAN_POINT ( 'NONE',  ( 0.0000000000000000000, 39.00000000000000000, 0.0000000000000000000 ) ) ;
#72 = AXIS2_PLACEMENT_3D ( 'NONE', #405, #220, #135 ) ;
#73 = AXIS2_PLACEMENT_3D ( 'NONE', #17, #467, #563 ) ;
#74 = CARTESIAN_POINT ( 'NONE',  ( 0.0000000000000000000, 39.00000000000000000, 0.0000000000000000000 ) ) ;
#75 = CARTESIAN_POINT ( 'NONE',  ( -23.99999999999997200, 0.0000000000000000000, -5.999999999999999100 ) ) ;
#76 = EDGE_CURVE ( 'NONE', #484, #43, #268, .T. ) ;
#77 = APPROVAL_DATE_TIME ( #209, #255 ) ;
#78 = CARTESIAN_POINT ( 'NONE',  ( 38.18376618407376100, 0.0000000000000000000, -44.18376618407336300 ) ) ;
#79 = VERTEX_POINT ( 'NONE', #78 ) ;
#80 = DIRECTION ( 'NONE',  ( 0.0000000000000000000, 1.000000000000000000, 0.0000000000000000000 ) ) ;
#81 = AXIS2_PLACEMENT_3D ( 'NONE', #133, #310, #87 ) ;
#82 = DIRECTION ( 'NONE',  ( -0.0000000000000000000, -1.000000000000000000, -0.0000000000000000000 ) ) ;
#83 = DIRECTION ( 'NONE',  ( -0.7071067811865511300, 0.0000000000000000000, 0.7071067811865439100 ) ) ;
#84 = AXIS2_PLACEMENT_3D ( 'NONE', #59, #236, #561 ) ;
#85 = CIRCLE ( 'NONE', #170, 4.249999999999996400 ) ;
#86 = FACE_OUTER_BOUND ( 'NONE', #122, .T. ) ;
#87 = DIRECTION ( 'NONE',  ( -3.469446951953614200E-015, 0.0000000000000000000, -1.000000000000000000 ) ) ;
#88 = EDGE_CURVE ( 'NONE', #498, #394, #544, .T. ) ;
#89 = LOCAL_TIME ( 9, 43, 5.000000000000000000, #549 ) ;
#90 = FACE_OUTER_BOUND ( 'NONE', #162, .T. ) ;
#91 = VERTEX_POINT ( 'NONE', #120 ) ;
#92 = ORIENTED_EDGE ( 'NONE', *, *, #88, .F. ) ;
#93 = CARTESIAN_POINT ( 'NONE',  ( -39.19891236737964100, 19.49999999999999600, -8.673617379884035500E-016 ) ) ;
#94 = CC_DESIGN_PERSON_AND_ORGANIZATION_ASSIGNMENT ( #398, #292, ( #2 ) ) ;
#95 = ADVANCED_FACE ( 'NONE', ( #463 ), #189, .F. ) ;
#96 = DIRECTION ( 'NONE',  ( -0.0000000000000000000, -0.0000000000000000000, -1.000000000000000000 ) ) ;
#97 = CIRCLE ( 'NONE', #553, 5.999999999999998200 ) ;
#98 = EDGE_CURVE ( 'NONE', #366, #105, #55, .T. ) ;
#99 = ADVANCED_FACE ( 'NONE', ( #70, #173 ), #580, .F. ) ;
#100 = DIRECTION ( 'NONE',  ( -0.0000000000000000000, -1.000000000000000000, -0.0000000000000000000 ) ) ;
#101 = AXIS2_PLACEMENT_3D ( 'NONE', #402, #128, #444 ) ;
#102 = CC_DESIGN_DATE_AND_TIME_ASSIGNMENT ( #438, #345, ( #227 ) ) ;
#103 = DIRECTION ( 'NONE',  ( 0.0000000000000000000, -1.000000000000000000, 0.0000000000000000000 ) ) ;
#104 = ORIENTED_EDGE ( 'NONE', *, *, #313, .F. ) ;
#105 = VERTEX_POINT ( 'NONE', #117 ) ;
#106 = DIRECTION ( 'NONE',  ( 0.0000000000000000000, 0.0000000000000000000, -1.000000000000000000 ) ) ;
#107 = ORIENTED_EDGE ( 'NONE', *, *, #541, .T. ) ;
#108 = EDGE_CURVE ( 'NONE', #42, #363, #543, .T. ) ;
#109 = CARTESIAN_POINT ( 'NONE',  ( -43.44891236737964100, 19.49999999999999600, -5.999999999999999100 ) ) ;
#110 = AXIS2_PLACEMENT_3D ( 'NONE', #320, #501, #459 ) ;
#111 = PERSON_AND_ORGANIZATION_ROLE ( 'creator' ) ;
#112 = APPROVAL_STATUS ( 'not_yet_approved' ) ;
#113 = LINE ( 'NONE', #334, #303 ) ;
#114 = FACE_BOUND ( 'NONE', #499, .T. ) ;
#115 = ORIENTED_EDGE ( 'NONE', *, *, #353, .T. ) ;
#116 = CC_DESIGN_PERSON_AND_ORGANIZATION_ASSIGNMENT ( #496, #111, ( #191 ) ) ;
#117 = CARTESIAN_POINT ( 'NONE',  ( -23.63245787002911100, 0.0000000000000000000, -6.152240934977424300 ) ) ;
#118 = DIRECTION ( 'NONE',  ( -0.0000000000000000000, -0.0000000000000000000, -1.000000000000000000 ) ) ;
#119 = EDGE_CURVE ( 'NONE', #105, #270, #194, .T. ) ;
#120 = CARTESIAN_POINT ( 'NONE',  ( 30.72302057015436100, 19.49999999999999600, -30.72302057015403100 ) ) ;
#121 = ORGANIZATION ( 'UNSPECIFIED', 'UNSPECIFIED', '' ) ;
#122 = EDGE_LOOP ( 'NONE', ( #14, #576, #517, #284 ) ) ;
#123 = ORIENTED_EDGE ( 'NONE', *, *, #119, .F. ) ;
#124 = DIRECTION ( 'NONE',  ( 0.7071067811865434600, -0.0000000000000000000, 0.7071067811865515700 ) ) ;
#125 = ORIENTED_EDGE ( 'NONE', *, *, #531, .T. ) ;
#126 = CARTESIAN_POINT ( 'NONE',  ( 0.0000000000000000000, 39.00000000000000000, 0.0000000000000000000 ) ) ;
#127 = APPROVAL ( #200, 'UNSPECIFIED' ) ;
#128 = DIRECTION ( 'NONE',  ( 0.0000000000000000000, 1.000000000000000000, 0.0000000000000000000 ) ) ;
#129 = CIRCLE ( 'NONE', #41, 4.249999999999997300 ) ;
#130 = VERTEX_POINT ( 'NONE', #495 ) ;
#131 = ORIENTED_EDGE ( 'NONE', *, *, #11, .F. ) ;
#132 = AXIS2_PLACEMENT_3D ( 'NONE', #578, #124, #206 ) ;
#133 = CARTESIAN_POINT ( 'NONE',  ( -24.39782473475928600, 0.0000000000000000000, -8.000000000000000000 ) ) ;
#134 = PERSON ( 'UNSPECIFIED', 'UNSPECIFIED', 'UNSPECIFIED', ('UNSPECIFIED'), ('UNSPECIFIED'), ('UNSPECIFIED') ) ;
#135 = DIRECTION ( 'NONE',  ( 0.0000000000000000000, 0.0000000000000000000, -1.000000000000000000 ) ) ;
#136 = EDGE_LOOP ( 'NONE', ( #29, #290, #343, #225 ) ) ;
#137 = CARTESIAN_POINT ( 'NONE',  ( 38.18376618407376100, 39.00000000000000000, -44.18376618407336300 ) ) ;
#138 = EDGE_LOOP ( 'NONE', ( #156, #337 ) ) ;
#139 = DIRECTION ( 'NONE',  ( 0.0000000000000000000, -1.000000000000000000, 0.0000000000000000000 ) ) ;
#140 = AXIS2_PLACEMENT_3D ( 'NONE', #230, #554, #591 ) ;
#141 = ADVANCED_FACE ( 'NONE', ( #275 ), #326, .F. ) ;
#142 = FACE_OUTER_BOUND ( 'NONE', #508, .T. ) ;
#143 = ORIENTED_EDGE ( 'NONE', *, *, #44, .T. ) ;
#144 = EDGE_LOOP ( 'NONE', ( #20, #457, #169, #196 ) ) ;
#145 = CARTESIAN_POINT ( 'NONE',  ( 0.0000000000000000000, 0.0000000000000000000, 0.0000000000000000000 ) ) ;
#146 = CARTESIAN_POINT ( 'NONE',  ( 20.46997224294942400, 19.49999999999999600, -28.95525361718771900 ) ) ;
#147 = CYLINDRICAL_SURFACE ( 'NONE', #502, 5.999999999999998200 ) ;
#148 = EDGE_CURVE ( 'NONE', #150, #522, #335, .T. ) ;
#149 = ORIENTED_EDGE ( 'NONE', *, *, #245, .F. ) ;
#150 = VERTEX_POINT ( 'NONE', #542 ) ;
#151 = DIRECTION ( 'NONE',  ( 0.0000000000000000000, 0.0000000000000000000, 1.000000000000000000 ) ) ;
#152 = DIRECTION ( 'NONE',  ( -0.7071067811865438000, 0.0000000000000000000, -0.7071067811865512400 ) ) ;
#153 = APPROVAL_PERSON_ORGANIZATION ( #260, #127, #23 ) ;
#154 = EDGE_CURVE ( 'NONE', #577, #515, #129, .T. ) ;
#155 = VECTOR ( 'NONE', #309, 1000.000000000000000 ) ;
#156 = ORIENTED_EDGE ( 'NONE', *, *, #395, .T. ) ;
#157 = APPROVAL_STATUS ( 'not_yet_approved' ) ;
#158 = CARTESIAN_POINT ( 'NONE',  ( -23.63245787002911100, 39.00000000000000000, -6.152240934977424300 ) ) ;
#159 = VECTOR ( 'NONE', #410, 1000.000000000000000 ) ;
#160 = DIRECTION ( 'NONE',  ( -0.0000000000000000000, 1.000000000000000000, -0.0000000000000000000 ) ) ;
#161 = ORIENTED_EDGE ( 'NONE', *, *, #26, .F. ) ;
#162 = EDGE_LOOP ( 'NONE', ( #378, #107, #456, #448, #321, #183, #190, #441, #590, #36 ) ) ;
#163 = VERTEX_POINT ( 'NONE', #171 ) ;
#164 = DIRECTION ( 'NONE',  ( -0.0000000000000000000, 1.000000000000000000, -0.0000000000000000000 ) ) ;
#165 = CARTESIAN_POINT ( 'NONE',  ( -23.99999999999997200, 39.00000000000000000, -5.999999999999999100 ) ) ;
#166 = CARTESIAN_POINT ( 'NONE',  ( -24.39782473475928600, 39.00000000000000000, -8.000000000000000000 ) ) ;
#167 = LINE ( 'NONE', #193, #399 ) ;
#168 = ORIENTED_EDGE ( 'NONE', *, *, #570, .T. ) ;
#169 = ORIENTED_EDGE ( 'NONE', *, *, #58, .F. ) ;
#170 = AXIS2_PLACEMENT_3D ( 'NONE', #233, #317, #315 ) ;
#171 = CARTESIAN_POINT ( 'NONE',  ( -60.00000000000000000, 39.00000000000000000, 0.0000000000000000000 ) ) ;
#172 = CYLINDRICAL_SURFACE ( 'NONE', #546, 2.000000000000001800 ) ;
#173 = FACE_OUTER_BOUND ( 'NONE', #365, .T. ) ;
#174 = MANIFOLD_SOLID_BREP ( 'Mirror1', #567 ) ;
#175 = ORIENTED_EDGE ( 'NONE', *, *, #281, .F. ) ;
#176 = CARTESIAN_POINT ( 'NONE',  ( -60.00000000000000000, 0.0000000000000000000, -5.999999999999999100 ) ) ;
#177 = EDGE_CURVE ( 'NONE', #366, #484, #504, .T. ) ;
#178 = DIRECTION ( 'NONE',  ( -0.0000000000000000000, -1.000000000000000000, 0.0000000000000000000 ) ) ;
#179 = DIRECTION ( 'NONE',  ( -0.0000000000000000000, -1.000000000000000000, -0.0000000000000000000 ) ) ;
#180 = DATE_AND_TIME ( #302, #340 ) ;
#181 = FACE_OUTER_BOUND ( 'NONE', #551, .T. ) ;
#182 = EDGE_LOOP ( 'NONE', ( #401, #538, #350, #592 ) ) ;
#183 = ORIENTED_EDGE ( 'NONE', *, *, #228, .T. ) ;
#184 = DIRECTION ( 'NONE',  ( -0.7071067811865511300, 0.0000000000000000000, 0.7071067811865439100 ) ) ;
#185 = DIRECTION ( 'NONE',  ( -0.7071067811865435800, -0.0000000000000000000, -0.7071067811865513500 ) ) ;
#186 = ADVANCED_FACE ( 'NONE', ( #54 ), #34, .F. ) ;
#187 = EDGE_CURVE ( 'NONE', #533, #342, #211, .T. ) ;
#188 = LINE ( 'NONE', #287, #69 ) ;
#189 = CYLINDRICAL_SURFACE ( 'NONE', #588, 2.000000000000000000 ) ;
#190 = ORIENTED_EDGE ( 'NONE', *, *, #148, .F. ) ;
#191 = PRODUCT_DEFINITION ( 'UNKNOWN', '', #2, #407 ) ;
#192 = SHAPE_DEFINITION_REPRESENTATION ( #454, #451 ) ;
#193 = CARTESIAN_POINT ( 'NONE',  ( -60.00000000000000000, 39.00000000000000000, 0.0000000000000000000 ) ) ;
#194 = LINE ( 'NONE', #158, #556 ) ;
#195 = EDGE_CURVE ( 'NONE', #150, #105, #384, .T. ) ;
#196 = ORIENTED_EDGE ( 'NONE', *, *, #11, .T. ) ;
#197 = ADVANCED_FACE ( 'NONE', ( #90 ), #308, .T. ) ;
#198 = DIRECTION ( 'NONE',  ( 0.0000000000000000000, -1.000000000000000000, 0.0000000000000000000 ) ) ;
#199 = AXIS2_PLACEMENT_3D ( 'NONE', #389, #344, #252 ) ;
#200 = APPROVAL_STATUS ( 'not_yet_approved' ) ;
#201 = DIRECTION ( 'NONE',  ( 1.000000000000000000, 0.0000000000000000000, 0.0000000000000000000 ) ) ;
#202 = FACE_BOUND ( 'NONE', #224, .T. ) ;
#203 = FACE_OUTER_BOUND ( 'NONE', #372, .T. ) ;
#204 = CC_DESIGN_APPROVAL ( #51, ( #191 ) ) ;
#205 = ORIENTED_EDGE ( 'NONE', *, *, #359, .T. ) ;
#206 = DIRECTION ( 'NONE',  ( 0.7071067811865515700, 0.0000000000000000000, -0.7071067811865434600 ) ) ;
#207 = DIRECTION ( 'NONE',  ( -1.000000000000000000, 0.0000000000000000000, 0.0000000000000000000 ) ) ;
#208 = PLANE ( 'NONE',  #10 ) ;
#209 = DATE_AND_TIME ( #32, #348 ) ;
#210 = DIRECTION ( 'NONE',  ( -0.0000000000000000000, -1.000000000000000000, -0.0000000000000000000 ) ) ;
#211 = LINE ( 'NONE', #587, #232 ) ;
#212 = VERTEX_POINT ( 'NONE', #215 ) ;
#213 = ORIENTED_EDGE ( 'NONE', *, *, #37, .T. ) ;
#214 = DIRECTION ( 'NONE',  ( 0.0000000000000000000, 1.000000000000000000, -0.0000000000000000000 ) ) ;
#215 = CARTESIAN_POINT ( 'NONE',  ( -43.44891236737964100, 19.49999999999999600, -5.999999999999999100 ) ) ;
#216 = LINE ( 'NONE', #422, #239 ) ;
#217 = LINE ( 'NONE', #453, #521 ) ;
#218 = LINE ( 'NONE', #397, #478 ) ;
#219 = ORIENTED_EDGE ( 'NONE', *, *, #26, .T. ) ;
#220 = DIRECTION ( 'NONE',  ( -0.0000000000000000000, -1.000000000000000000, -0.0000000000000000000 ) ) ;
#221 = DIRECTION ( 'NONE',  ( -0.7071067811865436900, -0.0000000000000000000, -0.7071067811865514600 ) ) ;
#222 = DIRECTION ( 'NONE',  ( -0.0000000000000000000, -0.0000000000000000000, -1.000000000000000000 ) ) ;
#223 = LINE ( 'NONE', #61, #231 ) ;
#224 = EDGE_LOOP ( 'NONE', ( #440, #30 ) ) ;
#225 = ORIENTED_EDGE ( 'NONE', *, *, #548, .F. ) ;
#226 = DIRECTION ( 'NONE',  ( -0.7071067811865438000, 0.0000000000000000000, -0.7071067811865512400 ) ) ;
#227 = SECURITY_CLASSIFICATION ( '', '', #295 ) ;
#228 = EDGE_CURVE ( 'NONE', #42, #522, #550, .T. ) ;
#229 = CARTESIAN_POINT ( 'NONE',  ( 0.0000000000000000000, 39.00000000000000000, 0.0000000000000000000 ) ) ;
#230 = CARTESIAN_POINT ( 'NONE',  ( 23.47517606299226500, 19.49999999999999600, -31.96045743723052700 ) ) ;
#231 = VECTOR ( 'NONE', #374, 1000.000000000000000 ) ;
#232 = VECTOR ( 'NONE', #82, 1000.000000000000000 ) ;
#233 = CARTESIAN_POINT ( 'NONE',  ( -39.19891236737964100, 19.49999999999999600, -5.999999999999999100 ) ) ;
#234 = FACE_OUTER_BOUND ( 'NONE', #486, .T. ) ;
#235 = ORIENTED_EDGE ( 'NONE', *, *, #560, .T. ) ;
#236 = DIRECTION ( 'NONE',  ( -0.0000000000000000000, -1.000000000000000000, 0.0000000000000000000 ) ) ;
#237 = CARTESIAN_POINT ( 'NONE',  ( 11.59501306665690700, 39.00000000000000000, -22.90872156564150000 ) ) ;
#238 = CARTESIAN_POINT ( 'NONE',  ( 13.00922662902999400, 0.0000000000000000000, -21.49450800326839300 ) ) ;
#239 = VECTOR ( 'NONE', #516, 1000.000000000000000 ) ;
#240 = LINE ( 'NONE', #109, #491 ) ;
#241 = ORIENTED_EDGE ( 'NONE', *, *, #313, .T. ) ;
#242 = CARTESIAN_POINT ( 'NONE',  ( 26.48037988303510600, 19.49999999999999600, -34.96566125727333900 ) ) ;
#243 = ORIENTED_EDGE ( 'NONE', *, *, #245, .T. ) ;
#244 = APPROVAL_ROLE ( '' ) ;
#245 = EDGE_CURVE ( 'NONE', #480, #430, #97, .T. ) ;
#246 = CIRCLE ( 'NONE', #316, 4.249999999999997300 ) ;
#247 = VERTEX_POINT ( 'NONE', #452 ) ;
#248 = ORIENTED_EDGE ( 'NONE', *, *, #541, .F. ) ;
#249 = DIRECTION ( 'NONE',  ( -0.7071067811865511300, 0.0000000000000000000, 0.7071067811865439100 ) ) ;
#250 = EDGE_CURVE ( 'NONE', #163, #327, #404, .T. ) ;
#251 = CARTESIAN_POINT ( 'NONE',  ( 13.00922662902999400, 39.00000000000000000, -21.49450800326839300 ) ) ;
#252 = DIRECTION ( 'NONE',  ( -1.000000000000000000, 0.0000000000000000000, -0.0000000000000000000 ) ) ;
#253 = DATE_AND_TIME ( #503, #575 ) ;
#254 = ORIENTED_EDGE ( 'NONE', *, *, #39, .T. ) ;
#255 = APPROVAL ( #157, 'UNSPECIFIED' ) ;
#256 = ORIENTED_EDGE ( 'NONE', *, *, #307, .T. ) ;
#257 = PRODUCT_RELATED_PRODUCT_CATEGORY ( 'detail', '', ( #265 ) ) ;
#258 = EDGE_CURVE ( 'NONE', #533, #480, #5, .T. ) ;
#259 = DIRECTION ( 'NONE',  ( -1.000000000000000000, -0.0000000000000000000, -0.0000000000000000000 ) ) ;
#260 = PERSON_AND_ORGANIZATION ( #134, #121 ) ;
#261 = VECTOR ( 'NONE', #494, 1000.000000000000000 ) ;
#262 = CIRCLE ( 'NONE', #539, 2.000000000000001800 ) ;
#263 = VERTEX_POINT ( 'NONE', #449 ) ;
#264 = CARTESIAN_POINT ( 'NONE',  ( 0.0000000000000000000, 0.0000000000000000000, 0.0000000000000000000 ) ) ;
#265 = PRODUCT ( 'ALP2445', 'ALP2445', '', ( #68 ) ) ;
#266 = CARTESIAN_POINT ( 'NONE',  ( 11.59501306665690700, 0.0000000000000000000, -22.90872156564150000 ) ) ;
#267 = PERSON_AND_ORGANIZATION ( #134, #121 ) ;
#268 = LINE ( 'NONE', #251, #557 ) ;
#269 = ORIENTED_EDGE ( 'NONE', *, *, #58, .T. ) ;
#270 = VERTEX_POINT ( 'NONE', #540 ) ;
#271 = CARTESIAN_POINT ( 'NONE',  ( -39.19891236737964100, 19.49999999999999600, -5.999999999999999100 ) ) ;
#272 = DIRECTION ( 'NONE',  ( -1.000000000000000000, 0.0000000000000000000, 0.0000000000000000000 ) ) ;
#273 = DIRECTION ( 'NONE',  ( -1.000000000000000000, 0.0000000000000000000, 0.0000000000000000000 ) ) ;
#274 = CALENDAR_DATE ( 2018, 21, 6 ) ;
#275 = FACE_OUTER_BOUND ( 'NONE', #6, .T. ) ;
#276 = FACE_OUTER_BOUND ( 'NONE', #386, .T. ) ;
#277 = EDGE_CURVE ( 'NONE', #91, #471, #246, .T. ) ;
#278 = ADVANCED_FACE ( 'NONE', ( #142 ), #369, .F. ) ;
#279 = CARTESIAN_POINT ( 'NONE',  ( 27.71781675011152000, 19.49999999999999600, -27.71781675011122200 ) ) ;
#280 = DIRECTION ( 'NONE',  ( 0.7071067811865512400, 0.0000000000000000000, -0.7071067811865439100 ) ) ;
#281 = EDGE_CURVE ( 'NONE', #498, #150, #19, .T. ) ;
#282 = CYLINDRICAL_SURFACE ( 'NONE', #352, 5.999999999999998200 ) ;
#283 = CARTESIAN_POINT ( 'NONE',  ( 12.36037993138708300, 0.0000000000000000000, -21.06096250061892100 ) ) ;
#284 = ORIENTED_EDGE ( 'NONE', *, *, #364, .F. ) ;
#285 = EDGE_LOOP ( 'NONE', ( #8, #15 ) ) ;
#286 = ORIENTED_EDGE ( 'NONE', *, *, #277, .F. ) ;
#287 = CARTESIAN_POINT ( 'NONE',  ( 26.48037988303510600, 19.49999999999999600, -34.96566125727333900 ) ) ;
#288 = PLANE ( 'NONE',  #442 ) ;
#289 = VECTOR ( 'NONE', #103, 1000.000000000000000 ) ;
#290 = ORIENTED_EDGE ( 'NONE', *, *, #44, .F. ) ;
#291 = ORIENTED_EDGE ( 'NONE', *, *, #281, .T. ) ;
#292 = PERSON_AND_ORGANIZATION_ROLE ( 'design_supplier' ) ;
#293 = PERSON_AND_ORGANIZATION_ROLE ( 'classification_officer' ) ;
#294 = CARTESIAN_POINT ( 'NONE',  ( -60.00000000000000000, 0.0000000000000000000, 0.0000000000000000000 ) ) ;
#295 = SECURITY_CLASSIFICATION_LEVEL ( 'unclassified' ) ;
#296 = CYLINDRICAL_SURFACE ( 'NONE', #84, 6.000000000000000000 ) ;
#297 = DIRECTION ( 'NONE',  ( -0.0000000000000000000, -1.000000000000000000, -0.0000000000000000000 ) ) ;
#298 = VECTOR ( 'NONE', #259, 1000.000000000000000 ) ;
#299 = CARTESIAN_POINT ( 'NONE',  ( 11.59501306665690700, 39.00000000000000000, -22.90872156564150000 ) ) ;
#300 = EDGE_CURVE ( 'NONE', #57, #212, #571, .T. ) ;
#301 = CARTESIAN_POINT ( 'NONE',  ( 0.0000000000000000000, 0.0000000000000000000, 0.0000000000000000000 ) ) ;
#302 = CALENDAR_DATE ( 2018, 21, 6 ) ;
#303 = VECTOR ( 'NONE', #331, 1000.000000000000000 ) ;
#304 = ORIENTED_EDGE ( 'NONE', *, *, #300, .T. ) ;
#305 = CARTESIAN_POINT ( 'NONE',  ( 23.47517606299226500, 19.49999999999999600, -31.96045743723052700 ) ) ;
#306 = ORIENTED_EDGE ( 'NONE', *, *, #414, .F. ) ;
#307 = EDGE_CURVE ( 'NONE', #394, #163, #434, .T. ) ;
#308 = PLANE ( 'NONE',  #429 ) ;
#309 = DIRECTION ( 'NONE',  ( -1.000000000000000000, -0.0000000000000000000, -0.0000000000000000000 ) ) ;
#310 = DIRECTION ( 'NONE',  ( 0.0000000000000000000, 1.000000000000000000, 0.0000000000000000000 ) ) ;
#311 = FACE_OUTER_BOUND ( 'NONE', #182, .T. ) ;
#312 = VECTOR ( 'NONE', #574, 999.9999999999998900 ) ;
#313 = EDGE_CURVE ( 'NONE', #430, #263, #565, .T. ) ;
#314 = DIRECTION ( 'NONE',  ( -0.7071067811865436900, -0.0000000000000000000, -0.7071067811865514600 ) ) ;
#315 = DIRECTION ( 'NONE',  ( -1.000000000000000000, 0.0000000000000000000, 0.0000000000000000000 ) ) ;
#316 = AXIS2_PLACEMENT_3D ( 'NONE', #368, #226, #184 ) ;
#317 = DIRECTION ( 'NONE',  ( -0.0000000000000000000, -0.0000000000000000000, -1.000000000000000000 ) ) ;
#318 = COORDINATED_UNIVERSAL_TIME_OFFSET ( 1, 0, .AHEAD. ) ;
#319 = LINE ( 'NONE', #1, #40 ) ;
#320 = CARTESIAN_POINT ( 'NONE',  ( -54.00000000000000000, 39.00000000000000000, 8.673617379884035500E-016 ) ) ;
#321 = ORIENTED_EDGE ( 'NONE', *, *, #108, .F. ) ;
#322 = CARTESIAN_POINT ( 'NONE',  ( 38.18376618407376100, 0.0000000000000000000, -38.18376618407336300 ) ) ;
#323 = ADVANCED_FACE ( 'NONE', ( #202, #181 ), #500, .F. ) ;
#324 = DIRECTION ( 'NONE',  ( -0.0000000000000000000, -0.0000000000000000000, -1.000000000000000000 ) ) ;
#325 = DIRECTION ( 'NONE',  ( 0.0000000000000000000, 0.0000000000000000000, 1.000000000000000000 ) ) ;
#326 = CYLINDRICAL_SURFACE ( 'NONE', #545, 4.249999999999996400 ) ;
#327 = VERTEX_POINT ( 'NONE', #229 ) ;
#328 = ORIENTED_EDGE ( 'NONE', *, *, #88, .T. ) ;
#329 = DIRECTION ( 'NONE',  ( 0.0000000000000000000, -1.000000000000000000, 0.0000000000000000000 ) ) ;
#330 = CC_DESIGN_APPROVAL ( #127, ( #227 ) ) ;
#331 = DIRECTION ( 'NONE',  ( -0.7071067811865515700, -0.0000000000000000000, 0.7071067811865435800 ) ) ;
#332 = DIRECTION ( 'NONE',  ( -0.0000000000000000000, -0.0000000000000000000, -1.000000000000000000 ) ) ;
#333 = CALENDAR_DATE ( 2018, 21, 6 ) ;
#334 = CARTESIAN_POINT ( 'NONE',  ( 12.72792206135793500, 39.00000000000000000, -21.21320343559634100 ) ) ;
#335 = LINE ( 'NONE', #176, #155 ) ;
#336 = EDGE_LOOP ( 'NONE', ( #579, #349, #406, #115 ) ) ;
#337 = ORIENTED_EDGE ( 'NONE', *, *, #414, .T. ) ;
#338 = DATE_TIME_ROLE ( 'creation_date' ) ;
#339 = CC_DESIGN_PERSON_AND_ORGANIZATION_ASSIGNMENT ( #412, #293, ( #227 ) ) ;
#340 = LOCAL_TIME ( 9, 43, 5.000000000000000000, #318 ) ;
#341 = FACE_OUTER_BOUND ( 'NONE', #408, .T. ) ;
#342 = VERTEX_POINT ( 'NONE', #4 ) ;
#343 = ORIENTED_EDGE ( 'NONE', *, *, #228, .F. ) ;
#344 = DIRECTION ( 'NONE',  ( 0.0000000000000000000, 0.0000000000000000000, -1.000000000000000000 ) ) ;
#345 = DATE_TIME_ROLE ( 'classification_date' ) ;
#346 = PLANE ( 'NONE',  #132 ) ;
#347 = UNCERTAINTY_MEASURE_WITH_UNIT (LENGTH_MEASURE( 1.000000000000000100E-005 ), #572, 'distance_accuracy_value', 'NONE');
#348 = LOCAL_TIME ( 9, 43, 5.000000000000000000, #564 ) ;
#349 = ORIENTED_EDGE ( 'NONE', *, *, #455, .F. ) ;
#350 = ORIENTED_EDGE ( 'NONE', *, *, #177, .F. ) ;
#351 = DIRECTION ( 'NONE',  ( -0.7071067811865512400, 0.0000000000000000000, 0.7071067811865439100 ) ) ;
#352 = AXIS2_PLACEMENT_3D ( 'NONE', #13, #329, #373 ) ;
#353 = EDGE_CURVE ( 'NONE', #515, #577, #439, .T. ) ;
#354 = DIRECTION ( 'NONE',  ( 0.0000000000000000000, 0.0000000000000000000, -1.000000000000000000 ) ) ;
#355 = CIRCLE ( 'NONE', #466, 4.249999999999996400 ) ;
#356 = CIRCLE ( 'NONE', #3, 2.000000000000000000 ) ;
#357 = DIRECTION ( 'NONE',  ( 0.0000000000000000000, 1.000000000000000000, 0.0000000000000000000 ) ) ;
#358 = ORIENTED_EDGE ( 'NONE', *, *, #403, .F. ) ;
#359 = EDGE_CURVE ( 'NONE', #247, #270, #319, .T. ) ;
#360 = DIRECTION ( 'NONE',  ( 0.0000000000000000000, 0.0000000000000000000, -1.000000000000000000 ) ) ;
#361 = CARTESIAN_POINT ( 'NONE',  ( 38.18376618407376100, 39.00000000000000000, -38.18376618407336300 ) ) ;
#362 = DIRECTION ( 'NONE',  ( 0.0000000000000000000, 0.0000000000000000000, -1.000000000000000000 ) ) ;
#363 = VERTEX_POINT ( 'NONE', #505 ) ;
#364 = EDGE_CURVE ( 'NONE', #79, #342, #447, .T. ) ;
#365 = EDGE_LOOP ( 'NONE', ( #558, #131, #65, #392 ) ) ;
#366 = VERTEX_POINT ( 'NONE', #411 ) ;
#367 = DIRECTION ( 'NONE',  ( -0.9238795325112877400, -0.0000000000000000000, 0.3826834323650875100 ) ) ;
#368 = CARTESIAN_POINT ( 'NONE',  ( 27.71781675011152000, 19.49999999999999600, -27.71781675011122200 ) ) ;
#369 = CYLINDRICAL_SURFACE ( 'NONE', #409, 4.249999999999996400 ) ;
#370 = FACE_BOUND ( 'NONE', #285, .T. ) ;
#371 = CC_DESIGN_PERSON_AND_ORGANIZATION_ASSIGNMENT ( #390, #475, ( #265 ) ) ;
#372 = EDGE_LOOP ( 'NONE', ( #376, #125, #506, #593 ) ) ;
#373 = DIRECTION ( 'NONE',  ( 0.0000000000000000000, 0.0000000000000000000, -1.000000000000000000 ) ) ;
#374 = DIRECTION ( 'NONE',  ( -0.7071067811865515700, -0.0000000000000000000, 0.7071067811865435800 ) ) ;
#375 = APPROVAL_DATE_TIME ( #534, #51 ) ;
#376 = ORIENTED_EDGE ( 'NONE', *, *, #359, .F. ) ;
#377 = AXIS2_PLACEMENT_3D ( 'NONE', #322, #179, #362 ) ;
#378 = ORIENTED_EDGE ( 'NONE', *, *, #560, .F. ) ;
#379 = CARTESIAN_POINT ( 'NONE',  ( 38.18376618407376100, 39.00000000000000000, -44.18376618407336300 ) ) ;
#380 = APPLICATION_PROTOCOL_DEFINITION ( 'international standard', 'config_control_design', 1994, #387 ) ;
#381 = EDGE_CURVE ( 'NONE', #212, #57, #85, .T. ) ;
#382 = DIRECTION ( 'NONE',  ( -0.7071067811865436900, -0.0000000000000000000, -0.7071067811865514600 ) ) ;
#383 = PERSON_AND_ORGANIZATION ( #134, #121 ) ;
#384 = CIRCLE ( 'NONE', #81, 2.000000000000000000 ) ;
#385 = CYLINDRICAL_SURFACE ( 'NONE', #569, 4.249999999999997300 ) ;
#386 = EDGE_LOOP ( 'NONE', ( #286, #470, #22, #358 ) ) ;
#387 = APPLICATION_CONTEXT ( 'configuration controlled 3d designs of mechanical parts and assemblies' ) ;
#388 = DIRECTION ( 'NONE',  ( 1.000000000000000000, -0.0000000000000000000, -0.0000000000000000000 ) ) ;
#389 = CARTESIAN_POINT ( 'NONE',  ( 0.0000000000000000000, 39.00000000000000000, 0.0000000000000000000 ) ) ;
#390 = PERSON_AND_ORGANIZATION ( #134, #121 ) ;
#391 = FACE_OUTER_BOUND ( 'NONE', #144, .T. ) ;
#392 = ORIENTED_EDGE ( 'NONE', *, *, #548, .T. ) ;
#393 = DIRECTION ( 'NONE',  ( 0.0000000000000000000, 0.0000000000000000000, 1.000000000000000000 ) ) ;
#394 = VERTEX_POINT ( 'NONE', #48 ) ;
#395 = EDGE_CURVE ( 'NONE', #130, #586, #428, .T. ) ;
#396 = DIRECTION ( 'NONE',  ( 0.0000000000000000000, 0.0000000000000000000, -1.000000000000000000 ) ) ;
#397 = CARTESIAN_POINT ( 'NONE',  ( -54.00000000000000000, 39.00000000000000000, -5.999999999999999100 ) ) ;
#398 = PERSON_AND_ORGANIZATION ( #134, #121 ) ;
#399 = VECTOR ( 'NONE', #100, 1000.000000000000000 ) ;
#400 = EDGE_LOOP ( 'NONE', ( #492, #123, #16, #175 ) ) ;
#401 = ORIENTED_EDGE ( 'NONE', *, *, #37, .F. ) ;
#402 = CARTESIAN_POINT ( 'NONE',  ( 38.18376618407376100, 39.00000000000000000, -38.18376618407336300 ) ) ;
#403 = EDGE_CURVE ( 'NONE', #471, #515, #217, .T. ) ;
#404 = LINE ( 'NONE', #126, #261 ) ;
#405 = CARTESIAN_POINT ( 'NONE',  ( -54.00000000000000000, 0.0000000000000000000, 8.673617379884035500E-016 ) ) ;
#406 = ORIENTED_EDGE ( 'NONE', *, *, #403, .T. ) ;
#407 = DESIGN_CONTEXT ( 'detailed design', #387, 'design' ) ;
#408 = EDGE_LOOP ( 'NONE', ( #269, #523, #243, #566, #213, #205, #254, #328, #256, #497 ) ) ;
#409 = AXIS2_PLACEMENT_3D ( 'NONE', #417, #324, #272 ) ;
#410 = DIRECTION ( 'NONE',  ( 0.0000000000000000000, -1.000000000000000000, 0.0000000000000000000 ) ) ;
#411 = CARTESIAN_POINT ( 'NONE',  ( 12.36037993138708300, 0.0000000000000000000, -21.06096250061892100 ) ) ;
#412 = PERSON_AND_ORGANIZATION ( #134, #121 ) ;
#413 = LINE ( 'NONE', #283, #289 ) ;
#414 = EDGE_CURVE ( 'NONE', #586, #130, #355, .T. ) ;
#415 = ORIENTED_EDGE ( 'NONE', *, *, #570, .F. ) ;
#416 = ORIENTED_EDGE ( 'NONE', *, *, #277, .T. ) ;
#417 = CARTESIAN_POINT ( 'NONE',  ( -39.19891236737964100, 19.49999999999999600, -5.999999999999999100 ) ) ;
#418 = CARTESIAN_POINT ( 'NONE',  ( 33.94112549695450600, 39.00000000000000000, -42.42640687119267500 ) ) ;
#419 = AXIS2_PLACEMENT_3D ( 'NONE', #93, #96, #555 ) ;
#420 = CARTESIAN_POINT ( 'NONE',  ( 0.0000000000000000000, 0.0000000000000000000, 0.0000000000000000000 ) ) ;
#421 = CIRCLE ( 'NONE', #73, 5.999999999999998200 ) ;
#422 = CARTESIAN_POINT ( 'NONE',  ( -34.94891236737964800, 19.49999999999999600, -5.999999999999999100 ) ) ;
#423 = EDGE_LOOP ( 'NONE', ( #149, #552, #248, #104 ) ) ;
#424 = CARTESIAN_POINT ( 'NONE',  ( -24.39782473475928600, 39.00000000000000000, -5.999999999999999100 ) ) ;
#425 = EDGE_CURVE ( 'NONE', #480, #79, #477, .T. ) ;
#426 = DIRECTION ( 'NONE',  ( 0.0000000000000000000, -1.000000000000000000, -0.0000000000000000000 ) ) ;
#427 = APPROVAL_PERSON_ORGANIZATION ( #445, #51, #479 ) ;
#428 = CIRCLE ( 'NONE', #419, 4.249999999999996400 ) ;
#429 = AXIS2_PLACEMENT_3D ( 'NONE', #264, #493, #360 ) ;
#430 = VERTEX_POINT ( 'NONE', #12 ) ;
#431 = ADVANCED_FACE ( 'NONE', ( #341 ), #288, .F. ) ;
#432 =( NAMED_UNIT ( * ) SI_UNIT ( $, .STERADIAN. ) SOLID_ANGLE_UNIT ( ) );
#433 = APPLICATION_PROTOCOL_DEFINITION ( 'international standard', 'config_control_design', 1994, #527 ) ;
#434 = CIRCLE ( 'NONE', #110, 6.000000000000000000 ) ;
#435 = CARTESIAN_POINT ( 'NONE',  ( -24.39782473475928600, 39.00000000000000000, -8.000000000000000000 ) ) ;
#436 = LINE ( 'NONE', #71, #312 ) ;
#437 = AXIS2_PLACEMENT_3D ( 'NONE', #547, #509, #461 ) ;
#438 = DATE_AND_TIME ( #274, #89 ) ;
#439 = CIRCLE ( 'NONE', #140, 4.249999999999997300 ) ;
#440 = ORIENTED_EDGE ( 'NONE', *, *, #381, .F. ) ;
#441 = ORIENTED_EDGE ( 'NONE', *, *, #195, .T. ) ;
#442 = AXIS2_PLACEMENT_3D ( 'NONE', #512, #426, #106 ) ;
#443 = EDGE_CURVE ( 'NONE', #430, #43, #113, .T. ) ;
#444 = DIRECTION ( 'NONE',  ( 3.469446951953615400E-015, 0.0000000000000000000, -1.000000000000000000 ) ) ;
#445 = PERSON_AND_ORGANIZATION ( #134, #121 ) ;
#446 = CARTESIAN_POINT ( 'NONE',  ( 23.47517606299226500, 19.49999999999999600, -31.96045743723052700 ) ) ;
#447 = CIRCLE ( 'NONE', #377, 5.999999999999998200 ) ;
#448 = ORIENTED_EDGE ( 'NONE', *, *, #519, .F. ) ;
#449 = CARTESIAN_POINT ( 'NONE',  ( 33.94112549695450600, 0.0000000000000000000, -42.42640687119267500 ) ) ;
#450 = CC_DESIGN_DATE_AND_TIME_ASSIGNMENT ( #253, #338, ( #191 ) ) ;
#451 = ADVANCED_BREP_SHAPE_REPRESENTATION ( 'ALP2445', ( #174, #585 ), #524 ) ;
#452 = CARTESIAN_POINT ( 'NONE',  ( 12.36037993138708300, 39.00000000000000000, -21.06096250061892100 ) ) ;
#453 = CARTESIAN_POINT ( 'NONE',  ( 20.46997224294942400, 19.49999999999999600, -28.95525361718771900 ) ) ;
#454 = PRODUCT_DEFINITION_SHAPE ( 'NONE', 'NONE',  #191 ) ;
#455 = EDGE_CURVE ( 'NONE', #471, #91, #583, .T. ) ;
#456 = ORIENTED_EDGE ( 'NONE', *, *, #364, .T. ) ;
#457 = ORIENTED_EDGE ( 'NONE', *, *, #187, .F. ) ;
#458 = CARTESIAN_POINT ( 'NONE',  ( -24.39782473475928600, 0.0000000000000000000, -5.999999999999999100 ) ) ;
#459 = DIRECTION ( 'NONE',  ( 0.0000000000000000000, 0.0000000000000000000, -1.000000000000000000 ) ) ;
#460 = ADVANCED_FACE ( 'NONE', ( #311 ), #172, .F. ) ;
#461 = DIRECTION ( 'NONE',  ( 1.000000000000000000, 0.0000000000000000000, -0.0000000000000000000 ) ) ;
#462 = VECTOR ( 'NONE', #139, 1000.000000000000000 ) ;
#463 = FACE_OUTER_BOUND ( 'NONE', #400, .T. ) ;
#464 = ORIENTED_EDGE ( 'NONE', *, *, #395, .F. ) ;
#465 = DIRECTION ( 'NONE',  ( -1.000000000000000000, 0.0000000000000000000, 0.0000000000000000000 ) ) ;
#466 = AXIS2_PLACEMENT_3D ( 'NONE', #9, #332, #465 ) ;
#467 = DIRECTION ( 'NONE',  ( -0.0000000000000000000, -1.000000000000000000, -0.0000000000000000000 ) ) ;
#468 = APPROVAL_PERSON_ORGANIZATION ( #267, #255, #244 ) ;
#469 = DIRECTION ( 'NONE',  ( 0.0000000000000000000, 1.000000000000000000, 0.0000000000000000000 ) ) ;
#470 = ORIENTED_EDGE ( 'NONE', *, *, #474, .T. ) ;
#471 = VERTEX_POINT ( 'NONE', #518 ) ;
#472 = ADVANCED_FACE ( 'NONE', ( #513 ), #296, .T. ) ;
#473 = AXIS2_PLACEMENT_3D ( 'NONE', #279, #152, #510 ) ;
#474 = EDGE_CURVE ( 'NONE', #91, #577, #188, .T. ) ;
#475 = PERSON_AND_ORGANIZATION_ROLE ( 'design_owner' ) ;
#476 = DIRECTION ( 'NONE',  ( 0.0000000000000000000, 0.0000000000000000000, -1.000000000000000000 ) ) ;
#477 = LINE ( 'NONE', #137, #159 ) ;
#478 = VECTOR ( 'NONE', #164, 1000.000000000000000 ) ;
#479 = APPROVAL_ROLE ( '' ) ;
#480 = VERTEX_POINT ( 'NONE', #379 ) ;
#481 = DIRECTION ( 'NONE',  ( 0.0000000000000000000, 1.000000000000000000, -0.0000000000000000000 ) ) ;
#482 = CC_DESIGN_SECURITY_CLASSIFICATION ( #227, ( #2 ) ) ;
#483 = DIRECTION ( 'NONE',  ( 0.0000000000000000000, 0.0000000000000000000, -1.000000000000000000 ) ) ;
#484 = VERTEX_POINT ( 'NONE', #238 ) ;
#485 = ORIENTED_EDGE ( 'NONE', *, *, #443, .F. ) ;
#486 = EDGE_LOOP ( 'NONE', ( #235, #47, #485, #241 ) ) ;
#487 = DIRECTION ( 'NONE',  ( 0.9238795325112877400, 0.0000000000000000000, -0.3826834323650875100 ) ) ;
#488 = CARTESIAN_POINT ( 'NONE',  ( -60.00000000000000000, 39.00000000000000000, -5.999999999999999100 ) ) ;
#489 = DIRECTION ( 'NONE',  ( -0.7071067811865511300, 0.0000000000000000000, 0.7071067811865439100 ) ) ;
#490 = VECTOR ( 'NONE', #178, 1000.000000000000000 ) ;
#491 = VECTOR ( 'NONE', #60, 1000.000000000000000 ) ;
#492 = ORIENTED_EDGE ( 'NONE', *, *, #39, .F. ) ;
#493 = DIRECTION ( 'NONE',  ( 0.0000000000000000000, -1.000000000000000000, -0.0000000000000000000 ) ) ;
#494 = DIRECTION ( 'NONE',  ( 1.000000000000000000, -0.0000000000000000000, -0.0000000000000000000 ) ) ;
#495 = CARTESIAN_POINT ( 'NONE',  ( -43.44891236737964100, 19.49999999999999600, -8.673617379884035500E-016 ) ) ;
#496 = PERSON_AND_ORGANIZATION ( #134, #121 ) ;
#497 = ORIENTED_EDGE ( 'NONE', *, *, #250, .T. ) ;
#498 = VERTEX_POINT ( 'NONE', #424 ) ;
#499 = EDGE_LOOP ( 'NONE', ( #28, #416 ) ) ;
#500 = PLANE ( 'NONE',  #437 ) ;
#501 = DIRECTION ( 'NONE',  ( 0.0000000000000000000, 1.000000000000000000, 0.0000000000000000000 ) ) ;
#502 = AXIS2_PLACEMENT_3D ( 'NONE', #520, #198, #476 ) ;
#503 = CALENDAR_DATE ( 2018, 21, 6 ) ;
#504 = CIRCLE ( 'NONE', #511, 2.000000000000001800 ) ;
#505 = CARTESIAN_POINT ( 'NONE',  ( 0.0000000000000000000, 0.0000000000000000000, 0.0000000000000000000 ) ) ;
#506 = ORIENTED_EDGE ( 'NONE', *, *, #98, .T. ) ;
#507 = ADVANCED_FACE ( 'NONE', ( #529 ), #282, .T. ) ;
#508 = EDGE_LOOP ( 'NONE', ( #415, #464, #219, #514 ) ) ;
#509 = DIRECTION ( 'NONE',  ( 0.0000000000000000000, 0.0000000000000000000, 1.000000000000000000 ) ) ;
#510 = DIRECTION ( 'NONE',  ( -0.7071067811865511300, 0.0000000000000000000, 0.7071067811865439100 ) ) ;
#511 = AXIS2_PLACEMENT_3D ( 'NONE', #266, #357, #38 ) ;
#512 = CARTESIAN_POINT ( 'NONE',  ( 0.0000000000000000000, 39.00000000000000000, 0.0000000000000000000 ) ) ;
#513 = FACE_OUTER_BOUND ( 'NONE', #136, .T. ) ;
#514 = ORIENTED_EDGE ( 'NONE', *, *, #381, .T. ) ;
#515 = VERTEX_POINT ( 'NONE', #146 ) ;
#516 = DIRECTION ( 'NONE',  ( -0.0000000000000000000, -0.0000000000000000000, -1.000000000000000000 ) ) ;
#517 = ORIENTED_EDGE ( 'NONE', *, *, #187, .T. ) ;
#518 = CARTESIAN_POINT ( 'NONE',  ( 24.71261293006868000, 19.49999999999999600, -24.71261293006841300 ) ) ;
#519 = EDGE_CURVE ( 'NONE', #363, #342, #63, .T. ) ;
#520 = CARTESIAN_POINT ( 'NONE',  ( 38.18376618407376100, 39.00000000000000000, -38.18376618407336300 ) ) ;
#521 = VECTOR ( 'NONE', #185, 1000.000000000000100 ) ;
#522 = VERTEX_POINT ( 'NONE', #53 ) ;
#523 = ORIENTED_EDGE ( 'NONE', *, *, #258, .T. ) ;
#524 =( GEOMETRIC_REPRESENTATION_CONTEXT ( 3 ) GLOBAL_UNCERTAINTY_ASSIGNED_CONTEXT ( ( #347 ) ) GLOBAL_UNIT_ASSIGNED_CONTEXT ( ( #572, #21, #432 ) ) REPRESENTATION_CONTEXT ( 'NONE', 'WORKASPACE' ) );
#525 = PERSON_AND_ORGANIZATION_ROLE ( 'creator' ) ;
#526 = DIRECTION ( 'NONE',  ( -0.0000000000000000000, -1.000000000000000000, -0.0000000000000000000 ) ) ;
#527 = APPLICATION_CONTEXT ( 'configuration controlled 3d designs of mechanical parts and assemblies' ) ;
#528 = CARTESIAN_POINT ( 'NONE',  ( -34.94891236737964800, 19.49999999999999600, -5.999999999999999100 ) ) ;
#529 = FACE_OUTER_BOUND ( 'NONE', #423, .T. ) ;
#530 = VECTOR ( 'NONE', #573, 1000.000000000000000 ) ;
#531 = EDGE_CURVE ( 'NONE', #247, #366, #413, .T. ) ;
#532 = DIRECTION ( 'NONE',  ( -0.7071067811865439100, 0.0000000000000000000, -0.7071067811865512400 ) ) ;
#533 = VERTEX_POINT ( 'NONE', #559 ) ;
#534 = DATE_AND_TIME ( #333, #582 ) ;
#535 = CARTESIAN_POINT ( 'NONE',  ( -39.19891236737964100, 19.49999999999999600, -5.999999999999999100 ) ) ;
#536 = VECTOR ( 'NONE', #280, 999.9999999999998900 ) ;
#537 = ORIENTED_EDGE ( 'NONE', *, *, #148, .T. ) ;
#538 = ORIENTED_EDGE ( 'NONE', *, *, #76, .F. ) ;
#539 = AXIS2_PLACEMENT_3D ( 'NONE', #299, #297, #396 ) ;
#540 = CARTESIAN_POINT ( 'NONE',  ( -23.63245787002911100, 39.00000000000000000, -6.152240934977424300 ) ) ;
#541 = EDGE_CURVE ( 'NONE', #263, #79, #421, .T. ) ;
#542 = CARTESIAN_POINT ( 'NONE',  ( -24.39782473475928600, 0.0000000000000000000, -5.999999999999999100 ) ) ;
#543 = LINE ( 'NONE', #301, #46 ) ;
#544 = LINE ( 'NONE', #488, #298 ) ;
#545 = AXIS2_PLACEMENT_3D ( 'NONE', #535, #118, #207 ) ;
#546 = AXIS2_PLACEMENT_3D ( 'NONE', #237, #469, #325 ) ;
#547 = CARTESIAN_POINT ( 'NONE',  ( -60.00000000000000000, 39.00000000000000000, -5.999999999999999100 ) ) ;
#548 = EDGE_CURVE ( 'NONE', #163, #42, #167, .T. ) ;
#549 = COORDINATED_UNIVERSAL_TIME_OFFSET ( 1, 0, .AHEAD. ) ;
#550 = CIRCLE ( 'NONE', #72, 6.000000000000000000 ) ;
#551 = EDGE_LOOP ( 'NONE', ( #92, #291, #537, #143 ) ) ;
#552 = ORIENTED_EDGE ( 'NONE', *, *, #425, .T. ) ;
#553 = AXIS2_PLACEMENT_3D ( 'NONE', #361, #80, #354 ) ;
#554 = DIRECTION ( 'NONE',  ( -0.7071067811865436900, -0.0000000000000000000, -0.7071067811865514600 ) ) ;
#555 = DIRECTION ( 'NONE',  ( -1.000000000000000000, 0.0000000000000000000, 0.0000000000000000000 ) ) ;
#556 = VECTOR ( 'NONE', #481, 1000.000000000000000 ) ;
#557 = VECTOR ( 'NONE', #160, 1000.000000000000000 ) ;
#558 = ORIENTED_EDGE ( 'NONE', *, *, #108, .T. ) ;
#559 = CARTESIAN_POINT ( 'NONE',  ( 42.42640687119306600, 39.00000000000000000, -42.42640687119262600 ) ) ;
#560 = EDGE_CURVE ( 'NONE', #263, #484, #223, .T. ) ;
#561 = DIRECTION ( 'NONE',  ( 0.0000000000000000000, 0.0000000000000000000, -1.000000000000000000 ) ) ;
#562 = AXIS2_PLACEMENT_3D ( 'NONE', #446, #314, #83 ) ;
#563 = DIRECTION ( 'NONE',  ( 0.0000000000000000000, 0.0000000000000000000, -1.000000000000000000 ) ) ;
#564 = COORDINATED_UNIVERSAL_TIME_OFFSET ( 1, 0, .AHEAD. ) ;
#565 = LINE ( 'NONE', #418, #462 ) ;
#566 = ORIENTED_EDGE ( 'NONE', *, *, #443, .T. ) ;
#567 = CLOSED_SHELL ( 'NONE', ( #18, #141, #507, #99, #64, #52, #49, #323, #431, #197, #7, #472, #460, #95, #278, #186 ) ) ;
#568 = CARTESIAN_POINT ( 'NONE',  ( 23.47517606299226500, 19.49999999999999600, -31.96045743723052700 ) ) ;
#569 = AXIS2_PLACEMENT_3D ( 'NONE', #568, #382, #249 ) ;
#570 = EDGE_CURVE ( 'NONE', #586, #57, #216, .T. ) ;
#571 = CIRCLE ( 'NONE', #581, 4.249999999999996400 ) ;
#572 =( LENGTH_UNIT ( ) NAMED_UNIT ( * ) SI_UNIT ( .MILLI., .METRE. ) );
#573 = DIRECTION ( 'NONE',  ( -0.9238795325112877400, -0.0000000000000000000, 0.3826834323650875100 ) ) ;
#574 = DIRECTION ( 'NONE',  ( 0.7071067811865512400, 0.0000000000000000000, -0.7071067811865439100 ) ) ;
#575 = LOCAL_TIME ( 9, 43, 5.000000000000000000, #45 ) ;
#576 = ORIENTED_EDGE ( 'NONE', *, *, #258, .F. ) ;
#577 = VERTEX_POINT ( 'NONE', #242 ) ;
#578 = CARTESIAN_POINT ( 'NONE',  ( 12.72792206135793500, 39.00000000000000000, -21.21320343559634100 ) ) ;
#579 = ORIENTED_EDGE ( 'NONE', *, *, #474, .F. ) ;
#580 = PLANE ( 'NONE',  #199 ) ;
#581 = AXIS2_PLACEMENT_3D ( 'NONE', #271, #222, #273 ) ;
#582 = LOCAL_TIME ( 9, 43, 5.000000000000000000, #589 ) ;
#583 = CIRCLE ( 'NONE', #473, 4.249999999999997300 ) ;
#584 = LINE ( 'NONE', #62, #35 ) ;
#585 = AXIS2_PLACEMENT_3D ( 'NONE', #145, #151, #201 ) ;
#586 = VERTEX_POINT ( 'NONE', #50 ) ;
#587 = CARTESIAN_POINT ( 'NONE',  ( 42.42640687119306600, 39.00000000000000000, -42.42640687119262600 ) ) ;
#588 = AXIS2_PLACEMENT_3D ( 'NONE', #166, #214, #393 ) ;
#589 = COORDINATED_UNIVERSAL_TIME_OFFSET ( 1, 0, .AHEAD. ) ;
#590 = ORIENTED_EDGE ( 'NONE', *, *, #98, .F. ) ;
#591 = DIRECTION ( 'NONE',  ( -0.7071067811865511300, 0.0000000000000000000, 0.7071067811865439100 ) ) ;
#592 = ORIENTED_EDGE ( 'NONE', *, *, #531, .F. ) ;
#593 = ORIENTED_EDGE ( 'NONE', *, *, #119, .T. ) ;
ENDSEC;
END-ISO-10303-21;
