ISO-10303-21;
HEADER;
/* Generated by software containing ST-Developer
 * from STEP Tools, Inc. (www.steptools.com) 
 */

FILE_DESCRIPTION(
/* description */ (''),
/* implementation_level */ '2;1');

FILE_NAME(
/* name */ 'ALP2016.step',
/* time_stamp */ '2023-03-21T12:35:54+01:00',
/* author */ (''),
/* organization */ (''),
/* preprocessor_version */ 'ST-DEVELOPER v19.2',
/* originating_system */ 'Autodesk Translation Framework v11.17.0.187',

/* authorisation */ '');

FILE_SCHEMA (('AUTOMOTIVE_DESIGN { 1 0 10303 214 3 1 1 }'));
ENDSEC;

DATA;
#10=MECHANICAL_DESIGN_GEOMETRIC_PRESENTATION_REPRESENTATION('',(#21,#22),
#770);
#11=SHAPE_REPRESENTATION_RELATIONSHIP('SRR','None',#777,#12);
#12=ADVANCED_BREP_SHAPE_REPRESENTATION('',(#13),#769);
#13=MANIFOLD_SOLID_BREP('Body1',#433);
#14=SPHERICAL_SURFACE('',#486,2.);
#15=SPHERICAL_SURFACE('',#493,2.);
#16=SPHERICAL_SURFACE('',#495,2.);
#17=SPHERICAL_SURFACE('',#501,2.);
#18=CONICAL_SURFACE('',#485,6.025,0.785398163397453);
#19=CONICAL_SURFACE('',#502,10.,0.785398163397454);
#20=CONICAL_SURFACE('',#503,10.,0.785398163397442);
#21=STYLED_ITEM('',(#787),#421);
#22=STYLED_ITEM('',(#786),#13);
#23=FACE_BOUND('',#70,.T.);
#24=FACE_BOUND('',#71,.T.);
#25=FACE_BOUND('',#72,.T.);
#26=FACE_BOUND('',#74,.T.);
#27=FACE_BOUND('',#75,.T.);
#28=FACE_BOUND('',#76,.T.);
#29=FACE_BOUND('',#87,.T.);
#30=FACE_BOUND('',#90,.T.);
#31=PLANE('',#453);
#32=PLANE('',#459);
#33=PLANE('',#465);
#34=PLANE('',#468);
#35=PLANE('',#471);
#36=PLANE('',#474);
#37=PLANE('',#478);
#38=PLANE('',#482);
#39=FACE_OUTER_BOUND('',#67,.T.);
#40=FACE_OUTER_BOUND('',#68,.T.);
#41=FACE_OUTER_BOUND('',#69,.T.);
#42=FACE_OUTER_BOUND('',#73,.T.);
#43=FACE_OUTER_BOUND('',#77,.T.);
#44=FACE_OUTER_BOUND('',#78,.T.);
#45=FACE_OUTER_BOUND('',#79,.T.);
#46=FACE_OUTER_BOUND('',#80,.T.);
#47=FACE_OUTER_BOUND('',#81,.T.);
#48=FACE_OUTER_BOUND('',#82,.T.);
#49=FACE_OUTER_BOUND('',#83,.T.);
#50=FACE_OUTER_BOUND('',#84,.T.);
#51=FACE_OUTER_BOUND('',#85,.T.);
#52=FACE_OUTER_BOUND('',#86,.T.);
#53=FACE_OUTER_BOUND('',#88,.T.);
#54=FACE_OUTER_BOUND('',#89,.T.);
#55=FACE_OUTER_BOUND('',#91,.T.);
#56=FACE_OUTER_BOUND('',#92,.T.);
#57=FACE_OUTER_BOUND('',#93,.T.);
#58=FACE_OUTER_BOUND('',#94,.T.);
#59=FACE_OUTER_BOUND('',#95,.T.);
#60=FACE_OUTER_BOUND('',#96,.T.);
#61=FACE_OUTER_BOUND('',#97,.T.);
#62=FACE_OUTER_BOUND('',#98,.T.);
#63=FACE_OUTER_BOUND('',#99,.T.);
#64=FACE_OUTER_BOUND('',#100,.T.);
#65=FACE_OUTER_BOUND('',#101,.T.);
#66=FACE_OUTER_BOUND('',#102,.T.);
#67=EDGE_LOOP('',(#278,#279,#280,#281));
#68=EDGE_LOOP('',(#282,#283,#284,#285));
#69=EDGE_LOOP('',(#286,#287,#288,#289,#290,#291,#292,#293));
#70=EDGE_LOOP('',(#294));
#71=EDGE_LOOP('',(#295));
#72=EDGE_LOOP('',(#296));
#73=EDGE_LOOP('',(#297,#298,#299,#300));
#74=EDGE_LOOP('',(#301));
#75=EDGE_LOOP('',(#302));
#76=EDGE_LOOP('',(#303));
#77=EDGE_LOOP('',(#304,#305,#306,#307));
#78=EDGE_LOOP('',(#308,#309,#310,#311));
#79=EDGE_LOOP('',(#312,#313,#314,#315));
#80=EDGE_LOOP('',(#316,#317,#318,#319));
#81=EDGE_LOOP('',(#320,#321,#322,#323));
#82=EDGE_LOOP('',(#324,#325,#326,#327));
#83=EDGE_LOOP('',(#328,#329,#330,#331));
#84=EDGE_LOOP('',(#332,#333,#334,#335));
#85=EDGE_LOOP('',(#336,#337,#338,#339));
#86=EDGE_LOOP('',(#340));
#87=EDGE_LOOP('',(#341));
#88=EDGE_LOOP('',(#342,#343,#344,#345));
#89=EDGE_LOOP('',(#346));
#90=EDGE_LOOP('',(#347));
#91=EDGE_LOOP('',(#348,#349,#350,#351));
#92=EDGE_LOOP('',(#352,#353,#354,#355));
#93=EDGE_LOOP('',(#356,#357,#358));
#94=EDGE_LOOP('',(#359,#360,#361,#362));
#95=EDGE_LOOP('',(#363,#364,#365,#366));
#96=EDGE_LOOP('',(#367,#368,#369));
#97=EDGE_LOOP('',(#370,#371,#372));
#98=EDGE_LOOP('',(#373,#374,#375,#376));
#99=EDGE_LOOP('',(#377,#378,#379,#380));
#100=EDGE_LOOP('',(#381,#382,#383));
#101=EDGE_LOOP('',(#384,#385,#386,#387));
#102=EDGE_LOOP('',(#388,#389,#390,#391));
#103=LINE('',#653,#131);
#104=LINE('',#659,#132);
#105=LINE('',#666,#133);
#106=LINE('',#670,#134);
#107=LINE('',#674,#135);
#108=LINE('',#677,#136);
#109=LINE('',#683,#137);
#110=LINE('',#685,#138);
#111=LINE('',#687,#139);
#112=LINE('',#688,#140);
#113=LINE('',#697,#141);
#114=LINE('',#700,#142);
#115=LINE('',#703,#143);
#116=LINE('',#704,#144);
#117=LINE('',#708,#145);
#118=LINE('',#711,#146);
#119=LINE('',#712,#147);
#120=LINE('',#716,#148);
#121=LINE('',#719,#149);
#122=LINE('',#720,#150);
#123=LINE('',#724,#151);
#124=LINE('',#726,#152);
#125=LINE('',#731,#153);
#126=LINE('',#738,#154);
#127=LINE('',#743,#155);
#128=LINE('',#746,#156);
#129=LINE('',#764,#157);
#130=LINE('',#766,#158);
#131=VECTOR('',#510,6.5);
#132=VECTOR('',#517,6.50000000000001);
#133=VECTOR('',#524,41.);
#134=VECTOR('',#527,86.);
#135=VECTOR('',#530,41.);
#136=VECTOR('',#533,86.);
#137=VECTOR('',#538,86.);
#138=VECTOR('',#539,41.);
#139=VECTOR('',#540,86.);
#140=VECTOR('',#541,41.);
#141=VECTOR('',#550,13.);
#142=VECTOR('',#553,13.);
#143=VECTOR('',#556,41.);
#144=VECTOR('',#557,13.);
#145=VECTOR('',#562,13.);
#146=VECTOR('',#565,86.);
#147=VECTOR('',#566,13.);
#148=VECTOR('',#571,13.);
#149=VECTOR('',#574,41.);
#150=VECTOR('',#575,13.);
#151=VECTOR('',#580,13.);
#152=VECTOR('',#583,86.);
#153=VECTOR('',#588,10.);
#154=VECTOR('',#597,10.);
#155=VECTOR('',#604,5.4);
#156=VECTOR('',#609,6.025);
#157=VECTOR('',#644,10.);
#158=VECTOR('',#647,10.);
#159=CIRCLE('',#448,6.5);
#160=CIRCLE('',#449,6.5);
#161=CIRCLE('',#451,6.50000000000001);
#162=CIRCLE('',#452,6.50000000000001);
#163=CIRCLE('',#454,2.);
#164=CIRCLE('',#455,2.);
#165=CIRCLE('',#456,2.);
#166=CIRCLE('',#457,2.);
#167=CIRCLE('',#458,5.4);
#168=CIRCLE('',#460,6.025);
#169=CIRCLE('',#461,10.5);
#170=CIRCLE('',#462,10.5);
#171=CIRCLE('',#464,2.);
#172=CIRCLE('',#467,2.);
#173=CIRCLE('',#470,2.);
#174=CIRCLE('',#473,2.);
#175=CIRCLE('',#476,10.);
#176=CIRCLE('',#477,10.);
#177=CIRCLE('',#480,10.);
#178=CIRCLE('',#481,10.);
#179=CIRCLE('',#484,5.4);
#180=CIRCLE('',#487,2.);
#181=CIRCLE('',#488,2.);
#182=CIRCLE('',#490,2.);
#183=CIRCLE('',#492,2.);
#184=CIRCLE('',#494,2.);
#185=CIRCLE('',#496,2.);
#186=CIRCLE('',#498,2.);
#187=CIRCLE('',#500,2.);
#188=VERTEX_POINT('',#650);
#189=VERTEX_POINT('',#652);
#190=VERTEX_POINT('',#656);
#191=VERTEX_POINT('',#658);
#192=VERTEX_POINT('',#662);
#193=VERTEX_POINT('',#663);
#194=VERTEX_POINT('',#665);
#195=VERTEX_POINT('',#667);
#196=VERTEX_POINT('',#669);
#197=VERTEX_POINT('',#671);
#198=VERTEX_POINT('',#673);
#199=VERTEX_POINT('',#675);
#200=VERTEX_POINT('',#678);
#201=VERTEX_POINT('',#681);
#202=VERTEX_POINT('',#682);
#203=VERTEX_POINT('',#684);
#204=VERTEX_POINT('',#686);
#205=VERTEX_POINT('',#689);
#206=VERTEX_POINT('',#691);
#207=VERTEX_POINT('',#693);
#208=VERTEX_POINT('',#696);
#209=VERTEX_POINT('',#698);
#210=VERTEX_POINT('',#702);
#211=VERTEX_POINT('',#706);
#212=VERTEX_POINT('',#710);
#213=VERTEX_POINT('',#714);
#214=VERTEX_POINT('',#718);
#215=VERTEX_POINT('',#722);
#216=VERTEX_POINT('',#728);
#217=VERTEX_POINT('',#730);
#218=VERTEX_POINT('',#735);
#219=VERTEX_POINT('',#737);
#220=VERTEX_POINT('',#742);
#221=EDGE_CURVE('',#188,#188,#159,.T.);
#222=EDGE_CURVE('',#188,#189,#103,.T.);
#223=EDGE_CURVE('',#189,#189,#160,.T.);
#224=EDGE_CURVE('',#190,#190,#161,.T.);
#225=EDGE_CURVE('',#190,#191,#104,.T.);
#226=EDGE_CURVE('',#191,#191,#162,.T.);
#227=EDGE_CURVE('',#192,#193,#163,.T.);
#228=EDGE_CURVE('',#193,#194,#105,.T.);
#229=EDGE_CURVE('',#194,#195,#164,.T.);
#230=EDGE_CURVE('',#195,#196,#106,.T.);
#231=EDGE_CURVE('',#196,#197,#165,.T.);
#232=EDGE_CURVE('',#197,#198,#107,.T.);
#233=EDGE_CURVE('',#198,#199,#166,.T.);
#234=EDGE_CURVE('',#199,#192,#108,.T.);
#235=EDGE_CURVE('',#200,#200,#167,.T.);
#236=EDGE_CURVE('',#201,#202,#109,.F.);
#237=EDGE_CURVE('',#202,#203,#110,.F.);
#238=EDGE_CURVE('',#203,#204,#111,.F.);
#239=EDGE_CURVE('',#204,#201,#112,.F.);
#240=EDGE_CURVE('',#205,#205,#168,.T.);
#241=EDGE_CURVE('',#206,#206,#169,.F.);
#242=EDGE_CURVE('',#207,#207,#170,.F.);
#243=EDGE_CURVE('',#192,#208,#113,.T.);
#244=EDGE_CURVE('',#208,#209,#171,.F.);
#245=EDGE_CURVE('',#193,#209,#114,.T.);
#246=EDGE_CURVE('',#209,#210,#115,.T.);
#247=EDGE_CURVE('',#194,#210,#116,.T.);
#248=EDGE_CURVE('',#210,#211,#172,.F.);
#249=EDGE_CURVE('',#195,#211,#117,.T.);
#250=EDGE_CURVE('',#211,#212,#118,.T.);
#251=EDGE_CURVE('',#196,#212,#119,.T.);
#252=EDGE_CURVE('',#212,#213,#173,.F.);
#253=EDGE_CURVE('',#197,#213,#120,.T.);
#254=EDGE_CURVE('',#213,#214,#121,.T.);
#255=EDGE_CURVE('',#198,#214,#122,.T.);
#256=EDGE_CURVE('',#214,#215,#174,.F.);
#257=EDGE_CURVE('',#199,#215,#123,.T.);
#258=EDGE_CURVE('',#215,#208,#124,.T.);
#259=EDGE_CURVE('',#216,#216,#175,.T.);
#260=EDGE_CURVE('',#216,#217,#125,.T.);
#261=EDGE_CURVE('',#217,#217,#176,.T.);
#262=EDGE_CURVE('',#218,#218,#177,.T.);
#263=EDGE_CURVE('',#218,#219,#126,.T.);
#264=EDGE_CURVE('',#219,#219,#178,.T.);
#265=EDGE_CURVE('',#200,#220,#127,.T.);
#266=EDGE_CURVE('',#220,#220,#179,.T.);
#267=EDGE_CURVE('',#220,#205,#128,.T.);
#268=EDGE_CURVE('',#204,#214,#180,.T.);
#269=EDGE_CURVE('',#215,#204,#181,.T.);
#270=EDGE_CURVE('',#208,#203,#182,.T.);
#271=EDGE_CURVE('',#201,#213,#183,.T.);
#272=EDGE_CURVE('',#209,#203,#184,.T.);
#273=EDGE_CURVE('',#201,#212,#185,.T.);
#274=EDGE_CURVE('',#210,#202,#186,.T.);
#275=EDGE_CURVE('',#202,#211,#187,.T.);
#276=EDGE_CURVE('',#219,#206,#129,.T.);
#277=EDGE_CURVE('',#217,#207,#130,.T.);
#278=ORIENTED_EDGE('',*,*,#221,.T.);
#279=ORIENTED_EDGE('',*,*,#222,.T.);
#280=ORIENTED_EDGE('',*,*,#223,.T.);
#281=ORIENTED_EDGE('',*,*,#222,.F.);
#282=ORIENTED_EDGE('',*,*,#224,.T.);
#283=ORIENTED_EDGE('',*,*,#225,.T.);
#284=ORIENTED_EDGE('',*,*,#226,.T.);
#285=ORIENTED_EDGE('',*,*,#225,.F.);
#286=ORIENTED_EDGE('',*,*,#227,.T.);
#287=ORIENTED_EDGE('',*,*,#228,.T.);
#288=ORIENTED_EDGE('',*,*,#229,.T.);
#289=ORIENTED_EDGE('',*,*,#230,.T.);
#290=ORIENTED_EDGE('',*,*,#231,.T.);
#291=ORIENTED_EDGE('',*,*,#232,.T.);
#292=ORIENTED_EDGE('',*,*,#233,.T.);
#293=ORIENTED_EDGE('',*,*,#234,.T.);
#294=ORIENTED_EDGE('',*,*,#224,.F.);
#295=ORIENTED_EDGE('',*,*,#221,.F.);
#296=ORIENTED_EDGE('',*,*,#235,.T.);
#297=ORIENTED_EDGE('',*,*,#236,.T.);
#298=ORIENTED_EDGE('',*,*,#237,.T.);
#299=ORIENTED_EDGE('',*,*,#238,.T.);
#300=ORIENTED_EDGE('',*,*,#239,.T.);
#301=ORIENTED_EDGE('',*,*,#240,.F.);
#302=ORIENTED_EDGE('',*,*,#241,.T.);
#303=ORIENTED_EDGE('',*,*,#242,.T.);
#304=ORIENTED_EDGE('',*,*,#243,.T.);
#305=ORIENTED_EDGE('',*,*,#244,.T.);
#306=ORIENTED_EDGE('',*,*,#245,.F.);
#307=ORIENTED_EDGE('',*,*,#227,.F.);
#308=ORIENTED_EDGE('',*,*,#245,.T.);
#309=ORIENTED_EDGE('',*,*,#246,.T.);
#310=ORIENTED_EDGE('',*,*,#247,.F.);
#311=ORIENTED_EDGE('',*,*,#228,.F.);
#312=ORIENTED_EDGE('',*,*,#247,.T.);
#313=ORIENTED_EDGE('',*,*,#248,.T.);
#314=ORIENTED_EDGE('',*,*,#249,.F.);
#315=ORIENTED_EDGE('',*,*,#229,.F.);
#316=ORIENTED_EDGE('',*,*,#249,.T.);
#317=ORIENTED_EDGE('',*,*,#250,.T.);
#318=ORIENTED_EDGE('',*,*,#251,.F.);
#319=ORIENTED_EDGE('',*,*,#230,.F.);
#320=ORIENTED_EDGE('',*,*,#251,.T.);
#321=ORIENTED_EDGE('',*,*,#252,.T.);
#322=ORIENTED_EDGE('',*,*,#253,.F.);
#323=ORIENTED_EDGE('',*,*,#231,.F.);
#324=ORIENTED_EDGE('',*,*,#253,.T.);
#325=ORIENTED_EDGE('',*,*,#254,.T.);
#326=ORIENTED_EDGE('',*,*,#255,.F.);
#327=ORIENTED_EDGE('',*,*,#232,.F.);
#328=ORIENTED_EDGE('',*,*,#255,.T.);
#329=ORIENTED_EDGE('',*,*,#256,.T.);
#330=ORIENTED_EDGE('',*,*,#257,.F.);
#331=ORIENTED_EDGE('',*,*,#233,.F.);
#332=ORIENTED_EDGE('',*,*,#257,.T.);
#333=ORIENTED_EDGE('',*,*,#258,.T.);
#334=ORIENTED_EDGE('',*,*,#243,.F.);
#335=ORIENTED_EDGE('',*,*,#234,.F.);
#336=ORIENTED_EDGE('',*,*,#259,.F.);
#337=ORIENTED_EDGE('',*,*,#260,.T.);
#338=ORIENTED_EDGE('',*,*,#261,.T.);
#339=ORIENTED_EDGE('',*,*,#260,.F.);
#340=ORIENTED_EDGE('',*,*,#259,.T.);
#341=ORIENTED_EDGE('',*,*,#226,.F.);
#342=ORIENTED_EDGE('',*,*,#262,.F.);
#343=ORIENTED_EDGE('',*,*,#263,.T.);
#344=ORIENTED_EDGE('',*,*,#264,.T.);
#345=ORIENTED_EDGE('',*,*,#263,.F.);
#346=ORIENTED_EDGE('',*,*,#262,.T.);
#347=ORIENTED_EDGE('',*,*,#223,.F.);
#348=ORIENTED_EDGE('',*,*,#235,.F.);
#349=ORIENTED_EDGE('',*,*,#265,.T.);
#350=ORIENTED_EDGE('',*,*,#266,.T.);
#351=ORIENTED_EDGE('',*,*,#265,.F.);
#352=ORIENTED_EDGE('',*,*,#266,.F.);
#353=ORIENTED_EDGE('',*,*,#267,.T.);
#354=ORIENTED_EDGE('',*,*,#240,.T.);
#355=ORIENTED_EDGE('',*,*,#267,.F.);
#356=ORIENTED_EDGE('',*,*,#268,.F.);
#357=ORIENTED_EDGE('',*,*,#269,.F.);
#358=ORIENTED_EDGE('',*,*,#256,.F.);
#359=ORIENTED_EDGE('',*,*,#269,.T.);
#360=ORIENTED_EDGE('',*,*,#238,.F.);
#361=ORIENTED_EDGE('',*,*,#270,.F.);
#362=ORIENTED_EDGE('',*,*,#258,.F.);
#363=ORIENTED_EDGE('',*,*,#268,.T.);
#364=ORIENTED_EDGE('',*,*,#254,.F.);
#365=ORIENTED_EDGE('',*,*,#271,.F.);
#366=ORIENTED_EDGE('',*,*,#239,.F.);
#367=ORIENTED_EDGE('',*,*,#244,.F.);
#368=ORIENTED_EDGE('',*,*,#270,.T.);
#369=ORIENTED_EDGE('',*,*,#272,.F.);
#370=ORIENTED_EDGE('',*,*,#271,.T.);
#371=ORIENTED_EDGE('',*,*,#252,.F.);
#372=ORIENTED_EDGE('',*,*,#273,.F.);
#373=ORIENTED_EDGE('',*,*,#272,.T.);
#374=ORIENTED_EDGE('',*,*,#237,.F.);
#375=ORIENTED_EDGE('',*,*,#274,.F.);
#376=ORIENTED_EDGE('',*,*,#246,.F.);
#377=ORIENTED_EDGE('',*,*,#273,.T.);
#378=ORIENTED_EDGE('',*,*,#250,.F.);
#379=ORIENTED_EDGE('',*,*,#275,.F.);
#380=ORIENTED_EDGE('',*,*,#236,.F.);
#381=ORIENTED_EDGE('',*,*,#248,.F.);
#382=ORIENTED_EDGE('',*,*,#274,.T.);
#383=ORIENTED_EDGE('',*,*,#275,.T.);
#384=ORIENTED_EDGE('',*,*,#264,.F.);
#385=ORIENTED_EDGE('',*,*,#276,.T.);
#386=ORIENTED_EDGE('',*,*,#241,.F.);
#387=ORIENTED_EDGE('',*,*,#276,.F.);
#388=ORIENTED_EDGE('',*,*,#261,.F.);
#389=ORIENTED_EDGE('',*,*,#277,.T.);
#390=ORIENTED_EDGE('',*,*,#242,.F.);
#391=ORIENTED_EDGE('',*,*,#277,.F.);
#392=CYLINDRICAL_SURFACE('',#447,6.5);
#393=CYLINDRICAL_SURFACE('',#450,6.50000000000001);
#394=CYLINDRICAL_SURFACE('',#463,2.);
#395=CYLINDRICAL_SURFACE('',#466,2.);
#396=CYLINDRICAL_SURFACE('',#469,2.);
#397=CYLINDRICAL_SURFACE('',#472,2.);
#398=CYLINDRICAL_SURFACE('',#475,10.);
#399=CYLINDRICAL_SURFACE('',#479,10.);
#400=CYLINDRICAL_SURFACE('',#483,5.4);
#401=CYLINDRICAL_SURFACE('',#489,2.);
#402=CYLINDRICAL_SURFACE('',#491,2.);
#403=CYLINDRICAL_SURFACE('',#497,2.);
#404=CYLINDRICAL_SURFACE('',#499,2.);
#405=ADVANCED_FACE('',(#39),#392,.F.);
#406=ADVANCED_FACE('',(#40),#393,.F.);
#407=ADVANCED_FACE('',(#41,#23,#24,#25),#31,.F.);
#408=ADVANCED_FACE('',(#42,#26,#27,#28),#32,.T.);
#409=ADVANCED_FACE('',(#43),#394,.T.);
#410=ADVANCED_FACE('',(#44),#33,.F.);
#411=ADVANCED_FACE('',(#45),#395,.T.);
#412=ADVANCED_FACE('',(#46),#34,.F.);
#413=ADVANCED_FACE('',(#47),#396,.T.);
#414=ADVANCED_FACE('',(#48),#35,.F.);
#415=ADVANCED_FACE('',(#49),#397,.T.);
#416=ADVANCED_FACE('',(#50),#36,.F.);
#417=ADVANCED_FACE('',(#51),#398,.F.);
#418=ADVANCED_FACE('',(#52,#29),#37,.T.);
#419=ADVANCED_FACE('',(#53),#399,.F.);
#420=ADVANCED_FACE('',(#54,#30),#38,.T.);
#421=ADVANCED_FACE('',(#55),#400,.F.);
#422=ADVANCED_FACE('',(#56),#18,.F.);
#423=ADVANCED_FACE('',(#57),#14,.T.);
#424=ADVANCED_FACE('',(#58),#401,.T.);
#425=ADVANCED_FACE('',(#59),#402,.T.);
#426=ADVANCED_FACE('',(#60),#15,.T.);
#427=ADVANCED_FACE('',(#61),#16,.T.);
#428=ADVANCED_FACE('',(#62),#403,.T.);
#429=ADVANCED_FACE('',(#63),#404,.T.);
#430=ADVANCED_FACE('',(#64),#17,.T.);
#431=ADVANCED_FACE('',(#65),#19,.F.);
#432=ADVANCED_FACE('',(#66),#20,.F.);
#433=CLOSED_SHELL('',(#405,#406,#407,#408,#409,#410,#411,#412,#413,#414,
#415,#416,#417,#418,#419,#420,#421,#422,#423,#424,#425,#426,#427,#428,#429,
#430,#431,#432));
#434=DERIVED_UNIT_ELEMENT(#436,1.);
#435=DERIVED_UNIT_ELEMENT(#772,-3.);
#436=(
MASS_UNIT()
NAMED_UNIT(*)
SI_UNIT(.KILO.,.GRAM.)
);
#437=DERIVED_UNIT((#434,#435));
#438=MEASURE_REPRESENTATION_ITEM('density measure',
POSITIVE_RATIO_MEASURE(2690.),#437);
#439=PROPERTY_DEFINITION_REPRESENTATION(#444,#441);
#440=PROPERTY_DEFINITION_REPRESENTATION(#445,#442);
#441=REPRESENTATION('material name',(#443),#769);
#442=REPRESENTATION('density',(#438),#769);
#443=DESCRIPTIVE_REPRESENTATION_ITEM(
'Custom Materials|3.2315 (EN-AW 6082)',
'Custom Materials|3.2315 (EN-AW 6082)');
#444=PROPERTY_DEFINITION('material property','material name',#779);
#445=PROPERTY_DEFINITION('material property','density of part',#779);
#446=AXIS2_PLACEMENT_3D('placement',#648,#504,#505);
#447=AXIS2_PLACEMENT_3D('',#649,#506,#507);
#448=AXIS2_PLACEMENT_3D('',#651,#508,#509);
#449=AXIS2_PLACEMENT_3D('',#654,#511,#512);
#450=AXIS2_PLACEMENT_3D('',#655,#513,#514);
#451=AXIS2_PLACEMENT_3D('',#657,#515,#516);
#452=AXIS2_PLACEMENT_3D('',#660,#518,#519);
#453=AXIS2_PLACEMENT_3D('',#661,#520,#521);
#454=AXIS2_PLACEMENT_3D('',#664,#522,#523);
#455=AXIS2_PLACEMENT_3D('',#668,#525,#526);
#456=AXIS2_PLACEMENT_3D('',#672,#528,#529);
#457=AXIS2_PLACEMENT_3D('',#676,#531,#532);
#458=AXIS2_PLACEMENT_3D('',#679,#534,#535);
#459=AXIS2_PLACEMENT_3D('',#680,#536,#537);
#460=AXIS2_PLACEMENT_3D('',#690,#542,#543);
#461=AXIS2_PLACEMENT_3D('',#692,#544,#545);
#462=AXIS2_PLACEMENT_3D('',#694,#546,#547);
#463=AXIS2_PLACEMENT_3D('',#695,#548,#549);
#464=AXIS2_PLACEMENT_3D('',#699,#551,#552);
#465=AXIS2_PLACEMENT_3D('',#701,#554,#555);
#466=AXIS2_PLACEMENT_3D('',#705,#558,#559);
#467=AXIS2_PLACEMENT_3D('',#707,#560,#561);
#468=AXIS2_PLACEMENT_3D('',#709,#563,#564);
#469=AXIS2_PLACEMENT_3D('',#713,#567,#568);
#470=AXIS2_PLACEMENT_3D('',#715,#569,#570);
#471=AXIS2_PLACEMENT_3D('',#717,#572,#573);
#472=AXIS2_PLACEMENT_3D('',#721,#576,#577);
#473=AXIS2_PLACEMENT_3D('',#723,#578,#579);
#474=AXIS2_PLACEMENT_3D('',#725,#581,#582);
#475=AXIS2_PLACEMENT_3D('',#727,#584,#585);
#476=AXIS2_PLACEMENT_3D('',#729,#586,#587);
#477=AXIS2_PLACEMENT_3D('',#732,#589,#590);
#478=AXIS2_PLACEMENT_3D('',#733,#591,#592);
#479=AXIS2_PLACEMENT_3D('',#734,#593,#594);
#480=AXIS2_PLACEMENT_3D('',#736,#595,#596);
#481=AXIS2_PLACEMENT_3D('',#739,#598,#599);
#482=AXIS2_PLACEMENT_3D('',#740,#600,#601);
#483=AXIS2_PLACEMENT_3D('',#741,#602,#603);
#484=AXIS2_PLACEMENT_3D('',#744,#605,#606);
#485=AXIS2_PLACEMENT_3D('',#745,#607,#608);
#486=AXIS2_PLACEMENT_3D('',#747,#610,#611);
#487=AXIS2_PLACEMENT_3D('',#748,#612,#613);
#488=AXIS2_PLACEMENT_3D('',#749,#614,#615);
#489=AXIS2_PLACEMENT_3D('',#750,#616,#617);
#490=AXIS2_PLACEMENT_3D('',#751,#618,#619);
#491=AXIS2_PLACEMENT_3D('',#752,#620,#621);
#492=AXIS2_PLACEMENT_3D('',#753,#622,#623);
#493=AXIS2_PLACEMENT_3D('',#754,#624,#625);
#494=AXIS2_PLACEMENT_3D('',#755,#626,#627);
#495=AXIS2_PLACEMENT_3D('',#756,#628,#629);
#496=AXIS2_PLACEMENT_3D('',#757,#630,#631);
#497=AXIS2_PLACEMENT_3D('',#758,#632,#633);
#498=AXIS2_PLACEMENT_3D('',#759,#634,#635);
#499=AXIS2_PLACEMENT_3D('',#760,#636,#637);
#500=AXIS2_PLACEMENT_3D('',#761,#638,#639);
#501=AXIS2_PLACEMENT_3D('',#762,#640,#641);
#502=AXIS2_PLACEMENT_3D('',#763,#642,#643);
#503=AXIS2_PLACEMENT_3D('',#765,#645,#646);
#504=DIRECTION('axis',(0.,0.,1.));
#505=DIRECTION('refdir',(1.,0.,0.));
#506=DIRECTION('center_axis',(0.,0.,-1.));
#507=DIRECTION('ref_axis',(3.49148133884313E-15,-1.,0.));
#508=DIRECTION('center_axis',(0.,0.,1.));
#509=DIRECTION('ref_axis',(3.49148133884313E-15,-1.,0.));
#510=DIRECTION('',(0.,0.,-1.));
#511=DIRECTION('center_axis',(0.,0.,-1.));
#512=DIRECTION('ref_axis',(3.49148133884313E-15,-1.,0.));
#513=DIRECTION('center_axis',(0.,0.,-1.));
#514=DIRECTION('ref_axis',(3.49148133884313E-15,-1.,0.));
#515=DIRECTION('center_axis',(0.,0.,1.));
#516=DIRECTION('ref_axis',(-3.49148133884313E-15,1.,0.));
#517=DIRECTION('',(0.,0.,-1.));
#518=DIRECTION('center_axis',(0.,0.,-1.));
#519=DIRECTION('ref_axis',(3.49148133884313E-15,-1.,0.));
#520=DIRECTION('center_axis',(0.,0.,-1.));
#521=DIRECTION('ref_axis',(-1.,0.,0.));
#522=DIRECTION('center_axis',(0.,0.,1.));
#523=DIRECTION('ref_axis',(3.49148133884313E-15,-1.,0.));
#524=DIRECTION('',(-3.68269100851272E-15,1.,0.));
#525=DIRECTION('center_axis',(0.,0.,1.));
#526=DIRECTION('ref_axis',(-3.49148133884313E-15,1.,0.));
#527=DIRECTION('',(-1.,-3.5114030546284E-15,0.));
#528=DIRECTION('center_axis',(0.,0.,1.));
#529=DIRECTION('ref_axis',(3.49148133884313E-15,-1.,0.));
#530=DIRECTION('',(3.46606212565903E-15,-1.,0.));
#531=DIRECTION('center_axis',(0.,0.,1.));
#532=DIRECTION('ref_axis',(3.49148133884313E-15,-1.,0.));
#533=DIRECTION('',(1.,3.74377531559646E-15,0.));
#534=DIRECTION('center_axis',(0.,0.,-1.));
#535=DIRECTION('ref_axis',(3.49148133884313E-15,-1.,0.));
#536=DIRECTION('center_axis',(0.,0.,-1.));
#537=DIRECTION('ref_axis',(-1.,0.,0.));
#538=DIRECTION('',(-1.,-3.61467961505865E-15,0.));
#539=DIRECTION('',(-3.68269100851271E-15,1.,0.));
#540=DIRECTION('',(1.,3.76959445570402E-15,0.));
#541=DIRECTION('',(3.46606212565902E-15,-1.,0.));
#542=DIRECTION('center_axis',(0.,0.,-1.));
#543=DIRECTION('ref_axis',(3.49148133884313E-15,-1.,0.));
#544=DIRECTION('center_axis',(0.,0.,-1.));
#545=DIRECTION('ref_axis',(3.49148133884313E-15,-1.,0.));
#546=DIRECTION('center_axis',(0.,0.,-1.));
#547=DIRECTION('ref_axis',(3.49148133884313E-15,-1.,0.));
#548=DIRECTION('center_axis',(0.,0.,-1.));
#549=DIRECTION('ref_axis',(3.49148133884313E-15,-1.,0.));
#550=DIRECTION('',(0.,0.,-1.));
#551=DIRECTION('center_axis',(0.,0.,-1.));
#552=DIRECTION('ref_axis',(3.49148133884313E-15,-1.,0.));
#553=DIRECTION('',(0.,0.,-1.));
#554=DIRECTION('center_axis',(-1.,-3.49148133884313E-15,0.));
#555=DIRECTION('ref_axis',(0.,0.,1.));
#556=DIRECTION('',(-3.68269100851272E-15,1.,0.));
#557=DIRECTION('',(0.,0.,-1.));
#558=DIRECTION('center_axis',(0.,0.,-1.));
#559=DIRECTION('ref_axis',(3.49148133884313E-15,-1.,0.));
#560=DIRECTION('center_axis',(0.,0.,-1.));
#561=DIRECTION('ref_axis',(3.49148133884313E-15,-1.,0.));
#562=DIRECTION('',(0.,0.,-1.));
#563=DIRECTION('center_axis',(3.49148133884313E-15,-1.,0.));
#564=DIRECTION('ref_axis',(0.,0.,-1.));
#565=DIRECTION('',(-1.,-3.5114030546284E-15,0.));
#566=DIRECTION('',(0.,0.,-1.));
#567=DIRECTION('center_axis',(0.,0.,-1.));
#568=DIRECTION('ref_axis',(3.49148133884313E-15,-1.,0.));
#569=DIRECTION('center_axis',(0.,0.,-1.));
#570=DIRECTION('ref_axis',(3.49148133884313E-15,-1.,0.));
#571=DIRECTION('',(0.,0.,-1.));
#572=DIRECTION('center_axis',(1.,3.49148133884313E-15,0.));
#573=DIRECTION('ref_axis',(0.,0.,-1.));
#574=DIRECTION('',(3.46606212565903E-15,-1.,0.));
#575=DIRECTION('',(0.,0.,-1.));
#576=DIRECTION('center_axis',(0.,0.,-1.));
#577=DIRECTION('ref_axis',(3.49148133884313E-15,-1.,0.));
#578=DIRECTION('center_axis',(0.,0.,-1.));
#579=DIRECTION('ref_axis',(3.49148133884313E-15,-1.,0.));
#580=DIRECTION('',(0.,0.,-1.));
#581=DIRECTION('center_axis',(-3.73353577735153E-15,1.,0.));
#582=DIRECTION('ref_axis',(0.,0.,1.));
#583=DIRECTION('',(1.,3.74377531559646E-15,0.));
#584=DIRECTION('center_axis',(0.,0.,-1.));
#585=DIRECTION('ref_axis',(3.49148133884313E-15,-1.,0.));
#586=DIRECTION('center_axis',(0.,0.,-1.));
#587=DIRECTION('ref_axis',(3.49148133884313E-15,-1.,0.));
#588=DIRECTION('',(0.,0.,-1.));
#589=DIRECTION('center_axis',(0.,0.,-1.));
#590=DIRECTION('ref_axis',(3.49148133884313E-15,-1.,0.));
#591=DIRECTION('center_axis',(0.,0.,-1.));
#592=DIRECTION('ref_axis',(-1.,0.,0.));
#593=DIRECTION('center_axis',(0.,0.,-1.));
#594=DIRECTION('ref_axis',(3.49148133884313E-15,-1.,0.));
#595=DIRECTION('center_axis',(0.,0.,-1.));
#596=DIRECTION('ref_axis',(3.49148133884313E-15,-1.,0.));
#597=DIRECTION('',(0.,0.,-1.));
#598=DIRECTION('center_axis',(0.,0.,-1.));
#599=DIRECTION('ref_axis',(3.49148133884313E-15,-1.,0.));
#600=DIRECTION('center_axis',(0.,0.,-1.));
#601=DIRECTION('ref_axis',(-1.,0.,0.));
#602=DIRECTION('center_axis',(0.,0.,-1.));
#603=DIRECTION('ref_axis',(3.49148133884313E-15,-1.,0.));
#604=DIRECTION('',(0.,0.,-1.));
#605=DIRECTION('center_axis',(0.,0.,-1.));
#606=DIRECTION('ref_axis',(3.49148133884313E-15,-1.,0.));
#607=DIRECTION('center_axis',(0.,0.,-1.));
#608=DIRECTION('ref_axis',(3.49148133884313E-15,-1.,0.));
#609=DIRECTION('',(-2.38225452545873E-15,0.707106781186551,-0.707106781186544));
#610=DIRECTION('center_axis',(0.,0.,1.));
#611=DIRECTION('ref_axis',(1.,0.,0.));
#612=DIRECTION('center_axis',(6.04949777902929E-15,1.,0.));
#613=DIRECTION('ref_axis',(-1.,6.04949777902929E-15,0.));
#614=DIRECTION('center_axis',(1.,3.49148133884313E-15,0.));
#615=DIRECTION('ref_axis',(0.,0.,-1.));
#616=DIRECTION('center_axis',(-1.,-3.73353577735153E-15,0.));
#617=DIRECTION('ref_axis',(3.73353577735153E-15,-1.,0.));
#618=DIRECTION('center_axis',(1.,3.70832177334023E-15,2.16840434497101E-16));
#619=DIRECTION('ref_axis',(2.16840434497101E-16,7.57094330553265E-31,-1.));
#620=DIRECTION('center_axis',(-3.49148133884313E-15,1.,0.));
#621=DIRECTION('ref_axis',(0.,0.,-1.));
#622=DIRECTION('center_axis',(-3.49148133884313E-15,1.,0.));
#623=DIRECTION('ref_axis',(0.,0.,-1.));
#624=DIRECTION('center_axis',(0.,0.,1.));
#625=DIRECTION('ref_axis',(1.,0.,0.));
#626=DIRECTION('center_axis',(-3.49148133884313E-15,1.,0.));
#627=DIRECTION('ref_axis',(0.,0.,-1.));
#628=DIRECTION('center_axis',(0.,0.,1.));
#629=DIRECTION('ref_axis',(1.,0.,0.));
#630=DIRECTION('center_axis',(1.,-3.44741256506411E-15,0.));
#631=DIRECTION('ref_axis',(3.44741256506411E-15,1.,0.));
#632=DIRECTION('center_axis',(3.49148133884313E-15,-1.,0.));
#633=DIRECTION('ref_axis',(0.,0.,1.));
#634=DIRECTION('center_axis',(-3.49148133884313E-15,1.,1.04083408558608E-14));
#635=DIRECTION('ref_axis',(-3.63405278665567E-29,1.04083408558608E-14,-1.));
#636=DIRECTION('center_axis',(1.,3.49148133884313E-15,0.));
#637=DIRECTION('ref_axis',(0.,0.,-1.));
#638=DIRECTION('center_axis',(1.,3.49148133884313E-15,0.));
#639=DIRECTION('ref_axis',(0.,0.,-1.));
#640=DIRECTION('center_axis',(0.,0.,1.));
#641=DIRECTION('ref_axis',(1.,0.,0.));
#642=DIRECTION('center_axis',(0.,0.,-1.));
#643=DIRECTION('ref_axis',(3.49148133884313E-15,-1.,0.));
#644=DIRECTION('',(-2.38225452545873E-15,0.707106781186551,-0.707106781186544));
#645=DIRECTION('center_axis',(0.,0.,-1.));
#646=DIRECTION('ref_axis',(3.49148133884313E-15,-1.,0.));
#647=DIRECTION('',(-2.3822545254587E-15,0.707106781186543,-0.707106781186552));
#648=CARTESIAN_POINT('',(0.,0.,0.));
#649=CARTESIAN_POINT('Origin',(37.5,42.5000000000001,15.));
#650=CARTESIAN_POINT('',(37.5,49.0000000000001,15.));
#651=CARTESIAN_POINT('Origin',(37.5,42.5000000000001,15.));
#652=CARTESIAN_POINT('',(37.5,49.0000000000001,8.5));
#653=CARTESIAN_POINT('',(37.5,49.0000000000001,15.));
#654=CARTESIAN_POINT('Origin',(37.5,42.5000000000001,8.5));
#655=CARTESIAN_POINT('Origin',(-7.50000000000001,42.4999999999999,15.));
#656=CARTESIAN_POINT('',(-7.50000000000004,48.9999999999999,15.));
#657=CARTESIAN_POINT('Origin',(-7.50000000000001,42.4999999999999,15.));
#658=CARTESIAN_POINT('',(-7.50000000000004,48.9999999999999,8.5));
#659=CARTESIAN_POINT('',(-7.50000000000004,48.9999999999999,15.));
#660=CARTESIAN_POINT('Origin',(-7.50000000000001,42.4999999999999,8.5));
#661=CARTESIAN_POINT('Origin',(58.0000000000001,22.0000000000001,15.));
#662=CARTESIAN_POINT('',(58.0000000000001,20.0000000000001,15.));
#663=CARTESIAN_POINT('',(60.0000000000001,22.0000000000002,15.));
#664=CARTESIAN_POINT('Origin',(58.0000000000001,22.0000000000001,15.));
#665=CARTESIAN_POINT('',(59.9999999999999,63.0000000000001,15.));
#666=CARTESIAN_POINT('',(60.0000000000001,22.0000000000002,15.));
#667=CARTESIAN_POINT('',(57.9999999999999,65.0000000000001,15.));
#668=CARTESIAN_POINT('Origin',(57.9999999999999,63.0000000000001,15.));
#669=CARTESIAN_POINT('',(-28.0000000000001,64.9999999999998,15.));
#670=CARTESIAN_POINT('',(57.9999999999999,65.0000000000001,15.));
#671=CARTESIAN_POINT('',(-30.0000000000001,62.9999999999998,15.));
#672=CARTESIAN_POINT('Origin',(-28.0000000000001,62.9999999999998,15.));
#673=CARTESIAN_POINT('',(-29.9999999999999,21.9999999999998,15.));
#674=CARTESIAN_POINT('',(-30.0000000000001,62.9999999999998,15.));
#675=CARTESIAN_POINT('',(-27.9999999999999,19.9999999999998,15.));
#676=CARTESIAN_POINT('Origin',(-27.9999999999999,21.9999999999998,15.));
#677=CARTESIAN_POINT('',(-27.9999999999999,19.9999999999998,15.));
#678=CARTESIAN_POINT('',(15.,47.9,15.));
#679=CARTESIAN_POINT('Origin',(15.,42.5,15.));
#680=CARTESIAN_POINT('Origin',(58.0000000000001,22.0000000000001,0.));
#681=CARTESIAN_POINT('',(-28.0000000000001,62.9999999999998,0.));
#682=CARTESIAN_POINT('',(57.9999999999999,63.0000000000001,0.));
#683=CARTESIAN_POINT('',(57.9999999999999,63.0000000000001,0.));
#684=CARTESIAN_POINT('',(58.0000000000001,22.0000000000001,0.));
#685=CARTESIAN_POINT('',(58.0000000000001,22.0000000000001,0.));
#686=CARTESIAN_POINT('',(-27.9999999999999,21.9999999999998,0.));
#687=CARTESIAN_POINT('',(-27.9999999999999,21.9999999999998,0.));
#688=CARTESIAN_POINT('',(-28.0000000000001,62.9999999999998,0.));
#689=CARTESIAN_POINT('',(15.,48.525,-2.54851435402857E-15));
#690=CARTESIAN_POINT('Origin',(15.,42.5,-8.67361737988404E-16));
#691=CARTESIAN_POINT('',(37.5,53.0000000000001,-6.24500451351651E-16));
#692=CARTESIAN_POINT('Origin',(37.5,42.5000000000001,0.));
#693=CARTESIAN_POINT('',(-7.50000000000005,52.9999999999999,-1.38777878078145E-15));
#694=CARTESIAN_POINT('Origin',(-7.50000000000001,42.4999999999999,0.));
#695=CARTESIAN_POINT('Origin',(58.0000000000001,22.0000000000001,15.));
#696=CARTESIAN_POINT('',(58.0000000000001,20.0000000000001,2.));
#697=CARTESIAN_POINT('',(58.0000000000001,20.0000000000001,15.));
#698=CARTESIAN_POINT('',(60.0000000000001,22.0000000000002,2.));
#699=CARTESIAN_POINT('Origin',(58.0000000000001,22.0000000000001,2.));
#700=CARTESIAN_POINT('',(60.0000000000001,22.0000000000002,15.));
#701=CARTESIAN_POINT('Origin',(60.0000000000001,22.0000000000002,15.));
#702=CARTESIAN_POINT('',(59.9999999999999,63.0000000000001,2.));
#703=CARTESIAN_POINT('',(60.0000000000001,22.0000000000002,2.));
#704=CARTESIAN_POINT('',(59.9999999999999,63.0000000000001,15.));
#705=CARTESIAN_POINT('Origin',(57.9999999999999,63.0000000000001,15.));
#706=CARTESIAN_POINT('',(57.9999999999999,65.0000000000001,2.));
#707=CARTESIAN_POINT('Origin',(57.9999999999999,63.0000000000001,2.));
#708=CARTESIAN_POINT('',(57.9999999999999,65.0000000000001,15.));
#709=CARTESIAN_POINT('Origin',(57.9999999999999,65.0000000000001,15.));
#710=CARTESIAN_POINT('',(-28.0000000000001,64.9999999999998,2.));
#711=CARTESIAN_POINT('',(57.9999999999999,65.0000000000001,2.));
#712=CARTESIAN_POINT('',(-28.0000000000001,64.9999999999998,15.));
#713=CARTESIAN_POINT('Origin',(-28.0000000000001,62.9999999999998,15.));
#714=CARTESIAN_POINT('',(-30.0000000000001,62.9999999999998,2.));
#715=CARTESIAN_POINT('Origin',(-28.0000000000001,62.9999999999998,2.));
#716=CARTESIAN_POINT('',(-30.0000000000001,62.9999999999998,15.));
#717=CARTESIAN_POINT('Origin',(-29.9999999999999,21.9999999999998,15.));
#718=CARTESIAN_POINT('',(-29.9999999999999,21.9999999999998,2.));
#719=CARTESIAN_POINT('',(-30.0000000000001,62.9999999999998,2.));
#720=CARTESIAN_POINT('',(-29.9999999999999,21.9999999999998,15.));
#721=CARTESIAN_POINT('Origin',(-27.9999999999999,21.9999999999998,15.));
#722=CARTESIAN_POINT('',(-27.9999999999999,19.9999999999998,2.));
#723=CARTESIAN_POINT('Origin',(-27.9999999999999,21.9999999999998,2.));
#724=CARTESIAN_POINT('',(-27.9999999999999,19.9999999999998,15.));
#725=CARTESIAN_POINT('Origin',(58.0000000000001,20.0000000000001,15.));
#726=CARTESIAN_POINT('',(-27.9999999999999,19.9999999999998,2.));
#727=CARTESIAN_POINT('Origin',(-7.50000000000001,42.4999999999999,8.5));
#728=CARTESIAN_POINT('',(-7.50000000000005,52.4999999999999,8.5));
#729=CARTESIAN_POINT('Origin',(-7.50000000000001,42.4999999999999,8.5));
#730=CARTESIAN_POINT('',(-7.50000000000005,52.4999999999999,0.500000000000003));
#731=CARTESIAN_POINT('',(-7.50000000000005,52.4999999999999,8.5));
#732=CARTESIAN_POINT('Origin',(-7.50000000000001,42.4999999999999,0.500000000000002));
#733=CARTESIAN_POINT('Origin',(-7.50000000000001,42.4999999999999,8.5));
#734=CARTESIAN_POINT('Origin',(37.5,42.5000000000001,8.5));
#735=CARTESIAN_POINT('',(37.5,52.5000000000001,8.5));
#736=CARTESIAN_POINT('Origin',(37.5,42.5000000000001,8.5));
#737=CARTESIAN_POINT('',(37.5,52.5000000000001,0.5));
#738=CARTESIAN_POINT('',(37.5,52.5000000000001,8.5));
#739=CARTESIAN_POINT('Origin',(37.5,42.5000000000001,0.5));
#740=CARTESIAN_POINT('Origin',(37.5,42.5000000000001,8.5));
#741=CARTESIAN_POINT('Origin',(15.,42.5,0.));
#742=CARTESIAN_POINT('',(15.,47.9,0.625000000000001));
#743=CARTESIAN_POINT('',(15.,47.9,0.));
#744=CARTESIAN_POINT('Origin',(15.,42.5,0.625000000000001));
#745=CARTESIAN_POINT('Origin',(15.,42.5,-8.67361737988404E-16));
#746=CARTESIAN_POINT('',(15.,48.525,-8.67361737988404E-16));
#747=CARTESIAN_POINT('Origin',(-27.9999999999999,21.9999999999998,2.));
#748=CARTESIAN_POINT('Origin',(-27.9999999999999,21.9999999999998,2.));
#749=CARTESIAN_POINT('Origin',(-27.9999999999999,21.9999999999998,2.));
#750=CARTESIAN_POINT('Origin',(58.0000000000001,22.0000000000001,2.));
#751=CARTESIAN_POINT('Origin',(58.0000000000001,22.0000000000001,2.));
#752=CARTESIAN_POINT('Origin',(-27.9999999999999,21.9999999999998,2.));
#753=CARTESIAN_POINT('Origin',(-28.0000000000001,62.9999999999998,2.));
#754=CARTESIAN_POINT('Origin',(58.0000000000001,22.0000000000001,2.));
#755=CARTESIAN_POINT('Origin',(58.0000000000001,22.0000000000001,2.));
#756=CARTESIAN_POINT('Origin',(-28.0000000000001,62.9999999999998,2.));
#757=CARTESIAN_POINT('Origin',(-28.0000000000001,62.9999999999998,2.));
#758=CARTESIAN_POINT('Origin',(58.0000000000001,22.0000000000001,2.));
#759=CARTESIAN_POINT('Origin',(57.9999999999999,63.0000000000001,2.));
#760=CARTESIAN_POINT('Origin',(57.9999999999999,63.0000000000001,2.));
#761=CARTESIAN_POINT('Origin',(57.9999999999999,63.0000000000001,2.));
#762=CARTESIAN_POINT('Origin',(57.9999999999999,63.0000000000001,2.));
#763=CARTESIAN_POINT('Origin',(37.5,42.5000000000001,0.5));
#764=CARTESIAN_POINT('',(37.5,52.5000000000001,0.5));
#765=CARTESIAN_POINT('Origin',(-7.50000000000001,42.4999999999999,0.500000000000002));
#766=CARTESIAN_POINT('',(-7.50000000000005,52.4999999999999,0.500000000000002));
#767=UNCERTAINTY_MEASURE_WITH_UNIT(LENGTH_MEASURE(0.01),#771,
'DISTANCE_ACCURACY_VALUE',
'Maximum model space distance between geometric entities at asserted c
onnectivities');
#768=UNCERTAINTY_MEASURE_WITH_UNIT(LENGTH_MEASURE(0.01),#771,
'DISTANCE_ACCURACY_VALUE',
'Maximum model space distance between geometric entities at asserted c
onnectivities');
#769=(
GEOMETRIC_REPRESENTATION_CONTEXT(3)
GLOBAL_UNCERTAINTY_ASSIGNED_CONTEXT((#767))
GLOBAL_UNIT_ASSIGNED_CONTEXT((#771,#773,#774))
REPRESENTATION_CONTEXT('','3D')
);
#770=(
GEOMETRIC_REPRESENTATION_CONTEXT(3)
GLOBAL_UNCERTAINTY_ASSIGNED_CONTEXT((#768))
GLOBAL_UNIT_ASSIGNED_CONTEXT((#771,#773,#774))
REPRESENTATION_CONTEXT('','3D')
);
#771=(
LENGTH_UNIT()
NAMED_UNIT(*)
SI_UNIT(.MILLI.,.METRE.)
);
#772=(
LENGTH_UNIT()
NAMED_UNIT(*)
SI_UNIT($,.METRE.)
);
#773=(
NAMED_UNIT(*)
PLANE_ANGLE_UNIT()
SI_UNIT($,.RADIAN.)
);
#774=(
NAMED_UNIT(*)
SI_UNIT($,.STERADIAN.)
SOLID_ANGLE_UNIT()
);
#775=SHAPE_DEFINITION_REPRESENTATION(#776,#777);
#776=PRODUCT_DEFINITION_SHAPE('',$,#779);
#777=SHAPE_REPRESENTATION('',(#446),#769);
#778=PRODUCT_DEFINITION_CONTEXT('part definition',#783,'design');
#779=PRODUCT_DEFINITION('ALP2016','ALP2016 v1',#780,#778);
#780=PRODUCT_DEFINITION_FORMATION('',$,#785);
#781=PRODUCT_RELATED_PRODUCT_CATEGORY('ALP2016 v1','ALP2016 v1',(#785));
#782=APPLICATION_PROTOCOL_DEFINITION('international standard',
'automotive_design',2009,#783);
#783=APPLICATION_CONTEXT(
'Core Data for Automotive Mechanical Design Process');
#784=PRODUCT_CONTEXT('part definition',#783,'mechanical');
#785=PRODUCT('ALP2016','ALP2016 v1',$,(#784));
#786=PRESENTATION_STYLE_ASSIGNMENT((#788));
#787=PRESENTATION_STYLE_ASSIGNMENT((#789));
#788=SURFACE_STYLE_USAGE(.BOTH.,#790);
#789=SURFACE_STYLE_USAGE(.BOTH.,#791);
#790=SURFACE_SIDE_STYLE('',(#792));
#791=SURFACE_SIDE_STYLE('',(#793));
#792=SURFACE_STYLE_FILL_AREA(#794);
#793=SURFACE_STYLE_FILL_AREA(#795);
#794=FILL_AREA_STYLE('Steel - Satin',(#796));
#795=FILL_AREA_STYLE('Opaque(128,128,128)',(#797));
#796=FILL_AREA_STYLE_COLOUR('Steel - Satin',#798);
#797=FILL_AREA_STYLE_COLOUR('Opaque(128,128,128)',#799);
#798=COLOUR_RGB('Steel - Satin',0.627450980392157,0.627450980392157,0.627450980392157);
#799=COLOUR_RGB('Opaque(128,128,128)',0.501960784313725,0.501960784313725,
0.501960784313725);
ENDSEC;
END-ISO-10303-21;
