ISO-10303-21;
HEADER;
FILE_DESCRIPTION (( 'STEP AP203' ),
    '1' );
FILE_NAME ('ALP2480.STEP',
    '2018-06-21T07:48:50',
    ( '' ),
    ( '' ),
    'SwSTEP 2.0',
    'SolidWorks 2016',
    '' );
FILE_SCHEMA (( 'CONFIG_CONTROL_DESIGN' ));
ENDSEC;

DATA;
#1 = CARTESIAN_POINT ( 'NONE',  ( 27.71781675011152000, 57.00000000000000000, -27.71781675011122200 ) ) ;
#2 = CIRCLE ( 'NONE', #165, 4.249999999999997300 ) ;
#3 = VECTOR ( 'NONE', #700, 1000.000000000000000 ) ;
#4 = VECTOR ( 'NONE', #71, 1000.000000000000000 ) ;
#5 = VERTEX_POINT ( 'NONE', #325 ) ;
#6 = APPROVAL_DATE_TIME ( #583, #514 ) ;
#7 = EDGE_LOOP ( 'NONE', ( #117, #257, #237, #194 ) ) ;
#8 = CARTESIAN_POINT ( 'NONE',  ( 13.00922662902999400, 0.0000000000000000000, -21.49450800326839300 ) ) ;
#9 = CARTESIAN_POINT ( 'NONE',  ( 30.72302057015436100, 16.99999999999999300, -30.72302057015403100 ) ) ;
#10 = CARTESIAN_POINT ( 'NONE',  ( -24.39782473475928600, 74.00000000000000000, -8.000000000000000000 ) ) ;
#11 = PERSON_AND_ORGANIZATION ( #342, #658 ) ;
#12 = EDGE_CURVE ( 'NONE', #36, #90, #378, .T. ) ;
#13 = CIRCLE ( 'NONE', #179, 2.000000000000001800 ) ;
#14 = CARTESIAN_POINT ( 'NONE',  ( -39.19891236737964100, 16.99999999999999300, -5.999999999999999100 ) ) ;
#15 = CALENDAR_DATE ( 2018, 21, 6 ) ;
#16 = VERTEX_POINT ( 'NONE', #382 ) ;
#17 = EDGE_LOOP ( 'NONE', ( #85, #98 ) ) ;
#18 = CARTESIAN_POINT ( 'NONE',  ( -60.00000000000000000, 74.00000000000000000, -5.999999999999999100 ) ) ;
#19 = CARTESIAN_POINT ( 'NONE',  ( 27.71781675011152000, 16.99999999999999300, -27.71781675011122200 ) ) ;
#20 = DIRECTION ( 'NONE',  ( -0.0000000000000000000, -0.0000000000000000000, -1.000000000000000000 ) ) ;
#21 = AXIS2_PLACEMENT_3D ( 'NONE', #576, #291, #216 ) ;
#22 = DIRECTION ( 'NONE',  ( -1.000000000000000000, 0.0000000000000000000, -0.0000000000000000000 ) ) ;
#23 = CIRCLE ( 'NONE', #621, 4.249999999999996400 ) ;
#24 = ORIENTED_EDGE ( 'NONE', *, *, #663, .T. ) ;
#25 = DIRECTION ( 'NONE',  ( 0.0000000000000000000, 0.0000000000000000000, 1.000000000000000000 ) ) ;
#26 = EDGE_CURVE ( 'NONE', #432, #476, #501, .T. ) ;
#27 = ORIENTED_EDGE ( 'NONE', *, *, #590, .F. ) ;
#28 = CARTESIAN_POINT ( 'NONE',  ( 12.72792206135793500, 0.0000000000000000000, -21.21320343559634100 ) ) ;
#29 = PRODUCT_DEFINITION ( 'UNKNOWN', '', #223, #474 ) ;
#30 = DIRECTION ( 'NONE',  ( 0.0000000000000000000, 0.0000000000000000000, -1.000000000000000000 ) ) ;
#31 = PLANE ( 'NONE',  #567 ) ;
#32 = LINE ( 'NONE', #356, #625 ) ;
#33 = FACE_OUTER_BOUND ( 'NONE', #150, .T. ) ;
#34 = ORIENTED_EDGE ( 'NONE', *, *, #627, .T. ) ;
#35 = EDGE_CURVE ( 'NONE', #692, #16, #408, .T. ) ;
#36 = VERTEX_POINT ( 'NONE', #41 ) ;
#37 = SECURITY_CLASSIFICATION_LEVEL ( 'unclassified' ) ;
#38 = EDGE_LOOP ( 'NONE', ( #380, #729, #410, #327 ) ) ;
#39 = AXIS2_PLACEMENT_3D ( 'NONE', #125, #70, #581 ) ;
#40 = CARTESIAN_POINT ( 'NONE',  ( -43.44891236737964100, 57.00000000000000000, -5.999999999999999100 ) ) ;
#41 = CARTESIAN_POINT ( 'NONE',  ( -24.39782473475928600, 74.00000000000000000, -5.999999999999999100 ) ) ;
#42 = AXIS2_PLACEMENT_3D ( 'NONE', #340, #225, #349 ) ;
#43 = ORIENTED_EDGE ( 'NONE', *, *, #361, .F. ) ;
#44 = ORIENTED_EDGE ( 'NONE', *, *, #455, .T. ) ;
#45 = ADVANCED_FACE ( 'NONE', ( #447 ), #399, .F. ) ;
#46 = DIRECTION ( 'NONE',  ( -0.0000000000000000000, -0.0000000000000000000, -1.000000000000000000 ) ) ;
#47 = CIRCLE ( 'NONE', #472, 4.249999999999997300 ) ;
#48 = VECTOR ( 'NONE', #687, 1000.000000000000100 ) ;
#49 = DIRECTION ( 'NONE',  ( -0.7071067811865511300, 0.0000000000000000000, 0.7071067811865439100 ) ) ;
#50 = DATE_AND_TIME ( #252, #585 ) ;
#51 = APPROVAL_PERSON_ORGANIZATION ( #250, #524, #139 ) ;
#52 = VERTEX_POINT ( 'NONE', #610 ) ;
#53 = ORIENTED_EDGE ( 'NONE', *, *, #314, .T. ) ;
#54 = CARTESIAN_POINT ( 'NONE',  ( 11.59501306665690700, 74.00000000000000000, -22.90872156564150000 ) ) ;
#55 = EDGE_CURVE ( 'NONE', #692, #371, #228, .T. ) ;
#56 = DIRECTION ( 'NONE',  ( -1.000000000000000000, -0.0000000000000000000, -0.0000000000000000000 ) ) ;
#57 = CARTESIAN_POINT ( 'NONE',  ( 11.59501306665690700, 0.0000000000000000000, -22.90872156564150000 ) ) ;
#58 = CARTESIAN_POINT ( 'NONE',  ( 0.0000000000000000000, 0.0000000000000000000, 0.0000000000000000000 ) ) ;
#59 = CARTESIAN_POINT ( 'NONE',  ( 0.0000000000000000000, 74.00000000000000000, 0.0000000000000000000 ) ) ;
#60 = EDGE_LOOP ( 'NONE', ( #523, #351, #53, #44 ) ) ;
#61 = EDGE_LOOP ( 'NONE', ( #473, #230, #343, #126 ) ) ;
#62 = DIRECTION ( 'NONE',  ( -0.7071067811865511300, 0.0000000000000000000, 0.7071067811865439100 ) ) ;
#63 = ORIENTED_EDGE ( 'NONE', *, *, #314, .F. ) ;
#64 = EDGE_CURVE ( 'NONE', #371, #199, #648, .T. ) ;
#65 = CIRCLE ( 'NONE', #292, 4.249999999999996400 ) ;
#66 = CARTESIAN_POINT ( 'NONE',  ( -34.94891236737964800, 16.99999999999999300, -5.999999999999999100 ) ) ;
#67 = LINE ( 'NONE', #589, #3 ) ;
#68 = LINE ( 'NONE', #100, #510 ) ;
#69 = ORIENTED_EDGE ( 'NONE', *, *, #141, .T. ) ;
#70 = DIRECTION ( 'NONE',  ( -0.7071067811865436900, -0.0000000000000000000, -0.7071067811865514600 ) ) ;
#71 = DIRECTION ( 'NONE',  ( -0.7071067811865515700, -0.0000000000000000000, 0.7071067811865435800 ) ) ;
#72 = FACE_BOUND ( 'NONE', #459, .T. ) ;
#73 = DIRECTION ( 'NONE',  ( -0.0000000000000000000, -0.0000000000000000000, -1.000000000000000000 ) ) ;
#74 = VECTOR ( 'NONE', #324, 1000.000000000000000 ) ;
#75 = DIRECTION ( 'NONE',  ( -0.7071067811865436900, -0.0000000000000000000, -0.7071067811865514600 ) ) ;
#76 = ORIENTED_EDGE ( 'NONE', *, *, #528, .F. ) ;
#77 = VERTEX_POINT ( 'NONE', #152 ) ;
#78 = DIRECTION ( 'NONE',  ( 0.7071067811865435800, -0.0000000000000000000, 0.7071067811865515700 ) ) ;
#79 = APPLICATION_CONTEXT ( 'configuration controlled 3d designs of mechanical parts and assemblies' ) ;
#80 = DIRECTION ( 'NONE',  ( -0.0000000000000000000, -1.000000000000000000, 0.0000000000000000000 ) ) ;
#81 = CYLINDRICAL_SURFACE ( 'NONE', #219, 4.249999999999997300 ) ;
#82 = ORIENTED_EDGE ( 'NONE', *, *, #493, .T. ) ;
#83 = DIRECTION ( 'NONE',  ( 0.0000000000000000000, 0.0000000000000000000, -1.000000000000000000 ) ) ;
#84 = ORIENTED_EDGE ( 'NONE', *, *, #12, .F. ) ;
#85 = ORIENTED_EDGE ( 'NONE', *, *, #455, .F. ) ;
#86 = APPROVAL ( #318, 'UNSPECIFIED' ) ;
#87 = EDGE_CURVE ( 'NONE', #90, #476, #536, .T. ) ;
#88 = LINE ( 'NONE', #643, #611 ) ;
#89 = CIRCLE ( 'NONE', #42, 4.249999999999996400 ) ;
#90 = VERTEX_POINT ( 'NONE', #504 ) ;
#91 = ORIENTED_EDGE ( 'NONE', *, *, #334, .T. ) ;
#92 = DIRECTION ( 'NONE',  ( -0.0000000000000000000, -1.000000000000000000, 0.0000000000000000000 ) ) ;
#93 = PERSON_AND_ORGANIZATION_ROLE ( 'creator' ) ;
#94 = ADVANCED_FACE ( 'NONE', ( #206 ), #496, .T. ) ;
#95 = EDGE_CURVE ( 'NONE', #432, #240, #13, .T. ) ;
#96 = CARTESIAN_POINT ( 'NONE',  ( -34.94891236737964800, 57.00000000000000000, -5.999999999999999100 ) ) ;
#97 = VECTOR ( 'NONE', #130, 1000.000000000000000 ) ;
#98 = ORIENTED_EDGE ( 'NONE', *, *, #717, .F. ) ;
#99 = ORIENTED_EDGE ( 'NONE', *, *, #111, .F. ) ;
#100 = CARTESIAN_POINT ( 'NONE',  ( 13.00922662902999400, 74.00000000000000000, -21.49450800326839300 ) ) ;
#101 = EDGE_CURVE ( 'NONE', #215, #460, #182, .T. ) ;
#102 = EDGE_LOOP ( 'NONE', ( #594, #218 ) ) ;
#103 = COORDINATED_UNIVERSAL_TIME_OFFSET ( 1, 0, .AHEAD. ) ;
#104 = PRODUCT_RELATED_PRODUCT_CATEGORY ( 'detail', '', ( #261 ) ) ;
#105 = CARTESIAN_POINT ( 'NONE',  ( -39.19891236737964100, 57.00000000000000000, -5.999999999999999100 ) ) ;
#106 = DIRECTION ( 'NONE',  ( -0.7071067811865511300, 0.0000000000000000000, 0.7071067811865439100 ) ) ;
#107 = CIRCLE ( 'NONE', #161, 4.249999999999997300 ) ;
#108 = ORIENTED_EDGE ( 'NONE', *, *, #64, .T. ) ;
#109 = CARTESIAN_POINT ( 'NONE',  ( -23.63245787002911100, 74.00000000000000000, -6.152240934977424300 ) ) ;
#110 = ORIENTED_EDGE ( 'NONE', *, *, #95, .F. ) ;
#111 = EDGE_CURVE ( 'NONE', #444, #684, #320, .T. ) ;
#112 = DIRECTION ( 'NONE',  ( -0.7071067811865512400, 0.0000000000000000000, 0.7071067811865439100 ) ) ;
#113 = EDGE_CURVE ( 'NONE', #5, #728, #718, .T. ) ;
#114 = DIRECTION ( 'NONE',  ( 0.0000000000000000000, -1.000000000000000000, 0.0000000000000000000 ) ) ;
#115 = CC_DESIGN_DATE_AND_TIME_ASSIGNMENT ( #484, #375, ( #29 ) ) ;
#116 = DIRECTION ( 'NONE',  ( 0.0000000000000000000, 0.0000000000000000000, -1.000000000000000000 ) ) ;
#117 = ORIENTED_EDGE ( 'NONE', *, *, #441, .F. ) ;
#118 = DIRECTION ( 'NONE',  ( 0.7071067811865512400, 0.0000000000000000000, -0.7071067811865439100 ) ) ;
#119 = CARTESIAN_POINT ( 'NONE',  ( 38.18376618407376100, 74.00000000000000000, -44.18376618407336300 ) ) ;
#120 = DIRECTION ( 'NONE',  ( -0.7071067811865511300, 0.0000000000000000000, 0.7071067811865439100 ) ) ;
#121 = CARTESIAN_POINT ( 'NONE',  ( 12.72792206135793500, 74.00000000000000000, -21.21320343559634100 ) ) ;
#122 = FACE_OUTER_BOUND ( 'NONE', #584, .T. ) ;
#123 = VECTOR ( 'NONE', #46, 1000.000000000000000 ) ;
#124 = VERTEX_POINT ( 'NONE', #671 ) ;
#125 = CARTESIAN_POINT ( 'NONE',  ( 23.47517606299226500, 57.00000000000000000, -31.96045743723052700 ) ) ;
#126 = ORIENTED_EDGE ( 'NONE', *, *, #601, .T. ) ;
#127 = CARTESIAN_POINT ( 'NONE',  ( 13.00922662902999400, 74.00000000000000000, -21.49450800326839300 ) ) ;
#128 = CARTESIAN_POINT ( 'NONE',  ( 12.36037993138708300, 0.0000000000000000000, -21.06096250061892100 ) ) ;
#129 = DIRECTION ( 'NONE',  ( -0.7071067811865511300, 0.0000000000000000000, 0.7071067811865439100 ) ) ;
#130 = DIRECTION ( 'NONE',  ( -1.000000000000000000, -0.0000000000000000000, -0.0000000000000000000 ) ) ;
#131 = CIRCLE ( 'NONE', #587, 6.000000000000000000 ) ;
#132 = DIRECTION ( 'NONE',  ( 1.000000000000000000, 0.0000000000000000000, 0.0000000000000000000 ) ) ;
#133 = CARTESIAN_POINT ( 'NONE',  ( -54.00000000000000000, 74.00000000000000000, 8.673617379884035500E-016 ) ) ;
#134 = ORIENTED_EDGE ( 'NONE', *, *, #175, .T. ) ;
#135 = ORIENTED_EDGE ( 'NONE', *, *, #548, .F. ) ;
#136 = CARTESIAN_POINT ( 'NONE',  ( 38.18376618407376100, 0.0000000000000000000, -38.18376618407336300 ) ) ;
#137 = EDGE_CURVE ( 'NONE', #518, #52, #735, .T. ) ;
#138 = CARTESIAN_POINT ( 'NONE',  ( -43.44891236737964100, 16.99999999999999300, -5.999999999999999100 ) ) ;
#139 = APPROVAL_ROLE ( '' ) ;
#140 = FACE_OUTER_BOUND ( 'NONE', #38, .T. ) ;
#141 = EDGE_CURVE ( 'NONE', #240, #450, #68, .T. ) ;
#142 = ADVANCED_FACE ( 'NONE', ( #360 ), #205, .F. ) ;
#143 = CIRCLE ( 'NONE', #304, 2.000000000000001800 ) ;
#144 = ORIENTED_EDGE ( 'NONE', *, *, #446, .T. ) ;
#145 = CC_DESIGN_PERSON_AND_ORGANIZATION_ASSIGNMENT ( #651, #489, ( #223 ) ) ;
#146 = CARTESIAN_POINT ( 'NONE',  ( -39.19891236737964100, 16.99999999999999300, -5.999999999999999100 ) ) ;
#147 = AXIS2_PLACEMENT_3D ( 'NONE', #337, #557, #731 ) ;
#148 = FACE_OUTER_BOUND ( 'NONE', #372, .T. ) ;
#149 = CIRCLE ( 'NONE', #191, 4.249999999999997300 ) ;
#150 = EDGE_LOOP ( 'NONE', ( #401, #332, #525, #562 ) ) ;
#151 = ORIENTED_EDGE ( 'NONE', *, *, #663, .F. ) ;
#152 = CARTESIAN_POINT ( 'NONE',  ( 33.94112549695450600, 74.00000000000000000, -42.42640687119267500 ) ) ;
#153 = AXIS2_PLACEMENT_3D ( 'NONE', #454, #348, #112 ) ;
#154 = FACE_OUTER_BOUND ( 'NONE', #561, .T. ) ;
#155 = DATE_AND_TIME ( #362, #475 ) ;
#156 = ORIENTED_EDGE ( 'NONE', *, *, #241, .F. ) ;
#157 = DIRECTION ( 'NONE',  ( -3.469446951953614200E-015, 0.0000000000000000000, -1.000000000000000000 ) ) ;
#158 = EDGE_CURVE ( 'NONE', #652, #77, #192, .T. ) ;
#159 = DIRECTION ( 'NONE',  ( 0.9238795325112877400, 0.0000000000000000000, -0.3826834323650875100 ) ) ;
#160 = CARTESIAN_POINT ( 'NONE',  ( 0.0000000000000000000, 74.00000000000000000, 0.0000000000000000000 ) ) ;
#161 = AXIS2_PLACEMENT_3D ( 'NONE', #19, #171, #364 ) ;
#162 = ORIENTED_EDGE ( 'NONE', *, *, #87, .T. ) ;
#163 = EDGE_LOOP ( 'NONE', ( #719, #669, #34, #650 ) ) ;
#164 = CARTESIAN_POINT ( 'NONE',  ( -39.19891236737964100, 57.00000000000000000, -8.673617379884035500E-016 ) ) ;
#165 = AXIS2_PLACEMENT_3D ( 'NONE', #713, #184, #129 ) ;
#166 = CARTESIAN_POINT ( 'NONE',  ( 38.18376618407376100, 74.00000000000000000, -38.18376618407336300 ) ) ;
#167 = DIRECTION ( 'NONE',  ( 0.0000000000000000000, 1.000000000000000000, -0.0000000000000000000 ) ) ;
#168 = DIRECTION ( 'NONE',  ( 0.0000000000000000000, -1.000000000000000000, -0.0000000000000000000 ) ) ;
#169 = VECTOR ( 'NONE', #246, 1000.000000000000000 ) ;
#170 = CIRCLE ( 'NONE', #376, 4.249999999999997300 ) ;
#171 = DIRECTION ( 'NONE',  ( -0.7071067811865438000, 0.0000000000000000000, -0.7071067811865512400 ) ) ;
#172 = LOCAL_TIME ( 9, 48, 50.00000000000000000, #466 ) ;
#173 = ORIENTED_EDGE ( 'NONE', *, *, #413, .T. ) ;
#174 = EDGE_LOOP ( 'NONE', ( #391, #511 ) ) ;
#175 = EDGE_CURVE ( 'NONE', #450, #215, #143, .T. ) ;
#176 = DIRECTION ( 'NONE',  ( 0.0000000000000000000, 0.0000000000000000000, -1.000000000000000000 ) ) ;
#177 = DIRECTION ( 'NONE',  ( 0.0000000000000000000, 0.0000000000000000000, 1.000000000000000000 ) ) ;
#178 = AXIS2_PLACEMENT_3D ( 'NONE', #352, #168, #689 ) ;
#179 = AXIS2_PLACEMENT_3D ( 'NONE', #57, #202, #272 ) ;
#180 = CARTESIAN_POINT ( 'NONE',  ( 12.36037993138708300, 0.0000000000000000000, -21.06096250061892100 ) ) ;
#181 = AXIS2_PLACEMENT_3D ( 'NONE', #189, #190, #431 ) ;
#182 = LINE ( 'NONE', #335, #674 ) ;
#183 = ORIENTED_EDGE ( 'NONE', *, *, #141, .F. ) ;
#184 = DIRECTION ( 'NONE',  ( -0.7071067811865436900, -0.0000000000000000000, -0.7071067811865514600 ) ) ;
#185 = LOCAL_TIME ( 9, 48, 50.00000000000000000, #328 ) ;
#186 = ORIENTED_EDGE ( 'NONE', *, *, #624, .F. ) ;
#187 = DIRECTION ( 'NONE',  ( -0.0000000000000000000, -1.000000000000000000, -0.0000000000000000000 ) ) ;
#188 = DIRECTION ( 'NONE',  ( 0.0000000000000000000, 1.000000000000000000, 0.0000000000000000000 ) ) ;
#189 = CARTESIAN_POINT ( 'NONE',  ( 23.47517606299226500, 16.99999999999999300, -31.96045743723052700 ) ) ;
#190 = DIRECTION ( 'NONE',  ( -0.7071067811865436900, -0.0000000000000000000, -0.7071067811865514600 ) ) ;
#191 = AXIS2_PLACEMENT_3D ( 'NONE', #645, #75, #302 ) ;
#192 = CIRCLE ( 'NONE', #395, 5.999999999999998200 ) ;
#193 = CALENDAR_DATE ( 2018, 21, 6 ) ;
#194 = ORIENTED_EDGE ( 'NONE', *, *, #111, .T. ) ;
#195 = PERSON_AND_ORGANIZATION_ROLE ( 'creator' ) ;
#196 = CIRCLE ( 'NONE', #289, 4.249999999999996400 ) ;
#197 = ORIENTED_EDGE ( 'NONE', *, *, #513, .T. ) ;
#198 = VERTEX_POINT ( 'NONE', #682 ) ;
#199 = VERTEX_POINT ( 'NONE', #96 ) ;
#200 = CC_DESIGN_PERSON_AND_ORGANIZATION_ASSIGNMENT ( #736, #93, ( #223 ) ) ;
#201 = ADVANCED_FACE ( 'NONE', ( #154 ), #437, .F. ) ;
#202 = DIRECTION ( 'NONE',  ( 0.0000000000000000000, 1.000000000000000000, 0.0000000000000000000 ) ) ;
#203 = LINE ( 'NONE', #109, #499 ) ;
#204 = FACE_OUTER_BOUND ( 'NONE', #445, .T. ) ;
#205 = PLANE ( 'NONE',  #439 ) ;
#206 = FACE_OUTER_BOUND ( 'NONE', #712, .T. ) ;
#207 = ORIENTED_EDGE ( 'NONE', *, *, #446, .F. ) ;
#208 = ORIENTED_EDGE ( 'NONE', *, *, #741, .T. ) ;
#209 = CC_DESIGN_APPROVAL ( #524, ( #253 ) ) ;
#210 = CARTESIAN_POINT ( 'NONE',  ( 38.18376618407376100, 74.00000000000000000, -38.18376618407336300 ) ) ;
#211 = ADVANCED_FACE ( 'NONE', ( #274 ), #602, .T. ) ;
#212 = DIRECTION ( 'NONE',  ( 0.0000000000000000000, 0.0000000000000000000, 1.000000000000000000 ) ) ;
#213 = DIRECTION ( 'NONE',  ( 0.0000000000000000000, 1.000000000000000000, 0.0000000000000000000 ) ) ;
#214 = CIRCLE ( 'NONE', #530, 5.999999999999998200 ) ;
#215 = VERTEX_POINT ( 'NONE', #509 ) ;
#216 = DIRECTION ( 'NONE',  ( 0.0000000000000000000, 0.0000000000000000000, 1.000000000000000000 ) ) ;
#217 = AXIS2_PLACEMENT_3D ( 'NONE', #166, #281, #116 ) ;
#218 = ORIENTED_EDGE ( 'NONE', *, *, #627, .F. ) ;
#219 = AXIS2_PLACEMENT_3D ( 'NONE', #697, #270, #290 ) ;
#220 = PLANE ( 'NONE',  #178 ) ;
#221 = EDGE_CURVE ( 'NONE', #52, #695, #637, .T. ) ;
#222 = DIRECTION ( 'NONE',  ( 0.0000000000000000000, 0.0000000000000000000, -1.000000000000000000 ) ) ;
#223 = PRODUCT_DEFINITION_FORMATION_WITH_SPECIFIED_SOURCE ( 'ANY', '', #261, .NOT_KNOWN. ) ;
#224 = VECTOR ( 'NONE', #560, 1000.000000000000000 ) ;
#225 = DIRECTION ( 'NONE',  ( -0.0000000000000000000, -0.0000000000000000000, -1.000000000000000000 ) ) ;
#226 = PERSON_AND_ORGANIZATION ( #342, #658 ) ;
#227 = CYLINDRICAL_SURFACE ( 'NONE', #397, 2.000000000000001800 ) ;
#228 = CIRCLE ( 'NONE', #147, 4.249999999999996400 ) ;
#229 = EDGE_LOOP ( 'NONE', ( #353, #661, #311, #84 ) ) ;
#230 = ORIENTED_EDGE ( 'NONE', *, *, #428, .T. ) ;
#231 = DIRECTION ( 'NONE',  ( -0.0000000000000000000, -0.0000000000000000000, -1.000000000000000000 ) ) ;
#232 = CARTESIAN_POINT ( 'NONE',  ( 20.46997224294942400, 57.00000000000000000, -28.95525361718771900 ) ) ;
#233 = AXIS2_PLACEMENT_3D ( 'NONE', #738, #730, #49 ) ;
#234 = DIRECTION ( 'NONE',  ( 0.7071067811865515700, 0.0000000000000000000, -0.7071067811865435800 ) ) ;
#235 = LINE ( 'NONE', #598, #169 ) ;
#236 = CARTESIAN_POINT ( 'NONE',  ( -39.19891236737964100, 57.00000000000000000, -5.999999999999999100 ) ) ;
#237 = ORIENTED_EDGE ( 'NONE', *, *, #461, .T. ) ;
#238 = CARTESIAN_POINT ( 'NONE',  ( 20.46997224294942400, 16.99999999999999300, -28.95525361718771900 ) ) ;
#239 = ORIENTED_EDGE ( 'NONE', *, *, #373, .T. ) ;
#240 = VERTEX_POINT ( 'NONE', #8 ) ;
#241 = EDGE_CURVE ( 'NONE', #464, #662, #660, .T. ) ;
#242 = CARTESIAN_POINT ( 'NONE',  ( -34.94891236737964800, 57.00000000000000000, -8.673617379884035500E-016 ) ) ;
#243 = MECHANICAL_CONTEXT ( 'NONE', #527, 'mechanical' ) ;
#244 = DIRECTION ( 'NONE',  ( 0.0000000000000000000, 1.000000000000000000, 0.0000000000000000000 ) ) ;
#245 = DIRECTION ( 'NONE',  ( -1.000000000000000000, 0.0000000000000000000, 0.0000000000000000000 ) ) ;
#246 = DIRECTION ( 'NONE',  ( -0.0000000000000000000, -1.000000000000000000, -0.0000000000000000000 ) ) ;
#247 =( GEOMETRIC_REPRESENTATION_CONTEXT ( 3 ) GLOBAL_UNCERTAINTY_ASSIGNED_CONTEXT ( ( #280 ) ) GLOBAL_UNIT_ASSIGNED_CONTEXT ( ( #420, #647, #303 ) ) REPRESENTATION_CONTEXT ( 'NONE', 'WORKASPACE' ) );
#248 = ORIENTED_EDGE ( 'NONE', *, *, #158, .F. ) ;
#249 = DIRECTION ( 'NONE',  ( -0.0000000000000000000, -0.0000000000000000000, -1.000000000000000000 ) ) ;
#250 = PERSON_AND_ORGANIZATION ( #342, #658 ) ;
#251 = ORIENTED_EDGE ( 'NONE', *, *, #607, .T. ) ;
#252 = CALENDAR_DATE ( 2018, 21, 6 ) ;
#253 = SECURITY_CLASSIFICATION ( '', '', #37 ) ;
#254 = EDGE_CURVE ( 'NONE', #199, #16, #544, .T. ) ;
#255 = DATE_TIME_ROLE ( 'classification_date' ) ;
#256 = APPROVAL_DATE_TIME ( #50, #86 ) ;
#257 = ORIENTED_EDGE ( 'NONE', *, *, #334, .F. ) ;
#258 = EDGE_LOOP ( 'NONE', ( #99, #76 ) ) ;
#259 = AXIS2_PLACEMENT_3D ( 'NONE', #462, #405, #222 ) ;
#260 = EDGE_CURVE ( 'NONE', #416, #619, #89, .T. ) ;
#261 = PRODUCT ( 'ALP2480', 'ALP2480', '', ( #243 ) ) ;
#262 = FACE_OUTER_BOUND ( 'NONE', #163, .T. ) ;
#263 = ORIENTED_EDGE ( 'NONE', *, *, #260, .T. ) ;
#264 = ORIENTED_EDGE ( 'NONE', *, *, #361, .T. ) ;
#265 = ORIENTED_EDGE ( 'NONE', *, *, #513, .F. ) ;
#266 = ADVANCED_FACE ( 'NONE', ( #204 ), #220, .F. ) ;
#267 = DIRECTION ( 'NONE',  ( 0.3826834323650875100, -0.0000000000000000000, 0.9238795325112877400 ) ) ;
#268 = ADVANCED_FACE ( 'NONE', ( #550 ), #613, .F. ) ;
#269 = DIRECTION ( 'NONE',  ( 0.0000000000000000000, 1.000000000000000000, 0.0000000000000000000 ) ) ;
#270 = DIRECTION ( 'NONE',  ( -0.7071067811865436900, -0.0000000000000000000, -0.7071067811865514600 ) ) ;
#271 = CIRCLE ( 'NONE', #540, 4.249999999999996400 ) ;
#272 = DIRECTION ( 'NONE',  ( 0.0000000000000000000, 0.0000000000000000000, -1.000000000000000000 ) ) ;
#273 = AXIS2_PLACEMENT_3D ( 'NONE', #551, #676, #563 ) ;
#274 = FACE_OUTER_BOUND ( 'NONE', #604, .T. ) ;
#275 = ORIENTED_EDGE ( 'NONE', *, *, #175, .F. ) ;
#276 = CARTESIAN_POINT ( 'NONE',  ( 38.18376618407376100, 74.00000000000000000, -44.18376618407336300 ) ) ;
#277 = VERTEX_POINT ( 'NONE', #9 ) ;
#278 = CARTESIAN_POINT ( 'NONE',  ( 23.47517606299226500, 16.99999999999999300, -31.96045743723052700 ) ) ;
#279 = EDGE_CURVE ( 'NONE', #371, #692, #271, .T. ) ;
#280 = UNCERTAINTY_MEASURE_WITH_UNIT (LENGTH_MEASURE( 1.000000000000000100E-005 ), #420, 'distance_accuracy_value', 'NONE');
#281 = DIRECTION ( 'NONE',  ( 0.0000000000000000000, -1.000000000000000000, 0.0000000000000000000 ) ) ;
#282 = CC_DESIGN_DATE_AND_TIME_ASSIGNMENT ( #155, #255, ( #253 ) ) ;
#283 = CARTESIAN_POINT ( 'NONE',  ( 20.46997224294942400, 57.00000000000000000, -28.95525361718771900 ) ) ;
#284 = FACE_BOUND ( 'NONE', #448, .T. ) ;
#285 = FACE_OUTER_BOUND ( 'NONE', #400, .T. ) ;
#286 = ORIENTED_EDGE ( 'NONE', *, *, #590, .T. ) ;
#287 = AXIS2_PLACEMENT_3D ( 'NONE', #14, #20, #642 ) ;
#288 = ORIENTED_EDGE ( 'NONE', *, *, #279, .T. ) ;
#289 = AXIS2_PLACEMENT_3D ( 'NONE', #315, #471, #245 ) ;
#290 = DIRECTION ( 'NONE',  ( -0.7071067811865511300, 0.0000000000000000000, 0.7071067811865439100 ) ) ;
#291 = DIRECTION ( 'NONE',  ( 0.0000000000000000000, 1.000000000000000000, -0.0000000000000000000 ) ) ;
#292 = AXIS2_PLACEMENT_3D ( 'NONE', #316, #425, #368 ) ;
#293 = DIRECTION ( 'NONE',  ( -0.0000000000000000000, -0.0000000000000000000, -1.000000000000000000 ) ) ;
#294 = PERSON_AND_ORGANIZATION ( #342, #658 ) ;
#295 = CARTESIAN_POINT ( 'NONE',  ( 23.47517606299226500, 16.99999999999999300, -31.96045743723052700 ) ) ;
#296 = VERTEX_POINT ( 'NONE', #66 ) ;
#297 = EDGE_CURVE ( 'NONE', #728, #5, #170, .T. ) ;
#298 = VERTEX_POINT ( 'NONE', #686 ) ;
#299 = ORIENTED_EDGE ( 'NONE', *, *, #539, .T. ) ;
#300 = DIRECTION ( 'NONE',  ( -0.7071067811865515700, -0.0000000000000000000, 0.7071067811865435800 ) ) ;
#301 = DIRECTION ( 'NONE',  ( -0.0000000000000000000, -1.000000000000000000, -0.0000000000000000000 ) ) ;
#302 = DIRECTION ( 'NONE',  ( -0.7071067811865511300, 0.0000000000000000000, 0.7071067811865439100 ) ) ;
#303 =( NAMED_UNIT ( * ) SI_UNIT ( $, .STERADIAN. ) SOLID_ANGLE_UNIT ( ) );
#304 = AXIS2_PLACEMENT_3D ( 'NONE', #54, #403, #565 ) ;
#305 = FACE_BOUND ( 'NONE', #102, .T. ) ;
#306 = CARTESIAN_POINT ( 'NONE',  ( 0.0000000000000000000, 0.0000000000000000000, 0.0000000000000000000 ) ) ;
#307 = LINE ( 'NONE', #575, #673 ) ;
#308 = LINE ( 'NONE', #128, #436 ) ;
#309 = DIRECTION ( 'NONE',  ( -0.7071067811865435800, -0.0000000000000000000, -0.7071067811865513500 ) ) ;
#310 = ADVANCED_FACE ( 'NONE', ( #407, #319, #140 ), #453, .F. ) ;
#311 = ORIENTED_EDGE ( 'NONE', *, *, #87, .F. ) ;
#312 = PERSON_AND_ORGANIZATION ( #342, #658 ) ;
#313 = EDGE_LOOP ( 'NONE', ( #286, #638, #554, #323 ) ) ;
#314 = EDGE_CURVE ( 'NONE', #5, #519, #458, .T. ) ;
#315 = CARTESIAN_POINT ( 'NONE',  ( -39.19891236737964100, 16.99999999999999300, -5.999999999999999100 ) ) ;
#316 = CARTESIAN_POINT ( 'NONE',  ( -39.19891236737964100, 16.99999999999999300, -8.673617379884035500E-016 ) ) ;
#317 = DIRECTION ( 'NONE',  ( 0.0000000000000000000, 0.0000000000000000000, -1.000000000000000000 ) ) ;
#318 = APPROVAL_STATUS ( 'not_yet_approved' ) ;
#319 = FACE_BOUND ( 'NONE', #174, .T. ) ;
#320 = CIRCLE ( 'NONE', #469, 4.249999999999997300 ) ;
#321 = PERSON_AND_ORGANIZATION ( #342, #658 ) ;
#322 = ORIENTED_EDGE ( 'NONE', *, *, #55, .T. ) ;
#323 = ORIENTED_EDGE ( 'NONE', *, *, #383, .T. ) ;
#324 = DIRECTION ( 'NONE',  ( -0.9238795325112877400, -0.0000000000000000000, 0.3826834323650875100 ) ) ;
#325 = CARTESIAN_POINT ( 'NONE',  ( 24.71261293006868000, 57.00000000000000000, -24.71261293006841300 ) ) ;
#326 = FACE_OUTER_BOUND ( 'NONE', #313, .T. ) ;
#327 = ORIENTED_EDGE ( 'NONE', *, *, #385, .T. ) ;
#328 = COORDINATED_UNIVERSAL_TIME_OFFSET ( 1, 0, .AHEAD. ) ;
#329 = EDGE_LOOP ( 'NONE', ( #720, #299, #418, #63 ) ) ;
#330 = VECTOR ( 'NONE', #452, 999.9999999999998900 ) ;
#331 = VECTOR ( 'NONE', #92, 1000.000000000000000 ) ;
#332 = ORIENTED_EDGE ( 'NONE', *, *, #441, .T. ) ;
#333 = ORIENTED_EDGE ( 'NONE', *, *, #357, .F. ) ;
#334 = EDGE_CURVE ( 'NONE', #124, #277, #107, .T. ) ;
#335 = CARTESIAN_POINT ( 'NONE',  ( -23.99999999999997200, 74.00000000000000000, -5.999999999999999100 ) ) ;
#336 = CARTESIAN_POINT ( 'NONE',  ( -54.00000000000000000, 0.0000000000000000000, -5.999999999999999100 ) ) ;
#337 = CARTESIAN_POINT ( 'NONE',  ( -39.19891236737964100, 57.00000000000000000, -8.673617379884035500E-016 ) ) ;
#338 = ADVANCED_FACE ( 'NONE', ( #33 ), #558, .F. ) ;
#339 = CYLINDRICAL_SURFACE ( 'NONE', #374, 6.000000000000000000 ) ;
#340 = CARTESIAN_POINT ( 'NONE',  ( -39.19891236737964100, 16.99999999999999300, -8.673617379884035500E-016 ) ) ;
#341 = VECTOR ( 'NONE', #546, 1000.000000000000000 ) ;
#342 = PERSON ( 'UNSPECIFIED', 'UNSPECIFIED', 'UNSPECIFIED', ('UNSPECIFIED'), ('UNSPECIFIED'), ('UNSPECIFIED') ) ;
#343 = ORIENTED_EDGE ( 'NONE', *, *, #26, .T. ) ;
#344 = AXIS2_PLACEMENT_3D ( 'NONE', #739, #507, #176 ) ;
#345 = EDGE_LOOP ( 'NONE', ( #419, #702, #265, #430 ) ) ;
#346 = CARTESIAN_POINT ( 'NONE',  ( 33.94112549695450600, 74.00000000000000000, -42.42640687119267500 ) ) ;
#347 = EDGE_CURVE ( 'NONE', #277, #124, #387, .T. ) ;
#348 = DIRECTION ( 'NONE',  ( -0.7071067811865439100, 0.0000000000000000000, -0.7071067811865512400 ) ) ;
#349 = DIRECTION ( 'NONE',  ( -1.000000000000000000, 0.0000000000000000000, 0.0000000000000000000 ) ) ;
#350 = LINE ( 'NONE', #138, #568 ) ;
#351 = ORIENTED_EDGE ( 'NONE', *, *, #113, .F. ) ;
#352 = CARTESIAN_POINT ( 'NONE',  ( 0.0000000000000000000, 74.00000000000000000, 0.0000000000000000000 ) ) ;
#353 = ORIENTED_EDGE ( 'NONE', *, *, #607, .F. ) ;
#354 = ORIENTED_EDGE ( 'NONE', *, *, #221, .T. ) ;
#355 = PLANE ( 'NONE',  #553 ) ;
#356 = CARTESIAN_POINT ( 'NONE',  ( -60.00000000000000000, 0.0000000000000000000, -5.999999999999999100 ) ) ;
#357 = EDGE_CURVE ( 'NONE', #77, #582, #500, .T. ) ;
#358 = CARTESIAN_POINT ( 'NONE',  ( -54.00000000000000000, 74.00000000000000000, -5.999999999999999100 ) ) ;
#359 = DIRECTION ( 'NONE',  ( -0.7071067811865436900, -0.0000000000000000000, -0.7071067811865514600 ) ) ;
#360 = FACE_OUTER_BOUND ( 'NONE', #61, .T. ) ;
#361 = EDGE_CURVE ( 'NONE', #77, #450, #307, .T. ) ;
#362 = CALENDAR_DATE ( 2018, 21, 6 ) ;
#363 = ORIENTED_EDGE ( 'NONE', *, *, #612, .F. ) ;
#364 = DIRECTION ( 'NONE',  ( -0.7071067811865511300, 0.0000000000000000000, 0.7071067811865439100 ) ) ;
#365 = DIRECTION ( 'NONE',  ( -1.000000000000000000, 0.0000000000000000000, 0.0000000000000000000 ) ) ;
#366 = CARTESIAN_POINT ( 'NONE',  ( -43.44891236737964100, 16.99999999999999300, -8.673617379884035500E-016 ) ) ;
#367 = DIRECTION ( 'NONE',  ( -1.000000000000000000, 0.0000000000000000000, 0.0000000000000000000 ) ) ;
#368 = DIRECTION ( 'NONE',  ( -1.000000000000000000, 0.0000000000000000000, 0.0000000000000000000 ) ) ;
#369 = FACE_OUTER_BOUND ( 'NONE', #492, .T. ) ;
#370 = VECTOR ( 'NONE', #114, 1000.000000000000000 ) ;
#371 = VERTEX_POINT ( 'NONE', #242 ) ;
#372 = EDGE_LOOP ( 'NONE', ( #668, #108, #675, #677 ) ) ;
#373 = EDGE_CURVE ( 'NONE', #571, #298, #517, .T. ) ;
#374 = AXIS2_PLACEMENT_3D ( 'NONE', #133, #80, #532 ) ;
#375 = DATE_TIME_ROLE ( 'creation_date' ) ;
#376 = AXIS2_PLACEMENT_3D ( 'NONE', #1, #402, #62 ) ;
#377 = CIRCLE ( 'NONE', #434, 4.249999999999996400 ) ;
#378 = LINE ( 'NONE', #541, #331 ) ;
#379 = PERSON_AND_ORGANIZATION_ROLE ( 'classification_officer' ) ;
#380 = ORIENTED_EDGE ( 'NONE', *, *, #612, .T. ) ;
#381 = EDGE_LOOP ( 'NONE', ( #526, #502, #208, #694 ) ) ;
#382 = CARTESIAN_POINT ( 'NONE',  ( -43.44891236737964100, 57.00000000000000000, -5.999999999999999100 ) ) ;
#383 = EDGE_CURVE ( 'NONE', #518, #198, #67, .T. ) ;
#384 = ADVANCED_FACE ( 'NONE', ( #427, #733, #285 ), #355, .F. ) ;
#385 = EDGE_CURVE ( 'NONE', #52, #727, #626, .T. ) ;
#386 = ADVANCED_FACE ( 'NONE', ( #262 ), #646, .F. ) ;
#387 = CIRCLE ( 'NONE', #406, 4.249999999999997300 ) ;
#388 = DIRECTION ( 'NONE',  ( 1.000000000000000000, -0.0000000000000000000, -0.0000000000000000000 ) ) ;
#389 = ORIENTED_EDGE ( 'NONE', *, *, #55, .F. ) ;
#390 = APPROVAL_DATE_TIME ( #596, #524 ) ;
#391 = ORIENTED_EDGE ( 'NONE', *, *, #113, .T. ) ;
#392 = DIRECTION ( 'NONE',  ( -0.7071067811865511300, 0.0000000000000000000, 0.7071067811865439100 ) ) ;
#393 = DIRECTION ( 'NONE',  ( -0.9238795325112877400, -0.0000000000000000000, 0.3826834323650875100 ) ) ;
#394 = CARTESIAN_POINT ( 'NONE',  ( -54.00000000000000000, 0.0000000000000000000, 8.673617379884035500E-016 ) ) ;
#395 = AXIS2_PLACEMENT_3D ( 'NONE', #210, #213, #623 ) ;
#396 = CYLINDRICAL_SURFACE ( 'NONE', #181, 4.249999999999997300 ) ;
#397 = AXIS2_PLACEMENT_3D ( 'NONE', #417, #244, #177 ) ;
#398 = DIRECTION ( 'NONE',  ( 1.000000000000000000, -0.0000000000000000000, -0.0000000000000000000 ) ) ;
#399 = CYLINDRICAL_SURFACE ( 'NONE', #688, 4.249999999999996400 ) ;
#400 = EDGE_LOOP ( 'NONE', ( #144, #69, #43, #545 ) ) ;
#401 = ORIENTED_EDGE ( 'NONE', *, *, #347, .F. ) ;
#402 = DIRECTION ( 'NONE',  ( -0.7071067811865438000, 0.0000000000000000000, -0.7071067811865512400 ) ) ;
#403 = DIRECTION ( 'NONE',  ( -0.0000000000000000000, -1.000000000000000000, -0.0000000000000000000 ) ) ;
#404 = LINE ( 'NONE', #58, #330 ) ;
#405 = DIRECTION ( 'NONE',  ( -0.0000000000000000000, -1.000000000000000000, -0.0000000000000000000 ) ) ;
#406 = AXIS2_PLACEMENT_3D ( 'NONE', #705, #578, #707 ) ;
#407 = FACE_BOUND ( 'NONE', #512, .T. ) ;
#408 = LINE ( 'NONE', #40, #341 ) ;
#409 = COORDINATED_UNIVERSAL_TIME_OFFSET ( 1, 0, .AHEAD. ) ;
#410 = ORIENTED_EDGE ( 'NONE', *, *, #221, .F. ) ;
#411 = APPROVAL_PERSON_ORGANIZATION ( #294, #86, #609 ) ;
#412 = DIRECTION ( 'NONE',  ( -0.0000000000000000000, -1.000000000000000000, -0.0000000000000000000 ) ) ;
#413 = EDGE_CURVE ( 'NONE', #36, #298, #690, .T. ) ;
#414 = CARTESIAN_POINT ( 'NONE',  ( -60.00000000000000000, 74.00000000000000000, -5.999999999999999100 ) ) ;
#415 = LINE ( 'NONE', #28, #4 ) ;
#416 = VERTEX_POINT ( 'NONE', #366 ) ;
#417 = CARTESIAN_POINT ( 'NONE',  ( 11.59501306665690700, 74.00000000000000000, -22.90872156564150000 ) ) ;
#418 = ORIENTED_EDGE ( 'NONE', *, *, #717, .T. ) ;
#419 = ORIENTED_EDGE ( 'NONE', *, *, #691, .F. ) ;
#420 =( LENGTH_UNIT ( ) NAMED_UNIT ( * ) SI_UNIT ( .MILLI., .METRE. ) );
#421 = CARTESIAN_POINT ( 'NONE',  ( 38.18376618407376100, 0.0000000000000000000, -44.18376618407336300 ) ) ;
#422 = CARTESIAN_POINT ( 'NONE',  ( 26.48037988303510600, 16.99999999999999300, -34.96566125727333900 ) ) ;
#423 = PRODUCT_DEFINITION_SHAPE ( 'NONE', 'NONE',  #29 ) ;
#424 = PERSON_AND_ORGANIZATION_ROLE ( 'design_owner' ) ;
#425 = DIRECTION ( 'NONE',  ( -0.0000000000000000000, -0.0000000000000000000, -1.000000000000000000 ) ) ;
#426 = CYLINDRICAL_SURFACE ( 'NONE', #664, 4.249999999999996400 ) ;
#427 = FACE_BOUND ( 'NONE', #258, .T. ) ;
#428 = EDGE_CURVE ( 'NONE', #215, #432, #308, .T. ) ;
#429 = ADVANCED_FACE ( 'NONE', ( #122 ), #227, .F. ) ;
#430 = ORIENTED_EDGE ( 'NONE', *, *, #383, .F. ) ;
#431 = DIRECTION ( 'NONE',  ( -0.7071067811865511300, 0.0000000000000000000, 0.7071067811865439100 ) ) ;
#432 = VERTEX_POINT ( 'NONE', #180 ) ;
#433 = CARTESIAN_POINT ( 'NONE',  ( 0.0000000000000000000, 74.00000000000000000, 0.0000000000000000000 ) ) ;
#434 = AXIS2_PLACEMENT_3D ( 'NONE', #478, #708, #477 ) ;
#435 = APPROVAL_ROLE ( '' ) ;
#436 = VECTOR ( 'NONE', #520, 1000.000000000000000 ) ;
#437 = CYLINDRICAL_SURFACE ( 'NONE', #506, 4.249999999999996400 ) ;
#438 = ORIENTED_EDGE ( 'NONE', *, *, #556, .T. ) ;
#439 = AXIS2_PLACEMENT_3D ( 'NONE', #616, #267, #159 ) ;
#440 = ORIENTED_EDGE ( 'NONE', *, *, #556, .F. ) ;
#441 = EDGE_CURVE ( 'NONE', #277, #684, #636, .T. ) ;
#442 = FACE_OUTER_BOUND ( 'NONE', #60, .T. ) ;
#443 = VECTOR ( 'NONE', #649, 1000.000000000000000 ) ;
#444 = VERTEX_POINT ( 'NONE', #709 ) ;
#445 = EDGE_LOOP ( 'NONE', ( #354, #24, #572, #264, #134, #552, #251, #173, #614, #485 ) ) ;
#446 = EDGE_CURVE ( 'NONE', #582, #240, #415, .T. ) ;
#447 = FACE_OUTER_BOUND ( 'NONE', #381, .T. ) ;
#448 = EDGE_LOOP ( 'NONE', ( #263, #574 ) ) ;
#449 = DIRECTION ( 'NONE',  ( -0.7071067811865436900, -0.0000000000000000000, -0.7071067811865514600 ) ) ;
#450 = VERTEX_POINT ( 'NONE', #127 ) ;
#451 = CARTESIAN_POINT ( 'NONE',  ( -24.39782473475928600, 0.0000000000000000000, -8.000000000000000000 ) ) ;
#452 = DIRECTION ( 'NONE',  ( 0.7071067811865512400, 0.0000000000000000000, -0.7071067811865439100 ) ) ;
#453 = PLANE ( 'NONE',  #153 ) ;
#454 = CARTESIAN_POINT ( 'NONE',  ( 0.0000000000000000000, 74.00000000000000000, 0.0000000000000000000 ) ) ;
#455 = EDGE_CURVE ( 'NONE', #519, #597, #149, .T. ) ;
#456 = FACE_BOUND ( 'NONE', #606, .T. ) ;
#457 = AXIS2_PLACEMENT_3D ( 'NONE', #588, #25, #132 ) ;
#458 = LINE ( 'NONE', #283, #48 ) ;
#459 = EDGE_LOOP ( 'NONE', ( #322, #288 ) ) ;
#460 = VERTEX_POINT ( 'NONE', #586 ) ;
#461 = EDGE_CURVE ( 'NONE', #124, #444, #726, .T. ) ;
#462 = CARTESIAN_POINT ( 'NONE',  ( 38.18376618407376100, 0.0000000000000000000, -38.18376618407336300 ) ) ;
#463 = DIRECTION ( 'NONE',  ( 0.0000000000000000000, 0.0000000000000000000, -1.000000000000000000 ) ) ;
#464 = VERTEX_POINT ( 'NONE', #421 ) ;
#465 = AXIS2_PLACEMENT_3D ( 'NONE', #600, #595, #317 ) ;
#466 = COORDINATED_UNIVERSAL_TIME_OFFSET ( 1, 0, .AHEAD. ) ;
#467 = ORIENTED_EDGE ( 'NONE', *, *, #548, .T. ) ;
#468 = CARTESIAN_POINT ( 'NONE',  ( 0.0000000000000000000, 0.0000000000000000000, 0.0000000000000000000 ) ) ;
#469 = AXIS2_PLACEMENT_3D ( 'NONE', #278, #679, #392 ) ;
#470 = CYLINDRICAL_SURFACE ( 'NONE', #39, 4.249999999999997300 ) ;
#471 = DIRECTION ( 'NONE',  ( -0.0000000000000000000, -0.0000000000000000000, -1.000000000000000000 ) ) ;
#472 = AXIS2_PLACEMENT_3D ( 'NONE', #678, #449, #106 ) ;
#473 = ORIENTED_EDGE ( 'NONE', *, *, #101, .F. ) ;
#474 = DESIGN_CONTEXT ( 'detailed design', #79, 'design' ) ;
#475 = LOCAL_TIME ( 9, 48, 50.00000000000000000, #409 ) ;
#476 = VERTEX_POINT ( 'NONE', #521 ) ;
#477 = DIRECTION ( 'NONE',  ( -1.000000000000000000, 0.0000000000000000000, 0.0000000000000000000 ) ) ;
#478 = CARTESIAN_POINT ( 'NONE',  ( -39.19891236737964100, 16.99999999999999300, -5.999999999999999100 ) ) ;
#479 = DIRECTION ( 'NONE',  ( -0.7071067811865435800, -0.0000000000000000000, -0.7071067811865513500 ) ) ;
#480 = CC_DESIGN_APPROVAL ( #86, ( #29 ) ) ;
#481 = CARTESIAN_POINT ( 'NONE',  ( 42.42640687119306600, 74.00000000000000000, -42.42640687119262600 ) ) ;
#482 = LINE ( 'NONE', #468, #522 ) ;
#483 = VECTOR ( 'NONE', #118, 999.9999999999998900 ) ;
#484 = DATE_AND_TIME ( #559, #593 ) ;
#485 = ORIENTED_EDGE ( 'NONE', *, *, #137, .T. ) ;
#486 = ORIENTED_EDGE ( 'NONE', *, *, #12, .T. ) ;
#487 = APPROVAL_STATUS ( 'not_yet_approved' ) ;
#488 = APPLICATION_PROTOCOL_DEFINITION ( 'international standard', 'config_control_design', 1994, #79 ) ;
#489 = PERSON_AND_ORGANIZATION_ROLE ( 'design_supplier' ) ;
#490 = CIRCLE ( 'NONE', #465, 6.000000000000000000 ) ;
#491 = CARTESIAN_POINT ( 'NONE',  ( -23.99999999999997200, 0.0000000000000000000, -5.999999999999999100 ) ) ;
#492 = EDGE_LOOP ( 'NONE', ( #564, #486, #467, #239 ) ) ;
#493 = EDGE_CURVE ( 'NONE', #695, #662, #235, .T. ) ;
#494 = VERTEX_POINT ( 'NONE', #656 ) ;
#495 = ADVANCED_FACE ( 'NONE', ( #659 ), #339, .T. ) ;
#496 = PLANE ( 'NONE',  #273 ) ;
#497 = EDGE_CURVE ( 'NONE', #619, #416, #65, .T. ) ;
#498 = ADVANCED_FACE ( 'NONE', ( #617 ), #396, .F. ) ;
#499 = VECTOR ( 'NONE', #167, 1000.000000000000000 ) ;
#500 = LINE ( 'NONE', #346, #370 ) ;
#501 = LINE ( 'NONE', #491, #74 ) ;
#502 = ORIENTED_EDGE ( 'NONE', *, *, #260, .F. ) ;
#503 = AXIS2_PLACEMENT_3D ( 'NONE', #10, #412, #463 ) ;
#504 = CARTESIAN_POINT ( 'NONE',  ( -24.39782473475928600, 0.0000000000000000000, -5.999999999999999100 ) ) ;
#505 = DIRECTION ( 'NONE',  ( 0.0000000000000000000, 0.0000000000000000000, -1.000000000000000000 ) ) ;
#506 = AXIS2_PLACEMENT_3D ( 'NONE', #105, #632, #631 ) ;
#507 = DIRECTION ( 'NONE',  ( 0.0000000000000000000, -1.000000000000000000, 0.0000000000000000000 ) ) ;
#508 = LINE ( 'NONE', #276, #224 ) ;
#509 = CARTESIAN_POINT ( 'NONE',  ( 12.36037993138708300, 74.00000000000000000, -21.06096250061892100 ) ) ;
#510 = VECTOR ( 'NONE', #555, 1000.000000000000000 ) ;
#511 = ORIENTED_EDGE ( 'NONE', *, *, #297, .T. ) ;
#512 = EDGE_LOOP ( 'NONE', ( #91, #685 ) ) ;
#513 = EDGE_CURVE ( 'NONE', #198, #571, #131, .T. ) ;
#514 = APPROVAL ( #716, 'UNSPECIFIED' ) ;
#515 = CARTESIAN_POINT ( 'NONE',  ( -39.19891236737964100, 57.00000000000000000, -5.999999999999999100 ) ) ;
#516 = CYLINDRICAL_SURFACE ( 'NONE', #344, 5.999999999999998200 ) ;
#517 = LINE ( 'NONE', #358, #443 ) ;
#518 = VERTEX_POINT ( 'NONE', #535 ) ;
#519 = VERTEX_POINT ( 'NONE', #232 ) ;
#520 = DIRECTION ( 'NONE',  ( 0.0000000000000000000, -1.000000000000000000, 0.0000000000000000000 ) ) ;
#521 = CARTESIAN_POINT ( 'NONE',  ( -23.63245787002911100, 0.0000000000000000000, -6.152240934977424300 ) ) ;
#522 = VECTOR ( 'NONE', #398, 1000.000000000000000 ) ;
#523 = ORIENTED_EDGE ( 'NONE', *, *, #539, .F. ) ;
#524 = APPROVAL ( #487, 'UNSPECIFIED' ) ;
#525 = ORIENTED_EDGE ( 'NONE', *, *, #528, .T. ) ;
#526 = ORIENTED_EDGE ( 'NONE', *, *, #533, .F. ) ;
#527 = APPLICATION_CONTEXT ( 'configuration controlled 3d designs of mechanical parts and assemblies' ) ;
#528 = EDGE_CURVE ( 'NONE', #684, #444, #47, .T. ) ;
#529 = CARTESIAN_POINT ( 'NONE',  ( 0.0000000000000000000, 74.00000000000000000, 0.0000000000000000000 ) ) ;
#530 = AXIS2_PLACEMENT_3D ( 'NONE', #591, #188, #644 ) ;
#531 = APPLICATION_PROTOCOL_DEFINITION ( 'international standard', 'config_control_design', 1994, #527 ) ;
#532 = DIRECTION ( 'NONE',  ( 0.0000000000000000000, 0.0000000000000000000, -1.000000000000000000 ) ) ;
#533 = EDGE_CURVE ( 'NONE', #619, #296, #88, .T. ) ;
#534 = CARTESIAN_POINT ( 'NONE',  ( -39.19891236737964100, 57.00000000000000000, -5.999999999999999100 ) ) ;
#535 = CARTESIAN_POINT ( 'NONE',  ( -60.00000000000000000, 74.00000000000000000, 0.0000000000000000000 ) ) ;
#536 = CIRCLE ( 'NONE', #665, 2.000000000000000000 ) ;
#537 = ORIENTED_EDGE ( 'NONE', *, *, #640, .F. ) ;
#538 = CARTESIAN_POINT ( 'NONE',  ( -43.44891236737964100, 57.00000000000000000, -8.673617379884035500E-016 ) ) ;
#539 = EDGE_CURVE ( 'NONE', #728, #597, #542, .T. ) ;
#540 = AXIS2_PLACEMENT_3D ( 'NONE', #164, #231, #698 ) ;
#541 = CARTESIAN_POINT ( 'NONE',  ( -24.39782473475928600, 0.0000000000000000000, -5.999999999999999100 ) ) ;
#542 = LINE ( 'NONE', #620, #672 ) ;
#543 = AXIS2_PLACEMENT_3D ( 'NONE', #515, #635, #693 ) ;
#544 = CIRCLE ( 'NONE', #543, 4.249999999999996400 ) ;
#545 = ORIENTED_EDGE ( 'NONE', *, *, #357, .T. ) ;
#546 = DIRECTION ( 'NONE',  ( -0.0000000000000000000, -0.0000000000000000000, -1.000000000000000000 ) ) ;
#547 = DIRECTION ( 'NONE',  ( -1.000000000000000000, 0.0000000000000000000, 0.0000000000000000000 ) ) ;
#548 = EDGE_CURVE ( 'NONE', #90, #571, #32, .T. ) ;
#549 = ADVANCED_FACE ( 'NONE', ( #681 ), #81, .F. ) ;
#550 = FACE_OUTER_BOUND ( 'NONE', #229, .T. ) ;
#551 = CARTESIAN_POINT ( 'NONE',  ( 0.0000000000000000000, 0.0000000000000000000, 0.0000000000000000000 ) ) ;
#552 = ORIENTED_EDGE ( 'NONE', *, *, #101, .T. ) ;
#553 = AXIS2_PLACEMENT_3D ( 'NONE', #121, #78, #234 ) ;
#554 = ORIENTED_EDGE ( 'NONE', *, *, #137, .F. ) ;
#555 = DIRECTION ( 'NONE',  ( -0.0000000000000000000, 1.000000000000000000, -0.0000000000000000000 ) ) ;
#556 = EDGE_CURVE ( 'NONE', #652, #464, #508, .T. ) ;
#557 = DIRECTION ( 'NONE',  ( -0.0000000000000000000, -0.0000000000000000000, -1.000000000000000000 ) ) ;
#558 = CYLINDRICAL_SURFACE ( 'NONE', #579, 4.249999999999997300 ) ;
#559 = CALENDAR_DATE ( 2018, 21, 6 ) ;
#560 = DIRECTION ( 'NONE',  ( 0.0000000000000000000, -1.000000000000000000, 0.0000000000000000000 ) ) ;
#561 = EDGE_LOOP ( 'NONE', ( #714, #389, #629, #737 ) ) ;
#562 = ORIENTED_EDGE ( 'NONE', *, *, #461, .F. ) ;
#563 = DIRECTION ( 'NONE',  ( 0.0000000000000000000, 0.0000000000000000000, -1.000000000000000000 ) ) ;
#564 = ORIENTED_EDGE ( 'NONE', *, *, #413, .F. ) ;
#565 = DIRECTION ( 'NONE',  ( 0.0000000000000000000, 0.0000000000000000000, -1.000000000000000000 ) ) ;
#566 = MANIFOLD_SOLID_BREP ( 'Mirror1', #599 ) ;
#567 = AXIS2_PLACEMENT_3D ( 'NONE', #433, #83, #22 ) ;
#568 = VECTOR ( 'NONE', #73, 1000.000000000000000 ) ;
#569 = COORDINATED_UNIVERSAL_TIME_OFFSET ( 1, 0, .AHEAD. ) ;
#570 = VECTOR ( 'NONE', #479, 1000.000000000000100 ) ;
#571 = VERTEX_POINT ( 'NONE', #336 ) ;
#572 = ORIENTED_EDGE ( 'NONE', *, *, #158, .T. ) ;
#573 = ADVANCED_FACE ( 'NONE', ( #634 ), #516, .T. ) ;
#574 = ORIENTED_EDGE ( 'NONE', *, *, #497, .T. ) ;
#575 = CARTESIAN_POINT ( 'NONE',  ( 12.72792206135793500, 74.00000000000000000, -21.21320343559634100 ) ) ;
#576 = CARTESIAN_POINT ( 'NONE',  ( -24.39782473475928600, 74.00000000000000000, -8.000000000000000000 ) ) ;
#577 = CARTESIAN_POINT ( 'NONE',  ( -34.94891236737964800, 16.99999999999999300, -8.673617379884035500E-016 ) ) ;
#578 = DIRECTION ( 'NONE',  ( -0.7071067811865438000, 0.0000000000000000000, -0.7071067811865512400 ) ) ;
#579 = AXIS2_PLACEMENT_3D ( 'NONE', #295, #359, #120 ) ;
#580 = VECTOR ( 'NONE', #309, 1000.000000000000100 ) ;
#581 = DIRECTION ( 'NONE',  ( -0.7071067811865511300, 0.0000000000000000000, 0.7071067811865439100 ) ) ;
#582 = VERTEX_POINT ( 'NONE', #699 ) ;
#583 = DATE_AND_TIME ( #193, #172 ) ;
#584 = EDGE_LOOP ( 'NONE', ( #275, #183, #110, #641 ) ) ;
#585 = LOCAL_TIME ( 9, 48, 50.00000000000000000, #103 ) ;
#586 = CARTESIAN_POINT ( 'NONE',  ( -23.63245787002911100, 74.00000000000000000, -6.152240934977424300 ) ) ;
#587 = AXIS2_PLACEMENT_3D ( 'NONE', #394, #701, #505 ) ;
#588 = CARTESIAN_POINT ( 'NONE',  ( 0.0000000000000000000, 0.0000000000000000000, 0.0000000000000000000 ) ) ;
#589 = CARTESIAN_POINT ( 'NONE',  ( -60.00000000000000000, 74.00000000000000000, 0.0000000000000000000 ) ) ;
#590 = EDGE_CURVE ( 'NONE', #198, #727, #482, .T. ) ;
#591 = CARTESIAN_POINT ( 'NONE',  ( 38.18376618407376100, 74.00000000000000000, -38.18376618407336300 ) ) ;
#592 = ADVANCED_FACE ( 'NONE', ( #305, #456, #369 ), #734, .F. ) ;
#593 = LOCAL_TIME ( 9, 48, 50.00000000000000000, #569 ) ;
#594 = ORIENTED_EDGE ( 'NONE', *, *, #654, .F. ) ;
#595 = DIRECTION ( 'NONE',  ( 0.0000000000000000000, 1.000000000000000000, 0.0000000000000000000 ) ) ;
#596 = DATE_AND_TIME ( #15, #185 ) ;
#597 = VERTEX_POINT ( 'NONE', #680 ) ;
#598 = CARTESIAN_POINT ( 'NONE',  ( 42.42640687119306600, 74.00000000000000000, -42.42640687119262600 ) ) ;
#599 = CLOSED_SHELL ( 'NONE', ( #338, #549, #386, #724, #211, #732, #310, #384, #142, #592, #266, #94, #573, #495, #429, #268, #201, #45, #605, #498 ) ) ;
#600 = CARTESIAN_POINT ( 'NONE',  ( -54.00000000000000000, 74.00000000000000000, 8.673617379884035500E-016 ) ) ;
#601 = EDGE_CURVE ( 'NONE', #476, #460, #203, .T. ) ;
#602 = CYLINDRICAL_SURFACE ( 'NONE', #217, 5.999999999999998200 ) ;
#603 = SHAPE_DEFINITION_REPRESENTATION ( #423, #721 ) ;
#604 = EDGE_LOOP ( 'NONE', ( #248, #438, #537, #333 ) ) ;
#605 = ADVANCED_FACE ( 'NONE', ( #442 ), #470, .F. ) ;
#606 = EDGE_LOOP ( 'NONE', ( #186, #615 ) ) ;
#607 = EDGE_CURVE ( 'NONE', #460, #36, #722, .T. ) ;
#608 = DIRECTION ( 'NONE',  ( -0.0000000000000000000, -0.0000000000000000000, -1.000000000000000000 ) ) ;
#609 = APPROVAL_ROLE ( '' ) ;
#610 = CARTESIAN_POINT ( 'NONE',  ( 0.0000000000000000000, 74.00000000000000000, 0.0000000000000000000 ) ) ;
#611 = VECTOR ( 'NONE', #293, 1000.000000000000000 ) ;
#612 = EDGE_CURVE ( 'NONE', #727, #662, #404, .T. ) ;
#613 = CYLINDRICAL_SURFACE ( 'NONE', #21, 2.000000000000000000 ) ;
#614 = ORIENTED_EDGE ( 'NONE', *, *, #691, .T. ) ;
#615 = ORIENTED_EDGE ( 'NONE', *, *, #254, .F. ) ;
#616 = CARTESIAN_POINT ( 'NONE',  ( -23.99999999999997200, 74.00000000000000000, -5.999999999999999100 ) ) ;
#617 = FACE_OUTER_BOUND ( 'NONE', #7, .T. ) ;
#618 = APPROVAL_PERSON_ORGANIZATION ( #312, #514, #435 ) ;
#619 = VERTEX_POINT ( 'NONE', #577 ) ;
#620 = CARTESIAN_POINT ( 'NONE',  ( 26.48037988303510600, 57.00000000000000000, -34.96566125727333900 ) ) ;
#621 = AXIS2_PLACEMENT_3D ( 'NONE', #534, #653, #367 ) ;
#622 = DIRECTION ( 'NONE',  ( 1.000000000000000000, 0.0000000000000000000, -0.0000000000000000000 ) ) ;
#623 = DIRECTION ( 'NONE',  ( 0.0000000000000000000, 0.0000000000000000000, -1.000000000000000000 ) ) ;
#624 = EDGE_CURVE ( 'NONE', #16, #199, #23, .T. ) ;
#625 = VECTOR ( 'NONE', #56, 1000.000000000000000 ) ;
#626 = LINE ( 'NONE', #529, #725 ) ;
#627 = EDGE_CURVE ( 'NONE', #296, #494, #377, .T. ) ;
#628 = ORIENTED_EDGE ( 'NONE', *, *, #95, .T. ) ;
#629 = ORIENTED_EDGE ( 'NONE', *, *, #35, .T. ) ;
#630 = CC_DESIGN_PERSON_AND_ORGANIZATION_ASSIGNMENT ( #321, #379, ( #253 ) ) ;
#631 = DIRECTION ( 'NONE',  ( -1.000000000000000000, 0.0000000000000000000, 0.0000000000000000000 ) ) ;
#632 = DIRECTION ( 'NONE',  ( -0.0000000000000000000, -0.0000000000000000000, -1.000000000000000000 ) ) ;
#633 = CC_DESIGN_PERSON_AND_ORGANIZATION_ASSIGNMENT ( #226, #195, ( #29 ) ) ;
#634 = FACE_OUTER_BOUND ( 'NONE', #704, .T. ) ;
#635 = DIRECTION ( 'NONE',  ( -0.0000000000000000000, -0.0000000000000000000, -1.000000000000000000 ) ) ;
#636 = LINE ( 'NONE', #655, #580 ) ;
#637 = LINE ( 'NONE', #160, #483 ) ;
#638 = ORIENTED_EDGE ( 'NONE', *, *, #385, .F. ) ;
#639 = DIRECTION ( 'NONE',  ( -0.7071067811865435800, -0.0000000000000000000, -0.7071067811865513500 ) ) ;
#640 = EDGE_CURVE ( 'NONE', #582, #464, #666, .T. ) ;
#641 = ORIENTED_EDGE ( 'NONE', *, *, #428, .F. ) ;
#642 = DIRECTION ( 'NONE',  ( -1.000000000000000000, 0.0000000000000000000, 0.0000000000000000000 ) ) ;
#643 = CARTESIAN_POINT ( 'NONE',  ( -34.94891236737964800, 16.99999999999999300, -5.999999999999999100 ) ) ;
#644 = DIRECTION ( 'NONE',  ( 3.469446951953615400E-015, 0.0000000000000000000, -1.000000000000000000 ) ) ;
#645 = CARTESIAN_POINT ( 'NONE',  ( 23.47517606299226500, 57.00000000000000000, -31.96045743723052700 ) ) ;
#646 = CYLINDRICAL_SURFACE ( 'NONE', #287, 4.249999999999996400 ) ;
#647 =( NAMED_UNIT ( * ) PLANE_ANGLE_UNIT ( ) SI_UNIT ( $, .RADIAN. ) );
#648 = LINE ( 'NONE', #740, #123 ) ;
#649 = DIRECTION ( 'NONE',  ( -0.0000000000000000000, 1.000000000000000000, -0.0000000000000000000 ) ) ;
#650 = ORIENTED_EDGE ( 'NONE', *, *, #741, .F. ) ;
#651 = PERSON_AND_ORGANIZATION ( #342, #658 ) ;
#652 = VERTEX_POINT ( 'NONE', #119 ) ;
#653 = DIRECTION ( 'NONE',  ( -0.0000000000000000000, -0.0000000000000000000, -1.000000000000000000 ) ) ;
#654 = EDGE_CURVE ( 'NONE', #494, #296, #196, .T. ) ;
#655 = CARTESIAN_POINT ( 'NONE',  ( 26.48037988303510600, 16.99999999999999300, -34.96566125727333900 ) ) ;
#656 = CARTESIAN_POINT ( 'NONE',  ( -43.44891236737964100, 16.99999999999999300, -5.999999999999999100 ) ) ;
#657 = CARTESIAN_POINT ( 'NONE',  ( 30.72302057015436100, 57.00000000000000000, -30.72302057015403100 ) ) ;
#658 = ORGANIZATION ( 'UNSPECIFIED', 'UNSPECIFIED', '' ) ;
#659 = FACE_OUTER_BOUND ( 'NONE', #345, .T. ) ;
#660 = CIRCLE ( 'NONE', #259, 5.999999999999998200 ) ;
#661 = ORIENTED_EDGE ( 'NONE', *, *, #601, .F. ) ;
#662 = VERTEX_POINT ( 'NONE', #710 ) ;
#663 = EDGE_CURVE ( 'NONE', #695, #652, #214, .T. ) ;
#664 = AXIS2_PLACEMENT_3D ( 'NONE', #236, #249, #365 ) ;
#665 = AXIS2_PLACEMENT_3D ( 'NONE', #451, #269, #157 ) ;
#666 = CIRCLE ( 'NONE', #706, 5.999999999999998200 ) ;
#667 = VECTOR ( 'NONE', #388, 1000.000000000000000 ) ;
#668 = ORIENTED_EDGE ( 'NONE', *, *, #279, .F. ) ;
#669 = ORIENTED_EDGE ( 'NONE', *, *, #533, .T. ) ;
#670 = CC_DESIGN_SECURITY_CLASSIFICATION ( #253, ( #223 ) ) ;
#671 = CARTESIAN_POINT ( 'NONE',  ( 24.71261293006868000, 16.99999999999999300, -24.71261293006841300 ) ) ;
#672 = VECTOR ( 'NONE', #639, 1000.000000000000100 ) ;
#673 = VECTOR ( 'NONE', #300, 1000.000000000000000 ) ;
#674 = VECTOR ( 'NONE', #393, 1000.000000000000000 ) ;
#675 = ORIENTED_EDGE ( 'NONE', *, *, #254, .T. ) ;
#676 = DIRECTION ( 'NONE',  ( 0.0000000000000000000, -1.000000000000000000, -0.0000000000000000000 ) ) ;
#677 = ORIENTED_EDGE ( 'NONE', *, *, #35, .F. ) ;
#678 = CARTESIAN_POINT ( 'NONE',  ( 23.47517606299226500, 16.99999999999999300, -31.96045743723052700 ) ) ;
#679 = DIRECTION ( 'NONE',  ( -0.7071067811865436900, -0.0000000000000000000, -0.7071067811865514600 ) ) ;
#680 = CARTESIAN_POINT ( 'NONE',  ( 26.48037988303510600, 57.00000000000000000, -34.96566125727333900 ) ) ;
#681 = FACE_OUTER_BOUND ( 'NONE', #329, .T. ) ;
#682 = CARTESIAN_POINT ( 'NONE',  ( -60.00000000000000000, 0.0000000000000000000, 0.0000000000000000000 ) ) ;
#683 = ORIENTED_EDGE ( 'NONE', *, *, #26, .F. ) ;
#684 = VERTEX_POINT ( 'NONE', #422 ) ;
#685 = ORIENTED_EDGE ( 'NONE', *, *, #347, .T. ) ;
#686 = CARTESIAN_POINT ( 'NONE',  ( -54.00000000000000000, 74.00000000000000000, -5.999999999999999100 ) ) ;
#687 = DIRECTION ( 'NONE',  ( -0.7071067811865435800, -0.0000000000000000000, -0.7071067811865513500 ) ) ;
#688 = AXIS2_PLACEMENT_3D ( 'NONE', #146, #608, #547 ) ;
#689 = DIRECTION ( 'NONE',  ( 0.0000000000000000000, 0.0000000000000000000, -1.000000000000000000 ) ) ;
#690 = LINE ( 'NONE', #414, #97 ) ;
#691 = EDGE_CURVE ( 'NONE', #298, #518, #490, .T. ) ;
#692 = VERTEX_POINT ( 'NONE', #538 ) ;
#693 = DIRECTION ( 'NONE',  ( -1.000000000000000000, 0.0000000000000000000, 0.0000000000000000000 ) ) ;
#694 = ORIENTED_EDGE ( 'NONE', *, *, #654, .T. ) ;
#695 = VERTEX_POINT ( 'NONE', #481 ) ;
#696 = CC_DESIGN_APPROVAL ( #514, ( #223 ) ) ;
#697 = CARTESIAN_POINT ( 'NONE',  ( 23.47517606299226500, 57.00000000000000000, -31.96045743723052700 ) ) ;
#698 = DIRECTION ( 'NONE',  ( -1.000000000000000000, 0.0000000000000000000, 0.0000000000000000000 ) ) ;
#699 = CARTESIAN_POINT ( 'NONE',  ( 33.94112549695450600, 0.0000000000000000000, -42.42640687119267500 ) ) ;
#700 = DIRECTION ( 'NONE',  ( -0.0000000000000000000, -1.000000000000000000, -0.0000000000000000000 ) ) ;
#701 = DIRECTION ( 'NONE',  ( -0.0000000000000000000, -1.000000000000000000, -0.0000000000000000000 ) ) ;
#702 = ORIENTED_EDGE ( 'NONE', *, *, #373, .F. ) ;
#703 = ORIENTED_EDGE ( 'NONE', *, *, #241, .T. ) ;
#704 = EDGE_LOOP ( 'NONE', ( #440, #151, #82, #156 ) ) ;
#705 = CARTESIAN_POINT ( 'NONE',  ( 27.71781675011152000, 16.99999999999999300, -27.71781675011122200 ) ) ;
#706 = AXIS2_PLACEMENT_3D ( 'NONE', #136, #301, #30 ) ;
#707 = DIRECTION ( 'NONE',  ( -0.7071067811865511300, 0.0000000000000000000, 0.7071067811865439100 ) ) ;
#708 = DIRECTION ( 'NONE',  ( -0.0000000000000000000, -0.0000000000000000000, -1.000000000000000000 ) ) ;
#709 = CARTESIAN_POINT ( 'NONE',  ( 20.46997224294942400, 16.99999999999999300, -28.95525361718771900 ) ) ;
#710 = CARTESIAN_POINT ( 'NONE',  ( 42.42640687119306600, 0.0000000000000000000, -42.42640687119262600 ) ) ;
#711 = ORIENTED_EDGE ( 'NONE', *, *, #640, .T. ) ;
#712 = EDGE_LOOP ( 'NONE', ( #207, #711, #703, #363, #27, #197, #135, #162, #683, #628 ) ) ;
#713 = CARTESIAN_POINT ( 'NONE',  ( 23.47517606299226500, 57.00000000000000000, -31.96045743723052700 ) ) ;
#714 = ORIENTED_EDGE ( 'NONE', *, *, #64, .F. ) ;
#715 = AXIS2_PLACEMENT_3D ( 'NONE', #18, #212, #622 ) ;
#716 = APPROVAL_STATUS ( 'not_yet_approved' ) ;
#717 = EDGE_CURVE ( 'NONE', #597, #519, #2, .T. ) ;
#718 = CIRCLE ( 'NONE', #233, 4.249999999999997300 ) ;
#719 = ORIENTED_EDGE ( 'NONE', *, *, #497, .F. ) ;
#720 = ORIENTED_EDGE ( 'NONE', *, *, #297, .F. ) ;
#721 = ADVANCED_BREP_SHAPE_REPRESENTATION ( 'ALP2480', ( #566, #457 ), #247 ) ;
#722 = CIRCLE ( 'NONE', #503, 2.000000000000000000 ) ;
#723 = CC_DESIGN_PERSON_AND_ORGANIZATION_ASSIGNMENT ( #11, #424, ( #261 ) ) ;
#724 = ADVANCED_FACE ( 'NONE', ( #148 ), #426, .F. ) ;
#725 = VECTOR ( 'NONE', #187, 1000.000000000000000 ) ;
#726 = LINE ( 'NONE', #238, #570 ) ;
#727 = VERTEX_POINT ( 'NONE', #306 ) ;
#728 = VERTEX_POINT ( 'NONE', #657 ) ;
#729 = ORIENTED_EDGE ( 'NONE', *, *, #493, .F. ) ;
#730 = DIRECTION ( 'NONE',  ( -0.7071067811865438000, 0.0000000000000000000, -0.7071067811865512400 ) ) ;
#731 = DIRECTION ( 'NONE',  ( -1.000000000000000000, 0.0000000000000000000, 0.0000000000000000000 ) ) ;
#732 = ADVANCED_FACE ( 'NONE', ( #284, #72, #326 ), #31, .F. ) ;
#733 = FACE_BOUND ( 'NONE', #17, .T. ) ;
#734 = PLANE ( 'NONE',  #715 ) ;
#735 = LINE ( 'NONE', #59, #667 ) ;
#736 = PERSON_AND_ORGANIZATION ( #342, #658 ) ;
#737 = ORIENTED_EDGE ( 'NONE', *, *, #624, .T. ) ;
#738 = CARTESIAN_POINT ( 'NONE',  ( 27.71781675011152000, 57.00000000000000000, -27.71781675011122200 ) ) ;
#739 = CARTESIAN_POINT ( 'NONE',  ( 38.18376618407376100, 74.00000000000000000, -38.18376618407336300 ) ) ;
#740 = CARTESIAN_POINT ( 'NONE',  ( -34.94891236737964800, 57.00000000000000000, -5.999999999999999100 ) ) ;
#741 = EDGE_CURVE ( 'NONE', #416, #494, #350, .T. ) ;
ENDSEC;
END-ISO-10303-21;
