ISO-10303-21;
HEADER;
FILE_DESCRIPTION (( 'STEP AP203' ),
    '1' );
FILE_NAME ('ALP2170.STEP',
    '2017-02-17T19:20:22',
    ( '' ),
    ( '' ),
    'SwSTEP 2.0',
    'SolidWorks 2012',
    '' );
FILE_SCHEMA (( 'CONFIG_CONTROL_DESIGN' ));
ENDSEC;

DATA;
#1 = CALENDAR_DATE ( 2017, 17, 2 ) ;
#2 = PERSON_AND_ORGANIZATION ( #858, #341 ) ;
#3 = APPROVAL_DATE_TIME ( #5, #576 ) ;
#4 = CALENDAR_DATE ( 2017, 17, 2 ) ;
#5 = DATE_AND_TIME ( #4, #13 ) ;
#6 = APPROVAL_PERSON_ORGANIZATION ( #16, #592, #812 ) ;
#7 = PERSON_AND_ORGANIZATION ( #858, #341 ) ;
#8 = COORDINATED_UNIVERSAL_TIME_OFFSET ( 1, 0, .AHEAD. ) ;
#9 = LOCAL_TIME ( 20, 20, 22.00000000000000000, #8 ) ;
#10 = CALENDAR_DATE ( 2017, 17, 2 ) ;
#11 = APPROVAL_PERSON_ORGANIZATION ( #20, #576, #801 ) ;
#12 = PERSON_AND_ORGANIZATION ( #858, #341 ) ;
#13 = LOCAL_TIME ( 20, 20, 22.00000000000000000, #21 ) ;
#14 = DATE_AND_TIME ( #10, #9 ) ;
#15 = APPROVAL_DATE_TIME ( #14, #592 ) ;
#16 = PERSON_AND_ORGANIZATION ( #858, #341 ) ;
#17 = DATE_AND_TIME ( #1, #18 ) ;
#18 = LOCAL_TIME ( 20, 20, 22.00000000000000000, #19 ) ;
#19 = COORDINATED_UNIVERSAL_TIME_OFFSET ( 1, 0, .AHEAD. ) ;
#20 = PERSON_AND_ORGANIZATION ( #858, #341 ) ;
#21 = COORDINATED_UNIVERSAL_TIME_OFFSET ( 1, 0, .AHEAD. ) ;
#22 = ORIENTED_EDGE ( 'NONE', *, *, #1116, .F. ) ;
#23 = ORIENTED_EDGE ( 'NONE', *, *, #1132, .F. ) ;
#24 = ORIENTED_EDGE ( 'NONE', *, *, #1152, .T. ) ;
#25 = ORIENTED_EDGE ( 'NONE', *, *, #1153, .F. ) ;
#26 = ORIENTED_EDGE ( 'NONE', *, *, #1115, .F. ) ;
#27 = ORIENTED_EDGE ( 'NONE', *, *, #1171, .T. ) ;
#28 = ORIENTED_EDGE ( 'NONE', *, *, #1136, .T. ) ;
#29 = ORIENTED_EDGE ( 'NONE', *, *, #1165, .F. ) ;
#30 = ORIENTED_EDGE ( 'NONE', *, *, #1110, .T. ) ;
#31 = VERTEX_POINT ( 'NONE', #658 ) ;
#32 = ORIENTED_EDGE ( 'NONE', *, *, #1109, .T. ) ;
#33 = VERTEX_POINT ( 'NONE', #625 ) ;
#34 = ORIENTED_EDGE ( 'NONE', *, *, #1124, .T. ) ;
#35 = ORIENTED_EDGE ( 'NONE', *, *, #1126, .T. ) ;
#36 = ORIENTED_EDGE ( 'NONE', *, *, #1118, .T. ) ;
#37 = ORIENTED_EDGE ( 'NONE', *, *, #1168, .T. ) ;
#38 = ORIENTED_EDGE ( 'NONE', *, *, #1107, .F. ) ;
#39 = ORIENTED_EDGE ( 'NONE', *, *, #1110, .F. ) ;
#40 = ORIENTED_EDGE ( 'NONE', *, *, #1158, .T. ) ;
#41 = VERTEX_POINT ( 'NONE', #642 ) ;
#42 = VERTEX_POINT ( 'NONE', #660 ) ;
#43 = VERTEX_POINT ( 'NONE', #627 ) ;
#44 = ORIENTED_EDGE ( 'NONE', *, *, #1153, .T. ) ;
#45 = ORIENTED_EDGE ( 'NONE', *, *, #1149, .F. ) ;
#46 = ORIENTED_EDGE ( 'NONE', *, *, #1128, .T. ) ;
#47 = ORIENTED_EDGE ( 'NONE', *, *, #1176, .F. ) ;
#48 = ORIENTED_EDGE ( 'NONE', *, *, #1111, .F. ) ;
#49 = ORIENTED_EDGE ( 'NONE', *, *, #1119, .F. ) ;
#50 = ORIENTED_EDGE ( 'NONE', *, *, #1112, .F. ) ;
#51 = ORIENTED_EDGE ( 'NONE', *, *, #1139, .T. ) ;
#52 = ORIENTED_EDGE ( 'NONE', *, *, #1155, .T. ) ;
#53 = ORIENTED_EDGE ( 'NONE', *, *, #1159, .T. ) ;
#54 = VERTEX_POINT ( 'NONE', #662 ) ;
#55 = ORIENTED_EDGE ( 'NONE', *, *, #1127, .F. ) ;
#56 = VERTEX_POINT ( 'NONE', #618 ) ;
#57 = ORIENTED_EDGE ( 'NONE', *, *, #1151, .F. ) ;
#58 = ORIENTED_EDGE ( 'NONE', *, *, #1130, .T. ) ;
#59 = VERTEX_POINT ( 'NONE', #650 ) ;
#60 = ORIENTED_EDGE ( 'NONE', *, *, #1138, .T. ) ;
#61 = ORIENTED_EDGE ( 'NONE', *, *, #1111, .T. ) ;
#62 = ORIENTED_EDGE ( 'NONE', *, *, #1175, .F. ) ;
#63 = ORIENTED_EDGE ( 'NONE', *, *, #1117, .F. ) ;
#64 = ORIENTED_EDGE ( 'NONE', *, *, #1150, .F. ) ;
#65 = ORIENTED_EDGE ( 'NONE', *, *, #1151, .T. ) ;
#66 = ORIENTED_EDGE ( 'NONE', *, *, #1170, .T. ) ;
#67 = ORIENTED_EDGE ( 'NONE', *, *, #1177, .T. ) ;
#68 = ORIENTED_EDGE ( 'NONE', *, *, #1172, .F. ) ;
#69 = ORIENTED_EDGE ( 'NONE', *, *, #1113, .F. ) ;
#70 = ORIENTED_EDGE ( 'NONE', *, *, #1127, .T. ) ;
#71 = ORIENTED_EDGE ( 'NONE', *, *, #1143, .T. ) ;
#72 = ORIENTED_EDGE ( 'NONE', *, *, #1062, .T. ) ;
#73 = VERTEX_POINT ( 'NONE', #620 ) ;
#74 = ORIENTED_EDGE ( 'NONE', *, *, #1140, .T. ) ;
#75 = ORIENTED_EDGE ( 'NONE', *, *, #1141, .T. ) ;
#76 = ORIENTED_EDGE ( 'NONE', *, *, #1173, .F. ) ;
#77 = ORIENTED_EDGE ( 'NONE', *, *, #1122, .T. ) ;
#78 = ORIENTED_EDGE ( 'NONE', *, *, #1149, .T. ) ;
#79 = ORIENTED_EDGE ( 'NONE', *, *, #1174, .F. ) ;
#80 = VERTEX_POINT ( 'NONE', #633 ) ;
#81 = ORIENTED_EDGE ( 'NONE', *, *, #1164, .T. ) ;
#82 = ORIENTED_EDGE ( 'NONE', *, *, #1108, .T. ) ;
#83 = ORIENTED_EDGE ( 'NONE', *, *, #1120, .T. ) ;
#84 = LINE ( 'NONE', #705, #97 ) ;
#85 = LINE ( 'NONE', #691, #130 ) ;
#86 = ORIENTED_EDGE ( 'NONE', *, *, #1123, .T. ) ;
#87 = ORIENTED_EDGE ( 'NONE', *, *, #1107, .T. ) ;
#88 = ORIENTED_EDGE ( 'NONE', *, *, #1157, .T. ) ;
#89 = ORIENTED_EDGE ( 'NONE', *, *, #1165, .T. ) ;
#90 = ORIENTED_EDGE ( 'NONE', *, *, #1167, .F. ) ;
#91 = VECTOR ( 'NONE', #669, 1000.000000000000000 ) ;
#92 = ORIENTED_EDGE ( 'NONE', *, *, #1133, .T. ) ;
#93 = ORIENTED_EDGE ( 'NONE', *, *, #1160, .T. ) ;
#94 = LINE ( 'NONE', #695, #144 ) ;
#95 = ORIENTED_EDGE ( 'NONE', *, *, #1169, .T. ) ;
#96 = VECTOR ( 'NONE', #671, 1000.000000000000000 ) ;
#97 = VECTOR ( 'NONE', #700, 1000.000000000000000 ) ;
#98 = ORIENTED_EDGE ( 'NONE', *, *, #1114, .T. ) ;
#99 = ORIENTED_EDGE ( 'NONE', *, *, #1109, .F. ) ;
#100 = ORIENTED_EDGE ( 'NONE', *, *, #1142, .T. ) ;
#101 = ORIENTED_EDGE ( 'NONE', *, *, #1114, .F. ) ;
#102 = LINE ( 'NONE', #665, #136 ) ;
#103 = ORIENTED_EDGE ( 'NONE', *, *, #1135, .F. ) ;
#104 = ORIENTED_EDGE ( 'NONE', *, *, #1121, .T. ) ;
#105 = ORIENTED_EDGE ( 'NONE', *, *, #1167, .T. ) ;
#106 = CIRCLE ( 'NONE', #1073, 2.099999999999997900 ) ;
#107 = ORIENTED_EDGE ( 'NONE', *, *, #1140, .F. ) ;
#108 = ORIENTED_EDGE ( 'NONE', *, *, #1134, .F. ) ;
#109 = ORIENTED_EDGE ( 'NONE', *, *, #1172, .T. ) ;
#110 = ORIENTED_EDGE ( 'NONE', *, *, #1131, .T. ) ;
#111 = ORIENTED_EDGE ( 'NONE', *, *, #1138, .F. ) ;
#112 = ORIENTED_EDGE ( 'NONE', *, *, #1147, .T. ) ;
#113 = ORIENTED_EDGE ( 'NONE', *, *, #1096, .T. ) ;
#114 = LINE ( 'NONE', #675, #122 ) ;
#115 = LINE ( 'NONE', #708, #96 ) ;
#116 = ORIENTED_EDGE ( 'NONE', *, *, #1145, .T. ) ;
#117 = ORIENTED_EDGE ( 'NONE', *, *, #1097, .T. ) ;
#118 = ORIENTED_EDGE ( 'NONE', *, *, #1156, .T. ) ;
#119 = ORIENTED_EDGE ( 'NONE', *, *, #1129, .T. ) ;
#120 = ORIENTED_EDGE ( 'NONE', *, *, #1161, .T. ) ;
#121 = VECTOR ( 'NONE', #668, 1000.000000000000100 ) ;
#122 = VECTOR ( 'NONE', #673, 1000.000000000000000 ) ;
#123 = LINE ( 'NONE', #687, #121 ) ;
#124 = LINE ( 'NONE', #699, #125 ) ;
#125 = VECTOR ( 'NONE', #678, 1000.000000000000000 ) ;
#126 = ORIENTED_EDGE ( 'NONE', *, *, #1137, .T. ) ;
#127 = ORIENTED_EDGE ( 'NONE', *, *, #1125, .T. ) ;
#128 = ORIENTED_EDGE ( 'NONE', *, *, #1162, .T. ) ;
#129 = LINE ( 'NONE', #674, #91 ) ;
#130 = VECTOR ( 'NONE', #684, 1000.000000000000000 ) ;
#131 = ORIENTED_EDGE ( 'NONE', *, *, #1156, .F. ) ;
#132 = ORIENTED_EDGE ( 'NONE', *, *, #1102, .T. ) ;
#133 = ORIENTED_EDGE ( 'NONE', *, *, #1132, .T. ) ;
#134 = ORIENTED_EDGE ( 'NONE', *, *, #1154, .F. ) ;
#135 = ORIENTED_EDGE ( 'NONE', *, *, #1144, .T. ) ;
#136 = VECTOR ( 'NONE', #701, 1000.000000000000000 ) ;
#137 = ORIENTED_EDGE ( 'NONE', *, *, #1083, .T. ) ;
#138 = ORIENTED_EDGE ( 'NONE', *, *, #1168, .F. ) ;
#139 = ORIENTED_EDGE ( 'NONE', *, *, #1075, .F. ) ;
#140 = ORIENTED_EDGE ( 'NONE', *, *, #1166, .T. ) ;
#141 = ORIENTED_EDGE ( 'NONE', *, *, #1133, .F. ) ;
#142 = ORIENTED_EDGE ( 'NONE', *, *, #1129, .F. ) ;
#143 = ORIENTED_EDGE ( 'NONE', *, *, #1128, .F. ) ;
#144 = VECTOR ( 'NONE', #680, 1000.000000000000000 ) ;
#145 = VECTOR ( 'NONE', #757, 1000.000000000000000 ) ;
#146 = VECTOR ( 'NONE', #773, 1000.000000000000000 ) ;
#147 = LINE ( 'NONE', #752, #179 ) ;
#148 = VECTOR ( 'NONE', #729, 1000.000000000000100 ) ;
#149 = LINE ( 'NONE', #740, #184 ) ;
#150 = LINE ( 'NONE', #686, #195 ) ;
#151 = CIRCLE ( 'NONE', #1087, 2.099999999999998300 ) ;
#152 = LINE ( 'NONE', #693, #160 ) ;
#153 = VECTOR ( 'NONE', #734, 1000.000000000000000 ) ;
#154 = LINE ( 'NONE', #702, #204 ) ;
#155 = CIRCLE ( 'NONE', #1095, 2.099999999999998300 ) ;
#156 = LINE ( 'NONE', #742, #148 ) ;
#157 = VECTOR ( 'NONE', #726, 1000.000000000000000 ) ;
#158 = VECTOR ( 'NONE', #738, 1000.000000000000000 ) ;
#159 = VECTOR ( 'NONE', #685, 1000.000000000000000 ) ;
#160 = VECTOR ( 'NONE', #697, 1000.000000000000100 ) ;
#161 = LINE ( 'NONE', #711, #183 ) ;
#162 = VECTOR ( 'NONE', #721, 1000.000000000000100 ) ;
#163 = LINE ( 'NONE', #746, #170 ) ;
#164 = LINE ( 'NONE', #737, #199 ) ;
#165 = VECTOR ( 'NONE', #735, 1000.000000000000100 ) ;
#166 = CIRCLE ( 'NONE', #1080, 2.524999999999999500 ) ;
#167 = LINE ( 'NONE', #725, #157 ) ;
#168 = LINE ( 'NONE', #763, #169 ) ;
#169 = VECTOR ( 'NONE', #754, 1000.000000000000000 ) ;
#170 = VECTOR ( 'NONE', #720, 1000.000000000000000 ) ;
#171 = LINE ( 'NONE', #755, #177 ) ;
#172 = VECTOR ( 'NONE', #739, 1000.000000000000000 ) ;
#173 = LINE ( 'NONE', #704, #159 ) ;
#174 = LINE ( 'NONE', #730, #158 ) ;
#175 = LINE ( 'NONE', #759, #146 ) ;
#176 = LINE ( 'NONE', #706, #162 ) ;
#177 = VECTOR ( 'NONE', #769, 1000.000000000000000 ) ;
#178 = LINE ( 'NONE', #772, #185 ) ;
#179 = VECTOR ( 'NONE', #758, 1000.000000000000000 ) ;
#180 = LINE ( 'NONE', #703, #193 ) ;
#181 = LINE ( 'NONE', #696, #192 ) ;
#182 = LINE ( 'NONE', #784, #203 ) ;
#183 = VECTOR ( 'NONE', #728, 1000.000000000000000 ) ;
#184 = VECTOR ( 'NONE', #750, 1000.000000000000000 ) ;
#185 = VECTOR ( 'NONE', #782, 1000.000000000000000 ) ;
#186 = LINE ( 'NONE', #722, #196 ) ;
#187 = VECTOR ( 'NONE', #682, 1000.000000000000000 ) ;
#188 = LINE ( 'NONE', #715, #153 ) ;
#189 = LINE ( 'NONE', #723, #190 ) ;
#190 = VECTOR ( 'NONE', #714, 1000.000000000000000 ) ;
#191 = CIRCLE ( 'NONE', #1104, 2.099999999999997900 ) ;
#192 = VECTOR ( 'NONE', #683, 1000.000000000000000 ) ;
#193 = VECTOR ( 'NONE', #692, 1000.000000000000000 ) ;
#194 = LINE ( 'NONE', #679, #187 ) ;
#195 = VECTOR ( 'NONE', #681, 1000.000000000000100 ) ;
#196 = VECTOR ( 'NONE', #717, 1000.000000000000000 ) ;
#197 = LINE ( 'NONE', #719, #172 ) ;
#198 = LINE ( 'NONE', #713, #165 ) ;
#199 = VECTOR ( 'NONE', #731, 1000.000000000000000 ) ;
#200 = LINE ( 'NONE', #736, #202 ) ;
#201 = CIRCLE ( 'NONE', #1099, 2.524999999999999500 ) ;
#202 = VECTOR ( 'NONE', #744, 999.9999999999998900 ) ;
#203 = VECTOR ( 'NONE', #760, 1000.000000000000000 ) ;
#204 = VECTOR ( 'NONE', #712, 1000.000000000000100 ) ;
#205 = CIRCLE ( 'NONE', #1074, 2.524999999999999500 ) ;
#206 = LINE ( 'NONE', #767, #145 ) ;
#207 = CIRCLE ( 'NONE', #1086, 2.999999999999999100 ) ;
#208 = LINE ( 'NONE', #791, #229 ) ;
#209 = VECTOR ( 'NONE', #495, 1000.000000000000000 ) ;
#210 = VECTOR ( 'NONE', #775, 1000.000000000000100 ) ;
#211 = LINE ( 'NONE', #765, #226 ) ;
#212 = LINE ( 'NONE', #793, #228 ) ;
#213 = CIRCLE ( 'NONE', #1093, 2.099999999999998800 ) ;
#214 = LINE ( 'NONE', #516, #241 ) ;
#215 = LINE ( 'NONE', #507, #246 ) ;
#216 = LINE ( 'NONE', #800, #220 ) ;
#217 = VECTOR ( 'NONE', #502, 1000.000000000000000 ) ;
#218 = LINE ( 'NONE', #787, #210 ) ;
#219 = LINE ( 'NONE', #756, #227 ) ;
#220 = VECTOR ( 'NONE', #794, 1000.000000000000000 ) ;
#221 = LINE ( 'NONE', #788, #232 ) ;
#222 = VECTOR ( 'NONE', #762, 1000.000000000000000 ) ;
#223 = LINE ( 'NONE', #790, #233 ) ;
#224 = LINE ( 'NONE', #520, #225 ) ;
#225 = VECTOR ( 'NONE', #512, 1000.000000000000000 ) ;
#226 = VECTOR ( 'NONE', #781, 1000.000000000000000 ) ;
#227 = VECTOR ( 'NONE', #761, 1000.000000000000000 ) ;
#228 = VECTOR ( 'NONE', #799, 1000.000000000000000 ) ;
#229 = VECTOR ( 'NONE', #792, 1000.000000000000000 ) ;
#230 = LINE ( 'NONE', #484, #244 ) ;
#231 = CIRCLE ( 'NONE', #1084, 2.524999999999999500 ) ;
#232 = VECTOR ( 'NONE', #776, 1000.000000000000000 ) ;
#233 = VECTOR ( 'NONE', #798, 1000.000000000000000 ) ;
#234 = CIRCLE ( 'NONE', #1059, 2.099999999999997900 ) ;
#235 = LINE ( 'NONE', #498, #268 ) ;
#236 = LINE ( 'NONE', #503, #253 ) ;
#237 = VECTOR ( 'NONE', #783, 1000.000000000000000 ) ;
#238 = LINE ( 'NONE', #774, #222 ) ;
#239 = LINE ( 'NONE', #748, #257 ) ;
#240 = LINE ( 'NONE', #786, #260 ) ;
#241 = VECTOR ( 'NONE', #489, 1000.000000000000000 ) ;
#242 = LINE ( 'NONE', #518, #255 ) ;
#243 = CIRCLE ( 'NONE', #1085, 2.099999999999998800 ) ;
#244 = VECTOR ( 'NONE', #505, 1000.000000000000000 ) ;
#245 = LINE ( 'NONE', #519, #209 ) ;
#246 = VECTOR ( 'NONE', #524, 1000.000000000000000 ) ;
#247 = LINE ( 'NONE', #780, #237 ) ;
#248 = VECTOR ( 'NONE', #608, 1000.000000000000000 ) ;
#249 = VECTOR ( 'NONE', #797, 1000.000000000000100 ) ;
#250 = LINE ( 'NONE', #778, #258 ) ;
#251 = LINE ( 'NONE', #493, #262 ) ;
#252 = CIRCLE ( 'NONE', #1067, 2.999999999999999100 ) ;
#253 = VECTOR ( 'NONE', #511, 1000.000000000000000 ) ;
#254 = LINE ( 'NONE', #488, #256 ) ;
#255 = VECTOR ( 'NONE', #515, 1000.000000000000000 ) ;
#256 = VECTOR ( 'NONE', #491, 1000.000000000000000 ) ;
#257 = VECTOR ( 'NONE', #777, 1000.000000000000000 ) ;
#258 = VECTOR ( 'NONE', #779, 1000.000000000000000 ) ;
#259 = LINE ( 'NONE', #770, #249 ) ;
#260 = VECTOR ( 'NONE', #796, 1000.000000000000000 ) ;
#261 = LINE ( 'NONE', #795, #248 ) ;
#262 = VECTOR ( 'NONE', #514, 1000.000000000000000 ) ;
#263 = LINE ( 'NONE', #487, #264 ) ;
#264 = VECTOR ( 'NONE', #506, 1000.000000000000000 ) ;
#265 = CIRCLE ( 'NONE', #1094, 2.999999999999999100 ) ;
#266 = LINE ( 'NONE', #609, #217 ) ;
#267 = CIRCLE ( 'NONE', #1069, 2.099999999999997900 ) ;
#268 = VECTOR ( 'NONE', #483, 1000.000000000000000 ) ;
#269 = FACE_BOUND ( 'NONE', #1050, .T. ) ;
#270 = CONICAL_SURFACE ( 'NONE', #567, 2.524999999999999500, 0.7853981633974452800 ) ;
#271 = VECTOR ( 'NONE', #522, 999.9999999999998900 ) ;
#272 = LINE ( 'NONE', #544, #289 ) ;
#273 = VECTOR ( 'NONE', #529, 1000.000000000000000 ) ;
#274 = LINE ( 'NONE', #540, #321 ) ;
#275 = VECTOR ( 'NONE', #406, 1000.000000000000000 ) ;
#276 = VECTOR ( 'NONE', #405, 1000.000000000000000 ) ;
#277 = LINE ( 'NONE', #527, #284 ) ;
#278 = FACE_OUTER_BOUND ( 'NONE', #1033, .T. ) ;
#279 = FACE_OUTER_BOUND ( 'NONE', #1029, .T. ) ;
#280 = LINE ( 'NONE', #534, #323 ) ;
#281 = LINE ( 'NONE', #545, #301 ) ;
#282 = VECTOR ( 'NONE', #375, 1000.000000000000000 ) ;
#283 = LINE ( 'NONE', #554, #275 ) ;
#284 = VECTOR ( 'NONE', #537, 1000.000000000000100 ) ;
#285 = CONICAL_SURFACE ( 'NONE', #1091, 2.524999999999999500, 0.7853981633974452800 ) ;
#286 = LINE ( 'NONE', #380, #318 ) ;
#287 = VECTOR ( 'NONE', #523, 1000.000000000000100 ) ;
#288 = VECTOR ( 'NONE', #546, 1000.000000000000000 ) ;
#289 = VECTOR ( 'NONE', #548, 1000.000000000000000 ) ;
#290 = LINE ( 'NONE', #552, #324 ) ;
#291 = VECTOR ( 'NONE', #556, 1000.000000000000000 ) ;
#292 = LINE ( 'NONE', #531, #271 ) ;
#293 = LINE ( 'NONE', #547, #291 ) ;
#294 = LINE ( 'NONE', #551, #295 ) ;
#295 = VECTOR ( 'NONE', #553, 1000.000000000000000 ) ;
#296 = CIRCLE ( 'NONE', #1060, 2.999999999999999100 ) ;
#297 = VECTOR ( 'NONE', #541, 1000.000000000000100 ) ;
#298 = LINE ( 'NONE', #528, #273 ) ;
#299 = VECTOR ( 'NONE', #374, 1000.000000000000000 ) ;
#300 = LINE ( 'NONE', #415, #276 ) ;
#301 = VECTOR ( 'NONE', #555, 1000.000000000000000 ) ;
#302 = LINE ( 'NONE', #530, #287 ) ;
#303 = LINE ( 'NONE', #535, #282 ) ;
#304 = FACE_OUTER_BOUND ( 'NONE', #1024, .T. ) ;
#305 = LINE ( 'NONE', #536, #297 ) ;
#306 = FACE_OUTER_BOUND ( 'NONE', #1053, .T. ) ;
#307 = FACE_OUTER_BOUND ( 'NONE', #1026, .T. ) ;
#308 = FACE_OUTER_BOUND ( 'NONE', #1028, .T. ) ;
#309 = FACE_OUTER_BOUND ( 'NONE', #1056, .T. ) ;
#310 = FACE_OUTER_BOUND ( 'NONE', #1035, .T. ) ;
#311 = FACE_OUTER_BOUND ( 'NONE', #1049, .T. ) ;
#312 = FACE_OUTER_BOUND ( 'NONE', #1051, .T. ) ;
#313 = CONICAL_SURFACE ( 'NONE', #573, 2.524999999999999500, 0.7853981633974431700 ) ;
#314 = FACE_OUTER_BOUND ( 'NONE', #1055, .T. ) ;
#315 = CYLINDRICAL_SURFACE ( 'NONE', #562, 2.099999999999998800 ) ;
#316 = FACE_OUTER_BOUND ( 'NONE', #869, .T. ) ;
#317 = FACE_BOUND ( 'NONE', #888, .T. ) ;
#318 = VECTOR ( 'NONE', #376, 1000.000000000000000 ) ;
#319 = FACE_OUTER_BOUND ( 'NONE', #1023, .T. ) ;
#320 = FACE_OUTER_BOUND ( 'NONE', #1057, .T. ) ;
#321 = VECTOR ( 'NONE', #542, 1000.000000000000000 ) ;
#322 = LINE ( 'NONE', #550, #288 ) ;
#323 = VECTOR ( 'NONE', #538, 1000.000000000000000 ) ;
#324 = VECTOR ( 'NONE', #549, 1000.000000000000000 ) ;
#325 = LINE ( 'NONE', #410, #299 ) ;
#326 = FACE_OUTER_BOUND ( 'NONE', #1037, .T. ) ;
#327 = FACE_OUTER_BOUND ( 'NONE', #1039, .T. ) ;
#328 = FACE_OUTER_BOUND ( 'NONE', #1047, .T. ) ;
#329 = CYLINDRICAL_SURFACE ( 'NONE', #568, 2.099999999999998800 ) ;
#330 = FACE_OUTER_BOUND ( 'NONE', #1041, .T. ) ;
#331 = CALENDAR_DATE ( 2017, 17, 2 ) ;
#332 = FACE_OUTER_BOUND ( 'NONE', #889, .T. ) ;
#333 = FACE_OUTER_BOUND ( 'NONE', #1054, .T. ) ;
#334 = FACE_OUTER_BOUND ( 'NONE', #1058, .T. ) ;
#335 = FACE_OUTER_BOUND ( 'NONE', #1036, .T. ) ;
#336 = FACE_OUTER_BOUND ( 'NONE', #1052, .T. ) ;
#337 = FACE_OUTER_BOUND ( 'NONE', #1027, .T. ) ;
#338 = FACE_OUTER_BOUND ( 'NONE', #1025, .T. ) ;
#339 = SHAPE_DEFINITION_REPRESENTATION ( #1214, #859 ) ;
#340 = FACE_OUTER_BOUND ( 'NONE', #1043, .T. ) ;
#341 = ORGANIZATION ( 'UNSPECIFIED', 'UNSPECIFIED', '' ) ;
#342 = CONICAL_SURFACE ( 'NONE', #564, 2.524999999999999500, 0.7853981633974431700 ) ;
#343 = CYLINDRICAL_SURFACE ( 'NONE', #603, 2.999999999999999100 ) ;
#344 = PERSON_AND_ORGANIZATION ( #858, #341 ) ;
#345 = FACE_OUTER_BOUND ( 'NONE', #1042, .T. ) ;
#346 = FACE_OUTER_BOUND ( 'NONE', #1045, .T. ) ;
#347 = FACE_BOUND ( 'NONE', #1044, .T. ) ;
#348 = PERSON_AND_ORGANIZATION ( #858, #341 ) ;
#349 = APPROVAL_PERSON_ORGANIZATION ( #348, #599, #816 ) ;
#350 = FACE_BOUND ( 'NONE', #1022, .T. ) ;
#351 = LOCAL_TIME ( 20, 20, 22.00000000000000000, #363 ) ;
#352 = DATE_AND_TIME ( #331, #351 ) ;
#353 = FACE_OUTER_BOUND ( 'NONE', #1048, .T. ) ;
#354 = APPROVAL_DATE_TIME ( #352, #599 ) ;
#355 = CYLINDRICAL_SURFACE ( 'NONE', #587, 2.099999999999997900 ) ;
#356 = FACE_OUTER_BOUND ( 'NONE', #1046, .T. ) ;
#357 = FACE_OUTER_BOUND ( 'NONE', #1040, .T. ) ;
#358 = FACE_OUTER_BOUND ( 'NONE', #863, .T. ) ;
#359 = CYLINDRICAL_SURFACE ( 'NONE', #569, 2.099999999999997900 ) ;
#360 = FACE_OUTER_BOUND ( 'NONE', #1038, .T. ) ;
#361 = CYLINDRICAL_SURFACE ( 'NONE', #589, 2.999999999999999100 ) ;
#362 = FACE_OUTER_BOUND ( 'NONE', #1030, .T. ) ;
#363 = COORDINATED_UNIVERSAL_TIME_OFFSET ( 1, 0, .AHEAD. ) ;
#364 = PERSON_AND_ORGANIZATION ( #858, #341 ) ;
#365 = FACE_OUTER_BOUND ( 'NONE', #1031, .T. ) ;
#366 = FACE_OUTER_BOUND ( 'NONE', #1032, .T. ) ;
#367 = COORDINATED_UNIVERSAL_TIME_OFFSET ( 1, 0, .AHEAD. ) ;
#368 = DATE_AND_TIME ( #370, #369 ) ;
#369 = LOCAL_TIME ( 20, 20, 22.00000000000000000, #367 ) ;
#370 = CALENDAR_DATE ( 2017, 17, 2 ) ;
#371 = CARTESIAN_POINT ( 'NONE',  ( 0.0000000000000000000, 0.0000000000000000000, 0.0000000000000000000 ) ) ;
#372 = CARTESIAN_POINT ( 'NONE',  ( 0.0000000000000000000, -4.500000000000001800, 5.000000000000000000 ) ) ;
#373 = DIRECTION ( 'NONE',  ( 0.0000000000000000000, 0.0000000000000000000, -1.000000000000000000 ) ) ;
#374 = DIRECTION ( 'NONE',  ( -0.0000000000000000000, 1.000000000000000000, 4.440892098500626200E-016 ) ) ;
#375 = DIRECTION ( 'NONE',  ( -0.0000000000000000000, -2.220446049250312600E-016, 1.000000000000000000 ) ) ;
#376 = DIRECTION ( 'NONE',  ( -0.0000000000000000000, 1.000000000000000000, 4.440892098500626200E-016 ) ) ;
#377 = CARTESIAN_POINT ( 'NONE',  ( 2.899999999999999900, 0.0000000000000000000, 21.00000000000000000 ) ) ;
#378 = DIRECTION ( 'NONE',  ( 0.0000000000000000000, -1.000000000000000000, 0.0000000000000000000 ) ) ;
#379 = PLANE ( 'NONE',  #1089 ) ;
#380 = CARTESIAN_POINT ( 'NONE',  ( 2.899999999999999900, -4.500000000000003600, 17.99999999999999600 ) ) ;
#381 = DIRECTION ( 'NONE',  ( 0.0000000000000000000, 0.0000000000000000000, 1.000000000000000000 ) ) ;
#382 = DIRECTION ( 'NONE',  ( 0.0000000000000000000, -0.0000000000000000000, -1.000000000000000000 ) ) ;
#383 = PLANE ( 'NONE',  #574 ) ;
#384 = DIRECTION ( 'NONE',  ( -0.7071067811865490200, 0.7071067811865461300, 0.0000000000000000000 ) ) ;
#385 = CARTESIAN_POINT ( 'NONE',  ( -2.899999999999999900, 0.0000000000000000000, 21.00000000000000000 ) ) ;
#386 = DIRECTION ( 'NONE',  ( -0.0000000000000000000, -1.000000000000000000, -0.0000000000000000000 ) ) ;
#387 = PLANE ( 'NONE',  #1106 ) ;
#388 = CARTESIAN_POINT ( 'NONE',  ( -5.500000000000000000, -2.499999999999999100, 21.00000000000000000 ) ) ;
#389 = CARTESIAN_POINT ( 'NONE',  ( 3.500000000000007500, -4.500000000000000000, 21.00000000000000000 ) ) ;
#390 = DIRECTION ( 'NONE',  ( -0.0000000000000000000, 0.0000000000000000000, 1.000000000000000000 ) ) ;
#391 = DIRECTION ( 'NONE',  ( 0.0000000000000000000, 0.0000000000000000000, -1.000000000000000000 ) ) ;
#392 = CARTESIAN_POINT ( 'NONE',  ( 0.0000000000000000000, -4.500000000000001800, 5.000000000000000000 ) ) ;
#393 = DIRECTION ( 'NONE',  ( -0.0000000000000000000, -1.000000000000000000, -0.0000000000000000000 ) ) ;
#394 = DIRECTION ( 'NONE',  ( 0.0000000000000000000, 0.0000000000000000000, 1.000000000000000000 ) ) ;
#395 = DIRECTION ( 'NONE',  ( 1.000000000000000000, 0.0000000000000000000, 0.0000000000000000000 ) ) ;
#396 = DIRECTION ( 'NONE',  ( -0.0000000000000000000, -2.220446049250312600E-016, 1.000000000000000000 ) ) ;
#397 = CARTESIAN_POINT ( 'NONE',  ( 0.0000000000000000000, 4.499999999999995600, 16.49999999999999600 ) ) ;
#398 = DIRECTION ( 'NONE',  ( -0.7071067811865460200, 0.7071067811865489100, 0.0000000000000000000 ) ) ;
#399 = DIRECTION ( 'NONE',  ( 0.0000000000000000000, 1.000000000000000000, -0.0000000000000000000 ) ) ;
#400 = DIRECTION ( 'NONE',  ( 0.0000000000000000000, -1.000000000000000000, 0.0000000000000000000 ) ) ;
#401 = DIRECTION ( 'NONE',  ( 0.0000000000000000000, 0.0000000000000000000, -1.000000000000000000 ) ) ;
#402 = DIRECTION ( 'NONE',  ( -1.000000000000000000, 0.0000000000000000000, 0.0000000000000000000 ) ) ;
#403 = CARTESIAN_POINT ( 'NONE',  ( 5.500000000000000000, -2.499999999999999100, 21.00000000000000000 ) ) ;
#404 = PLANE ( 'NONE',  #561 ) ;
#405 = DIRECTION ( 'NONE',  ( -0.0000000000000000000, -1.000000000000000000, -0.0000000000000000000 ) ) ;
#406 = DIRECTION ( 'NONE',  ( 0.0000000000000000000, -0.7071067811865496800, -0.7071067811865453500 ) ) ;
#407 = PLANE ( 'NONE',  #1088 ) ;
#408 = DIRECTION ( 'NONE',  ( -0.0000000000000000000, -1.000000000000000000, -0.0000000000000000000 ) ) ;
#409 = CARTESIAN_POINT ( 'NONE',  ( 0.0000000000000000000, 11.49999999999999600, 21.00000000000000400 ) ) ;
#410 = CARTESIAN_POINT ( 'NONE',  ( 3.500000000000007500, -4.500000000000003600, 20.99999999999999300 ) ) ;
#411 = DIRECTION ( 'NONE',  ( -0.7071067811865460200, -0.7071067811865489100, 0.0000000000000000000 ) ) ;
#412 = PLANE ( 'NONE',  #1090 ) ;
#413 = CARTESIAN_POINT ( 'NONE',  ( 0.0000000000000000000, -4.500000000000000000, 5.000000000000000000 ) ) ;
#414 = DIRECTION ( 'NONE',  ( 0.7071067811865490200, 0.7071067811865461300, -0.0000000000000000000 ) ) ;
#415 = CARTESIAN_POINT ( 'NONE',  ( 0.0000000000000000000, -4.500000000000000000, 2.900000000000001700 ) ) ;
#416 = CARTESIAN_POINT ( 'NONE',  ( 3.500000000000007500, -4.500000000000000000, 1.000000000000000900 ) ) ;
#417 = PLANE ( 'NONE',  #559 ) ;
#418 = CARTESIAN_POINT ( 'NONE',  ( 0.0000000000000000000, -4.500000000000000000, 5.000000000000000000 ) ) ;
#419 = CARTESIAN_POINT ( 'NONE',  ( 2.899999999999999900, -4.500000000000003600, 17.99999999999999600 ) ) ;
#420 = DIRECTION ( 'NONE',  ( -6.672013369141568200E-016, 4.440892098500625700E-016, -1.000000000000000000 ) ) ;
#421 = DIRECTION ( 'NONE',  ( -1.000000000000000000, 0.0000000000000000000, 0.0000000000000000000 ) ) ;
#422 = DIRECTION ( 'NONE',  ( -1.000000000000000000, 0.0000000000000000000, 6.672013369141568200E-016 ) ) ;
#423 = PLANE ( 'NONE',  #560 ) ;
#424 = DIRECTION ( 'NONE',  ( -0.0000000000000000000, -2.220446049250312600E-016, 1.000000000000000000 ) ) ;
#425 = PLANE ( 'NONE',  #557 ) ;
#426 = DIRECTION ( 'NONE',  ( 0.0000000000000000000, 0.0000000000000000000, -1.000000000000000000 ) ) ;
#427 = CARTESIAN_POINT ( 'NONE',  ( 0.0000000000000000000, 11.49999999999999600, 21.00000000000000400 ) ) ;
#428 = PLANE ( 'NONE',  #566 ) ;
#429 = DIRECTION ( 'NONE',  ( 0.0000000000000000000, -1.000000000000000000, 0.0000000000000000000 ) ) ;
#430 = CARTESIAN_POINT ( 'NONE',  ( -2.899999999999999900, 0.0000000000000000000, 21.00000000000000000 ) ) ;
#431 = DIRECTION ( 'NONE',  ( 1.000000000000000000, 0.0000000000000000000, -0.0000000000000000000 ) ) ;
#432 = DIRECTION ( 'NONE',  ( -0.0000000000000000000, 0.7071067811865464600, 0.7071067811865486800 ) ) ;
#433 = PLANE ( 'NONE',  #565 ) ;
#434 = DIRECTION ( 'NONE',  ( 1.000000000000000000, 6.672013369141568200E-016, 0.0000000000000000000 ) ) ;
#435 = PLANE ( 'NONE',  #558 ) ;
#436 = DIRECTION ( 'NONE',  ( -0.0000000000000000000, 0.0000000000000000000, -1.000000000000000000 ) ) ;
#437 = DIRECTION ( 'NONE',  ( 6.672013369141568200E-016, -1.000000000000000000, 0.0000000000000000000 ) ) ;
#438 = DIRECTION ( 'NONE',  ( -0.0000000000000000000, -1.000000000000000000, -0.0000000000000000000 ) ) ;
#439 = DIRECTION ( 'NONE',  ( 0.0000000000000000000, 0.0000000000000000000, -1.000000000000000000 ) ) ;
#440 = CARTESIAN_POINT ( 'NONE',  ( 0.0000000000000000000, 4.499999999999995600, 16.49999999999999600 ) ) ;
#441 = DIRECTION ( 'NONE',  ( 0.0000000000000000000, 1.000000000000000000, 4.440892098500625200E-016 ) ) ;
#442 = DIRECTION ( 'NONE',  ( 0.0000000000000000000, 1.000000000000000000, 4.440892098500625200E-016 ) ) ;
#443 = DIRECTION ( 'NONE',  ( 1.000000000000000000, 0.0000000000000000000, 0.0000000000000000000 ) ) ;
#444 = CARTESIAN_POINT ( 'NONE',  ( 0.0000000000000000000, 0.0000000000000000000, 12.00000000000000200 ) ) ;
#445 = CARTESIAN_POINT ( 'NONE',  ( 0.0000000000000000000, 0.0000000000000000000, 12.00000000000000200 ) ) ;
#446 = PLANE ( 'NONE',  #563 ) ;
#447 = DIRECTION ( 'NONE',  ( 0.0000000000000000000, 0.0000000000000000000, -1.000000000000000000 ) ) ;
#448 = DIRECTION ( 'NONE',  ( -1.000000000000000000, 0.0000000000000000000, -0.0000000000000000000 ) ) ;
#449 = CARTESIAN_POINT ( 'NONE',  ( 2.899999999999999900, -1.500000000000001300, 21.00000000000000000 ) ) ;
#450 = DIRECTION ( 'NONE',  ( 1.000000000000000000, 0.0000000000000000000, 0.0000000000000000000 ) ) ;
#451 = DIRECTION ( 'NONE',  ( -1.000000000000000000, 0.0000000000000000000, 0.0000000000000000000 ) ) ;
#452 = PLANE ( 'NONE',  #598 ) ;
#453 = CARTESIAN_POINT ( 'NONE',  ( 0.0000000000000000000, 16.49999999999999600, 20.00000000000000000 ) ) ;
#454 = DIRECTION ( 'NONE',  ( 0.0000000000000000000, 0.0000000000000000000, 1.000000000000000000 ) ) ;
#455 = PLANE ( 'NONE',  #572 ) ;
#456 = DIRECTION ( 'NONE',  ( -1.000000000000000000, 0.0000000000000000000, 0.0000000000000000000 ) ) ;
#457 = DIRECTION ( 'NONE',  ( 0.0000000000000000000, -1.000000000000000000, -4.440892098500625200E-016 ) ) ;
#458 = PLANE ( 'NONE',  #578 ) ;
#459 = CARTESIAN_POINT ( 'NONE',  ( 0.0000000000000000000, 11.49999999999999600, 21.00000000000000000 ) ) ;
#460 = CARTESIAN_POINT ( 'NONE',  ( -5.500000000000000000, -4.500000000000003600, 17.99999999999999300 ) ) ;
#461 = DIRECTION ( 'NONE',  ( 1.000000000000000000, 0.0000000000000000000, 0.0000000000000000000 ) ) ;
#462 = DIRECTION ( 'NONE',  ( 0.0000000000000000000, 0.0000000000000000000, 1.000000000000000000 ) ) ;
#463 = DIRECTION ( 'NONE',  ( -1.000000000000000000, 0.0000000000000000000, 0.0000000000000000000 ) ) ;
#464 = CARTESIAN_POINT ( 'NONE',  ( -5.500000000000000000, -1.499999999999999600, 21.00000000000000000 ) ) ;
#465 = DIRECTION ( 'NONE',  ( -0.0000000000000000000, 0.0000000000000000000, -1.000000000000000000 ) ) ;
#466 = DIRECTION ( 'NONE',  ( 0.0000000000000000000, 0.0000000000000000000, -1.000000000000000000 ) ) ;
#467 = PLANE ( 'NONE',  #602 ) ;
#468 = DIRECTION ( 'NONE',  ( 0.0000000000000000000, -1.000000000000000000, 0.0000000000000000000 ) ) ;
#469 = CARTESIAN_POINT ( 'NONE',  ( 0.0000000000000000000, 16.49999999999999600, 16.50000000000000400 ) ) ;
#470 = DIRECTION ( 'NONE',  ( 0.0000000000000000000, 0.7071067811865493500, 0.7071067811865456900 ) ) ;
#471 = DIRECTION ( 'NONE',  ( -1.000000000000000000, -0.0000000000000000000, 0.0000000000000000000 ) ) ;
#472 = CARTESIAN_POINT ( 'NONE',  ( 0.0000000000000000000, -1.500000000000000000, 18.00000000000000400 ) ) ;
#473 = PLANE ( 'NONE',  #601 ) ;
#474 = CARTESIAN_POINT ( 'NONE',  ( 0.0000000000000000000, 0.0000000000000000000, 21.00000000000000000 ) ) ;
#475 = DIRECTION ( 'NONE',  ( -0.0000000000000000000, 0.0000000000000000000, 1.000000000000000000 ) ) ;
#476 = DIRECTION ( 'NONE',  ( 1.000000000000000000, 0.0000000000000000000, -0.0000000000000000000 ) ) ;
#477 = DIRECTION ( 'NONE',  ( 1.000000000000000000, 0.0000000000000000000, 0.0000000000000000000 ) ) ;
#478 = PLANE ( 'NONE',  #570 ) ;
#479 = DIRECTION ( 'NONE',  ( -0.0000000000000000000, -2.220446049250312600E-016, 1.000000000000000000 ) ) ;
#480 = PLANE ( 'NONE',  #571 ) ;
#481 = CARTESIAN_POINT ( 'NONE',  ( 5.500000000000000000, -4.500000000000003600, 17.99999999999999300 ) ) ;
#482 = DIRECTION ( 'NONE',  ( 0.0000000000000000000, 4.440892098500626200E-016, -1.000000000000000000 ) ) ;
#483 = DIRECTION ( 'NONE',  ( -0.0000000000000000000, 1.000000000000000000, 4.440892098500626200E-016 ) ) ;
#484 = CARTESIAN_POINT ( 'NONE',  ( -0.0000000000000000000, -3.499999999999995600, 0.0000000000000000000 ) ) ;
#485 = DIRECTION ( 'NONE',  ( 0.0000000000000000000, 0.0000000000000000000, 1.000000000000000000 ) ) ;
#486 = CARTESIAN_POINT ( 'NONE',  ( 0.0000000000000000000, 11.49999999999999800, 16.50000000000000000 ) ) ;
#487 = CARTESIAN_POINT ( 'NONE',  ( 2.899999999999999900, -1.500000000000001300, 12.00000000000000200 ) ) ;
#488 = CARTESIAN_POINT ( 'NONE',  ( -5.500000000000000000, -1.499999999999999600, 0.0000000000000000000 ) ) ;
#489 = DIRECTION ( 'NONE',  ( 1.000000000000000000, 0.0000000000000000000, 0.0000000000000000000 ) ) ;
#490 = CARTESIAN_POINT ( 'NONE',  ( 0.0000000000000000000, -4.500000000000001800, 5.000000000000000000 ) ) ;
#491 = DIRECTION ( 'NONE',  ( 0.0000000000000000000, -1.000000000000000000, 0.0000000000000000000 ) ) ;
#492 = DIRECTION ( 'NONE',  ( -0.0000000000000000000, -2.220446049250312600E-016, 1.000000000000000000 ) ) ;
#493 = CARTESIAN_POINT ( 'NONE',  ( 2.899999999999999900, 4.499999999999995600, 16.49999999999999600 ) ) ;
#494 = DIRECTION ( 'NONE',  ( 1.000000000000000000, -0.0000000000000000000, -0.0000000000000000000 ) ) ;
#495 = DIRECTION ( 'NONE',  ( 0.0000000000000000000, 2.220446049250312600E-016, -1.000000000000000000 ) ) ;
#496 = DIRECTION ( 'NONE',  ( -0.0000000000000000000, -1.000000000000000000, -0.0000000000000000000 ) ) ;
#497 = CARTESIAN_POINT ( 'NONE',  ( 0.0000000000000000000, -4.074999999999997500, 5.000000000000000000 ) ) ;
#498 = CARTESIAN_POINT ( 'NONE',  ( -2.899999999999999900, -4.500000000000003600, 16.49999999999999300 ) ) ;
#499 = CARTESIAN_POINT ( 'NONE',  ( 2.899999999999999900, -1.500000000000000000, 18.00000000000000400 ) ) ;
#500 = DIRECTION ( 'NONE',  ( -0.0000000000000000000, -1.000000000000000000, -0.0000000000000000000 ) ) ;
#501 = DIRECTION ( 'NONE',  ( 0.0000000000000000000, 0.0000000000000000000, -1.000000000000000000 ) ) ;
#502 = DIRECTION ( 'NONE',  ( -0.0000000000000000000, -0.0000000000000000000, -1.000000000000000000 ) ) ;
#503 = CARTESIAN_POINT ( 'NONE',  ( -2.899999999999999900, 0.0000000000000000000, 12.00000000000000200 ) ) ;
#504 = CARTESIAN_POINT ( 'NONE',  ( 0.0000000000000000000, -4.074999999999997500, 5.000000000000000000 ) ) ;
#505 = DIRECTION ( 'NONE',  ( -1.000000000000000000, 0.0000000000000000000, 0.0000000000000000000 ) ) ;
#506 = DIRECTION ( 'NONE',  ( 1.000000000000000000, 6.672013369141568200E-016, 0.0000000000000000000 ) ) ;
#507 = CARTESIAN_POINT ( 'NONE',  ( -2.899999999999999900, -1.500000000000001300, 21.00000000000000000 ) ) ;
#508 = CARTESIAN_POINT ( 'NONE',  ( 0.0000000000000000000, 11.49999999999999600, 20.57499999999999900 ) ) ;
#509 = DIRECTION ( 'NONE',  ( 0.0000000000000000000, -1.000000000000000000, 0.0000000000000000000 ) ) ;
#510 = DIRECTION ( 'NONE',  ( 0.0000000000000000000, 0.0000000000000000000, -1.000000000000000000 ) ) ;
#511 = DIRECTION ( 'NONE',  ( -0.0000000000000000000, 1.000000000000000000, -0.0000000000000000000 ) ) ;
#512 = DIRECTION ( 'NONE',  ( 0.0000000000000000000, -1.000000000000000000, 0.0000000000000000000 ) ) ;
#513 = DIRECTION ( 'NONE',  ( -0.0000000000000000000, -1.000000000000000000, -0.0000000000000000000 ) ) ;
#514 = DIRECTION ( 'NONE',  ( 0.0000000000000000000, -2.220446049250312800E-016, 1.000000000000000000 ) ) ;
#515 = DIRECTION ( 'NONE',  ( -0.0000000000000000000, 1.000000000000000000, 4.440892098500626200E-016 ) ) ;
#516 = CARTESIAN_POINT ( 'NONE',  ( 3.500000000000007500, -4.500000000000000000, 1.000000000000000900 ) ) ;
#517 = DIRECTION ( 'NONE',  ( 0.0000000000000000000, 1.000000000000000000, 0.0000000000000000000 ) ) ;
#518 = CARTESIAN_POINT ( 'NONE',  ( 2.899999999999999900, -4.500000000000003600, 16.49999999999999300 ) ) ;
#519 = CARTESIAN_POINT ( 'NONE',  ( -2.899999999999999900, 4.499999999999995600, 16.49999999999999600 ) ) ;
#520 = CARTESIAN_POINT ( 'NONE',  ( -2.899999999999999900, 0.0000000000000000000, 0.0000000000000000000 ) ) ;
#521 = DIRECTION ( 'NONE',  ( 0.0000000000000000000, 0.0000000000000000000, -1.000000000000000000 ) ) ;
#522 = DIRECTION ( 'NONE',  ( 8.659560562354889700E-017, 0.7071067811865439100, 0.7071067811865512400 ) ) ;
#523 = DIRECTION ( 'NONE',  ( -0.7071067811865460200, -0.7071067811865489100, 0.0000000000000000000 ) ) ;
#524 = DIRECTION ( 'NONE',  ( -0.0000000000000000000, -0.0000000000000000000, -1.000000000000000000 ) ) ;
#525 = DIRECTION ( 'NONE',  ( 0.0000000000000000000, 0.0000000000000000000, -1.000000000000000000 ) ) ;
#526 = DIRECTION ( 'NONE',  ( 1.000000000000000000, 0.0000000000000000000, -0.0000000000000000000 ) ) ;
#527 = CARTESIAN_POINT ( 'NONE',  ( -1.166666666666677800, -6.833333333333339300, 3.333333333333333900 ) ) ;
#528 = CARTESIAN_POINT ( 'NONE',  ( 2.899999999999999900, 0.0000000000000000000, 0.0000000000000000000 ) ) ;
#529 = DIRECTION ( 'NONE',  ( -0.0000000000000000000, 1.000000000000000000, -0.0000000000000000000 ) ) ;
#530 = CARTESIAN_POINT ( 'NONE',  ( 5.500000000000000000, -2.499999999999999100, 12.00000000000000200 ) ) ;
#531 = CARTESIAN_POINT ( 'NONE',  ( 3.092233167847066000E-016, 14.02499999999999500, 21.00000000000000400 ) ) ;
#532 = DIRECTION ( 'NONE',  ( -1.000000000000000000, -0.0000000000000000000, 0.0000000000000000000 ) ) ;
#533 = DIRECTION ( 'NONE',  ( 0.0000000000000000000, 0.0000000000000000000, -1.000000000000000000 ) ) ;
#534 = CARTESIAN_POINT ( 'NONE',  ( -5.500000000000000000, -1.499999999999999600, 21.00000000000000000 ) ) ;
#535 = CARTESIAN_POINT ( 'NONE',  ( 0.0000000000000000000, 9.399999999999998600, 21.00000000000000000 ) ) ;
#536 = CARTESIAN_POINT ( 'NONE',  ( -5.500000000000000000, -2.499999999999999100, 12.00000000000000200 ) ) ;
#537 = DIRECTION ( 'NONE',  ( 0.5773502691896248400, -0.5773502691896270600, 0.5773502691896254000 ) ) ;
#538 = DIRECTION ( 'NONE',  ( -0.0000000000000000000, -0.0000000000000000000, -1.000000000000000000 ) ) ;
#539 = CARTESIAN_POINT ( 'NONE',  ( -2.899999999999999900, -1.500000000000000000, 18.00000000000000400 ) ) ;
#540 = CARTESIAN_POINT ( 'NONE',  ( -2.899999999999999900, 2.999999999999998200, 16.49999999999999600 ) ) ;
#541 = DIRECTION ( 'NONE',  ( -0.7071067811865460200, 0.7071067811865489100, 0.0000000000000000000 ) ) ;
#542 = DIRECTION ( 'NONE',  ( -1.000000000000000000, -0.0000000000000000000, -0.0000000000000000000 ) ) ;
#543 = CARTESIAN_POINT ( 'NONE',  ( -2.899999999999999900, 2.999999999999999600, 13.49999999999999800 ) ) ;
#544 = CARTESIAN_POINT ( 'NONE',  ( 2.899999999999999900, -4.500000000000000000, 21.00000000000000000 ) ) ;
#545 = CARTESIAN_POINT ( 'NONE',  ( 5.500000000000000000, -1.499999999999999600, 12.00000000000000200 ) ) ;
#546 = DIRECTION ( 'NONE',  ( -0.0000000000000000000, -0.0000000000000000000, -1.000000000000000000 ) ) ;
#547 = CARTESIAN_POINT ( 'NONE',  ( -2.899999999999999900, 0.0000000000000000000, 13.49999999999999800 ) ) ;
#548 = DIRECTION ( 'NONE',  ( 0.0000000000000000000, 0.0000000000000000000, 1.000000000000000000 ) ) ;
#549 = DIRECTION ( 'NONE',  ( -1.000000000000000000, 0.0000000000000000000, 0.0000000000000000000 ) ) ;
#550 = CARTESIAN_POINT ( 'NONE',  ( 5.500000000000000000, -1.499999999999999600, 21.00000000000000000 ) ) ;
#551 = CARTESIAN_POINT ( 'NONE',  ( 2.899999999999999900, 0.0000000000000000000, 21.00000000000000000 ) ) ;
#552 = CARTESIAN_POINT ( 'NONE',  ( -3.500000000000007500, 15.50000000000000200, 21.00000000000000000 ) ) ;
#553 = DIRECTION ( 'NONE',  ( -0.0000000000000000000, -0.0000000000000000000, -1.000000000000000000 ) ) ;
#554 = CARTESIAN_POINT ( 'NONE',  ( 0.0000000000000000000, -4.500000000000001800, 2.475000000000000500 ) ) ;
#555 = DIRECTION ( 'NONE',  ( 0.0000000000000000000, -1.000000000000000000, 0.0000000000000000000 ) ) ;
#556 = DIRECTION ( 'NONE',  ( 1.000000000000000000, 0.0000000000000000000, 0.0000000000000000000 ) ) ;
#557 = AXIS2_PLACEMENT_3D ( 'NONE', #449, #437, #434 ) ;
#558 = AXIS2_PLACEMENT_3D ( 'NONE', #430, #431, #436 ) ;
#559 = AXIS2_PLACEMENT_3D ( 'NONE', #416, #432, #443 ) ;
#560 = AXIS2_PLACEMENT_3D ( 'NONE', #444, #426, #421 ) ;
#561 = AXIS2_PLACEMENT_3D ( 'NONE', #389, #399, #394 ) ;
#562 = AXIS2_PLACEMENT_3D ( 'NONE', #413, #386, #391 ) ;
#563 = AXIS2_PLACEMENT_3D ( 'NONE', #445, #439, #448 ) ;
#564 = AXIS2_PLACEMENT_3D ( 'NONE', #427, #424, #429 ) ;
#565 = AXIS2_PLACEMENT_3D ( 'NONE', #440, #442, #463 ) ;
#566 = AXIS2_PLACEMENT_3D ( 'NONE', #419, #420, #422 ) ;
#567 = AXIS2_PLACEMENT_3D ( 'NONE', #392, #393, #401 ) ;
#568 = AXIS2_PLACEMENT_3D ( 'NONE', #418, #438, #447 ) ;
#569 = AXIS2_PLACEMENT_3D ( 'NONE', #459, #479, #468 ) ;
#570 = AXIS2_PLACEMENT_3D ( 'NONE', #481, #461, #466 ) ;
#571 = AXIS2_PLACEMENT_3D ( 'NONE', #469, #457, #450 ) ;
#572 = AXIS2_PLACEMENT_3D ( 'NONE', #453, #470, #456 ) ;
#573 = AXIS2_PLACEMENT_3D ( 'NONE', #409, #396, #378 ) ;
#574 = AXIS2_PLACEMENT_3D ( 'NONE', #403, #384, #411 ) ;
#575 = AXIS2_PLACEMENT_3D ( 'NONE', #841, #838, #845 ) ;
#576 = APPROVAL ( #811, 'UNSPECIFIED' ) ;
#577 = AXIS2_PLACEMENT_3D ( 'NONE', #837, #821, #840 ) ;
#578 = AXIS2_PLACEMENT_3D ( 'NONE', #460, #471, #462 ) ;
#579 = AXIS2_PLACEMENT_3D ( 'NONE', #834, #855, #856 ) ;
#580 = AXIS2_PLACEMENT_3D ( 'NONE', #822, #843, #830 ) ;
#581 = CC_DESIGN_PERSON_AND_ORGANIZATION_ASSIGNMENT ( #7, #814, ( #590 ) ) ;
#582 =( GEOMETRIC_REPRESENTATION_CONTEXT ( 3 ) GLOBAL_UNCERTAINTY_ASSIGNED_CONTEXT ( ( #860 ) ) GLOBAL_UNIT_ASSIGNED_CONTEXT ( ( #849, #850, #848 ) ) REPRESENTATION_CONTEXT ( 'NONE', 'WORKASPACE' ) );
#583 = CC_DESIGN_APPROVAL ( #599, ( #606 ) ) ;
#584 = CC_DESIGN_PERSON_AND_ORGANIZATION_ASSIGNMENT ( #12, #815, ( #590 ) ) ;
#585 = SECURITY_CLASSIFICATION ( '', '', #803 ) ;
#586 = CC_DESIGN_PERSON_AND_ORGANIZATION_ASSIGNMENT ( #2, #807, ( #585 ) ) ;
#587 = AXIS2_PLACEMENT_3D ( 'NONE', #844, #818, #820 ) ;
#588 = CC_DESIGN_DATE_AND_TIME_ASSIGNMENT ( #368, #806, ( #606 ) ) ;
#589 = AXIS2_PLACEMENT_3D ( 'NONE', #829, #835, #831 ) ;
#590 = PRODUCT_DEFINITION_FORMATION_WITH_SPECIFIED_SOURCE ( 'ANY', '', #857, .NOT_KNOWN. ) ;
#591 = CC_DESIGN_DATE_AND_TIME_ASSIGNMENT ( #17, #808, ( #585 ) ) ;
#592 = APPROVAL ( #813, 'UNSPECIFIED' ) ;
#593 = CC_DESIGN_PERSON_AND_ORGANIZATION_ASSIGNMENT ( #364, #802, ( #606 ) ) ;
#594 = AXIS2_PLACEMENT_3D ( 'NONE', #846, #847, #853 ) ;
#595 = CC_DESIGN_APPROVAL ( #576, ( #590 ) ) ;
#596 = CC_DESIGN_PERSON_AND_ORGANIZATION_ASSIGNMENT ( #344, #809, ( #857 ) ) ;
#597 = AXIS2_PLACEMENT_3D ( 'NONE', #839, #842, #817 ) ;
#598 = AXIS2_PLACEMENT_3D ( 'NONE', #397, #441, #824 ) ;
#599 = APPROVAL ( #804, 'UNSPECIFIED' ) ;
#600 = CC_DESIGN_APPROVAL ( #592, ( #585 ) ) ;
#601 = AXIS2_PLACEMENT_3D ( 'NONE', #464, #476, #465 ) ;
#602 = AXIS2_PLACEMENT_3D ( 'NONE', #474, #475, #477 ) ;
#603 = AXIS2_PLACEMENT_3D ( 'NONE', #472, #451, #454 ) ;
#604 = AXIS2_PLACEMENT_3D ( 'NONE', #833, #827, #825 ) ;
#605 = CC_DESIGN_SECURITY_CLASSIFICATION ( #585, ( #590 ) ) ;
#606 = PRODUCT_DEFINITION ( 'UNKNOWN', '', #590, #1215 ) ;
#607 = PRODUCT_RELATED_PRODUCT_CATEGORY ( 'detail', '', ( #857 ) ) ;
#608 = DIRECTION ( 'NONE',  ( 1.000000000000000000, 0.0000000000000000000, 0.0000000000000000000 ) ) ;
#609 = CARTESIAN_POINT ( 'NONE',  ( -3.500000000000007500, -4.500000000000000000, 21.00000000000000000 ) ) ;
#610 = CARTESIAN_POINT ( 'NONE',  ( -3.500000000000007100, 15.50000000000000000, 21.00000000000000400 ) ) ;
#611 = CARTESIAN_POINT ( 'NONE',  ( 4.500000000000007100, -3.499999999999995100, 0.0000000000000000000 ) ) ;
#612 = CARTESIAN_POINT ( 'NONE',  ( -5.500000000000000000, -1.499999999999999600, 12.00000000000000200 ) ) ;
#613 = CARTESIAN_POINT ( 'NONE',  ( 5.500000000000000000, -1.499999999999999600, 12.00000000000000200 ) ) ;
#614 = CARTESIAN_POINT ( 'NONE',  ( -2.899999999999999900, 4.499999999999995600, 17.99999999999999600 ) ) ;
#615 = CARTESIAN_POINT ( 'NONE',  ( -3.500000000000008400, -4.499999999999999100, 0.9999999999999988900 ) ) ;
#616 = CARTESIAN_POINT ( 'NONE',  ( -4.500000000000007100, -3.499999999999995600, 0.0000000000000000000 ) ) ;
#617 = CARTESIAN_POINT ( 'NONE',  ( 2.899999999999999900, 16.49999999999999600, 18.00000000000000700 ) ) ;
#618 = CARTESIAN_POINT ( 'NONE',  ( 0.0000000000000000000, 8.673617379884035500E-016, 2.900000000000002100 ) ) ;
#619 = CARTESIAN_POINT ( 'NONE',  ( 2.899999999999999900, 4.499999999999994700, 20.99999999999999600 ) ) ;
#620 = CARTESIAN_POINT ( 'NONE',  ( 0.0000000000000000000, -4.500000000000001800, 2.475000000000000500 ) ) ;
#621 = CARTESIAN_POINT ( 'NONE',  ( 2.899999999999999900, -1.500000000000000000, 21.00000000000000000 ) ) ;
#622 = CARTESIAN_POINT ( 'NONE',  ( -2.899999999999999900, -4.500000000000000000, 12.00000000000000200 ) ) ;
#623 = CARTESIAN_POINT ( 'NONE',  ( -2.899999999999999900, 2.999999999999996400, 16.49999999999999600 ) ) ;
#624 = CARTESIAN_POINT ( 'NONE',  ( -2.899999999999999900, -1.500000000000001300, 0.0000000000000000000 ) ) ;
#625 = CARTESIAN_POINT ( 'NONE',  ( 2.571758278209440000E-016, -4.074999999999997500, 7.099999999999998800 ) ) ;
#626 = CARTESIAN_POINT ( 'NONE',  ( -5.500000000000000000, 16.49999999999999600, 18.00000000000000400 ) ) ;
#627 = CARTESIAN_POINT ( 'NONE',  ( 0.0000000000000000000, -4.074999999999997500, 2.900000000000001700 ) ) ;
#628 = CARTESIAN_POINT ( 'NONE',  ( -2.899999999999999900, -1.500000000000000000, 21.00000000000000000 ) ) ;
#629 = CARTESIAN_POINT ( 'NONE',  ( -2.899999999999999900, 0.0000000000000000000, 0.0000000000000000000 ) ) ;
#630 = CARTESIAN_POINT ( 'NONE',  ( 3.500000000000007500, 4.499999999999992900, 20.99999999999999600 ) ) ;
#631 = CARTESIAN_POINT ( 'NONE',  ( 5.500000000000000000, -1.499999999999999600, 0.0000000000000000000 ) ) ;
#632 = CARTESIAN_POINT ( 'NONE',  ( -5.500000000000000000, 16.49999999999999600, 19.00000000000000400 ) ) ;
#633 = CARTESIAN_POINT ( 'NONE',  ( 0.0000000000000000000, 9.399999999999998600, 20.57499999999999900 ) ) ;
#634 = CARTESIAN_POINT ( 'NONE',  ( 2.899999999999999900, 16.49999999999999600, 16.50000000000000400 ) ) ;
#635 = CARTESIAN_POINT ( 'NONE',  ( 2.899999999999999900, -1.500000000000001300, 0.0000000000000000000 ) ) ;
#636 = CARTESIAN_POINT ( 'NONE',  ( -5.500000000000000000, 4.499999999999992000, 17.99999999999999600 ) ) ;
#637 = CARTESIAN_POINT ( 'NONE',  ( 5.500000000000000000, 4.499999999999995600, 17.99999999999999300 ) ) ;
#638 = CARTESIAN_POINT ( 'NONE',  ( 5.500000000000000000, -2.499999999999999100, 0.0000000000000000000 ) ) ;
#639 = CARTESIAN_POINT ( 'NONE',  ( -5.500000000000000000, -2.499999999999999600, 12.00000000000000200 ) ) ;
#640 = CARTESIAN_POINT ( 'NONE',  ( -3.500000000000007500, 4.499999999999992900, 20.99999999999999600 ) ) ;
#641 = CARTESIAN_POINT ( 'NONE',  ( 2.899999999999999900, -1.500000000000000000, 12.00000000000000200 ) ) ;
#642 = CARTESIAN_POINT ( 'NONE',  ( 0.0000000000000000000, 9.400000000000000400, 16.50000000000000000 ) ) ;
#643 = CARTESIAN_POINT ( 'NONE',  ( 3.500000000000007500, 15.49999999999999300, 21.00000000000000400 ) ) ;
#644 = CARTESIAN_POINT ( 'NONE',  ( 2.899999999999999900, 4.499999999999995600, 17.99999999999999600 ) ) ;
#645 = CARTESIAN_POINT ( 'NONE',  ( 3.500000000000008400, -4.499999999999999100, 0.9999999999999986700 ) ) ;
#646 = CARTESIAN_POINT ( 'NONE',  ( 5.500000000000000000, 16.49999999999999600, 18.00000000000000400 ) ) ;
#647 = CARTESIAN_POINT ( 'NONE',  ( -5.500000000000000000, 4.499999999999994700, 19.00000000000000400 ) ) ;
#648 = CARTESIAN_POINT ( 'NONE',  ( 2.899999999999999900, -4.500000000000000000, 18.00000000000000400 ) ) ;
#649 = CARTESIAN_POINT ( 'NONE',  ( -2.899999999999999900, 16.49999999999999600, 18.00000000000000700 ) ) ;
#650 = CARTESIAN_POINT ( 'NONE',  ( 0.0000000000000000000, 8.974999999999996100, 21.00000000000000400 ) ) ;
#651 = CARTESIAN_POINT ( 'NONE',  ( 2.899999999999999900, 2.999999999999996400, 16.49999999999999600 ) ) ;
#652 = CARTESIAN_POINT ( 'NONE',  ( -2.899999999999999900, 0.0000000000000000000, 13.50000000000000000 ) ) ;
#653 = CARTESIAN_POINT ( 'NONE',  ( -2.899999999999999900, -1.500000000000000400, 12.00000000000000200 ) ) ;
#654 = CARTESIAN_POINT ( 'NONE',  ( -2.899999999999999900, 16.49999999999999600, 16.50000000000000400 ) ) ;
#655 = CARTESIAN_POINT ( 'NONE',  ( -4.500000000000003600, 16.49999999999999300, 20.00000000000000400 ) ) ;
#656 = CARTESIAN_POINT ( 'NONE',  ( 5.500000000000000000, -2.499999999999999600, 12.00000000000000200 ) ) ;
#657 = CARTESIAN_POINT ( 'NONE',  ( 2.899999999999999900, 0.0000000000000000000, 0.0000000000000000000 ) ) ;
#658 = CARTESIAN_POINT ( 'NONE',  ( 2.899999999999999900, -4.499999999999998200, 12.00000000000000200 ) ) ;
#659 = CARTESIAN_POINT ( 'NONE',  ( -3.500000000000007500, -4.500000000000000000, 12.00000000000000200 ) ) ;
#660 = CARTESIAN_POINT ( 'NONE',  ( 2.571758278209440000E-016, 13.59999999999999400, 20.57499999999999900 ) ) ;
#661 = CARTESIAN_POINT ( 'NONE',  ( 5.500000000000000000, 4.499999999999990200, 18.99999999999999600 ) ) ;
#662 = CARTESIAN_POINT ( 'NONE',  ( 3.092233167847066500E-016, 14.02499999999999500, 21.00000000000000400 ) ) ;
#663 = CARTESIAN_POINT ( 'NONE',  ( -5.500000000000000000, -1.499999999999999600, 0.0000000000000000000 ) ) ;
#664 = CARTESIAN_POINT ( 'NONE',  ( -5.500000000000000000, -2.499999999999999100, 0.0000000000000000000 ) ) ;
#665 = CARTESIAN_POINT ( 'NONE',  ( 5.500000000000000000, 4.499999999999995600, 17.99999999999999600 ) ) ;
#666 = CARTESIAN_POINT ( 'NONE',  ( 3.092233167847066000E-016, -4.500000000000001800, 7.524999999999999500 ) ) ;
#667 = CARTESIAN_POINT ( 'NONE',  ( 3.500000000000008000, -4.499999999999999100, 12.00000000000000200 ) ) ;
#668 = DIRECTION ( 'NONE',  ( 0.7071067811865460200, 1.570092458683777900E-016, -0.7071067811865489100 ) ) ;
#669 = DIRECTION ( 'NONE',  ( 1.000000000000000000, -2.962969145211132300E-031, 6.672013369141568200E-016 ) ) ;
#670 = CARTESIAN_POINT ( 'NONE',  ( 4.500000000000003600, 16.49999999999999300, 20.00000000000000400 ) ) ;
#671 = DIRECTION ( 'NONE',  ( -1.000000000000000000, 0.0000000000000000000, 0.0000000000000000000 ) ) ;
#672 = DIRECTION ( 'NONE',  ( 0.0000000000000000000, -1.000000000000000000, 0.0000000000000000000 ) ) ;
#673 = DIRECTION ( 'NONE',  ( -0.0000000000000000000, 1.000000000000000000, 4.440892098500626200E-016 ) ) ;
#674 = CARTESIAN_POINT ( 'NONE',  ( -2.899999999999999900, 4.499999999999995600, 18.00000000000000000 ) ) ;
#675 = CARTESIAN_POINT ( 'NONE',  ( -5.500000000000000000, -4.500000000000003600, 18.99999999999999300 ) ) ;
#676 = CARTESIAN_POINT ( 'NONE',  ( 2.899999999999999900, 0.0000000000000000000, 13.50000000000000000 ) ) ;
#677 = CARTESIAN_POINT ( 'NONE',  ( 0.0000000000000000000, 11.49999999999999600, 20.57499999999999900 ) ) ;
#678 = DIRECTION ( 'NONE',  ( 0.0000000000000000000, 4.440892098500625700E-016, -1.000000000000000000 ) ) ;
#679 = CARTESIAN_POINT ( 'NONE',  ( -2.899999999999999900, 16.49999999999999600, 16.50000000000000400 ) ) ;
#680 = DIRECTION ( 'NONE',  ( -1.000000000000000000, -0.0000000000000000000, -0.0000000000000000000 ) ) ;
#681 = DIRECTION ( 'NONE',  ( -0.7071067811865460200, 3.140184917367555800E-016, -0.7071067811865489100 ) ) ;
#682 = DIRECTION ( 'NONE',  ( 0.0000000000000000000, -2.220446049250312600E-016, 1.000000000000000000 ) ) ;
#683 = DIRECTION ( 'NONE',  ( 0.0000000000000000000, 2.220446049250312600E-016, -1.000000000000000000 ) ) ;
#684 = DIRECTION ( 'NONE',  ( 1.000000000000000000, 2.962969145211132300E-031, -6.672013369141568200E-016 ) ) ;
#685 = DIRECTION ( 'NONE',  ( -0.0000000000000000000, 1.000000000000000000, 4.440892098500626200E-016 ) ) ;
#686 = CARTESIAN_POINT ( 'NONE',  ( -5.500000000000000000, 4.499999999999993800, 18.99999999999999600 ) ) ;
#687 = CARTESIAN_POINT ( 'NONE',  ( 5.500000000000000000, 16.49999999999999600, 19.00000000000000400 ) ) ;
#688 = CARTESIAN_POINT ( 'NONE',  ( -2.899999999999999900, 4.499999999999994700, 21.00000000000000000 ) ) ;
#689 = CARTESIAN_POINT ( 'NONE',  ( 2.571758278209439500E-016, 8.673617379884035500E-016, 7.099999999999998800 ) ) ;
#690 = DIRECTION ( 'NONE',  ( -0.0000000000000000000, -2.220446049250312600E-016, 1.000000000000000000 ) ) ;
#691 = CARTESIAN_POINT ( 'NONE',  ( 2.899999999999999900, 4.499999999999995600, 18.00000000000000000 ) ) ;
#692 = DIRECTION ( 'NONE',  ( -1.000000000000000000, -1.481484572605565700E-031, 6.672013369141566200E-016 ) ) ;
#693 = CARTESIAN_POINT ( 'NONE',  ( -1.833333333333306600, 10.16666666666669300, 26.33333333333333600 ) ) ;
#694 = CARTESIAN_POINT ( 'NONE',  ( 2.571758278209441500E-016, 13.59999999999999600, 16.50000000000000000 ) ) ;
#695 = CARTESIAN_POINT ( 'NONE',  ( -2.899999999999999900, 0.0000000000000000000, 0.0000000000000000000 ) ) ;
#696 = CARTESIAN_POINT ( 'NONE',  ( 5.500000000000000000, 16.49999999999999600, 18.00000000000000400 ) ) ;
#697 = DIRECTION ( 'NONE',  ( -0.5773502691896252900, -0.5773502691896246200, 0.5773502691896274000 ) ) ;
#698 = CARTESIAN_POINT ( 'NONE',  ( 5.500000000000000000, 16.49999999999999600, 19.00000000000000400 ) ) ;
#699 = CARTESIAN_POINT ( 'NONE',  ( -5.500000000000000000, 4.499999999999995600, 17.99999999999999600 ) ) ;
#700 = DIRECTION ( 'NONE',  ( -0.0000000000000000000, 1.000000000000000000, 4.440892098500626200E-016 ) ) ;
#701 = DIRECTION ( 'NONE',  ( 0.0000000000000000000, -4.440892098500625700E-016, 1.000000000000000000 ) ) ;
#702 = CARTESIAN_POINT ( 'NONE',  ( -5.500000000000000000, -2.499999999999999100, 0.0000000000000000000 ) ) ;
#703 = CARTESIAN_POINT ( 'NONE',  ( 2.899999999999999900, 16.49999999999999600, 18.00000000000000700 ) ) ;
#704 = CARTESIAN_POINT ( 'NONE',  ( 5.500000000000000000, -4.500000000000003600, 17.99999999999999300 ) ) ;
#705 = CARTESIAN_POINT ( 'NONE',  ( -5.500000000000000000, -4.500000000000003600, 17.99999999999999300 ) ) ;
#706 = CARTESIAN_POINT ( 'NONE',  ( 5.500000000000000000, 4.499999999999993800, 18.99999999999999600 ) ) ;
#707 = CARTESIAN_POINT ( 'NONE',  ( -2.899999999999999900, -4.500000000000000000, 18.00000000000000400 ) ) ;
#708 = CARTESIAN_POINT ( 'NONE',  ( -2.899999999999999900, 16.49999999999999600, 16.50000000000000400 ) ) ;
#709 = DIRECTION ( 'NONE',  ( -0.0000000000000000000, -2.220446049250312600E-016, 1.000000000000000000 ) ) ;
#710 = DIRECTION ( 'NONE',  ( 0.0000000000000000000, -1.000000000000000000, 0.0000000000000000000 ) ) ;
#711 = CARTESIAN_POINT ( 'NONE',  ( 5.500000000000000000, -4.500000000000003600, 18.99999999999999300 ) ) ;
#712 = DIRECTION ( 'NONE',  ( 0.7071067811865460200, -0.7071067811865489100, 0.0000000000000000000 ) ) ;
#713 = CARTESIAN_POINT ( 'NONE',  ( -5.500000000000000000, 16.49999999999999600, 19.00000000000000400 ) ) ;
#714 = DIRECTION ( 'NONE',  ( -1.000000000000000000, 6.672013369141566200E-016, 0.0000000000000000000 ) ) ;
#715 = CARTESIAN_POINT ( 'NONE',  ( -2.899999999999999900, -4.500000000000003600, 17.99999999999999600 ) ) ;
#716 = DIRECTION ( 'NONE',  ( -0.0000000000000000000, -1.000000000000000000, -0.0000000000000000000 ) ) ;
#717 = DIRECTION ( 'NONE',  ( 1.000000000000000000, -6.672013369141568200E-016, 0.0000000000000000000 ) ) ;
#718 = DIRECTION ( 'NONE',  ( 0.0000000000000000000, 1.000000000000000000, 0.0000000000000000000 ) ) ;
#719 = CARTESIAN_POINT ( 'NONE',  ( -2.899999999999999900, 16.49999999999999600, 18.00000000000000700 ) ) ;
#720 = DIRECTION ( 'NONE',  ( 1.000000000000000000, 0.0000000000000000000, 0.0000000000000000000 ) ) ;
#721 = DIRECTION ( 'NONE',  ( -0.7071067811865460200, -3.140184917367555800E-016, 0.7071067811865489100 ) ) ;
#722 = CARTESIAN_POINT ( 'NONE',  ( -2.899999999999999900, -1.500000000000001300, 12.00000000000000200 ) ) ;
#723 = CARTESIAN_POINT ( 'NONE',  ( -2.899999999999999900, -1.500000000000001300, 0.0000000000000000000 ) ) ;
#724 = CARTESIAN_POINT ( 'NONE',  ( 0.0000000000000000000, 8.673617379884035500E-016, 5.000000000000000000 ) ) ;
#725 = CARTESIAN_POINT ( 'NONE',  ( -2.899999999999999900, 0.0000000000000000000, 21.00000000000000000 ) ) ;
#726 = DIRECTION ( 'NONE',  ( 0.0000000000000000000, -1.000000000000000000, 0.0000000000000000000 ) ) ;
#727 = DIRECTION ( 'NONE',  ( 0.0000000000000000000, 4.440892098500626200E-016, -1.000000000000000000 ) ) ;
#728 = DIRECTION ( 'NONE',  ( -0.0000000000000000000, 1.000000000000000000, 4.440892098500626200E-016 ) ) ;
#729 = DIRECTION ( 'NONE',  ( -0.5773502691896252900, 0.5773502691896246200, -0.5773502691896274000 ) ) ;
#730 = CARTESIAN_POINT ( 'NONE',  ( -5.500000000000000000, 16.49999999999999600, 18.00000000000000400 ) ) ;
#731 = DIRECTION ( 'NONE',  ( 0.0000000000000000000, 1.000000000000000000, 0.0000000000000000000 ) ) ;
#732 = DIRECTION ( 'NONE',  ( 0.0000000000000000000, -1.000000000000000000, 0.0000000000000000000 ) ) ;
#733 = DIRECTION ( 'NONE',  ( 0.0000000000000000000, 0.0000000000000000000, -1.000000000000000000 ) ) ;
#734 = DIRECTION ( 'NONE',  ( -0.0000000000000000000, 1.000000000000000000, 4.440892098500626200E-016 ) ) ;
#735 = DIRECTION ( 'NONE',  ( 0.7071067811865460200, -1.570092458683777900E-016, 0.7071067811865489100 ) ) ;
#736 = CARTESIAN_POINT ( 'NONE',  ( 0.0000000000000000000, 8.974999999999996100, 21.00000000000000400 ) ) ;
#737 = CARTESIAN_POINT ( 'NONE',  ( 2.899999999999999900, 0.0000000000000000000, 21.00000000000000000 ) ) ;
#738 = DIRECTION ( 'NONE',  ( 0.0000000000000000000, -2.220446049250312600E-016, 1.000000000000000000 ) ) ;
#739 = DIRECTION ( 'NONE',  ( -1.000000000000000000, 1.481484572605565700E-031, -6.672013369141566200E-016 ) ) ;
#740 = CARTESIAN_POINT ( 'NONE',  ( 0.0000000000000000000, 4.499999999999993800, 21.00000000000000000 ) ) ;
#741 = CARTESIAN_POINT ( 'NONE',  ( 0.0000000000000000000, 11.49999999999999800, 16.50000000000000000 ) ) ;
#742 = CARTESIAN_POINT ( 'NONE',  ( 1.833333333333306600, 10.16666666666669300, 26.33333333333333600 ) ) ;
#743 = CARTESIAN_POINT ( 'NONE',  ( 0.0000000000000000000, 11.49999999999999600, 21.00000000000000400 ) ) ;
#744 = DIRECTION ( 'NONE',  ( 0.0000000000000000000, -0.7071067811865441300, 0.7071067811865510100 ) ) ;
#745 = CARTESIAN_POINT ( 'NONE',  ( 0.0000000000000000000, 11.49999999999999600, 21.00000000000000400 ) ) ;
#746 = CARTESIAN_POINT ( 'NONE',  ( 3.500000000000007500, 16.49999999999999600, 20.00000000000000000 ) ) ;
#747 = DIRECTION ( 'NONE',  ( -0.0000000000000000000, -2.220446049250312600E-016, 1.000000000000000000 ) ) ;
#748 = CARTESIAN_POINT ( 'NONE',  ( 2.571758278209440000E-016, -4.500000000000000000, 7.099999999999998800 ) ) ;
#749 = DIRECTION ( 'NONE',  ( 0.0000000000000000000, 0.0000000000000000000, -1.000000000000000000 ) ) ;
#750 = DIRECTION ( 'NONE',  ( -1.000000000000000000, 0.0000000000000000000, 0.0000000000000000000 ) ) ;
#751 = CARTESIAN_POINT ( 'NONE',  ( 2.899999999999999900, 2.999999999999999600, 13.49999999999999800 ) ) ;
#752 = CARTESIAN_POINT ( 'NONE',  ( 5.500000000000000000, -1.499999999999999600, 0.0000000000000000000 ) ) ;
#753 = DIRECTION ( 'NONE',  ( -0.0000000000000000000, -1.000000000000000000, -0.0000000000000000000 ) ) ;
#754 = DIRECTION ( 'NONE',  ( -0.0000000000000000000, 1.000000000000000000, 4.440892098500626200E-016 ) ) ;
#755 = CARTESIAN_POINT ( 'NONE',  ( 2.571758278209439000E-016, 13.59999999999999400, 21.00000000000000000 ) ) ;
#756 = CARTESIAN_POINT ( 'NONE',  ( 3.500000000000007500, -4.500000000000000000, 12.00000000000000200 ) ) ;
#757 = DIRECTION ( 'NONE',  ( -1.000000000000000000, -0.0000000000000000000, -0.0000000000000000000 ) ) ;
#758 = DIRECTION ( 'NONE',  ( -0.0000000000000000000, 1.000000000000000000, -0.0000000000000000000 ) ) ;
#759 = CARTESIAN_POINT ( 'NONE',  ( 0.0000000000000000000, 4.499999999999993800, 21.00000000000000000 ) ) ;
#760 = DIRECTION ( 'NONE',  ( -0.0000000000000000000, -0.0000000000000000000, -1.000000000000000000 ) ) ;
#761 = DIRECTION ( 'NONE',  ( -1.000000000000000000, 0.0000000000000000000, 0.0000000000000000000 ) ) ;
#762 = DIRECTION ( 'NONE',  ( -1.000000000000000000, -6.672013369141566200E-016, -0.0000000000000000000 ) ) ;
#763 = CARTESIAN_POINT ( 'NONE',  ( -3.500000000000007500, -4.500000000000003600, 20.99999999999999300 ) ) ;
#764 = DIRECTION ( 'NONE',  ( 0.0000000000000000000, 0.0000000000000000000, 1.000000000000000000 ) ) ;
#765 = CARTESIAN_POINT ( 'NONE',  ( -2.899999999999999900, 0.0000000000000000000, 21.00000000000000000 ) ) ;
#766 = DIRECTION ( 'NONE',  ( -1.000000000000000000, 0.0000000000000000000, 0.0000000000000000000 ) ) ;
#767 = CARTESIAN_POINT ( 'NONE',  ( -2.899999999999999900, -4.500000000000000000, 18.00000000000000400 ) ) ;
#768 = DIRECTION ( 'NONE',  ( -0.0000000000000000000, -1.000000000000000000, -0.0000000000000000000 ) ) ;
#769 = DIRECTION ( 'NONE',  ( -0.0000000000000000000, -2.220446049250312600E-016, 1.000000000000000000 ) ) ;
#770 = CARTESIAN_POINT ( 'NONE',  ( 3.500000000000007500, -4.500000000000000000, 1.000000000000000900 ) ) ;
#771 = CARTESIAN_POINT ( 'NONE',  ( 0.0000000000000000000, 8.673617379884035500E-016, 5.000000000000000000 ) ) ;
#772 = CARTESIAN_POINT ( 'NONE',  ( 3.500000000000007500, -4.500000000000000000, 12.00000000000000200 ) ) ;
#773 = DIRECTION ( 'NONE',  ( -1.000000000000000000, 0.0000000000000000000, 0.0000000000000000000 ) ) ;
#774 = CARTESIAN_POINT ( 'NONE',  ( 2.899999999999999900, -1.500000000000001300, 0.0000000000000000000 ) ) ;
#775 = DIRECTION ( 'NONE',  ( 0.7071067811865460200, 0.7071067811865489100, -0.0000000000000000000 ) ) ;
#776 = DIRECTION ( 'NONE',  ( -0.0000000000000000000, -0.0000000000000000000, -1.000000000000000000 ) ) ;
#777 = DIRECTION ( 'NONE',  ( -0.0000000000000000000, -1.000000000000000000, -0.0000000000000000000 ) ) ;
#778 = CARTESIAN_POINT ( 'NONE',  ( -5.500000000000000000, -1.499999999999999600, 12.00000000000000200 ) ) ;
#779 = DIRECTION ( 'NONE',  ( 0.0000000000000000000, 1.000000000000000000, 0.0000000000000000000 ) ) ;
#780 = CARTESIAN_POINT ( 'NONE',  ( 3.500000000000007500, -4.500000000000000000, 21.00000000000000000 ) ) ;
#781 = DIRECTION ( 'NONE',  ( -0.0000000000000000000, -0.0000000000000000000, -1.000000000000000000 ) ) ;
#782 = DIRECTION ( 'NONE',  ( -1.000000000000000000, 0.0000000000000000000, 0.0000000000000000000 ) ) ;
#783 = DIRECTION ( 'NONE',  ( -0.0000000000000000000, -0.0000000000000000000, -1.000000000000000000 ) ) ;
#784 = CARTESIAN_POINT ( 'NONE',  ( 2.899999999999999900, -1.500000000000001300, 21.00000000000000000 ) ) ;
#785 = DIRECTION ( 'NONE',  ( 0.0000000000000000000, 0.0000000000000000000, -1.000000000000000000 ) ) ;
#786 = CARTESIAN_POINT ( 'NONE',  ( 2.899999999999999900, 16.49999999999999600, 16.50000000000000400 ) ) ;
#787 = CARTESIAN_POINT ( 'NONE',  ( 5.500000000000000000, -2.499999999999999100, 0.0000000000000000000 ) ) ;
#788 = CARTESIAN_POINT ( 'NONE',  ( -5.500000000000000000, -2.499999999999999100, 21.00000000000000000 ) ) ;
#789 = CARTESIAN_POINT ( 'NONE',  ( 0.0000000000000000000, -4.500000000000001800, 5.000000000000000000 ) ) ;
#790 = CARTESIAN_POINT ( 'NONE',  ( 3.092233167847066000E-016, -4.500000000000001800, 7.524999999999999500 ) ) ;
#791 = CARTESIAN_POINT ( 'NONE',  ( 5.500000000000000000, -2.499999999999999100, 21.00000000000000000 ) ) ;
#792 = DIRECTION ( 'NONE',  ( -0.0000000000000000000, -0.0000000000000000000, -1.000000000000000000 ) ) ;
#793 = CARTESIAN_POINT ( 'NONE',  ( 2.899999999999999900, 0.0000000000000000000, 12.00000000000000200 ) ) ;
#794 = DIRECTION ( 'NONE',  ( 0.0000000000000000000, 0.0000000000000000000, -1.000000000000000000 ) ) ;
#795 = CARTESIAN_POINT ( 'NONE',  ( 2.899999999999999900, -1.500000000000000000, 21.00000000000000000 ) ) ;
#796 = DIRECTION ( 'NONE',  ( 0.0000000000000000000, 2.220446049250312600E-016, -1.000000000000000000 ) ) ;
#797 = DIRECTION ( 'NONE',  ( 0.5773502691896248400, 0.5773502691896270600, -0.5773502691896254000 ) ) ;
#798 = DIRECTION ( 'NONE',  ( 8.659560562354907000E-017, -0.7071067811865496800, 0.7071067811865453500 ) ) ;
#799 = DIRECTION ( 'NONE',  ( 0.0000000000000000000, -1.000000000000000000, 0.0000000000000000000 ) ) ;
#800 = CARTESIAN_POINT ( 'NONE',  ( -2.899999999999999900, -4.500000000000000000, 21.00000000000000000 ) ) ;
#801 = APPROVAL_ROLE ( '' ) ;
#802 = PERSON_AND_ORGANIZATION_ROLE ( 'creator' ) ;
#803 = SECURITY_CLASSIFICATION_LEVEL ( 'unclassified' ) ;
#804 = APPROVAL_STATUS ( 'not_yet_approved' ) ;
#805 = APPLICATION_PROTOCOL_DEFINITION ( 'international standard', 'config_control_design', 1994, #810 ) ;
#806 = DATE_TIME_ROLE ( 'creation_date' ) ;
#807 = PERSON_AND_ORGANIZATION_ROLE ( 'classification_officer' ) ;
#808 = DATE_TIME_ROLE ( 'classification_date' ) ;
#809 = PERSON_AND_ORGANIZATION_ROLE ( 'design_owner' ) ;
#810 = APPLICATION_CONTEXT ( 'configuration controlled 3d designs of mechanical parts and assemblies' ) ;
#811 = APPROVAL_STATUS ( 'not_yet_approved' ) ;
#812 = APPROVAL_ROLE ( '' ) ;
#813 = APPROVAL_STATUS ( 'not_yet_approved' ) ;
#814 = PERSON_AND_ORGANIZATION_ROLE ( 'design_supplier' ) ;
#815 = PERSON_AND_ORGANIZATION_ROLE ( 'creator' ) ;
#816 = APPROVAL_ROLE ( '' ) ;
#817 = DIRECTION ( 'NONE',  ( 0.0000000000000000000, 0.0000000000000000000, 1.000000000000000000 ) ) ;
#818 = DIRECTION ( 'NONE',  ( -0.0000000000000000000, -2.220446049250312600E-016, 1.000000000000000000 ) ) ;
#819 = PLANE ( 'NONE',  #579 ) ;
#820 = DIRECTION ( 'NONE',  ( 0.0000000000000000000, -1.000000000000000000, 0.0000000000000000000 ) ) ;
#821 = DIRECTION ( 'NONE',  ( 6.672013369141568200E-016, 4.440892098500625700E-016, -1.000000000000000000 ) ) ;
#822 = CARTESIAN_POINT ( 'NONE',  ( -2.899999999999999900, -1.500000000000001300, 21.00000000000000000 ) ) ;
#823 = PLANE ( 'NONE',  #597 ) ;
#824 = DIRECTION ( 'NONE',  ( -1.000000000000000000, 0.0000000000000000000, -0.0000000000000000000 ) ) ;
#825 = DIRECTION ( 'NONE',  ( 0.7071067811865460200, 0.0000000000000000000, -0.7071067811865489100 ) ) ;
#826 = PLANE ( 'NONE',  #580 ) ;
#827 = DIRECTION ( 'NONE',  ( 0.7071067811865490200, -3.140184917367542400E-016, 0.7071067811865461300 ) ) ;
#828 = PLANE ( 'NONE',  #575 ) ;
#829 = CARTESIAN_POINT ( 'NONE',  ( -2.899999999999999900, 2.999999999999999600, 13.49999999999999800 ) ) ;
#830 = DIRECTION ( 'NONE',  ( 1.000000000000000000, -6.672013369141568200E-016, 0.0000000000000000000 ) ) ;
#831 = DIRECTION ( 'NONE',  ( 0.0000000000000000000, 0.0000000000000000000, -1.000000000000000000 ) ) ;
#832 = PLANE ( 'NONE',  #604 ) ;
#833 = CARTESIAN_POINT ( 'NONE',  ( 5.500000000000000000, -4.500000000000003600, 18.99999999999999300 ) ) ;
#834 = CARTESIAN_POINT ( 'NONE',  ( -2.899999999999999900, -4.500000000000003600, 16.49999999999999300 ) ) ;
#835 = DIRECTION ( 'NONE',  ( 1.000000000000000000, 0.0000000000000000000, 0.0000000000000000000 ) ) ;
#836 = PLANE ( 'NONE',  #577 ) ;
#837 = CARTESIAN_POINT ( 'NONE',  ( -2.899999999999999900, -4.500000000000003600, 17.99999999999999600 ) ) ;
#838 = DIRECTION ( 'NONE',  ( -0.7071067811865490200, -3.140184917367542400E-016, 0.7071067811865461300 ) ) ;
#839 = CARTESIAN_POINT ( 'NONE',  ( 5.500000000000000000, -1.499999999999999600, 21.00000000000000000 ) ) ;
#840 = DIRECTION ( 'NONE',  ( -1.000000000000000000, 0.0000000000000000000, -6.672013369141568200E-016 ) ) ;
#841 = CARTESIAN_POINT ( 'NONE',  ( -5.500000000000000000, -4.500000000000003600, 18.99999999999999300 ) ) ;
#842 = DIRECTION ( 'NONE',  ( -1.000000000000000000, 0.0000000000000000000, 0.0000000000000000000 ) ) ;
#843 = DIRECTION ( 'NONE',  ( -6.672013369141568200E-016, -1.000000000000000000, 0.0000000000000000000 ) ) ;
#844 = CARTESIAN_POINT ( 'NONE',  ( 0.0000000000000000000, 11.49999999999999600, 21.00000000000000000 ) ) ;
#845 = DIRECTION ( 'NONE',  ( 0.7071067811865460200, 0.0000000000000000000, 0.7071067811865489100 ) ) ;
#846 = CARTESIAN_POINT ( 'NONE',  ( 0.0000000000000000000, 0.0000000000000000000, 0.0000000000000000000 ) ) ;
#847 = DIRECTION ( 'NONE',  ( 0.0000000000000000000, 0.0000000000000000000, 1.000000000000000000 ) ) ;
#848 =( NAMED_UNIT ( * ) SI_UNIT ( $, .STERADIAN. ) SOLID_ANGLE_UNIT ( ) );
#849 =( LENGTH_UNIT ( ) NAMED_UNIT ( * ) SI_UNIT ( .MILLI., .METRE. ) );
#850 =( NAMED_UNIT ( * ) PLANE_ANGLE_UNIT ( ) SI_UNIT ( $, .RADIAN. ) );
#851 = APPLICATION_CONTEXT ( 'configuration controlled 3d designs of mechanical parts and assemblies' ) ;
#852 = APPLICATION_PROTOCOL_DEFINITION ( 'international standard', 'config_control_design', 1994, #851 ) ;
#853 = DIRECTION ( 'NONE',  ( 1.000000000000000000, 0.0000000000000000000, 0.0000000000000000000 ) ) ;
#854 = MECHANICAL_CONTEXT ( 'NONE', #851, 'mechanical' ) ;
#855 = DIRECTION ( 'NONE',  ( 0.0000000000000000000, 4.440892098500626200E-016, -1.000000000000000000 ) ) ;
#856 = DIRECTION ( 'NONE',  ( 0.0000000000000000000, 1.000000000000000000, 4.440892098500626200E-016 ) ) ;
#857 = PRODUCT ( 'ALP2170', 'ALP2170', '', ( #854 ) ) ;
#858 = PERSON ( 'UNSPECIFIED', 'UNSPECIFIED', 'UNSPECIFIED', ('UNSPECIFIED'), ('UNSPECIFIED'), ('UNSPECIFIED') ) ;
#859 = ADVANCED_BREP_SHAPE_REPRESENTATION ( 'ALP2170', ( #861, #594 ), #582 ) ;
#860 = UNCERTAINTY_MEASURE_WITH_UNIT (LENGTH_MEASURE( 1.000000000000000100E-005 ), #849, 'distance_accuracy_value', 'NONE');
#861 = MANIFOLD_SOLID_BREP ( 'Fillet2', #1034 ) ;
#862 = ORIENTED_EDGE ( 'NONE', *, *, #1137, .F. ) ;
#863 = EDGE_LOOP ( 'NONE', ( #938, #949, #940, #927 ) ) ;
#864 = ORIENTED_EDGE ( 'NONE', *, *, #1148, .F. ) ;
#865 = ORIENTED_EDGE ( 'NONE', *, *, #1146, .F. ) ;
#866 = ORIENTED_EDGE ( 'NONE', *, *, #1102, .F. ) ;
#867 = ORIENTED_EDGE ( 'NONE', *, *, #1141, .F. ) ;
#868 = ORIENTED_EDGE ( 'NONE', *, *, #1125, .F. ) ;
#869 = EDGE_LOOP ( 'NONE', ( #37, #83, #60, #34, #74, #24, #23, #77 ) ) ;
#870 = ORIENTED_EDGE ( 'NONE', *, *, #1081, .F. ) ;
#871 = ORIENTED_EDGE ( 'NONE', *, *, #1108, .F. ) ;
#872 = ORIENTED_EDGE ( 'NONE', *, *, #1078, .T. ) ;
#873 = ORIENTED_EDGE ( 'NONE', *, *, #1070, .T. ) ;
#874 = ORIENTED_EDGE ( 'NONE', *, *, #1121, .F. ) ;
#875 = ORIENTED_EDGE ( 'NONE', *, *, #1082, .T. ) ;
#876 = ORIENTED_EDGE ( 'NONE', *, *, #1122, .F. ) ;
#877 = ORIENTED_EDGE ( 'NONE', *, *, #1098, .T. ) ;
#878 = ORIENTED_EDGE ( 'NONE', *, *, #1105, .F. ) ;
#879 = ORIENTED_EDGE ( 'NONE', *, *, #1072, .F. ) ;
#880 = ORIENTED_EDGE ( 'NONE', *, *, #1061, .F. ) ;
#881 = ORIENTED_EDGE ( 'NONE', *, *, #1146, .T. ) ;
#882 = ORIENTED_EDGE ( 'NONE', *, *, #1116, .T. ) ;
#883 = ORIENTED_EDGE ( 'NONE', *, *, #1177, .F. ) ;
#884 = ORIENTED_EDGE ( 'NONE', *, *, #1175, .T. ) ;
#885 = ORIENTED_EDGE ( 'NONE', *, *, #1159, .F. ) ;
#886 = ORIENTED_EDGE ( 'NONE', *, *, #1078, .F. ) ;
#887 = ORIENTED_EDGE ( 'NONE', *, *, #1144, .F. ) ;
#888 = EDGE_LOOP ( 'NONE', ( #86, #87 ) ) ;
#889 = EDGE_LOOP ( 'NONE', ( #948, #956, #953, #955 ) ) ;
#890 = ORIENTED_EDGE ( 'NONE', *, *, #1077, .F. ) ;
#891 = ORIENTED_EDGE ( 'NONE', *, *, #1092, .F. ) ;
#892 = ORIENTED_EDGE ( 'NONE', *, *, #1065, .F. ) ;
#893 = ORIENTED_EDGE ( 'NONE', *, *, #1131, .F. ) ;
#894 = ORIENTED_EDGE ( 'NONE', *, *, #1064, .F. ) ;
#895 = ORIENTED_EDGE ( 'NONE', *, *, #1082, .F. ) ;
#896 = ORIENTED_EDGE ( 'NONE', *, *, #1160, .F. ) ;
#897 = ORIENTED_EDGE ( 'NONE', *, *, #1062, .F. ) ;
#898 = ORIENTED_EDGE ( 'NONE', *, *, #1118, .F. ) ;
#899 = ORIENTED_EDGE ( 'NONE', *, *, #1123, .F. ) ;
#900 = ORIENTED_EDGE ( 'NONE', *, *, #1070, .F. ) ;
#901 = ORIENTED_EDGE ( 'NONE', *, *, #1150, .T. ) ;
#902 = ORIENTED_EDGE ( 'NONE', *, *, #1143, .F. ) ;
#903 = ORIENTED_EDGE ( 'NONE', *, *, #1134, .T. ) ;
#904 = ORIENTED_EDGE ( 'NONE', *, *, #1066, .T. ) ;
#905 = ORIENTED_EDGE ( 'NONE', *, *, #1155, .F. ) ;
#906 = ORIENTED_EDGE ( 'NONE', *, *, #1163, .T. ) ;
#907 = ORIENTED_EDGE ( 'NONE', *, *, #1096, .F. ) ;
#908 = ORIENTED_EDGE ( 'NONE', *, *, #1079, .T. ) ;
#909 = ORIENTED_EDGE ( 'NONE', *, *, #1163, .F. ) ;
#910 = ORIENTED_EDGE ( 'NONE', *, *, #1097, .F. ) ;
#911 = ORIENTED_EDGE ( 'NONE', *, *, #1174, .T. ) ;
#912 = ORIENTED_EDGE ( 'NONE', *, *, #1154, .T. ) ;
#913 = ORIENTED_EDGE ( 'NONE', *, *, #1065, .T. ) ;
#914 = ORIENTED_EDGE ( 'NONE', *, *, #1101, .T. ) ;
#915 = ORIENTED_EDGE ( 'NONE', *, *, #1147, .F. ) ;
#916 = ORIENTED_EDGE ( 'NONE', *, *, #1119, .T. ) ;
#917 = ORIENTED_EDGE ( 'NONE', *, *, #1170, .F. ) ;
#918 = ORIENTED_EDGE ( 'NONE', *, *, #1152, .F. ) ;
#919 = ORIENTED_EDGE ( 'NONE', *, *, #1071, .T. ) ;
#920 = ORIENTED_EDGE ( 'NONE', *, *, #1103, .F. ) ;
#921 = ORIENTED_EDGE ( 'NONE', *, *, #1136, .F. ) ;
#922 = ORIENTED_EDGE ( 'NONE', *, *, #1063, .T. ) ;
#923 = ORIENTED_EDGE ( 'NONE', *, *, #1169, .F. ) ;
#924 = ORIENTED_EDGE ( 'NONE', *, *, #1076, .F. ) ;
#925 = ORIENTED_EDGE ( 'NONE', *, *, #1173, .T. ) ;
#926 = ORIENTED_EDGE ( 'NONE', *, *, #1071, .F. ) ;
#927 = ORIENTED_EDGE ( 'NONE', *, *, #1112, .T. ) ;
#928 = ORIENTED_EDGE ( 'NONE', *, *, #1064, .T. ) ;
#929 = ORIENTED_EDGE ( 'NONE', *, *, #1162, .F. ) ;
#930 = ORIENTED_EDGE ( 'NONE', *, *, #1115, .T. ) ;
#931 = ORIENTED_EDGE ( 'NONE', *, *, #1124, .F. ) ;
#932 = ORIENTED_EDGE ( 'NONE', *, *, #1148, .T. ) ;
#933 = ORIENTED_EDGE ( 'NONE', *, *, #1158, .F. ) ;
#934 = ORIENTED_EDGE ( 'NONE', *, *, #1117, .T. ) ;
#935 = ORIENTED_EDGE ( 'NONE', *, *, #1166, .F. ) ;
#936 = ORIENTED_EDGE ( 'NONE', *, *, #1083, .F. ) ;
#937 = ORIENTED_EDGE ( 'NONE', *, *, #1130, .F. ) ;
#938 = ORIENTED_EDGE ( 'NONE', *, *, #1164, .F. ) ;
#939 = ORIENTED_EDGE ( 'NONE', *, *, #1126, .F. ) ;
#940 = ORIENTED_EDGE ( 'NONE', *, *, #1113, .T. ) ;
#941 = ORIENTED_EDGE ( 'NONE', *, *, #1100, .F. ) ;
#942 = ORIENTED_EDGE ( 'NONE', *, *, #1079, .F. ) ;
#943 = ORIENTED_EDGE ( 'NONE', *, *, #1076, .T. ) ;
#944 = ORIENTED_EDGE ( 'NONE', *, *, #1100, .T. ) ;
#945 = ORIENTED_EDGE ( 'NONE', *, *, #1176, .T. ) ;
#946 = ORIENTED_EDGE ( 'NONE', *, *, #1077, .T. ) ;
#947 = ORIENTED_EDGE ( 'NONE', *, *, #1068, .F. ) ;
#948 = ORIENTED_EDGE ( 'NONE', *, *, #1161, .F. ) ;
#949 = ORIENTED_EDGE ( 'NONE', *, *, #1066, .F. ) ;
#950 = ORIENTED_EDGE ( 'NONE', *, *, #1081, .T. ) ;
#951 = ORIENTED_EDGE ( 'NONE', *, *, #1072, .T. ) ;
#952 = ORIENTED_EDGE ( 'NONE', *, *, #1157, .F. ) ;
#953 = ORIENTED_EDGE ( 'NONE', *, *, #1145, .F. ) ;
#954 = ORIENTED_EDGE ( 'NONE', *, *, #1101, .F. ) ;
#955 = ORIENTED_EDGE ( 'NONE', *, *, #1139, .F. ) ;
#956 = ORIENTED_EDGE ( 'NONE', *, *, #1120, .F. ) ;
#957 = ORIENTED_EDGE ( 'NONE', *, *, #1103, .T. ) ;
#958 = VERTEX_POINT ( 'NONE', #621 ) ;
#959 = ORIENTED_EDGE ( 'NONE', *, *, #1105, .T. ) ;
#960 = VERTEX_POINT ( 'NONE', #619 ) ;
#961 = VERTEX_POINT ( 'NONE', #615 ) ;
#962 = VERTEX_POINT ( 'NONE', #634 ) ;
#963 = VERTEX_POINT ( 'NONE', #652 ) ;
#964 = VERTEX_POINT ( 'NONE', #654 ) ;
#965 = ORIENTED_EDGE ( 'NONE', *, *, #1171, .F. ) ;
#966 = ORIENTED_EDGE ( 'NONE', *, *, #1092, .T. ) ;
#967 = ORIENTED_EDGE ( 'NONE', *, *, #1135, .T. ) ;
#968 = ORIENTED_EDGE ( 'NONE', *, *, #1098, .F. ) ;
#969 = ORIENTED_EDGE ( 'NONE', *, *, #1142, .F. ) ;
#970 = ORIENTED_EDGE ( 'NONE', *, *, #1061, .T. ) ;
#971 = ORIENTED_EDGE ( 'NONE', *, *, #1075, .T. ) ;
#972 = ORIENTED_EDGE ( 'NONE', *, *, #1068, .T. ) ;
#973 = ORIENTED_EDGE ( 'NONE', *, *, #1063, .F. ) ;
#974 = VERTEX_POINT ( 'NONE', #643 ) ;
#975 = VERTEX_POINT ( 'NONE', #628 ) ;
#976 = VERTEX_POINT ( 'NONE', #623 ) ;
#977 = VERTEX_POINT ( 'NONE', #622 ) ;
#978 = VERTEX_POINT ( 'NONE', #649 ) ;
#979 = VERTEX_POINT ( 'NONE', #613 ) ;
#980 = VERTEX_POINT ( 'NONE', #635 ) ;
#981 = VERTEX_POINT ( 'NONE', #656 ) ;
#982 = VERTEX_POINT ( 'NONE', #614 ) ;
#983 = VERTEX_POINT ( 'NONE', #641 ) ;
#984 = VERTEX_POINT ( 'NONE', #663 ) ;
#985 = VERTEX_POINT ( 'NONE', #664 ) ;
#986 = VERTEX_POINT ( 'NONE', #653 ) ;
#987 = VERTEX_POINT ( 'NONE', #616 ) ;
#988 = VERTEX_POINT ( 'NONE', #624 ) ;
#989 = VERTEX_POINT ( 'NONE', #657 ) ;
#990 = VERTEX_POINT ( 'NONE', #610 ) ;
#991 = VERTEX_POINT ( 'NONE', #659 ) ;
#992 = VERTEX_POINT ( 'NONE', #644 ) ;
#993 = VERTEX_POINT ( 'NONE', #617 ) ;
#994 = VERTEX_POINT ( 'NONE', #645 ) ;
#995 = VERTEX_POINT ( 'NONE', #632 ) ;
#996 = VERTEX_POINT ( 'NONE', #636 ) ;
#997 = VERTEX_POINT ( 'NONE', #626 ) ;
#998 = VERTEX_POINT ( 'NONE', #637 ) ;
#999 = VERTEX_POINT ( 'NONE', #629 ) ;
#1000 = VERTEX_POINT ( 'NONE', #661 ) ;
#1001 = VERTEX_POINT ( 'NONE', #630 ) ;
#1002 = VERTEX_POINT ( 'NONE', #611 ) ;
#1003 = VERTEX_POINT ( 'NONE', #631 ) ;
#1004 = VERTEX_POINT ( 'NONE', #646 ) ;
#1005 = VERTEX_POINT ( 'NONE', #638 ) ;
#1006 = VERTEX_POINT ( 'NONE', #639 ) ;
#1007 = VERTEX_POINT ( 'NONE', #651 ) ;
#1008 = VERTEX_POINT ( 'NONE', #647 ) ;
#1009 = VERTEX_POINT ( 'NONE', #612 ) ;
#1010 = VERTEX_POINT ( 'NONE', #640 ) ;
#1011 = VERTEX_POINT ( 'NONE', #648 ) ;
#1012 = VERTEX_POINT ( 'NONE', #655 ) ;
#1013 = VERTEX_POINT ( 'NONE', #670 ) ;
#1014 = VERTEX_POINT ( 'NONE', #698 ) ;
#1015 = VERTEX_POINT ( 'NONE', #676 ) ;
#1016 = VERTEX_POINT ( 'NONE', #689 ) ;
#1017 = VERTEX_POINT ( 'NONE', #688 ) ;
#1018 = VERTEX_POINT ( 'NONE', #667 ) ;
#1019 = VERTEX_POINT ( 'NONE', #694 ) ;
#1020 = VERTEX_POINT ( 'NONE', #666 ) ;
#1021 = VERTEX_POINT ( 'NONE', #707 ) ;
#1022 = EDGE_LOOP ( 'NONE', ( #50, #39 ) ) ;
#1023 = EDGE_LOOP ( 'NONE', ( #893, #935, #931, #912, #936 ) ) ;
#1024 = EDGE_LOOP ( 'NONE', ( #929, #887, #862, #918 ) ) ;
#1025 = EDGE_LOOP ( 'NONE', ( #947, #922, #920, #907 ) ) ;
#1026 = EDGE_LOOP ( 'NONE', ( #55, #66, #109, #72 ) ) ;
#1027 = EDGE_LOOP ( 'NONE', ( #892, #908, #883, #891, #875 ) ) ;
#1028 = EDGE_LOOP ( 'NONE', ( #937, #899, #911, #881 ) ) ;
#1029 = EDGE_LOOP ( 'NONE', ( #117, #128, #107, #140, #119 ) ) ;
#1030 = EDGE_LOOP ( 'NONE', ( #880, #872, #890, #895 ) ) ;
#1031 = EDGE_LOOP ( 'NONE', ( #930, #969, #951, #970, #966 ) ) ;
#1032 = EDGE_LOOP ( 'NONE', ( #902, #906, #901, #894 ) ) ;
#1033 = EDGE_LOOP ( 'NONE', ( #896, #923, #915, #903, #876 ) ) ;
#1034 = CLOSED_SHELL ( 'NONE', ( #1183, #1197, #1187, #1190, #1185, #1204, #1180, #1181, #1195, #1211, #1203, #1178, #1184, #1210, #1191, #1179, #1189, #1192, #1188, #1186, #1182, #1213, #1193, #1198, #1207, #1208, #1202, #1212, #1200, #1196, #1205, #1199, #1206, #1194, #1209, #1201 ) ) ;
#1035 = EDGE_LOOP ( 'NONE', ( #25, #28, #78, #76 ) ) ;
#1036 = EDGE_LOOP ( 'NONE', ( #142, #110, #89, #40 ) ) ;
#1037 = EDGE_LOOP ( 'NONE', ( #143, #135, #910, #933, #866, #867, #897, #885, #868, #874 ) ) ;
#1038 = EDGE_LOOP ( 'NONE', ( #959, #944, #913, #946, #950, #967, #928, #971, #957, #914 ) ) ;
#1039 = EDGE_LOOP ( 'NONE', ( #879, #884, #870, #886 ) ) ;
#1040 = EDGE_LOOP ( 'NONE', ( #916, #943, #919, #972, #905 ) ) ;
#1041 = EDGE_LOOP ( 'NONE', ( #898, #932, #945, #904 ) ) ;
#1042 = EDGE_LOOP ( 'NONE', ( #90, #95, #92, #104 ) ) ;
#1043 = EDGE_LOOP ( 'NONE', ( #32, #51, #61, #26, #67, #27, #63, #49 ) ) ;
#1044 = EDGE_LOOP ( 'NONE', ( #871, #864 ) ) ;
#1045 = EDGE_LOOP ( 'NONE', ( #82, #36, #65, #47 ) ) ;
#1046 = EDGE_LOOP ( 'NONE', ( #934, #877, #878, #900, #924 ) ) ;
#1047 = EDGE_LOOP ( 'NONE', ( #111, #120, #99, #52, #113, #139, #64, #88, #70, #75, #131, #134 ) ) ;
#1048 = EDGE_LOOP ( 'NONE', ( #968, #965, #942, #941 ) ) ;
#1049 = EDGE_LOOP ( 'NONE', ( #57, #81, #30, #69 ) ) ;
#1050 = EDGE_LOOP ( 'NONE', ( #22, #45 ) ) ;
#1051 = EDGE_LOOP ( 'NONE', ( #38, #58, #44, #79 ) ) ;
#1052 = EDGE_LOOP ( 'NONE', ( #952, #909, #939, #917 ) ) ;
#1053 = EDGE_LOOP ( 'NONE', ( #921, #865, #925, #882 ) ) ;
#1054 = EDGE_LOOP ( 'NONE', ( #926, #873, #954, #973 ) ) ;
#1055 = EDGE_LOOP ( 'NONE', ( #133, #126, #46, #141, #93 ) ) ;
#1056 = EDGE_LOOP ( 'NONE', ( #48, #116, #138, #108, #98, #53, #68, #35, #71, #103, #62, #100 ) ) ;
#1057 = EDGE_LOOP ( 'NONE', ( #101, #112, #105, #127 ) ) ;
#1058 = EDGE_LOOP ( 'NONE', ( #29, #137, #118, #132 ) ) ;
#1059 = AXIS2_PLACEMENT_3D ( 'NONE', #508, #492, #509 ) ;
#1060 = AXIS2_PLACEMENT_3D ( 'NONE', #539, #532, #533 ) ;
#1061 = EDGE_CURVE ( 'NONE', #998, #1000, #102, .T. ) ;
#1062 = EDGE_CURVE ( 'NONE', #989, #999, #94, .T. ) ;
#1063 = EDGE_CURVE ( 'NONE', #996, #997, #84, .T. ) ;
#1064 = EDGE_CURVE ( 'NONE', #962, #964, #115, .T. ) ;
#1065 = EDGE_CURVE ( 'NONE', #1013, #1014, #123, .T. ) ;
#1066 = EDGE_CURVE ( 'NONE', #80, #42, #106, .T. ) ;
#1067 = AXIS2_PLACEMENT_3D ( 'NONE', #499, #494, #485 ) ;
#1068 = EDGE_CURVE ( 'NONE', #996, #982, #129, .T. ) ;
#1069 = AXIS2_PLACEMENT_3D ( 'NONE', #486, #482, #517 ) ;
#1070 = EDGE_CURVE ( 'NONE', #1008, #995, #114, .T. ) ;
#1071 = EDGE_CURVE ( 'NONE', #1008, #996, #124, .T. ) ;
#1072 = EDGE_CURVE ( 'NONE', #992, #998, #85, .T. ) ;
#1073 = AXIS2_PLACEMENT_3D ( 'NONE', #677, #690, #672 ) ;
#1074 = AXIS2_PLACEMENT_3D ( 'NONE', #789, #753, #749 ) ;
#1075 = EDGE_CURVE ( 'NONE', #964, #978, #194, .T. ) ;
#1076 = EDGE_CURVE ( 'NONE', #1010, #1008, #150, .T. ) ;
#1077 = EDGE_CURVE ( 'NONE', #1014, #1004, #181, .T. ) ;
#1078 = EDGE_CURVE ( 'NONE', #998, #1004, #173, .T. ) ;
#1079 = EDGE_CURVE ( 'NONE', #1013, #974, #152, .T. ) ;
#1080 = AXIS2_PLACEMENT_3D ( 'NONE', #743, #747, #732 ) ;
#1081 = EDGE_CURVE ( 'NONE', #1004, #993, #180, .T. ) ;
#1082 = EDGE_CURVE ( 'NONE', #1000, #1014, #161, .T. ) ;
#1083 = EDGE_CURVE ( 'NONE', #1009, #986, #186, .T. ) ;
#1084 = AXIS2_PLACEMENT_3D ( 'NONE', #490, #500, #501 ) ;
#1085 = AXIS2_PLACEMENT_3D ( 'NONE', #497, #496, #510 ) ;
#1086 = AXIS2_PLACEMENT_3D ( 'NONE', #543, #526, #525 ) ;
#1087 = AXIS2_PLACEMENT_3D ( 'NONE', #771, #768, #785 ) ;
#1088 = AXIS2_PLACEMENT_3D ( 'NONE', #388, #414, #398 ) ;
#1089 = AXIS2_PLACEMENT_3D ( 'NONE', #377, #402, #381 ) ;
#1090 = AXIS2_PLACEMENT_3D ( 'NONE', #371, #390, #395 ) ;
#1091 = AXIS2_PLACEMENT_3D ( 'NONE', #372, #408, #373 ) ;
#1092 = EDGE_CURVE ( 'NONE', #1000, #1001, #176, .T. ) ;
#1093 = AXIS2_PLACEMENT_3D ( 'NONE', #504, #513, #521 ) ;
#1094 = AXIS2_PLACEMENT_3D ( 'NONE', #751, #766, #764 ) ;
#1095 = AXIS2_PLACEMENT_3D ( 'NONE', #724, #716, #733 ) ;
#1096 = EDGE_CURVE ( 'NONE', #982, #978, #188, .T. ) ;
#1097 = EDGE_CURVE ( 'NONE', #985, #987, #154, .T. ) ;
#1098 = EDGE_CURVE ( 'NONE', #990, #1012, #156, .T. ) ;
#1099 = AXIS2_PLACEMENT_3D ( 'NONE', #745, #709, #710 ) ;
#1100 = EDGE_CURVE ( 'NONE', #1012, #1013, #163, .T. ) ;
#1101 = EDGE_CURVE ( 'NONE', #997, #995, #174, .T. ) ;
#1102 = EDGE_CURVE ( 'NONE', #988, #984, #189, .T. ) ;
#1103 = EDGE_CURVE ( 'NONE', #978, #997, #197, .T. ) ;
#1104 = AXIS2_PLACEMENT_3D ( 'NONE', #741, #727, #718 ) ;
#1105 = EDGE_CURVE ( 'NONE', #995, #1012, #198, .T. ) ;
#1106 = AXIS2_PLACEMENT_3D ( 'NONE', #385, #400, #382 ) ;
#1107 = EDGE_CURVE ( 'NONE', #1016, #56, #155, .T. ) ;
#1108 = EDGE_CURVE ( 'NONE', #41, #1019, #191, .T. ) ;
#1109 = EDGE_CURVE ( 'NONE', #1017, #975, #167, .T. ) ;
#1110 = EDGE_CURVE ( 'NONE', #54, #59, #166, .T. ) ;
#1111 = EDGE_CURVE ( 'NONE', #958, #960, #164, .T. ) ;
#1112 = EDGE_CURVE ( 'NONE', #59, #54, #201, .T. ) ;
#1113 = EDGE_CURVE ( 'NONE', #80, #59, #200, .T. ) ;
#1114 = EDGE_CURVE ( 'NONE', #983, #980, #182, .T. ) ;
#1115 = EDGE_CURVE ( 'NONE', #1001, #960, #149, .T. ) ;
#1116 = EDGE_CURVE ( 'NONE', #73, #1020, #205, .T. ) ;
#1117 = EDGE_CURVE ( 'NONE', #1010, #990, #168, .T. ) ;
#1118 = EDGE_CURVE ( 'NONE', #1019, #42, #171, .T. ) ;
#1119 = EDGE_CURVE ( 'NONE', #1017, #1010, #175, .T. ) ;
#1120 = EDGE_CURVE ( 'NONE', #1011, #1021, #206, .T. ) ;
#1121 = EDGE_CURVE ( 'NONE', #1005, #1003, #147, .T. ) ;
#1122 = EDGE_CURVE ( 'NONE', #1018, #31, #178, .T. ) ;
#1123 = EDGE_CURVE ( 'NONE', #56, #1016, #151, .T. ) ;
#1124 = EDGE_CURVE ( 'NONE', #977, #991, #219, .T. ) ;
#1125 = EDGE_CURVE ( 'NONE', #1003, #980, #238, .T. ) ;
#1126 = EDGE_CURVE ( 'NONE', #1015, #1007, #265, .T. ) ;
#1127 = EDGE_CURVE ( 'NONE', #963, #999, #211, .T. ) ;
#1128 = EDGE_CURVE ( 'NONE', #1002, #1005, #218, .T. ) ;
#1129 = EDGE_CURVE ( 'NONE', #1006, #985, #221, .T. ) ;
#1130 = EDGE_CURVE ( 'NONE', #1016, #33, #239, .T. ) ;
#1131 = EDGE_CURVE ( 'NONE', #1006, #1009, #250, .T. ) ;
#1132 = EDGE_CURVE ( 'NONE', #1018, #994, #247, .T. ) ;
#1133 = EDGE_CURVE ( 'NONE', #981, #1005, #208, .T. ) ;
#1134 = EDGE_CURVE ( 'NONE', #983, #31, #212, .T. ) ;
#1135 = EDGE_CURVE ( 'NONE', #993, #962, #240, .T. ) ;
#1136 = EDGE_CURVE ( 'NONE', #33, #1020, #223, .T. ) ;
#1137 = EDGE_CURVE ( 'NONE', #994, #1002, #259, .T. ) ;
#1138 = EDGE_CURVE ( 'NONE', #1021, #977, #216, .T. ) ;
#1139 = EDGE_CURVE ( 'NONE', #975, #958, #261, .T. ) ;
#1140 = EDGE_CURVE ( 'NONE', #991, #961, #266, .T. ) ;
#1141 = EDGE_CURVE ( 'NONE', #999, #988, #224, .T. ) ;
#1142 = EDGE_CURVE ( 'NONE', #992, #960, #251, .T. ) ;
#1143 = EDGE_CURVE ( 'NONE', #1007, #962, #242, .T. ) ;
#1144 = EDGE_CURVE ( 'NONE', #1002, #987, #230, .T. ) ;
#1145 = EDGE_CURVE ( 'NONE', #958, #1011, #252, .T. ) ;
#1146 = EDGE_CURVE ( 'NONE', #43, #33, #213, .T. ) ;
#1147 = EDGE_CURVE ( 'NONE', #983, #979, #263, .T. ) ;
#1148 = EDGE_CURVE ( 'NONE', #1019, #41, #267, .T. ) ;
#1149 = EDGE_CURVE ( 'NONE', #1020, #73, #231, .T. ) ;
#1150 = EDGE_CURVE ( 'NONE', #976, #964, #235, .T. ) ;
#1151 = EDGE_CURVE ( 'NONE', #42, #80, #234, .T. ) ;
#1152 = EDGE_CURVE ( 'NONE', #961, #994, #214, .T. ) ;
#1153 = EDGE_CURVE ( 'NONE', #33, #43, #243, .T. ) ;
#1154 = EDGE_CURVE ( 'NONE', #977, #986, #236, .T. ) ;
#1155 = EDGE_CURVE ( 'NONE', #1017, #982, #245, .T. ) ;
#1156 = EDGE_CURVE ( 'NONE', #986, #988, #215, .T. ) ;
#1157 = EDGE_CURVE ( 'NONE', #976, #963, #207, .T. ) ;
#1158 = EDGE_CURVE ( 'NONE', #984, #985, #254, .T. ) ;
#1159 = EDGE_CURVE ( 'NONE', #980, #989, #298, .T. ) ;
#1160 = EDGE_CURVE ( 'NONE', #981, #1018, #302, .T. ) ;
#1161 = EDGE_CURVE ( 'NONE', #1021, #975, #296, .T. ) ;
#1162 = EDGE_CURVE ( 'NONE', #987, #961, #277, .T. ) ;
#1163 = EDGE_CURVE ( 'NONE', #1007, #976, #274, .T. ) ;
#1164 = EDGE_CURVE ( 'NONE', #42, #54, #292, .T. ) ;
#1165 = EDGE_CURVE ( 'NONE', #1009, #984, #280, .T. ) ;
#1166 = EDGE_CURVE ( 'NONE', #991, #1006, #305, .T. ) ;
#1167 = EDGE_CURVE ( 'NONE', #979, #1003, #322, .T. ) ;
#1168 = EDGE_CURVE ( 'NONE', #31, #1011, #272, .T. ) ;
#1169 = EDGE_CURVE ( 'NONE', #979, #981, #281, .T. ) ;
#1170 = EDGE_CURVE ( 'NONE', #963, #1015, #293, .T. ) ;
#1171 = EDGE_CURVE ( 'NONE', #974, #990, #290, .T. ) ;
#1172 = EDGE_CURVE ( 'NONE', #1015, #989, #294, .T. ) ;
#1173 = EDGE_CURVE ( 'NONE', #43, #73, #283, .T. ) ;
#1174 = EDGE_CURVE ( 'NONE', #56, #43, #300, .T. ) ;
#1175 = EDGE_CURVE ( 'NONE', #992, #993, #286, .T. ) ;
#1176 = EDGE_CURVE ( 'NONE', #41, #80, #303, .T. ) ;
#1177 = EDGE_CURVE ( 'NONE', #1001, #974, #325, .T. ) ;
#1178 = ADVANCED_FACE ( 'NONE', ( #279 ), #407, .F. ) ;
#1179 = ADVANCED_FACE ( 'NONE', ( #326 ), #412, .F. ) ;
#1180 = ADVANCED_FACE ( 'NONE', ( #309 ), #379, .F. ) ;
#1181 = ADVANCED_FACE ( 'NONE', ( #317, #307 ), #387, .F. ) ;
#1182 = ADVANCED_FACE ( 'NONE', ( #306 ), #285, .F. ) ;
#1183 = ADVANCED_FACE ( 'NONE', ( #311 ), #313, .F. ) ;
#1184 = ADVANCED_FACE ( 'NONE', ( #314 ), #383, .F. ) ;
#1185 = ADVANCED_FACE ( 'NONE', ( #269, #316 ), #404, .F. ) ;
#1186 = ADVANCED_FACE ( 'NONE', ( #308 ), #315, .F. ) ;
#1187 = ADVANCED_FACE ( 'NONE', ( #310 ), #270, .F. ) ;
#1188 = ADVANCED_FACE ( 'NONE', ( #304 ), #417, .F. ) ;
#1189 = ADVANCED_FACE ( 'NONE', ( #319 ), #446, .F. ) ;
#1190 = ADVANCED_FACE ( 'NONE', ( #312 ), #329, .F. ) ;
#1191 = ADVANCED_FACE ( 'NONE', ( #320 ), #425, .F. ) ;
#1192 = ADVANCED_FACE ( 'NONE', ( #278 ), #423, .F. ) ;
#1193 = ADVANCED_FACE ( 'NONE', ( #327 ), #428, .T. ) ;
#1194 = ADVANCED_FACE ( 'NONE', ( #358 ), #342, .F. ) ;
#1195 = ADVANCED_FACE ( 'NONE', ( #328 ), #435, .F. ) ;
#1196 = ADVANCED_FACE ( 'NONE', ( #357 ), #433, .F. ) ;
#1197 = ADVANCED_FACE ( 'NONE', ( #346 ), #359, .F. ) ;
#1198 = ADVANCED_FACE ( 'NONE', ( #362 ), #478, .T. ) ;
#1199 = ADVANCED_FACE ( 'NONE', ( #353 ), #455, .T. ) ;
#1200 = ADVANCED_FACE ( 'NONE', ( #360 ), #480, .F. ) ;
#1201 = ADVANCED_FACE ( 'NONE', ( #332 ), #343, .T. ) ;
#1202 = ADVANCED_FACE ( 'NONE', ( #333 ), #458, .T. ) ;
#1203 = ADVANCED_FACE ( 'NONE', ( #335 ), #473, .F. ) ;
#1204 = ADVANCED_FACE ( 'NONE', ( #350, #340 ), #467, .T. ) ;
#1205 = ADVANCED_FACE ( 'NONE', ( #365 ), #452, .F. ) ;
#1206 = ADVANCED_FACE ( 'NONE', ( #330 ), #355, .F. ) ;
#1207 = ADVANCED_FACE ( 'NONE', ( #337 ), #832, .T. ) ;
#1208 = ADVANCED_FACE ( 'NONE', ( #356 ), #828, .T. ) ;
#1209 = ADVANCED_FACE ( 'NONE', ( #336 ), #361, .F. ) ;
#1210 = ADVANCED_FACE ( 'NONE', ( #345 ), #823, .F. ) ;
#1211 = ADVANCED_FACE ( 'NONE', ( #334 ), #826, .F. ) ;
#1212 = ADVANCED_FACE ( 'NONE', ( #338 ), #836, .T. ) ;
#1213 = ADVANCED_FACE ( 'NONE', ( #347, #366 ), #819, .T. ) ;
#1214 = PRODUCT_DEFINITION_SHAPE ( 'NONE', 'NONE',  #606 ) ;
#1215 = DESIGN_CONTEXT ( 'detailed design', #810, 'design' ) ;
ENDSEC;
END-ISO-10303-21;
