ISO-10303-21;
HEADER;
/* Generated by software containing ST-Developer
 * from STEP Tools, Inc. (www.steptools.com) 
 */

FILE_DESCRIPTION(
/* description */ (''),
/* implementation_level */ '2;1');

FILE_NAME(
/* name */ 'ALP2610.step',
/* time_stamp */ '2023-04-12T14:00:02+02:00',
/* author */ (''),
/* organization */ (''),
/* preprocessor_version */ 'ST-DEVELOPER v19.2',
/* originating_system */ 'Autodesk Translation Framework v12.4.0.73',
/* authorisation */ '');

FILE_SCHEMA (('AUTOMOTIVE_DESIGN { 1 0 10303 214 3 1 1 }'));
ENDSEC;

DATA;
#10=MECHANICAL_DESIGN_GEOMETRIC_PRESENTATION_REPRESENTATION('',(#13),#659);
#11=SHAPE_REPRESENTATION_RELATIONSHIP('SRR','None',#666,#12);
#12=ADVANCED_BREP_SHAPE_REPRESENTATION('',(#14),#658);
#13=STYLED_ITEM('',(#675),#14);
#14=MANIFOLD_SOLID_BREP('Body1',#358);
#15=CYLINDRICAL_SURFACE('',#404,5.);
#16=CYLINDRICAL_SURFACE('',#411,4.);
#17=LINE('',#575,#27);
#18=LINE('',#584,#28);
#19=LINE('',#586,#29);
#20=LINE('',#595,#30);
#21=LINE('',#604,#31);
#22=LINE('',#613,#32);
#23=LINE('',#622,#33);
#24=LINE('',#640,#34);
#25=LINE('',#649,#35);
#26=LINE('',#655,#36);
#27=VECTOR('',#454,3.07656776721535);
#28=VECTOR('',#461,6.74957043532142);
#29=VECTOR('',#462,6.74957043532142);
#30=VECTOR('',#465,6.74957043532142);
#31=VECTOR('',#468,6.74957043532142);
#32=VECTOR('',#471,6.74957043532142);
#33=VECTOR('',#474,6.74957043532142);
#34=VECTOR('',#491,5.);
#35=VECTOR('',#506,4.);
#36=VECTOR('',#515,3.);
#37=(
BOUNDED_CURVE()
B_SPLINE_CURVE(2,(#552,#553,#554),.UNSPECIFIED.,.F.,.F.)
B_SPLINE_CURVE_WITH_KNOTS((3,3),(-3.18822262566017,-1.46897997570334),
 .UNSPECIFIED.)
CURVE()
GEOMETRIC_REPRESENTATION_ITEM()
RATIONAL_B_SPLINE_CURVE((1.96172154393373,2.26520092294054,1.96172154393373))
REPRESENTATION_ITEM('')
);
#38=(
BOUNDED_CURVE()
B_SPLINE_CURVE(2,(#556,#557,#558),.UNSPECIFIED.,.F.,.F.)
B_SPLINE_CURVE_WITH_KNOTS((3,3),(1.46897997570334,3.18822262566016),
 .UNSPECIFIED.)
CURVE()
GEOMETRIC_REPRESENTATION_ITEM()
RATIONAL_B_SPLINE_CURVE((1.96172154393373,2.26520092294054,1.96172154393373))
REPRESENTATION_ITEM('')
);
#39=(
BOUNDED_CURVE()
B_SPLINE_CURVE(2,(#560,#561,#562),.UNSPECIFIED.,.F.,.F.)
B_SPLINE_CURVE_WITH_KNOTS((3,3),(-3.18822262566017,-1.46897997570335),
 .UNSPECIFIED.)
CURVE()
GEOMETRIC_REPRESENTATION_ITEM()
RATIONAL_B_SPLINE_CURVE((1.96172154393372,2.26520092294053,1.96172154393373))
REPRESENTATION_ITEM('')
);
#40=(
BOUNDED_CURVE()
B_SPLINE_CURVE(2,(#564,#565,#566),.UNSPECIFIED.,.F.,.F.)
B_SPLINE_CURVE_WITH_KNOTS((3,3),(-3.18822262566017,-1.46897997570334),
 .UNSPECIFIED.)
CURVE()
GEOMETRIC_REPRESENTATION_ITEM()
RATIONAL_B_SPLINE_CURVE((1.96172154393373,2.26520092294054,1.96172154393373))
REPRESENTATION_ITEM('')
);
#41=(
BOUNDED_CURVE()
B_SPLINE_CURVE(2,(#568,#569,#570),.UNSPECIFIED.,.F.,.F.)
B_SPLINE_CURVE_WITH_KNOTS((3,3),(-3.18822262566017,-1.46897997570334),
 .UNSPECIFIED.)
CURVE()
GEOMETRIC_REPRESENTATION_ITEM()
RATIONAL_B_SPLINE_CURVE((1.96172154393373,2.26520092294054,1.96172154393373))
REPRESENTATION_ITEM('')
);
#42=(
BOUNDED_CURVE()
B_SPLINE_CURVE(2,(#571,#572,#573),.UNSPECIFIED.,.F.,.F.)
B_SPLINE_CURVE_WITH_KNOTS((3,3),(-3.18822262566018,-1.46897997570334),
 .UNSPECIFIED.)
CURVE()
GEOMETRIC_REPRESENTATION_ITEM()
RATIONAL_B_SPLINE_CURVE((1.96172154393373,2.26520092294055,1.96172154393373))
REPRESENTATION_ITEM('')
);
#43=(
BOUNDED_CURVE()
B_SPLINE_CURVE(2,(#581,#582,#583),.UNSPECIFIED.,.F.,.F.)
B_SPLINE_CURVE_WITH_KNOTS((3,3),(1.55164508721899,2.44033835446667),
 .UNSPECIFIED.)
CURVE()
GEOMETRIC_REPRESENTATION_ITEM()
RATIONAL_B_SPLINE_CURVE((2.02389937043517,2.18044853154684,2.18044853154684))
REPRESENTATION_ITEM('')
);
#44=(
BOUNDED_CURVE()
B_SPLINE_CURVE(2,(#587,#588,#589),.UNSPECIFIED.,.F.,.F.)
B_SPLINE_CURVE_WITH_KNOTS((3,3),(2.44033835446667,3.32903162174537),
 .UNSPECIFIED.)
CURVE()
GEOMETRIC_REPRESENTATION_ITEM()
RATIONAL_B_SPLINE_CURVE((2.18044853154684,2.18044853154684,2.02389937042424))
REPRESENTATION_ITEM('')
);
#45=(
BOUNDED_CURVE()
B_SPLINE_CURVE(2,(#592,#593,#594),.UNSPECIFIED.,.F.,.F.)
B_SPLINE_CURVE_WITH_KNOTS((3,3),(1.55164508721899,2.44033835446667),
 .UNSPECIFIED.)
CURVE()
GEOMETRIC_REPRESENTATION_ITEM()
RATIONAL_B_SPLINE_CURVE((2.02389937043517,2.18044853154684,2.18044853154684))
REPRESENTATION_ITEM('')
);
#46=(
BOUNDED_CURVE()
B_SPLINE_CURVE(2,(#596,#597,#598),.UNSPECIFIED.,.F.,.F.)
B_SPLINE_CURVE_WITH_KNOTS((3,3),(2.44033835446667,3.32903162174537),
 .UNSPECIFIED.)
CURVE()
GEOMETRIC_REPRESENTATION_ITEM()
RATIONAL_B_SPLINE_CURVE((2.18044853154684,2.18044853154684,2.02389937042424))
REPRESENTATION_ITEM('')
);
#47=(
BOUNDED_CURVE()
B_SPLINE_CURVE(2,(#601,#602,#603),.UNSPECIFIED.,.F.,.F.)
B_SPLINE_CURVE_WITH_KNOTS((3,3),(1.55164508721899,2.44033835446666),
 .UNSPECIFIED.)
CURVE()
GEOMETRIC_REPRESENTATION_ITEM()
RATIONAL_B_SPLINE_CURVE((2.02389937043517,2.18044853154684,2.18044853154684))
REPRESENTATION_ITEM('')
);
#48=(
BOUNDED_CURVE()
B_SPLINE_CURVE(2,(#605,#606,#607),.UNSPECIFIED.,.F.,.F.)
B_SPLINE_CURVE_WITH_KNOTS((3,3),(2.44033835446666,3.32903162174537),
 .UNSPECIFIED.)
CURVE()
GEOMETRIC_REPRESENTATION_ITEM()
RATIONAL_B_SPLINE_CURVE((2.18044853154684,2.18044853154684,2.02389937042424))
REPRESENTATION_ITEM('')
);
#49=(
BOUNDED_CURVE()
B_SPLINE_CURVE(2,(#610,#611,#612),.UNSPECIFIED.,.F.,.F.)
B_SPLINE_CURVE_WITH_KNOTS((3,3),(1.55164508721899,2.44033835446666),
 .UNSPECIFIED.)
CURVE()
GEOMETRIC_REPRESENTATION_ITEM()
RATIONAL_B_SPLINE_CURVE((2.02389937043517,2.18044853154684,2.18044853154684))
REPRESENTATION_ITEM('')
);
#50=(
BOUNDED_CURVE()
B_SPLINE_CURVE(2,(#614,#615,#616),.UNSPECIFIED.,.F.,.F.)
B_SPLINE_CURVE_WITH_KNOTS((3,3),(2.44033835446666,3.32903162174537),
 .UNSPECIFIED.)
CURVE()
GEOMETRIC_REPRESENTATION_ITEM()
RATIONAL_B_SPLINE_CURVE((2.18044853154684,2.18044853154684,2.02389937042424))
REPRESENTATION_ITEM('')
);
#51=(
BOUNDED_CURVE()
B_SPLINE_CURVE(2,(#619,#620,#621),.UNSPECIFIED.,.F.,.F.)
B_SPLINE_CURVE_WITH_KNOTS((3,3),(1.55164508721899,2.44033835446666),
 .UNSPECIFIED.)
CURVE()
GEOMETRIC_REPRESENTATION_ITEM()
RATIONAL_B_SPLINE_CURVE((2.02389937043517,2.18044853154684,2.18044853154684))
REPRESENTATION_ITEM('')
);
#52=(
BOUNDED_CURVE()
B_SPLINE_CURVE(2,(#623,#624,#625),.UNSPECIFIED.,.F.,.F.)
B_SPLINE_CURVE_WITH_KNOTS((3,3),(2.44033835446666,3.32903162174537),
 .UNSPECIFIED.)
CURVE()
GEOMETRIC_REPRESENTATION_ITEM()
RATIONAL_B_SPLINE_CURVE((2.18044853154684,2.18044853154684,2.02389937042424))
REPRESENTATION_ITEM('')
);
#53=(
BOUNDED_CURVE()
B_SPLINE_CURVE(2,(#627,#628,#629),.UNSPECIFIED.,.F.,.F.)
B_SPLINE_CURVE_WITH_KNOTS((3,3),(-2.44033835446667,-1.55164508721899),
 .UNSPECIFIED.)
CURVE()
GEOMETRIC_REPRESENTATION_ITEM()
RATIONAL_B_SPLINE_CURVE((2.18044853154684,2.18044853154684,2.02389937043517))
REPRESENTATION_ITEM('')
);
#54=(
BOUNDED_CURVE()
B_SPLINE_CURVE(2,(#630,#631,#632),.UNSPECIFIED.,.F.,.F.)
B_SPLINE_CURVE_WITH_KNOTS((3,3),(-3.32903162174537,-2.44033835446667),
 .UNSPECIFIED.)
CURVE()
GEOMETRIC_REPRESENTATION_ITEM()
RATIONAL_B_SPLINE_CURVE((2.02389937042424,2.18044853154684,2.18044853154684))
REPRESENTATION_ITEM('')
);
#55=CONICAL_SURFACE('',#389,3.07656776721535,1.0471975511966);
#56=CONICAL_SURFACE('',#398,13.9282032302755,1.0471975511966);
#57=CONICAL_SURFACE('',#399,13.9282032302755,1.0471975511966);
#58=CONICAL_SURFACE('',#400,13.9282032302755,1.0471975511966);
#59=CONICAL_SURFACE('',#401,13.9282032302755,1.0471975511966);
#60=CONICAL_SURFACE('',#402,13.9282032302755,1.0471975511966);
#61=CONICAL_SURFACE('',#403,13.9282032302755,1.0471975511966);
#62=CONICAL_SURFACE('',#415,3.,0.785398163397443);
#63=SPHERICAL_SURFACE('',#380,7.5);
#64=FACE_BOUND('',#97,.T.);
#65=FACE_BOUND('',#99,.T.);
#66=FACE_BOUND('',#100,.T.);
#67=FACE_BOUND('',#101,.T.);
#68=FACE_BOUND('',#102,.T.);
#69=FACE_BOUND('',#103,.T.);
#70=FACE_BOUND('',#104,.T.);
#71=FACE_OUTER_BOUND('',#96,.T.);
#72=FACE_OUTER_BOUND('',#98,.T.);
#73=FACE_OUTER_BOUND('',#105,.T.);
#74=FACE_OUTER_BOUND('',#106,.T.);
#75=FACE_OUTER_BOUND('',#107,.T.);
#76=FACE_OUTER_BOUND('',#108,.T.);
#77=FACE_OUTER_BOUND('',#109,.T.);
#78=FACE_OUTER_BOUND('',#110,.T.);
#79=FACE_OUTER_BOUND('',#111,.T.);
#80=FACE_OUTER_BOUND('',#112,.T.);
#81=FACE_OUTER_BOUND('',#113,.T.);
#82=FACE_OUTER_BOUND('',#114,.T.);
#83=FACE_OUTER_BOUND('',#115,.T.);
#84=FACE_OUTER_BOUND('',#116,.T.);
#85=FACE_OUTER_BOUND('',#117,.T.);
#86=FACE_OUTER_BOUND('',#118,.T.);
#87=FACE_OUTER_BOUND('',#119,.T.);
#88=FACE_OUTER_BOUND('',#120,.T.);
#89=FACE_OUTER_BOUND('',#121,.T.);
#90=FACE_OUTER_BOUND('',#122,.T.);
#91=FACE_OUTER_BOUND('',#123,.T.);
#92=FACE_OUTER_BOUND('',#124,.T.);
#93=FACE_OUTER_BOUND('',#125,.T.);
#94=FACE_OUTER_BOUND('',#126,.T.);
#95=FACE_OUTER_BOUND('',#127,.T.);
#96=EDGE_LOOP('',(#225,#226,#227,#228,#229,#230));
#97=EDGE_LOOP('',(#231));
#98=EDGE_LOOP('',(#232,#233,#234));
#99=EDGE_LOOP('',(#235));
#100=EDGE_LOOP('',(#236));
#101=EDGE_LOOP('',(#237));
#102=EDGE_LOOP('',(#238));
#103=EDGE_LOOP('',(#239));
#104=EDGE_LOOP('',(#240));
#105=EDGE_LOOP('',(#241,#242,#243,#244,#245,#246,#247,#248,#249,#250));
#106=EDGE_LOOP('',(#251,#252,#253,#254,#255));
#107=EDGE_LOOP('',(#256,#257,#258,#259,#260));
#108=EDGE_LOOP('',(#261,#262,#263,#264,#265));
#109=EDGE_LOOP('',(#266,#267,#268,#269,#270));
#110=EDGE_LOOP('',(#271,#272,#273,#274,#275));
#111=EDGE_LOOP('',(#276,#277,#278,#279,#280));
#112=EDGE_LOOP('',(#281,#282,#283));
#113=EDGE_LOOP('',(#284,#285,#286));
#114=EDGE_LOOP('',(#287,#288,#289));
#115=EDGE_LOOP('',(#290,#291,#292));
#116=EDGE_LOOP('',(#293,#294,#295));
#117=EDGE_LOOP('',(#296,#297,#298));
#118=EDGE_LOOP('',(#299,#300,#301,#302,#303));
#119=EDGE_LOOP('',(#304));
#120=EDGE_LOOP('',(#305));
#121=EDGE_LOOP('',(#306));
#122=EDGE_LOOP('',(#307));
#123=EDGE_LOOP('',(#308));
#124=EDGE_LOOP('',(#309));
#125=EDGE_LOOP('',(#310,#311,#312,#313));
#126=EDGE_LOOP('',(#314));
#127=EDGE_LOOP('',(#315,#316,#317,#318));
#128=CIRCLE('',#373,6.99999999999999);
#129=CIRCLE('',#374,6.99999999999999);
#130=CIRCLE('',#375,6.99999999999999);
#131=CIRCLE('',#376,6.99999999999999);
#132=CIRCLE('',#377,6.99999999999999);
#133=CIRCLE('',#378,6.99999999999999);
#134=CIRCLE('',#379,4.);
#135=CIRCLE('',#381,5.);
#136=CIRCLE('',#382,7.5);
#137=CIRCLE('',#383,2.69258240356725);
#138=CIRCLE('',#384,2.69258240356724);
#139=CIRCLE('',#385,2.69258240356724);
#140=CIRCLE('',#386,2.69258240356724);
#141=CIRCLE('',#387,2.69258240356724);
#142=CIRCLE('',#388,2.69258240356725);
#143=CIRCLE('',#390,5.);
#144=CIRCLE('',#391,5.);
#145=CIRCLE('',#412,4.);
#146=CIRCLE('',#414,3.);
#147=VERTEX_POINT('',#518);
#148=VERTEX_POINT('',#519);
#149=VERTEX_POINT('',#521);
#150=VERTEX_POINT('',#523);
#151=VERTEX_POINT('',#525);
#152=VERTEX_POINT('',#527);
#153=VERTEX_POINT('',#530);
#154=VERTEX_POINT('',#533);
#155=VERTEX_POINT('',#535);
#156=VERTEX_POINT('',#537);
#157=VERTEX_POINT('',#539);
#158=VERTEX_POINT('',#541);
#159=VERTEX_POINT('',#543);
#160=VERTEX_POINT('',#545);
#161=VERTEX_POINT('',#547);
#162=VERTEX_POINT('',#550);
#163=VERTEX_POINT('',#551);
#164=VERTEX_POINT('',#555);
#165=VERTEX_POINT('',#559);
#166=VERTEX_POINT('',#563);
#167=VERTEX_POINT('',#567);
#168=VERTEX_POINT('',#574);
#169=VERTEX_POINT('',#576);
#170=VERTEX_POINT('',#580);
#171=VERTEX_POINT('',#585);
#172=VERTEX_POINT('',#591);
#173=VERTEX_POINT('',#600);
#174=VERTEX_POINT('',#609);
#175=VERTEX_POINT('',#618);
#176=VERTEX_POINT('',#648);
#177=VERTEX_POINT('',#652);
#178=EDGE_CURVE('',#147,#148,#128,.T.);
#179=EDGE_CURVE('',#149,#147,#129,.T.);
#180=EDGE_CURVE('',#150,#149,#130,.T.);
#181=EDGE_CURVE('',#151,#150,#131,.T.);
#182=EDGE_CURVE('',#152,#151,#132,.T.);
#183=EDGE_CURVE('',#148,#152,#133,.T.);
#184=EDGE_CURVE('',#153,#153,#134,.F.);
#185=EDGE_CURVE('',#154,#154,#135,.T.);
#186=EDGE_CURVE('',#155,#154,#136,.T.);
#187=EDGE_CURVE('',#156,#156,#137,.T.);
#188=EDGE_CURVE('',#157,#157,#138,.T.);
#189=EDGE_CURVE('',#158,#158,#139,.T.);
#190=EDGE_CURVE('',#159,#159,#140,.T.);
#191=EDGE_CURVE('',#160,#160,#141,.T.);
#192=EDGE_CURVE('',#161,#161,#142,.T.);
#193=EDGE_CURVE('',#162,#163,#37,.T.);
#194=EDGE_CURVE('',#163,#164,#38,.F.);
#195=EDGE_CURVE('',#164,#165,#39,.T.);
#196=EDGE_CURVE('',#165,#166,#40,.T.);
#197=EDGE_CURVE('',#166,#167,#41,.T.);
#198=EDGE_CURVE('',#167,#162,#42,.T.);
#199=EDGE_CURVE('',#162,#168,#17,.T.);
#200=EDGE_CURVE('',#169,#168,#143,.T.);
#201=EDGE_CURVE('',#168,#169,#144,.T.);
#202=EDGE_CURVE('',#170,#149,#43,.T.);
#203=EDGE_CURVE('',#162,#170,#18,.T.);
#204=EDGE_CURVE('',#167,#171,#19,.T.);
#205=EDGE_CURVE('',#149,#171,#44,.T.);
#206=EDGE_CURVE('',#172,#147,#45,.T.);
#207=EDGE_CURVE('',#163,#172,#20,.T.);
#208=EDGE_CURVE('',#147,#170,#46,.T.);
#209=EDGE_CURVE('',#173,#148,#47,.T.);
#210=EDGE_CURVE('',#164,#173,#21,.T.);
#211=EDGE_CURVE('',#148,#172,#48,.T.);
#212=EDGE_CURVE('',#174,#152,#49,.T.);
#213=EDGE_CURVE('',#165,#174,#22,.T.);
#214=EDGE_CURVE('',#152,#173,#50,.T.);
#215=EDGE_CURVE('',#175,#151,#51,.T.);
#216=EDGE_CURVE('',#166,#175,#23,.T.);
#217=EDGE_CURVE('',#151,#174,#52,.T.);
#218=EDGE_CURVE('',#171,#150,#53,.F.);
#219=EDGE_CURVE('',#150,#175,#54,.F.);
#220=EDGE_CURVE('',#154,#169,#24,.T.);
#221=EDGE_CURVE('',#153,#176,#25,.T.);
#222=EDGE_CURVE('',#176,#176,#145,.F.);
#223=EDGE_CURVE('',#177,#177,#146,.T.);
#224=EDGE_CURVE('',#176,#177,#26,.T.);
#225=ORIENTED_EDGE('',*,*,#178,.F.);
#226=ORIENTED_EDGE('',*,*,#179,.F.);
#227=ORIENTED_EDGE('',*,*,#180,.F.);
#228=ORIENTED_EDGE('',*,*,#181,.F.);
#229=ORIENTED_EDGE('',*,*,#182,.F.);
#230=ORIENTED_EDGE('',*,*,#183,.F.);
#231=ORIENTED_EDGE('',*,*,#184,.F.);
#232=ORIENTED_EDGE('',*,*,#185,.T.);
#233=ORIENTED_EDGE('',*,*,#186,.F.);
#234=ORIENTED_EDGE('',*,*,#186,.T.);
#235=ORIENTED_EDGE('',*,*,#187,.F.);
#236=ORIENTED_EDGE('',*,*,#188,.F.);
#237=ORIENTED_EDGE('',*,*,#189,.F.);
#238=ORIENTED_EDGE('',*,*,#190,.F.);
#239=ORIENTED_EDGE('',*,*,#191,.F.);
#240=ORIENTED_EDGE('',*,*,#192,.F.);
#241=ORIENTED_EDGE('',*,*,#193,.T.);
#242=ORIENTED_EDGE('',*,*,#194,.T.);
#243=ORIENTED_EDGE('',*,*,#195,.T.);
#244=ORIENTED_EDGE('',*,*,#196,.T.);
#245=ORIENTED_EDGE('',*,*,#197,.T.);
#246=ORIENTED_EDGE('',*,*,#198,.T.);
#247=ORIENTED_EDGE('',*,*,#199,.T.);
#248=ORIENTED_EDGE('',*,*,#200,.F.);
#249=ORIENTED_EDGE('',*,*,#201,.F.);
#250=ORIENTED_EDGE('',*,*,#199,.F.);
#251=ORIENTED_EDGE('',*,*,#202,.F.);
#252=ORIENTED_EDGE('',*,*,#203,.F.);
#253=ORIENTED_EDGE('',*,*,#198,.F.);
#254=ORIENTED_EDGE('',*,*,#204,.T.);
#255=ORIENTED_EDGE('',*,*,#205,.F.);
#256=ORIENTED_EDGE('',*,*,#206,.F.);
#257=ORIENTED_EDGE('',*,*,#207,.F.);
#258=ORIENTED_EDGE('',*,*,#193,.F.);
#259=ORIENTED_EDGE('',*,*,#203,.T.);
#260=ORIENTED_EDGE('',*,*,#208,.F.);
#261=ORIENTED_EDGE('',*,*,#209,.F.);
#262=ORIENTED_EDGE('',*,*,#210,.F.);
#263=ORIENTED_EDGE('',*,*,#194,.F.);
#264=ORIENTED_EDGE('',*,*,#207,.T.);
#265=ORIENTED_EDGE('',*,*,#211,.F.);
#266=ORIENTED_EDGE('',*,*,#212,.F.);
#267=ORIENTED_EDGE('',*,*,#213,.F.);
#268=ORIENTED_EDGE('',*,*,#195,.F.);
#269=ORIENTED_EDGE('',*,*,#210,.T.);
#270=ORIENTED_EDGE('',*,*,#214,.F.);
#271=ORIENTED_EDGE('',*,*,#215,.F.);
#272=ORIENTED_EDGE('',*,*,#216,.F.);
#273=ORIENTED_EDGE('',*,*,#196,.F.);
#274=ORIENTED_EDGE('',*,*,#213,.T.);
#275=ORIENTED_EDGE('',*,*,#217,.F.);
#276=ORIENTED_EDGE('',*,*,#218,.F.);
#277=ORIENTED_EDGE('',*,*,#204,.F.);
#278=ORIENTED_EDGE('',*,*,#197,.F.);
#279=ORIENTED_EDGE('',*,*,#216,.T.);
#280=ORIENTED_EDGE('',*,*,#219,.F.);
#281=ORIENTED_EDGE('',*,*,#202,.T.);
#282=ORIENTED_EDGE('',*,*,#179,.T.);
#283=ORIENTED_EDGE('',*,*,#208,.T.);
#284=ORIENTED_EDGE('',*,*,#218,.T.);
#285=ORIENTED_EDGE('',*,*,#180,.T.);
#286=ORIENTED_EDGE('',*,*,#205,.T.);
#287=ORIENTED_EDGE('',*,*,#215,.T.);
#288=ORIENTED_EDGE('',*,*,#181,.T.);
#289=ORIENTED_EDGE('',*,*,#219,.T.);
#290=ORIENTED_EDGE('',*,*,#212,.T.);
#291=ORIENTED_EDGE('',*,*,#182,.T.);
#292=ORIENTED_EDGE('',*,*,#217,.T.);
#293=ORIENTED_EDGE('',*,*,#209,.T.);
#294=ORIENTED_EDGE('',*,*,#183,.T.);
#295=ORIENTED_EDGE('',*,*,#214,.T.);
#296=ORIENTED_EDGE('',*,*,#206,.T.);
#297=ORIENTED_EDGE('',*,*,#178,.T.);
#298=ORIENTED_EDGE('',*,*,#211,.T.);
#299=ORIENTED_EDGE('',*,*,#185,.F.);
#300=ORIENTED_EDGE('',*,*,#220,.T.);
#301=ORIENTED_EDGE('',*,*,#200,.T.);
#302=ORIENTED_EDGE('',*,*,#201,.T.);
#303=ORIENTED_EDGE('',*,*,#220,.F.);
#304=ORIENTED_EDGE('',*,*,#187,.T.);
#305=ORIENTED_EDGE('',*,*,#188,.T.);
#306=ORIENTED_EDGE('',*,*,#189,.T.);
#307=ORIENTED_EDGE('',*,*,#190,.T.);
#308=ORIENTED_EDGE('',*,*,#191,.T.);
#309=ORIENTED_EDGE('',*,*,#192,.T.);
#310=ORIENTED_EDGE('',*,*,#184,.T.);
#311=ORIENTED_EDGE('',*,*,#221,.T.);
#312=ORIENTED_EDGE('',*,*,#222,.T.);
#313=ORIENTED_EDGE('',*,*,#221,.F.);
#314=ORIENTED_EDGE('',*,*,#223,.T.);
#315=ORIENTED_EDGE('',*,*,#222,.F.);
#316=ORIENTED_EDGE('',*,*,#224,.T.);
#317=ORIENTED_EDGE('',*,*,#223,.F.);
#318=ORIENTED_EDGE('',*,*,#224,.F.);
#319=PLANE('',#372);
#320=PLANE('',#392);
#321=PLANE('',#393);
#322=PLANE('',#394);
#323=PLANE('',#395);
#324=PLANE('',#396);
#325=PLANE('',#397);
#326=PLANE('',#405);
#327=PLANE('',#406);
#328=PLANE('',#407);
#329=PLANE('',#408);
#330=PLANE('',#409);
#331=PLANE('',#410);
#332=PLANE('',#413);
#333=ADVANCED_FACE('',(#71,#64),#319,.F.);
#334=ADVANCED_FACE('',(#72,#65,#66,#67,#68,#69,#70),#63,.T.);
#335=ADVANCED_FACE('',(#73),#55,.T.);
#336=ADVANCED_FACE('',(#74),#320,.F.);
#337=ADVANCED_FACE('',(#75),#321,.F.);
#338=ADVANCED_FACE('',(#76),#322,.F.);
#339=ADVANCED_FACE('',(#77),#323,.F.);
#340=ADVANCED_FACE('',(#78),#324,.F.);
#341=ADVANCED_FACE('',(#79),#325,.F.);
#342=ADVANCED_FACE('',(#80),#56,.T.);
#343=ADVANCED_FACE('',(#81),#57,.T.);
#344=ADVANCED_FACE('',(#82),#58,.T.);
#345=ADVANCED_FACE('',(#83),#59,.T.);
#346=ADVANCED_FACE('',(#84),#60,.T.);
#347=ADVANCED_FACE('',(#85),#61,.T.);
#348=ADVANCED_FACE('',(#86),#15,.T.);
#349=ADVANCED_FACE('',(#87),#326,.T.);
#350=ADVANCED_FACE('',(#88),#327,.T.);
#351=ADVANCED_FACE('',(#89),#328,.T.);
#352=ADVANCED_FACE('',(#90),#329,.T.);
#353=ADVANCED_FACE('',(#91),#330,.T.);
#354=ADVANCED_FACE('',(#92),#331,.T.);
#355=ADVANCED_FACE('',(#93),#16,.T.);
#356=ADVANCED_FACE('',(#94),#332,.T.);
#357=ADVANCED_FACE('',(#95),#62,.T.);
#358=CLOSED_SHELL('',(#333,#334,#335,#336,#337,#338,#339,#340,#341,#342,
#343,#344,#345,#346,#347,#348,#349,#350,#351,#352,#353,#354,#355,#356,#357));
#359=DERIVED_UNIT_ELEMENT(#361,1.);
#360=DERIVED_UNIT_ELEMENT(#661,-3.);
#361=(
MASS_UNIT()
NAMED_UNIT(*)
SI_UNIT(.KILO.,.GRAM.)
);
#362=DERIVED_UNIT((#359,#360));
#363=MEASURE_REPRESENTATION_ITEM('density measure',
POSITIVE_RATIO_MEASURE(7700.),#362);
#364=PROPERTY_DEFINITION_REPRESENTATION(#369,#366);
#365=PROPERTY_DEFINITION_REPRESENTATION(#370,#367);
#366=REPRESENTATION('material name',(#368),#658);
#367=REPRESENTATION('density',(#363),#658);
#368=DESCRIPTIVE_REPRESENTATION_ITEM('SolidWorks Materials|Alloy Steel',
'SolidWorks Materials|Alloy Steel');
#369=PROPERTY_DEFINITION('material property','material name',#668);
#370=PROPERTY_DEFINITION('material property','density of part',#668);
#371=AXIS2_PLACEMENT_3D('',#516,#416,#417);
#372=AXIS2_PLACEMENT_3D('',#517,#418,#419);
#373=AXIS2_PLACEMENT_3D('',#520,#420,#421);
#374=AXIS2_PLACEMENT_3D('',#522,#422,#423);
#375=AXIS2_PLACEMENT_3D('',#524,#424,#425);
#376=AXIS2_PLACEMENT_3D('',#526,#426,#427);
#377=AXIS2_PLACEMENT_3D('',#528,#428,#429);
#378=AXIS2_PLACEMENT_3D('',#529,#430,#431);
#379=AXIS2_PLACEMENT_3D('',#531,#432,#433);
#380=AXIS2_PLACEMENT_3D('',#532,#434,#435);
#381=AXIS2_PLACEMENT_3D('',#534,#436,#437);
#382=AXIS2_PLACEMENT_3D('',#536,#438,#439);
#383=AXIS2_PLACEMENT_3D('',#538,#440,#441);
#384=AXIS2_PLACEMENT_3D('',#540,#442,#443);
#385=AXIS2_PLACEMENT_3D('',#542,#444,#445);
#386=AXIS2_PLACEMENT_3D('',#544,#446,#447);
#387=AXIS2_PLACEMENT_3D('',#546,#448,#449);
#388=AXIS2_PLACEMENT_3D('',#548,#450,#451);
#389=AXIS2_PLACEMENT_3D('',#549,#452,#453);
#390=AXIS2_PLACEMENT_3D('',#577,#455,#456);
#391=AXIS2_PLACEMENT_3D('',#578,#457,#458);
#392=AXIS2_PLACEMENT_3D('',#579,#459,#460);
#393=AXIS2_PLACEMENT_3D('',#590,#463,#464);
#394=AXIS2_PLACEMENT_3D('',#599,#466,#467);
#395=AXIS2_PLACEMENT_3D('',#608,#469,#470);
#396=AXIS2_PLACEMENT_3D('',#617,#472,#473);
#397=AXIS2_PLACEMENT_3D('',#626,#475,#476);
#398=AXIS2_PLACEMENT_3D('',#633,#477,#478);
#399=AXIS2_PLACEMENT_3D('',#634,#479,#480);
#400=AXIS2_PLACEMENT_3D('',#635,#481,#482);
#401=AXIS2_PLACEMENT_3D('',#636,#483,#484);
#402=AXIS2_PLACEMENT_3D('',#637,#485,#486);
#403=AXIS2_PLACEMENT_3D('',#638,#487,#488);
#404=AXIS2_PLACEMENT_3D('',#639,#489,#490);
#405=AXIS2_PLACEMENT_3D('',#641,#492,#493);
#406=AXIS2_PLACEMENT_3D('',#642,#494,#495);
#407=AXIS2_PLACEMENT_3D('',#643,#496,#497);
#408=AXIS2_PLACEMENT_3D('',#644,#498,#499);
#409=AXIS2_PLACEMENT_3D('',#645,#500,#501);
#410=AXIS2_PLACEMENT_3D('',#646,#502,#503);
#411=AXIS2_PLACEMENT_3D('',#647,#504,#505);
#412=AXIS2_PLACEMENT_3D('',#650,#507,#508);
#413=AXIS2_PLACEMENT_3D('',#651,#509,#510);
#414=AXIS2_PLACEMENT_3D('',#653,#511,#512);
#415=AXIS2_PLACEMENT_3D('',#654,#513,#514);
#416=DIRECTION('axis',(0.,0.,1.));
#417=DIRECTION('refdir',(1.,0.,0.));
#418=DIRECTION('center_axis',(0.,0.,1.));
#419=DIRECTION('ref_axis',(1.,0.,0.));
#420=DIRECTION('center_axis',(0.,0.,1.));
#421=DIRECTION('ref_axis',(1.,0.,0.));
#422=DIRECTION('center_axis',(0.,0.,1.));
#423=DIRECTION('ref_axis',(1.,0.,0.));
#424=DIRECTION('center_axis',(0.,0.,1.));
#425=DIRECTION('ref_axis',(1.,0.,0.));
#426=DIRECTION('center_axis',(0.,0.,1.));
#427=DIRECTION('ref_axis',(1.,0.,0.));
#428=DIRECTION('center_axis',(0.,0.,1.));
#429=DIRECTION('ref_axis',(1.,0.,0.));
#430=DIRECTION('center_axis',(0.,0.,1.));
#431=DIRECTION('ref_axis',(1.,0.,0.));
#432=DIRECTION('center_axis',(0.,0.,1.));
#433=DIRECTION('ref_axis',(1.,0.,0.));
#434=DIRECTION('center_axis',(6.12323399573677E-17,0.,1.));
#435=DIRECTION('ref_axis',(1.,0.,0.));
#436=DIRECTION('center_axis',(0.,0.,1.));
#437=DIRECTION('ref_axis',(1.,0.,0.));
#438=DIRECTION('center_axis',(1.22464679914735E-16,-1.,0.));
#439=DIRECTION('ref_axis',(-1.,-1.22464679914735E-16,0.));
#440=DIRECTION('center_axis',(-0.866025403784439,0.5,0.));
#441=DIRECTION('ref_axis',(-0.5,-0.866025403784439,0.));
#442=DIRECTION('center_axis',(0.,1.,0.));
#443=DIRECTION('ref_axis',(0.,0.,1.));
#444=DIRECTION('center_axis',(0.866025403784439,0.5,0.));
#445=DIRECTION('ref_axis',(-0.5,0.866025403784439,0.));
#446=DIRECTION('center_axis',(0.866025403784439,-0.5,0.));
#447=DIRECTION('ref_axis',(0.5,0.866025403784439,0.));
#448=DIRECTION('center_axis',(0.,-1.,0.));
#449=DIRECTION('ref_axis',(0.,0.,-1.));
#450=DIRECTION('center_axis',(-0.866025403784439,-0.5,0.));
#451=DIRECTION('ref_axis',(0.5,-0.866025403784439,0.));
#452=DIRECTION('center_axis',(0.,0.,-1.));
#453=DIRECTION('ref_axis',(-1.,0.,0.));
#454=DIRECTION('',(-0.866025403784438,1.06057523872491E-16,0.500000000000001));
#455=DIRECTION('center_axis',(0.,0.,1.));
#456=DIRECTION('ref_axis',(1.,0.,0.));
#457=DIRECTION('center_axis',(0.,0.,1.));
#458=DIRECTION('ref_axis',(1.,0.,0.));
#459=DIRECTION('center_axis',(-0.866025403784439,0.5,0.));
#460=DIRECTION('ref_axis',(0.,0.,1.));
#461=DIRECTION('',(0.,0.,-1.));
#462=DIRECTION('',(0.,0.,-1.));
#463=DIRECTION('center_axis',(-0.866025403784439,-0.5,0.));
#464=DIRECTION('ref_axis',(0.,0.,1.));
#465=DIRECTION('',(0.,0.,-1.));
#466=DIRECTION('center_axis',(0.,-1.,0.));
#467=DIRECTION('ref_axis',(0.,0.,-1.));
#468=DIRECTION('',(0.,0.,-1.));
#469=DIRECTION('center_axis',(0.866025403784439,-0.5,0.));
#470=DIRECTION('ref_axis',(0.,0.,-1.));
#471=DIRECTION('',(0.,0.,-1.));
#472=DIRECTION('center_axis',(0.866025403784439,0.5,0.));
#473=DIRECTION('ref_axis',(0.,0.,-1.));
#474=DIRECTION('',(0.,0.,-1.));
#475=DIRECTION('center_axis',(2.14616371248166E-16,1.,0.));
#476=DIRECTION('ref_axis',(0.,0.,1.));
#477=DIRECTION('center_axis',(0.,0.,1.));
#478=DIRECTION('ref_axis',(1.,0.,0.));
#479=DIRECTION('center_axis',(0.,0.,1.));
#480=DIRECTION('ref_axis',(1.,0.,0.));
#481=DIRECTION('center_axis',(0.,0.,1.));
#482=DIRECTION('ref_axis',(1.,0.,0.));
#483=DIRECTION('center_axis',(0.,0.,1.));
#484=DIRECTION('ref_axis',(-1.,1.22464679914735E-16,0.));
#485=DIRECTION('center_axis',(0.,0.,1.));
#486=DIRECTION('ref_axis',(1.,0.,0.));
#487=DIRECTION('center_axis',(0.,0.,1.));
#488=DIRECTION('ref_axis',(1.,0.,0.));
#489=DIRECTION('center_axis',(0.,0.,1.));
#490=DIRECTION('ref_axis',(1.,0.,0.));
#491=DIRECTION('',(0.,0.,-1.));
#492=DIRECTION('center_axis',(-0.866025403784439,0.5,0.));
#493=DIRECTION('ref_axis',(0.,0.,1.));
#494=DIRECTION('center_axis',(0.,1.,0.));
#495=DIRECTION('ref_axis',(0.,0.,1.));
#496=DIRECTION('center_axis',(0.866025403784439,0.5,0.));
#497=DIRECTION('ref_axis',(0.,0.,-1.));
#498=DIRECTION('center_axis',(0.866025403784439,-0.5,0.));
#499=DIRECTION('ref_axis',(0.,0.,-1.));
#500=DIRECTION('center_axis',(0.,-1.,0.));
#501=DIRECTION('ref_axis',(0.,0.,-1.));
#502=DIRECTION('center_axis',(-0.866025403784439,-0.5,0.));
#503=DIRECTION('ref_axis',(0.,0.,1.));
#504=DIRECTION('center_axis',(0.,0.,1.));
#505=DIRECTION('ref_axis',(1.,0.,0.));
#506=DIRECTION('',(0.,0.,-1.));
#507=DIRECTION('center_axis',(0.,0.,-1.));
#508=DIRECTION('ref_axis',(-1.,0.,0.));
#509=DIRECTION('center_axis',(0.,0.,-1.));
#510=DIRECTION('ref_axis',(-1.,0.,0.));
#511=DIRECTION('center_axis',(0.,0.,-1.));
#512=DIRECTION('ref_axis',(-1.,0.,0.));
#513=DIRECTION('center_axis',(0.,0.,1.));
#514=DIRECTION('ref_axis',(1.,0.,0.));
#515=DIRECTION('',(0.707106781186544,8.65956056235489E-17,-0.707106781186551));
#516=CARTESIAN_POINT('',(0.,0.,0.));
#517=CARTESIAN_POINT('Origin',(0.,0.,0.));
#518=CARTESIAN_POINT('',(6.06217782649107,3.5,0.));
#519=CARTESIAN_POINT('',(0.,7.,0.));
#520=CARTESIAN_POINT('Origin',(0.,0.,0.));
#521=CARTESIAN_POINT('',(6.06217782649107,-3.5,0.));
#522=CARTESIAN_POINT('Origin',(0.,0.,0.));
#523=CARTESIAN_POINT('',(-1.50231459873716E-15,-7.,0.));
#524=CARTESIAN_POINT('Origin',(0.,0.,0.));
#525=CARTESIAN_POINT('',(-6.06217782649107,-3.5,0.));
#526=CARTESIAN_POINT('Origin',(0.,0.,0.));
#527=CARTESIAN_POINT('',(-6.06217782649107,3.5,0.));
#528=CARTESIAN_POINT('Origin',(0.,0.,0.));
#529=CARTESIAN_POINT('Origin',(0.,0.,0.));
#530=CARTESIAN_POINT('',(-4.,-4.89858719658941E-16,-4.44089209850063E-15));
#531=CARTESIAN_POINT('Origin',(0.,0.,0.));
#532=CARTESIAN_POINT('Origin',(0.,-1.10853714847897E-16,16.));
#533=CARTESIAN_POINT('',(-5.,-7.23177114421574E-16,10.4098300562505));
#534=CARTESIAN_POINT('Origin',(0.,0.,10.4098300562505));
#535=CARTESIAN_POINT('',(-4.59242549680257E-16,-1.10853714847897E-16,23.5));
#536=CARTESIAN_POINT('Origin',(0.,-1.10853714847897E-16,16.));
#537=CARTESIAN_POINT('',(-7.4084690282747,1.1681552367278,16.));
#538=CARTESIAN_POINT('Origin',(-6.06217782649107,3.5,16.));
#539=CARTESIAN_POINT('',(0.,7.,18.6925824035672));
#540=CARTESIAN_POINT('Origin',(0.,7.,16.));
#541=CARTESIAN_POINT('',(4.71588662470745,5.8318447632722,16.));
#542=CARTESIAN_POINT('Origin',(6.06217782649107,3.5,16.));
#543=CARTESIAN_POINT('',(7.40846902827469,-1.16815523672781,16.));
#544=CARTESIAN_POINT('Origin',(6.06217782649107,-3.5,16.));
#545=CARTESIAN_POINT('',(0.,-7.,13.3074175964328));
#546=CARTESIAN_POINT('Origin',(0.,-7.,16.));
#547=CARTESIAN_POINT('',(-4.71588662470745,-5.8318447632722,16.));
#548=CARTESIAN_POINT('Origin',(-6.06217782649107,-3.5,16.));
#549=CARTESIAN_POINT('Origin',(0.,0.,10.2651946557455));
#550=CARTESIAN_POINT('',(8.08290376865476,1.94634648728899E-15,7.37478521766071));
#551=CARTESIAN_POINT('',(4.04145188432738,7.,7.37478521766071));
#552=CARTESIAN_POINT('Ctrl Pts',(8.08290376869075,-6.23492863875363E-11,
7.37478521763994));
#553=CARTESIAN_POINT('Ctrl Pts',(6.06217782649106,3.49999999999999,8.54145188434297));
#554=CARTESIAN_POINT('Ctrl Pts',(4.04145188429138,7.00000000006234,7.37478521763994));
#555=CARTESIAN_POINT('',(-4.04145188432738,7.,7.37478521766071));
#556=CARTESIAN_POINT('Ctrl Pts',(-4.04145188439937,7.,7.37478521763993));
#557=CARTESIAN_POINT('Ctrl Pts',(-1.02140518265514E-14,7.,8.54145188434296));
#558=CARTESIAN_POINT('Ctrl Pts',(4.04145188439934,7.,7.37478521763994));
#559=CARTESIAN_POINT('',(-8.08290376865476,-1.69226128787047E-15,7.37478521766071));
#560=CARTESIAN_POINT('Ctrl Pts',(-4.0414518842914,7.00000000006233,7.37478521763993));
#561=CARTESIAN_POINT('Ctrl Pts',(-6.06217782649107,3.5,8.54145188434296));
#562=CARTESIAN_POINT('Ctrl Pts',(-8.08290376869075,-6.23375147683769E-11,
7.37478521763993));
#563=CARTESIAN_POINT('',(-4.04145188432738,-7.,7.37478521766071));
#564=CARTESIAN_POINT('Ctrl Pts',(-8.08290376869074,6.23293651858817E-11,
7.37478521763994));
#565=CARTESIAN_POINT('Ctrl Pts',(-6.06217782649106,-3.50000000000001,8.54145188434297));
#566=CARTESIAN_POINT('Ctrl Pts',(-4.04145188429138,-7.00000000006234,7.37478521763993));
#567=CARTESIAN_POINT('',(4.04145188432738,-7.,7.37478521766071));
#568=CARTESIAN_POINT('Ctrl Pts',(-4.04145188439937,-7.,7.37478521763992));
#569=CARTESIAN_POINT('Ctrl Pts',(-2.88657986402541E-15,-7.,8.54145188434297));
#570=CARTESIAN_POINT('Ctrl Pts',(4.04145188439937,-7.00000000000001,7.37478521763993));
#571=CARTESIAN_POINT('Ctrl Pts',(4.04145188429137,-7.00000000006235,7.37478521763993));
#572=CARTESIAN_POINT('Ctrl Pts',(6.06217782649106,-3.5,8.54145188434298));
#573=CARTESIAN_POINT('Ctrl Pts',(8.08290376869074,6.23533611787837E-11,
7.37478521763994));
#574=CARTESIAN_POINT('',(5.,0.,9.15470053837928));
#575=CARTESIAN_POINT('',(3.07656776721535,-3.7677088684802E-16,10.2651946557455));
#576=CARTESIAN_POINT('',(-5.,-6.12323399573677E-16,9.15470053837928));
#577=CARTESIAN_POINT('Origin',(0.,0.,9.15470053837928));
#578=CARTESIAN_POINT('Origin',(0.,0.,9.15470053837928));
#579=CARTESIAN_POINT('Origin',(4.04145188432738,-7.,8.));
#580=CARTESIAN_POINT('',(8.08290376865476,1.99411382693061E-15,0.625214782339292));
#581=CARTESIAN_POINT('Ctrl Pts',(8.08290376862567,-5.03873222566406E-11,
0.625214782322497));
#582=CARTESIAN_POINT('Ctrl Pts',(6.9999999999883,-1.87564434703812,3.38618022510673E-15));
#583=CARTESIAN_POINT('Ctrl Pts',(6.06217782649106,-3.50000000000002,6.11006226597361E-15));
#584=CARTESIAN_POINT('',(8.08290376865476,1.93999436632749E-15,7.37478521766071));
#585=CARTESIAN_POINT('',(4.04145188432738,-7.,0.625214782339293));
#586=CARTESIAN_POINT('',(4.04145188432738,-7.,7.37478521766071));
#587=CARTESIAN_POINT('Ctrl Pts',(6.06217782649106,-3.50000000000002,6.11006226597361E-15));
#588=CARTESIAN_POINT('Ctrl Pts',(5.12435565296108,-5.12435565301862,8.73666587435829E-15));
#589=CARTESIAN_POINT('Ctrl Pts',(4.04145188427499,-7.00000000009075,0.625214782369542));
#590=CARTESIAN_POINT('Origin',(8.08290376865476,1.93999436632749E-15,8.));
#591=CARTESIAN_POINT('',(4.04145188432738,7.,0.625214782339292));
#592=CARTESIAN_POINT('Ctrl Pts',(4.04145188435647,6.99999999994961,0.625214782322495));
#593=CARTESIAN_POINT('Ctrl Pts',(5.12435565299383,5.12435565296189,1.4432899320127E-15));
#594=CARTESIAN_POINT('Ctrl Pts',(6.06217782649108,3.5,2.64769364858856E-15));
#595=CARTESIAN_POINT('',(4.04145188432738,7.,7.37478521766071));
#596=CARTESIAN_POINT('Ctrl Pts',(6.06217782649108,3.5,2.64769364858856E-15));
#597=CARTESIAN_POINT('Ctrl Pts',(7.00000000002106,1.87564434698139,3.94761164847765E-15));
#598=CARTESIAN_POINT('Ctrl Pts',(8.08290376870715,-9.07360617425973E-11,
0.625214782369537));
#599=CARTESIAN_POINT('Origin',(4.04145188432738,7.,8.));
#600=CARTESIAN_POINT('',(-4.04145188432738,7.,0.625214782339293));
#601=CARTESIAN_POINT('Ctrl Pts',(-4.0414518842692,7.,0.625214782322497));
#602=CARTESIAN_POINT('Ctrl Pts',(-1.87564434699447,7.,3.21964677141295E-15));
#603=CARTESIAN_POINT('Ctrl Pts',(0.,7.,2.85136239078768E-15));
#604=CARTESIAN_POINT('',(-4.04145188432738,7.,7.37478521766071));
#605=CARTESIAN_POINT('Ctrl Pts',(0.,7.,2.85136239078768E-15));
#606=CARTESIAN_POINT('Ctrl Pts',(1.87564434705997,7.,2.94504902091047E-15));
#607=CARTESIAN_POINT('Ctrl Pts',(4.04145188443217,7.,0.62521478236954));
#608=CARTESIAN_POINT('Origin',(-4.04145188432738,7.,8.));
#609=CARTESIAN_POINT('',(-8.08290376865476,-1.57912662499872E-15,0.625214782339291));
#610=CARTESIAN_POINT('Ctrl Pts',(-8.08290376862567,5.0382056114859E-11,
0.625214782322496));
#611=CARTESIAN_POINT('Ctrl Pts',(-6.99999999998831,1.87564434703811,3.49720252756924E-15));
#612=CARTESIAN_POINT('Ctrl Pts',(-6.06217782649107,3.5,4.0733748439824E-15));
#613=CARTESIAN_POINT('',(-8.08290376865476,-1.49404224259312E-15,7.37478521766071));
#614=CARTESIAN_POINT('Ctrl Pts',(-6.06217782649107,3.5,4.0733748439824E-15));
#615=CARTESIAN_POINT('Ctrl Pts',(-5.12435565296109,5.12435565301861,4.69238219578213E-15));
#616=CARTESIAN_POINT('Ctrl Pts',(-4.041451884275,7.00000000009073,0.625214782369537));
#617=CARTESIAN_POINT('Origin',(-8.08290376865476,-1.49404224259312E-15,
8.));
#618=CARTESIAN_POINT('',(-4.04145188432738,-7.,0.625214782339292));
#619=CARTESIAN_POINT('Ctrl Pts',(-4.04145188435647,-6.99999999994961,0.625214782322495));
#620=CARTESIAN_POINT('Ctrl Pts',(-5.12435565299383,-5.12435565296189,1.83186799063151E-15));
#621=CARTESIAN_POINT('Ctrl Pts',(-6.06217782649107,-3.5,2.64769364858856E-15));
#622=CARTESIAN_POINT('',(-4.04145188432738,-7.,7.37478521766071));
#623=CARTESIAN_POINT('Ctrl Pts',(-6.06217782649107,-3.5,2.64769364858856E-15));
#624=CARTESIAN_POINT('Ctrl Pts',(-7.00000000002106,-1.87564434698139,3.30071923678809E-15));
#625=CARTESIAN_POINT('Ctrl Pts',(-8.08290376870715,9.07408890392305E-11,
0.625214782369539));
#626=CARTESIAN_POINT('Origin',(-4.04145188432738,-7.,8.));
#627=CARTESIAN_POINT('Ctrl Pts',(-1.30347995007437E-14,-7.,3.66603735958416E-15));
#628=CARTESIAN_POINT('Ctrl Pts',(1.87564434699447,-7.,1.83186799063151E-15));
#629=CARTESIAN_POINT('Ctrl Pts',(4.0414518842692,-7.,0.625214782322495));
#630=CARTESIAN_POINT('Ctrl Pts',(-4.04145188443215,-7.,0.625214782369536));
#631=CARTESIAN_POINT('Ctrl Pts',(-1.87564434705998,-7.,6.05061503922692E-15));
#632=CARTESIAN_POINT('Ctrl Pts',(-1.30347995007437E-14,-7.,3.66603735958416E-15));
#633=CARTESIAN_POINT('Origin',(0.,0.,4.));
#634=CARTESIAN_POINT('Origin',(0.,0.,4.));
#635=CARTESIAN_POINT('Origin',(0.,0.,4.));
#636=CARTESIAN_POINT('Origin',(0.,0.,4.));
#637=CARTESIAN_POINT('Origin',(0.,0.,4.));
#638=CARTESIAN_POINT('Origin',(0.,0.,4.));
#639=CARTESIAN_POINT('Origin',(0.,0.,0.));
#640=CARTESIAN_POINT('',(-5.,-6.12323399573677E-16,0.));
#641=CARTESIAN_POINT('Origin',(-8.08290376865476,1.70817785743966E-15,23.5));
#642=CARTESIAN_POINT('Origin',(-4.04145188432738,7.,23.5));
#643=CARTESIAN_POINT('Origin',(4.04145188432738,7.,23.5));
#644=CARTESIAN_POINT('Origin',(8.08290376865477,-1.54939992988951E-15,23.5));
#645=CARTESIAN_POINT('Origin',(4.04145188432738,-7.,23.5));
#646=CARTESIAN_POINT('Origin',(-4.04145188432738,-7.,23.5));
#647=CARTESIAN_POINT('Origin',(0.,0.,-35.));
#648=CARTESIAN_POINT('',(-4.,0.,-34.));
#649=CARTESIAN_POINT('',(-4.,-4.89858719658941E-16,-35.));
#650=CARTESIAN_POINT('Origin',(0.,0.,-34.));
#651=CARTESIAN_POINT('Origin',(0.,0.,-35.));
#652=CARTESIAN_POINT('',(-3.,0.,-35.));
#653=CARTESIAN_POINT('Origin',(0.,0.,-35.));
#654=CARTESIAN_POINT('Origin',(0.,0.,-35.));
#655=CARTESIAN_POINT('',(-3.,-3.67394039744205E-16,-35.));
#656=UNCERTAINTY_MEASURE_WITH_UNIT(LENGTH_MEASURE(0.01),#660,
'DISTANCE_ACCURACY_VALUE',
'Maximum model space distance between geometric entities at asserted c
onnectivities');
#657=UNCERTAINTY_MEASURE_WITH_UNIT(LENGTH_MEASURE(0.01),#660,
'DISTANCE_ACCURACY_VALUE',
'Maximum model space distance between geometric entities at asserted c
onnectivities');
#658=(
GEOMETRIC_REPRESENTATION_CONTEXT(3)
GLOBAL_UNCERTAINTY_ASSIGNED_CONTEXT((#656))
GLOBAL_UNIT_ASSIGNED_CONTEXT((#660,#662,#663))
REPRESENTATION_CONTEXT('','3D')
);
#659=(
GEOMETRIC_REPRESENTATION_CONTEXT(3)
GLOBAL_UNCERTAINTY_ASSIGNED_CONTEXT((#657))
GLOBAL_UNIT_ASSIGNED_CONTEXT((#660,#662,#663))
REPRESENTATION_CONTEXT('','3D')
);
#660=(
LENGTH_UNIT()
NAMED_UNIT(*)
SI_UNIT(.MILLI.,.METRE.)
);
#661=(
LENGTH_UNIT()
NAMED_UNIT(*)
SI_UNIT($,.METRE.)
);
#662=(
NAMED_UNIT(*)
PLANE_ANGLE_UNIT()
SI_UNIT($,.RADIAN.)
);
#663=(
NAMED_UNIT(*)
SI_UNIT($,.STERADIAN.)
SOLID_ANGLE_UNIT()
);
#664=SHAPE_DEFINITION_REPRESENTATION(#665,#666);
#665=PRODUCT_DEFINITION_SHAPE('',$,#668);
#666=SHAPE_REPRESENTATION('',(#371),#658);
#667=PRODUCT_DEFINITION_CONTEXT('part definition',#672,'design');
#668=PRODUCT_DEFINITION('Navojni stub M8x35.f3d ',
'Navojni stub M8x35.f3d ',#669,#667);
#669=PRODUCT_DEFINITION_FORMATION('',$,#674);
#670=PRODUCT_RELATED_PRODUCT_CATEGORY('Navojni stub M8x35.f3d ',
'Navojni stub M8x35.f3d ',(#674));
#671=APPLICATION_PROTOCOL_DEFINITION('international standard',
'automotive_design',2009,#672);
#672=APPLICATION_CONTEXT(
'Core Data for Automotive Mechanical Design Process');
#673=PRODUCT_CONTEXT('part definition',#672,'mechanical');
#674=PRODUCT('Navojni stub M8x35.f3d ','Navojni stub M8x35.f3d ',$,(#673));
#675=PRESENTATION_STYLE_ASSIGNMENT((#676));
#676=SURFACE_STYLE_USAGE(.BOTH.,#677);
#677=SURFACE_SIDE_STYLE('',(#678));
#678=SURFACE_STYLE_FILL_AREA(#679);
#679=FILL_AREA_STYLE('Steel - Satin',(#680));
#680=FILL_AREA_STYLE_COLOUR('Steel - Satin',#681);
#681=COLOUR_RGB('Steel - Satin',0.627450980392157,0.627450980392157,0.627450980392157);
ENDSEC;
END-ISO-10303-21;
