ISO-10303-21;
HEADER;
FILE_DESCRIPTION (( 'STEP AP203' ),
    '1' );
FILE_NAME ('ALP2175.STEP',
    '2017-02-17T21:04:51',
    ( '' ),
    ( '' ),
    'SwSTEP 2.0',
    'SolidWorks 2012',
    '' );
FILE_SCHEMA (( 'CONFIG_CONTROL_DESIGN' ));
ENDSEC;

DATA;
#1 = DIRECTION ( 'NONE',  ( 0.7071067811865464600, -0.7071067811865486800, 0.0000000000000000000 ) ) ;
#2 = DIRECTION ( 'NONE',  ( 0.0000000000000000000, -0.0000000000000000000, -1.000000000000000000 ) ) ;
#3 = PLANE ( 'NONE',  #512 ) ;
#4 = DIRECTION ( 'NONE',  ( 0.0000000000000000000, 0.0000000000000000000, 1.000000000000000000 ) ) ;
#5 = PLANE ( 'NONE',  #513 ) ;
#6 = DIRECTION ( 'NONE',  ( 0.0000000000000000000, 0.0000000000000000000, 1.000000000000000000 ) ) ;
#7 = CARTESIAN_POINT ( 'NONE',  ( 4.850000000000010300, -1.799999999999999600, 30.00000000000000000 ) ) ;
#8 = CARTESIAN_POINT ( 'NONE',  ( 3.899999999999999900, -7.800000000000001600, 0.0000000000000000000 ) ) ;
#9 = DIRECTION ( 'NONE',  ( 1.000000000000000000, 0.0000000000000000000, -0.0000000000000000000 ) ) ;
#10 = PLANE ( 'NONE',  #516 ) ;
#11 = PLANE ( 'NONE',  #471 ) ;
#12 = CARTESIAN_POINT ( 'NONE',  ( 0.0000000000000000000, 0.0000000000000000000, 0.0000000000000000000 ) ) ;
#13 = PLANE ( 'NONE',  #510 ) ;
#14 = DIRECTION ( 'NONE',  ( 0.0000000000000000000, -0.0000000000000000000, -1.000000000000000000 ) ) ;
#15 = DIRECTION ( 'NONE',  ( 0.0000000000000000000, 0.0000000000000000000, 1.000000000000000000 ) ) ;
#16 = DIRECTION ( 'NONE',  ( -0.7071067811865486800, -0.7071067811865464600, 0.0000000000000000000 ) ) ;
#17 = CARTESIAN_POINT ( 'NONE',  ( -3.899999999999999900, -7.800000000000001600, 0.0000000000000000000 ) ) ;
#18 = CARTESIAN_POINT ( 'NONE',  ( 7.849999999999999600, -3.000000000000000000, 19.99999999999999600 ) ) ;
#19 = CARTESIAN_POINT ( 'NONE',  ( 0.0000000000000000000, -1.799999999999999600, 0.0000000000000000000 ) ) ;
#20 = CARTESIAN_POINT ( 'NONE',  ( 3.899999999999999900, -7.800000000000001600, 30.00000000000000000 ) ) ;
#21 = CARTESIAN_POINT ( 'NONE',  ( -7.849999999999999600, -3.000000000000000000, 30.00000000000000000 ) ) ;
#22 = DIRECTION ( 'NONE',  ( -0.0000000000000000000, 0.0000000000000000000, -1.000000000000000000 ) ) ;
#23 = DIRECTION ( 'NONE',  ( 1.000000000000000000, 0.0000000000000000000, -0.0000000000000000000 ) ) ;
#24 = CARTESIAN_POINT ( 'NONE',  ( 3.899999999999999900, -5.500000000000000900, 30.00000000000000000 ) ) ;
#25 = DIRECTION ( 'NONE',  ( -1.000000000000000000, 0.0000000000000000000, 0.0000000000000000000 ) ) ;
#26 = DIRECTION ( 'NONE',  ( 0.0000000000000000000, 0.0000000000000000000, -1.000000000000000000 ) ) ;
#27 = DIRECTION ( 'NONE',  ( -1.000000000000000000, 0.0000000000000000000, -0.0000000000000000000 ) ) ;
#28 = CARTESIAN_POINT ( 'NONE',  ( -3.900000000000000800, -1.799999999999999600, 30.00000000000000000 ) ) ;
#29 = CARTESIAN_POINT ( 'NONE',  ( -7.849999999999999600, -3.000000000000000000, 0.0000000000000000000 ) ) ;
#30 = CARTESIAN_POINT ( 'NONE',  ( 3.900000000000002100, -1.799999999999999600, 22.19999999999999900 ) ) ;
#31 = CARTESIAN_POINT ( 'NONE',  ( -3.899999999999999900, -5.500000000000000900, 30.00000000000000000 ) ) ;
#32 = CARTESIAN_POINT ( 'NONE',  ( 3.061616997868380200E-016, -7.800000000000001600, 7.500000000000002700 ) ) ;
#33 = PLANE ( 'NONE',  #514 ) ;
#34 = PLANE ( 'NONE',  #515 ) ;
#35 = CARTESIAN_POINT ( 'NONE',  ( -4.850000000000008500, 2.731275049377394200E-017, 30.00000000000000000 ) ) ;
#36 = DIRECTION ( 'NONE',  ( 0.0000000000000000000, -1.000000000000000000, 0.0000000000000000000 ) ) ;
#37 = DIRECTION ( 'NONE',  ( 0.0000000000000000000, -1.000000000000000000, 0.0000000000000000000 ) ) ;
#38 = DIRECTION ( 'NONE',  ( 1.000000000000000000, 0.0000000000000000000, -0.0000000000000000000 ) ) ;
#39 = CARTESIAN_POINT ( 'NONE',  ( 0.0000000000000000000, 1.734723475976807100E-015, 10.00000000000000000 ) ) ;
#40 = DIRECTION ( 'NONE',  ( -0.0000000000000000000, 1.000000000000000000, -0.0000000000000000000 ) ) ;
#41 = DIRECTION ( 'NONE',  ( -0.0000000000000000000, 0.0000000000000000000, -1.000000000000000000 ) ) ;
#42 = CARTESIAN_POINT ( 'NONE',  ( -3.899999999999999500, 13.19999999999999900, 22.19999999999999900 ) ) ;
#43 = CARTESIAN_POINT ( 'NONE',  ( 3.704556567420743300E-016, 1.734723475976807100E-015, 6.975000000000000500 ) ) ;
#44 = CARTESIAN_POINT ( 'NONE',  ( -2.499999999999998200, 7.200000000000002800, 22.72500000000000100 ) ) ;
#45 = DIRECTION ( 'NONE',  ( -1.000000000000000000, 0.0000000000000000000, 0.0000000000000000000 ) ) ;
#46 = CARTESIAN_POINT ( 'NONE',  ( 0.0000000000000000000, 7.200000000000002800, 22.72500000000000100 ) ) ;
#47 = DIRECTION ( 'NONE',  ( -0.0000000000000000000, -0.0000000000000000000, -1.000000000000000000 ) ) ;
#48 = DIRECTION ( 'NONE',  ( -0.0000000000000000000, -0.0000000000000000000, -1.000000000000000000 ) ) ;
#49 = DIRECTION ( 'NONE',  ( -0.0000000000000000000, -0.0000000000000000000, -1.000000000000000000 ) ) ;
#50 = CARTESIAN_POINT ( 'NONE',  ( 4.850000000000008500, 2.731275049377394200E-017, 30.00000000000000000 ) ) ;
#51 = DIRECTION ( 'NONE',  ( 0.0000000000000000000, 0.7071067811865580100, 0.7071067811865369100 ) ) ;
#52 = DIRECTION ( 'NONE',  ( -0.0000000000000000000, -0.0000000000000000000, -1.000000000000000000 ) ) ;
#53 = CARTESIAN_POINT ( 'NONE',  ( -4.850000000000008500, 2.731275049377394200E-017, 30.00000000000000000 ) ) ;
#54 = CARTESIAN_POINT ( 'NONE',  ( 3.899999999999999000, 0.0000000000000000000, 19.99999999999999600 ) ) ;
#55 = CARTESIAN_POINT ( 'NONE',  ( -2.499999999999997800, 7.200000000000002800, 22.19999999999999900 ) ) ;
#56 = CARTESIAN_POINT ( 'NONE',  ( 0.0000000000000000000, 1.734723475976807100E-015, 13.02500000000000000 ) ) ;
#57 = DIRECTION ( 'NONE',  ( -1.000000000000000000, -0.0000000000000000000, -0.0000000000000000000 ) ) ;
#58 = DIRECTION ( 'NONE',  ( -0.0000000000000000000, -0.0000000000000000000, 1.000000000000000000 ) ) ;
#59 = CARTESIAN_POINT ( 'NONE',  ( -7.849999999999999600, -3.000000000000000000, 0.0000000000000000000 ) ) ;
#60 = DIRECTION ( 'NONE',  ( 0.0000000000000000000, -1.000000000000000000, 0.0000000000000000000 ) ) ;
#61 = CARTESIAN_POINT ( 'NONE',  ( -4.850000000000008500, 2.731275049377394200E-017, 0.0000000000000000000 ) ) ;
#62 = CARTESIAN_POINT ( 'NONE',  ( -3.900000000000000800, 0.0000000000000000000, 19.99999999999999600 ) ) ;
#63 = CARTESIAN_POINT ( 'NONE',  ( -7.849999999999999600, -5.500000000000000000, 0.0000000000000000000 ) ) ;
#64 = CARTESIAN_POINT ( 'NONE',  ( 0.0000000000000000000, -7.800000000000001600, 10.00000000000000000 ) ) ;
#65 = CARTESIAN_POINT ( 'NONE',  ( 3.704556567420743300E-016, 1.734723475976807100E-015, 6.975000000000000500 ) ) ;
#66 = DIRECTION ( 'NONE',  ( -0.0000000000000000000, -0.0000000000000000000, 1.000000000000000000 ) ) ;
#67 = DIRECTION ( 'NONE',  ( 0.0000000000000000000, 0.0000000000000000000, -1.000000000000000000 ) ) ;
#68 = DIRECTION ( 'NONE',  ( 8.659560562354803400E-017, 0.7071067811865580100, -0.7071067811865369100 ) ) ;
#69 = DIRECTION ( 'NONE',  ( 6.938893903907232300E-016, -0.0000000000000000000, -1.000000000000000000 ) ) ;
#70 = DIRECTION ( 'NONE',  ( 0.0000000000000000000, 0.0000000000000000000, 1.000000000000000000 ) ) ;
#71 = DIRECTION ( 'NONE',  ( -0.0000000000000000000, 1.000000000000000000, -0.0000000000000000000 ) ) ;
#72 = DIRECTION ( 'NONE',  ( 0.0000000000000000000, 0.0000000000000000000, 1.000000000000000000 ) ) ;
#73 = DIRECTION ( 'NONE',  ( -0.7071067811865479100, 0.0000000000000000000, -0.7071067811865472400 ) ) ;
#74 = CARTESIAN_POINT ( 'NONE',  ( 0.0000000000000000000, -0.5250000000000254500, 10.00000000000000000 ) ) ;
#75 = CARTESIAN_POINT ( 'NONE',  ( 0.0000000000000000000, -0.5250000000000254500, 10.00000000000000000 ) ) ;
#76 = DIRECTION ( 'NONE',  ( 1.000000000000000000, -2.195852501236465000E-016, 0.0000000000000000000 ) ) ;
#77 = CARTESIAN_POINT ( 'NONE',  ( 0.0000000000000000000, 1.734723475976807100E-015, 10.00000000000000000 ) ) ;
#78 = DIRECTION ( 'NONE',  ( 0.0000000000000000000, 0.0000000000000000000, 1.000000000000000000 ) ) ;
#79 = CARTESIAN_POINT ( 'NONE',  ( 0.0000000000000000000, 0.0000000000000000000, 12.49999999999999300 ) ) ;
#80 = CARTESIAN_POINT ( 'NONE',  ( 3.061616997868373800E-016, 0.0000000000000000000, 7.500000000000007100 ) ) ;
#81 = DIRECTION ( 'NONE',  ( -0.0000000000000000000, 1.000000000000000000, -0.0000000000000000000 ) ) ;
#82 = DIRECTION ( 'NONE',  ( -1.112002228190260700E-016, 1.000000000000000000, -0.0000000000000000000 ) ) ;
#83 = CARTESIAN_POINT ( 'NONE',  ( -7.849999999999996100, -1.799999999999999600, 24.50000000000000000 ) ) ;
#84 = DIRECTION ( 'NONE',  ( 0.0000000000000000000, 0.0000000000000000000, 1.000000000000000000 ) ) ;
#85 = DIRECTION ( 'NONE',  ( -0.0000000000000000000, 1.000000000000000000, -0.0000000000000000000 ) ) ;
#86 = CARTESIAN_POINT ( 'NONE',  ( 0.0000000000000000000, 1.734723475976807100E-015, 10.00000000000000000 ) ) ;
#87 = CARTESIAN_POINT ( 'NONE',  ( 3.024999999999999900, 7.200000000000002800, 22.19999999999999900 ) ) ;
#88 = CARTESIAN_POINT ( 'NONE',  ( -3.899999999999999500, 13.19999999999999900, 22.19999999999999900 ) ) ;
#89 = DIRECTION ( 'NONE',  ( -0.0000000000000000000, 1.000000000000000000, -0.0000000000000000000 ) ) ;
#90 = CARTESIAN_POINT ( 'NONE',  ( -3.900000000000000800, 0.0000000000000000000, 19.99999999999999600 ) ) ;
#91 = DIRECTION ( 'NONE',  ( -0.0000000000000000000, 1.000000000000000000, -0.0000000000000000000 ) ) ;
#92 = DIRECTION ( 'NONE',  ( 1.885568995626964300E-016, -0.0000000000000000000, -1.000000000000000000 ) ) ;
#93 = CARTESIAN_POINT ( 'NONE',  ( -3.899999999999999900, -1.799999999999999600, 30.00000000000000000 ) ) ;
#94 = CARTESIAN_POINT ( 'NONE',  ( -3.899999999999999900, -1.799999999999999600, 24.50000000000000000 ) ) ;
#95 = CARTESIAN_POINT ( 'NONE',  ( -3.024999999999999900, 7.200000000000002800, 22.19999999999999900 ) ) ;
#96 = CARTESIAN_POINT ( 'NONE',  ( -4.850000000000008500, 2.731275049377394200E-017, 22.19999999999999900 ) ) ;
#97 = DIRECTION ( 'NONE',  ( 0.0000000000000000000, 0.0000000000000000000, 1.000000000000000000 ) ) ;
#98 = DIRECTION ( 'NONE',  ( -1.000000000000000000, 0.0000000000000000000, 0.0000000000000000000 ) ) ;
#99 = CARTESIAN_POINT ( 'NONE',  ( -7.849999999999996100, 13.19999999999999900, 24.50000000000000000 ) ) ;
#100 = DIRECTION ( 'NONE',  ( -0.0000000000000000000, 1.000000000000000000, -0.0000000000000000000 ) ) ;
#101 = DIRECTION ( 'NONE',  ( -0.0000000000000000000, 1.000000000000000000, -0.0000000000000000000 ) ) ;
#102 = DIRECTION ( 'NONE',  ( -0.0000000000000000000, 1.000000000000000000, -0.0000000000000000000 ) ) ;
#103 = DIRECTION ( 'NONE',  ( -0.0000000000000000000, 1.000000000000000000, -0.0000000000000000000 ) ) ;
#104 = DIRECTION ( 'NONE',  ( -0.0000000000000000000, -0.0000000000000000000, -1.000000000000000000 ) ) ;
#105 = DIRECTION ( 'NONE',  ( 0.0000000000000000000, 0.0000000000000000000, 1.000000000000000000 ) ) ;
#106 = DIRECTION ( 'NONE',  ( -1.000000000000000000, 0.0000000000000000000, 0.0000000000000000000 ) ) ;
#107 = DIRECTION ( 'NONE',  ( -1.000000000000000000, 0.0000000000000000000, 0.0000000000000000000 ) ) ;
#108 = DIRECTION ( 'NONE',  ( 0.7071067811865479100, 8.659560562354937800E-017, -0.7071067811865472400 ) ) ;
#109 = DIRECTION ( 'NONE',  ( -0.0000000000000000000, 1.000000000000000000, -0.0000000000000000000 ) ) ;
#110 = CARTESIAN_POINT ( 'NONE',  ( 2.499999999999997800, 7.200000000000002800, 22.19999999999999900 ) ) ;
#111 = CARTESIAN_POINT ( 'NONE',  ( 3.899999999999999000, 0.0000000000000000000, 19.99999999999999600 ) ) ;
#112 = DIRECTION ( 'NONE',  ( -0.0000000000000000000, 1.000000000000000000, -0.0000000000000000000 ) ) ;
#113 = DIRECTION ( 'NONE',  ( -1.000000000000000000, 0.0000000000000000000, 0.0000000000000000000 ) ) ;
#114 = CARTESIAN_POINT ( 'NONE',  ( 7.849999999999999600, -5.500000000000000000, 19.99999999999999600 ) ) ;
#115 = DIRECTION ( 'NONE',  ( -1.000000000000000000, -0.0000000000000000000, -0.0000000000000000000 ) ) ;
#116 = CARTESIAN_POINT ( 'NONE',  ( 0.0000000000000000000, 7.200000000000002800, 30.00000000000000400 ) ) ;
#117 = CARTESIAN_POINT ( 'NONE',  ( -3.899999999999999500, -1.799999999999999600, 22.19999999999999900 ) ) ;
#118 = CARTESIAN_POINT ( 'NONE',  ( 0.0000000000000000000, 7.200000000000002800, 22.19999999999999900 ) ) ;
#119 = DIRECTION ( 'NONE',  ( -0.0000000000000000000, -0.0000000000000000000, -1.000000000000000000 ) ) ;
#120 = DIRECTION ( 'NONE',  ( -1.000000000000000000, 0.0000000000000000000, 0.0000000000000000000 ) ) ;
#121 = DIRECTION ( 'NONE',  ( -0.0000000000000000000, -0.0000000000000000000, -1.000000000000000000 ) ) ;
#122 = DIRECTION ( 'NONE',  ( 1.000000000000000000, -0.0000000000000000000, -0.0000000000000000000 ) ) ;
#123 = CARTESIAN_POINT ( 'NONE',  ( -3.899999999999999900, 13.19999999999999900, 24.50000000000000000 ) ) ;
#124 = DIRECTION ( 'NONE',  ( -0.0000000000000000000, 1.000000000000000000, -0.0000000000000000000 ) ) ;
#125 = CARTESIAN_POINT ( 'NONE',  ( -3.900000000000000800, 0.0000000000000000000, 19.99999999999999600 ) ) ;
#126 = DIRECTION ( 'NONE',  ( -0.0000000000000000000, -0.0000000000000000000, -1.000000000000000000 ) ) ;
#127 = CARTESIAN_POINT ( 'NONE',  ( 3.900000000000001700, -1.799999999999999600, 24.50000000000000000 ) ) ;
#128 = CARTESIAN_POINT ( 'NONE',  ( 0.0000000000000000000, -7.800000000000001600, 10.00000000000000000 ) ) ;
#129 = CARTESIAN_POINT ( 'NONE',  ( 0.0000000000000000000, 7.200000000000002800, 22.72500000000000100 ) ) ;
#130 = CARTESIAN_POINT ( 'NONE',  ( 7.849999999999997900, -1.799999999999999600, 27.00000000000000400 ) ) ;
#131 = CARTESIAN_POINT ( 'NONE',  ( 3.899999999999999900, -5.500000000000000900, 30.00000000000000000 ) ) ;
#132 = CARTESIAN_POINT ( 'NONE',  ( 3.900000000000002100, -1.799999999999999600, 22.19999999999999900 ) ) ;
#133 = DIRECTION ( 'NONE',  ( 1.000000000000000000, -0.0000000000000000000, -0.0000000000000000000 ) ) ;
#134 = DIRECTION ( 'NONE',  ( -0.0000000000000000000, -0.0000000000000000000, -1.000000000000000000 ) ) ;
#135 = DIRECTION ( 'NONE',  ( -0.0000000000000000000, -0.0000000000000000000, -1.000000000000000000 ) ) ;
#136 = DIRECTION ( 'NONE',  ( -1.000000000000000000, 0.0000000000000000000, 0.0000000000000000000 ) ) ;
#137 = CARTESIAN_POINT ( 'NONE',  ( 7.849999999999999600, -3.000000000000000000, 0.0000000000000000000 ) ) ;
#138 = CARTESIAN_POINT ( 'NONE',  ( 0.0000000000000000000, 7.200000000000002800, 30.00000000000000400 ) ) ;
#139 = DIRECTION ( 'NONE',  ( -0.0000000000000000000, -0.0000000000000000000, -1.000000000000000000 ) ) ;
#140 = DIRECTION ( 'NONE',  ( -0.0000000000000000000, 1.000000000000000000, -0.0000000000000000000 ) ) ;
#141 = CARTESIAN_POINT ( 'NONE',  ( -3.899999999999999900, -7.800000000000001600, 30.00000000000000000 ) ) ;
#142 = CARTESIAN_POINT ( 'NONE',  ( -3.899999999999999900, -1.799999999999999600, 24.50000000000000000 ) ) ;
#143 = DIRECTION ( 'NONE',  ( -0.0000000000000000000, 1.000000000000000000, -0.0000000000000000000 ) ) ;
#144 = DIRECTION ( 'NONE',  ( -0.0000000000000000000, 1.000000000000000000, -0.0000000000000000000 ) ) ;
#145 = DIRECTION ( 'NONE',  ( 1.000000000000000000, 2.195852501236465300E-016, 0.0000000000000000000 ) ) ;
#146 = CARTESIAN_POINT ( 'NONE',  ( -7.849999999999997900, -1.799999999999999600, 27.00000000000000000 ) ) ;
#147 = CARTESIAN_POINT ( 'NONE',  ( -4.850000000000010300, -1.799999999999999600, 30.00000000000000000 ) ) ;
#148 = DIRECTION ( 'NONE',  ( -1.000000000000000000, -0.0000000000000000000, -0.0000000000000000000 ) ) ;
#149 = CARTESIAN_POINT ( 'NONE',  ( 4.850000000000008500, 2.731275049377394200E-017, 19.99999999999999600 ) ) ;
#150 = DIRECTION ( 'NONE',  ( -0.0000000000000000000, 1.000000000000000000, -0.0000000000000000000 ) ) ;
#151 = CARTESIAN_POINT ( 'NONE',  ( -4.850000000000008500, 2.731275049377394200E-017, 19.99999999999999600 ) ) ;
#152 = CARTESIAN_POINT ( 'NONE',  ( 7.849999999999999600, -3.000000000000000000, 30.00000000000000000 ) ) ;
#153 = DIRECTION ( 'NONE',  ( 0.7071067811865464600, 0.7071067811865486800, 0.0000000000000000000 ) ) ;
#154 = CARTESIAN_POINT ( 'NONE',  ( 7.849999999999999600, -5.500000000000000000, 30.00000000000000000 ) ) ;
#155 = DIRECTION ( 'NONE',  ( 6.938893903907232300E-016, 0.0000000000000000000, 1.000000000000000000 ) ) ;
#156 = CARTESIAN_POINT ( 'NONE',  ( -4.850000000000010300, 13.19999999999999900, 30.00000000000000000 ) ) ;
#157 = CARTESIAN_POINT ( 'NONE',  ( -7.849999999999999600, -5.500000000000000000, 30.00000000000000000 ) ) ;
#158 = CARTESIAN_POINT ( 'NONE',  ( -3.899999999999999900, -5.500000000000000900, 30.00000000000000000 ) ) ;
#159 = CARTESIAN_POINT ( 'NONE',  ( 7.849999999999996100, -1.799999999999999600, 24.50000000000000400 ) ) ;
#160 = DIRECTION ( 'NONE',  ( 1.112002228190260700E-016, -1.000000000000000000, 0.0000000000000000000 ) ) ;
#161 = DIRECTION ( 'NONE',  ( -0.0000000000000000000, 1.000000000000000000, -0.0000000000000000000 ) ) ;
#162 = DIRECTION ( 'NONE',  ( 0.0000000000000000000, 0.0000000000000000000, 1.000000000000000000 ) ) ;
#163 = DIRECTION ( 'NONE',  ( -0.0000000000000000000, -0.0000000000000000000, -1.000000000000000000 ) ) ;
#164 = DIRECTION ( 'NONE',  ( 1.000000000000000000, -0.0000000000000000000, -0.0000000000000000000 ) ) ;
#165 = DIRECTION ( 'NONE',  ( -1.000000000000000000, -0.0000000000000000000, -0.0000000000000000000 ) ) ;
#166 = CARTESIAN_POINT ( 'NONE',  ( -4.850000000000008500, 2.731275049377394200E-017, 0.0000000000000000000 ) ) ;
#167 = CARTESIAN_POINT ( 'NONE',  ( 7.849999999999996100, 13.19999999999999900, 24.50000000000000400 ) ) ;
#168 = DIRECTION ( 'NONE',  ( -0.0000000000000000000, 1.000000000000000000, -0.0000000000000000000 ) ) ;
#169 = DIRECTION ( 'NONE',  ( -0.7071067811865464600, 0.7071067811865486800, -0.0000000000000000000 ) ) ;
#170 = DIRECTION ( 'NONE',  ( -0.7071067811865464600, 0.7071067811865486800, 0.0000000000000000000 ) ) ;
#171 = CARTESIAN_POINT ( 'NONE',  ( 3.899999999999999900, -7.800000000000001600, 0.0000000000000000000 ) ) ;
#172 = CARTESIAN_POINT ( 'NONE',  ( 3.899999999999999900, -5.500000000000000900, 0.0000000000000000000 ) ) ;
#173 = DIRECTION ( 'NONE',  ( -0.7071067811865464600, -0.7071067811865486800, 0.0000000000000000000 ) ) ;
#174 = CARTESIAN_POINT ( 'NONE',  ( 3.899999999999999000, 0.0000000000000000000, 19.99999999999999600 ) ) ;
#175 = CARTESIAN_POINT ( 'NONE',  ( 7.849999999999999600, -5.500000000000000000, 0.0000000000000000000 ) ) ;
#176 = DIRECTION ( 'NONE',  ( -0.0000000000000000000, -0.0000000000000000000, -1.000000000000000000 ) ) ;
#177 = CARTESIAN_POINT ( 'NONE',  ( 4.850000000000008500, 2.731275049377394200E-017, 0.0000000000000000000 ) ) ;
#178 = CARTESIAN_POINT ( 'NONE',  ( 3.899999999999999900, -1.799999999999999600, 30.00000000000000000 ) ) ;
#179 = DIRECTION ( 'NONE',  ( -1.885568995626964300E-016, 0.0000000000000000000, 1.000000000000000000 ) ) ;
#180 = CARTESIAN_POINT ( 'NONE',  ( -7.849999999999997900, -1.799999999999999600, 27.00000000000000000 ) ) ;
#181 = CARTESIAN_POINT ( 'NONE',  ( -3.899999999999999900, -5.500000000000000900, 30.00000000000000000 ) ) ;
#182 = CARTESIAN_POINT ( 'NONE',  ( 3.899999999999999900, -5.500000000000000900, 30.00000000000000000 ) ) ;
#183 = DIRECTION ( 'NONE',  ( 6.938893903907232300E-016, -0.0000000000000000000, -1.000000000000000000 ) ) ;
#184 = CARTESIAN_POINT ( 'NONE',  ( -7.849999999999999600, -5.500000000000000000, 19.99999999999999600 ) ) ;
#185 = DIRECTION ( 'NONE',  ( -0.0000000000000000000, -0.0000000000000000000, -1.000000000000000000 ) ) ;
#186 = DIRECTION ( 'NONE',  ( 1.000000000000000000, 2.195852501236465000E-016, -0.0000000000000000000 ) ) ;
#187 = DIRECTION ( 'NONE',  ( -0.0000000000000000000, -0.0000000000000000000, -1.000000000000000000 ) ) ;
#188 = CARTESIAN_POINT ( 'NONE',  ( -7.849999999999999600, -3.000000000000000000, 30.00000000000000000 ) ) ;
#189 = CARTESIAN_POINT ( 'NONE',  ( 7.849999999999999600, -3.000000000000000000, 19.99999999999999600 ) ) ;
#190 = DIRECTION ( 'NONE',  ( -0.0000000000000000000, 1.000000000000000000, -0.0000000000000000000 ) ) ;
#191 = CARTESIAN_POINT ( 'NONE',  ( 3.900000000000002100, 13.19999999999999900, 22.19999999999999900 ) ) ;
#192 = DIRECTION ( 'NONE',  ( 0.0000000000000000000, 1.000000000000000000, 0.0000000000000000000 ) ) ;
#193 = DIRECTION ( 'NONE',  ( -0.0000000000000000000, -0.0000000000000000000, -1.000000000000000000 ) ) ;
#194 = CARTESIAN_POINT ( 'NONE',  ( -3.899999999999999900, -5.500000000000000900, 0.0000000000000000000 ) ) ;
#195 = CARTESIAN_POINT ( 'NONE',  ( 3.899999999999999900, -7.800000000000001600, 30.00000000000000000 ) ) ;
#196 = DIRECTION ( 'NONE',  ( 0.0000000000000000000, -1.000000000000000000, 0.0000000000000000000 ) ) ;
#197 = DIRECTION ( 'NONE',  ( -0.7071067811865461300, -0.0000000000000000000, -0.7071067811865489100 ) ) ;
#198 = DIRECTION ( 'NONE',  ( 1.000000000000000000, -0.0000000000000000000, -0.0000000000000000000 ) ) ;
#199 = CARTESIAN_POINT ( 'NONE',  ( 3.900000000000002100, 13.19999999999999900, 22.19999999999999900 ) ) ;
#200 = DIRECTION ( 'NONE',  ( 0.0000000000000000000, -1.000000000000000000, 0.0000000000000000000 ) ) ;
#201 = DIRECTION ( 'NONE',  ( 1.000000000000000000, -0.0000000000000000000, -0.0000000000000000000 ) ) ;
#202 = CARTESIAN_POINT ( 'NONE',  ( -7.849999999999996100, -1.799999999999999600, 24.50000000000000000 ) ) ;
#203 = CARTESIAN_POINT ( 'NONE',  ( -4.850000000000010300, -1.799999999999999600, 30.00000000000000000 ) ) ;
#204 = DIRECTION ( 'NONE',  ( -0.0000000000000000000, 1.000000000000000000, -0.0000000000000000000 ) ) ;
#205 = DIRECTION ( 'NONE',  ( -1.000000000000000000, -0.0000000000000000000, -0.0000000000000000000 ) ) ;
#206 = DIRECTION ( 'NONE',  ( -0.0000000000000000000, -0.0000000000000000000, -1.000000000000000000 ) ) ;
#207 = DIRECTION ( 'NONE',  ( 6.938893903907232300E-016, 0.0000000000000000000, 1.000000000000000000 ) ) ;
#208 = PLANE ( 'NONE',  #496 ) ;
#209 = DIRECTION ( 'NONE',  ( -0.0000000000000000000, -0.0000000000000000000, -1.000000000000000000 ) ) ;
#210 = CARTESIAN_POINT ( 'NONE',  ( 3.900000000000001700, 13.19999999999999900, 24.50000000000000000 ) ) ;
#211 = CARTESIAN_POINT ( 'NONE',  ( -7.849999999999997900, 13.19999999999999900, 27.00000000000000000 ) ) ;
#212 = CARTESIAN_POINT ( 'NONE',  ( 3.900000000000001700, -1.799999999999999600, 24.50000000000000000 ) ) ;
#213 = DIRECTION ( 'NONE',  ( -0.0000000000000000000, -0.0000000000000000000, -1.000000000000000000 ) ) ;
#214 = CARTESIAN_POINT ( 'NONE',  ( 0.0000000000000000000, 7.200000000000002800, 22.19999999999999900 ) ) ;
#215 = CARTESIAN_POINT ( 'NONE',  ( -4.850000000000010300, -1.799999999999999600, 30.00000000000000000 ) ) ;
#216 = DIRECTION ( 'NONE',  ( 1.000000000000000000, 0.0000000000000000000, 8.783410004945871000E-016 ) ) ;
#217 = CARTESIAN_POINT ( 'NONE',  ( 7.849999999999997900, -1.799999999999999600, 27.00000000000000400 ) ) ;
#218 = DIRECTION ( 'NONE',  ( -1.000000000000000000, 0.0000000000000000000, 0.0000000000000000000 ) ) ;
#219 = CARTESIAN_POINT ( 'NONE',  ( 4.850000000000010300, -1.799999999999999600, 30.00000000000000000 ) ) ;
#220 = DIRECTION ( 'NONE',  ( -1.000000000000000000, 2.195852501236465300E-016, 0.0000000000000000000 ) ) ;
#221 = CARTESIAN_POINT ( 'NONE',  ( -7.849999999999999600, -3.000000000000000000, 19.99999999999999600 ) ) ;
#222 = DIRECTION ( 'NONE',  ( 0.0000000000000000000, 1.000000000000000000, 0.0000000000000000000 ) ) ;
#223 = CARTESIAN_POINT ( 'NONE',  ( 7.849999999999997900, 13.19999999999999900, 27.00000000000000400 ) ) ;
#224 = DIRECTION ( 'NONE',  ( -0.7071067811865465700, 0.0000000000000000000, 0.7071067811865485700 ) ) ;
#225 = DIRECTION ( 'NONE',  ( 1.000000000000000000, 0.0000000000000000000, 8.783410004945871000E-016 ) ) ;
#226 = DIRECTION ( 'NONE',  ( -0.7071067811865465700, 0.0000000000000000000, 0.7071067811865485700 ) ) ;
#227 = PLANE ( 'NONE',  #499 ) ;
#228 = CARTESIAN_POINT ( 'NONE',  ( 3.899999999999999900, -7.800000000000001600, 30.00000000000000000 ) ) ;
#229 = CARTESIAN_POINT ( 'NONE',  ( 3.899999999999999900, -7.800000000000001600, 30.00000000000000000 ) ) ;
#230 = DIRECTION ( 'NONE',  ( 0.0000000000000000000, 1.000000000000000000, -0.0000000000000000000 ) ) ;
#231 = CARTESIAN_POINT ( 'NONE',  ( 3.899999999999999500, -5.500000000000000000, 19.99999999999999600 ) ) ;
#232 = CARTESIAN_POINT ( 'NONE',  ( 0.0000000000000000000, 7.200000000000002800, 22.19999999999999900 ) ) ;
#233 = CARTESIAN_POINT ( 'NONE',  ( 7.849999999999999600, -3.000000000000000000, 30.00000000000000000 ) ) ;
#234 = DIRECTION ( 'NONE',  ( -0.0000000000000000000, 1.000000000000000000, -0.0000000000000000000 ) ) ;
#235 = DIRECTION ( 'NONE',  ( -0.7071067811865461300, -0.0000000000000000000, -0.7071067811865489100 ) ) ;
#236 = DIRECTION ( 'NONE',  ( -1.000000000000000000, 0.0000000000000000000, 0.0000000000000000000 ) ) ;
#237 = DIRECTION ( 'NONE',  ( 0.0000000000000000000, 0.0000000000000000000, 1.000000000000000000 ) ) ;
#238 = DIRECTION ( 'NONE',  ( 0.0000000000000000000, 0.0000000000000000000, 1.000000000000000000 ) ) ;
#239 = CARTESIAN_POINT ( 'NONE',  ( 7.849999999999996100, -1.799999999999999600, 24.50000000000000400 ) ) ;
#240 = DIRECTION ( 'NONE',  ( -0.0000000000000000000, 1.000000000000000000, -0.0000000000000000000 ) ) ;
#241 = CARTESIAN_POINT ( 'NONE',  ( -7.849999999999997900, -1.799999999999999600, 27.00000000000000000 ) ) ;
#242 = DIRECTION ( 'NONE',  ( 0.7071067811865489100, 0.0000000000000000000, -0.7071067811865461300 ) ) ;
#243 = PLANE ( 'NONE',  #498 ) ;
#244 = DIRECTION ( 'NONE',  ( 2.195852501236465300E-016, 1.000000000000000000, -0.0000000000000000000 ) ) ;
#245 = DIRECTION ( 'NONE',  ( -1.000000000000000000, 0.0000000000000000000, -0.0000000000000000000 ) ) ;
#246 = DIRECTION ( 'NONE',  ( -1.000000000000000000, 2.195852501236465300E-016, 0.0000000000000000000 ) ) ;
#247 = CARTESIAN_POINT ( 'NONE',  ( -4.850000000000008500, 2.731275049377394200E-017, 30.00000000000000000 ) ) ;
#248 = DIRECTION ( 'NONE',  ( 1.000000000000000000, 0.0000000000000000000, 0.0000000000000000000 ) ) ;
#249 = DIRECTION ( 'NONE',  ( -1.000000000000000000, -2.195852501236465300E-016, 0.0000000000000000000 ) ) ;
#250 = DIRECTION ( 'NONE',  ( -0.0000000000000000000, -0.0000000000000000000, -1.000000000000000000 ) ) ;
#251 = PLANE ( 'NONE',  #485 ) ;
#252 = CARTESIAN_POINT ( 'NONE',  ( 0.0000000000000000000, 7.200000000000002800, 22.19999999999999900 ) ) ;
#253 = DIRECTION ( 'NONE',  ( -1.000000000000000000, 0.0000000000000000000, 0.0000000000000000000 ) ) ;
#254 = DIRECTION ( 'NONE',  ( -0.0000000000000000000, 1.000000000000000000, -0.0000000000000000000 ) ) ;
#255 = DIRECTION ( 'NONE',  ( 0.0000000000000000000, 0.0000000000000000000, 1.000000000000000000 ) ) ;
#256 = CARTESIAN_POINT ( 'NONE',  ( 0.0000000000000000000, 7.200000000000002800, 22.19999999999999900 ) ) ;
#257 = PLANE ( 'NONE',  #474 ) ;
#258 = DIRECTION ( 'NONE',  ( -2.195852501236465300E-016, 1.000000000000000000, 0.0000000000000000000 ) ) ;
#259 = CARTESIAN_POINT ( 'NONE',  ( -7.849999999999999600, -5.500000000000000000, 30.00000000000000000 ) ) ;
#260 = PLANE ( 'NONE',  #481 ) ;
#261 = DIRECTION ( 'NONE',  ( 0.7071067811865486800, -0.7071067811865464600, 0.0000000000000000000 ) ) ;
#262 = DIRECTION ( 'NONE',  ( -0.0000000000000000000, 0.0000000000000000000, 1.000000000000000000 ) ) ;
#263 = CARTESIAN_POINT ( 'NONE',  ( 0.0000000000000000000, 0.0000000000000000000, 10.00000000000000000 ) ) ;
#264 = CARTESIAN_POINT ( 'NONE',  ( 0.0000000000000000000, 7.200000000000002800, 22.19999999999999900 ) ) ;
#265 = DIRECTION ( 'NONE',  ( -0.0000000000000000000, -0.0000000000000000000, -1.000000000000000000 ) ) ;
#266 = DIRECTION ( 'NONE',  ( -1.000000000000000000, 0.0000000000000000000, 0.0000000000000000000 ) ) ;
#267 = CARTESIAN_POINT ( 'NONE',  ( 0.0000000000000000000, 0.0000000000000000000, 30.00000000000000000 ) ) ;
#268 = CARTESIAN_POINT ( 'NONE',  ( 7.849999999999999600, -5.500000000000000000, 30.00000000000000000 ) ) ;
#269 = CARTESIAN_POINT ( 'NONE',  ( 0.0000000000000000000, 0.0000000000000000000, 19.99999999999999600 ) ) ;
#270 = DIRECTION ( 'NONE',  ( -1.000000000000000000, 0.0000000000000000000, 0.0000000000000000000 ) ) ;
#271 = PLANE ( 'NONE',  #482 ) ;
#272 = DIRECTION ( 'NONE',  ( 0.0000000000000000000, 0.0000000000000000000, -1.000000000000000000 ) ) ;
#273 = DIRECTION ( 'NONE',  ( -0.0000000000000000000, -0.0000000000000000000, -1.000000000000000000 ) ) ;
#274 = CARTESIAN_POINT ( 'NONE',  ( 7.849999999999996100, -1.799999999999999600, 24.50000000000000400 ) ) ;
#275 = PLANE ( 'NONE',  #501 ) ;
#276 = DIRECTION ( 'NONE',  ( 6.938893903907233300E-016, 0.0000000000000000000, 1.000000000000000000 ) ) ;
#277 = CARTESIAN_POINT ( 'NONE',  ( -7.849999999999996100, -1.799999999999999600, 24.50000000000000000 ) ) ;
#278 = DIRECTION ( 'NONE',  ( -1.000000000000000000, 0.0000000000000000000, 6.938893903907233300E-016 ) ) ;
#279 = DIRECTION ( 'NONE',  ( 0.0000000000000000000, 0.0000000000000000000, 1.000000000000000000 ) ) ;
#280 = CARTESIAN_POINT ( 'NONE',  ( 0.0000000000000000000, 0.0000000000000000000, 10.00000000000000000 ) ) ;
#281 = DIRECTION ( 'NONE',  ( 1.000000000000000000, 0.0000000000000000000, 6.938893903907233300E-016 ) ) ;
#282 = DIRECTION ( 'NONE',  ( 0.7071067811865464600, 0.7071067811865486800, 0.0000000000000000000 ) ) ;
#283 = DIRECTION ( 'NONE',  ( 6.938893903907233300E-016, 0.0000000000000000000, -1.000000000000000000 ) ) ;
#284 = PLANE ( 'NONE',  #503 ) ;
#285 = PLANE ( 'NONE',  #491 ) ;
#286 = DIRECTION ( 'NONE',  ( -1.000000000000000000, 0.0000000000000000000, 0.0000000000000000000 ) ) ;
#287 = CARTESIAN_POINT ( 'NONE',  ( 7.849999999999997900, -1.799999999999999600, 27.00000000000000400 ) ) ;
#288 = DIRECTION ( 'NONE',  ( 0.0000000000000000000, 0.0000000000000000000, -1.000000000000000000 ) ) ;
#289 = DIRECTION ( 'NONE',  ( -0.7071067811865461300, 0.0000000000000000000, -0.7071067811865489100 ) ) ;
#290 = DIRECTION ( 'NONE',  ( -0.0000000000000000000, 1.000000000000000000, -0.0000000000000000000 ) ) ;
#291 = CARTESIAN_POINT ( 'NONE',  ( 0.0000000000000000000, 1.734723475976807100E-015, 10.00000000000000000 ) ) ;
#292 = DIRECTION ( 'NONE',  ( -0.7071067811865485700, 0.0000000000000000000, -0.7071067811865465700 ) ) ;
#293 = DIRECTION ( 'NONE',  ( 0.0000000000000000000, 0.0000000000000000000, 1.000000000000000000 ) ) ;
#294 = CARTESIAN_POINT ( 'NONE',  ( -3.899999999999999900, -1.799999999999999600, 24.50000000000000000 ) ) ;
#295 = DIRECTION ( 'NONE',  ( 0.0000000000000000000, 0.0000000000000000000, 1.000000000000000000 ) ) ;
#296 = CARTESIAN_POINT ( 'NONE',  ( 0.0000000000000000000, 13.19999999999999900, 0.0000000000000000000 ) ) ;
#297 = DIRECTION ( 'NONE',  ( 0.0000000000000000000, -0.0000000000000000000, -1.000000000000000000 ) ) ;
#298 = PLANE ( 'NONE',  #508 ) ;
#299 = PLANE ( 'NONE',  #511 ) ;
#300 = CARTESIAN_POINT ( 'NONE',  ( 0.0000000000000000000, 0.0000000000000000000, 19.99999999999999600 ) ) ;
#301 = CARTESIAN_POINT ( 'NONE',  ( 4.850000000000008500, 2.731275049377394200E-017, 30.00000000000000000 ) ) ;
#302 = PLANE ( 'NONE',  #494 ) ;
#303 = DIRECTION ( 'NONE',  ( 0.0000000000000000000, -0.0000000000000000000, -1.000000000000000000 ) ) ;
#304 = PLANE ( 'NONE',  #479 ) ;
#305 = DIRECTION ( 'NONE',  ( 1.000000000000000000, 0.0000000000000000000, -0.0000000000000000000 ) ) ;
#306 = DIRECTION ( 'NONE',  ( 0.0000000000000000000, -1.000000000000000000, 0.0000000000000000000 ) ) ;
#307 = DIRECTION ( 'NONE',  ( -0.7071067811865465700, 0.0000000000000000000, 0.7071067811865485700 ) ) ;
#308 = PLANE ( 'NONE',  #502 ) ;
#309 = CARTESIAN_POINT ( 'NONE',  ( 0.0000000000000000000, -1.799999999999999600, 0.0000000000000000000 ) ) ;
#310 = DIRECTION ( 'NONE',  ( 0.0000000000000000000, -1.000000000000000000, 0.0000000000000000000 ) ) ;
#311 = DIRECTION ( 'NONE',  ( 1.000000000000000000, 0.0000000000000000000, 8.783410004945871000E-016 ) ) ;
#312 = DIRECTION ( 'NONE',  ( -8.783410004945871000E-016, 0.0000000000000000000, 1.000000000000000000 ) ) ;
#313 = CARTESIAN_POINT ( 'NONE',  ( 3.900000000000001700, -1.799999999999999600, 24.50000000000000000 ) ) ;
#314 = PLANE ( 'NONE',  #495 ) ;
#315 = DIRECTION ( 'NONE',  ( -1.000000000000000000, 0.0000000000000000000, -0.0000000000000000000 ) ) ;
#316 = PLANE ( 'NONE',  #506 ) ;
#317 = PRODUCT ( 'ALP2175', 'ALP2175', '', ( #319 ) ) ;
#318 = PERSON ( 'UNSPECIFIED', 'UNSPECIFIED', 'UNSPECIFIED', ('UNSPECIFIED'), ('UNSPECIFIED'), ('UNSPECIFIED') ) ;
#319 = MECHANICAL_CONTEXT ( 'NONE', #385, 'mechanical' ) ;
#320 = DIRECTION ( 'NONE',  ( 0.0000000000000000000, 0.0000000000000000000, 1.000000000000000000 ) ) ;
#321 = APPROVAL_ROLE ( '' ) ;
#322 = PERSON_AND_ORGANIZATION_ROLE ( 'creator' ) ;
#323 = APPROVAL_STATUS ( 'not_yet_approved' ) ;
#324 = DIRECTION ( 'NONE',  ( 1.000000000000000000, 0.0000000000000000000, 0.0000000000000000000 ) ) ;
#325 = APPLICATION_PROTOCOL_DEFINITION ( 'international standard', 'config_control_design', 1994, #328 ) ;
#326 = PERSON_AND_ORGANIZATION_ROLE ( 'creator' ) ;
#327 = PERSON_AND_ORGANIZATION_ROLE ( 'design_owner' ) ;
#328 = APPLICATION_CONTEXT ( 'configuration controlled 3d designs of mechanical parts and assemblies' ) ;
#329 = APPROVAL_STATUS ( 'not_yet_approved' ) ;
#330 = CARTESIAN_POINT ( 'NONE',  ( 0.0000000000000000000, 0.0000000000000000000, 0.0000000000000000000 ) ) ;
#331 = PERSON_AND_ORGANIZATION_ROLE ( 'design_supplier' ) ;
#332 = DATE_TIME_ROLE ( 'classification_date' ) ;
#333 = APPROVAL_ROLE ( '' ) ;
#334 = APPROVAL_STATUS ( 'not_yet_approved' ) ;
#335 = DATE_TIME_ROLE ( 'creation_date' ) ;
#336 = PERSON_AND_ORGANIZATION_ROLE ( 'classification_officer' ) ;
#337 = SECURITY_CLASSIFICATION_LEVEL ( 'unclassified' ) ;
#338 = APPROVAL_ROLE ( '' ) ;
#339 = CARTESIAN_POINT ( 'NONE',  ( 7.849999999999996100, -1.799999999999999600, 24.50000000000000400 ) ) ;
#340 = CARTESIAN_POINT ( 'NONE',  ( 0.0000000000000000000, -0.5250000000000254500, 12.49999999999998900 ) ) ;
#341 = CARTESIAN_POINT ( 'NONE',  ( -3.899999999999999900, -5.500000000000000900, 0.0000000000000000000 ) ) ;
#342 = CARTESIAN_POINT ( 'NONE',  ( -2.499999999999997300, 7.200000000000002800, 30.00000000000000400 ) ) ;
#343 = CARTESIAN_POINT ( 'NONE',  ( -4.850000000000008500, 2.731275049377394200E-017, 0.0000000000000000000 ) ) ;
#344 = CARTESIAN_POINT ( 'NONE',  ( 4.850000000000008500, 0.0000000000000000000, 19.99999999999999600 ) ) ;
#345 = CARTESIAN_POINT ( 'NONE',  ( 2.499999999999997300, 7.200000000000002800, 30.00000000000000400 ) ) ;
#346 = CARTESIAN_POINT ( 'NONE',  ( 3.900000000000002100, 0.0000000000000000000, 22.19999999999999900 ) ) ;
#347 = CARTESIAN_POINT ( 'NONE',  ( 0.0000000000000000000, 1.734723475976807100E-015, 13.02500000000000000 ) ) ;
#348 = CARTESIAN_POINT ( 'NONE',  ( 3.061616997868371800E-016, -0.5250000000000254500, 7.500000000000011500 ) ) ;
#349 = CARTESIAN_POINT ( 'NONE',  ( 3.900000000000001700, 13.19999999999999900, 24.50000000000000000 ) ) ;
#350 = CARTESIAN_POINT ( 'NONE',  ( 7.849999999999999600, -3.000000000000000000, 0.0000000000000000000 ) ) ;
#351 = CARTESIAN_POINT ( 'NONE',  ( -7.849999999999996100, -1.799999999999999600, 24.50000000000000000 ) ) ;
#352 = CARTESIAN_POINT ( 'NONE',  ( 7.849999999999999600, -5.500000000000000000, 19.99999999999999600 ) ) ;
#353 = CARTESIAN_POINT ( 'NONE',  ( -3.899999999999999900, -1.799999999999999600, 24.50000000000000000 ) ) ;
#354 = CARTESIAN_POINT ( 'NONE',  ( 3.900000000000002100, 13.19999999999999900, 22.19999999999999900 ) ) ;
#355 = CARTESIAN_POINT ( 'NONE',  ( 0.0000000000000000000, -7.800000000000001600, 12.49999999999999600 ) ) ;
#356 = CARTESIAN_POINT ( 'NONE',  ( -3.899999999999999900, 13.19999999999999900, 24.50000000000000000 ) ) ;
#357 = CARTESIAN_POINT ( 'NONE',  ( 2.499999999999998200, 7.200000000000002800, 22.72500000000000100 ) ) ;
#358 = CARTESIAN_POINT ( 'NONE',  ( -3.899999999999999900, -7.800000000000001600, 30.00000000000000000 ) ) ;
#359 = CARTESIAN_POINT ( 'NONE',  ( 3.899999999999999900, -5.500000000000000900, 0.0000000000000000000 ) ) ;
#360 = CARTESIAN_POINT ( 'NONE',  ( -7.849999999999999600, -3.000000000000000000, 19.99999999999999600 ) ) ;
#361 = CARTESIAN_POINT ( 'NONE',  ( 7.849999999999997900, -1.799999999999999600, 27.00000000000000400 ) ) ;
#362 = CARTESIAN_POINT ( 'NONE',  ( -3.900000000000000400, -5.500000000000000900, 19.99999999999999600 ) ) ;
#363 = CARTESIAN_POINT ( 'NONE',  ( -3.024999999999999900, 7.200000000000002800, 22.19999999999999900 ) ) ;
#364 = CARTESIAN_POINT ( 'NONE',  ( 4.850000000000008500, 2.731275049377394200E-017, 0.0000000000000000000 ) ) ;
#365 = CARTESIAN_POINT ( 'NONE',  ( 3.900000000000001700, -1.799999999999999600, 24.50000000000000000 ) ) ;
#366 = CARTESIAN_POINT ( 'NONE',  ( -3.899999999999999500, 0.0000000000000000000, 22.19999999999999900 ) ) ;
#367 = CARTESIAN_POINT ( 'NONE',  ( 3.899999999999999900, -1.799999999999999600, 30.00000000000000000 ) ) ;
#368 = CARTESIAN_POINT ( 'NONE',  ( -4.850000000000010300, -1.799999999999999600, 30.00000000000000000 ) ) ;
#369 = CARTESIAN_POINT ( 'NONE',  ( -7.849999999999997900, 13.19999999999999900, 27.00000000000000000 ) ) ;
#370 = CARTESIAN_POINT ( 'NONE',  ( -4.850000000000008500, 6.828187623443463100E-018, 19.99999999999999600 ) ) ;
#371 = CARTESIAN_POINT ( 'NONE',  ( -3.900000000000000800, 0.0000000000000000000, 19.99999999999999600 ) ) ;
#372 = CARTESIAN_POINT ( 'NONE',  ( 4.850000000000010300, 13.19999999999999900, 30.00000000000000000 ) ) ;
#373 = CARTESIAN_POINT ( 'NONE',  ( 7.849999999999999600, -5.500000000000000000, 0.0000000000000000000 ) ) ;
#374 = CARTESIAN_POINT ( 'NONE',  ( 3.024999999999999900, 7.200000000000002800, 22.19999999999999900 ) ) ;
#375 = CARTESIAN_POINT ( 'NONE',  ( -7.849999999999999600, -5.500000000000000000, 19.99999999999999600 ) ) ;
#376 = CARTESIAN_POINT ( 'NONE',  ( 3.899999999999999000, 0.0000000000000000000, 19.99999999999999600 ) ) ;
#377 =( LENGTH_UNIT ( ) NAMED_UNIT ( * ) SI_UNIT ( .MILLI., .METRE. ) );
#378 = CARTESIAN_POINT ( 'NONE',  ( -7.849999999999999600, -5.500000000000000000, 0.0000000000000000000 ) ) ;
#379 = CARTESIAN_POINT ( 'NONE',  ( -4.850000000000010300, 13.19999999999999900, 30.00000000000000000 ) ) ;
#380 = CARTESIAN_POINT ( 'NONE',  ( -7.849999999999997900, -1.799999999999999600, 27.00000000000000000 ) ) ;
#381 =( NAMED_UNIT ( * ) PLANE_ANGLE_UNIT ( ) SI_UNIT ( $, .RADIAN. ) );
#382 =( NAMED_UNIT ( * ) SI_UNIT ( $, .STERADIAN. ) SOLID_ANGLE_UNIT ( ) );
#383 = CARTESIAN_POINT ( 'NONE',  ( -7.849999999999996100, 13.19999999999999900, 24.50000000000000000 ) ) ;
#384 = APPLICATION_PROTOCOL_DEFINITION ( 'international standard', 'config_control_design', 1994, #385 ) ;
#385 = APPLICATION_CONTEXT ( 'configuration controlled 3d designs of mechanical parts and assemblies' ) ;
#386 = CARTESIAN_POINT ( 'NONE',  ( 7.849999999999996100, 13.19999999999999900, 24.50000000000000400 ) ) ;
#387 = CARTESIAN_POINT ( 'NONE',  ( 7.849999999999997900, 13.19999999999999900, 27.00000000000000400 ) ) ;
#388 = EDGE_CURVE ( 'NONE', #832, #811, #844, .T. ) ;
#389 = EDGE_CURVE ( 'NONE', #774, #827, #853, .T. ) ;
#390 = EDGE_CURVE ( 'NONE', #805, #774, #872, .T. ) ;
#391 = EDGE_CURVE ( 'NONE', #830, #791, #869, .T. ) ;
#392 = EDGE_CURVE ( 'NONE', #803, #812, #850, .T. ) ;
#393 = EDGE_CURVE ( 'NONE', #821, #812, #854, .T. ) ;
#394 = EDGE_CURVE ( 'NONE', #798, #803, #873, .T. ) ;
#395 = EDGE_CURVE ( 'NONE', #777, #855, #876, .T. ) ;
#396 = EDGE_CURVE ( 'NONE', #819, #784, #840, .T. ) ;
#397 = EDGE_CURVE ( 'NONE', #783, #811, #857, .T. ) ;
#398 = EDGE_CURVE ( 'NONE', #832, #787, #846, .T. ) ;
#399 = EDGE_CURVE ( 'NONE', #787, #832, #835, .T. ) ;
#400 = EDGE_CURVE ( 'NONE', #784, #787, #843, .T. ) ;
#401 = EDGE_CURVE ( 'NONE', #811, #783, #849, .T. ) ;
#402 = EDGE_CURVE ( 'NONE', #797, #823, #851, .T. ) ;
#403 = EDGE_CURVE ( 'NONE', #855, #833, #856, .T. ) ;
#404 = EDGE_CURVE ( 'NONE', #774, #786, #862, .T. ) ;
#405 = EDGE_CURVE ( 'NONE', #823, #790, #838, .T. ) ;
#406 = EDGE_CURVE ( 'NONE', #819, #832, #858, .T. ) ;
#407 = EDGE_CURVE ( 'NONE', #809, #871, #863, .T. ) ;
#408 = EDGE_CURVE ( 'NONE', #822, #766, #841, .T. ) ;
#409 = EDGE_CURVE ( 'NONE', #769, #817, #865, .T. ) ;
#410 = EDGE_CURVE ( 'NONE', #787, #783, #891, .T. ) ;
#411 = EDGE_CURVE ( 'NONE', #791, #790, #914, .T. ) ;
#412 = EDGE_CURVE ( 'NONE', #820, #871, #915, .T. ) ;
#413 = EDGE_CURVE ( 'NONE', #827, #826, #909, .T. ) ;
#414 = EDGE_CURVE ( 'NONE', #817, #822, #883, .T. ) ;
#415 = EDGE_CURVE ( 'NONE', #871, #822, #905, .T. ) ;
#416 = EDGE_CURVE ( 'NONE', #826, #786, #910, .T. ) ;
#417 = EDGE_CURVE ( 'NONE', #798, #830, #889, .T. ) ;
#418 = EDGE_CURVE ( 'NONE', #828, #827, #911, .T. ) ;
#419 = EDGE_CURVE ( 'NONE', #828, #805, #920, .T. ) ;
#420 = EDGE_CURVE ( 'NONE', #790, #766, #918, .T. ) ;
#421 = EDGE_CURVE ( 'NONE', #827, #774, #884, .T. ) ;
#422 = EDGE_CURVE ( 'NONE', #823, #821, #912, .T. ) ;
#423 = EDGE_CURVE ( 'NONE', #784, #819, #892, .T. ) ;
#424 = EDGE_CURVE ( 'NONE', #807, #867, #894, .T. ) ;
#425 = EDGE_CURVE ( 'NONE', #775, #810, #878, .T. ) ;
#426 = EDGE_CURVE ( 'NONE', #756, #816, #919, .T. ) ;
#427 = EDGE_CURVE ( 'NONE', #808, #806, #887, .T. ) ;
#428 = EDGE_CURVE ( 'NONE', #805, #828, #906, .T. ) ;
#429 = EDGE_CURVE ( 'NONE', #831, #753, #882, .T. ) ;
#430 = EDGE_CURVE ( 'NONE', #796, #821, #922, .T. ) ;
#431 = EDGE_CURVE ( 'NONE', #767, #814, #900, .T. ) ;
#432 = EDGE_CURVE ( 'NONE', #791, #793, #903, .T. ) ;
#433 = EDGE_CURVE ( 'NONE', #825, #816, #902, .T. ) ;
#434 = EDGE_CURVE ( 'NONE', #809, #817, #916, .T. ) ;
#435 = EDGE_CURVE ( 'NONE', #773, #814, #880, .T. ) ;
#436 = EDGE_CURVE ( 'NONE', #847, #820, #945, .T. ) ;
#437 = EDGE_CURVE ( 'NONE', #830, #775, #946, .T. ) ;
#438 = EDGE_CURVE ( 'NONE', #818, #855, #955, .T. ) ;
#439 = EDGE_CURVE ( 'NONE', #816, #803, #942, .T. ) ;
#440 = EDGE_CURVE ( 'NONE', #753, #754, #949, .T. ) ;
#441 = EDGE_CURVE ( 'NONE', #797, #833, #939, .T. ) ;
#442 = EDGE_CURVE ( 'NONE', #813, #834, #926, .T. ) ;
#443 = EDGE_CURVE ( 'NONE', #756, #798, #940, .T. ) ;
#444 = EDGE_CURVE ( 'NONE', #808, #814, #934, .T. ) ;
#445 = EDGE_CURVE ( 'NONE', #824, #864, #952, .T. ) ;
#446 = EDGE_CURVE ( 'NONE', #834, #867, #957, .T. ) ;
#447 = EDGE_CURVE ( 'NONE', #812, #777, #954, .T. ) ;
#448 = EDGE_CURVE ( 'NONE', #829, #825, #953, .T. ) ;
#449 = EDGE_CURVE ( 'NONE', #810, #825, #937, .T. ) ;
#450 = EDGE_CURVE ( 'NONE', #815, #864, #927, .T. ) ;
#451 = EDGE_CURVE ( 'NONE', #754, #829, #960, .T. ) ;
#452 = EDGE_CURVE ( 'NONE', #793, #806, #961, .T. ) ;
#453 = EDGE_CURVE ( 'NONE', #775, #829, #964, .T. ) ;
#454 = EDGE_CURVE ( 'NONE', #810, #756, #930, .T. ) ;
#455 = EDGE_CURVE ( 'NONE', #766, #793, #951, .T. ) ;
#456 = EDGE_CURVE ( 'NONE', #769, #831, #998, .T. ) ;
#457 = EDGE_CURVE ( 'NONE', #796, #777, #975, .T. ) ;
#458 = EDGE_CURVE ( 'NONE', #833, #753, #971, .T. ) ;
#459 = EDGE_CURVE ( 'NONE', #815, #847, #972, .T. ) ;
#460 = EDGE_CURVE ( 'NONE', #847, #809, #983, .T. ) ;
#461 = EDGE_CURVE ( 'NONE', #797, #818, #1000, .T. ) ;
#462 = EDGE_CURVE ( 'NONE', #806, #834, #987, .T. ) ;
#463 = EDGE_CURVE ( 'NONE', #786, #826, #1002, .T. ) ;
#464 = EDGE_CURVE ( 'NONE', #831, #767, #1008, .T. ) ;
#465 = EDGE_CURVE ( 'NONE', #769, #815, #973, .T. ) ;
#466 = EDGE_CURVE ( 'NONE', #808, #813, #981, .T. ) ;
#467 = EDGE_CURVE ( 'NONE', #813, #807, #996, .T. ) ;
#468 = EDGE_CURVE ( 'NONE', #807, #773, #1009, .T. ) ;
#469 = EDGE_CURVE ( 'NONE', #818, #796, #978, .T. ) ;
#470 = EDGE_CURVE ( 'NONE', #773, #824, #1004, .T. ) ;
#471 = AXIS2_PLACEMENT_3D ( 'NONE', #21, #23, #41 ) ;
#472 = AXIS2_PLACEMENT_3D ( 'NONE', #138, #139, #136 ) ;
#473 = AXIS2_PLACEMENT_3D ( 'NONE', #64, #100, #70 ) ;
#474 = AXIS2_PLACEMENT_3D ( 'NONE', #268, #258, #249 ) ;
#475 = EDGE_CURVE ( 'NONE', #864, #820, #1010, .T. ) ;
#476 = AXIS2_PLACEMENT_3D ( 'NONE', #77, #102, #97 ) ;
#477 = AXIS2_PLACEMENT_3D ( 'NONE', #74, #89, #84 ) ;
#478 = AXIS2_PLACEMENT_3D ( 'NONE', #129, #126, #107 ) ;
#479 = AXIS2_PLACEMENT_3D ( 'NONE', #287, #292, #307 ) ;
#480 = AXIS2_PLACEMENT_3D ( 'NONE', #116, #119, #120 ) ;
#481 = AXIS2_PLACEMENT_3D ( 'NONE', #247, #261, #282 ) ;
#482 = AXIS2_PLACEMENT_3D ( 'NONE', #267, #272, #245 ) ;
#483 = AXIS2_PLACEMENT_3D ( 'NONE', #232, #206, #253 ) ;
#484 = AXIS2_PLACEMENT_3D ( 'NONE', #86, #101, #78 ) ;
#485 = AXIS2_PLACEMENT_3D ( 'NONE', #274, #278, #276 ) ;
#486 = AXIS2_PLACEMENT_3D ( 'NONE', #75, #71, #72 ) ;
#487 = AXIS2_PLACEMENT_3D ( 'NONE', #252, #250, #286 ) ;
#488 = AXIS2_PLACEMENT_3D ( 'NONE', #46, #48, #45 ) ;
#489 = AXIS2_PLACEMENT_3D ( 'NONE', #280, #240, #279 ) ;
#490 = AXIS2_PLACEMENT_3D ( 'NONE', #118, #104, #106 ) ;
#491 = AXIS2_PLACEMENT_3D ( 'NONE', #241, #242, #289 ) ;
#492 = EDGE_CURVE ( 'NONE', #767, #754, #982, .T. ) ;
#493 = AXIS2_PLACEMENT_3D ( 'NONE', #214, #209, #218 ) ;
#494 = AXIS2_PLACEMENT_3D ( 'NONE', #294, #295, #305 ) ;
#495 = AXIS2_PLACEMENT_3D ( 'NONE', #313, #312, #311 ) ;
#496 = AXIS2_PLACEMENT_3D ( 'NONE', #228, #230, #237 ) ;
#497 = AXIS2_PLACEMENT_3D ( 'NONE', #128, #103, #105 ) ;
#498 = AXIS2_PLACEMENT_3D ( 'NONE', #259, #244, #246 ) ;
#499 = AXIS2_PLACEMENT_3D ( 'NONE', #233, #236, #238 ) ;
#500 = AXIS2_PLACEMENT_3D ( 'NONE', #264, #265, #270 ) ;
#501 = AXIS2_PLACEMENT_3D ( 'NONE', #277, #281, #283 ) ;
#502 = AXIS2_PLACEMENT_3D ( 'NONE', #309, #310, #297 ) ;
#503 = AXIS2_PLACEMENT_3D ( 'NONE', #269, #262, #248 ) ;
#504 = AXIS2_PLACEMENT_3D ( 'NONE', #256, #273, #266 ) ;
#505 = AXIS2_PLACEMENT_3D ( 'NONE', #291, #290, #293 ) ;
#506 = AXIS2_PLACEMENT_3D ( 'NONE', #296, #306, #303 ) ;
#507 = AXIS2_PLACEMENT_3D ( 'NONE', #263, #254, #255 ) ;
#508 = AXIS2_PLACEMENT_3D ( 'NONE', #301, #16, #1 ) ;
#509 = EDGE_CURVE ( 'NONE', #867, #824, #1007, .T. ) ;
#510 = AXIS2_PLACEMENT_3D ( 'NONE', #31, #38, #22 ) ;
#511 = AXIS2_PLACEMENT_3D ( 'NONE', #300, #288, #315 ) ;
#512 = AXIS2_PLACEMENT_3D ( 'NONE', #12, #26, #27 ) ;
#513 = AXIS2_PLACEMENT_3D ( 'NONE', #30, #15, #9 ) ;
#514 = AXIS2_PLACEMENT_3D ( 'NONE', #19, #37, #2 ) ;
#515 = AXIS2_PLACEMENT_3D ( 'NONE', #35, #36, #14 ) ;
#516 = AXIS2_PLACEMENT_3D ( 'NONE', #24, #25, #4 ) ;
#517 =( GEOMETRIC_REPRESENTATION_CONTEXT ( 3 ) GLOBAL_UNCERTAINTY_ASSIGNED_CONTEXT ( ( #552 ) ) GLOBAL_UNIT_ASSIGNED_CONTEXT ( ( #377, #381, #382 ) ) REPRESENTATION_CONTEXT ( 'NONE', 'WORKASPACE' ) );
#518 = AXIS2_PLACEMENT_3D ( 'NONE', #39, #40, #6 ) ;
#519 = ADVANCED_FACE ( 'NONE', ( #994, #928 ), #208, .F. ) ;
#520 = ADVANCED_FACE ( 'NONE', ( #1014 ), #227, .F. ) ;
#521 = ADVANCED_FACE ( 'NONE', ( #1012, #990 ), #271, .F. ) ;
#522 = ADVANCED_FACE ( 'NONE', ( #1017 ), #1015, .F. ) ;
#523 = ADVANCED_FACE ( 'NONE', ( #1016 ), #243, .F. ) ;
#524 = ADVANCED_FACE ( 'NONE', ( #1018 ), #988, .F. ) ;
#525 = ADVANCED_FACE ( 'NONE', ( #1011 ), #1020, .F. ) ;
#526 = ADVANCED_FACE ( 'NONE', ( #966 ), #257, .F. ) ;
#527 = ADVANCED_FACE ( 'NONE', ( #970 ), #260, .F. ) ;
#528 = ADVANCED_FACE ( 'NONE', ( #1021 ), #284, .T. ) ;
#529 = ADVANCED_FACE ( 'NONE', ( #1022 ), #993, .F. ) ;
#530 = ADVANCED_FACE ( 'NONE', ( #995 ), #1025, .F. ) ;
#531 = ADVANCED_FACE ( 'NONE', ( #1019 ), #251, .F. ) ;
#532 = ADVANCED_FACE ( 'NONE', ( #991 ), #1026, .F. ) ;
#533 = ADVANCED_FACE ( 'NONE', ( #967 ), #275, .F. ) ;
#534 = ADVANCED_FACE ( 'NONE', ( #992 ), #285, .F. ) ;
#535 = ADVANCED_FACE ( 'NONE', ( #968 ), #1045, .F. ) ;
#536 = ADVANCED_FACE ( 'NONE', ( #1023 ), #304, .F. ) ;
#537 = ADVANCED_FACE ( 'NONE', ( #1031 ), #302, .F. ) ;
#538 = ADVANCED_FACE ( 'NONE', ( #1024 ), #316, .F. ) ;
#539 = ADVANCED_FACE ( 'NONE', ( #1027 ), #308, .T. ) ;
#540 = ADVANCED_FACE ( 'NONE', ( #1029 ), #314, .F. ) ;
#541 = ADVANCED_FACE ( 'NONE', ( #1041 ), #299, .F. ) ;
#542 = ADVANCED_FACE ( 'NONE', ( #1032 ), #298, .F. ) ;
#543 = ADVANCED_FACE ( 'NONE', ( #1038 ), #13, .F. ) ;
#544 = ADVANCED_FACE ( 'NONE', ( #1034 ), #11, .F. ) ;
#545 = ADVANCED_FACE ( 'NONE', ( #1030 ), #33, .T. ) ;
#546 = ADVANCED_FACE ( 'NONE', ( #1043 ), #3, .T. ) ;
#547 = ADVANCED_FACE ( 'NONE', ( #1035 ), #1037, .F. ) ;
#548 = ADVANCED_FACE ( 'NONE', ( #1033, #1036 ), #34, .F. ) ;
#549 = ADVANCED_FACE ( 'NONE', ( #1042, #1040 ), #5, .F. ) ;
#550 = ADVANCED_FACE ( 'NONE', ( #1028 ), #10, .F. ) ;
#551 = MANIFOLD_SOLID_BREP ( 'M6 Tapped Hole2', #575 ) ;
#552 = UNCERTAINTY_MEASURE_WITH_UNIT (LENGTH_MEASURE( 1.000000000000000100E-005 ), #377, 'distance_accuracy_value', 'NONE');
#553 = ADVANCED_BREP_SHAPE_REPRESENTATION ( 'ALP2175', ( #551, #560 ), #517 ) ;
#554 = DESIGN_CONTEXT ( 'detailed design', #328, 'design' ) ;
#555 = PRODUCT_DEFINITION_SHAPE ( 'NONE', 'NONE',  #567 ) ;
#556 = CC_DESIGN_APPROVAL ( #558, ( #574 ) ) ;
#557 = CC_DESIGN_PERSON_AND_ORGANIZATION_ASSIGNMENT ( #1076, #331, ( #574 ) ) ;
#558 = APPROVAL ( #323, 'UNSPECIFIED' ) ;
#559 = CC_DESIGN_PERSON_AND_ORGANIZATION_ASSIGNMENT ( #1048, #336, ( #566 ) ) ;
#560 = AXIS2_PLACEMENT_3D ( 'NONE', #330, #320, #324 ) ;
#561 = APPROVAL ( #334, 'UNSPECIFIED' ) ;
#562 = CC_DESIGN_APPROVAL ( #561, ( #567 ) ) ;
#563 = CC_DESIGN_PERSON_AND_ORGANIZATION_ASSIGNMENT ( #1046, #327, ( #317 ) ) ;
#564 = CC_DESIGN_SECURITY_CLASSIFICATION ( #566, ( #574 ) ) ;
#565 = PRODUCT_RELATED_PRODUCT_CATEGORY ( 'detail', '', ( #317 ) ) ;
#566 = SECURITY_CLASSIFICATION ( '', '', #337 ) ;
#567 = PRODUCT_DEFINITION ( 'UNKNOWN', '', #574, #554 ) ;
#568 = CC_DESIGN_APPROVAL ( #572, ( #566 ) ) ;
#569 = CC_DESIGN_DATE_AND_TIME_ASSIGNMENT ( #1054, #332, ( #566 ) ) ;
#570 = CC_DESIGN_PERSON_AND_ORGANIZATION_ASSIGNMENT ( #1070, #326, ( #574 ) ) ;
#571 = CC_DESIGN_DATE_AND_TIME_ASSIGNMENT ( #1052, #335, ( #567 ) ) ;
#572 = APPROVAL ( #329, 'UNSPECIFIED' ) ;
#573 = CC_DESIGN_PERSON_AND_ORGANIZATION_ASSIGNMENT ( #1064, #322, ( #567 ) ) ;
#574 = PRODUCT_DEFINITION_FORMATION_WITH_SPECIFIED_SOURCE ( 'ANY', '', #317, .NOT_KNOWN. ) ;
#575 = CLOSED_SHELL ( 'NONE', ( #547, #524, #522, #525, #548, #543, #550, #542, #526, #520, #527, #544, #523, #519, #521, #546, #541, #528, #549, #539, #545, #540, #531, #536, #534, #533, #537, #538, #529, #530, #532, #535 ) ) ;
#576 = EDGE_LOOP ( 'NONE', ( #631, #635, #629, #646 ) ) ;
#577 = EDGE_LOOP ( 'NONE', ( #719, #737, #690, #672, #706, #695, #746, #713, #680, #667 ) ) ;
#578 = EDGE_LOOP ( 'NONE', ( #709, #687, #688, #666 ) ) ;
#579 = EDGE_LOOP ( 'NONE', ( #615, #661, #662, #652 ) ) ;
#580 = EDGE_LOOP ( 'NONE', ( #606, #608, #625, #749 ) ) ;
#581 = EDGE_LOOP ( 'NONE', ( #648, #614, #645, #654, #656, #647, #657, #659, #650, #660 ) ) ;
#582 = EDGE_LOOP ( 'NONE', ( #622, #630 ) ) ;
#583 = EDGE_LOOP ( 'NONE', ( #711, #708 ) ) ;
#584 = EDGE_LOOP ( 'NONE', ( #686, #689 ) ) ;
#585 = EDGE_LOOP ( 'NONE', ( #700, #730, #684, #715 ) ) ;
#586 = EDGE_LOOP ( 'NONE', ( #747, #752, #792, #724 ) ) ;
#587 = EDGE_LOOP ( 'NONE', ( #764, #726, #748, #768 ) ) ;
#588 = EDGE_LOOP ( 'NONE', ( #772, #776, #758, #736 ) ) ;
#589 = EDGE_LOOP ( 'NONE', ( #626, #628, #620, #619 ) ) ;
#590 = EDGE_LOOP ( 'NONE', ( #632, #633, #649, #639 ) ) ;
#591 = EDGE_LOOP ( 'NONE', ( #644, #655, #638, #623 ) ) ;
#592 = EDGE_LOOP ( 'NONE', ( #669, #742, #679, #701 ) ) ;
#593 = EDGE_LOOP ( 'NONE', ( #675, #670, #694, #712, #696, #693, #674, #671 ) ) ;
#594 = EDGE_LOOP ( 'NONE', ( #624, #685, #651, #699, #637, #658, #621, #640 ) ) ;
#595 = EDGE_LOOP ( 'NONE', ( #691, #634, #636, #641, #642, #663, #643, #618, #627, #653 ) ) ;
#596 = EDGE_LOOP ( 'NONE', ( #739, #733, #716, #707 ) ) ;
#597 = EDGE_LOOP ( 'NONE', ( #763, #789, #760, #780 ) ) ;
#598 = EDGE_LOOP ( 'NONE', ( #668, #677, #728, #729 ) ) ;
#599 = EDGE_LOOP ( 'NONE', ( #710, #703 ) ) ;
#600 = EDGE_LOOP ( 'NONE', ( #781, #802, #725, #788 ) ) ;
#601 = EDGE_LOOP ( 'NONE', ( #664, #676, #604, #605 ) ) ;
#602 = EDGE_LOOP ( 'NONE', ( #682, #678, #697, #692, #681 ) ) ;
#603 = EDGE_LOOP ( 'NONE', ( #765, #762, #770, #795 ) ) ;
#604 = ORIENTED_EDGE ( 'NONE', *, *, #448, .T. ) ;
#605 = ORIENTED_EDGE ( 'NONE', *, *, #449, .F. ) ;
#606 = ORIENTED_EDGE ( 'NONE', *, *, #454, .F. ) ;
#607 = EDGE_LOOP ( 'NONE', ( #704, #717, #705, #720, #721 ) ) ;
#608 = ORIENTED_EDGE ( 'NONE', *, *, #449, .T. ) ;
#609 = EDGE_LOOP ( 'NONE', ( #702, #759, #727, #738 ) ) ;
#610 = EDGE_LOOP ( 'NONE', ( #740, #778, #779, #785 ) ) ;
#611 = EDGE_LOOP ( 'NONE', ( #722, #723, #804, #801, #751, #755, #771, #757, #732, #799 ) ) ;
#612 = EDGE_LOOP ( 'NONE', ( #741, #745, #761, #800 ) ) ;
#613 = EDGE_LOOP ( 'NONE', ( #743, #683, #698, #665, #734 ) ) ;
#614 = ORIENTED_EDGE ( 'NONE', *, *, #432, .T. ) ;
#615 = ORIENTED_EDGE ( 'NONE', *, *, #443, .F. ) ;
#616 = EDGE_LOOP ( 'NONE', ( #718, #744, #714, #673, #731 ) ) ;
#617 = EDGE_LOOP ( 'NONE', ( #750, #782, #735, #794 ) ) ;
#618 = ORIENTED_EDGE ( 'NONE', *, *, #458, .T. ) ;
#619 = ORIENTED_EDGE ( 'NONE', *, *, #390, .F. ) ;
#620 = ORIENTED_EDGE ( 'NONE', *, *, #421, .T. ) ;
#621 = ORIENTED_EDGE ( 'NONE', *, *, #422, .F. ) ;
#622 = ORIENTED_EDGE ( 'NONE', *, *, #401, .F. ) ;
#623 = ORIENTED_EDGE ( 'NONE', *, *, #406, .F. ) ;
#624 = ORIENTED_EDGE ( 'NONE', *, *, #411, .F. ) ;
#625 = ORIENTED_EDGE ( 'NONE', *, *, #433, .T. ) ;
#626 = ORIENTED_EDGE ( 'NONE', *, *, #419, .F. ) ;
#627 = ORIENTED_EDGE ( 'NONE', *, *, #429, .F. ) ;
#628 = ORIENTED_EDGE ( 'NONE', *, *, #418, .T. ) ;
#629 = ORIENTED_EDGE ( 'NONE', *, *, #397, .T. ) ;
#630 = ORIENTED_EDGE ( 'NONE', *, *, #397, .F. ) ;
#631 = ORIENTED_EDGE ( 'NONE', *, *, #399, .F. ) ;
#632 = ORIENTED_EDGE ( 'NONE', *, *, #421, .F. ) ;
#633 = ORIENTED_EDGE ( 'NONE', *, *, #413, .T. ) ;
#634 = ORIENTED_EDGE ( 'NONE', *, *, #414, .T. ) ;
#635 = ORIENTED_EDGE ( 'NONE', *, *, #410, .T. ) ;
#636 = ORIENTED_EDGE ( 'NONE', *, *, #408, .T. ) ;
#637 = ORIENTED_EDGE ( 'NONE', *, *, #392, .T. ) ;
#638 = ORIENTED_EDGE ( 'NONE', *, *, #399, .T. ) ;
#639 = ORIENTED_EDGE ( 'NONE', *, *, #404, .F. ) ;
#640 = ORIENTED_EDGE ( 'NONE', *, *, #405, .T. ) ;
#641 = ORIENTED_EDGE ( 'NONE', *, *, #420, .F. ) ;
#642 = ORIENTED_EDGE ( 'NONE', *, *, #405, .F. ) ;
#643 = ORIENTED_EDGE ( 'NONE', *, *, #441, .T. ) ;
#644 = ORIENTED_EDGE ( 'NONE', *, *, #423, .F. ) ;
#645 = ORIENTED_EDGE ( 'NONE', *, *, #452, .T. ) ;
#646 = ORIENTED_EDGE ( 'NONE', *, *, #388, .F. ) ;
#647 = ORIENTED_EDGE ( 'NONE', *, *, #431, .F. ) ;
#648 = ORIENTED_EDGE ( 'NONE', *, *, #391, .T. ) ;
#649 = ORIENTED_EDGE ( 'NONE', *, *, #416, .T. ) ;
#650 = ORIENTED_EDGE ( 'NONE', *, *, #453, .F. ) ;
#651 = ORIENTED_EDGE ( 'NONE', *, *, #417, .F. ) ;
#652 = ORIENTED_EDGE ( 'NONE', *, *, #394, .F. ) ;
#653 = ORIENTED_EDGE ( 'NONE', *, *, #456, .F. ) ;
#654 = ORIENTED_EDGE ( 'NONE', *, *, #427, .F. ) ;
#655 = ORIENTED_EDGE ( 'NONE', *, *, #400, .T. ) ;
#656 = ORIENTED_EDGE ( 'NONE', *, *, #444, .T. ) ;
#657 = ORIENTED_EDGE ( 'NONE', *, *, #492, .T. ) ;
#658 = ORIENTED_EDGE ( 'NONE', *, *, #393, .F. ) ;
#659 = ORIENTED_EDGE ( 'NONE', *, *, #451, .T. ) ;
#660 = ORIENTED_EDGE ( 'NONE', *, *, #437, .F. ) ;
#661 = ORIENTED_EDGE ( 'NONE', *, *, #426, .T. ) ;
#662 = ORIENTED_EDGE ( 'NONE', *, *, #439, .T. ) ;
#663 = ORIENTED_EDGE ( 'NONE', *, *, #402, .F. ) ;
#664 = ORIENTED_EDGE ( 'NONE', *, *, #425, .F. ) ;
#665 = ORIENTED_EDGE ( 'NONE', *, *, #468, .T. ) ;
#666 = ORIENTED_EDGE ( 'NONE', *, *, #395, .T. ) ;
#667 = ORIENTED_EDGE ( 'NONE', *, *, #392, .F. ) ;
#668 = ORIENTED_EDGE ( 'NONE', *, *, #440, .T. ) ;
#669 = ORIENTED_EDGE ( 'NONE', *, *, #441, .F. ) ;
#670 = ORIENTED_EDGE ( 'NONE', *, *, #456, .T. ) ;
#671 = ORIENTED_EDGE ( 'NONE', *, *, #450, .F. ) ;
#672 = ORIENTED_EDGE ( 'NONE', *, *, #451, .F. ) ;
#673 = ORIENTED_EDGE ( 'NONE', *, *, #425, .T. ) ;
#674 = ORIENTED_EDGE ( 'NONE', *, *, #445, .T. ) ;
#675 = ORIENTED_EDGE ( 'NONE', *, *, #465, .F. ) ;
#676 = ORIENTED_EDGE ( 'NONE', *, *, #453, .T. ) ;
#677 = ORIENTED_EDGE ( 'NONE', *, *, #492, .F. ) ;
#678 = ORIENTED_EDGE ( 'NONE', *, *, #461, .F. ) ;
#679 = ORIENTED_EDGE ( 'NONE', *, *, #438, .T. ) ;
#680 = ORIENTED_EDGE ( 'NONE', *, *, #447, .F. ) ;
#681 = ORIENTED_EDGE ( 'NONE', *, *, #430, .F. ) ;
#682 = ORIENTED_EDGE ( 'NONE', *, *, #469, .F. ) ;
#683 = ORIENTED_EDGE ( 'NONE', *, *, #466, .T. ) ;
#684 = ORIENTED_EDGE ( 'NONE', *, *, #393, .T. ) ;
#685 = ORIENTED_EDGE ( 'NONE', *, *, #391, .F. ) ;
#686 = ORIENTED_EDGE ( 'NONE', *, *, #428, .T. ) ;
#687 = ORIENTED_EDGE ( 'NONE', *, *, #469, .T. ) ;
#688 = ORIENTED_EDGE ( 'NONE', *, *, #457, .T. ) ;
#689 = ORIENTED_EDGE ( 'NONE', *, *, #419, .T. ) ;
#690 = ORIENTED_EDGE ( 'NONE', *, *, #448, .F. ) ;
#691 = ORIENTED_EDGE ( 'NONE', *, *, #409, .T. ) ;
#692 = ORIENTED_EDGE ( 'NONE', *, *, #422, .T. ) ;
#693 = ORIENTED_EDGE ( 'NONE', *, *, #470, .T. ) ;
#694 = ORIENTED_EDGE ( 'NONE', *, *, #464, .T. ) ;
#695 = ORIENTED_EDGE ( 'NONE', *, *, #458, .F. ) ;
#696 = ORIENTED_EDGE ( 'NONE', *, *, #435, .F. ) ;
#697 = ORIENTED_EDGE ( 'NONE', *, *, #402, .T. ) ;
#698 = ORIENTED_EDGE ( 'NONE', *, *, #467, .T. ) ;
#699 = ORIENTED_EDGE ( 'NONE', *, *, #394, .T. ) ;
#700 = ORIENTED_EDGE ( 'NONE', *, *, #457, .F. ) ;
#701 = ORIENTED_EDGE ( 'NONE', *, *, #403, .T. ) ;
#702 = ORIENTED_EDGE ( 'NONE', *, *, #412, .T. ) ;
#703 = ORIENTED_EDGE ( 'NONE', *, *, #416, .F. ) ;
#704 = ORIENTED_EDGE ( 'NONE', *, *, #409, .F. ) ;
#705 = ORIENTED_EDGE ( 'NONE', *, *, #459, .T. ) ;
#706 = ORIENTED_EDGE ( 'NONE', *, *, #440, .F. ) ;
#707 = ORIENTED_EDGE ( 'NONE', *, *, #455, .T. ) ;
#708 = ORIENTED_EDGE ( 'NONE', *, *, #423, .T. ) ;
#709 = ORIENTED_EDGE ( 'NONE', *, *, #438, .F. ) ;
#710 = ORIENTED_EDGE ( 'NONE', *, *, #463, .F. ) ;
#711 = ORIENTED_EDGE ( 'NONE', *, *, #396, .T. ) ;
#712 = ORIENTED_EDGE ( 'NONE', *, *, #431, .T. ) ;
#713 = ORIENTED_EDGE ( 'NONE', *, *, #395, .F. ) ;
#714 = ORIENTED_EDGE ( 'NONE', *, *, #437, .T. ) ;
#715 = ORIENTED_EDGE ( 'NONE', *, *, #447, .T. ) ;
#716 = ORIENTED_EDGE ( 'NONE', *, *, #420, .T. ) ;
#717 = ORIENTED_EDGE ( 'NONE', *, *, #465, .T. ) ;
#718 = ORIENTED_EDGE ( 'NONE', *, *, #443, .T. ) ;
#719 = ORIENTED_EDGE ( 'NONE', *, *, #439, .F. ) ;
#720 = ORIENTED_EDGE ( 'NONE', *, *, #460, .T. ) ;
#721 = ORIENTED_EDGE ( 'NONE', *, *, #434, .T. ) ;
#722 = ORIENTED_EDGE ( 'NONE', *, *, #408, .F. ) ;
#723 = ORIENTED_EDGE ( 'NONE', *, *, #415, .F. ) ;
#724 = ORIENTED_EDGE ( 'NONE', *, *, #389, .T. ) ;
#725 = ORIENTED_EDGE ( 'NONE', *, *, #467, .F. ) ;
#726 = ORIENTED_EDGE ( 'NONE', *, *, #470, .F. ) ;
#727 = ORIENTED_EDGE ( 'NONE', *, *, #460, .F. ) ;
#728 = ORIENTED_EDGE ( 'NONE', *, *, #464, .F. ) ;
#729 = ORIENTED_EDGE ( 'NONE', *, *, #429, .T. ) ;
#730 = ORIENTED_EDGE ( 'NONE', *, *, #430, .T. ) ;
#731 = ORIENTED_EDGE ( 'NONE', *, *, #454, .T. ) ;
#732 = ORIENTED_EDGE ( 'NONE', *, *, #452, .F. ) ;
#733 = ORIENTED_EDGE ( 'NONE', *, *, #411, .T. ) ;
#734 = ORIENTED_EDGE ( 'NONE', *, *, #435, .T. ) ;
#735 = ORIENTED_EDGE ( 'NONE', *, *, #404, .T. ) ;
#736 = ORIENTED_EDGE ( 'NONE', *, *, #427, .T. ) ;
#737 = ORIENTED_EDGE ( 'NONE', *, *, #433, .F. ) ;
#738 = ORIENTED_EDGE ( 'NONE', *, *, #436, .T. ) ;
#739 = ORIENTED_EDGE ( 'NONE', *, *, #432, .F. ) ;
#740 = ORIENTED_EDGE ( 'NONE', *, *, #400, .F. ) ;
#741 = ORIENTED_EDGE ( 'NONE', *, *, #410, .F. ) ;
#742 = ORIENTED_EDGE ( 'NONE', *, *, #461, .T. ) ;
#743 = ORIENTED_EDGE ( 'NONE', *, *, #444, .F. ) ;
#744 = ORIENTED_EDGE ( 'NONE', *, *, #417, .T. ) ;
#745 = ORIENTED_EDGE ( 'NONE', *, *, #398, .F. ) ;
#746 = ORIENTED_EDGE ( 'NONE', *, *, #403, .F. ) ;
#747 = ORIENTED_EDGE ( 'NONE', *, *, #418, .F. ) ;
#748 = ORIENTED_EDGE ( 'NONE', *, *, #468, .F. ) ;
#749 = ORIENTED_EDGE ( 'NONE', *, *, #426, .F. ) ;
#750 = ORIENTED_EDGE ( 'NONE', *, *, #413, .F. ) ;
#751 = ORIENTED_EDGE ( 'NONE', *, *, #445, .F. ) ;
#752 = ORIENTED_EDGE ( 'NONE', *, *, #428, .F. ) ;
#753 = VERTEX_POINT ( 'NONE', #17 ) ;
#754 = VERTEX_POINT ( 'NONE', #8 ) ;
#755 = ORIENTED_EDGE ( 'NONE', *, *, #509, .F. ) ;
#756 = VERTEX_POINT ( 'NONE', #18 ) ;
#757 = ORIENTED_EDGE ( 'NONE', *, *, #462, .F. ) ;
#758 = ORIENTED_EDGE ( 'NONE', *, *, #466, .F. ) ;
#759 = ORIENTED_EDGE ( 'NONE', *, *, #407, .F. ) ;
#760 = ORIENTED_EDGE ( 'NONE', *, *, #459, .F. ) ;
#761 = ORIENTED_EDGE ( 'NONE', *, *, #388, .T. ) ;
#762 = ORIENTED_EDGE ( 'NONE', *, *, #414, .F. ) ;
#763 = ORIENTED_EDGE ( 'NONE', *, *, #475, .T. ) ;
#764 = ORIENTED_EDGE ( 'NONE', *, *, #509, .T. ) ;
#765 = ORIENTED_EDGE ( 'NONE', *, *, #415, .T. ) ;
#766 = VERTEX_POINT ( 'NONE', #42 ) ;
#767 = VERTEX_POINT ( 'NONE', #20 ) ;
#768 = ORIENTED_EDGE ( 'NONE', *, *, #424, .T. ) ;
#769 = VERTEX_POINT ( 'NONE', #28 ) ;
#770 = ORIENTED_EDGE ( 'NONE', *, *, #434, .F. ) ;
#771 = ORIENTED_EDGE ( 'NONE', *, *, #446, .F. ) ;
#772 = ORIENTED_EDGE ( 'NONE', *, *, #462, .T. ) ;
#773 = VERTEX_POINT ( 'NONE', #7 ) ;
#774 = VERTEX_POINT ( 'NONE', #44 ) ;
#775 = VERTEX_POINT ( 'NONE', #231 ) ;
#776 = ORIENTED_EDGE ( 'NONE', *, *, #442, .F. ) ;
#777 = VERTEX_POINT ( 'NONE', #29 ) ;
#778 = ORIENTED_EDGE ( 'NONE', *, *, #396, .F. ) ;
#779 = ORIENTED_EDGE ( 'NONE', *, *, #406, .T. ) ;
#780 = ORIENTED_EDGE ( 'NONE', *, *, #450, .T. ) ;
#781 = ORIENTED_EDGE ( 'NONE', *, *, #446, .T. ) ;
#782 = ORIENTED_EDGE ( 'NONE', *, *, #389, .F. ) ;
#783 = VERTEX_POINT ( 'NONE', #43 ) ;
#784 = VERTEX_POINT ( 'NONE', #32 ) ;
#785 = ORIENTED_EDGE ( 'NONE', *, *, #398, .T. ) ;
#786 = VERTEX_POINT ( 'NONE', #363 ) ;
#787 = VERTEX_POINT ( 'NONE', #348 ) ;
#788 = ORIENTED_EDGE ( 'NONE', *, *, #442, .T. ) ;
#789 = ORIENTED_EDGE ( 'NONE', *, *, #436, .F. ) ;
#790 = VERTEX_POINT ( 'NONE', #366 ) ;
#791 = VERTEX_POINT ( 'NONE', #346 ) ;
#792 = ORIENTED_EDGE ( 'NONE', *, *, #390, .T. ) ;
#793 = VERTEX_POINT ( 'NONE', #354 ) ;
#794 = ORIENTED_EDGE ( 'NONE', *, *, #463, .T. ) ;
#795 = ORIENTED_EDGE ( 'NONE', *, *, #407, .T. ) ;
#796 = VERTEX_POINT ( 'NONE', #360 ) ;
#797 = VERTEX_POINT ( 'NONE', #362 ) ;
#798 = VERTEX_POINT ( 'NONE', #344 ) ;
#799 = ORIENTED_EDGE ( 'NONE', *, *, #455, .F. ) ;
#800 = ORIENTED_EDGE ( 'NONE', *, *, #401, .T. ) ;
#801 = ORIENTED_EDGE ( 'NONE', *, *, #475, .F. ) ;
#802 = ORIENTED_EDGE ( 'NONE', *, *, #424, .F. ) ;
#803 = VERTEX_POINT ( 'NONE', #364 ) ;
#804 = ORIENTED_EDGE ( 'NONE', *, *, #412, .F. ) ;
#805 = VERTEX_POINT ( 'NONE', #342 ) ;
#806 = VERTEX_POINT ( 'NONE', #349 ) ;
#807 = VERTEX_POINT ( 'NONE', #361 ) ;
#808 = VERTEX_POINT ( 'NONE', #365 ) ;
#809 = VERTEX_POINT ( 'NONE', #351 ) ;
#810 = VERTEX_POINT ( 'NONE', #352 ) ;
#811 = VERTEX_POINT ( 'NONE', #347 ) ;
#812 = VERTEX_POINT ( 'NONE', #343 ) ;
#813 = VERTEX_POINT ( 'NONE', #339 ) ;
#814 = VERTEX_POINT ( 'NONE', #367 ) ;
#815 = VERTEX_POINT ( 'NONE', #368 ) ;
#816 = VERTEX_POINT ( 'NONE', #350 ) ;
#817 = VERTEX_POINT ( 'NONE', #353 ) ;
#818 = VERTEX_POINT ( 'NONE', #375 ) ;
#819 = VERTEX_POINT ( 'NONE', #355 ) ;
#820 = VERTEX_POINT ( 'NONE', #369 ) ;
#821 = VERTEX_POINT ( 'NONE', #370 ) ;
#822 = VERTEX_POINT ( 'NONE', #356 ) ;
#823 = VERTEX_POINT ( 'NONE', #371 ) ;
#824 = VERTEX_POINT ( 'NONE', #372 ) ;
#825 = VERTEX_POINT ( 'NONE', #373 ) ;
#826 = VERTEX_POINT ( 'NONE', #374 ) ;
#827 = VERTEX_POINT ( 'NONE', #357 ) ;
#828 = VERTEX_POINT ( 'NONE', #345 ) ;
#829 = VERTEX_POINT ( 'NONE', #359 ) ;
#830 = VERTEX_POINT ( 'NONE', #376 ) ;
#831 = VERTEX_POINT ( 'NONE', #358 ) ;
#832 = VERTEX_POINT ( 'NONE', #340 ) ;
#833 = VERTEX_POINT ( 'NONE', #341 ) ;
#834 = VERTEX_POINT ( 'NONE', #386 ) ;
#835 = CIRCLE ( 'NONE', #477, 2.499999999999988500 ) ;
#836 = VECTOR ( 'NONE', #82, 1000.000000000000000 ) ;
#837 = VECTOR ( 'NONE', #76, 1000.000000000000000 ) ;
#838 = LINE ( 'NONE', #90, #859 ) ;
#839 = VECTOR ( 'NONE', #91, 1000.000000000000000 ) ;
#840 = CIRCLE ( 'NONE', #473, 2.499999999999996900 ) ;
#841 = LINE ( 'NONE', #88, #842 ) ;
#842 = VECTOR ( 'NONE', #92, 1000.000000000000000 ) ;
#843 = LINE ( 'NONE', #80, #875 ) ;
#844 = LINE ( 'NONE', #56, #845 ) ;
#845 = VECTOR ( 'NONE', #51, 1000.000000000000100 ) ;
#846 = CIRCLE ( 'NONE', #486, 2.499999999999988500 ) ;
#847 = VERTEX_POINT ( 'NONE', #380 ) ;
#848 = VECTOR ( 'NONE', #47, 1000.000000000000000 ) ;
#849 = CIRCLE ( 'NONE', #476, 3.024999999999999900 ) ;
#850 = LINE ( 'NONE', #61, #874 ) ;
#851 = LINE ( 'NONE', #62, #836 ) ;
#852 = VECTOR ( 'NONE', #73, 999.9999999999998900 ) ;
#853 = CIRCLE ( 'NONE', #488, 2.499999999999998200 ) ;
#854 = LINE ( 'NONE', #53, #861 ) ;
#855 = VERTEX_POINT ( 'NONE', #378 ) ;
#856 = LINE ( 'NONE', #63, #837 ) ;
#857 = CIRCLE ( 'NONE', #484, 3.024999999999999900 ) ;
#858 = LINE ( 'NONE', #79, #877 ) ;
#859 = VECTOR ( 'NONE', #66, 1000.000000000000000 ) ;
#860 = VECTOR ( 'NONE', #52, 1000.000000000000000 ) ;
#861 = VECTOR ( 'NONE', #49, 1000.000000000000000 ) ;
#862 = LINE ( 'NONE', #95, #852 ) ;
#863 = LINE ( 'NONE', #83, #839 ) ;
#864 = VERTEX_POINT ( 'NONE', #379 ) ;
#865 = LINE ( 'NONE', #93, #866 ) ;
#866 = VECTOR ( 'NONE', #67, 1000.000000000000000 ) ;
#867 = VERTEX_POINT ( 'NONE', #387 ) ;
#868 = VECTOR ( 'NONE', #58, 1000.000000000000000 ) ;
#869 = LINE ( 'NONE', #54, #868 ) ;
#870 = VECTOR ( 'NONE', #60, 1000.000000000000000 ) ;
#871 = VERTEX_POINT ( 'NONE', #383 ) ;
#872 = LINE ( 'NONE', #55, #848 ) ;
#873 = LINE ( 'NONE', #50, #860 ) ;
#874 = VECTOR ( 'NONE', #57, 1000.000000000000000 ) ;
#875 = VECTOR ( 'NONE', #85, 1000.000000000000000 ) ;
#876 = LINE ( 'NONE', #59, #870 ) ;
#877 = VECTOR ( 'NONE', #81, 1000.000000000000000 ) ;
#878 = LINE ( 'NONE', #114, #897 ) ;
#879 = VECTOR ( 'NONE', #112, 1000.000000000000000 ) ;
#880 = LINE ( 'NONE', #147, #881 ) ;
#881 = VECTOR ( 'NONE', #148, 1000.000000000000000 ) ;
#882 = LINE ( 'NONE', #141, #898 ) ;
#883 = LINE ( 'NONE', #94, #890 ) ;
#884 = CIRCLE ( 'NONE', #478, 2.499999999999998200 ) ;
#885 = VECTOR ( 'NONE', #98, 1000.000000000000000 ) ;
#886 = VECTOR ( 'NONE', #122, 1000.000000000000000 ) ;
#887 = LINE ( 'NONE', #127, #913 ) ;
#888 = VECTOR ( 'NONE', #68, 1000.000000000000100 ) ;
#889 = LINE ( 'NONE', #111, #893 ) ;
#890 = VECTOR ( 'NONE', #109, 1000.000000000000000 ) ;
#891 = LINE ( 'NONE', #65, #888 ) ;
#892 = CIRCLE ( 'NONE', #497, 2.499999999999996900 ) ;
#893 = VECTOR ( 'NONE', #115, 1000.000000000000000 ) ;
#894 = LINE ( 'NONE', #130, #879 ) ;
#895 = VECTOR ( 'NONE', #134, 1000.000000000000000 ) ;
#896 = VECTOR ( 'NONE', #113, 1000.000000000000000 ) ;
#897 = VECTOR ( 'NONE', #145, 1000.000000000000000 ) ;
#898 = VECTOR ( 'NONE', #135, 1000.000000000000000 ) ;
#899 = VECTOR ( 'NONE', #153, 1000.000000000000000 ) ;
#900 = LINE ( 'NONE', #131, #901 ) ;
#901 = VECTOR ( 'NONE', #143, 1000.000000000000000 ) ;
#902 = LINE ( 'NONE', #137, #921 ) ;
#903 = LINE ( 'NONE', #132, #917 ) ;
#904 = VECTOR ( 'NONE', #108, 999.9999999999998900 ) ;
#905 = LINE ( 'NONE', #123, #886 ) ;
#906 = CIRCLE ( 'NONE', #472, 2.499999999999997300 ) ;
#907 = VECTOR ( 'NONE', #124, 1000.000000000000000 ) ;
#908 = VECTOR ( 'NONE', #69, 1000.000000000000000 ) ;
#909 = LINE ( 'NONE', #87, #904 ) ;
#910 = CIRCLE ( 'NONE', #490, 3.024999999999999900 ) ;
#911 = LINE ( 'NONE', #110, #923 ) ;
#912 = LINE ( 'NONE', #125, #896 ) ;
#913 = VECTOR ( 'NONE', #150, 1000.000000000000000 ) ;
#914 = LINE ( 'NONE', #96, #885 ) ;
#915 = LINE ( 'NONE', #99, #908 ) ;
#916 = LINE ( 'NONE', #142, #924 ) ;
#917 = VECTOR ( 'NONE', #144, 1000.000000000000000 ) ;
#918 = LINE ( 'NONE', #117, #907 ) ;
#919 = LINE ( 'NONE', #152, #895 ) ;
#920 = CIRCLE ( 'NONE', #480, 2.499999999999997300 ) ;
#921 = VECTOR ( 'NONE', #140, 1000.000000000000000 ) ;
#922 = LINE ( 'NONE', #151, #899 ) ;
#923 = VECTOR ( 'NONE', #121, 1000.000000000000000 ) ;
#924 = VECTOR ( 'NONE', #133, 1000.000000000000000 ) ;
#925 = VECTOR ( 'NONE', #160, 1000.000000000000000 ) ;
#926 = LINE ( 'NONE', #159, #938 ) ;
#927 = LINE ( 'NONE', #203, #929 ) ;
#928 = FACE_OUTER_BOUND ( 'NONE', #598, .T. ) ;
#929 = VECTOR ( 'NONE', #190, 1000.000000000000000 ) ;
#930 = LINE ( 'NONE', #189, #963 ) ;
#931 = VECTOR ( 'NONE', #179, 1000.000000000000000 ) ;
#932 = VECTOR ( 'NONE', #201, 1000.000000000000000 ) ;
#933 = VECTOR ( 'NONE', #170, 1000.000000000000000 ) ;
#934 = LINE ( 'NONE', #178, #948 ) ;
#935 = VECTOR ( 'NONE', #187, 1000.000000000000000 ) ;
#936 = VECTOR ( 'NONE', #163, 1000.000000000000000 ) ;
#937 = LINE ( 'NONE', #154, #941 ) ;
#938 = VECTOR ( 'NONE', #161, 1000.000000000000000 ) ;
#939 = LINE ( 'NONE', #158, #936 ) ;
#940 = LINE ( 'NONE', #149, #933 ) ;
#941 = VECTOR ( 'NONE', #185, 1000.000000000000000 ) ;
#942 = LINE ( 'NONE', #177, #958 ) ;
#943 = VECTOR ( 'NONE', #168, 1000.000000000000000 ) ;
#944 = VECTOR ( 'NONE', #155, 1000.000000000000000 ) ;
#945 = LINE ( 'NONE', #146, #943 ) ;
#946 = LINE ( 'NONE', #174, #925 ) ;
#947 = VECTOR ( 'NONE', #164, 1000.000000000000000 ) ;
#948 = VECTOR ( 'NONE', #162, 1000.000000000000000 ) ;
#949 = LINE ( 'NONE', #171, #947 ) ;
#950 = VECTOR ( 'NONE', #176, 1000.000000000000000 ) ;
#951 = LINE ( 'NONE', #191, #932 ) ;
#952 = LINE ( 'NONE', #156, #959 ) ;
#953 = LINE ( 'NONE', #175, #962 ) ;
#954 = LINE ( 'NONE', #166, #956 ) ;
#955 = LINE ( 'NONE', #157, #950 ) ;
#956 = VECTOR ( 'NONE', #173, 1000.000000000000000 ) ;
#957 = LINE ( 'NONE', #167, #944 ) ;
#958 = VECTOR ( 'NONE', #169, 1000.000000000000000 ) ;
#959 = VECTOR ( 'NONE', #165, 1000.000000000000000 ) ;
#960 = LINE ( 'NONE', #172, #965 ) ;
#961 = LINE ( 'NONE', #199, #931 ) ;
#962 = VECTOR ( 'NONE', #186, 1000.000000000000000 ) ;
#963 = VECTOR ( 'NONE', #192, 1000.000000000000000 ) ;
#964 = LINE ( 'NONE', #182, #935 ) ;
#965 = VECTOR ( 'NONE', #204, 1000.000000000000000 ) ;
#966 = FACE_OUTER_BOUND ( 'NONE', #601, .T. ) ;
#967 = FACE_OUTER_BOUND ( 'NONE', #609, .T. ) ;
#968 = FACE_OUTER_BOUND ( 'NONE', #612, .T. ) ;
#969 = VECTOR ( 'NONE', #200, 1000.000000000000000 ) ;
#970 = FACE_OUTER_BOUND ( 'NONE', #585, .T. ) ;
#971 = LINE ( 'NONE', #194, #989 ) ;
#972 = LINE ( 'NONE', #180, #985 ) ;
#973 = LINE ( 'NONE', #215, #976 ) ;
#974 = VECTOR ( 'NONE', #207, 1000.000000000000000 ) ;
#975 = LINE ( 'NONE', #188, #1001 ) ;
#976 = VECTOR ( 'NONE', #205, 1000.000000000000000 ) ;
#977 = VECTOR ( 'NONE', #224, 1000.000000000000000 ) ;
#978 = LINE ( 'NONE', #221, #979 ) ;
#979 = VECTOR ( 'NONE', #222, 1000.000000000000000 ) ;
#980 = VECTOR ( 'NONE', #235, 1000.000000000000100 ) ;
#981 = LINE ( 'NONE', #212, #999 ) ;
#982 = LINE ( 'NONE', #229, #1006 ) ;
#983 = LINE ( 'NONE', #202, #984 ) ;
#984 = VECTOR ( 'NONE', #183, 1000.000000000000000 ) ;
#985 = VECTOR ( 'NONE', #197, 1000.000000000000100 ) ;
#986 = VECTOR ( 'NONE', #226, 1000.000000000000000 ) ;
#987 = LINE ( 'NONE', #210, #1013 ) ;
#988 = CYLINDRICAL_SURFACE ( 'NONE', #507, 2.499999999999993300 ) ;
#989 = VECTOR ( 'NONE', #196, 1000.000000000000000 ) ;
#990 = FACE_OUTER_BOUND ( 'NONE', #593, .T. ) ;
#991 = FACE_OUTER_BOUND ( 'NONE', #610, .T. ) ;
#992 = FACE_OUTER_BOUND ( 'NONE', #597, .T. ) ;
#993 = CYLINDRICAL_SURFACE ( 'NONE', #500, 2.499999999999997800 ) ;
#994 = FACE_BOUND ( 'NONE', #583, .T. ) ;
#995 = FACE_OUTER_BOUND ( 'NONE', #617, .T. ) ;
#996 = LINE ( 'NONE', #239, #974 ) ;
#997 = VECTOR ( 'NONE', #220, 1000.000000000000000 ) ;
#998 = LINE ( 'NONE', #181, #969 ) ;
#999 = VECTOR ( 'NONE', #216, 1000.000000000000000 ) ;
#1000 = LINE ( 'NONE', #184, #997 ) ;
#1001 = VECTOR ( 'NONE', #193, 1000.000000000000000 ) ;
#1002 = CIRCLE ( 'NONE', #493, 3.024999999999999900 ) ;
#1003 = VECTOR ( 'NONE', #198, 1000.000000000000000 ) ;
#1004 = LINE ( 'NONE', #219, #1005 ) ;
#1005 = VECTOR ( 'NONE', #234, 1000.000000000000000 ) ;
#1006 = VECTOR ( 'NONE', #213, 1000.000000000000000 ) ;
#1007 = LINE ( 'NONE', #223, #986 ) ;
#1008 = LINE ( 'NONE', #195, #1003 ) ;
#1009 = LINE ( 'NONE', #217, #977 ) ;
#1010 = LINE ( 'NONE', #211, #980 ) ;
#1011 = FACE_OUTER_BOUND ( 'NONE', #589, .T. ) ;
#1012 = FACE_BOUND ( 'NONE', #584, .T. ) ;
#1013 = VECTOR ( 'NONE', #225, 1000.000000000000000 ) ;
#1014 = FACE_OUTER_BOUND ( 'NONE', #580, .T. ) ;
#1015 = CONICAL_SURFACE ( 'NONE', #483, 3.024999999999999900, 0.7853981633974487200 ) ;
#1016 = FACE_OUTER_BOUND ( 'NONE', #592, .T. ) ;
#1017 = FACE_OUTER_BOUND ( 'NONE', #590, .T. ) ;
#1018 = FACE_OUTER_BOUND ( 'NONE', #591, .T. ) ;
#1019 = FACE_OUTER_BOUND ( 'NONE', #600, .T. ) ;
#1020 = CYLINDRICAL_SURFACE ( 'NONE', #504, 2.499999999999997800 ) ;
#1021 = FACE_OUTER_BOUND ( 'NONE', #616, .T. ) ;
#1022 = FACE_OUTER_BOUND ( 'NONE', #586, .T. ) ;
#1023 = FACE_OUTER_BOUND ( 'NONE', #587, .T. ) ;
#1024 = FACE_OUTER_BOUND ( 'NONE', #611, .T. ) ;
#1025 = CONICAL_SURFACE ( 'NONE', #487, 3.024999999999999900, 0.7853981633974487200 ) ;
#1026 = CYLINDRICAL_SURFACE ( 'NONE', #489, 2.499999999999993300 ) ;
#1027 = FACE_OUTER_BOUND ( 'NONE', #607, .T. ) ;
#1028 = FACE_OUTER_BOUND ( 'NONE', #581, .T. ) ;
#1029 = FACE_OUTER_BOUND ( 'NONE', #588, .T. ) ;
#1030 = FACE_OUTER_BOUND ( 'NONE', #613, .T. ) ;
#1031 = FACE_OUTER_BOUND ( 'NONE', #603, .T. ) ;
#1032 = FACE_OUTER_BOUND ( 'NONE', #579, .T. ) ;
#1033 = FACE_BOUND ( 'NONE', #582, .T. ) ;
#1034 = FACE_OUTER_BOUND ( 'NONE', #578, .T. ) ;
#1035 = FACE_OUTER_BOUND ( 'NONE', #576, .T. ) ;
#1036 = FACE_OUTER_BOUND ( 'NONE', #594, .T. ) ;
#1037 = CONICAL_SURFACE ( 'NONE', #518, 3.024999999999999900, 0.7853981633974334000 ) ;
#1038 = FACE_OUTER_BOUND ( 'NONE', #595, .T. ) ;
#1039 = ORGANIZATION ( 'UNSPECIFIED', 'UNSPECIFIED', '' ) ;
#1040 = FACE_OUTER_BOUND ( 'NONE', #596, .T. ) ;
#1041 = FACE_OUTER_BOUND ( 'NONE', #602, .T. ) ;
#1042 = FACE_BOUND ( 'NONE', #599, .T. ) ;
#1043 = FACE_OUTER_BOUND ( 'NONE', #577, .T. ) ;
#1044 = SHAPE_DEFINITION_REPRESENTATION ( #555, #553 ) ;
#1045 = CONICAL_SURFACE ( 'NONE', #505, 3.024999999999999900, 0.7853981633974334000 ) ;
#1046 = PERSON_AND_ORGANIZATION ( #318, #1039 ) ;
#1047 = CALENDAR_DATE ( 2017, 17, 2 ) ;
#1048 = PERSON_AND_ORGANIZATION ( #318, #1039 ) ;
#1049 = LOCAL_TIME ( 22, 4, 51.00000000000000000, #1065 ) ;
#1050 = APPROVAL_PERSON_ORGANIZATION ( #1055, #561, #338 ) ;
#1051 = APPROVAL_DATE_TIME ( #1074, #561 ) ;
#1052 = DATE_AND_TIME ( #1053, #1071 ) ;
#1053 = CALENDAR_DATE ( 2017, 17, 2 ) ;
#1054 = DATE_AND_TIME ( #1078, #1056 ) ;
#1055 = PERSON_AND_ORGANIZATION ( #318, #1039 ) ;
#1056 = LOCAL_TIME ( 22, 4, 51.00000000000000000, #1075 ) ;
#1057 = COORDINATED_UNIVERSAL_TIME_OFFSET ( 1, 0, .AHEAD. ) ;
#1058 = LOCAL_TIME ( 22, 4, 51.00000000000000000, #1057 ) ;
#1059 = APPROVAL_PERSON_ORGANIZATION ( #1072, #558, #333 ) ;
#1060 = COORDINATED_UNIVERSAL_TIME_OFFSET ( 1, 0, .AHEAD. ) ;
#1061 = CALENDAR_DATE ( 2017, 17, 2 ) ;
#1062 = PERSON_AND_ORGANIZATION ( #318, #1039 ) ;
#1063 = LOCAL_TIME ( 22, 4, 51.00000000000000000, #1060 ) ;
#1064 = PERSON_AND_ORGANIZATION ( #318, #1039 ) ;
#1065 = COORDINATED_UNIVERSAL_TIME_OFFSET ( 1, 0, .AHEAD. ) ;
#1066 = CALENDAR_DATE ( 2017, 17, 2 ) ;
#1067 = DATE_AND_TIME ( #1066, #1049 ) ;
#1068 = APPROVAL_DATE_TIME ( #1067, #572 ) ;
#1069 = APPROVAL_DATE_TIME ( #1079, #558 ) ;
#1070 = PERSON_AND_ORGANIZATION ( #318, #1039 ) ;
#1071 = LOCAL_TIME ( 22, 4, 51.00000000000000000, #1073 ) ;
#1072 = PERSON_AND_ORGANIZATION ( #318, #1039 ) ;
#1073 = COORDINATED_UNIVERSAL_TIME_OFFSET ( 1, 0, .AHEAD. ) ;
#1074 = DATE_AND_TIME ( #1047, #1058 ) ;
#1075 = COORDINATED_UNIVERSAL_TIME_OFFSET ( 1, 0, .AHEAD. ) ;
#1076 = PERSON_AND_ORGANIZATION ( #318, #1039 ) ;
#1077 = APPROVAL_PERSON_ORGANIZATION ( #1062, #572, #321 ) ;
#1078 = CALENDAR_DATE ( 2017, 17, 2 ) ;
#1079 = DATE_AND_TIME ( #1061, #1063 ) ;
ENDSEC;
END-ISO-10303-21;
