ISO-10303-21;
HEADER;
FILE_DESCRIPTION (( 'STEP AP203' ),
    '1' );
FILE_NAME ('ALP2176.STEP',
    '2017-02-17T21:14:35',
    ( '' ),
    ( '' ),
    'SwSTEP 2.0',
    'SolidWorks 2012',
    '' );
FILE_SCHEMA (( 'CONFIG_CONTROL_DESIGN' ));
ENDSEC;

DATA;
#1 = VERTEX_POINT ( 'NONE', #282 ) ;
#2 = VERTEX_POINT ( 'NONE', #274 ) ;
#3 = VERTEX_POINT ( 'NONE', #275 ) ;
#4 = VERTEX_POINT ( 'NONE', #283 ) ;
#5 = VERTEX_POINT ( 'NONE', #285 ) ;
#6 = VERTEX_POINT ( 'NONE', #278 ) ;
#7 = VERTEX_POINT ( 'NONE', #284 ) ;
#8 = VERTEX_POINT ( 'NONE', #277 ) ;
#9 = VERTEX_POINT ( 'NONE', #279 ) ;
#10 = VERTEX_POINT ( 'NONE', #276 ) ;
#11 = VERTEX_POINT ( 'NONE', #286 ) ;
#12 = VERTEX_POINT ( 'NONE', #273 ) ;
#13 = VERTEX_POINT ( 'NONE', #280 ) ;
#14 = VERTEX_POINT ( 'NONE', #281 ) ;
#15 = VERTEX_POINT ( 'NONE', #271 ) ;
#16 = VERTEX_POINT ( 'NONE', #272 ) ;
#17 = VERTEX_POINT ( 'NONE', #289 ) ;
#18 = VERTEX_POINT ( 'NONE', #291 ) ;
#19 = VERTEX_POINT ( 'NONE', #292 ) ;
#20 = VERTEX_POINT ( 'NONE', #288 ) ;
#21 = VERTEX_POINT ( 'NONE', #293 ) ;
#22 = VERTEX_POINT ( 'NONE', #294 ) ;
#23 = VERTEX_POINT ( 'NONE', #297 ) ;
#24 = VECTOR ( 'NONE', #301, 999.9999999999998900 ) ;
#25 = VERTEX_POINT ( 'NONE', #295 ) ;
#26 = CIRCLE ( 'NONE', #811, 3.399999999999998600 ) ;
#27 = LINE ( 'NONE', #303, #46 ) ;
#28 = VERTEX_POINT ( 'NONE', #290 ) ;
#29 = VERTEX_POINT ( 'NONE', #287 ) ;
#30 = VERTEX_POINT ( 'NONE', #296 ) ;
#31 = LINE ( 'NONE', #305, #34 ) ;
#32 = VERTEX_POINT ( 'NONE', #298 ) ;
#33 = LINE ( 'NONE', #316, #24 ) ;
#34 = VECTOR ( 'NONE', #311, 1000.000000000000000 ) ;
#35 = LINE ( 'NONE', #304, #36 ) ;
#36 = VECTOR ( 'NONE', #313, 1000.000000000000000 ) ;
#37 = VECTOR ( 'NONE', #312, 1000.000000000000100 ) ;
#38 = VERTEX_POINT ( 'NONE', #299 ) ;
#39 = LINE ( 'NONE', #319, #47 ) ;
#40 = VECTOR ( 'NONE', #314, 1000.000000000000000 ) ;
#41 = VECTOR ( 'NONE', #307, 1000.000000000000000 ) ;
#42 = LINE ( 'NONE', #300, #40 ) ;
#43 = CIRCLE ( 'NONE', #816, 3.399999999999998600 ) ;
#44 = LINE ( 'NONE', #315, #37 ) ;
#45 = LINE ( 'NONE', #310, #41 ) ;
#46 = VECTOR ( 'NONE', #306, 999.9999999999998900 ) ;
#47 = VECTOR ( 'NONE', #321, 999.9999999999998900 ) ;
#48 = LINE ( 'NONE', #326, #76 ) ;
#49 = LINE ( 'NONE', #333, #71 ) ;
#50 = VECTOR ( 'NONE', #329, 1000.000000000000000 ) ;
#51 = CIRCLE ( 'NONE', #821, 3.399999999999998600 ) ;
#52 = VECTOR ( 'NONE', #590, 1000.000000000000000 ) ;
#53 = CIRCLE ( 'NONE', #815, 3.399999999999999000 ) ;
#54 = VECTOR ( 'NONE', #325, 1000.000000000000000 ) ;
#55 = LINE ( 'NONE', #594, #74 ) ;
#56 = CIRCLE ( 'NONE', #809, 4.025000000000000400 ) ;
#57 = LINE ( 'NONE', #593, #67 ) ;
#58 = LINE ( 'NONE', #611, #61 ) ;
#59 = VECTOR ( 'NONE', #609, 1000.000000000000000 ) ;
#60 = LINE ( 'NONE', #586, #89 ) ;
#61 = VECTOR ( 'NONE', #608, 1000.000000000000000 ) ;
#62 = LINE ( 'NONE', #612, #59 ) ;
#63 = VECTOR ( 'NONE', #610, 1000.000000000000000 ) ;
#64 = CIRCLE ( 'NONE', #826, 3.399999999999999000 ) ;
#65 = CIRCLE ( 'NONE', #812, 4.025000000000000400 ) ;
#66 = VECTOR ( 'NONE', #599, 999.9999999999998900 ) ;
#67 = VECTOR ( 'NONE', #596, 1000.000000000000000 ) ;
#68 = LINE ( 'NONE', #597, #84 ) ;
#69 = LINE ( 'NONE', #322, #86 ) ;
#70 = LINE ( 'NONE', #328, #50 ) ;
#71 = VECTOR ( 'NONE', #336, 1000.000000000000000 ) ;
#72 = VECTOR ( 'NONE', #598, 999.9999999999998900 ) ;
#73 = VECTOR ( 'NONE', #600, 1000.000000000000000 ) ;
#74 = VECTOR ( 'NONE', #605, 1000.000000000000000 ) ;
#75 = LINE ( 'NONE', #606, #52 ) ;
#76 = VECTOR ( 'NONE', #323, 1000.000000000000000 ) ;
#77 = LINE ( 'NONE', #324, #54 ) ;
#78 = CIRCLE ( 'NONE', #833, 4.025000000000000400 ) ;
#79 = LINE ( 'NONE', #588, #73 ) ;
#80 = LINE ( 'NONE', #505, #83 ) ;
#81 = VECTOR ( 'NONE', #270, 1000.000000000000000 ) ;
#82 = LINE ( 'NONE', #332, #81 ) ;
#83 = VECTOR ( 'NONE', #502, 1000.000000000000000 ) ;
#84 = VECTOR ( 'NONE', #601, 1000.000000000000000 ) ;
#85 = LINE ( 'NONE', #602, #63 ) ;
#86 = VECTOR ( 'NONE', #327, 1000.000000000000000 ) ;
#87 = LINE ( 'NONE', #581, #66 ) ;
#88 = LINE ( 'NONE', #584, #72 ) ;
#89 = VECTOR ( 'NONE', #595, 1000.000000000000000 ) ;
#90 = LINE ( 'NONE', #515, #92 ) ;
#91 = VECTOR ( 'NONE', #516, 1000.000000000000000 ) ;
#92 = VECTOR ( 'NONE', #506, 1000.000000000000000 ) ;
#93 = LINE ( 'NONE', #500, #100 ) ;
#94 = VECTOR ( 'NONE', #504, 1000.000000000000000 ) ;
#95 = CIRCLE ( 'NONE', #818, 3.399999999999998600 ) ;
#96 = LINE ( 'NONE', #613, #94 ) ;
#97 = LINE ( 'NONE', #614, #101 ) ;
#98 = LINE ( 'NONE', #501, #99 ) ;
#99 = VECTOR ( 'NONE', #503, 1000.000000000000000 ) ;
#100 = VECTOR ( 'NONE', #510, 1000.000000000000000 ) ;
#101 = VECTOR ( 'NONE', #509, 1000.000000000000000 ) ;
#102 = LINE ( 'NONE', #513, #91 ) ;
#103 = VECTOR ( 'NONE', #545, 999.9999999999998900 ) ;
#104 = LINE ( 'NONE', #576, #155 ) ;
#105 = VECTOR ( 'NONE', #520, 1000.000000000000000 ) ;
#106 = LINE ( 'NONE', #532, #122 ) ;
#107 = LINE ( 'NONE', #530, #120 ) ;
#108 = VECTOR ( 'NONE', #517, 1000.000000000000000 ) ;
#109 = LINE ( 'NONE', #555, #119 ) ;
#110 = LINE ( 'NONE', #563, #144 ) ;
#111 = VECTOR ( 'NONE', #561, 1000.000000000000000 ) ;
#112 = VECTOR ( 'NONE', #536, 1000.000000000000000 ) ;
#113 = LINE ( 'NONE', #518, #116 ) ;
#114 = VECTOR ( 'NONE', #556, 1000.000000000000000 ) ;
#115 = LINE ( 'NONE', #559, #131 ) ;
#116 = VECTOR ( 'NONE', #539, 1000.000000000000000 ) ;
#117 = LINE ( 'NONE', #533, #111 ) ;
#118 = VECTOR ( 'NONE', #541, 1000.000000000000000 ) ;
#119 = VECTOR ( 'NONE', #552, 1000.000000000000000 ) ;
#120 = VECTOR ( 'NONE', #550, 1000.000000000000000 ) ;
#121 = VECTOR ( 'NONE', #562, 1000.000000000000000 ) ;
#122 = VECTOR ( 'NONE', #543, 1000.000000000000000 ) ;
#123 = LINE ( 'NONE', #535, #112 ) ;
#124 = LINE ( 'NONE', #527, #125 ) ;
#125 = VECTOR ( 'NONE', #554, 1000.000000000000000 ) ;
#126 = CIRCLE ( 'NONE', #834, 3.399999999999998100 ) ;
#127 = LINE ( 'NONE', #537, #130 ) ;
#128 = LINE ( 'NONE', #560, #136 ) ;
#129 = LINE ( 'NONE', #549, #103 ) ;
#130 = VECTOR ( 'NONE', #551, 999.9999999999998900 ) ;
#131 = VECTOR ( 'NONE', #558, 1000.000000000000000 ) ;
#132 = VECTOR ( 'NONE', #529, 1000.000000000000000 ) ;
#133 = VECTOR ( 'NONE', #553, 1000.000000000000000 ) ;
#134 = LINE ( 'NONE', #526, #114 ) ;
#135 = LINE ( 'NONE', #546, #138 ) ;
#136 = VECTOR ( 'NONE', #544, 1000.000000000000000 ) ;
#137 = LINE ( 'NONE', #521, #149 ) ;
#138 = VECTOR ( 'NONE', #548, 1000.000000000000000 ) ;
#139 = LINE ( 'NONE', #547, #150 ) ;
#140 = LINE ( 'NONE', #507, #108 ) ;
#141 = LINE ( 'NONE', #557, #121 ) ;
#142 = LINE ( 'NONE', #519, #105 ) ;
#143 = LINE ( 'NONE', #531, #145 ) ;
#144 = VECTOR ( 'NONE', #534, 1000.000000000000000 ) ;
#145 = VECTOR ( 'NONE', #528, 1000.000000000000000 ) ;
#146 = LINE ( 'NONE', #538, #133 ) ;
#147 = LINE ( 'NONE', #540, #118 ) ;
#148 = LINE ( 'NONE', #542, #132 ) ;
#149 = VECTOR ( 'NONE', #525, 1000.000000000000000 ) ;
#150 = VECTOR ( 'NONE', #564, 1000.000000000000000 ) ;
#151 = VECTOR ( 'NONE', #347, 1000.000000000000000 ) ;
#152 = VECTOR ( 'NONE', #352, 1000.000000000000100 ) ;
#153 = FACE_OUTER_BOUND ( 'NONE', #1052, .T. ) ;
#154 = CYLINDRICAL_SURFACE ( 'NONE', #832, 3.399999999999998600 ) ;
#155 = VECTOR ( 'NONE', #565, 999.9999999999998900 ) ;
#156 = LINE ( 'NONE', #575, #197 ) ;
#157 = CONICAL_SURFACE ( 'NONE', #814, 4.025000000000000400, 0.7853981633974492800 ) ;
#158 = FACE_OUTER_BOUND ( 'NONE', #1051, .T. ) ;
#159 = VECTOR ( 'NONE', #470, 1000.000000000000000 ) ;
#160 = VECTOR ( 'NONE', #579, 1000.000000000000000 ) ;
#161 = LINE ( 'NONE', #571, #166 ) ;
#162 = LINE ( 'NONE', #468, #159 ) ;
#163 = CYLINDRICAL_SURFACE ( 'NONE', #810, 3.399999999999998600 ) ;
#164 = FACE_OUTER_BOUND ( 'NONE', #1059, .T. ) ;
#165 = LINE ( 'NONE', #569, #160 ) ;
#166 = VECTOR ( 'NONE', #573, 1000.000000000000000 ) ;
#167 = FACE_OUTER_BOUND ( 'NONE', #1066, .T. ) ;
#168 = FACE_OUTER_BOUND ( 'NONE', #1067, .T. ) ;
#169 = FACE_OUTER_BOUND ( 'NONE', #1042, .T. ) ;
#170 = FACE_BOUND ( 'NONE', #1069, .T. ) ;
#171 = FACE_OUTER_BOUND ( 'NONE', #1064, .T. ) ;
#172 = FACE_OUTER_BOUND ( 'NONE', #1045, .T. ) ;
#173 = LINE ( 'NONE', #566, #209 ) ;
#174 = VECTOR ( 'NONE', #472, 1000.000000000000000 ) ;
#175 = FACE_OUTER_BOUND ( 'NONE', #1057, .T. ) ;
#176 = VECTOR ( 'NONE', #473, 1000.000000000000000 ) ;
#177 = FACE_OUTER_BOUND ( 'NONE', #1041, .T. ) ;
#178 = FACE_OUTER_BOUND ( 'NONE', #1048, .T. ) ;
#179 = FACE_OUTER_BOUND ( 'NONE', #1070, .T. ) ;
#180 = VECTOR ( 'NONE', #469, 1000.000000000000000 ) ;
#181 = FACE_OUTER_BOUND ( 'NONE', #1043, .T. ) ;
#182 = FACE_OUTER_BOUND ( 'NONE', #1044, .T. ) ;
#183 = FACE_OUTER_BOUND ( 'NONE', #1074, .T. ) ;
#184 = FACE_BOUND ( 'NONE', #1055, .T. ) ;
#185 = CONICAL_SURFACE ( 'NONE', #806, 4.025000000000000400, 0.7853981633974492800 ) ;
#186 = CIRCLE ( 'NONE', #839, 4.025000000000000400 ) ;
#187 = LINE ( 'NONE', #568, #192 ) ;
#188 = FACE_OUTER_BOUND ( 'NONE', #1054, .T. ) ;
#189 = FACE_OUTER_BOUND ( 'NONE', #1053, .T. ) ;
#190 = LINE ( 'NONE', #471, #151 ) ;
#191 = VECTOR ( 'NONE', #464, 1000.000000000000000 ) ;
#192 = VECTOR ( 'NONE', #570, 1000.000000000000000 ) ;
#193 = LINE ( 'NONE', #574, #198 ) ;
#194 = CONICAL_SURFACE ( 'NONE', #820, 4.025000000000000400, 0.7853981633974492800 ) ;
#195 = CYLINDRICAL_SURFACE ( 'NONE', #829, 3.399999999999998600 ) ;
#196 = LINE ( 'NONE', #465, #180 ) ;
#197 = VECTOR ( 'NONE', #603, 1000.000000000000000 ) ;
#198 = VECTOR ( 'NONE', #577, 1000.000000000000000 ) ;
#199 = FACE_OUTER_BOUND ( 'NONE', #1065, .T. ) ;
#200 = FACE_OUTER_BOUND ( 'NONE', #1061, .T. ) ;
#201 = FACE_OUTER_BOUND ( 'NONE', #1075, .T. ) ;
#202 = FACE_OUTER_BOUND ( 'NONE', #1038, .T. ) ;
#203 = FACE_OUTER_BOUND ( 'NONE', #1050, .T. ) ;
#204 = LINE ( 'NONE', #463, #176 ) ;
#205 = LINE ( 'NONE', #467, #174 ) ;
#206 = CONICAL_SURFACE ( 'NONE', #823, 4.025000000000000400, 0.7853981633974492800 ) ;
#207 = FACE_OUTER_BOUND ( 'NONE', #1040, .T. ) ;
#208 = LINE ( 'NONE', #374, #152 ) ;
#209 = VECTOR ( 'NONE', #567, 1000.000000000000000 ) ;
#210 = LINE ( 'NONE', #514, #191 ) ;
#211 = FACE_OUTER_BOUND ( 'NONE', #1047, .T. ) ;
#212 = FACE_OUTER_BOUND ( 'NONE', #1046, .T. ) ;
#213 = LINE ( 'NONE', #664, #227 ) ;
#214 = FACE_OUTER_BOUND ( 'NONE', #1071, .T. ) ;
#215 = LINE ( 'NONE', #642, #216 ) ;
#216 = VECTOR ( 'NONE', #639, 1000.000000000000000 ) ;
#217 = FACE_OUTER_BOUND ( 'NONE', #1058, .T. ) ;
#218 = CYLINDRICAL_SURFACE ( 'NONE', #494, 3.399999999999998600 ) ;
#219 = FACE_OUTER_BOUND ( 'NONE', #1037, .T. ) ;
#220 = FACE_OUTER_BOUND ( 'NONE', #1056, .T. ) ;
#221 = FACE_OUTER_BOUND ( 'NONE', #1062, .T. ) ;
#222 = FACE_BOUND ( 'NONE', #1068, .T. ) ;
#223 = FACE_OUTER_BOUND ( 'NONE', #1049, .T. ) ;
#224 = LINE ( 'NONE', #373, #225 ) ;
#225 = VECTOR ( 'NONE', #439, 1000.000000000000000 ) ;
#226 = CIRCLE ( 'NONE', #489, 3.399999999999998100 ) ;
#227 = VECTOR ( 'NONE', #660, 1000.000000000000000 ) ;
#228 = LINE ( 'NONE', #640, #229 ) ;
#229 = VECTOR ( 'NONE', #643, 1000.000000000000000 ) ;
#230 = FACE_BOUND ( 'NONE', #1063, .T. ) ;
#231 = LINE ( 'NONE', #637, #233 ) ;
#232 = FACE_OUTER_BOUND ( 'NONE', #1060, .T. ) ;
#233 = VECTOR ( 'NONE', #662, 1000.000000000000000 ) ;
#234 = COORDINATED_UNIVERSAL_TIME_OFFSET ( 1, 0, .AHEAD. ) ;
#235 = COORDINATED_UNIVERSAL_TIME_OFFSET ( 1, 0, .AHEAD. ) ;
#236 = PERSON_AND_ORGANIZATION ( #619, #246 ) ;
#237 = LOCAL_TIME ( 22, 14, 35.00000000000000000, #234 ) ;
#238 = COORDINATED_UNIVERSAL_TIME_OFFSET ( 1, 0, .AHEAD. ) ;
#239 = APPROVAL_PERSON_ORGANIZATION ( #258, #475, #625 ) ;
#240 = APPROVAL_DATE_TIME ( #267, #482 ) ;
#241 = APPROVAL_DATE_TIME ( #264, #488 ) ;
#242 = APPROVAL_PERSON_ORGANIZATION ( #253, #488, #671 ) ;
#243 = CALENDAR_DATE ( 2017, 17, 2 ) ;
#244 = APPROVAL_DATE_TIME ( #249, #475 ) ;
#245 = LOCAL_TIME ( 22, 14, 35.00000000000000000, #238 ) ;
#246 = ORGANIZATION ( 'UNSPECIFIED', 'UNSPECIFIED', '' ) ;
#247 = PERSON_AND_ORGANIZATION ( #619, #246 ) ;
#248 = DATE_AND_TIME ( #254, #237 ) ;
#249 = DATE_AND_TIME ( #243, #252 ) ;
#250 = CALENDAR_DATE ( 2017, 17, 2 ) ;
#251 = PERSON_AND_ORGANIZATION ( #619, #246 ) ;
#252 = LOCAL_TIME ( 22, 14, 35.00000000000000000, #235 ) ;
#253 = PERSON_AND_ORGANIZATION ( #619, #246 ) ;
#254 = CALENDAR_DATE ( 2017, 17, 2 ) ;
#255 = PERSON_AND_ORGANIZATION ( #619, #246 ) ;
#256 = CALENDAR_DATE ( 2017, 17, 2 ) ;
#257 = DATE_AND_TIME ( #250, #245 ) ;
#258 = PERSON_AND_ORGANIZATION ( #619, #246 ) ;
#259 = SHAPE_DEFINITION_REPRESENTATION ( #842, #795 ) ;
#260 = APPROVAL_PERSON_ORGANIZATION ( #255, #482, #628 ) ;
#261 = CALENDAR_DATE ( 2017, 17, 2 ) ;
#262 = PERSON_AND_ORGANIZATION ( #619, #246 ) ;
#263 = COORDINATED_UNIVERSAL_TIME_OFFSET ( 1, 0, .AHEAD. ) ;
#264 = DATE_AND_TIME ( #256, #268 ) ;
#265 = LOCAL_TIME ( 22, 14, 35.00000000000000000, #263 ) ;
#266 = COORDINATED_UNIVERSAL_TIME_OFFSET ( 1, 0, .AHEAD. ) ;
#267 = DATE_AND_TIME ( #261, #265 ) ;
#268 = LOCAL_TIME ( 22, 14, 35.00000000000000000, #266 ) ;
#269 = PERSON_AND_ORGANIZATION ( #619, #246 ) ;
#270 = DIRECTION ( 'NONE',  ( -0.0000000000000000000, -0.0000000000000000000, 1.000000000000000000 ) ) ;
#271 = CARTESIAN_POINT ( 'NONE',  ( -9.500000000000000000, -1.700000000000000200, 36.00000000000000700 ) ) ;
#272 = CARTESIAN_POINT ( 'NONE',  ( -9.500000000000001800, -1.700000000000000200, 34.20000000000000300 ) ) ;
#273 = CARTESIAN_POINT ( 'NONE',  ( 4.900000000000000400, -8.699999999999999300, 38.00000000000000000 ) ) ;
#274 = CARTESIAN_POINT ( 'NONE',  ( 3.399999999999998100, 13.30000000000000200, 38.00000000000000000 ) ) ;
#275 = CARTESIAN_POINT ( 'NONE',  ( -4.899999999999999500, 23.30000000000000100, 34.20000000000000300 ) ) ;
#276 = CARTESIAN_POINT ( 'NONE',  ( 4.900000000000001200, -3.800000000000000700, 0.0000000000000000000 ) ) ;
#277 = CARTESIAN_POINT ( 'NONE',  ( 4.899999999999999500, -3.800000000000000300, 26.00000000000000000 ) ) ;
#278 = CARTESIAN_POINT ( 'NONE',  ( -4.900000000000003000, -1.700000000000000200, 37.99999999999999300 ) ) ;
#279 = CARTESIAN_POINT ( 'NONE',  ( 9.500000000000000000, -1.999999999999996700, 26.00000000000000000 ) ) ;
#280 = CARTESIAN_POINT ( 'NONE',  ( 3.399999999999999500, 13.30000000000000200, 29.92500000000000100 ) ) ;
#281 = CARTESIAN_POINT ( 'NONE',  ( 9.499999999999992900, -1.700000000000000200, 36.00000000000000700 ) ) ;
#282 = CARTESIAN_POINT ( 'NONE',  ( 9.500000000000000000, -3.800000000000000300, 0.0000000000000000000 ) ) ;
#283 = CARTESIAN_POINT ( 'NONE',  ( 4.163799117101000100E-016, -0.6250000000000005600, 8.599999999999999600 ) ) ;
#284 = CARTESIAN_POINT ( 'NONE',  ( 9.500000000000000000, -1.999999999999996700, 0.0000000000000000000 ) ) ;
#285 = CARTESIAN_POINT ( 'NONE',  ( 4.163799117100998600E-016, -8.700000000000001100, 8.600000000000001400 ) ) ;
#286 = CARTESIAN_POINT ( 'NONE',  ( -4.025000000000000400, 13.30000000000000200, 29.30000000000000100 ) ) ;
#287 = CARTESIAN_POINT ( 'NONE',  ( -7.500000000000019500, -1.700000000000000200, 37.99999999999999300 ) ) ;
#288 = CARTESIAN_POINT ( 'NONE',  ( -9.500000000000000000, -3.800000000000002500, 0.0000000000000000000 ) ) ;
#289 = CARTESIAN_POINT ( 'NONE',  ( 9.499999999999992900, 23.30000000000000100, 36.00000000000000700 ) ) ;
#290 = CARTESIAN_POINT ( 'NONE',  ( 7.500000000000010700, -1.700000000000000200, 37.99999999999999300 ) ) ;
#291 = CARTESIAN_POINT ( 'NONE',  ( -9.500000000000000000, -1.999999999999998700, 26.00000000000000000 ) ) ;
#292 = CARTESIAN_POINT ( 'NONE',  ( -7.500000000000019500, 23.30000000000000100, 37.99999999999999300 ) ) ;
#293 = CARTESIAN_POINT ( 'NONE',  ( -9.500000000000000000, 23.30000000000000100, 36.00000000000000700 ) ) ;
#294 = CARTESIAN_POINT ( 'NONE',  ( 9.499999999999994700, -1.700000000000000200, 34.20000000000000300 ) ) ;
#295 = CARTESIAN_POINT ( 'NONE',  ( -9.500000000000000000, -3.800000000000002500, 26.00000000000000000 ) ) ;
#296 = CARTESIAN_POINT ( 'NONE',  ( 7.500000000000010700, 23.30000000000000100, 37.99999999999999300 ) ) ;
#297 = CARTESIAN_POINT ( 'NONE',  ( -9.500000000000000000, -1.999999999999998700, 0.0000000000000000000 ) ) ;
#298 = CARTESIAN_POINT ( 'NONE',  ( 9.499999999999994700, 23.30000000000000100, 34.20000000000000300 ) ) ;
#299 = CARTESIAN_POINT ( 'NONE',  ( -9.500000000000001800, 23.30000000000000100, 34.20000000000000300 ) ) ;
#300 = CARTESIAN_POINT ( 'NONE',  ( 0.0000000000000000000, 0.0000000000000000000, 15.39999999999999900 ) ) ;
#301 = DIRECTION ( 'NONE',  ( -0.7071067811865463500, 0.7071067811865487900, 0.0000000000000000000 ) ) ;
#302 = DIRECTION ( 'NONE',  ( 0.0000000000000000000, 0.0000000000000000000, 1.000000000000000000 ) ) ;
#303 = CARTESIAN_POINT ( 'NONE',  ( 0.0000000000000000000, 0.0000000000000000000, 16.02500000000000200 ) ) ;
#304 = CARTESIAN_POINT ( 'NONE',  ( 7.500000000000007100, 2.168404344971008900E-015, 38.00000000000000000 ) ) ;
#305 = CARTESIAN_POINT ( 'NONE',  ( -9.500000000000000000, -1.999999999999998700, 38.00000000000000000 ) ) ;
#306 = DIRECTION ( 'NONE',  ( 0.0000000000000000000, 0.7071067811865468000, 0.7071067811865483500 ) ) ;
#307 = DIRECTION ( 'NONE',  ( -1.000000000000000000, -1.224646799147353500E-016, -0.0000000000000000000 ) ) ;
#308 = CARTESIAN_POINT ( 'NONE',  ( 0.0000000000000000000, -8.700000000000001100, 12.00000000000000000 ) ) ;
#309 = DIRECTION ( 'NONE',  ( -0.0000000000000000000, 1.000000000000000000, -0.0000000000000000000 ) ) ;
#310 = CARTESIAN_POINT ( 'NONE',  ( -7.500000000000008900, 3.314341462499769600E-016, 0.0000000000000000000 ) ) ;
#311 = DIRECTION ( 'NONE',  ( -0.0000000000000000000, -0.0000000000000000000, -1.000000000000000000 ) ) ;
#312 = DIRECTION ( 'NONE',  ( -0.7071067811865460200, -0.7071067811865490200, 0.0000000000000000000 ) ) ;
#313 = DIRECTION ( 'NONE',  ( -0.0000000000000000000, -0.0000000000000000000, -1.000000000000000000 ) ) ;
#314 = DIRECTION ( 'NONE',  ( -0.0000000000000000000, 1.000000000000000000, -0.0000000000000000000 ) ) ;
#315 = CARTESIAN_POINT ( 'NONE',  ( -7.500000000000008900, 3.314341462499769600E-016, 0.0000000000000000000 ) ) ;
#316 = CARTESIAN_POINT ( 'NONE',  ( 7.500000000000007100, 2.168404344971008900E-015, 26.00000000000000000 ) ) ;
#317 = DIRECTION ( 'NONE',  ( -0.0000000000000000000, 1.000000000000000000, -0.0000000000000000000 ) ) ;
#318 = DIRECTION ( 'NONE',  ( 0.0000000000000000000, 0.0000000000000000000, 1.000000000000000000 ) ) ;
#319 = CARTESIAN_POINT ( 'NONE',  ( 4.025000000000000400, 13.30000000000000200, 29.30000000000000100 ) ) ;
#320 = CARTESIAN_POINT ( 'NONE',  ( 0.0000000000000000000, -8.700000000000001100, 12.00000000000000000 ) ) ;
#321 = DIRECTION ( 'NONE',  ( 0.7071067811865483500, 8.659560562354942700E-017, -0.7071067811865468000 ) ) ;
#322 = CARTESIAN_POINT ( 'NONE',  ( -3.399999999999998600, 13.30000000000000200, 29.30000000000000100 ) ) ;
#323 = DIRECTION ( 'NONE',  ( -0.0000000000000000000, 1.000000000000000000, -0.0000000000000000000 ) ) ;
#324 = CARTESIAN_POINT ( 'NONE',  ( 9.500000000000000000, -1.999999999999996700, 38.00000000000000000 ) ) ;
#325 = DIRECTION ( 'NONE',  ( -0.0000000000000000000, -0.0000000000000000000, -1.000000000000000000 ) ) ;
#326 = CARTESIAN_POINT ( 'NONE',  ( 4.163799117100999100E-016, 0.0000000000000000000, 8.600000000000001400 ) ) ;
#327 = DIRECTION ( 'NONE',  ( -0.0000000000000000000, -0.0000000000000000000, -1.000000000000000000 ) ) ;
#328 = CARTESIAN_POINT ( 'NONE',  ( -7.500000000000008900, 3.314341462499769600E-016, 29.30000000000000100 ) ) ;
#329 = DIRECTION ( 'NONE',  ( -1.000000000000000000, -1.224646799147353500E-016, 0.0000000000000000000 ) ) ;
#330 = CARTESIAN_POINT ( 'NONE',  ( 0.0000000000000000000, 0.0000000000000000000, 12.00000000000000000 ) ) ;
#331 = DIRECTION ( 'NONE',  ( -0.0000000000000000000, 1.000000000000000000, -0.0000000000000000000 ) ) ;
#332 = CARTESIAN_POINT ( 'NONE',  ( 4.899999999999999500, 1.224646799147354200E-016, 26.00000000000000000 ) ) ;
#333 = CARTESIAN_POINT ( 'NONE',  ( -9.500000000000000000, -3.800000000000002500, 0.0000000000000000000 ) ) ;
#334 = DIRECTION ( 'NONE',  ( 0.0000000000000000000, 0.0000000000000000000, 1.000000000000000000 ) ) ;
#335 = DIRECTION ( 'NONE',  ( 0.0000000000000000000, 0.0000000000000000000, 1.000000000000000000 ) ) ;
#336 = DIRECTION ( 'NONE',  ( 1.000000000000000000, 9.427844978134828800E-017, 0.0000000000000000000 ) ) ;
#337 = CARTESIAN_POINT ( 'NONE',  ( 0.0000000000000000000, 0.0000000000000000000, 12.00000000000000000 ) ) ;
#338 = DIRECTION ( 'NONE',  ( -0.0000000000000000000, 1.000000000000000000, -0.0000000000000000000 ) ) ;
#339 = DIRECTION ( 'NONE',  ( -9.637352644315579000E-016, 0.0000000000000000000, -1.000000000000000000 ) ) ;
#340 = DIRECTION ( 'NONE',  ( -0.7071067811865465700, 0.0000000000000000000, 0.7071067811865485700 ) ) ;
#341 = PLANE ( 'NONE',  #828 ) ;
#342 = DIRECTION ( 'NONE',  ( 0.0000000000000000000, -1.000000000000000000, 0.0000000000000000000 ) ) ;
#343 = DIRECTION ( 'NONE',  ( -0.0000000000000000000, -0.0000000000000000000, -1.000000000000000000 ) ) ;
#344 = PLANE ( 'NONE',  #808 ) ;
#345 = DIRECTION ( 'NONE',  ( -1.000000000000000000, 0.0000000000000000000, 0.0000000000000000000 ) ) ;
#346 = DIRECTION ( 'NONE',  ( -1.000000000000000000, 0.0000000000000000000, 0.0000000000000000000 ) ) ;
#347 = DIRECTION ( 'NONE',  ( -1.000000000000000000, -9.427844978134828800E-017, 0.0000000000000000000 ) ) ;
#348 = CARTESIAN_POINT ( 'NONE',  ( 0.0000000000000000000, 13.30000000000000200, 29.30000000000000100 ) ) ;
#349 = CARTESIAN_POINT ( 'NONE',  ( -9.500000000000001800, -1.700000000000000200, 34.20000000000000300 ) ) ;
#350 = PLANE ( 'NONE',  #824 ) ;
#351 = CARTESIAN_POINT ( 'NONE',  ( 9.499999999999992900, -1.700000000000000200, 36.00000000000000700 ) ) ;
#352 = DIRECTION ( 'NONE',  ( 0.7071067811865460200, 0.7071067811865490200, 0.0000000000000000000 ) ) ;
#353 = CARTESIAN_POINT ( 'NONE',  ( 0.0000000000000000000, 0.0000000000000000000, 12.00000000000000000 ) ) ;
#354 = CARTESIAN_POINT ( 'NONE',  ( 0.0000000000000000000, 13.30000000000000200, 29.30000000000000100 ) ) ;
#355 = CARTESIAN_POINT ( 'NONE',  ( -4.899999999999999500, -1.700000000000000200, 34.20000000000000300 ) ) ;
#356 = DIRECTION ( 'NONE',  ( 0.0000000000000000000, 0.0000000000000000000, 1.000000000000000000 ) ) ;
#357 = DIRECTION ( 'NONE',  ( -0.0000000000000000000, 1.000000000000000000, -0.0000000000000000000 ) ) ;
#358 = PLANE ( 'NONE',  #813 ) ;
#359 = CARTESIAN_POINT ( 'NONE',  ( 0.0000000000000000000, 23.30000000000000100, 0.0000000000000000000 ) ) ;
#360 = DIRECTION ( 'NONE',  ( 0.0000000000000000000, 0.0000000000000000000, -1.000000000000000000 ) ) ;
#361 = DIRECTION ( 'NONE',  ( -1.000000000000000000, 0.0000000000000000000, -0.0000000000000000000 ) ) ;
#362 = PLANE ( 'NONE',  #822 ) ;
#363 = DIRECTION ( 'NONE',  ( -0.0000000000000000000, 1.000000000000000000, -0.0000000000000000000 ) ) ;
#364 = DIRECTION ( 'NONE',  ( 0.0000000000000000000, 0.0000000000000000000, 1.000000000000000000 ) ) ;
#365 = DIRECTION ( 'NONE',  ( -0.7071067811865485700, 0.0000000000000000000, -0.7071067811865465700 ) ) ;
#366 = DIRECTION ( 'NONE',  ( 1.000000000000000000, 0.0000000000000000000, -0.0000000000000000000 ) ) ;
#367 = DIRECTION ( 'NONE',  ( -0.0000000000000000000, -0.0000000000000000000, -1.000000000000000000 ) ) ;
#368 = CARTESIAN_POINT ( 'NONE',  ( 0.0000000000000000000, 0.0000000000000000000, 12.00000000000000000 ) ) ;
#369 = CARTESIAN_POINT ( 'NONE',  ( 0.0000000000000000000, 0.0000000000000000000, 26.00000000000000000 ) ) ;
#370 = CARTESIAN_POINT ( 'NONE',  ( 0.0000000000000000000, 13.30000000000000200, 29.30000000000000100 ) ) ;
#371 = DIRECTION ( 'NONE',  ( -0.0000000000000000000, -0.0000000000000000000, -1.000000000000000000 ) ) ;
#372 = DIRECTION ( 'NONE',  ( -1.000000000000000000, 0.0000000000000000000, 0.0000000000000000000 ) ) ;
#373 = CARTESIAN_POINT ( 'NONE',  ( -4.900000000000003900, -1.700000000000000200, 38.00000000000000000 ) ) ;
#374 = CARTESIAN_POINT ( 'NONE',  ( -7.500000000000008900, 3.314341462499769600E-016, 26.00000000000000000 ) ) ;
#375 = DIRECTION ( 'NONE',  ( 1.000000000000000000, 0.0000000000000000000, -9.637352644315579000E-016 ) ) ;
#376 = DIRECTION ( 'NONE',  ( 0.0000000000000000000, 0.0000000000000000000, 1.000000000000000000 ) ) ;
#377 = DIRECTION ( 'NONE',  ( 0.0000000000000000000, -0.0000000000000000000, -1.000000000000000000 ) ) ;
#378 = CARTESIAN_POINT ( 'NONE',  ( 0.0000000000000000000, -1.700000000000000200, 0.0000000000000000000 ) ) ;
#379 = DIRECTION ( 'NONE',  ( -0.0000000000000000000, 0.0000000000000000000, 1.000000000000000000 ) ) ;
#380 = PLANE ( 'NONE',  #835 ) ;
#381 = DIRECTION ( 'NONE',  ( 1.000000000000000000, 0.0000000000000000000, 0.0000000000000000000 ) ) ;
#382 = DIRECTION ( 'NONE',  ( 0.7071067811865460200, 0.7071067811865490200, 0.0000000000000000000 ) ) ;
#383 = PLANE ( 'NONE',  #830 ) ;
#384 = PLANE ( 'NONE',  #836 ) ;
#385 = DIRECTION ( 'NONE',  ( 0.7071067811865490200, -0.7071067811865460200, 0.0000000000000000000 ) ) ;
#386 = CARTESIAN_POINT ( 'NONE',  ( 0.0000000000000000000, 0.0000000000000000000, 26.00000000000000000 ) ) ;
#387 = CARTESIAN_POINT ( 'NONE',  ( 4.900000000000001200, -3.800000000000000700, 38.00000000000000000 ) ) ;
#388 = CARTESIAN_POINT ( 'NONE',  ( -7.500000000000008900, 3.314341462499769600E-016, 38.00000000000000000 ) ) ;
#389 = DIRECTION ( 'NONE',  ( -1.000000000000000000, 1.770125995894701900E-016, 0.0000000000000000000 ) ) ;
#390 = DIRECTION ( 'NONE',  ( -1.770125995894701900E-016, -1.000000000000000000, 0.0000000000000000000 ) ) ;
#391 = PLANE ( 'NONE',  #825 ) ;
#392 = CARTESIAN_POINT ( 'NONE',  ( 9.500000000000000000, -3.800000000000000300, 38.00000000000000000 ) ) ;
#393 = DIRECTION ( 'NONE',  ( -1.000000000000000000, -9.427844978134825100E-017, 0.0000000000000000000 ) ) ;
#394 = DIRECTION ( 'NONE',  ( 0.0000000000000000000, -1.000000000000000000, 0.0000000000000000000 ) ) ;
#395 = CARTESIAN_POINT ( 'NONE',  ( 0.0000000000000000000, 13.30000000000000200, 29.30000000000000100 ) ) ;
#396 = DIRECTION ( 'NONE',  ( -1.000000000000000000, 0.0000000000000000000, 0.0000000000000000000 ) ) ;
#397 = DIRECTION ( 'NONE',  ( 0.0000000000000000000, -0.0000000000000000000, -1.000000000000000000 ) ) ;
#398 = CARTESIAN_POINT ( 'NONE',  ( -4.900000000000003000, -3.800000000000002000, 38.00000000000000000 ) ) ;
#399 = DIRECTION ( 'NONE',  ( 1.000000000000000000, 5.310377987684104800E-016, -0.0000000000000000000 ) ) ;
#400 = CARTESIAN_POINT ( 'NONE',  ( 9.500000000000000000, -1.999999999999996700, 38.00000000000000000 ) ) ;
#401 = PLANE ( 'NONE',  #837 ) ;
#402 = DIRECTION ( 'NONE',  ( -9.427844978134825100E-017, 1.000000000000000000, 0.0000000000000000000 ) ) ;
#403 = PLANE ( 'NONE',  #838 ) ;
#404 = DIRECTION ( 'NONE',  ( -5.310377987684104800E-016, 1.000000000000000000, 0.0000000000000000000 ) ) ;
#405 = PLANE ( 'NONE',  #840 ) ;
#406 = DIRECTION ( 'NONE',  ( -1.000000000000000000, 0.0000000000000000000, 0.0000000000000000000 ) ) ;
#407 = DIRECTION ( 'NONE',  ( 0.0000000000000000000, 0.0000000000000000000, 1.000000000000000000 ) ) ;
#408 = PLANE ( 'NONE',  #804 ) ;
#409 = CARTESIAN_POINT ( 'NONE',  ( -9.500000000000000000, -3.800000000000002500, 38.00000000000000000 ) ) ;
#410 = DIRECTION ( 'NONE',  ( -0.0000000000000000000, -0.0000000000000000000, -1.000000000000000000 ) ) ;
#411 = PLANE ( 'NONE',  #799 ) ;
#412 = CARTESIAN_POINT ( 'NONE',  ( 9.499999999999994700, -1.700000000000000200, 34.20000000000000300 ) ) ;
#413 = DIRECTION ( 'NONE',  ( -1.000000000000000000, 0.0000000000000000000, -9.637352644315579000E-016 ) ) ;
#414 = DIRECTION ( 'NONE',  ( -0.0000000000000000000, 0.0000000000000000000, -1.000000000000000000 ) ) ;
#415 = PLANE ( 'NONE',  #801 ) ;
#416 = CARTESIAN_POINT ( 'NONE',  ( -9.500000000000000000, -1.700000000000000200, 36.00000000000000700 ) ) ;
#417 = DIRECTION ( 'NONE',  ( 0.0000000000000000000, 0.0000000000000000000, -1.000000000000000000 ) ) ;
#418 = DIRECTION ( 'NONE',  ( 1.000000000000000000, 0.0000000000000000000, -0.0000000000000000000 ) ) ;
#419 = DIRECTION ( 'NONE',  ( -0.0000000000000000000, 1.000000000000000000, -0.0000000000000000000 ) ) ;
#420 = CARTESIAN_POINT ( 'NONE',  ( 0.0000000000000000000, 0.0000000000000000000, 12.00000000000000000 ) ) ;
#421 = PLANE ( 'NONE',  #800 ) ;
#422 = DIRECTION ( 'NONE',  ( 0.0000000000000000000, 0.0000000000000000000, 1.000000000000000000 ) ) ;
#423 = CARTESIAN_POINT ( 'NONE',  ( 7.500000000000007100, 2.168404344971008900E-015, 38.00000000000000000 ) ) ;
#424 = CARTESIAN_POINT ( 'NONE',  ( 4.899999999999992400, -1.700000000000000200, 29.30000000000000100 ) ) ;
#425 = CARTESIAN_POINT ( 'NONE',  ( -9.500000000000000000, -1.999999999999998700, 38.00000000000000000 ) ) ;
#426 = DIRECTION ( 'NONE',  ( -1.000000000000000000, -9.427844978134828800E-017, 0.0000000000000000000 ) ) ;
#427 = DIRECTION ( 'NONE',  ( 0.0000000000000000000, 0.0000000000000000000, 1.000000000000000000 ) ) ;
#428 = PLANE ( 'NONE',  #841 ) ;
#429 = DIRECTION ( 'NONE',  ( -9.427844978134828800E-017, 1.000000000000000000, 0.0000000000000000000 ) ) ;
#430 = DIRECTION ( 'NONE',  ( 0.7071067811865489100, 0.0000000000000000000, -0.7071067811865462400 ) ) ;
#431 = DIRECTION ( 'NONE',  ( 1.000000000000000000, 0.0000000000000000000, -0.0000000000000000000 ) ) ;
#432 = DIRECTION ( 'NONE',  ( 0.7071067811865463500, -0.7071067811865487900, 0.0000000000000000000 ) ) ;
#433 = PLANE ( 'NONE',  #798 ) ;
#434 = DIRECTION ( 'NONE',  ( -1.000000000000000000, 0.0000000000000000000, -0.0000000000000000000 ) ) ;
#435 = PLANE ( 'NONE',  #805 ) ;
#436 = CARTESIAN_POINT ( 'NONE',  ( 0.0000000000000000000, 0.0000000000000000000, 0.0000000000000000000 ) ) ;
#437 = DIRECTION ( 'NONE',  ( -0.7071067811865487900, -0.7071067811865463500, 0.0000000000000000000 ) ) ;
#438 = DIRECTION ( 'NONE',  ( 0.0000000000000000000, 0.0000000000000000000, -1.000000000000000000 ) ) ;
#439 = DIRECTION ( 'NONE',  ( 0.0000000000000000000, 0.0000000000000000000, -1.000000000000000000 ) ) ;
#440 = PLANE ( 'NONE',  #491 ) ;
#441 = DIRECTION ( 'NONE',  ( -1.000000000000000000, 0.0000000000000000000, -0.0000000000000000000 ) ) ;
#442 = PLANE ( 'NONE',  #486 ) ;
#443 = DIRECTION ( 'NONE',  ( -9.637352644315579000E-016, 0.0000000000000000000, 1.000000000000000000 ) ) ;
#444 = CARTESIAN_POINT ( 'NONE',  ( 4.900000000000000400, -8.699999999999999300, 38.00000000000000000 ) ) ;
#445 = DIRECTION ( 'NONE',  ( -1.770125995894701000E-016, 1.000000000000000000, 0.0000000000000000000 ) ) ;
#446 = DIRECTION ( 'NONE',  ( -1.000000000000000000, -1.770125995894701000E-016, 0.0000000000000000000 ) ) ;
#447 = CARTESIAN_POINT ( 'NONE',  ( 0.0000000000000000000, 0.0000000000000000000, 38.00000000000000000 ) ) ;
#448 = DIRECTION ( 'NONE',  ( -0.7071067811865462400, 0.0000000000000000000, -0.7071067811865489100 ) ) ;
#449 = PLANE ( 'NONE',  #802 ) ;
#450 = DIRECTION ( 'NONE',  ( 1.224646799147353500E-016, -1.000000000000000000, 0.0000000000000000000 ) ) ;
#451 = CARTESIAN_POINT ( 'NONE',  ( 0.0000000000000000000, -1.700000000000000200, 0.0000000000000000000 ) ) ;
#452 = DIRECTION ( 'NONE',  ( 0.0000000000000000000, -0.0000000000000000000, -1.000000000000000000 ) ) ;
#453 = PLANE ( 'NONE',  #497 ) ;
#454 = DIRECTION ( 'NONE',  ( 0.0000000000000000000, -1.000000000000000000, 0.0000000000000000000 ) ) ;
#455 = DIRECTION ( 'NONE',  ( -0.0000000000000000000, 1.000000000000000000, -0.0000000000000000000 ) ) ;
#456 = CARTESIAN_POINT ( 'NONE',  ( 4.899999999999991500, -1.700000000000000200, 34.20000000000000300 ) ) ;
#457 = CARTESIAN_POINT ( 'NONE',  ( -7.500000000000008900, 3.314341462499769600E-016, 38.00000000000000000 ) ) ;
#458 = CARTESIAN_POINT ( 'NONE',  ( 0.0000000000000000000, 0.0000000000000000000, 12.00000000000000000 ) ) ;
#459 = DIRECTION ( 'NONE',  ( -0.0000000000000000000, 0.0000000000000000000, 1.000000000000000000 ) ) ;
#460 = DIRECTION ( 'NONE',  ( 1.000000000000000000, 0.0000000000000000000, 0.0000000000000000000 ) ) ;
#461 = DIRECTION ( 'NONE',  ( 0.0000000000000000000, 0.0000000000000000000, 1.000000000000000000 ) ) ;
#462 = PLANE ( 'NONE',  #492 ) ;
#463 = CARTESIAN_POINT ( 'NONE',  ( 9.500000000000000000, -3.800000000000000300, 38.00000000000000000 ) ) ;
#464 = DIRECTION ( 'NONE',  ( 1.000000000000000000, 1.770125995894701000E-016, -0.0000000000000000000 ) ) ;
#465 = CARTESIAN_POINT ( 'NONE',  ( -9.500000000000000000, -3.800000000000002500, 38.00000000000000000 ) ) ;
#466 = DIRECTION ( 'NONE',  ( 1.000000000000000000, 1.224646799147353500E-016, 0.0000000000000000000 ) ) ;
#467 = CARTESIAN_POINT ( 'NONE',  ( 9.500000000000000000, -1.999999999999996700, 26.00000000000000000 ) ) ;
#468 = CARTESIAN_POINT ( 'NONE',  ( 9.500000000000000000, -1.999999999999996700, 0.0000000000000000000 ) ) ;
#469 = DIRECTION ( 'NONE',  ( -0.0000000000000000000, -0.0000000000000000000, -1.000000000000000000 ) ) ;
#470 = DIRECTION ( 'NONE',  ( -0.0000000000000000000, 1.000000000000000000, -0.0000000000000000000 ) ) ;
#471 = CARTESIAN_POINT ( 'NONE',  ( -9.500000000000000000, -3.800000000000002500, 26.00000000000000000 ) ) ;
#472 = DIRECTION ( 'NONE',  ( 0.0000000000000000000, 1.000000000000000000, 0.0000000000000000000 ) ) ;
#473 = DIRECTION ( 'NONE',  ( -0.0000000000000000000, -0.0000000000000000000, -1.000000000000000000 ) ) ;
#474 = PRODUCT_DEFINITION_FORMATION_WITH_SPECIFIED_SOURCE ( 'ANY', '', #618, .NOT_KNOWN. ) ;
#475 = APPROVAL ( #621, 'UNSPECIFIED' ) ;
#476 = CC_DESIGN_PERSON_AND_ORGANIZATION_ASSIGNMENT ( #269, #629, ( #474 ) ) ;
#477 = PRODUCT_RELATED_PRODUCT_CATEGORY ( 'detail', '', ( #618 ) ) ;
#478 = CC_DESIGN_PERSON_AND_ORGANIZATION_ASSIGNMENT ( #262, #622, ( #474 ) ) ;
#479 = SECURITY_CLASSIFICATION ( '', '', #627 ) ;
#480 = CC_DESIGN_DATE_AND_TIME_ASSIGNMENT ( #257, #630, ( #479 ) ) ;
#481 = CC_DESIGN_PERSON_AND_ORGANIZATION_ASSIGNMENT ( #236, #626, ( #479 ) ) ;
#482 = APPROVAL ( #620, 'UNSPECIFIED' ) ;
#483 = CC_DESIGN_APPROVAL ( #475, ( #474 ) ) ;
#484 = CC_DESIGN_APPROVAL ( #482, ( #479 ) ) ;
#485 = CC_DESIGN_SECURITY_CLASSIFICATION ( #479, ( #474 ) ) ;
#486 = AXIS2_PLACEMENT_3D ( 'NONE', #444, #445, #446 ) ;
#487 =( GEOMETRIC_REPRESENTATION_CONTEXT ( 3 ) GLOBAL_UNCERTAINTY_ASSIGNED_CONTEXT ( ( #796 ) ) GLOBAL_UNIT_ASSIGNED_CONTEXT ( ( #672, #673, #678 ) ) REPRESENTATION_CONTEXT ( 'NONE', 'WORKASPACE' ) );
#488 = APPROVAL ( #669, 'UNSPECIFIED' ) ;
#489 = AXIS2_PLACEMENT_3D ( 'NONE', #661, #636, #659 ) ;
#490 = CC_DESIGN_APPROVAL ( #488, ( #498 ) ) ;
#491 = AXIS2_PLACEMENT_3D ( 'NONE', #451, #454, #452 ) ;
#492 = AXIS2_PLACEMENT_3D ( 'NONE', #457, #450, #466 ) ;
#493 = CC_DESIGN_PERSON_AND_ORGANIZATION_ASSIGNMENT ( #247, #682, ( #618 ) ) ;
#494 = AXIS2_PLACEMENT_3D ( 'NONE', #458, #455, #461 ) ;
#495 = AXIS2_PLACEMENT_3D ( 'NONE', #680, #677, #679 ) ;
#496 = CC_DESIGN_PERSON_AND_ORGANIZATION_ASSIGNMENT ( #251, #623, ( #498 ) ) ;
#497 = AXIS2_PLACEMENT_3D ( 'NONE', #456, #459, #460 ) ;
#498 = PRODUCT_DEFINITION ( 'UNKNOWN', '', #474, #843 ) ;
#499 = CC_DESIGN_DATE_AND_TIME_ASSIGNMENT ( #248, #624, ( #498 ) ) ;
#500 = CARTESIAN_POINT ( 'NONE',  ( 9.499999999999992900, -1.700000000000000200, 36.00000000000000700 ) ) ;
#501 = CARTESIAN_POINT ( 'NONE',  ( -4.899999999999999500, 23.30000000000000100, 34.20000000000000300 ) ) ;
#502 = DIRECTION ( 'NONE',  ( -0.7071067811865462400, -0.0000000000000000000, -0.7071067811865489100 ) ) ;
#503 = DIRECTION ( 'NONE',  ( 1.000000000000000000, -0.0000000000000000000, -0.0000000000000000000 ) ) ;
#504 = DIRECTION ( 'NONE',  ( -0.0000000000000000000, 1.000000000000000000, -0.0000000000000000000 ) ) ;
#505 = CARTESIAN_POINT ( 'NONE',  ( -9.500000000000000000, 23.30000000000000100, 36.00000000000000700 ) ) ;
#506 = DIRECTION ( 'NONE',  ( -9.637352644315579000E-016, 0.0000000000000000000, 1.000000000000000000 ) ) ;
#507 = CARTESIAN_POINT ( 'NONE',  ( -4.899999999999999500, -1.700000000000000200, 34.20000000000000300 ) ) ;
#508 = CARTESIAN_POINT ( 'NONE',  ( 0.0000000000000000000, -0.6250000000000005600, 12.00000000000000000 ) ) ;
#509 = DIRECTION ( 'NONE',  ( -9.637352644315579000E-016, -0.0000000000000000000, -1.000000000000000000 ) ) ;
#510 = DIRECTION ( 'NONE',  ( -0.0000000000000000000, 1.000000000000000000, -0.0000000000000000000 ) ) ;
#511 = DIRECTION ( 'NONE',  ( -0.0000000000000000000, 1.000000000000000000, -0.0000000000000000000 ) ) ;
#512 = DIRECTION ( 'NONE',  ( 0.0000000000000000000, 0.0000000000000000000, 1.000000000000000000 ) ) ;
#513 = CARTESIAN_POINT ( 'NONE',  ( 4.900000000000001200, -1.700000000000000200, 38.00000000000000000 ) ) ;
#514 = CARTESIAN_POINT ( 'NONE',  ( 4.900000000000000400, -8.699999999999999300, 0.0000000000000000000 ) ) ;
#515 = CARTESIAN_POINT ( 'NONE',  ( 9.499999999999994700, 23.30000000000000100, 34.20000000000000300 ) ) ;
#516 = DIRECTION ( 'NONE',  ( 0.0000000000000000000, 0.0000000000000000000, 1.000000000000000000 ) ) ;
#517 = DIRECTION ( 'NONE',  ( 1.000000000000000000, -0.0000000000000000000, -0.0000000000000000000 ) ) ;
#518 = CARTESIAN_POINT ( 'NONE',  ( 4.899999999999999500, 1.224646799147354200E-016, 26.00000000000000000 ) ) ;
#519 = CARTESIAN_POINT ( 'NONE',  ( -4.900000000000003000, -3.800000000000002000, 38.00000000000000000 ) ) ;
#520 = DIRECTION ( 'NONE',  ( 5.310377987684104800E-016, -1.000000000000000000, 0.0000000000000000000 ) ) ;
#521 = CARTESIAN_POINT ( 'NONE',  ( -7.500000000000019500, -1.700000000000000200, 37.99999999999999300 ) ) ;
#522 = CARTESIAN_POINT ( 'NONE',  ( 0.0000000000000000000, 13.30000000000000200, 38.00000000000000000 ) ) ;
#523 = DIRECTION ( 'NONE',  ( -0.0000000000000000000, -0.0000000000000000000, -1.000000000000000000 ) ) ;
#524 = DIRECTION ( 'NONE',  ( -1.000000000000000000, 0.0000000000000000000, 0.0000000000000000000 ) ) ;
#525 = DIRECTION ( 'NONE',  ( -1.000000000000000000, -0.0000000000000000000, -0.0000000000000000000 ) ) ;
#526 = CARTESIAN_POINT ( 'NONE',  ( -7.500000000000019500, 23.30000000000000100, 37.99999999999999300 ) ) ;
#527 = CARTESIAN_POINT ( 'NONE',  ( -9.500000000000001800, 23.30000000000000100, 34.20000000000000300 ) ) ;
#528 = DIRECTION ( 'NONE',  ( 0.0000000000000000000, -1.000000000000000000, 0.0000000000000000000 ) ) ;
#529 = DIRECTION ( 'NONE',  ( 5.310377987684104800E-016, -1.000000000000000000, 0.0000000000000000000 ) ) ;
#530 = CARTESIAN_POINT ( 'NONE',  ( 4.900000000000000400, -8.699999999999999300, 38.00000000000000000 ) ) ;
#531 = CARTESIAN_POINT ( 'NONE',  ( -9.500000000000000000, -1.999999999999998700, 0.0000000000000000000 ) ) ;
#532 = CARTESIAN_POINT ( 'NONE',  ( 4.899999999999992400, -1.700000000000000200, 29.30000000000000100 ) ) ;
#533 = CARTESIAN_POINT ( 'NONE',  ( -4.900000000000000400, -1.700000000000000200, 29.30000000000000100 ) ) ;
#534 = DIRECTION ( 'NONE',  ( -1.000000000000000000, -0.0000000000000000000, -0.0000000000000000000 ) ) ;
#535 = CARTESIAN_POINT ( 'NONE',  ( 7.500000000000010700, -1.700000000000000200, 37.99999999999999300 ) ) ;
#536 = DIRECTION ( 'NONE',  ( -0.0000000000000000000, 1.000000000000000000, -0.0000000000000000000 ) ) ;
#537 = CARTESIAN_POINT ( 'NONE',  ( 7.500000000000007100, 2.168404344971008900E-015, 0.0000000000000000000 ) ) ;
#538 = CARTESIAN_POINT ( 'NONE',  ( -4.900000000000000400, 23.30000000000000100, 29.30000000000000100 ) ) ;
#539 = DIRECTION ( 'NONE',  ( 9.969675149291995700E-017, -1.000000000000000000, 0.0000000000000000000 ) ) ;
#540 = CARTESIAN_POINT ( 'NONE',  ( -4.900000000000003000, -3.800000000000002000, 38.00000000000000000 ) ) ;
#541 = DIRECTION ( 'NONE',  ( -0.0000000000000000000, -0.0000000000000000000, -1.000000000000000000 ) ) ;
#542 = CARTESIAN_POINT ( 'NONE',  ( -4.900000000000003000, -3.800000000000002000, 0.0000000000000000000 ) ) ;
#543 = DIRECTION ( 'NONE',  ( -0.0000000000000000000, 1.000000000000000000, -0.0000000000000000000 ) ) ;
#544 = DIRECTION ( 'NONE',  ( 0.0000000000000000000, 1.000000000000000000, 0.0000000000000000000 ) ) ;
#545 = DIRECTION ( 'NONE',  ( -0.7071067811865464600, 0.0000000000000000000, 0.7071067811865486800 ) ) ;
#546 = CARTESIAN_POINT ( 'NONE',  ( 4.899999999999991500, 23.30000000000000100, 34.20000000000000300 ) ) ;
#547 = CARTESIAN_POINT ( 'NONE',  ( 9.500000000000000000, -3.800000000000000300, 0.0000000000000000000 ) ) ;
#548 = DIRECTION ( 'NONE',  ( 1.000000000000000000, 0.0000000000000000000, 0.0000000000000000000 ) ) ;
#549 = CARTESIAN_POINT ( 'NONE',  ( 9.499999999999992900, -1.700000000000000200, 36.00000000000000700 ) ) ;
#550 = DIRECTION ( 'NONE',  ( -0.0000000000000000000, -0.0000000000000000000, -1.000000000000000000 ) ) ;
#551 = DIRECTION ( 'NONE',  ( -0.7071067811865463500, 0.7071067811865487900, -0.0000000000000000000 ) ) ;
#552 = DIRECTION ( 'NONE',  ( 1.000000000000000000, 9.427844978134825100E-017, 0.0000000000000000000 ) ) ;
#553 = DIRECTION ( 'NONE',  ( -1.770125995894700500E-016, -0.0000000000000000000, -1.000000000000000000 ) ) ;
#554 = DIRECTION ( 'NONE',  ( -9.637352644315579000E-016, -0.0000000000000000000, -1.000000000000000000 ) ) ;
#555 = CARTESIAN_POINT ( 'NONE',  ( 9.500000000000000000, -3.800000000000000300, 26.00000000000000000 ) ) ;
#556 = DIRECTION ( 'NONE',  ( -1.000000000000000000, -0.0000000000000000000, -0.0000000000000000000 ) ) ;
#557 = CARTESIAN_POINT ( 'NONE',  ( 4.900000000000001200, -3.800000000000000700, 0.0000000000000000000 ) ) ;
#558 = DIRECTION ( 'NONE',  ( -0.0000000000000000000, 1.000000000000000000, -0.0000000000000000000 ) ) ;
#559 = CARTESIAN_POINT ( 'NONE',  ( -9.500000000000000000, -1.700000000000000200, 36.00000000000000700 ) ) ;
#560 = CARTESIAN_POINT ( 'NONE',  ( -9.500000000000000000, -1.999999999999998700, 26.00000000000000000 ) ) ;
#561 = DIRECTION ( 'NONE',  ( -0.0000000000000000000, 1.000000000000000000, -0.0000000000000000000 ) ) ;
#562 = DIRECTION ( 'NONE',  ( 1.770125995894702200E-016, 1.000000000000000000, -0.0000000000000000000 ) ) ;
#563 = CARTESIAN_POINT ( 'NONE',  ( -7.500000000000019500, -1.700000000000000200, 37.99999999999999300 ) ) ;
#564 = DIRECTION ( 'NONE',  ( 1.000000000000000000, 9.427844978134825100E-017, -0.0000000000000000000 ) ) ;
#565 = DIRECTION ( 'NONE',  ( -0.7071067811865464600, 0.0000000000000000000, 0.7071067811865486800 ) ) ;
#566 = CARTESIAN_POINT ( 'NONE',  ( -4.900000000000001200, -1.224646799147354700E-016, 26.00000000000000000 ) ) ;
#567 = DIRECTION ( 'NONE',  ( -9.969675149291993300E-017, 1.000000000000000000, -0.0000000000000000000 ) ) ;
#568 = CARTESIAN_POINT ( 'NONE',  ( -4.900000000000000400, -8.700000000000001100, 38.00000000000000000 ) ) ;
#569 = CARTESIAN_POINT ( 'NONE',  ( 4.899999999999992400, 23.30000000000000100, 29.30000000000000100 ) ) ;
#570 = DIRECTION ( 'NONE',  ( -0.0000000000000000000, -0.0000000000000000000, -1.000000000000000000 ) ) ;
#571 = CARTESIAN_POINT ( 'NONE',  ( 4.900000000000001200, -3.800000000000000700, 38.00000000000000000 ) ) ;
#572 = DIRECTION ( 'NONE',  ( -0.0000000000000000000, -0.0000000000000000000, -1.000000000000000000 ) ) ;
#573 = DIRECTION ( 'NONE',  ( 1.770125995894702200E-016, 1.000000000000000000, -0.0000000000000000000 ) ) ;
#574 = CARTESIAN_POINT ( 'NONE',  ( 4.899999999999991500, -1.700000000000000200, 34.20000000000000300 ) ) ;
#575 = CARTESIAN_POINT ( 'NONE',  ( 4.900000000000001200, -3.800000000000000700, 38.00000000000000000 ) ) ;
#576 = CARTESIAN_POINT ( 'NONE',  ( 9.499999999999992900, 23.30000000000000100, 36.00000000000000700 ) ) ;
#577 = DIRECTION ( 'NONE',  ( -0.0000000000000000000, 1.000000000000000000, -0.0000000000000000000 ) ) ;
#578 = CARTESIAN_POINT ( 'NONE',  ( 0.0000000000000000000, 13.30000000000000200, 29.30000000000000100 ) ) ;
#579 = DIRECTION ( 'NONE',  ( -1.770125995894700500E-016, 0.0000000000000000000, 1.000000000000000000 ) ) ;
#580 = DIRECTION ( 'NONE',  ( -1.000000000000000000, 0.0000000000000000000, 0.0000000000000000000 ) ) ;
#581 = CARTESIAN_POINT ( 'NONE',  ( 4.929203366568097200E-016, 0.0000000000000000000, 7.974999999999999600 ) ) ;
#582 = DIRECTION ( 'NONE',  ( -1.000000000000000000, 0.0000000000000000000, 0.0000000000000000000 ) ) ;
#583 = DIRECTION ( 'NONE',  ( -0.0000000000000000000, 1.000000000000000000, -0.0000000000000000000 ) ) ;
#584 = CARTESIAN_POINT ( 'NONE',  ( -4.025000000000000400, 13.30000000000000200, 29.30000000000000100 ) ) ;
#585 = DIRECTION ( 'NONE',  ( 0.0000000000000000000, 0.0000000000000000000, 1.000000000000000000 ) ) ;
#586 = CARTESIAN_POINT ( 'NONE',  ( 4.900000000000000400, -8.699999999999999300, 38.00000000000000000 ) ) ;
#587 = DIRECTION ( 'NONE',  ( -0.0000000000000000000, -0.0000000000000000000, -1.000000000000000000 ) ) ;
#588 = CARTESIAN_POINT ( 'NONE',  ( 4.899999999999999500, 1.224646799147354200E-016, 26.00000000000000000 ) ) ;
#589 = DIRECTION ( 'NONE',  ( -1.000000000000000000, 0.0000000000000000000, 0.0000000000000000000 ) ) ;
#590 = DIRECTION ( 'NONE',  ( -0.0000000000000000000, -0.0000000000000000000, -1.000000000000000000 ) ) ;
#591 = DIRECTION ( 'NONE',  ( -0.0000000000000000000, -0.0000000000000000000, -1.000000000000000000 ) ) ;
#592 = CARTESIAN_POINT ( 'NONE',  ( 0.0000000000000000000, -0.6250000000000005600, 12.00000000000000000 ) ) ;
#593 = CARTESIAN_POINT ( 'NONE',  ( -9.500000000000001800, -1.700000000000000200, 34.20000000000000300 ) ) ;
#594 = CARTESIAN_POINT ( 'NONE',  ( 9.499999999999994700, -1.700000000000000200, 34.20000000000000300 ) ) ;
#595 = DIRECTION ( 'NONE',  ( 1.000000000000000000, 1.770125995894701000E-016, -0.0000000000000000000 ) ) ;
#596 = DIRECTION ( 'NONE',  ( -0.0000000000000000000, 1.000000000000000000, -0.0000000000000000000 ) ) ;
#597 = CARTESIAN_POINT ( 'NONE',  ( 4.899999999999991500, -1.700000000000000200, 34.20000000000000300 ) ) ;
#598 = DIRECTION ( 'NONE',  ( -0.7071067811865483500, 0.0000000000000000000, -0.7071067811865468000 ) ) ;
#599 = DIRECTION ( 'NONE',  ( 8.659560562354942700E-017, 0.7071067811865468000, -0.7071067811865483500 ) ) ;
#600 = DIRECTION ( 'NONE',  ( -1.000000000000000000, 1.608079723904113800E-017, -0.0000000000000000000 ) ) ;
#601 = DIRECTION ( 'NONE',  ( 1.000000000000000000, 0.0000000000000000000, 0.0000000000000000000 ) ) ;
#602 = CARTESIAN_POINT ( 'NONE',  ( 9.499999999999994700, -1.700000000000000200, 34.20000000000000300 ) ) ;
#603 = DIRECTION ( 'NONE',  ( -0.0000000000000000000, -0.0000000000000000000, -1.000000000000000000 ) ) ;
#604 = CARTESIAN_POINT ( 'NONE',  ( 0.0000000000000000000, 13.30000000000000200, 29.92500000000000100 ) ) ;
#605 = DIRECTION ( 'NONE',  ( -9.637352644315579000E-016, 0.0000000000000000000, 1.000000000000000000 ) ) ;
#606 = CARTESIAN_POINT ( 'NONE',  ( 3.399999999999998600, 13.30000000000000200, 29.30000000000000100 ) ) ;
#607 = CARTESIAN_POINT ( 'NONE',  ( 0.0000000000000000000, 13.30000000000000200, 29.30000000000000100 ) ) ;
#608 = DIRECTION ( 'NONE',  ( 1.000000000000000000, -0.0000000000000000000, -0.0000000000000000000 ) ) ;
#609 = DIRECTION ( 'NONE',  ( -0.7071067811865462400, -0.0000000000000000000, -0.7071067811865489100 ) ) ;
#610 = DIRECTION ( 'NONE',  ( -0.0000000000000000000, 1.000000000000000000, -0.0000000000000000000 ) ) ;
#611 = CARTESIAN_POINT ( 'NONE',  ( 4.899999999999992400, 23.30000000000000100, 29.30000000000000100 ) ) ;
#612 = CARTESIAN_POINT ( 'NONE',  ( -9.500000000000000000, -1.700000000000000200, 36.00000000000000700 ) ) ;
#613 = CARTESIAN_POINT ( 'NONE',  ( -7.500000000000019500, -1.700000000000000200, 37.99999999999999300 ) ) ;
#614 = CARTESIAN_POINT ( 'NONE',  ( -9.500000000000001800, -1.700000000000000200, 34.20000000000000300 ) ) ;
#615 = CARTESIAN_POINT ( 'NONE',  ( 0.0000000000000000000, 13.30000000000000200, 29.92500000000000100 ) ) ;
#616 = DIRECTION ( 'NONE',  ( -0.0000000000000000000, -0.0000000000000000000, -1.000000000000000000 ) ) ;
#617 = DIRECTION ( 'NONE',  ( -1.000000000000000000, 0.0000000000000000000, 0.0000000000000000000 ) ) ;
#618 = PRODUCT ( 'ALP2176', 'ALP2176', '', ( #675 ) ) ;
#619 = PERSON ( 'UNSPECIFIED', 'UNSPECIFIED', 'UNSPECIFIED', ('UNSPECIFIED'), ('UNSPECIFIED'), ('UNSPECIFIED') ) ;
#620 = APPROVAL_STATUS ( 'not_yet_approved' ) ;
#621 = APPROVAL_STATUS ( 'not_yet_approved' ) ;
#622 = PERSON_AND_ORGANIZATION_ROLE ( 'creator' ) ;
#623 = PERSON_AND_ORGANIZATION_ROLE ( 'creator' ) ;
#624 = DATE_TIME_ROLE ( 'creation_date' ) ;
#625 = APPROVAL_ROLE ( '' ) ;
#626 = PERSON_AND_ORGANIZATION_ROLE ( 'classification_officer' ) ;
#627 = SECURITY_CLASSIFICATION_LEVEL ( 'unclassified' ) ;
#628 = APPROVAL_ROLE ( '' ) ;
#629 = PERSON_AND_ORGANIZATION_ROLE ( 'design_supplier' ) ;
#630 = DATE_TIME_ROLE ( 'classification_date' ) ;
#631 = CARTESIAN_POINT ( 'NONE',  ( -7.500000000000008900, 3.314341462499769600E-016, 0.0000000000000000000 ) ) ;
#632 = CARTESIAN_POINT ( 'NONE',  ( 4.900000000000001200, -1.700000000000001100, 38.00000000000000000 ) ) ;
#633 = CARTESIAN_POINT ( 'NONE',  ( 4.929203366568097200E-016, 0.0000000000000000000, 7.974999999999999600 ) ) ;
#634 = CARTESIAN_POINT ( 'NONE',  ( 4.899999999999991500, -1.700000000000000200, 34.20000000000000300 ) ) ;
#635 = CARTESIAN_POINT ( 'NONE',  ( 7.500000000000007100, 2.168404344971008900E-015, 0.0000000000000000000 ) ) ;
#636 = DIRECTION ( 'NONE',  ( -0.0000000000000000000, -0.0000000000000000000, -1.000000000000000000 ) ) ;
#637 = CARTESIAN_POINT ( 'NONE',  ( -4.900000000000001200, -1.224646799147354700E-016, 26.00000000000000000 ) ) ;
#638 = CARTESIAN_POINT ( 'NONE',  ( -7.500000000000008900, 1.942101288340750100E-017, 26.00000000000000000 ) ) ;
#639 = DIRECTION ( 'NONE',  ( -0.0000000000000000000, -0.0000000000000000000, -1.000000000000000000 ) ) ;
#640 = CARTESIAN_POINT ( 'NONE',  ( -4.900000000000001200, -1.224646799147354700E-016, 26.00000000000000000 ) ) ;
#641 = CARTESIAN_POINT ( 'NONE',  ( -4.899999999999999500, -1.700000000000000200, 34.20000000000000300 ) ) ;
#642 = CARTESIAN_POINT ( 'NONE',  ( -7.500000000000008900, 3.314341462499769600E-016, 38.00000000000000000 ) ) ;
#643 = DIRECTION ( 'NONE',  ( -1.000000000000000000, 1.456973654203345400E-017, 0.0000000000000000000 ) ) ;
#644 = CARTESIAN_POINT ( 'NONE',  ( -4.900000000000000400, 23.30000000000000100, 29.30000000000000100 ) ) ;
#645 = CARTESIAN_POINT ( 'NONE',  ( 0.0000000000000000000, -0.6250000000000005600, 15.39999999999999900 ) ) ;
#646 = CARTESIAN_POINT ( 'NONE',  ( -4.900000000000001200, -3.800000000000002000, 26.00000000000000000 ) ) ;
#647 = CARTESIAN_POINT ( 'NONE',  ( 4.899999999999999500, 1.224646799147354200E-016, 26.00000000000000000 ) ) ;
#648 = CARTESIAN_POINT ( 'NONE',  ( 0.0000000000000000000, -8.700000000000001100, 15.39999999999999900 ) ) ;
#649 = CARTESIAN_POINT ( 'NONE',  ( 4.025000000000000400, 13.30000000000000200, 29.30000000000000100 ) ) ;
#650 = CARTESIAN_POINT ( 'NONE',  ( 4.899999999999991500, 23.30000000000000100, 34.20000000000000300 ) ) ;
#651 = CARTESIAN_POINT ( 'NONE',  ( 9.500000000000000000, -3.800000000000000300, 26.00000000000000000 ) ) ;
#652 = CARTESIAN_POINT ( 'NONE',  ( 0.0000000000000000000, 0.0000000000000000000, 16.02500000000000200 ) ) ;
#653 = CARTESIAN_POINT ( 'NONE',  ( 4.900000000000000400, -8.699999999999999300, 0.0000000000000000000 ) ) ;
#654 = CARTESIAN_POINT ( 'NONE',  ( -4.900000000000000400, 4.336808689942017700E-016, 29.30000000000000100 ) ) ;
#655 = CARTESIAN_POINT ( 'NONE',  ( -4.900000000000001200, -1.224646799147354700E-016, 26.00000000000000000 ) ) ;
#656 = CARTESIAN_POINT ( 'NONE',  ( 7.500000000000007100, 8.065460709322832200E-017, 26.00000000000000000 ) ) ;
#657 = CARTESIAN_POINT ( 'NONE',  ( 4.899999999999992400, 0.0000000000000000000, 29.30000000000000100 ) ) ;
#658 = CARTESIAN_POINT ( 'NONE',  ( -4.900000000000003000, -3.800000000000002000, 0.0000000000000000000 ) ) ;
#659 = DIRECTION ( 'NONE',  ( -1.000000000000000000, 0.0000000000000000000, 0.0000000000000000000 ) ) ;
#660 = DIRECTION ( 'NONE',  ( -0.0000000000000000000, 1.000000000000000000, -0.0000000000000000000 ) ) ;
#661 = CARTESIAN_POINT ( 'NONE',  ( 0.0000000000000000000, 13.30000000000000200, 38.00000000000000000 ) ) ;
#662 = DIRECTION ( 'NONE',  ( -0.0000000000000000000, -0.0000000000000000000, 1.000000000000000000 ) ) ;
#663 = CARTESIAN_POINT ( 'NONE',  ( -3.399999999999998100, 13.30000000000000200, 38.00000000000000000 ) ) ;
#664 = CARTESIAN_POINT ( 'NONE',  ( -4.899999999999999500, -1.700000000000000200, 34.20000000000000300 ) ) ;
#665 = CARTESIAN_POINT ( 'NONE',  ( -4.900000000000000400, -8.700000000000001100, 38.00000000000000000 ) ) ;
#666 = CARTESIAN_POINT ( 'NONE',  ( 4.899999999999992400, 23.30000000000000100, 29.30000000000000100 ) ) ;
#667 = APPLICATION_CONTEXT ( 'configuration controlled 3d designs of mechanical parts and assemblies' ) ;
#668 = APPLICATION_PROTOCOL_DEFINITION ( 'international standard', 'config_control_design', 1994, #667 ) ;
#669 = APPROVAL_STATUS ( 'not_yet_approved' ) ;
#670 = APPLICATION_CONTEXT ( 'configuration controlled 3d designs of mechanical parts and assemblies' ) ;
#671 = APPROVAL_ROLE ( '' ) ;
#672 =( LENGTH_UNIT ( ) NAMED_UNIT ( * ) SI_UNIT ( .MILLI., .METRE. ) );
#673 =( NAMED_UNIT ( * ) PLANE_ANGLE_UNIT ( ) SI_UNIT ( $, .RADIAN. ) );
#674 = CARTESIAN_POINT ( 'NONE',  ( -4.900000000000000400, -8.700000000000001100, 0.0000000000000000000 ) ) ;
#675 = MECHANICAL_CONTEXT ( 'NONE', #670, 'mechanical' ) ;
#676 = CARTESIAN_POINT ( 'NONE',  ( -3.399999999999999000, 13.30000000000000200, 29.92500000000000100 ) ) ;
#677 = DIRECTION ( 'NONE',  ( 0.0000000000000000000, 0.0000000000000000000, 1.000000000000000000 ) ) ;
#678 =( NAMED_UNIT ( * ) SI_UNIT ( $, .STERADIAN. ) SOLID_ANGLE_UNIT ( ) );
#679 = DIRECTION ( 'NONE',  ( 1.000000000000000000, 0.0000000000000000000, 0.0000000000000000000 ) ) ;
#680 = CARTESIAN_POINT ( 'NONE',  ( 0.0000000000000000000, 0.0000000000000000000, 0.0000000000000000000 ) ) ;
#681 = APPLICATION_PROTOCOL_DEFINITION ( 'international standard', 'config_control_design', 1994, #670 ) ;
#682 = PERSON_AND_ORGANIZATION_ROLE ( 'design_owner' ) ;
#683 = EDGE_CURVE ( 'NONE', #18, #23, #31, .T. ) ;
#684 = EDGE_CURVE ( 'NONE', #992, #1034, #35, .T. ) ;
#685 = EDGE_CURVE ( 'NONE', #990, #1006, #42, .T. ) ;
#686 = EDGE_CURVE ( 'NONE', #1034, #1026, #45, .T. ) ;
#687 = EDGE_CURVE ( 'NONE', #5, #990, #43, .T. ) ;
#688 = EDGE_CURVE ( 'NONE', #1026, #23, #44, .T. ) ;
#689 = EDGE_CURVE ( 'NONE', #9, #992, #33, .T. ) ;
#690 = EDGE_CURVE ( 'NONE', #990, #5, #26, .T. ) ;
#691 = EDGE_CURVE ( 'NONE', #1006, #1022, #27, .T. ) ;
#692 = EDGE_CURVE ( 'NONE', #13, #1008, #39, .T. ) ;
#693 = EDGE_CURVE ( 'NONE', #5, #4, #48, .T. ) ;
#694 = EDGE_CURVE ( 'NONE', #9, #7, #77, .T. ) ;
#695 = EDGE_CURVE ( 'NONE', #1033, #1036, #69, .T. ) ;
#696 = EDGE_CURVE ( 'NONE', #1030, #1022, #65, .T. ) ;
#697 = EDGE_CURVE ( 'NONE', #1022, #1030, #78, .T. ) ;
#698 = EDGE_CURVE ( 'NONE', #1016, #1032, #70, .T. ) ;
#699 = EDGE_CURVE ( 'NONE', #20, #1024, #49, .T. ) ;
#700 = EDGE_CURVE ( 'NONE', #1019, #1016, #82, .T. ) ;
#701 = EDGE_CURVE ( 'NONE', #13, #1036, #53, .T. ) ;
#702 = EDGE_CURVE ( 'NONE', #4, #1006, #51, .T. ) ;
#703 = EDGE_CURVE ( 'NONE', #4, #1030, #87, .T. ) ;
#704 = EDGE_CURVE ( 'NONE', #1036, #11, #88, .T. ) ;
#705 = EDGE_CURVE ( 'NONE', #2, #13, #75, .T. ) ;
#706 = EDGE_CURVE ( 'NONE', #1015, #12, #60, .T. ) ;
#707 = EDGE_CURVE ( 'NONE', #1008, #11, #56, .T. ) ;
#708 = EDGE_CURVE ( 'NONE', #992, #1019, #79, .T. ) ;
#709 = EDGE_CURVE ( 'NONE', #16, #38, #57, .T. ) ;
#710 = EDGE_CURVE ( 'NONE', #22, #14, #55, .T. ) ;
#711 = EDGE_CURVE ( 'NONE', #1031, #22, #68, .T. ) ;
#712 = EDGE_CURVE ( 'NONE', #29, #15, #62, .T. ) ;
#713 = EDGE_CURVE ( 'NONE', #22, #32, #85, .T. ) ;
#714 = EDGE_CURVE ( 'NONE', #1036, #13, #64, .T. ) ;
#715 = EDGE_CURVE ( 'NONE', #991, #1025, #58, .T. ) ;
#716 = EDGE_CURVE ( 'NONE', #19, #21, #80, .T. ) ;
#717 = EDGE_CURVE ( 'NONE', #29, #19, #96, .T. ) ;
#718 = EDGE_CURVE ( 'NONE', #38, #3, #98, .T. ) ;
#719 = EDGE_CURVE ( 'NONE', #14, #17, #93, .T. ) ;
#720 = EDGE_CURVE ( 'NONE', #15, #16, #97, .T. ) ;
#721 = EDGE_CURVE ( 'NONE', #1006, #4, #95, .T. ) ;
#722 = EDGE_CURVE ( 'NONE', #32, #17, #90, .T. ) ;
#723 = EDGE_CURVE ( 'NONE', #1031, #1028, #102, .T. ) ;
#724 = EDGE_CURVE ( 'NONE', #16, #1007, #140, .T. ) ;
#725 = EDGE_CURVE ( 'NONE', #6, #1015, #142, .T. ) ;
#726 = EDGE_CURVE ( 'NONE', #1033, #2, #126, .T. ) ;
#727 = EDGE_CURVE ( 'NONE', #6, #29, #137, .T. ) ;
#728 = EDGE_CURVE ( 'NONE', #7, #1034, #127, .T. ) ;
#729 = EDGE_CURVE ( 'NONE', #15, #21, #115, .T. ) ;
#730 = EDGE_CURVE ( 'NONE', #30, #19, #134, .T. ) ;
#731 = EDGE_CURVE ( 'NONE', #1016, #1025, #106, .T. ) ;
#732 = EDGE_CURVE ( 'NONE', #12, #1005, #107, .T. ) ;
#733 = EDGE_CURVE ( 'NONE', #25, #18, #128, .T. ) ;
#734 = EDGE_CURVE ( 'NONE', #28, #1028, #110, .T. ) ;
#735 = EDGE_CURVE ( 'NONE', #8, #1029, #109, .T. ) ;
#736 = EDGE_CURVE ( 'NONE', #10, #1, #139, .T. ) ;
#737 = EDGE_CURVE ( 'NONE', #1019, #8, #113, .T. ) ;
#738 = EDGE_CURVE ( 'NONE', #1032, #991, #117, .T. ) ;
#739 = EDGE_CURVE ( 'NONE', #1005, #10, #141, .T. ) ;
#740 = EDGE_CURVE ( 'NONE', #28, #30, #123, .T. ) ;
#741 = EDGE_CURVE ( 'NONE', #23, #20, #143, .T. ) ;
#742 = EDGE_CURVE ( 'NONE', #21, #38, #124, .T. ) ;
#743 = EDGE_CURVE ( 'NONE', #3, #991, #146, .T. ) ;
#744 = EDGE_CURVE ( 'NONE', #1001, #1024, #147, .T. ) ;
#745 = EDGE_CURVE ( 'NONE', #1024, #1035, #148, .T. ) ;
#746 = EDGE_CURVE ( 'NONE', #993, #32, #135, .T. ) ;
#747 = EDGE_CURVE ( 'NONE', #14, #28, #129, .T. ) ;
#748 = EDGE_CURVE ( 'NONE', #17, #30, #104, .T. ) ;
#749 = EDGE_CURVE ( 'NONE', #1001, #1018, #173, .T. ) ;
#750 = EDGE_CURVE ( 'NONE', #11, #1008, #186, .T. ) ;
#751 = EDGE_CURVE ( 'NONE', #1015, #1035, #187, .T. ) ;
#752 = EDGE_CURVE ( 'NONE', #1025, #993, #165, .T. ) ;
#753 = EDGE_CURVE ( 'NONE', #1031, #993, #193, .T. ) ;
#754 = EDGE_CURVE ( 'NONE', #12, #1028, #161, .T. ) ;
#755 = EDGE_CURVE ( 'NONE', #8, #10, #156, .T. ) ;
#756 = EDGE_CURVE ( 'NONE', #1035, #1005, #210, .T. ) ;
#757 = EDGE_CURVE ( 'NONE', #25, #20, #196, .T. ) ;
#758 = EDGE_CURVE ( 'NONE', #1029, #1, #204, .T. ) ;
#759 = EDGE_CURVE ( 'NONE', #1029, #9, #205, .T. ) ;
#760 = EDGE_CURVE ( 'NONE', #1, #7, #162, .T. ) ;
#761 = EDGE_CURVE ( 'NONE', #1001, #25, #190, .T. ) ;
#762 = EDGE_CURVE ( 'NONE', #18, #1027, #208, .T. ) ;
#763 = ADVANCED_FACE ( 'NONE', ( #177 ), #194, .F. ) ;
#764 = ADVANCED_FACE ( 'NONE', ( #207 ), #206, .F. ) ;
#765 = ADVANCED_FACE ( 'NONE', ( #188 ), #163, .F. ) ;
#766 = ADVANCED_FACE ( 'NONE', ( #211 ), #344, .F. ) ;
#767 = ADVANCED_FACE ( 'NONE', ( #178 ), #195, .F. ) ;
#768 = ADVANCED_FACE ( 'NONE', ( #158 ), #358, .F. ) ;
#769 = ADVANCED_FACE ( 'NONE', ( #182 ), #341, .F. ) ;
#770 = ADVANCED_FACE ( 'NONE', ( #179 ), #350, .F. ) ;
#771 = ADVANCED_FACE ( 'NONE', ( #199 ), #362, .F. ) ;
#772 = ADVANCED_FACE ( 'NONE', ( #201 ), #157, .F. ) ;
#773 = ADVANCED_FACE ( 'NONE', ( #175 ), #380, .T. ) ;
#774 = ADVANCED_FACE ( 'NONE', ( #189 ), #384, .F. ) ;
#775 = ADVANCED_FACE ( 'NONE', ( #169 ), #383, .F. ) ;
#776 = ADVANCED_FACE ( 'NONE', ( #164 ), #391, .T. ) ;
#777 = ADVANCED_FACE ( 'NONE', ( #181 ), #154, .F. ) ;
#778 = ADVANCED_FACE ( 'NONE', ( #153 ), #401, .F. ) ;
#779 = ADVANCED_FACE ( 'NONE', ( #202 ), #403, .F. ) ;
#780 = ADVANCED_FACE ( 'NONE', ( #168 ), #405, .F. ) ;
#781 = ADVANCED_FACE ( 'NONE', ( #167 ), #408, .F. ) ;
#782 = ADVANCED_FACE ( 'NONE', ( #203 ), #435, .F. ) ;
#783 = ADVANCED_FACE ( 'NONE', ( #172 ), #428, .F. ) ;
#784 = ADVANCED_FACE ( 'NONE', ( #183 ), #185, .F. ) ;
#785 = ADVANCED_FACE ( 'NONE', ( #170, #171 ), #421, .F. ) ;
#786 = ADVANCED_FACE ( 'NONE', ( #200 ), #415, .F. ) ;
#787 = ADVANCED_FACE ( 'NONE', ( #184, #217 ), #433, .F. ) ;
#788 = ADVANCED_FACE ( 'NONE', ( #212 ), #411, .F. ) ;
#789 = ADVANCED_FACE ( 'NONE', ( #232 ), #449, .T. ) ;
#790 = ADVANCED_FACE ( 'NONE', ( #222, #220 ), #442, .F. ) ;
#791 = ADVANCED_FACE ( 'NONE', ( #214 ), #440, .T. ) ;
#792 = ADVANCED_FACE ( 'NONE', ( #219 ), #218, .F. ) ;
#793 = ADVANCED_FACE ( 'NONE', ( #221 ), #453, .F. ) ;
#794 = ADVANCED_FACE ( 'NONE', ( #230, #223 ), #462, .F. ) ;
#795 = ADVANCED_BREP_SHAPE_REPRESENTATION ( 'ALP2176', ( #797, #495 ), #487 ) ;
#796 = UNCERTAINTY_MEASURE_WITH_UNIT (LENGTH_MEASURE( 1.000000000000000100E-005 ), #672, 'distance_accuracy_value', 'NONE');
#797 = MANIFOLD_SOLID_BREP ( 'M8 Tapped Hole2', #1039 ) ;
#798 = AXIS2_PLACEMENT_3D ( 'NONE', #447, #417, #434 ) ;
#799 = AXIS2_PLACEMENT_3D ( 'NONE', #412, #413, #443 ) ;
#800 = AXIS2_PLACEMENT_3D ( 'NONE', #424, #422, #431 ) ;
#801 = AXIS2_PLACEMENT_3D ( 'NONE', #423, #437, #432 ) ;
#802 = AXIS2_PLACEMENT_3D ( 'NONE', #436, #438, #441 ) ;
#803 = EDGE_CURVE ( 'NONE', #6, #1007, #224, .T. ) ;
#804 = AXIS2_PLACEMENT_3D ( 'NONE', #409, #429, #426 ) ;
#805 = AXIS2_PLACEMENT_3D ( 'NONE', #425, #418, #414 ) ;
#806 = AXIS2_PLACEMENT_3D ( 'NONE', #420, #419, #427 ) ;
#807 = EDGE_CURVE ( 'NONE', #1007, #3, #213, .T. ) ;
#808 = AXIS2_PLACEMENT_3D ( 'NONE', #351, #365, #340 ) ;
#809 = AXIS2_PLACEMENT_3D ( 'NONE', #607, #587, #589 ) ;
#810 = AXIS2_PLACEMENT_3D ( 'NONE', #353, #357, #376 ) ;
#811 = AXIS2_PLACEMENT_3D ( 'NONE', #320, #317, #318 ) ;
#812 = AXIS2_PLACEMENT_3D ( 'NONE', #330, #331, #334 ) ;
#813 = AXIS2_PLACEMENT_3D ( 'NONE', #349, #375, #339 ) ;
#814 = AXIS2_PLACEMENT_3D ( 'NONE', #370, #371, #372 ) ;
#815 = AXIS2_PLACEMENT_3D ( 'NONE', #604, #591, #582 ) ;
#816 = AXIS2_PLACEMENT_3D ( 'NONE', #308, #309, #302 ) ;
#817 = EDGE_CURVE ( 'NONE', #1018, #1027, #228, .T. ) ;
#818 = AXIS2_PLACEMENT_3D ( 'NONE', #508, #511, #512 ) ;
#819 = EDGE_CURVE ( 'NONE', #1027, #1026, #215, .T. ) ;
#820 = AXIS2_PLACEMENT_3D ( 'NONE', #348, #343, #345 ) ;
#821 = AXIS2_PLACEMENT_3D ( 'NONE', #592, #583, #585 ) ;
#822 = AXIS2_PLACEMENT_3D ( 'NONE', #355, #364, #366 ) ;
#823 = AXIS2_PLACEMENT_3D ( 'NONE', #368, #363, #356 ) ;
#824 = AXIS2_PLACEMENT_3D ( 'NONE', #369, #360, #361 ) ;
#825 = AXIS2_PLACEMENT_3D ( 'NONE', #378, #394, #397 ) ;
#826 = AXIS2_PLACEMENT_3D ( 'NONE', #615, #616, #617 ) ;
#827 = EDGE_CURVE ( 'NONE', #2, #1033, #226, .T. ) ;
#828 = AXIS2_PLACEMENT_3D ( 'NONE', #359, #342, #377 ) ;
#829 = AXIS2_PLACEMENT_3D ( 'NONE', #354, #367, #346 ) ;
#830 = AXIS2_PLACEMENT_3D ( 'NONE', #387, #389, #390 ) ;
#831 = EDGE_CURVE ( 'NONE', #1018, #1032, #231, .T. ) ;
#832 = AXIS2_PLACEMENT_3D ( 'NONE', #395, #410, #396 ) ;
#833 = AXIS2_PLACEMENT_3D ( 'NONE', #337, #338, #335 ) ;
#834 = AXIS2_PLACEMENT_3D ( 'NONE', #522, #523, #524 ) ;
#835 = AXIS2_PLACEMENT_3D ( 'NONE', #386, #379, #381 ) ;
#836 = AXIS2_PLACEMENT_3D ( 'NONE', #388, #385, #382 ) ;
#837 = AXIS2_PLACEMENT_3D ( 'NONE', #392, #402, #393 ) ;
#838 = AXIS2_PLACEMENT_3D ( 'NONE', #398, #399, #404 ) ;
#839 = AXIS2_PLACEMENT_3D ( 'NONE', #578, #572, #580 ) ;
#840 = AXIS2_PLACEMENT_3D ( 'NONE', #400, #406, #407 ) ;
#841 = AXIS2_PLACEMENT_3D ( 'NONE', #416, #430, #448 ) ;
#842 = PRODUCT_DEFINITION_SHAPE ( 'NONE', 'NONE',  #498 ) ;
#843 = DESIGN_CONTEXT ( 'detailed design', #667, 'design' ) ;
#844 = ORIENTED_EDGE ( 'NONE', *, *, #696, .F. ) ;
#845 = ORIENTED_EDGE ( 'NONE', *, *, #698, .F. ) ;
#846 = ORIENTED_EDGE ( 'NONE', *, *, #707, .T. ) ;
#847 = ORIENTED_EDGE ( 'NONE', *, *, #700, .F. ) ;
#848 = ORIENTED_EDGE ( 'NONE', *, *, #692, .T. ) ;
#849 = ORIENTED_EDGE ( 'NONE', *, *, #701, .T. ) ;
#850 = ORIENTED_EDGE ( 'NONE', *, *, #827, .F. ) ;
#851 = ORIENTED_EDGE ( 'NONE', *, *, #695, .F. ) ;
#852 = ORIENTED_EDGE ( 'NONE', *, *, #704, .F. ) ;
#853 = ORIENTED_EDGE ( 'NONE', *, *, #686, .T. ) ;
#854 = ORIENTED_EDGE ( 'NONE', *, *, #705, .T. ) ;
#855 = ORIENTED_EDGE ( 'NONE', *, *, #819, .F. ) ;
#856 = ORIENTED_EDGE ( 'NONE', *, *, #831, .T. ) ;
#857 = ORIENTED_EDGE ( 'NONE', *, *, #807, .T. ) ;
#858 = ORIENTED_EDGE ( 'NONE', *, *, #684, .T. ) ;
#859 = ORIENTED_EDGE ( 'NONE', *, *, #687, .F. ) ;
#860 = ORIENTED_EDGE ( 'NONE', *, *, #743, .T. ) ;
#861 = ORIENTED_EDGE ( 'NONE', *, *, #803, .T. ) ;
#862 = ORIENTED_EDGE ( 'NONE', *, *, #708, .F. ) ;
#863 = ORIENTED_EDGE ( 'NONE', *, *, #817, .F. ) ;
#864 = ORIENTED_EDGE ( 'NONE', *, *, #738, .F. ) ;
#865 = ORIENTED_EDGE ( 'NONE', *, *, #749, .F. ) ;
#866 = ORIENTED_EDGE ( 'NONE', *, *, #831, .F. ) ;
#867 = ORIENTED_EDGE ( 'NONE', *, *, #702, .F. ) ;
#868 = ORIENTED_EDGE ( 'NONE', *, *, #739, .T. ) ;
#869 = ORIENTED_EDGE ( 'NONE', *, *, #694, .T. ) ;
#870 = ORIENTED_EDGE ( 'NONE', *, *, #696, .T. ) ;
#871 = ORIENTED_EDGE ( 'NONE', *, *, #693, .T. ) ;
#872 = ORIENTED_EDGE ( 'NONE', *, *, #684, .F. ) ;
#873 = ORIENTED_EDGE ( 'NONE', *, *, #735, .F. ) ;
#874 = ORIENTED_EDGE ( 'NONE', *, *, #755, .F. ) ;
#875 = ORIENTED_EDGE ( 'NONE', *, *, #758, .T. ) ;
#876 = ORIENTED_EDGE ( 'NONE', *, *, #754, .F. ) ;
#877 = ORIENTED_EDGE ( 'NONE', *, *, #758, .F. ) ;
#878 = ORIENTED_EDGE ( 'NONE', *, *, #737, .F. ) ;
#879 = ORIENTED_EDGE ( 'NONE', *, *, #751, .F. ) ;
#880 = ORIENTED_EDGE ( 'NONE', *, *, #759, .F. ) ;
#881 = ORIENTED_EDGE ( 'NONE', *, *, #732, .T. ) ;
#882 = ORIENTED_EDGE ( 'NONE', *, *, #731, .T. ) ;
#883 = ORIENTED_EDGE ( 'NONE', *, *, #736, .T. ) ;
#884 = ORIENTED_EDGE ( 'NONE', *, *, #723, .T. ) ;
#885 = ORIENTED_EDGE ( 'NONE', *, *, #745, .T. ) ;
#886 = ORIENTED_EDGE ( 'NONE', *, *, #725, .F. ) ;
#887 = ORIENTED_EDGE ( 'NONE', *, *, #753, .F. ) ;
#888 = ORIENTED_EDGE ( 'NONE', *, *, #689, .F. ) ;
#889 = ORIENTED_EDGE ( 'NONE', *, *, #755, .T. ) ;
#890 = ORIENTED_EDGE ( 'NONE', *, *, #760, .T. ) ;
#891 = ORIENTED_EDGE ( 'NONE', *, *, #744, .T. ) ;
#892 = ORIENTED_EDGE ( 'NONE', *, *, #708, .T. ) ;
#893 = ORIENTED_EDGE ( 'NONE', *, *, #752, .T. ) ;
#894 = ORIENTED_EDGE ( 'NONE', *, *, #759, .T. ) ;
#895 = ORIENTED_EDGE ( 'NONE', *, *, #760, .F. ) ;
#896 = ORIENTED_EDGE ( 'NONE', *, *, #687, .T. ) ;
#897 = ORIENTED_EDGE ( 'NONE', *, *, #706, .F. ) ;
#898 = ORIENTED_EDGE ( 'NONE', *, *, #762, .T. ) ;
#899 = ORIENTED_EDGE ( 'NONE', *, *, #700, .T. ) ;
#900 = ORIENTED_EDGE ( 'NONE', *, *, #694, .F. ) ;
#901 = ORIENTED_EDGE ( 'NONE', *, *, #683, .F. ) ;
#902 = ORIENTED_EDGE ( 'NONE', *, *, #728, .T. ) ;
#903 = ORIENTED_EDGE ( 'NONE', *, *, #819, .T. ) ;
#904 = ORIENTED_EDGE ( 'NONE', *, *, #683, .T. ) ;
#905 = ORIENTED_EDGE ( 'NONE', *, *, #749, .T. ) ;
#906 = ORIENTED_EDGE ( 'NONE', *, *, #817, .T. ) ;
#907 = ORIENTED_EDGE ( 'NONE', *, *, #741, .T. ) ;
#908 = ORIENTED_EDGE ( 'NONE', *, *, #688, .F. ) ;
#909 = ORIENTED_EDGE ( 'NONE', *, *, #732, .F. ) ;
#910 = ORIENTED_EDGE ( 'NONE', *, *, #744, .F. ) ;
#911 = ORIENTED_EDGE ( 'NONE', *, *, #751, .T. ) ;
#912 = ORIENTED_EDGE ( 'NONE', *, *, #688, .T. ) ;
#913 = ORIENTED_EDGE ( 'NONE', *, *, #736, .F. ) ;
#914 = ORIENTED_EDGE ( 'NONE', *, *, #690, .T. ) ;
#915 = ORIENTED_EDGE ( 'NONE', *, *, #699, .T. ) ;
#916 = ORIENTED_EDGE ( 'NONE', *, *, #728, .F. ) ;
#917 = ORIENTED_EDGE ( 'NONE', *, *, #756, .T. ) ;
#918 = ORIENTED_EDGE ( 'NONE', *, *, #726, .T. ) ;
#919 = ORIENTED_EDGE ( 'NONE', *, *, #733, .T. ) ;
#920 = ORIENTED_EDGE ( 'NONE', *, *, #739, .F. ) ;
#921 = ORIENTED_EDGE ( 'NONE', *, *, #827, .T. ) ;
#922 = ORIENTED_EDGE ( 'NONE', *, *, #689, .T. ) ;
#923 = ORIENTED_EDGE ( 'NONE', *, *, #706, .T. ) ;
#924 = ORIENTED_EDGE ( 'NONE', *, *, #754, .T. ) ;
#925 = ORIENTED_EDGE ( 'NONE', *, *, #725, .T. ) ;
#926 = ORIENTED_EDGE ( 'NONE', *, *, #735, .T. ) ;
#927 = ORIENTED_EDGE ( 'NONE', *, *, #734, .F. ) ;
#928 = ORIENTED_EDGE ( 'NONE', *, *, #715, .T. ) ;
#929 = ORIENTED_EDGE ( 'NONE', *, *, #762, .F. ) ;
#930 = ORIENTED_EDGE ( 'NONE', *, *, #803, .F. ) ;
#931 = ORIENTED_EDGE ( 'NONE', *, *, #756, .F. ) ;
#932 = ORIENTED_EDGE ( 'NONE', *, *, #761, .F. ) ;
#933 = ORIENTED_EDGE ( 'NONE', *, *, #699, .F. ) ;
#934 = ORIENTED_EDGE ( 'NONE', *, *, #707, .F. ) ;
#935 = ORIENTED_EDGE ( 'NONE', *, *, #730, .T. ) ;
#936 = ORIENTED_EDGE ( 'NONE', *, *, #741, .F. ) ;
#937 = ORIENTED_EDGE ( 'NONE', *, *, #738, .T. ) ;
#938 = ORIENTED_EDGE ( 'NONE', *, *, #731, .F. ) ;
#939 = ORIENTED_EDGE ( 'NONE', *, *, #698, .T. ) ;
#940 = ORIENTED_EDGE ( 'NONE', *, *, #750, .F. ) ;
#941 = ORIENTED_EDGE ( 'NONE', *, *, #745, .F. ) ;
#942 = ORIENTED_EDGE ( 'NONE', *, *, #757, .T. ) ;
#943 = ORIENTED_EDGE ( 'NONE', *, *, #727, .T. ) ;
#944 = ORIENTED_EDGE ( 'NONE', *, *, #761, .T. ) ;
#945 = ORIENTED_EDGE ( 'NONE', *, *, #733, .F. ) ;
#946 = ORIENTED_EDGE ( 'NONE', *, *, #717, .F. ) ;
#947 = ORIENTED_EDGE ( 'NONE', *, *, #737, .T. ) ;
#948 = ORIENTED_EDGE ( 'NONE', *, *, #757, .F. ) ;
#949 = ORIENTED_EDGE ( 'NONE', *, *, #734, .T. ) ;
#950 = ORIENTED_EDGE ( 'NONE', *, *, #709, .T. ) ;
#951 = ORIENTED_EDGE ( 'NONE', *, *, #740, .T. ) ;
#952 = ORIENTED_EDGE ( 'NONE', *, *, #716, .F. ) ;
#953 = ORIENTED_EDGE ( 'NONE', *, *, #748, .T. ) ;
#954 = ORIENTED_EDGE ( 'NONE', *, *, #729, .F. ) ;
#955 = ORIENTED_EDGE ( 'NONE', *, *, #746, .T. ) ;
#956 = ORIENTED_EDGE ( 'NONE', *, *, #717, .T. ) ;
#957 = ORIENTED_EDGE ( 'NONE', *, *, #718, .T. ) ;
#958 = ORIENTED_EDGE ( 'NONE', *, *, #709, .F. ) ;
#959 = ORIENTED_EDGE ( 'NONE', *, *, #727, .F. ) ;
#960 = ORIENTED_EDGE ( 'NONE', *, *, #720, .T. ) ;
#961 = ORIENTED_EDGE ( 'NONE', *, *, #711, .T. ) ;
#962 = ORIENTED_EDGE ( 'NONE', *, *, #704, .T. ) ;
#963 = ORIENTED_EDGE ( 'NONE', *, *, #712, .F. ) ;
#964 = ORIENTED_EDGE ( 'NONE', *, *, #748, .F. ) ;
#965 = ORIENTED_EDGE ( 'NONE', *, *, #714, .T. ) ;
#966 = ORIENTED_EDGE ( 'NONE', *, *, #718, .F. ) ;
#967 = ORIENTED_EDGE ( 'NONE', *, *, #713, .T. ) ;
#968 = ORIENTED_EDGE ( 'NONE', *, *, #713, .F. ) ;
#969 = ORIENTED_EDGE ( 'NONE', *, *, #753, .T. ) ;
#970 = ORIENTED_EDGE ( 'NONE', *, *, #720, .F. ) ;
#971 = ORIENTED_EDGE ( 'NONE', *, *, #712, .T. ) ;
#972 = ORIENTED_EDGE ( 'NONE', *, *, #710, .F. ) ;
#973 = ORIENTED_EDGE ( 'NONE', *, *, #715, .F. ) ;
#974 = ORIENTED_EDGE ( 'NONE', *, *, #724, .T. ) ;
#975 = ORIENTED_EDGE ( 'NONE', *, *, #742, .T. ) ;
#976 = ORIENTED_EDGE ( 'NONE', *, *, #686, .F. ) ;
#977 = ORIENTED_EDGE ( 'NONE', *, *, #705, .F. ) ;
#978 = ORIENTED_EDGE ( 'NONE', *, *, #722, .F. ) ;
#979 = ORIENTED_EDGE ( 'NONE', *, *, #719, .F. ) ;
#980 = ORIENTED_EDGE ( 'NONE', *, *, #747, .F. ) ;
#981 = ORIENTED_EDGE ( 'NONE', *, *, #747, .T. ) ;
#982 = ORIENTED_EDGE ( 'NONE', *, *, #692, .F. ) ;
#983 = ORIENTED_EDGE ( 'NONE', *, *, #722, .T. ) ;
#984 = ORIENTED_EDGE ( 'NONE', *, *, #711, .F. ) ;
#985 = ORIENTED_EDGE ( 'NONE', *, *, #716, .T. ) ;
#986 = ORIENTED_EDGE ( 'NONE', *, *, #710, .T. ) ;
#987 = ORIENTED_EDGE ( 'NONE', *, *, #724, .F. ) ;
#988 = ORIENTED_EDGE ( 'NONE', *, *, #740, .F. ) ;
#989 = ORIENTED_EDGE ( 'NONE', *, *, #742, .F. ) ;
#990 = VERTEX_POINT ( 'NONE', #648 ) ;
#991 = VERTEX_POINT ( 'NONE', #644 ) ;
#992 = VERTEX_POINT ( 'NONE', #656 ) ;
#993 = VERTEX_POINT ( 'NONE', #650 ) ;
#994 = ORIENTED_EDGE ( 'NONE', *, *, #807, .F. ) ;
#995 = ORIENTED_EDGE ( 'NONE', *, *, #721, .T. ) ;
#996 = ORIENTED_EDGE ( 'NONE', *, *, #697, .T. ) ;
#997 = ORIENTED_EDGE ( 'NONE', *, *, #743, .F. ) ;
#998 = ORIENTED_EDGE ( 'NONE', *, *, #691, .T. ) ;
#999 = ORIENTED_EDGE ( 'NONE', *, *, #685, .T. ) ;
#1000 = ORIENTED_EDGE ( 'NONE', *, *, #750, .T. ) ;
#1001 = VERTEX_POINT ( 'NONE', #646 ) ;
#1002 = ORIENTED_EDGE ( 'NONE', *, *, #730, .F. ) ;
#1003 = ORIENTED_EDGE ( 'NONE', *, *, #729, .T. ) ;
#1004 = ORIENTED_EDGE ( 'NONE', *, *, #693, .F. ) ;
#1005 = VERTEX_POINT ( 'NONE', #653 ) ;
#1006 = VERTEX_POINT ( 'NONE', #645 ) ;
#1007 = VERTEX_POINT ( 'NONE', #641 ) ;
#1008 = VERTEX_POINT ( 'NONE', #649 ) ;
#1009 = ORIENTED_EDGE ( 'NONE', *, *, #714, .F. ) ;
#1010 = ORIENTED_EDGE ( 'NONE', *, *, #723, .F. ) ;
#1011 = ORIENTED_EDGE ( 'NONE', *, *, #719, .T. ) ;
#1012 = ORIENTED_EDGE ( 'NONE', *, *, #752, .F. ) ;
#1013 = ORIENTED_EDGE ( 'NONE', *, *, #726, .F. ) ;
#1014 = ORIENTED_EDGE ( 'NONE', *, *, #695, .T. ) ;
#1015 = VERTEX_POINT ( 'NONE', #665 ) ;
#1016 = VERTEX_POINT ( 'NONE', #657 ) ;
#1017 = ORIENTED_EDGE ( 'NONE', *, *, #703, .F. ) ;
#1018 = VERTEX_POINT ( 'NONE', #655 ) ;
#1019 = VERTEX_POINT ( 'NONE', #647 ) ;
#1020 = ORIENTED_EDGE ( 'NONE', *, *, #746, .F. ) ;
#1021 = ORIENTED_EDGE ( 'NONE', *, *, #690, .F. ) ;
#1022 = VERTEX_POINT ( 'NONE', #652 ) ;
#1023 = ORIENTED_EDGE ( 'NONE', *, *, #721, .F. ) ;
#1024 = VERTEX_POINT ( 'NONE', #658 ) ;
#1025 = VERTEX_POINT ( 'NONE', #666 ) ;
#1026 = VERTEX_POINT ( 'NONE', #631 ) ;
#1027 = VERTEX_POINT ( 'NONE', #638 ) ;
#1028 = VERTEX_POINT ( 'NONE', #632 ) ;
#1029 = VERTEX_POINT ( 'NONE', #651 ) ;
#1030 = VERTEX_POINT ( 'NONE', #633 ) ;
#1031 = VERTEX_POINT ( 'NONE', #634 ) ;
#1032 = VERTEX_POINT ( 'NONE', #654 ) ;
#1033 = VERTEX_POINT ( 'NONE', #663 ) ;
#1034 = VERTEX_POINT ( 'NONE', #635 ) ;
#1035 = VERTEX_POINT ( 'NONE', #674 ) ;
#1036 = VERTEX_POINT ( 'NONE', #676 ) ;
#1037 = EDGE_LOOP ( 'NONE', ( #859, #871, #1072, #1073 ) ) ;
#1038 = EDGE_LOOP ( 'NONE', ( #861, #857, #860, #864, #866, #865, #891, #885, #879, #886 ) ) ;
#1039 = CLOSED_SHELL ( 'NONE', ( #764, #792, #763, #777, #794, #779, #775, #786, #778, #780, #774, #782, #781, #790, #787, #789, #770, #773, #785, #776, #791, #793, #788, #766, #783, #768, #771, #769, #767, #772, #765, #784 ) ) ;
#1040 = EDGE_LOOP ( 'NONE', ( #867, #1078, #870, #1077 ) ) ;
#1041 = EDGE_LOOP ( 'NONE', ( #1079, #848, #846, #852 ) ) ;
#1042 = EDGE_LOOP ( 'NONE', ( #899, #882, #893, #887, #884, #876, #881, #868, #874, #878 ) ) ;
#1043 = EDGE_LOOP ( 'NONE', ( #850, #854, #849, #851 ) ) ;
#1044 = EDGE_LOOP ( 'NONE', ( #997, #966, #989, #952, #1002, #964, #978, #1020, #1012, #973 ) ) ;
#1045 = EDGE_LOOP ( 'NONE', ( #985, #954, #963, #956 ) ) ;
#1046 = EDGE_LOOP ( 'NONE', ( #983, #979, #972, #967 ) ) ;
#1047 = EDGE_LOOP ( 'NONE', ( #953, #988, #980, #1011 ) ) ;
#1048 = EDGE_LOOP ( 'NONE', ( #977, #1013, #1014, #965 ) ) ;
#1049 = EDGE_LOOP ( 'NONE', ( #845, #847, #862, #858, #853, #855, #863, #856 ) ) ;
#1050 = EDGE_LOOP ( 'NONE', ( #948, #919, #904, #907 ) ) ;
#1051 = EDGE_LOOP ( 'NONE', ( #975, #958, #970, #1003 ) ) ;
#1052 = EDGE_LOOP ( 'NONE', ( #873, #889, #883, #877 ) ) ;
#1053 = EDGE_LOOP ( 'NONE', ( #901, #898, #903, #912 ) ) ;
#1054 = EDGE_LOOP ( 'NONE', ( #1004, #1021, #999, #995 ) ) ;
#1055 = EDGE_LOOP ( 'NONE', ( #918, #921 ) ) ;
#1056 = EDGE_LOOP ( 'NONE', ( #917, #909, #897, #911 ) ) ;
#1057 = EDGE_LOOP ( 'NONE', ( #922, #892, #947, #926, #894 ) ) ;
#1058 = EDGE_LOOP ( 'NONE', ( #959, #925, #923, #924, #927, #951, #935, #946 ) ) ;
#1059 = EDGE_LOOP ( 'NONE', ( #930, #943, #971, #960, #974 ) ) ;
#1060 = EDGE_LOOP ( 'NONE', ( #916, #895, #913, #920, #931, #941, #933, #936, #908, #976 ) ) ;
#1061 = EDGE_LOOP ( 'NONE', ( #888, #869, #902, #872 ) ) ;
#1062 = EDGE_LOOP ( 'NONE', ( #955, #968, #984, #969 ) ) ;
#1063 = EDGE_LOOP ( 'NONE', ( #1076, #844 ) ) ;
#1064 = EDGE_LOOP ( 'NONE', ( #938, #939, #937, #928 ) ) ;
#1065 = EDGE_LOOP ( 'NONE', ( #957, #994, #987, #950 ) ) ;
#1066 = EDGE_LOOP ( 'NONE', ( #910, #944, #942, #915 ) ) ;
#1067 = EDGE_LOOP ( 'NONE', ( #880, #875, #890, #900 ) ) ;
#1068 = EDGE_LOOP ( 'NONE', ( #914, #896 ) ) ;
#1069 = EDGE_LOOP ( 'NONE', ( #940, #934 ) ) ;
#1070 = EDGE_LOOP ( 'NONE', ( #945, #932, #905, #906, #929 ) ) ;
#1071 = EDGE_LOOP ( 'NONE', ( #1010, #961, #986, #981, #949 ) ) ;
#1072 = ORIENTED_EDGE ( 'NONE', *, *, #702, .T. ) ;
#1073 = ORIENTED_EDGE ( 'NONE', *, *, #685, .F. ) ;
#1074 = EDGE_LOOP ( 'NONE', ( #1017, #1023, #998, #996 ) ) ;
#1075 = EDGE_LOOP ( 'NONE', ( #982, #1009, #962, #1000 ) ) ;
#1076 = ORIENTED_EDGE ( 'NONE', *, *, #697, .F. ) ;
#1077 = ORIENTED_EDGE ( 'NONE', *, *, #691, .F. ) ;
#1078 = ORIENTED_EDGE ( 'NONE', *, *, #703, .T. ) ;
#1079 = ORIENTED_EDGE ( 'NONE', *, *, #701, .F. ) ;
ENDSEC;
END-ISO-10303-21;
