ISO-10303-21;
HEADER;
/* Generated by software containing ST-Developer
 * from STEP Tools, Inc. (www.steptools.com) 
 */

FILE_DESCRIPTION(
/* description */ (''),
/* implementation_level */ '2;1');

FILE_NAME(
/* name */ 'ALP2015.step',
/* time_stamp */ '2023-03-21T12:35:36+01:00',
/* author */ (''),
/* organization */ (''),
/* preprocessor_version */ 'ST-DEVELOPER v19.2',
/* originating_system */ 'Autodesk Translation Framework v11.17.0.187',

/* authorisation */ '');

FILE_SCHEMA (('AUTOMOTIVE_DESIGN { 1 0 10303 214 3 1 1 }'));
ENDSEC;

DATA;
#10=MECHANICAL_DESIGN_GEOMETRIC_PRESENTATION_REPRESENTATION('',(#13),#769);
#11=SHAPE_REPRESENTATION_RELATIONSHIP('SRR','None',#776,#12);
#12=ADVANCED_BREP_SHAPE_REPRESENTATION('',(#14),#768);
#13=STYLED_ITEM('',(#786),#14);
#14=MANIFOLD_SOLID_BREP('Body1',#432);
#15=SPHERICAL_SURFACE('',#487,2.);
#16=SPHERICAL_SURFACE('',#494,2.);
#17=SPHERICAL_SURFACE('',#496,2.);
#18=SPHERICAL_SURFACE('',#502,2.);
#19=FACE_BOUND('',#85,.T.);
#20=FACE_BOUND('',#86,.T.);
#21=FACE_BOUND('',#87,.T.);
#22=FACE_BOUND('',#89,.T.);
#23=FACE_BOUND('',#90,.T.);
#24=FACE_BOUND('',#91,.T.);
#25=FACE_BOUND('',#101,.T.);
#26=FACE_BOUND('',#103,.T.);
#27=PLANE('',#467);
#28=PLANE('',#472);
#29=PLANE('',#475);
#30=PLANE('',#478);
#31=PLANE('',#481);
#32=PLANE('',#484);
#33=PLANE('',#485);
#34=PLANE('',#486);
#35=CYLINDRICAL_SURFACE('',#455,5.4);
#36=CYLINDRICAL_SURFACE('',#457,10.);
#37=CYLINDRICAL_SURFACE('',#459,10.);
#38=CYLINDRICAL_SURFACE('',#461,6.50000000000001);
#39=CYLINDRICAL_SURFACE('',#464,6.50000000000001);
#40=CYLINDRICAL_SURFACE('',#473,2.);
#41=CYLINDRICAL_SURFACE('',#476,2.);
#42=CYLINDRICAL_SURFACE('',#479,2.);
#43=CYLINDRICAL_SURFACE('',#482,2.00000000000001);
#44=CYLINDRICAL_SURFACE('',#490,2.);
#45=CYLINDRICAL_SURFACE('',#492,2.);
#46=CYLINDRICAL_SURFACE('',#498,2.);
#47=CYLINDRICAL_SURFACE('',#500,2.);
#48=FACE_OUTER_BOUND('',#76,.T.);
#49=FACE_OUTER_BOUND('',#77,.T.);
#50=FACE_OUTER_BOUND('',#78,.T.);
#51=FACE_OUTER_BOUND('',#79,.T.);
#52=FACE_OUTER_BOUND('',#80,.T.);
#53=FACE_OUTER_BOUND('',#81,.T.);
#54=FACE_OUTER_BOUND('',#82,.T.);
#55=FACE_OUTER_BOUND('',#83,.T.);
#56=FACE_OUTER_BOUND('',#84,.T.);
#57=FACE_OUTER_BOUND('',#88,.T.);
#58=FACE_OUTER_BOUND('',#92,.T.);
#59=FACE_OUTER_BOUND('',#93,.T.);
#60=FACE_OUTER_BOUND('',#94,.T.);
#61=FACE_OUTER_BOUND('',#95,.T.);
#62=FACE_OUTER_BOUND('',#96,.T.);
#63=FACE_OUTER_BOUND('',#97,.T.);
#64=FACE_OUTER_BOUND('',#98,.T.);
#65=FACE_OUTER_BOUND('',#99,.T.);
#66=FACE_OUTER_BOUND('',#100,.T.);
#67=FACE_OUTER_BOUND('',#102,.T.);
#68=FACE_OUTER_BOUND('',#104,.T.);
#69=FACE_OUTER_BOUND('',#105,.T.);
#70=FACE_OUTER_BOUND('',#106,.T.);
#71=FACE_OUTER_BOUND('',#107,.T.);
#72=FACE_OUTER_BOUND('',#108,.T.);
#73=FACE_OUTER_BOUND('',#109,.T.);
#74=FACE_OUTER_BOUND('',#110,.T.);
#75=FACE_OUTER_BOUND('',#111,.T.);
#76=EDGE_LOOP('',(#287,#288,#289,#290));
#77=EDGE_LOOP('',(#291,#292,#293,#294));
#78=EDGE_LOOP('',(#295,#296,#297,#298));
#79=EDGE_LOOP('',(#299,#300,#301,#302));
#80=EDGE_LOOP('',(#303,#304,#305,#306));
#81=EDGE_LOOP('',(#307,#308,#309,#310));
#82=EDGE_LOOP('',(#311,#312,#313,#314));
#83=EDGE_LOOP('',(#315,#316,#317,#318));
#84=EDGE_LOOP('',(#319,#320,#321,#322,#323,#324,#325,#326));
#85=EDGE_LOOP('',(#327));
#86=EDGE_LOOP('',(#328));
#87=EDGE_LOOP('',(#329));
#88=EDGE_LOOP('',(#330,#331,#332,#333));
#89=EDGE_LOOP('',(#334));
#90=EDGE_LOOP('',(#335));
#91=EDGE_LOOP('',(#336));
#92=EDGE_LOOP('',(#337,#338,#339,#340));
#93=EDGE_LOOP('',(#341,#342,#343,#344));
#94=EDGE_LOOP('',(#345,#346,#347,#348));
#95=EDGE_LOOP('',(#349,#350,#351,#352));
#96=EDGE_LOOP('',(#353,#354,#355,#356));
#97=EDGE_LOOP('',(#357,#358,#359,#360));
#98=EDGE_LOOP('',(#361,#362,#363,#364));
#99=EDGE_LOOP('',(#365,#366,#367,#368));
#100=EDGE_LOOP('',(#369));
#101=EDGE_LOOP('',(#370));
#102=EDGE_LOOP('',(#371));
#103=EDGE_LOOP('',(#372));
#104=EDGE_LOOP('',(#373,#374,#375));
#105=EDGE_LOOP('',(#376,#377,#378,#379));
#106=EDGE_LOOP('',(#380,#381,#382,#383));
#107=EDGE_LOOP('',(#384,#385,#386));
#108=EDGE_LOOP('',(#387,#388,#389));
#109=EDGE_LOOP('',(#390,#391,#392,#393));
#110=EDGE_LOOP('',(#394,#395,#396,#397));
#111=EDGE_LOOP('',(#398,#399,#400));
#112=LINE('',#652,#140);
#113=LINE('',#658,#141);
#114=LINE('',#664,#142);
#115=LINE('',#669,#143);
#116=LINE('',#673,#144);
#117=LINE('',#677,#145);
#118=LINE('',#682,#146);
#119=LINE('',#688,#147);
#120=LINE('',#695,#148);
#121=LINE('',#699,#149);
#122=LINE('',#703,#150);
#123=LINE('',#706,#151);
#124=LINE('',#710,#152);
#125=LINE('',#712,#153);
#126=LINE('',#714,#154);
#127=LINE('',#715,#155);
#128=LINE('',#718,#156);
#129=LINE('',#721,#157);
#130=LINE('',#724,#158);
#131=LINE('',#725,#159);
#132=LINE('',#729,#160);
#133=LINE('',#732,#161);
#134=LINE('',#733,#162);
#135=LINE('',#737,#163);
#136=LINE('',#740,#164);
#137=LINE('',#741,#165);
#138=LINE('',#745,#166);
#139=LINE('',#747,#167);
#140=VECTOR('',#509,10.);
#141=VECTOR('',#516,10.);
#142=VECTOR('',#523,6.025);
#143=VECTOR('',#530,5.4);
#144=VECTOR('',#535,10.);
#145=VECTOR('',#540,10.);
#146=VECTOR('',#545,6.50000000000001);
#147=VECTOR('',#552,6.50000000000001);
#148=VECTOR('',#559,1000.);
#149=VECTOR('',#562,1000.);
#150=VECTOR('',#565,1000.);
#151=VECTOR('',#568,1000.);
#152=VECTOR('',#571,1000.);
#153=VECTOR('',#572,1000.);
#154=VECTOR('',#573,1000.);
#155=VECTOR('',#574,1000.);
#156=VECTOR('',#577,1000.);
#157=VECTOR('',#580,1000.);
#158=VECTOR('',#583,1000.);
#159=VECTOR('',#584,1000.);
#160=VECTOR('',#589,1000.);
#161=VECTOR('',#592,1000.);
#162=VECTOR('',#593,1000.);
#163=VECTOR('',#598,1000.);
#164=VECTOR('',#601,1000.);
#165=VECTOR('',#602,1000.);
#166=VECTOR('',#607,1000.);
#167=VECTOR('',#610,1000.);
#168=CIRCLE('',#447,10.);
#169=CIRCLE('',#448,10.5);
#170=CIRCLE('',#450,10.);
#171=CIRCLE('',#451,10.5);
#172=CIRCLE('',#453,5.4);
#173=CIRCLE('',#454,6.025);
#174=CIRCLE('',#456,5.4);
#175=CIRCLE('',#458,10.);
#176=CIRCLE('',#460,10.);
#177=CIRCLE('',#462,6.50000000000001);
#178=CIRCLE('',#463,6.50000000000001);
#179=CIRCLE('',#465,6.50000000000001);
#180=CIRCLE('',#466,6.50000000000001);
#181=CIRCLE('',#468,2.);
#182=CIRCLE('',#469,2.);
#183=CIRCLE('',#470,2.);
#184=CIRCLE('',#471,2.00000000000001);
#185=CIRCLE('',#474,2.);
#186=CIRCLE('',#477,2.);
#187=CIRCLE('',#480,2.);
#188=CIRCLE('',#483,2.00000000000001);
#189=CIRCLE('',#488,2.);
#190=CIRCLE('',#489,2.);
#191=CIRCLE('',#491,2.);
#192=CIRCLE('',#493,2.);
#193=CIRCLE('',#495,2.);
#194=CIRCLE('',#497,2.);
#195=CIRCLE('',#499,2.);
#196=CIRCLE('',#501,2.);
#197=VERTEX_POINT('',#649);
#198=VERTEX_POINT('',#651);
#199=VERTEX_POINT('',#655);
#200=VERTEX_POINT('',#657);
#201=VERTEX_POINT('',#661);
#202=VERTEX_POINT('',#663);
#203=VERTEX_POINT('',#667);
#204=VERTEX_POINT('',#671);
#205=VERTEX_POINT('',#675);
#206=VERTEX_POINT('',#679);
#207=VERTEX_POINT('',#681);
#208=VERTEX_POINT('',#685);
#209=VERTEX_POINT('',#687);
#210=VERTEX_POINT('',#691);
#211=VERTEX_POINT('',#692);
#212=VERTEX_POINT('',#694);
#213=VERTEX_POINT('',#696);
#214=VERTEX_POINT('',#698);
#215=VERTEX_POINT('',#700);
#216=VERTEX_POINT('',#702);
#217=VERTEX_POINT('',#704);
#218=VERTEX_POINT('',#708);
#219=VERTEX_POINT('',#709);
#220=VERTEX_POINT('',#711);
#221=VERTEX_POINT('',#713);
#222=VERTEX_POINT('',#717);
#223=VERTEX_POINT('',#719);
#224=VERTEX_POINT('',#723);
#225=VERTEX_POINT('',#727);
#226=VERTEX_POINT('',#731);
#227=VERTEX_POINT('',#735);
#228=VERTEX_POINT('',#739);
#229=VERTEX_POINT('',#743);
#230=EDGE_CURVE('',#197,#197,#168,.T.);
#231=EDGE_CURVE('',#197,#198,#112,.T.);
#232=EDGE_CURVE('',#198,#198,#169,.T.);
#233=EDGE_CURVE('',#199,#199,#170,.T.);
#234=EDGE_CURVE('',#199,#200,#113,.T.);
#235=EDGE_CURVE('',#200,#200,#171,.T.);
#236=EDGE_CURVE('',#201,#201,#172,.T.);
#237=EDGE_CURVE('',#201,#202,#114,.T.);
#238=EDGE_CURVE('',#202,#202,#173,.T.);
#239=EDGE_CURVE('',#203,#203,#174,.T.);
#240=EDGE_CURVE('',#203,#201,#115,.T.);
#241=EDGE_CURVE('',#204,#204,#175,.T.);
#242=EDGE_CURVE('',#204,#199,#116,.T.);
#243=EDGE_CURVE('',#205,#205,#176,.T.);
#244=EDGE_CURVE('',#205,#197,#117,.T.);
#245=EDGE_CURVE('',#206,#206,#177,.T.);
#246=EDGE_CURVE('',#206,#207,#118,.T.);
#247=EDGE_CURVE('',#207,#207,#178,.T.);
#248=EDGE_CURVE('',#208,#208,#179,.T.);
#249=EDGE_CURVE('',#208,#209,#119,.T.);
#250=EDGE_CURVE('',#209,#209,#180,.T.);
#251=EDGE_CURVE('',#210,#211,#181,.T.);
#252=EDGE_CURVE('',#211,#212,#120,.T.);
#253=EDGE_CURVE('',#212,#213,#182,.T.);
#254=EDGE_CURVE('',#213,#214,#121,.T.);
#255=EDGE_CURVE('',#214,#215,#183,.T.);
#256=EDGE_CURVE('',#215,#216,#122,.T.);
#257=EDGE_CURVE('',#216,#217,#184,.T.);
#258=EDGE_CURVE('',#217,#210,#123,.T.);
#259=EDGE_CURVE('',#218,#219,#124,.T.);
#260=EDGE_CURVE('',#219,#220,#125,.T.);
#261=EDGE_CURVE('',#220,#221,#126,.T.);
#262=EDGE_CURVE('',#221,#218,#127,.T.);
#263=EDGE_CURVE('',#210,#222,#128,.T.);
#264=EDGE_CURVE('',#222,#223,#185,.T.);
#265=EDGE_CURVE('',#211,#223,#129,.T.);
#266=EDGE_CURVE('',#223,#224,#130,.T.);
#267=EDGE_CURVE('',#212,#224,#131,.T.);
#268=EDGE_CURVE('',#224,#225,#186,.T.);
#269=EDGE_CURVE('',#213,#225,#132,.T.);
#270=EDGE_CURVE('',#225,#226,#133,.T.);
#271=EDGE_CURVE('',#214,#226,#134,.T.);
#272=EDGE_CURVE('',#226,#227,#187,.T.);
#273=EDGE_CURVE('',#215,#227,#135,.T.);
#274=EDGE_CURVE('',#227,#228,#136,.T.);
#275=EDGE_CURVE('',#216,#228,#137,.T.);
#276=EDGE_CURVE('',#228,#229,#188,.T.);
#277=EDGE_CURVE('',#217,#229,#138,.T.);
#278=EDGE_CURVE('',#229,#222,#139,.T.);
#279=EDGE_CURVE('',#221,#228,#189,.T.);
#280=EDGE_CURVE('',#229,#221,#190,.T.);
#281=EDGE_CURVE('',#222,#220,#191,.T.);
#282=EDGE_CURVE('',#218,#227,#192,.T.);
#283=EDGE_CURVE('',#223,#220,#193,.T.);
#284=EDGE_CURVE('',#218,#226,#194,.T.);
#285=EDGE_CURVE('',#224,#219,#195,.T.);
#286=EDGE_CURVE('',#219,#225,#196,.T.);
#287=ORIENTED_EDGE('',*,*,#230,.F.);
#288=ORIENTED_EDGE('',*,*,#231,.T.);
#289=ORIENTED_EDGE('',*,*,#232,.F.);
#290=ORIENTED_EDGE('',*,*,#231,.F.);
#291=ORIENTED_EDGE('',*,*,#233,.F.);
#292=ORIENTED_EDGE('',*,*,#234,.T.);
#293=ORIENTED_EDGE('',*,*,#235,.F.);
#294=ORIENTED_EDGE('',*,*,#234,.F.);
#295=ORIENTED_EDGE('',*,*,#236,.F.);
#296=ORIENTED_EDGE('',*,*,#237,.T.);
#297=ORIENTED_EDGE('',*,*,#238,.T.);
#298=ORIENTED_EDGE('',*,*,#237,.F.);
#299=ORIENTED_EDGE('',*,*,#239,.F.);
#300=ORIENTED_EDGE('',*,*,#240,.T.);
#301=ORIENTED_EDGE('',*,*,#236,.T.);
#302=ORIENTED_EDGE('',*,*,#240,.F.);
#303=ORIENTED_EDGE('',*,*,#241,.F.);
#304=ORIENTED_EDGE('',*,*,#242,.T.);
#305=ORIENTED_EDGE('',*,*,#233,.T.);
#306=ORIENTED_EDGE('',*,*,#242,.F.);
#307=ORIENTED_EDGE('',*,*,#243,.F.);
#308=ORIENTED_EDGE('',*,*,#244,.T.);
#309=ORIENTED_EDGE('',*,*,#230,.T.);
#310=ORIENTED_EDGE('',*,*,#244,.F.);
#311=ORIENTED_EDGE('',*,*,#245,.T.);
#312=ORIENTED_EDGE('',*,*,#246,.T.);
#313=ORIENTED_EDGE('',*,*,#247,.T.);
#314=ORIENTED_EDGE('',*,*,#246,.F.);
#315=ORIENTED_EDGE('',*,*,#248,.T.);
#316=ORIENTED_EDGE('',*,*,#249,.T.);
#317=ORIENTED_EDGE('',*,*,#250,.T.);
#318=ORIENTED_EDGE('',*,*,#249,.F.);
#319=ORIENTED_EDGE('',*,*,#251,.T.);
#320=ORIENTED_EDGE('',*,*,#252,.T.);
#321=ORIENTED_EDGE('',*,*,#253,.T.);
#322=ORIENTED_EDGE('',*,*,#254,.T.);
#323=ORIENTED_EDGE('',*,*,#255,.T.);
#324=ORIENTED_EDGE('',*,*,#256,.T.);
#325=ORIENTED_EDGE('',*,*,#257,.T.);
#326=ORIENTED_EDGE('',*,*,#258,.T.);
#327=ORIENTED_EDGE('',*,*,#245,.F.);
#328=ORIENTED_EDGE('',*,*,#248,.F.);
#329=ORIENTED_EDGE('',*,*,#239,.T.);
#330=ORIENTED_EDGE('',*,*,#259,.T.);
#331=ORIENTED_EDGE('',*,*,#260,.T.);
#332=ORIENTED_EDGE('',*,*,#261,.T.);
#333=ORIENTED_EDGE('',*,*,#262,.T.);
#334=ORIENTED_EDGE('',*,*,#238,.F.);
#335=ORIENTED_EDGE('',*,*,#235,.T.);
#336=ORIENTED_EDGE('',*,*,#232,.T.);
#337=ORIENTED_EDGE('',*,*,#263,.T.);
#338=ORIENTED_EDGE('',*,*,#264,.T.);
#339=ORIENTED_EDGE('',*,*,#265,.F.);
#340=ORIENTED_EDGE('',*,*,#251,.F.);
#341=ORIENTED_EDGE('',*,*,#265,.T.);
#342=ORIENTED_EDGE('',*,*,#266,.T.);
#343=ORIENTED_EDGE('',*,*,#267,.F.);
#344=ORIENTED_EDGE('',*,*,#252,.F.);
#345=ORIENTED_EDGE('',*,*,#267,.T.);
#346=ORIENTED_EDGE('',*,*,#268,.T.);
#347=ORIENTED_EDGE('',*,*,#269,.F.);
#348=ORIENTED_EDGE('',*,*,#253,.F.);
#349=ORIENTED_EDGE('',*,*,#269,.T.);
#350=ORIENTED_EDGE('',*,*,#270,.T.);
#351=ORIENTED_EDGE('',*,*,#271,.F.);
#352=ORIENTED_EDGE('',*,*,#254,.F.);
#353=ORIENTED_EDGE('',*,*,#271,.T.);
#354=ORIENTED_EDGE('',*,*,#272,.T.);
#355=ORIENTED_EDGE('',*,*,#273,.F.);
#356=ORIENTED_EDGE('',*,*,#255,.F.);
#357=ORIENTED_EDGE('',*,*,#273,.T.);
#358=ORIENTED_EDGE('',*,*,#274,.T.);
#359=ORIENTED_EDGE('',*,*,#275,.F.);
#360=ORIENTED_EDGE('',*,*,#256,.F.);
#361=ORIENTED_EDGE('',*,*,#275,.T.);
#362=ORIENTED_EDGE('',*,*,#276,.T.);
#363=ORIENTED_EDGE('',*,*,#277,.F.);
#364=ORIENTED_EDGE('',*,*,#257,.F.);
#365=ORIENTED_EDGE('',*,*,#277,.T.);
#366=ORIENTED_EDGE('',*,*,#278,.T.);
#367=ORIENTED_EDGE('',*,*,#263,.F.);
#368=ORIENTED_EDGE('',*,*,#258,.F.);
#369=ORIENTED_EDGE('',*,*,#243,.T.);
#370=ORIENTED_EDGE('',*,*,#247,.F.);
#371=ORIENTED_EDGE('',*,*,#241,.T.);
#372=ORIENTED_EDGE('',*,*,#250,.F.);
#373=ORIENTED_EDGE('',*,*,#279,.F.);
#374=ORIENTED_EDGE('',*,*,#280,.F.);
#375=ORIENTED_EDGE('',*,*,#276,.F.);
#376=ORIENTED_EDGE('',*,*,#280,.T.);
#377=ORIENTED_EDGE('',*,*,#261,.F.);
#378=ORIENTED_EDGE('',*,*,#281,.F.);
#379=ORIENTED_EDGE('',*,*,#278,.F.);
#380=ORIENTED_EDGE('',*,*,#279,.T.);
#381=ORIENTED_EDGE('',*,*,#274,.F.);
#382=ORIENTED_EDGE('',*,*,#282,.F.);
#383=ORIENTED_EDGE('',*,*,#262,.F.);
#384=ORIENTED_EDGE('',*,*,#264,.F.);
#385=ORIENTED_EDGE('',*,*,#281,.T.);
#386=ORIENTED_EDGE('',*,*,#283,.F.);
#387=ORIENTED_EDGE('',*,*,#282,.T.);
#388=ORIENTED_EDGE('',*,*,#272,.F.);
#389=ORIENTED_EDGE('',*,*,#284,.F.);
#390=ORIENTED_EDGE('',*,*,#283,.T.);
#391=ORIENTED_EDGE('',*,*,#260,.F.);
#392=ORIENTED_EDGE('',*,*,#285,.F.);
#393=ORIENTED_EDGE('',*,*,#266,.F.);
#394=ORIENTED_EDGE('',*,*,#284,.T.);
#395=ORIENTED_EDGE('',*,*,#270,.F.);
#396=ORIENTED_EDGE('',*,*,#286,.F.);
#397=ORIENTED_EDGE('',*,*,#259,.F.);
#398=ORIENTED_EDGE('',*,*,#268,.F.);
#399=ORIENTED_EDGE('',*,*,#285,.T.);
#400=ORIENTED_EDGE('',*,*,#286,.T.);
#401=CONICAL_SURFACE('',#446,10.,0.785398163397438);
#402=CONICAL_SURFACE('',#449,10.,0.785398163397442);
#403=CONICAL_SURFACE('',#452,6.025,0.785398163397453);
#404=ADVANCED_FACE('',(#48),#401,.F.);
#405=ADVANCED_FACE('',(#49),#402,.F.);
#406=ADVANCED_FACE('',(#50),#403,.F.);
#407=ADVANCED_FACE('',(#51),#35,.F.);
#408=ADVANCED_FACE('',(#52),#36,.F.);
#409=ADVANCED_FACE('',(#53),#37,.F.);
#410=ADVANCED_FACE('',(#54),#38,.F.);
#411=ADVANCED_FACE('',(#55),#39,.F.);
#412=ADVANCED_FACE('',(#56,#19,#20,#21),#27,.F.);
#413=ADVANCED_FACE('',(#57,#22,#23,#24),#28,.T.);
#414=ADVANCED_FACE('',(#58),#40,.T.);
#415=ADVANCED_FACE('',(#59),#29,.F.);
#416=ADVANCED_FACE('',(#60),#41,.T.);
#417=ADVANCED_FACE('',(#61),#30,.F.);
#418=ADVANCED_FACE('',(#62),#42,.T.);
#419=ADVANCED_FACE('',(#63),#31,.F.);
#420=ADVANCED_FACE('',(#64),#43,.T.);
#421=ADVANCED_FACE('',(#65),#32,.F.);
#422=ADVANCED_FACE('',(#66,#25),#33,.T.);
#423=ADVANCED_FACE('',(#67,#26),#34,.T.);
#424=ADVANCED_FACE('',(#68),#15,.T.);
#425=ADVANCED_FACE('',(#69),#44,.T.);
#426=ADVANCED_FACE('',(#70),#45,.T.);
#427=ADVANCED_FACE('',(#71),#16,.T.);
#428=ADVANCED_FACE('',(#72),#17,.T.);
#429=ADVANCED_FACE('',(#73),#46,.T.);
#430=ADVANCED_FACE('',(#74),#47,.T.);
#431=ADVANCED_FACE('',(#75),#18,.T.);
#432=CLOSED_SHELL('',(#404,#405,#406,#407,#408,#409,#410,#411,#412,#413,
#414,#415,#416,#417,#418,#419,#420,#421,#422,#423,#424,#425,#426,#427,#428,
#429,#430,#431));
#433=DERIVED_UNIT_ELEMENT(#435,1.);
#434=DERIVED_UNIT_ELEMENT(#771,-3.);
#435=(
MASS_UNIT()
NAMED_UNIT(*)
SI_UNIT(.KILO.,.GRAM.)
);
#436=DERIVED_UNIT((#433,#434));
#437=MEASURE_REPRESENTATION_ITEM('density measure',
POSITIVE_RATIO_MEASURE(2700.),#436);
#438=PROPERTY_DEFINITION_REPRESENTATION(#443,#440);
#439=PROPERTY_DEFINITION_REPRESENTATION(#444,#441);
#440=REPRESENTATION('material name',(#442),#768);
#441=REPRESENTATION('density',(#437),#768);
#442=DESCRIPTIVE_REPRESENTATION_ITEM('Telix','Telix');
#443=PROPERTY_DEFINITION('material property','material name',#778);
#444=PROPERTY_DEFINITION('material property','density of part',#778);
#445=AXIS2_PLACEMENT_3D('placement',#647,#503,#504);
#446=AXIS2_PLACEMENT_3D('',#648,#505,#506);
#447=AXIS2_PLACEMENT_3D('',#650,#507,#508);
#448=AXIS2_PLACEMENT_3D('',#653,#510,#511);
#449=AXIS2_PLACEMENT_3D('',#654,#512,#513);
#450=AXIS2_PLACEMENT_3D('',#656,#514,#515);
#451=AXIS2_PLACEMENT_3D('',#659,#517,#518);
#452=AXIS2_PLACEMENT_3D('',#660,#519,#520);
#453=AXIS2_PLACEMENT_3D('',#662,#521,#522);
#454=AXIS2_PLACEMENT_3D('',#665,#524,#525);
#455=AXIS2_PLACEMENT_3D('',#666,#526,#527);
#456=AXIS2_PLACEMENT_3D('',#668,#528,#529);
#457=AXIS2_PLACEMENT_3D('',#670,#531,#532);
#458=AXIS2_PLACEMENT_3D('',#672,#533,#534);
#459=AXIS2_PLACEMENT_3D('',#674,#536,#537);
#460=AXIS2_PLACEMENT_3D('',#676,#538,#539);
#461=AXIS2_PLACEMENT_3D('',#678,#541,#542);
#462=AXIS2_PLACEMENT_3D('',#680,#543,#544);
#463=AXIS2_PLACEMENT_3D('',#683,#546,#547);
#464=AXIS2_PLACEMENT_3D('',#684,#548,#549);
#465=AXIS2_PLACEMENT_3D('',#686,#550,#551);
#466=AXIS2_PLACEMENT_3D('',#689,#553,#554);
#467=AXIS2_PLACEMENT_3D('',#690,#555,#556);
#468=AXIS2_PLACEMENT_3D('',#693,#557,#558);
#469=AXIS2_PLACEMENT_3D('',#697,#560,#561);
#470=AXIS2_PLACEMENT_3D('',#701,#563,#564);
#471=AXIS2_PLACEMENT_3D('',#705,#566,#567);
#472=AXIS2_PLACEMENT_3D('',#707,#569,#570);
#473=AXIS2_PLACEMENT_3D('',#716,#575,#576);
#474=AXIS2_PLACEMENT_3D('',#720,#578,#579);
#475=AXIS2_PLACEMENT_3D('',#722,#581,#582);
#476=AXIS2_PLACEMENT_3D('',#726,#585,#586);
#477=AXIS2_PLACEMENT_3D('',#728,#587,#588);
#478=AXIS2_PLACEMENT_3D('',#730,#590,#591);
#479=AXIS2_PLACEMENT_3D('',#734,#594,#595);
#480=AXIS2_PLACEMENT_3D('',#736,#596,#597);
#481=AXIS2_PLACEMENT_3D('',#738,#599,#600);
#482=AXIS2_PLACEMENT_3D('',#742,#603,#604);
#483=AXIS2_PLACEMENT_3D('',#744,#605,#606);
#484=AXIS2_PLACEMENT_3D('',#746,#608,#609);
#485=AXIS2_PLACEMENT_3D('',#748,#611,#612);
#486=AXIS2_PLACEMENT_3D('',#749,#613,#614);
#487=AXIS2_PLACEMENT_3D('',#750,#615,#616);
#488=AXIS2_PLACEMENT_3D('',#751,#617,#618);
#489=AXIS2_PLACEMENT_3D('',#752,#619,#620);
#490=AXIS2_PLACEMENT_3D('',#753,#621,#622);
#491=AXIS2_PLACEMENT_3D('',#754,#623,#624);
#492=AXIS2_PLACEMENT_3D('',#755,#625,#626);
#493=AXIS2_PLACEMENT_3D('',#756,#627,#628);
#494=AXIS2_PLACEMENT_3D('',#757,#629,#630);
#495=AXIS2_PLACEMENT_3D('',#758,#631,#632);
#496=AXIS2_PLACEMENT_3D('',#759,#633,#634);
#497=AXIS2_PLACEMENT_3D('',#760,#635,#636);
#498=AXIS2_PLACEMENT_3D('',#761,#637,#638);
#499=AXIS2_PLACEMENT_3D('',#762,#639,#640);
#500=AXIS2_PLACEMENT_3D('',#763,#641,#642);
#501=AXIS2_PLACEMENT_3D('',#764,#643,#644);
#502=AXIS2_PLACEMENT_3D('',#765,#645,#646);
#503=DIRECTION('axis',(0.,0.,1.));
#504=DIRECTION('refdir',(1.,0.,0.));
#505=DIRECTION('center_axis',(9.97781050716925E-31,-1.97215226305253E-30,
-1.));
#506=DIRECTION('ref_axis',(3.49148133884313E-15,-1.,1.97215226305253E-30));
#507=DIRECTION('center_axis',(9.97781050716925E-31,-1.97215226305253E-30,
-1.));
#508=DIRECTION('ref_axis',(3.49148133884313E-15,-1.,1.97215226305253E-30));
#509=DIRECTION('',(-2.38225452545869E-15,0.70710678118654,-0.707106781186555));
#510=DIRECTION('center_axis',(-9.97781050716925E-31,1.97215226305253E-30,
1.));
#511=DIRECTION('ref_axis',(3.49148133884314E-15,-1.,1.97215226305253E-30));
#512=DIRECTION('center_axis',(9.97781050716925E-31,-1.97215226305253E-30,
-1.));
#513=DIRECTION('ref_axis',(3.46944695195361E-15,-1.,1.97215226305253E-30));
#514=DIRECTION('center_axis',(9.97781050716925E-31,-1.97215226305253E-30,
-1.));
#515=DIRECTION('ref_axis',(3.46944695195361E-15,-1.,1.97215226305253E-30));
#516=DIRECTION('',(-2.36667386106983E-15,0.707106781186543,-0.707106781186552));
#517=DIRECTION('center_axis',(-9.97781050716925E-31,1.97215226305253E-30,
1.));
#518=DIRECTION('ref_axis',(3.30423519233677E-15,-1.,1.97215226305253E-30));
#519=DIRECTION('center_axis',(9.97781050716925E-31,-1.97215226305253E-30,
-1.));
#520=DIRECTION('ref_axis',(3.45505090650982E-15,-1.,1.97215226305253E-30));
#521=DIRECTION('center_axis',(9.97781050716925E-31,-1.97215226305253E-30,
-1.));
#522=DIRECTION('ref_axis',(3.21245088143853E-15,-1.,1.97215226305253E-30));
#523=DIRECTION('',(-2.35649431971428E-15,0.707106781186551,-0.707106781186544));
#524=DIRECTION('center_axis',(9.97781050716925E-31,-1.97215226305253E-30,
-1.));
#525=DIRECTION('ref_axis',(3.45505090650982E-15,-1.,1.97215226305253E-30));
#526=DIRECTION('center_axis',(9.97781050716925E-31,-1.97215226305253E-30,
-1.));
#527=DIRECTION('ref_axis',(3.21245088143853E-15,-1.,1.97215226305253E-30));
#528=DIRECTION('center_axis',(9.97781050716925E-31,-1.97215226305253E-30,
-1.));
#529=DIRECTION('ref_axis',(3.21245088143853E-15,-1.,1.97215226305253E-30));
#530=DIRECTION('',(9.97781050716925E-31,-1.97215226305253E-30,-1.));
#531=DIRECTION('center_axis',(9.97781050716925E-31,-1.97215226305253E-30,
-1.));
#532=DIRECTION('ref_axis',(3.46944695195361E-15,-1.,1.97215226305253E-30));
#533=DIRECTION('center_axis',(9.97781050716925E-31,-1.97215226305253E-30,
-1.));
#534=DIRECTION('ref_axis',(3.46944695195361E-15,-1.,1.97215226305253E-30));
#535=DIRECTION('',(9.97781050716925E-31,-1.97215226305253E-30,-1.));
#536=DIRECTION('center_axis',(9.97781050716925E-31,-1.97215226305253E-30,
-1.));
#537=DIRECTION('ref_axis',(3.49148133884313E-15,-1.,1.97215226305253E-30));
#538=DIRECTION('center_axis',(9.97781050716925E-31,-1.97215226305253E-30,
-1.));
#539=DIRECTION('ref_axis',(3.49148133884313E-15,-1.,1.97215226305253E-30));
#540=DIRECTION('',(9.97781050716925E-31,-1.97215226305253E-30,-1.));
#541=DIRECTION('center_axis',(9.97781050716925E-31,-1.97215226305253E-30,
-1.));
#542=DIRECTION('ref_axis',(3.49148133884313E-15,-1.,1.97215226305253E-30));
#543=DIRECTION('center_axis',(-9.97781050716925E-31,1.97215226305253E-30,
1.));
#544=DIRECTION('ref_axis',(-3.49148133884313E-15,1.,-1.97215226305253E-30));
#545=DIRECTION('',(9.97781050716925E-31,-1.97215226305253E-30,-1.));
#546=DIRECTION('center_axis',(9.97781050716925E-31,-1.97215226305253E-30,
-1.));
#547=DIRECTION('ref_axis',(3.49148133884313E-15,-1.,1.97215226305253E-30));
#548=DIRECTION('center_axis',(9.97781050716925E-31,-1.97215226305253E-30,
-1.));
#549=DIRECTION('ref_axis',(3.20256641718795E-15,-1.,1.97215226305253E-30));
#550=DIRECTION('center_axis',(-9.97781050716925E-31,1.97215226305253E-30,
1.));
#551=DIRECTION('ref_axis',(3.20256641718795E-15,-1.,1.97215226305253E-30));
#552=DIRECTION('',(9.97781050716925E-31,-1.97215226305253E-30,-1.));
#553=DIRECTION('center_axis',(9.97781050716925E-31,-1.97215226305253E-30,
-1.));
#554=DIRECTION('ref_axis',(3.20256641718795E-15,-1.,1.97215226305253E-30));
#555=DIRECTION('center_axis',(9.97781050716912E-31,1.97215226305249E-30,
-1.));
#556=DIRECTION('ref_axis',(3.49148133884313E-15,-1.,-1.97215226305248E-30));
#557=DIRECTION('center_axis',(-9.97781050716925E-31,1.97215226305253E-30,
1.));
#558=DIRECTION('ref_axis',(3.46944695195361E-15,-1.,1.97215226305253E-30));
#559=DIRECTION('',(-3.49148133884313E-15,1.,1.97215226305248E-30));
#560=DIRECTION('center_axis',(-9.97781050716925E-31,1.97215226305253E-30,
1.));
#561=DIRECTION('ref_axis',(-3.46944695195361E-15,1.,-1.97215226305253E-30));
#562=DIRECTION('',(-1.,-3.49148133884313E-15,9.97781050716918E-31));
#563=DIRECTION('center_axis',(-9.97781050716925E-31,1.97215226305253E-30,
1.));
#564=DIRECTION('ref_axis',(3.46944695195361E-15,-1.,1.97215226305253E-30));
#565=DIRECTION('',(3.10598723307051E-15,-1.,-1.97215226305249E-30));
#566=DIRECTION('center_axis',(-9.97781050716925E-31,1.97215226305253E-30,
1.));
#567=DIRECTION('ref_axis',(3.4694469519536E-15,-1.,1.97215226305253E-30));
#568=DIRECTION('',(1.,3.49148133884313E-15,-9.97781050716918E-31));
#569=DIRECTION('center_axis',(9.97781050716912E-31,1.97215226305249E-30,
-1.));
#570=DIRECTION('ref_axis',(3.49148133884313E-15,-1.,-1.97215226305248E-30));
#571=DIRECTION('',(1.,3.49148133884313E-15,-9.97781050716918E-31));
#572=DIRECTION('',(3.49148133884313E-15,-1.,-1.97215226305248E-30));
#573=DIRECTION('',(-1.,-3.49148133884313E-15,9.97781050716918E-31));
#574=DIRECTION('',(-3.10598723307051E-15,1.,1.97215226305249E-30));
#575=DIRECTION('center_axis',(9.97781050716925E-31,-1.97215226305253E-30,
-1.));
#576=DIRECTION('ref_axis',(3.46944695195361E-15,-1.,1.97215226305253E-30));
#577=DIRECTION('',(9.97781050716925E-31,-1.97215226305253E-30,-1.));
#578=DIRECTION('center_axis',(-9.97781050716925E-31,1.97215226305253E-30,
1.));
#579=DIRECTION('ref_axis',(3.46944695195361E-15,-1.,1.97215226305253E-30));
#580=DIRECTION('',(9.97781050716925E-31,-1.97215226305253E-30,-1.));
#581=DIRECTION('center_axis',(-1.,-3.49148133884313E-15,-9.97781050716918E-31));
#582=DIRECTION('ref_axis',(-9.97781050716925E-31,1.97215226305253E-30,1.));
#583=DIRECTION('',(-3.49148133884313E-15,1.,1.97215226305248E-30));
#584=DIRECTION('',(9.97781050716925E-31,-1.97215226305253E-30,-1.));
#585=DIRECTION('center_axis',(9.97781050716925E-31,-1.97215226305253E-30,
-1.));
#586=DIRECTION('ref_axis',(3.46944695195361E-15,-1.,1.97215226305253E-30));
#587=DIRECTION('center_axis',(-9.97781050716925E-31,1.97215226305253E-30,
1.));
#588=DIRECTION('ref_axis',(3.46944695195361E-15,-1.,1.97215226305253E-30));
#589=DIRECTION('',(9.97781050716925E-31,-1.97215226305253E-30,-1.));
#590=DIRECTION('center_axis',(3.49148133884313E-15,-1.,1.97215226305253E-30));
#591=DIRECTION('ref_axis',(-9.97781050716925E-31,1.97215226305253E-30,1.));
#592=DIRECTION('',(-1.,-3.49148133884313E-15,9.97781050716918E-31));
#593=DIRECTION('',(9.97781050716925E-31,-1.97215226305253E-30,-1.));
#594=DIRECTION('center_axis',(9.97781050716925E-31,-1.97215226305253E-30,
-1.));
#595=DIRECTION('ref_axis',(3.46944695195361E-15,-1.,1.97215226305253E-30));
#596=DIRECTION('center_axis',(-9.97781050716925E-31,1.97215226305253E-30,
1.));
#597=DIRECTION('ref_axis',(3.46944695195361E-15,-1.,1.97215226305253E-30));
#598=DIRECTION('',(9.97781050716925E-31,-1.97215226305253E-30,-1.));
#599=DIRECTION('center_axis',(1.,3.10598723307051E-15,-9.97781050716927E-31));
#600=DIRECTION('ref_axis',(-3.10598723307051E-15,1.,1.97215226305249E-30));
#601=DIRECTION('',(3.10598723307051E-15,-1.,-1.97215226305249E-30));
#602=DIRECTION('',(9.97781050716925E-31,-1.97215226305253E-30,-1.));
#603=DIRECTION('center_axis',(9.97781050716925E-31,-1.97215226305253E-30,
-1.));
#604=DIRECTION('ref_axis',(3.4694469519536E-15,-1.,1.97215226305253E-30));
#605=DIRECTION('center_axis',(-9.97781050716925E-31,1.97215226305253E-30,
1.));
#606=DIRECTION('ref_axis',(1.38777878078144E-14,-1.,1.97215226305254E-30));
#607=DIRECTION('',(9.97781050716925E-31,-1.97215226305253E-30,-1.));
#608=DIRECTION('center_axis',(-3.49148133884313E-15,1.,-1.97215226305253E-30));
#609=DIRECTION('ref_axis',(9.97781050716925E-31,-1.97215226305253E-30,-1.));
#610=DIRECTION('',(1.,3.49148133884313E-15,-9.97781050716918E-31));
#611=DIRECTION('center_axis',(9.97781050716912E-31,1.97215226305249E-30,
-1.));
#612=DIRECTION('ref_axis',(3.49148133884313E-15,-1.,-1.97215226305248E-30));
#613=DIRECTION('center_axis',(9.97781050716912E-31,1.97215226305249E-30,
-1.));
#614=DIRECTION('ref_axis',(3.49148133884313E-15,-1.,-1.97215226305248E-30));
#615=DIRECTION('center_axis',(-1.,-3.5527136788005E-15,0.));
#616=DIRECTION('ref_axis',(3.5527136788005E-15,-1.,0.));
#617=DIRECTION('center_axis',(-3.49148133884313E-15,1.,1.97215226305248E-30));
#618=DIRECTION('ref_axis',(-6.885732823805E-45,1.97215226305248E-30,-1.));
#619=DIRECTION('center_axis',(1.,3.49148133884313E-15,-9.97781050716918E-31));
#620=DIRECTION('ref_axis',(-9.97781050716918E-31,-3.48373391882941E-45,
-1.));
#621=DIRECTION('center_axis',(-1.,-3.49148133884313E-15,9.97781050716918E-31));
#622=DIRECTION('ref_axis',(9.97781050716918E-31,3.48373391882941E-45,1.));
#623=DIRECTION('center_axis',(1.,3.49148133884313E-15,-9.97781050716918E-31));
#624=DIRECTION('ref_axis',(-9.97781050716918E-31,-3.48373391882941E-45,
-1.));
#625=DIRECTION('center_axis',(-3.10598723307051E-15,1.,1.97215226305249E-30));
#626=DIRECTION('ref_axis',(-1.,-3.10598723307051E-15,7.16797907123731E-46));
#627=DIRECTION('center_axis',(-3.49148133884313E-15,1.,1.97215226305248E-30));
#628=DIRECTION('ref_axis',(-6.885732823805E-45,1.97215226305248E-30,-1.));
#629=DIRECTION('center_axis',(-1.,-3.5527136788005E-15,0.));
#630=DIRECTION('ref_axis',(3.5527136788005E-15,-1.,0.));
#631=DIRECTION('center_axis',(-3.49148133884313E-15,1.,1.97215226305248E-30));
#632=DIRECTION('ref_axis',(-6.885732823805E-45,1.97215226305248E-30,-1.));
#633=DIRECTION('center_axis',(-1.,-3.5527136788005E-15,0.));
#634=DIRECTION('ref_axis',(3.5527136788005E-15,-1.,0.));
#635=DIRECTION('center_axis',(1.,3.49148133884313E-15,-9.97781050716918E-31));
#636=DIRECTION('ref_axis',(-9.97781050716918E-31,-3.48373391882941E-45,
-1.));
#637=DIRECTION('center_axis',(3.49148133884313E-15,-1.,-1.97215226305248E-30));
#638=DIRECTION('ref_axis',(6.885732823805E-45,-1.97215226305248E-30,1.));
#639=DIRECTION('center_axis',(-3.49148133884313E-15,1.,1.97215226305248E-30));
#640=DIRECTION('ref_axis',(-6.885732823805E-45,1.97215226305248E-30,-1.));
#641=DIRECTION('center_axis',(1.,3.49148133884313E-15,-9.97781050716918E-31));
#642=DIRECTION('ref_axis',(-9.97781050716918E-31,-3.48373391882941E-45,
-1.));
#643=DIRECTION('center_axis',(1.,3.49148133884313E-15,-9.97781050716918E-31));
#644=DIRECTION('ref_axis',(-9.97781050716918E-31,-3.48373391882941E-45,
-1.));
#645=DIRECTION('center_axis',(-1.,-3.5527136788005E-15,0.));
#646=DIRECTION('ref_axis',(3.5527136788005E-15,-1.,0.));
#647=CARTESIAN_POINT('',(0.,0.,0.));
#648=CARTESIAN_POINT('Origin',(6.66133814775094E-13,39.9999999999999,0.500000000000028));
#649=CARTESIAN_POINT('',(6.3244364818581E-13,49.9999999999999,0.500000000000029));
#650=CARTESIAN_POINT('Origin',(6.66133814775094E-13,39.9999999999999,0.500000000000028));
#651=CARTESIAN_POINT('',(6.30759139856346E-13,50.4999999999999,6.45317133063372E-15));
#652=CARTESIAN_POINT('',(6.3244364818581E-13,49.9999999999999,0.500000000000028));
#653=CARTESIAN_POINT('Origin',(6.66133814775094E-13,39.9999999999999,0.));
#654=CARTESIAN_POINT('Origin',(40.0000000000007,40.0000000000001,0.500000000000028));
#655=CARTESIAN_POINT('',(40.0000000000007,50.0000000000001,0.500000000000029));
#656=CARTESIAN_POINT('Origin',(40.0000000000007,40.0000000000001,0.500000000000028));
#657=CARTESIAN_POINT('',(40.0000000000007,50.5000000000002,5.68989300120393E-15));
#658=CARTESIAN_POINT('',(40.0000000000007,50.0000000000001,0.500000000000028));
#659=CARTESIAN_POINT('Origin',(40.0000000000007,40.0000000000001,0.));
#660=CARTESIAN_POINT('Origin',(20.0000000000007,40.,0.));
#661=CARTESIAN_POINT('',(20.0000000000007,45.4,0.625000000000009));
#662=CARTESIAN_POINT('Origin',(20.0000000000007,40.,0.625000000000014));
#663=CARTESIAN_POINT('',(20.0000000000007,46.025,-1.21754797885322E-15));
#664=CARTESIAN_POINT('',(20.0000000000007,46.025,-1.18822173848915E-29));
#665=CARTESIAN_POINT('Origin',(20.0000000000007,40.,0.));
#666=CARTESIAN_POINT('Origin',(20.0000000000007,40.,0.));
#667=CARTESIAN_POINT('',(20.0000000000007,45.4,15.));
#668=CARTESIAN_POINT('Origin',(20.0000000000007,39.9999999999999,15.));
#669=CARTESIAN_POINT('',(20.0000000000007,45.4,-1.06496222204836E-29));
#670=CARTESIAN_POINT('Origin',(40.0000000000007,40.,8.50000000000001));
#671=CARTESIAN_POINT('',(40.0000000000007,50.,8.50000000000001));
#672=CARTESIAN_POINT('Origin',(40.0000000000007,40.,8.50000000000001));
#673=CARTESIAN_POINT('',(40.0000000000007,50.,8.50000000000001));
#674=CARTESIAN_POINT('Origin',(6.66133814775094E-13,39.9999999999999,8.50000000000001));
#675=CARTESIAN_POINT('',(6.3244364818581E-13,49.9999999999999,8.50000000000001));
#676=CARTESIAN_POINT('Origin',(6.66133814775094E-13,39.9999999999999,8.50000000000001));
#677=CARTESIAN_POINT('',(6.3244364818581E-13,49.9999999999999,8.50000000000001));
#678=CARTESIAN_POINT('Origin',(6.66133814775094E-13,39.9999999999999,15.));
#679=CARTESIAN_POINT('',(6.44235206492059E-13,46.4999999999999,15.));
#680=CARTESIAN_POINT('Origin',(6.66133814775094E-13,39.9999999999999,15.));
#681=CARTESIAN_POINT('',(6.44235206492059E-13,46.4999999999999,8.50000000000001));
#682=CARTESIAN_POINT('',(6.44235206492059E-13,46.4999999999999,15.));
#683=CARTESIAN_POINT('Origin',(6.66133814775094E-13,39.9999999999999,8.50000000000001));
#684=CARTESIAN_POINT('Origin',(40.0000000000007,40.,15.));
#685=CARTESIAN_POINT('',(40.0000000000007,46.5,15.));
#686=CARTESIAN_POINT('Origin',(40.0000000000007,40.,15.));
#687=CARTESIAN_POINT('',(40.0000000000007,46.5,8.50000000000001));
#688=CARTESIAN_POINT('',(40.0000000000007,46.5,15.));
#689=CARTESIAN_POINT('Origin',(40.0000000000007,40.,8.50000000000001));
#690=CARTESIAN_POINT('Origin',(58.,22.0000000000001,15.));
#691=CARTESIAN_POINT('',(58.,20.0000000000001,14.9999999999999));
#692=CARTESIAN_POINT('',(60.0000000000001,22.0000000000001,15.));
#693=CARTESIAN_POINT('Origin',(58.,22.0000000000001,15.));
#694=CARTESIAN_POINT('',(60.0000000000005,58.0000000000002,14.9999999999999));
#695=CARTESIAN_POINT('',(60.0000000000001,22.0000000000001,15.));
#696=CARTESIAN_POINT('',(58.0000000000005,60.0000000000002,15.));
#697=CARTESIAN_POINT('Origin',(58.0000000000005,58.0000000000002,14.9999999999999));
#698=CARTESIAN_POINT('',(-17.9999999999993,59.9999999999994,15.));
#699=CARTESIAN_POINT('',(58.0000000000005,60.0000000000002,15.));
#700=CARTESIAN_POINT('',(-19.9999999999994,57.9999999999994,14.9999999999999));
#701=CARTESIAN_POINT('Origin',(-17.9999999999993,57.9999999999994,14.9999999999999));
#702=CARTESIAN_POINT('',(-20.,21.9999999999994,15.));
#703=CARTESIAN_POINT('',(-20.,21.9999999999994,15.));
#704=CARTESIAN_POINT('',(-18.,19.9999999999994,14.9999999999999));
#705=CARTESIAN_POINT('Origin',(-18.,21.9999999999994,15.));
#706=CARTESIAN_POINT('',(58.,20.0000000000001,14.9999999999999));
#707=CARTESIAN_POINT('Origin',(58.,22.0000000000001,0.));
#708=CARTESIAN_POINT('',(-17.9999999999993,57.9999999999998,-1.38777878078145E-13));
#709=CARTESIAN_POINT('',(58.0000000000005,58.0000000000002,-1.38777878078145E-13));
#710=CARTESIAN_POINT('',(58.0000000000005,58.0000000000002,-1.38777878078145E-13));
#711=CARTESIAN_POINT('',(58.,22.0000000000001,0.));
#712=CARTESIAN_POINT('',(58.,22.0000000000001,0.));
#713=CARTESIAN_POINT('',(-18.,21.9999999999999,0.));
#714=CARTESIAN_POINT('',(-18.,21.9999999999999,0.));
#715=CARTESIAN_POINT('',(-17.9999999999993,57.9999999999998,-1.38777878078145E-13));
#716=CARTESIAN_POINT('Origin',(58.,22.0000000000001,15.));
#717=CARTESIAN_POINT('',(58.,20.0000000000001,1.99999999999997));
#718=CARTESIAN_POINT('',(58.,20.0000000000001,14.9999999999999));
#719=CARTESIAN_POINT('',(60.0000000000001,22.0000000000001,2.));
#720=CARTESIAN_POINT('Origin',(58.,22.0000000000001,2.));
#721=CARTESIAN_POINT('',(60.0000000000001,22.0000000000001,15.));
#722=CARTESIAN_POINT('Origin',(60.0000000000001,22.0000000000001,15.));
#723=CARTESIAN_POINT('',(60.0000000000005,58.0000000000002,1.99999999999986));
#724=CARTESIAN_POINT('',(60.0000000000005,58.0000000000002,1.99999999999986));
#725=CARTESIAN_POINT('',(60.0000000000005,58.0000000000002,14.9999999999999));
#726=CARTESIAN_POINT('Origin',(58.0000000000005,58.0000000000002,14.9999999999999));
#727=CARTESIAN_POINT('',(58.0000000000005,60.0000000000002,1.99999999999997));
#728=CARTESIAN_POINT('Origin',(58.0000000000005,58.0000000000002,1.99999999999986));
#729=CARTESIAN_POINT('',(58.0000000000005,60.0000000000002,15.));
#730=CARTESIAN_POINT('Origin',(58.0000000000005,60.0000000000002,15.));
#731=CARTESIAN_POINT('',(-17.9999999999993,59.9999999999998,1.99999999999997));
#732=CARTESIAN_POINT('',(-17.9999999999993,59.9999999999998,1.99999999999997));
#733=CARTESIAN_POINT('',(-17.9999999999993,59.9999999999994,15.));
#734=CARTESIAN_POINT('Origin',(-17.9999999999993,57.9999999999994,14.9999999999999));
#735=CARTESIAN_POINT('',(-19.9999999999994,57.9999999999998,1.99999999999986));
#736=CARTESIAN_POINT('Origin',(-17.9999999999993,57.9999999999998,1.99999999999986));
#737=CARTESIAN_POINT('',(-19.9999999999994,57.9999999999994,14.9999999999999));
#738=CARTESIAN_POINT('Origin',(-20.,21.9999999999994,15.));
#739=CARTESIAN_POINT('',(-20.,21.9999999999999,2.));
#740=CARTESIAN_POINT('',(-20.,21.9999999999999,2.));
#741=CARTESIAN_POINT('',(-20.,21.9999999999994,15.));
#742=CARTESIAN_POINT('Origin',(-18.,21.9999999999994,15.));
#743=CARTESIAN_POINT('',(-18.,19.9999999999999,1.99999999999997));
#744=CARTESIAN_POINT('Origin',(-18.,21.9999999999999,2.));
#745=CARTESIAN_POINT('',(-18.,19.9999999999994,14.9999999999999));
#746=CARTESIAN_POINT('Origin',(58.,20.0000000000001,14.9999999999999));
#747=CARTESIAN_POINT('',(58.,20.0000000000001,1.99999999999997));
#748=CARTESIAN_POINT('Origin',(6.66133814775094E-13,39.9999999999999,8.50000000000001));
#749=CARTESIAN_POINT('Origin',(40.0000000000007,40.,8.50000000000001));
#750=CARTESIAN_POINT('Origin',(-18.,21.9999999999999,2.));
#751=CARTESIAN_POINT('Origin',(-18.,21.9999999999999,2.));
#752=CARTESIAN_POINT('Origin',(-18.,21.9999999999999,2.));
#753=CARTESIAN_POINT('Origin',(58.,22.0000000000001,2.));
#754=CARTESIAN_POINT('Origin',(58.,22.0000000000001,2.));
#755=CARTESIAN_POINT('Origin',(-18.,21.9999999999999,2.));
#756=CARTESIAN_POINT('Origin',(-17.9999999999993,57.9999999999998,1.99999999999986));
#757=CARTESIAN_POINT('Origin',(58.,22.0000000000001,2.));
#758=CARTESIAN_POINT('Origin',(58.,22.0000000000001,2.));
#759=CARTESIAN_POINT('Origin',(-17.9999999999993,57.9999999999998,1.99999999999986));
#760=CARTESIAN_POINT('Origin',(-17.9999999999993,57.9999999999998,1.99999999999986));
#761=CARTESIAN_POINT('Origin',(58.,22.0000000000001,2.));
#762=CARTESIAN_POINT('Origin',(58.0000000000005,58.0000000000002,1.99999999999986));
#763=CARTESIAN_POINT('Origin',(58.0000000000005,58.0000000000002,1.99999999999986));
#764=CARTESIAN_POINT('Origin',(58.0000000000005,58.0000000000002,1.99999999999986));
#765=CARTESIAN_POINT('Origin',(58.0000000000005,58.0000000000002,1.99999999999986));
#766=UNCERTAINTY_MEASURE_WITH_UNIT(LENGTH_MEASURE(0.01),#770,
'DISTANCE_ACCURACY_VALUE',
'Maximum model space distance between geometric entities at asserted c
onnectivities');
#767=UNCERTAINTY_MEASURE_WITH_UNIT(LENGTH_MEASURE(0.01),#770,
'DISTANCE_ACCURACY_VALUE',
'Maximum model space distance between geometric entities at asserted c
onnectivities');
#768=(
GEOMETRIC_REPRESENTATION_CONTEXT(3)
GLOBAL_UNCERTAINTY_ASSIGNED_CONTEXT((#766))
GLOBAL_UNIT_ASSIGNED_CONTEXT((#770,#772,#773))
REPRESENTATION_CONTEXT('','3D')
);
#769=(
GEOMETRIC_REPRESENTATION_CONTEXT(3)
GLOBAL_UNCERTAINTY_ASSIGNED_CONTEXT((#767))
GLOBAL_UNIT_ASSIGNED_CONTEXT((#770,#772,#773))
REPRESENTATION_CONTEXT('','3D')
);
#770=(
LENGTH_UNIT()
NAMED_UNIT(*)
SI_UNIT(.MILLI.,.METRE.)
);
#771=(
LENGTH_UNIT()
NAMED_UNIT(*)
SI_UNIT($,.METRE.)
);
#772=(
NAMED_UNIT(*)
PLANE_ANGLE_UNIT()
SI_UNIT($,.RADIAN.)
);
#773=(
NAMED_UNIT(*)
SI_UNIT($,.STERADIAN.)
SOLID_ANGLE_UNIT()
);
#774=SHAPE_DEFINITION_REPRESENTATION(#775,#776);
#775=PRODUCT_DEFINITION_SHAPE('',$,#778);
#776=SHAPE_REPRESENTATION('',(#445),#768);
#777=PRODUCT_DEFINITION_CONTEXT('part definition',#782,'design');
#778=PRODUCT_DEFINITION('ALP2015','Plo\X2\010D\X0\a 40x80 v2',#779,#777);
#779=PRODUCT_DEFINITION_FORMATION('',$,#784);
#780=PRODUCT_RELATED_PRODUCT_CATEGORY('Plo\X2\010D\X0\a 40x80 v2',
'Plo\X2\010D\X0\a 40x80 v2',(#784));
#781=APPLICATION_PROTOCOL_DEFINITION('international standard',
'automotive_design',2009,#782);
#782=APPLICATION_CONTEXT(
'Core Data for Automotive Mechanical Design Process');
#783=PRODUCT_CONTEXT('part definition',#782,'mechanical');
#784=PRODUCT('ALP2015','Plo\X2\010D\X0\a 40x80 v2',$,(#783));
#785=PRESENTATION_STYLE_ASSIGNMENT((#787));
#786=PRESENTATION_STYLE_ASSIGNMENT((#788));
#787=SURFACE_STYLE_USAGE(.BOTH.,#789);
#788=SURFACE_STYLE_USAGE(.BOTH.,#790);
#789=SURFACE_SIDE_STYLE('',(#791));
#790=SURFACE_SIDE_STYLE('',(#792));
#791=SURFACE_STYLE_FILL_AREA(#793);
#792=SURFACE_STYLE_FILL_AREA(#794);
#793=FILL_AREA_STYLE('Aluminum - Satin',(#795));
#794=FILL_AREA_STYLE('Aluminum - Anodized Rough (Grey)',(#796));
#795=FILL_AREA_STYLE_COLOUR('Aluminum - Satin',#797);
#796=FILL_AREA_STYLE_COLOUR('Aluminum - Anodized Rough (Grey)',#798);
#797=COLOUR_RGB('Aluminum - Satin',0.96078431372549,0.96078431372549,0.964705882352941);
#798=COLOUR_RGB('Aluminum - Anodized Rough (Grey)',0.682352941176471,0.682352941176471,
0.682352941176471);
ENDSEC;
END-ISO-10303-21;
