ISO-10303-21;
HEADER;
/* Generated by software containing ST-Developer
 * from STEP Tools, Inc. (www.steptools.com) 
 */

FILE_DESCRIPTION(
/* description */ (''),
/* implementation_level */ '2;1');

FILE_NAME(
/* name */ 'ALP2014.step',
/* time_stamp */ '2023-11-06T14:44:37+01:00',
/* author */ (''),
/* organization */ (''),
/* preprocessor_version */ 'ST-DEVELOPER v20',
/* originating_system */ 'Autodesk Translation Framework v12.14.0.127',

/* authorisation */ '');

FILE_SCHEMA (('AUTOMOTIVE_DESIGN { 1 0 10303 214 3 1 1 }'));
ENDSEC;

DATA;
#10=MECHANICAL_DESIGN_GEOMETRIC_PRESENTATION_REPRESENTATION('',(#17,#18),
#2194);
#11=SHAPE_REPRESENTATION_RELATIONSHIP('SRR','None',#2201,#12);
#12=ADVANCED_BREP_SHAPE_REPRESENTATION('',(#13),#2193);
#13=MANIFOLD_SOLID_BREP('Body1',#1297);
#14=CONICAL_SURFACE('',#1425,6.025,0.785398163397448);
#15=CONICAL_SURFACE('',#1432,8.,0.785398163397448);
#16=CONICAL_SURFACE('',#1439,8.,0.785398163397448);
#17=STYLED_ITEM('',(#2211),#1287);
#18=STYLED_ITEM('',(#2210),#13);
#19=SPHERICAL_SURFACE('',#1382,3.);
#20=SPHERICAL_SURFACE('',#1384,3.);
#21=SPHERICAL_SURFACE('',#1394,3.);
#22=SPHERICAL_SURFACE('',#1396,3.);
#23=FACE_BOUND('',#218,.T.);
#24=FACE_BOUND('',#219,.T.);
#25=FACE_BOUND('',#220,.T.);
#26=FACE_BOUND('',#221,.T.);
#27=FACE_BOUND('',#222,.T.);
#28=FACE_BOUND('',#223,.T.);
#29=FACE_BOUND('',#224,.T.);
#30=FACE_BOUND('',#225,.T.);
#31=FACE_BOUND('',#226,.T.);
#32=FACE_BOUND('',#227,.T.);
#33=FACE_BOUND('',#228,.T.);
#34=FACE_BOUND('',#234,.T.);
#35=FACE_BOUND('',#235,.T.);
#36=FACE_BOUND('',#236,.T.);
#37=FACE_BOUND('',#277,.T.);
#38=FACE_BOUND('',#282,.T.);
#39=CYLINDRICAL_SURFACE('',#1315,14.);
#40=CYLINDRICAL_SURFACE('',#1321,14.);
#41=CYLINDRICAL_SURFACE('',#1324,12.5);
#42=CYLINDRICAL_SURFACE('',#1332,12.5);
#43=CYLINDRICAL_SURFACE('',#1337,12.5);
#44=CYLINDRICAL_SURFACE('',#1342,12.5);
#45=CYLINDRICAL_SURFACE('',#1348,12.5);
#46=CYLINDRICAL_SURFACE('',#1351,12.5);
#47=CYLINDRICAL_SURFACE('',#1375,3.);
#48=CYLINDRICAL_SURFACE('',#1377,3.);
#49=CYLINDRICAL_SURFACE('',#1380,3.);
#50=CYLINDRICAL_SURFACE('',#1386,3.);
#51=CYLINDRICAL_SURFACE('',#1388,3.);
#52=CYLINDRICAL_SURFACE('',#1390,3.);
#53=CYLINDRICAL_SURFACE('',#1392,3.);
#54=CYLINDRICAL_SURFACE('',#1398,3.);
#55=CYLINDRICAL_SURFACE('',#1403,14.);
#56=CYLINDRICAL_SURFACE('',#1404,12.5);
#57=CYLINDRICAL_SURFACE('',#1405,14.);
#58=CYLINDRICAL_SURFACE('',#1406,12.5);
#59=CYLINDRICAL_SURFACE('',#1423,5.25);
#60=CYLINDRICAL_SURFACE('',#1426,4.5);
#61=CYLINDRICAL_SURFACE('',#1430,7.5);
#62=CYLINDRICAL_SURFACE('',#1433,4.5);
#63=CYLINDRICAL_SURFACE('',#1437,7.5);
#64=CIRCLE('',#1313,14.);
#65=CIRCLE('',#1314,12.5);
#66=CIRCLE('',#1316,14.);
#67=CIRCLE('',#1318,14.);
#68=CIRCLE('',#1319,12.5);
#69=CIRCLE('',#1322,14.);
#70=CIRCLE('',#1325,12.5);
#71=CIRCLE('',#1326,12.5);
#72=CIRCLE('',#1328,14.);
#73=CIRCLE('',#1330,12.5);
#74=CIRCLE('',#1333,12.5);
#75=CIRCLE('',#1335,12.5);
#76=CIRCLE('',#1338,12.5);
#77=CIRCLE('',#1340,14.);
#78=CIRCLE('',#1341,12.5);
#79=CIRCLE('',#1343,12.5);
#80=CIRCLE('',#1346,12.5);
#81=CIRCLE('',#1349,12.5);
#82=CIRCLE('',#1352,12.5);
#83=CIRCLE('',#1353,12.5);
#84=CIRCLE('',#1356,3.);
#85=CIRCLE('',#1357,3.);
#86=CIRCLE('',#1358,3.);
#87=CIRCLE('',#1359,3.);
#88=CIRCLE('',#1360,4.5);
#89=CIRCLE('',#1361,4.5);
#90=CIRCLE('',#1362,5.25);
#91=CIRCLE('',#1363,12.5);
#92=CIRCLE('',#1364,14.);
#93=CIRCLE('',#1365,14.);
#94=CIRCLE('',#1366,12.5);
#95=CIRCLE('',#1372,8.);
#96=CIRCLE('',#1373,8.);
#97=CIRCLE('',#1374,6.025);
#98=CIRCLE('',#1376,3.);
#99=CIRCLE('',#1378,3.);
#100=CIRCLE('',#1379,3.);
#101=CIRCLE('',#1381,3.);
#102=CIRCLE('',#1383,3.);
#103=CIRCLE('',#1385,3.);
#104=CIRCLE('',#1387,3.);
#105=CIRCLE('',#1389,3.);
#106=CIRCLE('',#1391,3.);
#107=CIRCLE('',#1393,3.);
#108=CIRCLE('',#1395,3.);
#109=CIRCLE('',#1397,3.);
#110=CIRCLE('',#1424,5.25);
#111=CIRCLE('',#1427,4.5);
#112=CIRCLE('',#1429,7.5);
#113=CIRCLE('',#1431,7.5);
#114=CIRCLE('',#1434,4.5);
#115=CIRCLE('',#1436,7.5);
#116=CIRCLE('',#1438,7.5);
#117=FACE_OUTER_BOUND('',#193,.T.);
#118=FACE_OUTER_BOUND('',#194,.T.);
#119=FACE_OUTER_BOUND('',#195,.T.);
#120=FACE_OUTER_BOUND('',#196,.T.);
#121=FACE_OUTER_BOUND('',#197,.T.);
#122=FACE_OUTER_BOUND('',#198,.T.);
#123=FACE_OUTER_BOUND('',#199,.T.);
#124=FACE_OUTER_BOUND('',#200,.T.);
#125=FACE_OUTER_BOUND('',#201,.T.);
#126=FACE_OUTER_BOUND('',#202,.T.);
#127=FACE_OUTER_BOUND('',#203,.T.);
#128=FACE_OUTER_BOUND('',#204,.T.);
#129=FACE_OUTER_BOUND('',#205,.T.);
#130=FACE_OUTER_BOUND('',#206,.T.);
#131=FACE_OUTER_BOUND('',#207,.T.);
#132=FACE_OUTER_BOUND('',#208,.T.);
#133=FACE_OUTER_BOUND('',#209,.T.);
#134=FACE_OUTER_BOUND('',#210,.T.);
#135=FACE_OUTER_BOUND('',#211,.T.);
#136=FACE_OUTER_BOUND('',#212,.T.);
#137=FACE_OUTER_BOUND('',#213,.T.);
#138=FACE_OUTER_BOUND('',#214,.T.);
#139=FACE_OUTER_BOUND('',#215,.T.);
#140=FACE_OUTER_BOUND('',#216,.T.);
#141=FACE_OUTER_BOUND('',#217,.T.);
#142=FACE_OUTER_BOUND('',#229,.T.);
#143=FACE_OUTER_BOUND('',#230,.T.);
#144=FACE_OUTER_BOUND('',#231,.T.);
#145=FACE_OUTER_BOUND('',#232,.T.);
#146=FACE_OUTER_BOUND('',#233,.T.);
#147=FACE_OUTER_BOUND('',#237,.T.);
#148=FACE_OUTER_BOUND('',#238,.T.);
#149=FACE_OUTER_BOUND('',#239,.T.);
#150=FACE_OUTER_BOUND('',#240,.T.);
#151=FACE_OUTER_BOUND('',#241,.T.);
#152=FACE_OUTER_BOUND('',#242,.T.);
#153=FACE_OUTER_BOUND('',#243,.T.);
#154=FACE_OUTER_BOUND('',#244,.T.);
#155=FACE_OUTER_BOUND('',#245,.T.);
#156=FACE_OUTER_BOUND('',#246,.T.);
#157=FACE_OUTER_BOUND('',#247,.T.);
#158=FACE_OUTER_BOUND('',#248,.T.);
#159=FACE_OUTER_BOUND('',#249,.T.);
#160=FACE_OUTER_BOUND('',#250,.T.);
#161=FACE_OUTER_BOUND('',#251,.T.);
#162=FACE_OUTER_BOUND('',#252,.T.);
#163=FACE_OUTER_BOUND('',#253,.T.);
#164=FACE_OUTER_BOUND('',#254,.T.);
#165=FACE_OUTER_BOUND('',#255,.T.);
#166=FACE_OUTER_BOUND('',#256,.T.);
#167=FACE_OUTER_BOUND('',#257,.T.);
#168=FACE_OUTER_BOUND('',#258,.T.);
#169=FACE_OUTER_BOUND('',#259,.T.);
#170=FACE_OUTER_BOUND('',#260,.T.);
#171=FACE_OUTER_BOUND('',#261,.T.);
#172=FACE_OUTER_BOUND('',#262,.T.);
#173=FACE_OUTER_BOUND('',#263,.T.);
#174=FACE_OUTER_BOUND('',#264,.T.);
#175=FACE_OUTER_BOUND('',#265,.T.);
#176=FACE_OUTER_BOUND('',#266,.T.);
#177=FACE_OUTER_BOUND('',#267,.T.);
#178=FACE_OUTER_BOUND('',#268,.T.);
#179=FACE_OUTER_BOUND('',#269,.T.);
#180=FACE_OUTER_BOUND('',#270,.T.);
#181=FACE_OUTER_BOUND('',#271,.T.);
#182=FACE_OUTER_BOUND('',#272,.T.);
#183=FACE_OUTER_BOUND('',#273,.T.);
#184=FACE_OUTER_BOUND('',#274,.T.);
#185=FACE_OUTER_BOUND('',#275,.T.);
#186=FACE_OUTER_BOUND('',#276,.T.);
#187=FACE_OUTER_BOUND('',#278,.T.);
#188=FACE_OUTER_BOUND('',#279,.T.);
#189=FACE_OUTER_BOUND('',#280,.T.);
#190=FACE_OUTER_BOUND('',#281,.T.);
#191=FACE_OUTER_BOUND('',#283,.T.);
#192=FACE_OUTER_BOUND('',#284,.T.);
#193=EDGE_LOOP('',(#823,#824,#825,#826));
#194=EDGE_LOOP('',(#827,#828,#829,#830,#831));
#195=EDGE_LOOP('',(#832,#833,#834,#835));
#196=EDGE_LOOP('',(#836,#837,#838,#839,#840));
#197=EDGE_LOOP('',(#841,#842,#843,#844));
#198=EDGE_LOOP('',(#845,#846,#847,#848));
#199=EDGE_LOOP('',(#849,#850,#851,#852));
#200=EDGE_LOOP('',(#853,#854,#855,#856));
#201=EDGE_LOOP('',(#857,#858,#859,#860,#861));
#202=EDGE_LOOP('',(#862,#863,#864,#865,#866));
#203=EDGE_LOOP('',(#867,#868,#869,#870));
#204=EDGE_LOOP('',(#871,#872,#873,#874));
#205=EDGE_LOOP('',(#875,#876,#877,#878,#879));
#206=EDGE_LOOP('',(#880,#881,#882,#883));
#207=EDGE_LOOP('',(#884,#885,#886,#887));
#208=EDGE_LOOP('',(#888,#889,#890,#891,#892));
#209=EDGE_LOOP('',(#893,#894,#895,#896));
#210=EDGE_LOOP('',(#897,#898,#899,#900));
#211=EDGE_LOOP('',(#901,#902,#903,#904,#905));
#212=EDGE_LOOP('',(#906,#907,#908,#909));
#213=EDGE_LOOP('',(#910,#911,#912,#913));
#214=EDGE_LOOP('',(#914,#915,#916,#917));
#215=EDGE_LOOP('',(#918,#919,#920,#921));
#216=EDGE_LOOP('',(#922,#923,#924,#925,#926));
#217=EDGE_LOOP('',(#927,#928,#929,#930,#931,#932,#933,#934));
#218=EDGE_LOOP('',(#935,#936,#937,#938,#939));
#219=EDGE_LOOP('',(#940,#941,#942,#943,#944));
#220=EDGE_LOOP('',(#945,#946,#947,#948,#949));
#221=EDGE_LOOP('',(#950,#951,#952,#953,#954));
#222=EDGE_LOOP('',(#955));
#223=EDGE_LOOP('',(#956));
#224=EDGE_LOOP('',(#957));
#225=EDGE_LOOP('',(#958,#959,#960,#961,#962));
#226=EDGE_LOOP('',(#963,#964,#965,#966,#967));
#227=EDGE_LOOP('',(#968,#969,#970,#971,#972));
#228=EDGE_LOOP('',(#973,#974,#975,#976,#977));
#229=EDGE_LOOP('',(#978,#979,#980,#981));
#230=EDGE_LOOP('',(#982,#983,#984,#985));
#231=EDGE_LOOP('',(#986,#987,#988,#989));
#232=EDGE_LOOP('',(#990,#991,#992,#993));
#233=EDGE_LOOP('',(#994,#995,#996,#997));
#234=EDGE_LOOP('',(#998));
#235=EDGE_LOOP('',(#999));
#236=EDGE_LOOP('',(#1000));
#237=EDGE_LOOP('',(#1001,#1002,#1003,#1004));
#238=EDGE_LOOP('',(#1005,#1006,#1007,#1008));
#239=EDGE_LOOP('',(#1009,#1010,#1011,#1012));
#240=EDGE_LOOP('',(#1013,#1014,#1015));
#241=EDGE_LOOP('',(#1016,#1017,#1018));
#242=EDGE_LOOP('',(#1019,#1020,#1021,#1022));
#243=EDGE_LOOP('',(#1023,#1024,#1025,#1026));
#244=EDGE_LOOP('',(#1027,#1028,#1029,#1030));
#245=EDGE_LOOP('',(#1031,#1032,#1033,#1034));
#246=EDGE_LOOP('',(#1035,#1036,#1037));
#247=EDGE_LOOP('',(#1038,#1039,#1040));
#248=EDGE_LOOP('',(#1041,#1042,#1043,#1044));
#249=EDGE_LOOP('',(#1045,#1046,#1047,#1048));
#250=EDGE_LOOP('',(#1049,#1050,#1051,#1052));
#251=EDGE_LOOP('',(#1053,#1054,#1055,#1056));
#252=EDGE_LOOP('',(#1057,#1058,#1059,#1060));
#253=EDGE_LOOP('',(#1061,#1062,#1063,#1064));
#254=EDGE_LOOP('',(#1065,#1066,#1067,#1068));
#255=EDGE_LOOP('',(#1069,#1070,#1071,#1072));
#256=EDGE_LOOP('',(#1073,#1074,#1075,#1076));
#257=EDGE_LOOP('',(#1077,#1078,#1079,#1080));
#258=EDGE_LOOP('',(#1081,#1082,#1083,#1084));
#259=EDGE_LOOP('',(#1085,#1086,#1087,#1088));
#260=EDGE_LOOP('',(#1089,#1090,#1091,#1092));
#261=EDGE_LOOP('',(#1093,#1094,#1095,#1096));
#262=EDGE_LOOP('',(#1097,#1098,#1099,#1100));
#263=EDGE_LOOP('',(#1101,#1102,#1103,#1104));
#264=EDGE_LOOP('',(#1105,#1106,#1107,#1108));
#265=EDGE_LOOP('',(#1109,#1110,#1111,#1112));
#266=EDGE_LOOP('',(#1113,#1114,#1115,#1116));
#267=EDGE_LOOP('',(#1117,#1118,#1119,#1120));
#268=EDGE_LOOP('',(#1121,#1122,#1123,#1124));
#269=EDGE_LOOP('',(#1125,#1126,#1127,#1128));
#270=EDGE_LOOP('',(#1129,#1130,#1131,#1132));
#271=EDGE_LOOP('',(#1133,#1134,#1135,#1136));
#272=EDGE_LOOP('',(#1137,#1138,#1139,#1140));
#273=EDGE_LOOP('',(#1141,#1142,#1143,#1144));
#274=EDGE_LOOP('',(#1145,#1146,#1147,#1148));
#275=EDGE_LOOP('',(#1149,#1150,#1151,#1152));
#276=EDGE_LOOP('',(#1153));
#277=EDGE_LOOP('',(#1154));
#278=EDGE_LOOP('',(#1155,#1156,#1157,#1158));
#279=EDGE_LOOP('',(#1159,#1160,#1161,#1162));
#280=EDGE_LOOP('',(#1163,#1164,#1165,#1166));
#281=EDGE_LOOP('',(#1167));
#282=EDGE_LOOP('',(#1168));
#283=EDGE_LOOP('',(#1169,#1170,#1171,#1172));
#284=EDGE_LOOP('',(#1173,#1174,#1175,#1176));
#285=LINE('',#1828,#409);
#286=LINE('',#1830,#410);
#287=LINE('',#1832,#411);
#288=LINE('',#1833,#412);
#289=LINE('',#1839,#413);
#290=LINE('',#1841,#414);
#291=LINE('',#1843,#415);
#292=LINE('',#1847,#416);
#293=LINE('',#1849,#417);
#294=LINE('',#1856,#418);
#295=LINE('',#1858,#419);
#296=LINE('',#1860,#420);
#297=LINE('',#1865,#421);
#298=LINE('',#1867,#422);
#299=LINE('',#1869,#423);
#300=LINE('',#1870,#424);
#301=LINE('',#1873,#425);
#302=LINE('',#1875,#426);
#303=LINE('',#1880,#427);
#304=LINE('',#1882,#428);
#305=LINE('',#1884,#429);
#306=LINE('',#1885,#430);
#307=LINE('',#1889,#431);
#308=LINE('',#1893,#432);
#309=LINE('',#1897,#433);
#310=LINE('',#1899,#434);
#311=LINE('',#1905,#435);
#312=LINE('',#1907,#436);
#313=LINE('',#1909,#437);
#314=LINE('',#1910,#438);
#315=LINE('',#1913,#439);
#316=LINE('',#1915,#440);
#317=LINE('',#1916,#441);
#318=LINE('',#1919,#442);
#319=LINE('',#1921,#443);
#320=LINE('',#1928,#444);
#321=LINE('',#1930,#445);
#322=LINE('',#1932,#446);
#323=LINE('',#1933,#447);
#324=LINE('',#1936,#448);
#325=LINE('',#1938,#449);
#326=LINE('',#1939,#450);
#327=LINE('',#1942,#451);
#328=LINE('',#1944,#452);
#329=LINE('',#1948,#453);
#330=LINE('',#1953,#454);
#331=LINE('',#1956,#455);
#332=LINE('',#1958,#456);
#333=LINE('',#1963,#457);
#334=LINE('',#1965,#458);
#335=LINE('',#1967,#459);
#336=LINE('',#1968,#460);
#337=LINE('',#1971,#461);
#338=LINE('',#1975,#462);
#339=LINE('',#1976,#463);
#340=LINE('',#1980,#464);
#341=LINE('',#1981,#465);
#342=LINE('',#1982,#466);
#343=LINE('',#1985,#467);
#344=LINE('',#1988,#468);
#345=LINE('',#1991,#469);
#346=LINE('',#1993,#470);
#347=LINE('',#1994,#471);
#348=LINE('',#2000,#472);
#349=LINE('',#2003,#473);
#350=LINE('',#2005,#474);
#351=LINE('',#2006,#475);
#352=LINE('',#2012,#476);
#353=LINE('',#2016,#477);
#354=LINE('',#2020,#478);
#355=LINE('',#2023,#479);
#356=LINE('',#2024,#480);
#357=LINE('',#2026,#481);
#358=LINE('',#2027,#482);
#359=LINE('',#2029,#483);
#360=LINE('',#2030,#484);
#361=LINE('',#2031,#485);
#362=LINE('',#2032,#486);
#363=LINE('',#2033,#487);
#364=LINE('',#2036,#488);
#365=LINE('',#2037,#489);
#366=LINE('',#2039,#490);
#367=LINE('',#2040,#491);
#368=LINE('',#2047,#492);
#369=LINE('',#2050,#493);
#370=LINE('',#2052,#494);
#371=LINE('',#2053,#495);
#372=LINE('',#2057,#496);
#373=LINE('',#2058,#497);
#374=LINE('',#2059,#498);
#375=LINE('',#2062,#499);
#376=LINE('',#2065,#500);
#377=LINE('',#2067,#501);
#378=LINE('',#2068,#502);
#379=LINE('',#2071,#503);
#380=LINE('',#2073,#504);
#381=LINE('',#2074,#505);
#382=LINE('',#2077,#506);
#383=LINE('',#2079,#507);
#384=LINE('',#2080,#508);
#385=LINE('',#2083,#509);
#386=LINE('',#2085,#510);
#387=LINE('',#2086,#511);
#388=LINE('',#2090,#512);
#389=LINE('',#2092,#513);
#390=LINE('',#2094,#514);
#391=LINE('',#2095,#515);
#392=LINE('',#2127,#516);
#393=LINE('',#2128,#517);
#394=LINE('',#2130,#518);
#395=LINE('',#2132,#519);
#396=LINE('',#2134,#520);
#397=LINE('',#2136,#521);
#398=LINE('',#2138,#522);
#399=LINE('',#2140,#523);
#400=LINE('',#2142,#524);
#401=LINE('',#2161,#525);
#402=LINE('',#2164,#526);
#403=LINE('',#2167,#527);
#404=LINE('',#2174,#528);
#405=LINE('',#2177,#529);
#406=LINE('',#2180,#530);
#407=LINE('',#2187,#531);
#408=LINE('',#2190,#532);
#409=VECTOR('',#1444,10.);
#410=VECTOR('',#1445,11.);
#411=VECTOR('',#1446,17.5);
#412=VECTOR('',#1447,11.);
#413=VECTOR('',#1452,4.72502268604408);
#414=VECTOR('',#1453,17.5);
#415=VECTOR('',#1454,6.2525512860841);
#416=VECTOR('',#1459,11.);
#417=VECTOR('',#1460,11.);
#418=VECTOR('',#1467,4.72502268604409);
#419=VECTOR('',#1468,17.5);
#420=VECTOR('',#1469,6.25255128608408);
#421=VECTOR('',#1474,10.);
#422=VECTOR('',#1475,11.);
#423=VECTOR('',#1476,17.4999999999999);
#424=VECTOR('',#1477,11.);
#425=VECTOR('',#1480,11.);
#426=VECTOR('',#1481,11.);
#427=VECTOR('',#1486,10.);
#428=VECTOR('',#1487,11.);
#429=VECTOR('',#1488,16.0000000000001);
#430=VECTOR('',#1489,11.);
#431=VECTOR('',#1492,11.);
#432=VECTOR('',#1495,11.);
#433=VECTOR('',#1500,4.72502268604409);
#434=VECTOR('',#1503,6.25255128608413);
#435=VECTOR('',#1508,6.25255128608412);
#436=VECTOR('',#1509,16.);
#437=VECTOR('',#1510,16.);
#438=VECTOR('',#1511,6.25255128608412);
#439=VECTOR('',#1514,11.);
#440=VECTOR('',#1515,10.);
#441=VECTOR('',#1516,11.);
#442=VECTOR('',#1519,11.);
#443=VECTOR('',#1520,11.);
#444=VECTOR('',#1527,6.25255128608414);
#445=VECTOR('',#1528,16.);
#446=VECTOR('',#1529,16.);
#447=VECTOR('',#1530,6.2525512860841);
#448=VECTOR('',#1533,11.);
#449=VECTOR('',#1534,10.);
#450=VECTOR('',#1535,11.);
#451=VECTOR('',#1538,11.);
#452=VECTOR('',#1539,11.);
#453=VECTOR('',#1544,4.72502268604409);
#454=VECTOR('',#1549,6.25255128608412);
#455=VECTOR('',#1552,11.);
#456=VECTOR('',#1553,11.);
#457=VECTOR('',#1558,10.);
#458=VECTOR('',#1559,11.);
#459=VECTOR('',#1560,16.);
#460=VECTOR('',#1561,11.);
#461=VECTOR('',#1564,6.2525512860841);
#462=VECTOR('',#1567,6.2525512860841);
#463=VECTOR('',#1568,16.);
#464=VECTOR('',#1571,10.);
#465=VECTOR('',#1572,11.);
#466=VECTOR('',#1573,11.);
#467=VECTOR('',#1576,11.);
#468=VECTOR('',#1579,11.);
#469=VECTOR('',#1582,16.);
#470=VECTOR('',#1583,11.);
#471=VECTOR('',#1584,10.);
#472=VECTOR('',#1589,11.);
#473=VECTOR('',#1592,11.);
#474=VECTOR('',#1595,6.25255128608408);
#475=VECTOR('',#1596,6.25255128608412);
#476=VECTOR('',#1601,10.);
#477=VECTOR('',#1604,10.);
#478=VECTOR('',#1607,10.);
#479=VECTOR('',#1610,10.);
#480=VECTOR('',#1611,10.);
#481=VECTOR('',#1612,10.);
#482=VECTOR('',#1613,10.);
#483=VECTOR('',#1614,10.);
#484=VECTOR('',#1615,10.);
#485=VECTOR('',#1616,10.);
#486=VECTOR('',#1617,10.);
#487=VECTOR('',#1618,10.);
#488=VECTOR('',#1619,10.);
#489=VECTOR('',#1620,10.);
#490=VECTOR('',#1621,10.);
#491=VECTOR('',#1622,10.);
#492=VECTOR('',#1629,10.);
#493=VECTOR('',#1632,10.);
#494=VECTOR('',#1633,10.);
#495=VECTOR('',#1634,10.);
#496=VECTOR('',#1639,10.);
#497=VECTOR('',#1640,10.);
#498=VECTOR('',#1641,10.);
#499=VECTOR('',#1644,10.);
#500=VECTOR('',#1647,12.);
#501=VECTOR('',#1648,39.);
#502=VECTOR('',#1649,12.);
#503=VECTOR('',#1652,12.);
#504=VECTOR('',#1653,84.);
#505=VECTOR('',#1654,12.);
#506=VECTOR('',#1657,12.);
#507=VECTOR('',#1658,39.);
#508=VECTOR('',#1659,12.);
#509=VECTOR('',#1662,12.);
#510=VECTOR('',#1663,84.);
#511=VECTOR('',#1664,12.);
#512=VECTOR('',#1667,84.);
#513=VECTOR('',#1668,39.);
#514=VECTOR('',#1669,84.);
#515=VECTOR('',#1670,39.);
#516=VECTOR('',#1727,11.);
#517=VECTOR('',#1728,11.);
#518=VECTOR('',#1731,11.);
#519=VECTOR('',#1734,11.);
#520=VECTOR('',#1737,11.);
#521=VECTOR('',#1740,11.);
#522=VECTOR('',#1743,11.);
#523=VECTOR('',#1746,11.);
#524=VECTOR('',#1749,11.);
#525=VECTOR('',#1784,5.25);
#526=VECTOR('',#1789,6.025);
#527=VECTOR('',#1792,4.5);
#528=VECTOR('',#1801,7.5);
#529=VECTOR('',#1806,8.);
#530=VECTOR('',#1809,4.5);
#531=VECTOR('',#1818,7.5);
#532=VECTOR('',#1823,8.);
#533=VERTEX_POINT('',#1826);
#534=VERTEX_POINT('',#1827);
#535=VERTEX_POINT('',#1829);
#536=VERTEX_POINT('',#1831);
#537=VERTEX_POINT('',#1835);
#538=VERTEX_POINT('',#1836);
#539=VERTEX_POINT('',#1838);
#540=VERTEX_POINT('',#1840);
#541=VERTEX_POINT('',#1842);
#542=VERTEX_POINT('',#1846);
#543=VERTEX_POINT('',#1848);
#544=VERTEX_POINT('',#1852);
#545=VERTEX_POINT('',#1853);
#546=VERTEX_POINT('',#1855);
#547=VERTEX_POINT('',#1857);
#548=VERTEX_POINT('',#1859);
#549=VERTEX_POINT('',#1863);
#550=VERTEX_POINT('',#1864);
#551=VERTEX_POINT('',#1866);
#552=VERTEX_POINT('',#1868);
#553=VERTEX_POINT('',#1872);
#554=VERTEX_POINT('',#1874);
#555=VERTEX_POINT('',#1878);
#556=VERTEX_POINT('',#1879);
#557=VERTEX_POINT('',#1881);
#558=VERTEX_POINT('',#1883);
#559=VERTEX_POINT('',#1887);
#560=VERTEX_POINT('',#1888);
#561=VERTEX_POINT('',#1890);
#562=VERTEX_POINT('',#1892);
#563=VERTEX_POINT('',#1896);
#564=VERTEX_POINT('',#1901);
#565=VERTEX_POINT('',#1902);
#566=VERTEX_POINT('',#1904);
#567=VERTEX_POINT('',#1906);
#568=VERTEX_POINT('',#1908);
#569=VERTEX_POINT('',#1912);
#570=VERTEX_POINT('',#1914);
#571=VERTEX_POINT('',#1918);
#572=VERTEX_POINT('',#1920);
#573=VERTEX_POINT('',#1924);
#574=VERTEX_POINT('',#1925);
#575=VERTEX_POINT('',#1927);
#576=VERTEX_POINT('',#1929);
#577=VERTEX_POINT('',#1931);
#578=VERTEX_POINT('',#1935);
#579=VERTEX_POINT('',#1937);
#580=VERTEX_POINT('',#1941);
#581=VERTEX_POINT('',#1943);
#582=VERTEX_POINT('',#1947);
#583=VERTEX_POINT('',#1949);
#584=VERTEX_POINT('',#1951);
#585=VERTEX_POINT('',#1955);
#586=VERTEX_POINT('',#1957);
#587=VERTEX_POINT('',#1961);
#588=VERTEX_POINT('',#1962);
#589=VERTEX_POINT('',#1964);
#590=VERTEX_POINT('',#1966);
#591=VERTEX_POINT('',#1970);
#592=VERTEX_POINT('',#1972);
#593=VERTEX_POINT('',#1974);
#594=VERTEX_POINT('',#1978);
#595=VERTEX_POINT('',#1979);
#596=VERTEX_POINT('',#1984);
#597=VERTEX_POINT('',#1986);
#598=VERTEX_POINT('',#1990);
#599=VERTEX_POINT('',#1992);
#600=VERTEX_POINT('',#1996);
#601=VERTEX_POINT('',#1997);
#602=VERTEX_POINT('',#1999);
#603=VERTEX_POINT('',#2001);
#604=VERTEX_POINT('',#2008);
#605=VERTEX_POINT('',#2009);
#606=VERTEX_POINT('',#2011);
#607=VERTEX_POINT('',#2013);
#608=VERTEX_POINT('',#2015);
#609=VERTEX_POINT('',#2017);
#610=VERTEX_POINT('',#2019);
#611=VERTEX_POINT('',#2021);
#612=VERTEX_POINT('',#2025);
#613=VERTEX_POINT('',#2028);
#614=VERTEX_POINT('',#2034);
#615=VERTEX_POINT('',#2035);
#616=VERTEX_POINT('',#2038);
#617=VERTEX_POINT('',#2041);
#618=VERTEX_POINT('',#2043);
#619=VERTEX_POINT('',#2045);
#620=VERTEX_POINT('',#2048);
#621=VERTEX_POINT('',#2051);
#622=VERTEX_POINT('',#2055);
#623=VERTEX_POINT('',#2060);
#624=VERTEX_POINT('',#2064);
#625=VERTEX_POINT('',#2066);
#626=VERTEX_POINT('',#2070);
#627=VERTEX_POINT('',#2072);
#628=VERTEX_POINT('',#2076);
#629=VERTEX_POINT('',#2078);
#630=VERTEX_POINT('',#2082);
#631=VERTEX_POINT('',#2084);
#632=VERTEX_POINT('',#2088);
#633=VERTEX_POINT('',#2089);
#634=VERTEX_POINT('',#2091);
#635=VERTEX_POINT('',#2093);
#636=VERTEX_POINT('',#2096);
#637=VERTEX_POINT('',#2098);
#638=VERTEX_POINT('',#2100);
#639=VERTEX_POINT('',#2160);
#640=VERTEX_POINT('',#2166);
#641=VERTEX_POINT('',#2170);
#642=VERTEX_POINT('',#2173);
#643=VERTEX_POINT('',#2179);
#644=VERTEX_POINT('',#2183);
#645=VERTEX_POINT('',#2186);
#646=EDGE_CURVE('',#533,#534,#285,.T.);
#647=EDGE_CURVE('',#533,#535,#286,.T.);
#648=EDGE_CURVE('',#536,#535,#287,.T.);
#649=EDGE_CURVE('',#534,#536,#288,.T.);
#650=EDGE_CURVE('',#537,#538,#64,.T.);
#651=EDGE_CURVE('',#537,#539,#289,.T.);
#652=EDGE_CURVE('',#539,#540,#290,.T.);
#653=EDGE_CURVE('',#540,#541,#291,.T.);
#654=EDGE_CURVE('',#538,#541,#65,.T.);
#655=EDGE_CURVE('',#537,#542,#292,.F.);
#656=EDGE_CURVE('',#543,#538,#293,.T.);
#657=EDGE_CURVE('',#542,#543,#66,.T.);
#658=EDGE_CURVE('',#544,#545,#67,.T.);
#659=EDGE_CURVE('',#544,#546,#294,.T.);
#660=EDGE_CURVE('',#546,#547,#295,.T.);
#661=EDGE_CURVE('',#547,#548,#296,.T.);
#662=EDGE_CURVE('',#545,#548,#68,.T.);
#663=EDGE_CURVE('',#549,#550,#297,.T.);
#664=EDGE_CURVE('',#549,#551,#298,.T.);
#665=EDGE_CURVE('',#552,#551,#299,.T.);
#666=EDGE_CURVE('',#550,#552,#300,.T.);
#667=EDGE_CURVE('',#544,#553,#301,.F.);
#668=EDGE_CURVE('',#554,#545,#302,.T.);
#669=EDGE_CURVE('',#553,#554,#69,.T.);
#670=EDGE_CURVE('',#555,#556,#303,.T.);
#671=EDGE_CURVE('',#555,#557,#304,.T.);
#672=EDGE_CURVE('',#558,#557,#305,.T.);
#673=EDGE_CURVE('',#558,#556,#306,.T.);
#674=EDGE_CURVE('',#559,#560,#307,.F.);
#675=EDGE_CURVE('',#559,#561,#70,.T.);
#676=EDGE_CURVE('',#562,#561,#308,.T.);
#677=EDGE_CURVE('',#560,#562,#71,.T.);
#678=EDGE_CURVE('',#551,#563,#309,.T.);
#679=EDGE_CURVE('',#561,#563,#72,.T.);
#680=EDGE_CURVE('',#559,#552,#310,.T.);
#681=EDGE_CURVE('',#564,#565,#73,.T.);
#682=EDGE_CURVE('',#564,#566,#311,.T.);
#683=EDGE_CURVE('',#566,#567,#312,.T.);
#684=EDGE_CURVE('',#568,#567,#313,.T.);
#685=EDGE_CURVE('',#565,#568,#314,.T.);
#686=EDGE_CURVE('',#569,#539,#315,.T.);
#687=EDGE_CURVE('',#570,#569,#316,.T.);
#688=EDGE_CURVE('',#570,#540,#317,.T.);
#689=EDGE_CURVE('',#564,#571,#318,.F.);
#690=EDGE_CURVE('',#565,#572,#319,.F.);
#691=EDGE_CURVE('',#571,#572,#74,.T.);
#692=EDGE_CURVE('',#573,#574,#75,.T.);
#693=EDGE_CURVE('',#573,#575,#320,.T.);
#694=EDGE_CURVE('',#575,#576,#321,.T.);
#695=EDGE_CURVE('',#576,#577,#322,.T.);
#696=EDGE_CURVE('',#577,#574,#323,.T.);
#697=EDGE_CURVE('',#578,#546,#324,.T.);
#698=EDGE_CURVE('',#579,#578,#325,.T.);
#699=EDGE_CURVE('',#579,#547,#326,.T.);
#700=EDGE_CURVE('',#573,#580,#327,.F.);
#701=EDGE_CURVE('',#574,#581,#328,.F.);
#702=EDGE_CURVE('',#580,#581,#76,.T.);
#703=EDGE_CURVE('',#535,#582,#329,.T.);
#704=EDGE_CURVE('',#583,#582,#77,.T.);
#705=EDGE_CURVE('',#584,#583,#78,.T.);
#706=EDGE_CURVE('',#584,#536,#330,.T.);
#707=EDGE_CURVE('',#584,#585,#331,.F.);
#708=EDGE_CURVE('',#586,#583,#332,.T.);
#709=EDGE_CURVE('',#585,#586,#79,.T.);
#710=EDGE_CURVE('',#587,#588,#333,.T.);
#711=EDGE_CURVE('',#587,#589,#334,.T.);
#712=EDGE_CURVE('',#590,#589,#335,.T.);
#713=EDGE_CURVE('',#590,#588,#336,.T.);
#714=EDGE_CURVE('',#589,#591,#337,.T.);
#715=EDGE_CURVE('',#592,#591,#80,.T.);
#716=EDGE_CURVE('',#592,#593,#338,.T.);
#717=EDGE_CURVE('',#593,#590,#339,.T.);
#718=EDGE_CURVE('',#594,#595,#340,.T.);
#719=EDGE_CURVE('',#594,#577,#341,.T.);
#720=EDGE_CURVE('',#576,#595,#342,.T.);
#721=EDGE_CURVE('',#591,#596,#343,.F.);
#722=EDGE_CURVE('',#597,#596,#81,.T.);
#723=EDGE_CURVE('',#592,#597,#344,.F.);
#724=EDGE_CURVE('',#558,#598,#345,.T.);
#725=EDGE_CURVE('',#599,#598,#346,.T.);
#726=EDGE_CURVE('',#556,#599,#347,.T.);
#727=EDGE_CURVE('',#600,#601,#82,.T.);
#728=EDGE_CURVE('',#601,#602,#348,.F.);
#729=EDGE_CURVE('',#603,#602,#83,.T.);
#730=EDGE_CURVE('',#600,#603,#349,.F.);
#731=EDGE_CURVE('',#557,#601,#350,.T.);
#732=EDGE_CURVE('',#600,#598,#351,.T.);
#733=EDGE_CURVE('',#604,#605,#84,.T.);
#734=EDGE_CURVE('',#606,#605,#352,.T.);
#735=EDGE_CURVE('',#606,#607,#85,.T.);
#736=EDGE_CURVE('',#608,#607,#353,.T.);
#737=EDGE_CURVE('',#608,#609,#86,.T.);
#738=EDGE_CURVE('',#610,#609,#354,.T.);
#739=EDGE_CURVE('',#610,#611,#87,.T.);
#740=EDGE_CURVE('',#604,#611,#355,.T.);
#741=EDGE_CURVE('',#596,#587,#356,.T.);
#742=EDGE_CURVE('',#588,#612,#357,.T.);
#743=EDGE_CURVE('',#612,#597,#358,.F.);
#744=EDGE_CURVE('',#613,#580,#359,.F.);
#745=EDGE_CURVE('',#581,#594,#360,.T.);
#746=EDGE_CURVE('',#595,#613,#361,.T.);
#747=EDGE_CURVE('',#555,#602,#362,.F.);
#748=EDGE_CURVE('',#599,#603,#363,.F.);
#749=EDGE_CURVE('',#614,#615,#364,.T.);
#750=EDGE_CURVE('',#615,#571,#365,.F.);
#751=EDGE_CURVE('',#616,#572,#366,.F.);
#752=EDGE_CURVE('',#616,#614,#367,.T.);
#753=EDGE_CURVE('',#617,#617,#88,.F.);
#754=EDGE_CURVE('',#618,#618,#89,.F.);
#755=EDGE_CURVE('',#619,#619,#90,.T.);
#756=EDGE_CURVE('',#569,#542,#368,.F.);
#757=EDGE_CURVE('',#543,#620,#91,.T.);
#758=EDGE_CURVE('',#620,#570,#369,.T.);
#759=EDGE_CURVE('',#621,#549,#370,.T.);
#760=EDGE_CURVE('',#550,#560,#371,.F.);
#761=EDGE_CURVE('',#562,#621,#92,.T.);
#762=EDGE_CURVE('',#586,#622,#93,.T.);
#763=EDGE_CURVE('',#622,#533,#372,.T.);
#764=EDGE_CURVE('',#534,#585,#373,.F.);
#765=EDGE_CURVE('',#578,#553,#374,.F.);
#766=EDGE_CURVE('',#554,#623,#94,.T.);
#767=EDGE_CURVE('',#623,#579,#375,.T.);
#768=EDGE_CURVE('',#611,#624,#376,.F.);
#769=EDGE_CURVE('',#624,#625,#377,.F.);
#770=EDGE_CURVE('',#625,#604,#378,.T.);
#771=EDGE_CURVE('',#609,#626,#379,.F.);
#772=EDGE_CURVE('',#626,#627,#380,.F.);
#773=EDGE_CURVE('',#627,#610,#381,.T.);
#774=EDGE_CURVE('',#607,#628,#382,.F.);
#775=EDGE_CURVE('',#628,#629,#383,.F.);
#776=EDGE_CURVE('',#629,#608,#384,.T.);
#777=EDGE_CURVE('',#605,#630,#385,.F.);
#778=EDGE_CURVE('',#630,#631,#386,.F.);
#779=EDGE_CURVE('',#631,#606,#387,.T.);
#780=EDGE_CURVE('',#632,#633,#388,.T.);
#781=EDGE_CURVE('',#633,#634,#389,.T.);
#782=EDGE_CURVE('',#634,#635,#390,.T.);
#783=EDGE_CURVE('',#635,#632,#391,.T.);
#784=EDGE_CURVE('',#636,#636,#95,.T.);
#785=EDGE_CURVE('',#637,#637,#96,.T.);
#786=EDGE_CURVE('',#638,#638,#97,.T.);
#787=EDGE_CURVE('',#626,#629,#98,.T.);
#788=EDGE_CURVE('',#627,#634,#99,.T.);
#789=EDGE_CURVE('',#635,#626,#100,.T.);
#790=EDGE_CURVE('',#624,#627,#101,.T.);
#791=EDGE_CURVE('',#635,#629,#102,.F.);
#792=EDGE_CURVE('',#624,#634,#103,.F.);
#793=EDGE_CURVE('',#628,#631,#104,.T.);
#794=EDGE_CURVE('',#632,#628,#105,.T.);
#795=EDGE_CURVE('',#625,#633,#106,.T.);
#796=EDGE_CURVE('',#630,#625,#107,.T.);
#797=EDGE_CURVE('',#632,#631,#108,.F.);
#798=EDGE_CURVE('',#630,#633,#109,.F.);
#799=EDGE_CURVE('',#616,#568,#392,.T.);
#800=EDGE_CURVE('',#567,#614,#393,.T.);
#801=EDGE_CURVE('',#615,#566,#394,.T.);
#802=EDGE_CURVE('',#612,#593,#395,.T.);
#803=EDGE_CURVE('',#613,#575,#396,.T.);
#804=EDGE_CURVE('',#582,#622,#397,.F.);
#805=EDGE_CURVE('',#541,#620,#398,.F.);
#806=EDGE_CURVE('',#563,#621,#399,.F.);
#807=EDGE_CURVE('',#548,#623,#400,.F.);
#808=EDGE_CURVE('',#619,#639,#401,.T.);
#809=EDGE_CURVE('',#639,#639,#110,.T.);
#810=EDGE_CURVE('',#639,#638,#402,.T.);
#811=EDGE_CURVE('',#618,#640,#403,.T.);
#812=EDGE_CURVE('',#640,#640,#111,.F.);
#813=EDGE_CURVE('',#641,#641,#112,.F.);
#814=EDGE_CURVE('',#641,#642,#404,.T.);
#815=EDGE_CURVE('',#642,#642,#113,.T.);
#816=EDGE_CURVE('',#642,#637,#405,.T.);
#817=EDGE_CURVE('',#617,#643,#406,.T.);
#818=EDGE_CURVE('',#643,#643,#114,.F.);
#819=EDGE_CURVE('',#644,#644,#115,.F.);
#820=EDGE_CURVE('',#644,#645,#407,.T.);
#821=EDGE_CURVE('',#645,#645,#116,.T.);
#822=EDGE_CURVE('',#645,#636,#408,.T.);
#823=ORIENTED_EDGE('',*,*,#646,.F.);
#824=ORIENTED_EDGE('',*,*,#647,.T.);
#825=ORIENTED_EDGE('',*,*,#648,.F.);
#826=ORIENTED_EDGE('',*,*,#649,.F.);
#827=ORIENTED_EDGE('',*,*,#650,.F.);
#828=ORIENTED_EDGE('',*,*,#651,.T.);
#829=ORIENTED_EDGE('',*,*,#652,.T.);
#830=ORIENTED_EDGE('',*,*,#653,.T.);
#831=ORIENTED_EDGE('',*,*,#654,.F.);
#832=ORIENTED_EDGE('',*,*,#655,.F.);
#833=ORIENTED_EDGE('',*,*,#650,.T.);
#834=ORIENTED_EDGE('',*,*,#656,.F.);
#835=ORIENTED_EDGE('',*,*,#657,.F.);
#836=ORIENTED_EDGE('',*,*,#658,.F.);
#837=ORIENTED_EDGE('',*,*,#659,.T.);
#838=ORIENTED_EDGE('',*,*,#660,.T.);
#839=ORIENTED_EDGE('',*,*,#661,.T.);
#840=ORIENTED_EDGE('',*,*,#662,.F.);
#841=ORIENTED_EDGE('',*,*,#663,.F.);
#842=ORIENTED_EDGE('',*,*,#664,.T.);
#843=ORIENTED_EDGE('',*,*,#665,.F.);
#844=ORIENTED_EDGE('',*,*,#666,.F.);
#845=ORIENTED_EDGE('',*,*,#667,.F.);
#846=ORIENTED_EDGE('',*,*,#658,.T.);
#847=ORIENTED_EDGE('',*,*,#668,.F.);
#848=ORIENTED_EDGE('',*,*,#669,.F.);
#849=ORIENTED_EDGE('',*,*,#670,.F.);
#850=ORIENTED_EDGE('',*,*,#671,.T.);
#851=ORIENTED_EDGE('',*,*,#672,.F.);
#852=ORIENTED_EDGE('',*,*,#673,.T.);
#853=ORIENTED_EDGE('',*,*,#674,.F.);
#854=ORIENTED_EDGE('',*,*,#675,.T.);
#855=ORIENTED_EDGE('',*,*,#676,.F.);
#856=ORIENTED_EDGE('',*,*,#677,.F.);
#857=ORIENTED_EDGE('',*,*,#678,.T.);
#858=ORIENTED_EDGE('',*,*,#679,.F.);
#859=ORIENTED_EDGE('',*,*,#675,.F.);
#860=ORIENTED_EDGE('',*,*,#680,.T.);
#861=ORIENTED_EDGE('',*,*,#665,.T.);
#862=ORIENTED_EDGE('',*,*,#681,.F.);
#863=ORIENTED_EDGE('',*,*,#682,.T.);
#864=ORIENTED_EDGE('',*,*,#683,.T.);
#865=ORIENTED_EDGE('',*,*,#684,.F.);
#866=ORIENTED_EDGE('',*,*,#685,.F.);
#867=ORIENTED_EDGE('',*,*,#686,.F.);
#868=ORIENTED_EDGE('',*,*,#687,.F.);
#869=ORIENTED_EDGE('',*,*,#688,.T.);
#870=ORIENTED_EDGE('',*,*,#652,.F.);
#871=ORIENTED_EDGE('',*,*,#689,.F.);
#872=ORIENTED_EDGE('',*,*,#681,.T.);
#873=ORIENTED_EDGE('',*,*,#690,.T.);
#874=ORIENTED_EDGE('',*,*,#691,.F.);
#875=ORIENTED_EDGE('',*,*,#692,.F.);
#876=ORIENTED_EDGE('',*,*,#693,.T.);
#877=ORIENTED_EDGE('',*,*,#694,.T.);
#878=ORIENTED_EDGE('',*,*,#695,.T.);
#879=ORIENTED_EDGE('',*,*,#696,.T.);
#880=ORIENTED_EDGE('',*,*,#697,.F.);
#881=ORIENTED_EDGE('',*,*,#698,.F.);
#882=ORIENTED_EDGE('',*,*,#699,.T.);
#883=ORIENTED_EDGE('',*,*,#660,.F.);
#884=ORIENTED_EDGE('',*,*,#700,.F.);
#885=ORIENTED_EDGE('',*,*,#692,.T.);
#886=ORIENTED_EDGE('',*,*,#701,.T.);
#887=ORIENTED_EDGE('',*,*,#702,.F.);
#888=ORIENTED_EDGE('',*,*,#703,.T.);
#889=ORIENTED_EDGE('',*,*,#704,.F.);
#890=ORIENTED_EDGE('',*,*,#705,.F.);
#891=ORIENTED_EDGE('',*,*,#706,.T.);
#892=ORIENTED_EDGE('',*,*,#648,.T.);
#893=ORIENTED_EDGE('',*,*,#707,.F.);
#894=ORIENTED_EDGE('',*,*,#705,.T.);
#895=ORIENTED_EDGE('',*,*,#708,.F.);
#896=ORIENTED_EDGE('',*,*,#709,.F.);
#897=ORIENTED_EDGE('',*,*,#710,.F.);
#898=ORIENTED_EDGE('',*,*,#711,.T.);
#899=ORIENTED_EDGE('',*,*,#712,.F.);
#900=ORIENTED_EDGE('',*,*,#713,.T.);
#901=ORIENTED_EDGE('',*,*,#714,.T.);
#902=ORIENTED_EDGE('',*,*,#715,.F.);
#903=ORIENTED_EDGE('',*,*,#716,.T.);
#904=ORIENTED_EDGE('',*,*,#717,.T.);
#905=ORIENTED_EDGE('',*,*,#712,.T.);
#906=ORIENTED_EDGE('',*,*,#718,.F.);
#907=ORIENTED_EDGE('',*,*,#719,.T.);
#908=ORIENTED_EDGE('',*,*,#695,.F.);
#909=ORIENTED_EDGE('',*,*,#720,.T.);
#910=ORIENTED_EDGE('',*,*,#715,.T.);
#911=ORIENTED_EDGE('',*,*,#721,.T.);
#912=ORIENTED_EDGE('',*,*,#722,.F.);
#913=ORIENTED_EDGE('',*,*,#723,.F.);
#914=ORIENTED_EDGE('',*,*,#724,.T.);
#915=ORIENTED_EDGE('',*,*,#725,.F.);
#916=ORIENTED_EDGE('',*,*,#726,.F.);
#917=ORIENTED_EDGE('',*,*,#673,.F.);
#918=ORIENTED_EDGE('',*,*,#727,.T.);
#919=ORIENTED_EDGE('',*,*,#728,.T.);
#920=ORIENTED_EDGE('',*,*,#729,.F.);
#921=ORIENTED_EDGE('',*,*,#730,.F.);
#922=ORIENTED_EDGE('',*,*,#731,.T.);
#923=ORIENTED_EDGE('',*,*,#727,.F.);
#924=ORIENTED_EDGE('',*,*,#732,.T.);
#925=ORIENTED_EDGE('',*,*,#724,.F.);
#926=ORIENTED_EDGE('',*,*,#672,.T.);
#927=ORIENTED_EDGE('',*,*,#733,.T.);
#928=ORIENTED_EDGE('',*,*,#734,.F.);
#929=ORIENTED_EDGE('',*,*,#735,.T.);
#930=ORIENTED_EDGE('',*,*,#736,.F.);
#931=ORIENTED_EDGE('',*,*,#737,.T.);
#932=ORIENTED_EDGE('',*,*,#738,.F.);
#933=ORIENTED_EDGE('',*,*,#739,.T.);
#934=ORIENTED_EDGE('',*,*,#740,.F.);
#935=ORIENTED_EDGE('',*,*,#741,.T.);
#936=ORIENTED_EDGE('',*,*,#710,.T.);
#937=ORIENTED_EDGE('',*,*,#742,.T.);
#938=ORIENTED_EDGE('',*,*,#743,.T.);
#939=ORIENTED_EDGE('',*,*,#722,.T.);
#940=ORIENTED_EDGE('',*,*,#744,.T.);
#941=ORIENTED_EDGE('',*,*,#702,.T.);
#942=ORIENTED_EDGE('',*,*,#745,.T.);
#943=ORIENTED_EDGE('',*,*,#718,.T.);
#944=ORIENTED_EDGE('',*,*,#746,.T.);
#945=ORIENTED_EDGE('',*,*,#729,.T.);
#946=ORIENTED_EDGE('',*,*,#747,.F.);
#947=ORIENTED_EDGE('',*,*,#670,.T.);
#948=ORIENTED_EDGE('',*,*,#726,.T.);
#949=ORIENTED_EDGE('',*,*,#748,.T.);
#950=ORIENTED_EDGE('',*,*,#749,.T.);
#951=ORIENTED_EDGE('',*,*,#750,.T.);
#952=ORIENTED_EDGE('',*,*,#691,.T.);
#953=ORIENTED_EDGE('',*,*,#751,.F.);
#954=ORIENTED_EDGE('',*,*,#752,.T.);
#955=ORIENTED_EDGE('',*,*,#753,.T.);
#956=ORIENTED_EDGE('',*,*,#754,.T.);
#957=ORIENTED_EDGE('',*,*,#755,.F.);
#958=ORIENTED_EDGE('',*,*,#756,.T.);
#959=ORIENTED_EDGE('',*,*,#657,.T.);
#960=ORIENTED_EDGE('',*,*,#757,.T.);
#961=ORIENTED_EDGE('',*,*,#758,.T.);
#962=ORIENTED_EDGE('',*,*,#687,.T.);
#963=ORIENTED_EDGE('',*,*,#759,.T.);
#964=ORIENTED_EDGE('',*,*,#663,.T.);
#965=ORIENTED_EDGE('',*,*,#760,.T.);
#966=ORIENTED_EDGE('',*,*,#677,.T.);
#967=ORIENTED_EDGE('',*,*,#761,.T.);
#968=ORIENTED_EDGE('',*,*,#762,.T.);
#969=ORIENTED_EDGE('',*,*,#763,.T.);
#970=ORIENTED_EDGE('',*,*,#646,.T.);
#971=ORIENTED_EDGE('',*,*,#764,.T.);
#972=ORIENTED_EDGE('',*,*,#709,.T.);
#973=ORIENTED_EDGE('',*,*,#698,.T.);
#974=ORIENTED_EDGE('',*,*,#765,.T.);
#975=ORIENTED_EDGE('',*,*,#669,.T.);
#976=ORIENTED_EDGE('',*,*,#766,.T.);
#977=ORIENTED_EDGE('',*,*,#767,.T.);
#978=ORIENTED_EDGE('',*,*,#740,.T.);
#979=ORIENTED_EDGE('',*,*,#768,.T.);
#980=ORIENTED_EDGE('',*,*,#769,.T.);
#981=ORIENTED_EDGE('',*,*,#770,.T.);
#982=ORIENTED_EDGE('',*,*,#738,.T.);
#983=ORIENTED_EDGE('',*,*,#771,.T.);
#984=ORIENTED_EDGE('',*,*,#772,.T.);
#985=ORIENTED_EDGE('',*,*,#773,.T.);
#986=ORIENTED_EDGE('',*,*,#736,.T.);
#987=ORIENTED_EDGE('',*,*,#774,.T.);
#988=ORIENTED_EDGE('',*,*,#775,.T.);
#989=ORIENTED_EDGE('',*,*,#776,.T.);
#990=ORIENTED_EDGE('',*,*,#734,.T.);
#991=ORIENTED_EDGE('',*,*,#777,.T.);
#992=ORIENTED_EDGE('',*,*,#778,.T.);
#993=ORIENTED_EDGE('',*,*,#779,.T.);
#994=ORIENTED_EDGE('',*,*,#780,.T.);
#995=ORIENTED_EDGE('',*,*,#781,.T.);
#996=ORIENTED_EDGE('',*,*,#782,.T.);
#997=ORIENTED_EDGE('',*,*,#783,.T.);
#998=ORIENTED_EDGE('',*,*,#784,.F.);
#999=ORIENTED_EDGE('',*,*,#785,.F.);
#1000=ORIENTED_EDGE('',*,*,#786,.F.);
#1001=ORIENTED_EDGE('',*,*,#737,.F.);
#1002=ORIENTED_EDGE('',*,*,#776,.F.);
#1003=ORIENTED_EDGE('',*,*,#787,.F.);
#1004=ORIENTED_EDGE('',*,*,#771,.F.);
#1005=ORIENTED_EDGE('',*,*,#788,.F.);
#1006=ORIENTED_EDGE('',*,*,#772,.F.);
#1007=ORIENTED_EDGE('',*,*,#789,.F.);
#1008=ORIENTED_EDGE('',*,*,#782,.F.);
#1009=ORIENTED_EDGE('',*,*,#739,.F.);
#1010=ORIENTED_EDGE('',*,*,#773,.F.);
#1011=ORIENTED_EDGE('',*,*,#790,.F.);
#1012=ORIENTED_EDGE('',*,*,#768,.F.);
#1013=ORIENTED_EDGE('',*,*,#789,.T.);
#1014=ORIENTED_EDGE('',*,*,#787,.T.);
#1015=ORIENTED_EDGE('',*,*,#791,.F.);
#1016=ORIENTED_EDGE('',*,*,#790,.T.);
#1017=ORIENTED_EDGE('',*,*,#788,.T.);
#1018=ORIENTED_EDGE('',*,*,#792,.F.);
#1019=ORIENTED_EDGE('',*,*,#735,.F.);
#1020=ORIENTED_EDGE('',*,*,#779,.F.);
#1021=ORIENTED_EDGE('',*,*,#793,.F.);
#1022=ORIENTED_EDGE('',*,*,#774,.F.);
#1023=ORIENTED_EDGE('',*,*,#791,.T.);
#1024=ORIENTED_EDGE('',*,*,#775,.F.);
#1025=ORIENTED_EDGE('',*,*,#794,.F.);
#1026=ORIENTED_EDGE('',*,*,#783,.F.);
#1027=ORIENTED_EDGE('',*,*,#795,.F.);
#1028=ORIENTED_EDGE('',*,*,#769,.F.);
#1029=ORIENTED_EDGE('',*,*,#792,.T.);
#1030=ORIENTED_EDGE('',*,*,#781,.F.);
#1031=ORIENTED_EDGE('',*,*,#733,.F.);
#1032=ORIENTED_EDGE('',*,*,#770,.F.);
#1033=ORIENTED_EDGE('',*,*,#796,.F.);
#1034=ORIENTED_EDGE('',*,*,#777,.F.);
#1035=ORIENTED_EDGE('',*,*,#794,.T.);
#1036=ORIENTED_EDGE('',*,*,#793,.T.);
#1037=ORIENTED_EDGE('',*,*,#797,.F.);
#1038=ORIENTED_EDGE('',*,*,#796,.T.);
#1039=ORIENTED_EDGE('',*,*,#795,.T.);
#1040=ORIENTED_EDGE('',*,*,#798,.F.);
#1041=ORIENTED_EDGE('',*,*,#797,.T.);
#1042=ORIENTED_EDGE('',*,*,#778,.F.);
#1043=ORIENTED_EDGE('',*,*,#798,.T.);
#1044=ORIENTED_EDGE('',*,*,#780,.F.);
#1045=ORIENTED_EDGE('',*,*,#799,.T.);
#1046=ORIENTED_EDGE('',*,*,#684,.T.);
#1047=ORIENTED_EDGE('',*,*,#800,.T.);
#1048=ORIENTED_EDGE('',*,*,#752,.F.);
#1049=ORIENTED_EDGE('',*,*,#801,.F.);
#1050=ORIENTED_EDGE('',*,*,#749,.F.);
#1051=ORIENTED_EDGE('',*,*,#800,.F.);
#1052=ORIENTED_EDGE('',*,*,#683,.F.);
#1053=ORIENTED_EDGE('',*,*,#802,.F.);
#1054=ORIENTED_EDGE('',*,*,#742,.F.);
#1055=ORIENTED_EDGE('',*,*,#713,.F.);
#1056=ORIENTED_EDGE('',*,*,#717,.F.);
#1057=ORIENTED_EDGE('',*,*,#803,.F.);
#1058=ORIENTED_EDGE('',*,*,#746,.F.);
#1059=ORIENTED_EDGE('',*,*,#720,.F.);
#1060=ORIENTED_EDGE('',*,*,#694,.F.);
#1061=ORIENTED_EDGE('',*,*,#704,.T.);
#1062=ORIENTED_EDGE('',*,*,#804,.T.);
#1063=ORIENTED_EDGE('',*,*,#762,.F.);
#1064=ORIENTED_EDGE('',*,*,#708,.T.);
#1065=ORIENTED_EDGE('',*,*,#654,.T.);
#1066=ORIENTED_EDGE('',*,*,#805,.T.);
#1067=ORIENTED_EDGE('',*,*,#757,.F.);
#1068=ORIENTED_EDGE('',*,*,#656,.T.);
#1069=ORIENTED_EDGE('',*,*,#679,.T.);
#1070=ORIENTED_EDGE('',*,*,#806,.T.);
#1071=ORIENTED_EDGE('',*,*,#761,.F.);
#1072=ORIENTED_EDGE('',*,*,#676,.T.);
#1073=ORIENTED_EDGE('',*,*,#662,.T.);
#1074=ORIENTED_EDGE('',*,*,#807,.T.);
#1075=ORIENTED_EDGE('',*,*,#766,.F.);
#1076=ORIENTED_EDGE('',*,*,#668,.T.);
#1077=ORIENTED_EDGE('',*,*,#690,.F.);
#1078=ORIENTED_EDGE('',*,*,#685,.T.);
#1079=ORIENTED_EDGE('',*,*,#799,.F.);
#1080=ORIENTED_EDGE('',*,*,#751,.T.);
#1081=ORIENTED_EDGE('',*,*,#732,.F.);
#1082=ORIENTED_EDGE('',*,*,#730,.T.);
#1083=ORIENTED_EDGE('',*,*,#748,.F.);
#1084=ORIENTED_EDGE('',*,*,#725,.T.);
#1085=ORIENTED_EDGE('',*,*,#716,.F.);
#1086=ORIENTED_EDGE('',*,*,#723,.T.);
#1087=ORIENTED_EDGE('',*,*,#743,.F.);
#1088=ORIENTED_EDGE('',*,*,#802,.T.);
#1089=ORIENTED_EDGE('',*,*,#701,.F.);
#1090=ORIENTED_EDGE('',*,*,#696,.F.);
#1091=ORIENTED_EDGE('',*,*,#719,.F.);
#1092=ORIENTED_EDGE('',*,*,#745,.F.);
#1093=ORIENTED_EDGE('',*,*,#706,.F.);
#1094=ORIENTED_EDGE('',*,*,#707,.T.);
#1095=ORIENTED_EDGE('',*,*,#764,.F.);
#1096=ORIENTED_EDGE('',*,*,#649,.T.);
#1097=ORIENTED_EDGE('',*,*,#721,.F.);
#1098=ORIENTED_EDGE('',*,*,#714,.F.);
#1099=ORIENTED_EDGE('',*,*,#711,.F.);
#1100=ORIENTED_EDGE('',*,*,#741,.F.);
#1101=ORIENTED_EDGE('',*,*,#693,.F.);
#1102=ORIENTED_EDGE('',*,*,#700,.T.);
#1103=ORIENTED_EDGE('',*,*,#744,.F.);
#1104=ORIENTED_EDGE('',*,*,#803,.T.);
#1105=ORIENTED_EDGE('',*,*,#807,.F.);
#1106=ORIENTED_EDGE('',*,*,#661,.F.);
#1107=ORIENTED_EDGE('',*,*,#699,.F.);
#1108=ORIENTED_EDGE('',*,*,#767,.F.);
#1109=ORIENTED_EDGE('',*,*,#682,.F.);
#1110=ORIENTED_EDGE('',*,*,#689,.T.);
#1111=ORIENTED_EDGE('',*,*,#750,.F.);
#1112=ORIENTED_EDGE('',*,*,#801,.T.);
#1113=ORIENTED_EDGE('',*,*,#805,.F.);
#1114=ORIENTED_EDGE('',*,*,#653,.F.);
#1115=ORIENTED_EDGE('',*,*,#688,.F.);
#1116=ORIENTED_EDGE('',*,*,#758,.F.);
#1117=ORIENTED_EDGE('',*,*,#728,.F.);
#1118=ORIENTED_EDGE('',*,*,#731,.F.);
#1119=ORIENTED_EDGE('',*,*,#671,.F.);
#1120=ORIENTED_EDGE('',*,*,#747,.T.);
#1121=ORIENTED_EDGE('',*,*,#680,.F.);
#1122=ORIENTED_EDGE('',*,*,#674,.T.);
#1123=ORIENTED_EDGE('',*,*,#760,.F.);
#1124=ORIENTED_EDGE('',*,*,#666,.T.);
#1125=ORIENTED_EDGE('',*,*,#659,.F.);
#1126=ORIENTED_EDGE('',*,*,#667,.T.);
#1127=ORIENTED_EDGE('',*,*,#765,.F.);
#1128=ORIENTED_EDGE('',*,*,#697,.T.);
#1129=ORIENTED_EDGE('',*,*,#806,.F.);
#1130=ORIENTED_EDGE('',*,*,#678,.F.);
#1131=ORIENTED_EDGE('',*,*,#664,.F.);
#1132=ORIENTED_EDGE('',*,*,#759,.F.);
#1133=ORIENTED_EDGE('',*,*,#651,.F.);
#1134=ORIENTED_EDGE('',*,*,#655,.T.);
#1135=ORIENTED_EDGE('',*,*,#756,.F.);
#1136=ORIENTED_EDGE('',*,*,#686,.T.);
#1137=ORIENTED_EDGE('',*,*,#804,.F.);
#1138=ORIENTED_EDGE('',*,*,#703,.F.);
#1139=ORIENTED_EDGE('',*,*,#647,.F.);
#1140=ORIENTED_EDGE('',*,*,#763,.F.);
#1141=ORIENTED_EDGE('',*,*,#755,.T.);
#1142=ORIENTED_EDGE('',*,*,#808,.T.);
#1143=ORIENTED_EDGE('',*,*,#809,.T.);
#1144=ORIENTED_EDGE('',*,*,#808,.F.);
#1145=ORIENTED_EDGE('',*,*,#809,.F.);
#1146=ORIENTED_EDGE('',*,*,#810,.T.);
#1147=ORIENTED_EDGE('',*,*,#786,.T.);
#1148=ORIENTED_EDGE('',*,*,#810,.F.);
#1149=ORIENTED_EDGE('',*,*,#754,.F.);
#1150=ORIENTED_EDGE('',*,*,#811,.T.);
#1151=ORIENTED_EDGE('',*,*,#812,.T.);
#1152=ORIENTED_EDGE('',*,*,#811,.F.);
#1153=ORIENTED_EDGE('',*,*,#813,.T.);
#1154=ORIENTED_EDGE('',*,*,#812,.F.);
#1155=ORIENTED_EDGE('',*,*,#813,.F.);
#1156=ORIENTED_EDGE('',*,*,#814,.T.);
#1157=ORIENTED_EDGE('',*,*,#815,.T.);
#1158=ORIENTED_EDGE('',*,*,#814,.F.);
#1159=ORIENTED_EDGE('',*,*,#815,.F.);
#1160=ORIENTED_EDGE('',*,*,#816,.T.);
#1161=ORIENTED_EDGE('',*,*,#785,.T.);
#1162=ORIENTED_EDGE('',*,*,#816,.F.);
#1163=ORIENTED_EDGE('',*,*,#753,.F.);
#1164=ORIENTED_EDGE('',*,*,#817,.T.);
#1165=ORIENTED_EDGE('',*,*,#818,.T.);
#1166=ORIENTED_EDGE('',*,*,#817,.F.);
#1167=ORIENTED_EDGE('',*,*,#819,.T.);
#1168=ORIENTED_EDGE('',*,*,#818,.F.);
#1169=ORIENTED_EDGE('',*,*,#819,.F.);
#1170=ORIENTED_EDGE('',*,*,#820,.T.);
#1171=ORIENTED_EDGE('',*,*,#821,.T.);
#1172=ORIENTED_EDGE('',*,*,#820,.F.);
#1173=ORIENTED_EDGE('',*,*,#821,.F.);
#1174=ORIENTED_EDGE('',*,*,#822,.T.);
#1175=ORIENTED_EDGE('',*,*,#784,.T.);
#1176=ORIENTED_EDGE('',*,*,#822,.F.);
#1177=PLANE('',#1311);
#1178=PLANE('',#1312);
#1179=PLANE('',#1317);
#1180=PLANE('',#1320);
#1181=PLANE('',#1323);
#1182=PLANE('',#1327);
#1183=PLANE('',#1329);
#1184=PLANE('',#1331);
#1185=PLANE('',#1334);
#1186=PLANE('',#1336);
#1187=PLANE('',#1339);
#1188=PLANE('',#1344);
#1189=PLANE('',#1345);
#1190=PLANE('',#1347);
#1191=PLANE('',#1350);
#1192=PLANE('',#1354);
#1193=PLANE('',#1355);
#1194=PLANE('',#1367);
#1195=PLANE('',#1368);
#1196=PLANE('',#1369);
#1197=PLANE('',#1370);
#1198=PLANE('',#1371);
#1199=PLANE('',#1399);
#1200=PLANE('',#1400);
#1201=PLANE('',#1401);
#1202=PLANE('',#1402);
#1203=PLANE('',#1407);
#1204=PLANE('',#1408);
#1205=PLANE('',#1409);
#1206=PLANE('',#1410);
#1207=PLANE('',#1411);
#1208=PLANE('',#1412);
#1209=PLANE('',#1413);
#1210=PLANE('',#1414);
#1211=PLANE('',#1415);
#1212=PLANE('',#1416);
#1213=PLANE('',#1417);
#1214=PLANE('',#1418);
#1215=PLANE('',#1419);
#1216=PLANE('',#1420);
#1217=PLANE('',#1421);
#1218=PLANE('',#1422);
#1219=PLANE('',#1428);
#1220=PLANE('',#1435);
#1221=ADVANCED_FACE('',(#117),#1177,.T.);
#1222=ADVANCED_FACE('',(#118),#1178,.T.);
#1223=ADVANCED_FACE('',(#119),#39,.T.);
#1224=ADVANCED_FACE('',(#120),#1179,.T.);
#1225=ADVANCED_FACE('',(#121),#1180,.T.);
#1226=ADVANCED_FACE('',(#122),#40,.T.);
#1227=ADVANCED_FACE('',(#123),#1181,.T.);
#1228=ADVANCED_FACE('',(#124),#41,.T.);
#1229=ADVANCED_FACE('',(#125),#1182,.T.);
#1230=ADVANCED_FACE('',(#126),#1183,.T.);
#1231=ADVANCED_FACE('',(#127),#1184,.T.);
#1232=ADVANCED_FACE('',(#128),#42,.T.);
#1233=ADVANCED_FACE('',(#129),#1185,.T.);
#1234=ADVANCED_FACE('',(#130),#1186,.T.);
#1235=ADVANCED_FACE('',(#131),#43,.T.);
#1236=ADVANCED_FACE('',(#132),#1187,.T.);
#1237=ADVANCED_FACE('',(#133),#44,.T.);
#1238=ADVANCED_FACE('',(#134),#1188,.T.);
#1239=ADVANCED_FACE('',(#135),#1189,.T.);
#1240=ADVANCED_FACE('',(#136),#1190,.T.);
#1241=ADVANCED_FACE('',(#137),#45,.T.);
#1242=ADVANCED_FACE('',(#138),#1191,.T.);
#1243=ADVANCED_FACE('',(#139),#46,.T.);
#1244=ADVANCED_FACE('',(#140),#1192,.T.);
#1245=ADVANCED_FACE('',(#141,#23,#24,#25,#26,#27,#28,#29,#30,#31,#32,#33),
#1193,.T.);
#1246=ADVANCED_FACE('',(#142),#1194,.F.);
#1247=ADVANCED_FACE('',(#143),#1195,.F.);
#1248=ADVANCED_FACE('',(#144),#1196,.F.);
#1249=ADVANCED_FACE('',(#145),#1197,.F.);
#1250=ADVANCED_FACE('',(#146,#34,#35,#36),#1198,.F.);
#1251=ADVANCED_FACE('',(#147),#47,.T.);
#1252=ADVANCED_FACE('',(#148),#48,.T.);
#1253=ADVANCED_FACE('',(#149),#49,.T.);
#1254=ADVANCED_FACE('',(#150),#19,.T.);
#1255=ADVANCED_FACE('',(#151),#20,.T.);
#1256=ADVANCED_FACE('',(#152),#50,.T.);
#1257=ADVANCED_FACE('',(#153),#51,.T.);
#1258=ADVANCED_FACE('',(#154),#52,.T.);
#1259=ADVANCED_FACE('',(#155),#53,.T.);
#1260=ADVANCED_FACE('',(#156),#21,.T.);
#1261=ADVANCED_FACE('',(#157),#22,.T.);
#1262=ADVANCED_FACE('',(#158),#54,.T.);
#1263=ADVANCED_FACE('',(#159),#1199,.T.);
#1264=ADVANCED_FACE('',(#160),#1200,.T.);
#1265=ADVANCED_FACE('',(#161),#1201,.T.);
#1266=ADVANCED_FACE('',(#162),#1202,.T.);
#1267=ADVANCED_FACE('',(#163),#55,.T.);
#1268=ADVANCED_FACE('',(#164),#56,.T.);
#1269=ADVANCED_FACE('',(#165),#57,.T.);
#1270=ADVANCED_FACE('',(#166),#58,.T.);
#1271=ADVANCED_FACE('',(#167),#1203,.T.);
#1272=ADVANCED_FACE('',(#168),#1204,.F.);
#1273=ADVANCED_FACE('',(#169),#1205,.F.);
#1274=ADVANCED_FACE('',(#170),#1206,.T.);
#1275=ADVANCED_FACE('',(#171),#1207,.F.);
#1276=ADVANCED_FACE('',(#172),#1208,.T.);
#1277=ADVANCED_FACE('',(#173),#1209,.F.);
#1278=ADVANCED_FACE('',(#174),#1210,.T.);
#1279=ADVANCED_FACE('',(#175),#1211,.F.);
#1280=ADVANCED_FACE('',(#176),#1212,.T.);
#1281=ADVANCED_FACE('',(#177),#1213,.T.);
#1282=ADVANCED_FACE('',(#178),#1214,.F.);
#1283=ADVANCED_FACE('',(#179),#1215,.F.);
#1284=ADVANCED_FACE('',(#180),#1216,.T.);
#1285=ADVANCED_FACE('',(#181),#1217,.F.);
#1286=ADVANCED_FACE('',(#182),#1218,.T.);
#1287=ADVANCED_FACE('',(#183),#59,.F.);
#1288=ADVANCED_FACE('',(#184),#14,.F.);
#1289=ADVANCED_FACE('',(#185),#60,.F.);
#1290=ADVANCED_FACE('',(#186,#37),#1219,.F.);
#1291=ADVANCED_FACE('',(#187),#61,.F.);
#1292=ADVANCED_FACE('',(#188),#15,.F.);
#1293=ADVANCED_FACE('',(#189),#62,.F.);
#1294=ADVANCED_FACE('',(#190,#38),#1220,.F.);
#1295=ADVANCED_FACE('',(#191),#63,.F.);
#1296=ADVANCED_FACE('',(#192),#16,.F.);
#1297=CLOSED_SHELL('',(#1221,#1222,#1223,#1224,#1225,#1226,#1227,#1228,
#1229,#1230,#1231,#1232,#1233,#1234,#1235,#1236,#1237,#1238,#1239,#1240,
#1241,#1242,#1243,#1244,#1245,#1246,#1247,#1248,#1249,#1250,#1251,#1252,
#1253,#1254,#1255,#1256,#1257,#1258,#1259,#1260,#1261,#1262,#1263,#1264,
#1265,#1266,#1267,#1268,#1269,#1270,#1271,#1272,#1273,#1274,#1275,#1276,
#1277,#1278,#1279,#1280,#1281,#1282,#1283,#1284,#1285,#1286,#1287,#1288,
#1289,#1290,#1291,#1292,#1293,#1294,#1295,#1296));
#1298=DERIVED_UNIT_ELEMENT(#1300,1.);
#1299=DERIVED_UNIT_ELEMENT(#2196,-3.);
#1300=(
MASS_UNIT()
NAMED_UNIT(*)
SI_UNIT(.KILO.,.GRAM.)
);
#1301=DERIVED_UNIT((#1298,#1299));
#1302=MEASURE_REPRESENTATION_ITEM('density measure',
POSITIVE_RATIO_MEASURE(2700.),#1301);
#1303=PROPERTY_DEFINITION_REPRESENTATION(#1308,#1305);
#1304=PROPERTY_DEFINITION_REPRESENTATION(#1309,#1306);
#1305=REPRESENTATION('material name',(#1307),#2193);
#1306=REPRESENTATION('density',(#1302),#2193);
#1307=DESCRIPTIVE_REPRESENTATION_ITEM('SOLIDWORKS Materials|6061 Alloy',
'SOLIDWORKS Materials|6061 Alloy');
#1308=PROPERTY_DEFINITION('material property','material name',#2203);
#1309=PROPERTY_DEFINITION('material property','density of part',#2203);
#1310=AXIS2_PLACEMENT_3D('',#1824,#1440,#1441);
#1311=AXIS2_PLACEMENT_3D('',#1825,#1442,#1443);
#1312=AXIS2_PLACEMENT_3D('',#1834,#1448,#1449);
#1313=AXIS2_PLACEMENT_3D('',#1837,#1450,#1451);
#1314=AXIS2_PLACEMENT_3D('',#1844,#1455,#1456);
#1315=AXIS2_PLACEMENT_3D('',#1845,#1457,#1458);
#1316=AXIS2_PLACEMENT_3D('',#1850,#1461,#1462);
#1317=AXIS2_PLACEMENT_3D('',#1851,#1463,#1464);
#1318=AXIS2_PLACEMENT_3D('',#1854,#1465,#1466);
#1319=AXIS2_PLACEMENT_3D('',#1861,#1470,#1471);
#1320=AXIS2_PLACEMENT_3D('',#1862,#1472,#1473);
#1321=AXIS2_PLACEMENT_3D('',#1871,#1478,#1479);
#1322=AXIS2_PLACEMENT_3D('',#1876,#1482,#1483);
#1323=AXIS2_PLACEMENT_3D('',#1877,#1484,#1485);
#1324=AXIS2_PLACEMENT_3D('',#1886,#1490,#1491);
#1325=AXIS2_PLACEMENT_3D('',#1891,#1493,#1494);
#1326=AXIS2_PLACEMENT_3D('',#1894,#1496,#1497);
#1327=AXIS2_PLACEMENT_3D('',#1895,#1498,#1499);
#1328=AXIS2_PLACEMENT_3D('',#1898,#1501,#1502);
#1329=AXIS2_PLACEMENT_3D('',#1900,#1504,#1505);
#1330=AXIS2_PLACEMENT_3D('',#1903,#1506,#1507);
#1331=AXIS2_PLACEMENT_3D('',#1911,#1512,#1513);
#1332=AXIS2_PLACEMENT_3D('',#1917,#1517,#1518);
#1333=AXIS2_PLACEMENT_3D('',#1922,#1521,#1522);
#1334=AXIS2_PLACEMENT_3D('',#1923,#1523,#1524);
#1335=AXIS2_PLACEMENT_3D('',#1926,#1525,#1526);
#1336=AXIS2_PLACEMENT_3D('',#1934,#1531,#1532);
#1337=AXIS2_PLACEMENT_3D('',#1940,#1536,#1537);
#1338=AXIS2_PLACEMENT_3D('',#1945,#1540,#1541);
#1339=AXIS2_PLACEMENT_3D('',#1946,#1542,#1543);
#1340=AXIS2_PLACEMENT_3D('',#1950,#1545,#1546);
#1341=AXIS2_PLACEMENT_3D('',#1952,#1547,#1548);
#1342=AXIS2_PLACEMENT_3D('',#1954,#1550,#1551);
#1343=AXIS2_PLACEMENT_3D('',#1959,#1554,#1555);
#1344=AXIS2_PLACEMENT_3D('',#1960,#1556,#1557);
#1345=AXIS2_PLACEMENT_3D('',#1969,#1562,#1563);
#1346=AXIS2_PLACEMENT_3D('',#1973,#1565,#1566);
#1347=AXIS2_PLACEMENT_3D('',#1977,#1569,#1570);
#1348=AXIS2_PLACEMENT_3D('',#1983,#1574,#1575);
#1349=AXIS2_PLACEMENT_3D('',#1987,#1577,#1578);
#1350=AXIS2_PLACEMENT_3D('',#1989,#1580,#1581);
#1351=AXIS2_PLACEMENT_3D('',#1995,#1585,#1586);
#1352=AXIS2_PLACEMENT_3D('',#1998,#1587,#1588);
#1353=AXIS2_PLACEMENT_3D('',#2002,#1590,#1591);
#1354=AXIS2_PLACEMENT_3D('',#2004,#1593,#1594);
#1355=AXIS2_PLACEMENT_3D('',#2007,#1597,#1598);
#1356=AXIS2_PLACEMENT_3D('',#2010,#1599,#1600);
#1357=AXIS2_PLACEMENT_3D('',#2014,#1602,#1603);
#1358=AXIS2_PLACEMENT_3D('',#2018,#1605,#1606);
#1359=AXIS2_PLACEMENT_3D('',#2022,#1608,#1609);
#1360=AXIS2_PLACEMENT_3D('',#2042,#1623,#1624);
#1361=AXIS2_PLACEMENT_3D('',#2044,#1625,#1626);
#1362=AXIS2_PLACEMENT_3D('',#2046,#1627,#1628);
#1363=AXIS2_PLACEMENT_3D('',#2049,#1630,#1631);
#1364=AXIS2_PLACEMENT_3D('',#2054,#1635,#1636);
#1365=AXIS2_PLACEMENT_3D('',#2056,#1637,#1638);
#1366=AXIS2_PLACEMENT_3D('',#2061,#1642,#1643);
#1367=AXIS2_PLACEMENT_3D('',#2063,#1645,#1646);
#1368=AXIS2_PLACEMENT_3D('',#2069,#1650,#1651);
#1369=AXIS2_PLACEMENT_3D('',#2075,#1655,#1656);
#1370=AXIS2_PLACEMENT_3D('',#2081,#1660,#1661);
#1371=AXIS2_PLACEMENT_3D('',#2087,#1665,#1666);
#1372=AXIS2_PLACEMENT_3D('',#2097,#1671,#1672);
#1373=AXIS2_PLACEMENT_3D('',#2099,#1673,#1674);
#1374=AXIS2_PLACEMENT_3D('',#2101,#1675,#1676);
#1375=AXIS2_PLACEMENT_3D('',#2102,#1677,#1678);
#1376=AXIS2_PLACEMENT_3D('',#2103,#1679,#1680);
#1377=AXIS2_PLACEMENT_3D('',#2104,#1681,#1682);
#1378=AXIS2_PLACEMENT_3D('',#2105,#1683,#1684);
#1379=AXIS2_PLACEMENT_3D('',#2106,#1685,#1686);
#1380=AXIS2_PLACEMENT_3D('',#2107,#1687,#1688);
#1381=AXIS2_PLACEMENT_3D('',#2108,#1689,#1690);
#1382=AXIS2_PLACEMENT_3D('',#2109,#1691,#1692);
#1383=AXIS2_PLACEMENT_3D('',#2110,#1693,#1694);
#1384=AXIS2_PLACEMENT_3D('',#2111,#1695,#1696);
#1385=AXIS2_PLACEMENT_3D('',#2112,#1697,#1698);
#1386=AXIS2_PLACEMENT_3D('',#2113,#1699,#1700);
#1387=AXIS2_PLACEMENT_3D('',#2114,#1701,#1702);
#1388=AXIS2_PLACEMENT_3D('',#2115,#1703,#1704);
#1389=AXIS2_PLACEMENT_3D('',#2116,#1705,#1706);
#1390=AXIS2_PLACEMENT_3D('',#2117,#1707,#1708);
#1391=AXIS2_PLACEMENT_3D('',#2118,#1709,#1710);
#1392=AXIS2_PLACEMENT_3D('',#2119,#1711,#1712);
#1393=AXIS2_PLACEMENT_3D('',#2120,#1713,#1714);
#1394=AXIS2_PLACEMENT_3D('',#2121,#1715,#1716);
#1395=AXIS2_PLACEMENT_3D('',#2122,#1717,#1718);
#1396=AXIS2_PLACEMENT_3D('',#2123,#1719,#1720);
#1397=AXIS2_PLACEMENT_3D('',#2124,#1721,#1722);
#1398=AXIS2_PLACEMENT_3D('',#2125,#1723,#1724);
#1399=AXIS2_PLACEMENT_3D('',#2126,#1725,#1726);
#1400=AXIS2_PLACEMENT_3D('',#2129,#1729,#1730);
#1401=AXIS2_PLACEMENT_3D('',#2131,#1732,#1733);
#1402=AXIS2_PLACEMENT_3D('',#2133,#1735,#1736);
#1403=AXIS2_PLACEMENT_3D('',#2135,#1738,#1739);
#1404=AXIS2_PLACEMENT_3D('',#2137,#1741,#1742);
#1405=AXIS2_PLACEMENT_3D('',#2139,#1744,#1745);
#1406=AXIS2_PLACEMENT_3D('',#2141,#1747,#1748);
#1407=AXIS2_PLACEMENT_3D('',#2143,#1750,#1751);
#1408=AXIS2_PLACEMENT_3D('',#2144,#1752,#1753);
#1409=AXIS2_PLACEMENT_3D('',#2145,#1754,#1755);
#1410=AXIS2_PLACEMENT_3D('',#2146,#1756,#1757);
#1411=AXIS2_PLACEMENT_3D('',#2147,#1758,#1759);
#1412=AXIS2_PLACEMENT_3D('',#2148,#1760,#1761);
#1413=AXIS2_PLACEMENT_3D('',#2149,#1762,#1763);
#1414=AXIS2_PLACEMENT_3D('',#2150,#1764,#1765);
#1415=AXIS2_PLACEMENT_3D('',#2151,#1766,#1767);
#1416=AXIS2_PLACEMENT_3D('',#2152,#1768,#1769);
#1417=AXIS2_PLACEMENT_3D('',#2153,#1770,#1771);
#1418=AXIS2_PLACEMENT_3D('',#2154,#1772,#1773);
#1419=AXIS2_PLACEMENT_3D('',#2155,#1774,#1775);
#1420=AXIS2_PLACEMENT_3D('',#2156,#1776,#1777);
#1421=AXIS2_PLACEMENT_3D('',#2157,#1778,#1779);
#1422=AXIS2_PLACEMENT_3D('',#2158,#1780,#1781);
#1423=AXIS2_PLACEMENT_3D('',#2159,#1782,#1783);
#1424=AXIS2_PLACEMENT_3D('',#2162,#1785,#1786);
#1425=AXIS2_PLACEMENT_3D('',#2163,#1787,#1788);
#1426=AXIS2_PLACEMENT_3D('',#2165,#1790,#1791);
#1427=AXIS2_PLACEMENT_3D('',#2168,#1793,#1794);
#1428=AXIS2_PLACEMENT_3D('',#2169,#1795,#1796);
#1429=AXIS2_PLACEMENT_3D('',#2171,#1797,#1798);
#1430=AXIS2_PLACEMENT_3D('',#2172,#1799,#1800);
#1431=AXIS2_PLACEMENT_3D('',#2175,#1802,#1803);
#1432=AXIS2_PLACEMENT_3D('',#2176,#1804,#1805);
#1433=AXIS2_PLACEMENT_3D('',#2178,#1807,#1808);
#1434=AXIS2_PLACEMENT_3D('',#2181,#1810,#1811);
#1435=AXIS2_PLACEMENT_3D('',#2182,#1812,#1813);
#1436=AXIS2_PLACEMENT_3D('',#2184,#1814,#1815);
#1437=AXIS2_PLACEMENT_3D('',#2185,#1816,#1817);
#1438=AXIS2_PLACEMENT_3D('',#2188,#1819,#1820);
#1439=AXIS2_PLACEMENT_3D('',#2189,#1821,#1822);
#1440=DIRECTION('axis',(0.,0.,1.));
#1441=DIRECTION('refdir',(1.,0.,0.));
#1442=DIRECTION('center_axis',(0.,-1.,0.));
#1443=DIRECTION('ref_axis',(0.,0.,-1.));
#1444=DIRECTION('',(-1.,0.,0.));
#1445=DIRECTION('',(0.,0.,1.));
#1446=DIRECTION('',(1.,0.,0.));
#1447=DIRECTION('',(0.,0.,1.));
#1448=DIRECTION('center_axis',(0.,0.,-1.));
#1449=DIRECTION('ref_axis',(-1.,0.,0.));
#1450=DIRECTION('center_axis',(0.,0.,-1.));
#1451=DIRECTION('ref_axis',(-1.,0.,0.));
#1452=DIRECTION('',(3.28953390862242E-15,1.,0.));
#1453=DIRECTION('',(1.,0.,0.));
#1454=DIRECTION('',(7.10252806463888E-15,-1.,0.));
#1455=DIRECTION('center_axis',(0.,0.,-1.));
#1456=DIRECTION('ref_axis',(-1.,0.,0.));
#1457=DIRECTION('center_axis',(0.,0.,1.));
#1458=DIRECTION('ref_axis',(1.,0.,0.));
#1459=DIRECTION('',(0.,0.,1.));
#1460=DIRECTION('',(0.,0.,1.));
#1461=DIRECTION('center_axis',(0.,0.,-1.));
#1462=DIRECTION('ref_axis',(1.,0.,0.));
#1463=DIRECTION('center_axis',(0.,0.,-1.));
#1464=DIRECTION('ref_axis',(-1.,0.,0.));
#1465=DIRECTION('center_axis',(0.,0.,-1.));
#1466=DIRECTION('ref_axis',(-1.,0.,0.));
#1467=DIRECTION('',(2.46715043146681E-15,-1.,0.));
#1468=DIRECTION('',(-1.,0.,0.));
#1469=DIRECTION('',(-2.20178370003806E-14,1.,0.));
#1470=DIRECTION('center_axis',(0.,0.,-1.));
#1471=DIRECTION('ref_axis',(-1.,0.,0.));
#1472=DIRECTION('center_axis',(0.,1.,0.));
#1473=DIRECTION('ref_axis',(0.,0.,1.));
#1474=DIRECTION('',(1.,0.,0.));
#1475=DIRECTION('',(0.,0.,1.));
#1476=DIRECTION('',(-1.,0.,0.));
#1477=DIRECTION('',(0.,0.,1.));
#1478=DIRECTION('center_axis',(0.,0.,1.));
#1479=DIRECTION('ref_axis',(1.,0.,0.));
#1480=DIRECTION('',(0.,0.,1.));
#1481=DIRECTION('',(0.,0.,1.));
#1482=DIRECTION('center_axis',(0.,0.,-1.));
#1483=DIRECTION('ref_axis',(1.,0.,0.));
#1484=DIRECTION('center_axis',(0.,1.,0.));
#1485=DIRECTION('ref_axis',(0.,0.,1.));
#1486=DIRECTION('',(1.,0.,0.));
#1487=DIRECTION('',(0.,0.,1.));
#1488=DIRECTION('',(-1.,0.,0.));
#1489=DIRECTION('',(0.,0.,-1.));
#1490=DIRECTION('center_axis',(0.,0.,1.));
#1491=DIRECTION('ref_axis',(1.,0.,0.));
#1492=DIRECTION('',(0.,0.,1.));
#1493=DIRECTION('center_axis',(0.,0.,-1.));
#1494=DIRECTION('ref_axis',(-1.,0.,0.));
#1495=DIRECTION('',(0.,0.,1.));
#1496=DIRECTION('center_axis',(0.,0.,-1.));
#1497=DIRECTION('ref_axis',(1.,0.,0.));
#1498=DIRECTION('center_axis',(0.,0.,-1.));
#1499=DIRECTION('ref_axis',(-1.,0.,0.));
#1500=DIRECTION('',(-2.46715043146681E-15,1.,0.));
#1501=DIRECTION('center_axis',(0.,0.,-1.));
#1502=DIRECTION('ref_axis',(-1.,0.,0.));
#1503=DIRECTION('',(2.16627105971485E-14,-1.,0.));
#1504=DIRECTION('center_axis',(0.,0.,-1.));
#1505=DIRECTION('ref_axis',(-1.,0.,0.));
#1506=DIRECTION('center_axis',(0.,0.,-1.));
#1507=DIRECTION('ref_axis',(-1.,0.,0.));
#1508=DIRECTION('',(-7.10252806463887E-15,1.,0.));
#1509=DIRECTION('',(1.,0.,0.));
#1510=DIRECTION('',(0.,1.,0.));
#1511=DIRECTION('',(1.,-2.66344802423957E-16,0.));
#1512=DIRECTION('center_axis',(0.,-1.,0.));
#1513=DIRECTION('ref_axis',(0.,0.,-1.));
#1514=DIRECTION('',(0.,0.,1.));
#1515=DIRECTION('',(-1.,0.,0.));
#1516=DIRECTION('',(0.,0.,1.));
#1517=DIRECTION('center_axis',(0.,0.,1.));
#1518=DIRECTION('ref_axis',(1.,0.,0.));
#1519=DIRECTION('',(0.,0.,1.));
#1520=DIRECTION('',(0.,0.,1.));
#1521=DIRECTION('center_axis',(0.,0.,-1.));
#1522=DIRECTION('ref_axis',(1.,0.,0.));
#1523=DIRECTION('center_axis',(0.,0.,-1.));
#1524=DIRECTION('ref_axis',(-1.,0.,0.));
#1525=DIRECTION('center_axis',(0.,0.,-1.));
#1526=DIRECTION('ref_axis',(-1.,0.,0.));
#1527=DIRECTION('',(2.13075841939165E-14,-1.,0.));
#1528=DIRECTION('',(-1.,0.,0.));
#1529=DIRECTION('',(0.,1.,0.));
#1530=DIRECTION('',(1.,-1.82002281656371E-15,0.));
#1531=DIRECTION('center_axis',(0.,1.,0.));
#1532=DIRECTION('ref_axis',(0.,0.,1.));
#1533=DIRECTION('',(0.,0.,1.));
#1534=DIRECTION('',(1.,0.,0.));
#1535=DIRECTION('',(0.,0.,1.));
#1536=DIRECTION('center_axis',(0.,0.,1.));
#1537=DIRECTION('ref_axis',(1.,0.,0.));
#1538=DIRECTION('',(0.,0.,1.));
#1539=DIRECTION('',(0.,0.,1.));
#1540=DIRECTION('center_axis',(0.,0.,-1.));
#1541=DIRECTION('ref_axis',(1.,0.,0.));
#1542=DIRECTION('center_axis',(0.,0.,-1.));
#1543=DIRECTION('ref_axis',(-1.,0.,0.));
#1544=DIRECTION('',(-3.23079223168273E-15,-1.,0.));
#1545=DIRECTION('center_axis',(0.,0.,-1.));
#1546=DIRECTION('ref_axis',(-1.,0.,0.));
#1547=DIRECTION('center_axis',(0.,0.,-1.));
#1548=DIRECTION('ref_axis',(-1.,0.,0.));
#1549=DIRECTION('',(-7.10252806463886E-15,1.,0.));
#1550=DIRECTION('center_axis',(0.,0.,1.));
#1551=DIRECTION('ref_axis',(1.,0.,0.));
#1552=DIRECTION('',(0.,0.,1.));
#1553=DIRECTION('',(0.,0.,1.));
#1554=DIRECTION('center_axis',(0.,0.,-1.));
#1555=DIRECTION('ref_axis',(1.,0.,0.));
#1556=DIRECTION('center_axis',(0.,-1.,0.));
#1557=DIRECTION('ref_axis',(0.,0.,-1.));
#1558=DIRECTION('',(-1.,0.,0.));
#1559=DIRECTION('',(0.,0.,1.));
#1560=DIRECTION('',(1.,0.,0.));
#1561=DIRECTION('',(0.,0.,-1.));
#1562=DIRECTION('center_axis',(0.,0.,-1.));
#1563=DIRECTION('ref_axis',(-1.,0.,0.));
#1564=DIRECTION('',(7.81278087110277E-15,-1.,0.));
#1565=DIRECTION('center_axis',(0.,0.,-1.));
#1566=DIRECTION('ref_axis',(-1.,0.,0.));
#1567=DIRECTION('',(-1.,1.9088044173717E-15,0.));
#1568=DIRECTION('',(0.,1.,0.));
#1569=DIRECTION('center_axis',(1.,0.,0.));
#1570=DIRECTION('ref_axis',(0.,0.,-1.));
#1571=DIRECTION('',(0.,-1.,0.));
#1572=DIRECTION('',(0.,0.,1.));
#1573=DIRECTION('',(0.,0.,-1.));
#1574=DIRECTION('center_axis',(0.,0.,1.));
#1575=DIRECTION('ref_axis',(1.,0.,0.));
#1576=DIRECTION('',(0.,0.,1.));
#1577=DIRECTION('center_axis',(0.,0.,-1.));
#1578=DIRECTION('ref_axis',(1.,0.,0.));
#1579=DIRECTION('',(0.,0.,1.));
#1580=DIRECTION('center_axis',(-1.,0.,0.));
#1581=DIRECTION('ref_axis',(0.,0.,1.));
#1582=DIRECTION('',(0.,1.,0.));
#1583=DIRECTION('',(0.,0.,1.));
#1584=DIRECTION('',(0.,1.,0.));
#1585=DIRECTION('center_axis',(0.,0.,1.));
#1586=DIRECTION('ref_axis',(1.,0.,0.));
#1587=DIRECTION('center_axis',(0.,0.,-1.));
#1588=DIRECTION('ref_axis',(-1.,0.,0.));
#1589=DIRECTION('',(0.,0.,1.));
#1590=DIRECTION('center_axis',(0.,0.,-1.));
#1591=DIRECTION('ref_axis',(1.,0.,0.));
#1592=DIRECTION('',(0.,0.,1.));
#1593=DIRECTION('center_axis',(0.,0.,-1.));
#1594=DIRECTION('ref_axis',(-1.,0.,0.));
#1595=DIRECTION('',(-2.20178370003806E-14,1.,0.));
#1596=DIRECTION('',(1.,-3.1073560282795E-16,0.));
#1597=DIRECTION('center_axis',(0.,0.,-1.));
#1598=DIRECTION('ref_axis',(-1.,0.,0.));
#1599=DIRECTION('center_axis',(0.,0.,-1.));
#1600=DIRECTION('ref_axis',(-1.,0.,0.));
#1601=DIRECTION('',(1.,0.,0.));
#1602=DIRECTION('center_axis',(0.,0.,-1.));
#1603=DIRECTION('ref_axis',(-1.,0.,0.));
#1604=DIRECTION('',(0.,-1.,0.));
#1605=DIRECTION('center_axis',(0.,0.,-1.));
#1606=DIRECTION('ref_axis',(-1.,0.,0.));
#1607=DIRECTION('',(-1.,0.,0.));
#1608=DIRECTION('center_axis',(0.,0.,-1.));
#1609=DIRECTION('ref_axis',(-1.,0.,0.));
#1610=DIRECTION('',(0.,1.,0.));
#1611=DIRECTION('',(-7.51713506256616E-15,1.,0.));
#1612=DIRECTION('',(0.,-1.,0.));
#1613=DIRECTION('',(-1.,1.8503717077086E-15,0.));
#1614=DIRECTION('',(2.19731640290395E-14,-1.,0.));
#1615=DIRECTION('',(-1.,1.8503717077086E-15,0.));
#1616=DIRECTION('',(1.,0.,0.));
#1617=DIRECTION('',(2.19731640290396E-14,-1.,0.));
#1618=DIRECTION('',(1.,-2.55134749822364E-16,0.));
#1619=DIRECTION('',(-1.,0.,0.));
#1620=DIRECTION('',(-6.93889390390723E-15,1.,0.));
#1621=DIRECTION('',(1.,-2.55134749822364E-16,0.));
#1622=DIRECTION('',(0.,1.,0.));
#1623=DIRECTION('center_axis',(0.,0.,-1.));
#1624=DIRECTION('ref_axis',(1.,0.,0.));
#1625=DIRECTION('center_axis',(0.,0.,-1.));
#1626=DIRECTION('ref_axis',(1.,0.,0.));
#1627=DIRECTION('center_axis',(0.,0.,-1.));
#1628=DIRECTION('ref_axis',(1.,0.,0.));
#1629=DIRECTION('',(3.27445345938169E-15,1.,0.));
#1630=DIRECTION('center_axis',(0.,0.,-1.));
#1631=DIRECTION('ref_axis',(1.,0.,0.));
#1632=DIRECTION('',(-6.93889390390723E-15,1.,0.));
#1633=DIRECTION('',(2.51245100657889E-15,-1.,0.));
#1634=DIRECTION('',(2.19731640290396E-14,-1.,0.));
#1635=DIRECTION('center_axis',(0.,0.,-1.));
#1636=DIRECTION('ref_axis',(1.,0.,0.));
#1637=DIRECTION('center_axis',(0.,0.,-1.));
#1638=DIRECTION('ref_axis',(1.,0.,0.));
#1639=DIRECTION('',(3.27445345938169E-15,1.,0.));
#1640=DIRECTION('',(-7.51713506256616E-15,1.,0.));
#1641=DIRECTION('',(2.51245100657889E-15,-1.,0.));
#1642=DIRECTION('center_axis',(0.,0.,-1.));
#1643=DIRECTION('ref_axis',(1.,0.,0.));
#1644=DIRECTION('',(2.19731640290395E-14,-1.,0.));
#1645=DIRECTION('center_axis',(-1.,0.,0.));
#1646=DIRECTION('ref_axis',(0.,0.,1.));
#1647=DIRECTION('',(0.,0.,-1.));
#1648=DIRECTION('',(0.,1.,0.));
#1649=DIRECTION('',(0.,0.,-1.));
#1650=DIRECTION('center_axis',(0.,-1.,0.));
#1651=DIRECTION('ref_axis',(0.,0.,-1.));
#1652=DIRECTION('',(0.,0.,-1.));
#1653=DIRECTION('',(-1.,0.,0.));
#1654=DIRECTION('',(0.,0.,-1.));
#1655=DIRECTION('center_axis',(1.,0.,0.));
#1656=DIRECTION('ref_axis',(0.,0.,-1.));
#1657=DIRECTION('',(0.,0.,-1.));
#1658=DIRECTION('',(0.,-1.,0.));
#1659=DIRECTION('',(0.,0.,-1.));
#1660=DIRECTION('center_axis',(0.,1.,0.));
#1661=DIRECTION('ref_axis',(0.,0.,1.));
#1662=DIRECTION('',(0.,0.,-1.));
#1663=DIRECTION('',(1.,0.,0.));
#1664=DIRECTION('',(0.,0.,-1.));
#1665=DIRECTION('center_axis',(0.,0.,-1.));
#1666=DIRECTION('ref_axis',(-1.,0.,0.));
#1667=DIRECTION('',(1.,0.,0.));
#1668=DIRECTION('',(0.,1.,0.));
#1669=DIRECTION('',(-1.,0.,0.));
#1670=DIRECTION('',(0.,-1.,0.));
#1671=DIRECTION('center_axis',(0.,0.,1.));
#1672=DIRECTION('ref_axis',(1.,0.,0.));
#1673=DIRECTION('center_axis',(0.,0.,1.));
#1674=DIRECTION('ref_axis',(1.,0.,0.));
#1675=DIRECTION('center_axis',(0.,0.,1.));
#1676=DIRECTION('ref_axis',(1.,0.,0.));
#1677=DIRECTION('center_axis',(0.,0.,-1.));
#1678=DIRECTION('ref_axis',(-1.,0.,0.));
#1679=DIRECTION('center_axis',(0.,0.,1.));
#1680=DIRECTION('ref_axis',(1.,0.,0.));
#1681=DIRECTION('center_axis',(-1.,0.,0.));
#1682=DIRECTION('ref_axis',(0.,0.,1.));
#1683=DIRECTION('center_axis',(1.,0.,-4.62592926927149E-15));
#1684=DIRECTION('ref_axis',(-4.62592926927149E-15,0.,-1.));
#1685=DIRECTION('center_axis',(-1.,0.,0.));
#1686=DIRECTION('ref_axis',(0.,0.,1.));
#1687=DIRECTION('center_axis',(0.,0.,-1.));
#1688=DIRECTION('ref_axis',(-1.,0.,0.));
#1689=DIRECTION('center_axis',(0.,0.,1.));
#1690=DIRECTION('ref_axis',(1.,0.,0.));
#1691=DIRECTION('center_axis',(0.,0.,1.));
#1692=DIRECTION('ref_axis',(1.,0.,0.));
#1693=DIRECTION('center_axis',(0.,1.,-3.46944695195362E-15));
#1694=DIRECTION('ref_axis',(0.,3.46944695195362E-15,1.));
#1695=DIRECTION('center_axis',(0.,0.,1.));
#1696=DIRECTION('ref_axis',(1.,0.,0.));
#1697=DIRECTION('center_axis',(0.,1.,0.));
#1698=DIRECTION('ref_axis',(0.,0.,1.));
#1699=DIRECTION('center_axis',(0.,0.,-1.));
#1700=DIRECTION('ref_axis',(-1.,0.,0.));
#1701=DIRECTION('center_axis',(0.,0.,1.));
#1702=DIRECTION('ref_axis',(1.,0.,0.));
#1703=DIRECTION('center_axis',(0.,-1.,0.));
#1704=DIRECTION('ref_axis',(0.,0.,-1.));
#1705=DIRECTION('center_axis',(0.,-1.,0.));
#1706=DIRECTION('ref_axis',(0.,0.,-1.));
#1707=DIRECTION('center_axis',(0.,1.,0.));
#1708=DIRECTION('ref_axis',(0.,0.,1.));
#1709=DIRECTION('center_axis',(0.,-1.,0.));
#1710=DIRECTION('ref_axis',(0.,0.,-1.));
#1711=DIRECTION('center_axis',(0.,0.,-1.));
#1712=DIRECTION('ref_axis',(-1.,0.,0.));
#1713=DIRECTION('center_axis',(0.,0.,1.));
#1714=DIRECTION('ref_axis',(1.,0.,0.));
#1715=DIRECTION('center_axis',(0.,0.,1.));
#1716=DIRECTION('ref_axis',(1.,0.,0.));
#1717=DIRECTION('center_axis',(-1.,0.,0.));
#1718=DIRECTION('ref_axis',(0.,0.,1.));
#1719=DIRECTION('center_axis',(0.,0.,1.));
#1720=DIRECTION('ref_axis',(1.,0.,0.));
#1721=DIRECTION('center_axis',(1.,0.,0.));
#1722=DIRECTION('ref_axis',(0.,0.,-1.));
#1723=DIRECTION('center_axis',(1.,0.,0.));
#1724=DIRECTION('ref_axis',(0.,0.,-1.));
#1725=DIRECTION('center_axis',(-1.,0.,0.));
#1726=DIRECTION('ref_axis',(0.,0.,1.));
#1727=DIRECTION('',(0.,0.,1.));
#1728=DIRECTION('',(0.,0.,-1.));
#1729=DIRECTION('center_axis',(0.,-1.,0.));
#1730=DIRECTION('ref_axis',(0.,0.,-1.));
#1731=DIRECTION('',(0.,0.,1.));
#1732=DIRECTION('center_axis',(1.,0.,0.));
#1733=DIRECTION('ref_axis',(0.,0.,-1.));
#1734=DIRECTION('',(0.,0.,1.));
#1735=DIRECTION('center_axis',(0.,1.,0.));
#1736=DIRECTION('ref_axis',(0.,0.,1.));
#1737=DIRECTION('',(0.,0.,1.));
#1738=DIRECTION('center_axis',(0.,0.,1.));
#1739=DIRECTION('ref_axis',(1.,0.,0.));
#1740=DIRECTION('',(0.,0.,1.));
#1741=DIRECTION('center_axis',(0.,0.,1.));
#1742=DIRECTION('ref_axis',(1.,0.,0.));
#1743=DIRECTION('',(0.,0.,1.));
#1744=DIRECTION('center_axis',(0.,0.,1.));
#1745=DIRECTION('ref_axis',(1.,0.,0.));
#1746=DIRECTION('',(0.,0.,1.));
#1747=DIRECTION('center_axis',(0.,0.,1.));
#1748=DIRECTION('ref_axis',(1.,0.,0.));
#1749=DIRECTION('',(0.,0.,1.));
#1750=DIRECTION('center_axis',(2.55134749822364E-16,1.,0.));
#1751=DIRECTION('ref_axis',(0.,0.,1.));
#1752=DIRECTION('center_axis',(2.55134749822364E-16,1.,0.));
#1753=DIRECTION('ref_axis',(0.,0.,1.));
#1754=DIRECTION('center_axis',(-1.8503717077086E-15,-1.,0.));
#1755=DIRECTION('ref_axis',(0.,0.,-1.));
#1756=DIRECTION('center_axis',(-1.8503717077086E-15,-1.,0.));
#1757=DIRECTION('ref_axis',(0.,0.,-1.));
#1758=DIRECTION('center_axis',(-1.,-7.51713506256616E-15,0.));
#1759=DIRECTION('ref_axis',(0.,0.,1.));
#1760=DIRECTION('center_axis',(-1.,-7.51713506256616E-15,0.));
#1761=DIRECTION('ref_axis',(0.,0.,1.));
#1762=DIRECTION('center_axis',(1.,2.19731640290395E-14,0.));
#1763=DIRECTION('ref_axis',(0.,0.,-1.));
#1764=DIRECTION('center_axis',(1.,2.19731640290395E-14,0.));
#1765=DIRECTION('ref_axis',(0.,0.,-1.));
#1766=DIRECTION('center_axis',(-1.,-6.93889390390723E-15,0.));
#1767=DIRECTION('ref_axis',(0.,0.,1.));
#1768=DIRECTION('center_axis',(-1.,-6.93889390390723E-15,0.));
#1769=DIRECTION('ref_axis',(0.,0.,1.));
#1770=DIRECTION('center_axis',(1.,2.19731640290396E-14,0.));
#1771=DIRECTION('ref_axis',(0.,0.,-1.));
#1772=DIRECTION('center_axis',(1.,2.19731640290396E-14,0.));
#1773=DIRECTION('ref_axis',(0.,0.,-1.));
#1774=DIRECTION('center_axis',(1.,2.51245100657889E-15,0.));
#1775=DIRECTION('ref_axis',(0.,0.,-1.));
#1776=DIRECTION('center_axis',(1.,2.51245100657889E-15,0.));
#1777=DIRECTION('ref_axis',(0.,0.,-1.));
#1778=DIRECTION('center_axis',(-1.,3.27445345938169E-15,0.));
#1779=DIRECTION('ref_axis',(0.,0.,1.));
#1780=DIRECTION('center_axis',(-1.,3.27445345938169E-15,0.));
#1781=DIRECTION('ref_axis',(0.,0.,1.));
#1782=DIRECTION('center_axis',(0.,0.,1.));
#1783=DIRECTION('ref_axis',(1.,0.,0.));
#1784=DIRECTION('',(0.,0.,1.));
#1785=DIRECTION('center_axis',(0.,0.,1.));
#1786=DIRECTION('ref_axis',(1.,0.,0.));
#1787=DIRECTION('center_axis',(0.,0.,1.));
#1788=DIRECTION('ref_axis',(1.,0.,0.));
#1789=DIRECTION('',(-0.707106781186547,-8.65956056235493E-17,0.707106781186548));
#1790=DIRECTION('center_axis',(0.,0.,1.));
#1791=DIRECTION('ref_axis',(1.,0.,0.));
#1792=DIRECTION('',(0.,0.,1.));
#1793=DIRECTION('center_axis',(0.,0.,-1.));
#1794=DIRECTION('ref_axis',(1.,0.,0.));
#1795=DIRECTION('center_axis',(0.,0.,-1.));
#1796=DIRECTION('ref_axis',(-1.,0.,0.));
#1797=DIRECTION('center_axis',(0.,0.,-1.));
#1798=DIRECTION('ref_axis',(1.,0.,0.));
#1799=DIRECTION('center_axis',(0.,0.,1.));
#1800=DIRECTION('ref_axis',(1.,0.,0.));
#1801=DIRECTION('',(0.,0.,1.));
#1802=DIRECTION('center_axis',(0.,0.,1.));
#1803=DIRECTION('ref_axis',(1.,0.,0.));
#1804=DIRECTION('center_axis',(0.,0.,1.));
#1805=DIRECTION('ref_axis',(1.,0.,0.));
#1806=DIRECTION('',(-0.707106781186548,-8.65956056235493E-17,0.707106781186548));
#1807=DIRECTION('center_axis',(0.,0.,1.));
#1808=DIRECTION('ref_axis',(1.,0.,0.));
#1809=DIRECTION('',(0.,0.,1.));
#1810=DIRECTION('center_axis',(0.,0.,-1.));
#1811=DIRECTION('ref_axis',(1.,0.,0.));
#1812=DIRECTION('center_axis',(0.,0.,-1.));
#1813=DIRECTION('ref_axis',(-1.,0.,0.));
#1814=DIRECTION('center_axis',(0.,0.,-1.));
#1815=DIRECTION('ref_axis',(1.,0.,0.));
#1816=DIRECTION('center_axis',(0.,0.,1.));
#1817=DIRECTION('ref_axis',(1.,0.,0.));
#1818=DIRECTION('',(0.,0.,1.));
#1819=DIRECTION('center_axis',(0.,0.,1.));
#1820=DIRECTION('ref_axis',(1.,0.,0.));
#1821=DIRECTION('center_axis',(0.,0.,1.));
#1822=DIRECTION('ref_axis',(1.,0.,0.));
#1823=DIRECTION('',(-0.707106781186548,-8.65956056235493E-17,0.707106781186548));
#1824=CARTESIAN_POINT('',(0.,0.,0.));
#1825=CARTESIAN_POINT('Origin',(-45.,18.5,15.));
#1826=CARTESIAN_POINT('',(-2.49999999999999,18.5,-1.));
#1827=CARTESIAN_POINT('',(-20.,18.5,-1.));
#1828=CARTESIAN_POINT('',(-22.5,18.5,-1.));
#1829=CARTESIAN_POINT('',(-2.5,18.5,11.));
#1830=CARTESIAN_POINT('',(-2.49999999999999,18.5,0.));
#1831=CARTESIAN_POINT('',(-20.,18.5,11.));
#1832=CARTESIAN_POINT('',(-20.,18.5,11.));
#1833=CARTESIAN_POINT('',(-20.,18.5,0.));
#1834=CARTESIAN_POINT('Origin',(0.,0.,11.));
#1835=CARTESIAN_POINT('',(2.5,13.7749773139559,11.));
#1836=CARTESIAN_POINT('',(12.1333333333333,6.98442712197803,11.));
#1837=CARTESIAN_POINT('Origin',(0.,0.,11.));
#1838=CARTESIAN_POINT('',(2.50000000000001,18.5,11.));
#1839=CARTESIAN_POINT('',(2.5,13.7749773139559,11.));
#1840=CARTESIAN_POINT('',(20.,18.5,11.));
#1841=CARTESIAN_POINT('',(2.50000000000001,18.5,11.));
#1842=CARTESIAN_POINT('',(20.,12.2474487139159,11.));
#1843=CARTESIAN_POINT('',(20.,18.5,11.));
#1844=CARTESIAN_POINT('Origin',(22.5,0.,11.));
#1845=CARTESIAN_POINT('Origin',(0.,0.,-75.3923072998831));
#1846=CARTESIAN_POINT('',(2.5,13.7749773139559,-1.));
#1847=CARTESIAN_POINT('',(2.5,13.7749773139559,-2.77555756156289E-14));
#1848=CARTESIAN_POINT('',(12.1333333333333,6.98442712197803,-1.));
#1849=CARTESIAN_POINT('',(12.1333333333333,6.98442712197803,-5.55111512312578E-14));
#1850=CARTESIAN_POINT('Origin',(0.,0.,-0.999999999999996));
#1851=CARTESIAN_POINT('Origin',(0.,0.,11.));
#1852=CARTESIAN_POINT('',(-2.5,-13.7749773139559,11.));
#1853=CARTESIAN_POINT('',(-12.1333333333333,-6.98442712197802,11.));
#1854=CARTESIAN_POINT('Origin',(0.,0.,11.));
#1855=CARTESIAN_POINT('',(-2.5,-18.5,11.));
#1856=CARTESIAN_POINT('',(-2.5,-13.7749773139559,11.));
#1857=CARTESIAN_POINT('',(-20.,-18.5,11.));
#1858=CARTESIAN_POINT('',(-2.5,-18.5,11.));
#1859=CARTESIAN_POINT('',(-20.0000000000001,-12.2474487139159,11.));
#1860=CARTESIAN_POINT('',(-20.,-18.5,11.));
#1861=CARTESIAN_POINT('Origin',(-22.5,0.,11.));
#1862=CARTESIAN_POINT('Origin',(-45.,-18.5,15.));
#1863=CARTESIAN_POINT('',(2.50000000000001,-18.5,-1.));
#1864=CARTESIAN_POINT('',(20.,-18.5000000000001,-1.));
#1865=CARTESIAN_POINT('',(-22.5,-18.5,-1.));
#1866=CARTESIAN_POINT('',(2.50000000000002,-18.5,11.));
#1867=CARTESIAN_POINT('',(2.50000000000001,-18.5,0.));
#1868=CARTESIAN_POINT('',(19.9999999999999,-18.5,11.));
#1869=CARTESIAN_POINT('',(19.9999999999999,-18.5,11.));
#1870=CARTESIAN_POINT('',(20.,-18.5000000000001,0.));
#1871=CARTESIAN_POINT('Origin',(0.,0.,-75.3923072998831));
#1872=CARTESIAN_POINT('',(-2.5,-13.7749773139559,-1.));
#1873=CARTESIAN_POINT('',(-2.5,-13.7749773139559,-2.77555756156289E-14));
#1874=CARTESIAN_POINT('',(-12.1333333333333,-6.98442712197802,-1.));
#1875=CARTESIAN_POINT('',(-12.1333333333333,-6.98442712197802,-5.55111512312578E-14));
#1876=CARTESIAN_POINT('Origin',(0.,0.,-0.999999999999996));
#1877=CARTESIAN_POINT('Origin',(-45.,-18.5,15.));
#1878=CARTESIAN_POINT('',(25.,-18.4999999999999,-1.));
#1879=CARTESIAN_POINT('',(41.,-18.5,-0.999999999999999));
#1880=CARTESIAN_POINT('',(-22.5,-18.5,-1.));
#1881=CARTESIAN_POINT('',(24.9999999999999,-18.5,11.));
#1882=CARTESIAN_POINT('',(25.,-18.4999999999999,0.));
#1883=CARTESIAN_POINT('',(41.,-18.5,11.));
#1884=CARTESIAN_POINT('',(41.,-18.5,11.));
#1885=CARTESIAN_POINT('',(41.,-18.5,11.));
#1886=CARTESIAN_POINT('Origin',(22.5,0.,-75.3923072998831));
#1887=CARTESIAN_POINT('',(19.9999999999999,-12.2474487139159,11.));
#1888=CARTESIAN_POINT('',(19.9999999999999,-12.2474487139159,-1.));
#1889=CARTESIAN_POINT('',(19.9999999999999,-12.2474487139159,-2.77555756156289E-14));
#1890=CARTESIAN_POINT('',(12.1333333333333,-6.98442712197802,11.));
#1891=CARTESIAN_POINT('Origin',(22.5,0.,11.));
#1892=CARTESIAN_POINT('',(12.1333333333333,-6.98442712197802,-1.));
#1893=CARTESIAN_POINT('',(12.1333333333333,-6.98442712197802,-5.55111512312578E-14));
#1894=CARTESIAN_POINT('Origin',(22.5,0.,-0.999999999999996));
#1895=CARTESIAN_POINT('Origin',(0.,0.,11.));
#1896=CARTESIAN_POINT('',(2.5,-13.7749773139559,11.));
#1897=CARTESIAN_POINT('',(2.50000000000001,-18.5,11.));
#1898=CARTESIAN_POINT('Origin',(0.,0.,11.));
#1899=CARTESIAN_POINT('',(19.9999999999999,-12.2474487139159,11.));
#1900=CARTESIAN_POINT('Origin',(0.,0.,11.));
#1901=CARTESIAN_POINT('',(25.,12.2474487139159,11.));
#1902=CARTESIAN_POINT('',(34.7474487139159,2.5,11.));
#1903=CARTESIAN_POINT('Origin',(22.5,0.,11.));
#1904=CARTESIAN_POINT('',(25.,18.5,11.));
#1905=CARTESIAN_POINT('',(25.,12.2474487139159,11.));
#1906=CARTESIAN_POINT('',(41.,18.5,11.));
#1907=CARTESIAN_POINT('',(25.,18.5,11.));
#1908=CARTESIAN_POINT('',(41.,2.5,11.));
#1909=CARTESIAN_POINT('',(41.,2.5,11.));
#1910=CARTESIAN_POINT('',(34.7474487139159,2.5,11.));
#1911=CARTESIAN_POINT('Origin',(-45.,18.5,15.));
#1912=CARTESIAN_POINT('',(2.50000000000001,18.5,-1.));
#1913=CARTESIAN_POINT('',(2.50000000000001,18.5,0.));
#1914=CARTESIAN_POINT('',(20.,18.5,-1.));
#1915=CARTESIAN_POINT('',(-22.5,18.5,-1.));
#1916=CARTESIAN_POINT('',(20.,18.5,0.));
#1917=CARTESIAN_POINT('Origin',(22.5,0.,-75.3923072998831));
#1918=CARTESIAN_POINT('',(25.,12.2474487139159,-1.));
#1919=CARTESIAN_POINT('',(25.,12.2474487139159,-2.77555756156289E-14));
#1920=CARTESIAN_POINT('',(34.7474487139159,2.5,-1.));
#1921=CARTESIAN_POINT('',(34.7474487139159,2.5,-2.77555756156289E-14));
#1922=CARTESIAN_POINT('Origin',(22.5,0.,-0.999999999999996));
#1923=CARTESIAN_POINT('Origin',(0.,0.,11.));
#1924=CARTESIAN_POINT('',(-25.0000000000001,-12.2474487139159,11.));
#1925=CARTESIAN_POINT('',(-34.7474487139159,-2.50000000000001,11.));
#1926=CARTESIAN_POINT('Origin',(-22.5,0.,11.));
#1927=CARTESIAN_POINT('',(-25.,-18.5,11.));
#1928=CARTESIAN_POINT('',(-25.0000000000001,-12.2474487139159,11.));
#1929=CARTESIAN_POINT('',(-41.,-18.5,11.));
#1930=CARTESIAN_POINT('',(-25.,-18.5,11.));
#1931=CARTESIAN_POINT('',(-41.,-2.5,11.));
#1932=CARTESIAN_POINT('',(-41.,-18.5,11.));
#1933=CARTESIAN_POINT('',(-41.,-2.5,11.));
#1934=CARTESIAN_POINT('Origin',(-45.,-18.5,15.));
#1935=CARTESIAN_POINT('',(-2.49999999999999,-18.5,-1.));
#1936=CARTESIAN_POINT('',(-2.49999999999999,-18.5,0.));
#1937=CARTESIAN_POINT('',(-20.,-18.4999999999999,-1.));
#1938=CARTESIAN_POINT('',(-22.5,-18.5,-1.));
#1939=CARTESIAN_POINT('',(-20.,-18.4999999999999,0.));
#1940=CARTESIAN_POINT('Origin',(-22.5,0.,-75.3923072998831));
#1941=CARTESIAN_POINT('',(-25.0000000000001,-12.2474487139159,-1.));
#1942=CARTESIAN_POINT('',(-25.0000000000001,-12.2474487139159,-2.77555756156289E-14));
#1943=CARTESIAN_POINT('',(-34.7474487139159,-2.50000000000001,-1.));
#1944=CARTESIAN_POINT('',(-34.7474487139159,-2.50000000000001,-2.77555756156289E-14));
#1945=CARTESIAN_POINT('Origin',(-22.5,0.,-0.999999999999996));
#1946=CARTESIAN_POINT('Origin',(0.,0.,11.));
#1947=CARTESIAN_POINT('',(-2.5,13.7749773139559,11.));
#1948=CARTESIAN_POINT('',(-2.49999999999999,18.5,11.));
#1949=CARTESIAN_POINT('',(-12.1333333333333,6.98442712197803,11.));
#1950=CARTESIAN_POINT('Origin',(0.,0.,11.));
#1951=CARTESIAN_POINT('',(-20.,12.2474487139159,11.));
#1952=CARTESIAN_POINT('Origin',(-22.5,0.,11.));
#1953=CARTESIAN_POINT('',(-20.,12.2474487139159,11.));
#1954=CARTESIAN_POINT('Origin',(-22.5,0.,-75.3923072998831));
#1955=CARTESIAN_POINT('',(-20.,12.2474487139159,-1.));
#1956=CARTESIAN_POINT('',(-20.,12.2474487139159,-2.77555756156289E-14));
#1957=CARTESIAN_POINT('',(-12.1333333333333,6.98442712197803,-1.));
#1958=CARTESIAN_POINT('',(-12.1333333333333,6.98442712197803,-2.77555756156289E-14));
#1959=CARTESIAN_POINT('Origin',(-22.5,0.,-0.999999999999996));
#1960=CARTESIAN_POINT('Origin',(-45.,18.5,15.));
#1961=CARTESIAN_POINT('',(-25.,18.5,-1.));
#1962=CARTESIAN_POINT('',(-41.,18.5,-0.999999999999999));
#1963=CARTESIAN_POINT('',(-22.5,18.5,-1.));
#1964=CARTESIAN_POINT('',(-25.,18.5,11.));
#1965=CARTESIAN_POINT('',(-25.,18.5,0.));
#1966=CARTESIAN_POINT('',(-41.,18.5,11.));
#1967=CARTESIAN_POINT('',(-41.,18.5,11.));
#1968=CARTESIAN_POINT('',(-41.,18.5,11.));
#1969=CARTESIAN_POINT('Origin',(0.,0.,11.));
#1970=CARTESIAN_POINT('',(-25.,12.2474487139159,11.));
#1971=CARTESIAN_POINT('',(-25.,18.5,11.));
#1972=CARTESIAN_POINT('',(-34.7474487139159,2.49999999999999,11.));
#1973=CARTESIAN_POINT('Origin',(-22.5,0.,11.));
#1974=CARTESIAN_POINT('',(-41.,2.5,11.));
#1975=CARTESIAN_POINT('',(-34.7474487139159,2.49999999999999,11.));
#1976=CARTESIAN_POINT('',(-41.,2.5,11.));
#1977=CARTESIAN_POINT('Origin',(-41.,-22.5,15.));
#1978=CARTESIAN_POINT('',(-41.,-2.5,-1.));
#1979=CARTESIAN_POINT('',(-41.,-18.5,-0.999999999999999));
#1980=CARTESIAN_POINT('',(-41.,-11.25,-1.));
#1981=CARTESIAN_POINT('',(-41.,-2.5,0.));
#1982=CARTESIAN_POINT('',(-41.,-18.5,11.));
#1983=CARTESIAN_POINT('Origin',(-22.5,0.,-75.3923072998831));
#1984=CARTESIAN_POINT('',(-25.,12.2474487139159,-1.));
#1985=CARTESIAN_POINT('',(-25.,12.2474487139159,-2.77555756156289E-14));
#1986=CARTESIAN_POINT('',(-34.7474487139159,2.49999999999999,-1.));
#1987=CARTESIAN_POINT('Origin',(-22.5,0.,-0.999999999999996));
#1988=CARTESIAN_POINT('',(-34.7474487139159,2.49999999999999,-2.77555756156289E-14));
#1989=CARTESIAN_POINT('Origin',(41.,-22.5,15.));
#1990=CARTESIAN_POINT('',(41.,-2.5,11.));
#1991=CARTESIAN_POINT('',(41.,-18.5,11.));
#1992=CARTESIAN_POINT('',(41.,-2.5,-1.));
#1993=CARTESIAN_POINT('',(41.,-2.5,0.));
#1994=CARTESIAN_POINT('',(41.,-11.25,-1.));
#1995=CARTESIAN_POINT('Origin',(22.5,0.,-75.3923072998831));
#1996=CARTESIAN_POINT('',(34.7474487139159,-2.5,11.));
#1997=CARTESIAN_POINT('',(24.9999999999999,-12.2474487139159,11.));
#1998=CARTESIAN_POINT('Origin',(22.5,0.,11.));
#1999=CARTESIAN_POINT('',(24.9999999999999,-12.2474487139159,-1.));
#2000=CARTESIAN_POINT('',(24.9999999999999,-12.2474487139159,-2.77555756156289E-14));
#2001=CARTESIAN_POINT('',(34.7474487139159,-2.5,-1.));
#2002=CARTESIAN_POINT('Origin',(22.5,0.,-0.999999999999996));
#2003=CARTESIAN_POINT('',(34.7474487139159,-2.5,-2.77555756156289E-14));
#2004=CARTESIAN_POINT('Origin',(0.,0.,11.));
#2005=CARTESIAN_POINT('',(25.,-18.5,11.));
#2006=CARTESIAN_POINT('',(34.7474487139159,-2.5,11.));
#2007=CARTESIAN_POINT('Origin',(0.,0.,-1.));
#2008=CARTESIAN_POINT('',(45.,-19.5,-0.999999999999999));
#2009=CARTESIAN_POINT('',(42.,-22.5,-0.999999999999999));
#2010=CARTESIAN_POINT('Origin',(42.,-19.5,-1.));
#2011=CARTESIAN_POINT('',(-42.,-22.5,-0.999999999999999));
#2012=CARTESIAN_POINT('',(-22.5,-22.5,-1.));
#2013=CARTESIAN_POINT('',(-45.,-19.5,-0.999999999999999));
#2014=CARTESIAN_POINT('Origin',(-42.,-19.5,-1.));
#2015=CARTESIAN_POINT('',(-45.,19.5,-0.999999999999999));
#2016=CARTESIAN_POINT('',(-45.,-11.25,-1.));
#2017=CARTESIAN_POINT('',(-42.,22.5,-0.999999999999999));
#2018=CARTESIAN_POINT('Origin',(-42.,19.5,-1.));
#2019=CARTESIAN_POINT('',(42.,22.5,-0.999999999999999));
#2020=CARTESIAN_POINT('',(-22.5,22.5,-1.));
#2021=CARTESIAN_POINT('',(45.,19.5,-0.999999999999999));
#2022=CARTESIAN_POINT('Origin',(42.,19.5,-1.));
#2023=CARTESIAN_POINT('',(45.,-11.25,-1.));
#2024=CARTESIAN_POINT('',(-24.9999999999999,6.24999999999989,-1.));
#2025=CARTESIAN_POINT('',(-41.,2.5,-1.));
#2026=CARTESIAN_POINT('',(-41.,-11.25,-1.));
#2027=CARTESIAN_POINT('',(-17.5,2.49999999999996,-1.));
#2028=CARTESIAN_POINT('',(-25.,-18.5000000000001,-1.));
#2029=CARTESIAN_POINT('',(-25.0000000000003,-6.2500000000003,-1.));
#2030=CARTESIAN_POINT('',(-17.5,-2.50000000000004,-1.));
#2031=CARTESIAN_POINT('',(-22.5,-18.5,-1.));
#2032=CARTESIAN_POINT('',(24.9999999999997,-6.2499999999997,-1.));
#2033=CARTESIAN_POINT('',(17.5,-2.49999999999999,-1.));
#2034=CARTESIAN_POINT('',(41.,18.5,-0.999999999999999));
#2035=CARTESIAN_POINT('',(25.,18.5,-1.));
#2036=CARTESIAN_POINT('',(-22.5,18.5,-1.));
#2037=CARTESIAN_POINT('',(25.0000000000001,6.25000000000009,-1.));
#2038=CARTESIAN_POINT('',(41.,2.5,-1.));
#2039=CARTESIAN_POINT('',(17.5,2.50000000000001,-1.));
#2040=CARTESIAN_POINT('',(41.,-11.25,-1.));
#2041=CARTESIAN_POINT('',(18.,5.51091059616309E-16,-1.));
#2042=CARTESIAN_POINT('Origin',(22.5,0.,-1.));
#2043=CARTESIAN_POINT('',(-27.,5.51091059616309E-16,-1.));
#2044=CARTESIAN_POINT('Origin',(-22.5,0.,-1.));
#2045=CARTESIAN_POINT('',(-5.25,6.4293956955236E-16,-1.));
#2046=CARTESIAN_POINT('Origin',(0.,0.,-1.));
#2047=CARTESIAN_POINT('',(2.49999999999998,6.99999999999999,-1.));
#2048=CARTESIAN_POINT('',(20.,12.2474487139159,-1.));
#2049=CARTESIAN_POINT('Origin',(22.5,0.,-0.999999999999996));
#2050=CARTESIAN_POINT('',(20.0000000000001,6.25000000000006,-1.));
#2051=CARTESIAN_POINT('',(2.5,-13.7749773139559,-1.));
#2052=CARTESIAN_POINT('',(2.49999999999998,-6.99999999999999,-1.));
#2053=CARTESIAN_POINT('',(19.9999999999997,-6.24999999999981,-1.));
#2054=CARTESIAN_POINT('Origin',(0.,0.,-0.999999999999996));
#2055=CARTESIAN_POINT('',(-2.5,13.7749773139559,-1.));
#2056=CARTESIAN_POINT('Origin',(0.,0.,-0.999999999999996));
#2057=CARTESIAN_POINT('',(-2.50000000000002,7.00000000000001,-1.));
#2058=CARTESIAN_POINT('',(-19.9999999999999,6.24999999999993,-1.));
#2059=CARTESIAN_POINT('',(-2.50000000000001,-7.00000000000001,-1.));
#2060=CARTESIAN_POINT('',(-20.0000000000001,-12.2474487139159,-1.));
#2061=CARTESIAN_POINT('Origin',(-22.5,0.,-0.999999999999996));
#2062=CARTESIAN_POINT('',(-20.0000000000003,-6.25000000000019,-1.));
#2063=CARTESIAN_POINT('Origin',(45.,-22.5,15.));
#2064=CARTESIAN_POINT('',(45.,19.5,12.));
#2065=CARTESIAN_POINT('',(45.,19.5,12.));
#2066=CARTESIAN_POINT('',(45.,-19.5,12.));
#2067=CARTESIAN_POINT('',(45.,-19.5,12.));
#2068=CARTESIAN_POINT('',(45.,-19.5,12.));
#2069=CARTESIAN_POINT('Origin',(-45.,22.5,15.));
#2070=CARTESIAN_POINT('',(-42.,22.5,12.));
#2071=CARTESIAN_POINT('',(-42.,22.5,12.));
#2072=CARTESIAN_POINT('',(42.,22.5,12.));
#2073=CARTESIAN_POINT('',(42.,22.5,12.));
#2074=CARTESIAN_POINT('',(42.,22.5,12.));
#2075=CARTESIAN_POINT('Origin',(-45.,-22.5,15.));
#2076=CARTESIAN_POINT('',(-45.,-19.5,12.));
#2077=CARTESIAN_POINT('',(-45.,-19.5,12.));
#2078=CARTESIAN_POINT('',(-45.,19.5,12.));
#2079=CARTESIAN_POINT('',(-45.,19.5,12.));
#2080=CARTESIAN_POINT('',(-45.,19.5,12.));
#2081=CARTESIAN_POINT('Origin',(-45.,-22.5,15.));
#2082=CARTESIAN_POINT('',(42.,-22.5,12.));
#2083=CARTESIAN_POINT('',(42.,-22.5,12.));
#2084=CARTESIAN_POINT('',(-42.,-22.5,12.));
#2085=CARTESIAN_POINT('',(-42.,-22.5,12.));
#2086=CARTESIAN_POINT('',(-42.,-22.5,12.));
#2087=CARTESIAN_POINT('Origin',(0.,0.,15.));
#2088=CARTESIAN_POINT('',(-42.,-19.5,15.));
#2089=CARTESIAN_POINT('',(42.,-19.5,15.));
#2090=CARTESIAN_POINT('',(-42.,-19.5,15.));
#2091=CARTESIAN_POINT('',(42.,19.5,15.));
#2092=CARTESIAN_POINT('',(42.,-19.5,15.));
#2093=CARTESIAN_POINT('',(-42.,19.5,15.));
#2094=CARTESIAN_POINT('',(42.,19.5,15.));
#2095=CARTESIAN_POINT('',(-42.,19.5,15.));
#2096=CARTESIAN_POINT('',(14.5,-9.79717439317883E-16,15.));
#2097=CARTESIAN_POINT('Origin',(22.5,0.,15.));
#2098=CARTESIAN_POINT('',(-30.5,-9.79717439317883E-16,15.));
#2099=CARTESIAN_POINT('Origin',(-22.5,0.,15.));
#2100=CARTESIAN_POINT('',(-6.025,-7.3784969648628E-16,15.));
#2101=CARTESIAN_POINT('Origin',(0.,0.,15.));
#2102=CARTESIAN_POINT('Origin',(-42.,19.5,15.));
#2103=CARTESIAN_POINT('Origin',(-42.,19.5,12.));
#2104=CARTESIAN_POINT('Origin',(0.,19.5,12.));
#2105=CARTESIAN_POINT('Origin',(42.,19.5,12.));
#2106=CARTESIAN_POINT('Origin',(-42.,19.5,12.));
#2107=CARTESIAN_POINT('Origin',(42.,19.5,15.));
#2108=CARTESIAN_POINT('Origin',(42.,19.5,12.));
#2109=CARTESIAN_POINT('Origin',(-42.,19.5,12.));
#2110=CARTESIAN_POINT('Origin',(-42.,19.5,12.));
#2111=CARTESIAN_POINT('Origin',(42.,19.5,12.));
#2112=CARTESIAN_POINT('Origin',(42.,19.5,12.));
#2113=CARTESIAN_POINT('Origin',(-42.,-19.5,15.));
#2114=CARTESIAN_POINT('Origin',(-42.,-19.5,12.));
#2115=CARTESIAN_POINT('Origin',(-42.,0.,12.));
#2116=CARTESIAN_POINT('Origin',(-42.,-19.5,12.));
#2117=CARTESIAN_POINT('Origin',(42.,0.,12.));
#2118=CARTESIAN_POINT('Origin',(42.,-19.5,12.));
#2119=CARTESIAN_POINT('Origin',(42.,-19.5,15.));
#2120=CARTESIAN_POINT('Origin',(42.,-19.5,12.));
#2121=CARTESIAN_POINT('Origin',(-42.,-19.5,12.));
#2122=CARTESIAN_POINT('Origin',(-42.,-19.5,12.));
#2123=CARTESIAN_POINT('Origin',(42.,-19.5,12.));
#2124=CARTESIAN_POINT('Origin',(42.,-19.5,12.));
#2125=CARTESIAN_POINT('Origin',(0.,-19.5,12.));
#2126=CARTESIAN_POINT('Origin',(41.,-22.5,15.));
#2127=CARTESIAN_POINT('',(41.,2.5,0.));
#2128=CARTESIAN_POINT('',(41.,18.5,11.));
#2129=CARTESIAN_POINT('Origin',(-45.,18.5,15.));
#2130=CARTESIAN_POINT('',(25.,18.5,0.));
#2131=CARTESIAN_POINT('Origin',(-41.,-22.5,15.));
#2132=CARTESIAN_POINT('',(-41.,2.5,0.));
#2133=CARTESIAN_POINT('Origin',(-45.,-18.5,15.));
#2134=CARTESIAN_POINT('',(-25.,-18.5000000000001,0.));
#2135=CARTESIAN_POINT('Origin',(0.,0.,-75.3923072998831));
#2136=CARTESIAN_POINT('',(-2.5,13.7749773139559,-2.77555756156289E-14));
#2137=CARTESIAN_POINT('Origin',(22.5,0.,-75.3923072998831));
#2138=CARTESIAN_POINT('',(20.,12.2474487139159,-2.77555756156289E-14));
#2139=CARTESIAN_POINT('Origin',(0.,0.,-75.3923072998831));
#2140=CARTESIAN_POINT('',(2.5,-13.7749773139559,-2.77555756156289E-14));
#2141=CARTESIAN_POINT('Origin',(-22.5,0.,-75.3923072998831));
#2142=CARTESIAN_POINT('',(-20.0000000000001,-12.2474487139159,-2.77555756156289E-14));
#2143=CARTESIAN_POINT('Origin',(35.,2.5,0.));
#2144=CARTESIAN_POINT('Origin',(35.,-2.5,0.));
#2145=CARTESIAN_POINT('Origin',(-35.,2.49999999999999,0.));
#2146=CARTESIAN_POINT('Origin',(-35.,-2.50000000000001,0.));
#2147=CARTESIAN_POINT('Origin',(-20.,12.5,0.));
#2148=CARTESIAN_POINT('Origin',(-25.,12.5,0.));
#2149=CARTESIAN_POINT('Origin',(-25.0000000000001,-12.5000000000001,0.));
#2150=CARTESIAN_POINT('Origin',(-20.0000000000001,-12.4999999999999,0.));
#2151=CARTESIAN_POINT('Origin',(25.,12.5,0.));
#2152=CARTESIAN_POINT('Origin',(20.,12.5,0.));
#2153=CARTESIAN_POINT('Origin',(24.9999999999999,-12.4999999999999,0.));
#2154=CARTESIAN_POINT('Origin',(19.9999999999999,-12.5000000000001,0.));
#2155=CARTESIAN_POINT('Origin',(-2.5,-14.,0.));
#2156=CARTESIAN_POINT('Origin',(2.5,-14.,0.));
#2157=CARTESIAN_POINT('Origin',(2.5,14.,0.));
#2158=CARTESIAN_POINT('Origin',(-2.5,14.,0.));
#2159=CARTESIAN_POINT('Origin',(0.,0.,15.));
#2160=CARTESIAN_POINT('',(-5.25,-6.4293956955236E-16,14.225));
#2161=CARTESIAN_POINT('',(-5.25,-6.4293956955236E-16,15.));
#2162=CARTESIAN_POINT('Origin',(0.,0.,14.225));
#2163=CARTESIAN_POINT('Origin',(0.,0.,15.));
#2164=CARTESIAN_POINT('',(-6.025,-7.3784969648628E-16,15.));
#2165=CARTESIAN_POINT('Origin',(-22.5,0.,15.));
#2166=CARTESIAN_POINT('',(-27.,5.51091059616309E-16,6.));
#2167=CARTESIAN_POINT('',(-27.,-5.51091059616309E-16,15.));
#2168=CARTESIAN_POINT('Origin',(-22.5,0.,6.));
#2169=CARTESIAN_POINT('Origin',(-15.,0.,6.));
#2170=CARTESIAN_POINT('',(-30.,9.18485099360515E-16,6.));
#2171=CARTESIAN_POINT('Origin',(-22.5,0.,6.));
#2172=CARTESIAN_POINT('Origin',(-22.5,0.,15.));
#2173=CARTESIAN_POINT('',(-30.,-9.18485099360515E-16,14.5));
#2174=CARTESIAN_POINT('',(-30.,-9.18485099360515E-16,15.));
#2175=CARTESIAN_POINT('Origin',(-22.5,0.,14.5));
#2176=CARTESIAN_POINT('Origin',(-22.5,0.,15.));
#2177=CARTESIAN_POINT('',(-30.5,-9.79717439317883E-16,15.));
#2178=CARTESIAN_POINT('Origin',(22.5,0.,15.));
#2179=CARTESIAN_POINT('',(18.,5.51091059616309E-16,6.));
#2180=CARTESIAN_POINT('',(18.,-5.51091059616309E-16,15.));
#2181=CARTESIAN_POINT('Origin',(22.5,0.,6.));
#2182=CARTESIAN_POINT('Origin',(30.,0.,6.));
#2183=CARTESIAN_POINT('',(15.,9.18485099360515E-16,6.));
#2184=CARTESIAN_POINT('Origin',(22.5,0.,6.));
#2185=CARTESIAN_POINT('Origin',(22.5,0.,15.));
#2186=CARTESIAN_POINT('',(15.,-9.18485099360515E-16,14.5));
#2187=CARTESIAN_POINT('',(15.,-9.18485099360515E-16,15.));
#2188=CARTESIAN_POINT('Origin',(22.5,0.,14.5));
#2189=CARTESIAN_POINT('Origin',(22.5,0.,15.));
#2190=CARTESIAN_POINT('',(14.5,-9.79717439317883E-16,15.));
#2191=UNCERTAINTY_MEASURE_WITH_UNIT(LENGTH_MEASURE(0.01),#2195,
'DISTANCE_ACCURACY_VALUE',
'Maximum model space distance between geometric entities at asserted c
onnectivities');
#2192=UNCERTAINTY_MEASURE_WITH_UNIT(LENGTH_MEASURE(0.01),#2195,
'DISTANCE_ACCURACY_VALUE',
'Maximum model space distance between geometric entities at asserted c
onnectivities');
#2193=(
GEOMETRIC_REPRESENTATION_CONTEXT(3)
GLOBAL_UNCERTAINTY_ASSIGNED_CONTEXT((#2191))
GLOBAL_UNIT_ASSIGNED_CONTEXT((#2195,#2197,#2198))
REPRESENTATION_CONTEXT('','3D')
);
#2194=(
GEOMETRIC_REPRESENTATION_CONTEXT(3)
GLOBAL_UNCERTAINTY_ASSIGNED_CONTEXT((#2192))
GLOBAL_UNIT_ASSIGNED_CONTEXT((#2195,#2197,#2198))
REPRESENTATION_CONTEXT('','3D')
);
#2195=(
LENGTH_UNIT()
NAMED_UNIT(*)
SI_UNIT(.MILLI.,.METRE.)
);
#2196=(
LENGTH_UNIT()
NAMED_UNIT(*)
SI_UNIT($,.METRE.)
);
#2197=(
NAMED_UNIT(*)
PLANE_ANGLE_UNIT()
SI_UNIT($,.RADIAN.)
);
#2198=(
NAMED_UNIT(*)
SI_UNIT($,.STERADIAN.)
SOLID_ANGLE_UNIT()
);
#2199=SHAPE_DEFINITION_REPRESENTATION(#2200,#2201);
#2200=PRODUCT_DEFINITION_SHAPE('',$,#2203);
#2201=SHAPE_REPRESENTATION('',(#1310),#2193);
#2202=PRODUCT_DEFINITION_CONTEXT('part definition',#2207,'design');
#2203=PRODUCT_DEFINITION('\X2\010C\X0\eona plo\X2\010D\X0\ica za stopu
 45x90','\X2\010C\X0\eona plo\X2\010D\X0\ica za stopu 45x90 v4',#2204,#2202);
#2204=PRODUCT_DEFINITION_FORMATION('',$,#2209);
#2205=PRODUCT_RELATED_PRODUCT_CATEGORY(
'\X2\010C\X0\eona plo\X2\010D\X0\ica za stopu 45x90 v4',
'\X2\010C\X0\eona plo\X2\010D\X0\ica za stopu 45x90 v4',(#2209));
#2206=APPLICATION_PROTOCOL_DEFINITION('international standard',
'automotive_design',2009,#2207);
#2207=APPLICATION_CONTEXT(
'Core Data for Automotive Mechanical Design Process');
#2208=PRODUCT_CONTEXT('part definition',#2207,'mechanical');
#2209=PRODUCT('\X2\010C\X0\eona plo\X2\010D\X0\ica za stopu 45x90',
'\X2\010C\X0\eona plo\X2\010D\X0\ica za stopu 45x90 v4',$,(#2208));
#2210=PRESENTATION_STYLE_ASSIGNMENT((#2212));
#2211=PRESENTATION_STYLE_ASSIGNMENT((#2213));
#2212=SURFACE_STYLE_USAGE(.BOTH.,#2214);
#2213=SURFACE_STYLE_USAGE(.BOTH.,#2215);
#2214=SURFACE_SIDE_STYLE('',(#2216));
#2215=SURFACE_SIDE_STYLE('',(#2217));
#2216=SURFACE_STYLE_FILL_AREA(#2218);
#2217=SURFACE_STYLE_FILL_AREA(#2219);
#2218=FILL_AREA_STYLE('Steel - Satin',(#2220));
#2219=FILL_AREA_STYLE('Opaque(202,209,238)',(#2221));
#2220=FILL_AREA_STYLE_COLOUR('Steel - Satin',#2222);
#2221=FILL_AREA_STYLE_COLOUR('Opaque(202,209,238)',#2223);
#2222=COLOUR_RGB('Steel - Satin',0.627450980392157,0.627450980392157,0.627450980392157);
#2223=COLOUR_RGB('Opaque(202,209,238)',0.792156862745098,0.819607843137255,
0.933333333333333);
ENDSEC;
END-ISO-10303-21;
