ISO-10303-21;
HEADER;
FILE_DESCRIPTION (( 'STEP AP203' ),
    '1' );
FILE_NAME ('ALP2513.STEP',
    '2017-02-20T15:41:07',
    ( '' ),
    ( '' ),
    'SwSTEP 2.0',
    'SolidWorks 2012',
    '' );
FILE_SCHEMA (( 'CONFIG_CONTROL_DESIGN' ));
ENDSEC;

DATA;
#1 = APPROVAL ( #623, 'UNKNOWN' ) ;
#2 = CC_DESIGN_DATE_AND_TIME_ASSIGNMENT ( #1065, #627, ( #5 ) ) ;
#3 = CC_DESIGN_APPROVAL ( #1, ( #5 ) ) ;
#4 = CC_DESIGN_PERSON_AND_ORGANIZATION_ASSIGNMENT ( #1076, #625, ( #5 ) ) ;
#5 = SECURITY_CLASSIFICATION ( '', '', #621 ) ;
#6 = CC_DESIGN_SECURITY_CLASSIFICATION ( #5, ( #1085 ) ) ;
#7 = AXIS2_PLACEMENT_3D ( 'NONE', #548, #531, #546 ) ;
#8 = AXIS2_PLACEMENT_3D ( 'NONE', #271, #272, #261 ) ;
#9 = AXIS2_PLACEMENT_3D ( 'NONE', #511, #493, #488 ) ;
#10 = AXIS2_PLACEMENT_3D ( 'NONE', #241, #229, #226 ) ;
#11 = AXIS2_PLACEMENT_3D ( 'NONE', #264, #287, #280 ) ;
#12 = AXIS2_PLACEMENT_3D ( 'NONE', #186, #209, #196 ) ;
#13 = AXIS2_PLACEMENT_3D ( 'NONE', #297, #263, #290 ) ;
#14 = AXIS2_PLACEMENT_3D ( 'NONE', #217, #244, #220 ) ;
#15 = AXIS2_PLACEMENT_3D ( 'NONE', #316, #314, #301 ) ;
#16 = AXIS2_PLACEMENT_3D ( 'NONE', #254, #213, #215 ) ;
#17 = AXIS2_PLACEMENT_3D ( 'NONE', #538, #543, #533 ) ;
#18 = AXIS2_PLACEMENT_3D ( 'NONE', #324, #302, #322 ) ;
#19 = AXIS2_PLACEMENT_3D ( 'NONE', #262, #295, #259 ) ;
#20 = AXIS2_PLACEMENT_3D ( 'NONE', #265, #256, #298 ) ;
#21 = AXIS2_PLACEMENT_3D ( 'NONE', #306, #321, #305 ) ;
#22 = AXIS2_PLACEMENT_3D ( 'NONE', #303, #308, #317 ) ;
#23 = AXIS2_PLACEMENT_3D ( 'NONE', #203, #204, #194 ) ;
#24 = AXIS2_PLACEMENT_3D ( 'NONE', #309, #311, #325 ) ;
#25 = AXIS2_PLACEMENT_3D ( 'NONE', #289, #285, #275 ) ;
#26 = AXIS2_PLACEMENT_3D ( 'NONE', #312, #326, #327 ) ;
#27 = AXIS2_PLACEMENT_3D ( 'NONE', #179, #176, #175 ) ;
#28 = AXIS2_PLACEMENT_3D ( 'NONE', #124, #210, #269 ) ;
#29 = AXIS2_PLACEMENT_3D ( 'NONE', #267, #266, #291 ) ;
#30 = AXIS2_PLACEMENT_3D ( 'NONE', #258, #273, #274 ) ;
#31 = AXIS2_PLACEMENT_3D ( 'NONE', #230, #245, #235 ) ;
#32 = AXIS2_PLACEMENT_3D ( 'NONE', #281, #277, #279 ) ;
#33 = AXIS2_PLACEMENT_3D ( 'NONE', #160, #140, #141 ) ;
#34 = AXIS2_PLACEMENT_3D ( 'NONE', #253, #255, #225 ) ;
#35 = AXIS2_PLACEMENT_3D ( 'NONE', #313, #304, #319 ) ;
#36 = AXIS2_PLACEMENT_3D ( 'NONE', #184, #182, #200 ) ;
#37 = AXIS2_PLACEMENT_3D ( 'NONE', #205, #189, #190 ) ;
#38 = AXIS2_PLACEMENT_3D ( 'NONE', #143, #144, #149 ) ;
#39 = AXIS2_PLACEMENT_3D ( 'NONE', #223, #227, #238 ) ;
#40 = AXIS2_PLACEMENT_3D ( 'NONE', #192, #187, #199 ) ;
#41 = AXIS2_PLACEMENT_3D ( 'NONE', #232, #233, #243 ) ;
#42 = AXIS2_PLACEMENT_3D ( 'NONE', #224, #242, #236 ) ;
#43 = AXIS2_PLACEMENT_3D ( 'NONE', #188, #181, #180 ) ;
#44 = AXIS2_PLACEMENT_3D ( 'NONE', #174, #197, #198 ) ;
#45 = AXIS2_PLACEMENT_3D ( 'NONE', #307, #318, #315 ) ;
#46 = AXIS2_PLACEMENT_3D ( 'NONE', #286, #293, #294 ) ;
#47 = AXIS2_PLACEMENT_3D ( 'NONE', #177, #178, #202 ) ;
#48 = AXIS2_PLACEMENT_3D ( 'NONE', #221, #246, #248 ) ;
#49 = AXIS2_PLACEMENT_3D ( 'NONE', #216, #214, #250 ) ;
#50 = AXIS2_PLACEMENT_3D ( 'NONE', #283, #284, #288 ) ;
#51 = AXIS2_PLACEMENT_3D ( 'NONE', #299, #320, #323 ) ;
#52 = AXIS2_PLACEMENT_3D ( 'NONE', #292, #296, #276 ) ;
#53 = AXIS2_PLACEMENT_3D ( 'NONE', #485, #500, #494 ) ;
#54 = AXIS2_PLACEMENT_3D ( 'NONE', #486, #487, #484 ) ;
#55 =( GEOMETRIC_REPRESENTATION_CONTEXT ( 3 ) GLOBAL_UNCERTAINTY_ASSIGNED_CONTEXT ( ( #422 ) ) GLOBAL_UNIT_ASSIGNED_CONTEXT ( ( #529, #550, #551 ) ) REPRESENTATION_CONTEXT ( 'NONE', 'WORKASPACE' ) );
#56 = AXIS2_PLACEMENT_3D ( 'NONE', #489, #501, #498 ) ;
#57 = AXIS2_PLACEMENT_3D ( 'NONE', #552, #558, #547 ) ;
#58 = AXIS2_PLACEMENT_3D ( 'NONE', #497, #502, #491 ) ;
#59 =( GEOMETRIC_REPRESENTATION_CONTEXT ( 3 ) GLOBAL_UNCERTAINTY_ASSIGNED_CONTEXT ( ( #427 ) ) GLOBAL_UNIT_ASSIGNED_CONTEXT ( ( #526, #528, #530 ) ) REPRESENTATION_CONTEXT ( 'NONE', 'WORKASPACE' ) );
#60 = AXIS2_PLACEMENT_3D ( 'NONE', #228, #239, #234 ) ;
#61 = AXIS2_PLACEMENT_3D ( 'NONE', #257, #268, #260 ) ;
#62 = EDGE_CURVE ( 'NONE', #777, #784, #838, .T. ) ;
#63 = AXIS2_PLACEMENT_3D ( 'NONE', #351, #352, #346 ) ;
#64 = AXIS2_PLACEMENT_3D ( 'NONE', #356, #347, #125 ) ;
#65 = EDGE_CURVE ( 'NONE', #804, #812, #840, .T. ) ;
#66 = EDGE_CURVE ( 'NONE', #781, #802, #837, .T. ) ;
#67 = EDGE_CURVE ( 'NONE', #787, #803, #844, .T. ) ;
#68 = EDGE_CURVE ( 'NONE', #784, #777, #839, .T. ) ;
#69 = EDGE_CURVE ( 'NONE', #807, #812, #820, .T. ) ;
#70 = EDGE_CURVE ( 'NONE', #801, #811, #826, .T. ) ;
#71 = EDGE_CURVE ( 'NONE', #786, #783, #843, .T. ) ;
#72 = AXIS2_PLACEMENT_3D ( 'NONE', #328, #332, #339 ) ;
#73 = AXIS2_PLACEMENT_3D ( 'NONE', #334, #335, #330 ) ;
#74 = AXIS2_PLACEMENT_3D ( 'NONE', #341, #345, #342 ) ;
#75 = EDGE_CURVE ( 'NONE', #796, #779, #847, .T. ) ;
#76 = EDGE_CURVE ( 'NONE', #784, #809, #824, .T. ) ;
#77 = EDGE_CURVE ( 'NONE', #807, #789, #842, .T. ) ;
#78 = EDGE_CURVE ( 'NONE', #789, #790, #821, .T. ) ;
#79 = AXIS2_PLACEMENT_3D ( 'NONE', #350, #357, #348 ) ;
#80 = EDGE_CURVE ( 'NONE', #812, #790, #827, .T. ) ;
#81 = EDGE_CURVE ( 'NONE', #778, #788, #815, .T. ) ;
#82 = EDGE_CURVE ( 'NONE', #776, #804, #831, .T. ) ;
#83 = EDGE_CURVE ( 'NONE', #780, #794, #845, .T. ) ;
#84 = EDGE_CURVE ( 'NONE', #780, #795, #825, .T. ) ;
#85 = AXIS2_PLACEMENT_3D ( 'NONE', #344, #343, #340 ) ;
#86 = EDGE_CURVE ( 'NONE', #776, #807, #819, .T. ) ;
#87 = AXIS2_PLACEMENT_3D ( 'NONE', #338, #336, #337 ) ;
#88 = AXIS2_PLACEMENT_3D ( 'NONE', #353, #354, #349 ) ;
#89 = AXIS2_PLACEMENT_3D ( 'NONE', #132, #133, #134 ) ;
#90 = AXIS2_PLACEMENT_3D ( 'NONE', #123, #151, #145 ) ;
#91 = EDGE_CURVE ( 'NONE', #797, #783, #833, .T. ) ;
#92 = EDGE_CURVE ( 'NONE', #804, #776, #818, .T. ) ;
#93 = EDGE_CURVE ( 'NONE', #803, #804, #834, .T. ) ;
#94 = EDGE_CURVE ( 'NONE', #812, #807, #817, .T. ) ;
#95 = EDGE_CURVE ( 'NONE', #808, #787, #848, .T. ) ;
#96 = EDGE_CURVE ( 'NONE', #808, #782, #832, .T. ) ;
#97 = EDGE_CURVE ( 'NONE', #792, #797, #849, .T. ) ;
#98 = AXIS2_PLACEMENT_3D ( 'NONE', #126, #130, #127 ) ;
#99 = EDGE_CURVE ( 'NONE', #798, #794, #830, .T. ) ;
#100 = AXIS2_PLACEMENT_3D ( 'NONE', #157, #152, #173 ) ;
#101 = AXIS2_PLACEMENT_3D ( 'NONE', #172, #153, #142 ) ;
#102 = AXIS2_PLACEMENT_3D ( 'NONE', #331, #329, #333 ) ;
#103 = AXIS2_PLACEMENT_3D ( 'NONE', #146, #162, #154 ) ;
#104 = EDGE_CURVE ( 'NONE', #793, #775, #846, .T. ) ;
#105 = AXIS2_PLACEMENT_3D ( 'NONE', #136, #166, #156 ) ;
#106 = AXIS2_PLACEMENT_3D ( 'NONE', #164, #165, #169 ) ;
#107 = AXIS2_PLACEMENT_3D ( 'NONE', #170, #167, #158 ) ;
#108 = AXIS2_PLACEMENT_3D ( 'NONE', #168, #163, #135 ) ;
#109 = EDGE_CURVE ( 'NONE', #773, #770, #841, .T. ) ;
#110 = EDGE_CURVE ( 'NONE', #788, #778, #836, .T. ) ;
#111 = AXIS2_PLACEMENT_3D ( 'NONE', #139, #147, #161 ) ;
#112 = AXIS2_PLACEMENT_3D ( 'NONE', #159, #171, #150 ) ;
#113 = EDGE_CURVE ( 'NONE', #790, #789, #850, .T. ) ;
#114 = SHAPE_REPRESENTATION ( 'Telo fi40 plastièna', ( #57 ), #55 ) ;
#115 = SHAPE_REPRESENTATION ( 'ALP2513', ( #359, #17, #382 ), #372 ) ;
#116 = SHAPE_REPRESENTATION ( 'Gumena podloga fi40', ( #57 ), #59 ) ;
#117 = PRODUCT ( 'ALP2513', 'ALP2513', '', ( #569 ) ) ;
#118 = PERSON ( 'NAUO-PER2', 'UNSPECIFIED', 'UNSPECIFIED', ('UNSPECIFIED'), ('UNSPECIFIED'), ('UNSPECIFIED') ) ;
#119 = PERSON ( 'UNSPECIFIED', 'UNSPECIFIED', 'UNSPECIFIED', ('UNSPECIFIED'), ('UNSPECIFIED'), ('UNSPECIFIED') ) ;
#120 = PRODUCT ( 'Telo fi40 plastièna', 'Telo fi40 plastièna', '', ( #586 ) ) ;
#121 = PRODUCT ( 'Gumena podloga fi40', 'Gumena podloga fi40', '', ( #566 ) ) ;
#122 = PERSON ( 'NAUO-PER1', 'UNSPECIFIED', 'UNSPECIFIED', ('UNSPECIFIED'), ('UNSPECIFIED'), ('UNSPECIFIED') ) ;
#123 = CARTESIAN_POINT ( 'NONE',  ( -9.914604918536719200E-016, 5.473720558371217000, 0.0000000000000000000 ) ) ;
#124 = CARTESIAN_POINT ( 'NONE',  ( -3.745680451921657300E-016, 19.08034822658876100, 0.0000000000000000000 ) ) ;
#125 = DIRECTION ( 'NONE',  ( -1.000000000000000000, 0.0000000000000000000, 0.0000000000000000000 ) ) ;
#126 = CARTESIAN_POINT ( 'NONE',  ( -1.239626088056639700E-015, 0.0000000000000000000, 0.0000000000000000000 ) ) ;
#127 = DIRECTION ( 'NONE',  ( 1.000000000000000000, -4.533764439681462900E-017, 0.0000000000000000000 ) ) ;
#128 = DIRECTION ( 'NONE',  ( -4.533764439681463500E-017, -1.000000000000000000, -0.0000000000000000000 ) ) ;
#129 = DIRECTION ( 'NONE',  ( -4.533764439681463500E-017, -1.000000000000000000, -0.0000000000000000000 ) ) ;
#130 = DIRECTION ( 'NONE',  ( -4.533764439681463500E-017, -1.000000000000000000, -0.0000000000000000000 ) ) ;
#131 = CARTESIAN_POINT ( 'NONE',  ( 19.50000000000000000, 19.08034822658876100, 0.0000000000000000000 ) ) ;
#132 = CARTESIAN_POINT ( 'NONE',  ( 0.0000000000000000000, 0.0000000000000000000, 3.000000000000000000 ) ) ;
#133 = DIRECTION ( 'NONE',  ( 0.0000000000000000000, 0.0000000000000000000, -1.000000000000000000 ) ) ;
#134 = DIRECTION ( 'NONE',  ( -1.000000000000000000, 0.0000000000000000000, 0.0000000000000000000 ) ) ;
#135 = DIRECTION ( 'NONE',  ( 1.000000000000000000, 0.0000000000000000000, 0.0000000000000000000 ) ) ;
#136 = CARTESIAN_POINT ( 'NONE',  ( -9.914604918536719200E-016, 5.473720558371217000, 0.0000000000000000000 ) ) ;
#137 = DIRECTION ( 'NONE',  ( 0.5000000000000013300, -0.8660254037844379300, 0.0000000000000000000 ) ) ;
#138 = CARTESIAN_POINT ( 'NONE',  ( -15.00000000000000000, 19.08034822658876100, 1.836970198721029600E-015 ) ) ;
#139 = CARTESIAN_POINT ( 'NONE',  ( -1.012937866072566700E-015, 5.000000000000000900, 0.0000000000000000000 ) ) ;
#140 = DIRECTION ( 'NONE',  ( -4.533764439681463500E-017, -1.000000000000000000, -0.0000000000000000000 ) ) ;
#141 = DIRECTION ( 'NONE',  ( 1.000000000000000000, -5.782411586589356200E-017, 0.0000000000000000000 ) ) ;
#142 = DIRECTION ( 'NONE',  ( 1.000000000000000000, 0.0000000000000000000, 0.0000000000000000000 ) ) ;
#143 = CARTESIAN_POINT ( 'NONE',  ( -1.012937866072566700E-015, 4.999999999999999100, 0.0000000000000000000 ) ) ;
#144 = DIRECTION ( 'NONE',  ( -4.533764439681463500E-017, -1.000000000000000000, -0.0000000000000000000 ) ) ;
#145 = DIRECTION ( 'NONE',  ( 1.000000000000000000, -4.509980483449266800E-017, 0.0000000000000000000 ) ) ;
#146 = CARTESIAN_POINT ( 'NONE',  ( -17.50000000000000000, 4.473720558371213400, 2.143131898507868200E-015 ) ) ;
#147 = DIRECTION ( 'NONE',  ( -4.533764439681463500E-017, -1.000000000000000000, -0.0000000000000000000 ) ) ;
#148 = CARTESIAN_POINT ( 'NONE',  ( 19.23205080756887900, 5.473720558371216100, 0.0000000000000000000 ) ) ;
#149 = DIRECTION ( 'NONE',  ( 1.000000000000000000, 0.0000000000000000000, 0.0000000000000000000 ) ) ;
#150 = DIRECTION ( 'NONE',  ( 1.000000000000000000, 0.0000000000000000000, 0.0000000000000000000 ) ) ;
#151 = DIRECTION ( 'NONE',  ( -4.533764439681463500E-017, -1.000000000000000000, -0.0000000000000000000 ) ) ;
#152 = DIRECTION ( 'NONE',  ( 0.0000000000000000000, -1.000000000000000000, 0.0000000000000000000 ) ) ;
#153 = DIRECTION ( 'NONE',  ( -0.0000000000000000000, -0.0000000000000000000, -1.000000000000000000 ) ) ;
#154 = DIRECTION ( 'NONE',  ( 1.000000000000000000, 0.0000000000000000000, -1.224646799147353500E-016 ) ) ;
#155 = DIRECTION ( 'NONE',  ( -4.533764439681463500E-017, -1.000000000000000000, -0.0000000000000000000 ) ) ;
#156 = DIRECTION ( 'NONE',  ( 1.000000000000000000, -4.509980483449266800E-017, 0.0000000000000000000 ) ) ;
#157 = CARTESIAN_POINT ( 'NONE',  ( 13.99999999999999800, 0.0000000000000000000, 6.000000000000000000 ) ) ;
#158 = DIRECTION ( 'NONE',  ( 1.000000000000000000, 0.0000000000000000000, -1.224646799147353500E-016 ) ) ;
#159 = CARTESIAN_POINT ( 'NONE',  ( 0.0000000000000000000, 0.0000000000000000000, 7.000000000000000000 ) ) ;
#160 = CARTESIAN_POINT ( 'NONE',  ( -1.103613154866196000E-015, 2.999999999999999100, 0.0000000000000000000 ) ) ;
#161 = DIRECTION ( 'NONE',  ( 1.000000000000000000, -5.782411586589357400E-017, 0.0000000000000000000 ) ) ;
#162 = DIRECTION ( 'NONE',  ( 1.224646799147353200E-016, -5.552260109143997400E-033, 1.000000000000000000 ) ) ;
#163 = DIRECTION ( 'NONE',  ( -4.533764439681463500E-017, -1.000000000000000000, -0.0000000000000000000 ) ) ;
#164 = CARTESIAN_POINT ( 'NONE',  ( -1.036798136250486700E-015, 4.473720558371217800, 0.0000000000000000000 ) ) ;
#165 = DIRECTION ( 'NONE',  ( -4.533764439681463500E-017, -1.000000000000000000, -0.0000000000000000000 ) ) ;
#166 = DIRECTION ( 'NONE',  ( -4.533764439681463500E-017, -1.000000000000000000, -0.0000000000000000000 ) ) ;
#167 = DIRECTION ( 'NONE',  ( 1.224646799147353200E-016, -5.552260109143997400E-033, 1.000000000000000000 ) ) ;
#168 = CARTESIAN_POINT ( 'NONE',  ( -4.235484889139764000E-016, 18.00000000000000000, 0.0000000000000000000 ) ) ;
#169 = DIRECTION ( 'NONE',  ( 1.000000000000000000, -4.448008912761044100E-017, 0.0000000000000000000 ) ) ;
#170 = CARTESIAN_POINT ( 'NONE',  ( -10.84529946162075100, 15.99999999999999600, 1.328166127146836600E-015 ) ) ;
#171 = DIRECTION ( 'NONE',  ( 0.0000000000000000000, 0.0000000000000000000, 1.000000000000000000 ) ) ;
#172 = CARTESIAN_POINT ( 'NONE',  ( 0.0000000000000000000, 0.0000000000000000000, 6.000000000000000000 ) ) ;
#173 = DIRECTION ( 'NONE',  ( 0.0000000000000000000, 0.0000000000000000000, -1.000000000000000000 ) ) ;
#174 = CARTESIAN_POINT ( 'NONE',  ( -1.239626088056639700E-015, 0.0000000000000000000, 0.0000000000000000000 ) ) ;
#175 = DIRECTION ( 'NONE',  ( -1.000000000000000000, 0.0000000000000000000, 0.0000000000000000000 ) ) ;
#176 = DIRECTION ( 'NONE',  ( 0.0000000000000000000, 0.0000000000000000000, -1.000000000000000000 ) ) ;
#177 = CARTESIAN_POINT ( 'NONE',  ( -1.239626088056639700E-015, 0.0000000000000000000, 0.0000000000000000000 ) ) ;
#178 = DIRECTION ( 'NONE',  ( -4.533764439681463500E-017, -1.000000000000000000, -0.0000000000000000000 ) ) ;
#179 = CARTESIAN_POINT ( 'NONE',  ( 0.0000000000000000000, 0.0000000000000000000, 3.000000000000000000 ) ) ;
#180 = DIRECTION ( 'NONE',  ( 1.000000000000000000, -5.782411586589356200E-017, 0.0000000000000000000 ) ) ;
#181 = DIRECTION ( 'NONE',  ( -4.533764439681463500E-017, -1.000000000000000000, -0.0000000000000000000 ) ) ;
#182 = DIRECTION ( 'NONE',  ( -0.0000000000000000000, -0.0000000000000000000, -1.000000000000000000 ) ) ;
#183 = CARTESIAN_POINT ( 'NONE',  ( -7.500000000000000000, 0.0000000000000000000, 3.000000000000000000 ) ) ;
#184 = CARTESIAN_POINT ( 'NONE',  ( 0.0000000000000000000, 0.0000000000000000000, 6.000000000000000000 ) ) ;
#185 = CARTESIAN_POINT ( 'NONE',  ( -7.499999999999997300, 19.08034822658876100, 9.184850993605146000E-016 ) ) ;
#186 = CARTESIAN_POINT ( 'NONE',  ( -4.688861333107908600E-016, 17.00000000000000000, 0.0000000000000000000 ) ) ;
#187 = DIRECTION ( 'NONE',  ( -4.533764439681463500E-017, -1.000000000000000000, -0.0000000000000000000 ) ) ;
#188 = CARTESIAN_POINT ( 'NONE',  ( -1.103613154866196000E-015, 2.999999999999999100, 0.0000000000000000000 ) ) ;
#189 = DIRECTION ( 'NONE',  ( 0.0000000000000000000, 0.0000000000000000000, 1.000000000000000000 ) ) ;
#190 = DIRECTION ( 'NONE',  ( 1.000000000000000000, 0.0000000000000000000, 0.0000000000000000000 ) ) ;
#191 = CARTESIAN_POINT ( 'NONE',  ( 7.499999999999997300, 19.08034822658876100, 0.0000000000000000000 ) ) ;
#192 = CARTESIAN_POINT ( 'NONE',  ( -1.012937866072566700E-015, 5.000000000000000900, 0.0000000000000000000 ) ) ;
#193 = DIRECTION ( 'NONE',  ( -4.533764439681463500E-017, -1.000000000000000000, -0.0000000000000000000 ) ) ;
#194 = DIRECTION ( 'NONE',  ( 1.000000000000000000, 0.0000000000000000000, -1.224646799147353000E-016 ) ) ;
#195 = CARTESIAN_POINT ( 'NONE',  ( 6.000000000000000900, 0.0000000000000000000, 6.500000000000000900 ) ) ;
#196 = DIRECTION ( 'NONE',  ( 1.000000000000000000, 0.0000000000000000000, 0.0000000000000000000 ) ) ;
#197 = DIRECTION ( 'NONE',  ( -4.533764439681463500E-017, -1.000000000000000000, -0.0000000000000000000 ) ) ;
#198 = DIRECTION ( 'NONE',  ( 1.000000000000000000, -4.533764439681462900E-017, 0.0000000000000000000 ) ) ;
#199 = DIRECTION ( 'NONE',  ( 1.000000000000000000, -5.782411586589357400E-017, 0.0000000000000000000 ) ) ;
#200 = DIRECTION ( 'NONE',  ( 1.000000000000000000, 0.0000000000000000000, 0.0000000000000000000 ) ) ;
#201 = DIRECTION ( 'NONE',  ( -0.0000000000000000000, -0.0000000000000000000, 1.000000000000000000 ) ) ;
#202 = DIRECTION ( 'NONE',  ( 1.000000000000000000, -4.533764439681463500E-017, 0.0000000000000000000 ) ) ;
#203 = CARTESIAN_POINT ( 'NONE',  ( -3.745680451921657300E-016, 17.49999999999999600, 0.0000000000000000000 ) ) ;
#204 = DIRECTION ( 'NONE',  ( 1.224646799147353200E-016, -5.552260109143997400E-033, 1.000000000000000000 ) ) ;
#205 = CARTESIAN_POINT ( 'NONE',  ( 0.0000000000000000000, 0.0000000000000000000, 0.0000000000000000000 ) ) ;
#206 = DIRECTION ( 'NONE',  ( -0.0000000000000000000, -0.0000000000000000000, 1.000000000000000000 ) ) ;
#207 = CARTESIAN_POINT ( 'NONE',  ( -19.23205080756887900, 5.473720558371217800, 2.355246946252849500E-015 ) ) ;
#208 = DIRECTION ( 'NONE',  ( -4.533764439681463500E-017, -1.000000000000000000, -0.0000000000000000000 ) ) ;
#209 = DIRECTION ( 'NONE',  ( -4.533764439681463500E-017, -1.000000000000000000, -0.0000000000000000000 ) ) ;
#210 = DIRECTION ( 'NONE',  ( -4.533764439681463500E-017, -1.000000000000000000, -0.0000000000000000000 ) ) ;
#211 = DIRECTION ( 'NONE',  ( -0.0000000000000000000, -0.0000000000000000000, -1.000000000000000000 ) ) ;
#212 = CARTESIAN_POINT ( 'NONE',  ( -6.000000000000000900, 7.347880794884120700E-016, 6.500000000000000900 ) ) ;
#213 = DIRECTION ( 'NONE',  ( -0.0000000000000000000, -0.0000000000000000000, -1.000000000000000000 ) ) ;
#214 = DIRECTION ( 'NONE',  ( 0.0000000000000000000, 0.0000000000000000000, -1.000000000000000000 ) ) ;
#215 = DIRECTION ( 'NONE',  ( -1.000000000000000000, 0.0000000000000000000, 0.0000000000000000000 ) ) ;
#216 = CARTESIAN_POINT ( 'NONE',  ( 0.0000000000000000000, 0.0000000000000000000, 0.0000000000000000000 ) ) ;
#217 = CARTESIAN_POINT ( 'NONE',  ( 0.0000000000000000000, 0.0000000000000000000, 7.000000000000000000 ) ) ;
#218 = CARTESIAN_POINT ( 'NONE',  ( 15.00000000000000000, 1.836970198721029600E-015, 7.000000000000000000 ) ) ;
#219 = DIRECTION ( 'NONE',  ( -0.5000000000000013300, -0.8660254037844379300, 6.123233995736782100E-017 ) ) ;
#220 = DIRECTION ( 'NONE',  ( 1.000000000000000000, 0.0000000000000000000, 0.0000000000000000000 ) ) ;
#221 = CARTESIAN_POINT ( 'NONE',  ( -4.235484889139764000E-016, 18.00000000000000000, 0.0000000000000000000 ) ) ;
#222 = DIRECTION ( 'NONE',  ( -0.0000000000000000000, -0.0000000000000000000, -1.000000000000000000 ) ) ;
#223 = CARTESIAN_POINT ( 'NONE',  ( 0.0000000000000000000, 0.0000000000000000000, 7.000000000000000000 ) ) ;
#224 = CARTESIAN_POINT ( 'NONE',  ( 10.84529946162075100, 15.99999999999999600, 0.0000000000000000000 ) ) ;
#225 = DIRECTION ( 'NONE',  ( 1.000000000000000000, 0.0000000000000000000, -0.0000000000000000000 ) ) ;
#226 = DIRECTION ( 'NONE',  ( -1.000000000000000000, 1.224646799147351500E-016, 0.0000000000000000000 ) ) ;
#227 = DIRECTION ( 'NONE',  ( 0.0000000000000000000, 0.0000000000000000000, 1.000000000000000000 ) ) ;
#228 = CARTESIAN_POINT ( 'NONE',  ( 0.0000000000000000000, 0.0000000000000000000, 6.500000000000000900 ) ) ;
#229 = DIRECTION ( 'NONE',  ( 1.224646799147353200E-016, 1.000000000000000000, -0.0000000000000000000 ) ) ;
#230 = CARTESIAN_POINT ( 'NONE',  ( 0.0000000000000000000, 0.0000000000000000000, 0.0000000000000000000 ) ) ;
#231 = DIRECTION ( 'NONE',  ( -0.0000000000000000000, -0.0000000000000000000, -1.000000000000000000 ) ) ;
#232 = CARTESIAN_POINT ( 'NONE',  ( -1.012937866072566700E-015, 4.999999999999999100, 0.0000000000000000000 ) ) ;
#233 = DIRECTION ( 'NONE',  ( -4.533764439681463500E-017, -1.000000000000000000, -0.0000000000000000000 ) ) ;
#234 = DIRECTION ( 'NONE',  ( 1.000000000000000000, 0.0000000000000000000, 0.0000000000000000000 ) ) ;
#235 = DIRECTION ( 'NONE',  ( -1.000000000000000000, 0.0000000000000000000, 0.0000000000000000000 ) ) ;
#236 = DIRECTION ( 'NONE',  ( -1.000000000000000000, 0.0000000000000000000, 0.0000000000000000000 ) ) ;
#237 = DIRECTION ( 'NONE',  ( -0.0000000000000000000, -0.0000000000000000000, -1.000000000000000000 ) ) ;
#238 = DIRECTION ( 'NONE',  ( 1.000000000000000000, 0.0000000000000000000, 0.0000000000000000000 ) ) ;
#239 = DIRECTION ( 'NONE',  ( 0.0000000000000000000, 0.0000000000000000000, 1.000000000000000000 ) ) ;
#240 = CARTESIAN_POINT ( 'NONE',  ( 7.500000000000000000, 9.184850993605147900E-016, 3.000000000000000000 ) ) ;
#241 = CARTESIAN_POINT ( 'NONE',  ( -13.99999999999999800, 1.714505518806294400E-015, 6.000000000000000000 ) ) ;
#242 = DIRECTION ( 'NONE',  ( 0.0000000000000000000, 0.0000000000000000000, -1.000000000000000000 ) ) ;
#243 = DIRECTION ( 'NONE',  ( 1.000000000000000000, 0.0000000000000000000, 0.0000000000000000000 ) ) ;
#244 = DIRECTION ( 'NONE',  ( 0.0000000000000000000, 0.0000000000000000000, 1.000000000000000000 ) ) ;
#245 = DIRECTION ( 'NONE',  ( 0.0000000000000000000, 0.0000000000000000000, -1.000000000000000000 ) ) ;
#246 = DIRECTION ( 'NONE',  ( -4.533764439681463500E-017, -1.000000000000000000, -0.0000000000000000000 ) ) ;
#247 = DIRECTION ( 'NONE',  ( -4.533764439681463500E-017, -1.000000000000000000, -0.0000000000000000000 ) ) ;
#248 = DIRECTION ( 'NONE',  ( 1.000000000000000000, 0.0000000000000000000, 0.0000000000000000000 ) ) ;
#249 = CARTESIAN_POINT ( 'NONE',  ( 15.00000000000000000, 19.08034822658876100, 0.0000000000000000000 ) ) ;
#250 = DIRECTION ( 'NONE',  ( -1.000000000000000000, 0.0000000000000000000, 0.0000000000000000000 ) ) ;
#251 = PLANE ( 'NONE',  #34 ) ;
#252 = CARTESIAN_POINT ( 'NONE',  ( -15.00000000000000000, 0.0000000000000000000, 7.000000000000000000 ) ) ;
#253 = CARTESIAN_POINT ( 'NONE',  ( 0.0000000000000000000, 0.0000000000000000000, 0.0000000000000000000 ) ) ;
#254 = CARTESIAN_POINT ( 'NONE',  ( 0.0000000000000000000, 0.0000000000000000000, 3.000000000000000000 ) ) ;
#255 = DIRECTION ( 'NONE',  ( 0.0000000000000000000, 0.0000000000000000000, 1.000000000000000000 ) ) ;
#256 = DIRECTION ( 'NONE',  ( 0.0000000000000000000, 0.0000000000000000000, 1.000000000000000000 ) ) ;
#257 = CARTESIAN_POINT ( 'NONE',  ( 0.0000000000000000000, 4.473720558371212500, 0.0000000000000000000 ) ) ;
#258 = CARTESIAN_POINT ( 'NONE',  ( 7.499999999999992900, 4.999999999999999100, 0.0000000000000000000 ) ) ;
#259 = DIRECTION ( 'NONE',  ( 1.000000000000000000, 0.0000000000000000000, 0.0000000000000000000 ) ) ;
#260 = DIRECTION ( 'NONE',  ( 1.000000000000000000, -4.533764439681462900E-017, 0.0000000000000000000 ) ) ;
#261 = DIRECTION ( 'NONE',  ( 1.000000000000000000, 0.0000000000000000000, 0.0000000000000000000 ) ) ;
#262 = CARTESIAN_POINT ( 'NONE',  ( -3.745680451921657300E-016, 19.08034822658876100, 0.0000000000000000000 ) ) ;
#263 = DIRECTION ( 'NONE',  ( -4.533764439681463500E-017, -1.000000000000000000, -0.0000000000000000000 ) ) ;
#264 = CARTESIAN_POINT ( 'NONE',  ( 0.0000000000000000000, 0.0000000000000000000, 6.000000000000000000 ) ) ;
#265 = CARTESIAN_POINT ( 'NONE',  ( -3.745680451921657300E-016, 17.49999999999999600, 0.0000000000000000000 ) ) ;
#266 = DIRECTION ( 'NONE',  ( -4.533764439681463500E-017, -1.000000000000000000, -0.0000000000000000000 ) ) ;
#267 = CARTESIAN_POINT ( 'NONE',  ( 0.0000000000000000000, 15.99999999999999600, 0.0000000000000000000 ) ) ;
#268 = DIRECTION ( 'NONE',  ( -4.533764439681463500E-017, -1.000000000000000000, -0.0000000000000000000 ) ) ;
#269 = DIRECTION ( 'NONE',  ( 1.000000000000000000, 0.0000000000000000000, 0.0000000000000000000 ) ) ;
#270 = PLANE ( 'NONE',  #32 ) ;
#271 = CARTESIAN_POINT ( 'NONE',  ( -3.745680451921657300E-016, 19.08034822658876100, 0.0000000000000000000 ) ) ;
#272 = DIRECTION ( 'NONE',  ( -4.533764439681463500E-017, -1.000000000000000000, -0.0000000000000000000 ) ) ;
#273 = DIRECTION ( 'NONE',  ( -4.533764439681463500E-017, -1.000000000000000000, 0.0000000000000000000 ) ) ;
#274 = DIRECTION ( 'NONE',  ( 1.000000000000000000, -4.533764439681463500E-017, 0.0000000000000000000 ) ) ;
#275 = DIRECTION ( 'NONE',  ( 1.000000000000000000, -4.533764439681463500E-017, 0.0000000000000000000 ) ) ;
#276 = DIRECTION ( 'NONE',  ( 1.000000000000000000, 0.0000000000000000000, 0.0000000000000000000 ) ) ;
#277 = DIRECTION ( 'NONE',  ( 0.0000000000000000000, 0.0000000000000000000, 1.000000000000000000 ) ) ;
#278 = PLANE ( 'NONE',  #30 ) ;
#279 = DIRECTION ( 'NONE',  ( 1.000000000000000000, 0.0000000000000000000, -0.0000000000000000000 ) ) ;
#280 = DIRECTION ( 'NONE',  ( 1.000000000000000000, 0.0000000000000000000, 0.0000000000000000000 ) ) ;
#281 = CARTESIAN_POINT ( 'NONE',  ( 0.0000000000000000000, 0.0000000000000000000, 7.000000000000000000 ) ) ;
#282 = PLANE ( 'NONE',  #46 ) ;
#283 = CARTESIAN_POINT ( 'NONE',  ( 0.0000000000000000000, 0.0000000000000000000, 6.000000000000000000 ) ) ;
#284 = DIRECTION ( 'NONE',  ( 0.0000000000000000000, 0.0000000000000000000, 1.000000000000000000 ) ) ;
#285 = DIRECTION ( 'NONE',  ( -4.533764439681463500E-017, -1.000000000000000000, -0.0000000000000000000 ) ) ;
#286 = CARTESIAN_POINT ( 'NONE',  ( 0.0000000000000000000, 0.0000000000000000000, 6.500000000000000900 ) ) ;
#287 = DIRECTION ( 'NONE',  ( 0.0000000000000000000, 0.0000000000000000000, 1.000000000000000000 ) ) ;
#288 = DIRECTION ( 'NONE',  ( 1.000000000000000000, 0.0000000000000000000, 0.0000000000000000000 ) ) ;
#289 = CARTESIAN_POINT ( 'NONE',  ( 0.0000000000000000000, 15.99999999999999600, 0.0000000000000000000 ) ) ;
#290 = DIRECTION ( 'NONE',  ( 1.000000000000000000, -4.509980483449266800E-017, 0.0000000000000000000 ) ) ;
#291 = DIRECTION ( 'NONE',  ( 1.000000000000000000, -4.533764439681463500E-017, 0.0000000000000000000 ) ) ;
#292 = CARTESIAN_POINT ( 'NONE',  ( -3.745680451921657300E-016, 19.08034822658876100, 0.0000000000000000000 ) ) ;
#293 = DIRECTION ( 'NONE',  ( 0.0000000000000000000, 0.0000000000000000000, 1.000000000000000000 ) ) ;
#294 = DIRECTION ( 'NONE',  ( 1.000000000000000000, 0.0000000000000000000, -0.0000000000000000000 ) ) ;
#295 = DIRECTION ( 'NONE',  ( -4.533764439681463500E-017, -1.000000000000000000, -0.0000000000000000000 ) ) ;
#296 = DIRECTION ( 'NONE',  ( -4.533764439681463500E-017, -1.000000000000000000, -0.0000000000000000000 ) ) ;
#297 = CARTESIAN_POINT ( 'NONE',  ( -9.914604918536719200E-016, 5.473720558371217000, 0.0000000000000000000 ) ) ;
#298 = DIRECTION ( 'NONE',  ( 1.000000000000000000, 0.0000000000000000000, 0.0000000000000000000 ) ) ;
#299 = CARTESIAN_POINT ( 'NONE',  ( 10.84529946162075500, 18.00000000000000000, 0.0000000000000000000 ) ) ;
#300 = PLANE ( 'NONE',  #24 ) ;
#301 = DIRECTION ( 'NONE',  ( 1.000000000000000000, 0.0000000000000000000, 0.0000000000000000000 ) ) ;
#302 = DIRECTION ( 'NONE',  ( -4.533764439681463500E-017, -1.000000000000000000, -0.0000000000000000000 ) ) ;
#303 = CARTESIAN_POINT ( 'NONE',  ( -3.745680451921657300E-016, 17.49999999999999600, 0.0000000000000000000 ) ) ;
#304 = DIRECTION ( 'NONE',  ( -4.533764439681463500E-017, -1.000000000000000000, -0.0000000000000000000 ) ) ;
#305 = DIRECTION ( 'NONE',  ( 1.000000000000000000, 0.0000000000000000000, 0.0000000000000000000 ) ) ;
#306 = CARTESIAN_POINT ( 'NONE',  ( 0.0000000000000000000, 0.0000000000000000000, 6.500000000000000900 ) ) ;
#307 = CARTESIAN_POINT ( 'NONE',  ( 0.0000000000000000000, 0.0000000000000000000, 3.000000000000000000 ) ) ;
#308 = DIRECTION ( 'NONE',  ( 0.0000000000000000000, 0.0000000000000000000, 1.000000000000000000 ) ) ;
#309 = CARTESIAN_POINT ( 'NONE',  ( 7.500000000000000000, 2.999999999999998700, 0.0000000000000000000 ) ) ;
#310 = PLANE ( 'NONE',  #51 ) ;
#311 = DIRECTION ( 'NONE',  ( -4.533764439681463500E-017, -1.000000000000000000, 0.0000000000000000000 ) ) ;
#312 = CARTESIAN_POINT ( 'NONE',  ( 0.0000000000000000000, 0.0000000000000000000, 6.500000000000000900 ) ) ;
#313 = CARTESIAN_POINT ( 'NONE',  ( -9.914604918536719200E-016, 5.473720558371217000, 0.0000000000000000000 ) ) ;
#314 = DIRECTION ( 'NONE',  ( -4.533764439681463500E-017, -1.000000000000000000, -0.0000000000000000000 ) ) ;
#315 = DIRECTION ( 'NONE',  ( -1.000000000000000000, 0.0000000000000000000, 0.0000000000000000000 ) ) ;
#316 = CARTESIAN_POINT ( 'NONE',  ( -3.745680451921657300E-016, 19.08034822658876100, 0.0000000000000000000 ) ) ;
#317 = DIRECTION ( 'NONE',  ( 1.000000000000000000, 0.0000000000000000000, 0.0000000000000000000 ) ) ;
#318 = DIRECTION ( 'NONE',  ( -0.0000000000000000000, -0.0000000000000000000, -1.000000000000000000 ) ) ;
#319 = DIRECTION ( 'NONE',  ( 1.000000000000000000, -4.509980483449266800E-017, 0.0000000000000000000 ) ) ;
#320 = DIRECTION ( 'NONE',  ( 4.533764439681463500E-017, 1.000000000000000000, 0.0000000000000000000 ) ) ;
#321 = DIRECTION ( 'NONE',  ( -0.0000000000000000000, -0.0000000000000000000, 1.000000000000000000 ) ) ;
#322 = DIRECTION ( 'NONE',  ( 1.000000000000000000, -4.533764439681462900E-017, 0.0000000000000000000 ) ) ;
#323 = DIRECTION ( 'NONE',  ( -1.000000000000000000, 4.533764439681463500E-017, 0.0000000000000000000 ) ) ;
#324 = CARTESIAN_POINT ( 'NONE',  ( 0.0000000000000000000, 4.473720558371212500, 0.0000000000000000000 ) ) ;
#325 = DIRECTION ( 'NONE',  ( 1.000000000000000000, -4.533764439681463500E-017, 0.0000000000000000000 ) ) ;
#326 = DIRECTION ( 'NONE',  ( -0.0000000000000000000, -0.0000000000000000000, 1.000000000000000000 ) ) ;
#327 = DIRECTION ( 'NONE',  ( 1.000000000000000000, 0.0000000000000000000, 0.0000000000000000000 ) ) ;
#328 = CARTESIAN_POINT ( 'NONE',  ( -4.235484889139764000E-016, 18.00000000000000000, 0.0000000000000000000 ) ) ;
#329 = DIRECTION ( 'NONE',  ( 0.0000000000000000000, 0.0000000000000000000, 1.000000000000000000 ) ) ;
#330 = DIRECTION ( 'NONE',  ( 1.000000000000000000, 0.0000000000000000000, 0.0000000000000000000 ) ) ;
#331 = CARTESIAN_POINT ( 'NONE',  ( 0.0000000000000000000, 0.0000000000000000000, 6.500000000000000900 ) ) ;
#332 = DIRECTION ( 'NONE',  ( -4.533764439681463500E-017, -1.000000000000000000, -0.0000000000000000000 ) ) ;
#333 = DIRECTION ( 'NONE',  ( 1.000000000000000000, 0.0000000000000000000, 0.0000000000000000000 ) ) ;
#334 = CARTESIAN_POINT ( 'NONE',  ( -4.688861333107908600E-016, 17.00000000000000000, 0.0000000000000000000 ) ) ;
#335 = DIRECTION ( 'NONE',  ( -4.533764439681463500E-017, -1.000000000000000000, -0.0000000000000000000 ) ) ;
#336 = DIRECTION ( 'NONE',  ( 0.0000000000000000000, 0.0000000000000000000, -1.000000000000000000 ) ) ;
#337 = DIRECTION ( 'NONE',  ( -1.000000000000000000, 0.0000000000000000000, 0.0000000000000000000 ) ) ;
#338 = CARTESIAN_POINT ( 'NONE',  ( 17.50000000000000000, 4.473720558371211600, 0.0000000000000000000 ) ) ;
#339 = DIRECTION ( 'NONE',  ( 1.000000000000000000, 0.0000000000000000000, 0.0000000000000000000 ) ) ;
#340 = DIRECTION ( 'NONE',  ( 1.000000000000000000, 0.0000000000000000000, 0.0000000000000000000 ) ) ;
#341 = CARTESIAN_POINT ( 'NONE',  ( -1.036798136250486700E-015, 4.473720558371217800, 0.0000000000000000000 ) ) ;
#342 = DIRECTION ( 'NONE',  ( 1.000000000000000000, -4.448008912761044100E-017, 0.0000000000000000000 ) ) ;
#343 = DIRECTION ( 'NONE',  ( -4.533764439681463500E-017, -1.000000000000000000, -0.0000000000000000000 ) ) ;
#344 = CARTESIAN_POINT ( 'NONE',  ( -4.235484889139764000E-016, 18.00000000000000000, 0.0000000000000000000 ) ) ;
#345 = DIRECTION ( 'NONE',  ( -4.533764439681463500E-017, -1.000000000000000000, -0.0000000000000000000 ) ) ;
#346 = DIRECTION ( 'NONE',  ( 1.000000000000000000, 0.0000000000000000000, 0.0000000000000000000 ) ) ;
#347 = DIRECTION ( 'NONE',  ( 0.0000000000000000000, 0.0000000000000000000, -1.000000000000000000 ) ) ;
#348 = DIRECTION ( 'NONE',  ( 1.000000000000000000, 0.0000000000000000000, 0.0000000000000000000 ) ) ;
#349 = DIRECTION ( 'NONE',  ( 1.000000000000000000, -4.533764439681463500E-017, 0.0000000000000000000 ) ) ;
#350 = CARTESIAN_POINT ( 'NONE',  ( 0.0000000000000000000, 0.0000000000000000000, 0.0000000000000000000 ) ) ;
#351 = CARTESIAN_POINT ( 'NONE',  ( 0.0000000000000000000, 0.0000000000000000000, 7.000000000000000000 ) ) ;
#352 = DIRECTION ( 'NONE',  ( 0.0000000000000000000, 0.0000000000000000000, 1.000000000000000000 ) ) ;
#353 = CARTESIAN_POINT ( 'NONE',  ( -1.239626088056639700E-015, 0.0000000000000000000, 0.0000000000000000000 ) ) ;
#354 = DIRECTION ( 'NONE',  ( -4.533764439681463500E-017, -1.000000000000000000, -0.0000000000000000000 ) ) ;
#355 = CARTESIAN_POINT ( 'NONE',  ( -19.50000000000000000, 19.08034822658876100, 2.388061258337338900E-015 ) ) ;
#356 = CARTESIAN_POINT ( 'NONE',  ( -3.745680451921657300E-016, 17.49999999999999600, 0.0000000000000000000 ) ) ;
#357 = DIRECTION ( 'NONE',  ( 0.0000000000000000000, 0.0000000000000000000, 1.000000000000000000 ) ) ;
#358 = CC_DESIGN_APPROVAL ( #387, ( #380 ) ) ;
#359 = AXIS2_PLACEMENT_3D ( 'NONE', #549, #553, #554 ) ;
#360 = CC_DESIGN_PERSON_AND_ORGANIZATION_ASSIGNMENT ( #978, #611, ( #368 ) ) ;
#361 = PRODUCT_DEFINITION ( 'UNKNOWN', '', #368, #883 ) ;
#362 = SECURITY_CLASSIFICATION ( '', '', #593 ) ;
#363 = CC_DESIGN_PERSON_AND_ORGANIZATION_ASSIGNMENT ( #993, #573, ( #380 ) ) ;
#364 = CC_DESIGN_PERSON_AND_ORGANIZATION_ASSIGNMENT ( #965, #577, ( #117 ) ) ;
#365 = CC_DESIGN_DATE_AND_TIME_ASSIGNMENT ( #947, #571, ( #361 ) ) ;
#366 = CC_DESIGN_APPROVAL ( #377, ( #362 ) ) ;
#367 = CC_DESIGN_APPROVAL ( #371, ( #361 ) ) ;
#368 = PRODUCT_DEFINITION_FORMATION_WITH_SPECIFIED_SOURCE ( 'ANY', '', #117, .NOT_KNOWN. ) ;
#369 = CC_DESIGN_APPROVAL ( #384, ( #368 ) ) ;
#370 = CC_DESIGN_PERSON_AND_ORGANIZATION_ASSIGNMENT ( #1010, #591, ( #121 ) ) ;
#371 = APPROVAL ( #597, 'UNSPECIFIED' ) ;
#372 =( GEOMETRIC_REPRESENTATION_CONTEXT ( 3 ) GLOBAL_UNCERTAINTY_ASSIGNED_CONTEXT ( ( #424 ) ) GLOBAL_UNIT_ASSIGNED_CONTEXT ( ( #542, #544, #545 ) ) REPRESENTATION_CONTEXT ( 'NONE', 'WORKASPACE' ) );
#373 = PRODUCT_DEFINITION ( 'UNKNOWN', '', #380, #886 ) ;
#374 = CC_DESIGN_PERSON_AND_ORGANIZATION_ASSIGNMENT ( #963, #565, ( #361 ) ) ;
#375 = CC_DESIGN_PERSON_AND_ORGANIZATION_ASSIGNMENT ( #1006, #562, ( #362 ) ) ;
#376 = CC_DESIGN_DATE_AND_TIME_ASSIGNMENT ( #989, #561, ( #362 ) ) ;
#377 = APPROVAL ( #598, 'UNSPECIFIED' ) ;
#378 = CC_DESIGN_PERSON_AND_ORGANIZATION_ASSIGNMENT ( #1007, #560, ( #373 ) ) ;
#379 = CC_DESIGN_DATE_AND_TIME_ASSIGNMENT ( #1001, #572, ( #373 ) ) ;
#380 = PRODUCT_DEFINITION_FORMATION_WITH_SPECIFIED_SOURCE ( 'ANY', '', #121, .NOT_KNOWN. ) ;
#381 = CC_DESIGN_APPROVAL ( #383, ( #373 ) ) ;
#382 = AXIS2_PLACEMENT_3D ( 'NONE', #539, #540, #541 ) ;
#383 = APPROVAL ( #576, 'UNSPECIFIED' ) ;
#384 = APPROVAL ( #600, 'UNSPECIFIED' ) ;
#385 = CC_DESIGN_SECURITY_CLASSIFICATION ( #362, ( #368 ) ) ;
#386 = PRODUCT_RELATED_PRODUCT_CATEGORY ( 'detail', '', ( #117 ) ) ;
#387 = APPROVAL ( #601, 'UNSPECIFIED' ) ;
#388 = CC_DESIGN_PERSON_AND_ORGANIZATION_ASSIGNMENT ( #969, #579, ( #368 ) ) ;
#389 = CC_DESIGN_PERSON_AND_ORGANIZATION_ASSIGNMENT ( #1013, #592, ( #380 ) ) ;
#390 = SECURITY_CLASSIFICATION ( '', '', #596 ) ;
#391 = CC_DESIGN_PERSON_AND_ORGANIZATION_ASSIGNMENT ( #1011, #613, ( #390 ) ) ;
#392 = PRODUCT_RELATED_PRODUCT_CATEGORY ( 'detail', '', ( #121 ) ) ;
#393 = CC_DESIGN_PERSON_AND_ORGANIZATION_ASSIGNMENT ( #1053, #610, ( #402 ) ) ;
#394 = CC_DESIGN_APPROVAL ( #409, ( #406 ) ) ;
#395 = CC_DESIGN_PERSON_AND_ORGANIZATION_ASSIGNMENT ( #1018, #622, ( #414 ) ) ;
#396 = CC_DESIGN_DATE_AND_TIME_ASSIGNMENT ( #970, #602, ( #390 ) ) ;
#397 = CC_DESIGN_SECURITY_CLASSIFICATION ( #390, ( #380 ) ) ;
#398 = CC_DESIGN_PERSON_AND_ORGANIZATION_ASSIGNMENT ( #1069, #575, ( #120 ) ) ;
#399 = APPROVAL ( #603, 'UNSPECIFIED' ) ;
#400 = APPROVAL ( #582, 'UNSPECIFIED' ) ;
#401 = CC_DESIGN_APPROVAL ( #400, ( #419 ) ) ;
#402 = PRODUCT_DEFINITION_FORMATION_WITH_SPECIFIED_SOURCE ( 'ANY', '', #120, .NOT_KNOWN. ) ;
#403 = CC_DESIGN_SECURITY_CLASSIFICATION ( #414, ( #1084 ) ) ;
#404 = APPROVAL ( #606, 'UNSPECIFIED' ) ;
#405 = CC_DESIGN_PERSON_AND_ORGANIZATION_ASSIGNMENT ( #1057, #609, ( #402 ) ) ;
#406 = SECURITY_CLASSIFICATION ( '', '', #612 ) ;
#407 = CC_DESIGN_PERSON_AND_ORGANIZATION_ASSIGNMENT ( #1047, #614, ( #406 ) ) ;
#408 = CC_DESIGN_DATE_AND_TIME_ASSIGNMENT ( #1024, #618, ( #406 ) ) ;
#409 = APPROVAL ( #615, 'UNSPECIFIED' ) ;
#410 = CC_DESIGN_SECURITY_CLASSIFICATION ( #406, ( #402 ) ) ;
#411 = CC_DESIGN_PERSON_AND_ORGANIZATION_ASSIGNMENT ( #1040, #585, ( #419 ) ) ;
#412 = PRODUCT_RELATED_PRODUCT_CATEGORY ( 'detail', '', ( #120 ) ) ;
#413 = CC_DESIGN_APPROVAL ( #404, ( #402 ) ) ;
#414 = SECURITY_CLASSIFICATION ( '', '', #616 ) ;
#415 = APPROVAL ( #619, 'UNKNOWN' ) ;
#416 = CC_DESIGN_APPROVAL ( #415, ( #414 ) ) ;
#417 = CC_DESIGN_DATE_AND_TIME_ASSIGNMENT ( #1028, #624, ( #414 ) ) ;
#418 = CC_DESIGN_APPROVAL ( #399, ( #390 ) ) ;
#419 = PRODUCT_DEFINITION ( 'UNKNOWN', '', #402, #890 ) ;
#420 = CC_DESIGN_DATE_AND_TIME_ASSIGNMENT ( #1041, #594, ( #419 ) ) ;
#421 = MANIFOLD_SOLID_BREP ( 'Revolve1', #711 ) ;
#422 = UNCERTAINTY_MEASURE_WITH_UNIT (LENGTH_MEASURE( 1.000000000000000100E-005 ), #529, 'distance_accuracy_value', 'NONE');
#423 = ADVANCED_BREP_SHAPE_REPRESENTATION ( '', ( #426, #57 ), #59 ) ;
#424 = UNCERTAINTY_MEASURE_WITH_UNIT (LENGTH_MEASURE( 1.000000000000000100E-005 ), #542, 'distance_accuracy_value', 'NONE');
#425 = ADVANCED_BREP_SHAPE_REPRESENTATION ( '', ( #421, #57 ), #55 ) ;
#426 = MANIFOLD_SOLID_BREP ( 'Cut-Extrude2', #639 ) ;
#427 = UNCERTAINTY_MEASURE_WITH_UNIT (LENGTH_MEASURE( 1.000000000000000100E-005 ), #526, 'distance_accuracy_value', 'NONE');
#428 = EDGE_CURVE ( 'NONE', #775, #793, #835, .T. ) ;
#429 = EDGE_CURVE ( 'NONE', #797, #792, #852, .T. ) ;
#430 = EDGE_CURVE ( 'NONE', #770, #775, #851, .T. ) ;
#431 = EDGE_CURVE ( 'NONE', #795, #780, #829, .T. ) ;
#432 = EDGE_CURVE ( 'NONE', #783, #786, #854, .T. ) ;
#433 = EDGE_CURVE ( 'NONE', #777, #809, #855, .T. ) ;
#434 = EDGE_CURVE ( 'NONE', #773, #793, #858, .T. ) ;
#435 = EDGE_CURVE ( 'NONE', #788, #774, #861, .T. ) ;
#436 = EDGE_CURVE ( 'NONE', #781, #796, #880, .T. ) ;
#437 = EDGE_CURVE ( 'NONE', #811, #801, #867, .T. ) ;
#438 = EDGE_CURVE ( 'NONE', #803, #787, #868, .T. ) ;
#439 = EDGE_CURVE ( 'NONE', #802, #779, #866, .T. ) ;
#440 = EDGE_CURVE ( 'NONE', #802, #781, #871, .T. ) ;
#441 = EDGE_CURVE ( 'NONE', #782, #803, #860, .T. ) ;
#442 = EDGE_CURVE ( 'NONE', #787, #776, #865, .T. ) ;
#443 = EDGE_CURVE ( 'NONE', #778, #800, #873, .T. ) ;
#444 = EDGE_CURVE ( 'NONE', #782, #808, #875, .T. ) ;
#445 = EDGE_CURVE ( 'NONE', #780, #801, #879, .T. ) ;
#446 = EDGE_CURVE ( 'NONE', #795, #798, #870, .T. ) ;
#447 = EDGE_CURVE ( 'NONE', #794, #798, #881, .T. ) ;
#448 = EDGE_CURVE ( 'NONE', #779, #796, #877, .T. ) ;
#449 = EDGE_CURVE ( 'NONE', #774, #800, #876, .T. ) ;
#450 = EDGE_CURVE ( 'NONE', #792, #786, #859, .T. ) ;
#451 = EDGE_CURVE ( 'NONE', #770, #773, #814, .T. ) ;
#452 = EDGE_CURVE ( 'NONE', #800, #774, #856, .T. ) ;
#453 = EDGE_CURVE ( 'NONE', #795, #811, #813, .T. ) ;
#454 = ADVANCED_FACE ( 'NONE', ( #910, #899 ), #251, .F. ) ;
#455 = ADVANCED_FACE ( 'NONE', ( #927 ), #931, .T. ) ;
#456 = ADVANCED_FACE ( 'NONE', ( #917, #924 ), #278, .T. ) ;
#457 = ADVANCED_FACE ( 'NONE', ( #925 ), #896, .T. ) ;
#458 = ADVANCED_FACE ( 'NONE', ( #901 ), #941, .T. ) ;
#459 = ADVANCED_FACE ( 'NONE', ( #942 ), #928, .T. ) ;
#460 = ADVANCED_FACE ( 'NONE', ( #903 ), #906, .T. ) ;
#461 = ADVANCED_FACE ( 'NONE', ( #929 ), #894, .F. ) ;
#462 = ADVANCED_FACE ( 'NONE', ( #900 ), #904, .F. ) ;
#463 = ADVANCED_FACE ( 'NONE', ( #916 ), #908, .T. ) ;
#464 = ADVANCED_FACE ( 'NONE', ( #918 ), #905, .T. ) ;
#465 = ADVANCED_FACE ( 'NONE', ( #897 ), #926, .T. ) ;
#466 = ADVANCED_FACE ( 'NONE', ( #891, #932 ), #270, .T. ) ;
#467 = ADVANCED_FACE ( 'NONE', ( #911 ), #282, .T. ) ;
#468 = ADVANCED_FACE ( 'NONE', ( #933 ), #909, .F. ) ;
#469 = ADVANCED_FACE ( 'NONE', ( #898 ), #914, .F. ) ;
#470 = ADVANCED_FACE ( 'NONE', ( #907 ), #915, .T. ) ;
#471 = ADVANCED_FACE ( 'NONE', ( #943 ), #937, .T. ) ;
#472 = ADVANCED_FACE ( 'NONE', ( #934 ), #939, .F. ) ;
#473 = ADVANCED_FACE ( 'NONE', ( #945 ), #895, .F. ) ;
#474 = ADVANCED_FACE ( 'NONE', ( #938, #902 ), #310, .T. ) ;
#475 = ADVANCED_FACE ( 'NONE', ( #940 ), #300, .T. ) ;
#476 = ADVANCED_FACE ( 'NONE', ( #944 ), #913, .F. ) ;
#477 = ADVANCED_FACE ( 'NONE', ( #920 ), #892, .F. ) ;
#478 = ADVANCED_FACE ( 'NONE', ( #930 ), #919, .T. ) ;
#479 = ADVANCED_FACE ( 'NONE', ( #921 ), #893, .T. ) ;
#480 = ADVANCED_FACE ( 'NONE', ( #912, #923 ), #495, .T. ) ;
#481 = ADVANCED_FACE ( 'NONE', ( #936 ), #496, .T. ) ;
#482 = ADVANCED_FACE ( 'NONE', ( #922 ), #946, .T. ) ;
#483 = ADVANCED_FACE ( 'NONE', ( #935 ), #950, .T. ) ;
#484 = DIRECTION ( 'NONE',  ( 1.000000000000000000, -4.533764439681463500E-017, 0.0000000000000000000 ) ) ;
#485 = CARTESIAN_POINT ( 'NONE',  ( 0.0000000000000000000, 0.0000000000000000000, 7.000000000000000000 ) ) ;
#486 = CARTESIAN_POINT ( 'NONE',  ( 15.00000000000000000, 1.020096998928330200E-016, 0.0000000000000000000 ) ) ;
#487 = DIRECTION ( 'NONE',  ( -4.533764439681463500E-017, -1.000000000000000000, 0.0000000000000000000 ) ) ;
#488 = DIRECTION ( 'NONE',  ( -1.000000000000000000, 0.0000000000000000000, -0.0000000000000000000 ) ) ;
#489 = CARTESIAN_POINT ( 'NONE',  ( -3.745680451921657300E-016, 19.08034822658876100, 0.0000000000000000000 ) ) ;
#490 = CARTESIAN_POINT ( 'NONE',  ( 7.499999999999992900, 4.999999999999999100, 0.0000000000000000000 ) ) ;
#491 = DIRECTION ( 'NONE',  ( -1.000000000000000000, 0.0000000000000000000, 0.0000000000000000000 ) ) ;
#492 = CARTESIAN_POINT ( 'NONE',  ( 7.500000000000000000, 9.184850993605147900E-016, 3.000000000000000000 ) ) ;
#493 = DIRECTION ( 'NONE',  ( 0.0000000000000000000, 0.0000000000000000000, -1.000000000000000000 ) ) ;
#494 = DIRECTION ( 'NONE',  ( -1.000000000000000000, 0.0000000000000000000, 0.0000000000000000000 ) ) ;
#495 = PLANE ( 'NONE',  #54 ) ;
#496 = PLANE ( 'NONE',  #9 ) ;
#497 = CARTESIAN_POINT ( 'NONE',  ( 0.0000000000000000000, 0.0000000000000000000, 7.000000000000000000 ) ) ;
#498 = DIRECTION ( 'NONE',  ( 1.000000000000000000, 0.0000000000000000000, 0.0000000000000000000 ) ) ;
#499 = CARTESIAN_POINT ( 'NONE',  ( -7.499999999999994700, 4.999999999999999100, 9.184850993605144000E-016 ) ) ;
#500 = DIRECTION ( 'NONE',  ( -0.0000000000000000000, -0.0000000000000000000, -1.000000000000000000 ) ) ;
#501 = DIRECTION ( 'NONE',  ( -4.533764439681463500E-017, -1.000000000000000000, -0.0000000000000000000 ) ) ;
#502 = DIRECTION ( 'NONE',  ( -0.0000000000000000000, -0.0000000000000000000, -1.000000000000000000 ) ) ;
#503 = CARTESIAN_POINT ( 'NONE',  ( -19.23205080756887900, 5.473720558371217800, 2.371654102295094000E-015 ) ) ;
#504 = CARTESIAN_POINT ( 'NONE',  ( -7.483314773547881800, 18.00000000000000000, 9.164417484437514200E-016 ) ) ;
#505 = CARTESIAN_POINT ( 'NONE',  ( 15.00000000000000000, 1.836970198721029600E-015, 6.000000000000000000 ) ) ;
#506 = CARTESIAN_POINT ( 'NONE',  ( -6.000000000000000900, 7.347880794884120700E-016, 7.000000000000000000 ) ) ;
#507 = CARTESIAN_POINT ( 'NONE',  ( 6.000000000000000900, 0.0000000000000000000, 6.500000000000000900 ) ) ;
#508 = CARTESIAN_POINT ( 'NONE',  ( 10.84529946162075500, 18.00000000000000000, 0.0000000000000000000 ) ) ;
#509 = CARTESIAN_POINT ( 'NONE',  ( -7.500000000000000000, 0.0000000000000000000, 0.0000000000000000000 ) ) ;
#510 = CARTESIAN_POINT ( 'NONE',  ( 7.500000000000000000, 2.999999999999998700, 0.0000000000000000000 ) ) ;
#511 = CARTESIAN_POINT ( 'NONE',  ( 0.0000000000000000000, 0.0000000000000000000, 3.000000000000000000 ) ) ;
#512 = CARTESIAN_POINT ( 'NONE',  ( -19.50000000000000000, 8.840840657378853200E-016, 2.388061258337338900E-015 ) ) ;
#513 = CARTESIAN_POINT ( 'NONE',  ( -15.00000000000000000, 5.000000000000001800, 1.836970198721029600E-015 ) ) ;
#514 = CARTESIAN_POINT ( 'NONE',  ( 12.57735026918962600, 17.00000000000000000, 0.0000000000000000000 ) ) ;
#515 = CARTESIAN_POINT ( 'NONE',  ( 19.23205080756887900, 5.473720558371216100, 0.0000000000000000000 ) ) ;
#516 = CARTESIAN_POINT ( 'NONE',  ( -19.50000000000000000, 4.473720558371218700, 2.388061258337338900E-015 ) ) ;
#517 = CARTESIAN_POINT ( 'NONE',  ( 14.99999999999999600, 5.000000000000000000, 0.0000000000000000000 ) ) ;
#518 = CARTESIAN_POINT ( 'NONE',  ( -7.500000000000001800, 2.999999999999999600, 9.184850993605149900E-016 ) ) ;
#519 = CARTESIAN_POINT ( 'NONE',  ( 7.500000000000000000, 9.184850993605147900E-016, 0.0000000000000000000 ) ) ;
#520 = CARTESIAN_POINT ( 'NONE',  ( -10.84529946162075500, 18.00000000000000000, 1.434223651019327200E-015 ) ) ;
#521 = CARTESIAN_POINT ( 'NONE',  ( -15.00000000000000000, 0.0000000000000000000, 0.0000000000000000000 ) ) ;
#522 = CARTESIAN_POINT ( 'NONE',  ( -7.500000000000000000, 0.0000000000000000000, 3.000000000000000000 ) ) ;
#523 = CARTESIAN_POINT ( 'NONE',  ( 7.483314773547881800, 18.00000000000000000, 0.0000000000000000000 ) ) ;
#524 = CARTESIAN_POINT ( 'NONE',  ( 19.50000000000000000, 4.473720558371217000, 0.0000000000000000000 ) ) ;
#525 = CARTESIAN_POINT ( 'NONE',  ( -6.000000000000000900, 7.347880794884120700E-016, 6.500000000000000900 ) ) ;
#526 =( LENGTH_UNIT ( ) NAMED_UNIT ( * ) SI_UNIT ( .MILLI., .METRE. ) );
#527 = CARTESIAN_POINT ( 'NONE',  ( 14.99999999999999800, -6.800646659522195000E-016, 0.0000000000000000000 ) ) ;
#528 =( NAMED_UNIT ( * ) PLANE_ANGLE_UNIT ( ) SI_UNIT ( $, .RADIAN. ) );
#529 =( LENGTH_UNIT ( ) NAMED_UNIT ( * ) SI_UNIT ( .MILLI., .METRE. ) );
#530 =( NAMED_UNIT ( * ) SI_UNIT ( $, .STERADIAN. ) SOLID_ANGLE_UNIT ( ) );
#531 = DIRECTION ( 'NONE',  ( 0.0000000000000000000, 0.0000000000000000000, 1.000000000000000000 ) ) ;
#532 = CARTESIAN_POINT ( 'NONE',  ( -15.00000000000000200, 6.800646659522195000E-016, 1.836970198721029600E-015 ) ) ;
#533 = DIRECTION ( 'NONE',  ( 1.000000000000000000, 0.0000000000000000000, 0.0000000000000000000 ) ) ;
#534 = CARTESIAN_POINT ( 'NONE',  ( -13.99999999999999800, 1.775737858763662000E-015, 7.000000000000000000 ) ) ;
#535 = CARTESIAN_POINT ( 'NONE',  ( 19.50000000000000000, -8.840840657378853200E-016, 0.0000000000000000000 ) ) ;
#536 = CARTESIAN_POINT ( 'NONE',  ( -2.553578284880180800E-016, 9.999999999999998200, 0.0000000000000000000 ) ) ;
#537 = CARTESIAN_POINT ( 'NONE',  ( -12.57735026918962600, 17.00000000000000000, 1.947764060572333600E-015 ) ) ;
#538 = CARTESIAN_POINT ( 'NONE',  ( 0.7214085082978272100, -10.16859372911903800, 0.4132478989049559500 ) ) ;
#539 = CARTESIAN_POINT ( 'NONE',  ( 0.7214085082978254300, -5.168593729119039400, 0.4132478989049559500 ) ) ;
#540 = DIRECTION ( 'NONE',  ( -4.533764439681463500E-017, -1.000000000000000000, 0.0000000000000000000 ) ) ;
#541 = DIRECTION ( 'NONE',  ( 1.000000000000000000, -4.533764439681463500E-017, 4.533764439681463500E-017 ) ) ;
#542 =( LENGTH_UNIT ( ) NAMED_UNIT ( * ) SI_UNIT ( .MILLI., .METRE. ) );
#543 = DIRECTION ( 'NONE',  ( 0.0000000000000000000, 0.0000000000000000000, 1.000000000000000000 ) ) ;
#544 =( NAMED_UNIT ( * ) PLANE_ANGLE_UNIT ( ) SI_UNIT ( $, .RADIAN. ) );
#545 =( NAMED_UNIT ( * ) SI_UNIT ( $, .STERADIAN. ) SOLID_ANGLE_UNIT ( ) );
#546 = DIRECTION ( 'NONE',  ( 1.000000000000000000, 0.0000000000000000000, 0.0000000000000000000 ) ) ;
#547 = DIRECTION ( 'NONE',  ( 1.000000000000000000, 0.0000000000000000000, 0.0000000000000000000 ) ) ;
#548 = CARTESIAN_POINT ( 'NONE',  ( 0.0000000000000000000, 0.0000000000000000000, 0.0000000000000000000 ) ) ;
#549 = CARTESIAN_POINT ( 'NONE',  ( 0.0000000000000000000, 0.0000000000000000000, 0.0000000000000000000 ) ) ;
#550 =( NAMED_UNIT ( * ) PLANE_ANGLE_UNIT ( ) SI_UNIT ( $, .RADIAN. ) );
#551 =( NAMED_UNIT ( * ) SI_UNIT ( $, .STERADIAN. ) SOLID_ANGLE_UNIT ( ) );
#552 = CARTESIAN_POINT ( 'NONE',  ( 0.0000000000000000000, 0.0000000000000000000, 0.0000000000000000000 ) ) ;
#553 = DIRECTION ( 'NONE',  ( 0.0000000000000000000, 0.0000000000000000000, 1.000000000000000000 ) ) ;
#554 = DIRECTION ( 'NONE',  ( 1.000000000000000000, 0.0000000000000000000, 0.0000000000000000000 ) ) ;
#555 = CARTESIAN_POINT ( 'NONE',  ( -15.00000000000000000, 0.0000000000000000000, 6.000000000000000000 ) ) ;
#556 = CARTESIAN_POINT ( 'NONE',  ( 13.99999999999999800, 0.0000000000000000000, 7.000000000000000000 ) ) ;
#557 = CARTESIAN_POINT ( 'NONE',  ( 6.000000000000000900, 0.0000000000000000000, 7.000000000000000000 ) ) ;
#558 = DIRECTION ( 'NONE',  ( 0.0000000000000000000, 0.0000000000000000000, 1.000000000000000000 ) ) ;
#559 = CARTESIAN_POINT ( 'NONE',  ( 15.00000000000000000, 1.836970198721029600E-015, 0.0000000000000000000 ) ) ;
#560 = PERSON_AND_ORGANIZATION_ROLE ( 'creator' ) ;
#561 = DATE_TIME_ROLE ( 'classification_date' ) ;
#562 = PERSON_AND_ORGANIZATION_ROLE ( 'classification_officer' ) ;
#563 = APPROVAL_ROLE ( '' ) ;
#564 = APPLICATION_PROTOCOL_DEFINITION ( 'international standard', 'config_control_design', 1994, #617 ) ;
#565 = PERSON_AND_ORGANIZATION_ROLE ( 'creator' ) ;
#566 = MECHANICAL_CONTEXT ( 'NONE', #617, 'mechanical' ) ;
#567 = APPROVAL_ROLE ( '' ) ;
#568 = APPLICATION_PROTOCOL_DEFINITION ( 'international standard', 'config_control_design', 1994, #587 ) ;
#569 = MECHANICAL_CONTEXT ( 'NONE', #607, 'mechanical' ) ;
#570 = APPLICATION_CONTEXT ( 'configuration controlled 3d designs of mechanical parts and assemblies' ) ;
#571 = DATE_TIME_ROLE ( 'creation_date' ) ;
#572 = DATE_TIME_ROLE ( 'creation_date' ) ;
#573 = PERSON_AND_ORGANIZATION_ROLE ( 'creator' ) ;
#574 = APPLICATION_PROTOCOL_DEFINITION ( 'international standard', 'config_control_design', 1994, #580 ) ;
#575 = PERSON_AND_ORGANIZATION_ROLE ( 'design_owner' ) ;
#576 = APPROVAL_STATUS ( 'not_yet_approved' ) ;
#577 = PERSON_AND_ORGANIZATION_ROLE ( 'design_owner' ) ;
#578 = APPLICATION_CONTEXT ( 'configuration controlled 3d designs of mechanical parts and assemblies' ) ;
#579 = PERSON_AND_ORGANIZATION_ROLE ( 'design_supplier' ) ;
#580 = APPLICATION_CONTEXT ( 'configuration controlled 3d designs of mechanical parts and assemblies' ) ;
#581 = APPLICATION_PROTOCOL_DEFINITION ( 'international standard', 'config_control_design', 1994, #578 ) ;
#582 = APPROVAL_STATUS ( 'not_yet_approved' ) ;
#583 = APPROVAL_ROLE ( '' ) ;
#584 = APPLICATION_PROTOCOL_DEFINITION ( 'international standard', 'config_control_design', 1994, #607 ) ;
#585 = PERSON_AND_ORGANIZATION_ROLE ( 'creator' ) ;
#586 = MECHANICAL_CONTEXT ( 'NONE', #580, 'mechanical' ) ;
#587 = APPLICATION_CONTEXT ( 'configuration controlled 3d designs of mechanical parts and assemblies' ) ;
#588 = APPROVAL_ROLE ( '' ) ;
#589 = APPROVAL_ROLE ( '' ) ;
#590 = APPROVAL_ROLE ( '' ) ;
#591 = PERSON_AND_ORGANIZATION_ROLE ( 'design_owner' ) ;
#592 = PERSON_AND_ORGANIZATION_ROLE ( 'design_supplier' ) ;
#593 = SECURITY_CLASSIFICATION_LEVEL ( 'unclassified' ) ;
#594 = DATE_TIME_ROLE ( 'creation_date' ) ;
#595 = APPROVAL_ROLE ( '' ) ;
#596 = SECURITY_CLASSIFICATION_LEVEL ( 'unclassified' ) ;
#597 = APPROVAL_STATUS ( 'not_yet_approved' ) ;
#598 = APPROVAL_STATUS ( 'not_yet_approved' ) ;
#599 = APPLICATION_PROTOCOL_DEFINITION ( 'international standard', 'config_control_design', 1994, #570 ) ;
#600 = APPROVAL_STATUS ( 'not_yet_approved' ) ;
#601 = APPROVAL_STATUS ( 'not_yet_approved' ) ;
#602 = DATE_TIME_ROLE ( 'classification_date' ) ;
#603 = APPROVAL_STATUS ( 'not_yet_approved' ) ;
#604 = APPROVAL_ROLE ( '' ) ;
#605 =( REPRESENTATION_RELATIONSHIP ('NONE','NONE', #115, #114 ) REPRESENTATION_RELATIONSHIP_WITH_TRANSFORMATION ( #1066 )SHAPE_REPRESENTATION_RELATIONSHIP( ) );
#606 = APPROVAL_STATUS ( 'not_yet_approved' ) ;
#607 = APPLICATION_CONTEXT ( 'configuration controlled 3d designs of mechanical parts and assemblies' ) ;
#608 = APPROVAL_ROLE ( '' ) ;
#609 = PERSON_AND_ORGANIZATION_ROLE ( 'creator' ) ;
#610 = PERSON_AND_ORGANIZATION_ROLE ( 'design_supplier' ) ;
#611 = PERSON_AND_ORGANIZATION_ROLE ( 'creator' ) ;
#612 = SECURITY_CLASSIFICATION_LEVEL ( 'unclassified' ) ;
#613 = PERSON_AND_ORGANIZATION_ROLE ( 'classification_officer' ) ;
#614 = PERSON_AND_ORGANIZATION_ROLE ( 'classification_officer' ) ;
#615 = APPROVAL_STATUS ( 'not_yet_approved' ) ;
#616 = SECURITY_CLASSIFICATION_LEVEL ( 'unclassified' ) ;
#617 = APPLICATION_CONTEXT ( 'configuration controlled 3d designs of mechanical parts and assemblies' ) ;
#618 = DATE_TIME_ROLE ( 'classification_date' ) ;
#619 = APPROVAL_STATUS ( 'not_yet_approved' ) ;
#620 = APPROVAL_ROLE ( '' ) ;
#621 = SECURITY_CLASSIFICATION_LEVEL ( 'unclassified' ) ;
#622 = PERSON_AND_ORGANIZATION_ROLE ( 'classification_officer' ) ;
#623 = APPROVAL_STATUS ( 'not_yet_approved' ) ;
#624 = DATE_TIME_ROLE ( 'classification_date' ) ;
#625 = PERSON_AND_ORGANIZATION_ROLE ( 'classification_officer' ) ;
#626 = APPROVAL_ROLE ( '' ) ;
#627 = DATE_TIME_ROLE ( 'classification_date' ) ;
#628 =( REPRESENTATION_RELATIONSHIP ('NONE','NONE', #115, #116 ) REPRESENTATION_RELATIONSHIP_WITH_TRANSFORMATION ( #1052 )SHAPE_REPRESENTATION_RELATIONSHIP( ) );
#629 = EDGE_LOOP ( 'NONE', ( #748, #701, #712, #698 ) ) ;
#630 = EDGE_LOOP ( 'NONE', ( #706, #660, #670, #678 ) ) ;
#631 = EDGE_LOOP ( 'NONE', ( #684, #674 ) ) ;
#632 = EDGE_LOOP ( 'NONE', ( #690, #675, #699, #688 ) ) ;
#633 = EDGE_LOOP ( 'NONE', ( #731, #709 ) ) ;
#634 = EDGE_LOOP ( 'NONE', ( #726, #771 ) ) ;
#635 = EDGE_LOOP ( 'NONE', ( #658, #683, #667, #694 ) ) ;
#636 = EDGE_LOOP ( 'NONE', ( #691, #676 ) ) ;
#637 = EDGE_LOOP ( 'NONE', ( #661, #657 ) ) ;
#638 = EDGE_LOOP ( 'NONE', ( #652, #659, #647, #662 ) ) ;
#639 = CLOSED_SHELL ( 'NONE', ( #477, #469, #457, #479, #483, #466, #454, #459, #476, #467, #473, #481 ) ) ;
#640 = EDGE_LOOP ( 'NONE', ( #648, #692 ) ) ;
#641 = EDGE_LOOP ( 'NONE', ( #739, #714, #715, #733 ) ) ;
#642 = EDGE_LOOP ( 'NONE', ( #679, #710 ) ) ;
#643 = EDGE_LOOP ( 'NONE', ( #754, #724, #741, #732 ) ) ;
#644 = EDGE_LOOP ( 'NONE', ( #700, #664, #687, #704 ) ) ;
#645 = EDGE_LOOP ( 'NONE', ( #702, #718, #759, #738 ) ) ;
#646 = EDGE_LOOP ( 'NONE', ( #806, #785 ) ) ;
#647 = ORIENTED_EDGE ( 'NONE', *, *, #70, .T. ) ;
#648 = ORIENTED_EDGE ( 'NONE', *, *, #437, .F. ) ;
#649 = EDGE_LOOP ( 'NONE', ( #769, #772 ) ) ;
#650 = EDGE_LOOP ( 'NONE', ( #703, #730, #746, #721 ) ) ;
#651 = EDGE_LOOP ( 'NONE', ( #761, #697, #713 ) ) ;
#652 = ORIENTED_EDGE ( 'NONE', *, *, #431, .T. ) ;
#653 = EDGE_LOOP ( 'NONE', ( #763, #765 ) ) ;
#654 = EDGE_LOOP ( 'NONE', ( #745, #749, #720, #665 ) ) ;
#655 = EDGE_LOOP ( 'NONE', ( #810, #719, #764, #799 ) ) ;
#656 = EDGE_LOOP ( 'NONE', ( #743, #744, #723, #756 ) ) ;
#657 = ORIENTED_EDGE ( 'NONE', *, *, #99, .T. ) ;
#658 = ORIENTED_EDGE ( 'NONE', *, *, #81, .F. ) ;
#659 = ORIENTED_EDGE ( 'NONE', *, *, #445, .T. ) ;
#660 = ORIENTED_EDGE ( 'NONE', *, *, #84, .T. ) ;
#661 = ORIENTED_EDGE ( 'NONE', *, *, #447, .T. ) ;
#662 = ORIENTED_EDGE ( 'NONE', *, *, #453, .F. ) ;
#663 = ORIENTED_EDGE ( 'NONE', *, *, #80, .T. ) ;
#664 = ORIENTED_EDGE ( 'NONE', *, *, #446, .T. ) ;
#665 = ORIENTED_EDGE ( 'NONE', *, *, #69, .F. ) ;
#666 = EDGE_LOOP ( 'NONE', ( #669, #766, #734, #742 ) ) ;
#667 = ORIENTED_EDGE ( 'NONE', *, *, #452, .T. ) ;
#668 = ORIENTED_EDGE ( 'NONE', *, *, #78, .T. ) ;
#669 = ORIENTED_EDGE ( 'NONE', *, *, #429, .F. ) ;
#670 = ORIENTED_EDGE ( 'NONE', *, *, #453, .T. ) ;
#671 = EDGE_LOOP ( 'NONE', ( #740, #668 ) ) ;
#672 = EDGE_LOOP ( 'NONE', ( #755, #695, #722, #737 ) ) ;
#673 = EDGE_LOOP ( 'NONE', ( #736, #680, #717, #735 ) ) ;
#674 = ORIENTED_EDGE ( 'NONE', *, *, #452, .F. ) ;
#675 = ORIENTED_EDGE ( 'NONE', *, *, #439, .T. ) ;
#676 = ORIENTED_EDGE ( 'NONE', *, *, #448, .F. ) ;
#677 = ORIENTED_EDGE ( 'NONE', *, *, #82, .F. ) ;
#678 = ORIENTED_EDGE ( 'NONE', *, *, #437, .T. ) ;
#679 = ORIENTED_EDGE ( 'NONE', *, *, #110, .T. ) ;
#680 = ORIENTED_EDGE ( 'NONE', *, *, #110, .F. ) ;
#681 = EDGE_LOOP ( 'NONE', ( #707, #805, #791 ) ) ;
#682 = EDGE_LOOP ( 'NONE', ( #767, #727 ) ) ;
#683 = ORIENTED_EDGE ( 'NONE', *, *, #443, .T. ) ;
#684 = ORIENTED_EDGE ( 'NONE', *, *, #449, .F. ) ;
#685 = EDGE_LOOP ( 'NONE', ( #762, #716 ) ) ;
#686 = EDGE_LOOP ( 'NONE', ( #708, #752, #663, #753 ) ) ;
#687 = ORIENTED_EDGE ( 'NONE', *, *, #447, .F. ) ;
#688 = ORIENTED_EDGE ( 'NONE', *, *, #436, .F. ) ;
#689 = EDGE_LOOP ( 'NONE', ( #693, #728, #725, #758 ) ) ;
#690 = ORIENTED_EDGE ( 'NONE', *, *, #440, .F. ) ;
#691 = ORIENTED_EDGE ( 'NONE', *, *, #75, .F. ) ;
#692 = ORIENTED_EDGE ( 'NONE', *, *, #70, .F. ) ;
#693 = ORIENTED_EDGE ( 'NONE', *, *, #95, .F. ) ;
#694 = ORIENTED_EDGE ( 'NONE', *, *, #435, .F. ) ;
#695 = ORIENTED_EDGE ( 'NONE', *, *, #442, .T. ) ;
#696 = EDGE_LOOP ( 'NONE', ( #750, #757, #747, #677 ) ) ;
#697 = ORIENTED_EDGE ( 'NONE', *, *, #433, .T. ) ;
#698 = ORIENTED_EDGE ( 'NONE', *, *, #441, .F. ) ;
#699 = ORIENTED_EDGE ( 'NONE', *, *, #448, .T. ) ;
#700 = ORIENTED_EDGE ( 'NONE', *, *, #431, .F. ) ;
#701 = ORIENTED_EDGE ( 'NONE', *, *, #95, .T. ) ;
#702 = ORIENTED_EDGE ( 'NONE', *, *, #94, .T. ) ;
#703 = ORIENTED_EDGE ( 'NONE', *, *, #92, .T. ) ;
#704 = ORIENTED_EDGE ( 'NONE', *, *, #83, .F. ) ;
#705 = EDGE_LOOP ( 'NONE', ( #760, #751, #729, #768 ) ) ;
#706 = ORIENTED_EDGE ( 'NONE', *, *, #445, .F. ) ;
#707 = ORIENTED_EDGE ( 'NONE', *, *, #433, .F. ) ;
#708 = ORIENTED_EDGE ( 'NONE', *, *, #77, .F. ) ;
#709 = ORIENTED_EDGE ( 'NONE', *, *, #432, .F. ) ;
#710 = ORIENTED_EDGE ( 'NONE', *, *, #81, .T. ) ;
#711 = CLOSED_SHELL ( 'NONE', ( #468, #455, #472, #458, #463, #470, #482, #480, #478, #464, #471, #465, #474, #461, #475, #460, #456, #462 ) ) ;
#712 = ORIENTED_EDGE ( 'NONE', *, *, #438, .F. ) ;
#713 = ORIENTED_EDGE ( 'NONE', *, *, #76, .F. ) ;
#714 = ORIENTED_EDGE ( 'NONE', *, *, #66, .F. ) ;
#715 = ORIENTED_EDGE ( 'NONE', *, *, #436, .T. ) ;
#716 = ORIENTED_EDGE ( 'NONE', *, *, #440, .T. ) ;
#717 = ORIENTED_EDGE ( 'NONE', *, *, #435, .T. ) ;
#718 = ORIENTED_EDGE ( 'NONE', *, *, #77, .T. ) ;
#719 = ORIENTED_EDGE ( 'NONE', *, *, #109, .T. ) ;
#720 = ORIENTED_EDGE ( 'NONE', *, *, #65, .T. ) ;
#721 = ORIENTED_EDGE ( 'NONE', *, *, #65, .F. ) ;
#722 = ORIENTED_EDGE ( 'NONE', *, *, #92, .F. ) ;
#723 = ORIENTED_EDGE ( 'NONE', *, *, #428, .F. ) ;
#724 = ORIENTED_EDGE ( 'NONE', *, *, #84, .F. ) ;
#725 = ORIENTED_EDGE ( 'NONE', *, *, #441, .T. ) ;
#726 = ORIENTED_EDGE ( 'NONE', *, *, #428, .T. ) ;
#727 = ORIENTED_EDGE ( 'NONE', *, *, #109, .F. ) ;
#728 = ORIENTED_EDGE ( 'NONE', *, *, #96, .T. ) ;
#729 = ORIENTED_EDGE ( 'NONE', *, *, #450, .T. ) ;
#730 = ORIENTED_EDGE ( 'NONE', *, *, #86, .T. ) ;
#731 = ORIENTED_EDGE ( 'NONE', *, *, #71, .F. ) ;
#732 = ORIENTED_EDGE ( 'NONE', *, *, #99, .F. ) ;
#733 = ORIENTED_EDGE ( 'NONE', *, *, #75, .T. ) ;
#734 = ORIENTED_EDGE ( 'NONE', *, *, #432, .T. ) ;
#735 = ORIENTED_EDGE ( 'NONE', *, *, #449, .T. ) ;
#736 = ORIENTED_EDGE ( 'NONE', *, *, #443, .F. ) ;
#737 = ORIENTED_EDGE ( 'NONE', *, *, #93, .F. ) ;
#738 = ORIENTED_EDGE ( 'NONE', *, *, #80, .F. ) ;
#739 = ORIENTED_EDGE ( 'NONE', *, *, #439, .F. ) ;
#740 = ORIENTED_EDGE ( 'NONE', *, *, #113, .T. ) ;
#741 = ORIENTED_EDGE ( 'NONE', *, *, #83, .T. ) ;
#742 = ORIENTED_EDGE ( 'NONE', *, *, #450, .F. ) ;
#743 = ORIENTED_EDGE ( 'NONE', *, *, #451, .T. ) ;
#744 = ORIENTED_EDGE ( 'NONE', *, *, #434, .T. ) ;
#745 = ORIENTED_EDGE ( 'NONE', *, *, #86, .F. ) ;
#746 = ORIENTED_EDGE ( 'NONE', *, *, #94, .F. ) ;
#747 = ORIENTED_EDGE ( 'NONE', *, *, #93, .T. ) ;
#748 = ORIENTED_EDGE ( 'NONE', *, *, #444, .T. ) ;
#749 = ORIENTED_EDGE ( 'NONE', *, *, #82, .T. ) ;
#750 = ORIENTED_EDGE ( 'NONE', *, *, #442, .F. ) ;
#751 = ORIENTED_EDGE ( 'NONE', *, *, #97, .F. ) ;
#752 = ORIENTED_EDGE ( 'NONE', *, *, #69, .T. ) ;
#753 = ORIENTED_EDGE ( 'NONE', *, *, #78, .F. ) ;
#754 = ORIENTED_EDGE ( 'NONE', *, *, #446, .F. ) ;
#755 = ORIENTED_EDGE ( 'NONE', *, *, #438, .T. ) ;
#756 = ORIENTED_EDGE ( 'NONE', *, *, #430, .F. ) ;
#757 = ORIENTED_EDGE ( 'NONE', *, *, #67, .T. ) ;
#758 = ORIENTED_EDGE ( 'NONE', *, *, #67, .F. ) ;
#759 = ORIENTED_EDGE ( 'NONE', *, *, #113, .F. ) ;
#760 = ORIENTED_EDGE ( 'NONE', *, *, #91, .F. ) ;
#761 = ORIENTED_EDGE ( 'NONE', *, *, #62, .F. ) ;
#762 = ORIENTED_EDGE ( 'NONE', *, *, #66, .T. ) ;
#763 = ORIENTED_EDGE ( 'NONE', *, *, #97, .T. ) ;
#764 = ORIENTED_EDGE ( 'NONE', *, *, #430, .T. ) ;
#765 = ORIENTED_EDGE ( 'NONE', *, *, #429, .T. ) ;
#766 = ORIENTED_EDGE ( 'NONE', *, *, #91, .T. ) ;
#767 = ORIENTED_EDGE ( 'NONE', *, *, #451, .F. ) ;
#768 = ORIENTED_EDGE ( 'NONE', *, *, #71, .T. ) ;
#769 = ORIENTED_EDGE ( 'NONE', *, *, #444, .F. ) ;
#770 = VERTEX_POINT ( 'NONE', #490 ) ;
#771 = ORIENTED_EDGE ( 'NONE', *, *, #104, .T. ) ;
#772 = ORIENTED_EDGE ( 'NONE', *, *, #96, .F. ) ;
#773 = VERTEX_POINT ( 'NONE', #499 ) ;
#774 = VERTEX_POINT ( 'NONE', #509 ) ;
#775 = VERTEX_POINT ( 'NONE', #510 ) ;
#776 = VERTEX_POINT ( 'NONE', #503 ) ;
#777 = VERTEX_POINT ( 'NONE', #504 ) ;
#778 = VERTEX_POINT ( 'NONE', #492 ) ;
#779 = VERTEX_POINT ( 'NONE', #506 ) ;
#780 = VERTEX_POINT ( 'NONE', #505 ) ;
#781 = VERTEX_POINT ( 'NONE', #507 ) ;
#782 = VERTEX_POINT ( 'NONE', #508 ) ;
#783 = VERTEX_POINT ( 'NONE', #532 ) ;
#784 = VERTEX_POINT ( 'NONE', #523 ) ;
#785 = ORIENTED_EDGE ( 'NONE', *, *, #62, .T. ) ;
#786 = VERTEX_POINT ( 'NONE', #527 ) ;
#787 = VERTEX_POINT ( 'NONE', #537 ) ;
#788 = VERTEX_POINT ( 'NONE', #522 ) ;
#789 = VERTEX_POINT ( 'NONE', #512 ) ;
#790 = VERTEX_POINT ( 'NONE', #535 ) ;
#791 = ORIENTED_EDGE ( 'NONE', *, *, #76, .T. ) ;
#792 = VERTEX_POINT ( 'NONE', #517 ) ;
#793 = VERTEX_POINT ( 'NONE', #518 ) ;
#794 = VERTEX_POINT ( 'NONE', #556 ) ;
#795 = VERTEX_POINT ( 'NONE', #555 ) ;
#796 = VERTEX_POINT ( 'NONE', #557 ) ;
#797 = VERTEX_POINT ( 'NONE', #513 ) ;
#798 = VERTEX_POINT ( 'NONE', #534 ) ;
#799 = ORIENTED_EDGE ( 'NONE', *, *, #104, .F. ) ;
#800 = VERTEX_POINT ( 'NONE', #519 ) ;
#801 = VERTEX_POINT ( 'NONE', #559 ) ;
#802 = VERTEX_POINT ( 'NONE', #525 ) ;
#803 = VERTEX_POINT ( 'NONE', #514 ) ;
#804 = VERTEX_POINT ( 'NONE', #515 ) ;
#805 = ORIENTED_EDGE ( 'NONE', *, *, #68, .F. ) ;
#806 = ORIENTED_EDGE ( 'NONE', *, *, #68, .T. ) ;
#807 = VERTEX_POINT ( 'NONE', #516 ) ;
#808 = VERTEX_POINT ( 'NONE', #520 ) ;
#809 = VERTEX_POINT ( 'NONE', #536 ) ;
#810 = ORIENTED_EDGE ( 'NONE', *, *, #434, .F. ) ;
#811 = VERTEX_POINT ( 'NONE', #521 ) ;
#812 = VERTEX_POINT ( 'NONE', #524 ) ;
#813 = LINE ( 'NONE', #252, #857 ) ;
#814 = CIRCLE ( 'NONE', #41, 7.499999999999993800 ) ;
#815 = CIRCLE ( 'NONE', #89, 7.500000000000000000 ) ;
#816 = VECTOR ( 'NONE', #137, 1000.000000000000000 ) ;
#817 = CIRCLE ( 'NONE', #106, 19.50000000000000000 ) ;
#818 = CIRCLE ( 'NONE', #105, 19.23205080756887900 ) ;
#819 = CIRCLE ( 'NONE', #103, 1.999999999999998200 ) ;
#820 = CIRCLE ( 'NONE', #74, 19.50000000000000000 ) ;
#821 = CIRCLE ( 'NONE', #98, 19.50000000000000000 ) ;
#822 = VECTOR ( 'NONE', #129, 1000.000000000000000 ) ;
#823 = VECTOR ( 'NONE', #155, 1000.000000000000000 ) ;
#824 = CIRCLE ( 'NONE', #64, 7.500000000000000000 ) ;
#825 = CIRCLE ( 'NONE', #101, 15.00000000000000000 ) ;
#826 = CIRCLE ( 'NONE', #79, 15.00000000000000000 ) ;
#827 = LINE ( 'NONE', #131, #828 ) ;
#828 = VECTOR ( 'NONE', #128, 1000.000000000000000 ) ;
#829 = CIRCLE ( 'NONE', #36, 15.00000000000000000 ) ;
#830 = CIRCLE ( 'NONE', #112, 13.99999999999999800 ) ;
#831 = CIRCLE ( 'NONE', #90, 19.23205080756887900 ) ;
#832 = CIRCLE ( 'NONE', #108, 10.84529946162075500 ) ;
#833 = LINE ( 'NONE', #138, #823 ) ;
#834 = LINE ( 'NONE', #148, #816 ) ;
#835 = CIRCLE ( 'NONE', #43, 7.500000000000000900 ) ;
#836 = CIRCLE ( 'NONE', #27, 7.500000000000000000 ) ;
#837 = CIRCLE ( 'NONE', #102, 6.000000000000000900 ) ;
#838 = CIRCLE ( 'NONE', #72, 7.483314773547882700 ) ;
#839 = CIRCLE ( 'NONE', #85, 7.483314773547882700 ) ;
#840 = CIRCLE ( 'NONE', #87, 1.999999999999998200 ) ;
#841 = CIRCLE ( 'NONE', #38, 7.499999999999993800 ) ;
#842 = LINE ( 'NONE', #355, #822 ) ;
#843 = CIRCLE ( 'NONE', #88, 15.00000000000000000 ) ;
#844 = CIRCLE ( 'NONE', #73, 12.57735026918962600 ) ;
#845 = CIRCLE ( 'NONE', #100, 1.000000000000000000 ) ;
#846 = CIRCLE ( 'NONE', #33, 7.500000000000000900 ) ;
#847 = CIRCLE ( 'NONE', #63, 6.000000000000000900 ) ;
#848 = CIRCLE ( 'NONE', #107, 2.000000000000001800 ) ;
#849 = CIRCLE ( 'NONE', #111, 14.99999999999999800 ) ;
#850 = CIRCLE ( 'NONE', #44, 19.50000000000000000 ) ;
#851 = LINE ( 'NONE', #191, #853 ) ;
#852 = CIRCLE ( 'NONE', #40, 14.99999999999999800 ) ;
#853 = VECTOR ( 'NONE', #193, 1000.000000000000000 ) ;
#854 = CIRCLE ( 'NONE', #47, 15.00000000000000000 ) ;
#855 = CIRCLE ( 'NONE', #23, 7.500000000000000000 ) ;
#856 = CIRCLE ( 'NONE', #49, 7.500000000000000000 ) ;
#857 = VECTOR ( 'NONE', #231, 1000.000000000000000 ) ;
#858 = LINE ( 'NONE', #185, #864 ) ;
#859 = LINE ( 'NONE', #249, #882 ) ;
#860 = CIRCLE ( 'NONE', #42, 2.000000000000001800 ) ;
#861 = LINE ( 'NONE', #183, #863 ) ;
#862 = VECTOR ( 'NONE', #206, 1000.000000000000000 ) ;
#863 = VECTOR ( 'NONE', #211, 1000.000000000000000 ) ;
#864 = VECTOR ( 'NONE', #208, 1000.000000000000000 ) ;
#865 = LINE ( 'NONE', #207, #872 ) ;
#866 = LINE ( 'NONE', #212, #869 ) ;
#867 = CIRCLE ( 'NONE', #37, 15.00000000000000000 ) ;
#868 = CIRCLE ( 'NONE', #12, 12.57735026918962600 ) ;
#869 = VECTOR ( 'NONE', #201, 1000.000000000000000 ) ;
#870 = CIRCLE ( 'NONE', #10, 1.000000000000000900 ) ;
#871 = CIRCLE ( 'NONE', #60, 6.000000000000000900 ) ;
#872 = VECTOR ( 'NONE', #219, 1000.000000000000000 ) ;
#873 = LINE ( 'NONE', #240, #878 ) ;
#874 = VECTOR ( 'NONE', #222, 1000.000000000000000 ) ;
#875 = CIRCLE ( 'NONE', #48, 10.84529946162075500 ) ;
#876 = CIRCLE ( 'NONE', #31, 7.500000000000000000 ) ;
#877 = CIRCLE ( 'NONE', #39, 6.000000000000000900 ) ;
#878 = VECTOR ( 'NONE', #237, 1000.000000000000000 ) ;
#879 = LINE ( 'NONE', #218, #874 ) ;
#880 = LINE ( 'NONE', #195, #862 ) ;
#881 = CIRCLE ( 'NONE', #14, 13.99999999999999800 ) ;
#882 = VECTOR ( 'NONE', #247, 1000.000000000000000 ) ;
#883 = DESIGN_CONTEXT ( 'detailed design', #587, 'design' ) ;
#884 = PRODUCT_DEFINITION_SHAPE ( 'NONE', 'NONE',  #419 ) ;
#885 = PRODUCT_DEFINITION_SHAPE ( 'NONE', 'NONE',  #361 ) ;
#886 = DESIGN_CONTEXT ( 'detailed design', #570, 'design' ) ;
#887 = PRODUCT_DEFINITION_SHAPE ( 'NONE', 'NONE',  #373 ) ;
#888 = PRODUCT_DEFINITION_SHAPE ( 'NONE', 'NONE',  #1084 ) ;
#889 = PRODUCT_DEFINITION_SHAPE ( 'NONE', 'NONE',  #1085 ) ;
#890 = DESIGN_CONTEXT ( 'detailed design', #578, 'design' ) ;
#891 = FACE_BOUND ( 'NONE', #636, .T. ) ;
#892 = CYLINDRICAL_SURFACE ( 'NONE', #16, 7.500000000000000000 ) ;
#893 = CYLINDRICAL_SURFACE ( 'NONE', #53, 15.00000000000000000 ) ;
#894 = SPHERICAL_SURFACE ( 'NONE', #20, 7.500000000000000000 ) ;
#895 = CYLINDRICAL_SURFACE ( 'NONE', #45, 7.500000000000000000 ) ;
#896 = TOROIDAL_SURFACE ( 'NONE', #50, 13.99999999999999800, 1.000000000000000000 ) ;
#897 = FACE_OUTER_BOUND ( 'NONE', #689, .T. ) ;
#898 = FACE_OUTER_BOUND ( 'NONE', #632, .T. ) ;
#899 = FACE_OUTER_BOUND ( 'NONE', #640, .T. ) ;
#900 = FACE_OUTER_BOUND ( 'NONE', #705, .T. ) ;
#901 = FACE_OUTER_BOUND ( 'NONE', #629, .T. ) ;
#902 = FACE_OUTER_BOUND ( 'NONE', #649, .T. ) ;
#903 = FACE_OUTER_BOUND ( 'NONE', #655, .T. ) ;
#904 = CYLINDRICAL_SURFACE ( 'NONE', #52, 15.00000000000000000 ) ;
#905 = TOROIDAL_SURFACE ( 'NONE', #61, 17.50000000000000000, 1.999999999999999100 ) ;
#906 = CYLINDRICAL_SURFACE ( 'NONE', #19, 7.499999999999997300 ) ;
#907 = FACE_OUTER_BOUND ( 'NONE', #650, .T. ) ;
#908 = CONICAL_SURFACE ( 'NONE', #13, 19.23205080756887900, 0.5235987755983003700 ) ;
#909 = CYLINDRICAL_SURFACE ( 'NONE', #15, 15.00000000000000000 ) ;
#910 = FACE_BOUND ( 'NONE', #631, .T. ) ;
#911 = FACE_OUTER_BOUND ( 'NONE', #685, .T. ) ;
#912 = FACE_OUTER_BOUND ( 'NONE', #671, .T. ) ;
#913 = CYLINDRICAL_SURFACE ( 'NONE', #26, 6.000000000000000900 ) ;
#914 = CYLINDRICAL_SURFACE ( 'NONE', #21, 6.000000000000000900 ) ;
#915 = TOROIDAL_SURFACE ( 'NONE', #18, 17.50000000000000000, 1.999999999999999100 ) ;
#916 = FACE_OUTER_BOUND ( 'NONE', #672, .T. ) ;
#917 = FACE_OUTER_BOUND ( 'NONE', #653, .T. ) ;
#918 = FACE_OUTER_BOUND ( 'NONE', #654, .T. ) ;
#919 = CYLINDRICAL_SURFACE ( 'NONE', #28, 19.50000000000000000 ) ;
#920 = FACE_OUTER_BOUND ( 'NONE', #635, .T. ) ;
#921 = FACE_OUTER_BOUND ( 'NONE', #638, .T. ) ;
#922 = FACE_OUTER_BOUND ( 'NONE', #645, .T. ) ;
#923 = FACE_BOUND ( 'NONE', #633, .T. ) ;
#924 = FACE_BOUND ( 'NONE', #682, .T. ) ;
#925 = FACE_OUTER_BOUND ( 'NONE', #644, .T. ) ;
#926 = TOROIDAL_SURFACE ( 'NONE', #29, 10.84529946162075100, 2.000000000000000900 ) ;
#927 = FACE_OUTER_BOUND ( 'NONE', #656, .T. ) ;
#928 = TOROIDAL_SURFACE ( 'NONE', #11, 13.99999999999999800, 1.000000000000000000 ) ;
#929 = FACE_OUTER_BOUND ( 'NONE', #681, .T. ) ;
#930 = FACE_OUTER_BOUND ( 'NONE', #686, .T. ) ;
#931 = CYLINDRICAL_SURFACE ( 'NONE', #8, 7.499999999999997300 ) ;
#932 = FACE_OUTER_BOUND ( 'NONE', #637, .T. ) ;
#933 = FACE_OUTER_BOUND ( 'NONE', #666, .T. ) ;
#934 = FACE_OUTER_BOUND ( 'NONE', #651, .T. ) ;
#935 = FACE_OUTER_BOUND ( 'NONE', #630, .T. ) ;
#936 = FACE_OUTER_BOUND ( 'NONE', #642, .T. ) ;
#937 = CONICAL_SURFACE ( 'NONE', #35, 19.23205080756887900, 0.5235987755983003700 ) ;
#938 = FACE_BOUND ( 'NONE', #646, .T. ) ;
#939 = SPHERICAL_SURFACE ( 'NONE', #22, 7.500000000000000000 ) ;
#940 = FACE_OUTER_BOUND ( 'NONE', #634, .T. ) ;
#941 = TOROIDAL_SURFACE ( 'NONE', #25, 10.84529946162075100, 2.000000000000000900 ) ;
#942 = FACE_OUTER_BOUND ( 'NONE', #643, .T. ) ;
#943 = FACE_OUTER_BOUND ( 'NONE', #696, .T. ) ;
#944 = FACE_OUTER_BOUND ( 'NONE', #641, .T. ) ;
#945 = FACE_OUTER_BOUND ( 'NONE', #673, .T. ) ;
#946 = CYLINDRICAL_SURFACE ( 'NONE', #56, 19.50000000000000000 ) ;
#947 = DATE_AND_TIME ( #968, #966 ) ;
#948 = PERSON_AND_ORGANIZATION ( #119, #954 ) ;
#949 = APPROVAL_PERSON_ORGANIZATION ( #948, #384, #589 ) ;
#950 = CYLINDRICAL_SURFACE ( 'NONE', #58, 15.00000000000000000 ) ;
#951 = SHAPE_REPRESENTATION_RELATIONSHIP ( 'NONE' , 'NONE' ,  #114, #425 ) ;
#952 = SHAPE_DEFINITION_REPRESENTATION ( #885, #115 ) ;
#953 = SHAPE_DEFINITION_REPRESENTATION ( #884, #114 ) ;
#954 = ORGANIZATION ( 'UNSPECIFIED', 'UNSPECIFIED', '' ) ;
#955 = PERSON_AND_ORGANIZATION ( #119, #954 ) ;
#956 = SHAPE_DEFINITION_REPRESENTATION ( #887, #116 ) ;
#957 = APPROVAL_PERSON_ORGANIZATION ( #955, #371, #567 ) ;
#958 = COORDINATED_UNIVERSAL_TIME_OFFSET ( 1, 0, .AHEAD. ) ;
#959 = SHAPE_REPRESENTATION_RELATIONSHIP ( 'NONE' , 'NONE' ,  #116, #423 ) ;
#960 = CALENDAR_DATE ( 2017, 20, 2 ) ;
#961 = DATE_AND_TIME ( #960, #967 ) ;
#962 = APPROVAL_DATE_TIME ( #961, #371 ) ;
#963 = PERSON_AND_ORGANIZATION ( #119, #954 ) ;
#964 = COORDINATED_UNIVERSAL_TIME_OFFSET ( 1, 0, .AHEAD. ) ;
#965 = PERSON_AND_ORGANIZATION ( #119, #954 ) ;
#966 = LOCAL_TIME ( 16, 41, 7.000000000000000000, #964 ) ;
#967 = LOCAL_TIME ( 16, 41, 7.000000000000000000, #958 ) ;
#968 = CALENDAR_DATE ( 2017, 20, 2 ) ;
#969 = PERSON_AND_ORGANIZATION ( #119, #954 ) ;
#970 = DATE_AND_TIME ( #1014, #1015 ) ;
#971 = PERSON_AND_ORGANIZATION ( #119, #954 ) ;
#972 = LOCAL_TIME ( 16, 41, 7.000000000000000000, #985 ) ;
#973 = DATE_AND_TIME ( #1004, #1003 ) ;
#974 = APPROVAL_DATE_TIME ( #988, #384 ) ;
#975 = CALENDAR_DATE ( 2017, 20, 2 ) ;
#976 = COORDINATED_UNIVERSAL_TIME_OFFSET ( 1, 0, .AHEAD. ) ;
#977 = CALENDAR_DATE ( 2017, 20, 2 ) ;
#978 = PERSON_AND_ORGANIZATION ( #119, #954 ) ;
#979 = COORDINATED_UNIVERSAL_TIME_OFFSET ( 1, 0, .AHEAD. ) ;
#980 = LOCAL_TIME ( 16, 41, 7.000000000000000000, #979 ) ;
#981 = PERSON_AND_ORGANIZATION ( #119, #954 ) ;
#982 = COORDINATED_UNIVERSAL_TIME_OFFSET ( 1, 0, .AHEAD. ) ;
#983 = APPROVAL_DATE_TIME ( #973, #383 ) ;
#984 = APPROVAL_PERSON_ORGANIZATION ( #992, #387, #590 ) ;
#985 = COORDINATED_UNIVERSAL_TIME_OFFSET ( 1, 0, .AHEAD. ) ;
#986 = APPROVAL_PERSON_ORGANIZATION ( #994, #377, #588 ) ;
#987 = COORDINATED_UNIVERSAL_TIME_OFFSET ( 1, 0, .AHEAD. ) ;
#988 = DATE_AND_TIME ( #977, #999 ) ;
#989 = DATE_AND_TIME ( #975, #980 ) ;
#990 = APPROVAL_PERSON_ORGANIZATION ( #981, #383, #608 ) ;
#991 = CALENDAR_DATE ( 2017, 20, 2 ) ;
#992 = PERSON_AND_ORGANIZATION ( #119, #954 ) ;
#993 = PERSON_AND_ORGANIZATION ( #119, #954 ) ;
#994 = PERSON_AND_ORGANIZATION ( #119, #954 ) ;
#995 = DATE_AND_TIME ( #1005, #1000 ) ;
#996 = COORDINATED_UNIVERSAL_TIME_OFFSET ( 1, 0, .AHEAD. ) ;
#997 = LOCAL_TIME ( 16, 41, 7.000000000000000000, #996 ) ;
#998 = CALENDAR_DATE ( 2017, 20, 2 ) ;
#999 = LOCAL_TIME ( 16, 41, 7.000000000000000000, #987 ) ;
#1000 = LOCAL_TIME ( 16, 41, 7.000000000000000000, #976 ) ;
#1001 = DATE_AND_TIME ( #991, #997 ) ;
#1002 = DATE_AND_TIME ( #998, #972 ) ;
#1003 = LOCAL_TIME ( 16, 41, 7.000000000000000000, #982 ) ;
#1004 = CALENDAR_DATE ( 2017, 20, 2 ) ;
#1005 = CALENDAR_DATE ( 2017, 20, 2 ) ;
#1006 = PERSON_AND_ORGANIZATION ( #119, #954 ) ;
#1007 = PERSON_AND_ORGANIZATION ( #119, #954 ) ;
#1008 = APPROVAL_DATE_TIME ( #1002, #387 ) ;
#1009 = APPROVAL_DATE_TIME ( #995, #377 ) ;
#1010 = PERSON_AND_ORGANIZATION ( #119, #954 ) ;
#1011 = PERSON_AND_ORGANIZATION ( #119, #954 ) ;
#1012 = COORDINATED_UNIVERSAL_TIME_OFFSET ( 1, 0, .AHEAD. ) ;
#1013 = PERSON_AND_ORGANIZATION ( #119, #954 ) ;
#1014 = CALENDAR_DATE ( 2017, 20, 2 ) ;
#1015 = LOCAL_TIME ( 16, 41, 7.000000000000000000, #1012 ) ;
#1016 = CONTEXT_DEPENDENT_SHAPE_REPRESENTATION ( #605, #888 ) ;
#1017 = ORGANIZATION ( 'NAUO-ORG1', 'UNSPECIFIED', 'UNSPECIFIED' ) ;
#1018 = PERSON_AND_ORGANIZATION ( #122, #1017 ) ;
#1019 = LOCAL_TIME ( 16, 41, 7.000000000000000000, #1074 ) ;
#1020 = COORDINATED_UNIVERSAL_TIME_OFFSET ( 1, 0, .AHEAD. ) ;
#1021 = PERSON_AND_ORGANIZATION ( #119, #954 ) ;
#1022 = LOCAL_TIME ( 16, 41, 7.000000000000000000, #1037 ) ;
#1023 = COORDINATED_UNIVERSAL_TIME_OFFSET ( 1, 0, .AHEAD. ) ;
#1024 = DATE_AND_TIME ( #1033, #1070 ) ;
#1025 = APPROVAL_PERSON_ORGANIZATION ( #971, #399, #604 ) ;
#1026 = CALENDAR_DATE ( 2017, 20, 2 ) ;
#1027 = CALENDAR_DATE ( 2017, 20, 2 ) ;
#1028 = DATE_AND_TIME ( #1072, #1077 ) ;
#1029 = DATE_AND_TIME ( #1045, #1019 ) ;
#1030 = CALENDAR_DATE ( 2017, 20, 2 ) ;
#1031 = PERSON_AND_ORGANIZATION ( #119, #954 ) ;
#1032 = DATE_AND_TIME ( #1030, #1036 ) ;
#1033 = CALENDAR_DATE ( 2017, 20, 2 ) ;
#1034 = CALENDAR_DATE ( 2017, 20, 2 ) ;
#1035 = COORDINATED_UNIVERSAL_TIME_OFFSET ( 1, 0, .AHEAD. ) ;
#1036 = LOCAL_TIME ( 16, 41, 7.000000000000000000, #1042 ) ;
#1037 = COORDINATED_UNIVERSAL_TIME_OFFSET ( 1, 0, .AHEAD. ) ;
#1038 = DATE_AND_TIME ( #1071, #1058 ) ;
#1039 = APPROVAL_DATE_TIME ( #1056, #409 ) ;
#1040 = PERSON_AND_ORGANIZATION ( #119, #954 ) ;
#1041 = DATE_AND_TIME ( #1026, #1059 ) ;
#1042 = COORDINATED_UNIVERSAL_TIME_OFFSET ( 1, 0, .AHEAD. ) ;
#1043 = PERSON_AND_ORGANIZATION ( #119, #954 ) ;
#1044 = APPROVAL_PERSON_ORGANIZATION ( #1043, #409, #563 ) ;
#1045 = CALENDAR_DATE ( 2017, 20, 2 ) ;
#1046 = DATE_AND_TIME ( #1034, #1022 ) ;
#1047 = PERSON_AND_ORGANIZATION ( #119, #954 ) ;
#1048 = LOCAL_TIME ( 16, 41, 7.000000000000000000, #1054 ) ;
#1049 = COORDINATED_UNIVERSAL_TIME_OFFSET ( 1, 0, .AHEAD. ) ;
#1050 = APPROVAL_DATE_TIME ( #1029, #415 ) ;
#1051 = APPROVAL_PERSON_ORGANIZATION ( #1018, #415, #620 ) ;
#1052 = ITEM_DEFINED_TRANSFORMATION ( 'NONE', 'NONE', #382,  #57 ) ;
#1053 = PERSON_AND_ORGANIZATION ( #119, #954 ) ;
#1054 = COORDINATED_UNIVERSAL_TIME_OFFSET ( 1, 0, .AHEAD. ) ;
#1055 = APPROVAL_PERSON_ORGANIZATION ( #1031, #404, #595 ) ;
#1056 = DATE_AND_TIME ( #1027, #1048 ) ;
#1057 = PERSON_AND_ORGANIZATION ( #119, #954 ) ;
#1058 = LOCAL_TIME ( 16, 41, 7.000000000000000000, #1035 ) ;
#1059 = LOCAL_TIME ( 16, 41, 7.000000000000000000, #1023 ) ;
#1060 = DATE_AND_TIME ( #1081, #1080 ) ;
#1061 = COORDINATED_UNIVERSAL_TIME_OFFSET ( 1, 0, .AHEAD. ) ;
#1062 = APPROVAL_DATE_TIME ( #1038, #400 ) ;
#1063 = LOCAL_TIME ( 16, 41, 7.000000000000000000, #1061 ) ;
#1064 = CALENDAR_DATE ( 2017, 20, 2 ) ;
#1065 = DATE_AND_TIME ( #1064, #1063 ) ;
#1066 = ITEM_DEFINED_TRANSFORMATION ( 'NONE', 'NONE', #17,  #57 ) ;
#1067 = COORDINATED_UNIVERSAL_TIME_OFFSET ( 1, 0, .AHEAD. ) ;
#1068 = APPROVAL_DATE_TIME ( #1032, #404 ) ;
#1069 = PERSON_AND_ORGANIZATION ( #119, #954 ) ;
#1070 = LOCAL_TIME ( 16, 41, 7.000000000000000000, #1020 ) ;
#1071 = CALENDAR_DATE ( 2017, 20, 2 ) ;
#1072 = CALENDAR_DATE ( 2017, 20, 2 ) ;
#1073 = APPROVAL_PERSON_ORGANIZATION ( #1021, #400, #583 ) ;
#1074 = COORDINATED_UNIVERSAL_TIME_OFFSET ( 1, 0, .AHEAD. ) ;
#1075 = APPROVAL_DATE_TIME ( #1046, #399 ) ;
#1076 = PERSON_AND_ORGANIZATION ( #118, #1083 ) ;
#1077 = LOCAL_TIME ( 16, 41, 7.000000000000000000, #1049 ) ;
#1078 = APPROVAL_PERSON_ORGANIZATION ( #1076, #1, #626 ) ;
#1079 = APPROVAL_DATE_TIME ( #1060, #1 ) ;
#1080 = LOCAL_TIME ( 16, 41, 7.000000000000000000, #1067 ) ;
#1081 = CALENDAR_DATE ( 2017, 20, 2 ) ;
#1082 = CONTEXT_DEPENDENT_SHAPE_REPRESENTATION ( #628, #889 ) ;
#1083 = ORGANIZATION ( 'NAUO-ORG2', 'UNSPECIFIED', 'UNSPECIFIED' ) ;
#1084 = NEXT_ASSEMBLY_USAGE_OCCURRENCE ( 'NAUO1', ' ', ' ', #361, #419, $ ) ;
#1085 = NEXT_ASSEMBLY_USAGE_OCCURRENCE ( 'NAUO2', ' ', ' ', #361, #373, $ ) ;
ENDSEC;
END-ISO-10303-21;
