ISO-10303-21;
HEADER;
FILE_DESCRIPTION (( 'STEP AP203' ),
    '1' );
FILE_NAME ('ALP2512.STEP',
    '2017-02-20T16:05:41',
    ( '' ),
    ( '' ),
    'SwSTEP 2.0',
    'SolidWorks 2012',
    '' );
FILE_SCHEMA (( 'CONFIG_CONTROL_DESIGN' ));
ENDSEC;

DATA;
#1 = PERSON ( 'NAUO-PER2', 'UNSPECIFIED', 'UNSPECIFIED', ('UNSPECIFIED'), ('UNSPECIFIED'), ('UNSPECIFIED') ) ;
#2 = PRODUCT ( 'Telo fi40 metalna', 'Telo fi40 metalna', '', ( #1025 ) ) ;
#3 = PRODUCT ( 'Gumena podloga fi40', 'Gumena podloga fi40', '', ( #1060 ) ) ;
#4 = PERSON ( 'NAUO-PER1', 'UNSPECIFIED', 'UNSPECIFIED', ('UNSPECIFIED'), ('UNSPECIFIED'), ('UNSPECIFIED') ) ;
#5 = PRODUCT ( 'ALP2512', 'ALP2512', '', ( #1041 ) ) ;
#6 = PERSON ( 'UNSPECIFIED', 'UNSPECIFIED', 'UNSPECIFIED', ('UNSPECIFIED'), ('UNSPECIFIED'), ('UNSPECIFIED') ) ;
#7 = EDGE_CURVE ( 'NONE', #492, #526, #553, .T. ) ;
#8 = EDGE_CURVE ( 'NONE', #479, #518, #545, .T. ) ;
#9 = EDGE_CURVE ( 'NONE', #483, #505, #580, .T. ) ;
#10 = EDGE_CURVE ( 'NONE', #502, #512, #537, .T. ) ;
#11 = EDGE_CURVE ( 'NONE', #526, #492, #541, .T. ) ;
#12 = AXIS2_PLACEMENT_3D ( 'NONE', #877, #902, #904 ) ;
#13 = AXIS2_PLACEMENT_3D ( 'NONE', #881, #861, #890 ) ;
#14 = AXIS2_PLACEMENT_3D ( 'NONE', #920, #929, #942 ) ;
#15 = AXIS2_PLACEMENT_3D ( 'NONE', #934, #935, #917 ) ;
#16 = AXIS2_PLACEMENT_3D ( 'NONE', #938, #947, #930 ) ;
#17 = AXIS2_PLACEMENT_3D ( 'NONE', #837, #840, #821 ) ;
#18 = AXIS2_PLACEMENT_3D ( 'NONE', #862, #863, #864 ) ;
#19 = AXIS2_PLACEMENT_3D ( 'NONE', #851, #859, #829 ) ;
#20 = AXIS2_PLACEMENT_3D ( 'NONE', #838, #841, #822 ) ;
#21 = AXIS2_PLACEMENT_3D ( 'NONE', #874, #878, #899 ) ;
#22 = AXIS2_PLACEMENT_3D ( 'NONE', #866, #867, #940 ) ;
#23 = AXIS2_PLACEMENT_3D ( 'NONE', #958, #933, #950 ) ;
#24 = AXIS2_PLACEMENT_3D ( 'NONE', #879, #880, #889 ) ;
#25 = AXIS2_PLACEMENT_3D ( 'NONE', #932, #927, #912 ) ;
#26 = AXIS2_PLACEMENT_3D ( 'NONE', #908, #870, #883 ) ;
#27 = AXIS2_PLACEMENT_3D ( 'NONE', #884, #872, #901 ) ;
#28 = AXIS2_PLACEMENT_3D ( 'NONE', #895, #903, #900 ) ;
#29 = AXIS2_PLACEMENT_3D ( 'NONE', #945, #922, #936 ) ;
#30 = AXIS2_PLACEMENT_3D ( 'NONE', #891, #892, #894 ) ;
#31 = AXIS2_PLACEMENT_3D ( 'NONE', #923, #951, #946 ) ;
#32 = AXIS2_PLACEMENT_3D ( 'NONE', #944, #928, #956 ) ;
#33 = AXIS2_PLACEMENT_3D ( 'NONE', #905, #906, #873 ) ;
#34 = AXIS2_PLACEMENT_3D ( 'NONE', #948, #914, #953 ) ;
#35 = AXIS2_PLACEMENT_3D ( 'NONE', #834, #849, #844 ) ;
#36 = AXIS2_PLACEMENT_3D ( 'NONE', #865, #907, #882 ) ;
#37 = AXIS2_PLACEMENT_3D ( 'NONE', #839, #842, #855 ) ;
#38 = AXIS2_PLACEMENT_3D ( 'NONE', #852, #896, #886 ) ;
#39 = AXIS2_PLACEMENT_3D ( 'NONE', #824, #832, #831 ) ;
#40 = AXIS2_PLACEMENT_3D ( 'NONE', #875, #868, #885 ) ;
#41 = AXIS2_PLACEMENT_3D ( 'NONE', #869, #897, #888 ) ;
#42 = AXIS2_PLACEMENT_3D ( 'NONE', #898, #893, #887 ) ;
#43 = AXIS2_PLACEMENT_3D ( 'NONE', #974, #999, #993 ) ;
#44 = AXIS2_PLACEMENT_3D ( 'NONE', #943, #955, #915 ) ;
#45 = AXIS2_PLACEMENT_3D ( 'NONE', #926, #954, #910 ) ;
#46 =( GEOMETRIC_REPRESENTATION_CONTEXT ( 3 ) GLOBAL_UNCERTAINTY_ASSIGNED_CONTEXT ( ( #302 ) ) GLOBAL_UNIT_ASSIGNED_CONTEXT ( ( #960, #984, #973 ) ) REPRESENTATION_CONTEXT ( 'NONE', 'WORKASPACE' ) );
#47 = AXIS2_PLACEMENT_3D ( 'NONE', #918, #919, #967 ) ;
#48 = AXIS2_PLACEMENT_3D ( 'NONE', #924, #939, #937 ) ;
#49 =( GEOMETRIC_REPRESENTATION_CONTEXT ( 3 ) GLOBAL_UNCERTAINTY_ASSIGNED_CONTEXT ( ( #304 ) ) GLOBAL_UNIT_ASSIGNED_CONTEXT ( ( #985, #1006, #1012 ) ) REPRESENTATION_CONTEXT ( 'NONE', 'WORKASPACE' ) );
#50 = AXIS2_PLACEMENT_3D ( 'NONE', #957, #949, #911 ) ;
#51 = SECURITY_CLASSIFICATION ( '', '', #1068 ) ;
#52 = CC_DESIGN_PERSON_AND_ORGANIZATION_ASSIGNMENT ( #625, #1036, ( #2 ) ) ;
#53 = AXIS2_PLACEMENT_3D ( 'NONE', #1003, #1013, #972 ) ;
#54 = PRODUCT_DEFINITION ( 'UNKNOWN', '', #58, #267 ) ;
#55 = CC_DESIGN_PERSON_AND_ORGANIZATION_ASSIGNMENT ( #375, #1067, ( #3 ) ) ;
#56 = AXIS2_PLACEMENT_3D ( 'NONE', #976, #981, #1065 ) ;
#57 = CC_DESIGN_DATE_AND_TIME_ASSIGNMENT ( #334, #1077, ( #54 ) ) ;
#58 = PRODUCT_DEFINITION_FORMATION_WITH_SPECIFIED_SOURCE ( 'ANY', '', #5, .NOT_KNOWN. ) ;
#59 = APPROVAL ( #1030, 'UNSPECIFIED' ) ;
#60 = CC_DESIGN_PERSON_AND_ORGANIZATION_ASSIGNMENT ( #341, #1056, ( #5 ) ) ;
#61 = AXIS2_PLACEMENT_3D ( 'NONE', #963, #964, #966 ) ;
#62 = CC_DESIGN_APPROVAL ( #59, ( #54 ) ) ;
#63 = APPROVAL ( #1072, 'UNSPECIFIED' ) ;
#64 = CC_DESIGN_APPROVAL ( #63, ( #58 ) ) ;
#65 = CC_DESIGN_PERSON_AND_ORGANIZATION_ASSIGNMENT ( #336, #1042, ( #54 ) ) ;
#66 = CC_DESIGN_PERSON_AND_ORGANIZATION_ASSIGNMENT ( #360, #1023, ( #58 ) ) ;
#67 = CC_DESIGN_PERSON_AND_ORGANIZATION_ASSIGNMENT ( #371, #1035, ( #58 ) ) ;
#68 = AXIS2_PLACEMENT_3D ( 'NONE', #992, #1002, #969 ) ;
#69 = SECURITY_CLASSIFICATION ( '', '', #1020 ) ;
#70 =( GEOMETRIC_REPRESENTATION_CONTEXT ( 3 ) GLOBAL_UNCERTAINTY_ASSIGNED_CONTEXT ( ( #303 ) ) GLOBAL_UNIT_ASSIGNED_CONTEXT ( ( #970, #971, #975 ) ) REPRESENTATION_CONTEXT ( 'NONE', 'WORKASPACE' ) );
#71 = CC_DESIGN_SECURITY_CLASSIFICATION ( #69, ( #58 ) ) ;
#72 = PRODUCT_RELATED_PRODUCT_CATEGORY ( 'detail', '', ( #5 ) ) ;
#73 = CC_DESIGN_PERSON_AND_ORGANIZATION_ASSIGNMENT ( #227, #1039, ( #97 ) ) ;
#74 = CC_DESIGN_APPROVAL ( #99, ( #97 ) ) ;
#75 = CC_DESIGN_PERSON_AND_ORGANIZATION_ASSIGNMENT ( #365, #1051, ( #69 ) ) ;
#76 = PRODUCT_DEFINITION_FORMATION_WITH_SPECIFIED_SOURCE ( 'ANY', '', #3, .NOT_KNOWN. ) ;
#77 = CC_DESIGN_PERSON_AND_ORGANIZATION_ASSIGNMENT ( #394, #1070, ( #119 ) ) ;
#78 = APPROVAL ( #1058, 'UNSPECIFIED' ) ;
#79 = SECURITY_CLASSIFICATION ( '', '', #1040 ) ;
#80 = CC_DESIGN_APPROVAL ( #106, ( #120 ) ) ;
#81 = CC_DESIGN_DATE_AND_TIME_ASSIGNMENT ( #383, #1017, ( #120 ) ) ;
#82 = CC_DESIGN_APPROVAL ( #107, ( #69 ) ) ;
#83 = APPROVAL ( #1054, 'UNSPECIFIED' ) ;
#84 = CC_DESIGN_PERSON_AND_ORGANIZATION_ASSIGNMENT ( #328, #1034, ( #121 ) ) ;
#85 = CC_DESIGN_DATE_AND_TIME_ASSIGNMENT ( #358, #1057, ( #119 ) ) ;
#86 = CC_DESIGN_DATE_AND_TIME_ASSIGNMENT ( #236, #1044, ( #79 ) ) ;
#87 = CC_DESIGN_DATE_AND_TIME_ASSIGNMENT ( #372, #1052, ( #69 ) ) ;
#88 = CC_DESIGN_SECURITY_CLASSIFICATION ( #119, ( #76 ) ) ;
#89 = CC_DESIGN_DATE_AND_TIME_ASSIGNMENT ( #261, #1037, ( #121 ) ) ;
#90 = CC_DESIGN_PERSON_AND_ORGANIZATION_ASSIGNMENT ( #391, #1024, ( #76 ) ) ;
#91 = PRODUCT_RELATED_PRODUCT_CATEGORY ( 'detail', '', ( #2 ) ) ;
#92 = PRODUCT_RELATED_PRODUCT_CATEGORY ( 'detail', '', ( #3 ) ) ;
#93 = CC_DESIGN_SECURITY_CLASSIFICATION ( #79, ( #97 ) ) ;
#94 = CC_DESIGN_SECURITY_CLASSIFICATION ( #51, ( #1084 ) ) ;
#95 = CC_DESIGN_PERSON_AND_ORGANIZATION_ASSIGNMENT ( #380, #1061, ( #120 ) ) ;
#96 = CC_DESIGN_APPROVAL ( #108, ( #121 ) ) ;
#97 = PRODUCT_DEFINITION_FORMATION_WITH_SPECIFIED_SOURCE ( 'ANY', '', #2, .NOT_KNOWN. ) ;
#98 = CC_DESIGN_APPROVAL ( #83, ( #76 ) ) ;
#99 = APPROVAL ( #1076, 'UNSPECIFIED' ) ;
#100 = CC_DESIGN_PERSON_AND_ORGANIZATION_ASSIGNMENT ( #249, #1043, ( #79 ) ) ;
#101 = APPROVAL ( #1045, 'UNSPECIFIED' ) ;
#102 = CC_DESIGN_APPROVAL ( #101, ( #79 ) ) ;
#103 = APPROVAL ( #1069, 'UNKNOWN' ) ;
#104 = CC_DESIGN_DATE_AND_TIME_ASSIGNMENT ( #220, #1075, ( #51 ) ) ;
#105 = CC_DESIGN_PERSON_AND_ORGANIZATION_ASSIGNMENT ( #252, #1063, ( #97 ) ) ;
#106 = APPROVAL ( #1055, 'UNSPECIFIED' ) ;
#107 = APPROVAL ( #1073, 'UNSPECIFIED' ) ;
#108 = APPROVAL ( #1078, 'UNSPECIFIED' ) ;
#109 = CC_DESIGN_PERSON_AND_ORGANIZATION_ASSIGNMENT ( #229, #239, ( #51 ) ) ;
#110 = CC_DESIGN_SECURITY_CLASSIFICATION ( #113, ( #1085 ) ) ;
#111 = CC_DESIGN_PERSON_AND_ORGANIZATION_ASSIGNMENT ( #392, #1047, ( #76 ) ) ;
#112 = CC_DESIGN_APPROVAL ( #103, ( #51 ) ) ;
#113 = SECURITY_CLASSIFICATION ( '', '', #1080 ) ;
#114 = APPROVAL ( #1082, 'UNKNOWN' ) ;
#115 = CC_DESIGN_APPROVAL ( #114, ( #113 ) ) ;
#116 = CC_DESIGN_DATE_AND_TIME_ASSIGNMENT ( #222, #258, ( #113 ) ) ;
#117 = CC_DESIGN_PERSON_AND_ORGANIZATION_ASSIGNMENT ( #225, #1083, ( #113 ) ) ;
#118 = CC_DESIGN_APPROVAL ( #78, ( #119 ) ) ;
#119 = SECURITY_CLASSIFICATION ( '', '', #1032 ) ;
#120 = PRODUCT_DEFINITION ( 'UNKNOWN', '', #76, #269 ) ;
#121 = PRODUCT_DEFINITION ( 'UNKNOWN', '', #97, #265 ) ;
#122 = EDGE_CURVE ( 'NONE', #499, #485, #547, .T. ) ;
#123 = EDGE_CURVE ( 'NONE', #499, #491, #542, .T. ) ;
#124 = EDGE_CURVE ( 'NONE', #520, #511, #536, .T. ) ;
#125 = EDGE_CURVE ( 'NONE', #511, #492, #544, .T. ) ;
#126 = EDGE_CURVE ( 'NONE', #478, #524, #629, .T. ) ;
#127 = EDGE_CURVE ( 'NONE', #495, #493, #628, .T. ) ;
#128 = EDGE_CURVE ( 'NONE', #479, #483, #630, .T. ) ;
#129 = EDGE_CURVE ( 'NONE', #499, #512, #640, .T. ) ;
#130 = EDGE_CURVE ( 'NONE', #505, #474, #631, .T. ) ;
#131 = EDGE_CURVE ( 'NONE', #493, #517, #602, .T. ) ;
#132 = EDGE_CURVE ( 'NONE', #491, #502, #632, .T. ) ;
#133 = EDGE_CURVE ( 'NONE', #491, #499, #601, .T. ) ;
#134 = EDGE_CURVE ( 'NONE', #474, #511, #626, .T. ) ;
#135 = EDGE_CURVE ( 'NONE', #514, #481, #624, .T. ) ;
#136 = EDGE_CURVE ( 'NONE', #503, #478, #618, .T. ) ;
#137 = EDGE_CURVE ( 'NONE', #496, #475, #634, .T. ) ;
#138 = EDGE_CURVE ( 'NONE', #484, #496, #635, .T. ) ;
#139 = EDGE_CURVE ( 'NONE', #500, #501, #616, .T. ) ;
#140 = EDGE_CURVE ( 'NONE', #535, #520, #620, .T. ) ;
#141 = EDGE_CURVE ( 'NONE', #505, #520, #605, .T. ) ;
#142 = EDGE_CURVE ( 'NONE', #484, #498, #617, .T. ) ;
#143 = EDGE_CURVE ( 'NONE', #511, #474, #622, .T. ) ;
#144 = EDGE_CURVE ( 'NONE', #485, #506, #637, .T. ) ;
#145 = EDGE_CURVE ( 'NONE', #481, #494, #638, .T. ) ;
#146 = EDGE_CURVE ( 'NONE', #503, #489, #609, .T. ) ;
#147 = EDGE_CURVE ( 'NONE', #514, #515, #619, .T. ) ;
#148 = EDGE_CURVE ( 'NONE', #498, #475, #603, .T. ) ;
#149 = EDGE_CURVE ( 'NONE', #518, #535, #636, .T. ) ;
#150 = EDGE_CURVE ( 'NONE', #489, #503, #610, .T. ) ;
#151 = EDGE_CURVE ( 'NONE', #491, #506, #604, .T. ) ;
#152 = EDGE_CURVE ( 'NONE', #520, #505, #613, .T. ) ;
#153 = EDGE_CURVE ( 'NONE', #524, #478, #623, .T. ) ;
#154 = EDGE_CURVE ( 'NONE', #535, #483, #621, .T. ) ;
#155 = EDGE_CURVE ( 'NONE', #495, #497, #612, .T. ) ;
#156 = EDGE_CURVE ( 'NONE', #518, #479, #627, .T. ) ;
#157 = EDGE_CURVE ( 'NONE', #489, #524, #689, .T. ) ;
#158 = EDGE_CURVE ( 'NONE', #500, #508, #660, .T. ) ;
#159 = EDGE_CURVE ( 'NONE', #506, #485, #672, .T. ) ;
#160 = EDGE_CURVE ( 'NONE', #474, #526, #678, .T. ) ;
#161 = EDGE_CURVE ( 'NONE', #475, #498, #643, .T. ) ;
#162 = EDGE_CURVE ( 'NONE', #515, #494, #673, .T. ) ;
#163 = EDGE_CURVE ( 'NONE', #501, #508, #686, .T. ) ;
#164 = EDGE_CURVE ( 'NONE', #483, #535, #687, .T. ) ;
#165 = EDGE_CURVE ( 'NONE', #517, #493, #649, .T. ) ;
#166 = EDGE_CURVE ( 'NONE', #497, #517, #662, .T. ) ;
#167 = EDGE_CURVE ( 'NONE', #512, #502, #667, .T. ) ;
#168 = AXIS2_PLACEMENT_3D ( 'NONE', #731, #719, #733 ) ;
#169 = AXIS2_PLACEMENT_3D ( 'NONE', #738, #723, #735 ) ;
#170 = AXIS2_PLACEMENT_3D ( 'NONE', #775, #769, #750 ) ;
#171 = AXIS2_PLACEMENT_3D ( 'NONE', #728, #727, #726 ) ;
#172 = AXIS2_PLACEMENT_3D ( 'NONE', #747, #761, #744 ) ;
#173 = AXIS2_PLACEMENT_3D ( 'NONE', #798, #786, #809 ) ;
#174 = AXIS2_PLACEMENT_3D ( 'NONE', #794, #784, #806 ) ;
#175 = AXIS2_PLACEMENT_3D ( 'NONE', #812, #793, #811 ) ;
#176 = AXIS2_PLACEMENT_3D ( 'NONE', #801, #805, #782 ) ;
#177 = AXIS2_PLACEMENT_3D ( 'NONE', #706, #712, #716 ) ;
#178 = AXIS2_PLACEMENT_3D ( 'NONE', #711, #707, #708 ) ;
#179 = AXIS2_PLACEMENT_3D ( 'NONE', #764, #756, #774 ) ;
#180 = EDGE_CURVE ( 'NONE', #515, #514, #663, .T. ) ;
#181 = AXIS2_PLACEMENT_3D ( 'NONE', #773, #770, #777 ) ;
#182 = AXIS2_PLACEMENT_3D ( 'NONE', #804, #797, #814 ) ;
#183 = AXIS2_PLACEMENT_3D ( 'NONE', #732, #730, #734 ) ;
#184 = EDGE_CURVE ( 'NONE', #497, #495, #675, .T. ) ;
#185 = AXIS2_PLACEMENT_3D ( 'NONE', #787, #788, #799 ) ;
#186 = AXIS2_PLACEMENT_3D ( 'NONE', #766, #765, #749 ) ;
#187 = AXIS2_PLACEMENT_3D ( 'NONE', #792, #818, #803 ) ;
#188 = AXIS2_PLACEMENT_3D ( 'NONE', #768, #746, #753 ) ;
#189 = AXIS2_PLACEMENT_3D ( 'NONE', #771, #762, #759 ) ;
#190 = AXIS2_PLACEMENT_3D ( 'NONE', #817, #781, #791 ) ;
#191 = AXIS2_PLACEMENT_3D ( 'NONE', #802, #808, #795 ) ;
#192 = AXIS2_PLACEMENT_3D ( 'NONE', #785, #807, #819 ) ;
#193 = AXIS2_PLACEMENT_3D ( 'NONE', #790, #826, #828 ) ;
#194 = AXIS2_PLACEMENT_3D ( 'NONE', #720, #739, #725 ) ;
#195 = AXIS2_PLACEMENT_3D ( 'NONE', #856, #830, #857 ) ;
#196 = AXIS2_PLACEMENT_3D ( 'NONE', #748, #813, #810 ) ;
#197 = AXIS2_PLACEMENT_3D ( 'NONE', #843, #847, #848 ) ;
#198 = AXIS2_PLACEMENT_3D ( 'NONE', #714, #715, #740 ) ;
#199 = AXIS2_PLACEMENT_3D ( 'NONE', #780, #754, #776 ) ;
#200 = AXIS2_PLACEMENT_3D ( 'NONE', #745, #757, #755 ) ;
#201 = AXIS2_PLACEMENT_3D ( 'NONE', #816, #820, #800 ) ;
#202 = EDGE_CURVE ( 'NONE', #494, #481, #693, .T. ) ;
#203 = AXIS2_PLACEMENT_3D ( 'NONE', #710, #709, #713 ) ;
#204 = EDGE_CURVE ( 'NONE', #496, #484, #688, .T. ) ;
#205 = EDGE_CURVE ( 'NONE', #501, #500, #674, .T. ) ;
#206 = AXIS2_PLACEMENT_3D ( 'NONE', #836, #825, #846 ) ;
#207 = AXIS2_PLACEMENT_3D ( 'NONE', #835, #850, #860 ) ;
#208 = AXIS2_PLACEMENT_3D ( 'NONE', #833, #858, #845 ) ;
#209 = CALENDAR_DATE ( 2017, 20, 2 ) ;
#210 = LOCAL_TIME ( 17, 5, 41.00000000000000000, #214 ) ;
#211 = CONTEXT_DEPENDENT_SHAPE_REPRESENTATION ( #1064, #266 ) ;
#212 = LOCAL_TIME ( 17, 5, 41.00000000000000000, #230 ) ;
#213 = CALENDAR_DATE ( 2017, 20, 2 ) ;
#214 = COORDINATED_UNIVERSAL_TIME_OFFSET ( 1, 0, .AHEAD. ) ;
#215 = CONTEXT_DEPENDENT_SHAPE_REPRESENTATION ( #1079, #262 ) ;
#216 = CALENDAR_DATE ( 2017, 20, 2 ) ;
#217 = PERSON_AND_ORGANIZATION ( #6, #338 ) ;
#218 = APPROVAL_DATE_TIME ( #224, #101 ) ;
#219 = APPROVAL_PERSON_ORGANIZATION ( #247, #99, #1038 ) ;
#220 = DATE_AND_TIME ( #209, #235 ) ;
#221 = COORDINATED_UNIVERSAL_TIME_OFFSET ( 1, 0, .AHEAD. ) ;
#222 = DATE_AND_TIME ( #244, #245 ) ;
#223 = DATE_AND_TIME ( #213, #212 ) ;
#224 = DATE_AND_TIME ( #241, #233 ) ;
#225 = PERSON_AND_ORGANIZATION ( #1, #254 ) ;
#226 = COORDINATED_UNIVERSAL_TIME_OFFSET ( 1, 0, .AHEAD. ) ;
#227 = PERSON_AND_ORGANIZATION ( #6, #338 ) ;
#228 = CALENDAR_DATE ( 2017, 20, 2 ) ;
#229 = PERSON_AND_ORGANIZATION ( #4, #238 ) ;
#230 = COORDINATED_UNIVERSAL_TIME_OFFSET ( 1, 0, .AHEAD. ) ;
#231 = APPROVAL_PERSON_ORGANIZATION ( #217, #101, #1046 ) ;
#232 = APPROVAL_DATE_TIME ( #223, #114 ) ;
#233 = LOCAL_TIME ( 17, 5, 41.00000000000000000, #221 ) ;
#234 = DATE_AND_TIME ( #228, #210 ) ;
#235 = LOCAL_TIME ( 17, 5, 41.00000000000000000, #246 ) ;
#236 = DATE_AND_TIME ( #243, #240 ) ;
#237 = APPROVAL_DATE_TIME ( #234, #103 ) ;
#238 = ORGANIZATION ( 'NAUO-ORG1', 'UNSPECIFIED', 'UNSPECIFIED' ) ;
#239 = PERSON_AND_ORGANIZATION_ROLE ( 'classification_officer' ) ;
#240 = LOCAL_TIME ( 17, 5, 41.00000000000000000, #257 ) ;
#241 = CALENDAR_DATE ( 2017, 20, 2 ) ;
#242 = DATE_AND_TIME ( #216, #260 ) ;
#243 = CALENDAR_DATE ( 2017, 20, 2 ) ;
#244 = CALENDAR_DATE ( 2017, 20, 2 ) ;
#245 = LOCAL_TIME ( 17, 5, 41.00000000000000000, #226 ) ;
#246 = COORDINATED_UNIVERSAL_TIME_OFFSET ( 1, 0, .AHEAD. ) ;
#247 = PERSON_AND_ORGANIZATION ( #6, #338 ) ;
#248 = APPROVAL_DATE_TIME ( #242, #99 ) ;
#249 = PERSON_AND_ORGANIZATION ( #6, #338 ) ;
#250 = ITEM_DEFINED_TRANSFORMATION ( 'NONE', 'NONE', #53,  #43 ) ;
#251 = APPROVAL_PERSON_ORGANIZATION ( #229, #103, #1071 ) ;
#252 = PERSON_AND_ORGANIZATION ( #6, #338 ) ;
#253 = ITEM_DEFINED_TRANSFORMATION ( 'NONE', 'NONE', #61,  #43 ) ;
#254 = ORGANIZATION ( 'NAUO-ORG2', 'UNSPECIFIED', 'UNSPECIFIED' ) ;
#255 = APPROVAL_PERSON_ORGANIZATION ( #225, #114, #1081 ) ;
#256 = COORDINATED_UNIVERSAL_TIME_OFFSET ( 1, 0, .AHEAD. ) ;
#257 = COORDINATED_UNIVERSAL_TIME_OFFSET ( 1, 0, .AHEAD. ) ;
#258 = DATE_TIME_ROLE ( 'classification_date' ) ;
#259 = SHAPE_DEFINITION_REPRESENTATION ( #264, #308 ) ;
#260 = LOCAL_TIME ( 17, 5, 41.00000000000000000, #256 ) ;
#261 = DATE_AND_TIME ( #330, #329 ) ;
#262 = PRODUCT_DEFINITION_SHAPE ( 'NONE', 'NONE',  #1085 ) ;
#263 = PRODUCT_DEFINITION_SHAPE ( 'NONE', 'NONE',  #120 ) ;
#264 = PRODUCT_DEFINITION_SHAPE ( 'NONE', 'NONE',  #121 ) ;
#265 = DESIGN_CONTEXT ( 'detailed design', #1031, 'design' ) ;
#266 = PRODUCT_DEFINITION_SHAPE ( 'NONE', 'NONE',  #1084 ) ;
#267 = DESIGN_CONTEXT ( 'detailed design', #1026, 'design' ) ;
#268 = PRODUCT_DEFINITION_SHAPE ( 'NONE', 'NONE',  #54 ) ;
#269 = DESIGN_CONTEXT ( 'detailed design', #1027, 'design' ) ;
#270 = ADVANCED_FACE ( 'NONE', ( #690 ), #696, .F. ) ;
#271 = ADVANCED_FACE ( 'NONE', ( #664, #665 ), #871, .T. ) ;
#272 = ADVANCED_FACE ( 'NONE', ( #658, #685 ), #876, .T. ) ;
#273 = ADVANCED_FACE ( 'NONE', ( #692 ), #668, .T. ) ;
#274 = ADVANCED_FACE ( 'NONE', ( #691 ), #694, .F. ) ;
#275 = ADVANCED_FACE ( 'NONE', ( #659 ), #695, .T. ) ;
#276 = ADVANCED_FACE ( 'NONE', ( #666 ), #679, .F. ) ;
#277 = ADVANCED_FACE ( 'NONE', ( #697 ), #677, .F. ) ;
#278 = ADVANCED_FACE ( 'NONE', ( #641 ), #676, .T. ) ;
#279 = ADVANCED_FACE ( 'NONE', ( #644 ), #652, .F. ) ;
#280 = ADVANCED_FACE ( 'NONE', ( #657 ), #670, .T. ) ;
#281 = ADVANCED_FACE ( 'NONE', ( #698 ), #699, .T. ) ;
#282 = ADVANCED_FACE ( 'NONE', ( #680 ), #681, .T. ) ;
#283 = ADVANCED_FACE ( 'NONE', ( #654 ), #647, .T. ) ;
#284 = ADVANCED_FACE ( 'NONE', ( #651 ), #683, .T. ) ;
#285 = ADVANCED_FACE ( 'NONE', ( #648 ), #645, .T. ) ;
#286 = ADVANCED_FACE ( 'NONE', ( #655, #646 ), #941, .F. ) ;
#287 = ADVANCED_FACE ( 'NONE', ( #669 ), #952, .T. ) ;
#288 = ADVANCED_FACE ( 'NONE', ( #671 ), #682, .T. ) ;
#289 = ADVANCED_FACE ( 'NONE', ( #702 ), #684, .F. ) ;
#290 = ADVANCED_FACE ( 'NONE', ( #703 ), #931, .T. ) ;
#291 = ADVANCED_FACE ( 'NONE', ( #704, #705 ), #909, .T. ) ;
#292 = ADVANCED_FACE ( 'NONE', ( #700 ), #701, .T. ) ;
#293 = ADVANCED_FACE ( 'NONE', ( #313 ), #314, .T. ) ;
#294 = ADVANCED_FACE ( 'NONE', ( #311 ), #916, .T. ) ;
#295 = ADVANCED_FACE ( 'NONE', ( #312 ), #319, .F. ) ;
#296 = ADVANCED_FACE ( 'NONE', ( #316 ), #320, .T. ) ;
#297 = ADVANCED_FACE ( 'NONE', ( #323, #310 ), #925, .T. ) ;
#298 = ADVANCED_FACE ( 'NONE', ( #317 ), #315, .T. ) ;
#299 = ADVANCED_FACE ( 'NONE', ( #318 ), #321, .F. ) ;
#300 = ADVANCED_BREP_SHAPE_REPRESENTATION ( '', ( #301, #43 ), #46 ) ;
#301 = MANIFOLD_SOLID_BREP ( 'Revolve1', #405 ) ;
#302 = UNCERTAINTY_MEASURE_WITH_UNIT (LENGTH_MEASURE( 1.000000000000000100E-005 ), #960, 'distance_accuracy_value', 'NONE');
#303 = UNCERTAINTY_MEASURE_WITH_UNIT (LENGTH_MEASURE( 1.000000000000000100E-005 ), #970, 'distance_accuracy_value', 'NONE');
#304 = UNCERTAINTY_MEASURE_WITH_UNIT (LENGTH_MEASURE( 1.000000000000000100E-005 ), #985, 'distance_accuracy_value', 'NONE');
#305 = MANIFOLD_SOLID_BREP ( 'Cut-Extrude2', #482 ) ;
#306 = ADVANCED_BREP_SHAPE_REPRESENTATION ( '', ( #305, #43 ), #49 ) ;
#307 = SHAPE_REPRESENTATION ( 'ALP2512', ( #56, #53, #61 ), #70 ) ;
#308 = SHAPE_REPRESENTATION ( 'Telo fi40 metalna', ( #43 ), #46 ) ;
#309 = SHAPE_REPRESENTATION ( 'Gumena podloga fi40', ( #43 ), #49 ) ;
#310 = FACE_OUTER_BOUND ( 'NONE', #566, .T. ) ;
#311 = FACE_OUTER_BOUND ( 'NONE', #593, .T. ) ;
#312 = FACE_OUTER_BOUND ( 'NONE', #572, .T. ) ;
#313 = FACE_OUTER_BOUND ( 'NONE', #592, .T. ) ;
#314 = CYLINDRICAL_SURFACE ( 'NONE', #23, 19.50000000000000000 ) ;
#315 = CYLINDRICAL_SURFACE ( 'NONE', #50, 7.499999999999997300 ) ;
#316 = FACE_OUTER_BOUND ( 'NONE', #579, .T. ) ;
#317 = FACE_OUTER_BOUND ( 'NONE', #551, .T. ) ;
#318 = FACE_OUTER_BOUND ( 'NONE', #564, .T. ) ;
#319 = CYLINDRICAL_SURFACE ( 'NONE', #48, 15.00000000000000000 ) ;
#320 = TOROIDAL_SURFACE ( 'NONE', #44, 10.84529946162075100, 2.000000000000000900 ) ;
#321 = SPHERICAL_SURFACE ( 'NONE', #47, 7.500000000000000000 ) ;
#322 = COORDINATED_UNIVERSAL_TIME_OFFSET ( 1, 0, .AHEAD. ) ;
#323 = FACE_BOUND ( 'NONE', #549, .T. ) ;
#324 = LOCAL_TIME ( 17, 5, 41.00000000000000000, #322 ) ;
#325 = CALENDAR_DATE ( 2017, 20, 2 ) ;
#326 = APPROVAL_DATE_TIME ( #327, #108 ) ;
#327 = DATE_AND_TIME ( #325, #324 ) ;
#328 = PERSON_AND_ORGANIZATION ( #6, #338 ) ;
#329 = LOCAL_TIME ( 17, 5, 41.00000000000000000, #331 ) ;
#330 = CALENDAR_DATE ( 2017, 20, 2 ) ;
#331 = COORDINATED_UNIVERSAL_TIME_OFFSET ( 1, 0, .AHEAD. ) ;
#332 = SHAPE_REPRESENTATION_RELATIONSHIP ( 'NONE' , 'NONE' ,  #308, #300 ) ;
#333 = SHAPE_DEFINITION_REPRESENTATION ( #268, #307 ) ;
#334 = DATE_AND_TIME ( #351, #349 ) ;
#335 = PERSON_AND_ORGANIZATION ( #6, #338 ) ;
#336 = PERSON_AND_ORGANIZATION ( #6, #338 ) ;
#337 = APPROVAL_PERSON_ORGANIZATION ( #335, #63, #1016 ) ;
#338 = ORGANIZATION ( 'UNSPECIFIED', 'UNSPECIFIED', '' ) ;
#339 = SHAPE_REPRESENTATION_RELATIONSHIP ( 'NONE' , 'NONE' ,  #309, #306 ) ;
#340 = SHAPE_DEFINITION_REPRESENTATION ( #263, #309 ) ;
#341 = PERSON_AND_ORGANIZATION ( #6, #338 ) ;
#342 = PERSON_AND_ORGANIZATION ( #6, #338 ) ;
#343 = APPROVAL_PERSON_ORGANIZATION ( #342, #59, #1053 ) ;
#344 = COORDINATED_UNIVERSAL_TIME_OFFSET ( 1, 0, .AHEAD. ) ;
#345 = LOCAL_TIME ( 17, 5, 41.00000000000000000, #344 ) ;
#346 = CALENDAR_DATE ( 2017, 20, 2 ) ;
#347 = DATE_AND_TIME ( #346, #345 ) ;
#348 = APPROVAL_DATE_TIME ( #347, #59 ) ;
#349 = LOCAL_TIME ( 17, 5, 41.00000000000000000, #350 ) ;
#350 = COORDINATED_UNIVERSAL_TIME_OFFSET ( 1, 0, .AHEAD. ) ;
#351 = CALENDAR_DATE ( 2017, 20, 2 ) ;
#352 = COORDINATED_UNIVERSAL_TIME_OFFSET ( 1, 0, .AHEAD. ) ;
#353 = DATE_AND_TIME ( #379, #393 ) ;
#354 = APPROVAL_DATE_TIME ( #353, #106 ) ;
#355 = LOCAL_TIME ( 17, 5, 41.00000000000000000, #352 ) ;
#356 = CALENDAR_DATE ( 2017, 20, 2 ) ;
#357 = APPROVAL_PERSON_ORGANIZATION ( #376, #106, #1021 ) ;
#358 = DATE_AND_TIME ( #356, #355 ) ;
#359 = PERSON_AND_ORGANIZATION ( #6, #338 ) ;
#360 = PERSON_AND_ORGANIZATION ( #6, #338 ) ;
#361 = COORDINATED_UNIVERSAL_TIME_OFFSET ( 1, 0, .AHEAD. ) ;
#362 = LOCAL_TIME ( 17, 5, 41.00000000000000000, #369 ) ;
#363 = CALENDAR_DATE ( 2017, 20, 2 ) ;
#364 = LOCAL_TIME ( 17, 5, 41.00000000000000000, #361 ) ;
#365 = PERSON_AND_ORGANIZATION ( #6, #338 ) ;
#366 = APPROVAL_PERSON_ORGANIZATION ( #373, #107, #1066 ) ;
#367 = DATE_AND_TIME ( #390, #364 ) ;
#368 = COORDINATED_UNIVERSAL_TIME_OFFSET ( 1, 0, .AHEAD. ) ;
#369 = COORDINATED_UNIVERSAL_TIME_OFFSET ( 1, 0, .AHEAD. ) ;
#370 = APPROVAL_DATE_TIME ( #367, #63 ) ;
#371 = PERSON_AND_ORGANIZATION ( #6, #338 ) ;
#372 = DATE_AND_TIME ( #385, #362 ) ;
#373 = PERSON_AND_ORGANIZATION ( #6, #338 ) ;
#374 = DATE_AND_TIME ( #363, #378 ) ;
#375 = PERSON_AND_ORGANIZATION ( #6, #338 ) ;
#376 = PERSON_AND_ORGANIZATION ( #6, #338 ) ;
#377 = COORDINATED_UNIVERSAL_TIME_OFFSET ( 1, 0, .AHEAD. ) ;
#378 = LOCAL_TIME ( 17, 5, 41.00000000000000000, #368 ) ;
#379 = CALENDAR_DATE ( 2017, 20, 2 ) ;
#380 = PERSON_AND_ORGANIZATION ( #6, #338 ) ;
#381 = COORDINATED_UNIVERSAL_TIME_OFFSET ( 1, 0, .AHEAD. ) ;
#382 = CALENDAR_DATE ( 2017, 20, 2 ) ;
#383 = DATE_AND_TIME ( #382, #386 ) ;
#384 = COORDINATED_UNIVERSAL_TIME_OFFSET ( 1, 0, .AHEAD. ) ;
#385 = CALENDAR_DATE ( 2017, 20, 2 ) ;
#386 = LOCAL_TIME ( 17, 5, 41.00000000000000000, #381 ) ;
#387 = CALENDAR_DATE ( 2017, 20, 2 ) ;
#388 = DATE_AND_TIME ( #387, #398 ) ;
#389 = APPROVAL_DATE_TIME ( #388, #83 ) ;
#390 = CALENDAR_DATE ( 2017, 20, 2 ) ;
#391 = PERSON_AND_ORGANIZATION ( #6, #338 ) ;
#392 = PERSON_AND_ORGANIZATION ( #6, #338 ) ;
#393 = LOCAL_TIME ( 17, 5, 41.00000000000000000, #377 ) ;
#394 = PERSON_AND_ORGANIZATION ( #6, #338 ) ;
#395 = PERSON_AND_ORGANIZATION ( #6, #338 ) ;
#396 = APPROVAL_DATE_TIME ( #374, #107 ) ;
#397 = APPROVAL_PERSON_ORGANIZATION ( #395, #83, #1029 ) ;
#398 = LOCAL_TIME ( 17, 5, 41.00000000000000000, #384 ) ;
#399 = COORDINATED_UNIVERSAL_TIME_OFFSET ( 1, 0, .AHEAD. ) ;
#400 = APPROVAL_PERSON_ORGANIZATION ( #359, #78, #1033 ) ;
#401 = LOCAL_TIME ( 17, 5, 41.00000000000000000, #399 ) ;
#402 = CALENDAR_DATE ( 2017, 20, 2 ) ;
#403 = EDGE_LOOP ( 'NONE', ( #451, #461, #404, #430 ) ) ;
#404 = ORIENTED_EDGE ( 'NONE', *, *, #129, .T. ) ;
#405 = CLOSED_SHELL ( 'NONE', ( #295, #278, #276, #273, #275, #292, #283, #271, #293, #282, #284, #296, #291, #299, #294, #298, #272, #279 ) ) ;
#406 = ORIENTED_EDGE ( 'NONE', *, *, #150, .F. ) ;
#407 = ORIENTED_EDGE ( 'NONE', *, *, #148, .F. ) ;
#408 = ORIENTED_EDGE ( 'NONE', *, *, #138, .T. ) ;
#409 = ORIENTED_EDGE ( 'NONE', *, *, #146, .F. ) ;
#410 = ORIENTED_EDGE ( 'NONE', *, *, #163, .F. ) ;
#411 = ORIENTED_EDGE ( 'NONE', *, *, #126, .T. ) ;
#412 = ORIENTED_EDGE ( 'NONE', *, *, #141, .T. ) ;
#413 = ORIENTED_EDGE ( 'NONE', *, *, #167, .F. ) ;
#414 = ORIENTED_EDGE ( 'NONE', *, *, #149, .T. ) ;
#415 = ORIENTED_EDGE ( 'NONE', *, *, #164, .T. ) ;
#416 = ORIENTED_EDGE ( 'NONE', *, *, #141, .F. ) ;
#417 = ORIENTED_EDGE ( 'NONE', *, *, #162, .T. ) ;
#418 = ORIENTED_EDGE ( 'NONE', *, *, #9, .F. ) ;
#419 = ORIENTED_EDGE ( 'NONE', *, *, #145, .F. ) ;
#420 = ORIENTED_EDGE ( 'NONE', *, *, #134, .T. ) ;
#421 = ORIENTED_EDGE ( 'NONE', *, *, #137, .T. ) ;
#422 = ORIENTED_EDGE ( 'NONE', *, *, #160, .F. ) ;
#423 = ORIENTED_EDGE ( 'NONE', *, *, #131, .T. ) ;
#424 = ORIENTED_EDGE ( 'NONE', *, *, #204, .F. ) ;
#425 = ORIENTED_EDGE ( 'NONE', *, *, #124, .F. ) ;
#426 = ORIENTED_EDGE ( 'NONE', *, *, #132, .T. ) ;
#427 = ORIENTED_EDGE ( 'NONE', *, *, #123, .F. ) ;
#428 = ORIENTED_EDGE ( 'NONE', *, *, #153, .F. ) ;
#429 = ORIENTED_EDGE ( 'NONE', *, *, #161, .T. ) ;
#430 = ORIENTED_EDGE ( 'NONE', *, *, #167, .T. ) ;
#431 = ORIENTED_EDGE ( 'NONE', *, *, #122, .T. ) ;
#432 = ORIENTED_EDGE ( 'NONE', *, *, #144, .T. ) ;
#433 = ORIENTED_EDGE ( 'NONE', *, *, #159, .F. ) ;
#434 = ORIENTED_EDGE ( 'NONE', *, *, #160, .T. ) ;
#435 = ORIENTED_EDGE ( 'NONE', *, *, #135, .F. ) ;
#436 = ORIENTED_EDGE ( 'NONE', *, *, #125, .T. ) ;
#437 = ORIENTED_EDGE ( 'NONE', *, *, #123, .T. ) ;
#438 = ORIENTED_EDGE ( 'NONE', *, *, #164, .F. ) ;
#439 = ORIENTED_EDGE ( 'NONE', *, *, #166, .F. ) ;
#440 = ORIENTED_EDGE ( 'NONE', *, *, #11, .T. ) ;
#441 = ORIENTED_EDGE ( 'NONE', *, *, #7, .F. ) ;
#442 = ORIENTED_EDGE ( 'NONE', *, *, #136, .T. ) ;
#443 = ORIENTED_EDGE ( 'NONE', *, *, #151, .T. ) ;
#444 = ORIENTED_EDGE ( 'NONE', *, *, #153, .T. ) ;
#445 = ORIENTED_EDGE ( 'NONE', *, *, #139, .F. ) ;
#446 = ORIENTED_EDGE ( 'NONE', *, *, #144, .F. ) ;
#447 = ORIENTED_EDGE ( 'NONE', *, *, #150, .T. ) ;
#448 = ORIENTED_EDGE ( 'NONE', *, *, #140, .T. ) ;
#449 = ORIENTED_EDGE ( 'NONE', *, *, #127, .T. ) ;
#450 = ORIENTED_EDGE ( 'NONE', *, *, #10, .T. ) ;
#451 = ORIENTED_EDGE ( 'NONE', *, *, #132, .F. ) ;
#452 = ORIENTED_EDGE ( 'NONE', *, *, #133, .F. ) ;
#453 = ORIENTED_EDGE ( 'NONE', *, *, #157, .T. ) ;
#454 = ORIENTED_EDGE ( 'NONE', *, *, #204, .T. ) ;
#455 = ORIENTED_EDGE ( 'NONE', *, *, #158, .T. ) ;
#456 = ORIENTED_EDGE ( 'NONE', *, *, #137, .F. ) ;
#457 = ORIENTED_EDGE ( 'NONE', *, *, #159, .T. ) ;
#458 = ORIENTED_EDGE ( 'NONE', *, *, #10, .F. ) ;
#459 = ORIENTED_EDGE ( 'NONE', *, *, #142, .T. ) ;
#460 = ORIENTED_EDGE ( 'NONE', *, *, #161, .F. ) ;
#461 = ORIENTED_EDGE ( 'NONE', *, *, #133, .T. ) ;
#462 = ORIENTED_EDGE ( 'NONE', *, *, #126, .F. ) ;
#463 = ORIENTED_EDGE ( 'NONE', *, *, #8, .T. ) ;
#464 = ORIENTED_EDGE ( 'NONE', *, *, #129, .F. ) ;
#465 = ORIENTED_EDGE ( 'NONE', *, *, #151, .F. ) ;
#466 = ORIENTED_EDGE ( 'NONE', *, *, #143, .T. ) ;
#467 = ORIENTED_EDGE ( 'NONE', *, *, #136, .F. ) ;
#468 = ORIENTED_EDGE ( 'NONE', *, *, #157, .F. ) ;
#469 = ORIENTED_EDGE ( 'NONE', *, *, #147, .T. ) ;
#470 = ORIENTED_EDGE ( 'NONE', *, *, #142, .F. ) ;
#471 = ORIENTED_EDGE ( 'NONE', *, *, #122, .F. ) ;
#472 = ORIENTED_EDGE ( 'NONE', *, *, #130, .T. ) ;
#473 = ORIENTED_EDGE ( 'NONE', *, *, #9, .T. ) ;
#474 = VERTEX_POINT ( 'NONE', #961 ) ;
#475 = VERTEX_POINT ( 'NONE', #987 ) ;
#476 = ORIENTED_EDGE ( 'NONE', *, *, #152, .F. ) ;
#477 = ORIENTED_EDGE ( 'NONE', *, *, #143, .F. ) ;
#478 = VERTEX_POINT ( 'NONE', #986 ) ;
#479 = VERTEX_POINT ( 'NONE', #913 ) ;
#480 = ORIENTED_EDGE ( 'NONE', *, *, #156, .T. ) ;
#481 = VERTEX_POINT ( 'NONE', #1015 ) ;
#482 = CLOSED_SHELL ( 'NONE', ( #289, #270, #285, #281, #280, #297, #286, #288, #277, #287, #274, #290 ) ) ;
#483 = VERTEX_POINT ( 'NONE', #1008 ) ;
#484 = VERTEX_POINT ( 'NONE', #991 ) ;
#485 = VERTEX_POINT ( 'NONE', #977 ) ;
#486 = ORIENTED_EDGE ( 'NONE', *, *, #146, .T. ) ;
#487 = ORIENTED_EDGE ( 'NONE', *, *, #11, .F. ) ;
#488 = ORIENTED_EDGE ( 'NONE', *, *, #138, .F. ) ;
#489 = VERTEX_POINT ( 'NONE', #1000 ) ;
#490 = ORIENTED_EDGE ( 'NONE', *, *, #131, .F. ) ;
#491 = VERTEX_POINT ( 'NONE', #997 ) ;
#492 = VERTEX_POINT ( 'NONE', #998 ) ;
#493 = VERTEX_POINT ( 'NONE', #988 ) ;
#494 = VERTEX_POINT ( 'NONE', #978 ) ;
#495 = VERTEX_POINT ( 'NONE', #921 ) ;
#496 = VERTEX_POINT ( 'NONE', #1014 ) ;
#497 = VERTEX_POINT ( 'NONE', #968 ) ;
#498 = VERTEX_POINT ( 'NONE', #982 ) ;
#499 = VERTEX_POINT ( 'NONE', #1001 ) ;
#500 = VERTEX_POINT ( 'NONE', #989 ) ;
#501 = VERTEX_POINT ( 'NONE', #959 ) ;
#502 = VERTEX_POINT ( 'NONE', #1004 ) ;
#503 = VERTEX_POINT ( 'NONE', #1009 ) ;
#504 = ORIENTED_EDGE ( 'NONE', *, *, #165, .F. ) ;
#505 = VERTEX_POINT ( 'NONE', #994 ) ;
#506 = VERTEX_POINT ( 'NONE', #1007 ) ;
#507 = ORIENTED_EDGE ( 'NONE', *, *, #148, .T. ) ;
#508 = VERTEX_POINT ( 'NONE', #1005 ) ;
#509 = ORIENTED_EDGE ( 'NONE', *, *, #135, .T. ) ;
#510 = ORIENTED_EDGE ( 'NONE', *, *, #152, .T. ) ;
#511 = VERTEX_POINT ( 'NONE', #983 ) ;
#512 = VERTEX_POINT ( 'NONE', #1010 ) ;
#513 = ORIENTED_EDGE ( 'NONE', *, *, #134, .F. ) ;
#514 = VERTEX_POINT ( 'NONE', #990 ) ;
#515 = VERTEX_POINT ( 'NONE', #1011 ) ;
#516 = ORIENTED_EDGE ( 'NONE', *, *, #8, .F. ) ;
#517 = VERTEX_POINT ( 'NONE', #996 ) ;
#518 = VERTEX_POINT ( 'NONE', #965 ) ;
#519 = ORIENTED_EDGE ( 'NONE', *, *, #7, .T. ) ;
#520 = VERTEX_POINT ( 'NONE', #980 ) ;
#521 = ORIENTED_EDGE ( 'NONE', *, *, #202, .F. ) ;
#522 = ORIENTED_EDGE ( 'NONE', *, *, #184, .T. ) ;
#523 = ORIENTED_EDGE ( 'NONE', *, *, #155, .T. ) ;
#524 = VERTEX_POINT ( 'NONE', #995 ) ;
#525 = ORIENTED_EDGE ( 'NONE', *, *, #147, .F. ) ;
#526 = VERTEX_POINT ( 'NONE', #962 ) ;
#527 = ORIENTED_EDGE ( 'NONE', *, *, #180, .F. ) ;
#528 = ORIENTED_EDGE ( 'NONE', *, *, #127, .F. ) ;
#529 = ORIENTED_EDGE ( 'NONE', *, *, #154, .T. ) ;
#530 = ORIENTED_EDGE ( 'NONE', *, *, #124, .T. ) ;
#531 = ORIENTED_EDGE ( 'NONE', *, *, #130, .F. ) ;
#532 = ORIENTED_EDGE ( 'NONE', *, *, #155, .F. ) ;
#533 = ORIENTED_EDGE ( 'NONE', *, *, #125, .F. ) ;
#534 = ORIENTED_EDGE ( 'NONE', *, *, #128, .F. ) ;
#535 = VERTEX_POINT ( 'NONE', #979 ) ;
#536 = CIRCLE ( 'NONE', #169, 1.999999999999998200 ) ;
#537 = CIRCLE ( 'NONE', #178, 15.00000000000000000 ) ;
#538 = ORIENTED_EDGE ( 'NONE', *, *, #145, .T. ) ;
#539 = ORIENTED_EDGE ( 'NONE', *, *, #158, .F. ) ;
#540 = ORIENTED_EDGE ( 'NONE', *, *, #163, .T. ) ;
#541 = CIRCLE ( 'NONE', #198, 19.50000000000000000 ) ;
#542 = CIRCLE ( 'NONE', #194, 15.00000000000000000 ) ;
#543 = DATE_AND_TIME ( #402, #401 ) ;
#544 = LINE ( 'NONE', #724, #548 ) ;
#545 = CIRCLE ( 'NONE', #177, 10.84529946162075500 ) ;
#546 = EDGE_LOOP ( 'NONE', ( #525, #527 ) ) ;
#547 = CIRCLE ( 'NONE', #168, 1.000000000000000900 ) ;
#548 = VECTOR ( 'NONE', #721, 1000.000000000000000 ) ;
#549 = EDGE_LOOP ( 'NONE', ( #407, #460 ) ) ;
#550 = ORIENTED_EDGE ( 'NONE', *, *, #180, .T. ) ;
#551 = EDGE_LOOP ( 'NONE', ( #571, #550, #509, #521 ) ) ;
#552 = EDGE_LOOP ( 'NONE', ( #456, #488, #459, #507 ) ) ;
#553 = CIRCLE ( 'NONE', #203, 19.50000000000000000 ) ;
#554 = ORIENTED_EDGE ( 'NONE', *, *, #184, .F. ) ;
#555 = EDGE_LOOP ( 'NONE', ( #406, #453, #444, #467 ) ) ;
#556 = EDGE_LOOP ( 'NONE', ( #408, #454 ) ) ;
#557 = EDGE_LOOP ( 'NONE', ( #413, #458 ) ) ;
#558 = EDGE_LOOP ( 'NONE', ( #424, #421, #429, #470 ) ) ;
#559 = ORIENTED_EDGE ( 'NONE', *, *, #205, .F. ) ;
#560 = EDGE_LOOP ( 'NONE', ( #462, #428 ) ) ;
#561 = ORIENTED_EDGE ( 'NONE', *, *, #140, .F. ) ;
#562 = ORIENTED_EDGE ( 'NONE', *, *, #205, .T. ) ;
#563 = EDGE_LOOP ( 'NONE', ( #562, #582 ) ) ;
#564 = EDGE_LOOP ( 'NONE', ( #539, #559, #540 ) ) ;
#565 = ORIENTED_EDGE ( 'NONE', *, *, #128, .T. ) ;
#566 = EDGE_LOOP ( 'NONE', ( #457, #432 ) ) ;
#567 = EDGE_LOOP ( 'NONE', ( #463, #414, #438, #534 ) ) ;
#568 = EDGE_LOOP ( 'NONE', ( #528, #554, #594, #595 ) ) ;
#569 = EDGE_LOOP ( 'NONE', ( #412, #530, #513, #531 ) ) ;
#570 = EDGE_LOOP ( 'NONE', ( #561, #529, #473, #476 ) ) ;
#571 = ORIENTED_EDGE ( 'NONE', *, *, #162, .F. ) ;
#572 = EDGE_LOOP ( 'NONE', ( #532, #449, #423, #439 ) ) ;
#573 = EDGE_LOOP ( 'NONE', ( #468, #409, #442, #411 ) ) ;
#574 = EDGE_LOOP ( 'NONE', ( #440, #519 ) ) ;
#575 = EDGE_LOOP ( 'NONE', ( #522, #523 ) ) ;
#576 = ORIENTED_EDGE ( 'NONE', *, *, #149, .F. ) ;
#577 = EDGE_LOOP ( 'NONE', ( #427, #431, #433, #465 ) ) ;
#578 = APPROVAL_DATE_TIME ( #543, #78 ) ;
#579 = EDGE_LOOP ( 'NONE', ( #576, #480, #565, #598 ) ) ;
#580 = LINE ( 'NONE', #717, #581 ) ;
#581 = VECTOR ( 'NONE', #718, 1000.000000000000000 ) ;
#582 = ORIENTED_EDGE ( 'NONE', *, *, #139, .T. ) ;
#583 = ORIENTED_EDGE ( 'NONE', *, *, #202, .T. ) ;
#584 = EDGE_LOOP ( 'NONE', ( #437, #426, #450, #464 ) ) ;
#585 = EDGE_LOOP ( 'NONE', ( #471, #452, #443, #446 ) ) ;
#586 = EDGE_LOOP ( 'NONE', ( #415, #448, #416, #418 ) ) ;
#587 = EDGE_LOOP ( 'NONE', ( #425, #510, #472, #477 ) ) ;
#588 = ORIENTED_EDGE ( 'NONE', *, *, #156, .F. ) ;
#589 = EDGE_LOOP ( 'NONE', ( #420, #436, #487, #422 ) ) ;
#590 = EDGE_LOOP ( 'NONE', ( #486, #447 ) ) ;
#591 = EDGE_LOOP ( 'NONE', ( #445, #455, #410 ) ) ;
#592 = EDGE_LOOP ( 'NONE', ( #533, #466, #434, #441 ) ) ;
#593 = EDGE_LOOP ( 'NONE', ( #538, #583 ) ) ;
#594 = ORIENTED_EDGE ( 'NONE', *, *, #166, .T. ) ;
#595 = ORIENTED_EDGE ( 'NONE', *, *, #165, .T. ) ;
#596 = EDGE_LOOP ( 'NONE', ( #469, #417, #419, #435 ) ) ;
#597 = EDGE_LOOP ( 'NONE', ( #504, #490 ) ) ;
#598 = ORIENTED_EDGE ( 'NONE', *, *, #154, .F. ) ;
#599 = EDGE_LOOP ( 'NONE', ( #516, #588 ) ) ;
#600 = VECTOR ( 'NONE', #729, 1000.000000000000000 ) ;
#601 = CIRCLE ( 'NONE', #199, 15.00000000000000000 ) ;
#602 = CIRCLE ( 'NONE', #186, 15.00000000000000000 ) ;
#603 = CIRCLE ( 'NONE', #201, 6.000000000000000900 ) ;
#604 = CIRCLE ( 'NONE', #175, 1.000000000000000000 ) ;
#605 = CIRCLE ( 'NONE', #172, 19.23205080756887900 ) ;
#606 = VECTOR ( 'NONE', #742, 1000.000000000000000 ) ;
#607 = VECTOR ( 'NONE', #751, 1000.000000000000000 ) ;
#608 = VECTOR ( 'NONE', #760, 1000.000000000000000 ) ;
#609 = CIRCLE ( 'NONE', #173, 7.500000000000000000 ) ;
#610 = CIRCLE ( 'NONE', #174, 7.500000000000000000 ) ;
#611 = VECTOR ( 'NONE', #736, 1000.000000000000000 ) ;
#612 = CIRCLE ( 'NONE', #191, 14.99999999999999800 ) ;
#613 = CIRCLE ( 'NONE', #187, 19.23205080756887900 ) ;
#614 = VECTOR ( 'NONE', #767, 1000.000000000000000 ) ;
#615 = VECTOR ( 'NONE', #752, 1000.000000000000000 ) ;
#616 = CIRCLE ( 'NONE', #189, 7.483314773547882700 ) ;
#617 = LINE ( 'NONE', #772, #615 ) ;
#618 = LINE ( 'NONE', #743, #607 ) ;
#619 = CIRCLE ( 'NONE', #185, 7.499999999999993800 ) ;
#620 = LINE ( 'NONE', #763, #633 ) ;
#621 = CIRCLE ( 'NONE', #176, 12.57735026918962600 ) ;
#622 = CIRCLE ( 'NONE', #188, 19.50000000000000000 ) ;
#623 = CIRCLE ( 'NONE', #190, 7.500000000000000000 ) ;
#624 = LINE ( 'NONE', #778, #608 ) ;
#625 = PERSON_AND_ORGANIZATION ( #6, #338 ) ;
#626 = CIRCLE ( 'NONE', #200, 19.50000000000000000 ) ;
#627 = CIRCLE ( 'NONE', #192, 10.84529946162075500 ) ;
#628 = LINE ( 'NONE', #741, #600 ) ;
#629 = CIRCLE ( 'NONE', #171, 7.500000000000000000 ) ;
#630 = CIRCLE ( 'NONE', #183, 2.000000000000001800 ) ;
#631 = CIRCLE ( 'NONE', #179, 1.999999999999998200 ) ;
#632 = LINE ( 'NONE', #722, #611 ) ;
#633 = VECTOR ( 'NONE', #779, 1000.000000000000000 ) ;
#634 = LINE ( 'NONE', #758, #614 ) ;
#635 = CIRCLE ( 'NONE', #170, 6.000000000000000900 ) ;
#636 = CIRCLE ( 'NONE', #182, 2.000000000000001800 ) ;
#637 = CIRCLE ( 'NONE', #181, 13.99999999999999800 ) ;
#638 = CIRCLE ( 'NONE', #196, 7.500000000000000900 ) ;
#639 = PERSON_AND_ORGANIZATION ( #6, #338 ) ;
#640 = LINE ( 'NONE', #737, #606 ) ;
#641 = FACE_OUTER_BOUND ( 'NONE', #596, .T. ) ;
#642 = VECTOR ( 'NONE', #823, 1000.000000000000000 ) ;
#643 = CIRCLE ( 'NONE', #197, 6.000000000000000900 ) ;
#644 = FACE_OUTER_BOUND ( 'NONE', #568, .T. ) ;
#645 = TOROIDAL_SURFACE ( 'NONE', #22, 13.99999999999999800, 1.000000000000000000 ) ;
#646 = FACE_OUTER_BOUND ( 'NONE', #557, .T. ) ;
#647 = CYLINDRICAL_SURFACE ( 'NONE', #30, 19.50000000000000000 ) ;
#648 = FACE_OUTER_BOUND ( 'NONE', #577, .T. ) ;
#649 = CIRCLE ( 'NONE', #208, 15.00000000000000000 ) ;
#650 = VECTOR ( 'NONE', #789, 1000.000000000000000 ) ;
#651 = FACE_OUTER_BOUND ( 'NONE', #570, .T. ) ;
#652 = CYLINDRICAL_SURFACE ( 'NONE', #26, 15.00000000000000000 ) ;
#653 = APPROVAL_PERSON_ORGANIZATION ( #639, #108, #1018 ) ;
#654 = FACE_OUTER_BOUND ( 'NONE', #589, .T. ) ;
#655 = FACE_BOUND ( 'NONE', #560, .T. ) ;
#656 = VECTOR ( 'NONE', #796, 1000.000000000000000 ) ;
#657 = FACE_OUTER_BOUND ( 'NONE', #403, .T. ) ;
#658 = FACE_OUTER_BOUND ( 'NONE', #575, .T. ) ;
#659 = FACE_OUTER_BOUND ( 'NONE', #586, .T. ) ;
#660 = CIRCLE ( 'NONE', #193, 7.500000000000000000 ) ;
#661 = VECTOR ( 'NONE', #853, 1000.000000000000000 ) ;
#662 = LINE ( 'NONE', #854, #642 ) ;
#663 = CIRCLE ( 'NONE', #19, 7.499999999999993800 ) ;
#664 = FACE_OUTER_BOUND ( 'NONE', #574, .T. ) ;
#665 = FACE_BOUND ( 'NONE', #597, .T. ) ;
#666 = FACE_OUTER_BOUND ( 'NONE', #591, .T. ) ;
#667 = CIRCLE ( 'NONE', #35, 15.00000000000000000 ) ;
#668 = TOROIDAL_SURFACE ( 'NONE', #41, 10.84529946162075100, 2.000000000000000900 ) ;
#669 = FACE_OUTER_BOUND ( 'NONE', #556, .T. ) ;
#670 = CYLINDRICAL_SURFACE ( 'NONE', #27, 15.00000000000000000 ) ;
#671 = FACE_OUTER_BOUND ( 'NONE', #585, .T. ) ;
#672 = CIRCLE ( 'NONE', #195, 13.99999999999999800 ) ;
#673 = LINE ( 'NONE', #827, #661 ) ;
#674 = CIRCLE ( 'NONE', #38, 7.483314773547882700 ) ;
#675 = CIRCLE ( 'NONE', #17, 14.99999999999999800 ) ;
#676 = CYLINDRICAL_SURFACE ( 'NONE', #28, 7.499999999999997300 ) ;
#677 = CYLINDRICAL_SURFACE ( 'NONE', #24, 6.000000000000000900 ) ;
#678 = LINE ( 'NONE', #783, #650 ) ;
#679 = SPHERICAL_SURFACE ( 'NONE', #33, 7.500000000000000000 ) ;
#680 = FACE_OUTER_BOUND ( 'NONE', #587, .T. ) ;
#681 = TOROIDAL_SURFACE ( 'NONE', #13, 17.50000000000000000, 1.999999999999999100 ) ;
#682 = TOROIDAL_SURFACE ( 'NONE', #15, 13.99999999999999800, 1.000000000000000000 ) ;
#683 = CONICAL_SURFACE ( 'NONE', #18, 19.23205080756887900, 0.5235987755983003700 ) ;
#684 = CYLINDRICAL_SURFACE ( 'NONE', #32, 7.500000000000000000 ) ;
#685 = FACE_BOUND ( 'NONE', #546, .T. ) ;
#686 = CIRCLE ( 'NONE', #206, 7.500000000000000000 ) ;
#687 = CIRCLE ( 'NONE', #207, 12.57735026918962600 ) ;
#688 = CIRCLE ( 'NONE', #37, 6.000000000000000900 ) ;
#689 = LINE ( 'NONE', #815, #656 ) ;
#690 = FACE_OUTER_BOUND ( 'NONE', #558, .T. ) ;
#691 = FACE_OUTER_BOUND ( 'NONE', #573, .T. ) ;
#692 = FACE_OUTER_BOUND ( 'NONE', #567, .T. ) ;
#693 = CIRCLE ( 'NONE', #20, 7.500000000000000900 ) ;
#694 = CYLINDRICAL_SURFACE ( 'NONE', #21, 7.500000000000000000 ) ;
#695 = CONICAL_SURFACE ( 'NONE', #42, 19.23205080756887900, 0.5235987755983003700 ) ;
#696 = CYLINDRICAL_SURFACE ( 'NONE', #39, 6.000000000000000900 ) ;
#697 = FACE_OUTER_BOUND ( 'NONE', #552, .T. ) ;
#698 = FACE_OUTER_BOUND ( 'NONE', #584, .T. ) ;
#699 = CYLINDRICAL_SURFACE ( 'NONE', #12, 15.00000000000000000 ) ;
#700 = FACE_OUTER_BOUND ( 'NONE', #569, .T. ) ;
#701 = TOROIDAL_SURFACE ( 'NONE', #16, 17.50000000000000000, 1.999999999999999100 ) ;
#702 = FACE_OUTER_BOUND ( 'NONE', #555, .T. ) ;
#703 = FACE_OUTER_BOUND ( 'NONE', #590, .T. ) ;
#704 = FACE_BOUND ( 'NONE', #563, .T. ) ;
#705 = FACE_OUTER_BOUND ( 'NONE', #599, .T. ) ;
#706 = CARTESIAN_POINT ( 'NONE',  ( -4.235484889139764000E-016, 18.00000000000000000, 0.0000000000000000000 ) ) ;
#707 = DIRECTION ( 'NONE',  ( 0.0000000000000000000, 0.0000000000000000000, 1.000000000000000000 ) ) ;
#708 = DIRECTION ( 'NONE',  ( 1.000000000000000000, 0.0000000000000000000, 0.0000000000000000000 ) ) ;
#709 = DIRECTION ( 'NONE',  ( -4.533764439681463500E-017, -1.000000000000000000, -0.0000000000000000000 ) ) ;
#710 = CARTESIAN_POINT ( 'NONE',  ( -1.239626088056639700E-015, 0.0000000000000000000, 0.0000000000000000000 ) ) ;
#711 = CARTESIAN_POINT ( 'NONE',  ( 0.0000000000000000000, 0.0000000000000000000, 0.0000000000000000000 ) ) ;
#712 = DIRECTION ( 'NONE',  ( -4.533764439681463500E-017, -1.000000000000000000, -0.0000000000000000000 ) ) ;
#713 = DIRECTION ( 'NONE',  ( 1.000000000000000000, -4.533764439681462900E-017, 0.0000000000000000000 ) ) ;
#714 = CARTESIAN_POINT ( 'NONE',  ( -1.239626088056639700E-015, 0.0000000000000000000, 0.0000000000000000000 ) ) ;
#715 = DIRECTION ( 'NONE',  ( -4.533764439681463500E-017, -1.000000000000000000, -0.0000000000000000000 ) ) ;
#716 = DIRECTION ( 'NONE',  ( 1.000000000000000000, 0.0000000000000000000, 0.0000000000000000000 ) ) ;
#717 = CARTESIAN_POINT ( 'NONE',  ( 19.23205080756887900, 5.473720558371216100, 0.0000000000000000000 ) ) ;
#718 = DIRECTION ( 'NONE',  ( 0.5000000000000013300, -0.8660254037844379300, 0.0000000000000000000 ) ) ;
#719 = DIRECTION ( 'NONE',  ( 1.224646799147353200E-016, 1.000000000000000000, -0.0000000000000000000 ) ) ;
#720 = CARTESIAN_POINT ( 'NONE',  ( 0.0000000000000000000, 0.0000000000000000000, 6.000000000000000000 ) ) ;
#721 = DIRECTION ( 'NONE',  ( -4.533764439681463500E-017, -1.000000000000000000, -0.0000000000000000000 ) ) ;
#722 = CARTESIAN_POINT ( 'NONE',  ( 15.00000000000000000, 1.836970198721029600E-015, 7.000000000000000000 ) ) ;
#723 = DIRECTION ( 'NONE',  ( 1.224646799147353200E-016, -5.552260109143997400E-033, 1.000000000000000000 ) ) ;
#724 = CARTESIAN_POINT ( 'NONE',  ( -19.50000000000000000, 19.08034822658876100, 2.388061258337338900E-015 ) ) ;
#725 = DIRECTION ( 'NONE',  ( 1.000000000000000000, 0.0000000000000000000, 0.0000000000000000000 ) ) ;
#726 = DIRECTION ( 'NONE',  ( -1.000000000000000000, 0.0000000000000000000, 0.0000000000000000000 ) ) ;
#727 = DIRECTION ( 'NONE',  ( 0.0000000000000000000, 0.0000000000000000000, -1.000000000000000000 ) ) ;
#728 = CARTESIAN_POINT ( 'NONE',  ( 0.0000000000000000000, 0.0000000000000000000, 0.0000000000000000000 ) ) ;
#729 = DIRECTION ( 'NONE',  ( -4.533764439681463500E-017, -1.000000000000000000, -0.0000000000000000000 ) ) ;
#730 = DIRECTION ( 'NONE',  ( 0.0000000000000000000, 0.0000000000000000000, -1.000000000000000000 ) ) ;
#731 = CARTESIAN_POINT ( 'NONE',  ( -13.99999999999999800, 1.714505518806294400E-015, 6.000000000000000000 ) ) ;
#732 = CARTESIAN_POINT ( 'NONE',  ( 10.84529946162075100, 15.99999999999999600, 0.0000000000000000000 ) ) ;
#733 = DIRECTION ( 'NONE',  ( -1.000000000000000000, 1.224646799147351500E-016, 0.0000000000000000000 ) ) ;
#734 = DIRECTION ( 'NONE',  ( -1.000000000000000000, 0.0000000000000000000, 0.0000000000000000000 ) ) ;
#735 = DIRECTION ( 'NONE',  ( 1.000000000000000000, 0.0000000000000000000, -1.224646799147353500E-016 ) ) ;
#736 = DIRECTION ( 'NONE',  ( -0.0000000000000000000, -0.0000000000000000000, -1.000000000000000000 ) ) ;
#737 = CARTESIAN_POINT ( 'NONE',  ( -15.00000000000000000, 0.0000000000000000000, 7.000000000000000000 ) ) ;
#738 = CARTESIAN_POINT ( 'NONE',  ( -17.50000000000000000, 4.473720558371213400, 2.143131898507868200E-015 ) ) ;
#739 = DIRECTION ( 'NONE',  ( -0.0000000000000000000, -0.0000000000000000000, -1.000000000000000000 ) ) ;
#740 = DIRECTION ( 'NONE',  ( 1.000000000000000000, -4.533764439681462900E-017, 0.0000000000000000000 ) ) ;
#741 = CARTESIAN_POINT ( 'NONE',  ( -15.00000000000000000, 19.08034822658876100, 1.836970198721029600E-015 ) ) ;
#742 = DIRECTION ( 'NONE',  ( -0.0000000000000000000, -0.0000000000000000000, -1.000000000000000000 ) ) ;
#743 = CARTESIAN_POINT ( 'NONE',  ( -7.500000000000000000, 0.0000000000000000000, 3.000000000000000000 ) ) ;
#744 = DIRECTION ( 'NONE',  ( 1.000000000000000000, -4.509980483449266800E-017, 0.0000000000000000000 ) ) ;
#745 = CARTESIAN_POINT ( 'NONE',  ( -1.036798136250486700E-015, 4.473720558371217800, 0.0000000000000000000 ) ) ;
#746 = DIRECTION ( 'NONE',  ( -4.533764439681463500E-017, -1.000000000000000000, -0.0000000000000000000 ) ) ;
#747 = CARTESIAN_POINT ( 'NONE',  ( -9.914604918536719200E-016, 5.473720558371217000, 0.0000000000000000000 ) ) ;
#748 = CARTESIAN_POINT ( 'NONE',  ( -1.103613154866196000E-015, 2.999999999999999100, 0.0000000000000000000 ) ) ;
#749 = DIRECTION ( 'NONE',  ( 1.000000000000000000, -4.533764439681463500E-017, 0.0000000000000000000 ) ) ;
#750 = DIRECTION ( 'NONE',  ( 1.000000000000000000, 0.0000000000000000000, 0.0000000000000000000 ) ) ;
#751 = DIRECTION ( 'NONE',  ( -0.0000000000000000000, -0.0000000000000000000, -1.000000000000000000 ) ) ;
#752 = DIRECTION ( 'NONE',  ( -0.0000000000000000000, -0.0000000000000000000, 1.000000000000000000 ) ) ;
#753 = DIRECTION ( 'NONE',  ( 1.000000000000000000, -4.448008912761044100E-017, 0.0000000000000000000 ) ) ;
#754 = DIRECTION ( 'NONE',  ( -0.0000000000000000000, -0.0000000000000000000, -1.000000000000000000 ) ) ;
#755 = DIRECTION ( 'NONE',  ( 1.000000000000000000, -4.448008912761044100E-017, 0.0000000000000000000 ) ) ;
#756 = DIRECTION ( 'NONE',  ( 0.0000000000000000000, 0.0000000000000000000, -1.000000000000000000 ) ) ;
#757 = DIRECTION ( 'NONE',  ( -4.533764439681463500E-017, -1.000000000000000000, -0.0000000000000000000 ) ) ;
#758 = CARTESIAN_POINT ( 'NONE',  ( -6.000000000000000900, 7.347880794884120700E-016, 6.500000000000000900 ) ) ;
#759 = DIRECTION ( 'NONE',  ( 1.000000000000000000, 0.0000000000000000000, 0.0000000000000000000 ) ) ;
#760 = DIRECTION ( 'NONE',  ( -4.533764439681463500E-017, -1.000000000000000000, -0.0000000000000000000 ) ) ;
#761 = DIRECTION ( 'NONE',  ( -4.533764439681463500E-017, -1.000000000000000000, -0.0000000000000000000 ) ) ;
#762 = DIRECTION ( 'NONE',  ( -4.533764439681463500E-017, -1.000000000000000000, -0.0000000000000000000 ) ) ;
#763 = CARTESIAN_POINT ( 'NONE',  ( -19.23205080756887900, 5.473720558371217800, 2.355246946252849500E-015 ) ) ;
#764 = CARTESIAN_POINT ( 'NONE',  ( 17.50000000000000000, 4.473720558371211600, 0.0000000000000000000 ) ) ;
#765 = DIRECTION ( 'NONE',  ( -4.533764439681463500E-017, -1.000000000000000000, -0.0000000000000000000 ) ) ;
#766 = CARTESIAN_POINT ( 'NONE',  ( -1.239626088056639700E-015, 0.0000000000000000000, 0.0000000000000000000 ) ) ;
#767 = DIRECTION ( 'NONE',  ( -0.0000000000000000000, -0.0000000000000000000, 1.000000000000000000 ) ) ;
#768 = CARTESIAN_POINT ( 'NONE',  ( -1.036798136250486700E-015, 4.473720558371217800, 0.0000000000000000000 ) ) ;
#769 = DIRECTION ( 'NONE',  ( 0.0000000000000000000, 0.0000000000000000000, 1.000000000000000000 ) ) ;
#770 = DIRECTION ( 'NONE',  ( 0.0000000000000000000, 0.0000000000000000000, 1.000000000000000000 ) ) ;
#771 = CARTESIAN_POINT ( 'NONE',  ( -4.235484889139764000E-016, 18.00000000000000000, 0.0000000000000000000 ) ) ;
#772 = CARTESIAN_POINT ( 'NONE',  ( 6.000000000000000900, 0.0000000000000000000, 6.500000000000000900 ) ) ;
#773 = CARTESIAN_POINT ( 'NONE',  ( 0.0000000000000000000, 0.0000000000000000000, 7.000000000000000000 ) ) ;
#774 = DIRECTION ( 'NONE',  ( -1.000000000000000000, 0.0000000000000000000, 0.0000000000000000000 ) ) ;
#775 = CARTESIAN_POINT ( 'NONE',  ( 0.0000000000000000000, 0.0000000000000000000, 6.500000000000000900 ) ) ;
#776 = DIRECTION ( 'NONE',  ( 1.000000000000000000, 0.0000000000000000000, 0.0000000000000000000 ) ) ;
#777 = DIRECTION ( 'NONE',  ( 1.000000000000000000, 0.0000000000000000000, 0.0000000000000000000 ) ) ;
#778 = CARTESIAN_POINT ( 'NONE',  ( 7.499999999999997300, 19.08034822658876100, 0.0000000000000000000 ) ) ;
#779 = DIRECTION ( 'NONE',  ( -0.5000000000000013300, -0.8660254037844379300, 6.123233995736782100E-017 ) ) ;
#780 = CARTESIAN_POINT ( 'NONE',  ( 0.0000000000000000000, 0.0000000000000000000, 6.000000000000000000 ) ) ;
#781 = DIRECTION ( 'NONE',  ( 0.0000000000000000000, 0.0000000000000000000, -1.000000000000000000 ) ) ;
#782 = DIRECTION ( 'NONE',  ( 1.000000000000000000, 0.0000000000000000000, 0.0000000000000000000 ) ) ;
#783 = CARTESIAN_POINT ( 'NONE',  ( 19.50000000000000000, 19.08034822658876100, 0.0000000000000000000 ) ) ;
#784 = DIRECTION ( 'NONE',  ( 0.0000000000000000000, 0.0000000000000000000, -1.000000000000000000 ) ) ;
#785 = CARTESIAN_POINT ( 'NONE',  ( -4.235484889139764000E-016, 18.00000000000000000, 0.0000000000000000000 ) ) ;
#786 = DIRECTION ( 'NONE',  ( 0.0000000000000000000, 0.0000000000000000000, -1.000000000000000000 ) ) ;
#787 = CARTESIAN_POINT ( 'NONE',  ( -1.012937866072566700E-015, 4.999999999999999100, 0.0000000000000000000 ) ) ;
#788 = DIRECTION ( 'NONE',  ( -4.533764439681463500E-017, -1.000000000000000000, -0.0000000000000000000 ) ) ;
#789 = DIRECTION ( 'NONE',  ( -4.533764439681463500E-017, -1.000000000000000000, -0.0000000000000000000 ) ) ;
#790 = CARTESIAN_POINT ( 'NONE',  ( -3.745680451921657300E-016, 17.49999999999999600, 0.0000000000000000000 ) ) ;
#791 = DIRECTION ( 'NONE',  ( -1.000000000000000000, 0.0000000000000000000, 0.0000000000000000000 ) ) ;
#792 = CARTESIAN_POINT ( 'NONE',  ( -9.914604918536719200E-016, 5.473720558371217000, 0.0000000000000000000 ) ) ;
#793 = DIRECTION ( 'NONE',  ( 0.0000000000000000000, -1.000000000000000000, 0.0000000000000000000 ) ) ;
#794 = CARTESIAN_POINT ( 'NONE',  ( 0.0000000000000000000, 0.0000000000000000000, 3.000000000000000000 ) ) ;
#795 = DIRECTION ( 'NONE',  ( 1.000000000000000000, -5.782411586589357400E-017, 0.0000000000000000000 ) ) ;
#796 = DIRECTION ( 'NONE',  ( -0.0000000000000000000, -0.0000000000000000000, -1.000000000000000000 ) ) ;
#797 = DIRECTION ( 'NONE',  ( 1.224646799147353200E-016, -5.552260109143997400E-033, 1.000000000000000000 ) ) ;
#798 = CARTESIAN_POINT ( 'NONE',  ( 0.0000000000000000000, 0.0000000000000000000, 3.000000000000000000 ) ) ;
#799 = DIRECTION ( 'NONE',  ( 1.000000000000000000, 0.0000000000000000000, 0.0000000000000000000 ) ) ;
#800 = DIRECTION ( 'NONE',  ( 1.000000000000000000, 0.0000000000000000000, 0.0000000000000000000 ) ) ;
#801 = CARTESIAN_POINT ( 'NONE',  ( -4.688861333107908600E-016, 17.00000000000000000, 0.0000000000000000000 ) ) ;
#802 = CARTESIAN_POINT ( 'NONE',  ( -1.012937866072566700E-015, 5.000000000000000900, 0.0000000000000000000 ) ) ;
#803 = DIRECTION ( 'NONE',  ( 1.000000000000000000, -4.509980483449266800E-017, 0.0000000000000000000 ) ) ;
#804 = CARTESIAN_POINT ( 'NONE',  ( -10.84529946162075100, 15.99999999999999600, 1.328166127146836600E-015 ) ) ;
#805 = DIRECTION ( 'NONE',  ( -4.533764439681463500E-017, -1.000000000000000000, -0.0000000000000000000 ) ) ;
#806 = DIRECTION ( 'NONE',  ( -1.000000000000000000, 0.0000000000000000000, 0.0000000000000000000 ) ) ;
#807 = DIRECTION ( 'NONE',  ( -4.533764439681463500E-017, -1.000000000000000000, -0.0000000000000000000 ) ) ;
#808 = DIRECTION ( 'NONE',  ( -4.533764439681463500E-017, -1.000000000000000000, -0.0000000000000000000 ) ) ;
#809 = DIRECTION ( 'NONE',  ( -1.000000000000000000, 0.0000000000000000000, 0.0000000000000000000 ) ) ;
#810 = DIRECTION ( 'NONE',  ( 1.000000000000000000, -5.782411586589356200E-017, 0.0000000000000000000 ) ) ;
#811 = DIRECTION ( 'NONE',  ( 0.0000000000000000000, 0.0000000000000000000, -1.000000000000000000 ) ) ;
#812 = CARTESIAN_POINT ( 'NONE',  ( 13.99999999999999800, 0.0000000000000000000, 6.000000000000000000 ) ) ;
#813 = DIRECTION ( 'NONE',  ( -4.533764439681463500E-017, -1.000000000000000000, -0.0000000000000000000 ) ) ;
#814 = DIRECTION ( 'NONE',  ( 1.000000000000000000, 0.0000000000000000000, -1.224646799147353500E-016 ) ) ;
#815 = CARTESIAN_POINT ( 'NONE',  ( 7.500000000000000000, 9.184850993605147900E-016, 3.000000000000000000 ) ) ;
#816 = CARTESIAN_POINT ( 'NONE',  ( 0.0000000000000000000, 0.0000000000000000000, 7.000000000000000000 ) ) ;
#817 = CARTESIAN_POINT ( 'NONE',  ( 0.0000000000000000000, 0.0000000000000000000, 0.0000000000000000000 ) ) ;
#818 = DIRECTION ( 'NONE',  ( -4.533764439681463500E-017, -1.000000000000000000, -0.0000000000000000000 ) ) ;
#819 = DIRECTION ( 'NONE',  ( 1.000000000000000000, 0.0000000000000000000, 0.0000000000000000000 ) ) ;
#820 = DIRECTION ( 'NONE',  ( 0.0000000000000000000, 0.0000000000000000000, 1.000000000000000000 ) ) ;
#821 = DIRECTION ( 'NONE',  ( 1.000000000000000000, -5.782411586589357400E-017, 0.0000000000000000000 ) ) ;
#822 = DIRECTION ( 'NONE',  ( 1.000000000000000000, -5.782411586589356200E-017, 0.0000000000000000000 ) ) ;
#823 = DIRECTION ( 'NONE',  ( -4.533764439681463500E-017, -1.000000000000000000, -0.0000000000000000000 ) ) ;
#824 = CARTESIAN_POINT ( 'NONE',  ( 0.0000000000000000000, 0.0000000000000000000, 6.500000000000000900 ) ) ;
#825 = DIRECTION ( 'NONE',  ( 0.0000000000000000000, 0.0000000000000000000, -1.000000000000000000 ) ) ;
#826 = DIRECTION ( 'NONE',  ( 1.224646799147353200E-016, -5.552260109143997400E-033, 1.000000000000000000 ) ) ;
#827 = CARTESIAN_POINT ( 'NONE',  ( -7.499999999999997300, 19.08034822658876100, 9.184850993605146000E-016 ) ) ;
#828 = DIRECTION ( 'NONE',  ( 1.000000000000000000, 0.0000000000000000000, -1.224646799147353000E-016 ) ) ;
#829 = DIRECTION ( 'NONE',  ( 1.000000000000000000, 0.0000000000000000000, 0.0000000000000000000 ) ) ;
#830 = DIRECTION ( 'NONE',  ( 0.0000000000000000000, 0.0000000000000000000, 1.000000000000000000 ) ) ;
#831 = DIRECTION ( 'NONE',  ( 1.000000000000000000, 0.0000000000000000000, 0.0000000000000000000 ) ) ;
#832 = DIRECTION ( 'NONE',  ( -0.0000000000000000000, -0.0000000000000000000, 1.000000000000000000 ) ) ;
#833 = CARTESIAN_POINT ( 'NONE',  ( -1.239626088056639700E-015, 0.0000000000000000000, 0.0000000000000000000 ) ) ;
#834 = CARTESIAN_POINT ( 'NONE',  ( 0.0000000000000000000, 0.0000000000000000000, 0.0000000000000000000 ) ) ;
#835 = CARTESIAN_POINT ( 'NONE',  ( -4.688861333107908600E-016, 17.00000000000000000, 0.0000000000000000000 ) ) ;
#836 = CARTESIAN_POINT ( 'NONE',  ( -3.745680451921657300E-016, 17.49999999999999600, 0.0000000000000000000 ) ) ;
#837 = CARTESIAN_POINT ( 'NONE',  ( -1.012937866072566700E-015, 5.000000000000000900, 0.0000000000000000000 ) ) ;
#838 = CARTESIAN_POINT ( 'NONE',  ( -1.103613154866196000E-015, 2.999999999999999100, 0.0000000000000000000 ) ) ;
#839 = CARTESIAN_POINT ( 'NONE',  ( 0.0000000000000000000, 0.0000000000000000000, 6.500000000000000900 ) ) ;
#840 = DIRECTION ( 'NONE',  ( -4.533764439681463500E-017, -1.000000000000000000, -0.0000000000000000000 ) ) ;
#841 = DIRECTION ( 'NONE',  ( -4.533764439681463500E-017, -1.000000000000000000, -0.0000000000000000000 ) ) ;
#842 = DIRECTION ( 'NONE',  ( 0.0000000000000000000, 0.0000000000000000000, 1.000000000000000000 ) ) ;
#843 = CARTESIAN_POINT ( 'NONE',  ( 0.0000000000000000000, 0.0000000000000000000, 7.000000000000000000 ) ) ;
#844 = DIRECTION ( 'NONE',  ( 1.000000000000000000, 0.0000000000000000000, 0.0000000000000000000 ) ) ;
#845 = DIRECTION ( 'NONE',  ( 1.000000000000000000, -4.533764439681463500E-017, 0.0000000000000000000 ) ) ;
#846 = DIRECTION ( 'NONE',  ( -1.000000000000000000, 0.0000000000000000000, 0.0000000000000000000 ) ) ;
#847 = DIRECTION ( 'NONE',  ( 0.0000000000000000000, 0.0000000000000000000, 1.000000000000000000 ) ) ;
#848 = DIRECTION ( 'NONE',  ( 1.000000000000000000, 0.0000000000000000000, 0.0000000000000000000 ) ) ;
#849 = DIRECTION ( 'NONE',  ( 0.0000000000000000000, 0.0000000000000000000, 1.000000000000000000 ) ) ;
#850 = DIRECTION ( 'NONE',  ( -4.533764439681463500E-017, -1.000000000000000000, -0.0000000000000000000 ) ) ;
#851 = CARTESIAN_POINT ( 'NONE',  ( -1.012937866072566700E-015, 4.999999999999999100, 0.0000000000000000000 ) ) ;
#852 = CARTESIAN_POINT ( 'NONE',  ( -4.235484889139764000E-016, 18.00000000000000000, 0.0000000000000000000 ) ) ;
#853 = DIRECTION ( 'NONE',  ( -4.533764439681463500E-017, -1.000000000000000000, -0.0000000000000000000 ) ) ;
#854 = CARTESIAN_POINT ( 'NONE',  ( 15.00000000000000000, 19.08034822658876100, 0.0000000000000000000 ) ) ;
#855 = DIRECTION ( 'NONE',  ( 1.000000000000000000, 0.0000000000000000000, 0.0000000000000000000 ) ) ;
#856 = CARTESIAN_POINT ( 'NONE',  ( 0.0000000000000000000, 0.0000000000000000000, 7.000000000000000000 ) ) ;
#857 = DIRECTION ( 'NONE',  ( 1.000000000000000000, 0.0000000000000000000, 0.0000000000000000000 ) ) ;
#858 = DIRECTION ( 'NONE',  ( -4.533764439681463500E-017, -1.000000000000000000, -0.0000000000000000000 ) ) ;
#859 = DIRECTION ( 'NONE',  ( -4.533764439681463500E-017, -1.000000000000000000, -0.0000000000000000000 ) ) ;
#860 = DIRECTION ( 'NONE',  ( 1.000000000000000000, 0.0000000000000000000, 0.0000000000000000000 ) ) ;
#861 = DIRECTION ( 'NONE',  ( -4.533764439681463500E-017, -1.000000000000000000, -0.0000000000000000000 ) ) ;
#862 = CARTESIAN_POINT ( 'NONE',  ( -9.914604918536719200E-016, 5.473720558371217000, 0.0000000000000000000 ) ) ;
#863 = DIRECTION ( 'NONE',  ( -4.533764439681463500E-017, -1.000000000000000000, -0.0000000000000000000 ) ) ;
#864 = DIRECTION ( 'NONE',  ( 1.000000000000000000, -4.509980483449266800E-017, 0.0000000000000000000 ) ) ;
#865 = CARTESIAN_POINT ( 'NONE',  ( 7.499999999999992900, 4.999999999999999100, 0.0000000000000000000 ) ) ;
#866 = CARTESIAN_POINT ( 'NONE',  ( 0.0000000000000000000, 0.0000000000000000000, 6.000000000000000000 ) ) ;
#867 = DIRECTION ( 'NONE',  ( 0.0000000000000000000, 0.0000000000000000000, 1.000000000000000000 ) ) ;
#868 = DIRECTION ( 'NONE',  ( -4.533764439681463500E-017, -1.000000000000000000, 0.0000000000000000000 ) ) ;
#869 = CARTESIAN_POINT ( 'NONE',  ( 0.0000000000000000000, 15.99999999999999600, 0.0000000000000000000 ) ) ;
#870 = DIRECTION ( 'NONE',  ( -4.533764439681463500E-017, -1.000000000000000000, -0.0000000000000000000 ) ) ;
#871 = PLANE ( 'NONE',  #40 ) ;
#872 = DIRECTION ( 'NONE',  ( -0.0000000000000000000, -0.0000000000000000000, -1.000000000000000000 ) ) ;
#873 = DIRECTION ( 'NONE',  ( 1.000000000000000000, 0.0000000000000000000, 0.0000000000000000000 ) ) ;
#874 = CARTESIAN_POINT ( 'NONE',  ( 0.0000000000000000000, 0.0000000000000000000, 3.000000000000000000 ) ) ;
#875 = CARTESIAN_POINT ( 'NONE',  ( 15.00000000000000000, 1.020096998928330200E-016, 0.0000000000000000000 ) ) ;
#876 = PLANE ( 'NONE',  #36 ) ;
#877 = CARTESIAN_POINT ( 'NONE',  ( 0.0000000000000000000, 0.0000000000000000000, 7.000000000000000000 ) ) ;
#878 = DIRECTION ( 'NONE',  ( -0.0000000000000000000, -0.0000000000000000000, -1.000000000000000000 ) ) ;
#879 = CARTESIAN_POINT ( 'NONE',  ( 0.0000000000000000000, 0.0000000000000000000, 6.500000000000000900 ) ) ;
#880 = DIRECTION ( 'NONE',  ( -0.0000000000000000000, -0.0000000000000000000, 1.000000000000000000 ) ) ;
#881 = CARTESIAN_POINT ( 'NONE',  ( 0.0000000000000000000, 4.473720558371212500, 0.0000000000000000000 ) ) ;
#882 = DIRECTION ( 'NONE',  ( 1.000000000000000000, -4.533764439681463500E-017, 0.0000000000000000000 ) ) ;
#883 = DIRECTION ( 'NONE',  ( 1.000000000000000000, 0.0000000000000000000, 0.0000000000000000000 ) ) ;
#884 = CARTESIAN_POINT ( 'NONE',  ( 0.0000000000000000000, 0.0000000000000000000, 7.000000000000000000 ) ) ;
#885 = DIRECTION ( 'NONE',  ( 1.000000000000000000, -4.533764439681463500E-017, 0.0000000000000000000 ) ) ;
#886 = DIRECTION ( 'NONE',  ( 1.000000000000000000, 0.0000000000000000000, 0.0000000000000000000 ) ) ;
#887 = DIRECTION ( 'NONE',  ( 1.000000000000000000, -4.509980483449266800E-017, 0.0000000000000000000 ) ) ;
#888 = DIRECTION ( 'NONE',  ( 1.000000000000000000, -4.533764439681463500E-017, 0.0000000000000000000 ) ) ;
#889 = DIRECTION ( 'NONE',  ( 1.000000000000000000, 0.0000000000000000000, 0.0000000000000000000 ) ) ;
#890 = DIRECTION ( 'NONE',  ( 1.000000000000000000, -4.533764439681462900E-017, 0.0000000000000000000 ) ) ;
#891 = CARTESIAN_POINT ( 'NONE',  ( -3.745680451921657300E-016, 19.08034822658876100, 0.0000000000000000000 ) ) ;
#892 = DIRECTION ( 'NONE',  ( -4.533764439681463500E-017, -1.000000000000000000, -0.0000000000000000000 ) ) ;
#893 = DIRECTION ( 'NONE',  ( -4.533764439681463500E-017, -1.000000000000000000, -0.0000000000000000000 ) ) ;
#894 = DIRECTION ( 'NONE',  ( 1.000000000000000000, 0.0000000000000000000, 0.0000000000000000000 ) ) ;
#895 = CARTESIAN_POINT ( 'NONE',  ( -3.745680451921657300E-016, 19.08034822658876100, 0.0000000000000000000 ) ) ;
#896 = DIRECTION ( 'NONE',  ( -4.533764439681463500E-017, -1.000000000000000000, -0.0000000000000000000 ) ) ;
#897 = DIRECTION ( 'NONE',  ( -4.533764439681463500E-017, -1.000000000000000000, -0.0000000000000000000 ) ) ;
#898 = CARTESIAN_POINT ( 'NONE',  ( -9.914604918536719200E-016, 5.473720558371217000, 0.0000000000000000000 ) ) ;
#899 = DIRECTION ( 'NONE',  ( -1.000000000000000000, 0.0000000000000000000, 0.0000000000000000000 ) ) ;
#900 = DIRECTION ( 'NONE',  ( 1.000000000000000000, 0.0000000000000000000, 0.0000000000000000000 ) ) ;
#901 = DIRECTION ( 'NONE',  ( -1.000000000000000000, 0.0000000000000000000, 0.0000000000000000000 ) ) ;
#902 = DIRECTION ( 'NONE',  ( -0.0000000000000000000, -0.0000000000000000000, -1.000000000000000000 ) ) ;
#903 = DIRECTION ( 'NONE',  ( -4.533764439681463500E-017, -1.000000000000000000, -0.0000000000000000000 ) ) ;
#904 = DIRECTION ( 'NONE',  ( -1.000000000000000000, 0.0000000000000000000, 0.0000000000000000000 ) ) ;
#905 = CARTESIAN_POINT ( 'NONE',  ( -3.745680451921657300E-016, 17.49999999999999600, 0.0000000000000000000 ) ) ;
#906 = DIRECTION ( 'NONE',  ( 0.0000000000000000000, 0.0000000000000000000, 1.000000000000000000 ) ) ;
#907 = DIRECTION ( 'NONE',  ( -4.533764439681463500E-017, -1.000000000000000000, 0.0000000000000000000 ) ) ;
#908 = CARTESIAN_POINT ( 'NONE',  ( -3.745680451921657300E-016, 19.08034822658876100, 0.0000000000000000000 ) ) ;
#909 = PLANE ( 'NONE',  #31 ) ;
#910 = DIRECTION ( 'NONE',  ( 1.000000000000000000, 0.0000000000000000000, -0.0000000000000000000 ) ) ;
#911 = DIRECTION ( 'NONE',  ( 1.000000000000000000, 0.0000000000000000000, 0.0000000000000000000 ) ) ;
#912 = DIRECTION ( 'NONE',  ( -1.000000000000000000, 0.0000000000000000000, -0.0000000000000000000 ) ) ;
#913 = CARTESIAN_POINT ( 'NONE',  ( 10.84529946162075500, 18.00000000000000000, 0.0000000000000000000 ) ) ;
#914 = DIRECTION ( 'NONE',  ( -4.533764439681463500E-017, -1.000000000000000000, 0.0000000000000000000 ) ) ;
#915 = DIRECTION ( 'NONE',  ( 1.000000000000000000, -4.533764439681463500E-017, 0.0000000000000000000 ) ) ;
#916 = PLANE ( 'NONE',  #34 ) ;
#917 = DIRECTION ( 'NONE',  ( 1.000000000000000000, 0.0000000000000000000, 0.0000000000000000000 ) ) ;
#918 = CARTESIAN_POINT ( 'NONE',  ( -3.745680451921657300E-016, 17.49999999999999600, 0.0000000000000000000 ) ) ;
#919 = DIRECTION ( 'NONE',  ( 0.0000000000000000000, 0.0000000000000000000, 1.000000000000000000 ) ) ;
#920 = CARTESIAN_POINT ( 'NONE',  ( 0.0000000000000000000, 0.0000000000000000000, 0.0000000000000000000 ) ) ;
#921 = CARTESIAN_POINT ( 'NONE',  ( -15.00000000000000000, 5.000000000000001800, 1.836970198721029600E-015 ) ) ;
#922 = DIRECTION ( 'NONE',  ( 0.0000000000000000000, 0.0000000000000000000, 1.000000000000000000 ) ) ;
#923 = CARTESIAN_POINT ( 'NONE',  ( 10.84529946162075500, 18.00000000000000000, 0.0000000000000000000 ) ) ;
#924 = CARTESIAN_POINT ( 'NONE',  ( -3.745680451921657300E-016, 19.08034822658876100, 0.0000000000000000000 ) ) ;
#925 = PLANE ( 'NONE',  #45 ) ;
#926 = CARTESIAN_POINT ( 'NONE',  ( 0.0000000000000000000, 0.0000000000000000000, 7.000000000000000000 ) ) ;
#927 = DIRECTION ( 'NONE',  ( 0.0000000000000000000, 0.0000000000000000000, -1.000000000000000000 ) ) ;
#928 = DIRECTION ( 'NONE',  ( -0.0000000000000000000, -0.0000000000000000000, -1.000000000000000000 ) ) ;
#929 = DIRECTION ( 'NONE',  ( 0.0000000000000000000, 0.0000000000000000000, 1.000000000000000000 ) ) ;
#930 = DIRECTION ( 'NONE',  ( 1.000000000000000000, -4.533764439681462900E-017, 0.0000000000000000000 ) ) ;
#931 = PLANE ( 'NONE',  #25 ) ;
#932 = CARTESIAN_POINT ( 'NONE',  ( 0.0000000000000000000, 0.0000000000000000000, 3.000000000000000000 ) ) ;
#933 = DIRECTION ( 'NONE',  ( -4.533764439681463500E-017, -1.000000000000000000, -0.0000000000000000000 ) ) ;
#934 = CARTESIAN_POINT ( 'NONE',  ( 0.0000000000000000000, 0.0000000000000000000, 6.000000000000000000 ) ) ;
#935 = DIRECTION ( 'NONE',  ( 0.0000000000000000000, 0.0000000000000000000, 1.000000000000000000 ) ) ;
#936 = DIRECTION ( 'NONE',  ( 1.000000000000000000, 0.0000000000000000000, -0.0000000000000000000 ) ) ;
#937 = DIRECTION ( 'NONE',  ( 1.000000000000000000, 0.0000000000000000000, 0.0000000000000000000 ) ) ;
#938 = CARTESIAN_POINT ( 'NONE',  ( 0.0000000000000000000, 4.473720558371212500, 0.0000000000000000000 ) ) ;
#939 = DIRECTION ( 'NONE',  ( -4.533764439681463500E-017, -1.000000000000000000, -0.0000000000000000000 ) ) ;
#940 = DIRECTION ( 'NONE',  ( 1.000000000000000000, 0.0000000000000000000, 0.0000000000000000000 ) ) ;
#941 = PLANE ( 'NONE',  #14 ) ;
#942 = DIRECTION ( 'NONE',  ( 1.000000000000000000, 0.0000000000000000000, -0.0000000000000000000 ) ) ;
#943 = CARTESIAN_POINT ( 'NONE',  ( 0.0000000000000000000, 15.99999999999999600, 0.0000000000000000000 ) ) ;
#944 = CARTESIAN_POINT ( 'NONE',  ( 0.0000000000000000000, 0.0000000000000000000, 3.000000000000000000 ) ) ;
#945 = CARTESIAN_POINT ( 'NONE',  ( 0.0000000000000000000, 0.0000000000000000000, 6.500000000000000900 ) ) ;
#946 = DIRECTION ( 'NONE',  ( -1.000000000000000000, 4.533764439681463500E-017, 0.0000000000000000000 ) ) ;
#947 = DIRECTION ( 'NONE',  ( -4.533764439681463500E-017, -1.000000000000000000, -0.0000000000000000000 ) ) ;
#948 = CARTESIAN_POINT ( 'NONE',  ( 7.500000000000000000, 2.999999999999998700, 0.0000000000000000000 ) ) ;
#949 = DIRECTION ( 'NONE',  ( -4.533764439681463500E-017, -1.000000000000000000, -0.0000000000000000000 ) ) ;
#950 = DIRECTION ( 'NONE',  ( 1.000000000000000000, 0.0000000000000000000, 0.0000000000000000000 ) ) ;
#951 = DIRECTION ( 'NONE',  ( 4.533764439681463500E-017, 1.000000000000000000, 0.0000000000000000000 ) ) ;
#952 = PLANE ( 'NONE',  #29 ) ;
#953 = DIRECTION ( 'NONE',  ( 1.000000000000000000, -4.533764439681463500E-017, 0.0000000000000000000 ) ) ;
#954 = DIRECTION ( 'NONE',  ( 0.0000000000000000000, 0.0000000000000000000, 1.000000000000000000 ) ) ;
#955 = DIRECTION ( 'NONE',  ( -4.533764439681463500E-017, -1.000000000000000000, -0.0000000000000000000 ) ) ;
#956 = DIRECTION ( 'NONE',  ( -1.000000000000000000, 0.0000000000000000000, 0.0000000000000000000 ) ) ;
#957 = CARTESIAN_POINT ( 'NONE',  ( -3.745680451921657300E-016, 19.08034822658876100, 0.0000000000000000000 ) ) ;
#958 = CARTESIAN_POINT ( 'NONE',  ( -3.745680451921657300E-016, 19.08034822658876100, 0.0000000000000000000 ) ) ;
#959 = CARTESIAN_POINT ( 'NONE',  ( 7.483314773547881800, 18.00000000000000000, 0.0000000000000000000 ) ) ;
#960 =( LENGTH_UNIT ( ) NAMED_UNIT ( * ) SI_UNIT ( .MILLI., .METRE. ) );
#961 = CARTESIAN_POINT ( 'NONE',  ( 19.50000000000000000, 4.473720558371217000, 0.0000000000000000000 ) ) ;
#962 = CARTESIAN_POINT ( 'NONE',  ( 19.50000000000000000, -8.840840657378853200E-016, 0.0000000000000000000 ) ) ;
#963 = CARTESIAN_POINT ( 'NONE',  ( 0.7214085082978254300, -5.168593729119039400, 0.4132478989049559500 ) ) ;
#964 = DIRECTION ( 'NONE',  ( -4.533764439681463500E-017, -1.000000000000000000, 0.0000000000000000000 ) ) ;
#965 = CARTESIAN_POINT ( 'NONE',  ( -10.84529946162075500, 18.00000000000000000, 1.434223651019327200E-015 ) ) ;
#966 = DIRECTION ( 'NONE',  ( 1.000000000000000000, -4.533764439681463500E-017, 4.533764439681463500E-017 ) ) ;
#967 = DIRECTION ( 'NONE',  ( 1.000000000000000000, 0.0000000000000000000, 0.0000000000000000000 ) ) ;
#968 = CARTESIAN_POINT ( 'NONE',  ( 14.99999999999999600, 5.000000000000000000, 0.0000000000000000000 ) ) ;
#969 = DIRECTION ( 'NONE',  ( 1.000000000000000000, 0.0000000000000000000, 0.0000000000000000000 ) ) ;
#970 =( LENGTH_UNIT ( ) NAMED_UNIT ( * ) SI_UNIT ( .MILLI., .METRE. ) );
#971 =( NAMED_UNIT ( * ) PLANE_ANGLE_UNIT ( ) SI_UNIT ( $, .RADIAN. ) );
#972 = DIRECTION ( 'NONE',  ( 1.000000000000000000, 0.0000000000000000000, 0.0000000000000000000 ) ) ;
#973 =( NAMED_UNIT ( * ) SI_UNIT ( $, .STERADIAN. ) SOLID_ANGLE_UNIT ( ) );
#974 = CARTESIAN_POINT ( 'NONE',  ( 0.0000000000000000000, 0.0000000000000000000, 0.0000000000000000000 ) ) ;
#975 =( NAMED_UNIT ( * ) SI_UNIT ( $, .STERADIAN. ) SOLID_ANGLE_UNIT ( ) );
#976 = CARTESIAN_POINT ( 'NONE',  ( 0.0000000000000000000, 0.0000000000000000000, 0.0000000000000000000 ) ) ;
#977 = CARTESIAN_POINT ( 'NONE',  ( -13.99999999999999800, 1.775737858763662000E-015, 7.000000000000000000 ) ) ;
#978 = CARTESIAN_POINT ( 'NONE',  ( -7.500000000000001800, 2.999999999999999600, 9.184850993605149900E-016 ) ) ;
#979 = CARTESIAN_POINT ( 'NONE',  ( -12.57735026918962600, 17.00000000000000000, 1.947764060572333600E-015 ) ) ;
#980 = CARTESIAN_POINT ( 'NONE',  ( -19.23205080756887900, 5.473720558371217800, 2.371654102295094000E-015 ) ) ;
#981 = DIRECTION ( 'NONE',  ( 0.0000000000000000000, 0.0000000000000000000, 1.000000000000000000 ) ) ;
#982 = CARTESIAN_POINT ( 'NONE',  ( 6.000000000000000900, 0.0000000000000000000, 7.000000000000000000 ) ) ;
#983 = CARTESIAN_POINT ( 'NONE',  ( -19.50000000000000000, 4.473720558371218700, 2.388061258337338900E-015 ) ) ;
#984 =( NAMED_UNIT ( * ) PLANE_ANGLE_UNIT ( ) SI_UNIT ( $, .RADIAN. ) );
#985 =( LENGTH_UNIT ( ) NAMED_UNIT ( * ) SI_UNIT ( .MILLI., .METRE. ) );
#986 = CARTESIAN_POINT ( 'NONE',  ( -7.500000000000000000, 0.0000000000000000000, 0.0000000000000000000 ) ) ;
#987 = CARTESIAN_POINT ( 'NONE',  ( -6.000000000000000900, 7.347880794884120700E-016, 7.000000000000000000 ) ) ;
#988 = CARTESIAN_POINT ( 'NONE',  ( -15.00000000000000200, 6.800646659522195000E-016, 1.836970198721029600E-015 ) ) ;
#989 = CARTESIAN_POINT ( 'NONE',  ( -7.483314773547881800, 18.00000000000000000, 9.164417484437514200E-016 ) ) ;
#990 = CARTESIAN_POINT ( 'NONE',  ( 7.499999999999992900, 4.999999999999999100, 0.0000000000000000000 ) ) ;
#991 = CARTESIAN_POINT ( 'NONE',  ( 6.000000000000000900, 0.0000000000000000000, 6.500000000000000900 ) ) ;
#992 = CARTESIAN_POINT ( 'NONE',  ( 0.0000000000000000000, 0.0000000000000000000, 0.0000000000000000000 ) ) ;
#993 = DIRECTION ( 'NONE',  ( 1.000000000000000000, 0.0000000000000000000, 0.0000000000000000000 ) ) ;
#994 = CARTESIAN_POINT ( 'NONE',  ( 19.23205080756887900, 5.473720558371216100, 0.0000000000000000000 ) ) ;
#995 = CARTESIAN_POINT ( 'NONE',  ( 7.500000000000000000, 9.184850993605147900E-016, 0.0000000000000000000 ) ) ;
#996 = CARTESIAN_POINT ( 'NONE',  ( 14.99999999999999800, -6.800646659522195000E-016, 0.0000000000000000000 ) ) ;
#997 = CARTESIAN_POINT ( 'NONE',  ( 15.00000000000000000, 1.836970198721029600E-015, 6.000000000000000000 ) ) ;
#998 = CARTESIAN_POINT ( 'NONE',  ( -19.50000000000000000, 8.840840657378853200E-016, 2.388061258337338900E-015 ) ) ;
#999 = DIRECTION ( 'NONE',  ( 0.0000000000000000000, 0.0000000000000000000, 1.000000000000000000 ) ) ;
#1000 = CARTESIAN_POINT ( 'NONE',  ( 7.500000000000000000, 9.184850993605147900E-016, 3.000000000000000000 ) ) ;
#1001 = CARTESIAN_POINT ( 'NONE',  ( -15.00000000000000000, 0.0000000000000000000, 6.000000000000000000 ) ) ;
#1002 = DIRECTION ( 'NONE',  ( 0.0000000000000000000, 0.0000000000000000000, 1.000000000000000000 ) ) ;
#1003 = CARTESIAN_POINT ( 'NONE',  ( 0.7214085082978272100, -10.16859372911903800, 0.4132478989049559500 ) ) ;
#1004 = CARTESIAN_POINT ( 'NONE',  ( 15.00000000000000000, 1.836970198721029600E-015, 0.0000000000000000000 ) ) ;
#1005 = CARTESIAN_POINT ( 'NONE',  ( -2.553578284880180800E-016, 9.999999999999998200, 0.0000000000000000000 ) ) ;
#1006 =( NAMED_UNIT ( * ) PLANE_ANGLE_UNIT ( ) SI_UNIT ( $, .RADIAN. ) );
#1007 = CARTESIAN_POINT ( 'NONE',  ( 13.99999999999999800, 0.0000000000000000000, 7.000000000000000000 ) ) ;
#1008 = CARTESIAN_POINT ( 'NONE',  ( 12.57735026918962600, 17.00000000000000000, 0.0000000000000000000 ) ) ;
#1009 = CARTESIAN_POINT ( 'NONE',  ( -7.500000000000000000, 0.0000000000000000000, 3.000000000000000000 ) ) ;
#1010 = CARTESIAN_POINT ( 'NONE',  ( -15.00000000000000000, 0.0000000000000000000, 0.0000000000000000000 ) ) ;
#1011 = CARTESIAN_POINT ( 'NONE',  ( -7.499999999999994700, 4.999999999999999100, 9.184850993605144000E-016 ) ) ;
#1012 =( NAMED_UNIT ( * ) SI_UNIT ( $, .STERADIAN. ) SOLID_ANGLE_UNIT ( ) );
#1013 = DIRECTION ( 'NONE',  ( 0.0000000000000000000, 0.0000000000000000000, 1.000000000000000000 ) ) ;
#1014 = CARTESIAN_POINT ( 'NONE',  ( -6.000000000000000900, 7.347880794884120700E-016, 6.500000000000000900 ) ) ;
#1015 = CARTESIAN_POINT ( 'NONE',  ( 7.500000000000000000, 2.999999999999998700, 0.0000000000000000000 ) ) ;
#1016 = APPROVAL_ROLE ( '' ) ;
#1017 = DATE_TIME_ROLE ( 'creation_date' ) ;
#1018 = APPROVAL_ROLE ( '' ) ;
#1019 = APPLICATION_CONTEXT ( 'configuration controlled 3d designs of mechanical parts and assemblies' ) ;
#1020 = SECURITY_CLASSIFICATION_LEVEL ( 'unclassified' ) ;
#1021 = APPROVAL_ROLE ( '' ) ;
#1022 = APPLICATION_PROTOCOL_DEFINITION ( 'international standard', 'config_control_design', 1994, #1019 ) ;
#1023 = PERSON_AND_ORGANIZATION_ROLE ( 'creator' ) ;
#1024 = PERSON_AND_ORGANIZATION_ROLE ( 'design_supplier' ) ;
#1025 = MECHANICAL_CONTEXT ( 'NONE', #1050, 'mechanical' ) ;
#1026 = APPLICATION_CONTEXT ( 'configuration controlled 3d designs of mechanical parts and assemblies' ) ;
#1027 = APPLICATION_CONTEXT ( 'configuration controlled 3d designs of mechanical parts and assemblies' ) ;
#1028 = APPLICATION_PROTOCOL_DEFINITION ( 'international standard', 'config_control_design', 1994, #1027 ) ;
#1029 = APPROVAL_ROLE ( '' ) ;
#1030 = APPROVAL_STATUS ( 'not_yet_approved' ) ;
#1031 = APPLICATION_CONTEXT ( 'configuration controlled 3d designs of mechanical parts and assemblies' ) ;
#1032 = SECURITY_CLASSIFICATION_LEVEL ( 'unclassified' ) ;
#1033 = APPROVAL_ROLE ( '' ) ;
#1034 = PERSON_AND_ORGANIZATION_ROLE ( 'creator' ) ;
#1035 = PERSON_AND_ORGANIZATION_ROLE ( 'design_supplier' ) ;
#1036 = PERSON_AND_ORGANIZATION_ROLE ( 'design_owner' ) ;
#1037 = DATE_TIME_ROLE ( 'creation_date' ) ;
#1038 = APPROVAL_ROLE ( '' ) ;
#1039 = PERSON_AND_ORGANIZATION_ROLE ( 'creator' ) ;
#1040 = SECURITY_CLASSIFICATION_LEVEL ( 'unclassified' ) ;
#1041 = MECHANICAL_CONTEXT ( 'NONE', #1019, 'mechanical' ) ;
#1042 = PERSON_AND_ORGANIZATION_ROLE ( 'creator' ) ;
#1043 = PERSON_AND_ORGANIZATION_ROLE ( 'classification_officer' ) ;
#1044 = DATE_TIME_ROLE ( 'classification_date' ) ;
#1045 = APPROVAL_STATUS ( 'not_yet_approved' ) ;
#1046 = APPROVAL_ROLE ( '' ) ;
#1047 = PERSON_AND_ORGANIZATION_ROLE ( 'creator' ) ;
#1048 = APPLICATION_PROTOCOL_DEFINITION ( 'international standard', 'config_control_design', 1994, #1049 ) ;
#1049 = APPLICATION_CONTEXT ( 'configuration controlled 3d designs of mechanical parts and assemblies' ) ;
#1050 = APPLICATION_CONTEXT ( 'configuration controlled 3d designs of mechanical parts and assemblies' ) ;
#1051 = PERSON_AND_ORGANIZATION_ROLE ( 'classification_officer' ) ;
#1052 = DATE_TIME_ROLE ( 'classification_date' ) ;
#1053 = APPROVAL_ROLE ( '' ) ;
#1054 = APPROVAL_STATUS ( 'not_yet_approved' ) ;
#1055 = APPROVAL_STATUS ( 'not_yet_approved' ) ;
#1056 = PERSON_AND_ORGANIZATION_ROLE ( 'design_owner' ) ;
#1057 = DATE_TIME_ROLE ( 'classification_date' ) ;
#1058 = APPROVAL_STATUS ( 'not_yet_approved' ) ;
#1059 = APPLICATION_PROTOCOL_DEFINITION ( 'international standard', 'config_control_design', 1994, #1031 ) ;
#1060 = MECHANICAL_CONTEXT ( 'NONE', #1049, 'mechanical' ) ;
#1061 = PERSON_AND_ORGANIZATION_ROLE ( 'creator' ) ;
#1062 = APPLICATION_PROTOCOL_DEFINITION ( 'international standard', 'config_control_design', 1994, #1050 ) ;
#1063 = PERSON_AND_ORGANIZATION_ROLE ( 'design_supplier' ) ;
#1064 =( REPRESENTATION_RELATIONSHIP ('NONE','NONE', #307, #308 ) REPRESENTATION_RELATIONSHIP_WITH_TRANSFORMATION ( #250 )SHAPE_REPRESENTATION_RELATIONSHIP( ) );
#1065 = DIRECTION ( 'NONE',  ( 1.000000000000000000, 0.0000000000000000000, 0.0000000000000000000 ) ) ;
#1066 = APPROVAL_ROLE ( '' ) ;
#1067 = PERSON_AND_ORGANIZATION_ROLE ( 'design_owner' ) ;
#1068 = SECURITY_CLASSIFICATION_LEVEL ( 'unclassified' ) ;
#1069 = APPROVAL_STATUS ( 'not_yet_approved' ) ;
#1070 = PERSON_AND_ORGANIZATION_ROLE ( 'classification_officer' ) ;
#1071 = APPROVAL_ROLE ( '' ) ;
#1072 = APPROVAL_STATUS ( 'not_yet_approved' ) ;
#1073 = APPROVAL_STATUS ( 'not_yet_approved' ) ;
#1074 = APPLICATION_PROTOCOL_DEFINITION ( 'international standard', 'config_control_design', 1994, #1026 ) ;
#1075 = DATE_TIME_ROLE ( 'classification_date' ) ;
#1076 = APPROVAL_STATUS ( 'not_yet_approved' ) ;
#1077 = DATE_TIME_ROLE ( 'creation_date' ) ;
#1078 = APPROVAL_STATUS ( 'not_yet_approved' ) ;
#1079 =( REPRESENTATION_RELATIONSHIP ('NONE','NONE', #307, #309 ) REPRESENTATION_RELATIONSHIP_WITH_TRANSFORMATION ( #253 )SHAPE_REPRESENTATION_RELATIONSHIP( ) );
#1080 = SECURITY_CLASSIFICATION_LEVEL ( 'unclassified' ) ;
#1081 = APPROVAL_ROLE ( '' ) ;
#1082 = APPROVAL_STATUS ( 'not_yet_approved' ) ;
#1083 = PERSON_AND_ORGANIZATION_ROLE ( 'classification_officer' ) ;
#1084 = NEXT_ASSEMBLY_USAGE_OCCURRENCE ( 'NAUO1', ' ', ' ', #54, #121, $ ) ;
#1085 = NEXT_ASSEMBLY_USAGE_OCCURRENCE ( 'NAUO2', ' ', ' ', #54, #120, $ ) ;
ENDSEC;
END-ISO-10303-21;
