ISO-10303-21;
HEADER;
FILE_DESCRIPTION (( 'STEP AP203' ),
    '1' );
FILE_NAME ('ALP3550.STEP',
    '2017-05-29T17:42:23',
    ( '' ),
    ( '' ),
    'SwSTEP 2.0',
    'SolidWorks 2012',
    '' );
FILE_SCHEMA (( 'CONFIG_CONTROL_DESIGN' ));
ENDSEC;

DATA;
#1 = UNCERTAINTY_MEASURE_WITH_UNIT (LENGTH_MEASURE( 1.000000000000000100E-005 ), #34, 'distance_accuracy_value', 'NONE');
#2 =( BOUNDED_SURFACE ( )  B_SPLINE_SURFACE ( 3, 3, ( 
 ( #298, #299, #364, #331 ),
 ( #365, #337, #356, #370 ),
 ( #350, #361, #338, #354 ),
 ( #371, #366, #352, #374 ) ),
 .UNSPECIFIED., .F., .F., .F. ) 
 B_SPLINE_SURFACE_WITH_KNOTS ( ( 4, 4 ),
 ( 4, 4 ),
 ( 0.0000000000000000000, 1.000000000000000000 ),
 ( 0.0000000000000000000, 1.000000000000000000 ),
 .UNSPECIFIED. ) 
 GEOMETRIC_REPRESENTATION_ITEM ( )  RATIONAL_B_SPLINE_SURFACE ( (
 ( 1.000000000000000000, 0.8047378541243649400, 0.8047378541243649400, 1.000000000000000000),
 ( 0.8047378541243649400, 0.6476030138606876400, 0.6476030138606876400, 0.8047378541243649400),
 ( 0.8047378541243649400, 0.6476030138606876400, 0.6476030138606876400, 0.8047378541243649400),
 ( 1.000000000000000000, 0.8047378541243649400, 0.8047378541243649400, 1.000000000000000000) ) ) 
 REPRESENTATION_ITEM ( '' )  SURFACE ( )  );
#3 = ADVANCED_BREP_SHAPE_REPRESENTATION ( 'ALP3550', ( #5, #154 ), #167 ) ;
#4 =( BOUNDED_SURFACE ( )  B_SPLINE_SURFACE ( 3, 3, ( 
 ( #273, #267, #274, #268 ),
 ( #269, #283, #275, #284 ),
 ( #277, #270, #271, #278 ),
 ( #280, #260, #261, #281 ) ),
 .UNSPECIFIED., .F., .F., .F. ) 
 B_SPLINE_SURFACE_WITH_KNOTS ( ( 4, 4 ),
 ( 4, 4 ),
 ( 0.0000000000000000000, 1.000000000000000000 ),
 ( 0.0000000000000000000, 1.000000000000000000 ),
 .UNSPECIFIED. ) 
 GEOMETRIC_REPRESENTATION_ITEM ( )  RATIONAL_B_SPLINE_SURFACE ( (
 ( 1.000000000000000000, 0.8047378541243649400, 0.8047378541243649400, 1.000000000000000000),
 ( 0.8047378541243649400, 0.6476030138606876400, 0.6476030138606876400, 0.8047378541243649400),
 ( 0.8047378541243649400, 0.6476030138606876400, 0.6476030138606876400, 0.8047378541243649400),
 ( 1.000000000000000000, 0.8047378541243649400, 0.8047378541243649400, 1.000000000000000000) ) ) 
 REPRESENTATION_ITEM ( '' )  SURFACE ( )  );
#5 = MANIFOLD_SOLID_BREP ( 'Fillet3', #479 ) ;
#6 =( BOUNDED_SURFACE ( )  B_SPLINE_SURFACE ( 3, 3, ( 
 ( #51, #53, #44, #39 ),
 ( #19, #32, #30, #31 ),
 ( #42, #33, #43, #20 ),
 ( #41, #25, #26, #23 ) ),
 .UNSPECIFIED., .F., .F., .F. ) 
 B_SPLINE_SURFACE_WITH_KNOTS ( ( 4, 4 ),
 ( 4, 4 ),
 ( 0.0000000000000000000, 1.000000000000000000 ),
 ( 0.0000000000000000000, 1.000000000000000000 ),
 .UNSPECIFIED. ) 
 GEOMETRIC_REPRESENTATION_ITEM ( )  RATIONAL_B_SPLINE_SURFACE ( (
 ( 1.000000000000000000, 0.8047378541267745700, 0.8047378541267745700, 1.000000000000000000),
 ( 0.8047378541243648300, 0.6476030138626266400, 0.6476030138626266400, 0.8047378541243648300),
 ( 0.8047378541243648300, 0.6476030138626266400, 0.6476030138626266400, 0.8047378541243648300),
 ( 1.000000000000000000, 0.8047378541267745700, 0.8047378541267745700, 1.000000000000000000) ) ) 
 REPRESENTATION_ITEM ( '' )  SURFACE ( )  );
#7 =( BOUNDED_SURFACE ( )  B_SPLINE_SURFACE ( 3, 3, ( 
 ( #347, #383, #390, #379 ),
 ( #382, #399, #384, #395 ),
 ( #391, #388, #385, #381 ),
 ( #396, #386, #397, #398 ) ),
 .UNSPECIFIED., .F., .F., .F. ) 
 B_SPLINE_SURFACE_WITH_KNOTS ( ( 4, 4 ),
 ( 4, 4 ),
 ( 0.0000000000000000000, 1.000000000000000000 ),
 ( 0.0000000000000000000, 1.000000000000000000 ),
 .UNSPECIFIED. ) 
 GEOMETRIC_REPRESENTATION_ITEM ( )  RATIONAL_B_SPLINE_SURFACE ( (
 ( 1.000000000000000000, 0.8047378541243649400, 0.8047378541243649400, 1.000000000000000000),
 ( 0.8047378541243649400, 0.6476030138606876400, 0.6476030138606876400, 0.8047378541243649400),
 ( 0.8047378541243649400, 0.6476030138606876400, 0.6476030138606876400, 0.8047378541243649400),
 ( 1.000000000000000000, 0.8047378541243649400, 0.8047378541243649400, 1.000000000000000000) ) ) 
 REPRESENTATION_ITEM ( '' )  SURFACE ( )  );
#8 = ORIENTED_EDGE ( 'NONE', *, *, #106, .F. ) ;
#9 = ORIENTED_EDGE ( 'NONE', *, *, #59, .F. ) ;
#10 = ORIENTED_EDGE ( 'NONE', *, *, #88, .T. ) ;
#11 = DIRECTION ( 'NONE',  ( 1.000000000000000000, 0.0000000000000000000, 0.0000000000000000000 ) ) ;
#12 =( NAMED_UNIT ( * ) SI_UNIT ( $, .STERADIAN. ) SOLID_ANGLE_UNIT ( ) );
#13 = APPLICATION_CONTEXT ( 'configuration controlled 3d designs of mechanical parts and assemblies' ) ;
#14 = CARTESIAN_POINT ( 'NONE',  ( 0.0000000000000000000, 0.0000000000000000000, 0.0000000000000000000 ) ) ;
#15 = APPLICATION_PROTOCOL_DEFINITION ( 'international standard', 'config_control_design', 1994, #13 ) ;
#16 = APPROVAL_STATUS ( 'not_yet_approved' ) ;
#17 = APPLICATION_PROTOCOL_DEFINITION ( 'international standard', 'config_control_design', 1994, #45 ) ;
#18 = PERSON_AND_ORGANIZATION_ROLE ( 'classification_officer' ) ;
#19 = CARTESIAN_POINT ( 'NONE',  ( 7.500000000000001800, -0.8284271247461876300, 5.500000000011974400 ) ) ;
#20 = CARTESIAN_POINT ( 'NONE',  ( 6.671572875253811000, -2.000000000000000000, 7.499999999999997300 ) ) ;
#21 = MECHANICAL_CONTEXT ( 'NONE', #45, 'mechanical' ) ;
#22 = PERSON_AND_ORGANIZATION_ROLE ( 'design_owner' ) ;
#23 = CARTESIAN_POINT ( 'NONE',  ( 5.500000000000000900, -1.999999999999999100, 7.499999999999996400 ) ) ;
#24 = APPROVAL_ROLE ( '' ) ;
#25 = CARTESIAN_POINT ( 'NONE',  ( 5.500000000000000900, -1.197544120644647300E-011, 6.671572875264757800 ) ) ;
#26 = CARTESIAN_POINT ( 'NONE',  ( 5.500000000000000900, -0.8284271247556861400, 7.499999999999997300 ) ) ;
#27 = SECURITY_CLASSIFICATION_LEVEL ( 'unclassified' ) ;
#28 = DATE_TIME_ROLE ( 'classification_date' ) ;
#29 = APPROVAL_ROLE ( '' ) ;
#30 = CARTESIAN_POINT ( 'NONE',  ( 7.500000000000004400, -1.313708498990322300, 6.671572875253808400 ) ) ;
#31 = CARTESIAN_POINT ( 'NONE',  ( 7.500000000000001800, -1.999999999999999100, 6.671572875253808400 ) ) ;
#32 = CARTESIAN_POINT ( 'NONE',  ( 7.500000000000004400, -0.8284271247532036800, 6.186291501021652400 ) ) ;
#33 = CARTESIAN_POINT ( 'NONE',  ( 6.671572875253812800, -1.197498046759277600E-011, 6.671572875264757800 ) ) ;
#34 =( LENGTH_UNIT ( ) NAMED_UNIT ( * ) SI_UNIT ( .MILLI., .METRE. ) );
#35 =( NAMED_UNIT ( * ) PLANE_ANGLE_UNIT ( ) SI_UNIT ( $, .RADIAN. ) );
#36 = DIRECTION ( 'NONE',  ( 0.0000000000000000000, 0.0000000000000000000, 1.000000000000000000 ) ) ;
#37 = APPROVAL_ROLE ( '' ) ;
#38 = DATE_TIME_ROLE ( 'creation_date' ) ;
#39 = CARTESIAN_POINT ( 'NONE',  ( 7.500000000000002700, -1.999999999999999100, 5.499999999999996400 ) ) ;
#40 = APPROVAL_STATUS ( 'not_yet_approved' ) ;
#41 = CARTESIAN_POINT ( 'NONE',  ( 5.500000000000000900, 1.734723475976807100E-015, 5.500000000020443200 ) ) ;
#42 = CARTESIAN_POINT ( 'NONE',  ( 6.671572875253811000, 2.703551072300896000E-015, 5.500000000020444100 ) ) ;
#43 = CARTESIAN_POINT ( 'NONE',  ( 6.671572875253812800, -0.8284271247556868100, 7.499999999999998200 ) ) ;
#44 = CARTESIAN_POINT ( 'NONE',  ( 7.500000000000002700, -1.999999999999999800, 5.499999999999997300 ) ) ;
#45 = APPLICATION_CONTEXT ( 'configuration controlled 3d designs of mechanical parts and assemblies' ) ;
#46 = PERSON_AND_ORGANIZATION_ROLE ( 'creator' ) ;
#47 = PERSON_AND_ORGANIZATION_ROLE ( 'creator' ) ;
#48 = PERSON_AND_ORGANIZATION_ROLE ( 'design_supplier' ) ;
#49 = APPROVAL_STATUS ( 'not_yet_approved' ) ;
#50 = DIRECTION ( 'NONE',  ( 0.0000000000000000000, 1.000000000000000000, 0.0000000000000000000 ) ) ;
#51 = CARTESIAN_POINT ( 'NONE',  ( 7.500000000000002700, -1.999999999999998200, 5.499999999999998200 ) ) ;
#52 = CARTESIAN_POINT ( 'NONE',  ( 0.0000000000000000000, -27.72792206135785200, 0.0000000000000000000 ) ) ;
#53 = CARTESIAN_POINT ( 'NONE',  ( 7.500000000000002700, -1.999999999999998900, 5.499999999999998200 ) ) ;
#54 = DIRECTION ( 'NONE',  ( 0.0000000000000000000, 0.0000000000000000000, 1.000000000000000000 ) ) ;
#55 = ADVANCED_FACE ( 'NONE', ( #696 ), #906, .T. ) ;
#56 = ADVANCED_FACE ( 'NONE', ( #704, #721 ), #898, .T. ) ;
#57 = EDGE_CURVE ( 'NONE', #449, #419, #694, .T. ) ;
#58 = EDGE_CURVE ( 'NONE', #443, #414, #720, .T. ) ;
#59 = EDGE_CURVE ( 'NONE', #449, #447, #677, .T. ) ;
#60 = EDGE_CURVE ( 'NONE', #486, #419, #701, .T. ) ;
#61 = EDGE_CURVE ( 'NONE', #413, #412, #711, .T. ) ;
#62 = EDGE_CURVE ( 'NONE', #417, #414, #722, .T. ) ;
#63 = EDGE_CURVE ( 'NONE', #414, #417, #681, .T. ) ;
#64 = EDGE_CURVE ( 'NONE', #439, #484, #662, .T. ) ;
#65 = EDGE_CURVE ( 'NONE', #412, #484, #718, .T. ) ;
#66 = EDGE_CURVE ( 'NONE', #440, #446, #697, .T. ) ;
#67 = EDGE_CURVE ( 'NONE', #423, #444, #706, .T. ) ;
#68 = EDGE_CURVE ( 'NONE', #480, #436, #695, .T. ) ;
#69 = EDGE_CURVE ( 'NONE', #446, #448, #685, .T. ) ;
#70 = EDGE_CURVE ( 'NONE', #489, #416, #683, .T. ) ;
#71 = EDGE_CURVE ( 'NONE', #482, #448, #717, .T. ) ;
#72 = EDGE_CURVE ( 'NONE', #420, #411, #672, .T. ) ;
#73 = EDGE_CURVE ( 'NONE', #433, #480, #666, .T. ) ;
#74 = EDGE_CURVE ( 'NONE', #445, #447, #714, .T. ) ;
#75 = EDGE_CURVE ( 'NONE', #450, #411, #664, .T. ) ;
#76 = EDGE_CURVE ( 'NONE', #419, #450, #708, .T. ) ;
#77 = EDGE_CURVE ( 'NONE', #440, #422, #678, .T. ) ;
#78 = EDGE_CURVE ( 'NONE', #442, #435, #679, .T. ) ;
#79 = EDGE_CURVE ( 'NONE', #428, #485, #680, .T. ) ;
#80 = EDGE_CURVE ( 'NONE', #416, #434, #698, .T. ) ;
#81 = EDGE_CURVE ( 'NONE', #489, #441, #668, .T. ) ;
#82 = EDGE_CURVE ( 'NONE', #442, #437, #667, .T. ) ;
#83 = EDGE_CURVE ( 'NONE', #443, #427, #669, .T. ) ;
#84 = EDGE_CURVE ( 'NONE', #493, #429, #700, .T. ) ;
#85 = EDGE_CURVE ( 'NONE', #451, #434, #688, .T. ) ;
#86 = EDGE_CURVE ( 'NONE', #445, #451, #693, .T. ) ;
#87 = EDGE_CURVE ( 'NONE', #432, #493, #699, .T. ) ;
#88 = EDGE_CURVE ( 'NONE', #480, #416, #707, .T. ) ;
#89 = EDGE_CURVE ( 'NONE', #427, #443, #712, .T. ) ;
#90 = EDGE_CURVE ( 'NONE', #415, #423, #713, .T. ) ;
#91 = EDGE_CURVE ( 'NONE', #482, #418, #744, .T. ) ;
#92 = EDGE_CURVE ( 'NONE', #420, #413, #772, .T. ) ;
#93 = AXIS2_PLACEMENT_3D ( 'NONE', #1077, #1078, #1104 ) ;
#94 = AXIS2_PLACEMENT_3D ( 'NONE', #901, #905, #903 ) ;
#95 = EDGE_CURVE ( 'NONE', #482, #420, #776, .T. ) ;
#96 = EDGE_CURVE ( 'NONE', #419, #433, #775, .T. ) ;
#97 = AXIS2_PLACEMENT_3D ( 'NONE', #928, #925, #940 ) ;
#98 = AXIS2_PLACEMENT_3D ( 'NONE', #990, #998, #1040 ) ;
#99 = AXIS2_PLACEMENT_3D ( 'NONE', #1039, #1038, #1057 ) ;
#100 = AXIS2_PLACEMENT_3D ( 'NONE', #1082, #1086, #1084 ) ;
#101 = AXIS2_PLACEMENT_3D ( 'NONE', #1069, #1108, #1079 ) ;
#102 = AXIS2_PLACEMENT_3D ( 'NONE', #1074, #1109, #1100 ) ;
#103 = AXIS2_PLACEMENT_3D ( 'NONE', #948, #907, #908 ) ;
#104 = EDGE_CURVE ( 'NONE', #483, #423, #778, .T. ) ;
#105 = EDGE_CURVE ( 'NONE', #437, #439, #779, .T. ) ;
#106 = EDGE_CURVE ( 'NONE', #480, #450, #729, .T. ) ;
#107 = AXIS2_PLACEMENT_3D ( 'NONE', #977, #951, #979 ) ;
#108 = AXIS2_PLACEMENT_3D ( 'NONE', #1029, #1019, #996 ) ;
#109 = AXIS2_PLACEMENT_3D ( 'NONE', #1044, #1047, #1030 ) ;
#110 = AXIS2_PLACEMENT_3D ( 'NONE', #1048, #1041, #1059 ) ;
#111 = AXIS2_PLACEMENT_3D ( 'NONE', #1134, #1113, #1135 ) ;
#112 = AXIS2_PLACEMENT_3D ( 'NONE', #894, #902, #900 ) ;
#113 = EDGE_CURVE ( 'NONE', #418, #422, #724, .T. ) ;
#114 = EDGE_CURVE ( 'NONE', #449, #484, #768, .T. ) ;
#115 = AXIS2_PLACEMENT_3D ( 'NONE', #954, #971, #961 ) ;
#116 = EDGE_CURVE ( 'NONE', #483, #411, #783, .T. ) ;
#117 = AXIS2_PLACEMENT_3D ( 'NONE', #893, #904, #896 ) ;
#118 = AXIS2_PLACEMENT_3D ( 'NONE', #962, #957, #984 ) ;
#119 = AXIS2_PLACEMENT_3D ( 'NONE', #991, #995, #1011 ) ;
#120 = EDGE_CURVE ( 'NONE', #412, #437, #728, .T. ) ;
#121 = AXIS2_PLACEMENT_3D ( 'NONE', #1025, #1009, #1027 ) ;
#122 = AXIS2_PLACEMENT_3D ( 'NONE', #968, #982, #952 ) ;
#123 = AXIS2_PLACEMENT_3D ( 'NONE', #927, #935, #926 ) ;
#124 = AXIS2_PLACEMENT_3D ( 'NONE', #923, #941, #934 ) ;
#125 = AXIS2_PLACEMENT_3D ( 'NONE', #939, #942, #929 ) ;
#126 = AXIS2_PLACEMENT_3D ( 'NONE', #973, #963, #964 ) ;
#127 = AXIS2_PLACEMENT_3D ( 'NONE', #1020, #1006, #1007 ) ;
#128 = AXIS2_PLACEMENT_3D ( 'NONE', #994, #1014, #1001 ) ;
#129 = AXIS2_PLACEMENT_3D ( 'NONE', #1032, #1049, #1068 ) ;
#130 = AXIS2_PLACEMENT_3D ( 'NONE', #981, #965, #986 ) ;
#131 = AXIS2_PLACEMENT_3D ( 'NONE', #999, #1028, #1015 ) ;
#132 = AXIS2_PLACEMENT_3D ( 'NONE', #1107, #1083, #1087 ) ;
#133 = AXIS2_PLACEMENT_3D ( 'NONE', #912, #945, #922 ) ;
#134 = AXIS2_PLACEMENT_3D ( 'NONE', #1085, #1080, #1072 ) ;
#135 = AXIS2_PLACEMENT_3D ( 'NONE', #930, #924, #932 ) ;
#136 = EDGE_CURVE ( 'NONE', #432, #424, #781, .T. ) ;
#137 = AXIS2_PLACEMENT_3D ( 'NONE', #975, #955, #976 ) ;
#138 = AXIS2_PLACEMENT_3D ( 'NONE', #1056, #1052, #1035 ) ;
#139 = EDGE_CURVE ( 'NONE', #448, #422, #756, .T. ) ;
#140 = EDGE_CURVE ( 'NONE', #447, #486, #746, .T. ) ;
#141 = AXIS2_PLACEMENT_3D ( 'NONE', #1081, #1070, #1093 ) ;
#142 = EDGE_CURVE ( 'NONE', #436, #415, #730, .T. ) ;
#143 = AXIS2_PLACEMENT_3D ( 'NONE', #937, #938, #943 ) ;
#144 = EDGE_CURVE ( 'NONE', #439, #485, #742, .T. ) ;
#145 = EDGE_CURVE ( 'NONE', #418, #413, #732, .T. ) ;
#146 = EDGE_CURVE ( 'NONE', #436, #483, #773, .T. ) ;
#147 = AXIS2_PLACEMENT_3D ( 'NONE', #921, #920, #911 ) ;
#148 = AXIS2_PLACEMENT_3D ( 'NONE', #1036, #1033, #1037 ) ;
#149 = AXIS2_PLACEMENT_3D ( 'NONE', #1043, #1053, #1054 ) ;
#150 = EDGE_CURVE ( 'NONE', #450, #436, #769, .T. ) ;
#151 = AXIS2_PLACEMENT_3D ( 'NONE', #1099, #1091, #1075 ) ;
#152 = AXIS2_PLACEMENT_3D ( 'NONE', #1076, #1071, #1097 ) ;
#153 = AXIS2_PLACEMENT_3D ( 'NONE', #320, #296, #291 ) ;
#154 = AXIS2_PLACEMENT_3D ( 'NONE', #14, #36, #11 ) ;
#155 = CC_DESIGN_PERSON_AND_ORGANIZATION_ASSIGNMENT ( #882, #48, ( #177 ) ) ;
#156 = AXIS2_PLACEMENT_3D ( 'NONE', #1110, #1139, #1117 ) ;
#157 = AXIS2_PLACEMENT_3D ( 'NONE', #1122, #1123, #1133 ) ;
#158 = AXIS2_PLACEMENT_3D ( 'NONE', #339, #358, #373 ) ;
#159 = AXIS2_PLACEMENT_3D ( 'NONE', #318, #313, #297 ) ;
#160 = AXIS2_PLACEMENT_3D ( 'NONE', #335, #336, #340 ) ;
#161 = AXIS2_PLACEMENT_3D ( 'NONE', #308, #311, #309 ) ;
#162 = AXIS2_PLACEMENT_3D ( 'NONE', #322, #312, #324 ) ;
#163 = AXIS2_PLACEMENT_3D ( 'NONE', #319, #293, #314 ) ;
#164 = AXIS2_PLACEMENT_3D ( 'NONE', #345, #328, #360 ) ;
#165 = AXIS2_PLACEMENT_3D ( 'NONE', #304, #326, #294 ) ;
#166 = AXIS2_PLACEMENT_3D ( 'NONE', #330, #359, #377 ) ;
#167 =( GEOMETRIC_REPRESENTATION_CONTEXT ( 3 ) GLOBAL_UNCERTAINTY_ASSIGNED_CONTEXT ( ( #1 ) ) GLOBAL_UNIT_ASSIGNED_CONTEXT ( ( #34, #35, #12 ) ) REPRESENTATION_CONTEXT ( 'NONE', 'WORKASPACE' ) );
#168 = AXIS2_PLACEMENT_3D ( 'NONE', #302, #292, #325 ) ;
#169 = AXIS2_PLACEMENT_3D ( 'NONE', #349, #333, #362 ) ;
#170 = AXIS2_PLACEMENT_3D ( 'NONE', #378, #380, #394 ) ;
#171 = AXIS2_PLACEMENT_3D ( 'NONE', #287, #303, #288 ) ;
#172 = AXIS2_PLACEMENT_3D ( 'NONE', #52, #50, #54 ) ;
#173 = AXIS2_PLACEMENT_3D ( 'NONE', #343, #346, #353 ) ;
#174 = AXIS2_PLACEMENT_3D ( 'NONE', #334, #368, #369 ) ;
#175 = CC_DESIGN_PERSON_AND_ORGANIZATION_ASSIGNMENT ( #887, #22, ( #890 ) ) ;
#176 = CC_DESIGN_PERSON_AND_ORGANIZATION_ASSIGNMENT ( #868, #46, ( #184 ) ) ;
#177 = PRODUCT_DEFINITION_FORMATION_WITH_SPECIFIED_SOURCE ( 'ANY', '', #890, .NOT_KNOWN. ) ;
#178 = AXIS2_PLACEMENT_3D ( 'NONE', #317, #295, #307 ) ;
#179 = AXIS2_PLACEMENT_3D ( 'NONE', #1094, #1098, #1102 ) ;
#180 = AXIS2_PLACEMENT_3D ( 'NONE', #289, #306, #327 ) ;
#181 = AXIS2_PLACEMENT_3D ( 'NONE', #290, #323, #305 ) ;
#182 = AXIS2_PLACEMENT_3D ( 'NONE', #355, #348, #329 ) ;
#183 = AXIS2_PLACEMENT_3D ( 'NONE', #265, #286, #300 ) ;
#184 = PRODUCT_DEFINITION ( 'UNKNOWN', '', #177, #503 ) ;
#185 = APPROVAL ( #16, 'UNSPECIFIED' ) ;
#186 = AXIS2_PLACEMENT_3D ( 'NONE', #400, #387, #389 ) ;
#187 = AXIS2_PLACEMENT_3D ( 'NONE', #321, #315, #301 ) ;
#188 = AXIS2_PLACEMENT_3D ( 'NONE', #351, #375, #363 ) ;
#189 = AXIS2_PLACEMENT_3D ( 'NONE', #376, #367, #341 ) ;
#190 = CC_DESIGN_APPROVAL ( #185, ( #184 ) ) ;
#191 = APPROVAL ( #40, 'UNSPECIFIED' ) ;
#192 = CC_DESIGN_APPROVAL ( #191, ( #177 ) ) ;
#193 = CC_DESIGN_PERSON_AND_ORGANIZATION_ASSIGNMENT ( #864, #47, ( #177 ) ) ;
#194 = CC_DESIGN_DATE_AND_TIME_ASSIGNMENT ( #872, #38, ( #184 ) ) ;
#195 = SECURITY_CLASSIFICATION ( '', '', #27 ) ;
#196 = CC_DESIGN_SECURITY_CLASSIFICATION ( #195, ( #177 ) ) ;
#197 = CC_DESIGN_PERSON_AND_ORGANIZATION_ASSIGNMENT ( #871, #18, ( #195 ) ) ;
#198 = PRODUCT_RELATED_PRODUCT_CATEGORY ( 'detail', '', ( #890 ) ) ;
#199 = APPROVAL ( #49, 'UNSPECIFIED' ) ;
#200 = CC_DESIGN_DATE_AND_TIME_ASSIGNMENT ( #874, #28, ( #195 ) ) ;
#201 = CC_DESIGN_APPROVAL ( #199, ( #195 ) ) ;
#202 = EDGE_CURVE ( 'NONE', #443, #425, #747, .T. ) ;
#203 = EDGE_CURVE ( 'NONE', #429, #493, #780, .T. ) ;
#204 = EDGE_CURVE ( 'NONE', #438, #426, #727, .T. ) ;
#205 = EDGE_CURVE ( 'NONE', #434, #433, #774, .T. ) ;
#206 = EDGE_CURVE ( 'NONE', #424, #429, #743, .T. ) ;
#207 = EDGE_CURVE ( 'NONE', #441, #481, #757, .T. ) ;
#208 = EDGE_CURVE ( 'NONE', #440, #435, #764, .T. ) ;
#209 = EDGE_CURVE ( 'NONE', #486, #433, #784, .T. ) ;
#210 = EDGE_CURVE ( 'NONE', #451, #486, #748, .T. ) ;
#211 = EDGE_CURVE ( 'NONE', #431, #426, #782, .T. ) ;
#212 = EDGE_CURVE ( 'NONE', #430, #438, #761, .T. ) ;
#213 = EDGE_CURVE ( 'NONE', #424, #432, #736, .T. ) ;
#214 = EDGE_CURVE ( 'NONE', #426, #438, #762, .T. ) ;
#215 = EDGE_CURVE ( 'NONE', #441, #451, #770, .T. ) ;
#216 = EDGE_CURVE ( 'NONE', #481, #445, #737, .T. ) ;
#217 = EDGE_CURVE ( 'NONE', #428, #435, #752, .T. ) ;
#218 = EDGE_CURVE ( 'NONE', #444, #446, #754, .T. ) ;
#219 = EDGE_CURVE ( 'NONE', #427, #417, #765, .T. ) ;
#220 = EDGE_CURVE ( 'NONE', #428, #481, #766, .T. ) ;
#221 = EDGE_CURVE ( 'NONE', #442, #485, #734, .T. ) ;
#222 = EDGE_CURVE ( 'NONE', #427, #421, #827, .T. ) ;
#223 = EDGE_CURVE ( 'NONE', #431, #430, #813, .T. ) ;
#224 = EDGE_CURVE ( 'NONE', #425, #421, #795, .T. ) ;
#225 = EDGE_CURVE ( 'NONE', #444, #489, #811, .T. ) ;
#226 = EDGE_CURVE ( 'NONE', #415, #489, #817, .T. ) ;
#227 = EDGE_CURVE ( 'NONE', #416, #415, #814, .T. ) ;
#228 = EDGE_CURVE ( 'NONE', #430, #431, #812, .T. ) ;
#229 = EDGE_CURVE ( 'NONE', #421, #425, #836, .T. ) ;
#230 = EDGE_CURVE ( 'NONE', #434, #441, #842, .T. ) ;
#231 = ADVANCED_FACE ( 'NONE', ( #820 ), #809, .T. ) ;
#232 = ADVANCED_FACE ( 'NONE', ( #786 ), #845, .T. ) ;
#233 = ADVANCED_FACE ( 'NONE', ( #837 ), #1121, .T. ) ;
#234 = ORIENTED_EDGE ( 'NONE', *, *, #215, .F. ) ;
#235 = ORIENTED_EDGE ( 'NONE', *, *, #228, .T. ) ;
#236 = ORIENTED_EDGE ( 'NONE', *, *, #86, .F. ) ;
#237 = ORIENTED_EDGE ( 'NONE', *, *, #207, .F. ) ;
#238 = ORIENTED_EDGE ( 'NONE', *, *, #79, .T. ) ;
#239 = ORIENTED_EDGE ( 'NONE', *, *, #224, .F. ) ;
#240 = ORIENTED_EDGE ( 'NONE', *, *, #230, .T. ) ;
#241 = ORIENTED_EDGE ( 'NONE', *, *, #230, .F. ) ;
#242 = ORIENTED_EDGE ( 'NONE', *, *, #215, .T. ) ;
#243 = ORIENTED_EDGE ( 'NONE', *, *, #221, .F. ) ;
#244 = ORIENTED_EDGE ( 'NONE', *, *, #214, .T. ) ;
#245 = ORIENTED_EDGE ( 'NONE', *, *, #220, .F. ) ;
#246 = ORIENTED_EDGE ( 'NONE', *, *, #225, .T. ) ;
#247 = ORIENTED_EDGE ( 'NONE', *, *, #226, .F. ) ;
#248 = ORIENTED_EDGE ( 'NONE', *, *, #84, .T. ) ;
#249 = ORIENTED_EDGE ( 'NONE', *, *, #217, .F. ) ;
#250 = ORIENTED_EDGE ( 'NONE', *, *, #229, .F. ) ;
#251 = ORIENTED_EDGE ( 'NONE', *, *, #81, .T. ) ;
#252 = ORIENTED_EDGE ( 'NONE', *, *, #85, .F. ) ;
#253 = ORIENTED_EDGE ( 'NONE', *, *, #218, .F. ) ;
#254 = ORIENTED_EDGE ( 'NONE', *, *, #85, .T. ) ;
#255 = ORIENTED_EDGE ( 'NONE', *, *, #223, .T. ) ;
#256 = ORIENTED_EDGE ( 'NONE', *, *, #211, .F. ) ;
#257 = ORIENTED_EDGE ( 'NONE', *, *, #205, .T. ) ;
#258 = ORIENTED_EDGE ( 'NONE', *, *, #78, .T. ) ;
#259 = ADVANCED_FACE ( 'NONE', ( #822 ), #815, .T. ) ;
#260 = CARTESIAN_POINT ( 'NONE',  ( -7.500000000000000000, -1.999999999999998400, -5.500000000000000000 ) ) ;
#261 = CARTESIAN_POINT ( 'NONE',  ( -7.500000000000000000, -1.999999999999998400, -5.500000000000000000 ) ) ;
#262 = CARTESIAN_POINT ( 'NONE',  ( 4.950000000000001100, -15.00000000000000000, -6.500000000000000900 ) ) ;
#263 = CARTESIAN_POINT ( 'NONE',  ( 5.500000000000000000, -15.00000000000000000, -7.500000000000000000 ) ) ;
#264 = CARTESIAN_POINT ( 'NONE',  ( -7.499999999999999100, -15.00000000000000000, 5.500000000000000000 ) ) ;
#265 = CARTESIAN_POINT ( 'NONE',  ( 4.950000000000001100, -15.00000000000000000, 7.499999999999999100 ) ) ;
#266 = CARTESIAN_POINT ( 'NONE',  ( 0.0000000000000000000, -9.000000000000001800, 2.600000000000000500 ) ) ;
#267 = CARTESIAN_POINT ( 'NONE',  ( -5.500000000000000000, -0.8284271247461881800, -7.500000000000000000 ) ) ;
#268 = CARTESIAN_POINT ( 'NONE',  ( -5.500000000000000000, 1.734723475976807100E-015, -5.500000000000000000 ) ) ;
#269 = CARTESIAN_POINT ( 'NONE',  ( -6.671572875253809300, -1.999999999999998400, -7.500000000000000000 ) ) ;
#270 = CARTESIAN_POINT ( 'NONE',  ( -7.500000000000000900, -1.313708498984758500, -6.671572875253809300 ) ) ;
#271 = CARTESIAN_POINT ( 'NONE',  ( -7.500000000000000900, -0.8284271247461887400, -6.186291501015239700 ) ) ;
#272 = CARTESIAN_POINT ( 'NONE',  ( -5.499999999999999100, 5.421010862427522200E-016, 5.500000000000000000 ) ) ;
#273 = CARTESIAN_POINT ( 'NONE',  ( -5.500000000000000000, -1.999999999999998200, -7.500000000000000000 ) ) ;
#274 = CARTESIAN_POINT ( 'NONE',  ( -5.500000000000000000, 1.734723475976807100E-015, -6.671572875253809300 ) ) ;
#275 = CARTESIAN_POINT ( 'NONE',  ( -6.671572875253809300, 1.734723475976806700E-015, -6.671572875253809300 ) ) ;
#276 = CARTESIAN_POINT ( 'NONE',  ( 3.950000000000001100, -15.00000000000000000, 7.499999999999997300 ) ) ;
#277 = CARTESIAN_POINT ( 'NONE',  ( -7.500000000000000000, -1.999999999999998400, -6.671572875253809300 ) ) ;
#278 = CARTESIAN_POINT ( 'NONE',  ( -7.500000000000000000, -0.8284271247461885100, -5.500000000000000000 ) ) ;
#279 = CARTESIAN_POINT ( 'NONE',  ( 7.500000000000002700, -1.999999999999998200, 5.499999999999998200 ) ) ;
#280 = CARTESIAN_POINT ( 'NONE',  ( -7.500000000000000000, -1.999999999999998200, -5.500000000000000000 ) ) ;
#281 = CARTESIAN_POINT ( 'NONE',  ( -7.500000000000000000, -1.999999999999998200, -5.500000000000000000 ) ) ;
#282 = CARTESIAN_POINT ( 'NONE',  ( -5.500000000000000000, -1.999999999999998700, -7.500000000000000000 ) ) ;
#283 = CARTESIAN_POINT ( 'NONE',  ( -6.671572875253809300, -0.8284271247461882900, -7.500000000000000900 ) ) ;
#284 = CARTESIAN_POINT ( 'NONE',  ( -6.671572875253809300, 1.734723475976807100E-015, -5.500000000000000000 ) ) ;
#285 = CARTESIAN_POINT ( 'NONE',  ( -4.949999999999999300, -15.00000000000000000, 6.499999999999999100 ) ) ;
#286 = DIRECTION ( 'NONE',  ( 1.000000000000000000, -0.0000000000000000000, 0.0000000000000000000 ) ) ;
#287 = CARTESIAN_POINT ( 'NONE',  ( 0.0000000000000000000, -8.499999999999998200, -9.500000000000000000 ) ) ;
#288 = DIRECTION ( 'NONE',  ( 1.000000000000000000, 0.0000000000000000000, 0.0000000000000000000 ) ) ;
#289 = CARTESIAN_POINT ( 'NONE',  ( 5.500000000000001800, -2.000000000000000000, -6.360652745248294000E-016 ) ) ;
#290 = CARTESIAN_POINT ( 'NONE',  ( 3.950000000000001100, -15.00000000000000000, 6.499999999999997300 ) ) ;
#291 = DIRECTION ( 'NONE',  ( 0.0000000000000000000, 0.0000000000000000000, 1.000000000000000000 ) ) ;
#292 = DIRECTION ( 'NONE',  ( 1.000000000000000000, 0.0000000000000000000, 0.0000000000000000000 ) ) ;
#293 = DIRECTION ( 'NONE',  ( 0.0000000000000000000, 0.0000000000000000000, -1.000000000000000000 ) ) ;
#294 = DIRECTION ( 'NONE',  ( 0.0000000000000000000, 0.0000000000000000000, 1.000000000000000000 ) ) ;
#295 = DIRECTION ( 'NONE',  ( 0.0000000000000000000, -1.000000000000000000, 0.0000000000000000000 ) ) ;
#296 = DIRECTION ( 'NONE',  ( 0.0000000000000000000, 1.000000000000000000, 0.0000000000000000000 ) ) ;
#297 = DIRECTION ( 'NONE',  ( 0.0000000000000000000, -0.0000000000000000000, -1.000000000000000000 ) ) ;
#298 = CARTESIAN_POINT ( 'NONE',  ( -5.499999999999999100, 2.168404344971008900E-015, 5.500000000000000000 ) ) ;
#299 = CARTESIAN_POINT ( 'NONE',  ( -5.499999999999999100, 2.168404344971008900E-015, 6.671572875253810200 ) ) ;
#300 = DIRECTION ( 'NONE',  ( 0.0000000000000000000, 0.0000000000000000000, -1.000000000000000000 ) ) ;
#301 = DIRECTION ( 'NONE',  ( -1.000000000000000000, 0.0000000000000000000, 5.782411586589356200E-017 ) ) ;
#302 = CARTESIAN_POINT ( 'NONE',  ( 0.0000000000000000000, -2.000000000000000000, -5.500000000000000000 ) ) ;
#303 = DIRECTION ( 'NONE',  ( -0.0000000000000000000, -0.0000000000000000000, 1.000000000000000000 ) ) ;
#304 = CARTESIAN_POINT ( 'NONE',  ( -5.500000000000000000, -18.00000000000000400, -5.500000000000000000 ) ) ;
#305 = DIRECTION ( 'NONE',  ( 0.0000000000000000000, 0.0000000000000000000, -1.000000000000000000 ) ) ;
#306 = DIRECTION ( 'NONE',  ( 1.156482317317871500E-016, 0.0000000000000000000, 1.000000000000000000 ) ) ;
#307 = DIRECTION ( 'NONE',  ( 0.0000000000000000000, -0.0000000000000000000, -1.000000000000000000 ) ) ;
#308 = CARTESIAN_POINT ( 'NONE',  ( 5.500000000000000000, -18.00000000000000400, -5.500000000000000000 ) ) ;
#309 = DIRECTION ( 'NONE',  ( 0.0000000000000000000, 0.0000000000000000000, 1.000000000000000000 ) ) ;
#310 = PLANE ( 'NONE',  #178 ) ;
#311 = DIRECTION ( 'NONE',  ( 0.0000000000000000000, 1.000000000000000000, 0.0000000000000000000 ) ) ;
#312 = DIRECTION ( 'NONE',  ( -1.000000000000000000, 0.0000000000000000000, 2.312964634635743000E-016 ) ) ;
#313 = DIRECTION ( 'NONE',  ( 0.0000000000000000000, -1.000000000000000000, 0.0000000000000000000 ) ) ;
#314 = DIRECTION ( 'NONE',  ( -1.000000000000000000, 0.0000000000000000000, 0.0000000000000000000 ) ) ;
#315 = DIRECTION ( 'NONE',  ( -5.782411586589357400E-017, 0.0000000000000000000, -1.000000000000000000 ) ) ;
#316 = PLANE ( 'NONE',  #159 ) ;
#317 = CARTESIAN_POINT ( 'NONE',  ( 8.673617379884035500E-016, -9.000000000000001800, 0.0000000000000000000 ) ) ;
#318 = CARTESIAN_POINT ( 'NONE',  ( 8.673617379884035500E-016, -15.00000000000000000, 0.0000000000000000000 ) ) ;
#319 = CARTESIAN_POINT ( 'NONE',  ( 0.0000000000000000000, -8.499999999999998200, -8.500000000000000000 ) ) ;
#320 = CARTESIAN_POINT ( 'NONE',  ( 0.0000000000000000000, -18.00000000000000400, 0.0000000000000000000 ) ) ;
#321 = CARTESIAN_POINT ( 'NONE',  ( -5.500000000000000000, -2.000000000000000000, 3.180326372624146500E-016 ) ) ;
#322 = CARTESIAN_POINT ( 'NONE',  ( 1.272130549049658000E-015, -2.000000000000000000, 5.499999999999998200 ) ) ;
#323 = DIRECTION ( 'NONE',  ( 0.0000000000000000000, -1.000000000000000000, 0.0000000000000000000 ) ) ;
#324 = DIRECTION ( 'NONE',  ( 2.312964634635743400E-016, 0.0000000000000000000, 1.000000000000000000 ) ) ;
#325 = DIRECTION ( 'NONE',  ( 0.0000000000000000000, 0.0000000000000000000, -1.000000000000000000 ) ) ;
#326 = DIRECTION ( 'NONE',  ( 0.0000000000000000000, 1.000000000000000000, 0.0000000000000000000 ) ) ;
#327 = DIRECTION ( 'NONE',  ( 1.000000000000000000, 0.0000000000000000000, -1.156482317317871700E-016 ) ) ;
#328 = DIRECTION ( 'NONE',  ( -1.000000000000000000, 0.0000000000000000000, 0.0000000000000000000 ) ) ;
#329 = DIRECTION ( 'NONE',  ( 0.0000000000000000000, 0.0000000000000000000, -1.000000000000000000 ) ) ;
#330 = CARTESIAN_POINT ( 'NONE',  ( 0.0000000000000000000, -27.72792206135785200, 0.0000000000000000000 ) ) ;
#331 = CARTESIAN_POINT ( 'NONE',  ( -5.499999999999999100, -1.999999999999997800, 7.500000000000000000 ) ) ;
#332 = PLANE ( 'NONE',  #169 ) ;
#333 = DIRECTION ( 'NONE',  ( -1.000000000000000000, 0.0000000000000000000, 5.782411586589357400E-017 ) ) ;
#334 = CARTESIAN_POINT ( 'NONE',  ( 5.500000000000002700, -18.00000000000000400, 5.499999999999997300 ) ) ;
#335 = CARTESIAN_POINT ( 'NONE',  ( 0.0000000000000000000, -18.00000000000000400, 0.0000000000000000000 ) ) ;
#336 = DIRECTION ( 'NONE',  ( 0.0000000000000000000, 1.000000000000000000, 0.0000000000000000000 ) ) ;
#337 = CARTESIAN_POINT ( 'NONE',  ( -6.671572875253809300, 1.732053750923272500E-015, 6.671572875253811900 ) ) ;
#338 = CARTESIAN_POINT ( 'NONE',  ( -7.499999999999999100, -1.313708498984758500, 6.671572875253811000 ) ) ;
#339 = CARTESIAN_POINT ( 'NONE',  ( -5.499999999999999100, -18.00000000000000400, 5.500000000000000000 ) ) ;
#340 = DIRECTION ( 'NONE',  ( 0.0000000000000000000, 0.0000000000000000000, 1.000000000000000000 ) ) ;
#341 = DIRECTION ( 'NONE',  ( -1.000000000000000000, 0.0000000000000000000, -0.0000000000000000000 ) ) ;
#342 = PLANE ( 'NONE',  #173 ) ;
#343 = CARTESIAN_POINT ( 'NONE',  ( 7.500000000000000000, -18.00000000000000400, -7.500000000000000000 ) ) ;
#344 = PLANE ( 'NONE',  #164 ) ;
#345 = CARTESIAN_POINT ( 'NONE',  ( -4.949999999999999300, -15.00000000000000000, 7.499999999999999100 ) ) ;
#346 = DIRECTION ( 'NONE',  ( 1.000000000000000000, 0.0000000000000000000, -1.156482317317871500E-016 ) ) ;
#347 = CARTESIAN_POINT ( 'NONE',  ( 7.500000000000000000, -1.999999999999998200, -5.500000000000000000 ) ) ;
#348 = DIRECTION ( 'NONE',  ( 0.0000000000000000000, -1.000000000000000000, 0.0000000000000000000 ) ) ;
#349 = CARTESIAN_POINT ( 'NONE',  ( -7.500000000000000000, -18.00000000000000400, -7.500000000000000000 ) ) ;
#350 = CARTESIAN_POINT ( 'NONE',  ( -7.499999999999997300, -0.8284271247461875200, 5.500000000000000000 ) ) ;
#351 = CARTESIAN_POINT ( 'NONE',  ( 0.0000000000000000000, 0.0000000000000000000, 0.0000000000000000000 ) ) ;
#352 = CARTESIAN_POINT ( 'NONE',  ( -7.499999999999997300, -1.999999999999997800, 5.500000000000000000 ) ) ;
#353 = DIRECTION ( 'NONE',  ( -1.156482317317871500E-016, 0.0000000000000000000, -1.000000000000000000 ) ) ;
#354 = CARTESIAN_POINT ( 'NONE',  ( -7.499999999999997300, -1.999999999999998900, 6.671572875253810200 ) ) ;
#355 = CARTESIAN_POINT ( 'NONE',  ( -3.949999999999999700, -15.00000000000000000, -6.500000000000000900 ) ) ;
#356 = CARTESIAN_POINT ( 'NONE',  ( -6.671572875253809300, -0.8284271247461887400, 7.500000000000000900 ) ) ;
#357 = PLANE ( 'NONE',  #189 ) ;
#358 = DIRECTION ( 'NONE',  ( 0.0000000000000000000, 1.000000000000000000, 0.0000000000000000000 ) ) ;
#359 = DIRECTION ( 'NONE',  ( 0.0000000000000000000, 1.000000000000000000, 0.0000000000000000000 ) ) ;
#360 = DIRECTION ( 'NONE',  ( 0.0000000000000000000, 0.0000000000000000000, 1.000000000000000000 ) ) ;
#361 = CARTESIAN_POINT ( 'NONE',  ( -7.499999999999999100, -0.8284271247461879600, 6.186291501015241500 ) ) ;
#362 = DIRECTION ( 'NONE',  ( 5.782411586589357400E-017, 0.0000000000000000000, 1.000000000000000000 ) ) ;
#363 = DIRECTION ( 'NONE',  ( 0.0000000000000000000, -0.0000000000000000000, -1.000000000000000000 ) ) ;
#364 = CARTESIAN_POINT ( 'NONE',  ( -5.499999999999999100, -0.8284271247461879600, 7.500000000000000000 ) ) ;
#365 = CARTESIAN_POINT ( 'NONE',  ( -6.671572875253809300, 2.240142493553380700E-015, 5.500000000000000000 ) ) ;
#366 = CARTESIAN_POINT ( 'NONE',  ( -7.499999999999997300, -1.999999999999997600, 5.500000000000000000 ) ) ;
#367 = DIRECTION ( 'NONE',  ( 0.0000000000000000000, 0.0000000000000000000, -1.000000000000000000 ) ) ;
#368 = DIRECTION ( 'NONE',  ( 0.0000000000000000000, 1.000000000000000000, 0.0000000000000000000 ) ) ;
#369 = DIRECTION ( 'NONE',  ( 0.0000000000000000000, 0.0000000000000000000, 1.000000000000000000 ) ) ;
#370 = CARTESIAN_POINT ( 'NONE',  ( -6.671572875253809300, -1.999999999999998900, 7.500000000000000000 ) ) ;
#371 = CARTESIAN_POINT ( 'NONE',  ( -7.499999999999999100, -1.999999999999997300, 5.500000000000000000 ) ) ;
#372 = PLANE ( 'NONE',  #188 ) ;
#373 = DIRECTION ( 'NONE',  ( 0.0000000000000000000, 0.0000000000000000000, 1.000000000000000000 ) ) ;
#374 = CARTESIAN_POINT ( 'NONE',  ( -7.499999999999999100, -1.999999999999997800, 5.500000000000000000 ) ) ;
#375 = DIRECTION ( 'NONE',  ( 0.0000000000000000000, -1.000000000000000000, 0.0000000000000000000 ) ) ;
#376 = CARTESIAN_POINT ( 'NONE',  ( 7.500000000000000000, -18.00000000000000400, -7.500000000000000000 ) ) ;
#377 = DIRECTION ( 'NONE',  ( 0.0000000000000000000, 0.0000000000000000000, 1.000000000000000000 ) ) ;
#378 = CARTESIAN_POINT ( 'NONE',  ( 8.673617379884035500E-016, -15.00000000000000000, 0.0000000000000000000 ) ) ;
#379 = CARTESIAN_POINT ( 'NONE',  ( 7.500000000000000000, -1.999999999999998200, -5.500000000000000000 ) ) ;
#380 = DIRECTION ( 'NONE',  ( 0.0000000000000000000, -1.000000000000000000, 0.0000000000000000000 ) ) ;
#381 = CARTESIAN_POINT ( 'NONE',  ( 6.671572875253809300, 1.734723475976807100E-015, -5.500000000000000000 ) ) ;
#382 = CARTESIAN_POINT ( 'NONE',  ( 7.500000000000000000, -1.999999999999998400, -6.671572875253809300 ) ) ;
#383 = CARTESIAN_POINT ( 'NONE',  ( 7.500000000000000000, -1.999999999999998400, -5.500000000000000000 ) ) ;
#384 = CARTESIAN_POINT ( 'NONE',  ( 7.500000000000000900, -0.8284271247461887400, -6.186291501015239700 ) ) ;
#385 = CARTESIAN_POINT ( 'NONE',  ( 6.671572875253809300, 1.734723475976806700E-015, -6.671572875253809300 ) ) ;
#386 = CARTESIAN_POINT ( 'NONE',  ( 5.500000000000000000, -0.8284271247461881800, -7.500000000000000000 ) ) ;
#387 = DIRECTION ( 'NONE',  ( 0.0000000000000000000, -1.000000000000000000, 0.0000000000000000000 ) ) ;
#388 = CARTESIAN_POINT ( 'NONE',  ( 6.671572875253809300, -0.8284271247461882900, -7.500000000000000900 ) ) ;
#389 = DIRECTION ( 'NONE',  ( 0.0000000000000000000, 0.0000000000000000000, -1.000000000000000000 ) ) ;
#390 = CARTESIAN_POINT ( 'NONE',  ( 7.500000000000000000, -1.999999999999998400, -5.500000000000000000 ) ) ;
#391 = CARTESIAN_POINT ( 'NONE',  ( 6.671572875253809300, -1.999999999999998400, -7.500000000000000000 ) ) ;
#392 = PLANE ( 'NONE',  #183 ) ;
#393 = PLANE ( 'NONE',  #170 ) ;
#394 = DIRECTION ( 'NONE',  ( 0.0000000000000000000, -0.0000000000000000000, -1.000000000000000000 ) ) ;
#395 = CARTESIAN_POINT ( 'NONE',  ( 7.500000000000000000, -0.8284271247461885100, -5.500000000000000000 ) ) ;
#396 = CARTESIAN_POINT ( 'NONE',  ( 5.500000000000000000, -1.999999999999998200, -7.500000000000000000 ) ) ;
#397 = CARTESIAN_POINT ( 'NONE',  ( 5.500000000000000000, 1.734723475976807100E-015, -6.671572875253809300 ) ) ;
#398 = CARTESIAN_POINT ( 'NONE',  ( 5.500000000000000000, 1.734723475976807100E-015, -5.500000000000000000 ) ) ;
#399 = CARTESIAN_POINT ( 'NONE',  ( 7.500000000000000900, -1.313708498984758500, -6.671572875253809300 ) ) ;
#400 = CARTESIAN_POINT ( 'NONE',  ( 3.950000000000001100, -18.00000000000000400, -6.500000000000000900 ) ) ;
#401 = CARTESIAN_POINT ( 'NONE',  ( 4.950000000000001100, -18.00000000000000400, -6.500000000000000900 ) ) ;
#402 = CARTESIAN_POINT ( 'NONE',  ( -4.949999999999999300, -15.00000000000000000, -6.500000000000000900 ) ) ;
#403 = CARTESIAN_POINT ( 'NONE',  ( 5.500000000000003600, -15.00000000000000000, 7.499999999999997300 ) ) ;
#404 = CARTESIAN_POINT ( 'NONE',  ( -5.499999999999999100, -1.999999999999998200, 7.500000000000000000 ) ) ;
#405 = CARTESIAN_POINT ( 'NONE',  ( 7.500000000000000000, -1.999999999999998700, -5.500000000000000000 ) ) ;
#406 = CARTESIAN_POINT ( 'NONE',  ( -5.500000000000000000, -15.00000000000000000, -7.500000000000000000 ) ) ;
#407 = CARTESIAN_POINT ( 'NONE',  ( 5.000000000000000900, -8.499999999999998200, -8.500000000000000000 ) ) ;
#408 = CARTESIAN_POINT ( 'NONE',  ( 7.500000000000000000, -15.00000000000000000, -5.500000000000000000 ) ) ;
#409 = CARTESIAN_POINT ( 'NONE',  ( -3.949999999999998800, -15.00000000000000000, -7.500000000000000000 ) ) ;
#410 = CARTESIAN_POINT ( 'NONE',  ( 7.500000000000001800, -15.00000000000000000, 5.499999999999998200 ) ) ;
#411 = VERTEX_POINT ( 'NONE', #1125 ) ;
#412 = VERTEX_POINT ( 'NONE', #1137 ) ;
#413 = VERTEX_POINT ( 'NONE', #1126 ) ;
#414 = VERTEX_POINT ( 'NONE', #1111 ) ;
#415 = VERTEX_POINT ( 'NONE', #1138 ) ;
#416 = VERTEX_POINT ( 'NONE', #1127 ) ;
#417 = VERTEX_POINT ( 'NONE', #1128 ) ;
#418 = VERTEX_POINT ( 'NONE', #1115 ) ;
#419 = VERTEX_POINT ( 'NONE', #1129 ) ;
#420 = VERTEX_POINT ( 'NONE', #1140 ) ;
#421 = VERTEX_POINT ( 'NONE', #1130 ) ;
#422 = VERTEX_POINT ( 'NONE', #1124 ) ;
#423 = VERTEX_POINT ( 'NONE', #1131 ) ;
#424 = VERTEX_POINT ( 'NONE', #1132 ) ;
#425 = VERTEX_POINT ( 'NONE', #1120 ) ;
#426 = VERTEX_POINT ( 'NONE', #1136 ) ;
#427 = VERTEX_POINT ( 'NONE', #1112 ) ;
#428 = VERTEX_POINT ( 'NONE', #1141 ) ;
#429 = VERTEX_POINT ( 'NONE', #1142 ) ;
#430 = VERTEX_POINT ( 'NONE', #1114 ) ;
#431 = VERTEX_POINT ( 'NONE', #1143 ) ;
#432 = VERTEX_POINT ( 'NONE', #1116 ) ;
#433 = VERTEX_POINT ( 'NONE', #1144 ) ;
#434 = VERTEX_POINT ( 'NONE', #1145 ) ;
#435 = VERTEX_POINT ( 'NONE', #1118 ) ;
#436 = VERTEX_POINT ( 'NONE', #1119 ) ;
#437 = VERTEX_POINT ( 'NONE', #1146 ) ;
#438 = VERTEX_POINT ( 'NONE', #1147 ) ;
#439 = VERTEX_POINT ( 'NONE', #892 ) ;
#440 = VERTEX_POINT ( 'NONE', #1060 ) ;
#441 = VERTEX_POINT ( 'NONE', #1103 ) ;
#442 = VERTEX_POINT ( 'NONE', #401 ) ;
#443 = VERTEX_POINT ( 'NONE', #407 ) ;
#444 = VERTEX_POINT ( 'NONE', #406 ) ;
#445 = VERTEX_POINT ( 'NONE', #408 ) ;
#446 = VERTEX_POINT ( 'NONE', #409 ) ;
#447 = VERTEX_POINT ( 'NONE', #410 ) ;
#448 = VERTEX_POINT ( 'NONE', #402 ) ;
#449 = VERTEX_POINT ( 'NONE', #403 ) ;
#450 = VERTEX_POINT ( 'NONE', #404 ) ;
#451 = VERTEX_POINT ( 'NONE', #405 ) ;
#452 = ORIENTED_EDGE ( 'NONE', *, *, #63, .F. ) ;
#453 = ORIENTED_EDGE ( 'NONE', *, *, #202, .T. ) ;
#454 = ORIENTED_EDGE ( 'NONE', *, *, #89, .T. ) ;
#455 = ORIENTED_EDGE ( 'NONE', *, *, #217, .T. ) ;
#456 = ORIENTED_EDGE ( 'NONE', *, *, #223, .F. ) ;
#457 = ORIENTED_EDGE ( 'NONE', *, *, #222, .T. ) ;
#458 = ORIENTED_EDGE ( 'NONE', *, *, #211, .T. ) ;
#459 = ORIENTED_EDGE ( 'NONE', *, *, #84, .F. ) ;
#460 = ORIENTED_EDGE ( 'NONE', *, *, #83, .F. ) ;
#461 = ORIENTED_EDGE ( 'NONE', *, *, #70, .F. ) ;
#462 = ORIENTED_EDGE ( 'NONE', *, *, #216, .F. ) ;
#463 = ORIENTED_EDGE ( 'NONE', *, *, #209, .F. ) ;
#464 = ORIENTED_EDGE ( 'NONE', *, *, #87, .F. ) ;
#465 = ORIENTED_EDGE ( 'NONE', *, *, #62, .F. ) ;
#466 = ORIENTED_EDGE ( 'NONE', *, *, #202, .F. ) ;
#467 = ORIENTED_EDGE ( 'NONE', *, *, #219, .F. ) ;
#468 = ORIENTED_EDGE ( 'NONE', *, *, #83, .T. ) ;
#469 = ORIENTED_EDGE ( 'NONE', *, *, #229, .T. ) ;
#470 = ORIENTED_EDGE ( 'NONE', *, *, #206, .T. ) ;
#471 = ORIENTED_EDGE ( 'NONE', *, *, #227, .F. ) ;
#472 = ORIENTED_EDGE ( 'NONE', *, *, #213, .F. ) ;
#473 = ORIENTED_EDGE ( 'NONE', *, *, #210, .F. ) ;
#474 = ORIENTED_EDGE ( 'NONE', *, *, #203, .T. ) ;
#475 = ORIENTED_EDGE ( 'NONE', *, *, #207, .T. ) ;
#476 = ORIENTED_EDGE ( 'NONE', *, *, #66, .T. ) ;
#477 = ORIENTED_EDGE ( 'NONE', *, *, #58, .T. ) ;
#478 = ORIENTED_EDGE ( 'NONE', *, *, #208, .F. ) ;
#479 = CLOSED_SHELL ( 'NONE', ( #514, #515, #526, #523, #520, #55, #259, #522, #511, #525, #509, #56, #521, #513, #524, #517, #518, #533, #530, #527, #531, #506, #519, #516, #505, #532, #508, #512, #510, #529, #507, #504, #528, #231, #233, #232 ) ) ;
#480 = VERTEX_POINT ( 'NONE', #272 ) ;
#481 = VERTEX_POINT ( 'NONE', #263 ) ;
#482 = VERTEX_POINT ( 'NONE', #285 ) ;
#483 = VERTEX_POINT ( 'NONE', #264 ) ;
#484 = VERTEX_POINT ( 'NONE', #276 ) ;
#485 = VERTEX_POINT ( 'NONE', #262 ) ;
#486 = VERTEX_POINT ( 'NONE', #279 ) ;
#487 = ORIENTED_EDGE ( 'NONE', *, *, #63, .T. ) ;
#488 = ORIENTED_EDGE ( 'NONE', *, *, #89, .F. ) ;
#489 = VERTEX_POINT ( 'NONE', #282 ) ;
#490 = ORIENTED_EDGE ( 'NONE', *, *, #58, .F. ) ;
#491 = ORIENTED_EDGE ( 'NONE', *, *, #224, .T. ) ;
#492 = ORIENTED_EDGE ( 'NONE', *, *, #62, .T. ) ;
#493 = VERTEX_POINT ( 'NONE', #266 ) ;
#494 = ORIENTED_EDGE ( 'NONE', *, *, #219, .T. ) ;
#495 = ORIENTED_EDGE ( 'NONE', *, *, #60, .F. ) ;
#496 = ORIENTED_EDGE ( 'NONE', *, *, #72, .T. ) ;
#497 = ORIENTED_EDGE ( 'NONE', *, *, #205, .F. ) ;
#498 = ORIENTED_EDGE ( 'NONE', *, *, #80, .T. ) ;
#499 = ORIENTED_EDGE ( 'NONE', *, *, #212, .F. ) ;
#500 = ORIENTED_EDGE ( 'NONE', *, *, #70, .T. ) ;
#501 = ORIENTED_EDGE ( 'NONE', *, *, #81, .F. ) ;
#502 = PRODUCT_DEFINITION_SHAPE ( 'NONE', 'NONE',  #184 ) ;
#503 = DESIGN_CONTEXT ( 'detailed design', #13, 'design' ) ;
#504 = ADVANCED_FACE ( 'NONE', ( #791 ), #4, .T. ) ;
#505 = ADVANCED_FACE ( 'NONE', ( #843 ), #819, .T. ) ;
#506 = ADVANCED_FACE ( 'NONE', ( #832 ), #792, .F. ) ;
#507 = ADVANCED_FACE ( 'NONE', ( #816, #803 ), #310, .F. ) ;
#508 = ADVANCED_FACE ( 'NONE', ( #821 ), #828, .T. ) ;
#509 = ADVANCED_FACE ( 'NONE', ( #844 ), #825, .T. ) ;
#510 = ADVANCED_FACE ( 'NONE', ( #789 ), #823, .T. ) ;
#511 = ADVANCED_FACE ( 'NONE', ( #804 ), #824, .T. ) ;
#512 = ADVANCED_FACE ( 'NONE', ( #826 ), #818, .T. ) ;
#513 = ADVANCED_FACE ( 'NONE', ( #807 ), #316, .T. ) ;
#514 = ADVANCED_FACE ( 'NONE', ( #805 ), #808, .T. ) ;
#515 = ADVANCED_FACE ( 'NONE', ( #806 ), #830, .T. ) ;
#516 = ADVANCED_FACE ( 'NONE', ( #833 ), #840, .T. ) ;
#517 = ADVANCED_FACE ( 'NONE', ( #801 ), #2, .T. ) ;
#518 = ADVANCED_FACE ( 'NONE', ( #831, #835 ), #372, .F. ) ;
#519 = ADVANCED_FACE ( 'NONE', ( #810 ), #829, .T. ) ;
#520 = ADVANCED_FACE ( 'NONE', ( #846, #790 ), #357, .T. ) ;
#521 = ADVANCED_FACE ( 'NONE', ( #838 ), #344, .T. ) ;
#522 = ADVANCED_FACE ( 'NONE', ( #794 ), #834, .T. ) ;
#523 = ADVANCED_FACE ( 'NONE', ( #793 ), #797, .F. ) ;
#524 = ADVANCED_FACE ( 'NONE', ( #788 ), #332, .T. ) ;
#525 = ADVANCED_FACE ( 'NONE', ( #796 ), #802, .T. ) ;
#526 = ADVANCED_FACE ( 'NONE', ( #798 ), #870, .F. ) ;
#527 = ADVANCED_FACE ( 'NONE', ( #787 ), #342, .T. ) ;
#528 = ADVANCED_FACE ( 'NONE', ( #800 ), #7, .T. ) ;
#529 = ADVANCED_FACE ( 'NONE', ( #799 ), #885, .T. ) ;
#530 = ADVANCED_FACE ( 'NONE', ( #889 ), #393, .T. ) ;
#531 = ADVANCED_FACE ( 'NONE', ( #859 ), #392, .T. ) ;
#532 = ADVANCED_FACE ( 'NONE', ( #853 ), #854, .F. ) ;
#533 = ADVANCED_FACE ( 'NONE', ( #879 ), #6, .T. ) ;
#534 = ORIENTED_EDGE ( 'NONE', *, *, #142, .F. ) ;
#535 = ORIENTED_EDGE ( 'NONE', *, *, #91, .F. ) ;
#536 = ORIENTED_EDGE ( 'NONE', *, *, #210, .T. ) ;
#537 = ORIENTED_EDGE ( 'NONE', *, *, #77, .F. ) ;
#538 = ORIENTED_EDGE ( 'NONE', *, *, #79, .F. ) ;
#539 = ORIENTED_EDGE ( 'NONE', *, *, #136, .F. ) ;
#540 = ORIENTED_EDGE ( 'NONE', *, *, #105, .F. ) ;
#541 = ORIENTED_EDGE ( 'NONE', *, *, #212, .T. ) ;
#542 = ORIENTED_EDGE ( 'NONE', *, *, #146, .F. ) ;
#543 = ORIENTED_EDGE ( 'NONE', *, *, #95, .T. ) ;
#544 = ORIENTED_EDGE ( 'NONE', *, *, #78, .F. ) ;
#545 = ORIENTED_EDGE ( 'NONE', *, *, #140, .F. ) ;
#546 = ORIENTED_EDGE ( 'NONE', *, *, #66, .F. ) ;
#547 = ORIENTED_EDGE ( 'NONE', *, *, #113, .F. ) ;
#548 = ORIENTED_EDGE ( 'NONE', *, *, #145, .F. ) ;
#549 = ORIENTED_EDGE ( 'NONE', *, *, #105, .T. ) ;
#550 = ORIENTED_EDGE ( 'NONE', *, *, #226, .T. ) ;
#551 = ORIENTED_EDGE ( 'NONE', *, *, #139, .F. ) ;
#552 = ORIENTED_EDGE ( 'NONE', *, *, #104, .F. ) ;
#553 = ORIENTED_EDGE ( 'NONE', *, *, #64, .F. ) ;
#554 = ORIENTED_EDGE ( 'NONE', *, *, #87, .T. ) ;
#555 = ORIENTED_EDGE ( 'NONE', *, *, #214, .F. ) ;
#556 = ORIENTED_EDGE ( 'NONE', *, *, #144, .T. ) ;
#557 = ORIENTED_EDGE ( 'NONE', *, *, #96, .F. ) ;
#558 = ORIENTED_EDGE ( 'NONE', *, *, #67, .F. ) ;
#559 = ORIENTED_EDGE ( 'NONE', *, *, #228, .F. ) ;
#560 = ORIENTED_EDGE ( 'NONE', *, *, #64, .T. ) ;
#561 = ORIENTED_EDGE ( 'NONE', *, *, #209, .T. ) ;
#562 = ORIENTED_EDGE ( 'NONE', *, *, #74, .F. ) ;
#563 = ORIENTED_EDGE ( 'NONE', *, *, #73, .F. ) ;
#564 = ORIENTED_EDGE ( 'NONE', *, *, #86, .T. ) ;
#565 = ORIENTED_EDGE ( 'NONE', *, *, #90, .T. ) ;
#566 = ORIENTED_EDGE ( 'NONE', *, *, #116, .F. ) ;
#567 = ORIENTED_EDGE ( 'NONE', *, *, #69, .F. ) ;
#568 = ORIENTED_EDGE ( 'NONE', *, *, #69, .T. ) ;
#569 = ORIENTED_EDGE ( 'NONE', *, *, #71, .T. ) ;
#570 = ORIENTED_EDGE ( 'NONE', *, *, #67, .T. ) ;
#571 = ORIENTED_EDGE ( 'NONE', *, *, #80, .F. ) ;
#572 = ORIENTED_EDGE ( 'NONE', *, *, #227, .T. ) ;
#573 = ORIENTED_EDGE ( 'NONE', *, *, #203, .F. ) ;
#574 = ORIENTED_EDGE ( 'NONE', *, *, #142, .T. ) ;
#575 = ORIENTED_EDGE ( 'NONE', *, *, #74, .T. ) ;
#576 = ORIENTED_EDGE ( 'NONE', *, *, #139, .T. ) ;
#577 = ORIENTED_EDGE ( 'NONE', *, *, #68, .T. ) ;
#578 = ORIENTED_EDGE ( 'NONE', *, *, #144, .F. ) ;
#579 = ORIENTED_EDGE ( 'NONE', *, *, #82, .F. ) ;
#580 = ORIENTED_EDGE ( 'NONE', *, *, #71, .F. ) ;
#581 = ORIENTED_EDGE ( 'NONE', *, *, #218, .T. ) ;
#582 = ORIENTED_EDGE ( 'NONE', *, *, #114, .T. ) ;
#583 = ORIENTED_EDGE ( 'NONE', *, *, #113, .T. ) ;
#584 = ORIENTED_EDGE ( 'NONE', *, *, #68, .F. ) ;
#585 = ORIENTED_EDGE ( 'NONE', *, *, #104, .T. ) ;
#586 = ORIENTED_EDGE ( 'NONE', *, *, #204, .F. ) ;
#587 = ORIENTED_EDGE ( 'NONE', *, *, #90, .F. ) ;
#588 = ORIENTED_EDGE ( 'NONE', *, *, #88, .F. ) ;
#589 = ORIENTED_EDGE ( 'NONE', *, *, #216, .T. ) ;
#590 = ORIENTED_EDGE ( 'NONE', *, *, #221, .T. ) ;
#591 = ORIENTED_EDGE ( 'NONE', *, *, #204, .T. ) ;
#592 = ORIENTED_EDGE ( 'NONE', *, *, #77, .T. ) ;
#593 = ORIENTED_EDGE ( 'NONE', *, *, #150, .F. ) ;
#594 = ORIENTED_EDGE ( 'NONE', *, *, #225, .F. ) ;
#595 = ORIENTED_EDGE ( 'NONE', *, *, #220, .T. ) ;
#596 = ORIENTED_EDGE ( 'NONE', *, *, #206, .F. ) ;
#597 = ORIENTED_EDGE ( 'NONE', *, *, #208, .T. ) ;
#598 = EDGE_LOOP ( 'NONE', ( #583, #537, #597, #544, #661, #612, #614, #548 ) ) ;
#599 = EDGE_LOOP ( 'NONE', ( #468, #457, #469, #466 ) ) ;
#600 = ORIENTED_EDGE ( 'NONE', *, *, #146, .T. ) ;
#601 = ORIENTED_EDGE ( 'NONE', *, *, #106, .T. ) ;
#602 = ORIENTED_EDGE ( 'NONE', *, *, #72, .F. ) ;
#603 = ORIENTED_EDGE ( 'NONE', *, *, #75, .F. ) ;
#604 = ORIENTED_EDGE ( 'NONE', *, *, #92, .T. ) ;
#605 = EDGE_LOOP ( 'NONE', ( #239, #250 ) ) ;
#606 = ORIENTED_EDGE ( 'NONE', *, *, #57, .F. ) ;
#607 = EDGE_LOOP ( 'NONE', ( #472, #470, #459, #464 ) ) ;
#608 = EDGE_LOOP ( 'NONE', ( #584, #10, #572, #534 ) ) ;
#609 = EDGE_LOOP ( 'NONE', ( #648, #454, #453, #491 ) ) ;
#610 = EDGE_LOOP ( 'NONE', ( #460, #477, #465, #467 ) ) ;
#611 = EDGE_LOOP ( 'NONE', ( #606, #637, #613, #658 ) ) ;
#612 = ORIENTED_EDGE ( 'NONE', *, *, #120, .F. ) ;
#613 = ORIENTED_EDGE ( 'NONE', *, *, #140, .T. ) ;
#614 = ORIENTED_EDGE ( 'NONE', *, *, #61, .F. ) ;
#615 = ORIENTED_EDGE ( 'NONE', *, *, #114, .F. ) ;
#616 = ORIENTED_EDGE ( 'NONE', *, *, #75, .T. ) ;
#617 = ORIENTED_EDGE ( 'NONE', *, *, #213, .T. ) ;
#618 = ORIENTED_EDGE ( 'NONE', *, *, #65, .T. ) ;
#619 = EDGE_LOOP ( 'NONE', ( #456, #458, #244, #499 ) ) ;
#620 = EDGE_LOOP ( 'NONE', ( #240, #501, #500, #498 ) ) ;
#621 = EDGE_LOOP ( 'NONE', ( #580, #543, #496, #566, #585, #570, #581, #568 ) ) ;
#622 = EDGE_LOOP ( 'NONE', ( #495, #561, #557 ) ) ;
#623 = EDGE_LOOP ( 'NONE', ( #586, #555 ) ) ;
#624 = ORIENTED_EDGE ( 'NONE', *, *, #73, .T. ) ;
#625 = ORIENTED_EDGE ( 'NONE', *, *, #96, .T. ) ;
#626 = ORIENTED_EDGE ( 'NONE', *, *, #76, .F. ) ;
#627 = ORIENTED_EDGE ( 'NONE', *, *, #145, .T. ) ;
#628 = EDGE_LOOP ( 'NONE', ( #256, #559, #541, #591 ) ) ;
#629 = EDGE_LOOP ( 'NONE', ( #258, #249, #238, #243 ) ) ;
#630 = EDGE_LOOP ( 'NONE', ( #656, #617 ) ) ;
#631 = EDGE_LOOP ( 'NONE', ( #594, #558, #587, #550 ) ) ;
#632 = EDGE_LOOP ( 'NONE', ( #492, #487 ) ) ;
#633 = ORIENTED_EDGE ( 'NONE', *, *, #120, .T. ) ;
#634 = EDGE_LOOP ( 'NONE', ( #248, #474 ) ) ;
#635 = EDGE_LOOP ( 'NONE', ( #545, #562, #564, #536 ) ) ;
#636 = ORIENTED_EDGE ( 'NONE', *, *, #91, .T. ) ;
#637 = ORIENTED_EDGE ( 'NONE', *, *, #59, .T. ) ;
#638 = ORIENTED_EDGE ( 'NONE', *, *, #76, .T. ) ;
#639 = ORIENTED_EDGE ( 'NONE', *, *, #116, .T. ) ;
#640 = ORIENTED_EDGE ( 'NONE', *, *, #57, .T. ) ;
#641 = EDGE_LOOP ( 'NONE', ( #602, #604, #651, #618, #615, #640, #638, #616 ) ) ;
#642 = EDGE_LOOP ( 'NONE', ( #247, #471, #461 ) ) ;
#643 = ORIENTED_EDGE ( 'NONE', *, *, #95, .F. ) ;
#644 = EDGE_LOOP ( 'NONE', ( #596, #539, #554, #573 ) ) ;
#645 = EDGE_LOOP ( 'NONE', ( #556, #538, #595, #589, #575, #9, #582, #553 ) ) ;
#646 = EDGE_LOOP ( 'NONE', ( #627, #657, #643, #636 ) ) ;
#647 = ORIENTED_EDGE ( 'NONE', *, *, #65, .F. ) ;
#648 = ORIENTED_EDGE ( 'NONE', *, *, #222, .F. ) ;
#649 = EDGE_LOOP ( 'NONE', ( #547, #535, #569, #576 ) ) ;
#650 = EDGE_LOOP ( 'NONE', ( #490, #488, #494, #452 ) ) ;
#651 = ORIENTED_EDGE ( 'NONE', *, *, #61, .T. ) ;
#652 = EDGE_LOOP ( 'NONE', ( #633, #549, #560, #647 ) ) ;
#653 = EDGE_LOOP ( 'NONE', ( #625, #624, #601, #626 ) ) ;
#654 = ORIENTED_EDGE ( 'NONE', *, *, #150, .T. ) ;
#655 = EDGE_LOOP ( 'NONE', ( #236, #462, #237, #242 ) ) ;
#656 = ORIENTED_EDGE ( 'NONE', *, *, #136, .T. ) ;
#657 = ORIENTED_EDGE ( 'NONE', *, *, #92, .F. ) ;
#658 = ORIENTED_EDGE ( 'NONE', *, *, #60, .T. ) ;
#659 = EDGE_LOOP ( 'NONE', ( #241, #252, #234 ) ) ;
#660 = EDGE_LOOP ( 'NONE', ( #592, #551, #567, #546 ) ) ;
#661 = ORIENTED_EDGE ( 'NONE', *, *, #82, .T. ) ;
#662 = CIRCLE ( 'NONE', #124, 1.000000000000000000 ) ;
#663 = VECTOR ( 'NONE', #917, 1000.000000000000000 ) ;
#664 = LINE ( 'NONE', #915, #674 ) ;
#665 = EDGE_LOOP ( 'NONE', ( #563, #497, #571, #588 ) ) ;
#666 = LINE ( 'NONE', #916, #663 ) ;
#667 = LINE ( 'NONE', #985, #690 ) ;
#668 = LINE ( 'NONE', #970, #689 ) ;
#669 = CIRCLE ( 'NONE', #115, 5.000000000000000900 ) ;
#670 = EDGE_LOOP ( 'NONE', ( #463, #473, #254, #257 ) ) ;
#671 = VECTOR ( 'NONE', #931, 1000.000000000000000 ) ;
#672 = LINE ( 'NONE', #947, #687 ) ;
#673 = VECTOR ( 'NONE', #918, 1000.000000000000000 ) ;
#674 = VECTOR ( 'NONE', #953, 1000.000000000000000 ) ;
#675 = VECTOR ( 'NONE', #978, 1000.000000000000000 ) ;
#676 = VECTOR ( 'NONE', #897, 1000.000000000000000 ) ;
#677 = CIRCLE ( 'NONE', #123, 2.000000000000000000 ) ;
#678 = CIRCLE ( 'NONE', #107, 1.000000000000000000 ) ;
#679 = CIRCLE ( 'NONE', #130, 1.000000000000000000 ) ;
#680 = CIRCLE ( 'NONE', #122, 1.000000000000000000 ) ;
#681 = CIRCLE ( 'NONE', #133, 4.000000000000000900 ) ;
#682 = EDGE_LOOP ( 'NONE', ( #593, #8, #577 ) ) ;
#683 = CIRCLE ( 'NONE', #103, 2.000000000000000000 ) ;
#684 = EDGE_LOOP ( 'NONE', ( #600, #639, #603, #654 ) ) ;
#685 = CIRCLE ( 'NONE', #97, 1.000000000000000000 ) ;
#686 = VECTOR ( 'NONE', #980, 1000.000000000000000 ) ;
#687 = VECTOR ( 'NONE', #910, 1000.000000000000000 ) ;
#688 = CIRCLE ( 'NONE', #118, 2.000000000000000000 ) ;
#689 = VECTOR ( 'NONE', #987, 1000.000000000000000 ) ;
#690 = VECTOR ( 'NONE', #974, 1000.000000000000000 ) ;
#691 = EDGE_LOOP ( 'NONE', ( #251, #475, #245, #455, #478, #476, #253, #246 ) ) ;
#692 = VECTOR ( 'NONE', #949, 1000.000000000000000 ) ;
#693 = LINE ( 'NONE', #983, #709 ) ;
#694 = LINE ( 'NONE', #895, #676 ) ;
#695 = CIRCLE ( 'NONE', #143, 2.000000000000000000 ) ;
#696 = FACE_OUTER_BOUND ( 'NONE', #641, .T. ) ;
#697 = LINE ( 'NONE', #936, #671 ) ;
#698 = LINE ( 'NONE', #919, #686 ) ;
#699 = LINE ( 'NONE', #988, #692 ) ;
#700 = CIRCLE ( 'NONE', #137, 2.600000000000000500 ) ;
#701 = CIRCLE ( 'NONE', #147, 2.000000000000000000 ) ;
#702 = VECTOR ( 'NONE', #933, 1000.000000000000000 ) ;
#703 = EDGE_LOOP ( 'NONE', ( #578, #540, #579, #590 ) ) ;
#704 = FACE_OUTER_BOUND ( 'NONE', #598, .T. ) ;
#705 = EDGE_LOOP ( 'NONE', ( #235, #255 ) ) ;
#706 = CIRCLE ( 'NONE', #135, 2.000000000000000000 ) ;
#707 = LINE ( 'NONE', #956, #715 ) ;
#708 = LINE ( 'NONE', #972, #675 ) ;
#709 = VECTOR ( 'NONE', #960, 1000.000000000000000 ) ;
#710 = EDGE_LOOP ( 'NONE', ( #565, #552, #542, #574 ) ) ;
#711 = LINE ( 'NONE', #899, #723 ) ;
#712 = CIRCLE ( 'NONE', #126, 5.000000000000000900 ) ;
#713 = LINE ( 'NONE', #966, #716 ) ;
#714 = LINE ( 'NONE', #914, #673 ) ;
#715 = VECTOR ( 'NONE', #950, 1000.000000000000000 ) ;
#716 = VECTOR ( 'NONE', #959, 1000.000000000000000 ) ;
#717 = LINE ( 'NONE', #913, #719 ) ;
#718 = LINE ( 'NONE', #944, #702 ) ;
#719 = VECTOR ( 'NONE', #946, 1000.000000000000000 ) ;
#720 = CIRCLE ( 'NONE', #112, 1.000000000000000000 ) ;
#721 = FACE_BOUND ( 'NONE', #630, .T. ) ;
#722 = CIRCLE ( 'NONE', #125, 4.000000000000000900 ) ;
#723 = VECTOR ( 'NONE', #909, 1000.000000000000000 ) ;
#724 = LINE ( 'NONE', #1021, #759 ) ;
#725 = VECTOR ( 'NONE', #1063, 1000.000000000000000 ) ;
#726 = VECTOR ( 'NONE', #1005, 1000.000000000000000 ) ;
#727 = CIRCLE ( 'NONE', #148, 4.500000000000000900 ) ;
#728 = CIRCLE ( 'NONE', #108, 1.000000000000000000 ) ;
#729 = CIRCLE ( 'NONE', #121, 2.000000000000000000 ) ;
#730 = LINE ( 'NONE', #1003, #750 ) ;
#731 = VECTOR ( 'NONE', #1017, 1000.000000000000000 ) ;
#732 = CIRCLE ( 'NONE', #98, 1.000000000000000000 ) ;
#733 = VECTOR ( 'NONE', #1061, 1000.000000000000000 ) ;
#734 = LINE ( 'NONE', #1089, #755 ) ;
#735 = VECTOR ( 'NONE', #1013, 1000.000000000000000 ) ;
#736 = CIRCLE ( 'NONE', #99, 2.600000000000000500 ) ;
#737 = CIRCLE ( 'NONE', #132, 2.000000000000000000 ) ;
#738 = VECTOR ( 'NONE', #969, 1000.000000000000000 ) ;
#739 = VECTOR ( 'NONE', #1024, 1000.000000000000000 ) ;
#740 = VECTOR ( 'NONE', #1016, 1000.000000000000000 ) ;
#741 = VECTOR ( 'NONE', #1066, 1000.000000000000000 ) ;
#742 = LINE ( 'NONE', #1002, #731 ) ;
#743 = LINE ( 'NONE', #1055, #733 ) ;
#744 = LINE ( 'NONE', #967, #738 ) ;
#745 = VECTOR ( 'NONE', #1008, 1000.000000000000000 ) ;
#746 = LINE ( 'NONE', #1023, #739 ) ;
#747 = LINE ( 'NONE', #1004, #726 ) ;
#748 = LINE ( 'NONE', #1031, #751 ) ;
#749 = VECTOR ( 'NONE', #1062, 1000.000000000000000 ) ;
#750 = VECTOR ( 'NONE', #1026, 1000.000000000000000 ) ;
#751 = VECTOR ( 'NONE', #1067, 1000.000000000000000 ) ;
#752 = LINE ( 'NONE', #1042, #753 ) ;
#753 = VECTOR ( 'NONE', #1058, 1000.000000000000000 ) ;
#754 = LINE ( 'NONE', #1101, #767 ) ;
#755 = VECTOR ( 'NONE', #1105, 1000.000000000000000 ) ;
#756 = LINE ( 'NONE', #1012, #763 ) ;
#757 = LINE ( 'NONE', #1065, #749 ) ;
#758 = VECTOR ( 'NONE', #1045, 1000.000000000000000 ) ;
#759 = VECTOR ( 'NONE', #1000, 1000.000000000000000 ) ;
#760 = VECTOR ( 'NONE', #1046, 1000.000000000000000 ) ;
#761 = LINE ( 'NONE', #1051, #758 ) ;
#762 = CIRCLE ( 'NONE', #149, 4.500000000000000900 ) ;
#763 = VECTOR ( 'NONE', #1022, 1000.000000000000000 ) ;
#764 = LINE ( 'NONE', #1050, #741 ) ;
#765 = CIRCLE ( 'NONE', #100, 1.000000000000000900 ) ;
#766 = LINE ( 'NONE', #1088, #771 ) ;
#767 = VECTOR ( 'NONE', #1096, 1000.000000000000000 ) ;
#768 = LINE ( 'NONE', #993, #735 ) ;
#769 = CIRCLE ( 'NONE', #129, 2.000000000000000000 ) ;
#770 = CIRCLE ( 'NONE', #110, 2.000000000000000000 ) ;
#771 = VECTOR ( 'NONE', #1095, 1000.000000000000000 ) ;
#772 = LINE ( 'NONE', #958, #777 ) ;
#773 = LINE ( 'NONE', #989, #740 ) ;
#774 = LINE ( 'NONE', #1064, #760 ) ;
#775 = CIRCLE ( 'NONE', #119, 2.000000000000000000 ) ;
#776 = CIRCLE ( 'NONE', #131, 1.000000000000000000 ) ;
#777 = VECTOR ( 'NONE', #992, 1000.000000000000000 ) ;
#778 = LINE ( 'NONE', #997, #745 ) ;
#779 = LINE ( 'NONE', #1010, #785 ) ;
#780 = CIRCLE ( 'NONE', #109, 2.600000000000000500 ) ;
#781 = CIRCLE ( 'NONE', #128, 2.600000000000000500 ) ;
#782 = LINE ( 'NONE', #1034, #725 ) ;
#783 = CIRCLE ( 'NONE', #127, 2.000000000000000000 ) ;
#784 = CIRCLE ( 'NONE', #138, 2.000000000000000000 ) ;
#785 = VECTOR ( 'NONE', #1018, 1000.000000000000000 ) ;
#786 = FACE_OUTER_BOUND ( 'NONE', #650, .T. ) ;
#787 = FACE_OUTER_BOUND ( 'NONE', #635, .T. ) ;
#788 = FACE_OUTER_BOUND ( 'NONE', #710, .T. ) ;
#789 = FACE_OUTER_BOUND ( 'NONE', #655, .T. ) ;
#790 = FACE_BOUND ( 'NONE', #605, .T. ) ;
#791 = FACE_OUTER_BOUND ( 'NONE', #642, .T. ) ;
#792 = CYLINDRICAL_SURFACE ( 'NONE', #153, 2.600000000000000500 ) ;
#793 = FACE_OUTER_BOUND ( 'NONE', #619, .T. ) ;
#794 = FACE_OUTER_BOUND ( 'NONE', #684, .T. ) ;
#795 = CIRCLE ( 'NONE', #134, 5.000000000000000900 ) ;
#796 = FACE_OUTER_BOUND ( 'NONE', #611, .T. ) ;
#797 = CYLINDRICAL_SURFACE ( 'NONE', #166, 4.500000000000000900 ) ;
#798 = FACE_OUTER_BOUND ( 'NONE', #607, .T. ) ;
#799 = FACE_OUTER_BOUND ( 'NONE', #629, .T. ) ;
#800 = FACE_OUTER_BOUND ( 'NONE', #659, .T. ) ;
#801 = FACE_OUTER_BOUND ( 'NONE', #682, .T. ) ;
#802 = CYLINDRICAL_SURFACE ( 'NONE', #174, 2.000000000000000000 ) ;
#803 = FACE_OUTER_BOUND ( 'NONE', #705, .T. ) ;
#804 = FACE_OUTER_BOUND ( 'NONE', #653, .T. ) ;
#805 = FACE_OUTER_BOUND ( 'NONE', #610, .T. ) ;
#806 = FACE_OUTER_BOUND ( 'NONE', #599, .T. ) ;
#807 = FACE_OUTER_BOUND ( 'NONE', #621, .T. ) ;
#808 = TOROIDAL_SURFACE ( 'NONE', #163, 4.000000000000000900, 1.000000000000000000 ) ;
#809 = CYLINDRICAL_SURFACE ( 'NONE', #179, 5.000000000000000900 ) ;
#810 = FACE_OUTER_BOUND ( 'NONE', #660, .T. ) ;
#811 = LINE ( 'NONE', #1092, #841 ) ;
#812 = CIRCLE ( 'NONE', #151, 4.500000000000000900 ) ;
#813 = CIRCLE ( 'NONE', #101, 4.500000000000000900 ) ;
#814 = CIRCLE ( 'NONE', #141, 2.000000000000000000 ) ;
#815 = CYLINDRICAL_SURFACE ( 'NONE', #156, 1.000000000000000000 ) ;
#816 = FACE_BOUND ( 'NONE', #634, .T. ) ;
#817 = CIRCLE ( 'NONE', #102, 2.000000000000000000 ) ;
#818 = CYLINDRICAL_SURFACE ( 'NONE', #168, 2.000000000000000000 ) ;
#819 = CYLINDRICAL_SURFACE ( 'NONE', #187, 2.000000000000000000 ) ;
#820 = FACE_OUTER_BOUND ( 'NONE', #609, .T. ) ;
#821 = FACE_OUTER_BOUND ( 'NONE', #670, .T. ) ;
#822 = FACE_OUTER_BOUND ( 'NONE', #646, .T. ) ;
#823 = CYLINDRICAL_SURFACE ( 'NONE', #161, 2.000000000000000000 ) ;
#824 = CYLINDRICAL_SURFACE ( 'NONE', #162, 2.000000000000000000 ) ;
#825 = CYLINDRICAL_SURFACE ( 'NONE', #181, 1.000000000000000000 ) ;
#826 = FACE_OUTER_BOUND ( 'NONE', #620, .T. ) ;
#827 = LINE ( 'NONE', #1073, #839 ) ;
#828 = CYLINDRICAL_SURFACE ( 'NONE', #180, 2.000000000000000000 ) ;
#829 = CYLINDRICAL_SURFACE ( 'NONE', #182, 1.000000000000000000 ) ;
#830 = CYLINDRICAL_SURFACE ( 'NONE', #171, 5.000000000000000900 ) ;
#831 = FACE_BOUND ( 'NONE', #623, .T. ) ;
#832 = FACE_OUTER_BOUND ( 'NONE', #644, .T. ) ;
#833 = FACE_OUTER_BOUND ( 'NONE', #631, .T. ) ;
#834 = CYLINDRICAL_SURFACE ( 'NONE', #158, 2.000000000000000000 ) ;
#835 = FACE_OUTER_BOUND ( 'NONE', #665, .T. ) ;
#836 = CIRCLE ( 'NONE', #152, 5.000000000000000900 ) ;
#837 = FACE_OUTER_BOUND ( 'NONE', #632, .T. ) ;
#838 = FACE_OUTER_BOUND ( 'NONE', #649, .T. ) ;
#839 = VECTOR ( 'NONE', #1106, 1000.000000000000000 ) ;
#840 = CYLINDRICAL_SURFACE ( 'NONE', #165, 2.000000000000000000 ) ;
#841 = VECTOR ( 'NONE', #1090, 1000.000000000000000 ) ;
#842 = CIRCLE ( 'NONE', #93, 2.000000000000000000 ) ;
#843 = FACE_OUTER_BOUND ( 'NONE', #608, .T. ) ;
#844 = FACE_OUTER_BOUND ( 'NONE', #652, .T. ) ;
#845 = TOROIDAL_SURFACE ( 'NONE', #111, 4.000000000000000900, 1.000000000000000000 ) ;
#846 = FACE_OUTER_BOUND ( 'NONE', #691, .T. ) ;
#847 = DATE_AND_TIME ( #862, #866 ) ;
#848 = APPROVAL_PERSON_ORGANIZATION ( #858, #185, #37 ) ;
#849 = COORDINATED_UNIVERSAL_TIME_OFFSET ( 1, 0, .AHEAD. ) ;
#850 = APPROVAL_DATE_TIME ( #869, #191 ) ;
#851 = LOCAL_TIME ( 19, 42, 23.00000000000000000, #876 ) ;
#852 = CALENDAR_DATE ( 2017, 29, 5 ) ;
#853 = FACE_OUTER_BOUND ( 'NONE', #628, .T. ) ;
#854 = CYLINDRICAL_SURFACE ( 'NONE', #172, 4.500000000000000900 ) ;
#855 = DATE_AND_TIME ( #852, #851 ) ;
#856 = APPROVAL_DATE_TIME ( #855, #199 ) ;
#857 = APPROVAL_PERSON_ORGANIZATION ( #875, #199, #29 ) ;
#858 = PERSON_AND_ORGANIZATION ( #891, #867 ) ;
#859 = FACE_OUTER_BOUND ( 'NONE', #703, .T. ) ;
#860 = CALENDAR_DATE ( 2017, 29, 5 ) ;
#861 = LOCAL_TIME ( 19, 42, 23.00000000000000000, #849 ) ;
#862 = CALENDAR_DATE ( 2017, 29, 5 ) ;
#863 = CALENDAR_DATE ( 2017, 29, 5 ) ;
#864 = PERSON_AND_ORGANIZATION ( #891, #867 ) ;
#865 = APPROVAL_PERSON_ORGANIZATION ( #881, #191, #24 ) ;
#866 = LOCAL_TIME ( 19, 42, 23.00000000000000000, #883 ) ;
#867 = ORGANIZATION ( 'UNSPECIFIED', 'UNSPECIFIED', '' ) ;
#868 = PERSON_AND_ORGANIZATION ( #891, #867 ) ;
#869 = DATE_AND_TIME ( #863, #861 ) ;
#870 = CYLINDRICAL_SURFACE ( 'NONE', #160, 2.600000000000000500 ) ;
#871 = PERSON_AND_ORGANIZATION ( #891, #867 ) ;
#872 = DATE_AND_TIME ( #860, #880 ) ;
#873 = CALENDAR_DATE ( 2017, 29, 5 ) ;
#874 = DATE_AND_TIME ( #873, #886 ) ;
#875 = PERSON_AND_ORGANIZATION ( #891, #867 ) ;
#876 = COORDINATED_UNIVERSAL_TIME_OFFSET ( 1, 0, .AHEAD. ) ;
#877 = SHAPE_DEFINITION_REPRESENTATION ( #502, #3 ) ;
#878 = APPROVAL_DATE_TIME ( #847, #185 ) ;
#879 = FACE_OUTER_BOUND ( 'NONE', #622, .T. ) ;
#880 = LOCAL_TIME ( 19, 42, 23.00000000000000000, #888 ) ;
#881 = PERSON_AND_ORGANIZATION ( #891, #867 ) ;
#882 = PERSON_AND_ORGANIZATION ( #891, #867 ) ;
#883 = COORDINATED_UNIVERSAL_TIME_OFFSET ( 1, 0, .AHEAD. ) ;
#884 = COORDINATED_UNIVERSAL_TIME_OFFSET ( 1, 0, .AHEAD. ) ;
#885 = CYLINDRICAL_SURFACE ( 'NONE', #186, 1.000000000000000000 ) ;
#886 = LOCAL_TIME ( 19, 42, 23.00000000000000000, #884 ) ;
#887 = PERSON_AND_ORGANIZATION ( #891, #867 ) ;
#888 = COORDINATED_UNIVERSAL_TIME_OFFSET ( 1, 0, .AHEAD. ) ;
#889 = FACE_OUTER_BOUND ( 'NONE', #645, .T. ) ;
#890 = PRODUCT ( 'ALP3550', 'ALP3550', '', ( #21 ) ) ;
#891 = PERSON ( 'UNSPECIFIED', 'UNSPECIFIED', 'UNSPECIFIED', ('UNSPECIFIED'), ('UNSPECIFIED'), ('UNSPECIFIED') ) ;
#892 = CARTESIAN_POINT ( 'NONE',  ( 4.950000000000001100, -15.00000000000000000, 6.499999999999997300 ) ) ;
#893 = CARTESIAN_POINT ( 'NONE',  ( 0.0000000000000000000, -18.00000000000000400, 0.0000000000000000000 ) ) ;
#894 = CARTESIAN_POINT ( 'NONE',  ( 4.000000000000000900, -8.499999999999998200, -8.500000000000000000 ) ) ;
#895 = CARTESIAN_POINT ( 'NONE',  ( 5.500000000000003600, -18.00000000000000400, 7.499999999999997300 ) ) ;
#896 = DIRECTION ( 'NONE',  ( 0.0000000000000000000, -0.0000000000000000000, -1.000000000000000000 ) ) ;
#897 = DIRECTION ( 'NONE',  ( 0.0000000000000000000, 1.000000000000000000, 0.0000000000000000000 ) ) ;
#898 = PLANE ( 'NONE',  #117 ) ;
#899 = CARTESIAN_POINT ( 'NONE',  ( 7.500000000000002700, -18.00000000000000400, 7.499999999999996400 ) ) ;
#900 = DIRECTION ( 'NONE',  ( -1.000000000000000000, 0.0000000000000000000, 0.0000000000000000000 ) ) ;
#901 = CARTESIAN_POINT ( 'NONE',  ( 7.500000000000002700, -18.00000000000000400, 7.499999999999996400 ) ) ;
#902 = DIRECTION ( 'NONE',  ( -1.224646799147353200E-016, 1.000000000000000000, 0.0000000000000000000 ) ) ;
#903 = DIRECTION ( 'NONE',  ( 1.000000000000000000, 0.0000000000000000000, -2.312964634635743000E-016 ) ) ;
#904 = DIRECTION ( 'NONE',  ( 0.0000000000000000000, -1.000000000000000000, 0.0000000000000000000 ) ) ;
#905 = DIRECTION ( 'NONE',  ( 2.312964634635743000E-016, -0.0000000000000000000, 1.000000000000000000 ) ) ;
#906 = PLANE ( 'NONE',  #94 ) ;
#907 = DIRECTION ( 'NONE',  ( 1.000000000000000000, 0.0000000000000000000, 0.0000000000000000000 ) ) ;
#908 = DIRECTION ( 'NONE',  ( 0.0000000000000000000, 0.0000000000000000000, -1.000000000000000000 ) ) ;
#909 = DIRECTION ( 'NONE',  ( 1.000000000000000000, 0.0000000000000000000, -2.312964634635743000E-016 ) ) ;
#910 = DIRECTION ( 'NONE',  ( -1.000000000000000000, -0.0000000000000000000, -0.0000000000000000000 ) ) ;
#911 = DIRECTION ( 'NONE',  ( -1.734723475976807100E-015, 0.0000000000000000000, 1.000000000000000000 ) ) ;
#912 = CARTESIAN_POINT ( 'NONE',  ( 0.0000000000000000000, -8.499999999999998200, -9.500000000000000000 ) ) ;
#913 = CARTESIAN_POINT ( 'NONE',  ( -4.949999999999999300, -15.00000000000000000, 7.499999999999999100 ) ) ;
#914 = CARTESIAN_POINT ( 'NONE',  ( 7.500000000000000000, -15.00000000000000000, 0.0000000000000000000 ) ) ;
#915 = CARTESIAN_POINT ( 'NONE',  ( -5.499999999999999100, -18.00000000000000400, 7.499999999999999100 ) ) ;
#916 = CARTESIAN_POINT ( 'NONE',  ( 1.272130549049658200E-015, 0.0000000000000000000, 5.499999999999999100 ) ) ;
#917 = DIRECTION ( 'NONE',  ( -1.000000000000000000, 0.0000000000000000000, 2.312964634635743000E-016 ) ) ;
#918 = DIRECTION ( 'NONE',  ( -0.0000000000000000000, 0.0000000000000000000, 1.000000000000000000 ) ) ;
#919 = CARTESIAN_POINT ( 'NONE',  ( 0.0000000000000000000, 0.0000000000000000000, -5.500000000000000000 ) ) ;
#920 = DIRECTION ( 'NONE',  ( -0.0000000000000000000, -1.000000000000000000, -0.0000000000000000000 ) ) ;
#921 = CARTESIAN_POINT ( 'NONE',  ( 5.500000000000002700, -1.999999999999998200, 5.499999999999997300 ) ) ;
#922 = DIRECTION ( 'NONE',  ( -1.000000000000000000, 0.0000000000000000000, 0.0000000000000000000 ) ) ;
#923 = CARTESIAN_POINT ( 'NONE',  ( 3.950000000000001100, -15.00000000000000000, 6.499999999999997300 ) ) ;
#924 = DIRECTION ( 'NONE',  ( -0.0000000000000000000, -1.000000000000000000, -0.0000000000000000000 ) ) ;
#925 = DIRECTION ( 'NONE',  ( -0.0000000000000000000, 1.000000000000000000, -0.0000000000000000000 ) ) ;
#926 = DIRECTION ( 'NONE',  ( 0.0000000000000000000, 0.0000000000000000000, 1.000000000000000000 ) ) ;
#927 = CARTESIAN_POINT ( 'NONE',  ( 5.500000000000002700, -15.00000000000000000, 5.499999999999997300 ) ) ;
#928 = CARTESIAN_POINT ( 'NONE',  ( -3.949999999999999700, -15.00000000000000000, -6.500000000000000900 ) ) ;
#929 = DIRECTION ( 'NONE',  ( -1.000000000000000000, 0.0000000000000000000, 0.0000000000000000000 ) ) ;
#930 = CARTESIAN_POINT ( 'NONE',  ( -5.500000000000000000, -15.00000000000000000, -5.500000000000000000 ) ) ;
#931 = DIRECTION ( 'NONE',  ( 0.0000000000000000000, 1.000000000000000000, 0.0000000000000000000 ) ) ;
#932 = DIRECTION ( 'NONE',  ( 0.0000000000000000000, 0.0000000000000000000, 1.000000000000000000 ) ) ;
#933 = DIRECTION ( 'NONE',  ( 0.0000000000000000000, 1.000000000000000000, 0.0000000000000000000 ) ) ;
#934 = DIRECTION ( 'NONE',  ( 0.0000000000000000000, 0.0000000000000000000, -1.000000000000000000 ) ) ;
#935 = DIRECTION ( 'NONE',  ( 0.0000000000000000000, 1.000000000000000000, 0.0000000000000000000 ) ) ;
#936 = CARTESIAN_POINT ( 'NONE',  ( -3.949999999999998800, -18.00000000000000400, -7.500000000000000000 ) ) ;
#937 = CARTESIAN_POINT ( 'NONE',  ( -5.499999999999999100, -1.999999999999997800, 5.500000000000000000 ) ) ;
#938 = DIRECTION ( 'NONE',  ( 0.0000000000000000000, 6.123233995736766000E-017, 1.000000000000000000 ) ) ;
#939 = CARTESIAN_POINT ( 'NONE',  ( 0.0000000000000000000, -8.499999999999998200, -9.500000000000000000 ) ) ;
#940 = DIRECTION ( 'NONE',  ( 0.0000000000000000000, 0.0000000000000000000, -1.000000000000000000 ) ) ;
#941 = DIRECTION ( 'NONE',  ( 0.0000000000000000000, -1.000000000000000000, 0.0000000000000000000 ) ) ;
#942 = DIRECTION ( 'NONE',  ( 0.0000000000000000000, 0.0000000000000000000, -1.000000000000000000 ) ) ;
#943 = DIRECTION ( 'NONE',  ( 1.000000000000000000, 0.0000000000000000000, 0.0000000000000000000 ) ) ;
#944 = CARTESIAN_POINT ( 'NONE',  ( 3.950000000000001100, -18.00000000000000400, 7.499999999999997300 ) ) ;
#945 = DIRECTION ( 'NONE',  ( 0.0000000000000000000, 0.0000000000000000000, -1.000000000000000000 ) ) ;
#946 = DIRECTION ( 'NONE',  ( -0.0000000000000000000, -0.0000000000000000000, -1.000000000000000000 ) ) ;
#947 = CARTESIAN_POINT ( 'NONE',  ( 8.673617379884035500E-016, -15.00000000000000000, 7.499999999999999100 ) ) ;
#948 = CARTESIAN_POINT ( 'NONE',  ( -5.500000000000000000, -2.000000000000000000, -5.500000000000000000 ) ) ;
#949 = DIRECTION ( 'NONE',  ( 0.0000000000000000000, 1.000000000000000000, 0.0000000000000000000 ) ) ;
#950 = DIRECTION ( 'NONE',  ( 0.0000000000000000000, -0.0000000000000000000, -1.000000000000000000 ) ) ;
#951 = DIRECTION ( 'NONE',  ( -0.0000000000000000000, 1.000000000000000000, -0.0000000000000000000 ) ) ;
#952 = DIRECTION ( 'NONE',  ( 0.0000000000000000000, 0.0000000000000000000, -1.000000000000000000 ) ) ;
#953 = DIRECTION ( 'NONE',  ( -0.0000000000000000000, -1.000000000000000000, -0.0000000000000000000 ) ) ;
#954 = CARTESIAN_POINT ( 'NONE',  ( 0.0000000000000000000, -8.499999999999998200, -8.500000000000000000 ) ) ;
#955 = DIRECTION ( 'NONE',  ( -0.0000000000000000000, -1.000000000000000000, -0.0000000000000000000 ) ) ;
#956 = CARTESIAN_POINT ( 'NONE',  ( -5.500000000000000000, 0.0000000000000000000, 0.0000000000000000000 ) ) ;
#957 = DIRECTION ( 'NONE',  ( 1.156482317317871500E-016, 0.0000000000000000000, 1.000000000000000000 ) ) ;
#958 = CARTESIAN_POINT ( 'NONE',  ( -3.949999999999999700, -18.00000000000000400, 7.499999999999999100 ) ) ;
#959 = DIRECTION ( 'NONE',  ( -0.0000000000000000000, -1.000000000000000000, 0.0000000000000000000 ) ) ;
#960 = DIRECTION ( 'NONE',  ( 0.0000000000000000000, 1.000000000000000000, 0.0000000000000000000 ) ) ;
#961 = DIRECTION ( 'NONE',  ( -1.000000000000000000, 0.0000000000000000000, 0.0000000000000000000 ) ) ;
#962 = CARTESIAN_POINT ( 'NONE',  ( 5.500000000000000900, -2.000000000000000000, -5.500000000000000000 ) ) ;
#963 = DIRECTION ( 'NONE',  ( -0.0000000000000000000, -0.0000000000000000000, 1.000000000000000000 ) ) ;
#964 = DIRECTION ( 'NONE',  ( -1.000000000000000000, 0.0000000000000000000, 0.0000000000000000000 ) ) ;
#965 = DIRECTION ( 'NONE',  ( -0.0000000000000000000, 1.000000000000000000, -0.0000000000000000000 ) ) ;
#966 = CARTESIAN_POINT ( 'NONE',  ( -7.500000000000000000, -18.00000000000000400, -5.500000000000000000 ) ) ;
#967 = CARTESIAN_POINT ( 'NONE',  ( -4.950000000000000200, -18.00000000000000400, 6.499999999999999100 ) ) ;
#968 = CARTESIAN_POINT ( 'NONE',  ( 3.950000000000001100, -15.00000000000000000, -6.500000000000000900 ) ) ;
#969 = DIRECTION ( 'NONE',  ( 0.0000000000000000000, -1.000000000000000000, 0.0000000000000000000 ) ) ;
#970 = CARTESIAN_POINT ( 'NONE',  ( 7.500000000000000000, -1.999999999999998200, -7.500000000000000000 ) ) ;
#971 = DIRECTION ( 'NONE',  ( -0.0000000000000000000, -0.0000000000000000000, 1.000000000000000000 ) ) ;
#972 = CARTESIAN_POINT ( 'NONE',  ( 7.500000000000002700, -1.999999999999998200, 7.499999999999996400 ) ) ;
#973 = CARTESIAN_POINT ( 'NONE',  ( 0.0000000000000000000, -8.499999999999998200, -8.500000000000000000 ) ) ;
#974 = DIRECTION ( 'NONE',  ( -0.0000000000000000000, 0.0000000000000000000, 1.000000000000000000 ) ) ;
#975 = CARTESIAN_POINT ( 'NONE',  ( 0.0000000000000000000, -9.000000000000001800, 0.0000000000000000000 ) ) ;
#976 = DIRECTION ( 'NONE',  ( 0.0000000000000000000, 0.0000000000000000000, 1.000000000000000000 ) ) ;
#977 = CARTESIAN_POINT ( 'NONE',  ( -3.949999999999999700, -18.00000000000000400, -6.500000000000000900 ) ) ;
#978 = DIRECTION ( 'NONE',  ( -1.000000000000000000, -0.0000000000000000000, 2.312964634635743000E-016 ) ) ;
#979 = DIRECTION ( 'NONE',  ( 0.0000000000000000000, 0.0000000000000000000, -1.000000000000000000 ) ) ;
#980 = DIRECTION ( 'NONE',  ( 1.000000000000000000, 0.0000000000000000000, 0.0000000000000000000 ) ) ;
#981 = CARTESIAN_POINT ( 'NONE',  ( 3.950000000000001100, -18.00000000000000400, -6.500000000000000900 ) ) ;
#982 = DIRECTION ( 'NONE',  ( 0.0000000000000000000, -1.000000000000000000, 0.0000000000000000000 ) ) ;
#983 = CARTESIAN_POINT ( 'NONE',  ( 7.500000000000000000, -18.00000000000000400, -5.500000000000000000 ) ) ;
#984 = DIRECTION ( 'NONE',  ( 1.000000000000000000, 0.0000000000000000000, 0.0000000000000000000 ) ) ;
#985 = CARTESIAN_POINT ( 'NONE',  ( 4.950000000000001100, -18.00000000000000400, 0.0000000000000000000 ) ) ;
#986 = DIRECTION ( 'NONE',  ( 0.0000000000000000000, 0.0000000000000000000, -1.000000000000000000 ) ) ;
#987 = DIRECTION ( 'NONE',  ( 1.000000000000000000, -0.0000000000000000000, 0.0000000000000000000 ) ) ;
#988 = CARTESIAN_POINT ( 'NONE',  ( 0.0000000000000000000, -18.00000000000000400, 2.600000000000000500 ) ) ;
#989 = CARTESIAN_POINT ( 'NONE',  ( -7.499999999999999100, -18.00000000000000400, 5.500000000000000000 ) ) ;
#990 = CARTESIAN_POINT ( 'NONE',  ( -3.950000000000000200, -18.00000000000000400, 6.499999999999999100 ) ) ;
#991 = CARTESIAN_POINT ( 'NONE',  ( 5.500000000000002700, -2.000000000000000000, 5.499999999999997300 ) ) ;
#992 = DIRECTION ( 'NONE',  ( -0.0000000000000000000, -1.000000000000000000, -0.0000000000000000000 ) ) ;
#993 = CARTESIAN_POINT ( 'NONE',  ( 8.673617379884035500E-016, -15.00000000000000000, 7.499999999999997300 ) ) ;
#994 = CARTESIAN_POINT ( 'NONE',  ( 0.0000000000000000000, -18.00000000000000400, 0.0000000000000000000 ) ) ;
#995 = DIRECTION ( 'NONE',  ( -1.000000000000000000, 0.0000000000000000000, 2.312964634635743000E-016 ) ) ;
#996 = DIRECTION ( 'NONE',  ( 0.0000000000000000000, 0.0000000000000000000, -1.000000000000000000 ) ) ;
#997 = CARTESIAN_POINT ( 'NONE',  ( -7.499999999999999100, -15.00000000000000000, 0.0000000000000000000 ) ) ;
#998 = DIRECTION ( 'NONE',  ( -0.0000000000000000000, 1.000000000000000000, -0.0000000000000000000 ) ) ;
#999 = CARTESIAN_POINT ( 'NONE',  ( -3.950000000000000200, -15.00000000000000000, 6.499999999999999100 ) ) ;
#1000 = DIRECTION ( 'NONE',  ( 0.0000000000000000000, -0.0000000000000000000, -1.000000000000000000 ) ) ;
#1001 = DIRECTION ( 'NONE',  ( 0.0000000000000000000, 0.0000000000000000000, 1.000000000000000000 ) ) ;
#1002 = CARTESIAN_POINT ( 'NONE',  ( 4.950000000000001100, -15.00000000000000000, 0.0000000000000000000 ) ) ;
#1003 = CARTESIAN_POINT ( 'NONE',  ( -7.500000000000000000, -1.999999999999998200, -7.500000000000000000 ) ) ;
#1004 = CARTESIAN_POINT ( 'NONE',  ( 5.000000000000000900, -8.499999999999998200, -9.500000000000000000 ) ) ;
#1005 = DIRECTION ( 'NONE',  ( -0.0000000000000000000, -0.0000000000000000000, 1.000000000000000000 ) ) ;
#1006 = DIRECTION ( 'NONE',  ( 0.0000000000000000000, 1.000000000000000000, 0.0000000000000000000 ) ) ;
#1007 = DIRECTION ( 'NONE',  ( 0.0000000000000000000, 0.0000000000000000000, 1.000000000000000000 ) ) ;
#1008 = DIRECTION ( 'NONE',  ( 0.0000000000000000000, -0.0000000000000000000, -1.000000000000000000 ) ) ;
#1009 = DIRECTION ( 'NONE',  ( 1.000000000000000000, -0.0000000000000000000, -2.312964634635743000E-016 ) ) ;
#1010 = CARTESIAN_POINT ( 'NONE',  ( 4.950000000000001100, -15.00000000000000000, 6.499999999999997300 ) ) ;
#1011 = DIRECTION ( 'NONE',  ( 4.336808689942017700E-016, 0.0000000000000000000, 1.000000000000000000 ) ) ;
#1012 = CARTESIAN_POINT ( 'NONE',  ( -4.949999999999999300, -15.00000000000000000, -6.500000000000000000 ) ) ;
#1013 = DIRECTION ( 'NONE',  ( -1.000000000000000000, -0.0000000000000000000, -0.0000000000000000000 ) ) ;
#1014 = DIRECTION ( 'NONE',  ( 0.0000000000000000000, 1.000000000000000000, 0.0000000000000000000 ) ) ;
#1015 = DIRECTION ( 'NONE',  ( 0.0000000000000000000, 0.0000000000000000000, -1.000000000000000000 ) ) ;
#1016 = DIRECTION ( 'NONE',  ( -0.0000000000000000000, -1.000000000000000000, -0.0000000000000000000 ) ) ;
#1017 = DIRECTION ( 'NONE',  ( 0.0000000000000000000, -0.0000000000000000000, -1.000000000000000000 ) ) ;
#1018 = DIRECTION ( 'NONE',  ( -0.0000000000000000000, 1.000000000000000000, -0.0000000000000000000 ) ) ;
#1019 = DIRECTION ( 'NONE',  ( -0.0000000000000000000, 1.000000000000000000, -0.0000000000000000000 ) ) ;
#1020 = CARTESIAN_POINT ( 'NONE',  ( -5.499999999999999100, -15.00000000000000000, 5.500000000000000000 ) ) ;
#1021 = CARTESIAN_POINT ( 'NONE',  ( -4.949999999999999300, -18.00000000000000400, 0.0000000000000000000 ) ) ;
#1022 = DIRECTION ( 'NONE',  ( -0.0000000000000000000, -1.000000000000000000, 0.0000000000000000000 ) ) ;
#1023 = CARTESIAN_POINT ( 'NONE',  ( 7.500000000000002700, -18.00000000000000400, 5.499999999999998200 ) ) ;
#1024 = DIRECTION ( 'NONE',  ( 0.0000000000000000000, 1.000000000000000000, 0.0000000000000000000 ) ) ;
#1025 = CARTESIAN_POINT ( 'NONE',  ( -5.500000000000000000, -2.000000000000000000, 5.499999999999999100 ) ) ;
#1026 = DIRECTION ( 'NONE',  ( -5.782411586589357400E-017, -0.0000000000000000000, -1.000000000000000000 ) ) ;
#1027 = DIRECTION ( 'NONE',  ( 4.336808689942017700E-016, -1.734723475976807100E-015, 1.000000000000000000 ) ) ;
#1028 = DIRECTION ( 'NONE',  ( -0.0000000000000000000, 1.000000000000000000, -0.0000000000000000000 ) ) ;
#1029 = CARTESIAN_POINT ( 'NONE',  ( 3.950000000000001100, -18.00000000000000400, 6.499999999999997300 ) ) ;
#1030 = DIRECTION ( 'NONE',  ( 0.0000000000000000000, 0.0000000000000000000, 1.000000000000000000 ) ) ;
#1031 = CARTESIAN_POINT ( 'NONE',  ( 7.500000000000000000, -1.999999999999998200, -7.500000000000000000 ) ) ;
#1032 = CARTESIAN_POINT ( 'NONE',  ( -5.499999999999999100, -1.999999999999998200, 5.500000000000000000 ) ) ;
#1033 = DIRECTION ( 'NONE',  ( 0.0000000000000000000, 1.000000000000000000, 0.0000000000000000000 ) ) ;
#1034 = CARTESIAN_POINT ( 'NONE',  ( 5.510910596163089600E-016, -27.72792206135785200, -4.500000000000000900 ) ) ;
#1035 = DIRECTION ( 'NONE',  ( 1.000000000000000000, 0.0000000000000000000, 0.0000000000000000000 ) ) ;
#1036 = CARTESIAN_POINT ( 'NONE',  ( 0.0000000000000000000, 0.0000000000000000000, 0.0000000000000000000 ) ) ;
#1037 = DIRECTION ( 'NONE',  ( 0.0000000000000000000, 0.0000000000000000000, 1.000000000000000000 ) ) ;
#1038 = DIRECTION ( 'NONE',  ( 0.0000000000000000000, 1.000000000000000000, 0.0000000000000000000 ) ) ;
#1039 = CARTESIAN_POINT ( 'NONE',  ( 0.0000000000000000000, -18.00000000000000400, 0.0000000000000000000 ) ) ;
#1040 = DIRECTION ( 'NONE',  ( 0.0000000000000000000, 0.0000000000000000000, -1.000000000000000000 ) ) ;
#1041 = DIRECTION ( 'NONE',  ( -0.0000000000000000000, -1.000000000000000000, -0.0000000000000000000 ) ) ;
#1042 = CARTESIAN_POINT ( 'NONE',  ( 3.950000000000001100, -18.00000000000000400, -7.500000000000000000 ) ) ;
#1043 = CARTESIAN_POINT ( 'NONE',  ( 0.0000000000000000000, 0.0000000000000000000, 0.0000000000000000000 ) ) ;
#1044 = CARTESIAN_POINT ( 'NONE',  ( 0.0000000000000000000, -9.000000000000001800, 0.0000000000000000000 ) ) ;
#1045 = DIRECTION ( 'NONE',  ( 0.0000000000000000000, 1.000000000000000000, 0.0000000000000000000 ) ) ;
#1046 = DIRECTION ( 'NONE',  ( -0.0000000000000000000, 0.0000000000000000000, 1.000000000000000000 ) ) ;
#1047 = DIRECTION ( 'NONE',  ( -0.0000000000000000000, -1.000000000000000000, -0.0000000000000000000 ) ) ;
#1048 = CARTESIAN_POINT ( 'NONE',  ( 5.500000000000000000, -1.999999999999998200, -5.500000000000000000 ) ) ;
#1049 = DIRECTION ( 'NONE',  ( -0.0000000000000000000, -1.000000000000000000, -0.0000000000000000000 ) ) ;
#1050 = CARTESIAN_POINT ( 'NONE',  ( 0.0000000000000000000, -18.00000000000000400, -7.500000000000000000 ) ) ;
#1051 = CARTESIAN_POINT ( 'NONE',  ( 0.0000000000000000000, -27.72792206135785200, 4.500000000000000900 ) ) ;
#1052 = DIRECTION ( 'NONE',  ( 0.0000000000000000000, -2.453253694280212700E-011, 1.000000000000000000 ) ) ;
#1053 = DIRECTION ( 'NONE',  ( 0.0000000000000000000, 1.000000000000000000, 0.0000000000000000000 ) ) ;
#1054 = DIRECTION ( 'NONE',  ( 0.0000000000000000000, 0.0000000000000000000, 1.000000000000000000 ) ) ;
#1055 = CARTESIAN_POINT ( 'NONE',  ( 3.184081677783118700E-016, -18.00000000000000400, -2.600000000000000500 ) ) ;
#1056 = CARTESIAN_POINT ( 'NONE',  ( 5.500000000000002700, -1.999999999999998700, 5.499999999999998200 ) ) ;
#1057 = DIRECTION ( 'NONE',  ( 0.0000000000000000000, 0.0000000000000000000, 1.000000000000000000 ) ) ;
#1058 = DIRECTION ( 'NONE',  ( -0.0000000000000000000, -1.000000000000000000, -0.0000000000000000000 ) ) ;
#1059 = DIRECTION ( 'NONE',  ( 0.0000000000000000000, 0.0000000000000000000, 1.000000000000000000 ) ) ;
#1060 = CARTESIAN_POINT ( 'NONE',  ( -3.949999999999998800, -18.00000000000000400, -7.500000000000000000 ) ) ;
#1061 = DIRECTION ( 'NONE',  ( 0.0000000000000000000, 1.000000000000000000, 0.0000000000000000000 ) ) ;
#1062 = DIRECTION ( 'NONE',  ( -0.0000000000000000000, -1.000000000000000000, -0.0000000000000000000 ) ) ;
#1063 = DIRECTION ( 'NONE',  ( 0.0000000000000000000, 1.000000000000000000, 0.0000000000000000000 ) ) ;
#1064 = CARTESIAN_POINT ( 'NONE',  ( 5.500000000000000000, 0.0000000000000000000, 0.0000000000000000000 ) ) ;
#1065 = CARTESIAN_POINT ( 'NONE',  ( 5.500000000000000000, -18.00000000000000400, -7.500000000000000000 ) ) ;
#1066 = DIRECTION ( 'NONE',  ( 1.000000000000000000, 0.0000000000000000000, 0.0000000000000000000 ) ) ;
#1067 = DIRECTION ( 'NONE',  ( 1.156482317317871500E-016, -0.0000000000000000000, 1.000000000000000000 ) ) ;
#1068 = DIRECTION ( 'NONE',  ( 0.0000000000000000000, 0.0000000000000000000, 1.000000000000000000 ) ) ;
#1069 = CARTESIAN_POINT ( 'NONE',  ( 0.0000000000000000000, -9.000000000000001800, 0.0000000000000000000 ) ) ;
#1070 = DIRECTION ( 'NONE',  ( 5.782411586589357400E-017, -0.0000000000000000000, 1.000000000000000000 ) ) ;
#1071 = DIRECTION ( 'NONE',  ( 0.0000000000000000000, 0.0000000000000000000, -1.000000000000000000 ) ) ;
#1072 = DIRECTION ( 'NONE',  ( -1.000000000000000000, 0.0000000000000000000, 0.0000000000000000000 ) ) ;
#1073 = CARTESIAN_POINT ( 'NONE',  ( -5.000000000000000900, -8.499999999999998200, -9.500000000000000000 ) ) ;
#1074 = CARTESIAN_POINT ( 'NONE',  ( -5.500000000000000000, -1.999999999999998200, -5.500000000000000000 ) ) ;
#1075 = DIRECTION ( 'NONE',  ( 0.0000000000000000000, 0.0000000000000000000, 1.000000000000000000 ) ) ;
#1076 = CARTESIAN_POINT ( 'NONE',  ( 0.0000000000000000000, -8.499999999999998200, -7.500000000000000000 ) ) ;
#1077 = CARTESIAN_POINT ( 'NONE',  ( 5.500000000000000000, -2.000000000000000000, -5.500000000000000000 ) ) ;
#1078 = DIRECTION ( 'NONE',  ( -1.000000000000000000, -0.0000000000000000000, -0.0000000000000000000 ) ) ;
#1079 = DIRECTION ( 'NONE',  ( 0.0000000000000000000, 0.0000000000000000000, 1.000000000000000000 ) ) ;
#1080 = DIRECTION ( 'NONE',  ( 0.0000000000000000000, 0.0000000000000000000, -1.000000000000000000 ) ) ;
#1081 = CARTESIAN_POINT ( 'NONE',  ( -5.500000000000000000, -2.000000000000000000, -5.500000000000000000 ) ) ;
#1082 = CARTESIAN_POINT ( 'NONE',  ( -4.000000000000000900, -8.499999999999998200, -8.500000000000000000 ) ) ;
#1083 = DIRECTION ( 'NONE',  ( -0.0000000000000000000, -1.000000000000000000, -0.0000000000000000000 ) ) ;
#1084 = DIRECTION ( 'NONE',  ( 0.0000000000000000000, 0.0000000000000000000, -1.000000000000000000 ) ) ;
#1085 = CARTESIAN_POINT ( 'NONE',  ( 0.0000000000000000000, -8.499999999999998200, -7.500000000000000000 ) ) ;
#1086 = DIRECTION ( 'NONE',  ( -0.0000000000000000000, -1.000000000000000000, -0.0000000000000000000 ) ) ;
#1087 = DIRECTION ( 'NONE',  ( 0.0000000000000000000, 0.0000000000000000000, 1.000000000000000000 ) ) ;
#1088 = CARTESIAN_POINT ( 'NONE',  ( 8.673617379884035500E-016, -15.00000000000000000, -7.500000000000000000 ) ) ;
#1089 = CARTESIAN_POINT ( 'NONE',  ( 4.950000000000001100, -15.00000000000000000, -6.500000000000000000 ) ) ;
#1090 = DIRECTION ( 'NONE',  ( 0.0000000000000000000, 1.000000000000000000, 0.0000000000000000000 ) ) ;
#1091 = DIRECTION ( 'NONE',  ( 0.0000000000000000000, 1.000000000000000000, 0.0000000000000000000 ) ) ;
#1092 = CARTESIAN_POINT ( 'NONE',  ( -5.500000000000000000, -18.00000000000000400, -7.500000000000000000 ) ) ;
#1093 = DIRECTION ( 'NONE',  ( -1.000000000000000000, 8.673617379884035500E-016, 0.0000000000000000000 ) ) ;
#1094 = CARTESIAN_POINT ( 'NONE',  ( 0.0000000000000000000, -8.499999999999998200, -9.500000000000000000 ) ) ;
#1095 = DIRECTION ( 'NONE',  ( 1.000000000000000000, 0.0000000000000000000, 0.0000000000000000000 ) ) ;
#1096 = DIRECTION ( 'NONE',  ( 1.000000000000000000, 0.0000000000000000000, 0.0000000000000000000 ) ) ;
#1097 = DIRECTION ( 'NONE',  ( -1.000000000000000000, 0.0000000000000000000, 0.0000000000000000000 ) ) ;
#1098 = DIRECTION ( 'NONE',  ( -0.0000000000000000000, -0.0000000000000000000, 1.000000000000000000 ) ) ;
#1099 = CARTESIAN_POINT ( 'NONE',  ( 0.0000000000000000000, -9.000000000000001800, 0.0000000000000000000 ) ) ;
#1100 = DIRECTION ( 'NONE',  ( 0.0000000000000000000, 0.0000000000000000000, 1.000000000000000000 ) ) ;
#1101 = CARTESIAN_POINT ( 'NONE',  ( 8.673617379884035500E-016, -15.00000000000000000, -7.500000000000000000 ) ) ;
#1102 = DIRECTION ( 'NONE',  ( 1.000000000000000000, 0.0000000000000000000, 0.0000000000000000000 ) ) ;
#1103 = CARTESIAN_POINT ( 'NONE',  ( 5.500000000000000000, -1.999999999999998700, -7.500000000000000000 ) ) ;
#1104 = DIRECTION ( 'NONE',  ( 0.0000000000000000000, 8.673617379884035500E-016, -1.000000000000000000 ) ) ;
#1105 = DIRECTION ( 'NONE',  ( 0.0000000000000000000, 1.000000000000000000, 0.0000000000000000000 ) ) ;
#1106 = DIRECTION ( 'NONE',  ( -0.0000000000000000000, -0.0000000000000000000, 1.000000000000000000 ) ) ;
#1107 = CARTESIAN_POINT ( 'NONE',  ( 5.500000000000000000, -15.00000000000000000, -5.500000000000000000 ) ) ;
#1108 = DIRECTION ( 'NONE',  ( 0.0000000000000000000, 1.000000000000000000, 0.0000000000000000000 ) ) ;
#1109 = DIRECTION ( 'NONE',  ( -0.0000000000000000000, -1.000000000000000000, -0.0000000000000000000 ) ) ;
#1110 = CARTESIAN_POINT ( 'NONE',  ( -3.950000000000000200, -18.00000000000000400, 6.499999999999999100 ) ) ;
#1111 = CARTESIAN_POINT ( 'NONE',  ( 4.000000000000000900, -8.499999999999998200, -9.500000000000000000 ) ) ;
#1112 = CARTESIAN_POINT ( 'NONE',  ( -5.000000000000000900, -8.499999999999998200, -8.500000000000000000 ) ) ;
#1113 = DIRECTION ( 'NONE',  ( 0.0000000000000000000, 0.0000000000000000000, -1.000000000000000000 ) ) ;
#1114 = CARTESIAN_POINT ( 'NONE',  ( 0.0000000000000000000, -9.000000000000001800, 4.500000000000000900 ) ) ;
#1115 = CARTESIAN_POINT ( 'NONE',  ( -4.949999999999999300, -18.00000000000000400, 6.499999999999999100 ) ) ;
#1116 = CARTESIAN_POINT ( 'NONE',  ( 0.0000000000000000000, -18.00000000000000400, 2.600000000000000500 ) ) ;
#1117 = DIRECTION ( 'NONE',  ( 0.0000000000000000000, 0.0000000000000000000, -1.000000000000000000 ) ) ;
#1118 = CARTESIAN_POINT ( 'NONE',  ( 3.950000000000001100, -18.00000000000000400, -7.500000000000000000 ) ) ;
#1119 = CARTESIAN_POINT ( 'NONE',  ( -7.499999999999999100, -1.999999999999998200, 5.500000000000000000 ) ) ;
#1120 = CARTESIAN_POINT ( 'NONE',  ( 5.000000000000000900, -8.499999999999998200, -7.500000000000000000 ) ) ;
#1121 = PLANE ( 'NONE',  #157 ) ;
#1122 = CARTESIAN_POINT ( 'NONE',  ( 0.0000000000000000000, -8.499999999999998200, -9.500000000000000000 ) ) ;
#1123 = DIRECTION ( 'NONE',  ( 0.0000000000000000000, 0.0000000000000000000, -1.000000000000000000 ) ) ;
#1124 = CARTESIAN_POINT ( 'NONE',  ( -4.949999999999999300, -18.00000000000000400, -6.500000000000000900 ) ) ;
#1125 = CARTESIAN_POINT ( 'NONE',  ( -5.499999999999999100, -15.00000000000000000, 7.499999999999999100 ) ) ;
#1126 = CARTESIAN_POINT ( 'NONE',  ( -3.950000000000000200, -18.00000000000000400, 7.499999999999999100 ) ) ;
#1127 = CARTESIAN_POINT ( 'NONE',  ( -5.500000000000000000, 0.0000000000000000000, -5.500000000000000000 ) ) ;
#1128 = CARTESIAN_POINT ( 'NONE',  ( -4.000000000000000900, -8.499999999999998200, -9.500000000000000000 ) ) ;
#1129 = CARTESIAN_POINT ( 'NONE',  ( 5.500000000000002700, -1.999999999999998200, 7.499999999999996400 ) ) ;
#1130 = CARTESIAN_POINT ( 'NONE',  ( -5.000000000000000900, -8.499999999999998200, -7.500000000000000000 ) ) ;
#1131 = CARTESIAN_POINT ( 'NONE',  ( -7.500000000000000000, -15.00000000000000000, -5.500000000000000000 ) ) ;
#1132 = CARTESIAN_POINT ( 'NONE',  ( 3.184081677783118700E-016, -18.00000000000000400, -2.600000000000000500 ) ) ;
#1133 = DIRECTION ( 'NONE',  ( -1.000000000000000000, 0.0000000000000000000, -0.0000000000000000000 ) ) ;
#1134 = CARTESIAN_POINT ( 'NONE',  ( 0.0000000000000000000, -8.499999999999998200, -8.500000000000000000 ) ) ;
#1135 = DIRECTION ( 'NONE',  ( -1.000000000000000000, 0.0000000000000000000, 0.0000000000000000000 ) ) ;
#1136 = CARTESIAN_POINT ( 'NONE',  ( 5.510910596163089600E-016, 0.0000000000000000000, -4.500000000000000900 ) ) ;
#1137 = CARTESIAN_POINT ( 'NONE',  ( 3.950000000000001100, -18.00000000000000400, 7.499999999999997300 ) ) ;
#1138 = CARTESIAN_POINT ( 'NONE',  ( -7.500000000000000000, -1.999999999999998700, -5.500000000000000000 ) ) ;
#1139 = DIRECTION ( 'NONE',  ( 0.0000000000000000000, -1.000000000000000000, 0.0000000000000000000 ) ) ;
#1140 = CARTESIAN_POINT ( 'NONE',  ( -3.950000000000000200, -15.00000000000000000, 7.499999999999999100 ) ) ;
#1141 = CARTESIAN_POINT ( 'NONE',  ( 3.950000000000001100, -15.00000000000000000, -7.500000000000000000 ) ) ;
#1142 = CARTESIAN_POINT ( 'NONE',  ( 3.184081677783118700E-016, -9.000000000000001800, -2.600000000000000500 ) ) ;
#1143 = CARTESIAN_POINT ( 'NONE',  ( 5.510910596163089600E-016, -9.000000000000001800, -4.500000000000000900 ) ) ;
#1144 = CARTESIAN_POINT ( 'NONE',  ( 5.500000000000000900, 4.336808689942017700E-016, 5.500000000020442300 ) ) ;
#1145 = CARTESIAN_POINT ( 'NONE',  ( 5.500000000000000000, 0.0000000000000000000, -5.500000000000000000 ) ) ;
#1146 = CARTESIAN_POINT ( 'NONE',  ( 4.950000000000001100, -18.00000000000000400, 6.499999999999997300 ) ) ;
#1147 = CARTESIAN_POINT ( 'NONE',  ( 0.0000000000000000000, 0.0000000000000000000, 4.500000000000000900 ) ) ;
ENDSEC;
END-ISO-10303-21;
