ISO-10303-21;
HEADER;
FILE_DESCRIPTION (( 'STEP AP203' ),
    '1' );
FILE_NAME ('ALP3540.STEP',
    '2017-03-03T16:20:42',
    ( '' ),
    ( '' ),
    'SwSTEP 2.0',
    'SolidWorks 2012',
    '' );
FILE_SCHEMA (( 'CONFIG_CONTROL_DESIGN' ));
ENDSEC;

DATA;
#1 = EDGE_CURVE ( 'NONE', #483, #432, #650, .T. ) ;
#2 = EDGE_CURVE ( 'NONE', #484, #475, #659, .T. ) ;
#3 = EDGE_CURVE ( 'NONE', #487, #452, #662, .T. ) ;
#4 = EDGE_CURVE ( 'NONE', #471, #483, #709, .T. ) ;
#5 = EDGE_CURVE ( 'NONE', #473, #451, #711, .T. ) ;
#6 = EDGE_CURVE ( 'NONE', #428, #467, #718, .T. ) ;
#7 = EDGE_CURVE ( 'NONE', #455, #486, #717, .T. ) ;
#8 = EDGE_CURVE ( 'NONE', #446, #477, #712, .T. ) ;
#9 = EDGE_CURVE ( 'NONE', #433, #444, #715, .T. ) ;
#10 = EDGE_CURVE ( 'NONE', #478, #425, #713, .T. ) ;
#11 = EDGE_CURVE ( 'NONE', #492, #493, #722, .T. ) ;
#12 = EDGE_CURVE ( 'NONE', #492, #500, #256, .T. ) ;
#13 = EDGE_CURVE ( 'NONE', #490, #488, #238, .T. ) ;
#14 = EDGE_CURVE ( 'NONE', #477, #453, #240, .T. ) ;
#15 = EDGE_CURVE ( 'NONE', #444, #431, #237, .T. ) ;
#16 = EDGE_CURVE ( 'NONE', #486, #457, #257, .T. ) ;
#17 = EDGE_CURVE ( 'NONE', #472, #471, #207, .T. ) ;
#18 = EDGE_CURVE ( 'NONE', #455, #453, #212, .T. ) ;
#19 = EDGE_CURVE ( 'NONE', #474, #437, #232, .T. ) ;
#20 = EDGE_CURVE ( 'NONE', #487, #437, #216, .T. ) ;
#21 = EDGE_CURVE ( 'NONE', #435, #459, #235, .T. ) ;
#22 = EDGE_CURVE ( 'NONE', #476, #432, #227, .T. ) ;
#23 = EDGE_CURVE ( 'NONE', #489, #454, #236, .T. ) ;
#24 = EDGE_CURVE ( 'NONE', #458, #464, #202, .T. ) ;
#25 = EDGE_CURVE ( 'NONE', #482, #472, #253, .T. ) ;
#26 = EDGE_CURVE ( 'NONE', #467, #458, #263, .T. ) ;
#27 = EDGE_CURVE ( 'NONE', #449, #484, #211, .T. ) ;
#28 = EDGE_CURVE ( 'NONE', #458, #447, #239, .T. ) ;
#29 = EDGE_CURVE ( 'NONE', #483, #490, #254, .T. ) ;
#30 = EDGE_CURVE ( 'NONE', #479, #436, #255, .T. ) ;
#31 = EDGE_CURVE ( 'NONE', #462, #489, #213, .T. ) ;
#32 = EDGE_CURVE ( 'NONE', #464, #445, #259, .T. ) ;
#33 = EDGE_CURVE ( 'NONE', #428, #430, #224, .T. ) ;
#34 = EDGE_CURVE ( 'NONE', #430, #476, #220, .T. ) ;
#35 = EDGE_CURVE ( 'NONE', #469, #496, #214, .T. ) ;
#36 = EDGE_CURVE ( 'NONE', #493, #468, #250, .T. ) ;
#37 = EDGE_CURVE ( 'NONE', #459, #464, #217, .T. ) ;
#38 = EDGE_CURVE ( 'NONE', #433, #427, #225, .T. ) ;
#39 = EDGE_CURVE ( 'NONE', #480, #426, #204, .T. ) ;
#40 = EDGE_CURVE ( 'NONE', #488, #431, #260, .T. ) ;
#41 = EDGE_CURVE ( 'NONE', #451, #433, #203, .T. ) ;
#42 = EDGE_CURVE ( 'NONE', #450, #474, #226, .T. ) ;
#43 = EDGE_CURVE ( 'NONE', #475, #478, #229, .T. ) ;
#44 = EDGE_CURVE ( 'NONE', #432, #488, #303, .T. ) ;
#45 = EDGE_CURVE ( 'NONE', #444, #492, #313, .T. ) ;
#46 = EDGE_CURVE ( 'NONE', #467, #476, #291, .T. ) ;
#47 = EDGE_CURVE ( 'NONE', #451, #454, #276, .T. ) ;
#48 = EDGE_CURVE ( 'NONE', #436, #479, #314, .T. ) ;
#49 = EDGE_CURVE ( 'NONE', #487, #472, #287, .T. ) ;
#50 = EDGE_CURVE ( 'NONE', #490, #484, #296, .T. ) ;
#51 = EDGE_CURVE ( 'NONE', #496, #429, #322, .T. ) ;
#52 = EDGE_CURVE ( 'NONE', #469, #491, #319, .T. ) ;
#53 = EDGE_CURVE ( 'NONE', #450, #435, #299, .T. ) ;
#54 = EDGE_CURVE ( 'NONE', #437, #466, #297, .T. ) ;
#55 = EDGE_CURVE ( 'NONE', #457, #450, #305, .T. ) ;
#56 = EDGE_CURVE ( 'NONE', #449, #485, #280, .T. ) ;
#57 = EDGE_CURVE ( 'NONE', #500, #428, #298, .T. ) ;
#58 = EDGE_CURVE ( 'NONE', #454, #427, #292, .T. ) ;
#59 = EDGE_CURVE ( 'NONE', #431, #493, #267, .T. ) ;
#60 = EDGE_CURVE ( 'NONE', #453, #457, #302, .T. ) ;
#61 = EDGE_CURVE ( 'NONE', #470, #455, #317, .T. ) ;
#62 = EDGE_CURVE ( 'NONE', #485, #475, #278, .T. ) ;
#63 = EDGE_CURVE ( 'NONE', #485, #434, #310, .T. ) ;
#64 = EDGE_CURVE ( 'NONE', #486, #449, #270, .T. ) ;
#65 = EDGE_CURVE ( 'NONE', #474, #459, #281, .T. ) ;
#66 = EDGE_CURVE ( 'NONE', #481, #471, #311, .T. ) ;
#67 = EDGE_CURVE ( 'NONE', #448, #430, #312, .T. ) ;
#68 = AXIS2_PLACEMENT_3D ( 'NONE', #918, #919, #884 ) ;
#69 = AXIS2_PLACEMENT_3D ( 'NONE', #748, #871, #852 ) ;
#70 = EDGE_CURVE ( 'NONE', #489, #477, #325, .T. ) ;
#71 = AXIS2_PLACEMENT_3D ( 'NONE', #789, #773, #790 ) ;
#72 = EDGE_CURVE ( 'NONE', #500, #468, #289, .T. ) ;
#73 = AXIS2_PLACEMENT_3D ( 'NONE', #829, #843, #835 ) ;
#74 = EDGE_CURVE ( 'NONE', #491, #469, #265, .T. ) ;
#75 = AXIS2_PLACEMENT_3D ( 'NONE', #868, #863, #870 ) ;
#76 = EDGE_CURVE ( 'NONE', #482, #434, #264, .T. ) ;
#77 = EDGE_CURVE ( 'NONE', #434, #478, #288, .T. ) ;
#78 = AXIS2_PLACEMENT_3D ( 'NONE', #859, #856, #853 ) ;
#79 = AXIS2_PLACEMENT_3D ( 'NONE', #822, #818, #814 ) ;
#80 = AXIS2_PLACEMENT_3D ( 'NONE', #862, #864, #878 ) ;
#81 = AXIS2_PLACEMENT_3D ( 'NONE', #890, #895, #896 ) ;
#82 = EDGE_CURVE ( 'NONE', #447, #473, #301, .T. ) ;
#83 = EDGE_CURVE ( 'NONE', #436, #480, #271, .T. ) ;
#84 = AXIS2_PLACEMENT_3D ( 'NONE', #1100, #1116, #1103 ) ;
#85 = EDGE_CURVE ( 'NONE', #452, #466, #268, .T. ) ;
#86 = EDGE_CURVE ( 'NONE', #427, #435, #323, .T. ) ;
#87 = EDGE_CURVE ( 'NONE', #479, #426, #277, .T. ) ;
#88 = EDGE_CURVE ( 'NONE', #468, #478, #285, .T. ) ;
#89 = AXIS2_PLACEMENT_3D ( 'NONE', #809, #788, #772 ) ;
#90 = AXIS2_PLACEMENT_3D ( 'NONE', #893, #898, #887 ) ;
#91 = EDGE_CURVE ( 'NONE', #462, #446, #349, .T. ) ;
#92 = EDGE_CURVE ( 'NONE', #491, #429, #363, .T. ) ;
#93 = AXIS2_PLACEMENT_3D ( 'NONE', #954, #945, #937 ) ;
#94 = EDGE_CURVE ( 'NONE', #468, #448, #388, .T. ) ;
#95 = EDGE_CURVE ( 'NONE', #429, #496, #368, .T. ) ;
#96 = EDGE_CURVE ( 'NONE', #470, #477, #346, .T. ) ;
#97 = AXIS2_PLACEMENT_3D ( 'NONE', #951, #944, #947 ) ;
#98 = EDGE_CURVE ( 'NONE', #426, #480, #370, .T. ) ;
#99 = AXIS2_PLACEMENT_3D ( 'NONE', #765, #766, #767 ) ;
#100 = EDGE_CURVE ( 'NONE', #447, #445, #369, .T. ) ;
#101 = EDGE_CURVE ( 'NONE', #448, #425, #367, .T. ) ;
#102 = AXIS2_PLACEMENT_3D ( 'NONE', #750, #759, #754 ) ;
#103 = AXIS2_PLACEMENT_3D ( 'NONE', #744, #745, #747 ) ;
#104 = EDGE_CURVE ( 'NONE', #473, #489, #383, .T. ) ;
#105 = EDGE_CURVE ( 'NONE', #482, #481, #340, .T. ) ;
#106 = AXIS2_PLACEMENT_3D ( 'NONE', #781, #779, #810 ) ;
#107 = AXIS2_PLACEMENT_3D ( 'NONE', #838, #815, #823 ) ;
#108 = AXIS2_PLACEMENT_3D ( 'NONE', #812, #826, #832 ) ;
#109 = AXIS2_PLACEMENT_3D ( 'NONE', #866, #867, #858 ) ;
#110 = EDGE_CURVE ( 'NONE', #470, #452, #361, .T. ) ;
#111 = EDGE_CURVE ( 'NONE', #425, #481, #377, .T. ) ;
#112 = AXIS2_PLACEMENT_3D ( 'NONE', #805, #799, #792 ) ;
#113 = AXIS2_PLACEMENT_3D ( 'NONE', #873, #854, #857 ) ;
#114 = EDGE_CURVE ( 'NONE', #445, #462, #328, .T. ) ;
#115 = AXIS2_PLACEMENT_3D ( 'NONE', #885, #909, #903 ) ;
#116 = AXIS2_PLACEMENT_3D ( 'NONE', #894, #897, #900 ) ;
#117 = EDGE_CURVE ( 'NONE', #466, #446, #333, .T. ) ;
#118 = AXIS2_PLACEMENT_3D ( 'NONE', #902, #910, #905 ) ;
#119 = AXIS2_PLACEMENT_3D ( 'NONE', #889, #891, #888 ) ;
#120 = AXIS2_PLACEMENT_3D ( 'NONE', #914, #917, #906 ) ;
#121 = AXIS2_PLACEMENT_3D ( 'NONE', #912, #915, #913 ) ;
#122 = AXIS2_PLACEMENT_3D ( 'NONE', #907, #899, #908 ) ;
#123 = CC_DESIGN_SECURITY_CLASSIFICATION ( #139, ( #134 ) ) ;
#124 = AXIS2_PLACEMENT_3D ( 'NONE', #1119, #1114, #1106 ) ;
#125 =( GEOMETRIC_REPRESENTATION_CONTEXT ( 3 ) GLOBAL_UNCERTAINTY_ASSIGNED_CONTEXT ( ( #197 ) ) GLOBAL_UNIT_ASSIGNED_CONTEXT ( ( #1087, #1054, #1056 ) ) REPRESENTATION_CONTEXT ( 'NONE', 'WORKASPACE' ) );
#126 = AXIS2_PLACEMENT_3D ( 'NONE', #1112, #1126, #1122 ) ;
#127 = AXIS2_PLACEMENT_3D ( 'NONE', #1013, #1014, #1002 ) ;
#128 = AXIS2_PLACEMENT_3D ( 'NONE', #1120, #1123, #1115 ) ;
#129 = AXIS2_PLACEMENT_3D ( 'NONE', #1010, #1016, #1017 ) ;
#130 = CC_DESIGN_PERSON_AND_ORGANIZATION_ASSIGNMENT ( #405, #1088, ( #139 ) ) ;
#131 = AXIS2_PLACEMENT_3D ( 'NONE', #978, #962, #969 ) ;
#132 = AXIS2_PLACEMENT_3D ( 'NONE', #990, #983, #986 ) ;
#133 = AXIS2_PLACEMENT_3D ( 'NONE', #1081, #1057, #1089 ) ;
#134 = PRODUCT_DEFINITION_FORMATION_WITH_SPECIFIED_SOURCE ( 'ANY', '', #195, .NOT_KNOWN. ) ;
#135 = CC_DESIGN_PERSON_AND_ORGANIZATION_ASSIGNMENT ( #416, #1062, ( #134 ) ) ;
#136 = AXIS2_PLACEMENT_3D ( 'NONE', #975, #979, #965 ) ;
#137 = AXIS2_PLACEMENT_3D ( 'NONE', #1001, #963, #999 ) ;
#138 = CC_DESIGN_PERSON_AND_ORGANIZATION_ASSIGNMENT ( #402, #1060, ( #160 ) ) ;
#139 = SECURITY_CLASSIFICATION ( '', '', #1065 ) ;
#140 = AXIS2_PLACEMENT_3D ( 'NONE', #1110, #1118, #1111 ) ;
#141 = AXIS2_PLACEMENT_3D ( 'NONE', #1009, #1004, #1007 ) ;
#142 = AXIS2_PLACEMENT_3D ( 'NONE', #995, #996, #971 ) ;
#143 = CC_DESIGN_DATE_AND_TIME_ASSIGNMENT ( #407, #1082, ( #160 ) ) ;
#144 = CC_DESIGN_APPROVAL ( #161, ( #134 ) ) ;
#145 = AXIS2_PLACEMENT_3D ( 'NONE', #961, #994, #1000 ) ;
#146 = CC_DESIGN_PERSON_AND_ORGANIZATION_ASSIGNMENT ( #409, #1063, ( #134 ) ) ;
#147 = CC_DESIGN_DATE_AND_TIME_ASSIGNMENT ( #412, #1067, ( #139 ) ) ;
#148 = APPROVAL ( #1083, 'UNSPECIFIED' ) ;
#149 = AXIS2_PLACEMENT_3D ( 'NONE', #966, #967, #968 ) ;
#150 = AXIS2_PLACEMENT_3D ( 'NONE', #997, #992, #985 ) ;
#151 = AXIS2_PLACEMENT_3D ( 'NONE', #976, #977, #988 ) ;
#152 = PRODUCT_RELATED_PRODUCT_CATEGORY ( 'detail', '', ( #195 ) ) ;
#153 = AXIS2_PLACEMENT_3D ( 'NONE', #1107, #1127, #1101 ) ;
#154 = AXIS2_PLACEMENT_3D ( 'NONE', #987, #970, #973 ) ;
#155 = AXIS2_PLACEMENT_3D ( 'NONE', #1113, #1104, #1105 ) ;
#156 = AXIS2_PLACEMENT_3D ( 'NONE', #1117, #1124, #1109 ) ;
#157 = AXIS2_PLACEMENT_3D ( 'NONE', #998, #980, #1012 ) ;
#158 = APPROVAL ( #1059, 'UNSPECIFIED' ) ;
#159 = CC_DESIGN_APPROVAL ( #158, ( #160 ) ) ;
#160 = PRODUCT_DEFINITION ( 'UNKNOWN', '', #134, #200 ) ;
#161 = APPROVAL ( #1066, 'UNSPECIFIED' ) ;
#162 = CC_DESIGN_APPROVAL ( #148, ( #139 ) ) ;
#163 = CC_DESIGN_PERSON_AND_ORGANIZATION_ASSIGNMENT ( #403, #1078, ( #195 ) ) ;
#164 = ADVANCED_FACE ( 'NONE', ( #372 ), #886, .F. ) ;
#165 = ADVANCED_FACE ( 'NONE', ( #332 ), #350, .F. ) ;
#166 = ADVANCED_FACE ( 'NONE', ( #379 ), #911, .T. ) ;
#167 = ADVANCED_FACE ( 'NONE', ( #343 ), #901, .T. ) ;
#168 = ADVANCED_FACE ( 'NONE', ( #326, #359 ), #892, .F. ) ;
#169 = ADVANCED_FACE ( 'NONE', ( #339, #341 ), #916, .F. ) ;
#170 = ADVANCED_FACE ( 'NONE', ( #382 ), #904, .F. ) ;
#171 = ADVANCED_FACE ( 'NONE', ( #380 ), #345, .F. ) ;
#172 = ADVANCED_FACE ( 'NONE', ( #327 ), #920, .T. ) ;
#173 = ADVANCED_FACE ( 'NONE', ( #342 ), #1125, .F. ) ;
#174 = ADVANCED_FACE ( 'NONE', ( #378 ), #1108, .F. ) ;
#175 = ADVANCED_FACE ( 'NONE', ( #374 ), #352, .T. ) ;
#176 = ADVANCED_FACE ( 'NONE', ( #330 ), #1102, .F. ) ;
#177 = ADVANCED_FACE ( 'NONE', ( #362 ), #1121, .T. ) ;
#178 = ADVANCED_FACE ( 'NONE', ( #371 ), #353, .T. ) ;
#179 = ADVANCED_FACE ( 'NONE', ( #364 ), #329, .T. ) ;
#180 = ADVANCED_FACE ( 'NONE', ( #376 ), #334, .F. ) ;
#181 = ADVANCED_FACE ( 'NONE', ( #355 ), #984, .T. ) ;
#182 = ADVANCED_FACE ( 'NONE', ( #360 ), #982, .F. ) ;
#183 = ADVANCED_FACE ( 'NONE', ( #384 ), #335, .F. ) ;
#184 = ADVANCED_FACE ( 'NONE', ( #336 ), #981, .T. ) ;
#185 = ADVANCED_FACE ( 'NONE', ( #354 ), #989, .F. ) ;
#186 = ADVANCED_FACE ( 'NONE', ( #381 ), #972, .T. ) ;
#187 = ADVANCED_FACE ( 'NONE', ( #386 ), #964, .F. ) ;
#188 = ADVANCED_FACE ( 'NONE', ( #331 ), #991, .F. ) ;
#189 = ADVANCED_FACE ( 'NONE', ( #338 ), #993, .T. ) ;
#190 = ADVANCED_FACE ( 'NONE', ( #366 ), #351, .T. ) ;
#191 = ADVANCED_FACE ( 'NONE', ( #375 ), #974, .F. ) ;
#192 = ADVANCED_FACE ( 'NONE', ( #357, #385 ), #1005, .F. ) ;
#193 = ADVANCED_FACE ( 'NONE', ( #347 ), #1003, .F. ) ;
#194 = ADVANCED_FACE ( 'NONE', ( #337 ), #1008, .F. ) ;
#195 = PRODUCT ( 'ALP3540', 'ALP3540', '', ( #1071 ) ) ;
#196 = PERSON ( 'UNSPECIFIED', 'UNSPECIFIED', 'UNSPECIFIED', ('UNSPECIFIED'), ('UNSPECIFIED'), ('UNSPECIFIED') ) ;
#197 = UNCERTAINTY_MEASURE_WITH_UNIT (LENGTH_MEASURE( 1.000000000000000100E-005 ), #1087, 'distance_accuracy_value', 'NONE');
#198 = ADVANCED_BREP_SHAPE_REPRESENTATION ( 'ALP3540', ( #199, #133 ), #125 ) ;
#199 = MANIFOLD_SOLID_BREP ( 'CBORE for M5 Cheese Head Screw1', #667 ) ;
#200 = DESIGN_CONTEXT ( 'detailed design', #1058, 'design' ) ;
#201 = PRODUCT_DEFINITION_SHAPE ( 'NONE', 'NONE',  #160 ) ;
#202 = LINE ( 'NONE', #724, #215 ) ;
#203 = LINE ( 'NONE', #742, #205 ) ;
#204 = CIRCLE ( 'NONE', #103, 5.099999999999999600 ) ;
#205 = VECTOR ( 'NONE', #743, 1000.000000000000100 ) ;
#206 = VECTOR ( 'NONE', #736, 1000.000000000000000 ) ;
#207 = LINE ( 'NONE', #938, #241 ) ;
#208 = VECTOR ( 'NONE', #946, 1000.000000000000000 ) ;
#209 = VECTOR ( 'NONE', #936, 1000.000000000000000 ) ;
#210 = VECTOR ( 'NONE', #729, 1000.000000000000000 ) ;
#211 = LINE ( 'NONE', #757, #218 ) ;
#212 = LINE ( 'NONE', #957, #249 ) ;
#213 = CIRCLE ( 'NONE', #99, 2.000000000000000000 ) ;
#214 = LINE ( 'NONE', #769, #245 ) ;
#215 = VECTOR ( 'NONE', #725, 1000.000000000000000 ) ;
#216 = LINE ( 'NONE', #732, #242 ) ;
#217 = LINE ( 'NONE', #762, #221 ) ;
#218 = VECTOR ( 'NONE', #752, 1000.000000000000000 ) ;
#219 = VECTOR ( 'NONE', #741, 1000.000000000000000 ) ;
#220 = LINE ( 'NONE', #764, #223 ) ;
#221 = VECTOR ( 'NONE', #738, 1000.000000000000000 ) ;
#222 = VECTOR ( 'NONE', #755, 1000.000000000000000 ) ;
#223 = VECTOR ( 'NONE', #768, 1000.000000000000000 ) ;
#224 = LINE ( 'NONE', #756, #261 ) ;
#225 = LINE ( 'NONE', #739, #219 ) ;
#226 = LINE ( 'NONE', #749, #228 ) ;
#227 = LINE ( 'NONE', #727, #247 ) ;
#228 = VECTOR ( 'NONE', #786, 1000.000000000000000 ) ;
#229 = LINE ( 'NONE', #782, #233 ) ;
#230 = VECTOR ( 'NONE', #955, 1000.000000000000000 ) ;
#231 = VECTOR ( 'NONE', #959, 1000.000000000000000 ) ;
#232 = LINE ( 'NONE', #939, #234 ) ;
#233 = VECTOR ( 'NONE', #776, 1000.000000000000000 ) ;
#234 = VECTOR ( 'NONE', #733, 1000.000000000000000 ) ;
#235 = LINE ( 'NONE', #941, #252 ) ;
#236 = LINE ( 'NONE', #723, #210 ) ;
#237 = LINE ( 'NONE', #940, #209 ) ;
#238 = LINE ( 'NONE', #935, #208 ) ;
#239 = LINE ( 'NONE', #758, #222 ) ;
#240 = LINE ( 'NONE', #933, #246 ) ;
#241 = VECTOR ( 'NONE', #943, 1000.000000000000000 ) ;
#242 = VECTOR ( 'NONE', #737, 1000.000000000000000 ) ;
#243 = VECTOR ( 'NONE', #958, 1000.000000000000000 ) ;
#244 = VECTOR ( 'NONE', #771, 1000.000000000000000 ) ;
#245 = VECTOR ( 'NONE', #746, 1000.000000000000000 ) ;
#246 = VECTOR ( 'NONE', #948, 1000.000000000000000 ) ;
#247 = VECTOR ( 'NONE', #734, 1000.000000000000000 ) ;
#248 = VECTOR ( 'NONE', #763, 1000.000000000000000 ) ;
#249 = VECTOR ( 'NONE', #960, 1000.000000000000000 ) ;
#250 = LINE ( 'NONE', #728, #251 ) ;
#251 = VECTOR ( 'NONE', #761, 1000.000000000000000 ) ;
#252 = VECTOR ( 'NONE', #735, 1000.000000000000000 ) ;
#253 = LINE ( 'NONE', #726, #258 ) ;
#254 = LINE ( 'NONE', #753, #244 ) ;
#255 = CIRCLE ( 'NONE', #102, 5.099999999999999600 ) ;
#256 = LINE ( 'NONE', #949, #243 ) ;
#257 = LINE ( 'NONE', #934, #230 ) ;
#258 = VECTOR ( 'NONE', #731, 1000.000000000000000 ) ;
#259 = LINE ( 'NONE', #740, #248 ) ;
#260 = LINE ( 'NONE', #770, #262 ) ;
#261 = VECTOR ( 'NONE', #760, 1000.000000000000000 ) ;
#262 = VECTOR ( 'NONE', #751, 1000.000000000000000 ) ;
#263 = LINE ( 'NONE', #730, #206 ) ;
#264 = CIRCLE ( 'NONE', #107, 2.000000000000001800 ) ;
#265 = CIRCLE ( 'NONE', #79, 2.549999999999999400 ) ;
#266 = VECTOR ( 'NONE', #834, 1000.000000000000000 ) ;
#267 = LINE ( 'NONE', #800, #316 ) ;
#268 = LINE ( 'NONE', #828, #272 ) ;
#269 = VECTOR ( 'NONE', #784, 1000.000000000000000 ) ;
#270 = LINE ( 'NONE', #791, #279 ) ;
#271 = LINE ( 'NONE', #837, #282 ) ;
#272 = VECTOR ( 'NONE', #830, 1000.000000000000000 ) ;
#273 = VECTOR ( 'NONE', #798, 1000.000000000000100 ) ;
#274 = VECTOR ( 'NONE', #850, 1000.000000000000000 ) ;
#275 = VECTOR ( 'NONE', #794, 1000.000000000000000 ) ;
#276 = LINE ( 'NONE', #801, #300 ) ;
#277 = LINE ( 'NONE', #855, #283 ) ;
#278 = LINE ( 'NONE', #817, #321 ) ;
#279 = VECTOR ( 'NONE', #848, 1000.000000000000000 ) ;
#280 = LINE ( 'NONE', #785, #286 ) ;
#281 = LINE ( 'NONE', #849, #274 ) ;
#282 = VECTOR ( 'NONE', #831, 1000.000000000000000 ) ;
#283 = VECTOR ( 'NONE', #877, 1000.000000000000000 ) ;
#284 = VECTOR ( 'NONE', #844, 1000.000000000000000 ) ;
#285 = LINE ( 'NONE', #820, #290 ) ;
#286 = VECTOR ( 'NONE', #793, 1000.000000000000100 ) ;
#287 = LINE ( 'NONE', #778, #307 ) ;
#288 = LINE ( 'NONE', #819, #293 ) ;
#289 = LINE ( 'NONE', #811, #304 ) ;
#290 = VECTOR ( 'NONE', #882, 1000.000000000000000 ) ;
#291 = LINE ( 'NONE', #804, #295 ) ;
#292 = LINE ( 'NONE', #787, #273 ) ;
#293 = VECTOR ( 'NONE', #816, 1000.000000000000000 ) ;
#294 = VECTOR ( 'NONE', #833, 1000.000000000000000 ) ;
#295 = VECTOR ( 'NONE', #803, 1000.000000000000000 ) ;
#296 = LINE ( 'NONE', #795, #315 ) ;
#297 = LINE ( 'NONE', #783, #324 ) ;
#298 = CIRCLE ( 'NONE', #71, 2.000000000000001800 ) ;
#299 = LINE ( 'NONE', #774, #269 ) ;
#300 = VECTOR ( 'NONE', #808, 1000.000000000000000 ) ;
#301 = CIRCLE ( 'NONE', #108, 2.000000000000001800 ) ;
#302 = LINE ( 'NONE', #845, #306 ) ;
#303 = LINE ( 'NONE', #775, #308 ) ;
#304 = VECTOR ( 'NONE', #825, 1000.000000000000000 ) ;
#305 = LINE ( 'NONE', #802, #275 ) ;
#306 = VECTOR ( 'NONE', #839, 1000.000000000000100 ) ;
#307 = VECTOR ( 'NONE', #807, 1000.000000000000000 ) ;
#308 = VECTOR ( 'NONE', #806, 1000.000000000000000 ) ;
#309 = VECTOR ( 'NONE', #777, 1000.000000000000100 ) ;
#310 = LINE ( 'NONE', #821, #320 ) ;
#311 = LINE ( 'NONE', #842, #266 ) ;
#312 = CIRCLE ( 'NONE', #73, 2.000000000000001800 ) ;
#313 = LINE ( 'NONE', #780, #309 ) ;
#314 = CIRCLE ( 'NONE', #112, 5.099999999999999600 ) ;
#315 = VECTOR ( 'NONE', #797, 1000.000000000000000 ) ;
#316 = VECTOR ( 'NONE', #813, 1000.000000000000100 ) ;
#317 = LINE ( 'NONE', #840, #318 ) ;
#318 = VECTOR ( 'NONE', #824, 1000.000000000000000 ) ;
#319 = CIRCLE ( 'NONE', #89, 2.549999999999999400 ) ;
#320 = VECTOR ( 'NONE', #841, 1000.000000000000000 ) ;
#321 = VECTOR ( 'NONE', #836, 1000.000000000000000 ) ;
#322 = CIRCLE ( 'NONE', #106, 2.549999999999999400 ) ;
#323 = LINE ( 'NONE', #847, #294 ) ;
#324 = VECTOR ( 'NONE', #796, 1000.000000000000000 ) ;
#325 = LINE ( 'NONE', #846, #284 ) ;
#326 = FACE_BOUND ( 'NONE', #685, .T. ) ;
#327 = FACE_OUTER_BOUND ( 'NONE', #689, .T. ) ;
#328 = CIRCLE ( 'NONE', #115, 2.000000000000000000 ) ;
#329 = CYLINDRICAL_SURFACE ( 'NONE', #128, 2.000000000000001800 ) ;
#330 = FACE_OUTER_BOUND ( 'NONE', #661, .T. ) ;
#331 = FACE_OUTER_BOUND ( 'NONE', #695, .T. ) ;
#332 = FACE_OUTER_BOUND ( 'NONE', #684, .T. ) ;
#333 = CIRCLE ( 'NONE', #116, 2.000000000000000000 ) ;
#334 = CYLINDRICAL_SURFACE ( 'NONE', #140, 5.099999999999999600 ) ;
#335 = CYLINDRICAL_SURFACE ( 'NONE', #136, 2.549999999999999400 ) ;
#336 = FACE_OUTER_BOUND ( 'NONE', #664, .T. ) ;
#337 = FACE_OUTER_BOUND ( 'NONE', #701, .T. ) ;
#338 = FACE_OUTER_BOUND ( 'NONE', #666, .T. ) ;
#339 = FACE_BOUND ( 'NONE', #647, .T. ) ;
#340 = LINE ( 'NONE', #876, #365 ) ;
#341 = FACE_OUTER_BOUND ( 'NONE', #668, .T. ) ;
#342 = FACE_OUTER_BOUND ( 'NONE', #690, .T. ) ;
#343 = FACE_OUTER_BOUND ( 'NONE', #703, .T. ) ;
#344 = VECTOR ( 'NONE', #881, 1000.000000000000000 ) ;
#345 = CYLINDRICAL_SURFACE ( 'NONE', #68, 2.549999999999999400 ) ;
#346 = LINE ( 'NONE', #861, #387 ) ;
#347 = FACE_OUTER_BOUND ( 'NONE', #688, .T. ) ;
#348 = VECTOR ( 'NONE', #869, 1000.000000000000000 ) ;
#349 = LINE ( 'NONE', #860, #356 ) ;
#350 = CYLINDRICAL_SURFACE ( 'NONE', #118, 5.099999999999999600 ) ;
#351 = CYLINDRICAL_SURFACE ( 'NONE', #151, 2.000000000000001800 ) ;
#352 = CYLINDRICAL_SURFACE ( 'NONE', #153, 2.000000000000001800 ) ;
#353 = CYLINDRICAL_SURFACE ( 'NONE', #155, 2.000000000000001800 ) ;
#354 = FACE_OUTER_BOUND ( 'NONE', #705, .T. ) ;
#355 = FACE_OUTER_BOUND ( 'NONE', #657, .T. ) ;
#356 = VECTOR ( 'NONE', #865, 1000.000000000000000 ) ;
#357 = FACE_BOUND ( 'NONE', #707, .T. ) ;
#358 = VECTOR ( 'NONE', #883, 1000.000000000000000 ) ;
#359 = FACE_OUTER_BOUND ( 'NONE', #677, .T. ) ;
#360 = FACE_OUTER_BOUND ( 'NONE', #704, .T. ) ;
#361 = CIRCLE ( 'NONE', #78, 2.000000000000000000 ) ;
#362 = FACE_OUTER_BOUND ( 'NONE', #680, .T. ) ;
#363 = LINE ( 'NONE', #827, #358 ) ;
#364 = FACE_OUTER_BOUND ( 'NONE', #675, .T. ) ;
#365 = VECTOR ( 'NONE', #851, 1000.000000000000000 ) ;
#366 = FACE_OUTER_BOUND ( 'NONE', #702, .T. ) ;
#367 = LINE ( 'NONE', #880, #373 ) ;
#368 = CIRCLE ( 'NONE', #109, 2.549999999999999400 ) ;
#369 = LINE ( 'NONE', #879, #344 ) ;
#370 = CIRCLE ( 'NONE', #75, 5.099999999999999600 ) ;
#371 = FACE_OUTER_BOUND ( 'NONE', #686, .T. ) ;
#372 = FACE_OUTER_BOUND ( 'NONE', #708, .T. ) ;
#373 = VECTOR ( 'NONE', #874, 1000.000000000000000 ) ;
#374 = FACE_OUTER_BOUND ( 'NONE', #653, .T. ) ;
#375 = FACE_OUTER_BOUND ( 'NONE', #648, .T. ) ;
#376 = FACE_OUTER_BOUND ( 'NONE', #652, .T. ) ;
#377 = CIRCLE ( 'NONE', #113, 2.000000000000001800 ) ;
#378 = FACE_OUTER_BOUND ( 'NONE', #687, .T. ) ;
#379 = FACE_OUTER_BOUND ( 'NONE', #696, .T. ) ;
#380 = FACE_OUTER_BOUND ( 'NONE', #649, .T. ) ;
#381 = FACE_OUTER_BOUND ( 'NONE', #706, .T. ) ;
#382 = FACE_OUTER_BOUND ( 'NONE', #654, .T. ) ;
#383 = LINE ( 'NONE', #872, #348 ) ;
#384 = FACE_OUTER_BOUND ( 'NONE', #681, .T. ) ;
#385 = FACE_OUTER_BOUND ( 'NONE', #656, .T. ) ;
#386 = FACE_OUTER_BOUND ( 'NONE', #691, .T. ) ;
#387 = VECTOR ( 'NONE', #875, 1000.000000000000000 ) ;
#388 = CIRCLE ( 'NONE', #80, 2.000000000000001800 ) ;
#389 = LOCAL_TIME ( 17, 20, 42.00000000000000000, #399 ) ;
#390 = CALENDAR_DATE ( 2017, 3, 3 ) ;
#391 = DATE_AND_TIME ( #408, #422 ) ;
#392 = DATE_AND_TIME ( #420, #394 ) ;
#393 = APPROVAL_PERSON_ORGANIZATION ( #400, #158, #1080 ) ;
#394 = LOCAL_TIME ( 17, 20, 42.00000000000000000, #413 ) ;
#395 = APPROVAL_DATE_TIME ( #392, #148 ) ;
#396 = APPROVAL_DATE_TIME ( #391, #161 ) ;
#397 = ORGANIZATION ( 'UNSPECIFIED', 'UNSPECIFIED', '' ) ;
#398 = CALENDAR_DATE ( 2017, 3, 3 ) ;
#399 = COORDINATED_UNIVERSAL_TIME_OFFSET ( 1, 0, .AHEAD. ) ;
#400 = PERSON_AND_ORGANIZATION ( #196, #397 ) ;
#401 = COORDINATED_UNIVERSAL_TIME_OFFSET ( 1, 0, .AHEAD. ) ;
#402 = PERSON_AND_ORGANIZATION ( #196, #397 ) ;
#403 = PERSON_AND_ORGANIZATION ( #196, #397 ) ;
#404 = CALENDAR_DATE ( 2017, 3, 3 ) ;
#405 = PERSON_AND_ORGANIZATION ( #196, #397 ) ;
#406 = COORDINATED_UNIVERSAL_TIME_OFFSET ( 1, 0, .AHEAD. ) ;
#407 = DATE_AND_TIME ( #398, #389 ) ;
#408 = CALENDAR_DATE ( 2017, 3, 3 ) ;
#409 = PERSON_AND_ORGANIZATION ( #196, #397 ) ;
#410 = COORDINATED_UNIVERSAL_TIME_OFFSET ( 1, 0, .AHEAD. ) ;
#411 = LOCAL_TIME ( 17, 20, 42.00000000000000000, #401 ) ;
#412 = DATE_AND_TIME ( #404, #411 ) ;
#413 = COORDINATED_UNIVERSAL_TIME_OFFSET ( 1, 0, .AHEAD. ) ;
#414 = DATE_AND_TIME ( #390, #418 ) ;
#415 = APPROVAL_DATE_TIME ( #414, #158 ) ;
#416 = PERSON_AND_ORGANIZATION ( #196, #397 ) ;
#417 = PERSON_AND_ORGANIZATION ( #196, #397 ) ;
#418 = LOCAL_TIME ( 17, 20, 42.00000000000000000, #410 ) ;
#419 = APPROVAL_PERSON_ORGANIZATION ( #417, #148, #1099 ) ;
#420 = CALENDAR_DATE ( 2017, 3, 3 ) ;
#421 = SHAPE_DEFINITION_REPRESENTATION ( #201, #198 ) ;
#422 = LOCAL_TIME ( 17, 20, 42.00000000000000000, #406 ) ;
#423 = APPROVAL_PERSON_ORGANIZATION ( #424, #161, #1061 ) ;
#424 = PERSON_AND_ORGANIZATION ( #196, #397 ) ;
#425 = VERTEX_POINT ( 'NONE', #1011 ) ;
#426 = VERTEX_POINT ( 'NONE', #1015 ) ;
#427 = VERTEX_POINT ( 'NONE', #1021 ) ;
#428 = VERTEX_POINT ( 'NONE', #1019 ) ;
#429 = VERTEX_POINT ( 'NONE', #1006 ) ;
#430 = VERTEX_POINT ( 'NONE', #1023 ) ;
#431 = VERTEX_POINT ( 'NONE', #1018 ) ;
#432 = VERTEX_POINT ( 'NONE', #1020 ) ;
#433 = VERTEX_POINT ( 'NONE', #1022 ) ;
#434 = VERTEX_POINT ( 'NONE', #1024 ) ;
#435 = VERTEX_POINT ( 'NONE', #1042 ) ;
#436 = VERTEX_POINT ( 'NONE', #1038 ) ;
#437 = VERTEX_POINT ( 'NONE', #1043 ) ;
#438 = ORIENTED_EDGE ( 'NONE', *, *, #95, .T. ) ;
#439 = ORIENTED_EDGE ( 'NONE', *, *, #82, .F. ) ;
#440 = ORIENTED_EDGE ( 'NONE', *, *, #100, .T. ) ;
#441 = ORIENTED_EDGE ( 'NONE', *, *, #83, .F. ) ;
#442 = ORIENTED_EDGE ( 'NONE', *, *, #85, .F. ) ;
#443 = ORIENTED_EDGE ( 'NONE', *, *, #30, .F. ) ;
#444 = VERTEX_POINT ( 'NONE', #1025 ) ;
#445 = VERTEX_POINT ( 'NONE', #1041 ) ;
#446 = VERTEX_POINT ( 'NONE', #1036 ) ;
#447 = VERTEX_POINT ( 'NONE', #1026 ) ;
#448 = VERTEX_POINT ( 'NONE', #1032 ) ;
#449 = VERTEX_POINT ( 'NONE', #1039 ) ;
#450 = VERTEX_POINT ( 'NONE', #1035 ) ;
#451 = VERTEX_POINT ( 'NONE', #1040 ) ;
#452 = VERTEX_POINT ( 'NONE', #1034 ) ;
#453 = VERTEX_POINT ( 'NONE', #1029 ) ;
#454 = VERTEX_POINT ( 'NONE', #1044 ) ;
#455 = VERTEX_POINT ( 'NONE', #1028 ) ;
#456 = ORIENTED_EDGE ( 'NONE', *, *, #117, .F. ) ;
#457 = VERTEX_POINT ( 'NONE', #1030 ) ;
#458 = VERTEX_POINT ( 'NONE', #1031 ) ;
#459 = VERTEX_POINT ( 'NONE', #1033 ) ;
#460 = ORIENTED_EDGE ( 'NONE', *, *, #72, .T. ) ;
#461 = ORIENTED_EDGE ( 'NONE', *, *, #114, .T. ) ;
#462 = VERTEX_POINT ( 'NONE', #1027 ) ;
#463 = ORIENTED_EDGE ( 'NONE', *, *, #88, .T. ) ;
#464 = VERTEX_POINT ( 'NONE', #1073 ) ;
#465 = ORIENTED_EDGE ( 'NONE', *, *, #70, .F. ) ;
#466 = VERTEX_POINT ( 'NONE', #1037 ) ;
#467 = VERTEX_POINT ( 'NONE', #1086 ) ;
#468 = VERTEX_POINT ( 'NONE', #1074 ) ;
#469 = VERTEX_POINT ( 'NONE', #1076 ) ;
#470 = VERTEX_POINT ( 'NONE', #1046 ) ;
#471 = VERTEX_POINT ( 'NONE', #1052 ) ;
#472 = VERTEX_POINT ( 'NONE', #1084 ) ;
#473 = VERTEX_POINT ( 'NONE', #1049 ) ;
#474 = VERTEX_POINT ( 'NONE', #1047 ) ;
#475 = VERTEX_POINT ( 'NONE', #1091 ) ;
#476 = VERTEX_POINT ( 'NONE', #1045 ) ;
#477 = VERTEX_POINT ( 'NONE', #1077 ) ;
#478 = VERTEX_POINT ( 'NONE', #1093 ) ;
#479 = VERTEX_POINT ( 'NONE', #1094 ) ;
#480 = VERTEX_POINT ( 'NONE', #1069 ) ;
#481 = VERTEX_POINT ( 'NONE', #1098 ) ;
#482 = VERTEX_POINT ( 'NONE', #1085 ) ;
#483 = VERTEX_POINT ( 'NONE', #1064 ) ;
#484 = VERTEX_POINT ( 'NONE', #1090 ) ;
#485 = VERTEX_POINT ( 'NONE', #1095 ) ;
#486 = VERTEX_POINT ( 'NONE', #1048 ) ;
#487 = VERTEX_POINT ( 'NONE', #1092 ) ;
#488 = VERTEX_POINT ( 'NONE', #1050 ) ;
#489 = VERTEX_POINT ( 'NONE', #1070 ) ;
#490 = VERTEX_POINT ( 'NONE', #1051 ) ;
#491 = VERTEX_POINT ( 'NONE', #1072 ) ;
#492 = VERTEX_POINT ( 'NONE', #1068 ) ;
#493 = VERTEX_POINT ( 'NONE', #1053 ) ;
#494 = ORIENTED_EDGE ( 'NONE', *, *, #35, .F. ) ;
#495 = ORIENTED_EDGE ( 'NONE', *, *, #104, .F. ) ;
#496 = VERTEX_POINT ( 'NONE', #1096 ) ;
#497 = ORIENTED_EDGE ( 'NONE', *, *, #110, .F. ) ;
#498 = ORIENTED_EDGE ( 'NONE', *, *, #96, .T. ) ;
#499 = ORIENTED_EDGE ( 'NONE', *, *, #87, .T. ) ;
#500 = VERTEX_POINT ( 'NONE', #1075 ) ;
#501 = ORIENTED_EDGE ( 'NONE', *, *, #10, .F. ) ;
#502 = ORIENTED_EDGE ( 'NONE', *, *, #72, .F. ) ;
#503 = ORIENTED_EDGE ( 'NONE', *, *, #11, .T. ) ;
#504 = ORIENTED_EDGE ( 'NONE', *, *, #9, .F. ) ;
#505 = ORIENTED_EDGE ( 'NONE', *, *, #94, .F. ) ;
#506 = ORIENTED_EDGE ( 'NONE', *, *, #52, .T. ) ;
#507 = ORIENTED_EDGE ( 'NONE', *, *, #46, .F. ) ;
#508 = ORIENTED_EDGE ( 'NONE', *, *, #67, .F. ) ;
#509 = ORIENTED_EDGE ( 'NONE', *, *, #50, .F. ) ;
#510 = ORIENTED_EDGE ( 'NONE', *, *, #101, .T. ) ;
#511 = ORIENTED_EDGE ( 'NONE', *, *, #114, .F. ) ;
#512 = ORIENTED_EDGE ( 'NONE', *, *, #76, .F. ) ;
#513 = ORIENTED_EDGE ( 'NONE', *, *, #38, .T. ) ;
#514 = ORIENTED_EDGE ( 'NONE', *, *, #6, .F. ) ;
#515 = ORIENTED_EDGE ( 'NONE', *, *, #98, .F. ) ;
#516 = ORIENTED_EDGE ( 'NONE', *, *, #65, .T. ) ;
#517 = ORIENTED_EDGE ( 'NONE', *, *, #19, .F. ) ;
#518 = ORIENTED_EDGE ( 'NONE', *, *, #34, .T. ) ;
#519 = ORIENTED_EDGE ( 'NONE', *, *, #91, .T. ) ;
#520 = ORIENTED_EDGE ( 'NONE', *, *, #34, .F. ) ;
#521 = ORIENTED_EDGE ( 'NONE', *, *, #46, .T. ) ;
#522 = ORIENTED_EDGE ( 'NONE', *, *, #86, .F. ) ;
#523 = ORIENTED_EDGE ( 'NONE', *, *, #36, .T. ) ;
#524 = ORIENTED_EDGE ( 'NONE', *, *, #12, .F. ) ;
#525 = ORIENTED_EDGE ( 'NONE', *, *, #41, .F. ) ;
#526 = ORIENTED_EDGE ( 'NONE', *, *, #58, .F. ) ;
#527 = ORIENTED_EDGE ( 'NONE', *, *, #77, .F. ) ;
#528 = ORIENTED_EDGE ( 'NONE', *, *, #32, .F. ) ;
#529 = ORIENTED_EDGE ( 'NONE', *, *, #57, .F. ) ;
#530 = ORIENTED_EDGE ( 'NONE', *, *, #74, .T. ) ;
#531 = ORIENTED_EDGE ( 'NONE', *, *, #21, .F. ) ;
#532 = ORIENTED_EDGE ( 'NONE', *, *, #47, .T. ) ;
#533 = ORIENTED_EDGE ( 'NONE', *, *, #44, .F. ) ;
#534 = ORIENTED_EDGE ( 'NONE', *, *, #105, .T. ) ;
#535 = ORIENTED_EDGE ( 'NONE', *, *, #67, .T. ) ;
#536 = ORIENTED_EDGE ( 'NONE', *, *, #27, .T. ) ;
#537 = ORIENTED_EDGE ( 'NONE', *, *, #39, .F. ) ;
#538 = ORIENTED_EDGE ( 'NONE', *, *, #31, .F. ) ;
#539 = ORIENTED_EDGE ( 'NONE', *, *, #17, .F. ) ;
#540 = ORIENTED_EDGE ( 'NONE', *, *, #55, .F. ) ;
#541 = ORIENTED_EDGE ( 'NONE', *, *, #24, .F. ) ;
#542 = ORIENTED_EDGE ( 'NONE', *, *, #100, .F. ) ;
#543 = ORIENTED_EDGE ( 'NONE', *, *, #86, .T. ) ;
#544 = ORIENTED_EDGE ( 'NONE', *, *, #88, .F. ) ;
#545 = ORIENTED_EDGE ( 'NONE', *, *, #22, .T. ) ;
#546 = ORIENTED_EDGE ( 'NONE', *, *, #64, .T. ) ;
#547 = ORIENTED_EDGE ( 'NONE', *, *, #59, .T. ) ;
#548 = ORIENTED_EDGE ( 'NONE', *, *, #45, .F. ) ;
#549 = ORIENTED_EDGE ( 'NONE', *, *, #40, .F. ) ;
#550 = ORIENTED_EDGE ( 'NONE', *, *, #23, .F. ) ;
#551 = ORIENTED_EDGE ( 'NONE', *, *, #32, .T. ) ;
#552 = ORIENTED_EDGE ( 'NONE', *, *, #59, .F. ) ;
#553 = ORIENTED_EDGE ( 'NONE', *, *, #111, .F. ) ;
#554 = ORIENTED_EDGE ( 'NONE', *, *, #74, .F. ) ;
#555 = ORIENTED_EDGE ( 'NONE', *, *, #36, .F. ) ;
#556 = ORIENTED_EDGE ( 'NONE', *, *, #33, .F. ) ;
#557 = ORIENTED_EDGE ( 'NONE', *, *, #98, .T. ) ;
#558 = ORIENTED_EDGE ( 'NONE', *, *, #92, .T. ) ;
#559 = ORIENTED_EDGE ( 'NONE', *, *, #101, .F. ) ;
#560 = ORIENTED_EDGE ( 'NONE', *, *, #22, .F. ) ;
#561 = ORIENTED_EDGE ( 'NONE', *, *, #38, .F. ) ;
#562 = ORIENTED_EDGE ( 'NONE', *, *, #13, .T. ) ;
#563 = ORIENTED_EDGE ( 'NONE', *, *, #58, .T. ) ;
#564 = ORIENTED_EDGE ( 'NONE', *, *, #37, .F. ) ;
#565 = ORIENTED_EDGE ( 'NONE', *, *, #37, .T. ) ;
#566 = ORIENTED_EDGE ( 'NONE', *, *, #1, .F. ) ;
#567 = ORIENTED_EDGE ( 'NONE', *, *, #53, .F. ) ;
#568 = ORIENTED_EDGE ( 'NONE', *, *, #33, .T. ) ;
#569 = ORIENTED_EDGE ( 'NONE', *, *, #11, .F. ) ;
#570 = ORIENTED_EDGE ( 'NONE', *, *, #26, .F. ) ;
#571 = ORIENTED_EDGE ( 'NONE', *, *, #15, .T. ) ;
#572 = ORIENTED_EDGE ( 'NONE', *, *, #4, .F. ) ;
#573 = ORIENTED_EDGE ( 'NONE', *, *, #40, .T. ) ;
#574 = ORIENTED_EDGE ( 'NONE', *, *, #28, .F. ) ;
#575 = ORIENTED_EDGE ( 'NONE', *, *, #31, .T. ) ;
#576 = ORIENTED_EDGE ( 'NONE', *, *, #49, .F. ) ;
#577 = ORIENTED_EDGE ( 'NONE', *, *, #94, .T. ) ;
#578 = ORIENTED_EDGE ( 'NONE', *, *, #5, .F. ) ;
#579 = ORIENTED_EDGE ( 'NONE', *, *, #9, .T. ) ;
#580 = ORIENTED_EDGE ( 'NONE', *, *, #91, .F. ) ;
#581 = ORIENTED_EDGE ( 'NONE', *, *, #41, .T. ) ;
#582 = ORIENTED_EDGE ( 'NONE', *, *, #15, .F. ) ;
#583 = ORIENTED_EDGE ( 'NONE', *, *, #45, .T. ) ;
#584 = ORIENTED_EDGE ( 'NONE', *, *, #57, .T. ) ;
#585 = ORIENTED_EDGE ( 'NONE', *, *, #20, .T. ) ;
#586 = ORIENTED_EDGE ( 'NONE', *, *, #16, .F. ) ;
#587 = ORIENTED_EDGE ( 'NONE', *, *, #47, .F. ) ;
#588 = ORIENTED_EDGE ( 'NONE', *, *, #104, .T. ) ;
#589 = ORIENTED_EDGE ( 'NONE', *, *, #24, .T. ) ;
#590 = ORIENTED_EDGE ( 'NONE', *, *, #12, .T. ) ;
#591 = ORIENTED_EDGE ( 'NONE', *, *, #4, .T. ) ;
#592 = ORIENTED_EDGE ( 'NONE', *, *, #60, .T. ) ;
#593 = ORIENTED_EDGE ( 'NONE', *, *, #48, .T. ) ;
#594 = ORIENTED_EDGE ( 'NONE', *, *, #17, .T. ) ;
#595 = ORIENTED_EDGE ( 'NONE', *, *, #10, .T. ) ;
#596 = ORIENTED_EDGE ( 'NONE', *, *, #66, .T. ) ;
#597 = ORIENTED_EDGE ( 'NONE', *, *, #117, .T. ) ;
#598 = ORIENTED_EDGE ( 'NONE', *, *, #1, .T. ) ;
#599 = ORIENTED_EDGE ( 'NONE', *, *, #65, .F. ) ;
#600 = ORIENTED_EDGE ( 'NONE', *, *, #14, .T. ) ;
#601 = ORIENTED_EDGE ( 'NONE', *, *, #26, .T. ) ;
#602 = ORIENTED_EDGE ( 'NONE', *, *, #18, .F. ) ;
#603 = ORIENTED_EDGE ( 'NONE', *, *, #2, .F. ) ;
#604 = ORIENTED_EDGE ( 'NONE', *, *, #54, .T. ) ;
#605 = ORIENTED_EDGE ( 'NONE', *, *, #63, .T. ) ;
#606 = ORIENTED_EDGE ( 'NONE', *, *, #50, .T. ) ;
#607 = ORIENTED_EDGE ( 'NONE', *, *, #76, .T. ) ;
#608 = ORIENTED_EDGE ( 'NONE', *, *, #70, .T. ) ;
#609 = ORIENTED_EDGE ( 'NONE', *, *, #23, .T. ) ;
#610 = ORIENTED_EDGE ( 'NONE', *, *, #51, .T. ) ;
#611 = ORIENTED_EDGE ( 'NONE', *, *, #42, .T. ) ;
#612 = ORIENTED_EDGE ( 'NONE', *, *, #30, .T. ) ;
#613 = ORIENTED_EDGE ( 'NONE', *, *, #51, .F. ) ;
#614 = ORIENTED_EDGE ( 'NONE', *, *, #48, .F. ) ;
#615 = ORIENTED_EDGE ( 'NONE', *, *, #14, .F. ) ;
#616 = ORIENTED_EDGE ( 'NONE', *, *, #2, .T. ) ;
#617 = ORIENTED_EDGE ( 'NONE', *, *, #111, .T. ) ;
#618 = ORIENTED_EDGE ( 'NONE', *, *, #5, .T. ) ;
#619 = ORIENTED_EDGE ( 'NONE', *, *, #13, .F. ) ;
#620 = ORIENTED_EDGE ( 'NONE', *, *, #61, .F. ) ;
#621 = ORIENTED_EDGE ( 'NONE', *, *, #92, .F. ) ;
#622 = ORIENTED_EDGE ( 'NONE', *, *, #28, .T. ) ;
#623 = ORIENTED_EDGE ( 'NONE', *, *, #8, .T. ) ;
#624 = ORIENTED_EDGE ( 'NONE', *, *, #87, .F. ) ;
#625 = ORIENTED_EDGE ( 'NONE', *, *, #43, .T. ) ;
#626 = ORIENTED_EDGE ( 'NONE', *, *, #64, .F. ) ;
#627 = ORIENTED_EDGE ( 'NONE', *, *, #66, .F. ) ;
#628 = ORIENTED_EDGE ( 'NONE', *, *, #83, .T. ) ;
#629 = ORIENTED_EDGE ( 'NONE', *, *, #55, .T. ) ;
#630 = ORIENTED_EDGE ( 'NONE', *, *, #8, .F. ) ;
#631 = ORIENTED_EDGE ( 'NONE', *, *, #82, .T. ) ;
#632 = ORIENTED_EDGE ( 'NONE', *, *, #29, .F. ) ;
#633 = ORIENTED_EDGE ( 'NONE', *, *, #53, .T. ) ;
#634 = ORIENTED_EDGE ( 'NONE', *, *, #29, .T. ) ;
#635 = ORIENTED_EDGE ( 'NONE', *, *, #6, .T. ) ;
#636 = ORIENTED_EDGE ( 'NONE', *, *, #21, .T. ) ;
#637 = ORIENTED_EDGE ( 'NONE', *, *, #49, .T. ) ;
#638 = ORIENTED_EDGE ( 'NONE', *, *, #110, .T. ) ;
#639 = ORIENTED_EDGE ( 'NONE', *, *, #42, .F. ) ;
#640 = ORIENTED_EDGE ( 'NONE', *, *, #52, .F. ) ;
#641 = ORIENTED_EDGE ( 'NONE', *, *, #56, .F. ) ;
#642 = ORIENTED_EDGE ( 'NONE', *, *, #105, .F. ) ;
#643 = ORIENTED_EDGE ( 'NONE', *, *, #25, .F. ) ;
#644 = ORIENTED_EDGE ( 'NONE', *, *, #25, .T. ) ;
#645 = ORIENTED_EDGE ( 'NONE', *, *, #44, .T. ) ;
#646 = ORIENTED_EDGE ( 'NONE', *, *, #95, .F. ) ;
#647 = EDGE_LOOP ( 'NONE', ( #506, #530 ) ) ;
#648 = EDGE_LOOP ( 'NONE', ( #636, #599, #639, #633 ) ) ;
#649 = EDGE_LOOP ( 'NONE', ( #621, #640, #698, #610 ) ) ;
#650 = LINE ( 'NONE', #930, #658 ) ;
#651 = ORIENTED_EDGE ( 'NONE', *, *, #62, .F. ) ;
#652 = EDGE_LOOP ( 'NONE', ( #443, #499, #557, #441 ) ) ;
#653 = EDGE_LOOP ( 'NONE', ( #580, #575, #608, #630 ) ) ;
#654 = EDGE_LOOP ( 'NONE', ( #518, #507, #514, #568 ) ) ;
#655 = ORIENTED_EDGE ( 'NONE', *, *, #96, .F. ) ;
#656 = EDGE_LOOP ( 'NONE', ( #593, #612 ) ) ;
#657 = EDGE_LOOP ( 'NONE', ( #627, #642, #644, #594 ) ) ;
#658 = VECTOR ( 'NONE', #932, 1000.000000000000000 ) ;
#659 = LINE ( 'NONE', #931, #660 ) ;
#660 = VECTOR ( 'NONE', #928, 1000.000000000000100 ) ;
#661 = EDGE_LOOP ( 'NONE', ( #531, #522, #526, #550, #538, #511, #528, #564 ) ) ;
#662 = LINE ( 'NONE', #929, #719 ) ;
#663 = ORIENTED_EDGE ( 'NONE', *, *, #61, .T. ) ;
#664 = EDGE_LOOP ( 'NONE', ( #581, #579, #583, #590, #584, #635, #601, #622, #631, #618 ) ) ;
#665 = ORIENTED_EDGE ( 'NONE', *, *, #7, .T. ) ;
#666 = EDGE_LOOP ( 'NONE', ( #694, #679, #669, #672 ) ) ;
#667 = CLOSED_SHELL ( 'NONE', ( #180, #183, #178, #179, #176, #173, #193, #169, #185, #187, #190, #170, #168, #164, #175, #182, #184, #194, #191, #188, #174, #189, #181, #172, #166, #167, #186, #177, #171, #192, #165 ) ) ;
#668 = EDGE_LOOP ( 'NONE', ( #543, #567, #540, #586, #546, #536, #509, #562, #573, #582, #504, #513 ) ) ;
#669 = ORIENTED_EDGE ( 'NONE', *, *, #3, .T. ) ;
#670 = ORIENTED_EDGE ( 'NONE', *, *, #77, .T. ) ;
#671 = ORIENTED_EDGE ( 'NONE', *, *, #60, .F. ) ;
#672 = ORIENTED_EDGE ( 'NONE', *, *, #85, .T. ) ;
#673 = ORIENTED_EDGE ( 'NONE', *, *, #16, .T. ) ;
#674 = ORIENTED_EDGE ( 'NONE', *, *, #18, .T. ) ;
#675 = EDGE_LOOP ( 'NONE', ( #460, #463, #527, #512, #534, #553, #559, #535, #556, #529 ) ) ;
#676 = ORIENTED_EDGE ( 'NONE', *, *, #62, .T. ) ;
#677 = EDGE_LOOP ( 'NONE', ( #521, #545, #566, #572, #539, #576, #585, #517, #516, #565, #541, #570 ) ) ;
#678 = ORIENTED_EDGE ( 'NONE', *, *, #19, .T. ) ;
#679 = ORIENTED_EDGE ( 'NONE', *, *, #20, .F. ) ;
#680 = EDGE_LOOP ( 'NONE', ( #683, #637, #643, #607, #699, #641, #626, #693, #620, #638 ) ) ;
#681 = EDGE_LOOP ( 'NONE', ( #554, #558, #438, #494 ) ) ;
#682 = ORIENTED_EDGE ( 'NONE', *, *, #27, .F. ) ;
#683 = ORIENTED_EDGE ( 'NONE', *, *, #3, .F. ) ;
#684 = EDGE_LOOP ( 'NONE', ( #624, #614, #628, #692 ) ) ;
#685 = EDGE_LOOP ( 'NONE', ( #537, #515 ) ) ;
#686 = EDGE_LOOP ( 'NONE', ( #461, #519, #456, #442, #497, #498, #465, #495, #439, #440 ) ) ;
#687 = EDGE_LOOP ( 'NONE', ( #604, #597, #623, #600, #592, #629, #611, #678 ) ) ;
#688 = EDGE_LOOP ( 'NONE', ( #563, #561, #525, #532 ) ) ;
#689 = EDGE_LOOP ( 'NONE', ( #700, #651, #605, #670 ) ) ;
#690 = EDGE_LOOP ( 'NONE', ( #533, #560, #520, #508, #505, #555, #552, #549 ) ) ;
#691 = EDGE_LOOP ( 'NONE', ( #523, #502, #524, #503 ) ) ;
#692 = ORIENTED_EDGE ( 'NONE', *, *, #39, .T. ) ;
#693 = ORIENTED_EDGE ( 'NONE', *, *, #7, .F. ) ;
#694 = ORIENTED_EDGE ( 'NONE', *, *, #54, .F. ) ;
#695 = EDGE_LOOP ( 'NONE', ( #625, #595, #617, #596, #591, #634, #606, #616 ) ) ;
#696 = EDGE_LOOP ( 'NONE', ( #603, #682, #697, #676 ) ) ;
#697 = ORIENTED_EDGE ( 'NONE', *, *, #56, .T. ) ;
#698 = ORIENTED_EDGE ( 'NONE', *, *, #35, .T. ) ;
#699 = ORIENTED_EDGE ( 'NONE', *, *, #63, .F. ) ;
#700 = ORIENTED_EDGE ( 'NONE', *, *, #43, .F. ) ;
#701 = EDGE_LOOP ( 'NONE', ( #645, #619, #632, #598 ) ) ;
#702 = EDGE_LOOP ( 'NONE', ( #544, #577, #510, #501 ) ) ;
#703 = EDGE_LOOP ( 'NONE', ( #671, #602, #665, #673 ) ) ;
#704 = EDGE_LOOP ( 'NONE', ( #609, #587, #578, #588 ) ) ;
#705 = EDGE_LOOP ( 'NONE', ( #547, #569, #548, #571 ) ) ;
#706 = EDGE_LOOP ( 'NONE', ( #615, #655, #663, #674 ) ) ;
#707 = EDGE_LOOP ( 'NONE', ( #613, #646 ) ) ;
#708 = EDGE_LOOP ( 'NONE', ( #551, #542, #574, #589 ) ) ;
#709 = LINE ( 'NONE', #921, #721 ) ;
#710 = VECTOR ( 'NONE', #926, 1000.000000000000000 ) ;
#711 = LINE ( 'NONE', #925, #710 ) ;
#712 = CIRCLE ( 'NONE', #97, 2.000000000000000000 ) ;
#713 = CIRCLE ( 'NONE', #93, 2.000000000000001800 ) ;
#714 = VECTOR ( 'NONE', #927, 1000.000000000000000 ) ;
#715 = LINE ( 'NONE', #952, #716 ) ;
#716 = VECTOR ( 'NONE', #953, 1000.000000000000000 ) ;
#717 = LINE ( 'NONE', #950, #720 ) ;
#718 = LINE ( 'NONE', #923, #714 ) ;
#719 = VECTOR ( 'NONE', #924, 1000.000000000000000 ) ;
#720 = VECTOR ( 'NONE', #942, 1000.000000000000100 ) ;
#721 = VECTOR ( 'NONE', #922, 1000.000000000000000 ) ;
#722 = LINE ( 'NONE', #956, #231 ) ;
#723 = CARTESIAN_POINT ( 'NONE',  ( -11.19999999999999900, 5.542562584220434000, 0.0000000000000000000 ) ) ;
#724 = CARTESIAN_POINT ( 'NONE',  ( -4.638932873401970800, 5.099999999999998800, 2.750000000000000000 ) ) ;
#725 = DIRECTION ( 'NONE',  ( -0.0000000000000000000, -0.0000000000000000000, -1.000000000000000000 ) ) ;
#726 = CARTESIAN_POINT ( 'NONE',  ( 1.270834875401177300, -0.7337168574084299600, -12.05000000000000200 ) ) ;
#727 = CARTESIAN_POINT ( 'NONE',  ( -6.999999999999999100, 5.099999999999998800, 0.0000000000000000000 ) ) ;
#728 = CARTESIAN_POINT ( 'NONE',  ( 11.19999999999999900, 5.542562584220434000, 0.0000000000000000000 ) ) ;
#729 = DIRECTION ( 'NONE',  ( 5.017367684110839900E-016, -1.000000000000000000, -0.0000000000000000000 ) ) ;
#730 = CARTESIAN_POINT ( 'NONE',  ( 4.638932873401970800, 5.099999999999998800, 2.750000000000000000 ) ) ;
#731 = DIRECTION ( 'NONE',  ( -0.4999999999999978400, -0.8660254037844398200, 0.0000000000000000000 ) ) ;
#732 = CARTESIAN_POINT ( 'NONE',  ( -4.638932873401970800, 5.099999999999998800, -12.05000000000000200 ) ) ;
#733 = DIRECTION ( 'NONE',  ( 1.000000000000000000, -1.239088197126290800E-016, 0.0000000000000000000 ) ) ;
#734 = DIRECTION ( 'NONE',  ( 1.000000000000000000, -1.239088197126290800E-016, 0.0000000000000000000 ) ) ;
#735 = DIRECTION ( 'NONE',  ( 0.0000000000000000000, 1.000000000000000000, 0.0000000000000000000 ) ) ;
#736 = DIRECTION ( 'NONE',  ( -1.000000000000000000, 0.0000000000000000000, 0.0000000000000000000 ) ) ;
#737 = DIRECTION ( 'NONE',  ( -0.0000000000000000000, -0.0000000000000000000, 1.000000000000000000 ) ) ;
#738 = DIRECTION ( 'NONE',  ( 1.000000000000000000, -1.239088197126290800E-016, 0.0000000000000000000 ) ) ;
#739 = CARTESIAN_POINT ( 'NONE',  ( -8.000000000000000000, -9.797174393178825700E-016, 2.750000000000000000 ) ) ;
#740 = CARTESIAN_POINT ( 'NONE',  ( -4.638932873401970800, 5.099999999999998800, 0.0000000000000000000 ) ) ;
#741 = DIRECTION ( 'NONE',  ( -0.0000000000000000000, -0.0000000000000000000, -1.000000000000000000 ) ) ;
#742 = CARTESIAN_POINT ( 'NONE',  ( -8.000000000000000000, -9.797174393178825700E-016, 2.750000000000000000 ) ) ;
#743 = DIRECTION ( 'NONE',  ( 0.4999999999999980600, -0.8660254037844397100, -0.0000000000000000000 ) ) ;
#744 = CARTESIAN_POINT ( 'NONE',  ( 0.0000000000000000000, 5.099999999999998800, -4.650000000000000400 ) ) ;
#745 = DIRECTION ( 'NONE',  ( -0.0000000000000000000, 1.000000000000000000, -0.0000000000000000000 ) ) ;
#746 = DIRECTION ( 'NONE',  ( -0.0000000000000000000, 1.000000000000000000, -0.0000000000000000000 ) ) ;
#747 = DIRECTION ( 'NONE',  ( 0.0000000000000000000, 0.0000000000000000000, 1.000000000000000000 ) ) ;
#748 = CARTESIAN_POINT ( 'NONE',  ( 11.19999999999999600, -5.619451806204137700E-015, -12.05000000000000200 ) ) ;
#749 = CARTESIAN_POINT ( 'NONE',  ( -6.999999999999999100, -9.797174393178825700E-016, -9.300000000000000700 ) ) ;
#750 = CARTESIAN_POINT ( 'NONE',  ( 0.0000000000000000000, 1.799999999999999200, -4.650000000000000400 ) ) ;
#751 = DIRECTION ( 'NONE',  ( 1.000000000000000000, -0.0000000000000000000, -0.0000000000000000000 ) ) ;
#752 = DIRECTION ( 'NONE',  ( -0.0000000000000000000, -0.0000000000000000000, 1.000000000000000000 ) ) ;
#753 = CARTESIAN_POINT ( 'NONE',  ( 7.000000000000000900, -2.694222958124177200E-015, -9.300000000000000700 ) ) ;
#754 = DIRECTION ( 'NONE',  ( 0.0000000000000000000, 0.0000000000000000000, 1.000000000000000000 ) ) ;
#755 = DIRECTION ( 'NONE',  ( -0.4999999999999979500, 0.8660254037844398200, 0.0000000000000000000 ) ) ;
#756 = CARTESIAN_POINT ( 'NONE',  ( 7.467949192431119000, 9.999999999999994700, 2.750000000000000000 ) ) ;
#757 = CARTESIAN_POINT ( 'NONE',  ( 8.000000000000001800, -8.673617379884035500E-016, -12.05000000000000200 ) ) ;
#758 = CARTESIAN_POINT ( 'NONE',  ( -4.638932873401970800, 5.099999999999998800, 2.750000000000000000 ) ) ;
#759 = DIRECTION ( 'NONE',  ( -0.0000000000000000000, 1.000000000000000000, -0.0000000000000000000 ) ) ;
#760 = DIRECTION ( 'NONE',  ( -0.0000000000000000000, -0.0000000000000000000, -1.000000000000000000 ) ) ;
#761 = DIRECTION ( 'NONE',  ( 5.017367684110839900E-016, 1.000000000000000000, 0.0000000000000000000 ) ) ;
#762 = CARTESIAN_POINT ( 'NONE',  ( -6.999999999999999100, 5.099999999999998800, 0.0000000000000000000 ) ) ;
#763 = DIRECTION ( 'NONE',  ( -0.4999999999999979500, 0.8660254037844398200, 0.0000000000000000000 ) ) ;
#764 = CARTESIAN_POINT ( 'NONE',  ( 4.638932873401970800, 5.099999999999998800, 0.0000000000000000000 ) ) ;
#765 = CARTESIAN_POINT ( 'NONE',  ( -9.199999999999999300, 8.999999999999998200, 0.0000000000000000000 ) ) ;
#766 = DIRECTION ( 'NONE',  ( 0.0000000000000000000, 0.0000000000000000000, -1.000000000000000000 ) ) ;
#767 = DIRECTION ( 'NONE',  ( -1.000000000000000000, 0.0000000000000000000, 0.0000000000000000000 ) ) ;
#768 = DIRECTION ( 'NONE',  ( -0.4999999999999979500, -0.8660254037844398200, -0.0000000000000000000 ) ) ;
#769 = CARTESIAN_POINT ( 'NONE',  ( 0.0000000000000000000, 5.099999999999998800, -2.100000000000001000 ) ) ;
#770 = CARTESIAN_POINT ( 'NONE',  ( 8.000000000000000000, -9.797174393178825700E-016, 0.0000000000000000000 ) ) ;
#771 = DIRECTION ( 'NONE',  ( -0.0000000000000000000, -1.000000000000000000, 0.0000000000000000000 ) ) ;
#772 = DIRECTION ( 'NONE',  ( 0.0000000000000000000, 0.0000000000000000000, 1.000000000000000000 ) ) ;
#773 = DIRECTION ( 'NONE',  ( 0.0000000000000000000, 0.0000000000000000000, 1.000000000000000000 ) ) ;
#774 = CARTESIAN_POINT ( 'NONE',  ( -6.999999999999999100, -9.797174393178825700E-016, -4.650000000000000400 ) ) ;
#775 = CARTESIAN_POINT ( 'NONE',  ( 7.000000000000000900, -2.694222958124177200E-015, 0.0000000000000000000 ) ) ;
#776 = DIRECTION ( 'NONE',  ( 5.017367684110839900E-016, 1.000000000000000000, 0.0000000000000000000 ) ) ;
#777 = DIRECTION ( 'NONE',  ( 0.4999999999999980600, 0.8660254037844397100, 0.0000000000000000000 ) ) ;
#778 = CARTESIAN_POINT ( 'NONE',  ( 6.319349805344080900E-016, 5.099999999999997900, -12.05000000000000200 ) ) ;
#779 = DIRECTION ( 'NONE',  ( -0.0000000000000000000, 1.000000000000000000, -0.0000000000000000000 ) ) ;
#780 = CARTESIAN_POINT ( 'NONE',  ( 8.000000000000000000, -9.797174393178825700E-016, 2.750000000000000000 ) ) ;
#781 = CARTESIAN_POINT ( 'NONE',  ( 0.0000000000000000000, 1.799999999999999200, -4.650000000000000400 ) ) ;
#782 = CARTESIAN_POINT ( 'NONE',  ( 11.19999999999999600, -5.619451806204137700E-015, -9.300000000000000700 ) ) ;
#783 = CARTESIAN_POINT ( 'NONE',  ( -1.270834875401173800, -0.7337168574084286200, -9.300000000000000700 ) ) ;
#784 = DIRECTION ( 'NONE',  ( -0.0000000000000000000, -0.0000000000000000000, 1.000000000000000000 ) ) ;
#785 = CARTESIAN_POINT ( 'NONE',  ( 6.000000000000017800, -3.464101615137746400, -12.05000000000000200 ) ) ;
#786 = DIRECTION ( 'NONE',  ( 0.0000000000000000000, 1.000000000000000000, 0.0000000000000000000 ) ) ;
#787 = CARTESIAN_POINT ( 'NONE',  ( -8.000000000000000000, -9.797174393178825700E-016, 0.0000000000000000000 ) ) ;
#788 = DIRECTION ( 'NONE',  ( 0.0000000000000000000, 1.000000000000000000, -0.0000000000000000000 ) ) ;
#789 = CARTESIAN_POINT ( 'NONE',  ( 9.199999999999999300, 8.999999999999998200, 2.750000000000000000 ) ) ;
#790 = DIRECTION ( 'NONE',  ( -1.000000000000000000, 0.0000000000000000000, 0.0000000000000000000 ) ) ;
#791 = CARTESIAN_POINT ( 'NONE',  ( 2.519596434871925000E-029, -1.469576158976824900E-014, -12.05000000000000200 ) ) ;
#792 = DIRECTION ( 'NONE',  ( 0.0000000000000000000, 0.0000000000000000000, 1.000000000000000000 ) ) ;
#793 = DIRECTION ( 'NONE',  ( 0.4999999999999980000, 0.8660254037844397100, 0.0000000000000000000 ) ) ;
#794 = DIRECTION ( 'NONE',  ( 1.000000000000000000, 1.714505518806296000E-015, 0.0000000000000000000 ) ) ;
#795 = CARTESIAN_POINT ( 'NONE',  ( 2.519596434871925000E-029, -1.469576158976824900E-014, -9.300000000000000700 ) ) ;
#796 = DIRECTION ( 'NONE',  ( -0.4999999999999981700, 0.8660254037844397100, 0.0000000000000000000 ) ) ;
#797 = DIRECTION ( 'NONE',  ( 1.000000000000000000, 1.714505518806296000E-015, 0.0000000000000000000 ) ) ;
#798 = DIRECTION ( 'NONE',  ( 0.4999999999999980600, -0.8660254037844397100, -0.0000000000000000000 ) ) ;
#799 = DIRECTION ( 'NONE',  ( -0.0000000000000000000, 1.000000000000000000, -0.0000000000000000000 ) ) ;
#800 = CARTESIAN_POINT ( 'NONE',  ( 8.000000000000000000, -9.797174393178825700E-016, 0.0000000000000000000 ) ) ;
#801 = CARTESIAN_POINT ( 'NONE',  ( -11.19999999999999900, 5.542562584220434000, 2.750000000000000000 ) ) ;
#802 = CARTESIAN_POINT ( 'NONE',  ( 2.519596434871925000E-029, -1.469576158976824900E-014, -9.300000000000000700 ) ) ;
#803 = DIRECTION ( 'NONE',  ( -0.0000000000000000000, -0.0000000000000000000, -1.000000000000000000 ) ) ;
#804 = CARTESIAN_POINT ( 'NONE',  ( 4.638932873401970800, 5.099999999999998800, 2.750000000000000000 ) ) ;
#805 = CARTESIAN_POINT ( 'NONE',  ( 0.0000000000000000000, 1.799999999999999200, -4.650000000000000400 ) ) ;
#806 = DIRECTION ( 'NONE',  ( -0.0000000000000000000, -1.000000000000000000, -0.0000000000000000000 ) ) ;
#807 = DIRECTION ( 'NONE',  ( 1.000000000000000000, -1.239088197126290800E-016, 0.0000000000000000000 ) ) ;
#808 = DIRECTION ( 'NONE',  ( -0.0000000000000000000, -0.0000000000000000000, -1.000000000000000000 ) ) ;
#809 = CARTESIAN_POINT ( 'NONE',  ( 0.0000000000000000000, -8.673617379884035500E-016, -4.650000000000000400 ) ) ;
#810 = DIRECTION ( 'NONE',  ( 0.0000000000000000000, 0.0000000000000000000, 1.000000000000000000 ) ) ;
#811 = CARTESIAN_POINT ( 'NONE',  ( 11.20000000000000100, 8.999999999999998200, 2.750000000000000000 ) ) ;
#812 = CARTESIAN_POINT ( 'NONE',  ( -9.199999999999999300, 8.999999999999998200, 2.750000000000000000 ) ) ;
#813 = DIRECTION ( 'NONE',  ( 0.4999999999999980600, 0.8660254037844397100, 0.0000000000000000000 ) ) ;
#814 = DIRECTION ( 'NONE',  ( 0.0000000000000000000, 0.0000000000000000000, 1.000000000000000000 ) ) ;
#815 = DIRECTION ( 'NONE',  ( 0.0000000000000000000, 0.0000000000000000000, -1.000000000000000000 ) ) ;
#816 = DIRECTION ( 'NONE',  ( -0.0000000000000000000, -0.0000000000000000000, 1.000000000000000000 ) ) ;
#817 = CARTESIAN_POINT ( 'NONE',  ( 11.19999999999999900, 5.542562584220434000, -12.05000000000000200 ) ) ;
#818 = DIRECTION ( 'NONE',  ( 0.0000000000000000000, 1.000000000000000000, -0.0000000000000000000 ) ) ;
#819 = CARTESIAN_POINT ( 'NONE',  ( 11.20000000000000100, 8.999999999999998200, -12.05000000000000200 ) ) ;
#820 = CARTESIAN_POINT ( 'NONE',  ( 11.20000000000000100, 8.999999999999998200, 2.750000000000000000 ) ) ;
#821 = CARTESIAN_POINT ( 'NONE',  ( 11.19999999999999600, -5.619451806204137700E-015, -12.05000000000000200 ) ) ;
#822 = CARTESIAN_POINT ( 'NONE',  ( 0.0000000000000000000, -8.673617379884035500E-016, -4.650000000000000400 ) ) ;
#823 = DIRECTION ( 'NONE',  ( -1.000000000000000000, 0.0000000000000000000, 0.0000000000000000000 ) ) ;
#824 = DIRECTION ( 'NONE',  ( 5.017367684110839900E-016, -1.000000000000000000, 0.0000000000000000000 ) ) ;
#825 = DIRECTION ( 'NONE',  ( -0.0000000000000000000, -0.0000000000000000000, -1.000000000000000000 ) ) ;
#826 = DIRECTION ( 'NONE',  ( 0.0000000000000000000, 0.0000000000000000000, 1.000000000000000000 ) ) ;
#827 = CARTESIAN_POINT ( 'NONE',  ( 3.122849337825749900E-016, 5.099999999999998800, -7.200000000000000200 ) ) ;
#828 = CARTESIAN_POINT ( 'NONE',  ( -7.467949192431120800, 9.999999999999994700, -12.05000000000000200 ) ) ;
#829 = CARTESIAN_POINT ( 'NONE',  ( 9.199999999999999300, 8.999999999999998200, 0.0000000000000000000 ) ) ;
#830 = DIRECTION ( 'NONE',  ( -0.0000000000000000000, -0.0000000000000000000, 1.000000000000000000 ) ) ;
#831 = DIRECTION ( 'NONE',  ( -0.0000000000000000000, 1.000000000000000000, -0.0000000000000000000 ) ) ;
#832 = DIRECTION ( 'NONE',  ( 1.000000000000000000, 0.0000000000000000000, 0.0000000000000000000 ) ) ;
#833 = DIRECTION ( 'NONE',  ( 1.000000000000000000, -0.0000000000000000000, -0.0000000000000000000 ) ) ;
#834 = DIRECTION ( 'NONE',  ( -0.4999999999999978400, -0.8660254037844398200, 0.0000000000000000000 ) ) ;
#835 = DIRECTION ( 'NONE',  ( -1.000000000000000000, 0.0000000000000000000, 0.0000000000000000000 ) ) ;
#836 = DIRECTION ( 'NONE',  ( -0.0000000000000000000, -0.0000000000000000000, 1.000000000000000000 ) ) ;
#837 = CARTESIAN_POINT ( 'NONE',  ( 0.0000000000000000000, 5.099999999999998800, 0.4499999999999990100 ) ) ;
#838 = CARTESIAN_POINT ( 'NONE',  ( 9.199999999999999300, 8.999999999999998200, -12.05000000000000200 ) ) ;
#839 = DIRECTION ( 'NONE',  ( 0.4999999999999980000, -0.8660254037844397100, 0.0000000000000000000 ) ) ;
#840 = CARTESIAN_POINT ( 'NONE',  ( -11.19999999999999600, -5.619451806204137700E-015, -12.05000000000000200 ) ) ;
#841 = DIRECTION ( 'NONE',  ( 5.017367684110839900E-016, 1.000000000000000000, 0.0000000000000000000 ) ) ;
#842 = CARTESIAN_POINT ( 'NONE',  ( 1.270834875401177300, -0.7337168574084299600, -9.300000000000000700 ) ) ;
#843 = DIRECTION ( 'NONE',  ( 0.0000000000000000000, 0.0000000000000000000, -1.000000000000000000 ) ) ;
#844 = DIRECTION ( 'NONE',  ( -0.0000000000000000000, -0.0000000000000000000, -1.000000000000000000 ) ) ;
#845 = CARTESIAN_POINT ( 'NONE',  ( -6.000000000000017800, -3.464101615137746400, -9.300000000000000700 ) ) ;
#846 = CARTESIAN_POINT ( 'NONE',  ( -11.20000000000000100, 8.999999999999998200, 2.750000000000000000 ) ) ;
#847 = CARTESIAN_POINT ( 'NONE',  ( 8.000000000000000000, -9.797174393178825700E-016, 0.0000000000000000000 ) ) ;
#848 = DIRECTION ( 'NONE',  ( 1.000000000000000000, 1.714505518806296000E-015, 0.0000000000000000000 ) ) ;
#849 = CARTESIAN_POINT ( 'NONE',  ( -6.999999999999999100, 5.099999999999998800, -4.650000000000000400 ) ) ;
#850 = DIRECTION ( 'NONE',  ( -0.0000000000000000000, -0.0000000000000000000, 1.000000000000000000 ) ) ;
#851 = DIRECTION ( 'NONE',  ( -0.0000000000000000000, -0.0000000000000000000, 1.000000000000000000 ) ) ;
#852 = DIRECTION ( 'NONE',  ( 5.017367684110839900E-016, 1.000000000000000000, 0.0000000000000000000 ) ) ;
#853 = DIRECTION ( 'NONE',  ( -1.000000000000000000, 0.0000000000000000000, 0.0000000000000000000 ) ) ;
#854 = DIRECTION ( 'NONE',  ( -0.0000000000000000000, -0.0000000000000000000, -1.000000000000000000 ) ) ;
#855 = CARTESIAN_POINT ( 'NONE',  ( 6.245698675651500800E-016, 5.099999999999998800, -9.750000000000000000 ) ) ;
#856 = DIRECTION ( 'NONE',  ( 0.0000000000000000000, 0.0000000000000000000, -1.000000000000000000 ) ) ;
#857 = DIRECTION ( 'NONE',  ( -1.000000000000000000, 0.0000000000000000000, 0.0000000000000000000 ) ) ;
#858 = DIRECTION ( 'NONE',  ( 0.0000000000000000000, 0.0000000000000000000, 1.000000000000000000 ) ) ;
#859 = CARTESIAN_POINT ( 'NONE',  ( -9.199999999999999300, 8.999999999999998200, -12.05000000000000200 ) ) ;
#860 = CARTESIAN_POINT ( 'NONE',  ( -7.199999999999998400, 8.999999999999998200, 2.750000000000000000 ) ) ;
#861 = CARTESIAN_POINT ( 'NONE',  ( -11.20000000000000100, 8.999999999999998200, -12.05000000000000200 ) ) ;
#862 = CARTESIAN_POINT ( 'NONE',  ( 9.199999999999999300, 8.999999999999998200, 0.0000000000000000000 ) ) ;
#863 = DIRECTION ( 'NONE',  ( -0.0000000000000000000, 1.000000000000000000, -0.0000000000000000000 ) ) ;
#864 = DIRECTION ( 'NONE',  ( 0.0000000000000000000, 0.0000000000000000000, -1.000000000000000000 ) ) ;
#865 = DIRECTION ( 'NONE',  ( -0.0000000000000000000, -0.0000000000000000000, -1.000000000000000000 ) ) ;
#866 = CARTESIAN_POINT ( 'NONE',  ( 0.0000000000000000000, 1.799999999999999200, -4.650000000000000400 ) ) ;
#867 = DIRECTION ( 'NONE',  ( -0.0000000000000000000, 1.000000000000000000, -0.0000000000000000000 ) ) ;
#868 = CARTESIAN_POINT ( 'NONE',  ( 0.0000000000000000000, 5.099999999999998800, -4.650000000000000400 ) ) ;
#869 = DIRECTION ( 'NONE',  ( -0.0000000000000000000, -0.0000000000000000000, -1.000000000000000000 ) ) ;
#870 = DIRECTION ( 'NONE',  ( 0.0000000000000000000, 0.0000000000000000000, 1.000000000000000000 ) ) ;
#871 = DIRECTION ( 'NONE',  ( 1.000000000000000000, -5.017367684110839900E-016, 0.0000000000000000000 ) ) ;
#872 = CARTESIAN_POINT ( 'NONE',  ( -11.20000000000000100, 8.999999999999998200, 2.750000000000000000 ) ) ;
#873 = CARTESIAN_POINT ( 'NONE',  ( 9.199999999999999300, 8.999999999999998200, -9.300000000000000700 ) ) ;
#874 = DIRECTION ( 'NONE',  ( -0.0000000000000000000, -0.0000000000000000000, -1.000000000000000000 ) ) ;
#875 = DIRECTION ( 'NONE',  ( -0.0000000000000000000, -0.0000000000000000000, 1.000000000000000000 ) ) ;
#876 = CARTESIAN_POINT ( 'NONE',  ( 7.467949192431118100, 9.999999999999992900, -12.05000000000000200 ) ) ;
#877 = DIRECTION ( 'NONE',  ( -0.0000000000000000000, 1.000000000000000000, -0.0000000000000000000 ) ) ;
#878 = DIRECTION ( 'NONE',  ( -1.000000000000000000, 0.0000000000000000000, 0.0000000000000000000 ) ) ;
#879 = CARTESIAN_POINT ( 'NONE',  ( -7.467949192431119000, 9.999999999999994700, 2.750000000000000000 ) ) ;
#880 = CARTESIAN_POINT ( 'NONE',  ( 7.199999999999998400, 8.999999999999998200, 2.750000000000000000 ) ) ;
#881 = DIRECTION ( 'NONE',  ( -0.0000000000000000000, -0.0000000000000000000, -1.000000000000000000 ) ) ;
#882 = DIRECTION ( 'NONE',  ( -0.0000000000000000000, -0.0000000000000000000, -1.000000000000000000 ) ) ;
#883 = DIRECTION ( 'NONE',  ( -0.0000000000000000000, 1.000000000000000000, -0.0000000000000000000 ) ) ;
#884 = DIRECTION ( 'NONE',  ( 0.0000000000000000000, 0.0000000000000000000, 1.000000000000000000 ) ) ;
#885 = CARTESIAN_POINT ( 'NONE',  ( -9.199999999999999300, 8.999999999999998200, 0.0000000000000000000 ) ) ;
#886 = PLANE ( 'NONE',  #90 ) ;
#887 = DIRECTION ( 'NONE',  ( 0.4999999999999978900, -0.8660254037844397100, 0.0000000000000000000 ) ) ;
#888 = DIRECTION ( 'NONE',  ( 0.4999999999999979500, 0.8660254037844397100, 0.0000000000000000000 ) ) ;
#889 = CARTESIAN_POINT ( 'NONE',  ( 6.000000000000017800, -3.464101615137746400, -12.05000000000000200 ) ) ;
#890 = CARTESIAN_POINT ( 'NONE',  ( 8.000000000000000000, -9.797174393178825700E-016, 2.750000000000000000 ) ) ;
#891 = DIRECTION ( 'NONE',  ( 0.8660254037844398200, -0.4999999999999980000, 0.0000000000000000000 ) ) ;
#892 = PLANE ( 'NONE',  #120 ) ;
#893 = CARTESIAN_POINT ( 'NONE',  ( -4.638932873401970800, 5.099999999999998800, 2.750000000000000000 ) ) ;
#894 = CARTESIAN_POINT ( 'NONE',  ( -9.199999999999999300, 8.999999999999998200, -9.300000000000000700 ) ) ;
#895 = DIRECTION ( 'NONE',  ( 0.0000000000000000000, 1.000000000000000000, -0.0000000000000000000 ) ) ;
#896 = DIRECTION ( 'NONE',  ( 0.0000000000000000000, 0.0000000000000000000, 1.000000000000000000 ) ) ;
#897 = DIRECTION ( 'NONE',  ( -0.0000000000000000000, -0.0000000000000000000, -1.000000000000000000 ) ) ;
#898 = DIRECTION ( 'NONE',  ( -0.8660254037844398200, -0.4999999999999979500, 0.0000000000000000000 ) ) ;
#899 = DIRECTION ( 'NONE',  ( 0.8660254037844398200, -0.4999999999999979500, 0.0000000000000000000 ) ) ;
#900 = DIRECTION ( 'NONE',  ( -1.000000000000000000, 0.0000000000000000000, 0.0000000000000000000 ) ) ;
#901 = PLANE ( 'NONE',  #121 ) ;
#902 = CARTESIAN_POINT ( 'NONE',  ( 0.0000000000000000000, 5.099999999999998800, -4.650000000000000400 ) ) ;
#903 = DIRECTION ( 'NONE',  ( -1.000000000000000000, 0.0000000000000000000, 0.0000000000000000000 ) ) ;
#904 = PLANE ( 'NONE',  #122 ) ;
#905 = DIRECTION ( 'NONE',  ( 0.0000000000000000000, 0.0000000000000000000, 1.000000000000000000 ) ) ;
#906 = DIRECTION ( 'NONE',  ( 0.0000000000000000000, -0.0000000000000000000, -1.000000000000000000 ) ) ;
#907 = CARTESIAN_POINT ( 'NONE',  ( 4.638932873401970800, 5.099999999999998800, 2.750000000000000000 ) ) ;
#908 = DIRECTION ( 'NONE',  ( 0.4999999999999978900, 0.8660254037844397100, 0.0000000000000000000 ) ) ;
#909 = DIRECTION ( 'NONE',  ( 0.0000000000000000000, 0.0000000000000000000, -1.000000000000000000 ) ) ;
#910 = DIRECTION ( 'NONE',  ( -0.0000000000000000000, 1.000000000000000000, -0.0000000000000000000 ) ) ;
#911 = PLANE ( 'NONE',  #119 ) ;
#912 = CARTESIAN_POINT ( 'NONE',  ( -6.000000000000017800, -3.464101615137746400, -12.05000000000000200 ) ) ;
#913 = DIRECTION ( 'NONE',  ( 0.4999999999999979500, -0.8660254037844397100, 0.0000000000000000000 ) ) ;
#914 = CARTESIAN_POINT ( 'NONE',  ( 4.638932873401970800, 5.099999999999998800, 2.750000000000000000 ) ) ;
#915 = DIRECTION ( 'NONE',  ( -0.8660254037844398200, -0.4999999999999980000, 0.0000000000000000000 ) ) ;
#916 = PLANE ( 'NONE',  #81 ) ;
#917 = DIRECTION ( 'NONE',  ( 0.0000000000000000000, -1.000000000000000000, 0.0000000000000000000 ) ) ;
#918 = CARTESIAN_POINT ( 'NONE',  ( 0.0000000000000000000, 5.099999999999998800, -4.650000000000000400 ) ) ;
#919 = DIRECTION ( 'NONE',  ( -0.0000000000000000000, 1.000000000000000000, -0.0000000000000000000 ) ) ;
#920 = PLANE ( 'NONE',  #69 ) ;
#921 = CARTESIAN_POINT ( 'NONE',  ( -6.999999999999999100, 5.099999999999998800, -9.300000000000000700 ) ) ;
#922 = DIRECTION ( 'NONE',  ( 1.000000000000000000, -1.239088197126290800E-016, 0.0000000000000000000 ) ) ;
#923 = CARTESIAN_POINT ( 'NONE',  ( 4.638932873401970800, 5.099999999999998800, 2.750000000000000000 ) ) ;
#924 = DIRECTION ( 'NONE',  ( -0.4999999999999981700, 0.8660254037844397100, 0.0000000000000000000 ) ) ;
#925 = CARTESIAN_POINT ( 'NONE',  ( -11.19999999999999900, 5.542562584220434000, 2.750000000000000000 ) ) ;
#926 = DIRECTION ( 'NONE',  ( 5.017367684110839900E-016, -1.000000000000000000, -0.0000000000000000000 ) ) ;
#927 = DIRECTION ( 'NONE',  ( -0.4999999999999979500, -0.8660254037844398200, -0.0000000000000000000 ) ) ;
#928 = DIRECTION ( 'NONE',  ( 0.4999999999999980000, 0.8660254037844397100, 0.0000000000000000000 ) ) ;
#929 = CARTESIAN_POINT ( 'NONE',  ( -1.270834875401173800, -0.7337168574084286200, -12.05000000000000200 ) ) ;
#930 = CARTESIAN_POINT ( 'NONE',  ( 7.000000000000000900, 5.099999999999997000, -4.650000000000000400 ) ) ;
#931 = CARTESIAN_POINT ( 'NONE',  ( 6.000000000000017800, -3.464101615137746400, -9.300000000000000700 ) ) ;
#932 = DIRECTION ( 'NONE',  ( -0.0000000000000000000, -0.0000000000000000000, 1.000000000000000000 ) ) ;
#933 = CARTESIAN_POINT ( 'NONE',  ( -11.19999999999999600, -5.619451806204137700E-015, -9.300000000000000700 ) ) ;
#934 = CARTESIAN_POINT ( 'NONE',  ( -8.000000000000001800, -8.673617379884035500E-016, -12.05000000000000200 ) ) ;
#935 = CARTESIAN_POINT ( 'NONE',  ( 7.000000000000000900, -2.694222958124177200E-015, -4.650000000000000400 ) ) ;
#936 = DIRECTION ( 'NONE',  ( -0.0000000000000000000, -0.0000000000000000000, -1.000000000000000000 ) ) ;
#937 = DIRECTION ( 'NONE',  ( -1.000000000000000000, 0.0000000000000000000, 0.0000000000000000000 ) ) ;
#938 = CARTESIAN_POINT ( 'NONE',  ( 4.638932873401970800, 5.099999999999997000, -12.05000000000000200 ) ) ;
#939 = CARTESIAN_POINT ( 'NONE',  ( -6.999999999999999100, 5.099999999999998800, -9.300000000000000700 ) ) ;
#940 = CARTESIAN_POINT ( 'NONE',  ( 8.000000000000000000, -9.797174393178825700E-016, 2.750000000000000000 ) ) ;
#941 = CARTESIAN_POINT ( 'NONE',  ( -6.999999999999999100, -9.797174393178825700E-016, 0.0000000000000000000 ) ) ;
#942 = DIRECTION ( 'NONE',  ( 0.4999999999999980000, -0.8660254037844397100, 0.0000000000000000000 ) ) ;
#943 = DIRECTION ( 'NONE',  ( -0.0000000000000000000, -0.0000000000000000000, 1.000000000000000000 ) ) ;
#944 = DIRECTION ( 'NONE',  ( -0.0000000000000000000, -0.0000000000000000000, -1.000000000000000000 ) ) ;
#945 = DIRECTION ( 'NONE',  ( -0.0000000000000000000, -0.0000000000000000000, -1.000000000000000000 ) ) ;
#946 = DIRECTION ( 'NONE',  ( -0.0000000000000000000, -0.0000000000000000000, 1.000000000000000000 ) ) ;
#947 = DIRECTION ( 'NONE',  ( -1.000000000000000000, 0.0000000000000000000, 0.0000000000000000000 ) ) ;
#948 = DIRECTION ( 'NONE',  ( 5.017367684110839900E-016, -1.000000000000000000, 0.0000000000000000000 ) ) ;
#949 = CARTESIAN_POINT ( 'NONE',  ( 11.19999999999999900, 5.542562584220434000, 2.750000000000000000 ) ) ;
#950 = CARTESIAN_POINT ( 'NONE',  ( -6.000000000000017800, -3.464101615137746400, -12.05000000000000200 ) ) ;
#951 = CARTESIAN_POINT ( 'NONE',  ( -9.199999999999999300, 8.999999999999998200, -9.300000000000000700 ) ) ;
#952 = CARTESIAN_POINT ( 'NONE',  ( 8.000000000000000000, -9.797174393178825700E-016, 2.750000000000000000 ) ) ;
#953 = DIRECTION ( 'NONE',  ( 1.000000000000000000, -0.0000000000000000000, -0.0000000000000000000 ) ) ;
#954 = CARTESIAN_POINT ( 'NONE',  ( 9.199999999999999300, 8.999999999999998200, -9.300000000000000700 ) ) ;
#955 = DIRECTION ( 'NONE',  ( -0.0000000000000000000, -0.0000000000000000000, 1.000000000000000000 ) ) ;
#956 = CARTESIAN_POINT ( 'NONE',  ( 11.19999999999999900, 5.542562584220434000, 2.750000000000000000 ) ) ;
#957 = CARTESIAN_POINT ( 'NONE',  ( -11.19999999999999900, 5.542562584220434000, -12.05000000000000200 ) ) ;
#958 = DIRECTION ( 'NONE',  ( 5.017367684110839900E-016, 1.000000000000000000, 0.0000000000000000000 ) ) ;
#959 = DIRECTION ( 'NONE',  ( -0.0000000000000000000, -0.0000000000000000000, -1.000000000000000000 ) ) ;
#960 = DIRECTION ( 'NONE',  ( -0.0000000000000000000, -0.0000000000000000000, 1.000000000000000000 ) ) ;
#961 = CARTESIAN_POINT ( 'NONE',  ( 1.270834875401177300, -0.7337168574084299600, -12.05000000000000200 ) ) ;
#962 = DIRECTION ( 'NONE',  ( -1.000000000000000000, -5.017367684110839900E-016, 0.0000000000000000000 ) ) ;
#963 = DIRECTION ( 'NONE',  ( 1.000000000000000000, 5.017367684110839900E-016, -0.0000000000000000000 ) ) ;
#964 = PLANE ( 'NONE',  #149 ) ;
#965 = DIRECTION ( 'NONE',  ( 0.0000000000000000000, 0.0000000000000000000, 1.000000000000000000 ) ) ;
#966 = CARTESIAN_POINT ( 'NONE',  ( 11.19999999999999900, 5.542562584220434000, 2.750000000000000000 ) ) ;
#967 = DIRECTION ( 'NONE',  ( -1.000000000000000000, 5.017367684110839900E-016, 0.0000000000000000000 ) ) ;
#968 = DIRECTION ( 'NONE',  ( -5.017367684110839900E-016, -1.000000000000000000, 0.0000000000000000000 ) ) ;
#969 = DIRECTION ( 'NONE',  ( 5.017367684110839900E-016, -1.000000000000000000, 0.0000000000000000000 ) ) ;
#970 = DIRECTION ( 'NONE',  ( 0.0000000000000000000, 0.0000000000000000000, -1.000000000000000000 ) ) ;
#971 = DIRECTION ( 'NONE',  ( 1.000000000000000000, 0.0000000000000000000, -0.0000000000000000000 ) ) ;
#972 = PLANE ( 'NONE',  #131 ) ;
#973 = DIRECTION ( 'NONE',  ( -1.000000000000000000, 0.0000000000000000000, -0.0000000000000000000 ) ) ;
#974 = PLANE ( 'NONE',  #157 ) ;
#975 = CARTESIAN_POINT ( 'NONE',  ( 0.0000000000000000000, 5.099999999999998800, -4.650000000000000400 ) ) ;
#976 = CARTESIAN_POINT ( 'NONE',  ( 9.199999999999999300, 8.999999999999998200, 2.750000000000000000 ) ) ;
#977 = DIRECTION ( 'NONE',  ( -0.0000000000000000000, -0.0000000000000000000, -1.000000000000000000 ) ) ;
#978 = CARTESIAN_POINT ( 'NONE',  ( -11.19999999999999600, -5.619451806204137700E-015, -12.05000000000000200 ) ) ;
#979 = DIRECTION ( 'NONE',  ( -0.0000000000000000000, 1.000000000000000000, -0.0000000000000000000 ) ) ;
#980 = DIRECTION ( 'NONE',  ( 1.000000000000000000, -0.0000000000000000000, 0.0000000000000000000 ) ) ;
#981 = PLANE ( 'NONE',  #142 ) ;
#982 = PLANE ( 'NONE',  #137 ) ;
#983 = DIRECTION ( 'NONE',  ( -0.8660254037844398200, 0.4999999999999980600, 0.0000000000000000000 ) ) ;
#984 = PLANE ( 'NONE',  #145 ) ;
#985 = DIRECTION ( 'NONE',  ( -0.4999999999999981100, 0.8660254037844396000, 0.0000000000000000000 ) ) ;
#986 = DIRECTION ( 'NONE',  ( -0.4999999999999980000, -0.8660254037844397100, 0.0000000000000000000 ) ) ;
#987 = CARTESIAN_POINT ( 'NONE',  ( 0.0000000000000000000, 0.0000000000000000000, -9.300000000000000700 ) ) ;
#988 = DIRECTION ( 'NONE',  ( -1.000000000000000000, 0.0000000000000000000, 0.0000000000000000000 ) ) ;
#989 = PLANE ( 'NONE',  #132 ) ;
#990 = CARTESIAN_POINT ( 'NONE',  ( 8.000000000000000000, -9.797174393178825700E-016, 2.750000000000000000 ) ) ;
#991 = PLANE ( 'NONE',  #154 ) ;
#992 = DIRECTION ( 'NONE',  ( 0.8660254037844397100, 0.4999999999999981700, 0.0000000000000000000 ) ) ;
#993 = PLANE ( 'NONE',  #150 ) ;
#994 = DIRECTION ( 'NONE',  ( -0.8660254037844399300, 0.4999999999999978900, 0.0000000000000000000 ) ) ;
#995 = CARTESIAN_POINT ( 'NONE',  ( -9.199999999999999300, 8.999999999999998200, 2.750000000000000000 ) ) ;
#996 = DIRECTION ( 'NONE',  ( 0.0000000000000000000, 0.0000000000000000000, 1.000000000000000000 ) ) ;
#997 = CARTESIAN_POINT ( 'NONE',  ( -1.270834875401173800, -0.7337168574084286200, -12.05000000000000200 ) ) ;
#998 = CARTESIAN_POINT ( 'NONE',  ( -6.999999999999999100, -9.797174393178825700E-016, -4.650000000000000400 ) ) ;
#999 = DIRECTION ( 'NONE',  ( -5.017367684110839900E-016, 1.000000000000000000, 0.0000000000000000000 ) ) ;
#1000 = DIRECTION ( 'NONE',  ( -0.4999999999999978400, -0.8660254037844398200, 0.0000000000000000000 ) ) ;
#1001 = CARTESIAN_POINT ( 'NONE',  ( -11.19999999999999900, 5.542562584220434000, 2.750000000000000000 ) ) ;
#1002 = DIRECTION ( 'NONE',  ( 0.0000000000000000000, -0.0000000000000000000, -1.000000000000000000 ) ) ;
#1003 = PLANE ( 'NONE',  #141 ) ;
#1004 = DIRECTION ( 'NONE',  ( 0.8660254037844398200, 0.4999999999999980600, -0.0000000000000000000 ) ) ;
#1005 = PLANE ( 'NONE',  #127 ) ;
#1006 = CARTESIAN_POINT ( 'NONE',  ( 3.122849337825749900E-016, 1.799999999999999200, -7.200000000000000200 ) ) ;
#1007 = DIRECTION ( 'NONE',  ( -0.4999999999999980000, 0.8660254037844397100, 0.0000000000000000000 ) ) ;
#1008 = PLANE ( 'NONE',  #129 ) ;
#1009 = CARTESIAN_POINT ( 'NONE',  ( -8.000000000000000000, -9.797174393178825700E-016, 2.750000000000000000 ) ) ;
#1010 = CARTESIAN_POINT ( 'NONE',  ( 7.000000000000000900, -2.694222958124177200E-015, -4.650000000000000400 ) ) ;
#1011 = CARTESIAN_POINT ( 'NONE',  ( 7.199999999999998400, 8.999999999999998200, -9.300000000000000700 ) ) ;
#1012 = DIRECTION ( 'NONE',  ( 0.0000000000000000000, 0.0000000000000000000, -1.000000000000000000 ) ) ;
#1013 = CARTESIAN_POINT ( 'NONE',  ( 2.549999999999999400, 1.799999999999999200, -4.650000000000000400 ) ) ;
#1014 = DIRECTION ( 'NONE',  ( 0.0000000000000000000, -1.000000000000000000, 0.0000000000000000000 ) ) ;
#1015 = CARTESIAN_POINT ( 'NONE',  ( 6.245698675651500800E-016, 5.099999999999998800, -9.750000000000000000 ) ) ;
#1016 = DIRECTION ( 'NONE',  ( -1.000000000000000000, 0.0000000000000000000, 0.0000000000000000000 ) ) ;
#1017 = DIRECTION ( 'NONE',  ( 0.0000000000000000000, 0.0000000000000000000, 1.000000000000000000 ) ) ;
#1018 = CARTESIAN_POINT ( 'NONE',  ( 8.000000000000000000, -9.797174393178825700E-016, 0.0000000000000000000 ) ) ;
#1019 = CARTESIAN_POINT ( 'NONE',  ( 7.467949192431119000, 9.999999999999994700, 2.750000000000000000 ) ) ;
#1020 = CARTESIAN_POINT ( 'NONE',  ( 7.000000000000000900, 5.099999999999997000, 0.0000000000000000000 ) ) ;
#1021 = CARTESIAN_POINT ( 'NONE',  ( -8.000000000000000000, -9.797174393178825700E-016, 0.0000000000000000000 ) ) ;
#1022 = CARTESIAN_POINT ( 'NONE',  ( -8.000000000000000000, -9.797174393178825700E-016, 2.750000000000000000 ) ) ;
#1023 = CARTESIAN_POINT ( 'NONE',  ( 7.467949192431119000, 9.999999999999992900, 0.0000000000000000000 ) ) ;
#1024 = CARTESIAN_POINT ( 'NONE',  ( 11.20000000000000100, 8.999999999999998200, -12.05000000000000200 ) ) ;
#1025 = CARTESIAN_POINT ( 'NONE',  ( 8.000000000000000000, -9.797174393178825700E-016, 2.750000000000000000 ) ) ;
#1026 = CARTESIAN_POINT ( 'NONE',  ( -7.467949192431119000, 9.999999999999994700, 2.750000000000000000 ) ) ;
#1027 = CARTESIAN_POINT ( 'NONE',  ( -7.200000000000000200, 8.999999999999998200, 0.0000000000000000000 ) ) ;
#1028 = CARTESIAN_POINT ( 'NONE',  ( -11.19999999999999900, 5.542562584220434000, -12.05000000000000200 ) ) ;
#1029 = CARTESIAN_POINT ( 'NONE',  ( -11.19999999999999900, 5.542562584220434000, -9.300000000000000700 ) ) ;
#1030 = CARTESIAN_POINT ( 'NONE',  ( -8.000000000000001800, -8.673617379884035500E-016, -9.300000000000000700 ) ) ;
#1031 = CARTESIAN_POINT ( 'NONE',  ( -4.638932873401970800, 5.099999999999998800, 2.750000000000000000 ) ) ;
#1032 = CARTESIAN_POINT ( 'NONE',  ( 7.199999999999998400, 8.999999999999998200, 0.0000000000000000000 ) ) ;
#1033 = CARTESIAN_POINT ( 'NONE',  ( -6.999999999999999100, 5.099999999999998800, 0.0000000000000000000 ) ) ;
#1034 = CARTESIAN_POINT ( 'NONE',  ( -7.467949192431120800, 9.999999999999994700, -12.05000000000000200 ) ) ;
#1035 = CARTESIAN_POINT ( 'NONE',  ( -6.999999999999999100, -9.797174393178825700E-016, -9.300000000000000700 ) ) ;
#1036 = CARTESIAN_POINT ( 'NONE',  ( -7.199999999999998400, 8.999999999999998200, -9.300000000000000700 ) ) ;
#1037 = CARTESIAN_POINT ( 'NONE',  ( -7.467949192431120800, 9.999999999999994700, -9.300000000000000700 ) ) ;
#1038 = CARTESIAN_POINT ( 'NONE',  ( 0.0000000000000000000, 1.799999999999999200, 0.4499999999999990100 ) ) ;
#1039 = CARTESIAN_POINT ( 'NONE',  ( 8.000000000000001800, -8.673617379884035500E-016, -12.05000000000000200 ) ) ;
#1040 = CARTESIAN_POINT ( 'NONE',  ( -11.19999999999999900, 5.542562584220434000, 2.750000000000000000 ) ) ;
#1041 = CARTESIAN_POINT ( 'NONE',  ( -7.467949192431120800, 9.999999999999994700, 0.0000000000000000000 ) ) ;
#1042 = CARTESIAN_POINT ( 'NONE',  ( -6.999999999999999100, -9.797174393178825700E-016, 0.0000000000000000000 ) ) ;
#1043 = CARTESIAN_POINT ( 'NONE',  ( -4.638932873401969900, 5.099999999999998800, -9.300000000000000700 ) ) ;
#1044 = CARTESIAN_POINT ( 'NONE',  ( -11.19999999999999900, 5.542562584220434000, 0.0000000000000000000 ) ) ;
#1045 = CARTESIAN_POINT ( 'NONE',  ( 4.638932873401970800, 5.099999999999997000, 0.0000000000000000000 ) ) ;
#1046 = CARTESIAN_POINT ( 'NONE',  ( -11.20000000000000100, 8.999999999999998200, -12.05000000000000200 ) ) ;
#1047 = CARTESIAN_POINT ( 'NONE',  ( -6.999999999999999100, 5.099999999999998800, -9.300000000000000700 ) ) ;
#1048 = CARTESIAN_POINT ( 'NONE',  ( -8.000000000000001800, -8.673617379884035500E-016, -12.05000000000000200 ) ) ;
#1049 = CARTESIAN_POINT ( 'NONE',  ( -11.20000000000000100, 8.999999999999998200, 2.750000000000000000 ) ) ;
#1050 = CARTESIAN_POINT ( 'NONE',  ( 7.000000000000000900, -2.694222958124177200E-015, 0.0000000000000000000 ) ) ;
#1051 = CARTESIAN_POINT ( 'NONE',  ( 7.000000000000000900, -2.694222958124177200E-015, -9.300000000000000700 ) ) ;
#1052 = CARTESIAN_POINT ( 'NONE',  ( 4.638932873401967200, 5.099999999999997000, -9.300000000000000700 ) ) ;
#1053 = CARTESIAN_POINT ( 'NONE',  ( 11.19999999999999900, 5.542562584220434000, 0.0000000000000000000 ) ) ;
#1054 =( NAMED_UNIT ( * ) PLANE_ANGLE_UNIT ( ) SI_UNIT ( $, .RADIAN. ) );
#1055 = APPLICATION_PROTOCOL_DEFINITION ( 'international standard', 'config_control_design', 1994, #1097 ) ;
#1056 =( NAMED_UNIT ( * ) SI_UNIT ( $, .STERADIAN. ) SOLID_ANGLE_UNIT ( ) );
#1057 = DIRECTION ( 'NONE',  ( 0.0000000000000000000, 0.0000000000000000000, 1.000000000000000000 ) ) ;
#1058 = APPLICATION_CONTEXT ( 'configuration controlled 3d designs of mechanical parts and assemblies' ) ;
#1059 = APPROVAL_STATUS ( 'not_yet_approved' ) ;
#1060 = PERSON_AND_ORGANIZATION_ROLE ( 'creator' ) ;
#1061 = APPROVAL_ROLE ( '' ) ;
#1062 = PERSON_AND_ORGANIZATION_ROLE ( 'creator' ) ;
#1063 = PERSON_AND_ORGANIZATION_ROLE ( 'design_supplier' ) ;
#1064 = CARTESIAN_POINT ( 'NONE',  ( 7.000000000000000900, 5.099999999999997000, -9.300000000000000700 ) ) ;
#1065 = SECURITY_CLASSIFICATION_LEVEL ( 'unclassified' ) ;
#1066 = APPROVAL_STATUS ( 'not_yet_approved' ) ;
#1067 = DATE_TIME_ROLE ( 'classification_date' ) ;
#1068 = CARTESIAN_POINT ( 'NONE',  ( 11.19999999999999900, 5.542562584220434000, 2.750000000000000000 ) ) ;
#1069 = CARTESIAN_POINT ( 'NONE',  ( 0.0000000000000000000, 5.099999999999998800, 0.4499999999999990100 ) ) ;
#1070 = CARTESIAN_POINT ( 'NONE',  ( -11.20000000000000100, 8.999999999999998200, 0.0000000000000000000 ) ) ;
#1071 = MECHANICAL_CONTEXT ( 'NONE', #1097, 'mechanical' ) ;
#1072 = CARTESIAN_POINT ( 'NONE',  ( 3.122849337825749900E-016, -8.673617379884035500E-016, -7.200000000000000200 ) ) ;
#1073 = CARTESIAN_POINT ( 'NONE',  ( -4.638932873401970800, 5.099999999999998800, 0.0000000000000000000 ) ) ;
#1074 = CARTESIAN_POINT ( 'NONE',  ( 11.20000000000000100, 8.999999999999998200, 0.0000000000000000000 ) ) ;
#1075 = CARTESIAN_POINT ( 'NONE',  ( 11.20000000000000100, 8.999999999999998200, 2.750000000000000000 ) ) ;
#1076 = CARTESIAN_POINT ( 'NONE',  ( 0.0000000000000000000, -8.673617379884035500E-016, -2.100000000000001000 ) ) ;
#1077 = CARTESIAN_POINT ( 'NONE',  ( -11.20000000000000100, 8.999999999999998200, -9.300000000000000700 ) ) ;
#1078 = PERSON_AND_ORGANIZATION_ROLE ( 'design_owner' ) ;
#1079 = APPLICATION_PROTOCOL_DEFINITION ( 'international standard', 'config_control_design', 1994, #1058 ) ;
#1080 = APPROVAL_ROLE ( '' ) ;
#1081 = CARTESIAN_POINT ( 'NONE',  ( 0.0000000000000000000, 0.0000000000000000000, 0.0000000000000000000 ) ) ;
#1082 = DATE_TIME_ROLE ( 'creation_date' ) ;
#1083 = APPROVAL_STATUS ( 'not_yet_approved' ) ;
#1084 = CARTESIAN_POINT ( 'NONE',  ( 4.638932873401970800, 5.099999999999997000, -12.05000000000000200 ) ) ;
#1085 = CARTESIAN_POINT ( 'NONE',  ( 7.467949192431118100, 9.999999999999992900, -12.05000000000000200 ) ) ;
#1086 = CARTESIAN_POINT ( 'NONE',  ( 4.638932873401970800, 5.099999999999998800, 2.750000000000000000 ) ) ;
#1087 =( LENGTH_UNIT ( ) NAMED_UNIT ( * ) SI_UNIT ( .MILLI., .METRE. ) );
#1088 = PERSON_AND_ORGANIZATION_ROLE ( 'classification_officer' ) ;
#1089 = DIRECTION ( 'NONE',  ( 1.000000000000000000, 0.0000000000000000000, 0.0000000000000000000 ) ) ;
#1090 = CARTESIAN_POINT ( 'NONE',  ( 8.000000000000001800, -8.673617379884035500E-016, -9.300000000000000700 ) ) ;
#1091 = CARTESIAN_POINT ( 'NONE',  ( 11.19999999999999900, 5.542562584220434000, -9.300000000000000700 ) ) ;
#1092 = CARTESIAN_POINT ( 'NONE',  ( -4.638932873401970800, 5.099999999999998800, -12.05000000000000200 ) ) ;
#1093 = CARTESIAN_POINT ( 'NONE',  ( 11.20000000000000100, 8.999999999999996400, -9.300000000000000700 ) ) ;
#1094 = CARTESIAN_POINT ( 'NONE',  ( 6.245698675651500800E-016, 1.799999999999999200, -9.750000000000000000 ) ) ;
#1095 = CARTESIAN_POINT ( 'NONE',  ( 11.19999999999999900, 5.542562584220434000, -12.05000000000000200 ) ) ;
#1096 = CARTESIAN_POINT ( 'NONE',  ( 0.0000000000000000000, 1.799999999999999200, -2.100000000000001000 ) ) ;
#1097 = APPLICATION_CONTEXT ( 'configuration controlled 3d designs of mechanical parts and assemblies' ) ;
#1098 = CARTESIAN_POINT ( 'NONE',  ( 7.467949192431118100, 9.999999999999992900, -9.300000000000000700 ) ) ;
#1099 = APPROVAL_ROLE ( '' ) ;
#1100 = CARTESIAN_POINT ( 'NONE',  ( -9.199999999999999300, 8.999999999999998200, 0.0000000000000000000 ) ) ;
#1101 = DIRECTION ( 'NONE',  ( -1.000000000000000000, 0.0000000000000000000, 0.0000000000000000000 ) ) ;
#1102 = PLANE ( 'NONE',  #156 ) ;
#1103 = DIRECTION ( 'NONE',  ( 1.000000000000000000, 0.0000000000000000000, -0.0000000000000000000 ) ) ;
#1104 = DIRECTION ( 'NONE',  ( -0.0000000000000000000, -0.0000000000000000000, -1.000000000000000000 ) ) ;
#1105 = DIRECTION ( 'NONE',  ( -1.000000000000000000, 0.0000000000000000000, 0.0000000000000000000 ) ) ;
#1106 = DIRECTION ( 'NONE',  ( -1.000000000000000000, 0.0000000000000000000, -0.0000000000000000000 ) ) ;
#1107 = CARTESIAN_POINT ( 'NONE',  ( -9.199999999999999300, 8.999999999999998200, 2.750000000000000000 ) ) ;
#1108 = PLANE ( 'NONE',  #124 ) ;
#1109 = DIRECTION ( 'NONE',  ( 1.000000000000000000, 0.0000000000000000000, -0.0000000000000000000 ) ) ;
#1110 = CARTESIAN_POINT ( 'NONE',  ( 0.0000000000000000000, 5.099999999999998800, -4.650000000000000400 ) ) ;
#1111 = DIRECTION ( 'NONE',  ( 0.0000000000000000000, 0.0000000000000000000, 1.000000000000000000 ) ) ;
#1112 = CARTESIAN_POINT ( 'NONE',  ( 0.0000000000000000000, 0.0000000000000000000, -12.05000000000000200 ) ) ;
#1113 = CARTESIAN_POINT ( 'NONE',  ( -9.199999999999999300, 8.999999999999998200, 2.750000000000000000 ) ) ;
#1114 = DIRECTION ( 'NONE',  ( 0.0000000000000000000, 0.0000000000000000000, -1.000000000000000000 ) ) ;
#1115 = DIRECTION ( 'NONE',  ( -1.000000000000000000, 0.0000000000000000000, 0.0000000000000000000 ) ) ;
#1116 = DIRECTION ( 'NONE',  ( 0.0000000000000000000, 0.0000000000000000000, 1.000000000000000000 ) ) ;
#1117 = CARTESIAN_POINT ( 'NONE',  ( -9.199999999999999300, 8.999999999999998200, 0.0000000000000000000 ) ) ;
#1118 = DIRECTION ( 'NONE',  ( -0.0000000000000000000, 1.000000000000000000, -0.0000000000000000000 ) ) ;
#1119 = CARTESIAN_POINT ( 'NONE',  ( 0.0000000000000000000, 0.0000000000000000000, -9.300000000000000700 ) ) ;
#1120 = CARTESIAN_POINT ( 'NONE',  ( 9.199999999999999300, 8.999999999999998200, 2.750000000000000000 ) ) ;
#1121 = PLANE ( 'NONE',  #126 ) ;
#1122 = DIRECTION ( 'NONE',  ( -1.000000000000000000, 0.0000000000000000000, -0.0000000000000000000 ) ) ;
#1123 = DIRECTION ( 'NONE',  ( -0.0000000000000000000, -0.0000000000000000000, -1.000000000000000000 ) ) ;
#1124 = DIRECTION ( 'NONE',  ( 0.0000000000000000000, 0.0000000000000000000, 1.000000000000000000 ) ) ;
#1125 = PLANE ( 'NONE',  #84 ) ;
#1126 = DIRECTION ( 'NONE',  ( 0.0000000000000000000, 0.0000000000000000000, -1.000000000000000000 ) ) ;
#1127 = DIRECTION ( 'NONE',  ( -0.0000000000000000000, -0.0000000000000000000, -1.000000000000000000 ) ) ;
ENDSEC;
END-ISO-10303-21;
