ISO-10303-21;
HEADER;
FILE_DESCRIPTION (( 'STEP AP203' ),
    '1' );
FILE_NAME ('ALP3531.STEP',
    '2017-03-02T21:44:41',
    ( '' ),
    ( '' ),
    'SwSTEP 2.0',
    'SolidWorks 2012',
    '' );
FILE_SCHEMA (( 'CONFIG_CONTROL_DESIGN' ));
ENDSEC;

DATA;
#1 = PERSON ( 'UNSPECIFIED', 'UNSPECIFIED', 'UNSPECIFIED', ('UNSPECIFIED'), ('UNSPECIFIED'), ('UNSPECIFIED') ) ;
#2 = PRODUCT ( 'ALP3531', 'ALP3531', '', ( #87 ) ) ;
#3 = DIRECTION ( 'NONE',  ( 0.7071067811865513500, -0.7071067811865435800, 0.0000000000000000000 ) ) ;
#4 = CARTESIAN_POINT ( 'NONE',  ( -21.79999999999999400, -4.500000000000002700, 3.499999999999997800 ) ) ;
#5 = CARTESIAN_POINT ( 'NONE',  ( -31.00000000000000400, 19.39999999999999900, 8.000000000000000000 ) ) ;
#6 = CARTESIAN_POINT ( 'NONE',  ( -30.99002487577580900, 19.99999999999999600, 8.000000000000000000 ) ) ;
#7 = DIRECTION ( 'NONE',  ( -1.224646799147353200E-016, 1.000000000000000000, -0.0000000000000000000 ) ) ;
#8 = DIRECTION ( 'NONE',  ( -0.0000000000000000000, -0.0000000000000000000, -1.000000000000000000 ) ) ;
#9 = DIRECTION ( 'NONE',  ( 0.7071067811865465700, -0.7071067811865483500, -0.0000000000000000000 ) ) ;
#10 = DIRECTION ( 'NONE',  ( -2.409338161078901200E-016, 1.000000000000000000, -0.0000000000000000000 ) ) ;
#11 = CARTESIAN_POINT ( 'NONE',  ( -28.60000000000000500, 16.99999999999999300, 8.000000000000000000 ) ) ;
#12 = DIRECTION ( 'NONE',  ( -0.0000000000000000000, -0.0000000000000000000, -1.000000000000000000 ) ) ;
#13 = CARTESIAN_POINT ( 'NONE',  ( -19.29999999999999400, -4.500000000000002700, -4.336808689942017700E-016 ) ) ;
#14 = DIRECTION ( 'NONE',  ( 0.0000000000000000000, 0.0000000000000000000, 1.000000000000000000 ) ) ;
#15 = DIRECTION ( 'NONE',  ( -1.224646799147353200E-016, 1.000000000000000000, -0.0000000000000000000 ) ) ;
#16 = DIRECTION ( 'NONE',  ( -0.0000000000000000000, -0.0000000000000000000, -1.000000000000000000 ) ) ;
#17 = CARTESIAN_POINT ( 'NONE',  ( -15.79999999999999500, -4.500000000000001800, -4.336808689942017700E-016 ) ) ;
#18 = CARTESIAN_POINT ( 'NONE',  ( -11.29999999999999400, -4.500000000000001800, -3.500000000000000400 ) ) ;
#19 = CARTESIAN_POINT ( 'NONE',  ( 2.199999999999998800, 16.99999999999999600, 8.000000000000000000 ) ) ;
#20 = DIRECTION ( 'NONE',  ( -0.0000000000000000000, -0.0000000000000000000, -1.000000000000000000 ) ) ;
#21 = CARTESIAN_POINT ( 'NONE',  ( -10.80000000000002600, -7.500000000000002700, -17.81782106327635500 ) ) ;
#22 = DIRECTION ( 'NONE',  ( -1.224646799147353200E-016, 1.000000000000000000, -0.0000000000000000000 ) ) ;
#23 = CARTESIAN_POINT ( 'NONE',  ( -21.79999999999999400, -4.500000000000001800, -3.500000000000001300 ) ) ;
#24 = CARTESIAN_POINT ( 'NONE',  ( -7.799999999999992700, -4.500000000000000900, 3.499999999999997800 ) ) ;
#25 = DIRECTION ( 'NONE',  ( -0.0000000000000000000, -0.0000000000000000000, -1.000000000000000000 ) ) ;
#26 = CARTESIAN_POINT ( 'NONE',  ( -19.29999999999999400, -4.500000000000002700, 3.499999999999999600 ) ) ;
#27 = CARTESIAN_POINT ( 'NONE',  ( -32.98009925619580700, 18.19900743804197800, 8.000000000000000000 ) ) ;
#28 = DIRECTION ( 'NONE',  ( 1.224646799147353200E-016, -1.000000000000000000, -0.0000000000000000000 ) ) ;
#29 = CARTESIAN_POINT ( 'NONE',  ( -19.29999999999999400, -4.500000000000002700, -4.336808689942017700E-016 ) ) ;
#30 = DIRECTION ( 'NONE',  ( -0.0000000000000000000, -0.0000000000000000000, -1.000000000000000000 ) ) ;
#31 = DIRECTION ( 'NONE',  ( -0.7071067811865513500, 0.7071067811865435800, -6.814637407481696100E-017 ) ) ;
#32 = CARTESIAN_POINT ( 'NONE',  ( 2.199999999999998800, 3.999999999999995600, 8.000000000000000000 ) ) ;
#33 = DIRECTION ( 'NONE',  ( -1.000000000000000000, 0.0000000000000000000, 0.0000000000000000000 ) ) ;
#34 = DIRECTION ( 'NONE',  ( 0.0000000000000000000, 0.0000000000000000000, 1.000000000000000000 ) ) ;
#35 = DIRECTION ( 'NONE',  ( -1.858632295689438600E-016, 1.000000000000000000, -0.0000000000000000000 ) ) ;
#36 = DIRECTION ( 'NONE',  ( -1.858632295689438600E-016, 1.000000000000000000, -0.0000000000000000000 ) ) ;
#37 = DIRECTION ( 'NONE',  ( -1.000000000000000000, -1.239088197126290800E-016, 0.0000000000000000000 ) ) ;
#38 = CARTESIAN_POINT ( 'NONE',  ( 2.199999999999998800, 9.999999999999989300, -8.000000000000000000 ) ) ;
#39 = CARTESIAN_POINT ( 'NONE',  ( 4.199999999999996600, 17.99999999999998200, 8.000000000000000000 ) ) ;
#40 = CARTESIAN_POINT ( 'NONE',  ( -30.99002487577582300, 17.99999999999999600, -8.000000000000000000 ) ) ;
#41 = DIRECTION ( 'NONE',  ( 0.7071067811865470200, -0.7071067811865481300, -0.0000000000000000000 ) ) ;
#42 = DIRECTION ( 'NONE',  ( 0.7071067811865465700, -0.7071067811865483500, -0.0000000000000000000 ) ) ;
#43 = CARTESIAN_POINT ( 'NONE',  ( -18.79999999999995800, -7.500000000000003600, 3.499999999999997800 ) ) ;
#44 = CARTESIAN_POINT ( 'NONE',  ( -30.99002487577580900, 19.99999999999999300, -8.000000000000000000 ) ) ;
#45 = DIRECTION ( 'NONE',  ( 1.000000000000000000, 1.084202172485513300E-016, 0.0000000000000000000 ) ) ;
#46 = DIRECTION ( 'NONE',  ( -1.000000000000000000, -1.045328216817890700E-016, -0.0000000000000000000 ) ) ;
#47 = CARTESIAN_POINT ( 'NONE',  ( -7.799999999999994500, -4.500000000000000900, -3.500000000000001300 ) ) ;
#48 = DIRECTION ( 'NONE',  ( -0.0000000000000000000, -0.0000000000000000000, -1.000000000000000000 ) ) ;
#49 = DIRECTION ( 'NONE',  ( 1.000000000000000000, 4.336808689942017700E-016, -0.0000000000000000000 ) ) ;
#50 = DIRECTION ( 'NONE',  ( -0.0000000000000000000, -0.0000000000000000000, -1.000000000000000000 ) ) ;
#51 = CARTESIAN_POINT ( 'NONE',  ( 2.199999999999998800, 11.59999999999999400, 8.000000000000000000 ) ) ;
#52 = DIRECTION ( 'NONE',  ( -0.0000000000000000000, -1.000000000000000000, -0.0000000000000000000 ) ) ;
#53 = DIRECTION ( 'NONE',  ( -1.000000000000000000, -1.084202172485513300E-016, -9.637352644315592800E-017 ) ) ;
#54 = DIRECTION ( 'NONE',  ( -1.000000000000000000, 0.0000000000000000000, 0.0000000000000000000 ) ) ;
#55 = CARTESIAN_POINT ( 'NONE',  ( 4.199999999999999300, 3.999999999999996400, -8.000000000000000000 ) ) ;
#56 = CARTESIAN_POINT ( 'NONE',  ( -18.79999999999995800, -7.500000000000003600, -3.500000000000001300 ) ) ;
#57 = CARTESIAN_POINT ( 'NONE',  ( -31.00000000000000400, 19.39999999999999900, 8.000000000000000000 ) ) ;
#58 = DIRECTION ( 'NONE',  ( 0.0000000000000000000, 0.0000000000000000000, 1.000000000000000000 ) ) ;
#59 = CARTESIAN_POINT ( 'NONE',  ( 4.199999999999996600, 17.99999999999998200, -8.000000000000000000 ) ) ;
#60 = CARTESIAN_POINT ( 'NONE',  ( -7.799999999999992700, -4.500000000000000900, -17.81782106327635500 ) ) ;
#61 = CARTESIAN_POINT ( 'NONE',  ( -28.60000000000000500, 16.99999999999999300, 8.000000000000000000 ) ) ;
#62 = DIRECTION ( 'NONE',  ( -1.224646799147353200E-016, 1.000000000000000000, -0.0000000000000000000 ) ) ;
#63 = CARTESIAN_POINT ( 'NONE',  ( -34.79999999999999700, -4.261770861032789000E-015, 8.000000000000000000 ) ) ;
#64 = CARTESIAN_POINT ( 'NONE',  ( -7.799999999999992700, -4.500000000000000900, 3.499999999999997800 ) ) ;
#65 = DIRECTION ( 'NONE',  ( 0.7071067811865511300, 0.7071067811865440200, -0.0000000000000000000 ) ) ;
#66 = CARTESIAN_POINT ( 'NONE',  ( -14.79999999999999400, -4.500000000000001800, 3.499999999999998200 ) ) ;
#67 = DIRECTION ( 'NONE',  ( 1.000000000000000000, 1.239088197126290800E-016, 9.637352644315592800E-017 ) ) ;
#68 =( LENGTH_UNIT ( ) NAMED_UNIT ( * ) SI_UNIT ( .MILLI., .METRE. ) );
#69 = PERSON_AND_ORGANIZATION_ROLE ( 'design_owner' ) ;
#70 = APPROVAL_ROLE ( '' ) ;
#71 = SECURITY_CLASSIFICATION_LEVEL ( 'unclassified' ) ;
#72 =( NAMED_UNIT ( * ) PLANE_ANGLE_UNIT ( ) SI_UNIT ( $, .RADIAN. ) );
#73 = APPLICATION_PROTOCOL_DEFINITION ( 'international standard', 'config_control_design', 1994, #82 ) ;
#74 = APPROVAL_ROLE ( '' ) ;
#75 = APPLICATION_PROTOCOL_DEFINITION ( 'international standard', 'config_control_design', 1994, #84 ) ;
#76 =( NAMED_UNIT ( * ) SI_UNIT ( $, .STERADIAN. ) SOLID_ANGLE_UNIT ( ) );
#77 = APPROVAL_ROLE ( '' ) ;
#78 = CARTESIAN_POINT ( 'NONE',  ( 0.0000000000000000000, 0.0000000000000000000, 0.0000000000000000000 ) ) ;
#79 = PERSON_AND_ORGANIZATION_ROLE ( 'design_supplier' ) ;
#80 = DATE_TIME_ROLE ( 'creation_date' ) ;
#81 = PERSON_AND_ORGANIZATION_ROLE ( 'classification_officer' ) ;
#82 = APPLICATION_CONTEXT ( 'configuration controlled 3d designs of mechanical parts and assemblies' ) ;
#83 = DIRECTION ( 'NONE',  ( 1.000000000000000000, 0.0000000000000000000, 0.0000000000000000000 ) ) ;
#84 = APPLICATION_CONTEXT ( 'configuration controlled 3d designs of mechanical parts and assemblies' ) ;
#85 = DIRECTION ( 'NONE',  ( -0.09950371902099855400, -0.9950371902099891500, -0.0000000000000000000 ) ) ;
#86 = DIRECTION ( 'NONE',  ( 0.0000000000000000000, 0.0000000000000000000, 1.000000000000000000 ) ) ;
#87 = MECHANICAL_CONTEXT ( 'NONE', #82, 'mechanical' ) ;
#88 = APPROVAL_STATUS ( 'not_yet_approved' ) ;
#89 = PERSON_AND_ORGANIZATION_ROLE ( 'creator' ) ;
#90 = APPROVAL_STATUS ( 'not_yet_approved' ) ;
#91 = PERSON_AND_ORGANIZATION_ROLE ( 'creator' ) ;
#92 = DATE_TIME_ROLE ( 'classification_date' ) ;
#93 = APPROVAL_STATUS ( 'not_yet_approved' ) ;
#94 = CARTESIAN_POINT ( 'NONE',  ( -30.99002487577580900, 19.99999999999999300, 8.000000000000000000 ) ) ;
#95 = CARTESIAN_POINT ( 'NONE',  ( -28.99999999999999600, 4.999999999999997300, -8.000000000000000000 ) ) ;
#96 = DIRECTION ( 'NONE',  ( -0.0000000000000000000, -0.0000000000000000000, -1.000000000000000000 ) ) ;
#97 = CARTESIAN_POINT ( 'NONE',  ( 0.0000000000000000000, 0.0000000000000000000, 8.000000000000000000 ) ) ;
#98 = DIRECTION ( 'NONE',  ( 1.000000000000000000, 1.224646799147353200E-016, -0.0000000000000000000 ) ) ;
#99 = DIRECTION ( 'NONE',  ( 1.837630800822889100E-017, 1.000000000000000000, -0.0000000000000000000 ) ) ;
#100 = DIRECTION ( 'NONE',  ( -1.000000000000000000, -1.045328216817890700E-016, -0.0000000000000000000 ) ) ;
#101 = DIRECTION ( 'NONE',  ( -0.0000000000000000000, -0.0000000000000000000, -1.000000000000000000 ) ) ;
#102 = CARTESIAN_POINT ( 'NONE',  ( 2.199999999999996600, 17.99999999999999600, -8.000000000000000000 ) ) ;
#103 = DIRECTION ( 'NONE',  ( -0.0000000000000000000, -0.0000000000000000000, -1.000000000000000000 ) ) ;
#104 = DIRECTION ( 'NONE',  ( 1.000000000000000000, 0.0000000000000000000, 0.0000000000000000000 ) ) ;
#105 = CARTESIAN_POINT ( 'NONE',  ( 2.168404344971008900E-016, 11.79999999999999900, 8.000000000000000000 ) ) ;
#106 = CARTESIAN_POINT ( 'NONE',  ( -28.99999999999998600, 2.999999999999996400, -8.000000000000000000 ) ) ;
#107 = CARTESIAN_POINT ( 'NONE',  ( 2.199999999999998800, 9.999999999999989300, 8.000000000000000000 ) ) ;
#108 = CARTESIAN_POINT ( 'NONE',  ( 2.199999999999998800, 11.59999999999999400, -8.000000000000000000 ) ) ;
#109 = DIRECTION ( 'NONE',  ( -1.000000000000000000, 0.0000000000000000000, 0.0000000000000000000 ) ) ;
#110 = DIRECTION ( 'NONE',  ( -0.0000000000000000000, -1.000000000000000000, -0.0000000000000000000 ) ) ;
#111 = CARTESIAN_POINT ( 'NONE',  ( -4.999999999999999100, 4.999999999999997300, -8.000000000000000000 ) ) ;
#112 = DIRECTION ( 'NONE',  ( 0.0000000000000000000, 0.0000000000000000000, 1.000000000000000000 ) ) ;
#113 = CARTESIAN_POINT ( 'NONE',  ( -2.999999999999999100, 5.000000000000011500, 8.000000000000000000 ) ) ;
#114 = CARTESIAN_POINT ( 'NONE',  ( -28.99999999999999600, 4.999999999999997300, 8.000000000000000000 ) ) ;
#115 = DIRECTION ( 'NONE',  ( 1.000000000000000000, 0.0000000000000000000, 0.0000000000000000000 ) ) ;
#116 = CARTESIAN_POINT ( 'NONE',  ( -15.79999999999999500, -1.934941942652817200E-015, -4.336808689942017700E-016 ) ) ;
#117 = DIRECTION ( 'NONE',  ( -0.0000000000000000000, -1.000000000000000000, -0.0000000000000000000 ) ) ;
#118 = CARTESIAN_POINT ( 'NONE',  ( -31.00000000000000000, 5.000000000000011500, 8.000000000000000000 ) ) ;
#119 = DIRECTION ( 'NONE',  ( -1.000000000000000000, -1.224646799147353000E-016, 0.0000000000000000000 ) ) ;
#120 = CARTESIAN_POINT ( 'NONE',  ( 1.000000000000001100, 11.79999999999999900, 8.000000000000000000 ) ) ;
#121 = DIRECTION ( 'NONE',  ( -1.000000000000000000, -0.0000000000000000000, -0.0000000000000000000 ) ) ;
#122 = CARTESIAN_POINT ( 'NONE',  ( 2.199999999999996600, 17.99999999999999600, 8.000000000000000000 ) ) ;
#123 = DIRECTION ( 'NONE',  ( -1.000000000000000000, -0.0000000000000000000, -0.0000000000000000000 ) ) ;
#124 = DIRECTION ( 'NONE',  ( 1.224646799147353200E-016, -1.000000000000000000, -0.0000000000000000000 ) ) ;
#125 = DIRECTION ( 'NONE',  ( 1.000000000000000000, 0.0000000000000000000, 0.0000000000000000000 ) ) ;
#126 = CARTESIAN_POINT ( 'NONE',  ( -19.29999999999999400, -2.363568322354391000E-015, 3.499999999999999600 ) ) ;
#127 = DIRECTION ( 'NONE',  ( -0.0000000000000000000, -0.0000000000000000000, -1.000000000000000000 ) ) ;
#128 = DIRECTION ( 'NONE',  ( 0.0000000000000000000, 0.0000000000000000000, 1.000000000000000000 ) ) ;
#129 = CARTESIAN_POINT ( 'NONE',  ( -2.999999999999998700, 14.00000000000000000, -8.000000000000000000 ) ) ;
#130 = DIRECTION ( 'NONE',  ( -1.000000000000000000, 0.0000000000000000000, 0.0000000000000000000 ) ) ;
#131 = DIRECTION ( 'NONE',  ( 1.000000000000000000, -0.0000000000000000000, -0.0000000000000000000 ) ) ;
#132 = CARTESIAN_POINT ( 'NONE',  ( 2.199999999999998800, 3.999999999999995600, -8.000000000000000000 ) ) ;
#133 = DIRECTION ( 'NONE',  ( -0.0000000000000000000, -0.0000000000000000000, -1.000000000000000000 ) ) ;
#134 = CARTESIAN_POINT ( 'NONE',  ( -4.999999999999999100, 4.999999999999997300, 8.000000000000000000 ) ) ;
#135 = DIRECTION ( 'NONE',  ( -0.0000000000000000000, -0.0000000000000000000, -1.000000000000000000 ) ) ;
#136 = CARTESIAN_POINT ( 'NONE',  ( 1.000000000000000900, 14.00000000000000000, -8.000000000000000000 ) ) ;
#137 = CARTESIAN_POINT ( 'NONE',  ( 1.000000000000000900, 14.00000000000000000, 8.000000000000000000 ) ) ;
#138 = DIRECTION ( 'NONE',  ( -0.0000000000000000000, -0.0000000000000000000, -1.000000000000000000 ) ) ;
#139 = CARTESIAN_POINT ( 'NONE',  ( 1.000000000000001100, 11.79999999999999900, 8.000000000000000000 ) ) ;
#140 = DIRECTION ( 'NONE',  ( 1.000000000000000000, -0.0000000000000000000, -0.0000000000000000000 ) ) ;
#141 = DIRECTION ( 'NONE',  ( -9.856383386231856400E-017, 1.000000000000000000, -0.0000000000000000000 ) ) ;
#142 = DIRECTION ( 'NONE',  ( -0.0000000000000000000, -0.0000000000000000000, -1.000000000000000000 ) ) ;
#143 = CARTESIAN_POINT ( 'NONE',  ( 4.199999999999997500, 17.99999999999998200, 8.000000000000000000 ) ) ;
#144 = CARTESIAN_POINT ( 'NONE',  ( -31.00000000000000400, 19.39999999999999900, -8.000000000000000000 ) ) ;
#145 = DIRECTION ( 'NONE',  ( 1.837630800822889100E-017, 1.000000000000000000, -0.0000000000000000000 ) ) ;
#146 = CARTESIAN_POINT ( 'NONE',  ( -14.79999999999999400, -4.500000000000001800, -4.336808689942017700E-016 ) ) ;
#147 = DIRECTION ( 'NONE',  ( -1.000000000000000000, -0.0000000000000000000, -0.0000000000000000000 ) ) ;
#148 = DIRECTION ( 'NONE',  ( 1.000000000000000000, 0.0000000000000000000, 0.0000000000000000000 ) ) ;
#149 = CARTESIAN_POINT ( 'NONE',  ( -11.29999999999999400, -1.383850883036508500E-015, -3.500000000000000400 ) ) ;
#150 = DIRECTION ( 'NONE',  ( -0.7071067811865511300, -0.7071067811865440200, -6.814637407481697300E-017 ) ) ;
#151 = CARTESIAN_POINT ( 'NONE',  ( -21.79999999999999400, -4.500000000000002700, -17.81782106327635500 ) ) ;
#152 = CARTESIAN_POINT ( 'NONE',  ( -2.999999999999998700, 5.000000000000011500, 8.000000000000000000 ) ) ;
#153 = DIRECTION ( 'NONE',  ( -0.0000000000000000000, -0.0000000000000000000, -1.000000000000000000 ) ) ;
#154 = DIRECTION ( 'NONE',  ( -0.0000000000000000000, -0.0000000000000000000, -1.000000000000000000 ) ) ;
#155 = DIRECTION ( 'NONE',  ( -0.0000000000000000000, -0.0000000000000000000, -1.000000000000000000 ) ) ;
#156 = CARTESIAN_POINT ( 'NONE',  ( 2.199999999999998800, 16.99999999999999600, -8.000000000000000000 ) ) ;
#157 = CARTESIAN_POINT ( 'NONE',  ( 2.168404344971008900E-016, 11.79999999999999900, -8.000000000000000000 ) ) ;
#158 = CARTESIAN_POINT ( 'NONE',  ( -19.29999999999999400, -2.363568322354391000E-015, -4.336808689942017700E-016 ) ) ;
#159 = DIRECTION ( 'NONE',  ( 1.224646799147353200E-016, -1.000000000000000000, -0.0000000000000000000 ) ) ;
#160 = DIRECTION ( 'NONE',  ( -4.818676322157803200E-017, -1.000000000000000000, -0.0000000000000000000 ) ) ;
#161 = DIRECTION ( 'NONE',  ( -4.956352788505163300E-016, -5.502656983963531200E-032, 1.000000000000000000 ) ) ;
#162 = DIRECTION ( 'NONE',  ( -1.000000000000000000, 0.0000000000000000000, 0.0000000000000000000 ) ) ;
#163 = DIRECTION ( 'NONE',  ( -1.000000000000000000, -1.224646799147353700E-016, 9.637352644315594000E-017 ) ) ;
#164 = CARTESIAN_POINT ( 'NONE',  ( 0.0000000000000000000, 0.0000000000000000000, 8.000000000000000000 ) ) ;
#165 = DIRECTION ( 'NONE',  ( 0.0000000000000000000, 0.0000000000000000000, 1.000000000000000000 ) ) ;
#166 = DIRECTION ( 'NONE',  ( -2.409338161078901200E-016, 1.000000000000000000, -0.0000000000000000000 ) ) ;
#167 = CARTESIAN_POINT ( 'NONE',  ( -2.999999999999998700, 14.00000000000000000, 8.000000000000000000 ) ) ;
#168 = CARTESIAN_POINT ( 'NONE',  ( -14.79999999999999400, -1.812477262738082100E-015, -4.336808689942017700E-016 ) ) ;
#169 = DIRECTION ( 'NONE',  ( 1.224646799147353200E-016, -1.000000000000000000, -0.0000000000000000000 ) ) ;
#170 = DIRECTION ( 'NONE',  ( -0.0000000000000000000, -0.0000000000000000000, -1.000000000000000000 ) ) ;
#171 = CARTESIAN_POINT ( 'NONE',  ( 1.000000000000001100, 11.79999999999999900, -8.000000000000000000 ) ) ;
#172 = CARTESIAN_POINT ( 'NONE',  ( -7.799999999999993600, -4.500000000000001800, -3.500000000000001300 ) ) ;
#173 = CARTESIAN_POINT ( 'NONE',  ( 4.199999999999999300, 3.999999999999996400, 8.000000000000000000 ) ) ;
#174 = DIRECTION ( 'NONE',  ( -1.000000000000000000, -1.224646799147353000E-016, 0.0000000000000000000 ) ) ;
#175 = CARTESIAN_POINT ( 'NONE',  ( 2.199999999999998800, 11.59999999999999400, 8.000000000000000000 ) ) ;
#176 = CARTESIAN_POINT ( 'NONE',  ( -18.79999999999995800, -7.500000000000003600, -17.81782106327635500 ) ) ;
#177 = CARTESIAN_POINT ( 'NONE',  ( 0.5999999999999987600, 11.59999999999999400, -8.000000000000000000 ) ) ;
#178 = DIRECTION ( 'NONE',  ( 0.0000000000000000000, 0.0000000000000000000, 1.000000000000000000 ) ) ;
#179 = CARTESIAN_POINT ( 'NONE',  ( -2.999999999999998700, 14.00000000000000000, 8.000000000000000000 ) ) ;
#180 = DIRECTION ( 'NONE',  ( -1.224646799147353200E-016, 1.000000000000000000, -0.0000000000000000000 ) ) ;
#181 = CARTESIAN_POINT ( 'NONE',  ( -7.799999999999994500, -4.500000000000000900, -3.500000000000001300 ) ) ;
#182 = DIRECTION ( 'NONE',  ( 1.000000000000000000, 1.239088197126290800E-016, 9.637352644315592800E-017 ) ) ;
#183 = DIRECTION ( 'NONE',  ( -0.0000000000000000000, -0.0000000000000000000, -1.000000000000000000 ) ) ;
#184 = DIRECTION ( 'NONE',  ( -4.956352788505163300E-016, -5.502656983963531200E-032, 1.000000000000000000 ) ) ;
#185 = CARTESIAN_POINT ( 'NONE',  ( -11.29999999999999500, -4.500000000000001800, -4.336808689942017700E-016 ) ) ;
#186 = DIRECTION ( 'NONE',  ( -0.0000000000000000000, -0.0000000000000000000, -1.000000000000000000 ) ) ;
#187 = CARTESIAN_POINT ( 'NONE',  ( 4.199999999999999300, 3.999999999999996400, 8.000000000000000000 ) ) ;
#188 = CARTESIAN_POINT ( 'NONE',  ( 2.199999999999998800, 9.999999999999989300, 8.000000000000000000 ) ) ;
#189 = DIRECTION ( 'NONE',  ( 1.000000000000000000, 4.336808689942017700E-016, -0.0000000000000000000 ) ) ;
#190 = DIRECTION ( 'NONE',  ( 1.000000000000000000, 1.126443815569355400E-016, -0.0000000000000000000 ) ) ;
#191 = CARTESIAN_POINT ( 'NONE',  ( -11.29999999999999400, -4.500000000000001800, -3.500000000000000400 ) ) ;
#192 = DIRECTION ( 'NONE',  ( -1.000000000000000000, -0.0000000000000000000, -0.0000000000000000000 ) ) ;
#193 = ORIENTED_EDGE ( 'NONE', *, *, #1123, .F. ) ;
#194 = ORIENTED_EDGE ( 'NONE', *, *, #1105, .T. ) ;
#195 = ORIENTED_EDGE ( 'NONE', *, *, #1084, .F. ) ;
#196 = ORIENTED_EDGE ( 'NONE', *, *, #1175, .F. ) ;
#197 = ORIENTED_EDGE ( 'NONE', *, *, #1156, .T. ) ;
#198 = ORIENTED_EDGE ( 'NONE', *, *, #1134, .T. ) ;
#199 = ORIENTED_EDGE ( 'NONE', *, *, #1141, .F. ) ;
#200 = ORIENTED_EDGE ( 'NONE', *, *, #1137, .F. ) ;
#201 = ORIENTED_EDGE ( 'NONE', *, *, #1177, .T. ) ;
#202 = ORIENTED_EDGE ( 'NONE', *, *, #1121, .F. ) ;
#203 = ORIENTED_EDGE ( 'NONE', *, *, #1102, .F. ) ;
#204 = ORIENTED_EDGE ( 'NONE', *, *, #1141, .T. ) ;
#205 = ORIENTED_EDGE ( 'NONE', *, *, #1100, .F. ) ;
#206 = ORIENTED_EDGE ( 'NONE', *, *, #1163, .T. ) ;
#207 = ORIENTED_EDGE ( 'NONE', *, *, #1179, .F. ) ;
#208 = ORIENTED_EDGE ( 'NONE', *, *, #1106, .F. ) ;
#209 = ORIENTED_EDGE ( 'NONE', *, *, #1124, .F. ) ;
#210 = ORIENTED_EDGE ( 'NONE', *, *, #1159, .T. ) ;
#211 = ORIENTED_EDGE ( 'NONE', *, *, #1140, .T. ) ;
#212 = ORIENTED_EDGE ( 'NONE', *, *, #1084, .T. ) ;
#213 = ORIENTED_EDGE ( 'NONE', *, *, #1130, .F. ) ;
#214 = ORIENTED_EDGE ( 'NONE', *, *, #1140, .F. ) ;
#215 = ORIENTED_EDGE ( 'NONE', *, *, #1135, .F. ) ;
#216 = ORIENTED_EDGE ( 'NONE', *, *, #1181, .F. ) ;
#217 = ORIENTED_EDGE ( 'NONE', *, *, #1113, .T. ) ;
#218 = ORIENTED_EDGE ( 'NONE', *, *, #1125, .F. ) ;
#219 = ORIENTED_EDGE ( 'NONE', *, *, #1123, .T. ) ;
#220 = ORIENTED_EDGE ( 'NONE', *, *, #1126, .T. ) ;
#221 = ORIENTED_EDGE ( 'NONE', *, *, #1107, .F. ) ;
#222 = ORIENTED_EDGE ( 'NONE', *, *, #1110, .F. ) ;
#223 = ORIENTED_EDGE ( 'NONE', *, *, #1153, .F. ) ;
#224 = ORIENTED_EDGE ( 'NONE', *, *, #1171, .F. ) ;
#225 = ORIENTED_EDGE ( 'NONE', *, *, #1160, .T. ) ;
#226 = ORIENTED_EDGE ( 'NONE', *, *, #1098, .F. ) ;
#227 = ORIENTED_EDGE ( 'NONE', *, *, #1094, .F. ) ;
#228 = ORIENTED_EDGE ( 'NONE', *, *, #1177, .F. ) ;
#229 = ORIENTED_EDGE ( 'NONE', *, *, #1176, .F. ) ;
#230 = ORIENTED_EDGE ( 'NONE', *, *, #1150, .T. ) ;
#231 = ORIENTED_EDGE ( 'NONE', *, *, #1135, .T. ) ;
#232 = ORIENTED_EDGE ( 'NONE', *, *, #1134, .F. ) ;
#233 = ORIENTED_EDGE ( 'NONE', *, *, #1180, .F. ) ;
#234 = ORIENTED_EDGE ( 'NONE', *, *, #1164, .F. ) ;
#235 = CLOSED_SHELL ( 'NONE', ( #746, #763, #748, #762, #770, #771, #780, #776, #747, #758, #757, #756, #774, #765, #778, #750, #760, #773, #755, #777, #761, #751, #749, #764, #766, #779, #769, #753, #752, #775, #767, #768, #772, #754, #759 ) ) ;
#236 = ORIENTED_EDGE ( 'NONE', *, *, #1163, .F. ) ;
#237 = EDGE_LOOP ( 'NONE', ( #668, #657, #608, #633 ) ) ;
#238 = EDGE_LOOP ( 'NONE', ( #618, #636, #599, #609 ) ) ;
#239 = ORIENTED_EDGE ( 'NONE', *, *, #1150, .F. ) ;
#240 = EDGE_LOOP ( 'NONE', ( #194, #195, #223, #737 ) ) ;
#241 = EDGE_LOOP ( 'NONE', ( #660, #645, #638, #644 ) ) ;
#242 = EDGE_LOOP ( 'NONE', ( #632, #648, #598, #603 ) ) ;
#243 = EDGE_LOOP ( 'NONE', ( #637, #658, #654, #649 ) ) ;
#244 = EDGE_LOOP ( 'NONE', ( #689, #682, #676, #698 ) ) ;
#245 = EDGE_LOOP ( 'NONE', ( #687, #731, #720, #224, #723, #226, #743, #739, #227, #196, #741, #222, #213, #713, #202, #221, #203, #208, #717, #205, #209, #735 ) ) ;
#246 = EDGE_LOOP ( 'NONE', ( #667, #665, #596, #669 ) ) ;
#247 = EDGE_LOOP ( 'NONE', ( #725, #733, #742, #210 ) ) ;
#248 = EDGE_LOOP ( 'NONE', ( #678, #696, #727, #692 ) ) ;
#249 = EDGE_LOOP ( 'NONE', ( #650, #601, #616, #662 ) ) ;
#250 = EDGE_LOOP ( 'NONE', ( #719, #198, #199, #729 ) ) ;
#251 = EDGE_LOOP ( 'NONE', ( #659, #640, #666, #641 ) ) ;
#252 = EDGE_LOOP ( 'NONE', ( #670, #652, #655, #671 ) ) ;
#253 = EDGE_LOOP ( 'NONE', ( #673, #699, #674, #708 ) ) ;
#254 = EDGE_LOOP ( 'NONE', ( #622, #606, #604, #613 ) ) ;
#255 = EDGE_LOOP ( 'NONE', ( #635, #610, #631, #624 ) ) ;
#256 = EDGE_LOOP ( 'NONE', ( #726, #703, #623, #627 ) ) ;
#257 = EDGE_LOOP ( 'NONE', ( #716, #214, #215, #734 ) ) ;
#258 = EDGE_LOOP ( 'NONE', ( #664, #625, #630, #656 ) ) ;
#259 = EDGE_LOOP ( 'NONE', ( #642, #639, #653, #626 ) ) ;
#260 = EDGE_LOOP ( 'NONE', ( #738, #732, #714, #740, #715, #197, #712, #212 ) ) ;
#261 = VERTEX_POINT ( 'NONE', #834 ) ;
#262 = VERTEX_POINT ( 'NONE', #822 ) ;
#263 = VERTEX_POINT ( 'NONE', #842 ) ;
#264 = VERTEX_POINT ( 'NONE', #824 ) ;
#265 = EDGE_LOOP ( 'NONE', ( #697, #709, #700, #683 ) ) ;
#266 = EDGE_LOOP ( 'NONE', ( #718, #225, #722, #207, #220 ) ) ;
#267 = VERTEX_POINT ( 'NONE', #835 ) ;
#268 = VERTEX_POINT ( 'NONE', #787 ) ;
#269 = VERTEX_POINT ( 'NONE', #785 ) ;
#270 = VERTEX_POINT ( 'NONE', #788 ) ;
#271 = EDGE_LOOP ( 'NONE', ( #615, #651, #643, #675, #620, #597 ) ) ;
#272 = VERTEX_POINT ( 'NONE', #784 ) ;
#273 = VERTEX_POINT ( 'NONE', #786 ) ;
#274 = VERTEX_POINT ( 'NONE', #805 ) ;
#275 = VERTEX_POINT ( 'NONE', #799 ) ;
#276 = VERTEX_POINT ( 'NONE', #804 ) ;
#277 = EDGE_LOOP ( 'NONE', ( #621, #614, #600, #594 ) ) ;
#278 = EDGE_LOOP ( 'NONE', ( #730, #216, #193, #211 ) ) ;
#279 = VERTEX_POINT ( 'NONE', #791 ) ;
#280 = VERTEX_POINT ( 'NONE', #832 ) ;
#281 = VERTEX_POINT ( 'NONE', #803 ) ;
#282 = VERTEX_POINT ( 'NONE', #818 ) ;
#283 = EDGE_LOOP ( 'NONE', ( #218, #206, #233, #239 ) ) ;
#284 = EDGE_LOOP ( 'NONE', ( #612, #617, #595, #619 ) ) ;
#285 = VERTEX_POINT ( 'NONE', #801 ) ;
#286 = VERTEX_POINT ( 'NONE', #802 ) ;
#287 = VERTEX_POINT ( 'NONE', #831 ) ;
#288 = VERTEX_POINT ( 'NONE', #820 ) ;
#289 = VERTEX_POINT ( 'NONE', #836 ) ;
#290 = EDGE_LOOP ( 'NONE', ( #217, #711, #736, #204, #201, #724, #728, #721 ) ) ;
#291 = EDGE_LOOP ( 'NONE', ( #607, #634, #672, #611 ) ) ;
#292 = EDGE_LOOP ( 'NONE', ( #688, #661, #707, #628, #693, #705, #695, #629, #704, #694, #706, #690, #691, #710, #680, #702, #701, #681, #647, #663, #684, #686 ) ) ;
#293 = EDGE_LOOP ( 'NONE', ( #200, #231, #219, #234, #236 ) ) ;
#294 = EDGE_LOOP ( 'NONE', ( #646, #685, #677, #679 ) ) ;
#295 = VERTEX_POINT ( 'NONE', #806 ) ;
#296 = VERTEX_POINT ( 'NONE', #807 ) ;
#297 = VERTEX_POINT ( 'NONE', #795 ) ;
#298 = VERTEX_POINT ( 'NONE', #833 ) ;
#299 = VERTEX_POINT ( 'NONE', #840 ) ;
#300 = VERTEX_POINT ( 'NONE', #809 ) ;
#301 = EDGE_LOOP ( 'NONE', ( #229, #230, #228, #232 ) ) ;
#302 = VERTEX_POINT ( 'NONE', #837 ) ;
#303 = VERTEX_POINT ( 'NONE', #821 ) ;
#304 = VERTEX_POINT ( 'NONE', #829 ) ;
#305 = VERTEX_POINT ( 'NONE', #823 ) ;
#306 = VERTEX_POINT ( 'NONE', #838 ) ;
#307 = VERTEX_POINT ( 'NONE', #819 ) ;
#308 = VERTEX_POINT ( 'NONE', #839 ) ;
#309 = VERTEX_POINT ( 'NONE', #794 ) ;
#310 = VERTEX_POINT ( 'NONE', #825 ) ;
#311 = FACE_BOUND ( 'NONE', #271, .T. ) ;
#312 = VERTEX_POINT ( 'NONE', #811 ) ;
#313 = VERTEX_POINT ( 'NONE', #843 ) ;
#314 = VERTEX_POINT ( 'NONE', #841 ) ;
#315 = VERTEX_POINT ( 'NONE', #800 ) ;
#316 = VERTEX_POINT ( 'NONE', #808 ) ;
#317 = VERTEX_POINT ( 'NONE', #810 ) ;
#318 = VERTEX_POINT ( 'NONE', #826 ) ;
#319 = VERTEX_POINT ( 'NONE', #797 ) ;
#320 = VERTEX_POINT ( 'NONE', #830 ) ;
#321 = FACE_OUTER_BOUND ( 'NONE', #277, .T. ) ;
#322 = VERTEX_POINT ( 'NONE', #812 ) ;
#323 = VERTEX_POINT ( 'NONE', #813 ) ;
#324 = FACE_OUTER_BOUND ( 'NONE', #255, .T. ) ;
#325 = VERTEX_POINT ( 'NONE', #827 ) ;
#326 = VERTEX_POINT ( 'NONE', #828 ) ;
#327 = VERTEX_POINT ( 'NONE', #798 ) ;
#328 = VERTEX_POINT ( 'NONE', #844 ) ;
#329 = VERTEX_POINT ( 'NONE', #814 ) ;
#330 = VERTEX_POINT ( 'NONE', #815 ) ;
#331 = VERTEX_POINT ( 'NONE', #796 ) ;
#332 = VERTEX_POINT ( 'NONE', #789 ) ;
#333 = FACE_OUTER_BOUND ( 'NONE', #251, .T. ) ;
#334 = VERTEX_POINT ( 'NONE', #790 ) ;
#335 = CYLINDRICAL_SURFACE ( 'NONE', #1165, 2.000000000000001800 ) ;
#336 = VERTEX_POINT ( 'NONE', #792 ) ;
#337 = VERTEX_POINT ( 'NONE', #816 ) ;
#338 = VERTEX_POINT ( 'NONE', #793 ) ;
#339 = VERTEX_POINT ( 'NONE', #817 ) ;
#340 = VERTEX_POINT ( 'NONE', #855 ) ;
#341 = VERTEX_POINT ( 'NONE', #847 ) ;
#342 = VERTEX_POINT ( 'NONE', #848 ) ;
#343 = FACE_OUTER_BOUND ( 'NONE', #248, .T. ) ;
#344 = FACE_OUTER_BOUND ( 'NONE', #259, .T. ) ;
#345 = CYLINDRICAL_SURFACE ( 'NONE', #1049, 3.499999999999999600 ) ;
#346 = FACE_OUTER_BOUND ( 'NONE', #247, .T. ) ;
#347 = LINE ( 'NONE', #986, #356 ) ;
#348 = LINE ( 'NONE', #998, #354 ) ;
#349 = FACE_OUTER_BOUND ( 'NONE', #278, .T. ) ;
#350 = FACE_OUTER_BOUND ( 'NONE', #245, .T. ) ;
#351 = VECTOR ( 'NONE', #996, 1000.000000000000000 ) ;
#352 = FACE_OUTER_BOUND ( 'NONE', #241, .T. ) ;
#353 = FACE_OUTER_BOUND ( 'NONE', #238, .T. ) ;
#354 = VECTOR ( 'NONE', #997, 1000.000000000000000 ) ;
#355 = CYLINDRICAL_SURFACE ( 'NONE', #1051, 2.000000000000000000 ) ;
#356 = VECTOR ( 'NONE', #982, 1000.000000000000000 ) ;
#357 = COORDINATED_UNIVERSAL_TIME_OFFSET ( 1, 0, .AHEAD. ) ;
#358 = LOCAL_TIME ( 22, 44, 41.00000000000000000, #357 ) ;
#359 = FACE_OUTER_BOUND ( 'NONE', #246, .T. ) ;
#360 = FACE_OUTER_BOUND ( 'NONE', #265, .T. ) ;
#361 = FACE_OUTER_BOUND ( 'NONE', #244, .T. ) ;
#362 = FACE_OUTER_BOUND ( 'NONE', #250, .T. ) ;
#363 = FACE_OUTER_BOUND ( 'NONE', #266, .T. ) ;
#364 = LINE ( 'NONE', #985, #351 ) ;
#365 = FACE_OUTER_BOUND ( 'NONE', #254, .T. ) ;
#366 = FACE_OUTER_BOUND ( 'NONE', #237, .T. ) ;
#367 = FACE_OUTER_BOUND ( 'NONE', #257, .T. ) ;
#368 = LINE ( 'NONE', #994, #380 ) ;
#369 = FACE_OUTER_BOUND ( 'NONE', #260, .T. ) ;
#370 = FACE_OUTER_BOUND ( 'NONE', #249, .T. ) ;
#371 = FACE_OUTER_BOUND ( 'NONE', #252, .T. ) ;
#372 = FACE_OUTER_BOUND ( 'NONE', #292, .T. ) ;
#373 = FACE_OUTER_BOUND ( 'NONE', #294, .T. ) ;
#374 = FACE_OUTER_BOUND ( 'NONE', #253, .T. ) ;
#375 = FACE_OUTER_BOUND ( 'NONE', #258, .T. ) ;
#376 = FACE_OUTER_BOUND ( 'NONE', #240, .T. ) ;
#377 = FACE_OUTER_BOUND ( 'NONE', #291, .T. ) ;
#378 = FACE_OUTER_BOUND ( 'NONE', #293, .T. ) ;
#379 = FACE_OUTER_BOUND ( 'NONE', #242, .T. ) ;
#380 = VECTOR ( 'NONE', #1002, 1000.000000000000000 ) ;
#381 = FACE_OUTER_BOUND ( 'NONE', #290, .T. ) ;
#382 = FACE_OUTER_BOUND ( 'NONE', #243, .T. ) ;
#383 = FACE_OUTER_BOUND ( 'NONE', #256, .T. ) ;
#384 = CYLINDRICAL_SURFACE ( 'NONE', #1073, 2.000000000000001800 ) ;
#385 = FACE_OUTER_BOUND ( 'NONE', #283, .T. ) ;
#386 = CYLINDRICAL_SURFACE ( 'NONE', #1048, 3.499999999999999600 ) ;
#387 = FACE_OUTER_BOUND ( 'NONE', #301, .T. ) ;
#388 = FACE_OUTER_BOUND ( 'NONE', #284, .T. ) ;
#389 = CYLINDRICAL_SURFACE ( 'NONE', #1146, 2.000000000000000900 ) ;
#390 = DATE_AND_TIME ( #443, #358 ) ;
#391 = LINE ( 'NONE', #94, #406 ) ;
#392 = LINE ( 'NONE', #1008, #434 ) ;
#393 = LINE ( 'NONE', #1010, #398 ) ;
#394 = VECTOR ( 'NONE', #1016, 1000.000000000000000 ) ;
#395 = LINE ( 'NONE', #107, #415 ) ;
#396 = VECTOR ( 'NONE', #983, 1000.000000000000000 ) ;
#397 = VECTOR ( 'NONE', #1004, 1000.000000000000000 ) ;
#398 = VECTOR ( 'NONE', #1013, 1000.000000000000000 ) ;
#399 = LINE ( 'NONE', #990, #397 ) ;
#400 = LINE ( 'NONE', #1006, #441 ) ;
#401 = LINE ( 'NONE', #1015, #394 ) ;
#402 = VECTOR ( 'NONE', #783, 1000.000000000000000 ) ;
#403 = CIRCLE ( 'NONE', #1065, 2.000000000000001800 ) ;
#404 = CIRCLE ( 'NONE', #1045, 2.000000000000000900 ) ;
#405 = CIRCLE ( 'NONE', #1043, 2.000000000000001800 ) ;
#406 = VECTOR ( 'NONE', #100, 1000.000000000000000 ) ;
#407 = VECTOR ( 'NONE', #1005, 1000.000000000000000 ) ;
#408 = LINE ( 'NONE', #118, #411 ) ;
#409 = LINE ( 'NONE', #991, #430 ) ;
#410 = LINE ( 'NONE', #999, #429 ) ;
#411 = VECTOR ( 'NONE', #133, 1000.000000000000000 ) ;
#412 = LINE ( 'NONE', #989, #407 ) ;
#413 = LINE ( 'NONE', #1009, #442 ) ;
#414 = LINE ( 'NONE', #105, #427 ) ;
#415 = VECTOR ( 'NONE', #103, 1000.000000000000000 ) ;
#416 = LINE ( 'NONE', #129, #421 ) ;
#417 = LINE ( 'NONE', #97, #447 ) ;
#418 = LINE ( 'NONE', #106, #436 ) ;
#419 = CIRCLE ( 'NONE', #1054, 3.499999999999999600 ) ;
#420 = LINE ( 'NONE', #132, #440 ) ;
#421 = VECTOR ( 'NONE', #121, 1000.000000000000000 ) ;
#422 = CIRCLE ( 'NONE', #1064, 2.000000000000000400 ) ;
#423 = VECTOR ( 'NONE', #781, 1000.000000000000000 ) ;
#424 = LINE ( 'NONE', #995, #426 ) ;
#425 = LINE ( 'NONE', #1017, #423 ) ;
#426 = VECTOR ( 'NONE', #988, 1000.000000000000000 ) ;
#427 = VECTOR ( 'NONE', #99, 1000.000000000000000 ) ;
#428 = VECTOR ( 'NONE', #1007, 1000.000000000000000 ) ;
#429 = VECTOR ( 'NONE', #984, 1000.000000000000000 ) ;
#430 = VECTOR ( 'NONE', #987, 1000.000000000000000 ) ;
#431 = LINE ( 'NONE', #1003, #396 ) ;
#432 = LINE ( 'NONE', #993, #428 ) ;
#433 = CIRCLE ( 'NONE', #1052, 2.000000000000000900 ) ;
#434 = VECTOR ( 'NONE', #1012, 1000.000000000000000 ) ;
#435 = CIRCLE ( 'NONE', #1053, 2.000000000000000400 ) ;
#436 = VECTOR ( 'NONE', #123, 1000.000000000000000 ) ;
#437 = LINE ( 'NONE', #120, #438 ) ;
#438 = VECTOR ( 'NONE', #131, 1000.000000000000000 ) ;
#439 = LINE ( 'NONE', #1011, #402 ) ;
#440 = VECTOR ( 'NONE', #117, 1000.000000000000000 ) ;
#441 = VECTOR ( 'NONE', #1014, 1000.000000000000000 ) ;
#442 = VECTOR ( 'NONE', #782, 1000.000000000000100 ) ;
#443 = CALENDAR_DATE ( 2017, 2, 3 ) ;
#444 = CIRCLE ( 'NONE', #1066, 2.000000000000001800 ) ;
#445 = LINE ( 'NONE', #126, #457 ) ;
#446 = VECTOR ( 'NONE', #110, 1000.000000000000000 ) ;
#447 = VECTOR ( 'NONE', #98, 1000.000000000000000 ) ;
#448 = LINE ( 'NONE', #113, #450 ) ;
#449 = LINE ( 'NONE', #108, #446 ) ;
#450 = VECTOR ( 'NONE', #160, 1000.000000000000000 ) ;
#451 = APPROVAL_DATE_TIME ( #390, #1033 ) ;
#452 = LINE ( 'NONE', #139, #453 ) ;
#453 = VECTOR ( 'NONE', #135, 1000.000000000000000 ) ;
#454 = VECTOR ( 'NONE', #155, 1000.000000000000000 ) ;
#455 = VECTOR ( 'NONE', #142, 1000.000000000000000 ) ;
#456 = VECTOR ( 'NONE', #147, 1000.000000000000000 ) ;
#457 = VECTOR ( 'NONE', #163, 1000.000000000000000 ) ;
#458 = VECTOR ( 'NONE', #140, 1000.000000000000000 ) ;
#459 = LINE ( 'NONE', #167, #456 ) ;
#460 = LINE ( 'NONE', #136, #475 ) ;
#461 = VECTOR ( 'NONE', #161, 1000.000000000000000 ) ;
#462 = LINE ( 'NONE', #157, #463 ) ;
#463 = VECTOR ( 'NONE', #145, 1000.000000000000000 ) ;
#464 = LINE ( 'NONE', #164, #454 ) ;
#465 = CIRCLE ( 'NONE', #1067, 3.499999999999999600 ) ;
#466 = LINE ( 'NONE', #143, #455 ) ;
#467 = LINE ( 'NONE', #144, #468 ) ;
#468 = VECTOR ( 'NONE', #166, 1000.000000000000000 ) ;
#469 = LINE ( 'NONE', #158, #470 ) ;
#470 = VECTOR ( 'NONE', #170, 1000.000000000000000 ) ;
#471 = CIRCLE ( 'NONE', #1024, 3.499999999999999600 ) ;
#472 = LINE ( 'NONE', #149, #461 ) ;
#473 = LINE ( 'NONE', #171, #458 ) ;
#474 = VECTOR ( 'NONE', #190, 1000.000000000000000 ) ;
#475 = VECTOR ( 'NONE', #141, 1000.000000000000000 ) ;
#476 = LINE ( 'NONE', #173, #489 ) ;
#477 = LINE ( 'NONE', #172, #478 ) ;
#478 = VECTOR ( 'NONE', #150, 1000.000000000000000 ) ;
#479 = VECTOR ( 'NONE', #138, 1000.000000000000000 ) ;
#480 = VECTOR ( 'NONE', #165, 1000.000000000000000 ) ;
#481 = LINE ( 'NONE', #175, #482 ) ;
#482 = VECTOR ( 'NONE', #183, 1000.000000000000000 ) ;
#483 = LINE ( 'NONE', #152, #484 ) ;
#484 = VECTOR ( 'NONE', #153, 1000.000000000000000 ) ;
#485 = LINE ( 'NONE', #151, #480 ) ;
#486 = LINE ( 'NONE', #137, #479 ) ;
#487 = LINE ( 'NONE', #156, #474 ) ;
#488 = LINE ( 'NONE', #19, #496 ) ;
#489 = VECTOR ( 'NONE', #189, 1000.000000000000000 ) ;
#490 = VECTOR ( 'NONE', #9, 1000.000000000000100 ) ;
#491 = VECTOR ( 'NONE', #16, 1000.000000000000000 ) ;
#492 = VECTOR ( 'NONE', #31, 1000.000000000000100 ) ;
#493 = CIRCLE ( 'NONE', #1020, 3.499999999999999600 ) ;
#494 = VECTOR ( 'NONE', #22, 1000.000000000000000 ) ;
#495 = VECTOR ( 'NONE', #180, 1000.000000000000000 ) ;
#496 = VECTOR ( 'NONE', #20, 1000.000000000000000 ) ;
#497 = LINE ( 'NONE', #32, #531 ) ;
#498 = VECTOR ( 'NONE', #186, 1000.000000000000000 ) ;
#499 = VECTOR ( 'NONE', #184, 1000.000000000000000 ) ;
#500 = LINE ( 'NONE', #185, #495 ) ;
#501 = LINE ( 'NONE', #176, #530 ) ;
#502 = LINE ( 'NONE', #177, #529 ) ;
#503 = VECTOR ( 'NONE', #14, 1000.000000000000000 ) ;
#504 = LINE ( 'NONE', #11, #491 ) ;
#505 = LINE ( 'NONE', #27, #508 ) ;
#506 = VECTOR ( 'NONE', #8, 1000.000000000000000 ) ;
#507 = LINE ( 'NONE', #188, #490 ) ;
#508 = VECTOR ( 'NONE', #30, 1000.000000000000000 ) ;
#509 = LINE ( 'NONE', #18, #494 ) ;
#510 = VECTOR ( 'NONE', #182, 1000.000000000000000 ) ;
#511 = LINE ( 'NONE', #23, #492 ) ;
#512 = LINE ( 'NONE', #191, #499 ) ;
#513 = VECTOR ( 'NONE', #7, 1000.000000000000000 ) ;
#514 = VECTOR ( 'NONE', #3, 1000.000000000000100 ) ;
#515 = VECTOR ( 'NONE', #15, 1000.000000000000000 ) ;
#516 = VECTOR ( 'NONE', #35, 1000.000000000000000 ) ;
#517 = LINE ( 'NONE', #39, #518 ) ;
#518 = VECTOR ( 'NONE', #36, 1000.000000000000000 ) ;
#519 = LINE ( 'NONE', #6, #521 ) ;
#520 = LINE ( 'NONE', #4, #514 ) ;
#521 = VECTOR ( 'NONE', #12, 1000.000000000000000 ) ;
#522 = VECTOR ( 'NONE', #10, 1000.000000000000000 ) ;
#523 = LINE ( 'NONE', #13, #513 ) ;
#524 = LINE ( 'NONE', #5, #522 ) ;
#525 = LINE ( 'NONE', #26, #515 ) ;
#526 = LINE ( 'NONE', #29, #527 ) ;
#527 = VECTOR ( 'NONE', #48, 1000.000000000000000 ) ;
#528 = LINE ( 'NONE', #59, #516 ) ;
#529 = VECTOR ( 'NONE', #192, 1000.000000000000000 ) ;
#530 = VECTOR ( 'NONE', #178, 1000.000000000000000 ) ;
#531 = VECTOR ( 'NONE', #25, 1000.000000000000000 ) ;
#532 = LINE ( 'NONE', #181, #510 ) ;
#533 = LINE ( 'NONE', #179, #498 ) ;
#534 = LINE ( 'NONE', #21, #503 ) ;
#535 = LINE ( 'NONE', #187, #506 ) ;
#536 = LINE ( 'NONE', #24, #542 ) ;
#537 = VECTOR ( 'NONE', #50, 1000.000000000000000 ) ;
#538 = VECTOR ( 'NONE', #49, 1000.000000000000000 ) ;
#539 = LINE ( 'NONE', #51, #545 ) ;
#540 = VECTOR ( 'NONE', #42, 1000.000000000000100 ) ;
#541 = LINE ( 'NONE', #55, #538 ) ;
#542 = VECTOR ( 'NONE', #37, 1000.000000000000000 ) ;
#543 = LINE ( 'NONE', #38, #540 ) ;
#544 = VECTOR ( 'NONE', #41, 1000.000000000000000 ) ;
#545 = VECTOR ( 'NONE', #52, 1000.000000000000000 ) ;
#546 = LINE ( 'NONE', #57, #537 ) ;
#547 = LINE ( 'NONE', #60, #550 ) ;
#548 = CIRCLE ( 'NONE', #1023, 2.000000000000001800 ) ;
#549 = LINE ( 'NONE', #61, #544 ) ;
#550 = VECTOR ( 'NONE', #58, 1000.000000000000000 ) ;
#551 = CALENDAR_DATE ( 2017, 2, 3 ) ;
#552 = LOCAL_TIME ( 22, 44, 41.00000000000000000, #567 ) ;
#553 = SHAPE_DEFINITION_REPRESENTATION ( #745, #1070 ) ;
#554 = PERSON_AND_ORGANIZATION ( #1, #572 ) ;
#555 = LINE ( 'NONE', #63, #587 ) ;
#556 = PERSON_AND_ORGANIZATION ( #1, #572 ) ;
#557 = VECTOR ( 'NONE', #53, 1000.000000000000000 ) ;
#558 = LINE ( 'NONE', #56, #557 ) ;
#559 = VECTOR ( 'NONE', #65, 1000.000000000000000 ) ;
#560 = LOCAL_TIME ( 22, 44, 41.00000000000000000, #577 ) ;
#561 = CALENDAR_DATE ( 2017, 2, 3 ) ;
#562 = VECTOR ( 'NONE', #62, 1000.000000000000000 ) ;
#563 = APPROVAL_PERSON_ORGANIZATION ( #554, #1019, #77 ) ;
#564 = VECTOR ( 'NONE', #67, 1000.000000000000000 ) ;
#565 = LOCAL_TIME ( 22, 44, 41.00000000000000000, #566 ) ;
#566 = COORDINATED_UNIVERSAL_TIME_OFFSET ( 1, 0, .AHEAD. ) ;
#567 = COORDINATED_UNIVERSAL_TIME_OFFSET ( 1, 0, .AHEAD. ) ;
#568 = LINE ( 'NONE', #43, #573 ) ;
#569 = VECTOR ( 'NONE', #46, 1000.000000000000000 ) ;
#570 = PERSON_AND_ORGANIZATION ( #1, #572 ) ;
#571 = CALENDAR_DATE ( 2017, 2, 3 ) ;
#572 = ORGANIZATION ( 'UNSPECIFIED', 'UNSPECIFIED', '' ) ;
#573 = VECTOR ( 'NONE', #45, 1000.000000000000000 ) ;
#574 = LINE ( 'NONE', #47, #564 ) ;
#575 = APPROVAL_DATE_TIME ( #592, #1019 ) ;
#576 = DATE_AND_TIME ( #561, #560 ) ;
#577 = COORDINATED_UNIVERSAL_TIME_OFFSET ( 1, 0, .AHEAD. ) ;
#578 = APPROVAL_PERSON_ORGANIZATION ( #591, #1027, #74 ) ;
#579 = PERSON_AND_ORGANIZATION ( #1, #572 ) ;
#580 = PERSON_AND_ORGANIZATION ( #1, #572 ) ;
#581 = COORDINATED_UNIVERSAL_TIME_OFFSET ( 1, 0, .AHEAD. ) ;
#582 = DATE_AND_TIME ( #551, #589 ) ;
#583 = CALENDAR_DATE ( 2017, 2, 3 ) ;
#584 = LINE ( 'NONE', #66, #562 ) ;
#585 = PERSON_AND_ORGANIZATION ( #1, #572 ) ;
#586 = LINE ( 'NONE', #44, #569 ) ;
#587 = VECTOR ( 'NONE', #85, 1000.000000000000100 ) ;
#588 = APPROVAL_DATE_TIME ( #593, #1027 ) ;
#589 = LOCAL_TIME ( 22, 44, 41.00000000000000000, #581 ) ;
#590 = LINE ( 'NONE', #64, #559 ) ;
#591 = PERSON_AND_ORGANIZATION ( #1, #572 ) ;
#592 = DATE_AND_TIME ( #583, #565 ) ;
#593 = DATE_AND_TIME ( #571, #552 ) ;
#594 = ORIENTED_EDGE ( 'NONE', *, *, #1085, .T. ) ;
#595 = ORIENTED_EDGE ( 'NONE', *, *, #1097, .F. ) ;
#596 = ORIENTED_EDGE ( 'NONE', *, *, #1111, .F. ) ;
#597 = ORIENTED_EDGE ( 'NONE', *, *, #1122, .F. ) ;
#598 = ORIENTED_EDGE ( 'NONE', *, *, #1086, .F. ) ;
#599 = ORIENTED_EDGE ( 'NONE', *, *, #1117, .F. ) ;
#600 = ORIENTED_EDGE ( 'NONE', *, *, #1108, .F. ) ;
#601 = ORIENTED_EDGE ( 'NONE', *, *, #1090, .F. ) ;
#602 = PERSON_AND_ORGANIZATION ( #1, #572 ) ;
#603 = ORIENTED_EDGE ( 'NONE', *, *, #1112, .T. ) ;
#604 = ORIENTED_EDGE ( 'NONE', *, *, #1142, .F. ) ;
#605 = APPROVAL_PERSON_ORGANIZATION ( #602, #1033, #70 ) ;
#606 = ORIENTED_EDGE ( 'NONE', *, *, #1168, .F. ) ;
#607 = ORIENTED_EDGE ( 'NONE', *, *, #1106, .T. ) ;
#608 = ORIENTED_EDGE ( 'NONE', *, *, #1103, .F. ) ;
#609 = ORIENTED_EDGE ( 'NONE', *, *, #1128, .T. ) ;
#610 = ORIENTED_EDGE ( 'NONE', *, *, #1096, .F. ) ;
#611 = ORIENTED_EDGE ( 'NONE', *, *, #1127, .T. ) ;
#612 = ORIENTED_EDGE ( 'NONE', *, *, #1120, .T. ) ;
#613 = ORIENTED_EDGE ( 'NONE', *, *, #1096, .T. ) ;
#614 = ORIENTED_EDGE ( 'NONE', *, *, #1116, .F. ) ;
#615 = ORIENTED_EDGE ( 'NONE', *, *, #1113, .F. ) ;
#616 = ORIENTED_EDGE ( 'NONE', *, *, #1078, .F. ) ;
#617 = ORIENTED_EDGE ( 'NONE', *, *, #1087, .F. ) ;
#618 = ORIENTED_EDGE ( 'NONE', *, *, #1100, .T. ) ;
#619 = ORIENTED_EDGE ( 'NONE', *, *, #1116, .T. ) ;
#620 = ORIENTED_EDGE ( 'NONE', *, *, #1105, .F. ) ;
#621 = ORIENTED_EDGE ( 'NONE', *, *, #1088, .T. ) ;
#622 = ORIENTED_EDGE ( 'NONE', *, *, #1121, .T. ) ;
#623 = ORIENTED_EDGE ( 'NONE', *, *, #1131, .F. ) ;
#624 = ORIENTED_EDGE ( 'NONE', *, *, #1090, .T. ) ;
#625 = ORIENTED_EDGE ( 'NONE', *, *, #1151, .F. ) ;
#626 = ORIENTED_EDGE ( 'NONE', *, *, #1075, .T. ) ;
#627 = ORIENTED_EDGE ( 'NONE', *, *, #1157, .T. ) ;
#628 = ORIENTED_EDGE ( 'NONE', *, *, #1117, .T. ) ;
#629 = ORIENTED_EDGE ( 'NONE', *, *, #1109, .T. ) ;
#630 = ORIENTED_EDGE ( 'NONE', *, *, #1170, .F. ) ;
#631 = ORIENTED_EDGE ( 'NONE', *, *, #1109, .F. ) ;
#632 = ORIENTED_EDGE ( 'NONE', *, *, #1124, .T. ) ;
#633 = ORIENTED_EDGE ( 'NONE', *, *, #1087, .T. ) ;
#634 = ORIENTED_EDGE ( 'NONE', *, *, #1080, .F. ) ;
#635 = ORIENTED_EDGE ( 'NONE', *, *, #1107, .T. ) ;
#636 = ORIENTED_EDGE ( 'NONE', *, *, #1132, .F. ) ;
#637 = ORIENTED_EDGE ( 'NONE', *, *, #1130, .T. ) ;
#638 = ORIENTED_EDGE ( 'NONE', *, *, #1092, .F. ) ;
#639 = ORIENTED_EDGE ( 'NONE', *, *, #1101, .F. ) ;
#640 = ORIENTED_EDGE ( 'NONE', *, *, #1157, .F. ) ;
#641 = ORIENTED_EDGE ( 'NONE', *, *, #1101, .T. ) ;
#642 = ORIENTED_EDGE ( 'NONE', *, *, #1175, .T. ) ;
#643 = ORIENTED_EDGE ( 'NONE', *, *, #1119, .F. ) ;
#644 = ORIENTED_EDGE ( 'NONE', *, *, #1129, .T. ) ;
#645 = ORIENTED_EDGE ( 'NONE', *, *, #1075, .F. ) ;
#646 = ORIENTED_EDGE ( 'NONE', *, *, #1091, .T. ) ;
#647 = ORIENTED_EDGE ( 'NONE', *, *, #1104, .T. ) ;
#648 = ORIENTED_EDGE ( 'NONE', *, *, #1128, .F. ) ;
#649 = ORIENTED_EDGE ( 'NONE', *, *, #1151, .T. ) ;
#650 = ORIENTED_EDGE ( 'NONE', *, *, #1102, .T. ) ;
#651 = ORIENTED_EDGE ( 'NONE', *, *, #1114, .F. ) ;
#652 = ORIENTED_EDGE ( 'NONE', *, *, #1129, .F. ) ;
#653 = ORIENTED_EDGE ( 'NONE', *, *, #1149, .F. ) ;
#654 = ORIENTED_EDGE ( 'NONE', *, *, #1077, .F. ) ;
#655 = ORIENTED_EDGE ( 'NONE', *, *, #1173, .F. ) ;
#656 = ORIENTED_EDGE ( 'NONE', *, *, #1168, .T. ) ;
#657 = ORIENTED_EDGE ( 'NONE', *, *, #1112, .F. ) ;
#658 = ORIENTED_EDGE ( 'NONE', *, *, #1154, .F. ) ;
#659 = ORIENTED_EDGE ( 'NONE', *, *, #1094, .T. ) ;
#660 = ORIENTED_EDGE ( 'NONE', *, *, #1133, .T. ) ;
#661 = ORIENTED_EDGE ( 'NONE', *, *, #1103, .T. ) ;
#662 = ORIENTED_EDGE ( 'NONE', *, *, #1080, .T. ) ;
#663 = ORIENTED_EDGE ( 'NONE', *, *, #1093, .T. ) ;
#664 = ORIENTED_EDGE ( 'NONE', *, *, #1081, .T. ) ;
#665 = ORIENTED_EDGE ( 'NONE', *, *, #1127, .F. ) ;
#666 = ORIENTED_EDGE ( 'NONE', *, *, #1089, .F. ) ;
#667 = ORIENTED_EDGE ( 'NONE', *, *, #1079, .T. ) ;
#668 = ORIENTED_EDGE ( 'NONE', *, *, #1115, .T. ) ;
#669 = ORIENTED_EDGE ( 'NONE', *, *, #1132, .T. ) ;
#670 = ORIENTED_EDGE ( 'NONE', *, *, #1110, .T. ) ;
#671 = ORIENTED_EDGE ( 'NONE', *, *, #1154, .T. ) ;
#672 = ORIENTED_EDGE ( 'NONE', *, *, #1099, .F. ) ;
#673 = ORIENTED_EDGE ( 'NONE', *, *, #1161, .T. ) ;
#674 = ORIENTED_EDGE ( 'NONE', *, *, #1162, .F. ) ;
#675 = ORIENTED_EDGE ( 'NONE', *, *, #1082, .F. ) ;
#676 = ORIENTED_EDGE ( 'NONE', *, *, #1095, .F. ) ;
#677 = ORIENTED_EDGE ( 'NONE', *, *, #1182, .F. ) ;
#678 = ORIENTED_EDGE ( 'NONE', *, *, #1171, .T. ) ;
#679 = ORIENTED_EDGE ( 'NONE', *, *, #1152, .T. ) ;
#680 = ORIENTED_EDGE ( 'NONE', *, *, #1089, .T. ) ;
#681 = ORIENTED_EDGE ( 'NONE', *, *, #1095, .T. ) ;
#682 = ORIENTED_EDGE ( 'NONE', *, *, #1076, .F. ) ;
#683 = ORIENTED_EDGE ( 'NONE', *, *, #1076, .T. ) ;
#684 = ORIENTED_EDGE ( 'NONE', *, *, #1182, .T. ) ;
#685 = ORIENTED_EDGE ( 'NONE', *, *, #1085, .F. ) ;
#686 = ORIENTED_EDGE ( 'NONE', *, *, #1108, .T. ) ;
#687 = ORIENTED_EDGE ( 'NONE', *, *, #1120, .F. ) ;
#688 = ORIENTED_EDGE ( 'NONE', *, *, #1097, .T. ) ;
#689 = ORIENTED_EDGE ( 'NONE', *, *, #1098, .T. ) ;
#690 = ORIENTED_EDGE ( 'NONE', *, *, #1173, .T. ) ;
#691 = ORIENTED_EDGE ( 'NONE', *, *, #1092, .T. ) ;
#692 = ORIENTED_EDGE ( 'NONE', *, *, #1144, .T. ) ;
#693 = ORIENTED_EDGE ( 'NONE', *, *, #1111, .T. ) ;
#694 = ORIENTED_EDGE ( 'NONE', *, *, #1170, .T. ) ;
#695 = ORIENTED_EDGE ( 'NONE', *, *, #1078, .T. ) ;
#696 = ORIENTED_EDGE ( 'NONE', *, *, #1152, .F. ) ;
#697 = ORIENTED_EDGE ( 'NONE', *, *, #1178, .T. ) ;
#698 = ORIENTED_EDGE ( 'NONE', *, *, #1118, .T. ) ;
#699 = ORIENTED_EDGE ( 'NONE', *, *, #1118, .F. ) ;
#700 = ORIENTED_EDGE ( 'NONE', *, *, #1104, .F. ) ;
#701 = ORIENTED_EDGE ( 'NONE', *, *, #1162, .T. ) ;
#702 = ORIENTED_EDGE ( 'NONE', *, *, #1131, .T. ) ;
#703 = ORIENTED_EDGE ( 'NONE', *, *, #1148, .F. ) ;
#704 = ORIENTED_EDGE ( 'NONE', *, *, #1142, .T. ) ;
#705 = ORIENTED_EDGE ( 'NONE', *, *, #1099, .T. ) ;
#706 = ORIENTED_EDGE ( 'NONE', *, *, #1077, .T. ) ;
#707 = ORIENTED_EDGE ( 'NONE', *, *, #1086, .T. ) ;
#708 = ORIENTED_EDGE ( 'NONE', *, *, #1148, .T. ) ;
#709 = ORIENTED_EDGE ( 'NONE', *, *, #1144, .F. ) ;
#710 = ORIENTED_EDGE ( 'NONE', *, *, #1149, .T. ) ;
#711 = ORIENTED_EDGE ( 'NONE', *, *, #1159, .F. ) ;
#712 = ORIENTED_EDGE ( 'NONE', *, *, #1179, .T. ) ;
#713 = ORIENTED_EDGE ( 'NONE', *, *, #1081, .F. ) ;
#714 = ORIENTED_EDGE ( 'NONE', *, *, #1137, .T. ) ;
#715 = ORIENTED_EDGE ( 'NONE', *, *, #1176, .T. ) ;
#716 = ORIENTED_EDGE ( 'NONE', *, *, #1119, .T. ) ;
#717 = ORIENTED_EDGE ( 'NONE', *, *, #1079, .F. ) ;
#718 = ORIENTED_EDGE ( 'NONE', *, *, #1083, .F. ) ;
#719 = ORIENTED_EDGE ( 'NONE', *, *, #1156, .F. ) ;
#720 = ORIENTED_EDGE ( 'NONE', *, *, #1091, .F. ) ;
#721 = ORIENTED_EDGE ( 'NONE', *, *, #1181, .T. ) ;
#722 = ORIENTED_EDGE ( 'NONE', *, *, #1153, .T. ) ;
#723 = ORIENTED_EDGE ( 'NONE', *, *, #1178, .F. ) ;
#724 = ORIENTED_EDGE ( 'NONE', *, *, #1180, .T. ) ;
#725 = ORIENTED_EDGE ( 'NONE', *, *, #1122, .T. ) ;
#726 = ORIENTED_EDGE ( 'NONE', *, *, #1172, .T. ) ;
#727 = ORIENTED_EDGE ( 'NONE', *, *, #1093, .F. ) ;
#728 = ORIENTED_EDGE ( 'NONE', *, *, #1164, .T. ) ;
#729 = ORIENTED_EDGE ( 'NONE', *, *, #1126, .F. ) ;
#730 = ORIENTED_EDGE ( 'NONE', *, *, #1114, .T. ) ;
#731 = ORIENTED_EDGE ( 'NONE', *, *, #1088, .F. ) ;
#732 = ORIENTED_EDGE ( 'NONE', *, *, #1155, .F. ) ;
#733 = ORIENTED_EDGE ( 'NONE', *, *, #1143, .F. ) ;
#734 = ORIENTED_EDGE ( 'NONE', *, *, #1155, .T. ) ;
#735 = ORIENTED_EDGE ( 'NONE', *, *, #1115, .F. ) ;
#736 = ORIENTED_EDGE ( 'NONE', *, *, #1083, .T. ) ;
#737 = ORIENTED_EDGE ( 'NONE', *, *, #1143, .T. ) ;
#738 = ORIENTED_EDGE ( 'NONE', *, *, #1082, .T. ) ;
#739 = ORIENTED_EDGE ( 'NONE', *, *, #1172, .F. ) ;
#740 = ORIENTED_EDGE ( 'NONE', *, *, #1125, .T. ) ;
#741 = ORIENTED_EDGE ( 'NONE', *, *, #1133, .F. ) ;
#742 = ORIENTED_EDGE ( 'NONE', *, *, #1160, .F. ) ;
#743 = ORIENTED_EDGE ( 'NONE', *, *, #1161, .F. ) ;
#744 = DESIGN_CONTEXT ( 'detailed design', #84, 'design' ) ;
#745 = PRODUCT_DEFINITION_SHAPE ( 'NONE', 'NONE',  #1025 ) ;
#746 = ADVANCED_FACE ( 'NONE', ( #321, #311 ), #863, .F. ) ;
#747 = ADVANCED_FACE ( 'NONE', ( #324 ), #335, .F. ) ;
#748 = ADVANCED_FACE ( 'NONE', ( #366 ), #862, .F. ) ;
#749 = ADVANCED_FACE ( 'NONE', ( #372 ), #860, .F. ) ;
#750 = ADVANCED_FACE ( 'NONE', ( #333 ), #854, .F. ) ;
#751 = ADVANCED_FACE ( 'NONE', ( #373 ), #861, .F. ) ;
#752 = ADVANCED_FACE ( 'NONE', ( #367 ), #874, .F. ) ;
#753 = ADVANCED_FACE ( 'NONE', ( #369 ), #876, .F. ) ;
#754 = ADVANCED_FACE ( 'NONE', ( #385 ), #878, .T. ) ;
#755 = ADVANCED_FACE ( 'NONE', ( #361 ), #389, .T. ) ;
#756 = ADVANCED_FACE ( 'NONE', ( #382 ), #883, .F. ) ;
#757 = ADVANCED_FACE ( 'NONE', ( #375 ), #887, .F. ) ;
#758 = ADVANCED_FACE ( 'NONE', ( #365 ), #913, .F. ) ;
#759 = ADVANCED_FACE ( 'NONE', ( #387 ), #910, .T. ) ;
#760 = ADVANCED_FACE ( 'NONE', ( #383 ), #907, .F. ) ;
#761 = ADVANCED_FACE ( 'NONE', ( #343 ), #384, .T. ) ;
#762 = ADVANCED_FACE ( 'NONE', ( #379 ), #898, .F. ) ;
#763 = ADVANCED_FACE ( 'NONE', ( #388 ), #903, .F. ) ;
#764 = ADVANCED_FACE ( 'NONE', ( #350 ), #930, .T. ) ;
#765 = ADVANCED_FACE ( 'NONE', ( #352 ), #920, .F. ) ;
#766 = ADVANCED_FACE ( 'NONE', ( #381 ), #914, .F. ) ;
#767 = ADVANCED_FACE ( 'NONE', ( #363 ), #924, .T. ) ;
#768 = ADVANCED_FACE ( 'NONE', ( #362 ), #929, .T. ) ;
#769 = ADVANCED_FACE ( 'NONE', ( #376 ), #386, .T. ) ;
#770 = ADVANCED_FACE ( 'NONE', ( #353 ), #958, .F. ) ;
#771 = ADVANCED_FACE ( 'NONE', ( #359 ), #945, .F. ) ;
#772 = ADVANCED_FACE ( 'NONE', ( #378 ), #939, .T. ) ;
#773 = ADVANCED_FACE ( 'NONE', ( #374 ), #970, .F. ) ;
#774 = ADVANCED_FACE ( 'NONE', ( #371 ), #947, .F. ) ;
#775 = ADVANCED_FACE ( 'NONE', ( #349 ), #345, .T. ) ;
#776 = ADVANCED_FACE ( 'NONE', ( #370 ), #963, .F. ) ;
#777 = ADVANCED_FACE ( 'NONE', ( #360 ), #951, .F. ) ;
#778 = ADVANCED_FACE ( 'NONE', ( #344 ), #955, .F. ) ;
#779 = ADVANCED_FACE ( 'NONE', ( #346 ), #976, .F. ) ;
#780 = ADVANCED_FACE ( 'NONE', ( #377 ), #355, .F. ) ;
#781 = DIRECTION ( 'NONE',  ( -0.0000000000000000000, -0.0000000000000000000, -1.000000000000000000 ) ) ;
#782 = DIRECTION ( 'NONE',  ( -0.09950371902099855400, -0.9950371902099891500, -0.0000000000000000000 ) ) ;
#783 = DIRECTION ( 'NONE',  ( -1.000000000000000000, -0.0000000000000000000, -0.0000000000000000000 ) ) ;
#784 = CARTESIAN_POINT ( 'NONE',  ( -14.79999999999999400, -4.500000000000001800, 3.499999999999997800 ) ) ;
#785 = CARTESIAN_POINT ( 'NONE',  ( 2.199999999999982400, 19.99999999999999600, 8.000000000000000000 ) ) ;
#786 = CARTESIAN_POINT ( 'NONE',  ( -28.60000000000000500, 16.99999999999999300, 8.000000000000000000 ) ) ;
#787 = CARTESIAN_POINT ( 'NONE',  ( -10.80000000000002600, -7.500000000000002700, -3.500000000000001300 ) ) ;
#788 = CARTESIAN_POINT ( 'NONE',  ( 2.199999999999982400, 19.99999999999999600, -8.000000000000000000 ) ) ;
#789 = CARTESIAN_POINT ( 'NONE',  ( -2.999999999999998700, 14.00000000000000000, -8.000000000000000000 ) ) ;
#790 = CARTESIAN_POINT ( 'NONE',  ( 1.000000000000001100, 11.79999999999999900, 8.000000000000000000 ) ) ;
#791 = CARTESIAN_POINT ( 'NONE',  ( 2.199999999999998800, 3.999999999999995600, 8.000000000000000000 ) ) ;
#792 = CARTESIAN_POINT ( 'NONE',  ( -28.99999999999998600, 2.999999999999996000, 8.000000000000000000 ) ) ;
#793 = CARTESIAN_POINT ( 'NONE',  ( -31.00000000000000400, 19.39999999999999900, -8.000000000000000000 ) ) ;
#794 = CARTESIAN_POINT ( 'NONE',  ( -19.29999999999999400, -2.363568322354391000E-015, 3.499999999999999600 ) ) ;
#795 = CARTESIAN_POINT ( 'NONE',  ( 2.199999999999998800, 3.999999999999995600, -8.000000000000000000 ) ) ;
#796 = CARTESIAN_POINT ( 'NONE',  ( 0.0000000000000000000, 0.0000000000000000000, 8.000000000000000000 ) ) ;
#797 = CARTESIAN_POINT ( 'NONE',  ( -34.79999999999999700, -4.261770861032789000E-015, 8.000000000000000000 ) ) ;
#798 = CARTESIAN_POINT ( 'NONE',  ( -28.60000000000000500, 16.99999999999999300, -8.000000000000000000 ) ) ;
#799 = CARTESIAN_POINT ( 'NONE',  ( -30.99002487577580900, 19.99999999999999600, 8.000000000000000000 ) ) ;
#800 = CARTESIAN_POINT ( 'NONE',  ( -31.00000000000000000, 5.000000000000011500, 8.000000000000000000 ) ) ;
#801 = CARTESIAN_POINT ( 'NONE',  ( -21.79999999999999400, -4.500000000000002700, -3.500000000000002700 ) ) ;
#802 = CARTESIAN_POINT ( 'NONE',  ( -11.29999999999999400, -4.500000000000001800, -3.500000000000000400 ) ) ;
#803 = CARTESIAN_POINT ( 'NONE',  ( 2.199999999999998800, 9.999999999999989300, 8.000000000000000000 ) ) ;
#804 = CARTESIAN_POINT ( 'NONE',  ( 4.199999999999997500, 17.99999999999998200, 8.000000000000000000 ) ) ;
#805 = CARTESIAN_POINT ( 'NONE',  ( 2.199999999999998800, 9.999999999999989300, -8.000000000000000000 ) ) ;
#806 = CARTESIAN_POINT ( 'NONE',  ( -19.29999999999999400, -4.500000000000002700, 3.499999999999999600 ) ) ;
#807 = CARTESIAN_POINT ( 'NONE',  ( -10.80000000000002600, -7.500000000000002700, 3.499999999999997800 ) ) ;
#808 = CARTESIAN_POINT ( 'NONE',  ( -15.79999999999999500, -1.934941942652817200E-015, -3.500000000000001300 ) ) ;
#809 = CARTESIAN_POINT ( 'NONE',  ( 2.199999999999998800, 11.59999999999999400, -8.000000000000000000 ) ) ;
#810 = CARTESIAN_POINT ( 'NONE',  ( -5.000000000000013300, 2.999999999999996400, -8.000000000000000000 ) ) ;
#811 = CARTESIAN_POINT ( 'NONE',  ( -11.29999999999999400, -1.306097096275233700E-015, -4.336808689942017700E-016 ) ) ;
#812 = CARTESIAN_POINT ( 'NONE',  ( 1.000000000000000900, 14.00000000000000000, 8.000000000000000000 ) ) ;
#813 = CARTESIAN_POINT ( 'NONE',  ( -31.00000000000000400, 19.39999999999999900, 8.000000000000000000 ) ) ;
#814 = CARTESIAN_POINT ( 'NONE',  ( -34.79999999999999700, -4.261770861032789000E-015, -8.000000000000000000 ) ) ;
#815 = CARTESIAN_POINT ( 'NONE',  ( -2.999999999999998700, 14.00000000000000000, 8.000000000000000000 ) ) ;
#816 = CARTESIAN_POINT ( 'NONE',  ( -19.29999999999999400, -2.163349855678380500E-015, -4.336808689942017700E-016 ) ) ;
#817 = CARTESIAN_POINT ( 'NONE',  ( -11.29999999999999400, -1.383850883036508300E-015, -3.500000000000001300 ) ) ;
#818 = CARTESIAN_POINT ( 'NONE',  ( -7.799999999999992700, -4.500000000000000900, 3.499999999999997800 ) ) ;
#819 = CARTESIAN_POINT ( 'NONE',  ( 2.199999999999998800, 11.59999999999999400, 8.000000000000000000 ) ) ;
#820 = CARTESIAN_POINT ( 'NONE',  ( 4.199999999999999300, 3.999999999999996400, -8.000000000000000000 ) ) ;
#821 = CARTESIAN_POINT ( 'NONE',  ( 2.168404344971008900E-016, 11.79999999999999900, -8.000000000000000000 ) ) ;
#822 = CARTESIAN_POINT ( 'NONE',  ( 4.199999999999997500, 17.99999999999998200, -8.000000000000000000 ) ) ;
#823 = CARTESIAN_POINT ( 'NONE',  ( -28.99999999999998600, 2.999999999999996000, -8.000000000000000000 ) ) ;
#824 = CARTESIAN_POINT ( 'NONE',  ( -32.98009925619580700, 18.19900743804197800, -8.000000000000000000 ) ) ;
#825 = CARTESIAN_POINT ( 'NONE',  ( -5.000000000000013300, 2.999999999999996400, 8.000000000000000000 ) ) ;
#826 = CARTESIAN_POINT ( 'NONE',  ( -14.79999999999999400, -1.812477262738082100E-015, 3.499999999999998200 ) ) ;
#827 = CARTESIAN_POINT ( 'NONE',  ( 2.199999999999998800, 16.99999999999999600, 8.000000000000000000 ) ) ;
#828 = CARTESIAN_POINT ( 'NONE',  ( -30.99002487577580900, 19.99999999999999600, -8.000000000000000000 ) ) ;
#829 = CARTESIAN_POINT ( 'NONE',  ( -2.999999999999998700, 5.000000000000011500, -8.000000000000000000 ) ) ;
#830 = CARTESIAN_POINT ( 'NONE',  ( 0.5999999999999987600, 11.59999999999999400, -8.000000000000000000 ) ) ;
#831 = CARTESIAN_POINT ( 'NONE',  ( 0.5999999999999987600, 11.59999999999999400, 8.000000000000000000 ) ) ;
#832 = CARTESIAN_POINT ( 'NONE',  ( -7.799999999999992700, -4.500000000000000900, -3.500000000000001300 ) ) ;
#833 = CARTESIAN_POINT ( 'NONE',  ( -18.79999999999995800, -7.500000000000003600, -3.500000000000001300 ) ) ;
#834 = CARTESIAN_POINT ( 'NONE',  ( -18.79999999999995800, -7.500000000000003600, 3.499999999999997800 ) ) ;
#835 = CARTESIAN_POINT ( 'NONE',  ( -19.29999999999999400, -4.500000000000002700, -4.336808689942017700E-016 ) ) ;
#836 = CARTESIAN_POINT ( 'NONE',  ( -32.98009925619580700, 18.19900743804197800, 8.000000000000000000 ) ) ;
#837 = CARTESIAN_POINT ( 'NONE',  ( -31.00000000000000000, 5.000000000000011500, -8.000000000000000000 ) ) ;
#838 = CARTESIAN_POINT ( 'NONE',  ( 0.0000000000000000000, 0.0000000000000000000, -8.000000000000000000 ) ) ;
#839 = CARTESIAN_POINT ( 'NONE',  ( 1.000000000000001100, 11.79999999999999900, -8.000000000000000000 ) ) ;
#840 = CARTESIAN_POINT ( 'NONE',  ( 2.199999999999998800, 16.99999999999999600, -8.000000000000000000 ) ) ;
#841 = CARTESIAN_POINT ( 'NONE',  ( -21.79999999999999400, -4.500000000000002700, 3.499999999999997800 ) ) ;
#842 = CARTESIAN_POINT ( 'NONE',  ( -15.79999999999999500, -4.500000000000001800, -3.500000000000000400 ) ) ;
#843 = CARTESIAN_POINT ( 'NONE',  ( -11.29999999999999500, -4.500000000000001800, -4.336808689942017700E-016 ) ) ;
#844 = CARTESIAN_POINT ( 'NONE',  ( 1.000000000000000900, 14.00000000000000000, -8.000000000000000000 ) ) ;
#845 = CARTESIAN_POINT ( 'NONE',  ( -28.99999999999999600, 4.999999999999997300, 8.000000000000000000 ) ) ;
#846 = DIRECTION ( 'NONE',  ( -0.0000000000000000000, -0.0000000000000000000, -1.000000000000000000 ) ) ;
#847 = CARTESIAN_POINT ( 'NONE',  ( -2.999999999999998700, 5.000000000000011500, 8.000000000000000000 ) ) ;
#848 = CARTESIAN_POINT ( 'NONE',  ( 4.199999999999999300, 3.999999999999996400, 8.000000000000000000 ) ) ;
#849 = CARTESIAN_POINT ( 'NONE',  ( 1.000000000000001100, 11.79999999999999900, 8.000000000000000000 ) ) ;
#850 = DIRECTION ( 'NONE',  ( 0.0000000000000000000, 1.000000000000000000, -0.0000000000000000000 ) ) ;
#851 = CARTESIAN_POINT ( 'NONE',  ( -30.99002487577582300, 17.99999999999999600, 8.000000000000000000 ) ) ;
#852 = DIRECTION ( 'NONE',  ( 0.0000000000000000000, 0.0000000000000000000, 1.000000000000000000 ) ) ;
#853 = DIRECTION ( 'NONE',  ( -1.000000000000000000, 0.0000000000000000000, 0.0000000000000000000 ) ) ;
#854 = PLANE ( 'NONE',  #1167 ) ;
#855 = CARTESIAN_POINT ( 'NONE',  ( 2.168404344971008900E-016, 11.79999999999999900, 8.000000000000000000 ) ) ;
#856 = DIRECTION ( 'NONE',  ( -1.000000000000000000, -1.224646799147353200E-016, 0.0000000000000000000 ) ) ;
#857 = DIRECTION ( 'NONE',  ( -1.000000000000000000, 0.0000000000000000000, 0.0000000000000000000 ) ) ;
#858 = DIRECTION ( 'NONE',  ( -0.0000000000000000000, 0.0000000000000000000, -1.000000000000000000 ) ) ;
#859 = CARTESIAN_POINT ( 'NONE',  ( 2.199999999999998800, 3.999999999999995600, 8.000000000000000000 ) ) ;
#860 = PLANE ( 'NONE',  #1145 ) ;
#861 = PLANE ( 'NONE',  #1138 ) ;
#862 = PLANE ( 'NONE',  #1136 ) ;
#863 = PLANE ( 'NONE',  #1174 ) ;
#864 = DIRECTION ( 'NONE',  ( -1.224646799147353200E-016, 1.000000000000000000, 0.0000000000000000000 ) ) ;
#865 = CARTESIAN_POINT ( 'NONE',  ( 0.0000000000000000000, 0.0000000000000000000, 8.000000000000000000 ) ) ;
#866 = CARTESIAN_POINT ( 'NONE',  ( -15.79999999999999500, -4.500000000000001800, -3.500000000000000900 ) ) ;
#867 = DIRECTION ( 'NONE',  ( 0.0000000000000000000, 0.0000000000000000000, -1.000000000000000000 ) ) ;
#868 = DIRECTION ( 'NONE',  ( 0.9950371902099892600, -0.09950371902099856800, 0.0000000000000000000 ) ) ;
#869 = CARTESIAN_POINT ( 'NONE',  ( -11.29999999999999400, -4.500000000000001800, -3.500000000000000400 ) ) ;
#870 = DIRECTION ( 'NONE',  ( 0.09950371902099855400, 0.9950371902099891500, 0.0000000000000000000 ) ) ;
#871 = DIRECTION ( 'NONE',  ( -1.000000000000000000, -1.224646799147353200E-016, -4.956352788505163300E-016 ) ) ;
#872 = DIRECTION ( 'NONE',  ( -9.637352644315592800E-017, -1.180235306811537200E-032, 1.000000000000000000 ) ) ;
#873 = DIRECTION ( 'NONE',  ( 1.000000000000000000, 0.0000000000000000000, 0.0000000000000000000 ) ) ;
#874 = PLANE ( 'NONE',  #1158 ) ;
#875 = DIRECTION ( 'NONE',  ( -4.956352788505163300E-016, 0.0000000000000000000, 1.000000000000000000 ) ) ;
#876 = PLANE ( 'NONE',  #1139 ) ;
#877 = DIRECTION ( 'NONE',  ( 1.000000000000000000, 0.0000000000000000000, 9.637352644315592800E-017 ) ) ;
#878 = PLANE ( 'NONE',  #1166 ) ;
#879 = CARTESIAN_POINT ( 'NONE',  ( -7.799999999999992700, -4.500000000000000900, -17.81782106327635500 ) ) ;
#880 = CARTESIAN_POINT ( 'NONE',  ( -34.79999999999999700, -4.261770861032789000E-015, 8.000000000000000000 ) ) ;
#881 = DIRECTION ( 'NONE',  ( 0.7071067811865511300, 0.7071067811865440200, 0.0000000000000000000 ) ) ;
#882 = DIRECTION ( 'NONE',  ( -1.000000000000000000, 0.0000000000000000000, 0.0000000000000000000 ) ) ;
#883 = PLANE ( 'NONE',  #1147 ) ;
#884 = CARTESIAN_POINT ( 'NONE',  ( 2.199999999999998800, 16.99999999999999600, 8.000000000000000000 ) ) ;
#885 = DIRECTION ( 'NONE',  ( -0.0000000000000000000, -0.0000000000000000000, -1.000000000000000000 ) ) ;
#886 = CARTESIAN_POINT ( 'NONE',  ( 2.199999999999996600, 17.99999999999999600, 8.000000000000000000 ) ) ;
#887 = PLANE ( 'NONE',  #1169 ) ;
#888 = DIRECTION ( 'NONE',  ( 0.7071067811865440200, -0.7071067811865511300, 0.0000000000000000000 ) ) ;
#889 = DIRECTION ( 'NONE',  ( 1.084202172485513300E-016, -1.000000000000000000, 0.0000000000000000000 ) ) ;
#890 = CARTESIAN_POINT ( 'NONE',  ( -28.60000000000000500, 16.99999999999999300, 8.000000000000000000 ) ) ;
#891 = DIRECTION ( 'NONE',  ( -0.0000000000000000000, -0.0000000000000000000, -1.000000000000000000 ) ) ;
#892 = DIRECTION ( 'NONE',  ( -4.336808689942017700E-016, 1.000000000000000000, 0.0000000000000000000 ) ) ;
#893 = DIRECTION ( 'NONE',  ( 0.7071067811865480200, 0.7071067811865470200, -0.0000000000000000000 ) ) ;
#894 = DIRECTION ( 'NONE',  ( -0.7071067811865470200, 0.7071067811865480200, 0.0000000000000000000 ) ) ;
#895 = CARTESIAN_POINT ( 'NONE',  ( -18.79999999999995800, -7.500000000000003600, -17.81782106327635500 ) ) ;
#896 = CARTESIAN_POINT ( 'NONE',  ( -31.00000000000000400, 19.39999999999999900, 8.000000000000000000 ) ) ;
#897 = DIRECTION ( 'NONE',  ( -1.000000000000000000, 0.0000000000000000000, 0.0000000000000000000 ) ) ;
#898 = PLANE ( 'NONE',  #1074 ) ;
#899 = CARTESIAN_POINT ( 'NONE',  ( 1.000000000000000900, 14.00000000000000000, 8.000000000000000000 ) ) ;
#900 = DIRECTION ( 'NONE',  ( -1.000000000000000000, -9.856383386231856400E-017, 0.0000000000000000000 ) ) ;
#901 = DIRECTION ( 'NONE',  ( 9.856383386231856400E-017, -1.000000000000000000, 0.0000000000000000000 ) ) ;
#902 = DIRECTION ( 'NONE',  ( -1.000000000000000000, -2.409338161078901200E-016, 0.0000000000000000000 ) ) ;
#903 = PLANE ( 'NONE',  #1055 ) ;
#904 = DIRECTION ( 'NONE',  ( 1.000000000000000000, 1.084202172485513300E-016, 0.0000000000000000000 ) ) ;
#905 = DIRECTION ( 'NONE',  ( -1.000000000000000000, -1.126443815569355400E-016, 0.0000000000000000000 ) ) ;
#906 = DIRECTION ( 'NONE',  ( -1.126443815569355400E-016, 1.000000000000000000, 0.0000000000000000000 ) ) ;
#907 = PLANE ( 'NONE',  #1072 ) ;
#908 = CARTESIAN_POINT ( 'NONE',  ( -30.99002487577582300, 17.99999999999999600, 8.000000000000000000 ) ) ;
#909 = DIRECTION ( 'NONE',  ( 2.409338161078901200E-016, -1.000000000000000000, 0.0000000000000000000 ) ) ;
#910 = PLANE ( 'NONE',  #1071 ) ;
#911 = CARTESIAN_POINT ( 'NONE',  ( 4.199999999999999300, 3.999999999999996400, 8.000000000000000000 ) ) ;
#912 = DIRECTION ( 'NONE',  ( -1.000000000000000000, -4.336808689942017700E-016, 0.0000000000000000000 ) ) ;
#913 = PLANE ( 'NONE',  #1183 ) ;
#914 = PLANE ( 'NONE',  #1063 ) ;
#915 = DIRECTION ( 'NONE',  ( 0.0000000000000000000, -1.000000000000000000, 0.0000000000000000000 ) ) ;
#916 = CARTESIAN_POINT ( 'NONE',  ( -30.99002487577582300, 17.99999999999999600, 8.000000000000000000 ) ) ;
#917 = CARTESIAN_POINT ( 'NONE',  ( 2.168404344971008900E-016, 11.79999999999999900, 8.000000000000000000 ) ) ;
#918 = DIRECTION ( 'NONE',  ( -0.0000000000000000000, 0.0000000000000000000, -1.000000000000000000 ) ) ;
#919 = DIRECTION ( 'NONE',  ( -1.239088197126290800E-016, 1.000000000000000000, 0.0000000000000000000 ) ) ;
#920 = PLANE ( 'NONE',  #1046 ) ;
#921 = DIRECTION ( 'NONE',  ( 0.0000000000000000000, -0.0000000000000000000, -1.000000000000000000 ) ) ;
#922 = CARTESIAN_POINT ( 'NONE',  ( -21.79999999999999400, -4.500000000000002700, -17.81782106327635500 ) ) ;
#923 = DIRECTION ( 'NONE',  ( -1.000000000000000000, 1.837630800822889100E-017, 0.0000000000000000000 ) ) ;
#924 = PLANE ( 'NONE',  #1061 ) ;
#925 = CARTESIAN_POINT ( 'NONE',  ( -30.99002487577582300, 17.99999999999999600, -8.000000000000000000 ) ) ;
#926 = CARTESIAN_POINT ( 'NONE',  ( -19.29999999999999400, -4.500000000000002700, 3.499999999999999600 ) ) ;
#927 = DIRECTION ( 'NONE',  ( -9.637352644315592800E-017, -1.180235306811537200E-032, -1.000000000000000000 ) ) ;
#928 = DIRECTION ( 'NONE',  ( -1.000000000000000000, 0.0000000000000000000, 9.637352644315592800E-017 ) ) ;
#929 = PLANE ( 'NONE',  #1058 ) ;
#930 = PLANE ( 'NONE',  #1062 ) ;
#931 = DIRECTION ( 'NONE',  ( -1.000000000000000000, -1.239088197126290800E-016, 0.0000000000000000000 ) ) ;
#932 = DIRECTION ( 'NONE',  ( -1.837630800822889100E-017, -1.000000000000000000, 0.0000000000000000000 ) ) ;
#933 = CARTESIAN_POINT ( 'NONE',  ( 0.5999999999999987600, 11.59999999999999400, 8.000000000000000000 ) ) ;
#934 = CARTESIAN_POINT ( 'NONE',  ( -7.799999999999992700, -4.500000000000000900, -17.81782106327635500 ) ) ;
#935 = DIRECTION ( 'NONE',  ( -1.000000000000000000, 0.0000000000000000000, 0.0000000000000000000 ) ) ;
#936 = CARTESIAN_POINT ( 'NONE',  ( -2.999999999999998700, 14.00000000000000000, 8.000000000000000000 ) ) ;
#937 = CARTESIAN_POINT ( 'NONE',  ( -15.79999999999999500, -4.500000000000001800, -4.336808689942017700E-016 ) ) ;
#938 = DIRECTION ( 'NONE',  ( 0.0000000000000000000, -0.0000000000000000000, -1.000000000000000000 ) ) ;
#939 = PLANE ( 'NONE',  #1047 ) ;
#940 = DIRECTION ( 'NONE',  ( 0.0000000000000000000, 0.0000000000000000000, -1.000000000000000000 ) ) ;
#941 = DIRECTION ( 'NONE',  ( -1.224646799147353200E-016, 1.000000000000000000, -0.0000000000000000000 ) ) ;
#942 = DIRECTION ( 'NONE',  ( -1.224646799147353200E-016, 1.000000000000000000, -0.0000000000000000000 ) ) ;
#943 = DIRECTION ( 'NONE',  ( 0.7071067811865513500, -0.7071067811865435800, 0.0000000000000000000 ) ) ;
#944 = DIRECTION ( 'NONE',  ( 0.0000000000000000000, -1.000000000000000000, 0.0000000000000000000 ) ) ;
#945 = PLANE ( 'NONE',  #1050 ) ;
#946 = CARTESIAN_POINT ( 'NONE',  ( -2.999999999999999100, 5.000000000000011500, 8.000000000000000000 ) ) ;
#947 = PLANE ( 'NONE',  #1060 ) ;
#948 = DIRECTION ( 'NONE',  ( -1.000000000000000000, 0.0000000000000000000, 0.0000000000000000000 ) ) ;
#949 = DIRECTION ( 'NONE',  ( 0.0000000000000000000, -1.000000000000000000, 0.0000000000000000000 ) ) ;
#950 = DIRECTION ( 'NONE',  ( 0.0000000000000000000, -0.0000000000000000000, -1.000000000000000000 ) ) ;
#951 = PLANE ( 'NONE',  #1056 ) ;
#952 = CARTESIAN_POINT ( 'NONE',  ( -30.99002487577580900, 19.99999999999999300, 8.000000000000000000 ) ) ;
#953 = DIRECTION ( 'NONE',  ( 1.045328216817890700E-016, -1.000000000000000000, 0.0000000000000000000 ) ) ;
#954 = DIRECTION ( 'NONE',  ( 1.000000000000000000, 1.045328216817890700E-016, 0.0000000000000000000 ) ) ;
#955 = PLANE ( 'NONE',  #1041 ) ;
#956 = DIRECTION ( 'NONE',  ( -0.7071067811865436900, -0.7071067811865514600, 0.0000000000000000000 ) ) ;
#957 = CARTESIAN_POINT ( 'NONE',  ( 2.199999999999998800, 9.999999999999989300, 8.000000000000000000 ) ) ;
#958 = PLANE ( 'NONE',  #1042 ) ;
#959 = DIRECTION ( 'NONE',  ( -1.239088197126290800E-016, 1.000000000000000000, 0.0000000000000000000 ) ) ;
#960 = DIRECTION ( 'NONE',  ( -1.000000000000000000, -1.239088197126290800E-016, 0.0000000000000000000 ) ) ;
#961 = DIRECTION ( 'NONE',  ( -1.000000000000000000, 0.0000000000000000000, 0.0000000000000000000 ) ) ;
#962 = CARTESIAN_POINT ( 'NONE',  ( -14.79999999999999400, -4.500000000000001800, -4.336808689942017700E-016 ) ) ;
#963 = PLANE ( 'NONE',  #1044 ) ;
#964 = CARTESIAN_POINT ( 'NONE',  ( 4.199999999999996600, 17.99999999999998200, 8.000000000000000000 ) ) ;
#965 = DIRECTION ( 'NONE',  ( 1.000000000000000000, 0.0000000000000000000, 0.0000000000000000000 ) ) ;
#966 = CARTESIAN_POINT ( 'NONE',  ( -28.99999999999998600, 2.999999999999996400, 8.000000000000000000 ) ) ;
#967 = DIRECTION ( 'NONE',  ( 0.7071067811865484600, 0.7071067811865466800, -0.0000000000000000000 ) ) ;
#968 = DIRECTION ( 'NONE',  ( 0.0000000000000000000, 0.0000000000000000000, 1.000000000000000000 ) ) ;
#969 = DIRECTION ( 'NONE',  ( -1.000000000000000000, 0.0000000000000000000, 0.0000000000000000000 ) ) ;
#970 = PLANE ( 'NONE',  #1059 ) ;
#971 = DIRECTION ( 'NONE',  ( 1.858632295689438300E-016, -1.000000000000000000, 0.0000000000000000000 ) ) ;
#972 = DIRECTION ( 'NONE',  ( -0.7071067811865465700, 0.7071067811865483500, 0.0000000000000000000 ) ) ;
#973 = DIRECTION ( 'NONE',  ( 1.000000000000000000, -4.818676322157803200E-017, 0.0000000000000000000 ) ) ;
#974 = DIRECTION ( 'NONE',  ( -1.000000000000000000, -1.858632295689438300E-016, 0.0000000000000000000 ) ) ;
#975 = CARTESIAN_POINT ( 'NONE',  ( -7.799999999999992700, -4.500000000000000900, -17.81782106327635500 ) ) ;
#976 = PLANE ( 'NONE',  #1057 ) ;
#977 = CARTESIAN_POINT ( 'NONE',  ( 2.199999999999998800, 11.59999999999999400, 8.000000000000000000 ) ) ;
#978 = CARTESIAN_POINT ( 'NONE',  ( -19.29999999999999400, -4.500000000000002700, -4.336808689942017700E-016 ) ) ;
#979 = DIRECTION ( 'NONE',  ( 1.000000000000000000, 1.224646799147353200E-016, -0.0000000000000000000 ) ) ;
#980 = DIRECTION ( 'NONE',  ( -1.224646799147353200E-016, 1.000000000000000000, 0.0000000000000000000 ) ) ;
#981 = DIRECTION ( 'NONE',  ( 4.818676322157803200E-017, 1.000000000000000000, 0.0000000000000000000 ) ) ;
#982 = DIRECTION ( 'NONE',  ( 1.000000000000000000, 1.126443815569355400E-016, -0.0000000000000000000 ) ) ;
#983 = DIRECTION ( 'NONE',  ( -4.818676322157803200E-017, -1.000000000000000000, -0.0000000000000000000 ) ) ;
#984 = DIRECTION ( 'NONE',  ( -0.0000000000000000000, -0.0000000000000000000, -1.000000000000000000 ) ) ;
#985 = CARTESIAN_POINT ( 'NONE',  ( 0.5999999999999987600, 11.59999999999999400, 8.000000000000000000 ) ) ;
#986 = CARTESIAN_POINT ( 'NONE',  ( 2.199999999999998800, 16.99999999999999600, 8.000000000000000000 ) ) ;
#987 = DIRECTION ( 'NONE',  ( 0.7071067811865470200, -0.7071067811865481300, -0.0000000000000000000 ) ) ;
#988 = DIRECTION ( 'NONE',  ( 1.000000000000000000, 1.224646799147353000E-016, 9.637352644315594000E-017 ) ) ;
#989 = CARTESIAN_POINT ( 'NONE',  ( -15.79999999999999500, -4.500000000000001800, -3.500000000000000400 ) ) ;
#990 = CARTESIAN_POINT ( 'NONE',  ( -7.799999999999992700, -4.500000000000000900, 3.499999999999997800 ) ) ;
#991 = CARTESIAN_POINT ( 'NONE',  ( -28.60000000000000500, 16.99999999999999300, -8.000000000000000000 ) ) ;
#992 = DIRECTION ( 'NONE',  ( -0.0000000000000000000, -0.0000000000000000000, -1.000000000000000000 ) ) ;
#993 = CARTESIAN_POINT ( 'NONE',  ( 1.000000000000000900, 14.00000000000000000, 8.000000000000000000 ) ) ;
#994 = CARTESIAN_POINT ( 'NONE',  ( -28.99999999999998600, 2.999999999999996400, 8.000000000000000000 ) ) ;
#995 = CARTESIAN_POINT ( 'NONE',  ( -15.79999999999999500, -1.934941942652817200E-015, -3.500000000000000900 ) ) ;
#996 = DIRECTION ( 'NONE',  ( -0.0000000000000000000, -0.0000000000000000000, -1.000000000000000000 ) ) ;
#997 = DIRECTION ( 'NONE',  ( -0.0000000000000000000, -0.0000000000000000000, -1.000000000000000000 ) ) ;
#998 = CARTESIAN_POINT ( 'NONE',  ( 2.199999999999982400, 19.99999999999999600, 8.000000000000000000 ) ) ;
#999 = CARTESIAN_POINT ( 'NONE',  ( -5.000000000000013300, 2.999999999999996400, 8.000000000000000000 ) ) ;
#1000 = CARTESIAN_POINT ( 'NONE',  ( -4.999999999999999100, 4.999999999999997300, 8.000000000000000000 ) ) ;
#1001 = DIRECTION ( 'NONE',  ( -1.000000000000000000, 0.0000000000000000000, 0.0000000000000000000 ) ) ;
#1002 = DIRECTION ( 'NONE',  ( -1.000000000000000000, -0.0000000000000000000, -0.0000000000000000000 ) ) ;
#1003 = CARTESIAN_POINT ( 'NONE',  ( -2.999999999999999100, 5.000000000000011500, -8.000000000000000000 ) ) ;
#1004 = DIRECTION ( 'NONE',  ( -1.000000000000000000, -1.239088197126290800E-016, 0.0000000000000000000 ) ) ;
#1005 = DIRECTION ( 'NONE',  ( -1.224646799147353200E-016, 1.000000000000000000, -0.0000000000000000000 ) ) ;
#1006 = CARTESIAN_POINT ( 'NONE',  ( 0.0000000000000000000, 0.0000000000000000000, -8.000000000000000000 ) ) ;
#1007 = DIRECTION ( 'NONE',  ( -9.856383386231856400E-017, 1.000000000000000000, -0.0000000000000000000 ) ) ;
#1008 = CARTESIAN_POINT ( 'NONE',  ( -34.79999999999999700, -4.261770861032789000E-015, 8.000000000000000000 ) ) ;
#1009 = CARTESIAN_POINT ( 'NONE',  ( -34.79999999999999700, -4.261770861032789000E-015, -8.000000000000000000 ) ) ;
#1010 = CARTESIAN_POINT ( 'NONE',  ( 2.168404344971008900E-016, 11.79999999999999900, 8.000000000000000000 ) ) ;
#1011 = CARTESIAN_POINT ( 'NONE',  ( 0.5999999999999987600, 11.59999999999999400, 8.000000000000000000 ) ) ;
#1012 = DIRECTION ( 'NONE',  ( -0.0000000000000000000, -0.0000000000000000000, -1.000000000000000000 ) ) ;
#1013 = DIRECTION ( 'NONE',  ( -0.0000000000000000000, -0.0000000000000000000, -1.000000000000000000 ) ) ;
#1014 = DIRECTION ( 'NONE',  ( 1.000000000000000000, 1.224646799147353200E-016, -0.0000000000000000000 ) ) ;
#1015 = CARTESIAN_POINT ( 'NONE',  ( 2.199999999999998800, 3.999999999999995600, 8.000000000000000000 ) ) ;
#1016 = DIRECTION ( 'NONE',  ( -0.0000000000000000000, -1.000000000000000000, -0.0000000000000000000 ) ) ;
#1017 = CARTESIAN_POINT ( 'NONE',  ( -28.99999999999998600, 2.999999999999996000, 8.000000000000000000 ) ) ;
#1018 = CC_DESIGN_PERSON_AND_ORGANIZATION_ASSIGNMENT ( #570, #69, ( #2 ) ) ;
#1019 = APPROVAL ( #88, 'UNSPECIFIED' ) ;
#1020 = AXIS2_PLACEMENT_3D ( 'NONE', #17, #28, #33 ) ;
#1021 =( GEOMETRIC_REPRESENTATION_CONTEXT ( 3 ) GLOBAL_UNCERTAINTY_ASSIGNED_CONTEXT ( ( #1069 ) ) GLOBAL_UNIT_ASSIGNED_CONTEXT ( ( #68, #72, #76 ) ) REPRESENTATION_CONTEXT ( 'NONE', 'WORKASPACE' ) );
#1022 = AXIS2_PLACEMENT_3D ( 'NONE', #78, #86, #83 ) ;
#1023 = AXIS2_PLACEMENT_3D ( 'NONE', #40, #34, #54 ) ;
#1024 = AXIS2_PLACEMENT_3D ( 'NONE', #146, #159, #162 ) ;
#1025 = PRODUCT_DEFINITION ( 'UNKNOWN', '', #1040, #744 ) ;
#1026 = CC_DESIGN_APPROVAL ( #1019, ( #1025 ) ) ;
#1027 = APPROVAL ( #90, 'UNSPECIFIED' ) ;
#1028 = CC_DESIGN_APPROVAL ( #1027, ( #1040 ) ) ;
#1029 = SECURITY_CLASSIFICATION ( '', '', #71 ) ;
#1030 = CC_DESIGN_PERSON_AND_ORGANIZATION_ASSIGNMENT ( #556, #89, ( #1025 ) ) ;
#1031 = CC_DESIGN_DATE_AND_TIME_ASSIGNMENT ( #576, #80, ( #1025 ) ) ;
#1032 = CC_DESIGN_PERSON_AND_ORGANIZATION_ASSIGNMENT ( #579, #91, ( #1040 ) ) ;
#1033 = APPROVAL ( #93, 'UNSPECIFIED' ) ;
#1034 = CC_DESIGN_APPROVAL ( #1033, ( #1029 ) ) ;
#1035 = CC_DESIGN_PERSON_AND_ORGANIZATION_ASSIGNMENT ( #580, #81, ( #1029 ) ) ;
#1036 = CC_DESIGN_DATE_AND_TIME_ASSIGNMENT ( #582, #92, ( #1029 ) ) ;
#1037 = CC_DESIGN_SECURITY_CLASSIFICATION ( #1029, ( #1040 ) ) ;
#1038 = PRODUCT_RELATED_PRODUCT_CATEGORY ( 'detail', '', ( #2 ) ) ;
#1039 = CC_DESIGN_PERSON_AND_ORGANIZATION_ASSIGNMENT ( #585, #79, ( #1040 ) ) ;
#1040 = PRODUCT_DEFINITION_FORMATION_WITH_SPECIFIED_SOURCE ( 'ANY', '', #2, .NOT_KNOWN. ) ;
#1041 = AXIS2_PLACEMENT_3D ( 'NONE', #957, #967, #972 ) ;
#1042 = AXIS2_PLACEMENT_3D ( 'NONE', #936, #944, #938 ) ;
#1043 = AXIS2_PLACEMENT_3D ( 'NONE', #916, #968, #969 ) ;
#1044 = AXIS2_PLACEMENT_3D ( 'NONE', #966, #949, #950 ) ;
#1045 = AXIS2_PLACEMENT_3D ( 'NONE', #122, #128, #109 ) ;
#1046 = AXIS2_PLACEMENT_3D ( 'NONE', #933, #915, #921 ) ;
#1047 = AXIS2_PLACEMENT_3D ( 'NONE', #975, #959, #960 ) ;
#1048 = AXIS2_PLACEMENT_3D ( 'NONE', #937, #941, #961 ) ;
#1049 = AXIS2_PLACEMENT_3D ( 'NONE', #962, #942, #948 ) ;
#1050 = AXIS2_PLACEMENT_3D ( 'NONE', #946, #973, #981 ) ;
#1051 = AXIS2_PLACEMENT_3D ( 'NONE', #1000, #992, #1001 ) ;
#1052 = AXIS2_PLACEMENT_3D ( 'NONE', #102, #112, #130 ) ;
#1053 = AXIS2_PLACEMENT_3D ( 'NONE', #134, #127, #115 ) ;
#1054 = AXIS2_PLACEMENT_3D ( 'NONE', #116, #124, #119 ) ;
#1055 = AXIS2_PLACEMENT_3D ( 'NONE', #917, #923, #932 ) ;
#1056 = AXIS2_PLACEMENT_3D ( 'NONE', #952, #953, #954 ) ;
#1057 = AXIS2_PLACEMENT_3D ( 'NONE', #978, #979, #980 ) ;
#1058 = AXIS2_PLACEMENT_3D ( 'NONE', #922, #956, #943 ) ;
#1059 = AXIS2_PLACEMENT_3D ( 'NONE', #964, #974, #971 ) ;
#1060 = AXIS2_PLACEMENT_3D ( 'NONE', #977, #965, #940 ) ;
#1061 = AXIS2_PLACEMENT_3D ( 'NONE', #934, #919, #931 ) ;
#1062 = AXIS2_PLACEMENT_3D ( 'NONE', #925, #918, #935 ) ;
#1063 = AXIS2_PLACEMENT_3D ( 'NONE', #926, #927, #928 ) ;
#1064 = AXIS2_PLACEMENT_3D ( 'NONE', #111, #96, #125 ) ;
#1065 = AXIS2_PLACEMENT_3D ( 'NONE', #95, #101, #104 ) ;
#1066 = AXIS2_PLACEMENT_3D ( 'NONE', #114, #154, #148 ) ;
#1067 = AXIS2_PLACEMENT_3D ( 'NONE', #168, #169, #174 ) ;
#1068 = MANIFOLD_SOLID_BREP ( 'Boss-Extrude3', #235 ) ;
#1069 = UNCERTAINTY_MEASURE_WITH_UNIT (LENGTH_MEASURE( 1.000000000000000100E-005 ), #68, 'distance_accuracy_value', 'NONE');
#1070 = ADVANCED_BREP_SHAPE_REPRESENTATION ( 'ALP3531', ( #1068, #1022 ), #1021 ) ;
#1071 = AXIS2_PLACEMENT_3D ( 'NONE', #895, #889, #904 ) ;
#1072 = AXIS2_PLACEMENT_3D ( 'NONE', #911, #892, #912 ) ;
#1073 = AXIS2_PLACEMENT_3D ( 'NONE', #908, #891, #897 ) ;
#1074 = AXIS2_PLACEMENT_3D ( 'NONE', #899, #900, #901 ) ;
#1075 = EDGE_CURVE ( 'NONE', #287, #320, #364, .T. ) ;
#1076 = EDGE_CURVE ( 'NONE', #269, #270, #348, .T. ) ;
#1077 = EDGE_CURVE ( 'NONE', #273, #325, #347, .T. ) ;
#1078 = EDGE_CURVE ( 'NONE', #310, #336, #368, .T. ) ;
#1079 = EDGE_CURVE ( 'NONE', #332, #304, #431, .T. ) ;
#1080 = EDGE_CURVE ( 'NONE', #310, #317, #410, .T. ) ;
#1081 = EDGE_CURVE ( 'NONE', #338, #327, #409, .T. ) ;
#1082 = EDGE_CURVE ( 'NONE', #316, #339, #424, .T. ) ;
#1083 = EDGE_CURVE ( 'NONE', #295, #314, #399, .T. ) ;
#1084 = EDGE_CURVE ( 'NONE', #263, #316, #412, .T. ) ;
#1085 = EDGE_CURVE ( 'NONE', #319, #329, #392, .T. ) ;
#1086 = EDGE_CURVE ( 'NONE', #334, #322, #432, .T. ) ;
#1087 = EDGE_CURVE ( 'NONE', #340, #303, #393, .T. ) ;
#1088 = EDGE_CURVE ( 'NONE', #329, #306, #400, .T. ) ;
#1089 = EDGE_CURVE ( 'NONE', #281, #279, #401, .T. ) ;
#1090 = EDGE_CURVE ( 'NONE', #336, #305, #425, .T. ) ;
#1091 = EDGE_CURVE ( 'NONE', #264, #329, #413, .T. ) ;
#1092 = EDGE_CURVE ( 'NONE', #307, #287, #439, .T. ) ;
#1093 = EDGE_CURVE ( 'NONE', #275, #289, #405, .T. ) ;
#1094 = EDGE_CURVE ( 'NONE', #274, #297, #420, .T. ) ;
#1095 = EDGE_CURVE ( 'NONE', #276, #269, #404, .T. ) ;
#1096 = EDGE_CURVE ( 'NONE', #315, #302, #408, .T. ) ;
#1097 = EDGE_CURVE ( 'NONE', #331, #340, #414, .T. ) ;
#1098 = EDGE_CURVE ( 'NONE', #262, #270, #433, .T. ) ;
#1099 = EDGE_CURVE ( 'NONE', #341, #310, #435, .T. ) ;
#1100 = EDGE_CURVE ( 'NONE', #328, #332, #416, .T. ) ;
#1101 = EDGE_CURVE ( 'NONE', #281, #274, #395, .T. ) ;
#1102 = EDGE_CURVE ( 'NONE', #317, #305, #418, .T. ) ;
#1103 = EDGE_CURVE ( 'NONE', #340, #334, #437, .T. ) ;
#1104 = EDGE_CURVE ( 'NONE', #269, #275, #391, .T. ) ;
#1105 = EDGE_CURVE ( 'NONE', #337, #316, #419, .T. ) ;
#1106 = EDGE_CURVE ( 'NONE', #304, #317, #422, .T. ) ;
#1107 = EDGE_CURVE ( 'NONE', #305, #302, #403, .T. ) ;
#1108 = EDGE_CURVE ( 'NONE', #319, #331, #417, .T. ) ;
#1109 = EDGE_CURVE ( 'NONE', #336, #315, #444, .T. ) ;
#1110 = EDGE_CURVE ( 'NONE', #299, #300, #449, .T. ) ;
#1111 = EDGE_CURVE ( 'NONE', #330, #341, #448, .T. ) ;
#1112 = EDGE_CURVE ( 'NONE', #334, #308, #452, .T. ) ;
#1113 = EDGE_CURVE ( 'NONE', #318, #309, #445, .T. ) ;
#1114 = EDGE_CURVE ( 'NONE', #312, #318, #465, .T. ) ;
#1115 = EDGE_CURVE ( 'NONE', #303, #308, #473, .T. ) ;
#1116 = EDGE_CURVE ( 'NONE', #331, #306, #464, .T. ) ;
#1117 = EDGE_CURVE ( 'NONE', #322, #330, #459, .T. ) ;
#1118 = EDGE_CURVE ( 'NONE', #276, #262, #466, .T. ) ;
#1119 = EDGE_CURVE ( 'NONE', #339, #312, #472, .T. ) ;
#1120 = EDGE_CURVE ( 'NONE', #306, #303, #462, .T. ) ;
#1121 = EDGE_CURVE ( 'NONE', #302, #338, #467, .T. ) ;
#1122 = EDGE_CURVE ( 'NONE', #309, #337, #469, .T. ) ;
#1123 = EDGE_CURVE ( 'NONE', #313, #272, #471, .T. ) ;
#1124 = EDGE_CURVE ( 'NONE', #308, #328, #460, .T. ) ;
#1125 = EDGE_CURVE ( 'NONE', #280, #268, #477, .T. ) ;
#1126 = EDGE_CURVE ( 'NONE', #285, #314, #485, .T. ) ;
#1127 = EDGE_CURVE ( 'NONE', #341, #304, #483, .T. ) ;
#1128 = EDGE_CURVE ( 'NONE', #322, #328, #486, .T. ) ;
#1129 = EDGE_CURVE ( 'NONE', #307, #300, #481, .T. ) ;
#1130 = EDGE_CURVE ( 'NONE', #327, #299, #487, .T. ) ;
#1131 = EDGE_CURVE ( 'NONE', #279, #342, #476, .T. ) ;
#1132 = EDGE_CURVE ( 'NONE', #330, #332, #533, .T. ) ;
#1133 = EDGE_CURVE ( 'NONE', #300, #320, #502, .T. ) ;
#1134 = EDGE_CURVE ( 'NONE', #298, #261, #501, .T. ) ;
#1135 = EDGE_CURVE ( 'NONE', #286, #313, #512, .T. ) ;
#1136 = AXIS2_PLACEMENT_3D ( 'NONE', #849, #850, #852 ) ;
#1137 = EDGE_CURVE ( 'NONE', #286, #280, #532, .T. ) ;
#1138 = AXIS2_PLACEMENT_3D ( 'NONE', #880, #868, #870 ) ;
#1139 = AXIS2_PLACEMENT_3D ( 'NONE', #866, #872, #877 ) ;
#1140 = EDGE_CURVE ( 'NONE', #313, #312, #500, .T. ) ;
#1141 = EDGE_CURVE ( 'NONE', #314, #261, #520, .T. ) ;
#1142 = EDGE_CURVE ( 'NONE', #315, #323, #524, .T. ) ;
#1143 = EDGE_CURVE ( 'NONE', #267, #337, #523, .T. ) ;
#1144 = EDGE_CURVE ( 'NONE', #275, #326, #519, .T. ) ;
#1145 = AXIS2_PLACEMENT_3D ( 'NONE', #851, #858, #853 ) ;
#1146 = AXIS2_PLACEMENT_3D ( 'NONE', #886, #885, #882 ) ;
#1147 = AXIS2_PLACEMENT_3D ( 'NONE', #884, #906, #905 ) ;
#1148 = EDGE_CURVE ( 'NONE', #342, #288, #535, .T. ) ;
#1149 = EDGE_CURVE ( 'NONE', #287, #281, #507, .T. ) ;
#1150 = EDGE_CURVE ( 'NONE', #268, #296, #534, .T. ) ;
#1151 = EDGE_CURVE ( 'NONE', #273, #327, #504, .T. ) ;
#1152 = EDGE_CURVE ( 'NONE', #289, #264, #505, .T. ) ;
#1153 = EDGE_CURVE ( 'NONE', #267, #263, #493, .T. ) ;
#1154 = EDGE_CURVE ( 'NONE', #325, #299, #488, .T. ) ;
#1155 = EDGE_CURVE ( 'NONE', #286, #339, #509, .T. ) ;
#1156 = EDGE_CURVE ( 'NONE', #298, #285, #511, .T. ) ;
#1157 = EDGE_CURVE ( 'NONE', #279, #297, #497, .T. ) ;
#1158 = AXIS2_PLACEMENT_3D ( 'NONE', #869, #871, #875 ) ;
#1159 = EDGE_CURVE ( 'NONE', #295, #309, #525, .T. ) ;
#1160 = EDGE_CURVE ( 'NONE', #295, #267, #526, .T. ) ;
#1161 = EDGE_CURVE ( 'NONE', #288, #262, #528, .T. ) ;
#1162 = EDGE_CURVE ( 'NONE', #342, #276, #517, .T. ) ;
#1163 = EDGE_CURVE ( 'NONE', #280, #282, #547, .T. ) ;
#1164 = EDGE_CURVE ( 'NONE', #282, #272, #536, .T. ) ;
#1165 = AXIS2_PLACEMENT_3D ( 'NONE', #845, #846, #857 ) ;
#1166 = AXIS2_PLACEMENT_3D ( 'NONE', #879, #888, #881 ) ;
#1167 = AXIS2_PLACEMENT_3D ( 'NONE', #859, #873, #867 ) ;
#1168 = EDGE_CURVE ( 'NONE', #323, #338, #546, .T. ) ;
#1169 = AXIS2_PLACEMENT_3D ( 'NONE', #890, #893, #894 ) ;
#1170 = EDGE_CURVE ( 'NONE', #323, #273, #549, .T. ) ;
#1171 = EDGE_CURVE ( 'NONE', #326, #264, #548, .T. ) ;
#1172 = EDGE_CURVE ( 'NONE', #297, #288, #541, .T. ) ;
#1173 = EDGE_CURVE ( 'NONE', #325, #307, #539, .T. ) ;
#1174 = AXIS2_PLACEMENT_3D ( 'NONE', #865, #864, #856 ) ;
#1175 = EDGE_CURVE ( 'NONE', #320, #274, #543, .T. ) ;
#1176 = EDGE_CURVE ( 'NONE', #268, #298, #558, .T. ) ;
#1177 = EDGE_CURVE ( 'NONE', #261, #296, #568, .T. ) ;
#1178 = EDGE_CURVE ( 'NONE', #270, #326, #586, .T. ) ;
#1179 = EDGE_CURVE ( 'NONE', #285, #263, #574, .T. ) ;
#1180 = EDGE_CURVE ( 'NONE', #296, #282, #590, .T. ) ;
#1181 = EDGE_CURVE ( 'NONE', #272, #318, #584, .T. ) ;
#1182 = EDGE_CURVE ( 'NONE', #289, #319, #555, .T. ) ;
#1183 = AXIS2_PLACEMENT_3D ( 'NONE', #896, #902, #909 ) ;
ENDSEC;
END-ISO-10303-21;
