ISO-10303-21;
HEADER;
FILE_DESCRIPTION (( 'STEP AP203' ),
    '1' );
FILE_NAME ('ALP3519.STEP',
    '2017-03-02T20:44:53',
    ( '' ),
    ( '' ),
    'SwSTEP 2.0',
    'SolidWorks 2012',
    '' );
FILE_SCHEMA (( 'CONFIG_CONTROL_DESIGN' ));
ENDSEC;

DATA;
#1 = VECTOR ( 'NONE', #688, 1000.000000000000000 ) ;
#2 = LINE ( 'NONE', #612, #23 ) ;
#3 = LINE ( 'NONE', #717, #4 ) ;
#4 = VECTOR ( 'NONE', #702, 1000.000000000000000 ) ;
#5 = VECTOR ( 'NONE', #632, 1000.000000000000000 ) ;
#6 = CIRCLE ( 'NONE', #1146, 2.000000000000000400 ) ;
#7 = VECTOR ( 'NONE', #687, 1000.000000000000000 ) ;
#8 = LINE ( 'NONE', #656, #58 ) ;
#9 = VECTOR ( 'NONE', #710, 999.9999999999998900 ) ;
#10 = LINE ( 'NONE', #633, #19 ) ;
#11 = LINE ( 'NONE', #691, #7 ) ;
#12 = LINE ( 'NONE', #658, #31 ) ;
#13 = VECTOR ( 'NONE', #679, 1000.000000000000000 ) ;
#14 = LINE ( 'NONE', #654, #46 ) ;
#15 = LINE ( 'NONE', #714, #61 ) ;
#16 = LINE ( 'NONE', #638, #59 ) ;
#17 = LINE ( 'NONE', #651, #13 ) ;
#18 = LINE ( 'NONE', #663, #20 ) ;
#19 = VECTOR ( 'NONE', #610, 1000.000000000000000 ) ;
#20 = VECTOR ( 'NONE', #664, 1000.000000000000000 ) ;
#21 = CIRCLE ( 'NONE', #1144, 4.500000000000000900 ) ;
#22 = LINE ( 'NONE', #639, #30 ) ;
#23 = VECTOR ( 'NONE', #666, 1000.000000000000000 ) ;
#24 = LINE ( 'NONE', #630, #32 ) ;
#25 = CIRCLE ( 'NONE', #1145, 4.500000000000000900 ) ;
#26 = LINE ( 'NONE', #667, #54 ) ;
#27 = LINE ( 'NONE', #676, #49 ) ;
#28 = VECTOR ( 'NONE', #643, 1000.000000000000000 ) ;
#29 = VECTOR ( 'NONE', #652, 1000.000000000000000 ) ;
#30 = VECTOR ( 'NONE', #620, 1000.000000000000000 ) ;
#31 = VECTOR ( 'NONE', #662, 999.9999999999998900 ) ;
#32 = VECTOR ( 'NONE', #647, 1000.000000000000000 ) ;
#33 = LINE ( 'NONE', #671, #50 ) ;
#34 = LINE ( 'NONE', #723, #41 ) ;
#35 = LINE ( 'NONE', #703, #106 ) ;
#36 = LINE ( 'NONE', #661, #29 ) ;
#37 = VECTOR ( 'NONE', #640, 1000.000000000000000 ) ;
#38 = LINE ( 'NONE', #649, #44 ) ;
#39 = CIRCLE ( 'NONE', #1157, 2.000000000000000400 ) ;
#40 = VECTOR ( 'NONE', #681, 1000.000000000000000 ) ;
#41 = VECTOR ( 'NONE', #725, 1000.000000000000000 ) ;
#42 = LINE ( 'NONE', #718, #9 ) ;
#43 = VECTOR ( 'NONE', #685, 1000.000000000000000 ) ;
#44 = VECTOR ( 'NONE', #631, 1000.000000000000000 ) ;
#45 = LINE ( 'NONE', #668, #43 ) ;
#46 = VECTOR ( 'NONE', #683, 1000.000000000000000 ) ;
#47 = LINE ( 'NONE', #634, #37 ) ;
#48 = VECTOR ( 'NONE', #669, 1000.000000000000000 ) ;
#49 = VECTOR ( 'NONE', #657, 1000.000000000000000 ) ;
#50 = VECTOR ( 'NONE', #672, 1000.000000000000000 ) ;
#51 = LINE ( 'NONE', #665, #40 ) ;
#52 = VECTOR ( 'NONE', #637, 1000.000000000000000 ) ;
#53 = LINE ( 'NONE', #619, #5 ) ;
#54 = VECTOR ( 'NONE', #659, 1000.000000000000000 ) ;
#55 = CIRCLE ( 'NONE', #1148, 2.000000000000001800 ) ;
#56 = CIRCLE ( 'NONE', #1137, 2.000000000000001800 ) ;
#57 = LINE ( 'NONE', #641, #28 ) ;
#58 = VECTOR ( 'NONE', #677, 1000.000000000000000 ) ;
#59 = VECTOR ( 'NONE', #635, 1000.000000000000000 ) ;
#60 = LINE ( 'NONE', #678, #48 ) ;
#61 = VECTOR ( 'NONE', #695, 1000.000000000000000 ) ;
#62 = LINE ( 'NONE', #713, #1 ) ;
#63 = VECTOR ( 'NONE', #757, 1000.000000000000100 ) ;
#64 = VECTOR ( 'NONE', #752, 1000.000000000000000 ) ;
#65 = LINE ( 'NONE', #724, #75 ) ;
#66 = LINE ( 'NONE', #760, #93 ) ;
#67 = LINE ( 'NONE', #747, #88 ) ;
#68 = LINE ( 'NONE', #755, #63 ) ;
#69 = LINE ( 'NONE', #736, #84 ) ;
#70 = LINE ( 'NONE', #748, #97 ) ;
#71 = VECTOR ( 'NONE', #693, 1000.000000000000000 ) ;
#72 = VECTOR ( 'NONE', #729, 1000.000000000000000 ) ;
#73 = LINE ( 'NONE', #797, #74 ) ;
#74 = VECTOR ( 'NONE', #799, 1000.000000000000000 ) ;
#75 = VECTOR ( 'NONE', #690, 1000.000000000000000 ) ;
#76 = VECTOR ( 'NONE', #696, 1000.000000000000000 ) ;
#77 = VECTOR ( 'NONE', #785, 1000.000000000000000 ) ;
#78 = LINE ( 'NONE', #716, #71 ) ;
#79 = VECTOR ( 'NONE', #720, 1000.000000000000000 ) ;
#80 = LINE ( 'NONE', #689, #82 ) ;
#81 = LINE ( 'NONE', #722, #105 ) ;
#82 = VECTOR ( 'NONE', #715, 1000.000000000000000 ) ;
#83 = LINE ( 'NONE', #732, #91 ) ;
#84 = VECTOR ( 'NONE', #730, 1000.000000000000000 ) ;
#85 = VECTOR ( 'NONE', #726, 1000.000000000000000 ) ;
#86 = LINE ( 'NONE', #706, #79 ) ;
#87 = LINE ( 'NONE', #761, #123 ) ;
#88 = VECTOR ( 'NONE', #759, 1000.000000000000000 ) ;
#89 = CIRCLE ( 'NONE', #1159, 4.500000000000000900 ) ;
#90 = VECTOR ( 'NONE', #758, 1000.000000000000000 ) ;
#91 = VECTOR ( 'NONE', #742, 1000.000000000000000 ) ;
#92 = LINE ( 'NONE', #749, #98 ) ;
#93 = VECTOR ( 'NONE', #737, 1000.000000000000000 ) ;
#94 = VECTOR ( 'NONE', #740, 1000.000000000000000 ) ;
#95 = LINE ( 'NONE', #764, #112 ) ;
#96 = VECTOR ( 'NONE', #700, 1000.000000000000000 ) ;
#97 = VECTOR ( 'NONE', #767, 1000.000000000000000 ) ;
#98 = VECTOR ( 'NONE', #766, 1000.000000000000000 ) ;
#99 = LINE ( 'NONE', #699, #85 ) ;
#100 = LINE ( 'NONE', #727, #72 ) ;
#101 = LINE ( 'NONE', #768, #108 ) ;
#102 = LINE ( 'NONE', #801, #104 ) ;
#103 = VECTOR ( 'NONE', #705, 1000.000000000000000 ) ;
#104 = VECTOR ( 'NONE', #775, 1000.000000000000000 ) ;
#105 = VECTOR ( 'NONE', #719, 1000.000000000000000 ) ;
#106 = VECTOR ( 'NONE', #701, 1000.000000000000000 ) ;
#107 = VECTOR ( 'NONE', #739, 1000.000000000000000 ) ;
#108 = VECTOR ( 'NONE', #743, 1000.000000000000000 ) ;
#109 = CIRCLE ( 'NONE', #1160, 2.000000000000001800 ) ;
#110 = VECTOR ( 'NONE', #744, 1000.000000000000000 ) ;
#111 = CIRCLE ( 'NONE', #1147, 2.000000000000001800 ) ;
#112 = VECTOR ( 'NONE', #746, 1000.000000000000100 ) ;
#113 = LINE ( 'NONE', #751, #64 ) ;
#114 = LINE ( 'NONE', #754, #110 ) ;
#115 = LINE ( 'NONE', #711, #118 ) ;
#116 = LINE ( 'NONE', #762, #94 ) ;
#117 = LINE ( 'NONE', #741, #107 ) ;
#118 = VECTOR ( 'NONE', #697, 1000.000000000000000 ) ;
#119 = LINE ( 'NONE', #721, #103 ) ;
#120 = LINE ( 'NONE', #708, #76 ) ;
#121 = LINE ( 'NONE', #765, #90 ) ;
#122 = LINE ( 'NONE', #698, #96 ) ;
#123 = VECTOR ( 'NONE', #750, 1000.000000000000000 ) ;
#124 = LINE ( 'NONE', #783, #77 ) ;
#125 = VECTOR ( 'NONE', #791, 1000.000000000000000 ) ;
#126 = VECTOR ( 'NONE', #786, 1000.000000000000000 ) ;
#127 = LINE ( 'NONE', #836, #132 ) ;
#128 = ORGANIZATION ( 'UNSPECIFIED', 'UNSPECIFIED', '' ) ;
#129 = PERSON_AND_ORGANIZATION ( #1180, #128 ) ;
#130 = PERSON_AND_ORGANIZATION ( #1180, #128 ) ;
#131 = COORDINATED_UNIVERSAL_TIME_OFFSET ( 1, 0, .AHEAD. ) ;
#132 = VECTOR ( 'NONE', #820, 1000.000000000000000 ) ;
#133 = SHAPE_DEFINITION_REPRESENTATION ( #553, #1182 ) ;
#134 = CALENDAR_DATE ( 2017, 2, 3 ) ;
#135 = APPROVAL_DATE_TIME ( #145, #1150 ) ;
#136 = PERSON_AND_ORGANIZATION ( #1180, #128 ) ;
#137 = COORDINATED_UNIVERSAL_TIME_OFFSET ( 1, 0, .AHEAD. ) ;
#138 = CIRCLE ( 'NONE', #1165, 2.000000000000000900 ) ;
#139 = LINE ( 'NONE', #828, #174 ) ;
#140 = VECTOR ( 'NONE', #774, 1000.000000000000000 ) ;
#141 = VECTOR ( 'NONE', #813, 1000.000000000000000 ) ;
#142 = LINE ( 'NONE', #803, #157 ) ;
#143 = LOCAL_TIME ( 21, 44, 53.00000000000000000, #131 ) ;
#144 = VECTOR ( 'NONE', #831, 1000.000000000000000 ) ;
#145 = DATE_AND_TIME ( #134, #143 ) ;
#146 = LINE ( 'NONE', #808, #148 ) ;
#147 = LOCAL_TIME ( 21, 44, 53.00000000000000000, #137 ) ;
#148 = VECTOR ( 'NONE', #805, 1000.000000000000000 ) ;
#149 = CALENDAR_DATE ( 2017, 2, 3 ) ;
#150 = VECTOR ( 'NONE', #794, 1000.000000000000000 ) ;
#151 = LINE ( 'NONE', #772, #153 ) ;
#152 = VECTOR ( 'NONE', #789, 1000.000000000000000 ) ;
#153 = VECTOR ( 'NONE', #788, 1000.000000000000000 ) ;
#154 = VECTOR ( 'NONE', #790, 1000.000000000000000 ) ;
#155 = VECTOR ( 'NONE', #802, 1000.000000000000000 ) ;
#156 = LINE ( 'NONE', #804, #167 ) ;
#157 = VECTOR ( 'NONE', #807, 999.9999999999998900 ) ;
#158 = LINE ( 'NONE', #829, #141 ) ;
#159 = VECTOR ( 'NONE', #776, 1000.000000000000100 ) ;
#160 = LINE ( 'NONE', #792, #152 ) ;
#161 = APPROVAL_PERSON_ORGANIZATION ( #130, #1150, #809 ) ;
#162 = LINE ( 'NONE', #800, #165 ) ;
#163 = LINE ( 'NONE', #781, #155 ) ;
#164 = LINE ( 'NONE', #787, #125 ) ;
#165 = VECTOR ( 'NONE', #798, 1000.000000000000000 ) ;
#166 = LINE ( 'NONE', #777, #154 ) ;
#167 = VECTOR ( 'NONE', #806, 1000.000000000000100 ) ;
#168 = LINE ( 'NONE', #796, #140 ) ;
#169 = LINE ( 'NONE', #773, #173 ) ;
#170 = LINE ( 'NONE', #780, #126 ) ;
#171 = LINE ( 'NONE', #838, #144 ) ;
#172 = LINE ( 'NONE', #756, #159 ) ;
#173 = VECTOR ( 'NONE', #795, 1000.000000000000000 ) ;
#174 = VECTOR ( 'NONE', #827, 1000.000000000000000 ) ;
#175 = CIRCLE ( 'NONE', #1164, 2.000000000000000900 ) ;
#176 = LINE ( 'NONE', #793, #150 ) ;
#177 = CALENDAR_DATE ( 2017, 2, 3 ) ;
#178 = PERSON_AND_ORGANIZATION ( #1180, #128 ) ;
#179 = DATE_AND_TIME ( #149, #147 ) ;
#180 = COORDINATED_UNIVERSAL_TIME_OFFSET ( 1, 0, .AHEAD. ) ;
#181 = PERSON_AND_ORGANIZATION ( #1180, #128 ) ;
#182 = APPROVAL_PERSON_ORGANIZATION ( #195, #1167, #826 ) ;
#183 = APPROVAL_PERSON_ORGANIZATION ( #178, #1175, #812 ) ;
#184 = APPROVAL_DATE_TIME ( #191, #1175 ) ;
#185 = COORDINATED_UNIVERSAL_TIME_OFFSET ( 1, 0, .AHEAD. ) ;
#186 = DATE_AND_TIME ( #177, #196 ) ;
#187 = COORDINATED_UNIVERSAL_TIME_OFFSET ( 1, 0, .AHEAD. ) ;
#188 = APPROVAL_DATE_TIME ( #186, #1167 ) ;
#189 = LOCAL_TIME ( 21, 44, 53.00000000000000000, #187 ) ;
#190 = CALENDAR_DATE ( 2017, 2, 3 ) ;
#191 = DATE_AND_TIME ( #190, #189 ) ;
#192 = DATE_AND_TIME ( #197, #194 ) ;
#193 = PERSON_AND_ORGANIZATION ( #1180, #128 ) ;
#194 = LOCAL_TIME ( 21, 44, 53.00000000000000000, #185 ) ;
#195 = PERSON_AND_ORGANIZATION ( #1180, #128 ) ;
#196 = LOCAL_TIME ( 21, 44, 53.00000000000000000, #180 ) ;
#197 = CALENDAR_DATE ( 2017, 2, 3 ) ;
#198 = PERSON_AND_ORGANIZATION ( #1180, #128 ) ;
#199 = ORIENTED_EDGE ( 'NONE', *, *, #1065, .F. ) ;
#200 = ORIENTED_EDGE ( 'NONE', *, *, #1024, .T. ) ;
#201 = ORIENTED_EDGE ( 'NONE', *, *, #1031, .F. ) ;
#202 = ORIENTED_EDGE ( 'NONE', *, *, #1111, .F. ) ;
#203 = ORIENTED_EDGE ( 'NONE', *, *, #1023, .T. ) ;
#204 = ORIENTED_EDGE ( 'NONE', *, *, #1037, .T. ) ;
#205 = ORIENTED_EDGE ( 'NONE', *, *, #1108, .F. ) ;
#206 = ORIENTED_EDGE ( 'NONE', *, *, #1023, .F. ) ;
#207 = ORIENTED_EDGE ( 'NONE', *, *, #1066, .F. ) ;
#208 = ORIENTED_EDGE ( 'NONE', *, *, #1034, .T. ) ;
#209 = EDGE_LOOP ( 'NONE', ( #245, #273, #244, #248 ) ) ;
#210 = ORIENTED_EDGE ( 'NONE', *, *, #1095, .F. ) ;
#211 = ORIENTED_EDGE ( 'NONE', *, *, #1117, .F. ) ;
#212 = ORIENTED_EDGE ( 'NONE', *, *, #1017, .T. ) ;
#213 = ORIENTED_EDGE ( 'NONE', *, *, #1063, .T. ) ;
#214 = ORIENTED_EDGE ( 'NONE', *, *, #1025, .T. ) ;
#215 = ORIENTED_EDGE ( 'NONE', *, *, #1066, .T. ) ;
#216 = ORIENTED_EDGE ( 'NONE', *, *, #1016, .F. ) ;
#217 = ORIENTED_EDGE ( 'NONE', *, *, #1064, .F. ) ;
#218 = ORIENTED_EDGE ( 'NONE', *, *, #1118, .T. ) ;
#219 = ORIENTED_EDGE ( 'NONE', *, *, #1077, .F. ) ;
#220 = ORIENTED_EDGE ( 'NONE', *, *, #1079, .F. ) ;
#221 = ORIENTED_EDGE ( 'NONE', *, *, #1041, .T. ) ;
#222 = ORIENTED_EDGE ( 'NONE', *, *, #1067, .T. ) ;
#223 = ORIENTED_EDGE ( 'NONE', *, *, #1071, .T. ) ;
#224 = ORIENTED_EDGE ( 'NONE', *, *, #1042, .T. ) ;
#225 = ORIENTED_EDGE ( 'NONE', *, *, #1068, .F. ) ;
#226 = ORIENTED_EDGE ( 'NONE', *, *, #1031, .T. ) ;
#227 = ORIENTED_EDGE ( 'NONE', *, *, #1088, .F. ) ;
#228 = ORIENTED_EDGE ( 'NONE', *, *, #1018, .F. ) ;
#229 = ORIENTED_EDGE ( 'NONE', *, *, #1110, .T. ) ;
#230 = ORIENTED_EDGE ( 'NONE', *, *, #1044, .T. ) ;
#231 = ORIENTED_EDGE ( 'NONE', *, *, #1073, .F. ) ;
#232 = ORIENTED_EDGE ( 'NONE', *, *, #1050, .T. ) ;
#233 = ORIENTED_EDGE ( 'NONE', *, *, #1092, .T. ) ;
#234 = ORIENTED_EDGE ( 'NONE', *, *, #1056, .F. ) ;
#235 = ORIENTED_EDGE ( 'NONE', *, *, #1060, .T. ) ;
#236 = ORIENTED_EDGE ( 'NONE', *, *, #1074, .F. ) ;
#237 = ORIENTED_EDGE ( 'NONE', *, *, #1028, .F. ) ;
#238 = ORIENTED_EDGE ( 'NONE', *, *, #1054, .F. ) ;
#239 = ORIENTED_EDGE ( 'NONE', *, *, #1118, .F. ) ;
#240 = ORIENTED_EDGE ( 'NONE', *, *, #1075, .T. ) ;
#241 = ORIENTED_EDGE ( 'NONE', *, *, #1102, .F. ) ;
#242 = ORIENTED_EDGE ( 'NONE', *, *, #1093, .F. ) ;
#243 = ORIENTED_EDGE ( 'NONE', *, *, #1046, .T. ) ;
#244 = ORIENTED_EDGE ( 'NONE', *, *, #1067, .F. ) ;
#245 = ORIENTED_EDGE ( 'NONE', *, *, #1049, .F. ) ;
#246 = ORIENTED_EDGE ( 'NONE', *, *, #1114, .F. ) ;
#247 = ORIENTED_EDGE ( 'NONE', *, *, #1047, .T. ) ;
#248 = ORIENTED_EDGE ( 'NONE', *, *, #1075, .F. ) ;
#249 = ORIENTED_EDGE ( 'NONE', *, *, #1053, .T. ) ;
#250 = ORIENTED_EDGE ( 'NONE', *, *, #1047, .F. ) ;
#251 = ORIENTED_EDGE ( 'NONE', *, *, #1093, .T. ) ;
#252 = ORIENTED_EDGE ( 'NONE', *, *, #1092, .F. ) ;
#253 = ORIENTED_EDGE ( 'NONE', *, *, #1053, .F. ) ;
#254 = ORIENTED_EDGE ( 'NONE', *, *, #1083, .T. ) ;
#255 = ORIENTED_EDGE ( 'NONE', *, *, #1048, .F. ) ;
#256 = ORIENTED_EDGE ( 'NONE', *, *, #1114, .T. ) ;
#257 = ORIENTED_EDGE ( 'NONE', *, *, #1016, .T. ) ;
#258 = ORIENTED_EDGE ( 'NONE', *, *, #1017, .F. ) ;
#259 = ORIENTED_EDGE ( 'NONE', *, *, #1072, .F. ) ;
#260 = ORIENTED_EDGE ( 'NONE', *, *, #1051, .T. ) ;
#261 = ORIENTED_EDGE ( 'NONE', *, *, #1049, .T. ) ;
#262 = ORIENTED_EDGE ( 'NONE', *, *, #1060, .F. ) ;
#263 = ORIENTED_EDGE ( 'NONE', *, *, #1048, .T. ) ;
#264 = ORIENTED_EDGE ( 'NONE', *, *, #1079, .T. ) ;
#265 = ORIENTED_EDGE ( 'NONE', *, *, #1024, .F. ) ;
#266 = ORIENTED_EDGE ( 'NONE', *, *, #1046, .F. ) ;
#267 = ORIENTED_EDGE ( 'NONE', *, *, #1018, .T. ) ;
#268 = ORIENTED_EDGE ( 'NONE', *, *, #1113, .F. ) ;
#269 = CLOSED_SHELL ( 'NONE', ( #557, #575, #563, #559, #577, #554, #579, #555, #567, #585, #564, #565, #566, #569, #581, #556, #558, #573, #560, #576, #561, #562, #572, #578, #568, #584, #570, #587, #586, #571, #580, #574, #582, #588, #583 ) ) ;
#270 = ORIENTED_EDGE ( 'NONE', *, *, #1089, .F. ) ;
#271 = ORIENTED_EDGE ( 'NONE', *, *, #1026, .T. ) ;
#272 = ORIENTED_EDGE ( 'NONE', *, *, #1074, .T. ) ;
#273 = ORIENTED_EDGE ( 'NONE', *, *, #1073, .T. ) ;
#274 = ORIENTED_EDGE ( 'NONE', *, *, #1027, .T. ) ;
#275 = ORIENTED_EDGE ( 'NONE', *, *, #1110, .F. ) ;
#276 = ORIENTED_EDGE ( 'NONE', *, *, #1083, .F. ) ;
#277 = ORIENTED_EDGE ( 'NONE', *, *, #1101, .T. ) ;
#278 = ORIENTED_EDGE ( 'NONE', *, *, #1033, .T. ) ;
#279 = ORIENTED_EDGE ( 'NONE', *, *, #1072, .T. ) ;
#280 = ORIENTED_EDGE ( 'NONE', *, *, #1121, .F. ) ;
#281 = ORIENTED_EDGE ( 'NONE', *, *, #1101, .F. ) ;
#282 = ORIENTED_EDGE ( 'NONE', *, *, #1050, .F. ) ;
#283 = ORIENTED_EDGE ( 'NONE', *, *, #1037, .F. ) ;
#284 = ORIENTED_EDGE ( 'NONE', *, *, #1039, .T. ) ;
#285 = ORIENTED_EDGE ( 'NONE', *, *, #1123, .F. ) ;
#286 = ORIENTED_EDGE ( 'NONE', *, *, #1065, .T. ) ;
#287 = ORIENTED_EDGE ( 'NONE', *, *, #1071, .F. ) ;
#288 = ORIENTED_EDGE ( 'NONE', *, *, #1057, .F. ) ;
#289 = ORIENTED_EDGE ( 'NONE', *, *, #1059, .F. ) ;
#290 = ORIENTED_EDGE ( 'NONE', *, *, #1038, .F. ) ;
#291 = ORIENTED_EDGE ( 'NONE', *, *, #1122, .T. ) ;
#292 = ORIENTED_EDGE ( 'NONE', *, *, #1022, .T. ) ;
#293 = ORIENTED_EDGE ( 'NONE', *, *, #1069, .F. ) ;
#294 = ORIENTED_EDGE ( 'NONE', *, *, #1099, .F. ) ;
#295 = ORIENTED_EDGE ( 'NONE', *, *, #1036, .F. ) ;
#296 = ORIENTED_EDGE ( 'NONE', *, *, #1116, .T. ) ;
#297 = ORIENTED_EDGE ( 'NONE', *, *, #1041, .F. ) ;
#298 = ORIENTED_EDGE ( 'NONE', *, *, #1027, .F. ) ;
#299 = ORIENTED_EDGE ( 'NONE', *, *, #1025, .F. ) ;
#300 = ORIENTED_EDGE ( 'NONE', *, *, #1064, .T. ) ;
#301 = ORIENTED_EDGE ( 'NONE', *, *, #1028, .T. ) ;
#302 = ORIENTED_EDGE ( 'NONE', *, *, #1090, .F. ) ;
#303 = ORIENTED_EDGE ( 'NONE', *, *, #1021, .F. ) ;
#304 = ORIENTED_EDGE ( 'NONE', *, *, #1100, .F. ) ;
#305 = ORIENTED_EDGE ( 'NONE', *, *, #1088, .T. ) ;
#306 = ORIENTED_EDGE ( 'NONE', *, *, #1086, .T. ) ;
#307 = ORIENTED_EDGE ( 'NONE', *, *, #1097, .F. ) ;
#308 = ORIENTED_EDGE ( 'NONE', *, *, #1070, .F. ) ;
#309 = ORIENTED_EDGE ( 'NONE', *, *, #1063, .F. ) ;
#310 = ORIENTED_EDGE ( 'NONE', *, *, #1109, .T. ) ;
#311 = ORIENTED_EDGE ( 'NONE', *, *, #1045, .F. ) ;
#312 = ORIENTED_EDGE ( 'NONE', *, *, #1056, .T. ) ;
#313 = ORIENTED_EDGE ( 'NONE', *, *, #1045, .T. ) ;
#314 = ORIENTED_EDGE ( 'NONE', *, *, #1108, .T. ) ;
#315 = ORIENTED_EDGE ( 'NONE', *, *, #1020, .F. ) ;
#316 = ORIENTED_EDGE ( 'NONE', *, *, #1062, .T. ) ;
#317 = ORIENTED_EDGE ( 'NONE', *, *, #1089, .T. ) ;
#318 = ORIENTED_EDGE ( 'NONE', *, *, #1057, .T. ) ;
#319 = ORIENTED_EDGE ( 'NONE', *, *, #1081, .F. ) ;
#320 = ORIENTED_EDGE ( 'NONE', *, *, #1032, .T. ) ;
#321 = ORIENTED_EDGE ( 'NONE', *, *, #1039, .F. ) ;
#322 = ORIENTED_EDGE ( 'NONE', *, *, #1051, .F. ) ;
#323 = ORIENTED_EDGE ( 'NONE', *, *, #1070, .T. ) ;
#324 = ORIENTED_EDGE ( 'NONE', *, *, #1122, .F. ) ;
#325 = ORIENTED_EDGE ( 'NONE', *, *, #1123, .T. ) ;
#326 = ORIENTED_EDGE ( 'NONE', *, *, #1106, .F. ) ;
#327 = ORIENTED_EDGE ( 'NONE', *, *, #1068, .T. ) ;
#328 = ORIENTED_EDGE ( 'NONE', *, *, #1106, .T. ) ;
#329 = ORIENTED_EDGE ( 'NONE', *, *, #1019, .F. ) ;
#330 = ORIENTED_EDGE ( 'NONE', *, *, #1102, .T. ) ;
#331 = ORIENTED_EDGE ( 'NONE', *, *, #1029, .T. ) ;
#332 = ORIENTED_EDGE ( 'NONE', *, *, #1032, .F. ) ;
#333 = ORIENTED_EDGE ( 'NONE', *, *, #1030, .F. ) ;
#334 = ORIENTED_EDGE ( 'NONE', *, *, #1042, .F. ) ;
#335 = ORIENTED_EDGE ( 'NONE', *, *, #1109, .F. ) ;
#336 = ORIENTED_EDGE ( 'NONE', *, *, #1055, .F. ) ;
#337 = ORIENTED_EDGE ( 'NONE', *, *, #1029, .F. ) ;
#338 = ORIENTED_EDGE ( 'NONE', *, *, #1021, .T. ) ;
#339 = ORIENTED_EDGE ( 'NONE', *, *, #1040, .F. ) ;
#340 = ORIENTED_EDGE ( 'NONE', *, *, #1019, .T. ) ;
#341 = ORIENTED_EDGE ( 'NONE', *, *, #1112, .F. ) ;
#342 = ORIENTED_EDGE ( 'NONE', *, *, #1054, .T. ) ;
#343 = ORIENTED_EDGE ( 'NONE', *, *, #1113, .T. ) ;
#344 = ORIENTED_EDGE ( 'NONE', *, *, #1121, .T. ) ;
#345 = ORIENTED_EDGE ( 'NONE', *, *, #1035, .T. ) ;
#346 = ORIENTED_EDGE ( 'NONE', *, *, #1033, .F. ) ;
#347 = ORIENTED_EDGE ( 'NONE', *, *, #1090, .T. ) ;
#348 = ORIENTED_EDGE ( 'NONE', *, *, #1034, .F. ) ;
#349 = ORIENTED_EDGE ( 'NONE', *, *, #1026, .F. ) ;
#350 = EDGE_LOOP ( 'NONE', ( #235, #346, #289, #331 ) ) ;
#351 = ORIENTED_EDGE ( 'NONE', *, *, #1116, .F. ) ;
#352 = ORIENTED_EDGE ( 'NONE', *, *, #1043, .T. ) ;
#353 = EDGE_LOOP ( 'NONE', ( #342, #287, #290, #260 ) ) ;
#354 = EDGE_LOOP ( 'NONE', ( #309, #321, #349, #299, #297, #348 ) ) ;
#355 = ORIENTED_EDGE ( 'NONE', *, *, #1100, .T. ) ;
#356 = EDGE_LOOP ( 'NONE', ( #345, #234, #295, #224 ) ) ;
#357 = EDGE_LOOP ( 'NONE', ( #230, #337, #288, #312 ) ) ;
#358 = EDGE_LOOP ( 'NONE', ( #253, #240, #239, #242 ) ) ;
#359 = ORIENTED_EDGE ( 'NONE', *, *, #1087, .F. ) ;
#360 = ORIENTED_EDGE ( 'NONE', *, *, #1052, .T. ) ;
#361 = ORIENTED_EDGE ( 'NONE', *, *, #1082, .F. ) ;
#362 = ORIENTED_EDGE ( 'NONE', *, *, #1099, .T. ) ;
#363 = ORIENTED_EDGE ( 'NONE', *, *, #1097, .T. ) ;
#364 = EDGE_LOOP ( 'NONE', ( #396, #294, #398, #291 ) ) ;
#365 = ORIENTED_EDGE ( 'NONE', *, *, #1091, .F. ) ;
#366 = ORIENTED_EDGE ( 'NONE', *, *, #1035, .F. ) ;
#367 = ORIENTED_EDGE ( 'NONE', *, *, #1117, .T. ) ;
#368 = ORIENTED_EDGE ( 'NONE', *, *, #1061, .T. ) ;
#369 = ORIENTED_EDGE ( 'NONE', *, *, #1022, .F. ) ;
#370 = ORIENTED_EDGE ( 'NONE', *, *, #1119, .F. ) ;
#371 = ORIENTED_EDGE ( 'NONE', *, *, #1058, .F. ) ;
#372 = ORIENTED_EDGE ( 'NONE', *, *, #1086, .F. ) ;
#373 = ORIENTED_EDGE ( 'NONE', *, *, #1036, .T. ) ;
#374 = EDGE_LOOP ( 'NONE', ( #286, #298, #237, #323 ) ) ;
#375 = ORIENTED_EDGE ( 'NONE', *, *, #1030, .T. ) ;
#376 = ORIENTED_EDGE ( 'NONE', *, *, #1120, .T. ) ;
#377 = ORIENTED_EDGE ( 'NONE', *, *, #1040, .T. ) ;
#378 = ORIENTED_EDGE ( 'NONE', *, *, #1112, .T. ) ;
#379 = ORIENTED_EDGE ( 'NONE', *, *, #1085, .F. ) ;
#380 = EDGE_LOOP ( 'NONE', ( #232, #227, #319, #320 ) ) ;
#381 = EDGE_LOOP ( 'NONE', ( #327, #384, #293, #403 ) ) ;
#382 = EDGE_LOOP ( 'NONE', ( #214, #216, #243, #247, #261, #249, #272, #263 ) ) ;
#383 = EDGE_LOOP ( 'NONE', ( #306, #334, #370, #292 ) ) ;
#384 = ORIENTED_EDGE ( 'NONE', *, *, #1120, .F. ) ;
#385 = EDGE_LOOP ( 'NONE', ( #208, #207, #220, #203 ) ) ;
#386 = EDGE_LOOP ( 'NONE', ( #405, #366, #372, #404, #406, #202, #211, #219, #210, #270, #225, #280, #205, #268, #241, #282, #275, #238, #217, #199, #201, #262 ) ) ;
#387 = ORIENTED_EDGE ( 'NONE', *, *, #1055, .T. ) ;
#388 = EDGE_LOOP ( 'NONE', ( #300, #322, #315, #274 ) ) ;
#389 = ORIENTED_EDGE ( 'NONE', *, *, #1069, .T. ) ;
#390 = EDGE_LOOP ( 'NONE', ( #317, #359, #304, #376 ) ) ;
#391 = ORIENTED_EDGE ( 'NONE', *, *, #1082, .T. ) ;
#392 = ORIENTED_EDGE ( 'NONE', *, *, #1052, .F. ) ;
#393 = ORIENTED_EDGE ( 'NONE', *, *, #1119, .T. ) ;
#394 = ORIENTED_EDGE ( 'NONE', *, *, #1059, .T. ) ;
#395 = ORIENTED_EDGE ( 'NONE', *, *, #1081, .T. ) ;
#396 = ORIENTED_EDGE ( 'NONE', *, *, #1077, .T. ) ;
#397 = ORIENTED_EDGE ( 'NONE', *, *, #1020, .T. ) ;
#398 = ORIENTED_EDGE ( 'NONE', *, *, #1062, .F. ) ;
#399 = ORIENTED_EDGE ( 'NONE', *, *, #1091, .T. ) ;
#400 = ORIENTED_EDGE ( 'NONE', *, *, #1087, .T. ) ;
#401 = ORIENTED_EDGE ( 'NONE', *, *, #1095, .T. ) ;
#402 = ORIENTED_EDGE ( 'NONE', *, *, #1111, .T. ) ;
#403 = ORIENTED_EDGE ( 'NONE', *, *, #1058, .T. ) ;
#404 = ORIENTED_EDGE ( 'NONE', *, *, #1043, .F. ) ;
#405 = ORIENTED_EDGE ( 'NONE', *, *, #1044, .F. ) ;
#406 = ORIENTED_EDGE ( 'NONE', *, *, #1061, .F. ) ;
#407 = EDGE_LOOP ( 'NONE', ( #250, #256, #265, #231 ) ) ;
#408 = EDGE_LOOP ( 'NONE', ( #213, #206, #233, #218, #222, #200, #204, #212 ) ) ;
#409 = ORIENTED_EDGE ( 'NONE', *, *, #1038, .T. ) ;
#410 = ORIENTED_EDGE ( 'NONE', *, *, #1085, .T. ) ;
#411 = EDGE_LOOP ( 'NONE', ( #318, #394, #377, #301, #397, #409, #325, #395, #375, #338, #387, #360, #389, #355, #363, #316, #340, #328, #378, #410, #393, #373 ) ) ;
#412 = VERTEX_POINT ( 'NONE', #846 ) ;
#413 = EDGE_LOOP ( 'NONE', ( #266, #254, #279, #283, #246 ) ) ;
#414 = EDGE_LOOP ( 'NONE', ( #271, #281, #276, #257 ) ) ;
#415 = EDGE_LOOP ( 'NONE', ( #252, #264, #267, #236, #251 ) ) ;
#416 = EDGE_LOOP ( 'NONE', ( #344, #371, #392, #313 ) ) ;
#417 = VERTEX_POINT ( 'NONE', #844 ) ;
#418 = VERTEX_POINT ( 'NONE', #845 ) ;
#419 = VERTEX_POINT ( 'NONE', #847 ) ;
#420 = VERTEX_POINT ( 'NONE', #842 ) ;
#421 = VERTEX_POINT ( 'NONE', #841 ) ;
#422 = VERTEX_POINT ( 'NONE', #843 ) ;
#423 = VERTEX_POINT ( 'NONE', #849 ) ;
#424 = EDGE_LOOP ( 'NONE', ( #402, #351, #326, #399 ) ) ;
#425 = VERTEX_POINT ( 'NONE', #848 ) ;
#426 = VERTEX_POINT ( 'NONE', #851 ) ;
#427 = VERTEX_POINT ( 'NONE', #853 ) ;
#428 = EDGE_LOOP ( 'NONE', ( #226, #308, #339, #278 ) ) ;
#429 = EDGE_LOOP ( 'NONE', ( #330, #335, #333, #305 ) ) ;
#430 = EDGE_LOOP ( 'NONE', ( #314, #311, #336, #347 ) ) ;
#431 = VERTEX_POINT ( 'NONE', #860 ) ;
#432 = VERTEX_POINT ( 'NONE', #855 ) ;
#433 = VERTEX_POINT ( 'NONE', #852 ) ;
#434 = VERTEX_POINT ( 'NONE', #854 ) ;
#435 = VERTEX_POINT ( 'NONE', #856 ) ;
#436 = VERTEX_POINT ( 'NONE', #857 ) ;
#437 = VERTEX_POINT ( 'NONE', #858 ) ;
#438 = VERTEX_POINT ( 'NONE', #861 ) ;
#439 = VERTEX_POINT ( 'NONE', #850 ) ;
#440 = VERTEX_POINT ( 'NONE', #859 ) ;
#441 = VERTEX_POINT ( 'NONE', #883 ) ;
#442 = VERTEX_POINT ( 'NONE', #863 ) ;
#443 = VERTEX_POINT ( 'NONE', #894 ) ;
#444 = EDGE_LOOP ( 'NONE', ( #284, #258, #259, #277 ) ) ;
#445 = EDGE_LOOP ( 'NONE', ( #229, #332, #285, #223 ) ) ;
#446 = EDGE_LOOP ( 'NONE', ( #368, #361, #341, #296 ) ) ;
#447 = VERTEX_POINT ( 'NONE', #871 ) ;
#448 = VERTEX_POINT ( 'NONE', #889 ) ;
#449 = VERTEX_POINT ( 'NONE', #890 ) ;
#450 = VERTEX_POINT ( 'NONE', #862 ) ;
#451 = VERTEX_POINT ( 'NONE', #892 ) ;
#452 = VERTEX_POINT ( 'NONE', #893 ) ;
#453 = VERTEX_POINT ( 'NONE', #895 ) ;
#454 = VERTEX_POINT ( 'NONE', #876 ) ;
#455 = VERTEX_POINT ( 'NONE', #898 ) ;
#456 = EDGE_LOOP ( 'NONE', ( #343, #302, #303, #310 ) ) ;
#457 = EDGE_LOOP ( 'NONE', ( #367, #365, #329, #362 ) ) ;
#458 = EDGE_LOOP ( 'NONE', ( #352, #369, #379, #391 ) ) ;
#459 = VERTEX_POINT ( 'NONE', #864 ) ;
#460 = VERTEX_POINT ( 'NONE', #885 ) ;
#461 = VERTEX_POINT ( 'NONE', #882 ) ;
#462 = VERTEX_POINT ( 'NONE', #896 ) ;
#463 = VERTEX_POINT ( 'NONE', #873 ) ;
#464 = VERTEX_POINT ( 'NONE', #878 ) ;
#465 = EDGE_LOOP ( 'NONE', ( #401, #324, #307, #400 ) ) ;
#466 = EDGE_LOOP ( 'NONE', ( #221, #255, #228, #215 ) ) ;
#467 = VERTEX_POINT ( 'NONE', #865 ) ;
#468 = VERTEX_POINT ( 'NONE', #872 ) ;
#469 = VERTEX_POINT ( 'NONE', #879 ) ;
#470 = VERTEX_POINT ( 'NONE', #867 ) ;
#471 = VERTEX_POINT ( 'NONE', #891 ) ;
#472 = VERTEX_POINT ( 'NONE', #880 ) ;
#473 = VERTEX_POINT ( 'NONE', #868 ) ;
#474 = VERTEX_POINT ( 'NONE', #866 ) ;
#475 = VERTEX_POINT ( 'NONE', #897 ) ;
#476 = FACE_OUTER_BOUND ( 'NONE', #429, .T. ) ;
#477 = VERTEX_POINT ( 'NONE', #884 ) ;
#478 = VERTEX_POINT ( 'NONE', #888 ) ;
#479 = VERTEX_POINT ( 'NONE', #869 ) ;
#480 = VERTEX_POINT ( 'NONE', #870 ) ;
#481 = FACE_OUTER_BOUND ( 'NONE', #356, .T. ) ;
#482 = FACE_OUTER_BOUND ( 'NONE', #428, .T. ) ;
#483 = FACE_BOUND ( 'NONE', #354, .T. ) ;
#484 = CYLINDRICAL_SURFACE ( 'NONE', #1080, 2.000000000000001800 ) ;
#485 = FACE_OUTER_BOUND ( 'NONE', #458, .T. ) ;
#486 = CYLINDRICAL_SURFACE ( 'NONE', #1161, 2.000000000000000000 ) ;
#487 = FACE_OUTER_BOUND ( 'NONE', #350, .T. ) ;
#488 = VERTEX_POINT ( 'NONE', #886 ) ;
#489 = FACE_OUTER_BOUND ( 'NONE', #380, .T. ) ;
#490 = FACE_OUTER_BOUND ( 'NONE', #415, .T. ) ;
#491 = FACE_OUTER_BOUND ( 'NONE', #457, .T. ) ;
#492 = FACE_OUTER_BOUND ( 'NONE', #381, .T. ) ;
#493 = LINE ( 'NONE', #645, #495 ) ;
#494 = FACE_OUTER_BOUND ( 'NONE', #466, .T. ) ;
#495 = VECTOR ( 'NONE', #628, 1000.000000000000000 ) ;
#496 = FACE_OUTER_BOUND ( 'NONE', #444, .T. ) ;
#497 = VERTEX_POINT ( 'NONE', #874 ) ;
#498 = CYLINDRICAL_SURFACE ( 'NONE', #1127, 4.500000000000000900 ) ;
#499 = CYLINDRICAL_SURFACE ( 'NONE', #1131, 4.500000000000000900 ) ;
#500 = FACE_OUTER_BOUND ( 'NONE', #364, .T. ) ;
#501 = FACE_OUTER_BOUND ( 'NONE', #414, .T. ) ;
#502 = FACE_OUTER_BOUND ( 'NONE', #390, .T. ) ;
#503 = FACE_OUTER_BOUND ( 'NONE', #407, .T. ) ;
#504 = VERTEX_POINT ( 'NONE', #875 ) ;
#505 = VERTEX_POINT ( 'NONE', #887 ) ;
#506 = VERTEX_POINT ( 'NONE', #877 ) ;
#507 = VERTEX_POINT ( 'NONE', #881 ) ;
#508 = VERTEX_POINT ( 'NONE', #900 ) ;
#509 = FACE_OUTER_BOUND ( 'NONE', #383, .T. ) ;
#510 = FACE_OUTER_BOUND ( 'NONE', #446, .T. ) ;
#511 = LINE ( 'NONE', #622, #512 ) ;
#512 = VECTOR ( 'NONE', #625, 1000.000000000000000 ) ;
#513 = VERTEX_POINT ( 'NONE', #902 ) ;
#514 = FACE_OUTER_BOUND ( 'NONE', #445, .T. ) ;
#515 = FACE_OUTER_BOUND ( 'NONE', #374, .T. ) ;
#516 = FACE_OUTER_BOUND ( 'NONE', #209, .T. ) ;
#517 = FACE_OUTER_BOUND ( 'NONE', #424, .T. ) ;
#518 = FACE_OUTER_BOUND ( 'NONE', #386, .T. ) ;
#519 = VERTEX_POINT ( 'NONE', #901 ) ;
#520 = VERTEX_POINT ( 'NONE', #908 ) ;
#521 = FACE_OUTER_BOUND ( 'NONE', #388, .T. ) ;
#522 = FACE_OUTER_BOUND ( 'NONE', #465, .T. ) ;
#523 = FACE_OUTER_BOUND ( 'NONE', #430, .T. ) ;
#524 = FACE_OUTER_BOUND ( 'NONE', #408, .T. ) ;
#525 = CYLINDRICAL_SURFACE ( 'NONE', #1104, 2.000000000000000900 ) ;
#526 = FACE_OUTER_BOUND ( 'NONE', #385, .T. ) ;
#527 = FACE_OUTER_BOUND ( 'NONE', #411, .T. ) ;
#528 = FACE_OUTER_BOUND ( 'NONE', #358, .T. ) ;
#529 = VERTEX_POINT ( 'NONE', #903 ) ;
#530 = VERTEX_POINT ( 'NONE', #904 ) ;
#531 = CYLINDRICAL_SURFACE ( 'NONE', #1124, 2.000000000000001800 ) ;
#532 = FACE_OUTER_BOUND ( 'NONE', #456, .T. ) ;
#533 = FACE_OUTER_BOUND ( 'NONE', #416, .T. ) ;
#534 = FACE_OUTER_BOUND ( 'NONE', #357, .T. ) ;
#535 = FACE_OUTER_BOUND ( 'NONE', #353, .T. ) ;
#536 = FACE_OUTER_BOUND ( 'NONE', #413, .T. ) ;
#537 = FACE_OUTER_BOUND ( 'NONE', #382, .T. ) ;
#538 = CIRCLE ( 'NONE', #1156, 4.500000000000000900 ) ;
#539 = LINE ( 'NONE', #627, #546 ) ;
#540 = VECTOR ( 'NONE', #629, 1000.000000000000000 ) ;
#541 = VECTOR ( 'NONE', #611, 1000.000000000000000 ) ;
#542 = LINE ( 'NONE', #613, #540 ) ;
#543 = VECTOR ( 'NONE', #648, 1000.000000000000000 ) ;
#544 = LINE ( 'NONE', #614, #541 ) ;
#545 = LINE ( 'NONE', #615, #548 ) ;
#546 = VECTOR ( 'NONE', #618, 1000.000000000000000 ) ;
#547 = LINE ( 'NONE', #646, #52 ) ;
#548 = VECTOR ( 'NONE', #626, 1000.000000000000000 ) ;
#549 = LINE ( 'NONE', #623, #543 ) ;
#550 = LINE ( 'NONE', #642, #551 ) ;
#551 = VECTOR ( 'NONE', #644, 1000.000000000000000 ) ;
#552 = DESIGN_CONTEXT ( 'detailed design', #821, 'design' ) ;
#553 = PRODUCT_DEFINITION_SHAPE ( 'NONE', 'NONE',  #1140 ) ;
#554 = ADVANCED_FACE ( 'NONE', ( #521 ), #905, .F. ) ;
#555 = ADVANCED_FACE ( 'NONE', ( #514 ), #906, .F. ) ;
#556 = ADVANCED_FACE ( 'NONE', ( #522 ), #909, .F. ) ;
#557 = ADVANCED_FACE ( 'NONE', ( #481, #483 ), #912, .F. ) ;
#558 = ADVANCED_FACE ( 'NONE', ( #500 ), #917, .F. ) ;
#559 = ADVANCED_FACE ( 'NONE', ( #482 ), #921, .F. ) ;
#560 = ADVANCED_FACE ( 'NONE', ( #517 ), #525, .T. ) ;
#561 = ADVANCED_FACE ( 'NONE', ( #485 ), #484, .T. ) ;
#562 = ADVANCED_FACE ( 'NONE', ( #509 ), #949, .F. ) ;
#563 = ADVANCED_FACE ( 'NONE', ( #487 ), #930, .F. ) ;
#564 = ADVANCED_FACE ( 'NONE', ( #532 ), #933, .F. ) ;
#565 = ADVANCED_FACE ( 'NONE', ( #523 ), #969, .F. ) ;
#566 = ADVANCED_FACE ( 'NONE', ( #533 ), #968, .F. ) ;
#567 = ADVANCED_FACE ( 'NONE', ( #489 ), #531, .F. ) ;
#568 = ADVANCED_FACE ( 'NONE', ( #524 ), #958, .F. ) ;
#569 = ADVANCED_FACE ( 'NONE', ( #492 ), #931, .F. ) ;
#570 = ADVANCED_FACE ( 'NONE', ( #494 ), #498, .T. ) ;
#571 = ADVANCED_FACE ( 'NONE', ( #496 ), #499, .T. ) ;
#572 = ADVANCED_FACE ( 'NONE', ( #527 ), #974, .F. ) ;
#573 = ADVANCED_FACE ( 'NONE', ( #491 ), #980, .F. ) ;
#574 = ADVANCED_FACE ( 'NONE', ( #528 ), #988, .T. ) ;
#575 = ADVANCED_FACE ( 'NONE', ( #534 ), #987, .F. ) ;
#576 = ADVANCED_FACE ( 'NONE', ( #510 ), #984, .F. ) ;
#577 = ADVANCED_FACE ( 'NONE', ( #515 ), #1002, .F. ) ;
#578 = ADVANCED_FACE ( 'NONE', ( #518 ), #989, .T. ) ;
#579 = ADVANCED_FACE ( 'NONE', ( #535 ), #486, .F. ) ;
#580 = ADVANCED_FACE ( 'NONE', ( #490 ), #981, .T. ) ;
#581 = ADVANCED_FACE ( 'NONE', ( #502 ), #1012, .F. ) ;
#582 = ADVANCED_FACE ( 'NONE', ( #536 ), #1007, .T. ) ;
#583 = ADVANCED_FACE ( 'NONE', ( #516 ), #1010, .T. ) ;
#584 = ADVANCED_FACE ( 'NONE', ( #526 ), #605, .F. ) ;
#585 = ADVANCED_FACE ( 'NONE', ( #476 ), #591, .F. ) ;
#586 = ADVANCED_FACE ( 'NONE', ( #501 ), #590, .F. ) ;
#587 = ADVANCED_FACE ( 'NONE', ( #537 ), #600, .F. ) ;
#588 = ADVANCED_FACE ( 'NONE', ( #503 ), #601, .T. ) ;
#589 = DIRECTION ( 'NONE',  ( 1.000000000000000000, 1.224646799147353200E-016, -0.0000000000000000000 ) ) ;
#590 = PLANE ( 'NONE',  #1143 ) ;
#591 = PLANE ( 'NONE',  #1158 ) ;
#592 = CARTESIAN_POINT ( 'NONE',  ( -31.00000000000000400, 19.39999999999999900, 8.000000000000000000 ) ) ;
#593 = DIRECTION ( 'NONE',  ( -1.000000000000000000, -2.409338161078901200E-016, 0.0000000000000000000 ) ) ;
#594 = DIRECTION ( 'NONE',  ( 2.409338161078901200E-016, -1.000000000000000000, 0.0000000000000000000 ) ) ;
#595 = CARTESIAN_POINT ( 'NONE',  ( -18.79999999999997600, -10.50000000000000200, -20.87077013859467200 ) ) ;
#596 = CARTESIAN_POINT ( 'NONE',  ( -10.80000000000000100, -6.000000000000001800, -4.250000000000000000 ) ) ;
#597 = CARTESIAN_POINT ( 'NONE',  ( -19.79999999999999700, -6.000000000000002700, 0.2500000000000314200 ) ) ;
#598 = DIRECTION ( 'NONE',  ( -1.000000000000000000, -1.224646799147353200E-016, 0.0000000000000000000 ) ) ;
#599 = DIRECTION ( 'NONE',  ( 1.224646799147353200E-016, -1.000000000000000000, 0.0000000000000000000 ) ) ;
#600 = PLANE ( 'NONE',  #1151 ) ;
#601 = PLANE ( 'NONE',  #1163 ) ;
#602 = DIRECTION ( 'NONE',  ( -4.956352788505235300E-016, -1.000000000000000000, 0.0000000000000000000 ) ) ;
#603 = DIRECTION ( 'NONE',  ( 1.000000000000000000, -4.956352788505235300E-016, 0.0000000000000000000 ) ) ;
#604 = CARTESIAN_POINT ( 'NONE',  ( -15.29999999999996700, -6.000000000000001800, -4.250000000000000000 ) ) ;
#605 = PLANE ( 'NONE',  #1162 ) ;
#606 = DIRECTION ( 'NONE',  ( -1.224646799147353200E-016, 1.000000000000000000, 0.0000000000000000000 ) ) ;
#607 = DIRECTION ( 'NONE',  ( -0.0000000000000000000, 0.0000000000000000000, 1.000000000000000000 ) ) ;
#608 = CARTESIAN_POINT ( 'NONE',  ( -7.300000000000025600, -6.000000000000012400, -20.87077013859467200 ) ) ;
#609 = DIRECTION ( 'NONE',  ( 1.000000000000000000, 0.0000000000000000000, 0.0000000000000000000 ) ) ;
#610 = DIRECTION ( 'NONE',  ( -9.856383386231856400E-017, 1.000000000000000000, -0.0000000000000000000 ) ) ;
#611 = DIRECTION ( 'NONE',  ( -0.0000000000000000000, -0.0000000000000000000, -1.000000000000000000 ) ) ;
#612 = CARTESIAN_POINT ( 'NONE',  ( 0.0000000000000000000, 0.0000000000000000000, 8.000000000000000000 ) ) ;
#613 = CARTESIAN_POINT ( 'NONE',  ( 4.199999999999996600, 17.99999999999998200, 8.000000000000000000 ) ) ;
#614 = CARTESIAN_POINT ( 'NONE',  ( -32.98009925619580700, 18.19900743804197800, 8.000000000000000000 ) ) ;
#615 = CARTESIAN_POINT ( 'NONE',  ( -2.999999999999999100, 5.000000000000011500, 8.000000000000000000 ) ) ;
#616 = DIRECTION ( 'NONE',  ( 0.7071067811865430200, -0.7071067811865521200, 0.0000000000000000000 ) ) ;
#617 = CARTESIAN_POINT ( 'NONE',  ( -15.29999999999999700, -6.000000000000001800, 0.2499999999999993600 ) ) ;
#618 = DIRECTION ( 'NONE',  ( -1.224646799147353200E-016, 1.000000000000000000, -0.0000000000000000000 ) ) ;
#619 = CARTESIAN_POINT ( 'NONE',  ( -31.00000000000000400, 19.39999999999999900, 8.000000000000000000 ) ) ;
#620 = DIRECTION ( 'NONE',  ( 0.0000000000000000000, 0.0000000000000000000, 1.000000000000000000 ) ) ;
#621 = DIRECTION ( 'NONE',  ( 0.7071067811865521200, 0.7071067811865430200, 0.0000000000000000000 ) ) ;
#622 = CARTESIAN_POINT ( 'NONE',  ( -15.30000000000003300, -6.000000000000001800, 4.250000000000000900 ) ) ;
#623 = CARTESIAN_POINT ( 'NONE',  ( -28.60000000000000500, 16.99999999999999300, 8.000000000000000000 ) ) ;
#624 = DIRECTION ( 'NONE',  ( 1.224646799147353200E-016, -1.000000000000000000, -0.0000000000000000000 ) ) ;
#625 = DIRECTION ( 'NONE',  ( -1.224646799147353200E-016, 1.000000000000000000, -0.0000000000000000000 ) ) ;
#626 = DIRECTION ( 'NONE',  ( -4.818676322157803200E-017, -1.000000000000000000, -0.0000000000000000000 ) ) ;
#627 = CARTESIAN_POINT ( 'NONE',  ( -19.79999999999999700, -6.000000000000002700, 4.250000000000000000 ) ) ;
#628 = DIRECTION ( 'NONE',  ( -1.224646799147353200E-016, 1.000000000000000000, -0.0000000000000000000 ) ) ;
#629 = DIRECTION ( 'NONE',  ( -1.858632295689438600E-016, 1.000000000000000000, -0.0000000000000000000 ) ) ;
#630 = CARTESIAN_POINT ( 'NONE',  ( -2.999999999999998700, 14.00000000000000000, 8.000000000000000000 ) ) ;
#631 = DIRECTION ( 'NONE',  ( -0.0000000000000000000, -0.0000000000000000000, -1.000000000000000000 ) ) ;
#632 = DIRECTION ( 'NONE',  ( -2.409338161078901200E-016, 1.000000000000000000, -0.0000000000000000000 ) ) ;
#633 = CARTESIAN_POINT ( 'NONE',  ( 1.000000000000000900, 14.00000000000000000, -8.000000000000000000 ) ) ;
#634 = CARTESIAN_POINT ( 'NONE',  ( -28.99999999999998600, 2.999999999999996000, 8.000000000000000000 ) ) ;
#635 = DIRECTION ( 'NONE',  ( -1.000000000000000000, -0.0000000000000000000, -0.0000000000000000000 ) ) ;
#636 = DIRECTION ( 'NONE',  ( -1.000000000000000000, -1.927470528863118600E-016, 0.0000000000000000000 ) ) ;
#637 = DIRECTION ( 'NONE',  ( 1.000000000000000000, 1.224646799147353500E-016, 0.0000000000000000000 ) ) ;
#638 = CARTESIAN_POINT ( 'NONE',  ( -2.999999999999998700, 14.00000000000000000, 8.000000000000000000 ) ) ;
#639 = CARTESIAN_POINT ( 'NONE',  ( -10.80000000000000100, -1.322618543079141500E-015, -4.250000000000000000 ) ) ;
#640 = DIRECTION ( 'NONE',  ( -0.0000000000000000000, -0.0000000000000000000, -1.000000000000000000 ) ) ;
#641 = CARTESIAN_POINT ( 'NONE',  ( 1.000000000000001100, 11.79999999999999900, 8.000000000000000000 ) ) ;
#642 = CARTESIAN_POINT ( 'NONE',  ( -7.300000000000025600, -6.000000000000012400, 4.250000000000000000 ) ) ;
#643 = DIRECTION ( 'NONE',  ( -0.0000000000000000000, -0.0000000000000000000, -1.000000000000000000 ) ) ;
#644 = DIRECTION ( 'NONE',  ( 0.7071067811865522400, 0.7071067811865429100, -0.0000000000000000000 ) ) ;
#645 = CARTESIAN_POINT ( 'NONE',  ( -10.80000000000000100, -6.000000000000001800, -4.250000000000000000 ) ) ;
#646 = CARTESIAN_POINT ( 'NONE',  ( -15.29999999999996700, -1.873709602695446500E-015, -4.250000000000000000 ) ) ;
#647 = DIRECTION ( 'NONE',  ( -0.0000000000000000000, -0.0000000000000000000, -1.000000000000000000 ) ) ;
#648 = DIRECTION ( 'NONE',  ( 0.7071067811865470200, -0.7071067811865481300, -0.0000000000000000000 ) ) ;
#649 = CARTESIAN_POINT ( 'NONE',  ( 2.168404344971008900E-016, 11.79999999999999900, 8.000000000000000000 ) ) ;
#650 = CARTESIAN_POINT ( 'NONE',  ( -15.29999999999999700, -1.873709602695450100E-015, 0.2499999999999993600 ) ) ;
#651 = CARTESIAN_POINT ( 'NONE',  ( -15.29999999999996500, -6.000000000000001800, -4.250000000000000900 ) ) ;
#652 = DIRECTION ( 'NONE',  ( -0.0000000000000000000, -0.0000000000000000000, -1.000000000000000000 ) ) ;
#653 = CARTESIAN_POINT ( 'NONE',  ( -15.30000000000000100, -1.873709602695450400E-015, -0.2499999999999993600 ) ) ;
#654 = CARTESIAN_POINT ( 'NONE',  ( -7.300000000000025600, -6.000000000000012400, 4.250000000000000000 ) ) ;
#655 = DIRECTION ( 'NONE',  ( -1.000000000000000000, 0.0000000000000000000, 0.0000000000000000000 ) ) ;
#656 = CARTESIAN_POINT ( 'NONE',  ( -7.300000000000025600, -6.000000000000012400, -4.250000000000000000 ) ) ;
#657 = DIRECTION ( 'NONE',  ( 1.837630800822889100E-017, 1.000000000000000000, -0.0000000000000000000 ) ) ;
#658 = CARTESIAN_POINT ( 'NONE',  ( -7.300000000000025600, -6.000000000000012400, -4.250000000000000000 ) ) ;
#659 = DIRECTION ( 'NONE',  ( -0.0000000000000000000, -0.0000000000000000000, -1.000000000000000000 ) ) ;
#660 = DIRECTION ( 'NONE',  ( 1.000000000000000000, 0.0000000000000000000, 0.0000000000000000000 ) ) ;
#661 = CARTESIAN_POINT ( 'NONE',  ( 2.199999999999998800, 16.99999999999999600, 8.000000000000000000 ) ) ;
#662 = DIRECTION ( 'NONE',  ( -0.7071067811865521200, -0.7071067811865430200, 0.0000000000000000000 ) ) ;
#663 = CARTESIAN_POINT ( 'NONE',  ( -18.79999999999997600, -10.50000000000000200, -4.250000000000000000 ) ) ;
#664 = DIRECTION ( 'NONE',  ( -1.000000000000000000, 4.956352788505235300E-016, 0.0000000000000000000 ) ) ;
#665 = CARTESIAN_POINT ( 'NONE',  ( -2.999999999999998700, 5.000000000000011500, 8.000000000000000000 ) ) ;
#666 = DIRECTION ( 'NONE',  ( 1.000000000000000000, 1.224646799147353200E-016, -0.0000000000000000000 ) ) ;
#667 = CARTESIAN_POINT ( 'NONE',  ( -34.79999999999999700, -4.261770861032789000E-015, 8.000000000000000000 ) ) ;
#668 = CARTESIAN_POINT ( 'NONE',  ( 0.0000000000000000000, 0.0000000000000000000, -8.000000000000000000 ) ) ;
#669 = DIRECTION ( 'NONE',  ( -0.0000000000000000000, -0.0000000000000000000, -1.000000000000000000 ) ) ;
#670 = CARTESIAN_POINT ( 'NONE',  ( -4.999999999999999100, 4.999999999999997300, 8.000000000000000000 ) ) ;
#671 = CARTESIAN_POINT ( 'NONE',  ( 1.000000000000000900, 14.00000000000000000, 8.000000000000000000 ) ) ;
#672 = DIRECTION ( 'NONE',  ( -9.856383386231856400E-017, 1.000000000000000000, -0.0000000000000000000 ) ) ;
#673 = DIRECTION ( 'NONE',  ( -1.000000000000000000, -1.224646799147352700E-016, 0.0000000000000000000 ) ) ;
#674 = CARTESIAN_POINT ( 'NONE',  ( -30.99002487577582300, 17.99999999999999600, -8.000000000000000000 ) ) ;
#675 = DIRECTION ( 'NONE',  ( 1.224646799147353200E-016, -1.000000000000000000, -0.0000000000000000000 ) ) ;
#676 = CARTESIAN_POINT ( 'NONE',  ( 2.168404344971008900E-016, 11.79999999999999900, -8.000000000000000000 ) ) ;
#677 = DIRECTION ( 'NONE',  ( 1.000000000000000000, -5.421010862427521200E-016, 0.0000000000000000000 ) ) ;
#678 = CARTESIAN_POINT ( 'NONE',  ( -19.79999999999999700, -2.424800662311759000E-015, 0.2500000000000314200 ) ) ;
#679 = DIRECTION ( 'NONE',  ( -1.224646799147353200E-016, 1.000000000000000000, -0.0000000000000000000 ) ) ;
#680 = DIRECTION ( 'NONE',  ( -1.000000000000000000, -1.224646799147352700E-016, 0.0000000000000000000 ) ) ;
#681 = DIRECTION ( 'NONE',  ( -0.0000000000000000000, -0.0000000000000000000, -1.000000000000000000 ) ) ;
#682 = DIRECTION ( 'NONE',  ( -0.0000000000000000000, -0.0000000000000000000, -1.000000000000000000 ) ) ;
#683 = DIRECTION ( 'NONE',  ( -1.000000000000000000, 5.421010862427520200E-016, 0.0000000000000000000 ) ) ;
#684 = DIRECTION ( 'NONE',  ( 1.224646799147353200E-016, -1.000000000000000000, -0.0000000000000000000 ) ) ;
#685 = DIRECTION ( 'NONE',  ( 1.000000000000000000, 1.224646799147353200E-016, -0.0000000000000000000 ) ) ;
#686 = DIRECTION ( 'NONE',  ( 0.0000000000000000000, 0.0000000000000000000, 1.000000000000000000 ) ) ;
#687 = DIRECTION ( 'NONE',  ( -0.0000000000000000000, -0.0000000000000000000, -1.000000000000000000 ) ) ;
#688 = DIRECTION ( 'NONE',  ( 1.837630800822889100E-017, 1.000000000000000000, -0.0000000000000000000 ) ) ;
#689 = CARTESIAN_POINT ( 'NONE',  ( -2.999999999999999100, 5.000000000000011500, -8.000000000000000000 ) ) ;
#690 = DIRECTION ( 'NONE',  ( -1.000000000000000000, -1.045328216817890700E-016, -0.0000000000000000000 ) ) ;
#691 = CARTESIAN_POINT ( 'NONE',  ( 0.0000000000000000000, 0.0000000000000000000, 8.000000000000000000 ) ) ;
#692 = DIRECTION ( 'NONE',  ( -0.0000000000000000000, -0.0000000000000000000, -1.000000000000000000 ) ) ;
#693 = DIRECTION ( 'NONE',  ( 1.000000000000000000, -0.0000000000000000000, -0.0000000000000000000 ) ) ;
#694 = DIRECTION ( 'NONE',  ( -0.0000000000000000000, -0.0000000000000000000, -1.000000000000000000 ) ) ;
#695 = DIRECTION ( 'NONE',  ( 1.000000000000000000, 1.126443815569355400E-016, -0.0000000000000000000 ) ) ;
#696 = DIRECTION ( 'NONE',  ( -1.000000000000000000, -1.224646799147353000E-016, -0.0000000000000000000 ) ) ;
#697 = DIRECTION ( 'NONE',  ( -1.000000000000000000, -0.0000000000000000000, -0.0000000000000000000 ) ) ;
#698 = CARTESIAN_POINT ( 'NONE',  ( 0.5999999999999987600, 11.59999999999999400, 8.000000000000000000 ) ) ;
#699 = CARTESIAN_POINT ( 'NONE',  ( -19.79999999999999700, -6.000000000000002700, 0.2500000000000314200 ) ) ;
#700 = DIRECTION ( 'NONE',  ( -1.000000000000000000, -0.0000000000000000000, -0.0000000000000000000 ) ) ;
#701 = DIRECTION ( 'NONE',  ( 1.000000000000000000, -0.0000000000000000000, -0.0000000000000000000 ) ) ;
#702 = DIRECTION ( 'NONE',  ( -0.0000000000000000000, -0.0000000000000000000, -1.000000000000000000 ) ) ;
#703 = CARTESIAN_POINT ( 'NONE',  ( 1.000000000000001100, 11.79999999999999900, 8.000000000000000000 ) ) ;
#704 = CARTESIAN_POINT ( 'NONE',  ( -4.999999999999999100, 4.999999999999997300, -8.000000000000000000 ) ) ;
#705 = DIRECTION ( 'NONE',  ( 1.000000000000000000, 4.336808689942017700E-016, -0.0000000000000000000 ) ) ;
#706 = CARTESIAN_POINT ( 'NONE',  ( -2.999999999999998700, 14.00000000000000000, -8.000000000000000000 ) ) ;
#707 = DIRECTION ( 'NONE',  ( 1.000000000000000000, 0.0000000000000000000, 0.0000000000000000000 ) ) ;
#708 = CARTESIAN_POINT ( 'NONE',  ( -19.79999999999999700, -2.424800662311759000E-015, 4.250000000000000000 ) ) ;
#709 = DIRECTION ( 'NONE',  ( 1.000000000000000000, 0.0000000000000000000, 0.0000000000000000000 ) ) ;
#710 = DIRECTION ( 'NONE',  ( -0.7071067811865520100, 0.7071067811865431300, 0.0000000000000000000 ) ) ;
#711 = CARTESIAN_POINT ( 'NONE',  ( 0.5999999999999987600, 11.59999999999999400, -8.000000000000000000 ) ) ;
#712 = CARTESIAN_POINT ( 'NONE',  ( -28.99999999999999600, 4.999999999999997300, -8.000000000000000000 ) ) ;
#713 = CARTESIAN_POINT ( 'NONE',  ( 2.168404344971008900E-016, 11.79999999999999900, 8.000000000000000000 ) ) ;
#714 = CARTESIAN_POINT ( 'NONE',  ( 2.199999999999998800, 16.99999999999999600, 8.000000000000000000 ) ) ;
#715 = DIRECTION ( 'NONE',  ( -4.818676322157803200E-017, -1.000000000000000000, -0.0000000000000000000 ) ) ;
#716 = CARTESIAN_POINT ( 'NONE',  ( 1.000000000000001100, 11.79999999999999900, -8.000000000000000000 ) ) ;
#717 = CARTESIAN_POINT ( 'NONE',  ( 2.199999999999998800, 11.59999999999999400, 8.000000000000000000 ) ) ;
#718 = CARTESIAN_POINT ( 'NONE',  ( -23.30000000000003300, -6.000000000000003600, -4.250000000000000000 ) ) ;
#719 = DIRECTION ( 'NONE',  ( 1.000000000000000000, -4.956352788505235300E-016, 0.0000000000000000000 ) ) ;
#720 = DIRECTION ( 'NONE',  ( -1.000000000000000000, -0.0000000000000000000, -0.0000000000000000000 ) ) ;
#721 = CARTESIAN_POINT ( 'NONE',  ( 4.199999999999999300, 3.999999999999996400, 8.000000000000000000 ) ) ;
#722 = CARTESIAN_POINT ( 'NONE',  ( -18.79999999999997600, -10.50000000000000200, 4.250000000000000000 ) ) ;
#723 = CARTESIAN_POINT ( 'NONE',  ( 2.199999999999998800, 11.59999999999999400, 8.000000000000000000 ) ) ;
#724 = CARTESIAN_POINT ( 'NONE',  ( -30.99002487577580900, 19.99999999999999300, -8.000000000000000000 ) ) ;
#725 = DIRECTION ( 'NONE',  ( -0.0000000000000000000, -1.000000000000000000, -0.0000000000000000000 ) ) ;
#726 = DIRECTION ( 'NONE',  ( -1.224646799147353200E-016, 1.000000000000000000, -0.0000000000000000000 ) ) ;
#727 = CARTESIAN_POINT ( 'NONE',  ( -7.300000000000025600, -6.000000000000012400, 4.250000000000000000 ) ) ;
#728 = DIRECTION ( 'NONE',  ( -0.0000000000000000000, -0.0000000000000000000, -1.000000000000000000 ) ) ;
#729 = DIRECTION ( 'NONE',  ( -1.000000000000000000, 5.421010862427520200E-016, 0.0000000000000000000 ) ) ;
#730 = DIRECTION ( 'NONE',  ( 0.0000000000000000000, 0.0000000000000000000, 1.000000000000000000 ) ) ;
#731 = DIRECTION ( 'NONE',  ( 1.224646799147353200E-016, -1.000000000000000000, -0.0000000000000000000 ) ) ;
#732 = CARTESIAN_POINT ( 'NONE',  ( 4.199999999999999300, 3.999999999999996400, -8.000000000000000000 ) ) ;
#733 = CARTESIAN_POINT ( 'NONE',  ( -28.99999999999999600, 4.999999999999997300, 8.000000000000000000 ) ) ;
#734 = DIRECTION ( 'NONE',  ( -1.000000000000000000, 0.0000000000000000000, 0.0000000000000000000 ) ) ;
#735 = CARTESIAN_POINT ( 'NONE',  ( -15.30000000000000100, -6.000000000000001800, -0.2499999999999993600 ) ) ;
#736 = CARTESIAN_POINT ( 'NONE',  ( -18.79999999999997600, -10.50000000000000200, -20.87077013859467200 ) ) ;
#737 = DIRECTION ( 'NONE',  ( -0.0000000000000000000, -0.0000000000000000000, -1.000000000000000000 ) ) ;
#738 = DIRECTION ( 'NONE',  ( -1.000000000000000000, -1.927470528863118600E-016, 0.0000000000000000000 ) ) ;
#739 = DIRECTION ( 'NONE',  ( 0.0000000000000000000, 0.0000000000000000000, 1.000000000000000000 ) ) ;
#740 = DIRECTION ( 'NONE',  ( -0.0000000000000000000, -0.0000000000000000000, -1.000000000000000000 ) ) ;
#741 = CARTESIAN_POINT ( 'NONE',  ( -11.80000000000007700, -10.50000000000000500, -20.87077013859467200 ) ) ;
#742 = DIRECTION ( 'NONE',  ( 1.000000000000000000, 4.336808689942017700E-016, -0.0000000000000000000 ) ) ;
#743 = DIRECTION ( 'NONE',  ( -0.0000000000000000000, -0.0000000000000000000, -1.000000000000000000 ) ) ;
#744 = DIRECTION ( 'NONE',  ( 0.0000000000000000000, 0.0000000000000000000, 1.000000000000000000 ) ) ;
#745 = CARTESIAN_POINT ( 'NONE',  ( -30.99002487577582300, 17.99999999999999600, 8.000000000000000000 ) ) ;
#746 = DIRECTION ( 'NONE',  ( -0.09950371902099855400, -0.9950371902099891500, -0.0000000000000000000 ) ) ;
#747 = CARTESIAN_POINT ( 'NONE',  ( 4.199999999999997500, 17.99999999999998200, 8.000000000000000000 ) ) ;
#748 = CARTESIAN_POINT ( 'NONE',  ( -7.300000000000025600, -6.000000000000012400, -4.250000000000000000 ) ) ;
#749 = CARTESIAN_POINT ( 'NONE',  ( 2.199999999999998800, 9.999999999999989300, 8.000000000000000000 ) ) ;
#750 = DIRECTION ( 'NONE',  ( -0.0000000000000000000, -0.0000000000000000000, -1.000000000000000000 ) ) ;
#751 = CARTESIAN_POINT ( 'NONE',  ( -31.00000000000000000, 5.000000000000011500, 8.000000000000000000 ) ) ;
#752 = DIRECTION ( 'NONE',  ( -0.0000000000000000000, -0.0000000000000000000, -1.000000000000000000 ) ) ;
#753 = DIRECTION ( 'NONE',  ( 1.000000000000000000, 0.0000000000000000000, 0.0000000000000000000 ) ) ;
#754 = CARTESIAN_POINT ( 'NONE',  ( -10.80000000000000100, -6.000000000000001800, -4.250000000000000000 ) ) ;
#755 = CARTESIAN_POINT ( 'NONE',  ( 2.199999999999998800, 9.999999999999989300, -8.000000000000000000 ) ) ;
#756 = CARTESIAN_POINT ( 'NONE',  ( 2.199999999999998800, 9.999999999999989300, 8.000000000000000000 ) ) ;
#757 = DIRECTION ( 'NONE',  ( 0.7071067811865465700, -0.7071067811865483500, -0.0000000000000000000 ) ) ;
#758 = DIRECTION ( 'NONE',  ( -0.0000000000000000000, -0.0000000000000000000, -1.000000000000000000 ) ) ;
#759 = DIRECTION ( 'NONE',  ( -0.0000000000000000000, -0.0000000000000000000, -1.000000000000000000 ) ) ;
#760 = CARTESIAN_POINT ( 'NONE',  ( 1.000000000000000900, 14.00000000000000000, 8.000000000000000000 ) ) ;
#761 = CARTESIAN_POINT ( 'NONE',  ( -30.99002487577580900, 19.99999999999999600, 8.000000000000000000 ) ) ;
#762 = CARTESIAN_POINT ( 'NONE',  ( -5.000000000000013300, 2.999999999999996400, 8.000000000000000000 ) ) ;
#763 = DIRECTION ( 'NONE',  ( 0.0000000000000000000, 0.0000000000000000000, 1.000000000000000000 ) ) ;
#764 = CARTESIAN_POINT ( 'NONE',  ( -34.79999999999999700, -4.261770861032789000E-015, -8.000000000000000000 ) ) ;
#765 = CARTESIAN_POINT ( 'NONE',  ( -28.60000000000000500, 16.99999999999999300, 8.000000000000000000 ) ) ;
#766 = DIRECTION ( 'NONE',  ( -0.0000000000000000000, -0.0000000000000000000, -1.000000000000000000 ) ) ;
#767 = DIRECTION ( 'NONE',  ( 1.000000000000000000, -5.421010862427521200E-016, 0.0000000000000000000 ) ) ;
#768 = CARTESIAN_POINT ( 'NONE',  ( -19.79999999999999700, -6.000000000000002700, 0.2500000000000314200 ) ) ;
#769 = CARTESIAN_POINT ( 'NONE',  ( 2.199999999999996600, 17.99999999999999600, 8.000000000000000000 ) ) ;
#770 = DIRECTION ( 'NONE',  ( 0.0000000000000000000, 0.0000000000000000000, 1.000000000000000000 ) ) ;
#771 = DIRECTION ( 'NONE',  ( -1.000000000000000000, 0.0000000000000000000, 0.0000000000000000000 ) ) ;
#772 = CARTESIAN_POINT ( 'NONE',  ( -30.99002487577580900, 19.99999999999999300, 8.000000000000000000 ) ) ;
#773 = CARTESIAN_POINT ( 'NONE',  ( 2.199999999999982400, 19.99999999999999600, 8.000000000000000000 ) ) ;
#774 = DIRECTION ( 'NONE',  ( -1.000000000000000000, -0.0000000000000000000, -0.0000000000000000000 ) ) ;
#775 = DIRECTION ( 'NONE',  ( 0.0000000000000000000, 0.0000000000000000000, 1.000000000000000000 ) ) ;
#776 = DIRECTION ( 'NONE',  ( 0.7071067811865465700, -0.7071067811865483500, -0.0000000000000000000 ) ) ;
#777 = CARTESIAN_POINT ( 'NONE',  ( -31.00000000000000400, 19.39999999999999900, -8.000000000000000000 ) ) ;
#778 = CARTESIAN_POINT ( 'NONE',  ( 2.199999999999996600, 17.99999999999999600, -8.000000000000000000 ) ) ;
#779 = DIRECTION ( 'NONE',  ( 0.0000000000000000000, 0.0000000000000000000, 1.000000000000000000 ) ) ;
#780 = CARTESIAN_POINT ( 'NONE',  ( -10.80000000000000100, -6.000000000000001800, -0.2500000000000314200 ) ) ;
#781 = CARTESIAN_POINT ( 'NONE',  ( -31.00000000000000400, 19.39999999999999900, 8.000000000000000000 ) ) ;
#782 = DIRECTION ( 'NONE',  ( -1.000000000000000000, 0.0000000000000000000, 0.0000000000000000000 ) ) ;
#783 = CARTESIAN_POINT ( 'NONE',  ( 2.199999999999998800, 3.999999999999995600, 8.000000000000000000 ) ) ;
#784 = CARTESIAN_POINT ( 'NONE',  ( 0.0000000000000000000, 0.0000000000000000000, 0.0000000000000000000 ) ) ;
#785 = DIRECTION ( 'NONE',  ( -0.0000000000000000000, -1.000000000000000000, -0.0000000000000000000 ) ) ;
#786 = DIRECTION ( 'NONE',  ( -1.224646799147353200E-016, 1.000000000000000000, -0.0000000000000000000 ) ) ;
#787 = CARTESIAN_POINT ( 'NONE',  ( 2.199999999999998800, 16.99999999999999600, -8.000000000000000000 ) ) ;
#788 = DIRECTION ( 'NONE',  ( -1.000000000000000000, -1.045328216817890700E-016, -0.0000000000000000000 ) ) ;
#789 = DIRECTION ( 'NONE',  ( 0.7071067811865470200, -0.7071067811865481300, -0.0000000000000000000 ) ) ;
#790 = DIRECTION ( 'NONE',  ( -2.409338161078901200E-016, 1.000000000000000000, -0.0000000000000000000 ) ) ;
#791 = DIRECTION ( 'NONE',  ( 1.000000000000000000, 1.126443815569355400E-016, -0.0000000000000000000 ) ) ;
#792 = CARTESIAN_POINT ( 'NONE',  ( -28.60000000000000500, 16.99999999999999300, -8.000000000000000000 ) ) ;
#793 = CARTESIAN_POINT ( 'NONE',  ( -7.300000000000025600, -6.000000000000012400, -20.87077013859467200 ) ) ;
#794 = DIRECTION ( 'NONE',  ( 0.0000000000000000000, 0.0000000000000000000, 1.000000000000000000 ) ) ;
#795 = DIRECTION ( 'NONE',  ( -0.0000000000000000000, -0.0000000000000000000, -1.000000000000000000 ) ) ;
#796 = CARTESIAN_POINT ( 'NONE',  ( -28.99999999999998600, 2.999999999999996400, -8.000000000000000000 ) ) ;
#797 = CARTESIAN_POINT ( 'NONE',  ( 2.199999999999998800, 3.999999999999995600, -8.000000000000000000 ) ) ;
#798 = DIRECTION ( 'NONE',  ( -0.0000000000000000000, -0.0000000000000000000, -1.000000000000000000 ) ) ;
#799 = DIRECTION ( 'NONE',  ( -0.0000000000000000000, -1.000000000000000000, -0.0000000000000000000 ) ) ;
#800 = CARTESIAN_POINT ( 'NONE',  ( 4.199999999999999300, 3.999999999999996400, 8.000000000000000000 ) ) ;
#801 = CARTESIAN_POINT ( 'NONE',  ( -23.30000000000003300, -6.000000000000003600, -20.87077013859467200 ) ) ;
#802 = DIRECTION ( 'NONE',  ( -0.0000000000000000000, -0.0000000000000000000, -1.000000000000000000 ) ) ;
#803 = CARTESIAN_POINT ( 'NONE',  ( -23.30000000000003300, -6.000000000000003600, 4.250000000000000000 ) ) ;
#804 = CARTESIAN_POINT ( 'NONE',  ( -34.79999999999999700, -4.261770861032789000E-015, 8.000000000000000000 ) ) ;
#805 = DIRECTION ( 'NONE',  ( -1.858632295689438600E-016, 1.000000000000000000, -0.0000000000000000000 ) ) ;
#806 = DIRECTION ( 'NONE',  ( -0.09950371902099855400, -0.9950371902099891500, -0.0000000000000000000 ) ) ;
#807 = DIRECTION ( 'NONE',  ( 0.7071067811865520100, -0.7071067811865431300, 0.0000000000000000000 ) ) ;
#808 = CARTESIAN_POINT ( 'NONE',  ( 4.199999999999996600, 17.99999999999998200, -8.000000000000000000 ) ) ;
#809 = APPROVAL_ROLE ( '' ) ;
#810 = SECURITY_CLASSIFICATION_LEVEL ( 'unclassified' ) ;
#811 = DATE_TIME_ROLE ( 'creation_date' ) ;
#812 = APPROVAL_ROLE ( '' ) ;
#813 = DIRECTION ( 'NONE',  ( -0.0000000000000000000, -0.0000000000000000000, -1.000000000000000000 ) ) ;
#814 = PERSON_AND_ORGANIZATION_ROLE ( 'classification_officer' ) ;
#815 = PERSON_AND_ORGANIZATION_ROLE ( 'design_owner' ) ;
#816 =( NAMED_UNIT ( * ) PLANE_ANGLE_UNIT ( ) SI_UNIT ( $, .RADIAN. ) );
#817 = APPROVAL_STATUS ( 'not_yet_approved' ) ;
#818 = PERSON_AND_ORGANIZATION_ROLE ( 'design_supplier' ) ;
#819 = DATE_TIME_ROLE ( 'classification_date' ) ;
#820 = DIRECTION ( 'NONE',  ( -0.0000000000000000000, -1.000000000000000000, -0.0000000000000000000 ) ) ;
#821 = APPLICATION_CONTEXT ( 'configuration controlled 3d designs of mechanical parts and assemblies' ) ;
#822 =( LENGTH_UNIT ( ) NAMED_UNIT ( * ) SI_UNIT ( .MILLI., .METRE. ) );
#823 = APPLICATION_CONTEXT ( 'configuration controlled 3d designs of mechanical parts and assemblies' ) ;
#824 = DIRECTION ( 'NONE',  ( 0.0000000000000000000, 0.0000000000000000000, 1.000000000000000000 ) ) ;
#825 = APPROVAL_STATUS ( 'not_yet_approved' ) ;
#826 = APPROVAL_ROLE ( '' ) ;
#827 = DIRECTION ( 'NONE',  ( -1.000000000000000000, -0.0000000000000000000, -0.0000000000000000000 ) ) ;
#828 = CARTESIAN_POINT ( 'NONE',  ( -28.99999999999998600, 2.999999999999996400, 8.000000000000000000 ) ) ;
#829 = CARTESIAN_POINT ( 'NONE',  ( 0.5999999999999987600, 11.59999999999999400, 8.000000000000000000 ) ) ;
#830 =( NAMED_UNIT ( * ) SI_UNIT ( $, .STERADIAN. ) SOLID_ANGLE_UNIT ( ) );
#831 = DIRECTION ( 'NONE',  ( -0.0000000000000000000, -0.0000000000000000000, -1.000000000000000000 ) ) ;
#832 = APPLICATION_PROTOCOL_DEFINITION ( 'international standard', 'config_control_design', 1994, #823 ) ;
#833 = APPLICATION_PROTOCOL_DEFINITION ( 'international standard', 'config_control_design', 1994, #821 ) ;
#834 = PERSON_AND_ORGANIZATION_ROLE ( 'creator' ) ;
#835 = DIRECTION ( 'NONE',  ( 1.000000000000000000, 0.0000000000000000000, 0.0000000000000000000 ) ) ;
#836 = CARTESIAN_POINT ( 'NONE',  ( 2.199999999999998800, 11.59999999999999400, -8.000000000000000000 ) ) ;
#837 = MECHANICAL_CONTEXT ( 'NONE', #823, 'mechanical' ) ;
#838 = CARTESIAN_POINT ( 'NONE',  ( 2.199999999999998800, 3.999999999999995600, 8.000000000000000000 ) ) ;
#839 = PERSON_AND_ORGANIZATION_ROLE ( 'creator' ) ;
#840 = APPROVAL_STATUS ( 'not_yet_approved' ) ;
#841 = CARTESIAN_POINT ( 'NONE',  ( 2.168404344971008900E-016, 11.79999999999999900, -8.000000000000000000 ) ) ;
#842 = CARTESIAN_POINT ( 'NONE',  ( -30.99002487577580900, 19.99999999999999600, -8.000000000000000000 ) ) ;
#843 = CARTESIAN_POINT ( 'NONE',  ( -7.300000000000025600, -6.000000000000012400, 4.250000000000000000 ) ) ;
#844 = CARTESIAN_POINT ( 'NONE',  ( 2.199999999999998800, 16.99999999999999600, 8.000000000000000000 ) ) ;
#845 = CARTESIAN_POINT ( 'NONE',  ( -31.00000000000000400, 19.39999999999999900, -8.000000000000000000 ) ) ;
#846 = CARTESIAN_POINT ( 'NONE',  ( -19.79999999999999700, -6.000000000000002700, 0.2500000000000314200 ) ) ;
#847 = CARTESIAN_POINT ( 'NONE',  ( 4.199999999999997500, 17.99999999999998200, 8.000000000000000000 ) ) ;
#848 = CARTESIAN_POINT ( 'NONE',  ( 1.000000000000001100, 11.79999999999999900, 8.000000000000000000 ) ) ;
#849 = CARTESIAN_POINT ( 'NONE',  ( -34.79999999999999700, -4.261770861032789000E-015, 8.000000000000000000 ) ) ;
#850 = CARTESIAN_POINT ( 'NONE',  ( 2.199999999999998800, 9.999999999999989300, -8.000000000000000000 ) ) ;
#851 = CARTESIAN_POINT ( 'NONE',  ( -10.80000000000000100, -6.000000000000001800, -0.2500000000000314200 ) ) ;
#852 = CARTESIAN_POINT ( 'NONE',  ( -15.29999999999996500, -1.873709602695446100E-015, -4.250000000000000000 ) ) ;
#853 = CARTESIAN_POINT ( 'NONE',  ( 2.199999999999982400, 19.99999999999999600, 8.000000000000000000 ) ) ;
#854 = CARTESIAN_POINT ( 'NONE',  ( -23.30000000000003300, -6.000000000000003600, -4.250000000000000000 ) ) ;
#855 = CARTESIAN_POINT ( 'NONE',  ( 1.000000000000000900, 14.00000000000000000, -8.000000000000000000 ) ) ;
#856 = CARTESIAN_POINT ( 'NONE',  ( -2.999999999999998700, 5.000000000000011500, -8.000000000000000000 ) ) ;
#857 = CARTESIAN_POINT ( 'NONE',  ( -19.79999999999999700, -2.424800662311759000E-015, 4.250000000000000000 ) ) ;
#858 = CARTESIAN_POINT ( 'NONE',  ( -5.000000000000013300, 2.999999999999996400, -8.000000000000000000 ) ) ;
#859 = CARTESIAN_POINT ( 'NONE',  ( 1.000000000000000900, 14.00000000000000000, 8.000000000000000000 ) ) ;
#860 = CARTESIAN_POINT ( 'NONE',  ( 0.0000000000000000000, 0.0000000000000000000, -8.000000000000000000 ) ) ;
#861 = CARTESIAN_POINT ( 'NONE',  ( -30.99002487577580900, 19.99999999999999600, 8.000000000000000000 ) ) ;
#862 = CARTESIAN_POINT ( 'NONE',  ( 2.199999999999982400, 19.99999999999999600, -8.000000000000000000 ) ) ;
#863 = CARTESIAN_POINT ( 'NONE',  ( 2.199999999999998800, 16.99999999999999600, -8.000000000000000000 ) ) ;
#864 = CARTESIAN_POINT ( 'NONE',  ( -28.60000000000000500, 16.99999999999999300, -8.000000000000000000 ) ) ;
#865 = CARTESIAN_POINT ( 'NONE',  ( -7.300000000000025600, -6.000000000000012400, -4.250000000000000000 ) ) ;
#866 = CARTESIAN_POINT ( 'NONE',  ( -5.000000000000013300, 2.999999999999996400, 8.000000000000000000 ) ) ;
#867 = CARTESIAN_POINT ( 'NONE',  ( -15.30000000000003300, -1.873709602695454400E-015, 4.250000000000000900 ) ) ;
#868 = CARTESIAN_POINT ( 'NONE',  ( -2.999999999999998700, 5.000000000000011500, 8.000000000000000000 ) ) ;
#869 = CARTESIAN_POINT ( 'NONE',  ( 2.199999999999998800, 3.999999999999995600, 8.000000000000000000 ) ) ;
#870 = CARTESIAN_POINT ( 'NONE',  ( -19.79999999999999700, -6.000000000000002700, 4.250000000000000000 ) ) ;
#871 = CARTESIAN_POINT ( 'NONE',  ( -10.80000000000000100, -1.183632416360498100E-015, -0.2500000000000314200 ) ) ;
#872 = CARTESIAN_POINT ( 'NONE',  ( -2.999999999999998700, 14.00000000000000000, -8.000000000000000000 ) ) ;
#873 = CARTESIAN_POINT ( 'NONE',  ( -31.00000000000000400, 19.39999999999999900, 8.000000000000000000 ) ) ;
#874 = CARTESIAN_POINT ( 'NONE',  ( 2.199999999999998800, 11.59999999999999400, 8.000000000000000000 ) ) ;
#875 = CARTESIAN_POINT ( 'NONE',  ( -31.00000000000000000, 5.000000000000011500, -8.000000000000000000 ) ) ;
#876 = CARTESIAN_POINT ( 'NONE',  ( -23.30000000000003300, -6.000000000000003600, 4.250000000000000000 ) ) ;
#877 = CARTESIAN_POINT ( 'NONE',  ( -10.80000000000000100, -6.000000000000001800, -4.250000000000000000 ) ) ;
#878 = CARTESIAN_POINT ( 'NONE',  ( 0.5999999999999987600, 11.59999999999999400, 8.000000000000000000 ) ) ;
#879 = CARTESIAN_POINT ( 'NONE',  ( -19.79999999999999700, -2.285814535593116000E-015, 0.2499999999999993600 ) ) ;
#880 = CARTESIAN_POINT ( 'NONE',  ( 0.0000000000000000000, 0.0000000000000000000, 8.000000000000000000 ) ) ;
#881 = CARTESIAN_POINT ( 'NONE',  ( -11.80000000000007700, -10.50000000000000500, 4.250000000000000000 ) ) ;
#882 = CARTESIAN_POINT ( 'NONE',  ( -34.79999999999999700, -4.261770861032789000E-015, -8.000000000000000000 ) ) ;
#883 = CARTESIAN_POINT ( 'NONE',  ( -28.99999999999998600, 2.999999999999996000, 8.000000000000000000 ) ) ;
#884 = CARTESIAN_POINT ( 'NONE',  ( -11.80000000000007700, -10.50000000000000500, -4.250000000000000000 ) ) ;
#885 = CARTESIAN_POINT ( 'NONE',  ( -10.80000000000000100, -1.322618543079141500E-015, -4.250000000000000000 ) ) ;
#886 = CARTESIAN_POINT ( 'NONE',  ( 2.199999999999998800, 11.59999999999999400, -8.000000000000000000 ) ) ;
#887 = CARTESIAN_POINT ( 'NONE',  ( 2.199999999999998800, 9.999999999999989300, 8.000000000000000000 ) ) ;
#888 = CARTESIAN_POINT ( 'NONE',  ( 4.199999999999997500, 17.99999999999998200, -8.000000000000000000 ) ) ;
#889 = CARTESIAN_POINT ( 'NONE',  ( -28.99999999999998600, 2.999999999999996000, -8.000000000000000000 ) ) ;
#890 = CARTESIAN_POINT ( 'NONE',  ( -2.999999999999998700, 14.00000000000000000, 8.000000000000000000 ) ) ;
#891 = CARTESIAN_POINT ( 'NONE',  ( 1.000000000000001100, 11.79999999999999900, -8.000000000000000000 ) ) ;
#892 = CARTESIAN_POINT ( 'NONE',  ( -32.98009925619580700, 18.19900743804197800, -8.000000000000000000 ) ) ;
#893 = CARTESIAN_POINT ( 'NONE',  ( -15.30000000000000100, -6.000000000000008000, 4.250000000000000000 ) ) ;
#894 = CARTESIAN_POINT ( 'NONE',  ( 4.199999999999999300, 3.999999999999996400, 8.000000000000000000 ) ) ;
#895 = CARTESIAN_POINT ( 'NONE',  ( -28.60000000000000500, 16.99999999999999300, 8.000000000000000000 ) ) ;
#896 = CARTESIAN_POINT ( 'NONE',  ( 2.168404344971008900E-016, 11.79999999999999900, 8.000000000000000000 ) ) ;
#897 = CARTESIAN_POINT ( 'NONE',  ( 4.199999999999999300, 3.999999999999996400, -8.000000000000000000 ) ) ;
#898 = CARTESIAN_POINT ( 'NONE',  ( -18.79999999999997600, -10.50000000000000200, 4.250000000000000000 ) ) ;
#899 = DIRECTION ( 'NONE',  ( 1.000000000000000000, -4.818676322157803200E-017, 0.0000000000000000000 ) ) ;
#900 = CARTESIAN_POINT ( 'NONE',  ( -32.98009925619580700, 18.19900743804197800, 8.000000000000000000 ) ) ;
#901 = CARTESIAN_POINT ( 'NONE',  ( 2.199999999999998800, 3.999999999999995600, -8.000000000000000000 ) ) ;
#902 = CARTESIAN_POINT ( 'NONE',  ( -18.79999999999997600, -10.50000000000000200, -4.250000000000000000 ) ) ;
#903 = CARTESIAN_POINT ( 'NONE',  ( -15.29999999999996500, -6.000000000000001800, -4.250000000000000900 ) ) ;
#904 = CARTESIAN_POINT ( 'NONE',  ( -31.00000000000000000, 5.000000000000011500, 8.000000000000000000 ) ) ;
#905 = PLANE ( 'NONE',  #1094 ) ;
#906 = PLANE ( 'NONE',  #1076 ) ;
#907 = CARTESIAN_POINT ( 'NONE',  ( -2.999999999999999100, 5.000000000000011500, 8.000000000000000000 ) ) ;
#908 = CARTESIAN_POINT ( 'NONE',  ( 0.5999999999999987600, 11.59999999999999400, -8.000000000000000000 ) ) ;
#909 = PLANE ( 'NONE',  #1098 ) ;
#910 = CARTESIAN_POINT ( 'NONE',  ( 2.199999999999998800, 3.999999999999995600, 8.000000000000000000 ) ) ;
#911 = DIRECTION ( 'NONE',  ( 1.000000000000000000, 0.0000000000000000000, 0.0000000000000000000 ) ) ;
#912 = PLANE ( 'NONE',  #1107 ) ;
#913 = CARTESIAN_POINT ( 'NONE',  ( 0.0000000000000000000, 0.0000000000000000000, 8.000000000000000000 ) ) ;
#914 = DIRECTION ( 'NONE',  ( 0.0000000000000000000, 0.0000000000000000000, -1.000000000000000000 ) ) ;
#915 = DIRECTION ( 'NONE',  ( -1.224646799147353200E-016, 1.000000000000000000, 0.0000000000000000000 ) ) ;
#916 = DIRECTION ( 'NONE',  ( -1.000000000000000000, -1.224646799147353200E-016, 0.0000000000000000000 ) ) ;
#917 = PLANE ( 'NONE',  #1078 ) ;
#918 = CARTESIAN_POINT ( 'NONE',  ( -28.99999999999998600, 2.999999999999996400, 8.000000000000000000 ) ) ;
#919 = DIRECTION ( 'NONE',  ( 4.818676322157803200E-017, 1.000000000000000000, 0.0000000000000000000 ) ) ;
#920 = CARTESIAN_POINT ( 'NONE',  ( 4.199999999999999300, 3.999999999999996400, 8.000000000000000000 ) ) ;
#921 = PLANE ( 'NONE',  #1103 ) ;
#922 = DIRECTION ( 'NONE',  ( -4.336808689942017700E-016, 1.000000000000000000, 0.0000000000000000000 ) ) ;
#923 = DIRECTION ( 'NONE',  ( -1.000000000000000000, -4.336808689942017700E-016, 0.0000000000000000000 ) ) ;
#924 = DIRECTION ( 'NONE',  ( 0.0000000000000000000, -1.000000000000000000, 0.0000000000000000000 ) ) ;
#925 = DIRECTION ( 'NONE',  ( 0.0000000000000000000, -0.0000000000000000000, -1.000000000000000000 ) ) ;
#926 = DIRECTION ( 'NONE',  ( -1.000000000000000000, 0.0000000000000000000, 0.0000000000000000000 ) ) ;
#927 = CARTESIAN_POINT ( 'NONE',  ( -30.99002487577582300, 17.99999999999999600, 8.000000000000000000 ) ) ;
#928 = DIRECTION ( 'NONE',  ( 0.0000000000000000000, 0.0000000000000000000, 1.000000000000000000 ) ) ;
#929 = DIRECTION ( 'NONE',  ( -1.000000000000000000, 0.0000000000000000000, -0.0000000000000000000 ) ) ;
#930 = PLANE ( 'NONE',  #1115 ) ;
#931 = PLANE ( 'NONE',  #1130 ) ;
#932 = DIRECTION ( 'NONE',  ( 0.0000000000000000000, -1.000000000000000000, 0.0000000000000000000 ) ) ;
#933 = PLANE ( 'NONE',  #1105 ) ;
#934 = DIRECTION ( 'NONE',  ( 0.0000000000000000000, -0.0000000000000000000, -1.000000000000000000 ) ) ;
#935 = DIRECTION ( 'NONE',  ( -1.000000000000000000, 0.0000000000000000000, 0.0000000000000000000 ) ) ;
#936 = DIRECTION ( 'NONE',  ( 0.09950371902099855400, 0.9950371902099891500, 0.0000000000000000000 ) ) ;
#937 = CARTESIAN_POINT ( 'NONE',  ( -15.29999999999999700, -6.000000000000001800, 0.2499999999999993600 ) ) ;
#938 = DIRECTION ( 'NONE',  ( -1.000000000000000000, -1.927470528863118600E-016, 0.0000000000000000000 ) ) ;
#939 = DIRECTION ( 'NONE',  ( -1.000000000000000000, 0.0000000000000000000, 0.0000000000000000000 ) ) ;
#940 = CARTESIAN_POINT ( 'NONE',  ( -34.79999999999999700, -4.261770861032789000E-015, 8.000000000000000000 ) ) ;
#941 = DIRECTION ( 'NONE',  ( -1.224646799147353200E-016, 1.000000000000000000, -0.0000000000000000000 ) ) ;
#942 = CARTESIAN_POINT ( 'NONE',  ( 1.000000000000001100, 11.79999999999999900, 8.000000000000000000 ) ) ;
#943 = CARTESIAN_POINT ( 'NONE',  ( -28.60000000000000500, 16.99999999999999300, 8.000000000000000000 ) ) ;
#944 = CARTESIAN_POINT ( 'NONE',  ( 2.199999999999998800, 16.99999999999999600, 8.000000000000000000 ) ) ;
#945 = DIRECTION ( 'NONE',  ( 0.0000000000000000000, 1.000000000000000000, -0.0000000000000000000 ) ) ;
#946 = DIRECTION ( 'NONE',  ( -0.0000000000000000000, -0.0000000000000000000, -1.000000000000000000 ) ) ;
#947 = DIRECTION ( 'NONE',  ( -1.126443815569355400E-016, 1.000000000000000000, 0.0000000000000000000 ) ) ;
#948 = CARTESIAN_POINT ( 'NONE',  ( 0.5999999999999987600, 11.59999999999999400, 8.000000000000000000 ) ) ;
#949 = PLANE ( 'NONE',  #1096 ) ;
#950 = DIRECTION ( 'NONE',  ( 0.9950371902099892600, -0.09950371902099856800, 0.0000000000000000000 ) ) ;
#951 = DIRECTION ( 'NONE',  ( -0.0000000000000000000, -0.0000000000000000000, -1.000000000000000000 ) ) ;
#952 = DIRECTION ( 'NONE',  ( -1.000000000000000000, -9.856383386231856400E-017, 0.0000000000000000000 ) ) ;
#953 = DIRECTION ( 'NONE',  ( 0.0000000000000000000, 0.0000000000000000000, -1.000000000000000000 ) ) ;
#954 = CARTESIAN_POINT ( 'NONE',  ( -15.30000000000000100, -6.000000000000001800, -0.2499999999999993600 ) ) ;
#955 = DIRECTION ( 'NONE',  ( -1.224646799147353200E-016, 1.000000000000000000, -0.0000000000000000000 ) ) ;
#956 = DIRECTION ( 'NONE',  ( -1.000000000000000000, -1.927470528863118600E-016, 0.0000000000000000000 ) ) ;
#957 = DIRECTION ( 'NONE',  ( -0.7071067811865470200, 0.7071067811865480200, 0.0000000000000000000 ) ) ;
#958 = PLANE ( 'NONE',  #1126 ) ;
#959 = DIRECTION ( 'NONE',  ( -1.000000000000000000, -1.126443815569355400E-016, 0.0000000000000000000 ) ) ;
#960 = CARTESIAN_POINT ( 'NONE',  ( -19.79999999999999700, -6.000000000000002700, 4.250000000000000000 ) ) ;
#961 = DIRECTION ( 'NONE',  ( 1.000000000000000000, 0.0000000000000000000, 0.0000000000000000000 ) ) ;
#962 = CARTESIAN_POINT ( 'NONE',  ( -28.99999999999999600, 4.999999999999997300, 8.000000000000000000 ) ) ;
#963 = DIRECTION ( 'NONE',  ( -0.0000000000000000000, -0.0000000000000000000, -1.000000000000000000 ) ) ;
#964 = DIRECTION ( 'NONE',  ( 0.7071067811865480200, 0.7071067811865470200, -0.0000000000000000000 ) ) ;
#965 = DIRECTION ( 'NONE',  ( 0.0000000000000000000, 0.0000000000000000000, -1.000000000000000000 ) ) ;
#966 = DIRECTION ( 'NONE',  ( 9.856383386231856400E-017, -1.000000000000000000, 0.0000000000000000000 ) ) ;
#967 = CARTESIAN_POINT ( 'NONE',  ( 1.000000000000000900, 14.00000000000000000, 8.000000000000000000 ) ) ;
#968 = PLANE ( 'NONE',  #1133 ) ;
#969 = PLANE ( 'NONE',  #1084 ) ;
#970 = CARTESIAN_POINT ( 'NONE',  ( 2.199999999999996600, 17.99999999999999600, 8.000000000000000000 ) ) ;
#971 = CARTESIAN_POINT ( 'NONE',  ( 2.199999999999998800, 11.59999999999999400, 8.000000000000000000 ) ) ;
#972 = DIRECTION ( 'NONE',  ( -1.837630800822889100E-017, -1.000000000000000000, 0.0000000000000000000 ) ) ;
#973 = CARTESIAN_POINT ( 'NONE',  ( -30.99002487577580900, 19.99999999999999300, 8.000000000000000000 ) ) ;
#974 = PLANE ( 'NONE',  #1125 ) ;
#975 = DIRECTION ( 'NONE',  ( -0.0000000000000000000, 0.0000000000000000000, -1.000000000000000000 ) ) ;
#976 = DIRECTION ( 'NONE',  ( 0.0000000000000000000, -1.000000000000000000, 0.0000000000000000000 ) ) ;
#977 = DIRECTION ( 'NONE',  ( 1.858632295689438300E-016, -1.000000000000000000, 0.0000000000000000000 ) ) ;
#978 = CARTESIAN_POINT ( 'NONE',  ( 2.168404344971008900E-016, 11.79999999999999900, 8.000000000000000000 ) ) ;
#979 = CARTESIAN_POINT ( 'NONE',  ( -23.30000000000003300, -6.000000000000003600, -20.87077013859467200 ) ) ;
#980 = PLANE ( 'NONE',  #1128 ) ;
#981 = PLANE ( 'NONE',  #1153 ) ;
#982 = DIRECTION ( 'NONE',  ( -1.000000000000000000, 1.837630800822889100E-017, 0.0000000000000000000 ) ) ;
#983 = CARTESIAN_POINT ( 'NONE',  ( 4.199999999999996600, 17.99999999999998200, 8.000000000000000000 ) ) ;
#984 = PLANE ( 'NONE',  #1134 ) ;
#985 = DIRECTION ( 'NONE',  ( 1.000000000000000000, 1.045328216817890700E-016, 0.0000000000000000000 ) ) ;
#986 = CARTESIAN_POINT ( 'NONE',  ( -7.300000000000025600, -6.000000000000012400, -20.87077013859467200 ) ) ;
#987 = PLANE ( 'NONE',  #1132 ) ;
#988 = PLANE ( 'NONE',  #1129 ) ;
#989 = PLANE ( 'NONE',  #1136 ) ;
#990 = DIRECTION ( 'NONE',  ( 0.7071067811865520100, -0.7071067811865431300, 0.0000000000000000000 ) ) ;
#991 = DIRECTION ( 'NONE',  ( -0.0000000000000000000, -0.0000000000000000000, -1.000000000000000000 ) ) ;
#992 = CARTESIAN_POINT ( 'NONE',  ( -2.999999999999998700, 14.00000000000000000, 8.000000000000000000 ) ) ;
#993 = DIRECTION ( 'NONE',  ( -1.000000000000000000, 0.0000000000000000000, 0.0000000000000000000 ) ) ;
#994 = DIRECTION ( 'NONE',  ( 1.045328216817890700E-016, -1.000000000000000000, 0.0000000000000000000 ) ) ;
#995 = CARTESIAN_POINT ( 'NONE',  ( -30.99002487577582300, 17.99999999999999600, -8.000000000000000000 ) ) ;
#996 = DIRECTION ( 'NONE',  ( -0.0000000000000000000, 0.0000000000000000000, -1.000000000000000000 ) ) ;
#997 = CARTESIAN_POINT ( 'NONE',  ( -4.999999999999999100, 4.999999999999997300, 8.000000000000000000 ) ) ;
#998 = DIRECTION ( 'NONE',  ( -0.7071067811865431300, -0.7071067811865520100, 0.0000000000000000000 ) ) ;
#999 = DIRECTION ( 'NONE',  ( -1.000000000000000000, 0.0000000000000000000, 0.0000000000000000000 ) ) ;
#1000 = DIRECTION ( 'NONE',  ( -1.000000000000000000, -1.858632295689438300E-016, 0.0000000000000000000 ) ) ;
#1001 = CARTESIAN_POINT ( 'NONE',  ( -30.99002487577582300, 17.99999999999999600, 8.000000000000000000 ) ) ;
#1002 = PLANE ( 'NONE',  #1135 ) ;
#1003 = DIRECTION ( 'NONE',  ( 0.0000000000000000000, -0.0000000000000000000, -1.000000000000000000 ) ) ;
#1004 = DIRECTION ( 'NONE',  ( -1.000000000000000000, 0.0000000000000000000, 0.0000000000000000000 ) ) ;
#1005 = DIRECTION ( 'NONE',  ( 0.7071067811865484600, 0.7071067811865466800, -0.0000000000000000000 ) ) ;
#1006 = DIRECTION ( 'NONE',  ( -0.7071067811865465700, 0.7071067811865483500, 0.0000000000000000000 ) ) ;
#1007 = PLANE ( 'NONE',  #1155 ) ;
#1008 = CARTESIAN_POINT ( 'NONE',  ( -7.300000000000025600, -6.000000000000012400, -20.87077013859467200 ) ) ;
#1009 = DIRECTION ( 'NONE',  ( -1.000000000000000000, 5.421010862427521200E-016, 0.0000000000000000000 ) ) ;
#1010 = PLANE ( 'NONE',  #1141 ) ;
#1011 = DIRECTION ( 'NONE',  ( 5.421010862427521200E-016, 1.000000000000000000, -0.0000000000000000000 ) ) ;
#1012 = PLANE ( 'NONE',  #1154 ) ;
#1013 = DIRECTION ( 'NONE',  ( 5.421010862427521200E-016, 1.000000000000000000, -0.0000000000000000000 ) ) ;
#1014 = CARTESIAN_POINT ( 'NONE',  ( 2.199999999999998800, 9.999999999999989300, 8.000000000000000000 ) ) ;
#1015 = DIRECTION ( 'NONE',  ( -1.000000000000000000, 5.421010862427521200E-016, 0.0000000000000000000 ) ) ;
#1016 = EDGE_CURVE ( 'NONE', #506, #460, #493, .T. ) ;
#1017 = EDGE_CURVE ( 'NONE', #452, #470, #511, .T. ) ;
#1018 = EDGE_CURVE ( 'NONE', #412, #529, #538, .T. ) ;
#1019 = EDGE_CURVE ( 'NONE', #443, #419, #542, .T. ) ;
#1020 = EDGE_CURVE ( 'NONE', #449, #473, #545, .T. ) ;
#1021 = EDGE_CURVE ( 'NONE', #463, #453, #549, .T. ) ;
#1022 = EDGE_CURVE ( 'NONE', #508, #451, #544, .T. ) ;
#1023 = EDGE_CURVE ( 'NONE', #480, #436, #539, .T. ) ;
#1024 = EDGE_CURVE ( 'NONE', #507, #422, #550, .T. ) ;
#1025 = EDGE_CURVE ( 'NONE', #433, #460, #547, .T. ) ;
#1026 = EDGE_CURVE ( 'NONE', #460, #447, #22, .T. ) ;
#1027 = EDGE_CURVE ( 'NONE', #449, #468, #24, .T. ) ;
#1028 = EDGE_CURVE ( 'NONE', #440, #449, #16, .T. ) ;
#1029 = EDGE_CURVE ( 'NONE', #462, #421, #38, .T. ) ;
#1030 = EDGE_CURVE ( 'NONE', #530, #463, #53, .T. ) ;
#1031 = EDGE_CURVE ( 'NONE', #471, #432, #10, .T. ) ;
#1032 = EDGE_CURVE ( 'NONE', #441, #448, #47, .T. ) ;
#1033 = EDGE_CURVE ( 'NONE', #425, #471, #57, .T. ) ;
#1034 = EDGE_CURVE ( 'NONE', #436, #469, #60, .T. ) ;
#1035 = EDGE_CURVE ( 'NONE', #461, #431, #45, .T. ) ;
#1036 = EDGE_CURVE ( 'NONE', #423, #472, #2, .T. ) ;
#1037 = EDGE_CURVE ( 'NONE', #422, #452, #14, .T. ) ;
#1038 = EDGE_CURVE ( 'NONE', #473, #474, #39, .T. ) ;
#1039 = EDGE_CURVE ( 'NONE', #447, #470, #21, .T. ) ;
#1040 = EDGE_CURVE ( 'NONE', #425, #440, #33, .T. ) ;
#1041 = EDGE_CURVE ( 'NONE', #469, #433, #25, .T. ) ;
#1042 = EDGE_CURVE ( 'NONE', #423, #461, #26, .T. ) ;
#1043 = EDGE_CURVE ( 'NONE', #420, #451, #56, .T. ) ;
#1044 = EDGE_CURVE ( 'NONE', #431, #421, #27, .T. ) ;
#1045 = EDGE_CURVE ( 'NONE', #417, #442, #36, .T. ) ;
#1046 = EDGE_CURVE ( 'NONE', #506, #467, #8, .T. ) ;
#1047 = EDGE_CURVE ( 'NONE', #467, #477, #12, .T. ) ;
#1048 = EDGE_CURVE ( 'NONE', #529, #433, #17, .T. ) ;
#1049 = EDGE_CURVE ( 'NONE', #477, #513, #18, .T. ) ;
#1050 = EDGE_CURVE ( 'NONE', #448, #504, #55, .T. ) ;
#1051 = EDGE_CURVE ( 'NONE', #473, #435, #51, .T. ) ;
#1052 = EDGE_CURVE ( 'NONE', #417, #497, #34, .T. ) ;
#1053 = EDGE_CURVE ( 'NONE', #513, #434, #42, .T. ) ;
#1054 = EDGE_CURVE ( 'NONE', #435, #437, #6, .T. ) ;
#1055 = EDGE_CURVE ( 'NONE', #453, #417, #15, .T. ) ;
#1056 = EDGE_CURVE ( 'NONE', #472, #431, #11, .T. ) ;
#1057 = EDGE_CURVE ( 'NONE', #472, #462, #62, .T. ) ;
#1058 = EDGE_CURVE ( 'NONE', #497, #488, #3, .T. ) ;
#1059 = EDGE_CURVE ( 'NONE', #462, #425, #35, .T. ) ;
#1060 = EDGE_CURVE ( 'NONE', #421, #471, #78, .T. ) ;
#1061 = EDGE_CURVE ( 'NONE', #450, #420, #65, .T. ) ;
#1062 = EDGE_CURVE ( 'NONE', #479, #443, #119, .T. ) ;
#1063 = EDGE_CURVE ( 'NONE', #470, #436, #120, .T. ) ;
#1064 = EDGE_CURVE ( 'NONE', #468, #435, #80, .T. ) ;
#1065 = EDGE_CURVE ( 'NONE', #432, #468, #86, .T. ) ;
#1066 = EDGE_CURVE ( 'NONE', #412, #469, #99, .T. ) ;
#1067 = EDGE_CURVE ( 'NONE', #455, #507, #81, .T. ) ;
#1068 = EDGE_CURVE ( 'NONE', #488, #520, #115, .T. ) ;
#1069 = EDGE_CURVE ( 'NONE', #497, #464, #122, .T. ) ;
#1070 = EDGE_CURVE ( 'NONE', #440, #432, #66, .T. ) ;
#1071 = EDGE_CURVE ( 'NONE', #474, #437, #116, .T. ) ;
#1072 = EDGE_CURVE ( 'NONE', #426, #452, #89, .T. ) ;
#1073 = EDGE_CURVE ( 'NONE', #477, #507, #117, .T. ) ;
#1074 = EDGE_CURVE ( 'NONE', #434, #529, #70, .T. ) ;
#1075 = EDGE_CURVE ( 'NONE', #513, #455, #69, .T. ) ;
#1076 = AXIS2_PLACEMENT_3D ( 'NONE', #918, #924, #925 ) ;
#1077 = EDGE_CURVE ( 'NONE', #519, #475, #83, .T. ) ;
#1078 = AXIS2_PLACEMENT_3D ( 'NONE', #920, #922, #923 ) ;
#1079 = EDGE_CURVE ( 'NONE', #480, #412, #101, .T. ) ;
#1080 = AXIS2_PLACEMENT_3D ( 'NONE', #927, #951, #939 ) ;
#1081 = EDGE_CURVE ( 'NONE', #441, #530, #109, .T. ) ;
#1082 = EDGE_CURVE ( 'NONE', #438, #420, #87, .T. ) ;
#1083 = EDGE_CURVE ( 'NONE', #506, #426, #114, .T. ) ;
#1084 = AXIS2_PLACEMENT_3D ( 'NONE', #944, #947, #959 ) ;
#1085 = EDGE_CURVE ( 'NONE', #438, #508, #111, .T. ) ;
#1086 = EDGE_CURVE ( 'NONE', #451, #461, #95, .T. ) ;
#1087 = EDGE_CURVE ( 'NONE', #505, #439, #92, .T. ) ;
#1088 = EDGE_CURVE ( 'NONE', #530, #504, #113, .T. ) ;
#1089 = EDGE_CURVE ( 'NONE', #520, #439, #68, .T. ) ;
#1090 = EDGE_CURVE ( 'NONE', #453, #459, #121, .T. ) ;
#1091 = EDGE_CURVE ( 'NONE', #419, #478, #67, .T. ) ;
#1092 = EDGE_CURVE ( 'NONE', #480, #454, #100, .T. ) ;
#1093 = EDGE_CURVE ( 'NONE', #434, #454, #102, .T. ) ;
#1094 = AXIS2_PLACEMENT_3D ( 'NONE', #907, #899, #919 ) ;
#1095 = EDGE_CURVE ( 'NONE', #439, #519, #73, .T. ) ;
#1096 = AXIS2_PLACEMENT_3D ( 'NONE', #940, #950, #936 ) ;
#1097 = EDGE_CURVE ( 'NONE', #505, #479, #124, .T. ) ;
#1098 = AXIS2_PLACEMENT_3D ( 'NONE', #910, #911, #914 ) ;
#1099 = EDGE_CURVE ( 'NONE', #443, #475, #162, .T. ) ;
#1100 = EDGE_CURVE ( 'NONE', #464, #505, #172, .T. ) ;
#1101 = EDGE_CURVE ( 'NONE', #426, #447, #170, .T. ) ;
#1102 = EDGE_CURVE ( 'NONE', #504, #418, #166, .T. ) ;
#1103 = AXIS2_PLACEMENT_3D ( 'NONE', #967, #952, #966 ) ;
#1104 = AXIS2_PLACEMENT_3D ( 'NONE', #970, #946, #935 ) ;
#1105 = AXIS2_PLACEMENT_3D ( 'NONE', #943, #964, #957 ) ;
#1106 = EDGE_CURVE ( 'NONE', #419, #427, #175, .T. ) ;
#1107 = AXIS2_PLACEMENT_3D ( 'NONE', #913, #915, #916 ) ;
#1108 = EDGE_CURVE ( 'NONE', #459, #442, #164, .T. ) ;
#1109 = EDGE_CURVE ( 'NONE', #463, #418, #163, .T. ) ;
#1110 = EDGE_CURVE ( 'NONE', #437, #448, #168, .T. ) ;
#1111 = EDGE_CURVE ( 'NONE', #478, #450, #138, .T. ) ;
#1112 = EDGE_CURVE ( 'NONE', #427, #438, #151, .T. ) ;
#1113 = EDGE_CURVE ( 'NONE', #418, #459, #160, .T. ) ;
#1114 = EDGE_CURVE ( 'NONE', #467, #422, #176, .T. ) ;
#1115 = AXIS2_PLACEMENT_3D ( 'NONE', #942, #945, #928 ) ;
#1116 = EDGE_CURVE ( 'NONE', #427, #450, #169, .T. ) ;
#1117 = EDGE_CURVE ( 'NONE', #475, #478, #146, .T. ) ;
#1118 = EDGE_CURVE ( 'NONE', #454, #455, #142, .T. ) ;
#1119 = EDGE_CURVE ( 'NONE', #508, #423, #156, .T. ) ;
#1120 = EDGE_CURVE ( 'NONE', #464, #520, #158, .T. ) ;
#1121 = EDGE_CURVE ( 'NONE', #442, #488, #127, .T. ) ;
#1122 = EDGE_CURVE ( 'NONE', #479, #519, #171, .T. ) ;
#1123 = EDGE_CURVE ( 'NONE', #474, #441, #139, .T. ) ;
#1124 = AXIS2_PLACEMENT_3D ( 'NONE', #962, #963, #926 ) ;
#1125 = AXIS2_PLACEMENT_3D ( 'NONE', #1001, #975, #999 ) ;
#1126 = AXIS2_PLACEMENT_3D ( 'NONE', #960, #965, #929 ) ;
#1127 = AXIS2_PLACEMENT_3D ( 'NONE', #937, #941, #938 ) ;
#1128 = AXIS2_PLACEMENT_3D ( 'NONE', #983, #1000, #977 ) ;
#1129 = AXIS2_PLACEMENT_3D ( 'NONE', #979, #998, #990 ) ;
#1130 = AXIS2_PLACEMENT_3D ( 'NONE', #948, #932, #934 ) ;
#1131 = AXIS2_PLACEMENT_3D ( 'NONE', #954, #955, #956 ) ;
#1132 = AXIS2_PLACEMENT_3D ( 'NONE', #978, #982, #972 ) ;
#1133 = AXIS2_PLACEMENT_3D ( 'NONE', #971, #961, #953 ) ;
#1134 = AXIS2_PLACEMENT_3D ( 'NONE', #973, #994, #985 ) ;
#1135 = AXIS2_PLACEMENT_3D ( 'NONE', #992, #976, #1003 ) ;
#1136 = AXIS2_PLACEMENT_3D ( 'NONE', #995, #996, #1004 ) ;
#1137 = AXIS2_PLACEMENT_3D ( 'NONE', #674, #686, #655 ) ;
#1138 = AXIS2_PLACEMENT_3D ( 'NONE', #784, #824, #835 ) ;
#1139 = CC_DESIGN_PERSON_AND_ORGANIZATION_ASSIGNMENT ( #129, #815, ( #1179 ) ) ;
#1140 = PRODUCT_DEFINITION ( 'UNKNOWN', '', #1172, #552 ) ;
#1141 = AXIS2_PLACEMENT_3D ( 'NONE', #595, #602, #603 ) ;
#1142 = CC_DESIGN_APPROVAL ( #1150, ( #1140 ) ) ;
#1143 = AXIS2_PLACEMENT_3D ( 'NONE', #596, #598, #599 ) ;
#1144 = AXIS2_PLACEMENT_3D ( 'NONE', #653, #684, #673 ) ;
#1145 = AXIS2_PLACEMENT_3D ( 'NONE', #650, #675, #680 ) ;
#1146 = AXIS2_PLACEMENT_3D ( 'NONE', #704, #692, #709 ) ;
#1147 = AXIS2_PLACEMENT_3D ( 'NONE', #745, #763, #734 ) ;
#1148 = AXIS2_PLACEMENT_3D ( 'NONE', #712, #694, #707 ) ;
#1149 =( GEOMETRIC_REPRESENTATION_CONTEXT ( 3 ) GLOBAL_UNCERTAINTY_ASSIGNED_CONTEXT ( ( #1181 ) ) GLOBAL_UNIT_ASSIGNED_CONTEXT ( ( #822, #816, #830 ) ) REPRESENTATION_CONTEXT ( 'NONE', 'WORKASPACE' ) );
#1150 = APPROVAL ( #817, 'UNSPECIFIED' ) ;
#1151 = AXIS2_PLACEMENT_3D ( 'NONE', #604, #607, #609 ) ;
#1152 = CC_DESIGN_PERSON_AND_ORGANIZATION_ASSIGNMENT ( #136, #839, ( #1140 ) ) ;
#1153 = AXIS2_PLACEMENT_3D ( 'NONE', #986, #1013, #1015 ) ;
#1154 = AXIS2_PLACEMENT_3D ( 'NONE', #1014, #1005, #1006 ) ;
#1155 = AXIS2_PLACEMENT_3D ( 'NONE', #1008, #1011, #1009 ) ;
#1156 = AXIS2_PLACEMENT_3D ( 'NONE', #617, #624, #636 ) ;
#1157 = AXIS2_PLACEMENT_3D ( 'NONE', #670, #682, #660 ) ;
#1158 = AXIS2_PLACEMENT_3D ( 'NONE', #592, #593, #594 ) ;
#1159 = AXIS2_PLACEMENT_3D ( 'NONE', #735, #731, #738 ) ;
#1160 = AXIS2_PLACEMENT_3D ( 'NONE', #733, #728, #753 ) ;
#1161 = AXIS2_PLACEMENT_3D ( 'NONE', #997, #991, #993 ) ;
#1162 = AXIS2_PLACEMENT_3D ( 'NONE', #597, #589, #606 ) ;
#1163 = AXIS2_PLACEMENT_3D ( 'NONE', #608, #616, #621 ) ;
#1164 = AXIS2_PLACEMENT_3D ( 'NONE', #769, #770, #782 ) ;
#1165 = AXIS2_PLACEMENT_3D ( 'NONE', #778, #779, #771 ) ;
#1166 = CC_DESIGN_PERSON_AND_ORGANIZATION_ASSIGNMENT ( #193, #818, ( #1172 ) ) ;
#1167 = APPROVAL ( #825, 'UNSPECIFIED' ) ;
#1168 = CC_DESIGN_PERSON_AND_ORGANIZATION_ASSIGNMENT ( #181, #814, ( #1169 ) ) ;
#1169 = SECURITY_CLASSIFICATION ( '', '', #810 ) ;
#1170 = CC_DESIGN_PERSON_AND_ORGANIZATION_ASSIGNMENT ( #198, #834, ( #1172 ) ) ;
#1171 = CC_DESIGN_SECURITY_CLASSIFICATION ( #1169, ( #1172 ) ) ;
#1172 = PRODUCT_DEFINITION_FORMATION_WITH_SPECIFIED_SOURCE ( 'ANY', '', #1179, .NOT_KNOWN. ) ;
#1173 = CC_DESIGN_APPROVAL ( #1175, ( #1172 ) ) ;
#1174 = CC_DESIGN_DATE_AND_TIME_ASSIGNMENT ( #179, #811, ( #1140 ) ) ;
#1175 = APPROVAL ( #840, 'UNSPECIFIED' ) ;
#1176 = CC_DESIGN_DATE_AND_TIME_ASSIGNMENT ( #192, #819, ( #1169 ) ) ;
#1177 = CC_DESIGN_APPROVAL ( #1167, ( #1169 ) ) ;
#1178 = PRODUCT_RELATED_PRODUCT_CATEGORY ( 'detail', '', ( #1179 ) ) ;
#1179 = PRODUCT ( 'ALP3519', 'ALP3519', '', ( #837 ) ) ;
#1180 = PERSON ( 'UNSPECIFIED', 'UNSPECIFIED', 'UNSPECIFIED', ('UNSPECIFIED'), ('UNSPECIFIED'), ('UNSPECIFIED') ) ;
#1181 = UNCERTAINTY_MEASURE_WITH_UNIT (LENGTH_MEASURE( 1.000000000000000100E-005 ), #822, 'distance_accuracy_value', 'NONE');
#1182 = ADVANCED_BREP_SHAPE_REPRESENTATION ( 'ALP3519', ( #1183, #1138 ), #1149 ) ;
#1183 = MANIFOLD_SOLID_BREP ( 'Boss-Extrude3', #269 ) ;
ENDSEC;
END-ISO-10303-21;
