ISO-10303-21;
HEADER;
/* Generated by software containing ST-Developer
 * from STEP Tools, Inc. (www.steptools.com) 
 */

FILE_DESCRIPTION(
/* description */ (''),
/* implementation_level */ '2;1');

FILE_NAME(
/* name */ 'ALP4270.step',
/* time_stamp */ '2023-03-21T12:28:33+01:00',
/* author */ (''),
/* organization */ (''),
/* preprocessor_version */ 'ST-DEVELOPER v19.2',
/* originating_system */ 'Autodesk Translation Framework v11.17.0.187',

/* authorisation */ '');

FILE_SCHEMA (('AUTOMOTIVE_DESIGN { 1 0 10303 214 3 1 1 }'));
ENDSEC;

DATA;
#10=MECHANICAL_DESIGN_GEOMETRIC_PRESENTATION_REPRESENTATION('',(#15,#16,
#17),#1691);
#11=SHAPE_REPRESENTATION_RELATIONSHIP('SRR','None',#1698,#12);
#12=ADVANCED_BREP_SHAPE_REPRESENTATION('',(#13,#14),#1690);
#13=MANIFOLD_SOLID_BREP('Body1',#1034);
#14=MANIFOLD_SOLID_BREP('Body2',#1035);
#15=STYLED_ITEM('',(#1709),#1013);
#16=STYLED_ITEM('',(#1708),#13);
#17=STYLED_ITEM('',(#1708),#14);
#18=B_SPLINE_SURFACE_WITH_KNOTS('',3,1,((#1531,#1532),(#1533,#1534),(#1535,
#1536),(#1537,#1538)),.UNSPECIFIED.,.F.,.F.,.F.,(4,4),(2,2),(0.,1.),(0.,
240.),.UNSPECIFIED.);
#19=B_SPLINE_SURFACE_WITH_KNOTS('',3,1,((#1550,#1551),(#1552,#1553),(#1554,
#1555),(#1556,#1557)),.UNSPECIFIED.,.F.,.F.,.F.,(4,4),(2,2),(0.,1.),(0.,
240.),.UNSPECIFIED.);
#20=B_SPLINE_SURFACE_WITH_KNOTS('',3,1,((#1578,#1579),(#1580,#1581),(#1582,
#1583),(#1584,#1585)),.UNSPECIFIED.,.F.,.F.,.F.,(4,4),(2,2),(0.,1.),(0.,
240.),.UNSPECIFIED.);
#21=B_SPLINE_SURFACE_WITH_KNOTS('',3,1,((#1636,#1637),(#1638,#1639),(#1640,
#1641),(#1642,#1643),(#1644,#1645)),.UNSPECIFIED.,.F.,.F.,.F.,(4,1,4),(2,
2),(0.,0.497887471648944,1.),(0.,240.),.UNSPECIFIED.);
#22=CYLINDRICAL_SURFACE('',#1056,1.);
#23=CYLINDRICAL_SURFACE('',#1058,1.);
#24=FACE_BOUND('',#79,.T.);
#25=FACE_BOUND('',#81,.T.);
#26=FACE_OUTER_BOUND('',#78,.T.);
#27=FACE_OUTER_BOUND('',#80,.T.);
#28=FACE_OUTER_BOUND('',#82,.T.);
#29=FACE_OUTER_BOUND('',#83,.T.);
#30=FACE_OUTER_BOUND('',#84,.T.);
#31=FACE_OUTER_BOUND('',#85,.T.);
#32=FACE_OUTER_BOUND('',#86,.T.);
#33=FACE_OUTER_BOUND('',#87,.T.);
#34=FACE_OUTER_BOUND('',#88,.T.);
#35=FACE_OUTER_BOUND('',#89,.T.);
#36=FACE_OUTER_BOUND('',#90,.T.);
#37=FACE_OUTER_BOUND('',#91,.T.);
#38=FACE_OUTER_BOUND('',#92,.T.);
#39=FACE_OUTER_BOUND('',#93,.T.);
#40=FACE_OUTER_BOUND('',#94,.T.);
#41=FACE_OUTER_BOUND('',#95,.T.);
#42=FACE_OUTER_BOUND('',#96,.T.);
#43=FACE_OUTER_BOUND('',#97,.T.);
#44=FACE_OUTER_BOUND('',#98,.T.);
#45=FACE_OUTER_BOUND('',#99,.T.);
#46=FACE_OUTER_BOUND('',#100,.T.);
#47=FACE_OUTER_BOUND('',#101,.T.);
#48=FACE_OUTER_BOUND('',#102,.T.);
#49=FACE_OUTER_BOUND('',#103,.T.);
#50=FACE_OUTER_BOUND('',#104,.T.);
#51=FACE_OUTER_BOUND('',#105,.T.);
#52=FACE_OUTER_BOUND('',#106,.T.);
#53=FACE_OUTER_BOUND('',#107,.T.);
#54=FACE_OUTER_BOUND('',#108,.T.);
#55=FACE_OUTER_BOUND('',#109,.T.);
#56=FACE_OUTER_BOUND('',#110,.T.);
#57=FACE_OUTER_BOUND('',#111,.T.);
#58=FACE_OUTER_BOUND('',#112,.T.);
#59=FACE_OUTER_BOUND('',#113,.T.);
#60=FACE_OUTER_BOUND('',#114,.T.);
#61=FACE_OUTER_BOUND('',#115,.T.);
#62=FACE_OUTER_BOUND('',#116,.T.);
#63=FACE_OUTER_BOUND('',#117,.T.);
#64=FACE_OUTER_BOUND('',#118,.T.);
#65=FACE_OUTER_BOUND('',#119,.T.);
#66=FACE_OUTER_BOUND('',#120,.T.);
#67=FACE_OUTER_BOUND('',#121,.T.);
#68=FACE_OUTER_BOUND('',#122,.T.);
#69=FACE_OUTER_BOUND('',#123,.T.);
#70=FACE_OUTER_BOUND('',#124,.T.);
#71=FACE_OUTER_BOUND('',#125,.T.);
#72=FACE_OUTER_BOUND('',#126,.T.);
#73=FACE_OUTER_BOUND('',#127,.T.);
#74=FACE_OUTER_BOUND('',#128,.T.);
#75=FACE_OUTER_BOUND('',#129,.T.);
#76=FACE_OUTER_BOUND('',#130,.T.);
#77=FACE_OUTER_BOUND('',#131,.T.);
#78=EDGE_LOOP('',(#648,#649,#650,#651,#652,#653,#654,#655,#656,#657,#658,
#659,#660,#661,#662,#663,#664,#665,#666,#667,#668,#669,#670,#671,#672,#673,
#674,#675,#676,#677,#678));
#79=EDGE_LOOP('',(#679,#680,#681,#682));
#80=EDGE_LOOP('',(#683,#684,#685,#686,#687,#688,#689,#690,#691,#692,#693,
#694,#695,#696,#697,#698,#699,#700,#701,#702,#703,#704,#705,#706,#707,#708,
#709,#710,#711,#712,#713));
#81=EDGE_LOOP('',(#714,#715,#716,#717));
#82=EDGE_LOOP('',(#718,#719,#720,#721));
#83=EDGE_LOOP('',(#722,#723,#724,#725));
#84=EDGE_LOOP('',(#726,#727,#728,#729));
#85=EDGE_LOOP('',(#730,#731,#732,#733));
#86=EDGE_LOOP('',(#734,#735,#736,#737));
#87=EDGE_LOOP('',(#738,#739,#740,#741));
#88=EDGE_LOOP('',(#742,#743,#744,#745));
#89=EDGE_LOOP('',(#746,#747,#748,#749));
#90=EDGE_LOOP('',(#750,#751,#752,#753));
#91=EDGE_LOOP('',(#754,#755,#756,#757));
#92=EDGE_LOOP('',(#758,#759,#760,#761));
#93=EDGE_LOOP('',(#762,#763,#764,#765));
#94=EDGE_LOOP('',(#766,#767,#768,#769));
#95=EDGE_LOOP('',(#770,#771,#772,#773));
#96=EDGE_LOOP('',(#774,#775,#776,#777));
#97=EDGE_LOOP('',(#778,#779,#780,#781));
#98=EDGE_LOOP('',(#782,#783,#784,#785));
#99=EDGE_LOOP('',(#786,#787,#788,#789));
#100=EDGE_LOOP('',(#790,#791,#792,#793));
#101=EDGE_LOOP('',(#794,#795,#796,#797));
#102=EDGE_LOOP('',(#798,#799,#800,#801));
#103=EDGE_LOOP('',(#802,#803,#804,#805));
#104=EDGE_LOOP('',(#806,#807,#808,#809));
#105=EDGE_LOOP('',(#810,#811,#812,#813));
#106=EDGE_LOOP('',(#814,#815,#816,#817));
#107=EDGE_LOOP('',(#818,#819,#820,#821));
#108=EDGE_LOOP('',(#822,#823,#824,#825));
#109=EDGE_LOOP('',(#826,#827,#828,#829));
#110=EDGE_LOOP('',(#830,#831,#832,#833));
#111=EDGE_LOOP('',(#834,#835,#836,#837));
#112=EDGE_LOOP('',(#838,#839,#840,#841));
#113=EDGE_LOOP('',(#842,#843,#844,#845));
#114=EDGE_LOOP('',(#846,#847,#848,#849));
#115=EDGE_LOOP('',(#850,#851,#852,#853));
#116=EDGE_LOOP('',(#854,#855,#856,#857));
#117=EDGE_LOOP('',(#858,#859,#860,#861));
#118=EDGE_LOOP('',(#862,#863,#864,#865));
#119=EDGE_LOOP('',(#866,#867,#868,#869));
#120=EDGE_LOOP('',(#870,#871,#872,#873));
#121=EDGE_LOOP('',(#874,#875,#876,#877));
#122=EDGE_LOOP('',(#878,#879,#880,#881));
#123=EDGE_LOOP('',(#882,#883,#884,#885));
#124=EDGE_LOOP('',(#886,#887,#888,#889));
#125=EDGE_LOOP('',(#890,#891,#892,#893));
#126=EDGE_LOOP('',(#894,#895,#896,#897));
#127=EDGE_LOOP('',(#898,#899,#900,#901));
#128=EDGE_LOOP('',(#902,#903,#904,#905));
#129=EDGE_LOOP('',(#906,#907,#908,#909));
#130=EDGE_LOOP('',(#910,#911,#912,#913,#914,#915,#916,#917,#918,#919,#920,
#921,#922));
#131=EDGE_LOOP('',(#923,#924,#925,#926,#927,#928,#929,#930,#931,#932,#933,
#934,#935));
#132=B_SPLINE_CURVE_WITH_KNOTS('',3,(#1379,#1380,#1381,#1382),
 .UNSPECIFIED.,.F.,.F.,(4,4),(0.,1.),.UNSPECIFIED.);
#133=B_SPLINE_CURVE_WITH_KNOTS('',3,(#1394,#1395,#1396,#1397),
 .UNSPECIFIED.,.F.,.F.,(4,4),(0.,1.),.UNSPECIFIED.);
#134=B_SPLINE_CURVE_WITH_KNOTS('',3,(#1434,#1435,#1436,#1437),
 .UNSPECIFIED.,.F.,.F.,(4,4),(0.,1.),.UNSPECIFIED.);
#135=B_SPLINE_CURVE_WITH_KNOTS('',3,(#1449,#1450,#1451,#1452),
 .UNSPECIFIED.,.F.,.F.,(4,4),(0.,1.),.UNSPECIFIED.);
#136=B_SPLINE_CURVE_WITH_KNOTS('',3,(#1588,#1589,#1590,#1591),
 .UNSPECIFIED.,.F.,.F.,(4,4),(0.,1.),.UNSPECIFIED.);
#137=B_SPLINE_CURVE_WITH_KNOTS('',3,(#1595,#1596,#1597,#1598),
 .UNSPECIFIED.,.F.,.F.,(4,4),(0.,1.),.UNSPECIFIED.);
#138=B_SPLINE_CURVE_WITH_KNOTS('',3,(#1647,#1648,#1649,#1650,#1651),
 .UNSPECIFIED.,.F.,.F.,(4,1,4),(0.,0.497887471648944,1.),.UNSPECIFIED.);
#139=B_SPLINE_CURVE_WITH_KNOTS('',3,(#1654,#1655,#1656,#1657,#1658),
 .UNSPECIFIED.,.F.,.F.,(4,1,4),(0.,0.497887471648944,1.),.UNSPECIFIED.);
#140=CIRCLE('',#1050,1.);
#141=CIRCLE('',#1051,1.);
#142=CIRCLE('',#1053,1.);
#143=CIRCLE('',#1054,1.);
#144=LINE('',#1343,#276);
#145=LINE('',#1347,#277);
#146=LINE('',#1351,#278);
#147=LINE('',#1353,#279);
#148=LINE('',#1355,#280);
#149=LINE('',#1357,#281);
#150=LINE('',#1359,#282);
#151=LINE('',#1361,#283);
#152=LINE('',#1363,#284);
#153=LINE('',#1365,#285);
#154=LINE('',#1367,#286);
#155=LINE('',#1369,#287);
#156=LINE('',#1371,#288);
#157=LINE('',#1373,#289);
#158=LINE('',#1375,#290);
#159=LINE('',#1377,#291);
#160=LINE('',#1384,#292);
#161=LINE('',#1386,#293);
#162=LINE('',#1388,#294);
#163=LINE('',#1390,#295);
#164=LINE('',#1392,#296);
#165=LINE('',#1399,#297);
#166=LINE('',#1401,#298);
#167=LINE('',#1403,#299);
#168=LINE('',#1405,#300);
#169=LINE('',#1407,#301);
#170=LINE('',#1408,#302);
#171=LINE('',#1411,#303);
#172=LINE('',#1413,#304);
#173=LINE('',#1415,#305);
#174=LINE('',#1416,#306);
#175=LINE('',#1420,#307);
#176=LINE('',#1422,#308);
#177=LINE('',#1424,#309);
#178=LINE('',#1426,#310);
#179=LINE('',#1428,#311);
#180=LINE('',#1430,#312);
#181=LINE('',#1432,#313);
#182=LINE('',#1439,#314);
#183=LINE('',#1441,#315);
#184=LINE('',#1443,#316);
#185=LINE('',#1445,#317);
#186=LINE('',#1447,#318);
#187=LINE('',#1454,#319);
#188=LINE('',#1456,#320);
#189=LINE('',#1458,#321);
#190=LINE('',#1460,#322);
#191=LINE('',#1462,#323);
#192=LINE('',#1464,#324);
#193=LINE('',#1466,#325);
#194=LINE('',#1468,#326);
#195=LINE('',#1470,#327);
#196=LINE('',#1472,#328);
#197=LINE('',#1474,#329);
#198=LINE('',#1476,#330);
#199=LINE('',#1478,#331);
#200=LINE('',#1480,#332);
#201=LINE('',#1484,#333);
#202=LINE('',#1488,#334);
#203=LINE('',#1490,#335);
#204=LINE('',#1492,#336);
#205=LINE('',#1493,#337);
#206=LINE('',#1495,#338);
#207=LINE('',#1496,#339);
#208=LINE('',#1498,#340);
#209=LINE('',#1500,#341);
#210=LINE('',#1502,#342);
#211=LINE('',#1504,#343);
#212=LINE('',#1506,#344);
#213=LINE('',#1508,#345);
#214=LINE('',#1510,#346);
#215=LINE('',#1512,#347);
#216=LINE('',#1514,#348);
#217=LINE('',#1516,#349);
#218=LINE('',#1518,#350);
#219=LINE('',#1520,#351);
#220=LINE('',#1522,#352);
#221=LINE('',#1524,#353);
#222=LINE('',#1526,#354);
#223=LINE('',#1528,#355);
#224=LINE('',#1530,#356);
#225=LINE('',#1539,#357);
#226=LINE('',#1541,#358);
#227=LINE('',#1543,#359);
#228=LINE('',#1545,#360);
#229=LINE('',#1547,#361);
#230=LINE('',#1549,#362);
#231=LINE('',#1558,#363);
#232=LINE('',#1560,#364);
#233=LINE('',#1562,#365);
#234=LINE('',#1564,#366);
#235=LINE('',#1566,#367);
#236=LINE('',#1568,#368);
#237=LINE('',#1571,#369);
#238=LINE('',#1572,#370);
#239=LINE('',#1574,#371);
#240=LINE('',#1576,#372);
#241=LINE('',#1593,#373);
#242=LINE('',#1599,#374);
#243=LINE('',#1602,#375);
#244=LINE('',#1604,#376);
#245=LINE('',#1605,#377);
#246=LINE('',#1608,#378);
#247=LINE('',#1610,#379);
#248=LINE('',#1611,#380);
#249=LINE('',#1614,#381);
#250=LINE('',#1616,#382);
#251=LINE('',#1617,#383);
#252=LINE('',#1620,#384);
#253=LINE('',#1622,#385);
#254=LINE('',#1623,#386);
#255=LINE('',#1626,#387);
#256=LINE('',#1628,#388);
#257=LINE('',#1629,#389);
#258=LINE('',#1632,#390);
#259=LINE('',#1634,#391);
#260=LINE('',#1635,#392);
#261=LINE('',#1653,#393);
#262=LINE('',#1661,#394);
#263=LINE('',#1663,#395);
#264=LINE('',#1664,#396);
#265=LINE('',#1667,#397);
#266=LINE('',#1669,#398);
#267=LINE('',#1670,#399);
#268=LINE('',#1673,#400);
#269=LINE('',#1675,#401);
#270=LINE('',#1676,#402);
#271=LINE('',#1679,#403);
#272=LINE('',#1681,#404);
#273=LINE('',#1682,#405);
#274=LINE('',#1684,#406);
#275=LINE('',#1685,#407);
#276=VECTOR('',#1105,1000.);
#277=VECTOR('',#1108,1000.);
#278=VECTOR('',#1111,1000.);
#279=VECTOR('',#1112,1000.);
#280=VECTOR('',#1113,1000.);
#281=VECTOR('',#1114,1000.);
#282=VECTOR('',#1115,1000.);
#283=VECTOR('',#1116,1000.);
#284=VECTOR('',#1117,1000.);
#285=VECTOR('',#1118,1000.);
#286=VECTOR('',#1119,1000.);
#287=VECTOR('',#1120,1000.);
#288=VECTOR('',#1121,1000.);
#289=VECTOR('',#1122,1000.);
#290=VECTOR('',#1123,1000.);
#291=VECTOR('',#1124,1000.);
#292=VECTOR('',#1125,1000.);
#293=VECTOR('',#1126,1000.);
#294=VECTOR('',#1127,1000.);
#295=VECTOR('',#1128,1000.);
#296=VECTOR('',#1129,1000.);
#297=VECTOR('',#1130,1000.);
#298=VECTOR('',#1131,1000.);
#299=VECTOR('',#1132,1000.);
#300=VECTOR('',#1133,1000.);
#301=VECTOR('',#1134,1000.);
#302=VECTOR('',#1135,1000.);
#303=VECTOR('',#1136,1000.);
#304=VECTOR('',#1137,1000.);
#305=VECTOR('',#1138,1000.);
#306=VECTOR('',#1139,1000.);
#307=VECTOR('',#1142,1000.);
#308=VECTOR('',#1143,1000.);
#309=VECTOR('',#1144,1000.);
#310=VECTOR('',#1145,1000.);
#311=VECTOR('',#1146,1000.);
#312=VECTOR('',#1147,1000.);
#313=VECTOR('',#1148,1000.);
#314=VECTOR('',#1149,1000.);
#315=VECTOR('',#1150,1000.);
#316=VECTOR('',#1151,1000.);
#317=VECTOR('',#1152,1000.);
#318=VECTOR('',#1153,1000.);
#319=VECTOR('',#1154,1000.);
#320=VECTOR('',#1155,1000.);
#321=VECTOR('',#1156,1000.);
#322=VECTOR('',#1157,1000.);
#323=VECTOR('',#1158,1000.);
#324=VECTOR('',#1159,1000.);
#325=VECTOR('',#1160,1000.);
#326=VECTOR('',#1161,1000.);
#327=VECTOR('',#1162,1000.);
#328=VECTOR('',#1163,1000.);
#329=VECTOR('',#1164,1000.);
#330=VECTOR('',#1165,1000.);
#331=VECTOR('',#1166,1000.);
#332=VECTOR('',#1167,1000.);
#333=VECTOR('',#1170,1000.);
#334=VECTOR('',#1173,1000.);
#335=VECTOR('',#1174,1000.);
#336=VECTOR('',#1175,1000.);
#337=VECTOR('',#1176,1000.);
#338=VECTOR('',#1179,1000.);
#339=VECTOR('',#1180,1000.);
#340=VECTOR('',#1183,1000.);
#341=VECTOR('',#1186,1000.);
#342=VECTOR('',#1189,1000.);
#343=VECTOR('',#1192,1000.);
#344=VECTOR('',#1195,1000.);
#345=VECTOR('',#1198,1000.);
#346=VECTOR('',#1201,1000.);
#347=VECTOR('',#1204,1000.);
#348=VECTOR('',#1207,1000.);
#349=VECTOR('',#1210,1000.);
#350=VECTOR('',#1213,1000.);
#351=VECTOR('',#1216,1000.);
#352=VECTOR('',#1219,1000.);
#353=VECTOR('',#1222,1000.);
#354=VECTOR('',#1225,1000.);
#355=VECTOR('',#1228,1000.);
#356=VECTOR('',#1231,1000.);
#357=VECTOR('',#1232,1000.);
#358=VECTOR('',#1235,1000.);
#359=VECTOR('',#1238,1000.);
#360=VECTOR('',#1241,1000.);
#361=VECTOR('',#1244,1000.);
#362=VECTOR('',#1247,1000.);
#363=VECTOR('',#1248,1000.);
#364=VECTOR('',#1251,1000.);
#365=VECTOR('',#1254,1000.);
#366=VECTOR('',#1257,1000.);
#367=VECTOR('',#1260,1000.);
#368=VECTOR('',#1263,1000.);
#369=VECTOR('',#1268,1000.);
#370=VECTOR('',#1269,1000.);
#371=VECTOR('',#1272,1000.);
#372=VECTOR('',#1275,1000.);
#373=VECTOR('',#1278,1000.);
#374=VECTOR('',#1279,1000.);
#375=VECTOR('',#1282,1000.);
#376=VECTOR('',#1283,1000.);
#377=VECTOR('',#1284,1000.);
#378=VECTOR('',#1287,1000.);
#379=VECTOR('',#1288,1000.);
#380=VECTOR('',#1289,1000.);
#381=VECTOR('',#1292,1000.);
#382=VECTOR('',#1293,1000.);
#383=VECTOR('',#1294,1000.);
#384=VECTOR('',#1297,1000.);
#385=VECTOR('',#1298,1000.);
#386=VECTOR('',#1299,1000.);
#387=VECTOR('',#1302,1000.);
#388=VECTOR('',#1303,1000.);
#389=VECTOR('',#1304,1000.);
#390=VECTOR('',#1307,1000.);
#391=VECTOR('',#1308,1000.);
#392=VECTOR('',#1309,1000.);
#393=VECTOR('',#1310,1000.);
#394=VECTOR('',#1313,1000.);
#395=VECTOR('',#1314,1000.);
#396=VECTOR('',#1315,1000.);
#397=VECTOR('',#1318,1000.);
#398=VECTOR('',#1319,1000.);
#399=VECTOR('',#1320,1000.);
#400=VECTOR('',#1323,1000.);
#401=VECTOR('',#1324,1000.);
#402=VECTOR('',#1325,1000.);
#403=VECTOR('',#1328,1000.);
#404=VECTOR('',#1329,1000.);
#405=VECTOR('',#1330,1000.);
#406=VECTOR('',#1333,1000.);
#407=VECTOR('',#1334,1000.);
#408=VERTEX_POINT('',#1341);
#409=VERTEX_POINT('',#1342);
#410=VERTEX_POINT('',#1344);
#411=VERTEX_POINT('',#1346);
#412=VERTEX_POINT('',#1348);
#413=VERTEX_POINT('',#1350);
#414=VERTEX_POINT('',#1352);
#415=VERTEX_POINT('',#1354);
#416=VERTEX_POINT('',#1356);
#417=VERTEX_POINT('',#1358);
#418=VERTEX_POINT('',#1360);
#419=VERTEX_POINT('',#1362);
#420=VERTEX_POINT('',#1364);
#421=VERTEX_POINT('',#1366);
#422=VERTEX_POINT('',#1368);
#423=VERTEX_POINT('',#1370);
#424=VERTEX_POINT('',#1372);
#425=VERTEX_POINT('',#1374);
#426=VERTEX_POINT('',#1376);
#427=VERTEX_POINT('',#1378);
#428=VERTEX_POINT('',#1383);
#429=VERTEX_POINT('',#1385);
#430=VERTEX_POINT('',#1387);
#431=VERTEX_POINT('',#1389);
#432=VERTEX_POINT('',#1391);
#433=VERTEX_POINT('',#1393);
#434=VERTEX_POINT('',#1398);
#435=VERTEX_POINT('',#1400);
#436=VERTEX_POINT('',#1402);
#437=VERTEX_POINT('',#1404);
#438=VERTEX_POINT('',#1406);
#439=VERTEX_POINT('',#1409);
#440=VERTEX_POINT('',#1410);
#441=VERTEX_POINT('',#1412);
#442=VERTEX_POINT('',#1414);
#443=VERTEX_POINT('',#1418);
#444=VERTEX_POINT('',#1419);
#445=VERTEX_POINT('',#1421);
#446=VERTEX_POINT('',#1423);
#447=VERTEX_POINT('',#1425);
#448=VERTEX_POINT('',#1427);
#449=VERTEX_POINT('',#1429);
#450=VERTEX_POINT('',#1431);
#451=VERTEX_POINT('',#1433);
#452=VERTEX_POINT('',#1438);
#453=VERTEX_POINT('',#1440);
#454=VERTEX_POINT('',#1442);
#455=VERTEX_POINT('',#1444);
#456=VERTEX_POINT('',#1446);
#457=VERTEX_POINT('',#1448);
#458=VERTEX_POINT('',#1453);
#459=VERTEX_POINT('',#1455);
#460=VERTEX_POINT('',#1457);
#461=VERTEX_POINT('',#1459);
#462=VERTEX_POINT('',#1461);
#463=VERTEX_POINT('',#1463);
#464=VERTEX_POINT('',#1465);
#465=VERTEX_POINT('',#1467);
#466=VERTEX_POINT('',#1469);
#467=VERTEX_POINT('',#1471);
#468=VERTEX_POINT('',#1473);
#469=VERTEX_POINT('',#1475);
#470=VERTEX_POINT('',#1477);
#471=VERTEX_POINT('',#1479);
#472=VERTEX_POINT('',#1481);
#473=VERTEX_POINT('',#1483);
#474=VERTEX_POINT('',#1486);
#475=VERTEX_POINT('',#1487);
#476=VERTEX_POINT('',#1489);
#477=VERTEX_POINT('',#1491);
#478=VERTEX_POINT('',#1586);
#479=VERTEX_POINT('',#1587);
#480=VERTEX_POINT('',#1592);
#481=VERTEX_POINT('',#1594);
#482=VERTEX_POINT('',#1601);
#483=VERTEX_POINT('',#1603);
#484=VERTEX_POINT('',#1607);
#485=VERTEX_POINT('',#1609);
#486=VERTEX_POINT('',#1613);
#487=VERTEX_POINT('',#1615);
#488=VERTEX_POINT('',#1619);
#489=VERTEX_POINT('',#1621);
#490=VERTEX_POINT('',#1625);
#491=VERTEX_POINT('',#1627);
#492=VERTEX_POINT('',#1631);
#493=VERTEX_POINT('',#1633);
#494=VERTEX_POINT('',#1646);
#495=VERTEX_POINT('',#1652);
#496=VERTEX_POINT('',#1660);
#497=VERTEX_POINT('',#1662);
#498=VERTEX_POINT('',#1666);
#499=VERTEX_POINT('',#1668);
#500=VERTEX_POINT('',#1672);
#501=VERTEX_POINT('',#1674);
#502=VERTEX_POINT('',#1678);
#503=VERTEX_POINT('',#1680);
#504=EDGE_CURVE('',#408,#409,#144,.T.);
#505=EDGE_CURVE('',#409,#410,#140,.T.);
#506=EDGE_CURVE('',#410,#411,#145,.T.);
#507=EDGE_CURVE('',#411,#412,#141,.T.);
#508=EDGE_CURVE('',#412,#413,#146,.T.);
#509=EDGE_CURVE('',#413,#414,#147,.T.);
#510=EDGE_CURVE('',#414,#415,#148,.T.);
#511=EDGE_CURVE('',#415,#416,#149,.T.);
#512=EDGE_CURVE('',#416,#417,#150,.T.);
#513=EDGE_CURVE('',#417,#418,#151,.T.);
#514=EDGE_CURVE('',#418,#419,#152,.T.);
#515=EDGE_CURVE('',#419,#420,#153,.T.);
#516=EDGE_CURVE('',#420,#421,#154,.T.);
#517=EDGE_CURVE('',#421,#422,#155,.T.);
#518=EDGE_CURVE('',#422,#423,#156,.T.);
#519=EDGE_CURVE('',#423,#424,#157,.T.);
#520=EDGE_CURVE('',#424,#425,#158,.T.);
#521=EDGE_CURVE('',#425,#426,#159,.T.);
#522=EDGE_CURVE('',#426,#427,#132,.T.);
#523=EDGE_CURVE('',#427,#428,#160,.T.);
#524=EDGE_CURVE('',#428,#429,#161,.T.);
#525=EDGE_CURVE('',#429,#430,#162,.T.);
#526=EDGE_CURVE('',#430,#431,#163,.T.);
#527=EDGE_CURVE('',#431,#432,#164,.T.);
#528=EDGE_CURVE('',#432,#433,#133,.T.);
#529=EDGE_CURVE('',#433,#434,#165,.T.);
#530=EDGE_CURVE('',#434,#435,#166,.T.);
#531=EDGE_CURVE('',#435,#436,#167,.T.);
#532=EDGE_CURVE('',#436,#437,#168,.T.);
#533=EDGE_CURVE('',#437,#438,#169,.T.);
#534=EDGE_CURVE('',#438,#408,#170,.T.);
#535=EDGE_CURVE('',#439,#440,#171,.T.);
#536=EDGE_CURVE('',#441,#439,#172,.T.);
#537=EDGE_CURVE('',#442,#441,#173,.T.);
#538=EDGE_CURVE('',#440,#442,#174,.T.);
#539=EDGE_CURVE('',#443,#444,#175,.T.);
#540=EDGE_CURVE('',#445,#443,#176,.T.);
#541=EDGE_CURVE('',#446,#445,#177,.T.);
#542=EDGE_CURVE('',#447,#446,#178,.T.);
#543=EDGE_CURVE('',#448,#447,#179,.T.);
#544=EDGE_CURVE('',#449,#448,#180,.T.);
#545=EDGE_CURVE('',#450,#449,#181,.T.);
#546=EDGE_CURVE('',#451,#450,#134,.T.);
#547=EDGE_CURVE('',#452,#451,#182,.T.);
#548=EDGE_CURVE('',#453,#452,#183,.T.);
#549=EDGE_CURVE('',#454,#453,#184,.T.);
#550=EDGE_CURVE('',#455,#454,#185,.T.);
#551=EDGE_CURVE('',#456,#455,#186,.T.);
#552=EDGE_CURVE('',#457,#456,#135,.T.);
#553=EDGE_CURVE('',#458,#457,#187,.T.);
#554=EDGE_CURVE('',#459,#458,#188,.T.);
#555=EDGE_CURVE('',#460,#459,#189,.T.);
#556=EDGE_CURVE('',#461,#460,#190,.T.);
#557=EDGE_CURVE('',#462,#461,#191,.T.);
#558=EDGE_CURVE('',#463,#462,#192,.T.);
#559=EDGE_CURVE('',#464,#463,#193,.T.);
#560=EDGE_CURVE('',#465,#464,#194,.T.);
#561=EDGE_CURVE('',#466,#465,#195,.T.);
#562=EDGE_CURVE('',#467,#466,#196,.T.);
#563=EDGE_CURVE('',#468,#467,#197,.T.);
#564=EDGE_CURVE('',#469,#468,#198,.T.);
#565=EDGE_CURVE('',#470,#469,#199,.T.);
#566=EDGE_CURVE('',#471,#470,#200,.T.);
#567=EDGE_CURVE('',#472,#471,#142,.T.);
#568=EDGE_CURVE('',#473,#472,#201,.T.);
#569=EDGE_CURVE('',#444,#473,#143,.T.);
#570=EDGE_CURVE('',#474,#475,#202,.T.);
#571=EDGE_CURVE('',#475,#476,#203,.T.);
#572=EDGE_CURVE('',#476,#477,#204,.T.);
#573=EDGE_CURVE('',#477,#474,#205,.T.);
#574=EDGE_CURVE('',#409,#444,#206,.T.);
#575=EDGE_CURVE('',#408,#443,#207,.T.);
#576=EDGE_CURVE('',#410,#473,#208,.T.);
#577=EDGE_CURVE('',#411,#472,#209,.T.);
#578=EDGE_CURVE('',#412,#471,#210,.T.);
#579=EDGE_CURVE('',#413,#470,#211,.T.);
#580=EDGE_CURVE('',#414,#469,#212,.T.);
#581=EDGE_CURVE('',#415,#468,#213,.T.);
#582=EDGE_CURVE('',#416,#467,#214,.T.);
#583=EDGE_CURVE('',#417,#466,#215,.T.);
#584=EDGE_CURVE('',#418,#465,#216,.T.);
#585=EDGE_CURVE('',#419,#464,#217,.T.);
#586=EDGE_CURVE('',#420,#463,#218,.T.);
#587=EDGE_CURVE('',#421,#462,#219,.T.);
#588=EDGE_CURVE('',#422,#461,#220,.T.);
#589=EDGE_CURVE('',#423,#460,#221,.T.);
#590=EDGE_CURVE('',#424,#459,#222,.T.);
#591=EDGE_CURVE('',#425,#458,#223,.T.);
#592=EDGE_CURVE('',#426,#457,#224,.T.);
#593=EDGE_CURVE('',#427,#456,#225,.T.);
#594=EDGE_CURVE('',#428,#455,#226,.T.);
#595=EDGE_CURVE('',#429,#454,#227,.T.);
#596=EDGE_CURVE('',#430,#453,#228,.T.);
#597=EDGE_CURVE('',#431,#452,#229,.T.);
#598=EDGE_CURVE('',#432,#451,#230,.T.);
#599=EDGE_CURVE('',#433,#450,#231,.T.);
#600=EDGE_CURVE('',#434,#449,#232,.T.);
#601=EDGE_CURVE('',#435,#448,#233,.T.);
#602=EDGE_CURVE('',#436,#447,#234,.T.);
#603=EDGE_CURVE('',#437,#446,#235,.T.);
#604=EDGE_CURVE('',#438,#445,#236,.T.);
#605=EDGE_CURVE('',#439,#475,#237,.T.);
#606=EDGE_CURVE('',#440,#476,#238,.T.);
#607=EDGE_CURVE('',#442,#477,#239,.T.);
#608=EDGE_CURVE('',#441,#474,#240,.T.);
#609=EDGE_CURVE('',#478,#479,#136,.T.);
#610=EDGE_CURVE('',#480,#479,#241,.T.);
#611=EDGE_CURVE('',#481,#480,#137,.T.);
#612=EDGE_CURVE('',#481,#478,#242,.T.);
#613=EDGE_CURVE('',#479,#482,#243,.T.);
#614=EDGE_CURVE('',#483,#482,#244,.T.);
#615=EDGE_CURVE('',#480,#483,#245,.T.);
#616=EDGE_CURVE('',#482,#484,#246,.T.);
#617=EDGE_CURVE('',#485,#484,#247,.T.);
#618=EDGE_CURVE('',#483,#485,#248,.T.);
#619=EDGE_CURVE('',#484,#486,#249,.T.);
#620=EDGE_CURVE('',#487,#486,#250,.T.);
#621=EDGE_CURVE('',#485,#487,#251,.T.);
#622=EDGE_CURVE('',#486,#488,#252,.T.);
#623=EDGE_CURVE('',#489,#488,#253,.T.);
#624=EDGE_CURVE('',#487,#489,#254,.T.);
#625=EDGE_CURVE('',#488,#490,#255,.T.);
#626=EDGE_CURVE('',#491,#490,#256,.T.);
#627=EDGE_CURVE('',#489,#491,#257,.T.);
#628=EDGE_CURVE('',#490,#492,#258,.T.);
#629=EDGE_CURVE('',#493,#492,#259,.T.);
#630=EDGE_CURVE('',#491,#493,#260,.T.);
#631=EDGE_CURVE('',#492,#494,#138,.T.);
#632=EDGE_CURVE('',#495,#494,#261,.T.);
#633=EDGE_CURVE('',#493,#495,#139,.T.);
#634=EDGE_CURVE('',#494,#496,#262,.T.);
#635=EDGE_CURVE('',#497,#496,#263,.T.);
#636=EDGE_CURVE('',#495,#497,#264,.T.);
#637=EDGE_CURVE('',#496,#498,#265,.T.);
#638=EDGE_CURVE('',#499,#498,#266,.T.);
#639=EDGE_CURVE('',#497,#499,#267,.T.);
#640=EDGE_CURVE('',#498,#500,#268,.T.);
#641=EDGE_CURVE('',#501,#500,#269,.T.);
#642=EDGE_CURVE('',#499,#501,#270,.T.);
#643=EDGE_CURVE('',#500,#502,#271,.T.);
#644=EDGE_CURVE('',#503,#502,#272,.T.);
#645=EDGE_CURVE('',#501,#503,#273,.T.);
#646=EDGE_CURVE('',#502,#478,#274,.T.);
#647=EDGE_CURVE('',#503,#481,#275,.T.);
#648=ORIENTED_EDGE('',*,*,#504,.T.);
#649=ORIENTED_EDGE('',*,*,#505,.T.);
#650=ORIENTED_EDGE('',*,*,#506,.T.);
#651=ORIENTED_EDGE('',*,*,#507,.T.);
#652=ORIENTED_EDGE('',*,*,#508,.T.);
#653=ORIENTED_EDGE('',*,*,#509,.T.);
#654=ORIENTED_EDGE('',*,*,#510,.T.);
#655=ORIENTED_EDGE('',*,*,#511,.T.);
#656=ORIENTED_EDGE('',*,*,#512,.T.);
#657=ORIENTED_EDGE('',*,*,#513,.T.);
#658=ORIENTED_EDGE('',*,*,#514,.T.);
#659=ORIENTED_EDGE('',*,*,#515,.T.);
#660=ORIENTED_EDGE('',*,*,#516,.T.);
#661=ORIENTED_EDGE('',*,*,#517,.T.);
#662=ORIENTED_EDGE('',*,*,#518,.T.);
#663=ORIENTED_EDGE('',*,*,#519,.T.);
#664=ORIENTED_EDGE('',*,*,#520,.T.);
#665=ORIENTED_EDGE('',*,*,#521,.T.);
#666=ORIENTED_EDGE('',*,*,#522,.T.);
#667=ORIENTED_EDGE('',*,*,#523,.T.);
#668=ORIENTED_EDGE('',*,*,#524,.T.);
#669=ORIENTED_EDGE('',*,*,#525,.T.);
#670=ORIENTED_EDGE('',*,*,#526,.T.);
#671=ORIENTED_EDGE('',*,*,#527,.T.);
#672=ORIENTED_EDGE('',*,*,#528,.T.);
#673=ORIENTED_EDGE('',*,*,#529,.T.);
#674=ORIENTED_EDGE('',*,*,#530,.T.);
#675=ORIENTED_EDGE('',*,*,#531,.T.);
#676=ORIENTED_EDGE('',*,*,#532,.T.);
#677=ORIENTED_EDGE('',*,*,#533,.T.);
#678=ORIENTED_EDGE('',*,*,#534,.T.);
#679=ORIENTED_EDGE('',*,*,#535,.F.);
#680=ORIENTED_EDGE('',*,*,#536,.F.);
#681=ORIENTED_EDGE('',*,*,#537,.F.);
#682=ORIENTED_EDGE('',*,*,#538,.F.);
#683=ORIENTED_EDGE('',*,*,#539,.F.);
#684=ORIENTED_EDGE('',*,*,#540,.F.);
#685=ORIENTED_EDGE('',*,*,#541,.F.);
#686=ORIENTED_EDGE('',*,*,#542,.F.);
#687=ORIENTED_EDGE('',*,*,#543,.F.);
#688=ORIENTED_EDGE('',*,*,#544,.F.);
#689=ORIENTED_EDGE('',*,*,#545,.F.);
#690=ORIENTED_EDGE('',*,*,#546,.F.);
#691=ORIENTED_EDGE('',*,*,#547,.F.);
#692=ORIENTED_EDGE('',*,*,#548,.F.);
#693=ORIENTED_EDGE('',*,*,#549,.F.);
#694=ORIENTED_EDGE('',*,*,#550,.F.);
#695=ORIENTED_EDGE('',*,*,#551,.F.);
#696=ORIENTED_EDGE('',*,*,#552,.F.);
#697=ORIENTED_EDGE('',*,*,#553,.F.);
#698=ORIENTED_EDGE('',*,*,#554,.F.);
#699=ORIENTED_EDGE('',*,*,#555,.F.);
#700=ORIENTED_EDGE('',*,*,#556,.F.);
#701=ORIENTED_EDGE('',*,*,#557,.F.);
#702=ORIENTED_EDGE('',*,*,#558,.F.);
#703=ORIENTED_EDGE('',*,*,#559,.F.);
#704=ORIENTED_EDGE('',*,*,#560,.F.);
#705=ORIENTED_EDGE('',*,*,#561,.F.);
#706=ORIENTED_EDGE('',*,*,#562,.F.);
#707=ORIENTED_EDGE('',*,*,#563,.F.);
#708=ORIENTED_EDGE('',*,*,#564,.F.);
#709=ORIENTED_EDGE('',*,*,#565,.F.);
#710=ORIENTED_EDGE('',*,*,#566,.F.);
#711=ORIENTED_EDGE('',*,*,#567,.F.);
#712=ORIENTED_EDGE('',*,*,#568,.F.);
#713=ORIENTED_EDGE('',*,*,#569,.F.);
#714=ORIENTED_EDGE('',*,*,#570,.T.);
#715=ORIENTED_EDGE('',*,*,#571,.T.);
#716=ORIENTED_EDGE('',*,*,#572,.T.);
#717=ORIENTED_EDGE('',*,*,#573,.T.);
#718=ORIENTED_EDGE('',*,*,#539,.T.);
#719=ORIENTED_EDGE('',*,*,#574,.F.);
#720=ORIENTED_EDGE('',*,*,#504,.F.);
#721=ORIENTED_EDGE('',*,*,#575,.T.);
#722=ORIENTED_EDGE('',*,*,#569,.T.);
#723=ORIENTED_EDGE('',*,*,#576,.F.);
#724=ORIENTED_EDGE('',*,*,#505,.F.);
#725=ORIENTED_EDGE('',*,*,#574,.T.);
#726=ORIENTED_EDGE('',*,*,#568,.T.);
#727=ORIENTED_EDGE('',*,*,#577,.F.);
#728=ORIENTED_EDGE('',*,*,#506,.F.);
#729=ORIENTED_EDGE('',*,*,#576,.T.);
#730=ORIENTED_EDGE('',*,*,#567,.T.);
#731=ORIENTED_EDGE('',*,*,#578,.F.);
#732=ORIENTED_EDGE('',*,*,#507,.F.);
#733=ORIENTED_EDGE('',*,*,#577,.T.);
#734=ORIENTED_EDGE('',*,*,#566,.T.);
#735=ORIENTED_EDGE('',*,*,#579,.F.);
#736=ORIENTED_EDGE('',*,*,#508,.F.);
#737=ORIENTED_EDGE('',*,*,#578,.T.);
#738=ORIENTED_EDGE('',*,*,#565,.T.);
#739=ORIENTED_EDGE('',*,*,#580,.F.);
#740=ORIENTED_EDGE('',*,*,#509,.F.);
#741=ORIENTED_EDGE('',*,*,#579,.T.);
#742=ORIENTED_EDGE('',*,*,#564,.T.);
#743=ORIENTED_EDGE('',*,*,#581,.F.);
#744=ORIENTED_EDGE('',*,*,#510,.F.);
#745=ORIENTED_EDGE('',*,*,#580,.T.);
#746=ORIENTED_EDGE('',*,*,#563,.T.);
#747=ORIENTED_EDGE('',*,*,#582,.F.);
#748=ORIENTED_EDGE('',*,*,#511,.F.);
#749=ORIENTED_EDGE('',*,*,#581,.T.);
#750=ORIENTED_EDGE('',*,*,#562,.T.);
#751=ORIENTED_EDGE('',*,*,#583,.F.);
#752=ORIENTED_EDGE('',*,*,#512,.F.);
#753=ORIENTED_EDGE('',*,*,#582,.T.);
#754=ORIENTED_EDGE('',*,*,#561,.T.);
#755=ORIENTED_EDGE('',*,*,#584,.F.);
#756=ORIENTED_EDGE('',*,*,#513,.F.);
#757=ORIENTED_EDGE('',*,*,#583,.T.);
#758=ORIENTED_EDGE('',*,*,#560,.T.);
#759=ORIENTED_EDGE('',*,*,#585,.F.);
#760=ORIENTED_EDGE('',*,*,#514,.F.);
#761=ORIENTED_EDGE('',*,*,#584,.T.);
#762=ORIENTED_EDGE('',*,*,#559,.T.);
#763=ORIENTED_EDGE('',*,*,#586,.F.);
#764=ORIENTED_EDGE('',*,*,#515,.F.);
#765=ORIENTED_EDGE('',*,*,#585,.T.);
#766=ORIENTED_EDGE('',*,*,#558,.T.);
#767=ORIENTED_EDGE('',*,*,#587,.F.);
#768=ORIENTED_EDGE('',*,*,#516,.F.);
#769=ORIENTED_EDGE('',*,*,#586,.T.);
#770=ORIENTED_EDGE('',*,*,#557,.T.);
#771=ORIENTED_EDGE('',*,*,#588,.F.);
#772=ORIENTED_EDGE('',*,*,#517,.F.);
#773=ORIENTED_EDGE('',*,*,#587,.T.);
#774=ORIENTED_EDGE('',*,*,#556,.T.);
#775=ORIENTED_EDGE('',*,*,#589,.F.);
#776=ORIENTED_EDGE('',*,*,#518,.F.);
#777=ORIENTED_EDGE('',*,*,#588,.T.);
#778=ORIENTED_EDGE('',*,*,#555,.T.);
#779=ORIENTED_EDGE('',*,*,#590,.F.);
#780=ORIENTED_EDGE('',*,*,#519,.F.);
#781=ORIENTED_EDGE('',*,*,#589,.T.);
#782=ORIENTED_EDGE('',*,*,#554,.T.);
#783=ORIENTED_EDGE('',*,*,#591,.F.);
#784=ORIENTED_EDGE('',*,*,#520,.F.);
#785=ORIENTED_EDGE('',*,*,#590,.T.);
#786=ORIENTED_EDGE('',*,*,#553,.T.);
#787=ORIENTED_EDGE('',*,*,#592,.F.);
#788=ORIENTED_EDGE('',*,*,#521,.F.);
#789=ORIENTED_EDGE('',*,*,#591,.T.);
#790=ORIENTED_EDGE('',*,*,#552,.T.);
#791=ORIENTED_EDGE('',*,*,#593,.F.);
#792=ORIENTED_EDGE('',*,*,#522,.F.);
#793=ORIENTED_EDGE('',*,*,#592,.T.);
#794=ORIENTED_EDGE('',*,*,#551,.T.);
#795=ORIENTED_EDGE('',*,*,#594,.F.);
#796=ORIENTED_EDGE('',*,*,#523,.F.);
#797=ORIENTED_EDGE('',*,*,#593,.T.);
#798=ORIENTED_EDGE('',*,*,#550,.T.);
#799=ORIENTED_EDGE('',*,*,#595,.F.);
#800=ORIENTED_EDGE('',*,*,#524,.F.);
#801=ORIENTED_EDGE('',*,*,#594,.T.);
#802=ORIENTED_EDGE('',*,*,#549,.T.);
#803=ORIENTED_EDGE('',*,*,#596,.F.);
#804=ORIENTED_EDGE('',*,*,#525,.F.);
#805=ORIENTED_EDGE('',*,*,#595,.T.);
#806=ORIENTED_EDGE('',*,*,#548,.T.);
#807=ORIENTED_EDGE('',*,*,#597,.F.);
#808=ORIENTED_EDGE('',*,*,#526,.F.);
#809=ORIENTED_EDGE('',*,*,#596,.T.);
#810=ORIENTED_EDGE('',*,*,#547,.T.);
#811=ORIENTED_EDGE('',*,*,#598,.F.);
#812=ORIENTED_EDGE('',*,*,#527,.F.);
#813=ORIENTED_EDGE('',*,*,#597,.T.);
#814=ORIENTED_EDGE('',*,*,#546,.T.);
#815=ORIENTED_EDGE('',*,*,#599,.F.);
#816=ORIENTED_EDGE('',*,*,#528,.F.);
#817=ORIENTED_EDGE('',*,*,#598,.T.);
#818=ORIENTED_EDGE('',*,*,#545,.T.);
#819=ORIENTED_EDGE('',*,*,#600,.F.);
#820=ORIENTED_EDGE('',*,*,#529,.F.);
#821=ORIENTED_EDGE('',*,*,#599,.T.);
#822=ORIENTED_EDGE('',*,*,#544,.T.);
#823=ORIENTED_EDGE('',*,*,#601,.F.);
#824=ORIENTED_EDGE('',*,*,#530,.F.);
#825=ORIENTED_EDGE('',*,*,#600,.T.);
#826=ORIENTED_EDGE('',*,*,#543,.T.);
#827=ORIENTED_EDGE('',*,*,#602,.F.);
#828=ORIENTED_EDGE('',*,*,#531,.F.);
#829=ORIENTED_EDGE('',*,*,#601,.T.);
#830=ORIENTED_EDGE('',*,*,#542,.T.);
#831=ORIENTED_EDGE('',*,*,#603,.F.);
#832=ORIENTED_EDGE('',*,*,#532,.F.);
#833=ORIENTED_EDGE('',*,*,#602,.T.);
#834=ORIENTED_EDGE('',*,*,#541,.T.);
#835=ORIENTED_EDGE('',*,*,#604,.F.);
#836=ORIENTED_EDGE('',*,*,#533,.F.);
#837=ORIENTED_EDGE('',*,*,#603,.T.);
#838=ORIENTED_EDGE('',*,*,#540,.T.);
#839=ORIENTED_EDGE('',*,*,#575,.F.);
#840=ORIENTED_EDGE('',*,*,#534,.F.);
#841=ORIENTED_EDGE('',*,*,#604,.T.);
#842=ORIENTED_EDGE('',*,*,#571,.F.);
#843=ORIENTED_EDGE('',*,*,#605,.F.);
#844=ORIENTED_EDGE('',*,*,#535,.T.);
#845=ORIENTED_EDGE('',*,*,#606,.T.);
#846=ORIENTED_EDGE('',*,*,#572,.F.);
#847=ORIENTED_EDGE('',*,*,#606,.F.);
#848=ORIENTED_EDGE('',*,*,#538,.T.);
#849=ORIENTED_EDGE('',*,*,#607,.T.);
#850=ORIENTED_EDGE('',*,*,#573,.F.);
#851=ORIENTED_EDGE('',*,*,#607,.F.);
#852=ORIENTED_EDGE('',*,*,#537,.T.);
#853=ORIENTED_EDGE('',*,*,#608,.T.);
#854=ORIENTED_EDGE('',*,*,#570,.F.);
#855=ORIENTED_EDGE('',*,*,#608,.F.);
#856=ORIENTED_EDGE('',*,*,#536,.T.);
#857=ORIENTED_EDGE('',*,*,#605,.T.);
#858=ORIENTED_EDGE('',*,*,#609,.T.);
#859=ORIENTED_EDGE('',*,*,#610,.F.);
#860=ORIENTED_EDGE('',*,*,#611,.F.);
#861=ORIENTED_EDGE('',*,*,#612,.T.);
#862=ORIENTED_EDGE('',*,*,#613,.T.);
#863=ORIENTED_EDGE('',*,*,#614,.F.);
#864=ORIENTED_EDGE('',*,*,#615,.F.);
#865=ORIENTED_EDGE('',*,*,#610,.T.);
#866=ORIENTED_EDGE('',*,*,#616,.T.);
#867=ORIENTED_EDGE('',*,*,#617,.F.);
#868=ORIENTED_EDGE('',*,*,#618,.F.);
#869=ORIENTED_EDGE('',*,*,#614,.T.);
#870=ORIENTED_EDGE('',*,*,#619,.T.);
#871=ORIENTED_EDGE('',*,*,#620,.F.);
#872=ORIENTED_EDGE('',*,*,#621,.F.);
#873=ORIENTED_EDGE('',*,*,#617,.T.);
#874=ORIENTED_EDGE('',*,*,#622,.T.);
#875=ORIENTED_EDGE('',*,*,#623,.F.);
#876=ORIENTED_EDGE('',*,*,#624,.F.);
#877=ORIENTED_EDGE('',*,*,#620,.T.);
#878=ORIENTED_EDGE('',*,*,#625,.T.);
#879=ORIENTED_EDGE('',*,*,#626,.F.);
#880=ORIENTED_EDGE('',*,*,#627,.F.);
#881=ORIENTED_EDGE('',*,*,#623,.T.);
#882=ORIENTED_EDGE('',*,*,#628,.T.);
#883=ORIENTED_EDGE('',*,*,#629,.F.);
#884=ORIENTED_EDGE('',*,*,#630,.F.);
#885=ORIENTED_EDGE('',*,*,#626,.T.);
#886=ORIENTED_EDGE('',*,*,#631,.T.);
#887=ORIENTED_EDGE('',*,*,#632,.F.);
#888=ORIENTED_EDGE('',*,*,#633,.F.);
#889=ORIENTED_EDGE('',*,*,#629,.T.);
#890=ORIENTED_EDGE('',*,*,#634,.T.);
#891=ORIENTED_EDGE('',*,*,#635,.F.);
#892=ORIENTED_EDGE('',*,*,#636,.F.);
#893=ORIENTED_EDGE('',*,*,#632,.T.);
#894=ORIENTED_EDGE('',*,*,#637,.T.);
#895=ORIENTED_EDGE('',*,*,#638,.F.);
#896=ORIENTED_EDGE('',*,*,#639,.F.);
#897=ORIENTED_EDGE('',*,*,#635,.T.);
#898=ORIENTED_EDGE('',*,*,#640,.T.);
#899=ORIENTED_EDGE('',*,*,#641,.F.);
#900=ORIENTED_EDGE('',*,*,#642,.F.);
#901=ORIENTED_EDGE('',*,*,#638,.T.);
#902=ORIENTED_EDGE('',*,*,#643,.T.);
#903=ORIENTED_EDGE('',*,*,#644,.F.);
#904=ORIENTED_EDGE('',*,*,#645,.F.);
#905=ORIENTED_EDGE('',*,*,#641,.T.);
#906=ORIENTED_EDGE('',*,*,#646,.T.);
#907=ORIENTED_EDGE('',*,*,#612,.F.);
#908=ORIENTED_EDGE('',*,*,#647,.F.);
#909=ORIENTED_EDGE('',*,*,#644,.T.);
#910=ORIENTED_EDGE('',*,*,#611,.T.);
#911=ORIENTED_EDGE('',*,*,#615,.T.);
#912=ORIENTED_EDGE('',*,*,#618,.T.);
#913=ORIENTED_EDGE('',*,*,#621,.T.);
#914=ORIENTED_EDGE('',*,*,#624,.T.);
#915=ORIENTED_EDGE('',*,*,#627,.T.);
#916=ORIENTED_EDGE('',*,*,#630,.T.);
#917=ORIENTED_EDGE('',*,*,#633,.T.);
#918=ORIENTED_EDGE('',*,*,#636,.T.);
#919=ORIENTED_EDGE('',*,*,#639,.T.);
#920=ORIENTED_EDGE('',*,*,#642,.T.);
#921=ORIENTED_EDGE('',*,*,#645,.T.);
#922=ORIENTED_EDGE('',*,*,#647,.T.);
#923=ORIENTED_EDGE('',*,*,#609,.F.);
#924=ORIENTED_EDGE('',*,*,#646,.F.);
#925=ORIENTED_EDGE('',*,*,#643,.F.);
#926=ORIENTED_EDGE('',*,*,#640,.F.);
#927=ORIENTED_EDGE('',*,*,#637,.F.);
#928=ORIENTED_EDGE('',*,*,#634,.F.);
#929=ORIENTED_EDGE('',*,*,#631,.F.);
#930=ORIENTED_EDGE('',*,*,#628,.F.);
#931=ORIENTED_EDGE('',*,*,#625,.F.);
#932=ORIENTED_EDGE('',*,*,#622,.F.);
#933=ORIENTED_EDGE('',*,*,#619,.F.);
#934=ORIENTED_EDGE('',*,*,#616,.F.);
#935=ORIENTED_EDGE('',*,*,#613,.F.);
#936=PLANE('',#1049);
#937=PLANE('',#1052);
#938=PLANE('',#1055);
#939=PLANE('',#1057);
#940=PLANE('',#1059);
#941=PLANE('',#1060);
#942=PLANE('',#1061);
#943=PLANE('',#1062);
#944=PLANE('',#1063);
#945=PLANE('',#1064);
#946=PLANE('',#1065);
#947=PLANE('',#1066);
#948=PLANE('',#1067);
#949=PLANE('',#1068);
#950=PLANE('',#1069);
#951=PLANE('',#1070);
#952=PLANE('',#1071);
#953=PLANE('',#1072);
#954=PLANE('',#1073);
#955=PLANE('',#1074);
#956=PLANE('',#1075);
#957=PLANE('',#1076);
#958=PLANE('',#1077);
#959=PLANE('',#1078);
#960=PLANE('',#1079);
#961=PLANE('',#1080);
#962=PLANE('',#1081);
#963=PLANE('',#1082);
#964=PLANE('',#1083);
#965=PLANE('',#1084);
#966=PLANE('',#1085);
#967=PLANE('',#1086);
#968=PLANE('',#1087);
#969=PLANE('',#1088);
#970=PLANE('',#1089);
#971=PLANE('',#1090);
#972=PLANE('',#1091);
#973=PLANE('',#1092);
#974=PLANE('',#1093);
#975=PLANE('',#1094);
#976=PLANE('',#1095);
#977=PLANE('',#1096);
#978=PLANE('',#1097);
#979=PLANE('',#1098);
#980=PLANE('',#1099);
#981=PLANE('',#1100);
#982=ADVANCED_FACE('',(#26,#24),#936,.F.);
#983=ADVANCED_FACE('',(#27,#25),#937,.T.);
#984=ADVANCED_FACE('',(#28),#938,.F.);
#985=ADVANCED_FACE('',(#29),#22,.T.);
#986=ADVANCED_FACE('',(#30),#939,.F.);
#987=ADVANCED_FACE('',(#31),#23,.T.);
#988=ADVANCED_FACE('',(#32),#940,.F.);
#989=ADVANCED_FACE('',(#33),#941,.F.);
#990=ADVANCED_FACE('',(#34),#942,.F.);
#991=ADVANCED_FACE('',(#35),#943,.F.);
#992=ADVANCED_FACE('',(#36),#944,.F.);
#993=ADVANCED_FACE('',(#37),#945,.F.);
#994=ADVANCED_FACE('',(#38),#946,.F.);
#995=ADVANCED_FACE('',(#39),#947,.F.);
#996=ADVANCED_FACE('',(#40),#948,.F.);
#997=ADVANCED_FACE('',(#41),#949,.F.);
#998=ADVANCED_FACE('',(#42),#950,.F.);
#999=ADVANCED_FACE('',(#43),#951,.F.);
#1000=ADVANCED_FACE('',(#44),#952,.F.);
#1001=ADVANCED_FACE('',(#45),#953,.F.);
#1002=ADVANCED_FACE('',(#46),#18,.F.);
#1003=ADVANCED_FACE('',(#47),#954,.F.);
#1004=ADVANCED_FACE('',(#48),#955,.F.);
#1005=ADVANCED_FACE('',(#49),#956,.F.);
#1006=ADVANCED_FACE('',(#50),#957,.F.);
#1007=ADVANCED_FACE('',(#51),#958,.F.);
#1008=ADVANCED_FACE('',(#52),#19,.F.);
#1009=ADVANCED_FACE('',(#53),#959,.F.);
#1010=ADVANCED_FACE('',(#54),#960,.F.);
#1011=ADVANCED_FACE('',(#55),#961,.F.);
#1012=ADVANCED_FACE('',(#56),#962,.F.);
#1013=ADVANCED_FACE('',(#57),#963,.F.);
#1014=ADVANCED_FACE('',(#58),#964,.F.);
#1015=ADVANCED_FACE('',(#59),#965,.T.);
#1016=ADVANCED_FACE('',(#60),#966,.T.);
#1017=ADVANCED_FACE('',(#61),#967,.T.);
#1018=ADVANCED_FACE('',(#62),#968,.T.);
#1019=ADVANCED_FACE('',(#63),#20,.F.);
#1020=ADVANCED_FACE('',(#64),#969,.F.);
#1021=ADVANCED_FACE('',(#65),#970,.F.);
#1022=ADVANCED_FACE('',(#66),#971,.F.);
#1023=ADVANCED_FACE('',(#67),#972,.F.);
#1024=ADVANCED_FACE('',(#68),#973,.F.);
#1025=ADVANCED_FACE('',(#69),#974,.F.);
#1026=ADVANCED_FACE('',(#70),#21,.F.);
#1027=ADVANCED_FACE('',(#71),#975,.F.);
#1028=ADVANCED_FACE('',(#72),#976,.F.);
#1029=ADVANCED_FACE('',(#73),#977,.F.);
#1030=ADVANCED_FACE('',(#74),#978,.F.);
#1031=ADVANCED_FACE('',(#75),#979,.F.);
#1032=ADVANCED_FACE('',(#76),#980,.T.);
#1033=ADVANCED_FACE('',(#77),#981,.F.);
#1034=CLOSED_SHELL('',(#982,#983,#984,#985,#986,#987,#988,#989,#990,#991,
#992,#993,#994,#995,#996,#997,#998,#999,#1000,#1001,#1002,#1003,#1004,#1005,
#1006,#1007,#1008,#1009,#1010,#1011,#1012,#1013,#1014,#1015,#1016,#1017,
#1018));
#1035=CLOSED_SHELL('',(#1019,#1020,#1021,#1022,#1023,#1024,#1025,#1026,
#1027,#1028,#1029,#1030,#1031,#1032,#1033));
#1036=DERIVED_UNIT_ELEMENT(#1038,1.);
#1037=DERIVED_UNIT_ELEMENT(#1693,-3.);
#1038=(
MASS_UNIT()
NAMED_UNIT(*)
SI_UNIT(.KILO.,.GRAM.)
);
#1039=DERIVED_UNIT((#1036,#1037));
#1040=MEASURE_REPRESENTATION_ITEM('density measure',
POSITIVE_RATIO_MEASURE(7850.),#1039);
#1041=PROPERTY_DEFINITION_REPRESENTATION(#1046,#1043);
#1042=PROPERTY_DEFINITION_REPRESENTATION(#1047,#1044);
#1043=REPRESENTATION('material name',(#1045),#1690);
#1044=REPRESENTATION('density',(#1040),#1690);
#1045=DESCRIPTIVE_REPRESENTATION_ITEM('Steel','Steel');
#1046=PROPERTY_DEFINITION('material property','material name',#1700);
#1047=PROPERTY_DEFINITION('material property','density of part',#1700);
#1048=AXIS2_PLACEMENT_3D('placement',#1339,#1101,#1102);
#1049=AXIS2_PLACEMENT_3D('',#1340,#1103,#1104);
#1050=AXIS2_PLACEMENT_3D('',#1345,#1106,#1107);
#1051=AXIS2_PLACEMENT_3D('',#1349,#1109,#1110);
#1052=AXIS2_PLACEMENT_3D('',#1417,#1140,#1141);
#1053=AXIS2_PLACEMENT_3D('',#1482,#1168,#1169);
#1054=AXIS2_PLACEMENT_3D('',#1485,#1171,#1172);
#1055=AXIS2_PLACEMENT_3D('',#1494,#1177,#1178);
#1056=AXIS2_PLACEMENT_3D('',#1497,#1181,#1182);
#1057=AXIS2_PLACEMENT_3D('',#1499,#1184,#1185);
#1058=AXIS2_PLACEMENT_3D('',#1501,#1187,#1188);
#1059=AXIS2_PLACEMENT_3D('',#1503,#1190,#1191);
#1060=AXIS2_PLACEMENT_3D('',#1505,#1193,#1194);
#1061=AXIS2_PLACEMENT_3D('',#1507,#1196,#1197);
#1062=AXIS2_PLACEMENT_3D('',#1509,#1199,#1200);
#1063=AXIS2_PLACEMENT_3D('',#1511,#1202,#1203);
#1064=AXIS2_PLACEMENT_3D('',#1513,#1205,#1206);
#1065=AXIS2_PLACEMENT_3D('',#1515,#1208,#1209);
#1066=AXIS2_PLACEMENT_3D('',#1517,#1211,#1212);
#1067=AXIS2_PLACEMENT_3D('',#1519,#1214,#1215);
#1068=AXIS2_PLACEMENT_3D('',#1521,#1217,#1218);
#1069=AXIS2_PLACEMENT_3D('',#1523,#1220,#1221);
#1070=AXIS2_PLACEMENT_3D('',#1525,#1223,#1224);
#1071=AXIS2_PLACEMENT_3D('',#1527,#1226,#1227);
#1072=AXIS2_PLACEMENT_3D('',#1529,#1229,#1230);
#1073=AXIS2_PLACEMENT_3D('',#1540,#1233,#1234);
#1074=AXIS2_PLACEMENT_3D('',#1542,#1236,#1237);
#1075=AXIS2_PLACEMENT_3D('',#1544,#1239,#1240);
#1076=AXIS2_PLACEMENT_3D('',#1546,#1242,#1243);
#1077=AXIS2_PLACEMENT_3D('',#1548,#1245,#1246);
#1078=AXIS2_PLACEMENT_3D('',#1559,#1249,#1250);
#1079=AXIS2_PLACEMENT_3D('',#1561,#1252,#1253);
#1080=AXIS2_PLACEMENT_3D('',#1563,#1255,#1256);
#1081=AXIS2_PLACEMENT_3D('',#1565,#1258,#1259);
#1082=AXIS2_PLACEMENT_3D('',#1567,#1261,#1262);
#1083=AXIS2_PLACEMENT_3D('',#1569,#1264,#1265);
#1084=AXIS2_PLACEMENT_3D('',#1570,#1266,#1267);
#1085=AXIS2_PLACEMENT_3D('',#1573,#1270,#1271);
#1086=AXIS2_PLACEMENT_3D('',#1575,#1273,#1274);
#1087=AXIS2_PLACEMENT_3D('',#1577,#1276,#1277);
#1088=AXIS2_PLACEMENT_3D('',#1600,#1280,#1281);
#1089=AXIS2_PLACEMENT_3D('',#1606,#1285,#1286);
#1090=AXIS2_PLACEMENT_3D('',#1612,#1290,#1291);
#1091=AXIS2_PLACEMENT_3D('',#1618,#1295,#1296);
#1092=AXIS2_PLACEMENT_3D('',#1624,#1300,#1301);
#1093=AXIS2_PLACEMENT_3D('',#1630,#1305,#1306);
#1094=AXIS2_PLACEMENT_3D('',#1659,#1311,#1312);
#1095=AXIS2_PLACEMENT_3D('',#1665,#1316,#1317);
#1096=AXIS2_PLACEMENT_3D('',#1671,#1321,#1322);
#1097=AXIS2_PLACEMENT_3D('',#1677,#1326,#1327);
#1098=AXIS2_PLACEMENT_3D('',#1683,#1331,#1332);
#1099=AXIS2_PLACEMENT_3D('',#1686,#1335,#1336);
#1100=AXIS2_PLACEMENT_3D('',#1687,#1337,#1338);
#1101=DIRECTION('axis',(0.,0.,1.));
#1102=DIRECTION('refdir',(1.,0.,0.));
#1103=DIRECTION('center_axis',(0.,0.,-1.));
#1104=DIRECTION('ref_axis',(-1.,0.,0.));
#1105=DIRECTION('',(-1.,0.,0.));
#1106=DIRECTION('center_axis',(0.,0.,1.));
#1107=DIRECTION('ref_axis',(-1.,0.,0.));
#1108=DIRECTION('',(0.,-1.,0.));
#1109=DIRECTION('center_axis',(0.,0.,1.));
#1110=DIRECTION('ref_axis',(-1.,0.,0.));
#1111=DIRECTION('',(1.,0.,0.));
#1112=DIRECTION('',(-0.130266080961799,-0.991479070959571,0.));
#1113=DIRECTION('',(0.644619860152398,-0.764503260880621,0.));
#1114=DIRECTION('',(0.764503260880622,0.644619860152397,0.));
#1115=DIRECTION('',(-0.644619860152399,0.76450326088062,0.));
#1116=DIRECTION('',(0.130266080961798,0.991479070959571,0.));
#1117=DIRECTION('',(1.,4.87206787510457E-16,0.));
#1118=DIRECTION('',(0.130266080961799,-0.991479070959571,0.));
#1119=DIRECTION('',(-0.644619860152399,-0.76450326088062,0.));
#1120=DIRECTION('',(0.764503260880622,-0.644619860152397,0.));
#1121=DIRECTION('',(0.644619860152397,0.764503260880622,0.));
#1122=DIRECTION('',(-0.130266080961799,0.991479070959571,0.));
#1123=DIRECTION('',(1.,-4.66897272961348E-16,0.));
#1124=DIRECTION('',(0.,1.,0.));
#1125=DIRECTION('',(0.,1.,0.));
#1126=DIRECTION('',(1.,0.,0.));
#1127=DIRECTION('',(0.,1.,0.));
#1128=DIRECTION('',(-1.,0.,0.));
#1129=DIRECTION('',(0.,1.,0.));
#1130=DIRECTION('',(0.,1.,0.));
#1131=DIRECTION('',(-1.,0.,0.));
#1132=DIRECTION('',(0.,1.,0.));
#1133=DIRECTION('',(1.,0.,0.));
#1134=DIRECTION('',(0.,1.,0.));
#1135=DIRECTION('',(-0.958698509265481,0.284424275215995,0.));
#1136=DIRECTION('',(0.,-1.,0.));
#1137=DIRECTION('',(-1.,0.,0.));
#1138=DIRECTION('',(0.,1.,0.));
#1139=DIRECTION('',(1.,0.,0.));
#1140=DIRECTION('center_axis',(0.,0.,-1.));
#1141=DIRECTION('ref_axis',(-1.,0.,0.));
#1142=DIRECTION('',(-1.,0.,0.));
#1143=DIRECTION('',(-0.958698509265481,0.284424275215995,0.));
#1144=DIRECTION('',(0.,1.,0.));
#1145=DIRECTION('',(1.,0.,0.));
#1146=DIRECTION('',(0.,1.,0.));
#1147=DIRECTION('',(-1.,0.,0.));
#1148=DIRECTION('',(0.,1.,0.));
#1149=DIRECTION('',(0.,1.,0.));
#1150=DIRECTION('',(-1.,0.,0.));
#1151=DIRECTION('',(0.,1.,0.));
#1152=DIRECTION('',(1.,0.,0.));
#1153=DIRECTION('',(0.,1.,0.));
#1154=DIRECTION('',(0.,1.,0.));
#1155=DIRECTION('',(1.,-4.66897272961348E-16,0.));
#1156=DIRECTION('',(-0.130266080961799,0.991479070959571,0.));
#1157=DIRECTION('',(0.644619860152397,0.764503260880622,0.));
#1158=DIRECTION('',(0.764503260880622,-0.644619860152397,0.));
#1159=DIRECTION('',(-0.644619860152399,-0.76450326088062,0.));
#1160=DIRECTION('',(0.130266080961799,-0.991479070959571,0.));
#1161=DIRECTION('',(1.,4.87206787510457E-16,0.));
#1162=DIRECTION('',(0.130266080961798,0.991479070959571,0.));
#1163=DIRECTION('',(-0.644619860152399,0.76450326088062,0.));
#1164=DIRECTION('',(0.764503260880622,0.644619860152397,0.));
#1165=DIRECTION('',(0.644619860152398,-0.764503260880621,0.));
#1166=DIRECTION('',(-0.130266080961799,-0.991479070959571,0.));
#1167=DIRECTION('',(1.,0.,0.));
#1168=DIRECTION('center_axis',(0.,0.,1.));
#1169=DIRECTION('ref_axis',(-1.,0.,0.));
#1170=DIRECTION('',(0.,-1.,0.));
#1171=DIRECTION('center_axis',(0.,0.,1.));
#1172=DIRECTION('ref_axis',(-1.,0.,0.));
#1173=DIRECTION('',(-1.,0.,0.));
#1174=DIRECTION('',(0.,-1.,0.));
#1175=DIRECTION('',(1.,0.,0.));
#1176=DIRECTION('',(0.,1.,0.));
#1177=DIRECTION('center_axis',(0.,-1.,0.));
#1178=DIRECTION('ref_axis',(0.,0.,-1.));
#1179=DIRECTION('',(0.,0.,-1.));
#1180=DIRECTION('',(0.,0.,-1.));
#1181=DIRECTION('center_axis',(0.,0.,-1.));
#1182=DIRECTION('ref_axis',(-1.,0.,0.));
#1183=DIRECTION('',(0.,0.,-1.));
#1184=DIRECTION('center_axis',(1.,0.,0.));
#1185=DIRECTION('ref_axis',(0.,0.,-1.));
#1186=DIRECTION('',(0.,0.,-1.));
#1187=DIRECTION('center_axis',(0.,0.,-1.));
#1188=DIRECTION('ref_axis',(-1.,0.,0.));
#1189=DIRECTION('',(0.,0.,-1.));
#1190=DIRECTION('center_axis',(0.,1.,0.));
#1191=DIRECTION('ref_axis',(0.,0.,1.));
#1192=DIRECTION('',(0.,0.,-1.));
#1193=DIRECTION('center_axis',(0.991479070959571,-0.130266080961799,0.));
#1194=DIRECTION('ref_axis',(0.130266080961799,0.991479070959571,0.));
#1195=DIRECTION('',(0.,0.,-1.));
#1196=DIRECTION('center_axis',(0.764503260880621,0.644619860152398,0.));
#1197=DIRECTION('ref_axis',(-0.644619860152398,0.764503260880621,0.));
#1198=DIRECTION('',(0.,0.,-1.));
#1199=DIRECTION('center_axis',(-0.644619860152397,0.764503260880622,0.));
#1200=DIRECTION('ref_axis',(-0.764503260880622,-0.644619860152397,0.));
#1201=DIRECTION('',(0.,0.,-1.));
#1202=DIRECTION('center_axis',(-0.76450326088062,-0.644619860152399,0.));
#1203=DIRECTION('ref_axis',(0.644619860152399,-0.76450326088062,0.));
#1204=DIRECTION('',(0.,0.,-1.));
#1205=DIRECTION('center_axis',(-0.991479070959571,0.130266080961798,0.));
#1206=DIRECTION('ref_axis',(-0.130266080961798,-0.991479070959571,0.));
#1207=DIRECTION('',(0.,0.,-1.));
#1208=DIRECTION('center_axis',(-4.87206787510457E-16,1.,0.));
#1209=DIRECTION('ref_axis',(-1.,-4.87206787510457E-16,0.));
#1210=DIRECTION('',(0.,0.,-1.));
#1211=DIRECTION('center_axis',(0.991479070959571,0.130266080961799,0.));
#1212=DIRECTION('ref_axis',(-0.130266080961799,0.991479070959571,0.));
#1213=DIRECTION('',(0.,0.,-1.));
#1214=DIRECTION('center_axis',(0.76450326088062,-0.644619860152399,0.));
#1215=DIRECTION('ref_axis',(0.644619860152399,0.76450326088062,0.));
#1216=DIRECTION('',(0.,0.,-1.));
#1217=DIRECTION('center_axis',(0.644619860152397,0.764503260880622,0.));
#1218=DIRECTION('ref_axis',(-0.764503260880622,0.644619860152397,0.));
#1219=DIRECTION('',(0.,0.,-1.));
#1220=DIRECTION('center_axis',(-0.764503260880622,0.644619860152397,0.));
#1221=DIRECTION('ref_axis',(-0.644619860152397,-0.764503260880621,0.));
#1222=DIRECTION('',(0.,0.,-1.));
#1223=DIRECTION('center_axis',(-0.991479070959571,-0.130266080961799,0.));
#1224=DIRECTION('ref_axis',(0.130266080961799,-0.991479070959571,0.));
#1225=DIRECTION('',(0.,0.,-1.));
#1226=DIRECTION('center_axis',(4.66897272961348E-16,1.,0.));
#1227=DIRECTION('ref_axis',(-1.,4.66897272961348E-16,0.));
#1228=DIRECTION('',(0.,0.,-1.));
#1229=DIRECTION('center_axis',(-1.,0.,0.));
#1230=DIRECTION('ref_axis',(0.,0.,1.));
#1231=DIRECTION('',(0.,0.,-1.));
#1232=DIRECTION('',(0.,0.,-1.));
#1233=DIRECTION('center_axis',(-1.,0.,0.));
#1234=DIRECTION('ref_axis',(0.,0.,1.));
#1235=DIRECTION('',(0.,0.,-1.));
#1236=DIRECTION('center_axis',(0.,1.,0.));
#1237=DIRECTION('ref_axis',(0.,0.,1.));
#1238=DIRECTION('',(0.,0.,-1.));
#1239=DIRECTION('center_axis',(-1.,0.,0.));
#1240=DIRECTION('ref_axis',(0.,0.,1.));
#1241=DIRECTION('',(0.,0.,-1.));
#1242=DIRECTION('center_axis',(0.,-1.,0.));
#1243=DIRECTION('ref_axis',(0.,0.,-1.));
#1244=DIRECTION('',(0.,0.,-1.));
#1245=DIRECTION('center_axis',(-1.,0.,0.));
#1246=DIRECTION('ref_axis',(0.,0.,1.));
#1247=DIRECTION('',(0.,0.,-1.));
#1248=DIRECTION('',(0.,0.,-1.));
#1249=DIRECTION('center_axis',(-1.,0.,0.));
#1250=DIRECTION('ref_axis',(0.,0.,1.));
#1251=DIRECTION('',(0.,0.,-1.));
#1252=DIRECTION('center_axis',(0.,-1.,0.));
#1253=DIRECTION('ref_axis',(0.,0.,-1.));
#1254=DIRECTION('',(0.,0.,-1.));
#1255=DIRECTION('center_axis',(-1.,0.,0.));
#1256=DIRECTION('ref_axis',(0.,0.,1.));
#1257=DIRECTION('',(0.,0.,-1.));
#1258=DIRECTION('center_axis',(0.,1.,0.));
#1259=DIRECTION('ref_axis',(0.,0.,1.));
#1260=DIRECTION('',(0.,0.,-1.));
#1261=DIRECTION('center_axis',(-1.,0.,0.));
#1262=DIRECTION('ref_axis',(0.,0.,1.));
#1263=DIRECTION('',(0.,0.,-1.));
#1264=DIRECTION('center_axis',(-0.284424275215995,-0.958698509265481,0.));
#1265=DIRECTION('ref_axis',(0.958698509265481,-0.284424275215995,0.));
#1266=DIRECTION('center_axis',(1.,0.,0.));
#1267=DIRECTION('ref_axis',(0.,0.,-1.));
#1268=DIRECTION('',(0.,0.,-1.));
#1269=DIRECTION('',(0.,0.,-1.));
#1270=DIRECTION('center_axis',(0.,1.,0.));
#1271=DIRECTION('ref_axis',(0.,0.,1.));
#1272=DIRECTION('',(0.,0.,-1.));
#1273=DIRECTION('center_axis',(-1.,0.,0.));
#1274=DIRECTION('ref_axis',(0.,0.,1.));
#1275=DIRECTION('',(0.,0.,-1.));
#1276=DIRECTION('center_axis',(0.,-1.,0.));
#1277=DIRECTION('ref_axis',(0.,0.,-1.));
#1278=DIRECTION('',(0.,0.,-1.));
#1279=DIRECTION('',(0.,0.,-1.));
#1280=DIRECTION('center_axis',(0.,1.,0.));
#1281=DIRECTION('ref_axis',(0.,0.,1.));
#1282=DIRECTION('',(1.,0.,0.));
#1283=DIRECTION('',(0.,0.,-1.));
#1284=DIRECTION('',(1.,0.,0.));
#1285=DIRECTION('center_axis',(1.,0.,0.));
#1286=DIRECTION('ref_axis',(0.,0.,-1.));
#1287=DIRECTION('',(0.,-1.,0.));
#1288=DIRECTION('',(0.,0.,-1.));
#1289=DIRECTION('',(0.,-1.,0.));
#1290=DIRECTION('center_axis',(5.42101086242752E-17,1.,0.));
#1291=DIRECTION('ref_axis',(-1.,5.42101086242752E-17,0.));
#1292=DIRECTION('',(1.,-5.42101086242752E-17,0.));
#1293=DIRECTION('',(0.,0.,-1.));
#1294=DIRECTION('',(1.,-5.42101086242752E-17,0.));
#1295=DIRECTION('center_axis',(-1.,0.,0.));
#1296=DIRECTION('ref_axis',(0.,0.,1.));
#1297=DIRECTION('',(0.,1.,0.));
#1298=DIRECTION('',(0.,0.,-1.));
#1299=DIRECTION('',(0.,1.,0.));
#1300=DIRECTION('center_axis',(0.,-1.,0.));
#1301=DIRECTION('ref_axis',(0.,0.,-1.));
#1302=DIRECTION('',(-1.,0.,0.));
#1303=DIRECTION('',(0.,0.,-1.));
#1304=DIRECTION('',(-1.,0.,0.));
#1305=DIRECTION('center_axis',(1.,0.,0.));
#1306=DIRECTION('ref_axis',(0.,0.,-1.));
#1307=DIRECTION('',(0.,-1.,0.));
#1308=DIRECTION('',(0.,0.,-1.));
#1309=DIRECTION('',(0.,-1.,0.));
#1310=DIRECTION('',(0.,0.,-1.));
#1311=DIRECTION('center_axis',(1.,0.,0.));
#1312=DIRECTION('ref_axis',(0.,0.,-1.));
#1313=DIRECTION('',(0.,-1.,0.));
#1314=DIRECTION('',(0.,0.,-1.));
#1315=DIRECTION('',(0.,-1.,0.));
#1316=DIRECTION('center_axis',(0.,1.,0.));
#1317=DIRECTION('ref_axis',(0.,0.,1.));
#1318=DIRECTION('',(1.,0.,0.));
#1319=DIRECTION('',(0.,0.,-1.));
#1320=DIRECTION('',(1.,0.,0.));
#1321=DIRECTION('center_axis',(1.,0.,0.));
#1322=DIRECTION('ref_axis',(0.,0.,-1.));
#1323=DIRECTION('',(0.,-1.,0.));
#1324=DIRECTION('',(0.,0.,-1.));
#1325=DIRECTION('',(0.,-1.,0.));
#1326=DIRECTION('center_axis',(1.44560289664734E-16,-1.,0.));
#1327=DIRECTION('ref_axis',(1.,1.44560289664734E-16,0.));
#1328=DIRECTION('',(-1.,-1.44560289664734E-16,0.));
#1329=DIRECTION('',(0.,0.,-1.));
#1330=DIRECTION('',(-1.,-1.44560289664734E-16,0.));
#1331=DIRECTION('center_axis',(1.,0.,0.));
#1332=DIRECTION('ref_axis',(0.,0.,-1.));
#1333=DIRECTION('',(0.,-1.,0.));
#1334=DIRECTION('',(0.,-1.,0.));
#1335=DIRECTION('center_axis',(0.,0.,1.));
#1336=DIRECTION('ref_axis',(1.,0.,0.));
#1337=DIRECTION('center_axis',(0.,0.,1.));
#1338=DIRECTION('ref_axis',(1.,0.,0.));
#1339=CARTESIAN_POINT('',(0.,0.,0.));
#1340=CARTESIAN_POINT('Origin',(1.,14.5,2000.));
#1341=CARTESIAN_POINT('',(18.,15.5,2000.));
#1342=CARTESIAN_POINT('',(1.00000000000001,15.5,2000.));
#1343=CARTESIAN_POINT('',(18.,15.5,2000.));
#1344=CARTESIAN_POINT('',(-4.33680868994202E-16,14.5,2000.));
#1345=CARTESIAN_POINT('Origin',(1.,14.5,2000.));
#1346=CARTESIAN_POINT('',(0.,1.00000000000001,2000.));
#1347=CARTESIAN_POINT('',(0.,1.00000000000001,2000.));
#1348=CARTESIAN_POINT('',(1.00000000000001,0.,2000.));
#1349=CARTESIAN_POINT('Origin',(1.,1.,2000.));
#1350=CARTESIAN_POINT('',(6.93085717752914,0.,2000.));
#1351=CARTESIAN_POINT('',(1.00000000000001,0.,2000.));
#1352=CARTESIAN_POINT('',(6.25,-5.18212904578521,2000.));
#1353=CARTESIAN_POINT('',(6.93085717752914,0.,2000.));
#1354=CARTESIAN_POINT('',(8.62599454885397,-8.,2000.));
#1355=CARTESIAN_POINT('',(6.25,-5.18212904578521,2000.));
#1356=CARTESIAN_POINT('',(9.3904978097346,-7.3553801398476,2000.));
#1357=CARTESIAN_POINT('',(8.62599454885397,-8.,2000.));
#1358=CARTESIAN_POINT('',(7.29896333655327,-4.87487182194792,2000.));
#1359=CARTESIAN_POINT('',(7.29896333655327,-4.87487182194792,2000.));
#1360=CARTESIAN_POINT('',(7.9394513367908,-1.0842021724855E-16,2000.));
#1361=CARTESIAN_POINT('',(7.9394513367908,-1.0842021724855E-16,2000.));
#1362=CARTESIAN_POINT('',(15.0605486632092,3.36102673470506E-15,2000.));
#1363=CARTESIAN_POINT('',(7.9394513367908,-1.0842021724855E-16,2000.));
#1364=CARTESIAN_POINT('',(15.7010366634467,-4.87487182194792,2000.));
#1365=CARTESIAN_POINT('',(15.0605486632092,3.36102673470506E-15,2000.));
#1366=CARTESIAN_POINT('',(13.6095021902654,-7.3553801398476,2000.));
#1367=CARTESIAN_POINT('',(15.7010366634467,-4.87487182194792,2000.));
#1368=CARTESIAN_POINT('',(14.374005451146,-8.,2000.));
#1369=CARTESIAN_POINT('',(14.374005451146,-8.,2000.));
#1370=CARTESIAN_POINT('',(16.75,-5.18212904578521,2000.));
#1371=CARTESIAN_POINT('',(16.75,-5.18212904578521,2000.));
#1372=CARTESIAN_POINT('',(16.0691428224709,3.46944695195361E-15,2000.));
#1373=CARTESIAN_POINT('',(16.0691428224709,3.46944695195361E-15,2000.));
#1374=CARTESIAN_POINT('',(23.5,0.,2000.));
#1375=CARTESIAN_POINT('',(16.0691428224709,3.46944695195361E-15,2000.));
#1376=CARTESIAN_POINT('',(23.5,0.7,2000.));
#1377=CARTESIAN_POINT('',(23.5,0.,2000.));
#1378=CARTESIAN_POINT('',(15.5,1.,2000.));
#1379=CARTESIAN_POINT('Ctrl Pts',(23.5,0.7,2000.));
#1380=CARTESIAN_POINT('Ctrl Pts',(20.793768142871,2.29117584522506,2000.));
#1381=CARTESIAN_POINT('Ctrl Pts',(18.1368827739176,-0.30421403761591,2000.));
#1382=CARTESIAN_POINT('Ctrl Pts',(15.5,1.,2000.));
#1383=CARTESIAN_POINT('',(15.5,5.97391779952145,2000.));
#1384=CARTESIAN_POINT('',(15.5,1.,2000.));
#1385=CARTESIAN_POINT('',(23.5,5.97391779952145,2000.));
#1386=CARTESIAN_POINT('',(15.5,5.97391779952145,2000.));
#1387=CARTESIAN_POINT('',(23.5,6.97391779952146,2000.));
#1388=CARTESIAN_POINT('',(23.5,6.97391779952146,2000.));
#1389=CARTESIAN_POINT('',(15.5,6.97391779952146,2000.));
#1390=CARTESIAN_POINT('',(15.5,6.97391779952146,2000.));
#1391=CARTESIAN_POINT('',(15.5,7.97391779952146,2000.));
#1392=CARTESIAN_POINT('',(15.5,6.97391779952146,2000.));
#1393=CARTESIAN_POINT('',(23.5,7.97391779952146,2000.));
#1394=CARTESIAN_POINT('Ctrl Pts',(15.5,7.97391779952146,2000.));
#1395=CARTESIAN_POINT('Ctrl Pts',(18.1974951302901,9.06662641677188,2000.));
#1396=CARTESIAN_POINT('Ctrl Pts',(20.7812962712461,6.52378723929844,2000.));
#1397=CARTESIAN_POINT('Ctrl Pts',(23.5,7.97391779952146,2000.));
#1398=CARTESIAN_POINT('',(23.5,8.97391779952146,2000.));
#1399=CARTESIAN_POINT('',(23.5,8.97391779952146,2000.));
#1400=CARTESIAN_POINT('',(15.5,8.97391779952146,2000.));
#1401=CARTESIAN_POINT('',(15.5,8.97391779952146,2000.));
#1402=CARTESIAN_POINT('',(15.5,14.5,2000.));
#1403=CARTESIAN_POINT('',(15.5,8.97391779952146,2000.));
#1404=CARTESIAN_POINT('',(19.5,14.5,2000.));
#1405=CARTESIAN_POINT('',(15.5,14.5,2000.));
#1406=CARTESIAN_POINT('',(19.5,15.0549837527641,2000.));
#1407=CARTESIAN_POINT('',(19.5,14.5,2000.));
#1408=CARTESIAN_POINT('',(19.5,15.0549837527641,2000.));
#1409=CARTESIAN_POINT('',(1.,14.5,2000.));
#1410=CARTESIAN_POINT('',(1.,1.,2000.));
#1411=CARTESIAN_POINT('',(1.,1.,2000.));
#1412=CARTESIAN_POINT('',(14.5,14.5,2000.));
#1413=CARTESIAN_POINT('',(1.,14.5,2000.));
#1414=CARTESIAN_POINT('',(14.5,1.,2000.));
#1415=CARTESIAN_POINT('',(14.5,1.,2000.));
#1416=CARTESIAN_POINT('',(1.,1.,2000.));
#1417=CARTESIAN_POINT('Origin',(1.,14.5,0.));
#1418=CARTESIAN_POINT('',(18.,15.5,0.));
#1419=CARTESIAN_POINT('',(1.00000000000001,15.5,0.));
#1420=CARTESIAN_POINT('',(1.00000000000001,15.5,0.));
#1421=CARTESIAN_POINT('',(19.5,15.0549837527641,0.));
#1422=CARTESIAN_POINT('',(19.5,15.0549837527641,0.));
#1423=CARTESIAN_POINT('',(19.5,14.5,0.));
#1424=CARTESIAN_POINT('',(19.5,14.5,0.));
#1425=CARTESIAN_POINT('',(15.5,14.5,0.));
#1426=CARTESIAN_POINT('',(15.5,14.5,0.));
#1427=CARTESIAN_POINT('',(15.5,8.97391779952146,0.));
#1428=CARTESIAN_POINT('',(15.5,8.97391779952146,0.));
#1429=CARTESIAN_POINT('',(23.5,8.97391779952146,0.));
#1430=CARTESIAN_POINT('',(15.5,8.97391779952146,0.));
#1431=CARTESIAN_POINT('',(23.5,7.97391779952146,0.));
#1432=CARTESIAN_POINT('',(23.5,8.97391779952146,0.));
#1433=CARTESIAN_POINT('',(15.5,7.97391779952146,0.));
#1434=CARTESIAN_POINT('Ctrl Pts',(15.5,7.97391779952146,0.));
#1435=CARTESIAN_POINT('Ctrl Pts',(18.1974951302901,9.06662641677188,0.));
#1436=CARTESIAN_POINT('Ctrl Pts',(20.7812962712461,6.52378723929844,0.));
#1437=CARTESIAN_POINT('Ctrl Pts',(23.5,7.97391779952146,0.));
#1438=CARTESIAN_POINT('',(15.5,6.97391779952146,0.));
#1439=CARTESIAN_POINT('',(15.5,6.97391779952146,0.));
#1440=CARTESIAN_POINT('',(23.5,6.97391779952146,0.));
#1441=CARTESIAN_POINT('',(15.5,6.97391779952146,0.));
#1442=CARTESIAN_POINT('',(23.5,5.97391779952145,0.));
#1443=CARTESIAN_POINT('',(23.5,6.97391779952146,0.));
#1444=CARTESIAN_POINT('',(15.5,5.97391779952145,0.));
#1445=CARTESIAN_POINT('',(15.5,5.97391779952145,0.));
#1446=CARTESIAN_POINT('',(15.5,1.,0.));
#1447=CARTESIAN_POINT('',(15.5,1.,0.));
#1448=CARTESIAN_POINT('',(23.5,0.7,0.));
#1449=CARTESIAN_POINT('Ctrl Pts',(23.5,0.7,0.));
#1450=CARTESIAN_POINT('Ctrl Pts',(20.793768142871,2.29117584522506,0.));
#1451=CARTESIAN_POINT('Ctrl Pts',(18.1368827739176,-0.30421403761591,0.));
#1452=CARTESIAN_POINT('Ctrl Pts',(15.5,1.,0.));
#1453=CARTESIAN_POINT('',(23.5,0.,0.));
#1454=CARTESIAN_POINT('',(23.5,0.,0.));
#1455=CARTESIAN_POINT('',(16.0691428224709,3.46944695195361E-15,0.));
#1456=CARTESIAN_POINT('',(16.0691428224709,3.46944695195361E-15,0.));
#1457=CARTESIAN_POINT('',(16.75,-5.18212904578521,0.));
#1458=CARTESIAN_POINT('',(16.0691428224709,3.46944695195361E-15,0.));
#1459=CARTESIAN_POINT('',(14.374005451146,-8.,0.));
#1460=CARTESIAN_POINT('',(16.75,-5.18212904578521,0.));
#1461=CARTESIAN_POINT('',(13.6095021902654,-7.3553801398476,0.));
#1462=CARTESIAN_POINT('',(14.374005451146,-8.,0.));
#1463=CARTESIAN_POINT('',(15.7010366634467,-4.87487182194792,0.));
#1464=CARTESIAN_POINT('',(15.7010366634467,-4.87487182194792,0.));
#1465=CARTESIAN_POINT('',(15.0605486632092,3.36102673470506E-15,0.));
#1466=CARTESIAN_POINT('',(15.0605486632092,3.36102673470506E-15,0.));
#1467=CARTESIAN_POINT('',(7.9394513367908,-1.0842021724855E-16,0.));
#1468=CARTESIAN_POINT('',(7.9394513367908,-1.0842021724855E-16,0.));
#1469=CARTESIAN_POINT('',(7.29896333655327,-4.87487182194792,0.));
#1470=CARTESIAN_POINT('',(7.9394513367908,-1.0842021724855E-16,0.));
#1471=CARTESIAN_POINT('',(9.3904978097346,-7.3553801398476,0.));
#1472=CARTESIAN_POINT('',(7.29896333655327,-4.87487182194792,0.));
#1473=CARTESIAN_POINT('',(8.62599454885397,-8.,0.));
#1474=CARTESIAN_POINT('',(8.62599454885397,-8.,0.));
#1475=CARTESIAN_POINT('',(6.25,-5.18212904578521,0.));
#1476=CARTESIAN_POINT('',(6.25,-5.18212904578521,0.));
#1477=CARTESIAN_POINT('',(6.93085717752914,0.,0.));
#1478=CARTESIAN_POINT('',(6.93085717752914,0.,0.));
#1479=CARTESIAN_POINT('',(1.00000000000001,0.,0.));
#1480=CARTESIAN_POINT('',(1.00000000000001,0.,0.));
#1481=CARTESIAN_POINT('',(0.,1.00000000000001,0.));
#1482=CARTESIAN_POINT('Origin',(1.,1.,0.));
#1483=CARTESIAN_POINT('',(-4.33680868994202E-16,14.5,0.));
#1484=CARTESIAN_POINT('',(0.,1.00000000000001,0.));
#1485=CARTESIAN_POINT('Origin',(1.,14.5,0.));
#1486=CARTESIAN_POINT('',(14.5,14.5,0.));
#1487=CARTESIAN_POINT('',(1.,14.5,0.));
#1488=CARTESIAN_POINT('',(1.,14.5,0.));
#1489=CARTESIAN_POINT('',(1.,1.,0.));
#1490=CARTESIAN_POINT('',(1.,1.,0.));
#1491=CARTESIAN_POINT('',(14.5,1.,0.));
#1492=CARTESIAN_POINT('',(1.,1.,0.));
#1493=CARTESIAN_POINT('',(14.5,1.,0.));
#1494=CARTESIAN_POINT('Origin',(1.00000000000001,15.5,2000.));
#1495=CARTESIAN_POINT('',(1.00000000000001,15.5,2000.));
#1496=CARTESIAN_POINT('',(18.,15.5,2000.));
#1497=CARTESIAN_POINT('Origin',(1.,14.5,2000.));
#1498=CARTESIAN_POINT('',(-4.33680868994202E-16,14.5,2000.));
#1499=CARTESIAN_POINT('Origin',(0.,1.00000000000001,2000.));
#1500=CARTESIAN_POINT('',(0.,1.00000000000001,2000.));
#1501=CARTESIAN_POINT('Origin',(1.,1.,2000.));
#1502=CARTESIAN_POINT('',(1.00000000000001,0.,2000.));
#1503=CARTESIAN_POINT('Origin',(1.00000000000001,0.,2000.));
#1504=CARTESIAN_POINT('',(6.93085717752914,0.,2000.));
#1505=CARTESIAN_POINT('Origin',(6.93085717752914,0.,2000.));
#1506=CARTESIAN_POINT('',(6.25,-5.18212904578521,2000.));
#1507=CARTESIAN_POINT('Origin',(6.25,-5.18212904578521,2000.));
#1508=CARTESIAN_POINT('',(8.62599454885397,-8.,2000.));
#1509=CARTESIAN_POINT('Origin',(8.62599454885397,-8.,2000.));
#1510=CARTESIAN_POINT('',(9.3904978097346,-7.3553801398476,2000.));
#1511=CARTESIAN_POINT('Origin',(7.29896333655327,-4.87487182194792,2000.));
#1512=CARTESIAN_POINT('',(7.29896333655327,-4.87487182194792,2000.));
#1513=CARTESIAN_POINT('Origin',(7.9394513367908,-1.0842021724855E-16,2000.));
#1514=CARTESIAN_POINT('',(7.9394513367908,-1.0842021724855E-16,2000.));
#1515=CARTESIAN_POINT('Origin',(7.9394513367908,-1.0842021724855E-16,2000.));
#1516=CARTESIAN_POINT('',(15.0605486632092,3.36102673470506E-15,2000.));
#1517=CARTESIAN_POINT('Origin',(15.0605486632092,3.36102673470506E-15,2000.));
#1518=CARTESIAN_POINT('',(15.7010366634467,-4.87487182194792,2000.));
#1519=CARTESIAN_POINT('Origin',(15.7010366634467,-4.87487182194792,2000.));
#1520=CARTESIAN_POINT('',(13.6095021902654,-7.3553801398476,2000.));
#1521=CARTESIAN_POINT('Origin',(14.374005451146,-8.,2000.));
#1522=CARTESIAN_POINT('',(14.374005451146,-8.,2000.));
#1523=CARTESIAN_POINT('Origin',(16.75,-5.18212904578521,2000.));
#1524=CARTESIAN_POINT('',(16.75,-5.18212904578521,2000.));
#1525=CARTESIAN_POINT('Origin',(16.0691428224709,3.46944695195361E-15,2000.));
#1526=CARTESIAN_POINT('',(16.0691428224709,3.46944695195361E-15,2000.));
#1527=CARTESIAN_POINT('Origin',(16.0691428224709,3.46944695195361E-15,2000.));
#1528=CARTESIAN_POINT('',(23.5,0.,2000.));
#1529=CARTESIAN_POINT('Origin',(23.5,0.,2000.));
#1530=CARTESIAN_POINT('',(23.5,0.7,2000.));
#1531=CARTESIAN_POINT('Ctrl Pts',(23.5,0.7,2000.));
#1532=CARTESIAN_POINT('Ctrl Pts',(23.5,0.7,-400.));
#1533=CARTESIAN_POINT('Ctrl Pts',(20.793768142871,2.29117584522506,2000.));
#1534=CARTESIAN_POINT('Ctrl Pts',(20.793768142871,2.29117584522506,-400.));
#1535=CARTESIAN_POINT('Ctrl Pts',(18.1368827739176,-0.30421403761591,2000.));
#1536=CARTESIAN_POINT('Ctrl Pts',(18.1368827739176,-0.30421403761591,-400.));
#1537=CARTESIAN_POINT('Ctrl Pts',(15.5,1.,2000.));
#1538=CARTESIAN_POINT('Ctrl Pts',(15.5,1.,-400.));
#1539=CARTESIAN_POINT('',(15.5,1.,2000.));
#1540=CARTESIAN_POINT('Origin',(15.5,1.,2000.));
#1541=CARTESIAN_POINT('',(15.5,5.97391779952145,2000.));
#1542=CARTESIAN_POINT('Origin',(15.5,5.97391779952145,2000.));
#1543=CARTESIAN_POINT('',(23.5,5.97391779952145,2000.));
#1544=CARTESIAN_POINT('Origin',(23.5,6.97391779952146,2000.));
#1545=CARTESIAN_POINT('',(23.5,6.97391779952146,2000.));
#1546=CARTESIAN_POINT('Origin',(15.5,6.97391779952146,2000.));
#1547=CARTESIAN_POINT('',(15.5,6.97391779952146,2000.));
#1548=CARTESIAN_POINT('Origin',(15.5,6.97391779952146,2000.));
#1549=CARTESIAN_POINT('',(15.5,7.97391779952146,2000.));
#1550=CARTESIAN_POINT('Ctrl Pts',(15.5,7.97391779952146,2000.));
#1551=CARTESIAN_POINT('Ctrl Pts',(15.5,7.97391779952146,-400.));
#1552=CARTESIAN_POINT('Ctrl Pts',(18.1974951302901,9.06662641677188,2000.));
#1553=CARTESIAN_POINT('Ctrl Pts',(18.1974951302901,9.06662641677188,-400.));
#1554=CARTESIAN_POINT('Ctrl Pts',(20.7812962712461,6.52378723929844,2000.));
#1555=CARTESIAN_POINT('Ctrl Pts',(20.7812962712461,6.52378723929844,-400.));
#1556=CARTESIAN_POINT('Ctrl Pts',(23.5,7.97391779952146,2000.));
#1557=CARTESIAN_POINT('Ctrl Pts',(23.5,7.97391779952146,-400.));
#1558=CARTESIAN_POINT('',(23.5,7.97391779952146,2000.));
#1559=CARTESIAN_POINT('Origin',(23.5,8.97391779952146,2000.));
#1560=CARTESIAN_POINT('',(23.5,8.97391779952146,2000.));
#1561=CARTESIAN_POINT('Origin',(15.5,8.97391779952146,2000.));
#1562=CARTESIAN_POINT('',(15.5,8.97391779952146,2000.));
#1563=CARTESIAN_POINT('Origin',(15.5,8.97391779952146,2000.));
#1564=CARTESIAN_POINT('',(15.5,14.5,2000.));
#1565=CARTESIAN_POINT('Origin',(15.5,14.5,2000.));
#1566=CARTESIAN_POINT('',(19.5,14.5,2000.));
#1567=CARTESIAN_POINT('Origin',(19.5,14.5,2000.));
#1568=CARTESIAN_POINT('',(19.5,15.0549837527641,2000.));
#1569=CARTESIAN_POINT('Origin',(19.5,15.0549837527641,2000.));
#1570=CARTESIAN_POINT('Origin',(1.,1.,2000.));
#1571=CARTESIAN_POINT('',(1.,14.5,2000.));
#1572=CARTESIAN_POINT('',(1.,1.,2000.));
#1573=CARTESIAN_POINT('Origin',(1.,1.,2000.));
#1574=CARTESIAN_POINT('',(14.5,1.,2000.));
#1575=CARTESIAN_POINT('Origin',(14.5,1.,2000.));
#1576=CARTESIAN_POINT('',(14.5,14.5,2000.));
#1577=CARTESIAN_POINT('Origin',(1.,14.5,2000.));
#1578=CARTESIAN_POINT('Ctrl Pts',(15.4985553873926,1.,2000.));
#1579=CARTESIAN_POINT('Ctrl Pts',(15.4985553873926,1.,-400.));
#1580=CARTESIAN_POINT('Ctrl Pts',(17.3456908203039,1.17969944347186,2000.));
#1581=CARTESIAN_POINT('Ctrl Pts',(17.3456908203039,1.17969944347186,-400.));
#1582=CARTESIAN_POINT('Ctrl Pts',(18.2157997172872,-1.02508314121525,2000.));
#1583=CARTESIAN_POINT('Ctrl Pts',(18.2157997172872,-1.02508314121525,-400.));
#1584=CARTESIAN_POINT('Ctrl Pts',(21.7113874041505,1.,2000.));
#1585=CARTESIAN_POINT('Ctrl Pts',(21.7113874041505,1.,-400.));
#1586=CARTESIAN_POINT('',(15.4985553873926,1.,0.));
#1587=CARTESIAN_POINT('',(21.7113874041505,1.,0.));
#1588=CARTESIAN_POINT('Ctrl Pts',(15.4985553873926,1.,0.));
#1589=CARTESIAN_POINT('Ctrl Pts',(17.3456908203039,1.17969944347186,0.));
#1590=CARTESIAN_POINT('Ctrl Pts',(18.2157997172872,-1.02508314121525,0.));
#1591=CARTESIAN_POINT('Ctrl Pts',(21.7113874041505,1.,0.));
#1592=CARTESIAN_POINT('',(21.7113874041505,1.,2000.));
#1593=CARTESIAN_POINT('',(21.7113874041505,1.,2000.));
#1594=CARTESIAN_POINT('',(15.4985553873926,1.,2000.));
#1595=CARTESIAN_POINT('Ctrl Pts',(15.4985553873926,1.,2000.));
#1596=CARTESIAN_POINT('Ctrl Pts',(17.3456908203039,1.17969944347186,2000.));
#1597=CARTESIAN_POINT('Ctrl Pts',(18.2157997172872,-1.02508314121525,2000.));
#1598=CARTESIAN_POINT('Ctrl Pts',(21.7113874041505,1.,2000.));
#1599=CARTESIAN_POINT('',(15.4985553873926,1.,2000.));
#1600=CARTESIAN_POINT('Origin',(21.7113874041505,1.,2000.));
#1601=CARTESIAN_POINT('',(24.4985553873926,1.,0.));
#1602=CARTESIAN_POINT('',(21.7113874041505,1.,0.));
#1603=CARTESIAN_POINT('',(24.4985553873926,1.,2000.));
#1604=CARTESIAN_POINT('',(24.4985553873926,1.,2000.));
#1605=CARTESIAN_POINT('',(21.7113874041505,1.,2000.));
#1606=CARTESIAN_POINT('Origin',(24.4985553873926,1.,2000.));
#1607=CARTESIAN_POINT('',(24.4985553873926,5.42101086242752E-17,0.));
#1608=CARTESIAN_POINT('',(24.4985553873926,1.,0.));
#1609=CARTESIAN_POINT('',(24.4985553873926,5.42101086242752E-17,2000.));
#1610=CARTESIAN_POINT('',(24.4985553873926,5.42101086242752E-17,2000.));
#1611=CARTESIAN_POINT('',(24.4985553873926,1.,2000.));
#1612=CARTESIAN_POINT('Origin',(24.4985553873926,5.42101086242752E-17,2000.));
#1613=CARTESIAN_POINT('',(25.4985553873926,0.,0.));
#1614=CARTESIAN_POINT('',(24.4985553873926,5.42101086242752E-17,0.));
#1615=CARTESIAN_POINT('',(25.4985553873926,0.,2000.));
#1616=CARTESIAN_POINT('',(25.4985553873926,0.,2000.));
#1617=CARTESIAN_POINT('',(24.4985553873926,5.42101086242752E-17,2000.));
#1618=CARTESIAN_POINT('Origin',(25.4985553873926,0.,2000.));
#1619=CARTESIAN_POINT('',(25.4985553873926,14.3,0.));
#1620=CARTESIAN_POINT('',(25.4985553873926,0.,0.));
#1621=CARTESIAN_POINT('',(25.4985553873926,14.3,2000.));
#1622=CARTESIAN_POINT('',(25.4985553873926,14.3,2000.));
#1623=CARTESIAN_POINT('',(25.4985553873926,0.,2000.));
#1624=CARTESIAN_POINT('Origin',(25.4985553873926,14.3,2000.));
#1625=CARTESIAN_POINT('',(24.4985553873926,14.3,0.));
#1626=CARTESIAN_POINT('',(25.4985553873926,14.3,0.));
#1627=CARTESIAN_POINT('',(24.4985553873926,14.3,2000.));
#1628=CARTESIAN_POINT('',(24.4985553873926,14.3,2000.));
#1629=CARTESIAN_POINT('',(25.4985553873926,14.3,2000.));
#1630=CARTESIAN_POINT('Origin',(24.4985553873926,14.3,2000.));
#1631=CARTESIAN_POINT('',(24.4985553873926,7.97391779952146,0.));
#1632=CARTESIAN_POINT('',(24.4985553873926,14.3,0.));
#1633=CARTESIAN_POINT('',(24.4985553873926,7.97391779952146,2000.));
#1634=CARTESIAN_POINT('',(24.4985553873926,7.97391779952146,2000.));
#1635=CARTESIAN_POINT('',(24.4985553873926,14.3,2000.));
#1636=CARTESIAN_POINT('Ctrl Pts',(24.4985553873926,7.97391779952146,2000.));
#1637=CARTESIAN_POINT('Ctrl Pts',(24.4985553873926,7.97391779952146,-400.));
#1638=CARTESIAN_POINT('Ctrl Pts',(23.1375448324297,7.03801639783394,2000.));
#1639=CARTESIAN_POINT('Ctrl Pts',(23.1375448324297,7.03801639783394,-400.));
#1640=CARTESIAN_POINT('Ctrl Pts',(20.0056397644893,7.8564457046115,2000.));
#1641=CARTESIAN_POINT('Ctrl Pts',(20.0056397644893,7.8564457046115,-400.));
#1642=CARTESIAN_POINT('Ctrl Pts',(17.0500450533132,8.2529885785608,2000.));
#1643=CARTESIAN_POINT('Ctrl Pts',(17.0500450533132,8.2529885785608,-400.));
#1644=CARTESIAN_POINT('Ctrl Pts',(15.4985553873926,7.97391779952146,2000.));
#1645=CARTESIAN_POINT('Ctrl Pts',(15.4985553873926,7.97391779952146,-400.));
#1646=CARTESIAN_POINT('',(15.4985553873926,7.97391779952146,0.));
#1647=CARTESIAN_POINT('Ctrl Pts',(24.4985553873926,7.97391779952146,0.));
#1648=CARTESIAN_POINT('Ctrl Pts',(23.1375448324297,7.03801639783394,0.));
#1649=CARTESIAN_POINT('Ctrl Pts',(20.0056397644893,7.8564457046115,0.));
#1650=CARTESIAN_POINT('Ctrl Pts',(17.0500450533132,8.2529885785608,0.));
#1651=CARTESIAN_POINT('Ctrl Pts',(15.4985553873926,7.97391779952146,0.));
#1652=CARTESIAN_POINT('',(15.4985553873926,7.97391779952146,2000.));
#1653=CARTESIAN_POINT('',(15.4985553873926,7.97391779952146,2000.));
#1654=CARTESIAN_POINT('Ctrl Pts',(24.4985553873926,7.97391779952146,2000.));
#1655=CARTESIAN_POINT('Ctrl Pts',(23.1375448324297,7.03801639783394,2000.));
#1656=CARTESIAN_POINT('Ctrl Pts',(20.0056397644893,7.8564457046115,2000.));
#1657=CARTESIAN_POINT('Ctrl Pts',(17.0500450533132,8.2529885785608,2000.));
#1658=CARTESIAN_POINT('Ctrl Pts',(15.4985553873926,7.97391779952146,2000.));
#1659=CARTESIAN_POINT('Origin',(15.4985553873926,7.97391779952146,2000.));
#1660=CARTESIAN_POINT('',(15.4985553873926,6.97391779952146,0.));
#1661=CARTESIAN_POINT('',(15.4985553873926,7.97391779952146,0.));
#1662=CARTESIAN_POINT('',(15.4985553873926,6.97391779952146,2000.));
#1663=CARTESIAN_POINT('',(15.4985553873926,6.97391779952146,2000.));
#1664=CARTESIAN_POINT('',(15.4985553873926,7.97391779952146,2000.));
#1665=CARTESIAN_POINT('Origin',(15.4985553873926,6.97391779952146,2000.));
#1666=CARTESIAN_POINT('',(24.4985553873926,6.97391779952146,0.));
#1667=CARTESIAN_POINT('',(15.4985553873926,6.97391779952146,0.));
#1668=CARTESIAN_POINT('',(24.4985553873926,6.97391779952146,2000.));
#1669=CARTESIAN_POINT('',(24.4985553873926,6.97391779952146,2000.));
#1670=CARTESIAN_POINT('',(15.4985553873926,6.97391779952146,2000.));
#1671=CARTESIAN_POINT('Origin',(24.4985553873926,6.97391779952146,2000.));
#1672=CARTESIAN_POINT('',(24.4985553873926,2.,0.));
#1673=CARTESIAN_POINT('',(24.4985553873926,6.97391779952146,0.));
#1674=CARTESIAN_POINT('',(24.4985553873926,2.,2000.));
#1675=CARTESIAN_POINT('',(24.4985553873926,2.,2000.));
#1676=CARTESIAN_POINT('',(24.4985553873926,6.97391779952146,2000.));
#1677=CARTESIAN_POINT('Origin',(24.4985553873926,2.,2000.));
#1678=CARTESIAN_POINT('',(15.4985553873926,2.,0.));
#1679=CARTESIAN_POINT('',(24.4985553873926,2.,0.));
#1680=CARTESIAN_POINT('',(15.4985553873926,2.,2000.));
#1681=CARTESIAN_POINT('',(15.4985553873926,2.,2000.));
#1682=CARTESIAN_POINT('',(24.4985553873926,2.,2000.));
#1683=CARTESIAN_POINT('Origin',(15.4985553873926,2.,2000.));
#1684=CARTESIAN_POINT('',(15.4985553873926,2.,0.));
#1685=CARTESIAN_POINT('',(15.4985553873926,2.,2000.));
#1686=CARTESIAN_POINT('Origin',(17.9868018005396,0.30798111334623,2000.));
#1687=CARTESIAN_POINT('Origin',(17.9868018005396,0.30798111334623,0.));
#1688=UNCERTAINTY_MEASURE_WITH_UNIT(LENGTH_MEASURE(0.01),#1692,
'DISTANCE_ACCURACY_VALUE',
'Maximum model space distance between geometric entities at asserted c
onnectivities');
#1689=UNCERTAINTY_MEASURE_WITH_UNIT(LENGTH_MEASURE(0.01),#1692,
'DISTANCE_ACCURACY_VALUE',
'Maximum model space distance between geometric entities at asserted c
onnectivities');
#1690=(
GEOMETRIC_REPRESENTATION_CONTEXT(3)
GLOBAL_UNCERTAINTY_ASSIGNED_CONTEXT((#1688))
GLOBAL_UNIT_ASSIGNED_CONTEXT((#1692,#1694,#1695))
REPRESENTATION_CONTEXT('','3D')
);
#1691=(
GEOMETRIC_REPRESENTATION_CONTEXT(3)
GLOBAL_UNCERTAINTY_ASSIGNED_CONTEXT((#1689))
GLOBAL_UNIT_ASSIGNED_CONTEXT((#1692,#1694,#1695))
REPRESENTATION_CONTEXT('','3D')
);
#1692=(
LENGTH_UNIT()
NAMED_UNIT(*)
SI_UNIT(.MILLI.,.METRE.)
);
#1693=(
LENGTH_UNIT()
NAMED_UNIT(*)
SI_UNIT($,.METRE.)
);
#1694=(
NAMED_UNIT(*)
PLANE_ANGLE_UNIT()
SI_UNIT($,.RADIAN.)
);
#1695=(
NAMED_UNIT(*)
SI_UNIT($,.STERADIAN.)
SOLID_ANGLE_UNIT()
);
#1696=SHAPE_DEFINITION_REPRESENTATION(#1697,#1698);
#1697=PRODUCT_DEFINITION_SHAPE('',$,#1700);
#1698=SHAPE_REPRESENTATION('',(#1048),#1690);
#1699=PRODUCT_DEFINITION_CONTEXT('part definition',#1704,'design');
#1700=PRODUCT_DEFINITION('ALP4270','ALP4270 v2',#1701,#1699);
#1701=PRODUCT_DEFINITION_FORMATION('',$,#1706);
#1702=PRODUCT_RELATED_PRODUCT_CATEGORY('ALP4270 v2','ALP4270 v2',(#1706));
#1703=APPLICATION_PROTOCOL_DEFINITION('international standard',
'automotive_design',2009,#1704);
#1704=APPLICATION_CONTEXT(
'Core Data for Automotive Mechanical Design Process');
#1705=PRODUCT_CONTEXT('part definition',#1704,'mechanical');
#1706=PRODUCT('ALP4270','ALP4270 v2',$,(#1705));
#1707=PRESENTATION_STYLE_ASSIGNMENT((#1710));
#1708=PRESENTATION_STYLE_ASSIGNMENT((#1711));
#1709=PRESENTATION_STYLE_ASSIGNMENT((#1712));
#1710=SURFACE_STYLE_USAGE(.BOTH.,#1713);
#1711=SURFACE_STYLE_USAGE(.BOTH.,#1714);
#1712=SURFACE_STYLE_USAGE(.BOTH.,#1715);
#1713=SURFACE_SIDE_STYLE('',(#1716));
#1714=SURFACE_SIDE_STYLE('',(#1717));
#1715=SURFACE_SIDE_STYLE('',(#1718));
#1716=SURFACE_STYLE_FILL_AREA(#1719);
#1717=SURFACE_STYLE_FILL_AREA(#1720);
#1718=SURFACE_STYLE_FILL_AREA(#1721);
#1719=FILL_AREA_STYLE('Steel - Satin',(#1722));
#1720=FILL_AREA_STYLE('Opaque(202,209,238)',(#1723));
#1721=FILL_AREA_STYLE('Opaque(63,63,63)',(#1724));
#1722=FILL_AREA_STYLE_COLOUR('Steel - Satin',#1725);
#1723=FILL_AREA_STYLE_COLOUR('Opaque(202,209,238)',#1726);
#1724=FILL_AREA_STYLE_COLOUR('Opaque(63,63,63)',#1727);
#1725=COLOUR_RGB('Steel - Satin',0.627450980392157,0.627450980392157,0.627450980392157);
#1726=COLOUR_RGB('Opaque(202,209,238)',0.792156862745098,0.819607843137255,
0.933333333333333);
#1727=COLOUR_RGB('Opaque(63,63,63)',0.250980392156863,0.250980392156863,
0.250980392156863);
ENDSEC;
END-ISO-10303-21;
