ISO-10303-21;
HEADER;
FILE_DESCRIPTION (( 'STEP AP203' ),
    '1' );
FILE_NAME ('ALP4210.STEP',
    '2017-03-10T17:35:42',
    ( '' ),
    ( '' ),
    'SwSTEP 2.0',
    'SolidWorks 2012',
    '' );
FILE_SCHEMA (( 'CONFIG_CONTROL_DESIGN' ));
ENDSEC;

DATA;
#1 = MANIFOLD_SOLID_BREP ( 'Boss-Extrude1', #464 ) ;
#2 = ADVANCED_BREP_SHAPE_REPRESENTATION ( 'ALP4210', ( #1, #137 ), #159 ) ;
#3 = UNCERTAINTY_MEASURE_WITH_UNIT (LENGTH_MEASURE( 1.000000000000000100E-005 ), #883, 'distance_accuracy_value', 'NONE');
#4 = EDGE_CURVE ( 'NONE', #536, #553, #612, .T. ) ;
#5 = EDGE_CURVE ( 'NONE', #508, #544, #613, .T. ) ;
#6 = EDGE_CURVE ( 'NONE', #548, #537, #571, .T. ) ;
#7 = EDGE_CURVE ( 'NONE', #524, #525, #572, .T. ) ;
#8 = EDGE_CURVE ( 'NONE', #518, #552, #595, .T. ) ;
#9 = EDGE_CURVE ( 'NONE', #538, #533, #592, .T. ) ;
#10 = EDGE_CURVE ( 'NONE', #547, #541, #599, .T. ) ;
#11 = EDGE_CURVE ( 'NONE', #525, #523, #578, .T. ) ;
#12 = EDGE_CURVE ( 'NONE', #523, #533, #608, .T. ) ;
#13 = EDGE_CURVE ( 'NONE', #556, #508, #596, .T. ) ;
#14 = EDGE_CURVE ( 'NONE', #516, #559, #584, .T. ) ;
#15 = EDGE_CURVE ( 'NONE', #508, #518, #569, .T. ) ;
#16 = EDGE_CURVE ( 'NONE', #529, #534, #576, .T. ) ;
#17 = EDGE_CURVE ( 'NONE', #541, #531, #616, .T. ) ;
#18 = EDGE_CURVE ( 'NONE', #551, #557, #577, .T. ) ;
#19 = EDGE_CURVE ( 'NONE', #525, #538, #588, .T. ) ;
#20 = EDGE_CURVE ( 'NONE', #561, #543, #603, .T. ) ;
#21 = EDGE_CURVE ( 'NONE', #533, #534, #623, .T. ) ;
#22 = EDGE_CURVE ( 'NONE', #562, #547, #579, .T. ) ;
#23 = EDGE_CURVE ( 'NONE', #532, #561, #594, .T. ) ;
#24 = EDGE_CURVE ( 'NONE', #537, #563, #604, .T. ) ;
#25 = EDGE_CURVE ( 'NONE', #547, #557, #593, .T. ) ;
#26 = EDGE_CURVE ( 'NONE', #563, #540, #615, .T. ) ;
#27 = EDGE_CURVE ( 'NONE', #507, #546, #582, .T. ) ;
#28 = EDGE_CURVE ( 'NONE', #531, #550, #610, .T. ) ;
#29 = EDGE_CURVE ( 'NONE', #550, #524, #641, .T. ) ;
#30 = EDGE_CURVE ( 'NONE', #520, #549, #626, .T. ) ;
#31 = EDGE_CURVE ( 'NONE', #515, #538, #653, .T. ) ;
#32 = EDGE_CURVE ( 'NONE', #531, #536, #649, .T. ) ;
#33 = EDGE_CURVE ( 'NONE', #589, #568, #638, .T. ) ;
#34 = EDGE_CURVE ( 'NONE', #591, #520, #662, .T. ) ;
#35 = EDGE_CURVE ( 'NONE', #546, #559, #645, .T. ) ;
#36 = EDGE_CURVE ( 'NONE', #617, #618, #656, .T. ) ;
#37 = EDGE_CURVE ( 'NONE', #517, #502, #634, .T. ) ;
#38 = EDGE_CURVE ( 'NONE', #549, #540, #627, .T. ) ;
#39 = EDGE_CURVE ( 'NONE', #559, #551, #642, .T. ) ;
#40 = EDGE_CURVE ( 'NONE', #530, #570, #658, .T. ) ;
#41 = EDGE_CURVE ( 'NONE', #517, #539, #630, .T. ) ;
#42 = EDGE_CURVE ( 'NONE', #522, #561, #660, .T. ) ;
#43 = EDGE_CURVE ( 'NONE', #587, #597, #640, .T. ) ;
#44 = EDGE_CURVE ( 'NONE', #550, #553, #659, .T. ) ;
#45 = EDGE_CURVE ( 'NONE', #511, #560, #635, .T. ) ;
#46 = EDGE_CURVE ( 'NONE', #504, #530, #652, .T. ) ;
#47 = EDGE_CURVE ( 'NONE', #553, #515, #663, .T. ) ;
#48 = EDGE_CURVE ( 'NONE', #519, #532, #631, .T. ) ;
#49 = EDGE_CURVE ( 'NONE', #563, #519, #633, .T. ) ;
#50 = EDGE_CURVE ( 'NONE', #537, #549, #644, .T. ) ;
#51 = EDGE_CURVE ( 'NONE', #524, #515, #705, .T. ) ;
#52 = EDGE_CURVE ( 'NONE', #589, #618, #700, .T. ) ;
#53 = EDGE_CURVE ( 'NONE', #532, #556, #689, .T. ) ;
#54 = EDGE_CURVE ( 'NONE', #510, #504, #703, .T. ) ;
#55 = EDGE_CURVE ( 'NONE', #527, #536, #676, .T. ) ;
#56 = EDGE_CURVE ( 'NONE', #519, #522, #687, .T. ) ;
#57 = EDGE_CURVE ( 'NONE', #556, #543, #720, .T. ) ;
#58 = EDGE_CURVE ( 'NONE', #544, #507, #721, .T. ) ;
#59 = EDGE_CURVE ( 'NONE', #552, #516, #702, .T. ) ;
#60 = EDGE_CURVE ( 'NONE', #540, #522, #695, .T. ) ;
#61 = EDGE_CURVE ( 'NONE', #543, #518, #708, .T. ) ;
#62 = EDGE_CURVE ( 'NONE', #587, #574, #683, .T. ) ;
#63 = EDGE_CURVE ( 'NONE', #535, #574, #725, .T. ) ;
#64 = EDGE_CURVE ( 'NONE', #503, #542, #682, .T. ) ;
#65 = EDGE_CURVE ( 'NONE', #590, #548, #696, .T. ) ;
#66 = EDGE_CURVE ( 'NONE', #534, #502, #692, .T. ) ;
#67 = EDGE_CURVE ( 'NONE', #507, #516, #674, .T. ) ;
#68 = EDGE_CURVE ( 'NONE', #562, #551, #709, .T. ) ;
#69 = EDGE_CURVE ( 'NONE', #567, #535, #697, .T. ) ;
#70 = EDGE_CURVE ( 'NONE', #502, #509, #704, .T. ) ;
#71 = EDGE_CURVE ( 'NONE', #597, #589, #722, .T. ) ;
#72 = EDGE_CURVE ( 'NONE', #590, #591, #714, .T. ) ;
#73 = EDGE_CURVE ( 'NONE', #503, #504, #716, .T. ) ;
#74 = EDGE_CURVE ( 'NONE', #509, #528, #673, .T. ) ;
#75 = EDGE_CURVE ( 'NONE', #544, #552, #719, .T. ) ;
#76 = EDGE_CURVE ( 'NONE', #570, #581, #665, .T. ) ;
#77 = EDGE_CURVE ( 'NONE', #514, #581, #672, .T. ) ;
#78 = EDGE_CURVE ( 'NONE', #560, #503, #668, .T. ) ;
#79 = EDGE_CURVE ( 'NONE', #557, #527, #723, .T. ) ;
#80 = EDGE_CURVE ( 'NONE', #548, #520, #713, .T. ) ;
#81 = EDGE_CURVE ( 'NONE', #541, #527, #680, .T. ) ;
#82 = EDGE_CURVE ( 'NONE', #566, #591, #739, .T. ) ;
#83 = EDGE_CURVE ( 'NONE', #539, #509, #742, .T. ) ;
#84 = EDGE_CURVE ( 'NONE', #546, #562, #764, .T. ) ;
#85 = EDGE_CURVE ( 'NONE', #618, #566, #750, .T. ) ;
#86 = EDGE_CURVE ( 'NONE', #574, #617, #757, .T. ) ;
#87 = AXIS2_PLACEMENT_3D ( 'NONE', #1093, #1101, #1084 ) ;
#88 = AXIS2_PLACEMENT_3D ( 'NONE', #1133, #1111, #1130 ) ;
#89 = AXIS2_PLACEMENT_3D ( 'NONE', #1157, #1142, #1148 ) ;
#90 = AXIS2_PLACEMENT_3D ( 'NONE', #1163, #1152, #1149 ) ;
#91 = EDGE_CURVE ( 'NONE', #575, #514, #746, .T. ) ;
#92 = AXIS2_PLACEMENT_3D ( 'NONE', #1136, #1140, #1116 ) ;
#93 = EDGE_CURVE ( 'NONE', #514, #567, #760, .T. ) ;
#94 = EDGE_CURVE ( 'NONE', #560, #510, #749, .T. ) ;
#95 = AXIS2_PLACEMENT_3D ( 'NONE', #1150, #1159, #1160 ) ;
#96 = AXIS2_PLACEMENT_3D ( 'NONE', #1147, #1151, #1153 ) ;
#97 = AXIS2_PLACEMENT_3D ( 'NONE', #1190, #1198, #1180 ) ;
#98 = EDGE_CURVE ( 'NONE', #568, #566, #743, .T. ) ;
#99 = AXIS2_PLACEMENT_3D ( 'NONE', #1126, #1108, #1109 ) ;
#100 = AXIS2_PLACEMENT_3D ( 'NONE', #1206, #1199, #1175 ) ;
#101 = EDGE_CURVE ( 'NONE', #528, #510, #733, .T. ) ;
#102 = EDGE_CURVE ( 'NONE', #539, #511, #728, .T. ) ;
#103 = AXIS2_PLACEMENT_3D ( 'NONE', #936, #923, #909 ) ;
#104 = AXIS2_PLACEMENT_3D ( 'NONE', #1011, #1013, #1004 ) ;
#105 = AXIS2_PLACEMENT_3D ( 'NONE', #1165, #1156, #1144 ) ;
#106 = AXIS2_PLACEMENT_3D ( 'NONE', #1207, #1189, #1187 ) ;
#107 = AXIS2_PLACEMENT_3D ( 'NONE', #1036, #1038, #1041 ) ;
#108 = AXIS2_PLACEMENT_3D ( 'NONE', #1155, #1196, #1204 ) ;
#109 = EDGE_CURVE ( 'NONE', #511, #528, #768, .T. ) ;
#110 = AXIS2_PLACEMENT_3D ( 'NONE', #1075, #1105, #1089 ) ;
#111 = EDGE_CURVE ( 'NONE', #542, #575, #752, .T. ) ;
#112 = EDGE_CURVE ( 'NONE', #575, #570, #759, .T. ) ;
#113 = AXIS2_PLACEMENT_3D ( 'NONE', #1135, #1112, #1118 ) ;
#114 = AXIS2_PLACEMENT_3D ( 'NONE', #930, #935, #931 ) ;
#115 = EDGE_CURVE ( 'NONE', #581, #535, #737, .T. ) ;
#116 = EDGE_CURVE ( 'NONE', #567, #587, #766, .T. ) ;
#117 = EDGE_CURVE ( 'NONE', #523, #529, #727, .T. ) ;
#118 = EDGE_CURVE ( 'NONE', #529, #517, #767, .T. ) ;
#119 = EDGE_CURVE ( 'NONE', #597, #617, #729, .T. ) ;
#120 = EDGE_CURVE ( 'NONE', #568, #590, #736, .T. ) ;
#121 = AXIS2_PLACEMENT_3D ( 'NONE', #912, #941, #908 ) ;
#122 = AXIS2_PLACEMENT_3D ( 'NONE', #929, #916, #914 ) ;
#123 = AXIS2_PLACEMENT_3D ( 'NONE', #1001, #994, #990 ) ;
#124 = AXIS2_PLACEMENT_3D ( 'NONE', #1104, #1097, #1106 ) ;
#125 = AXIS2_PLACEMENT_3D ( 'NONE', #1124, #1129, #1139 ) ;
#126 = AXIS2_PLACEMENT_3D ( 'NONE', #926, #913, #939 ) ;
#127 = AXIS2_PLACEMENT_3D ( 'NONE', #1134, #1121, #1115 ) ;
#128 = AXIS2_PLACEMENT_3D ( 'NONE', #905, #924, #927 ) ;
#129 = AXIS2_PLACEMENT_3D ( 'NONE', #1103, #1096, #1099 ) ;
#130 = AXIS2_PLACEMENT_3D ( 'NONE', #949, #950, #980 ) ;
#131 = AXIS2_PLACEMENT_3D ( 'NONE', #1141, #1161, #1162 ) ;
#132 = EDGE_CURVE ( 'NONE', #542, #530, #731, .T. ) ;
#133 = AXIS2_PLACEMENT_3D ( 'NONE', #1145, #1166, #1168 ) ;
#134 = AXIS2_PLACEMENT_3D ( 'NONE', #810, #806, #780 ) ;
#135 = PRODUCT_DEFINITION ( 'UNKNOWN', '', #143, #173 ) ;
#136 = AXIS2_PLACEMENT_3D ( 'NONE', #1193, #1177, #1194 ) ;
#137 = AXIS2_PLACEMENT_3D ( 'NONE', #880, #887, #865 ) ;
#138 = CC_DESIGN_DATE_AND_TIME_ASSIGNMENT ( #256, #862, ( #135 ) ) ;
#139 = APPROVAL ( #873, 'UNSPECIFIED' ) ;
#140 = AXIS2_PLACEMENT_3D ( 'NONE', #1178, #1188, #1200 ) ;
#141 = AXIS2_PLACEMENT_3D ( 'NONE', #1184, #1203, #1174 ) ;
#142 = AXIS2_PLACEMENT_3D ( 'NONE', #783, #784, #774 ) ;
#143 = PRODUCT_DEFINITION_FORMATION_WITH_SPECIFIED_SOURCE ( 'ANY', '', #771, .NOT_KNOWN. ) ;
#144 = AXIS2_PLACEMENT_3D ( 'NONE', #785, #777, #773 ) ;
#145 = CC_DESIGN_DATE_AND_TIME_ASSIGNMENT ( #276, #861, ( #170 ) ) ;
#146 = AXIS2_PLACEMENT_3D ( 'NONE', #782, #800, #798 ) ;
#147 = CC_DESIGN_APPROVAL ( #168, ( #135 ) ) ;
#148 = AXIS2_PLACEMENT_3D ( 'NONE', #1179, #1197, #1185 ) ;
#149 = CC_DESIGN_PERSON_AND_ORGANIZATION_ASSIGNMENT ( #261, #869, ( #170 ) ) ;
#150 = CC_DESIGN_APPROVAL ( #139, ( #143 ) ) ;
#151 = CC_DESIGN_APPROVAL ( #153, ( #170 ) ) ;
#152 = AXIS2_PLACEMENT_3D ( 'NONE', #796, #829, #842 ) ;
#153 = APPROVAL ( #874, 'UNSPECIFIED' ) ;
#154 = AXIS2_PLACEMENT_3D ( 'NONE', #801, #802, #787 ) ;
#155 = CC_DESIGN_PERSON_AND_ORGANIZATION_ASSIGNMENT ( #212, #886, ( #135 ) ) ;
#156 = AXIS2_PLACEMENT_3D ( 'NONE', #775, #794, #795 ) ;
#157 = CC_DESIGN_SECURITY_CLASSIFICATION ( #170, ( #143 ) ) ;
#158 = PRODUCT_RELATED_PRODUCT_CATEGORY ( 'detail', '', ( #771 ) ) ;
#159 =( GEOMETRIC_REPRESENTATION_CONTEXT ( 3 ) GLOBAL_UNCERTAINTY_ASSIGNED_CONTEXT ( ( #3 ) ) GLOBAL_UNIT_ASSIGNED_CONTEXT ( ( #883, #885, #892 ) ) REPRESENTATION_CONTEXT ( 'NONE', 'WORKASPACE' ) );
#160 = CC_DESIGN_PERSON_AND_ORGANIZATION_ASSIGNMENT ( #263, #860, ( #143 ) ) ;
#161 = AXIS2_PLACEMENT_3D ( 'NONE', #803, #808, #778 ) ;
#162 = AXIS2_PLACEMENT_3D ( 'NONE', #809, #811, #792 ) ;
#163 = AXIS2_PLACEMENT_3D ( 'NONE', #1191, #1205, #1192 ) ;
#164 = AXIS2_PLACEMENT_3D ( 'NONE', #788, #793, #804 ) ;
#165 = CC_DESIGN_PERSON_AND_ORGANIZATION_ASSIGNMENT ( #222, #893, ( #771 ) ) ;
#166 = AXIS2_PLACEMENT_3D ( 'NONE', #1201, #1195, #1202 ) ;
#167 = AXIS2_PLACEMENT_3D ( 'NONE', #1183, #1176, #1208 ) ;
#168 = APPROVAL ( #903, 'UNSPECIFIED' ) ;
#169 = CC_DESIGN_PERSON_AND_ORGANIZATION_ASSIGNMENT ( #265, #859, ( #143 ) ) ;
#170 = SECURITY_CLASSIFICATION ( '', '', #877 ) ;
#171 = AXIS2_PLACEMENT_3D ( 'NONE', #791, #786, #807 ) ;
#172 = PRODUCT_DEFINITION_SHAPE ( 'NONE', 'NONE',  #135 ) ;
#173 = DESIGN_CONTEXT ( 'detailed design', #870, 'design' ) ;
#174 = ADVANCED_FACE ( 'NONE', ( #734 ), #1131, .F. ) ;
#175 = ADVANCED_FACE ( 'NONE', ( #748 ), #1125, .F. ) ;
#176 = ADVANCED_FACE ( 'NONE', ( #738 ), #1114, .F. ) ;
#177 = ADVANCED_FACE ( 'NONE', ( #740 ), #254, .T. ) ;
#178 = ADVANCED_FACE ( 'NONE', ( #735 ), #1117, .F. ) ;
#179 = ADVANCED_FACE ( 'NONE', ( #770 ), #1120, .F. ) ;
#180 = ADVANCED_FACE ( 'NONE', ( #769 ), #1119, .F. ) ;
#181 = ADVANCED_FACE ( 'NONE', ( #248 ), #226, .T. ) ;
#182 = ADVANCED_FACE ( 'NONE', ( #228 ), #1158, .F. ) ;
#183 = ADVANCED_FACE ( 'NONE', ( #242 ), #1164, .F. ) ;
#184 = ADVANCED_FACE ( 'NONE', ( #235 ), #1167, .T. ) ;
#185 = ADVANCED_FACE ( 'NONE', ( #230 ), #1146, .F. ) ;
#186 = ADVANCED_FACE ( 'NONE', ( #255 ), #1143, .F. ) ;
#187 = ADVANCED_FACE ( 'NONE', ( #250 ), #1154, .F. ) ;
#188 = ADVANCED_FACE ( 'NONE', ( #217 ), #1181, .F. ) ;
#189 = ADVANCED_FACE ( 'NONE', ( #253 ), #1170, .F. ) ;
#190 = ADVANCED_FACE ( 'NONE', ( #227 ), #1169, .F. ) ;
#191 = ADVANCED_FACE ( 'NONE', ( #214 ), #1171, .F. ) ;
#192 = ADVANCED_FACE ( 'NONE', ( #215 ), #213, .T. ) ;
#193 = ADVANCED_FACE ( 'NONE', ( #244 ), #1186, .F. ) ;
#194 = ADVANCED_FACE ( 'NONE', ( #240 ), #245, .T. ) ;
#195 = ADVANCED_FACE ( 'NONE', ( #209 ), #1182, .F. ) ;
#196 = ADVANCED_FACE ( 'NONE', ( #232 ), #239, .T. ) ;
#197 = ADVANCED_FACE ( 'NONE', ( #216 ), #1172, .F. ) ;
#198 = ADVANCED_FACE ( 'NONE', ( #220 ), #1173, .F. ) ;
#199 = ADVANCED_FACE ( 'NONE', ( #221 ), #779, .F. ) ;
#200 = ADVANCED_FACE ( 'NONE', ( #231 ), #797, .F. ) ;
#201 = ADVANCED_FACE ( 'NONE', ( #229 ), #790, .F. ) ;
#202 = ADVANCED_FACE ( 'NONE', ( #237 ), #799, .F. ) ;
#203 = ADVANCED_FACE ( 'NONE', ( #246 ), #249, .T. ) ;
#204 = ADVANCED_FACE ( 'NONE', ( #233 ), #805, .F. ) ;
#205 = ADVANCED_FACE ( 'NONE', ( #236 ), #789, .F. ) ;
#206 = ADVANCED_FACE ( 'NONE', ( #251 ), #218, .T. ) ;
#207 = ADVANCED_FACE ( 'NONE', ( #252 ), #781, .F. ) ;
#208 = ADVANCED_FACE ( 'NONE', ( #234 ), #776, .F. ) ;
#209 = FACE_OUTER_BOUND ( 'NONE', #487, .T. ) ;
#210 = PERSON_AND_ORGANIZATION ( #772, #243 ) ;
#211 = DATE_AND_TIME ( #247, #241 ) ;
#212 = PERSON_AND_ORGANIZATION ( #772, #243 ) ;
#213 = CYLINDRICAL_SURFACE ( 'NONE', #140, 0.7999999999999990500 ) ;
#214 = FACE_OUTER_BOUND ( 'NONE', #452, .T. ) ;
#215 = FACE_OUTER_BOUND ( 'NONE', #506, .T. ) ;
#216 = FACE_OUTER_BOUND ( 'NONE', #491, .T. ) ;
#217 = FACE_OUTER_BOUND ( 'NONE', #480, .T. ) ;
#218 = CYLINDRICAL_SURFACE ( 'NONE', #156, 0.5000000000000013300 ) ;
#219 = SHAPE_DEFINITION_REPRESENTATION ( #172, #2 ) ;
#220 = FACE_OUTER_BOUND ( 'NONE', #440, .T. ) ;
#221 = FACE_OUTER_BOUND ( 'NONE', #441, .T. ) ;
#222 = PERSON_AND_ORGANIZATION ( #772, #243 ) ;
#223 = APPROVAL_PERSON_ORGANIZATION ( #210, #168, #864 ) ;
#224 = APPROVAL_DATE_TIME ( #211, #168 ) ;
#225 = COORDINATED_UNIVERSAL_TIME_OFFSET ( 1, 0, .AHEAD. ) ;
#226 = CYLINDRICAL_SURFACE ( 'NONE', #133, 0.8000000000000012700 ) ;
#227 = FACE_OUTER_BOUND ( 'NONE', #558, .T. ) ;
#228 = FACE_OUTER_BOUND ( 'NONE', #565, .T. ) ;
#229 = FACE_OUTER_BOUND ( 'NONE', #484, .T. ) ;
#230 = FACE_OUTER_BOUND ( 'NONE', #454, .T. ) ;
#231 = FACE_OUTER_BOUND ( 'NONE', #481, .T. ) ;
#232 = FACE_OUTER_BOUND ( 'NONE', #497, .T. ) ;
#233 = FACE_OUTER_BOUND ( 'NONE', #493, .T. ) ;
#234 = FACE_OUTER_BOUND ( 'NONE', #564, .T. ) ;
#235 = FACE_OUTER_BOUND ( 'NONE', #498, .T. ) ;
#236 = FACE_OUTER_BOUND ( 'NONE', #461, .T. ) ;
#237 = FACE_OUTER_BOUND ( 'NONE', #486, .T. ) ;
#238 = COORDINATED_UNIVERSAL_TIME_OFFSET ( 1, 0, .AHEAD. ) ;
#239 = CYLINDRICAL_SURFACE ( 'NONE', #166, 0.5000000000000026600 ) ;
#240 = FACE_OUTER_BOUND ( 'NONE', #555, .T. ) ;
#241 = LOCAL_TIME ( 18, 35, 42.00000000000000000, #238 ) ;
#242 = FACE_OUTER_BOUND ( 'NONE', #513, .T. ) ;
#243 = ORGANIZATION ( 'UNSPECIFIED', 'UNSPECIFIED', '' ) ;
#244 = FACE_OUTER_BOUND ( 'NONE', #444, .T. ) ;
#245 = CYLINDRICAL_SURFACE ( 'NONE', #136, 0.7999999999999990500 ) ;
#246 = FACE_OUTER_BOUND ( 'NONE', #485, .T. ) ;
#247 = CALENDAR_DATE ( 2017, 10, 3 ) ;
#248 = FACE_OUTER_BOUND ( 'NONE', #521, .T. ) ;
#249 = CYLINDRICAL_SURFACE ( 'NONE', #144, 0.5000000000000026600 ) ;
#250 = FACE_OUTER_BOUND ( 'NONE', #505, .T. ) ;
#251 = FACE_OUTER_BOUND ( 'NONE', #443, .T. ) ;
#252 = FACE_OUTER_BOUND ( 'NONE', #445, .T. ) ;
#253 = FACE_OUTER_BOUND ( 'NONE', #466, .T. ) ;
#254 = CYLINDRICAL_SURFACE ( 'NONE', #113, 0.5000000000000013300 ) ;
#255 = FACE_OUTER_BOUND ( 'NONE', #446, .T. ) ;
#256 = DATE_AND_TIME ( #272, #262 ) ;
#257 = PERSON_AND_ORGANIZATION ( #772, #243 ) ;
#258 = APPROVAL_DATE_TIME ( #274, #139 ) ;
#259 = LOCAL_TIME ( 18, 35, 42.00000000000000000, #278 ) ;
#260 = LOCAL_TIME ( 18, 35, 42.00000000000000000, #266 ) ;
#261 = PERSON_AND_ORGANIZATION ( #772, #243 ) ;
#262 = LOCAL_TIME ( 18, 35, 42.00000000000000000, #225 ) ;
#263 = PERSON_AND_ORGANIZATION ( #772, #243 ) ;
#264 = APPROVAL_PERSON_ORGANIZATION ( #257, #139, #889 ) ;
#265 = PERSON_AND_ORGANIZATION ( #772, #243 ) ;
#266 = COORDINATED_UNIVERSAL_TIME_OFFSET ( 1, 0, .AHEAD. ) ;
#267 = CALENDAR_DATE ( 2017, 10, 3 ) ;
#268 = COORDINATED_UNIVERSAL_TIME_OFFSET ( 1, 0, .AHEAD. ) ;
#269 = APPROVAL_PERSON_ORGANIZATION ( #277, #153, #888 ) ;
#270 = CALENDAR_DATE ( 2017, 10, 3 ) ;
#271 = APPROVAL_DATE_TIME ( #275, #153 ) ;
#272 = CALENDAR_DATE ( 2017, 10, 3 ) ;
#273 = LOCAL_TIME ( 18, 35, 42.00000000000000000, #268 ) ;
#274 = DATE_AND_TIME ( #279, #273 ) ;
#275 = DATE_AND_TIME ( #270, #259 ) ;
#276 = DATE_AND_TIME ( #267, #260 ) ;
#277 = PERSON_AND_ORGANIZATION ( #772, #243 ) ;
#278 = COORDINATED_UNIVERSAL_TIME_OFFSET ( 1, 0, .AHEAD. ) ;
#279 = CALENDAR_DATE ( 2017, 10, 3 ) ;
#280 = ORIENTED_EDGE ( 'NONE', *, *, #50, .F. ) ;
#281 = ORIENTED_EDGE ( 'NONE', *, *, #15, .F. ) ;
#282 = ORIENTED_EDGE ( 'NONE', *, *, #67, .T. ) ;
#283 = ORIENTED_EDGE ( 'NONE', *, *, #61, .T. ) ;
#284 = ORIENTED_EDGE ( 'NONE', *, *, #5, .F. ) ;
#285 = ORIENTED_EDGE ( 'NONE', *, *, #20, .T. ) ;
#286 = ORIENTED_EDGE ( 'NONE', *, *, #67, .F. ) ;
#287 = ORIENTED_EDGE ( 'NONE', *, *, #59, .T. ) ;
#288 = ORIENTED_EDGE ( 'NONE', *, *, #6, .F. ) ;
#289 = ORIENTED_EDGE ( 'NONE', *, *, #14, .T. ) ;
#290 = ORIENTED_EDGE ( 'NONE', *, *, #26, .F. ) ;
#291 = ORIENTED_EDGE ( 'NONE', *, *, #75, .T. ) ;
#292 = ORIENTED_EDGE ( 'NONE', *, *, #48, .F. ) ;
#293 = ORIENTED_EDGE ( 'NONE', *, *, #50, .T. ) ;
#294 = ORIENTED_EDGE ( 'NONE', *, *, #38, .T. ) ;
#295 = ORIENTED_EDGE ( 'NONE', *, *, #57, .T. ) ;
#296 = ORIENTED_EDGE ( 'NONE', *, *, #35, .F. ) ;
#297 = ORIENTED_EDGE ( 'NONE', *, *, #42, .T. ) ;
#298 = ORIENTED_EDGE ( 'NONE', *, *, #26, .T. ) ;
#299 = ORIENTED_EDGE ( 'NONE', *, *, #30, .T. ) ;
#300 = ORIENTED_EDGE ( 'NONE', *, *, #56, .T. ) ;
#301 = ORIENTED_EDGE ( 'NONE', *, *, #27, .F. ) ;
#302 = ORIENTED_EDGE ( 'NONE', *, *, #15, .T. ) ;
#303 = ORIENTED_EDGE ( 'NONE', *, *, #53, .F. ) ;
#304 = ORIENTED_EDGE ( 'NONE', *, *, #80, .T. ) ;
#305 = ORIENTED_EDGE ( 'NONE', *, *, #75, .F. ) ;
#306 = ORIENTED_EDGE ( 'NONE', *, *, #23, .T. ) ;
#307 = ORIENTED_EDGE ( 'NONE', *, *, #23, .F. ) ;
#308 = ORIENTED_EDGE ( 'NONE', *, *, #57, .F. ) ;
#309 = ORIENTED_EDGE ( 'NONE', *, *, #39, .T. ) ;
#310 = ORIENTED_EDGE ( 'NONE', *, *, #13, .F. ) ;
#311 = ORIENTED_EDGE ( 'NONE', *, *, #24, .F. ) ;
#312 = ORIENTED_EDGE ( 'NONE', *, *, #49, .F. ) ;
#313 = ORIENTED_EDGE ( 'NONE', *, *, #56, .F. ) ;
#314 = ORIENTED_EDGE ( 'NONE', *, *, #58, .F. ) ;
#315 = ORIENTED_EDGE ( 'NONE', *, *, #60, .T. ) ;
#316 = ORIENTED_EDGE ( 'NONE', *, *, #70, .T. ) ;
#317 = ORIENTED_EDGE ( 'NONE', *, *, #35, .T. ) ;
#318 = ORIENTED_EDGE ( 'NONE', *, *, #81, .F. ) ;
#319 = ORIENTED_EDGE ( 'NONE', *, *, #32, .T. ) ;
#320 = ORIENTED_EDGE ( 'NONE', *, *, #44, .T. ) ;
#321 = ORIENTED_EDGE ( 'NONE', *, *, #10, .F. ) ;
#322 = ORIENTED_EDGE ( 'NONE', *, *, #31, .T. ) ;
#323 = ORIENTED_EDGE ( 'NONE', *, *, #21, .T. ) ;
#324 = ORIENTED_EDGE ( 'NONE', *, *, #11, .F. ) ;
#325 = ORIENTED_EDGE ( 'NONE', *, *, #117, .F. ) ;
#326 = ORIENTED_EDGE ( 'NONE', *, *, #22, .F. ) ;
#327 = ORIENTED_EDGE ( 'NONE', *, *, #44, .F. ) ;
#328 = ORIENTED_EDGE ( 'NONE', *, *, #83, .F. ) ;
#329 = ORIENTED_EDGE ( 'NONE', *, *, #81, .T. ) ;
#330 = ORIENTED_EDGE ( 'NONE', *, *, #28, .F. ) ;
#331 = ORIENTED_EDGE ( 'NONE', *, *, #51, .T. ) ;
#332 = ORIENTED_EDGE ( 'NONE', *, *, #66, .T. ) ;
#333 = ORIENTED_EDGE ( 'NONE', *, *, #109, .F. ) ;
#334 = ORIENTED_EDGE ( 'NONE', *, *, #16, .T. ) ;
#335 = ORIENTED_EDGE ( 'NONE', *, *, #37, .F. ) ;
#336 = ORIENTED_EDGE ( 'NONE', *, *, #79, .T. ) ;
#337 = ORIENTED_EDGE ( 'NONE', *, *, #25, .T. ) ;
#338 = ORIENTED_EDGE ( 'NONE', *, *, #10, .T. ) ;
#339 = ORIENTED_EDGE ( 'NONE', *, *, #17, .F. ) ;
#340 = ORIENTED_EDGE ( 'NONE', *, *, #74, .T. ) ;
#341 = ORIENTED_EDGE ( 'NONE', *, *, #45, .F. ) ;
#342 = ORIENTED_EDGE ( 'NONE', *, *, #101, .T. ) ;
#343 = ORIENTED_EDGE ( 'NONE', *, *, #29, .F. ) ;
#344 = ORIENTED_EDGE ( 'NONE', *, *, #25, .F. ) ;
#345 = ORIENTED_EDGE ( 'NONE', *, *, #94, .F. ) ;
#346 = ORIENTED_EDGE ( 'NONE', *, *, #18, .T. ) ;
#347 = ORIENTED_EDGE ( 'NONE', *, *, #55, .T. ) ;
#348 = ORIENTED_EDGE ( 'NONE', *, *, #68, .F. ) ;
#349 = ORIENTED_EDGE ( 'NONE', *, *, #68, .T. ) ;
#350 = ORIENTED_EDGE ( 'NONE', *, *, #19, .F. ) ;
#351 = ORIENTED_EDGE ( 'NONE', *, *, #118, .F. ) ;
#352 = ORIENTED_EDGE ( 'NONE', *, *, #8, .T. ) ;
#353 = ORIENTED_EDGE ( 'NONE', *, *, #16, .F. ) ;
#354 = ORIENTED_EDGE ( 'NONE', *, *, #12, .F. ) ;
#355 = ORIENTED_EDGE ( 'NONE', *, *, #32, .F. ) ;
#356 = ORIENTED_EDGE ( 'NONE', *, *, #83, .T. ) ;
#357 = ORIENTED_EDGE ( 'NONE', *, *, #102, .F. ) ;
#358 = ORIENTED_EDGE ( 'NONE', *, *, #84, .F. ) ;
#359 = ORIENTED_EDGE ( 'NONE', *, *, #4, .T. ) ;
#360 = ORIENTED_EDGE ( 'NONE', *, *, #9, .T. ) ;
#361 = ORIENTED_EDGE ( 'NONE', *, *, #27, .T. ) ;
#362 = ORIENTED_EDGE ( 'NONE', *, *, #37, .T. ) ;
#363 = ORIENTED_EDGE ( 'NONE', *, *, #17, .T. ) ;
#364 = ORIENTED_EDGE ( 'NONE', *, *, #12, .T. ) ;
#365 = ORIENTED_EDGE ( 'NONE', *, *, #24, .T. ) ;
#366 = ORIENTED_EDGE ( 'NONE', *, *, #28, .T. ) ;
#367 = ORIENTED_EDGE ( 'NONE', *, *, #47, .T. ) ;
#368 = ORIENTED_EDGE ( 'NONE', *, *, #51, .F. ) ;
#369 = ORIENTED_EDGE ( 'NONE', *, *, #19, .T. ) ;
#370 = ORIENTED_EDGE ( 'NONE', *, *, #72, .T. ) ;
#371 = ORIENTED_EDGE ( 'NONE', *, *, #22, .T. ) ;
#372 = ORIENTED_EDGE ( 'NONE', *, *, #7, .F. ) ;
#373 = ORIENTED_EDGE ( 'NONE', *, *, #41, .F. ) ;
#374 = ORIENTED_EDGE ( 'NONE', *, *, #120, .T. ) ;
#375 = ORIENTED_EDGE ( 'NONE', *, *, #116, .T. ) ;
#376 = ORIENTED_EDGE ( 'NONE', *, *, #65, .T. ) ;
#377 = ORIENTED_EDGE ( 'NONE', *, *, #80, .F. ) ;
#378 = ORIENTED_EDGE ( 'NONE', *, *, #84, .T. ) ;
#379 = ORIENTED_EDGE ( 'NONE', *, *, #48, .T. ) ;
#380 = ORIENTED_EDGE ( 'NONE', *, *, #94, .T. ) ;
#381 = ORIENTED_EDGE ( 'NONE', *, *, #101, .F. ) ;
#382 = ORIENTED_EDGE ( 'NONE', *, *, #79, .F. ) ;
#383 = ORIENTED_EDGE ( 'NONE', *, *, #40, .T. ) ;
#384 = ORIENTED_EDGE ( 'NONE', *, *, #33, .F. ) ;
#385 = ORIENTED_EDGE ( 'NONE', *, *, #119, .T. ) ;
#386 = ORIENTED_EDGE ( 'NONE', *, *, #120, .F. ) ;
#387 = ORIENTED_EDGE ( 'NONE', *, *, #112, .F. ) ;
#388 = ORIENTED_EDGE ( 'NONE', *, *, #13, .T. ) ;
#389 = ORIENTED_EDGE ( 'NONE', *, *, #46, .T. ) ;
#390 = ORIENTED_EDGE ( 'NONE', *, *, #98, .T. ) ;
#391 = ORIENTED_EDGE ( 'NONE', *, *, #62, .T. ) ;
#392 = ORIENTED_EDGE ( 'NONE', *, *, #77, .F. ) ;
#393 = ORIENTED_EDGE ( 'NONE', *, *, #115, .T. ) ;
#394 = ORIENTED_EDGE ( 'NONE', *, *, #62, .F. ) ;
#395 = ORIENTED_EDGE ( 'NONE', *, *, #91, .F. ) ;
#396 = ORIENTED_EDGE ( 'NONE', *, *, #36, .T. ) ;
#397 = ORIENTED_EDGE ( 'NONE', *, *, #74, .F. ) ;
#398 = ORIENTED_EDGE ( 'NONE', *, *, #64, .F. ) ;
#399 = ORIENTED_EDGE ( 'NONE', *, *, #6, .T. ) ;
#400 = ORIENTED_EDGE ( 'NONE', *, *, #116, .F. ) ;
#401 = ORIENTED_EDGE ( 'NONE', *, *, #82, .T. ) ;
#402 = ORIENTED_EDGE ( 'NONE', *, *, #34, .F. ) ;
#403 = ORIENTED_EDGE ( 'NONE', *, *, #85, .T. ) ;
#404 = ORIENTED_EDGE ( 'NONE', *, *, #34, .T. ) ;
#405 = ORIENTED_EDGE ( 'NONE', *, *, #109, .T. ) ;
#406 = ORIENTED_EDGE ( 'NONE', *, *, #54, .T. ) ;
#407 = ORIENTED_EDGE ( 'NONE', *, *, #49, .T. ) ;
#408 = ORIENTED_EDGE ( 'NONE', *, *, #21, .F. ) ;
#409 = ORIENTED_EDGE ( 'NONE', *, *, #71, .F. ) ;
#410 = ORIENTED_EDGE ( 'NONE', *, *, #76, .T. ) ;
#411 = ORIENTED_EDGE ( 'NONE', *, *, #4, .F. ) ;
#412 = ORIENTED_EDGE ( 'NONE', *, *, #52, .F. ) ;
#413 = ORIENTED_EDGE ( 'NONE', *, *, #39, .F. ) ;
#414 = ORIENTED_EDGE ( 'NONE', *, *, #69, .T. ) ;
#415 = ORIENTED_EDGE ( 'NONE', *, *, #53, .T. ) ;
#416 = ORIENTED_EDGE ( 'NONE', *, *, #73, .T. ) ;
#417 = ORIENTED_EDGE ( 'NONE', *, *, #132, .T. ) ;
#418 = ORIENTED_EDGE ( 'NONE', *, *, #73, .F. ) ;
#419 = ORIENTED_EDGE ( 'NONE', *, *, #111, .F. ) ;
#420 = ORIENTED_EDGE ( 'NONE', *, *, #93, .F. ) ;
#421 = ORIENTED_EDGE ( 'NONE', *, *, #119, .F. ) ;
#422 = ORIENTED_EDGE ( 'NONE', *, *, #65, .F. ) ;
#423 = ORIENTED_EDGE ( 'NONE', *, *, #5, .T. ) ;
#424 = ORIENTED_EDGE ( 'NONE', *, *, #58, .T. ) ;
#425 = ORIENTED_EDGE ( 'NONE', *, *, #77, .T. ) ;
#426 = ORIENTED_EDGE ( 'NONE', *, *, #86, .T. ) ;
#427 = ORIENTED_EDGE ( 'NONE', *, *, #78, .F. ) ;
#428 = ORIENTED_EDGE ( 'NONE', *, *, #72, .F. ) ;
#429 = ORIENTED_EDGE ( 'NONE', *, *, #132, .F. ) ;
#430 = ORIENTED_EDGE ( 'NONE', *, *, #69, .F. ) ;
#431 = ORIENTED_EDGE ( 'NONE', *, *, #29, .T. ) ;
#432 = ORIENTED_EDGE ( 'NONE', *, *, #43, .F. ) ;
#433 = ORIENTED_EDGE ( 'NONE', *, *, #98, .F. ) ;
#434 = ORIENTED_EDGE ( 'NONE', *, *, #63, .T. ) ;
#435 = ORIENTED_EDGE ( 'NONE', *, *, #52, .T. ) ;
#436 = ORIENTED_EDGE ( 'NONE', *, *, #112, .T. ) ;
#437 = ORIENTED_EDGE ( 'NONE', *, *, #93, .T. ) ;
#438 = ORIENTED_EDGE ( 'NONE', *, *, #33, .T. ) ;
#439 = ORIENTED_EDGE ( 'NONE', *, *, #76, .F. ) ;
#440 = EDGE_LOOP ( 'NONE', ( #383, #387, #419, #417 ) ) ;
#441 = EDGE_LOOP ( 'NONE', ( #340, #333, #357, #356 ) ) ;
#442 = ORIENTED_EDGE ( 'NONE', *, *, #91, .T. ) ;
#443 = EDGE_LOOP ( 'NONE', ( #342, #345, #341, #405 ) ) ;
#444 = EDGE_LOOP ( 'NONE', ( #406, #418, #427, #380 ) ) ;
#445 = EDGE_LOOP ( 'NONE', ( #287, #286, #314, #291 ) ) ;
#446 = EDGE_LOOP ( 'NONE', ( #389, #429, #398, #416 ) ) ;
#447 = ORIENTED_EDGE ( 'NONE', *, *, #8, .F. ) ;
#448 = ORIENTED_EDGE ( 'NONE', *, *, #11, .T. ) ;
#449 = ORIENTED_EDGE ( 'NONE', *, *, #64, .T. ) ;
#450 = ORIENTED_EDGE ( 'NONE', *, *, #31, .F. ) ;
#451 = ORIENTED_EDGE ( 'NONE', *, *, #117, .T. ) ;
#452 = EDGE_LOOP ( 'NONE', ( #410, #392, #395, #436 ) ) ;
#453 = ORIENTED_EDGE ( 'NONE', *, *, #54, .F. ) ;
#454 = EDGE_LOOP ( 'NONE', ( #359, #327, #330, #319 ) ) ;
#455 = EDGE_LOOP ( 'NONE', ( #404, #377, #422, #370 ) ) ;
#456 = ORIENTED_EDGE ( 'NONE', *, *, #36, .F. ) ;
#457 = ORIENTED_EDGE ( 'NONE', *, *, #14, .F. ) ;
#458 = ORIENTED_EDGE ( 'NONE', *, *, #70, .F. ) ;
#459 = ORIENTED_EDGE ( 'NONE', *, *, #20, .F. ) ;
#460 = ORIENTED_EDGE ( 'NONE', *, *, #71, .T. ) ;
#461 = EDGE_LOOP ( 'NONE', ( #285, #308, #303, #306 ) ) ;
#462 = ORIENTED_EDGE ( 'NONE', *, *, #63, .F. ) ;
#463 = ORIENTED_EDGE ( 'NONE', *, *, #40, .F. ) ;
#464 = CLOSED_SHELL ( 'NONE', ( #192, #177, #180, #204, #176, #205, #194, #207, #197, #189, #190, #183, #175, #185, #182, #188, #181, #187, #174, #178, #199, #206, #193, #186, #198, #191, #196, #208, #203, #202, #195, #200, #179, #184, #201 ) ) ;
#465 = ORIENTED_EDGE ( 'NONE', *, *, #7, .T. ) ;
#466 = EDGE_LOOP ( 'NONE', ( #309, #348, #358, #317 ) ) ;
#467 = EDGE_LOOP ( 'NONE', ( #332, #335, #351, #334 ) ) ;
#468 = ORIENTED_EDGE ( 'NONE', *, *, #55, .F. ) ;
#469 = ORIENTED_EDGE ( 'NONE', *, *, #111, .T. ) ;
#470 = ORIENTED_EDGE ( 'NONE', *, *, #46, .F. ) ;
#471 = ORIENTED_EDGE ( 'NONE', *, *, #18, .F. ) ;
#472 = ORIENTED_EDGE ( 'NONE', *, *, #30, .F. ) ;
#473 = ORIENTED_EDGE ( 'NONE', *, *, #61, .F. ) ;
#474 = ORIENTED_EDGE ( 'NONE', *, *, #42, .F. ) ;
#475 = ORIENTED_EDGE ( 'NONE', *, *, #85, .F. ) ;
#476 = ORIENTED_EDGE ( 'NONE', *, *, #43, .T. ) ;
#477 = ORIENTED_EDGE ( 'NONE', *, *, #78, .T. ) ;
#478 = ORIENTED_EDGE ( 'NONE', *, *, #60, .F. ) ;
#479 = ORIENTED_EDGE ( 'NONE', *, *, #82, .F. ) ;
#480 = EDGE_LOOP ( 'NONE', ( #322, #350, #372, #331 ) ) ;
#481 = EDGE_LOOP ( 'NONE', ( #401, #428, #386, #390 ) ) ;
#482 = ORIENTED_EDGE ( 'NONE', *, *, #118, .T. ) ;
#483 = ORIENTED_EDGE ( 'NONE', *, *, #38, .F. ) ;
#484 = EDGE_LOOP ( 'NONE', ( #472, #402, #479, #475, #456, #494, #462, #499, #439, #463, #470, #453, #381, #397, #458, #488, #408, #496, #450, #500, #411, #468, #382, #471, #413, #457, #490, #447, #473, #459, #474, #478, #483 ) ) ;
#485 = EDGE_LOOP ( 'NONE', ( #426, #421, #432, #391 ) ) ;
#486 = EDGE_LOOP ( 'NONE', ( #396, #412, #409, #385 ) ) ;
#487 = EDGE_LOOP ( 'NONE', ( #403, #433, #384, #435 ) ) ;
#488 = ORIENTED_EDGE ( 'NONE', *, *, #66, .F. ) ;
#489 = ORIENTED_EDGE ( 'NONE', *, *, #45, .T. ) ;
#490 = ORIENTED_EDGE ( 'NONE', *, *, #59, .F. ) ;
#491 = EDGE_LOOP ( 'NONE', ( #289, #296, #301, #282 ) ) ;
#492 = EDGE_LOOP ( 'NONE', ( #347, #355, #339, #329 ) ) ;
#493 = EDGE_LOOP ( 'NONE', ( #315, #313, #312, #298 ) ) ;
#494 = ORIENTED_EDGE ( 'NONE', *, *, #86, .F. ) ;
#495 = ORIENTED_EDGE ( 'NONE', *, *, #102, .T. ) ;
#496 = ORIENTED_EDGE ( 'NONE', *, *, #9, .F. ) ;
#497 = EDGE_LOOP ( 'NONE', ( #393, #430, #420, #425 ) ) ;
#498 = EDGE_LOOP ( 'NONE', ( #399, #365, #407, #379, #415, #388, #423, #424, #361, #378, #371, #338, #363, #366, #431, #465, #448, #451, #482, #501, #495, #489, #477, #449, #469, #442, #437, #375, #476, #460, #438, #374, #376 ) ) ;
#499 = ORIENTED_EDGE ( 'NONE', *, *, #115, .F. ) ;
#500 = ORIENTED_EDGE ( 'NONE', *, *, #47, .F. ) ;
#501 = ORIENTED_EDGE ( 'NONE', *, *, #41, .T. ) ;
#502 = VERTEX_POINT ( 'NONE', #843 ) ;
#503 = VERTEX_POINT ( 'NONE', #853 ) ;
#504 = VERTEX_POINT ( 'NONE', #833 ) ;
#505 = EDGE_LOOP ( 'NONE', ( #323, #353, #325, #364 ) ) ;
#506 = EDGE_LOOP ( 'NONE', ( #284, #302, #352, #305 ) ) ;
#507 = VERTEX_POINT ( 'NONE', #841 ) ;
#508 = VERTEX_POINT ( 'NONE', #844 ) ;
#509 = VERTEX_POINT ( 'NONE', #845 ) ;
#510 = VERTEX_POINT ( 'NONE', #846 ) ;
#511 = VERTEX_POINT ( 'NONE', #832 ) ;
#512 = EDGE_LOOP ( 'NONE', ( #299, #280, #288, #304 ) ) ;
#513 = EDGE_LOOP ( 'NONE', ( #336, #318, #321, #337 ) ) ;
#514 = VERTEX_POINT ( 'NONE', #851 ) ;
#515 = VERTEX_POINT ( 'NONE', #824 ) ;
#516 = VERTEX_POINT ( 'NONE', #819 ) ;
#517 = VERTEX_POINT ( 'NONE', #834 ) ;
#518 = VERTEX_POINT ( 'NONE', #852 ) ;
#519 = VERTEX_POINT ( 'NONE', #823 ) ;
#520 = VERTEX_POINT ( 'NONE', #850 ) ;
#521 = EDGE_LOOP ( 'NONE', ( #360, #354, #324, #369 ) ) ;
#522 = VERTEX_POINT ( 'NONE', #854 ) ;
#523 = VERTEX_POINT ( 'NONE', #815 ) ;
#524 = VERTEX_POINT ( 'NONE', #835 ) ;
#525 = VERTEX_POINT ( 'NONE', #827 ) ;
#526 = EDGE_LOOP ( 'NONE', ( #294, #290, #311, #293 ) ) ;
#527 = VERTEX_POINT ( 'NONE', #812 ) ;
#528 = VERTEX_POINT ( 'NONE', #855 ) ;
#529 = VERTEX_POINT ( 'NONE', #847 ) ;
#530 = VERTEX_POINT ( 'NONE', #825 ) ;
#531 = VERTEX_POINT ( 'NONE', #818 ) ;
#532 = VERTEX_POINT ( 'NONE', #848 ) ;
#533 = VERTEX_POINT ( 'NONE', #828 ) ;
#534 = VERTEX_POINT ( 'NONE', #849 ) ;
#535 = VERTEX_POINT ( 'NONE', #813 ) ;
#536 = VERTEX_POINT ( 'NONE', #856 ) ;
#537 = VERTEX_POINT ( 'NONE', #857 ) ;
#538 = VERTEX_POINT ( 'NONE', #814 ) ;
#539 = VERTEX_POINT ( 'NONE', #816 ) ;
#540 = VERTEX_POINT ( 'NONE', #839 ) ;
#541 = VERTEX_POINT ( 'NONE', #817 ) ;
#542 = VERTEX_POINT ( 'NONE', #820 ) ;
#543 = VERTEX_POINT ( 'NONE', #821 ) ;
#544 = VERTEX_POINT ( 'NONE', #822 ) ;
#545 = EDGE_LOOP ( 'NONE', ( #316, #328, #373, #362 ) ) ;
#546 = VERTEX_POINT ( 'NONE', #826 ) ;
#547 = VERTEX_POINT ( 'NONE', #830 ) ;
#548 = VERTEX_POINT ( 'NONE', #831 ) ;
#549 = VERTEX_POINT ( 'NONE', #836 ) ;
#550 = VERTEX_POINT ( 'NONE', #837 ) ;
#551 = VERTEX_POINT ( 'NONE', #838 ) ;
#552 = VERTEX_POINT ( 'NONE', #840 ) ;
#553 = VERTEX_POINT ( 'NONE', #871 ) ;
#554 = EDGE_LOOP ( 'NONE', ( #297, #307, #292, #300 ) ) ;
#555 = EDGE_LOOP ( 'NONE', ( #281, #310, #295, #283 ) ) ;
#556 = VERTEX_POINT ( 'NONE', #872 ) ;
#557 = VERTEX_POINT ( 'NONE', #890 ) ;
#558 = EDGE_LOOP ( 'NONE', ( #346, #344, #326, #349 ) ) ;
#559 = VERTEX_POINT ( 'NONE', #894 ) ;
#560 = VERTEX_POINT ( 'NONE', #891 ) ;
#561 = VERTEX_POINT ( 'NONE', #897 ) ;
#562 = VERTEX_POINT ( 'NONE', #875 ) ;
#563 = VERTEX_POINT ( 'NONE', #866 ) ;
#564 = EDGE_LOOP ( 'NONE', ( #434, #394, #400, #414 ) ) ;
#565 = EDGE_LOOP ( 'NONE', ( #367, #368, #343, #320 ) ) ;
#566 = VERTEX_POINT ( 'NONE', #881 ) ;
#567 = VERTEX_POINT ( 'NONE', #879 ) ;
#568 = VERTEX_POINT ( 'NONE', #868 ) ;
#569 = LINE ( 'NONE', #938, #573 ) ;
#570 = VERTEX_POINT ( 'NONE', #896 ) ;
#571 = CIRCLE ( 'NONE', #103, 0.5000000000000013300 ) ;
#572 = LINE ( 'NONE', #910, #605 ) ;
#573 = VECTOR ( 'NONE', #906, 1000.000000000000000 ) ;
#574 = VERTEX_POINT ( 'NONE', #898 ) ;
#575 = VERTEX_POINT ( 'NONE', #884 ) ;
#576 = LINE ( 'NONE', #920, #619 ) ;
#577 = LINE ( 'NONE', #921, #580 ) ;
#578 = CIRCLE ( 'NONE', #122, 0.8000000000000014900 ) ;
#579 = LINE ( 'NONE', #942, #601 ) ;
#580 = VECTOR ( 'NONE', #947, 1000.000000000000100 ) ;
#581 = VERTEX_POINT ( 'NONE', #901 ) ;
#582 = LINE ( 'NONE', #978, #607 ) ;
#583 = VECTOR ( 'NONE', #932, 1000.000000000000000 ) ;
#584 = LINE ( 'NONE', #919, #621 ) ;
#585 = VECTOR ( 'NONE', #918, 1000.000000000000100 ) ;
#586 = VECTOR ( 'NONE', #962, 1000.000000000000000 ) ;
#587 = VERTEX_POINT ( 'NONE', #902 ) ;
#588 = LINE ( 'NONE', #907, #586 ) ;
#589 = VERTEX_POINT ( 'NONE', #867 ) ;
#590 = VERTEX_POINT ( 'NONE', #895 ) ;
#591 = VERTEX_POINT ( 'NONE', #904 ) ;
#592 = CIRCLE ( 'NONE', #126, 0.8000000000000014900 ) ;
#593 = LINE ( 'NONE', #956, #609 ) ;
#594 = LINE ( 'NONE', #943, #602 ) ;
#595 = CIRCLE ( 'NONE', #128, 0.7999999999999990500 ) ;
#596 = CIRCLE ( 'NONE', #114, 0.7999999999999990500 ) ;
#597 = VERTEX_POINT ( 'NONE', #899 ) ;
#598 = VECTOR ( 'NONE', #937, 1000.000000000000000 ) ;
#599 = LINE ( 'NONE', #925, #614 ) ;
#600 = VECTOR ( 'NONE', #948, 1000.000000000000100 ) ;
#601 = VECTOR ( 'NONE', #944, 1000.000000000000100 ) ;
#602 = VECTOR ( 'NONE', #958, 1000.000000000000000 ) ;
#603 = LINE ( 'NONE', #972, #622 ) ;
#604 = LINE ( 'NONE', #945, #606 ) ;
#605 = VECTOR ( 'NONE', #911, 1000.000000000000000 ) ;
#606 = VECTOR ( 'NONE', #971, 1000.000000000000000 ) ;
#607 = VECTOR ( 'NONE', #965, 1000.000000000000000 ) ;
#608 = LINE ( 'NONE', #934, #598 ) ;
#609 = VECTOR ( 'NONE', #973, 1000.000000000000000 ) ;
#610 = LINE ( 'NONE', #981, #611 ) ;
#611 = VECTOR ( 'NONE', #977, 1000.000000000000000 ) ;
#612 = LINE ( 'NONE', #922, #583 ) ;
#613 = CIRCLE ( 'NONE', #121, 0.7999999999999990500 ) ;
#614 = VECTOR ( 'NONE', #940, 1000.000000000000000 ) ;
#615 = LINE ( 'NONE', #976, #620 ) ;
#616 = LINE ( 'NONE', #917, #585 ) ;
#617 = VERTEX_POINT ( 'NONE', #878 ) ;
#618 = VERTEX_POINT ( 'NONE', #882 ) ;
#619 = VECTOR ( 'NONE', #915, 1000.000000000000000 ) ;
#620 = VECTOR ( 'NONE', #959, 1000.000000000000000 ) ;
#621 = VECTOR ( 'NONE', #928, 1000.000000000000000 ) ;
#622 = VECTOR ( 'NONE', #970, 1000.000000000000100 ) ;
#623 = LINE ( 'NONE', #933, #600 ) ;
#624 = VECTOR ( 'NONE', #974, 1000.000000000000000 ) ;
#625 = VECTOR ( 'NONE', #964, 1000.000000000000000 ) ;
#626 = CIRCLE ( 'NONE', #130, 0.5000000000000013300 ) ;
#627 = LINE ( 'NONE', #953, #657 ) ;
#628 = VECTOR ( 'NONE', #969, 1000.000000000000000 ) ;
#629 = VECTOR ( 'NONE', #975, 1000.000000000000200 ) ;
#630 = LINE ( 'NONE', #992, #632 ) ;
#631 = LINE ( 'NONE', #1015, #637 ) ;
#632 = VECTOR ( 'NONE', #1002, 1000.000000000000000 ) ;
#633 = LINE ( 'NONE', #982, #636 ) ;
#634 = LINE ( 'NONE', #963, #628 ) ;
#635 = CIRCLE ( 'NONE', #123, 0.5000000000000013300 ) ;
#636 = VECTOR ( 'NONE', #1008, 1000.000000000000000 ) ;
#637 = VECTOR ( 'NONE', #991, 1000.000000000000100 ) ;
#638 = LINE ( 'NONE', #951, #654 ) ;
#639 = VECTOR ( 'NONE', #954, 1000.000000000000000 ) ;
#640 = CIRCLE ( 'NONE', #104, 0.5000000000000026600 ) ;
#641 = LINE ( 'NONE', #946, #624 ) ;
#642 = LINE ( 'NONE', #957, #650 ) ;
#643 = VECTOR ( 'NONE', #989, 1000.000000000000100 ) ;
#644 = LINE ( 'NONE', #1006, #648 ) ;
#645 = LINE ( 'NONE', #968, #625 ) ;
#646 = VECTOR ( 'NONE', #1014, 1000.000000000000000 ) ;
#647 = VECTOR ( 'NONE', #1003, 1000.000000000000000 ) ;
#648 = VECTOR ( 'NONE', #995, 1000.000000000000000 ) ;
#649 = LINE ( 'NONE', #955, #664 ) ;
#650 = VECTOR ( 'NONE', #988, 1000.000000000000000 ) ;
#651 = VECTOR ( 'NONE', #1000, 1000.000000000000000 ) ;
#652 = LINE ( 'NONE', #1012, #646 ) ;
#653 = LINE ( 'NONE', #979, #639 ) ;
#654 = VECTOR ( 'NONE', #967, 999.9999999999998900 ) ;
#655 = VECTOR ( 'NONE', #960, 1000.000000000000000 ) ;
#656 = LINE ( 'NONE', #952, #629 ) ;
#657 = VECTOR ( 'NONE', #986, 1000.000000000000000 ) ;
#658 = LINE ( 'NONE', #996, #661 ) ;
#659 = LINE ( 'NONE', #1007, #651 ) ;
#660 = LINE ( 'NONE', #1017, #643 ) ;
#661 = VECTOR ( 'NONE', #987, 1000.000000000000100 ) ;
#662 = LINE ( 'NONE', #966, #655 ) ;
#663 = LINE ( 'NONE', #1005, #647 ) ;
#664 = VECTOR ( 'NONE', #961, 1000.000000000000000 ) ;
#665 = LINE ( 'NONE', #1043, #666 ) ;
#666 = VECTOR ( 'NONE', #1080, 1000.000000000000200 ) ;
#667 = VECTOR ( 'NONE', #1076, 1000.000000000000000 ) ;
#668 = LINE ( 'NONE', #1051, #669 ) ;
#669 = VECTOR ( 'NONE', #1065, 1000.000000000000000 ) ;
#670 = VECTOR ( 'NONE', #1073, 1000.000000000000000 ) ;
#671 = VECTOR ( 'NONE', #1044, 1000.000000000000100 ) ;
#672 = LINE ( 'NONE', #1020, #667 ) ;
#673 = LINE ( 'NONE', #1046, #718 ) ;
#674 = LINE ( 'NONE', #1055, #685 ) ;
#675 = VECTOR ( 'NONE', #1035, 1000.000000000000000 ) ;
#676 = LINE ( 'NONE', #997, #717 ) ;
#677 = VECTOR ( 'NONE', #1054, 1000.000000000000000 ) ;
#678 = VECTOR ( 'NONE', #1057, 1000.000000000000000 ) ;
#679 = VECTOR ( 'NONE', #1062, 1000.000000000000000 ) ;
#680 = LINE ( 'NONE', #1064, #681 ) ;
#681 = VECTOR ( 'NONE', #1081, 1000.000000000000000 ) ;
#682 = LINE ( 'NONE', #1021, #724 ) ;
#683 = LINE ( 'NONE', #1030, #691 ) ;
#684 = VECTOR ( 'NONE', #1026, 1000.000000000000000 ) ;
#685 = VECTOR ( 'NONE', #1058, 1000.000000000000000 ) ;
#686 = VECTOR ( 'NONE', #1029, 1000.000000000000000 ) ;
#687 = LINE ( 'NONE', #1009, #707 ) ;
#688 = VECTOR ( 'NONE', #999, 1000.000000000000000 ) ;
#689 = LINE ( 'NONE', #983, #706 ) ;
#690 = VECTOR ( 'NONE', #1018, 1000.000000000000000 ) ;
#691 = VECTOR ( 'NONE', #1019, 1000.000000000000000 ) ;
#692 = LINE ( 'NONE', #1025, #671 ) ;
#693 = VECTOR ( 'NONE', #998, 1000.000000000000000 ) ;
#694 = VECTOR ( 'NONE', #1039, 1000.000000000000000 ) ;
#695 = LINE ( 'NONE', #1037, #675 ) ;
#696 = LINE ( 'NONE', #1022, #711 ) ;
#697 = LINE ( 'NONE', #1059, #698 ) ;
#698 = VECTOR ( 'NONE', #1045, 1000.000000000000000 ) ;
#699 = VECTOR ( 'NONE', #1042, 1000.000000000000200 ) ;
#700 = LINE ( 'NONE', #993, #688 ) ;
#701 = VECTOR ( 'NONE', #1052, 1000.000000000000000 ) ;
#702 = LINE ( 'NONE', #1031, #684 ) ;
#703 = LINE ( 'NONE', #985, #694 ) ;
#704 = LINE ( 'NONE', #1050, #712 ) ;
#705 = LINE ( 'NONE', #1010, #693 ) ;
#706 = VECTOR ( 'NONE', #984, 1000.000000000000100 ) ;
#707 = VECTOR ( 'NONE', #1040, 1000.000000000000000 ) ;
#708 = CIRCLE ( 'NONE', #107, 0.7999999999999990500 ) ;
#709 = LINE ( 'NONE', #1047, #701 ) ;
#710 = VECTOR ( 'NONE', #1032, 1000.000000000000000 ) ;
#711 = VECTOR ( 'NONE', #1023, 1000.000000000000000 ) ;
#712 = VECTOR ( 'NONE', #1060, 1000.000000000000000 ) ;
#713 = LINE ( 'NONE', #1066, #670 ) ;
#714 = LINE ( 'NONE', #1048, #715 ) ;
#715 = VECTOR ( 'NONE', #1061, 1000.000000000000000 ) ;
#716 = LINE ( 'NONE', #1049, #677 ) ;
#717 = VECTOR ( 'NONE', #1028, 1000.000000000000100 ) ;
#718 = VECTOR ( 'NONE', #1056, 1000.000000000000000 ) ;
#719 = LINE ( 'NONE', #1027, #678 ) ;
#720 = LINE ( 'NONE', #1033, #690 ) ;
#721 = LINE ( 'NONE', #1016, #686 ) ;
#722 = LINE ( 'NONE', #1053, #699 ) ;
#723 = LINE ( 'NONE', #1082, #679 ) ;
#724 = VECTOR ( 'NONE', #1034, 1000.000000000000000 ) ;
#725 = LINE ( 'NONE', #1024, #710 ) ;
#726 = VECTOR ( 'NONE', #1070, 1000.000000000000000 ) ;
#727 = LINE ( 'NONE', #1092, #762 ) ;
#728 = LINE ( 'NONE', #1094, #747 ) ;
#729 = LINE ( 'NONE', #1127, #753 ) ;
#730 = VECTOR ( 'NONE', #1113, 1000.000000000000000 ) ;
#731 = LINE ( 'NONE', #1128, #732 ) ;
#732 = VECTOR ( 'NONE', #1110, 1000.000000000000000 ) ;
#733 = CIRCLE ( 'NONE', #87, 0.5000000000000013300 ) ;
#734 = FACE_OUTER_BOUND ( 'NONE', #467, .T. ) ;
#735 = FACE_OUTER_BOUND ( 'NONE', #545, .T. ) ;
#736 = LINE ( 'NONE', #1123, #730 ) ;
#737 = CIRCLE ( 'NONE', #129, 0.5000000000000026600 ) ;
#738 = FACE_OUTER_BOUND ( 'NONE', #554, .T. ) ;
#739 = LINE ( 'NONE', #1077, #755 ) ;
#740 = FACE_OUTER_BOUND ( 'NONE', #512, .T. ) ;
#741 = VECTOR ( 'NONE', #1091, 1000.000000000000100 ) ;
#742 = LINE ( 'NONE', #1067, #761 ) ;
#743 = LINE ( 'NONE', #1087, #763 ) ;
#744 = VECTOR ( 'NONE', #1095, 1000.000000000000000 ) ;
#745 = VECTOR ( 'NONE', #1102, 1000.000000000000000 ) ;
#746 = LINE ( 'NONE', #1069, #758 ) ;
#747 = VECTOR ( 'NONE', #1085, 1000.000000000000000 ) ;
#748 = FACE_OUTER_BOUND ( 'NONE', #492, .T. ) ;
#749 = LINE ( 'NONE', #1074, #765 ) ;
#750 = LINE ( 'NONE', #1063, #756 ) ;
#751 = VECTOR ( 'NONE', #1088, 1000.000000000000000 ) ;
#752 = LINE ( 'NONE', #1098, #741 ) ;
#753 = VECTOR ( 'NONE', #1138, 1000.000000000000000 ) ;
#754 = VECTOR ( 'NONE', #1122, 1000.000000000000100 ) ;
#755 = VECTOR ( 'NONE', #1072, 1000.000000000000000 ) ;
#756 = VECTOR ( 'NONE', #1068, 999.9999999999998900 ) ;
#757 = CIRCLE ( 'NONE', #110, 0.5000000000000026600 ) ;
#758 = VECTOR ( 'NONE', #1071, 1000.000000000000200 ) ;
#759 = LINE ( 'NONE', #1086, #751 ) ;
#760 = CIRCLE ( 'NONE', #124, 0.5000000000000026600 ) ;
#761 = VECTOR ( 'NONE', #1083, 1000.000000000000000 ) ;
#762 = VECTOR ( 'NONE', #1132, 1000.000000000000100 ) ;
#763 = VECTOR ( 'NONE', #1107, 1000.000000000000000 ) ;
#764 = LINE ( 'NONE', #1078, #726 ) ;
#765 = VECTOR ( 'NONE', #1079, 1000.000000000000000 ) ;
#766 = LINE ( 'NONE', #1100, #745 ) ;
#767 = LINE ( 'NONE', #1137, #754 ) ;
#768 = LINE ( 'NONE', #1090, #744 ) ;
#769 = FACE_OUTER_BOUND ( 'NONE', #526, .T. ) ;
#770 = FACE_OUTER_BOUND ( 'NONE', #455, .T. ) ;
#771 = PRODUCT ( 'ALP4210', 'ALP4210', '', ( #858 ) ) ;
#772 = PERSON ( 'UNSPECIFIED', 'UNSPECIFIED', 'UNSPECIFIED', ('UNSPECIFIED'), ('UNSPECIFIED'), ('UNSPECIFIED') ) ;
#773 = DIRECTION ( 'NONE',  ( -1.000000000000000000, 0.0000000000000000000, 0.0000000000000000000 ) ) ;
#774 = DIRECTION ( 'NONE',  ( 0.09571240664425757800, 0.9954090291002811700, 0.0000000000000000000 ) ) ;
#775 = CARTESIAN_POINT ( 'NONE',  ( -4.500000000000000000, 8.699999999999999300, 100.0000000000000000 ) ) ;
#776 = PLANE ( 'NONE',  #152 ) ;
#777 = DIRECTION ( 'NONE',  ( -0.0000000000000000000, -0.0000000000000000000, -1.000000000000000000 ) ) ;
#778 = DIRECTION ( 'NONE',  ( 0.0000000000000000000, -0.0000000000000000000, -1.000000000000000000 ) ) ;
#779 = PLANE ( 'NONE',  #161 ) ;
#780 = DIRECTION ( 'NONE',  ( -0.0000000000000000000, 0.0000000000000000000, -1.000000000000000000 ) ) ;
#781 = PLANE ( 'NONE',  #171 ) ;
#782 = CARTESIAN_POINT ( 'NONE',  ( 4.166132054225732500, 0.4354517598264725500, 100.0000000000000000 ) ) ;
#783 = CARTESIAN_POINT ( 'NONE',  ( -4.000000000000000900, 8.199999999999997500, 100.0000000000000000 ) ) ;
#784 = DIRECTION ( 'NONE',  ( 0.9954090291002811700, -0.09571240664425757800, 0.0000000000000000000 ) ) ;
#785 = CARTESIAN_POINT ( 'NONE',  ( 3.670316035232290600, 0.5000000000000003300, 100.0000000000000000 ) ) ;
#786 = DIRECTION ( 'NONE',  ( 0.8659284121440133900, 0.5001679568322503500, -0.0000000000000000000 ) ) ;
#787 = DIRECTION ( 'NONE',  ( 0.8659284121440281600, 0.5001679568322247000, 0.0000000000000000000 ) ) ;
#788 = CARTESIAN_POINT ( 'NONE',  ( 4.500000000000000000, 8.699999999999999300, 0.0000000000000000000 ) ) ;
#789 = PLANE ( 'NONE',  #154 ) ;
#790 = PLANE ( 'NONE',  #164 ) ;
#791 = CARTESIAN_POINT ( 'NONE',  ( 1.904512060284785400, 5.082731521472680000, 100.0000000000000000 ) ) ;
#792 = DIRECTION ( 'NONE',  ( 0.0000000000000000000, -0.0000000000000000000, 1.000000000000000000 ) ) ;
#793 = DIRECTION ( 'NONE',  ( 0.0000000000000000000, 0.0000000000000000000, 1.000000000000000000 ) ) ;
#794 = DIRECTION ( 'NONE',  ( -0.0000000000000000000, -0.0000000000000000000, -1.000000000000000000 ) ) ;
#795 = DIRECTION ( 'NONE',  ( -1.000000000000000000, 0.0000000000000000000, 0.0000000000000000000 ) ) ;
#796 = CARTESIAN_POINT ( 'NONE',  ( -3.670316035232289200, 0.0000000000000000000, 100.0000000000000000 ) ) ;
#797 = PLANE ( 'NONE',  #162 ) ;
#798 = DIRECTION ( 'NONE',  ( -0.1290964803470517300, -0.9916320379868750500, 0.0000000000000000000 ) ) ;
#799 = PLANE ( 'NONE',  #146 ) ;
#800 = DIRECTION ( 'NONE',  ( -0.9916320379868751600, 0.1290964803470517600, 0.0000000000000000000 ) ) ;
#801 = CARTESIAN_POINT ( 'NONE',  ( 3.137796372623062400, 6.718951415432950800, 100.0000000000000000 ) ) ;
#802 = DIRECTION ( 'NONE',  ( 0.5001679568322247000, -0.8659284121440281600, 0.0000000000000000000 ) ) ;
#803 = CARTESIAN_POINT ( 'NONE',  ( -3.000000000000000400, 9.199999999999999300, 100.0000000000000000 ) ) ;
#804 = DIRECTION ( 'NONE',  ( 1.000000000000000000, 0.0000000000000000000, -0.0000000000000000000 ) ) ;
#805 = PLANE ( 'NONE',  #134 ) ;
#806 = DIRECTION ( 'NONE',  ( 1.000000000000000000, 0.0000000000000000000, -0.0000000000000000000 ) ) ;
#807 = DIRECTION ( 'NONE',  ( -0.5001679568322503500, 0.8659284121440133900, 0.0000000000000000000 ) ) ;
#808 = DIRECTION ( 'NONE',  ( 0.0000000000000000000, -1.000000000000000000, 0.0000000000000000000 ) ) ;
#809 = CARTESIAN_POINT ( 'NONE',  ( 3.999999999999999100, 8.199999999999999300, 100.0000000000000000 ) ) ;
#810 = CARTESIAN_POINT ( 'NONE',  ( 3.000000000000000400, 9.199999999999999300, 100.0000000000000000 ) ) ;
#811 = DIRECTION ( 'NONE',  ( 0.0000000000000000000, 1.000000000000000000, 0.0000000000000000000 ) ) ;
#812 = CARTESIAN_POINT ( 'NONE',  ( -3.231189682769444200, 0.9999999999999995600, 0.0000000000000000000 ) ) ;
#813 = CARTESIAN_POINT ( 'NONE',  ( -3.670316035232289200, 0.0000000000000000000, 0.0000000000000000000 ) ) ;
#814 = CARTESIAN_POINT ( 'NONE',  ( -1.904512060284784700, 5.082731521472679100, 0.0000000000000000000 ) ) ;
#815 = CARTESIAN_POINT ( 'NONE',  ( -2.197120424534222400, 6.175608616653697400, 100.0000000000000000 ) ) ;
#816 = CARTESIAN_POINT ( 'NONE',  ( -3.000000000000000400, 9.199999999999999300, 100.0000000000000000 ) ) ;
#817 = CARTESIAN_POINT ( 'NONE',  ( -3.231189682769444200, 0.9999999999999995600, 100.0000000000000000 ) ) ;
#818 = CARTESIAN_POINT ( 'NONE',  ( -3.493762307131582200, 3.016905696544328400, 100.0000000000000000 ) ) ;
#819 = CARTESIAN_POINT ( 'NONE',  ( 2.002621012683686100, 4.912877918882969700, 0.0000000000000000000 ) ) ;
#820 = CARTESIAN_POINT ( 'NONE',  ( -4.000000000000000900, 8.199999999999997500, 100.0000000000000000 ) ) ;
#821 = CARTESIAN_POINT ( 'NONE',  ( 2.197120424534222000, 6.175608616653698300, 0.0000000000000000000 ) ) ;
#822 = CARTESIAN_POINT ( 'NONE',  ( 1.904512060284785400, 5.082731521472680000, 100.0000000000000000 ) ) ;
#823 = CARTESIAN_POINT ( 'NONE',  ( 3.000000000000000400, 8.152033690712800200, 100.0000000000000000 ) ) ;
#824 = CARTESIAN_POINT ( 'NONE',  ( -2.002621012683686100, 4.912877918882969700, 0.0000000000000000000 ) ) ;
#825 = CARTESIAN_POINT ( 'NONE',  ( -4.000000000000000900, 8.199999999999997500, 0.0000000000000000000 ) ) ;
#826 = CARTESIAN_POINT ( 'NONE',  ( 3.242590241414693000, 5.629095180000000200, 100.0000000000000000 ) ) ;
#827 = CARTESIAN_POINT ( 'NONE',  ( -1.904512060284784700, 5.082731521472679100, 100.0000000000000000 ) ) ;
#828 = CARTESIAN_POINT ( 'NONE',  ( -2.197120424534222400, 6.175608616653697400, 0.0000000000000000000 ) ) ;
#829 = DIRECTION ( 'NONE',  ( 0.0000000000000000000, 1.000000000000000000, 0.0000000000000000000 ) ) ;
#830 = CARTESIAN_POINT ( 'NONE',  ( 3.231189682769444200, 0.9999999999999995600, 100.0000000000000000 ) ) ;
#831 = CARTESIAN_POINT ( 'NONE',  ( 5.000000000000000900, 8.699999999999999300, 100.0000000000000000 ) ) ;
#832 = CARTESIAN_POINT ( 'NONE',  ( -4.500000000000000000, 9.199999999999999300, 100.0000000000000000 ) ) ;
#833 = CARTESIAN_POINT ( 'NONE',  ( -5.000000000000000000, 8.199999999999999300, 0.0000000000000000000 ) ) ;
#834 = CARTESIAN_POINT ( 'NONE',  ( -3.000000000000000400, 8.152033690712800200, 100.0000000000000000 ) ) ;
#835 = CARTESIAN_POINT ( 'NONE',  ( -2.002621012683686100, 4.912877918882969700, 100.0000000000000000 ) ) ;
#836 = CARTESIAN_POINT ( 'NONE',  ( 4.500000000000000000, 9.199999999999999300, 0.0000000000000000000 ) ) ;
#837 = CARTESIAN_POINT ( 'NONE',  ( -3.242590241414693900, 5.629095179999999300, 100.0000000000000000 ) ) ;
#838 = CARTESIAN_POINT ( 'NONE',  ( 3.493762307131582200, 3.016905696544328400, 0.0000000000000000000 ) ) ;
#839 = CARTESIAN_POINT ( 'NONE',  ( 3.000000000000000400, 9.199999999999999300, 0.0000000000000000000 ) ) ;
#840 = CARTESIAN_POINT ( 'NONE',  ( 1.904512060284785400, 5.082731521472680000, 0.0000000000000000000 ) ) ;
#841 = CARTESIAN_POINT ( 'NONE',  ( 2.002621012683686100, 4.912877918882969700, 100.0000000000000000 ) ) ;
#842 = DIRECTION ( 'NONE',  ( 0.0000000000000000000, -0.0000000000000000000, 1.000000000000000000 ) ) ;
#843 = CARTESIAN_POINT ( 'NONE',  ( -3.000000000000000400, 8.152033690712800200, 0.0000000000000000000 ) ) ;
#844 = CARTESIAN_POINT ( 'NONE',  ( 1.797254789999999800, 5.482865886938475900, 100.0000000000000000 ) ) ;
#845 = CARTESIAN_POINT ( 'NONE',  ( -3.000000000000000400, 9.199999999999999300, 0.0000000000000000000 ) ) ;
#846 = CARTESIAN_POINT ( 'NONE',  ( -5.000000000000000900, 8.699999999999999300, 0.0000000000000000000 ) ) ;
#847 = CARTESIAN_POINT ( 'NONE',  ( -3.137796372623062400, 6.718951415432950800, 100.0000000000000000 ) ) ;
#848 = CARTESIAN_POINT ( 'NONE',  ( 3.137796372623062400, 6.718951415432950800, 100.0000000000000000 ) ) ;
#849 = CARTESIAN_POINT ( 'NONE',  ( -3.137796372623062400, 6.718951415432950800, 0.0000000000000000000 ) ) ;
#850 = CARTESIAN_POINT ( 'NONE',  ( 5.000000000000000900, 8.699999999999999300, 0.0000000000000000000 ) ) ;
#851 = CARTESIAN_POINT ( 'NONE',  ( -4.166132054225729000, 0.4354517598264729900, 100.0000000000000000 ) ) ;
#852 = CARTESIAN_POINT ( 'NONE',  ( 1.797254789999999800, 5.482865886938475900, 0.0000000000000000000 ) ) ;
#853 = CARTESIAN_POINT ( 'NONE',  ( -5.000000000000000000, 8.199999999999999300, 100.0000000000000000 ) ) ;
#854 = CARTESIAN_POINT ( 'NONE',  ( 3.000000000000000400, 8.152033690712800200, 0.0000000000000000000 ) ) ;
#855 = CARTESIAN_POINT ( 'NONE',  ( -4.500000000000000000, 9.199999999999999300, 0.0000000000000000000 ) ) ;
#856 = CARTESIAN_POINT ( 'NONE',  ( -3.493762307131582200, 3.016905696544328400, 0.0000000000000000000 ) ) ;
#857 = CARTESIAN_POINT ( 'NONE',  ( 4.500000000000000000, 9.199999999999999300, 100.0000000000000000 ) ) ;
#858 = MECHANICAL_CONTEXT ( 'NONE', #863, 'mechanical' ) ;
#859 = PERSON_AND_ORGANIZATION_ROLE ( 'design_supplier' ) ;
#860 = PERSON_AND_ORGANIZATION_ROLE ( 'creator' ) ;
#861 = DATE_TIME_ROLE ( 'classification_date' ) ;
#862 = DATE_TIME_ROLE ( 'creation_date' ) ;
#863 = APPLICATION_CONTEXT ( 'configuration controlled 3d designs of mechanical parts and assemblies' ) ;
#864 = APPROVAL_ROLE ( '' ) ;
#865 = DIRECTION ( 'NONE',  ( 1.000000000000000000, 0.0000000000000000000, 0.0000000000000000000 ) ) ;
#866 = CARTESIAN_POINT ( 'NONE',  ( 3.000000000000000400, 9.199999999999999300, 100.0000000000000000 ) ) ;
#867 = CARTESIAN_POINT ( 'NONE',  ( 4.500000000000000000, 2.999999999999999600, 100.0000000000000000 ) ) ;
#868 = CARTESIAN_POINT ( 'NONE',  ( 3.999999999999999100, 8.199999999999999300, 100.0000000000000000 ) ) ;
#869 = PERSON_AND_ORGANIZATION_ROLE ( 'classification_officer' ) ;
#870 = APPLICATION_CONTEXT ( 'configuration controlled 3d designs of mechanical parts and assemblies' ) ;
#871 = CARTESIAN_POINT ( 'NONE',  ( -3.242590241414693900, 5.629095179999999300, 0.0000000000000000000 ) ) ;
#872 = CARTESIAN_POINT ( 'NONE',  ( 2.197120424534222000, 6.175608616653698300, 100.0000000000000000 ) ) ;
#873 = APPROVAL_STATUS ( 'not_yet_approved' ) ;
#874 = APPROVAL_STATUS ( 'not_yet_approved' ) ;
#875 = CARTESIAN_POINT ( 'NONE',  ( 3.493762307131582200, 3.016905696544328400, 100.0000000000000000 ) ) ;
#876 = APPLICATION_PROTOCOL_DEFINITION ( 'international standard', 'config_control_design', 1994, #870 ) ;
#877 = SECURITY_CLASSIFICATION_LEVEL ( 'unclassified' ) ;
#878 = CARTESIAN_POINT ( 'NONE',  ( 4.166132054225732500, 0.4354517598264725500, 0.0000000000000000000 ) ) ;
#879 = CARTESIAN_POINT ( 'NONE',  ( -3.670316035232289200, 0.0000000000000000000, 100.0000000000000000 ) ) ;
#880 = CARTESIAN_POINT ( 'NONE',  ( 0.0000000000000000000, 0.0000000000000000000, 0.0000000000000000000 ) ) ;
#881 = CARTESIAN_POINT ( 'NONE',  ( 3.999999999999999100, 8.199999999999999300, 0.0000000000000000000 ) ) ;
#882 = CARTESIAN_POINT ( 'NONE',  ( 4.500000000000000000, 2.999999999999999600, 0.0000000000000000000 ) ) ;
#883 =( LENGTH_UNIT ( ) NAMED_UNIT ( * ) SI_UNIT ( .MILLI., .METRE. ) );
#884 = CARTESIAN_POINT ( 'NONE',  ( -4.500000000000000000, 2.999999999999999600, 100.0000000000000000 ) ) ;
#885 =( NAMED_UNIT ( * ) PLANE_ANGLE_UNIT ( ) SI_UNIT ( $, .RADIAN. ) );
#886 = PERSON_AND_ORGANIZATION_ROLE ( 'creator' ) ;
#887 = DIRECTION ( 'NONE',  ( 0.0000000000000000000, 0.0000000000000000000, 1.000000000000000000 ) ) ;
#888 = APPROVAL_ROLE ( '' ) ;
#889 = APPROVAL_ROLE ( '' ) ;
#890 = CARTESIAN_POINT ( 'NONE',  ( 3.231189682769444200, 0.9999999999999995600, 0.0000000000000000000 ) ) ;
#891 = CARTESIAN_POINT ( 'NONE',  ( -5.000000000000000900, 8.699999999999999300, 100.0000000000000000 ) ) ;
#892 =( NAMED_UNIT ( * ) SI_UNIT ( $, .STERADIAN. ) SOLID_ANGLE_UNIT ( ) );
#893 = PERSON_AND_ORGANIZATION_ROLE ( 'design_owner' ) ;
#894 = CARTESIAN_POINT ( 'NONE',  ( 3.242590241414693000, 5.629095180000000200, 0.0000000000000000000 ) ) ;
#895 = CARTESIAN_POINT ( 'NONE',  ( 5.000000000000000000, 8.199999999999999300, 100.0000000000000000 ) ) ;
#896 = CARTESIAN_POINT ( 'NONE',  ( -4.500000000000000000, 2.999999999999999600, 0.0000000000000000000 ) ) ;
#897 = CARTESIAN_POINT ( 'NONE',  ( 3.137796372623062400, 6.718951415432950800, 0.0000000000000000000 ) ) ;
#898 = CARTESIAN_POINT ( 'NONE',  ( 3.670316035232289200, -2.276824562219559300E-015, 0.0000000000000000000 ) ) ;
#899 = CARTESIAN_POINT ( 'NONE',  ( 4.166132054225732500, 0.4354517598264725500, 100.0000000000000000 ) ) ;
#900 = APPLICATION_PROTOCOL_DEFINITION ( 'international standard', 'config_control_design', 1994, #863 ) ;
#901 = CARTESIAN_POINT ( 'NONE',  ( -4.166132054225729000, 0.4354517598264729900, 0.0000000000000000000 ) ) ;
#902 = CARTESIAN_POINT ( 'NONE',  ( 3.670316035232289200, -2.276824562219559300E-015, 100.0000000000000000 ) ) ;
#903 = APPROVAL_STATUS ( 'not_yet_approved' ) ;
#904 = CARTESIAN_POINT ( 'NONE',  ( 5.000000000000000000, 8.199999999999999300, 0.0000000000000000000 ) ) ;
#905 = CARTESIAN_POINT ( 'NONE',  ( 2.597254789999998700, 5.482865886938475900, 0.0000000000000000000 ) ) ;
#906 = DIRECTION ( 'NONE',  ( -0.0000000000000000000, -0.0000000000000000000, -1.000000000000000000 ) ) ;
#907 = CARTESIAN_POINT ( 'NONE',  ( -1.904512060284784700, 5.082731521472679100, 100.0000000000000000 ) ) ;
#908 = DIRECTION ( 'NONE',  ( 1.000000000000000000, 0.0000000000000000000, 0.0000000000000000000 ) ) ;
#909 = DIRECTION ( 'NONE',  ( 1.000000000000000000, 0.0000000000000000000, 0.0000000000000000000 ) ) ;
#910 = CARTESIAN_POINT ( 'NONE',  ( -2.002621012683686100, 4.912877918882969700, 100.0000000000000000 ) ) ;
#911 = DIRECTION ( 'NONE',  ( 0.5001679568322503500, 0.8659284121440132800, 0.0000000000000000000 ) ) ;
#912 = CARTESIAN_POINT ( 'NONE',  ( 2.597254789999998700, 5.482865886938475900, 100.0000000000000000 ) ) ;
#913 = DIRECTION ( 'NONE',  ( 0.0000000000000000000, 0.0000000000000000000, 1.000000000000000000 ) ) ;
#914 = DIRECTION ( 'NONE',  ( 1.000000000000000000, 0.0000000000000000000, 0.0000000000000000000 ) ) ;
#915 = DIRECTION ( 'NONE',  ( -0.0000000000000000000, -0.0000000000000000000, -1.000000000000000000 ) ) ;
#916 = DIRECTION ( 'NONE',  ( 0.0000000000000000000, 0.0000000000000000000, 1.000000000000000000 ) ) ;
#917 = CARTESIAN_POINT ( 'NONE',  ( -3.231189682769444200, 0.9999999999999995600, 100.0000000000000000 ) ) ;
#918 = DIRECTION ( 'NONE',  ( -0.1290964803470506800, 0.9916320379868751600, 0.0000000000000000000 ) ) ;
#919 = CARTESIAN_POINT ( 'NONE',  ( 2.002621012683686100, 4.912877918882969700, 0.0000000000000000000 ) ) ;
#920 = CARTESIAN_POINT ( 'NONE',  ( -3.137796372623062400, 6.718951415432950800, 100.0000000000000000 ) ) ;
#921 = CARTESIAN_POINT ( 'NONE',  ( 3.493762307131582200, 3.016905696544328400, 0.0000000000000000000 ) ) ;
#922 = CARTESIAN_POINT ( 'NONE',  ( -3.493762307131582200, 3.016905696544328400, 0.0000000000000000000 ) ) ;
#923 = DIRECTION ( 'NONE',  ( 0.0000000000000000000, 0.0000000000000000000, 1.000000000000000000 ) ) ;
#924 = DIRECTION ( 'NONE',  ( 0.0000000000000000000, 0.0000000000000000000, 1.000000000000000000 ) ) ;
#925 = CARTESIAN_POINT ( 'NONE',  ( 3.231189682769444200, 0.9999999999999995600, 100.0000000000000000 ) ) ;
#926 = CARTESIAN_POINT ( 'NONE',  ( -2.597254790000001400, 5.482865886938472300, 0.0000000000000000000 ) ) ;
#927 = DIRECTION ( 'NONE',  ( 1.000000000000000000, 0.0000000000000000000, 0.0000000000000000000 ) ) ;
#928 = DIRECTION ( 'NONE',  ( 0.8659284121440288300, 0.5001679568322234800, 0.0000000000000000000 ) ) ;
#929 = CARTESIAN_POINT ( 'NONE',  ( -2.597254790000001400, 5.482865886938472300, 100.0000000000000000 ) ) ;
#930 = CARTESIAN_POINT ( 'NONE',  ( 2.597254789999998700, 5.482865886938475900, 100.0000000000000000 ) ) ;
#931 = DIRECTION ( 'NONE',  ( 1.000000000000000000, 0.0000000000000000000, 0.0000000000000000000 ) ) ;
#932 = DIRECTION ( 'NONE',  ( 0.09571240664425671700, 0.9954090291002811700, 0.0000000000000000000 ) ) ;
#933 = CARTESIAN_POINT ( 'NONE',  ( -2.197120424534222400, 6.175608616653697400, 0.0000000000000000000 ) ) ;
#934 = CARTESIAN_POINT ( 'NONE',  ( -2.197120424534222400, 6.175608616653697400, 100.0000000000000000 ) ) ;
#935 = DIRECTION ( 'NONE',  ( 0.0000000000000000000, 0.0000000000000000000, 1.000000000000000000 ) ) ;
#936 = CARTESIAN_POINT ( 'NONE',  ( 4.500000000000000000, 8.699999999999999300, 100.0000000000000000 ) ) ;
#937 = DIRECTION ( 'NONE',  ( -0.0000000000000000000, -0.0000000000000000000, -1.000000000000000000 ) ) ;
#938 = CARTESIAN_POINT ( 'NONE',  ( 1.797254789999999800, 5.482865886938475900, 100.0000000000000000 ) ) ;
#939 = DIRECTION ( 'NONE',  ( 1.000000000000000000, 0.0000000000000000000, 0.0000000000000000000 ) ) ;
#940 = DIRECTION ( 'NONE',  ( -1.000000000000000000, 0.0000000000000000000, 0.0000000000000000000 ) ) ;
#941 = DIRECTION ( 'NONE',  ( 0.0000000000000000000, 0.0000000000000000000, 1.000000000000000000 ) ) ;
#942 = CARTESIAN_POINT ( 'NONE',  ( 3.493762307131582200, 3.016905696544328400, 100.0000000000000000 ) ) ;
#943 = CARTESIAN_POINT ( 'NONE',  ( 3.137796372623062400, 6.718951415432950800, 100.0000000000000000 ) ) ;
#944 = DIRECTION ( 'NONE',  ( -0.1290964803470506800, -0.9916320379868751600, 0.0000000000000000000 ) ) ;
#945 = CARTESIAN_POINT ( 'NONE',  ( 4.500000000000000000, 9.199999999999999300, 100.0000000000000000 ) ) ;
#946 = CARTESIAN_POINT ( 'NONE',  ( -3.242590241414693900, 5.629095179999999300, 100.0000000000000000 ) ) ;
#947 = DIRECTION ( 'NONE',  ( -0.1290964803470506800, -0.9916320379868751600, 0.0000000000000000000 ) ) ;
#948 = DIRECTION ( 'NONE',  ( -0.8659284121440281600, 0.5001679568322247000, 0.0000000000000000000 ) ) ;
#949 = CARTESIAN_POINT ( 'NONE',  ( 4.500000000000000000, 8.699999999999999300, 0.0000000000000000000 ) ) ;
#950 = DIRECTION ( 'NONE',  ( 0.0000000000000000000, 0.0000000000000000000, 1.000000000000000000 ) ) ;
#951 = CARTESIAN_POINT ( 'NONE',  ( 4.500000000000000000, 2.999999999999999600, 100.0000000000000000 ) ) ;
#952 = CARTESIAN_POINT ( 'NONE',  ( 4.166132054225732500, 0.4354517598264725500, 0.0000000000000000000 ) ) ;
#953 = CARTESIAN_POINT ( 'NONE',  ( 4.500000000000000000, 9.199999999999999300, 0.0000000000000000000 ) ) ;
#954 = DIRECTION ( 'NONE',  ( 0.5001679568322503500, 0.8659284121440132800, 0.0000000000000000000 ) ) ;
#955 = CARTESIAN_POINT ( 'NONE',  ( -3.493762307131582200, 3.016905696544328400, 100.0000000000000000 ) ) ;
#956 = CARTESIAN_POINT ( 'NONE',  ( 3.231189682769444200, 0.9999999999999995600, 100.0000000000000000 ) ) ;
#957 = CARTESIAN_POINT ( 'NONE',  ( 3.242590241414693000, 5.629095180000000200, 0.0000000000000000000 ) ) ;
#958 = DIRECTION ( 'NONE',  ( -0.0000000000000000000, -0.0000000000000000000, -1.000000000000000000 ) ) ;
#959 = DIRECTION ( 'NONE',  ( -0.0000000000000000000, -0.0000000000000000000, -1.000000000000000000 ) ) ;
#960 = DIRECTION ( 'NONE',  ( 1.734723475976805500E-015, 1.000000000000000000, 0.0000000000000000000 ) ) ;
#961 = DIRECTION ( 'NONE',  ( -0.0000000000000000000, -0.0000000000000000000, -1.000000000000000000 ) ) ;
#962 = DIRECTION ( 'NONE',  ( -0.0000000000000000000, -0.0000000000000000000, -1.000000000000000000 ) ) ;
#963 = CARTESIAN_POINT ( 'NONE',  ( -3.000000000000000400, 8.152033690712800200, 100.0000000000000000 ) ) ;
#964 = DIRECTION ( 'NONE',  ( -0.0000000000000000000, -0.0000000000000000000, -1.000000000000000000 ) ) ;
#965 = DIRECTION ( 'NONE',  ( 0.8659284121440288300, 0.5001679568322234800, 0.0000000000000000000 ) ) ;
#966 = CARTESIAN_POINT ( 'NONE',  ( 5.000000000000000000, 8.199999999999999300, 0.0000000000000000000 ) ) ;
#967 = DIRECTION ( 'NONE',  ( -0.09571240664425789700, 0.9954090291002811700, 0.0000000000000000000 ) ) ;
#968 = CARTESIAN_POINT ( 'NONE',  ( 3.242590241414693000, 5.629095180000000200, 100.0000000000000000 ) ) ;
#969 = DIRECTION ( 'NONE',  ( -0.0000000000000000000, -0.0000000000000000000, -1.000000000000000000 ) ) ;
#970 = DIRECTION ( 'NONE',  ( -0.8659284121440281600, -0.5001679568322247000, 0.0000000000000000000 ) ) ;
#971 = DIRECTION ( 'NONE',  ( -1.000000000000000000, 0.0000000000000000000, 0.0000000000000000000 ) ) ;
#972 = CARTESIAN_POINT ( 'NONE',  ( 3.137796372623062400, 6.718951415432950800, 0.0000000000000000000 ) ) ;
#973 = DIRECTION ( 'NONE',  ( -0.0000000000000000000, -0.0000000000000000000, -1.000000000000000000 ) ) ;
#974 = DIRECTION ( 'NONE',  ( 0.8659284121440292700, -0.5001679568322227000, 0.0000000000000000000 ) ) ;
#975 = DIRECTION ( 'NONE',  ( 0.1290964803470517100, 0.9916320379868750500, 0.0000000000000000000 ) ) ;
#976 = CARTESIAN_POINT ( 'NONE',  ( 3.000000000000000400, 9.199999999999999300, 100.0000000000000000 ) ) ;
#977 = DIRECTION ( 'NONE',  ( 0.09571240664425671700, 0.9954090291002811700, 0.0000000000000000000 ) ) ;
#978 = CARTESIAN_POINT ( 'NONE',  ( 2.002621012683686100, 4.912877918882969700, 100.0000000000000000 ) ) ;
#979 = CARTESIAN_POINT ( 'NONE',  ( -2.002621012683686100, 4.912877918882969700, 0.0000000000000000000 ) ) ;
#980 = DIRECTION ( 'NONE',  ( 1.000000000000000000, 0.0000000000000000000, 0.0000000000000000000 ) ) ;
#981 = CARTESIAN_POINT ( 'NONE',  ( -3.493762307131582200, 3.016905696544328400, 100.0000000000000000 ) ) ;
#982 = CARTESIAN_POINT ( 'NONE',  ( 3.000000000000000400, 9.199999999999999300, 100.0000000000000000 ) ) ;
#983 = CARTESIAN_POINT ( 'NONE',  ( 3.137796372623062400, 6.718951415432950800, 100.0000000000000000 ) ) ;
#984 = DIRECTION ( 'NONE',  ( -0.8659284121440281600, -0.5001679568322247000, 0.0000000000000000000 ) ) ;
#985 = CARTESIAN_POINT ( 'NONE',  ( -5.000000000000000900, 8.699999999999999300, 0.0000000000000000000 ) ) ;
#986 = DIRECTION ( 'NONE',  ( -1.000000000000000000, 0.0000000000000000000, 0.0000000000000000000 ) ) ;
#987 = DIRECTION ( 'NONE',  ( -0.09571240664425759200, -0.9954090291002810600, 0.0000000000000000000 ) ) ;
#988 = DIRECTION ( 'NONE',  ( 0.09571240664425703600, -0.9954090291002811700, 0.0000000000000000000 ) ) ;
#989 = DIRECTION ( 'NONE',  ( 0.09571240664425755000, -0.9954090291002810600, 0.0000000000000000000 ) ) ;
#990 = DIRECTION ( 'NONE',  ( 1.000000000000000000, 0.0000000000000000000, 0.0000000000000000000 ) ) ;
#991 = DIRECTION ( 'NONE',  ( 0.09571240664425755000, -0.9954090291002810600, 0.0000000000000000000 ) ) ;
#992 = CARTESIAN_POINT ( 'NONE',  ( -3.000000000000000400, 8.152033690712800200, 100.0000000000000000 ) ) ;
#993 = CARTESIAN_POINT ( 'NONE',  ( 4.500000000000000000, 2.999999999999999600, 100.0000000000000000 ) ) ;
#994 = DIRECTION ( 'NONE',  ( 0.0000000000000000000, 0.0000000000000000000, 1.000000000000000000 ) ) ;
#995 = DIRECTION ( 'NONE',  ( -0.0000000000000000000, -0.0000000000000000000, -1.000000000000000000 ) ) ;
#996 = CARTESIAN_POINT ( 'NONE',  ( -4.000000000000000900, 8.199999999999997500, 0.0000000000000000000 ) ) ;
#997 = CARTESIAN_POINT ( 'NONE',  ( -3.231189682769444200, 0.9999999999999995600, 0.0000000000000000000 ) ) ;
#998 = DIRECTION ( 'NONE',  ( -0.0000000000000000000, -0.0000000000000000000, -1.000000000000000000 ) ) ;
#999 = DIRECTION ( 'NONE',  ( -0.0000000000000000000, -0.0000000000000000000, -1.000000000000000000 ) ) ;
#1000 = DIRECTION ( 'NONE',  ( -0.0000000000000000000, -0.0000000000000000000, -1.000000000000000000 ) ) ;
#1001 = CARTESIAN_POINT ( 'NONE',  ( -4.500000000000000000, 8.699999999999999300, 100.0000000000000000 ) ) ;
#1002 = DIRECTION ( 'NONE',  ( 0.0000000000000000000, 1.000000000000000000, 0.0000000000000000000 ) ) ;
#1003 = DIRECTION ( 'NONE',  ( 0.8659284121440292700, -0.5001679568322227000, 0.0000000000000000000 ) ) ;
#1004 = DIRECTION ( 'NONE',  ( 1.000000000000000000, 0.0000000000000000000, 0.0000000000000000000 ) ) ;
#1005 = CARTESIAN_POINT ( 'NONE',  ( -3.242590241414693900, 5.629095179999999300, 0.0000000000000000000 ) ) ;
#1006 = CARTESIAN_POINT ( 'NONE',  ( 4.500000000000000000, 9.199999999999999300, 100.0000000000000000 ) ) ;
#1007 = CARTESIAN_POINT ( 'NONE',  ( -3.242590241414693900, 5.629095179999999300, 100.0000000000000000 ) ) ;
#1008 = DIRECTION ( 'NONE',  ( 0.0000000000000000000, -1.000000000000000000, 0.0000000000000000000 ) ) ;
#1009 = CARTESIAN_POINT ( 'NONE',  ( 3.000000000000000400, 8.152033690712800200, 100.0000000000000000 ) ) ;
#1010 = CARTESIAN_POINT ( 'NONE',  ( -2.002621012683686100, 4.912877918882969700, 100.0000000000000000 ) ) ;
#1011 = CARTESIAN_POINT ( 'NONE',  ( 3.670316035232290600, 0.5000000000000003300, 100.0000000000000000 ) ) ;
#1012 = CARTESIAN_POINT ( 'NONE',  ( -5.000000000000000000, 8.199999999999999300, 0.0000000000000000000 ) ) ;
#1013 = DIRECTION ( 'NONE',  ( 0.0000000000000000000, 0.0000000000000000000, 1.000000000000000000 ) ) ;
#1014 = DIRECTION ( 'NONE',  ( 1.000000000000000000, -1.734723475976808500E-015, 0.0000000000000000000 ) ) ;
#1015 = CARTESIAN_POINT ( 'NONE',  ( 3.000000000000000400, 8.152033690712800200, 100.0000000000000000 ) ) ;
#1016 = CARTESIAN_POINT ( 'NONE',  ( 1.904512060284785400, 5.082731521472680000, 100.0000000000000000 ) ) ;
#1017 = CARTESIAN_POINT ( 'NONE',  ( 3.000000000000000400, 8.152033690712800200, 0.0000000000000000000 ) ) ;
#1018 = DIRECTION ( 'NONE',  ( -0.0000000000000000000, -0.0000000000000000000, -1.000000000000000000 ) ) ;
#1019 = DIRECTION ( 'NONE',  ( -0.0000000000000000000, -0.0000000000000000000, -1.000000000000000000 ) ) ;
#1020 = CARTESIAN_POINT ( 'NONE',  ( -4.166132054225729000, 0.4354517598264729900, 100.0000000000000000 ) ) ;
#1021 = CARTESIAN_POINT ( 'NONE',  ( -5.000000000000000000, 8.199999999999999300, 100.0000000000000000 ) ) ;
#1022 = CARTESIAN_POINT ( 'NONE',  ( 5.000000000000000000, 8.199999999999999300, 100.0000000000000000 ) ) ;
#1023 = DIRECTION ( 'NONE',  ( 1.734723475976805500E-015, 1.000000000000000000, 0.0000000000000000000 ) ) ;
#1024 = CARTESIAN_POINT ( 'NONE',  ( -3.670316035232289200, 0.0000000000000000000, 0.0000000000000000000 ) ) ;
#1025 = CARTESIAN_POINT ( 'NONE',  ( -3.137796372623062400, 6.718951415432950800, 0.0000000000000000000 ) ) ;
#1026 = DIRECTION ( 'NONE',  ( 0.5001679568322503500, -0.8659284121440132800, 0.0000000000000000000 ) ) ;
#1027 = CARTESIAN_POINT ( 'NONE',  ( 1.904512060284785400, 5.082731521472680000, 100.0000000000000000 ) ) ;
#1028 = DIRECTION ( 'NONE',  ( -0.1290964803470506800, 0.9916320379868751600, 0.0000000000000000000 ) ) ;
#1029 = DIRECTION ( 'NONE',  ( 0.5001679568322503500, -0.8659284121440132800, 0.0000000000000000000 ) ) ;
#1030 = CARTESIAN_POINT ( 'NONE',  ( 3.670316035232289200, -2.276824562219559300E-015, 100.0000000000000000 ) ) ;
#1031 = CARTESIAN_POINT ( 'NONE',  ( 1.904512060284785400, 5.082731521472680000, 0.0000000000000000000 ) ) ;
#1032 = DIRECTION ( 'NONE',  ( 1.000000000000000000, 0.0000000000000000000, 0.0000000000000000000 ) ) ;
#1033 = CARTESIAN_POINT ( 'NONE',  ( 2.197120424534222000, 6.175608616653698300, 100.0000000000000000 ) ) ;
#1034 = DIRECTION ( 'NONE',  ( 1.000000000000000000, -1.734723475976808500E-015, 0.0000000000000000000 ) ) ;
#1035 = DIRECTION ( 'NONE',  ( 0.0000000000000000000, -1.000000000000000000, 0.0000000000000000000 ) ) ;
#1036 = CARTESIAN_POINT ( 'NONE',  ( 2.597254789999998700, 5.482865886938475900, 0.0000000000000000000 ) ) ;
#1037 = CARTESIAN_POINT ( 'NONE',  ( 3.000000000000000400, 9.199999999999999300, 0.0000000000000000000 ) ) ;
#1038 = DIRECTION ( 'NONE',  ( 0.0000000000000000000, 0.0000000000000000000, 1.000000000000000000 ) ) ;
#1039 = DIRECTION ( 'NONE',  ( 1.734723475976805500E-015, -1.000000000000000000, 0.0000000000000000000 ) ) ;
#1040 = DIRECTION ( 'NONE',  ( -0.0000000000000000000, -0.0000000000000000000, -1.000000000000000000 ) ) ;
#1041 = DIRECTION ( 'NONE',  ( 1.000000000000000000, 0.0000000000000000000, 0.0000000000000000000 ) ) ;
#1042 = DIRECTION ( 'NONE',  ( 0.1290964803470517100, 0.9916320379868750500, 0.0000000000000000000 ) ) ;
#1043 = CARTESIAN_POINT ( 'NONE',  ( -4.500000000000000000, 2.999999999999999600, 0.0000000000000000000 ) ) ;
#1044 = DIRECTION ( 'NONE',  ( 0.09571240664425755000, 0.9954090291002810600, 0.0000000000000000000 ) ) ;
#1045 = DIRECTION ( 'NONE',  ( -0.0000000000000000000, -0.0000000000000000000, -1.000000000000000000 ) ) ;
#1046 = CARTESIAN_POINT ( 'NONE',  ( -3.000000000000000400, 9.199999999999999300, 0.0000000000000000000 ) ) ;
#1047 = CARTESIAN_POINT ( 'NONE',  ( 3.493762307131582200, 3.016905696544328400, 100.0000000000000000 ) ) ;
#1048 = CARTESIAN_POINT ( 'NONE',  ( 5.000000000000000000, 8.199999999999999300, 100.0000000000000000 ) ) ;
#1049 = CARTESIAN_POINT ( 'NONE',  ( -5.000000000000000000, 8.199999999999999300, 100.0000000000000000 ) ) ;
#1050 = CARTESIAN_POINT ( 'NONE',  ( -3.000000000000000400, 8.152033690712800200, 0.0000000000000000000 ) ) ;
#1051 = CARTESIAN_POINT ( 'NONE',  ( -5.000000000000000900, 8.699999999999999300, 100.0000000000000000 ) ) ;
#1052 = DIRECTION ( 'NONE',  ( -0.0000000000000000000, -0.0000000000000000000, -1.000000000000000000 ) ) ;
#1053 = CARTESIAN_POINT ( 'NONE',  ( 4.166132054225732500, 0.4354517598264725500, 100.0000000000000000 ) ) ;
#1054 = DIRECTION ( 'NONE',  ( -0.0000000000000000000, -0.0000000000000000000, -1.000000000000000000 ) ) ;
#1055 = CARTESIAN_POINT ( 'NONE',  ( 2.002621012683686100, 4.912877918882969700, 100.0000000000000000 ) ) ;
#1056 = DIRECTION ( 'NONE',  ( -1.000000000000000000, 0.0000000000000000000, 0.0000000000000000000 ) ) ;
#1057 = DIRECTION ( 'NONE',  ( -0.0000000000000000000, -0.0000000000000000000, -1.000000000000000000 ) ) ;
#1058 = DIRECTION ( 'NONE',  ( -0.0000000000000000000, -0.0000000000000000000, -1.000000000000000000 ) ) ;
#1059 = CARTESIAN_POINT ( 'NONE',  ( -3.670316035232289200, 0.0000000000000000000, 100.0000000000000000 ) ) ;
#1060 = DIRECTION ( 'NONE',  ( 0.0000000000000000000, 1.000000000000000000, 0.0000000000000000000 ) ) ;
#1061 = DIRECTION ( 'NONE',  ( -0.0000000000000000000, -0.0000000000000000000, -1.000000000000000000 ) ) ;
#1062 = DIRECTION ( 'NONE',  ( -1.000000000000000000, 0.0000000000000000000, 0.0000000000000000000 ) ) ;
#1063 = CARTESIAN_POINT ( 'NONE',  ( 4.500000000000000000, 2.999999999999999600, 0.0000000000000000000 ) ) ;
#1064 = CARTESIAN_POINT ( 'NONE',  ( -3.231189682769444200, 0.9999999999999995600, 100.0000000000000000 ) ) ;
#1065 = DIRECTION ( 'NONE',  ( 1.734723475976805500E-015, -1.000000000000000000, 0.0000000000000000000 ) ) ;
#1066 = CARTESIAN_POINT ( 'NONE',  ( 5.000000000000000900, 8.699999999999999300, 100.0000000000000000 ) ) ;
#1067 = CARTESIAN_POINT ( 'NONE',  ( -3.000000000000000400, 9.199999999999999300, 100.0000000000000000 ) ) ;
#1068 = DIRECTION ( 'NONE',  ( -0.09571240664425789700, 0.9954090291002811700, 0.0000000000000000000 ) ) ;
#1069 = CARTESIAN_POINT ( 'NONE',  ( -4.500000000000000000, 2.999999999999999600, 100.0000000000000000 ) ) ;
#1070 = DIRECTION ( 'NONE',  ( 0.09571240664425703600, -0.9954090291002811700, 0.0000000000000000000 ) ) ;
#1071 = DIRECTION ( 'NONE',  ( 0.1290964803470517100, -0.9916320379868750500, 0.0000000000000000000 ) ) ;
#1072 = DIRECTION ( 'NONE',  ( 1.000000000000000000, 0.0000000000000000000, 0.0000000000000000000 ) ) ;
#1073 = DIRECTION ( 'NONE',  ( -0.0000000000000000000, -0.0000000000000000000, -1.000000000000000000 ) ) ;
#1074 = CARTESIAN_POINT ( 'NONE',  ( -5.000000000000000900, 8.699999999999999300, 100.0000000000000000 ) ) ;
#1075 = CARTESIAN_POINT ( 'NONE',  ( 3.670316035232290600, 0.5000000000000003300, 0.0000000000000000000 ) ) ;
#1076 = DIRECTION ( 'NONE',  ( -0.0000000000000000000, -0.0000000000000000000, -1.000000000000000000 ) ) ;
#1077 = CARTESIAN_POINT ( 'NONE',  ( 3.999999999999999100, 8.199999999999999300, 0.0000000000000000000 ) ) ;
#1078 = CARTESIAN_POINT ( 'NONE',  ( 3.242590241414693000, 5.629095180000000200, 100.0000000000000000 ) ) ;
#1079 = DIRECTION ( 'NONE',  ( -0.0000000000000000000, -0.0000000000000000000, -1.000000000000000000 ) ) ;
#1080 = DIRECTION ( 'NONE',  ( 0.1290964803470517100, -0.9916320379868750500, 0.0000000000000000000 ) ) ;
#1081 = DIRECTION ( 'NONE',  ( -0.0000000000000000000, -0.0000000000000000000, -1.000000000000000000 ) ) ;
#1082 = CARTESIAN_POINT ( 'NONE',  ( 3.231189682769444200, 0.9999999999999995600, 0.0000000000000000000 ) ) ;
#1083 = DIRECTION ( 'NONE',  ( -0.0000000000000000000, -0.0000000000000000000, -1.000000000000000000 ) ) ;
#1084 = DIRECTION ( 'NONE',  ( 1.000000000000000000, 0.0000000000000000000, 0.0000000000000000000 ) ) ;
#1085 = DIRECTION ( 'NONE',  ( -1.000000000000000000, 0.0000000000000000000, 0.0000000000000000000 ) ) ;
#1086 = CARTESIAN_POINT ( 'NONE',  ( -4.500000000000000000, 2.999999999999999600, 100.0000000000000000 ) ) ;
#1087 = CARTESIAN_POINT ( 'NONE',  ( 3.999999999999999100, 8.199999999999999300, 100.0000000000000000 ) ) ;
#1088 = DIRECTION ( 'NONE',  ( -0.0000000000000000000, -0.0000000000000000000, -1.000000000000000000 ) ) ;
#1089 = DIRECTION ( 'NONE',  ( 1.000000000000000000, 0.0000000000000000000, 0.0000000000000000000 ) ) ;
#1090 = CARTESIAN_POINT ( 'NONE',  ( -4.500000000000000000, 9.199999999999999300, 100.0000000000000000 ) ) ;
#1091 = DIRECTION ( 'NONE',  ( -0.09571240664425759200, -0.9954090291002810600, 0.0000000000000000000 ) ) ;
#1092 = CARTESIAN_POINT ( 'NONE',  ( -2.197120424534222400, 6.175608616653697400, 100.0000000000000000 ) ) ;
#1093 = CARTESIAN_POINT ( 'NONE',  ( -4.500000000000000000, 8.699999999999999300, 0.0000000000000000000 ) ) ;
#1094 = CARTESIAN_POINT ( 'NONE',  ( -3.000000000000000400, 9.199999999999999300, 100.0000000000000000 ) ) ;
#1095 = DIRECTION ( 'NONE',  ( -0.0000000000000000000, -0.0000000000000000000, -1.000000000000000000 ) ) ;
#1096 = DIRECTION ( 'NONE',  ( 0.0000000000000000000, 0.0000000000000000000, 1.000000000000000000 ) ) ;
#1097 = DIRECTION ( 'NONE',  ( 0.0000000000000000000, 0.0000000000000000000, 1.000000000000000000 ) ) ;
#1098 = CARTESIAN_POINT ( 'NONE',  ( -4.000000000000000900, 8.199999999999997500, 100.0000000000000000 ) ) ;
#1099 = DIRECTION ( 'NONE',  ( 1.000000000000000000, 0.0000000000000000000, 0.0000000000000000000 ) ) ;
#1100 = CARTESIAN_POINT ( 'NONE',  ( -3.670316035232289200, 0.0000000000000000000, 100.0000000000000000 ) ) ;
#1101 = DIRECTION ( 'NONE',  ( 0.0000000000000000000, 0.0000000000000000000, 1.000000000000000000 ) ) ;
#1102 = DIRECTION ( 'NONE',  ( 1.000000000000000000, 0.0000000000000000000, 0.0000000000000000000 ) ) ;
#1103 = CARTESIAN_POINT ( 'NONE',  ( -3.670316035232289700, 0.4999999999999990600, 0.0000000000000000000 ) ) ;
#1104 = CARTESIAN_POINT ( 'NONE',  ( -3.670316035232289700, 0.4999999999999990600, 100.0000000000000000 ) ) ;
#1105 = DIRECTION ( 'NONE',  ( 0.0000000000000000000, 0.0000000000000000000, 1.000000000000000000 ) ) ;
#1106 = DIRECTION ( 'NONE',  ( 1.000000000000000000, 0.0000000000000000000, 0.0000000000000000000 ) ) ;
#1107 = DIRECTION ( 'NONE',  ( -0.0000000000000000000, -0.0000000000000000000, -1.000000000000000000 ) ) ;
#1108 = DIRECTION ( 'NONE',  ( -0.9916320379868752700, -0.1290964803470506800, 0.0000000000000000000 ) ) ;
#1109 = DIRECTION ( 'NONE',  ( 0.1290964803470506800, -0.9916320379868752700, 0.0000000000000000000 ) ) ;
#1110 = DIRECTION ( 'NONE',  ( -0.0000000000000000000, -0.0000000000000000000, -1.000000000000000000 ) ) ;
#1111 = DIRECTION ( 'NONE',  ( 0.9954090291002811700, 0.09571240664425755000, -0.0000000000000000000 ) ) ;
#1112 = DIRECTION ( 'NONE',  ( -0.0000000000000000000, -0.0000000000000000000, -1.000000000000000000 ) ) ;
#1113 = DIRECTION ( 'NONE',  ( 1.000000000000000000, 0.0000000000000000000, 0.0000000000000000000 ) ) ;
#1114 = PLANE ( 'NONE',  #88 ) ;
#1115 = DIRECTION ( 'NONE',  ( 0.0000000000000000000, 0.0000000000000000000, 1.000000000000000000 ) ) ;
#1116 = DIRECTION ( 'NONE',  ( -1.734723475976805500E-015, -1.000000000000000000, 0.0000000000000000000 ) ) ;
#1117 = PLANE ( 'NONE',  #127 ) ;
#1118 = DIRECTION ( 'NONE',  ( -1.000000000000000000, 0.0000000000000000000, 0.0000000000000000000 ) ) ;
#1119 = PLANE ( 'NONE',  #105 ) ;
#1120 = PLANE ( 'NONE',  #92 ) ;
#1121 = DIRECTION ( 'NONE',  ( -1.000000000000000000, 0.0000000000000000000, 0.0000000000000000000 ) ) ;
#1122 = DIRECTION ( 'NONE',  ( 0.09571240664425755000, 0.9954090291002810600, 0.0000000000000000000 ) ) ;
#1123 = CARTESIAN_POINT ( 'NONE',  ( 3.999999999999999100, 8.199999999999999300, 100.0000000000000000 ) ) ;
#1124 = CARTESIAN_POINT ( 'NONE',  ( -3.137796372623062400, 6.718951415432950800, 100.0000000000000000 ) ) ;
#1125 = PLANE ( 'NONE',  #99 ) ;
#1126 = CARTESIAN_POINT ( 'NONE',  ( -3.231189682769444200, 0.9999999999999995600, 100.0000000000000000 ) ) ;
#1127 = CARTESIAN_POINT ( 'NONE',  ( 4.166132054225732500, 0.4354517598264725500, 100.0000000000000000 ) ) ;
#1128 = CARTESIAN_POINT ( 'NONE',  ( -4.000000000000000900, 8.199999999999997500, 100.0000000000000000 ) ) ;
#1129 = DIRECTION ( 'NONE',  ( -0.9954090291002811700, 0.09571240664425755000, 0.0000000000000000000 ) ) ;
#1130 = DIRECTION ( 'NONE',  ( -0.09571240664425755000, 0.9954090291002811700, 0.0000000000000000000 ) ) ;
#1131 = PLANE ( 'NONE',  #125 ) ;
#1132 = DIRECTION ( 'NONE',  ( -0.8659284121440281600, 0.5001679568322247000, 0.0000000000000000000 ) ) ;
#1133 = CARTESIAN_POINT ( 'NONE',  ( 3.000000000000000400, 8.152033690712800200, 100.0000000000000000 ) ) ;
#1134 = CARTESIAN_POINT ( 'NONE',  ( -3.000000000000000400, 8.152033690712800200, 100.0000000000000000 ) ) ;
#1135 = CARTESIAN_POINT ( 'NONE',  ( 4.500000000000000000, 8.699999999999999300, 100.0000000000000000 ) ) ;
#1136 = CARTESIAN_POINT ( 'NONE',  ( 5.000000000000000000, 8.199999999999999300, 100.0000000000000000 ) ) ;
#1137 = CARTESIAN_POINT ( 'NONE',  ( -3.137796372623062400, 6.718951415432950800, 100.0000000000000000 ) ) ;
#1138 = DIRECTION ( 'NONE',  ( -0.0000000000000000000, -0.0000000000000000000, -1.000000000000000000 ) ) ;
#1139 = DIRECTION ( 'NONE',  ( -0.09571240664425755000, -0.9954090291002811700, 0.0000000000000000000 ) ) ;
#1140 = DIRECTION ( 'NONE',  ( -1.000000000000000000, 1.734723475976805500E-015, 0.0000000000000000000 ) ) ;
#1141 = CARTESIAN_POINT ( 'NONE',  ( 3.231189682769444200, 0.9999999999999995600, 100.0000000000000000 ) ) ;
#1142 = DIRECTION ( 'NONE',  ( 0.0000000000000000000, 0.0000000000000000000, 1.000000000000000000 ) ) ;
#1143 = PLANE ( 'NONE',  #96 ) ;
#1144 = DIRECTION ( 'NONE',  ( 0.0000000000000000000, -0.0000000000000000000, -1.000000000000000000 ) ) ;
#1145 = CARTESIAN_POINT ( 'NONE',  ( -2.597254790000001400, 5.482865886938472300, 100.0000000000000000 ) ) ;
#1146 = PLANE ( 'NONE',  #90 ) ;
#1147 = CARTESIAN_POINT ( 'NONE',  ( -5.000000000000000000, 8.199999999999999300, 100.0000000000000000 ) ) ;
#1148 = DIRECTION ( 'NONE',  ( 1.000000000000000000, 0.0000000000000000000, -0.0000000000000000000 ) ) ;
#1149 = DIRECTION ( 'NONE',  ( -0.09571240664425671700, -0.9954090291002811700, 0.0000000000000000000 ) ) ;
#1150 = CARTESIAN_POINT ( 'NONE',  ( -3.242590241414693900, 5.629095179999999300, 100.0000000000000000 ) ) ;
#1151 = DIRECTION ( 'NONE',  ( 1.734723475976808700E-015, 1.000000000000000000, -0.0000000000000000000 ) ) ;
#1152 = DIRECTION ( 'NONE',  ( -0.9954090291002811700, 0.09571240664425671700, 0.0000000000000000000 ) ) ;
#1153 = DIRECTION ( 'NONE',  ( -1.000000000000000000, 1.734723475976808700E-015, 0.0000000000000000000 ) ) ;
#1154 = PLANE ( 'NONE',  #108 ) ;
#1155 = CARTESIAN_POINT ( 'NONE',  ( -2.197120424534222400, 6.175608616653697400, 100.0000000000000000 ) ) ;
#1156 = DIRECTION ( 'NONE',  ( 0.0000000000000000000, -1.000000000000000000, 0.0000000000000000000 ) ) ;
#1157 = CARTESIAN_POINT ( 'NONE',  ( 4.500000000000000000, 8.699999999999999300, 100.0000000000000000 ) ) ;
#1158 = PLANE ( 'NONE',  #95 ) ;
#1159 = DIRECTION ( 'NONE',  ( 0.5001679568322227000, 0.8659284121440292700, -0.0000000000000000000 ) ) ;
#1160 = DIRECTION ( 'NONE',  ( -0.8659284121440292700, 0.5001679568322227000, 0.0000000000000000000 ) ) ;
#1161 = DIRECTION ( 'NONE',  ( 0.0000000000000000000, -1.000000000000000000, 0.0000000000000000000 ) ) ;
#1162 = DIRECTION ( 'NONE',  ( 0.0000000000000000000, -0.0000000000000000000, -1.000000000000000000 ) ) ;
#1163 = CARTESIAN_POINT ( 'NONE',  ( -3.493762307131582200, 3.016905696544328400, 100.0000000000000000 ) ) ;
#1164 = PLANE ( 'NONE',  #131 ) ;
#1165 = CARTESIAN_POINT ( 'NONE',  ( 4.500000000000000000, 9.199999999999999300, 100.0000000000000000 ) ) ;
#1166 = DIRECTION ( 'NONE',  ( -0.0000000000000000000, -0.0000000000000000000, -1.000000000000000000 ) ) ;
#1167 = PLANE ( 'NONE',  #89 ) ;
#1168 = DIRECTION ( 'NONE',  ( -1.000000000000000000, 0.0000000000000000000, 0.0000000000000000000 ) ) ;
#1169 = PLANE ( 'NONE',  #100 ) ;
#1170 = PLANE ( 'NONE',  #97 ) ;
#1171 = PLANE ( 'NONE',  #148 ) ;
#1172 = PLANE ( 'NONE',  #167 ) ;
#1173 = PLANE ( 'NONE',  #142 ) ;
#1174 = DIRECTION ( 'NONE',  ( 0.09571240664425789700, -0.9954090291002811700, 0.0000000000000000000 ) ) ;
#1175 = DIRECTION ( 'NONE',  ( 0.1290964803470506800, 0.9916320379868752700, 0.0000000000000000000 ) ) ;
#1176 = DIRECTION ( 'NONE',  ( -0.5001679568322234800, 0.8659284121440289400, 0.0000000000000000000 ) ) ;
#1177 = DIRECTION ( 'NONE',  ( -0.0000000000000000000, -0.0000000000000000000, -1.000000000000000000 ) ) ;
#1178 = CARTESIAN_POINT ( 'NONE',  ( 2.597254789999998700, 5.482865886938475900, 100.0000000000000000 ) ) ;
#1179 = CARTESIAN_POINT ( 'NONE',  ( -4.500000000000000000, 2.999999999999999600, 100.0000000000000000 ) ) ;
#1180 = DIRECTION ( 'NONE',  ( -0.09571240664425702300, 0.9954090291002811700, 0.0000000000000000000 ) ) ;
#1181 = PLANE ( 'NONE',  #106 ) ;
#1182 = PLANE ( 'NONE',  #141 ) ;
#1183 = CARTESIAN_POINT ( 'NONE',  ( 2.002621012683686100, 4.912877918882969700, 100.0000000000000000 ) ) ;
#1184 = CARTESIAN_POINT ( 'NONE',  ( 4.500000000000000000, 2.999999999999999600, 100.0000000000000000 ) ) ;
#1185 = DIRECTION ( 'NONE',  ( -0.1290964803470517300, 0.9916320379868750500, 0.0000000000000000000 ) ) ;
#1186 = PLANE ( 'NONE',  #163 ) ;
#1187 = DIRECTION ( 'NONE',  ( -0.5001679568322503500, -0.8659284121440133900, 0.0000000000000000000 ) ) ;
#1188 = DIRECTION ( 'NONE',  ( -0.0000000000000000000, -0.0000000000000000000, -1.000000000000000000 ) ) ;
#1189 = DIRECTION ( 'NONE',  ( -0.8659284121440133900, 0.5001679568322503500, 0.0000000000000000000 ) ) ;
#1190 = CARTESIAN_POINT ( 'NONE',  ( 3.242590241414693000, 5.629095180000000200, 100.0000000000000000 ) ) ;
#1191 = CARTESIAN_POINT ( 'NONE',  ( -5.000000000000000900, 8.699999999999999300, 100.0000000000000000 ) ) ;
#1192 = DIRECTION ( 'NONE',  ( -1.734723475976805500E-015, 1.000000000000000000, 0.0000000000000000000 ) ) ;
#1193 = CARTESIAN_POINT ( 'NONE',  ( 2.597254789999998700, 5.482865886938475900, 100.0000000000000000 ) ) ;
#1194 = DIRECTION ( 'NONE',  ( -1.000000000000000000, 0.0000000000000000000, 0.0000000000000000000 ) ) ;
#1195 = DIRECTION ( 'NONE',  ( -0.0000000000000000000, -0.0000000000000000000, -1.000000000000000000 ) ) ;
#1196 = DIRECTION ( 'NONE',  ( -0.5001679568322247000, -0.8659284121440281600, 0.0000000000000000000 ) ) ;
#1197 = DIRECTION ( 'NONE',  ( 0.9916320379868751600, 0.1290964803470517600, -0.0000000000000000000 ) ) ;
#1198 = DIRECTION ( 'NONE',  ( 0.9954090291002811700, 0.09571240664425702300, -0.0000000000000000000 ) ) ;
#1199 = DIRECTION ( 'NONE',  ( 0.9916320379868752700, -0.1290964803470506800, 0.0000000000000000000 ) ) ;
#1200 = DIRECTION ( 'NONE',  ( -1.000000000000000000, 0.0000000000000000000, 0.0000000000000000000 ) ) ;
#1201 = CARTESIAN_POINT ( 'NONE',  ( -3.670316035232289700, 0.4999999999999990600, 100.0000000000000000 ) ) ;
#1202 = DIRECTION ( 'NONE',  ( -1.000000000000000000, 0.0000000000000000000, 0.0000000000000000000 ) ) ;
#1203 = DIRECTION ( 'NONE',  ( -0.9954090291002811700, -0.09571240664425789700, 0.0000000000000000000 ) ) ;
#1204 = DIRECTION ( 'NONE',  ( 0.8659284121440281600, -0.5001679568322247000, 0.0000000000000000000 ) ) ;
#1205 = DIRECTION ( 'NONE',  ( 1.000000000000000000, 1.734723475976805500E-015, -0.0000000000000000000 ) ) ;
#1206 = CARTESIAN_POINT ( 'NONE',  ( 3.493762307131582200, 3.016905696544328400, 100.0000000000000000 ) ) ;
#1207 = CARTESIAN_POINT ( 'NONE',  ( -2.002621012683686100, 4.912877918882969700, 100.0000000000000000 ) ) ;
#1208 = DIRECTION ( 'NONE',  ( -0.8659284121440288300, -0.5001679568322233700, 0.0000000000000000000 ) ) ;
ENDSEC;
END-ISO-10303-21;
