ISO-10303-21;
HEADER;
FILE_DESCRIPTION (( 'STEP AP203' ),
    '1' );
FILE_NAME ('ALP4260.STEP',
    '2017-03-10T17:45:33',
    ( '' ),
    ( '' ),
    'SwSTEP 2.0',
    'SolidWorks 2012',
    '' );
FILE_SCHEMA (( 'CONFIG_CONTROL_DESIGN' ));
ENDSEC;

DATA;
#1 = ADVANCED_FACE ( 'NONE', ( #974 ), #416, .F. ) ;
#2 = ADVANCED_FACE ( 'NONE', ( #935 ), #421, .F. ) ;
#3 = ADVANCED_FACE ( 'NONE', ( #931 ), #977, .T. ) ;
#4 = ADVANCED_FACE ( 'NONE', ( #971 ), #419, .T. ) ;
#5 = ADVANCED_FACE ( 'NONE', ( #952 ), #927, .T. ) ;
#6 = ADVANCED_FACE ( 'NONE', ( #933 ), #953, .T. ) ;
#7 = ADVANCED_FACE ( 'NONE', ( #928 ), #427, .F. ) ;
#8 = ADVANCED_FACE ( 'NONE', ( #926 ), #424, .F. ) ;
#9 = ADVANCED_FACE ( 'NONE', ( #929 ), #441, .F. ) ;
#10 = ADVANCED_FACE ( 'NONE', ( #957 ), #428, .F. ) ;
#11 = ADVANCED_FACE ( 'NONE', ( #930 ), #925, .T. ) ;
#12 = ADVANCED_FACE ( 'NONE', ( #937 ), #415, .F. ) ;
#13 = ADVANCED_FACE ( 'NONE', ( #954 ), #418, .F. ) ;
#14 = ADVANCED_FACE ( 'NONE', ( #975 ), #463, .F. ) ;
#15 = ADVANCED_FACE ( 'NONE', ( #924 ), #955, .T. ) ;
#16 = ADVANCED_FACE ( 'NONE', ( #961 ), #1012, .F. ) ;
#17 = ADVANCED_FACE ( 'NONE', ( #938 ), #991, .T. ) ;
#18 = ADVANCED_FACE ( 'NONE', ( #932 ), #1023, .T. ) ;
#19 = ADVANCED_FACE ( 'NONE', ( #939 ), #474, .F. ) ;
#20 = ADVANCED_FACE ( 'NONE', ( #992 ), #469, .F. ) ;
#21 = ADVANCED_FACE ( 'NONE', ( #1004 ), #994, .T. ) ;
#22 = ADVANCED_FACE ( 'NONE', ( #985 ), #1015, .T. ) ;
#23 = ADVANCED_FACE ( 'NONE', ( #1016 ), #485, .F. ) ;
#24 = ADVANCED_FACE ( 'NONE', ( #997 ), #490, .F. ) ;
#25 = ADVANCED_FACE ( 'NONE', ( #1017 ), #978, .T. ) ;
#26 = ADVANCED_FACE ( 'NONE', ( #1003 ), #501, .F. ) ;
#27 = ADVANCED_FACE ( 'NONE', ( #989 ), #484, .F. ) ;
#28 = ADVANCED_FACE ( 'NONE', ( #980 ), #1014, .T. ) ;
#29 = ADVANCED_FACE ( 'NONE', ( #1008 ), #1005, .F. ) ;
#30 = ADVANCED_FACE ( 'NONE', ( #1018 ), #508, .F. ) ;
#31 = ADVANCED_FACE ( 'NONE', ( #1013 ), #515, .F. ) ;
#32 = ADVANCED_FACE ( 'NONE', ( #993 ), #1011, .F. ) ;
#33 = ADVANCED_FACE ( 'NONE', ( #983 ), #1006, .T. ) ;
#34 = ORIENTED_EDGE ( 'NONE', *, *, #350, .T. ) ;
#35 = ORIENTED_EDGE ( 'NONE', *, *, #337, .T. ) ;
#36 = ORIENTED_EDGE ( 'NONE', *, *, #277, .T. ) ;
#37 = ORIENTED_EDGE ( 'NONE', *, *, #281, .T. ) ;
#38 = ORIENTED_EDGE ( 'NONE', *, *, #333, .T. ) ;
#39 = ORIENTED_EDGE ( 'NONE', *, *, #249, .T. ) ;
#40 = ORIENTED_EDGE ( 'NONE', *, *, #235, .T. ) ;
#41 = ORIENTED_EDGE ( 'NONE', *, *, #267, .T. ) ;
#42 = VERTEX_POINT ( 'NONE', #514 ) ;
#43 = VERTEX_POINT ( 'NONE', #541 ) ;
#44 = VERTEX_POINT ( 'NONE', #522 ) ;
#45 = VERTEX_POINT ( 'NONE', #537 ) ;
#46 = VERTEX_POINT ( 'NONE', #526 ) ;
#47 = VERTEX_POINT ( 'NONE', #520 ) ;
#48 = VERTEX_POINT ( 'NONE', #530 ) ;
#49 = VERTEX_POINT ( 'NONE', #542 ) ;
#50 = VERTEX_POINT ( 'NONE', #531 ) ;
#51 = VERTEX_POINT ( 'NONE', #532 ) ;
#52 = VERTEX_POINT ( 'NONE', #511 ) ;
#53 = VERTEX_POINT ( 'NONE', #533 ) ;
#54 = VERTEX_POINT ( 'NONE', #536 ) ;
#55 = VERTEX_POINT ( 'NONE', #538 ) ;
#56 = VERTEX_POINT ( 'NONE', #506 ) ;
#57 = VERTEX_POINT ( 'NONE', #509 ) ;
#58 = VERTEX_POINT ( 'NONE', #512 ) ;
#59 = VERTEX_POINT ( 'NONE', #513 ) ;
#60 = VERTEX_POINT ( 'NONE', #516 ) ;
#61 = VERTEX_POINT ( 'NONE', #517 ) ;
#62 = VERTEX_POINT ( 'NONE', #558 ) ;
#63 = VERTEX_POINT ( 'NONE', #552 ) ;
#64 = VERTEX_POINT ( 'NONE', #555 ) ;
#65 = VERTEX_POINT ( 'NONE', #567 ) ;
#66 = VERTEX_POINT ( 'NONE', #550 ) ;
#67 = VERTEX_POINT ( 'NONE', #582 ) ;
#68 = VERTEX_POINT ( 'NONE', #551 ) ;
#69 = VERTEX_POINT ( 'NONE', #553 ) ;
#70 = VERTEX_POINT ( 'NONE', #575 ) ;
#71 = VERTEX_POINT ( 'NONE', #574 ) ;
#72 = VERTEX_POINT ( 'NONE', #576 ) ;
#73 = VERTEX_POINT ( 'NONE', #559 ) ;
#74 = VERTEX_POINT ( 'NONE', #577 ) ;
#75 = VERTEX_POINT ( 'NONE', #578 ) ;
#76 = VERTEX_POINT ( 'NONE', #560 ) ;
#77 = VERTEX_POINT ( 'NONE', #562 ) ;
#78 = VERTEX_POINT ( 'NONE', #563 ) ;
#79 = VERTEX_POINT ( 'NONE', #580 ) ;
#80 = VERTEX_POINT ( 'NONE', #579 ) ;
#81 = VERTEX_POINT ( 'NONE', #546 ) ;
#82 = VERTEX_POINT ( 'NONE', #549 ) ;
#83 = VERTEX_POINT ( 'NONE', #561 ) ;
#84 = VERTEX_POINT ( 'NONE', #547 ) ;
#85 = VERTEX_POINT ( 'NONE', #554 ) ;
#86 = VERTEX_POINT ( 'NONE', #571 ) ;
#87 = VERTEX_POINT ( 'NONE', #570 ) ;
#88 = VERTEX_POINT ( 'NONE', #564 ) ;
#89 = VERTEX_POINT ( 'NONE', #565 ) ;
#90 = VERTEX_POINT ( 'NONE', #572 ) ;
#91 = VERTEX_POINT ( 'NONE', #566 ) ;
#92 = VERTEX_POINT ( 'NONE', #581 ) ;
#93 = VERTEX_POINT ( 'NONE', #568 ) ;
#94 = VERTEX_POINT ( 'NONE', #569 ) ;
#95 = VERTEX_POINT ( 'NONE', #573 ) ;
#96 = VERTEX_POINT ( 'NONE', #556 ) ;
#97 = ORIENTED_EDGE ( 'NONE', *, *, #236, .T. ) ;
#98 = ORIENTED_EDGE ( 'NONE', *, *, #266, .T. ) ;
#99 = ORIENTED_EDGE ( 'NONE', *, *, #289, .F. ) ;
#100 = ORIENTED_EDGE ( 'NONE', *, *, #247, .T. ) ;
#101 = ORIENTED_EDGE ( 'NONE', *, *, #291, .F. ) ;
#102 = ORIENTED_EDGE ( 'NONE', *, *, #260, .F. ) ;
#103 = ORIENTED_EDGE ( 'NONE', *, *, #238, .T. ) ;
#104 = ORIENTED_EDGE ( 'NONE', *, *, #233, .T. ) ;
#105 = ORIENTED_EDGE ( 'NONE', *, *, #237, .T. ) ;
#106 = ORIENTED_EDGE ( 'NONE', *, *, #245, .F. ) ;
#107 = VERTEX_POINT ( 'NONE', #583 ) ;
#108 = VERTEX_POINT ( 'NONE', #543 ) ;
#109 = ORIENTED_EDGE ( 'NONE', *, *, #308, .T. ) ;
#110 = ORIENTED_EDGE ( 'NONE', *, *, #263, .T. ) ;
#111 = ORIENTED_EDGE ( 'NONE', *, *, #258, .F. ) ;
#112 = ORIENTED_EDGE ( 'NONE', *, *, #253, .T. ) ;
#113 = ORIENTED_EDGE ( 'NONE', *, *, #235, .F. ) ;
#114 = VERTEX_POINT ( 'NONE', #548 ) ;
#115 = VERTEX_POINT ( 'NONE', #544 ) ;
#116 = ORIENTED_EDGE ( 'NONE', *, *, #258, .T. ) ;
#117 = VERTEX_POINT ( 'NONE', #545 ) ;
#118 = ORIENTED_EDGE ( 'NONE', *, *, #283, .T. ) ;
#119 = ORIENTED_EDGE ( 'NONE', *, *, #271, .F. ) ;
#120 = ORIENTED_EDGE ( 'NONE', *, *, #278, .F. ) ;
#121 = ORIENTED_EDGE ( 'NONE', *, *, #304, .F. ) ;
#122 = VERTEX_POINT ( 'NONE', #590 ) ;
#123 = ORIENTED_EDGE ( 'NONE', *, *, #293, .F. ) ;
#124 = ORIENTED_EDGE ( 'NONE', *, *, #232, .T. ) ;
#125 = ORIENTED_EDGE ( 'NONE', *, *, #239, .T. ) ;
#126 = ORIENTED_EDGE ( 'NONE', *, *, #242, .F. ) ;
#127 = ORIENTED_EDGE ( 'NONE', *, *, #243, .T. ) ;
#128 = ORIENTED_EDGE ( 'NONE', *, *, #240, .T. ) ;
#129 = VERTEX_POINT ( 'NONE', #589 ) ;
#130 = ORIENTED_EDGE ( 'NONE', *, *, #255, .F. ) ;
#131 = ORIENTED_EDGE ( 'NONE', *, *, #244, .F. ) ;
#132 = ORIENTED_EDGE ( 'NONE', *, *, #262, .T. ) ;
#133 = ORIENTED_EDGE ( 'NONE', *, *, #352, .T. ) ;
#134 = ORIENTED_EDGE ( 'NONE', *, *, #231, .T. ) ;
#135 = ORIENTED_EDGE ( 'NONE', *, *, #299, .F. ) ;
#136 = ORIENTED_EDGE ( 'NONE', *, *, #298, .T. ) ;
#137 = ORIENTED_EDGE ( 'NONE', *, *, #260, .T. ) ;
#138 = ORIENTED_EDGE ( 'NONE', *, *, #314, .F. ) ;
#139 = ORIENTED_EDGE ( 'NONE', *, *, #230, .T. ) ;
#140 = ORIENTED_EDGE ( 'NONE', *, *, #250, .T. ) ;
#141 = ORIENTED_EDGE ( 'NONE', *, *, #263, .F. ) ;
#142 = ORIENTED_EDGE ( 'NONE', *, *, #294, .T. ) ;
#143 = ORIENTED_EDGE ( 'NONE', *, *, #308, .F. ) ;
#144 = ORIENTED_EDGE ( 'NONE', *, *, #257, .F. ) ;
#145 = ORIENTED_EDGE ( 'NONE', *, *, #292, .F. ) ;
#146 = ORIENTED_EDGE ( 'NONE', *, *, #277, .F. ) ;
#147 = ORIENTED_EDGE ( 'NONE', *, *, #322, .F. ) ;
#148 = ORIENTED_EDGE ( 'NONE', *, *, #275, .T. ) ;
#149 = ORIENTED_EDGE ( 'NONE', *, *, #232, .F. ) ;
#150 = ORIENTED_EDGE ( 'NONE', *, *, #241, .F. ) ;
#151 = ORIENTED_EDGE ( 'NONE', *, *, #271, .T. ) ;
#152 = ORIENTED_EDGE ( 'NONE', *, *, #242, .T. ) ;
#153 = ORIENTED_EDGE ( 'NONE', *, *, #264, .F. ) ;
#154 = ORIENTED_EDGE ( 'NONE', *, *, #273, .T. ) ;
#155 = ORIENTED_EDGE ( 'NONE', *, *, #262, .F. ) ;
#156 = ORIENTED_EDGE ( 'NONE', *, *, #276, .F. ) ;
#157 = ORIENTED_EDGE ( 'NONE', *, *, #288, .F. ) ;
#158 = ORIENTED_EDGE ( 'NONE', *, *, #234, .T. ) ;
#159 = ORIENTED_EDGE ( 'NONE', *, *, #286, .F. ) ;
#160 = ORIENTED_EDGE ( 'NONE', *, *, #237, .F. ) ;
#161 = ORIENTED_EDGE ( 'NONE', *, *, #291, .T. ) ;
#162 = ORIENTED_EDGE ( 'NONE', *, *, #295, .T. ) ;
#163 = ORIENTED_EDGE ( 'NONE', *, *, #302, .T. ) ;
#164 = ORIENTED_EDGE ( 'NONE', *, *, #246, .T. ) ;
#165 = ORIENTED_EDGE ( 'NONE', *, *, #339, .F. ) ;
#166 = ORIENTED_EDGE ( 'NONE', *, *, #320, .T. ) ;
#167 = ORIENTED_EDGE ( 'NONE', *, *, #282, .F. ) ;
#168 = ORIENTED_EDGE ( 'NONE', *, *, #257, .T. ) ;
#169 = ORIENTED_EDGE ( 'NONE', *, *, #261, .T. ) ;
#170 = ORIENTED_EDGE ( 'NONE', *, *, #303, .F. ) ;
#171 = ORIENTED_EDGE ( 'NONE', *, *, #272, .F. ) ;
#172 = ORIENTED_EDGE ( 'NONE', *, *, #254, .T. ) ;
#173 = ORIENTED_EDGE ( 'NONE', *, *, #241, .T. ) ;
#174 = ORIENTED_EDGE ( 'NONE', *, *, #298, .F. ) ;
#175 = ORIENTED_EDGE ( 'NONE', *, *, #290, .F. ) ;
#176 = ORIENTED_EDGE ( 'NONE', *, *, #350, .F. ) ;
#177 = ORIENTED_EDGE ( 'NONE', *, *, #306, .T. ) ;
#178 = ORIENTED_EDGE ( 'NONE', *, *, #287, .F. ) ;
#179 = ORIENTED_EDGE ( 'NONE', *, *, #254, .F. ) ;
#180 = ORIENTED_EDGE ( 'NONE', *, *, #309, .T. ) ;
#181 = ORIENTED_EDGE ( 'NONE', *, *, #251, .F. ) ;
#182 = ORIENTED_EDGE ( 'NONE', *, *, #267, .F. ) ;
#183 = ORIENTED_EDGE ( 'NONE', *, *, #343, .T. ) ;
#184 = ORIENTED_EDGE ( 'NONE', *, *, #297, .T. ) ;
#185 = ORIENTED_EDGE ( 'NONE', *, *, #332, .T. ) ;
#186 = ORIENTED_EDGE ( 'NONE', *, *, #281, .F. ) ;
#187 = ORIENTED_EDGE ( 'NONE', *, *, #248, .T. ) ;
#188 = ORIENTED_EDGE ( 'NONE', *, *, #306, .F. ) ;
#189 = ORIENTED_EDGE ( 'NONE', *, *, #266, .F. ) ;
#190 = ORIENTED_EDGE ( 'NONE', *, *, #322, .T. ) ;
#191 = ORIENTED_EDGE ( 'NONE', *, *, #270, .T. ) ;
#192 = ORIENTED_EDGE ( 'NONE', *, *, #249, .F. ) ;
#193 = ORIENTED_EDGE ( 'NONE', *, *, #252, .T. ) ;
#194 = ORIENTED_EDGE ( 'NONE', *, *, #300, .T. ) ;
#195 = ORIENTED_EDGE ( 'NONE', *, *, #268, .T. ) ;
#196 = ORIENTED_EDGE ( 'NONE', *, *, #274, .T. ) ;
#197 = ORIENTED_EDGE ( 'NONE', *, *, #301, .F. ) ;
#198 = ORIENTED_EDGE ( 'NONE', *, *, #316, .F. ) ;
#199 = ORIENTED_EDGE ( 'NONE', *, *, #324, .F. ) ;
#200 = ORIENTED_EDGE ( 'NONE', *, *, #301, .T. ) ;
#201 = ORIENTED_EDGE ( 'NONE', *, *, #346, .F. ) ;
#202 = ORIENTED_EDGE ( 'NONE', *, *, #284, .F. ) ;
#203 = ORIENTED_EDGE ( 'NONE', *, *, #307, .F. ) ;
#204 = ORIENTED_EDGE ( 'NONE', *, *, #305, .T. ) ;
#205 = ORIENTED_EDGE ( 'NONE', *, *, #279, .F. ) ;
#206 = ORIENTED_EDGE ( 'NONE', *, *, #268, .F. ) ;
#207 = ORIENTED_EDGE ( 'NONE', *, *, #316, .T. ) ;
#208 = ORIENTED_EDGE ( 'NONE', *, *, #279, .T. ) ;
#209 = ORIENTED_EDGE ( 'NONE', *, *, #256, .F. ) ;
#210 = ORIENTED_EDGE ( 'NONE', *, *, #303, .T. ) ;
#211 = ORIENTED_EDGE ( 'NONE', *, *, #274, .F. ) ;
#212 = ORIENTED_EDGE ( 'NONE', *, *, #261, .F. ) ;
#213 = ORIENTED_EDGE ( 'NONE', *, *, #332, .F. ) ;
#214 = ORIENTED_EDGE ( 'NONE', *, *, #333, .F. ) ;
#215 = ORIENTED_EDGE ( 'NONE', *, *, #296, .F. ) ;
#216 = ORIENTED_EDGE ( 'NONE', *, *, #246, .F. ) ;
#217 = ORIENTED_EDGE ( 'NONE', *, *, #247, .F. ) ;
#218 = ORIENTED_EDGE ( 'NONE', *, *, #285, .T. ) ;
#219 = ORIENTED_EDGE ( 'NONE', *, *, #265, .F. ) ;
#220 = ORIENTED_EDGE ( 'NONE', *, *, #280, .T. ) ;
#221 = ORIENTED_EDGE ( 'NONE', *, *, #245, .T. ) ;
#222 = ORIENTED_EDGE ( 'NONE', *, *, #278, .T. ) ;
#223 = ORIENTED_EDGE ( 'NONE', *, *, #324, .T. ) ;
#224 = ORIENTED_EDGE ( 'NONE', *, *, #251, .T. ) ;
#225 = ORIENTED_EDGE ( 'NONE', *, *, #259, .F. ) ;
#226 = ORIENTED_EDGE ( 'NONE', *, *, #269, .T. ) ;
#227 = MANIFOLD_SOLID_BREP ( 'Boss-Extrude1', #897 ) ;
#228 = UNCERTAINTY_MEASURE_WITH_UNIT (LENGTH_MEASURE( 1.000000000000000100E-005 ), #776, 'distance_accuracy_value', 'NONE');
#229 = ADVANCED_BREP_SHAPE_REPRESENTATION ( 'ALP4260', ( #227, #396 ), #394 ) ;
#230 = EDGE_CURVE ( 'NONE', #78, #44, #995, .T. ) ;
#231 = EDGE_CURVE ( 'NONE', #87, #93, #1010, .T. ) ;
#232 = EDGE_CURVE ( 'NONE', #85, #72, #1019, .T. ) ;
#233 = EDGE_CURVE ( 'NONE', #80, #45, #996, .T. ) ;
#234 = EDGE_CURVE ( 'NONE', #70, #79, #990, .T. ) ;
#235 = EDGE_CURVE ( 'NONE', #42, #47, #1000, .T. ) ;
#236 = EDGE_CURVE ( 'NONE', #72, #78, #1024, .T. ) ;
#237 = EDGE_CURVE ( 'NONE', #42, #80, #1022, .T. ) ;
#238 = EDGE_CURVE ( 'NONE', #79, #87, #1001, .T. ) ;
#239 = EDGE_CURVE ( 'NONE', #74, #84, #1009, .T. ) ;
#240 = EDGE_CURVE ( 'NONE', #84, #69, #984, .T. ) ;
#241 = EDGE_CURVE ( 'NONE', #88, #44, #987, .T. ) ;
#242 = EDGE_CURVE ( 'NONE', #64, #84, #1007, .T. ) ;
#243 = EDGE_CURVE ( 'NONE', #65, #43, #1064, .T. ) ;
#244 = EDGE_CURVE ( 'NONE', #52, #85, #1043, .T. ) ;
#245 = EDGE_CURVE ( 'NONE', #47, #45, #1038, .T. ) ;
#246 = EDGE_CURVE ( 'NONE', #108, #107, #1056, .T. ) ;
#247 = EDGE_CURVE ( 'NONE', #50, #73, #1025, .T. ) ;
#248 = EDGE_CURVE ( 'NONE', #107, #82, #1035, .T. ) ;
#249 = EDGE_CURVE ( 'NONE', #49, #68, #1057, .T. ) ;
#250 = EDGE_CURVE ( 'NONE', #62, #66, #1049, .T. ) ;
#251 = EDGE_CURVE ( 'NONE', #117, #77, #1058, .T. ) ;
#252 = EDGE_CURVE ( 'NONE', #43, #95, #1050, .T. ) ;
#253 = EDGE_CURVE ( 'NONE', #67, #62, #1029, .T. ) ;
#254 = EDGE_CURVE ( 'NONE', #52, #48, #1062, .T. ) ;
#255 = EDGE_CURVE ( 'NONE', #46, #64, #1034, .T. ) ;
#256 = EDGE_CURVE ( 'NONE', #51, #76, #1026, .T. ) ;
#257 = EDGE_CURVE ( 'NONE', #55, #93, #1045, .T. ) ;
#258 = EDGE_CURVE ( 'NONE', #46, #74, #1039, .T. ) ;
#259 = EDGE_CURVE ( 'NONE', #115, #91, #1059, .T. ) ;
#260 = EDGE_CURVE ( 'NONE', #53, #69, #1054, .T. ) ;
#261 = EDGE_CURVE ( 'NONE', #122, #92, #1053, .T. ) ;
#262 = EDGE_CURVE ( 'NONE', #75, #67, #1055, .T. ) ;
#263 = EDGE_CURVE ( 'NONE', #54, #87, #1048, .T. ) ;
#264 = EDGE_CURVE ( 'NONE', #94, #54, #1063, .T. ) ;
#265 = EDGE_CURVE ( 'NONE', #47, #50, #1107, .T. ) ;
#266 = EDGE_CURVE ( 'NONE', #86, #65, #1081, .T. ) ;
#267 = EDGE_CURVE ( 'NONE', #60, #129, #1090, .T. ) ;
#268 = EDGE_CURVE ( 'NONE', #61, #81, #1104, .T. ) ;
#269 = EDGE_CURVE ( 'NONE', #63, #114, #1097, .T. ) ;
#270 = EDGE_CURVE ( 'NONE', #81, #63, #1103, .T. ) ;
#271 = EDGE_CURVE ( 'NONE', #58, #78, #1067, .T. ) ;
#272 = EDGE_CURVE ( 'NONE', #91, #86, #1106, .T. ) ;
#273 = EDGE_CURVE ( 'NONE', #93, #67, #1086, .T. ) ;
#274 = EDGE_CURVE ( 'NONE', #96, #82, #1083, .T. ) ;
#275 = EDGE_CURVE ( 'NONE', #44, #70, #1066, .T. ) ;
#276 = EDGE_CURVE ( 'NONE', #55, #75, #1087, .T. ) ;
#277 = EDGE_CURVE ( 'NONE', #75, #56, #1078, .T. ) ;
#278 = EDGE_CURVE ( 'NONE', #50, #46, #1071, .T. ) ;
#279 = EDGE_CURVE ( 'NONE', #49, #57, #1084, .T. ) ;
#280 = EDGE_CURVE ( 'NONE', #45, #73, #1073, .T. ) ;
#281 = EDGE_CURVE ( 'NONE', #76, #49, #1088, .T. ) ;
#282 = EDGE_CURVE ( 'NONE', #122, #42, #1105, .T. ) ;
#283 = EDGE_CURVE ( 'NONE', #73, #74, #1075, .T. ) ;
#284 = EDGE_CURVE ( 'NONE', #61, #115, #1080, .T. ) ;
#285 = EDGE_CURVE ( 'NONE', #57, #89, #1094, .T. ) ;
#286 = EDGE_CURVE ( 'NONE', #83, #122, #1100, .T. ) ;
#287 = EDGE_CURVE ( 'NONE', #71, #94, #1099, .T. ) ;
#288 = EDGE_CURVE ( 'NONE', #54, #55, #1136, .T. ) ;
#289 = EDGE_CURVE ( 'NONE', #64, #53, #1119, .T. ) ;
#290 = EDGE_CURVE ( 'NONE', #88, #71, #1131, .T. ) ;
#291 = EDGE_CURVE ( 'NONE', #60, #43, #1116, .T. ) ;
#292 = EDGE_CURVE ( 'NONE', #58, #88, #1128, .T. ) ;
#293 = EDGE_CURVE ( 'NONE', #85, #58, #1125, .T. ) ;
#294 = EDGE_CURVE ( 'NONE', #69, #48, #1126, .T. ) ;
#295 = EDGE_CURVE ( 'NONE', #48, #72, #1127, .T. ) ;
#296 = EDGE_CURVE ( 'NONE', #96, #83, #1132, .T. ) ;
#297 = EDGE_CURVE ( 'NONE', #114, #65, #1109, .T. ) ;
#298 = EDGE_CURVE ( 'NONE', #71, #70, #1124, .T. ) ;
#299 = EDGE_CURVE ( 'NONE', #53, #52, #1133, .T. ) ;
#300 = EDGE_CURVE ( 'NONE', #77, #81, #1135, .T. ) ;
#301 = EDGE_CURVE ( 'NONE', #83, #90, #1123, .T. ) ;
#302 = EDGE_CURVE ( 'NONE', #90, #92, #1110, .T. ) ;
#303 = EDGE_CURVE ( 'NONE', #51, #66, #1112, .T. ) ;
#304 = EDGE_CURVE ( 'NONE', #86, #60, #1115, .T. ) ;
#305 = EDGE_CURVE ( 'NONE', #92, #80, #1121, .T. ) ;
#306 = EDGE_CURVE ( 'NONE', #56, #62, #1155, .T. ) ;
#307 = EDGE_CURVE ( 'NONE', #68, #117, #1156, .T. ) ;
#308 = EDGE_CURVE ( 'NONE', #94, #79, #1153, .T. ) ;
#309 = EDGE_CURVE ( 'NONE', #59, #57, #1150, .T. ) ;
#310 = AXIS2_PLACEMENT_3D ( 'NONE', #498, #503, #504 ) ;
#311 = AXIS2_PLACEMENT_3D ( 'NONE', #407, #420, #445 ) ;
#312 = AXIS2_PLACEMENT_3D ( 'NONE', #518, #507, #529 ) ;
#313 = AXIS2_PLACEMENT_3D ( 'NONE', #614, #595, #617 ) ;
#314 = EDGE_CURVE ( 'NONE', #56, #51, #1141, .T. ) ;
#315 = AXIS2_PLACEMENT_3D ( 'NONE', #465, #473, #450 ) ;
#316 = EDGE_CURVE ( 'NONE', #129, #95, #1139, .T. ) ;
#317 = AXIS2_PLACEMENT_3D ( 'NONE', #449, #410, #429 ) ;
#318 = AXIS2_PLACEMENT_3D ( 'NONE', #467, #452, #454 ) ;
#319 = AXIS2_PLACEMENT_3D ( 'NONE', #479, #480, #494 ) ;
#320 = EDGE_CURVE ( 'NONE', #89, #77, #1140, .T. ) ;
#321 = AXIS2_PLACEMENT_3D ( 'NONE', #409, #435, #432 ) ;
#322 = EDGE_CURVE ( 'NONE', #76, #59, #1151, .T. ) ;
#323 = AXIS2_PLACEMENT_3D ( 'NONE', #434, #448, #436 ) ;
#324 = EDGE_CURVE ( 'NONE', #68, #89, #1145, .T. ) ;
#325 = AXIS2_PLACEMENT_3D ( 'NONE', #431, #413, #444 ) ;
#326 = AXIS2_PLACEMENT_3D ( 'NONE', #437, #440, #425 ) ;
#327 = AXIS2_PLACEMENT_3D ( 'NONE', #453, #458, #464 ) ;
#328 = AXIS2_PLACEMENT_3D ( 'NONE', #456, #466, #470 ) ;
#329 = AXIS2_PLACEMENT_3D ( 'NONE', #417, #411, #433 ) ;
#330 = AXIS2_PLACEMENT_3D ( 'NONE', #461, #468, #462 ) ;
#331 = AXIS2_PLACEMENT_3D ( 'NONE', #460, #457, #500 ) ;
#332 = EDGE_CURVE ( 'NONE', #115, #63, #1158, .T. ) ;
#333 = EDGE_CURVE ( 'NONE', #108, #96, #836, .T. ) ;
#334 = AXIS2_PLACEMENT_3D ( 'NONE', #471, #472, #455 ) ;
#335 = AXIS2_PLACEMENT_3D ( 'NONE', #493, #477, #497 ) ;
#336 = AXIS2_PLACEMENT_3D ( 'NONE', #483, #481, #492 ) ;
#337 = EDGE_CURVE ( 'NONE', #95, #107, #830, .T. ) ;
#338 = AXIS2_PLACEMENT_3D ( 'NONE', #486, #487, #495 ) ;
#339 = EDGE_CURVE ( 'NONE', #129, #108, #831, .T. ) ;
#340 = AXIS2_PLACEMENT_3D ( 'NONE', #447, #406, #430 ) ;
#341 = AXIS2_PLACEMENT_3D ( 'NONE', #491, #496, #499 ) ;
#342 = AXIS2_PLACEMENT_3D ( 'NONE', #539, #519, #523 ) ;
#343 = EDGE_CURVE ( 'NONE', #82, #90, #835, .T. ) ;
#344 = AXIS2_PLACEMENT_3D ( 'NONE', #592, #594, #611 ) ;
#345 = AXIS2_PLACEMENT_3D ( 'NONE', #475, #451, #459 ) ;
#346 = EDGE_CURVE ( 'NONE', #117, #61, #838, .T. ) ;
#347 = AXIS2_PLACEMENT_3D ( 'NONE', #408, #414, #446 ) ;
#348 = AXIS2_PLACEMENT_3D ( 'NONE', #412, #422, #476 ) ;
#349 = AXIS2_PLACEMENT_3D ( 'NONE', #478, #482, #505 ) ;
#350 = EDGE_CURVE ( 'NONE', #91, #114, #837, .T. ) ;
#351 = AXIS2_PLACEMENT_3D ( 'NONE', #534, #510, #540 ) ;
#352 = EDGE_CURVE ( 'NONE', #66, #59, #834, .T. ) ;
#353 = AXIS2_PLACEMENT_3D ( 'NONE', #442, #426, #443 ) ;
#354 = AXIS2_PLACEMENT_3D ( 'NONE', #438, #423, #439 ) ;
#355 = AXIS2_PLACEMENT_3D ( 'NONE', #502, #488, #489 ) ;
#356 = AXIS2_PLACEMENT_3D ( 'NONE', #759, #745, #750 ) ;
#357 = CC_DESIGN_PERSON_AND_ORGANIZATION_ASSIGNMENT ( #845, #823, ( #398 ) ) ;
#358 = CC_DESIGN_PERSON_AND_ORGANIZATION_ASSIGNMENT ( #864, #809, ( #398 ) ) ;
#359 = SECURITY_CLASSIFICATION ( '', '', #807 ) ;
#360 = AXIS2_PLACEMENT_3D ( 'NONE', #760, #763, #736 ) ;
#361 = CC_DESIGN_DATE_AND_TIME_ASSIGNMENT ( #1037, #816, ( #359 ) ) ;
#362 = APPROVAL ( #818, 'UNSPECIFIED' ) ;
#363 = AXIS2_PLACEMENT_3D ( 'NONE', #768, #779, #785 ) ;
#364 = AXIS2_PLACEMENT_3D ( 'NONE', #782, #790, #804 ) ;
#365 = CC_DESIGN_APPROVAL ( #362, ( #359 ) ) ;
#366 = PRODUCT_RELATED_PRODUCT_CATEGORY ( 'detail', '', ( #826 ) ) ;
#367 = CC_DESIGN_APPROVAL ( #399, ( #398 ) ) ;
#368 = AXIS2_PLACEMENT_3D ( 'NONE', #707, #697, #698 ) ;
#369 = CC_DESIGN_PERSON_AND_ORGANIZATION_ASSIGNMENT ( #840, #813, ( #359 ) ) ;
#370 = CC_DESIGN_SECURITY_CLASSIFICATION ( #359, ( #398 ) ) ;
#371 = AXIS2_PLACEMENT_3D ( 'NONE', #702, #730, #711 ) ;
#372 = AXIS2_PLACEMENT_3D ( 'NONE', #734, #737, #735 ) ;
#373 = CC_DESIGN_PERSON_AND_ORGANIZATION_ASSIGNMENT ( #844, #820, ( #826 ) ) ;
#374 = AXIS2_PLACEMENT_3D ( 'NONE', #746, #762, #731 ) ;
#375 = AXIS2_PLACEMENT_3D ( 'NONE', #688, #690, #701 ) ;
#376 = APPROVAL ( #821, 'UNSPECIFIED' ) ;
#377 = PRODUCT_DEFINITION ( 'UNKNOWN', '', #398, #829 ) ;
#378 = AXIS2_PLACEMENT_3D ( 'NONE', #608, #600, #593 ) ;
#379 = AXIS2_PLACEMENT_3D ( 'NONE', #769, #770, #771 ) ;
#380 = AXIS2_PLACEMENT_3D ( 'NONE', #655, #667, #656 ) ;
#381 = AXIS2_PLACEMENT_3D ( 'NONE', #720, #715, #695 ) ;
#382 = AXIS2_PLACEMENT_3D ( 'NONE', #799, #800, #786 ) ;
#383 = AXIS2_PLACEMENT_3D ( 'NONE', #792, #781, #789 ) ;
#384 = AXIS2_PLACEMENT_3D ( 'NONE', #618, #627, #634 ) ;
#385 = AXIS2_PLACEMENT_3D ( 'NONE', #524, #527, #535 ) ;
#386 = AXIS2_PLACEMENT_3D ( 'NONE', #640, #652, #663 ) ;
#387 = AXIS2_PLACEMENT_3D ( 'NONE', #525, #521, #528 ) ;
#388 = AXIS2_PLACEMENT_3D ( 'NONE', #633, #619, #630 ) ;
#389 = AXIS2_PLACEMENT_3D ( 'NONE', #754, #761, #765 ) ;
#390 = AXIS2_PLACEMENT_3D ( 'NONE', #704, #721, #718 ) ;
#391 = AXIS2_PLACEMENT_3D ( 'NONE', #586, #597, #599 ) ;
#392 = AXIS2_PLACEMENT_3D ( 'NONE', #757, #744, #740 ) ;
#393 = AXIS2_PLACEMENT_3D ( 'NONE', #748, #758, #751 ) ;
#394 =( GEOMETRIC_REPRESENTATION_CONTEXT ( 3 ) GLOBAL_UNCERTAINTY_ASSIGNED_CONTEXT ( ( #228 ) ) GLOBAL_UNIT_ASSIGNED_CONTEXT ( ( #776, #796, #784 ) ) REPRESENTATION_CONTEXT ( 'NONE', 'WORKASPACE' ) );
#395 = CC_DESIGN_PERSON_AND_ORGANIZATION_ASSIGNMENT ( #859, #824, ( #377 ) ) ;
#396 = AXIS2_PLACEMENT_3D ( 'NONE', #772, #774, #814 ) ;
#397 = CC_DESIGN_APPROVAL ( #376, ( #377 ) ) ;
#398 = PRODUCT_DEFINITION_FORMATION_WITH_SPECIFIED_SOURCE ( 'ANY', '', #826, .NOT_KNOWN. ) ;
#399 = APPROVAL ( #808, 'UNSPECIFIED' ) ;
#400 = AXIS2_PLACEMENT_3D ( 'NONE', #631, #622, #623 ) ;
#401 = AXIS2_PLACEMENT_3D ( 'NONE', #717, #706, #719 ) ;
#402 = AXIS2_PLACEMENT_3D ( 'NONE', #681, #683, #682 ) ;
#403 = CC_DESIGN_DATE_AND_TIME_ASSIGNMENT ( #862, #812, ( #377 ) ) ;
#404 = AXIS2_PLACEMENT_3D ( 'NONE', #604, #606, #609 ) ;
#405 = AXIS2_PLACEMENT_3D ( 'NONE', #657, #646, #660 ) ;
#406 = DIRECTION ( 'NONE',  ( 0.9781476007338055800, -0.2079116908177594800, 0.0000000000000000000 ) ) ;
#407 = CARTESIAN_POINT ( 'NONE',  ( 4.350000000000000500, -4.675618511480780400, 100.0000000000000000 ) ) ;
#408 = CARTESIAN_POINT ( 'NONE',  ( -3.956014814480226100, -6.722952336103455600, 100.0000000000000000 ) ) ;
#409 = CARTESIAN_POINT ( 'NONE',  ( 3.799656563893077300, -6.029733685551315500, 100.0000000000000000 ) ) ;
#410 = DIRECTION ( 'NONE',  ( -0.0000000000000000000, 0.0000000000000000000, -1.000000000000000000 ) ) ;
#411 = DIRECTION ( 'NONE',  ( 0.0000000000000000000, -1.000000000000000000, 0.0000000000000000000 ) ) ;
#412 = CARTESIAN_POINT ( 'NONE',  ( 5.799999999999998900, -1.000000000000000000, 100.0000000000000000 ) ) ;
#413 = DIRECTION ( 'NONE',  ( -0.0000000000000000000, -0.0000000000000000000, -1.000000000000000000 ) ) ;
#414 = DIRECTION ( 'NONE',  ( -0.6156614753256671700, 0.7880107536067150200, 0.0000000000000000000 ) ) ;
#415 = PLANE ( 'NONE',  #348 ) ;
#416 = PLANE ( 'NONE',  #329 ) ;
#417 = CARTESIAN_POINT ( 'NONE',  ( -5.799999999999998900, 0.0000000000000000000, 100.0000000000000000 ) ) ;
#418 = PLANE ( 'NONE',  #330 ) ;
#419 = PLANE ( 'NONE',  #317 ) ;
#420 = DIRECTION ( 'NONE',  ( -0.0000000000000000000, -0.0000000000000000000, -1.000000000000000000 ) ) ;
#421 = PLANE ( 'NONE',  #347 ) ;
#422 = DIRECTION ( 'NONE',  ( -2.710505431213769000E-016, 1.000000000000000000, 0.0000000000000000000 ) ) ;
#423 = DIRECTION ( 'NONE',  ( -0.0000000000000000000, -0.0000000000000000000, -1.000000000000000000 ) ) ;
#424 = PLANE ( 'NONE',  #326 ) ;
#425 = DIRECTION ( 'NONE',  ( -1.000000000000000000, 0.0000000000000000000, 0.0000000000000000000 ) ) ;
#426 = DIRECTION ( 'NONE',  ( 0.6156614753256587400, 0.7880107536067215700, -0.0000000000000000000 ) ) ;
#427 = PLANE ( 'NONE',  #321 ) ;
#428 = PLANE ( 'NONE',  #340 ) ;
#429 = DIRECTION ( 'NONE',  ( -1.000000000000000000, 0.0000000000000000000, 0.0000000000000000000 ) ) ;
#430 = DIRECTION ( 'NONE',  ( 0.2079116908177594800, 0.9781476007338055800, 0.0000000000000000000 ) ) ;
#431 = CARTESIAN_POINT ( 'NONE',  ( -5.800000000000000700, -0.8000000000000000400, 100.0000000000000000 ) ) ;
#432 = DIRECTION ( 'NONE',  ( 0.6156614753256604000, 0.7880107536067203500, 0.0000000000000000000 ) ) ;
#433 = DIRECTION ( 'NONE',  ( 0.0000000000000000000, -0.0000000000000000000, -1.000000000000000000 ) ) ;
#434 = CARTESIAN_POINT ( 'NONE',  ( -4.154261403016099600, -6.306781349447865300, 100.0000000000000000 ) ) ;
#435 = DIRECTION ( 'NONE',  ( 0.7880107536067203500, -0.6156614753256604000, 0.0000000000000000000 ) ) ;
#436 = DIRECTION ( 'NONE',  ( -1.000000000000000000, 0.0000000000000000000, 0.0000000000000000000 ) ) ;
#437 = CARTESIAN_POINT ( 'NONE',  ( -4.349999999999998800, -4.675618511480781300, 100.0000000000000000 ) ) ;
#438 = CARTESIAN_POINT ( 'NONE',  ( 5.800000000000000700, -0.2000000000000000400, 100.0000000000000000 ) ) ;
#439 = DIRECTION ( 'NONE',  ( -1.000000000000000000, 0.0000000000000000000, 0.0000000000000000000 ) ) ;
#440 = DIRECTION ( 'NONE',  ( -0.0000000000000000000, 0.0000000000000000000, -1.000000000000000000 ) ) ;
#441 = PLANE ( 'NONE',  #353 ) ;
#442 = CARTESIAN_POINT ( 'NONE',  ( 3.956014814480229600, -6.722952336103452900, 100.0000000000000000 ) ) ;
#443 = DIRECTION ( 'NONE',  ( -0.7880107536067215700, 0.6156614753256587400, 0.0000000000000000000 ) ) ;
#444 = DIRECTION ( 'NONE',  ( -1.000000000000000000, 0.0000000000000000000, 0.0000000000000000000 ) ) ;
#445 = DIRECTION ( 'NONE',  ( -1.000000000000000000, 0.0000000000000000000, 0.0000000000000000000 ) ) ;
#446 = DIRECTION ( 'NONE',  ( -0.7880107536067150200, -0.6156614753256671700, 0.0000000000000000000 ) ) ;
#447 = CARTESIAN_POINT ( 'NONE',  ( -5.000000000000000900, -1.000000000000000200, 100.0000000000000000 ) ) ;
#448 = DIRECTION ( 'NONE',  ( -0.0000000000000000000, -0.0000000000000000000, -1.000000000000000000 ) ) ;
#449 = CARTESIAN_POINT ( 'NONE',  ( -4.349999999999998800, -4.675618511480781300, 0.0000000000000000000 ) ) ;
#450 = DIRECTION ( 'NONE',  ( -1.000000000000000000, 0.0000000000000000000, 0.0000000000000000000 ) ) ;
#451 = DIRECTION ( 'NONE',  ( -0.9781476007338055800, -0.2079116908177596200, 0.0000000000000000000 ) ) ;
#452 = DIRECTION ( 'NONE',  ( -0.0000000000000000000, -0.0000000000000000000, -1.000000000000000000 ) ) ;
#453 = CARTESIAN_POINT ( 'NONE',  ( -3.799656563893075500, -6.029733685551319100, 100.0000000000000000 ) ) ;
#454 = DIRECTION ( 'NONE',  ( -1.000000000000000000, 0.0000000000000000000, 0.0000000000000000000 ) ) ;
#455 = DIRECTION ( 'NONE',  ( -1.000000000000000000, 0.0000000000000000000, 0.0000000000000000000 ) ) ;
#456 = CARTESIAN_POINT ( 'NONE',  ( 4.350000000000000500, -4.675618511480780400, 100.0000000000000000 ) ) ;
#457 = DIRECTION ( 'NONE',  ( 0.9781476007338055800, 0.2079116908177595900, -0.0000000000000000000 ) ) ;
#458 = DIRECTION ( 'NONE',  ( -0.7880107536067210100, -0.6156614753256595100, 0.0000000000000000000 ) ) ;
#459 = DIRECTION ( 'NONE',  ( 0.2079116908177596200, -0.9781476007338055800, 0.0000000000000000000 ) ) ;
#460 = CARTESIAN_POINT ( 'NONE',  ( 4.741259040293521700, -4.592453835153676800, 100.0000000000000000 ) ) ;
#461 = CARTESIAN_POINT ( 'NONE',  ( -6.000000000000000000, -0.2000000000000014000, 100.0000000000000000 ) ) ;
#462 = DIRECTION ( 'NONE',  ( -0.0000000000000000000, 0.0000000000000000000, -1.000000000000000000 ) ) ;
#463 = PLANE ( 'NONE',  #327 ) ;
#464 = DIRECTION ( 'NONE',  ( 0.6156614753256595100, -0.7880107536067210100, 0.0000000000000000000 ) ) ;
#465 = CARTESIAN_POINT ( 'NONE',  ( -4.349999999999998800, -4.675618511480781300, 100.0000000000000000 ) ) ;
#466 = DIRECTION ( 'NONE',  ( -0.0000000000000000000, -0.0000000000000000000, -1.000000000000000000 ) ) ;
#467 = CARTESIAN_POINT ( 'NONE',  ( 4.154261403016101400, -6.306781349447864400, 100.0000000000000000 ) ) ;
#468 = DIRECTION ( 'NONE',  ( 1.000000000000000000, 0.0000000000000000000, -0.0000000000000000000 ) ) ;
#469 = PLANE ( 'NONE',  #331 ) ;
#470 = DIRECTION ( 'NONE',  ( -1.000000000000000000, 0.0000000000000000000, 0.0000000000000000000 ) ) ;
#471 = CARTESIAN_POINT ( 'NONE',  ( -4.233062478376772300, -6.368347496980431900, 100.0000000000000000 ) ) ;
#472 = DIRECTION ( 'NONE',  ( -0.0000000000000000000, -0.0000000000000000000, -1.000000000000000000 ) ) ;
#473 = DIRECTION ( 'NONE',  ( -0.0000000000000000000, -0.0000000000000000000, -1.000000000000000000 ) ) ;
#474 = PLANE ( 'NONE',  #345 ) ;
#475 = CARTESIAN_POINT ( 'NONE',  ( 5.000000000000000900, -1.000000000000000200, 100.0000000000000000 ) ) ;
#476 = DIRECTION ( 'NONE',  ( -1.000000000000000000, -2.710505431213769000E-016, 0.0000000000000000000 ) ) ;
#477 = DIRECTION ( 'NONE',  ( -0.0000000000000000000, -0.0000000000000000000, -1.000000000000000000 ) ) ;
#478 = CARTESIAN_POINT ( 'NONE',  ( -5.800000000000000700, -0.2000000000000000400, 100.0000000000000000 ) ) ;
#479 = CARTESIAN_POINT ( 'NONE',  ( -4.741259040293520000, -4.592453835153677700, 100.0000000000000000 ) ) ;
#480 = DIRECTION ( 'NONE',  ( -0.9781476007338056900, 0.2079116908177591500, 0.0000000000000000000 ) ) ;
#481 = DIRECTION ( 'NONE',  ( 0.7880107536067207900, 0.6156614753256597300, -0.0000000000000000000 ) ) ;
#482 = DIRECTION ( 'NONE',  ( -0.0000000000000000000, -0.0000000000000000000, -1.000000000000000000 ) ) ;
#483 = CARTESIAN_POINT ( 'NONE',  ( -5.453215055049407800, -5.537544576936705100, 100.0000000000000000 ) ) ;
#484 = PLANE ( 'NONE',  #341 ) ;
#485 = PLANE ( 'NONE',  #319 ) ;
#486 = CARTESIAN_POINT ( 'NONE',  ( 5.800000000000000700, -0.8000000000000000400, 100.0000000000000000 ) ) ;
#487 = DIRECTION ( 'NONE',  ( -0.0000000000000000000, -0.0000000000000000000, -1.000000000000000000 ) ) ;
#488 = DIRECTION ( 'NONE',  ( -0.7880107536067214600, 0.6156614753256589600, 0.0000000000000000000 ) ) ;
#489 = DIRECTION ( 'NONE',  ( -0.6156614753256589600, -0.7880107536067214600, 0.0000000000000000000 ) ) ;
#490 = PLANE ( 'NONE',  #336 ) ;
#491 = CARTESIAN_POINT ( 'NONE',  ( -5.799999999999998900, -1.000000000000000000, 100.0000000000000000 ) ) ;
#492 = DIRECTION ( 'NONE',  ( -0.6156614753256597300, 0.7880107536067207900, 0.0000000000000000000 ) ) ;
#493 = CARTESIAN_POINT ( 'NONE',  ( 4.154261403016101400, -6.306781349447864400, 100.0000000000000000 ) ) ;
#494 = DIRECTION ( 'NONE',  ( -0.2079116908177591500, -0.9781476007338056900, 0.0000000000000000000 ) ) ;
#495 = DIRECTION ( 'NONE',  ( -1.000000000000000000, 0.0000000000000000000, 0.0000000000000000000 ) ) ;
#496 = DIRECTION ( 'NONE',  ( 2.710505431213769000E-016, 1.000000000000000000, -0.0000000000000000000 ) ) ;
#497 = DIRECTION ( 'NONE',  ( -1.000000000000000000, 0.0000000000000000000, 0.0000000000000000000 ) ) ;
#498 = CARTESIAN_POINT ( 'NONE',  ( -4.349999999999998800, -4.675618511480781300, 100.0000000000000000 ) ) ;
#499 = DIRECTION ( 'NONE',  ( -1.000000000000000000, 2.710505431213769000E-016, 0.0000000000000000000 ) ) ;
#500 = DIRECTION ( 'NONE',  ( -0.2079116908177595900, 0.9781476007338055800, 0.0000000000000000000 ) ) ;
#501 = PLANE ( 'NONE',  #355 ) ;
#502 = CARTESIAN_POINT ( 'NONE',  ( 5.453215055049409600, -5.537544576936703300, 100.0000000000000000 ) ) ;
#503 = DIRECTION ( 'NONE',  ( -0.0000000000000000000, -0.0000000000000000000, -1.000000000000000000 ) ) ;
#504 = DIRECTION ( 'NONE',  ( -1.000000000000000000, 0.0000000000000000000, 0.0000000000000000000 ) ) ;
#505 = DIRECTION ( 'NONE',  ( -1.000000000000000000, 0.0000000000000000000, 0.0000000000000000000 ) ) ;
#506 = CARTESIAN_POINT ( 'NONE',  ( 6.000000000000000000, -0.7999999999999986000, 100.0000000000000000 ) ) ;
#507 = DIRECTION ( 'NONE',  ( -0.0000000000000000000, -0.0000000000000000000, -1.000000000000000000 ) ) ;
#508 = PLANE ( 'NONE',  #342 ) ;
#509 = CARTESIAN_POINT ( 'NONE',  ( -5.799999999999998900, 0.0000000000000000000, 0.0000000000000000000 ) ) ;
#510 = DIRECTION ( 'NONE',  ( -1.090291613289816400E-016, 1.000000000000000000, 0.0000000000000000000 ) ) ;
#511 = CARTESIAN_POINT ( 'NONE',  ( 3.799656563893077300, -6.029733685551315500, 100.0000000000000000 ) ) ;
#512 = CARTESIAN_POINT ( 'NONE',  ( 3.877213739119555100, -6.661386188570888000, 100.0000000000000000 ) ) ;
#513 = CARTESIAN_POINT ( 'NONE',  ( 5.799999999999998900, -1.897353801849632800E-016, 0.0000000000000000000 ) ) ;
#514 = CARTESIAN_POINT ( 'NONE',  ( -4.749999999999998200, -4.675618511480781300, 100.0000000000000000 ) ) ;
#515 = PLANE ( 'NONE',  #351 ) ;
#516 = CARTESIAN_POINT ( 'NONE',  ( -5.453215055049408700, -5.537544576936705100, 100.0000000000000000 ) ) ;
#517 = CARTESIAN_POINT ( 'NONE',  ( -5.799999999999998900, -0.9999999999999997800, 100.0000000000000000 ) ) ;
#518 = CARTESIAN_POINT ( 'NONE',  ( -4.349999999999998800, -4.675618511480781300, 100.0000000000000000 ) ) ;
#519 = DIRECTION ( 'NONE',  ( -1.000000000000000000, 0.0000000000000000000, 0.0000000000000000000 ) ) ;
#520 = CARTESIAN_POINT ( 'NONE',  ( -4.741259040293520900, -4.592453835153677700, 100.0000000000000000 ) ) ;
#521 = DIRECTION ( 'NONE',  ( -0.0000000000000000000, -0.0000000000000000000, -1.000000000000000000 ) ) ;
#522 = CARTESIAN_POINT ( 'NONE',  ( 3.956014814480229600, -6.722952336103452900, 0.0000000000000000000 ) ) ;
#523 = DIRECTION ( 'NONE',  ( 0.0000000000000000000, 0.0000000000000000000, 1.000000000000000000 ) ) ;
#524 = CARTESIAN_POINT ( 'NONE',  ( -4.349999999999998800, -4.675618511480781300, 100.0000000000000000 ) ) ;
#525 = CARTESIAN_POINT ( 'NONE',  ( 4.233062478376774100, -6.368347496980431000, 100.0000000000000000 ) ) ;
#526 = CARTESIAN_POINT ( 'NONE',  ( 3.977659405134970500, -1.000000000000000000, 100.0000000000000000 ) ) ;
#527 = DIRECTION ( 'NONE',  ( -0.0000000000000000000, -0.0000000000000000000, -1.000000000000000000 ) ) ;
#528 = DIRECTION ( 'NONE',  ( -1.000000000000000000, 0.0000000000000000000, 0.0000000000000000000 ) ) ;
#529 = DIRECTION ( 'NONE',  ( -1.000000000000000000, 0.0000000000000000000, 0.0000000000000000000 ) ) ;
#530 = CARTESIAN_POINT ( 'NONE',  ( 3.799656563893077300, -6.029733685551315500, 0.0000000000000000000 ) ) ;
#531 = CARTESIAN_POINT ( 'NONE',  ( -3.977659405134970500, -1.000000000000000900, 100.0000000000000000 ) ) ;
#532 = CARTESIAN_POINT ( 'NONE',  ( 6.000000000000000000, -0.2000000000000014000, 100.0000000000000000 ) ) ;
#533 = CARTESIAN_POINT ( 'NONE',  ( 4.665204301442688700, -4.921883101611044300, 100.0000000000000000 ) ) ;
#534 = CARTESIAN_POINT ( 'NONE',  ( 3.977659405134970500, -1.000000000000000000, 100.0000000000000000 ) ) ;
#535 = DIRECTION ( 'NONE',  ( -1.000000000000000000, 0.0000000000000000000, 0.0000000000000000000 ) ) ;
#536 = CARTESIAN_POINT ( 'NONE',  ( 5.719406641027328300, -4.384542144335917200, 100.0000000000000000 ) ) ;
#537 = CARTESIAN_POINT ( 'NONE',  ( -4.741259040293520900, -4.592453835153677700, 0.0000000000000000000 ) ) ;
#538 = CARTESIAN_POINT ( 'NONE',  ( 5.000000000000000900, -1.000000000000000200, 100.0000000000000000 ) ) ;
#539 = CARTESIAN_POINT ( 'NONE',  ( 6.000000000000000000, -0.2000000000000014000, 100.0000000000000000 ) ) ;
#540 = DIRECTION ( 'NONE',  ( -1.000000000000000000, -1.090291613289816400E-016, 0.0000000000000000000 ) ) ;
#541 = CARTESIAN_POINT ( 'NONE',  ( -5.453215055049408700, -5.537544576936705100, 0.0000000000000000000 ) ) ;
#542 = CARTESIAN_POINT ( 'NONE',  ( -5.799999999999998900, 0.0000000000000000000, 100.0000000000000000 ) ) ;
#543 = CARTESIAN_POINT ( 'NONE',  ( -3.956014814480226100, -6.722952336103455600, 100.0000000000000000 ) ) ;
#544 = CARTESIAN_POINT ( 'NONE',  ( -5.000000000000000900, -1.000000000000000200, 100.0000000000000000 ) ) ;
#545 = CARTESIAN_POINT ( 'NONE',  ( -6.000000000000000000, -0.7999999999999986000, 100.0000000000000000 ) ) ;
#546 = CARTESIAN_POINT ( 'NONE',  ( -5.799999999999998900, -0.9999999999999997800, 0.0000000000000000000 ) ) ;
#547 = CARTESIAN_POINT ( 'NONE',  ( 4.741259040293521700, -4.592453835153676800, 0.0000000000000000000 ) ) ;
#548 = CARTESIAN_POINT ( 'NONE',  ( -5.719406641027328300, -4.384542144335918900, 0.0000000000000000000 ) ) ;
#549 = CARTESIAN_POINT ( 'NONE',  ( -3.877213739119554700, -6.661386188570888900, 0.0000000000000000000 ) ) ;
#550 = CARTESIAN_POINT ( 'NONE',  ( 6.000000000000000000, -0.2000000000000014000, 0.0000000000000000000 ) ) ;
#551 = CARTESIAN_POINT ( 'NONE',  ( -6.000000000000000000, -0.2000000000000013400, 100.0000000000000000 ) ) ;
#552 = CARTESIAN_POINT ( 'NONE',  ( -5.000000000000000900, -1.000000000000000200, 0.0000000000000000000 ) ) ;
#553 = CARTESIAN_POINT ( 'NONE',  ( 4.665204301442688700, -4.921883101611044300, 0.0000000000000000000 ) ) ;
#554 = CARTESIAN_POINT ( 'NONE',  ( 3.704261403016102500, -6.306781349447864400, 100.0000000000000000 ) ) ;
#555 = CARTESIAN_POINT ( 'NONE',  ( 4.741259040293521700, -4.592453835153676800, 100.0000000000000000 ) ) ;
#556 = CARTESIAN_POINT ( 'NONE',  ( -3.877213739119554700, -6.661386188570888900, 100.0000000000000000 ) ) ;
#557 = CARTESIAN_POINT ( 'NONE',  ( 3.956014814480229600, -6.722952336103452900, 0.0000000000000000000 ) ) ;
#558 = CARTESIAN_POINT ( 'NONE',  ( 6.000000000000000000, -0.7999999999999986000, 0.0000000000000000000 ) ) ;
#559 = CARTESIAN_POINT ( 'NONE',  ( -3.977659405134970500, -1.000000000000000900, 0.0000000000000000000 ) ) ;
#560 = CARTESIAN_POINT ( 'NONE',  ( 5.799999999999998900, -1.897353801849632800E-016, 100.0000000000000000 ) ) ;
#561 = CARTESIAN_POINT ( 'NONE',  ( -3.799656563893076400, -6.029733685551319100, 100.0000000000000000 ) ) ;
#562 = CARTESIAN_POINT ( 'NONE',  ( -6.000000000000000000, -0.7999999999999986000, 0.0000000000000000000 ) ) ;
#563 = CARTESIAN_POINT ( 'NONE',  ( 3.877213739119555100, -6.661386188570888000, 0.0000000000000000000 ) ) ;
#564 = CARTESIAN_POINT ( 'NONE',  ( 3.956014814480229600, -6.722952336103452900, 100.0000000000000000 ) ) ;
#565 = CARTESIAN_POINT ( 'NONE',  ( -6.000000000000000000, -0.2000000000000013400, 0.0000000000000000000 ) ) ;
#566 = CARTESIAN_POINT ( 'NONE',  ( -5.719406641027328300, -4.384542144335918900, 100.0000000000000000 ) ) ;
#567 = CARTESIAN_POINT ( 'NONE',  ( -5.750000000000000000, -4.675618511480781300, 0.0000000000000000000 ) ) ;
#568 = CARTESIAN_POINT ( 'NONE',  ( 5.000000000000000900, -1.000000000000000200, 0.0000000000000000000 ) ) ;
#569 = CARTESIAN_POINT ( 'NONE',  ( 5.453215055049409600, -5.537544576936703300, 100.0000000000000000 ) ) ;
#570 = CARTESIAN_POINT ( 'NONE',  ( 5.719406641027328300, -4.384542144335917200, 0.0000000000000000000 ) ) ;
#571 = CARTESIAN_POINT ( 'NONE',  ( -5.750000000000000000, -4.675618511480781300, 100.0000000000000000 ) ) ;
#572 = CARTESIAN_POINT ( 'NONE',  ( -3.799656563893076400, -6.029733685551319100, 0.0000000000000000000 ) ) ;
#573 = CARTESIAN_POINT ( 'NONE',  ( -4.587667317499795900, -6.645395160876977200, 0.0000000000000000000 ) ) ;
#574 = CARTESIAN_POINT ( 'NONE',  ( 4.587667317499799500, -6.645395160876974600, 100.0000000000000000 ) ) ;
#575 = CARTESIAN_POINT ( 'NONE',  ( 4.587667317499799500, -6.645395160876974600, 0.0000000000000000000 ) ) ;
#576 = CARTESIAN_POINT ( 'NONE',  ( 3.704261403016102500, -6.306781349447864400, 0.0000000000000000000 ) ) ;
#577 = CARTESIAN_POINT ( 'NONE',  ( 3.977659405134970500, -1.000000000000000000, 0.0000000000000000000 ) ) ;
#578 = CARTESIAN_POINT ( 'NONE',  ( 5.799999999999998900, -1.000000000000000000, 100.0000000000000000 ) ) ;
#579 = CARTESIAN_POINT ( 'NONE',  ( -4.749999999999998200, -4.675618511480781300, 0.0000000000000000000 ) ) ;
#580 = CARTESIAN_POINT ( 'NONE',  ( 5.453215055049409600, -5.537544576936703300, 0.0000000000000000000 ) ) ;
#581 = CARTESIAN_POINT ( 'NONE',  ( -4.665204301442687800, -4.921883101611045100, 0.0000000000000000000 ) ) ;
#582 = CARTESIAN_POINT ( 'NONE',  ( 5.799999999999998900, -1.000000000000000000, 0.0000000000000000000 ) ) ;
#583 = CARTESIAN_POINT ( 'NONE',  ( -3.956014814480226100, -6.722952336103455600, 0.0000000000000000000 ) ) ;
#584 = CARTESIAN_POINT ( 'NONE',  ( -4.741259040293520900, -4.592453835153677700, 100.0000000000000000 ) ) ;
#585 = CARTESIAN_POINT ( 'NONE',  ( 4.741259040293521700, -4.592453835153676800, 100.0000000000000000 ) ) ;
#586 = CARTESIAN_POINT ( 'NONE',  ( 4.350000000000000500, -4.675618511480780400, 0.0000000000000000000 ) ) ;
#587 = DIRECTION ( 'NONE',  ( -0.0000000000000000000, -0.0000000000000000000, -1.000000000000000000 ) ) ;
#588 = DIRECTION ( 'NONE',  ( 0.2079116908177595900, -0.9781476007338055800, -0.0000000000000000000 ) ) ;
#589 = CARTESIAN_POINT ( 'NONE',  ( -4.587667317499795900, -6.645395160876977200, 100.0000000000000000 ) ) ;
#590 = CARTESIAN_POINT ( 'NONE',  ( -4.665204301442687800, -4.921883101611045100, 100.0000000000000000 ) ) ;
#591 = CARTESIAN_POINT ( 'NONE',  ( 5.453215055049409600, -5.537544576936703300, 0.0000000000000000000 ) ) ;
#592 = CARTESIAN_POINT ( 'NONE',  ( -4.349999999999998800, -4.675618511480781300, 100.0000000000000000 ) ) ;
#593 = DIRECTION ( 'NONE',  ( -1.000000000000000000, 0.0000000000000000000, 0.0000000000000000000 ) ) ;
#594 = DIRECTION ( 'NONE',  ( -0.0000000000000000000, -0.0000000000000000000, -1.000000000000000000 ) ) ;
#595 = DIRECTION ( 'NONE',  ( -0.0000000000000000000, -0.0000000000000000000, -1.000000000000000000 ) ) ;
#596 = DIRECTION ( 'NONE',  ( -0.2079116908177595900, 0.9781476007338055800, -0.0000000000000000000 ) ) ;
#597 = DIRECTION ( 'NONE',  ( 0.0000000000000000000, 0.0000000000000000000, 1.000000000000000000 ) ) ;
#598 = DIRECTION ( 'NONE',  ( -0.0000000000000000000, -0.0000000000000000000, -1.000000000000000000 ) ) ;
#599 = DIRECTION ( 'NONE',  ( -1.000000000000000000, 0.0000000000000000000, 0.0000000000000000000 ) ) ;
#600 = DIRECTION ( 'NONE',  ( 0.0000000000000000000, 0.0000000000000000000, 1.000000000000000000 ) ) ;
#601 = DIRECTION ( 'NONE',  ( -0.0000000000000000000, -0.0000000000000000000, -1.000000000000000000 ) ) ;
#602 = DIRECTION ( 'NONE',  ( -0.0000000000000000000, -0.0000000000000000000, -1.000000000000000000 ) ) ;
#603 = CARTESIAN_POINT ( 'NONE',  ( 4.741259040293521700, -4.592453835153676800, 0.0000000000000000000 ) ) ;
#604 = CARTESIAN_POINT ( 'NONE',  ( 4.350000000000000500, -4.675618511480780400, 0.0000000000000000000 ) ) ;
#605 = DIRECTION ( 'NONE',  ( 0.7880107536067215700, -0.6156614753256587400, -0.0000000000000000000 ) ) ;
#606 = DIRECTION ( 'NONE',  ( -0.0000000000000000000, -0.0000000000000000000, -1.000000000000000000 ) ) ;
#607 = DIRECTION ( 'NONE',  ( 0.6156614753256589600, 0.7880107536067214600, -0.0000000000000000000 ) ) ;
#608 = CARTESIAN_POINT ( 'NONE',  ( 4.154261403016101400, -6.306781349447864400, 0.0000000000000000000 ) ) ;
#609 = DIRECTION ( 'NONE',  ( 1.000000000000000000, 0.0000000000000000000, 0.0000000000000000000 ) ) ;
#610 = CARTESIAN_POINT ( 'NONE',  ( 5.000000000000000900, -1.000000000000000200, 0.0000000000000000000 ) ) ;
#611 = DIRECTION ( 'NONE',  ( -1.000000000000000000, 0.0000000000000000000, 0.0000000000000000000 ) ) ;
#612 = CARTESIAN_POINT ( 'NONE',  ( 3.956014814480229600, -6.722952336103452900, 100.0000000000000000 ) ) ;
#613 = CARTESIAN_POINT ( 'NONE',  ( -4.749999999999998200, -4.675618511480781300, 100.0000000000000000 ) ) ;
#614 = CARTESIAN_POINT ( 'NONE',  ( -4.349999999999998800, -4.675618511480781300, 0.0000000000000000000 ) ) ;
#615 = DIRECTION ( 'NONE',  ( -0.0000000000000000000, -0.0000000000000000000, -1.000000000000000000 ) ) ;
#616 = CARTESIAN_POINT ( 'NONE',  ( 3.704261403016102500, -6.306781349447864400, 100.0000000000000000 ) ) ;
#617 = DIRECTION ( 'NONE',  ( -1.000000000000000000, 0.0000000000000000000, 0.0000000000000000000 ) ) ;
#618 = CARTESIAN_POINT ( 'NONE',  ( -4.349999999999998800, -4.675618511480781300, 0.0000000000000000000 ) ) ;
#619 = DIRECTION ( 'NONE',  ( 0.0000000000000000000, 0.0000000000000000000, 1.000000000000000000 ) ) ;
#620 = DIRECTION ( 'NONE',  ( 0.6156614753256597300, -0.7880107536067207900, 0.0000000000000000000 ) ) ;
#621 = CARTESIAN_POINT ( 'NONE',  ( -6.000000000000000000, -0.7999999999999986000, 100.0000000000000000 ) ) ;
#622 = DIRECTION ( 'NONE',  ( 0.0000000000000000000, 0.0000000000000000000, 1.000000000000000000 ) ) ;
#623 = DIRECTION ( 'NONE',  ( 1.000000000000000000, 0.0000000000000000000, 0.0000000000000000000 ) ) ;
#624 = DIRECTION ( 'NONE',  ( -0.0000000000000000000, -0.0000000000000000000, -1.000000000000000000 ) ) ;
#625 = CARTESIAN_POINT ( 'NONE',  ( -3.977659405134970500, -1.000000000000000900, 100.0000000000000000 ) ) ;
#626 = CARTESIAN_POINT ( 'NONE',  ( -3.956014814480226100, -6.722952336103455600, 100.0000000000000000 ) ) ;
#627 = DIRECTION ( 'NONE',  ( 0.0000000000000000000, 0.0000000000000000000, 1.000000000000000000 ) ) ;
#628 = DIRECTION ( 'NONE',  ( -0.0000000000000000000, -0.0000000000000000000, -1.000000000000000000 ) ) ;
#629 = DIRECTION ( 'NONE',  ( 0.7880107536067150200, 0.6156614753256671700, 0.0000000000000000000 ) ) ;
#630 = DIRECTION ( 'NONE',  ( -1.000000000000000000, 0.0000000000000000000, 0.0000000000000000000 ) ) ;
#631 = CARTESIAN_POINT ( 'NONE',  ( -5.800000000000000700, -0.2000000000000000400, 100.0000000000000000 ) ) ;
#632 = DIRECTION ( 'NONE',  ( -0.0000000000000000000, 1.000000000000000000, -0.0000000000000000000 ) ) ;
#633 = CARTESIAN_POINT ( 'NONE',  ( 4.154261403016101400, -6.306781349447864400, 100.0000000000000000 ) ) ;
#634 = DIRECTION ( 'NONE',  ( 1.000000000000000000, 0.0000000000000000000, 0.0000000000000000000 ) ) ;
#635 = CARTESIAN_POINT ( 'NONE',  ( -3.956014814480226100, -6.722952336103455600, 0.0000000000000000000 ) ) ;
#636 = CARTESIAN_POINT ( 'NONE',  ( 6.000000000000000000, -0.2000000000000014000, 0.0000000000000000000 ) ) ;
#637 = DIRECTION ( 'NONE',  ( -0.0000000000000000000, -0.0000000000000000000, -1.000000000000000000 ) ) ;
#638 = CARTESIAN_POINT ( 'NONE',  ( -5.453215055049407800, -5.537544576936705100, 0.0000000000000000000 ) ) ;
#639 = CARTESIAN_POINT ( 'NONE',  ( -4.665204301442687800, -4.921883101611045100, 100.0000000000000000 ) ) ;
#640 = CARTESIAN_POINT ( 'NONE',  ( 5.800000000000000700, -0.2000000000000000400, 100.0000000000000000 ) ) ;
#641 = CARTESIAN_POINT ( 'NONE',  ( -5.799999999999998900, -1.000000000000000000, 0.0000000000000000000 ) ) ;
#642 = DIRECTION ( 'NONE',  ( -0.0000000000000000000, -0.0000000000000000000, -1.000000000000000000 ) ) ;
#643 = DIRECTION ( 'NONE',  ( 0.2079116908177591500, 0.9781476007338056900, 0.0000000000000000000 ) ) ;
#644 = CARTESIAN_POINT ( 'NONE',  ( -5.750000000000000000, -4.675618511480781300, 100.0000000000000000 ) ) ;
#645 = CARTESIAN_POINT ( 'NONE',  ( 5.000000000000000900, -1.000000000000000200, 100.0000000000000000 ) ) ;
#646 = DIRECTION ( 'NONE',  ( 0.0000000000000000000, 0.0000000000000000000, 1.000000000000000000 ) ) ;
#647 = DIRECTION ( 'NONE',  ( -0.0000000000000000000, -0.0000000000000000000, -1.000000000000000000 ) ) ;
#648 = CARTESIAN_POINT ( 'NONE',  ( 5.799999999999998900, -1.000000000000000000, 100.0000000000000000 ) ) ;
#649 = DIRECTION ( 'NONE',  ( -0.2079116908177595100, -0.9781476007338055800, 0.0000000000000000000 ) ) ;
#650 = DIRECTION ( 'NONE',  ( -0.0000000000000000000, -0.0000000000000000000, -1.000000000000000000 ) ) ;
#651 = DIRECTION ( 'NONE',  ( -0.0000000000000000000, -0.0000000000000000000, -1.000000000000000000 ) ) ;
#652 = DIRECTION ( 'NONE',  ( 0.0000000000000000000, 0.0000000000000000000, 1.000000000000000000 ) ) ;
#653 = DIRECTION ( 'NONE',  ( -0.0000000000000000000, -0.0000000000000000000, -1.000000000000000000 ) ) ;
#654 = CARTESIAN_POINT ( 'NONE',  ( -5.000000000000000900, -1.000000000000000200, 0.0000000000000000000 ) ) ;
#655 = CARTESIAN_POINT ( 'NONE',  ( 4.350000000000000500, -4.675618511480780400, 100.0000000000000000 ) ) ;
#656 = DIRECTION ( 'NONE',  ( -1.000000000000000000, 0.0000000000000000000, 0.0000000000000000000 ) ) ;
#657 = CARTESIAN_POINT ( 'NONE',  ( 5.800000000000000700, -0.8000000000000000400, 0.0000000000000000000 ) ) ;
#658 = DIRECTION ( 'NONE',  ( -0.0000000000000000000, -0.0000000000000000000, -1.000000000000000000 ) ) ;
#659 = CARTESIAN_POINT ( 'NONE',  ( -4.741259040293520000, -4.592453835153677700, 100.0000000000000000 ) ) ;
#660 = DIRECTION ( 'NONE',  ( -1.000000000000000000, 0.0000000000000000000, 0.0000000000000000000 ) ) ;
#661 = CARTESIAN_POINT ( 'NONE',  ( 3.799656563893077300, -6.029733685551315500, 100.0000000000000000 ) ) ;
#662 = CARTESIAN_POINT ( 'NONE',  ( 4.665204301442688700, -4.921883101611044300, 100.0000000000000000 ) ) ;
#663 = DIRECTION ( 'NONE',  ( -1.000000000000000000, 0.0000000000000000000, 0.0000000000000000000 ) ) ;
#664 = DIRECTION ( 'NONE',  ( 0.2079116908177595900, -0.9781476007338055800, -0.0000000000000000000 ) ) ;
#665 = CARTESIAN_POINT ( 'NONE',  ( 3.977659405134970500, -1.000000000000000000, 100.0000000000000000 ) ) ;
#666 = CARTESIAN_POINT ( 'NONE',  ( 5.719406641027328300, -4.384542144335917200, 100.0000000000000000 ) ) ;
#667 = DIRECTION ( 'NONE',  ( 0.0000000000000000000, 0.0000000000000000000, 1.000000000000000000 ) ) ;
#668 = CARTESIAN_POINT ( 'NONE',  ( -5.000000000000000900, -1.000000000000000200, 100.0000000000000000 ) ) ;
#669 = CARTESIAN_POINT ( 'NONE',  ( 4.741259040293521700, -4.592453835153676800, 100.0000000000000000 ) ) ;
#670 = DIRECTION ( 'NONE',  ( -0.0000000000000000000, -0.0000000000000000000, -1.000000000000000000 ) ) ;
#671 = DIRECTION ( 'NONE',  ( 1.000000000000000000, -2.710505431213769000E-016, 0.0000000000000000000 ) ) ;
#672 = DIRECTION ( 'NONE',  ( 1.000000000000000000, 2.710505431213769000E-016, -0.0000000000000000000 ) ) ;
#673 = CARTESIAN_POINT ( 'NONE',  ( 5.799999999999998900, -1.000000000000000000, 100.0000000000000000 ) ) ;
#674 = DIRECTION ( 'NONE',  ( 1.000000000000000000, 1.090291613289816300E-016, -0.0000000000000000000 ) ) ;
#675 = DIRECTION ( 'NONE',  ( 0.6156614753256597300, -0.7880107536067207900, 0.0000000000000000000 ) ) ;
#676 = CARTESIAN_POINT ( 'NONE',  ( -3.877213739119554700, -6.661386188570888900, 100.0000000000000000 ) ) ;
#677 = CARTESIAN_POINT ( 'NONE',  ( 3.977659405134970500, -1.000000000000000000, 100.0000000000000000 ) ) ;
#678 = DIRECTION ( 'NONE',  ( -0.0000000000000000000, -0.0000000000000000000, -1.000000000000000000 ) ) ;
#679 = DIRECTION ( 'NONE',  ( -0.0000000000000000000, -0.0000000000000000000, -1.000000000000000000 ) ) ;
#680 = CARTESIAN_POINT ( 'NONE',  ( -5.799999999999998900, -0.9999999999999997800, 100.0000000000000000 ) ) ;
#681 = CARTESIAN_POINT ( 'NONE',  ( -4.349999999999998800, -4.675618511480781300, 100.0000000000000000 ) ) ;
#682 = DIRECTION ( 'NONE',  ( 1.000000000000000000, 0.0000000000000000000, 0.0000000000000000000 ) ) ;
#683 = DIRECTION ( 'NONE',  ( 0.0000000000000000000, 0.0000000000000000000, 1.000000000000000000 ) ) ;
#684 = DIRECTION ( 'NONE',  ( -0.0000000000000000000, -0.0000000000000000000, -1.000000000000000000 ) ) ;
#685 = CARTESIAN_POINT ( 'NONE',  ( -5.453215055049407800, -5.537544576936705100, 100.0000000000000000 ) ) ;
#686 = DIRECTION ( 'NONE',  ( -0.2079116908177595100, -0.9781476007338055800, 0.0000000000000000000 ) ) ;
#687 = DIRECTION ( 'NONE',  ( -0.0000000000000000000, -0.0000000000000000000, -1.000000000000000000 ) ) ;
#688 = CARTESIAN_POINT ( 'NONE',  ( 4.233062478376774100, -6.368347496980431000, 0.0000000000000000000 ) ) ;
#689 = DIRECTION ( 'NONE',  ( 1.000000000000000000, 2.710505431213769000E-016, -0.0000000000000000000 ) ) ;
#690 = DIRECTION ( 'NONE',  ( 0.0000000000000000000, 0.0000000000000000000, 1.000000000000000000 ) ) ;
#691 = CARTESIAN_POINT ( 'NONE',  ( 3.877213739119555100, -6.661386188570888000, 100.0000000000000000 ) ) ;
#692 = CARTESIAN_POINT ( 'NONE',  ( 5.799999999999998900, -1.000000000000000000, 0.0000000000000000000 ) ) ;
#693 = CARTESIAN_POINT ( 'NONE',  ( -5.799999999999998900, 0.0000000000000000000, 100.0000000000000000 ) ) ;
#694 = DIRECTION ( 'NONE',  ( -0.6156614753256595100, 0.7880107536067210100, 0.0000000000000000000 ) ) ;
#695 = DIRECTION ( 'NONE',  ( 1.000000000000000000, 0.0000000000000000000, 0.0000000000000000000 ) ) ;
#696 = CARTESIAN_POINT ( 'NONE',  ( 3.977659405134970500, -1.000000000000000000, 0.0000000000000000000 ) ) ;
#697 = DIRECTION ( 'NONE',  ( 0.0000000000000000000, 0.0000000000000000000, 1.000000000000000000 ) ) ;
#698 = DIRECTION ( 'NONE',  ( -1.000000000000000000, 0.0000000000000000000, 0.0000000000000000000 ) ) ;
#699 = CARTESIAN_POINT ( 'NONE',  ( 5.453215055049409600, -5.537544576936703300, 100.0000000000000000 ) ) ;
#700 = CARTESIAN_POINT ( 'NONE',  ( 3.956014814480229600, -6.722952336103452900, 100.0000000000000000 ) ) ;
#701 = DIRECTION ( 'NONE',  ( -1.000000000000000000, 0.0000000000000000000, 0.0000000000000000000 ) ) ;
#702 = CARTESIAN_POINT ( 'NONE',  ( -4.349999999999998800, -4.675618511480781300, 100.0000000000000000 ) ) ;
#703 = DIRECTION ( 'NONE',  ( -0.2079116908177595900, 0.9781476007338055800, -0.0000000000000000000 ) ) ;
#704 = CARTESIAN_POINT ( 'NONE',  ( 4.350000000000000500, -4.675618511480780400, 100.0000000000000000 ) ) ;
#705 = DIRECTION ( 'NONE',  ( 1.000000000000000000, -2.710505431213769000E-016, 0.0000000000000000000 ) ) ;
#706 = DIRECTION ( 'NONE',  ( 0.0000000000000000000, 0.0000000000000000000, 1.000000000000000000 ) ) ;
#707 = CARTESIAN_POINT ( 'NONE',  ( 5.800000000000000700, -0.8000000000000000400, 100.0000000000000000 ) ) ;
#708 = DIRECTION ( 'NONE',  ( -1.000000000000000000, -0.0000000000000000000, -0.0000000000000000000 ) ) ;
#709 = CARTESIAN_POINT ( 'NONE',  ( -5.799999999999998900, 0.0000000000000000000, 100.0000000000000000 ) ) ;
#710 = DIRECTION ( 'NONE',  ( -0.0000000000000000000, -0.0000000000000000000, -1.000000000000000000 ) ) ;
#711 = DIRECTION ( 'NONE',  ( -1.000000000000000000, 0.0000000000000000000, 0.0000000000000000000 ) ) ;
#712 = CARTESIAN_POINT ( 'NONE',  ( -5.799999999999998900, -1.000000000000000000, 100.0000000000000000 ) ) ;
#713 = DIRECTION ( 'NONE',  ( 0.2079116908177591500, 0.9781476007338056900, 0.0000000000000000000 ) ) ;
#714 = CARTESIAN_POINT ( 'NONE',  ( 3.799656563893077300, -6.029733685551315500, 0.0000000000000000000 ) ) ;
#715 = DIRECTION ( 'NONE',  ( 0.0000000000000000000, 0.0000000000000000000, 1.000000000000000000 ) ) ;
#716 = CARTESIAN_POINT ( 'NONE',  ( 5.000000000000000900, -1.000000000000000200, 100.0000000000000000 ) ) ;
#717 = CARTESIAN_POINT ( 'NONE',  ( 4.233062478376774100, -6.368347496980431000, 100.0000000000000000 ) ) ;
#718 = DIRECTION ( 'NONE',  ( 1.000000000000000000, 0.0000000000000000000, 0.0000000000000000000 ) ) ;
#719 = DIRECTION ( 'NONE',  ( -1.000000000000000000, 0.0000000000000000000, 0.0000000000000000000 ) ) ;
#720 = CARTESIAN_POINT ( 'NONE',  ( -5.800000000000000700, -0.2000000000000000400, 0.0000000000000000000 ) ) ;
#721 = DIRECTION ( 'NONE',  ( -0.0000000000000000000, -0.0000000000000000000, -1.000000000000000000 ) ) ;
#722 = DIRECTION ( 'NONE',  ( 0.6156614753256589600, 0.7880107536067214600, -0.0000000000000000000 ) ) ;
#723 = CARTESIAN_POINT ( 'NONE',  ( -5.453215055049408700, -5.537544576936705100, 100.0000000000000000 ) ) ;
#724 = DIRECTION ( 'NONE',  ( 0.7880107536067215700, -0.6156614753256587400, -0.0000000000000000000 ) ) ;
#725 = CARTESIAN_POINT ( 'NONE',  ( -3.799656563893075500, -6.029733685551319100, 100.0000000000000000 ) ) ;
#726 = DIRECTION ( 'NONE',  ( -0.0000000000000000000, -0.0000000000000000000, -1.000000000000000000 ) ) ;
#727 = DIRECTION ( 'NONE',  ( 1.000000000000000000, 1.090291613289816300E-016, -0.0000000000000000000 ) ) ;
#728 = DIRECTION ( 'NONE',  ( -0.6156614753256604000, -0.7880107536067203500, -0.0000000000000000000 ) ) ;
#729 = CARTESIAN_POINT ( 'NONE',  ( -4.741259040293520000, -4.592453835153677700, 0.0000000000000000000 ) ) ;
#730 = DIRECTION ( 'NONE',  ( -0.0000000000000000000, -0.0000000000000000000, -1.000000000000000000 ) ) ;
#731 = DIRECTION ( 'NONE',  ( -1.000000000000000000, 0.0000000000000000000, 0.0000000000000000000 ) ) ;
#732 = DIRECTION ( 'NONE',  ( -0.0000000000000000000, -0.0000000000000000000, -1.000000000000000000 ) ) ;
#733 = DIRECTION ( 'NONE',  ( -0.6156614753256595100, 0.7880107536067210100, 0.0000000000000000000 ) ) ;
#734 = CARTESIAN_POINT ( 'NONE',  ( -4.154261403016099600, -6.306781349447865300, 100.0000000000000000 ) ) ;
#735 = DIRECTION ( 'NONE',  ( 1.000000000000000000, 0.0000000000000000000, 0.0000000000000000000 ) ) ;
#736 = DIRECTION ( 'NONE',  ( 1.000000000000000000, 0.0000000000000000000, 0.0000000000000000000 ) ) ;
#737 = DIRECTION ( 'NONE',  ( 0.0000000000000000000, 0.0000000000000000000, 1.000000000000000000 ) ) ;
#738 = CARTESIAN_POINT ( 'NONE',  ( -3.799656563893076400, -6.029733685551319100, 100.0000000000000000 ) ) ;
#739 = DIRECTION ( 'NONE',  ( -0.0000000000000000000, -0.0000000000000000000, -1.000000000000000000 ) ) ;
#740 = DIRECTION ( 'NONE',  ( 1.000000000000000000, 0.0000000000000000000, 0.0000000000000000000 ) ) ;
#741 = CARTESIAN_POINT ( 'NONE',  ( 6.000000000000000000, -0.7999999999999986000, 100.0000000000000000 ) ) ;
#742 = CARTESIAN_POINT ( 'NONE',  ( 6.000000000000000000, -0.2000000000000014000, 100.0000000000000000 ) ) ;
#743 = CARTESIAN_POINT ( 'NONE',  ( -6.000000000000000000, -0.2000000000000014000, 100.0000000000000000 ) ) ;
#744 = DIRECTION ( 'NONE',  ( 0.0000000000000000000, 0.0000000000000000000, 1.000000000000000000 ) ) ;
#745 = DIRECTION ( 'NONE',  ( 0.0000000000000000000, 0.0000000000000000000, 1.000000000000000000 ) ) ;
#746 = CARTESIAN_POINT ( 'NONE',  ( 4.154261403016101400, -6.306781349447864400, 0.0000000000000000000 ) ) ;
#747 = DIRECTION ( 'NONE',  ( -0.0000000000000000000, -0.0000000000000000000, -1.000000000000000000 ) ) ;
#748 = CARTESIAN_POINT ( 'NONE',  ( -4.349999999999998800, -4.675618511480781300, 0.0000000000000000000 ) ) ;
#749 = DIRECTION ( 'NONE',  ( 0.0000000000000000000, -1.000000000000000000, 0.0000000000000000000 ) ) ;
#750 = DIRECTION ( 'NONE',  ( -1.000000000000000000, 0.0000000000000000000, 0.0000000000000000000 ) ) ;
#751 = DIRECTION ( 'NONE',  ( -1.000000000000000000, 0.0000000000000000000, 0.0000000000000000000 ) ) ;
#752 = CARTESIAN_POINT ( 'NONE',  ( 6.000000000000000000, -0.2000000000000014000, 100.0000000000000000 ) ) ;
#753 = CARTESIAN_POINT ( 'NONE',  ( 4.587667317499799500, -6.645395160876974600, 100.0000000000000000 ) ) ;
#754 = CARTESIAN_POINT ( 'NONE',  ( -4.349999999999998800, -4.675618511480781300, 0.0000000000000000000 ) ) ;
#755 = CARTESIAN_POINT ( 'NONE',  ( 3.799656563893077300, -6.029733685551315500, 100.0000000000000000 ) ) ;
#756 = CARTESIAN_POINT ( 'NONE',  ( -6.000000000000000000, -0.2000000000000014000, 0.0000000000000000000 ) ) ;
#757 = CARTESIAN_POINT ( 'NONE',  ( -5.800000000000000700, -0.8000000000000000400, 0.0000000000000000000 ) ) ;
#758 = DIRECTION ( 'NONE',  ( -0.0000000000000000000, -0.0000000000000000000, -1.000000000000000000 ) ) ;
#759 = CARTESIAN_POINT ( 'NONE',  ( 4.154261403016101400, -6.306781349447864400, 100.0000000000000000 ) ) ;
#760 = CARTESIAN_POINT ( 'NONE',  ( -4.349999999999998800, -4.675618511480781300, 100.0000000000000000 ) ) ;
#761 = DIRECTION ( 'NONE',  ( 0.0000000000000000000, 0.0000000000000000000, 1.000000000000000000 ) ) ;
#762 = DIRECTION ( 'NONE',  ( 0.0000000000000000000, 0.0000000000000000000, 1.000000000000000000 ) ) ;
#763 = DIRECTION ( 'NONE',  ( 0.0000000000000000000, 0.0000000000000000000, 1.000000000000000000 ) ) ;
#764 = CARTESIAN_POINT ( 'NONE',  ( -3.799656563893075500, -6.029733685551319100, 0.0000000000000000000 ) ) ;
#765 = DIRECTION ( 'NONE',  ( 1.000000000000000000, 0.0000000000000000000, 0.0000000000000000000 ) ) ;
#766 = DIRECTION ( 'NONE',  ( -0.6156614753256604000, -0.7880107536067203500, -0.0000000000000000000 ) ) ;
#767 = DIRECTION ( 'NONE',  ( -0.0000000000000000000, -0.0000000000000000000, -1.000000000000000000 ) ) ;
#768 = CARTESIAN_POINT ( 'NONE',  ( -4.233062478376772300, -6.368347496980431900, 100.0000000000000000 ) ) ;
#769 = CARTESIAN_POINT ( 'NONE',  ( 5.800000000000000700, -0.2000000000000000400, 0.0000000000000000000 ) ) ;
#770 = DIRECTION ( 'NONE',  ( 0.0000000000000000000, 0.0000000000000000000, 1.000000000000000000 ) ) ;
#771 = DIRECTION ( 'NONE',  ( -1.000000000000000000, 0.0000000000000000000, 0.0000000000000000000 ) ) ;
#772 = CARTESIAN_POINT ( 'NONE',  ( 0.0000000000000000000, 0.0000000000000000000, 0.0000000000000000000 ) ) ;
#773 = CARTESIAN_POINT ( 'NONE',  ( -5.799999999999998900, 0.0000000000000000000, 0.0000000000000000000 ) ) ;
#774 = DIRECTION ( 'NONE',  ( 0.0000000000000000000, 0.0000000000000000000, 1.000000000000000000 ) ) ;
#775 = DIRECTION ( 'NONE',  ( -0.0000000000000000000, -0.0000000000000000000, -1.000000000000000000 ) ) ;
#776 =( LENGTH_UNIT ( ) NAMED_UNIT ( * ) SI_UNIT ( .MILLI., .METRE. ) );
#777 = CARTESIAN_POINT ( 'NONE',  ( -5.000000000000000900, -1.000000000000000200, 100.0000000000000000 ) ) ;
#778 = DIRECTION ( 'NONE',  ( -0.0000000000000000000, 1.000000000000000000, -0.0000000000000000000 ) ) ;
#779 = DIRECTION ( 'NONE',  ( 0.0000000000000000000, 0.0000000000000000000, 1.000000000000000000 ) ) ;
#780 = CARTESIAN_POINT ( 'NONE',  ( 5.799999999999998900, -1.897353801849632800E-016, 100.0000000000000000 ) ) ;
#781 = DIRECTION ( 'NONE',  ( 0.0000000000000000000, 0.0000000000000000000, 1.000000000000000000 ) ) ;
#782 = CARTESIAN_POINT ( 'NONE',  ( -4.154261403016099600, -6.306781349447865300, 0.0000000000000000000 ) ) ;
#783 = DIRECTION ( 'NONE',  ( -0.0000000000000000000, -0.0000000000000000000, -1.000000000000000000 ) ) ;
#784 =( NAMED_UNIT ( * ) SI_UNIT ( $, .STERADIAN. ) SOLID_ANGLE_UNIT ( ) );
#785 = DIRECTION ( 'NONE',  ( 1.000000000000000000, 0.0000000000000000000, 0.0000000000000000000 ) ) ;
#786 = DIRECTION ( 'NONE',  ( 1.000000000000000000, 0.0000000000000000000, 0.0000000000000000000 ) ) ;
#787 = DIRECTION ( 'NONE',  ( -0.0000000000000000000, -0.0000000000000000000, -1.000000000000000000 ) ) ;
#788 = CARTESIAN_POINT ( 'NONE',  ( 5.453215055049409600, -5.537544576936703300, 100.0000000000000000 ) ) ;
#789 = DIRECTION ( 'NONE',  ( 1.000000000000000000, 0.0000000000000000000, 0.0000000000000000000 ) ) ;
#790 = DIRECTION ( 'NONE',  ( 0.0000000000000000000, 0.0000000000000000000, 1.000000000000000000 ) ) ;
#791 = CARTESIAN_POINT ( 'NONE',  ( -3.956014814480226100, -6.722952336103455600, 100.0000000000000000 ) ) ;
#792 = CARTESIAN_POINT ( 'NONE',  ( -4.233062478376772300, -6.368347496980431900, 0.0000000000000000000 ) ) ;
#793 = DIRECTION ( 'NONE',  ( 0.0000000000000000000, -1.000000000000000000, 0.0000000000000000000 ) ) ;
#794 = CARTESIAN_POINT ( 'NONE',  ( -4.587667317499795900, -6.645395160876977200, 100.0000000000000000 ) ) ;
#795 = DIRECTION ( 'NONE',  ( -0.0000000000000000000, -0.0000000000000000000, -1.000000000000000000 ) ) ;
#796 =( NAMED_UNIT ( * ) PLANE_ANGLE_UNIT ( ) SI_UNIT ( $, .RADIAN. ) );
#797 = CARTESIAN_POINT ( 'NONE',  ( -5.719406641027328300, -4.384542144335918900, 100.0000000000000000 ) ) ;
#798 = DIRECTION ( 'NONE',  ( -1.000000000000000000, -0.0000000000000000000, -0.0000000000000000000 ) ) ;
#799 = CARTESIAN_POINT ( 'NONE',  ( -5.800000000000000700, -0.8000000000000000400, 100.0000000000000000 ) ) ;
#800 = DIRECTION ( 'NONE',  ( 0.0000000000000000000, 0.0000000000000000000, 1.000000000000000000 ) ) ;
#801 = DIRECTION ( 'NONE',  ( -0.0000000000000000000, -0.0000000000000000000, -1.000000000000000000 ) ) ;
#802 = DIRECTION ( 'NONE',  ( 0.7880107536067150200, 0.6156614753256671700, 0.0000000000000000000 ) ) ;
#803 = DIRECTION ( 'NONE',  ( -0.0000000000000000000, -0.0000000000000000000, -1.000000000000000000 ) ) ;
#804 = DIRECTION ( 'NONE',  ( 1.000000000000000000, 0.0000000000000000000, 0.0000000000000000000 ) ) ;
#805 = CARTESIAN_POINT ( 'NONE',  ( -6.000000000000000000, -0.2000000000000013400, 100.0000000000000000 ) ) ;
#806 = APPLICATION_PROTOCOL_DEFINITION ( 'international standard', 'config_control_design', 1994, #819 ) ;
#807 = SECURITY_CLASSIFICATION_LEVEL ( 'unclassified' ) ;
#808 = APPROVAL_STATUS ( 'not_yet_approved' ) ;
#809 = PERSON_AND_ORGANIZATION_ROLE ( 'design_supplier' ) ;
#810 = APPROVAL_ROLE ( '' ) ;
#811 = APPLICATION_PROTOCOL_DEFINITION ( 'international standard', 'config_control_design', 1994, #815 ) ;
#812 = DATE_TIME_ROLE ( 'creation_date' ) ;
#813 = PERSON_AND_ORGANIZATION_ROLE ( 'classification_officer' ) ;
#814 = DIRECTION ( 'NONE',  ( 1.000000000000000000, 0.0000000000000000000, 0.0000000000000000000 ) ) ;
#815 = APPLICATION_CONTEXT ( 'configuration controlled 3d designs of mechanical parts and assemblies' ) ;
#816 = DATE_TIME_ROLE ( 'classification_date' ) ;
#817 = APPROVAL_ROLE ( '' ) ;
#818 = APPROVAL_STATUS ( 'not_yet_approved' ) ;
#819 = APPLICATION_CONTEXT ( 'configuration controlled 3d designs of mechanical parts and assemblies' ) ;
#820 = PERSON_AND_ORGANIZATION_ROLE ( 'design_owner' ) ;
#821 = APPROVAL_STATUS ( 'not_yet_approved' ) ;
#822 = MECHANICAL_CONTEXT ( 'NONE', #819, 'mechanical' ) ;
#823 = PERSON_AND_ORGANIZATION_ROLE ( 'creator' ) ;
#824 = PERSON_AND_ORGANIZATION_ROLE ( 'creator' ) ;
#825 = APPROVAL_ROLE ( '' ) ;
#826 = PRODUCT ( 'ALP4260', 'ALP4260', '', ( #822 ) ) ;
#827 = PERSON ( 'UNSPECIFIED', 'UNSPECIFIED', 'UNSPECIFIED', ('UNSPECIFIED'), ('UNSPECIFIED'), ('UNSPECIFIED') ) ;
#828 = PRODUCT_DEFINITION_SHAPE ( 'NONE', 'NONE',  #377 ) ;
#829 = DESIGN_CONTEXT ( 'detailed design', #815, 'design' ) ;
#830 = CIRCLE ( 'NONE', #383, 0.4499999999999990100 ) ;
#831 = CIRCLE ( 'NONE', #363, 0.4499999999999990100 ) ;
#832 = VECTOR ( 'NONE', #801, 1000.000000000000000 ) ;
#833 = VECTOR ( 'NONE', #802, 1000.000000000000200 ) ;
#834 = CIRCLE ( 'NONE', #379, 0.1999999999999996500 ) ;
#835 = CIRCLE ( 'NONE', #364, 0.4499999999999990100 ) ;
#836 = LINE ( 'NONE', #791, #833 ) ;
#837 = LINE ( 'NONE', #797, #832 ) ;
#838 = CIRCLE ( 'NONE', #382, 0.1999999999999996500 ) ;
#839 = CALENDAR_DATE ( 2017, 10, 3 ) ;
#840 = PERSON_AND_ORGANIZATION ( #827, #852 ) ;
#841 = COORDINATED_UNIVERSAL_TIME_OFFSET ( 1, 0, .AHEAD. ) ;
#842 = DATE_AND_TIME ( #839, #858 ) ;
#843 = COORDINATED_UNIVERSAL_TIME_OFFSET ( 1, 0, .AHEAD. ) ;
#844 = PERSON_AND_ORGANIZATION ( #827, #852 ) ;
#845 = PERSON_AND_ORGANIZATION ( #827, #852 ) ;
#846 = SHAPE_DEFINITION_REPRESENTATION ( #828, #229 ) ;
#847 = APPROVAL_DATE_TIME ( #842, #376 ) ;
#848 = PERSON_AND_ORGANIZATION ( #827, #852 ) ;
#849 = LOCAL_TIME ( 18, 45, 33.00000000000000000, #851 ) ;
#850 = APPROVAL_DATE_TIME ( #863, #399 ) ;
#851 = COORDINATED_UNIVERSAL_TIME_OFFSET ( 1, 0, .AHEAD. ) ;
#852 = ORGANIZATION ( 'UNSPECIFIED', 'UNSPECIFIED', '' ) ;
#853 = PERSON_AND_ORGANIZATION ( #827, #852 ) ;
#854 = LOCAL_TIME ( 18, 45, 33.00000000000000000, #843 ) ;
#855 = CALENDAR_DATE ( 2017, 10, 3 ) ;
#856 = CALENDAR_DATE ( 2017, 10, 3 ) ;
#857 = APPROVAL_PERSON_ORGANIZATION ( #853, #376, #817 ) ;
#858 = LOCAL_TIME ( 18, 45, 33.00000000000000000, #860 ) ;
#859 = PERSON_AND_ORGANIZATION ( #827, #852 ) ;
#860 = COORDINATED_UNIVERSAL_TIME_OFFSET ( 1, 0, .AHEAD. ) ;
#861 = APPROVAL_PERSON_ORGANIZATION ( #848, #399, #825 ) ;
#862 = DATE_AND_TIME ( #855, #854 ) ;
#863 = DATE_AND_TIME ( #856, #849 ) ;
#864 = PERSON_AND_ORGANIZATION ( #827, #852 ) ;
#865 = ORIENTED_EDGE ( 'NONE', *, *, #240, .F. ) ;
#866 = EDGE_LOOP ( 'NONE', ( #140, #170, #138, #177 ) ) ;
#867 = EDGE_LOOP ( 'NONE', ( #133, #147, #209, #210 ) ) ;
#868 = ORIENTED_EDGE ( 'NONE', *, *, #285, .F. ) ;
#869 = ORIENTED_EDGE ( 'NONE', *, *, #292, .T. ) ;
#870 = ORIENTED_EDGE ( 'NONE', *, *, #290, .T. ) ;
#871 = ORIENTED_EDGE ( 'NONE', *, *, #230, .F. ) ;
#872 = ORIENTED_EDGE ( 'NONE', *, *, #273, .F. ) ;
#873 = ORIENTED_EDGE ( 'NONE', *, *, #272, .T. ) ;
#874 = ORIENTED_EDGE ( 'NONE', *, *, #276, .T. ) ;
#875 = ORIENTED_EDGE ( 'NONE', *, *, #256, .T. ) ;
#876 = ORIENTED_EDGE ( 'NONE', *, *, #304, .T. ) ;
#877 = ORIENTED_EDGE ( 'NONE', *, *, #234, .F. ) ;
#878 = ORIENTED_EDGE ( 'NONE', *, *, #275, .F. ) ;
#879 = ORIENTED_EDGE ( 'NONE', *, *, #346, .T. ) ;
#880 = ORIENTED_EDGE ( 'NONE', *, *, #255, .T. ) ;
#881 = ORIENTED_EDGE ( 'NONE', *, *, #231, .F. ) ;
#882 = ORIENTED_EDGE ( 'NONE', *, *, #236, .F. ) ;
#883 = ORIENTED_EDGE ( 'NONE', *, *, #320, .F. ) ;
#884 = ORIENTED_EDGE ( 'NONE', *, *, #307, .T. ) ;
#885 = ORIENTED_EDGE ( 'NONE', *, *, #287, .T. ) ;
#886 = ORIENTED_EDGE ( 'NONE', *, *, #280, .F. ) ;
#887 = ORIENTED_EDGE ( 'NONE', *, *, #352, .F. ) ;
#888 = ORIENTED_EDGE ( 'NONE', *, *, #244, .T. ) ;
#889 = ORIENTED_EDGE ( 'NONE', *, *, #293, .T. ) ;
#890 = ORIENTED_EDGE ( 'NONE', *, *, #343, .F. ) ;
#891 = ORIENTED_EDGE ( 'NONE', *, *, #238, .F. ) ;
#892 = ORIENTED_EDGE ( 'NONE', *, *, #248, .F. ) ;
#893 = ORIENTED_EDGE ( 'NONE', *, *, #252, .F. ) ;
#894 = ORIENTED_EDGE ( 'NONE', *, *, #297, .F. ) ;
#895 = ORIENTED_EDGE ( 'NONE', *, *, #243, .F. ) ;
#896 = ORIENTED_EDGE ( 'NONE', *, *, #295, .F. ) ;
#897 = CLOSED_SHELL ( 'NONE', ( #32, #15, #17, #31, #20, #16, #7, #22, #9, #33, #26, #11, #19, #12, #25, #30, #5, #1, #21, #13, #6, #27, #10, #28, #24, #18, #2, #3, #14, #29, #23, #8, #4 ) ) ;
#898 = ORIENTED_EDGE ( 'NONE', *, *, #309, .F. ) ;
#899 = ORIENTED_EDGE ( 'NONE', *, *, #296, .T. ) ;
#900 = ORIENTED_EDGE ( 'NONE', *, *, #302, .F. ) ;
#901 = ORIENTED_EDGE ( 'NONE', *, *, #270, .F. ) ;
#902 = ORIENTED_EDGE ( 'NONE', *, *, #264, .T. ) ;
#903 = ORIENTED_EDGE ( 'NONE', *, *, #299, .T. ) ;
#904 = ORIENTED_EDGE ( 'NONE', *, *, #259, .T. ) ;
#905 = ORIENTED_EDGE ( 'NONE', *, *, #305, .F. ) ;
#906 = ORIENTED_EDGE ( 'NONE', *, *, #265, .T. ) ;
#907 = ORIENTED_EDGE ( 'NONE', *, *, #239, .F. ) ;
#908 = ORIENTED_EDGE ( 'NONE', *, *, #282, .T. ) ;
#909 = ORIENTED_EDGE ( 'NONE', *, *, #233, .F. ) ;
#910 = ORIENTED_EDGE ( 'NONE', *, *, #300, .F. ) ;
#911 = ORIENTED_EDGE ( 'NONE', *, *, #288, .T. ) ;
#912 = ORIENTED_EDGE ( 'NONE', *, *, #314, .T. ) ;
#913 = ORIENTED_EDGE ( 'NONE', *, *, #284, .T. ) ;
#914 = ORIENTED_EDGE ( 'NONE', *, *, #339, .T. ) ;
#915 = ORIENTED_EDGE ( 'NONE', *, *, #269, .F. ) ;
#916 = ORIENTED_EDGE ( 'NONE', *, *, #253, .F. ) ;
#917 = ORIENTED_EDGE ( 'NONE', *, *, #289, .T. ) ;
#918 = ORIENTED_EDGE ( 'NONE', *, *, #337, .F. ) ;
#919 = ORIENTED_EDGE ( 'NONE', *, *, #283, .F. ) ;
#920 = ORIENTED_EDGE ( 'NONE', *, *, #294, .F. ) ;
#921 = ORIENTED_EDGE ( 'NONE', *, *, #250, .F. ) ;
#922 = EDGE_LOOP ( 'NONE', ( #112, #188, #146, #132 ) ) ;
#923 = ORIENTED_EDGE ( 'NONE', *, *, #286, .T. ) ;
#924 = FACE_OUTER_BOUND ( 'NONE', #969, .T. ) ;
#925 = CYLINDRICAL_SURFACE ( 'NONE', #311, 1.399999999999999200 ) ;
#926 = FACE_OUTER_BOUND ( 'NONE', #966, .T. ) ;
#927 = CYLINDRICAL_SURFACE ( 'NONE', #354, 0.1999999999999996500 ) ;
#928 = FACE_OUTER_BOUND ( 'NONE', #950, .T. ) ;
#929 = FACE_OUTER_BOUND ( 'NONE', #970, .T. ) ;
#930 = FACE_OUTER_BOUND ( 'NONE', #960, .T. ) ;
#931 = FACE_OUTER_BOUND ( 'NONE', #948, .T. ) ;
#932 = FACE_OUTER_BOUND ( 'NONE', #968, .T. ) ;
#933 = FACE_OUTER_BOUND ( 'NONE', #944, .T. ) ;
#934 = EDGE_LOOP ( 'NONE', ( #919, #886, #909, #905, #900, #890, #892, #918, #893, #895, #894, #915, #901, #910, #883, #868, #898, #887, #921, #916, #872, #881, #891, #877, #878, #871, #882, #896, #920, #865, #907 ) ) ;
#935 = FACE_OUTER_BOUND ( 'NONE', #943, .T. ) ;
#936 = EDGE_LOOP ( 'NONE', ( #163, #212, #159, #200 ) ) ;
#937 = FACE_OUTER_BOUND ( 'NONE', #951, .T. ) ;
#938 = FACE_OUTER_BOUND ( 'NONE', #967, .T. ) ;
#939 = FACE_OUTER_BOUND ( 'NONE', #946, .T. ) ;
#940 = EDGE_LOOP ( 'NONE', ( #128, #102, #99, #152 ) ) ;
#941 = EDGE_LOOP ( 'NONE', ( #149, #131, #172, #162 ) ) ;
#942 = EDGE_LOOP ( 'NONE', ( #180, #205, #186, #190 ) ) ;
#943 = EDGE_LOOP ( 'NONE', ( #187, #211, #214, #164 ) ) ;
#944 = EDGE_LOOP ( 'NONE', ( #194, #206, #201, #224 ) ) ;
#945 = EDGE_LOOP ( 'NONE', ( #148, #174, #175, #173 ) ) ;
#946 = EDGE_LOOP ( 'NONE', ( #134, #144, #157, #110 ) ) ;
#947 = EDGE_LOOP ( 'NONE', ( #189, #171, #34, #184 ) ) ;
#948 = EDGE_LOOP ( 'NONE', ( #183, #197, #215, #196 ) ) ;
#949 = EDGE_LOOP ( 'NONE', ( #220, #217, #219, #221 ) ) ;
#950 = EDGE_LOOP ( 'NONE', ( #142, #179, #135, #137 ) ) ;
#951 = EDGE_LOOP ( 'NONE', ( #154, #155, #156, #168 ) ) ;
#952 = FACE_OUTER_BOUND ( 'NONE', #867, .T. ) ;
#953 = CYLINDRICAL_SURFACE ( 'NONE', #325, 0.1999999999999996500 ) ;
#954 = FACE_OUTER_BOUND ( 'NONE', #956, .T. ) ;
#955 = CYLINDRICAL_SURFACE ( 'NONE', #315, 1.400000000000001000 ) ;
#956 = EDGE_LOOP ( 'NONE', ( #166, #181, #203, #223 ) ) ;
#957 = FACE_OUTER_BOUND ( 'NONE', #973, .T. ) ;
#958 = EDGE_LOOP ( 'NONE', ( #193, #198, #182, #161 ) ) ;
#959 = EDGE_LOOP ( 'NONE', ( #191, #213, #202, #195 ) ) ;
#960 = EDGE_LOOP ( 'NONE', ( #103, #141, #153, #109 ) ) ;
#961 = FACE_OUTER_BOUND ( 'NONE', #940, .T. ) ;
#962 = EDGE_LOOP ( 'NONE', ( #218, #199, #192, #208 ) ) ;
#963 = EDGE_LOOP ( 'NONE', ( #113, #105, #104, #106 ) ) ;
#964 = EDGE_LOOP ( 'NONE', ( #125, #126, #130, #116 ) ) ;
#965 = EDGE_LOOP ( 'NONE', ( #158, #143, #178, #136 ) ) ;
#966 = EDGE_LOOP ( 'NONE', ( #222, #880, #917, #903, #888, #889, #869, #870, #885, #902, #911, #874, #36, #912, #875, #37, #39, #884, #879, #913, #904, #873, #876, #41, #914, #38, #899, #923, #908, #40, #906 ) ) ;
#967 = EDGE_LOOP ( 'NONE', ( #123, #124, #97, #119 ) ) ;
#968 = EDGE_LOOP ( 'NONE', ( #35, #216, #165, #207 ) ) ;
#969 = EDGE_LOOP ( 'NONE', ( #121, #98, #127, #101 ) ) ;
#970 = EDGE_LOOP ( 'NONE', ( #139, #150, #145, #151 ) ) ;
#971 = FACE_OUTER_BOUND ( 'NONE', #934, .T. ) ;
#972 = EDGE_LOOP ( 'NONE', ( #118, #111, #120, #100 ) ) ;
#973 = EDGE_LOOP ( 'NONE', ( #226, #176, #225, #185 ) ) ;
#974 = FACE_OUTER_BOUND ( 'NONE', #942, .T. ) ;
#975 = FACE_OUTER_BOUND ( 'NONE', #936, .T. ) ;
#976 = EDGE_LOOP ( 'NONE', ( #160, #167, #169, #204 ) ) ;
#977 = CYLINDRICAL_SURFACE ( 'NONE', #323, 0.4499999999999990100 ) ;
#978 = CYLINDRICAL_SURFACE ( 'NONE', #338, 0.1999999999999996500 ) ;
#979 = VECTOR ( 'NONE', #601, 1000.000000000000000 ) ;
#980 = FACE_OUTER_BOUND ( 'NONE', #947, .T. ) ;
#981 = VECTOR ( 'NONE', #596, 1000.000000000000100 ) ;
#982 = LOCAL_TIME ( 18, 45, 33.00000000000000000, #841 ) ;
#983 = FACE_OUTER_BOUND ( 'NONE', #945, .T. ) ;
#984 = CIRCLE ( 'NONE', #404, 0.3999999999999993000 ) ;
#985 = FACE_OUTER_BOUND ( 'NONE', #941, .T. ) ;
#986 = VECTOR ( 'NONE', #615, 1000.000000000000000 ) ;
#987 = LINE ( 'NONE', #612, #988 ) ;
#988 = VECTOR ( 'NONE', #602, 1000.000000000000000 ) ;
#989 = FACE_OUTER_BOUND ( 'NONE', #959, .T. ) ;
#990 = LINE ( 'NONE', #591, #998 ) ;
#991 = CYLINDRICAL_SURFACE ( 'NONE', #318, 0.4499999999999990100 ) ;
#992 = FACE_OUTER_BOUND ( 'NONE', #964, .T. ) ;
#993 = FACE_OUTER_BOUND ( 'NONE', #963, .T. ) ;
#994 = CYLINDRICAL_SURFACE ( 'NONE', #349, 0.1999999999999996500 ) ;
#995 = LINE ( 'NONE', #557, #1020 ) ;
#996 = CIRCLE ( 'NONE', #313, 0.3999999999999993000 ) ;
#997 = FACE_OUTER_BOUND ( 'NONE', #958, .T. ) ;
#998 = VECTOR ( 'NONE', #607, 1000.000000000000000 ) ;
#999 = VECTOR ( 'NONE', #588, 1000.000000000000100 ) ;
#1000 = CIRCLE ( 'NONE', #344, 0.3999999999999993000 ) ;
#1001 = CIRCLE ( 'NONE', #391, 1.399999999999999200 ) ;
#1002 = CALENDAR_DATE ( 2017, 10, 3 ) ;
#1003 = FACE_OUTER_BOUND ( 'NONE', #965, .T. ) ;
#1004 = FACE_OUTER_BOUND ( 'NONE', #962, .T. ) ;
#1005 = CYLINDRICAL_SURFACE ( 'NONE', #312, 0.3999999999999993000 ) ;
#1006 = CYLINDRICAL_SURFACE ( 'NONE', #387, 0.4499999999999981200 ) ;
#1007 = LINE ( 'NONE', #585, #986 ) ;
#1008 = FACE_OUTER_BOUND ( 'NONE', #976, .T. ) ;
#1009 = LINE ( 'NONE', #603, #999 ) ;
#1010 = LINE ( 'NONE', #610, #981 ) ;
#1011 = CYLINDRICAL_SURFACE ( 'NONE', #385, 0.3999999999999993000 ) ;
#1012 = CYLINDRICAL_SURFACE ( 'NONE', #328, 0.3999999999999993000 ) ;
#1013 = FACE_OUTER_BOUND ( 'NONE', #972, .T. ) ;
#1014 = CYLINDRICAL_SURFACE ( 'NONE', #310, 1.400000000000001000 ) ;
#1015 = CYLINDRICAL_SURFACE ( 'NONE', #335, 0.4499999999999990100 ) ;
#1016 = FACE_OUTER_BOUND ( 'NONE', #949, .T. ) ;
#1017 = FACE_OUTER_BOUND ( 'NONE', #922, .T. ) ;
#1018 = FACE_OUTER_BOUND ( 'NONE', #866, .T. ) ;
#1019 = LINE ( 'NONE', #616, #1021 ) ;
#1020 = VECTOR ( 'NONE', #605, 1000.000000000000000 ) ;
#1021 = VECTOR ( 'NONE', #598, 1000.000000000000000 ) ;
#1022 = LINE ( 'NONE', #613, #979 ) ;
#1023 = CYLINDRICAL_SURFACE ( 'NONE', #334, 0.4499999999999990100 ) ;
#1024 = CIRCLE ( 'NONE', #378, 0.4499999999999990100 ) ;
#1025 = LINE ( 'NONE', #625, #1046 ) ;
#1026 = CIRCLE ( 'NONE', #386, 0.1999999999999996500 ) ;
#1027 = VECTOR ( 'NONE', #637, 1000.000000000000000 ) ;
#1028 = VECTOR ( 'NONE', #620, 1000.000000000000100 ) ;
#1029 = CIRCLE ( 'NONE', #405, 0.1999999999999996500 ) ;
#1030 = VECTOR ( 'NONE', #653, 1000.000000000000000 ) ;
#1031 = VECTOR ( 'NONE', #670, 1000.000000000000000 ) ;
#1032 = VECTOR ( 'NONE', #658, 1000.000000000000000 ) ;
#1033 = VECTOR ( 'NONE', #651, 1000.000000000000000 ) ;
#1034 = LINE ( 'NONE', #669, #1052 ) ;
#1035 = LINE ( 'NONE', #635, #1051 ) ;
#1036 = VECTOR ( 'NONE', #624, 1000.000000000000000 ) ;
#1037 = DATE_AND_TIME ( #1002, #982 ) ;
#1038 = LINE ( 'NONE', #584, #1047 ) ;
#1039 = LINE ( 'NONE', #665, #1030 ) ;
#1040 = VECTOR ( 'NONE', #642, 1000.000000000000000 ) ;
#1041 = VECTOR ( 'NONE', #647, 1000.000000000000000 ) ;
#1042 = VECTOR ( 'NONE', #649, 1000.000000000000000 ) ;
#1043 = CIRCLE ( 'NONE', #388, 0.4499999999999990100 ) ;
#1044 = PERSON_AND_ORGANIZATION ( #827, #852 ) ;
#1045 = LINE ( 'NONE', #645, #1031 ) ;
#1046 = VECTOR ( 'NONE', #628, 1000.000000000000000 ) ;
#1047 = VECTOR ( 'NONE', #587, 1000.000000000000000 ) ;
#1048 = LINE ( 'NONE', #666, #1040 ) ;
#1049 = LINE ( 'NONE', #636, #1061 ) ;
#1050 = LINE ( 'NONE', #638, #1028 ) ;
#1051 = VECTOR ( 'NONE', #629, 1000.000000000000200 ) ;
#1052 = VECTOR ( 'NONE', #664, 1000.000000000000100 ) ;
#1053 = LINE ( 'NONE', #639, #1032 ) ;
#1054 = LINE ( 'NONE', #662, #1041 ) ;
#1055 = LINE ( 'NONE', #648, #1033 ) ;
#1056 = LINE ( 'NONE', #626, #1027 ) ;
#1057 = CIRCLE ( 'NONE', #400, 0.1999999999999996500 ) ;
#1058 = LINE ( 'NONE', #621, #1036 ) ;
#1059 = LINE ( 'NONE', #668, #1042 ) ;
#1060 = VECTOR ( 'NONE', #650, 1000.000000000000000 ) ;
#1061 = VECTOR ( 'NONE', #632, 1000.000000000000000 ) ;
#1062 = LINE ( 'NONE', #661, #1060 ) ;
#1063 = CIRCLE ( 'NONE', #380, 1.399999999999999200 ) ;
#1064 = CIRCLE ( 'NONE', #384, 1.400000000000000600 ) ;
#1065 = VECTOR ( 'NONE', #672, 1000.000000000000000 ) ;
#1066 = CIRCLE ( 'NONE', #375, 0.4499999999999981200 ) ;
#1067 = LINE ( 'NONE', #691, #1092 ) ;
#1068 = VECTOR ( 'NONE', #689, 1000.000000000000000 ) ;
#1069 = VECTOR ( 'NONE', #671, 1000.000000000000000 ) ;
#1070 = VECTOR ( 'NONE', #710, 1000.000000000000000 ) ;
#1071 = LINE ( 'NONE', #677, #1093 ) ;
#1072 = COORDINATED_UNIVERSAL_TIME_OFFSET ( 1, 0, .AHEAD. ) ;
#1073 = LINE ( 'NONE', #729, #1074 ) ;
#1074 = VECTOR ( 'NONE', #713, 1000.000000000000000 ) ;
#1075 = LINE ( 'NONE', #696, #1076 ) ;
#1076 = VECTOR ( 'NONE', #727, 1000.000000000000000 ) ;
#1077 = VECTOR ( 'NONE', #722, 1000.000000000000000 ) ;
#1078 = CIRCLE ( 'NONE', #368, 0.1999999999999996500 ) ;
#1079 = VECTOR ( 'NONE', #708, 1000.000000000000000 ) ;
#1080 = LINE ( 'NONE', #712, #1085 ) ;
#1081 = LINE ( 'NONE', #644, #1102 ) ;
#1082 = VECTOR ( 'NONE', #675, 1000.000000000000100 ) ;
#1083 = LINE ( 'NONE', #676, #1095 ) ;
#1084 = LINE ( 'NONE', #709, #1070 ) ;
#1085 = VECTOR ( 'NONE', #705, 1000.000000000000000 ) ;
#1086 = LINE ( 'NONE', #692, #1065 ) ;
#1087 = LINE ( 'NONE', #673, #1068 ) ;
#1088 = LINE ( 'NONE', #693, #1079 ) ;
#1089 = VECTOR ( 'NONE', #643, 1000.000000000000000 ) ;
#1090 = LINE ( 'NONE', #685, #1082 ) ;
#1091 = VECTOR ( 'NONE', #684, 1000.000000000000000 ) ;
#1092 = VECTOR ( 'NONE', #679, 1000.000000000000000 ) ;
#1093 = VECTOR ( 'NONE', #674, 1000.000000000000000 ) ;
#1094 = CIRCLE ( 'NONE', #381, 0.1999999999999996500 ) ;
#1095 = VECTOR ( 'NONE', #678, 1000.000000000000000 ) ;
#1096 = APPROVAL_PERSON_ORGANIZATION ( #1044, #362, #810 ) ;
#1097 = LINE ( 'NONE', #654, #1098 ) ;
#1098 = VECTOR ( 'NONE', #686, 1000.000000000000000 ) ;
#1099 = LINE ( 'NONE', #699, #1077 ) ;
#1100 = LINE ( 'NONE', #725, #1101 ) ;
#1101 = VECTOR ( 'NONE', #694, 1000.000000000000100 ) ;
#1102 = VECTOR ( 'NONE', #687, 1000.000000000000000 ) ;
#1103 = LINE ( 'NONE', #641, #1069 ) ;
#1104 = LINE ( 'NONE', #680, #1091 ) ;
#1105 = CIRCLE ( 'NONE', #371, 0.3999999999999993000 ) ;
#1106 = CIRCLE ( 'NONE', #402, 1.400000000000000600 ) ;
#1107 = LINE ( 'NONE', #659, #1089 ) ;
#1108 = LOCAL_TIME ( 18, 45, 33.00000000000000000, #1072 ) ;
#1109 = CIRCLE ( 'NONE', #389, 1.400000000000000600 ) ;
#1110 = LINE ( 'NONE', #764, #1111 ) ;
#1111 = VECTOR ( 'NONE', #733, 1000.000000000000100 ) ;
#1112 = LINE ( 'NONE', #742, #1113 ) ;
#1113 = VECTOR ( 'NONE', #767, 1000.000000000000000 ) ;
#1114 = CALENDAR_DATE ( 2017, 10, 3 ) ;
#1115 = CIRCLE ( 'NONE', #360, 1.400000000000000600 ) ;
#1116 = LINE ( 'NONE', #723, #1120 ) ;
#1117 = VECTOR ( 'NONE', #732, 1000.000000000000000 ) ;
#1118 = VECTOR ( 'NONE', #728, 1000.000000000000100 ) ;
#1119 = CIRCLE ( 'NONE', #390, 0.3999999999999993000 ) ;
#1120 = VECTOR ( 'NONE', #726, 1000.000000000000000 ) ;
#1121 = CIRCLE ( 'NONE', #393, 0.3999999999999993000 ) ;
#1122 = VECTOR ( 'NONE', #703, 1000.000000000000100 ) ;
#1123 = LINE ( 'NONE', #738, #1129 ) ;
#1124 = LINE ( 'NONE', #753, #1117 ) ;
#1125 = CIRCLE ( 'NONE', #356, 0.4499999999999990100 ) ;
#1126 = LINE ( 'NONE', #714, #1118 ) ;
#1127 = CIRCLE ( 'NONE', #374, 0.4499999999999990100 ) ;
#1128 = LINE ( 'NONE', #700, #1130 ) ;
#1129 = VECTOR ( 'NONE', #739, 1000.000000000000000 ) ;
#1130 = VECTOR ( 'NONE', #724, 1000.000000000000000 ) ;
#1131 = CIRCLE ( 'NONE', #401, 0.4499999999999981200 ) ;
#1132 = CIRCLE ( 'NONE', #372, 0.4499999999999990100 ) ;
#1133 = LINE ( 'NONE', #755, #1134 ) ;
#1134 = VECTOR ( 'NONE', #766, 1000.000000000000100 ) ;
#1135 = CIRCLE ( 'NONE', #392, 0.1999999999999996500 ) ;
#1136 = LINE ( 'NONE', #716, #1122 ) ;
#1137 = VECTOR ( 'NONE', #749, 1000.000000000000000 ) ;
#1138 = DATE_AND_TIME ( #1114, #1108 ) ;
#1139 = LINE ( 'NONE', #794, #1154 ) ;
#1140 = LINE ( 'NONE', #756, #1148 ) ;
#1141 = LINE ( 'NONE', #752, #1149 ) ;
#1142 = APPROVAL_DATE_TIME ( #1138, #362 ) ;
#1143 = VECTOR ( 'NONE', #787, 1000.000000000000000 ) ;
#1144 = VECTOR ( 'NONE', #775, 1000.000000000000000 ) ;
#1145 = LINE ( 'NONE', #805, #1146 ) ;
#1146 = VECTOR ( 'NONE', #803, 1000.000000000000000 ) ;
#1147 = VECTOR ( 'NONE', #747, 1000.000000000000000 ) ;
#1148 = VECTOR ( 'NONE', #793, 1000.000000000000000 ) ;
#1149 = VECTOR ( 'NONE', #778, 1000.000000000000000 ) ;
#1150 = LINE ( 'NONE', #773, #1152 ) ;
#1151 = LINE ( 'NONE', #780, #1143 ) ;
#1152 = VECTOR ( 'NONE', #798, 1000.000000000000000 ) ;
#1153 = LINE ( 'NONE', #788, #1144 ) ;
#1154 = VECTOR ( 'NONE', #795, 1000.000000000000000 ) ;
#1155 = LINE ( 'NONE', #741, #1147 ) ;
#1156 = LINE ( 'NONE', #743, #1137 ) ;
#1157 = VECTOR ( 'NONE', #783, 1000.000000000000000 ) ;
#1158 = LINE ( 'NONE', #777, #1157 ) ;
ENDSEC;
END-ISO-10303-21;
