ISO-10303-21;
HEADER;
FILE_DESCRIPTION (( 'STEP AP203' ),
    '1' );
FILE_NAME ('ALP4214.STEP',
    '2017-03-10T16:38:52',
    ( '' ),
    ( '' ),
    'SwSTEP 2.0',
    'SolidWorks 2012',
    '' );
FILE_SCHEMA (( 'CONFIG_CONTROL_DESIGN' ));
ENDSEC;

DATA;
#1 = ADVANCED_FACE ( 'NONE', ( #93 ), #594, .F. ) ;
#2 = ADVANCED_FACE ( 'NONE', ( #60 ), #595, .F. ) ;
#3 = ADVANCED_FACE ( 'NONE', ( #75 ), #589, .F. ) ;
#4 = ADVANCED_FACE ( 'NONE', ( #64 ), #571, .F. ) ;
#5 = ADVANCED_FACE ( 'NONE', ( #98 ), #77, .T. ) ;
#6 = ADVANCED_FACE ( 'NONE', ( #78 ), #590, .F. ) ;
#7 = ADVANCED_FACE ( 'NONE', ( #81 ), #578, .F. ) ;
#8 = ADVANCED_FACE ( 'NONE', ( #94 ), #99, .T. ) ;
#9 = ADVANCED_FACE ( 'NONE', ( #76 ), #65, .T. ) ;
#10 = ADVANCED_FACE ( 'NONE', ( #61 ), #630, .F. ) ;
#11 = ADVANCED_FACE ( 'NONE', ( #83 ), #651, .F. ) ;
#12 = ADVANCED_FACE ( 'NONE', ( #84 ), #644, .F. ) ;
#13 = ADVANCED_FACE ( 'NONE', ( #79 ), #650, .F. ) ;
#14 = ADVANCED_FACE ( 'NONE', ( #85 ), #632, .F. ) ;
#15 = ADVANCED_FACE ( 'NONE', ( #86 ), #634, .F. ) ;
#16 = ADVANCED_FACE ( 'NONE', ( #89 ), #133, .T. ) ;
#17 = ADVANCED_FACE ( 'NONE', ( #91 ), #637, .F. ) ;
#18 = ADVANCED_FACE ( 'NONE', ( #92 ), #614, .F. ) ;
#19 = ADVANCED_FACE ( 'NONE', ( #90 ), #612, .F. ) ;
#20 = ADVANCED_FACE ( 'NONE', ( #115 ), #645, .F. ) ;
#21 = ADVANCED_FACE ( 'NONE', ( #132 ), #619, .F. ) ;
#22 = ADVANCED_FACE ( 'NONE', ( #117 ), #629, .F. ) ;
#23 = ADVANCED_FACE ( 'NONE', ( #107 ), #689, .F. ) ;
#24 = ADVANCED_FACE ( 'NONE', ( #116 ), #135, .T. ) ;
#25 = ADVANCED_FACE ( 'NONE', ( #114 ), #685, .F. ) ;
#26 = ADVANCED_FACE ( 'NONE', ( #146 ), #664, .F. ) ;
#27 = ADVANCED_FACE ( 'NONE', ( #139 ), #686, .F. ) ;
#28 = ADVANCED_FACE ( 'NONE', ( #142 ), #679, .F. ) ;
#29 = ADVANCED_FACE ( 'NONE', ( #124 ), #112, .T. ) ;
#30 = ADVANCED_FACE ( 'NONE', ( #131 ), #700, .F. ) ;
#31 = ADVANCED_FACE ( 'NONE', ( #152 ), #654, .T. ) ;
#32 = ADVANCED_FACE ( 'NONE', ( #143 ), #695, .F. ) ;
#33 = ADVANCED_FACE ( 'NONE', ( #150 ), #656, .F. ) ;
#34 = ADVANCED_FACE ( 'NONE', ( #134 ), #671, .F. ) ;
#35 = ADVANCED_FACE ( 'NONE', ( #136 ), #109, .T. ) ;
#36 = ADVANCED_BREP_SHAPE_REPRESENTATION ( 'ALP4214', ( #38, #465 ), #443 ) ;
#37 = UNCERTAINTY_MEASURE_WITH_UNIT (LENGTH_MEASURE( 1.000000000000000100E-005 ), #560, 'distance_accuracy_value', 'NONE');
#38 = MANIFOLD_SOLID_BREP ( 'Boss-Extrude1', #1068 ) ;
#39 = DESIGN_CONTEXT ( 'detailed design', #565, 'design' ) ;
#40 = PRODUCT_DEFINITION_SHAPE ( 'NONE', 'NONE',  #452 ) ;
#41 = VECTOR ( 'NONE', #923, 1000.000000000000000 ) ;
#42 = VECTOR ( 'NONE', #498, 1000.000000000000000 ) ;
#43 = VECTOR ( 'NONE', #901, 1000.000000000000000 ) ;
#44 = VECTOR ( 'NONE', #920, 1000.000000000000000 ) ;
#45 = LINE ( 'NONE', #497, #42 ) ;
#46 = VECTOR ( 'NONE', #905, 1000.000000000000000 ) ;
#47 = LINE ( 'NONE', #902, #46 ) ;
#48 = LINE ( 'NONE', #898, #55 ) ;
#49 = ORGANIZATION ( 'UNSPECIFIED', 'UNSPECIFIED', '' ) ;
#50 = VECTOR ( 'NONE', #502, 1000.000000000000000 ) ;
#51 = VECTOR ( 'NONE', #495, 1000.000000000000100 ) ;
#52 = PERSON_AND_ORGANIZATION ( #490, #49 ) ;
#53 = LINE ( 'NONE', #922, #41 ) ;
#54 = LINE ( 'NONE', #894, #43 ) ;
#55 = VECTOR ( 'NONE', #501, 1000.000000000000100 ) ;
#56 = LINE ( 'NONE', #493, #51 ) ;
#57 = LINE ( 'NONE', #921, #50 ) ;
#58 = CIRCLE ( 'NONE', #448, 0.8000000000000008200 ) ;
#59 = VERTEX_POINT ( 'NONE', #708 ) ;
#60 = FACE_OUTER_BOUND ( 'NONE', #961, .T. ) ;
#61 = FACE_OUTER_BOUND ( 'NONE', #949, .T. ) ;
#62 = VERTEX_POINT ( 'NONE', #730 ) ;
#63 = VERTEX_POINT ( 'NONE', #720 ) ;
#64 = FACE_OUTER_BOUND ( 'NONE', #955, .T. ) ;
#65 = CYLINDRICAL_SURFACE ( 'NONE', #398, 0.5000000000000013300 ) ;
#66 = VERTEX_POINT ( 'NONE', #723 ) ;
#67 = VERTEX_POINT ( 'NONE', #673 ) ;
#68 = VERTEX_POINT ( 'NONE', #735 ) ;
#69 = VERTEX_POINT ( 'NONE', #718 ) ;
#70 = VERTEX_POINT ( 'NONE', #729 ) ;
#71 = VERTEX_POINT ( 'NONE', #707 ) ;
#72 = VERTEX_POINT ( 'NONE', #737 ) ;
#73 = VERTEX_POINT ( 'NONE', #745 ) ;
#74 = VERTEX_POINT ( 'NONE', #719 ) ;
#75 = FACE_OUTER_BOUND ( 'NONE', #984, .T. ) ;
#76 = FACE_OUTER_BOUND ( 'NONE', #962, .T. ) ;
#77 = CYLINDRICAL_SURFACE ( 'NONE', #414, 0.8000000000000008200 ) ;
#78 = FACE_OUTER_BOUND ( 'NONE', #971, .T. ) ;
#79 = FACE_OUTER_BOUND ( 'NONE', #957, .T. ) ;
#80 = VERTEX_POINT ( 'NONE', #703 ) ;
#81 = FACE_OUTER_BOUND ( 'NONE', #945, .T. ) ;
#82 = VERTEX_POINT ( 'NONE', #704 ) ;
#83 = FACE_OUTER_BOUND ( 'NONE', #1002, .T. ) ;
#84 = FACE_OUTER_BOUND ( 'NONE', #938, .T. ) ;
#85 = FACE_OUTER_BOUND ( 'NONE', #979, .T. ) ;
#86 = FACE_OUTER_BOUND ( 'NONE', #948, .T. ) ;
#87 = VERTEX_POINT ( 'NONE', #731 ) ;
#88 = VERTEX_POINT ( 'NONE', #746 ) ;
#89 = FACE_OUTER_BOUND ( 'NONE', #980, .T. ) ;
#90 = FACE_OUTER_BOUND ( 'NONE', #964, .T. ) ;
#91 = FACE_OUTER_BOUND ( 'NONE', #946, .T. ) ;
#92 = FACE_OUTER_BOUND ( 'NONE', #1009, .T. ) ;
#93 = FACE_OUTER_BOUND ( 'NONE', #953, .T. ) ;
#94 = FACE_OUTER_BOUND ( 'NONE', #942, .T. ) ;
#95 = VERTEX_POINT ( 'NONE', #740 ) ;
#96 = VERTEX_POINT ( 'NONE', #738 ) ;
#97 = VERTEX_POINT ( 'NONE', #728 ) ;
#98 = FACE_OUTER_BOUND ( 'NONE', #944, .T. ) ;
#99 = CYLINDRICAL_SURFACE ( 'NONE', #415, 0.8000000000000008200 ) ;
#100 = VECTOR ( 'NONE', #712, 1000.000000000000100 ) ;
#101 = LINE ( 'NONE', #732, #141 ) ;
#102 = LINE ( 'NONE', #711, #144 ) ;
#103 = VECTOR ( 'NONE', #714, 1000.000000000000000 ) ;
#104 = VECTOR ( 'NONE', #742, 1000.000000000000100 ) ;
#105 = CIRCLE ( 'NONE', #424, 0.8000000000000024900 ) ;
#106 = VECTOR ( 'NONE', #748, 1000.000000000000000 ) ;
#107 = FACE_OUTER_BOUND ( 'NONE', #954, .T. ) ;
#108 = LINE ( 'NONE', #716, #149 ) ;
#109 = CYLINDRICAL_SURFACE ( 'NONE', #423, 0.4999999999999987200 ) ;
#110 = VECTOR ( 'NONE', #744, 1000.000000000000000 ) ;
#111 = PERSON_AND_ORGANIZATION ( #490, #49 ) ;
#112 = CYLINDRICAL_SURFACE ( 'NONE', #425, 0.5000000000000013300 ) ;
#113 = LINE ( 'NONE', #747, #103 ) ;
#114 = FACE_OUTER_BOUND ( 'NONE', #963, .T. ) ;
#115 = FACE_OUTER_BOUND ( 'NONE', #956, .T. ) ;
#116 = FACE_OUTER_BOUND ( 'NONE', #1020, .T. ) ;
#117 = FACE_OUTER_BOUND ( 'NONE', #987, .T. ) ;
#118 = LINE ( 'NONE', #702, #119 ) ;
#119 = VECTOR ( 'NONE', #772, 1000.000000000000000 ) ;
#120 = LINE ( 'NONE', #721, #122 ) ;
#121 = APPROVAL_PERSON_ORGANIZATION ( #111, #461, #566 ) ;
#122 = VECTOR ( 'NONE', #777, 999.9999999999998900 ) ;
#123 = CIRCLE ( 'NONE', #430, 0.8000000000000024900 ) ;
#124 = FACE_OUTER_BOUND ( 'NONE', #943, .T. ) ;
#125 = LINE ( 'NONE', #774, #128 ) ;
#126 = VECTOR ( 'NONE', #741, 1000.000000000000100 ) ;
#127 = LINE ( 'NONE', #726, #137 ) ;
#128 = VECTOR ( 'NONE', #751, 1000.000000000000100 ) ;
#129 = LINE ( 'NONE', #739, #104 ) ;
#130 = LINE ( 'NONE', #783, #169 ) ;
#131 = FACE_OUTER_BOUND ( 'NONE', #947, .T. ) ;
#132 = FACE_OUTER_BOUND ( 'NONE', #978, .T. ) ;
#133 = CYLINDRICAL_SURFACE ( 'NONE', #409, 0.4999999999999978400 ) ;
#134 = FACE_OUTER_BOUND ( 'NONE', #1012, .T. ) ;
#135 = CYLINDRICAL_SURFACE ( 'NONE', #435, 0.8000000000000024900 ) ;
#136 = FACE_OUTER_BOUND ( 'NONE', #959, .T. ) ;
#137 = VECTOR ( 'NONE', #717, 1000.000000000000000 ) ;
#138 = LINE ( 'NONE', #709, #126 ) ;
#139 = FACE_OUTER_BOUND ( 'NONE', #986, .T. ) ;
#140 = LINE ( 'NONE', #705, #110 ) ;
#141 = VECTOR ( 'NONE', #722, 999.9999999999998900 ) ;
#142 = FACE_OUTER_BOUND ( 'NONE', #950, .T. ) ;
#143 = FACE_OUTER_BOUND ( 'NONE', #997, .T. ) ;
#144 = VECTOR ( 'NONE', #736, 1000.000000000000000 ) ;
#145 = LINE ( 'NONE', #743, #100 ) ;
#146 = FACE_OUTER_BOUND ( 'NONE', #1008, .T. ) ;
#147 = LINE ( 'NONE', #725, #106 ) ;
#148 = VECTOR ( 'NONE', #724, 1000.000000000000000 ) ;
#149 = VECTOR ( 'NONE', #734, 1000.000000000000000 ) ;
#150 = FACE_OUTER_BOUND ( 'NONE', #958, .T. ) ;
#151 = LINE ( 'NONE', #710, #148 ) ;
#152 = FACE_OUTER_BOUND ( 'NONE', #1015, .T. ) ;
#153 = VECTOR ( 'NONE', #752, 1000.000000000000000 ) ;
#154 = LINE ( 'NONE', #779, #170 ) ;
#155 = VECTOR ( 'NONE', #781, 1000.000000000000000 ) ;
#156 = VECTOR ( 'NONE', #754, 1000.000000000000000 ) ;
#157 = LINE ( 'NONE', #784, #163 ) ;
#158 = COORDINATED_UNIVERSAL_TIME_OFFSET ( 1, 0, .AHEAD. ) ;
#159 = LOCAL_TIME ( 17, 38, 52.00000000000000000, #158 ) ;
#160 = LINE ( 'NONE', #756, #165 ) ;
#161 = LINE ( 'NONE', #778, #156 ) ;
#162 = LINE ( 'NONE', #769, #200 ) ;
#163 = VECTOR ( 'NONE', #768, 1000.000000000000000 ) ;
#164 = LINE ( 'NONE', #780, #153 ) ;
#165 = VECTOR ( 'NONE', #788, 1000.000000000000100 ) ;
#166 = LINE ( 'NONE', #765, #171 ) ;
#167 = LINE ( 'NONE', #761, #168 ) ;
#168 = VECTOR ( 'NONE', #762, 1000.000000000000000 ) ;
#169 = VECTOR ( 'NONE', #763, 999.9999999999998900 ) ;
#170 = VECTOR ( 'NONE', #766, 1000.000000000000000 ) ;
#171 = VECTOR ( 'NONE', #759, 999.9999999999998900 ) ;
#172 = LINE ( 'NONE', #758, #173 ) ;
#173 = VECTOR ( 'NONE', #775, 1000.000000000000000 ) ;
#174 = LINE ( 'NONE', #753, #155 ) ;
#175 = LINE ( 'NONE', #757, #194 ) ;
#176 = CIRCLE ( 'NONE', #428, 0.4999999999999978400 ) ;
#177 = CALENDAR_DATE ( 2017, 10, 3 ) ;
#178 = VECTOR ( 'NONE', #790, 1000.000000000000000 ) ;
#179 = LINE ( 'NONE', #764, #203 ) ;
#180 = VECTOR ( 'NONE', #807, 1000.000000000000200 ) ;
#181 = LINE ( 'NONE', #811, #183 ) ;
#182 = VECTOR ( 'NONE', #810, 1000.000000000000000 ) ;
#183 = VECTOR ( 'NONE', #795, 1000.000000000000000 ) ;
#184 = LINE ( 'NONE', #804, #180 ) ;
#185 = VECTOR ( 'NONE', #816, 1000.000000000000000 ) ;
#186 = LINE ( 'NONE', #812, #188 ) ;
#187 = VECTOR ( 'NONE', #809, 1000.000000000000000 ) ;
#188 = VECTOR ( 'NONE', #824, 1000.000000000000200 ) ;
#189 = VECTOR ( 'NONE', #805, 1000.000000000000100 ) ;
#190 = LINE ( 'NONE', #799, #197 ) ;
#191 = VECTOR ( 'NONE', #817, 1000.000000000000000 ) ;
#192 = DATE_AND_TIME ( #177, #159 ) ;
#193 = LINE ( 'NONE', #826, #178 ) ;
#194 = VECTOR ( 'NONE', #821, 1000.000000000000000 ) ;
#195 = VECTOR ( 'NONE', #806, 1000.000000000000000 ) ;
#196 = LINE ( 'NONE', #803, #182 ) ;
#197 = VECTOR ( 'NONE', #801, 1000.000000000000000 ) ;
#198 = LINE ( 'NONE', #786, #185 ) ;
#199 = LINE ( 'NONE', #814, #187 ) ;
#200 = VECTOR ( 'NONE', #773, 1000.000000000000000 ) ;
#201 = VECTOR ( 'NONE', #755, 1000.000000000000100 ) ;
#202 = LINE ( 'NONE', #771, #189 ) ;
#203 = VECTOR ( 'NONE', #770, 1000.000000000000000 ) ;
#204 = LINE ( 'NONE', #750, #201 ) ;
#205 = LINE ( 'NONE', #815, #195 ) ;
#206 = LINE ( 'NONE', #808, #191 ) ;
#207 = CIRCLE ( 'NONE', #437, 0.5000000000000013300 ) ;
#208 = CIRCLE ( 'NONE', #439, 0.4999999999999987200 ) ;
#209 = PERSON_AND_ORGANIZATION ( #490, #49 ) ;
#210 = VECTOR ( 'NONE', #822, 1000.000000000000000 ) ;
#211 = LINE ( 'NONE', #820, #223 ) ;
#212 = LINE ( 'NONE', #823, #224 ) ;
#213 = APPROVAL_DATE_TIME ( #192, #461 ) ;
#214 = LINE ( 'NONE', #838, #229 ) ;
#215 = VECTOR ( 'NONE', #834, 1000.000000000000000 ) ;
#216 = LINE ( 'NONE', #846, #219 ) ;
#217 = VECTOR ( 'NONE', #832, 1000.000000000000000 ) ;
#218 = LINE ( 'NONE', #802, #210 ) ;
#219 = VECTOR ( 'NONE', #856, 1000.000000000000000 ) ;
#220 = LINE ( 'NONE', #850, #221 ) ;
#221 = VECTOR ( 'NONE', #828, 1000.000000000000000 ) ;
#222 = LINE ( 'NONE', #843, #245 ) ;
#223 = VECTOR ( 'NONE', #827, 1000.000000000000100 ) ;
#224 = VECTOR ( 'NONE', #855, 1000.000000000000000 ) ;
#225 = LINE ( 'NONE', #792, #217 ) ;
#226 = CIRCLE ( 'NONE', #440, 0.4999999999999987200 ) ;
#227 = LINE ( 'NONE', #791, #233 ) ;
#228 = LINE ( 'NONE', #860, #235 ) ;
#229 = VECTOR ( 'NONE', #841, 1000.000000000000000 ) ;
#230 = LINE ( 'NONE', #793, #234 ) ;
#231 = CIRCLE ( 'NONE', #431, 0.5000000000000013300 ) ;
#232 = LINE ( 'NONE', #842, #215 ) ;
#233 = VECTOR ( 'NONE', #818, 1000.000000000000000 ) ;
#234 = VECTOR ( 'NONE', #859, 1000.000000000000000 ) ;
#235 = VECTOR ( 'NONE', #830, 1000.000000000000000 ) ;
#236 = LINE ( 'NONE', #849, #237 ) ;
#237 = VECTOR ( 'NONE', #853, 1000.000000000000000 ) ;
#238 = CIRCLE ( 'NONE', #432, 0.4999999999999978400 ) ;
#239 = LINE ( 'NONE', #829, #250 ) ;
#240 = LINE ( 'NONE', #858, #261 ) ;
#241 = VECTOR ( 'NONE', #889, 1000.000000000000100 ) ;
#242 = LINE ( 'NONE', #879, #253 ) ;
#243 = LINE ( 'NONE', #876, #244 ) ;
#244 = VECTOR ( 'NONE', #869, 1000.000000000000000 ) ;
#245 = VECTOR ( 'NONE', #844, 1000.000000000000000 ) ;
#246 = LINE ( 'NONE', #861, #268 ) ;
#247 = LINE ( 'NONE', #881, #254 ) ;
#248 = VECTOR ( 'NONE', #888, 1000.000000000000100 ) ;
#249 = LINE ( 'NONE', #882, #251 ) ;
#250 = VECTOR ( 'NONE', #875, 1000.000000000000000 ) ;
#251 = VECTOR ( 'NONE', #877, 1000.000000000000000 ) ;
#252 = COORDINATED_UNIVERSAL_TIME_OFFSET ( 1, 0, .AHEAD. ) ;
#253 = VECTOR ( 'NONE', #872, 1000.000000000000000 ) ;
#254 = VECTOR ( 'NONE', #890, 1000.000000000000000 ) ;
#255 = LINE ( 'NONE', #892, #278 ) ;
#256 = LINE ( 'NONE', #891, #257 ) ;
#257 = VECTOR ( 'NONE', #878, 1000.000000000000000 ) ;
#258 = LINE ( 'NONE', #880, #241 ) ;
#259 = LOCAL_TIME ( 17, 38, 52.00000000000000000, #252 ) ;
#260 = VECTOR ( 'NONE', #847, 1000.000000000000000 ) ;
#261 = VECTOR ( 'NONE', #873, 1000.000000000000100 ) ;
#262 = LINE ( 'NONE', #854, #260 ) ;
#263 = LINE ( 'NONE', #851, #267 ) ;
#264 = CIRCLE ( 'NONE', #442, 0.8000000000000008200 ) ;
#265 = CIRCLE ( 'NONE', #444, 0.5000000000000013300 ) ;
#266 = LINE ( 'NONE', #887, #248 ) ;
#267 = VECTOR ( 'NONE', #857, 1000.000000000000000 ) ;
#268 = VECTOR ( 'NONE', #839, 1000.000000000000000 ) ;
#269 = LINE ( 'NONE', #900, #291 ) ;
#270 = VECTOR ( 'NONE', #925, 1000.000000000000000 ) ;
#271 = LINE ( 'NONE', #867, #280 ) ;
#272 = CALENDAR_DATE ( 2017, 10, 3 ) ;
#273 = VECTOR ( 'NONE', #906, 1000.000000000000100 ) ;
#274 = LINE ( 'NONE', #918, #44 ) ;
#275 = VECTOR ( 'NONE', #896, 1000.000000000000000 ) ;
#276 = CIRCLE ( 'NONE', #445, 0.8000000000000008200 ) ;
#277 = LINE ( 'NONE', #917, #285 ) ;
#278 = VECTOR ( 'NONE', #893, 1000.000000000000100 ) ;
#279 = LINE ( 'NONE', #864, #282 ) ;
#280 = VECTOR ( 'NONE', #874, 1000.000000000000000 ) ;
#281 = LINE ( 'NONE', #897, #296 ) ;
#282 = VECTOR ( 'NONE', #883, 1000.000000000000100 ) ;
#283 = LINE ( 'NONE', #924, #284 ) ;
#284 = VECTOR ( 'NONE', #910, 1000.000000000000000 ) ;
#285 = VECTOR ( 'NONE', #912, 1000.000000000000000 ) ;
#286 = DATE_AND_TIME ( #272, #259 ) ;
#287 = VECTOR ( 'NONE', #865, 1000.000000000000000 ) ;
#288 = LINE ( 'NONE', #863, #287 ) ;
#289 = LINE ( 'NONE', #870, #273 ) ;
#290 = LINE ( 'NONE', #909, #292 ) ;
#291 = VECTOR ( 'NONE', #899, 1000.000000000000000 ) ;
#292 = VECTOR ( 'NONE', #915, 1000.000000000000000 ) ;
#293 = LINE ( 'NONE', #866, #275 ) ;
#294 = LINE ( 'NONE', #914, #270 ) ;
#295 = CIRCLE ( 'NONE', #446, 0.5000000000000013300 ) ;
#296 = VECTOR ( 'NONE', #926, 1000.000000000000000 ) ;
#297 = LINE ( 'NONE', #916, #298 ) ;
#298 = VECTOR ( 'NONE', #895, 1000.000000000000000 ) ;
#299 = CIRCLE ( 'NONE', #447, 0.8000000000000008200 ) ;
#300 = EDGE_CURVE ( 'NONE', #977, #990, #127, .T. ) ;
#301 = EDGE_CURVE ( 'NONE', #967, #1021, #102, .T. ) ;
#302 = EDGE_CURVE ( 'NONE', #982, #967, #138, .T. ) ;
#303 = EDGE_CURVE ( 'NONE', #988, #989, #140, .T. ) ;
#304 = EDGE_CURVE ( 'NONE', #1016, #1019, #101, .T. ) ;
#305 = EDGE_CURVE ( 'NONE', #967, #988, #151, .T. ) ;
#306 = EDGE_CURVE ( 'NONE', #1021, #989, #113, .T. ) ;
#307 = EDGE_CURVE ( 'NONE', #1010, #995, #145, .T. ) ;
#308 = EDGE_CURVE ( 'NONE', #1019, #1018, #129, .T. ) ;
#309 = EDGE_CURVE ( 'NONE', #1013, #982, #108, .T. ) ;
#310 = EDGE_CURVE ( 'NONE', #977, #1016, #105, .T. ) ;
#311 = EDGE_CURVE ( 'NONE', #982, #972, #147, .T. ) ;
#312 = EDGE_CURVE ( 'NONE', #1018, #995, #118, .T. ) ;
#313 = EDGE_CURVE ( 'NONE', #1017, #1010, #120, .T. ) ;
#314 = EDGE_CURVE ( 'NONE', #990, #1017, #123, .T. ) ;
#315 = EDGE_CURVE ( 'NONE', #972, #1021, #125, .T. ) ;
#316 = EDGE_CURVE ( 'NONE', #989, #990, #130, .T. ) ;
#317 = EDGE_CURVE ( 'NONE', #1019, #1010, #167, .T. ) ;
#318 = EDGE_CURVE ( 'NONE', #988, #977, #166, .T. ) ;
#319 = EDGE_CURVE ( 'NONE', #1016, #1017, #154, .T. ) ;
#320 = EDGE_CURVE ( 'NONE', #1003, #71, #172, .T. ) ;
#321 = EDGE_CURVE ( 'NONE', #69, #998, #160, .T. ) ;
#322 = EDGE_CURVE ( 'NONE', #66, #68, #161, .T. ) ;
#323 = EDGE_CURVE ( 'NONE', #973, #1005, #164, .T. ) ;
#324 = EDGE_CURVE ( 'NONE', #1018, #991, #157, .T. ) ;
#325 = EDGE_CURVE ( 'NONE', #82, #96, #174, .T. ) ;
#326 = EDGE_CURVE ( 'NONE', #80, #59, #162, .T. ) ;
#327 = EDGE_CURVE ( 'NONE', #73, #966, #179, .T. ) ;
#328 = EDGE_CURVE ( 'NONE', #999, #82, #207, .T. ) ;
#329 = EDGE_CURVE ( 'NONE', #88, #80, #204, .T. ) ;
#330 = EDGE_CURVE ( 'NONE', #1003, #73, #175, .T. ) ;
#331 = EDGE_CURVE ( 'NONE', #991, #973, #190, .T. ) ;
#332 = EDGE_CURVE ( 'NONE', #80, #62, #205, .T. ) ;
#333 = EDGE_CURVE ( 'NONE', #72, #62, #202, .T. ) ;
#334 = EDGE_CURVE ( 'NONE', #1014, #1004, #198, .T. ) ;
#335 = EDGE_CURVE ( 'NONE', #67, #72, #184, .T. ) ;
#336 = EDGE_CURVE ( 'NONE', #68, #95, #206, .T. ) ;
#337 = EDGE_CURVE ( 'NONE', #998, #66, #176, .T. ) ;
#338 = EDGE_CURVE ( 'NONE', #995, #973, #199, .T. ) ;
#339 = EDGE_CURVE ( 'NONE', #62, #70, #181, .T. ) ;
#340 = EDGE_CURVE ( 'NONE', #999, #1005, #193, .T. ) ;
#341 = EDGE_CURVE ( 'NONE', #96, #73, #196, .T. ) ;
#342 = EDGE_CURVE ( 'NONE', #87, #88, #186, .T. ) ;
#343 = EDGE_CURVE ( 'NONE', #95, #67, #226, .T. ) ;
#344 = EDGE_CURVE ( 'NONE', #68, #87, #208, .T. ) ;
#345 = EDGE_CURVE ( 'NONE', #991, #999, #227, .T. ) ;
#346 = EDGE_CURVE ( 'NONE', #63, #74, #211, .T. ) ;
#347 = EDGE_CURVE ( 'NONE', #71, #69, #218, .T. ) ;
#348 = EDGE_CURVE ( 'NONE', #88, #72, #230, .T. ) ;
#349 = EDGE_CURVE ( 'NONE', #966, #63, #228, .T. ) ;
#350 = EDGE_CURVE ( 'NONE', #998, #74, #212, .T. ) ;
#351 = EDGE_CURVE ( 'NONE', #70, #981, #225, .T. ) ;
#352 = EDGE_CURVE ( 'NONE', #97, #95, #214, .T. ) ;
#353 = EDGE_CURVE ( 'NONE', #59, #70, #236, .T. ) ;
#354 = EDGE_CURVE ( 'NONE', #1005, #96, #231, .T. ) ;
#355 = EDGE_CURVE ( 'NONE', #74, #97, #238, .T. ) ;
#356 = EDGE_CURVE ( 'NONE', #69, #63, #232, .T. ) ;
#357 = EDGE_CURVE ( 'NONE', #82, #1003, #216, .T. ) ;
#358 = EDGE_CURVE ( 'NONE', #87, #67, #220, .T. ) ;
#359 = EDGE_CURVE ( 'NONE', #66, #97, #222, .T. ) ;
#360 = EDGE_CURVE ( 'NONE', #59, #1023, #263, .T. ) ;
#361 = EDGE_CURVE ( 'NONE', #71, #966, #262, .T. ) ;
#362 = EDGE_CURVE ( 'NONE', #976, #974, #264, .T. ) ;
#363 = EDGE_CURVE ( 'NONE', #1023, #1001, #265, .T. ) ;
#364 = EDGE_CURVE ( 'NONE', #1013, #1011, #246, .T. ) ;
#365 = EDGE_CURVE ( 'NONE', #1000, #996, #239, .T. ) ;
#366 = EDGE_CURVE ( 'NONE', #1054, #970, #240, .T. ) ;
#367 = EDGE_CURVE ( 'NONE', #968, #970, #242, .T. ) ;
#368 = EDGE_CURVE ( 'NONE', #985, #965, #266, .T. ) ;
#369 = EDGE_CURVE ( 'NONE', #974, #969, #243, .T. ) ;
#370 = EDGE_CURVE ( 'NONE', #1001, #1000, #249, .T. ) ;
#371 = EDGE_CURVE ( 'NONE', #976, #1024, #247, .T. ) ;
#372 = EDGE_CURVE ( 'NONE', #985, #975, #256, .T. ) ;
#373 = EDGE_CURVE ( 'NONE', #992, #968, #258, .T. ) ;
#374 = EDGE_CURVE ( 'NONE', #1014, #985, #255, .T. ) ;
#375 = EDGE_CURVE ( 'NONE', #1024, #969, #276, .T. ) ;
#376 = EDGE_CURVE ( 'NONE', #1007, #1014, #279, .T. ) ;
#377 = EDGE_CURVE ( 'NONE', #965, #1013, #288, .T. ) ;
#378 = EDGE_CURVE ( 'NONE', #993, #996, #271, .T. ) ;
#379 = EDGE_CURVE ( 'NONE', #983, #1011, #293, .T. ) ;
#380 = EDGE_CURVE ( 'NONE', #1004, #975, #289, .T. ) ;
#381 = EDGE_CURVE ( 'NONE', #970, #1006, #283, .T. ) ;
#382 = EDGE_CURVE ( 'NONE', #969, #994, #277, .T. ) ;
#383 = EDGE_CURVE ( 'NONE', #965, #983, #269, .T. ) ;
#384 = EDGE_CURVE ( 'NONE', #992, #1054, #290, .T. ) ;
#385 = EDGE_CURVE ( 'NONE', #981, #993, #295, .T. ) ;
#386 = EDGE_CURVE ( 'NONE', #1023, #981, #281, .T. ) ;
#387 = EDGE_CURVE ( 'NONE', #996, #1054, #297, .T. ) ;
#388 = EDGE_CURVE ( 'NONE', #1022, #976, #299, .T. ) ;
#389 = EDGE_CURVE ( 'NONE', #974, #1007, #294, .T. ) ;
#390 = EDGE_CURVE ( 'NONE', #1011, #972, #274, .T. ) ;
#391 = EDGE_CURVE ( 'NONE', #1022, #1006, #53, .T. ) ;
#392 = EDGE_CURVE ( 'NONE', #1001, #993, #54, .T. ) ;
#393 = EDGE_CURVE ( 'NONE', #968, #1022, #47, .T. ) ;
#394 = EDGE_CURVE ( 'NONE', #994, #1004, #48, .T. ) ;
#395 = EDGE_CURVE ( 'NONE', #1007, #994, #57, .T. ) ;
#396 = EDGE_CURVE ( 'NONE', #975, #983, #56, .T. ) ;
#397 = EDGE_CURVE ( 'NONE', #1000, #992, #45, .T. ) ;
#398 = AXIS2_PLACEMENT_3D ( 'NONE', #608, #613, #610 ) ;
#399 = AXIS2_PLACEMENT_3D ( 'NONE', #574, #572, #576 ) ;
#400 = AXIS2_PLACEMENT_3D ( 'NONE', #603, #601, #641 ) ;
#401 = EDGE_CURVE ( 'NONE', #1006, #1024, #58, .T. ) ;
#402 = AXIS2_PLACEMENT_3D ( 'NONE', #624, #602, #604 ) ;
#403 = AXIS2_PLACEMENT_3D ( 'NONE', #575, #581, #600 ) ;
#404 = AXIS2_PLACEMENT_3D ( 'NONE', #599, #582, #591 ) ;
#405 = AXIS2_PLACEMENT_3D ( 'NONE', #616, #605, #617 ) ;
#406 = AXIS2_PLACEMENT_3D ( 'NONE', #577, #583, #584 ) ;
#407 = AXIS2_PLACEMENT_3D ( 'NONE', #596, #597, #598 ) ;
#408 = AXIS2_PLACEMENT_3D ( 'NONE', #593, #592, #588 ) ;
#409 = AXIS2_PLACEMENT_3D ( 'NONE', #607, #647, #639 ) ;
#410 = AXIS2_PLACEMENT_3D ( 'NONE', #609, #615, #628 ) ;
#411 = AXIS2_PLACEMENT_3D ( 'NONE', #646, #636, #649 ) ;
#412 = AXIS2_PLACEMENT_3D ( 'NONE', #638, #611, #642 ) ;
#413 = AXIS2_PLACEMENT_3D ( 'NONE', #627, #618, #648 ) ;
#414 = AXIS2_PLACEMENT_3D ( 'NONE', #579, #580, #573 ) ;
#415 = AXIS2_PLACEMENT_3D ( 'NONE', #585, #586, #587 ) ;
#416 = AXIS2_PLACEMENT_3D ( 'NONE', #635, #631, #606 ) ;
#417 = AXIS2_PLACEMENT_3D ( 'NONE', #622, #621, #633 ) ;
#418 = AXIS2_PLACEMENT_3D ( 'NONE', #623, #640, #643 ) ;
#419 = AXIS2_PLACEMENT_3D ( 'NONE', #620, #625, #626 ) ;
#420 = AXIS2_PLACEMENT_3D ( 'NONE', #657, #662, #665 ) ;
#421 = AXIS2_PLACEMENT_3D ( 'NONE', #682, #688, #683 ) ;
#422 = AXIS2_PLACEMENT_3D ( 'NONE', #660, #687, #684 ) ;
#423 = AXIS2_PLACEMENT_3D ( 'NONE', #715, #713, #733 ) ;
#424 = AXIS2_PLACEMENT_3D ( 'NONE', #727, #749, #706 ) ;
#425 = AXIS2_PLACEMENT_3D ( 'NONE', #677, #698, #678 ) ;
#426 = AXIS2_PLACEMENT_3D ( 'NONE', #697, #652, #655 ) ;
#427 = AXIS2_PLACEMENT_3D ( 'NONE', #672, #675, #676 ) ;
#428 = AXIS2_PLACEMENT_3D ( 'NONE', #825, #789, #796 ) ;
#429 = AXIS2_PLACEMENT_3D ( 'NONE', #691, #674, #666 ) ;
#430 = AXIS2_PLACEMENT_3D ( 'NONE', #776, #767, #760 ) ;
#431 = AXIS2_PLACEMENT_3D ( 'NONE', #840, #845, #836 ) ;
#432 = AXIS2_PLACEMENT_3D ( 'NONE', #852, #835, #848 ) ;
#433 = AXIS2_PLACEMENT_3D ( 'NONE', #653, #692, #681 ) ;
#434 = AXIS2_PLACEMENT_3D ( 'NONE', #701, #669, #699 ) ;
#435 = AXIS2_PLACEMENT_3D ( 'NONE', #693, #670, #663 ) ;
#436 = AXIS2_PLACEMENT_3D ( 'NONE', #667, #668, #696 ) ;
#437 = AXIS2_PLACEMENT_3D ( 'NONE', #782, #785, #787 ) ;
#438 = AXIS2_PLACEMENT_3D ( 'NONE', #659, #690, #680 ) ;
#439 = AXIS2_PLACEMENT_3D ( 'NONE', #797, #813, #800 ) ;
#440 = AXIS2_PLACEMENT_3D ( 'NONE', #819, #798, #794 ) ;
#441 = AXIS2_PLACEMENT_3D ( 'NONE', #661, #658, #694 ) ;
#442 = AXIS2_PLACEMENT_3D ( 'NONE', #831, #833, #837 ) ;
#443 =( GEOMETRIC_REPRESENTATION_CONTEXT ( 3 ) GLOBAL_UNCERTAINTY_ASSIGNED_CONTEXT ( ( #37 ) ) GLOBAL_UNIT_ASSIGNED_CONTEXT ( ( #560, #563, #564 ) ) REPRESENTATION_CONTEXT ( 'NONE', 'WORKASPACE' ) );
#444 = AXIS2_PLACEMENT_3D ( 'NONE', #885, #886, #868 ) ;
#445 = AXIS2_PLACEMENT_3D ( 'NONE', #862, #884, #871 ) ;
#446 = AXIS2_PLACEMENT_3D ( 'NONE', #907, #908, #913 ) ;
#447 = AXIS2_PLACEMENT_3D ( 'NONE', #911, #927, #919 ) ;
#448 = AXIS2_PLACEMENT_3D ( 'NONE', #492, #496, #524 ) ;
#449 = CC_DESIGN_PERSON_AND_ORGANIZATION_ASSIGNMENT ( #52, #561, ( #491 ) ) ;
#450 = CC_DESIGN_PERSON_AND_ORGANIZATION_ASSIGNMENT ( #482, #554, ( #467 ) ) ;
#451 = CC_DESIGN_APPROVAL ( #456, ( #457 ) ) ;
#452 = PRODUCT_DEFINITION ( 'UNKNOWN', '', #467, #39 ) ;
#453 = CC_DESIGN_PERSON_AND_ORGANIZATION_ASSIGNMENT ( #480, #556, ( #457 ) ) ;
#454 = CC_DESIGN_APPROVAL ( #461, ( #452 ) ) ;
#455 = CC_DESIGN_PERSON_AND_ORGANIZATION_ASSIGNMENT ( #478, #555, ( #467 ) ) ;
#456 = APPROVAL ( #557, 'UNSPECIFIED' ) ;
#457 = SECURITY_CLASSIFICATION ( '', '', #567 ) ;
#458 = PRODUCT_RELATED_PRODUCT_CATEGORY ( 'detail', '', ( #491 ) ) ;
#459 = CC_DESIGN_DATE_AND_TIME_ASSIGNMENT ( #286, #569, ( #452 ) ) ;
#460 = CC_DESIGN_SECURITY_CLASSIFICATION ( #457, ( #467 ) ) ;
#461 = APPROVAL ( #570, 'UNSPECIFIED' ) ;
#462 = CC_DESIGN_APPROVAL ( #463, ( #467 ) ) ;
#463 = APPROVAL ( #546, 'UNSPECIFIED' ) ;
#464 = CC_DESIGN_PERSON_AND_ORGANIZATION_ASSIGNMENT ( #209, #549, ( #452 ) ) ;
#465 = AXIS2_PLACEMENT_3D ( 'NONE', #545, #568, #551 ) ;
#466 = CC_DESIGN_DATE_AND_TIME_ASSIGNMENT ( #470, #562, ( #457 ) ) ;
#467 = PRODUCT_DEFINITION_FORMATION_WITH_SPECIFIED_SOURCE ( 'ANY', '', #491, .NOT_KNOWN. ) ;
#468 = APPROVAL_DATE_TIME ( #473, #463 ) ;
#469 = LOCAL_TIME ( 17, 38, 52.00000000000000000, #475 ) ;
#470 = DATE_AND_TIME ( #474, #484 ) ;
#471 = CALENDAR_DATE ( 2017, 10, 3 ) ;
#472 = CALENDAR_DATE ( 2017, 10, 3 ) ;
#473 = DATE_AND_TIME ( #472, #486 ) ;
#474 = CALENDAR_DATE ( 2017, 10, 3 ) ;
#475 = COORDINATED_UNIVERSAL_TIME_OFFSET ( 1, 0, .AHEAD. ) ;
#476 = DATE_AND_TIME ( #471, #469 ) ;
#477 = APPROVAL_PERSON_ORGANIZATION ( #485, #463, #553 ) ;
#478 = PERSON_AND_ORGANIZATION ( #490, #49 ) ;
#479 = COORDINATED_UNIVERSAL_TIME_OFFSET ( 1, 0, .AHEAD. ) ;
#480 = PERSON_AND_ORGANIZATION ( #490, #49 ) ;
#481 = APPROVAL_PERSON_ORGANIZATION ( #489, #456, #559 ) ;
#482 = PERSON_AND_ORGANIZATION ( #490, #49 ) ;
#483 = COORDINATED_UNIVERSAL_TIME_OFFSET ( 1, 0, .AHEAD. ) ;
#484 = LOCAL_TIME ( 17, 38, 52.00000000000000000, #483 ) ;
#485 = PERSON_AND_ORGANIZATION ( #490, #49 ) ;
#486 = LOCAL_TIME ( 17, 38, 52.00000000000000000, #479 ) ;
#487 = APPROVAL_DATE_TIME ( #476, #456 ) ;
#488 = SHAPE_DEFINITION_REPRESENTATION ( #40, #36 ) ;
#489 = PERSON_AND_ORGANIZATION ( #490, #49 ) ;
#490 = PERSON ( 'UNSPECIFIED', 'UNSPECIFIED', 'UNSPECIFIED', ('UNSPECIFIED'), ('UNSPECIFIED'), ('UNSPECIFIED') ) ;
#491 = PRODUCT ( 'ALP4214', 'ALP4214', '', ( #558 ) ) ;
#492 = CARTESIAN_POINT ( 'NONE',  ( 3.097254791757642500, 8.242294784857410400, 0.0000000000000000000 ) ) ;
#493 = CARTESIAN_POINT ( 'NONE',  ( 4.495006383403182100, 3.052800830717297100, 0.0000000000000000000 ) ) ;
#494 = CARTESIAN_POINT ( 'NONE',  ( -4.000000000000000000, 12.29999999999999000, 0.0000000000000000000 ) ) ;
#495 = DIRECTION ( 'NONE',  ( -0.1643989873053567100, -0.9863939238321437500, 0.0000000000000000000 ) ) ;
#496 = DIRECTION ( 'NONE',  ( 0.0000000000000000000, 0.0000000000000000000, 1.000000000000000000 ) ) ;
#497 = CARTESIAN_POINT ( 'NONE',  ( 4.000000000000000000, 12.29999999999999000, 100.0000000000000000 ) ) ;
#498 = DIRECTION ( 'NONE',  ( 0.0000000000000000000, -1.000000000000000000, 0.0000000000000000000 ) ) ;
#499 = CARTESIAN_POINT ( 'NONE',  ( 4.152872911616967100, 1.000000000000001600, 100.0000000000000000 ) ) ;
#500 = CARTESIAN_POINT ( 'NONE',  ( 4.092114941824105400, 9.740798760930568200, 0.0000000000000000000 ) ) ;
#501 = DIRECTION ( 'NONE',  ( 0.8659284121440289400, 0.5001679568322231500, 0.0000000000000000000 ) ) ;
#502 = DIRECTION ( 'NONE',  ( -0.0000000000000000000, -0.0000000000000000000, -1.000000000000000000 ) ) ;
#503 = CARTESIAN_POINT ( 'NONE',  ( 4.000000000000000000, 11.26990679521087200, 100.0000000000000000 ) ) ;
#504 = CARTESIAN_POINT ( 'NONE',  ( -4.495006383403180400, 3.052800830717270900, 0.0000000000000000000 ) ) ;
#505 = CARTESIAN_POINT ( 'NONE',  ( 2.502621014441322800, 7.672306816801905100, 0.0000000000000000000 ) ) ;
#506 = CARTESIAN_POINT ( 'NONE',  ( -5.999999999999998200, 11.30000000000000200, 100.0000000000000000 ) ) ;
#507 = CARTESIAN_POINT ( 'NONE',  ( -5.069633417724553200, 0.4178005063473177500, 100.0000000000000000 ) ) ;
#508 = CARTESIAN_POINT ( 'NONE',  ( -4.000000000000000000, 12.29999999999999000, 100.0000000000000000 ) ) ;
#509 = CARTESIAN_POINT ( 'NONE',  ( -5.499999999999998200, 12.29999999999998800, 0.0000000000000000000 ) ) ;
#510 = CARTESIAN_POINT ( 'NONE',  ( -4.092114941824109800, 9.740798760930566400, 0.0000000000000000000 ) ) ;
#511 = CARTESIAN_POINT ( 'NONE',  ( 4.000000000000000000, 12.29999999999999000, 0.0000000000000000000 ) ) ;
#512 = CARTESIAN_POINT ( 'NONE',  ( 4.000000000000000000, 12.29999999999999000, 100.0000000000000000 ) ) ;
#513 = CARTESIAN_POINT ( 'NONE',  ( 2.404512062042419200, 7.842160419391622600, 0.0000000000000000000 ) ) ;
#514 = CARTESIAN_POINT ( 'NONE',  ( -4.152872911616968900, 0.9999999999999993300, 0.0000000000000000000 ) ) ;
#515 = CARTESIAN_POINT ( 'NONE',  ( -2.502621014441326800, 7.672306816801903300, 0.0000000000000000000 ) ) ;
#516 = CARTESIAN_POINT ( 'NONE',  ( 5.499999999999998200, 12.29999999999999000, 100.0000000000000000 ) ) ;
#517 = CARTESIAN_POINT ( 'NONE',  ( 2.697120426291863500, 8.935037514572634600, 0.0000000000000000000 ) ) ;
#518 = CARTESIAN_POINT ( 'NONE',  ( 4.159085037218349400, 8.629095177385997000, 100.0000000000000000 ) ) ;
#519 = CARTESIAN_POINT ( 'NONE',  ( 5.999999999999998200, 11.79999999999998800, 0.0000000000000000000 ) ) ;
#520 = CARTESIAN_POINT ( 'NONE',  ( -2.697120426291864000, 8.935037514572634600, 0.0000000000000000000 ) ) ;
#521 = CARTESIAN_POINT ( 'NONE',  ( 4.159085037218349400, 8.629095177385997000, 0.0000000000000000000 ) ) ;
#522 = CARTESIAN_POINT ( 'NONE',  ( -4.092114941824109800, 9.740798760930566400, 100.0000000000000000 ) ) ;
#523 = CARTESIAN_POINT ( 'NONE',  ( 4.495006383403182100, 3.052800830717297100, 0.0000000000000000000 ) ) ;
#524 = DIRECTION ( 'NONE',  ( 1.000000000000000000, 0.0000000000000000000, 0.0000000000000000000 ) ) ;
#525 = CARTESIAN_POINT ( 'NONE',  ( 2.297254791757641400, 8.242294784857410400, 100.0000000000000000 ) ) ;
#526 = CARTESIAN_POINT ( 'NONE',  ( 5.499999999999998200, 12.29999999999999000, 0.0000000000000000000 ) ) ;
#527 = CARTESIAN_POINT ( 'NONE',  ( -5.499999999999998200, 12.29999999999998800, 100.0000000000000000 ) ) ;
#528 = CARTESIAN_POINT ( 'NONE',  ( 2.404512062042419200, 7.842160419391622600, 100.0000000000000000 ) ) ;
#529 = CARTESIAN_POINT ( 'NONE',  ( 2.502621014441322800, 7.672306816801905100, 100.0000000000000000 ) ) ;
#530 = CARTESIAN_POINT ( 'NONE',  ( -4.152872911616968900, 0.9999999999999993300, 100.0000000000000000 ) ) ;
#531 = CARTESIAN_POINT ( 'NONE',  ( -2.697120426291864000, 8.935037514572634600, 100.0000000000000000 ) ) ;
#532 = CARTESIAN_POINT ( 'NONE',  ( -4.159085037218350300, 8.629095177385995200, 0.0000000000000000000 ) ) ;
#533 = CARTESIAN_POINT ( 'NONE',  ( -4.159085037218350300, 8.629095177385995200, 100.0000000000000000 ) ) ;
#534 = CARTESIAN_POINT ( 'NONE',  ( 4.495006383403182100, 3.052800830717297100, 100.0000000000000000 ) ) ;
#535 = CARTESIAN_POINT ( 'NONE',  ( -2.502621014441326800, 7.672306816801903300, 100.0000000000000000 ) ) ;
#536 = CARTESIAN_POINT ( 'NONE',  ( -4.000000000000000000, 11.26990679521095600, 100.0000000000000000 ) ) ;
#537 = CARTESIAN_POINT ( 'NONE',  ( 2.697120426291863500, 8.935037514572634600, 100.0000000000000000 ) ) ;
#538 = CARTESIAN_POINT ( 'NONE',  ( -2.404512062042424100, 7.842160419391618100, 100.0000000000000000 ) ) ;
#539 = CARTESIAN_POINT ( 'NONE',  ( -4.495006383403180400, 3.052800830717270900, 100.0000000000000000 ) ) ;
#540 = CARTESIAN_POINT ( 'NONE',  ( 4.152872911616967100, 1.000000000000001600, 0.0000000000000000000 ) ) ;
#541 = CARTESIAN_POINT ( 'NONE',  ( -2.404512062042424100, 7.842160419391618100, 0.0000000000000000000 ) ) ;
#542 = CARTESIAN_POINT ( 'NONE',  ( -4.000000000000000000, 11.26990679521095600, 0.0000000000000000000 ) ) ;
#543 = CARTESIAN_POINT ( 'NONE',  ( 5.999999999999998200, 11.79999999999998800, 100.0000000000000000 ) ) ;
#544 = CARTESIAN_POINT ( 'NONE',  ( 2.297254791757641400, 8.242294784857410400, 0.0000000000000000000 ) ) ;
#545 = CARTESIAN_POINT ( 'NONE',  ( 0.0000000000000000000, 0.0000000000000000000, 0.0000000000000000000 ) ) ;
#546 = APPROVAL_STATUS ( 'not_yet_approved' ) ;
#547 = APPLICATION_PROTOCOL_DEFINITION ( 'international standard', 'config_control_design', 1994, #565 ) ;
#548 = APPLICATION_CONTEXT ( 'configuration controlled 3d designs of mechanical parts and assemblies' ) ;
#549 = PERSON_AND_ORGANIZATION_ROLE ( 'creator' ) ;
#550 = CARTESIAN_POINT ( 'NONE',  ( 4.000000000000000000, 11.26990679521087200, 0.0000000000000000000 ) ) ;
#551 = DIRECTION ( 'NONE',  ( 1.000000000000000000, 0.0000000000000000000, 0.0000000000000000000 ) ) ;
#552 = APPLICATION_PROTOCOL_DEFINITION ( 'international standard', 'config_control_design', 1994, #548 ) ;
#553 = APPROVAL_ROLE ( '' ) ;
#554 = PERSON_AND_ORGANIZATION_ROLE ( 'creator' ) ;
#555 = PERSON_AND_ORGANIZATION_ROLE ( 'design_supplier' ) ;
#556 = PERSON_AND_ORGANIZATION_ROLE ( 'classification_officer' ) ;
#557 = APPROVAL_STATUS ( 'not_yet_approved' ) ;
#558 = MECHANICAL_CONTEXT ( 'NONE', #548, 'mechanical' ) ;
#559 = APPROVAL_ROLE ( '' ) ;
#560 =( LENGTH_UNIT ( ) NAMED_UNIT ( * ) SI_UNIT ( .MILLI., .METRE. ) );
#561 = PERSON_AND_ORGANIZATION_ROLE ( 'design_owner' ) ;
#562 = DATE_TIME_ROLE ( 'classification_date' ) ;
#563 =( NAMED_UNIT ( * ) PLANE_ANGLE_UNIT ( ) SI_UNIT ( $, .RADIAN. ) );
#564 =( NAMED_UNIT ( * ) SI_UNIT ( $, .STERADIAN. ) SOLID_ANGLE_UNIT ( ) );
#565 = APPLICATION_CONTEXT ( 'configuration controlled 3d designs of mechanical parts and assemblies' ) ;
#566 = APPROVAL_ROLE ( '' ) ;
#567 = SECURITY_CLASSIFICATION_LEVEL ( 'unclassified' ) ;
#568 = DIRECTION ( 'NONE',  ( 0.0000000000000000000, 0.0000000000000000000, 1.000000000000000000 ) ) ;
#569 = DATE_TIME_ROLE ( 'creation_date' ) ;
#570 = APPROVAL_STATUS ( 'not_yet_approved' ) ;
#571 = PLANE ( 'NONE',  #399 ) ;
#572 = DIRECTION ( 'NONE',  ( 0.9981904367931473400, 0.06013195402367763800, -0.0000000000000000000 ) ) ;
#573 = DIRECTION ( 'NONE',  ( -1.000000000000000000, 0.0000000000000000000, 0.0000000000000000000 ) ) ;
#574 = CARTESIAN_POINT ( 'NONE',  ( 4.000000000000000000, 11.26990679521087200, 100.0000000000000000 ) ) ;
#575 = CARTESIAN_POINT ( 'NONE',  ( -4.152872911616968900, 0.9999999999999993300, 100.0000000000000000 ) ) ;
#576 = DIRECTION ( 'NONE',  ( -0.06013195402367763800, 0.9981904367931473400, 0.0000000000000000000 ) ) ;
#577 = CARTESIAN_POINT ( 'NONE',  ( 5.499999999999998200, 12.29999999999999000, 100.0000000000000000 ) ) ;
#578 = PLANE ( 'NONE',  #406 ) ;
#579 = CARTESIAN_POINT ( 'NONE',  ( 3.097254791757642500, 8.242294784857410400, 100.0000000000000000 ) ) ;
#580 = DIRECTION ( 'NONE',  ( -0.0000000000000000000, -0.0000000000000000000, -1.000000000000000000 ) ) ;
#581 = DIRECTION ( 'NONE',  ( -0.9863939238321437500, -0.1643989873053570100, 0.0000000000000000000 ) ) ;
#582 = DIRECTION ( 'NONE',  ( 0.5001679568322239300, 0.8659284121440286000, -0.0000000000000000000 ) ) ;
#583 = DIRECTION ( 'NONE',  ( 0.0000000000000000000, -1.000000000000000000, 0.0000000000000000000 ) ) ;
#584 = DIRECTION ( 'NONE',  ( 0.0000000000000000000, -0.0000000000000000000, -1.000000000000000000 ) ) ;
#585 = CARTESIAN_POINT ( 'NONE',  ( 3.097254791757642500, 8.242294784857410400, 100.0000000000000000 ) ) ;
#586 = DIRECTION ( 'NONE',  ( -0.0000000000000000000, -0.0000000000000000000, -1.000000000000000000 ) ) ;
#587 = DIRECTION ( 'NONE',  ( -1.000000000000000000, 0.0000000000000000000, 0.0000000000000000000 ) ) ;
#588 = DIRECTION ( 'NONE',  ( -0.8659284121440289400, -0.5001679568322231500, 0.0000000000000000000 ) ) ;
#589 = PLANE ( 'NONE',  #403 ) ;
#590 = PLANE ( 'NONE',  #404 ) ;
#591 = DIRECTION ( 'NONE',  ( -0.8659284121440286000, 0.5001679568322239300, 0.0000000000000000000 ) ) ;
#592 = DIRECTION ( 'NONE',  ( -0.5001679568322232600, 0.8659284121440290500, 0.0000000000000000000 ) ) ;
#593 = CARTESIAN_POINT ( 'NONE',  ( 2.502621014441322800, 7.672306816801905100, 100.0000000000000000 ) ) ;
#594 = PLANE ( 'NONE',  #408 ) ;
#595 = PLANE ( 'NONE',  #407 ) ;
#596 = CARTESIAN_POINT ( 'NONE',  ( -4.000000000000000000, 11.26990679521095600, 100.0000000000000000 ) ) ;
#597 = DIRECTION ( 'NONE',  ( -1.000000000000000000, 0.0000000000000000000, 0.0000000000000000000 ) ) ;
#598 = DIRECTION ( 'NONE',  ( 0.0000000000000000000, 0.0000000000000000000, 1.000000000000000000 ) ) ;
#599 = CARTESIAN_POINT ( 'NONE',  ( -4.159085037218350300, 8.629095177385995200, 100.0000000000000000 ) ) ;
#600 = DIRECTION ( 'NONE',  ( 0.1643989873053570100, -0.9863939238321437500, 0.0000000000000000000 ) ) ;
#601 = DIRECTION ( 'NONE',  ( -0.9981904367931474500, 0.06013195402367713100, 0.0000000000000000000 ) ) ;
#602 = DIRECTION ( 'NONE',  ( 0.8659284121440159500, 0.5001679568322458000, -0.0000000000000000000 ) ) ;
#603 = CARTESIAN_POINT ( 'NONE',  ( -4.092114941824109800, 9.740798760930566400, 100.0000000000000000 ) ) ;
#604 = DIRECTION ( 'NONE',  ( -0.5001679568322458000, 0.8659284121440159500, 0.0000000000000000000 ) ) ;
#605 = DIRECTION ( 'NONE',  ( 0.9863939238321438600, 0.1643989873053568200, -0.0000000000000000000 ) ) ;
#606 = DIRECTION ( 'NONE',  ( -0.06013195402367830400, 0.9981904367931472300, 0.0000000000000000000 ) ) ;
#607 = CARTESIAN_POINT ( 'NONE',  ( -4.576436455808483600, 0.4999999999999955600, 100.0000000000000000 ) ) ;
#608 = CARTESIAN_POINT ( 'NONE',  ( -5.499999999999998200, 11.79999999999998800, 100.0000000000000000 ) ) ;
#609 = CARTESIAN_POINT ( 'NONE',  ( -4.000000000000000000, 12.29999999999999000, 100.0000000000000000 ) ) ;
#610 = DIRECTION ( 'NONE',  ( -1.000000000000000000, 0.0000000000000000000, 0.0000000000000000000 ) ) ;
#611 = DIRECTION ( 'NONE',  ( 0.9863939238321438600, -0.1643989873053567400, 0.0000000000000000000 ) ) ;
#612 = PLANE ( 'NONE',  #402 ) ;
#613 = DIRECTION ( 'NONE',  ( -0.0000000000000000000, -0.0000000000000000000, -1.000000000000000000 ) ) ;
#614 = PLANE ( 'NONE',  #400 ) ;
#615 = DIRECTION ( 'NONE',  ( 0.0000000000000000000, -1.000000000000000000, 0.0000000000000000000 ) ) ;
#616 = CARTESIAN_POINT ( 'NONE',  ( -5.500000000000000900, 2.999999999999997800, 100.0000000000000000 ) ) ;
#617 = DIRECTION ( 'NONE',  ( -0.1643989873053567900, 0.9863939238321437500, 0.0000000000000000000 ) ) ;
#618 = DIRECTION ( 'NONE',  ( -0.9981904367931474500, -0.06013195402367734600, 0.0000000000000000000 ) ) ;
#619 = PLANE ( 'NONE',  #419 ) ;
#620 = CARTESIAN_POINT ( 'NONE',  ( -5.999999999999998200, 11.79999999999998800, 100.0000000000000000 ) ) ;
#621 = DIRECTION ( 'NONE',  ( -0.5001679568322220400, -0.8659284121440296000, 0.0000000000000000000 ) ) ;
#622 = CARTESIAN_POINT ( 'NONE',  ( -2.697120426291864000, 8.935037514572634600, 100.0000000000000000 ) ) ;
#623 = CARTESIAN_POINT ( 'NONE',  ( 4.152872911616967100, 1.000000000000001600, 100.0000000000000000 ) ) ;
#624 = CARTESIAN_POINT ( 'NONE',  ( 2.404512062042419200, 7.842160419391622600, 100.0000000000000000 ) ) ;
#625 = DIRECTION ( 'NONE',  ( 1.000000000000000000, 0.0000000000000000000, -0.0000000000000000000 ) ) ;
#626 = DIRECTION ( 'NONE',  ( -0.0000000000000000000, 0.0000000000000000000, -1.000000000000000000 ) ) ;
#627 = CARTESIAN_POINT ( 'NONE',  ( 5.499999999999999100, 2.999999999999999600, 100.0000000000000000 ) ) ;
#628 = DIRECTION ( 'NONE',  ( 0.0000000000000000000, -0.0000000000000000000, -1.000000000000000000 ) ) ;
#629 = PLANE ( 'NONE',  #420 ) ;
#630 = PLANE ( 'NONE',  #416 ) ;
#631 = DIRECTION ( 'NONE',  ( 0.9981904367931473400, 0.06013195402367831100, -0.0000000000000000000 ) ) ;
#632 = PLANE ( 'NONE',  #417 ) ;
#633 = DIRECTION ( 'NONE',  ( 0.8659284121440296000, -0.5001679568322220400, 0.0000000000000000000 ) ) ;
#634 = PLANE ( 'NONE',  #411 ) ;
#635 = CARTESIAN_POINT ( 'NONE',  ( 4.159085037218349400, 8.629095177385997000, 100.0000000000000000 ) ) ;
#636 = DIRECTION ( 'NONE',  ( -0.8659284121440082900, 0.5001679568322590100, 0.0000000000000000000 ) ) ;
#637 = PLANE ( 'NONE',  #418 ) ;
#638 = CARTESIAN_POINT ( 'NONE',  ( 4.495006383403182100, 3.052800830717297100, 100.0000000000000000 ) ) ;
#639 = DIRECTION ( 'NONE',  ( -1.000000000000000000, 0.0000000000000000000, 0.0000000000000000000 ) ) ;
#640 = DIRECTION ( 'NONE',  ( 2.610728032280087700E-016, -1.000000000000000000, 0.0000000000000000000 ) ) ;
#641 = DIRECTION ( 'NONE',  ( -0.06013195402367712400, -0.9981904367931473400, 0.0000000000000000000 ) ) ;
#642 = DIRECTION ( 'NONE',  ( 0.1643989873053567100, 0.9863939238321437500, 0.0000000000000000000 ) ) ;
#643 = DIRECTION ( 'NONE',  ( 1.000000000000000000, 2.610728032280087700E-016, 0.0000000000000000000 ) ) ;
#644 = PLANE ( 'NONE',  #412 ) ;
#645 = PLANE ( 'NONE',  #410 ) ;
#646 = CARTESIAN_POINT ( 'NONE',  ( -2.502621014441326800, 7.672306816801903300, 100.0000000000000000 ) ) ;
#647 = DIRECTION ( 'NONE',  ( -0.0000000000000000000, -0.0000000000000000000, -1.000000000000000000 ) ) ;
#648 = DIRECTION ( 'NONE',  ( 0.06013195402367733900, -0.9981904367931473400, 0.0000000000000000000 ) ) ;
#649 = DIRECTION ( 'NONE',  ( -0.5001679568322590100, -0.8659284121440082900, 0.0000000000000000000 ) ) ;
#650 = PLANE ( 'NONE',  #405 ) ;
#651 = PLANE ( 'NONE',  #413 ) ;
#652 = DIRECTION ( 'NONE',  ( 0.0000000000000000000, 1.000000000000000000, 0.0000000000000000000 ) ) ;
#653 = CARTESIAN_POINT ( 'NONE',  ( -5.999999999999998200, 11.30000000000000200, 100.0000000000000000 ) ) ;
#654 = PLANE ( 'NONE',  #422 ) ;
#655 = DIRECTION ( 'NONE',  ( 0.0000000000000000000, -0.0000000000000000000, 1.000000000000000000 ) ) ;
#656 = PLANE ( 'NONE',  #426 ) ;
#657 = CARTESIAN_POINT ( 'NONE',  ( -4.576436455808483600, 0.0000000000000000000, 100.0000000000000000 ) ) ;
#658 = DIRECTION ( 'NONE',  ( -0.9981904367931473400, 0.06013195402367757500, 0.0000000000000000000 ) ) ;
#659 = CARTESIAN_POINT ( 'NONE',  ( 4.092114941824105400, 9.740798760930568200, 100.0000000000000000 ) ) ;
#660 = CARTESIAN_POINT ( 'NONE',  ( 5.499999999999998200, 11.79999999999998800, 100.0000000000000000 ) ) ;
#661 = CARTESIAN_POINT ( 'NONE',  ( -4.495006383403180400, 3.052800830717270900, 100.0000000000000000 ) ) ;
#662 = DIRECTION ( 'NONE',  ( 0.0000000000000000000, 1.000000000000000000, 0.0000000000000000000 ) ) ;
#663 = DIRECTION ( 'NONE',  ( -1.000000000000000000, 0.0000000000000000000, 0.0000000000000000000 ) ) ;
#664 = PLANE ( 'NONE',  #429 ) ;
#665 = DIRECTION ( 'NONE',  ( 0.0000000000000000000, -0.0000000000000000000, 1.000000000000000000 ) ) ;
#666 = DIRECTION ( 'NONE',  ( 0.06013195402367755400, 0.9981904367931473400, 0.0000000000000000000 ) ) ;
#667 = CARTESIAN_POINT ( 'NONE',  ( 5.499999999999998200, 11.79999999999998800, 0.0000000000000000000 ) ) ;
#668 = DIRECTION ( 'NONE',  ( 0.0000000000000000000, 0.0000000000000000000, 1.000000000000000000 ) ) ;
#669 = DIRECTION ( 'NONE',  ( -1.000000000000000000, 0.0000000000000000000, 0.0000000000000000000 ) ) ;
#670 = DIRECTION ( 'NONE',  ( -0.0000000000000000000, -0.0000000000000000000, -1.000000000000000000 ) ) ;
#671 = PLANE ( 'NONE',  #427 ) ;
#672 = CARTESIAN_POINT ( 'NONE',  ( 5.069633417724555000, 0.4178005063473173600, 100.0000000000000000 ) ) ;
#673 = CARTESIAN_POINT ( 'NONE',  ( 5.069633417724555000, 0.4178005063473173600, 0.0000000000000000000 ) ) ;
#674 = DIRECTION ( 'NONE',  ( 0.9981904367931473400, -0.06013195402367755400, 0.0000000000000000000 ) ) ;
#675 = DIRECTION ( 'NONE',  ( -0.9863939238321439700, 0.1643989873053560700, 0.0000000000000000000 ) ) ;
#676 = DIRECTION ( 'NONE',  ( -0.1643989873053560400, -0.9863939238321438600, 0.0000000000000000000 ) ) ;
#677 = CARTESIAN_POINT ( 'NONE',  ( 5.499999999999998200, 11.79999999999998800, 100.0000000000000000 ) ) ;
#678 = DIRECTION ( 'NONE',  ( -1.000000000000000000, 0.0000000000000000000, 0.0000000000000000000 ) ) ;
#679 = PLANE ( 'NONE',  #441 ) ;
#680 = DIRECTION ( 'NONE',  ( 0.8659284121440272700, 0.5001679568322259200, 0.0000000000000000000 ) ) ;
#681 = DIRECTION ( 'NONE',  ( 0.0000000000000000000, -0.0000000000000000000, 1.000000000000000000 ) ) ;
#682 = CARTESIAN_POINT ( 'NONE',  ( 4.000000000000000000, 12.29999999999999000, 100.0000000000000000 ) ) ;
#683 = DIRECTION ( 'NONE',  ( -0.0000000000000000000, 0.0000000000000000000, -1.000000000000000000 ) ) ;
#684 = DIRECTION ( 'NONE',  ( 1.000000000000000000, 0.0000000000000000000, -0.0000000000000000000 ) ) ;
#685 = PLANE ( 'NONE',  #438 ) ;
#686 = PLANE ( 'NONE',  #433 ) ;
#687 = DIRECTION ( 'NONE',  ( 0.0000000000000000000, 0.0000000000000000000, 1.000000000000000000 ) ) ;
#688 = DIRECTION ( 'NONE',  ( 1.000000000000000000, 0.0000000000000000000, -0.0000000000000000000 ) ) ;
#689 = PLANE ( 'NONE',  #421 ) ;
#690 = DIRECTION ( 'NONE',  ( 0.5001679568322260300, -0.8659284121440273800, 0.0000000000000000000 ) ) ;
#691 = CARTESIAN_POINT ( 'NONE',  ( -5.000000000000050600, 11.30000000000000200, 100.0000000000000000 ) ) ;
#692 = DIRECTION ( 'NONE',  ( 0.0000000000000000000, 1.000000000000000000, 0.0000000000000000000 ) ) ;
#693 = CARTESIAN_POINT ( 'NONE',  ( -3.097254791757642500, 8.242294784857410400, 100.0000000000000000 ) ) ;
#694 = DIRECTION ( 'NONE',  ( -0.06013195402367757500, -0.9981904367931473400, 0.0000000000000000000 ) ) ;
#695 = PLANE ( 'NONE',  #436 ) ;
#696 = DIRECTION ( 'NONE',  ( 1.000000000000000000, 0.0000000000000000000, -0.0000000000000000000 ) ) ;
#697 = CARTESIAN_POINT ( 'NONE',  ( 5.000000000000050600, 11.30000000000000200, 100.0000000000000000 ) ) ;
#698 = DIRECTION ( 'NONE',  ( -0.0000000000000000000, -0.0000000000000000000, -1.000000000000000000 ) ) ;
#699 = DIRECTION ( 'NONE',  ( 0.0000000000000000000, 0.0000000000000000000, 1.000000000000000000 ) ) ;
#700 = PLANE ( 'NONE',  #434 ) ;
#701 = CARTESIAN_POINT ( 'NONE',  ( 5.999999999999998200, 11.30000000000000200, 100.0000000000000000 ) ) ;
#702 = CARTESIAN_POINT ( 'NONE',  ( -4.000000000000000000, 11.26990679521095600, 100.0000000000000000 ) ) ;
#703 = CARTESIAN_POINT ( 'NONE',  ( 5.000000000000050600, 11.30000000000000200, 100.0000000000000000 ) ) ;
#704 = CARTESIAN_POINT ( 'NONE',  ( -5.999999999999998200, 11.79999999999998800, 100.0000000000000000 ) ) ;
#705 = CARTESIAN_POINT ( 'NONE',  ( -2.502621014441326800, 7.672306816801903300, 100.0000000000000000 ) ) ;
#706 = DIRECTION ( 'NONE',  ( 1.000000000000000000, 0.0000000000000000000, 0.0000000000000000000 ) ) ;
#707 = CARTESIAN_POINT ( 'NONE',  ( -5.000000000000050600, 11.30000000000000200, 100.0000000000000000 ) ) ;
#708 = CARTESIAN_POINT ( 'NONE',  ( 5.999999999999998200, 11.30000000000000200, 100.0000000000000000 ) ) ;
#709 = CARTESIAN_POINT ( 'NONE',  ( -4.495006383403180400, 3.052800830717270900, 100.0000000000000000 ) ) ;
#710 = CARTESIAN_POINT ( 'NONE',  ( -4.159085037218350300, 8.629095177385995200, 100.0000000000000000 ) ) ;
#711 = CARTESIAN_POINT ( 'NONE',  ( -4.159085037218350300, 8.629095177385995200, 100.0000000000000000 ) ) ;
#712 = DIRECTION ( 'NONE',  ( 0.06013195402367712400, 0.9981904367931473400, 0.0000000000000000000 ) ) ;
#713 = DIRECTION ( 'NONE',  ( -0.0000000000000000000, -0.0000000000000000000, -1.000000000000000000 ) ) ;
#714 = DIRECTION ( 'NONE',  ( 0.8659284121440286000, -0.5001679568322239300, 0.0000000000000000000 ) ) ;
#715 = CARTESIAN_POINT ( 'NONE',  ( 4.576436455808483600, 0.4999999999999971700, 100.0000000000000000 ) ) ;
#716 = CARTESIAN_POINT ( 'NONE',  ( -4.152872911616968900, 0.9999999999999993300, 100.0000000000000000 ) ) ;
#717 = DIRECTION ( 'NONE',  ( -0.0000000000000000000, -0.0000000000000000000, -1.000000000000000000 ) ) ;
#718 = CARTESIAN_POINT ( 'NONE',  ( -5.500000000000000900, 2.999999999999997800, 100.0000000000000000 ) ) ;
#719 = CARTESIAN_POINT ( 'NONE',  ( -5.069633417724553200, 0.4178005063473177500, 0.0000000000000000000 ) ) ;
#720 = CARTESIAN_POINT ( 'NONE',  ( -5.500000000000000900, 2.999999999999997800, 0.0000000000000000000 ) ) ;
#721 = CARTESIAN_POINT ( 'NONE',  ( -2.697120426291864000, 8.935037514572634600, 0.0000000000000000000 ) ) ;
#722 = DIRECTION ( 'NONE',  ( -0.8659284121440297100, 0.5001679568322221500, 0.0000000000000000000 ) ) ;
#723 = CARTESIAN_POINT ( 'NONE',  ( -4.576436455808483600, 0.0000000000000000000, 100.0000000000000000 ) ) ;
#724 = DIRECTION ( 'NONE',  ( 0.8659284121440286000, -0.5001679568322239300, 0.0000000000000000000 ) ) ;
#725 = CARTESIAN_POINT ( 'NONE',  ( -4.495006383403180400, 3.052800830717270900, 100.0000000000000000 ) ) ;
#726 = CARTESIAN_POINT ( 'NONE',  ( -2.404512062042424100, 7.842160419391618100, 100.0000000000000000 ) ) ;
#727 = CARTESIAN_POINT ( 'NONE',  ( -3.097254791757642500, 8.242294784857410400, 100.0000000000000000 ) ) ;
#728 = CARTESIAN_POINT ( 'NONE',  ( -4.576436455808483600, 0.0000000000000000000, 0.0000000000000000000 ) ) ;
#729 = CARTESIAN_POINT ( 'NONE',  ( 5.999999999999998200, 11.30000000000000200, 0.0000000000000000000 ) ) ;
#730 = CARTESIAN_POINT ( 'NONE',  ( 5.000000000000050600, 11.30000000000000200, 0.0000000000000000000 ) ) ;
#731 = CARTESIAN_POINT ( 'NONE',  ( 5.069633417724555000, 0.4178005063473173600, 100.0000000000000000 ) ) ;
#732 = CARTESIAN_POINT ( 'NONE',  ( -2.697120426291864000, 8.935037514572634600, 100.0000000000000000 ) ) ;
#733 = DIRECTION ( 'NONE',  ( -1.000000000000000000, 0.0000000000000000000, 0.0000000000000000000 ) ) ;
#734 = DIRECTION ( 'NONE',  ( -0.1643989873053570100, 0.9863939238321437500, 0.0000000000000000000 ) ) ;
#735 = CARTESIAN_POINT ( 'NONE',  ( 4.576436455808483600, -1.301042606982605300E-015, 100.0000000000000000 ) ) ;
#736 = DIRECTION ( 'NONE',  ( -0.0000000000000000000, -0.0000000000000000000, -1.000000000000000000 ) ) ;
#737 = CARTESIAN_POINT ( 'NONE',  ( 5.499999999999999100, 2.999999999999999600, 0.0000000000000000000 ) ) ;
#738 = CARTESIAN_POINT ( 'NONE',  ( -5.999999999999998200, 11.79999999999998800, 0.0000000000000000000 ) ) ;
#739 = CARTESIAN_POINT ( 'NONE',  ( -4.092114941824109800, 9.740798760930566400, 100.0000000000000000 ) ) ;
#740 = CARTESIAN_POINT ( 'NONE',  ( 4.576436455808483600, -1.301042606982605300E-015, 0.0000000000000000000 ) ) ;
#741 = DIRECTION ( 'NONE',  ( 0.06013195402367757500, 0.9981904367931473400, 0.0000000000000000000 ) ) ;
#742 = DIRECTION ( 'NONE',  ( 0.06013195402367712400, 0.9981904367931473400, 0.0000000000000000000 ) ) ;
#743 = CARTESIAN_POINT ( 'NONE',  ( -4.092114941824109800, 9.740798760930566400, 0.0000000000000000000 ) ) ;
#744 = DIRECTION ( 'NONE',  ( -0.0000000000000000000, -0.0000000000000000000, -1.000000000000000000 ) ) ;
#745 = CARTESIAN_POINT ( 'NONE',  ( -5.999999999999998200, 11.30000000000000200, 0.0000000000000000000 ) ) ;
#746 = CARTESIAN_POINT ( 'NONE',  ( 5.499999999999999100, 2.999999999999999600, 100.0000000000000000 ) ) ;
#747 = CARTESIAN_POINT ( 'NONE',  ( -4.159085037218350300, 8.629095177385995200, 0.0000000000000000000 ) ) ;
#748 = DIRECTION ( 'NONE',  ( -0.0000000000000000000, -0.0000000000000000000, -1.000000000000000000 ) ) ;
#749 = DIRECTION ( 'NONE',  ( 0.0000000000000000000, 0.0000000000000000000, 1.000000000000000000 ) ) ;
#750 = CARTESIAN_POINT ( 'NONE',  ( 5.499999999999999100, 2.999999999999999600, 100.0000000000000000 ) ) ;
#751 = DIRECTION ( 'NONE',  ( 0.06013195402367757500, 0.9981904367931473400, 0.0000000000000000000 ) ) ;
#752 = DIRECTION ( 'NONE',  ( -1.000000000000000000, 0.0000000000000000000, 0.0000000000000000000 ) ) ;
#753 = CARTESIAN_POINT ( 'NONE',  ( -5.999999999999998200, 11.79999999999998800, 100.0000000000000000 ) ) ;
#754 = DIRECTION ( 'NONE',  ( 1.000000000000000000, 0.0000000000000000000, 0.0000000000000000000 ) ) ;
#755 = DIRECTION ( 'NONE',  ( -0.06013195402367734600, 0.9981904367931473400, 0.0000000000000000000 ) ) ;
#756 = CARTESIAN_POINT ( 'NONE',  ( -5.500000000000000900, 2.999999999999997800, 100.0000000000000000 ) ) ;
#757 = CARTESIAN_POINT ( 'NONE',  ( -5.999999999999998200, 11.30000000000000200, 100.0000000000000000 ) ) ;
#758 = CARTESIAN_POINT ( 'NONE',  ( -5.999999999999998200, 11.30000000000000200, 100.0000000000000000 ) ) ;
#759 = DIRECTION ( 'NONE',  ( 0.5001679568322590100, 0.8659284121440082900, 0.0000000000000000000 ) ) ;
#760 = DIRECTION ( 'NONE',  ( 1.000000000000000000, 0.0000000000000000000, 0.0000000000000000000 ) ) ;
#761 = CARTESIAN_POINT ( 'NONE',  ( -4.092114941824109800, 9.740798760930566400, 100.0000000000000000 ) ) ;
#762 = DIRECTION ( 'NONE',  ( -0.0000000000000000000, -0.0000000000000000000, -1.000000000000000000 ) ) ;
#763 = DIRECTION ( 'NONE',  ( 0.5001679568322590100, 0.8659284121440082900, 0.0000000000000000000 ) ) ;
#764 = CARTESIAN_POINT ( 'NONE',  ( -5.999999999999998200, 11.30000000000000200, 0.0000000000000000000 ) ) ;
#765 = CARTESIAN_POINT ( 'NONE',  ( -2.502621014441326800, 7.672306816801903300, 100.0000000000000000 ) ) ;
#766 = DIRECTION ( 'NONE',  ( -0.0000000000000000000, -0.0000000000000000000, -1.000000000000000000 ) ) ;
#767 = DIRECTION ( 'NONE',  ( 0.0000000000000000000, 0.0000000000000000000, 1.000000000000000000 ) ) ;
#768 = DIRECTION ( 'NONE',  ( 0.0000000000000000000, 1.000000000000000000, 0.0000000000000000000 ) ) ;
#769 = CARTESIAN_POINT ( 'NONE',  ( 5.000000000000050600, 11.30000000000000200, 100.0000000000000000 ) ) ;
#770 = DIRECTION ( 'NONE',  ( 1.000000000000000000, 0.0000000000000000000, 0.0000000000000000000 ) ) ;
#771 = CARTESIAN_POINT ( 'NONE',  ( 5.499999999999999100, 2.999999999999999600, 0.0000000000000000000 ) ) ;
#772 = DIRECTION ( 'NONE',  ( -0.0000000000000000000, -0.0000000000000000000, -1.000000000000000000 ) ) ;
#773 = DIRECTION ( 'NONE',  ( 1.000000000000000000, 0.0000000000000000000, 0.0000000000000000000 ) ) ;
#774 = CARTESIAN_POINT ( 'NONE',  ( -4.495006383403180400, 3.052800830717270900, 0.0000000000000000000 ) ) ;
#775 = DIRECTION ( 'NONE',  ( 1.000000000000000000, 0.0000000000000000000, 0.0000000000000000000 ) ) ;
#776 = CARTESIAN_POINT ( 'NONE',  ( -3.097254791757642500, 8.242294784857410400, 0.0000000000000000000 ) ) ;
#777 = DIRECTION ( 'NONE',  ( -0.8659284121440297100, 0.5001679568322221500, 0.0000000000000000000 ) ) ;
#778 = CARTESIAN_POINT ( 'NONE',  ( -4.576436455808483600, 0.0000000000000000000, 100.0000000000000000 ) ) ;
#779 = CARTESIAN_POINT ( 'NONE',  ( -2.697120426291864000, 8.935037514572634600, 100.0000000000000000 ) ) ;
#780 = CARTESIAN_POINT ( 'NONE',  ( -4.000000000000000000, 12.29999999999999000, 0.0000000000000000000 ) ) ;
#781 = DIRECTION ( 'NONE',  ( -0.0000000000000000000, -0.0000000000000000000, -1.000000000000000000 ) ) ;
#782 = CARTESIAN_POINT ( 'NONE',  ( -5.499999999999998200, 11.79999999999998800, 100.0000000000000000 ) ) ;
#783 = CARTESIAN_POINT ( 'NONE',  ( -2.502621014441326800, 7.672306816801903300, 0.0000000000000000000 ) ) ;
#784 = CARTESIAN_POINT ( 'NONE',  ( -4.000000000000000000, 11.26990679521095600, 100.0000000000000000 ) ) ;
#785 = DIRECTION ( 'NONE',  ( 0.0000000000000000000, 0.0000000000000000000, 1.000000000000000000 ) ) ;
#786 = CARTESIAN_POINT ( 'NONE',  ( 4.159085037218349400, 8.629095177385997000, 100.0000000000000000 ) ) ;
#787 = DIRECTION ( 'NONE',  ( 1.000000000000000000, 0.0000000000000000000, 0.0000000000000000000 ) ) ;
#788 = DIRECTION ( 'NONE',  ( 0.1643989873053568200, -0.9863939238321437500, 0.0000000000000000000 ) ) ;
#789 = DIRECTION ( 'NONE',  ( 0.0000000000000000000, 0.0000000000000000000, 1.000000000000000000 ) ) ;
#790 = DIRECTION ( 'NONE',  ( -0.0000000000000000000, -0.0000000000000000000, -1.000000000000000000 ) ) ;
#791 = CARTESIAN_POINT ( 'NONE',  ( -4.000000000000000000, 12.29999999999999000, 100.0000000000000000 ) ) ;
#792 = CARTESIAN_POINT ( 'NONE',  ( 5.999999999999998200, 11.30000000000000200, 0.0000000000000000000 ) ) ;
#793 = CARTESIAN_POINT ( 'NONE',  ( 5.499999999999999100, 2.999999999999999600, 100.0000000000000000 ) ) ;
#794 = DIRECTION ( 'NONE',  ( 1.000000000000000000, 0.0000000000000000000, 0.0000000000000000000 ) ) ;
#795 = DIRECTION ( 'NONE',  ( 1.000000000000000000, 0.0000000000000000000, 0.0000000000000000000 ) ) ;
#796 = DIRECTION ( 'NONE',  ( 1.000000000000000000, 0.0000000000000000000, 0.0000000000000000000 ) ) ;
#797 = CARTESIAN_POINT ( 'NONE',  ( 4.576436455808483600, 0.4999999999999971700, 100.0000000000000000 ) ) ;
#798 = DIRECTION ( 'NONE',  ( 0.0000000000000000000, 0.0000000000000000000, 1.000000000000000000 ) ) ;
#799 = CARTESIAN_POINT ( 'NONE',  ( -4.000000000000000000, 12.29999999999999000, 100.0000000000000000 ) ) ;
#800 = DIRECTION ( 'NONE',  ( 1.000000000000000000, 0.0000000000000000000, 0.0000000000000000000 ) ) ;
#801 = DIRECTION ( 'NONE',  ( -0.0000000000000000000, -0.0000000000000000000, -1.000000000000000000 ) ) ;
#802 = CARTESIAN_POINT ( 'NONE',  ( -5.000000000000050600, 11.30000000000000200, 100.0000000000000000 ) ) ;
#803 = CARTESIAN_POINT ( 'NONE',  ( -5.999999999999998200, 11.79999999999998800, 0.0000000000000000000 ) ) ;
#804 = CARTESIAN_POINT ( 'NONE',  ( 5.069633417724555000, 0.4178005063473173600, 0.0000000000000000000 ) ) ;
#805 = DIRECTION ( 'NONE',  ( -0.06013195402367734600, 0.9981904367931473400, 0.0000000000000000000 ) ) ;
#806 = DIRECTION ( 'NONE',  ( -0.0000000000000000000, -0.0000000000000000000, -1.000000000000000000 ) ) ;
#807 = DIRECTION ( 'NONE',  ( 0.1643989873053560100, 0.9863939238321438600, 0.0000000000000000000 ) ) ;
#808 = CARTESIAN_POINT ( 'NONE',  ( 4.576436455808483600, -1.301042606982605300E-015, 100.0000000000000000 ) ) ;
#809 = DIRECTION ( 'NONE',  ( 0.0000000000000000000, 1.000000000000000000, 0.0000000000000000000 ) ) ;
#810 = DIRECTION ( 'NONE',  ( 0.0000000000000000000, -1.000000000000000000, 0.0000000000000000000 ) ) ;
#811 = CARTESIAN_POINT ( 'NONE',  ( 5.000000000000050600, 11.30000000000000200, 0.0000000000000000000 ) ) ;
#812 = CARTESIAN_POINT ( 'NONE',  ( 5.069633417724555000, 0.4178005063473173600, 100.0000000000000000 ) ) ;
#813 = DIRECTION ( 'NONE',  ( 0.0000000000000000000, 0.0000000000000000000, 1.000000000000000000 ) ) ;
#814 = CARTESIAN_POINT ( 'NONE',  ( -4.000000000000000000, 11.26990679521095600, 0.0000000000000000000 ) ) ;
#815 = CARTESIAN_POINT ( 'NONE',  ( 5.000000000000050600, 11.30000000000000200, 100.0000000000000000 ) ) ;
#816 = DIRECTION ( 'NONE',  ( -0.0000000000000000000, -0.0000000000000000000, -1.000000000000000000 ) ) ;
#817 = DIRECTION ( 'NONE',  ( -0.0000000000000000000, -0.0000000000000000000, -1.000000000000000000 ) ) ;
#818 = DIRECTION ( 'NONE',  ( -1.000000000000000000, 0.0000000000000000000, 0.0000000000000000000 ) ) ;
#819 = CARTESIAN_POINT ( 'NONE',  ( 4.576436455808483600, 0.4999999999999971700, 0.0000000000000000000 ) ) ;
#820 = CARTESIAN_POINT ( 'NONE',  ( -5.500000000000000900, 2.999999999999997800, 0.0000000000000000000 ) ) ;
#821 = DIRECTION ( 'NONE',  ( -0.0000000000000000000, -0.0000000000000000000, -1.000000000000000000 ) ) ;
#822 = DIRECTION ( 'NONE',  ( -0.06013195402367754000, -0.9981904367931473400, 0.0000000000000000000 ) ) ;
#823 = CARTESIAN_POINT ( 'NONE',  ( -5.069633417724553200, 0.4178005063473177500, 100.0000000000000000 ) ) ;
#824 = DIRECTION ( 'NONE',  ( 0.1643989873053560100, 0.9863939238321438600, 0.0000000000000000000 ) ) ;
#825 = CARTESIAN_POINT ( 'NONE',  ( -4.576436455808483600, 0.4999999999999955600, 100.0000000000000000 ) ) ;
#826 = CARTESIAN_POINT ( 'NONE',  ( -5.499999999999998200, 12.29999999999998800, 100.0000000000000000 ) ) ;
#827 = DIRECTION ( 'NONE',  ( 0.1643989873053568200, -0.9863939238321437500, 0.0000000000000000000 ) ) ;
#828 = DIRECTION ( 'NONE',  ( -0.0000000000000000000, -0.0000000000000000000, -1.000000000000000000 ) ) ;
#829 = CARTESIAN_POINT ( 'NONE',  ( 4.000000000000000000, 12.29999999999999000, 100.0000000000000000 ) ) ;
#830 = DIRECTION ( 'NONE',  ( -0.06013195402367754000, -0.9981904367931473400, 0.0000000000000000000 ) ) ;
#831 = CARTESIAN_POINT ( 'NONE',  ( 3.097254791757642500, 8.242294784857410400, 100.0000000000000000 ) ) ;
#832 = DIRECTION ( 'NONE',  ( 0.0000000000000000000, 1.000000000000000000, 0.0000000000000000000 ) ) ;
#833 = DIRECTION ( 'NONE',  ( 0.0000000000000000000, 0.0000000000000000000, 1.000000000000000000 ) ) ;
#834 = DIRECTION ( 'NONE',  ( -0.0000000000000000000, -0.0000000000000000000, -1.000000000000000000 ) ) ;
#835 = DIRECTION ( 'NONE',  ( 0.0000000000000000000, 0.0000000000000000000, 1.000000000000000000 ) ) ;
#836 = DIRECTION ( 'NONE',  ( 1.000000000000000000, 0.0000000000000000000, 0.0000000000000000000 ) ) ;
#837 = DIRECTION ( 'NONE',  ( 1.000000000000000000, 0.0000000000000000000, 0.0000000000000000000 ) ) ;
#838 = CARTESIAN_POINT ( 'NONE',  ( -4.576436455808483600, 0.0000000000000000000, 0.0000000000000000000 ) ) ;
#839 = DIRECTION ( 'NONE',  ( -0.0000000000000000000, -0.0000000000000000000, -1.000000000000000000 ) ) ;
#840 = CARTESIAN_POINT ( 'NONE',  ( -5.499999999999998200, 11.79999999999998800, 0.0000000000000000000 ) ) ;
#841 = DIRECTION ( 'NONE',  ( 1.000000000000000000, 0.0000000000000000000, 0.0000000000000000000 ) ) ;
#842 = CARTESIAN_POINT ( 'NONE',  ( -5.500000000000000900, 2.999999999999997800, 100.0000000000000000 ) ) ;
#843 = CARTESIAN_POINT ( 'NONE',  ( -4.576436455808483600, 0.0000000000000000000, 100.0000000000000000 ) ) ;
#844 = DIRECTION ( 'NONE',  ( -0.0000000000000000000, -0.0000000000000000000, -1.000000000000000000 ) ) ;
#845 = DIRECTION ( 'NONE',  ( 0.0000000000000000000, 0.0000000000000000000, 1.000000000000000000 ) ) ;
#846 = CARTESIAN_POINT ( 'NONE',  ( -5.999999999999998200, 11.79999999999998800, 100.0000000000000000 ) ) ;
#847 = DIRECTION ( 'NONE',  ( -0.0000000000000000000, -0.0000000000000000000, -1.000000000000000000 ) ) ;
#848 = DIRECTION ( 'NONE',  ( 1.000000000000000000, 0.0000000000000000000, 0.0000000000000000000 ) ) ;
#849 = CARTESIAN_POINT ( 'NONE',  ( 5.999999999999998200, 11.30000000000000200, 100.0000000000000000 ) ) ;
#850 = CARTESIAN_POINT ( 'NONE',  ( 5.069633417724555000, 0.4178005063473173600, 100.0000000000000000 ) ) ;
#851 = CARTESIAN_POINT ( 'NONE',  ( 5.999999999999998200, 11.30000000000000200, 100.0000000000000000 ) ) ;
#852 = CARTESIAN_POINT ( 'NONE',  ( -4.576436455808483600, 0.4999999999999955600, 0.0000000000000000000 ) ) ;
#853 = DIRECTION ( 'NONE',  ( -0.0000000000000000000, -0.0000000000000000000, -1.000000000000000000 ) ) ;
#854 = CARTESIAN_POINT ( 'NONE',  ( -5.000000000000050600, 11.30000000000000200, 100.0000000000000000 ) ) ;
#855 = DIRECTION ( 'NONE',  ( -0.0000000000000000000, -0.0000000000000000000, -1.000000000000000000 ) ) ;
#856 = DIRECTION ( 'NONE',  ( 0.0000000000000000000, -1.000000000000000000, 0.0000000000000000000 ) ) ;
#857 = DIRECTION ( 'NONE',  ( 0.0000000000000000000, 1.000000000000000000, 0.0000000000000000000 ) ) ;
#858 = CARTESIAN_POINT ( 'NONE',  ( 4.000000000000000000, 11.26990679521087200, 0.0000000000000000000 ) ) ;
#859 = DIRECTION ( 'NONE',  ( -0.0000000000000000000, -0.0000000000000000000, -1.000000000000000000 ) ) ;
#860 = CARTESIAN_POINT ( 'NONE',  ( -5.000000000000050600, 11.30000000000000200, 0.0000000000000000000 ) ) ;
#861 = CARTESIAN_POINT ( 'NONE',  ( -4.152872911616968900, 0.9999999999999993300, 100.0000000000000000 ) ) ;
#862 = CARTESIAN_POINT ( 'NONE',  ( 3.097254791757642500, 8.242294784857410400, 0.0000000000000000000 ) ) ;
#863 = CARTESIAN_POINT ( 'NONE',  ( 4.152872911616967100, 1.000000000000001600, 100.0000000000000000 ) ) ;
#864 = CARTESIAN_POINT ( 'NONE',  ( 2.502621014441322800, 7.672306816801905100, 100.0000000000000000 ) ) ;
#865 = DIRECTION ( 'NONE',  ( -1.000000000000000000, -2.610728032280087700E-016, 0.0000000000000000000 ) ) ;
#866 = CARTESIAN_POINT ( 'NONE',  ( 4.152872911616967100, 1.000000000000001600, 0.0000000000000000000 ) ) ;
#867 = CARTESIAN_POINT ( 'NONE',  ( 5.499999999999998200, 12.29999999999999000, 0.0000000000000000000 ) ) ;
#868 = DIRECTION ( 'NONE',  ( 1.000000000000000000, 0.0000000000000000000, 0.0000000000000000000 ) ) ;
#869 = DIRECTION ( 'NONE',  ( -0.0000000000000000000, -0.0000000000000000000, -1.000000000000000000 ) ) ;
#870 = CARTESIAN_POINT ( 'NONE',  ( 4.159085037218349400, 8.629095177385997000, 0.0000000000000000000 ) ) ;
#871 = DIRECTION ( 'NONE',  ( 1.000000000000000000, 0.0000000000000000000, 0.0000000000000000000 ) ) ;
#872 = DIRECTION ( 'NONE',  ( -0.0000000000000000000, -0.0000000000000000000, -1.000000000000000000 ) ) ;
#873 = DIRECTION ( 'NONE',  ( 0.06013195402367763800, -0.9981904367931473400, 0.0000000000000000000 ) ) ;
#874 = DIRECTION ( 'NONE',  ( -1.000000000000000000, 0.0000000000000000000, 0.0000000000000000000 ) ) ;
#875 = DIRECTION ( 'NONE',  ( -0.0000000000000000000, -0.0000000000000000000, -1.000000000000000000 ) ) ;
#876 = CARTESIAN_POINT ( 'NONE',  ( 2.404512062042419200, 7.842160419391622600, 100.0000000000000000 ) ) ;
#877 = DIRECTION ( 'NONE',  ( -1.000000000000000000, 0.0000000000000000000, 0.0000000000000000000 ) ) ;
#878 = DIRECTION ( 'NONE',  ( -0.0000000000000000000, -0.0000000000000000000, -1.000000000000000000 ) ) ;
#879 = CARTESIAN_POINT ( 'NONE',  ( 4.092114941824105400, 9.740798760930568200, 100.0000000000000000 ) ) ;
#880 = CARTESIAN_POINT ( 'NONE',  ( 4.000000000000000000, 11.26990679521087200, 100.0000000000000000 ) ) ;
#881 = CARTESIAN_POINT ( 'NONE',  ( 2.297254791757641400, 8.242294784857410400, 100.0000000000000000 ) ) ;
#882 = CARTESIAN_POINT ( 'NONE',  ( 5.499999999999998200, 12.29999999999999000, 100.0000000000000000 ) ) ;
#883 = DIRECTION ( 'NONE',  ( 0.8659284121440289400, 0.5001679568322231500, 0.0000000000000000000 ) ) ;
#884 = DIRECTION ( 'NONE',  ( 0.0000000000000000000, 0.0000000000000000000, 1.000000000000000000 ) ) ;
#885 = CARTESIAN_POINT ( 'NONE',  ( 5.499999999999998200, 11.79999999999998800, 100.0000000000000000 ) ) ;
#886 = DIRECTION ( 'NONE',  ( 0.0000000000000000000, 0.0000000000000000000, 1.000000000000000000 ) ) ;
#887 = CARTESIAN_POINT ( 'NONE',  ( 4.495006383403182100, 3.052800830717297100, 100.0000000000000000 ) ) ;
#888 = DIRECTION ( 'NONE',  ( -0.1643989873053567100, -0.9863939238321437500, 0.0000000000000000000 ) ) ;
#889 = DIRECTION ( 'NONE',  ( 0.06013195402367763800, -0.9981904367931473400, 0.0000000000000000000 ) ) ;
#890 = DIRECTION ( 'NONE',  ( -0.0000000000000000000, -0.0000000000000000000, -1.000000000000000000 ) ) ;
#891 = CARTESIAN_POINT ( 'NONE',  ( 4.495006383403182100, 3.052800830717297100, 100.0000000000000000 ) ) ;
#892 = CARTESIAN_POINT ( 'NONE',  ( 4.159085037218349400, 8.629095177385997000, 100.0000000000000000 ) ) ;
#893 = DIRECTION ( 'NONE',  ( 0.06013195402367829700, -0.9981904367931472300, 0.0000000000000000000 ) ) ;
#894 = CARTESIAN_POINT ( 'NONE',  ( 5.499999999999998200, 12.29999999999999000, 100.0000000000000000 ) ) ;
#895 = DIRECTION ( 'NONE',  ( 0.0000000000000000000, -1.000000000000000000, 0.0000000000000000000 ) ) ;
#896 = DIRECTION ( 'NONE',  ( -1.000000000000000000, -2.610728032280087700E-016, 0.0000000000000000000 ) ) ;
#897 = CARTESIAN_POINT ( 'NONE',  ( 5.999999999999998200, 11.79999999999998800, 100.0000000000000000 ) ) ;
#898 = CARTESIAN_POINT ( 'NONE',  ( 2.502621014441322800, 7.672306816801905100, 0.0000000000000000000 ) ) ;
#899 = DIRECTION ( 'NONE',  ( -0.0000000000000000000, -0.0000000000000000000, -1.000000000000000000 ) ) ;
#900 = CARTESIAN_POINT ( 'NONE',  ( 4.152872911616967100, 1.000000000000001600, 100.0000000000000000 ) ) ;
#901 = DIRECTION ( 'NONE',  ( -0.0000000000000000000, -0.0000000000000000000, -1.000000000000000000 ) ) ;
#902 = CARTESIAN_POINT ( 'NONE',  ( 4.092114941824105400, 9.740798760930568200, 100.0000000000000000 ) ) ;
#903 = CARTESIAN_POINT ( 'NONE',  ( -5.000000000000050600, 11.30000000000000200, 0.0000000000000000000 ) ) ;
#904 = CARTESIAN_POINT ( 'NONE',  ( 4.092114941824105400, 9.740798760930568200, 100.0000000000000000 ) ) ;
#905 = DIRECTION ( 'NONE',  ( -0.8659284121440273800, -0.5001679568322260300, 0.0000000000000000000 ) ) ;
#906 = DIRECTION ( 'NONE',  ( 0.06013195402367829700, -0.9981904367931472300, 0.0000000000000000000 ) ) ;
#907 = CARTESIAN_POINT ( 'NONE',  ( 5.499999999999998200, 11.79999999999998800, 0.0000000000000000000 ) ) ;
#908 = DIRECTION ( 'NONE',  ( 0.0000000000000000000, 0.0000000000000000000, 1.000000000000000000 ) ) ;
#909 = CARTESIAN_POINT ( 'NONE',  ( 4.000000000000000000, 11.26990679521087200, 100.0000000000000000 ) ) ;
#910 = DIRECTION ( 'NONE',  ( -0.8659284121440273800, -0.5001679568322260300, 0.0000000000000000000 ) ) ;
#911 = CARTESIAN_POINT ( 'NONE',  ( 3.097254791757642500, 8.242294784857410400, 100.0000000000000000 ) ) ;
#912 = DIRECTION ( 'NONE',  ( 0.5001679568322458000, -0.8659284121440158400, 0.0000000000000000000 ) ) ;
#913 = DIRECTION ( 'NONE',  ( 1.000000000000000000, 0.0000000000000000000, 0.0000000000000000000 ) ) ;
#914 = CARTESIAN_POINT ( 'NONE',  ( 2.404512062042419200, 7.842160419391622600, 100.0000000000000000 ) ) ;
#915 = DIRECTION ( 'NONE',  ( -0.0000000000000000000, -0.0000000000000000000, -1.000000000000000000 ) ) ;
#916 = CARTESIAN_POINT ( 'NONE',  ( 4.000000000000000000, 12.29999999999999000, 0.0000000000000000000 ) ) ;
#917 = CARTESIAN_POINT ( 'NONE',  ( 2.404512062042419200, 7.842160419391622600, 0.0000000000000000000 ) ) ;
#918 = CARTESIAN_POINT ( 'NONE',  ( -4.152872911616968900, 0.9999999999999993300, 0.0000000000000000000 ) ) ;
#919 = DIRECTION ( 'NONE',  ( 1.000000000000000000, 0.0000000000000000000, 0.0000000000000000000 ) ) ;
#920 = DIRECTION ( 'NONE',  ( -0.1643989873053570100, 0.9863939238321437500, 0.0000000000000000000 ) ) ;
#921 = CARTESIAN_POINT ( 'NONE',  ( 2.502621014441322800, 7.672306816801905100, 100.0000000000000000 ) ) ;
#922 = CARTESIAN_POINT ( 'NONE',  ( 2.697120426291863500, 8.935037514572634600, 100.0000000000000000 ) ) ;
#923 = DIRECTION ( 'NONE',  ( -0.0000000000000000000, -0.0000000000000000000, -1.000000000000000000 ) ) ;
#924 = CARTESIAN_POINT ( 'NONE',  ( 4.092114941824105400, 9.740798760930568200, 0.0000000000000000000 ) ) ;
#925 = DIRECTION ( 'NONE',  ( 0.5001679568322458000, -0.8659284121440158400, 0.0000000000000000000 ) ) ;
#926 = DIRECTION ( 'NONE',  ( -0.0000000000000000000, -0.0000000000000000000, -1.000000000000000000 ) ) ;
#927 = DIRECTION ( 'NONE',  ( 0.0000000000000000000, 0.0000000000000000000, 1.000000000000000000 ) ) ;
#928 = ORIENTED_EDGE ( 'NONE', *, *, #325, .F. ) ;
#929 = ORIENTED_EDGE ( 'NONE', *, *, #340, .T. ) ;
#930 = ORIENTED_EDGE ( 'NONE', *, *, #327, .T. ) ;
#931 = ORIENTED_EDGE ( 'NONE', *, *, #330, .T. ) ;
#932 = ORIENTED_EDGE ( 'NONE', *, *, #331, .T. ) ;
#933 = ORIENTED_EDGE ( 'NONE', *, *, #328, .F. ) ;
#934 = ORIENTED_EDGE ( 'NONE', *, *, #361, .F. ) ;
#935 = ORIENTED_EDGE ( 'NONE', *, *, #345, .F. ) ;
#936 = ORIENTED_EDGE ( 'NONE', *, *, #354, .T. ) ;
#937 = ORIENTED_EDGE ( 'NONE', *, *, #320, .F. ) ;
#938 = EDGE_LOOP ( 'NONE', ( #1179, #1175, #1170, #1180 ) ) ;
#939 = ORIENTED_EDGE ( 'NONE', *, *, #341, .T. ) ;
#940 = ORIENTED_EDGE ( 'NONE', *, *, #325, .T. ) ;
#941 = ORIENTED_EDGE ( 'NONE', *, *, #356, .F. ) ;
#942 = EDGE_LOOP ( 'NONE', ( #1139, #1116, #1148, #1126 ) ) ;
#943 = EDGE_LOOP ( 'NONE', ( #1113, #1156, #1135, #1151 ) ) ;
#944 = EDGE_LOOP ( 'NONE', ( #1107, #1123, #1106, #1138 ) ) ;
#945 = EDGE_LOOP ( 'NONE', ( #1167, #1152, #1149, #1173 ) ) ;
#946 = EDGE_LOOP ( 'NONE', ( #1165, #1158, #1153, #1176 ) ) ;
#947 = EDGE_LOOP ( 'NONE', ( #1112, #1143, #1082, #1144 ) ) ;
#948 = EDGE_LOOP ( 'NONE', ( #1198, #1196, #1185, #1192 ) ) ;
#949 = EDGE_LOOP ( 'NONE', ( #1140, #1121, #1155, #1174 ) ) ;
#950 = EDGE_LOOP ( 'NONE', ( #1178, #1177, #1188, #1195 ) ) ;
#951 = ORIENTED_EDGE ( 'NONE', *, *, #349, .T. ) ;
#952 = ORIENTED_EDGE ( 'NONE', *, *, #357, .F. ) ;
#953 = EDGE_LOOP ( 'NONE', ( #1166, #1118, #1159, #1120 ) ) ;
#954 = EDGE_LOOP ( 'NONE', ( #1171, #1168, #1160, #1127 ) ) ;
#955 = EDGE_LOOP ( 'NONE', ( #1124, #1130, #1134, #1141 ) ) ;
#956 = EDGE_LOOP ( 'NONE', ( #1208, #1206, #935, #932 ) ) ;
#957 = EDGE_LOOP ( 'NONE', ( #1100, #1094, #1058, #1095 ) ) ;
#958 = EDGE_LOOP ( 'NONE', ( #1072, #1102, #1111, #1145 ) ) ;
#959 = EDGE_LOOP ( 'NONE', ( #1098, #1070, #1078, #1089 ) ) ;
#960 = ORIENTED_EDGE ( 'NONE', *, *, #330, .F. ) ;
#961 = EDGE_LOOP ( 'NONE', ( #1201, #1202, #1205, #1207 ) ) ;
#962 = EDGE_LOOP ( 'NONE', ( #936, #928, #933, #929 ) ) ;
#963 = EDGE_LOOP ( 'NONE', ( #1162, #1157, #1142, #1114 ) ) ;
#964 = EDGE_LOOP ( 'NONE', ( #1172, #1150, #1117, #1161 ) ) ;
#965 = VERTEX_POINT ( 'NONE', #499 ) ;
#966 = VERTEX_POINT ( 'NONE', #903 ) ;
#967 = VERTEX_POINT ( 'NONE', #533 ) ;
#968 = VERTEX_POINT ( 'NONE', #904 ) ;
#969 = VERTEX_POINT ( 'NONE', #513 ) ;
#970 = VERTEX_POINT ( 'NONE', #500 ) ;
#971 = EDGE_LOOP ( 'NONE', ( #1199, #1194, #1197, #1184 ) ) ;
#972 = VERTEX_POINT ( 'NONE', #504 ) ;
#973 = VERTEX_POINT ( 'NONE', #494 ) ;
#974 = VERTEX_POINT ( 'NONE', #528 ) ;
#975 = VERTEX_POINT ( 'NONE', #523 ) ;
#976 = VERTEX_POINT ( 'NONE', #525 ) ;
#977 = VERTEX_POINT ( 'NONE', #538 ) ;
#978 = EDGE_LOOP ( 'NONE', ( #939, #960, #952, #940 ) ) ;
#979 = EDGE_LOOP ( 'NONE', ( #1181, #1190, #1191, #1203 ) ) ;
#980 = EDGE_LOOP ( 'NONE', ( #1090, #1081, #1085, #1091 ) ) ;
#981 = VERTEX_POINT ( 'NONE', #519 ) ;
#982 = VERTEX_POINT ( 'NONE', #539 ) ;
#983 = VERTEX_POINT ( 'NONE', #540 ) ;
#984 = EDGE_LOOP ( 'NONE', ( #1154, #1169, #1163, #1164 ) ) ;
#985 = VERTEX_POINT ( 'NONE', #534 ) ;
#986 = EDGE_LOOP ( 'NONE', ( #930, #934, #937, #931 ) ) ;
#987 = EDGE_LOOP ( 'NONE', ( #1056, #1105, #1065, #1104 ) ) ;
#988 = VERTEX_POINT ( 'NONE', #535 ) ;
#989 = VERTEX_POINT ( 'NONE', #515 ) ;
#990 = VERTEX_POINT ( 'NONE', #541 ) ;
#991 = VERTEX_POINT ( 'NONE', #508 ) ;
#992 = VERTEX_POINT ( 'NONE', #503 ) ;
#993 = VERTEX_POINT ( 'NONE', #526 ) ;
#994 = VERTEX_POINT ( 'NONE', #505 ) ;
#995 = VERTEX_POINT ( 'NONE', #542 ) ;
#996 = VERTEX_POINT ( 'NONE', #511 ) ;
#997 = EDGE_LOOP ( 'NONE', ( #1039, #1032, #1093, #1103, #1029, #1086, #1073, #1037, #1079, #1066, #1088, #1048, #1044, #1050, #1038, #1036, #1040, #1026, #1053, #1041, #1033, #1074, #1063, #1092, #1083, #1075, #1043, #1046, #1025, #1055, #1030, #1031, #1034 ) ) ;
#998 = VERTEX_POINT ( 'NONE', #507 ) ;
#999 = VERTEX_POINT ( 'NONE', #527 ) ;
#1000 = VERTEX_POINT ( 'NONE', #512 ) ;
#1001 = VERTEX_POINT ( 'NONE', #516 ) ;
#1002 = EDGE_LOOP ( 'NONE', ( #1059, #1064, #1061, #1071 ) ) ;
#1003 = VERTEX_POINT ( 'NONE', #506 ) ;
#1004 = VERTEX_POINT ( 'NONE', #521 ) ;
#1005 = VERTEX_POINT ( 'NONE', #509 ) ;
#1006 = VERTEX_POINT ( 'NONE', #517 ) ;
#1007 = VERTEX_POINT ( 'NONE', #529 ) ;
#1008 = EDGE_LOOP ( 'NONE', ( #951, #941, #1067, #1101 ) ) ;
#1009 = EDGE_LOOP ( 'NONE', ( #1183, #1204, #1182, #1187 ) ) ;
#1010 = VERTEX_POINT ( 'NONE', #510 ) ;
#1011 = VERTEX_POINT ( 'NONE', #514 ) ;
#1012 = EDGE_LOOP ( 'NONE', ( #1096, #1097, #1087, #1077 ) ) ;
#1013 = VERTEX_POINT ( 'NONE', #530 ) ;
#1014 = VERTEX_POINT ( 'NONE', #518 ) ;
#1015 = EDGE_LOOP ( 'NONE', ( #1147, #1062, #1128, #1146, #1136, #1125, #1115, #1122, #1137, #1131, #1129, #1110, #1080, #1060, #1133, #1119, #1108, #1132, #1109, #1035, #1047, #1042, #1076, #1049, #1069, #1099, #1057, #1084, #1027, #1028, #1045, #1051, #1052 ) ) ;
#1016 = VERTEX_POINT ( 'NONE', #531 ) ;
#1017 = VERTEX_POINT ( 'NONE', #520 ) ;
#1018 = VERTEX_POINT ( 'NONE', #536 ) ;
#1019 = VERTEX_POINT ( 'NONE', #522 ) ;
#1020 = EDGE_LOOP ( 'NONE', ( #1186, #1200, #1189, #1193 ) ) ;
#1021 = VERTEX_POINT ( 'NONE', #532 ) ;
#1022 = VERTEX_POINT ( 'NONE', #537 ) ;
#1023 = VERTEX_POINT ( 'NONE', #543 ) ;
#1024 = VERTEX_POINT ( 'NONE', #544 ) ;
#1025 = ORIENTED_EDGE ( 'NONE', *, *, #401, .F. ) ;
#1026 = ORIENTED_EDGE ( 'NONE', *, *, #314, .F. ) ;
#1027 = ORIENTED_EDGE ( 'NONE', *, *, #344, .T. ) ;
#1028 = ORIENTED_EDGE ( 'NONE', *, *, #342, .T. ) ;
#1029 = ORIENTED_EDGE ( 'NONE', *, *, #335, .F. ) ;
#1030 = ORIENTED_EDGE ( 'NONE', *, *, #366, .F. ) ;
#1031 = ORIENTED_EDGE ( 'NONE', *, *, #387, .F. ) ;
#1032 = ORIENTED_EDGE ( 'NONE', *, *, #351, .F. ) ;
#1033 = ORIENTED_EDGE ( 'NONE', *, *, #315, .F. ) ;
#1034 = ORIENTED_EDGE ( 'NONE', *, *, #378, .F. ) ;
#1035 = ORIENTED_EDGE ( 'NONE', *, *, #324, .T. ) ;
#1036 = ORIENTED_EDGE ( 'NONE', *, *, #307, .F. ) ;
#1037 = ORIENTED_EDGE ( 'NONE', *, *, #355, .F. ) ;
#1038 = ORIENTED_EDGE ( 'NONE', *, *, #338, .F. ) ;
#1039 = ORIENTED_EDGE ( 'NONE', *, *, #385, .F. ) ;
#1040 = ORIENTED_EDGE ( 'NONE', *, *, #313, .F. ) ;
#1041 = ORIENTED_EDGE ( 'NONE', *, *, #306, .F. ) ;
#1042 = ORIENTED_EDGE ( 'NONE', *, *, #328, .T. ) ;
#1043 = ORIENTED_EDGE ( 'NONE', *, *, #382, .F. ) ;
#1044 = ORIENTED_EDGE ( 'NONE', *, *, #354, .F. ) ;
#1045 = ORIENTED_EDGE ( 'NONE', *, *, #329, .T. ) ;
#1046 = ORIENTED_EDGE ( 'NONE', *, *, #375, .F. ) ;
#1047 = ORIENTED_EDGE ( 'NONE', *, *, #345, .T. ) ;
#1048 = ORIENTED_EDGE ( 'NONE', *, *, #341, .F. ) ;
#1049 = ORIENTED_EDGE ( 'NONE', *, *, #320, .T. ) ;
#1050 = ORIENTED_EDGE ( 'NONE', *, *, #323, .F. ) ;
#1051 = ORIENTED_EDGE ( 'NONE', *, *, #326, .T. ) ;
#1052 = ORIENTED_EDGE ( 'NONE', *, *, #360, .T. ) ;
#1053 = ORIENTED_EDGE ( 'NONE', *, *, #316, .F. ) ;
#1054 = VERTEX_POINT ( 'NONE', #550 ) ;
#1055 = ORIENTED_EDGE ( 'NONE', *, *, #381, .F. ) ;
#1056 = ORIENTED_EDGE ( 'NONE', *, *, #352, .T. ) ;
#1057 = ORIENTED_EDGE ( 'NONE', *, *, #337, .T. ) ;
#1058 = ORIENTED_EDGE ( 'NONE', *, *, #321, .F. ) ;
#1059 = ORIENTED_EDGE ( 'NONE', *, *, #333, .T. ) ;
#1060 = ORIENTED_EDGE ( 'NONE', *, *, #302, .T. ) ;
#1061 = ORIENTED_EDGE ( 'NONE', *, *, #329, .F. ) ;
#1062 = ORIENTED_EDGE ( 'NONE', *, *, #370, .T. ) ;
#1063 = ORIENTED_EDGE ( 'NONE', *, *, #379, .F. ) ;
#1064 = ORIENTED_EDGE ( 'NONE', *, *, #332, .F. ) ;
#1065 = ORIENTED_EDGE ( 'NONE', *, *, #322, .F. ) ;
#1066 = ORIENTED_EDGE ( 'NONE', *, *, #349, .F. ) ;
#1067 = ORIENTED_EDGE ( 'NONE', *, *, #347, .F. ) ;
#1068 = CLOSED_SHELL ( 'NONE', ( #5, #29, #7, #23, #4, #25, #8, #19, #1, #10, #12, #17, #3, #28, #6, #15, #24, #14, #18, #2, #20, #9, #21, #27, #26, #13, #16, #22, #35, #34, #11, #33, #30, #31, #32 ) ) ;
#1069 = ORIENTED_EDGE ( 'NONE', *, *, #347, .T. ) ;
#1070 = ORIENTED_EDGE ( 'NONE', *, *, #358, .F. ) ;
#1071 = ORIENTED_EDGE ( 'NONE', *, *, #348, .T. ) ;
#1072 = ORIENTED_EDGE ( 'NONE', *, *, #339, .T. ) ;
#1073 = ORIENTED_EDGE ( 'NONE', *, *, #352, .F. ) ;
#1074 = ORIENTED_EDGE ( 'NONE', *, *, #390, .F. ) ;
#1075 = ORIENTED_EDGE ( 'NONE', *, *, #394, .F. ) ;
#1076 = ORIENTED_EDGE ( 'NONE', *, *, #357, .T. ) ;
#1077 = ORIENTED_EDGE ( 'NONE', *, *, #358, .T. ) ;
#1078 = ORIENTED_EDGE ( 'NONE', *, *, #344, .F. ) ;
#1079 = ORIENTED_EDGE ( 'NONE', *, *, #346, .F. ) ;
#1080 = ORIENTED_EDGE ( 'NONE', *, *, #309, .T. ) ;
#1081 = ORIENTED_EDGE ( 'NONE', *, *, #359, .F. ) ;
#1082 = ORIENTED_EDGE ( 'NONE', *, *, #360, .F. ) ;
#1083 = ORIENTED_EDGE ( 'NONE', *, *, #380, .F. ) ;
#1084 = ORIENTED_EDGE ( 'NONE', *, *, #322, .T. ) ;
#1085 = ORIENTED_EDGE ( 'NONE', *, *, #337, .F. ) ;
#1086 = ORIENTED_EDGE ( 'NONE', *, *, #343, .F. ) ;
#1087 = ORIENTED_EDGE ( 'NONE', *, *, #342, .F. ) ;
#1088 = ORIENTED_EDGE ( 'NONE', *, *, #327, .F. ) ;
#1089 = ORIENTED_EDGE ( 'NONE', *, *, #336, .T. ) ;
#1090 = ORIENTED_EDGE ( 'NONE', *, *, #355, .T. ) ;
#1091 = ORIENTED_EDGE ( 'NONE', *, *, #350, .T. ) ;
#1092 = ORIENTED_EDGE ( 'NONE', *, *, #396, .F. ) ;
#1093 = ORIENTED_EDGE ( 'NONE', *, *, #339, .F. ) ;
#1094 = ORIENTED_EDGE ( 'NONE', *, *, #350, .F. ) ;
#1095 = ORIENTED_EDGE ( 'NONE', *, *, #356, .T. ) ;
#1096 = ORIENTED_EDGE ( 'NONE', *, *, #335, .T. ) ;
#1097 = ORIENTED_EDGE ( 'NONE', *, *, #348, .F. ) ;
#1098 = ORIENTED_EDGE ( 'NONE', *, *, #343, .T. ) ;
#1099 = ORIENTED_EDGE ( 'NONE', *, *, #321, .T. ) ;
#1100 = ORIENTED_EDGE ( 'NONE', *, *, #346, .T. ) ;
#1101 = ORIENTED_EDGE ( 'NONE', *, *, #361, .T. ) ;
#1102 = ORIENTED_EDGE ( 'NONE', *, *, #353, .F. ) ;
#1103 = ORIENTED_EDGE ( 'NONE', *, *, #333, .F. ) ;
#1104 = ORIENTED_EDGE ( 'NONE', *, *, #359, .T. ) ;
#1105 = ORIENTED_EDGE ( 'NONE', *, *, #336, .F. ) ;
#1106 = ORIENTED_EDGE ( 'NONE', *, *, #375, .T. ) ;
#1107 = ORIENTED_EDGE ( 'NONE', *, *, #362, .F. ) ;
#1108 = ORIENTED_EDGE ( 'NONE', *, *, #310, .T. ) ;
#1109 = ORIENTED_EDGE ( 'NONE', *, *, #308, .T. ) ;
#1110 = ORIENTED_EDGE ( 'NONE', *, *, #377, .T. ) ;
#1111 = ORIENTED_EDGE ( 'NONE', *, *, #326, .F. ) ;
#1112 = ORIENTED_EDGE ( 'NONE', *, *, #351, .T. ) ;
#1113 = ORIENTED_EDGE ( 'NONE', *, *, #385, .T. ) ;
#1114 = ORIENTED_EDGE ( 'NONE', *, *, #367, .T. ) ;
#1115 = ORIENTED_EDGE ( 'NONE', *, *, #362, .T. ) ;
#1116 = ORIENTED_EDGE ( 'NONE', *, *, #388, .F. ) ;
#1117 = ORIENTED_EDGE ( 'NONE', *, *, #389, .F. ) ;
#1118 = ORIENTED_EDGE ( 'NONE', *, *, #334, .F. ) ;
#1119 = ORIENTED_EDGE ( 'NONE', *, *, #318, .T. ) ;
#1120 = ORIENTED_EDGE ( 'NONE', *, *, #395, .T. ) ;
#1121 = ORIENTED_EDGE ( 'NONE', *, *, #372, .F. ) ;
#1122 = ORIENTED_EDGE ( 'NONE', *, *, #389, .T. ) ;
#1123 = ORIENTED_EDGE ( 'NONE', *, *, #371, .T. ) ;
#1124 = ORIENTED_EDGE ( 'NONE', *, *, #366, .T. ) ;
#1125 = ORIENTED_EDGE ( 'NONE', *, *, #388, .T. ) ;
#1126 = ORIENTED_EDGE ( 'NONE', *, *, #401, .T. ) ;
#1127 = ORIENTED_EDGE ( 'NONE', *, *, #365, .T. ) ;
#1128 = ORIENTED_EDGE ( 'NONE', *, *, #397, .T. ) ;
#1129 = ORIENTED_EDGE ( 'NONE', *, *, #368, .T. ) ;
#1130 = ORIENTED_EDGE ( 'NONE', *, *, #367, .F. ) ;
#1131 = ORIENTED_EDGE ( 'NONE', *, *, #374, .T. ) ;
#1132 = ORIENTED_EDGE ( 'NONE', *, *, #304, .T. ) ;
#1133 = ORIENTED_EDGE ( 'NONE', *, *, #305, .T. ) ;
#1134 = ORIENTED_EDGE ( 'NONE', *, *, #373, .F. ) ;
#1135 = ORIENTED_EDGE ( 'NONE', *, *, #363, .F. ) ;
#1136 = ORIENTED_EDGE ( 'NONE', *, *, #393, .T. ) ;
#1137 = ORIENTED_EDGE ( 'NONE', *, *, #376, .T. ) ;
#1138 = ORIENTED_EDGE ( 'NONE', *, *, #369, .F. ) ;
#1139 = ORIENTED_EDGE ( 'NONE', *, *, #371, .F. ) ;
#1140 = ORIENTED_EDGE ( 'NONE', *, *, #380, .T. ) ;
#1141 = ORIENTED_EDGE ( 'NONE', *, *, #384, .T. ) ;
#1142 = ORIENTED_EDGE ( 'NONE', *, *, #393, .F. ) ;
#1143 = ORIENTED_EDGE ( 'NONE', *, *, #386, .F. ) ;
#1144 = ORIENTED_EDGE ( 'NONE', *, *, #353, .T. ) ;
#1145 = ORIENTED_EDGE ( 'NONE', *, *, #332, .T. ) ;
#1146 = ORIENTED_EDGE ( 'NONE', *, *, #373, .T. ) ;
#1147 = ORIENTED_EDGE ( 'NONE', *, *, #363, .T. ) ;
#1148 = ORIENTED_EDGE ( 'NONE', *, *, #391, .T. ) ;
#1149 = ORIENTED_EDGE ( 'NONE', *, *, #370, .F. ) ;
#1150 = ORIENTED_EDGE ( 'NONE', *, *, #395, .F. ) ;
#1151 = ORIENTED_EDGE ( 'NONE', *, *, #386, .T. ) ;
#1152 = ORIENTED_EDGE ( 'NONE', *, *, #365, .F. ) ;
#1153 = ORIENTED_EDGE ( 'NONE', *, *, #377, .F. ) ;
#1154 = ORIENTED_EDGE ( 'NONE', *, *, #390, .T. ) ;
#1155 = ORIENTED_EDGE ( 'NONE', *, *, #374, .F. ) ;
#1156 = ORIENTED_EDGE ( 'NONE', *, *, #392, .F. ) ;
#1157 = ORIENTED_EDGE ( 'NONE', *, *, #391, .F. ) ;
#1158 = ORIENTED_EDGE ( 'NONE', *, *, #364, .F. ) ;
#1159 = ORIENTED_EDGE ( 'NONE', *, *, #376, .F. ) ;
#1160 = ORIENTED_EDGE ( 'NONE', *, *, #397, .F. ) ;
#1161 = ORIENTED_EDGE ( 'NONE', *, *, #369, .T. ) ;
#1162 = ORIENTED_EDGE ( 'NONE', *, *, #381, .T. ) ;
#1163 = ORIENTED_EDGE ( 'NONE', *, *, #309, .F. ) ;
#1164 = ORIENTED_EDGE ( 'NONE', *, *, #364, .T. ) ;
#1165 = ORIENTED_EDGE ( 'NONE', *, *, #379, .T. ) ;
#1166 = ORIENTED_EDGE ( 'NONE', *, *, #394, .T. ) ;
#1167 = ORIENTED_EDGE ( 'NONE', *, *, #378, .T. ) ;
#1168 = ORIENTED_EDGE ( 'NONE', *, *, #384, .F. ) ;
#1169 = ORIENTED_EDGE ( 'NONE', *, *, #311, .F. ) ;
#1170 = ORIENTED_EDGE ( 'NONE', *, *, #368, .F. ) ;
#1171 = ORIENTED_EDGE ( 'NONE', *, *, #387, .T. ) ;
#1172 = ORIENTED_EDGE ( 'NONE', *, *, #382, .T. ) ;
#1173 = ORIENTED_EDGE ( 'NONE', *, *, #392, .T. ) ;
#1174 = ORIENTED_EDGE ( 'NONE', *, *, #334, .T. ) ;
#1175 = ORIENTED_EDGE ( 'NONE', *, *, #383, .F. ) ;
#1176 = ORIENTED_EDGE ( 'NONE', *, *, #383, .T. ) ;
#1177 = ORIENTED_EDGE ( 'NONE', *, *, #301, .F. ) ;
#1178 = ORIENTED_EDGE ( 'NONE', *, *, #315, .T. ) ;
#1179 = ORIENTED_EDGE ( 'NONE', *, *, #396, .T. ) ;
#1180 = ORIENTED_EDGE ( 'NONE', *, *, #372, .T. ) ;
#1181 = ORIENTED_EDGE ( 'NONE', *, *, #313, .T. ) ;
#1182 = ORIENTED_EDGE ( 'NONE', *, *, #308, .F. ) ;
#1183 = ORIENTED_EDGE ( 'NONE', *, *, #307, .T. ) ;
#1184 = ORIENTED_EDGE ( 'NONE', *, *, #301, .T. ) ;
#1185 = ORIENTED_EDGE ( 'NONE', *, *, #318, .F. ) ;
#1186 = ORIENTED_EDGE ( 'NONE', *, *, #314, .T. ) ;
#1187 = ORIENTED_EDGE ( 'NONE', *, *, #317, .T. ) ;
#1188 = ORIENTED_EDGE ( 'NONE', *, *, #302, .F. ) ;
#1189 = ORIENTED_EDGE ( 'NONE', *, *, #310, .F. ) ;
#1190 = ORIENTED_EDGE ( 'NONE', *, *, #317, .F. ) ;
#1191 = ORIENTED_EDGE ( 'NONE', *, *, #304, .F. ) ;
#1192 = ORIENTED_EDGE ( 'NONE', *, *, #303, .T. ) ;
#1193 = ORIENTED_EDGE ( 'NONE', *, *, #300, .T. ) ;
#1194 = ORIENTED_EDGE ( 'NONE', *, *, #303, .F. ) ;
#1195 = ORIENTED_EDGE ( 'NONE', *, *, #311, .T. ) ;
#1196 = ORIENTED_EDGE ( 'NONE', *, *, #300, .F. ) ;
#1197 = ORIENTED_EDGE ( 'NONE', *, *, #305, .F. ) ;
#1198 = ORIENTED_EDGE ( 'NONE', *, *, #316, .T. ) ;
#1199 = ORIENTED_EDGE ( 'NONE', *, *, #306, .T. ) ;
#1200 = ORIENTED_EDGE ( 'NONE', *, *, #319, .F. ) ;
#1201 = ORIENTED_EDGE ( 'NONE', *, *, #338, .T. ) ;
#1202 = ORIENTED_EDGE ( 'NONE', *, *, #331, .F. ) ;
#1203 = ORIENTED_EDGE ( 'NONE', *, *, #319, .T. ) ;
#1204 = ORIENTED_EDGE ( 'NONE', *, *, #312, .F. ) ;
#1205 = ORIENTED_EDGE ( 'NONE', *, *, #324, .F. ) ;
#1206 = ORIENTED_EDGE ( 'NONE', *, *, #340, .F. ) ;
#1207 = ORIENTED_EDGE ( 'NONE', *, *, #312, .T. ) ;
#1208 = ORIENTED_EDGE ( 'NONE', *, *, #323, .T. ) ;
ENDSEC;
END-ISO-10303-21;
