ISO-10303-21;
HEADER;
/* Generated by software containing ST-Developer
 * from STEP Tools, Inc. (www.steptools.com) 
 */

FILE_DESCRIPTION(
/* description */ (''),
/* implementation_level */ '2;1');

FILE_NAME(
/* name */ 'ALP5018.step',
/* time_stamp */ '2023-03-21T12:38:29+01:00',
/* author */ (''),
/* organization */ (''),
/* preprocessor_version */ 'ST-DEVELOPER v19.2',
/* originating_system */ 'Autodesk Translation Framework v11.17.0.187',

/* authorisation */ '');

FILE_SCHEMA (('AUTOMOTIVE_DESIGN { 1 0 10303 214 3 1 1 }'));
ENDSEC;

DATA;
#10=MECHANICAL_DESIGN_GEOMETRIC_PRESENTATION_REPRESENTATION('',(#13,#14),
#2167);
#11=SHAPE_REPRESENTATION_RELATIONSHIP('SRR','None',#2174,#12);
#12=ADVANCED_BREP_SHAPE_REPRESENTATION('',(#15,#16),#2166);
#13=STYLED_ITEM('',(#2184),#15);
#14=STYLED_ITEM('',(#2184),#16);
#15=MANIFOLD_SOLID_BREP('Body1',#1280);
#16=MANIFOLD_SOLID_BREP('Body2',#1281);
#17=FACE_BOUND('',#193,.T.);
#18=FACE_BOUND('',#196,.T.);
#19=PLANE('',#1298);
#20=PLANE('',#1299);
#21=PLANE('',#1300);
#22=PLANE('',#1301);
#23=PLANE('',#1303);
#24=PLANE('',#1304);
#25=PLANE('',#1305);
#26=PLANE('',#1306);
#27=PLANE('',#1307);
#28=PLANE('',#1308);
#29=PLANE('',#1309);
#30=PLANE('',#1311);
#31=PLANE('',#1314);
#32=PLANE('',#1317);
#33=PLANE('',#1318);
#34=PLANE('',#1321);
#35=PLANE('',#1322);
#36=PLANE('',#1325);
#37=PLANE('',#1326);
#38=PLANE('',#1329);
#39=PLANE('',#1330);
#40=PLANE('',#1333);
#41=PLANE('',#1335);
#42=PLANE('',#1337);
#43=PLANE('',#1339);
#44=PLANE('',#1340);
#45=PLANE('',#1341);
#46=PLANE('',#1343);
#47=PLANE('',#1345);
#48=PLANE('',#1347);
#49=PLANE('',#1348);
#50=PLANE('',#1351);
#51=PLANE('',#1356);
#52=PLANE('',#1357);
#53=PLANE('',#1360);
#54=PLANE('',#1365);
#55=PLANE('',#1366);
#56=PLANE('',#1367);
#57=PLANE('',#1370);
#58=PLANE('',#1373);
#59=PLANE('',#1374);
#60=PLANE('',#1377);
#61=PLANE('',#1382);
#62=PLANE('',#1383);
#63=PLANE('',#1386);
#64=PLANE('',#1391);
#65=PLANE('',#1392);
#66=PLANE('',#1393);
#67=PLANE('',#1396);
#68=PLANE('',#1399);
#69=PLANE('',#1404);
#70=PLANE('',#1407);
#71=PLANE('',#1408);
#72=PLANE('',#1411);
#73=PLANE('',#1412);
#74=PLANE('',#1413);
#75=PLANE('',#1414);
#76=PLANE('',#1416);
#77=PLANE('',#1417);
#78=PLANE('',#1418);
#79=PLANE('',#1420);
#80=PLANE('',#1421);
#81=FACE_OUTER_BOUND('',#164,.T.);
#82=FACE_OUTER_BOUND('',#165,.T.);
#83=FACE_OUTER_BOUND('',#166,.T.);
#84=FACE_OUTER_BOUND('',#167,.T.);
#85=FACE_OUTER_BOUND('',#168,.T.);
#86=FACE_OUTER_BOUND('',#169,.T.);
#87=FACE_OUTER_BOUND('',#170,.T.);
#88=FACE_OUTER_BOUND('',#171,.T.);
#89=FACE_OUTER_BOUND('',#172,.T.);
#90=FACE_OUTER_BOUND('',#173,.T.);
#91=FACE_OUTER_BOUND('',#174,.T.);
#92=FACE_OUTER_BOUND('',#175,.T.);
#93=FACE_OUTER_BOUND('',#176,.T.);
#94=FACE_OUTER_BOUND('',#177,.T.);
#95=FACE_OUTER_BOUND('',#178,.T.);
#96=FACE_OUTER_BOUND('',#179,.T.);
#97=FACE_OUTER_BOUND('',#180,.T.);
#98=FACE_OUTER_BOUND('',#181,.T.);
#99=FACE_OUTER_BOUND('',#182,.T.);
#100=FACE_OUTER_BOUND('',#183,.T.);
#101=FACE_OUTER_BOUND('',#184,.T.);
#102=FACE_OUTER_BOUND('',#185,.T.);
#103=FACE_OUTER_BOUND('',#186,.T.);
#104=FACE_OUTER_BOUND('',#187,.T.);
#105=FACE_OUTER_BOUND('',#188,.T.);
#106=FACE_OUTER_BOUND('',#189,.T.);
#107=FACE_OUTER_BOUND('',#190,.T.);
#108=FACE_OUTER_BOUND('',#191,.T.);
#109=FACE_OUTER_BOUND('',#192,.T.);
#110=FACE_OUTER_BOUND('',#194,.T.);
#111=FACE_OUTER_BOUND('',#195,.T.);
#112=FACE_OUTER_BOUND('',#197,.T.);
#113=FACE_OUTER_BOUND('',#198,.T.);
#114=FACE_OUTER_BOUND('',#199,.T.);
#115=FACE_OUTER_BOUND('',#200,.T.);
#116=FACE_OUTER_BOUND('',#201,.T.);
#117=FACE_OUTER_BOUND('',#202,.T.);
#118=FACE_OUTER_BOUND('',#203,.T.);
#119=FACE_OUTER_BOUND('',#204,.T.);
#120=FACE_OUTER_BOUND('',#205,.T.);
#121=FACE_OUTER_BOUND('',#206,.T.);
#122=FACE_OUTER_BOUND('',#207,.T.);
#123=FACE_OUTER_BOUND('',#208,.T.);
#124=FACE_OUTER_BOUND('',#209,.T.);
#125=FACE_OUTER_BOUND('',#210,.T.);
#126=FACE_OUTER_BOUND('',#211,.T.);
#127=FACE_OUTER_BOUND('',#212,.T.);
#128=FACE_OUTER_BOUND('',#213,.T.);
#129=FACE_OUTER_BOUND('',#214,.T.);
#130=FACE_OUTER_BOUND('',#215,.T.);
#131=FACE_OUTER_BOUND('',#216,.T.);
#132=FACE_OUTER_BOUND('',#217,.T.);
#133=FACE_OUTER_BOUND('',#218,.T.);
#134=FACE_OUTER_BOUND('',#219,.T.);
#135=FACE_OUTER_BOUND('',#220,.T.);
#136=FACE_OUTER_BOUND('',#221,.T.);
#137=FACE_OUTER_BOUND('',#222,.T.);
#138=FACE_OUTER_BOUND('',#223,.T.);
#139=FACE_OUTER_BOUND('',#224,.T.);
#140=FACE_OUTER_BOUND('',#225,.T.);
#141=FACE_OUTER_BOUND('',#226,.T.);
#142=FACE_OUTER_BOUND('',#227,.T.);
#143=FACE_OUTER_BOUND('',#228,.T.);
#144=FACE_OUTER_BOUND('',#229,.T.);
#145=FACE_OUTER_BOUND('',#230,.T.);
#146=FACE_OUTER_BOUND('',#231,.T.);
#147=FACE_OUTER_BOUND('',#232,.T.);
#148=FACE_OUTER_BOUND('',#233,.T.);
#149=FACE_OUTER_BOUND('',#234,.T.);
#150=FACE_OUTER_BOUND('',#235,.T.);
#151=FACE_OUTER_BOUND('',#236,.T.);
#152=FACE_OUTER_BOUND('',#237,.T.);
#153=FACE_OUTER_BOUND('',#238,.T.);
#154=FACE_OUTER_BOUND('',#239,.T.);
#155=FACE_OUTER_BOUND('',#240,.T.);
#156=FACE_OUTER_BOUND('',#241,.T.);
#157=FACE_OUTER_BOUND('',#242,.T.);
#158=FACE_OUTER_BOUND('',#243,.T.);
#159=FACE_OUTER_BOUND('',#244,.T.);
#160=FACE_OUTER_BOUND('',#245,.T.);
#161=FACE_OUTER_BOUND('',#246,.T.);
#162=FACE_OUTER_BOUND('',#247,.T.);
#163=FACE_OUTER_BOUND('',#248,.T.);
#164=EDGE_LOOP('',(#826,#827,#828,#829));
#165=EDGE_LOOP('',(#830,#831,#832,#833));
#166=EDGE_LOOP('',(#834,#835,#836,#837));
#167=EDGE_LOOP('',(#838,#839,#840,#841));
#168=EDGE_LOOP('',(#842,#843,#844,#845));
#169=EDGE_LOOP('',(#846,#847,#848,#849));
#170=EDGE_LOOP('',(#850,#851,#852,#853));
#171=EDGE_LOOP('',(#854,#855,#856,#857));
#172=EDGE_LOOP('',(#858,#859,#860,#861));
#173=EDGE_LOOP('',(#862,#863,#864,#865));
#174=EDGE_LOOP('',(#866,#867,#868,#869));
#175=EDGE_LOOP('',(#870,#871,#872,#873));
#176=EDGE_LOOP('',(#874,#875,#876,#877));
#177=EDGE_LOOP('',(#878,#879,#880,#881));
#178=EDGE_LOOP('',(#882,#883,#884,#885));
#179=EDGE_LOOP('',(#886,#887,#888,#889));
#180=EDGE_LOOP('',(#890,#891,#892,#893));
#181=EDGE_LOOP('',(#894,#895,#896,#897));
#182=EDGE_LOOP('',(#898,#899,#900,#901));
#183=EDGE_LOOP('',(#902,#903,#904,#905));
#184=EDGE_LOOP('',(#906,#907,#908,#909));
#185=EDGE_LOOP('',(#910,#911,#912,#913));
#186=EDGE_LOOP('',(#914,#915,#916,#917));
#187=EDGE_LOOP('',(#918,#919,#920,#921,#922,#923));
#188=EDGE_LOOP('',(#924,#925,#926,#927));
#189=EDGE_LOOP('',(#928,#929,#930,#931));
#190=EDGE_LOOP('',(#932,#933,#934,#935));
#191=EDGE_LOOP('',(#936,#937,#938,#939));
#192=EDGE_LOOP('',(#940,#941,#942,#943));
#193=EDGE_LOOP('',(#944));
#194=EDGE_LOOP('',(#945,#946,#947,#948));
#195=EDGE_LOOP('',(#949,#950,#951,#952));
#196=EDGE_LOOP('',(#953));
#197=EDGE_LOOP('',(#954,#955,#956,#957));
#198=EDGE_LOOP('',(#958,#959,#960,#961));
#199=EDGE_LOOP('',(#962,#963,#964,#965));
#200=EDGE_LOOP('',(#966,#967,#968,#969));
#201=EDGE_LOOP('',(#970,#971,#972,#973,#974,#975,#976,#977));
#202=EDGE_LOOP('',(#978,#979,#980,#981));
#203=EDGE_LOOP('',(#982,#983,#984,#985));
#204=EDGE_LOOP('',(#986,#987,#988,#989));
#205=EDGE_LOOP('',(#990,#991,#992,#993,#994));
#206=EDGE_LOOP('',(#995,#996,#997,#998));
#207=EDGE_LOOP('',(#999,#1000,#1001,#1002));
#208=EDGE_LOOP('',(#1003,#1004,#1005,#1006));
#209=EDGE_LOOP('',(#1007,#1008,#1009,#1010));
#210=EDGE_LOOP('',(#1011,#1012,#1013,#1014));
#211=EDGE_LOOP('',(#1015,#1016,#1017,#1018));
#212=EDGE_LOOP('',(#1019,#1020,#1021,#1022));
#213=EDGE_LOOP('',(#1023,#1024,#1025,#1026));
#214=EDGE_LOOP('',(#1027,#1028,#1029,#1030,#1031,#1032));
#215=EDGE_LOOP('',(#1033,#1034,#1035,#1036,#1037,#1038));
#216=EDGE_LOOP('',(#1039,#1040,#1041,#1042));
#217=EDGE_LOOP('',(#1043,#1044,#1045,#1046));
#218=EDGE_LOOP('',(#1047,#1048,#1049,#1050));
#219=EDGE_LOOP('',(#1051,#1052,#1053,#1054,#1055));
#220=EDGE_LOOP('',(#1056,#1057,#1058,#1059));
#221=EDGE_LOOP('',(#1060,#1061,#1062,#1063));
#222=EDGE_LOOP('',(#1064,#1065,#1066,#1067));
#223=EDGE_LOOP('',(#1068,#1069,#1070,#1071));
#224=EDGE_LOOP('',(#1072,#1073,#1074,#1075));
#225=EDGE_LOOP('',(#1076,#1077,#1078,#1079));
#226=EDGE_LOOP('',(#1080,#1081,#1082,#1083));
#227=EDGE_LOOP('',(#1084,#1085,#1086,#1087));
#228=EDGE_LOOP('',(#1088,#1089,#1090,#1091,#1092,#1093));
#229=EDGE_LOOP('',(#1094,#1095,#1096,#1097,#1098,#1099));
#230=EDGE_LOOP('',(#1100,#1101,#1102,#1103));
#231=EDGE_LOOP('',(#1104,#1105,#1106,#1107));
#232=EDGE_LOOP('',(#1108,#1109,#1110,#1111));
#233=EDGE_LOOP('',(#1112,#1113,#1114,#1115));
#234=EDGE_LOOP('',(#1116,#1117,#1118,#1119));
#235=EDGE_LOOP('',(#1120,#1121,#1122,#1123));
#236=EDGE_LOOP('',(#1124,#1125,#1126,#1127));
#237=EDGE_LOOP('',(#1128,#1129,#1130,#1131));
#238=EDGE_LOOP('',(#1132,#1133,#1134,#1135));
#239=EDGE_LOOP('',(#1136,#1137,#1138,#1139));
#240=EDGE_LOOP('',(#1140,#1141,#1142,#1143));
#241=EDGE_LOOP('',(#1144,#1145,#1146,#1147));
#242=EDGE_LOOP('',(#1148,#1149,#1150,#1151));
#243=EDGE_LOOP('',(#1152,#1153,#1154,#1155));
#244=EDGE_LOOP('',(#1156,#1157,#1158,#1159));
#245=EDGE_LOOP('',(#1160,#1161,#1162,#1163));
#246=EDGE_LOOP('',(#1164,#1165,#1166,#1167));
#247=EDGE_LOOP('',(#1168,#1169,#1170,#1171));
#248=EDGE_LOOP('',(#1172,#1173,#1174,#1175));
#249=LINE('',#1814,#380);
#250=LINE('',#1819,#381);
#251=LINE('',#1821,#382);
#252=LINE('',#1823,#383);
#253=LINE('',#1824,#384);
#254=LINE('',#1827,#385);
#255=LINE('',#1829,#386);
#256=LINE('',#1830,#387);
#257=LINE('',#1833,#388);
#258=LINE('',#1835,#389);
#259=LINE('',#1836,#390);
#260=LINE('',#1840,#391);
#261=LINE('',#1844,#392);
#262=LINE('',#1845,#393);
#263=LINE('',#1849,#394);
#264=LINE('',#1851,#395);
#265=LINE('',#1853,#396);
#266=LINE('',#1854,#397);
#267=LINE('',#1858,#398);
#268=LINE('',#1859,#399);
#269=LINE('',#1861,#400);
#270=LINE('',#1862,#401);
#271=LINE('',#1864,#402);
#272=LINE('',#1865,#403);
#273=LINE('',#1869,#404);
#274=LINE('',#1871,#405);
#275=LINE('',#1873,#406);
#276=LINE('',#1874,#407);
#277=LINE('',#1877,#408);
#278=LINE('',#1879,#409);
#279=LINE('',#1880,#410);
#280=LINE('',#1883,#411);
#281=LINE('',#1885,#412);
#282=LINE('',#1886,#413);
#283=LINE('',#1890,#414);
#284=LINE('',#1893,#415);
#285=LINE('',#1894,#416);
#286=LINE('',#1899,#417);
#287=LINE('',#1904,#418);
#288=LINE('',#1909,#419);
#289=LINE('',#1911,#420);
#290=LINE('',#1912,#421);
#291=LINE('',#1916,#422);
#292=LINE('',#1920,#423);
#293=LINE('',#1923,#424);
#294=LINE('',#1924,#425);
#295=LINE('',#1928,#426);
#296=LINE('',#1933,#427);
#297=LINE('',#1935,#428);
#298=LINE('',#1936,#429);
#299=LINE('',#1940,#430);
#300=LINE('',#1944,#431);
#301=LINE('',#1947,#432);
#302=LINE('',#1948,#433);
#303=LINE('',#1952,#434);
#304=LINE('',#1957,#435);
#305=LINE('',#1959,#436);
#306=LINE('',#1960,#437);
#307=LINE('',#1962,#438);
#308=LINE('',#1964,#439);
#309=LINE('',#1966,#440);
#310=LINE('',#1968,#441);
#311=LINE('',#1970,#442);
#312=LINE('',#1973,#443);
#313=LINE('',#1974,#444);
#314=LINE('',#1977,#445);
#315=LINE('',#1978,#446);
#316=LINE('',#1980,#447);
#317=LINE('',#1981,#448);
#318=LINE('',#1983,#449);
#319=LINE('',#1985,#450);
#320=LINE('',#1987,#451);
#321=LINE('',#1989,#452);
#322=LINE('',#1991,#453);
#323=LINE('',#1992,#454);
#324=LINE('',#1995,#455);
#325=LINE('',#2004,#456);
#326=LINE('',#2008,#457);
#327=LINE('',#2015,#458);
#328=LINE('',#2018,#459);
#329=LINE('',#2020,#460);
#330=LINE('',#2023,#461);
#331=LINE('',#2025,#462);
#332=LINE('',#2026,#463);
#333=LINE('',#2029,#464);
#334=LINE('',#2031,#465);
#335=LINE('',#2032,#466);
#336=LINE('',#2037,#467);
#337=LINE('',#2042,#468);
#338=LINE('',#2046,#469);
#339=LINE('',#2047,#470);
#340=LINE('',#2051,#471);
#341=LINE('',#2058,#472);
#342=LINE('',#2062,#473);
#343=LINE('',#2069,#474);
#344=LINE('',#2072,#475);
#345=LINE('',#2074,#476);
#346=LINE('',#2077,#477);
#347=LINE('',#2079,#478);
#348=LINE('',#2080,#479);
#349=LINE('',#2083,#480);
#350=LINE('',#2085,#481);
#351=LINE('',#2086,#482);
#352=LINE('',#2090,#483);
#353=LINE('',#2097,#484);
#354=LINE('',#2100,#485);
#355=LINE('',#2101,#486);
#356=LINE('',#2109,#487);
#357=LINE('',#2113,#488);
#358=LINE('',#2117,#489);
#359=LINE('',#2119,#490);
#360=LINE('',#2120,#491);
#361=LINE('',#2124,#492);
#362=LINE('',#2128,#493);
#363=LINE('',#2132,#494);
#364=LINE('',#2134,#495);
#365=LINE('',#2135,#496);
#366=LINE('',#2137,#497);
#367=LINE('',#2139,#498);
#368=LINE('',#2140,#499);
#369=LINE('',#2143,#500);
#370=LINE('',#2144,#501);
#371=LINE('',#2146,#502);
#372=LINE('',#2147,#503);
#373=LINE('',#2149,#504);
#374=LINE('',#2152,#505);
#375=LINE('',#2153,#506);
#376=LINE('',#2156,#507);
#377=LINE('',#2157,#508);
#378=LINE('',#2159,#509);
#379=LINE('',#2160,#510);
#380=VECTOR('',#1428,1.5);
#381=VECTOR('',#1433,1000.);
#382=VECTOR('',#1434,1000.);
#383=VECTOR('',#1435,1000.);
#384=VECTOR('',#1436,1000.);
#385=VECTOR('',#1439,1000.);
#386=VECTOR('',#1440,1000.);
#387=VECTOR('',#1441,1000.);
#388=VECTOR('',#1444,1000.);
#389=VECTOR('',#1445,1000.);
#390=VECTOR('',#1446,1000.);
#391=VECTOR('',#1449,1000.);
#392=VECTOR('',#1452,1000.);
#393=VECTOR('',#1453,1000.);
#394=VECTOR('',#1456,1000.);
#395=VECTOR('',#1457,1000.);
#396=VECTOR('',#1458,1000.);
#397=VECTOR('',#1459,1000.);
#398=VECTOR('',#1462,1000.);
#399=VECTOR('',#1463,1000.);
#400=VECTOR('',#1464,1000.);
#401=VECTOR('',#1465,1000.);
#402=VECTOR('',#1468,1000.);
#403=VECTOR('',#1469,1000.);
#404=VECTOR('',#1472,1000.);
#405=VECTOR('',#1473,1000.);
#406=VECTOR('',#1474,1000.);
#407=VECTOR('',#1475,1000.);
#408=VECTOR('',#1478,1000.);
#409=VECTOR('',#1479,1000.);
#410=VECTOR('',#1480,1000.);
#411=VECTOR('',#1483,1000.);
#412=VECTOR('',#1484,1000.);
#413=VECTOR('',#1485,1000.);
#414=VECTOR('',#1488,1000.);
#415=VECTOR('',#1491,1000.);
#416=VECTOR('',#1492,1000.);
#417=VECTOR('',#1497,1000.);
#418=VECTOR('',#1502,1000.);
#419=VECTOR('',#1509,1000.);
#420=VECTOR('',#1510,1000.);
#421=VECTOR('',#1511,1000.);
#422=VECTOR('',#1514,1000.);
#423=VECTOR('',#1517,1000.);
#424=VECTOR('',#1522,1000.);
#425=VECTOR('',#1523,1000.);
#426=VECTOR('',#1526,1000.);
#427=VECTOR('',#1533,1000.);
#428=VECTOR('',#1534,1000.);
#429=VECTOR('',#1535,1000.);
#430=VECTOR('',#1538,1000.);
#431=VECTOR('',#1541,1000.);
#432=VECTOR('',#1546,1000.);
#433=VECTOR('',#1547,1000.);
#434=VECTOR('',#1550,1000.);
#435=VECTOR('',#1557,1000.);
#436=VECTOR('',#1558,1000.);
#437=VECTOR('',#1559,1000.);
#438=VECTOR('',#1562,1000.);
#439=VECTOR('',#1565,1000.);
#440=VECTOR('',#1568,1000.);
#441=VECTOR('',#1571,1000.);
#442=VECTOR('',#1574,1000.);
#443=VECTOR('',#1577,1000.);
#444=VECTOR('',#1578,1000.);
#445=VECTOR('',#1581,1000.);
#446=VECTOR('',#1582,1000.);
#447=VECTOR('',#1585,1000.);
#448=VECTOR('',#1586,1000.);
#449=VECTOR('',#1589,1000.);
#450=VECTOR('',#1592,1000.);
#451=VECTOR('',#1595,1000.);
#452=VECTOR('',#1598,1000.);
#453=VECTOR('',#1601,1000.);
#454=VECTOR('',#1602,1000.);
#455=VECTOR('',#1607,1000.);
#456=VECTOR('',#1624,1000.);
#457=VECTOR('',#1627,1000.);
#458=VECTOR('',#1636,1000.);
#459=VECTOR('',#1641,1000.);
#460=VECTOR('',#1644,1000.);
#461=VECTOR('',#1647,1000.);
#462=VECTOR('',#1648,1000.);
#463=VECTOR('',#1649,1000.);
#464=VECTOR('',#1652,1000.);
#465=VECTOR('',#1653,1000.);
#466=VECTOR('',#1654,1000.);
#467=VECTOR('',#1659,1000.);
#468=VECTOR('',#1664,1000.);
#469=VECTOR('',#1671,1000.);
#470=VECTOR('',#1672,1000.);
#471=VECTOR('',#1679,1000.);
#472=VECTOR('',#1692,1000.);
#473=VECTOR('',#1695,1000.);
#474=VECTOR('',#1704,1000.);
#475=VECTOR('',#1709,1000.);
#476=VECTOR('',#1712,1000.);
#477=VECTOR('',#1715,1000.);
#478=VECTOR('',#1716,1000.);
#479=VECTOR('',#1717,1000.);
#480=VECTOR('',#1720,1000.);
#481=VECTOR('',#1721,1000.);
#482=VECTOR('',#1722,1000.);
#483=VECTOR('',#1725,1000.);
#484=VECTOR('',#1734,1000.);
#485=VECTOR('',#1739,1000.);
#486=VECTOR('',#1740,1000.);
#487=VECTOR('',#1751,1000.);
#488=VECTOR('',#1754,1000.);
#489=VECTOR('',#1759,1000.);
#490=VECTOR('',#1760,1000.);
#491=VECTOR('',#1761,1000.);
#492=VECTOR('',#1764,1000.);
#493=VECTOR('',#1767,1000.);
#494=VECTOR('',#1772,1000.);
#495=VECTOR('',#1773,1000.);
#496=VECTOR('',#1774,1000.);
#497=VECTOR('',#1777,1000.);
#498=VECTOR('',#1778,1000.);
#499=VECTOR('',#1779,1000.);
#500=VECTOR('',#1782,1000.);
#501=VECTOR('',#1783,1000.);
#502=VECTOR('',#1786,1000.);
#503=VECTOR('',#1787,1000.);
#504=VECTOR('',#1790,1000.);
#505=VECTOR('',#1793,1000.);
#506=VECTOR('',#1794,1000.);
#507=VECTOR('',#1797,1000.);
#508=VECTOR('',#1798,1000.);
#509=VECTOR('',#1801,1000.);
#510=VECTOR('',#1802,1000.);
#511=CIRCLE('',#1296,1.5);
#512=CIRCLE('',#1297,1.5);
#513=CIRCLE('',#1302,2.5);
#514=CIRCLE('',#1310,2.5);
#515=CIRCLE('',#1312,2.5);
#516=CIRCLE('',#1313,0.5);
#517=CIRCLE('',#1315,2.5);
#518=CIRCLE('',#1316,0.5);
#519=CIRCLE('',#1319,0.5);
#520=CIRCLE('',#1320,2.5);
#521=CIRCLE('',#1323,0.5);
#522=CIRCLE('',#1324,2.5);
#523=CIRCLE('',#1327,0.5);
#524=CIRCLE('',#1328,2.5);
#525=CIRCLE('',#1331,0.5);
#526=CIRCLE('',#1332,2.5);
#527=CIRCLE('',#1349,0.5);
#528=CIRCLE('',#1350,2.5);
#529=CIRCLE('',#1352,2.5);
#530=CIRCLE('',#1353,0.5);
#531=CIRCLE('',#1358,0.500000000000002);
#532=CIRCLE('',#1359,2.5);
#533=CIRCLE('',#1361,0.500000000000002);
#534=CIRCLE('',#1362,2.5);
#535=CIRCLE('',#1368,4.);
#536=CIRCLE('',#1369,4.);
#537=CIRCLE('',#1371,4.);
#538=CIRCLE('',#1372,4.);
#539=CIRCLE('',#1375,0.5);
#540=CIRCLE('',#1376,2.5);
#541=CIRCLE('',#1378,0.5);
#542=CIRCLE('',#1379,2.5);
#543=CIRCLE('',#1384,0.5);
#544=CIRCLE('',#1385,2.5);
#545=CIRCLE('',#1387,0.5);
#546=CIRCLE('',#1388,2.5);
#547=CIRCLE('',#1394,4.);
#548=CIRCLE('',#1395,4.);
#549=CIRCLE('',#1397,4.);
#550=CIRCLE('',#1398,4.);
#551=CIRCLE('',#1405,2.5);
#552=CIRCLE('',#1406,0.5);
#553=CIRCLE('',#1409,2.5);
#554=CIRCLE('',#1410,0.5);
#555=VERTEX_POINT('',#1811);
#556=VERTEX_POINT('',#1813);
#557=VERTEX_POINT('',#1817);
#558=VERTEX_POINT('',#1818);
#559=VERTEX_POINT('',#1820);
#560=VERTEX_POINT('',#1822);
#561=VERTEX_POINT('',#1826);
#562=VERTEX_POINT('',#1828);
#563=VERTEX_POINT('',#1832);
#564=VERTEX_POINT('',#1834);
#565=VERTEX_POINT('',#1838);
#566=VERTEX_POINT('',#1839);
#567=VERTEX_POINT('',#1841);
#568=VERTEX_POINT('',#1843);
#569=VERTEX_POINT('',#1847);
#570=VERTEX_POINT('',#1848);
#571=VERTEX_POINT('',#1850);
#572=VERTEX_POINT('',#1852);
#573=VERTEX_POINT('',#1856);
#574=VERTEX_POINT('',#1857);
#575=VERTEX_POINT('',#1860);
#576=VERTEX_POINT('',#1867);
#577=VERTEX_POINT('',#1868);
#578=VERTEX_POINT('',#1870);
#579=VERTEX_POINT('',#1872);
#580=VERTEX_POINT('',#1876);
#581=VERTEX_POINT('',#1878);
#582=VERTEX_POINT('',#1882);
#583=VERTEX_POINT('',#1884);
#584=VERTEX_POINT('',#1888);
#585=VERTEX_POINT('',#1889);
#586=VERTEX_POINT('',#1892);
#587=VERTEX_POINT('',#1896);
#588=VERTEX_POINT('',#1898);
#589=VERTEX_POINT('',#1902);
#590=VERTEX_POINT('',#1903);
#591=VERTEX_POINT('',#1908);
#592=VERTEX_POINT('',#1910);
#593=VERTEX_POINT('',#1914);
#594=VERTEX_POINT('',#1915);
#595=VERTEX_POINT('',#1917);
#596=VERTEX_POINT('',#1919);
#597=VERTEX_POINT('',#1926);
#598=VERTEX_POINT('',#1927);
#599=VERTEX_POINT('',#1932);
#600=VERTEX_POINT('',#1934);
#601=VERTEX_POINT('',#1938);
#602=VERTEX_POINT('',#1939);
#603=VERTEX_POINT('',#1941);
#604=VERTEX_POINT('',#1943);
#605=VERTEX_POINT('',#1950);
#606=VERTEX_POINT('',#1951);
#607=VERTEX_POINT('',#1956);
#608=VERTEX_POINT('',#1958);
#609=VERTEX_POINT('',#1972);
#610=VERTEX_POINT('',#1976);
#611=VERTEX_POINT('',#2006);
#612=VERTEX_POINT('',#2007);
#613=VERTEX_POINT('',#2012);
#614=VERTEX_POINT('',#2014);
#615=VERTEX_POINT('',#2022);
#616=VERTEX_POINT('',#2024);
#617=VERTEX_POINT('',#2028);
#618=VERTEX_POINT('',#2030);
#619=VERTEX_POINT('',#2034);
#620=VERTEX_POINT('',#2036);
#621=VERTEX_POINT('',#2040);
#622=VERTEX_POINT('',#2041);
#623=VERTEX_POINT('',#2060);
#624=VERTEX_POINT('',#2061);
#625=VERTEX_POINT('',#2066);
#626=VERTEX_POINT('',#2068);
#627=VERTEX_POINT('',#2076);
#628=VERTEX_POINT('',#2078);
#629=VERTEX_POINT('',#2082);
#630=VERTEX_POINT('',#2084);
#631=VERTEX_POINT('',#2088);
#632=VERTEX_POINT('',#2089);
#633=VERTEX_POINT('',#2094);
#634=VERTEX_POINT('',#2096);
#635=VERTEX_POINT('',#2107);
#636=VERTEX_POINT('',#2108);
#637=VERTEX_POINT('',#2110);
#638=VERTEX_POINT('',#2112);
#639=VERTEX_POINT('',#2116);
#640=VERTEX_POINT('',#2118);
#641=VERTEX_POINT('',#2122);
#642=VERTEX_POINT('',#2123);
#643=VERTEX_POINT('',#2125);
#644=VERTEX_POINT('',#2127);
#645=VERTEX_POINT('',#2131);
#646=VERTEX_POINT('',#2133);
#647=VERTEX_POINT('',#2138);
#648=VERTEX_POINT('',#2142);
#649=VERTEX_POINT('',#2151);
#650=VERTEX_POINT('',#2155);
#651=EDGE_CURVE('',#555,#555,#511,.T.);
#652=EDGE_CURVE('',#555,#556,#249,.T.);
#653=EDGE_CURVE('',#556,#556,#512,.T.);
#654=EDGE_CURVE('',#557,#558,#250,.T.);
#655=EDGE_CURVE('',#557,#559,#251,.T.);
#656=EDGE_CURVE('',#559,#560,#252,.T.);
#657=EDGE_CURVE('',#558,#560,#253,.T.);
#658=EDGE_CURVE('',#559,#561,#254,.T.);
#659=EDGE_CURVE('',#562,#561,#255,.T.);
#660=EDGE_CURVE('',#562,#560,#256,.T.);
#661=EDGE_CURVE('',#557,#563,#257,.T.);
#662=EDGE_CURVE('',#564,#558,#258,.T.);
#663=EDGE_CURVE('',#564,#563,#259,.T.);
#664=EDGE_CURVE('',#565,#566,#260,.T.);
#665=EDGE_CURVE('',#565,#567,#513,.T.);
#666=EDGE_CURVE('',#567,#568,#261,.T.);
#667=EDGE_CURVE('',#568,#566,#262,.T.);
#668=EDGE_CURVE('',#569,#570,#263,.T.);
#669=EDGE_CURVE('',#571,#569,#264,.T.);
#670=EDGE_CURVE('',#572,#571,#265,.T.);
#671=EDGE_CURVE('',#572,#570,#266,.T.);
#672=EDGE_CURVE('',#573,#574,#267,.T.);
#673=EDGE_CURVE('',#574,#565,#268,.T.);
#674=EDGE_CURVE('',#575,#565,#269,.T.);
#675=EDGE_CURVE('',#575,#573,#270,.T.);
#676=EDGE_CURVE('',#569,#574,#271,.T.);
#677=EDGE_CURVE('',#571,#573,#272,.T.);
#678=EDGE_CURVE('',#576,#577,#273,.T.);
#679=EDGE_CURVE('',#576,#578,#274,.T.);
#680=EDGE_CURVE('',#578,#579,#275,.T.);
#681=EDGE_CURVE('',#577,#579,#276,.T.);
#682=EDGE_CURVE('',#578,#580,#277,.T.);
#683=EDGE_CURVE('',#581,#580,#278,.T.);
#684=EDGE_CURVE('',#581,#579,#279,.T.);
#685=EDGE_CURVE('',#576,#582,#280,.T.);
#686=EDGE_CURVE('',#583,#577,#281,.T.);
#687=EDGE_CURVE('',#583,#582,#282,.T.);
#688=EDGE_CURVE('',#584,#585,#283,.T.);
#689=EDGE_CURVE('',#585,#575,#514,.T.);
#690=EDGE_CURVE('',#586,#575,#284,.T.);
#691=EDGE_CURVE('',#586,#584,#285,.T.);
#692=EDGE_CURVE('',#587,#586,#515,.T.);
#693=EDGE_CURVE('',#588,#587,#286,.T.);
#694=EDGE_CURVE('',#588,#584,#516,.T.);
#695=EDGE_CURVE('',#589,#590,#287,.T.);
#696=EDGE_CURVE('',#589,#566,#517,.T.);
#697=EDGE_CURVE('',#590,#568,#518,.T.);
#698=EDGE_CURVE('',#591,#589,#288,.T.);
#699=EDGE_CURVE('',#592,#590,#289,.T.);
#700=EDGE_CURVE('',#592,#591,#290,.T.);
#701=EDGE_CURVE('',#593,#594,#291,.T.);
#702=EDGE_CURVE('',#595,#593,#519,.T.);
#703=EDGE_CURVE('',#596,#595,#292,.T.);
#704=EDGE_CURVE('',#596,#594,#520,.T.);
#705=EDGE_CURVE('',#593,#587,#293,.T.);
#706=EDGE_CURVE('',#594,#588,#294,.T.);
#707=EDGE_CURVE('',#597,#598,#295,.T.);
#708=EDGE_CURVE('',#597,#591,#521,.T.);
#709=EDGE_CURVE('',#598,#592,#522,.T.);
#710=EDGE_CURVE('',#599,#597,#296,.T.);
#711=EDGE_CURVE('',#600,#598,#297,.T.);
#712=EDGE_CURVE('',#600,#599,#298,.T.);
#713=EDGE_CURVE('',#601,#602,#299,.T.);
#714=EDGE_CURVE('',#603,#601,#523,.T.);
#715=EDGE_CURVE('',#604,#603,#300,.T.);
#716=EDGE_CURVE('',#604,#602,#524,.T.);
#717=EDGE_CURVE('',#601,#595,#301,.T.);
#718=EDGE_CURVE('',#602,#596,#302,.T.);
#719=EDGE_CURVE('',#605,#606,#303,.T.);
#720=EDGE_CURVE('',#605,#599,#525,.T.);
#721=EDGE_CURVE('',#606,#600,#526,.T.);
#722=EDGE_CURVE('',#607,#605,#304,.T.);
#723=EDGE_CURVE('',#608,#606,#305,.T.);
#724=EDGE_CURVE('',#608,#607,#306,.T.);
#725=EDGE_CURVE('',#587,#589,#307,.T.);
#726=EDGE_CURVE('',#593,#591,#308,.T.);
#727=EDGE_CURVE('',#595,#597,#309,.T.);
#728=EDGE_CURVE('',#601,#599,#310,.T.);
#729=EDGE_CURVE('',#603,#605,#311,.T.);
#730=EDGE_CURVE('',#609,#607,#312,.T.);
#731=EDGE_CURVE('',#609,#603,#313,.T.);
#732=EDGE_CURVE('',#610,#608,#314,.T.);
#733=EDGE_CURVE('',#610,#609,#315,.T.);
#734=EDGE_CURVE('',#604,#606,#316,.T.);
#735=EDGE_CURVE('',#610,#604,#317,.T.);
#736=EDGE_CURVE('',#602,#600,#318,.T.);
#737=EDGE_CURVE('',#596,#598,#319,.T.);
#738=EDGE_CURVE('',#594,#592,#320,.T.);
#739=EDGE_CURVE('',#588,#590,#321,.T.);
#740=EDGE_CURVE('',#570,#567,#322,.T.);
#741=EDGE_CURVE('',#585,#572,#323,.T.);
#742=EDGE_CURVE('',#583,#581,#324,.T.);
#743=EDGE_CURVE('',#571,#583,#527,.T.);
#744=EDGE_CURVE('',#573,#581,#528,.T.);
#745=EDGE_CURVE('',#579,#585,#529,.T.);
#746=EDGE_CURVE('',#577,#572,#530,.T.);
#747=EDGE_CURVE('',#582,#580,#325,.T.);
#748=EDGE_CURVE('',#611,#612,#326,.T.);
#749=EDGE_CURVE('',#582,#611,#531,.T.);
#750=EDGE_CURVE('',#580,#612,#532,.T.);
#751=EDGE_CURVE('',#613,#576,#533,.T.);
#752=EDGE_CURVE('',#613,#614,#327,.T.);
#753=EDGE_CURVE('',#614,#578,#534,.T.);
#754=EDGE_CURVE('',#612,#614,#328,.T.);
#755=EDGE_CURVE('',#611,#613,#329,.T.);
#756=EDGE_CURVE('',#615,#613,#330,.T.);
#757=EDGE_CURVE('',#615,#616,#331,.T.);
#758=EDGE_CURVE('',#616,#614,#332,.T.);
#759=EDGE_CURVE('',#612,#617,#333,.T.);
#760=EDGE_CURVE('',#617,#618,#334,.T.);
#761=EDGE_CURVE('',#611,#618,#335,.T.);
#762=EDGE_CURVE('',#616,#619,#535,.T.);
#763=EDGE_CURVE('',#620,#619,#336,.T.);
#764=EDGE_CURVE('',#620,#617,#536,.T.);
#765=EDGE_CURVE('',#621,#622,#337,.T.);
#766=EDGE_CURVE('',#622,#615,#537,.T.);
#767=EDGE_CURVE('',#618,#621,#538,.T.);
#768=EDGE_CURVE('',#619,#622,#338,.T.);
#769=EDGE_CURVE('',#621,#620,#339,.T.);
#770=EDGE_CURVE('',#570,#564,#539,.T.);
#771=EDGE_CURVE('',#567,#562,#540,.T.);
#772=EDGE_CURVE('',#564,#562,#340,.T.);
#773=EDGE_CURVE('',#558,#569,#541,.T.);
#774=EDGE_CURVE('',#560,#574,#542,.T.);
#775=EDGE_CURVE('',#563,#561,#341,.T.);
#776=EDGE_CURVE('',#623,#624,#342,.T.);
#777=EDGE_CURVE('',#563,#623,#543,.T.);
#778=EDGE_CURVE('',#561,#624,#544,.T.);
#779=EDGE_CURVE('',#625,#557,#545,.T.);
#780=EDGE_CURVE('',#625,#626,#343,.T.);
#781=EDGE_CURVE('',#626,#559,#546,.T.);
#782=EDGE_CURVE('',#624,#626,#344,.T.);
#783=EDGE_CURVE('',#623,#625,#345,.T.);
#784=EDGE_CURVE('',#627,#625,#346,.T.);
#785=EDGE_CURVE('',#627,#628,#347,.T.);
#786=EDGE_CURVE('',#628,#626,#348,.T.);
#787=EDGE_CURVE('',#624,#629,#349,.T.);
#788=EDGE_CURVE('',#629,#630,#350,.T.);
#789=EDGE_CURVE('',#623,#630,#351,.T.);
#790=EDGE_CURVE('',#631,#632,#352,.T.);
#791=EDGE_CURVE('',#631,#629,#547,.T.);
#792=EDGE_CURVE('',#628,#632,#548,.T.);
#793=EDGE_CURVE('',#630,#633,#549,.T.);
#794=EDGE_CURVE('',#633,#634,#353,.T.);
#795=EDGE_CURVE('',#634,#627,#550,.T.);
#796=EDGE_CURVE('',#633,#631,#354,.T.);
#797=EDGE_CURVE('',#632,#634,#355,.T.);
#798=EDGE_CURVE('',#635,#636,#356,.T.);
#799=EDGE_CURVE('',#635,#637,#551,.T.);
#800=EDGE_CURVE('',#638,#637,#357,.T.);
#801=EDGE_CURVE('',#636,#638,#552,.T.);
#802=EDGE_CURVE('',#639,#635,#358,.T.);
#803=EDGE_CURVE('',#640,#636,#359,.T.);
#804=EDGE_CURVE('',#639,#640,#360,.T.);
#805=EDGE_CURVE('',#641,#642,#361,.T.);
#806=EDGE_CURVE('',#643,#641,#553,.T.);
#807=EDGE_CURVE('',#644,#643,#362,.T.);
#808=EDGE_CURVE('',#644,#642,#554,.T.);
#809=EDGE_CURVE('',#641,#645,#363,.T.);
#810=EDGE_CURVE('',#642,#646,#364,.T.);
#811=EDGE_CURVE('',#646,#645,#365,.T.);
#812=EDGE_CURVE('',#637,#641,#366,.T.);
#813=EDGE_CURVE('',#647,#645,#367,.T.);
#814=EDGE_CURVE('',#637,#647,#368,.T.);
#815=EDGE_CURVE('',#648,#646,#369,.T.);
#816=EDGE_CURVE('',#648,#647,#370,.T.);
#817=EDGE_CURVE('',#638,#642,#371,.T.);
#818=EDGE_CURVE('',#638,#648,#372,.T.);
#819=EDGE_CURVE('',#636,#644,#373,.T.);
#820=EDGE_CURVE('',#649,#644,#374,.T.);
#821=EDGE_CURVE('',#640,#649,#375,.T.);
#822=EDGE_CURVE('',#650,#649,#376,.T.);
#823=EDGE_CURVE('',#639,#650,#377,.T.);
#824=EDGE_CURVE('',#650,#643,#378,.T.);
#825=EDGE_CURVE('',#635,#643,#379,.T.);
#826=ORIENTED_EDGE('',*,*,#651,.T.);
#827=ORIENTED_EDGE('',*,*,#652,.T.);
#828=ORIENTED_EDGE('',*,*,#653,.T.);
#829=ORIENTED_EDGE('',*,*,#652,.F.);
#830=ORIENTED_EDGE('',*,*,#654,.F.);
#831=ORIENTED_EDGE('',*,*,#655,.T.);
#832=ORIENTED_EDGE('',*,*,#656,.T.);
#833=ORIENTED_EDGE('',*,*,#657,.F.);
#834=ORIENTED_EDGE('',*,*,#656,.F.);
#835=ORIENTED_EDGE('',*,*,#658,.T.);
#836=ORIENTED_EDGE('',*,*,#659,.F.);
#837=ORIENTED_EDGE('',*,*,#660,.T.);
#838=ORIENTED_EDGE('',*,*,#661,.F.);
#839=ORIENTED_EDGE('',*,*,#654,.T.);
#840=ORIENTED_EDGE('',*,*,#662,.F.);
#841=ORIENTED_EDGE('',*,*,#663,.T.);
#842=ORIENTED_EDGE('',*,*,#664,.F.);
#843=ORIENTED_EDGE('',*,*,#665,.T.);
#844=ORIENTED_EDGE('',*,*,#666,.T.);
#845=ORIENTED_EDGE('',*,*,#667,.T.);
#846=ORIENTED_EDGE('',*,*,#668,.F.);
#847=ORIENTED_EDGE('',*,*,#669,.F.);
#848=ORIENTED_EDGE('',*,*,#670,.F.);
#849=ORIENTED_EDGE('',*,*,#671,.T.);
#850=ORIENTED_EDGE('',*,*,#672,.T.);
#851=ORIENTED_EDGE('',*,*,#673,.T.);
#852=ORIENTED_EDGE('',*,*,#674,.F.);
#853=ORIENTED_EDGE('',*,*,#675,.T.);
#854=ORIENTED_EDGE('',*,*,#669,.T.);
#855=ORIENTED_EDGE('',*,*,#676,.T.);
#856=ORIENTED_EDGE('',*,*,#672,.F.);
#857=ORIENTED_EDGE('',*,*,#677,.F.);
#858=ORIENTED_EDGE('',*,*,#678,.F.);
#859=ORIENTED_EDGE('',*,*,#679,.T.);
#860=ORIENTED_EDGE('',*,*,#680,.T.);
#861=ORIENTED_EDGE('',*,*,#681,.F.);
#862=ORIENTED_EDGE('',*,*,#680,.F.);
#863=ORIENTED_EDGE('',*,*,#682,.T.);
#864=ORIENTED_EDGE('',*,*,#683,.F.);
#865=ORIENTED_EDGE('',*,*,#684,.T.);
#866=ORIENTED_EDGE('',*,*,#685,.F.);
#867=ORIENTED_EDGE('',*,*,#678,.T.);
#868=ORIENTED_EDGE('',*,*,#686,.F.);
#869=ORIENTED_EDGE('',*,*,#687,.T.);
#870=ORIENTED_EDGE('',*,*,#688,.T.);
#871=ORIENTED_EDGE('',*,*,#689,.T.);
#872=ORIENTED_EDGE('',*,*,#690,.F.);
#873=ORIENTED_EDGE('',*,*,#691,.T.);
#874=ORIENTED_EDGE('',*,*,#691,.F.);
#875=ORIENTED_EDGE('',*,*,#692,.F.);
#876=ORIENTED_EDGE('',*,*,#693,.F.);
#877=ORIENTED_EDGE('',*,*,#694,.T.);
#878=ORIENTED_EDGE('',*,*,#695,.F.);
#879=ORIENTED_EDGE('',*,*,#696,.T.);
#880=ORIENTED_EDGE('',*,*,#667,.F.);
#881=ORIENTED_EDGE('',*,*,#697,.F.);
#882=ORIENTED_EDGE('',*,*,#698,.T.);
#883=ORIENTED_EDGE('',*,*,#695,.T.);
#884=ORIENTED_EDGE('',*,*,#699,.F.);
#885=ORIENTED_EDGE('',*,*,#700,.T.);
#886=ORIENTED_EDGE('',*,*,#701,.F.);
#887=ORIENTED_EDGE('',*,*,#702,.F.);
#888=ORIENTED_EDGE('',*,*,#703,.F.);
#889=ORIENTED_EDGE('',*,*,#704,.T.);
#890=ORIENTED_EDGE('',*,*,#705,.F.);
#891=ORIENTED_EDGE('',*,*,#701,.T.);
#892=ORIENTED_EDGE('',*,*,#706,.T.);
#893=ORIENTED_EDGE('',*,*,#693,.T.);
#894=ORIENTED_EDGE('',*,*,#707,.F.);
#895=ORIENTED_EDGE('',*,*,#708,.T.);
#896=ORIENTED_EDGE('',*,*,#700,.F.);
#897=ORIENTED_EDGE('',*,*,#709,.F.);
#898=ORIENTED_EDGE('',*,*,#710,.T.);
#899=ORIENTED_EDGE('',*,*,#707,.T.);
#900=ORIENTED_EDGE('',*,*,#711,.F.);
#901=ORIENTED_EDGE('',*,*,#712,.T.);
#902=ORIENTED_EDGE('',*,*,#713,.F.);
#903=ORIENTED_EDGE('',*,*,#714,.F.);
#904=ORIENTED_EDGE('',*,*,#715,.F.);
#905=ORIENTED_EDGE('',*,*,#716,.T.);
#906=ORIENTED_EDGE('',*,*,#717,.F.);
#907=ORIENTED_EDGE('',*,*,#713,.T.);
#908=ORIENTED_EDGE('',*,*,#718,.T.);
#909=ORIENTED_EDGE('',*,*,#703,.T.);
#910=ORIENTED_EDGE('',*,*,#719,.F.);
#911=ORIENTED_EDGE('',*,*,#720,.T.);
#912=ORIENTED_EDGE('',*,*,#712,.F.);
#913=ORIENTED_EDGE('',*,*,#721,.F.);
#914=ORIENTED_EDGE('',*,*,#722,.T.);
#915=ORIENTED_EDGE('',*,*,#719,.T.);
#916=ORIENTED_EDGE('',*,*,#723,.F.);
#917=ORIENTED_EDGE('',*,*,#724,.T.);
#918=ORIENTED_EDGE('',*,*,#696,.F.);
#919=ORIENTED_EDGE('',*,*,#725,.F.);
#920=ORIENTED_EDGE('',*,*,#692,.T.);
#921=ORIENTED_EDGE('',*,*,#690,.T.);
#922=ORIENTED_EDGE('',*,*,#674,.T.);
#923=ORIENTED_EDGE('',*,*,#664,.T.);
#924=ORIENTED_EDGE('',*,*,#698,.F.);
#925=ORIENTED_EDGE('',*,*,#726,.F.);
#926=ORIENTED_EDGE('',*,*,#705,.T.);
#927=ORIENTED_EDGE('',*,*,#725,.T.);
#928=ORIENTED_EDGE('',*,*,#708,.F.);
#929=ORIENTED_EDGE('',*,*,#727,.F.);
#930=ORIENTED_EDGE('',*,*,#702,.T.);
#931=ORIENTED_EDGE('',*,*,#726,.T.);
#932=ORIENTED_EDGE('',*,*,#710,.F.);
#933=ORIENTED_EDGE('',*,*,#728,.F.);
#934=ORIENTED_EDGE('',*,*,#717,.T.);
#935=ORIENTED_EDGE('',*,*,#727,.T.);
#936=ORIENTED_EDGE('',*,*,#720,.F.);
#937=ORIENTED_EDGE('',*,*,#729,.F.);
#938=ORIENTED_EDGE('',*,*,#714,.T.);
#939=ORIENTED_EDGE('',*,*,#728,.T.);
#940=ORIENTED_EDGE('',*,*,#722,.F.);
#941=ORIENTED_EDGE('',*,*,#730,.F.);
#942=ORIENTED_EDGE('',*,*,#731,.T.);
#943=ORIENTED_EDGE('',*,*,#729,.T.);
#944=ORIENTED_EDGE('',*,*,#651,.F.);
#945=ORIENTED_EDGE('',*,*,#724,.F.);
#946=ORIENTED_EDGE('',*,*,#732,.F.);
#947=ORIENTED_EDGE('',*,*,#733,.T.);
#948=ORIENTED_EDGE('',*,*,#730,.T.);
#949=ORIENTED_EDGE('',*,*,#723,.T.);
#950=ORIENTED_EDGE('',*,*,#734,.F.);
#951=ORIENTED_EDGE('',*,*,#735,.F.);
#952=ORIENTED_EDGE('',*,*,#732,.T.);
#953=ORIENTED_EDGE('',*,*,#653,.F.);
#954=ORIENTED_EDGE('',*,*,#721,.T.);
#955=ORIENTED_EDGE('',*,*,#736,.F.);
#956=ORIENTED_EDGE('',*,*,#716,.F.);
#957=ORIENTED_EDGE('',*,*,#734,.T.);
#958=ORIENTED_EDGE('',*,*,#711,.T.);
#959=ORIENTED_EDGE('',*,*,#737,.F.);
#960=ORIENTED_EDGE('',*,*,#718,.F.);
#961=ORIENTED_EDGE('',*,*,#736,.T.);
#962=ORIENTED_EDGE('',*,*,#709,.T.);
#963=ORIENTED_EDGE('',*,*,#738,.F.);
#964=ORIENTED_EDGE('',*,*,#704,.F.);
#965=ORIENTED_EDGE('',*,*,#737,.T.);
#966=ORIENTED_EDGE('',*,*,#699,.T.);
#967=ORIENTED_EDGE('',*,*,#739,.F.);
#968=ORIENTED_EDGE('',*,*,#706,.F.);
#969=ORIENTED_EDGE('',*,*,#738,.T.);
#970=ORIENTED_EDGE('',*,*,#697,.T.);
#971=ORIENTED_EDGE('',*,*,#666,.F.);
#972=ORIENTED_EDGE('',*,*,#740,.F.);
#973=ORIENTED_EDGE('',*,*,#671,.F.);
#974=ORIENTED_EDGE('',*,*,#741,.F.);
#975=ORIENTED_EDGE('',*,*,#688,.F.);
#976=ORIENTED_EDGE('',*,*,#694,.F.);
#977=ORIENTED_EDGE('',*,*,#739,.T.);
#978=ORIENTED_EDGE('',*,*,#735,.T.);
#979=ORIENTED_EDGE('',*,*,#715,.T.);
#980=ORIENTED_EDGE('',*,*,#731,.F.);
#981=ORIENTED_EDGE('',*,*,#733,.F.);
#982=ORIENTED_EDGE('',*,*,#742,.F.);
#983=ORIENTED_EDGE('',*,*,#743,.F.);
#984=ORIENTED_EDGE('',*,*,#677,.T.);
#985=ORIENTED_EDGE('',*,*,#744,.T.);
#986=ORIENTED_EDGE('',*,*,#745,.T.);
#987=ORIENTED_EDGE('',*,*,#741,.T.);
#988=ORIENTED_EDGE('',*,*,#746,.F.);
#989=ORIENTED_EDGE('',*,*,#681,.T.);
#990=ORIENTED_EDGE('',*,*,#675,.F.);
#991=ORIENTED_EDGE('',*,*,#689,.F.);
#992=ORIENTED_EDGE('',*,*,#745,.F.);
#993=ORIENTED_EDGE('',*,*,#684,.F.);
#994=ORIENTED_EDGE('',*,*,#744,.F.);
#995=ORIENTED_EDGE('',*,*,#670,.T.);
#996=ORIENTED_EDGE('',*,*,#743,.T.);
#997=ORIENTED_EDGE('',*,*,#686,.T.);
#998=ORIENTED_EDGE('',*,*,#746,.T.);
#999=ORIENTED_EDGE('',*,*,#747,.F.);
#1000=ORIENTED_EDGE('',*,*,#687,.F.);
#1001=ORIENTED_EDGE('',*,*,#742,.T.);
#1002=ORIENTED_EDGE('',*,*,#683,.T.);
#1003=ORIENTED_EDGE('',*,*,#748,.F.);
#1004=ORIENTED_EDGE('',*,*,#749,.F.);
#1005=ORIENTED_EDGE('',*,*,#747,.T.);
#1006=ORIENTED_EDGE('',*,*,#750,.T.);
#1007=ORIENTED_EDGE('',*,*,#751,.F.);
#1008=ORIENTED_EDGE('',*,*,#752,.T.);
#1009=ORIENTED_EDGE('',*,*,#753,.T.);
#1010=ORIENTED_EDGE('',*,*,#679,.F.);
#1011=ORIENTED_EDGE('',*,*,#682,.F.);
#1012=ORIENTED_EDGE('',*,*,#753,.F.);
#1013=ORIENTED_EDGE('',*,*,#754,.F.);
#1014=ORIENTED_EDGE('',*,*,#750,.F.);
#1015=ORIENTED_EDGE('',*,*,#685,.T.);
#1016=ORIENTED_EDGE('',*,*,#749,.T.);
#1017=ORIENTED_EDGE('',*,*,#755,.T.);
#1018=ORIENTED_EDGE('',*,*,#751,.T.);
#1019=ORIENTED_EDGE('',*,*,#756,.F.);
#1020=ORIENTED_EDGE('',*,*,#757,.T.);
#1021=ORIENTED_EDGE('',*,*,#758,.T.);
#1022=ORIENTED_EDGE('',*,*,#752,.F.);
#1023=ORIENTED_EDGE('',*,*,#759,.T.);
#1024=ORIENTED_EDGE('',*,*,#760,.T.);
#1025=ORIENTED_EDGE('',*,*,#761,.F.);
#1026=ORIENTED_EDGE('',*,*,#748,.T.);
#1027=ORIENTED_EDGE('',*,*,#758,.F.);
#1028=ORIENTED_EDGE('',*,*,#762,.T.);
#1029=ORIENTED_EDGE('',*,*,#763,.F.);
#1030=ORIENTED_EDGE('',*,*,#764,.T.);
#1031=ORIENTED_EDGE('',*,*,#759,.F.);
#1032=ORIENTED_EDGE('',*,*,#754,.T.);
#1033=ORIENTED_EDGE('',*,*,#765,.T.);
#1034=ORIENTED_EDGE('',*,*,#766,.T.);
#1035=ORIENTED_EDGE('',*,*,#756,.T.);
#1036=ORIENTED_EDGE('',*,*,#755,.F.);
#1037=ORIENTED_EDGE('',*,*,#761,.T.);
#1038=ORIENTED_EDGE('',*,*,#767,.T.);
#1039=ORIENTED_EDGE('',*,*,#763,.T.);
#1040=ORIENTED_EDGE('',*,*,#768,.T.);
#1041=ORIENTED_EDGE('',*,*,#765,.F.);
#1042=ORIENTED_EDGE('',*,*,#769,.T.);
#1043=ORIENTED_EDGE('',*,*,#770,.F.);
#1044=ORIENTED_EDGE('',*,*,#740,.T.);
#1045=ORIENTED_EDGE('',*,*,#771,.T.);
#1046=ORIENTED_EDGE('',*,*,#772,.F.);
#1047=ORIENTED_EDGE('',*,*,#773,.F.);
#1048=ORIENTED_EDGE('',*,*,#657,.T.);
#1049=ORIENTED_EDGE('',*,*,#774,.T.);
#1050=ORIENTED_EDGE('',*,*,#676,.F.);
#1051=ORIENTED_EDGE('',*,*,#673,.F.);
#1052=ORIENTED_EDGE('',*,*,#774,.F.);
#1053=ORIENTED_EDGE('',*,*,#660,.F.);
#1054=ORIENTED_EDGE('',*,*,#771,.F.);
#1055=ORIENTED_EDGE('',*,*,#665,.F.);
#1056=ORIENTED_EDGE('',*,*,#668,.T.);
#1057=ORIENTED_EDGE('',*,*,#770,.T.);
#1058=ORIENTED_EDGE('',*,*,#662,.T.);
#1059=ORIENTED_EDGE('',*,*,#773,.T.);
#1060=ORIENTED_EDGE('',*,*,#775,.F.);
#1061=ORIENTED_EDGE('',*,*,#663,.F.);
#1062=ORIENTED_EDGE('',*,*,#772,.T.);
#1063=ORIENTED_EDGE('',*,*,#659,.T.);
#1064=ORIENTED_EDGE('',*,*,#776,.F.);
#1065=ORIENTED_EDGE('',*,*,#777,.F.);
#1066=ORIENTED_EDGE('',*,*,#775,.T.);
#1067=ORIENTED_EDGE('',*,*,#778,.T.);
#1068=ORIENTED_EDGE('',*,*,#779,.F.);
#1069=ORIENTED_EDGE('',*,*,#780,.T.);
#1070=ORIENTED_EDGE('',*,*,#781,.T.);
#1071=ORIENTED_EDGE('',*,*,#655,.F.);
#1072=ORIENTED_EDGE('',*,*,#658,.F.);
#1073=ORIENTED_EDGE('',*,*,#781,.F.);
#1074=ORIENTED_EDGE('',*,*,#782,.F.);
#1075=ORIENTED_EDGE('',*,*,#778,.F.);
#1076=ORIENTED_EDGE('',*,*,#661,.T.);
#1077=ORIENTED_EDGE('',*,*,#777,.T.);
#1078=ORIENTED_EDGE('',*,*,#783,.T.);
#1079=ORIENTED_EDGE('',*,*,#779,.T.);
#1080=ORIENTED_EDGE('',*,*,#784,.F.);
#1081=ORIENTED_EDGE('',*,*,#785,.T.);
#1082=ORIENTED_EDGE('',*,*,#786,.T.);
#1083=ORIENTED_EDGE('',*,*,#780,.F.);
#1084=ORIENTED_EDGE('',*,*,#787,.T.);
#1085=ORIENTED_EDGE('',*,*,#788,.T.);
#1086=ORIENTED_EDGE('',*,*,#789,.F.);
#1087=ORIENTED_EDGE('',*,*,#776,.T.);
#1088=ORIENTED_EDGE('',*,*,#790,.F.);
#1089=ORIENTED_EDGE('',*,*,#791,.T.);
#1090=ORIENTED_EDGE('',*,*,#787,.F.);
#1091=ORIENTED_EDGE('',*,*,#782,.T.);
#1092=ORIENTED_EDGE('',*,*,#786,.F.);
#1093=ORIENTED_EDGE('',*,*,#792,.T.);
#1094=ORIENTED_EDGE('',*,*,#789,.T.);
#1095=ORIENTED_EDGE('',*,*,#793,.T.);
#1096=ORIENTED_EDGE('',*,*,#794,.T.);
#1097=ORIENTED_EDGE('',*,*,#795,.T.);
#1098=ORIENTED_EDGE('',*,*,#784,.T.);
#1099=ORIENTED_EDGE('',*,*,#783,.F.);
#1100=ORIENTED_EDGE('',*,*,#794,.F.);
#1101=ORIENTED_EDGE('',*,*,#796,.T.);
#1102=ORIENTED_EDGE('',*,*,#790,.T.);
#1103=ORIENTED_EDGE('',*,*,#797,.T.);
#1104=ORIENTED_EDGE('',*,*,#762,.F.);
#1105=ORIENTED_EDGE('',*,*,#757,.F.);
#1106=ORIENTED_EDGE('',*,*,#766,.F.);
#1107=ORIENTED_EDGE('',*,*,#768,.F.);
#1108=ORIENTED_EDGE('',*,*,#791,.F.);
#1109=ORIENTED_EDGE('',*,*,#796,.F.);
#1110=ORIENTED_EDGE('',*,*,#793,.F.);
#1111=ORIENTED_EDGE('',*,*,#788,.F.);
#1112=ORIENTED_EDGE('',*,*,#764,.F.);
#1113=ORIENTED_EDGE('',*,*,#769,.F.);
#1114=ORIENTED_EDGE('',*,*,#767,.F.);
#1115=ORIENTED_EDGE('',*,*,#760,.F.);
#1116=ORIENTED_EDGE('',*,*,#792,.F.);
#1117=ORIENTED_EDGE('',*,*,#785,.F.);
#1118=ORIENTED_EDGE('',*,*,#795,.F.);
#1119=ORIENTED_EDGE('',*,*,#797,.F.);
#1120=ORIENTED_EDGE('',*,*,#798,.F.);
#1121=ORIENTED_EDGE('',*,*,#799,.T.);
#1122=ORIENTED_EDGE('',*,*,#800,.F.);
#1123=ORIENTED_EDGE('',*,*,#801,.F.);
#1124=ORIENTED_EDGE('',*,*,#802,.T.);
#1125=ORIENTED_EDGE('',*,*,#798,.T.);
#1126=ORIENTED_EDGE('',*,*,#803,.F.);
#1127=ORIENTED_EDGE('',*,*,#804,.F.);
#1128=ORIENTED_EDGE('',*,*,#805,.F.);
#1129=ORIENTED_EDGE('',*,*,#806,.F.);
#1130=ORIENTED_EDGE('',*,*,#807,.F.);
#1131=ORIENTED_EDGE('',*,*,#808,.T.);
#1132=ORIENTED_EDGE('',*,*,#809,.F.);
#1133=ORIENTED_EDGE('',*,*,#805,.T.);
#1134=ORIENTED_EDGE('',*,*,#810,.T.);
#1135=ORIENTED_EDGE('',*,*,#811,.T.);
#1136=ORIENTED_EDGE('',*,*,#812,.T.);
#1137=ORIENTED_EDGE('',*,*,#809,.T.);
#1138=ORIENTED_EDGE('',*,*,#813,.F.);
#1139=ORIENTED_EDGE('',*,*,#814,.F.);
#1140=ORIENTED_EDGE('',*,*,#813,.T.);
#1141=ORIENTED_EDGE('',*,*,#811,.F.);
#1142=ORIENTED_EDGE('',*,*,#815,.F.);
#1143=ORIENTED_EDGE('',*,*,#816,.T.);
#1144=ORIENTED_EDGE('',*,*,#815,.T.);
#1145=ORIENTED_EDGE('',*,*,#810,.F.);
#1146=ORIENTED_EDGE('',*,*,#817,.F.);
#1147=ORIENTED_EDGE('',*,*,#818,.T.);
#1148=ORIENTED_EDGE('',*,*,#817,.T.);
#1149=ORIENTED_EDGE('',*,*,#808,.F.);
#1150=ORIENTED_EDGE('',*,*,#819,.F.);
#1151=ORIENTED_EDGE('',*,*,#801,.T.);
#1152=ORIENTED_EDGE('',*,*,#819,.T.);
#1153=ORIENTED_EDGE('',*,*,#820,.F.);
#1154=ORIENTED_EDGE('',*,*,#821,.F.);
#1155=ORIENTED_EDGE('',*,*,#803,.T.);
#1156=ORIENTED_EDGE('',*,*,#821,.T.);
#1157=ORIENTED_EDGE('',*,*,#822,.F.);
#1158=ORIENTED_EDGE('',*,*,#823,.F.);
#1159=ORIENTED_EDGE('',*,*,#804,.T.);
#1160=ORIENTED_EDGE('',*,*,#823,.T.);
#1161=ORIENTED_EDGE('',*,*,#824,.T.);
#1162=ORIENTED_EDGE('',*,*,#825,.F.);
#1163=ORIENTED_EDGE('',*,*,#802,.F.);
#1164=ORIENTED_EDGE('',*,*,#825,.T.);
#1165=ORIENTED_EDGE('',*,*,#806,.T.);
#1166=ORIENTED_EDGE('',*,*,#812,.F.);
#1167=ORIENTED_EDGE('',*,*,#799,.F.);
#1168=ORIENTED_EDGE('',*,*,#814,.T.);
#1169=ORIENTED_EDGE('',*,*,#816,.F.);
#1170=ORIENTED_EDGE('',*,*,#818,.F.);
#1171=ORIENTED_EDGE('',*,*,#800,.T.);
#1172=ORIENTED_EDGE('',*,*,#820,.T.);
#1173=ORIENTED_EDGE('',*,*,#807,.T.);
#1174=ORIENTED_EDGE('',*,*,#824,.F.);
#1175=ORIENTED_EDGE('',*,*,#822,.T.);
#1176=CYLINDRICAL_SURFACE('',#1295,1.5);
#1177=CYLINDRICAL_SURFACE('',#1334,2.5);
#1178=CYLINDRICAL_SURFACE('',#1336,0.5);
#1179=CYLINDRICAL_SURFACE('',#1338,0.5);
#1180=CYLINDRICAL_SURFACE('',#1342,2.5);
#1181=CYLINDRICAL_SURFACE('',#1344,2.5);
#1182=CYLINDRICAL_SURFACE('',#1346,0.5);
#1183=CYLINDRICAL_SURFACE('',#1354,2.5);
#1184=CYLINDRICAL_SURFACE('',#1355,0.5);
#1185=CYLINDRICAL_SURFACE('',#1363,2.5);
#1186=CYLINDRICAL_SURFACE('',#1364,0.500000000000002);
#1187=CYLINDRICAL_SURFACE('',#1380,2.5);
#1188=CYLINDRICAL_SURFACE('',#1381,0.5);
#1189=CYLINDRICAL_SURFACE('',#1389,2.5);
#1190=CYLINDRICAL_SURFACE('',#1390,0.5);
#1191=CYLINDRICAL_SURFACE('',#1400,4.);
#1192=CYLINDRICAL_SURFACE('',#1401,4.);
#1193=CYLINDRICAL_SURFACE('',#1402,4.);
#1194=CYLINDRICAL_SURFACE('',#1403,4.);
#1195=CYLINDRICAL_SURFACE('',#1415,0.5);
#1196=CYLINDRICAL_SURFACE('',#1419,2.5);
#1197=ADVANCED_FACE('',(#81),#1176,.F.);
#1198=ADVANCED_FACE('',(#82),#19,.T.);
#1199=ADVANCED_FACE('',(#83),#20,.T.);
#1200=ADVANCED_FACE('',(#84),#21,.F.);
#1201=ADVANCED_FACE('',(#85),#22,.T.);
#1202=ADVANCED_FACE('',(#86),#23,.F.);
#1203=ADVANCED_FACE('',(#87),#24,.T.);
#1204=ADVANCED_FACE('',(#88),#25,.T.);
#1205=ADVANCED_FACE('',(#89),#26,.T.);
#1206=ADVANCED_FACE('',(#90),#27,.T.);
#1207=ADVANCED_FACE('',(#91),#28,.F.);
#1208=ADVANCED_FACE('',(#92),#29,.T.);
#1209=ADVANCED_FACE('',(#93),#30,.T.);
#1210=ADVANCED_FACE('',(#94),#31,.T.);
#1211=ADVANCED_FACE('',(#95),#32,.T.);
#1212=ADVANCED_FACE('',(#96),#33,.T.);
#1213=ADVANCED_FACE('',(#97),#34,.T.);
#1214=ADVANCED_FACE('',(#98),#35,.T.);
#1215=ADVANCED_FACE('',(#99),#36,.T.);
#1216=ADVANCED_FACE('',(#100),#37,.T.);
#1217=ADVANCED_FACE('',(#101),#38,.T.);
#1218=ADVANCED_FACE('',(#102),#39,.T.);
#1219=ADVANCED_FACE('',(#103),#40,.T.);
#1220=ADVANCED_FACE('',(#104),#1177,.T.);
#1221=ADVANCED_FACE('',(#105),#41,.T.);
#1222=ADVANCED_FACE('',(#106),#1178,.F.);
#1223=ADVANCED_FACE('',(#107),#42,.T.);
#1224=ADVANCED_FACE('',(#108),#1179,.F.);
#1225=ADVANCED_FACE('',(#109,#17),#43,.T.);
#1226=ADVANCED_FACE('',(#110),#44,.T.);
#1227=ADVANCED_FACE('',(#111,#18),#45,.F.);
#1228=ADVANCED_FACE('',(#112),#1180,.T.);
#1229=ADVANCED_FACE('',(#113),#46,.F.);
#1230=ADVANCED_FACE('',(#114),#1181,.T.);
#1231=ADVANCED_FACE('',(#115),#47,.F.);
#1232=ADVANCED_FACE('',(#116),#1182,.F.);
#1233=ADVANCED_FACE('',(#117),#48,.F.);
#1234=ADVANCED_FACE('',(#118),#49,.T.);
#1235=ADVANCED_FACE('',(#119),#50,.F.);
#1236=ADVANCED_FACE('',(#120),#1183,.T.);
#1237=ADVANCED_FACE('',(#121),#1184,.F.);
#1238=ADVANCED_FACE('',(#122),#51,.T.);
#1239=ADVANCED_FACE('',(#123),#52,.T.);
#1240=ADVANCED_FACE('',(#124),#53,.F.);
#1241=ADVANCED_FACE('',(#125),#1185,.T.);
#1242=ADVANCED_FACE('',(#126),#1186,.F.);
#1243=ADVANCED_FACE('',(#127),#54,.T.);
#1244=ADVANCED_FACE('',(#128),#55,.T.);
#1245=ADVANCED_FACE('',(#129),#56,.T.);
#1246=ADVANCED_FACE('',(#130),#57,.F.);
#1247=ADVANCED_FACE('',(#131),#58,.T.);
#1248=ADVANCED_FACE('',(#132),#59,.T.);
#1249=ADVANCED_FACE('',(#133),#60,.F.);
#1250=ADVANCED_FACE('',(#134),#1187,.T.);
#1251=ADVANCED_FACE('',(#135),#1188,.F.);
#1252=ADVANCED_FACE('',(#136),#61,.T.);
#1253=ADVANCED_FACE('',(#137),#62,.T.);
#1254=ADVANCED_FACE('',(#138),#63,.F.);
#1255=ADVANCED_FACE('',(#139),#1189,.T.);
#1256=ADVANCED_FACE('',(#140),#1190,.F.);
#1257=ADVANCED_FACE('',(#141),#64,.T.);
#1258=ADVANCED_FACE('',(#142),#65,.T.);
#1259=ADVANCED_FACE('',(#143),#66,.T.);
#1260=ADVANCED_FACE('',(#144),#67,.F.);
#1261=ADVANCED_FACE('',(#145),#68,.T.);
#1262=ADVANCED_FACE('',(#146),#1191,.T.);
#1263=ADVANCED_FACE('',(#147),#1192,.T.);
#1264=ADVANCED_FACE('',(#148),#1193,.T.);
#1265=ADVANCED_FACE('',(#149),#1194,.T.);
#1266=ADVANCED_FACE('',(#150),#69,.T.);
#1267=ADVANCED_FACE('',(#151),#70,.T.);
#1268=ADVANCED_FACE('',(#152),#71,.T.);
#1269=ADVANCED_FACE('',(#153),#72,.T.);
#1270=ADVANCED_FACE('',(#154),#73,.F.);
#1271=ADVANCED_FACE('',(#155),#74,.T.);
#1272=ADVANCED_FACE('',(#156),#75,.T.);
#1273=ADVANCED_FACE('',(#157),#1195,.F.);
#1274=ADVANCED_FACE('',(#158),#76,.T.);
#1275=ADVANCED_FACE('',(#159),#77,.T.);
#1276=ADVANCED_FACE('',(#160),#78,.F.);
#1277=ADVANCED_FACE('',(#161),#1196,.T.);
#1278=ADVANCED_FACE('',(#162),#79,.T.);
#1279=ADVANCED_FACE('',(#163),#80,.F.);
#1280=CLOSED_SHELL('',(#1197,#1198,#1199,#1200,#1201,#1202,#1203,#1204,
#1205,#1206,#1207,#1208,#1209,#1210,#1211,#1212,#1213,#1214,#1215,#1216,
#1217,#1218,#1219,#1220,#1221,#1222,#1223,#1224,#1225,#1226,#1227,#1228,
#1229,#1230,#1231,#1232,#1233,#1234,#1235,#1236,#1237,#1238,#1239,#1240,
#1241,#1242,#1243,#1244,#1245,#1246,#1247,#1248,#1249,#1250,#1251,#1252,
#1253,#1254,#1255,#1256,#1257,#1258,#1259,#1260,#1261,#1262,#1263,#1264,
#1265));
#1281=CLOSED_SHELL('',(#1266,#1267,#1268,#1269,#1270,#1271,#1272,#1273,
#1274,#1275,#1276,#1277,#1278,#1279));
#1282=DERIVED_UNIT_ELEMENT(#1284,1.);
#1283=DERIVED_UNIT_ELEMENT(#2169,-3.);
#1284=(
MASS_UNIT()
NAMED_UNIT(*)
SI_UNIT(.KILO.,.GRAM.)
);
#1285=DERIVED_UNIT((#1282,#1283));
#1286=MEASURE_REPRESENTATION_ITEM('density measure',
POSITIVE_RATIO_MEASURE(7850.),#1285);
#1287=PROPERTY_DEFINITION_REPRESENTATION(#1292,#1289);
#1288=PROPERTY_DEFINITION_REPRESENTATION(#1293,#1290);
#1289=REPRESENTATION('material name',(#1291),#2166);
#1290=REPRESENTATION('density',(#1286),#2166);
#1291=DESCRIPTIVE_REPRESENTATION_ITEM('Steel','Steel');
#1292=PROPERTY_DEFINITION('material property','material name',#2176);
#1293=PROPERTY_DEFINITION('material property','density of part',#2176);
#1294=AXIS2_PLACEMENT_3D('placement',#1809,#1422,#1423);
#1295=AXIS2_PLACEMENT_3D('',#1810,#1424,#1425);
#1296=AXIS2_PLACEMENT_3D('',#1812,#1426,#1427);
#1297=AXIS2_PLACEMENT_3D('',#1815,#1429,#1430);
#1298=AXIS2_PLACEMENT_3D('',#1816,#1431,#1432);
#1299=AXIS2_PLACEMENT_3D('',#1825,#1437,#1438);
#1300=AXIS2_PLACEMENT_3D('',#1831,#1442,#1443);
#1301=AXIS2_PLACEMENT_3D('',#1837,#1447,#1448);
#1302=AXIS2_PLACEMENT_3D('',#1842,#1450,#1451);
#1303=AXIS2_PLACEMENT_3D('',#1846,#1454,#1455);
#1304=AXIS2_PLACEMENT_3D('',#1855,#1460,#1461);
#1305=AXIS2_PLACEMENT_3D('',#1863,#1466,#1467);
#1306=AXIS2_PLACEMENT_3D('',#1866,#1470,#1471);
#1307=AXIS2_PLACEMENT_3D('',#1875,#1476,#1477);
#1308=AXIS2_PLACEMENT_3D('',#1881,#1481,#1482);
#1309=AXIS2_PLACEMENT_3D('',#1887,#1486,#1487);
#1310=AXIS2_PLACEMENT_3D('',#1891,#1489,#1490);
#1311=AXIS2_PLACEMENT_3D('',#1895,#1493,#1494);
#1312=AXIS2_PLACEMENT_3D('',#1897,#1495,#1496);
#1313=AXIS2_PLACEMENT_3D('',#1900,#1498,#1499);
#1314=AXIS2_PLACEMENT_3D('',#1901,#1500,#1501);
#1315=AXIS2_PLACEMENT_3D('',#1905,#1503,#1504);
#1316=AXIS2_PLACEMENT_3D('',#1906,#1505,#1506);
#1317=AXIS2_PLACEMENT_3D('',#1907,#1507,#1508);
#1318=AXIS2_PLACEMENT_3D('',#1913,#1512,#1513);
#1319=AXIS2_PLACEMENT_3D('',#1918,#1515,#1516);
#1320=AXIS2_PLACEMENT_3D('',#1921,#1518,#1519);
#1321=AXIS2_PLACEMENT_3D('',#1922,#1520,#1521);
#1322=AXIS2_PLACEMENT_3D('',#1925,#1524,#1525);
#1323=AXIS2_PLACEMENT_3D('',#1929,#1527,#1528);
#1324=AXIS2_PLACEMENT_3D('',#1930,#1529,#1530);
#1325=AXIS2_PLACEMENT_3D('',#1931,#1531,#1532);
#1326=AXIS2_PLACEMENT_3D('',#1937,#1536,#1537);
#1327=AXIS2_PLACEMENT_3D('',#1942,#1539,#1540);
#1328=AXIS2_PLACEMENT_3D('',#1945,#1542,#1543);
#1329=AXIS2_PLACEMENT_3D('',#1946,#1544,#1545);
#1330=AXIS2_PLACEMENT_3D('',#1949,#1548,#1549);
#1331=AXIS2_PLACEMENT_3D('',#1953,#1551,#1552);
#1332=AXIS2_PLACEMENT_3D('',#1954,#1553,#1554);
#1333=AXIS2_PLACEMENT_3D('',#1955,#1555,#1556);
#1334=AXIS2_PLACEMENT_3D('',#1961,#1560,#1561);
#1335=AXIS2_PLACEMENT_3D('',#1963,#1563,#1564);
#1336=AXIS2_PLACEMENT_3D('',#1965,#1566,#1567);
#1337=AXIS2_PLACEMENT_3D('',#1967,#1569,#1570);
#1338=AXIS2_PLACEMENT_3D('',#1969,#1572,#1573);
#1339=AXIS2_PLACEMENT_3D('',#1971,#1575,#1576);
#1340=AXIS2_PLACEMENT_3D('',#1975,#1579,#1580);
#1341=AXIS2_PLACEMENT_3D('',#1979,#1583,#1584);
#1342=AXIS2_PLACEMENT_3D('',#1982,#1587,#1588);
#1343=AXIS2_PLACEMENT_3D('',#1984,#1590,#1591);
#1344=AXIS2_PLACEMENT_3D('',#1986,#1593,#1594);
#1345=AXIS2_PLACEMENT_3D('',#1988,#1596,#1597);
#1346=AXIS2_PLACEMENT_3D('',#1990,#1599,#1600);
#1347=AXIS2_PLACEMENT_3D('',#1993,#1603,#1604);
#1348=AXIS2_PLACEMENT_3D('',#1994,#1605,#1606);
#1349=AXIS2_PLACEMENT_3D('',#1996,#1608,#1609);
#1350=AXIS2_PLACEMENT_3D('',#1997,#1610,#1611);
#1351=AXIS2_PLACEMENT_3D('',#1998,#1612,#1613);
#1352=AXIS2_PLACEMENT_3D('',#1999,#1614,#1615);
#1353=AXIS2_PLACEMENT_3D('',#2000,#1616,#1617);
#1354=AXIS2_PLACEMENT_3D('',#2001,#1618,#1619);
#1355=AXIS2_PLACEMENT_3D('',#2002,#1620,#1621);
#1356=AXIS2_PLACEMENT_3D('',#2003,#1622,#1623);
#1357=AXIS2_PLACEMENT_3D('',#2005,#1625,#1626);
#1358=AXIS2_PLACEMENT_3D('',#2009,#1628,#1629);
#1359=AXIS2_PLACEMENT_3D('',#2010,#1630,#1631);
#1360=AXIS2_PLACEMENT_3D('',#2011,#1632,#1633);
#1361=AXIS2_PLACEMENT_3D('',#2013,#1634,#1635);
#1362=AXIS2_PLACEMENT_3D('',#2016,#1637,#1638);
#1363=AXIS2_PLACEMENT_3D('',#2017,#1639,#1640);
#1364=AXIS2_PLACEMENT_3D('',#2019,#1642,#1643);
#1365=AXIS2_PLACEMENT_3D('',#2021,#1645,#1646);
#1366=AXIS2_PLACEMENT_3D('',#2027,#1650,#1651);
#1367=AXIS2_PLACEMENT_3D('',#2033,#1655,#1656);
#1368=AXIS2_PLACEMENT_3D('',#2035,#1657,#1658);
#1369=AXIS2_PLACEMENT_3D('',#2038,#1660,#1661);
#1370=AXIS2_PLACEMENT_3D('',#2039,#1662,#1663);
#1371=AXIS2_PLACEMENT_3D('',#2043,#1665,#1666);
#1372=AXIS2_PLACEMENT_3D('',#2044,#1667,#1668);
#1373=AXIS2_PLACEMENT_3D('',#2045,#1669,#1670);
#1374=AXIS2_PLACEMENT_3D('',#2048,#1673,#1674);
#1375=AXIS2_PLACEMENT_3D('',#2049,#1675,#1676);
#1376=AXIS2_PLACEMENT_3D('',#2050,#1677,#1678);
#1377=AXIS2_PLACEMENT_3D('',#2052,#1680,#1681);
#1378=AXIS2_PLACEMENT_3D('',#2053,#1682,#1683);
#1379=AXIS2_PLACEMENT_3D('',#2054,#1684,#1685);
#1380=AXIS2_PLACEMENT_3D('',#2055,#1686,#1687);
#1381=AXIS2_PLACEMENT_3D('',#2056,#1688,#1689);
#1382=AXIS2_PLACEMENT_3D('',#2057,#1690,#1691);
#1383=AXIS2_PLACEMENT_3D('',#2059,#1693,#1694);
#1384=AXIS2_PLACEMENT_3D('',#2063,#1696,#1697);
#1385=AXIS2_PLACEMENT_3D('',#2064,#1698,#1699);
#1386=AXIS2_PLACEMENT_3D('',#2065,#1700,#1701);
#1387=AXIS2_PLACEMENT_3D('',#2067,#1702,#1703);
#1388=AXIS2_PLACEMENT_3D('',#2070,#1705,#1706);
#1389=AXIS2_PLACEMENT_3D('',#2071,#1707,#1708);
#1390=AXIS2_PLACEMENT_3D('',#2073,#1710,#1711);
#1391=AXIS2_PLACEMENT_3D('',#2075,#1713,#1714);
#1392=AXIS2_PLACEMENT_3D('',#2081,#1718,#1719);
#1393=AXIS2_PLACEMENT_3D('',#2087,#1723,#1724);
#1394=AXIS2_PLACEMENT_3D('',#2091,#1726,#1727);
#1395=AXIS2_PLACEMENT_3D('',#2092,#1728,#1729);
#1396=AXIS2_PLACEMENT_3D('',#2093,#1730,#1731);
#1397=AXIS2_PLACEMENT_3D('',#2095,#1732,#1733);
#1398=AXIS2_PLACEMENT_3D('',#2098,#1735,#1736);
#1399=AXIS2_PLACEMENT_3D('',#2099,#1737,#1738);
#1400=AXIS2_PLACEMENT_3D('',#2102,#1741,#1742);
#1401=AXIS2_PLACEMENT_3D('',#2103,#1743,#1744);
#1402=AXIS2_PLACEMENT_3D('',#2104,#1745,#1746);
#1403=AXIS2_PLACEMENT_3D('',#2105,#1747,#1748);
#1404=AXIS2_PLACEMENT_3D('',#2106,#1749,#1750);
#1405=AXIS2_PLACEMENT_3D('',#2111,#1752,#1753);
#1406=AXIS2_PLACEMENT_3D('',#2114,#1755,#1756);
#1407=AXIS2_PLACEMENT_3D('',#2115,#1757,#1758);
#1408=AXIS2_PLACEMENT_3D('',#2121,#1762,#1763);
#1409=AXIS2_PLACEMENT_3D('',#2126,#1765,#1766);
#1410=AXIS2_PLACEMENT_3D('',#2129,#1768,#1769);
#1411=AXIS2_PLACEMENT_3D('',#2130,#1770,#1771);
#1412=AXIS2_PLACEMENT_3D('',#2136,#1775,#1776);
#1413=AXIS2_PLACEMENT_3D('',#2141,#1780,#1781);
#1414=AXIS2_PLACEMENT_3D('',#2145,#1784,#1785);
#1415=AXIS2_PLACEMENT_3D('',#2148,#1788,#1789);
#1416=AXIS2_PLACEMENT_3D('',#2150,#1791,#1792);
#1417=AXIS2_PLACEMENT_3D('',#2154,#1795,#1796);
#1418=AXIS2_PLACEMENT_3D('',#2158,#1799,#1800);
#1419=AXIS2_PLACEMENT_3D('',#2161,#1803,#1804);
#1420=AXIS2_PLACEMENT_3D('',#2162,#1805,#1806);
#1421=AXIS2_PLACEMENT_3D('',#2163,#1807,#1808);
#1422=DIRECTION('axis',(0.,0.,1.));
#1423=DIRECTION('refdir',(1.,0.,0.));
#1424=DIRECTION('center_axis',(1.,1.33440267382831E-16,0.));
#1425=DIRECTION('ref_axis',(-1.33440267382831E-16,1.,0.));
#1426=DIRECTION('center_axis',(-1.,0.,0.));
#1427=DIRECTION('ref_axis',(0.,0.,1.));
#1428=DIRECTION('',(1.,1.33440267382831E-16,0.));
#1429=DIRECTION('center_axis',(1.,1.33440267382831E-16,0.));
#1430=DIRECTION('ref_axis',(-1.33440267382831E-16,1.,0.));
#1431=DIRECTION('center_axis',(-1.,0.,0.));
#1432=DIRECTION('ref_axis',(0.,0.,1.));
#1433=DIRECTION('',(0.,-1.,0.));
#1434=DIRECTION('',(0.,0.,-1.));
#1435=DIRECTION('',(0.,-1.,0.));
#1436=DIRECTION('',(0.,6.98296267768627E-15,-1.));
#1437=DIRECTION('center_axis',(0.,0.,-1.));
#1438=DIRECTION('ref_axis',(-1.,0.,0.));
#1439=DIRECTION('',(1.,0.,0.));
#1440=DIRECTION('',(-1.15648231731787E-16,1.,0.));
#1441=DIRECTION('',(-1.,-1.3686181270034E-16,0.));
#1442=DIRECTION('center_axis',(0.,0.,-1.));
#1443=DIRECTION('ref_axis',(-1.,0.,0.));
#1444=DIRECTION('',(1.,0.,0.));
#1445=DIRECTION('',(-1.,-1.3686181270034E-16,0.));
#1446=DIRECTION('',(-1.15648231731787E-16,1.,0.));
#1447=DIRECTION('center_axis',(-1.,-1.3043033653961E-16,-5.43025360259559E-31));
#1448=DIRECTION('ref_axis',(1.3043033653961E-16,-1.,0.));
#1449=DIRECTION('',(0.,0.,-1.));
#1450=DIRECTION('center_axis',(1.,0.,0.));
#1451=DIRECTION('ref_axis',(0.,0.,1.));
#1452=DIRECTION('',(0.,4.16333634234434E-15,-1.));
#1453=DIRECTION('',(0.,-1.,0.));
#1454=DIRECTION('center_axis',(1.3043033653961E-16,-1.,0.));
#1455=DIRECTION('ref_axis',(1.,1.3043033653961E-16,0.));
#1456=DIRECTION('',(1.,0.,0.));
#1457=DIRECTION('',(0.,0.,-1.));
#1458=DIRECTION('',(-1.,0.,0.));
#1459=DIRECTION('',(0.,0.,-1.));
#1460=DIRECTION('center_axis',(1.3043033653961E-16,-1.,0.));
#1461=DIRECTION('ref_axis',(1.,1.3043033653961E-16,0.));
#1462=DIRECTION('',(0.,0.,-1.));
#1463=DIRECTION('',(1.,0.,0.));
#1464=DIRECTION('',(0.,0.,-1.));
#1465=DIRECTION('',(-1.,0.,0.));
#1466=DIRECTION('center_axis',(-1.,0.,0.));
#1467=DIRECTION('ref_axis',(0.,0.,1.));
#1468=DIRECTION('',(0.,-1.,0.));
#1469=DIRECTION('',(0.,-1.,0.));
#1470=DIRECTION('center_axis',(1.,1.15648231731787E-16,-7.40668220817398E-32));
#1471=DIRECTION('ref_axis',(-1.15648231731787E-16,1.,0.));
#1472=DIRECTION('',(1.15648231731787E-16,-1.,-3.46944695195361E-15));
#1473=DIRECTION('',(1.6456920911512E-30,-7.58941520739852E-15,1.));
#1474=DIRECTION('',(1.15648231731787E-16,-1.,-3.46944695195361E-15));
#1475=DIRECTION('',(7.40668220817398E-32,1.01369195310605E-47,1.));
#1476=DIRECTION('center_axis',(4.7483479891204E-31,-3.46944695195361E-15,
1.));
#1477=DIRECTION('ref_axis',(0.,-1.,-3.46944695195361E-15));
#1478=DIRECTION('',(-1.,-2.16840434497101E-16,0.));
#1479=DIRECTION('',(0.,1.,3.46944695195361E-15));
#1480=DIRECTION('',(1.,1.3686181270034E-16,0.));
#1481=DIRECTION('center_axis',(4.7483479891204E-31,-3.46944695195361E-15,
1.));
#1482=DIRECTION('ref_axis',(0.,-1.,-3.46944695195361E-15));
#1483=DIRECTION('',(-1.,-2.16840434497101E-16,0.));
#1484=DIRECTION('',(1.,1.3686181270034E-16,0.));
#1485=DIRECTION('',(0.,1.,3.46944695195361E-15));
#1486=DIRECTION('center_axis',(-1.,-1.3043033653961E-16,3.62016906839707E-31));
#1487=DIRECTION('ref_axis',(1.3043033653961E-16,-1.,0.));
#1488=DIRECTION('',(0.,0.,-1.));
#1489=DIRECTION('center_axis',(1.,0.,0.));
#1490=DIRECTION('ref_axis',(0.,0.,-1.));
#1491=DIRECTION('',(0.,0.,-1.));
#1492=DIRECTION('',(0.,1.,0.));
#1493=DIRECTION('center_axis',(0.,0.,1.));
#1494=DIRECTION('ref_axis',(1.,0.,0.));
#1495=DIRECTION('center_axis',(0.,0.,-1.));
#1496=DIRECTION('ref_axis',(-1.,0.,0.));
#1497=DIRECTION('',(1.,0.,0.));
#1498=DIRECTION('center_axis',(0.,0.,-1.));
#1499=DIRECTION('ref_axis',(1.,0.,0.));
#1500=DIRECTION('center_axis',(0.,0.,-1.));
#1501=DIRECTION('ref_axis',(-1.,0.,0.));
#1502=DIRECTION('',(-1.,0.,0.));
#1503=DIRECTION('center_axis',(0.,0.,-1.));
#1504=DIRECTION('ref_axis',(-1.,0.,0.));
#1505=DIRECTION('center_axis',(0.,0.,-1.));
#1506=DIRECTION('ref_axis',(1.,0.,0.));
#1507=DIRECTION('center_axis',(0.,0.,-1.));
#1508=DIRECTION('ref_axis',(-1.,0.,0.));
#1509=DIRECTION('',(-1.15648231731787E-16,-1.,0.));
#1510=DIRECTION('',(-1.15648231731787E-16,-1.,0.));
#1511=DIRECTION('',(1.,-1.62630325872826E-16,0.));
#1512=DIRECTION('center_axis',(0.,0.,1.));
#1513=DIRECTION('ref_axis',(1.,0.,0.));
#1514=DIRECTION('',(-1.,1.62630325872826E-16,0.));
#1515=DIRECTION('center_axis',(0.,0.,1.));
#1516=DIRECTION('ref_axis',(1.,0.,0.));
#1517=DIRECTION('',(0.,-1.,0.));
#1518=DIRECTION('center_axis',(0.,0.,1.));
#1519=DIRECTION('ref_axis',(1.,0.,0.));
#1520=DIRECTION('center_axis',(0.,0.,1.));
#1521=DIRECTION('ref_axis',(1.,0.,0.));
#1522=DIRECTION('',(-1.15648231731787E-16,-1.,0.));
#1523=DIRECTION('',(-1.15648231731787E-16,-1.,0.));
#1524=DIRECTION('center_axis',(0.,0.,-1.));
#1525=DIRECTION('ref_axis',(-1.,0.,0.));
#1526=DIRECTION('',(0.,1.,0.));
#1527=DIRECTION('center_axis',(0.,0.,1.));
#1528=DIRECTION('ref_axis',(1.,0.,0.));
#1529=DIRECTION('center_axis',(0.,0.,1.));
#1530=DIRECTION('ref_axis',(1.,0.,0.));
#1531=DIRECTION('center_axis',(0.,0.,-1.));
#1532=DIRECTION('ref_axis',(-1.,0.,0.));
#1533=DIRECTION('',(-1.,0.,0.));
#1534=DIRECTION('',(-1.,0.,0.));
#1535=DIRECTION('',(0.,-1.,0.));
#1536=DIRECTION('center_axis',(0.,0.,1.));
#1537=DIRECTION('ref_axis',(1.,0.,0.));
#1538=DIRECTION('',(0.,1.,0.));
#1539=DIRECTION('center_axis',(0.,0.,1.));
#1540=DIRECTION('ref_axis',(1.,0.,0.));
#1541=DIRECTION('',(-1.,-8.67361737988404E-16,0.));
#1542=DIRECTION('center_axis',(0.,0.,1.));
#1543=DIRECTION('ref_axis',(1.,0.,0.));
#1544=DIRECTION('center_axis',(0.,0.,1.));
#1545=DIRECTION('ref_axis',(1.,0.,0.));
#1546=DIRECTION('',(-1.,0.,0.));
#1547=DIRECTION('',(-1.,0.,0.));
#1548=DIRECTION('center_axis',(0.,0.,-1.));
#1549=DIRECTION('ref_axis',(-1.,0.,0.));
#1550=DIRECTION('',(1.,8.67361737988404E-16,0.));
#1551=DIRECTION('center_axis',(0.,0.,1.));
#1552=DIRECTION('ref_axis',(1.,0.,0.));
#1553=DIRECTION('center_axis',(0.,0.,1.));
#1554=DIRECTION('ref_axis',(1.,0.,0.));
#1555=DIRECTION('center_axis',(0.,0.,-1.));
#1556=DIRECTION('ref_axis',(-1.,0.,0.));
#1557=DIRECTION('',(0.,1.,0.));
#1558=DIRECTION('',(0.,1.,0.));
#1559=DIRECTION('',(-1.,0.,0.));
#1560=DIRECTION('center_axis',(0.,0.,-1.));
#1561=DIRECTION('ref_axis',(-1.,0.,0.));
#1562=DIRECTION('',(0.,0.,-1.));
#1563=DIRECTION('center_axis',(1.,-1.15648231731787E-16,0.));
#1564=DIRECTION('ref_axis',(1.15648231731787E-16,1.,0.));
#1565=DIRECTION('',(0.,0.,-1.));
#1566=DIRECTION('center_axis',(0.,0.,-1.));
#1567=DIRECTION('ref_axis',(-1.,0.,0.));
#1568=DIRECTION('',(0.,0.,-1.));
#1569=DIRECTION('center_axis',(0.,-1.,0.));
#1570=DIRECTION('ref_axis',(0.,0.,-1.));
#1571=DIRECTION('',(0.,0.,-1.));
#1572=DIRECTION('center_axis',(0.,0.,-1.));
#1573=DIRECTION('ref_axis',(-1.,0.,0.));
#1574=DIRECTION('',(0.,0.,-1.));
#1575=DIRECTION('center_axis',(-1.,0.,0.));
#1576=DIRECTION('ref_axis',(0.,0.,1.));
#1577=DIRECTION('',(0.,0.,-1.));
#1578=DIRECTION('',(0.,1.,0.));
#1579=DIRECTION('center_axis',(0.,-1.,0.));
#1580=DIRECTION('ref_axis',(0.,0.,-1.));
#1581=DIRECTION('',(0.,0.,-1.));
#1582=DIRECTION('',(-1.,0.,0.));
#1583=DIRECTION('center_axis',(-1.,0.,0.));
#1584=DIRECTION('ref_axis',(0.,0.,1.));
#1585=DIRECTION('',(0.,0.,-1.));
#1586=DIRECTION('',(0.,1.,0.));
#1587=DIRECTION('center_axis',(0.,0.,-1.));
#1588=DIRECTION('ref_axis',(-1.,0.,0.));
#1589=DIRECTION('',(0.,0.,-1.));
#1590=DIRECTION('center_axis',(0.,-1.,0.));
#1591=DIRECTION('ref_axis',(0.,0.,-1.));
#1592=DIRECTION('',(0.,0.,-1.));
#1593=DIRECTION('center_axis',(0.,0.,-1.));
#1594=DIRECTION('ref_axis',(-1.,0.,0.));
#1595=DIRECTION('',(0.,0.,-1.));
#1596=DIRECTION('center_axis',(1.,-1.15648231731787E-16,0.));
#1597=DIRECTION('ref_axis',(1.15648231731787E-16,1.,0.));
#1598=DIRECTION('',(0.,0.,-1.));
#1599=DIRECTION('center_axis',(0.,0.,-1.));
#1600=DIRECTION('ref_axis',(-1.,0.,0.));
#1601=DIRECTION('',(0.,4.16333634234434E-15,-1.));
#1602=DIRECTION('',(0.,0.,-1.));
#1603=DIRECTION('center_axis',(0.,0.,-1.));
#1604=DIRECTION('ref_axis',(-1.,0.,0.));
#1605=DIRECTION('center_axis',(-1.,0.,0.));
#1606=DIRECTION('ref_axis',(0.,0.,1.));
#1607=DIRECTION('',(4.77850465043481E-31,6.53994808455512E-47,1.));
#1608=DIRECTION('center_axis',(-1.,0.,0.));
#1609=DIRECTION('ref_axis',(0.,0.,-1.));
#1610=DIRECTION('center_axis',(-1.,0.,0.));
#1611=DIRECTION('ref_axis',(0.,0.,-1.));
#1612=DIRECTION('center_axis',(-1.,0.,0.));
#1613=DIRECTION('ref_axis',(0.,0.,1.));
#1614=DIRECTION('center_axis',(1.,0.,0.));
#1615=DIRECTION('ref_axis',(0.,0.,-1.));
#1616=DIRECTION('center_axis',(1.,0.,0.));
#1617=DIRECTION('ref_axis',(0.,0.,-1.));
#1618=DIRECTION('center_axis',(1.,0.,0.));
#1619=DIRECTION('ref_axis',(0.,-2.77555756156289E-15,1.));
#1620=DIRECTION('center_axis',(1.,0.,0.));
#1621=DIRECTION('ref_axis',(0.,-6.93889390390722E-15,1.));
#1622=DIRECTION('center_axis',(-1.,-1.65787683943472E-45,4.77850465043481E-31));
#1623=DIRECTION('ref_axis',(4.77850465043481E-31,0.,1.));
#1624=DIRECTION('',(0.,-7.50267903359971E-15,1.));
#1625=DIRECTION('center_axis',(-1.,-2.16840434497101E-16,0.));
#1626=DIRECTION('ref_axis',(2.16840434497101E-16,-1.,0.));
#1627=DIRECTION('',(-1.3686181270034E-16,1.,6.94461509263334E-15));
#1628=DIRECTION('center_axis',(-1.,-2.16840434497101E-16,0.));
#1629=DIRECTION('ref_axis',(-2.16840434497101E-16,1.,0.));
#1630=DIRECTION('center_axis',(-1.,-2.16840434497101E-16,0.));
#1631=DIRECTION('ref_axis',(-2.16840434497101E-16,1.,0.));
#1632=DIRECTION('center_axis',(-1.,-2.16840434497101E-16,0.));
#1633=DIRECTION('ref_axis',(2.16840434497101E-16,-1.,0.));
#1634=DIRECTION('center_axis',(1.,2.16840434497101E-16,0.));
#1635=DIRECTION('ref_axis',(-2.16840434497101E-16,1.,0.));
#1636=DIRECTION('',(-1.3686181270034E-16,1.,6.94461509263334E-15));
#1637=DIRECTION('center_axis',(1.,2.16840434497101E-16,0.));
#1638=DIRECTION('ref_axis',(-2.16840434497101E-16,1.,0.));
#1639=DIRECTION('center_axis',(1.,2.16840434497101E-16,0.));
#1640=DIRECTION('ref_axis',(-2.16840434497101E-16,1.,6.93889390390722E-15));
#1641=DIRECTION('',(1.,1.3686181270034E-16,0.));
#1642=DIRECTION('center_axis',(1.,2.16840434497101E-16,0.));
#1643=DIRECTION('ref_axis',(-2.16840434497101E-16,1.,6.9388939039072E-15));
#1644=DIRECTION('',(1.,1.3686181270034E-16,0.));
#1645=DIRECTION('center_axis',(1.,1.3686181270034E-16,9.49669597824081E-31));
#1646=DIRECTION('ref_axis',(-1.3686181270034E-16,1.,0.));
#1647=DIRECTION('',(0.,-6.93889390390723E-15,1.));
#1648=DIRECTION('',(-1.3686181270034E-16,1.,6.96092829079675E-15));
#1649=DIRECTION('',(0.,-6.93889390390723E-15,1.));
#1650=DIRECTION('center_axis',(-1.,-1.3686181270034E-16,-9.49669597824081E-31));
#1651=DIRECTION('ref_axis',(1.3686181270034E-16,-1.,0.));
#1652=DIRECTION('',(0.,6.93889390390723E-15,-1.));
#1653=DIRECTION('',(1.3686181270034E-16,-1.,-6.96092829079675E-15));
#1654=DIRECTION('',(0.,6.93889390390723E-15,-1.));
#1655=DIRECTION('center_axis',(-1.3686181270034E-16,1.,6.93889390390723E-15));
#1656=DIRECTION('ref_axis',(0.,-6.93889390390723E-15,1.));
#1657=DIRECTION('center_axis',(-1.3686181270034E-16,1.,6.93889390390723E-15));
#1658=DIRECTION('ref_axis',(-1.75162308040602E-46,-6.93889390390723E-15,
1.));
#1659=DIRECTION('',(1.,1.3686181270034E-16,0.));
#1660=DIRECTION('center_axis',(-1.3686181270034E-16,1.,6.93889390390723E-15));
#1661=DIRECTION('ref_axis',(-1.75162308040602E-46,-6.93889390390723E-15,
1.));
#1662=DIRECTION('center_axis',(-1.3686181270034E-16,1.,6.93889390390723E-15));
#1663=DIRECTION('ref_axis',(0.,-6.93889390390723E-15,1.));
#1664=DIRECTION('',(1.,1.3686181270034E-16,0.));
#1665=DIRECTION('center_axis',(1.3686181270034E-16,-1.,-6.93889390390723E-15));
#1666=DIRECTION('ref_axis',(0.,-6.93889390390723E-15,1.));
#1667=DIRECTION('center_axis',(1.3686181270034E-16,-1.,-6.93889390390723E-15));
#1668=DIRECTION('ref_axis',(0.,-6.93889390390723E-15,1.));
#1669=DIRECTION('center_axis',(-9.52685263955521E-31,6.96092829079675E-15,
-1.));
#1670=DIRECTION('ref_axis',(0.,1.,6.96092829079675E-15));
#1671=DIRECTION('',(1.3686181270034E-16,-1.,-6.96092829079675E-15));
#1672=DIRECTION('',(-1.3686181270034E-16,1.,6.96092829079675E-15));
#1673=DIRECTION('center_axis',(1.,0.,0.));
#1674=DIRECTION('ref_axis',(0.,0.,-1.));
#1675=DIRECTION('center_axis',(1.,0.,0.));
#1676=DIRECTION('ref_axis',(0.,0.,1.));
#1677=DIRECTION('center_axis',(1.,0.,0.));
#1678=DIRECTION('ref_axis',(0.,0.,1.));
#1679=DIRECTION('',(-8.07567285923482E-31,6.98296267768627E-15,-1.));
#1680=DIRECTION('center_axis',(1.,0.,0.));
#1681=DIRECTION('ref_axis',(0.,0.,-1.));
#1682=DIRECTION('center_axis',(-1.,0.,0.));
#1683=DIRECTION('ref_axis',(0.,0.,1.));
#1684=DIRECTION('center_axis',(-1.,0.,0.));
#1685=DIRECTION('ref_axis',(0.,0.,1.));
#1686=DIRECTION('center_axis',(-1.,0.,0.));
#1687=DIRECTION('ref_axis',(0.,0.,-1.));
#1688=DIRECTION('center_axis',(-1.,0.,0.));
#1689=DIRECTION('ref_axis',(0.,0.,-1.));
#1690=DIRECTION('center_axis',(1.,1.15648231731787E-16,0.));
#1691=DIRECTION('ref_axis',(-1.15648231731787E-16,1.,0.));
#1692=DIRECTION('',(0.,0.,-1.));
#1693=DIRECTION('center_axis',(1.,0.,0.));
#1694=DIRECTION('ref_axis',(0.,0.,-1.));
#1695=DIRECTION('',(0.,1.,-3.49148133884313E-15));
#1696=DIRECTION('center_axis',(1.,0.,0.));
#1697=DIRECTION('ref_axis',(0.,0.,1.));
#1698=DIRECTION('center_axis',(1.,0.,0.));
#1699=DIRECTION('ref_axis',(0.,0.,1.));
#1700=DIRECTION('center_axis',(1.,0.,0.));
#1701=DIRECTION('ref_axis',(0.,0.,-1.));
#1702=DIRECTION('center_axis',(-1.,0.,0.));
#1703=DIRECTION('ref_axis',(0.,0.,1.));
#1704=DIRECTION('',(0.,1.,-3.49148133884313E-15));
#1705=DIRECTION('center_axis',(-1.,0.,0.));
#1706=DIRECTION('ref_axis',(0.,0.,1.));
#1707=DIRECTION('center_axis',(-1.,0.,0.));
#1708=DIRECTION('ref_axis',(0.,1.,-2.77555756156289E-15));
#1709=DIRECTION('',(-1.,0.,0.));
#1710=DIRECTION('center_axis',(-1.,0.,0.));
#1711=DIRECTION('ref_axis',(0.,1.,0.));
#1712=DIRECTION('',(-1.,0.,0.));
#1713=DIRECTION('center_axis',(-1.,0.,0.));
#1714=DIRECTION('ref_axis',(0.,0.,1.));
#1715=DIRECTION('',(0.,-3.46944695195361E-15,-1.));
#1716=DIRECTION('',(0.,1.,-3.49148133884313E-15));
#1717=DIRECTION('',(0.,-3.46944695195361E-15,-1.));
#1718=DIRECTION('center_axis',(1.,0.,0.));
#1719=DIRECTION('ref_axis',(0.,0.,-1.));
#1720=DIRECTION('',(0.,3.46944695195361E-15,1.));
#1721=DIRECTION('',(0.,-1.,3.49148133884313E-15));
#1722=DIRECTION('',(0.,3.46944695195361E-15,1.));
#1723=DIRECTION('center_axis',(0.,1.,-3.46944695195361E-15));
#1724=DIRECTION('ref_axis',(0.,3.46944695195361E-15,1.));
#1725=DIRECTION('',(-1.,0.,0.));
#1726=DIRECTION('center_axis',(0.,1.,-3.46944695195361E-15));
#1727=DIRECTION('ref_axis',(0.,3.46944695195361E-15,1.));
#1728=DIRECTION('center_axis',(0.,1.,-3.46944695195361E-15));
#1729=DIRECTION('ref_axis',(0.,3.46944695195361E-15,1.));
#1730=DIRECTION('center_axis',(0.,1.,-3.46944695195361E-15));
#1731=DIRECTION('ref_axis',(0.,3.46944695195361E-15,1.));
#1732=DIRECTION('center_axis',(0.,-1.,3.46944695195361E-15));
#1733=DIRECTION('ref_axis',(0.,3.46944695195361E-15,1.));
#1734=DIRECTION('',(-1.,0.,0.));
#1735=DIRECTION('center_axis',(0.,-1.,3.46944695195361E-15));
#1736=DIRECTION('ref_axis',(0.,3.46944695195361E-15,1.));
#1737=DIRECTION('center_axis',(0.,3.49148133884313E-15,1.));
#1738=DIRECTION('ref_axis',(0.,-1.,3.49148133884313E-15));
#1739=DIRECTION('',(0.,1.,-3.49148133884313E-15));
#1740=DIRECTION('',(0.,-1.,3.49148133884313E-15));
#1741=DIRECTION('center_axis',(1.3686181270034E-16,-1.,-6.96092829079675E-15));
#1742=DIRECTION('ref_axis',(-3.01566613144E-33,6.96092829079675E-15,-1.));
#1743=DIRECTION('center_axis',(0.,-1.,3.49148133884313E-15));
#1744=DIRECTION('ref_axis',(0.,-3.49148133884313E-15,-1.));
#1745=DIRECTION('center_axis',(1.3686181270034E-16,-1.,-6.96092829079675E-15));
#1746=DIRECTION('ref_axis',(-3.01566613144E-33,6.96092829079675E-15,-1.));
#1747=DIRECTION('center_axis',(0.,-1.,3.49148133884313E-15));
#1748=DIRECTION('ref_axis',(0.,-3.49148133884313E-15,-1.));
#1749=DIRECTION('center_axis',(0.,0.,1.));
#1750=DIRECTION('ref_axis',(1.,0.,0.));
#1751=DIRECTION('',(0.,1.,0.));
#1752=DIRECTION('center_axis',(0.,0.,1.));
#1753=DIRECTION('ref_axis',(-1.,0.,0.));
#1754=DIRECTION('',(1.,0.,0.));
#1755=DIRECTION('center_axis',(0.,0.,1.));
#1756=DIRECTION('ref_axis',(1.,0.,0.));
#1757=DIRECTION('center_axis',(0.,0.,1.));
#1758=DIRECTION('ref_axis',(1.,0.,0.));
#1759=DIRECTION('',(1.,-3.09772049281573E-17,0.));
#1760=DIRECTION('',(1.,-3.09772049281573E-17,0.));
#1761=DIRECTION('',(0.,1.,0.));
#1762=DIRECTION('center_axis',(0.,0.,-1.));
#1763=DIRECTION('ref_axis',(-1.,0.,0.));
#1764=DIRECTION('',(-1.,0.,0.));
#1765=DIRECTION('center_axis',(0.,0.,1.));
#1766=DIRECTION('ref_axis',(-1.,0.,0.));
#1767=DIRECTION('',(0.,-1.,0.));
#1768=DIRECTION('center_axis',(0.,0.,1.));
#1769=DIRECTION('ref_axis',(1.,0.,0.));
#1770=DIRECTION('center_axis',(0.,0.,-1.));
#1771=DIRECTION('ref_axis',(-1.,0.,0.));
#1772=DIRECTION('',(-1.19636101791504E-16,1.,0.));
#1773=DIRECTION('',(-1.19636101791504E-16,1.,0.));
#1774=DIRECTION('',(1.,0.,0.));
#1775=DIRECTION('center_axis',(-1.,-1.19636101791504E-16,0.));
#1776=DIRECTION('ref_axis',(1.19636101791504E-16,-1.,0.));
#1777=DIRECTION('',(0.,0.,-1.));
#1778=DIRECTION('',(0.,0.,-1.));
#1779=DIRECTION('',(-1.19636101791504E-16,1.,0.));
#1780=DIRECTION('center_axis',(0.,1.,0.));
#1781=DIRECTION('ref_axis',(0.,0.,1.));
#1782=DIRECTION('',(0.,0.,-1.));
#1783=DIRECTION('',(1.,0.,0.));
#1784=DIRECTION('center_axis',(-1.,-1.19636101791504E-16,0.));
#1785=DIRECTION('ref_axis',(1.19636101791504E-16,-1.,0.));
#1786=DIRECTION('',(0.,0.,-1.));
#1787=DIRECTION('',(-1.19636101791504E-16,1.,0.));
#1788=DIRECTION('center_axis',(0.,0.,-1.));
#1789=DIRECTION('ref_axis',(-1.,0.,0.));
#1790=DIRECTION('',(0.,0.,-1.));
#1791=DIRECTION('center_axis',(3.09772049281573E-17,1.,0.));
#1792=DIRECTION('ref_axis',(-1.,3.09772049281573E-17,0.));
#1793=DIRECTION('',(1.,-3.09772049281573E-17,0.));
#1794=DIRECTION('',(0.,0.,-1.));
#1795=DIRECTION('center_axis',(-1.,0.,0.));
#1796=DIRECTION('ref_axis',(0.,0.,1.));
#1797=DIRECTION('',(0.,1.,0.));
#1798=DIRECTION('',(0.,0.,-1.));
#1799=DIRECTION('center_axis',(3.09772049281573E-17,1.,0.));
#1800=DIRECTION('ref_axis',(-1.,3.09772049281573E-17,0.));
#1801=DIRECTION('',(1.,-3.09772049281573E-17,0.));
#1802=DIRECTION('',(0.,0.,-1.));
#1803=DIRECTION('center_axis',(0.,0.,-1.));
#1804=DIRECTION('ref_axis',(-1.,0.,0.));
#1805=DIRECTION('center_axis',(0.,0.,1.));
#1806=DIRECTION('ref_axis',(1.,0.,0.));
#1807=DIRECTION('center_axis',(0.,0.,1.));
#1808=DIRECTION('ref_axis',(1.,0.,0.));
#1809=CARTESIAN_POINT('',(0.,0.,0.));
#1810=CARTESIAN_POINT('Origin',(13.25,-16.,0.));
#1811=CARTESIAN_POINT('',(16.25,-17.5,-1.83697019872103E-16));
#1812=CARTESIAN_POINT('Origin',(16.25,-16.,0.));
#1813=CARTESIAN_POINT('',(18.25,-17.5,-1.83697019872103E-16));
#1814=CARTESIAN_POINT('',(13.25,-17.5,-1.83697019872103E-16));
#1815=CARTESIAN_POINT('Origin',(18.25,-16.,0.));
#1816=CARTESIAN_POINT('Origin',(-69.45,-28.,-20.5));
#1817=CARTESIAN_POINT('',(-69.45,-0.499999999999997,-18.5));
#1818=CARTESIAN_POINT('',(-69.45,-27.5,-18.5));
#1819=CARTESIAN_POINT('',(-69.45,0.,-18.5));
#1820=CARTESIAN_POINT('',(-69.45,-0.499999999999997,-20.5));
#1821=CARTESIAN_POINT('',(-69.45,-0.499999999999997,-18.5));
#1822=CARTESIAN_POINT('',(-69.45,-27.5,-20.5));
#1823=CARTESIAN_POINT('',(-69.45,-28.,-20.5));
#1824=CARTESIAN_POINT('',(-69.45,-27.5,-18.5));
#1825=CARTESIAN_POINT('Origin',(0.,0.,-20.5));
#1826=CARTESIAN_POINT('',(-18.75,-0.499999999999997,-20.5));
#1827=CARTESIAN_POINT('',(-69.45,-0.499999999999997,-20.5));
#1828=CARTESIAN_POINT('',(-18.75,-27.5,-20.5));
#1829=CARTESIAN_POINT('',(-18.75,2.,-20.5));
#1830=CARTESIAN_POINT('',(3.76369984925934E-15,-27.5,-20.5));
#1831=CARTESIAN_POINT('Origin',(0.,0.,-18.5));
#1832=CARTESIAN_POINT('',(-18.75,-0.499999999999997,-18.5));
#1833=CARTESIAN_POINT('',(-69.45,-0.499999999999997,-18.5));
#1834=CARTESIAN_POINT('',(-18.75,-27.5,-18.5));
#1835=CARTESIAN_POINT('',(-18.75,-27.5,-18.5));
#1836=CARTESIAN_POINT('',(-18.75,-2.16840434497101E-15,-18.5));
#1837=CARTESIAN_POINT('Origin',(-18.75,-28.,-18.));
#1838=CARTESIAN_POINT('',(-18.75,-30.,-18.));
#1839=CARTESIAN_POINT('',(-18.75,-30.,-20.5));
#1840=CARTESIAN_POINT('',(-18.75,-30.,20.5));
#1841=CARTESIAN_POINT('',(-18.75,-28.,-20.4494897427832));
#1842=CARTESIAN_POINT('Origin',(-18.75,-27.5,-18.));
#1843=CARTESIAN_POINT('',(-18.75,-28.,-20.5));
#1844=CARTESIAN_POINT('',(-18.75,-28.,-18.));
#1845=CARTESIAN_POINT('',(-18.75,-28.,-20.5));
#1846=CARTESIAN_POINT('Origin',(-16.25,-28.,20.5));
#1847=CARTESIAN_POINT('',(-69.45,-28.,-18.));
#1848=CARTESIAN_POINT('',(-18.75,-28.,-18.));
#1849=CARTESIAN_POINT('',(-69.45,-28.,-18.));
#1850=CARTESIAN_POINT('',(-69.45,-28.,18.));
#1851=CARTESIAN_POINT('',(-69.45,-28.,20.5));
#1852=CARTESIAN_POINT('',(-18.75,-28.,18.));
#1853=CARTESIAN_POINT('',(-18.75,-28.,18.));
#1854=CARTESIAN_POINT('',(-18.75,-28.,20.5));
#1855=CARTESIAN_POINT('Origin',(-16.25,-30.,20.5));
#1856=CARTESIAN_POINT('',(-69.45,-30.,18.));
#1857=CARTESIAN_POINT('',(-69.45,-30.,-18.));
#1858=CARTESIAN_POINT('',(-69.45,-30.,20.5));
#1859=CARTESIAN_POINT('',(-69.45,-30.,-18.));
#1860=CARTESIAN_POINT('',(-18.75,-30.,18.));
#1861=CARTESIAN_POINT('',(-18.75,-30.,20.5));
#1862=CARTESIAN_POINT('',(-18.75,-30.,18.));
#1863=CARTESIAN_POINT('Origin',(-69.45,-30.,20.5));
#1864=CARTESIAN_POINT('',(-69.45,-28.,-18.));
#1865=CARTESIAN_POINT('',(-69.45,-28.,18.));
#1866=CARTESIAN_POINT('Origin',(-18.75,-28.,20.5));
#1867=CARTESIAN_POINT('',(-18.75,-0.499999999999993,18.5000000000001));
#1868=CARTESIAN_POINT('',(-18.75,-27.5,18.5));
#1869=CARTESIAN_POINT('',(-18.75,-7.32920668600204E-14,18.5000000000001));
#1870=CARTESIAN_POINT('',(-18.75,-0.500000000000008,20.5000000000001));
#1871=CARTESIAN_POINT('',(-18.75,-0.499999999999993,18.5000000000001));
#1872=CARTESIAN_POINT('',(-18.75,-27.5,20.5));
#1873=CARTESIAN_POINT('',(-18.75,-28.,20.5));
#1874=CARTESIAN_POINT('',(-18.75,-27.5,18.5));
#1875=CARTESIAN_POINT('Origin',(1.06898143077838E-29,-7.81066251927357E-14,
20.5000000000001));
#1876=CARTESIAN_POINT('',(-69.45,-0.500000000000004,20.5000000000001));
#1877=CARTESIAN_POINT('',(-18.75,-0.500000000000008,20.5000000000001));
#1878=CARTESIAN_POINT('',(-69.45,-27.5,20.5));
#1879=CARTESIAN_POINT('',(-69.45,1.99999999999999,20.5000000000001));
#1880=CARTESIAN_POINT('',(3.76369984925935E-15,-27.5,20.5));
#1881=CARTESIAN_POINT('Origin',(9.73411337769687E-30,-7.11236625150494E-14,
18.5000000000001));
#1882=CARTESIAN_POINT('',(-69.45,-0.500000000000004,18.5000000000001));
#1883=CARTESIAN_POINT('',(-18.75,-0.499999999999993,18.5000000000001));
#1884=CARTESIAN_POINT('',(-69.45,-27.5,18.5));
#1885=CARTESIAN_POINT('',(-69.45,-27.5,18.5));
#1886=CARTESIAN_POINT('',(-69.45,-7.11236625150494E-14,18.5000000000001));
#1887=CARTESIAN_POINT('Origin',(-18.75,-28.,20.5));
#1888=CARTESIAN_POINT('',(-18.75,-28.,20.5));
#1889=CARTESIAN_POINT('',(-18.75,-28.,20.4494897427832));
#1890=CARTESIAN_POINT('',(-18.75,-28.,20.5));
#1891=CARTESIAN_POINT('Origin',(-18.75,-27.5,18.));
#1892=CARTESIAN_POINT('',(-18.75,-30.,20.5));
#1893=CARTESIAN_POINT('',(-18.75,-30.,20.5));
#1894=CARTESIAN_POINT('',(-18.75,-30.,20.5));
#1895=CARTESIAN_POINT('Origin',(-18.75,-30.,20.5));
#1896=CARTESIAN_POINT('',(-16.25,-27.5,20.5));
#1897=CARTESIAN_POINT('Origin',(-18.75,-27.5,20.5));
#1898=CARTESIAN_POINT('',(-18.25,-27.5,20.5));
#1899=CARTESIAN_POINT('',(-18.25,-27.5,20.5));
#1900=CARTESIAN_POINT('Origin',(-18.75,-27.5,20.5));
#1901=CARTESIAN_POINT('Origin',(-16.25,-27.5,-20.5));
#1902=CARTESIAN_POINT('',(-16.25,-27.5,-20.5));
#1903=CARTESIAN_POINT('',(-18.25,-27.5,-20.5));
#1904=CARTESIAN_POINT('',(-16.25,-27.5,-20.5));
#1905=CARTESIAN_POINT('Origin',(-18.75,-27.5,-20.5));
#1906=CARTESIAN_POINT('Origin',(-18.75,-27.5,-20.5));
#1907=CARTESIAN_POINT('Origin',(-18.75,-28.,-20.5));
#1908=CARTESIAN_POINT('',(-16.25,-0.500000000000004,-20.5));
#1909=CARTESIAN_POINT('',(-16.25,-3.85763741731416E-15,-20.5));
#1910=CARTESIAN_POINT('',(-18.25,-0.500000000000004,-20.5));
#1911=CARTESIAN_POINT('',(-18.25,-3.62634095385059E-15,-20.5));
#1912=CARTESIAN_POINT('',(-18.25,-0.500000000000004,-20.5));
#1913=CARTESIAN_POINT('Origin',(-16.25,-0.500000000000004,20.5));
#1914=CARTESIAN_POINT('',(-16.25,-0.500000000000004,20.5));
#1915=CARTESIAN_POINT('',(-18.25,-0.500000000000004,20.5));
#1916=CARTESIAN_POINT('',(-16.25,-0.500000000000004,20.5));
#1917=CARTESIAN_POINT('',(-15.75,-3.85763741731416E-15,20.5));
#1918=CARTESIAN_POINT('Origin',(-15.75,-0.500000000000004,20.5));
#1919=CARTESIAN_POINT('',(-15.75,2.,20.5));
#1920=CARTESIAN_POINT('',(-15.75,2.,20.5));
#1921=CARTESIAN_POINT('Origin',(-15.75,-0.500000000000004,20.5));
#1922=CARTESIAN_POINT('Origin',(-15.75,2.,20.5));
#1923=CARTESIAN_POINT('',(-16.25,-3.85763741731416E-15,20.5));
#1924=CARTESIAN_POINT('',(-18.25,-3.62634095385059E-15,20.5));
#1925=CARTESIAN_POINT('Origin',(-15.75,-3.85763741731416E-15,-20.5));
#1926=CARTESIAN_POINT('',(-15.75,-3.85763741731416E-15,-20.5));
#1927=CARTESIAN_POINT('',(-15.75,2.,-20.5));
#1928=CARTESIAN_POINT('',(-15.75,-3.85763741731416E-15,-20.5));
#1929=CARTESIAN_POINT('Origin',(-15.75,-0.500000000000004,-20.5));
#1930=CARTESIAN_POINT('Origin',(-15.75,-0.500000000000004,-20.5));
#1931=CARTESIAN_POINT('Origin',(-18.25,-0.500000000000004,-20.5));
#1932=CARTESIAN_POINT('',(15.75,-3.85763741731416E-15,-20.5));
#1933=CARTESIAN_POINT('',(16.25,-3.85763741731416E-15,-20.5));
#1934=CARTESIAN_POINT('',(15.75,2.,-20.5));
#1935=CARTESIAN_POINT('',(16.25,2.,-20.5));
#1936=CARTESIAN_POINT('',(15.75,2.,-20.5));
#1937=CARTESIAN_POINT('Origin',(15.75,-3.85763741731416E-15,20.5));
#1938=CARTESIAN_POINT('',(15.75,-3.85763741731416E-15,20.5));
#1939=CARTESIAN_POINT('',(15.75,2.,20.5));
#1940=CARTESIAN_POINT('',(15.75,-3.85763741731416E-15,20.5));
#1941=CARTESIAN_POINT('',(16.25,-0.500000000000004,20.5));
#1942=CARTESIAN_POINT('Origin',(15.75,-0.500000000000004,20.5));
#1943=CARTESIAN_POINT('',(18.25,-0.500000000000002,20.5));
#1944=CARTESIAN_POINT('',(18.25,-0.500000000000002,20.5));
#1945=CARTESIAN_POINT('Origin',(15.75,-0.500000000000004,20.5));
#1946=CARTESIAN_POINT('Origin',(18.25,-0.500000000000002,20.5));
#1947=CARTESIAN_POINT('',(16.25,-3.85763741731416E-15,20.5));
#1948=CARTESIAN_POINT('',(16.25,2.,20.5));
#1949=CARTESIAN_POINT('Origin',(16.25,-0.500000000000004,-20.5));
#1950=CARTESIAN_POINT('',(16.25,-0.500000000000004,-20.5));
#1951=CARTESIAN_POINT('',(18.25,-0.500000000000002,-20.5));
#1952=CARTESIAN_POINT('',(16.25,-0.500000000000004,-20.5));
#1953=CARTESIAN_POINT('Origin',(15.75,-0.500000000000004,-20.5));
#1954=CARTESIAN_POINT('Origin',(15.75,-0.500000000000004,-20.5));
#1955=CARTESIAN_POINT('Origin',(15.75,2.,-20.5));
#1956=CARTESIAN_POINT('',(16.25,-21.,-20.5));
#1957=CARTESIAN_POINT('',(16.25,-3.85763741731416E-15,-20.5));
#1958=CARTESIAN_POINT('',(18.25,-21.,-20.5));
#1959=CARTESIAN_POINT('',(18.25,-3.85763741731416E-15,-20.5));
#1960=CARTESIAN_POINT('',(18.25,-21.,-20.5));
#1961=CARTESIAN_POINT('Origin',(-18.75,-27.5,20.5));
#1962=CARTESIAN_POINT('',(-16.25,-27.5,20.5));
#1963=CARTESIAN_POINT('Origin',(-16.25,-3.85763741731416E-15,20.5));
#1964=CARTESIAN_POINT('',(-16.25,-0.500000000000004,20.5));
#1965=CARTESIAN_POINT('Origin',(-15.75,-0.500000000000004,20.5));
#1966=CARTESIAN_POINT('',(-15.75,-3.85763741731416E-15,20.5));
#1967=CARTESIAN_POINT('Origin',(16.25,-3.85763741731416E-15,20.5));
#1968=CARTESIAN_POINT('',(15.75,-3.85763741731416E-15,20.5));
#1969=CARTESIAN_POINT('Origin',(15.75,-0.500000000000004,20.5));
#1970=CARTESIAN_POINT('',(16.25,-0.500000000000004,20.5));
#1971=CARTESIAN_POINT('Origin',(16.25,-3.85763741731416E-15,20.5));
#1972=CARTESIAN_POINT('',(16.25,-21.,20.5));
#1973=CARTESIAN_POINT('',(16.25,-21.,20.5));
#1974=CARTESIAN_POINT('',(16.25,-3.85763741731416E-15,20.5));
#1975=CARTESIAN_POINT('Origin',(18.25,-21.,20.5));
#1976=CARTESIAN_POINT('',(18.25,-21.,20.5));
#1977=CARTESIAN_POINT('',(18.25,-21.,20.5));
#1978=CARTESIAN_POINT('',(18.25,-21.,20.5));
#1979=CARTESIAN_POINT('Origin',(18.25,-3.85763741731416E-15,20.5));
#1980=CARTESIAN_POINT('',(18.25,-0.500000000000002,20.5));
#1981=CARTESIAN_POINT('',(18.25,-3.85763741731416E-15,20.5));
#1982=CARTESIAN_POINT('Origin',(15.75,-0.500000000000004,20.5));
#1983=CARTESIAN_POINT('',(15.75,2.,20.5));
#1984=CARTESIAN_POINT('Origin',(16.25,2.,20.5));
#1985=CARTESIAN_POINT('',(-15.75,2.,20.5));
#1986=CARTESIAN_POINT('Origin',(-15.75,-0.500000000000004,20.5));
#1987=CARTESIAN_POINT('',(-18.25,-0.500000000000004,20.5));
#1988=CARTESIAN_POINT('Origin',(-18.25,-3.62634095385059E-15,20.5));
#1989=CARTESIAN_POINT('',(-18.25,-27.5,20.5));
#1990=CARTESIAN_POINT('Origin',(-18.75,-27.5,20.5));
#1991=CARTESIAN_POINT('',(-18.75,-28.,-18.));
#1992=CARTESIAN_POINT('',(-18.75,-28.,20.5));
#1993=CARTESIAN_POINT('Origin',(-18.75,-27.5,20.5));
#1994=CARTESIAN_POINT('Origin',(-69.45,-27.5,18.));
#1995=CARTESIAN_POINT('',(-69.45,-27.5,20.5000000000001));
#1996=CARTESIAN_POINT('Origin',(-69.45,-27.5,18.));
#1997=CARTESIAN_POINT('Origin',(-69.45,-27.5,18.));
#1998=CARTESIAN_POINT('Origin',(-18.75,-27.5,18.));
#1999=CARTESIAN_POINT('Origin',(-18.75,-27.5,18.));
#2000=CARTESIAN_POINT('Origin',(-18.75,-27.5,18.));
#2001=CARTESIAN_POINT('Origin',(-18.75,-27.5,18.));
#2002=CARTESIAN_POINT('Origin',(-18.75,-27.5,18.));
#2003=CARTESIAN_POINT('Origin',(-69.45,1.99999999999999,20.5000000000001));
#2004=CARTESIAN_POINT('',(-69.45,-0.500000000000004,18.5000000000001));
#2005=CARTESIAN_POINT('Origin',(-69.45,-0.5,18.0000000000001));
#2006=CARTESIAN_POINT('',(-69.45,1.84314369322536E-15,18.0000000000001));
#2007=CARTESIAN_POINT('',(-69.45,2.,18.0000000000001));
#2008=CARTESIAN_POINT('',(-69.45,2.,18.0000000000001));
#2009=CARTESIAN_POINT('Origin',(-69.45,-0.5,18.0000000000001));
#2010=CARTESIAN_POINT('Origin',(-69.45,-0.5,18.0000000000001));
#2011=CARTESIAN_POINT('Origin',(-18.75,-0.499999999999989,18.0000000000001));
#2012=CARTESIAN_POINT('',(-18.75,1.2793585635329E-14,18.0000000000001));
#2013=CARTESIAN_POINT('Origin',(-18.75,-0.499999999999989,18.0000000000001));
#2014=CARTESIAN_POINT('',(-18.75,2.00000000000001,18.0000000000001));
#2015=CARTESIAN_POINT('',(-18.75,8.67361737988404E-15,18.0000000000001));
#2016=CARTESIAN_POINT('Origin',(-18.75,-0.499999999999989,18.0000000000001));
#2017=CARTESIAN_POINT('Origin',(-18.75,-0.499999999999989,18.0000000000001));
#2018=CARTESIAN_POINT('',(-2.73723625400681E-16,2.00000000000001,18.0000000000001));
#2019=CARTESIAN_POINT('Origin',(-18.75,-0.499999999999989,18.0000000000001));
#2020=CARTESIAN_POINT('',(-69.45,1.77064970180999E-15,18.0000000000001));
#2021=CARTESIAN_POINT('Origin',(-18.75,2.00000000000001,18.5000000000001));
#2022=CARTESIAN_POINT('',(-18.75,1.21789905576709E-14,17.5000000000001));
#2023=CARTESIAN_POINT('',(-18.75,1.33609633876048E-13,6.93889390390816E-15));
#2024=CARTESIAN_POINT('',(-18.75,2.00000000000001,17.5000000000001));
#2025=CARTESIAN_POINT('',(-18.75,2.00000000000001,17.5000000000001));
#2026=CARTESIAN_POINT('',(-18.75,2.00000000000001,18.5000000000001));
#2027=CARTESIAN_POINT('Origin',(-69.45,2.00000000000003,13.5000000000001));
#2028=CARTESIAN_POINT('',(-69.45,2.00000000000001,17.5000000000001));
#2029=CARTESIAN_POINT('',(-69.45,2.00000000000003,13.5000000000001));
#2030=CARTESIAN_POINT('',(-69.45,5.24009665376363E-15,17.5000000000001));
#2031=CARTESIAN_POINT('',(-69.45,2.00000000000001,17.5000000000001));
#2032=CARTESIAN_POINT('',(-69.45,1.26670739972141E-13,6.93889390390811E-15));
#2033=CARTESIAN_POINT('Origin',(-2.73723625400698E-16,2.00000000000014,
2.08607504855017E-14));
#2034=CARTESIAN_POINT('',(-22.75,2.00000000000004,13.5000000000001));
#2035=CARTESIAN_POINT('Origin',(-22.75,2.00000000000001,17.5000000000001));
#2036=CARTESIAN_POINT('',(-65.45,2.00000000000003,13.5000000000001));
#2037=CARTESIAN_POINT('',(-18.75,2.00000000000004,13.5000000000001));
#2038=CARTESIAN_POINT('Origin',(-65.45,2.00000000000001,17.5000000000001));
#2039=CARTESIAN_POINT('Origin',(-1.86815204605562E-29,1.36175792864179E-13,
6.93889390390818E-15));
#2040=CARTESIAN_POINT('',(-65.45,3.35431195201939E-14,13.5000000000001));
#2041=CARTESIAN_POINT('',(-22.75,3.93871189224984E-14,13.5000000000001));
#2042=CARTESIAN_POINT('',(-5.86098088993101E-30,4.25007251614311E-14,13.5000000000001));
#2043=CARTESIAN_POINT('Origin',(-22.75,1.17093834628434E-14,17.5000000000001));
#2044=CARTESIAN_POINT('Origin',(-65.45,5.63785129692462E-15,17.5000000000001));
#2045=CARTESIAN_POINT('Origin',(-18.75,2.00000000000004,13.5000000000001));
#2046=CARTESIAN_POINT('',(-22.75,2.00000000000004,13.5000000000001));
#2047=CARTESIAN_POINT('',(-65.45,2.00000000000003,13.5000000000001));
#2048=CARTESIAN_POINT('Origin',(-18.75,-27.5,-18.));
#2049=CARTESIAN_POINT('Origin',(-18.75,-27.5,-18.));
#2050=CARTESIAN_POINT('Origin',(-18.75,-27.5,-18.));
#2051=CARTESIAN_POINT('',(-18.75,-27.5,-20.5000000000002));
#2052=CARTESIAN_POINT('Origin',(-69.45,-27.5,-18.));
#2053=CARTESIAN_POINT('Origin',(-69.45,-27.5,-18.));
#2054=CARTESIAN_POINT('Origin',(-69.45,-27.5,-18.));
#2055=CARTESIAN_POINT('Origin',(-69.45,-27.5,-18.));
#2056=CARTESIAN_POINT('Origin',(-69.45,-27.5,-18.));
#2057=CARTESIAN_POINT('Origin',(-18.75,2.,-20.5));
#2058=CARTESIAN_POINT('',(-18.75,-0.499999999999997,-18.5));
#2059=CARTESIAN_POINT('Origin',(-18.75,-0.499999999999997,-18.));
#2060=CARTESIAN_POINT('',(-18.75,3.46944695195361E-15,-18.));
#2061=CARTESIAN_POINT('',(-18.75,2.,-18.));
#2062=CARTESIAN_POINT('',(-18.75,2.,-18.));
#2063=CARTESIAN_POINT('Origin',(-18.75,-0.499999999999997,-18.));
#2064=CARTESIAN_POINT('Origin',(-18.75,-0.499999999999997,-18.));
#2065=CARTESIAN_POINT('Origin',(-69.45,-0.499999999999997,-18.));
#2066=CARTESIAN_POINT('',(-69.45,3.46944695195361E-15,-18.));
#2067=CARTESIAN_POINT('Origin',(-69.45,-0.499999999999997,-18.));
#2068=CARTESIAN_POINT('',(-69.45,2.,-18.));
#2069=CARTESIAN_POINT('',(-69.45,1.73472347597681E-15,-18.));
#2070=CARTESIAN_POINT('Origin',(-69.45,-0.499999999999997,-18.));
#2071=CARTESIAN_POINT('Origin',(-69.45,-0.499999999999997,-18.));
#2072=CARTESIAN_POINT('',(0.,2.,-18.));
#2073=CARTESIAN_POINT('Origin',(-69.45,-0.499999999999997,-18.));
#2074=CARTESIAN_POINT('',(-18.75,3.46944695195363E-15,-18.));
#2075=CARTESIAN_POINT('Origin',(-69.45,2.,-18.5));
#2076=CARTESIAN_POINT('',(-69.45,5.20417042793045E-15,-17.5));
#2077=CARTESIAN_POINT('',(-69.45,6.59194920871187E-14,-6.93889390390746E-15));
#2078=CARTESIAN_POINT('',(-69.45,2.00000000000001,-17.5));
#2079=CARTESIAN_POINT('',(-69.45,2.00000000000001,-17.5));
#2080=CARTESIAN_POINT('',(-69.45,2.,-18.5));
#2081=CARTESIAN_POINT('Origin',(-18.75,2.00000000000002,-13.5));
#2082=CARTESIAN_POINT('',(-18.75,2.00000000000001,-17.5));
#2083=CARTESIAN_POINT('',(-18.75,2.00000000000002,-13.5));
#2084=CARTESIAN_POINT('',(-18.75,5.20417042793045E-15,-17.5));
#2085=CARTESIAN_POINT('',(-18.75,2.00000000000001,-17.5));
#2086=CARTESIAN_POINT('',(-18.75,6.59194920871187E-14,-6.93889390390746E-15));
#2087=CARTESIAN_POINT('Origin',(0.,2.00000000000007,-1.39218565815937E-14));
#2088=CARTESIAN_POINT('',(-22.75,2.00000000000002,-13.5));
#2089=CARTESIAN_POINT('',(-65.45,2.00000000000002,-13.5));
#2090=CARTESIAN_POINT('',(-69.45,2.00000000000002,-13.5));
#2091=CARTESIAN_POINT('Origin',(-22.75,2.00000000000001,-17.5));
#2092=CARTESIAN_POINT('Origin',(-65.45,2.00000000000001,-17.5));
#2093=CARTESIAN_POINT('Origin',(0.,6.59194920871187E-14,-6.93889390390746E-15));
#2094=CARTESIAN_POINT('',(-22.75,1.90819582357449E-14,-13.5));
#2095=CARTESIAN_POINT('Origin',(-22.75,5.20417042793042E-15,-17.5));
#2096=CARTESIAN_POINT('',(-65.45,1.90819582357449E-14,-13.5));
#2097=CARTESIAN_POINT('',(0.,1.90819582357449E-14,-13.5));
#2098=CARTESIAN_POINT('Origin',(-65.45,5.20417042793042E-15,-17.5));
#2099=CARTESIAN_POINT('Origin',(-69.45,2.00000000000002,-13.5));
#2100=CARTESIAN_POINT('',(-22.75,2.00000000000002,-13.5));
#2101=CARTESIAN_POINT('',(-65.45,2.00000000000002,-13.5));
#2102=CARTESIAN_POINT('Origin',(-22.75,2.00000000000001,17.5000000000001));
#2103=CARTESIAN_POINT('Origin',(-22.75,2.00000000000001,-17.5));
#2104=CARTESIAN_POINT('Origin',(-65.45,2.00000000000001,17.5000000000001));
#2105=CARTESIAN_POINT('Origin',(-65.45,2.00000000000001,-17.5));
#2106=CARTESIAN_POINT('Origin',(15.75,2.,20.5));
#2107=CARTESIAN_POINT('',(15.75,2.,20.5));
#2108=CARTESIAN_POINT('',(15.75,4.,20.5));
#2109=CARTESIAN_POINT('',(15.75,2.,20.5));
#2110=CARTESIAN_POINT('',(18.25,4.5,20.5));
#2111=CARTESIAN_POINT('Origin',(15.75,4.5,20.5));
#2112=CARTESIAN_POINT('',(16.25,4.5,20.5));
#2113=CARTESIAN_POINT('',(16.25,4.5,20.5));
#2114=CARTESIAN_POINT('Origin',(15.75,4.5,20.5));
#2115=CARTESIAN_POINT('Origin',(16.25,4.5,20.5));
#2116=CARTESIAN_POINT('',(4.25,2.,20.5));
#2117=CARTESIAN_POINT('',(4.25,2.,20.5));
#2118=CARTESIAN_POINT('',(4.25,4.,20.5));
#2119=CARTESIAN_POINT('',(4.25,4.,20.5));
#2120=CARTESIAN_POINT('',(4.25,2.,20.5));
#2121=CARTESIAN_POINT('Origin',(18.25,4.5,-20.5));
#2122=CARTESIAN_POINT('',(18.25,4.5,-20.5));
#2123=CARTESIAN_POINT('',(16.25,4.5,-20.5));
#2124=CARTESIAN_POINT('',(18.25,4.5,-20.5));
#2125=CARTESIAN_POINT('',(15.75,2.,-20.5));
#2126=CARTESIAN_POINT('Origin',(15.75,4.5,-20.5));
#2127=CARTESIAN_POINT('',(15.75,4.,-20.5));
#2128=CARTESIAN_POINT('',(15.75,4.,-20.5));
#2129=CARTESIAN_POINT('Origin',(15.75,4.5,-20.5));
#2130=CARTESIAN_POINT('Origin',(15.75,4.,-20.5));
#2131=CARTESIAN_POINT('',(18.25,31.,-20.5));
#2132=CARTESIAN_POINT('',(18.25,2.,-20.5));
#2133=CARTESIAN_POINT('',(16.25,31.,-20.5));
#2134=CARTESIAN_POINT('',(16.25,2.,-20.5));
#2135=CARTESIAN_POINT('',(16.25,31.,-20.5));
#2136=CARTESIAN_POINT('Origin',(18.25,2.,20.5));
#2137=CARTESIAN_POINT('',(18.25,4.5,20.5));
#2138=CARTESIAN_POINT('',(18.25,31.,20.5));
#2139=CARTESIAN_POINT('',(18.25,31.,20.5));
#2140=CARTESIAN_POINT('',(18.25,2.,20.5));
#2141=CARTESIAN_POINT('Origin',(16.25,31.,20.5));
#2142=CARTESIAN_POINT('',(16.25,31.,20.5));
#2143=CARTESIAN_POINT('',(16.25,31.,20.5));
#2144=CARTESIAN_POINT('',(16.25,31.,20.5));
#2145=CARTESIAN_POINT('Origin',(16.25,2.,20.5));
#2146=CARTESIAN_POINT('',(16.25,4.5,20.5));
#2147=CARTESIAN_POINT('',(16.25,2.,20.5));
#2148=CARTESIAN_POINT('Origin',(15.75,4.5,20.5));
#2149=CARTESIAN_POINT('',(15.75,4.,20.5));
#2150=CARTESIAN_POINT('Origin',(4.25,4.,20.5));
#2151=CARTESIAN_POINT('',(4.25,4.,-20.5));
#2152=CARTESIAN_POINT('',(4.25,4.,-20.5));
#2153=CARTESIAN_POINT('',(4.25,4.,20.5));
#2154=CARTESIAN_POINT('Origin',(4.25,2.,20.5));
#2155=CARTESIAN_POINT('',(4.25,2.,-20.5));
#2156=CARTESIAN_POINT('',(4.25,2.,-20.5));
#2157=CARTESIAN_POINT('',(4.25,2.,20.5));
#2158=CARTESIAN_POINT('Origin',(4.25,2.,20.5));
#2159=CARTESIAN_POINT('',(4.25,2.,-20.5));
#2160=CARTESIAN_POINT('',(15.75,2.,20.5));
#2161=CARTESIAN_POINT('Origin',(15.75,4.5,20.5));
#2162=CARTESIAN_POINT('Origin',(15.75,4.5,20.5));
#2163=CARTESIAN_POINT('Origin',(15.75,4.5,-20.5));
#2164=UNCERTAINTY_MEASURE_WITH_UNIT(LENGTH_MEASURE(0.01),#2168,
'DISTANCE_ACCURACY_VALUE',
'Maximum model space distance between geometric entities at asserted c
onnectivities');
#2165=UNCERTAINTY_MEASURE_WITH_UNIT(LENGTH_MEASURE(0.01),#2168,
'DISTANCE_ACCURACY_VALUE',
'Maximum model space distance between geometric entities at asserted c
onnectivities');
#2166=(
GEOMETRIC_REPRESENTATION_CONTEXT(3)
GLOBAL_UNCERTAINTY_ASSIGNED_CONTEXT((#2164))
GLOBAL_UNIT_ASSIGNED_CONTEXT((#2168,#2170,#2171))
REPRESENTATION_CONTEXT('','3D')
);
#2167=(
GEOMETRIC_REPRESENTATION_CONTEXT(3)
GLOBAL_UNCERTAINTY_ASSIGNED_CONTEXT((#2165))
GLOBAL_UNIT_ASSIGNED_CONTEXT((#2168,#2170,#2171))
REPRESENTATION_CONTEXT('','3D')
);
#2168=(
LENGTH_UNIT()
NAMED_UNIT(*)
SI_UNIT(.MILLI.,.METRE.)
);
#2169=(
LENGTH_UNIT()
NAMED_UNIT(*)
SI_UNIT($,.METRE.)
);
#2170=(
NAMED_UNIT(*)
PLANE_ANGLE_UNIT()
SI_UNIT($,.RADIAN.)
);
#2171=(
NAMED_UNIT(*)
SI_UNIT($,.STERADIAN.)
SOLID_ANGLE_UNIT()
);
#2172=SHAPE_DEFINITION_REPRESENTATION(#2173,#2174);
#2173=PRODUCT_DEFINITION_SHAPE('',$,#2176);
#2174=SHAPE_REPRESENTATION('',(#1294),#2166);
#2175=PRODUCT_DEFINITION_CONTEXT('part definition',#2180,'design');
#2176=PRODUCT_DEFINITION('ALP5018','ALP5018 v1',#2177,#2175);
#2177=PRODUCT_DEFINITION_FORMATION('',$,#2182);
#2178=PRODUCT_RELATED_PRODUCT_CATEGORY('ALP5018 v1','ALP5018 v1',(#2182));
#2179=APPLICATION_PROTOCOL_DEFINITION('international standard',
'automotive_design',2009,#2180);
#2180=APPLICATION_CONTEXT(
'Core Data for Automotive Mechanical Design Process');
#2181=PRODUCT_CONTEXT('part definition',#2180,'mechanical');
#2182=PRODUCT('ALP5018','ALP5018 v1',$,(#2181));
#2183=PRESENTATION_STYLE_ASSIGNMENT((#2185));
#2184=PRESENTATION_STYLE_ASSIGNMENT((#2186));
#2185=SURFACE_STYLE_USAGE(.BOTH.,#2187);
#2186=SURFACE_STYLE_USAGE(.BOTH.,#2188);
#2187=SURFACE_SIDE_STYLE('',(#2189));
#2188=SURFACE_SIDE_STYLE('',(#2190));
#2189=SURFACE_STYLE_FILL_AREA(#2191);
#2190=SURFACE_STYLE_FILL_AREA(#2192);
#2191=FILL_AREA_STYLE('Steel - Satin',(#2193));
#2192=FILL_AREA_STYLE('Opaque(211,214,211)',(#2194));
#2193=FILL_AREA_STYLE_COLOUR('Steel - Satin',#2195);
#2194=FILL_AREA_STYLE_COLOUR('Opaque(211,214,211)',#2196);
#2195=COLOUR_RGB('Steel - Satin',0.627450980392157,0.627450980392157,0.627450980392157);
#2196=COLOUR_RGB('Opaque(211,214,211)',0.827450980392157,0.83921568627451,
0.827450980392157);
ENDSEC;
END-ISO-10303-21;
