G04*
G04 #@! TF.GenerationSoftware,Altium Limited,Altium Designer,25.3.3 (18)*
G04*
G04 Layer_Color=2752767*
%FSLAX43Y43*%
%MOMM*%
G71*
G04*
G04 #@! TF.SameCoordinates,2C7348AD-4C7E-41B6-A591-0481B25FC2A4*
G04*
G04*
G04 #@! TF.FilePolarity,Positive*
G04*
G01*
G75*
%ADD10C,0.200*%
%ADD12C,0.254*%
%ADD13C,0.100*%
%ADD17C,0.178*%
%ADD18C,0.150*%
%ADD19C,0.127*%
%ADD20C,0.180*%
%ADD21C,0.350*%
%ADD133C,0.051*%
%ADD134C,0.068*%
%ADD135C,0.034*%
G36*
X132848Y-81546D02*
X132933Y-81567D01*
X133038Y-81610D01*
X133144Y-81673D01*
X133229Y-81768D01*
X133292Y-81906D01*
X133303Y-81980D01*
X133314Y-82075D01*
X133314Y-82086D01*
X133314Y-82096D01*
X133303Y-82160D01*
X133282Y-82255D01*
X133250Y-82361D01*
X133176Y-82467D01*
X133081Y-82562D01*
X133017Y-82604D01*
X132943Y-82625D01*
X132859Y-82647D01*
X132763Y-82657D01*
X132721Y-82657D01*
X132679Y-82647D01*
X132626Y-82636D01*
X132552Y-82615D01*
X132488Y-82583D01*
X132414Y-82541D01*
X132351Y-82488D01*
X132340Y-82477D01*
X132329Y-82456D01*
X132298Y-82424D01*
X132266Y-82371D01*
X132234Y-82308D01*
X132213Y-82244D01*
X132192Y-82160D01*
X132181Y-82075D01*
X132181Y-82065D01*
X132181Y-82033D01*
X132192Y-82001D01*
X132203Y-81948D01*
X132224Y-81885D01*
X132255Y-81821D01*
X132298Y-81758D01*
X132351Y-81694D01*
X132361Y-81684D01*
X132382Y-81673D01*
X132414Y-81641D01*
X132467Y-81610D01*
X132531Y-81588D01*
X132594Y-81557D01*
X132679Y-81546D01*
X132763Y-81535D01*
X132785Y-81535D01*
X132848Y-81546D01*
X132848Y-81546D02*
G37*
G36*
X129134Y-81049D02*
X129240Y-81049D01*
X129356Y-81059D01*
X129494Y-81070D01*
X129631Y-81091D01*
X129790Y-81112D01*
X129959Y-81144D01*
X130298Y-81218D01*
X130658Y-81324D01*
X131007Y-81461D01*
X134181Y-86498D01*
X134181Y-86509D01*
X134181Y-86541D01*
X134171Y-86593D01*
X134171Y-86657D01*
X134160Y-86742D01*
X134139Y-86826D01*
X134097Y-87038D01*
X134097Y-87049D01*
X134086Y-87091D01*
X134075Y-87144D01*
X134054Y-87228D01*
X134023Y-87324D01*
X134001Y-87429D01*
X133927Y-87662D01*
X131176Y-83366D01*
X131166Y-83356D01*
X131134Y-83313D01*
X131091Y-83260D01*
X131039Y-83197D01*
X130964Y-83133D01*
X130880Y-83080D01*
X130785Y-83038D01*
X130679Y-83027D01*
X130636Y-83027D01*
X130594Y-83049D01*
X130531Y-83070D01*
X130467Y-83102D01*
X130393Y-83165D01*
X130308Y-83239D01*
X130224Y-83345D01*
X129303Y-84604D01*
X132541Y-89704D01*
X132520Y-89715D01*
X132467Y-89768D01*
X132382Y-89831D01*
X132266Y-89916D01*
X132118Y-90022D01*
X131938Y-90138D01*
X131726Y-90265D01*
X131494Y-90392D01*
X131229Y-90519D01*
X130943Y-90646D01*
X130636Y-90763D01*
X130308Y-90868D01*
X129959Y-90953D01*
X129589Y-91017D01*
X129197Y-91070D01*
X128795Y-91080D01*
X128700Y-91080D01*
X128647Y-91070D01*
X128584Y-91070D01*
X128425Y-91059D01*
X128234Y-91027D01*
X128012Y-90995D01*
X127758Y-90943D01*
X127494Y-90868D01*
X127197Y-90784D01*
X126891Y-90678D01*
X126573Y-90540D01*
X126256Y-90382D01*
X125928Y-90191D01*
X125600Y-89969D01*
X125282Y-89715D01*
X124975Y-89429D01*
X126351Y-87535D01*
X126361Y-87525D01*
X126372Y-87504D01*
X126383Y-87472D01*
X126393Y-87429D01*
X126404Y-87377D01*
X126425Y-87313D01*
X126436Y-87228D01*
X126436Y-87218D01*
X126436Y-87197D01*
X126425Y-87165D01*
X126414Y-87123D01*
X126404Y-87070D01*
X126372Y-87006D01*
X126340Y-86932D01*
X126287Y-86847D01*
X125272Y-85260D01*
X123758Y-87355D01*
X123758Y-87345D01*
X123748Y-87324D01*
X123737Y-87292D01*
X123727Y-87239D01*
X123716Y-87186D01*
X123705Y-87112D01*
X123674Y-86943D01*
X123631Y-86742D01*
X123610Y-86509D01*
X123589Y-86255D01*
X123578Y-85980D01*
X123578Y-85969D01*
X123578Y-85959D01*
X123578Y-85895D01*
X123589Y-85789D01*
X123600Y-85652D01*
X123621Y-85482D01*
X123653Y-85281D01*
X123705Y-85059D01*
X123758Y-84816D01*
X123832Y-84562D01*
X123928Y-84287D01*
X124055Y-84012D01*
X124192Y-83715D01*
X124362Y-83430D01*
X124552Y-83144D01*
X124774Y-82858D01*
X125028Y-82583D01*
X125049Y-82562D01*
X125102Y-82520D01*
X125187Y-82435D01*
X125303Y-82340D01*
X125462Y-82223D01*
X125642Y-82096D01*
X125854Y-81959D01*
X126097Y-81811D01*
X126372Y-81662D01*
X126668Y-81525D01*
X126986Y-81398D01*
X127335Y-81282D01*
X127705Y-81176D01*
X128097Y-81102D01*
X128510Y-81059D01*
X128943Y-81038D01*
X129060Y-81038D01*
X129134Y-81049D01*
X129134Y-81049D02*
G37*
G36*
X134404Y-92509D02*
X134488Y-92509D01*
X134562Y-92519D01*
X134615Y-92530D01*
X134626Y-92530D01*
X134657Y-92540D01*
X134700Y-92562D01*
X134753Y-92593D01*
X134806Y-92636D01*
X134859Y-92699D01*
X134901Y-92773D01*
X134933Y-92868D01*
X134933Y-92879D01*
X134933Y-92900D01*
X134943Y-92942D01*
X134943Y-93006D01*
X134943Y-93080D01*
X134954Y-93175D01*
X134954Y-93292D01*
X134954Y-93419D01*
X133070Y-93376D01*
X133049Y-93376D01*
X133007Y-93387D01*
X132933Y-93408D01*
X132859Y-93461D01*
X132774Y-93535D01*
X132742Y-93599D01*
X132700Y-93662D01*
X132679Y-93736D01*
X132658Y-93831D01*
X132636Y-93937D01*
X132636Y-94064D01*
X132636Y-94456D01*
X132636Y-94466D01*
X132636Y-94487D01*
X132636Y-94519D01*
X132647Y-94561D01*
X132658Y-94678D01*
X132689Y-94794D01*
X132742Y-94921D01*
X132816Y-95038D01*
X132859Y-95080D01*
X132922Y-95112D01*
X132986Y-95133D01*
X133060Y-95143D01*
X134985Y-95143D01*
X134985Y-95154D01*
X134985Y-95165D01*
X134985Y-95228D01*
X134985Y-95323D01*
X134975Y-95440D01*
X134964Y-95556D01*
X134943Y-95662D01*
X134911Y-95757D01*
X134880Y-95831D01*
X134869Y-95842D01*
X134848Y-95863D01*
X134816Y-95884D01*
X134753Y-95916D01*
X134668Y-95958D01*
X134562Y-95979D01*
X134414Y-96001D01*
X134245Y-96011D01*
X132880Y-96011D01*
X132837Y-96001D01*
X132721Y-95990D01*
X132583Y-95969D01*
X132435Y-95926D01*
X132287Y-95863D01*
X132160Y-95768D01*
X132054Y-95651D01*
X132044Y-95641D01*
X132033Y-95598D01*
X132001Y-95535D01*
X131980Y-95440D01*
X131949Y-95313D01*
X131917Y-95165D01*
X131906Y-94985D01*
X131896Y-94784D01*
X131896Y-93757D01*
X131896Y-93747D01*
X131896Y-93715D01*
X131896Y-93673D01*
X131906Y-93620D01*
X131906Y-93546D01*
X131917Y-93472D01*
X131949Y-93292D01*
X132001Y-93101D01*
X132065Y-92921D01*
X132171Y-92752D01*
X132234Y-92689D01*
X132308Y-92636D01*
X132319Y-92625D01*
X132351Y-92614D01*
X132393Y-92593D01*
X132467Y-92562D01*
X132552Y-92540D01*
X132668Y-92519D01*
X132795Y-92509D01*
X132943Y-92498D01*
X134319Y-92498D01*
X134404Y-92509D01*
X134404Y-92509D02*
G37*
G36*
X138414Y-95990D02*
X137684Y-95990D01*
X137684Y-94678D01*
X136128Y-94678D01*
X136128Y-95990D01*
X135441Y-95990D01*
X135441Y-92530D01*
X136128Y-92530D01*
X136128Y-93757D01*
X137684Y-93757D01*
X137684Y-92530D01*
X138414Y-92530D01*
X138414Y-95990D01*
X138414Y-95990D02*
G37*
G36*
X118722Y-91398D02*
X118785Y-91419D01*
X118859Y-91450D01*
X118944Y-91514D01*
X119018Y-91609D01*
X119050Y-91673D01*
X119071Y-91747D01*
X119102Y-91831D01*
X119113Y-91927D01*
X119579Y-95990D01*
X118711Y-95990D01*
X118468Y-93069D01*
X118457Y-93069D01*
X117558Y-95408D01*
X117547Y-95429D01*
X117526Y-95471D01*
X117494Y-95535D01*
X117441Y-95598D01*
X117367Y-95673D01*
X117282Y-95736D01*
X117177Y-95778D01*
X117050Y-95800D01*
X117028Y-95800D01*
X116986Y-95789D01*
X116923Y-95778D01*
X116838Y-95747D01*
X116743Y-95704D01*
X116658Y-95630D01*
X116573Y-95535D01*
X116510Y-95408D01*
X115621Y-93112D01*
X115610Y-93112D01*
X115357Y-95990D01*
X114510Y-95990D01*
X114954Y-91884D01*
X114954Y-91874D01*
X114954Y-91863D01*
X114976Y-91810D01*
X114997Y-91726D01*
X115039Y-91630D01*
X115092Y-91546D01*
X115177Y-91461D01*
X115282Y-91408D01*
X115346Y-91387D01*
X115441Y-91387D01*
X115494Y-91398D01*
X115568Y-91408D01*
X115663Y-91440D01*
X115769Y-91503D01*
X115875Y-91588D01*
X115970Y-91694D01*
X116013Y-91768D01*
X116044Y-91853D01*
X117028Y-94360D01*
X117050Y-94360D01*
X118034Y-91853D01*
X118034Y-91842D01*
X118044Y-91831D01*
X118065Y-91778D01*
X118118Y-91704D01*
X118182Y-91620D01*
X118266Y-91535D01*
X118372Y-91461D01*
X118499Y-91408D01*
X118573Y-91387D01*
X118679Y-91387D01*
X118722Y-91398D01*
X118722Y-91398D02*
G37*
G36*
X142541Y-92540D02*
X142647Y-92562D01*
X142784Y-92604D01*
X142922Y-92667D01*
X143049Y-92773D01*
X143112Y-92837D01*
X143165Y-92921D01*
X143207Y-93006D01*
X143239Y-93112D01*
X143239Y-93122D01*
X143250Y-93154D01*
X143260Y-93207D01*
X143271Y-93271D01*
X143281Y-93366D01*
X143292Y-93472D01*
X143303Y-93588D01*
X143303Y-93726D01*
X143303Y-93990D01*
X143303Y-94001D01*
X143303Y-94022D01*
X143303Y-94043D01*
X143303Y-94085D01*
X143292Y-94202D01*
X143281Y-94329D01*
X143250Y-94477D01*
X143218Y-94625D01*
X143165Y-94773D01*
X143091Y-94890D01*
X143080Y-94900D01*
X143059Y-94921D01*
X143028Y-94964D01*
X142975Y-94995D01*
X142911Y-95038D01*
X142826Y-95080D01*
X142731Y-95101D01*
X142625Y-95112D01*
X140911Y-95112D01*
X140911Y-95990D01*
X140192Y-95990D01*
X140192Y-92530D01*
X142498Y-92530D01*
X142541Y-92540D01*
X142541Y-92540D02*
G37*
G36*
X139726Y-95990D02*
X138922Y-95990D01*
X138922Y-92530D01*
X139726Y-92530D01*
X139726Y-95990D01*
X139726Y-95990D02*
G37*
G36*
X127187Y-92540D02*
X127229Y-92540D01*
X127346Y-92583D01*
X127398Y-92614D01*
X127473Y-92657D01*
X127536Y-92710D01*
X127589Y-92784D01*
X127652Y-92858D01*
X127705Y-92964D01*
X127748Y-93080D01*
X127779Y-93218D01*
X127801Y-93376D01*
X127811Y-93556D01*
X127811Y-93768D01*
X127811Y-93778D01*
X127811Y-93800D01*
X127811Y-93831D01*
X127801Y-93884D01*
X127790Y-94001D01*
X127758Y-94149D01*
X127716Y-94297D01*
X127642Y-94445D01*
X127547Y-94561D01*
X127494Y-94604D01*
X127420Y-94636D01*
X127420Y-94646D01*
X127441Y-94657D01*
X127483Y-94667D01*
X127547Y-94710D01*
X127621Y-94784D01*
X127684Y-94879D01*
X127748Y-95016D01*
X127779Y-95091D01*
X127790Y-95186D01*
X127811Y-95292D01*
X127811Y-95408D01*
X127811Y-95990D01*
X127081Y-95990D01*
X127081Y-95577D01*
X127081Y-95567D01*
X127081Y-95535D01*
X127081Y-95482D01*
X127081Y-95429D01*
X127070Y-95302D01*
X127060Y-95249D01*
X127049Y-95218D01*
X127049Y-95207D01*
X127039Y-95196D01*
X126996Y-95143D01*
X126912Y-95101D01*
X126859Y-95091D01*
X126795Y-95080D01*
X125504Y-95080D01*
X125504Y-95990D01*
X124774Y-95990D01*
X124774Y-92530D01*
X127155Y-92530D01*
X127187Y-92540D01*
X127187Y-92540D02*
G37*
G36*
X120817Y-95990D02*
X120002Y-95990D01*
X120002Y-92530D01*
X120817Y-92530D01*
X120817Y-95990D01*
X120817Y-95990D02*
G37*
G36*
X130658Y-92509D02*
X130785Y-92540D01*
X130922Y-92572D01*
X131060Y-92625D01*
X131176Y-92699D01*
X131271Y-92805D01*
X131282Y-92815D01*
X131303Y-92858D01*
X131345Y-92932D01*
X131388Y-93038D01*
X131419Y-93165D01*
X131462Y-93323D01*
X131483Y-93514D01*
X131494Y-93736D01*
X131494Y-94773D01*
X131494Y-94784D01*
X131494Y-94815D01*
X131494Y-94858D01*
X131483Y-94921D01*
X131483Y-95006D01*
X131472Y-95091D01*
X131430Y-95281D01*
X131367Y-95482D01*
X131282Y-95673D01*
X131218Y-95757D01*
X131155Y-95831D01*
X131070Y-95895D01*
X130986Y-95948D01*
X130975Y-95948D01*
X130954Y-95958D01*
X130901Y-95969D01*
X130848Y-95979D01*
X130763Y-95990D01*
X130679Y-96001D01*
X130573Y-96011D01*
X129240Y-96011D01*
X129197Y-96001D01*
X129081Y-95990D01*
X128954Y-95969D01*
X128816Y-95926D01*
X128668Y-95874D01*
X128541Y-95789D01*
X128435Y-95683D01*
X128425Y-95673D01*
X128404Y-95630D01*
X128372Y-95556D01*
X128340Y-95461D01*
X128308Y-95334D01*
X128277Y-95175D01*
X128256Y-94995D01*
X128245Y-94773D01*
X128245Y-93736D01*
X128245Y-93726D01*
X128245Y-93694D01*
X128245Y-93641D01*
X128256Y-93577D01*
X128266Y-93493D01*
X128277Y-93397D01*
X128319Y-93196D01*
X128393Y-92995D01*
X128446Y-92890D01*
X128499Y-92794D01*
X128573Y-92710D01*
X128647Y-92636D01*
X128742Y-92583D01*
X128848Y-92540D01*
X128859Y-92540D01*
X128880Y-92530D01*
X128922Y-92530D01*
X128975Y-92519D01*
X129039Y-92509D01*
X129113Y-92509D01*
X129293Y-92498D01*
X130552Y-92498D01*
X130658Y-92509D01*
X130658Y-92509D02*
G37*
G36*
X123589Y-92509D02*
X123758Y-92519D01*
X123917Y-92530D01*
X123981Y-92540D01*
X124044Y-92551D01*
X124086Y-92562D01*
X124118Y-92572D01*
X124129Y-92583D01*
X124150Y-92604D01*
X124182Y-92646D01*
X124213Y-92720D01*
X124245Y-92815D01*
X124266Y-92890D01*
X124277Y-92964D01*
X124287Y-93048D01*
X124298Y-93144D01*
X124309Y-93249D01*
X124309Y-93376D01*
X122414Y-93376D01*
X122372Y-93387D01*
X122330Y-93397D01*
X122224Y-93429D01*
X122171Y-93472D01*
X122129Y-93514D01*
X122129Y-93524D01*
X122108Y-93546D01*
X122097Y-93577D01*
X122076Y-93630D01*
X122055Y-93704D01*
X122034Y-93800D01*
X122023Y-93927D01*
X122012Y-94064D01*
X122012Y-94456D01*
X122012Y-94477D01*
X122012Y-94519D01*
X122012Y-94593D01*
X122023Y-94667D01*
X122023Y-94763D01*
X122034Y-94847D01*
X122044Y-94921D01*
X122065Y-94974D01*
X122065Y-94985D01*
X122086Y-94995D01*
X122108Y-95027D01*
X122150Y-95059D01*
X122192Y-95091D01*
X122256Y-95112D01*
X122330Y-95133D01*
X122425Y-95143D01*
X124362Y-95143D01*
X124362Y-95154D01*
X124362Y-95165D01*
X124362Y-95228D01*
X124362Y-95313D01*
X124351Y-95419D01*
X124340Y-95524D01*
X124319Y-95630D01*
X124287Y-95725D01*
X124256Y-95800D01*
X124245Y-95810D01*
X124224Y-95831D01*
X124182Y-95863D01*
X124129Y-95905D01*
X124033Y-95948D01*
X123928Y-95979D01*
X123780Y-96001D01*
X123610Y-96011D01*
X122213Y-96011D01*
X122108Y-96001D01*
X121991Y-95979D01*
X121854Y-95948D01*
X121716Y-95895D01*
X121589Y-95831D01*
X121483Y-95736D01*
X121473Y-95725D01*
X121452Y-95683D01*
X121409Y-95609D01*
X121367Y-95514D01*
X121325Y-95376D01*
X121282Y-95218D01*
X121261Y-95016D01*
X121251Y-94773D01*
X121251Y-93736D01*
X121251Y-93726D01*
X121251Y-93683D01*
X121251Y-93630D01*
X121261Y-93567D01*
X121272Y-93472D01*
X121293Y-93376D01*
X121346Y-93165D01*
X121430Y-92953D01*
X121483Y-92847D01*
X121557Y-92752D01*
X121642Y-92667D01*
X121737Y-92593D01*
X121843Y-92540D01*
X121970Y-92509D01*
X122023Y-92509D01*
X122065Y-92498D01*
X123420Y-92498D01*
X123589Y-92509D01*
X123589Y-92509D02*
G37*
%LPC*%
G36*
X132848Y-81631D02*
X132742Y-81631D01*
X132689Y-81641D01*
X132605Y-81652D01*
X132520Y-81684D01*
X132425Y-81737D01*
X132340Y-81821D01*
X132287Y-81927D01*
X132277Y-82001D01*
X132266Y-82075D01*
X132266Y-82086D01*
X132266Y-82107D01*
X132277Y-82149D01*
X132287Y-82202D01*
X132329Y-82319D01*
X132361Y-82371D01*
X132404Y-82435D01*
X132414Y-82445D01*
X132435Y-82456D01*
X132467Y-82477D01*
X132509Y-82498D01*
X132615Y-82551D01*
X132689Y-82562D01*
X132763Y-82572D01*
X132785Y-82572D01*
X132837Y-82562D01*
X132911Y-82541D01*
X132996Y-82509D01*
X133081Y-82445D01*
X133155Y-82361D01*
X133208Y-82234D01*
X133229Y-82160D01*
X133229Y-82075D01*
X133229Y-82054D01*
X133218Y-82001D01*
X133208Y-81938D01*
X133176Y-81853D01*
X133113Y-81768D01*
X133028Y-81705D01*
X132922Y-81652D01*
X132848Y-81631D01*
X132848Y-81631D02*
G37*
%LPD*%
G36*
X132837Y-81768D02*
X132880Y-81779D01*
X132922Y-81811D01*
X132964Y-81842D01*
X132986Y-81895D01*
X132996Y-81959D01*
X132996Y-81969D01*
X132996Y-81990D01*
X132975Y-82054D01*
X132954Y-82086D01*
X132933Y-82117D01*
X132890Y-82139D01*
X132837Y-82149D01*
X133017Y-82435D01*
X132911Y-82435D01*
X132732Y-82149D01*
X132626Y-82149D01*
X132626Y-82435D01*
X132520Y-82435D01*
X132520Y-81758D01*
X132795Y-81758D01*
X132837Y-81768D01*
X132837Y-81768D02*
G37*
%LPC*%
G36*
X132795Y-81853D02*
X132626Y-81853D01*
X132626Y-82065D01*
X132806Y-82065D01*
X132848Y-82054D01*
X132880Y-82022D01*
X132890Y-81959D01*
X132890Y-81938D01*
X132880Y-81906D01*
X132848Y-81874D01*
X132795Y-81853D01*
X132795Y-81853D02*
G37*
G36*
X127113Y-83017D02*
X127070Y-83017D01*
X127018Y-83038D01*
X126954Y-83059D01*
X126880Y-83091D01*
X126806Y-83154D01*
X126711Y-83229D01*
X126626Y-83334D01*
X125737Y-84583D01*
X128435Y-88858D01*
X128446Y-88879D01*
X128478Y-88921D01*
X128520Y-88985D01*
X128584Y-89048D01*
X128658Y-89122D01*
X128732Y-89186D01*
X128806Y-89228D01*
X128890Y-89249D01*
X128933Y-89249D01*
X128986Y-89239D01*
X129049Y-89218D01*
X129123Y-89175D01*
X129197Y-89133D01*
X129282Y-89059D01*
X129356Y-88964D01*
X130298Y-87609D01*
X127589Y-83345D01*
X127578Y-83334D01*
X127557Y-83292D01*
X127504Y-83239D01*
X127451Y-83176D01*
X127377Y-83123D01*
X127303Y-83070D01*
X127208Y-83027D01*
X127113Y-83017D01*
X127113Y-83017D02*
G37*
G36*
X142266Y-93366D02*
X140911Y-93366D01*
X140911Y-94244D01*
X142329Y-94244D01*
X142350Y-94233D01*
X142393Y-94223D01*
X142435Y-94202D01*
X142467Y-94159D01*
X142509Y-94096D01*
X142530Y-94001D01*
X142541Y-93884D01*
X142541Y-93757D01*
X142541Y-93736D01*
X142541Y-93694D01*
X142530Y-93630D01*
X142509Y-93556D01*
X142477Y-93493D01*
X142424Y-93429D01*
X142361Y-93387D01*
X142266Y-93366D01*
X142266Y-93366D02*
G37*
G36*
X126764Y-93366D02*
X125504Y-93366D01*
X125504Y-94233D01*
X126848Y-94233D01*
X126880Y-94223D01*
X126933Y-94212D01*
X126986Y-94181D01*
X127028Y-94138D01*
X127081Y-94075D01*
X127113Y-93979D01*
X127123Y-93852D01*
X127123Y-93757D01*
X127123Y-93736D01*
X127123Y-93694D01*
X127102Y-93630D01*
X127081Y-93556D01*
X127039Y-93493D01*
X126975Y-93429D01*
X126880Y-93387D01*
X126764Y-93366D01*
X126764Y-93366D02*
G37*
G36*
X130298Y-93366D02*
X129409Y-93366D01*
X129367Y-93376D01*
X129314Y-93387D01*
X129261Y-93408D01*
X129208Y-93429D01*
X129155Y-93472D01*
X129102Y-93524D01*
X129102Y-93535D01*
X129081Y-93556D01*
X129070Y-93588D01*
X129049Y-93651D01*
X129028Y-93726D01*
X129017Y-93810D01*
X128996Y-93927D01*
X128996Y-94064D01*
X128996Y-94456D01*
X128996Y-94477D01*
X128996Y-94519D01*
X128996Y-94583D01*
X129007Y-94667D01*
X129028Y-94847D01*
X129049Y-94932D01*
X129070Y-94995D01*
X129070Y-95006D01*
X129092Y-95016D01*
X129113Y-95038D01*
X129144Y-95069D01*
X129187Y-95101D01*
X129240Y-95122D01*
X129314Y-95133D01*
X129398Y-95143D01*
X130340Y-95143D01*
X130393Y-95133D01*
X130467Y-95112D01*
X130552Y-95059D01*
X130626Y-94974D01*
X130668Y-94921D01*
X130700Y-94858D01*
X130732Y-94773D01*
X130753Y-94678D01*
X130774Y-94572D01*
X130774Y-94456D01*
X130774Y-94064D01*
X130774Y-94043D01*
X130774Y-94001D01*
X130763Y-93937D01*
X130753Y-93852D01*
X130710Y-93673D01*
X130679Y-93588D01*
X130626Y-93524D01*
X130615Y-93514D01*
X130605Y-93503D01*
X130573Y-93472D01*
X130531Y-93440D01*
X130425Y-93387D01*
X130372Y-93376D01*
X130298Y-93366D01*
X130298Y-93366D02*
G37*
%LPD*%
D10*
X211438Y-80740D02*
X210510Y-80740D01*
X210510Y-82240D01*
X211438Y-82240D01*
X210510Y-81454D02*
X211081Y-81454D01*
X211688Y-80740D02*
X212260Y-82240D01*
X212831Y-80740D02*
X212260Y-82240D01*
X213095Y-81097D02*
X213095Y-81026D01*
X213167Y-80883D01*
X213238Y-80812D01*
X213381Y-80740D01*
X213666Y-80740D01*
X213809Y-80812D01*
X213881Y-80883D01*
X213952Y-81026D01*
X213952Y-81169D01*
X213881Y-81312D01*
X213738Y-81526D01*
X213024Y-82240D01*
X214024Y-82240D01*
X215073Y-80740D02*
X214359Y-81740D01*
X215430Y-81740D01*
X215073Y-80740D02*
X215073Y-82240D01*
X215695Y-80740D02*
X215695Y-81811D01*
X215766Y-82026D01*
X215909Y-82169D01*
X216123Y-82240D01*
X216266Y-82240D01*
X216480Y-82169D01*
X216623Y-82026D01*
X216694Y-81811D01*
X216694Y-80740D01*
X217180Y-81097D02*
X217180Y-81026D01*
X217251Y-80883D01*
X217323Y-80812D01*
X217466Y-80740D01*
X217751Y-80740D01*
X217894Y-80812D01*
X217966Y-80883D01*
X218037Y-81026D01*
X218037Y-81169D01*
X217966Y-81312D01*
X217823Y-81526D01*
X217109Y-82240D01*
X218108Y-82240D01*
X218515Y-81097D02*
X218515Y-81026D01*
X218587Y-80883D01*
X218658Y-80812D01*
X218801Y-80740D01*
X219087Y-80740D01*
X219230Y-80812D01*
X219301Y-80883D01*
X219372Y-81026D01*
X219372Y-81169D01*
X219301Y-81312D01*
X219158Y-81526D01*
X218444Y-82240D01*
X219444Y-82240D01*
X220922Y-82240D02*
X220351Y-80740D01*
X219779Y-82240D01*
X219994Y-81740D02*
X220708Y-81740D01*
D12*
X227330Y116730D02*
X227330Y125730D01*
X105830Y125730D02*
X227330Y125730D01*
X129330Y116730D02*
X129330Y121230D01*
X105830Y121230D02*
X105830Y125730D01*
X105830Y121230D02*
X227330Y121230D01*
X116830Y121230D02*
X116830Y125730D01*
X129330Y121230D02*
X129330Y125730D01*
X207830Y121230D02*
X207830Y125730D01*
X105830Y116730D02*
X105830Y121230D01*
X105830Y116730D02*
X227330Y116730D01*
X207830Y116730D02*
X207830Y121230D01*
X116830Y116730D02*
X116830Y121230D01*
X108330Y122730D02*
X108330Y124254D01*
X109092Y124254D01*
X109346Y124000D01*
X109346Y123492D01*
X109092Y123238D01*
X108330Y123238D01*
X108838Y123238D02*
X109346Y122730D01*
X110869Y124254D02*
X109854Y124254D01*
X109854Y122730D01*
X110869Y122730D01*
X109854Y123492D02*
X110361Y123492D01*
X111377Y124254D02*
X111377Y123238D01*
X111885Y122730D01*
X112393Y123238D01*
X112393Y124254D01*
X119346Y124254D02*
X118330Y124254D01*
X118330Y122730D01*
X119346Y122730D01*
X118330Y123492D02*
X118838Y123492D01*
X120869Y124000D02*
X120615Y124254D01*
X120107Y124254D01*
X119854Y124000D01*
X119854Y122984D01*
X120107Y122730D01*
X120615Y122730D01*
X120869Y122984D01*
X122139Y124254D02*
X121631Y124254D01*
X121377Y124000D01*
X121377Y122984D01*
X121631Y122730D01*
X122139Y122730D01*
X122393Y122984D01*
X122393Y124000D01*
X122139Y124254D01*
X165846Y123500D02*
X165592Y123754D01*
X165084Y123754D01*
X164830Y123500D01*
X164830Y122484D01*
X165084Y122230D01*
X165592Y122230D01*
X165846Y122484D01*
X166607Y122230D02*
X167115Y122230D01*
X167369Y122484D01*
X167369Y122992D01*
X167115Y123246D01*
X166607Y123246D01*
X166354Y122992D01*
X166354Y122484D01*
X166607Y122230D01*
X167877Y122230D02*
X167877Y123246D01*
X168131Y123246D01*
X168385Y122992D01*
X168385Y122230D01*
X168385Y122992D01*
X168639Y123246D01*
X168893Y122992D01*
X168893Y122230D01*
X169401Y122230D02*
X169401Y123246D01*
X169654Y123246D01*
X169908Y122992D01*
X169908Y122230D01*
X169908Y122992D01*
X170162Y123246D01*
X170416Y122992D01*
X170416Y122230D01*
X171686Y122230D02*
X171178Y122230D01*
X170924Y122484D01*
X170924Y122992D01*
X171178Y123246D01*
X171686Y123246D01*
X171940Y122992D01*
X171940Y122738D01*
X170924Y122738D01*
X172448Y122230D02*
X172448Y123246D01*
X173209Y123246D01*
X173463Y122992D01*
X173463Y122230D01*
X174225Y123500D02*
X174225Y123246D01*
X173971Y123246D01*
X174479Y123246D01*
X174225Y123246D01*
X174225Y122484D01*
X174479Y122230D01*
X175241Y122230D02*
X176002Y122230D01*
X176256Y122484D01*
X176002Y122738D01*
X175495Y122738D01*
X175241Y122992D01*
X175495Y123246D01*
X176256Y123246D01*
X212830Y123754D02*
X212830Y122230D01*
X213592Y122230D01*
X213846Y122484D01*
X213846Y123500D01*
X213592Y123754D01*
X212830Y123754D01*
X214607Y123246D02*
X215115Y123246D01*
X215369Y122992D01*
X215369Y122230D01*
X214607Y122230D01*
X214354Y122484D01*
X214607Y122738D01*
X215369Y122738D01*
X216131Y123500D02*
X216131Y123246D01*
X215877Y123246D01*
X216385Y123246D01*
X216131Y123246D01*
X216131Y122484D01*
X216385Y122230D01*
X217908Y122230D02*
X217401Y122230D01*
X217147Y122484D01*
X217147Y122992D01*
X217401Y123246D01*
X217908Y123246D01*
X218162Y122992D01*
X218162Y122738D01*
X217147Y122738D01*
D13*
X221210Y-102590D02*
X221210Y-101990D01*
X227330Y-82990D02*
X227330Y-82990D01*
X216210Y-102790D02*
X216210Y-101790D01*
X216050Y-104625D02*
X216050Y-103355D01*
X218590Y-104625D02*
X218590Y-103355D01*
X221130Y-104625D02*
X221130Y-103355D01*
X223670Y-104625D02*
X223670Y-103355D01*
X226210Y-102790D02*
X226210Y-101790D01*
X226210Y-104625D02*
X226210Y-103355D01*
X197510Y-82990D02*
X197510Y-79990D01*
X216050Y-103990D02*
X226210Y-103990D01*
X216210Y-102290D02*
X226210Y-102290D01*
X197510Y-82990D02*
X227330Y-82990D01*
X145510Y-87490D02*
X227330Y-87490D01*
X212743Y-103590D02*
X212410Y-104057D01*
X212910Y-104057D01*
X212743Y-103590D02*
X212743Y-104290D01*
X213233Y-103590D02*
X213133Y-103623D01*
X213067Y-103723D01*
X213033Y-103890D01*
X213033Y-103990D01*
X213067Y-104157D01*
X213133Y-104257D01*
X213233Y-104290D01*
X213300Y-104290D01*
X213400Y-104257D01*
X213466Y-104157D01*
X213500Y-103990D01*
X213500Y-103890D01*
X213466Y-103723D01*
X213400Y-103623D01*
X213300Y-103590D01*
X213233Y-103590D01*
X213856Y-103590D02*
X213756Y-103623D01*
X213690Y-103723D01*
X213656Y-103890D01*
X213656Y-103990D01*
X213690Y-104157D01*
X213756Y-104257D01*
X213856Y-104290D01*
X213923Y-104290D01*
X214023Y-104257D01*
X214090Y-104157D01*
X214123Y-103990D01*
X214123Y-103890D01*
X214090Y-103723D01*
X214023Y-103623D01*
X213923Y-103590D01*
X213856Y-103590D01*
X214280Y-103823D02*
X214280Y-104290D01*
X214280Y-103957D02*
X214380Y-103857D01*
X214446Y-103823D01*
X214546Y-103823D01*
X214613Y-103857D01*
X214646Y-103957D01*
X214646Y-104290D01*
X214646Y-103957D02*
X214746Y-103857D01*
X214813Y-103823D01*
X214913Y-103823D01*
X214979Y-103857D01*
X215013Y-103957D01*
X215013Y-104290D01*
X215299Y-103590D02*
X215333Y-103623D01*
X215366Y-103590D01*
X215333Y-103557D01*
X215299Y-103590D01*
X215333Y-103823D02*
X215333Y-104290D01*
X215489Y-103590D02*
X215489Y-104290D01*
X212510Y-102023D02*
X212577Y-101990D01*
X212677Y-101890D01*
X212677Y-102590D01*
X213223Y-101890D02*
X213123Y-101923D01*
X213057Y-102023D01*
X213023Y-102190D01*
X213023Y-102290D01*
X213057Y-102457D01*
X213123Y-102557D01*
X213223Y-102590D01*
X213290Y-102590D01*
X213390Y-102557D01*
X213456Y-102457D01*
X213490Y-102290D01*
X213490Y-102190D01*
X213456Y-102023D01*
X213390Y-101923D01*
X213290Y-101890D01*
X213223Y-101890D01*
X213646Y-102123D02*
X213646Y-102590D01*
X213646Y-102257D02*
X213746Y-102157D01*
X213813Y-102123D01*
X213913Y-102123D01*
X213980Y-102157D01*
X214013Y-102257D01*
X214013Y-102590D01*
X214013Y-102257D02*
X214113Y-102157D01*
X214180Y-102123D01*
X214280Y-102123D01*
X214346Y-102157D01*
X214380Y-102257D01*
X214380Y-102590D01*
X214600Y-102123D02*
X214600Y-102590D01*
X214600Y-102257D02*
X214700Y-102157D01*
X214766Y-102123D01*
X214866Y-102123D01*
X214933Y-102157D01*
X214966Y-102257D01*
X214966Y-102590D01*
X214966Y-102257D02*
X215066Y-102157D01*
X215133Y-102123D01*
X215233Y-102123D01*
X215299Y-102157D01*
X215333Y-102257D01*
X215333Y-102590D01*
D17*
X147576Y-92619D02*
X147424Y-92467D01*
X147196Y-92390D01*
X146891Y-92390D01*
X146662Y-92467D01*
X146510Y-92619D01*
X146510Y-92771D01*
X146586Y-92924D01*
X146662Y-93000D01*
X146815Y-93076D01*
X147272Y-93228D01*
X147424Y-93304D01*
X147500Y-93381D01*
X147576Y-93533D01*
X147576Y-93761D01*
X147424Y-93914D01*
X147196Y-93990D01*
X146891Y-93990D01*
X146662Y-93914D01*
X146510Y-93761D01*
X147934Y-92390D02*
X147934Y-93990D01*
X148849Y-93990D01*
X149557Y-92390D02*
X149557Y-93990D01*
X149024Y-92390D02*
X150090Y-92390D01*
X116780Y-103136D02*
X116695Y-102966D01*
X116526Y-102797D01*
X116356Y-102712D01*
X116018Y-102712D01*
X115849Y-102797D01*
X115679Y-102966D01*
X115595Y-103136D01*
X115510Y-103390D01*
X115510Y-103813D01*
X115595Y-104067D01*
X115679Y-104236D01*
X115849Y-104405D01*
X116018Y-104490D01*
X116356Y-104490D01*
X116526Y-104405D01*
X116695Y-104236D01*
X116780Y-104067D01*
X117279Y-102712D02*
X117279Y-104490D01*
X117279Y-103644D02*
X117533Y-103390D01*
X117702Y-103305D01*
X117956Y-103305D01*
X118126Y-103390D01*
X118210Y-103644D01*
X118210Y-104490D01*
X119692Y-103305D02*
X119692Y-104490D01*
X119692Y-103559D02*
X119522Y-103390D01*
X119353Y-103305D01*
X119099Y-103305D01*
X118930Y-103390D01*
X118761Y-103559D01*
X118676Y-103813D01*
X118676Y-103982D01*
X118761Y-104236D01*
X118930Y-104405D01*
X119099Y-104490D01*
X119353Y-104490D01*
X119522Y-104405D01*
X119692Y-104236D01*
X120166Y-103305D02*
X120166Y-104490D01*
X120166Y-103644D02*
X120420Y-103390D01*
X120589Y-103305D01*
X120843Y-103305D01*
X121012Y-103390D01*
X121097Y-103644D01*
X121097Y-104490D01*
X122578Y-102712D02*
X122578Y-104490D01*
X122578Y-103559D02*
X122409Y-103390D01*
X122240Y-103305D01*
X121986Y-103305D01*
X121816Y-103390D01*
X121647Y-103559D01*
X121562Y-103813D01*
X121562Y-103982D01*
X121647Y-104236D01*
X121816Y-104405D01*
X121986Y-104490D01*
X122240Y-104490D01*
X122409Y-104405D01*
X122578Y-104236D01*
X123052Y-102712D02*
X123052Y-104490D01*
X123425Y-103813D02*
X124440Y-103813D01*
X124440Y-103644D01*
X124356Y-103474D01*
X124271Y-103390D01*
X124102Y-103305D01*
X123848Y-103305D01*
X123679Y-103390D01*
X123509Y-103559D01*
X123425Y-103813D01*
X123425Y-103982D01*
X123509Y-104236D01*
X123679Y-104405D01*
X123848Y-104490D01*
X124102Y-104490D01*
X124271Y-104405D01*
X124440Y-104236D01*
X124821Y-103305D02*
X124821Y-104490D01*
X124821Y-103813D02*
X124906Y-103559D01*
X125075Y-103390D01*
X125245Y-103305D01*
X125499Y-103305D01*
X125829Y-104405D02*
X125744Y-104490D01*
X125659Y-104405D01*
X125744Y-104321D01*
X125829Y-104405D01*
X125829Y-104575D01*
X125744Y-104744D01*
X125659Y-104829D01*
X128969Y-104490D02*
X128292Y-102712D01*
X127615Y-104490D01*
X127869Y-103897D02*
X128715Y-103897D01*
X130569Y-102712D02*
X129384Y-104490D01*
X129384Y-102712D02*
X130569Y-102712D01*
X129384Y-104490D02*
X130569Y-104490D01*
X134183Y-102712D02*
X133930Y-102797D01*
X133845Y-102966D01*
X133845Y-103136D01*
X133930Y-103305D01*
X134099Y-103390D01*
X134437Y-103474D01*
X134691Y-103559D01*
X134861Y-103728D01*
X134945Y-103897D01*
X134945Y-104151D01*
X134861Y-104321D01*
X134776Y-104405D01*
X134522Y-104490D01*
X134183Y-104490D01*
X133930Y-104405D01*
X133845Y-104321D01*
X133760Y-104151D01*
X133760Y-103897D01*
X133845Y-103728D01*
X134014Y-103559D01*
X134268Y-103474D01*
X134607Y-103390D01*
X134776Y-103305D01*
X134861Y-103136D01*
X134861Y-102966D01*
X134776Y-102797D01*
X134522Y-102712D01*
X134183Y-102712D01*
X136359Y-102712D02*
X135512Y-102712D01*
X135428Y-103474D01*
X135512Y-103390D01*
X135766Y-103305D01*
X136020Y-103305D01*
X136274Y-103390D01*
X136444Y-103559D01*
X136528Y-103813D01*
X136528Y-103982D01*
X136444Y-104236D01*
X136274Y-104405D01*
X136020Y-104490D01*
X135766Y-104490D01*
X135512Y-104405D01*
X135428Y-104321D01*
X135343Y-104151D01*
X137011Y-103136D02*
X137011Y-103051D01*
X137095Y-102882D01*
X137180Y-102797D01*
X137349Y-102712D01*
X137688Y-102712D01*
X137857Y-102797D01*
X137942Y-102882D01*
X138027Y-103051D01*
X138027Y-103220D01*
X137942Y-103390D01*
X137773Y-103644D01*
X136926Y-104490D01*
X138111Y-104490D01*
X138594Y-103136D02*
X138594Y-103051D01*
X138678Y-102882D01*
X138763Y-102797D01*
X138932Y-102712D01*
X139271Y-102712D01*
X139440Y-102797D01*
X139525Y-102882D01*
X139609Y-103051D01*
X139609Y-103220D01*
X139525Y-103390D01*
X139355Y-103644D01*
X138509Y-104490D01*
X139694Y-104490D01*
X140938Y-102712D02*
X140092Y-103897D01*
X141362Y-103897D01*
X140938Y-102712D02*
X140938Y-104490D01*
X114595Y-100636D02*
X114595Y-100551D01*
X114679Y-100382D01*
X114764Y-100297D01*
X114933Y-100212D01*
X115272Y-100212D01*
X115441Y-100297D01*
X115526Y-100382D01*
X115610Y-100551D01*
X115610Y-100720D01*
X115526Y-100890D01*
X115356Y-101144D01*
X114510Y-101990D01*
X115695Y-101990D01*
X116262Y-100212D02*
X117193Y-100212D01*
X116685Y-100890D01*
X116939Y-100890D01*
X117109Y-100974D01*
X117193Y-101059D01*
X117278Y-101313D01*
X117278Y-101482D01*
X117193Y-101736D01*
X117024Y-101905D01*
X116770Y-101990D01*
X116516Y-101990D01*
X116262Y-101905D01*
X116178Y-101821D01*
X116093Y-101651D01*
X118692Y-100212D02*
X117845Y-100212D01*
X117761Y-100974D01*
X117845Y-100890D01*
X118099Y-100805D01*
X118353Y-100805D01*
X118607Y-100890D01*
X118776Y-101059D01*
X118861Y-101313D01*
X118861Y-101482D01*
X118776Y-101736D01*
X118607Y-101905D01*
X118353Y-101990D01*
X118099Y-101990D01*
X117845Y-101905D01*
X117761Y-101821D01*
X117676Y-101651D01*
X120275Y-100212D02*
X119428Y-100212D01*
X119343Y-100974D01*
X119428Y-100890D01*
X119682Y-100805D01*
X119936Y-100805D01*
X120190Y-100890D01*
X120359Y-101059D01*
X120444Y-101313D01*
X120444Y-101482D01*
X120359Y-101736D01*
X120190Y-101905D01*
X119936Y-101990D01*
X119682Y-101990D01*
X119428Y-101905D01*
X119343Y-101821D01*
X119259Y-101651D01*
X122238Y-100212D02*
X122662Y-101990D01*
X123085Y-100212D02*
X122662Y-101990D01*
X123085Y-100212D02*
X123508Y-101990D01*
X123931Y-100212D02*
X123508Y-101990D01*
X124372Y-101821D02*
X124287Y-101905D01*
X124372Y-101990D01*
X124456Y-101905D01*
X124372Y-101821D01*
X127512Y-100636D02*
X127427Y-100466D01*
X127258Y-100297D01*
X127089Y-100212D01*
X126750Y-100212D01*
X126581Y-100297D01*
X126412Y-100466D01*
X126327Y-100636D01*
X126242Y-100890D01*
X126242Y-101313D01*
X126327Y-101567D01*
X126412Y-101736D01*
X126581Y-101905D01*
X126750Y-101990D01*
X127089Y-101990D01*
X127258Y-101905D01*
X127427Y-101736D01*
X127512Y-101567D01*
X128011Y-100212D02*
X128011Y-101990D01*
X128011Y-101144D02*
X128265Y-100890D01*
X128435Y-100805D01*
X128689Y-100805D01*
X128858Y-100890D01*
X128943Y-101144D01*
X128943Y-101990D01*
X130424Y-100805D02*
X130424Y-101990D01*
X130424Y-101059D02*
X130255Y-100890D01*
X130085Y-100805D01*
X129831Y-100805D01*
X129662Y-100890D01*
X129493Y-101059D01*
X129408Y-101313D01*
X129408Y-101482D01*
X129493Y-101736D01*
X129662Y-101905D01*
X129831Y-101990D01*
X130085Y-101990D01*
X130255Y-101905D01*
X130424Y-101736D01*
X130898Y-100805D02*
X130898Y-101990D01*
X130898Y-101144D02*
X131152Y-100890D01*
X131321Y-100805D01*
X131575Y-100805D01*
X131744Y-100890D01*
X131829Y-101144D01*
X131829Y-101990D01*
X133310Y-100212D02*
X133310Y-101990D01*
X133310Y-101059D02*
X133141Y-100890D01*
X132972Y-100805D01*
X132718Y-100805D01*
X132549Y-100890D01*
X132379Y-101059D01*
X132295Y-101313D01*
X132295Y-101482D01*
X132379Y-101736D01*
X132549Y-101905D01*
X132718Y-101990D01*
X132972Y-101990D01*
X133141Y-101905D01*
X133310Y-101736D01*
X133784Y-100212D02*
X133784Y-101990D01*
X134157Y-101313D02*
X135173Y-101313D01*
X135173Y-101144D01*
X135088Y-100974D01*
X135003Y-100890D01*
X134834Y-100805D01*
X134580Y-100805D01*
X134411Y-100890D01*
X134242Y-101059D01*
X134157Y-101313D01*
X134157Y-101482D01*
X134242Y-101736D01*
X134411Y-101905D01*
X134580Y-101990D01*
X134834Y-101990D01*
X135003Y-101905D01*
X135173Y-101736D01*
X135554Y-100805D02*
X135554Y-101990D01*
X135554Y-101313D02*
X135638Y-101059D01*
X135808Y-100890D01*
X135977Y-100805D01*
X136231Y-100805D01*
X137788Y-100212D02*
X137788Y-101990D01*
X137788Y-100212D02*
X138550Y-100212D01*
X138804Y-100297D01*
X138889Y-100382D01*
X138973Y-100551D01*
X138973Y-100720D01*
X138889Y-100890D01*
X138804Y-100974D01*
X138550Y-101059D01*
X137788Y-101059D02*
X138550Y-101059D01*
X138804Y-101144D01*
X138889Y-101228D01*
X138973Y-101397D01*
X138973Y-101651D01*
X138889Y-101821D01*
X138804Y-101905D01*
X138550Y-101990D01*
X137788Y-101990D01*
X139371Y-100212D02*
X139371Y-101990D01*
X139744Y-100805D02*
X140252Y-101990D01*
X140760Y-100805D02*
X140252Y-101990D01*
X142063Y-100212D02*
X142063Y-101990D01*
X142063Y-101059D02*
X141894Y-100890D01*
X141725Y-100805D01*
X141471Y-100805D01*
X141301Y-100890D01*
X141132Y-101059D01*
X141047Y-101313D01*
X141047Y-101482D01*
X141132Y-101736D01*
X141301Y-101905D01*
X141471Y-101990D01*
X141725Y-101990D01*
X141894Y-101905D01*
X142063Y-101736D01*
X142622Y-101821D02*
X142537Y-101905D01*
X142622Y-101990D01*
X142706Y-101905D01*
X142622Y-101821D01*
X113280Y-97472D02*
X113280Y-99250D01*
X113280Y-97472D02*
X113957Y-99250D01*
X114634Y-97472D02*
X113957Y-99250D01*
X114634Y-97472D02*
X114634Y-99250D01*
X115312Y-97472D02*
X115396Y-97557D01*
X115481Y-97472D01*
X115396Y-97388D01*
X115312Y-97472D01*
X115396Y-98065D02*
X115396Y-99250D01*
X116810Y-98319D02*
X116641Y-98150D01*
X116471Y-98065D01*
X116217Y-98065D01*
X116048Y-98150D01*
X115879Y-98319D01*
X115794Y-98573D01*
X115794Y-98742D01*
X115879Y-98996D01*
X116048Y-99165D01*
X116217Y-99250D01*
X116471Y-99250D01*
X116641Y-99165D01*
X116810Y-98996D01*
X117191Y-98065D02*
X117191Y-99250D01*
X117191Y-98573D02*
X117275Y-98319D01*
X117445Y-98150D01*
X117614Y-98065D01*
X117868Y-98065D01*
X118452Y-98065D02*
X118283Y-98150D01*
X118113Y-98319D01*
X118029Y-98573D01*
X118029Y-98742D01*
X118113Y-98996D01*
X118283Y-99165D01*
X118452Y-99250D01*
X118706Y-99250D01*
X118875Y-99165D01*
X119045Y-98996D01*
X119129Y-98742D01*
X119129Y-98573D01*
X119045Y-98319D01*
X118875Y-98150D01*
X118706Y-98065D01*
X118452Y-98065D01*
X120534Y-98319D02*
X120365Y-98150D01*
X120196Y-98065D01*
X119942Y-98065D01*
X119773Y-98150D01*
X119603Y-98319D01*
X119519Y-98573D01*
X119519Y-98742D01*
X119603Y-98996D01*
X119773Y-99165D01*
X119942Y-99250D01*
X120196Y-99250D01*
X120365Y-99165D01*
X120534Y-98996D01*
X120915Y-97472D02*
X120915Y-99250D01*
X120915Y-98404D02*
X121169Y-98150D01*
X121339Y-98065D01*
X121592Y-98065D01*
X121762Y-98150D01*
X121846Y-98404D01*
X121846Y-99250D01*
X122481Y-97472D02*
X122566Y-97557D01*
X122651Y-97472D01*
X122566Y-97388D01*
X122481Y-97472D01*
X122566Y-98065D02*
X122566Y-99250D01*
X122964Y-98065D02*
X122964Y-99843D01*
X122964Y-98319D02*
X123133Y-98150D01*
X123302Y-98065D01*
X123556Y-98065D01*
X123726Y-98150D01*
X123895Y-98319D01*
X123980Y-98573D01*
X123980Y-98742D01*
X123895Y-98996D01*
X123726Y-99165D01*
X123556Y-99250D01*
X123302Y-99250D01*
X123133Y-99165D01*
X122964Y-98996D01*
X126350Y-97472D02*
X126350Y-99250D01*
X125757Y-97472D02*
X126942Y-97472D01*
X127154Y-98573D02*
X128170Y-98573D01*
X128170Y-98404D01*
X128085Y-98234D01*
X128000Y-98150D01*
X127831Y-98065D01*
X127577Y-98065D01*
X127408Y-98150D01*
X127239Y-98319D01*
X127154Y-98573D01*
X127154Y-98742D01*
X127239Y-98996D01*
X127408Y-99165D01*
X127577Y-99250D01*
X127831Y-99250D01*
X128000Y-99165D01*
X128170Y-98996D01*
X129566Y-98319D02*
X129397Y-98150D01*
X129228Y-98065D01*
X128974Y-98065D01*
X128805Y-98150D01*
X128635Y-98319D01*
X128551Y-98573D01*
X128551Y-98742D01*
X128635Y-98996D01*
X128805Y-99165D01*
X128974Y-99250D01*
X129228Y-99250D01*
X129397Y-99165D01*
X129566Y-98996D01*
X129947Y-97472D02*
X129947Y-99250D01*
X129947Y-98404D02*
X130201Y-98150D01*
X130371Y-98065D01*
X130624Y-98065D01*
X130794Y-98150D01*
X130878Y-98404D01*
X130878Y-99250D01*
X131344Y-98065D02*
X131344Y-99250D01*
X131344Y-98404D02*
X131598Y-98150D01*
X131767Y-98065D01*
X132021Y-98065D01*
X132190Y-98150D01*
X132275Y-98404D01*
X132275Y-99250D01*
X133164Y-98065D02*
X132995Y-98150D01*
X132825Y-98319D01*
X132741Y-98573D01*
X132741Y-98742D01*
X132825Y-98996D01*
X132995Y-99165D01*
X133164Y-99250D01*
X133418Y-99250D01*
X133587Y-99165D01*
X133756Y-98996D01*
X133841Y-98742D01*
X133841Y-98573D01*
X133756Y-98319D01*
X133587Y-98150D01*
X133418Y-98065D01*
X133164Y-98065D01*
X134231Y-97472D02*
X134231Y-99250D01*
X135026Y-98065D02*
X134857Y-98150D01*
X134688Y-98319D01*
X134603Y-98573D01*
X134603Y-98742D01*
X134688Y-98996D01*
X134857Y-99165D01*
X135026Y-99250D01*
X135280Y-99250D01*
X135449Y-99165D01*
X135619Y-98996D01*
X135703Y-98742D01*
X135703Y-98573D01*
X135619Y-98319D01*
X135449Y-98150D01*
X135280Y-98065D01*
X135026Y-98065D01*
X137109Y-98065D02*
X137109Y-99419D01*
X137024Y-99673D01*
X136939Y-99758D01*
X136770Y-99843D01*
X136516Y-99843D01*
X136347Y-99758D01*
X137109Y-98319D02*
X136939Y-98150D01*
X136770Y-98065D01*
X136516Y-98065D01*
X136347Y-98150D01*
X136177Y-98319D01*
X136093Y-98573D01*
X136093Y-98742D01*
X136177Y-98996D01*
X136347Y-99165D01*
X136516Y-99250D01*
X136770Y-99250D01*
X136939Y-99165D01*
X137109Y-98996D01*
X137667Y-98065D02*
X138175Y-99250D01*
X138683Y-98065D02*
X138175Y-99250D01*
X138006Y-99589D01*
X137837Y-99758D01*
X137667Y-99843D01*
X137583Y-99843D01*
X140376Y-97472D02*
X140376Y-99250D01*
X140748Y-98065D02*
X140748Y-99250D01*
X140748Y-98404D02*
X141002Y-98150D01*
X141172Y-98065D01*
X141426Y-98065D01*
X141595Y-98150D01*
X141680Y-98404D01*
X141680Y-99250D01*
X143161Y-98319D02*
X142992Y-98150D01*
X142822Y-98065D01*
X142568Y-98065D01*
X142399Y-98150D01*
X142230Y-98319D01*
X142145Y-98573D01*
X142145Y-98742D01*
X142230Y-98996D01*
X142399Y-99165D01*
X142568Y-99250D01*
X142822Y-99250D01*
X142992Y-99165D01*
X143161Y-98996D01*
X143626Y-99081D02*
X143542Y-99165D01*
X143626Y-99250D01*
X143711Y-99165D01*
X143626Y-99081D01*
X174581Y-92633D02*
X174510Y-92562D01*
X174581Y-92490D01*
X174653Y-92562D01*
X174653Y-92705D01*
X174581Y-92847D01*
X174510Y-92919D01*
X175410Y-92490D02*
X175196Y-92562D01*
X175053Y-92776D01*
X174981Y-93133D01*
X174981Y-93347D01*
X175053Y-93704D01*
X175196Y-93919D01*
X175410Y-93990D01*
X175553Y-93990D01*
X175767Y-93919D01*
X175910Y-93704D01*
X175981Y-93347D01*
X175981Y-93133D01*
X175910Y-92776D01*
X175767Y-92562D01*
X175553Y-92490D01*
X175410Y-92490D01*
X177031Y-92490D02*
X176317Y-93490D01*
X177388Y-93490D01*
X177031Y-92490D02*
X177031Y-93990D01*
X177652Y-93347D02*
X178938Y-93347D01*
X179380Y-92776D02*
X179523Y-92705D01*
X179737Y-92490D01*
X179737Y-93990D01*
X180552Y-92847D02*
X180552Y-92776D01*
X180623Y-92633D01*
X180694Y-92562D01*
X180837Y-92490D01*
X181123Y-92490D01*
X181266Y-92562D01*
X181337Y-92633D01*
X181409Y-92776D01*
X181409Y-92919D01*
X181337Y-93062D01*
X181194Y-93276D01*
X180480Y-93990D01*
X181480Y-93990D01*
X181887Y-92847D02*
X181887Y-92776D01*
X181958Y-92633D01*
X182030Y-92562D01*
X182173Y-92490D01*
X182458Y-92490D01*
X182601Y-92562D01*
X182673Y-92633D01*
X182744Y-92776D01*
X182744Y-92919D01*
X182673Y-93062D01*
X182530Y-93276D01*
X181816Y-93990D01*
X182815Y-93990D01*
X184079Y-92990D02*
X184008Y-93204D01*
X183865Y-93347D01*
X183651Y-93419D01*
X183579Y-93419D01*
X183365Y-93347D01*
X183222Y-93204D01*
X183151Y-92990D01*
X183151Y-92919D01*
X183222Y-92705D01*
X183365Y-92562D01*
X183579Y-92490D01*
X183651Y-92490D01*
X183865Y-92562D01*
X184008Y-92705D01*
X184079Y-92990D01*
X184079Y-93347D01*
X184008Y-93704D01*
X183865Y-93919D01*
X183651Y-93990D01*
X183508Y-93990D01*
X183294Y-93919D01*
X183222Y-93776D01*
X184558Y-92847D02*
X184558Y-92776D01*
X184629Y-92633D01*
X184701Y-92562D01*
X184844Y-92490D01*
X185129Y-92490D01*
X185272Y-92562D01*
X185343Y-92633D01*
X185415Y-92776D01*
X185415Y-92919D01*
X185343Y-93062D01*
X185201Y-93276D01*
X184486Y-93990D01*
X185486Y-93990D01*
X185822Y-93347D02*
X187107Y-93347D01*
X187550Y-92490D02*
X187550Y-93990D01*
X187550Y-92490D02*
X188193Y-92490D01*
X188407Y-92562D01*
X188478Y-92633D01*
X188550Y-92776D01*
X188550Y-92919D01*
X188478Y-93062D01*
X188407Y-93133D01*
X188193Y-93204D01*
X187550Y-93204D01*
X188050Y-93204D02*
X188550Y-93990D01*
X189742Y-92490D02*
X189028Y-92490D01*
X188957Y-93133D01*
X189028Y-93062D01*
X189243Y-92990D01*
X189457Y-92990D01*
X189671Y-93062D01*
X189814Y-93204D01*
X189885Y-93419D01*
X189885Y-93562D01*
X189814Y-93776D01*
X189671Y-93919D01*
X189457Y-93990D01*
X189243Y-93990D01*
X189028Y-93919D01*
X188957Y-93847D01*
X188885Y-93704D01*
X190292Y-93847D02*
X190221Y-93919D01*
X190292Y-93990D01*
X190364Y-93919D01*
X190292Y-93847D01*
X191763Y-92847D02*
X191692Y-92705D01*
X191549Y-92562D01*
X191406Y-92490D01*
X191121Y-92490D01*
X190978Y-92562D01*
X190835Y-92705D01*
X190764Y-92847D01*
X190692Y-93062D01*
X190692Y-93419D01*
X190764Y-93633D01*
X190835Y-93776D01*
X190978Y-93919D01*
X191121Y-93990D01*
X191406Y-93990D01*
X191549Y-93919D01*
X191692Y-93776D01*
X191763Y-93633D01*
X191763Y-93419D01*
X191406Y-93419D02*
X191763Y-93419D01*
X192106Y-92490D02*
X192106Y-93990D01*
X192106Y-92490D02*
X192606Y-92490D01*
X192820Y-92562D01*
X192963Y-92705D01*
X193035Y-92847D01*
X193106Y-93062D01*
X193106Y-93419D01*
X193035Y-93633D01*
X192963Y-93776D01*
X192820Y-93919D01*
X192606Y-93990D01*
X192106Y-93990D01*
X193442Y-92776D02*
X193584Y-92705D01*
X193799Y-92490D01*
X193799Y-93990D01*
X194613Y-92633D02*
X194541Y-92562D01*
X194613Y-92490D01*
X194684Y-92562D01*
X194684Y-92705D01*
X194613Y-92847D01*
X194541Y-92919D01*
X201092Y-107188D02*
X201007Y-107019D01*
X200753Y-106934D01*
X200584Y-106934D01*
X200330Y-107019D01*
X200160Y-107273D01*
X200076Y-107696D01*
X200076Y-108119D01*
X200160Y-108458D01*
X200330Y-108627D01*
X200584Y-108712D01*
X200668Y-108712D01*
X200922Y-108627D01*
X201092Y-108458D01*
X201176Y-108204D01*
X201176Y-108119D01*
X201092Y-107866D01*
X200922Y-107696D01*
X200668Y-107612D01*
X200584Y-107612D01*
X200330Y-107696D01*
X200160Y-107866D01*
X200076Y-108119D01*
X137465Y-106934D02*
X136618Y-106934D01*
X136533Y-107696D01*
X136618Y-107612D01*
X136872Y-107527D01*
X137126Y-107527D01*
X137380Y-107612D01*
X137549Y-107781D01*
X137634Y-108035D01*
X137634Y-108204D01*
X137549Y-108458D01*
X137380Y-108627D01*
X137126Y-108712D01*
X136872Y-108712D01*
X136618Y-108627D01*
X136533Y-108543D01*
X136449Y-108373D01*
X73821Y-106934D02*
X72974Y-108119D01*
X74244Y-108119D01*
X73821Y-106934D02*
X73821Y-108712D01*
X9474Y-106934D02*
X10406Y-106934D01*
X9898Y-107612D01*
X10152Y-107612D01*
X10321Y-107696D01*
X10406Y-107781D01*
X10490Y-108035D01*
X10490Y-108204D01*
X10406Y-108458D01*
X10236Y-108627D01*
X9982Y-108712D01*
X9728Y-108712D01*
X9474Y-108627D01*
X9390Y-108543D01*
X9305Y-108373D01*
X-53840Y-107358D02*
X-53840Y-107273D01*
X-53755Y-107104D01*
X-53670Y-107019D01*
X-53501Y-106934D01*
X-53162Y-106934D01*
X-52993Y-107019D01*
X-52908Y-107104D01*
X-52824Y-107273D01*
X-52824Y-107442D01*
X-52908Y-107612D01*
X-53078Y-107866D01*
X-53924Y-108712D01*
X-52739Y-108712D01*
X-117314Y-107273D02*
X-117145Y-107188D01*
X-116891Y-106934D01*
X-116891Y-108712D01*
X-146685Y-80722D02*
X-146685Y-82499D01*
X-146685Y-80722D02*
X-146092Y-80722D01*
X-145839Y-80806D01*
X-145669Y-80976D01*
X-145585Y-81145D01*
X-145500Y-81399D01*
X-145500Y-81822D01*
X-145585Y-82076D01*
X-145669Y-82245D01*
X-145839Y-82415D01*
X-146092Y-82499D01*
X-146685Y-82499D01*
X-145415Y-20947D02*
X-145500Y-20778D01*
X-145669Y-20608D01*
X-145839Y-20524D01*
X-146177Y-20524D01*
X-146346Y-20608D01*
X-146516Y-20778D01*
X-146600Y-20947D01*
X-146685Y-21201D01*
X-146685Y-21624D01*
X-146600Y-21878D01*
X-146516Y-22047D01*
X-146346Y-22217D01*
X-146177Y-22301D01*
X-145839Y-22301D01*
X-145669Y-22217D01*
X-145500Y-22047D01*
X-145415Y-21878D01*
X-146685Y39801D02*
X-146685Y38024D01*
X-146685Y39801D02*
X-145923Y39801D01*
X-145669Y39717D01*
X-145585Y39632D01*
X-145500Y39463D01*
X-145500Y39294D01*
X-145585Y39124D01*
X-145669Y39040D01*
X-145923Y38955D01*
X-146685Y38955D02*
X-145923Y38955D01*
X-145669Y38870D01*
X-145585Y38786D01*
X-145500Y38616D01*
X-145500Y38362D01*
X-145585Y38193D01*
X-145669Y38108D01*
X-145923Y38024D01*
X-146685Y38024D01*
X-145331Y98476D02*
X-146008Y100253D01*
X-146685Y98476D01*
X-146431Y99068D02*
X-145585Y99068D01*
X229235Y-80722D02*
X229235Y-82499D01*
X229235Y-80722D02*
X229828Y-80722D01*
X230081Y-80806D01*
X230251Y-80976D01*
X230335Y-81145D01*
X230420Y-81399D01*
X230420Y-81822D01*
X230335Y-82076D01*
X230251Y-82245D01*
X230081Y-82415D01*
X229828Y-82499D01*
X229235Y-82499D01*
X230505Y-20947D02*
X230420Y-20778D01*
X230251Y-20608D01*
X230081Y-20524D01*
X229743Y-20524D01*
X229574Y-20608D01*
X229404Y-20778D01*
X229320Y-20947D01*
X229235Y-21201D01*
X229235Y-21624D01*
X229320Y-21878D01*
X229404Y-22047D01*
X229574Y-22217D01*
X229743Y-22301D01*
X230081Y-22301D01*
X230251Y-22217D01*
X230420Y-22047D01*
X230505Y-21878D01*
X229235Y39801D02*
X229235Y38024D01*
X229235Y39801D02*
X229997Y39801D01*
X230251Y39717D01*
X230335Y39632D01*
X230420Y39463D01*
X230420Y39294D01*
X230335Y39124D01*
X230251Y39040D01*
X229997Y38955D01*
X229235Y38955D02*
X229997Y38955D01*
X230251Y38870D01*
X230335Y38786D01*
X230420Y38616D01*
X230420Y38362D01*
X230335Y38193D01*
X230251Y38108D01*
X229997Y38024D01*
X229235Y38024D01*
X230589Y98476D02*
X229912Y100253D01*
X229235Y98476D01*
X229489Y99068D02*
X230335Y99068D01*
X201092Y129032D02*
X201007Y129201D01*
X200753Y129286D01*
X200584Y129286D01*
X200330Y129201D01*
X200160Y128947D01*
X200076Y128524D01*
X200076Y128101D01*
X200160Y127762D01*
X200330Y127593D01*
X200584Y127508D01*
X200668Y127508D01*
X200922Y127593D01*
X201092Y127762D01*
X201176Y128016D01*
X201176Y128101D01*
X201092Y128355D01*
X200922Y128524D01*
X200668Y128608D01*
X200584Y128608D01*
X200330Y128524D01*
X200160Y128355D01*
X200076Y128101D01*
X137465Y129286D02*
X136618Y129286D01*
X136533Y128524D01*
X136618Y128608D01*
X136872Y128693D01*
X137126Y128693D01*
X137380Y128608D01*
X137549Y128439D01*
X137634Y128185D01*
X137634Y128016D01*
X137549Y127762D01*
X137380Y127593D01*
X137126Y127508D01*
X136872Y127508D01*
X136618Y127593D01*
X136533Y127677D01*
X136449Y127847D01*
X73821Y129286D02*
X72974Y128101D01*
X74244Y128101D01*
X73821Y129286D02*
X73821Y127508D01*
X9474Y129286D02*
X10406Y129286D01*
X9898Y128608D01*
X10152Y128608D01*
X10321Y128524D01*
X10406Y128439D01*
X10490Y128185D01*
X10490Y128016D01*
X10406Y127762D01*
X10236Y127593D01*
X9982Y127508D01*
X9728Y127508D01*
X9474Y127593D01*
X9390Y127677D01*
X9305Y127847D01*
X-53840Y128862D02*
X-53840Y128947D01*
X-53755Y129116D01*
X-53670Y129201D01*
X-53501Y129286D01*
X-53162Y129286D01*
X-52993Y129201D01*
X-52908Y129116D01*
X-52824Y128947D01*
X-52824Y128778D01*
X-52908Y128608D01*
X-53078Y128355D01*
X-53924Y127508D01*
X-52739Y127508D01*
X-117314Y128947D02*
X-117145Y129032D01*
X-116891Y129286D01*
X-116891Y127508D01*
X210045Y-103063D02*
X209331Y-103063D01*
X209259Y-103705D01*
X209331Y-103634D01*
X209545Y-103563D01*
X209759Y-103563D01*
X209973Y-103634D01*
X210116Y-103777D01*
X210188Y-103991D01*
X210188Y-104134D01*
X210116Y-104348D01*
X209973Y-104491D01*
X209759Y-104562D01*
X209545Y-104562D01*
X209331Y-104491D01*
X209259Y-104419D01*
X209188Y-104277D01*
D18*
X146510Y-102192D02*
X147003Y-102192D01*
X147167Y-102138D01*
X147222Y-102083D01*
X147277Y-101973D01*
X147277Y-101809D01*
X147222Y-101700D01*
X147167Y-101645D01*
X147003Y-101590D01*
X146510Y-101590D01*
X146510Y-102740D01*
X148355Y-101864D02*
X148300Y-101754D01*
X148191Y-101645D01*
X148081Y-101590D01*
X147862Y-101590D01*
X147753Y-101645D01*
X147643Y-101754D01*
X147589Y-101864D01*
X147534Y-102028D01*
X147534Y-102302D01*
X147589Y-102466D01*
X147643Y-102576D01*
X147753Y-102685D01*
X147862Y-102740D01*
X148081Y-102740D01*
X148191Y-102685D01*
X148300Y-102576D01*
X148355Y-102466D01*
X148678Y-101590D02*
X148678Y-102740D01*
X148678Y-101590D02*
X149171Y-101590D01*
X149335Y-101645D01*
X149390Y-101700D01*
X149445Y-101809D01*
X149445Y-101919D01*
X149390Y-102028D01*
X149335Y-102083D01*
X149171Y-102138D01*
X148678Y-102138D02*
X149171Y-102138D01*
X149335Y-102192D01*
X149390Y-102247D01*
X149445Y-102357D01*
X149445Y-102521D01*
X149390Y-102630D01*
X149335Y-102685D01*
X149171Y-102740D01*
X148678Y-102740D01*
X150605Y-101590D02*
X150605Y-102740D01*
X150605Y-101590D02*
X151317Y-101590D01*
X150605Y-102138D02*
X151043Y-102138D01*
X151448Y-101590D02*
X151448Y-102740D01*
X151689Y-101590D02*
X151689Y-102740D01*
X152346Y-102740D01*
X153184Y-101590D02*
X152472Y-101590D01*
X152472Y-102740D01*
X153184Y-102740D01*
X152472Y-102138D02*
X152910Y-102138D01*
X154279Y-101590D02*
X154279Y-102740D01*
X154279Y-101590D02*
X155046Y-102740D01*
X155046Y-101590D02*
X155046Y-102740D01*
X156239Y-102740D02*
X155801Y-101590D01*
X155363Y-102740D01*
X155527Y-102357D02*
X156075Y-102357D01*
X156507Y-101590D02*
X156507Y-102740D01*
X156507Y-101590D02*
X156945Y-102740D01*
X157383Y-101590D02*
X156945Y-102740D01*
X157383Y-101590D02*
X157383Y-102740D01*
X158424Y-101590D02*
X157712Y-101590D01*
X157712Y-102740D01*
X158424Y-102740D01*
X157712Y-102138D02*
X158150Y-102138D01*
X158670Y-101973D02*
X158615Y-102028D01*
X158670Y-102083D01*
X158725Y-102028D01*
X158670Y-101973D01*
X158670Y-102630D02*
X158615Y-102685D01*
X158670Y-102740D01*
X158725Y-102685D01*
X158670Y-102630D01*
X146510Y-103740D02*
X146510Y-104740D01*
X146510Y-103740D02*
X146891Y-104740D01*
X147272Y-103740D02*
X146891Y-104740D01*
X147272Y-103740D02*
X147272Y-104740D01*
X147891Y-103740D02*
X147891Y-104740D01*
X147557Y-103740D02*
X148224Y-103740D01*
X149057Y-103978D02*
X149009Y-103883D01*
X148914Y-103788D01*
X148819Y-103740D01*
X148629Y-103740D01*
X148533Y-103788D01*
X148438Y-103883D01*
X148391Y-103978D01*
X148343Y-104121D01*
X148343Y-104359D01*
X148391Y-104502D01*
X148438Y-104597D01*
X148533Y-104692D01*
X148629Y-104740D01*
X148819Y-104740D01*
X148914Y-104692D01*
X149009Y-104597D01*
X149057Y-104502D01*
X149338Y-103740D02*
X149338Y-104740D01*
X150005Y-103740D02*
X150005Y-104740D01*
X149338Y-104216D02*
X150005Y-104216D01*
X150900Y-104073D02*
X150852Y-104216D01*
X150757Y-104312D01*
X150614Y-104359D01*
X150566Y-104359D01*
X150423Y-104312D01*
X150328Y-104216D01*
X150281Y-104073D01*
X150281Y-104026D01*
X150328Y-103883D01*
X150423Y-103788D01*
X150566Y-103740D01*
X150614Y-103740D01*
X150757Y-103788D01*
X150852Y-103883D01*
X150900Y-104073D01*
X150900Y-104312D01*
X150852Y-104550D01*
X150757Y-104692D01*
X150614Y-104740D01*
X150519Y-104740D01*
X150376Y-104692D01*
X150328Y-104597D01*
X151457Y-103740D02*
X151314Y-103788D01*
X151219Y-103931D01*
X151171Y-104169D01*
X151171Y-104312D01*
X151219Y-104550D01*
X151314Y-104692D01*
X151457Y-104740D01*
X151552Y-104740D01*
X151695Y-104692D01*
X151790Y-104550D01*
X151837Y-104312D01*
X151837Y-104169D01*
X151790Y-103931D01*
X151695Y-103788D01*
X151552Y-103740D01*
X151457Y-103740D01*
X152061Y-103931D02*
X152156Y-103883D01*
X152299Y-103740D01*
X152299Y-104740D01*
X153080Y-103740D02*
X152937Y-103788D01*
X152842Y-103931D01*
X152794Y-104169D01*
X152794Y-104312D01*
X152842Y-104550D01*
X152937Y-104692D01*
X153080Y-104740D01*
X153175Y-104740D01*
X153318Y-104692D01*
X153413Y-104550D01*
X153461Y-104312D01*
X153461Y-104169D01*
X153413Y-103931D01*
X153318Y-103788D01*
X153175Y-103740D01*
X153080Y-103740D01*
X153685Y-105073D02*
X154446Y-105073D01*
X155194Y-103740D02*
X154575Y-103740D01*
X154575Y-104740D01*
X155194Y-104740D01*
X154575Y-104216D02*
X154956Y-104216D01*
X155360Y-104073D02*
X155646Y-104740D01*
X155932Y-104073D02*
X155646Y-104740D01*
X156665Y-104073D02*
X156665Y-104740D01*
X156665Y-104216D02*
X156570Y-104121D01*
X156475Y-104073D01*
X156332Y-104073D01*
X156236Y-104121D01*
X156141Y-104216D01*
X156094Y-104359D01*
X156094Y-104454D01*
X156141Y-104597D01*
X156236Y-104692D01*
X156332Y-104740D01*
X156475Y-104740D01*
X156570Y-104692D01*
X156665Y-104597D01*
X156932Y-103740D02*
X156932Y-104740D01*
X157141Y-104073D02*
X157141Y-104550D01*
X157189Y-104692D01*
X157284Y-104740D01*
X157427Y-104740D01*
X157522Y-104692D01*
X157665Y-104550D01*
X157665Y-104073D02*
X157665Y-104740D01*
X158498Y-104073D02*
X158498Y-104740D01*
X158498Y-104216D02*
X158403Y-104121D01*
X158307Y-104073D01*
X158165Y-104073D01*
X158069Y-104121D01*
X157974Y-104216D01*
X157927Y-104359D01*
X157927Y-104454D01*
X157974Y-104597D01*
X158069Y-104692D01*
X158165Y-104740D01*
X158307Y-104740D01*
X158403Y-104692D01*
X158498Y-104597D01*
X158907Y-103740D02*
X158907Y-104550D01*
X158955Y-104692D01*
X159050Y-104740D01*
X159145Y-104740D01*
X158765Y-104073D02*
X159098Y-104073D01*
X159383Y-103740D02*
X159431Y-103788D01*
X159479Y-103740D01*
X159431Y-103693D01*
X159383Y-103740D01*
X159431Y-104073D02*
X159431Y-104740D01*
X159893Y-104073D02*
X159798Y-104121D01*
X159702Y-104216D01*
X159655Y-104359D01*
X159655Y-104454D01*
X159702Y-104597D01*
X159798Y-104692D01*
X159893Y-104740D01*
X160036Y-104740D01*
X160131Y-104692D01*
X160226Y-104597D01*
X160274Y-104454D01*
X160274Y-104359D01*
X160226Y-104216D01*
X160131Y-104121D01*
X160036Y-104073D01*
X159893Y-104073D01*
X160493Y-104073D02*
X160493Y-104740D01*
X160493Y-104264D02*
X160636Y-104121D01*
X160731Y-104073D01*
X160874Y-104073D01*
X160969Y-104121D01*
X161016Y-104264D01*
X161016Y-104740D01*
X161278Y-105073D02*
X162040Y-105073D01*
X162169Y-103740D02*
X162169Y-104740D01*
X162835Y-103740D02*
X162169Y-104407D01*
X162407Y-104169D02*
X162835Y-104740D01*
X163154Y-103740D02*
X163202Y-103788D01*
X163249Y-103740D01*
X163202Y-103693D01*
X163154Y-103740D01*
X163202Y-104073D02*
X163202Y-104740D01*
X163568Y-103740D02*
X163568Y-104550D01*
X163616Y-104692D01*
X163711Y-104740D01*
X163806Y-104740D01*
X163425Y-104073D02*
X163759Y-104073D01*
X163997Y-104645D02*
X163949Y-104692D01*
X163997Y-104740D01*
X164044Y-104692D01*
X163997Y-104645D01*
X164263Y-104264D02*
X164692Y-104264D01*
X164835Y-104216D01*
X164882Y-104169D01*
X164930Y-104073D01*
X164930Y-103931D01*
X164882Y-103835D01*
X164835Y-103788D01*
X164692Y-103740D01*
X164263Y-103740D01*
X164263Y-104740D01*
X165725Y-104216D02*
X165630Y-104121D01*
X165535Y-104073D01*
X165392Y-104073D01*
X165296Y-104121D01*
X165201Y-104216D01*
X165154Y-104359D01*
X165154Y-104454D01*
X165201Y-104597D01*
X165296Y-104692D01*
X165392Y-104740D01*
X165535Y-104740D01*
X165630Y-104692D01*
X165725Y-104597D01*
X165939Y-103740D02*
X165939Y-104740D01*
X165939Y-104216D02*
X166034Y-104121D01*
X166130Y-104073D01*
X166272Y-104073D01*
X166368Y-104121D01*
X166463Y-104216D01*
X166510Y-104359D01*
X166510Y-104454D01*
X166463Y-104597D01*
X166368Y-104692D01*
X166272Y-104740D01*
X166130Y-104740D01*
X166034Y-104692D01*
X165939Y-104597D01*
X166725Y-103740D02*
X166725Y-104740D01*
X166725Y-103740D02*
X167058Y-103740D01*
X167201Y-103788D01*
X167296Y-103883D01*
X167344Y-103978D01*
X167391Y-104121D01*
X167391Y-104359D01*
X167344Y-104502D01*
X167296Y-104597D01*
X167201Y-104692D01*
X167058Y-104740D01*
X166725Y-104740D01*
X167853Y-104073D02*
X167758Y-104121D01*
X167663Y-104216D01*
X167615Y-104359D01*
X167615Y-104454D01*
X167663Y-104597D01*
X167758Y-104692D01*
X167853Y-104740D01*
X167996Y-104740D01*
X168091Y-104692D01*
X168186Y-104597D01*
X168234Y-104454D01*
X168234Y-104359D01*
X168186Y-104216D01*
X168091Y-104121D01*
X167996Y-104073D01*
X167853Y-104073D01*
X169024Y-104216D02*
X168929Y-104121D01*
X168834Y-104073D01*
X168691Y-104073D01*
X168596Y-104121D01*
X168501Y-104216D01*
X168453Y-104359D01*
X168453Y-104454D01*
X168501Y-104597D01*
X168596Y-104692D01*
X168691Y-104740D01*
X168834Y-104740D01*
X168929Y-104692D01*
X169024Y-104597D01*
X146510Y-90442D02*
X147003Y-90442D01*
X147167Y-90388D01*
X147222Y-90333D01*
X147277Y-90223D01*
X147277Y-90059D01*
X147222Y-89950D01*
X147167Y-89895D01*
X147003Y-89840D01*
X146510Y-89840D01*
X146510Y-90990D01*
X148355Y-90114D02*
X148300Y-90004D01*
X148191Y-89895D01*
X148081Y-89840D01*
X147862Y-89840D01*
X147753Y-89895D01*
X147643Y-90004D01*
X147589Y-90114D01*
X147534Y-90278D01*
X147534Y-90552D01*
X147589Y-90716D01*
X147643Y-90826D01*
X147753Y-90935D01*
X147862Y-90990D01*
X148081Y-90990D01*
X148191Y-90935D01*
X148300Y-90826D01*
X148355Y-90716D01*
X148678Y-89840D02*
X148678Y-90990D01*
X148678Y-89840D02*
X149171Y-89840D01*
X149335Y-89895D01*
X149390Y-89950D01*
X149445Y-90059D01*
X149445Y-90169D01*
X149390Y-90278D01*
X149335Y-90333D01*
X149171Y-90388D01*
X148678Y-90388D02*
X149171Y-90388D01*
X149335Y-90442D01*
X149390Y-90497D01*
X149445Y-90607D01*
X149445Y-90771D01*
X149390Y-90880D01*
X149335Y-90935D01*
X149171Y-90990D01*
X148678Y-90990D01*
X150605Y-89840D02*
X150605Y-90990D01*
X151262Y-90990D01*
X152045Y-90223D02*
X152045Y-90990D01*
X152045Y-90388D02*
X151936Y-90278D01*
X151826Y-90223D01*
X151662Y-90223D01*
X151553Y-90278D01*
X151443Y-90388D01*
X151388Y-90552D01*
X151388Y-90661D01*
X151443Y-90826D01*
X151553Y-90935D01*
X151662Y-90990D01*
X151826Y-90990D01*
X151936Y-90935D01*
X152045Y-90826D01*
X152407Y-90223D02*
X152735Y-90990D01*
X153064Y-90223D02*
X152735Y-90990D01*
X152626Y-91209D01*
X152516Y-91318D01*
X152407Y-91373D01*
X152352Y-91373D01*
X153529Y-90223D02*
X153419Y-90278D01*
X153310Y-90388D01*
X153255Y-90552D01*
X153255Y-90661D01*
X153310Y-90826D01*
X153419Y-90935D01*
X153529Y-90990D01*
X153693Y-90990D01*
X153803Y-90935D01*
X153912Y-90826D01*
X153967Y-90661D01*
X153967Y-90552D01*
X153912Y-90388D01*
X153803Y-90278D01*
X153693Y-90223D01*
X153529Y-90223D01*
X154219Y-90223D02*
X154219Y-90771D01*
X154274Y-90935D01*
X154383Y-90990D01*
X154547Y-90990D01*
X154657Y-90935D01*
X154821Y-90771D01*
X154821Y-90223D02*
X154821Y-90990D01*
X155286Y-89840D02*
X155286Y-90771D01*
X155341Y-90935D01*
X155451Y-90990D01*
X155560Y-90990D01*
X155122Y-90223D02*
X155505Y-90223D01*
X157449Y-90114D02*
X157394Y-90004D01*
X157285Y-89895D01*
X157175Y-89840D01*
X156956Y-89840D01*
X156847Y-89895D01*
X156737Y-90004D01*
X156683Y-90114D01*
X156628Y-90278D01*
X156628Y-90552D01*
X156683Y-90716D01*
X156737Y-90826D01*
X156847Y-90935D01*
X156956Y-90990D01*
X157175Y-90990D01*
X157285Y-90935D01*
X157394Y-90826D01*
X157449Y-90716D01*
X158046Y-90223D02*
X157936Y-90278D01*
X157827Y-90388D01*
X157772Y-90552D01*
X157772Y-90661D01*
X157827Y-90826D01*
X157936Y-90935D01*
X158046Y-90990D01*
X158210Y-90990D01*
X158320Y-90935D01*
X158429Y-90826D01*
X158484Y-90661D01*
X158484Y-90552D01*
X158429Y-90388D01*
X158320Y-90278D01*
X158210Y-90223D01*
X158046Y-90223D01*
X158736Y-90223D02*
X158736Y-90990D01*
X158736Y-90442D02*
X158900Y-90278D01*
X159009Y-90223D01*
X159174Y-90223D01*
X159283Y-90278D01*
X159338Y-90442D01*
X159338Y-90990D01*
X159803Y-89840D02*
X159803Y-90771D01*
X159858Y-90935D01*
X159968Y-90990D01*
X160077Y-90990D01*
X159639Y-90223D02*
X160022Y-90223D01*
X160898Y-90223D02*
X160898Y-90990D01*
X160898Y-90388D02*
X160789Y-90278D01*
X160679Y-90223D01*
X160515Y-90223D01*
X160406Y-90278D01*
X160296Y-90388D01*
X160241Y-90552D01*
X160241Y-90661D01*
X160296Y-90826D01*
X160406Y-90935D01*
X160515Y-90990D01*
X160679Y-90990D01*
X160789Y-90935D01*
X160898Y-90826D01*
X161862Y-90388D02*
X161752Y-90278D01*
X161643Y-90223D01*
X161479Y-90223D01*
X161369Y-90278D01*
X161260Y-90388D01*
X161205Y-90552D01*
X161205Y-90661D01*
X161260Y-90826D01*
X161369Y-90935D01*
X161479Y-90990D01*
X161643Y-90990D01*
X161752Y-90935D01*
X161862Y-90826D01*
X162273Y-89840D02*
X162273Y-90771D01*
X162327Y-90935D01*
X162437Y-90990D01*
X162546Y-90990D01*
X162108Y-90223D02*
X162492Y-90223D01*
X162765Y-90223D02*
X162711Y-90278D01*
X162765Y-90333D01*
X162820Y-90278D01*
X162765Y-90223D01*
X162765Y-90880D02*
X162711Y-90935D01*
X162765Y-90990D01*
X162820Y-90935D01*
X162765Y-90880D01*
X146510Y-96442D02*
X147003Y-96442D01*
X147167Y-96388D01*
X147222Y-96333D01*
X147277Y-96223D01*
X147277Y-96059D01*
X147222Y-95950D01*
X147167Y-95895D01*
X147003Y-95840D01*
X146510Y-95840D01*
X146510Y-96990D01*
X147534Y-96223D02*
X147534Y-96990D01*
X147534Y-96552D02*
X147589Y-96388D01*
X147698Y-96278D01*
X147808Y-96223D01*
X147972Y-96223D01*
X148350Y-96223D02*
X148240Y-96278D01*
X148131Y-96388D01*
X148076Y-96552D01*
X148076Y-96661D01*
X148131Y-96826D01*
X148240Y-96935D01*
X148350Y-96990D01*
X148514Y-96990D01*
X148623Y-96935D01*
X148733Y-96826D01*
X148788Y-96661D01*
X148788Y-96552D01*
X148733Y-96388D01*
X148623Y-96278D01*
X148514Y-96223D01*
X148350Y-96223D01*
X149258Y-95840D02*
X149313Y-95895D01*
X149368Y-95840D01*
X149313Y-95785D01*
X149258Y-95840D01*
X149313Y-96223D02*
X149313Y-97154D01*
X149258Y-97318D01*
X149149Y-97373D01*
X149039Y-97373D01*
X149581Y-96552D02*
X150238Y-96552D01*
X150238Y-96442D01*
X150184Y-96333D01*
X150129Y-96278D01*
X150020Y-96223D01*
X149855Y-96223D01*
X149746Y-96278D01*
X149636Y-96388D01*
X149581Y-96552D01*
X149581Y-96661D01*
X149636Y-96826D01*
X149746Y-96935D01*
X149855Y-96990D01*
X150020Y-96990D01*
X150129Y-96935D01*
X150238Y-96826D01*
X151142Y-96388D02*
X151032Y-96278D01*
X150923Y-96223D01*
X150759Y-96223D01*
X150649Y-96278D01*
X150540Y-96388D01*
X150485Y-96552D01*
X150485Y-96661D01*
X150540Y-96826D01*
X150649Y-96935D01*
X150759Y-96990D01*
X150923Y-96990D01*
X151032Y-96935D01*
X151142Y-96826D01*
X151553Y-95840D02*
X151553Y-96771D01*
X151607Y-96935D01*
X151717Y-96990D01*
X151826Y-96990D01*
X151388Y-96223D02*
X151771Y-96223D01*
X153222Y-95840D02*
X153113Y-95895D01*
X153003Y-96004D01*
X152949Y-96114D01*
X152894Y-96278D01*
X152894Y-96552D01*
X152949Y-96716D01*
X153003Y-96826D01*
X153113Y-96935D01*
X153222Y-96990D01*
X153441Y-96990D01*
X153551Y-96935D01*
X153660Y-96826D01*
X153715Y-96716D01*
X153770Y-96552D01*
X153770Y-96278D01*
X153715Y-96114D01*
X153660Y-96004D01*
X153551Y-95895D01*
X153441Y-95840D01*
X153222Y-95840D01*
X154038Y-96223D02*
X154257Y-96990D01*
X154476Y-96223D02*
X154257Y-96990D01*
X154476Y-96223D02*
X154695Y-96990D01*
X154914Y-96223D02*
X154695Y-96990D01*
X155182Y-96223D02*
X155182Y-96990D01*
X155182Y-96442D02*
X155347Y-96278D01*
X155456Y-96223D01*
X155620Y-96223D01*
X155730Y-96278D01*
X155785Y-96442D01*
X155785Y-96990D01*
X156086Y-96552D02*
X156743Y-96552D01*
X156743Y-96442D01*
X156688Y-96333D01*
X156633Y-96278D01*
X156524Y-96223D01*
X156360Y-96223D01*
X156250Y-96278D01*
X156141Y-96388D01*
X156086Y-96552D01*
X156086Y-96661D01*
X156141Y-96826D01*
X156250Y-96935D01*
X156360Y-96990D01*
X156524Y-96990D01*
X156633Y-96935D01*
X156743Y-96826D01*
X156989Y-96223D02*
X156989Y-96990D01*
X156989Y-96552D02*
X157044Y-96388D01*
X157153Y-96278D01*
X157263Y-96223D01*
X157427Y-96223D01*
X157586Y-96223D02*
X157531Y-96278D01*
X157586Y-96333D01*
X157641Y-96278D01*
X157586Y-96223D01*
X157586Y-96880D02*
X157531Y-96935D01*
X157586Y-96990D01*
X157641Y-96935D01*
X157586Y-96880D01*
X174510Y-96442D02*
X175003Y-96442D01*
X175167Y-96388D01*
X175222Y-96333D01*
X175277Y-96223D01*
X175277Y-96059D01*
X175222Y-95950D01*
X175167Y-95895D01*
X175003Y-95840D01*
X174510Y-95840D01*
X174510Y-96990D01*
X176355Y-96114D02*
X176300Y-96004D01*
X176191Y-95895D01*
X176081Y-95840D01*
X175862Y-95840D01*
X175753Y-95895D01*
X175643Y-96004D01*
X175589Y-96114D01*
X175534Y-96278D01*
X175534Y-96552D01*
X175589Y-96716D01*
X175643Y-96826D01*
X175753Y-96935D01*
X175862Y-96990D01*
X176081Y-96990D01*
X176191Y-96935D01*
X176300Y-96826D01*
X176355Y-96716D01*
X176678Y-95840D02*
X176678Y-96990D01*
X176678Y-95840D02*
X177171Y-95840D01*
X177335Y-95895D01*
X177390Y-95950D01*
X177445Y-96059D01*
X177445Y-96169D01*
X177390Y-96278D01*
X177335Y-96333D01*
X177171Y-96388D01*
X176678Y-96388D02*
X177171Y-96388D01*
X177335Y-96442D01*
X177390Y-96497D01*
X177445Y-96607D01*
X177445Y-96771D01*
X177390Y-96880D01*
X177335Y-96935D01*
X177171Y-96990D01*
X176678Y-96990D01*
X178605Y-95840D02*
X178605Y-96990D01*
X178605Y-95840D02*
X179372Y-96990D01*
X179372Y-95840D02*
X179372Y-96990D01*
X179689Y-95840D02*
X179689Y-96661D01*
X179744Y-96826D01*
X179854Y-96935D01*
X180018Y-96990D01*
X180127Y-96990D01*
X180292Y-96935D01*
X180401Y-96826D01*
X180456Y-96661D01*
X180456Y-95840D01*
X180773Y-95840D02*
X180773Y-96990D01*
X180773Y-95840D02*
X181211Y-96990D01*
X181649Y-95840D02*
X181211Y-96990D01*
X181649Y-95840D02*
X181649Y-96990D01*
X181978Y-95840D02*
X181978Y-96990D01*
X181978Y-95840D02*
X182471Y-95840D01*
X182635Y-95895D01*
X182690Y-95950D01*
X182744Y-96059D01*
X182744Y-96169D01*
X182690Y-96278D01*
X182635Y-96333D01*
X182471Y-96388D01*
X181978Y-96388D02*
X182471Y-96388D01*
X182635Y-96442D01*
X182690Y-96497D01*
X182744Y-96607D01*
X182744Y-96771D01*
X182690Y-96880D01*
X182635Y-96935D01*
X182471Y-96990D01*
X181978Y-96990D01*
X183714Y-95840D02*
X183002Y-95840D01*
X183002Y-96990D01*
X183714Y-96990D01*
X183002Y-96388D02*
X183440Y-96388D01*
X183905Y-95840D02*
X183905Y-96990D01*
X183905Y-95840D02*
X184398Y-95840D01*
X184562Y-95895D01*
X184617Y-95950D01*
X184672Y-96059D01*
X184672Y-96169D01*
X184617Y-96278D01*
X184562Y-96333D01*
X184398Y-96388D01*
X183905Y-96388D01*
X184288Y-96388D02*
X184672Y-96990D01*
X184984Y-96223D02*
X184929Y-96278D01*
X184984Y-96333D01*
X185038Y-96278D01*
X184984Y-96223D01*
X184984Y-96880D02*
X184929Y-96935D01*
X184984Y-96990D01*
X185038Y-96935D01*
X184984Y-96880D01*
X175331Y-90114D02*
X175277Y-90004D01*
X175167Y-89895D01*
X175058Y-89840D01*
X174839Y-89840D01*
X174729Y-89895D01*
X174620Y-90004D01*
X174565Y-90114D01*
X174510Y-90278D01*
X174510Y-90552D01*
X174565Y-90716D01*
X174620Y-90826D01*
X174729Y-90935D01*
X174839Y-90990D01*
X175058Y-90990D01*
X175167Y-90935D01*
X175277Y-90826D01*
X175331Y-90716D01*
X175331Y-90552D01*
X175058Y-90552D02*
X175331Y-90552D01*
X176306Y-89840D02*
X175594Y-89840D01*
X175594Y-90990D01*
X176306Y-90990D01*
X175594Y-90388D02*
X176032Y-90388D01*
X176497Y-89840D02*
X176497Y-90990D01*
X176497Y-89840D02*
X176990Y-89840D01*
X177154Y-89895D01*
X177209Y-89950D01*
X177264Y-90059D01*
X177264Y-90169D01*
X177209Y-90278D01*
X177154Y-90333D01*
X176990Y-90388D01*
X176497Y-90388D01*
X176881Y-90388D02*
X177264Y-90990D01*
X177521Y-89840D02*
X177521Y-90990D01*
X177521Y-89840D02*
X178014Y-89840D01*
X178178Y-89895D01*
X178233Y-89950D01*
X178288Y-90059D01*
X178288Y-90169D01*
X178233Y-90278D01*
X178178Y-90333D01*
X178014Y-90388D01*
X177521Y-90388D02*
X178014Y-90388D01*
X178178Y-90442D01*
X178233Y-90497D01*
X178288Y-90607D01*
X178288Y-90771D01*
X178233Y-90880D01*
X178178Y-90935D01*
X178014Y-90990D01*
X177521Y-90990D01*
X179257Y-89840D02*
X178545Y-89840D01*
X178545Y-90990D01*
X179257Y-90990D01*
X178545Y-90388D02*
X178983Y-90388D01*
X179448Y-89840D02*
X179448Y-90990D01*
X179448Y-89840D02*
X179941Y-89840D01*
X180105Y-89895D01*
X180160Y-89950D01*
X180215Y-90059D01*
X180215Y-90169D01*
X180160Y-90278D01*
X180105Y-90333D01*
X179941Y-90388D01*
X179448Y-90388D01*
X179832Y-90388D02*
X180215Y-90990D01*
X181376Y-89840D02*
X181376Y-90990D01*
X181376Y-89840D02*
X182087Y-89840D01*
X181376Y-90388D02*
X181814Y-90388D01*
X182219Y-89840D02*
X182219Y-90990D01*
X182460Y-89840D02*
X182460Y-90990D01*
X183117Y-90990D01*
X183954Y-89840D02*
X183243Y-89840D01*
X183243Y-90990D01*
X183954Y-90990D01*
X183243Y-90388D02*
X183681Y-90388D01*
X184201Y-90223D02*
X184146Y-90278D01*
X184201Y-90333D01*
X184256Y-90278D01*
X184201Y-90223D01*
X184201Y-90880D02*
X184146Y-90935D01*
X184201Y-90990D01*
X184256Y-90935D01*
X184201Y-90880D01*
X213281Y-98847D02*
X213281Y-98776D01*
X213353Y-98633D01*
X213424Y-98562D01*
X213567Y-98490D01*
X213853Y-98490D01*
X213996Y-98562D01*
X214067Y-98633D01*
X214138Y-98776D01*
X214138Y-98919D01*
X214067Y-99062D01*
X213924Y-99276D01*
X213210Y-99990D01*
X214210Y-99990D01*
X214974Y-98490D02*
X214760Y-98562D01*
X214617Y-98776D01*
X214545Y-99133D01*
X214545Y-99347D01*
X214617Y-99704D01*
X214760Y-99919D01*
X214974Y-99990D01*
X215117Y-99990D01*
X215331Y-99919D01*
X215474Y-99704D01*
X215545Y-99347D01*
X215545Y-99133D01*
X215474Y-98776D01*
X215331Y-98562D01*
X215117Y-98490D01*
X214974Y-98490D01*
X215952Y-98847D02*
X215952Y-98776D01*
X216024Y-98633D01*
X216095Y-98562D01*
X216238Y-98490D01*
X216524Y-98490D01*
X216666Y-98562D01*
X216738Y-98633D01*
X216809Y-98776D01*
X216809Y-98919D01*
X216738Y-99062D01*
X216595Y-99276D01*
X215881Y-99990D01*
X216881Y-99990D01*
X218073Y-98490D02*
X217359Y-98490D01*
X217288Y-99133D01*
X217359Y-99062D01*
X217573Y-98990D01*
X217788Y-98990D01*
X218002Y-99062D01*
X218145Y-99204D01*
X218216Y-99419D01*
X218216Y-99562D01*
X218145Y-99776D01*
X218002Y-99919D01*
X217788Y-99990D01*
X217573Y-99990D01*
X217359Y-99919D01*
X217288Y-99847D01*
X217216Y-99704D01*
X218552Y-99347D02*
X219837Y-99347D01*
X220708Y-98490D02*
X220494Y-98562D01*
X220351Y-98776D01*
X220280Y-99133D01*
X220280Y-99347D01*
X220351Y-99704D01*
X220494Y-99919D01*
X220708Y-99990D01*
X220851Y-99990D01*
X221065Y-99919D01*
X221208Y-99704D01*
X221280Y-99347D01*
X221280Y-99133D01*
X221208Y-98776D01*
X221065Y-98562D01*
X220851Y-98490D01*
X220708Y-98490D01*
X222329Y-98490D02*
X221615Y-99490D01*
X222687Y-99490D01*
X222329Y-98490D02*
X222329Y-99990D01*
X222951Y-99347D02*
X224236Y-99347D01*
X224679Y-98776D02*
X224822Y-98705D01*
X225036Y-98490D01*
X225036Y-99990D01*
X226493Y-98490D02*
X225779Y-99490D01*
X226850Y-99490D01*
X226493Y-98490D02*
X226493Y-99990D01*
X198510Y-81514D02*
X198939Y-81514D01*
X199081Y-81466D01*
X199129Y-81419D01*
X199177Y-81323D01*
X199177Y-81181D01*
X199129Y-81085D01*
X199081Y-81038D01*
X198939Y-80990D01*
X198510Y-80990D01*
X198510Y-81990D01*
X200162Y-81990D02*
X199781Y-80990D01*
X199400Y-81990D01*
X199543Y-81657D02*
X200019Y-81657D01*
X200395Y-80990D02*
X200395Y-81990D01*
X200395Y-80990D02*
X200824Y-80990D01*
X200967Y-81038D01*
X201014Y-81085D01*
X201062Y-81181D01*
X201062Y-81276D01*
X201014Y-81371D01*
X200967Y-81419D01*
X200824Y-81466D01*
X200395Y-81466D01*
X200729Y-81466D02*
X201062Y-81990D01*
X201619Y-80990D02*
X201619Y-81990D01*
X201286Y-80990D02*
X201952Y-80990D01*
X202857Y-80990D02*
X202857Y-81990D01*
X202857Y-80990D02*
X203523Y-81990D01*
X203523Y-80990D02*
X203523Y-81990D01*
X203799Y-80990D02*
X203799Y-81704D01*
X203847Y-81847D01*
X203942Y-81942D01*
X204085Y-81990D01*
X204180Y-81990D01*
X204323Y-81942D01*
X204418Y-81847D01*
X204466Y-81704D01*
X204466Y-80990D01*
X204742Y-80990D02*
X204742Y-81990D01*
X204742Y-80990D02*
X205123Y-81990D01*
X205504Y-80990D02*
X205123Y-81990D01*
X205504Y-80990D02*
X205504Y-81990D01*
X205789Y-80990D02*
X205789Y-81990D01*
X205789Y-80990D02*
X206218Y-80990D01*
X206361Y-81038D01*
X206408Y-81085D01*
X206456Y-81181D01*
X206456Y-81276D01*
X206408Y-81371D01*
X206361Y-81419D01*
X206218Y-81466D01*
X205789Y-81466D02*
X206218Y-81466D01*
X206361Y-81514D01*
X206408Y-81561D01*
X206456Y-81657D01*
X206456Y-81800D01*
X206408Y-81895D01*
X206361Y-81942D01*
X206218Y-81990D01*
X205789Y-81990D01*
X207299Y-80990D02*
X206680Y-80990D01*
X206680Y-81990D01*
X207299Y-81990D01*
X206680Y-81466D02*
X207061Y-81466D01*
X207465Y-80990D02*
X207465Y-81990D01*
X207465Y-80990D02*
X207894Y-80990D01*
X208037Y-81038D01*
X208084Y-81085D01*
X208132Y-81181D01*
X208132Y-81276D01*
X208084Y-81371D01*
X208037Y-81419D01*
X207894Y-81466D01*
X207465Y-81466D01*
X207799Y-81466D02*
X208132Y-81990D01*
X208403Y-81323D02*
X208356Y-81371D01*
X208403Y-81419D01*
X208451Y-81371D01*
X208403Y-81323D01*
X208403Y-81895D02*
X208356Y-81942D01*
X208403Y-81990D01*
X208451Y-81942D01*
X208403Y-81895D01*
X192260Y-95840D02*
X192260Y-96990D01*
X192260Y-95840D02*
X192643Y-95840D01*
X192808Y-95895D01*
X192917Y-96004D01*
X192972Y-96114D01*
X193027Y-96278D01*
X193027Y-96552D01*
X192972Y-96716D01*
X192917Y-96826D01*
X192808Y-96935D01*
X192643Y-96990D01*
X192260Y-96990D01*
X193612Y-95840D02*
X193503Y-95895D01*
X193393Y-96004D01*
X193339Y-96114D01*
X193284Y-96278D01*
X193284Y-96552D01*
X193339Y-96716D01*
X193393Y-96826D01*
X193503Y-96935D01*
X193612Y-96990D01*
X193831Y-96990D01*
X193941Y-96935D01*
X194050Y-96826D01*
X194105Y-96716D01*
X194160Y-96552D01*
X194160Y-96278D01*
X194105Y-96114D01*
X194050Y-96004D01*
X193941Y-95895D01*
X193831Y-95840D01*
X193612Y-95840D01*
X195249Y-96114D02*
X195195Y-96004D01*
X195085Y-95895D01*
X194976Y-95840D01*
X194757Y-95840D01*
X194647Y-95895D01*
X194538Y-96004D01*
X194483Y-96114D01*
X194428Y-96278D01*
X194428Y-96552D01*
X194483Y-96716D01*
X194538Y-96826D01*
X194647Y-96935D01*
X194757Y-96990D01*
X194976Y-96990D01*
X195085Y-96935D01*
X195195Y-96826D01*
X195249Y-96716D01*
X195572Y-95840D02*
X195572Y-96661D01*
X195627Y-96826D01*
X195737Y-96935D01*
X195901Y-96990D01*
X196010Y-96990D01*
X196175Y-96935D01*
X196284Y-96826D01*
X196339Y-96661D01*
X196339Y-95840D01*
X196656Y-95840D02*
X196656Y-96990D01*
X196656Y-95840D02*
X197094Y-96990D01*
X197532Y-95840D02*
X197094Y-96990D01*
X197532Y-95840D02*
X197532Y-96990D01*
X198573Y-95840D02*
X197861Y-95840D01*
X197861Y-96990D01*
X198573Y-96990D01*
X197861Y-96388D02*
X198299Y-96388D01*
X198764Y-95840D02*
X198764Y-96990D01*
X198764Y-95840D02*
X199531Y-96990D01*
X199531Y-95840D02*
X199531Y-96990D01*
X200232Y-95840D02*
X200232Y-96990D01*
X199848Y-95840D02*
X200615Y-95840D01*
X201655Y-95840D02*
X201655Y-96990D01*
X201655Y-95840D02*
X202422Y-96990D01*
X202422Y-95840D02*
X202422Y-96990D01*
X202739Y-95840D02*
X202739Y-96661D01*
X202794Y-96826D01*
X202903Y-96935D01*
X203068Y-96990D01*
X203177Y-96990D01*
X203341Y-96935D01*
X203451Y-96826D01*
X203506Y-96661D01*
X203506Y-95840D01*
X203823Y-95840D02*
X203823Y-96990D01*
X203823Y-95840D02*
X204261Y-96990D01*
X204699Y-95840D02*
X204261Y-96990D01*
X204699Y-95840D02*
X204699Y-96990D01*
X205028Y-95840D02*
X205028Y-96990D01*
X205028Y-95840D02*
X205521Y-95840D01*
X205685Y-95895D01*
X205740Y-95950D01*
X205794Y-96059D01*
X205794Y-96169D01*
X205740Y-96278D01*
X205685Y-96333D01*
X205521Y-96388D01*
X205028Y-96388D02*
X205521Y-96388D01*
X205685Y-96442D01*
X205740Y-96497D01*
X205794Y-96607D01*
X205794Y-96771D01*
X205740Y-96880D01*
X205685Y-96935D01*
X205521Y-96990D01*
X205028Y-96990D01*
X206763Y-95840D02*
X206052Y-95840D01*
X206052Y-96990D01*
X206763Y-96990D01*
X206052Y-96388D02*
X206490Y-96388D01*
X206955Y-95840D02*
X206955Y-96990D01*
X206955Y-95840D02*
X207448Y-95840D01*
X207612Y-95895D01*
X207667Y-95950D01*
X207721Y-96059D01*
X207721Y-96169D01*
X207667Y-96278D01*
X207612Y-96333D01*
X207448Y-96388D01*
X206955Y-96388D01*
X207338Y-96388D02*
X207721Y-96990D01*
X208034Y-96223D02*
X207979Y-96278D01*
X208034Y-96333D01*
X208088Y-96278D01*
X208034Y-96223D01*
X208034Y-96880D02*
X207979Y-96935D01*
X208034Y-96990D01*
X208088Y-96935D01*
X208034Y-96880D01*
D19*
X204510Y-105410D02*
X204510Y-100990D01*
X173510Y-105410D02*
X173510Y-88990D01*
X191510Y-100990D02*
X191510Y-94990D01*
X212010Y-105410D02*
X212010Y-94990D01*
X111510Y-105410D02*
X111510Y-79990D01*
X145510Y-105410D02*
X145510Y-79990D01*
X227330Y-105410D02*
X227330Y-79990D01*
X111510Y-105410D02*
X227330Y-105410D01*
X145510Y-100990D02*
X227330Y-100990D01*
X145510Y-94990D02*
X227330Y-94990D01*
X145510Y-88990D02*
X227330Y-88990D01*
X111510Y-79990D02*
X227330Y-79990D01*
X77470Y-105410D02*
X113030Y-105410D01*
X-85090Y-110490D02*
X-85090Y-105410D01*
X-148590Y-50165D02*
X-143510Y-50165D01*
X-148590Y10160D02*
X-143510Y10160D01*
X-148590Y70485D02*
X-143510Y70485D01*
X-143510Y-105410D02*
X227330Y-105410D01*
X-143510Y-105410D02*
X-143510Y125730D01*
X-148590Y-110490D02*
X232410Y-110490D01*
X-148590Y-110490D02*
X-148590Y130810D01*
X227330Y-105410D02*
X227330Y-74930D01*
X-21590Y-110490D02*
X-21590Y-105410D01*
X41910Y-110490D02*
X41910Y-105410D01*
X105410Y-110490D02*
X105410Y-105410D01*
X168910Y-110490D02*
X168910Y-105410D01*
X227330Y-50165D02*
X232410Y-50165D01*
X227330Y10160D02*
X232410Y10160D01*
X227330Y70485D02*
X232410Y70485D01*
X232410Y-110490D02*
X232410Y130810D01*
X227330Y-105410D02*
X227330Y125730D01*
X-85090Y125730D02*
X-85090Y130810D01*
X-148590Y130810D02*
X232410Y130810D01*
X-143510Y125730D02*
X227330Y125730D01*
X-21590Y125730D02*
X-21590Y130810D01*
X41910Y125730D02*
X41910Y130810D01*
X105410Y125730D02*
X105410Y130810D01*
X168910Y125730D02*
X168910Y130810D01*
X174510Y-101347D02*
X174510Y-102490D01*
X175163Y-102490D01*
X176159Y-102490D02*
X175724Y-101347D01*
X175288Y-102490D01*
X175451Y-102109D02*
X175996Y-102109D01*
X176425Y-101347D02*
X176861Y-101891D01*
X176861Y-102490D01*
X177296Y-101347D02*
X176861Y-101891D01*
X178150Y-101347D02*
X177443Y-101347D01*
X177443Y-102490D01*
X178150Y-102490D01*
X177443Y-101891D02*
X177878Y-101891D01*
X178341Y-101347D02*
X178341Y-102490D01*
X178341Y-101347D02*
X178831Y-101347D01*
X178994Y-101402D01*
X179048Y-101456D01*
X179103Y-101565D01*
X179103Y-101674D01*
X179048Y-101783D01*
X178994Y-101837D01*
X178831Y-101891D01*
X178341Y-101891D01*
X178722Y-101891D02*
X179103Y-102490D01*
X180256Y-101347D02*
X180256Y-102490D01*
X180256Y-101347D02*
X181018Y-102490D01*
X181018Y-101347D02*
X181018Y-102490D01*
X182205Y-102490D02*
X181769Y-101347D01*
X181334Y-102490D01*
X181497Y-102109D02*
X182041Y-102109D01*
X182471Y-101347D02*
X182471Y-102490D01*
X182471Y-101347D02*
X182907Y-102490D01*
X183342Y-101347D02*
X182907Y-102490D01*
X183342Y-101347D02*
X183342Y-102490D01*
X184376Y-101347D02*
X183668Y-101347D01*
X183668Y-102490D01*
X184376Y-102490D01*
X183668Y-101891D02*
X184104Y-101891D01*
X184621Y-101728D02*
X184566Y-101783D01*
X184621Y-101837D01*
X184675Y-101783D01*
X184621Y-101728D01*
X184621Y-102381D02*
X184566Y-102436D01*
X184621Y-102490D01*
X184675Y-102436D01*
X184621Y-102381D01*
X205260Y-101597D02*
X205260Y-102740D01*
X205260Y-101597D02*
X205750Y-101597D01*
X205913Y-101652D01*
X205967Y-101706D01*
X206022Y-101815D01*
X206022Y-101924D01*
X205967Y-102033D01*
X205913Y-102087D01*
X205750Y-102141D01*
X205260Y-102141D01*
X205641Y-102141D02*
X206022Y-102740D01*
X206985Y-101597D02*
X206278Y-101597D01*
X206278Y-102740D01*
X206985Y-102740D01*
X206278Y-102141D02*
X206713Y-102141D01*
X207175Y-101597D02*
X207611Y-102740D01*
X208046Y-101597D02*
X207611Y-102740D01*
X208247Y-101978D02*
X208193Y-102033D01*
X208247Y-102087D01*
X208302Y-102033D01*
X208247Y-101978D01*
X208247Y-102631D02*
X208193Y-102686D01*
X208247Y-102740D01*
X208302Y-102686D01*
X208247Y-102631D01*
X213210Y-95847D02*
X213210Y-96990D01*
X213210Y-95847D02*
X213591Y-95847D01*
X213754Y-95902D01*
X213863Y-96010D01*
X213917Y-96119D01*
X213972Y-96283D01*
X213972Y-96555D01*
X213917Y-96718D01*
X213863Y-96827D01*
X213754Y-96936D01*
X213591Y-96990D01*
X213210Y-96990D01*
X215098Y-96990D02*
X214663Y-95847D01*
X214228Y-96990D01*
X214391Y-96609D02*
X214935Y-96609D01*
X215746Y-95847D02*
X215746Y-96990D01*
X215365Y-95847D02*
X216127Y-95847D01*
X216970Y-95847D02*
X216263Y-95847D01*
X216263Y-96990D01*
X216970Y-96990D01*
X216263Y-96391D02*
X216698Y-96391D01*
X217215Y-96228D02*
X217161Y-96283D01*
X217215Y-96337D01*
X217270Y-96283D01*
X217215Y-96228D01*
X217215Y-96881D02*
X217161Y-96936D01*
X217215Y-96990D01*
X217270Y-96936D01*
X217215Y-96881D01*
X146891Y-81347D02*
X146891Y-82490D01*
X146510Y-81347D02*
X147272Y-81347D01*
X147408Y-81347D02*
X147408Y-82490D01*
X148028Y-81347D02*
X148028Y-82490D01*
X147647Y-81347D02*
X148409Y-81347D01*
X148545Y-81347D02*
X148545Y-82490D01*
X149198Y-82490D01*
X150031Y-81347D02*
X149323Y-81347D01*
X149323Y-82490D01*
X150031Y-82490D01*
X149323Y-81891D02*
X149759Y-81891D01*
X150276Y-81728D02*
X150221Y-81783D01*
X150276Y-81837D01*
X150330Y-81783D01*
X150276Y-81728D01*
X150276Y-82381D02*
X150221Y-82436D01*
X150276Y-82490D01*
X150330Y-82436D01*
X150276Y-82381D01*
D20*
X147576Y-98619D02*
X147424Y-98466D01*
X147196Y-98390D01*
X146891Y-98390D01*
X146662Y-98466D01*
X146510Y-98619D01*
X146510Y-98771D01*
X146586Y-98924D01*
X146662Y-99000D01*
X146815Y-99076D01*
X147272Y-99228D01*
X147424Y-99304D01*
X147500Y-99381D01*
X147576Y-99533D01*
X147576Y-99761D01*
X147424Y-99914D01*
X147196Y-99990D01*
X146891Y-99990D01*
X146662Y-99914D01*
X146510Y-99761D01*
X147934Y-98390D02*
X147934Y-99990D01*
X148849Y-99990D01*
X149557Y-98390D02*
X149557Y-99990D01*
X149024Y-98390D02*
X150090Y-98390D01*
X174967Y-98390D02*
X174739Y-98466D01*
X174586Y-98695D01*
X174510Y-99076D01*
X174510Y-99304D01*
X174586Y-99685D01*
X174739Y-99914D01*
X174967Y-99990D01*
X175119Y-99990D01*
X175348Y-99914D01*
X175500Y-99685D01*
X175576Y-99304D01*
X175576Y-99076D01*
X175500Y-98695D01*
X175348Y-98466D01*
X175119Y-98390D01*
X174967Y-98390D01*
X176696Y-98390D02*
X175934Y-99457D01*
X177077Y-99457D01*
X176696Y-98390D02*
X176696Y-99990D01*
X177359Y-99304D02*
X178730Y-99304D01*
X179202Y-98695D02*
X179355Y-98619D01*
X179583Y-98390D01*
X179583Y-99990D01*
X180452Y-98771D02*
X180452Y-98695D01*
X180528Y-98543D01*
X180604Y-98466D01*
X180756Y-98390D01*
X181061Y-98390D01*
X181213Y-98466D01*
X181290Y-98543D01*
X181366Y-98695D01*
X181366Y-98847D01*
X181290Y-99000D01*
X181137Y-99228D01*
X180375Y-99990D01*
X181442Y-99990D01*
X181876Y-98771D02*
X181876Y-98695D01*
X181952Y-98543D01*
X182028Y-98466D01*
X182181Y-98390D01*
X182485Y-98390D01*
X182638Y-98466D01*
X182714Y-98543D01*
X182790Y-98695D01*
X182790Y-98847D01*
X182714Y-99000D01*
X182562Y-99228D01*
X181800Y-99990D01*
X182866Y-99990D01*
X184215Y-98924D02*
X184138Y-99152D01*
X183986Y-99304D01*
X183758Y-99381D01*
X183681Y-99381D01*
X183453Y-99304D01*
X183301Y-99152D01*
X183224Y-98924D01*
X183224Y-98847D01*
X183301Y-98619D01*
X183453Y-98466D01*
X183681Y-98390D01*
X183758Y-98390D01*
X183986Y-98466D01*
X184138Y-98619D01*
X184215Y-98924D01*
X184215Y-99304D01*
X184138Y-99685D01*
X183986Y-99914D01*
X183758Y-99990D01*
X183605Y-99990D01*
X183377Y-99914D01*
X183301Y-99761D01*
X184725Y-98771D02*
X184725Y-98695D01*
X184801Y-98543D01*
X184877Y-98466D01*
X185030Y-98390D01*
X185334Y-98390D01*
X185487Y-98466D01*
X185563Y-98543D01*
X185639Y-98695D01*
X185639Y-98847D01*
X185563Y-99000D01*
X185411Y-99228D01*
X184649Y-99990D01*
X185715Y-99990D01*
X192904Y-98610D02*
X192707Y-98676D01*
X192576Y-98873D01*
X192510Y-99202D01*
X192510Y-99399D01*
X192576Y-99727D01*
X192707Y-99924D01*
X192904Y-99990D01*
X193036Y-99990D01*
X193233Y-99924D01*
X193364Y-99727D01*
X193430Y-99399D01*
X193430Y-99202D01*
X193364Y-98873D01*
X193233Y-98676D01*
X193036Y-98610D01*
X192904Y-98610D01*
X194396Y-98610D02*
X193739Y-99530D01*
X194724Y-99530D01*
X194396Y-98610D02*
X194396Y-99990D01*
X194967Y-99399D02*
X196150Y-99399D01*
X196557Y-98873D02*
X196689Y-98807D01*
X196886Y-98610D01*
X196886Y-99990D01*
X197635Y-98939D02*
X197635Y-98873D01*
X197700Y-98742D01*
X197766Y-98676D01*
X197897Y-98610D01*
X198160Y-98610D01*
X198292Y-98676D01*
X198357Y-98742D01*
X198423Y-98873D01*
X198423Y-99004D01*
X198357Y-99136D01*
X198226Y-99333D01*
X197569Y-99990D01*
X198489Y-99990D01*
X198863Y-98939D02*
X198863Y-98873D01*
X198929Y-98742D01*
X198995Y-98676D01*
X199126Y-98610D01*
X199389Y-98610D01*
X199520Y-98676D01*
X199586Y-98742D01*
X199652Y-98873D01*
X199652Y-99004D01*
X199586Y-99136D01*
X199455Y-99333D01*
X198798Y-99990D01*
X199717Y-99990D01*
X200880Y-99070D02*
X200815Y-99267D01*
X200683Y-99399D01*
X200486Y-99464D01*
X200420Y-99464D01*
X200223Y-99399D01*
X200092Y-99267D01*
X200026Y-99070D01*
X200026Y-99004D01*
X200092Y-98807D01*
X200223Y-98676D01*
X200420Y-98610D01*
X200486Y-98610D01*
X200683Y-98676D01*
X200815Y-98807D01*
X200880Y-99070D01*
X200880Y-99399D01*
X200815Y-99727D01*
X200683Y-99924D01*
X200486Y-99990D01*
X200355Y-99990D01*
X200158Y-99924D01*
X200092Y-99793D01*
X201320Y-98939D02*
X201320Y-98873D01*
X201386Y-98742D01*
X201452Y-98676D01*
X201583Y-98610D01*
X201846Y-98610D01*
X201977Y-98676D01*
X202043Y-98742D01*
X202109Y-98873D01*
X202109Y-99004D01*
X202043Y-99136D01*
X201912Y-99333D01*
X201255Y-99990D01*
X202175Y-99990D01*
X202483Y-100450D02*
X203535Y-100450D01*
X203712Y-98610D02*
X203712Y-99990D01*
X203712Y-98610D02*
X204566Y-98610D01*
X203712Y-99267D02*
X204237Y-99267D01*
X205775Y-99990D02*
X205249Y-98610D01*
X204724Y-99990D01*
X204921Y-99530D02*
X205578Y-99530D01*
X206097Y-98610D02*
X206097Y-99990D01*
X206097Y-98610D02*
X206688Y-98610D01*
X206885Y-98676D01*
X206951Y-98742D01*
X207017Y-98873D01*
X207017Y-99004D01*
X206951Y-99136D01*
X206885Y-99202D01*
X206688Y-99267D01*
X206097Y-99267D02*
X206688Y-99267D01*
X206885Y-99333D01*
X206951Y-99399D01*
X207017Y-99530D01*
X207017Y-99727D01*
X206951Y-99859D01*
X206885Y-99924D01*
X206688Y-99990D01*
X206097Y-99990D01*
X207325Y-99399D02*
X208508Y-99399D01*
X208915Y-98610D02*
X208915Y-99990D01*
X208915Y-98610D02*
X209375Y-98610D01*
X209572Y-98676D01*
X209704Y-98807D01*
X209769Y-98939D01*
X209835Y-99136D01*
X209835Y-99464D01*
X209769Y-99661D01*
X209704Y-99793D01*
X209572Y-99924D01*
X209375Y-99990D01*
X208915Y-99990D01*
D21*
X146510Y-83991D02*
X146510Y-86490D01*
X146510Y-83991D02*
X147462Y-86490D01*
X148414Y-83991D02*
X147462Y-86490D01*
X148414Y-83991D02*
X148414Y-86490D01*
X149962Y-83991D02*
X149962Y-86490D01*
X149128Y-83991D02*
X150795Y-83991D01*
X152878Y-84586D02*
X152759Y-84348D01*
X152521Y-84110D01*
X152283Y-83991D01*
X151807Y-83991D01*
X151568Y-84110D01*
X151330Y-84348D01*
X151211Y-84586D01*
X151092Y-84943D01*
X151092Y-85538D01*
X151211Y-85895D01*
X151330Y-86133D01*
X151568Y-86371D01*
X151807Y-86490D01*
X152283Y-86490D01*
X152521Y-86371D01*
X152759Y-86133D01*
X152878Y-85895D01*
X153580Y-83991D02*
X153580Y-86490D01*
X155246Y-83991D02*
X155246Y-86490D01*
X153580Y-85181D02*
X155246Y-85181D01*
X157484Y-84824D02*
X157365Y-85181D01*
X157127Y-85419D01*
X156770Y-85538D01*
X156651Y-85538D01*
X156294Y-85419D01*
X156056Y-85181D01*
X155937Y-84824D01*
X155937Y-84705D01*
X156056Y-84348D01*
X156294Y-84110D01*
X156651Y-83991D01*
X156770Y-83991D01*
X157127Y-84110D01*
X157365Y-84348D01*
X157484Y-84824D01*
X157484Y-85419D01*
X157365Y-86014D01*
X157127Y-86371D01*
X156770Y-86490D01*
X156532Y-86490D01*
X156175Y-86371D01*
X156056Y-86133D01*
X158876Y-83991D02*
X158519Y-84110D01*
X158281Y-84467D01*
X158162Y-85062D01*
X158162Y-85419D01*
X158281Y-86014D01*
X158519Y-86371D01*
X158876Y-86490D01*
X159114Y-86490D01*
X159472Y-86371D01*
X159710Y-86014D01*
X159829Y-85419D01*
X159829Y-85062D01*
X159710Y-84467D01*
X159472Y-84110D01*
X159114Y-83991D01*
X158876Y-83991D01*
X160388Y-84467D02*
X160626Y-84348D01*
X160983Y-83991D01*
X160983Y-86490D01*
X162935Y-83991D02*
X162578Y-84110D01*
X162340Y-84467D01*
X162221Y-85062D01*
X162221Y-85419D01*
X162340Y-86014D01*
X162578Y-86371D01*
X162935Y-86490D01*
X163173Y-86490D01*
X163530Y-86371D01*
X163768Y-86014D01*
X163887Y-85419D01*
X163887Y-85062D01*
X163768Y-84467D01*
X163530Y-84110D01*
X163173Y-83991D01*
X162935Y-83991D01*
X167958Y-83991D02*
X166411Y-83991D01*
X166411Y-86490D01*
X167958Y-86490D01*
X166411Y-85181D02*
X167363Y-85181D01*
X168374Y-84824D02*
X169089Y-86490D01*
X169803Y-84824D02*
X169089Y-86490D01*
X171636Y-84824D02*
X171636Y-86490D01*
X171636Y-85181D02*
X171398Y-84943D01*
X171159Y-84824D01*
X170802Y-84824D01*
X170564Y-84943D01*
X170326Y-85181D01*
X170207Y-85538D01*
X170207Y-85776D01*
X170326Y-86133D01*
X170564Y-86371D01*
X170802Y-86490D01*
X171159Y-86490D01*
X171398Y-86371D01*
X171636Y-86133D01*
X172302Y-83991D02*
X172302Y-86490D01*
X172826Y-84824D02*
X172826Y-86014D01*
X172945Y-86371D01*
X173183Y-86490D01*
X173540Y-86490D01*
X173778Y-86371D01*
X174135Y-86014D01*
X174135Y-84824D02*
X174135Y-86490D01*
X176218Y-84824D02*
X176218Y-86490D01*
X176218Y-85181D02*
X175980Y-84943D01*
X175742Y-84824D01*
X175385Y-84824D01*
X175147Y-84943D01*
X174909Y-85181D01*
X174790Y-85538D01*
X174790Y-85776D01*
X174909Y-86133D01*
X175147Y-86371D01*
X175385Y-86490D01*
X175742Y-86490D01*
X175980Y-86371D01*
X176218Y-86133D01*
X177242Y-83991D02*
X177242Y-86014D01*
X177361Y-86371D01*
X177599Y-86490D01*
X177837Y-86490D01*
X176884Y-84824D02*
X177718Y-84824D01*
X178432Y-83991D02*
X178551Y-84110D01*
X178670Y-83991D01*
X178551Y-83871D01*
X178432Y-83991D01*
X178551Y-84824D02*
X178551Y-86490D01*
X179705Y-84824D02*
X179467Y-84943D01*
X179229Y-85181D01*
X179110Y-85538D01*
X179110Y-85776D01*
X179229Y-86133D01*
X179467Y-86371D01*
X179705Y-86490D01*
X180062Y-86490D01*
X180300Y-86371D01*
X180538Y-86133D01*
X180657Y-85776D01*
X180657Y-85538D01*
X180538Y-85181D01*
X180300Y-84943D01*
X180062Y-84824D01*
X179705Y-84824D01*
X181205Y-84824D02*
X181205Y-86490D01*
X181205Y-85300D02*
X181562Y-84943D01*
X181800Y-84824D01*
X182157Y-84824D01*
X182395Y-84943D01*
X182514Y-85300D01*
X182514Y-86490D01*
X185133Y-83991D02*
X185133Y-86490D01*
X186799Y-83991D02*
X185133Y-85657D01*
X185728Y-85062D02*
X186799Y-86490D01*
X187596Y-83991D02*
X187715Y-84110D01*
X187834Y-83991D01*
X187715Y-83871D01*
X187596Y-83991D01*
X187715Y-84824D02*
X187715Y-86490D01*
X188632Y-83991D02*
X188632Y-86014D01*
X188751Y-86371D01*
X188989Y-86490D01*
X189227Y-86490D01*
X188275Y-84824D02*
X189108Y-84824D01*
D133*
X9585Y67698D02*
X9585Y67597D01*
X9789Y67597D01*
X9789Y67698D01*
X9890Y67698D01*
X9890Y67902D01*
X9789Y67902D01*
X9789Y68003D01*
X9585Y68003D01*
X9585Y67902D01*
X9484Y67902D01*
X9484Y67698D01*
X9585Y67698D01*
X15885Y67698D02*
X15885Y67597D01*
X16089Y67597D01*
X16089Y67698D01*
X16190Y67698D01*
X16190Y67902D01*
X16089Y67902D01*
X16089Y68003D01*
X15885Y68003D01*
X15885Y67902D01*
X15784Y67902D01*
X15784Y67698D01*
X15885Y67698D01*
X32461Y67698D02*
X32461Y67597D01*
X32664Y67597D01*
X32664Y67698D01*
X32766Y67698D01*
X32766Y67902D01*
X32664Y67902D01*
X32664Y68003D01*
X32461Y68003D01*
X32461Y67902D01*
X32359Y67902D01*
X32359Y67698D01*
X32461Y67698D01*
X38761Y67698D02*
X38761Y67597D01*
X38964Y67597D01*
X38964Y67698D01*
X39066Y67698D01*
X39066Y67902D01*
X38964Y67902D01*
X38964Y68003D01*
X38761Y68003D01*
X38761Y67902D01*
X38659Y67902D01*
X38659Y67698D01*
X38761Y67698D01*
X43898Y67698D02*
X43898Y67597D01*
X44102Y67597D01*
X44102Y67698D01*
X44203Y67698D01*
X44203Y67902D01*
X44102Y67902D01*
X44102Y68003D01*
X43898Y68003D01*
X43898Y67902D01*
X43797Y67902D01*
X43797Y67698D01*
X43898Y67698D01*
X50198Y67698D02*
X50198Y67597D01*
X50402Y67597D01*
X50402Y67698D01*
X50503Y67698D01*
X50503Y67902D01*
X50402Y67902D01*
X50402Y68003D01*
X50198Y68003D01*
X50198Y67902D01*
X50097Y67902D01*
X50097Y67698D01*
X50198Y67698D01*
X21023Y67698D02*
X21023Y67597D01*
X21226Y67597D01*
X21226Y67698D01*
X21328Y67698D01*
X21328Y67902D01*
X21226Y67902D01*
X21226Y68003D01*
X21023Y68003D01*
X21023Y67902D01*
X20921Y67902D01*
X20921Y67698D01*
X21023Y67698D01*
X27323Y67698D02*
X27323Y67597D01*
X27526Y67597D01*
X27526Y67698D01*
X27628Y67698D01*
X27628Y67902D01*
X27526Y67902D01*
X27526Y68003D01*
X27323Y68003D01*
X27323Y67902D01*
X27221Y67902D01*
X27221Y67698D01*
X27323Y67698D01*
X22357Y2091D02*
X22357Y1990D01*
X22561Y1990D01*
X22561Y2091D01*
X22662Y2091D01*
X22662Y2295D01*
X22561Y2295D01*
X22561Y2396D01*
X22357Y2396D01*
X22357Y2295D01*
X22256Y2295D01*
X22256Y2091D01*
X22357Y2091D01*
X16057Y2091D02*
X16057Y1990D01*
X16261Y1990D01*
X16261Y2091D01*
X16362Y2091D01*
X16362Y2295D01*
X16261Y2295D01*
X16261Y2396D01*
X16057Y2396D01*
X16057Y2295D01*
X15956Y2295D01*
X15956Y2091D01*
X16057Y2091D01*
X9597Y58767D02*
X9699Y58767D01*
X9800Y58868D01*
X9902Y58767D01*
X10003Y58767D01*
X10003Y58868D01*
X9902Y58970D01*
X10003Y59072D01*
X10003Y59173D01*
X9902Y59173D01*
X9800Y59072D01*
X9699Y59173D01*
X9597Y59173D01*
X9597Y59072D01*
X9699Y58970D01*
X9597Y58868D01*
X9597Y58767D01*
X9597Y56227D02*
X9699Y56227D01*
X9800Y56328D01*
X9902Y56227D01*
X10003Y56227D01*
X10003Y56328D01*
X9902Y56430D01*
X10003Y56532D01*
X10003Y56633D01*
X9902Y56633D01*
X9800Y56532D01*
X9699Y56633D01*
X9597Y56633D01*
X9597Y56532D01*
X9699Y56430D01*
X9597Y56328D01*
X9597Y56227D01*
X9597Y53687D02*
X9699Y53687D01*
X9800Y53788D01*
X9902Y53687D01*
X10003Y53687D01*
X10003Y53788D01*
X9902Y53890D01*
X10003Y53992D01*
X10003Y54093D01*
X9902Y54093D01*
X9800Y53992D01*
X9699Y54093D01*
X9597Y54093D01*
X9597Y53992D01*
X9699Y53890D01*
X9597Y53788D01*
X9597Y53687D01*
X9597Y43527D02*
X9699Y43527D01*
X9800Y43628D01*
X9902Y43527D01*
X10003Y43527D01*
X10003Y43628D01*
X9902Y43730D01*
X10003Y43832D01*
X10003Y43933D01*
X9902Y43933D01*
X9800Y43832D01*
X9699Y43933D01*
X9597Y43933D01*
X9597Y43832D01*
X9699Y43730D01*
X9597Y43628D01*
X9597Y43527D01*
X9597Y46067D02*
X9699Y46067D01*
X9800Y46168D01*
X9902Y46067D01*
X10003Y46067D01*
X10003Y46168D01*
X9902Y46270D01*
X10003Y46372D01*
X10003Y46473D01*
X9902Y46473D01*
X9800Y46372D01*
X9699Y46473D01*
X9597Y46473D01*
X9597Y46372D01*
X9699Y46270D01*
X9597Y46168D01*
X9597Y46067D01*
X9597Y51147D02*
X9699Y51147D01*
X9800Y51248D01*
X9902Y51147D01*
X10003Y51147D01*
X10003Y51248D01*
X9902Y51350D01*
X10003Y51452D01*
X10003Y51553D01*
X9902Y51553D01*
X9800Y51452D01*
X9699Y51553D01*
X9597Y51553D01*
X9597Y51452D01*
X9699Y51350D01*
X9597Y51248D01*
X9597Y51147D01*
X9597Y48607D02*
X9699Y48607D01*
X9800Y48708D01*
X9902Y48607D01*
X10003Y48607D01*
X10003Y48708D01*
X9902Y48810D01*
X10003Y48912D01*
X10003Y49013D01*
X9902Y49013D01*
X9800Y48912D01*
X9699Y49013D01*
X9597Y49013D01*
X9597Y48912D01*
X9699Y48810D01*
X9597Y48708D01*
X9597Y48607D01*
X30000Y19200D02*
X29797Y19606D01*
X30203Y19606D01*
X30000Y19200D01*
X34700Y19200D02*
X34497Y19606D01*
X34903Y19606D01*
X34700Y19200D01*
X34700Y19302D02*
X34598Y19505D01*
X34802Y19505D01*
X34700Y19302D01*
X25300Y19200D02*
X25097Y19606D01*
X25503Y19606D01*
X25300Y19200D01*
X25300Y19302D02*
X25198Y19505D01*
X25402Y19505D01*
X25300Y19302D01*
X49997Y43527D02*
X50098Y43527D01*
X50200Y43628D01*
X50302Y43527D01*
X50403Y43527D01*
X50403Y43628D01*
X50302Y43730D01*
X50403Y43832D01*
X50403Y43933D01*
X50302Y43933D01*
X50200Y43832D01*
X50098Y43933D01*
X49997Y43933D01*
X49997Y43832D01*
X50098Y43730D01*
X49997Y43628D01*
X49997Y43527D01*
X49997Y46067D02*
X50098Y46067D01*
X50200Y46168D01*
X50302Y46067D01*
X50403Y46067D01*
X50403Y46168D01*
X50302Y46270D01*
X50403Y46372D01*
X50403Y46473D01*
X50302Y46473D01*
X50200Y46372D01*
X50098Y46473D01*
X49997Y46473D01*
X49997Y46372D01*
X50098Y46270D01*
X49997Y46168D01*
X49997Y46067D01*
X42603Y3073D02*
X42704Y3276D01*
X42603Y3479D01*
X42806Y3378D01*
X43009Y3479D01*
X42907Y3276D01*
X43009Y3073D01*
X42806Y3174D01*
X42603Y3073D01*
X42704Y3174D02*
X42755Y3276D01*
X42704Y3378D01*
X42806Y3327D01*
X42907Y3378D01*
X42857Y3276D01*
X42907Y3174D01*
X42806Y3225D01*
X42704Y3174D01*
X37603Y3073D02*
X37704Y3276D01*
X37603Y3479D01*
X37806Y3378D01*
X38009Y3479D01*
X37907Y3276D01*
X38009Y3073D01*
X37806Y3174D01*
X37603Y3073D01*
X37704Y3174D02*
X37755Y3276D01*
X37704Y3378D01*
X37806Y3327D01*
X37907Y3378D01*
X37857Y3276D01*
X37907Y3174D01*
X37806Y3225D01*
X37704Y3174D01*
X2082Y7907D02*
X2183Y8009D01*
X2285Y8009D01*
X2183Y8110D01*
X2285Y8212D01*
X2183Y8212D01*
X2082Y8314D01*
X1980Y8212D01*
X1879Y8212D01*
X1980Y8110D01*
X1879Y8009D01*
X1980Y8009D01*
X2082Y7907D01*
X2082Y16547D02*
X2183Y16649D01*
X2285Y16649D01*
X2183Y16750D01*
X2285Y16852D01*
X2183Y16852D01*
X2082Y16954D01*
X1980Y16852D01*
X1879Y16852D01*
X1980Y16750D01*
X1879Y16649D01*
X1980Y16649D01*
X2082Y16547D01*
X49997Y16067D02*
X50098Y16067D01*
X50200Y16168D01*
X50302Y16067D01*
X50403Y16067D01*
X50403Y16168D01*
X50302Y16270D01*
X50403Y16372D01*
X50403Y16473D01*
X50302Y16473D01*
X50200Y16372D01*
X50098Y16473D01*
X49997Y16473D01*
X49997Y16372D01*
X50098Y16270D01*
X49997Y16168D01*
X49997Y16067D01*
X49997Y13527D02*
X50098Y13527D01*
X50200Y13628D01*
X50302Y13527D01*
X50403Y13527D01*
X50403Y13628D01*
X50302Y13730D01*
X50403Y13832D01*
X50403Y13933D01*
X50302Y13933D01*
X50200Y13832D01*
X50098Y13933D01*
X49997Y13933D01*
X49997Y13832D01*
X50098Y13730D01*
X49997Y13628D01*
X49997Y13527D01*
X3297Y66297D02*
X3297Y66703D01*
X3703Y66703D01*
X3703Y66297D01*
X3297Y66297D01*
X56297Y66297D02*
X56297Y66703D01*
X56703Y66703D01*
X56703Y66297D01*
X56297Y66297D01*
X9814Y26897D02*
X9915Y26897D01*
X10017Y26998D01*
X10118Y26897D01*
X10220Y26897D01*
X10220Y26998D01*
X10118Y27100D01*
X10220Y27202D01*
X10220Y27303D01*
X10118Y27303D01*
X10017Y27202D01*
X9915Y27303D01*
X9814Y27303D01*
X9814Y27202D01*
X9915Y27100D01*
X9814Y26998D01*
X9814Y26897D01*
X9814Y29437D02*
X9915Y29437D01*
X10017Y29538D01*
X10118Y29437D01*
X10220Y29437D01*
X10220Y29538D01*
X10118Y29640D01*
X10220Y29742D01*
X10220Y29843D01*
X10118Y29843D01*
X10017Y29742D01*
X9915Y29843D01*
X9814Y29843D01*
X9814Y29742D01*
X9915Y29640D01*
X9814Y29538D01*
X9814Y29437D01*
X9814Y24357D02*
X9915Y24357D01*
X10017Y24458D01*
X10118Y24357D01*
X10220Y24357D01*
X10220Y24458D01*
X10118Y24560D01*
X10220Y24662D01*
X10220Y24763D01*
X10118Y24763D01*
X10017Y24662D01*
X9915Y24763D01*
X9814Y24763D01*
X9814Y24662D01*
X9915Y24560D01*
X9814Y24458D01*
X9814Y24357D01*
X9814Y33327D02*
X9915Y33327D01*
X10017Y33428D01*
X10118Y33327D01*
X10220Y33327D01*
X10220Y33428D01*
X10118Y33530D01*
X10220Y33632D01*
X10220Y33733D01*
X10118Y33733D01*
X10017Y33632D01*
X9915Y33733D01*
X9814Y33733D01*
X9814Y33632D01*
X9915Y33530D01*
X9814Y33428D01*
X9814Y33327D01*
X9814Y35867D02*
X9915Y35867D01*
X10017Y35968D01*
X10118Y35867D01*
X10220Y35867D01*
X10220Y35968D01*
X10118Y36070D01*
X10220Y36172D01*
X10220Y36273D01*
X10118Y36273D01*
X10017Y36172D01*
X9915Y36273D01*
X9814Y36273D01*
X9814Y36172D01*
X9915Y36070D01*
X9814Y35968D01*
X9814Y35867D01*
X56297Y3297D02*
X56297Y3703D01*
X56703Y3703D01*
X56703Y3297D01*
X56297Y3297D01*
X3297Y3297D02*
X3297Y3703D01*
X3703Y3703D01*
X3703Y3297D01*
X3297Y3297D01*
X47547Y47547D02*
X47649Y47750D01*
X47547Y47953D01*
X47750Y47852D01*
X47953Y47953D01*
X47852Y47750D01*
X47953Y47547D01*
X47750Y47648D01*
X47547Y47547D01*
X50399Y51424D02*
X50501Y51628D01*
X50399Y51831D01*
X50602Y51729D01*
X50805Y51831D01*
X50704Y51628D01*
X50805Y51424D01*
X50602Y51526D01*
X50399Y51424D01*
X44908Y52024D02*
X45009Y52227D01*
X44908Y52430D01*
X45111Y52328D01*
X45314Y52430D01*
X45212Y52227D01*
X45314Y52024D01*
X45111Y52125D01*
X44908Y52024D01*
X50388Y56556D02*
X50489Y56759D01*
X50388Y56963D01*
X50591Y56861D01*
X50794Y56963D01*
X50693Y56759D01*
X50794Y56556D01*
X50591Y56658D01*
X50388Y56556D01*
X36797Y34047D02*
X36898Y34250D01*
X36797Y34453D01*
X37000Y34352D01*
X37203Y34453D01*
X37102Y34250D01*
X37203Y34047D01*
X37000Y34148D01*
X36797Y34047D01*
X37797Y34297D02*
X37898Y34500D01*
X37797Y34703D01*
X38000Y34602D01*
X38203Y34703D01*
X38102Y34500D01*
X38203Y34297D01*
X38000Y34398D01*
X37797Y34297D01*
X40547Y31544D02*
X40648Y31748D01*
X40547Y31951D01*
X40750Y31849D01*
X40953Y31951D01*
X40852Y31748D01*
X40953Y31544D01*
X40750Y31646D01*
X40547Y31544D01*
X6797Y44619D02*
X6898Y44823D01*
X6797Y45026D01*
X7000Y44924D01*
X7203Y45026D01*
X7102Y44823D01*
X7203Y44619D01*
X7000Y44721D01*
X6797Y44619D01*
X35510Y8329D02*
X35611Y8532D01*
X35510Y8736D01*
X35713Y8634D01*
X35916Y8736D01*
X35814Y8532D01*
X35916Y8329D01*
X35713Y8431D01*
X35510Y8329D01*
X6797Y52587D02*
X6898Y52790D01*
X6797Y52993D01*
X7000Y52892D01*
X7203Y52993D01*
X7102Y52790D01*
X7203Y52587D01*
X7000Y52688D01*
X6797Y52587D01*
X12047Y52337D02*
X12148Y52540D01*
X12047Y52743D01*
X12250Y52642D01*
X12453Y52743D01*
X12352Y52540D01*
X12453Y52337D01*
X12250Y52438D01*
X12047Y52337D01*
X46346Y27394D02*
X46448Y27597D01*
X46346Y27801D01*
X46550Y27699D01*
X46753Y27801D01*
X46651Y27597D01*
X46753Y27394D01*
X46550Y27496D01*
X46346Y27394D01*
X29806Y32286D02*
X29908Y32490D01*
X29806Y32693D01*
X30010Y32591D01*
X30213Y32693D01*
X30111Y32490D01*
X30213Y32286D01*
X30010Y32388D01*
X29806Y32286D01*
X10423Y15127D02*
X10525Y15330D01*
X10423Y15534D01*
X10626Y15432D01*
X10829Y15534D01*
X10728Y15330D01*
X10829Y15127D01*
X10626Y15229D01*
X10423Y15127D01*
X57863Y55232D02*
X57964Y55435D01*
X57863Y55639D01*
X58066Y55537D01*
X58269Y55639D01*
X58167Y55435D01*
X58269Y55232D01*
X58066Y55334D01*
X57863Y55232D01*
X57870Y57149D02*
X57971Y57352D01*
X57870Y57555D01*
X58073Y57454D01*
X58276Y57555D01*
X58175Y57352D01*
X58276Y57149D01*
X58073Y57250D01*
X57870Y57149D01*
X45947Y65445D02*
X46048Y65648D01*
X45947Y65851D01*
X46150Y65750D01*
X46353Y65851D01*
X46252Y65648D01*
X46353Y65445D01*
X46150Y65546D01*
X45947Y65445D01*
X34509Y65445D02*
X34611Y65648D01*
X34509Y65851D01*
X34712Y65750D01*
X34916Y65851D01*
X34814Y65648D01*
X34916Y65445D01*
X34712Y65546D01*
X34509Y65445D01*
X23071Y65445D02*
X23173Y65648D01*
X23071Y65851D01*
X23275Y65750D01*
X23478Y65851D01*
X23376Y65648D01*
X23478Y65445D01*
X23275Y65546D01*
X23071Y65445D01*
X11634Y65445D02*
X11735Y65648D01*
X11634Y65851D01*
X11837Y65750D01*
X12040Y65851D01*
X11939Y65648D01*
X12040Y65445D01*
X11837Y65546D01*
X11634Y65445D01*
X46547Y25047D02*
X46648Y25250D01*
X46547Y25453D01*
X46750Y25352D01*
X46953Y25453D01*
X46852Y25250D01*
X46953Y25047D01*
X46750Y25148D01*
X46547Y25047D01*
X46952Y28597D02*
X47053Y28800D01*
X46952Y29003D01*
X47155Y28902D01*
X47358Y29003D01*
X47256Y28800D01*
X47358Y28597D01*
X47155Y28698D01*
X46952Y28597D01*
X29753Y10750D02*
X29855Y10953D01*
X29753Y11157D01*
X29956Y11055D01*
X30160Y11157D01*
X30058Y10953D01*
X30160Y10750D01*
X29956Y10852D01*
X29753Y10750D01*
X9634Y62149D02*
X9735Y62352D01*
X9634Y62555D01*
X9837Y62454D01*
X10040Y62555D01*
X9939Y62352D01*
X10040Y62149D01*
X9837Y62250D01*
X9634Y62149D01*
X22917Y11404D02*
X23018Y11608D01*
X22917Y11811D01*
X23120Y11709D01*
X23323Y11811D01*
X23221Y11608D01*
X23323Y11404D01*
X23120Y11506D01*
X22917Y11404D01*
X36758Y10936D02*
X36860Y11139D01*
X36758Y11342D01*
X36961Y11241D01*
X37165Y11342D01*
X37063Y11139D01*
X37165Y10936D01*
X36961Y11038D01*
X36758Y10936D01*
X23122Y8739D02*
X23223Y8943D01*
X23122Y9146D01*
X23325Y9044D01*
X23528Y9146D01*
X23427Y8943D01*
X23528Y8739D01*
X23325Y8841D01*
X23122Y8739D01*
X44918Y9052D02*
X45019Y9255D01*
X44918Y9458D01*
X45121Y9357D01*
X45324Y9458D01*
X45222Y9255D01*
X45324Y9052D01*
X45121Y9153D01*
X44918Y9052D01*
X43307Y10910D02*
X43408Y11113D01*
X43307Y11316D01*
X43510Y11214D01*
X43713Y11316D01*
X43611Y11113D01*
X43713Y10910D01*
X43510Y11011D01*
X43307Y10910D01*
X43307Y13904D02*
X43408Y14107D01*
X43307Y14310D01*
X43510Y14208D01*
X43713Y14310D01*
X43611Y14107D01*
X43713Y13904D01*
X43510Y14005D01*
X43307Y13904D01*
X43255Y15806D02*
X43356Y16009D01*
X43255Y16212D01*
X43458Y16111D01*
X43661Y16212D01*
X43560Y16009D01*
X43661Y15806D01*
X43458Y15908D01*
X43255Y15806D01*
X23301Y6146D02*
X23402Y6349D01*
X23301Y6553D01*
X23504Y6451D01*
X23707Y6553D01*
X23605Y6349D01*
X23707Y6146D01*
X23504Y6248D01*
X23301Y6146D01*
X47097Y54392D02*
X47198Y54595D01*
X47097Y54798D01*
X47300Y54697D01*
X47503Y54798D01*
X47402Y54595D01*
X47503Y54392D01*
X47300Y54494D01*
X47097Y54392D01*
X20047Y55844D02*
X20148Y56047D01*
X20047Y56250D01*
X20250Y56149D01*
X20453Y56250D01*
X20352Y56047D01*
X20453Y55844D01*
X20250Y55945D01*
X20047Y55844D01*
X24334Y52086D02*
X24435Y52289D01*
X24334Y52492D01*
X24537Y52391D01*
X24740Y52492D01*
X24638Y52289D01*
X24740Y52086D01*
X24537Y52188D01*
X24334Y52086D01*
X26547Y52086D02*
X26648Y52289D01*
X26547Y52492D01*
X26750Y52391D01*
X26953Y52492D01*
X26852Y52289D01*
X26953Y52086D01*
X26750Y52188D01*
X26547Y52086D01*
X47342Y34431D02*
X47444Y34634D01*
X47342Y34838D01*
X47545Y34736D01*
X47748Y34838D01*
X47647Y34634D01*
X47748Y34431D01*
X47545Y34533D01*
X47342Y34431D01*
X47806Y33623D02*
X47908Y33826D01*
X47806Y34029D01*
X48009Y33928D01*
X48212Y34029D01*
X48111Y33826D01*
X48212Y33623D01*
X48009Y33724D01*
X47806Y33623D01*
X48372Y33030D02*
X48473Y33233D01*
X48372Y33436D01*
X48575Y33334D01*
X48778Y33436D01*
X48677Y33233D01*
X48778Y33030D01*
X48575Y33131D01*
X48372Y33030D01*
X14812Y8577D02*
X14914Y8780D01*
X14812Y8983D01*
X15015Y8882D01*
X15218Y8983D01*
X15117Y8780D01*
X15218Y8577D01*
X15015Y8678D01*
X14812Y8577D01*
X19032Y10487D02*
X19133Y10690D01*
X19032Y10893D01*
X19235Y10792D01*
X19438Y10893D01*
X19337Y10690D01*
X19438Y10487D01*
X19235Y10588D01*
X19032Y10487D01*
X26255Y4253D02*
X26356Y4457D01*
X26255Y4660D01*
X26458Y4558D01*
X26661Y4660D01*
X26560Y4457D01*
X26661Y4253D01*
X26458Y4355D01*
X26255Y4253D01*
X16897Y5722D02*
X16998Y5925D01*
X16897Y6128D01*
X17100Y6027D01*
X17303Y6128D01*
X17202Y5925D01*
X17303Y5722D01*
X17100Y5823D01*
X16897Y5722D01*
X19072Y7498D02*
X19174Y7701D01*
X19072Y7904D01*
X19275Y7803D01*
X19478Y7904D01*
X19377Y7701D01*
X19478Y7498D01*
X19275Y7600D01*
X19072Y7498D01*
X15597Y7554D02*
X15698Y7757D01*
X15597Y7960D01*
X15800Y7859D01*
X16003Y7960D01*
X15902Y7757D01*
X16003Y7554D01*
X15800Y7655D01*
X15597Y7554D01*
X24097Y6146D02*
X24198Y6349D01*
X24097Y6553D01*
X24300Y6451D01*
X24503Y6553D01*
X24402Y6349D01*
X24503Y6146D01*
X24300Y6248D01*
X24097Y6146D01*
X27458Y7614D02*
X27560Y7818D01*
X27458Y8021D01*
X27662Y7919D01*
X27865Y8021D01*
X27763Y7818D01*
X27865Y7614D01*
X27662Y7716D01*
X27458Y7614D01*
X26122Y8767D02*
X26223Y8971D01*
X26122Y9174D01*
X26325Y9072D01*
X26528Y9174D01*
X26427Y8971D01*
X26528Y8767D01*
X26325Y8869D01*
X26122Y8767D01*
X24097Y7656D02*
X24198Y7860D01*
X24097Y8063D01*
X24300Y7961D01*
X24503Y8063D01*
X24402Y7860D01*
X24503Y7656D01*
X24300Y7758D01*
X24097Y7656D01*
X23506Y7656D02*
X23607Y7860D01*
X23506Y8063D01*
X23709Y7961D01*
X23912Y8063D01*
X23811Y7860D01*
X23912Y7656D01*
X23709Y7758D01*
X23506Y7656D01*
X22155Y7497D02*
X22257Y7700D01*
X22155Y7903D01*
X22358Y7802D01*
X22562Y7903D01*
X22460Y7700D01*
X22562Y7497D01*
X22358Y7598D01*
X22155Y7497D01*
X43963Y62149D02*
X44065Y62352D01*
X43963Y62555D01*
X44166Y62454D01*
X44370Y62555D01*
X44268Y62352D01*
X44370Y62149D01*
X44166Y62250D01*
X43963Y62149D01*
X32526Y62297D02*
X32627Y62500D01*
X32526Y62703D01*
X32729Y62602D01*
X32932Y62703D01*
X32830Y62500D01*
X32932Y62297D01*
X32729Y62398D01*
X32526Y62297D01*
X21071Y62197D02*
X21173Y62400D01*
X21071Y62603D01*
X21275Y62502D01*
X21478Y62603D01*
X21376Y62400D01*
X21478Y62197D01*
X21275Y62299D01*
X21071Y62197D01*
X20997Y10458D02*
X21098Y10661D01*
X20997Y10865D01*
X21200Y10763D01*
X21403Y10865D01*
X21302Y10661D01*
X21403Y10458D01*
X21200Y10560D01*
X20997Y10458D01*
X23122Y12857D02*
X23223Y13060D01*
X23122Y13263D01*
X23325Y13161D01*
X23528Y13263D01*
X23427Y13060D01*
X23528Y12857D01*
X23325Y12958D01*
X23122Y12857D01*
X22917Y10572D02*
X23019Y10775D01*
X22917Y10978D01*
X23121Y10877D01*
X23324Y10978D01*
X23222Y10775D01*
X23324Y10572D01*
X23121Y10673D01*
X22917Y10572D01*
X23147Y12104D02*
X23248Y12307D01*
X23147Y12510D01*
X23350Y12408D01*
X23553Y12510D01*
X23452Y12307D01*
X23553Y12104D01*
X23350Y12205D01*
X23147Y12104D01*
X23122Y9630D02*
X23223Y9834D01*
X23122Y10037D01*
X23325Y9935D01*
X23528Y10037D01*
X23427Y9834D01*
X23528Y9630D01*
X23325Y9732D01*
X23122Y9630D01*
X19218Y18172D02*
X19319Y18376D01*
X19218Y18579D01*
X19421Y18477D01*
X19624Y18579D01*
X19523Y18376D01*
X19624Y18172D01*
X19421Y18274D01*
X19218Y18172D01*
X47524Y45088D02*
X47626Y45292D01*
X47524Y45495D01*
X47727Y45393D01*
X47930Y45495D01*
X47829Y45292D01*
X47930Y45088D01*
X47727Y45190D01*
X47524Y45088D01*
X41547Y50547D02*
X41648Y50750D01*
X41547Y50953D01*
X41750Y50852D01*
X41953Y50953D01*
X41852Y50750D01*
X41953Y50547D01*
X41750Y50648D01*
X41547Y50547D01*
X37309Y59929D02*
X37410Y60132D01*
X37309Y60335D01*
X37512Y60234D01*
X37715Y60335D01*
X37613Y60132D01*
X37715Y59929D01*
X37512Y60030D01*
X37309Y59929D01*
X35771Y59929D02*
X35873Y60132D01*
X35771Y60335D01*
X35974Y60234D01*
X36178Y60335D01*
X36076Y60132D01*
X36178Y59929D01*
X35974Y60030D01*
X35771Y59929D01*
X13429Y2115D02*
X13530Y2318D01*
X13429Y2522D01*
X13632Y2420D01*
X13835Y2522D01*
X13734Y2318D01*
X13835Y2115D01*
X13632Y2217D01*
X13429Y2115D01*
X19688Y22697D02*
X19790Y22900D01*
X19688Y23103D01*
X19892Y23002D01*
X20095Y23103D01*
X19993Y22900D01*
X20095Y22697D01*
X19892Y22798D01*
X19688Y22697D01*
X15447Y29590D02*
X15548Y29793D01*
X15447Y29996D01*
X15650Y29894D01*
X15853Y29996D01*
X15752Y29793D01*
X15853Y29590D01*
X15650Y29691D01*
X15447Y29590D01*
X11797Y32259D02*
X11898Y32462D01*
X11797Y32665D01*
X12000Y32564D01*
X12203Y32665D01*
X12102Y32462D01*
X12203Y32259D01*
X12000Y32360D01*
X11797Y32259D01*
X28793Y34571D02*
X28894Y34774D01*
X28793Y34977D01*
X28996Y34876D01*
X29199Y34977D01*
X29098Y34774D01*
X29199Y34571D01*
X28996Y34672D01*
X28793Y34571D01*
X30797Y35294D02*
X30898Y35497D01*
X30797Y35701D01*
X31000Y35599D01*
X31203Y35701D01*
X31102Y35497D01*
X31203Y35294D01*
X31000Y35396D01*
X30797Y35294D01*
X36953Y30429D02*
X37054Y30632D01*
X36953Y30835D01*
X37156Y30734D01*
X37359Y30835D01*
X37257Y30632D01*
X37359Y30429D01*
X37156Y30531D01*
X36953Y30429D01*
X28793Y37513D02*
X28894Y37716D01*
X28793Y37919D01*
X28996Y37818D01*
X29199Y37919D01*
X29098Y37716D01*
X29199Y37513D01*
X28996Y37615D01*
X28793Y37513D01*
X29797Y42676D02*
X29898Y42879D01*
X29797Y43082D01*
X30000Y42980D01*
X30203Y43082D01*
X30102Y42879D01*
X30203Y42676D01*
X30000Y42777D01*
X29797Y42676D01*
X41516Y31504D02*
X41618Y31707D01*
X41516Y31911D01*
X41719Y31809D01*
X41923Y31911D01*
X41821Y31707D01*
X41923Y31504D01*
X41719Y31606D01*
X41516Y31504D01*
X42721Y33502D02*
X42822Y33705D01*
X42721Y33908D01*
X42924Y33807D01*
X43127Y33908D01*
X43026Y33705D01*
X43127Y33502D01*
X42924Y33603D01*
X42721Y33502D01*
X50415Y55534D02*
X50516Y55737D01*
X50415Y55940D01*
X50618Y55838D01*
X50821Y55940D01*
X50719Y55737D01*
X50821Y55534D01*
X50618Y55635D01*
X50415Y55534D01*
X49388Y59685D02*
X49489Y59888D01*
X49388Y60091D01*
X49591Y59989D01*
X49794Y60091D01*
X49693Y59888D01*
X49794Y59685D01*
X49591Y59786D01*
X49388Y59685D01*
X54473Y51769D02*
X54574Y51972D01*
X54473Y52175D01*
X54676Y52074D01*
X54879Y52175D01*
X54777Y51972D01*
X54879Y51769D01*
X54676Y51871D01*
X54473Y51769D01*
X54473Y55497D02*
X54574Y55700D01*
X54473Y55903D01*
X54676Y55802D01*
X54879Y55903D01*
X54777Y55700D01*
X54879Y55497D01*
X54676Y55598D01*
X54473Y55497D01*
X51761Y54514D02*
X51862Y54718D01*
X51761Y54921D01*
X51964Y54819D01*
X52167Y54921D01*
X52066Y54718D01*
X52167Y54514D01*
X51964Y54616D01*
X51761Y54514D01*
X51775Y59586D02*
X51877Y59789D01*
X51775Y59992D01*
X51978Y59890D01*
X52182Y59992D01*
X52080Y59789D01*
X52182Y59586D01*
X51978Y59687D01*
X51775Y59586D01*
X54473Y57092D02*
X54574Y57296D01*
X54473Y57499D01*
X54676Y57397D01*
X54879Y57499D01*
X54777Y57296D01*
X54879Y57092D01*
X54676Y57194D01*
X54473Y57092D01*
X48578Y26597D02*
X48680Y26800D01*
X48578Y27003D01*
X48782Y26902D01*
X48985Y27003D01*
X48883Y26800D01*
X48985Y26597D01*
X48782Y26698D01*
X48578Y26597D01*
X48588Y23597D02*
X48689Y23800D01*
X48588Y24003D01*
X48791Y23902D01*
X48994Y24003D01*
X48892Y23800D01*
X48994Y23597D01*
X48791Y23698D01*
X48588Y23597D01*
X41547Y30526D02*
X41648Y30729D01*
X41547Y30933D01*
X41750Y30831D01*
X41953Y30933D01*
X41852Y30729D01*
X41953Y30526D01*
X41750Y30628D01*
X41547Y30526D01*
X42172Y32351D02*
X42273Y32554D01*
X42172Y32757D01*
X42375Y32656D01*
X42578Y32757D01*
X42477Y32554D01*
X42578Y32351D01*
X42375Y32453D01*
X42172Y32351D01*
X50397Y27284D02*
X50498Y27487D01*
X50397Y27691D01*
X50600Y27589D01*
X50803Y27691D01*
X50702Y27487D01*
X50803Y27284D01*
X50600Y27386D01*
X50397Y27284D01*
X46597Y23597D02*
X46698Y23800D01*
X46597Y24003D01*
X46800Y23902D01*
X47003Y24003D01*
X46902Y23800D01*
X47003Y23597D01*
X46800Y23698D01*
X46597Y23597D01*
X41648Y14947D02*
X41749Y15150D01*
X41648Y15353D01*
X41851Y15252D01*
X42054Y15353D01*
X41952Y15150D01*
X42054Y14947D01*
X41851Y15048D01*
X41648Y14947D01*
X47165Y18270D02*
X47266Y18473D01*
X47165Y18676D01*
X47368Y18575D01*
X47571Y18676D01*
X47470Y18473D01*
X47571Y18270D01*
X47368Y18372D01*
X47165Y18270D01*
X44747Y27284D02*
X44848Y27487D01*
X44747Y27691D01*
X44950Y27589D01*
X45153Y27691D01*
X45052Y27487D01*
X45153Y27284D01*
X44950Y27386D01*
X44747Y27284D01*
X43147Y27912D02*
X43248Y28115D01*
X43147Y28318D01*
X43350Y28217D01*
X43553Y28318D01*
X43452Y28115D01*
X43553Y27912D01*
X43350Y28014D01*
X43147Y27912D01*
X36953Y26497D02*
X37054Y26700D01*
X36953Y26903D01*
X37156Y26802D01*
X37359Y26903D01*
X37257Y26700D01*
X37359Y26497D01*
X37156Y26598D01*
X36953Y26497D01*
X11782Y34197D02*
X11883Y34400D01*
X11782Y34603D01*
X11985Y34502D01*
X12188Y34603D01*
X12086Y34400D01*
X12188Y34197D01*
X11985Y34299D01*
X11782Y34197D01*
X42172Y29197D02*
X42273Y29400D01*
X42172Y29603D01*
X42375Y29502D01*
X42578Y29603D01*
X42477Y29400D01*
X42578Y29197D01*
X42375Y29298D01*
X42172Y29197D01*
X42533Y27909D02*
X42635Y28112D01*
X42533Y28316D01*
X42736Y28214D01*
X42939Y28316D01*
X42838Y28112D01*
X42939Y27909D01*
X42736Y28011D01*
X42533Y27909D01*
X29797Y45597D02*
X29898Y45800D01*
X29797Y46003D01*
X30000Y45902D01*
X30203Y46003D01*
X30102Y45800D01*
X30203Y45597D01*
X30000Y45698D01*
X29797Y45597D01*
X43556Y34690D02*
X43658Y34893D01*
X43556Y35096D01*
X43760Y34995D01*
X43963Y35096D01*
X43861Y34893D01*
X43963Y34690D01*
X43760Y34791D01*
X43556Y34690D01*
X31799Y48306D02*
X31900Y48509D01*
X31799Y48712D01*
X32002Y48611D01*
X32205Y48712D01*
X32103Y48509D01*
X32205Y48306D01*
X32002Y48407D01*
X31799Y48306D01*
X10823Y57390D02*
X10925Y57593D01*
X10823Y57796D01*
X11027Y57695D01*
X11230Y57796D01*
X11128Y57593D01*
X11230Y57390D01*
X11027Y57491D01*
X10823Y57390D01*
X8974Y57390D02*
X9075Y57593D01*
X8974Y57796D01*
X9177Y57695D01*
X9380Y57796D01*
X9279Y57593D01*
X9380Y57390D01*
X9177Y57491D01*
X8974Y57390D01*
X15890Y11242D02*
X15991Y11445D01*
X15890Y11648D01*
X16093Y11547D01*
X16296Y11648D01*
X16194Y11445D01*
X16296Y11242D01*
X16093Y11343D01*
X15890Y11242D01*
X49733Y41106D02*
X49834Y41309D01*
X49733Y41512D01*
X49936Y41411D01*
X50139Y41512D01*
X50038Y41309D01*
X50139Y41106D01*
X49936Y41207D01*
X49733Y41106D01*
X52468Y44881D02*
X52570Y45084D01*
X52468Y45287D01*
X52671Y45186D01*
X52874Y45287D01*
X52773Y45084D01*
X52874Y44881D01*
X52671Y44982D01*
X52468Y44881D01*
X43307Y17397D02*
X43408Y17600D01*
X43307Y17803D01*
X43510Y17702D01*
X43713Y17803D01*
X43611Y17600D01*
X43713Y17397D01*
X43510Y17498D01*
X43307Y17397D01*
X43670Y22456D02*
X43772Y22660D01*
X43670Y22863D01*
X43873Y22761D01*
X44077Y22863D01*
X43975Y22660D01*
X44077Y22456D01*
X43873Y22558D01*
X43670Y22456D01*
X40524Y22456D02*
X40625Y22660D01*
X40524Y22863D01*
X40727Y22761D01*
X40930Y22863D01*
X40829Y22660D01*
X40930Y22456D01*
X40727Y22558D01*
X40524Y22456D01*
X40524Y26497D02*
X40625Y26700D01*
X40524Y26903D01*
X40727Y26802D01*
X40930Y26903D01*
X40829Y26700D01*
X40930Y26497D01*
X40727Y26598D01*
X40524Y26497D01*
X49388Y52667D02*
X49489Y52871D01*
X49388Y53074D01*
X49591Y52972D01*
X49794Y53074D01*
X49693Y52871D01*
X49794Y52667D01*
X49591Y52769D01*
X49388Y52667D01*
X54473Y60745D02*
X54574Y60948D01*
X54473Y61152D01*
X54676Y61050D01*
X54879Y61152D01*
X54777Y60948D01*
X54879Y60745D01*
X54676Y60847D01*
X54473Y60745D01*
X47260Y30825D02*
X47361Y31028D01*
X47260Y31232D01*
X47463Y31130D01*
X47666Y31232D01*
X47565Y31028D01*
X47666Y30825D01*
X47463Y30927D01*
X47260Y30825D01*
X42948Y38465D02*
X43050Y38668D01*
X42948Y38871D01*
X43152Y38770D01*
X43355Y38871D01*
X43253Y38668D01*
X43355Y38465D01*
X43152Y38567D01*
X42948Y38465D01*
X43183Y43266D02*
X43285Y43469D01*
X43183Y43672D01*
X43387Y43571D01*
X43590Y43672D01*
X43488Y43469D01*
X43590Y43266D01*
X43387Y43368D01*
X43183Y43266D01*
X33827Y55963D02*
X33928Y56166D01*
X33827Y56369D01*
X34030Y56267D01*
X34233Y56369D01*
X34131Y56166D01*
X34233Y55963D01*
X34030Y56064D01*
X33827Y55963D01*
X22351Y57525D02*
X22453Y57729D01*
X22351Y57932D01*
X22554Y57830D01*
X22758Y57932D01*
X22656Y57729D01*
X22758Y57525D01*
X22554Y57627D01*
X22351Y57525D01*
X13634Y42639D02*
X13735Y42842D01*
X13634Y43045D01*
X13837Y42944D01*
X14040Y43045D01*
X13939Y42842D01*
X14040Y42639D01*
X13837Y42741D01*
X13634Y42639D01*
X13649Y46191D02*
X13751Y46394D01*
X13649Y46597D01*
X13852Y46495D01*
X14055Y46597D01*
X13954Y46394D01*
X14055Y46191D01*
X13852Y46292D01*
X13649Y46191D01*
X12047Y49797D02*
X12148Y50000D01*
X12047Y50203D01*
X12250Y50102D01*
X12453Y50203D01*
X12352Y50000D01*
X12453Y49797D01*
X12250Y49898D01*
X12047Y49797D01*
X12047Y47468D02*
X12148Y47671D01*
X12047Y47874D01*
X12250Y47772D01*
X12453Y47874D01*
X12352Y47671D01*
X12453Y47468D01*
X12250Y47569D01*
X12047Y47468D01*
X6797Y42331D02*
X6898Y42534D01*
X6797Y42737D01*
X7000Y42635D01*
X7203Y42737D01*
X7102Y42534D01*
X7203Y42331D01*
X7000Y42432D01*
X6797Y42331D01*
X6797Y47468D02*
X6898Y47671D01*
X6797Y47874D01*
X7000Y47772D01*
X7203Y47874D01*
X7102Y47671D01*
X7203Y47468D01*
X7000Y47569D01*
X6797Y47468D01*
X6797Y50047D02*
X6898Y50250D01*
X6797Y50453D01*
X7000Y50352D01*
X7203Y50453D01*
X7102Y50250D01*
X7203Y50047D01*
X7000Y50148D01*
X6797Y50047D01*
X8414Y54797D02*
X8515Y55000D01*
X8414Y55203D01*
X8617Y55102D01*
X8820Y55203D01*
X8718Y55000D01*
X8820Y54797D01*
X8617Y54898D01*
X8414Y54797D01*
X7651Y17807D02*
X7651Y18213D01*
X8058Y18213D01*
X8058Y17807D01*
X7651Y17807D01*
X7753Y17908D02*
X7753Y18111D01*
X7956Y18111D01*
X7956Y17908D01*
X7753Y17908D01*
X7597Y18431D02*
X7597Y18837D01*
X8003Y18837D01*
X8003Y18431D01*
X7597Y18431D01*
X7698Y18532D02*
X7698Y18735D01*
X7902Y18735D01*
X7902Y18532D01*
X7698Y18532D01*
X9439Y17567D02*
X9540Y17770D01*
X9439Y17974D01*
X9642Y17872D01*
X9845Y17974D01*
X9743Y17770D01*
X9845Y17567D01*
X9642Y17669D01*
X9439Y17567D01*
X4180Y17847D02*
X4180Y18253D01*
X4586Y18253D01*
X4586Y17847D01*
X4180Y17847D01*
X4282Y17948D02*
X4282Y18152D01*
X4485Y18152D01*
X4485Y17948D01*
X4282Y17948D01*
X47165Y29897D02*
X47266Y30100D01*
X47165Y30303D01*
X47368Y30202D01*
X47571Y30303D01*
X47470Y30100D01*
X47571Y29897D01*
X47368Y29998D01*
X47165Y29897D01*
X33827Y58047D02*
X33928Y58250D01*
X33827Y58453D01*
X34030Y58352D01*
X34233Y58453D01*
X34131Y58250D01*
X34233Y58047D01*
X34030Y58148D01*
X33827Y58047D01*
X22351Y55963D02*
X22453Y56166D01*
X22351Y56369D01*
X22554Y56267D01*
X22758Y56369D01*
X22656Y56166D01*
X22758Y55963D01*
X22554Y56064D01*
X22351Y55963D01*
X41718Y55963D02*
X41820Y56166D01*
X41718Y56369D01*
X41921Y56267D01*
X42125Y56369D01*
X42023Y56166D01*
X42125Y55963D01*
X41921Y56064D01*
X41718Y55963D01*
X21472Y37476D02*
X21573Y37679D01*
X21472Y37883D01*
X21675Y37781D01*
X21878Y37883D01*
X21777Y37679D01*
X21878Y37476D01*
X21675Y37578D01*
X21472Y37476D01*
X24047Y42639D02*
X24148Y42842D01*
X24047Y43045D01*
X24250Y42944D01*
X24453Y43045D01*
X24352Y42842D01*
X24453Y42639D01*
X24250Y42741D01*
X24047Y42639D01*
X11782Y37626D02*
X11883Y37829D01*
X11782Y38033D01*
X11985Y37931D01*
X12188Y38033D01*
X12086Y37829D01*
X12188Y37626D01*
X11985Y37728D01*
X11782Y37626D01*
X12791Y14572D02*
X12893Y14776D01*
X12791Y14979D01*
X12994Y14877D01*
X13197Y14979D01*
X13096Y14776D01*
X13197Y14572D01*
X12994Y14674D01*
X12791Y14572D01*
X20047Y7654D02*
X20148Y7857D01*
X20047Y8061D01*
X20250Y7959D01*
X20453Y8061D01*
X20352Y7857D01*
X20453Y7654D01*
X20250Y7756D01*
X20047Y7654D01*
X7678Y10442D02*
X7780Y10645D01*
X7678Y10848D01*
X7881Y10747D01*
X8085Y10848D01*
X7983Y10645D01*
X8085Y10442D01*
X7881Y10543D01*
X7678Y10442D01*
X7678Y13722D02*
X7780Y13925D01*
X7678Y14128D01*
X7881Y14027D01*
X8085Y14128D01*
X7983Y13925D01*
X8085Y13722D01*
X7881Y13823D01*
X7678Y13722D01*
X4097Y9797D02*
X4198Y10000D01*
X4097Y10203D01*
X4300Y10102D01*
X4503Y10203D01*
X4402Y10000D01*
X4503Y9797D01*
X4300Y9898D01*
X4097Y9797D01*
X19247Y11699D02*
X19348Y11902D01*
X19247Y12105D01*
X19450Y12004D01*
X19653Y12105D01*
X19552Y11902D01*
X19653Y11699D01*
X19450Y11801D01*
X19247Y11699D01*
X15970Y12392D02*
X16072Y12595D01*
X15970Y12798D01*
X16173Y12697D01*
X16377Y12798D01*
X16275Y12595D01*
X16377Y12392D01*
X16173Y12493D01*
X15970Y12392D01*
X7924Y37626D02*
X8025Y37829D01*
X7924Y38033D01*
X8127Y37931D01*
X8330Y38033D01*
X8229Y37829D01*
X8330Y37626D01*
X8127Y37728D01*
X7924Y37626D01*
X15094Y20183D02*
X15196Y20386D01*
X15094Y20589D01*
X15297Y20488D01*
X15500Y20589D01*
X15399Y20386D01*
X15500Y20183D01*
X15297Y20285D01*
X15094Y20183D01*
X9248Y14127D02*
X9349Y14330D01*
X9248Y14534D01*
X9451Y14432D01*
X9654Y14534D01*
X9553Y14330D01*
X9654Y14127D01*
X9451Y14229D01*
X9248Y14127D01*
X19297Y13674D02*
X19398Y13878D01*
X19297Y14081D01*
X19500Y13979D01*
X19703Y14081D01*
X19602Y13878D01*
X19703Y13674D01*
X19500Y13776D01*
X19297Y13674D01*
X40555Y6653D02*
X40656Y6857D01*
X40555Y7060D01*
X40758Y6958D01*
X40961Y7060D01*
X40859Y6857D01*
X40961Y6653D01*
X40758Y6755D01*
X40555Y6653D01*
X37578Y18270D02*
X37679Y18473D01*
X37578Y18676D01*
X37781Y18575D01*
X37984Y18676D01*
X37882Y18473D01*
X37984Y18270D01*
X37781Y18372D01*
X37578Y18270D01*
X12095Y54687D02*
X12197Y54890D01*
X12095Y55093D01*
X12298Y54992D01*
X12502Y55093D01*
X12400Y54890D01*
X12502Y54687D01*
X12298Y54788D01*
X12095Y54687D01*
X36753Y9642D02*
X36854Y9845D01*
X36753Y10048D01*
X36956Y9947D01*
X37159Y10048D01*
X37057Y9845D01*
X37159Y9642D01*
X36956Y9743D01*
X36753Y9642D01*
X19297Y9017D02*
X19398Y9220D01*
X19297Y9423D01*
X19500Y9322D01*
X19703Y9423D01*
X19602Y9220D01*
X19703Y9017D01*
X19500Y9118D01*
X19297Y9017D01*
X20047Y10697D02*
X20148Y10900D01*
X20047Y11103D01*
X20250Y11002D01*
X20453Y11103D01*
X20352Y10900D01*
X20453Y10697D01*
X20250Y10798D01*
X20047Y10697D01*
X47784Y10910D02*
X47886Y11113D01*
X47784Y11316D01*
X47987Y11214D01*
X48191Y11316D01*
X48089Y11113D01*
X48191Y10910D01*
X47987Y11011D01*
X47784Y10910D01*
X51873Y14797D02*
X51975Y15000D01*
X51873Y15203D01*
X52077Y15102D01*
X52280Y15203D01*
X52178Y15000D01*
X52280Y14797D01*
X52077Y14898D01*
X51873Y14797D01*
X47097Y59929D02*
X47198Y60132D01*
X47097Y60335D01*
X47300Y60234D01*
X47503Y60335D01*
X47402Y60132D01*
X47503Y59929D01*
X47300Y60030D01*
X47097Y59929D01*
X25871Y59929D02*
X25973Y60132D01*
X25871Y60335D01*
X26074Y60234D01*
X26278Y60335D01*
X26176Y60132D01*
X26278Y59929D01*
X26074Y60030D01*
X25871Y59929D01*
X24334Y59929D02*
X24435Y60132D01*
X24334Y60335D01*
X24537Y60234D01*
X24740Y60335D01*
X24638Y60132D01*
X24740Y59929D01*
X24537Y60030D01*
X24334Y59929D01*
X14434Y59929D02*
X14535Y60132D01*
X14434Y60335D01*
X14637Y60234D01*
X14840Y60335D01*
X14738Y60132D01*
X14840Y59929D01*
X14637Y60030D01*
X14434Y59929D01*
X12896Y59929D02*
X12998Y60132D01*
X12896Y60335D01*
X13099Y60234D01*
X13303Y60335D01*
X13201Y60132D01*
X13303Y59929D01*
X13099Y60030D01*
X12896Y59929D01*
X15423Y22600D02*
X15525Y22803D01*
X15423Y23006D01*
X15627Y22905D01*
X15830Y23006D01*
X15728Y22803D01*
X15830Y22600D01*
X15627Y22702D01*
X15423Y22600D01*
X17372Y18076D02*
X17473Y18279D01*
X17372Y18483D01*
X17575Y18381D01*
X17778Y18483D01*
X17677Y18279D01*
X17778Y18076D01*
X17575Y18178D01*
X17372Y18076D01*
X11314Y18722D02*
X11415Y18925D01*
X11314Y19128D01*
X11517Y19027D01*
X11720Y19128D01*
X11618Y18925D01*
X11720Y18722D01*
X11517Y18823D01*
X11314Y18722D01*
X2722Y15301D02*
X2824Y15504D01*
X2722Y15708D01*
X2926Y15606D01*
X3129Y15708D01*
X3027Y15504D01*
X3129Y15301D01*
X2926Y15403D01*
X2722Y15301D01*
X1926Y11626D02*
X2027Y11829D01*
X1926Y12033D01*
X2129Y11931D01*
X2332Y12033D01*
X2231Y11829D01*
X2332Y11626D01*
X2129Y11728D01*
X1926Y11626D01*
X3897Y11371D02*
X3998Y11574D01*
X3897Y11778D01*
X4100Y11676D01*
X4303Y11778D01*
X4202Y11574D01*
X4303Y11371D01*
X4100Y11473D01*
X3897Y11371D01*
X7565Y6701D02*
X7667Y6904D01*
X7565Y7108D01*
X7769Y7006D01*
X7972Y7108D01*
X7870Y6904D01*
X7972Y6701D01*
X7769Y6803D01*
X7565Y6701D01*
X12634Y5368D02*
X12735Y5571D01*
X12634Y5775D01*
X12837Y5673D01*
X13040Y5775D01*
X12938Y5571D01*
X13040Y5368D01*
X12837Y5470D01*
X12634Y5368D01*
X32540Y22997D02*
X32642Y23200D01*
X32540Y23403D01*
X32743Y23302D01*
X32946Y23403D01*
X32845Y23200D01*
X32946Y22997D01*
X32743Y23098D01*
X32540Y22997D01*
X32540Y24297D02*
X32642Y24500D01*
X32540Y24703D01*
X32743Y24602D01*
X32946Y24703D01*
X32845Y24500D01*
X32946Y24297D01*
X32743Y24398D01*
X32540Y24297D01*
X39912Y2930D02*
X40014Y3133D01*
X39912Y3336D01*
X40116Y3235D01*
X40319Y3336D01*
X40217Y3133D01*
X40319Y2930D01*
X40116Y3032D01*
X39912Y2930D01*
X46160Y8354D02*
X46262Y8557D01*
X46160Y8760D01*
X46364Y8659D01*
X46567Y8760D01*
X46465Y8557D01*
X46567Y8354D01*
X46364Y8456D01*
X46160Y8354D01*
X8258Y11242D02*
X8360Y11445D01*
X8258Y11648D01*
X8461Y11547D01*
X8665Y11648D01*
X8563Y11445D01*
X8665Y11242D01*
X8461Y11343D01*
X8258Y11242D01*
X7378Y11950D02*
X7480Y12154D01*
X7378Y12357D01*
X7581Y12255D01*
X7785Y12357D01*
X7683Y12154D01*
X7785Y11950D01*
X7581Y12052D01*
X7378Y11950D01*
X5530Y12455D02*
X5632Y12659D01*
X5530Y12862D01*
X5734Y12760D01*
X5937Y12862D01*
X5835Y12659D01*
X5937Y12455D01*
X5734Y12557D01*
X5530Y12455D01*
X14388Y18097D02*
X14490Y18300D01*
X14388Y18503D01*
X14591Y18402D01*
X14795Y18503D01*
X14693Y18300D01*
X14795Y18097D01*
X14591Y18198D01*
X14388Y18097D01*
X13688Y18097D02*
X13688Y18503D01*
X14095Y18503D01*
X14095Y18097D01*
X13688Y18097D01*
X13790Y18198D02*
X13790Y18402D01*
X13993Y18402D01*
X13993Y18198D01*
X13790Y18198D01*
X13997Y22597D02*
X14098Y22800D01*
X13997Y23003D01*
X14200Y22902D01*
X14403Y23003D01*
X14302Y22800D01*
X14403Y22597D01*
X14200Y22698D01*
X13997Y22597D01*
X4266Y12967D02*
X4266Y13373D01*
X4672Y13373D01*
X4672Y12967D01*
X4266Y12967D01*
X4367Y13068D02*
X4367Y13271D01*
X4570Y13271D01*
X4570Y13068D01*
X4367Y13068D01*
X2722Y11647D02*
X2722Y12053D01*
X3129Y12053D01*
X3129Y11647D01*
X2722Y11647D01*
X2824Y11748D02*
X2824Y11952D01*
X3027Y11952D01*
X3027Y11748D01*
X2824Y11748D01*
X1570Y20556D02*
X1570Y20963D01*
X1977Y20963D01*
X1977Y20556D01*
X1570Y20556D01*
X1672Y20658D02*
X1672Y20861D01*
X1875Y20861D01*
X1875Y20658D01*
X1672Y20658D01*
X2427Y20879D02*
X2427Y21286D01*
X2833Y21286D01*
X2833Y20879D01*
X2427Y20879D01*
X2528Y20981D02*
X2528Y21184D01*
X2732Y21184D01*
X2732Y20981D01*
X2528Y20981D01*
X7597Y15417D02*
X7597Y15823D01*
X8003Y15823D01*
X8003Y15417D01*
X7597Y15417D01*
X7698Y15518D02*
X7698Y15722D01*
X7902Y15722D01*
X7902Y15518D01*
X7698Y15518D01*
X7597Y9017D02*
X7597Y9423D01*
X8003Y9423D01*
X8003Y9017D01*
X7597Y9017D01*
X7698Y9118D02*
X7698Y9322D01*
X7902Y9322D01*
X7902Y9118D01*
X7698Y9118D01*
D134*
X56569Y53788D02*
G03*
X56569Y53788I-203J0D01*
G01*
X56576Y59000D02*
G03*
X56576Y59000I-203J0D01*
G01*
X6285Y8110D02*
G03*
X6285Y8110I-203J0D01*
G01*
X6285Y16750D02*
G03*
X6285Y16750I-203J0D01*
G01*
D135*
X56467Y53788D02*
G03*
X56467Y53788I-102J0D01*
G01*
X56475Y59000D02*
G03*
X56475Y59000I-102J0D01*
G01*
M02*
