G04*
G04 #@! TF.GenerationSoftware,Altium Limited,Altium Designer,25.3.3 (18)*
G04*
G04 Layer_Physical_Order=1*
G04 Layer_Color=255*
%FSLAX43Y43*%
%MOMM*%
G71*
G04*
G04 #@! TF.SameCoordinates,2C7348AD-4C7E-41B6-A591-0481B25FC2A4*
G04*
G04*
G04 #@! TF.FilePolarity,Positive*
G04*
G01*
G75*
%ADD10C,0.200*%
%ADD12C,0.254*%
%ADD13C,0.100*%
%ADD15C,0.250*%
%ADD17C,0.178*%
%ADD18C,0.150*%
%ADD19C,0.127*%
%ADD20C,0.180*%
%ADD21C,0.350*%
%ADD26R,2.250X1.000*%
%ADD27R,0.800X0.800*%
%ADD28O,0.800X0.200*%
%ADD29O,0.200X0.800*%
G04:AMPARAMS|DCode=30|XSize=1.4mm|YSize=0.9mm|CornerRadius=0.225mm|HoleSize=0mm|Usage=FLASHONLY|Rotation=180.000|XOffset=0mm|YOffset=0mm|HoleType=Round|Shape=RoundedRectangle|*
%AMROUNDEDRECTD30*
21,1,1.400,0.450,0,0,180.0*
21,1,0.950,0.900,0,0,180.0*
1,1,0.450,-0.475,0.225*
1,1,0.450,0.475,0.225*
1,1,0.450,0.475,-0.225*
1,1,0.450,-0.475,-0.225*
%
%ADD30ROUNDEDRECTD30*%
%ADD31R,1.150X0.300*%
%ADD32R,1.150X0.600*%
G04:AMPARAMS|DCode=33|XSize=1.4mm|YSize=0.9mm|CornerRadius=0.225mm|HoleSize=0mm|Usage=FLASHONLY|Rotation=270.000|XOffset=0mm|YOffset=0mm|HoleType=Round|Shape=RoundedRectangle|*
%AMROUNDEDRECTD33*
21,1,1.400,0.450,0,0,270.0*
21,1,0.950,0.900,0,0,270.0*
1,1,0.450,-0.225,-0.475*
1,1,0.450,-0.225,0.475*
1,1,0.450,0.225,0.475*
1,1,0.450,0.225,-0.475*
%
%ADD33ROUNDEDRECTD33*%
%ADD52R,1.800X1.800*%
%ADD53C,0.160*%
%ADD54C,1.600*%
%ADD55O,1.800X1.000*%
%ADD56O,1.900X1.000*%
%ADD57C,6.400*%
%ADD58C,0.550*%
%ADD59C,0.500*%
G36*
X54988Y69545D02*
X54914Y69509D01*
X54777Y69432D01*
X54643Y69349D01*
X54514Y69261D01*
X54388Y69166D01*
X54267Y69066D01*
X54151Y68960D01*
X54040Y68849D01*
X53934Y68732D01*
X53834Y68612D01*
X53739Y68486D01*
X53651Y68357D01*
X53568Y68223D01*
X53491Y68086D01*
X53421Y67945D01*
X53358Y67801D01*
X53301Y67655D01*
X53251Y67506D01*
X53208Y67355D01*
X53172Y67202D01*
X53143Y67048D01*
X53122Y66892D01*
X53107Y66735D01*
X53100Y66579D01*
X53100Y66421D01*
X53107Y66264D01*
X53122Y66108D01*
X53143Y65952D01*
X53172Y65798D01*
X53208Y65645D01*
X53251Y65494D01*
X53301Y65345D01*
X53358Y65199D01*
X53421Y65055D01*
X53491Y64914D01*
X53568Y64777D01*
X53651Y64643D01*
X53739Y64514D01*
X53834Y64388D01*
X53934Y64267D01*
X54040Y64151D01*
X54151Y64040D01*
X54267Y63934D01*
X54388Y63834D01*
X54514Y63739D01*
X54643Y63651D01*
X54777Y63568D01*
X54914Y63491D01*
X55055Y63421D01*
X55199Y63358D01*
X55345Y63301D01*
X55494Y63251D01*
X55645Y63208D01*
X55798Y63172D01*
X55952Y63143D01*
X56108Y63122D01*
X56265Y63107D01*
X56421Y63100D01*
X56579Y63100D01*
X56735Y63107D01*
X56892Y63122D01*
X57048Y63143D01*
X57202Y63172D01*
X57355Y63208D01*
X57506Y63251D01*
X57655Y63301D01*
X57801Y63358D01*
X57945Y63421D01*
X58086Y63491D01*
X58223Y63568D01*
X58357Y63651D01*
X58486Y63739D01*
X58612Y63834D01*
X58733Y63934D01*
X58849Y64040D01*
X58960Y64151D01*
X59066Y64267D01*
X59166Y64388D01*
X59261Y64514D01*
X59349Y64643D01*
X59432Y64777D01*
X59509Y64914D01*
X59545Y64988D01*
X59745Y64941D01*
X59745Y54595D01*
X57500Y54595D01*
X57500Y59265D01*
X57452Y59313D01*
X57443Y59357D01*
X57420Y59440D01*
X57390Y59521D01*
X57354Y59600D01*
X57312Y59675D01*
X57264Y59747D01*
X57210Y59815D01*
X57151Y59878D01*
X57088Y59937D01*
X57020Y59991D01*
X56948Y60039D01*
X56873Y60081D01*
X56794Y60117D01*
X56713Y60147D01*
X56630Y60170D01*
X56586Y60179D01*
X54493Y62272D01*
X52765Y64000D01*
X15668Y64000D01*
X10957Y59289D01*
X10903Y59284D01*
X10728Y59343D01*
X10725Y59353D01*
X10688Y59432D01*
X10644Y59508D01*
X10594Y59579D01*
X10538Y59646D01*
X10476Y59708D01*
X10410Y59764D01*
X10338Y59814D01*
X10262Y59858D01*
X10183Y59895D01*
X10101Y59925D01*
X10017Y59947D01*
X9931Y59962D01*
X9927Y59963D01*
X9927Y58970D01*
X9800Y58970D01*
X9800Y58843D01*
X8807Y58843D01*
X8808Y58839D01*
X8823Y58753D01*
X8846Y58669D01*
X8875Y58587D01*
X8912Y58508D01*
X8956Y58432D01*
X9006Y58361D01*
X9062Y58294D01*
X9093Y58263D01*
X9095Y58183D01*
X9090Y58158D01*
X9034Y58046D01*
X8995Y58032D01*
X8947Y58009D01*
X8902Y57981D01*
X8860Y57948D01*
X8822Y57910D01*
X8789Y57868D01*
X8761Y57823D01*
X8737Y57775D01*
X8720Y57725D01*
X8708Y57673D01*
X8702Y57620D01*
X8702Y57566D01*
X8708Y57513D01*
X8720Y57461D01*
X8737Y57411D01*
X8761Y57363D01*
X8789Y57318D01*
X8822Y57276D01*
X8860Y57238D01*
X8862Y57195D01*
X4009Y52341D01*
X4009Y34750D01*
X11334Y34750D01*
X11334Y25700D01*
X255Y25700D01*
X255Y64941D01*
X455Y64988D01*
X491Y64914D01*
X568Y64777D01*
X650Y64643D01*
X739Y64514D01*
X834Y64388D01*
X934Y64267D01*
X1040Y64151D01*
X1151Y64040D01*
X1267Y63934D01*
X1388Y63834D01*
X1514Y63739D01*
X1643Y63651D01*
X1777Y63568D01*
X1914Y63491D01*
X2055Y63421D01*
X2198Y63358D01*
X2345Y63301D01*
X2494Y63251D01*
X2645Y63208D01*
X2798Y63172D01*
X2952Y63143D01*
X3108Y63122D01*
X3264Y63107D01*
X3421Y63100D01*
X3578Y63100D01*
X3735Y63107D01*
X3892Y63122D01*
X4047Y63143D01*
X4202Y63172D01*
X4355Y63208D01*
X4506Y63251D01*
X4655Y63301D01*
X4801Y63358D01*
X4945Y63421D01*
X5086Y63491D01*
X5223Y63568D01*
X5357Y63651D01*
X5486Y63739D01*
X5612Y63834D01*
X5732Y63934D01*
X5848Y64040D01*
X5960Y64151D01*
X6065Y64267D01*
X6166Y64388D01*
X6260Y64514D01*
X6349Y64643D01*
X6432Y64777D01*
X6508Y64914D01*
X6578Y65055D01*
X6642Y65199D01*
X6699Y65345D01*
X6749Y65494D01*
X6792Y65645D01*
X6828Y65798D01*
X6856Y65952D01*
X6878Y66108D01*
X6893Y66264D01*
X6900Y66421D01*
X6900Y66579D01*
X6893Y66735D01*
X6878Y66892D01*
X6856Y67048D01*
X6828Y67202D01*
X6792Y67355D01*
X6749Y67506D01*
X6699Y67655D01*
X6642Y67801D01*
X6578Y67945D01*
X6508Y68086D01*
X6432Y68223D01*
X6349Y68357D01*
X6260Y68486D01*
X6166Y68612D01*
X6065Y68732D01*
X5960Y68849D01*
X5848Y68960D01*
X5732Y69066D01*
X5612Y69166D01*
X5486Y69261D01*
X5357Y69349D01*
X5223Y69432D01*
X5086Y69509D01*
X5012Y69545D01*
X5059Y69745D01*
X7188Y69745D01*
X7270Y69745D01*
X7431Y69724D01*
X7589Y69682D01*
X7740Y69619D01*
X7881Y69537D01*
X8011Y69438D01*
X8126Y69323D01*
X8225Y69193D01*
X8266Y69123D01*
X8269Y69119D01*
X8271Y69115D01*
X8322Y69032D01*
X8331Y69023D01*
X8337Y69011D01*
X8456Y68856D01*
X8469Y68845D01*
X8478Y68831D01*
X8617Y68692D01*
X8631Y68683D01*
X8642Y68670D01*
X8798Y68551D01*
X8813Y68543D01*
X8825Y68532D01*
X8995Y68434D01*
X9011Y68429D01*
X9025Y68419D01*
X9131Y68375D01*
X9167Y68317D01*
X9199Y68189D01*
X9197Y68149D01*
X9191Y68139D01*
X9161Y68091D01*
X9132Y68030D01*
X9110Y67966D01*
X9095Y67901D01*
X9087Y67834D01*
X9087Y67766D01*
X9095Y67699D01*
X9110Y67634D01*
X9132Y67570D01*
X9161Y67509D01*
X9197Y67452D01*
X9239Y67400D01*
X9287Y67352D01*
X9339Y67310D01*
X9396Y67274D01*
X9457Y67245D01*
X9521Y67223D01*
X9586Y67208D01*
X9653Y67200D01*
X9721Y67200D01*
X9788Y67208D01*
X9853Y67223D01*
X9917Y67245D01*
X9978Y67274D01*
X10035Y67310D01*
X10087Y67352D01*
X10135Y67400D01*
X10177Y67452D01*
X10213Y67509D01*
X10242Y67570D01*
X10264Y67634D01*
X10279Y67699D01*
X10287Y67766D01*
X10287Y67834D01*
X10279Y67901D01*
X10264Y67966D01*
X10242Y68030D01*
X10235Y68045D01*
X10288Y68174D01*
X10352Y68245D01*
X15322Y68245D01*
X15386Y68174D01*
X15439Y68045D01*
X15432Y68030D01*
X15410Y67966D01*
X15395Y67901D01*
X15387Y67834D01*
X15387Y67766D01*
X15395Y67699D01*
X15410Y67634D01*
X15432Y67570D01*
X15461Y67509D01*
X15497Y67452D01*
X15539Y67400D01*
X15587Y67352D01*
X15639Y67310D01*
X15696Y67274D01*
X15757Y67245D01*
X15821Y67223D01*
X15886Y67208D01*
X15953Y67200D01*
X16021Y67200D01*
X16088Y67208D01*
X16153Y67223D01*
X16217Y67245D01*
X16278Y67274D01*
X16335Y67310D01*
X16387Y67352D01*
X16435Y67400D01*
X16477Y67452D01*
X16513Y67509D01*
X16542Y67570D01*
X16564Y67634D01*
X16579Y67699D01*
X16587Y67766D01*
X16587Y67834D01*
X16579Y67901D01*
X16564Y67966D01*
X16542Y68030D01*
X16535Y68045D01*
X16588Y68174D01*
X16652Y68245D01*
X20460Y68245D01*
X20523Y68174D01*
X20577Y68045D01*
X20569Y68030D01*
X20547Y67966D01*
X20532Y67901D01*
X20525Y67834D01*
X20525Y67766D01*
X20532Y67699D01*
X20547Y67634D01*
X20569Y67570D01*
X20599Y67509D01*
X20635Y67452D01*
X20677Y67400D01*
X20724Y67352D01*
X20777Y67310D01*
X20834Y67274D01*
X20895Y67245D01*
X20958Y67223D01*
X21024Y67208D01*
X21091Y67200D01*
X21158Y67200D01*
X21225Y67208D01*
X21291Y67223D01*
X21355Y67245D01*
X21415Y67274D01*
X21472Y67310D01*
X21525Y67352D01*
X21573Y67400D01*
X21615Y67452D01*
X21651Y67509D01*
X21680Y67570D01*
X21702Y67634D01*
X21717Y67699D01*
X21725Y67766D01*
X21725Y67834D01*
X21717Y67901D01*
X21702Y67966D01*
X21680Y68030D01*
X21673Y68045D01*
X21726Y68174D01*
X21790Y68245D01*
X26760Y68245D01*
X26823Y68174D01*
X26877Y68045D01*
X26869Y68030D01*
X26847Y67966D01*
X26832Y67901D01*
X26825Y67834D01*
X26825Y67766D01*
X26832Y67699D01*
X26847Y67634D01*
X26869Y67570D01*
X26899Y67509D01*
X26935Y67452D01*
X26977Y67400D01*
X27024Y67352D01*
X27077Y67310D01*
X27134Y67274D01*
X27195Y67245D01*
X27258Y67223D01*
X27324Y67208D01*
X27391Y67200D01*
X27458Y67200D01*
X27525Y67208D01*
X27591Y67223D01*
X27655Y67245D01*
X27715Y67274D01*
X27772Y67310D01*
X27825Y67352D01*
X27873Y67400D01*
X27915Y67452D01*
X27951Y67509D01*
X27980Y67570D01*
X28002Y67634D01*
X28017Y67699D01*
X28025Y67766D01*
X28025Y67834D01*
X28017Y67901D01*
X28002Y67966D01*
X27980Y68030D01*
X27973Y68045D01*
X28026Y68174D01*
X28090Y68245D01*
X31897Y68245D01*
X31961Y68174D01*
X32014Y68045D01*
X32007Y68030D01*
X31985Y67966D01*
X31970Y67901D01*
X31962Y67834D01*
X31962Y67766D01*
X31970Y67699D01*
X31985Y67634D01*
X32007Y67570D01*
X32036Y67509D01*
X32072Y67452D01*
X32114Y67400D01*
X32162Y67352D01*
X32215Y67310D01*
X32272Y67274D01*
X32332Y67245D01*
X32396Y67223D01*
X32462Y67208D01*
X32529Y67200D01*
X32596Y67200D01*
X32663Y67208D01*
X32729Y67223D01*
X32792Y67245D01*
X32853Y67274D01*
X32910Y67310D01*
X32963Y67352D01*
X33010Y67400D01*
X33052Y67452D01*
X33088Y67509D01*
X33118Y67570D01*
X33140Y67634D01*
X33155Y67699D01*
X33162Y67766D01*
X33162Y67834D01*
X33155Y67901D01*
X33140Y67966D01*
X33118Y68030D01*
X33110Y68045D01*
X33164Y68174D01*
X33227Y68245D01*
X38197Y68245D01*
X38261Y68174D01*
X38314Y68045D01*
X38307Y68030D01*
X38285Y67966D01*
X38270Y67901D01*
X38262Y67834D01*
X38262Y67766D01*
X38270Y67699D01*
X38285Y67634D01*
X38307Y67570D01*
X38336Y67509D01*
X38372Y67452D01*
X38414Y67400D01*
X38462Y67352D01*
X38515Y67310D01*
X38572Y67274D01*
X38632Y67245D01*
X38696Y67223D01*
X38762Y67208D01*
X38829Y67200D01*
X38896Y67200D01*
X38963Y67208D01*
X39029Y67223D01*
X39092Y67245D01*
X39153Y67274D01*
X39210Y67310D01*
X39263Y67352D01*
X39310Y67400D01*
X39352Y67452D01*
X39388Y67509D01*
X39418Y67570D01*
X39440Y67634D01*
X39455Y67699D01*
X39462Y67766D01*
X39462Y67834D01*
X39455Y67901D01*
X39440Y67966D01*
X39418Y68030D01*
X39410Y68045D01*
X39464Y68174D01*
X39527Y68245D01*
X43335Y68245D01*
X43399Y68174D01*
X43452Y68045D01*
X43445Y68030D01*
X43423Y67966D01*
X43408Y67901D01*
X43400Y67834D01*
X43400Y67766D01*
X43408Y67699D01*
X43423Y67634D01*
X43445Y67570D01*
X43474Y67509D01*
X43510Y67452D01*
X43552Y67400D01*
X43600Y67352D01*
X43652Y67310D01*
X43709Y67274D01*
X43770Y67245D01*
X43834Y67223D01*
X43899Y67208D01*
X43966Y67200D01*
X44034Y67200D01*
X44101Y67208D01*
X44166Y67223D01*
X44230Y67245D01*
X44291Y67274D01*
X44348Y67310D01*
X44400Y67352D01*
X44448Y67400D01*
X44490Y67452D01*
X44526Y67509D01*
X44555Y67570D01*
X44577Y67634D01*
X44592Y67699D01*
X44600Y67766D01*
X44600Y67834D01*
X44592Y67901D01*
X44577Y67966D01*
X44555Y68030D01*
X44548Y68045D01*
X44601Y68174D01*
X44665Y68245D01*
X49635Y68245D01*
X49699Y68174D01*
X49752Y68045D01*
X49745Y68030D01*
X49723Y67966D01*
X49708Y67901D01*
X49700Y67834D01*
X49700Y67766D01*
X49708Y67699D01*
X49723Y67634D01*
X49745Y67570D01*
X49774Y67509D01*
X49810Y67452D01*
X49852Y67400D01*
X49900Y67352D01*
X49952Y67310D01*
X50009Y67274D01*
X50070Y67245D01*
X50134Y67223D01*
X50199Y67208D01*
X50266Y67200D01*
X50334Y67200D01*
X50401Y67208D01*
X50466Y67223D01*
X50530Y67245D01*
X50591Y67274D01*
X50648Y67310D01*
X50700Y67352D01*
X50748Y67400D01*
X50790Y67452D01*
X50826Y67509D01*
X50855Y67570D01*
X50877Y67634D01*
X50892Y67699D01*
X50900Y67766D01*
X50900Y67834D01*
X50892Y67901D01*
X50877Y67966D01*
X50855Y68030D01*
X50826Y68091D01*
X50796Y68139D01*
X50790Y68149D01*
X50788Y68189D01*
X50820Y68316D01*
X50856Y68375D01*
X50962Y68419D01*
X50976Y68429D01*
X50992Y68434D01*
X51162Y68532D01*
X51174Y68543D01*
X51189Y68551D01*
X51345Y68670D01*
X51356Y68683D01*
X51370Y68692D01*
X51509Y68831D01*
X51518Y68845D01*
X51531Y68856D01*
X51650Y69011D01*
X51656Y69023D01*
X51665Y69032D01*
X51716Y69115D01*
X51718Y69119D01*
X51721Y69123D01*
X51761Y69193D01*
X51861Y69323D01*
X51976Y69438D01*
X52106Y69537D01*
X52247Y69619D01*
X52398Y69682D01*
X52556Y69724D01*
X52717Y69745D01*
X54941Y69745D01*
X54988Y69545D01*
X54988Y69545D02*
G37*
G36*
X54350Y62130D02*
X56108Y60373D01*
X56110Y60316D01*
X56047Y60151D01*
X56033Y60147D01*
X55952Y60117D01*
X55873Y60081D01*
X55798Y60039D01*
X55726Y59991D01*
X55658Y59937D01*
X55595Y59878D01*
X55536Y59815D01*
X55482Y59747D01*
X55434Y59675D01*
X55392Y59600D01*
X55356Y59521D01*
X55326Y59440D01*
X55303Y59357D01*
X55286Y59272D01*
X55276Y59186D01*
X55272Y59100D01*
X55272Y58900D01*
X55276Y58814D01*
X55286Y58728D01*
X55303Y58643D01*
X55326Y58560D01*
X55356Y58479D01*
X55392Y58400D01*
X55434Y58325D01*
X55482Y58253D01*
X55536Y58185D01*
X55595Y58122D01*
X55658Y58063D01*
X55726Y58009D01*
X55798Y57961D01*
X55873Y57919D01*
X55952Y57883D01*
X56033Y57853D01*
X56116Y57830D01*
X56201Y57813D01*
X56287Y57803D01*
X56373Y57799D01*
X56459Y57803D01*
X56545Y57813D01*
X56630Y57830D01*
X56713Y57853D01*
X56794Y57883D01*
X56873Y57919D01*
X56948Y57961D01*
X57020Y58009D01*
X57088Y58063D01*
X57099Y58073D01*
X57274Y58010D01*
X57299Y57987D01*
X57299Y54793D01*
X57256Y54758D01*
X57099Y54708D01*
X57081Y54725D01*
X57013Y54778D01*
X56941Y54826D01*
X56866Y54868D01*
X56787Y54905D01*
X56706Y54935D01*
X56623Y54958D01*
X56538Y54975D01*
X56452Y54985D01*
X56366Y54988D01*
X56279Y54985D01*
X56194Y54975D01*
X56109Y54958D01*
X56026Y54935D01*
X55944Y54905D01*
X55866Y54868D01*
X55791Y54826D01*
X55719Y54778D01*
X55651Y54725D01*
X55587Y54666D01*
X55529Y54602D01*
X55475Y54535D01*
X55427Y54463D01*
X55385Y54387D01*
X55349Y54309D01*
X55319Y54228D01*
X55295Y54145D01*
X55278Y54060D01*
X55268Y53974D01*
X55265Y53888D01*
X55265Y53688D01*
X55268Y53601D01*
X55278Y53515D01*
X55295Y53431D01*
X55319Y53347D01*
X55349Y53266D01*
X55385Y53188D01*
X55427Y53112D01*
X55475Y53040D01*
X55529Y52973D01*
X55587Y52909D01*
X55651Y52850D01*
X55719Y52797D01*
X55791Y52749D01*
X55866Y52707D01*
X55944Y52670D01*
X56026Y52641D01*
X56109Y52617D01*
X56194Y52600D01*
X56279Y52590D01*
X56366Y52587D01*
X56452Y52590D01*
X56538Y52600D01*
X56623Y52617D01*
X56706Y52641D01*
X56787Y52670D01*
X56866Y52707D01*
X56941Y52749D01*
X57013Y52797D01*
X57081Y52850D01*
X57144Y52909D01*
X57203Y52973D01*
X57256Y53040D01*
X57304Y53112D01*
X57347Y53188D01*
X57383Y53266D01*
X57413Y53347D01*
X57436Y53431D01*
X57453Y53515D01*
X57463Y53601D01*
X57467Y53688D01*
X57467Y53888D01*
X57463Y53974D01*
X57453Y54060D01*
X57436Y54145D01*
X57418Y54208D01*
X57421Y54220D01*
X57441Y54264D01*
X57549Y54388D01*
X57564Y54394D01*
X59745Y54394D01*
X59745Y54194D01*
X59745Y5059D01*
X59545Y5012D01*
X59509Y5086D01*
X59432Y5223D01*
X59349Y5357D01*
X59261Y5486D01*
X59166Y5612D01*
X59066Y5733D01*
X58960Y5849D01*
X58849Y5960D01*
X58733Y6066D01*
X58612Y6166D01*
X58486Y6261D01*
X58357Y6349D01*
X58223Y6432D01*
X58086Y6509D01*
X57945Y6579D01*
X57801Y6642D01*
X57655Y6699D01*
X57506Y6749D01*
X57355Y6792D01*
X57202Y6828D01*
X57048Y6857D01*
X56892Y6878D01*
X56735Y6893D01*
X56627Y6898D01*
X56627Y3500D01*
X56500Y3500D01*
X56500Y3373D01*
X53102Y3373D01*
X53107Y3265D01*
X53122Y3108D01*
X53143Y2952D01*
X53172Y2798D01*
X53208Y2645D01*
X53251Y2494D01*
X53301Y2345D01*
X53358Y2199D01*
X53421Y2055D01*
X53491Y1914D01*
X53568Y1777D01*
X53651Y1643D01*
X53739Y1514D01*
X53834Y1388D01*
X53934Y1267D01*
X54040Y1151D01*
X54151Y1040D01*
X54267Y934D01*
X54388Y834D01*
X54514Y739D01*
X54643Y651D01*
X54777Y568D01*
X54914Y491D01*
X54987Y455D01*
X54940Y255D01*
X47207Y255D01*
X47125Y255D01*
X46964Y276D01*
X46806Y319D01*
X46655Y381D01*
X46514Y463D01*
X46384Y562D01*
X46269Y677D01*
X46170Y807D01*
X46129Y877D01*
X46126Y881D01*
X46125Y885D01*
X46073Y968D01*
X46064Y977D01*
X46059Y989D01*
X45939Y1144D01*
X45926Y1155D01*
X45917Y1169D01*
X45778Y1308D01*
X45764Y1317D01*
X45753Y1330D01*
X45598Y1449D01*
X45583Y1457D01*
X45570Y1468D01*
X45400Y1566D01*
X45384Y1572D01*
X45370Y1581D01*
X45189Y1656D01*
X45172Y1659D01*
X45157Y1667D01*
X44968Y1717D01*
X44951Y1719D01*
X44935Y1724D01*
X44740Y1750D01*
X44728Y1749D01*
X44716Y1752D01*
X44617Y1755D01*
X44613Y1754D01*
X44609Y1755D01*
X36006Y1755D01*
X36002Y1754D01*
X35998Y1755D01*
X35898Y1752D01*
X35886Y1749D01*
X35873Y1750D01*
X35678Y1724D01*
X35663Y1719D01*
X35646Y1718D01*
X35456Y1667D01*
X35441Y1660D01*
X35425Y1656D01*
X35243Y1581D01*
X35229Y1572D01*
X35213Y1566D01*
X35044Y1468D01*
X35031Y1457D01*
X35016Y1450D01*
X34860Y1330D01*
X34849Y1318D01*
X34835Y1308D01*
X34696Y1170D01*
X34687Y1156D01*
X34674Y1145D01*
X34555Y989D01*
X34549Y978D01*
X34541Y968D01*
X34489Y885D01*
X34487Y881D01*
X34485Y878D01*
X34444Y807D01*
X34344Y678D01*
X34229Y562D01*
X34099Y463D01*
X33958Y381D01*
X33807Y319D01*
X33650Y277D01*
X33488Y255D01*
X33406Y255D01*
X24961Y255D01*
X24881Y258D01*
X24714Y280D01*
X24557Y322D01*
X24406Y385D01*
X24264Y467D01*
X24135Y566D01*
X24020Y681D01*
X23920Y811D01*
X23879Y881D01*
X23877Y885D01*
X23875Y889D01*
X23823Y972D01*
X23815Y981D01*
X23809Y993D01*
X23690Y1148D01*
X23677Y1159D01*
X23668Y1173D01*
X23529Y1312D01*
X23515Y1321D01*
X23504Y1334D01*
X23348Y1453D01*
X23333Y1461D01*
X23320Y1472D01*
X23150Y1570D01*
X23135Y1576D01*
X23121Y1585D01*
X23023Y1625D01*
X22994Y1668D01*
X22954Y1823D01*
X22957Y1849D01*
X22960Y1863D01*
X22985Y1902D01*
X23014Y1963D01*
X23036Y2027D01*
X23051Y2092D01*
X23059Y2159D01*
X23059Y2227D01*
X23051Y2294D01*
X23036Y2359D01*
X23014Y2423D01*
X22985Y2484D01*
X22949Y2541D01*
X22907Y2593D01*
X22859Y2641D01*
X22807Y2683D01*
X22750Y2719D01*
X22689Y2748D01*
X22625Y2770D01*
X22560Y2785D01*
X22493Y2793D01*
X22425Y2793D01*
X22358Y2785D01*
X22293Y2770D01*
X22229Y2748D01*
X22168Y2719D01*
X22111Y2683D01*
X22059Y2641D01*
X22011Y2593D01*
X21969Y2541D01*
X21933Y2484D01*
X21904Y2423D01*
X21882Y2359D01*
X21867Y2294D01*
X21859Y2227D01*
X21859Y2159D01*
X21867Y2092D01*
X21882Y2027D01*
X21904Y1963D01*
X21906Y1959D01*
X21840Y1810D01*
X21787Y1759D01*
X16829Y1755D01*
X16773Y1813D01*
X16710Y1955D01*
X16714Y1963D01*
X16736Y2027D01*
X16751Y2092D01*
X16759Y2159D01*
X16759Y2227D01*
X16751Y2294D01*
X16736Y2359D01*
X16714Y2423D01*
X16685Y2484D01*
X16649Y2541D01*
X16607Y2593D01*
X16559Y2641D01*
X16507Y2683D01*
X16450Y2719D01*
X16389Y2748D01*
X16325Y2770D01*
X16260Y2785D01*
X16193Y2793D01*
X16125Y2793D01*
X16058Y2785D01*
X15993Y2770D01*
X15929Y2748D01*
X15868Y2719D01*
X15811Y2683D01*
X15759Y2641D01*
X15711Y2593D01*
X15669Y2541D01*
X15633Y2484D01*
X15604Y2423D01*
X15582Y2359D01*
X15567Y2294D01*
X15559Y2227D01*
X15559Y2159D01*
X15567Y2092D01*
X15582Y2027D01*
X15604Y1963D01*
X15633Y1902D01*
X15660Y1860D01*
X15669Y1825D01*
X15630Y1670D01*
X15598Y1623D01*
X15497Y1581D01*
X15483Y1571D01*
X15467Y1566D01*
X15297Y1468D01*
X15285Y1457D01*
X15270Y1449D01*
X15114Y1330D01*
X15103Y1317D01*
X15089Y1308D01*
X14950Y1169D01*
X14941Y1155D01*
X14928Y1144D01*
X14809Y989D01*
X14803Y977D01*
X14794Y968D01*
X14743Y885D01*
X14741Y881D01*
X14738Y877D01*
X14697Y807D01*
X14598Y677D01*
X14483Y562D01*
X14353Y463D01*
X14212Y381D01*
X14061Y318D01*
X13903Y276D01*
X13742Y255D01*
X13660Y255D01*
X5059Y255D01*
X5012Y455D01*
X5086Y491D01*
X5223Y568D01*
X5357Y651D01*
X5486Y739D01*
X5612Y834D01*
X5733Y934D01*
X5849Y1040D01*
X5960Y1151D01*
X6066Y1267D01*
X6166Y1388D01*
X6261Y1514D01*
X6349Y1643D01*
X6432Y1777D01*
X6509Y1914D01*
X6579Y2055D01*
X6642Y2199D01*
X6699Y2345D01*
X6749Y2494D01*
X6792Y2645D01*
X6828Y2798D01*
X6857Y2952D01*
X6878Y3108D01*
X6893Y3265D01*
X6898Y3373D01*
X3500Y3373D01*
X3500Y3500D01*
X3373Y3500D01*
X3373Y6898D01*
X3265Y6893D01*
X3108Y6878D01*
X2952Y6857D01*
X2798Y6828D01*
X2645Y6792D01*
X2494Y6749D01*
X2345Y6699D01*
X2199Y6642D01*
X2055Y6579D01*
X1914Y6509D01*
X1777Y6432D01*
X1643Y6349D01*
X1514Y6261D01*
X1388Y6166D01*
X1267Y6066D01*
X1151Y5960D01*
X1040Y5849D01*
X934Y5733D01*
X834Y5612D01*
X739Y5486D01*
X651Y5357D01*
X568Y5223D01*
X491Y5086D01*
X455Y5012D01*
X255Y5059D01*
X255Y25499D01*
X3852Y25499D01*
X3852Y21880D01*
X3852Y21879D01*
X3851Y21837D01*
X3850Y21826D01*
X3578Y21826D01*
X3578Y20626D01*
X4778Y20626D01*
X4778Y21826D01*
X4506Y21826D01*
X4505Y21837D01*
X4504Y21879D01*
X4503Y21880D01*
X4503Y25499D01*
X9269Y25499D01*
X9342Y25299D01*
X9341Y25298D01*
X9279Y25236D01*
X9223Y25169D01*
X9173Y25098D01*
X9129Y25022D01*
X9092Y24943D01*
X9062Y24861D01*
X9040Y24777D01*
X9024Y24691D01*
X9017Y24604D01*
X9017Y24516D01*
X9024Y24429D01*
X9040Y24343D01*
X9062Y24259D01*
X9092Y24177D01*
X9129Y24098D01*
X9173Y24022D01*
X9223Y23951D01*
X9279Y23884D01*
X9341Y23822D01*
X9407Y23766D01*
X9479Y23716D01*
X9555Y23672D01*
X9634Y23635D01*
X9716Y23605D01*
X9800Y23583D01*
X9886Y23568D01*
X9973Y23560D01*
X10060Y23560D01*
X10147Y23568D01*
X10233Y23583D01*
X10318Y23605D01*
X10400Y23635D01*
X10479Y23672D01*
X10555Y23716D01*
X10626Y23766D01*
X10693Y23822D01*
X10755Y23884D01*
X10811Y23951D01*
X10861Y24022D01*
X10905Y24098D01*
X10942Y24177D01*
X10971Y24259D01*
X10994Y24343D01*
X11009Y24429D01*
X11017Y24516D01*
X11017Y24604D01*
X11009Y24691D01*
X10994Y24777D01*
X10971Y24861D01*
X10942Y24943D01*
X10905Y25022D01*
X10861Y25098D01*
X10811Y25169D01*
X10755Y25236D01*
X10693Y25298D01*
X10692Y25299D01*
X10765Y25499D01*
X11334Y25499D01*
X11373Y25503D01*
X11411Y25514D01*
X11446Y25533D01*
X11476Y25558D01*
X11501Y25588D01*
X11520Y25623D01*
X11531Y25661D01*
X11535Y25700D01*
X11535Y34750D01*
X11531Y34789D01*
X11520Y34827D01*
X11501Y34862D01*
X11476Y34892D01*
X11446Y34917D01*
X11411Y34936D01*
X11373Y34947D01*
X11334Y34951D01*
X10451Y34951D01*
X10400Y35145D01*
X10479Y35182D01*
X10555Y35226D01*
X10626Y35276D01*
X10693Y35332D01*
X10755Y35394D01*
X10811Y35461D01*
X10861Y35532D01*
X10905Y35608D01*
X10942Y35687D01*
X10971Y35769D01*
X10994Y35853D01*
X11009Y35939D01*
X11017Y36026D01*
X11017Y36114D01*
X11009Y36201D01*
X10994Y36287D01*
X10971Y36371D01*
X10942Y36453D01*
X10905Y36532D01*
X10861Y36608D01*
X10811Y36679D01*
X10755Y36746D01*
X10693Y36808D01*
X10626Y36864D01*
X10555Y36914D01*
X10479Y36958D01*
X10400Y36995D01*
X10318Y37025D01*
X10233Y37047D01*
X10147Y37062D01*
X10060Y37070D01*
X9973Y37070D01*
X9886Y37062D01*
X9800Y37047D01*
X9716Y37025D01*
X9634Y36995D01*
X9555Y36958D01*
X9479Y36914D01*
X9407Y36864D01*
X9341Y36808D01*
X9279Y36746D01*
X9223Y36679D01*
X9173Y36608D01*
X9129Y36532D01*
X9092Y36453D01*
X9062Y36371D01*
X9040Y36287D01*
X9024Y36201D01*
X9017Y36114D01*
X9017Y36026D01*
X9024Y35939D01*
X9040Y35853D01*
X9062Y35769D01*
X9092Y35687D01*
X9129Y35608D01*
X9173Y35532D01*
X9223Y35461D01*
X9279Y35394D01*
X9341Y35332D01*
X9407Y35276D01*
X9479Y35226D01*
X9555Y35182D01*
X9634Y35145D01*
X9583Y34951D01*
X4210Y34951D01*
X4210Y52258D01*
X8624Y56672D01*
X8810Y56575D01*
X8808Y56561D01*
X8807Y56557D01*
X9673Y56557D01*
X9673Y57423D01*
X9670Y57422D01*
X9584Y57407D01*
X9499Y57385D01*
X9417Y57355D01*
X9338Y57318D01*
X9262Y57274D01*
X9256Y57270D01*
X9253Y57269D01*
X9229Y57269D01*
X9191Y57271D01*
X9094Y57303D01*
X9064Y57316D01*
X9042Y57332D01*
X9028Y57348D01*
X9027Y57350D01*
X9023Y57354D01*
X9021Y57359D01*
X9011Y57369D01*
X9002Y57380D01*
X8972Y57410D01*
X8953Y57434D01*
X8937Y57460D01*
X8923Y57488D01*
X8913Y57517D01*
X8906Y57547D01*
X8903Y57578D01*
X8903Y57608D01*
X8906Y57639D01*
X8913Y57669D01*
X8923Y57698D01*
X8937Y57726D01*
X8953Y57752D01*
X8972Y57776D01*
X8994Y57798D01*
X9018Y57817D01*
X9044Y57833D01*
X9072Y57847D01*
X9101Y57857D01*
X9118Y57864D01*
X9134Y57872D01*
X9135Y57873D01*
X9136Y57873D01*
X9151Y57884D01*
X9166Y57895D01*
X9167Y57896D01*
X9168Y57896D01*
X9181Y57910D01*
X9193Y57924D01*
X9194Y57925D01*
X9195Y57925D01*
X9204Y57941D01*
X9214Y57957D01*
X9317Y58061D01*
X9373Y58052D01*
X9468Y58027D01*
X9499Y58015D01*
X9584Y57993D01*
X9670Y57978D01*
X9757Y57970D01*
X9844Y57970D01*
X9931Y57978D01*
X10017Y57993D01*
X10101Y58015D01*
X10183Y58045D01*
X10262Y58082D01*
X10338Y58126D01*
X10410Y58176D01*
X10476Y58232D01*
X10538Y58294D01*
X10594Y58361D01*
X10644Y58432D01*
X10688Y58508D01*
X10725Y58587D01*
X10755Y58669D01*
X10777Y58753D01*
X10793Y58839D01*
X10798Y58899D01*
X10798Y58901D01*
X10804Y58920D01*
X10818Y58950D01*
X10868Y59018D01*
X10921Y59084D01*
X10975Y59089D01*
X10985Y59091D01*
X10996Y59092D01*
X11005Y59095D01*
X11014Y59096D01*
X11024Y59100D01*
X11034Y59103D01*
X11042Y59108D01*
X11050Y59111D01*
X11059Y59117D01*
X11069Y59122D01*
X11076Y59128D01*
X11083Y59133D01*
X11091Y59140D01*
X11099Y59147D01*
X15751Y63799D01*
X52682Y63799D01*
X54350Y62130D01*
X54350Y62130D02*
G37*
G36*
X132848Y-81546D02*
X132933Y-81567D01*
X133038Y-81610D01*
X133144Y-81673D01*
X133229Y-81768D01*
X133292Y-81906D01*
X133303Y-81980D01*
X133314Y-82075D01*
X133314Y-82086D01*
X133314Y-82096D01*
X133303Y-82160D01*
X133282Y-82255D01*
X133250Y-82361D01*
X133176Y-82467D01*
X133081Y-82562D01*
X133017Y-82604D01*
X132943Y-82625D01*
X132859Y-82647D01*
X132763Y-82657D01*
X132721Y-82657D01*
X132679Y-82647D01*
X132626Y-82636D01*
X132552Y-82615D01*
X132488Y-82583D01*
X132414Y-82541D01*
X132351Y-82488D01*
X132340Y-82477D01*
X132329Y-82456D01*
X132298Y-82424D01*
X132266Y-82371D01*
X132234Y-82308D01*
X132213Y-82244D01*
X132192Y-82160D01*
X132181Y-82075D01*
X132181Y-82065D01*
X132181Y-82033D01*
X132192Y-82001D01*
X132203Y-81948D01*
X132224Y-81885D01*
X132255Y-81821D01*
X132298Y-81758D01*
X132351Y-81694D01*
X132361Y-81684D01*
X132382Y-81673D01*
X132414Y-81641D01*
X132467Y-81610D01*
X132531Y-81588D01*
X132594Y-81557D01*
X132679Y-81546D01*
X132763Y-81535D01*
X132785Y-81535D01*
X132848Y-81546D01*
X132848Y-81546D02*
G37*
G36*
X129134Y-81049D02*
X129240Y-81049D01*
X129356Y-81059D01*
X129494Y-81070D01*
X129631Y-81091D01*
X129790Y-81112D01*
X129959Y-81144D01*
X130298Y-81218D01*
X130658Y-81324D01*
X131007Y-81461D01*
X134181Y-86498D01*
X134181Y-86509D01*
X134181Y-86541D01*
X134171Y-86593D01*
X134171Y-86657D01*
X134160Y-86742D01*
X134139Y-86826D01*
X134097Y-87038D01*
X134097Y-87049D01*
X134086Y-87091D01*
X134075Y-87144D01*
X134054Y-87228D01*
X134023Y-87324D01*
X134001Y-87429D01*
X133927Y-87662D01*
X131176Y-83366D01*
X131166Y-83356D01*
X131134Y-83313D01*
X131091Y-83260D01*
X131039Y-83197D01*
X130964Y-83133D01*
X130880Y-83080D01*
X130785Y-83038D01*
X130679Y-83027D01*
X130636Y-83027D01*
X130594Y-83049D01*
X130531Y-83070D01*
X130467Y-83102D01*
X130393Y-83165D01*
X130308Y-83239D01*
X130224Y-83345D01*
X129303Y-84604D01*
X132541Y-89704D01*
X132520Y-89715D01*
X132467Y-89768D01*
X132382Y-89831D01*
X132266Y-89916D01*
X132118Y-90022D01*
X131938Y-90138D01*
X131726Y-90265D01*
X131494Y-90392D01*
X131229Y-90519D01*
X130943Y-90646D01*
X130636Y-90763D01*
X130308Y-90868D01*
X129959Y-90953D01*
X129589Y-91017D01*
X129197Y-91070D01*
X128795Y-91080D01*
X128700Y-91080D01*
X128647Y-91070D01*
X128584Y-91070D01*
X128425Y-91059D01*
X128234Y-91027D01*
X128012Y-90995D01*
X127758Y-90943D01*
X127494Y-90868D01*
X127197Y-90784D01*
X126891Y-90678D01*
X126573Y-90540D01*
X126256Y-90382D01*
X125928Y-90191D01*
X125600Y-89969D01*
X125282Y-89715D01*
X124975Y-89429D01*
X126351Y-87535D01*
X126361Y-87525D01*
X126372Y-87504D01*
X126383Y-87472D01*
X126393Y-87429D01*
X126404Y-87377D01*
X126425Y-87313D01*
X126436Y-87228D01*
X126436Y-87218D01*
X126436Y-87197D01*
X126425Y-87165D01*
X126414Y-87123D01*
X126404Y-87070D01*
X126372Y-87006D01*
X126340Y-86932D01*
X126287Y-86847D01*
X125272Y-85260D01*
X123758Y-87355D01*
X123758Y-87345D01*
X123748Y-87324D01*
X123737Y-87292D01*
X123727Y-87239D01*
X123716Y-87186D01*
X123705Y-87112D01*
X123674Y-86943D01*
X123631Y-86742D01*
X123610Y-86509D01*
X123589Y-86255D01*
X123578Y-85980D01*
X123578Y-85969D01*
X123578Y-85959D01*
X123578Y-85895D01*
X123589Y-85789D01*
X123600Y-85652D01*
X123621Y-85482D01*
X123653Y-85281D01*
X123705Y-85059D01*
X123758Y-84816D01*
X123832Y-84562D01*
X123928Y-84287D01*
X124055Y-84012D01*
X124192Y-83715D01*
X124362Y-83430D01*
X124552Y-83144D01*
X124774Y-82858D01*
X125028Y-82583D01*
X125049Y-82562D01*
X125102Y-82520D01*
X125187Y-82435D01*
X125303Y-82340D01*
X125462Y-82223D01*
X125642Y-82096D01*
X125854Y-81959D01*
X126097Y-81811D01*
X126372Y-81662D01*
X126668Y-81525D01*
X126986Y-81398D01*
X127335Y-81282D01*
X127705Y-81176D01*
X128097Y-81102D01*
X128510Y-81059D01*
X128943Y-81038D01*
X129060Y-81038D01*
X129134Y-81049D01*
X129134Y-81049D02*
G37*
G36*
X134404Y-92509D02*
X134488Y-92509D01*
X134562Y-92519D01*
X134615Y-92530D01*
X134626Y-92530D01*
X134657Y-92540D01*
X134700Y-92562D01*
X134753Y-92593D01*
X134806Y-92636D01*
X134859Y-92699D01*
X134901Y-92773D01*
X134933Y-92868D01*
X134933Y-92879D01*
X134933Y-92900D01*
X134943Y-92942D01*
X134943Y-93006D01*
X134943Y-93080D01*
X134954Y-93175D01*
X134954Y-93292D01*
X134954Y-93419D01*
X133070Y-93376D01*
X133049Y-93376D01*
X133007Y-93387D01*
X132933Y-93408D01*
X132859Y-93461D01*
X132774Y-93535D01*
X132742Y-93599D01*
X132700Y-93662D01*
X132679Y-93736D01*
X132658Y-93831D01*
X132636Y-93937D01*
X132636Y-94064D01*
X132636Y-94456D01*
X132636Y-94466D01*
X132636Y-94487D01*
X132636Y-94519D01*
X132647Y-94561D01*
X132658Y-94678D01*
X132689Y-94794D01*
X132742Y-94921D01*
X132816Y-95038D01*
X132859Y-95080D01*
X132922Y-95112D01*
X132986Y-95133D01*
X133060Y-95143D01*
X134985Y-95143D01*
X134985Y-95154D01*
X134985Y-95165D01*
X134985Y-95228D01*
X134985Y-95323D01*
X134975Y-95440D01*
X134964Y-95556D01*
X134943Y-95662D01*
X134911Y-95757D01*
X134880Y-95831D01*
X134869Y-95842D01*
X134848Y-95863D01*
X134816Y-95884D01*
X134753Y-95916D01*
X134668Y-95958D01*
X134562Y-95979D01*
X134414Y-96001D01*
X134245Y-96011D01*
X132880Y-96011D01*
X132837Y-96001D01*
X132721Y-95990D01*
X132583Y-95969D01*
X132435Y-95926D01*
X132287Y-95863D01*
X132160Y-95768D01*
X132054Y-95651D01*
X132044Y-95641D01*
X132033Y-95598D01*
X132001Y-95535D01*
X131980Y-95440D01*
X131949Y-95313D01*
X131917Y-95165D01*
X131906Y-94985D01*
X131896Y-94784D01*
X131896Y-93757D01*
X131896Y-93747D01*
X131896Y-93715D01*
X131896Y-93673D01*
X131906Y-93620D01*
X131906Y-93546D01*
X131917Y-93472D01*
X131949Y-93292D01*
X132001Y-93101D01*
X132065Y-92921D01*
X132171Y-92752D01*
X132234Y-92689D01*
X132308Y-92636D01*
X132319Y-92625D01*
X132351Y-92614D01*
X132393Y-92593D01*
X132467Y-92562D01*
X132552Y-92540D01*
X132668Y-92519D01*
X132795Y-92509D01*
X132943Y-92498D01*
X134319Y-92498D01*
X134404Y-92509D01*
X134404Y-92509D02*
G37*
G36*
X138414Y-95990D02*
X137684Y-95990D01*
X137684Y-94678D01*
X136128Y-94678D01*
X136128Y-95990D01*
X135441Y-95990D01*
X135441Y-92530D01*
X136128Y-92530D01*
X136128Y-93757D01*
X137684Y-93757D01*
X137684Y-92530D01*
X138414Y-92530D01*
X138414Y-95990D01*
X138414Y-95990D02*
G37*
G36*
X118722Y-91398D02*
X118785Y-91419D01*
X118859Y-91450D01*
X118944Y-91514D01*
X119018Y-91609D01*
X119050Y-91673D01*
X119071Y-91747D01*
X119102Y-91831D01*
X119113Y-91927D01*
X119579Y-95990D01*
X118711Y-95990D01*
X118468Y-93069D01*
X118457Y-93069D01*
X117558Y-95408D01*
X117547Y-95429D01*
X117526Y-95471D01*
X117494Y-95535D01*
X117441Y-95598D01*
X117367Y-95673D01*
X117282Y-95736D01*
X117177Y-95778D01*
X117050Y-95800D01*
X117028Y-95800D01*
X116986Y-95789D01*
X116923Y-95778D01*
X116838Y-95747D01*
X116743Y-95704D01*
X116658Y-95630D01*
X116573Y-95535D01*
X116510Y-95408D01*
X115621Y-93112D01*
X115610Y-93112D01*
X115357Y-95990D01*
X114510Y-95990D01*
X114954Y-91884D01*
X114954Y-91874D01*
X114954Y-91863D01*
X114976Y-91810D01*
X114997Y-91726D01*
X115039Y-91630D01*
X115092Y-91546D01*
X115177Y-91461D01*
X115282Y-91408D01*
X115346Y-91387D01*
X115441Y-91387D01*
X115494Y-91398D01*
X115568Y-91408D01*
X115663Y-91440D01*
X115769Y-91503D01*
X115875Y-91588D01*
X115970Y-91694D01*
X116013Y-91768D01*
X116044Y-91853D01*
X117028Y-94360D01*
X117050Y-94360D01*
X118034Y-91853D01*
X118034Y-91842D01*
X118044Y-91831D01*
X118065Y-91778D01*
X118118Y-91704D01*
X118182Y-91620D01*
X118266Y-91535D01*
X118372Y-91461D01*
X118499Y-91408D01*
X118573Y-91387D01*
X118679Y-91387D01*
X118722Y-91398D01*
X118722Y-91398D02*
G37*
G36*
X142541Y-92540D02*
X142647Y-92562D01*
X142784Y-92604D01*
X142922Y-92667D01*
X143049Y-92773D01*
X143112Y-92837D01*
X143165Y-92921D01*
X143207Y-93006D01*
X143239Y-93112D01*
X143239Y-93122D01*
X143250Y-93154D01*
X143260Y-93207D01*
X143271Y-93271D01*
X143281Y-93366D01*
X143292Y-93472D01*
X143303Y-93588D01*
X143303Y-93726D01*
X143303Y-93990D01*
X143303Y-94001D01*
X143303Y-94022D01*
X143303Y-94043D01*
X143303Y-94085D01*
X143292Y-94202D01*
X143281Y-94329D01*
X143250Y-94477D01*
X143218Y-94625D01*
X143165Y-94773D01*
X143091Y-94890D01*
X143080Y-94900D01*
X143059Y-94921D01*
X143028Y-94964D01*
X142975Y-94995D01*
X142911Y-95038D01*
X142826Y-95080D01*
X142731Y-95101D01*
X142625Y-95112D01*
X140911Y-95112D01*
X140911Y-95990D01*
X140192Y-95990D01*
X140192Y-92530D01*
X142498Y-92530D01*
X142541Y-92540D01*
X142541Y-92540D02*
G37*
G36*
X139726Y-95990D02*
X138922Y-95990D01*
X138922Y-92530D01*
X139726Y-92530D01*
X139726Y-95990D01*
X139726Y-95990D02*
G37*
G36*
X127187Y-92540D02*
X127229Y-92540D01*
X127346Y-92583D01*
X127398Y-92614D01*
X127473Y-92657D01*
X127536Y-92710D01*
X127589Y-92784D01*
X127652Y-92858D01*
X127705Y-92964D01*
X127748Y-93080D01*
X127779Y-93218D01*
X127801Y-93376D01*
X127811Y-93556D01*
X127811Y-93768D01*
X127811Y-93778D01*
X127811Y-93800D01*
X127811Y-93831D01*
X127801Y-93884D01*
X127790Y-94001D01*
X127758Y-94149D01*
X127716Y-94297D01*
X127642Y-94445D01*
X127547Y-94561D01*
X127494Y-94604D01*
X127420Y-94636D01*
X127420Y-94646D01*
X127441Y-94657D01*
X127483Y-94667D01*
X127547Y-94710D01*
X127621Y-94784D01*
X127684Y-94879D01*
X127748Y-95016D01*
X127779Y-95091D01*
X127790Y-95186D01*
X127811Y-95292D01*
X127811Y-95408D01*
X127811Y-95990D01*
X127081Y-95990D01*
X127081Y-95577D01*
X127081Y-95567D01*
X127081Y-95535D01*
X127081Y-95482D01*
X127081Y-95429D01*
X127070Y-95302D01*
X127060Y-95249D01*
X127049Y-95218D01*
X127049Y-95207D01*
X127039Y-95196D01*
X126996Y-95143D01*
X126912Y-95101D01*
X126859Y-95091D01*
X126795Y-95080D01*
X125504Y-95080D01*
X125504Y-95990D01*
X124774Y-95990D01*
X124774Y-92530D01*
X127155Y-92530D01*
X127187Y-92540D01*
X127187Y-92540D02*
G37*
G36*
X120817Y-95990D02*
X120002Y-95990D01*
X120002Y-92530D01*
X120817Y-92530D01*
X120817Y-95990D01*
X120817Y-95990D02*
G37*
G36*
X130658Y-92509D02*
X130785Y-92540D01*
X130922Y-92572D01*
X131060Y-92625D01*
X131176Y-92699D01*
X131271Y-92805D01*
X131282Y-92815D01*
X131303Y-92858D01*
X131345Y-92932D01*
X131388Y-93038D01*
X131419Y-93165D01*
X131462Y-93323D01*
X131483Y-93514D01*
X131494Y-93736D01*
X131494Y-94773D01*
X131494Y-94784D01*
X131494Y-94815D01*
X131494Y-94858D01*
X131483Y-94921D01*
X131483Y-95006D01*
X131472Y-95091D01*
X131430Y-95281D01*
X131367Y-95482D01*
X131282Y-95673D01*
X131218Y-95757D01*
X131155Y-95831D01*
X131070Y-95895D01*
X130986Y-95948D01*
X130975Y-95948D01*
X130954Y-95958D01*
X130901Y-95969D01*
X130848Y-95979D01*
X130763Y-95990D01*
X130679Y-96001D01*
X130573Y-96011D01*
X129240Y-96011D01*
X129197Y-96001D01*
X129081Y-95990D01*
X128954Y-95969D01*
X128816Y-95926D01*
X128668Y-95874D01*
X128541Y-95789D01*
X128435Y-95683D01*
X128425Y-95673D01*
X128404Y-95630D01*
X128372Y-95556D01*
X128340Y-95461D01*
X128308Y-95334D01*
X128277Y-95175D01*
X128256Y-94995D01*
X128245Y-94773D01*
X128245Y-93736D01*
X128245Y-93726D01*
X128245Y-93694D01*
X128245Y-93641D01*
X128256Y-93577D01*
X128266Y-93493D01*
X128277Y-93397D01*
X128319Y-93196D01*
X128393Y-92995D01*
X128446Y-92890D01*
X128499Y-92794D01*
X128573Y-92710D01*
X128647Y-92636D01*
X128742Y-92583D01*
X128848Y-92540D01*
X128859Y-92540D01*
X128880Y-92530D01*
X128922Y-92530D01*
X128975Y-92519D01*
X129039Y-92509D01*
X129113Y-92509D01*
X129293Y-92498D01*
X130552Y-92498D01*
X130658Y-92509D01*
X130658Y-92509D02*
G37*
G36*
X123589Y-92509D02*
X123758Y-92519D01*
X123917Y-92530D01*
X123981Y-92540D01*
X124044Y-92551D01*
X124086Y-92562D01*
X124118Y-92572D01*
X124129Y-92583D01*
X124150Y-92604D01*
X124182Y-92646D01*
X124213Y-92720D01*
X124245Y-92815D01*
X124266Y-92890D01*
X124277Y-92964D01*
X124287Y-93048D01*
X124298Y-93144D01*
X124309Y-93249D01*
X124309Y-93376D01*
X122414Y-93376D01*
X122372Y-93387D01*
X122330Y-93397D01*
X122224Y-93429D01*
X122171Y-93472D01*
X122129Y-93514D01*
X122129Y-93524D01*
X122108Y-93546D01*
X122097Y-93577D01*
X122076Y-93630D01*
X122055Y-93704D01*
X122034Y-93800D01*
X122023Y-93927D01*
X122012Y-94064D01*
X122012Y-94456D01*
X122012Y-94477D01*
X122012Y-94519D01*
X122012Y-94593D01*
X122023Y-94667D01*
X122023Y-94763D01*
X122034Y-94847D01*
X122044Y-94921D01*
X122065Y-94974D01*
X122065Y-94985D01*
X122086Y-94995D01*
X122108Y-95027D01*
X122150Y-95059D01*
X122192Y-95091D01*
X122256Y-95112D01*
X122330Y-95133D01*
X122425Y-95143D01*
X124362Y-95143D01*
X124362Y-95154D01*
X124362Y-95165D01*
X124362Y-95228D01*
X124362Y-95313D01*
X124351Y-95419D01*
X124340Y-95524D01*
X124319Y-95630D01*
X124287Y-95725D01*
X124256Y-95800D01*
X124245Y-95810D01*
X124224Y-95831D01*
X124182Y-95863D01*
X124129Y-95905D01*
X124033Y-95948D01*
X123928Y-95979D01*
X123780Y-96001D01*
X123610Y-96011D01*
X122213Y-96011D01*
X122108Y-96001D01*
X121991Y-95979D01*
X121854Y-95948D01*
X121716Y-95895D01*
X121589Y-95831D01*
X121483Y-95736D01*
X121473Y-95725D01*
X121452Y-95683D01*
X121409Y-95609D01*
X121367Y-95514D01*
X121325Y-95376D01*
X121282Y-95218D01*
X121261Y-95016D01*
X121251Y-94773D01*
X121251Y-93736D01*
X121251Y-93726D01*
X121251Y-93683D01*
X121251Y-93630D01*
X121261Y-93567D01*
X121272Y-93472D01*
X121293Y-93376D01*
X121346Y-93165D01*
X121430Y-92953D01*
X121483Y-92847D01*
X121557Y-92752D01*
X121642Y-92667D01*
X121737Y-92593D01*
X121843Y-92540D01*
X121970Y-92509D01*
X122023Y-92509D01*
X122065Y-92498D01*
X123420Y-92498D01*
X123589Y-92509D01*
X123589Y-92509D02*
G37*
%LPC*%
G36*
X9864Y62827D02*
X9810Y62827D01*
X9757Y62821D01*
X9705Y62809D01*
X9655Y62792D01*
X9607Y62768D01*
X9562Y62740D01*
X9520Y62707D01*
X9482Y62669D01*
X9449Y62627D01*
X9421Y62582D01*
X9397Y62534D01*
X9380Y62484D01*
X9368Y62432D01*
X9362Y62379D01*
X9362Y62325D01*
X9368Y62272D01*
X9380Y62220D01*
X9397Y62170D01*
X9421Y62122D01*
X9449Y62077D01*
X9482Y62035D01*
X9520Y61997D01*
X9562Y61964D01*
X9607Y61936D01*
X9655Y61913D01*
X9705Y61895D01*
X9757Y61883D01*
X9810Y61877D01*
X9864Y61877D01*
X9917Y61883D01*
X9969Y61895D01*
X10019Y61913D01*
X10067Y61936D01*
X10112Y61964D01*
X10154Y61997D01*
X10192Y62035D01*
X10225Y62077D01*
X10253Y62122D01*
X10277Y62170D01*
X10294Y62220D01*
X10306Y62272D01*
X10312Y62325D01*
X10312Y62379D01*
X10306Y62432D01*
X10294Y62484D01*
X10277Y62534D01*
X10253Y62582D01*
X10225Y62627D01*
X10192Y62669D01*
X10154Y62707D01*
X10112Y62740D01*
X10067Y62768D01*
X10019Y62792D01*
X9969Y62809D01*
X9917Y62821D01*
X9864Y62827D01*
X9864Y62827D02*
G37*
G36*
X9673Y59963D02*
X9670Y59962D01*
X9584Y59947D01*
X9499Y59925D01*
X9417Y59895D01*
X9338Y59858D01*
X9262Y59814D01*
X9191Y59764D01*
X9124Y59708D01*
X9062Y59646D01*
X9006Y59579D01*
X8956Y59508D01*
X8912Y59432D01*
X8875Y59353D01*
X8846Y59271D01*
X8823Y59187D01*
X8808Y59101D01*
X8807Y59097D01*
X9673Y59097D01*
X9673Y59963D01*
X9673Y59963D02*
G37*
G36*
X10144Y34523D02*
X10144Y33657D01*
X11009Y33657D01*
X11009Y33661D01*
X10994Y33747D01*
X10971Y33831D01*
X10942Y33913D01*
X10905Y33992D01*
X10861Y34068D01*
X10811Y34139D01*
X10755Y34206D01*
X10693Y34268D01*
X10626Y34324D01*
X10555Y34374D01*
X10479Y34418D01*
X10400Y34455D01*
X10318Y34485D01*
X10233Y34507D01*
X10147Y34522D01*
X10144Y34523D01*
X10144Y34523D02*
G37*
G36*
X9890Y34523D02*
X9886Y34522D01*
X9800Y34507D01*
X9716Y34485D01*
X9634Y34455D01*
X9555Y34418D01*
X9479Y34374D01*
X9407Y34324D01*
X9341Y34268D01*
X9279Y34206D01*
X9223Y34139D01*
X9173Y34068D01*
X9129Y33992D01*
X9092Y33913D01*
X9062Y33831D01*
X9040Y33747D01*
X9024Y33661D01*
X9024Y33657D01*
X9890Y33657D01*
X9890Y34523D01*
X9890Y34523D02*
G37*
G36*
X9890Y33403D02*
X9024Y33403D01*
X9024Y33399D01*
X9040Y33313D01*
X9062Y33229D01*
X9092Y33147D01*
X9129Y33068D01*
X9173Y32992D01*
X9223Y32921D01*
X9279Y32854D01*
X9341Y32792D01*
X9407Y32736D01*
X9479Y32686D01*
X9555Y32642D01*
X9634Y32605D01*
X9716Y32575D01*
X9800Y32553D01*
X9886Y32538D01*
X9890Y32537D01*
X9890Y33403D01*
X9890Y33403D02*
G37*
G36*
X11009Y33403D02*
X10144Y33403D01*
X10144Y32537D01*
X10147Y32538D01*
X10233Y32553D01*
X10318Y32575D01*
X10400Y32605D01*
X10479Y32642D01*
X10555Y32686D01*
X10626Y32736D01*
X10693Y32792D01*
X10755Y32854D01*
X10811Y32921D01*
X10861Y32992D01*
X10905Y33068D01*
X10942Y33147D01*
X10971Y33229D01*
X10994Y33313D01*
X11009Y33399D01*
X11009Y33403D01*
X11009Y33403D02*
G37*
G36*
X10060Y30640D02*
X9973Y30640D01*
X9886Y30632D01*
X9800Y30617D01*
X9716Y30595D01*
X9634Y30565D01*
X9555Y30528D01*
X9479Y30484D01*
X9407Y30434D01*
X9341Y30378D01*
X9279Y30316D01*
X9223Y30249D01*
X9173Y30178D01*
X9129Y30102D01*
X9092Y30023D01*
X9062Y29941D01*
X9040Y29857D01*
X9024Y29771D01*
X9017Y29684D01*
X9017Y29596D01*
X9024Y29509D01*
X9040Y29423D01*
X9062Y29339D01*
X9092Y29257D01*
X9129Y29178D01*
X9173Y29102D01*
X9223Y29031D01*
X9279Y28964D01*
X9341Y28902D01*
X9407Y28846D01*
X9479Y28796D01*
X9555Y28752D01*
X9634Y28715D01*
X9716Y28685D01*
X9800Y28663D01*
X9886Y28648D01*
X9973Y28640D01*
X10060Y28640D01*
X10147Y28648D01*
X10233Y28663D01*
X10318Y28685D01*
X10400Y28715D01*
X10479Y28752D01*
X10555Y28796D01*
X10626Y28846D01*
X10693Y28902D01*
X10755Y28964D01*
X10811Y29031D01*
X10861Y29102D01*
X10905Y29178D01*
X10942Y29257D01*
X10971Y29339D01*
X10994Y29423D01*
X11009Y29509D01*
X11017Y29596D01*
X11017Y29684D01*
X11009Y29771D01*
X10994Y29857D01*
X10971Y29941D01*
X10942Y30023D01*
X10905Y30102D01*
X10861Y30178D01*
X10811Y30249D01*
X10755Y30316D01*
X10693Y30378D01*
X10626Y30434D01*
X10555Y30484D01*
X10479Y30528D01*
X10400Y30565D01*
X10318Y30595D01*
X10233Y30617D01*
X10147Y30632D01*
X10060Y30640D01*
X10060Y30640D02*
G37*
G36*
X10144Y28093D02*
X10144Y27227D01*
X11009Y27227D01*
X11009Y27231D01*
X10994Y27317D01*
X10971Y27401D01*
X10942Y27483D01*
X10905Y27562D01*
X10861Y27638D01*
X10811Y27709D01*
X10755Y27776D01*
X10693Y27838D01*
X10626Y27894D01*
X10555Y27944D01*
X10479Y27988D01*
X10400Y28025D01*
X10318Y28055D01*
X10233Y28077D01*
X10147Y28092D01*
X10144Y28093D01*
X10144Y28093D02*
G37*
G36*
X9890Y28093D02*
X9886Y28092D01*
X9800Y28077D01*
X9716Y28055D01*
X9634Y28025D01*
X9555Y27988D01*
X9479Y27944D01*
X9407Y27894D01*
X9341Y27838D01*
X9279Y27776D01*
X9223Y27709D01*
X9173Y27638D01*
X9129Y27562D01*
X9092Y27483D01*
X9062Y27401D01*
X9040Y27317D01*
X9024Y27231D01*
X9024Y27227D01*
X9890Y27227D01*
X9890Y28093D01*
X9890Y28093D02*
G37*
G36*
X11009Y26973D02*
X10144Y26973D01*
X10144Y26107D01*
X10147Y26108D01*
X10233Y26123D01*
X10318Y26145D01*
X10400Y26175D01*
X10479Y26212D01*
X10555Y26256D01*
X10626Y26306D01*
X10693Y26362D01*
X10755Y26424D01*
X10811Y26491D01*
X10861Y26562D01*
X10905Y26638D01*
X10942Y26717D01*
X10971Y26799D01*
X10994Y26883D01*
X11009Y26969D01*
X11009Y26973D01*
X11009Y26973D02*
G37*
G36*
X9890Y26973D02*
X9024Y26973D01*
X9024Y26969D01*
X9040Y26883D01*
X9062Y26799D01*
X9092Y26717D01*
X9129Y26638D01*
X9173Y26562D01*
X9223Y26491D01*
X9279Y26424D01*
X9341Y26362D01*
X9407Y26306D01*
X9479Y26256D01*
X9555Y26212D01*
X9634Y26175D01*
X9716Y26145D01*
X9800Y26123D01*
X9886Y26108D01*
X9890Y26107D01*
X9890Y26973D01*
X9890Y26973D02*
G37*
G36*
X9927Y57423D02*
X9927Y56557D01*
X10793Y56557D01*
X10793Y56561D01*
X10777Y56647D01*
X10755Y56731D01*
X10725Y56813D01*
X10688Y56892D01*
X10644Y56968D01*
X10594Y57039D01*
X10538Y57106D01*
X10476Y57168D01*
X10410Y57224D01*
X10338Y57274D01*
X10262Y57318D01*
X10183Y57355D01*
X10101Y57385D01*
X10017Y57407D01*
X9931Y57422D01*
X9927Y57423D01*
X9927Y57423D02*
G37*
G36*
X9673Y56303D02*
X8807Y56303D01*
X8808Y56299D01*
X8823Y56213D01*
X8846Y56129D01*
X8875Y56047D01*
X8912Y55968D01*
X8956Y55892D01*
X9006Y55821D01*
X9062Y55754D01*
X9124Y55692D01*
X9191Y55636D01*
X9262Y55586D01*
X9338Y55542D01*
X9417Y55505D01*
X9499Y55475D01*
X9584Y55453D01*
X9670Y55438D01*
X9673Y55437D01*
X9673Y56303D01*
X9673Y56303D02*
G37*
G36*
X10793Y56303D02*
X9927Y56303D01*
X9927Y55437D01*
X9931Y55438D01*
X10017Y55453D01*
X10101Y55475D01*
X10183Y55505D01*
X10262Y55542D01*
X10338Y55586D01*
X10410Y55636D01*
X10476Y55692D01*
X10538Y55754D01*
X10594Y55821D01*
X10644Y55892D01*
X10688Y55968D01*
X10725Y56047D01*
X10755Y56129D01*
X10777Y56213D01*
X10793Y56299D01*
X10793Y56303D01*
X10793Y56303D02*
G37*
G36*
X9844Y54890D02*
X9757Y54890D01*
X9670Y54882D01*
X9584Y54867D01*
X9499Y54845D01*
X9417Y54815D01*
X9338Y54778D01*
X9262Y54734D01*
X9191Y54684D01*
X9124Y54628D01*
X9062Y54566D01*
X9006Y54499D01*
X8956Y54428D01*
X8912Y54352D01*
X8875Y54273D01*
X8846Y54191D01*
X8823Y54107D01*
X8808Y54021D01*
X8800Y53934D01*
X8800Y53846D01*
X8808Y53759D01*
X8823Y53673D01*
X8846Y53589D01*
X8875Y53507D01*
X8912Y53428D01*
X8956Y53352D01*
X9006Y53281D01*
X9062Y53214D01*
X9124Y53152D01*
X9191Y53096D01*
X9262Y53046D01*
X9338Y53002D01*
X9417Y52965D01*
X9499Y52935D01*
X9584Y52913D01*
X9670Y52898D01*
X9757Y52890D01*
X9844Y52890D01*
X9931Y52898D01*
X10017Y52913D01*
X10101Y52935D01*
X10183Y52965D01*
X10262Y53002D01*
X10338Y53046D01*
X10410Y53096D01*
X10476Y53152D01*
X10538Y53214D01*
X10594Y53281D01*
X10644Y53352D01*
X10688Y53428D01*
X10725Y53507D01*
X10755Y53589D01*
X10777Y53673D01*
X10793Y53759D01*
X10800Y53846D01*
X10800Y53934D01*
X10793Y54021D01*
X10777Y54107D01*
X10755Y54191D01*
X10725Y54273D01*
X10688Y54352D01*
X10644Y54428D01*
X10594Y54499D01*
X10538Y54566D01*
X10476Y54628D01*
X10410Y54684D01*
X10338Y54734D01*
X10262Y54778D01*
X10183Y54815D01*
X10101Y54845D01*
X10017Y54867D01*
X9931Y54882D01*
X9844Y54890D01*
X9844Y54890D02*
G37*
G36*
X9844Y52350D02*
X9757Y52350D01*
X9670Y52342D01*
X9584Y52327D01*
X9499Y52305D01*
X9417Y52275D01*
X9338Y52238D01*
X9262Y52194D01*
X9191Y52144D01*
X9124Y52088D01*
X9062Y52026D01*
X9006Y51959D01*
X8956Y51888D01*
X8912Y51812D01*
X8875Y51733D01*
X8846Y51651D01*
X8823Y51567D01*
X8808Y51481D01*
X8800Y51394D01*
X8800Y51306D01*
X8808Y51219D01*
X8823Y51133D01*
X8846Y51049D01*
X8875Y50967D01*
X8912Y50888D01*
X8956Y50812D01*
X9006Y50741D01*
X9062Y50674D01*
X9124Y50612D01*
X9191Y50556D01*
X9262Y50506D01*
X9338Y50462D01*
X9417Y50425D01*
X9499Y50395D01*
X9584Y50373D01*
X9670Y50358D01*
X9757Y50350D01*
X9844Y50350D01*
X9931Y50358D01*
X10017Y50373D01*
X10101Y50395D01*
X10183Y50425D01*
X10262Y50462D01*
X10338Y50506D01*
X10410Y50556D01*
X10476Y50612D01*
X10538Y50674D01*
X10594Y50741D01*
X10644Y50812D01*
X10688Y50888D01*
X10725Y50967D01*
X10755Y51049D01*
X10777Y51133D01*
X10793Y51219D01*
X10800Y51306D01*
X10800Y51394D01*
X10793Y51481D01*
X10777Y51567D01*
X10755Y51651D01*
X10725Y51733D01*
X10688Y51812D01*
X10644Y51888D01*
X10594Y51959D01*
X10538Y52026D01*
X10476Y52088D01*
X10410Y52144D01*
X10338Y52194D01*
X10262Y52238D01*
X10183Y52275D01*
X10101Y52305D01*
X10017Y52327D01*
X9931Y52342D01*
X9844Y52350D01*
X9844Y52350D02*
G37*
G36*
X9844Y49810D02*
X9757Y49810D01*
X9670Y49802D01*
X9584Y49787D01*
X9499Y49765D01*
X9417Y49735D01*
X9338Y49698D01*
X9262Y49654D01*
X9191Y49604D01*
X9124Y49548D01*
X9062Y49486D01*
X9006Y49419D01*
X8956Y49348D01*
X8912Y49272D01*
X8875Y49193D01*
X8846Y49111D01*
X8823Y49027D01*
X8808Y48941D01*
X8800Y48854D01*
X8800Y48766D01*
X8808Y48679D01*
X8823Y48593D01*
X8846Y48509D01*
X8875Y48427D01*
X8912Y48348D01*
X8956Y48272D01*
X9006Y48201D01*
X9062Y48134D01*
X9124Y48072D01*
X9191Y48016D01*
X9262Y47966D01*
X9338Y47922D01*
X9417Y47885D01*
X9499Y47855D01*
X9584Y47833D01*
X9670Y47818D01*
X9757Y47810D01*
X9844Y47810D01*
X9931Y47818D01*
X10017Y47833D01*
X10101Y47855D01*
X10183Y47885D01*
X10262Y47922D01*
X10338Y47966D01*
X10410Y48016D01*
X10476Y48072D01*
X10538Y48134D01*
X10594Y48201D01*
X10644Y48272D01*
X10688Y48348D01*
X10725Y48427D01*
X10755Y48509D01*
X10777Y48593D01*
X10793Y48679D01*
X10800Y48766D01*
X10800Y48854D01*
X10793Y48941D01*
X10777Y49027D01*
X10755Y49111D01*
X10725Y49193D01*
X10688Y49272D01*
X10644Y49348D01*
X10594Y49419D01*
X10538Y49486D01*
X10476Y49548D01*
X10410Y49604D01*
X10338Y49654D01*
X10262Y49698D01*
X10183Y49735D01*
X10101Y49765D01*
X10017Y49787D01*
X9931Y49802D01*
X9844Y49810D01*
X9844Y49810D02*
G37*
G36*
X50327Y47263D02*
X50327Y46397D01*
X51193Y46397D01*
X51192Y46401D01*
X51177Y46487D01*
X51155Y46571D01*
X51125Y46653D01*
X51088Y46732D01*
X51044Y46808D01*
X50994Y46879D01*
X50938Y46946D01*
X50876Y47008D01*
X50809Y47064D01*
X50738Y47114D01*
X50662Y47158D01*
X50583Y47195D01*
X50501Y47225D01*
X50417Y47247D01*
X50331Y47262D01*
X50327Y47263D01*
X50327Y47263D02*
G37*
G36*
X50073Y47263D02*
X50069Y47262D01*
X49983Y47247D01*
X49899Y47225D01*
X49817Y47195D01*
X49738Y47158D01*
X49662Y47114D01*
X49591Y47064D01*
X49524Y47008D01*
X49462Y46946D01*
X49406Y46879D01*
X49356Y46808D01*
X49312Y46732D01*
X49275Y46653D01*
X49245Y46571D01*
X49223Y46487D01*
X49208Y46401D01*
X49207Y46397D01*
X50073Y46397D01*
X50073Y47263D01*
X50073Y47263D02*
G37*
G36*
X34075Y46509D02*
X32877Y46509D01*
X32877Y45936D01*
X34075Y45936D01*
X34075Y46509D01*
X34075Y46509D02*
G37*
G36*
X32623Y46509D02*
X31425Y46509D01*
X31425Y45936D01*
X32623Y45936D01*
X32623Y46509D01*
X32623Y46509D02*
G37*
G36*
X28575Y46509D02*
X27377Y46509D01*
X27377Y45936D01*
X28575Y45936D01*
X28575Y46509D01*
X28575Y46509D02*
G37*
G36*
X27123Y46509D02*
X25925Y46509D01*
X25925Y45936D01*
X27123Y45936D01*
X27123Y46509D01*
X27123Y46509D02*
G37*
G36*
X9844Y47270D02*
X9757Y47270D01*
X9670Y47262D01*
X9584Y47247D01*
X9499Y47225D01*
X9417Y47195D01*
X9338Y47158D01*
X9262Y47114D01*
X9191Y47064D01*
X9124Y47008D01*
X9062Y46946D01*
X9006Y46879D01*
X8956Y46808D01*
X8912Y46732D01*
X8875Y46653D01*
X8846Y46571D01*
X8823Y46487D01*
X8808Y46401D01*
X8800Y46314D01*
X8800Y46226D01*
X8808Y46139D01*
X8823Y46053D01*
X8846Y45969D01*
X8875Y45887D01*
X8912Y45808D01*
X8956Y45732D01*
X9006Y45661D01*
X9062Y45594D01*
X9124Y45532D01*
X9191Y45476D01*
X9262Y45426D01*
X9338Y45382D01*
X9417Y45345D01*
X9499Y45315D01*
X9584Y45293D01*
X9670Y45278D01*
X9757Y45270D01*
X9844Y45270D01*
X9931Y45278D01*
X10017Y45293D01*
X10101Y45315D01*
X10183Y45345D01*
X10262Y45382D01*
X10338Y45426D01*
X10410Y45476D01*
X10476Y45532D01*
X10538Y45594D01*
X10594Y45661D01*
X10644Y45732D01*
X10688Y45808D01*
X10725Y45887D01*
X10755Y45969D01*
X10777Y46053D01*
X10793Y46139D01*
X10800Y46226D01*
X10800Y46314D01*
X10793Y46401D01*
X10777Y46487D01*
X10755Y46571D01*
X10725Y46653D01*
X10688Y46732D01*
X10644Y46808D01*
X10594Y46879D01*
X10538Y46946D01*
X10476Y47008D01*
X10410Y47064D01*
X10338Y47114D01*
X10262Y47158D01*
X10183Y47195D01*
X10101Y47225D01*
X10017Y47247D01*
X9931Y47262D01*
X9844Y47270D01*
X9844Y47270D02*
G37*
G36*
X34075Y45682D02*
X32877Y45682D01*
X32877Y45109D01*
X34075Y45109D01*
X34075Y45682D01*
X34075Y45682D02*
G37*
G36*
X32623Y45682D02*
X31425Y45682D01*
X31425Y45109D01*
X32623Y45109D01*
X32623Y45682D01*
X32623Y45682D02*
G37*
G36*
X28575Y45682D02*
X27377Y45682D01*
X27377Y45109D01*
X28575Y45109D01*
X28575Y45682D01*
X28575Y45682D02*
G37*
G36*
X27123Y45682D02*
X25925Y45682D01*
X25925Y45109D01*
X27123Y45109D01*
X27123Y45682D01*
X27123Y45682D02*
G37*
G36*
X9844Y44730D02*
X9757Y44730D01*
X9670Y44722D01*
X9584Y44707D01*
X9499Y44685D01*
X9417Y44655D01*
X9338Y44618D01*
X9262Y44574D01*
X9191Y44524D01*
X9124Y44468D01*
X9062Y44406D01*
X9006Y44339D01*
X8956Y44268D01*
X8912Y44192D01*
X8875Y44113D01*
X8846Y44031D01*
X8823Y43947D01*
X8808Y43861D01*
X8800Y43774D01*
X8800Y43686D01*
X8808Y43599D01*
X8823Y43513D01*
X8846Y43429D01*
X8875Y43347D01*
X8912Y43268D01*
X8956Y43192D01*
X9006Y43121D01*
X9062Y43054D01*
X9124Y42992D01*
X9191Y42936D01*
X9262Y42886D01*
X9338Y42842D01*
X9417Y42805D01*
X9499Y42775D01*
X9584Y42753D01*
X9670Y42738D01*
X9757Y42730D01*
X9844Y42730D01*
X9931Y42738D01*
X10017Y42753D01*
X10101Y42775D01*
X10183Y42805D01*
X10262Y42842D01*
X10338Y42886D01*
X10410Y42936D01*
X10476Y42992D01*
X10538Y43054D01*
X10594Y43121D01*
X10644Y43192D01*
X10688Y43268D01*
X10725Y43347D01*
X10755Y43429D01*
X10777Y43513D01*
X10793Y43599D01*
X10800Y43686D01*
X10800Y43774D01*
X10793Y43861D01*
X10777Y43947D01*
X10755Y44031D01*
X10725Y44113D01*
X10688Y44192D01*
X10644Y44268D01*
X10594Y44339D01*
X10538Y44406D01*
X10476Y44468D01*
X10410Y44524D01*
X10338Y44574D01*
X10262Y44618D01*
X10183Y44655D01*
X10101Y44685D01*
X10017Y44707D01*
X9931Y44722D01*
X9844Y44730D01*
X9844Y44730D02*
G37*
G36*
X50618Y57234D02*
X50564Y57234D01*
X50511Y57229D01*
X50459Y57217D01*
X50409Y57199D01*
X50361Y57176D01*
X50316Y57147D01*
X50274Y57114D01*
X50236Y57076D01*
X50203Y57035D01*
X50175Y56990D01*
X50152Y56942D01*
X50134Y56891D01*
X50122Y56839D01*
X50116Y56786D01*
X50116Y56768D01*
X50115Y56760D01*
X50115Y56734D01*
X50113Y56715D01*
X50111Y56699D01*
X50109Y56686D01*
X50105Y56676D01*
X50102Y56668D01*
X50100Y56661D01*
X50097Y56657D01*
X50094Y56654D01*
X50087Y56646D01*
X36805Y43363D01*
X36777Y43331D01*
X36754Y43294D01*
X36738Y43254D01*
X36728Y43212D01*
X36724Y43168D01*
X36724Y34687D01*
X36724Y34676D01*
X36723Y34672D01*
X36722Y34667D01*
X36720Y34661D01*
X36716Y34653D01*
X36711Y34643D01*
X36703Y34632D01*
X36694Y34619D01*
X36681Y34605D01*
X36663Y34586D01*
X36658Y34580D01*
X36645Y34567D01*
X36612Y34525D01*
X36584Y34480D01*
X36560Y34432D01*
X36543Y34382D01*
X36531Y34330D01*
X36525Y34277D01*
X36525Y34223D01*
X36530Y34181D01*
X36529Y34167D01*
X36443Y34028D01*
X36402Y33991D01*
X36380Y33981D01*
X32886Y33981D01*
X32843Y33977D01*
X32801Y33967D01*
X32761Y33951D01*
X32724Y33928D01*
X32691Y33900D01*
X23130Y24339D01*
X23102Y24306D01*
X23079Y24269D01*
X23063Y24229D01*
X23053Y24187D01*
X23049Y24144D01*
X23049Y13497D01*
X23049Y13486D01*
X23048Y13482D01*
X23047Y13477D01*
X23045Y13470D01*
X23041Y13462D01*
X23036Y13453D01*
X23028Y13442D01*
X23019Y13429D01*
X23006Y13415D01*
X22988Y13396D01*
X22983Y13390D01*
X22970Y13377D01*
X22937Y13335D01*
X22909Y13290D01*
X22885Y13242D01*
X22885Y13241D01*
X22685Y13275D01*
X22685Y14640D01*
X22683Y14683D01*
X22674Y14725D01*
X22661Y14765D01*
X22642Y14803D01*
X22618Y14839D01*
X22590Y14871D01*
X14725Y22736D01*
X14724Y22737D01*
X14707Y22754D01*
X14697Y22767D01*
X14689Y22777D01*
X14683Y22786D01*
X14679Y22793D01*
X14677Y22797D01*
X14676Y22799D01*
X14676Y22806D01*
X14675Y22812D01*
X14675Y22827D01*
X14669Y22880D01*
X14657Y22932D01*
X14640Y22982D01*
X14616Y23030D01*
X14588Y23075D01*
X14555Y23117D01*
X14517Y23155D01*
X14475Y23188D01*
X14430Y23216D01*
X14382Y23240D01*
X14332Y23257D01*
X14280Y23269D01*
X14227Y23275D01*
X14173Y23275D01*
X14120Y23269D01*
X14068Y23257D01*
X14018Y23240D01*
X13970Y23216D01*
X13925Y23188D01*
X13883Y23155D01*
X13845Y23117D01*
X13812Y23075D01*
X13784Y23030D01*
X13760Y22982D01*
X13743Y22932D01*
X13731Y22880D01*
X13725Y22827D01*
X13725Y22773D01*
X13731Y22720D01*
X13743Y22668D01*
X13760Y22618D01*
X13784Y22570D01*
X13812Y22525D01*
X13845Y22483D01*
X13883Y22445D01*
X13925Y22412D01*
X13970Y22384D01*
X14018Y22360D01*
X14068Y22343D01*
X14120Y22331D01*
X14173Y22325D01*
X14188Y22325D01*
X14194Y22324D01*
X14201Y22324D01*
X14203Y22323D01*
X14207Y22321D01*
X14214Y22317D01*
X14220Y22313D01*
X14248Y22291D01*
X14263Y22276D01*
X14264Y22275D01*
X22034Y14505D01*
X22034Y8117D01*
X22034Y8115D01*
X22033Y8092D01*
X22032Y8076D01*
X22030Y8062D01*
X22028Y8052D01*
X22026Y8045D01*
X22024Y8040D01*
X22024Y8039D01*
X22019Y8033D01*
X22016Y8029D01*
X22004Y8017D01*
X21970Y7975D01*
X21942Y7930D01*
X21919Y7882D01*
X21901Y7832D01*
X21889Y7780D01*
X21883Y7727D01*
X21883Y7673D01*
X21889Y7620D01*
X21901Y7568D01*
X21919Y7518D01*
X21942Y7470D01*
X21970Y7425D01*
X22004Y7383D01*
X22041Y7345D01*
X22083Y7312D01*
X22128Y7284D01*
X22176Y7260D01*
X22227Y7243D01*
X22279Y7231D01*
X22332Y7225D01*
X22385Y7225D01*
X22438Y7231D01*
X22490Y7243D01*
X22540Y7260D01*
X22588Y7284D01*
X22634Y7312D01*
X22675Y7345D01*
X22713Y7383D01*
X22746Y7425D01*
X22775Y7470D01*
X22798Y7518D01*
X22815Y7568D01*
X22827Y7620D01*
X22833Y7673D01*
X22833Y7727D01*
X22827Y7780D01*
X22815Y7832D01*
X22798Y7882D01*
X22775Y7930D01*
X22746Y7975D01*
X22713Y8017D01*
X22704Y8026D01*
X22701Y8030D01*
X22696Y8036D01*
X22695Y8038D01*
X22693Y8043D01*
X22691Y8050D01*
X22690Y8058D01*
X22686Y8093D01*
X22686Y8114D01*
X22685Y8116D01*
X22685Y8727D01*
X22885Y8761D01*
X22885Y8760D01*
X22909Y8712D01*
X22937Y8667D01*
X22970Y8625D01*
X23008Y8588D01*
X23050Y8554D01*
X23095Y8526D01*
X23143Y8503D01*
X23193Y8485D01*
X23245Y8473D01*
X23298Y8467D01*
X23339Y8467D01*
X23383Y8425D01*
X23428Y8306D01*
X23420Y8237D01*
X23392Y8214D01*
X23354Y8177D01*
X23321Y8135D01*
X23293Y8090D01*
X23269Y8042D01*
X23252Y7991D01*
X23240Y7939D01*
X23234Y7886D01*
X23234Y7833D01*
X23240Y7780D01*
X23252Y7728D01*
X23269Y7678D01*
X23293Y7629D01*
X23321Y7584D01*
X23354Y7543D01*
X23392Y7505D01*
X23434Y7472D01*
X23479Y7443D01*
X23527Y7420D01*
X23577Y7402D01*
X23629Y7391D01*
X23682Y7385D01*
X23736Y7385D01*
X23789Y7391D01*
X23841Y7402D01*
X23891Y7420D01*
X23939Y7443D01*
X23984Y7472D01*
X24004Y7488D01*
X24025Y7472D01*
X24070Y7443D01*
X24118Y7420D01*
X24168Y7402D01*
X24220Y7391D01*
X24273Y7385D01*
X24327Y7385D01*
X24380Y7391D01*
X24432Y7402D01*
X24482Y7420D01*
X24530Y7443D01*
X24575Y7472D01*
X24617Y7505D01*
X24655Y7543D01*
X24688Y7584D01*
X24716Y7629D01*
X24740Y7678D01*
X24757Y7728D01*
X24769Y7780D01*
X24775Y7833D01*
X24775Y7886D01*
X24769Y7939D01*
X24757Y7991D01*
X24740Y8042D01*
X24716Y8090D01*
X24688Y8135D01*
X24655Y8177D01*
X24617Y8214D01*
X24575Y8248D01*
X24530Y8276D01*
X24482Y8299D01*
X24432Y8317D01*
X24380Y8329D01*
X24327Y8335D01*
X24273Y8335D01*
X24220Y8329D01*
X24168Y8317D01*
X24118Y8299D01*
X24070Y8276D01*
X24025Y8248D01*
X24004Y8231D01*
X23984Y8248D01*
X23939Y8276D01*
X23891Y8299D01*
X23841Y8317D01*
X23789Y8329D01*
X23736Y8335D01*
X23695Y8335D01*
X23651Y8377D01*
X23606Y8496D01*
X23614Y8565D01*
X23642Y8588D01*
X23680Y8625D01*
X23713Y8667D01*
X23741Y8712D01*
X23765Y8760D01*
X23782Y8811D01*
X23794Y8863D01*
X23800Y8916D01*
X23800Y8969D01*
X23794Y9022D01*
X23782Y9074D01*
X23765Y9125D01*
X23741Y9173D01*
X23713Y9218D01*
X23680Y9260D01*
X23664Y9296D01*
X23653Y9388D01*
X23664Y9480D01*
X23680Y9517D01*
X23713Y9558D01*
X23741Y9603D01*
X23765Y9651D01*
X23782Y9702D01*
X23794Y9754D01*
X23800Y9807D01*
X23800Y9860D01*
X23794Y9913D01*
X24195Y10313D01*
X24223Y10346D01*
X24246Y10383D01*
X24262Y10423D01*
X24272Y10465D01*
X24276Y10509D01*
X24276Y24246D01*
X32279Y32249D01*
X40303Y32249D01*
X40307Y32245D01*
X40372Y32113D01*
X40383Y32049D01*
X40362Y32023D01*
X40334Y31978D01*
X40310Y31930D01*
X40293Y31879D01*
X40281Y31827D01*
X40275Y31774D01*
X40275Y31721D01*
X40281Y31668D01*
X40293Y31616D01*
X40310Y31565D01*
X40334Y31517D01*
X40362Y31472D01*
X40395Y31430D01*
X40408Y31418D01*
X40413Y31411D01*
X40431Y31392D01*
X40444Y31378D01*
X40453Y31366D01*
X40461Y31354D01*
X40466Y31345D01*
X40470Y31337D01*
X40472Y31331D01*
X40473Y31326D01*
X40474Y31322D01*
X40474Y31311D01*
X40474Y30925D01*
X40478Y30882D01*
X40488Y30840D01*
X40504Y30800D01*
X40527Y30763D01*
X40555Y30730D01*
X41480Y29805D01*
X41513Y29777D01*
X41550Y29754D01*
X41590Y29738D01*
X41632Y29728D01*
X41675Y29724D01*
X41787Y29724D01*
X41844Y29669D01*
X41917Y29532D01*
X41916Y29524D01*
X41906Y29480D01*
X41900Y29427D01*
X41900Y29373D01*
X41906Y29320D01*
X41918Y29268D01*
X41935Y29218D01*
X41959Y29170D01*
X41987Y29125D01*
X42020Y29083D01*
X42058Y29045D01*
X42100Y29012D01*
X42145Y28984D01*
X42193Y28960D01*
X42243Y28943D01*
X42295Y28931D01*
X42348Y28925D01*
X42402Y28925D01*
X42455Y28931D01*
X42507Y28943D01*
X42538Y28954D01*
X42578Y28938D01*
X42620Y28928D01*
X42663Y28924D01*
X43035Y28924D01*
X43037Y28924D01*
X43062Y28924D01*
X43125Y28922D01*
X43142Y28920D01*
X43157Y28914D01*
X43203Y28903D01*
X43250Y28899D01*
X43760Y28899D01*
X43783Y28893D01*
X43886Y28836D01*
X43943Y28733D01*
X43949Y28710D01*
X43949Y28200D01*
X43953Y28153D01*
X43964Y28107D01*
X43982Y28063D01*
X44007Y28023D01*
X44037Y27987D01*
X44073Y27957D01*
X44113Y27932D01*
X44157Y27914D01*
X44203Y27903D01*
X44250Y27899D01*
X44297Y27903D01*
X44343Y27914D01*
X44475Y27842D01*
X44519Y27688D01*
X44510Y27670D01*
X44493Y27619D01*
X44481Y27567D01*
X44475Y27514D01*
X44475Y27461D01*
X44481Y27408D01*
X44493Y27356D01*
X44510Y27305D01*
X44534Y27257D01*
X44562Y27212D01*
X44574Y27197D01*
X44574Y17155D01*
X44500Y16962D01*
X44050Y16962D01*
X43994Y16958D01*
X43940Y16947D01*
X43887Y16929D01*
X43837Y16905D01*
X43791Y16874D01*
X43749Y16837D01*
X43712Y16795D01*
X43681Y16749D01*
X43657Y16699D01*
X43639Y16646D01*
X43588Y16562D01*
X43485Y16484D01*
X43431Y16484D01*
X43378Y16478D01*
X43326Y16466D01*
X43276Y16449D01*
X43228Y16426D01*
X43183Y16397D01*
X43141Y16364D01*
X43103Y16326D01*
X43070Y16285D01*
X43042Y16239D01*
X43019Y16191D01*
X43001Y16141D01*
X42989Y16089D01*
X42983Y16036D01*
X42983Y15983D01*
X42989Y15930D01*
X43001Y15878D01*
X43019Y15827D01*
X43042Y15779D01*
X43070Y15734D01*
X43103Y15692D01*
X43141Y15654D01*
X43183Y15621D01*
X43228Y15593D01*
X43276Y15570D01*
X43326Y15552D01*
X43378Y15540D01*
X43431Y15534D01*
X43485Y15534D01*
X43550Y15532D01*
X43625Y15485D01*
X43657Y15423D01*
X43681Y15373D01*
X43712Y15327D01*
X43749Y15285D01*
X43791Y15248D01*
X43837Y15217D01*
X43887Y15193D01*
X43899Y15188D01*
X43921Y15084D01*
X43899Y14979D01*
X43887Y14975D01*
X43837Y14951D01*
X43791Y14920D01*
X43749Y14883D01*
X43712Y14841D01*
X43681Y14795D01*
X43657Y14745D01*
X43639Y14692D01*
X43611Y14627D01*
X43536Y14582D01*
X43483Y14582D01*
X43430Y14576D01*
X43378Y14564D01*
X43328Y14546D01*
X43280Y14523D01*
X43235Y14495D01*
X43193Y14461D01*
X43155Y14424D01*
X43122Y14382D01*
X43093Y14337D01*
X43070Y14289D01*
X43053Y14238D01*
X43041Y14186D01*
X43035Y14133D01*
X43035Y14080D01*
X43041Y14027D01*
X43053Y13975D01*
X43070Y13925D01*
X43093Y13877D01*
X43122Y13831D01*
X43155Y13790D01*
X43193Y13752D01*
X43235Y13719D01*
X43280Y13690D01*
X43328Y13667D01*
X43378Y13650D01*
X43430Y13638D01*
X43483Y13632D01*
X43536Y13632D01*
X43611Y13586D01*
X43639Y13521D01*
X43657Y13469D01*
X43681Y13419D01*
X43712Y13372D01*
X43749Y13331D01*
X43791Y13294D01*
X43837Y13263D01*
X43887Y13238D01*
X43940Y13220D01*
X43994Y13209D01*
X44050Y13206D01*
X44500Y13206D01*
X44556Y13209D01*
X44610Y13220D01*
X44663Y13238D01*
X44713Y13263D01*
X44759Y13294D01*
X44769Y13303D01*
X44909Y13291D01*
X44988Y13262D01*
X44996Y13256D01*
X45020Y13198D01*
X45061Y13119D01*
X45110Y13043D01*
X45164Y12972D01*
X45225Y12906D01*
X45291Y12846D01*
X45362Y12791D01*
X45437Y12743D01*
X45516Y12702D01*
X45599Y12668D01*
X45684Y12641D01*
X45772Y12621D01*
X45861Y12610D01*
X45950Y12606D01*
X46400Y12606D01*
X46489Y12610D01*
X46578Y12621D01*
X46666Y12641D01*
X46751Y12668D01*
X46834Y12702D01*
X46913Y12743D01*
X46988Y12791D01*
X47059Y12846D01*
X47069Y12854D01*
X48787Y12854D01*
X48989Y12677D01*
X49064Y12602D01*
X49077Y12590D01*
X49106Y12562D01*
X49184Y12493D01*
X49268Y12429D01*
X49355Y12371D01*
X49445Y12318D01*
X49539Y12272D01*
X49636Y12232D01*
X49735Y12198D01*
X49836Y12171D01*
X49939Y12151D01*
X50043Y12137D01*
X50148Y12130D01*
X50252Y12130D01*
X50357Y12137D01*
X50461Y12151D01*
X50564Y12171D01*
X50665Y12198D01*
X50764Y12232D01*
X50861Y12272D01*
X50955Y12318D01*
X51045Y12371D01*
X51132Y12429D01*
X51216Y12493D01*
X51294Y12562D01*
X51368Y12636D01*
X51437Y12714D01*
X51501Y12798D01*
X51559Y12885D01*
X51612Y12975D01*
X51658Y13069D01*
X51698Y13166D01*
X51732Y13265D01*
X51759Y13366D01*
X51779Y13469D01*
X51793Y13573D01*
X51800Y13678D01*
X51800Y13782D01*
X51793Y13887D01*
X51779Y13991D01*
X51759Y14094D01*
X51732Y14195D01*
X51698Y14294D01*
X51658Y14391D01*
X51612Y14485D01*
X51559Y14575D01*
X51501Y14662D01*
X51437Y14746D01*
X51368Y14824D01*
X51327Y14866D01*
X51319Y14877D01*
X51301Y15000D01*
X51319Y15123D01*
X51327Y15134D01*
X51368Y15176D01*
X51437Y15254D01*
X51501Y15338D01*
X51559Y15425D01*
X51612Y15515D01*
X51658Y15609D01*
X51698Y15706D01*
X51732Y15805D01*
X51759Y15906D01*
X51779Y16009D01*
X51793Y16113D01*
X51800Y16218D01*
X51800Y16322D01*
X51793Y16427D01*
X51779Y16531D01*
X51759Y16634D01*
X51732Y16735D01*
X51698Y16834D01*
X51658Y16931D01*
X51612Y17025D01*
X51559Y17115D01*
X51501Y17202D01*
X51437Y17286D01*
X51368Y17364D01*
X51294Y17438D01*
X51216Y17507D01*
X51132Y17571D01*
X51045Y17629D01*
X50955Y17682D01*
X50861Y17728D01*
X50764Y17768D01*
X50665Y17802D01*
X50564Y17829D01*
X50461Y17849D01*
X50357Y17863D01*
X50252Y17870D01*
X50148Y17870D01*
X50043Y17863D01*
X49939Y17849D01*
X49836Y17829D01*
X49735Y17802D01*
X49636Y17768D01*
X49539Y17728D01*
X49445Y17682D01*
X49355Y17629D01*
X49268Y17571D01*
X49184Y17507D01*
X49106Y17438D01*
X49077Y17410D01*
X49064Y17398D01*
X48979Y17314D01*
X48915Y17253D01*
X48792Y17150D01*
X48787Y17146D01*
X47224Y17146D01*
X47186Y17195D01*
X47125Y17261D01*
X47059Y17322D01*
X46988Y17376D01*
X46913Y17425D01*
X46834Y17466D01*
X46751Y17500D01*
X46726Y17508D01*
X46726Y23283D01*
X46773Y23325D01*
X46827Y23325D01*
X46880Y23331D01*
X46932Y23343D01*
X46982Y23360D01*
X47030Y23384D01*
X47075Y23412D01*
X47117Y23445D01*
X47155Y23483D01*
X47188Y23525D01*
X47216Y23570D01*
X47240Y23618D01*
X47257Y23668D01*
X47258Y23673D01*
X47259Y23676D01*
X47277Y23736D01*
X47283Y23754D01*
X47300Y23795D01*
X47306Y23807D01*
X47313Y23818D01*
X47319Y23827D01*
X47323Y23833D01*
X47332Y23841D01*
X50478Y26988D01*
X50486Y26995D01*
X50489Y26998D01*
X50493Y27000D01*
X50498Y27002D01*
X50506Y27005D01*
X50515Y27007D01*
X50527Y27010D01*
X50542Y27011D01*
X50560Y27012D01*
X50586Y27012D01*
X50594Y27013D01*
X50627Y27013D01*
X50680Y27018D01*
X50732Y27030D01*
X50782Y27048D01*
X50830Y27071D01*
X50875Y27100D01*
X50917Y27133D01*
X50955Y27170D01*
X50988Y27212D01*
X51016Y27257D01*
X51040Y27305D01*
X51057Y27356D01*
X51069Y27408D01*
X51075Y27461D01*
X51075Y27514D01*
X51069Y27567D01*
X51057Y27619D01*
X51040Y27670D01*
X51016Y27718D01*
X50988Y27763D01*
X50955Y27805D01*
X50917Y27842D01*
X50875Y27875D01*
X50830Y27904D01*
X50782Y27927D01*
X50732Y27945D01*
X50680Y27957D01*
X50627Y27962D01*
X50573Y27962D01*
X50520Y27957D01*
X50468Y27945D01*
X50418Y27927D01*
X50370Y27904D01*
X50325Y27875D01*
X50283Y27842D01*
X50245Y27805D01*
X50212Y27763D01*
X50184Y27718D01*
X50160Y27670D01*
X50143Y27619D01*
X50131Y27567D01*
X50125Y27514D01*
X50125Y27508D01*
X50124Y27503D01*
X50123Y27476D01*
X50121Y27457D01*
X50118Y27440D01*
X50115Y27426D01*
X50112Y27414D01*
X50108Y27405D01*
X50105Y27399D01*
X50102Y27394D01*
X50099Y27390D01*
X50092Y27382D01*
X46971Y24261D01*
X46964Y24254D01*
X46963Y24254D01*
X46962Y24254D01*
X46957Y24254D01*
X46950Y24254D01*
X46940Y24256D01*
X46920Y24261D01*
X46912Y24262D01*
X46880Y24269D01*
X46827Y24275D01*
X46773Y24275D01*
X46726Y24317D01*
X46726Y27981D01*
X46726Y27983D01*
X46726Y27993D01*
X46737Y28044D01*
X46747Y28121D01*
X46751Y28200D01*
X46751Y28259D01*
X46778Y28291D01*
X46847Y28334D01*
X46951Y28371D01*
X46973Y28360D01*
X47023Y28343D01*
X47075Y28331D01*
X47128Y28325D01*
X47181Y28325D01*
X47234Y28331D01*
X47286Y28343D01*
X47337Y28360D01*
X47385Y28384D01*
X47430Y28412D01*
X47472Y28445D01*
X47509Y28483D01*
X47543Y28525D01*
X47571Y28570D01*
X47594Y28618D01*
X47612Y28668D01*
X47624Y28720D01*
X47630Y28773D01*
X47630Y28827D01*
X47624Y28880D01*
X47612Y28932D01*
X47594Y28982D01*
X47571Y29030D01*
X47543Y29075D01*
X47509Y29117D01*
X47502Y29124D01*
X47528Y29243D01*
X47580Y29324D01*
X47783Y29324D01*
X47826Y29328D01*
X47868Y29338D01*
X47908Y29354D01*
X47945Y29377D01*
X47978Y29405D01*
X48770Y30197D01*
X48798Y30230D01*
X48821Y30267D01*
X48837Y30307D01*
X48847Y30349D01*
X48851Y30392D01*
X48851Y32796D01*
X48851Y32807D01*
X48852Y32811D01*
X48853Y32816D01*
X48855Y32822D01*
X48859Y32830D01*
X48864Y32840D01*
X48872Y32851D01*
X48881Y32864D01*
X48894Y32878D01*
X48912Y32897D01*
X48917Y32903D01*
X48930Y32916D01*
X48963Y32958D01*
X48991Y33003D01*
X49015Y33051D01*
X49032Y33101D01*
X49044Y33153D01*
X49050Y33206D01*
X49050Y33259D01*
X49044Y33313D01*
X49032Y33365D01*
X49015Y33415D01*
X48991Y33463D01*
X48963Y33508D01*
X48930Y33550D01*
X48892Y33588D01*
X48850Y33621D01*
X48805Y33649D01*
X48757Y33672D01*
X48707Y33690D01*
X48655Y33702D01*
X48588Y33719D01*
X48520Y33771D01*
X48484Y33853D01*
X48478Y33906D01*
X48466Y33958D01*
X48449Y34008D01*
X48426Y34056D01*
X48397Y34101D01*
X48364Y34143D01*
X48326Y34181D01*
X48285Y34214D01*
X48239Y34242D01*
X48191Y34265D01*
X48141Y34283D01*
X48124Y34287D01*
X48099Y34305D01*
X48055Y34361D01*
X48010Y34451D01*
X48002Y34501D01*
X48002Y34503D01*
X48014Y34555D01*
X48020Y34608D01*
X48020Y34661D01*
X48014Y34714D01*
X48002Y34766D01*
X47985Y34817D01*
X47962Y34865D01*
X47933Y34910D01*
X47900Y34951D01*
X47862Y34989D01*
X47820Y35022D01*
X47775Y35051D01*
X47727Y35074D01*
X47677Y35092D01*
X47625Y35104D01*
X47572Y35109D01*
X47519Y35109D01*
X47466Y35104D01*
X47414Y35092D01*
X47363Y35074D01*
X47315Y35051D01*
X47270Y35022D01*
X47228Y34989D01*
X47190Y34951D01*
X47157Y34910D01*
X47129Y34865D01*
X47106Y34817D01*
X47088Y34766D01*
X47076Y34714D01*
X47070Y34661D01*
X47070Y34608D01*
X47076Y34555D01*
X47088Y34503D01*
X47106Y34452D01*
X47129Y34404D01*
X47157Y34359D01*
X47163Y34352D01*
X47165Y34348D01*
X47199Y34301D01*
X47208Y34286D01*
X47217Y34270D01*
X47223Y34257D01*
X47227Y34245D01*
X47230Y34236D01*
X47232Y34228D01*
X47233Y34222D01*
X47233Y34211D01*
X47233Y33656D01*
X47151Y33592D01*
X46951Y33690D01*
X46951Y33725D01*
X46947Y33814D01*
X46935Y33903D01*
X46916Y33991D01*
X46889Y34076D01*
X46855Y34159D01*
X46814Y34238D01*
X46765Y34313D01*
X46711Y34384D01*
X46651Y34450D01*
X46711Y34516D01*
X46765Y34587D01*
X46814Y34662D01*
X46855Y34741D01*
X46889Y34824D01*
X46916Y34909D01*
X46935Y34997D01*
X46947Y35086D01*
X46951Y35175D01*
X46951Y35625D01*
X46947Y35714D01*
X46935Y35803D01*
X46916Y35891D01*
X46889Y35976D01*
X46855Y36059D01*
X46814Y36138D01*
X46765Y36213D01*
X46711Y36284D01*
X46650Y36350D01*
X46584Y36411D01*
X46513Y36465D01*
X46438Y36514D01*
X46359Y36555D01*
X46326Y36568D01*
X46326Y38907D01*
X49635Y42216D01*
X49706Y42204D01*
X49790Y42182D01*
X49804Y42180D01*
X49836Y42171D01*
X49939Y42151D01*
X50043Y42137D01*
X50148Y42130D01*
X50252Y42130D01*
X50357Y42137D01*
X50461Y42151D01*
X50564Y42171D01*
X50665Y42198D01*
X50764Y42232D01*
X50861Y42272D01*
X50955Y42318D01*
X51045Y42371D01*
X51132Y42429D01*
X51216Y42493D01*
X51294Y42562D01*
X51368Y42636D01*
X51437Y42714D01*
X51501Y42798D01*
X51559Y42885D01*
X51612Y42975D01*
X51658Y43069D01*
X51698Y43166D01*
X51732Y43265D01*
X51759Y43366D01*
X51779Y43469D01*
X51793Y43573D01*
X51800Y43678D01*
X51800Y43782D01*
X51793Y43887D01*
X51779Y43991D01*
X51759Y44094D01*
X51732Y44195D01*
X51698Y44294D01*
X51658Y44391D01*
X51612Y44485D01*
X51559Y44575D01*
X51501Y44662D01*
X51437Y44746D01*
X51368Y44824D01*
X51294Y44898D01*
X51216Y44967D01*
X51132Y45031D01*
X51045Y45089D01*
X50955Y45142D01*
X50861Y45188D01*
X50782Y45221D01*
X50754Y45302D01*
X50749Y45340D01*
X50759Y45441D01*
X50809Y45476D01*
X50876Y45532D01*
X50938Y45594D01*
X50994Y45661D01*
X51044Y45732D01*
X51088Y45808D01*
X51125Y45887D01*
X51155Y45969D01*
X51177Y46053D01*
X51192Y46139D01*
X51193Y46143D01*
X50200Y46143D01*
X49207Y46143D01*
X49208Y46139D01*
X49223Y46053D01*
X49245Y45969D01*
X49275Y45887D01*
X49312Y45808D01*
X49356Y45732D01*
X49406Y45661D01*
X49462Y45594D01*
X49524Y45532D01*
X49591Y45476D01*
X49641Y45441D01*
X49651Y45340D01*
X49646Y45302D01*
X49618Y45221D01*
X49539Y45188D01*
X49445Y45142D01*
X49355Y45089D01*
X49268Y45031D01*
X49184Y44967D01*
X49106Y44898D01*
X49032Y44824D01*
X48963Y44746D01*
X48899Y44662D01*
X48841Y44575D01*
X48788Y44485D01*
X48742Y44391D01*
X48702Y44294D01*
X48668Y44195D01*
X48657Y44153D01*
X48652Y44136D01*
X48548Y43752D01*
X48478Y43537D01*
X44831Y39889D01*
X44779Y39833D01*
X44733Y39772D01*
X44692Y39708D01*
X44656Y39640D01*
X44627Y39570D01*
X44604Y39497D01*
X44587Y39422D01*
X44577Y39346D01*
X44574Y39270D01*
X44574Y36568D01*
X44541Y36555D01*
X44462Y36514D01*
X44387Y36465D01*
X44316Y36411D01*
X44250Y36350D01*
X44189Y36284D01*
X44135Y36213D01*
X44086Y36138D01*
X44045Y36059D01*
X44011Y35976D01*
X43984Y35891D01*
X43965Y35803D01*
X43953Y35714D01*
X43949Y35625D01*
X43949Y35175D01*
X43953Y35086D01*
X43965Y34997D01*
X43984Y34909D01*
X44011Y34824D01*
X44045Y34741D01*
X44086Y34662D01*
X44135Y34587D01*
X44189Y34516D01*
X44249Y34450D01*
X44189Y34384D01*
X44135Y34313D01*
X44086Y34238D01*
X44045Y34159D01*
X44011Y34076D01*
X43984Y33991D01*
X43965Y33903D01*
X43953Y33814D01*
X43949Y33725D01*
X43949Y33445D01*
X43749Y33362D01*
X43454Y33657D01*
X43446Y33666D01*
X43441Y33671D01*
X43436Y33680D01*
X43431Y33688D01*
X43415Y33723D01*
X43409Y33738D01*
X43394Y33788D01*
X43387Y33816D01*
X43384Y33823D01*
X43381Y33837D01*
X43364Y33887D01*
X43340Y33935D01*
X43312Y33980D01*
X43279Y34022D01*
X43241Y34060D01*
X43199Y34093D01*
X43154Y34121D01*
X43106Y34145D01*
X43056Y34162D01*
X43004Y34174D01*
X42951Y34180D01*
X42897Y34180D01*
X42844Y34174D01*
X42792Y34162D01*
X42742Y34145D01*
X42694Y34121D01*
X42649Y34093D01*
X42607Y34060D01*
X42594Y34047D01*
X42588Y34042D01*
X42569Y34024D01*
X42555Y34011D01*
X42542Y34002D01*
X42531Y33994D01*
X42521Y33989D01*
X42514Y33985D01*
X42507Y33983D01*
X42502Y33982D01*
X42498Y33981D01*
X42487Y33981D01*
X38432Y33981D01*
X38387Y34045D01*
X38353Y34181D01*
X38355Y34183D01*
X38388Y34225D01*
X38416Y34270D01*
X38440Y34318D01*
X38457Y34368D01*
X38469Y34420D01*
X38475Y34473D01*
X38475Y34527D01*
X38469Y34580D01*
X38457Y34632D01*
X38440Y34682D01*
X38416Y34730D01*
X38388Y34775D01*
X38355Y34817D01*
X38342Y34830D01*
X38337Y34836D01*
X38319Y34855D01*
X38306Y34869D01*
X38297Y34882D01*
X38289Y34893D01*
X38284Y34903D01*
X38280Y34911D01*
X38278Y34917D01*
X38277Y34922D01*
X38276Y34926D01*
X38276Y34937D01*
X38276Y38911D01*
X50488Y51123D01*
X50496Y51131D01*
X50500Y51133D01*
X50504Y51136D01*
X50510Y51139D01*
X50518Y51142D01*
X50529Y51145D01*
X50542Y51148D01*
X50558Y51150D01*
X50576Y51151D01*
X50603Y51152D01*
X50611Y51153D01*
X50629Y51153D01*
X50682Y51159D01*
X50734Y51170D01*
X50784Y51188D01*
X50832Y51211D01*
X50877Y51240D01*
X50919Y51273D01*
X50957Y51311D01*
X50990Y51352D01*
X51019Y51397D01*
X51042Y51445D01*
X51059Y51496D01*
X51071Y51548D01*
X51077Y51601D01*
X51077Y51654D01*
X51071Y51707D01*
X51059Y51759D01*
X51042Y51810D01*
X51019Y51858D01*
X50990Y51903D01*
X50957Y51945D01*
X50919Y51982D01*
X50877Y52016D01*
X50832Y52044D01*
X50784Y52067D01*
X50734Y52085D01*
X50682Y52097D01*
X50629Y52103D01*
X50575Y52103D01*
X50522Y52097D01*
X50470Y52085D01*
X50420Y52067D01*
X50372Y52044D01*
X50327Y52016D01*
X50285Y51982D01*
X50247Y51945D01*
X50214Y51903D01*
X50186Y51858D01*
X50163Y51810D01*
X50145Y51759D01*
X50133Y51707D01*
X50127Y51654D01*
X50127Y51636D01*
X50126Y51628D01*
X50126Y51602D01*
X50124Y51583D01*
X50122Y51567D01*
X50120Y51554D01*
X50117Y51544D01*
X50114Y51536D01*
X50111Y51530D01*
X50108Y51525D01*
X50106Y51522D01*
X50098Y51514D01*
X37805Y39220D01*
X37777Y39188D01*
X37754Y39151D01*
X37738Y39111D01*
X37728Y39069D01*
X37724Y39025D01*
X37724Y34937D01*
X37724Y34926D01*
X37723Y34922D01*
X37722Y34917D01*
X37720Y34911D01*
X37716Y34903D01*
X37711Y34893D01*
X37703Y34882D01*
X37694Y34869D01*
X37681Y34855D01*
X37663Y34836D01*
X37658Y34830D01*
X37645Y34817D01*
X37612Y34775D01*
X37584Y34730D01*
X37566Y34694D01*
X37466Y34666D01*
X37361Y34649D01*
X37353Y34654D01*
X37276Y34725D01*
X37276Y43054D01*
X50477Y56255D01*
X50485Y56263D01*
X50489Y56265D01*
X50493Y56268D01*
X50499Y56271D01*
X50507Y56274D01*
X50518Y56277D01*
X50531Y56280D01*
X50547Y56282D01*
X50565Y56283D01*
X50592Y56284D01*
X50600Y56284D01*
X50618Y56284D01*
X50671Y56290D01*
X50723Y56302D01*
X50773Y56320D01*
X50821Y56343D01*
X50866Y56371D01*
X50908Y56405D01*
X50946Y56442D01*
X50979Y56484D01*
X51007Y56529D01*
X51031Y56577D01*
X51048Y56628D01*
X51060Y56680D01*
X51066Y56733D01*
X51066Y56786D01*
X51060Y56839D01*
X51048Y56891D01*
X51031Y56942D01*
X51007Y56990D01*
X50979Y57035D01*
X50946Y57076D01*
X50908Y57114D01*
X50866Y57147D01*
X50821Y57176D01*
X50773Y57199D01*
X50723Y57217D01*
X50671Y57229D01*
X50618Y57234D01*
X50618Y57234D02*
G37*
G36*
X34075Y42509D02*
X31425Y42509D01*
X31425Y42085D01*
X30010Y42085D01*
X30009Y42085D01*
X30009Y42085D01*
X30009Y42085D01*
X30008Y42085D01*
X28575Y42085D01*
X28575Y42509D01*
X25925Y42509D01*
X25925Y41109D01*
X28575Y41109D01*
X28575Y41533D01*
X29733Y41533D01*
X29733Y32926D01*
X29733Y32915D01*
X29732Y32911D01*
X29731Y32906D01*
X29729Y32900D01*
X29725Y32892D01*
X29720Y32882D01*
X29712Y32871D01*
X29703Y32858D01*
X29690Y32844D01*
X29672Y32825D01*
X29667Y32819D01*
X29655Y32807D01*
X29622Y32765D01*
X29593Y32720D01*
X29570Y32672D01*
X29552Y32621D01*
X29540Y32569D01*
X29535Y32516D01*
X29535Y32463D01*
X29540Y32410D01*
X29552Y32358D01*
X29570Y32308D01*
X29593Y32259D01*
X29622Y32214D01*
X29655Y32173D01*
X29692Y32135D01*
X29734Y32102D01*
X29779Y32073D01*
X29827Y32050D01*
X29878Y32032D01*
X29930Y32021D01*
X29983Y32015D01*
X30036Y32015D01*
X30089Y32021D01*
X30141Y32032D01*
X30192Y32050D01*
X30240Y32073D01*
X30285Y32102D01*
X30327Y32135D01*
X30364Y32173D01*
X30398Y32214D01*
X30426Y32259D01*
X30449Y32308D01*
X30467Y32358D01*
X30479Y32410D01*
X30485Y32463D01*
X30485Y32516D01*
X30479Y32569D01*
X30467Y32621D01*
X30449Y32672D01*
X30426Y32720D01*
X30398Y32765D01*
X30364Y32807D01*
X30351Y32820D01*
X30346Y32826D01*
X30327Y32845D01*
X30315Y32859D01*
X30306Y32872D01*
X30298Y32883D01*
X30293Y32893D01*
X30289Y32900D01*
X30287Y32907D01*
X30286Y32912D01*
X30285Y32916D01*
X30285Y32927D01*
X30285Y41533D01*
X31425Y41533D01*
X31425Y41109D01*
X34075Y41109D01*
X34075Y42509D01*
X34075Y42509D02*
G37*
G36*
X6378Y19826D02*
X5178Y19826D01*
X5178Y18948D01*
X4993Y18872D01*
X4898Y18967D01*
X4897Y18968D01*
X4867Y18999D01*
X4845Y19026D01*
X4826Y19051D01*
X4811Y19074D01*
X4799Y19096D01*
X4790Y19116D01*
X4783Y19135D01*
X4779Y19152D01*
X4778Y19161D01*
X4778Y19826D01*
X3578Y19826D01*
X3578Y18626D01*
X4244Y18626D01*
X4253Y18625D01*
X4270Y18621D01*
X4288Y18614D01*
X4308Y18605D01*
X4330Y18593D01*
X4353Y18578D01*
X4379Y18559D01*
X4405Y18537D01*
X4436Y18507D01*
X4438Y18506D01*
X5174Y17770D01*
X5206Y17742D01*
X5241Y17718D01*
X5280Y17699D01*
X5320Y17685D01*
X5362Y17677D01*
X5404Y17674D01*
X6031Y17674D01*
X6046Y17651D01*
X5939Y17451D01*
X5682Y17451D01*
X5613Y17448D01*
X5545Y17438D01*
X5478Y17421D01*
X5414Y17398D01*
X5351Y17369D01*
X5292Y17333D01*
X5237Y17292D01*
X5186Y17246D01*
X5140Y17195D01*
X5099Y17140D01*
X5064Y17081D01*
X5034Y17019D01*
X5011Y16954D01*
X4994Y16887D01*
X4993Y16878D01*
X6082Y16878D01*
X6082Y16624D01*
X4993Y16624D01*
X4994Y16614D01*
X5011Y16547D01*
X5034Y16482D01*
X5064Y16420D01*
X5099Y16361D01*
X5140Y16306D01*
X5186Y16255D01*
X5237Y16209D01*
X5292Y16168D01*
X5351Y16132D01*
X5414Y16103D01*
X5478Y16080D01*
X5545Y16063D01*
X5613Y16053D01*
X5682Y16050D01*
X5872Y16050D01*
X5872Y15757D01*
X6647Y15757D01*
X6647Y15503D01*
X5872Y15503D01*
X5872Y15193D01*
X5777Y15146D01*
X5225Y15146D01*
X5183Y15143D01*
X5141Y15135D01*
X5100Y15121D01*
X5062Y15102D01*
X5027Y15078D01*
X4995Y15050D01*
X2695Y12751D01*
X2667Y12719D01*
X2644Y12683D01*
X2625Y12645D01*
X2611Y12605D01*
X2603Y12563D01*
X2600Y12521D01*
X2600Y12225D01*
X2600Y12224D01*
X2598Y12179D01*
X2597Y12168D01*
X2595Y12158D01*
X2595Y12155D01*
X2587Y12147D01*
X2551Y12101D01*
X2521Y12049D01*
X2499Y11995D01*
X2483Y11938D01*
X2476Y11880D01*
X2476Y11821D01*
X2483Y11762D01*
X2499Y11705D01*
X2521Y11651D01*
X2551Y11599D01*
X2587Y11553D01*
X2628Y11511D01*
X2675Y11475D01*
X2726Y11446D01*
X2781Y11423D01*
X2838Y11408D01*
X2896Y11400D01*
X2955Y11400D01*
X3014Y11408D01*
X3071Y11423D01*
X3125Y11446D01*
X3176Y11475D01*
X3223Y11511D01*
X3265Y11553D01*
X3301Y11599D01*
X3330Y11651D01*
X3353Y11705D01*
X3368Y11762D01*
X3376Y11821D01*
X3376Y11880D01*
X3368Y11938D01*
X3353Y11995D01*
X3330Y12049D01*
X3301Y12101D01*
X3265Y12147D01*
X3257Y12155D01*
X3256Y12158D01*
X3255Y12166D01*
X3252Y12200D01*
X3252Y12220D01*
X3251Y12222D01*
X3251Y12386D01*
X5001Y14136D01*
X5077Y14136D01*
X5272Y13941D01*
X5272Y13630D01*
X5208Y13597D01*
X5136Y13553D01*
X5067Y13503D01*
X5003Y13449D01*
X4944Y13389D01*
X4889Y13325D01*
X4839Y13256D01*
X4795Y13184D01*
X4756Y13109D01*
X4724Y13031D01*
X4698Y12951D01*
X4678Y12868D01*
X4665Y12785D01*
X4659Y12701D01*
X4659Y12616D01*
X4665Y12532D01*
X4678Y12449D01*
X4698Y12367D01*
X4724Y12286D01*
X4756Y12208D01*
X4795Y12133D01*
X4839Y12061D01*
X4853Y12042D01*
X4853Y12006D01*
X4856Y11930D01*
X4866Y11854D01*
X4883Y11779D01*
X4906Y11705D01*
X4935Y11634D01*
X4971Y11566D01*
X5012Y11501D01*
X5059Y11440D01*
X5111Y11384D01*
X5272Y11223D01*
X5272Y10730D01*
X5872Y10730D01*
X5872Y10373D01*
X5777Y10326D01*
X4716Y10326D01*
X4715Y10326D01*
X4691Y10326D01*
X4675Y10328D01*
X4662Y10329D01*
X4651Y10332D01*
X4644Y10334D01*
X4639Y10335D01*
X4637Y10336D01*
X4632Y10341D01*
X4628Y10344D01*
X4617Y10355D01*
X4575Y10388D01*
X4530Y10416D01*
X4482Y10440D01*
X4432Y10457D01*
X4380Y10469D01*
X4327Y10475D01*
X4273Y10475D01*
X4220Y10469D01*
X4168Y10457D01*
X4118Y10440D01*
X4070Y10416D01*
X4025Y10388D01*
X3983Y10355D01*
X3945Y10317D01*
X3912Y10275D01*
X3884Y10230D01*
X3860Y10182D01*
X3843Y10132D01*
X3831Y10080D01*
X3825Y10027D01*
X3825Y9973D01*
X3831Y9920D01*
X3843Y9868D01*
X3860Y9818D01*
X3884Y9770D01*
X3912Y9725D01*
X3945Y9683D01*
X3983Y9645D01*
X4025Y9612D01*
X4070Y9584D01*
X4118Y9560D01*
X4168Y9543D01*
X4220Y9531D01*
X4273Y9525D01*
X4327Y9525D01*
X4380Y9531D01*
X4432Y9543D01*
X4482Y9560D01*
X4530Y9584D01*
X4575Y9612D01*
X4617Y9645D01*
X4628Y9656D01*
X4632Y9659D01*
X4637Y9664D01*
X4639Y9665D01*
X4644Y9666D01*
X4651Y9668D01*
X4659Y9670D01*
X4694Y9674D01*
X4715Y9674D01*
X4716Y9674D01*
X5777Y9674D01*
X5872Y9627D01*
X5872Y9358D01*
X6647Y9358D01*
X7422Y9358D01*
X7422Y9530D01*
X7422Y10150D01*
X7455Y10183D01*
X7550Y10229D01*
X7622Y10247D01*
X7651Y10229D01*
X7699Y10205D01*
X7750Y10188D01*
X7802Y10176D01*
X7855Y10170D01*
X7908Y10170D01*
X7961Y10176D01*
X8013Y10188D01*
X8064Y10205D01*
X8112Y10229D01*
X8157Y10257D01*
X8199Y10290D01*
X8236Y10328D01*
X8269Y10370D01*
X8298Y10415D01*
X8321Y10463D01*
X8339Y10513D01*
X8351Y10565D01*
X8356Y10618D01*
X8356Y10672D01*
X8351Y10725D01*
X8339Y10777D01*
X8337Y10781D01*
X8344Y10809D01*
X8393Y10897D01*
X8469Y10970D01*
X8469Y10970D01*
X8488Y10970D01*
X8541Y10976D01*
X8593Y10988D01*
X8643Y11005D01*
X8692Y11029D01*
X8737Y11057D01*
X8778Y11090D01*
X8816Y11128D01*
X8849Y11170D01*
X8878Y11215D01*
X8901Y11263D01*
X8919Y11313D01*
X8930Y11365D01*
X8936Y11418D01*
X8936Y11472D01*
X8930Y11525D01*
X8919Y11577D01*
X8901Y11627D01*
X8878Y11675D01*
X8849Y11720D01*
X8816Y11762D01*
X8805Y11773D01*
X8802Y11777D01*
X8798Y11782D01*
X8797Y11784D01*
X8795Y11789D01*
X8793Y11796D01*
X8791Y11804D01*
X8788Y11839D01*
X8787Y11860D01*
X8787Y11861D01*
X8787Y15566D01*
X8972Y15642D01*
X14739Y9875D01*
X14739Y9217D01*
X14739Y9206D01*
X14738Y9202D01*
X14737Y9197D01*
X14735Y9191D01*
X14731Y9183D01*
X14726Y9173D01*
X14719Y9162D01*
X14709Y9149D01*
X14697Y9135D01*
X14678Y9116D01*
X14673Y9110D01*
X14661Y9097D01*
X14627Y9055D01*
X14599Y9010D01*
X14576Y8962D01*
X14558Y8912D01*
X14546Y8860D01*
X14540Y8807D01*
X14540Y8753D01*
X14546Y8700D01*
X14558Y8648D01*
X14576Y8598D01*
X14599Y8550D01*
X14627Y8505D01*
X14661Y8463D01*
X14698Y8425D01*
X14740Y8392D01*
X14785Y8364D01*
X14833Y8340D01*
X14884Y8323D01*
X14936Y8311D01*
X14989Y8305D01*
X15042Y8305D01*
X15095Y8311D01*
X15147Y8323D01*
X15197Y8340D01*
X15245Y8364D01*
X15291Y8392D01*
X15332Y8425D01*
X15370Y8463D01*
X15403Y8505D01*
X15432Y8550D01*
X15455Y8598D01*
X15472Y8648D01*
X15484Y8700D01*
X15490Y8753D01*
X15490Y8807D01*
X15484Y8860D01*
X15472Y8912D01*
X15455Y8962D01*
X15432Y9010D01*
X15403Y9055D01*
X15370Y9097D01*
X15357Y9110D01*
X15352Y9116D01*
X15334Y9135D01*
X15322Y9149D01*
X15312Y9162D01*
X15305Y9173D01*
X15299Y9183D01*
X15296Y9191D01*
X15294Y9197D01*
X15292Y9202D01*
X15292Y9206D01*
X15291Y9217D01*
X15291Y9989D01*
X15288Y10032D01*
X15278Y10074D01*
X15261Y10114D01*
X15238Y10151D01*
X15210Y10184D01*
X6427Y18968D01*
X6426Y18968D01*
X6410Y18985D01*
X6400Y18997D01*
X6392Y19008D01*
X6385Y19018D01*
X6381Y19025D01*
X6379Y19031D01*
X6378Y19033D01*
X6378Y19826D01*
X6378Y19826D02*
G37*
G36*
X34739Y20203D02*
X34661Y20203D01*
X34582Y20196D01*
X34505Y20180D01*
X34430Y20157D01*
X34358Y20127D01*
X34288Y20090D01*
X34223Y20047D01*
X34162Y19997D01*
X34107Y19941D01*
X34057Y19880D01*
X34013Y19815D01*
X33976Y19746D01*
X33946Y19673D01*
X33923Y19598D01*
X33908Y19521D01*
X33900Y19443D01*
X33900Y19364D01*
X33908Y19286D01*
X33923Y19209D01*
X33946Y19133D01*
X33976Y19061D01*
X34013Y18992D01*
X34057Y18926D01*
X34107Y18865D01*
X34162Y18810D01*
X34223Y18760D01*
X34288Y18716D01*
X34358Y18679D01*
X34430Y18649D01*
X34505Y18626D01*
X34582Y18611D01*
X34661Y18603D01*
X34739Y18603D01*
X34818Y18611D01*
X34895Y18626D01*
X34970Y18649D01*
X35042Y18679D01*
X35112Y18716D01*
X35177Y18760D01*
X35238Y18810D01*
X35293Y18865D01*
X35343Y18926D01*
X35387Y18992D01*
X35424Y19061D01*
X35454Y19133D01*
X35477Y19209D01*
X35492Y19286D01*
X35500Y19364D01*
X35500Y19443D01*
X35492Y19521D01*
X35477Y19598D01*
X35454Y19673D01*
X35424Y19746D01*
X35387Y19815D01*
X35343Y19880D01*
X35293Y19941D01*
X35238Y19997D01*
X35177Y20047D01*
X35112Y20090D01*
X35042Y20127D01*
X34970Y20157D01*
X34895Y20180D01*
X34818Y20196D01*
X34739Y20203D01*
X34739Y20203D02*
G37*
G36*
X25339Y20203D02*
X25261Y20203D01*
X25182Y20196D01*
X25105Y20180D01*
X25030Y20157D01*
X24958Y20127D01*
X24888Y20090D01*
X24823Y20047D01*
X24762Y19997D01*
X24707Y19941D01*
X24657Y19880D01*
X24613Y19815D01*
X24576Y19746D01*
X24546Y19673D01*
X24523Y19598D01*
X24508Y19521D01*
X24500Y19443D01*
X24500Y19364D01*
X24508Y19286D01*
X24523Y19209D01*
X24546Y19133D01*
X24576Y19061D01*
X24613Y18992D01*
X24657Y18926D01*
X24707Y18865D01*
X24762Y18810D01*
X24823Y18760D01*
X24888Y18716D01*
X24958Y18679D01*
X25030Y18649D01*
X25105Y18626D01*
X25182Y18611D01*
X25261Y18603D01*
X25339Y18603D01*
X25418Y18611D01*
X25495Y18626D01*
X25570Y18649D01*
X25642Y18679D01*
X25712Y18716D01*
X25777Y18760D01*
X25838Y18810D01*
X25893Y18865D01*
X25943Y18926D01*
X25987Y18992D01*
X26024Y19061D01*
X26054Y19133D01*
X26077Y19209D01*
X26092Y19286D01*
X26100Y19364D01*
X26100Y19443D01*
X26092Y19521D01*
X26077Y19598D01*
X26054Y19673D01*
X26024Y19746D01*
X25987Y19815D01*
X25943Y19880D01*
X25893Y19941D01*
X25838Y19997D01*
X25777Y20047D01*
X25712Y20090D01*
X25642Y20127D01*
X25570Y20157D01*
X25495Y20180D01*
X25418Y20196D01*
X25339Y20203D01*
X25339Y20203D02*
G37*
G36*
X6378Y21826D02*
X5178Y21826D01*
X5178Y20626D01*
X6378Y20626D01*
X6378Y20626D01*
X6378Y20626D01*
X6519Y20503D01*
X9138Y17884D01*
X9145Y17876D01*
X9148Y17873D01*
X9150Y17868D01*
X9153Y17862D01*
X9156Y17854D01*
X9159Y17844D01*
X9162Y17831D01*
X9164Y17815D01*
X9165Y17796D01*
X9166Y17770D01*
X9167Y17762D01*
X9167Y17744D01*
X9173Y17691D01*
X9185Y17639D01*
X9202Y17588D01*
X9225Y17540D01*
X9254Y17495D01*
X9287Y17453D01*
X9325Y17416D01*
X9366Y17382D01*
X9412Y17354D01*
X9460Y17331D01*
X9510Y17313D01*
X9562Y17301D01*
X9615Y17295D01*
X9668Y17295D01*
X9721Y17301D01*
X9773Y17313D01*
X9824Y17331D01*
X9872Y17354D01*
X9917Y17382D01*
X9959Y17416D01*
X9997Y17453D01*
X10030Y17495D01*
X10058Y17540D01*
X10081Y17588D01*
X10099Y17639D01*
X10111Y17691D01*
X10117Y17744D01*
X10117Y17797D01*
X10111Y17850D01*
X10099Y17902D01*
X10081Y17952D01*
X10058Y18001D01*
X10030Y18046D01*
X9997Y18087D01*
X9959Y18125D01*
X9917Y18158D01*
X9872Y18187D01*
X9824Y18210D01*
X9773Y18228D01*
X9721Y18239D01*
X9668Y18245D01*
X9650Y18245D01*
X9642Y18246D01*
X9616Y18247D01*
X9597Y18248D01*
X9582Y18250D01*
X9568Y18253D01*
X9558Y18256D01*
X9550Y18259D01*
X9544Y18262D01*
X9539Y18265D01*
X9536Y18267D01*
X9528Y18274D01*
X6575Y21228D01*
X6542Y21256D01*
X6505Y21279D01*
X6465Y21295D01*
X6423Y21305D01*
X6379Y21309D01*
X6378Y21309D01*
X6378Y21826D01*
X6378Y21826D02*
G37*
G36*
X2532Y17451D02*
X2209Y17451D01*
X2209Y16877D01*
X3221Y16877D01*
X3219Y16887D01*
X3202Y16954D01*
X3179Y17019D01*
X3150Y17081D01*
X3115Y17140D01*
X3074Y17195D01*
X3027Y17246D01*
X2976Y17292D01*
X2921Y17333D01*
X2862Y17369D01*
X2800Y17398D01*
X2735Y17421D01*
X2669Y17438D01*
X2600Y17448D01*
X2532Y17451D01*
X2532Y17451D02*
G37*
G36*
X1955Y17451D02*
X1632Y17451D01*
X1563Y17448D01*
X1495Y17438D01*
X1428Y17421D01*
X1364Y17398D01*
X1301Y17369D01*
X1242Y17333D01*
X1187Y17292D01*
X1136Y17246D01*
X1090Y17195D01*
X1049Y17140D01*
X1014Y17081D01*
X984Y17019D01*
X961Y16954D01*
X944Y16887D01*
X943Y16877D01*
X1955Y16877D01*
X1955Y17451D01*
X1955Y17451D02*
G37*
G36*
X30079Y22603D02*
X29921Y22603D01*
X29765Y22596D01*
X29608Y22580D01*
X29453Y22557D01*
X29299Y22526D01*
X29146Y22488D01*
X28996Y22443D01*
X28848Y22390D01*
X28703Y22330D01*
X28561Y22262D01*
X28422Y22188D01*
X28287Y22108D01*
X28157Y22020D01*
X28031Y21927D01*
X27909Y21827D01*
X27793Y21722D01*
X27682Y21610D01*
X27576Y21494D01*
X27477Y21373D01*
X27383Y21246D01*
X27296Y21116D01*
X27215Y20981D01*
X27141Y20842D01*
X27074Y20700D01*
X27014Y20555D01*
X26961Y20407D01*
X26915Y20257D01*
X26877Y20105D01*
X26846Y19951D01*
X26823Y19795D01*
X26808Y19639D01*
X26800Y19482D01*
X26800Y19325D01*
X26808Y19168D01*
X26823Y19011D01*
X26846Y18856D01*
X26877Y18702D01*
X26915Y18550D01*
X26961Y18399D01*
X27014Y18251D01*
X27074Y18106D01*
X27141Y17964D01*
X27215Y17826D01*
X27296Y17691D01*
X27383Y17560D01*
X27477Y17434D01*
X27576Y17312D01*
X27682Y17196D01*
X27793Y17085D01*
X27909Y16979D01*
X28031Y16880D01*
X28157Y16786D01*
X28287Y16699D01*
X28422Y16618D01*
X28561Y16544D01*
X28703Y16477D01*
X28848Y16417D01*
X28996Y16364D01*
X29146Y16318D01*
X29299Y16280D01*
X29453Y16249D01*
X29608Y16226D01*
X29765Y16211D01*
X29921Y16203D01*
X30079Y16203D01*
X30235Y16211D01*
X30392Y16226D01*
X30547Y16249D01*
X30701Y16280D01*
X30854Y16318D01*
X31004Y16364D01*
X31152Y16417D01*
X31297Y16477D01*
X31439Y16544D01*
X31578Y16618D01*
X31713Y16699D01*
X31843Y16786D01*
X31969Y16880D01*
X32091Y16979D01*
X32207Y17085D01*
X32318Y17196D01*
X32424Y17312D01*
X32523Y17434D01*
X32617Y17560D01*
X32704Y17691D01*
X32785Y17826D01*
X32859Y17964D01*
X32926Y18106D01*
X32986Y18251D01*
X33039Y18399D01*
X33085Y18550D01*
X33123Y18702D01*
X33154Y18856D01*
X33177Y19011D01*
X33192Y19168D01*
X33200Y19325D01*
X33200Y19482D01*
X33192Y19639D01*
X33177Y19795D01*
X33154Y19951D01*
X33123Y20105D01*
X33085Y20257D01*
X33039Y20407D01*
X32986Y20555D01*
X32926Y20700D01*
X32859Y20842D01*
X32785Y20981D01*
X32704Y21116D01*
X32617Y21246D01*
X32523Y21373D01*
X32424Y21494D01*
X32318Y21610D01*
X32207Y21722D01*
X32091Y21827D01*
X31969Y21927D01*
X31843Y22020D01*
X31713Y22108D01*
X31578Y22188D01*
X31439Y22262D01*
X31297Y22330D01*
X31152Y22390D01*
X31004Y22443D01*
X30854Y22488D01*
X30701Y22526D01*
X30547Y22557D01*
X30392Y22580D01*
X30235Y22596D01*
X30079Y22603D01*
X30079Y22603D02*
G37*
G36*
X3221Y16623D02*
X2209Y16623D01*
X2209Y16050D01*
X2532Y16050D01*
X2600Y16053D01*
X2669Y16063D01*
X2735Y16080D01*
X2800Y16103D01*
X2862Y16132D01*
X2921Y16168D01*
X2976Y16209D01*
X3027Y16255D01*
X3074Y16306D01*
X3115Y16361D01*
X3150Y16420D01*
X3179Y16482D01*
X3202Y16547D01*
X3219Y16614D01*
X3221Y16623D01*
X3221Y16623D02*
G37*
G36*
X1955Y16623D02*
X943Y16623D01*
X944Y16614D01*
X961Y16547D01*
X984Y16482D01*
X1014Y16420D01*
X1049Y16361D01*
X1090Y16306D01*
X1136Y16255D01*
X1187Y16209D01*
X1242Y16168D01*
X1301Y16132D01*
X1364Y16103D01*
X1428Y16080D01*
X1495Y16063D01*
X1563Y16053D01*
X1632Y16050D01*
X1955Y16050D01*
X1955Y16623D01*
X1955Y16623D02*
G37*
G36*
X13021Y15251D02*
X12968Y15251D01*
X12915Y15245D01*
X12863Y15233D01*
X12812Y15215D01*
X12764Y15192D01*
X12719Y15164D01*
X12677Y15130D01*
X12640Y15093D01*
X12606Y15051D01*
X12578Y15006D01*
X12555Y14958D01*
X12537Y14907D01*
X12525Y14855D01*
X12519Y14802D01*
X12519Y14749D01*
X12525Y14696D01*
X12537Y14644D01*
X12555Y14594D01*
X12578Y14545D01*
X12606Y14500D01*
X12640Y14459D01*
X12677Y14421D01*
X12719Y14388D01*
X12764Y14359D01*
X12812Y14336D01*
X12863Y14318D01*
X12915Y14307D01*
X12968Y14301D01*
X13021Y14301D01*
X13074Y14307D01*
X13126Y14318D01*
X13176Y14336D01*
X13224Y14359D01*
X13270Y14388D01*
X13311Y14421D01*
X13349Y14459D01*
X13382Y14500D01*
X13411Y14545D01*
X13434Y14594D01*
X13451Y14644D01*
X13463Y14696D01*
X13469Y14749D01*
X13469Y14802D01*
X13463Y14855D01*
X13451Y14907D01*
X13434Y14958D01*
X13411Y15006D01*
X13382Y15051D01*
X13349Y15093D01*
X13311Y15130D01*
X13270Y15164D01*
X13224Y15192D01*
X13176Y15215D01*
X13126Y15233D01*
X13074Y15245D01*
X13021Y15251D01*
X13021Y15251D02*
G37*
G36*
X16119Y11920D02*
X16066Y11920D01*
X16013Y11914D01*
X15961Y11902D01*
X15911Y11885D01*
X15863Y11861D01*
X15817Y11833D01*
X15776Y11800D01*
X15738Y11762D01*
X15705Y11720D01*
X15676Y11675D01*
X15653Y11627D01*
X15636Y11577D01*
X15624Y11525D01*
X15618Y11472D01*
X15618Y11418D01*
X15624Y11365D01*
X15636Y11313D01*
X15653Y11263D01*
X15676Y11215D01*
X15705Y11170D01*
X15738Y11128D01*
X15776Y11090D01*
X15817Y11057D01*
X15863Y11029D01*
X15911Y11005D01*
X15961Y10988D01*
X16013Y10976D01*
X16066Y10970D01*
X16119Y10970D01*
X16172Y10976D01*
X16224Y10988D01*
X16275Y11005D01*
X16323Y11029D01*
X16368Y11057D01*
X16410Y11090D01*
X16447Y11128D01*
X16481Y11170D01*
X16509Y11215D01*
X16532Y11263D01*
X16550Y11313D01*
X16562Y11365D01*
X16568Y11418D01*
X16568Y11472D01*
X16562Y11525D01*
X16550Y11577D01*
X16532Y11627D01*
X16509Y11675D01*
X16481Y11720D01*
X16447Y11762D01*
X16410Y11800D01*
X16368Y11833D01*
X16323Y11861D01*
X16275Y11885D01*
X16224Y11902D01*
X16172Y11914D01*
X16119Y11920D01*
X16119Y11920D02*
G37*
G36*
X36988Y11614D02*
X36935Y11614D01*
X36882Y11608D01*
X36830Y11596D01*
X36779Y11579D01*
X36731Y11556D01*
X36686Y11527D01*
X36644Y11494D01*
X36607Y11456D01*
X36573Y11415D01*
X36545Y11369D01*
X36522Y11321D01*
X36504Y11271D01*
X36492Y11219D01*
X36486Y11166D01*
X36486Y11113D01*
X36492Y11060D01*
X36504Y11008D01*
X36522Y10957D01*
X36545Y10909D01*
X36573Y10864D01*
X36607Y10822D01*
X36644Y10785D01*
X36686Y10751D01*
X36731Y10723D01*
X36779Y10700D01*
X36830Y10682D01*
X36882Y10670D01*
X36935Y10664D01*
X36988Y10664D01*
X37041Y10670D01*
X37093Y10682D01*
X37144Y10700D01*
X37192Y10723D01*
X37237Y10751D01*
X37278Y10785D01*
X37316Y10822D01*
X37349Y10864D01*
X37378Y10909D01*
X37401Y10957D01*
X37419Y11008D01*
X37430Y11060D01*
X37436Y11113D01*
X37436Y11166D01*
X37430Y11219D01*
X37419Y11271D01*
X37401Y11321D01*
X37378Y11369D01*
X37349Y11415D01*
X37316Y11456D01*
X37278Y11494D01*
X37237Y11527D01*
X37192Y11556D01*
X37144Y11579D01*
X37093Y11596D01*
X37041Y11608D01*
X36988Y11614D01*
X36988Y11614D02*
G37*
G36*
X29983Y11429D02*
X29930Y11429D01*
X29877Y11423D01*
X29825Y11411D01*
X29774Y11393D01*
X29726Y11370D01*
X29681Y11342D01*
X29639Y11308D01*
X29602Y11271D01*
X29569Y11229D01*
X29540Y11184D01*
X29517Y11136D01*
X29499Y11085D01*
X29487Y11033D01*
X29482Y10980D01*
X29482Y10927D01*
X29487Y10874D01*
X29499Y10822D01*
X29517Y10771D01*
X29540Y10723D01*
X29569Y10678D01*
X29602Y10636D01*
X29639Y10599D01*
X29681Y10566D01*
X29726Y10537D01*
X29774Y10514D01*
X29825Y10496D01*
X29877Y10484D01*
X29930Y10479D01*
X29983Y10479D01*
X30036Y10484D01*
X30088Y10496D01*
X30139Y10514D01*
X30187Y10537D01*
X30232Y10566D01*
X30274Y10599D01*
X30311Y10636D01*
X30344Y10678D01*
X30373Y10723D01*
X30396Y10771D01*
X30414Y10822D01*
X30426Y10874D01*
X30431Y10927D01*
X30431Y10980D01*
X30426Y11033D01*
X30414Y11085D01*
X30396Y11136D01*
X30373Y11184D01*
X30344Y11229D01*
X30311Y11271D01*
X30274Y11308D01*
X30232Y11342D01*
X30187Y11370D01*
X30139Y11393D01*
X30088Y11411D01*
X30036Y11423D01*
X29983Y11429D01*
X29983Y11429D02*
G37*
G36*
X20277Y11375D02*
X20223Y11375D01*
X20170Y11369D01*
X20118Y11357D01*
X20068Y11340D01*
X20020Y11316D01*
X19975Y11288D01*
X19933Y11255D01*
X19895Y11217D01*
X19862Y11175D01*
X19834Y11130D01*
X19810Y11082D01*
X19793Y11032D01*
X19781Y10980D01*
X19775Y10927D01*
X19775Y10873D01*
X19781Y10820D01*
X19793Y10768D01*
X19810Y10718D01*
X19834Y10670D01*
X19862Y10625D01*
X19895Y10583D01*
X19933Y10545D01*
X19975Y10512D01*
X20020Y10484D01*
X20068Y10460D01*
X20118Y10443D01*
X20170Y10431D01*
X20223Y10425D01*
X20277Y10425D01*
X20330Y10431D01*
X20382Y10443D01*
X20432Y10460D01*
X20480Y10484D01*
X20525Y10512D01*
X20567Y10545D01*
X20605Y10583D01*
X20638Y10625D01*
X20666Y10670D01*
X20690Y10718D01*
X20707Y10768D01*
X20719Y10820D01*
X20725Y10873D01*
X20725Y10927D01*
X20719Y10980D01*
X20707Y11032D01*
X20690Y11082D01*
X20666Y11130D01*
X20638Y11175D01*
X20605Y11217D01*
X20567Y11255D01*
X20525Y11288D01*
X20480Y11316D01*
X20432Y11340D01*
X20382Y11357D01*
X20330Y11369D01*
X20277Y11375D01*
X20277Y11375D02*
G37*
G36*
X45147Y9730D02*
X45094Y9730D01*
X45041Y9724D01*
X44989Y9712D01*
X44939Y9695D01*
X44891Y9671D01*
X44845Y9643D01*
X44804Y9610D01*
X44766Y9572D01*
X44733Y9530D01*
X44704Y9485D01*
X44681Y9437D01*
X44664Y9387D01*
X44652Y9335D01*
X44646Y9282D01*
X44646Y9228D01*
X44652Y9175D01*
X44664Y9123D01*
X44681Y9073D01*
X44704Y9025D01*
X44733Y8980D01*
X44766Y8938D01*
X44804Y8900D01*
X44845Y8867D01*
X44891Y8839D01*
X44939Y8816D01*
X44989Y8798D01*
X45041Y8786D01*
X45094Y8780D01*
X45147Y8780D01*
X45200Y8786D01*
X45252Y8798D01*
X45303Y8816D01*
X45351Y8839D01*
X45396Y8867D01*
X45438Y8900D01*
X45475Y8938D01*
X45509Y8980D01*
X45537Y9025D01*
X45560Y9073D01*
X45578Y9123D01*
X45590Y9175D01*
X45596Y9228D01*
X45596Y9282D01*
X45590Y9335D01*
X45578Y9387D01*
X45560Y9437D01*
X45537Y9485D01*
X45509Y9530D01*
X45475Y9572D01*
X45438Y9610D01*
X45396Y9643D01*
X45351Y9671D01*
X45303Y9695D01*
X45252Y9712D01*
X45200Y9724D01*
X45147Y9730D01*
X45147Y9730D02*
G37*
G36*
X7422Y9104D02*
X6647Y9104D01*
X5872Y9104D01*
X5872Y8811D01*
X5682Y8811D01*
X5613Y8808D01*
X5545Y8798D01*
X5478Y8781D01*
X5414Y8758D01*
X5351Y8729D01*
X5292Y8693D01*
X5237Y8652D01*
X5186Y8606D01*
X5140Y8555D01*
X5099Y8500D01*
X5064Y8441D01*
X5034Y8379D01*
X5011Y8314D01*
X4994Y8247D01*
X4993Y8238D01*
X6082Y8238D01*
X7171Y8238D01*
X7169Y8247D01*
X7152Y8314D01*
X7129Y8379D01*
X7100Y8441D01*
X7065Y8500D01*
X7042Y8530D01*
X7063Y8617D01*
X7135Y8730D01*
X7422Y8730D01*
X7422Y9104D01*
X7422Y9104D02*
G37*
G36*
X2532Y8811D02*
X2209Y8811D01*
X2209Y8237D01*
X3221Y8237D01*
X3219Y8247D01*
X3202Y8314D01*
X3179Y8379D01*
X3150Y8441D01*
X3115Y8500D01*
X3074Y8555D01*
X3027Y8606D01*
X2976Y8652D01*
X2921Y8693D01*
X2862Y8729D01*
X2800Y8758D01*
X2735Y8781D01*
X2669Y8798D01*
X2600Y8808D01*
X2532Y8811D01*
X2532Y8811D02*
G37*
G36*
X1955Y8811D02*
X1632Y8811D01*
X1563Y8808D01*
X1495Y8798D01*
X1428Y8781D01*
X1364Y8758D01*
X1301Y8729D01*
X1242Y8693D01*
X1187Y8652D01*
X1136Y8606D01*
X1090Y8555D01*
X1049Y8500D01*
X1014Y8441D01*
X984Y8379D01*
X961Y8314D01*
X944Y8247D01*
X943Y8237D01*
X1955Y8237D01*
X1955Y8811D01*
X1955Y8811D02*
G37*
G36*
X7171Y7984D02*
X6209Y7984D01*
X6209Y7410D01*
X6482Y7410D01*
X6550Y7413D01*
X6619Y7423D01*
X6685Y7440D01*
X6750Y7463D01*
X6812Y7492D01*
X6871Y7528D01*
X6926Y7569D01*
X6977Y7615D01*
X7024Y7666D01*
X7065Y7721D01*
X7100Y7780D01*
X7129Y7842D01*
X7152Y7907D01*
X7169Y7974D01*
X7171Y7984D01*
X7171Y7984D02*
G37*
G36*
X5955Y7984D02*
X4993Y7984D01*
X4994Y7974D01*
X5011Y7907D01*
X5034Y7842D01*
X5064Y7780D01*
X5099Y7721D01*
X5140Y7666D01*
X5186Y7615D01*
X5237Y7569D01*
X5292Y7528D01*
X5351Y7492D01*
X5414Y7463D01*
X5478Y7440D01*
X5545Y7423D01*
X5613Y7413D01*
X5682Y7410D01*
X5955Y7410D01*
X5955Y7984D01*
X5955Y7984D02*
G37*
G36*
X3221Y7983D02*
X2209Y7983D01*
X2209Y7410D01*
X2532Y7410D01*
X2600Y7413D01*
X2669Y7423D01*
X2735Y7440D01*
X2800Y7463D01*
X2862Y7492D01*
X2921Y7528D01*
X2976Y7569D01*
X3027Y7615D01*
X3074Y7666D01*
X3115Y7721D01*
X3150Y7780D01*
X3179Y7842D01*
X3202Y7907D01*
X3219Y7974D01*
X3221Y7983D01*
X3221Y7983D02*
G37*
G36*
X1955Y7983D02*
X943Y7983D01*
X944Y7974D01*
X961Y7907D01*
X984Y7842D01*
X1014Y7780D01*
X1049Y7721D01*
X1090Y7666D01*
X1136Y7615D01*
X1187Y7569D01*
X1242Y7528D01*
X1301Y7492D01*
X1364Y7463D01*
X1428Y7440D01*
X1495Y7423D01*
X1563Y7413D01*
X1632Y7410D01*
X1955Y7410D01*
X1955Y7983D01*
X1955Y7983D02*
G37*
G36*
X20277Y8332D02*
X20223Y8332D01*
X20170Y8326D01*
X20118Y8315D01*
X20068Y8297D01*
X20020Y8274D01*
X19975Y8245D01*
X19933Y8212D01*
X19895Y8174D01*
X19862Y8133D01*
X19834Y8088D01*
X19810Y8040D01*
X19793Y7989D01*
X19781Y7937D01*
X19775Y7884D01*
X19775Y7831D01*
X19781Y7778D01*
X19793Y7726D01*
X19810Y7675D01*
X19834Y7627D01*
X19862Y7582D01*
X19895Y7540D01*
X19933Y7503D01*
X19975Y7469D01*
X20020Y7441D01*
X20068Y7418D01*
X20118Y7400D01*
X20170Y7388D01*
X20223Y7382D01*
X20277Y7382D01*
X20330Y7388D01*
X20382Y7400D01*
X20432Y7418D01*
X20480Y7441D01*
X20525Y7469D01*
X20567Y7503D01*
X20605Y7540D01*
X20638Y7582D01*
X20666Y7627D01*
X20690Y7675D01*
X20707Y7726D01*
X20719Y7778D01*
X20725Y7831D01*
X20725Y7884D01*
X20719Y7937D01*
X20707Y7989D01*
X20690Y8040D01*
X20666Y8088D01*
X20638Y8133D01*
X20605Y8174D01*
X20567Y8212D01*
X20525Y8245D01*
X20480Y8274D01*
X20432Y8297D01*
X20382Y8315D01*
X20330Y8326D01*
X20277Y8332D01*
X20277Y8332D02*
G37*
G36*
X56373Y6898D02*
X56265Y6893D01*
X56108Y6878D01*
X55952Y6857D01*
X55798Y6828D01*
X55645Y6792D01*
X55494Y6749D01*
X55345Y6699D01*
X55199Y6642D01*
X55055Y6579D01*
X54914Y6509D01*
X54777Y6432D01*
X54643Y6349D01*
X54514Y6261D01*
X54388Y6166D01*
X54267Y6066D01*
X54151Y5960D01*
X54040Y5849D01*
X53934Y5733D01*
X53834Y5612D01*
X53739Y5486D01*
X53651Y5357D01*
X53568Y5223D01*
X53491Y5086D01*
X53421Y4945D01*
X53358Y4801D01*
X53301Y4655D01*
X53251Y4506D01*
X53208Y4355D01*
X53172Y4202D01*
X53143Y4048D01*
X53122Y3892D01*
X53107Y3735D01*
X53102Y3627D01*
X56373Y3627D01*
X56373Y6898D01*
X56373Y6898D02*
G37*
G36*
X3627Y6898D02*
X3627Y3627D01*
X6898Y3627D01*
X6893Y3735D01*
X6878Y3892D01*
X6857Y4048D01*
X6828Y4202D01*
X6792Y4355D01*
X6749Y4506D01*
X6699Y4655D01*
X6642Y4801D01*
X6579Y4945D01*
X6509Y5086D01*
X6432Y5223D01*
X6349Y5357D01*
X6261Y5486D01*
X6166Y5612D01*
X6066Y5733D01*
X5960Y5849D01*
X5849Y5960D01*
X5733Y6066D01*
X5612Y6166D01*
X5486Y6261D01*
X5357Y6349D01*
X5223Y6432D01*
X5086Y6509D01*
X4945Y6579D01*
X4801Y6642D01*
X4655Y6699D01*
X4506Y6749D01*
X4355Y6792D01*
X4202Y6828D01*
X4048Y6857D01*
X3892Y6878D01*
X3735Y6893D01*
X3627Y6898D01*
X3627Y6898D02*
G37*
G36*
X42838Y3926D02*
X42774Y3926D01*
X42710Y3920D01*
X42648Y3907D01*
X42586Y3889D01*
X42527Y3864D01*
X42471Y3834D01*
X42418Y3799D01*
X42369Y3758D01*
X42324Y3713D01*
X42283Y3664D01*
X42248Y3611D01*
X42217Y3554D01*
X42193Y3495D01*
X42174Y3434D01*
X42162Y3371D01*
X42156Y3308D01*
X42156Y3244D01*
X42162Y3181D01*
X42174Y3118D01*
X42193Y3057D01*
X42217Y2998D01*
X42248Y2941D01*
X42283Y2888D01*
X42324Y2839D01*
X42369Y2794D01*
X42418Y2753D01*
X42471Y2718D01*
X42527Y2688D01*
X42586Y2663D01*
X42648Y2645D01*
X42710Y2632D01*
X42774Y2626D01*
X42838Y2626D01*
X42901Y2632D01*
X42964Y2645D01*
X43025Y2663D01*
X43084Y2688D01*
X43140Y2718D01*
X43193Y2753D01*
X43243Y2794D01*
X43288Y2839D01*
X43328Y2888D01*
X43364Y2941D01*
X43394Y2998D01*
X43418Y3057D01*
X43437Y3118D01*
X43449Y3181D01*
X43456Y3244D01*
X43456Y3308D01*
X43449Y3371D01*
X43437Y3434D01*
X43418Y3495D01*
X43394Y3554D01*
X43364Y3611D01*
X43328Y3664D01*
X43288Y3713D01*
X43243Y3758D01*
X43193Y3799D01*
X43140Y3834D01*
X43084Y3864D01*
X43025Y3889D01*
X42964Y3907D01*
X42901Y3920D01*
X42838Y3926D01*
X42838Y3926D02*
G37*
G36*
X37838Y3926D02*
X37774Y3926D01*
X37710Y3920D01*
X37648Y3907D01*
X37586Y3889D01*
X37527Y3864D01*
X37471Y3834D01*
X37418Y3799D01*
X37369Y3758D01*
X37324Y3713D01*
X37283Y3664D01*
X37248Y3611D01*
X37217Y3554D01*
X37193Y3495D01*
X37174Y3434D01*
X37162Y3371D01*
X37156Y3308D01*
X37156Y3244D01*
X37162Y3181D01*
X37174Y3118D01*
X37193Y3057D01*
X37217Y2998D01*
X37248Y2941D01*
X37283Y2888D01*
X37324Y2839D01*
X37369Y2794D01*
X37418Y2753D01*
X37471Y2718D01*
X37527Y2688D01*
X37586Y2663D01*
X37648Y2645D01*
X37710Y2632D01*
X37774Y2626D01*
X37838Y2626D01*
X37901Y2632D01*
X37964Y2645D01*
X38025Y2663D01*
X38084Y2688D01*
X38140Y2718D01*
X38193Y2753D01*
X38243Y2794D01*
X38288Y2839D01*
X38328Y2888D01*
X38364Y2941D01*
X38394Y2998D01*
X38418Y3057D01*
X38437Y3118D01*
X38449Y3181D01*
X38456Y3244D01*
X38456Y3308D01*
X38449Y3371D01*
X38437Y3434D01*
X38418Y3495D01*
X38394Y3554D01*
X38364Y3611D01*
X38328Y3664D01*
X38288Y3713D01*
X38243Y3758D01*
X38193Y3799D01*
X38140Y3834D01*
X38084Y3864D01*
X38025Y3889D01*
X37964Y3907D01*
X37901Y3920D01*
X37838Y3926D01*
X37838Y3926D02*
G37*
G36*
X13659Y2793D02*
X13605Y2793D01*
X13552Y2787D01*
X13500Y2776D01*
X13450Y2758D01*
X13402Y2735D01*
X13357Y2706D01*
X13315Y2673D01*
X13277Y2635D01*
X13244Y2594D01*
X13216Y2548D01*
X13192Y2500D01*
X13175Y2450D01*
X13163Y2398D01*
X13157Y2345D01*
X13157Y2292D01*
X13163Y2239D01*
X13175Y2187D01*
X13192Y2136D01*
X13216Y2088D01*
X13244Y2043D01*
X13277Y2001D01*
X13315Y1964D01*
X13357Y1930D01*
X13402Y1902D01*
X13450Y1879D01*
X13500Y1861D01*
X13552Y1849D01*
X13605Y1843D01*
X13659Y1843D01*
X13712Y1849D01*
X13764Y1861D01*
X13814Y1879D01*
X13862Y1902D01*
X13907Y1930D01*
X13949Y1964D01*
X13987Y2001D01*
X14020Y2043D01*
X14048Y2088D01*
X14072Y2136D01*
X14089Y2187D01*
X14101Y2239D01*
X14107Y2292D01*
X14107Y2345D01*
X14101Y2398D01*
X14089Y2450D01*
X14072Y2500D01*
X14048Y2548D01*
X14020Y2594D01*
X13987Y2635D01*
X13949Y2673D01*
X13907Y2706D01*
X13862Y2735D01*
X13814Y2758D01*
X13764Y2776D01*
X13712Y2787D01*
X13659Y2793D01*
X13659Y2793D02*
G37*
G36*
X132848Y-81631D02*
X132742Y-81631D01*
X132689Y-81641D01*
X132605Y-81652D01*
X132520Y-81684D01*
X132425Y-81737D01*
X132340Y-81821D01*
X132287Y-81927D01*
X132277Y-82001D01*
X132266Y-82075D01*
X132266Y-82086D01*
X132266Y-82107D01*
X132277Y-82149D01*
X132287Y-82202D01*
X132329Y-82319D01*
X132361Y-82371D01*
X132404Y-82435D01*
X132414Y-82445D01*
X132435Y-82456D01*
X132467Y-82477D01*
X132509Y-82498D01*
X132615Y-82551D01*
X132689Y-82562D01*
X132763Y-82572D01*
X132785Y-82572D01*
X132837Y-82562D01*
X132911Y-82541D01*
X132996Y-82509D01*
X133081Y-82445D01*
X133155Y-82361D01*
X133208Y-82234D01*
X133229Y-82160D01*
X133229Y-82075D01*
X133229Y-82054D01*
X133218Y-82001D01*
X133208Y-81938D01*
X133176Y-81853D01*
X133113Y-81768D01*
X133028Y-81705D01*
X132922Y-81652D01*
X132848Y-81631D01*
X132848Y-81631D02*
G37*
%LPD*%
G36*
X132837Y-81768D02*
X132880Y-81779D01*
X132922Y-81811D01*
X132964Y-81842D01*
X132986Y-81895D01*
X132996Y-81959D01*
X132996Y-81969D01*
X132996Y-81990D01*
X132975Y-82054D01*
X132954Y-82086D01*
X132933Y-82117D01*
X132890Y-82139D01*
X132837Y-82149D01*
X133017Y-82435D01*
X132911Y-82435D01*
X132732Y-82149D01*
X132626Y-82149D01*
X132626Y-82435D01*
X132520Y-82435D01*
X132520Y-81758D01*
X132795Y-81758D01*
X132837Y-81768D01*
X132837Y-81768D02*
G37*
%LPC*%
G36*
X132795Y-81853D02*
X132626Y-81853D01*
X132626Y-82065D01*
X132806Y-82065D01*
X132848Y-82054D01*
X132880Y-82022D01*
X132890Y-81959D01*
X132890Y-81938D01*
X132880Y-81906D01*
X132848Y-81874D01*
X132795Y-81853D01*
X132795Y-81853D02*
G37*
G36*
X127113Y-83017D02*
X127070Y-83017D01*
X127018Y-83038D01*
X126954Y-83059D01*
X126880Y-83091D01*
X126806Y-83154D01*
X126711Y-83229D01*
X126626Y-83334D01*
X125737Y-84583D01*
X128435Y-88858D01*
X128446Y-88879D01*
X128478Y-88921D01*
X128520Y-88985D01*
X128584Y-89048D01*
X128658Y-89122D01*
X128732Y-89186D01*
X128806Y-89228D01*
X128890Y-89249D01*
X128933Y-89249D01*
X128986Y-89239D01*
X129049Y-89218D01*
X129123Y-89175D01*
X129197Y-89133D01*
X129282Y-89059D01*
X129356Y-88964D01*
X130298Y-87609D01*
X127589Y-83345D01*
X127578Y-83334D01*
X127557Y-83292D01*
X127504Y-83239D01*
X127451Y-83176D01*
X127377Y-83123D01*
X127303Y-83070D01*
X127208Y-83027D01*
X127113Y-83017D01*
X127113Y-83017D02*
G37*
G36*
X142266Y-93366D02*
X140911Y-93366D01*
X140911Y-94244D01*
X142329Y-94244D01*
X142350Y-94233D01*
X142393Y-94223D01*
X142435Y-94202D01*
X142467Y-94159D01*
X142509Y-94096D01*
X142530Y-94001D01*
X142541Y-93884D01*
X142541Y-93757D01*
X142541Y-93736D01*
X142541Y-93694D01*
X142530Y-93630D01*
X142509Y-93556D01*
X142477Y-93493D01*
X142424Y-93429D01*
X142361Y-93387D01*
X142266Y-93366D01*
X142266Y-93366D02*
G37*
G36*
X126764Y-93366D02*
X125504Y-93366D01*
X125504Y-94233D01*
X126848Y-94233D01*
X126880Y-94223D01*
X126933Y-94212D01*
X126986Y-94181D01*
X127028Y-94138D01*
X127081Y-94075D01*
X127113Y-93979D01*
X127123Y-93852D01*
X127123Y-93757D01*
X127123Y-93736D01*
X127123Y-93694D01*
X127102Y-93630D01*
X127081Y-93556D01*
X127039Y-93493D01*
X126975Y-93429D01*
X126880Y-93387D01*
X126764Y-93366D01*
X126764Y-93366D02*
G37*
G36*
X130298Y-93366D02*
X129409Y-93366D01*
X129367Y-93376D01*
X129314Y-93387D01*
X129261Y-93408D01*
X129208Y-93429D01*
X129155Y-93472D01*
X129102Y-93524D01*
X129102Y-93535D01*
X129081Y-93556D01*
X129070Y-93588D01*
X129049Y-93651D01*
X129028Y-93726D01*
X129017Y-93810D01*
X128996Y-93927D01*
X128996Y-94064D01*
X128996Y-94456D01*
X128996Y-94477D01*
X128996Y-94519D01*
X128996Y-94583D01*
X129007Y-94667D01*
X129028Y-94847D01*
X129049Y-94932D01*
X129070Y-94995D01*
X129070Y-95006D01*
X129092Y-95016D01*
X129113Y-95038D01*
X129144Y-95069D01*
X129187Y-95101D01*
X129240Y-95122D01*
X129314Y-95133D01*
X129398Y-95143D01*
X130340Y-95143D01*
X130393Y-95133D01*
X130467Y-95112D01*
X130552Y-95059D01*
X130626Y-94974D01*
X130668Y-94921D01*
X130700Y-94858D01*
X130732Y-94773D01*
X130753Y-94678D01*
X130774Y-94572D01*
X130774Y-94456D01*
X130774Y-94064D01*
X130774Y-94043D01*
X130774Y-94001D01*
X130763Y-93937D01*
X130753Y-93852D01*
X130710Y-93673D01*
X130679Y-93588D01*
X130626Y-93524D01*
X130615Y-93514D01*
X130605Y-93503D01*
X130573Y-93472D01*
X130531Y-93440D01*
X130425Y-93387D01*
X130372Y-93376D01*
X130298Y-93366D01*
X130298Y-93366D02*
G37*
%LPD*%
D10*
X211438Y-80740D02*
X210510Y-80740D01*
X210510Y-82240D01*
X211438Y-82240D01*
X210510Y-81454D02*
X211081Y-81454D01*
X211688Y-80740D02*
X212260Y-82240D01*
X212831Y-80740D02*
X212260Y-82240D01*
X213095Y-81097D02*
X213095Y-81026D01*
X213167Y-80883D01*
X213238Y-80812D01*
X213381Y-80740D01*
X213666Y-80740D01*
X213809Y-80812D01*
X213881Y-80883D01*
X213952Y-81026D01*
X213952Y-81169D01*
X213881Y-81312D01*
X213738Y-81526D01*
X213024Y-82240D01*
X214024Y-82240D01*
X215073Y-80740D02*
X214359Y-81740D01*
X215430Y-81740D01*
X215073Y-80740D02*
X215073Y-82240D01*
X215695Y-80740D02*
X215695Y-81811D01*
X215766Y-82026D01*
X215909Y-82169D01*
X216123Y-82240D01*
X216266Y-82240D01*
X216480Y-82169D01*
X216623Y-82026D01*
X216694Y-81811D01*
X216694Y-80740D01*
X217180Y-81097D02*
X217180Y-81026D01*
X217251Y-80883D01*
X217323Y-80812D01*
X217466Y-80740D01*
X217751Y-80740D01*
X217894Y-80812D01*
X217966Y-80883D01*
X218037Y-81026D01*
X218037Y-81169D01*
X217966Y-81312D01*
X217823Y-81526D01*
X217109Y-82240D01*
X218108Y-82240D01*
X218515Y-81097D02*
X218515Y-81026D01*
X218587Y-80883D01*
X218658Y-80812D01*
X218801Y-80740D01*
X219087Y-80740D01*
X219230Y-80812D01*
X219301Y-80883D01*
X219372Y-81026D01*
X219372Y-81169D01*
X219301Y-81312D01*
X219158Y-81526D01*
X218444Y-82240D01*
X219444Y-82240D01*
X220922Y-82240D02*
X220351Y-80740D01*
X219779Y-82240D01*
X219994Y-81740D02*
X220708Y-81740D01*
D12*
X227330Y116730D02*
X227330Y125730D01*
X105830Y125730D02*
X227330Y125730D01*
X129330Y116730D02*
X129330Y121230D01*
X105830Y121230D02*
X105830Y125730D01*
X105830Y121230D02*
X227330Y121230D01*
X116830Y121230D02*
X116830Y125730D01*
X129330Y121230D02*
X129330Y125730D01*
X207830Y121230D02*
X207830Y125730D01*
X105830Y116730D02*
X105830Y121230D01*
X105830Y116730D02*
X227330Y116730D01*
X207830Y116730D02*
X207830Y121230D01*
X116830Y116730D02*
X116830Y121230D01*
X108330Y122730D02*
X108330Y124254D01*
X109092Y124254D01*
X109346Y124000D01*
X109346Y123492D01*
X109092Y123238D01*
X108330Y123238D01*
X108838Y123238D02*
X109346Y122730D01*
X110869Y124254D02*
X109854Y124254D01*
X109854Y122730D01*
X110869Y122730D01*
X109854Y123492D02*
X110361Y123492D01*
X111377Y124254D02*
X111377Y123238D01*
X111885Y122730D01*
X112393Y123238D01*
X112393Y124254D01*
X119346Y124254D02*
X118330Y124254D01*
X118330Y122730D01*
X119346Y122730D01*
X118330Y123492D02*
X118838Y123492D01*
X120869Y124000D02*
X120615Y124254D01*
X120107Y124254D01*
X119854Y124000D01*
X119854Y122984D01*
X120107Y122730D01*
X120615Y122730D01*
X120869Y122984D01*
X122139Y124254D02*
X121631Y124254D01*
X121377Y124000D01*
X121377Y122984D01*
X121631Y122730D01*
X122139Y122730D01*
X122393Y122984D01*
X122393Y124000D01*
X122139Y124254D01*
X165846Y123500D02*
X165592Y123754D01*
X165084Y123754D01*
X164830Y123500D01*
X164830Y122484D01*
X165084Y122230D01*
X165592Y122230D01*
X165846Y122484D01*
X166607Y122230D02*
X167115Y122230D01*
X167369Y122484D01*
X167369Y122992D01*
X167115Y123246D01*
X166607Y123246D01*
X166354Y122992D01*
X166354Y122484D01*
X166607Y122230D01*
X167877Y122230D02*
X167877Y123246D01*
X168131Y123246D01*
X168385Y122992D01*
X168385Y122230D01*
X168385Y122992D01*
X168639Y123246D01*
X168893Y122992D01*
X168893Y122230D01*
X169401Y122230D02*
X169401Y123246D01*
X169654Y123246D01*
X169908Y122992D01*
X169908Y122230D01*
X169908Y122992D01*
X170162Y123246D01*
X170416Y122992D01*
X170416Y122230D01*
X171686Y122230D02*
X171178Y122230D01*
X170924Y122484D01*
X170924Y122992D01*
X171178Y123246D01*
X171686Y123246D01*
X171940Y122992D01*
X171940Y122738D01*
X170924Y122738D01*
X172448Y122230D02*
X172448Y123246D01*
X173209Y123246D01*
X173463Y122992D01*
X173463Y122230D01*
X174225Y123500D02*
X174225Y123246D01*
X173971Y123246D01*
X174479Y123246D01*
X174225Y123246D01*
X174225Y122484D01*
X174479Y122230D01*
X175241Y122230D02*
X176002Y122230D01*
X176256Y122484D01*
X176002Y122738D01*
X175495Y122738D01*
X175241Y122992D01*
X175495Y123246D01*
X176256Y123246D01*
X212830Y123754D02*
X212830Y122230D01*
X213592Y122230D01*
X213846Y122484D01*
X213846Y123500D01*
X213592Y123754D01*
X212830Y123754D01*
X214607Y123246D02*
X215115Y123246D01*
X215369Y122992D01*
X215369Y122230D01*
X214607Y122230D01*
X214354Y122484D01*
X214607Y122738D01*
X215369Y122738D01*
X216131Y123500D02*
X216131Y123246D01*
X215877Y123246D01*
X216385Y123246D01*
X216131Y123246D01*
X216131Y122484D01*
X216385Y122230D01*
X217908Y122230D02*
X217401Y122230D01*
X217147Y122484D01*
X217147Y122992D01*
X217401Y123246D01*
X217908Y123246D01*
X218162Y122992D01*
X218162Y122738D01*
X217147Y122738D01*
D13*
X221210Y-102590D02*
X221210Y-101990D01*
X227330Y-82990D02*
X227330Y-82990D01*
X216210Y-102790D02*
X216210Y-101790D01*
X216050Y-104625D02*
X216050Y-103355D01*
X218590Y-104625D02*
X218590Y-103355D01*
X221130Y-104625D02*
X221130Y-103355D01*
X223670Y-104625D02*
X223670Y-103355D01*
X226210Y-102790D02*
X226210Y-101790D01*
X226210Y-104625D02*
X226210Y-103355D01*
X197510Y-82990D02*
X197510Y-79990D01*
X216050Y-103990D02*
X226210Y-103990D01*
X216210Y-102290D02*
X226210Y-102290D01*
X197510Y-82990D02*
X227330Y-82990D01*
X145510Y-87490D02*
X227330Y-87490D01*
X212743Y-103590D02*
X212410Y-104057D01*
X212910Y-104057D01*
X212743Y-103590D02*
X212743Y-104290D01*
X213233Y-103590D02*
X213133Y-103623D01*
X213067Y-103723D01*
X213033Y-103890D01*
X213033Y-103990D01*
X213067Y-104157D01*
X213133Y-104257D01*
X213233Y-104290D01*
X213300Y-104290D01*
X213400Y-104257D01*
X213466Y-104157D01*
X213500Y-103990D01*
X213500Y-103890D01*
X213466Y-103723D01*
X213400Y-103623D01*
X213300Y-103590D01*
X213233Y-103590D01*
X213856Y-103590D02*
X213756Y-103623D01*
X213690Y-103723D01*
X213656Y-103890D01*
X213656Y-103990D01*
X213690Y-104157D01*
X213756Y-104257D01*
X213856Y-104290D01*
X213923Y-104290D01*
X214023Y-104257D01*
X214090Y-104157D01*
X214123Y-103990D01*
X214123Y-103890D01*
X214090Y-103723D01*
X214023Y-103623D01*
X213923Y-103590D01*
X213856Y-103590D01*
X214280Y-103823D02*
X214280Y-104290D01*
X214280Y-103957D02*
X214380Y-103857D01*
X214446Y-103823D01*
X214546Y-103823D01*
X214613Y-103857D01*
X214646Y-103957D01*
X214646Y-104290D01*
X214646Y-103957D02*
X214746Y-103857D01*
X214813Y-103823D01*
X214913Y-103823D01*
X214979Y-103857D01*
X215013Y-103957D01*
X215013Y-104290D01*
X215299Y-103590D02*
X215333Y-103623D01*
X215366Y-103590D01*
X215333Y-103557D01*
X215299Y-103590D01*
X215333Y-103823D02*
X215333Y-104290D01*
X215489Y-103590D02*
X215489Y-104290D01*
X212510Y-102023D02*
X212577Y-101990D01*
X212677Y-101890D01*
X212677Y-102590D01*
X213223Y-101890D02*
X213123Y-101923D01*
X213057Y-102023D01*
X213023Y-102190D01*
X213023Y-102290D01*
X213057Y-102457D01*
X213123Y-102557D01*
X213223Y-102590D01*
X213290Y-102590D01*
X213390Y-102557D01*
X213456Y-102457D01*
X213490Y-102290D01*
X213490Y-102190D01*
X213456Y-102023D01*
X213390Y-101923D01*
X213290Y-101890D01*
X213223Y-101890D01*
X213646Y-102123D02*
X213646Y-102590D01*
X213646Y-102257D02*
X213746Y-102157D01*
X213813Y-102123D01*
X213913Y-102123D01*
X213980Y-102157D01*
X214013Y-102257D01*
X214013Y-102590D01*
X214013Y-102257D02*
X214113Y-102157D01*
X214180Y-102123D01*
X214280Y-102123D01*
X214346Y-102157D01*
X214380Y-102257D01*
X214380Y-102590D01*
X214600Y-102123D02*
X214600Y-102590D01*
X214600Y-102257D02*
X214700Y-102157D01*
X214766Y-102123D01*
X214866Y-102123D01*
X214933Y-102157D01*
X214966Y-102257D01*
X214966Y-102590D01*
X214966Y-102257D02*
X215066Y-102157D01*
X215133Y-102123D01*
X215233Y-102123D01*
X215299Y-102157D01*
X215333Y-102257D01*
X215333Y-102590D01*
D15*
X4178Y21226D02*
X4178Y25957D01*
X8461Y11445D02*
X8461Y15867D01*
X6328Y18000D02*
X8461Y15867D01*
X5404Y18000D02*
X6328Y18000D01*
X4178Y19226D02*
X5404Y18000D01*
X43510Y14107D02*
X44275Y14107D01*
X43458Y16009D02*
X44223Y16009D01*
X22360Y7701D02*
X22360Y14640D01*
X22358Y7700D02*
X22360Y7701D01*
X14200Y22800D02*
X22360Y14640D01*
X30000Y45800D02*
X30009Y45809D01*
X32750Y45809D01*
X29991Y45809D02*
X30000Y45800D01*
X27250Y45809D02*
X29991Y45809D01*
X10017Y27065D02*
X10017Y27100D01*
X5225Y14820D02*
X6657Y14820D01*
X6637Y10000D02*
X6657Y10020D01*
X2926Y11850D02*
X2926Y12521D01*
X2926Y11820D02*
X2926Y11850D01*
X2926Y12521D02*
X5225Y14820D01*
X6657Y15620D02*
X7800Y15620D01*
X6657Y9220D02*
X7800Y9220D01*
X4268Y10000D02*
X6637Y10000D01*
D17*
X210045Y-103063D02*
X209331Y-103063D01*
X209259Y-103705D01*
X209331Y-103634D01*
X209545Y-103563D01*
X209759Y-103563D01*
X209973Y-103634D01*
X210116Y-103777D01*
X210188Y-103991D01*
X210188Y-104134D01*
X210116Y-104348D01*
X209973Y-104491D01*
X209759Y-104562D01*
X209545Y-104562D01*
X209331Y-104491D01*
X209259Y-104419D01*
X209188Y-104277D01*
X147576Y-92619D02*
X147424Y-92467D01*
X147196Y-92390D01*
X146891Y-92390D01*
X146662Y-92467D01*
X146510Y-92619D01*
X146510Y-92771D01*
X146586Y-92924D01*
X146662Y-93000D01*
X146815Y-93076D01*
X147272Y-93228D01*
X147424Y-93304D01*
X147500Y-93381D01*
X147576Y-93533D01*
X147576Y-93761D01*
X147424Y-93914D01*
X147196Y-93990D01*
X146891Y-93990D01*
X146662Y-93914D01*
X146510Y-93761D01*
X147934Y-92390D02*
X147934Y-93990D01*
X148849Y-93990D01*
X149557Y-92390D02*
X149557Y-93990D01*
X149024Y-92390D02*
X150090Y-92390D01*
X116780Y-103136D02*
X116695Y-102966D01*
X116526Y-102797D01*
X116356Y-102712D01*
X116018Y-102712D01*
X115849Y-102797D01*
X115679Y-102966D01*
X115595Y-103136D01*
X115510Y-103390D01*
X115510Y-103813D01*
X115595Y-104067D01*
X115679Y-104236D01*
X115849Y-104405D01*
X116018Y-104490D01*
X116356Y-104490D01*
X116526Y-104405D01*
X116695Y-104236D01*
X116780Y-104067D01*
X117279Y-102712D02*
X117279Y-104490D01*
X117279Y-103644D02*
X117533Y-103390D01*
X117702Y-103305D01*
X117956Y-103305D01*
X118126Y-103390D01*
X118210Y-103644D01*
X118210Y-104490D01*
X119692Y-103305D02*
X119692Y-104490D01*
X119692Y-103559D02*
X119522Y-103390D01*
X119353Y-103305D01*
X119099Y-103305D01*
X118930Y-103390D01*
X118761Y-103559D01*
X118676Y-103813D01*
X118676Y-103982D01*
X118761Y-104236D01*
X118930Y-104405D01*
X119099Y-104490D01*
X119353Y-104490D01*
X119522Y-104405D01*
X119692Y-104236D01*
X120166Y-103305D02*
X120166Y-104490D01*
X120166Y-103644D02*
X120420Y-103390D01*
X120589Y-103305D01*
X120843Y-103305D01*
X121012Y-103390D01*
X121097Y-103644D01*
X121097Y-104490D01*
X122578Y-102712D02*
X122578Y-104490D01*
X122578Y-103559D02*
X122409Y-103390D01*
X122240Y-103305D01*
X121986Y-103305D01*
X121816Y-103390D01*
X121647Y-103559D01*
X121562Y-103813D01*
X121562Y-103982D01*
X121647Y-104236D01*
X121816Y-104405D01*
X121986Y-104490D01*
X122240Y-104490D01*
X122409Y-104405D01*
X122578Y-104236D01*
X123052Y-102712D02*
X123052Y-104490D01*
X123425Y-103813D02*
X124440Y-103813D01*
X124440Y-103644D01*
X124356Y-103474D01*
X124271Y-103390D01*
X124102Y-103305D01*
X123848Y-103305D01*
X123679Y-103390D01*
X123509Y-103559D01*
X123425Y-103813D01*
X123425Y-103982D01*
X123509Y-104236D01*
X123679Y-104405D01*
X123848Y-104490D01*
X124102Y-104490D01*
X124271Y-104405D01*
X124440Y-104236D01*
X124821Y-103305D02*
X124821Y-104490D01*
X124821Y-103813D02*
X124906Y-103559D01*
X125075Y-103390D01*
X125245Y-103305D01*
X125499Y-103305D01*
X125829Y-104405D02*
X125744Y-104490D01*
X125659Y-104405D01*
X125744Y-104321D01*
X125829Y-104405D01*
X125829Y-104575D01*
X125744Y-104744D01*
X125659Y-104829D01*
X128969Y-104490D02*
X128292Y-102712D01*
X127615Y-104490D01*
X127869Y-103897D02*
X128715Y-103897D01*
X130569Y-102712D02*
X129384Y-104490D01*
X129384Y-102712D02*
X130569Y-102712D01*
X129384Y-104490D02*
X130569Y-104490D01*
X134183Y-102712D02*
X133930Y-102797D01*
X133845Y-102966D01*
X133845Y-103136D01*
X133930Y-103305D01*
X134099Y-103390D01*
X134437Y-103474D01*
X134691Y-103559D01*
X134861Y-103728D01*
X134945Y-103897D01*
X134945Y-104151D01*
X134861Y-104321D01*
X134776Y-104405D01*
X134522Y-104490D01*
X134183Y-104490D01*
X133930Y-104405D01*
X133845Y-104321D01*
X133760Y-104151D01*
X133760Y-103897D01*
X133845Y-103728D01*
X134014Y-103559D01*
X134268Y-103474D01*
X134607Y-103390D01*
X134776Y-103305D01*
X134861Y-103136D01*
X134861Y-102966D01*
X134776Y-102797D01*
X134522Y-102712D01*
X134183Y-102712D01*
X136359Y-102712D02*
X135512Y-102712D01*
X135428Y-103474D01*
X135512Y-103390D01*
X135766Y-103305D01*
X136020Y-103305D01*
X136274Y-103390D01*
X136444Y-103559D01*
X136528Y-103813D01*
X136528Y-103982D01*
X136444Y-104236D01*
X136274Y-104405D01*
X136020Y-104490D01*
X135766Y-104490D01*
X135512Y-104405D01*
X135428Y-104321D01*
X135343Y-104151D01*
X137011Y-103136D02*
X137011Y-103051D01*
X137095Y-102882D01*
X137180Y-102797D01*
X137349Y-102712D01*
X137688Y-102712D01*
X137857Y-102797D01*
X137942Y-102882D01*
X138027Y-103051D01*
X138027Y-103220D01*
X137942Y-103390D01*
X137773Y-103644D01*
X136926Y-104490D01*
X138111Y-104490D01*
X138594Y-103136D02*
X138594Y-103051D01*
X138678Y-102882D01*
X138763Y-102797D01*
X138932Y-102712D01*
X139271Y-102712D01*
X139440Y-102797D01*
X139525Y-102882D01*
X139609Y-103051D01*
X139609Y-103220D01*
X139525Y-103390D01*
X139355Y-103644D01*
X138509Y-104490D01*
X139694Y-104490D01*
X140938Y-102712D02*
X140092Y-103897D01*
X141362Y-103897D01*
X140938Y-102712D02*
X140938Y-104490D01*
X114595Y-100636D02*
X114595Y-100551D01*
X114679Y-100382D01*
X114764Y-100297D01*
X114933Y-100212D01*
X115272Y-100212D01*
X115441Y-100297D01*
X115526Y-100382D01*
X115610Y-100551D01*
X115610Y-100720D01*
X115526Y-100890D01*
X115356Y-101144D01*
X114510Y-101990D01*
X115695Y-101990D01*
X116262Y-100212D02*
X117193Y-100212D01*
X116685Y-100890D01*
X116939Y-100890D01*
X117109Y-100974D01*
X117193Y-101059D01*
X117278Y-101313D01*
X117278Y-101482D01*
X117193Y-101736D01*
X117024Y-101905D01*
X116770Y-101990D01*
X116516Y-101990D01*
X116262Y-101905D01*
X116178Y-101821D01*
X116093Y-101651D01*
X118692Y-100212D02*
X117845Y-100212D01*
X117761Y-100974D01*
X117845Y-100890D01*
X118099Y-100805D01*
X118353Y-100805D01*
X118607Y-100890D01*
X118776Y-101059D01*
X118861Y-101313D01*
X118861Y-101482D01*
X118776Y-101736D01*
X118607Y-101905D01*
X118353Y-101990D01*
X118099Y-101990D01*
X117845Y-101905D01*
X117761Y-101821D01*
X117676Y-101651D01*
X120275Y-100212D02*
X119428Y-100212D01*
X119343Y-100974D01*
X119428Y-100890D01*
X119682Y-100805D01*
X119936Y-100805D01*
X120190Y-100890D01*
X120359Y-101059D01*
X120444Y-101313D01*
X120444Y-101482D01*
X120359Y-101736D01*
X120190Y-101905D01*
X119936Y-101990D01*
X119682Y-101990D01*
X119428Y-101905D01*
X119343Y-101821D01*
X119259Y-101651D01*
X122238Y-100212D02*
X122662Y-101990D01*
X123085Y-100212D02*
X122662Y-101990D01*
X123085Y-100212D02*
X123508Y-101990D01*
X123931Y-100212D02*
X123508Y-101990D01*
X124372Y-101821D02*
X124287Y-101905D01*
X124372Y-101990D01*
X124456Y-101905D01*
X124372Y-101821D01*
X127512Y-100636D02*
X127427Y-100466D01*
X127258Y-100297D01*
X127089Y-100212D01*
X126750Y-100212D01*
X126581Y-100297D01*
X126412Y-100466D01*
X126327Y-100636D01*
X126242Y-100890D01*
X126242Y-101313D01*
X126327Y-101567D01*
X126412Y-101736D01*
X126581Y-101905D01*
X126750Y-101990D01*
X127089Y-101990D01*
X127258Y-101905D01*
X127427Y-101736D01*
X127512Y-101567D01*
X128011Y-100212D02*
X128011Y-101990D01*
X128011Y-101144D02*
X128265Y-100890D01*
X128435Y-100805D01*
X128689Y-100805D01*
X128858Y-100890D01*
X128943Y-101144D01*
X128943Y-101990D01*
X130424Y-100805D02*
X130424Y-101990D01*
X130424Y-101059D02*
X130255Y-100890D01*
X130085Y-100805D01*
X129831Y-100805D01*
X129662Y-100890D01*
X129493Y-101059D01*
X129408Y-101313D01*
X129408Y-101482D01*
X129493Y-101736D01*
X129662Y-101905D01*
X129831Y-101990D01*
X130085Y-101990D01*
X130255Y-101905D01*
X130424Y-101736D01*
X130898Y-100805D02*
X130898Y-101990D01*
X130898Y-101144D02*
X131152Y-100890D01*
X131321Y-100805D01*
X131575Y-100805D01*
X131744Y-100890D01*
X131829Y-101144D01*
X131829Y-101990D01*
X133310Y-100212D02*
X133310Y-101990D01*
X133310Y-101059D02*
X133141Y-100890D01*
X132972Y-100805D01*
X132718Y-100805D01*
X132549Y-100890D01*
X132379Y-101059D01*
X132295Y-101313D01*
X132295Y-101482D01*
X132379Y-101736D01*
X132549Y-101905D01*
X132718Y-101990D01*
X132972Y-101990D01*
X133141Y-101905D01*
X133310Y-101736D01*
X133784Y-100212D02*
X133784Y-101990D01*
X134157Y-101313D02*
X135173Y-101313D01*
X135173Y-101144D01*
X135088Y-100974D01*
X135003Y-100890D01*
X134834Y-100805D01*
X134580Y-100805D01*
X134411Y-100890D01*
X134242Y-101059D01*
X134157Y-101313D01*
X134157Y-101482D01*
X134242Y-101736D01*
X134411Y-101905D01*
X134580Y-101990D01*
X134834Y-101990D01*
X135003Y-101905D01*
X135173Y-101736D01*
X135554Y-100805D02*
X135554Y-101990D01*
X135554Y-101313D02*
X135638Y-101059D01*
X135808Y-100890D01*
X135977Y-100805D01*
X136231Y-100805D01*
X137788Y-100212D02*
X137788Y-101990D01*
X137788Y-100212D02*
X138550Y-100212D01*
X138804Y-100297D01*
X138889Y-100382D01*
X138973Y-100551D01*
X138973Y-100720D01*
X138889Y-100890D01*
X138804Y-100974D01*
X138550Y-101059D01*
X137788Y-101059D02*
X138550Y-101059D01*
X138804Y-101144D01*
X138889Y-101228D01*
X138973Y-101397D01*
X138973Y-101651D01*
X138889Y-101821D01*
X138804Y-101905D01*
X138550Y-101990D01*
X137788Y-101990D01*
X139371Y-100212D02*
X139371Y-101990D01*
X139744Y-100805D02*
X140252Y-101990D01*
X140760Y-100805D02*
X140252Y-101990D01*
X142063Y-100212D02*
X142063Y-101990D01*
X142063Y-101059D02*
X141894Y-100890D01*
X141725Y-100805D01*
X141471Y-100805D01*
X141301Y-100890D01*
X141132Y-101059D01*
X141047Y-101313D01*
X141047Y-101482D01*
X141132Y-101736D01*
X141301Y-101905D01*
X141471Y-101990D01*
X141725Y-101990D01*
X141894Y-101905D01*
X142063Y-101736D01*
X142622Y-101821D02*
X142537Y-101905D01*
X142622Y-101990D01*
X142706Y-101905D01*
X142622Y-101821D01*
X113280Y-97472D02*
X113280Y-99250D01*
X113280Y-97472D02*
X113957Y-99250D01*
X114634Y-97472D02*
X113957Y-99250D01*
X114634Y-97472D02*
X114634Y-99250D01*
X115312Y-97472D02*
X115396Y-97557D01*
X115481Y-97472D01*
X115396Y-97388D01*
X115312Y-97472D01*
X115396Y-98065D02*
X115396Y-99250D01*
X116810Y-98319D02*
X116641Y-98150D01*
X116471Y-98065D01*
X116217Y-98065D01*
X116048Y-98150D01*
X115879Y-98319D01*
X115794Y-98573D01*
X115794Y-98742D01*
X115879Y-98996D01*
X116048Y-99165D01*
X116217Y-99250D01*
X116471Y-99250D01*
X116641Y-99165D01*
X116810Y-98996D01*
X117191Y-98065D02*
X117191Y-99250D01*
X117191Y-98573D02*
X117275Y-98319D01*
X117445Y-98150D01*
X117614Y-98065D01*
X117868Y-98065D01*
X118452Y-98065D02*
X118283Y-98150D01*
X118113Y-98319D01*
X118029Y-98573D01*
X118029Y-98742D01*
X118113Y-98996D01*
X118283Y-99165D01*
X118452Y-99250D01*
X118706Y-99250D01*
X118875Y-99165D01*
X119045Y-98996D01*
X119129Y-98742D01*
X119129Y-98573D01*
X119045Y-98319D01*
X118875Y-98150D01*
X118706Y-98065D01*
X118452Y-98065D01*
X120534Y-98319D02*
X120365Y-98150D01*
X120196Y-98065D01*
X119942Y-98065D01*
X119773Y-98150D01*
X119603Y-98319D01*
X119519Y-98573D01*
X119519Y-98742D01*
X119603Y-98996D01*
X119773Y-99165D01*
X119942Y-99250D01*
X120196Y-99250D01*
X120365Y-99165D01*
X120534Y-98996D01*
X120915Y-97472D02*
X120915Y-99250D01*
X120915Y-98404D02*
X121169Y-98150D01*
X121339Y-98065D01*
X121592Y-98065D01*
X121762Y-98150D01*
X121846Y-98404D01*
X121846Y-99250D01*
X122481Y-97472D02*
X122566Y-97557D01*
X122651Y-97472D01*
X122566Y-97388D01*
X122481Y-97472D01*
X122566Y-98065D02*
X122566Y-99250D01*
X122964Y-98065D02*
X122964Y-99843D01*
X122964Y-98319D02*
X123133Y-98150D01*
X123302Y-98065D01*
X123556Y-98065D01*
X123726Y-98150D01*
X123895Y-98319D01*
X123980Y-98573D01*
X123980Y-98742D01*
X123895Y-98996D01*
X123726Y-99165D01*
X123556Y-99250D01*
X123302Y-99250D01*
X123133Y-99165D01*
X122964Y-98996D01*
X126350Y-97472D02*
X126350Y-99250D01*
X125757Y-97472D02*
X126942Y-97472D01*
X127154Y-98573D02*
X128170Y-98573D01*
X128170Y-98404D01*
X128085Y-98234D01*
X128000Y-98150D01*
X127831Y-98065D01*
X127577Y-98065D01*
X127408Y-98150D01*
X127239Y-98319D01*
X127154Y-98573D01*
X127154Y-98742D01*
X127239Y-98996D01*
X127408Y-99165D01*
X127577Y-99250D01*
X127831Y-99250D01*
X128000Y-99165D01*
X128170Y-98996D01*
X129566Y-98319D02*
X129397Y-98150D01*
X129228Y-98065D01*
X128974Y-98065D01*
X128805Y-98150D01*
X128635Y-98319D01*
X128551Y-98573D01*
X128551Y-98742D01*
X128635Y-98996D01*
X128805Y-99165D01*
X128974Y-99250D01*
X129228Y-99250D01*
X129397Y-99165D01*
X129566Y-98996D01*
X129947Y-97472D02*
X129947Y-99250D01*
X129947Y-98404D02*
X130201Y-98150D01*
X130371Y-98065D01*
X130624Y-98065D01*
X130794Y-98150D01*
X130878Y-98404D01*
X130878Y-99250D01*
X131344Y-98065D02*
X131344Y-99250D01*
X131344Y-98404D02*
X131598Y-98150D01*
X131767Y-98065D01*
X132021Y-98065D01*
X132190Y-98150D01*
X132275Y-98404D01*
X132275Y-99250D01*
X133164Y-98065D02*
X132995Y-98150D01*
X132825Y-98319D01*
X132741Y-98573D01*
X132741Y-98742D01*
X132825Y-98996D01*
X132995Y-99165D01*
X133164Y-99250D01*
X133418Y-99250D01*
X133587Y-99165D01*
X133756Y-98996D01*
X133841Y-98742D01*
X133841Y-98573D01*
X133756Y-98319D01*
X133587Y-98150D01*
X133418Y-98065D01*
X133164Y-98065D01*
X134231Y-97472D02*
X134231Y-99250D01*
X135026Y-98065D02*
X134857Y-98150D01*
X134688Y-98319D01*
X134603Y-98573D01*
X134603Y-98742D01*
X134688Y-98996D01*
X134857Y-99165D01*
X135026Y-99250D01*
X135280Y-99250D01*
X135449Y-99165D01*
X135619Y-98996D01*
X135703Y-98742D01*
X135703Y-98573D01*
X135619Y-98319D01*
X135449Y-98150D01*
X135280Y-98065D01*
X135026Y-98065D01*
X137109Y-98065D02*
X137109Y-99419D01*
X137024Y-99673D01*
X136939Y-99758D01*
X136770Y-99843D01*
X136516Y-99843D01*
X136347Y-99758D01*
X137109Y-98319D02*
X136939Y-98150D01*
X136770Y-98065D01*
X136516Y-98065D01*
X136347Y-98150D01*
X136177Y-98319D01*
X136093Y-98573D01*
X136093Y-98742D01*
X136177Y-98996D01*
X136347Y-99165D01*
X136516Y-99250D01*
X136770Y-99250D01*
X136939Y-99165D01*
X137109Y-98996D01*
X137667Y-98065D02*
X138175Y-99250D01*
X138683Y-98065D02*
X138175Y-99250D01*
X138006Y-99589D01*
X137837Y-99758D01*
X137667Y-99843D01*
X137583Y-99843D01*
X140376Y-97472D02*
X140376Y-99250D01*
X140748Y-98065D02*
X140748Y-99250D01*
X140748Y-98404D02*
X141002Y-98150D01*
X141172Y-98065D01*
X141426Y-98065D01*
X141595Y-98150D01*
X141680Y-98404D01*
X141680Y-99250D01*
X143161Y-98319D02*
X142992Y-98150D01*
X142822Y-98065D01*
X142568Y-98065D01*
X142399Y-98150D01*
X142230Y-98319D01*
X142145Y-98573D01*
X142145Y-98742D01*
X142230Y-98996D01*
X142399Y-99165D01*
X142568Y-99250D01*
X142822Y-99250D01*
X142992Y-99165D01*
X143161Y-98996D01*
X143626Y-99081D02*
X143542Y-99165D01*
X143626Y-99250D01*
X143711Y-99165D01*
X143626Y-99081D01*
X174581Y-92633D02*
X174510Y-92562D01*
X174581Y-92490D01*
X174653Y-92562D01*
X174653Y-92705D01*
X174581Y-92847D01*
X174510Y-92919D01*
X175410Y-92490D02*
X175196Y-92562D01*
X175053Y-92776D01*
X174981Y-93133D01*
X174981Y-93347D01*
X175053Y-93704D01*
X175196Y-93919D01*
X175410Y-93990D01*
X175553Y-93990D01*
X175767Y-93919D01*
X175910Y-93704D01*
X175981Y-93347D01*
X175981Y-93133D01*
X175910Y-92776D01*
X175767Y-92562D01*
X175553Y-92490D01*
X175410Y-92490D01*
X177031Y-92490D02*
X176317Y-93490D01*
X177388Y-93490D01*
X177031Y-92490D02*
X177031Y-93990D01*
X177652Y-93347D02*
X178938Y-93347D01*
X179380Y-92776D02*
X179523Y-92705D01*
X179737Y-92490D01*
X179737Y-93990D01*
X180552Y-92847D02*
X180552Y-92776D01*
X180623Y-92633D01*
X180694Y-92562D01*
X180837Y-92490D01*
X181123Y-92490D01*
X181266Y-92562D01*
X181337Y-92633D01*
X181409Y-92776D01*
X181409Y-92919D01*
X181337Y-93062D01*
X181194Y-93276D01*
X180480Y-93990D01*
X181480Y-93990D01*
X181887Y-92847D02*
X181887Y-92776D01*
X181958Y-92633D01*
X182030Y-92562D01*
X182173Y-92490D01*
X182458Y-92490D01*
X182601Y-92562D01*
X182673Y-92633D01*
X182744Y-92776D01*
X182744Y-92919D01*
X182673Y-93062D01*
X182530Y-93276D01*
X181816Y-93990D01*
X182815Y-93990D01*
X184079Y-92990D02*
X184008Y-93204D01*
X183865Y-93347D01*
X183651Y-93419D01*
X183579Y-93419D01*
X183365Y-93347D01*
X183222Y-93204D01*
X183151Y-92990D01*
X183151Y-92919D01*
X183222Y-92705D01*
X183365Y-92562D01*
X183579Y-92490D01*
X183651Y-92490D01*
X183865Y-92562D01*
X184008Y-92705D01*
X184079Y-92990D01*
X184079Y-93347D01*
X184008Y-93704D01*
X183865Y-93919D01*
X183651Y-93990D01*
X183508Y-93990D01*
X183294Y-93919D01*
X183222Y-93776D01*
X184558Y-92847D02*
X184558Y-92776D01*
X184629Y-92633D01*
X184701Y-92562D01*
X184844Y-92490D01*
X185129Y-92490D01*
X185272Y-92562D01*
X185343Y-92633D01*
X185415Y-92776D01*
X185415Y-92919D01*
X185343Y-93062D01*
X185201Y-93276D01*
X184486Y-93990D01*
X185486Y-93990D01*
X185822Y-93347D02*
X187107Y-93347D01*
X187550Y-92490D02*
X187550Y-93990D01*
X187550Y-92490D02*
X188193Y-92490D01*
X188407Y-92562D01*
X188478Y-92633D01*
X188550Y-92776D01*
X188550Y-92919D01*
X188478Y-93062D01*
X188407Y-93133D01*
X188193Y-93204D01*
X187550Y-93204D01*
X188050Y-93204D02*
X188550Y-93990D01*
X189742Y-92490D02*
X189028Y-92490D01*
X188957Y-93133D01*
X189028Y-93062D01*
X189243Y-92990D01*
X189457Y-92990D01*
X189671Y-93062D01*
X189814Y-93204D01*
X189885Y-93419D01*
X189885Y-93562D01*
X189814Y-93776D01*
X189671Y-93919D01*
X189457Y-93990D01*
X189243Y-93990D01*
X189028Y-93919D01*
X188957Y-93847D01*
X188885Y-93704D01*
X190292Y-93847D02*
X190221Y-93919D01*
X190292Y-93990D01*
X190364Y-93919D01*
X190292Y-93847D01*
X191763Y-92847D02*
X191692Y-92705D01*
X191549Y-92562D01*
X191406Y-92490D01*
X191121Y-92490D01*
X190978Y-92562D01*
X190835Y-92705D01*
X190764Y-92847D01*
X190692Y-93062D01*
X190692Y-93419D01*
X190764Y-93633D01*
X190835Y-93776D01*
X190978Y-93919D01*
X191121Y-93990D01*
X191406Y-93990D01*
X191549Y-93919D01*
X191692Y-93776D01*
X191763Y-93633D01*
X191763Y-93419D01*
X191406Y-93419D02*
X191763Y-93419D01*
X192606Y-92490D02*
X192606Y-93990D01*
X192106Y-92490D02*
X193106Y-92490D01*
X193285Y-92490D02*
X193285Y-93990D01*
X194142Y-93990D01*
X194377Y-92633D02*
X194306Y-92562D01*
X194377Y-92490D01*
X194449Y-92562D01*
X194449Y-92705D01*
X194377Y-92847D01*
X194306Y-92919D01*
X201092Y-107188D02*
X201007Y-107019D01*
X200753Y-106934D01*
X200584Y-106934D01*
X200330Y-107019D01*
X200160Y-107273D01*
X200076Y-107696D01*
X200076Y-108119D01*
X200160Y-108458D01*
X200330Y-108627D01*
X200584Y-108712D01*
X200668Y-108712D01*
X200922Y-108627D01*
X201092Y-108458D01*
X201176Y-108204D01*
X201176Y-108119D01*
X201092Y-107866D01*
X200922Y-107696D01*
X200668Y-107612D01*
X200584Y-107612D01*
X200330Y-107696D01*
X200160Y-107866D01*
X200076Y-108119D01*
X137465Y-106934D02*
X136618Y-106934D01*
X136533Y-107696D01*
X136618Y-107612D01*
X136872Y-107527D01*
X137126Y-107527D01*
X137380Y-107612D01*
X137549Y-107781D01*
X137634Y-108035D01*
X137634Y-108204D01*
X137549Y-108458D01*
X137380Y-108627D01*
X137126Y-108712D01*
X136872Y-108712D01*
X136618Y-108627D01*
X136533Y-108543D01*
X136449Y-108373D01*
X73821Y-106934D02*
X72974Y-108119D01*
X74244Y-108119D01*
X73821Y-106934D02*
X73821Y-108712D01*
X9474Y-106934D02*
X10406Y-106934D01*
X9898Y-107612D01*
X10152Y-107612D01*
X10321Y-107696D01*
X10406Y-107781D01*
X10490Y-108035D01*
X10490Y-108204D01*
X10406Y-108458D01*
X10236Y-108627D01*
X9982Y-108712D01*
X9728Y-108712D01*
X9474Y-108627D01*
X9390Y-108543D01*
X9305Y-108373D01*
X-53840Y-107358D02*
X-53840Y-107273D01*
X-53755Y-107104D01*
X-53670Y-107019D01*
X-53501Y-106934D01*
X-53162Y-106934D01*
X-52993Y-107019D01*
X-52908Y-107104D01*
X-52824Y-107273D01*
X-52824Y-107442D01*
X-52908Y-107612D01*
X-53078Y-107866D01*
X-53924Y-108712D01*
X-52739Y-108712D01*
X-117314Y-107273D02*
X-117145Y-107188D01*
X-116891Y-106934D01*
X-116891Y-108712D01*
X-146685Y-80722D02*
X-146685Y-82499D01*
X-146685Y-80722D02*
X-146092Y-80722D01*
X-145839Y-80806D01*
X-145669Y-80976D01*
X-145585Y-81145D01*
X-145500Y-81399D01*
X-145500Y-81822D01*
X-145585Y-82076D01*
X-145669Y-82245D01*
X-145839Y-82415D01*
X-146092Y-82499D01*
X-146685Y-82499D01*
X-145415Y-20947D02*
X-145500Y-20778D01*
X-145669Y-20608D01*
X-145839Y-20524D01*
X-146177Y-20524D01*
X-146346Y-20608D01*
X-146516Y-20778D01*
X-146600Y-20947D01*
X-146685Y-21201D01*
X-146685Y-21624D01*
X-146600Y-21878D01*
X-146516Y-22047D01*
X-146346Y-22217D01*
X-146177Y-22301D01*
X-145839Y-22301D01*
X-145669Y-22217D01*
X-145500Y-22047D01*
X-145415Y-21878D01*
X-146685Y39801D02*
X-146685Y38024D01*
X-146685Y39801D02*
X-145923Y39801D01*
X-145669Y39717D01*
X-145585Y39632D01*
X-145500Y39463D01*
X-145500Y39294D01*
X-145585Y39124D01*
X-145669Y39040D01*
X-145923Y38955D01*
X-146685Y38955D02*
X-145923Y38955D01*
X-145669Y38870D01*
X-145585Y38786D01*
X-145500Y38616D01*
X-145500Y38362D01*
X-145585Y38193D01*
X-145669Y38108D01*
X-145923Y38024D01*
X-146685Y38024D01*
X-145331Y98476D02*
X-146008Y100253D01*
X-146685Y98476D01*
X-146431Y99068D02*
X-145585Y99068D01*
X229235Y-80722D02*
X229235Y-82499D01*
X229235Y-80722D02*
X229828Y-80722D01*
X230081Y-80806D01*
X230251Y-80976D01*
X230335Y-81145D01*
X230420Y-81399D01*
X230420Y-81822D01*
X230335Y-82076D01*
X230251Y-82245D01*
X230081Y-82415D01*
X229828Y-82499D01*
X229235Y-82499D01*
X230505Y-20947D02*
X230420Y-20778D01*
X230251Y-20608D01*
X230081Y-20524D01*
X229743Y-20524D01*
X229574Y-20608D01*
X229404Y-20778D01*
X229320Y-20947D01*
X229235Y-21201D01*
X229235Y-21624D01*
X229320Y-21878D01*
X229404Y-22047D01*
X229574Y-22217D01*
X229743Y-22301D01*
X230081Y-22301D01*
X230251Y-22217D01*
X230420Y-22047D01*
X230505Y-21878D01*
X229235Y39801D02*
X229235Y38024D01*
X229235Y39801D02*
X229997Y39801D01*
X230251Y39717D01*
X230335Y39632D01*
X230420Y39463D01*
X230420Y39294D01*
X230335Y39124D01*
X230251Y39040D01*
X229997Y38955D01*
X229235Y38955D02*
X229997Y38955D01*
X230251Y38870D01*
X230335Y38786D01*
X230420Y38616D01*
X230420Y38362D01*
X230335Y38193D01*
X230251Y38108D01*
X229997Y38024D01*
X229235Y38024D01*
X230589Y98476D02*
X229912Y100253D01*
X229235Y98476D01*
X229489Y99068D02*
X230335Y99068D01*
X201092Y129032D02*
X201007Y129201D01*
X200753Y129286D01*
X200584Y129286D01*
X200330Y129201D01*
X200160Y128947D01*
X200076Y128524D01*
X200076Y128101D01*
X200160Y127762D01*
X200330Y127593D01*
X200584Y127508D01*
X200668Y127508D01*
X200922Y127593D01*
X201092Y127762D01*
X201176Y128016D01*
X201176Y128101D01*
X201092Y128355D01*
X200922Y128524D01*
X200668Y128608D01*
X200584Y128608D01*
X200330Y128524D01*
X200160Y128355D01*
X200076Y128101D01*
X137465Y129286D02*
X136618Y129286D01*
X136533Y128524D01*
X136618Y128608D01*
X136872Y128693D01*
X137126Y128693D01*
X137380Y128608D01*
X137549Y128439D01*
X137634Y128185D01*
X137634Y128016D01*
X137549Y127762D01*
X137380Y127593D01*
X137126Y127508D01*
X136872Y127508D01*
X136618Y127593D01*
X136533Y127677D01*
X136449Y127847D01*
X73821Y129286D02*
X72974Y128101D01*
X74244Y128101D01*
X73821Y129286D02*
X73821Y127508D01*
X9474Y129286D02*
X10406Y129286D01*
X9898Y128608D01*
X10152Y128608D01*
X10321Y128524D01*
X10406Y128439D01*
X10490Y128185D01*
X10490Y128016D01*
X10406Y127762D01*
X10236Y127593D01*
X9982Y127508D01*
X9728Y127508D01*
X9474Y127593D01*
X9390Y127677D01*
X9305Y127847D01*
X-53840Y128862D02*
X-53840Y128947D01*
X-53755Y129116D01*
X-53670Y129201D01*
X-53501Y129286D01*
X-53162Y129286D01*
X-52993Y129201D01*
X-52908Y129116D01*
X-52824Y128947D01*
X-52824Y128778D01*
X-52908Y128608D01*
X-53078Y128355D01*
X-53924Y127508D01*
X-52739Y127508D01*
X-117314Y128947D02*
X-117145Y129032D01*
X-116891Y129286D01*
X-116891Y127508D01*
D18*
X38000Y34500D02*
X38000Y39025D01*
X50602Y51628D01*
X37000Y34250D02*
X37000Y43168D01*
X50591Y56759D01*
X40750Y30925D02*
X40750Y31748D01*
X40750Y30925D02*
X41675Y30000D01*
X32886Y33705D02*
X43016Y33705D01*
X32165Y32525D02*
X42346Y32525D01*
X24000Y10509D02*
X24000Y24360D01*
X32165Y32525D01*
X23325Y9834D02*
X24000Y10509D01*
X6379Y21033D02*
X9642Y17770D01*
X5971Y21033D02*
X6379Y21033D01*
X5778Y21226D02*
X5971Y21033D01*
X9642Y17770D02*
X9642Y17770D01*
X45850Y31500D02*
X45850Y31814D01*
X45875Y31839D02*
X45875Y31841D01*
X45850Y31814D02*
X45875Y31839D01*
X47509Y33475D02*
X47509Y34599D01*
X45875Y31841D02*
X47509Y33475D01*
X45450Y39270D02*
X50055Y43875D01*
X46175Y14094D02*
X46175Y14107D01*
X46539Y13730D02*
X50200Y13730D01*
X46175Y14094D02*
X46539Y13730D01*
X46384Y16270D02*
X50200Y16270D01*
X5778Y19226D02*
X6103Y18901D01*
X15015Y8780D02*
X15015Y9989D01*
X6103Y18901D02*
X6103Y18901D01*
X15015Y9989D01*
X23325Y13060D02*
X23325Y24144D01*
X32886Y33705D01*
X47155Y28800D02*
X47155Y28904D01*
X46859Y29200D02*
X47155Y28904D01*
X46550Y29200D02*
X46859Y29200D01*
X30009Y32490D02*
X30009Y41809D01*
X47509Y34599D02*
X47545Y34634D01*
X48007Y32751D02*
X48007Y33824D01*
X48009Y33826D01*
X46550Y31294D02*
X48007Y32751D01*
X48575Y30392D02*
X48575Y33233D01*
X47783Y29600D02*
X48575Y30392D01*
X45450Y35400D02*
X45450Y39270D01*
X45450Y31500D02*
X45450Y33450D01*
X41719Y31684D02*
X41719Y31707D01*
X41719Y31684D02*
X42594Y30810D01*
X42594Y30810D02*
X43540Y30810D01*
X43016Y33705D02*
X44640Y32080D01*
X44640Y31510D02*
X44640Y32080D01*
X44640Y31510D02*
X44650Y31500D01*
X41750Y30729D02*
X42079Y30400D01*
X42346Y32525D02*
X42375Y32554D01*
X46900Y23800D02*
X50588Y27487D01*
X50600Y27487D01*
X46800Y23800D02*
X46900Y23800D01*
X46175Y16061D02*
X46384Y16270D01*
X46175Y14094D02*
X46539Y13730D01*
X46175Y14094D02*
X46175Y14107D01*
X46175Y14425D01*
X45450Y15150D02*
X45450Y28500D01*
X45450Y15150D02*
X46175Y14425D01*
X46175Y16061D02*
X46175Y16392D01*
X45850Y16717D02*
X45850Y28500D01*
X45850Y16717D02*
X46175Y16392D01*
X42375Y29400D02*
X42463Y29400D01*
X42663Y29200D02*
X43550Y29200D01*
X42463Y29400D02*
X42663Y29200D01*
X30009Y41809D02*
X32750Y41809D01*
X27250Y41809D02*
X30009Y41809D01*
X46550Y29600D02*
X47783Y29600D01*
X47463Y30933D02*
X47463Y31028D01*
X46940Y30410D02*
X47463Y30933D01*
X46550Y30800D02*
X46550Y31294D01*
X46550Y30000D02*
X47160Y30000D01*
X47260Y30100D02*
X47368Y30100D01*
X47160Y30000D02*
X47260Y30100D01*
X46560Y30410D02*
X46940Y30410D01*
X46550Y30400D02*
X46560Y30410D01*
X41675Y30000D02*
X43550Y30000D01*
X42375Y32554D02*
X43429Y31500D01*
X44250Y31500D01*
X42079Y30400D02*
X43550Y30400D01*
X43540Y30810D02*
X43550Y30800D01*
X7594Y13680D02*
X7838Y13925D01*
X6647Y13680D02*
X7594Y13680D01*
X7838Y13925D02*
X7881Y13925D01*
X6657Y10670D02*
X7800Y10670D01*
X174510Y-103240D02*
X174510Y-104740D01*
X174010Y-103240D02*
X175010Y-103240D01*
X175545Y-103740D02*
X175403Y-103812D01*
X175260Y-103954D01*
X175188Y-104169D01*
X175188Y-104312D01*
X175260Y-104526D01*
X175403Y-104669D01*
X175545Y-104740D01*
X175760Y-104740D01*
X175902Y-104669D01*
X176045Y-104526D01*
X176117Y-104312D01*
X176117Y-104169D01*
X176045Y-103954D01*
X175902Y-103812D01*
X175760Y-103740D01*
X175545Y-103740D01*
X176445Y-103740D02*
X176445Y-105240D01*
X176445Y-103954D02*
X176588Y-103812D01*
X176731Y-103740D01*
X176945Y-103740D01*
X177088Y-103812D01*
X177231Y-103954D01*
X177302Y-104169D01*
X177302Y-104312D01*
X177231Y-104526D01*
X177088Y-104669D01*
X176945Y-104740D01*
X176731Y-104740D01*
X176588Y-104669D01*
X176445Y-104526D01*
X178802Y-103240D02*
X178802Y-104740D01*
X179659Y-104740D01*
X180680Y-103740D02*
X180680Y-104740D01*
X180680Y-103954D02*
X180537Y-103812D01*
X180394Y-103740D01*
X180180Y-103740D01*
X180037Y-103812D01*
X179894Y-103954D01*
X179823Y-104169D01*
X179823Y-104312D01*
X179894Y-104526D01*
X180037Y-104669D01*
X180180Y-104740D01*
X180394Y-104740D01*
X180537Y-104669D01*
X180680Y-104526D01*
X181151Y-103740D02*
X181580Y-104740D01*
X182008Y-103740D02*
X181580Y-104740D01*
X181437Y-105026D01*
X181294Y-105168D01*
X181151Y-105240D01*
X181080Y-105240D01*
X182258Y-104169D02*
X183115Y-104169D01*
X183115Y-104026D01*
X183044Y-103883D01*
X182972Y-103812D01*
X182830Y-103740D01*
X182615Y-103740D01*
X182472Y-103812D01*
X182330Y-103954D01*
X182258Y-104169D01*
X182258Y-104312D01*
X182330Y-104526D01*
X182472Y-104669D01*
X182615Y-104740D01*
X182830Y-104740D01*
X182972Y-104669D01*
X183115Y-104526D01*
X183437Y-103740D02*
X183437Y-104740D01*
X183437Y-104169D02*
X183508Y-103954D01*
X183651Y-103812D01*
X183794Y-103740D01*
X184008Y-103740D01*
X146510Y-102192D02*
X147003Y-102192D01*
X147167Y-102138D01*
X147222Y-102083D01*
X147277Y-101973D01*
X147277Y-101809D01*
X147222Y-101700D01*
X147167Y-101645D01*
X147003Y-101590D01*
X146510Y-101590D01*
X146510Y-102740D01*
X148355Y-101864D02*
X148300Y-101754D01*
X148191Y-101645D01*
X148081Y-101590D01*
X147862Y-101590D01*
X147753Y-101645D01*
X147643Y-101754D01*
X147589Y-101864D01*
X147534Y-102028D01*
X147534Y-102302D01*
X147589Y-102466D01*
X147643Y-102576D01*
X147753Y-102685D01*
X147862Y-102740D01*
X148081Y-102740D01*
X148191Y-102685D01*
X148300Y-102576D01*
X148355Y-102466D01*
X148678Y-101590D02*
X148678Y-102740D01*
X148678Y-101590D02*
X149171Y-101590D01*
X149335Y-101645D01*
X149390Y-101700D01*
X149445Y-101809D01*
X149445Y-101919D01*
X149390Y-102028D01*
X149335Y-102083D01*
X149171Y-102138D01*
X148678Y-102138D02*
X149171Y-102138D01*
X149335Y-102192D01*
X149390Y-102247D01*
X149445Y-102357D01*
X149445Y-102521D01*
X149390Y-102630D01*
X149335Y-102685D01*
X149171Y-102740D01*
X148678Y-102740D01*
X150605Y-101590D02*
X150605Y-102740D01*
X150605Y-101590D02*
X151317Y-101590D01*
X150605Y-102138D02*
X151043Y-102138D01*
X151448Y-101590D02*
X151448Y-102740D01*
X151689Y-101590D02*
X151689Y-102740D01*
X152346Y-102740D01*
X153184Y-101590D02*
X152472Y-101590D01*
X152472Y-102740D01*
X153184Y-102740D01*
X152472Y-102138D02*
X152910Y-102138D01*
X154279Y-101590D02*
X154279Y-102740D01*
X154279Y-101590D02*
X155046Y-102740D01*
X155046Y-101590D02*
X155046Y-102740D01*
X156239Y-102740D02*
X155801Y-101590D01*
X155363Y-102740D01*
X155527Y-102357D02*
X156075Y-102357D01*
X156507Y-101590D02*
X156507Y-102740D01*
X156507Y-101590D02*
X156945Y-102740D01*
X157383Y-101590D02*
X156945Y-102740D01*
X157383Y-101590D02*
X157383Y-102740D01*
X158424Y-101590D02*
X157712Y-101590D01*
X157712Y-102740D01*
X158424Y-102740D01*
X157712Y-102138D02*
X158150Y-102138D01*
X158670Y-101973D02*
X158615Y-102028D01*
X158670Y-102083D01*
X158725Y-102028D01*
X158670Y-101973D01*
X158670Y-102630D02*
X158615Y-102685D01*
X158670Y-102740D01*
X158725Y-102685D01*
X158670Y-102630D01*
X146510Y-103740D02*
X146510Y-104740D01*
X146510Y-103740D02*
X146891Y-104740D01*
X147272Y-103740D02*
X146891Y-104740D01*
X147272Y-103740D02*
X147272Y-104740D01*
X147891Y-103740D02*
X147891Y-104740D01*
X147557Y-103740D02*
X148224Y-103740D01*
X149057Y-103978D02*
X149009Y-103883D01*
X148914Y-103788D01*
X148819Y-103740D01*
X148629Y-103740D01*
X148533Y-103788D01*
X148438Y-103883D01*
X148391Y-103978D01*
X148343Y-104121D01*
X148343Y-104359D01*
X148391Y-104502D01*
X148438Y-104597D01*
X148533Y-104692D01*
X148629Y-104740D01*
X148819Y-104740D01*
X148914Y-104692D01*
X149009Y-104597D01*
X149057Y-104502D01*
X149338Y-103740D02*
X149338Y-104740D01*
X150005Y-103740D02*
X150005Y-104740D01*
X149338Y-104216D02*
X150005Y-104216D01*
X150900Y-104073D02*
X150852Y-104216D01*
X150757Y-104312D01*
X150614Y-104359D01*
X150566Y-104359D01*
X150423Y-104312D01*
X150328Y-104216D01*
X150281Y-104073D01*
X150281Y-104026D01*
X150328Y-103883D01*
X150423Y-103788D01*
X150566Y-103740D01*
X150614Y-103740D01*
X150757Y-103788D01*
X150852Y-103883D01*
X150900Y-104073D01*
X150900Y-104312D01*
X150852Y-104550D01*
X150757Y-104692D01*
X150614Y-104740D01*
X150519Y-104740D01*
X150376Y-104692D01*
X150328Y-104597D01*
X151457Y-103740D02*
X151314Y-103788D01*
X151219Y-103931D01*
X151171Y-104169D01*
X151171Y-104312D01*
X151219Y-104550D01*
X151314Y-104692D01*
X151457Y-104740D01*
X151552Y-104740D01*
X151695Y-104692D01*
X151790Y-104550D01*
X151837Y-104312D01*
X151837Y-104169D01*
X151790Y-103931D01*
X151695Y-103788D01*
X151552Y-103740D01*
X151457Y-103740D01*
X152061Y-103931D02*
X152156Y-103883D01*
X152299Y-103740D01*
X152299Y-104740D01*
X153080Y-103740D02*
X152937Y-103788D01*
X152842Y-103931D01*
X152794Y-104169D01*
X152794Y-104312D01*
X152842Y-104550D01*
X152937Y-104692D01*
X153080Y-104740D01*
X153175Y-104740D01*
X153318Y-104692D01*
X153413Y-104550D01*
X153461Y-104312D01*
X153461Y-104169D01*
X153413Y-103931D01*
X153318Y-103788D01*
X153175Y-103740D01*
X153080Y-103740D01*
X153685Y-105073D02*
X154446Y-105073D01*
X155194Y-103740D02*
X154575Y-103740D01*
X154575Y-104740D01*
X155194Y-104740D01*
X154575Y-104216D02*
X154956Y-104216D01*
X155360Y-104073D02*
X155646Y-104740D01*
X155932Y-104073D02*
X155646Y-104740D01*
X156665Y-104073D02*
X156665Y-104740D01*
X156665Y-104216D02*
X156570Y-104121D01*
X156475Y-104073D01*
X156332Y-104073D01*
X156236Y-104121D01*
X156141Y-104216D01*
X156094Y-104359D01*
X156094Y-104454D01*
X156141Y-104597D01*
X156236Y-104692D01*
X156332Y-104740D01*
X156475Y-104740D01*
X156570Y-104692D01*
X156665Y-104597D01*
X156932Y-103740D02*
X156932Y-104740D01*
X157141Y-104073D02*
X157141Y-104550D01*
X157189Y-104692D01*
X157284Y-104740D01*
X157427Y-104740D01*
X157522Y-104692D01*
X157665Y-104550D01*
X157665Y-104073D02*
X157665Y-104740D01*
X158498Y-104073D02*
X158498Y-104740D01*
X158498Y-104216D02*
X158403Y-104121D01*
X158307Y-104073D01*
X158165Y-104073D01*
X158069Y-104121D01*
X157974Y-104216D01*
X157927Y-104359D01*
X157927Y-104454D01*
X157974Y-104597D01*
X158069Y-104692D01*
X158165Y-104740D01*
X158307Y-104740D01*
X158403Y-104692D01*
X158498Y-104597D01*
X158907Y-103740D02*
X158907Y-104550D01*
X158955Y-104692D01*
X159050Y-104740D01*
X159145Y-104740D01*
X158765Y-104073D02*
X159098Y-104073D01*
X159383Y-103740D02*
X159431Y-103788D01*
X159479Y-103740D01*
X159431Y-103693D01*
X159383Y-103740D01*
X159431Y-104073D02*
X159431Y-104740D01*
X159893Y-104073D02*
X159798Y-104121D01*
X159702Y-104216D01*
X159655Y-104359D01*
X159655Y-104454D01*
X159702Y-104597D01*
X159798Y-104692D01*
X159893Y-104740D01*
X160036Y-104740D01*
X160131Y-104692D01*
X160226Y-104597D01*
X160274Y-104454D01*
X160274Y-104359D01*
X160226Y-104216D01*
X160131Y-104121D01*
X160036Y-104073D01*
X159893Y-104073D01*
X160493Y-104073D02*
X160493Y-104740D01*
X160493Y-104264D02*
X160636Y-104121D01*
X160731Y-104073D01*
X160874Y-104073D01*
X160969Y-104121D01*
X161016Y-104264D01*
X161016Y-104740D01*
X161278Y-105073D02*
X162040Y-105073D01*
X162169Y-103740D02*
X162169Y-104740D01*
X162835Y-103740D02*
X162169Y-104407D01*
X162407Y-104169D02*
X162835Y-104740D01*
X163154Y-103740D02*
X163202Y-103788D01*
X163249Y-103740D01*
X163202Y-103693D01*
X163154Y-103740D01*
X163202Y-104073D02*
X163202Y-104740D01*
X163568Y-103740D02*
X163568Y-104550D01*
X163616Y-104692D01*
X163711Y-104740D01*
X163806Y-104740D01*
X163425Y-104073D02*
X163759Y-104073D01*
X163997Y-104645D02*
X163949Y-104692D01*
X163997Y-104740D01*
X164044Y-104692D01*
X163997Y-104645D01*
X164263Y-104264D02*
X164692Y-104264D01*
X164835Y-104216D01*
X164882Y-104169D01*
X164930Y-104073D01*
X164930Y-103931D01*
X164882Y-103835D01*
X164835Y-103788D01*
X164692Y-103740D01*
X164263Y-103740D01*
X164263Y-104740D01*
X165725Y-104216D02*
X165630Y-104121D01*
X165535Y-104073D01*
X165392Y-104073D01*
X165296Y-104121D01*
X165201Y-104216D01*
X165154Y-104359D01*
X165154Y-104454D01*
X165201Y-104597D01*
X165296Y-104692D01*
X165392Y-104740D01*
X165535Y-104740D01*
X165630Y-104692D01*
X165725Y-104597D01*
X165939Y-103740D02*
X165939Y-104740D01*
X165939Y-104216D02*
X166034Y-104121D01*
X166130Y-104073D01*
X166272Y-104073D01*
X166368Y-104121D01*
X166463Y-104216D01*
X166510Y-104359D01*
X166510Y-104454D01*
X166463Y-104597D01*
X166368Y-104692D01*
X166272Y-104740D01*
X166130Y-104740D01*
X166034Y-104692D01*
X165939Y-104597D01*
X166725Y-103740D02*
X166725Y-104740D01*
X166725Y-103740D02*
X167058Y-103740D01*
X167201Y-103788D01*
X167296Y-103883D01*
X167344Y-103978D01*
X167391Y-104121D01*
X167391Y-104359D01*
X167344Y-104502D01*
X167296Y-104597D01*
X167201Y-104692D01*
X167058Y-104740D01*
X166725Y-104740D01*
X167853Y-104073D02*
X167758Y-104121D01*
X167663Y-104216D01*
X167615Y-104359D01*
X167615Y-104454D01*
X167663Y-104597D01*
X167758Y-104692D01*
X167853Y-104740D01*
X167996Y-104740D01*
X168091Y-104692D01*
X168186Y-104597D01*
X168234Y-104454D01*
X168234Y-104359D01*
X168186Y-104216D01*
X168091Y-104121D01*
X167996Y-104073D01*
X167853Y-104073D01*
X169024Y-104216D02*
X168929Y-104121D01*
X168834Y-104073D01*
X168691Y-104073D01*
X168596Y-104121D01*
X168501Y-104216D01*
X168453Y-104359D01*
X168453Y-104454D01*
X168501Y-104597D01*
X168596Y-104692D01*
X168691Y-104740D01*
X168834Y-104740D01*
X168929Y-104692D01*
X169024Y-104597D01*
X146510Y-90442D02*
X147003Y-90442D01*
X147167Y-90388D01*
X147222Y-90333D01*
X147277Y-90223D01*
X147277Y-90059D01*
X147222Y-89950D01*
X147167Y-89895D01*
X147003Y-89840D01*
X146510Y-89840D01*
X146510Y-90990D01*
X148355Y-90114D02*
X148300Y-90004D01*
X148191Y-89895D01*
X148081Y-89840D01*
X147862Y-89840D01*
X147753Y-89895D01*
X147643Y-90004D01*
X147589Y-90114D01*
X147534Y-90278D01*
X147534Y-90552D01*
X147589Y-90716D01*
X147643Y-90826D01*
X147753Y-90935D01*
X147862Y-90990D01*
X148081Y-90990D01*
X148191Y-90935D01*
X148300Y-90826D01*
X148355Y-90716D01*
X148678Y-89840D02*
X148678Y-90990D01*
X148678Y-89840D02*
X149171Y-89840D01*
X149335Y-89895D01*
X149390Y-89950D01*
X149445Y-90059D01*
X149445Y-90169D01*
X149390Y-90278D01*
X149335Y-90333D01*
X149171Y-90388D01*
X148678Y-90388D02*
X149171Y-90388D01*
X149335Y-90442D01*
X149390Y-90497D01*
X149445Y-90607D01*
X149445Y-90771D01*
X149390Y-90880D01*
X149335Y-90935D01*
X149171Y-90990D01*
X148678Y-90990D01*
X150605Y-89840D02*
X150605Y-90990D01*
X151262Y-90990D01*
X152045Y-90223D02*
X152045Y-90990D01*
X152045Y-90388D02*
X151936Y-90278D01*
X151826Y-90223D01*
X151662Y-90223D01*
X151553Y-90278D01*
X151443Y-90388D01*
X151388Y-90552D01*
X151388Y-90661D01*
X151443Y-90826D01*
X151553Y-90935D01*
X151662Y-90990D01*
X151826Y-90990D01*
X151936Y-90935D01*
X152045Y-90826D01*
X152407Y-90223D02*
X152735Y-90990D01*
X153064Y-90223D02*
X152735Y-90990D01*
X152626Y-91209D01*
X152516Y-91318D01*
X152407Y-91373D01*
X152352Y-91373D01*
X153529Y-90223D02*
X153419Y-90278D01*
X153310Y-90388D01*
X153255Y-90552D01*
X153255Y-90661D01*
X153310Y-90826D01*
X153419Y-90935D01*
X153529Y-90990D01*
X153693Y-90990D01*
X153803Y-90935D01*
X153912Y-90826D01*
X153967Y-90661D01*
X153967Y-90552D01*
X153912Y-90388D01*
X153803Y-90278D01*
X153693Y-90223D01*
X153529Y-90223D01*
X154219Y-90223D02*
X154219Y-90771D01*
X154274Y-90935D01*
X154383Y-90990D01*
X154547Y-90990D01*
X154657Y-90935D01*
X154821Y-90771D01*
X154821Y-90223D02*
X154821Y-90990D01*
X155286Y-89840D02*
X155286Y-90771D01*
X155341Y-90935D01*
X155451Y-90990D01*
X155560Y-90990D01*
X155122Y-90223D02*
X155505Y-90223D01*
X157449Y-90114D02*
X157394Y-90004D01*
X157285Y-89895D01*
X157175Y-89840D01*
X156956Y-89840D01*
X156847Y-89895D01*
X156737Y-90004D01*
X156683Y-90114D01*
X156628Y-90278D01*
X156628Y-90552D01*
X156683Y-90716D01*
X156737Y-90826D01*
X156847Y-90935D01*
X156956Y-90990D01*
X157175Y-90990D01*
X157285Y-90935D01*
X157394Y-90826D01*
X157449Y-90716D01*
X158046Y-90223D02*
X157936Y-90278D01*
X157827Y-90388D01*
X157772Y-90552D01*
X157772Y-90661D01*
X157827Y-90826D01*
X157936Y-90935D01*
X158046Y-90990D01*
X158210Y-90990D01*
X158320Y-90935D01*
X158429Y-90826D01*
X158484Y-90661D01*
X158484Y-90552D01*
X158429Y-90388D01*
X158320Y-90278D01*
X158210Y-90223D01*
X158046Y-90223D01*
X158736Y-90223D02*
X158736Y-90990D01*
X158736Y-90442D02*
X158900Y-90278D01*
X159009Y-90223D01*
X159174Y-90223D01*
X159283Y-90278D01*
X159338Y-90442D01*
X159338Y-90990D01*
X159803Y-89840D02*
X159803Y-90771D01*
X159858Y-90935D01*
X159968Y-90990D01*
X160077Y-90990D01*
X159639Y-90223D02*
X160022Y-90223D01*
X160898Y-90223D02*
X160898Y-90990D01*
X160898Y-90388D02*
X160789Y-90278D01*
X160679Y-90223D01*
X160515Y-90223D01*
X160406Y-90278D01*
X160296Y-90388D01*
X160241Y-90552D01*
X160241Y-90661D01*
X160296Y-90826D01*
X160406Y-90935D01*
X160515Y-90990D01*
X160679Y-90990D01*
X160789Y-90935D01*
X160898Y-90826D01*
X161862Y-90388D02*
X161752Y-90278D01*
X161643Y-90223D01*
X161479Y-90223D01*
X161369Y-90278D01*
X161260Y-90388D01*
X161205Y-90552D01*
X161205Y-90661D01*
X161260Y-90826D01*
X161369Y-90935D01*
X161479Y-90990D01*
X161643Y-90990D01*
X161752Y-90935D01*
X161862Y-90826D01*
X162273Y-89840D02*
X162273Y-90771D01*
X162327Y-90935D01*
X162437Y-90990D01*
X162546Y-90990D01*
X162108Y-90223D02*
X162492Y-90223D01*
X162765Y-90223D02*
X162711Y-90278D01*
X162765Y-90333D01*
X162820Y-90278D01*
X162765Y-90223D01*
X162765Y-90880D02*
X162711Y-90935D01*
X162765Y-90990D01*
X162820Y-90935D01*
X162765Y-90880D01*
X146510Y-96442D02*
X147003Y-96442D01*
X147167Y-96388D01*
X147222Y-96333D01*
X147277Y-96223D01*
X147277Y-96059D01*
X147222Y-95950D01*
X147167Y-95895D01*
X147003Y-95840D01*
X146510Y-95840D01*
X146510Y-96990D01*
X147534Y-96223D02*
X147534Y-96990D01*
X147534Y-96552D02*
X147589Y-96388D01*
X147698Y-96278D01*
X147808Y-96223D01*
X147972Y-96223D01*
X148350Y-96223D02*
X148240Y-96278D01*
X148131Y-96388D01*
X148076Y-96552D01*
X148076Y-96661D01*
X148131Y-96826D01*
X148240Y-96935D01*
X148350Y-96990D01*
X148514Y-96990D01*
X148623Y-96935D01*
X148733Y-96826D01*
X148788Y-96661D01*
X148788Y-96552D01*
X148733Y-96388D01*
X148623Y-96278D01*
X148514Y-96223D01*
X148350Y-96223D01*
X149258Y-95840D02*
X149313Y-95895D01*
X149368Y-95840D01*
X149313Y-95785D01*
X149258Y-95840D01*
X149313Y-96223D02*
X149313Y-97154D01*
X149258Y-97318D01*
X149149Y-97373D01*
X149039Y-97373D01*
X149581Y-96552D02*
X150238Y-96552D01*
X150238Y-96442D01*
X150184Y-96333D01*
X150129Y-96278D01*
X150020Y-96223D01*
X149855Y-96223D01*
X149746Y-96278D01*
X149636Y-96388D01*
X149581Y-96552D01*
X149581Y-96661D01*
X149636Y-96826D01*
X149746Y-96935D01*
X149855Y-96990D01*
X150020Y-96990D01*
X150129Y-96935D01*
X150238Y-96826D01*
X151142Y-96388D02*
X151032Y-96278D01*
X150923Y-96223D01*
X150759Y-96223D01*
X150649Y-96278D01*
X150540Y-96388D01*
X150485Y-96552D01*
X150485Y-96661D01*
X150540Y-96826D01*
X150649Y-96935D01*
X150759Y-96990D01*
X150923Y-96990D01*
X151032Y-96935D01*
X151142Y-96826D01*
X151553Y-95840D02*
X151553Y-96771D01*
X151607Y-96935D01*
X151717Y-96990D01*
X151826Y-96990D01*
X151388Y-96223D02*
X151771Y-96223D01*
X153222Y-95840D02*
X153113Y-95895D01*
X153003Y-96004D01*
X152949Y-96114D01*
X152894Y-96278D01*
X152894Y-96552D01*
X152949Y-96716D01*
X153003Y-96826D01*
X153113Y-96935D01*
X153222Y-96990D01*
X153441Y-96990D01*
X153551Y-96935D01*
X153660Y-96826D01*
X153715Y-96716D01*
X153770Y-96552D01*
X153770Y-96278D01*
X153715Y-96114D01*
X153660Y-96004D01*
X153551Y-95895D01*
X153441Y-95840D01*
X153222Y-95840D01*
X154038Y-96223D02*
X154257Y-96990D01*
X154476Y-96223D02*
X154257Y-96990D01*
X154476Y-96223D02*
X154695Y-96990D01*
X154914Y-96223D02*
X154695Y-96990D01*
X155182Y-96223D02*
X155182Y-96990D01*
X155182Y-96442D02*
X155347Y-96278D01*
X155456Y-96223D01*
X155620Y-96223D01*
X155730Y-96278D01*
X155785Y-96442D01*
X155785Y-96990D01*
X156086Y-96552D02*
X156743Y-96552D01*
X156743Y-96442D01*
X156688Y-96333D01*
X156633Y-96278D01*
X156524Y-96223D01*
X156360Y-96223D01*
X156250Y-96278D01*
X156141Y-96388D01*
X156086Y-96552D01*
X156086Y-96661D01*
X156141Y-96826D01*
X156250Y-96935D01*
X156360Y-96990D01*
X156524Y-96990D01*
X156633Y-96935D01*
X156743Y-96826D01*
X156989Y-96223D02*
X156989Y-96990D01*
X156989Y-96552D02*
X157044Y-96388D01*
X157153Y-96278D01*
X157263Y-96223D01*
X157427Y-96223D01*
X157586Y-96223D02*
X157531Y-96278D01*
X157586Y-96333D01*
X157641Y-96278D01*
X157586Y-96223D01*
X157586Y-96880D02*
X157531Y-96935D01*
X157586Y-96990D01*
X157641Y-96935D01*
X157586Y-96880D01*
X174510Y-96442D02*
X175003Y-96442D01*
X175167Y-96388D01*
X175222Y-96333D01*
X175277Y-96223D01*
X175277Y-96059D01*
X175222Y-95950D01*
X175167Y-95895D01*
X175003Y-95840D01*
X174510Y-95840D01*
X174510Y-96990D01*
X176355Y-96114D02*
X176300Y-96004D01*
X176191Y-95895D01*
X176081Y-95840D01*
X175862Y-95840D01*
X175753Y-95895D01*
X175643Y-96004D01*
X175589Y-96114D01*
X175534Y-96278D01*
X175534Y-96552D01*
X175589Y-96716D01*
X175643Y-96826D01*
X175753Y-96935D01*
X175862Y-96990D01*
X176081Y-96990D01*
X176191Y-96935D01*
X176300Y-96826D01*
X176355Y-96716D01*
X176678Y-95840D02*
X176678Y-96990D01*
X176678Y-95840D02*
X177171Y-95840D01*
X177335Y-95895D01*
X177390Y-95950D01*
X177445Y-96059D01*
X177445Y-96169D01*
X177390Y-96278D01*
X177335Y-96333D01*
X177171Y-96388D01*
X176678Y-96388D02*
X177171Y-96388D01*
X177335Y-96442D01*
X177390Y-96497D01*
X177445Y-96607D01*
X177445Y-96771D01*
X177390Y-96880D01*
X177335Y-96935D01*
X177171Y-96990D01*
X176678Y-96990D01*
X178605Y-95840D02*
X178605Y-96990D01*
X178605Y-95840D02*
X179372Y-96990D01*
X179372Y-95840D02*
X179372Y-96990D01*
X179689Y-95840D02*
X179689Y-96661D01*
X179744Y-96826D01*
X179854Y-96935D01*
X180018Y-96990D01*
X180127Y-96990D01*
X180292Y-96935D01*
X180401Y-96826D01*
X180456Y-96661D01*
X180456Y-95840D01*
X180773Y-95840D02*
X180773Y-96990D01*
X180773Y-95840D02*
X181211Y-96990D01*
X181649Y-95840D02*
X181211Y-96990D01*
X181649Y-95840D02*
X181649Y-96990D01*
X181978Y-95840D02*
X181978Y-96990D01*
X181978Y-95840D02*
X182471Y-95840D01*
X182635Y-95895D01*
X182690Y-95950D01*
X182744Y-96059D01*
X182744Y-96169D01*
X182690Y-96278D01*
X182635Y-96333D01*
X182471Y-96388D01*
X181978Y-96388D02*
X182471Y-96388D01*
X182635Y-96442D01*
X182690Y-96497D01*
X182744Y-96607D01*
X182744Y-96771D01*
X182690Y-96880D01*
X182635Y-96935D01*
X182471Y-96990D01*
X181978Y-96990D01*
X183714Y-95840D02*
X183002Y-95840D01*
X183002Y-96990D01*
X183714Y-96990D01*
X183002Y-96388D02*
X183440Y-96388D01*
X183905Y-95840D02*
X183905Y-96990D01*
X183905Y-95840D02*
X184398Y-95840D01*
X184562Y-95895D01*
X184617Y-95950D01*
X184672Y-96059D01*
X184672Y-96169D01*
X184617Y-96278D01*
X184562Y-96333D01*
X184398Y-96388D01*
X183905Y-96388D01*
X184288Y-96388D02*
X184672Y-96990D01*
X184984Y-96223D02*
X184929Y-96278D01*
X184984Y-96333D01*
X185038Y-96278D01*
X184984Y-96223D01*
X184984Y-96880D02*
X184929Y-96935D01*
X184984Y-96990D01*
X185038Y-96935D01*
X184984Y-96880D01*
X175331Y-90114D02*
X175277Y-90004D01*
X175167Y-89895D01*
X175058Y-89840D01*
X174839Y-89840D01*
X174729Y-89895D01*
X174620Y-90004D01*
X174565Y-90114D01*
X174510Y-90278D01*
X174510Y-90552D01*
X174565Y-90716D01*
X174620Y-90826D01*
X174729Y-90935D01*
X174839Y-90990D01*
X175058Y-90990D01*
X175167Y-90935D01*
X175277Y-90826D01*
X175331Y-90716D01*
X175331Y-90552D01*
X175058Y-90552D02*
X175331Y-90552D01*
X176306Y-89840D02*
X175594Y-89840D01*
X175594Y-90990D01*
X176306Y-90990D01*
X175594Y-90388D02*
X176032Y-90388D01*
X176497Y-89840D02*
X176497Y-90990D01*
X176497Y-89840D02*
X176990Y-89840D01*
X177154Y-89895D01*
X177209Y-89950D01*
X177264Y-90059D01*
X177264Y-90169D01*
X177209Y-90278D01*
X177154Y-90333D01*
X176990Y-90388D01*
X176497Y-90388D01*
X176881Y-90388D02*
X177264Y-90990D01*
X177521Y-89840D02*
X177521Y-90990D01*
X177521Y-89840D02*
X178014Y-89840D01*
X178178Y-89895D01*
X178233Y-89950D01*
X178288Y-90059D01*
X178288Y-90169D01*
X178233Y-90278D01*
X178178Y-90333D01*
X178014Y-90388D01*
X177521Y-90388D02*
X178014Y-90388D01*
X178178Y-90442D01*
X178233Y-90497D01*
X178288Y-90607D01*
X178288Y-90771D01*
X178233Y-90880D01*
X178178Y-90935D01*
X178014Y-90990D01*
X177521Y-90990D01*
X179257Y-89840D02*
X178545Y-89840D01*
X178545Y-90990D01*
X179257Y-90990D01*
X178545Y-90388D02*
X178983Y-90388D01*
X179448Y-89840D02*
X179448Y-90990D01*
X179448Y-89840D02*
X179941Y-89840D01*
X180105Y-89895D01*
X180160Y-89950D01*
X180215Y-90059D01*
X180215Y-90169D01*
X180160Y-90278D01*
X180105Y-90333D01*
X179941Y-90388D01*
X179448Y-90388D01*
X179832Y-90388D02*
X180215Y-90990D01*
X181376Y-89840D02*
X181376Y-90990D01*
X181376Y-89840D02*
X182087Y-89840D01*
X181376Y-90388D02*
X181814Y-90388D01*
X182219Y-89840D02*
X182219Y-90990D01*
X182460Y-89840D02*
X182460Y-90990D01*
X183117Y-90990D01*
X183954Y-89840D02*
X183243Y-89840D01*
X183243Y-90990D01*
X183954Y-90990D01*
X183243Y-90388D02*
X183681Y-90388D01*
X184201Y-90223D02*
X184146Y-90278D01*
X184201Y-90333D01*
X184256Y-90278D01*
X184201Y-90223D01*
X184201Y-90880D02*
X184146Y-90935D01*
X184201Y-90990D01*
X184256Y-90935D01*
X184201Y-90880D01*
X213281Y-98847D02*
X213281Y-98776D01*
X213353Y-98633D01*
X213424Y-98562D01*
X213567Y-98490D01*
X213853Y-98490D01*
X213996Y-98562D01*
X214067Y-98633D01*
X214138Y-98776D01*
X214138Y-98919D01*
X214067Y-99062D01*
X213924Y-99276D01*
X213210Y-99990D01*
X214210Y-99990D01*
X214974Y-98490D02*
X214760Y-98562D01*
X214617Y-98776D01*
X214545Y-99133D01*
X214545Y-99347D01*
X214617Y-99704D01*
X214760Y-99919D01*
X214974Y-99990D01*
X215117Y-99990D01*
X215331Y-99919D01*
X215474Y-99704D01*
X215545Y-99347D01*
X215545Y-99133D01*
X215474Y-98776D01*
X215331Y-98562D01*
X215117Y-98490D01*
X214974Y-98490D01*
X215952Y-98847D02*
X215952Y-98776D01*
X216024Y-98633D01*
X216095Y-98562D01*
X216238Y-98490D01*
X216524Y-98490D01*
X216666Y-98562D01*
X216738Y-98633D01*
X216809Y-98776D01*
X216809Y-98919D01*
X216738Y-99062D01*
X216595Y-99276D01*
X215881Y-99990D01*
X216881Y-99990D01*
X218073Y-98490D02*
X217359Y-98490D01*
X217288Y-99133D01*
X217359Y-99062D01*
X217573Y-98990D01*
X217788Y-98990D01*
X218002Y-99062D01*
X218145Y-99204D01*
X218216Y-99419D01*
X218216Y-99562D01*
X218145Y-99776D01*
X218002Y-99919D01*
X217788Y-99990D01*
X217573Y-99990D01*
X217359Y-99919D01*
X217288Y-99847D01*
X217216Y-99704D01*
X218552Y-99347D02*
X219837Y-99347D01*
X220708Y-98490D02*
X220494Y-98562D01*
X220351Y-98776D01*
X220280Y-99133D01*
X220280Y-99347D01*
X220351Y-99704D01*
X220494Y-99919D01*
X220708Y-99990D01*
X220851Y-99990D01*
X221065Y-99919D01*
X221208Y-99704D01*
X221280Y-99347D01*
X221280Y-99133D01*
X221208Y-98776D01*
X221065Y-98562D01*
X220851Y-98490D01*
X220708Y-98490D01*
X222329Y-98490D02*
X221615Y-99490D01*
X222687Y-99490D01*
X222329Y-98490D02*
X222329Y-99990D01*
X222951Y-99347D02*
X224236Y-99347D01*
X224679Y-98776D02*
X224822Y-98705D01*
X225036Y-98490D01*
X225036Y-99990D01*
X226493Y-98490D02*
X225779Y-99490D01*
X226850Y-99490D01*
X226493Y-98490D02*
X226493Y-99990D01*
X198510Y-81514D02*
X198939Y-81514D01*
X199081Y-81466D01*
X199129Y-81419D01*
X199177Y-81323D01*
X199177Y-81181D01*
X199129Y-81085D01*
X199081Y-81038D01*
X198939Y-80990D01*
X198510Y-80990D01*
X198510Y-81990D01*
X200162Y-81990D02*
X199781Y-80990D01*
X199400Y-81990D01*
X199543Y-81657D02*
X200019Y-81657D01*
X200395Y-80990D02*
X200395Y-81990D01*
X200395Y-80990D02*
X200824Y-80990D01*
X200967Y-81038D01*
X201014Y-81085D01*
X201062Y-81181D01*
X201062Y-81276D01*
X201014Y-81371D01*
X200967Y-81419D01*
X200824Y-81466D01*
X200395Y-81466D01*
X200729Y-81466D02*
X201062Y-81990D01*
X201619Y-80990D02*
X201619Y-81990D01*
X201286Y-80990D02*
X201952Y-80990D01*
X202857Y-80990D02*
X202857Y-81990D01*
X202857Y-80990D02*
X203523Y-81990D01*
X203523Y-80990D02*
X203523Y-81990D01*
X203799Y-80990D02*
X203799Y-81704D01*
X203847Y-81847D01*
X203942Y-81942D01*
X204085Y-81990D01*
X204180Y-81990D01*
X204323Y-81942D01*
X204418Y-81847D01*
X204466Y-81704D01*
X204466Y-80990D01*
X204742Y-80990D02*
X204742Y-81990D01*
X204742Y-80990D02*
X205123Y-81990D01*
X205504Y-80990D02*
X205123Y-81990D01*
X205504Y-80990D02*
X205504Y-81990D01*
X205789Y-80990D02*
X205789Y-81990D01*
X205789Y-80990D02*
X206218Y-80990D01*
X206361Y-81038D01*
X206408Y-81085D01*
X206456Y-81181D01*
X206456Y-81276D01*
X206408Y-81371D01*
X206361Y-81419D01*
X206218Y-81466D01*
X205789Y-81466D02*
X206218Y-81466D01*
X206361Y-81514D01*
X206408Y-81561D01*
X206456Y-81657D01*
X206456Y-81800D01*
X206408Y-81895D01*
X206361Y-81942D01*
X206218Y-81990D01*
X205789Y-81990D01*
X207299Y-80990D02*
X206680Y-80990D01*
X206680Y-81990D01*
X207299Y-81990D01*
X206680Y-81466D02*
X207061Y-81466D01*
X207465Y-80990D02*
X207465Y-81990D01*
X207465Y-80990D02*
X207894Y-80990D01*
X208037Y-81038D01*
X208084Y-81085D01*
X208132Y-81181D01*
X208132Y-81276D01*
X208084Y-81371D01*
X208037Y-81419D01*
X207894Y-81466D01*
X207465Y-81466D01*
X207799Y-81466D02*
X208132Y-81990D01*
X208403Y-81323D02*
X208356Y-81371D01*
X208403Y-81419D01*
X208451Y-81371D01*
X208403Y-81323D01*
X208403Y-81895D02*
X208356Y-81942D01*
X208403Y-81990D01*
X208451Y-81942D01*
X208403Y-81895D01*
D19*
X204510Y-105410D02*
X204510Y-100990D01*
X173510Y-105410D02*
X173510Y-88990D01*
X191510Y-100990D02*
X191510Y-94990D01*
X212010Y-105410D02*
X212010Y-94990D01*
X111510Y-105410D02*
X111510Y-79990D01*
X145510Y-105410D02*
X145510Y-79990D01*
X227330Y-105410D02*
X227330Y-79990D01*
X111510Y-105410D02*
X227330Y-105410D01*
X145510Y-100990D02*
X227330Y-100990D01*
X145510Y-94990D02*
X227330Y-94990D01*
X145510Y-88990D02*
X227330Y-88990D01*
X111510Y-79990D02*
X227330Y-79990D01*
X77470Y-105410D02*
X113030Y-105410D01*
X-85090Y-110490D02*
X-85090Y-105410D01*
X-148590Y-50165D02*
X-143510Y-50165D01*
X-148590Y10160D02*
X-143510Y10160D01*
X-148590Y70485D02*
X-143510Y70485D01*
X-143510Y-105410D02*
X227330Y-105410D01*
X-143510Y-105410D02*
X-143510Y125730D01*
X-148590Y-110490D02*
X232410Y-110490D01*
X-148590Y-110490D02*
X-148590Y130810D01*
X227330Y-105410D02*
X227330Y-74930D01*
X-21590Y-110490D02*
X-21590Y-105410D01*
X41910Y-110490D02*
X41910Y-105410D01*
X105410Y-110490D02*
X105410Y-105410D01*
X168910Y-110490D02*
X168910Y-105410D01*
X227330Y-50165D02*
X232410Y-50165D01*
X227330Y10160D02*
X232410Y10160D01*
X227330Y70485D02*
X232410Y70485D01*
X232410Y-110490D02*
X232410Y130810D01*
X227330Y-105410D02*
X227330Y125730D01*
X-85090Y125730D02*
X-85090Y130810D01*
X-148590Y130810D02*
X232410Y130810D01*
X-143510Y125730D02*
X227330Y125730D01*
X-21590Y125730D02*
X-21590Y130810D01*
X41910Y125730D02*
X41910Y130810D01*
X105410Y125730D02*
X105410Y130810D01*
X168910Y125730D02*
X168910Y130810D01*
X174510Y-101347D02*
X174510Y-102490D01*
X175163Y-102490D01*
X176159Y-102490D02*
X175724Y-101347D01*
X175288Y-102490D01*
X175451Y-102109D02*
X175996Y-102109D01*
X176425Y-101347D02*
X176861Y-101891D01*
X176861Y-102490D01*
X177296Y-101347D02*
X176861Y-101891D01*
X178150Y-101347D02*
X177443Y-101347D01*
X177443Y-102490D01*
X178150Y-102490D01*
X177443Y-101891D02*
X177878Y-101891D01*
X178341Y-101347D02*
X178341Y-102490D01*
X178341Y-101347D02*
X178831Y-101347D01*
X178994Y-101402D01*
X179048Y-101456D01*
X179103Y-101565D01*
X179103Y-101674D01*
X179048Y-101783D01*
X178994Y-101837D01*
X178831Y-101891D01*
X178341Y-101891D01*
X178722Y-101891D02*
X179103Y-102490D01*
X180256Y-101347D02*
X180256Y-102490D01*
X180256Y-101347D02*
X181018Y-102490D01*
X181018Y-101347D02*
X181018Y-102490D01*
X182205Y-102490D02*
X181769Y-101347D01*
X181334Y-102490D01*
X181497Y-102109D02*
X182041Y-102109D01*
X182471Y-101347D02*
X182471Y-102490D01*
X182471Y-101347D02*
X182907Y-102490D01*
X183342Y-101347D02*
X182907Y-102490D01*
X183342Y-101347D02*
X183342Y-102490D01*
X184376Y-101347D02*
X183668Y-101347D01*
X183668Y-102490D01*
X184376Y-102490D01*
X183668Y-101891D02*
X184104Y-101891D01*
X184621Y-101728D02*
X184566Y-101783D01*
X184621Y-101837D01*
X184675Y-101783D01*
X184621Y-101728D01*
X184621Y-102381D02*
X184566Y-102436D01*
X184621Y-102490D01*
X184675Y-102436D01*
X184621Y-102381D01*
X205260Y-101597D02*
X205260Y-102740D01*
X205260Y-101597D02*
X205750Y-101597D01*
X205913Y-101652D01*
X205967Y-101706D01*
X206022Y-101815D01*
X206022Y-101924D01*
X205967Y-102033D01*
X205913Y-102087D01*
X205750Y-102141D01*
X205260Y-102141D01*
X205641Y-102141D02*
X206022Y-102740D01*
X206985Y-101597D02*
X206278Y-101597D01*
X206278Y-102740D01*
X206985Y-102740D01*
X206278Y-102141D02*
X206713Y-102141D01*
X207175Y-101597D02*
X207611Y-102740D01*
X208046Y-101597D02*
X207611Y-102740D01*
X208247Y-101978D02*
X208193Y-102033D01*
X208247Y-102087D01*
X208302Y-102033D01*
X208247Y-101978D01*
X208247Y-102631D02*
X208193Y-102686D01*
X208247Y-102740D01*
X208302Y-102686D01*
X208247Y-102631D01*
X213210Y-95847D02*
X213210Y-96990D01*
X213210Y-95847D02*
X213591Y-95847D01*
X213754Y-95902D01*
X213863Y-96010D01*
X213917Y-96119D01*
X213972Y-96283D01*
X213972Y-96555D01*
X213917Y-96718D01*
X213863Y-96827D01*
X213754Y-96936D01*
X213591Y-96990D01*
X213210Y-96990D01*
X215098Y-96990D02*
X214663Y-95847D01*
X214228Y-96990D01*
X214391Y-96609D02*
X214935Y-96609D01*
X215746Y-95847D02*
X215746Y-96990D01*
X215365Y-95847D02*
X216127Y-95847D01*
X216970Y-95847D02*
X216263Y-95847D01*
X216263Y-96990D01*
X216970Y-96990D01*
X216263Y-96391D02*
X216698Y-96391D01*
X217215Y-96228D02*
X217161Y-96283D01*
X217215Y-96337D01*
X217270Y-96283D01*
X217215Y-96228D01*
X217215Y-96881D02*
X217161Y-96936D01*
X217215Y-96990D01*
X217270Y-96936D01*
X217215Y-96881D01*
X146891Y-81347D02*
X146891Y-82490D01*
X146510Y-81347D02*
X147272Y-81347D01*
X147408Y-81347D02*
X147408Y-82490D01*
X148028Y-81347D02*
X148028Y-82490D01*
X147647Y-81347D02*
X148409Y-81347D01*
X148545Y-81347D02*
X148545Y-82490D01*
X149198Y-82490D01*
X150031Y-81347D02*
X149323Y-81347D01*
X149323Y-82490D01*
X150031Y-82490D01*
X149323Y-81891D02*
X149759Y-81891D01*
X150276Y-81728D02*
X150221Y-81783D01*
X150276Y-81837D01*
X150330Y-81783D01*
X150276Y-81728D01*
X150276Y-82381D02*
X150221Y-82436D01*
X150276Y-82490D01*
X150330Y-82436D01*
X150276Y-82381D01*
D20*
X45050Y27688D02*
X45050Y28500D01*
X43640Y27860D02*
X44495Y27860D01*
X44650Y28015D02*
X44650Y29600D01*
X43385Y28115D02*
X43640Y27860D01*
X43350Y28115D02*
X43385Y28115D01*
X44650Y29600D02*
X45050Y30000D01*
X44495Y27860D02*
X44650Y28015D01*
X147576Y-98619D02*
X147424Y-98466D01*
X147196Y-98390D01*
X146891Y-98390D01*
X146662Y-98466D01*
X146510Y-98619D01*
X146510Y-98771D01*
X146586Y-98924D01*
X146662Y-99000D01*
X146815Y-99076D01*
X147272Y-99228D01*
X147424Y-99304D01*
X147500Y-99381D01*
X147576Y-99533D01*
X147576Y-99761D01*
X147424Y-99914D01*
X147196Y-99990D01*
X146891Y-99990D01*
X146662Y-99914D01*
X146510Y-99761D01*
X147934Y-98390D02*
X147934Y-99990D01*
X148849Y-99990D01*
X149557Y-98390D02*
X149557Y-99990D01*
X149024Y-98390D02*
X150090Y-98390D01*
X174967Y-98390D02*
X174739Y-98466D01*
X174586Y-98695D01*
X174510Y-99076D01*
X174510Y-99304D01*
X174586Y-99685D01*
X174739Y-99914D01*
X174967Y-99990D01*
X175119Y-99990D01*
X175348Y-99914D01*
X175500Y-99685D01*
X175576Y-99304D01*
X175576Y-99076D01*
X175500Y-98695D01*
X175348Y-98466D01*
X175119Y-98390D01*
X174967Y-98390D01*
X176696Y-98390D02*
X175934Y-99457D01*
X177077Y-99457D01*
X176696Y-98390D02*
X176696Y-99990D01*
X177359Y-99304D02*
X178730Y-99304D01*
X179202Y-98695D02*
X179355Y-98619D01*
X179583Y-98390D01*
X179583Y-99990D01*
X180452Y-98771D02*
X180452Y-98695D01*
X180528Y-98543D01*
X180604Y-98466D01*
X180756Y-98390D01*
X181061Y-98390D01*
X181213Y-98466D01*
X181290Y-98543D01*
X181366Y-98695D01*
X181366Y-98847D01*
X181290Y-99000D01*
X181137Y-99228D01*
X180375Y-99990D01*
X181442Y-99990D01*
X181876Y-98771D02*
X181876Y-98695D01*
X181952Y-98543D01*
X182028Y-98466D01*
X182181Y-98390D01*
X182485Y-98390D01*
X182638Y-98466D01*
X182714Y-98543D01*
X182790Y-98695D01*
X182790Y-98847D01*
X182714Y-99000D01*
X182562Y-99228D01*
X181800Y-99990D01*
X182866Y-99990D01*
X184215Y-98924D02*
X184138Y-99152D01*
X183986Y-99304D01*
X183758Y-99381D01*
X183681Y-99381D01*
X183453Y-99304D01*
X183301Y-99152D01*
X183224Y-98924D01*
X183224Y-98847D01*
X183301Y-98619D01*
X183453Y-98466D01*
X183681Y-98390D01*
X183758Y-98390D01*
X183986Y-98466D01*
X184138Y-98619D01*
X184215Y-98924D01*
X184215Y-99304D01*
X184138Y-99685D01*
X183986Y-99914D01*
X183758Y-99990D01*
X183605Y-99990D01*
X183377Y-99914D01*
X183301Y-99761D01*
X184725Y-98771D02*
X184725Y-98695D01*
X184801Y-98543D01*
X184877Y-98466D01*
X185030Y-98390D01*
X185334Y-98390D01*
X185487Y-98466D01*
X185563Y-98543D01*
X185639Y-98695D01*
X185639Y-98847D01*
X185563Y-99000D01*
X185411Y-99228D01*
X184649Y-99990D01*
X185715Y-99990D01*
D21*
X146510Y-83991D02*
X146510Y-86490D01*
X146510Y-83991D02*
X147462Y-86490D01*
X148414Y-83991D02*
X147462Y-86490D01*
X148414Y-83991D02*
X148414Y-86490D01*
X149962Y-83991D02*
X149962Y-86490D01*
X149128Y-83991D02*
X150795Y-83991D01*
X152878Y-84586D02*
X152759Y-84348D01*
X152521Y-84110D01*
X152283Y-83991D01*
X151807Y-83991D01*
X151568Y-84110D01*
X151330Y-84348D01*
X151211Y-84586D01*
X151092Y-84943D01*
X151092Y-85538D01*
X151211Y-85895D01*
X151330Y-86133D01*
X151568Y-86371D01*
X151807Y-86490D01*
X152283Y-86490D01*
X152521Y-86371D01*
X152759Y-86133D01*
X152878Y-85895D01*
X153580Y-83991D02*
X153580Y-86490D01*
X155246Y-83991D02*
X155246Y-86490D01*
X153580Y-85181D02*
X155246Y-85181D01*
X157484Y-84824D02*
X157365Y-85181D01*
X157127Y-85419D01*
X156770Y-85538D01*
X156651Y-85538D01*
X156294Y-85419D01*
X156056Y-85181D01*
X155937Y-84824D01*
X155937Y-84705D01*
X156056Y-84348D01*
X156294Y-84110D01*
X156651Y-83991D01*
X156770Y-83991D01*
X157127Y-84110D01*
X157365Y-84348D01*
X157484Y-84824D01*
X157484Y-85419D01*
X157365Y-86014D01*
X157127Y-86371D01*
X156770Y-86490D01*
X156532Y-86490D01*
X156175Y-86371D01*
X156056Y-86133D01*
X158876Y-83991D02*
X158519Y-84110D01*
X158281Y-84467D01*
X158162Y-85062D01*
X158162Y-85419D01*
X158281Y-86014D01*
X158519Y-86371D01*
X158876Y-86490D01*
X159114Y-86490D01*
X159472Y-86371D01*
X159710Y-86014D01*
X159829Y-85419D01*
X159829Y-85062D01*
X159710Y-84467D01*
X159472Y-84110D01*
X159114Y-83991D01*
X158876Y-83991D01*
X160388Y-84467D02*
X160626Y-84348D01*
X160983Y-83991D01*
X160983Y-86490D01*
X162935Y-83991D02*
X162578Y-84110D01*
X162340Y-84467D01*
X162221Y-85062D01*
X162221Y-85419D01*
X162340Y-86014D01*
X162578Y-86371D01*
X162935Y-86490D01*
X163173Y-86490D01*
X163530Y-86371D01*
X163768Y-86014D01*
X163887Y-85419D01*
X163887Y-85062D01*
X163768Y-84467D01*
X163530Y-84110D01*
X163173Y-83991D01*
X162935Y-83991D01*
X167958Y-83991D02*
X166411Y-83991D01*
X166411Y-86490D01*
X167958Y-86490D01*
X166411Y-85181D02*
X167363Y-85181D01*
X168374Y-84824D02*
X169089Y-86490D01*
X169803Y-84824D02*
X169089Y-86490D01*
X171636Y-84824D02*
X171636Y-86490D01*
X171636Y-85181D02*
X171398Y-84943D01*
X171159Y-84824D01*
X170802Y-84824D01*
X170564Y-84943D01*
X170326Y-85181D01*
X170207Y-85538D01*
X170207Y-85776D01*
X170326Y-86133D01*
X170564Y-86371D01*
X170802Y-86490D01*
X171159Y-86490D01*
X171398Y-86371D01*
X171636Y-86133D01*
X172302Y-83991D02*
X172302Y-86490D01*
X172826Y-84824D02*
X172826Y-86014D01*
X172945Y-86371D01*
X173183Y-86490D01*
X173540Y-86490D01*
X173778Y-86371D01*
X174135Y-86014D01*
X174135Y-84824D02*
X174135Y-86490D01*
X176218Y-84824D02*
X176218Y-86490D01*
X176218Y-85181D02*
X175980Y-84943D01*
X175742Y-84824D01*
X175385Y-84824D01*
X175147Y-84943D01*
X174909Y-85181D01*
X174790Y-85538D01*
X174790Y-85776D01*
X174909Y-86133D01*
X175147Y-86371D01*
X175385Y-86490D01*
X175742Y-86490D01*
X175980Y-86371D01*
X176218Y-86133D01*
X177242Y-83991D02*
X177242Y-86014D01*
X177361Y-86371D01*
X177599Y-86490D01*
X177837Y-86490D01*
X176884Y-84824D02*
X177718Y-84824D01*
X178432Y-83991D02*
X178551Y-84110D01*
X178670Y-83991D01*
X178551Y-83871D01*
X178432Y-83991D01*
X178551Y-84824D02*
X178551Y-86490D01*
X179705Y-84824D02*
X179467Y-84943D01*
X179229Y-85181D01*
X179110Y-85538D01*
X179110Y-85776D01*
X179229Y-86133D01*
X179467Y-86371D01*
X179705Y-86490D01*
X180062Y-86490D01*
X180300Y-86371D01*
X180538Y-86133D01*
X180657Y-85776D01*
X180657Y-85538D01*
X180538Y-85181D01*
X180300Y-84943D01*
X180062Y-84824D01*
X179705Y-84824D01*
X181205Y-84824D02*
X181205Y-86490D01*
X181205Y-85300D02*
X181562Y-84943D01*
X181800Y-84824D01*
X182157Y-84824D01*
X182395Y-84943D01*
X182514Y-85300D01*
X182514Y-86490D01*
X185133Y-83991D02*
X185133Y-86490D01*
X186799Y-83991D02*
X185133Y-85657D01*
X185728Y-85062D02*
X186799Y-86490D01*
X187596Y-83991D02*
X187715Y-84110D01*
X187834Y-83991D01*
X187715Y-83871D01*
X187596Y-83991D01*
X187715Y-84824D02*
X187715Y-86490D01*
X188632Y-83991D02*
X188632Y-86014D01*
X188751Y-86371D01*
X188989Y-86490D01*
X189227Y-86490D01*
X188275Y-84824D02*
X189108Y-84824D01*
D26*
X27250Y45809D02*
D03*
X32750Y45809D02*
D03*
X32750Y41809D02*
D03*
X27250Y41809D02*
D03*
D27*
X5778Y19226D02*
D03*
X4178Y19226D02*
D03*
X4178Y21226D02*
D03*
X5778Y21226D02*
D03*
D28*
X46550Y29200D02*
D03*
X46550Y29600D02*
D03*
X46550Y30000D02*
D03*
X46550Y30400D02*
D03*
X46550Y30800D02*
D03*
X43550Y30800D02*
D03*
X43550Y30400D02*
D03*
X43550Y30000D02*
D03*
X43550Y29600D02*
D03*
X43550Y29200D02*
D03*
D29*
X45850Y31500D02*
D03*
X45450Y31500D02*
D03*
X45050Y31500D02*
D03*
X44650Y31500D02*
D03*
X44250Y31500D02*
D03*
X44250Y28500D02*
D03*
X44650Y28500D02*
D03*
X45050Y28500D02*
D03*
X45450Y28500D02*
D03*
X45850Y28500D02*
D03*
D30*
X45450Y33500D02*
D03*
X45450Y35400D02*
D03*
D31*
X6647Y14180D02*
D03*
X6647Y12180D02*
D03*
X6647Y11180D02*
D03*
X6647Y11680D02*
D03*
X6647Y10680D02*
D03*
X6647Y12680D02*
D03*
X6647Y13180D02*
D03*
X6647Y13680D02*
D03*
D32*
X6647Y15630D02*
D03*
X6647Y10030D02*
D03*
X6647Y9230D02*
D03*
X6647Y14830D02*
D03*
D33*
X44275Y16061D02*
D03*
X46175Y16061D02*
D03*
X44275Y14107D02*
D03*
X46175Y14107D02*
D03*
D52*
X45050Y30000D02*
D03*
D53*
X7575Y12176D02*
X7581Y12181D01*
X6665Y12162D02*
X7573Y12162D01*
X7581Y12154D01*
X6657Y12170D02*
X6665Y12162D01*
X6000Y11740D02*
X6587Y11740D01*
X6657Y11670D01*
X5734Y12006D02*
X6000Y11740D01*
X5734Y12006D02*
X5734Y12659D01*
X5739Y12664D01*
X6652Y12664D01*
X6657Y12670D01*
X7581Y12181D02*
X7581Y12834D01*
X7315Y13100D02*
X7581Y12834D01*
X6657Y13170D02*
X6727Y13100D01*
X7315Y13100D01*
D54*
X9800Y58970D02*
D03*
X9800Y56430D02*
D03*
X9800Y53890D02*
D03*
X9800Y43730D02*
D03*
X9800Y46270D02*
D03*
X9800Y51350D02*
D03*
X9800Y48810D02*
D03*
X50200Y43730D02*
D03*
X50200Y46270D02*
D03*
X50200Y16270D02*
D03*
X50200Y13730D02*
D03*
X10017Y27100D02*
D03*
X10017Y29640D02*
D03*
X10017Y24560D02*
D03*
X10017Y33530D02*
D03*
X10017Y36070D02*
D03*
D55*
X6082Y8110D02*
D03*
X6082Y16750D02*
D03*
D56*
X2082Y8110D02*
D03*
X2082Y16750D02*
D03*
D57*
X3500Y66500D02*
D03*
X56500Y66500D02*
D03*
X56500Y3500D02*
D03*
X3500Y3500D02*
D03*
D58*
X47750Y47750D02*
D03*
X50602Y51628D02*
D03*
X45111Y52227D02*
D03*
X50591Y56759D02*
D03*
X37000Y34250D02*
D03*
X38000Y34500D02*
D03*
X40750Y31748D02*
D03*
X7000Y44823D02*
D03*
X35713Y8532D02*
D03*
X7000Y52790D02*
D03*
X12250Y52540D02*
D03*
X46550Y27597D02*
D03*
X30010Y32490D02*
D03*
X10626Y15330D02*
D03*
X58066Y55435D02*
D03*
X58073Y57352D02*
D03*
X46150Y65648D02*
D03*
X34712Y65648D02*
D03*
X23275Y65648D02*
D03*
X11837Y65648D02*
D03*
X46750Y25250D02*
D03*
X47155Y28800D02*
D03*
X29956Y10953D02*
D03*
X9837Y62352D02*
D03*
X23120Y11608D02*
D03*
X36961Y11139D02*
D03*
X23325Y8943D02*
D03*
X45121Y9255D02*
D03*
X43510Y11113D02*
D03*
X43510Y14107D02*
D03*
X43458Y16009D02*
D03*
X23504Y6349D02*
D03*
X47300Y54595D02*
D03*
X20250Y56047D02*
D03*
X24537Y52289D02*
D03*
X26750Y52289D02*
D03*
X47545Y34634D02*
D03*
X48009Y33826D02*
D03*
X48575Y33233D02*
D03*
X15015Y8780D02*
D03*
X19235Y10690D02*
D03*
X26458Y4457D02*
D03*
X17100Y5925D02*
D03*
X19275Y7701D02*
D03*
X15800Y7757D02*
D03*
X24300Y6349D02*
D03*
X27662Y7818D02*
D03*
X26325Y8971D02*
D03*
X24300Y7860D02*
D03*
X23709Y7860D02*
D03*
X22358Y7700D02*
D03*
X44166Y62352D02*
D03*
X32729Y62500D02*
D03*
X21275Y62400D02*
D03*
X21200Y10661D02*
D03*
X23325Y13060D02*
D03*
X23121Y10775D02*
D03*
X23350Y12307D02*
D03*
X23325Y9834D02*
D03*
X19421Y18376D02*
D03*
X47727Y45292D02*
D03*
X41750Y50750D02*
D03*
X37512Y60132D02*
D03*
X35974Y60132D02*
D03*
X13632Y2318D02*
D03*
X19892Y22900D02*
D03*
X15650Y29793D02*
D03*
X12000Y32462D02*
D03*
X28996Y34774D02*
D03*
X31000Y35497D02*
D03*
X37156Y30632D02*
D03*
X28996Y37716D02*
D03*
X30000Y42879D02*
D03*
X41719Y31707D02*
D03*
X42924Y33705D02*
D03*
X50618Y55737D02*
D03*
X49591Y59888D02*
D03*
X54676Y51972D02*
D03*
X54676Y55700D02*
D03*
X51964Y54718D02*
D03*
X51978Y59789D02*
D03*
X54676Y57296D02*
D03*
X48782Y26800D02*
D03*
X48791Y23800D02*
D03*
X41750Y30729D02*
D03*
X42375Y32554D02*
D03*
X50600Y27487D02*
D03*
X46800Y23800D02*
D03*
X41851Y15150D02*
D03*
X47368Y18473D02*
D03*
X44950Y27487D02*
D03*
X43350Y28115D02*
D03*
X37156Y26700D02*
D03*
X11985Y34400D02*
D03*
X42375Y29400D02*
D03*
X42736Y28112D02*
D03*
X30000Y45800D02*
D03*
X43760Y34893D02*
D03*
X32002Y48509D02*
D03*
X11027Y57593D02*
D03*
X9177Y57593D02*
D03*
X16093Y11445D02*
D03*
X49936Y41309D02*
D03*
X52671Y45084D02*
D03*
X43510Y17600D02*
D03*
X43873Y22660D02*
D03*
X40727Y22660D02*
D03*
X40727Y26700D02*
D03*
X49591Y52871D02*
D03*
X54676Y60948D02*
D03*
X47463Y31028D02*
D03*
X43152Y38668D02*
D03*
X43387Y43469D02*
D03*
X34030Y56166D02*
D03*
X22554Y57729D02*
D03*
X13837Y42842D02*
D03*
X13852Y46394D02*
D03*
X12250Y50000D02*
D03*
X12250Y47671D02*
D03*
X7000Y42534D02*
D03*
X7000Y47671D02*
D03*
X7000Y50250D02*
D03*
X8617Y55000D02*
D03*
X9642Y17770D02*
D03*
X47368Y30100D02*
D03*
X34030Y58250D02*
D03*
X22554Y56166D02*
D03*
X41921Y56166D02*
D03*
X21675Y37679D02*
D03*
X24250Y42842D02*
D03*
X11985Y37829D02*
D03*
X12994Y14776D02*
D03*
X20250Y7857D02*
D03*
X7881Y10645D02*
D03*
X7881Y13925D02*
D03*
X4300Y10000D02*
D03*
X19450Y11902D02*
D03*
X16173Y12595D02*
D03*
X8127Y37829D02*
D03*
X15297Y20386D02*
D03*
X9451Y14330D02*
D03*
X19500Y13878D02*
D03*
X40758Y6857D02*
D03*
X37781Y18473D02*
D03*
X12298Y54890D02*
D03*
X36956Y9845D02*
D03*
X19500Y9220D02*
D03*
X20250Y10900D02*
D03*
X47987Y11113D02*
D03*
X52077Y15000D02*
D03*
X47300Y60132D02*
D03*
X26074Y60132D02*
D03*
X24537Y60132D02*
D03*
X14637Y60132D02*
D03*
X13099Y60132D02*
D03*
X15627Y22803D02*
D03*
X17575Y18279D02*
D03*
X11517Y18925D02*
D03*
X2926Y15504D02*
D03*
X2129Y11829D02*
D03*
X4100Y11574D02*
D03*
X7769Y6904D02*
D03*
X12837Y5571D02*
D03*
X32743Y23200D02*
D03*
X32743Y24500D02*
D03*
X40116Y3133D02*
D03*
X46364Y8557D02*
D03*
X8461Y11445D02*
D03*
X7581Y12154D02*
D03*
X5734Y12659D02*
D03*
X14591Y18300D02*
D03*
X14200Y22800D02*
D03*
D59*
X7855Y18010D02*
D03*
X7800Y18634D02*
D03*
X4383Y18050D02*
D03*
X13891Y18300D02*
D03*
X4469Y13170D02*
D03*
X2926Y11850D02*
D03*
X1773Y20759D02*
D03*
X2630Y21082D02*
D03*
X7800Y15620D02*
D03*
X7800Y9220D02*
D03*
M02*
