M48
;Layer_Color=9474304
;FILE_FORMAT=4:3
METRIC,TZ
;TYPE=PLATED
T01F00S00C0.200
T02F00S00C0.250
T04F00S00C1.020
T05F00S00C3.200
;TYPE=NON_PLATED
T06F00S00C0.800
T07F00S00C0.900
T08F00S00C1.200
T10F00S00C6.000
%
T01
X2926Y11850
X4469Y13170
X4383Y18050
X7855Y18010
X7800Y18634
X7800Y15620
X7800Y9220
X13891Y18300
X1773Y20759
X2630Y21082
T02
X2129Y11829
X4100Y11574
X4300Y10000
X5734Y12659
X7581Y12154
X8461Y11445
X7881Y10645
X7881Y13925
X9451Y14330
X10626Y15330
X12994Y14776
X14591Y18300
X15297Y20386
X17575Y18279
X19421Y18376
X19500Y13878
X19450Y11902
X19235Y10690
X20250Y10900
X21200Y10661
X19500Y9220
X19275Y7701
X20250Y7857
X22358Y7700
X15800Y7757
X15015Y8780
X16093Y11445
X16173Y12595
X17100Y5925
X12837Y5571
X13632Y2318
X7769Y6904
X9642Y17770
X11517Y18925
X2926Y15504
X23325Y13060
X23350Y12307
X23120Y11608
X23121Y10775
X23325Y9834
X23325Y8943
X23709Y7860
X24300Y7860
X24300Y6349
X23504Y6349
X26458Y4457
X27662Y7818
X26325Y8971
X29956Y10953
X36961Y11139
X36956Y9845
X35713Y8532
X40758Y6857
X40116Y3133
X45121Y9255
X46364Y8557
X47987Y11113
X43510Y11113
X43510Y14107
X43458Y16009
X43510Y17600
X41851Y15150
X37781Y18473
X47368Y18473
X52077Y15000
X48791Y23800
X46800Y23800
X46750Y25250
X46550Y27597
X44950Y27487
X43350Y28115
X42736Y28112
X42375Y29400
X41750Y30729
X41719Y31707
X40750Y31748
X42375Y32554
X42924Y33705
X43760Y34893
X47545Y34634
X48009Y33826
X48575Y33233
X47463Y31028
X47368Y30100
X47155Y28800
X48782Y26800
X50600Y27487
X40727Y26700
X37156Y26700
X37156Y30632
X37000Y34250
X38000Y34500
X31000Y35497
X28996Y34774
X28996Y37716
X30000Y42879
X30000Y45800
X32002Y48509
X26750Y52289
X24537Y52289
X24537Y60132
X26074Y60132
X34030Y58250
X34030Y56166
X35974Y60132
X37512Y60132
X41921Y56166
X41750Y50750
X45111Y52227
X47300Y54595
X49591Y52871
X50602Y51628
X50618Y55737
X50591Y56759
X51964Y54718
X54676Y55700
X54676Y57296
X58073Y57352
X58066Y55435
X54676Y51972
X52671Y45084
X47727Y45292
X47750Y47750
X49936Y41309
X43387Y43469
X43152Y38668
X43873Y22660
X40727Y22660
X32743Y23200
X32743Y24500
X30010Y32490
X24250Y42842
X47300Y60132
X49591Y59888
X51978Y59789
X22554Y57729
X22554Y56166
X20250Y56047
X12298Y54890
X12250Y52540
X12250Y50000
X12250Y47671
X13852Y46394
X13837Y42842
X11985Y37829
X11985Y34400
X12000Y32462
X15650Y29793
X15627Y22803
X14200Y22800
X19892Y22900
X21675Y37679
X8127Y37829
X7000Y42534
X7000Y44823
X7000Y47671
X7000Y50250
X7000Y52790
X8617Y55000
X9177Y57593
X11027Y57593
X13099Y60132
X14637Y60132
X9837Y62352
X11837Y65648
X21275Y62400
X23275Y65648
X34712Y65648
X32729Y62500
X44166Y62352
X46150Y65648
X54676Y60948
T04
X50200Y13730
X50200Y16270
X50200Y43730
X50200Y46270
X9800Y46270
X9800Y43730
X9800Y48810
X9800Y51350
X9800Y53890
X9800Y56430
X9800Y58970
X10017Y36070
X10017Y33530
X10017Y29640
X10017Y27100
X10017Y24560
T05
X3500Y3500
X56500Y3500
X3500Y66500
X56500Y66500
T06
X16159Y2193
X22459Y2193
X21125Y67800
X15987Y67800
X9687Y67800
X27425Y67800
X32562Y67800
X38862Y67800
X44000Y67800
X50300Y67800
T07
X37806Y3276
X42806Y3276
T08
X25300Y19403
X34700Y19403
T10
X30000Y19403
M30
