%TF.GenerationSoftware,Altium Limited,Altium Designer,23.0.1 (38)*%
G04 Layer_Physical_Order=2*
G04 Layer_Color=16711680*
%FSLAX45Y45*%
%MOMM*%
%TF.SameCoordinates,9A133E00-D3C7-422F-B50A-FBA9B3BD8817*%
%TF.FilePolarity,Positive*%
%TF.FileFunction,Copper,L2,Bot,Signal*%
%TF.Part,Single*%
G01*
G75*
%TA.AperFunction,Conductor*%
%ADD23C,0.38100*%
%TA.AperFunction,ViaPad*%
%ADD25C,0.60960*%
G36*
X9270168Y8169124D02*
X9284329Y8110136D01*
X9307544Y8054091D01*
X9339241Y8002367D01*
X9378638Y7956238D01*
X9424767Y7916841D01*
X9476491Y7885144D01*
X9532536Y7861929D01*
X9591524Y7847768D01*
X9615907Y7845849D01*
Y6886592D01*
X9585924Y6884232D01*
X9526936Y6870071D01*
X9470891Y6846856D01*
X9419167Y6815160D01*
X9373038Y6775762D01*
X9333641Y6729633D01*
X9301944Y6677909D01*
X9278729Y6621864D01*
X9264568Y6562877D01*
X9262649Y6538493D01*
X6335293D01*
Y8193507D01*
X9268249D01*
X9270168Y8169124D01*
D02*
G37*
%LPC*%
G36*
X9306407Y7645898D02*
X8676793D01*
X8674292Y7645400D01*
X8671741D01*
X8652112Y7641496D01*
X8649755Y7640519D01*
X8647254Y7640022D01*
X8628764Y7632363D01*
X8626643Y7630946D01*
X8624286Y7629970D01*
X8607646Y7618851D01*
X8605842Y7617047D01*
X8603721Y7615630D01*
X8589570Y7601479D01*
X8588152Y7599358D01*
X8586349Y7597554D01*
X8575230Y7580913D01*
X8574254Y7578557D01*
X8572837Y7576436D01*
X8565178Y7557946D01*
X8564680Y7555444D01*
X8563704Y7553088D01*
X8559800Y7533459D01*
Y7530908D01*
X8559302Y7528407D01*
Y7518400D01*
Y7061200D01*
X8560112Y7057128D01*
X8560631Y7053010D01*
X8564630Y7041015D01*
X8566626Y7037513D01*
X8568334Y7033864D01*
X8578639Y7019848D01*
X8572213Y7007148D01*
X8538246D01*
X8265447Y7279947D01*
X8250744Y7289771D01*
X8233401Y7293221D01*
X8199806D01*
X8197753Y7295273D01*
X8177215Y7303780D01*
X8154985D01*
X8134447Y7295273D01*
X8118727Y7279553D01*
X8110220Y7259015D01*
Y7236785D01*
X8118727Y7216246D01*
X8134447Y7200527D01*
X8154985Y7192020D01*
X8177215D01*
X8197753Y7200527D01*
X8199806Y7202579D01*
X8214628D01*
X8374186Y7043021D01*
X8368926Y7030321D01*
X7907706D01*
X7905653Y7032373D01*
X7885115Y7040880D01*
X7862885D01*
X7842347Y7032373D01*
X7826627Y7016653D01*
X7818120Y6996115D01*
Y6973885D01*
X7826627Y6953347D01*
X7842347Y6937627D01*
X7862885Y6929120D01*
X7885115D01*
X7905653Y6937627D01*
X7907706Y6939679D01*
X8363227D01*
X8436625Y6866281D01*
X8436626Y6866281D01*
X8451329Y6856456D01*
X8468673Y6853006D01*
X8468674Y6853007D01*
X8754310D01*
X8771654Y6856456D01*
X8786357Y6866281D01*
X8883946Y6963870D01*
X8883947Y6963871D01*
X8893771Y6978574D01*
X8897221Y6995917D01*
Y7078035D01*
X9209507D01*
X9219702Y7067839D01*
Y7061200D01*
X9220512Y7057130D01*
X9221031Y7053010D01*
X9225030Y7041016D01*
X9227025Y7037514D01*
X9228734Y7033864D01*
X9243713Y7013491D01*
X9246688Y7010772D01*
X9249435Y7007823D01*
X9269949Y6993037D01*
X9273616Y6991363D01*
X9277136Y6989401D01*
X9301200Y6981633D01*
X9305203Y6981167D01*
X9309156Y6980381D01*
X9334443Y6980380D01*
X9338397Y6981167D01*
X9342400Y6981633D01*
X9366464Y6989401D01*
X9369984Y6991364D01*
X9373651Y6993037D01*
X9394165Y7007823D01*
X9396911Y7010772D01*
X9399886Y7013491D01*
X9414866Y7033864D01*
X9416574Y7037514D01*
X9418570Y7041016D01*
X9422568Y7053010D01*
X9423088Y7057129D01*
X9423897Y7061200D01*
X9423898Y7518400D01*
Y7528407D01*
X9423400Y7530908D01*
Y7533459D01*
X9419496Y7553088D01*
X9418519Y7555445D01*
X9418022Y7557946D01*
X9410363Y7576436D01*
X9408946Y7578557D01*
X9407970Y7580913D01*
X9396851Y7597554D01*
X9395047Y7599358D01*
X9393630Y7601479D01*
X9379479Y7615630D01*
X9377358Y7617047D01*
X9375554Y7618851D01*
X9358913Y7629970D01*
X9356557Y7630946D01*
X9354436Y7632363D01*
X9335946Y7640022D01*
X9333444Y7640519D01*
X9331088Y7641496D01*
X9311459Y7645400D01*
X9308908D01*
X9306407Y7645898D01*
D02*
G37*
%LPD*%
D23*
X9009162Y7466894D02*
X9026751D01*
X9031125Y7462520D01*
X8826144Y7467600D02*
X9008456D01*
X9009162Y7466894D01*
X8786425Y7427881D02*
X8826144Y7467600D01*
X8786425Y7020245D02*
Y7427881D01*
X8233401Y7247900D02*
X8519473Y6961827D01*
X8166100Y7247900D02*
X8233401D01*
X7874000Y6985000D02*
X8382000D01*
X8468673Y6898327D02*
X8754310D01*
X8382000Y6985000D02*
X8468673Y6898327D01*
X8519473Y6961827D02*
X8728007D01*
X8851900Y7366000D02*
X8864600Y7378700D01*
X8851900Y6995917D02*
Y7366000D01*
X8728007Y6961827D02*
X8786425Y7020245D01*
X8754310Y6898327D02*
X8851900Y6995917D01*
D25*
X9031125Y7462520D02*
D03*
X7823200Y7899400D02*
D03*
X9169400Y6896100D02*
D03*
X9182100Y7010400D02*
D03*
X9067800Y6896100D02*
D03*
X8699500Y6654800D02*
D03*
X8343900Y7835900D02*
D03*
X8394700Y7708900D02*
D03*
X7747000Y7721600D02*
D03*
X7658100Y7708900D02*
D03*
X7569200Y7378700D02*
D03*
Y7480300D02*
D03*
Y7569200D02*
D03*
X8864600Y7378700D02*
D03*
X7874000Y6985000D02*
D03*
X8166100Y7247900D02*
D03*
%TF.MD5,94ca2b17f4463b3bb66fed9ac7aacb8f*%
M02*
