%TF.GenerationSoftware,Altium Limited,Altium Designer,23.0.1 (38)*%
G04 Layer_Color=128*
%FSLAX45Y45*%
%MOMM*%
%TF.SameCoordinates,9A133E00-D3C7-422F-B50A-FBA9B3BD8817*%
%TF.FilePolarity,Positive*%
%TF.FileFunction,Drillmap*%
%TF.Part,Single*%
G01*
G75*
%TA.AperFunction,NonConductor*%
%ADD29C,0.12700*%
D29*
X9015885Y7462520D02*
X9046365D01*
X9031125Y7447280D02*
Y7477760D01*
X7807960Y7899400D02*
X7838440D01*
X7823200Y7884160D02*
Y7914640D01*
X9154160Y6896100D02*
X9184640D01*
X9169400Y6880860D02*
Y6911340D01*
X9166860Y7010400D02*
X9197340D01*
X9182100Y6995160D02*
Y7025640D01*
X9052560Y6896100D02*
X9083040D01*
X9067800Y6880860D02*
Y6911340D01*
X8684260Y6654800D02*
X8714740D01*
X8699500Y6639560D02*
Y6670040D01*
X8328660Y7835900D02*
X8359140D01*
X8343900Y7820660D02*
Y7851140D01*
X8379460Y7708900D02*
X8409940D01*
X8394700Y7693660D02*
Y7724140D01*
X7731760Y7721600D02*
X7762240D01*
X7747000Y7706360D02*
Y7736840D01*
X7642860Y7708900D02*
X7673340D01*
X7658100Y7693660D02*
Y7724140D01*
X7553960Y7378700D02*
X7584440D01*
X7569200Y7363460D02*
Y7393940D01*
X7553960Y7480300D02*
X7584440D01*
X7569200Y7465060D02*
Y7495540D01*
X7553960Y7569200D02*
X7584440D01*
X7569200Y7553960D02*
Y7584440D01*
X8849360Y7378700D02*
X8879840D01*
X8864600Y7363460D02*
Y7393940D01*
X7858760Y6985000D02*
X7889240D01*
X7874000Y6969760D02*
Y7000240D01*
X8150860Y7247900D02*
X8181340D01*
X8166100Y7232660D02*
Y7263140D01*
%TF.MD5,76f6ed884af6e0844d86c3d7ff37a02f*%
M02*
