%TF.GenerationSoftware,Altium Limited,Altium Designer,23.0.1 (38)*%
G04 Layer_Color=65535*
%FSLAX45Y45*%
%MOMM*%
%TF.SameCoordinates,9A133E00-D3C7-422F-B50A-FBA9B3BD8817*%
%TF.FilePolarity,Positive*%
%TF.FileFunction,Legend,Top*%
%TF.Part,Single*%
G01*
G75*
%TA.AperFunction,NonConductor*%
%ADD26C,0.20000*%
%ADD27C,0.10000*%
%ADD28C,0.50000*%
%ADD29C,0.12700*%
%ADD30C,0.15240*%
G36*
X8899696Y7742545D02*
X8900636Y7742451D01*
X8901764Y7742357D01*
X8902986Y7742169D01*
X8904301Y7741981D01*
X8907215Y7741323D01*
X8908719Y7740853D01*
X8910128Y7740383D01*
X8911632Y7739725D01*
X8913042Y7738974D01*
X8914357Y7738128D01*
X8915579Y7737188D01*
X8915673Y7737094D01*
X8915861Y7736906D01*
X8916143Y7736624D01*
X8916613Y7736248D01*
X8917083Y7735684D01*
X8917647Y7735026D01*
X8918211Y7734275D01*
X8918774Y7733429D01*
X8919432Y7732395D01*
X8920090Y7731361D01*
X8920654Y7730139D01*
X8921218Y7728918D01*
X8921688Y7727508D01*
X8922064Y7726098D01*
X8922346Y7724501D01*
X8922534Y7722903D01*
X8909752Y7722339D01*
Y7722433D01*
Y7722527D01*
X8909658Y7723091D01*
X8909376Y7723937D01*
X8909094Y7724971D01*
X8908625Y7726098D01*
X8908061Y7727320D01*
X8907309Y7728448D01*
X8906275Y7729482D01*
X8906181Y7729576D01*
X8905711Y7729858D01*
X8905053Y7730327D01*
X8904114Y7730797D01*
X8902986Y7731173D01*
X8901482Y7731643D01*
X8899696Y7731925D01*
X8897723Y7732019D01*
X8896783D01*
X8895843Y7731925D01*
X8894622Y7731737D01*
X8893400Y7731549D01*
X8892084Y7731173D01*
X8890862Y7730703D01*
X8889829Y7730045D01*
X8889735Y7729952D01*
X8889453Y7729670D01*
X8889077Y7729294D01*
X8888701Y7728730D01*
X8888231Y7727978D01*
X8887855Y7727132D01*
X8887573Y7726098D01*
X8887479Y7725065D01*
Y7724971D01*
Y7724595D01*
X8887573Y7724125D01*
X8887761Y7723467D01*
X8888043Y7722715D01*
X8888419Y7721963D01*
X8888889Y7721211D01*
X8889641Y7720460D01*
X8889735Y7720366D01*
X8890110Y7720084D01*
X8890674Y7719708D01*
X8891614Y7719144D01*
X8892272Y7718768D01*
X8892930Y7718392D01*
X8893682Y7717922D01*
X8894622Y7717452D01*
X8895561Y7716982D01*
X8896689Y7716418D01*
X8897911Y7715855D01*
X8899227Y7715291D01*
X8899321Y7715197D01*
X8899696Y7715103D01*
X8900260Y7714821D01*
X8901012Y7714539D01*
X8901952Y7714069D01*
X8902986Y7713599D01*
X8905241Y7712471D01*
X8907685Y7711249D01*
X8910034Y7709934D01*
X8911162Y7709276D01*
X8912102Y7708618D01*
X8912948Y7707960D01*
X8913605Y7707396D01*
X8913699Y7707302D01*
X8913793Y7707208D01*
X8914075Y7706926D01*
X8914357Y7706644D01*
X8915109Y7705611D01*
X8915955Y7704295D01*
X8916801Y7702697D01*
X8917459Y7700724D01*
X8918023Y7698468D01*
X8918117Y7697340D01*
X8918211Y7696025D01*
Y7695931D01*
Y7695649D01*
Y7695179D01*
X8918117Y7694615D01*
X8918023Y7693863D01*
X8917835Y7692923D01*
X8917647Y7691984D01*
X8917365Y7690950D01*
X8916989Y7689822D01*
X8916519Y7688600D01*
X8915955Y7687379D01*
X8915297Y7686157D01*
X8914545Y7684935D01*
X8913605Y7683619D01*
X8912572Y7682492D01*
X8911350Y7681270D01*
X8911256Y7681176D01*
X8911068Y7680988D01*
X8910598Y7680706D01*
X8910128Y7680330D01*
X8909376Y7679860D01*
X8908531Y7679296D01*
X8907591Y7678826D01*
X8906369Y7678263D01*
X8905147Y7677605D01*
X8903738Y7677135D01*
X8902140Y7676571D01*
X8900448Y7676101D01*
X8898663Y7675725D01*
X8896689Y7675443D01*
X8894622Y7675255D01*
X8892366Y7675161D01*
X8890956D01*
X8890204Y7675255D01*
X8889359Y7675349D01*
X8888419D01*
X8887385Y7675537D01*
X8885130Y7675819D01*
X8882686Y7676289D01*
X8880149Y7676947D01*
X8877799Y7677887D01*
X8877705D01*
X8877517Y7677981D01*
X8877235Y7678169D01*
X8876765Y7678450D01*
X8875732Y7679014D01*
X8874416Y7679954D01*
X8873006Y7680988D01*
X8871596Y7682398D01*
X8870281Y7683901D01*
X8869153Y7685687D01*
Y7685781D01*
X8869059Y7685875D01*
X8868965Y7686157D01*
X8868777Y7686627D01*
X8868589Y7687097D01*
X8868401Y7687661D01*
X8867931Y7689070D01*
X8867461Y7690762D01*
X8867085Y7692735D01*
X8866897Y7694897D01*
X8866803Y7697246D01*
X8879585Y7697998D01*
Y7697904D01*
Y7697716D01*
Y7697434D01*
X8879679Y7697059D01*
X8879773Y7695931D01*
X8879961Y7694709D01*
X8880149Y7693299D01*
X8880525Y7691890D01*
X8880994Y7690668D01*
X8881652Y7689728D01*
X8881840Y7689540D01*
X8882216Y7689164D01*
X8882968Y7688694D01*
X8884096Y7688036D01*
X8884754Y7687754D01*
X8885599Y7687379D01*
X8886445Y7687097D01*
X8887479Y7686909D01*
X8888513Y7686627D01*
X8889735Y7686533D01*
X8891050Y7686345D01*
X8893494D01*
X8894058Y7686439D01*
X8894716D01*
X8896125Y7686627D01*
X8897629Y7686909D01*
X8899227Y7687379D01*
X8900730Y7687942D01*
X8901952Y7688694D01*
X8902046Y7688788D01*
X8902422Y7689070D01*
X8902892Y7689634D01*
X8903456Y7690292D01*
X8904020Y7691138D01*
X8904489Y7692078D01*
X8904865Y7693111D01*
X8904959Y7694333D01*
Y7694427D01*
Y7694803D01*
X8904865Y7695367D01*
X8904677Y7696025D01*
X8904395Y7696777D01*
X8903926Y7697622D01*
X8903362Y7698468D01*
X8902516Y7699220D01*
X8902422Y7699314D01*
X8902140Y7699502D01*
X8901576Y7699878D01*
X8900730Y7700348D01*
X8900166Y7700724D01*
X8899508Y7701100D01*
X8898757Y7701476D01*
X8897911Y7701852D01*
X8896877Y7702321D01*
X8895843Y7702885D01*
X8894528Y7703449D01*
X8893212Y7704013D01*
X8893118D01*
X8892836Y7704201D01*
X8892460Y7704295D01*
X8891990Y7704577D01*
X8891332Y7704859D01*
X8890580Y7705141D01*
X8888983Y7705893D01*
X8887197Y7706832D01*
X8885318Y7707678D01*
X8883626Y7708618D01*
X8882780Y7709088D01*
X8882122Y7709464D01*
X8881934Y7709558D01*
X8881558Y7709840D01*
X8880900Y7710404D01*
X8880149Y7711062D01*
X8879303Y7711813D01*
X8878363Y7712847D01*
X8877517Y7713975D01*
X8876671Y7715197D01*
X8876577Y7715385D01*
X8876389Y7715855D01*
X8876013Y7716606D01*
X8875732Y7717546D01*
X8875356Y7718768D01*
X8874980Y7720178D01*
X8874792Y7721775D01*
X8874698Y7723467D01*
Y7723561D01*
Y7723843D01*
Y7724313D01*
X8874792Y7724877D01*
X8874886Y7725534D01*
X8874980Y7726380D01*
X8875168Y7727320D01*
X8875450Y7728260D01*
X8876107Y7730421D01*
X8876671Y7731549D01*
X8877235Y7732771D01*
X8877893Y7733899D01*
X8878645Y7735026D01*
X8879585Y7736154D01*
X8880619Y7737188D01*
X8880712Y7737282D01*
X8880900Y7737470D01*
X8881276Y7737658D01*
X8881746Y7738034D01*
X8882310Y7738410D01*
X8883062Y7738880D01*
X8884002Y7739444D01*
X8885036Y7739913D01*
X8886163Y7740383D01*
X8887385Y7740947D01*
X8888795Y7741417D01*
X8890392Y7741793D01*
X8892084Y7742169D01*
X8893870Y7742451D01*
X8895749Y7742545D01*
X8897817Y7742639D01*
X8898945D01*
X8899696Y7742545D01*
D02*
G37*
G36*
X8966422D02*
X8967268Y7742451D01*
X8968302Y7742357D01*
X8969524Y7742169D01*
X8970745Y7741887D01*
X8973471Y7741229D01*
X8974880Y7740759D01*
X8976290Y7740195D01*
X8977794Y7739537D01*
X8979110Y7738786D01*
X8980519Y7737940D01*
X8981741Y7736906D01*
X8981835Y7736812D01*
X8982023Y7736624D01*
X8982305Y7736342D01*
X8982775Y7735872D01*
X8983245Y7735308D01*
X8983903Y7734651D01*
X8984466Y7733805D01*
X8985124Y7732865D01*
X8985782Y7731831D01*
X8986440Y7730703D01*
X8987098Y7729388D01*
X8987756Y7728072D01*
X8988320Y7726568D01*
X8988789Y7724971D01*
X8989165Y7723279D01*
X8989447Y7721493D01*
X8976666Y7720272D01*
Y7720366D01*
X8976572Y7720554D01*
Y7720835D01*
X8976478Y7721211D01*
X8976196Y7722151D01*
X8975726Y7723373D01*
X8975162Y7724783D01*
X8974411Y7726098D01*
X8973565Y7727414D01*
X8972531Y7728448D01*
X8972437Y7728542D01*
X8971967Y7728824D01*
X8971309Y7729294D01*
X8970369Y7729764D01*
X8969242Y7730233D01*
X8967832Y7730703D01*
X8966234Y7730985D01*
X8964449Y7731079D01*
X8963885D01*
X8963509Y7730985D01*
X8962475Y7730891D01*
X8961065Y7730609D01*
X8959468Y7730233D01*
X8957776Y7729576D01*
X8955896Y7728730D01*
X8954111Y7727602D01*
X8954017D01*
X8953923Y7727414D01*
X8953359Y7726944D01*
X8952419Y7726192D01*
X8951385Y7724971D01*
X8950164Y7723561D01*
X8948848Y7721681D01*
X8947532Y7719520D01*
X8946405Y7716982D01*
Y7716888D01*
X8946311Y7716700D01*
X8946123Y7716324D01*
X8945935Y7715761D01*
X8945747Y7715103D01*
X8945559Y7714351D01*
X8945277Y7713505D01*
X8944995Y7712565D01*
X8944525Y7710404D01*
X8944055Y7707960D01*
X8943679Y7705329D01*
X8943585Y7702697D01*
Y7702603D01*
Y7702321D01*
Y7701945D01*
X8943679Y7701382D01*
Y7700724D01*
X8943773Y7699972D01*
X8944055Y7698280D01*
X8944525Y7696307D01*
X8945089Y7694333D01*
X8946029Y7692360D01*
X8947250Y7690574D01*
X8947438Y7690386D01*
X8947908Y7689916D01*
X8948754Y7689258D01*
X8949788Y7688506D01*
X8951197Y7687661D01*
X8952795Y7687003D01*
X8954581Y7686533D01*
X8955521Y7686439D01*
X8956554Y7686345D01*
X8957024D01*
X8957400Y7686439D01*
X8958434Y7686533D01*
X8959656Y7686721D01*
X8961159Y7687191D01*
X8962757Y7687754D01*
X8964355Y7688506D01*
X8966046Y7689634D01*
X8966140D01*
X8966234Y7689822D01*
X8966798Y7690292D01*
X8967550Y7691044D01*
X8968490Y7692172D01*
X8969524Y7693581D01*
X8970651Y7695273D01*
X8971591Y7697340D01*
X8972531Y7699690D01*
X8986064Y7697622D01*
Y7697528D01*
X8985876Y7697152D01*
X8985688Y7696589D01*
X8985312Y7695837D01*
X8984842Y7694897D01*
X8984372Y7693863D01*
X8983809Y7692641D01*
X8983057Y7691420D01*
X8981365Y7688694D01*
X8979298Y7685969D01*
X8976948Y7683243D01*
X8975538Y7682022D01*
X8974129Y7680894D01*
X8974035Y7680800D01*
X8973753Y7680612D01*
X8973377Y7680330D01*
X8972719Y7680048D01*
X8971967Y7679578D01*
X8971121Y7679108D01*
X8969993Y7678544D01*
X8968866Y7678075D01*
X8967550Y7677511D01*
X8966140Y7676947D01*
X8964637Y7676477D01*
X8963039Y7676101D01*
X8961347Y7675725D01*
X8959562Y7675443D01*
X8957682Y7675255D01*
X8955709Y7675161D01*
X8955145D01*
X8954581Y7675255D01*
X8953735D01*
X8952701Y7675349D01*
X8951573Y7675537D01*
X8950258Y7675725D01*
X8948942Y7676101D01*
X8947438Y7676477D01*
X8945935Y7676947D01*
X8944337Y7677511D01*
X8942833Y7678169D01*
X8941236Y7679014D01*
X8939732Y7679954D01*
X8938322Y7681082D01*
X8937007Y7682304D01*
X8936913Y7682398D01*
X8936725Y7682680D01*
X8936349Y7683055D01*
X8935973Y7683619D01*
X8935503Y7684371D01*
X8934939Y7685311D01*
X8934281Y7686439D01*
X8933717Y7687661D01*
X8933059Y7689070D01*
X8932401Y7690574D01*
X8931838Y7692360D01*
X8931368Y7694239D01*
X8930992Y7696213D01*
X8930616Y7698468D01*
X8930428Y7700724D01*
X8930334Y7703261D01*
Y7703355D01*
Y7703731D01*
Y7704389D01*
X8930428Y7705141D01*
Y7706081D01*
X8930616Y7707302D01*
X8930710Y7708524D01*
X8930898Y7709934D01*
X8931086Y7711437D01*
X8931462Y7713129D01*
X8932214Y7716512D01*
X8933341Y7720084D01*
X8933999Y7721775D01*
X8934751Y7723561D01*
X8934845Y7723655D01*
X8934939Y7723937D01*
X8935221Y7724407D01*
X8935597Y7725065D01*
X8936067Y7725816D01*
X8936631Y7726756D01*
X8937288Y7727696D01*
X8938040Y7728824D01*
X8939826Y7731079D01*
X8941893Y7733429D01*
X8944431Y7735684D01*
X8945841Y7736718D01*
X8947250Y7737658D01*
X8947344Y7737752D01*
X8947626Y7737846D01*
X8948096Y7738128D01*
X8948660Y7738410D01*
X8949412Y7738786D01*
X8950258Y7739256D01*
X8951291Y7739725D01*
X8952419Y7740195D01*
X8953641Y7740571D01*
X8955051Y7741041D01*
X8957964Y7741887D01*
X8961159Y7742451D01*
X8962851Y7742545D01*
X8964637Y7742639D01*
X8965670D01*
X8966422Y7742545D01*
D02*
G37*
G36*
X9006928Y7687285D02*
X9040197D01*
X9037941Y7676383D01*
X8991327D01*
X9004954Y7741417D01*
X9018299D01*
X9006928Y7687285D01*
D02*
G37*
G36*
X8895561Y7844145D02*
X8896501Y7844051D01*
X8897629Y7843957D01*
X8898851Y7843769D01*
X8900166Y7843581D01*
X8903080Y7842923D01*
X8904583Y7842453D01*
X8905993Y7841983D01*
X8907497Y7841325D01*
X8908906Y7840574D01*
X8910222Y7839728D01*
X8911444Y7838788D01*
X8911538Y7838694D01*
X8911726Y7838506D01*
X8912008Y7838224D01*
X8912478Y7837848D01*
X8912948Y7837284D01*
X8913512Y7836626D01*
X8914075Y7835875D01*
X8914639Y7835029D01*
X8915297Y7833995D01*
X8915955Y7832961D01*
X8916519Y7831739D01*
X8917083Y7830518D01*
X8917553Y7829108D01*
X8917929Y7827698D01*
X8918211Y7826101D01*
X8918398Y7824503D01*
X8905617Y7823939D01*
Y7824033D01*
Y7824127D01*
X8905523Y7824691D01*
X8905241Y7825537D01*
X8904959Y7826571D01*
X8904489Y7827698D01*
X8903926Y7828920D01*
X8903174Y7830048D01*
X8902140Y7831082D01*
X8902046Y7831176D01*
X8901576Y7831458D01*
X8900918Y7831927D01*
X8899978Y7832397D01*
X8898851Y7832773D01*
X8897347Y7833243D01*
X8895561Y7833525D01*
X8893588Y7833619D01*
X8892648D01*
X8891708Y7833525D01*
X8890486Y7833337D01*
X8889265Y7833149D01*
X8887949Y7832773D01*
X8886727Y7832303D01*
X8885693Y7831645D01*
X8885599Y7831552D01*
X8885318Y7831270D01*
X8884942Y7830894D01*
X8884566Y7830330D01*
X8884096Y7829578D01*
X8883720Y7828732D01*
X8883438Y7827698D01*
X8883344Y7826665D01*
Y7826571D01*
Y7826195D01*
X8883438Y7825725D01*
X8883626Y7825067D01*
X8883908Y7824315D01*
X8884284Y7823563D01*
X8884754Y7822811D01*
X8885505Y7822060D01*
X8885599Y7821966D01*
X8885975Y7821684D01*
X8886539Y7821308D01*
X8887479Y7820744D01*
X8888137Y7820368D01*
X8888795Y7819992D01*
X8889547Y7819522D01*
X8890486Y7819052D01*
X8891426Y7818582D01*
X8892554Y7818018D01*
X8893776Y7817455D01*
X8895091Y7816891D01*
X8895185Y7816797D01*
X8895561Y7816703D01*
X8896125Y7816421D01*
X8896877Y7816139D01*
X8897817Y7815669D01*
X8898851Y7815199D01*
X8901106Y7814071D01*
X8903550Y7812850D01*
X8905899Y7811534D01*
X8907027Y7810876D01*
X8907967Y7810218D01*
X8908813Y7809560D01*
X8909470Y7808996D01*
X8909564Y7808902D01*
X8909658Y7808808D01*
X8909940Y7808526D01*
X8910222Y7808244D01*
X8910974Y7807211D01*
X8911820Y7805895D01*
X8912666Y7804297D01*
X8913324Y7802324D01*
X8913887Y7800068D01*
X8913981Y7798940D01*
X8914075Y7797625D01*
Y7797531D01*
Y7797249D01*
Y7796779D01*
X8913981Y7796215D01*
X8913887Y7795463D01*
X8913699Y7794523D01*
X8913512Y7793584D01*
X8913230Y7792550D01*
X8912854Y7791422D01*
X8912384Y7790200D01*
X8911820Y7788979D01*
X8911162Y7787757D01*
X8910410Y7786535D01*
X8909470Y7785219D01*
X8908437Y7784092D01*
X8907215Y7782870D01*
X8907121Y7782776D01*
X8906933Y7782588D01*
X8906463Y7782306D01*
X8905993Y7781930D01*
X8905241Y7781460D01*
X8904395Y7780896D01*
X8903456Y7780426D01*
X8902234Y7779863D01*
X8901012Y7779205D01*
X8899602Y7778735D01*
X8898005Y7778171D01*
X8896313Y7777701D01*
X8894528Y7777325D01*
X8892554Y7777043D01*
X8890486Y7776855D01*
X8888231Y7776761D01*
X8886821D01*
X8886069Y7776855D01*
X8885224Y7776949D01*
X8884284D01*
X8883250Y7777137D01*
X8880994Y7777419D01*
X8878551Y7777889D01*
X8876013Y7778547D01*
X8873664Y7779487D01*
X8873570D01*
X8873382Y7779581D01*
X8873100Y7779769D01*
X8872630Y7780050D01*
X8871596Y7780614D01*
X8870281Y7781554D01*
X8868871Y7782588D01*
X8867461Y7783998D01*
X8866146Y7785501D01*
X8865018Y7787287D01*
Y7787381D01*
X8864924Y7787475D01*
X8864830Y7787757D01*
X8864642Y7788227D01*
X8864454Y7788697D01*
X8864266Y7789261D01*
X8863796Y7790670D01*
X8863326Y7792362D01*
X8862950Y7794335D01*
X8862762Y7796497D01*
X8862668Y7798846D01*
X8875450Y7799598D01*
Y7799504D01*
Y7799316D01*
Y7799034D01*
X8875544Y7798659D01*
X8875638Y7797531D01*
X8875826Y7796309D01*
X8876013Y7794899D01*
X8876389Y7793490D01*
X8876859Y7792268D01*
X8877517Y7791328D01*
X8877705Y7791140D01*
X8878081Y7790764D01*
X8878833Y7790294D01*
X8879961Y7789636D01*
X8880619Y7789354D01*
X8881464Y7788979D01*
X8882310Y7788697D01*
X8883344Y7788509D01*
X8884378Y7788227D01*
X8885599Y7788133D01*
X8886915Y7787945D01*
X8889359D01*
X8889923Y7788039D01*
X8890580D01*
X8891990Y7788227D01*
X8893494Y7788509D01*
X8895091Y7788979D01*
X8896595Y7789542D01*
X8897817Y7790294D01*
X8897911Y7790388D01*
X8898287Y7790670D01*
X8898757Y7791234D01*
X8899321Y7791892D01*
X8899884Y7792738D01*
X8900354Y7793678D01*
X8900730Y7794711D01*
X8900824Y7795933D01*
Y7796027D01*
Y7796403D01*
X8900730Y7796967D01*
X8900542Y7797625D01*
X8900260Y7798377D01*
X8899790Y7799222D01*
X8899227Y7800068D01*
X8898381Y7800820D01*
X8898287Y7800914D01*
X8898005Y7801102D01*
X8897441Y7801478D01*
X8896595Y7801948D01*
X8896031Y7802324D01*
X8895373Y7802700D01*
X8894622Y7803076D01*
X8893776Y7803451D01*
X8892742Y7803921D01*
X8891708Y7804485D01*
X8890392Y7805049D01*
X8889077Y7805613D01*
X8888983D01*
X8888701Y7805801D01*
X8888325Y7805895D01*
X8887855Y7806177D01*
X8887197Y7806459D01*
X8886445Y7806741D01*
X8884848Y7807493D01*
X8883062Y7808432D01*
X8881182Y7809278D01*
X8879491Y7810218D01*
X8878645Y7810688D01*
X8877987Y7811064D01*
X8877799Y7811158D01*
X8877423Y7811440D01*
X8876765Y7812004D01*
X8876013Y7812662D01*
X8875168Y7813413D01*
X8874228Y7814447D01*
X8873382Y7815575D01*
X8872536Y7816797D01*
X8872442Y7816985D01*
X8872254Y7817455D01*
X8871878Y7818206D01*
X8871596Y7819146D01*
X8871221Y7820368D01*
X8870845Y7821778D01*
X8870657Y7823375D01*
X8870563Y7825067D01*
Y7825161D01*
Y7825443D01*
Y7825913D01*
X8870657Y7826477D01*
X8870751Y7827134D01*
X8870845Y7827980D01*
X8871033Y7828920D01*
X8871314Y7829860D01*
X8871972Y7832021D01*
X8872536Y7833149D01*
X8873100Y7834371D01*
X8873758Y7835499D01*
X8874510Y7836626D01*
X8875450Y7837754D01*
X8876483Y7838788D01*
X8876577Y7838882D01*
X8876765Y7839070D01*
X8877141Y7839258D01*
X8877611Y7839634D01*
X8878175Y7840010D01*
X8878927Y7840480D01*
X8879867Y7841043D01*
X8880900Y7841513D01*
X8882028Y7841983D01*
X8883250Y7842547D01*
X8884660Y7843017D01*
X8886257Y7843393D01*
X8887949Y7843769D01*
X8889735Y7844051D01*
X8891614Y7844145D01*
X8893682Y7844239D01*
X8894809D01*
X8895561Y7844145D01*
D02*
G37*
G36*
X9044332Y7777983D02*
X9031644D01*
X9029483Y7792362D01*
X9003732D01*
X8995932Y7777983D01*
X8982211D01*
X9018769Y7843017D01*
X9033900D01*
X9044332Y7777983D01*
D02*
G37*
G36*
X8958058Y7842923D02*
X8959656D01*
X8960971Y7842829D01*
X8961441D01*
X8961911Y7842735D01*
X8962099D01*
X8962569Y7842641D01*
X8963321Y7842547D01*
X8964355Y7842359D01*
X8965482Y7842171D01*
X8966704Y7841889D01*
X8969148Y7841043D01*
X8969336Y7840950D01*
X8969712Y7840856D01*
X8970275Y7840574D01*
X8971121Y7840198D01*
X8971967Y7839634D01*
X8973001Y7839070D01*
X8973941Y7838412D01*
X8974974Y7837566D01*
X8975068Y7837472D01*
X8975444Y7837190D01*
X8975914Y7836720D01*
X8976572Y7836063D01*
X8977230Y7835311D01*
X8977982Y7834371D01*
X8978734Y7833337D01*
X8979485Y7832209D01*
X8979579Y7832115D01*
X8979767Y7831645D01*
X8980143Y7830988D01*
X8980519Y7830142D01*
X8980989Y7829108D01*
X8981553Y7827886D01*
X8982023Y7826477D01*
X8982399Y7824973D01*
X8982493Y7824785D01*
X8982587Y7824221D01*
X8982775Y7823375D01*
X8982963Y7822341D01*
X8983151Y7821026D01*
X8983245Y7819428D01*
X8983433Y7817830D01*
Y7816045D01*
Y7815951D01*
Y7815575D01*
Y7815011D01*
X8983339Y7814259D01*
Y7813319D01*
X8983245Y7812286D01*
X8983057Y7811064D01*
X8982963Y7809748D01*
X8982681Y7808338D01*
X8982493Y7806835D01*
X8981741Y7803733D01*
X8980707Y7800538D01*
X8980143Y7798940D01*
X8979391Y7797343D01*
Y7797249D01*
X8979204Y7796967D01*
X8979016Y7796591D01*
X8978640Y7796027D01*
X8978264Y7795275D01*
X8977794Y7794523D01*
X8976572Y7792644D01*
X8975162Y7790576D01*
X8973377Y7788415D01*
X8971403Y7786347D01*
X8969242Y7784374D01*
X8969148D01*
X8969054Y7784186D01*
X8968772Y7783998D01*
X8968396Y7783810D01*
X8967926Y7783434D01*
X8967362Y7783152D01*
X8965952Y7782306D01*
X8964261Y7781460D01*
X8962193Y7780520D01*
X8959844Y7779675D01*
X8957212Y7778923D01*
X8957024D01*
X8956742Y7778829D01*
X8956460Y7778735D01*
X8955990D01*
X8955427Y7778641D01*
X8954769Y7778547D01*
X8954017Y7778453D01*
X8953171Y7778359D01*
X8952231Y7778265D01*
X8951197Y7778171D01*
X8949976D01*
X8948754Y7778077D01*
X8947344Y7777983D01*
X8921406D01*
X8935033Y7843017D01*
X8956460D01*
X8958058Y7842923D01*
D02*
G37*
G36*
X8907181Y7945745D02*
X8908120Y7945651D01*
X8909248Y7945557D01*
X8910470Y7945369D01*
X8911786Y7945181D01*
X8914699Y7944523D01*
X8917706Y7943583D01*
X8919210Y7943019D01*
X8920620Y7942362D01*
X8922029Y7941516D01*
X8923345Y7940576D01*
X8923439Y7940482D01*
X8923627Y7940294D01*
X8924003Y7940012D01*
X8924473Y7939636D01*
X8925037Y7939072D01*
X8925601Y7938414D01*
X8926352Y7937569D01*
X8927104Y7936723D01*
X8927856Y7935689D01*
X8928608Y7934561D01*
X8929360Y7933339D01*
X8930112Y7931930D01*
X8930770Y7930426D01*
X8931427Y7928828D01*
X8931991Y7927137D01*
X8932461Y7925351D01*
X8919962Y7923941D01*
Y7924035D01*
X8919868Y7924223D01*
X8919774Y7924505D01*
X8919680Y7924881D01*
X8919210Y7925821D01*
X8918646Y7927043D01*
X8917894Y7928359D01*
X8916954Y7929768D01*
X8915921Y7931084D01*
X8914605Y7932212D01*
X8914417Y7932306D01*
X8913947Y7932682D01*
X8913195Y7933152D01*
X8912068Y7933621D01*
X8910752Y7934185D01*
X8909154Y7934561D01*
X8907369Y7934937D01*
X8905395Y7935031D01*
X8904737D01*
X8904361Y7934937D01*
X8903703D01*
X8903045Y7934843D01*
X8901542Y7934561D01*
X8899662Y7934185D01*
X8897689Y7933527D01*
X8895621Y7932682D01*
X8893553Y7931554D01*
X8893459D01*
X8893365Y7931366D01*
X8893084Y7931178D01*
X8892708Y7930896D01*
X8891674Y7930144D01*
X8890452Y7929016D01*
X8889136Y7927513D01*
X8887727Y7925727D01*
X8886317Y7923566D01*
X8885095Y7921028D01*
Y7920934D01*
X8885001Y7920746D01*
X8884813Y7920370D01*
X8884625Y7919806D01*
X8884437Y7919149D01*
X8884155Y7918397D01*
X8883874Y7917457D01*
X8883592Y7916423D01*
X8883310Y7915389D01*
X8883028Y7914168D01*
X8882558Y7911536D01*
X8882182Y7908717D01*
X8882088Y7905615D01*
Y7905521D01*
Y7905239D01*
Y7904864D01*
X8882182Y7904300D01*
Y7903548D01*
X8882276Y7902796D01*
X8882558Y7901010D01*
X8883028Y7899037D01*
X8883592Y7896969D01*
X8884531Y7895090D01*
X8885095Y7894150D01*
X8885753Y7893398D01*
X8885941Y7893210D01*
X8886411Y7892834D01*
X8887351Y7892176D01*
X8888573Y7891518D01*
X8890076Y7890767D01*
X8891956Y7890109D01*
X8894211Y7889733D01*
X8896749Y7889545D01*
X8897501D01*
X8898346Y7889639D01*
X8899474Y7889733D01*
X8900790Y7889827D01*
X8902294Y7890109D01*
X8903891Y7890391D01*
X8905583Y7890767D01*
X8905677D01*
X8905771Y7890861D01*
X8906335Y7890954D01*
X8907181Y7891236D01*
X8908214Y7891612D01*
X8909436Y7891988D01*
X8910752Y7892552D01*
X8912068Y7893116D01*
X8913383Y7893680D01*
X8915451Y7903454D01*
X8898816D01*
X8901072Y7914356D01*
X8930112D01*
X8924285Y7886255D01*
X8924191D01*
X8924097Y7886068D01*
X8923721Y7885974D01*
X8923345Y7885692D01*
X8922875Y7885410D01*
X8922217Y7885128D01*
X8921559Y7884752D01*
X8920808Y7884282D01*
X8918928Y7883436D01*
X8916767Y7882496D01*
X8914323Y7881557D01*
X8911598Y7880617D01*
X8911504D01*
X8911222Y7880523D01*
X8910846Y7880429D01*
X8910282Y7880241D01*
X8909624Y7880053D01*
X8908872Y7879865D01*
X8907932Y7879677D01*
X8906899Y7879489D01*
X8904643Y7879113D01*
X8902012Y7878737D01*
X8899286Y7878455D01*
X8896373Y7878361D01*
X8895245D01*
X8894399Y7878455D01*
X8893365Y7878549D01*
X8892238Y7878643D01*
X8890922Y7878831D01*
X8889512Y7879019D01*
X8886599Y7879677D01*
X8885001Y7880147D01*
X8883498Y7880711D01*
X8881994Y7881275D01*
X8880490Y7882026D01*
X8879175Y7882872D01*
X8877859Y7883812D01*
X8877765Y7883906D01*
X8877483Y7884188D01*
X8877013Y7884564D01*
X8876543Y7885222D01*
X8875791Y7885974D01*
X8875133Y7886913D01*
X8874288Y7888041D01*
X8873536Y7889263D01*
X8872690Y7890767D01*
X8871844Y7892364D01*
X8871186Y7894150D01*
X8870528Y7896029D01*
X8869964Y7898191D01*
X8869495Y7900446D01*
X8869213Y7902890D01*
X8869119Y7905427D01*
Y7905521D01*
Y7905897D01*
Y7906367D01*
X8869213Y7907025D01*
Y7907965D01*
X8869307Y7908905D01*
X8869401Y7910032D01*
X8869589Y7911348D01*
X8869777Y7912664D01*
X8870058Y7914074D01*
X8870716Y7917175D01*
X8871656Y7920464D01*
X8872878Y7923754D01*
X8872972Y7923847D01*
X8873066Y7924223D01*
X8873348Y7924787D01*
X8873724Y7925445D01*
X8874194Y7926385D01*
X8874757Y7927325D01*
X8875415Y7928453D01*
X8876167Y7929674D01*
X8877013Y7930990D01*
X8877953Y7932306D01*
X8878987Y7933621D01*
X8880208Y7935031D01*
X8882746Y7937663D01*
X8884155Y7938884D01*
X8885659Y7940012D01*
X8885753Y7940106D01*
X8886035Y7940294D01*
X8886505Y7940576D01*
X8887163Y7940952D01*
X8887915Y7941328D01*
X8888948Y7941892D01*
X8889982Y7942362D01*
X8891298Y7942925D01*
X8892614Y7943489D01*
X8894117Y7943959D01*
X8895715Y7944523D01*
X8897501Y7944899D01*
X8899286Y7945275D01*
X8901260Y7945557D01*
X8903233Y7945745D01*
X8905301Y7945839D01*
X8906429D01*
X8907181Y7945745D01*
D02*
G37*
G36*
X8987345Y7879583D02*
X8975034D01*
X8957366Y7923284D01*
X8948156Y7879583D01*
X8935844D01*
X8949472Y7944617D01*
X8961783D01*
X8979451Y7901104D01*
X8988661Y7944617D01*
X9000973D01*
X8987345Y7879583D01*
D02*
G37*
G36*
X9037907Y7944523D02*
X9039504D01*
X9040820Y7944429D01*
X9041290D01*
X9041760Y7944335D01*
X9041948D01*
X9042418Y7944241D01*
X9043170Y7944147D01*
X9044203Y7943959D01*
X9045331Y7943771D01*
X9046553Y7943489D01*
X9048996Y7942643D01*
X9049184Y7942550D01*
X9049560Y7942456D01*
X9050124Y7942174D01*
X9050970Y7941798D01*
X9051816Y7941234D01*
X9052850Y7940670D01*
X9053789Y7940012D01*
X9054823Y7939166D01*
X9054917Y7939072D01*
X9055293Y7938790D01*
X9055763Y7938320D01*
X9056421Y7937663D01*
X9057079Y7936911D01*
X9057830Y7935971D01*
X9058582Y7934937D01*
X9059334Y7933809D01*
X9059428Y7933715D01*
X9059616Y7933245D01*
X9059992Y7932588D01*
X9060368Y7931742D01*
X9060838Y7930708D01*
X9061402Y7929486D01*
X9061872Y7928077D01*
X9062248Y7926573D01*
X9062342Y7926385D01*
X9062436Y7925821D01*
X9062623Y7924975D01*
X9062811Y7923941D01*
X9062999Y7922626D01*
X9063093Y7921028D01*
X9063281Y7919430D01*
Y7917645D01*
Y7917551D01*
Y7917175D01*
Y7916611D01*
X9063187Y7915859D01*
Y7914919D01*
X9063093Y7913886D01*
X9062905Y7912664D01*
X9062811Y7911348D01*
X9062529Y7909938D01*
X9062342Y7908435D01*
X9061590Y7905333D01*
X9060556Y7902138D01*
X9059992Y7900540D01*
X9059240Y7898943D01*
Y7898849D01*
X9059052Y7898567D01*
X9058864Y7898191D01*
X9058488Y7897627D01*
X9058112Y7896875D01*
X9057643Y7896123D01*
X9056421Y7894244D01*
X9055011Y7892176D01*
X9053225Y7890015D01*
X9051252Y7887947D01*
X9049090Y7885974D01*
X9048996D01*
X9048902Y7885786D01*
X9048620Y7885598D01*
X9048245Y7885410D01*
X9047775Y7885034D01*
X9047211Y7884752D01*
X9045801Y7883906D01*
X9044109Y7883060D01*
X9042042Y7882120D01*
X9039692Y7881275D01*
X9037061Y7880523D01*
X9036873D01*
X9036591Y7880429D01*
X9036309Y7880335D01*
X9035839D01*
X9035275Y7880241D01*
X9034617Y7880147D01*
X9033866Y7880053D01*
X9033020Y7879959D01*
X9032080Y7879865D01*
X9031046Y7879771D01*
X9029824D01*
X9028603Y7879677D01*
X9027193Y7879583D01*
X9001255D01*
X9014882Y7944617D01*
X9036309D01*
X9037907Y7944523D01*
D02*
G37*
G36*
X9001806Y7981794D02*
X8987615D01*
X8976055Y8046828D01*
X8989306D01*
X8997483Y7997676D01*
X9024455Y8046828D01*
X9037706D01*
X9001806Y7981794D01*
D02*
G37*
G36*
X8897676Y8019668D02*
X8914780D01*
Y8008014D01*
X8897676D01*
Y7991192D01*
X8886304D01*
Y8008014D01*
X8869294D01*
Y8019668D01*
X8886304D01*
Y8036490D01*
X8897676D01*
Y8019668D01*
D02*
G37*
G36*
X8965154Y8034329D02*
X8943444D01*
X8940531Y8024273D01*
X8940625D01*
X8940813Y8024461D01*
X8941189Y8024555D01*
X8941659Y8024743D01*
X8942880Y8025119D01*
X8944196Y8025494D01*
X8944290D01*
X8944478Y8025588D01*
X8944854Y8025682D01*
X8945418Y8025776D01*
X8946545Y8025870D01*
X8947955Y8025964D01*
X8948707D01*
X8949177Y8025870D01*
X8949835Y8025776D01*
X8950587Y8025682D01*
X8952278Y8025307D01*
X8954158Y8024743D01*
X8956225Y8023803D01*
X8957259Y8023239D01*
X8958293Y8022581D01*
X8959233Y8021829D01*
X8960173Y8020889D01*
X8960267Y8020795D01*
X8960361Y8020702D01*
X8960642Y8020420D01*
X8960924Y8019950D01*
X8961300Y8019480D01*
X8961676Y8018916D01*
X8962146Y8018164D01*
X8962616Y8017318D01*
X8963086Y8016472D01*
X8963556Y8015439D01*
X8963932Y8014311D01*
X8964308Y8013089D01*
X8964872Y8010458D01*
X8964966Y8008954D01*
X8965060Y8007450D01*
Y8007356D01*
Y8007168D01*
Y8006792D01*
X8964966Y8006323D01*
Y8005665D01*
X8964872Y8005007D01*
X8964778Y8004161D01*
X8964684Y8003221D01*
X8964214Y8001248D01*
X8963650Y7998992D01*
X8962804Y7996549D01*
X8961676Y7994105D01*
Y7994011D01*
X8961488Y7993823D01*
X8961300Y7993447D01*
X8961018Y7993071D01*
X8960736Y7992508D01*
X8960267Y7991850D01*
X8959233Y7990346D01*
X8957917Y7988748D01*
X8956319Y7987057D01*
X8954440Y7985459D01*
X8952278Y7984049D01*
X8952184D01*
X8951996Y7983861D01*
X8951714Y7983767D01*
X8951244Y7983485D01*
X8950681Y7983203D01*
X8950023Y7982922D01*
X8948519Y7982358D01*
X8946639Y7981700D01*
X8944572Y7981136D01*
X8942316Y7980760D01*
X8939873Y7980572D01*
X8939027D01*
X8938463Y7980666D01*
X8937805Y7980760D01*
X8936960Y7980854D01*
X8936020Y7981042D01*
X8934986Y7981230D01*
X8932824Y7981888D01*
X8930569Y7982828D01*
X8929441Y7983391D01*
X8928313Y7984143D01*
X8927186Y7984895D01*
X8926152Y7985835D01*
X8926058Y7985929D01*
X8925964Y7986117D01*
X8925682Y7986399D01*
X8925306Y7986775D01*
X8924930Y7987339D01*
X8924460Y7987996D01*
X8923990Y7988748D01*
X8923520Y7989688D01*
X8922956Y7990628D01*
X8922487Y7991662D01*
X8922017Y7992883D01*
X8921641Y7994199D01*
X8921265Y7995515D01*
X8920983Y7997019D01*
X8920889Y7998522D01*
X8920795Y8000214D01*
X8933200Y8001342D01*
Y8001154D01*
Y8000778D01*
X8933106Y8000308D01*
Y7999932D01*
Y7999838D01*
Y7999744D01*
Y7999180D01*
X8933200Y7998428D01*
X8933388Y7997394D01*
X8933576Y7996267D01*
X8933952Y7995139D01*
X8934422Y7994105D01*
X8935080Y7993165D01*
X8935174Y7993071D01*
X8935456Y7992789D01*
X8935926Y7992508D01*
X8936490Y7992132D01*
X8937241Y7991662D01*
X8938181Y7991380D01*
X8939215Y7991098D01*
X8940343Y7991004D01*
X8940531D01*
X8941095Y7991098D01*
X8942034Y7991192D01*
X8943068Y7991568D01*
X8944384Y7992038D01*
X8945794Y7992789D01*
X8947203Y7993917D01*
X8947955Y7994575D01*
X8948613Y7995327D01*
Y7995421D01*
X8948801Y7995515D01*
X8948989Y7995797D01*
X8949177Y7996173D01*
X8949459Y7996549D01*
X8949835Y7997113D01*
X8950493Y7998428D01*
X8951150Y8000120D01*
X8951808Y8002187D01*
X8952184Y8004631D01*
X8952372Y8007356D01*
Y8007450D01*
Y8007544D01*
Y8008108D01*
X8952278Y8008954D01*
X8952090Y8009894D01*
X8951808Y8011022D01*
X8951432Y8012149D01*
X8950963Y8013277D01*
X8950211Y8014217D01*
X8950117Y8014311D01*
X8949835Y8014593D01*
X8949365Y8014969D01*
X8948707Y8015439D01*
X8947955Y8015815D01*
X8947015Y8016190D01*
X8945888Y8016472D01*
X8944666Y8016566D01*
X8944196D01*
X8943726Y8016472D01*
X8943068Y8016378D01*
X8942316Y8016284D01*
X8941565Y8016096D01*
X8940625Y8015721D01*
X8939779Y8015345D01*
X8939685Y8015251D01*
X8939403Y8015157D01*
X8938933Y8014875D01*
X8938369Y8014499D01*
X8937711Y8014029D01*
X8936960Y8013371D01*
X8936208Y8012713D01*
X8935362Y8011867D01*
X8924930Y8012619D01*
X8934798Y8045982D01*
X8967597D01*
X8965154Y8034329D01*
D02*
G37*
G36*
X9070270Y8136352D02*
X9057583D01*
X9060026Y8147817D01*
X9072620D01*
X9070270Y8136352D01*
D02*
G37*
G36*
X8769346Y8148945D02*
X8770192Y8148851D01*
X8771226Y8148757D01*
X8772448Y8148569D01*
X8773669Y8148287D01*
X8776395Y8147629D01*
X8777804Y8147159D01*
X8779214Y8146595D01*
X8780718Y8145937D01*
X8782033Y8145186D01*
X8783443Y8144340D01*
X8784665Y8143306D01*
X8784759Y8143212D01*
X8784947Y8143024D01*
X8785229Y8142742D01*
X8785699Y8142272D01*
X8786169Y8141708D01*
X8786826Y8141051D01*
X8787390Y8140205D01*
X8788048Y8139265D01*
X8788706Y8138231D01*
X8789364Y8137103D01*
X8790022Y8135788D01*
X8790680Y8134472D01*
X8791244Y8132968D01*
X8791713Y8131371D01*
X8792089Y8129679D01*
X8792371Y8127893D01*
X8779590Y8126672D01*
Y8126766D01*
X8779496Y8126954D01*
Y8127235D01*
X8779402Y8127611D01*
X8779120Y8128551D01*
X8778650Y8129773D01*
X8778086Y8131183D01*
X8777334Y8132498D01*
X8776489Y8133814D01*
X8775455Y8134848D01*
X8775361Y8134942D01*
X8774891Y8135224D01*
X8774233Y8135694D01*
X8773293Y8136164D01*
X8772166Y8136633D01*
X8770756Y8137103D01*
X8769158Y8137385D01*
X8767373Y8137479D01*
X8766809D01*
X8766433Y8137385D01*
X8765399Y8137291D01*
X8763989Y8137009D01*
X8762392Y8136633D01*
X8760700Y8135976D01*
X8758820Y8135130D01*
X8757035Y8134002D01*
X8756941D01*
X8756847Y8133814D01*
X8756283Y8133344D01*
X8755343Y8132592D01*
X8754309Y8131371D01*
X8753088Y8129961D01*
X8751772Y8128081D01*
X8750456Y8125920D01*
X8749328Y8123382D01*
Y8123288D01*
X8749234Y8123100D01*
X8749047Y8122724D01*
X8748859Y8122161D01*
X8748671Y8121503D01*
X8748483Y8120751D01*
X8748201Y8119905D01*
X8747919Y8118965D01*
X8747449Y8116804D01*
X8746979Y8114360D01*
X8746603Y8111729D01*
X8746509Y8109097D01*
Y8109003D01*
Y8108721D01*
Y8108345D01*
X8746603Y8107782D01*
Y8107124D01*
X8746697Y8106372D01*
X8746979Y8104680D01*
X8747449Y8102707D01*
X8748013Y8100733D01*
X8748953Y8098760D01*
X8750174Y8096974D01*
X8750362Y8096786D01*
X8750832Y8096316D01*
X8751678Y8095658D01*
X8752712Y8094906D01*
X8754121Y8094061D01*
X8755719Y8093403D01*
X8757505Y8092933D01*
X8758445Y8092839D01*
X8759478Y8092745D01*
X8759948D01*
X8760324Y8092839D01*
X8761358Y8092933D01*
X8762580Y8093121D01*
X8764083Y8093591D01*
X8765681Y8094154D01*
X8767279Y8094906D01*
X8768970Y8096034D01*
X8769064D01*
X8769158Y8096222D01*
X8769722Y8096692D01*
X8770474Y8097444D01*
X8771414Y8098572D01*
X8772448Y8099981D01*
X8773575Y8101673D01*
X8774515Y8103740D01*
X8775455Y8106090D01*
X8788988Y8104022D01*
Y8103928D01*
X8788800Y8103553D01*
X8788612Y8102989D01*
X8788236Y8102237D01*
X8787766Y8101297D01*
X8787296Y8100263D01*
X8786732Y8099041D01*
X8785981Y8097820D01*
X8784289Y8095094D01*
X8782221Y8092369D01*
X8779872Y8089643D01*
X8778462Y8088422D01*
X8777053Y8087294D01*
X8776959Y8087200D01*
X8776677Y8087012D01*
X8776301Y8086730D01*
X8775643Y8086448D01*
X8774891Y8085978D01*
X8774045Y8085508D01*
X8772917Y8084944D01*
X8771790Y8084475D01*
X8770474Y8083911D01*
X8769064Y8083347D01*
X8767561Y8082877D01*
X8765963Y8082501D01*
X8764271Y8082125D01*
X8762486Y8081843D01*
X8760606Y8081655D01*
X8758632Y8081561D01*
X8758069D01*
X8757505Y8081655D01*
X8756659D01*
X8755625Y8081749D01*
X8754497Y8081937D01*
X8753182Y8082125D01*
X8751866Y8082501D01*
X8750362Y8082877D01*
X8748859Y8083347D01*
X8747261Y8083911D01*
X8745757Y8084569D01*
X8744160Y8085414D01*
X8742656Y8086354D01*
X8741246Y8087482D01*
X8739930Y8088704D01*
X8739836Y8088798D01*
X8739649Y8089080D01*
X8739273Y8089455D01*
X8738897Y8090019D01*
X8738427Y8090771D01*
X8737863Y8091711D01*
X8737205Y8092839D01*
X8736641Y8094061D01*
X8735983Y8095470D01*
X8735325Y8096974D01*
X8734762Y8098760D01*
X8734292Y8100639D01*
X8733916Y8102613D01*
X8733540Y8104868D01*
X8733352Y8107124D01*
X8733258Y8109661D01*
Y8109755D01*
Y8110131D01*
Y8110789D01*
X8733352Y8111541D01*
Y8112481D01*
X8733540Y8113702D01*
X8733634Y8114924D01*
X8733822Y8116334D01*
X8734010Y8117837D01*
X8734386Y8119529D01*
X8735137Y8122912D01*
X8736265Y8126484D01*
X8736923Y8128175D01*
X8737675Y8129961D01*
X8737769Y8130055D01*
X8737863Y8130337D01*
X8738145Y8130807D01*
X8738521Y8131465D01*
X8738991Y8132216D01*
X8739555Y8133156D01*
X8740212Y8134096D01*
X8740964Y8135224D01*
X8742750Y8137479D01*
X8744817Y8139829D01*
X8747355Y8142084D01*
X8748765Y8143118D01*
X8750174Y8144058D01*
X8750268Y8144152D01*
X8750550Y8144246D01*
X8751020Y8144528D01*
X8751584Y8144810D01*
X8752336Y8145186D01*
X8753182Y8145656D01*
X8754215Y8146125D01*
X8755343Y8146595D01*
X8756565Y8146971D01*
X8757975Y8147441D01*
X8760888Y8148287D01*
X8764083Y8148851D01*
X8765775Y8148945D01*
X8767561Y8149039D01*
X8768594D01*
X8769346Y8148945D01*
D02*
G37*
G36*
X9110400Y8130901D02*
X9111527Y8130807D01*
X9112843Y8130619D01*
X9114253Y8130149D01*
X9115850Y8129585D01*
X9117260Y8128739D01*
X9118670Y8127611D01*
X9118858Y8127423D01*
X9119234Y8127048D01*
X9119704Y8126296D01*
X9120361Y8125262D01*
X9121019Y8123946D01*
X9121489Y8122442D01*
X9121865Y8120751D01*
X9122053Y8118777D01*
Y8118683D01*
Y8118307D01*
X9121959Y8117649D01*
X9121771Y8116616D01*
X9121583Y8115394D01*
X9121301Y8113702D01*
X9121113Y8112763D01*
X9120925Y8111729D01*
X9120643Y8110601D01*
X9120361Y8109379D01*
X9114629Y8082783D01*
X9102035D01*
X9107768Y8109473D01*
Y8109567D01*
X9107862Y8109755D01*
Y8110037D01*
X9107956Y8110413D01*
X9108144Y8111447D01*
X9108426Y8112575D01*
X9108614Y8113796D01*
X9108802Y8115018D01*
X9108990Y8115958D01*
X9109084Y8116334D01*
Y8116616D01*
Y8116710D01*
Y8116992D01*
X9108990Y8117462D01*
X9108896Y8118025D01*
X9108708Y8118589D01*
X9108426Y8119247D01*
X9108050Y8119905D01*
X9107580Y8120469D01*
X9107486Y8120563D01*
X9107298Y8120657D01*
X9107016Y8120939D01*
X9106546Y8121221D01*
X9105983Y8121409D01*
X9105325Y8121691D01*
X9104479Y8121785D01*
X9103539Y8121879D01*
X9103069D01*
X9102505Y8121785D01*
X9101659Y8121597D01*
X9100720Y8121315D01*
X9099686Y8120845D01*
X9098558Y8120281D01*
X9097242Y8119529D01*
X9097054Y8119435D01*
X9096679Y8119059D01*
X9096021Y8118589D01*
X9095269Y8117837D01*
X9094423Y8116992D01*
X9093483Y8115958D01*
X9092637Y8114736D01*
X9091792Y8113326D01*
X9091698Y8113232D01*
X9091510Y8112763D01*
X9091228Y8112011D01*
X9091040Y8111447D01*
X9090852Y8110883D01*
X9090664Y8110131D01*
X9090382Y8109379D01*
X9090100Y8108439D01*
X9089818Y8107406D01*
X9089536Y8106278D01*
X9089160Y8104962D01*
X9088878Y8103553D01*
X9088502Y8102049D01*
X9084461Y8082783D01*
X9071868D01*
X9081736Y8129961D01*
X9093765D01*
X9092543Y8123758D01*
X9092637D01*
X9092731Y8123946D01*
X9093295Y8124416D01*
X9094235Y8125074D01*
X9095363Y8125920D01*
X9096679Y8126766D01*
X9098088Y8127705D01*
X9099592Y8128551D01*
X9101096Y8129303D01*
X9101284Y8129397D01*
X9101753Y8129585D01*
X9102599Y8129867D01*
X9103633Y8130149D01*
X9104855Y8130431D01*
X9106264Y8130713D01*
X9107862Y8130901D01*
X9109460Y8130995D01*
X9110024D01*
X9110400Y8130901D01*
D02*
G37*
G36*
X8943679D02*
X8944807Y8130807D01*
X8946123Y8130619D01*
X8947532Y8130149D01*
X8949130Y8129585D01*
X8950540Y8128739D01*
X8951949Y8127611D01*
X8952137Y8127423D01*
X8952513Y8127048D01*
X8952983Y8126296D01*
X8953641Y8125262D01*
X8954299Y8123946D01*
X8954769Y8122442D01*
X8955145Y8120751D01*
X8955333Y8118777D01*
Y8118683D01*
Y8118307D01*
X8955239Y8117649D01*
X8955051Y8116616D01*
X8954863Y8115394D01*
X8954581Y8113702D01*
X8954393Y8112763D01*
X8954205Y8111729D01*
X8953923Y8110601D01*
X8953641Y8109379D01*
X8947908Y8082783D01*
X8935315D01*
X8941048Y8109473D01*
Y8109567D01*
X8941142Y8109755D01*
Y8110037D01*
X8941236Y8110413D01*
X8941424Y8111447D01*
X8941706Y8112575D01*
X8941893Y8113796D01*
X8942081Y8115018D01*
X8942269Y8115958D01*
X8942363Y8116334D01*
Y8116616D01*
Y8116710D01*
Y8116992D01*
X8942269Y8117462D01*
X8942175Y8118025D01*
X8941987Y8118589D01*
X8941706Y8119247D01*
X8941330Y8119905D01*
X8940860Y8120469D01*
X8940766Y8120563D01*
X8940578Y8120657D01*
X8940296Y8120939D01*
X8939826Y8121221D01*
X8939262Y8121409D01*
X8938604Y8121691D01*
X8937758Y8121785D01*
X8936819Y8121879D01*
X8936349D01*
X8935785Y8121785D01*
X8934939Y8121597D01*
X8933999Y8121315D01*
X8932965Y8120845D01*
X8931838Y8120281D01*
X8930522Y8119529D01*
X8930334Y8119435D01*
X8929958Y8119059D01*
X8929300Y8118589D01*
X8928548Y8117837D01*
X8927702Y8116992D01*
X8926763Y8115958D01*
X8925917Y8114736D01*
X8925071Y8113326D01*
X8924977Y8113232D01*
X8924789Y8112763D01*
X8924507Y8112011D01*
X8924319Y8111447D01*
X8924131Y8110883D01*
X8923943Y8110131D01*
X8923661Y8109379D01*
X8923379Y8108439D01*
X8923097Y8107406D01*
X8922816Y8106278D01*
X8922440Y8104962D01*
X8922158Y8103553D01*
X8921782Y8102049D01*
X8917741Y8082783D01*
X8905147D01*
X8915015Y8129961D01*
X8927045D01*
X8925823Y8123758D01*
X8925917D01*
X8926011Y8123946D01*
X8926575Y8124416D01*
X8927515Y8125074D01*
X8928642Y8125920D01*
X8929958Y8126766D01*
X8931368Y8127705D01*
X8932871Y8128551D01*
X8934375Y8129303D01*
X8934563Y8129397D01*
X8935033Y8129585D01*
X8935879Y8129867D01*
X8936913Y8130149D01*
X8938134Y8130431D01*
X8939544Y8130713D01*
X8941142Y8130901D01*
X8942739Y8130995D01*
X8943303D01*
X8943679Y8130901D01*
D02*
G37*
G36*
X8888137D02*
X8889265Y8130807D01*
X8890580Y8130619D01*
X8891990Y8130149D01*
X8893588Y8129585D01*
X8894997Y8128739D01*
X8896407Y8127611D01*
X8896595Y8127423D01*
X8896971Y8127048D01*
X8897441Y8126296D01*
X8898099Y8125262D01*
X8898757Y8123946D01*
X8899227Y8122442D01*
X8899602Y8120751D01*
X8899790Y8118777D01*
Y8118683D01*
Y8118307D01*
X8899696Y8117649D01*
X8899508Y8116616D01*
X8899321Y8115394D01*
X8899039Y8113702D01*
X8898851Y8112763D01*
X8898663Y8111729D01*
X8898381Y8110601D01*
X8898099Y8109379D01*
X8892366Y8082783D01*
X8879773D01*
X8885505Y8109473D01*
Y8109567D01*
X8885599Y8109755D01*
Y8110037D01*
X8885693Y8110413D01*
X8885881Y8111447D01*
X8886163Y8112575D01*
X8886351Y8113796D01*
X8886539Y8115018D01*
X8886727Y8115958D01*
X8886821Y8116334D01*
Y8116616D01*
Y8116710D01*
Y8116992D01*
X8886727Y8117462D01*
X8886633Y8118025D01*
X8886445Y8118589D01*
X8886163Y8119247D01*
X8885787Y8119905D01*
X8885318Y8120469D01*
X8885224Y8120563D01*
X8885036Y8120657D01*
X8884754Y8120939D01*
X8884284Y8121221D01*
X8883720Y8121409D01*
X8883062Y8121691D01*
X8882216Y8121785D01*
X8881276Y8121879D01*
X8880806D01*
X8880243Y8121785D01*
X8879397Y8121597D01*
X8878457Y8121315D01*
X8877423Y8120845D01*
X8876295Y8120281D01*
X8874980Y8119529D01*
X8874792Y8119435D01*
X8874416Y8119059D01*
X8873758Y8118589D01*
X8873006Y8117837D01*
X8872160Y8116992D01*
X8871221Y8115958D01*
X8870375Y8114736D01*
X8869529Y8113326D01*
X8869435Y8113232D01*
X8869247Y8112763D01*
X8868965Y8112011D01*
X8868777Y8111447D01*
X8868589Y8110883D01*
X8868401Y8110131D01*
X8868119Y8109379D01*
X8867837Y8108439D01*
X8867555Y8107406D01*
X8867273Y8106278D01*
X8866897Y8104962D01*
X8866615Y8103553D01*
X8866240Y8102049D01*
X8862198Y8082783D01*
X8849605D01*
X8859473Y8129961D01*
X8871502D01*
X8870281Y8123758D01*
X8870375D01*
X8870469Y8123946D01*
X8871033Y8124416D01*
X8871972Y8125074D01*
X8873100Y8125920D01*
X8874416Y8126766D01*
X8875826Y8127705D01*
X8877329Y8128551D01*
X8878833Y8129303D01*
X8879021Y8129397D01*
X8879491Y8129585D01*
X8880337Y8129867D01*
X8881370Y8130149D01*
X8882592Y8130431D01*
X8884002Y8130713D01*
X8885599Y8130901D01*
X8887197Y8130995D01*
X8887761D01*
X8888137Y8130901D01*
D02*
G37*
G36*
X9155510D02*
X9156262D01*
X9157108Y8130807D01*
X9159175Y8130619D01*
X9161337Y8130149D01*
X9163686Y8129585D01*
X9165848Y8128739D01*
X9166788Y8128175D01*
X9167727Y8127611D01*
X9167821D01*
X9167915Y8127423D01*
X9168479Y8127048D01*
X9169325Y8126296D01*
X9170265Y8125262D01*
X9171299Y8123946D01*
X9172238Y8122442D01*
X9173084Y8120657D01*
X9173742Y8118589D01*
X9161995Y8116616D01*
Y8116710D01*
X9161807Y8116992D01*
X9161619Y8117462D01*
X9161243Y8118025D01*
X9160867Y8118683D01*
X9160303Y8119247D01*
X9159645Y8119905D01*
X9158893Y8120375D01*
X9158799Y8120469D01*
X9158423Y8120657D01*
X9157766Y8120939D01*
X9157014Y8121315D01*
X9155980Y8121597D01*
X9154852Y8121879D01*
X9153536Y8122067D01*
X9152033Y8122161D01*
X9151375D01*
X9150623Y8122067D01*
X9149777Y8121973D01*
X9148837Y8121785D01*
X9147898Y8121597D01*
X9146958Y8121221D01*
X9146206Y8120751D01*
X9146112Y8120657D01*
X9145924Y8120563D01*
X9145642Y8120281D01*
X9145360Y8119905D01*
X9144796Y8118965D01*
X9144608Y8118401D01*
X9144514Y8117743D01*
Y8117649D01*
Y8117462D01*
X9144608Y8117086D01*
X9144702Y8116710D01*
X9144890Y8116240D01*
X9145266Y8115770D01*
X9145642Y8115300D01*
X9146206Y8114830D01*
X9146300D01*
X9146488Y8114642D01*
X9146864Y8114454D01*
X9147522Y8114266D01*
X9148462Y8113890D01*
X9149025Y8113702D01*
X9149777Y8113420D01*
X9150529Y8113232D01*
X9151375Y8112950D01*
X9152315Y8112575D01*
X9153442Y8112293D01*
X9153536D01*
X9153818Y8112199D01*
X9154288Y8112011D01*
X9154946Y8111823D01*
X9155698Y8111541D01*
X9156544Y8111259D01*
X9158517Y8110601D01*
X9160585Y8109849D01*
X9162652Y8108909D01*
X9163592Y8108439D01*
X9164532Y8107970D01*
X9165284Y8107500D01*
X9165942Y8107030D01*
X9166036D01*
X9166130Y8106842D01*
X9166694Y8106372D01*
X9167351Y8105526D01*
X9168197Y8104492D01*
X9169043Y8103177D01*
X9169795Y8101673D01*
X9170265Y8099981D01*
X9170359Y8099041D01*
X9170453Y8098102D01*
Y8098008D01*
Y8097820D01*
Y8097444D01*
X9170359Y8096974D01*
X9170265Y8096410D01*
X9170171Y8095752D01*
X9169701Y8094154D01*
X9169043Y8092369D01*
X9168573Y8091335D01*
X9168009Y8090395D01*
X9167351Y8089362D01*
X9166600Y8088422D01*
X9165754Y8087388D01*
X9164720Y8086448D01*
X9164626Y8086354D01*
X9164438Y8086260D01*
X9164156Y8085978D01*
X9163686Y8085696D01*
X9163122Y8085320D01*
X9162371Y8084944D01*
X9161525Y8084475D01*
X9160585Y8084005D01*
X9159551Y8083535D01*
X9158329Y8083065D01*
X9157108Y8082689D01*
X9155604Y8082313D01*
X9154100Y8082031D01*
X9152503Y8081749D01*
X9150717Y8081655D01*
X9148837Y8081561D01*
X9147898D01*
X9147146Y8081655D01*
X9146300D01*
X9145266Y8081749D01*
X9144232Y8081843D01*
X9143011Y8082031D01*
X9140473Y8082501D01*
X9137842Y8083065D01*
X9135304Y8084005D01*
X9134177Y8084569D01*
X9133049Y8085226D01*
X9132955D01*
X9132767Y8085414D01*
X9132485Y8085602D01*
X9132109Y8085884D01*
X9131169Y8086824D01*
X9130041Y8087952D01*
X9128820Y8089455D01*
X9127504Y8091335D01*
X9126376Y8093403D01*
X9125530Y8095846D01*
X9137842Y8097820D01*
X9137936Y8097632D01*
X9138124Y8097162D01*
X9138500Y8096504D01*
X9138970Y8095658D01*
X9139533Y8094718D01*
X9140191Y8093779D01*
X9141037Y8092933D01*
X9141883Y8092275D01*
X9141977Y8092181D01*
X9142353Y8091993D01*
X9142917Y8091805D01*
X9143669Y8091523D01*
X9144608Y8091147D01*
X9145736Y8090959D01*
X9147052Y8090771D01*
X9148555Y8090677D01*
X9149307D01*
X9150059Y8090771D01*
X9151093Y8090959D01*
X9152221Y8091147D01*
X9153442Y8091429D01*
X9154570Y8091899D01*
X9155604Y8092557D01*
X9155698Y8092651D01*
X9155886Y8092839D01*
X9156168Y8093121D01*
X9156544Y8093497D01*
X9157202Y8094530D01*
X9157390Y8095094D01*
X9157484Y8095846D01*
Y8095940D01*
Y8096034D01*
X9157390Y8096598D01*
X9157108Y8097350D01*
X9156544Y8098102D01*
X9156450Y8098196D01*
X9156356Y8098290D01*
X9155980Y8098478D01*
X9155510Y8098760D01*
X9154758Y8099135D01*
X9153818Y8099605D01*
X9152691Y8100075D01*
X9151187Y8100545D01*
X9151093D01*
X9150717Y8100733D01*
X9150059Y8100921D01*
X9149307Y8101203D01*
X9148462Y8101485D01*
X9147428Y8101861D01*
X9145078Y8102707D01*
X9142635Y8103740D01*
X9140285Y8104680D01*
X9139157Y8105244D01*
X9138218Y8105714D01*
X9137466Y8106184D01*
X9136808Y8106560D01*
X9136620Y8106748D01*
X9136150Y8107218D01*
X9135492Y8107970D01*
X9134740Y8109003D01*
X9133895Y8110319D01*
X9133237Y8111917D01*
X9132767Y8113702D01*
X9132673Y8114642D01*
X9132579Y8115676D01*
Y8115770D01*
Y8115958D01*
Y8116240D01*
X9132673Y8116616D01*
X9132767Y8117649D01*
X9133143Y8118965D01*
X9133613Y8120469D01*
X9134365Y8122067D01*
X9135398Y8123664D01*
X9135962Y8124510D01*
X9136714Y8125262D01*
X9136808Y8125356D01*
X9136996Y8125544D01*
X9137372Y8125826D01*
X9137842Y8126202D01*
X9138406Y8126578D01*
X9139157Y8127048D01*
X9140003Y8127611D01*
X9141037Y8128175D01*
X9142259Y8128645D01*
X9143481Y8129209D01*
X9144890Y8129679D01*
X9146488Y8130149D01*
X9148180Y8130431D01*
X9149965Y8130713D01*
X9151939Y8130901D01*
X9154006Y8130995D01*
X9154852D01*
X9155510Y8130901D01*
D02*
G37*
G36*
X9058993Y8082783D02*
X9046399D01*
X9056267Y8129961D01*
X9068954D01*
X9058993Y8082783D01*
D02*
G37*
G36*
X9027603Y8147723D02*
X9028261D01*
X9029859Y8147629D01*
X9031644Y8147441D01*
X9033430Y8147065D01*
X9035310Y8146689D01*
X9036907Y8146125D01*
X9037001D01*
X9037095Y8146031D01*
X9037565Y8145843D01*
X9038317Y8145374D01*
X9039257Y8144810D01*
X9040291Y8144058D01*
X9041418Y8143118D01*
X9042546Y8141896D01*
X9043486Y8140581D01*
X9043580Y8140393D01*
X9043862Y8139923D01*
X9044238Y8139077D01*
X9044708Y8138043D01*
X9045177Y8136633D01*
X9045553Y8135130D01*
X9045835Y8133344D01*
X9045929Y8131465D01*
Y8131371D01*
Y8131277D01*
Y8130995D01*
Y8130619D01*
X9045835Y8129679D01*
X9045647Y8128363D01*
X9045459Y8126954D01*
X9045084Y8125262D01*
X9044614Y8123570D01*
X9043956Y8121785D01*
Y8121691D01*
X9043862Y8121597D01*
X9043580Y8121033D01*
X9043204Y8120187D01*
X9042640Y8119153D01*
X9041982Y8117931D01*
X9041230Y8116710D01*
X9040291Y8115488D01*
X9039257Y8114360D01*
X9039163Y8114266D01*
X9038787Y8113890D01*
X9038223Y8113420D01*
X9037471Y8112857D01*
X9036625Y8112105D01*
X9035592Y8111447D01*
X9034558Y8110789D01*
X9033336Y8110131D01*
X9033148Y8110037D01*
X9032772Y8109943D01*
X9032020Y8109661D01*
X9031080Y8109379D01*
X9029859Y8109003D01*
X9028355Y8108627D01*
X9026663Y8108252D01*
X9024690Y8107970D01*
X9024502D01*
X9024032Y8107876D01*
X9023186D01*
X9022622Y8107782D01*
X9021213D01*
X9020367Y8107688D01*
X9018393D01*
X9017171Y8107594D01*
X9004296D01*
X8999127Y8082783D01*
X8985782D01*
X8999409Y8147817D01*
X9026945D01*
X9027603Y8147723D01*
D02*
G37*
G36*
X8824231Y8130901D02*
X8825170Y8130807D01*
X8826110Y8130713D01*
X8827238Y8130525D01*
X8828460Y8130243D01*
X8831091Y8129585D01*
X8832407Y8129115D01*
X8833816Y8128551D01*
X8835132Y8127893D01*
X8836448Y8127048D01*
X8837670Y8126202D01*
X8838797Y8125168D01*
X8838891Y8125074D01*
X8839079Y8124886D01*
X8839361Y8124604D01*
X8839737Y8124134D01*
X8840207Y8123570D01*
X8840677Y8122818D01*
X8841241Y8122067D01*
X8841805Y8121127D01*
X8842275Y8119999D01*
X8842839Y8118871D01*
X8843308Y8117556D01*
X8843778Y8116240D01*
X8844154Y8114736D01*
X8844436Y8113138D01*
X8844624Y8111447D01*
X8844718Y8109661D01*
Y8109567D01*
Y8109191D01*
Y8108533D01*
X8844624Y8107782D01*
X8844530Y8106748D01*
X8844342Y8105620D01*
X8844060Y8104304D01*
X8843778Y8102895D01*
X8843402Y8101391D01*
X8842933Y8099793D01*
X8842369Y8098102D01*
X8841617Y8096504D01*
X8840771Y8094812D01*
X8839831Y8093121D01*
X8838703Y8091429D01*
X8837388Y8089831D01*
X8837294Y8089737D01*
X8837012Y8089455D01*
X8836636Y8089080D01*
X8836072Y8088516D01*
X8835320Y8087952D01*
X8834380Y8087200D01*
X8833347Y8086448D01*
X8832219Y8085696D01*
X8830809Y8084944D01*
X8829399Y8084193D01*
X8827802Y8083441D01*
X8826016Y8082877D01*
X8824137Y8082313D01*
X8822163Y8081937D01*
X8820001Y8081655D01*
X8817746Y8081561D01*
X8816618D01*
X8816054Y8081655D01*
X8815396Y8081749D01*
X8813799Y8081937D01*
X8811919Y8082219D01*
X8809946Y8082689D01*
X8807878Y8083347D01*
X8805904Y8084193D01*
X8805810D01*
X8805716Y8084287D01*
X8805435Y8084475D01*
X8805059Y8084663D01*
X8804119Y8085320D01*
X8802991Y8086166D01*
X8801769Y8087200D01*
X8800454Y8088516D01*
X8799232Y8090019D01*
X8798198Y8091711D01*
Y8091805D01*
X8798104Y8091899D01*
X8798010Y8092181D01*
X8797822Y8092557D01*
X8797446Y8093591D01*
X8796976Y8094906D01*
X8796506Y8096410D01*
X8796130Y8098196D01*
X8795849Y8100169D01*
X8795755Y8102237D01*
Y8102425D01*
Y8102801D01*
X8795849Y8103459D01*
Y8104398D01*
X8795943Y8105526D01*
X8796130Y8106748D01*
X8796412Y8108252D01*
X8796694Y8109755D01*
X8797070Y8111353D01*
X8797540Y8113044D01*
X8798104Y8114830D01*
X8798856Y8116522D01*
X8799702Y8118307D01*
X8800642Y8119999D01*
X8801769Y8121597D01*
X8803085Y8123100D01*
X8803179Y8123194D01*
X8803461Y8123476D01*
X8803837Y8123852D01*
X8804401Y8124322D01*
X8805153Y8124980D01*
X8806092Y8125638D01*
X8807126Y8126296D01*
X8808348Y8127048D01*
X8809664Y8127799D01*
X8811073Y8128457D01*
X8812671Y8129209D01*
X8814457Y8129773D01*
X8816242Y8130243D01*
X8818216Y8130619D01*
X8820377Y8130901D01*
X8822539Y8130995D01*
X8823573D01*
X8824231Y8130901D01*
D02*
G37*
G36*
X8104709Y7370735D02*
Y7370594D01*
Y7370312D01*
Y7369890D01*
Y7369326D01*
X8104568Y7368480D01*
Y7367634D01*
X8104145Y7365519D01*
X8103722Y7362982D01*
X8103017Y7360022D01*
X8102031Y7357061D01*
X8100762Y7353960D01*
X8099070Y7350718D01*
X8096956Y7347757D01*
X8094277Y7344797D01*
X8091176Y7342259D01*
X8089484Y7341132D01*
X8087511Y7340145D01*
X8085537Y7339299D01*
X8083282Y7338453D01*
X8080885Y7337889D01*
X8078348Y7337466D01*
X8075669Y7337184D01*
X8072709Y7337043D01*
X8071440D01*
X8069889Y7337325D01*
X8067916Y7337607D01*
X8065660Y7338030D01*
X8062982Y7338735D01*
X8060303Y7339722D01*
X8057484Y7341132D01*
X8054524Y7342823D01*
X8051845Y7344938D01*
X8049167Y7347616D01*
X8048039Y7349026D01*
X8046911Y7350718D01*
X8045924Y7352550D01*
X8044938Y7354383D01*
X8044092Y7356497D01*
X8043387Y7358753D01*
X8042823Y7361149D01*
X8042400Y7363828D01*
X8042259Y7366506D01*
X8042118Y7369467D01*
Y7418665D01*
X8055369D01*
Y7372145D01*
Y7371863D01*
Y7371158D01*
X8055510Y7370030D01*
X8055651Y7368480D01*
X8055933Y7366647D01*
X8056356Y7364674D01*
X8056920Y7362559D01*
X8057625Y7360445D01*
X8058612Y7358189D01*
X8059881Y7356074D01*
X8061290Y7354101D01*
X8063123Y7352268D01*
X8065237Y7350718D01*
X8067634Y7349590D01*
X8070453Y7348885D01*
X8073696Y7348603D01*
X8074400D01*
X8075387Y7348744D01*
X8076515Y7349026D01*
X8077784Y7349308D01*
X8079334Y7349872D01*
X8080885Y7350577D01*
X8082577Y7351422D01*
X8084268Y7352691D01*
X8085819Y7354101D01*
X8087370Y7355933D01*
X8088638Y7358189D01*
X8089766Y7360726D01*
X8090753Y7363828D01*
X8091317Y7367352D01*
X8091458Y7371299D01*
Y7418665D01*
X8104709D01*
Y7370735D01*
D02*
G37*
G36*
X8147987Y7338453D02*
X8135018D01*
Y7404427D01*
X8134877Y7404286D01*
X8134454Y7404004D01*
X8133749Y7403581D01*
X8132762Y7402876D01*
X8131634Y7402313D01*
X8130366Y7401467D01*
X8127405Y7400057D01*
X8127264Y7399916D01*
X8126700Y7399775D01*
X8125854Y7399493D01*
X8124727Y7399070D01*
X8123458Y7398647D01*
X8121907Y7398084D01*
X8120075Y7397661D01*
X8118242Y7397097D01*
Y7408233D01*
X8118383D01*
X8118806Y7408374D01*
X8119370Y7408656D01*
X8120216Y7408938D01*
X8122189Y7409502D01*
X8124445Y7410348D01*
X8124586D01*
X8125009Y7410630D01*
X8125573Y7410771D01*
X8126418Y7411194D01*
X8128251Y7412040D01*
X8130366Y7413026D01*
X8130506D01*
X8130929Y7413308D01*
X8131493Y7413590D01*
X8132198Y7414013D01*
X8134172Y7415000D01*
X8136286Y7416128D01*
X8136427Y7416269D01*
X8136850Y7416410D01*
X8137414Y7416833D01*
X8138260Y7417396D01*
X8139106Y7417960D01*
X8140233Y7418665D01*
X8142489Y7420357D01*
X8147987D01*
Y7338453D01*
D02*
G37*
G36*
X8002647Y7418524D02*
X8003774D01*
X8005184Y7418383D01*
X8006594Y7418101D01*
X8008285Y7417819D01*
X8011669Y7417114D01*
X8015334Y7415987D01*
X8018717Y7414295D01*
X8020268Y7413308D01*
X8021819Y7412181D01*
X8021960Y7412040D01*
X8022101Y7411899D01*
X8022523Y7411476D01*
X8022946Y7411053D01*
X8023651Y7410348D01*
X8024215Y7409502D01*
X8025625Y7407528D01*
X8027034Y7404850D01*
X8028303Y7401749D01*
X8029149Y7398084D01*
X8029290Y7396110D01*
X8029431Y7393995D01*
Y7393854D01*
Y7393431D01*
Y7392868D01*
X8029290Y7392022D01*
X8029149Y7391035D01*
X8029008Y7389907D01*
X8028444Y7387229D01*
X8027457Y7384127D01*
X8026894Y7382577D01*
X8026048Y7381026D01*
X8025061Y7379334D01*
X8024074Y7377784D01*
X8022805Y7376233D01*
X8021396Y7374823D01*
X8021255Y7374682D01*
X8020973Y7374542D01*
X8020550Y7374119D01*
X8019986Y7373696D01*
X8019140Y7373132D01*
X8018153Y7372568D01*
X8017026Y7371863D01*
X8015757Y7371158D01*
X8014347Y7370453D01*
X8012656Y7369749D01*
X8010964Y7369185D01*
X8008990Y7368621D01*
X8007017Y7368198D01*
X8004761Y7367775D01*
X8002506Y7367634D01*
X7999968Y7367493D01*
X7989396D01*
Y7338453D01*
X7976144D01*
Y7418665D01*
X8001660D01*
X8002647Y7418524D01*
D02*
G37*
G36*
X7934558D02*
X7936109Y7418383D01*
X7937941Y7418101D01*
X7941466Y7417255D01*
X7941748D01*
X7942312Y7416973D01*
X7943157Y7416692D01*
X7944285Y7416269D01*
X7945554Y7415705D01*
X7946964Y7415000D01*
X7949783Y7413167D01*
X7949924Y7413026D01*
X7950347Y7412744D01*
X7951052Y7412040D01*
X7951757Y7411335D01*
X7952743Y7410348D01*
X7953589Y7409220D01*
X7954435Y7407810D01*
X7955281Y7406401D01*
X7955422Y7406260D01*
X7955563Y7405696D01*
X7955845Y7404850D01*
X7956268Y7403722D01*
X7956690Y7402313D01*
X7956972Y7400762D01*
X7957113Y7398929D01*
X7957254Y7396956D01*
Y7396815D01*
Y7396251D01*
Y7395405D01*
X7957113Y7394418D01*
X7956972Y7393150D01*
X7956690Y7391881D01*
X7955986Y7389202D01*
Y7389061D01*
X7955845Y7388639D01*
X7955563Y7387934D01*
X7955140Y7387088D01*
X7954012Y7385114D01*
X7952461Y7382859D01*
X7952320Y7382718D01*
X7952038Y7382436D01*
X7951616Y7381872D01*
X7950911Y7381167D01*
X7950065Y7380462D01*
X7949078Y7379616D01*
X7946823Y7378066D01*
X7946682Y7377925D01*
X7946259Y7377784D01*
X7945554Y7377361D01*
X7944708Y7377079D01*
X7943580Y7376515D01*
X7942312Y7376092D01*
X7939492Y7375105D01*
Y7374823D01*
X7939633D01*
X7939915Y7374682D01*
X7940338Y7374401D01*
X7940761Y7374119D01*
X7942030Y7373273D01*
X7943298Y7372145D01*
X7943439D01*
X7943580Y7371863D01*
X7944285Y7371299D01*
X7945272Y7370312D01*
X7946400Y7369044D01*
X7946682Y7368762D01*
X7947245Y7368057D01*
X7948232Y7366929D01*
X7949219Y7365519D01*
X7949360Y7365378D01*
X7949501Y7365237D01*
X7949783Y7364815D01*
X7950206Y7364251D01*
X7951193Y7362841D01*
X7952461Y7361008D01*
X7966699Y7338453D01*
X7951193D01*
X7938364Y7359881D01*
X7938223Y7360022D01*
X7938082Y7360445D01*
X7937800Y7360867D01*
X7937378Y7361572D01*
X7936250Y7363264D01*
X7934981Y7364956D01*
X7934840Y7365097D01*
X7934699Y7365378D01*
X7933994Y7366224D01*
X7932867Y7367211D01*
X7931598Y7368339D01*
X7931457D01*
X7931316Y7368621D01*
X7930470Y7369185D01*
X7929342Y7369749D01*
X7927933Y7370312D01*
X7927792D01*
X7927651Y7370453D01*
X7927228Y7370594D01*
X7926664Y7370735D01*
X7925254Y7370876D01*
X7923422Y7371017D01*
X7918065D01*
Y7338453D01*
X7904814D01*
Y7418665D01*
X7933148D01*
X7934558Y7418524D01*
D02*
G37*
G36*
X7094930Y6630470D02*
Y6630329D01*
Y6629906D01*
Y6629060D01*
X7094789Y6628074D01*
Y6626946D01*
X7094507Y6625536D01*
X7094366Y6623985D01*
X7094084Y6622435D01*
X7093238Y6618770D01*
X7091970Y6615104D01*
X7091124Y6613272D01*
X7090278Y6611580D01*
X7089150Y6609888D01*
X7087881Y6608338D01*
X7087740Y6608197D01*
X7087599Y6608056D01*
X7087177Y6607633D01*
X7086613Y6607069D01*
X7085908Y6606505D01*
X7085062Y6605800D01*
X7084075Y6605096D01*
X7082947Y6604391D01*
X7080269Y6602981D01*
X7077027Y6601712D01*
X7073362Y6600725D01*
X7071247Y6600584D01*
X7069132Y6600443D01*
X7068287D01*
X7067159Y6600584D01*
X7065890D01*
X7064480Y6600725D01*
X7063071Y6601007D01*
X7061520Y6601430D01*
X7060110Y6601853D01*
Y6614118D01*
X7060251Y6613977D01*
X7060674Y6613836D01*
X7061379Y6613413D01*
X7062366Y6613131D01*
X7063635Y6612708D01*
X7065044Y6612285D01*
X7066595Y6612144D01*
X7068428Y6612003D01*
X7068991D01*
X7069696Y6612144D01*
X7070542Y6612285D01*
X7071529Y6612567D01*
X7072657Y6613131D01*
X7073784Y6613695D01*
X7075053Y6614540D01*
X7076322Y6615668D01*
X7077450Y6617078D01*
X7078577Y6618629D01*
X7079564Y6620743D01*
X7080410Y6622999D01*
X7081115Y6625818D01*
X7081538Y6628919D01*
X7081679Y6632585D01*
Y6682065D01*
X7094930D01*
Y6630470D01*
D02*
G37*
G36*
X7138490Y6601853D02*
X7125520D01*
Y6667827D01*
X7125379Y6667686D01*
X7124957Y6667404D01*
X7124252Y6666981D01*
X7123265Y6666276D01*
X7122137Y6665713D01*
X7120868Y6664867D01*
X7117908Y6663457D01*
X7117767Y6663316D01*
X7117203Y6663175D01*
X7116357Y6662893D01*
X7115230Y6662470D01*
X7113961Y6662047D01*
X7112410Y6661484D01*
X7110578Y6661061D01*
X7108745Y6660497D01*
Y6671633D01*
X7108886D01*
X7109309Y6671774D01*
X7109873Y6672056D01*
X7110719Y6672338D01*
X7112692Y6672902D01*
X7114948Y6673748D01*
X7115089D01*
X7115512Y6674030D01*
X7116075Y6674171D01*
X7116921Y6674594D01*
X7118754Y6675440D01*
X7120868Y6676426D01*
X7121009D01*
X7121432Y6676708D01*
X7121996Y6676990D01*
X7122701Y6677413D01*
X7124675Y6678400D01*
X7126789Y6679528D01*
X7126930Y6679669D01*
X7127353Y6679810D01*
X7127917Y6680233D01*
X7128763Y6680796D01*
X7129609Y6681360D01*
X7130736Y6682065D01*
X7132992Y6683757D01*
X7138490D01*
Y6601853D01*
D02*
G37*
G36*
X9196877Y7402133D02*
X9116665D01*
Y7415807D01*
X9196877D01*
Y7402133D01*
D02*
G37*
G36*
X9156982Y7387190D02*
X9158392D01*
X9159943Y7386908D01*
X9161775Y7386767D01*
X9163890Y7386344D01*
X9166286Y7385921D01*
X9168683Y7385217D01*
X9171220Y7384512D01*
X9173758Y7383525D01*
X9176295Y7382397D01*
X9178974Y7380988D01*
X9181370Y7379437D01*
X9183907Y7377745D01*
X9186163Y7375631D01*
X9186304Y7375490D01*
X9186727Y7375067D01*
X9187291Y7374362D01*
X9187996Y7373516D01*
X9188982Y7372388D01*
X9189969Y7370979D01*
X9191097Y7369287D01*
X9192225Y7367454D01*
X9193211Y7365340D01*
X9194339Y7363084D01*
X9195326Y7360688D01*
X9196313Y7358009D01*
X9197018Y7355190D01*
X9197582Y7352230D01*
X9198004Y7348987D01*
X9198145Y7345745D01*
Y7343771D01*
X9198004Y7342785D01*
Y7341657D01*
X9197723Y7338978D01*
X9197300Y7335877D01*
X9196736Y7332635D01*
X9195890Y7329393D01*
X9194762Y7326432D01*
X9181652D01*
Y7326573D01*
X9181793Y7326855D01*
X9182075Y7327278D01*
X9182357Y7327842D01*
X9182780Y7328547D01*
X9183203Y7329533D01*
X9184048Y7331648D01*
X9184894Y7334326D01*
X9185740Y7337428D01*
X9186304Y7340670D01*
X9186445Y7344335D01*
Y7345604D01*
X9186304Y7346450D01*
X9186163Y7347578D01*
X9186022Y7348846D01*
X9185740Y7350256D01*
X9185458Y7351807D01*
X9184330Y7355190D01*
X9183766Y7356882D01*
X9182921Y7358714D01*
X9181934Y7360547D01*
X9180806Y7362239D01*
X9179537Y7363930D01*
X9177987Y7365481D01*
X9177846Y7365622D01*
X9177564Y7365763D01*
X9177141Y7366186D01*
X9176436Y7366750D01*
X9175590Y7367313D01*
X9174603Y7368018D01*
X9173476Y7368723D01*
X9172066Y7369428D01*
X9170515Y7370274D01*
X9168965Y7370979D01*
X9167132Y7371684D01*
X9165017Y7372247D01*
X9162903Y7372811D01*
X9160647Y7373234D01*
X9158251Y7373375D01*
X9155713Y7373516D01*
X9155572D01*
X9155150D01*
X9154445D01*
X9153458Y7373375D01*
X9152471Y7373234D01*
X9151061Y7373093D01*
X9149652Y7372952D01*
X9148101Y7372529D01*
X9144718Y7371684D01*
X9141194Y7370415D01*
X9139502Y7369569D01*
X9137810Y7368441D01*
X9136119Y7367313D01*
X9134568Y7366045D01*
X9134427Y7365904D01*
X9134286Y7365622D01*
X9133863Y7365199D01*
X9133299Y7364635D01*
X9132735Y7363930D01*
X9132171Y7362943D01*
X9131467Y7361957D01*
X9130762Y7360688D01*
X9129916Y7359278D01*
X9129211Y7357868D01*
X9128083Y7354344D01*
X9127097Y7350397D01*
X9126956Y7348282D01*
X9126815Y7346027D01*
Y7344899D01*
X9126956Y7344194D01*
Y7343208D01*
X9127097Y7342080D01*
X9127519Y7339401D01*
X9128083Y7336300D01*
X9129070Y7333058D01*
X9130339Y7329674D01*
X9132171Y7326432D01*
X9119907D01*
Y7326573D01*
X9119766Y7326855D01*
X9119484Y7327419D01*
X9119202Y7327983D01*
X9118779Y7328970D01*
X9118497Y7329956D01*
X9118074Y7331225D01*
X9117652Y7332635D01*
X9117088Y7334185D01*
X9116665Y7335877D01*
X9116383Y7337710D01*
X9115960Y7339683D01*
X9115396Y7344194D01*
X9115255Y7348987D01*
Y7349692D01*
X9115396Y7350679D01*
Y7351807D01*
X9115537Y7353357D01*
X9115819Y7355049D01*
X9116242Y7356882D01*
X9116665Y7358996D01*
X9117229Y7361111D01*
X9117934Y7363366D01*
X9118779Y7365763D01*
X9119907Y7368018D01*
X9121176Y7370415D01*
X9122586Y7372670D01*
X9124277Y7374785D01*
X9126251Y7376899D01*
X9126392Y7377040D01*
X9126815Y7377322D01*
X9127378Y7377886D01*
X9128224Y7378591D01*
X9129352Y7379296D01*
X9130621Y7380142D01*
X9132171Y7381128D01*
X9134004Y7382115D01*
X9135978Y7383102D01*
X9138092Y7384089D01*
X9140489Y7384935D01*
X9143026Y7385640D01*
X9145846Y7386344D01*
X9148806Y7386908D01*
X9151907Y7387190D01*
X9155150Y7387331D01*
X9155432D01*
X9155995D01*
X9156982Y7387190D01*
D02*
G37*
G36*
X9125123Y7315577D02*
X9126251Y7315436D01*
X9127519Y7315296D01*
X9129916Y7314732D01*
X9130057D01*
X9130480Y7314591D01*
X9131185Y7314309D01*
X9132031Y7313886D01*
X9134004Y7313040D01*
X9136119Y7311771D01*
X9136260Y7311630D01*
X9136683Y7311489D01*
X9137246Y7311066D01*
X9137951Y7310503D01*
X9139643Y7309234D01*
X9141616Y7307542D01*
X9141757Y7307401D01*
X9142039Y7307119D01*
X9142603Y7306696D01*
X9143308Y7305991D01*
X9144859Y7304441D01*
X9146691Y7302467D01*
X9146832Y7302326D01*
X9147114Y7302044D01*
X9147678Y7301480D01*
X9148242Y7300635D01*
X9149793Y7298943D01*
X9151484Y7296828D01*
X9151625Y7296687D01*
X9151907Y7296406D01*
X9152330Y7295842D01*
X9152894Y7294996D01*
X9154304Y7293304D01*
X9155995Y7291190D01*
X9156136Y7291049D01*
X9156418Y7290767D01*
X9156841Y7290203D01*
X9157405Y7289639D01*
X9158674Y7288088D01*
X9160225Y7286538D01*
X9160365Y7286397D01*
X9160647Y7286115D01*
X9161070Y7285833D01*
X9161634Y7285269D01*
X9162903Y7284141D01*
X9164595Y7283013D01*
X9164736Y7282872D01*
X9165017Y7282731D01*
X9165440Y7282449D01*
X9166004Y7282168D01*
X9167555Y7281322D01*
X9169247Y7280617D01*
X9169388D01*
X9169669Y7280476D01*
X9170233Y7280335D01*
X9170938Y7280194D01*
X9172630Y7279912D01*
X9174744Y7279771D01*
X9174885D01*
X9175308D01*
X9175872D01*
X9176718Y7279912D01*
X9178410Y7280194D01*
X9180242Y7280758D01*
X9180383D01*
X9180665Y7280899D01*
X9181088Y7281181D01*
X9181652Y7281463D01*
X9182921Y7282309D01*
X9184189Y7283577D01*
X9184330Y7283718D01*
X9184471Y7283859D01*
X9185176Y7284705D01*
X9186022Y7285974D01*
X9186727Y7287665D01*
Y7287806D01*
X9186868Y7288088D01*
X9187009Y7288511D01*
X9187150Y7289216D01*
X9187432Y7290908D01*
X9187573Y7292881D01*
Y7293727D01*
X9187432Y7294714D01*
X9187291Y7295983D01*
X9187009Y7297533D01*
X9186586Y7299225D01*
X9186022Y7301058D01*
X9185176Y7302890D01*
X9185035Y7303172D01*
X9184753Y7303736D01*
X9184189Y7304723D01*
X9183485Y7305991D01*
X9182498Y7307542D01*
X9181370Y7309093D01*
X9179960Y7310925D01*
X9178269Y7312617D01*
X9190815D01*
X9190956Y7312476D01*
X9191097Y7312194D01*
X9191520Y7311771D01*
X9191943Y7311066D01*
X9192930Y7309516D01*
X9193916Y7307683D01*
Y7307542D01*
X9194198Y7307260D01*
X9194480Y7306696D01*
X9194762Y7306132D01*
X9195467Y7304441D01*
X9196172Y7302467D01*
Y7302326D01*
X9196313Y7302044D01*
X9196454Y7301480D01*
X9196736Y7300776D01*
X9197159Y7298943D01*
X9197582Y7296828D01*
Y7296687D01*
X9197723Y7296265D01*
Y7295701D01*
X9197863Y7294855D01*
X9198004Y7294009D01*
Y7292881D01*
X9198145Y7290485D01*
Y7289639D01*
X9198004Y7288511D01*
Y7287242D01*
X9197723Y7285692D01*
X9197441Y7284141D01*
X9197159Y7282449D01*
X9196595Y7280758D01*
Y7280617D01*
X9196313Y7280053D01*
X9196031Y7279207D01*
X9195608Y7278079D01*
X9194903Y7276952D01*
X9194198Y7275683D01*
X9192366Y7273145D01*
X9192225Y7273005D01*
X9191943Y7272582D01*
X9191238Y7272018D01*
X9190533Y7271313D01*
X9189546Y7270608D01*
X9188278Y7269762D01*
X9187009Y7269057D01*
X9185458Y7268352D01*
X9185317Y7268212D01*
X9184753Y7268071D01*
X9183907Y7267789D01*
X9182780Y7267507D01*
X9181370Y7267225D01*
X9179819Y7266943D01*
X9177987Y7266661D01*
X9176013D01*
X9175872D01*
X9175167D01*
X9174322D01*
X9173194Y7266802D01*
X9171784Y7266943D01*
X9170374Y7267225D01*
X9167273Y7267930D01*
X9167132D01*
X9166568Y7268071D01*
X9165863Y7268352D01*
X9165017Y7268775D01*
X9163890Y7269198D01*
X9162621Y7269762D01*
X9160084Y7271313D01*
X9159943Y7271454D01*
X9159520Y7271736D01*
X9158815Y7272159D01*
X9157969Y7272723D01*
X9156982Y7273568D01*
X9155995Y7274414D01*
X9153599Y7276529D01*
X9153458Y7276670D01*
X9153035Y7277093D01*
X9152471Y7277657D01*
X9151766Y7278502D01*
X9150780Y7279630D01*
X9149793Y7280758D01*
X9147537Y7283577D01*
X9147396Y7283718D01*
X9147114Y7284141D01*
X9146550Y7284705D01*
X9145846Y7285551D01*
X9145141Y7286538D01*
X9144154Y7287665D01*
X9142321Y7290062D01*
X9142180Y7290203D01*
X9141898Y7290626D01*
X9141475Y7291190D01*
X9140771Y7291894D01*
X9139361Y7293868D01*
X9137528Y7295842D01*
X9137387Y7295983D01*
X9137105Y7296265D01*
X9136683Y7296687D01*
X9135978Y7297251D01*
X9134568Y7298661D01*
X9132735Y7299930D01*
X9132594D01*
X9132312Y7300212D01*
X9131890Y7300353D01*
X9131326Y7300635D01*
X9129775Y7301199D01*
X9128929Y7301339D01*
X9127942Y7301480D01*
X9127801D01*
Y7265392D01*
X9116665D01*
Y7315718D01*
X9122867D01*
X9123008D01*
X9123572D01*
X9124277D01*
X9125123Y7315577D01*
D02*
G37*
G36*
X8467177Y8194704D02*
X8468305D01*
X8470983Y8194422D01*
X8474085Y8193999D01*
X8477327Y8193435D01*
X8480569Y8192590D01*
X8483530Y8191462D01*
Y8178352D01*
X8483389D01*
X8483107Y8178493D01*
X8482684Y8178775D01*
X8482120Y8179057D01*
X8481415Y8179479D01*
X8480428Y8179902D01*
X8478314Y8180748D01*
X8475635Y8181594D01*
X8472534Y8182440D01*
X8469292Y8183004D01*
X8465626Y8183145D01*
X8464358D01*
X8463512Y8183004D01*
X8462384Y8182863D01*
X8461115Y8182722D01*
X8459706Y8182440D01*
X8458155Y8182158D01*
X8454772Y8181030D01*
X8453080Y8180466D01*
X8451248Y8179620D01*
X8449415Y8178634D01*
X8447723Y8177506D01*
X8446032Y8176237D01*
X8444481Y8174686D01*
X8444340Y8174545D01*
X8444199Y8174264D01*
X8443776Y8173841D01*
X8443212Y8173136D01*
X8442648Y8172290D01*
X8441943Y8171303D01*
X8441239Y8170175D01*
X8440534Y8168766D01*
X8439688Y8167215D01*
X8438983Y8165664D01*
X8438278Y8163832D01*
X8437714Y8161717D01*
X8437151Y8159603D01*
X8436728Y8157347D01*
X8436587Y8154951D01*
X8436446Y8152413D01*
Y8152272D01*
Y8151849D01*
Y8151144D01*
X8436587Y8150158D01*
X8436728Y8149171D01*
X8436869Y8147761D01*
X8437010Y8146352D01*
X8437432Y8144801D01*
X8438278Y8141418D01*
X8439547Y8137893D01*
X8440393Y8136202D01*
X8441521Y8134510D01*
X8442648Y8132818D01*
X8443917Y8131268D01*
X8444058Y8131127D01*
X8444340Y8130986D01*
X8444763Y8130563D01*
X8445327Y8129999D01*
X8446032Y8129435D01*
X8447018Y8128871D01*
X8448005Y8128166D01*
X8449274Y8127462D01*
X8450684Y8126616D01*
X8452093Y8125911D01*
X8455618Y8124783D01*
X8459565Y8123796D01*
X8461679Y8123655D01*
X8463935Y8123514D01*
X8465063D01*
X8465767Y8123655D01*
X8466754D01*
X8467882Y8123796D01*
X8470560Y8124219D01*
X8473662Y8124783D01*
X8476904Y8125770D01*
X8480287Y8127039D01*
X8483530Y8128871D01*
Y8116607D01*
X8483389D01*
X8483107Y8116466D01*
X8482543Y8116184D01*
X8481979Y8115902D01*
X8480992Y8115479D01*
X8480005Y8115197D01*
X8478737Y8114774D01*
X8477327Y8114351D01*
X8475776Y8113787D01*
X8474085Y8113365D01*
X8472252Y8113083D01*
X8470278Y8112660D01*
X8465767Y8112096D01*
X8460974Y8111955D01*
X8460270D01*
X8459283Y8112096D01*
X8458155D01*
X8456604Y8112237D01*
X8454913Y8112519D01*
X8453080Y8112942D01*
X8450966Y8113365D01*
X8448851Y8113928D01*
X8446596Y8114633D01*
X8444199Y8115479D01*
X8441943Y8116607D01*
X8439547Y8117876D01*
X8437291Y8119285D01*
X8435177Y8120977D01*
X8433062Y8122950D01*
X8432921Y8123091D01*
X8432639Y8123514D01*
X8432076Y8124078D01*
X8431371Y8124924D01*
X8430666Y8126052D01*
X8429820Y8127321D01*
X8428833Y8128871D01*
X8427846Y8130704D01*
X8426860Y8132677D01*
X8425873Y8134792D01*
X8425027Y8137188D01*
X8424322Y8139726D01*
X8423617Y8142545D01*
X8423054Y8145506D01*
X8422772Y8148607D01*
X8422631Y8151849D01*
Y8152131D01*
Y8152695D01*
X8422772Y8153682D01*
Y8155092D01*
X8423054Y8156642D01*
X8423194Y8158475D01*
X8423617Y8160589D01*
X8424040Y8162986D01*
X8424745Y8165382D01*
X8425450Y8167920D01*
X8426437Y8170457D01*
X8427565Y8172995D01*
X8428974Y8175673D01*
X8430525Y8178070D01*
X8432217Y8180607D01*
X8434331Y8182863D01*
X8434472Y8183004D01*
X8434895Y8183427D01*
X8435600Y8183990D01*
X8436446Y8184695D01*
X8437573Y8185682D01*
X8438983Y8186669D01*
X8440675Y8187797D01*
X8442507Y8188924D01*
X8444622Y8189911D01*
X8446877Y8191039D01*
X8449274Y8192026D01*
X8451952Y8193013D01*
X8454772Y8193717D01*
X8457732Y8194281D01*
X8460974Y8194704D01*
X8464217Y8194845D01*
X8466190D01*
X8467177Y8194704D01*
D02*
G37*
G36*
X8521451D02*
X8522719D01*
X8524270Y8194422D01*
X8525821Y8194140D01*
X8527512Y8193858D01*
X8529204Y8193295D01*
X8529345D01*
X8529909Y8193013D01*
X8530755Y8192731D01*
X8531882Y8192308D01*
X8533010Y8191603D01*
X8534279Y8190898D01*
X8536816Y8189065D01*
X8536957Y8188924D01*
X8537380Y8188643D01*
X8537944Y8187938D01*
X8538649Y8187233D01*
X8539354Y8186246D01*
X8540200Y8184977D01*
X8540904Y8183709D01*
X8541609Y8182158D01*
X8541750Y8182017D01*
X8541891Y8181453D01*
X8542173Y8180607D01*
X8542455Y8179479D01*
X8542737Y8178070D01*
X8543019Y8176519D01*
X8543301Y8174686D01*
Y8172713D01*
Y8172572D01*
Y8171867D01*
Y8171021D01*
X8543160Y8169893D01*
X8543019Y8168484D01*
X8542737Y8167074D01*
X8542032Y8163973D01*
Y8163832D01*
X8541891Y8163268D01*
X8541609Y8162563D01*
X8541186Y8161717D01*
X8540763Y8160589D01*
X8540200Y8159321D01*
X8538649Y8156783D01*
X8538508Y8156642D01*
X8538226Y8156219D01*
X8537803Y8155515D01*
X8537239Y8154669D01*
X8536393Y8153682D01*
X8535548Y8152695D01*
X8533433Y8150299D01*
X8533292Y8150158D01*
X8532869Y8149735D01*
X8532305Y8149171D01*
X8531459Y8148466D01*
X8530332Y8147479D01*
X8529204Y8146492D01*
X8526385Y8144237D01*
X8526244Y8144096D01*
X8525821Y8143814D01*
X8525257Y8143250D01*
X8524411Y8142545D01*
X8523424Y8141840D01*
X8522296Y8140854D01*
X8519900Y8139021D01*
X8519759Y8138880D01*
X8519336Y8138598D01*
X8518772Y8138175D01*
X8518067Y8137470D01*
X8516094Y8136061D01*
X8514120Y8134228D01*
X8513979Y8134087D01*
X8513697Y8133805D01*
X8513274Y8133382D01*
X8512710Y8132677D01*
X8511301Y8131268D01*
X8510032Y8129435D01*
Y8129294D01*
X8509750Y8129012D01*
X8509609Y8128589D01*
X8509327Y8128025D01*
X8508763Y8126475D01*
X8508622Y8125629D01*
X8508481Y8124642D01*
Y8124501D01*
X8544570D01*
Y8113365D01*
X8494243D01*
Y8119567D01*
Y8119708D01*
Y8120272D01*
Y8120977D01*
X8494384Y8121823D01*
X8494525Y8122950D01*
X8494666Y8124219D01*
X8495230Y8126616D01*
Y8126757D01*
X8495371Y8127180D01*
X8495653Y8127884D01*
X8496076Y8128730D01*
X8496922Y8130704D01*
X8498191Y8132818D01*
X8498331Y8132959D01*
X8498472Y8133382D01*
X8498895Y8133946D01*
X8499459Y8134651D01*
X8500728Y8136343D01*
X8502420Y8138316D01*
X8502561Y8138457D01*
X8502843Y8138739D01*
X8503265Y8139303D01*
X8503970Y8140008D01*
X8505521Y8141559D01*
X8507495Y8143391D01*
X8507636Y8143532D01*
X8507917Y8143814D01*
X8508481Y8144378D01*
X8509327Y8144942D01*
X8511019Y8146492D01*
X8513133Y8148184D01*
X8513274Y8148325D01*
X8513556Y8148607D01*
X8514120Y8149030D01*
X8514966Y8149594D01*
X8516658Y8151004D01*
X8518772Y8152695D01*
X8518913Y8152836D01*
X8519195Y8153118D01*
X8519759Y8153541D01*
X8520323Y8154105D01*
X8521873Y8155374D01*
X8523424Y8156924D01*
X8523565Y8157065D01*
X8523847Y8157347D01*
X8524129Y8157770D01*
X8524693Y8158334D01*
X8525821Y8159603D01*
X8526948Y8161294D01*
X8527089Y8161435D01*
X8527230Y8161717D01*
X8527512Y8162140D01*
X8527794Y8162704D01*
X8528640Y8164255D01*
X8529345Y8165946D01*
Y8166087D01*
X8529486Y8166369D01*
X8529627Y8166933D01*
X8529768Y8167638D01*
X8530050Y8169330D01*
X8530191Y8171444D01*
Y8171585D01*
Y8172008D01*
Y8172572D01*
X8530050Y8173418D01*
X8529768Y8175109D01*
X8529204Y8176942D01*
Y8177083D01*
X8529063Y8177365D01*
X8528781Y8177788D01*
X8528499Y8178352D01*
X8527653Y8179620D01*
X8526385Y8180889D01*
X8526244Y8181030D01*
X8526103Y8181171D01*
X8525257Y8181876D01*
X8523988Y8182722D01*
X8522296Y8183427D01*
X8522155D01*
X8521873Y8183568D01*
X8521451Y8183709D01*
X8520746Y8183850D01*
X8519054Y8184131D01*
X8517081Y8184272D01*
X8516235D01*
X8515248Y8184131D01*
X8513979Y8183990D01*
X8512428Y8183709D01*
X8510737Y8183286D01*
X8508904Y8182722D01*
X8507072Y8181876D01*
X8506790Y8181735D01*
X8506226Y8181453D01*
X8505239Y8180889D01*
X8503970Y8180184D01*
X8502420Y8179198D01*
X8500869Y8178070D01*
X8499036Y8176660D01*
X8497345Y8174968D01*
Y8187515D01*
X8497486Y8187656D01*
X8497768Y8187797D01*
X8498191Y8188220D01*
X8498895Y8188643D01*
X8500446Y8189629D01*
X8502279Y8190616D01*
X8502420D01*
X8502702Y8190898D01*
X8503265Y8191180D01*
X8503829Y8191462D01*
X8505521Y8192167D01*
X8507495Y8192872D01*
X8507636D01*
X8507917Y8193013D01*
X8508481Y8193154D01*
X8509186Y8193435D01*
X8511019Y8193858D01*
X8513133Y8194281D01*
X8513274D01*
X8513697Y8194422D01*
X8514261D01*
X8515107Y8194563D01*
X8515953Y8194704D01*
X8517081D01*
X8519477Y8194845D01*
X8520323D01*
X8521451Y8194704D01*
D02*
G37*
G36*
X8085729Y7724593D02*
X8086857D01*
X8089535Y7724311D01*
X8092636Y7723888D01*
X8095879Y7723324D01*
X8099121Y7722478D01*
X8102081Y7721351D01*
Y7708240D01*
X8101940D01*
X8101658Y7708381D01*
X8101236Y7708663D01*
X8100672Y7708945D01*
X8099967Y7709368D01*
X8098980Y7709791D01*
X8096865Y7710637D01*
X8094187Y7711483D01*
X8091086Y7712328D01*
X8087843Y7712892D01*
X8084178Y7713033D01*
X8082909D01*
X8082064Y7712892D01*
X8080936Y7712751D01*
X8079667Y7712610D01*
X8078257Y7712328D01*
X8076707Y7712047D01*
X8073323Y7710919D01*
X8071632Y7710355D01*
X8069799Y7709509D01*
X8067967Y7708522D01*
X8066275Y7707395D01*
X8064583Y7706126D01*
X8063033Y7704575D01*
X8062892Y7704434D01*
X8062751Y7704152D01*
X8062328Y7703729D01*
X8061764Y7703024D01*
X8061200Y7702179D01*
X8060495Y7701192D01*
X8059790Y7700064D01*
X8059085Y7698654D01*
X8058240Y7697104D01*
X8057535Y7695553D01*
X8056830Y7693720D01*
X8056266Y7691606D01*
X8055702Y7689491D01*
X8055279Y7687236D01*
X8055138Y7684839D01*
X8054997Y7682302D01*
Y7682161D01*
Y7681738D01*
Y7681033D01*
X8055138Y7680046D01*
X8055279Y7679060D01*
X8055420Y7677650D01*
X8055561Y7676240D01*
X8055984Y7674690D01*
X8056830Y7671306D01*
X8058099Y7667782D01*
X8058945Y7666090D01*
X8060072Y7664399D01*
X8061200Y7662707D01*
X8062469Y7661156D01*
X8062610Y7661015D01*
X8062892Y7660874D01*
X8063315Y7660452D01*
X8063878Y7659888D01*
X8064583Y7659324D01*
X8065570Y7658760D01*
X8066557Y7658055D01*
X8067826Y7657350D01*
X8069235Y7656504D01*
X8070645Y7655800D01*
X8074169Y7654672D01*
X8078116Y7653685D01*
X8080231Y7653544D01*
X8082487Y7653403D01*
X8083614D01*
X8084319Y7653544D01*
X8085306D01*
X8086434Y7653685D01*
X8089112Y7654108D01*
X8092213Y7654672D01*
X8095456Y7655659D01*
X8098839Y7656927D01*
X8102081Y7658760D01*
Y7646496D01*
X8101940D01*
X8101658Y7646355D01*
X8101095Y7646073D01*
X8100531Y7645791D01*
X8099544Y7645368D01*
X8098557Y7645086D01*
X8097288Y7644663D01*
X8095879Y7644240D01*
X8094328Y7643676D01*
X8092636Y7643253D01*
X8090804Y7642971D01*
X8088830Y7642548D01*
X8084319Y7641984D01*
X8079526Y7641843D01*
X8078821D01*
X8077834Y7641984D01*
X8076707D01*
X8075156Y7642125D01*
X8073464Y7642407D01*
X8071632Y7642830D01*
X8069517Y7643253D01*
X8067403Y7643817D01*
X8065147Y7644522D01*
X8062751Y7645368D01*
X8060495Y7646496D01*
X8058099Y7647764D01*
X8055843Y7649174D01*
X8053729Y7650866D01*
X8051614Y7652839D01*
X8051473Y7652980D01*
X8051191Y7653403D01*
X8050627Y7653967D01*
X8049922Y7654813D01*
X8049218Y7655940D01*
X8048372Y7657209D01*
X8047385Y7658760D01*
X8046398Y7660593D01*
X8045411Y7662566D01*
X8044425Y7664681D01*
X8043579Y7667077D01*
X8042874Y7669615D01*
X8042169Y7672434D01*
X8041605Y7675394D01*
X8041323Y7678496D01*
X8041182Y7681738D01*
Y7682020D01*
Y7682584D01*
X8041323Y7683571D01*
Y7684980D01*
X8041605Y7686531D01*
X8041746Y7688364D01*
X8042169Y7690478D01*
X8042592Y7692875D01*
X8043297Y7695271D01*
X8044002Y7697809D01*
X8044988Y7700346D01*
X8046116Y7702884D01*
X8047526Y7705562D01*
X8049077Y7707958D01*
X8050768Y7710496D01*
X8052883Y7712751D01*
X8053024Y7712892D01*
X8053447Y7713315D01*
X8054152Y7713879D01*
X8054997Y7714584D01*
X8056125Y7715571D01*
X8057535Y7716558D01*
X8059226Y7717685D01*
X8061059Y7718813D01*
X8063174Y7719800D01*
X8065429Y7720928D01*
X8067826Y7721914D01*
X8070504Y7722901D01*
X8073323Y7723606D01*
X8076284Y7724170D01*
X8079526Y7724593D01*
X8082768Y7724734D01*
X8084742D01*
X8085729Y7724593D01*
D02*
G37*
G36*
X8141694Y7643253D02*
X8128725D01*
Y7709227D01*
X8128584Y7709086D01*
X8128161Y7708804D01*
X8127456Y7708381D01*
X8126469Y7707676D01*
X8125341Y7707113D01*
X8124073Y7706267D01*
X8121112Y7704857D01*
X8120971Y7704716D01*
X8120407Y7704575D01*
X8119562Y7704293D01*
X8118434Y7703870D01*
X8117165Y7703447D01*
X8115614Y7702884D01*
X8113782Y7702461D01*
X8111949Y7701897D01*
Y7713033D01*
X8112090D01*
X8112513Y7713174D01*
X8113077Y7713456D01*
X8113923Y7713738D01*
X8115896Y7714302D01*
X8118152Y7715148D01*
X8118293D01*
X8118716Y7715430D01*
X8119280Y7715571D01*
X8120125Y7715994D01*
X8121958Y7716840D01*
X8124073Y7717826D01*
X8124214D01*
X8124637Y7718108D01*
X8125200Y7718390D01*
X8125905Y7718813D01*
X8127879Y7719800D01*
X8129993Y7720928D01*
X8130134Y7721069D01*
X8130557Y7721210D01*
X8131121Y7721633D01*
X8131967Y7722196D01*
X8132813Y7722760D01*
X8133941Y7723465D01*
X8136196Y7725157D01*
X8141694D01*
Y7643253D01*
D02*
G37*
G36*
X8026380D02*
X8012706D01*
Y7723465D01*
X8026380D01*
Y7643253D01*
D02*
G37*
G36*
X7652391Y8194493D02*
X7653519D01*
X7656197Y8194211D01*
X7659298Y8193788D01*
X7662541Y8193224D01*
X7665783Y8192378D01*
X7668743Y8191251D01*
Y8178140D01*
X7668602D01*
X7668320Y8178281D01*
X7667898Y8178563D01*
X7667334Y8178845D01*
X7666629Y8179268D01*
X7665642Y8179691D01*
X7663527Y8180537D01*
X7660849Y8181383D01*
X7657748Y8182228D01*
X7654505Y8182792D01*
X7650840Y8182933D01*
X7649571D01*
X7648726Y8182792D01*
X7647598Y8182651D01*
X7646329Y8182510D01*
X7644919Y8182228D01*
X7643369Y8181947D01*
X7639985Y8180819D01*
X7638294Y8180255D01*
X7636461Y8179409D01*
X7634629Y8178422D01*
X7632937Y8177295D01*
X7631245Y8176026D01*
X7629695Y8174475D01*
X7629554Y8174334D01*
X7629413Y8174052D01*
X7628990Y8173629D01*
X7628426Y8172924D01*
X7627862Y8172079D01*
X7627157Y8171092D01*
X7626452Y8169964D01*
X7625748Y8168554D01*
X7624902Y8167004D01*
X7624197Y8165453D01*
X7623492Y8163620D01*
X7622928Y8161506D01*
X7622364Y8159391D01*
X7621941Y8157136D01*
X7621800Y8154739D01*
X7621659Y8152202D01*
Y8152061D01*
Y8151638D01*
Y8150933D01*
X7621800Y8149946D01*
X7621941Y8148960D01*
X7622082Y8147550D01*
X7622223Y8146140D01*
X7622646Y8144590D01*
X7623492Y8141206D01*
X7624761Y8137682D01*
X7625607Y8135990D01*
X7626734Y8134299D01*
X7627862Y8132607D01*
X7629131Y8131056D01*
X7629272Y8130915D01*
X7629554Y8130774D01*
X7629977Y8130352D01*
X7630540Y8129788D01*
X7631245Y8129224D01*
X7632232Y8128660D01*
X7633219Y8127955D01*
X7634488Y8127250D01*
X7635897Y8126404D01*
X7637307Y8125700D01*
X7640831Y8124572D01*
X7644778Y8123585D01*
X7646893Y8123444D01*
X7649149Y8123303D01*
X7650276D01*
X7650981Y8123444D01*
X7651968D01*
X7653096Y8123585D01*
X7655774Y8124008D01*
X7658875Y8124572D01*
X7662118Y8125559D01*
X7665501Y8126827D01*
X7668743Y8128660D01*
Y8116396D01*
X7668602D01*
X7668320Y8116255D01*
X7667757Y8115973D01*
X7667193Y8115691D01*
X7666206Y8115268D01*
X7665219Y8114986D01*
X7663950Y8114563D01*
X7662541Y8114140D01*
X7660990Y8113576D01*
X7659298Y8113153D01*
X7657466Y8112871D01*
X7655492Y8112448D01*
X7650981Y8111884D01*
X7646188Y8111743D01*
X7645483D01*
X7644497Y8111884D01*
X7643369D01*
X7641818Y8112025D01*
X7640126Y8112307D01*
X7638294Y8112730D01*
X7636179Y8113153D01*
X7634065Y8113717D01*
X7631809Y8114422D01*
X7629413Y8115268D01*
X7627157Y8116396D01*
X7624761Y8117664D01*
X7622505Y8119074D01*
X7620391Y8120766D01*
X7618276Y8122739D01*
X7618135Y8122880D01*
X7617853Y8123303D01*
X7617289Y8123867D01*
X7616584Y8124713D01*
X7615880Y8125840D01*
X7615034Y8127109D01*
X7614047Y8128660D01*
X7613060Y8130493D01*
X7612073Y8132466D01*
X7611087Y8134581D01*
X7610241Y8136977D01*
X7609536Y8139515D01*
X7608831Y8142334D01*
X7608267Y8145294D01*
X7607985Y8148396D01*
X7607844Y8151638D01*
Y8151920D01*
Y8152484D01*
X7607985Y8153471D01*
Y8154880D01*
X7608267Y8156431D01*
X7608408Y8158264D01*
X7608831Y8160378D01*
X7609254Y8162775D01*
X7609959Y8165171D01*
X7610664Y8167709D01*
X7611651Y8170246D01*
X7612778Y8172784D01*
X7614188Y8175462D01*
X7615739Y8177858D01*
X7617430Y8180396D01*
X7619545Y8182651D01*
X7619686Y8182792D01*
X7620109Y8183215D01*
X7620814Y8183779D01*
X7621659Y8184484D01*
X7622787Y8185471D01*
X7624197Y8186458D01*
X7625888Y8187585D01*
X7627721Y8188713D01*
X7629836Y8189700D01*
X7632091Y8190828D01*
X7634488Y8191814D01*
X7637166Y8192801D01*
X7639985Y8193506D01*
X7642946Y8194070D01*
X7646188Y8194493D01*
X7649430Y8194634D01*
X7651404D01*
X7652391Y8194493D01*
D02*
G37*
G36*
X7708356Y8113153D02*
X7695387D01*
Y8179127D01*
X7695246Y8178986D01*
X7694823Y8178704D01*
X7694118Y8178281D01*
X7693131Y8177576D01*
X7692003Y8177013D01*
X7690735Y8176167D01*
X7687774Y8174757D01*
X7687633Y8174616D01*
X7687069Y8174475D01*
X7686224Y8174193D01*
X7685096Y8173770D01*
X7683827Y8173347D01*
X7682276Y8172784D01*
X7680444Y8172361D01*
X7678611Y8171797D01*
Y8182933D01*
X7678752D01*
X7679175Y8183074D01*
X7679739Y8183356D01*
X7680585Y8183638D01*
X7682558Y8184202D01*
X7684814Y8185048D01*
X7684955D01*
X7685378Y8185330D01*
X7685942Y8185471D01*
X7686788Y8185894D01*
X7688620Y8186740D01*
X7690735Y8187726D01*
X7690876D01*
X7691299Y8188008D01*
X7691862Y8188290D01*
X7692567Y8188713D01*
X7694541Y8189700D01*
X7696655Y8190828D01*
X7696796Y8190969D01*
X7697219Y8191110D01*
X7697783Y8191533D01*
X7698629Y8192096D01*
X7699475Y8192660D01*
X7700603Y8193365D01*
X7702858Y8195057D01*
X7708356D01*
Y8113153D01*
D02*
G37*
G36*
X8607102Y6740848D02*
X8594133D01*
Y6806822D01*
X8593992Y6806681D01*
X8593569Y6806399D01*
X8592864Y6805976D01*
X8591878Y6805272D01*
X8590750Y6804708D01*
X8589481Y6803862D01*
X8586521Y6802452D01*
X8586380Y6802311D01*
X8585816Y6802170D01*
X8584970Y6801888D01*
X8583842Y6801465D01*
X8582574Y6801043D01*
X8581023Y6800479D01*
X8579190Y6800056D01*
X8577358Y6799492D01*
Y6810628D01*
X8577499D01*
X8577922Y6810769D01*
X8578486Y6811051D01*
X8579331Y6811333D01*
X8581305Y6811897D01*
X8583560Y6812743D01*
X8583701D01*
X8584124Y6813025D01*
X8584688Y6813166D01*
X8585534Y6813589D01*
X8587367Y6814435D01*
X8589481Y6815421D01*
X8589622D01*
X8590045Y6815703D01*
X8590609Y6815985D01*
X8591314Y6816408D01*
X8593287Y6817395D01*
X8595402Y6818523D01*
X8595543Y6818664D01*
X8595966Y6818805D01*
X8596530Y6819228D01*
X8597375Y6819792D01*
X8598221Y6820355D01*
X8599349Y6821060D01*
X8601605Y6822752D01*
X8607102D01*
Y6740848D01*
D02*
G37*
G36*
X8525763Y6820919D02*
X8526750D01*
X8527877Y6820778D01*
X8529287Y6820637D01*
X8530697Y6820496D01*
X8534080Y6819933D01*
X8537745Y6818946D01*
X8541833Y6817818D01*
X8545921Y6816126D01*
X8550010Y6814153D01*
X8552124Y6812884D01*
X8554098Y6811474D01*
X8555930Y6809924D01*
X8557763Y6808373D01*
X8559455Y6806540D01*
X8561146Y6804567D01*
X8562697Y6802311D01*
X8563966Y6800056D01*
X8565093Y6797518D01*
X8566221Y6794840D01*
X8566926Y6791879D01*
X8567631Y6788778D01*
X8567913Y6785395D01*
X8568054Y6781871D01*
Y6781730D01*
Y6781025D01*
X8567913Y6780038D01*
Y6778769D01*
X8567631Y6777219D01*
X8567349Y6775386D01*
X8567067Y6773412D01*
X8566503Y6771157D01*
X8565939Y6768760D01*
X8565093Y6766364D01*
X8564107Y6763967D01*
X8562838Y6761430D01*
X8561428Y6758893D01*
X8559877Y6756496D01*
X8557904Y6754240D01*
X8555789Y6751985D01*
X8555648Y6751844D01*
X8555225Y6751562D01*
X8554521Y6750998D01*
X8553534Y6750293D01*
X8552265Y6749448D01*
X8550855Y6748461D01*
X8549023Y6747474D01*
X8547049Y6746487D01*
X8544794Y6745359D01*
X8542397Y6744373D01*
X8539578Y6743386D01*
X8536758Y6742540D01*
X8533516Y6741835D01*
X8530133Y6741271D01*
X8526609Y6740989D01*
X8522802Y6740848D01*
X8500670D01*
Y6821060D01*
X8524917D01*
X8525763Y6820919D01*
D02*
G37*
G36*
X8484599Y6809783D02*
X8454714D01*
Y6787087D01*
X8482344D01*
Y6775809D01*
X8454714D01*
Y6752126D01*
X8486432D01*
Y6740848D01*
X8441463D01*
Y6821060D01*
X8484599D01*
Y6809783D01*
D02*
G37*
G36*
X8398749Y6752126D02*
X8429762D01*
Y6740848D01*
X8385498D01*
Y6821060D01*
X8398749D01*
Y6752126D01*
D02*
G37*
G36*
X8137759Y6740848D02*
X8124790D01*
Y6806822D01*
X8124649Y6806681D01*
X8124226Y6806399D01*
X8123521Y6805976D01*
X8122535Y6805272D01*
X8121407Y6804708D01*
X8120138Y6803862D01*
X8117178Y6802452D01*
X8117037Y6802311D01*
X8116473Y6802170D01*
X8115627Y6801888D01*
X8114499Y6801465D01*
X8113231Y6801043D01*
X8111680Y6800479D01*
X8109847Y6800056D01*
X8108015Y6799492D01*
Y6810628D01*
X8108156D01*
X8108579Y6810769D01*
X8109143Y6811051D01*
X8109988Y6811333D01*
X8111962Y6811897D01*
X8114217Y6812743D01*
X8114358D01*
X8114781Y6813025D01*
X8115345Y6813166D01*
X8116191Y6813589D01*
X8118024Y6814435D01*
X8120138Y6815421D01*
X8120279D01*
X8120702Y6815703D01*
X8121266Y6815985D01*
X8121971Y6816408D01*
X8123944Y6817395D01*
X8126059Y6818523D01*
X8126200Y6818664D01*
X8126623Y6818805D01*
X8127187Y6819228D01*
X8128033Y6819792D01*
X8128878Y6820355D01*
X8130006Y6821060D01*
X8132262Y6822752D01*
X8137759D01*
Y6740848D01*
D02*
G37*
G36*
X8071785Y6820919D02*
X8073336Y6820778D01*
X8075169Y6820496D01*
X8078693Y6819651D01*
X8078975D01*
X8079539Y6819369D01*
X8080385Y6819087D01*
X8081512Y6818664D01*
X8082781Y6818100D01*
X8084191Y6817395D01*
X8087010Y6815562D01*
X8087151Y6815421D01*
X8087574Y6815140D01*
X8088279Y6814435D01*
X8088984Y6813730D01*
X8089971Y6812743D01*
X8090816Y6811615D01*
X8091662Y6810206D01*
X8092508Y6808796D01*
X8092649Y6808655D01*
X8092790Y6808091D01*
X8093072Y6807245D01*
X8093495Y6806117D01*
X8093918Y6804708D01*
X8094200Y6803157D01*
X8094341Y6801324D01*
X8094482Y6799351D01*
Y6799210D01*
Y6798646D01*
Y6797800D01*
X8094341Y6796813D01*
X8094200Y6795545D01*
X8093918Y6794276D01*
X8093213Y6791598D01*
Y6791457D01*
X8093072Y6791034D01*
X8092790Y6790329D01*
X8092367Y6789483D01*
X8091239Y6787509D01*
X8089689Y6785254D01*
X8089548Y6785113D01*
X8089266Y6784831D01*
X8088843Y6784267D01*
X8088138Y6783562D01*
X8087292Y6782857D01*
X8086305Y6782012D01*
X8084050Y6780461D01*
X8083909Y6780320D01*
X8083486Y6780179D01*
X8082781Y6779756D01*
X8081935Y6779474D01*
X8080808Y6778910D01*
X8079539Y6778487D01*
X8076719Y6777501D01*
Y6777219D01*
X8076860D01*
X8077142Y6777078D01*
X8077565Y6776796D01*
X8077988Y6776514D01*
X8079257Y6775668D01*
X8080526Y6774540D01*
X8080667D01*
X8080808Y6774258D01*
X8081512Y6773694D01*
X8082499Y6772708D01*
X8083627Y6771439D01*
X8083909Y6771157D01*
X8084473Y6770452D01*
X8085460Y6769324D01*
X8086446Y6767915D01*
X8086587Y6767774D01*
X8086728Y6767633D01*
X8087010Y6767210D01*
X8087433Y6766646D01*
X8088420Y6765236D01*
X8089689Y6763404D01*
X8103927Y6740848D01*
X8088420D01*
X8075592Y6762276D01*
X8075451Y6762417D01*
X8075310Y6762840D01*
X8075028Y6763263D01*
X8074605Y6763967D01*
X8073477Y6765659D01*
X8072208Y6767351D01*
X8072067Y6767492D01*
X8071926Y6767774D01*
X8071222Y6768619D01*
X8070094Y6769606D01*
X8068825Y6770734D01*
X8068684D01*
X8068543Y6771016D01*
X8067697Y6771580D01*
X8066570Y6772144D01*
X8065160Y6772708D01*
X8065019D01*
X8064878Y6772849D01*
X8064455Y6772990D01*
X8063891Y6773130D01*
X8062481Y6773271D01*
X8060649Y6773412D01*
X8055292D01*
Y6740848D01*
X8042041D01*
Y6821060D01*
X8070376D01*
X8071785Y6820919D01*
D02*
G37*
G36*
X7801895Y7116947D02*
Y7116806D01*
Y7116524D01*
Y7116101D01*
Y7115537D01*
X7801754Y7114691D01*
Y7113845D01*
X7801331Y7111731D01*
X7800908Y7109193D01*
X7800204Y7106233D01*
X7799217Y7103273D01*
X7797948Y7100171D01*
X7796256Y7096929D01*
X7794142Y7093969D01*
X7791463Y7091008D01*
X7788362Y7088471D01*
X7786670Y7087343D01*
X7784697Y7086356D01*
X7782723Y7085510D01*
X7780468Y7084665D01*
X7778071Y7084101D01*
X7775534Y7083678D01*
X7772855Y7083396D01*
X7769895Y7083255D01*
X7768626D01*
X7767076Y7083537D01*
X7765102Y7083819D01*
X7762847Y7084242D01*
X7760168Y7084946D01*
X7757490Y7085933D01*
X7754670Y7087343D01*
X7751710Y7089035D01*
X7749031Y7091149D01*
X7746353Y7093828D01*
X7745225Y7095237D01*
X7744098Y7096929D01*
X7743111Y7098762D01*
X7742124Y7100594D01*
X7741278Y7102709D01*
X7740573Y7104964D01*
X7740009Y7107361D01*
X7739587Y7110039D01*
X7739446Y7112718D01*
X7739305Y7115678D01*
Y7164876D01*
X7752556D01*
Y7118356D01*
Y7118074D01*
Y7117370D01*
X7752697Y7116242D01*
X7752838Y7114691D01*
X7753120Y7112859D01*
X7753543Y7110885D01*
X7754106Y7108770D01*
X7754811Y7106656D01*
X7755798Y7104400D01*
X7757067Y7102286D01*
X7758476Y7100312D01*
X7760309Y7098480D01*
X7762424Y7096929D01*
X7764820Y7095801D01*
X7767640Y7095096D01*
X7770882Y7094814D01*
X7771587D01*
X7772573Y7094955D01*
X7773701Y7095237D01*
X7774970Y7095519D01*
X7776521Y7096083D01*
X7778071Y7096788D01*
X7779763Y7097634D01*
X7781455Y7098902D01*
X7783005Y7100312D01*
X7784556Y7102145D01*
X7785825Y7104400D01*
X7786952Y7106938D01*
X7787939Y7110039D01*
X7788503Y7113563D01*
X7788644Y7117511D01*
Y7164876D01*
X7801895D01*
Y7116947D01*
D02*
G37*
G36*
X7843481Y7166004D02*
X7844750D01*
X7846301Y7165722D01*
X7847851Y7165440D01*
X7849543Y7165158D01*
X7851235Y7164595D01*
X7851376D01*
X7851940Y7164313D01*
X7852785Y7164031D01*
X7853913Y7163608D01*
X7855041Y7162903D01*
X7856310Y7162198D01*
X7858847Y7160365D01*
X7858988Y7160224D01*
X7859411Y7159942D01*
X7859975Y7159238D01*
X7860680Y7158533D01*
X7861385Y7157546D01*
X7862230Y7156277D01*
X7862935Y7155009D01*
X7863640Y7153458D01*
X7863781Y7153317D01*
X7863922Y7152753D01*
X7864204Y7151907D01*
X7864486Y7150779D01*
X7864768Y7149370D01*
X7865050Y7147819D01*
X7865332Y7145986D01*
Y7144013D01*
Y7143872D01*
Y7143167D01*
Y7142321D01*
X7865191Y7141193D01*
X7865050Y7139784D01*
X7864768Y7138374D01*
X7864063Y7135273D01*
Y7135132D01*
X7863922Y7134568D01*
X7863640Y7133863D01*
X7863217Y7133017D01*
X7862794Y7131889D01*
X7862230Y7130621D01*
X7860680Y7128083D01*
X7860539Y7127942D01*
X7860257Y7127519D01*
X7859834Y7126815D01*
X7859270Y7125969D01*
X7858424Y7124982D01*
X7857578Y7123995D01*
X7855464Y7121599D01*
X7855323Y7121458D01*
X7854900Y7121035D01*
X7854336Y7120471D01*
X7853490Y7119766D01*
X7852363Y7118779D01*
X7851235Y7117792D01*
X7848415Y7115537D01*
X7848274Y7115396D01*
X7847851Y7115114D01*
X7847288Y7114550D01*
X7846442Y7113845D01*
X7845455Y7113140D01*
X7844327Y7112154D01*
X7841931Y7110321D01*
X7841790Y7110180D01*
X7841367Y7109898D01*
X7840803Y7109475D01*
X7840098Y7108770D01*
X7838125Y7107361D01*
X7836151Y7105528D01*
X7836010Y7105387D01*
X7835728Y7105105D01*
X7835305Y7104682D01*
X7834741Y7103977D01*
X7833332Y7102568D01*
X7832063Y7100735D01*
Y7100594D01*
X7831781Y7100312D01*
X7831640Y7099889D01*
X7831358Y7099325D01*
X7830794Y7097775D01*
X7830653Y7096929D01*
X7830512Y7095942D01*
Y7095801D01*
X7866600D01*
Y7084665D01*
X7816274D01*
Y7090867D01*
Y7091008D01*
Y7091572D01*
Y7092277D01*
X7816415Y7093123D01*
X7816556Y7094250D01*
X7816697Y7095519D01*
X7817261Y7097916D01*
Y7098057D01*
X7817402Y7098480D01*
X7817684Y7099184D01*
X7818107Y7100030D01*
X7818953Y7102004D01*
X7820221Y7104118D01*
X7820362Y7104259D01*
X7820503Y7104682D01*
X7820926Y7105246D01*
X7821490Y7105951D01*
X7822759Y7107643D01*
X7824450Y7109616D01*
X7824591Y7109757D01*
X7824873Y7110039D01*
X7825296Y7110603D01*
X7826001Y7111308D01*
X7827552Y7112859D01*
X7829525Y7114691D01*
X7829666Y7114832D01*
X7829948Y7115114D01*
X7830512Y7115678D01*
X7831358Y7116242D01*
X7833050Y7117792D01*
X7835164Y7119484D01*
X7835305Y7119625D01*
X7835587Y7119907D01*
X7836151Y7120330D01*
X7836997Y7120894D01*
X7838688Y7122304D01*
X7840803Y7123995D01*
X7840944Y7124136D01*
X7841226Y7124418D01*
X7841790Y7124841D01*
X7842354Y7125405D01*
X7843904Y7126674D01*
X7845455Y7128224D01*
X7845596Y7128365D01*
X7845878Y7128647D01*
X7846160Y7129070D01*
X7846724Y7129634D01*
X7847851Y7130903D01*
X7848979Y7132594D01*
X7849120Y7132735D01*
X7849261Y7133017D01*
X7849543Y7133440D01*
X7849825Y7134004D01*
X7850671Y7135555D01*
X7851376Y7137246D01*
Y7137387D01*
X7851517Y7137669D01*
X7851658Y7138233D01*
X7851799Y7138938D01*
X7852081Y7140630D01*
X7852222Y7142744D01*
Y7142885D01*
Y7143308D01*
Y7143872D01*
X7852081Y7144718D01*
X7851799Y7146409D01*
X7851235Y7148242D01*
Y7148383D01*
X7851094Y7148665D01*
X7850812Y7149088D01*
X7850530Y7149652D01*
X7849684Y7150920D01*
X7848415Y7152189D01*
X7848274Y7152330D01*
X7848133Y7152471D01*
X7847288Y7153176D01*
X7846019Y7154022D01*
X7844327Y7154727D01*
X7844186D01*
X7843904Y7154868D01*
X7843481Y7155009D01*
X7842777Y7155150D01*
X7841085Y7155431D01*
X7839111Y7155572D01*
X7838266D01*
X7837279Y7155431D01*
X7836010Y7155290D01*
X7834459Y7155009D01*
X7832768Y7154586D01*
X7830935Y7154022D01*
X7829102Y7153176D01*
X7828821Y7153035D01*
X7828257Y7152753D01*
X7827270Y7152189D01*
X7826001Y7151484D01*
X7824450Y7150498D01*
X7822900Y7149370D01*
X7821067Y7147960D01*
X7819376Y7146268D01*
Y7158815D01*
X7819516Y7158956D01*
X7819798Y7159097D01*
X7820221Y7159520D01*
X7820926Y7159942D01*
X7822477Y7160929D01*
X7824309Y7161916D01*
X7824450D01*
X7824732Y7162198D01*
X7825296Y7162480D01*
X7825860Y7162762D01*
X7827552Y7163467D01*
X7829525Y7164172D01*
X7829666D01*
X7829948Y7164313D01*
X7830512Y7164454D01*
X7831217Y7164735D01*
X7833050Y7165158D01*
X7835164Y7165581D01*
X7835305D01*
X7835728Y7165722D01*
X7836292D01*
X7837138Y7165863D01*
X7837984Y7166004D01*
X7839111D01*
X7841508Y7166145D01*
X7842354D01*
X7843481Y7166004D01*
D02*
G37*
G36*
X7699833Y7164735D02*
X7700961D01*
X7702370Y7164595D01*
X7703780Y7164313D01*
X7705472Y7164031D01*
X7708855Y7163326D01*
X7712520Y7162198D01*
X7715904Y7160506D01*
X7717454Y7159520D01*
X7719005Y7158392D01*
X7719146Y7158251D01*
X7719287Y7158110D01*
X7719710Y7157687D01*
X7720133Y7157264D01*
X7720837Y7156559D01*
X7721401Y7155713D01*
X7722811Y7153740D01*
X7724221Y7151061D01*
X7725490Y7147960D01*
X7726335Y7144295D01*
X7726476Y7142321D01*
X7726617Y7140207D01*
Y7140066D01*
Y7139643D01*
Y7139079D01*
X7726476Y7138233D01*
X7726335Y7137246D01*
X7726194Y7136119D01*
X7725630Y7133440D01*
X7724644Y7130339D01*
X7724080Y7128788D01*
X7723234Y7127237D01*
X7722247Y7125546D01*
X7721260Y7123995D01*
X7719992Y7122444D01*
X7718582Y7121035D01*
X7718441Y7120894D01*
X7718159Y7120753D01*
X7717736Y7120330D01*
X7717172Y7119907D01*
X7716326Y7119343D01*
X7715340Y7118779D01*
X7714212Y7118074D01*
X7712943Y7117370D01*
X7711533Y7116665D01*
X7709842Y7115960D01*
X7708150Y7115396D01*
X7706177Y7114832D01*
X7704203Y7114409D01*
X7701948Y7113986D01*
X7699692Y7113845D01*
X7697155Y7113704D01*
X7686582D01*
Y7084665D01*
X7673331D01*
Y7164876D01*
X7698846D01*
X7699833Y7164735D01*
D02*
G37*
G36*
X7631744D02*
X7633295Y7164595D01*
X7635128Y7164313D01*
X7638652Y7163467D01*
X7638934D01*
X7639498Y7163185D01*
X7640344Y7162903D01*
X7641471Y7162480D01*
X7642740Y7161916D01*
X7644150Y7161211D01*
X7646969Y7159379D01*
X7647110Y7159238D01*
X7647533Y7158956D01*
X7648238Y7158251D01*
X7648943Y7157546D01*
X7649930Y7156559D01*
X7650775Y7155431D01*
X7651621Y7154022D01*
X7652467Y7152612D01*
X7652608Y7152471D01*
X7652749Y7151907D01*
X7653031Y7151061D01*
X7653454Y7149934D01*
X7653877Y7148524D01*
X7654159Y7146973D01*
X7654300Y7145141D01*
X7654441Y7143167D01*
Y7143026D01*
Y7142462D01*
Y7141616D01*
X7654300Y7140630D01*
X7654159Y7139361D01*
X7653877Y7138092D01*
X7653172Y7135414D01*
Y7135273D01*
X7653031Y7134850D01*
X7652749Y7134145D01*
X7652326Y7133299D01*
X7651198Y7131326D01*
X7649648Y7129070D01*
X7649507Y7128929D01*
X7649225Y7128647D01*
X7648802Y7128083D01*
X7648097Y7127378D01*
X7647251Y7126674D01*
X7646264Y7125828D01*
X7644009Y7124277D01*
X7643868Y7124136D01*
X7643445Y7123995D01*
X7642740Y7123572D01*
X7641894Y7123290D01*
X7640767Y7122726D01*
X7639498Y7122304D01*
X7636678Y7121317D01*
Y7121035D01*
X7636819D01*
X7637101Y7120894D01*
X7637524Y7120612D01*
X7637947Y7120330D01*
X7639216Y7119484D01*
X7640485Y7118356D01*
X7640626D01*
X7640767Y7118074D01*
X7641471Y7117511D01*
X7642458Y7116524D01*
X7643586Y7115255D01*
X7643868Y7114973D01*
X7644432Y7114268D01*
X7645419Y7113140D01*
X7646405Y7111731D01*
X7646546Y7111590D01*
X7646687Y7111449D01*
X7646969Y7111026D01*
X7647392Y7110462D01*
X7648379Y7109052D01*
X7649648Y7107220D01*
X7663886Y7084665D01*
X7648379D01*
X7635551Y7106092D01*
X7635410Y7106233D01*
X7635269Y7106656D01*
X7634987Y7107079D01*
X7634564Y7107784D01*
X7633436Y7109475D01*
X7632167Y7111167D01*
X7632026Y7111308D01*
X7631885Y7111590D01*
X7631181Y7112436D01*
X7630053Y7113422D01*
X7628784Y7114550D01*
X7628643D01*
X7628502Y7114832D01*
X7627656Y7115396D01*
X7626529Y7115960D01*
X7625119Y7116524D01*
X7624978D01*
X7624837Y7116665D01*
X7624414Y7116806D01*
X7623850Y7116947D01*
X7622440Y7117088D01*
X7620608Y7117229D01*
X7615251D01*
Y7084665D01*
X7602000D01*
Y7164876D01*
X7630335D01*
X7631744Y7164735D01*
D02*
G37*
%LPC*%
G36*
X9024032Y7829390D02*
X9009747Y7803264D01*
X9027885D01*
X9024032Y7829390D01*
D02*
G37*
G36*
X8955990Y7832303D02*
X8946123D01*
X8936913Y7788415D01*
X8945465D01*
X8946217Y7788509D01*
X8947814D01*
X8949600Y7788603D01*
X8951291Y7788791D01*
X8952983Y7788979D01*
X8953735Y7789073D01*
X8954393Y7789261D01*
X8954581Y7789354D01*
X8954957Y7789448D01*
X8955615Y7789730D01*
X8956460Y7790012D01*
X8957400Y7790482D01*
X8958434Y7791046D01*
X8959468Y7791798D01*
X8960502Y7792644D01*
X8960595D01*
X8960689Y7792832D01*
X8961159Y7793302D01*
X8961911Y7794147D01*
X8962851Y7795181D01*
X8963979Y7796591D01*
X8965107Y7798283D01*
X8966234Y7800162D01*
X8967268Y7802230D01*
Y7802324D01*
X8967362Y7802512D01*
X8967550Y7802888D01*
X8967738Y7803264D01*
X8967926Y7803921D01*
X8968114Y7804579D01*
X8968396Y7805331D01*
X8968678Y7806271D01*
X8968866Y7807211D01*
X8969148Y7808338D01*
X8969618Y7810782D01*
X8969900Y7813507D01*
X8969993Y7816421D01*
Y7816515D01*
Y7816703D01*
Y7817079D01*
Y7817548D01*
X8969900Y7818112D01*
Y7818770D01*
X8969712Y7820368D01*
X8969430Y7822060D01*
X8969054Y7823751D01*
X8968490Y7825443D01*
X8967738Y7826853D01*
X8967644Y7827040D01*
X8967362Y7827416D01*
X8966892Y7827980D01*
X8966234Y7828732D01*
X8965388Y7829484D01*
X8964449Y7830236D01*
X8963321Y7830894D01*
X8962099Y7831458D01*
X8962005D01*
X8961629Y7831552D01*
X8961065Y7831739D01*
X8960220Y7831927D01*
X8959092Y7832021D01*
X8957682Y7832209D01*
X8955990Y7832303D01*
D02*
G37*
G36*
X9035839Y7933903D02*
X9025971D01*
X9016761Y7890015D01*
X9025313D01*
X9026065Y7890109D01*
X9027663D01*
X9029449Y7890203D01*
X9031140Y7890391D01*
X9032832Y7890579D01*
X9033584Y7890673D01*
X9034242Y7890861D01*
X9034429Y7890954D01*
X9034805Y7891048D01*
X9035463Y7891330D01*
X9036309Y7891612D01*
X9037249Y7892082D01*
X9038283Y7892646D01*
X9039316Y7893398D01*
X9040350Y7894244D01*
X9040444D01*
X9040538Y7894432D01*
X9041008Y7894902D01*
X9041760Y7895747D01*
X9042700Y7896781D01*
X9043827Y7898191D01*
X9044955Y7899883D01*
X9046083Y7901762D01*
X9047117Y7903830D01*
Y7903924D01*
X9047211Y7904112D01*
X9047399Y7904488D01*
X9047587Y7904864D01*
X9047775Y7905521D01*
X9047963Y7906179D01*
X9048245Y7906931D01*
X9048526Y7907871D01*
X9048714Y7908811D01*
X9048996Y7909938D01*
X9049466Y7912382D01*
X9049748Y7915107D01*
X9049842Y7918021D01*
Y7918115D01*
Y7918303D01*
Y7918679D01*
Y7919149D01*
X9049748Y7919712D01*
Y7920370D01*
X9049560Y7921968D01*
X9049278Y7923660D01*
X9048902Y7925351D01*
X9048339Y7927043D01*
X9047587Y7928453D01*
X9047493Y7928640D01*
X9047211Y7929016D01*
X9046741Y7929580D01*
X9046083Y7930332D01*
X9045237Y7931084D01*
X9044297Y7931836D01*
X9043170Y7932494D01*
X9041948Y7933058D01*
X9041854D01*
X9041478Y7933152D01*
X9040914Y7933339D01*
X9040068Y7933527D01*
X9038941Y7933621D01*
X9037531Y7933809D01*
X9035839Y7933903D01*
D02*
G37*
G36*
X9022340Y8137103D02*
X9010499D01*
X9006552Y8118495D01*
X9013224D01*
X9014258Y8118589D01*
X9016420Y8118683D01*
X9018769Y8118777D01*
X9021119Y8119059D01*
X9022152Y8119247D01*
X9023186Y8119341D01*
X9024032Y8119623D01*
X9024784Y8119811D01*
X9024972Y8119905D01*
X9025348Y8120093D01*
X9026006Y8120375D01*
X9026851Y8120845D01*
X9027697Y8121409D01*
X9028637Y8122161D01*
X9029577Y8123006D01*
X9030423Y8123946D01*
X9030517Y8124040D01*
X9030705Y8124416D01*
X9031080Y8125074D01*
X9031456Y8125826D01*
X9031832Y8126766D01*
X9032208Y8127893D01*
X9032396Y8129021D01*
X9032490Y8130337D01*
Y8130431D01*
Y8130713D01*
X9032396Y8131183D01*
Y8131746D01*
X9032020Y8132968D01*
X9031738Y8133626D01*
X9031362Y8134190D01*
Y8134284D01*
X9031174Y8134472D01*
X9030611Y8135036D01*
X9029671Y8135694D01*
X9028449Y8136352D01*
X9028355D01*
X9028073Y8136445D01*
X9027509Y8136633D01*
X9026663Y8136727D01*
X9025630Y8136915D01*
X9024126Y8137009D01*
X9023280D01*
X9022340Y8137103D01*
D02*
G37*
G36*
X8822539Y8121409D02*
X8821881D01*
X8821035Y8121315D01*
X8820095Y8121127D01*
X8818968Y8120751D01*
X8817746Y8120281D01*
X8816430Y8119623D01*
X8815208Y8118777D01*
X8815114Y8118683D01*
X8814645Y8118307D01*
X8814081Y8117743D01*
X8813423Y8116898D01*
X8812577Y8115864D01*
X8811731Y8114548D01*
X8810979Y8113044D01*
X8810227Y8111353D01*
Y8111259D01*
X8810134Y8111165D01*
X8810040Y8110883D01*
X8809946Y8110507D01*
X8809664Y8109567D01*
X8809382Y8108439D01*
X8809100Y8107030D01*
X8808818Y8105526D01*
X8808630Y8103928D01*
X8808536Y8102425D01*
Y8102331D01*
Y8102237D01*
Y8101955D01*
Y8101579D01*
X8808724Y8100639D01*
X8808912Y8099511D01*
X8809194Y8098196D01*
X8809664Y8096880D01*
X8810321Y8095564D01*
X8811261Y8094342D01*
X8811355Y8094248D01*
X8811731Y8093873D01*
X8812389Y8093403D01*
X8813141Y8092933D01*
X8814175Y8092369D01*
X8815302Y8091899D01*
X8816618Y8091523D01*
X8818122Y8091429D01*
X8818592D01*
X8818968Y8091523D01*
X8820001Y8091711D01*
X8821223Y8091993D01*
X8822633Y8092557D01*
X8824043Y8093309D01*
X8825546Y8094436D01*
X8826298Y8095094D01*
X8826956Y8095846D01*
X8827050Y8095940D01*
X8827144Y8096128D01*
X8827426Y8096504D01*
X8827708Y8096974D01*
X8828178Y8097632D01*
X8828554Y8098384D01*
X8829023Y8099229D01*
X8829493Y8100169D01*
X8829963Y8101297D01*
X8830433Y8102425D01*
X8830903Y8103740D01*
X8831279Y8105056D01*
X8831843Y8108064D01*
X8831937Y8109661D01*
X8832031Y8111353D01*
Y8111447D01*
Y8111541D01*
Y8112105D01*
X8831937Y8112950D01*
X8831655Y8113984D01*
X8831373Y8115112D01*
X8830903Y8116334D01*
X8830245Y8117462D01*
X8829305Y8118589D01*
X8829211Y8118683D01*
X8828836Y8119059D01*
X8828272Y8119529D01*
X8827520Y8119999D01*
X8826486Y8120563D01*
X8825358Y8120939D01*
X8824043Y8121315D01*
X8822539Y8121409D01*
D02*
G37*
G36*
X7998981Y7407669D02*
X7989396D01*
Y7378348D01*
X7999404D01*
X8000955Y7378630D01*
X8002788Y7378912D01*
X8004902Y7379334D01*
X8007017Y7380039D01*
X8009131Y7381026D01*
X8010964Y7382295D01*
X8011105Y7382436D01*
X8011669Y7383000D01*
X8012374Y7383987D01*
X8013219Y7385114D01*
X8014065Y7386806D01*
X8014770Y7388639D01*
X8015334Y7390894D01*
X8015475Y7393431D01*
Y7393572D01*
Y7393995D01*
X8015334Y7394700D01*
X8015193Y7395687D01*
X8014911Y7396674D01*
X8014629Y7397943D01*
X8014065Y7399211D01*
X8013360Y7400621D01*
X8012515Y7401890D01*
X8011387Y7403158D01*
X8010118Y7404427D01*
X8008567Y7405414D01*
X8006594Y7406401D01*
X8004479Y7407106D01*
X8001942Y7407528D01*
X7998981Y7407669D01*
D02*
G37*
G36*
X7929201Y7407810D02*
X7918065D01*
Y7381872D01*
X7930188D01*
X7930893Y7382013D01*
X7932726Y7382295D01*
X7934699Y7382718D01*
X7934840D01*
X7935122Y7382859D01*
X7935686Y7383141D01*
X7936250Y7383423D01*
X7937800Y7384268D01*
X7939210Y7385396D01*
X7939351Y7385537D01*
X7939492Y7385678D01*
X7939915Y7386101D01*
X7940338Y7386665D01*
X7941325Y7388075D01*
X7942171Y7389766D01*
Y7389907D01*
X7942312Y7390189D01*
X7942593Y7390753D01*
X7942734Y7391458D01*
X7943016Y7392304D01*
X7943157Y7393291D01*
X7943298Y7395546D01*
Y7395828D01*
Y7396533D01*
X7943157Y7397520D01*
X7942875Y7398788D01*
X7942452Y7400339D01*
X7941748Y7401749D01*
X7940902Y7403299D01*
X7939633Y7404568D01*
X7939492Y7404709D01*
X7938928Y7405132D01*
X7938082Y7405555D01*
X7936955Y7406260D01*
X7935545Y7406824D01*
X7933712Y7407247D01*
X7931598Y7407669D01*
X7929201Y7407810D01*
D02*
G37*
G36*
X8525058Y6809783D02*
X8513921D01*
Y6752126D01*
X8525904D01*
X8526890Y6752267D01*
X8528018Y6752408D01*
X8529428Y6752549D01*
X8530838Y6752831D01*
X8532529Y6753113D01*
X8536054Y6753959D01*
X8539719Y6755368D01*
X8541410Y6756214D01*
X8543243Y6757201D01*
X8544794Y6758470D01*
X8546344Y6759738D01*
X8546485Y6759879D01*
X8546626Y6760161D01*
X8547049Y6760584D01*
X8547613Y6761148D01*
X8548177Y6761994D01*
X8548741Y6762981D01*
X8549446Y6764108D01*
X8550292Y6765377D01*
X8550996Y6766787D01*
X8551701Y6768478D01*
X8552265Y6770311D01*
X8552829Y6772285D01*
X8553393Y6774399D01*
X8553816Y6776655D01*
X8553957Y6779051D01*
X8554098Y6781589D01*
Y6781730D01*
Y6781871D01*
Y6782294D01*
Y6782857D01*
X8553957Y6784126D01*
X8553675Y6785959D01*
X8553252Y6788073D01*
X8552547Y6790470D01*
X8551701Y6793007D01*
X8550432Y6795686D01*
X8548882Y6798364D01*
X8547049Y6800902D01*
X8544653Y6803298D01*
X8541833Y6805413D01*
X8538591Y6807245D01*
X8536617Y6807950D01*
X8534644Y6808514D01*
X8532529Y6809078D01*
X8530133Y6809501D01*
X8527736Y6809642D01*
X8525058Y6809783D01*
D02*
G37*
G36*
X8066429Y6810206D02*
X8055292D01*
Y6784267D01*
X8067415D01*
X8068120Y6784408D01*
X8069953Y6784690D01*
X8071926Y6785113D01*
X8072067D01*
X8072349Y6785254D01*
X8072913Y6785536D01*
X8073477Y6785818D01*
X8075028Y6786664D01*
X8076437Y6787791D01*
X8076578Y6787932D01*
X8076719Y6788073D01*
X8077142Y6788496D01*
X8077565Y6789060D01*
X8078552Y6790470D01*
X8079398Y6792161D01*
Y6792302D01*
X8079539Y6792584D01*
X8079821Y6793148D01*
X8079962Y6793853D01*
X8080244Y6794699D01*
X8080385Y6795686D01*
X8080526Y6797941D01*
Y6798223D01*
Y6798928D01*
X8080385Y6799915D01*
X8080103Y6801184D01*
X8079680Y6802734D01*
X8078975Y6804144D01*
X8078129Y6805695D01*
X8076860Y6806963D01*
X8076719Y6807104D01*
X8076156Y6807527D01*
X8075310Y6807950D01*
X8074182Y6808655D01*
X8072772Y6809219D01*
X8070940Y6809642D01*
X8068825Y6810065D01*
X8066429Y6810206D01*
D02*
G37*
G36*
X7696168Y7153881D02*
X7686582D01*
Y7124559D01*
X7696591D01*
X7698141Y7124841D01*
X7699974Y7125123D01*
X7702088Y7125546D01*
X7704203Y7126251D01*
X7706318Y7127237D01*
X7708150Y7128506D01*
X7708291Y7128647D01*
X7708855Y7129211D01*
X7709560Y7130198D01*
X7710406Y7131326D01*
X7711252Y7133017D01*
X7711956Y7134850D01*
X7712520Y7137105D01*
X7712661Y7139643D01*
Y7139784D01*
Y7140207D01*
X7712520Y7140912D01*
X7712379Y7141898D01*
X7712097Y7142885D01*
X7711815Y7144154D01*
X7711252Y7145423D01*
X7710547Y7146832D01*
X7709701Y7148101D01*
X7708573Y7149370D01*
X7707304Y7150638D01*
X7705754Y7151625D01*
X7703780Y7152612D01*
X7701666Y7153317D01*
X7699128Y7153740D01*
X7696168Y7153881D01*
D02*
G37*
G36*
X7626388Y7154022D02*
X7615251D01*
Y7128083D01*
X7627374D01*
X7628079Y7128224D01*
X7629912Y7128506D01*
X7631885Y7128929D01*
X7632026D01*
X7632308Y7129070D01*
X7632872Y7129352D01*
X7633436Y7129634D01*
X7634987Y7130480D01*
X7636396Y7131608D01*
X7636537Y7131748D01*
X7636678Y7131889D01*
X7637101Y7132312D01*
X7637524Y7132876D01*
X7638511Y7134286D01*
X7639357Y7135978D01*
Y7136119D01*
X7639498Y7136401D01*
X7639780Y7136964D01*
X7639921Y7137669D01*
X7640203Y7138515D01*
X7640344Y7139502D01*
X7640485Y7141757D01*
Y7142039D01*
Y7142744D01*
X7640344Y7143731D01*
X7640062Y7145000D01*
X7639639Y7146550D01*
X7638934Y7147960D01*
X7638088Y7149511D01*
X7636819Y7150779D01*
X7636678Y7150920D01*
X7636115Y7151343D01*
X7635269Y7151766D01*
X7634141Y7152471D01*
X7632731Y7153035D01*
X7630899Y7153458D01*
X7628784Y7153881D01*
X7626388Y7154022D01*
D02*
G37*
%LPD*%
D26*
X7538200Y7741000D02*
G03*
X7538200Y7741000I-10000J0D01*
G01*
X8699500Y7708900D02*
X8826500D01*
X8699500Y7810500D02*
X8826500D01*
X8699500Y7912100D02*
X8826500D01*
X8699500Y8013700D02*
X8826500D01*
D27*
X9076600Y7415200D02*
G03*
X9076600Y7415200I-5000J0D01*
G01*
X8634813Y6586087D02*
G03*
X8634813Y6586087I-5000J0D01*
G01*
X8916600Y7245200D02*
Y7385200D01*
X9066600Y7245200D02*
Y7385200D01*
D28*
X7917180Y8105140D02*
G03*
X7915443Y8102730I-2540J0D01*
G01*
D29*
X6378200Y6793000D02*
Y7939000D01*
X6928200Y7993500D02*
X7161200D01*
Y7838000D02*
Y7993500D01*
Y6738500D02*
Y6894000D01*
X6928200Y6738500D02*
X7161200D01*
X6780200Y8116000D02*
X6928200D01*
Y7993500D02*
Y8116000D01*
Y6616000D02*
Y6738500D01*
X6780200Y6616000D02*
X6928200D01*
D30*
X7976870Y7762240D02*
X8177530D01*
Y7888474D02*
Y7961126D01*
X7976870Y8087360D02*
X8177530D01*
%TF.MD5,e868693dd58c08a418ca884b4ab69023*%
M02*
