%TF.GenerationSoftware,Altium Limited,Altium Designer,23.0.1 (38)*%
G04 Layer_Color=0*
%FSLAX45Y45*%
%MOMM*%
%TF.SameCoordinates,9A133E00-D3C7-422F-B50A-FBA9B3BD8817*%
%TF.FilePolarity,Positive*%
%TF.FileFunction,Profile,NP*%
%TF.Part,Single*%
G01*
G75*
%TA.AperFunction,Profile*%
%ADD38C,0.02540*%
G36*
X8737600Y7061200D02*
X8733602Y7049205D01*
X8718622Y7028832D01*
X8698108Y7014046D01*
X8674044Y7006278D01*
X8648756Y7006277D01*
X8624692Y7014046D01*
X8604178Y7028832D01*
X8589198Y7049205D01*
X8585200Y7061199D01*
Y7061200D01*
Y7518400D01*
Y7528407D01*
X8589104Y7548035D01*
X8596763Y7566526D01*
X8607882Y7583166D01*
X8622034Y7597318D01*
X8638674Y7608437D01*
X8657164Y7616096D01*
X8676793Y7620000D01*
X8686800D01*
D01*
X9296400D01*
X9306407D01*
X9326035Y7616096D01*
X9344526Y7608437D01*
X9361166Y7597318D01*
X9375318Y7583166D01*
X9386437Y7566526D01*
X9394096Y7548035D01*
X9398000Y7528407D01*
Y7518400D01*
D01*
X9398000Y7061200D01*
X9394002Y7049205D01*
X9379022Y7028832D01*
X9358508Y7014046D01*
X9334443Y7006278D01*
X9309156Y7006278D01*
X9285092Y7014046D01*
X9264578Y7028832D01*
X9249598Y7049205D01*
X9245600Y7061200D01*
Y7061200D01*
Y7416800D01*
X9245111Y7426758D01*
X9241225Y7446293D01*
X9233603Y7464694D01*
X9222538Y7481254D01*
X9208454Y7495338D01*
X9191894Y7506403D01*
X9173493Y7514025D01*
X9153958Y7517911D01*
X9144000Y7518400D01*
D01*
X8839200D01*
X8829241Y7517911D01*
X8809707Y7514025D01*
X8791306Y7506403D01*
X8774745Y7495338D01*
X8760662Y7481254D01*
X8749597Y7464694D01*
X8741975Y7446293D01*
X8738089Y7426758D01*
X8737600Y7416800D01*
D01*
X8737600Y7061200D01*
D02*
G37*
D38*
X6299200Y6502400D02*
X9296400D01*
D02*
G02*
X9646400Y6852400I350000J0D01*
G01*
X9652000Y6858000D01*
Y7879600D01*
D02*
G02*
X9302000Y8229600I-0J350000D01*
G01*
X6299200D01*
Y6502400D01*
%TF.MD5,3f1f029afd30d030c56a39286f8422df*%
M02*
