%TF.GenerationSoftware,Altium Limited,Altium Designer,23.0.1 (38)*%
G04 Layer_Color=32896*
%FSLAX45Y45*%
%MOMM*%
%TF.SameCoordinates,9A133E00-D3C7-422F-B50A-FBA9B3BD8817*%
%TF.FilePolarity,Positive*%
%TF.FileFunction,Legend,Bot*%
%TF.Part,Single*%
G01*
G75*
G36*
X7244593Y6885711D02*
X7219406D01*
X7214519Y6910334D01*
X7239706D01*
X7244593Y6885711D01*
D02*
G37*
G36*
X7481423Y6865036D02*
X7525217Y6815978D01*
X7494204D01*
X7470145Y6842857D01*
X7456424Y6815978D01*
X7429358D01*
X7453229Y6862216D01*
X7409998Y6910334D01*
X7441199D01*
X7464506Y6884208D01*
X7478227Y6910334D01*
X7505294D01*
X7481423Y6865036D01*
D02*
G37*
G36*
X6698005Y6912590D02*
X6701765Y6912214D01*
X6705336Y6911650D01*
X6708719Y6910898D01*
X6711914Y6910146D01*
X6714922Y6909206D01*
X6717741Y6908079D01*
X6720373Y6906951D01*
X6722628Y6906011D01*
X6724884Y6904883D01*
X6726575Y6903944D01*
X6728079Y6903004D01*
X6729395Y6902440D01*
X6730147Y6901876D01*
X6730710Y6901500D01*
X6730898Y6901312D01*
X6733718Y6899057D01*
X6736537Y6896613D01*
X6741236Y6891162D01*
X6745371Y6885711D01*
X6748755Y6880261D01*
X6750258Y6877817D01*
X6751386Y6875374D01*
X6752326Y6873306D01*
X6753266Y6871426D01*
X6754017Y6869923D01*
X6754393Y6868795D01*
X6754769Y6868043D01*
Y6867855D01*
X6727703Y6863720D01*
X6725823Y6868419D01*
X6723944Y6872554D01*
X6721688Y6875937D01*
X6719621Y6878757D01*
X6717741Y6881012D01*
X6716238Y6882516D01*
X6715110Y6883456D01*
X6714922Y6883832D01*
X6714734D01*
X6711351Y6886087D01*
X6708155Y6887591D01*
X6704960Y6888719D01*
X6701953Y6889659D01*
X6699509Y6890034D01*
X6697442Y6890222D01*
X6696690Y6890410D01*
X6695750D01*
X6693682Y6890222D01*
X6691803Y6890034D01*
X6688231Y6889095D01*
X6685036Y6887779D01*
X6682217Y6886087D01*
X6680149Y6884584D01*
X6678458Y6883268D01*
X6677518Y6882328D01*
X6677142Y6881952D01*
X6674698Y6878381D01*
X6672819Y6874434D01*
X6671691Y6870487D01*
X6670751Y6866539D01*
X6670187Y6863156D01*
X6669999Y6861653D01*
Y6860337D01*
X6669811Y6859209D01*
Y6858457D01*
Y6857893D01*
Y6857705D01*
X6669999Y6852442D01*
X6670751Y6847180D01*
X6671691Y6842293D01*
X6672631Y6837970D01*
X6673195Y6836090D01*
X6673759Y6834398D01*
X6674134Y6832895D01*
X6674510Y6831579D01*
X6674886Y6830451D01*
X6675262Y6829699D01*
X6675450Y6829323D01*
Y6829135D01*
X6677706Y6824061D01*
X6680337Y6819737D01*
X6682969Y6815978D01*
X6685412Y6813159D01*
X6687480Y6810715D01*
X6689359Y6809212D01*
X6690487Y6808272D01*
X6690675Y6807896D01*
X6690863D01*
X6694434Y6805640D01*
X6698193Y6803949D01*
X6701577Y6802633D01*
X6704772Y6801881D01*
X6707591Y6801317D01*
X6709659Y6801129D01*
X6710411Y6800941D01*
X6711539D01*
X6715110Y6801129D01*
X6718305Y6801693D01*
X6721124Y6802633D01*
X6723380Y6803573D01*
X6725260Y6804513D01*
X6726575Y6805452D01*
X6727515Y6806016D01*
X6727703Y6806204D01*
X6729771Y6808272D01*
X6731462Y6810903D01*
X6732966Y6813535D01*
X6734094Y6816354D01*
X6735034Y6818798D01*
X6735597Y6820677D01*
X6735785Y6821429D01*
Y6821993D01*
X6735973Y6822369D01*
Y6822557D01*
X6761536Y6820113D01*
X6760972Y6816542D01*
X6760220Y6813159D01*
X6759280Y6809964D01*
X6758153Y6806956D01*
X6756837Y6804325D01*
X6755521Y6801693D01*
X6754205Y6799438D01*
X6752890Y6797370D01*
X6751574Y6795491D01*
X6750446Y6793799D01*
X6749131Y6792483D01*
X6748191Y6791355D01*
X6747251Y6790416D01*
X6746687Y6789852D01*
X6746311Y6789476D01*
X6746123Y6789288D01*
X6743680Y6787220D01*
X6740860Y6785529D01*
X6738229Y6784025D01*
X6735221Y6782709D01*
X6732402Y6781582D01*
X6729583Y6780642D01*
X6724132Y6779326D01*
X6721688Y6778762D01*
X6719245Y6778386D01*
X6717177Y6778198D01*
X6715486Y6778010D01*
X6713982Y6777822D01*
X6711914D01*
X6708343Y6778010D01*
X6704960Y6778198D01*
X6698569Y6779326D01*
X6692743Y6781018D01*
X6689923Y6781957D01*
X6687480Y6782709D01*
X6685224Y6783649D01*
X6683157Y6784589D01*
X6681465Y6785529D01*
X6679961Y6786281D01*
X6678833Y6786844D01*
X6677894Y6787408D01*
X6677330Y6787596D01*
X6677142Y6787784D01*
X6674322Y6789664D01*
X6671503Y6791731D01*
X6666428Y6796242D01*
X6662293Y6800941D01*
X6658722Y6805452D01*
X6657218Y6807708D01*
X6655902Y6809588D01*
X6654775Y6811467D01*
X6653835Y6812971D01*
X6653083Y6814287D01*
X6652519Y6815226D01*
X6652331Y6815790D01*
X6652143Y6815978D01*
X6650639Y6819549D01*
X6649324Y6822933D01*
X6647068Y6830075D01*
X6645565Y6836842D01*
X6644813Y6840225D01*
X6644437Y6843232D01*
X6644061Y6846052D01*
X6643873Y6848495D01*
X6643497Y6850939D01*
Y6852818D01*
X6643309Y6854322D01*
Y6855638D01*
Y6856390D01*
Y6856578D01*
X6643497Y6861653D01*
X6643873Y6866164D01*
X6644625Y6870675D01*
X6645377Y6874622D01*
X6646316Y6878381D01*
X6647444Y6881952D01*
X6648760Y6884960D01*
X6650076Y6887779D01*
X6651203Y6890222D01*
X6652519Y6892478D01*
X6653647Y6894358D01*
X6654587Y6895861D01*
X6655338Y6896989D01*
X6656090Y6897741D01*
X6656466Y6898305D01*
X6656654Y6898493D01*
X6659286Y6900936D01*
X6662105Y6903192D01*
X6665112Y6905071D01*
X6668308Y6906763D01*
X6671315Y6908079D01*
X6674510Y6909206D01*
X6677518Y6910146D01*
X6680525Y6910898D01*
X6683157Y6911650D01*
X6685788Y6912026D01*
X6688044Y6912402D01*
X6690111Y6912590D01*
X6691803D01*
X6692930Y6912778D01*
X6694058D01*
X6698005Y6912590D01*
D02*
G37*
G36*
X6845554D02*
X6848185Y6912214D01*
X6850629Y6911650D01*
X6852884Y6911086D01*
X6854764Y6910522D01*
X6856080Y6909958D01*
X6857020Y6909582D01*
X6857395Y6909394D01*
X6860027Y6908079D01*
X6862470Y6906387D01*
X6864726Y6904883D01*
X6866606Y6903380D01*
X6868109Y6901876D01*
X6869425Y6900748D01*
X6870177Y6899996D01*
X6870365Y6899808D01*
X6870741Y6903756D01*
X6871117Y6905447D01*
X6871305Y6907139D01*
X6871680Y6908455D01*
X6872056Y6909394D01*
X6872244Y6910146D01*
Y6910334D01*
X6896867D01*
X6896115Y6907703D01*
X6895739Y6905071D01*
X6895363Y6902816D01*
X6894987Y6900936D01*
Y6899245D01*
X6894800Y6898117D01*
Y6897177D01*
Y6896989D01*
Y6895673D01*
X6894987Y6893982D01*
X6895363Y6890410D01*
X6895927Y6886651D01*
X6896679Y6882704D01*
X6897243Y6879133D01*
X6897619Y6877629D01*
X6897807Y6876125D01*
X6897995Y6874998D01*
X6898183Y6874246D01*
X6898371Y6873682D01*
Y6873494D01*
X6899123Y6869923D01*
X6899874Y6866539D01*
X6900626Y6863532D01*
X6901190Y6860901D01*
X6901566Y6858645D01*
X6901942Y6856578D01*
X6902318Y6854698D01*
X6902694Y6853194D01*
X6902882Y6851879D01*
X6903258Y6850939D01*
Y6849999D01*
X6903446Y6849435D01*
X6903634Y6848495D01*
Y6848307D01*
X6904198Y6844736D01*
X6904385Y6843232D01*
Y6841917D01*
X6904573Y6840789D01*
Y6840037D01*
Y6839473D01*
Y6839285D01*
Y6837218D01*
X6904198Y6835338D01*
X6903258Y6831955D01*
X6901754Y6828947D01*
X6900250Y6826316D01*
X6898559Y6824061D01*
X6897055Y6822557D01*
X6896115Y6821617D01*
X6895927Y6821241D01*
X6895739D01*
X6894048Y6819925D01*
X6892168Y6818798D01*
X6887845Y6816918D01*
X6883522Y6815602D01*
X6879011Y6814850D01*
X6875064Y6814287D01*
X6873372Y6814099D01*
X6871868D01*
X6870553Y6813911D01*
X6868861D01*
X6862658Y6814287D01*
X6857020Y6815038D01*
X6854576Y6815602D01*
X6852321Y6816166D01*
X6850065Y6816730D01*
X6848185Y6817482D01*
X6846494Y6818234D01*
X6844990Y6818798D01*
X6843674Y6819362D01*
X6842547Y6819925D01*
X6841795Y6820301D01*
X6841231Y6820677D01*
X6840855Y6821053D01*
X6840667D01*
X6837096Y6823873D01*
X6833900Y6827068D01*
X6831457Y6830451D01*
X6829389Y6833459D01*
X6827886Y6836278D01*
X6826758Y6838533D01*
X6826382Y6839473D01*
X6826194Y6840037D01*
X6826006Y6840413D01*
Y6840601D01*
X6850817Y6842669D01*
X6851381Y6840977D01*
X6852133Y6839473D01*
X6853072Y6838158D01*
X6854012Y6837030D01*
X6854764Y6836090D01*
X6855516Y6835526D01*
X6855892Y6835150D01*
X6856080Y6834962D01*
X6857771Y6834022D01*
X6859463Y6833271D01*
X6861343Y6832895D01*
X6863034Y6832519D01*
X6864538Y6832331D01*
X6865854Y6832143D01*
X6866981D01*
X6869237Y6832331D01*
X6871305Y6832519D01*
X6872808Y6833083D01*
X6874312Y6833459D01*
X6875440Y6834022D01*
X6876191Y6834586D01*
X6876567Y6834774D01*
X6876755Y6834962D01*
X6877883Y6836090D01*
X6878635Y6837218D01*
X6879387Y6838345D01*
X6879763Y6839473D01*
X6879951Y6840413D01*
X6880139Y6840977D01*
Y6841541D01*
Y6841729D01*
Y6843044D01*
X6879951Y6844360D01*
X6879387Y6847180D01*
X6879011Y6848307D01*
X6878635Y6849247D01*
X6878447Y6849999D01*
Y6850187D01*
X6877131Y6850563D01*
X6875628Y6850939D01*
X6873936Y6851315D01*
X6872056Y6851691D01*
X6868109Y6852442D01*
X6863974Y6852818D01*
X6860215Y6853382D01*
X6858523Y6853570D01*
X6857208Y6853758D01*
X6855892D01*
X6854952Y6853946D01*
X6854200D01*
X6850253Y6854322D01*
X6846682Y6854886D01*
X6843486Y6855450D01*
X6840479Y6856202D01*
X6837660Y6856954D01*
X6835216Y6857705D01*
X6832961Y6858645D01*
X6831081Y6859397D01*
X6829389Y6860337D01*
X6827886Y6861089D01*
X6826758Y6861840D01*
X6825818Y6862404D01*
X6825066Y6862968D01*
X6824502Y6863344D01*
X6824315Y6863532D01*
X6824127Y6863720D01*
X6822623Y6865224D01*
X6821495Y6866915D01*
X6819428Y6870487D01*
X6817924Y6874058D01*
X6816984Y6877629D01*
X6816232Y6880636D01*
X6816044Y6881952D01*
Y6883080D01*
X6815856Y6884020D01*
Y6884772D01*
Y6885148D01*
Y6885335D01*
X6816232Y6889659D01*
X6816984Y6893606D01*
X6818300Y6896989D01*
X6819616Y6899808D01*
X6820931Y6902252D01*
X6822247Y6903944D01*
X6822999Y6904883D01*
X6823375Y6905259D01*
X6826382Y6907703D01*
X6829577Y6909582D01*
X6832961Y6910898D01*
X6835968Y6911838D01*
X6838599Y6912402D01*
X6840855Y6912590D01*
X6841607Y6912778D01*
X6842735D01*
X6845554Y6912590D01*
D02*
G37*
G36*
X7258878Y6816166D02*
X7233691D01*
X7228804Y6840789D01*
X7253991D01*
X7258878Y6816166D01*
D02*
G37*
G36*
X7168281Y6880824D02*
X7169033Y6877629D01*
X7169597Y6874434D01*
X7170349Y6871614D01*
X7171101Y6869171D01*
X7171665Y6866727D01*
X7172228Y6864472D01*
X7172980Y6862592D01*
X7173544Y6860901D01*
X7173920Y6859397D01*
X7174484Y6858081D01*
X7174860Y6856954D01*
X7175236Y6856014D01*
X7175424Y6855450D01*
X7175612Y6854886D01*
X7175800Y6854510D01*
X7177303Y6851503D01*
X7178995Y6848871D01*
X7180875Y6846616D01*
X7182566Y6844736D01*
X7184070Y6843420D01*
X7185198Y6842293D01*
X7185950Y6841541D01*
X7186325Y6841353D01*
X7188957Y6839661D01*
X7191400Y6838345D01*
X7193656Y6837594D01*
X7195723Y6836842D01*
X7197415Y6836466D01*
X7198731Y6836278D01*
X7199859D01*
X7202678Y6836466D01*
X7205121Y6836842D01*
X7206061Y6837218D01*
X7206813Y6837406D01*
X7207189Y6837594D01*
X7207377D01*
X7217151Y6816730D01*
X7214895Y6815790D01*
X7212640Y6815038D01*
X7210572Y6814663D01*
X7208881Y6814287D01*
X7207377Y6814099D01*
X7206249Y6813911D01*
X7205309D01*
X7202490Y6814099D01*
X7199671Y6814850D01*
X7196851Y6815790D01*
X7194408Y6817106D01*
X7191776Y6818610D01*
X7189521Y6820301D01*
X7185198Y6824061D01*
X7183318Y6825940D01*
X7181626Y6827820D01*
X7180123Y6829511D01*
X7178807Y6831015D01*
X7177867Y6832331D01*
X7177115Y6833271D01*
X7176740Y6834022D01*
X7176552Y6834210D01*
X7180311Y6815978D01*
X7156628D01*
X7136892Y6910334D01*
X7162079D01*
X7168281Y6880824D01*
D02*
G37*
G36*
X6619814Y6887027D02*
X6574704D01*
X6577335Y6883832D01*
X6578463Y6882328D01*
X6579591Y6881012D01*
X6580530Y6880073D01*
X6581282Y6879321D01*
X6581658Y6878757D01*
X6581846Y6878569D01*
X6583726Y6876689D01*
X6585981Y6874434D01*
X6588613Y6871990D01*
X6591244Y6869547D01*
X6593688Y6867103D01*
X6595755Y6865224D01*
X6596507Y6864472D01*
X6597071Y6864096D01*
X6597447Y6863720D01*
X6597635Y6863532D01*
X6601770Y6859585D01*
X6605341Y6856202D01*
X6608348Y6853194D01*
X6610792Y6850751D01*
X6612672Y6848871D01*
X6613987Y6847556D01*
X6614739Y6846616D01*
X6614927Y6846428D01*
X6617559Y6843232D01*
X6619626Y6840225D01*
X6621506Y6837406D01*
X6623009Y6834962D01*
X6624137Y6832895D01*
X6624889Y6831391D01*
X6625265Y6830451D01*
X6625453Y6830075D01*
X6626581Y6827068D01*
X6627332Y6824248D01*
X6627896Y6821617D01*
X6628272Y6819362D01*
X6628460Y6817294D01*
X6628648Y6815790D01*
Y6814850D01*
Y6814475D01*
X6628460Y6811655D01*
X6628272Y6809024D01*
X6626957Y6804137D01*
X6625265Y6799814D01*
X6623385Y6796242D01*
X6622445Y6794739D01*
X6621506Y6793423D01*
X6620566Y6792295D01*
X6619814Y6791168D01*
X6619062Y6790416D01*
X6618498Y6789852D01*
X6618310Y6789664D01*
X6618122Y6789476D01*
X6616055Y6787784D01*
X6613987Y6786093D01*
X6611732Y6784777D01*
X6609288Y6783649D01*
X6604589Y6781957D01*
X6599890Y6780830D01*
X6597823Y6780266D01*
X6595943Y6780078D01*
X6594064Y6779890D01*
X6592560Y6779702D01*
X6591244Y6779514D01*
X6589552D01*
X6586545Y6779702D01*
X6583538Y6779890D01*
X6578275Y6781018D01*
X6573576Y6782521D01*
X6571508Y6783461D01*
X6569629Y6784401D01*
X6567749Y6785341D01*
X6566245Y6786281D01*
X6564930Y6787032D01*
X6563990Y6787784D01*
X6563050Y6788348D01*
X6562486Y6788912D01*
X6562110Y6789100D01*
X6561922Y6789288D01*
X6560043Y6791168D01*
X6558163Y6793235D01*
X6555156Y6797558D01*
X6552712Y6802257D01*
X6550833Y6806768D01*
X6550081Y6808836D01*
X6549517Y6810715D01*
X6549141Y6812407D01*
X6548577Y6813911D01*
X6548389Y6815226D01*
X6548201Y6816166D01*
X6548013Y6816730D01*
Y6816918D01*
X6572824Y6820489D01*
X6573764Y6816354D01*
X6574892Y6812971D01*
X6576019Y6810151D01*
X6577147Y6807896D01*
X6578087Y6806204D01*
X6578839Y6805077D01*
X6579403Y6804325D01*
X6579591Y6804137D01*
X6581282Y6802633D01*
X6583162Y6801505D01*
X6584853Y6800566D01*
X6586545Y6800002D01*
X6588049Y6799626D01*
X6589177Y6799438D01*
X6590116D01*
X6592184Y6799626D01*
X6594064Y6800002D01*
X6595755Y6800753D01*
X6597259Y6801505D01*
X6598387Y6802257D01*
X6599138Y6803009D01*
X6599702Y6803385D01*
X6599890Y6803573D01*
X6601206Y6805265D01*
X6602146Y6806956D01*
X6602898Y6808836D01*
X6603274Y6810527D01*
X6603649Y6812031D01*
X6603837Y6813159D01*
Y6813911D01*
Y6814287D01*
X6603649Y6815790D01*
X6603462Y6817482D01*
X6603086Y6818986D01*
X6602710Y6820489D01*
X6602146Y6821617D01*
X6601770Y6822557D01*
X6601582Y6823309D01*
X6601394Y6823497D01*
X6600454Y6825376D01*
X6599138Y6827444D01*
X6597823Y6829511D01*
X6596319Y6831391D01*
X6595003Y6833083D01*
X6593876Y6834398D01*
X6593124Y6835150D01*
X6592936Y6835526D01*
X6592184Y6836278D01*
X6591244Y6837218D01*
X6588989Y6839661D01*
X6586169Y6842293D01*
X6583350Y6845112D01*
X6580718Y6847743D01*
X6578463Y6849811D01*
X6577711Y6850751D01*
X6576959Y6851315D01*
X6576583Y6851691D01*
X6576395Y6851879D01*
X6573200Y6854886D01*
X6570381Y6857705D01*
X6567749Y6860337D01*
X6565306Y6862780D01*
X6563050Y6864848D01*
X6561171Y6866915D01*
X6559291Y6868607D01*
X6557787Y6870299D01*
X6556472Y6871614D01*
X6555344Y6872930D01*
X6554404Y6873870D01*
X6553652Y6874622D01*
X6552712Y6875750D01*
X6552336Y6876125D01*
X6550081Y6878945D01*
X6548013Y6881764D01*
X6546134Y6884396D01*
X6544442Y6886839D01*
X6543126Y6888907D01*
X6542187Y6890598D01*
X6541623Y6891726D01*
X6541435Y6891914D01*
Y6892102D01*
X6539931Y6895297D01*
X6538803Y6898681D01*
X6537863Y6901688D01*
X6537112Y6904507D01*
X6536548Y6906763D01*
X6536172Y6908643D01*
Y6909394D01*
X6535984Y6909958D01*
Y6910146D01*
Y6910334D01*
X6614927D01*
X6619814Y6887027D01*
D02*
G37*
G36*
X7696261Y6883832D02*
X7712050D01*
X7716749Y6862404D01*
X7700584D01*
X7717876Y6780266D01*
X7695885D01*
X7625400Y6862780D01*
X7621077Y6883832D01*
X7672202D01*
X7666751Y6910334D01*
X7690622D01*
X7696261Y6883832D01*
D02*
G37*
G36*
X7595138D02*
X7610927D01*
X7615626Y6862404D01*
X7599462D01*
X7616754Y6780266D01*
X7594763D01*
X7524278Y6862780D01*
X7519954Y6883832D01*
X7571080D01*
X7565629Y6910334D01*
X7589500D01*
X7595138Y6883832D01*
D02*
G37*
G36*
X7066407Y6912590D02*
X7069414Y6912402D01*
X7071858Y6911838D01*
X7074113Y6911274D01*
X7075993Y6910898D01*
X7077497Y6910334D01*
X7078248Y6910146D01*
X7078624Y6909958D01*
X7081256Y6908643D01*
X7083699Y6907327D01*
X7085955Y6905635D01*
X7088022Y6904131D01*
X7089714Y6902628D01*
X7091218Y6901500D01*
X7091970Y6900748D01*
X7092345Y6900372D01*
X7090278Y6910334D01*
X7114149D01*
X7142719Y6780266D01*
X7117532D01*
X7106818Y6829135D01*
X7104939Y6826504D01*
X7102871Y6824061D01*
X7100616Y6821993D01*
X7098172Y6820301D01*
X7095917Y6818798D01*
X7093473Y6817670D01*
X7091030Y6816542D01*
X7088774Y6815790D01*
X7086519Y6815226D01*
X7084451Y6814663D01*
X7082572Y6814287D01*
X7081068Y6814099D01*
X7079752D01*
X7078812Y6813911D01*
X7077873D01*
X7073925Y6814099D01*
X7070354Y6814663D01*
X7066783Y6815602D01*
X7063588Y6816730D01*
X7060580Y6818234D01*
X7057761Y6819737D01*
X7055129Y6821429D01*
X7052874Y6823121D01*
X7050806Y6824812D01*
X7048927Y6826504D01*
X7047235Y6828008D01*
X7046107Y6829511D01*
X7044980Y6830639D01*
X7044228Y6831579D01*
X7043852Y6832143D01*
X7043664Y6832331D01*
X7041408Y6835714D01*
X7039341Y6839285D01*
X7037649Y6842857D01*
X7036145Y6846428D01*
X7034830Y6849999D01*
X7033890Y6853382D01*
X7032950Y6856578D01*
X7032386Y6859585D01*
X7031822Y6862592D01*
X7031446Y6865224D01*
X7031071Y6867479D01*
X7030883Y6869547D01*
X7030695Y6871051D01*
Y6872366D01*
Y6873118D01*
Y6873306D01*
X7030883Y6876877D01*
X7031071Y6880261D01*
X7031446Y6883268D01*
X7032198Y6886087D01*
X7032762Y6888719D01*
X7033514Y6891162D01*
X7034454Y6893418D01*
X7035206Y6895297D01*
X7036145Y6897177D01*
X7036897Y6898681D01*
X7037649Y6899996D01*
X7038401Y6900936D01*
X7038965Y6901688D01*
X7039341Y6902252D01*
X7039529Y6902628D01*
X7039717Y6902816D01*
X7041408Y6904507D01*
X7043288Y6906011D01*
X7045168Y6907515D01*
X7047235Y6908643D01*
X7051182Y6910334D01*
X7054941Y6911462D01*
X7058325Y6912214D01*
X7059640Y6912402D01*
X7060956Y6912590D01*
X7062084Y6912778D01*
X7063400D01*
X7066407Y6912590D01*
D02*
G37*
G36*
X6955323D02*
X6958330Y6912402D01*
X6960773Y6911838D01*
X6963029Y6911274D01*
X6964909Y6910898D01*
X6966412Y6910334D01*
X6967164Y6910146D01*
X6967540Y6909958D01*
X6970171Y6908643D01*
X6972615Y6907327D01*
X6974870Y6905635D01*
X6976938Y6904131D01*
X6978630Y6902628D01*
X6980133Y6901500D01*
X6980885Y6900748D01*
X6981261Y6900372D01*
X6979194Y6910334D01*
X7003064D01*
X7031634Y6780266D01*
X7006448D01*
X6995734Y6829135D01*
X6993854Y6826504D01*
X6991787Y6824061D01*
X6989531Y6821993D01*
X6987088Y6820301D01*
X6984832Y6818798D01*
X6982389Y6817670D01*
X6979945Y6816542D01*
X6977690Y6815790D01*
X6975434Y6815226D01*
X6973367Y6814663D01*
X6971487Y6814287D01*
X6969984Y6814099D01*
X6968668D01*
X6967728Y6813911D01*
X6966788D01*
X6962841Y6814099D01*
X6959270Y6814663D01*
X6955699Y6815602D01*
X6952503Y6816730D01*
X6949496Y6818234D01*
X6946676Y6819737D01*
X6944045Y6821429D01*
X6941790Y6823121D01*
X6939722Y6824812D01*
X6937842Y6826504D01*
X6936151Y6828008D01*
X6935023Y6829511D01*
X6933895Y6830639D01*
X6933143Y6831579D01*
X6932767Y6832143D01*
X6932579Y6832331D01*
X6930324Y6835714D01*
X6928256Y6839285D01*
X6926565Y6842857D01*
X6925061Y6846428D01*
X6923745Y6849999D01*
X6922806Y6853382D01*
X6921866Y6856578D01*
X6921302Y6859585D01*
X6920738Y6862592D01*
X6920362Y6865224D01*
X6919986Y6867479D01*
X6919798Y6869547D01*
X6919610Y6871051D01*
Y6872366D01*
Y6873118D01*
Y6873306D01*
X6919798Y6876877D01*
X6919986Y6880261D01*
X6920362Y6883268D01*
X6921114Y6886087D01*
X6921678Y6888719D01*
X6922430Y6891162D01*
X6923369Y6893418D01*
X6924121Y6895297D01*
X6925061Y6897177D01*
X6925813Y6898681D01*
X6926565Y6899996D01*
X6927317Y6900936D01*
X6927880Y6901688D01*
X6928256Y6902252D01*
X6928444Y6902628D01*
X6928632Y6902816D01*
X6930324Y6904507D01*
X6932204Y6906011D01*
X6934083Y6907515D01*
X6936151Y6908643D01*
X6940098Y6910334D01*
X6943857Y6911462D01*
X6947240Y6912214D01*
X6948556Y6912402D01*
X6949872Y6912590D01*
X6951000Y6912778D01*
X6952315D01*
X6955323Y6912590D01*
D02*
G37*
G36*
X6534668Y6780266D02*
X6507978D01*
X6480724Y6910334D01*
X6507414D01*
X6534668Y6780266D01*
D02*
G37*
G36*
X7363572Y6912590D02*
X7366391Y6912214D01*
X7369211Y6911650D01*
X7371842Y6910898D01*
X7376541Y6909018D01*
X7380864Y6906763D01*
X7382744Y6905823D01*
X7384247Y6904695D01*
X7385751Y6903756D01*
X7386879Y6902816D01*
X7387819Y6902064D01*
X7388570Y6901500D01*
X7388946Y6901124D01*
X7389134Y6900936D01*
X7391390Y6898681D01*
X7393645Y6896049D01*
X7397593Y6890598D01*
X7400976Y6884960D01*
X7403983Y6879509D01*
X7405111Y6876877D01*
X7406239Y6874622D01*
X7407178Y6872366D01*
X7407930Y6870487D01*
X7408494Y6868983D01*
X7408870Y6867855D01*
X7409246Y6867103D01*
Y6866915D01*
X7411690Y6858645D01*
X7413569Y6850751D01*
X7414321Y6847180D01*
X7414885Y6843608D01*
X7415449Y6840413D01*
X7415825Y6837218D01*
X7416201Y6834398D01*
X7416389Y6831955D01*
X7416576Y6829699D01*
Y6828008D01*
X7416764Y6826504D01*
Y6825376D01*
Y6824624D01*
Y6824436D01*
X7416576Y6820489D01*
X7416389Y6816730D01*
X7415825Y6813347D01*
X7415073Y6809964D01*
X7414321Y6807144D01*
X7413569Y6804325D01*
X7412629Y6801881D01*
X7411690Y6799626D01*
X7410562Y6797558D01*
X7409622Y6795867D01*
X7408870Y6794551D01*
X7408118Y6793235D01*
X7407366Y6792295D01*
X7406803Y6791731D01*
X7406615Y6791355D01*
X7406427Y6791168D01*
X7404547Y6789100D01*
X7402479Y6787408D01*
X7400224Y6785717D01*
X7398156Y6784401D01*
X7395901Y6783273D01*
X7393833Y6782333D01*
X7389698Y6781018D01*
X7385939Y6780078D01*
X7384435Y6779890D01*
X7383120Y6779702D01*
X7381992Y6779514D01*
X7380488D01*
X7377481Y6779702D01*
X7374661Y6780078D01*
X7372030Y6780642D01*
X7369399Y6781394D01*
X7364512Y6783273D01*
X7360376Y6785529D01*
X7358497Y6786656D01*
X7356805Y6787784D01*
X7355302Y6788724D01*
X7354174Y6789664D01*
X7353234Y6790416D01*
X7352482Y6790980D01*
X7352106Y6791355D01*
X7351918Y6791543D01*
X7349663Y6793987D01*
X7347407Y6796618D01*
X7345152Y6799438D01*
X7343272Y6802445D01*
X7339701Y6808460D01*
X7336693Y6814475D01*
X7335378Y6817294D01*
X7334250Y6819925D01*
X7333122Y6822181D01*
X7332370Y6824248D01*
X7331807Y6825940D01*
X7331243Y6827256D01*
X7331055Y6828008D01*
X7330867Y6828384D01*
X7328611Y6835902D01*
X7327108Y6843044D01*
X7325980Y6849811D01*
X7325416Y6853006D01*
X7325040Y6855826D01*
X7324852Y6858457D01*
X7324664Y6860901D01*
X7324476Y6862968D01*
Y6864848D01*
X7324288Y6866352D01*
Y6867291D01*
Y6868043D01*
Y6868231D01*
X7324476Y6872178D01*
X7324664Y6875937D01*
X7325228Y6879321D01*
X7325792Y6882516D01*
X7326732Y6885523D01*
X7327483Y6888155D01*
X7328423Y6890598D01*
X7329363Y6892854D01*
X7330303Y6894921D01*
X7331243Y6896613D01*
X7332182Y6897929D01*
X7332934Y6899245D01*
X7333498Y6900184D01*
X7334062Y6900748D01*
X7334250Y6901124D01*
X7334438Y6901312D01*
X7336506Y6903380D01*
X7338573Y6905071D01*
X7340641Y6906575D01*
X7342896Y6907891D01*
X7345152Y6909018D01*
X7347219Y6909958D01*
X7351354Y6911274D01*
X7355114Y6912214D01*
X7356617Y6912402D01*
X7357933Y6912590D01*
X7359061Y6912778D01*
X7360564D01*
X7363572Y6912590D01*
D02*
G37*
G36*
X7332279Y6718907D02*
X7329460Y6716464D01*
X7327016Y6714208D01*
X7324761Y6712140D01*
X7322881Y6710261D01*
X7321377Y6708945D01*
X7320250Y6707817D01*
X7319498Y6707066D01*
X7319310Y6706878D01*
X7320625Y6705562D01*
X7321941Y6704058D01*
X7324573Y6701051D01*
X7325512Y6699735D01*
X7326264Y6698607D01*
X7326828Y6697856D01*
X7327016Y6697668D01*
X7329835Y6693532D01*
X7330963Y6691653D01*
X7331903Y6689961D01*
X7332655Y6688645D01*
X7333407Y6687706D01*
X7333595Y6686954D01*
X7333783Y6686766D01*
X7315363Y6675676D01*
X7313107Y6679247D01*
X7311039Y6682255D01*
X7309160Y6684698D01*
X7307468Y6686766D01*
X7306153Y6688458D01*
X7305213Y6689397D01*
X7304649Y6690149D01*
X7304461Y6690337D01*
X7303333Y6689021D01*
X7302205Y6687518D01*
X7299950Y6684322D01*
X7298822Y6682819D01*
X7298070Y6681691D01*
X7297506Y6680939D01*
X7297318Y6680563D01*
X7294687Y6676616D01*
X7292243Y6672857D01*
X7289988Y6669474D01*
X7288296Y6666654D01*
X7286793Y6664211D01*
X7285665Y6662519D01*
X7284913Y6661391D01*
X7284725Y6661015D01*
X7287732Y6659512D01*
X7290364Y6657820D01*
X7292807Y6656316D01*
X7295251Y6654625D01*
X7297318Y6653121D01*
X7299198Y6651617D01*
X7300890Y6650302D01*
X7302393Y6648798D01*
X7303709Y6647670D01*
X7304837Y6646542D01*
X7306528Y6644663D01*
X7307092Y6643911D01*
X7307468Y6643347D01*
X7307844Y6643159D01*
Y6642971D01*
X7310288Y6639400D01*
X7311979Y6636017D01*
X7313295Y6632821D01*
X7314047Y6630190D01*
X7314611Y6627934D01*
X7314799Y6626243D01*
X7314987Y6625115D01*
Y6624739D01*
Y6622859D01*
X7314611Y6621168D01*
X7313671Y6617785D01*
X7312355Y6614777D01*
X7310852Y6612334D01*
X7309348Y6610078D01*
X7308032Y6608575D01*
X7307092Y6607635D01*
X7306904Y6607259D01*
X7306716D01*
X7303521Y6604815D01*
X7299762Y6602936D01*
X7296191Y6601620D01*
X7292619Y6600680D01*
X7289424Y6600116D01*
X7288108Y6599928D01*
X7286793D01*
X7285853Y6599740D01*
X7284537D01*
X7281530Y6599928D01*
X7278710Y6600116D01*
X7273635Y6601244D01*
X7269124Y6602748D01*
X7267245Y6603500D01*
X7265365Y6604439D01*
X7263862Y6605379D01*
X7262358Y6606131D01*
X7261230Y6606883D01*
X7260290Y6607635D01*
X7259350Y6608199D01*
X7258787Y6608763D01*
X7258599Y6608950D01*
X7258411Y6609138D01*
X7256719Y6611018D01*
X7255215Y6612898D01*
X7253900Y6614777D01*
X7252772Y6616657D01*
X7251080Y6620604D01*
X7249952Y6624175D01*
X7249201Y6627371D01*
X7249013Y6628874D01*
X7248825Y6630002D01*
X7248637Y6630942D01*
Y6631694D01*
Y6632070D01*
Y6632258D01*
X7248825Y6635829D01*
X7249577Y6639588D01*
X7250516Y6643159D01*
X7251456Y6646542D01*
X7252584Y6649550D01*
X7252960Y6650866D01*
X7253336Y6651993D01*
X7253712Y6652745D01*
X7254088Y6653497D01*
X7254276Y6653873D01*
Y6654061D01*
X7250140Y6656316D01*
X7246569Y6658384D01*
X7243750Y6660264D01*
X7241306Y6661767D01*
X7239427Y6663083D01*
X7238111Y6664023D01*
X7237359Y6664587D01*
X7237171Y6664775D01*
X7234540Y6667218D01*
X7232284Y6669662D01*
X7230217Y6672105D01*
X7228337Y6674361D01*
X7227021Y6676428D01*
X7226082Y6677932D01*
X7225330Y6679060D01*
X7225142Y6679247D01*
Y6679435D01*
X7223638Y6682631D01*
X7222510Y6685826D01*
X7221758Y6688833D01*
X7221195Y6691653D01*
X7220819Y6694096D01*
X7220631Y6695976D01*
Y6696728D01*
Y6697292D01*
Y6697480D01*
Y6697668D01*
X7220819Y6700487D01*
X7221195Y6703306D01*
X7221758Y6705938D01*
X7222510Y6708381D01*
X7224202Y6712892D01*
X7226457Y6716652D01*
X7227397Y6718343D01*
X7228525Y6719847D01*
X7229465Y6720975D01*
X7230405Y6722102D01*
X7230969Y6722854D01*
X7231532Y6723418D01*
X7231908Y6723794D01*
X7232096Y6723982D01*
X7234352Y6725862D01*
X7236795Y6727553D01*
X7239239Y6728869D01*
X7241870Y6730185D01*
X7244502Y6731124D01*
X7247133Y6732064D01*
X7252208Y6733380D01*
X7254651Y6733756D01*
X7256907Y6734132D01*
X7258787Y6734320D01*
X7260478Y6734508D01*
X7261982Y6734696D01*
X7263862D01*
X7267997Y6734508D01*
X7271756Y6734132D01*
X7275327Y6733756D01*
X7278334Y6733004D01*
X7280966Y6732440D01*
X7282845Y6732064D01*
X7283597Y6731876D01*
X7284161Y6731688D01*
X7284349Y6731500D01*
X7284537D01*
X7288108Y6730185D01*
X7291116Y6728681D01*
X7293935Y6727365D01*
X7296379Y6726050D01*
X7298258Y6724734D01*
X7299574Y6723794D01*
X7300326Y6723230D01*
X7300702Y6723042D01*
X7303333Y6725486D01*
X7305777Y6727741D01*
X7306904Y6728681D01*
X7307844Y6729433D01*
X7308408Y6729809D01*
X7308596Y6729997D01*
X7310288Y6731312D01*
X7311791Y6732252D01*
X7313107Y6733192D01*
X7314235Y6733944D01*
X7315175Y6734508D01*
X7315738Y6734884D01*
X7316114Y6735260D01*
X7316302D01*
X7332279Y6718907D01*
D02*
G37*
G36*
X7658014Y6734320D02*
X7662525Y6733568D01*
X7666848Y6732628D01*
X7670419Y6731312D01*
X7673614Y6729997D01*
X7674742Y6729433D01*
X7675870Y6729057D01*
X7676622Y6728493D01*
X7677186Y6728305D01*
X7677561Y6727929D01*
X7677749D01*
X7681697Y6725110D01*
X7685268Y6721726D01*
X7688463Y6718343D01*
X7691095Y6714960D01*
X7692974Y6711765D01*
X7693914Y6710449D01*
X7694478Y6709321D01*
X7695042Y6708381D01*
X7695418Y6707629D01*
X7695794Y6707254D01*
Y6707066D01*
X7673050Y6703306D01*
X7671735Y6705562D01*
X7670231Y6707629D01*
X7668539Y6709321D01*
X7666848Y6710825D01*
X7665344Y6712140D01*
X7663652Y6713268D01*
X7661961Y6714208D01*
X7660457Y6714772D01*
X7657638Y6715712D01*
X7656322Y6716088D01*
X7655194Y6716276D01*
X7654442Y6716464D01*
X7653127D01*
X7650307Y6716276D01*
X7647676Y6715524D01*
X7645420Y6714584D01*
X7643541Y6713644D01*
X7641849Y6712516D01*
X7640721Y6711765D01*
X7639969Y6711013D01*
X7639782Y6710825D01*
X7638090Y6708569D01*
X7636774Y6705938D01*
X7635834Y6703494D01*
X7635270Y6701051D01*
X7634895Y6698795D01*
X7634519Y6697104D01*
Y6695976D01*
Y6695788D01*
Y6695600D01*
Y6694848D01*
X7634707Y6694096D01*
Y6693344D01*
Y6693157D01*
X7698613D01*
X7699741Y6687518D01*
X7700117Y6684698D01*
X7700305Y6682067D01*
X7700493Y6679999D01*
Y6678120D01*
Y6676992D01*
Y6676804D01*
Y6676616D01*
X7700305Y6673045D01*
X7700117Y6669849D01*
X7699553Y6666654D01*
X7698801Y6663835D01*
X7698049Y6661015D01*
X7697297Y6658572D01*
X7696357Y6656316D01*
X7695418Y6654249D01*
X7694290Y6652557D01*
X7693350Y6650866D01*
X7692598Y6649550D01*
X7691846Y6648422D01*
X7691095Y6647670D01*
X7690531Y6647106D01*
X7690343Y6646730D01*
X7690155Y6646542D01*
X7688087Y6644663D01*
X7686020Y6642971D01*
X7683764Y6641655D01*
X7681509Y6640340D01*
X7679253Y6639212D01*
X7676998Y6638460D01*
X7672487Y6637144D01*
X7670419Y6636769D01*
X7668539Y6636393D01*
X7666848Y6636205D01*
X7665344Y6636017D01*
X7664216Y6635829D01*
X7662525D01*
X7657638Y6636017D01*
X7652939Y6636769D01*
X7648616Y6637708D01*
X7644668Y6639024D01*
X7640909Y6640528D01*
X7637526Y6642219D01*
X7634331Y6644099D01*
X7631511Y6645979D01*
X7629068Y6648046D01*
X7626812Y6649738D01*
X7625121Y6651617D01*
X7623429Y6653121D01*
X7622301Y6654437D01*
X7621549Y6655377D01*
X7620986Y6656128D01*
X7620798Y6656316D01*
X7618918Y6659136D01*
X7617226Y6662143D01*
X7615911Y6665150D01*
X7614595Y6668158D01*
X7613655Y6671165D01*
X7612715Y6673985D01*
X7611400Y6679247D01*
X7611024Y6681691D01*
X7610648Y6683947D01*
X7610460Y6686014D01*
X7610272Y6687706D01*
X7610084Y6689021D01*
Y6689961D01*
Y6690713D01*
Y6690901D01*
X7610272Y6694472D01*
X7610648Y6697856D01*
X7611212Y6701239D01*
X7611963Y6704246D01*
X7612903Y6707066D01*
X7613843Y6709697D01*
X7614971Y6711953D01*
X7616099Y6714208D01*
X7617038Y6716088D01*
X7618166Y6717779D01*
X7619106Y6719283D01*
X7620046Y6720411D01*
X7620798Y6721351D01*
X7621361Y6722102D01*
X7621737Y6722478D01*
X7621925Y6722666D01*
X7624181Y6724734D01*
X7626624Y6726613D01*
X7629256Y6728305D01*
X7631699Y6729621D01*
X7634331Y6730749D01*
X7636962Y6731688D01*
X7641849Y6733192D01*
X7644105Y6733756D01*
X7646172Y6734132D01*
X7648052Y6734320D01*
X7649743Y6734508D01*
X7651059Y6734696D01*
X7652939D01*
X7658014Y6734320D01*
D02*
G37*
G36*
X7213300Y6602184D02*
X7186610D01*
X7176084Y6652369D01*
X7125523D01*
X7136049Y6602184D01*
X7109358D01*
X7082104Y6732252D01*
X7108795D01*
X7120824Y6674173D01*
X7171385D01*
X7159356Y6732252D01*
X7186046D01*
X7213300Y6602184D01*
D02*
G37*
G36*
X6718214D02*
X6691523D01*
X6680998Y6652369D01*
X6630436D01*
X6640962Y6602184D01*
X6614272D01*
X6587018Y6732252D01*
X6613708D01*
X6625737Y6674173D01*
X6676299D01*
X6664269Y6732252D01*
X6690959D01*
X6718214Y6602184D01*
D02*
G37*
G36*
X7805374Y6679060D02*
X7805938Y6676616D01*
X7806502Y6674361D01*
X7806878Y6672293D01*
X7807254Y6670413D01*
X7807818Y6667030D01*
X7808194Y6664587D01*
X7808570Y6662519D01*
X7808758Y6661203D01*
Y6660452D01*
Y6660264D01*
X7808382Y6656316D01*
X7807630Y6652933D01*
X7806690Y6649926D01*
X7805374Y6647294D01*
X7804059Y6645227D01*
X7803119Y6643723D01*
X7802367Y6642971D01*
X7801991Y6642595D01*
X7799172Y6640340D01*
X7796352Y6638648D01*
X7793157Y6637520D01*
X7790337Y6636581D01*
X7787706Y6636205D01*
X7785451Y6636017D01*
X7784699Y6635829D01*
X7783571D01*
X7780376Y6636017D01*
X7777180Y6636393D01*
X7774361Y6636957D01*
X7771917Y6637520D01*
X7769850Y6638084D01*
X7768158Y6638648D01*
X7767218Y6639024D01*
X7766842Y6639212D01*
X7763835Y6640716D01*
X7760828Y6642407D01*
X7758008Y6644287D01*
X7755377Y6645979D01*
X7753121Y6647670D01*
X7751242Y6648986D01*
X7750114Y6649926D01*
X7749926Y6650302D01*
X7749738D01*
X7752182Y6637896D01*
X7728123D01*
X7708387Y6732252D01*
X7733574D01*
X7741656Y6693720D01*
X7742408Y6690713D01*
X7742972Y6687894D01*
X7743723Y6685262D01*
X7744287Y6683007D01*
X7744851Y6680939D01*
X7745415Y6679060D01*
X7745979Y6677556D01*
X7746355Y6676052D01*
X7746731Y6674924D01*
X7747107Y6673797D01*
X7747671Y6672293D01*
X7748046Y6671353D01*
X7748234Y6671165D01*
X7749926Y6668346D01*
X7751618Y6665902D01*
X7753497Y6663835D01*
X7755189Y6662143D01*
X7756693Y6660639D01*
X7758008Y6659700D01*
X7758760Y6658948D01*
X7759136Y6658760D01*
X7761768Y6657256D01*
X7764023Y6656128D01*
X7766091Y6655189D01*
X7767970Y6654625D01*
X7769662Y6654249D01*
X7770790Y6654061D01*
X7771729D01*
X7773609Y6654249D01*
X7775301Y6654437D01*
X7776616Y6655001D01*
X7777744Y6655377D01*
X7778684Y6655940D01*
X7779248Y6656504D01*
X7779624Y6656692D01*
X7779812Y6656880D01*
X7780752Y6658008D01*
X7781503Y6659324D01*
X7782067Y6660639D01*
X7782443Y6661767D01*
X7782631Y6662895D01*
X7782819Y6663835D01*
Y6664399D01*
Y6664587D01*
Y6665150D01*
X7782631Y6665902D01*
X7782255Y6667782D01*
X7781879Y6670225D01*
X7781503Y6672669D01*
X7780939Y6674924D01*
X7780564Y6676992D01*
X7780376Y6677744D01*
Y6678308D01*
X7780188Y6678684D01*
Y6678872D01*
X7768722Y6732252D01*
X7793909D01*
X7805374Y6679060D01*
D02*
G37*
G36*
X8061188Y6702743D02*
X8061940Y6699547D01*
X8062504Y6696352D01*
X8063255Y6693533D01*
X8064007Y6691089D01*
X8064571Y6688646D01*
X8065135Y6686390D01*
X8065887Y6684511D01*
X8066451Y6682819D01*
X8066827Y6681315D01*
X8067391Y6680000D01*
X8067766Y6678872D01*
X8068142Y6677932D01*
X8068330Y6677368D01*
X8068518Y6676804D01*
X8068706Y6676428D01*
X8070210Y6673421D01*
X8071902Y6670790D01*
X8073781Y6668534D01*
X8075473Y6666654D01*
X8076976Y6665339D01*
X8078104Y6664211D01*
X8078856Y6663459D01*
X8079232Y6663271D01*
X8081863Y6661580D01*
X8084307Y6660264D01*
X8086562Y6659512D01*
X8088630Y6658760D01*
X8090322Y6658384D01*
X8091637Y6658196D01*
X8092765D01*
X8095585Y6658384D01*
X8098028Y6658760D01*
X8098968Y6659136D01*
X8099720Y6659324D01*
X8100096Y6659512D01*
X8100284D01*
X8110057Y6638648D01*
X8107802Y6637709D01*
X8105546Y6636957D01*
X8103479Y6636581D01*
X8101787Y6636205D01*
X8100284Y6636017D01*
X8099156Y6635829D01*
X8098216D01*
X8095397Y6636017D01*
X8092577Y6636769D01*
X8089758Y6637709D01*
X8087314Y6639024D01*
X8084683Y6640528D01*
X8082427Y6642220D01*
X8078104Y6645979D01*
X8076225Y6647858D01*
X8074533Y6649738D01*
X8073029Y6651430D01*
X8071714Y6652933D01*
X8070774Y6654249D01*
X8070022Y6655189D01*
X8069646Y6655941D01*
X8069458Y6656129D01*
X8073217Y6637897D01*
X8049534D01*
X8029799Y6732252D01*
X8054985D01*
X8061188Y6702743D01*
D02*
G37*
G36*
X7972471Y6734508D02*
X7976794Y6733944D01*
X7980741Y6733192D01*
X7984500Y6732065D01*
X7988071Y6730937D01*
X7991267Y6729433D01*
X7994086Y6727929D01*
X7996906Y6726426D01*
X7999161Y6724922D01*
X8001229Y6723418D01*
X8003108Y6721915D01*
X8004612Y6720787D01*
X8005740Y6719659D01*
X8006491Y6718907D01*
X8007055Y6718343D01*
X8007243Y6718155D01*
X8009875Y6714960D01*
X8012130Y6711577D01*
X8014010Y6708194D01*
X8015702Y6704810D01*
X8017205Y6701615D01*
X8018333Y6698232D01*
X8019273Y6695036D01*
X8020025Y6692029D01*
X8020588Y6689210D01*
X8021152Y6686578D01*
X8021528Y6684323D01*
X8021716Y6682255D01*
X8021904Y6680751D01*
Y6679436D01*
Y6678684D01*
Y6678496D01*
X8021716Y6674925D01*
X8021340Y6671541D01*
X8020776Y6668346D01*
X8020025Y6665339D01*
X8019085Y6662707D01*
X8018145Y6660076D01*
X8017017Y6657820D01*
X8016077Y6655565D01*
X8014950Y6653685D01*
X8013822Y6652182D01*
X8012882Y6650678D01*
X8011942Y6649550D01*
X8011190Y6648610D01*
X8010627Y6648046D01*
X8010251Y6647670D01*
X8010063Y6647483D01*
X8007807Y6645415D01*
X8005364Y6643723D01*
X8002732Y6642032D01*
X8000101Y6640716D01*
X7997281Y6639588D01*
X7994650Y6638648D01*
X7989387Y6637333D01*
X7986944Y6636769D01*
X7984688Y6636393D01*
X7982809Y6636205D01*
X7980929Y6636017D01*
X7979613Y6635829D01*
X7977546D01*
X7973223Y6636017D01*
X7968899Y6636581D01*
X7964952Y6637333D01*
X7961381Y6638272D01*
X7957810Y6639400D01*
X7954615Y6640904D01*
X7951795Y6642220D01*
X7949164Y6643723D01*
X7946720Y6645227D01*
X7944653Y6646543D01*
X7942773Y6647858D01*
X7941269Y6649174D01*
X7940142Y6650114D01*
X7939390Y6650866D01*
X7938826Y6651430D01*
X7938638Y6651618D01*
X7936006Y6654625D01*
X7933751Y6657820D01*
X7931871Y6661204D01*
X7930180Y6664775D01*
X7928676Y6668158D01*
X7927548Y6671729D01*
X7926608Y6675113D01*
X7925857Y6678308D01*
X7925293Y6681315D01*
X7924729Y6684323D01*
X7924353Y6686766D01*
X7924165Y6689022D01*
Y6690901D01*
X7923977Y6692217D01*
Y6692969D01*
Y6693345D01*
X7924165Y6697480D01*
X7924729Y6701427D01*
X7925481Y6704998D01*
X7926421Y6708006D01*
X7927360Y6710637D01*
X7928112Y6712705D01*
X7928488Y6713456D01*
X7928676Y6714020D01*
X7928864Y6714208D01*
Y6714396D01*
X7930932Y6717780D01*
X7933375Y6720787D01*
X7936006Y6723418D01*
X7938450Y6725486D01*
X7940705Y6727178D01*
X7942585Y6728493D01*
X7943337Y6728869D01*
X7943901Y6729245D01*
X7944089Y6729433D01*
X7944277D01*
X7948224Y6731125D01*
X7952359Y6732440D01*
X7956306Y6733380D01*
X7960065Y6733944D01*
X7963261Y6734320D01*
X7964576Y6734508D01*
X7965704Y6734696D01*
X7967960D01*
X7972471Y6734508D01*
D02*
G37*
G36*
X7866085Y6734508D02*
X7869657Y6734320D01*
X7872852Y6733756D01*
X7875859Y6733192D01*
X7878867Y6732440D01*
X7881310Y6731688D01*
X7883754Y6730749D01*
X7885821Y6729809D01*
X7887701Y6728869D01*
X7889392Y6727929D01*
X7890896Y6727177D01*
X7892024Y6726425D01*
X7892964Y6725862D01*
X7893528Y6725298D01*
X7893903Y6725110D01*
X7894091Y6724922D01*
X7896159Y6723042D01*
X7897851Y6720975D01*
X7899354Y6719095D01*
X7900670Y6717027D01*
X7901798Y6715148D01*
X7902738Y6713080D01*
X7904053Y6709509D01*
X7904993Y6706314D01*
X7905181Y6704998D01*
X7905369Y6703870D01*
X7905557Y6702930D01*
Y6702179D01*
Y6701803D01*
Y6701615D01*
X7905369Y6699735D01*
X7905181Y6697856D01*
X7904241Y6694472D01*
X7902738Y6691465D01*
X7901046Y6688833D01*
X7899354Y6686766D01*
X7898039Y6685074D01*
X7896911Y6684134D01*
X7896723Y6683759D01*
X7896535D01*
X7895219Y6682819D01*
X7893715Y6681879D01*
X7891836Y6680939D01*
X7889956Y6679999D01*
X7885821Y6678120D01*
X7881686Y6676616D01*
X7877739Y6675300D01*
X7876047Y6674736D01*
X7874544Y6674173D01*
X7873228Y6673797D01*
X7872288Y6673421D01*
X7871724Y6673233D01*
X7871536D01*
X7869281Y6672669D01*
X7867401Y6671917D01*
X7865709Y6671353D01*
X7864206Y6670977D01*
X7862702Y6670413D01*
X7861574Y6670037D01*
X7859695Y6669286D01*
X7858379Y6668910D01*
X7857627Y6668534D01*
X7857251Y6668158D01*
X7857063D01*
X7855936Y6667218D01*
X7855184Y6666278D01*
X7854432Y6665338D01*
X7854056Y6664399D01*
X7853868Y6663647D01*
X7853680Y6662895D01*
Y6662519D01*
Y6662331D01*
X7853868Y6661015D01*
X7854244Y6659888D01*
X7855372Y6658008D01*
X7855936Y6657256D01*
X7856499Y6656692D01*
X7856875Y6656504D01*
X7857063Y6656316D01*
X7858567Y6655377D01*
X7860447Y6654625D01*
X7862326Y6654249D01*
X7864206Y6653873D01*
X7865897Y6653685D01*
X7867401Y6653497D01*
X7868717D01*
X7871724Y6653685D01*
X7874356Y6654061D01*
X7876611Y6654625D01*
X7878679Y6655189D01*
X7880182Y6655940D01*
X7881498Y6656504D01*
X7882250Y6656880D01*
X7882438Y6657068D01*
X7883942Y6658008D01*
X7885257Y6659324D01*
X7886385Y6660452D01*
X7887137Y6661767D01*
X7887889Y6662895D01*
X7888265Y6663835D01*
X7888641Y6664399D01*
Y6664587D01*
X7912136Y6660639D01*
X7910820Y6656504D01*
X7909128Y6652933D01*
X7907249Y6649926D01*
X7905181Y6647294D01*
X7903301Y6645227D01*
X7901610Y6643723D01*
X7900482Y6642971D01*
X7900294Y6642595D01*
X7900106D01*
X7898227Y6641468D01*
X7896347Y6640340D01*
X7892024Y6638648D01*
X7887325Y6637520D01*
X7883002Y6636581D01*
X7878867Y6636205D01*
X7877175Y6636017D01*
X7875671D01*
X7874356Y6635829D01*
X7872664D01*
X7868529Y6636017D01*
X7864582Y6636393D01*
X7861010Y6636957D01*
X7857627Y6637520D01*
X7854432Y6638460D01*
X7851612Y6639400D01*
X7849169Y6640528D01*
X7846725Y6641468D01*
X7844658Y6642595D01*
X7842966Y6643723D01*
X7841463Y6644663D01*
X7840335Y6645415D01*
X7839395Y6646167D01*
X7838643Y6646730D01*
X7838267Y6647106D01*
X7838079Y6647294D01*
X7836576Y6648798D01*
X7835448Y6650490D01*
X7833380Y6653685D01*
X7831877Y6656880D01*
X7830937Y6659888D01*
X7830185Y6662519D01*
X7829997Y6664587D01*
X7829809Y6665338D01*
Y6665902D01*
Y6666278D01*
Y6666466D01*
X7829997Y6668534D01*
X7830185Y6670413D01*
X7831125Y6673985D01*
X7832441Y6677180D01*
X7834132Y6679811D01*
X7835636Y6681879D01*
X7836952Y6683383D01*
X7837891Y6684322D01*
X7838267Y6684698D01*
X7839583Y6685450D01*
X7841087Y6686390D01*
X7842966Y6687330D01*
X7845222Y6688458D01*
X7849921Y6690337D01*
X7854808Y6692405D01*
X7859507Y6694096D01*
X7861574Y6694848D01*
X7863266Y6695412D01*
X7864770Y6695976D01*
X7866085Y6696352D01*
X7866837Y6696728D01*
X7867025D01*
X7870033Y6697668D01*
X7872288Y6698607D01*
X7874168Y6699547D01*
X7875671Y6700299D01*
X7876611Y6700863D01*
X7877363Y6701239D01*
X7877551Y6701427D01*
X7877739Y6701615D01*
X7878867Y6703118D01*
X7879431Y6704622D01*
X7879618Y6705750D01*
Y6705938D01*
Y6706126D01*
X7879431Y6707629D01*
X7879055Y6708757D01*
X7877739Y6710825D01*
X7876987Y6711577D01*
X7876423Y6712140D01*
X7876047Y6712516D01*
X7875859Y6712704D01*
X7873792Y6714020D01*
X7871536Y6714960D01*
X7869093Y6715524D01*
X7866837Y6715900D01*
X7864770Y6716276D01*
X7863266Y6716464D01*
X7861762D01*
X7858755Y6716276D01*
X7856123Y6715900D01*
X7853868Y6715524D01*
X7851988Y6714772D01*
X7850485Y6714208D01*
X7849357Y6713832D01*
X7848605Y6713456D01*
X7848417Y6713268D01*
X7846725Y6711953D01*
X7845034Y6710261D01*
X7843718Y6708381D01*
X7842590Y6706502D01*
X7841651Y6704810D01*
X7840899Y6703494D01*
X7840523Y6702555D01*
X7840335Y6702179D01*
X7815712Y6706126D01*
X7817404Y6711013D01*
X7819659Y6715148D01*
X7822291Y6718907D01*
X7824734Y6721914D01*
X7826990Y6724170D01*
X7828869Y6726050D01*
X7829621Y6726613D01*
X7830185Y6726989D01*
X7830561Y6727365D01*
X7830749D01*
X7833004Y6728681D01*
X7835260Y6729809D01*
X7840335Y6731688D01*
X7845598Y6732816D01*
X7850673Y6733756D01*
X7853116Y6734132D01*
X7855184Y6734320D01*
X7857251Y6734508D01*
X7858943D01*
X7860447Y6734696D01*
X7862326D01*
X7866085Y6734508D01*
D02*
G37*
G36*
X7552756D02*
X7556327Y6734320D01*
X7559523Y6733756D01*
X7562530Y6733192D01*
X7565537Y6732440D01*
X7567981Y6731688D01*
X7570424Y6730749D01*
X7572492Y6729809D01*
X7574371Y6728869D01*
X7576063Y6727929D01*
X7577567Y6727177D01*
X7578695Y6726425D01*
X7579634Y6725862D01*
X7580198Y6725298D01*
X7580574Y6725110D01*
X7580762Y6724922D01*
X7582830Y6723042D01*
X7584521Y6720975D01*
X7586025Y6719095D01*
X7587341Y6717027D01*
X7588468Y6715148D01*
X7589408Y6713080D01*
X7590724Y6709509D01*
X7591664Y6706314D01*
X7591852Y6704998D01*
X7592040Y6703870D01*
X7592228Y6702930D01*
Y6702179D01*
Y6701803D01*
Y6701615D01*
X7592040Y6699735D01*
X7591852Y6697856D01*
X7590912Y6694472D01*
X7589408Y6691465D01*
X7587717Y6688833D01*
X7586025Y6686766D01*
X7584709Y6685074D01*
X7583581Y6684134D01*
X7583394Y6683759D01*
X7583206D01*
X7581890Y6682819D01*
X7580386Y6681879D01*
X7578507Y6680939D01*
X7576627Y6679999D01*
X7572492Y6678120D01*
X7568357Y6676616D01*
X7564410Y6675300D01*
X7562718Y6674736D01*
X7561214Y6674173D01*
X7559899Y6673797D01*
X7558959Y6673421D01*
X7558395Y6673233D01*
X7558207D01*
X7555951Y6672669D01*
X7554072Y6671917D01*
X7552380Y6671353D01*
X7550876Y6670977D01*
X7549373Y6670413D01*
X7548245Y6670037D01*
X7546365Y6669286D01*
X7545050Y6668910D01*
X7544298Y6668534D01*
X7543922Y6668158D01*
X7543734D01*
X7542606Y6667218D01*
X7541854Y6666278D01*
X7541103Y6665338D01*
X7540727Y6664399D01*
X7540539Y6663647D01*
X7540351Y6662895D01*
Y6662519D01*
Y6662331D01*
X7540539Y6661015D01*
X7540915Y6659888D01*
X7542042Y6658008D01*
X7542606Y6657256D01*
X7543170Y6656692D01*
X7543546Y6656504D01*
X7543734Y6656316D01*
X7545238Y6655377D01*
X7547117Y6654625D01*
X7548997Y6654249D01*
X7550876Y6653873D01*
X7552568Y6653685D01*
X7554072Y6653497D01*
X7555387D01*
X7558395Y6653685D01*
X7561026Y6654061D01*
X7563282Y6654625D01*
X7565349Y6655189D01*
X7566853Y6655940D01*
X7568169Y6656504D01*
X7568921Y6656880D01*
X7569109Y6657068D01*
X7570612Y6658008D01*
X7571928Y6659324D01*
X7573056Y6660452D01*
X7573808Y6661767D01*
X7574559Y6662895D01*
X7574935Y6663835D01*
X7575311Y6664399D01*
Y6664587D01*
X7598806Y6660639D01*
X7597491Y6656504D01*
X7595799Y6652933D01*
X7593919Y6649926D01*
X7591852Y6647294D01*
X7589972Y6645227D01*
X7588280Y6643723D01*
X7587153Y6642971D01*
X7586965Y6642595D01*
X7586777D01*
X7584897Y6641468D01*
X7583018Y6640340D01*
X7578695Y6638648D01*
X7573996Y6637520D01*
X7569672Y6636581D01*
X7565537Y6636205D01*
X7563846Y6636017D01*
X7562342D01*
X7561026Y6635829D01*
X7559335D01*
X7555200Y6636017D01*
X7551252Y6636393D01*
X7547681Y6636957D01*
X7544298Y6637520D01*
X7541103Y6638460D01*
X7538283Y6639400D01*
X7535840Y6640528D01*
X7533396Y6641468D01*
X7531329Y6642595D01*
X7529637Y6643723D01*
X7528133Y6644663D01*
X7527006Y6645415D01*
X7526066Y6646167D01*
X7525314Y6646730D01*
X7524938Y6647106D01*
X7524750Y6647294D01*
X7523246Y6648798D01*
X7522119Y6650490D01*
X7520051Y6653685D01*
X7518547Y6656880D01*
X7517608Y6659888D01*
X7516856Y6662519D01*
X7516668Y6664587D01*
X7516480Y6665338D01*
Y6665902D01*
Y6666278D01*
Y6666466D01*
X7516668Y6668534D01*
X7516856Y6670413D01*
X7517795Y6673985D01*
X7519111Y6677180D01*
X7520803Y6679811D01*
X7522307Y6681879D01*
X7523622Y6683383D01*
X7524562Y6684322D01*
X7524938Y6684698D01*
X7526254Y6685450D01*
X7527757Y6686390D01*
X7529637Y6687330D01*
X7531892Y6688458D01*
X7536591Y6690337D01*
X7541478Y6692405D01*
X7546177Y6694096D01*
X7548245Y6694848D01*
X7549937Y6695412D01*
X7551440Y6695976D01*
X7552756Y6696352D01*
X7553508Y6696728D01*
X7553696D01*
X7556703Y6697668D01*
X7558959Y6698607D01*
X7560838Y6699547D01*
X7562342Y6700299D01*
X7563282Y6700863D01*
X7564034Y6701239D01*
X7564222Y6701427D01*
X7564410Y6701615D01*
X7565537Y6703118D01*
X7566101Y6704622D01*
X7566289Y6705750D01*
Y6705938D01*
Y6706126D01*
X7566101Y6707629D01*
X7565725Y6708757D01*
X7564410Y6710825D01*
X7563658Y6711577D01*
X7563094Y6712140D01*
X7562718Y6712516D01*
X7562530Y6712704D01*
X7560462Y6714020D01*
X7558207Y6714960D01*
X7555763Y6715524D01*
X7553508Y6715900D01*
X7551440Y6716276D01*
X7549937Y6716464D01*
X7548433D01*
X7545426Y6716276D01*
X7542794Y6715900D01*
X7540539Y6715524D01*
X7538659Y6714772D01*
X7537155Y6714208D01*
X7536028Y6713832D01*
X7535276Y6713456D01*
X7535088Y6713268D01*
X7533396Y6711953D01*
X7531705Y6710261D01*
X7530389Y6708381D01*
X7529261Y6706502D01*
X7528321Y6704810D01*
X7527569Y6703494D01*
X7527193Y6702555D01*
X7527006Y6702179D01*
X7502383Y6706126D01*
X7504074Y6711013D01*
X7506330Y6715148D01*
X7508961Y6718907D01*
X7511405Y6721914D01*
X7513660Y6724170D01*
X7515540Y6726050D01*
X7516292Y6726613D01*
X7516856Y6726989D01*
X7517232Y6727365D01*
X7517420D01*
X7519675Y6728681D01*
X7521931Y6729809D01*
X7527006Y6731688D01*
X7532268Y6732816D01*
X7537343Y6733756D01*
X7539787Y6734132D01*
X7541854Y6734320D01*
X7543922Y6734508D01*
X7545614D01*
X7547117Y6734696D01*
X7548997D01*
X7552756Y6734508D01*
D02*
G37*
G36*
X7423440Y6623987D02*
X7461220D01*
X7465543Y6602184D01*
X7362916D01*
X7358593Y6623987D01*
X7396749D01*
X7374006Y6732252D01*
X7400696D01*
X7423440Y6623987D01*
D02*
G37*
G36*
X6901663Y6705750D02*
X6917451D01*
X6922150Y6684322D01*
X6905986D01*
X6923278Y6602184D01*
X6901287D01*
X6830802Y6684698D01*
X6826479Y6705750D01*
X6877604D01*
X6872153Y6732252D01*
X6896024D01*
X6901663Y6705750D01*
D02*
G37*
G36*
X6797157Y6623987D02*
X6834937D01*
X6839260Y6602184D01*
X6736634D01*
X6732311Y6623987D01*
X6770467D01*
X6747723Y6732252D01*
X6774414D01*
X6797157Y6623987D01*
D02*
G37*
G36*
X6973463Y6734508D02*
X6976283Y6734132D01*
X6979102Y6733568D01*
X6981734Y6732816D01*
X6986433Y6730936D01*
X6990756Y6728681D01*
X6992635Y6727741D01*
X6994139Y6726613D01*
X6995643Y6725674D01*
X6996770Y6724734D01*
X6997710Y6723982D01*
X6998462Y6723418D01*
X6998838Y6723042D01*
X6999026Y6722854D01*
X7001281Y6720599D01*
X7003537Y6717967D01*
X7007484Y6712516D01*
X7010867Y6706878D01*
X7013875Y6701427D01*
X7015002Y6698795D01*
X7016130Y6696540D01*
X7017070Y6694284D01*
X7017822Y6692405D01*
X7018386Y6690901D01*
X7018762Y6689773D01*
X7019138Y6689021D01*
Y6688833D01*
X7021581Y6680563D01*
X7023461Y6672669D01*
X7024213Y6669098D01*
X7024776Y6665526D01*
X7025340Y6662331D01*
X7025716Y6659136D01*
X7026092Y6656316D01*
X7026280Y6653873D01*
X7026468Y6651617D01*
Y6649926D01*
X7026656Y6648422D01*
Y6647294D01*
Y6646542D01*
Y6646354D01*
X7026468Y6642407D01*
X7026280Y6638648D01*
X7025716Y6635265D01*
X7024964Y6631882D01*
X7024213Y6629062D01*
X7023461Y6626243D01*
X7022521Y6623799D01*
X7021581Y6621544D01*
X7020453Y6619476D01*
X7019514Y6617785D01*
X7018762Y6616469D01*
X7018010Y6615153D01*
X7017258Y6614213D01*
X7016694Y6613649D01*
X7016506Y6613274D01*
X7016318Y6613086D01*
X7014439Y6611018D01*
X7012371Y6609326D01*
X7010116Y6607635D01*
X7008048Y6606319D01*
X7005792Y6605191D01*
X7003725Y6604251D01*
X6999590Y6602936D01*
X6995831Y6601996D01*
X6994327Y6601808D01*
X6993011Y6601620D01*
X6991883Y6601432D01*
X6990380D01*
X6987372Y6601620D01*
X6984553Y6601996D01*
X6981922Y6602560D01*
X6979290Y6603312D01*
X6974403Y6605191D01*
X6970268Y6607447D01*
X6968388Y6608575D01*
X6966697Y6609702D01*
X6965193Y6610642D01*
X6964065Y6611582D01*
X6963126Y6612334D01*
X6962374Y6612898D01*
X6961998Y6613274D01*
X6961810Y6613461D01*
X6959554Y6615905D01*
X6957299Y6618536D01*
X6955043Y6621356D01*
X6953164Y6624363D01*
X6949592Y6630378D01*
X6946585Y6636393D01*
X6945269Y6639212D01*
X6944142Y6641843D01*
X6943014Y6644099D01*
X6942262Y6646167D01*
X6941698Y6647858D01*
X6941134Y6649174D01*
X6940946Y6649926D01*
X6940758Y6650302D01*
X6938503Y6657820D01*
X6936999Y6664963D01*
X6935871Y6671729D01*
X6935307Y6674924D01*
X6934932Y6677744D01*
X6934744Y6680375D01*
X6934556Y6682819D01*
X6934368Y6684886D01*
Y6686766D01*
X6934180Y6688270D01*
Y6689209D01*
Y6689961D01*
Y6690149D01*
X6934368Y6694096D01*
X6934556Y6697856D01*
X6935119Y6701239D01*
X6935683Y6704434D01*
X6936623Y6707442D01*
X6937375Y6710073D01*
X6938315Y6712516D01*
X6939255Y6714772D01*
X6940194Y6716839D01*
X6941134Y6718531D01*
X6942074Y6719847D01*
X6942826Y6721163D01*
X6943390Y6722102D01*
X6943954Y6722666D01*
X6944142Y6723042D01*
X6944330Y6723230D01*
X6946397Y6725298D01*
X6948465Y6726989D01*
X6950532Y6728493D01*
X6952788Y6729809D01*
X6955043Y6730936D01*
X6957111Y6731876D01*
X6961246Y6733192D01*
X6965005Y6734132D01*
X6966509Y6734320D01*
X6967825Y6734508D01*
X6968952Y6734696D01*
X6970456D01*
X6973463Y6734508D01*
D02*
G37*
G36*
X6525179D02*
X6529314Y6734132D01*
X6533261Y6733568D01*
X6536832Y6732816D01*
X6540216Y6731876D01*
X6543411Y6730749D01*
X6546230Y6729809D01*
X6548674Y6728493D01*
X6551117Y6727365D01*
X6552997Y6726425D01*
X6554688Y6725298D01*
X6556192Y6724358D01*
X6557132Y6723606D01*
X6558072Y6723042D01*
X6558448Y6722666D01*
X6558636Y6722478D01*
X6561079Y6720035D01*
X6563147Y6717779D01*
X6565026Y6715148D01*
X6566530Y6712704D01*
X6567846Y6710261D01*
X6568973Y6707817D01*
X6569913Y6705374D01*
X6570665Y6703118D01*
X6571229Y6701051D01*
X6571605Y6699171D01*
X6571981Y6697292D01*
X6572169Y6695788D01*
X6572357Y6694660D01*
Y6693720D01*
Y6693157D01*
Y6692969D01*
X6572169Y6690337D01*
X6571981Y6688082D01*
X6570853Y6683571D01*
X6569537Y6679623D01*
X6567846Y6676428D01*
X6566154Y6673797D01*
X6564650Y6671729D01*
X6564086Y6671165D01*
X6563523Y6670601D01*
X6563335Y6670413D01*
X6563147Y6670225D01*
X6561831Y6669098D01*
X6560139Y6667782D01*
X6558260Y6666466D01*
X6556004Y6665150D01*
X6551305Y6662519D01*
X6546418Y6660076D01*
X6541907Y6657820D01*
X6539840Y6656880D01*
X6537960Y6655940D01*
X6536456Y6655377D01*
X6535329Y6654813D01*
X6534577Y6654625D01*
X6534389Y6654437D01*
X6531757Y6653309D01*
X6529314Y6652181D01*
X6527058Y6651054D01*
X6525179Y6650114D01*
X6523299Y6649174D01*
X6521795Y6648234D01*
X6520480Y6647482D01*
X6519164Y6646730D01*
X6517284Y6645603D01*
X6516157Y6644851D01*
X6515405Y6644287D01*
X6515217Y6644099D01*
X6513713Y6642595D01*
X6512773Y6641092D01*
X6512022Y6639588D01*
X6511458Y6638084D01*
X6511082Y6636769D01*
X6510894Y6635829D01*
Y6635077D01*
Y6634889D01*
X6511082Y6632821D01*
X6511646Y6630754D01*
X6512397Y6629062D01*
X6513337Y6627558D01*
X6514089Y6626431D01*
X6514841Y6625679D01*
X6515405Y6625115D01*
X6515593Y6624927D01*
X6517660Y6623611D01*
X6520104Y6622672D01*
X6522735Y6621920D01*
X6525179Y6621544D01*
X6527622Y6621168D01*
X6529502Y6620980D01*
X6531381D01*
X6535329Y6621168D01*
X6538900Y6621732D01*
X6541907Y6622672D01*
X6544163Y6623423D01*
X6546042Y6624363D01*
X6547358Y6625303D01*
X6548298Y6625867D01*
X6548486Y6626055D01*
X6550553Y6628122D01*
X6552057Y6630378D01*
X6553185Y6632821D01*
X6554125Y6635077D01*
X6554688Y6637144D01*
X6555252Y6638836D01*
X6555440Y6639964D01*
Y6640152D01*
Y6640340D01*
X6581003Y6639212D01*
X6580627Y6636017D01*
X6580063Y6632821D01*
X6579311Y6630002D01*
X6578371Y6627183D01*
X6577244Y6624739D01*
X6576116Y6622296D01*
X6574800Y6620228D01*
X6573484Y6618160D01*
X6572357Y6616469D01*
X6571229Y6614965D01*
X6570101Y6613649D01*
X6569161Y6612522D01*
X6568222Y6611770D01*
X6567658Y6611206D01*
X6567282Y6610830D01*
X6567094Y6610642D01*
X6564650Y6608763D01*
X6562019Y6607071D01*
X6559199Y6605567D01*
X6556192Y6604251D01*
X6553373Y6603312D01*
X6550365Y6602372D01*
X6544539Y6601056D01*
X6541907Y6600680D01*
X6539464Y6600304D01*
X6537208Y6600116D01*
X6535329Y6599928D01*
X6533825Y6599740D01*
X6531569D01*
X6527434Y6599928D01*
X6523675Y6600116D01*
X6520104Y6600680D01*
X6516721Y6601432D01*
X6513525Y6602184D01*
X6510706Y6603124D01*
X6508262Y6604251D01*
X6506007Y6605191D01*
X6503939Y6606131D01*
X6502060Y6607259D01*
X6500556Y6608199D01*
X6499428Y6608950D01*
X6498488Y6609702D01*
X6497737Y6610078D01*
X6497361Y6610454D01*
X6497173Y6610642D01*
X6495105Y6612710D01*
X6493226Y6614965D01*
X6491722Y6617221D01*
X6490406Y6619476D01*
X6489278Y6621920D01*
X6488151Y6624175D01*
X6486835Y6628498D01*
X6486271Y6630378D01*
X6485895Y6632258D01*
X6485707Y6633949D01*
X6485519Y6635265D01*
X6485331Y6636393D01*
Y6637332D01*
Y6637896D01*
Y6638084D01*
X6485519Y6641468D01*
X6485895Y6644663D01*
X6486647Y6647482D01*
X6487399Y6649926D01*
X6487963Y6651805D01*
X6488714Y6653309D01*
X6489090Y6654249D01*
X6489278Y6654625D01*
X6490970Y6657068D01*
X6492662Y6659324D01*
X6494541Y6661391D01*
X6496233Y6662895D01*
X6497737Y6664211D01*
X6499052Y6665338D01*
X6499804Y6665902D01*
X6500180Y6666090D01*
X6501496Y6666842D01*
X6503187Y6667782D01*
X6506571Y6669662D01*
X6510330Y6671353D01*
X6513901Y6673233D01*
X6517096Y6674736D01*
X6518600Y6675300D01*
X6519916Y6675864D01*
X6520856Y6676428D01*
X6521607Y6676616D01*
X6522171Y6676992D01*
X6522359D01*
X6524991Y6678120D01*
X6527622Y6679247D01*
X6529690Y6680375D01*
X6531757Y6681315D01*
X6533449Y6682067D01*
X6534953Y6682819D01*
X6536268Y6683571D01*
X6537396Y6684322D01*
X6539088Y6685262D01*
X6540216Y6686014D01*
X6540779Y6686390D01*
X6540967Y6686578D01*
X6542659Y6688082D01*
X6543787Y6689773D01*
X6544727Y6691465D01*
X6545290Y6692969D01*
X6545666Y6694284D01*
X6545854Y6695412D01*
Y6696164D01*
Y6696352D01*
X6545666Y6698795D01*
X6544915Y6700863D01*
X6543975Y6702742D01*
X6542847Y6704434D01*
X6541719Y6705750D01*
X6540779Y6706878D01*
X6540028Y6707442D01*
X6539840Y6707629D01*
X6537396Y6709133D01*
X6534389Y6710261D01*
X6531193Y6711201D01*
X6528186Y6711765D01*
X6525367Y6712140D01*
X6524051D01*
X6522923Y6712328D01*
X6518036D01*
X6515405Y6711953D01*
X6512961Y6711765D01*
X6510894Y6711201D01*
X6508826Y6710825D01*
X6507135Y6710261D01*
X6505443Y6709509D01*
X6504127Y6708945D01*
X6501872Y6707629D01*
X6500368Y6706690D01*
X6499616Y6705938D01*
X6499240Y6705562D01*
X6497925Y6703682D01*
X6496985Y6701239D01*
X6496233Y6698419D01*
X6495857Y6695600D01*
X6495481Y6693157D01*
X6495293Y6690901D01*
X6495105Y6690149D01*
Y6689585D01*
Y6689209D01*
Y6689021D01*
X6469543Y6690525D01*
X6469731Y6695224D01*
X6470106Y6699547D01*
X6470858Y6703494D01*
X6471798Y6706878D01*
X6472738Y6709697D01*
X6473114Y6710825D01*
X6473490Y6711765D01*
X6473866Y6712704D01*
X6474054Y6713268D01*
X6474242Y6713456D01*
Y6713644D01*
X6476497Y6717215D01*
X6479129Y6720223D01*
X6481948Y6723042D01*
X6484767Y6725110D01*
X6487399Y6726989D01*
X6489466Y6728117D01*
X6490406Y6728681D01*
X6490970Y6729057D01*
X6491346Y6729245D01*
X6491534D01*
X6496233Y6731124D01*
X6501308Y6732440D01*
X6506195Y6733380D01*
X6510706Y6733944D01*
X6512773Y6734320D01*
X6514653D01*
X6516345Y6734508D01*
X6517848Y6734696D01*
X6520668D01*
X6525179Y6734508D01*
D02*
G37*
%LPC*%
G36*
X6852321Y6893606D02*
X6851381D01*
X6849501Y6893418D01*
X6847810Y6893042D01*
X6846306Y6892666D01*
X6845178Y6892102D01*
X6844238Y6891538D01*
X6843486Y6890974D01*
X6843111Y6890786D01*
X6842923Y6890598D01*
X6841795Y6889471D01*
X6841043Y6888155D01*
X6840479Y6886839D01*
X6840103Y6885711D01*
X6839915Y6884584D01*
X6839727Y6883832D01*
Y6883268D01*
Y6883080D01*
X6839915Y6881200D01*
X6840291Y6879509D01*
X6841043Y6878005D01*
X6841795Y6876689D01*
X6842547Y6875750D01*
X6843298Y6874998D01*
X6843674Y6874622D01*
X6843862Y6874434D01*
X6845178Y6873682D01*
X6846682Y6872930D01*
X6848373Y6872178D01*
X6850253Y6871426D01*
X6854388Y6870299D01*
X6858523Y6869359D01*
X6862470Y6868607D01*
X6864162Y6868231D01*
X6865854Y6868043D01*
X6866981Y6867855D01*
X6868109D01*
X6868673Y6867667D01*
X6868861D01*
X6871492Y6867291D01*
X6873372Y6866727D01*
X6874124Y6866539D01*
X6874688D01*
X6874876Y6866352D01*
X6875064D01*
X6874312Y6869923D01*
X6873560Y6873118D01*
X6872808Y6875937D01*
X6872056Y6878381D01*
X6871305Y6880261D01*
X6870741Y6881764D01*
X6870177Y6882704D01*
X6869989Y6883456D01*
X6869801Y6883644D01*
X6868861Y6885335D01*
X6867545Y6886651D01*
X6866230Y6887967D01*
X6865102Y6888907D01*
X6863974Y6889847D01*
X6863034Y6890410D01*
X6862282Y6890786D01*
X6862094Y6890974D01*
X6860215Y6891914D01*
X6858335Y6892478D01*
X6856456Y6893042D01*
X6854764Y6893230D01*
X6853448Y6893418D01*
X6852321Y6893606D01*
D02*
G37*
G36*
X7676713Y6862404D02*
X7650963D01*
X7685171Y6821617D01*
X7676713Y6862404D01*
D02*
G37*
G36*
X7575591D02*
X7549840D01*
X7584049Y6821617D01*
X7575591Y6862404D01*
D02*
G37*
G36*
X7074489Y6893606D02*
X7073362D01*
X7070730Y6893418D01*
X7068287Y6892666D01*
X7066031Y6891726D01*
X7064151Y6890786D01*
X7062648Y6889659D01*
X7061520Y6888907D01*
X7060768Y6888155D01*
X7060580Y6887967D01*
X7058889Y6885711D01*
X7057573Y6883080D01*
X7056821Y6880449D01*
X7056069Y6878005D01*
X7055693Y6875750D01*
X7055505Y6873870D01*
Y6873118D01*
Y6872554D01*
Y6872366D01*
Y6872178D01*
X7055881Y6866915D01*
X7056633Y6861840D01*
X7057761Y6857329D01*
X7059077Y6853382D01*
X7059828Y6851503D01*
X7060392Y6849999D01*
X7060956Y6848683D01*
X7061520Y6847368D01*
X7062084Y6846616D01*
X7062272Y6845864D01*
X7062648Y6845488D01*
Y6845300D01*
X7064151Y6843044D01*
X7065467Y6841165D01*
X7067159Y6839473D01*
X7068663Y6837970D01*
X7070166Y6836842D01*
X7071670Y6835714D01*
X7074677Y6834210D01*
X7077309Y6833459D01*
X7079376Y6832895D01*
X7080128Y6832707D01*
X7081256D01*
X7083887Y6832895D01*
X7086331Y6833646D01*
X7088586Y6834774D01*
X7090466Y6835902D01*
X7091970Y6837030D01*
X7093097Y6838158D01*
X7093849Y6838909D01*
X7094037Y6839097D01*
X7095917Y6841729D01*
X7097232Y6844360D01*
X7098360Y6847180D01*
X7098924Y6849811D01*
X7099300Y6852067D01*
X7099676Y6853946D01*
Y6854698D01*
Y6855262D01*
Y6855450D01*
Y6855638D01*
X7099488Y6859021D01*
X7099112Y6862404D01*
X7098548Y6865600D01*
X7097984Y6868419D01*
X7097232Y6870863D01*
X7096669Y6872742D01*
X7096481Y6873494D01*
X7096293Y6874058D01*
X7096105Y6874246D01*
Y6874434D01*
X7094601Y6877817D01*
X7093097Y6880824D01*
X7091406Y6883268D01*
X7089902Y6885335D01*
X7088398Y6886839D01*
X7087271Y6887967D01*
X7086519Y6888719D01*
X7086331Y6888907D01*
X7084075Y6890410D01*
X7081820Y6891538D01*
X7079564Y6892478D01*
X7077685Y6893042D01*
X7075805Y6893418D01*
X7074489Y6893606D01*
D02*
G37*
G36*
X6963405D02*
X6962277D01*
X6959646Y6893418D01*
X6957202Y6892666D01*
X6954947Y6891726D01*
X6953067Y6890786D01*
X6951563Y6889659D01*
X6950436Y6888907D01*
X6949684Y6888155D01*
X6949496Y6887967D01*
X6947804Y6885711D01*
X6946489Y6883080D01*
X6945737Y6880449D01*
X6944985Y6878005D01*
X6944609Y6875750D01*
X6944421Y6873870D01*
Y6873118D01*
Y6872554D01*
Y6872366D01*
Y6872178D01*
X6944797Y6866915D01*
X6945549Y6861840D01*
X6946676Y6857329D01*
X6947992Y6853382D01*
X6948744Y6851503D01*
X6949308Y6849999D01*
X6949872Y6848683D01*
X6950436Y6847368D01*
X6951000Y6846616D01*
X6951188Y6845864D01*
X6951563Y6845488D01*
Y6845300D01*
X6953067Y6843044D01*
X6954383Y6841165D01*
X6956074Y6839473D01*
X6957578Y6837970D01*
X6959082Y6836842D01*
X6960586Y6835714D01*
X6963593Y6834210D01*
X6966224Y6833459D01*
X6968292Y6832895D01*
X6969044Y6832707D01*
X6970171D01*
X6972803Y6832895D01*
X6975246Y6833646D01*
X6977502Y6834774D01*
X6979382Y6835902D01*
X6980885Y6837030D01*
X6982013Y6838158D01*
X6982765Y6838909D01*
X6982953Y6839097D01*
X6984832Y6841729D01*
X6986148Y6844360D01*
X6987276Y6847180D01*
X6987840Y6849811D01*
X6988216Y6852067D01*
X6988592Y6853946D01*
Y6854698D01*
Y6855262D01*
Y6855450D01*
Y6855638D01*
X6988404Y6859021D01*
X6988028Y6862404D01*
X6987464Y6865600D01*
X6986900Y6868419D01*
X6986148Y6870863D01*
X6985584Y6872742D01*
X6985396Y6873494D01*
X6985208Y6874058D01*
X6985020Y6874246D01*
Y6874434D01*
X6983517Y6877817D01*
X6982013Y6880824D01*
X6980321Y6883268D01*
X6978818Y6885335D01*
X6977314Y6886839D01*
X6976186Y6887967D01*
X6975434Y6888719D01*
X6975246Y6888907D01*
X6972991Y6890410D01*
X6970735Y6891538D01*
X6968480Y6892478D01*
X6966600Y6893042D01*
X6964721Y6893418D01*
X6963405Y6893606D01*
D02*
G37*
G36*
X7361692Y6892478D02*
X7361316D01*
X7359437Y6892290D01*
X7357557Y6891914D01*
X7356053Y6891162D01*
X7354926Y6890410D01*
X7353798Y6889659D01*
X7353046Y6888907D01*
X7352670Y6888531D01*
X7352482Y6888343D01*
X7351354Y6886463D01*
X7350603Y6884208D01*
X7349851Y6881764D01*
X7349475Y6879321D01*
X7349287Y6877065D01*
X7349099Y6875186D01*
Y6874434D01*
Y6873870D01*
Y6873682D01*
Y6873494D01*
X7349287Y6868231D01*
X7349851Y6862592D01*
X7350603Y6857141D01*
X7351542Y6851691D01*
X7351918Y6849247D01*
X7352294Y6846992D01*
X7352670Y6844924D01*
X7353046Y6843232D01*
X7353422Y6841729D01*
X7353610Y6840789D01*
X7353798Y6840037D01*
Y6839849D01*
X7354926Y6835526D01*
X7356053Y6831579D01*
X7357181Y6827820D01*
X7358309Y6824624D01*
X7359437Y6821429D01*
X7360564Y6818798D01*
X7361692Y6816354D01*
X7362820Y6814099D01*
X7363760Y6812219D01*
X7364512Y6810715D01*
X7365451Y6809400D01*
X7366015Y6808272D01*
X7366579Y6807520D01*
X7366955Y6806768D01*
X7367331Y6806580D01*
Y6806392D01*
X7369399Y6804137D01*
X7371466Y6802633D01*
X7373534Y6801505D01*
X7375413Y6800566D01*
X7377105Y6800190D01*
X7378421Y6800002D01*
X7379172Y6799814D01*
X7379548D01*
X7381428Y6800002D01*
X7383308Y6800566D01*
X7384811Y6801317D01*
X7385939Y6802069D01*
X7387067Y6802821D01*
X7387819Y6803573D01*
X7388195Y6804137D01*
X7388382Y6804325D01*
X7389510Y6806204D01*
X7390450Y6808272D01*
X7391014Y6810715D01*
X7391578Y6812971D01*
X7391766Y6815038D01*
X7391954Y6816730D01*
Y6818046D01*
Y6818234D01*
Y6818422D01*
Y6820677D01*
X7391766Y6823309D01*
X7391202Y6828572D01*
X7390450Y6834022D01*
X7389698Y6839285D01*
X7389134Y6841729D01*
X7388758Y6843984D01*
X7388382Y6846052D01*
X7388007Y6847743D01*
X7387631Y6849059D01*
X7387443Y6850187D01*
X7387255Y6850939D01*
Y6851127D01*
X7386127Y6855826D01*
X7384999Y6860149D01*
X7383871Y6863908D01*
X7382744Y6867479D01*
X7381616Y6870675D01*
X7380488Y6873494D01*
X7379548Y6876125D01*
X7378421Y6878193D01*
X7377481Y6880073D01*
X7376729Y6881764D01*
X7375977Y6883080D01*
X7375413Y6884020D01*
X7374849Y6884960D01*
X7374473Y6885523D01*
X7374098Y6885711D01*
Y6885899D01*
X7371842Y6888155D01*
X7369774Y6889659D01*
X7367519Y6890786D01*
X7365639Y6891726D01*
X7363948Y6892102D01*
X7362444Y6892290D01*
X7361692Y6892478D01*
D02*
G37*
G36*
X7266117Y6714020D02*
X7264989D01*
X7261982Y6713832D01*
X7259163Y6713268D01*
X7256719Y6712328D01*
X7254839Y6711389D01*
X7253148Y6710637D01*
X7252020Y6709697D01*
X7251268Y6709133D01*
X7251080Y6708945D01*
X7249389Y6706878D01*
X7248073Y6704622D01*
X7247321Y6702367D01*
X7246569Y6700111D01*
X7246193Y6698231D01*
X7246005Y6696728D01*
Y6695788D01*
Y6695412D01*
X7246193Y6692781D01*
X7246757Y6690337D01*
X7247697Y6687894D01*
X7248825Y6685638D01*
X7250140Y6683571D01*
X7251456Y6681691D01*
X7254839Y6678308D01*
X7258035Y6675676D01*
X7259350Y6674549D01*
X7260854Y6673797D01*
X7261794Y6673045D01*
X7262734Y6672481D01*
X7263298Y6672293D01*
X7263486Y6672105D01*
X7267245Y6678872D01*
X7271192Y6685262D01*
X7275139Y6691089D01*
X7277019Y6693720D01*
X7278710Y6696164D01*
X7280402Y6698419D01*
X7281906Y6700487D01*
X7283221Y6702367D01*
X7284349Y6703870D01*
X7285289Y6704998D01*
X7286041Y6705938D01*
X7286417Y6706502D01*
X7286605Y6706690D01*
X7282470Y6709133D01*
X7278522Y6711013D01*
X7274951Y6712140D01*
X7271568Y6713080D01*
X7268936Y6713644D01*
X7267809Y6713832D01*
X7266869D01*
X7266117Y6714020D01*
D02*
G37*
G36*
X7275891Y6643535D02*
X7275703D01*
X7274387Y6640528D01*
X7273447Y6637896D01*
X7272884Y6635641D01*
X7272508Y6633573D01*
X7272132Y6632070D01*
X7271944Y6630754D01*
Y6630002D01*
Y6629814D01*
X7272132Y6627746D01*
X7272508Y6625679D01*
X7273072Y6623987D01*
X7273635Y6622672D01*
X7274199Y6621544D01*
X7274763Y6620792D01*
X7275139Y6620228D01*
X7275327Y6620040D01*
X7276831Y6618724D01*
X7278146Y6617785D01*
X7279650Y6617221D01*
X7281154Y6616657D01*
X7282282Y6616469D01*
X7283221Y6616281D01*
X7284161D01*
X7285665Y6616469D01*
X7286981Y6616657D01*
X7288108Y6617033D01*
X7289048Y6617409D01*
X7289800Y6617973D01*
X7290364Y6618348D01*
X7290552Y6618536D01*
X7290740Y6618724D01*
X7291492Y6619664D01*
X7292243Y6620604D01*
X7292807Y6622672D01*
X7292995Y6623423D01*
X7293183Y6624175D01*
Y6624551D01*
Y6624739D01*
X7292995Y6626243D01*
X7292807Y6627558D01*
X7291680Y6630190D01*
X7291116Y6631130D01*
X7290740Y6631882D01*
X7290364Y6632445D01*
X7290176Y6632633D01*
X7288296Y6634701D01*
X7286041Y6636581D01*
X7283785Y6638460D01*
X7281342Y6640152D01*
X7279086Y6641468D01*
X7277395Y6642595D01*
X7276643Y6642971D01*
X7276079Y6643347D01*
X7275891Y6643535D01*
D02*
G37*
G36*
X7677186Y6677556D02*
X7637150D01*
X7638090Y6673421D01*
X7639406Y6670037D01*
X7640909Y6667030D01*
X7642225Y6664587D01*
X7643541Y6662519D01*
X7644668Y6661203D01*
X7645420Y6660264D01*
X7645608Y6660076D01*
X7648052Y6658008D01*
X7650495Y6656504D01*
X7652939Y6655565D01*
X7655194Y6654813D01*
X7657074Y6654437D01*
X7658578Y6654061D01*
X7659893D01*
X7662713Y6654249D01*
X7665156Y6654813D01*
X7667412Y6655752D01*
X7669103Y6656692D01*
X7670607Y6657632D01*
X7671547Y6658572D01*
X7672299Y6659136D01*
X7672487Y6659324D01*
X7673990Y6661579D01*
X7675118Y6664023D01*
X7676058Y6666654D01*
X7676622Y6669098D01*
X7676998Y6671541D01*
X7677186Y6673421D01*
Y6674173D01*
Y6674736D01*
Y6674924D01*
Y6675112D01*
Y6675864D01*
Y6676616D01*
Y6677368D01*
Y6677556D01*
D02*
G37*
G36*
X7969651Y6714960D02*
X7968712D01*
X7965704Y6714772D01*
X7963073Y6714020D01*
X7960817Y6713081D01*
X7958750Y6711953D01*
X7957246Y6711013D01*
X7955930Y6710073D01*
X7955178Y6709321D01*
X7954990Y6709133D01*
X7953111Y6706690D01*
X7951795Y6704058D01*
X7950855Y6701427D01*
X7950291Y6698796D01*
X7949916Y6696540D01*
X7949540Y6694660D01*
Y6693909D01*
Y6693345D01*
Y6693157D01*
Y6692969D01*
X7949728Y6689961D01*
X7950103Y6686766D01*
X7950667Y6683759D01*
X7951231Y6680939D01*
X7951795Y6678684D01*
X7952359Y6676804D01*
X7952547Y6676052D01*
X7952735Y6675489D01*
X7952923Y6675301D01*
Y6675113D01*
X7954427Y6671729D01*
X7955930Y6668722D01*
X7957622Y6666091D01*
X7959314Y6664023D01*
X7960629Y6662331D01*
X7961757Y6661204D01*
X7962697Y6660452D01*
X7962885Y6660264D01*
X7965328Y6658572D01*
X7967960Y6657256D01*
X7970403Y6656317D01*
X7972659Y6655565D01*
X7974538Y6655189D01*
X7976230Y6655001D01*
X7977546D01*
X7980553Y6655189D01*
X7983184Y6655941D01*
X7985440Y6656693D01*
X7987508Y6657820D01*
X7989011Y6658760D01*
X7990139Y6659700D01*
X7990891Y6660452D01*
X7991079Y6660640D01*
X7992958Y6662895D01*
X7994274Y6665151D01*
X7995214Y6667594D01*
X7995778Y6669850D01*
X7996342Y6671917D01*
X7996530Y6673609D01*
Y6674737D01*
Y6674925D01*
Y6675113D01*
X7996342Y6678496D01*
X7996154Y6681691D01*
X7995026Y6687706D01*
X7994274Y6690337D01*
X7993334Y6692969D01*
X7992394Y6695224D01*
X7991455Y6697480D01*
X7990515Y6699359D01*
X7989575Y6701051D01*
X7988823Y6702555D01*
X7987883Y6703871D01*
X7987320Y6704810D01*
X7986756Y6705562D01*
X7986568Y6705938D01*
X7986380Y6706126D01*
X7985064Y6707630D01*
X7983560Y6708945D01*
X7980553Y6711201D01*
X7977734Y6712705D01*
X7974914Y6713832D01*
X7972471Y6714396D01*
X7970403Y6714772D01*
X7969651Y6714960D01*
D02*
G37*
G36*
X6882115Y6684322D02*
X6856364D01*
X6890573Y6643535D01*
X6882115Y6684322D01*
D02*
G37*
G36*
X6971584Y6714396D02*
X6971208D01*
X6969328Y6714208D01*
X6967449Y6713832D01*
X6965945Y6713080D01*
X6964817Y6712328D01*
X6963689Y6711577D01*
X6962938Y6710825D01*
X6962562Y6710449D01*
X6962374Y6710261D01*
X6961246Y6708381D01*
X6960494Y6706126D01*
X6959742Y6703682D01*
X6959366Y6701239D01*
X6959178Y6698983D01*
X6958990Y6697104D01*
Y6696352D01*
Y6695788D01*
Y6695600D01*
Y6695412D01*
X6959178Y6690149D01*
X6959742Y6684510D01*
X6960494Y6679060D01*
X6961434Y6673609D01*
X6961810Y6671165D01*
X6962186Y6668910D01*
X6962562Y6666842D01*
X6962938Y6665150D01*
X6963313Y6663647D01*
X6963501Y6662707D01*
X6963689Y6661955D01*
Y6661767D01*
X6964817Y6657444D01*
X6965945Y6653497D01*
X6967073Y6649738D01*
X6968200Y6646542D01*
X6969328Y6643347D01*
X6970456Y6640716D01*
X6971584Y6638272D01*
X6972711Y6636017D01*
X6973651Y6634137D01*
X6974403Y6632633D01*
X6975343Y6631318D01*
X6975907Y6630190D01*
X6976471Y6629438D01*
X6976847Y6628686D01*
X6977223Y6628498D01*
Y6628310D01*
X6979290Y6626055D01*
X6981358Y6624551D01*
X6983425Y6623423D01*
X6985305Y6622484D01*
X6986996Y6622108D01*
X6988312Y6621920D01*
X6989064Y6621732D01*
X6989440D01*
X6991320Y6621920D01*
X6993199Y6622484D01*
X6994703Y6623235D01*
X6995831Y6623987D01*
X6996958Y6624739D01*
X6997710Y6625491D01*
X6998086Y6626055D01*
X6998274Y6626243D01*
X6999402Y6628122D01*
X7000342Y6630190D01*
X7000905Y6632633D01*
X7001469Y6634889D01*
X7001657Y6636957D01*
X7001845Y6638648D01*
Y6639964D01*
Y6640152D01*
Y6640340D01*
Y6642595D01*
X7001657Y6645227D01*
X7001093Y6650490D01*
X7000342Y6655940D01*
X6999590Y6661203D01*
X6999026Y6663647D01*
X6998650Y6665902D01*
X6998274Y6667970D01*
X6997898Y6669662D01*
X6997522Y6670977D01*
X6997334Y6672105D01*
X6997146Y6672857D01*
Y6673045D01*
X6996019Y6677744D01*
X6994891Y6682067D01*
X6993763Y6685826D01*
X6992635Y6689397D01*
X6991507Y6692593D01*
X6990380Y6695412D01*
X6989440Y6698044D01*
X6988312Y6700111D01*
X6987372Y6701991D01*
X6986621Y6703682D01*
X6985869Y6704998D01*
X6985305Y6705938D01*
X6984741Y6706878D01*
X6984365Y6707442D01*
X6983989Y6707629D01*
Y6707817D01*
X6981734Y6710073D01*
X6979666Y6711577D01*
X6977410Y6712704D01*
X6975531Y6713644D01*
X6973839Y6714020D01*
X6972336Y6714208D01*
X6971584Y6714396D01*
D02*
G37*
%LPD*%
%TF.MD5,eaa4fbeb4c11df924db4aed66f73a989*%
M02*
