%TF.GenerationSoftware,Altium Limited,Altium Designer,23.0.1 (38)*%
G04 Layer_Physical_Order=1*
G04 Layer_Color=255*
%FSLAX45Y45*%
%MOMM*%
%TF.SameCoordinates,9A133E00-D3C7-422F-B50A-FBA9B3BD8817*%
%TF.FilePolarity,Positive*%
%TF.FileFunction,Copper,L1,Top,Signal*%
%TF.Part,Single*%
G01*
G75*
%TA.AperFunction,Conductor*%
%ADD10C,1.27000*%
%TA.AperFunction,SMDPad,CuDef*%
%ADD11R,4.50000X1.30000*%
%ADD12R,3.90000X1.80000*%
%ADD13R,0.30000X0.50000*%
%AMCUSTOMSHAPE14*
4,1,6,0.53120,-0.50000,-0.53120,-0.50000,-0.72500,-0.30620,-0.72500,0.50000,0.72500,0.50000,0.72500,-0.30620,0.53120,-0.50000,0.0*%
%ADD14CUSTOMSHAPE14*%

%AMCUSTOMSHAPE15*
4,1,6,0.72500,-0.50000,-0.72500,-0.50000,-0.72500,0.30620,-0.53120,0.50000,0.53120,0.50000,0.72500,0.30620,0.72500,-0.50000,0.0*%
%ADD15CUSTOMSHAPE15*%

%ADD16R,0.97230X0.50800*%
%AMCUSTOMSHAPE17*
4,1,6,-0.45000,-0.47500,0.27000,-0.47500,0.45000,-0.29500,0.45000,0.29500,0.27000,0.47500,-0.45000,0.47500,-0.45000,-0.47500,0.0*%
%ADD17CUSTOMSHAPE17*%

%AMCUSTOMSHAPE18*
4,1,6,-0.45000,-0.29500,-0.27000,-0.47500,0.45000,-0.47500,0.45000,0.47500,-0.27000,0.47500,-0.45000,0.29500,-0.45000,-0.29500,0.0*%
%ADD18CUSTOMSHAPE18*%

%AMCUSTOMSHAPE19*
4,1,6,0.47500,0.50000,0.47500,-0.50000,-0.32560,-0.50000,-0.47500,-0.35060,-0.47500,0.35060,-0.32560,0.50000,0.47500,0.50000,0.0*%
%ADD19CUSTOMSHAPE19*%

%AMCUSTOMSHAPE20*
4,1,6,0.47500,0.35060,0.47500,-0.35060,0.32560,-0.50000,-0.47500,-0.50000,-0.47500,0.50000,0.32560,0.50000,0.47500,0.35060,0.0*%
%ADD20CUSTOMSHAPE20*%

%AMCUSTOMSHAPE21*
4,1,6,-0.35060,0.47500,0.35060,0.47500,0.50000,0.32560,0.50000,-0.47500,-0.50000,-0.47500,-0.50000,0.32560,-0.35060,0.47500,0.0*%
%ADD21CUSTOMSHAPE21*%

%AMCUSTOMSHAPE22*
4,1,6,-0.50000,0.47500,0.50000,0.47500,0.50000,-0.32560,0.35060,-0.47500,-0.35060,-0.47500,-0.50000,-0.32560,-0.50000,0.47500,0.0*%
%ADD22CUSTOMSHAPE22*%

%TA.AperFunction,Conductor*%
%ADD23C,0.38100*%
%ADD24C,0.50800*%
%TA.AperFunction,ViaPad*%
%ADD25C,0.60960*%
G36*
X9270168Y8169124D02*
X9284329Y8110136D01*
X9307544Y8054091D01*
X9339241Y8002367D01*
X9378638Y7956238D01*
X9424767Y7916841D01*
X9476491Y7885144D01*
X9532536Y7861929D01*
X9591524Y7847768D01*
X9615907Y7845849D01*
Y6886592D01*
X9585924Y6884232D01*
X9526936Y6870071D01*
X9470891Y6846856D01*
X9419167Y6815160D01*
X9373038Y6775762D01*
X9333641Y6729633D01*
X9301944Y6677909D01*
X9278729Y6621864D01*
X9264568Y6562877D01*
X9262649Y6538493D01*
X6335293D01*
Y6555600D01*
X6773600D01*
Y6786400D01*
X6335293D01*
Y7945600D01*
X6773600D01*
Y8176400D01*
X6335293D01*
Y8193507D01*
X9268249D01*
X9270168Y8169124D01*
D02*
G37*
%LPC*%
G36*
X8204200Y8128498D02*
X8194289Y8126526D01*
X8185888Y8120912D01*
X8147788Y8082812D01*
X8142174Y8074411D01*
X8141416Y8070600D01*
X8139430D01*
Y7969000D01*
X8161475D01*
X8173188Y7957287D01*
X8181589Y7951673D01*
X8191499Y7949702D01*
X8206173Y7949702D01*
X8223988Y7931888D01*
X8232389Y7926274D01*
X8242300Y7924302D01*
X8581094D01*
X8597133Y7908264D01*
Y7801041D01*
X8589926Y7791194D01*
X8589547Y7791472D01*
X8586353Y7786692D01*
X8577502Y7780777D01*
X8566284Y7774964D01*
X8559988Y7772641D01*
X8560157Y7772065D01*
X8540377Y7763871D01*
X8521806Y7749622D01*
X8521805Y7749621D01*
X8455578Y7683394D01*
X8452123Y7678892D01*
X8448093Y7674898D01*
X8445030Y7669647D01*
X8441328Y7664823D01*
X8439157Y7659582D01*
X8436297Y7654680D01*
X8425186Y7628197D01*
X8424717Y7626479D01*
X8423379Y7623010D01*
X8422757Y7621725D01*
X8421980Y7619384D01*
X8420194Y7614757D01*
X8418368Y7610340D01*
X8417397Y7608388D01*
X8417169Y7607980D01*
X8410940Y7597136D01*
X8405946Y7588634D01*
X8404958Y7586249D01*
X8396988Y7567007D01*
X8393933Y7543800D01*
Y7085562D01*
X8137936D01*
X8109844Y7113655D01*
X8104054Y7127633D01*
X8102298Y7129922D01*
Y7130300D01*
X8100326Y7140211D01*
X8094713Y7148612D01*
X8086311Y7154226D01*
X8085611Y7154365D01*
X8083926Y7157950D01*
X8086311Y7171374D01*
X8094713Y7176988D01*
X8100326Y7185389D01*
X8102298Y7195300D01*
Y7202579D01*
X8132394D01*
X8134447Y7200527D01*
X8154985Y7192020D01*
X8177215D01*
X8197753Y7200527D01*
X8213473Y7216246D01*
X8221980Y7236785D01*
Y7259015D01*
X8213473Y7279553D01*
X8197753Y7295273D01*
X8177215Y7303780D01*
X8154985D01*
X8134447Y7295273D01*
X8132394Y7293221D01*
X8095014D01*
X8094713Y7293672D01*
X8079772Y7308613D01*
X8071370Y7314227D01*
X8061460Y7316198D01*
X8032046D01*
X8026400Y7317321D01*
X8020754Y7316198D01*
X7991340D01*
X7981430Y7314227D01*
X7973028Y7308613D01*
X7958087Y7293672D01*
X7954378Y7288121D01*
X7483600D01*
Y7331400D01*
X6982800D01*
Y7150600D01*
X7483600D01*
Y7197479D01*
X7950502D01*
Y7195300D01*
X7952474Y7185389D01*
X7958087Y7176988D01*
X7966489Y7171374D01*
X7968874Y7157950D01*
X7967189Y7154365D01*
X7966489Y7154226D01*
X7958087Y7148612D01*
X7952474Y7140211D01*
X7950502Y7130300D01*
Y7129922D01*
X7948746Y7127633D01*
X7939788Y7106007D01*
X7936733Y7082800D01*
Y7070290D01*
X7939788Y7047083D01*
X7948746Y7025457D01*
X7962996Y7006886D01*
X7974605Y6995277D01*
Y6730154D01*
X7967430Y6728726D01*
X7959028Y6723113D01*
X7944087Y6708172D01*
X7943034Y6706595D01*
X7917054D01*
X7797498Y6826152D01*
Y6876300D01*
X7795526Y6886211D01*
X7789913Y6894612D01*
X7781511Y6900226D01*
X7771600Y6902198D01*
X7671600D01*
X7661689Y6900226D01*
X7653287Y6894612D01*
X7647674Y6886211D01*
X7645702Y6876300D01*
Y6796240D01*
X7647674Y6786330D01*
X7653287Y6777928D01*
X7668228Y6762987D01*
X7676630Y6757374D01*
X7686540Y6755402D01*
X7721748D01*
X7858975Y6618176D01*
X7858975Y6618175D01*
X7875779Y6606947D01*
X7895600Y6603005D01*
X7943034D01*
X7944087Y6601428D01*
X7959028Y6586488D01*
X7967429Y6580874D01*
X7977340Y6578902D01*
X8057400D01*
X8067311Y6580874D01*
X8075712Y6586487D01*
X8081326Y6594889D01*
X8083298Y6604800D01*
Y6704800D01*
X8081326Y6714711D01*
X8078195Y6719397D01*
Y6899572D01*
X8087744Y6907946D01*
X8100795Y6906228D01*
X8446459D01*
X8498714Y6853973D01*
X8517284Y6839723D01*
X8538910Y6830766D01*
X8562118Y6827710D01*
X8732891D01*
X8756099Y6830766D01*
X8777725Y6839723D01*
X8796295Y6853973D01*
X8863055Y6920733D01*
X8911600D01*
X8934807Y6923788D01*
X8956433Y6932746D01*
X8958722Y6934502D01*
X8959100D01*
X8969011Y6936474D01*
X8977412Y6942087D01*
X8983026Y6950489D01*
X8984895Y6959887D01*
X8989254Y6965566D01*
X8998212Y6987193D01*
X9001267Y7010400D01*
X8998212Y7033607D01*
X8989254Y7055234D01*
X8984895Y7060913D01*
X8983026Y7070311D01*
X8980628Y7073900D01*
X8986727Y7086600D01*
X9209507D01*
X9219702Y7076404D01*
Y7061200D01*
X9220512Y7057130D01*
X9221031Y7053010D01*
X9225030Y7041016D01*
X9227025Y7037514D01*
X9228734Y7033864D01*
X9243713Y7013491D01*
X9246688Y7010772D01*
X9249435Y7007823D01*
X9269949Y6993037D01*
X9273616Y6991363D01*
X9277136Y6989401D01*
X9301200Y6981633D01*
X9305203Y6981167D01*
X9309156Y6980381D01*
X9334443Y6980380D01*
X9338397Y6981167D01*
X9342400Y6981633D01*
X9366464Y6989401D01*
X9369984Y6991364D01*
X9373651Y6993037D01*
X9394165Y7007823D01*
X9396911Y7010772D01*
X9399886Y7013491D01*
X9414866Y7033864D01*
X9416574Y7037514D01*
X9418570Y7041016D01*
X9422568Y7053010D01*
X9423088Y7057129D01*
X9423897Y7061200D01*
X9423898Y7518400D01*
Y7528407D01*
X9423400Y7530908D01*
Y7533459D01*
X9419496Y7553088D01*
X9418519Y7555445D01*
X9418022Y7557946D01*
X9410363Y7576436D01*
X9408946Y7578557D01*
X9407970Y7580913D01*
X9396851Y7597554D01*
X9395047Y7599358D01*
X9393630Y7601479D01*
X9379479Y7615630D01*
X9377358Y7617047D01*
X9375554Y7618851D01*
X9358913Y7629970D01*
X9356557Y7630946D01*
X9354436Y7632363D01*
X9335946Y7640022D01*
X9333444Y7640519D01*
X9331088Y7641496D01*
X9311459Y7645400D01*
X9308908D01*
X9306407Y7645898D01*
X8715062D01*
X8710783Y7657855D01*
X8713203Y7659841D01*
X8730655Y7681107D01*
X8734638Y7685274D01*
X8759156Y7718772D01*
X8761492Y7723039D01*
X8764454Y7726899D01*
X8767090Y7733263D01*
X8770398Y7739304D01*
X8771550Y7744030D01*
X8773412Y7748525D01*
X8774311Y7755354D01*
X8775942Y7762046D01*
X8775832Y7766909D01*
X8776467Y7771732D01*
Y7945405D01*
X8773412Y7968612D01*
X8764454Y7990239D01*
X8750204Y8008809D01*
X8736305Y8022708D01*
X8736126Y8023608D01*
X8730513Y8032010D01*
X8641614Y8120911D01*
X8641614Y8120912D01*
X8633212Y8126526D01*
X8623302Y8128497D01*
X8204200Y8128498D01*
D02*
G37*
G36*
X8287460Y7880600D02*
X8139430D01*
Y7779000D01*
X8287460D01*
Y7880600D01*
D02*
G37*
G36*
X7975600Y8128498D02*
X7543800D01*
X7533889Y8126526D01*
X7525488Y8120912D01*
X7474688Y8070112D01*
X7469074Y8061711D01*
X7467102Y8051800D01*
Y7960927D01*
X7367973Y7861798D01*
X7023100D01*
X7013189Y7859826D01*
X7004788Y7854212D01*
X6979388Y7828812D01*
X6973774Y7820411D01*
X6971802Y7810500D01*
Y7670800D01*
X6973774Y7660889D01*
X6979388Y7652488D01*
X6992088Y7639788D01*
X7000489Y7634174D01*
X7010400Y7632202D01*
X7505700Y7632202D01*
X7515610Y7634173D01*
X7524012Y7639787D01*
X7587512Y7703287D01*
X7593126Y7711689D01*
X7595098Y7721600D01*
Y7901373D01*
X7618027Y7924302D01*
X7759700D01*
X7769611Y7926274D01*
X7778012Y7931888D01*
X7795827Y7949702D01*
X7988300D01*
X7998211Y7951674D01*
X8000005Y7952873D01*
X8012705Y7946084D01*
Y7882754D01*
X8011546Y7881595D01*
X7940955D01*
X7935952Y7880600D01*
X7866940D01*
Y7779000D01*
X7935952D01*
X7940955Y7778005D01*
X8033000D01*
X8052821Y7781947D01*
X8069625Y7793175D01*
X8101125Y7824675D01*
X8112353Y7841479D01*
X8116295Y7861300D01*
Y7990042D01*
X8112353Y8009863D01*
X8101125Y8026667D01*
X8101124Y8026667D01*
X8071367Y8056425D01*
X8054563Y8067653D01*
X8034742Y8071595D01*
X8026898D01*
Y8077200D01*
X8024926Y8087111D01*
X8019312Y8095512D01*
X7993912Y8120912D01*
X7985511Y8126526D01*
X7975600Y8128498D01*
D02*
G37*
G36*
X7483600Y7581400D02*
X7258600D01*
Y7516400D01*
X7483600D01*
Y7581400D01*
D02*
G37*
G36*
X7207800D02*
X6982800D01*
Y7516400D01*
X7207800D01*
Y7581400D01*
D02*
G37*
G36*
X7483600Y7465600D02*
X7258600D01*
Y7400600D01*
X7483600D01*
Y7465600D01*
D02*
G37*
G36*
X7207800D02*
X6982800D01*
Y7400600D01*
X7207800D01*
Y7465600D01*
D02*
G37*
G36*
X7483600Y7081400D02*
X6982800D01*
Y6900600D01*
X7483600D01*
Y6945679D01*
X7645702D01*
Y6941300D01*
X7647674Y6931389D01*
X7653287Y6922988D01*
X7661689Y6917374D01*
X7671600Y6915402D01*
X7771600D01*
X7781511Y6917374D01*
X7789913Y6922988D01*
X7795526Y6931389D01*
X7797498Y6941300D01*
Y6943479D01*
X7836494D01*
X7842347Y6937627D01*
X7862885Y6929120D01*
X7885115D01*
X7905653Y6937627D01*
X7921373Y6953347D01*
X7929880Y6973885D01*
Y6996115D01*
X7921373Y7016653D01*
X7905653Y7032373D01*
X7885115Y7040880D01*
X7862885D01*
X7846567Y7034121D01*
X7793622D01*
X7789913Y7039672D01*
X7774972Y7054613D01*
X7766570Y7060227D01*
X7756660Y7062198D01*
X7686540D01*
X7676630Y7060227D01*
X7668228Y7054613D01*
X7653287Y7039672D01*
X7651048Y7036321D01*
X7483600D01*
Y7081400D01*
D02*
G37*
G36*
X8590600Y6728198D02*
X8589000D01*
Y6680200D01*
X8634498D01*
Y6684300D01*
X8632526Y6694211D01*
X8626912Y6702612D01*
X8608912Y6720612D01*
X8600511Y6726226D01*
X8590600Y6728198D01*
D02*
G37*
G36*
X8538200D02*
X8518600D01*
X8508689Y6726226D01*
X8500287Y6720612D01*
X8494673Y6712211D01*
X8492702Y6702300D01*
Y6680200D01*
X8538200D01*
Y6728198D01*
D02*
G37*
G36*
X8634498Y6629400D02*
X8589000D01*
Y6581402D01*
X8590600D01*
X8600511Y6583374D01*
X8608912Y6588988D01*
X8626912Y6606988D01*
X8632526Y6615389D01*
X8634498Y6625300D01*
Y6629400D01*
D02*
G37*
G36*
X8538200D02*
X8492702D01*
Y6607300D01*
X8494673Y6597389D01*
X8500287Y6588988D01*
X8508689Y6583374D01*
X8518600Y6581402D01*
X8538200D01*
Y6629400D01*
D02*
G37*
G36*
X8202460Y6730698D02*
X8122400Y6730698D01*
X8112489Y6728726D01*
X8104088Y6723113D01*
X8098474Y6714711D01*
X8096502Y6704800D01*
Y6604800D01*
X8098474Y6594889D01*
X8104088Y6586487D01*
X8112489Y6580874D01*
X8122400Y6578902D01*
X8202460D01*
X8212370Y6580874D01*
X8220772Y6586487D01*
X8235713Y6601428D01*
X8236766Y6603005D01*
X8344270D01*
X8358287Y6588988D01*
X8366689Y6583374D01*
X8376600Y6581402D01*
X8448600D01*
X8458511Y6583374D01*
X8466912Y6588988D01*
X8472526Y6597389D01*
X8474498Y6607300D01*
Y6702300D01*
X8472526Y6712211D01*
X8466912Y6720612D01*
X8458511Y6726226D01*
X8448600Y6728198D01*
X8376600D01*
X8366689Y6726226D01*
X8358287Y6720612D01*
X8344270Y6706595D01*
X8236767D01*
X8235713Y6708172D01*
X8220772Y6723113D01*
X8212370Y6728727D01*
X8202460Y6730698D01*
D02*
G37*
%LPD*%
G36*
X8623302Y8102600D02*
X8712200Y8013698D01*
X8712200Y7962900D01*
X8699500Y7950200D01*
X8242300D01*
X8216900Y7975600D01*
X8191500Y7975600D01*
X8166100Y8001000D01*
Y8064500D01*
X8204200Y8102600D01*
X8623302Y8102600D01*
D02*
G37*
G36*
X8001000Y8077200D02*
Y7988300D01*
X7988300Y7975600D01*
X7785100D01*
X7759700Y7950200D01*
X7607300D01*
X7569200Y7912100D01*
Y7721600D01*
X7505700Y7658100D01*
X7010400Y7658100D01*
X6997700Y7670800D01*
Y7810500D01*
X7023100Y7835900D01*
X7378700D01*
X7493000Y7950200D01*
Y8051800D01*
X7543800Y8102600D01*
X7975600D01*
X8001000Y8077200D01*
D02*
G37*
D10*
X8616963Y7699837D02*
G03*
X8662282Y7738234I-57163J113408D01*
G01*
X8498215Y7568862D02*
G03*
X8505654Y7586834I-113281J57414D01*
G01*
X8585210Y7686218D02*
G03*
X8606616Y7694634I-35579J121915D01*
G01*
X8483600Y7543800D02*
G03*
X8494502Y7561536I-102379J75150D01*
G01*
X8507863Y7593493D02*
G03*
X8507871Y7593506I-110796J62075D01*
G01*
X8483600Y6995895D02*
Y7543800D01*
X8686800Y7771732D02*
Y7945405D01*
X8662282Y7738234D02*
X8686800Y7771732D01*
X8507871Y7593506D02*
X8518982Y7619990D01*
X8494502Y7561536D02*
X8498215Y7568862D01*
X8505654Y7586834D02*
X8507863Y7593493D01*
X8606616Y7694634D02*
X8616963Y7699837D01*
X8518982Y7619990D02*
X8585210Y7686217D01*
X8483600Y8019800D02*
X8612405D01*
X8686800Y7945405D01*
X8026400Y7070290D02*
Y7082800D01*
X8100795Y6995895D02*
X8483600D01*
X8026400Y7070290D02*
X8100795Y6995895D01*
X8562118Y6917377D02*
X8732891D01*
X8483600Y6995895D02*
X8562118Y6917377D01*
X8732891D02*
X8825914Y7010400D01*
X8911600D01*
D11*
X7233200Y7741000D02*
D03*
Y7491000D02*
D03*
Y7241000D02*
D03*
Y6991000D02*
D03*
D12*
X6553200Y8061000D02*
D03*
Y6671000D02*
D03*
D13*
X9031600Y7245200D02*
D03*
X8951600D02*
D03*
Y7385200D02*
D03*
X9031600D02*
D03*
D14*
X8483600Y7829800D02*
D03*
X7670800D02*
D03*
D15*
X8483600Y8019800D02*
D03*
X7670800D02*
D03*
D16*
X7940955D02*
D03*
Y7924800D02*
D03*
Y7829800D02*
D03*
X8213445D02*
D03*
Y8019800D02*
D03*
D17*
X8563600Y6654800D02*
D03*
D18*
X8403600D02*
D03*
D19*
X8009900D02*
D03*
X8911600Y7010400D02*
D03*
D20*
X8169900Y6654800D02*
D03*
X9071600Y7010400D02*
D03*
D21*
X8026400Y7242800D02*
D03*
X7721600Y6988800D02*
D03*
D22*
X8026400Y7082800D02*
D03*
X7721600Y6828800D02*
D03*
D23*
X9031125Y7462520D02*
X9031362Y7462283D01*
Y7385438D02*
Y7462283D01*
Y7385438D02*
X9031600Y7385200D01*
X7235000Y7242800D02*
X8026400D01*
X8031500Y7247900D01*
X8166100D01*
X7995400Y7241000D02*
X8026400Y7272000D01*
X8867850Y7381950D02*
X8948350D01*
X8951600Y7385200D01*
X8864600Y7378700D02*
X8867850Y7381950D01*
X7870200Y6988800D02*
X7874000Y6985000D01*
X7721600Y6988800D02*
X7870200D01*
X7719400Y6991000D02*
X7721600Y6988800D01*
X7233200Y6991000D02*
X7719400D01*
D24*
X8026400Y6671300D02*
Y7070290D01*
X8009900Y6654800D02*
X8026400Y6671300D01*
X9071600Y7010400D02*
Y7205200D01*
X9031600Y7245200D02*
X9071600Y7205200D01*
X8911600D02*
X8951600Y7245200D01*
X8911600Y7010400D02*
Y7205200D01*
X7721600Y6828800D02*
X7895600Y6654800D01*
X8009900D01*
X8169900D02*
X8403600D01*
X7940955Y8019800D02*
X8034742D01*
X8064500Y7990042D01*
Y7861300D02*
Y7990042D01*
X7940955Y7829800D02*
X8033000D01*
X8064500Y7861300D01*
D25*
X9031125Y7462520D02*
D03*
X7823200Y7899400D02*
D03*
X9169400Y6896100D02*
D03*
X9182100Y7010400D02*
D03*
X9067800Y6896100D02*
D03*
X8699500Y6654800D02*
D03*
X8343900Y7835900D02*
D03*
X8394700Y7708900D02*
D03*
X7747000Y7721600D02*
D03*
X7658100Y7708900D02*
D03*
X7569200Y7378700D02*
D03*
Y7480300D02*
D03*
Y7569200D02*
D03*
X8864600Y7378700D02*
D03*
X7874000Y6985000D02*
D03*
X8166100Y7247900D02*
D03*
%TF.MD5,2be7d0753daa404174705e2bf7750fc7*%
M02*
