%TF.GenerationSoftware,Altium Limited,Altium Designer,23.0.1 (38)*%
G04 Layer_Color=32768*
%FSLAX45Y45*%
%MOMM*%
%TF.SameCoordinates,9A133E00-D3C7-422F-B50A-FBA9B3BD8817*%
%TF.FilePolarity,Positive*%
%TF.FileFunction,Other,Mechanical_15*%
%TF.Part,Single*%
G01*
G75*
%TA.AperFunction,NonConductor*%
%ADD27C,0.10000*%
%ADD36C,0.05000*%
%ADD37C,0.10160*%
D27*
X8483600Y7874800D02*
Y7974800D01*
X8433600Y7924800D02*
X8533600D01*
X7670800Y7874800D02*
Y7974800D01*
X7620800Y7924800D02*
X7720800D01*
X8483600Y6614800D02*
Y6694800D01*
X8443600Y6654800D02*
X8523600D01*
X8089900Y6607300D02*
Y6702300D01*
X8042400Y6654800D02*
X8137400D01*
X8026400Y7115300D02*
Y7210300D01*
X7978900Y7162800D02*
X8073900D01*
X7721600Y6861300D02*
Y6956300D01*
X7674100Y6908800D02*
X7769100D01*
X8991600Y6962900D02*
Y7057900D01*
X8944100Y7010400D02*
X9039100D01*
D36*
X6773200Y8141000D02*
X6953200D01*
X6773200D02*
Y8176000D01*
X6333200D02*
X6773200D01*
X6333200Y6556000D02*
Y8176000D01*
Y6556000D02*
X6773200D01*
Y6591000D01*
X6953200D01*
Y6713500D01*
X7186200D01*
Y6901000D01*
X7483200D01*
Y7831000D01*
X7186200D02*
X7483200D01*
X7186200D02*
Y8018500D01*
X6953200D02*
X7186200D01*
X6953200D02*
Y8141000D01*
X9091600Y7195200D02*
Y7435200D01*
X8891600Y7195200D02*
X9091600D01*
X8891600D02*
Y7435200D01*
X9091600D01*
X8383600Y7754800D02*
X8583600D01*
X8383600Y8094800D02*
X8583600D01*
X8383600Y7754800D02*
Y8094800D01*
X8583600Y7754800D02*
Y8094800D01*
X7570800Y7754800D02*
X7770800D01*
X7570800Y8094800D02*
X7770800D01*
X7570800Y7754800D02*
Y8094800D01*
X7770800Y7754800D02*
Y8094800D01*
X8333600Y6579800D02*
X8633600D01*
X8333600Y6729800D02*
X8633600D01*
Y6579800D02*
Y6729800D01*
X8333600Y6579800D02*
Y6729800D01*
X7939900D02*
X8239900D01*
X7939900Y6579800D02*
X8239900D01*
X7939900D02*
Y6729800D01*
X8239900Y6579800D02*
Y6729800D01*
X7951400Y7312800D02*
X8101400D01*
X7951400Y7012800D02*
X8101400D01*
Y7312800D01*
X7951400Y7012800D02*
Y7312800D01*
X7646600Y7058800D02*
X7796600D01*
X7646600Y6758800D02*
X7796600D01*
Y7058800D01*
X7646600Y6758800D02*
Y7058800D01*
X8841600Y7085400D02*
X9141600D01*
X8841600Y6935400D02*
X9141600D01*
X8841600D02*
Y7085400D01*
X9141600Y6935400D02*
Y7085400D01*
D37*
X7951470Y7736840D02*
Y7779000D01*
X7863840D02*
X7951470D01*
X7863840D02*
Y8070600D01*
X7951470D01*
Y8112760D01*
X8202930D01*
Y8070600D02*
Y8112760D01*
Y8070600D02*
X8290560D01*
Y7779000D02*
Y8070600D01*
X8202930Y7779000D02*
X8290560D01*
X8202930Y7736840D02*
Y7779000D01*
X7951470Y7736840D02*
X8202930D01*
%TF.MD5,0f93e8d1169a4924b521fea59bf55e4f*%
M02*
