G04*
G04 #@! TF.GenerationSoftware,Altium Limited,Altium Designer,25.3.3 (18)*
G04*
G04 Layer_Color=65535*
%FSLAX43Y43*%
%MOMM*%
G71*
G04*
G04 #@! TF.SameCoordinates,B14E3CDD-F25A-44E7-87D6-C129875F19DF*
G04*
G04*
G04 #@! TF.FilePolarity,Positive*
G04*
G01*
G75*
%ADD10C,0.100*%
%ADD11C,0.200*%
%ADD12C,0.178*%
%ADD13C,0.150*%
%ADD14C,0.127*%
%ADD15C,0.254*%
%ADD16C,0.180*%
%ADD17C,0.350*%
G36*
X12375Y59139D02*
X12403Y59132D01*
X12434Y59122D01*
X12469Y59108D01*
X12504Y59087D01*
X12535Y59059D01*
X12538Y59056D01*
X12549Y59045D01*
X12559Y59028D01*
X12576Y59004D01*
X12590Y58976D01*
X12601Y58945D01*
X12611Y58907D01*
X12615Y58865D01*
X12615Y58861D01*
X12615Y58848D01*
X12611Y58827D01*
X12604Y58799D01*
X12594Y58768D01*
X12580Y58736D01*
X12559Y58702D01*
X12531Y58670D01*
X12528Y58667D01*
X12517Y58657D01*
X12500Y58643D01*
X12476Y58629D01*
X12448Y58615D01*
X12413Y58601D01*
X12375Y58591D01*
X12333Y58587D01*
X12313Y58587D01*
X12292Y58591D01*
X12264Y58598D01*
X12233Y58608D01*
X12198Y58622D01*
X12163Y58639D01*
X12132Y58667D01*
X12129Y58670D01*
X12118Y58681D01*
X12104Y58698D01*
X12090Y58723D01*
X12076Y58750D01*
X12063Y58785D01*
X12052Y58823D01*
X12049Y58865D01*
X12049Y58872D01*
X12049Y58886D01*
X12052Y58907D01*
X12059Y58934D01*
X12070Y58966D01*
X12083Y58997D01*
X12104Y59032D01*
X12132Y59063D01*
X12135Y59066D01*
X12146Y59077D01*
X12163Y59087D01*
X12188Y59104D01*
X12219Y59118D01*
X12254Y59129D01*
X12292Y59139D01*
X12333Y59143D01*
X12354Y59143D01*
X12375Y59139D01*
X12375Y59139D02*
G37*
G36*
X24215Y57743D02*
X24302Y57740D01*
X24392Y57736D01*
X24437Y57729D01*
X24479Y57726D01*
X24514Y57723D01*
X24549Y57716D01*
X24573Y57705D01*
X24590Y57698D01*
X24594Y57695D01*
X24608Y57681D01*
X24615Y57670D01*
X24625Y57657D01*
X24635Y57639D01*
X24642Y57618D01*
X24653Y57591D01*
X24663Y57559D01*
X24674Y57525D01*
X24680Y57483D01*
X24687Y57434D01*
X24691Y57382D01*
X24694Y57320D01*
X24694Y57254D01*
X23687Y57257D01*
X23663Y57257D01*
X23635Y57250D01*
X23604Y57243D01*
X23573Y57229D01*
X23538Y57209D01*
X23510Y57177D01*
X23486Y57139D01*
X23486Y57136D01*
X23479Y57125D01*
X23476Y57108D01*
X23469Y57084D01*
X23462Y57049D01*
X23458Y57007D01*
X23451Y56955D01*
X23451Y56893D01*
X23451Y56695D01*
X23451Y56691D01*
X23451Y56684D01*
X23451Y56674D01*
X23451Y56660D01*
X23455Y56622D01*
X23458Y56573D01*
X23462Y56525D01*
X23472Y56473D01*
X23483Y56427D01*
X23496Y56393D01*
X23500Y56389D01*
X23507Y56382D01*
X23517Y56368D01*
X23538Y56355D01*
X23562Y56341D01*
X23594Y56327D01*
X23632Y56320D01*
X23677Y56316D01*
X24715Y56316D01*
X24715Y56313D01*
X24715Y56306D01*
X24715Y56292D01*
X24715Y56271D01*
X24715Y56250D01*
X24712Y56226D01*
X24708Y56170D01*
X24701Y56108D01*
X24691Y56049D01*
X24677Y55997D01*
X24670Y55976D01*
X24660Y55959D01*
X24656Y55952D01*
X24646Y55938D01*
X24621Y55920D01*
X24590Y55896D01*
X24569Y55886D01*
X24545Y55872D01*
X24517Y55861D01*
X24483Y55855D01*
X24448Y55844D01*
X24410Y55841D01*
X24365Y55834D01*
X23583Y55834D01*
X23562Y55837D01*
X23535Y55841D01*
X23507Y55844D01*
X23437Y55858D01*
X23361Y55879D01*
X23288Y55910D01*
X23253Y55931D01*
X23219Y55959D01*
X23191Y55986D01*
X23163Y56018D01*
X23163Y56021D01*
X23160Y56025D01*
X23153Y56035D01*
X23146Y56045D01*
X23139Y56063D01*
X23128Y56084D01*
X23118Y56108D01*
X23108Y56136D01*
X23097Y56167D01*
X23087Y56205D01*
X23076Y56243D01*
X23069Y56289D01*
X23062Y56337D01*
X23056Y56393D01*
X23052Y56448D01*
X23052Y56511D01*
X23052Y57070D01*
X23052Y57073D01*
X23052Y57084D01*
X23052Y57101D01*
X23056Y57125D01*
X23056Y57153D01*
X23059Y57188D01*
X23066Y57261D01*
X23080Y57341D01*
X23101Y57424D01*
X23125Y57500D01*
X23142Y57535D01*
X23163Y57566D01*
X23163Y57570D01*
X23170Y57573D01*
X23187Y57594D01*
X23201Y57608D01*
X23222Y57622D01*
X23243Y57639D01*
X23267Y57657D01*
X23299Y57674D01*
X23330Y57691D01*
X23368Y57705D01*
X23406Y57719D01*
X23451Y57729D01*
X23503Y57740D01*
X23556Y57743D01*
X23615Y57747D01*
X24177Y57747D01*
X24215Y57743D01*
X24215Y57743D02*
G37*
G36*
X26549Y55858D02*
X26156Y55858D01*
X26156Y56566D01*
X25333Y56566D01*
X25333Y55858D01*
X24944Y55858D01*
X24944Y57729D01*
X25333Y57729D01*
X25333Y57063D01*
X26156Y57063D01*
X26156Y57729D01*
X26549Y57729D01*
X26549Y55858D01*
X26549Y55858D02*
G37*
G36*
X15965Y58327D02*
X15990Y58320D01*
X16017Y58309D01*
X16045Y58292D01*
X16073Y58271D01*
X16101Y58243D01*
X16104Y58240D01*
X16111Y58229D01*
X16125Y58212D01*
X16139Y58188D01*
X16153Y58157D01*
X16167Y58122D01*
X16181Y58084D01*
X16188Y58042D01*
X16417Y55858D01*
X15962Y55858D01*
X15833Y57427D01*
X15830Y57427D01*
X15347Y56177D01*
X15347Y56174D01*
X15344Y56167D01*
X15337Y56157D01*
X15330Y56143D01*
X15309Y56108D01*
X15281Y56070D01*
X15240Y56032D01*
X15191Y55997D01*
X15163Y55983D01*
X15132Y55973D01*
X15101Y55966D01*
X15063Y55962D01*
X15045Y55962D01*
X15031Y55966D01*
X14993Y55973D01*
X14951Y55990D01*
X14906Y56014D01*
X14882Y56032D01*
X14858Y56052D01*
X14837Y56077D01*
X14813Y56108D01*
X14795Y56139D01*
X14778Y56177D01*
X14309Y57410D01*
X14302Y57410D01*
X14167Y55858D01*
X13705Y55858D01*
X13941Y58066D01*
X13941Y58070D01*
X13945Y58084D01*
X13948Y58101D01*
X13955Y58125D01*
X13965Y58153D01*
X13979Y58184D01*
X13997Y58216D01*
X14021Y58247D01*
X14024Y58250D01*
X14035Y58261D01*
X14049Y58275D01*
X14073Y58289D01*
X14097Y58302D01*
X14125Y58316D01*
X14160Y58327D01*
X14194Y58330D01*
X14215Y58330D01*
X14233Y58327D01*
X14274Y58316D01*
X14326Y58299D01*
X14351Y58289D01*
X14379Y58271D01*
X14406Y58250D01*
X14434Y58229D01*
X14462Y58198D01*
X14486Y58167D01*
X14507Y58129D01*
X14528Y58087D01*
X15063Y56747D01*
X15069Y56747D01*
X15597Y58087D01*
X15597Y58091D01*
X15601Y58098D01*
X15608Y58108D01*
X15615Y58125D01*
X15639Y58164D01*
X15677Y58209D01*
X15722Y58254D01*
X15778Y58292D01*
X15813Y58309D01*
X15847Y58320D01*
X15889Y58327D01*
X15931Y58330D01*
X15948Y58330D01*
X15965Y58327D01*
X15965Y58327D02*
G37*
G36*
X10528Y59400D02*
X10573Y59396D01*
X10629Y59389D01*
X10688Y59382D01*
X10757Y59372D01*
X10830Y59361D01*
X10913Y59344D01*
X10997Y59323D01*
X11087Y59302D01*
X11181Y59271D01*
X11281Y59240D01*
X11379Y59202D01*
X11483Y59160D01*
X13010Y56750D01*
X13010Y56747D01*
X13010Y56743D01*
X13010Y56733D01*
X13007Y56719D01*
X13004Y56684D01*
X13000Y56639D01*
X12993Y56594D01*
X12986Y56545D01*
X12979Y56504D01*
X12969Y56466D01*
X12969Y56462D01*
X12965Y56448D01*
X12958Y56427D01*
X12948Y56396D01*
X12938Y56358D01*
X12920Y56306D01*
X12903Y56247D01*
X12879Y56177D01*
X11542Y58278D01*
X11542Y58282D01*
X11538Y58285D01*
X11521Y58306D01*
X11500Y58330D01*
X11469Y58361D01*
X11431Y58393D01*
X11389Y58420D01*
X11344Y58438D01*
X11320Y58445D01*
X11292Y58445D01*
X11274Y58441D01*
X11254Y58434D01*
X11226Y58424D01*
X11191Y58407D01*
X11153Y58379D01*
X11115Y58341D01*
X11094Y58316D01*
X11073Y58289D01*
X10632Y57664D01*
X12198Y55188D01*
X12195Y55184D01*
X12188Y55181D01*
X12177Y55170D01*
X12163Y55157D01*
X12142Y55143D01*
X12118Y55125D01*
X12090Y55105D01*
X12059Y55080D01*
X12024Y55056D01*
X11983Y55028D01*
X11941Y55000D01*
X11896Y54969D01*
X11792Y54907D01*
X11674Y54844D01*
X11545Y54778D01*
X11406Y54716D01*
X11254Y54657D01*
X11094Y54605D01*
X10920Y54559D01*
X10743Y54528D01*
X10649Y54514D01*
X10556Y54504D01*
X10458Y54500D01*
X10361Y54497D01*
X10313Y54497D01*
X10288Y54500D01*
X10257Y54504D01*
X10222Y54504D01*
X10181Y54511D01*
X10136Y54514D01*
X10087Y54521D01*
X10035Y54528D01*
X9979Y54539D01*
X9858Y54563D01*
X9726Y54598D01*
X9583Y54639D01*
X9434Y54691D01*
X9281Y54754D01*
X9202Y54792D01*
X9125Y54830D01*
X9045Y54875D01*
X8965Y54921D01*
X8886Y54973D01*
X8809Y55028D01*
X8729Y55087D01*
X8653Y55150D01*
X8577Y55216D01*
X8504Y55289D01*
X9181Y56226D01*
X9184Y56230D01*
X9188Y56240D01*
X9195Y56257D01*
X9205Y56278D01*
X9212Y56302D01*
X9219Y56330D01*
X9226Y56361D01*
X9226Y56393D01*
X9226Y56396D01*
X9222Y56403D01*
X9219Y56417D01*
X9212Y56434D01*
X9205Y56459D01*
X9188Y56490D01*
X9170Y56525D01*
X9146Y56566D01*
X8646Y57351D01*
X7910Y56316D01*
X7910Y56320D01*
X7906Y56330D01*
X7903Y56348D01*
X7896Y56372D01*
X7889Y56400D01*
X7882Y56434D01*
X7875Y56473D01*
X7868Y56518D01*
X7858Y56566D01*
X7851Y56618D01*
X7844Y56674D01*
X7837Y56733D01*
X7827Y56861D01*
X7823Y56993D01*
X7823Y56997D01*
X7823Y57004D01*
X7823Y57018D01*
X7823Y57035D01*
X7827Y57059D01*
X7827Y57087D01*
X7830Y57118D01*
X7833Y57157D01*
X7840Y57195D01*
X7844Y57240D01*
X7861Y57337D01*
X7882Y57445D01*
X7913Y57566D01*
X7952Y57691D01*
X8000Y57827D01*
X8056Y57966D01*
X8125Y58104D01*
X8208Y58247D01*
X8254Y58316D01*
X8306Y58389D01*
X8358Y58459D01*
X8417Y58528D01*
X8476Y58594D01*
X8542Y58660D01*
X8545Y58664D01*
X8552Y58667D01*
X8563Y58677D01*
X8577Y58691D01*
X8597Y58709D01*
X8622Y58729D01*
X8649Y58750D01*
X8681Y58775D01*
X8715Y58802D01*
X8754Y58834D01*
X8799Y58865D01*
X8844Y58896D01*
X8896Y58927D01*
X8948Y58962D01*
X9007Y58997D01*
X9066Y59032D01*
X9198Y59101D01*
X9344Y59167D01*
X9500Y59229D01*
X9667Y59289D01*
X9847Y59334D01*
X10038Y59372D01*
X10136Y59386D01*
X10236Y59396D01*
X10340Y59400D01*
X10445Y59403D01*
X10493Y59403D01*
X10528Y59400D01*
X10528Y59400D02*
G37*
G36*
X28757Y57726D02*
X28778Y57726D01*
X28802Y57723D01*
X28854Y57709D01*
X28910Y57691D01*
X28969Y57664D01*
X29024Y57625D01*
X29048Y57601D01*
X29069Y57573D01*
X29073Y57566D01*
X29080Y57556D01*
X29087Y57545D01*
X29094Y57528D01*
X29104Y57507D01*
X29114Y57483D01*
X29125Y57455D01*
X29132Y57424D01*
X29142Y57389D01*
X29153Y57348D01*
X29160Y57306D01*
X29167Y57257D01*
X29173Y57205D01*
X29177Y57150D01*
X29177Y57091D01*
X29177Y56927D01*
X29177Y56920D01*
X29177Y56903D01*
X29173Y56872D01*
X29170Y56834D01*
X29167Y56789D01*
X29160Y56740D01*
X29146Y56684D01*
X29132Y56629D01*
X29114Y56573D01*
X29090Y56518D01*
X29059Y56469D01*
X29024Y56424D01*
X28983Y56386D01*
X28934Y56355D01*
X28878Y56337D01*
X28847Y56334D01*
X28816Y56330D01*
X27899Y56330D01*
X27899Y55858D01*
X27510Y55858D01*
X27510Y57729D01*
X28743Y57729D01*
X28757Y57726D01*
X28757Y57726D02*
G37*
G36*
X27253Y55858D02*
X26823Y55858D01*
X26823Y57729D01*
X27253Y57729D01*
X27253Y55858D01*
X27253Y55858D02*
G37*
G36*
X20507Y57726D02*
X20542Y57723D01*
X20583Y57712D01*
X20628Y57698D01*
X20677Y57674D01*
X20722Y57643D01*
X20760Y57601D01*
X20764Y57594D01*
X20774Y57577D01*
X20792Y57545D01*
X20799Y57525D01*
X20809Y57500D01*
X20819Y57473D01*
X20826Y57441D01*
X20837Y57407D01*
X20844Y57368D01*
X20847Y57323D01*
X20854Y57278D01*
X20858Y57229D01*
X20858Y57174D01*
X20858Y57056D01*
X20858Y57052D01*
X20858Y57049D01*
X20858Y57039D01*
X20858Y57025D01*
X20854Y56990D01*
X20854Y56945D01*
X20847Y56900D01*
X20840Y56851D01*
X20833Y56802D01*
X20819Y56761D01*
X20816Y56757D01*
X20809Y56740D01*
X20795Y56719D01*
X20778Y56695D01*
X20753Y56667D01*
X20719Y56639D01*
X20681Y56615D01*
X20635Y56594D01*
X20635Y56591D01*
X20639Y56591D01*
X20646Y56587D01*
X20656Y56584D01*
X20670Y56577D01*
X20705Y56552D01*
X20722Y56539D01*
X20743Y56518D01*
X20764Y56493D01*
X20781Y56466D01*
X20802Y56431D01*
X20816Y56393D01*
X20830Y56348D01*
X20840Y56295D01*
X20847Y56240D01*
X20851Y56177D01*
X20851Y55858D01*
X20458Y55858D01*
X20458Y56084D01*
X20458Y56091D01*
X20458Y56105D01*
X20458Y56125D01*
X20455Y56153D01*
X20451Y56212D01*
X20448Y56240D01*
X20441Y56261D01*
X20441Y56264D01*
X20434Y56275D01*
X20424Y56289D01*
X20410Y56302D01*
X20392Y56316D01*
X20368Y56330D01*
X20337Y56341D01*
X20299Y56344D01*
X19615Y56344D01*
X19615Y55858D01*
X19222Y55858D01*
X19222Y57729D01*
X20493Y57729D01*
X20507Y57726D01*
X20507Y57726D02*
G37*
G36*
X17090Y55858D02*
X16663Y55858D01*
X16663Y57729D01*
X17090Y57729D01*
X17090Y55858D01*
X17090Y55858D02*
G37*
G36*
X22333Y57743D02*
X22358Y57740D01*
X22389Y57736D01*
X22458Y57726D01*
X22531Y57702D01*
X22604Y57670D01*
X22639Y57650D01*
X22670Y57625D01*
X22701Y57598D01*
X22726Y57566D01*
X22729Y57559D01*
X22736Y57549D01*
X22743Y57539D01*
X22753Y57521D01*
X22760Y57500D01*
X22771Y57476D01*
X22785Y57448D01*
X22795Y57414D01*
X22806Y57379D01*
X22812Y57337D01*
X22823Y57292D01*
X22830Y57243D01*
X22837Y57191D01*
X22840Y57132D01*
X22840Y57070D01*
X22840Y56518D01*
X22840Y56514D01*
X22840Y56500D01*
X22840Y56480D01*
X22837Y56455D01*
X22837Y56424D01*
X22833Y56386D01*
X22826Y56348D01*
X22823Y56306D01*
X22806Y56216D01*
X22778Y56125D01*
X22760Y56084D01*
X22740Y56042D01*
X22719Y56004D01*
X22691Y55973D01*
X22684Y55966D01*
X22667Y55952D01*
X22635Y55931D01*
X22594Y55907D01*
X22535Y55882D01*
X22503Y55872D01*
X22465Y55861D01*
X22424Y55855D01*
X22382Y55848D01*
X22333Y55841D01*
X21622Y55841D01*
X21601Y55844D01*
X21573Y55848D01*
X21545Y55851D01*
X21476Y55865D01*
X21399Y55886D01*
X21326Y55917D01*
X21292Y55938D01*
X21257Y55962D01*
X21229Y55990D01*
X21201Y56021D01*
X21201Y56025D01*
X21198Y56028D01*
X21191Y56039D01*
X21184Y56049D01*
X21177Y56066D01*
X21167Y56087D01*
X21156Y56111D01*
X21149Y56139D01*
X21139Y56174D01*
X21128Y56209D01*
X21118Y56250D01*
X21111Y56295D01*
X21104Y56344D01*
X21097Y56396D01*
X21094Y56455D01*
X21094Y56518D01*
X21094Y57070D01*
X21094Y57077D01*
X21094Y57091D01*
X21094Y57115D01*
X21097Y57143D01*
X21101Y57181D01*
X21104Y57223D01*
X21111Y57268D01*
X21122Y57320D01*
X21146Y57420D01*
X21163Y57469D01*
X21181Y57518D01*
X21205Y57563D01*
X21233Y57604D01*
X21264Y57639D01*
X21302Y57670D01*
X21309Y57674D01*
X21323Y57681D01*
X21351Y57695D01*
X21389Y57709D01*
X21441Y57723D01*
X21500Y57736D01*
X21569Y57743D01*
X21653Y57747D01*
X22312Y57747D01*
X22333Y57743D01*
X22333Y57743D02*
G37*
G36*
X18726Y57750D02*
X18740Y57747D01*
X18774Y57736D01*
X18816Y57719D01*
X18861Y57695D01*
X18903Y57660D01*
X18934Y57618D01*
X18948Y57591D01*
X18955Y57563D01*
X18955Y57559D01*
X18958Y57545D01*
X18962Y57521D01*
X18965Y57490D01*
X18965Y57448D01*
X18969Y57396D01*
X18972Y57330D01*
X18972Y57257D01*
X17944Y57257D01*
X17917Y57250D01*
X17882Y57243D01*
X17847Y57229D01*
X17813Y57212D01*
X17785Y57184D01*
X17760Y57146D01*
X17760Y57143D01*
X17757Y57132D01*
X17753Y57115D01*
X17747Y57087D01*
X17743Y57052D01*
X17736Y57011D01*
X17733Y56955D01*
X17733Y56893D01*
X17733Y56695D01*
X17733Y56691D01*
X17733Y56684D01*
X17733Y56670D01*
X17733Y56653D01*
X17736Y56632D01*
X17736Y56608D01*
X17743Y56552D01*
X17750Y56497D01*
X17764Y56441D01*
X17781Y56396D01*
X17792Y56379D01*
X17806Y56365D01*
X17809Y56361D01*
X17816Y56358D01*
X17826Y56351D01*
X17844Y56344D01*
X17861Y56334D01*
X17889Y56327D01*
X17917Y56323D01*
X17951Y56320D01*
X18990Y56320D01*
X18990Y56316D01*
X18990Y56306D01*
X18990Y56292D01*
X18990Y56275D01*
X18990Y56250D01*
X18986Y56226D01*
X18983Y56167D01*
X18976Y56108D01*
X18965Y56049D01*
X18951Y55997D01*
X18944Y55976D01*
X18934Y55959D01*
X18931Y55955D01*
X18920Y55941D01*
X18896Y55920D01*
X18865Y55900D01*
X18819Y55879D01*
X18792Y55868D01*
X18760Y55858D01*
X18726Y55851D01*
X18688Y55844D01*
X18646Y55841D01*
X17865Y55841D01*
X17847Y55844D01*
X17823Y55844D01*
X17799Y55848D01*
X17743Y55855D01*
X17677Y55868D01*
X17615Y55886D01*
X17552Y55914D01*
X17500Y55948D01*
X17497Y55952D01*
X17493Y55955D01*
X17486Y55966D01*
X17472Y55980D01*
X17462Y55997D01*
X17448Y56018D01*
X17431Y56045D01*
X17417Y56077D01*
X17399Y56111D01*
X17385Y56153D01*
X17368Y56202D01*
X17358Y56254D01*
X17347Y56309D01*
X17337Y56375D01*
X17333Y56441D01*
X17330Y56518D01*
X17330Y57070D01*
X17330Y57073D01*
X17330Y57087D01*
X17330Y57108D01*
X17333Y57132D01*
X17333Y57164D01*
X17337Y57198D01*
X17340Y57240D01*
X17347Y57282D01*
X17361Y57368D01*
X17385Y57455D01*
X17399Y57497D01*
X17417Y57535D01*
X17438Y57570D01*
X17462Y57601D01*
X17469Y57608D01*
X17486Y57625D01*
X17521Y57646D01*
X17566Y57674D01*
X17594Y57688D01*
X17625Y57702D01*
X17660Y57712D01*
X17698Y57723D01*
X17740Y57733D01*
X17785Y57740D01*
X17837Y57747D01*
X18538Y57747D01*
X18604Y57750D01*
X18698Y57750D01*
X18705Y57754D01*
X18715Y57754D01*
X18726Y57750D01*
X18726Y57750D02*
G37*
G36*
X32275Y33419D02*
X32499Y33289D01*
X32683Y33105D01*
X32813Y32881D01*
X32880Y32630D01*
X32880Y32370D01*
X32813Y32119D01*
X32683Y31895D01*
X32499Y31711D01*
X32275Y31581D01*
X32024Y31514D01*
X31894Y31514D01*
X31894Y33486D01*
X32024Y33486D01*
X32275Y33419D01*
X32275Y33419D02*
G37*
G36*
X31894Y31500D02*
X5106Y31500D01*
X5106Y31514D01*
X4976Y31514D01*
X4725Y31581D01*
X4501Y31711D01*
X4317Y31895D01*
X4187Y32119D01*
X4120Y32370D01*
X4120Y32630D01*
X4187Y32881D01*
X4317Y33105D01*
X4501Y33289D01*
X4725Y33419D01*
X4976Y33486D01*
X5106Y33486D01*
X5106Y33500D01*
X31894Y33500D01*
X31894Y31500D01*
X31894Y31500D02*
G37*
G36*
X12375Y29039D02*
X12403Y29032D01*
X12434Y29022D01*
X12469Y29008D01*
X12504Y28987D01*
X12535Y28959D01*
X12538Y28956D01*
X12549Y28945D01*
X12559Y28928D01*
X12576Y28904D01*
X12590Y28876D01*
X12601Y28845D01*
X12611Y28807D01*
X12615Y28765D01*
X12615Y28761D01*
X12615Y28748D01*
X12611Y28727D01*
X12604Y28699D01*
X12594Y28668D01*
X12580Y28636D01*
X12559Y28602D01*
X12531Y28570D01*
X12528Y28567D01*
X12517Y28557D01*
X12500Y28543D01*
X12476Y28529D01*
X12448Y28515D01*
X12413Y28501D01*
X12375Y28491D01*
X12333Y28487D01*
X12313Y28487D01*
X12292Y28491D01*
X12264Y28498D01*
X12233Y28508D01*
X12198Y28522D01*
X12163Y28539D01*
X12132Y28567D01*
X12129Y28570D01*
X12118Y28581D01*
X12104Y28598D01*
X12090Y28623D01*
X12076Y28650D01*
X12063Y28685D01*
X12052Y28723D01*
X12049Y28765D01*
X12049Y28772D01*
X12049Y28786D01*
X12052Y28807D01*
X12059Y28834D01*
X12070Y28866D01*
X12083Y28897D01*
X12104Y28932D01*
X12132Y28963D01*
X12135Y28966D01*
X12146Y28977D01*
X12163Y28987D01*
X12188Y29004D01*
X12219Y29018D01*
X12254Y29029D01*
X12292Y29039D01*
X12333Y29043D01*
X12354Y29043D01*
X12375Y29039D01*
X12375Y29039D02*
G37*
G36*
X24215Y27643D02*
X24302Y27640D01*
X24392Y27636D01*
X24437Y27630D01*
X24479Y27626D01*
X24514Y27623D01*
X24549Y27616D01*
X24573Y27605D01*
X24590Y27598D01*
X24594Y27595D01*
X24608Y27581D01*
X24615Y27570D01*
X24625Y27557D01*
X24635Y27539D01*
X24642Y27518D01*
X24653Y27491D01*
X24663Y27459D01*
X24674Y27425D01*
X24680Y27383D01*
X24687Y27334D01*
X24691Y27282D01*
X24694Y27220D01*
X24694Y27154D01*
X23687Y27157D01*
X23663Y27157D01*
X23635Y27150D01*
X23604Y27143D01*
X23573Y27130D01*
X23538Y27109D01*
X23510Y27077D01*
X23486Y27039D01*
X23486Y27036D01*
X23479Y27025D01*
X23476Y27008D01*
X23469Y26984D01*
X23462Y26949D01*
X23458Y26907D01*
X23451Y26855D01*
X23451Y26793D01*
X23451Y26595D01*
X23451Y26591D01*
X23451Y26584D01*
X23451Y26574D01*
X23451Y26560D01*
X23455Y26522D01*
X23458Y26473D01*
X23462Y26425D01*
X23472Y26373D01*
X23483Y26327D01*
X23496Y26293D01*
X23500Y26289D01*
X23507Y26282D01*
X23517Y26268D01*
X23538Y26255D01*
X23562Y26241D01*
X23594Y26227D01*
X23632Y26220D01*
X23677Y26216D01*
X24715Y26216D01*
X24715Y26213D01*
X24715Y26206D01*
X24715Y26192D01*
X24715Y26171D01*
X24715Y26150D01*
X24712Y26126D01*
X24708Y26070D01*
X24701Y26008D01*
X24691Y25949D01*
X24677Y25897D01*
X24670Y25876D01*
X24660Y25859D01*
X24656Y25852D01*
X24646Y25838D01*
X24621Y25820D01*
X24590Y25796D01*
X24569Y25786D01*
X24545Y25772D01*
X24517Y25761D01*
X24483Y25755D01*
X24448Y25744D01*
X24410Y25741D01*
X24365Y25734D01*
X23583Y25734D01*
X23562Y25737D01*
X23535Y25741D01*
X23507Y25744D01*
X23437Y25758D01*
X23361Y25779D01*
X23288Y25810D01*
X23253Y25831D01*
X23219Y25859D01*
X23191Y25886D01*
X23163Y25918D01*
X23163Y25921D01*
X23160Y25925D01*
X23153Y25935D01*
X23146Y25945D01*
X23139Y25963D01*
X23128Y25984D01*
X23118Y26008D01*
X23108Y26036D01*
X23097Y26067D01*
X23087Y26105D01*
X23076Y26143D01*
X23069Y26189D01*
X23062Y26237D01*
X23056Y26293D01*
X23052Y26348D01*
X23052Y26411D01*
X23052Y26970D01*
X23052Y26973D01*
X23052Y26984D01*
X23052Y27001D01*
X23056Y27025D01*
X23056Y27053D01*
X23059Y27088D01*
X23066Y27161D01*
X23080Y27241D01*
X23101Y27324D01*
X23125Y27400D01*
X23142Y27435D01*
X23163Y27466D01*
X23163Y27470D01*
X23170Y27473D01*
X23187Y27494D01*
X23201Y27508D01*
X23222Y27522D01*
X23243Y27539D01*
X23267Y27557D01*
X23299Y27574D01*
X23330Y27591D01*
X23368Y27605D01*
X23406Y27619D01*
X23451Y27630D01*
X23503Y27640D01*
X23556Y27643D01*
X23615Y27647D01*
X24177Y27647D01*
X24215Y27643D01*
X24215Y27643D02*
G37*
G36*
X26549Y25758D02*
X26156Y25758D01*
X26156Y26466D01*
X25333Y26466D01*
X25333Y25758D01*
X24944Y25758D01*
X24944Y27630D01*
X25333Y27630D01*
X25333Y26963D01*
X26156Y26963D01*
X26156Y27630D01*
X26549Y27630D01*
X26549Y25758D01*
X26549Y25758D02*
G37*
G36*
X15965Y28227D02*
X15990Y28220D01*
X16017Y28209D01*
X16045Y28192D01*
X16073Y28171D01*
X16101Y28143D01*
X16104Y28140D01*
X16111Y28129D01*
X16125Y28112D01*
X16139Y28088D01*
X16153Y28057D01*
X16167Y28022D01*
X16181Y27984D01*
X16188Y27942D01*
X16417Y25758D01*
X15962Y25758D01*
X15833Y27327D01*
X15830Y27327D01*
X15347Y26077D01*
X15347Y26074D01*
X15344Y26067D01*
X15337Y26057D01*
X15330Y26043D01*
X15309Y26008D01*
X15281Y25970D01*
X15240Y25932D01*
X15191Y25897D01*
X15163Y25883D01*
X15132Y25873D01*
X15101Y25866D01*
X15063Y25862D01*
X15045Y25862D01*
X15031Y25866D01*
X14993Y25873D01*
X14951Y25890D01*
X14906Y25914D01*
X14882Y25932D01*
X14858Y25952D01*
X14837Y25977D01*
X14813Y26008D01*
X14795Y26039D01*
X14778Y26077D01*
X14309Y27310D01*
X14302Y27310D01*
X14167Y25758D01*
X13705Y25758D01*
X13941Y27966D01*
X13941Y27970D01*
X13945Y27984D01*
X13948Y28001D01*
X13955Y28025D01*
X13965Y28053D01*
X13979Y28084D01*
X13997Y28116D01*
X14021Y28147D01*
X14024Y28150D01*
X14035Y28161D01*
X14049Y28175D01*
X14073Y28189D01*
X14097Y28202D01*
X14125Y28216D01*
X14160Y28227D01*
X14194Y28230D01*
X14215Y28230D01*
X14233Y28227D01*
X14274Y28216D01*
X14326Y28199D01*
X14351Y28189D01*
X14379Y28171D01*
X14406Y28150D01*
X14434Y28129D01*
X14462Y28098D01*
X14486Y28067D01*
X14507Y28029D01*
X14528Y27987D01*
X15063Y26647D01*
X15069Y26647D01*
X15597Y27987D01*
X15597Y27991D01*
X15601Y27998D01*
X15608Y28008D01*
X15615Y28025D01*
X15639Y28064D01*
X15677Y28109D01*
X15722Y28154D01*
X15778Y28192D01*
X15813Y28209D01*
X15847Y28220D01*
X15889Y28227D01*
X15931Y28230D01*
X15948Y28230D01*
X15965Y28227D01*
X15965Y28227D02*
G37*
G36*
X10528Y29300D02*
X10573Y29296D01*
X10629Y29289D01*
X10688Y29282D01*
X10757Y29272D01*
X10830Y29261D01*
X10913Y29244D01*
X10997Y29223D01*
X11087Y29202D01*
X11181Y29171D01*
X11281Y29140D01*
X11379Y29102D01*
X11483Y29060D01*
X13010Y26650D01*
X13010Y26647D01*
X13010Y26643D01*
X13010Y26633D01*
X13007Y26619D01*
X13004Y26584D01*
X13000Y26539D01*
X12993Y26494D01*
X12986Y26445D01*
X12979Y26404D01*
X12969Y26366D01*
X12969Y26362D01*
X12965Y26348D01*
X12958Y26327D01*
X12948Y26296D01*
X12938Y26258D01*
X12920Y26206D01*
X12903Y26147D01*
X12879Y26077D01*
X11542Y28178D01*
X11542Y28182D01*
X11538Y28185D01*
X11521Y28206D01*
X11500Y28230D01*
X11469Y28261D01*
X11431Y28293D01*
X11389Y28320D01*
X11344Y28338D01*
X11320Y28345D01*
X11292Y28345D01*
X11274Y28341D01*
X11254Y28334D01*
X11226Y28324D01*
X11191Y28307D01*
X11153Y28279D01*
X11115Y28241D01*
X11094Y28216D01*
X11073Y28189D01*
X10632Y27564D01*
X12198Y25088D01*
X12195Y25084D01*
X12188Y25081D01*
X12177Y25071D01*
X12163Y25057D01*
X12142Y25043D01*
X12118Y25025D01*
X12090Y25005D01*
X12059Y24980D01*
X12024Y24956D01*
X11983Y24928D01*
X11941Y24900D01*
X11896Y24869D01*
X11792Y24807D01*
X11674Y24744D01*
X11545Y24678D01*
X11406Y24616D01*
X11254Y24557D01*
X11094Y24505D01*
X10920Y24459D01*
X10743Y24428D01*
X10649Y24414D01*
X10556Y24404D01*
X10458Y24400D01*
X10361Y24397D01*
X10313Y24397D01*
X10288Y24400D01*
X10257Y24404D01*
X10222Y24404D01*
X10181Y24411D01*
X10136Y24414D01*
X10087Y24421D01*
X10035Y24428D01*
X9979Y24439D01*
X9858Y24463D01*
X9726Y24498D01*
X9583Y24539D01*
X9434Y24591D01*
X9281Y24654D01*
X9202Y24692D01*
X9125Y24730D01*
X9045Y24775D01*
X8965Y24821D01*
X8886Y24873D01*
X8809Y24928D01*
X8729Y24987D01*
X8653Y25050D01*
X8577Y25116D01*
X8504Y25189D01*
X9181Y26126D01*
X9184Y26130D01*
X9188Y26140D01*
X9195Y26157D01*
X9205Y26178D01*
X9212Y26202D01*
X9219Y26230D01*
X9226Y26261D01*
X9226Y26293D01*
X9226Y26296D01*
X9222Y26303D01*
X9219Y26317D01*
X9212Y26334D01*
X9205Y26359D01*
X9188Y26390D01*
X9170Y26425D01*
X9146Y26466D01*
X8646Y27251D01*
X7910Y26216D01*
X7910Y26220D01*
X7906Y26230D01*
X7903Y26248D01*
X7896Y26272D01*
X7889Y26300D01*
X7882Y26334D01*
X7875Y26373D01*
X7868Y26418D01*
X7858Y26466D01*
X7851Y26518D01*
X7844Y26574D01*
X7837Y26633D01*
X7827Y26761D01*
X7823Y26893D01*
X7823Y26897D01*
X7823Y26904D01*
X7823Y26918D01*
X7823Y26935D01*
X7827Y26959D01*
X7827Y26987D01*
X7830Y27018D01*
X7833Y27057D01*
X7840Y27095D01*
X7844Y27140D01*
X7861Y27237D01*
X7882Y27345D01*
X7913Y27466D01*
X7952Y27591D01*
X8000Y27727D01*
X8056Y27866D01*
X8125Y28004D01*
X8208Y28147D01*
X8254Y28216D01*
X8306Y28289D01*
X8358Y28359D01*
X8417Y28428D01*
X8476Y28494D01*
X8542Y28560D01*
X8545Y28564D01*
X8552Y28567D01*
X8563Y28577D01*
X8577Y28591D01*
X8597Y28609D01*
X8622Y28629D01*
X8649Y28650D01*
X8681Y28675D01*
X8715Y28702D01*
X8754Y28734D01*
X8799Y28765D01*
X8844Y28796D01*
X8896Y28827D01*
X8948Y28862D01*
X9007Y28897D01*
X9066Y28932D01*
X9198Y29001D01*
X9344Y29067D01*
X9500Y29129D01*
X9667Y29189D01*
X9847Y29234D01*
X10038Y29272D01*
X10136Y29286D01*
X10236Y29296D01*
X10340Y29300D01*
X10445Y29303D01*
X10493Y29303D01*
X10528Y29300D01*
X10528Y29300D02*
G37*
G36*
X28757Y27626D02*
X28778Y27626D01*
X28802Y27623D01*
X28854Y27609D01*
X28910Y27591D01*
X28969Y27564D01*
X29024Y27525D01*
X29048Y27501D01*
X29069Y27473D01*
X29073Y27466D01*
X29080Y27456D01*
X29087Y27445D01*
X29094Y27428D01*
X29104Y27407D01*
X29114Y27383D01*
X29125Y27355D01*
X29132Y27324D01*
X29142Y27289D01*
X29153Y27248D01*
X29160Y27206D01*
X29167Y27157D01*
X29173Y27105D01*
X29177Y27050D01*
X29177Y26991D01*
X29177Y26827D01*
X29177Y26820D01*
X29177Y26803D01*
X29173Y26772D01*
X29170Y26734D01*
X29167Y26689D01*
X29160Y26640D01*
X29146Y26584D01*
X29132Y26529D01*
X29114Y26473D01*
X29090Y26418D01*
X29059Y26369D01*
X29024Y26324D01*
X28983Y26286D01*
X28934Y26255D01*
X28878Y26237D01*
X28847Y26234D01*
X28816Y26230D01*
X27899Y26230D01*
X27899Y25758D01*
X27510Y25758D01*
X27510Y27630D01*
X28743Y27630D01*
X28757Y27626D01*
X28757Y27626D02*
G37*
G36*
X27253Y25758D02*
X26823Y25758D01*
X26823Y27630D01*
X27253Y27630D01*
X27253Y25758D01*
X27253Y25758D02*
G37*
G36*
X20507Y27626D02*
X20542Y27623D01*
X20583Y27612D01*
X20628Y27598D01*
X20677Y27574D01*
X20722Y27543D01*
X20760Y27501D01*
X20764Y27494D01*
X20774Y27477D01*
X20792Y27445D01*
X20799Y27425D01*
X20809Y27400D01*
X20819Y27373D01*
X20826Y27341D01*
X20837Y27307D01*
X20844Y27268D01*
X20847Y27223D01*
X20854Y27178D01*
X20858Y27130D01*
X20858Y27074D01*
X20858Y26956D01*
X20858Y26952D01*
X20858Y26949D01*
X20858Y26939D01*
X20858Y26925D01*
X20854Y26890D01*
X20854Y26845D01*
X20847Y26800D01*
X20840Y26751D01*
X20833Y26702D01*
X20819Y26661D01*
X20816Y26657D01*
X20809Y26640D01*
X20795Y26619D01*
X20778Y26595D01*
X20753Y26567D01*
X20719Y26539D01*
X20681Y26515D01*
X20635Y26494D01*
X20635Y26491D01*
X20639Y26491D01*
X20646Y26487D01*
X20656Y26484D01*
X20670Y26477D01*
X20705Y26452D01*
X20722Y26439D01*
X20743Y26418D01*
X20764Y26393D01*
X20781Y26366D01*
X20802Y26331D01*
X20816Y26293D01*
X20830Y26248D01*
X20840Y26195D01*
X20847Y26140D01*
X20851Y26077D01*
X20851Y25758D01*
X20458Y25758D01*
X20458Y25984D01*
X20458Y25991D01*
X20458Y26005D01*
X20458Y26025D01*
X20455Y26053D01*
X20451Y26112D01*
X20448Y26140D01*
X20441Y26161D01*
X20441Y26164D01*
X20434Y26175D01*
X20424Y26189D01*
X20410Y26202D01*
X20392Y26216D01*
X20368Y26230D01*
X20337Y26241D01*
X20299Y26244D01*
X19615Y26244D01*
X19615Y25758D01*
X19222Y25758D01*
X19222Y27630D01*
X20493Y27630D01*
X20507Y27626D01*
X20507Y27626D02*
G37*
G36*
X17090Y25758D02*
X16663Y25758D01*
X16663Y27630D01*
X17090Y27630D01*
X17090Y25758D01*
X17090Y25758D02*
G37*
G36*
X22333Y27643D02*
X22358Y27640D01*
X22389Y27636D01*
X22458Y27626D01*
X22531Y27602D01*
X22604Y27570D01*
X22639Y27550D01*
X22670Y27525D01*
X22701Y27498D01*
X22726Y27466D01*
X22729Y27459D01*
X22736Y27449D01*
X22743Y27439D01*
X22753Y27421D01*
X22760Y27400D01*
X22771Y27376D01*
X22785Y27348D01*
X22795Y27314D01*
X22806Y27279D01*
X22812Y27237D01*
X22823Y27192D01*
X22830Y27143D01*
X22837Y27091D01*
X22840Y27032D01*
X22840Y26970D01*
X22840Y26418D01*
X22840Y26414D01*
X22840Y26400D01*
X22840Y26380D01*
X22837Y26355D01*
X22837Y26324D01*
X22833Y26286D01*
X22826Y26248D01*
X22823Y26206D01*
X22806Y26116D01*
X22778Y26025D01*
X22760Y25984D01*
X22740Y25942D01*
X22719Y25904D01*
X22691Y25873D01*
X22684Y25866D01*
X22667Y25852D01*
X22635Y25831D01*
X22594Y25807D01*
X22535Y25782D01*
X22503Y25772D01*
X22465Y25761D01*
X22424Y25755D01*
X22382Y25748D01*
X22333Y25741D01*
X21622Y25741D01*
X21601Y25744D01*
X21573Y25748D01*
X21545Y25751D01*
X21476Y25765D01*
X21399Y25786D01*
X21326Y25817D01*
X21292Y25838D01*
X21257Y25862D01*
X21229Y25890D01*
X21201Y25921D01*
X21201Y25925D01*
X21198Y25928D01*
X21191Y25939D01*
X21184Y25949D01*
X21177Y25966D01*
X21167Y25987D01*
X21156Y26011D01*
X21149Y26039D01*
X21139Y26074D01*
X21128Y26109D01*
X21118Y26150D01*
X21111Y26195D01*
X21104Y26244D01*
X21097Y26296D01*
X21094Y26355D01*
X21094Y26418D01*
X21094Y26970D01*
X21094Y26977D01*
X21094Y26991D01*
X21094Y27015D01*
X21097Y27043D01*
X21101Y27081D01*
X21104Y27123D01*
X21111Y27168D01*
X21122Y27220D01*
X21146Y27320D01*
X21163Y27369D01*
X21181Y27418D01*
X21205Y27463D01*
X21233Y27505D01*
X21264Y27539D01*
X21302Y27570D01*
X21309Y27574D01*
X21323Y27581D01*
X21351Y27595D01*
X21389Y27609D01*
X21441Y27623D01*
X21500Y27636D01*
X21569Y27643D01*
X21653Y27647D01*
X22312Y27647D01*
X22333Y27643D01*
X22333Y27643D02*
G37*
G36*
X18726Y27650D02*
X18740Y27647D01*
X18774Y27636D01*
X18816Y27619D01*
X18861Y27595D01*
X18903Y27560D01*
X18934Y27518D01*
X18948Y27491D01*
X18955Y27463D01*
X18955Y27459D01*
X18958Y27445D01*
X18962Y27421D01*
X18965Y27390D01*
X18965Y27348D01*
X18969Y27296D01*
X18972Y27230D01*
X18972Y27157D01*
X17944Y27157D01*
X17917Y27150D01*
X17882Y27143D01*
X17847Y27130D01*
X17813Y27112D01*
X17785Y27084D01*
X17760Y27046D01*
X17760Y27043D01*
X17757Y27032D01*
X17753Y27015D01*
X17747Y26987D01*
X17743Y26952D01*
X17736Y26911D01*
X17733Y26855D01*
X17733Y26793D01*
X17733Y26595D01*
X17733Y26591D01*
X17733Y26584D01*
X17733Y26570D01*
X17733Y26553D01*
X17736Y26532D01*
X17736Y26508D01*
X17743Y26452D01*
X17750Y26397D01*
X17764Y26341D01*
X17781Y26296D01*
X17792Y26279D01*
X17806Y26265D01*
X17809Y26261D01*
X17816Y26258D01*
X17826Y26251D01*
X17844Y26244D01*
X17861Y26234D01*
X17889Y26227D01*
X17917Y26223D01*
X17951Y26220D01*
X18990Y26220D01*
X18990Y26216D01*
X18990Y26206D01*
X18990Y26192D01*
X18990Y26175D01*
X18990Y26150D01*
X18986Y26126D01*
X18983Y26067D01*
X18976Y26008D01*
X18965Y25949D01*
X18951Y25897D01*
X18944Y25876D01*
X18934Y25859D01*
X18931Y25855D01*
X18920Y25841D01*
X18896Y25820D01*
X18865Y25800D01*
X18819Y25779D01*
X18792Y25768D01*
X18760Y25758D01*
X18726Y25751D01*
X18688Y25744D01*
X18646Y25741D01*
X17865Y25741D01*
X17847Y25744D01*
X17823Y25744D01*
X17799Y25748D01*
X17743Y25755D01*
X17677Y25768D01*
X17615Y25786D01*
X17552Y25814D01*
X17500Y25848D01*
X17497Y25852D01*
X17493Y25855D01*
X17486Y25866D01*
X17472Y25880D01*
X17462Y25897D01*
X17448Y25918D01*
X17431Y25945D01*
X17417Y25977D01*
X17399Y26011D01*
X17385Y26053D01*
X17368Y26102D01*
X17358Y26154D01*
X17347Y26209D01*
X17337Y26275D01*
X17333Y26341D01*
X17330Y26418D01*
X17330Y26970D01*
X17330Y26973D01*
X17330Y26987D01*
X17330Y27008D01*
X17333Y27032D01*
X17333Y27064D01*
X17337Y27098D01*
X17340Y27140D01*
X17347Y27182D01*
X17361Y27268D01*
X17385Y27355D01*
X17399Y27397D01*
X17417Y27435D01*
X17438Y27470D01*
X17462Y27501D01*
X17469Y27508D01*
X17486Y27525D01*
X17521Y27546D01*
X17566Y27574D01*
X17594Y27588D01*
X17625Y27602D01*
X17660Y27612D01*
X17698Y27623D01*
X17740Y27633D01*
X17785Y27640D01*
X17837Y27647D01*
X18538Y27647D01*
X18604Y27650D01*
X18698Y27650D01*
X18705Y27654D01*
X18715Y27654D01*
X18726Y27650D01*
X18726Y27650D02*
G37*
G36*
X32275Y3319D02*
X32499Y3189D01*
X32683Y3005D01*
X32813Y2781D01*
X32880Y2530D01*
X32880Y2270D01*
X32813Y2019D01*
X32683Y1795D01*
X32499Y1611D01*
X32275Y1481D01*
X32024Y1414D01*
X31894Y1414D01*
X31894Y3386D01*
X32024Y3386D01*
X32275Y3319D01*
X32275Y3319D02*
G37*
G36*
X31894Y1400D02*
X5106Y1400D01*
X5106Y1414D01*
X4976Y1414D01*
X4725Y1481D01*
X4501Y1611D01*
X4317Y1795D01*
X4187Y2019D01*
X4120Y2270D01*
X4120Y2530D01*
X4187Y2781D01*
X4317Y3005D01*
X4501Y3189D01*
X4725Y3319D01*
X4976Y3386D01*
X5106Y3386D01*
X5106Y3400D01*
X31894Y3400D01*
X31894Y1400D01*
X31894Y1400D02*
G37*
G36*
X132848Y-81546D02*
X132933Y-81567D01*
X133038Y-81610D01*
X133144Y-81673D01*
X133229Y-81768D01*
X133292Y-81906D01*
X133303Y-81980D01*
X133314Y-82075D01*
X133314Y-82086D01*
X133314Y-82096D01*
X133303Y-82160D01*
X133282Y-82255D01*
X133250Y-82361D01*
X133176Y-82467D01*
X133081Y-82562D01*
X133017Y-82604D01*
X132943Y-82625D01*
X132859Y-82647D01*
X132763Y-82657D01*
X132721Y-82657D01*
X132679Y-82647D01*
X132626Y-82636D01*
X132552Y-82615D01*
X132488Y-82583D01*
X132414Y-82541D01*
X132351Y-82488D01*
X132340Y-82477D01*
X132329Y-82456D01*
X132298Y-82424D01*
X132266Y-82371D01*
X132234Y-82308D01*
X132213Y-82244D01*
X132192Y-82160D01*
X132181Y-82075D01*
X132181Y-82065D01*
X132181Y-82033D01*
X132192Y-82001D01*
X132203Y-81948D01*
X132224Y-81885D01*
X132255Y-81821D01*
X132298Y-81758D01*
X132351Y-81694D01*
X132361Y-81684D01*
X132382Y-81673D01*
X132414Y-81641D01*
X132467Y-81610D01*
X132531Y-81588D01*
X132594Y-81557D01*
X132679Y-81546D01*
X132763Y-81535D01*
X132785Y-81535D01*
X132848Y-81546D01*
X132848Y-81546D02*
G37*
G36*
X129134Y-81049D02*
X129240Y-81049D01*
X129356Y-81059D01*
X129494Y-81070D01*
X129631Y-81091D01*
X129790Y-81112D01*
X129959Y-81144D01*
X130298Y-81218D01*
X130658Y-81324D01*
X131007Y-81461D01*
X134181Y-86498D01*
X134181Y-86509D01*
X134181Y-86541D01*
X134171Y-86593D01*
X134171Y-86657D01*
X134160Y-86742D01*
X134139Y-86826D01*
X134097Y-87038D01*
X134097Y-87049D01*
X134086Y-87091D01*
X134075Y-87144D01*
X134054Y-87228D01*
X134023Y-87324D01*
X134001Y-87429D01*
X133927Y-87662D01*
X131176Y-83366D01*
X131166Y-83356D01*
X131134Y-83313D01*
X131091Y-83260D01*
X131039Y-83197D01*
X130964Y-83133D01*
X130880Y-83080D01*
X130785Y-83038D01*
X130679Y-83027D01*
X130636Y-83027D01*
X130594Y-83049D01*
X130531Y-83070D01*
X130467Y-83102D01*
X130393Y-83165D01*
X130308Y-83239D01*
X130224Y-83345D01*
X129303Y-84604D01*
X132541Y-89704D01*
X132520Y-89715D01*
X132467Y-89768D01*
X132382Y-89831D01*
X132266Y-89916D01*
X132118Y-90022D01*
X131938Y-90138D01*
X131726Y-90265D01*
X131494Y-90392D01*
X131229Y-90519D01*
X130943Y-90646D01*
X130636Y-90763D01*
X130308Y-90868D01*
X129959Y-90953D01*
X129589Y-91017D01*
X129197Y-91070D01*
X128795Y-91080D01*
X128700Y-91080D01*
X128647Y-91070D01*
X128584Y-91070D01*
X128425Y-91059D01*
X128234Y-91027D01*
X128012Y-90995D01*
X127758Y-90943D01*
X127494Y-90868D01*
X127197Y-90784D01*
X126891Y-90678D01*
X126573Y-90540D01*
X126256Y-90382D01*
X125928Y-90191D01*
X125600Y-89969D01*
X125282Y-89715D01*
X124975Y-89429D01*
X126351Y-87535D01*
X126361Y-87525D01*
X126372Y-87504D01*
X126383Y-87472D01*
X126393Y-87429D01*
X126404Y-87377D01*
X126425Y-87313D01*
X126436Y-87228D01*
X126436Y-87218D01*
X126436Y-87197D01*
X126425Y-87165D01*
X126414Y-87123D01*
X126404Y-87070D01*
X126372Y-87006D01*
X126340Y-86932D01*
X126287Y-86847D01*
X125272Y-85260D01*
X123758Y-87355D01*
X123758Y-87345D01*
X123748Y-87324D01*
X123737Y-87292D01*
X123727Y-87239D01*
X123716Y-87186D01*
X123705Y-87112D01*
X123674Y-86943D01*
X123631Y-86742D01*
X123610Y-86509D01*
X123589Y-86255D01*
X123578Y-85980D01*
X123578Y-85969D01*
X123578Y-85959D01*
X123578Y-85895D01*
X123589Y-85789D01*
X123600Y-85652D01*
X123621Y-85482D01*
X123653Y-85281D01*
X123705Y-85059D01*
X123758Y-84816D01*
X123832Y-84562D01*
X123928Y-84287D01*
X124055Y-84012D01*
X124192Y-83715D01*
X124362Y-83430D01*
X124552Y-83144D01*
X124774Y-82858D01*
X125028Y-82583D01*
X125049Y-82562D01*
X125102Y-82520D01*
X125187Y-82435D01*
X125303Y-82340D01*
X125462Y-82223D01*
X125642Y-82096D01*
X125854Y-81959D01*
X126097Y-81811D01*
X126372Y-81662D01*
X126668Y-81525D01*
X126986Y-81398D01*
X127335Y-81282D01*
X127705Y-81176D01*
X128097Y-81102D01*
X128510Y-81059D01*
X128943Y-81038D01*
X129060Y-81038D01*
X129134Y-81049D01*
X129134Y-81049D02*
G37*
G36*
X134404Y-92509D02*
X134488Y-92509D01*
X134562Y-92519D01*
X134615Y-92530D01*
X134626Y-92530D01*
X134657Y-92540D01*
X134700Y-92562D01*
X134753Y-92593D01*
X134806Y-92636D01*
X134859Y-92699D01*
X134901Y-92773D01*
X134933Y-92868D01*
X134933Y-92879D01*
X134933Y-92900D01*
X134943Y-92942D01*
X134943Y-93006D01*
X134943Y-93080D01*
X134954Y-93175D01*
X134954Y-93292D01*
X134954Y-93419D01*
X133070Y-93376D01*
X133049Y-93376D01*
X133007Y-93387D01*
X132933Y-93408D01*
X132859Y-93461D01*
X132774Y-93535D01*
X132742Y-93599D01*
X132700Y-93662D01*
X132679Y-93736D01*
X132658Y-93831D01*
X132636Y-93937D01*
X132636Y-94064D01*
X132636Y-94456D01*
X132636Y-94466D01*
X132636Y-94487D01*
X132636Y-94519D01*
X132647Y-94561D01*
X132658Y-94678D01*
X132689Y-94794D01*
X132742Y-94921D01*
X132816Y-95038D01*
X132859Y-95080D01*
X132922Y-95112D01*
X132986Y-95133D01*
X133060Y-95143D01*
X134985Y-95143D01*
X134985Y-95154D01*
X134985Y-95165D01*
X134985Y-95228D01*
X134985Y-95323D01*
X134975Y-95440D01*
X134964Y-95556D01*
X134943Y-95662D01*
X134911Y-95757D01*
X134880Y-95831D01*
X134869Y-95842D01*
X134848Y-95863D01*
X134816Y-95884D01*
X134753Y-95916D01*
X134668Y-95958D01*
X134562Y-95979D01*
X134414Y-96001D01*
X134245Y-96011D01*
X132880Y-96011D01*
X132837Y-96001D01*
X132721Y-95990D01*
X132583Y-95969D01*
X132435Y-95926D01*
X132287Y-95863D01*
X132160Y-95768D01*
X132054Y-95651D01*
X132044Y-95641D01*
X132033Y-95598D01*
X132001Y-95535D01*
X131980Y-95440D01*
X131949Y-95313D01*
X131917Y-95165D01*
X131906Y-94985D01*
X131896Y-94784D01*
X131896Y-93757D01*
X131896Y-93747D01*
X131896Y-93715D01*
X131896Y-93673D01*
X131906Y-93620D01*
X131906Y-93546D01*
X131917Y-93472D01*
X131949Y-93292D01*
X132001Y-93101D01*
X132065Y-92921D01*
X132171Y-92752D01*
X132234Y-92689D01*
X132308Y-92636D01*
X132319Y-92625D01*
X132351Y-92614D01*
X132393Y-92593D01*
X132467Y-92562D01*
X132552Y-92540D01*
X132668Y-92519D01*
X132795Y-92509D01*
X132943Y-92498D01*
X134319Y-92498D01*
X134404Y-92509D01*
X134404Y-92509D02*
G37*
G36*
X138414Y-95990D02*
X137684Y-95990D01*
X137684Y-94678D01*
X136128Y-94678D01*
X136128Y-95990D01*
X135441Y-95990D01*
X135441Y-92530D01*
X136128Y-92530D01*
X136128Y-93757D01*
X137684Y-93757D01*
X137684Y-92530D01*
X138414Y-92530D01*
X138414Y-95990D01*
X138414Y-95990D02*
G37*
G36*
X118722Y-91398D02*
X118785Y-91419D01*
X118859Y-91450D01*
X118944Y-91514D01*
X119018Y-91609D01*
X119050Y-91673D01*
X119071Y-91747D01*
X119102Y-91831D01*
X119113Y-91927D01*
X119579Y-95990D01*
X118711Y-95990D01*
X118468Y-93069D01*
X118457Y-93069D01*
X117558Y-95408D01*
X117547Y-95429D01*
X117526Y-95471D01*
X117494Y-95535D01*
X117441Y-95598D01*
X117367Y-95673D01*
X117282Y-95736D01*
X117177Y-95778D01*
X117050Y-95800D01*
X117028Y-95800D01*
X116986Y-95789D01*
X116923Y-95778D01*
X116838Y-95747D01*
X116743Y-95704D01*
X116658Y-95630D01*
X116573Y-95535D01*
X116510Y-95408D01*
X115621Y-93112D01*
X115610Y-93112D01*
X115357Y-95990D01*
X114510Y-95990D01*
X114954Y-91884D01*
X114954Y-91874D01*
X114954Y-91863D01*
X114976Y-91810D01*
X114997Y-91726D01*
X115039Y-91630D01*
X115092Y-91546D01*
X115177Y-91461D01*
X115282Y-91408D01*
X115346Y-91387D01*
X115441Y-91387D01*
X115494Y-91398D01*
X115568Y-91408D01*
X115663Y-91440D01*
X115769Y-91503D01*
X115875Y-91588D01*
X115970Y-91694D01*
X116013Y-91768D01*
X116044Y-91853D01*
X117028Y-94360D01*
X117050Y-94360D01*
X118034Y-91853D01*
X118034Y-91842D01*
X118044Y-91831D01*
X118065Y-91778D01*
X118118Y-91704D01*
X118182Y-91620D01*
X118266Y-91535D01*
X118372Y-91461D01*
X118499Y-91408D01*
X118573Y-91387D01*
X118679Y-91387D01*
X118722Y-91398D01*
X118722Y-91398D02*
G37*
G36*
X142541Y-92540D02*
X142647Y-92562D01*
X142784Y-92604D01*
X142922Y-92667D01*
X143049Y-92773D01*
X143112Y-92837D01*
X143165Y-92921D01*
X143207Y-93006D01*
X143239Y-93112D01*
X143239Y-93122D01*
X143250Y-93154D01*
X143260Y-93207D01*
X143271Y-93271D01*
X143281Y-93366D01*
X143292Y-93472D01*
X143303Y-93588D01*
X143303Y-93726D01*
X143303Y-93990D01*
X143303Y-94001D01*
X143303Y-94022D01*
X143303Y-94043D01*
X143303Y-94085D01*
X143292Y-94202D01*
X143281Y-94329D01*
X143250Y-94477D01*
X143218Y-94625D01*
X143165Y-94773D01*
X143091Y-94890D01*
X143080Y-94900D01*
X143059Y-94921D01*
X143028Y-94964D01*
X142975Y-94995D01*
X142911Y-95038D01*
X142826Y-95080D01*
X142731Y-95101D01*
X142625Y-95112D01*
X140911Y-95112D01*
X140911Y-95990D01*
X140192Y-95990D01*
X140192Y-92530D01*
X142498Y-92530D01*
X142541Y-92540D01*
X142541Y-92540D02*
G37*
G36*
X139726Y-95990D02*
X138922Y-95990D01*
X138922Y-92530D01*
X139726Y-92530D01*
X139726Y-95990D01*
X139726Y-95990D02*
G37*
G36*
X127187Y-92540D02*
X127229Y-92540D01*
X127346Y-92583D01*
X127398Y-92614D01*
X127473Y-92657D01*
X127536Y-92710D01*
X127589Y-92784D01*
X127652Y-92858D01*
X127705Y-92964D01*
X127748Y-93080D01*
X127779Y-93218D01*
X127801Y-93376D01*
X127811Y-93556D01*
X127811Y-93768D01*
X127811Y-93778D01*
X127811Y-93800D01*
X127811Y-93831D01*
X127801Y-93884D01*
X127790Y-94001D01*
X127758Y-94149D01*
X127716Y-94297D01*
X127642Y-94445D01*
X127547Y-94561D01*
X127494Y-94604D01*
X127420Y-94636D01*
X127420Y-94646D01*
X127441Y-94657D01*
X127483Y-94667D01*
X127547Y-94710D01*
X127621Y-94784D01*
X127684Y-94879D01*
X127748Y-95016D01*
X127779Y-95091D01*
X127790Y-95186D01*
X127811Y-95292D01*
X127811Y-95408D01*
X127811Y-95990D01*
X127081Y-95990D01*
X127081Y-95577D01*
X127081Y-95567D01*
X127081Y-95535D01*
X127081Y-95482D01*
X127081Y-95429D01*
X127070Y-95302D01*
X127060Y-95249D01*
X127049Y-95218D01*
X127049Y-95207D01*
X127039Y-95196D01*
X126996Y-95143D01*
X126912Y-95101D01*
X126859Y-95091D01*
X126795Y-95080D01*
X125504Y-95080D01*
X125504Y-95990D01*
X124774Y-95990D01*
X124774Y-92530D01*
X127155Y-92530D01*
X127187Y-92540D01*
X127187Y-92540D02*
G37*
G36*
X120817Y-95990D02*
X120002Y-95990D01*
X120002Y-92530D01*
X120817Y-92530D01*
X120817Y-95990D01*
X120817Y-95990D02*
G37*
G36*
X130658Y-92509D02*
X130785Y-92540D01*
X130922Y-92572D01*
X131060Y-92625D01*
X131176Y-92699D01*
X131271Y-92805D01*
X131282Y-92815D01*
X131303Y-92858D01*
X131345Y-92932D01*
X131388Y-93038D01*
X131419Y-93165D01*
X131462Y-93323D01*
X131483Y-93514D01*
X131494Y-93736D01*
X131494Y-94773D01*
X131494Y-94784D01*
X131494Y-94815D01*
X131494Y-94858D01*
X131483Y-94921D01*
X131483Y-95006D01*
X131472Y-95091D01*
X131430Y-95281D01*
X131367Y-95482D01*
X131282Y-95673D01*
X131218Y-95757D01*
X131155Y-95831D01*
X131070Y-95895D01*
X130986Y-95948D01*
X130975Y-95948D01*
X130954Y-95958D01*
X130901Y-95969D01*
X130848Y-95979D01*
X130763Y-95990D01*
X130679Y-96001D01*
X130573Y-96011D01*
X129240Y-96011D01*
X129197Y-96001D01*
X129081Y-95990D01*
X128954Y-95969D01*
X128816Y-95926D01*
X128668Y-95874D01*
X128541Y-95789D01*
X128435Y-95683D01*
X128425Y-95673D01*
X128404Y-95630D01*
X128372Y-95556D01*
X128340Y-95461D01*
X128308Y-95334D01*
X128277Y-95175D01*
X128256Y-94995D01*
X128245Y-94773D01*
X128245Y-93736D01*
X128245Y-93726D01*
X128245Y-93694D01*
X128245Y-93641D01*
X128256Y-93577D01*
X128266Y-93493D01*
X128277Y-93397D01*
X128319Y-93196D01*
X128393Y-92995D01*
X128446Y-92890D01*
X128499Y-92794D01*
X128573Y-92710D01*
X128647Y-92636D01*
X128742Y-92583D01*
X128848Y-92540D01*
X128859Y-92540D01*
X128880Y-92530D01*
X128922Y-92530D01*
X128975Y-92519D01*
X129039Y-92509D01*
X129113Y-92509D01*
X129293Y-92498D01*
X130552Y-92498D01*
X130658Y-92509D01*
X130658Y-92509D02*
G37*
G36*
X123589Y-92509D02*
X123758Y-92519D01*
X123917Y-92530D01*
X123981Y-92540D01*
X124044Y-92551D01*
X124086Y-92562D01*
X124118Y-92572D01*
X124129Y-92583D01*
X124150Y-92604D01*
X124182Y-92646D01*
X124213Y-92720D01*
X124245Y-92815D01*
X124266Y-92890D01*
X124277Y-92964D01*
X124287Y-93048D01*
X124298Y-93144D01*
X124309Y-93249D01*
X124309Y-93376D01*
X122414Y-93376D01*
X122372Y-93387D01*
X122330Y-93397D01*
X122224Y-93429D01*
X122171Y-93472D01*
X122129Y-93514D01*
X122129Y-93524D01*
X122108Y-93546D01*
X122097Y-93577D01*
X122076Y-93630D01*
X122055Y-93704D01*
X122034Y-93800D01*
X122023Y-93927D01*
X122012Y-94064D01*
X122012Y-94456D01*
X122012Y-94477D01*
X122012Y-94519D01*
X122012Y-94593D01*
X122023Y-94667D01*
X122023Y-94763D01*
X122034Y-94847D01*
X122044Y-94921D01*
X122065Y-94974D01*
X122065Y-94985D01*
X122086Y-94995D01*
X122108Y-95027D01*
X122150Y-95059D01*
X122192Y-95091D01*
X122256Y-95112D01*
X122330Y-95133D01*
X122425Y-95143D01*
X124362Y-95143D01*
X124362Y-95154D01*
X124362Y-95165D01*
X124362Y-95228D01*
X124362Y-95313D01*
X124351Y-95419D01*
X124340Y-95524D01*
X124319Y-95630D01*
X124287Y-95725D01*
X124256Y-95800D01*
X124245Y-95810D01*
X124224Y-95831D01*
X124182Y-95863D01*
X124129Y-95905D01*
X124033Y-95948D01*
X123928Y-95979D01*
X123780Y-96001D01*
X123610Y-96011D01*
X122213Y-96011D01*
X122108Y-96001D01*
X121991Y-95979D01*
X121854Y-95948D01*
X121716Y-95895D01*
X121589Y-95831D01*
X121483Y-95736D01*
X121473Y-95725D01*
X121452Y-95683D01*
X121409Y-95609D01*
X121367Y-95514D01*
X121325Y-95376D01*
X121282Y-95218D01*
X121261Y-95016D01*
X121251Y-94773D01*
X121251Y-93736D01*
X121251Y-93726D01*
X121251Y-93683D01*
X121251Y-93630D01*
X121261Y-93567D01*
X121272Y-93472D01*
X121293Y-93376D01*
X121346Y-93165D01*
X121430Y-92953D01*
X121483Y-92847D01*
X121557Y-92752D01*
X121642Y-92667D01*
X121737Y-92593D01*
X121843Y-92540D01*
X121970Y-92509D01*
X122023Y-92509D01*
X122065Y-92498D01*
X123420Y-92498D01*
X123589Y-92509D01*
X123589Y-92509D02*
G37*
%LPC*%
G36*
X12333Y59098D02*
X12320Y59098D01*
X12299Y59094D01*
X12278Y59091D01*
X12254Y59080D01*
X12226Y59070D01*
X12198Y59052D01*
X12174Y59028D01*
X12170Y59025D01*
X12163Y59014D01*
X12153Y59000D01*
X12139Y58983D01*
X12125Y58959D01*
X12115Y58931D01*
X12108Y58900D01*
X12104Y58865D01*
X12104Y58861D01*
X12104Y58848D01*
X12108Y58830D01*
X12111Y58809D01*
X12122Y58782D01*
X12132Y58754D01*
X12149Y58726D01*
X12170Y58698D01*
X12174Y58695D01*
X12181Y58688D01*
X12198Y58677D01*
X12215Y58667D01*
X12240Y58653D01*
X12267Y58643D01*
X12299Y58636D01*
X12333Y58632D01*
X12351Y58632D01*
X12368Y58636D01*
X12389Y58639D01*
X12413Y58650D01*
X12441Y58660D01*
X12469Y58677D01*
X12493Y58698D01*
X12497Y58702D01*
X12504Y58712D01*
X12514Y58726D01*
X12528Y58747D01*
X12538Y58771D01*
X12549Y58799D01*
X12556Y58830D01*
X12559Y58865D01*
X12559Y58868D01*
X12559Y58882D01*
X12556Y58900D01*
X12552Y58920D01*
X12542Y58945D01*
X12531Y58973D01*
X12514Y59000D01*
X12493Y59028D01*
X12490Y59032D01*
X12483Y59039D01*
X12469Y59049D01*
X12448Y59063D01*
X12424Y59077D01*
X12399Y59087D01*
X12368Y59094D01*
X12333Y59098D01*
X12333Y59098D02*
G37*
%LPD*%
G36*
X12382Y59021D02*
X12406Y59014D01*
X12427Y59004D01*
X12445Y58986D01*
X12458Y58966D01*
X12462Y58934D01*
X12462Y58931D01*
X12462Y58924D01*
X12458Y58910D01*
X12451Y58896D01*
X12441Y58879D01*
X12427Y58865D01*
X12406Y58854D01*
X12379Y58848D01*
X12465Y58705D01*
X12413Y58705D01*
X12330Y58841D01*
X12271Y58841D01*
X12271Y58705D01*
X12226Y58705D01*
X12226Y59025D01*
X12365Y59025D01*
X12382Y59021D01*
X12382Y59021D02*
G37*
%LPC*%
G36*
X12337Y58983D02*
X12271Y58983D01*
X12271Y58882D01*
X12333Y58882D01*
X12340Y58886D01*
X12354Y58889D01*
X12368Y58893D01*
X12382Y58900D01*
X12396Y58910D01*
X12403Y58920D01*
X12406Y58934D01*
X12406Y58938D01*
X12406Y58941D01*
X12399Y58959D01*
X12389Y58969D01*
X12379Y58976D01*
X12361Y58979D01*
X12337Y58983D01*
X12337Y58983D02*
G37*
G36*
X9549Y58448D02*
X9545Y58448D01*
X9528Y58445D01*
X9507Y58441D01*
X9476Y58427D01*
X9441Y58410D01*
X9399Y58382D01*
X9358Y58344D01*
X9337Y58320D01*
X9316Y58292D01*
X8875Y57670D01*
X10205Y55584D01*
X10205Y55580D01*
X10212Y55577D01*
X10226Y55552D01*
X10250Y55525D01*
X10278Y55490D01*
X10313Y55452D01*
X10347Y55424D01*
X10382Y55400D01*
X10396Y55396D01*
X10413Y55393D01*
X10420Y55393D01*
X10438Y55396D01*
X10462Y55400D01*
X10497Y55410D01*
X10531Y55427D01*
X10573Y55452D01*
X10611Y55486D01*
X10646Y55532D01*
X11108Y56198D01*
X9788Y58282D01*
X9788Y58285D01*
X9785Y58289D01*
X9771Y58309D01*
X9747Y58334D01*
X9719Y58365D01*
X9684Y58396D01*
X9642Y58424D01*
X9597Y58441D01*
X9573Y58445D01*
X9549Y58448D01*
X9549Y58448D02*
G37*
G36*
X28614Y57261D02*
X27899Y57261D01*
X27899Y56795D01*
X28656Y56795D01*
X28670Y56799D01*
X28687Y56806D01*
X28712Y56820D01*
X28736Y56844D01*
X28746Y56861D01*
X28753Y56879D01*
X28764Y56903D01*
X28767Y56927D01*
X28774Y56959D01*
X28774Y56993D01*
X28774Y57066D01*
X28774Y57070D01*
X28774Y57073D01*
X28771Y57098D01*
X28767Y57129D01*
X28753Y57164D01*
X28736Y57198D01*
X28708Y57229D01*
X28667Y57254D01*
X28642Y57257D01*
X28614Y57261D01*
X28614Y57261D02*
G37*
G36*
X20330Y57261D02*
X19615Y57261D01*
X19615Y56809D01*
X20344Y56809D01*
X20358Y56813D01*
X20372Y56816D01*
X20406Y56827D01*
X20424Y56837D01*
X20437Y56851D01*
X20441Y56854D01*
X20444Y56858D01*
X20451Y56872D01*
X20458Y56886D01*
X20465Y56907D01*
X20469Y56934D01*
X20476Y56969D01*
X20476Y57007D01*
X20476Y57066D01*
X20476Y57073D01*
X20476Y57087D01*
X20472Y57111D01*
X20469Y57136D01*
X20462Y57167D01*
X20451Y57195D01*
X20437Y57219D01*
X20420Y57236D01*
X20413Y57240D01*
X20406Y57243D01*
X20392Y57250D01*
X20375Y57254D01*
X20354Y57257D01*
X20330Y57261D01*
X20330Y57261D02*
G37*
G36*
X22191Y57268D02*
X21712Y57268D01*
X21684Y57261D01*
X21653Y57254D01*
X21615Y57240D01*
X21580Y57219D01*
X21549Y57188D01*
X21524Y57150D01*
X21524Y57146D01*
X21517Y57136D01*
X21514Y57115D01*
X21507Y57087D01*
X21500Y57052D01*
X21497Y57007D01*
X21490Y56955D01*
X21490Y56893D01*
X21490Y56695D01*
X21490Y56691D01*
X21490Y56684D01*
X21490Y56670D01*
X21490Y56657D01*
X21493Y56611D01*
X21497Y56563D01*
X21507Y56507D01*
X21517Y56455D01*
X21535Y56410D01*
X21545Y56393D01*
X21556Y56375D01*
X21559Y56372D01*
X21566Y56368D01*
X21576Y56358D01*
X21594Y56348D01*
X21615Y56337D01*
X21642Y56330D01*
X21677Y56323D01*
X21715Y56320D01*
X22222Y56320D01*
X22240Y56323D01*
X22267Y56327D01*
X22299Y56334D01*
X22330Y56351D01*
X22365Y56372D01*
X22392Y56400D01*
X22413Y56441D01*
X22413Y56445D01*
X22417Y56455D01*
X22420Y56473D01*
X22427Y56497D01*
X22431Y56532D01*
X22434Y56577D01*
X22437Y56629D01*
X22437Y56695D01*
X22437Y56893D01*
X22437Y56896D01*
X22437Y56903D01*
X22437Y56914D01*
X22437Y56927D01*
X22434Y56966D01*
X22431Y57007D01*
X22424Y57056D01*
X22413Y57104D01*
X22399Y57150D01*
X22378Y57184D01*
X22375Y57188D01*
X22368Y57198D01*
X22354Y57212D01*
X22333Y57226D01*
X22306Y57240D01*
X22274Y57254D01*
X22236Y57264D01*
X22191Y57268D01*
X22191Y57268D02*
G37*
G36*
X27221Y33277D02*
X27221Y32222D01*
X27217Y32278D01*
X27207Y32326D01*
X27196Y32370D01*
X27180Y32407D01*
X27163Y32435D01*
X27152Y32456D01*
X27143Y32470D01*
X27138Y32475D01*
X27103Y32509D01*
X27064Y32539D01*
X27022Y32565D01*
X26981Y32588D01*
X26944Y32604D01*
X26925Y32611D01*
X26911Y32618D01*
X26900Y32623D01*
X26890Y32625D01*
X26886Y32627D01*
X26883Y32627D01*
X26851Y32637D01*
X26821Y32646D01*
X26793Y32653D01*
X26768Y32660D01*
X26747Y32664D01*
X26733Y32669D01*
X26724Y32671D01*
X26719Y32671D01*
X26664Y32683D01*
X26636Y32690D01*
X26613Y32694D01*
X26592Y32699D01*
X26576Y32704D01*
X26566Y32706D01*
X26562Y32706D01*
X26518Y32715D01*
X26483Y32724D01*
X26453Y32734D01*
X26430Y32743D01*
X26411Y32750D01*
X26400Y32757D01*
X26393Y32759D01*
X26391Y32761D01*
X26377Y32775D01*
X26365Y32789D01*
X26358Y32805D01*
X26351Y32819D01*
X26349Y32833D01*
X26347Y32845D01*
X26347Y32852D01*
X26347Y32854D01*
X26349Y32868D01*
X26351Y32882D01*
X26360Y32903D01*
X26365Y32912D01*
X26370Y32919D01*
X26374Y32921D01*
X26374Y32923D01*
X26397Y32944D01*
X26418Y32958D01*
X26428Y32963D01*
X26435Y32967D01*
X26439Y32970D01*
X26441Y32970D01*
X26474Y32981D01*
X26504Y32991D01*
X26515Y32993D01*
X26525Y32993D01*
X26529Y32995D01*
X26532Y32995D01*
X26566Y33000D01*
X26599Y33002D01*
X26629Y33002D01*
X26680Y33000D01*
X26728Y32995D01*
X26775Y32986D01*
X26814Y32979D01*
X26849Y32970D01*
X26863Y32965D01*
X26874Y32960D01*
X26883Y32958D01*
X26890Y32956D01*
X26895Y32954D01*
X26897Y32954D01*
X26946Y32935D01*
X26988Y32914D01*
X27025Y32893D01*
X27057Y32875D01*
X27085Y32859D01*
X27103Y32845D01*
X27115Y32836D01*
X27119Y32833D01*
X27161Y32833D01*
X27161Y33176D01*
X27119Y33192D01*
X27078Y33206D01*
X27034Y33217D01*
X26994Y33229D01*
X26960Y33236D01*
X26946Y33240D01*
X26934Y33243D01*
X26923Y33245D01*
X26916Y33245D01*
X26911Y33247D01*
X26909Y33247D01*
X26856Y33257D01*
X26802Y33266D01*
X26754Y33271D01*
X26710Y33273D01*
X26673Y33275D01*
X26659Y33277D01*
X27221Y33277D01*
X25942Y33277D01*
X26620Y33277D01*
X26566Y33275D01*
X26513Y33273D01*
X26465Y33266D01*
X26418Y33257D01*
X26377Y33247D01*
X26337Y33236D01*
X26300Y33222D01*
X26268Y33210D01*
X26238Y33199D01*
X26210Y33185D01*
X26189Y33173D01*
X26171Y33164D01*
X26155Y33155D01*
X26145Y33150D01*
X26138Y33146D01*
X26136Y33143D01*
X26104Y33118D01*
X26076Y33090D01*
X26050Y33062D01*
X26030Y33035D01*
X26011Y33007D01*
X25997Y32977D01*
X25983Y32951D01*
X25974Y32923D01*
X25967Y32898D01*
X25960Y32877D01*
X25956Y32856D01*
X25953Y32838D01*
X25953Y32824D01*
X25951Y32812D01*
X25951Y32805D01*
X25951Y32803D01*
X25956Y32748D01*
X25965Y32697D01*
X25976Y32650D01*
X25993Y32613D01*
X26006Y32581D01*
X26020Y32558D01*
X26025Y32551D01*
X26030Y32544D01*
X26032Y32542D01*
X26032Y32539D01*
X26048Y32521D01*
X26067Y32502D01*
X26111Y32470D01*
X26155Y32442D01*
X26201Y32419D01*
X26240Y32401D01*
X26259Y32391D01*
X26275Y32387D01*
X26286Y32382D01*
X26296Y32377D01*
X26303Y32375D01*
X26305Y32375D01*
X26367Y32357D01*
X26397Y32347D01*
X26425Y32343D01*
X26446Y32336D01*
X26465Y32331D01*
X26476Y32329D01*
X26481Y32329D01*
X26515Y32322D01*
X26550Y32317D01*
X26580Y32310D01*
X26606Y32303D01*
X26629Y32299D01*
X26647Y32296D01*
X26657Y32292D01*
X26661Y32292D01*
X26689Y32285D01*
X26714Y32276D01*
X26733Y32266D01*
X26752Y32257D01*
X26765Y32250D01*
X26775Y32243D01*
X26779Y32239D01*
X26782Y32236D01*
X26795Y32222D01*
X26807Y32208D01*
X26814Y32195D01*
X26821Y32181D01*
X26823Y32169D01*
X26826Y32162D01*
X26826Y32155D01*
X26826Y32153D01*
X26823Y32134D01*
X26821Y32118D01*
X26816Y32104D01*
X26812Y32093D01*
X26805Y32083D01*
X26800Y32077D01*
X26798Y32074D01*
X26795Y32072D01*
X26772Y32053D01*
X26749Y32040D01*
X26740Y32033D01*
X26731Y32028D01*
X26726Y32026D01*
X26724Y32026D01*
X26694Y32016D01*
X26664Y32009D01*
X26650Y32007D01*
X26638Y32007D01*
X26631Y32005D01*
X26629Y32005D01*
X26608Y32003D01*
X26573Y32003D01*
X26562Y32000D01*
X26536Y32000D01*
X26485Y32003D01*
X26435Y32007D01*
X26386Y32016D01*
X26342Y32026D01*
X26305Y32035D01*
X26291Y32040D01*
X26277Y32044D01*
X26266Y32046D01*
X26259Y32049D01*
X26254Y32051D01*
X26252Y32051D01*
X26198Y32072D01*
X26148Y32095D01*
X26101Y32121D01*
X26062Y32144D01*
X26030Y32167D01*
X26004Y32183D01*
X25995Y32190D01*
X25988Y32195D01*
X25986Y32199D01*
X25942Y32199D01*
X25942Y31838D01*
X26032Y31806D01*
X26076Y31792D01*
X26115Y31780D01*
X26150Y31771D01*
X26175Y31764D01*
X26185Y31760D01*
X26192Y31760D01*
X26196Y31757D01*
X26198Y31757D01*
X26252Y31746D01*
X26307Y31739D01*
X26363Y31732D01*
X26414Y31729D01*
X26458Y31727D01*
X26476Y31725D01*
X26522Y31725D01*
X26580Y31727D01*
X26636Y31732D01*
X26689Y31736D01*
X26738Y31746D01*
X26784Y31757D01*
X26826Y31769D01*
X26863Y31780D01*
X26897Y31794D01*
X26927Y31806D01*
X26955Y31817D01*
X26978Y31829D01*
X26997Y31841D01*
X27013Y31850D01*
X27022Y31854D01*
X27029Y31859D01*
X27031Y31861D01*
X27064Y31889D01*
X27094Y31917D01*
X27119Y31947D01*
X27140Y31977D01*
X27159Y32007D01*
X27175Y32037D01*
X27187Y32065D01*
X27198Y32095D01*
X27205Y32121D01*
X27212Y32144D01*
X27217Y32167D01*
X27219Y32185D01*
X27219Y32202D01*
X27221Y32213D01*
X27221Y31725D01*
X27221Y31725D01*
X27221Y31725D01*
X27221Y33277D01*
X27221Y33277D02*
G37*
G36*
X22612Y33277D02*
X22612Y32222D01*
X22607Y32278D01*
X22598Y32326D01*
X22586Y32370D01*
X22570Y32407D01*
X22554Y32435D01*
X22542Y32456D01*
X22533Y32470D01*
X22529Y32475D01*
X22494Y32509D01*
X22455Y32539D01*
X22413Y32565D01*
X22371Y32588D01*
X22334Y32604D01*
X22316Y32611D01*
X22302Y32618D01*
X22290Y32623D01*
X22281Y32625D01*
X22276Y32627D01*
X22274Y32627D01*
X22242Y32637D01*
X22212Y32646D01*
X22184Y32653D01*
X22158Y32660D01*
X22138Y32664D01*
X22124Y32669D01*
X22114Y32671D01*
X22110Y32671D01*
X22054Y32683D01*
X22026Y32690D01*
X22003Y32694D01*
X21982Y32699D01*
X21966Y32704D01*
X21957Y32706D01*
X21952Y32706D01*
X21908Y32715D01*
X21874Y32724D01*
X21844Y32734D01*
X21821Y32743D01*
X21802Y32750D01*
X21790Y32757D01*
X21783Y32759D01*
X21781Y32761D01*
X21767Y32775D01*
X21756Y32789D01*
X21749Y32805D01*
X21742Y32819D01*
X21740Y32833D01*
X21737Y32845D01*
X21737Y32852D01*
X21737Y32854D01*
X21740Y32868D01*
X21742Y32882D01*
X21751Y32903D01*
X21756Y32912D01*
X21760Y32919D01*
X21765Y32921D01*
X21765Y32923D01*
X21788Y32944D01*
X21809Y32958D01*
X21818Y32963D01*
X21825Y32967D01*
X21830Y32970D01*
X21832Y32970D01*
X21864Y32981D01*
X21895Y32991D01*
X21906Y32993D01*
X21915Y32993D01*
X21920Y32995D01*
X21922Y32995D01*
X21957Y33000D01*
X21989Y33002D01*
X22020Y33002D01*
X22070Y33000D01*
X22119Y32995D01*
X22165Y32986D01*
X22205Y32979D01*
X22239Y32970D01*
X22253Y32965D01*
X22265Y32960D01*
X22274Y32958D01*
X22281Y32956D01*
X22286Y32954D01*
X22288Y32954D01*
X22337Y32935D01*
X22378Y32914D01*
X22415Y32893D01*
X22448Y32875D01*
X22475Y32859D01*
X22494Y32845D01*
X22505Y32836D01*
X22510Y32833D01*
X22552Y32833D01*
X22552Y33176D01*
X22510Y33192D01*
X22468Y33206D01*
X22424Y33217D01*
X22385Y33229D01*
X22350Y33236D01*
X22337Y33240D01*
X22325Y33243D01*
X22313Y33245D01*
X22306Y33245D01*
X22302Y33247D01*
X22299Y33247D01*
X22246Y33257D01*
X22193Y33266D01*
X22144Y33271D01*
X22101Y33273D01*
X22063Y33275D01*
X22050Y33277D01*
X22612Y33277D01*
X21332Y33277D01*
X21332Y33277D01*
X22010Y33277D01*
X21957Y33275D01*
X21904Y33273D01*
X21855Y33266D01*
X21809Y33257D01*
X21767Y33247D01*
X21728Y33236D01*
X21691Y33222D01*
X21659Y33210D01*
X21628Y33199D01*
X21601Y33185D01*
X21580Y33173D01*
X21561Y33164D01*
X21545Y33155D01*
X21536Y33150D01*
X21529Y33146D01*
X21527Y33143D01*
X21494Y33118D01*
X21466Y33090D01*
X21441Y33062D01*
X21420Y33035D01*
X21402Y33007D01*
X21388Y32977D01*
X21374Y32951D01*
X21365Y32923D01*
X21358Y32898D01*
X21351Y32877D01*
X21346Y32856D01*
X21344Y32838D01*
X21344Y32824D01*
X21342Y32812D01*
X21342Y32805D01*
X21342Y32803D01*
X21346Y32748D01*
X21355Y32697D01*
X21367Y32650D01*
X21383Y32613D01*
X21397Y32581D01*
X21411Y32558D01*
X21416Y32551D01*
X21420Y32544D01*
X21423Y32542D01*
X21423Y32539D01*
X21439Y32521D01*
X21457Y32502D01*
X21501Y32470D01*
X21545Y32442D01*
X21591Y32419D01*
X21631Y32401D01*
X21649Y32391D01*
X21665Y32387D01*
X21677Y32382D01*
X21686Y32377D01*
X21693Y32375D01*
X21696Y32375D01*
X21758Y32357D01*
X21788Y32347D01*
X21816Y32343D01*
X21837Y32336D01*
X21855Y32331D01*
X21867Y32329D01*
X21871Y32329D01*
X21906Y32322D01*
X21941Y32317D01*
X21971Y32310D01*
X21996Y32303D01*
X22020Y32299D01*
X22038Y32296D01*
X22047Y32292D01*
X22052Y32292D01*
X22080Y32285D01*
X22105Y32276D01*
X22124Y32266D01*
X22142Y32257D01*
X22156Y32250D01*
X22165Y32243D01*
X22170Y32239D01*
X22172Y32236D01*
X22186Y32222D01*
X22198Y32208D01*
X22205Y32195D01*
X22212Y32181D01*
X22214Y32169D01*
X22216Y32162D01*
X22216Y32155D01*
X22216Y32153D01*
X22214Y32134D01*
X22212Y32118D01*
X22207Y32104D01*
X22202Y32093D01*
X22195Y32083D01*
X22191Y32077D01*
X22188Y32074D01*
X22186Y32072D01*
X22163Y32053D01*
X22140Y32040D01*
X22131Y32033D01*
X22121Y32028D01*
X22117Y32026D01*
X22114Y32026D01*
X22084Y32016D01*
X22054Y32009D01*
X22040Y32007D01*
X22029Y32007D01*
X22022Y32005D01*
X22020Y32005D01*
X21999Y32003D01*
X21964Y32003D01*
X21952Y32000D01*
X21927Y32000D01*
X21876Y32003D01*
X21825Y32007D01*
X21777Y32016D01*
X21733Y32026D01*
X21696Y32035D01*
X21682Y32040D01*
X21668Y32044D01*
X21656Y32046D01*
X21649Y32049D01*
X21645Y32051D01*
X21642Y32051D01*
X21589Y32072D01*
X21538Y32095D01*
X21492Y32121D01*
X21453Y32144D01*
X21420Y32167D01*
X21395Y32183D01*
X21385Y32190D01*
X21379Y32195D01*
X21376Y32199D01*
X21332Y32199D01*
X21332Y31838D01*
X21423Y31806D01*
X21466Y31792D01*
X21506Y31780D01*
X21541Y31771D01*
X21566Y31764D01*
X21575Y31760D01*
X21582Y31760D01*
X21587Y31757D01*
X21589Y31757D01*
X21642Y31746D01*
X21698Y31739D01*
X21753Y31732D01*
X21804Y31729D01*
X21848Y31727D01*
X21867Y31725D01*
X21913Y31725D01*
X21971Y31727D01*
X22026Y31732D01*
X22080Y31736D01*
X22128Y31746D01*
X22175Y31757D01*
X22216Y31769D01*
X22253Y31780D01*
X22288Y31794D01*
X22318Y31806D01*
X22346Y31817D01*
X22369Y31829D01*
X22387Y31841D01*
X22404Y31850D01*
X22413Y31854D01*
X22420Y31859D01*
X22422Y31861D01*
X22455Y31889D01*
X22485Y31917D01*
X22510Y31947D01*
X22531Y31977D01*
X22549Y32007D01*
X22566Y32037D01*
X22577Y32065D01*
X22589Y32095D01*
X22596Y32121D01*
X22603Y32144D01*
X22607Y32167D01*
X22610Y32185D01*
X22610Y32202D01*
X22612Y32213D01*
X22612Y31725D01*
X22612Y31725D01*
X22612Y33277D01*
X22612Y33277D02*
G37*
G36*
X28941Y33277D02*
X28941Y32498D01*
X28938Y32565D01*
X28931Y32625D01*
X28922Y32685D01*
X28908Y32738D01*
X28892Y32789D01*
X28876Y32836D01*
X28857Y32879D01*
X28839Y32919D01*
X28818Y32951D01*
X28799Y32981D01*
X28783Y33007D01*
X28767Y33030D01*
X28753Y33046D01*
X28744Y33058D01*
X28737Y33065D01*
X28735Y33067D01*
X28695Y33104D01*
X28651Y33136D01*
X28605Y33164D01*
X28559Y33190D01*
X28512Y33208D01*
X28464Y33227D01*
X28418Y33240D01*
X28374Y33252D01*
X28332Y33259D01*
X28293Y33266D01*
X28258Y33271D01*
X28228Y33275D01*
X28202Y33275D01*
X28184Y33277D01*
X28941Y33277D01*
X27399Y33277D01*
X27399Y33277D01*
X28168Y33277D01*
X28103Y33275D01*
X28040Y33268D01*
X27983Y33259D01*
X27929Y33245D01*
X27878Y33229D01*
X27832Y33210D01*
X27788Y33192D01*
X27751Y33173D01*
X27716Y33153D01*
X27686Y33134D01*
X27661Y33116D01*
X27640Y33099D01*
X27624Y33085D01*
X27612Y33076D01*
X27605Y33069D01*
X27603Y33067D01*
X27568Y33025D01*
X27536Y32984D01*
X27508Y32937D01*
X27485Y32891D01*
X27467Y32842D01*
X27450Y32796D01*
X27436Y32750D01*
X27425Y32704D01*
X27416Y32662D01*
X27411Y32623D01*
X27406Y32588D01*
X27402Y32558D01*
X27402Y32532D01*
X27399Y32514D01*
X27399Y32498D01*
X27402Y32433D01*
X27409Y32370D01*
X27418Y32313D01*
X27432Y32259D01*
X27446Y32208D01*
X27464Y32162D01*
X27483Y32118D01*
X27501Y32081D01*
X27520Y32046D01*
X27538Y32016D01*
X27557Y31991D01*
X27571Y31970D01*
X27585Y31952D01*
X27594Y31940D01*
X27601Y31933D01*
X27603Y31931D01*
X27642Y31894D01*
X27686Y31861D01*
X27733Y31834D01*
X27779Y31810D01*
X27825Y31790D01*
X27871Y31773D01*
X27918Y31760D01*
X27962Y31748D01*
X28006Y31741D01*
X28043Y31734D01*
X28077Y31729D01*
X28107Y31725D01*
X28133Y31725D01*
X28151Y31723D01*
X28168Y31723D01*
X28232Y31725D01*
X28295Y31732D01*
X28355Y31741D01*
X28408Y31755D01*
X28459Y31771D01*
X28505Y31790D01*
X28547Y31808D01*
X28586Y31827D01*
X28621Y31845D01*
X28651Y31866D01*
X28677Y31882D01*
X28698Y31898D01*
X28714Y31912D01*
X28725Y31922D01*
X28732Y31928D01*
X28735Y31931D01*
X28772Y31972D01*
X28802Y32016D01*
X28829Y32060D01*
X28853Y32109D01*
X28873Y32155D01*
X28890Y32204D01*
X28903Y32248D01*
X28915Y32294D01*
X28924Y32336D01*
X28929Y32375D01*
X28934Y32410D01*
X28938Y32440D01*
X28938Y32463D01*
X28941Y32481D01*
X28941Y31753D01*
X28941Y33277D01*
X28941Y33277D02*
G37*
G36*
X25643Y33247D02*
X25289Y33247D01*
X25289Y32389D01*
X24741Y33247D01*
X24978Y33247D01*
X24280Y33247D01*
X24280Y31753D01*
X24634Y31753D01*
X24634Y32778D01*
X25271Y31753D01*
X25643Y31753D01*
X25643Y33247D01*
X25643Y33247D02*
G37*
G36*
X19092Y33247D02*
X18198Y33247D01*
X18697Y33247D01*
X18333Y32192D01*
X17970Y33247D01*
X17567Y33247D01*
X18114Y31753D01*
X18544Y31753D01*
X19092Y33247D01*
X19092Y33247D01*
X19092Y33247D02*
G37*
G36*
X16383Y33247D02*
X15061Y33247D01*
X15061Y32958D01*
X15529Y32958D01*
X15529Y31753D01*
X15915Y31753D01*
X15915Y32958D01*
X16383Y32958D01*
X16383Y31771D01*
X16383Y33247D01*
X16383Y33247D02*
G37*
G36*
X30676Y33247D02*
X29234Y33247D01*
X29234Y31753D01*
X29621Y31753D01*
X29621Y32301D01*
X29794Y32301D01*
X30202Y31753D01*
X30676Y31753D01*
X30176Y32391D01*
X30227Y32419D01*
X30269Y32447D01*
X30308Y32477D01*
X30338Y32505D01*
X30361Y32528D01*
X30380Y32549D01*
X30389Y32560D01*
X30394Y32565D01*
X30419Y32606D01*
X30440Y32653D01*
X30454Y32697D01*
X30463Y32741D01*
X30468Y32778D01*
X30470Y32794D01*
X30472Y32808D01*
X30472Y32819D01*
X30472Y32829D01*
X30472Y32833D01*
X30472Y32836D01*
X30470Y32879D01*
X30465Y32917D01*
X30456Y32951D01*
X30447Y32981D01*
X30438Y33004D01*
X30428Y33021D01*
X30424Y33030D01*
X30421Y33035D01*
X30403Y33065D01*
X30380Y33090D01*
X30357Y33111D01*
X30336Y33132D01*
X30317Y33146D01*
X30301Y33157D01*
X30292Y33164D01*
X30287Y33166D01*
X30255Y33183D01*
X30225Y33196D01*
X30195Y33208D01*
X30167Y33217D01*
X30141Y33224D01*
X30123Y33229D01*
X30111Y33231D01*
X30107Y33231D01*
X30070Y33236D01*
X30030Y33240D01*
X29993Y33243D01*
X29959Y33245D01*
X29926Y33247D01*
X30676Y33247D01*
X30676Y33247D01*
X30676Y33247D02*
G37*
G36*
X23959Y33247D02*
X22876Y33247D01*
X22876Y31753D01*
X23959Y31753D01*
X23959Y33247D01*
X23959Y33247D02*
G37*
G36*
X20388Y33247D02*
X19305Y33247D01*
X19305Y31753D01*
X20388Y31753D01*
X20388Y33247D01*
X20388Y33247D02*
G37*
G36*
X17422Y33247D02*
X16545Y33247D01*
X16545Y32981D01*
X16790Y32981D01*
X16790Y32019D01*
X16545Y32019D01*
X16545Y31753D01*
X17422Y31753D01*
X17422Y33247D01*
X17422Y33247D02*
G37*
G36*
X14897Y33247D02*
X14020Y33247D01*
X14020Y32981D01*
X14266Y32981D01*
X14266Y32019D01*
X14020Y32019D01*
X14020Y31753D01*
X14897Y31753D01*
X14897Y33247D01*
X14897Y33247D02*
G37*
G36*
X12387Y33247D02*
X10836Y33247D01*
X10836Y33247D01*
X11387Y33247D01*
X10836Y31753D01*
X11225Y31753D01*
X11329Y32053D01*
X11880Y32053D01*
X11984Y31753D01*
X12387Y31753D01*
X11834Y33247D01*
X12387Y33247D01*
X12387Y33247D01*
X12387Y33247D02*
G37*
G36*
X10730Y33247D02*
X9494Y33247D01*
X9494Y31753D01*
X9881Y31753D01*
X9881Y32239D01*
X10119Y32239D01*
X10177Y32241D01*
X10230Y32245D01*
X10279Y32252D01*
X10318Y32262D01*
X10348Y32269D01*
X10373Y32276D01*
X10380Y32278D01*
X10387Y32280D01*
X10390Y32282D01*
X10392Y32282D01*
X10434Y32301D01*
X10471Y32324D01*
X10505Y32345D01*
X10535Y32368D01*
X10559Y32387D01*
X10577Y32403D01*
X10589Y32412D01*
X10593Y32417D01*
X10616Y32442D01*
X10637Y32470D01*
X10653Y32495D01*
X10667Y32521D01*
X10679Y32544D01*
X10686Y32560D01*
X10690Y32572D01*
X10693Y32576D01*
X10704Y32613D01*
X10714Y32648D01*
X10721Y32680D01*
X10725Y32711D01*
X10727Y32736D01*
X10730Y32757D01*
X10730Y32773D01*
X10727Y32819D01*
X10723Y32863D01*
X10714Y32900D01*
X10707Y32933D01*
X10697Y32958D01*
X10688Y32979D01*
X10684Y32991D01*
X10681Y32995D01*
X10660Y33028D01*
X10640Y33058D01*
X10616Y33083D01*
X10593Y33106D01*
X10572Y33125D01*
X10556Y33136D01*
X10547Y33146D01*
X10542Y33148D01*
X10515Y33164D01*
X10485Y33180D01*
X10454Y33192D01*
X10429Y33203D01*
X10404Y33210D01*
X10385Y33217D01*
X10373Y33222D01*
X10369Y33222D01*
X10332Y33231D01*
X10290Y33236D01*
X10251Y33240D01*
X10211Y33245D01*
X10179Y33245D01*
X10151Y33247D01*
X10730Y33247D01*
X10730Y33247D02*
G37*
G36*
X9281Y33247D02*
X7731Y33247D01*
X8282Y33247D01*
X7731Y31753D01*
X8596Y31753D01*
X8120Y31753D01*
X8224Y32053D01*
X8775Y32053D01*
X8879Y31753D01*
X9281Y31753D01*
X8728Y33247D01*
X9281Y33247D01*
X9281Y33247D02*
G37*
G36*
X13805Y33277D02*
X12514Y33277D01*
X12514Y33277D01*
X13275Y33277D01*
X13213Y33275D01*
X13155Y33268D01*
X13102Y33259D01*
X13055Y33250D01*
X13034Y33245D01*
X13016Y33240D01*
X13000Y33236D01*
X12986Y33231D01*
X12974Y33227D01*
X12967Y33224D01*
X12963Y33222D01*
X12960Y33222D01*
X12910Y33201D01*
X12863Y33176D01*
X12822Y33150D01*
X12787Y33125D01*
X12759Y33104D01*
X12738Y33085D01*
X12724Y33074D01*
X12722Y33072D01*
X12720Y33069D01*
X12685Y33028D01*
X12653Y32986D01*
X12625Y32944D01*
X12604Y32905D01*
X12588Y32870D01*
X12581Y32856D01*
X12574Y32845D01*
X12569Y32833D01*
X12567Y32826D01*
X12565Y32822D01*
X12565Y32819D01*
X12549Y32764D01*
X12535Y32708D01*
X12525Y32655D01*
X12521Y32604D01*
X12516Y32562D01*
X12516Y32544D01*
X12514Y32528D01*
X12514Y32498D01*
X12516Y32428D01*
X12523Y32363D01*
X12532Y32306D01*
X12542Y32257D01*
X12546Y32236D01*
X12551Y32215D01*
X12555Y32199D01*
X12560Y32185D01*
X12565Y32174D01*
X12567Y32167D01*
X12569Y32162D01*
X12569Y32160D01*
X12593Y32107D01*
X12618Y32060D01*
X12643Y32019D01*
X12669Y31984D01*
X12690Y31956D01*
X12708Y31935D01*
X12720Y31922D01*
X12724Y31919D01*
X12724Y31917D01*
X12764Y31882D01*
X12805Y31852D01*
X12847Y31829D01*
X12884Y31808D01*
X12916Y31792D01*
X12944Y31780D01*
X12953Y31776D01*
X12960Y31773D01*
X12965Y31771D01*
X12967Y31771D01*
X13021Y31755D01*
X13076Y31743D01*
X13127Y31734D01*
X13173Y31729D01*
X13215Y31725D01*
X13231Y31725D01*
X13247Y31723D01*
X13314Y31723D01*
X13351Y31725D01*
X13382Y31727D01*
X13405Y31729D01*
X13426Y31729D01*
X13439Y31732D01*
X13449Y31734D01*
X13451Y31734D01*
X13500Y31743D01*
X13523Y31748D01*
X13546Y31753D01*
X13562Y31757D01*
X13578Y31762D01*
X13588Y31764D01*
X13590Y31764D01*
X13629Y31776D01*
X13648Y31783D01*
X13664Y31790D01*
X13678Y31794D01*
X13687Y31799D01*
X13694Y31801D01*
X13696Y31801D01*
X13736Y31820D01*
X13754Y31827D01*
X13770Y31834D01*
X13784Y31841D01*
X13796Y31845D01*
X13803Y31850D01*
X13805Y31850D01*
X13805Y33153D01*
X13773Y33166D01*
X13740Y33180D01*
X13729Y33185D01*
X13717Y33190D01*
X13710Y33194D01*
X13708Y33194D01*
X13666Y33213D01*
X13645Y33220D01*
X13627Y33227D01*
X13608Y33231D01*
X13597Y33236D01*
X13588Y33238D01*
X13585Y33238D01*
X13537Y33250D01*
X13513Y33254D01*
X13493Y33259D01*
X13474Y33261D01*
X13460Y33264D01*
X13451Y33266D01*
X13446Y33266D01*
X13389Y33273D01*
X13358Y33275D01*
X13333Y33275D01*
X13310Y33277D01*
X13805Y33277D01*
X13805Y33277D02*
G37*
G36*
X7615Y33277D02*
X6324Y33277D01*
X6324Y33277D01*
X7085Y33277D01*
X7023Y33275D01*
X6965Y33268D01*
X6912Y33259D01*
X6866Y33250D01*
X6845Y33245D01*
X6826Y33240D01*
X6810Y33236D01*
X6796Y33231D01*
X6785Y33227D01*
X6778Y33224D01*
X6773Y33222D01*
X6771Y33222D01*
X6720Y33201D01*
X6673Y33176D01*
X6632Y33150D01*
X6597Y33125D01*
X6569Y33104D01*
X6549Y33085D01*
X6535Y33074D01*
X6532Y33072D01*
X6530Y33069D01*
X6495Y33028D01*
X6463Y32986D01*
X6435Y32944D01*
X6414Y32905D01*
X6398Y32870D01*
X6391Y32856D01*
X6384Y32845D01*
X6380Y32833D01*
X6377Y32826D01*
X6375Y32822D01*
X6375Y32819D01*
X6359Y32764D01*
X6345Y32708D01*
X6336Y32655D01*
X6331Y32604D01*
X6326Y32562D01*
X6326Y32544D01*
X6324Y32528D01*
X6324Y32498D01*
X6326Y32428D01*
X6333Y32363D01*
X6343Y32306D01*
X6352Y32257D01*
X6356Y32236D01*
X6361Y32215D01*
X6366Y32199D01*
X6370Y32185D01*
X6375Y32174D01*
X6377Y32167D01*
X6380Y32162D01*
X6380Y32160D01*
X6403Y32107D01*
X6428Y32060D01*
X6454Y32019D01*
X6479Y31984D01*
X6500Y31956D01*
X6518Y31935D01*
X6530Y31922D01*
X6535Y31919D01*
X6535Y31917D01*
X6574Y31882D01*
X6616Y31852D01*
X6657Y31829D01*
X6694Y31808D01*
X6727Y31792D01*
X6754Y31780D01*
X6764Y31776D01*
X6771Y31773D01*
X6775Y31771D01*
X6778Y31771D01*
X6831Y31755D01*
X6886Y31743D01*
X6937Y31734D01*
X6984Y31729D01*
X7025Y31725D01*
X7041Y31725D01*
X7058Y31723D01*
X7125Y31723D01*
X7162Y31725D01*
X7192Y31727D01*
X7215Y31729D01*
X7236Y31729D01*
X7250Y31732D01*
X7259Y31734D01*
X7261Y31734D01*
X7310Y31743D01*
X7333Y31748D01*
X7356Y31753D01*
X7372Y31757D01*
X7388Y31762D01*
X7398Y31764D01*
X7400Y31764D01*
X7439Y31776D01*
X7458Y31783D01*
X7474Y31790D01*
X7488Y31794D01*
X7497Y31799D01*
X7504Y31801D01*
X7506Y31801D01*
X7546Y31820D01*
X7564Y31827D01*
X7581Y31834D01*
X7594Y31841D01*
X7606Y31845D01*
X7613Y31850D01*
X7615Y31850D01*
X7615Y33153D01*
X7583Y33166D01*
X7550Y33180D01*
X7539Y33185D01*
X7527Y33190D01*
X7520Y33194D01*
X7518Y33194D01*
X7476Y33213D01*
X7456Y33220D01*
X7437Y33227D01*
X7419Y33231D01*
X7407Y33236D01*
X7398Y33238D01*
X7395Y33238D01*
X7347Y33250D01*
X7324Y33254D01*
X7303Y33259D01*
X7284Y33261D01*
X7270Y33264D01*
X7261Y33266D01*
X7257Y33266D01*
X7199Y33273D01*
X7169Y33275D01*
X7143Y33275D01*
X7120Y33277D01*
X7615Y33277D01*
X7615Y33277D02*
G37*
%LPD*%
G36*
X28221Y32991D02*
X28246Y32986D01*
X28267Y32981D01*
X28283Y32977D01*
X28297Y32972D01*
X28306Y32970D01*
X28309Y32967D01*
X28334Y32956D01*
X28355Y32942D01*
X28376Y32928D01*
X28392Y32914D01*
X28408Y32900D01*
X28418Y32889D01*
X28424Y32882D01*
X28427Y32879D01*
X28445Y32856D01*
X28462Y32831D01*
X28475Y32805D01*
X28487Y32782D01*
X28496Y32759D01*
X28503Y32743D01*
X28505Y32731D01*
X28508Y32727D01*
X28519Y32690D01*
X28526Y32653D01*
X28533Y32613D01*
X28536Y32579D01*
X28538Y32546D01*
X28540Y32523D01*
X28540Y32514D01*
X28540Y32507D01*
X28540Y32502D01*
X28540Y32500D01*
X28540Y32454D01*
X28536Y32414D01*
X28531Y32377D01*
X28526Y32345D01*
X28522Y32320D01*
X28517Y32299D01*
X28515Y32287D01*
X28512Y32283D01*
X28501Y32250D01*
X28487Y32218D01*
X28473Y32190D01*
X28462Y32167D01*
X28448Y32148D01*
X28438Y32132D01*
X28431Y32123D01*
X28429Y32121D01*
X28411Y32100D01*
X28390Y32081D01*
X28369Y32067D01*
X28350Y32053D01*
X28334Y32044D01*
X28323Y32037D01*
X28313Y32035D01*
X28311Y32033D01*
X28286Y32023D01*
X28260Y32016D01*
X28237Y32012D01*
X28216Y32009D01*
X28198Y32007D01*
X28182Y32005D01*
X28170Y32005D01*
X28142Y32007D01*
X28117Y32009D01*
X28091Y32014D01*
X28070Y32019D01*
X28052Y32023D01*
X28038Y32028D01*
X28029Y32033D01*
X28027Y32033D01*
X28003Y32044D01*
X27980Y32058D01*
X27959Y32072D01*
X27943Y32086D01*
X27929Y32097D01*
X27920Y32109D01*
X27913Y32116D01*
X27911Y32118D01*
X27892Y32141D01*
X27876Y32167D01*
X27862Y32192D01*
X27851Y32218D01*
X27841Y32239D01*
X27834Y32255D01*
X27832Y32266D01*
X27830Y32271D01*
X27821Y32308D01*
X27814Y32347D01*
X27807Y32384D01*
X27804Y32419D01*
X27802Y32451D01*
X27800Y32475D01*
X27800Y32486D01*
X27800Y32493D01*
X27800Y32495D01*
X27800Y32498D01*
X27802Y32546D01*
X27804Y32590D01*
X27809Y32627D01*
X27816Y32662D01*
X27821Y32690D01*
X27825Y32711D01*
X27827Y32722D01*
X27830Y32727D01*
X27844Y32761D01*
X27858Y32794D01*
X27871Y32819D01*
X27883Y32842D01*
X27895Y32859D01*
X27904Y32873D01*
X27911Y32879D01*
X27913Y32882D01*
X27934Y32903D01*
X27955Y32921D01*
X27973Y32935D01*
X27992Y32947D01*
X28008Y32956D01*
X28020Y32963D01*
X28029Y32967D01*
X28031Y32967D01*
X28057Y32977D01*
X28080Y32984D01*
X28103Y32988D01*
X28126Y32993D01*
X28142Y32993D01*
X28158Y32995D01*
X28198Y32995D01*
X28221Y32991D01*
X28221Y32991D02*
G37*
G36*
X29827Y32970D02*
X29857Y32970D01*
X29868Y32967D01*
X29878Y32967D01*
X29915Y32963D01*
X29931Y32960D01*
X29945Y32956D01*
X29954Y32954D01*
X29963Y32951D01*
X29968Y32949D01*
X29970Y32949D01*
X29989Y32940D01*
X30005Y32928D01*
X30019Y32919D01*
X30030Y32907D01*
X30040Y32898D01*
X30044Y32891D01*
X30049Y32886D01*
X30049Y32884D01*
X30063Y32852D01*
X30070Y32822D01*
X30072Y32810D01*
X30072Y32799D01*
X30072Y32792D01*
X30072Y32789D01*
X30072Y32766D01*
X30070Y32748D01*
X30067Y32729D01*
X30063Y32715D01*
X30060Y32704D01*
X30056Y32694D01*
X30054Y32690D01*
X30054Y32687D01*
X30037Y32662D01*
X30016Y32641D01*
X30007Y32632D01*
X30000Y32625D01*
X29996Y32623D01*
X29993Y32620D01*
X29959Y32600D01*
X29926Y32588D01*
X29912Y32583D01*
X29901Y32581D01*
X29892Y32579D01*
X29889Y32579D01*
X29866Y32576D01*
X29841Y32574D01*
X29815Y32574D01*
X29790Y32572D01*
X29621Y32572D01*
X29621Y32972D01*
X29806Y32972D01*
X29827Y32970D01*
X29827Y32970D02*
G37*
G36*
X23959Y32042D02*
X23262Y32042D01*
X23262Y32412D01*
X23908Y32412D01*
X23908Y32701D01*
X23262Y32701D01*
X23262Y32958D01*
X23959Y32958D01*
X23959Y32042D01*
X23959Y32042D02*
G37*
G36*
X20388Y32042D02*
X19692Y32042D01*
X19692Y32412D01*
X20337Y32412D01*
X20337Y32701D01*
X19692Y32701D01*
X19692Y32958D01*
X20388Y32958D01*
X20388Y32042D01*
X20388Y32042D02*
G37*
G36*
X17422Y32019D02*
X17176Y32019D01*
X17176Y32981D01*
X17422Y32981D01*
X17422Y32019D01*
X17422Y32019D02*
G37*
G36*
X14897Y32019D02*
X14652Y32019D01*
X14652Y32981D01*
X14897Y32981D01*
X14897Y32019D01*
X14897Y32019D02*
G37*
G36*
X11787Y32329D02*
X11422Y32329D01*
X11604Y32856D01*
X11787Y32329D01*
X11787Y32329D02*
G37*
G36*
X10036Y32965D02*
X10075Y32965D01*
X10087Y32963D01*
X10098Y32963D01*
X10142Y32958D01*
X10161Y32954D01*
X10179Y32949D01*
X10193Y32944D01*
X10207Y32942D01*
X10214Y32937D01*
X10216Y32937D01*
X10232Y32930D01*
X10246Y32919D01*
X10272Y32898D01*
X10281Y32889D01*
X10288Y32879D01*
X10292Y32875D01*
X10295Y32873D01*
X10306Y32856D01*
X10316Y32838D01*
X10320Y32819D01*
X10325Y32803D01*
X10327Y32789D01*
X10329Y32778D01*
X10329Y32768D01*
X10329Y32766D01*
X10329Y32743D01*
X10327Y32722D01*
X10325Y32704D01*
X10320Y32687D01*
X10318Y32674D01*
X10313Y32664D01*
X10311Y32657D01*
X10311Y32655D01*
X10295Y32625D01*
X10279Y32599D01*
X10269Y32590D01*
X10265Y32586D01*
X10260Y32581D01*
X10258Y32579D01*
X10223Y32558D01*
X10188Y32542D01*
X10174Y32537D01*
X10163Y32535D01*
X10154Y32532D01*
X10151Y32532D01*
X10126Y32528D01*
X10100Y32525D01*
X10073Y32523D01*
X10047Y32523D01*
X10024Y32521D01*
X9881Y32521D01*
X9881Y32967D01*
X10010Y32967D01*
X10036Y32965D01*
X10036Y32965D02*
G37*
G36*
X8682Y32329D02*
X8316Y32329D01*
X8499Y32856D01*
X8682Y32329D01*
X8682Y32329D02*
G37*
G36*
X13389Y32984D02*
X13412Y32981D01*
X13432Y32977D01*
X13449Y32972D01*
X13460Y32970D01*
X13469Y32965D01*
X13472Y32965D01*
X13518Y32947D01*
X13539Y32937D01*
X13557Y32928D01*
X13571Y32921D01*
X13583Y32914D01*
X13590Y32912D01*
X13592Y32910D01*
X13629Y32886D01*
X13645Y32875D01*
X13659Y32866D01*
X13671Y32856D01*
X13680Y32852D01*
X13685Y32847D01*
X13687Y32845D01*
X13717Y32822D01*
X13740Y32805D01*
X13747Y32799D01*
X13754Y32794D01*
X13756Y32789D01*
X13805Y32789D01*
X13805Y32208D01*
X13763Y32208D01*
X13740Y32188D01*
X13719Y32169D01*
X13708Y32162D01*
X13701Y32155D01*
X13696Y32153D01*
X13694Y32151D01*
X13662Y32127D01*
X13634Y32107D01*
X13622Y32100D01*
X13613Y32093D01*
X13606Y32090D01*
X13604Y32088D01*
X13560Y32065D01*
X13539Y32056D01*
X13518Y32046D01*
X13502Y32042D01*
X13488Y32037D01*
X13479Y32033D01*
X13476Y32033D01*
X13426Y32021D01*
X13402Y32016D01*
X13382Y32014D01*
X13363Y32014D01*
X13349Y32012D01*
X13338Y32012D01*
X13282Y32016D01*
X13257Y32019D01*
X13236Y32023D01*
X13215Y32028D01*
X13201Y32030D01*
X13192Y32035D01*
X13187Y32035D01*
X13159Y32044D01*
X13134Y32058D01*
X13113Y32070D01*
X13092Y32083D01*
X13076Y32095D01*
X13065Y32104D01*
X13055Y32111D01*
X13053Y32114D01*
X13032Y32134D01*
X13011Y32160D01*
X12995Y32183D01*
X12981Y32208D01*
X12970Y32229D01*
X12960Y32245D01*
X12956Y32257D01*
X12953Y32262D01*
X12940Y32299D01*
X12930Y32338D01*
X12923Y32377D01*
X12919Y32414D01*
X12916Y32447D01*
X12914Y32472D01*
X12914Y32481D01*
X12914Y32488D01*
X12914Y32493D01*
X12914Y32495D01*
X12916Y32544D01*
X12919Y32588D01*
X12926Y32627D01*
X12933Y32662D01*
X12937Y32687D01*
X12944Y32708D01*
X12947Y32720D01*
X12949Y32724D01*
X12963Y32759D01*
X12979Y32789D01*
X12995Y32815D01*
X13011Y32836D01*
X13025Y32854D01*
X13037Y32866D01*
X13044Y32875D01*
X13046Y32877D01*
X13069Y32898D01*
X13092Y32914D01*
X13115Y32928D01*
X13136Y32940D01*
X13155Y32949D01*
X13169Y32956D01*
X13178Y32960D01*
X13180Y32960D01*
X13208Y32970D01*
X13236Y32977D01*
X13261Y32981D01*
X13287Y32986D01*
X13305Y32986D01*
X13321Y32988D01*
X13335Y32988D01*
X13389Y32984D01*
X13389Y32984D02*
G37*
G36*
X7199Y32984D02*
X7222Y32981D01*
X7243Y32977D01*
X7259Y32972D01*
X7270Y32970D01*
X7280Y32965D01*
X7282Y32965D01*
X7328Y32947D01*
X7349Y32937D01*
X7368Y32928D01*
X7382Y32921D01*
X7393Y32914D01*
X7400Y32912D01*
X7402Y32910D01*
X7439Y32886D01*
X7456Y32875D01*
X7469Y32866D01*
X7481Y32856D01*
X7490Y32852D01*
X7495Y32847D01*
X7497Y32845D01*
X7527Y32822D01*
X7550Y32805D01*
X7557Y32799D01*
X7564Y32794D01*
X7567Y32789D01*
X7615Y32789D01*
X7615Y32208D01*
X7574Y32208D01*
X7550Y32188D01*
X7530Y32169D01*
X7518Y32162D01*
X7511Y32155D01*
X7506Y32153D01*
X7504Y32151D01*
X7472Y32127D01*
X7444Y32107D01*
X7432Y32100D01*
X7423Y32093D01*
X7416Y32090D01*
X7414Y32088D01*
X7370Y32065D01*
X7349Y32056D01*
X7328Y32046D01*
X7312Y32042D01*
X7298Y32037D01*
X7289Y32033D01*
X7287Y32033D01*
X7236Y32021D01*
X7213Y32016D01*
X7192Y32014D01*
X7173Y32014D01*
X7159Y32012D01*
X7148Y32012D01*
X7092Y32016D01*
X7067Y32019D01*
X7046Y32023D01*
X7025Y32028D01*
X7011Y32030D01*
X7002Y32035D01*
X6997Y32035D01*
X6970Y32044D01*
X6944Y32058D01*
X6923Y32070D01*
X6903Y32083D01*
X6886Y32095D01*
X6875Y32104D01*
X6866Y32111D01*
X6863Y32114D01*
X6842Y32134D01*
X6822Y32160D01*
X6805Y32183D01*
X6791Y32208D01*
X6780Y32229D01*
X6771Y32245D01*
X6766Y32257D01*
X6764Y32262D01*
X6750Y32299D01*
X6741Y32338D01*
X6734Y32377D01*
X6729Y32414D01*
X6727Y32447D01*
X6724Y32472D01*
X6724Y32481D01*
X6724Y32488D01*
X6724Y32493D01*
X6724Y32495D01*
X6727Y32544D01*
X6729Y32588D01*
X6736Y32627D01*
X6743Y32662D01*
X6747Y32687D01*
X6754Y32708D01*
X6757Y32720D01*
X6759Y32724D01*
X6773Y32759D01*
X6789Y32789D01*
X6805Y32815D01*
X6822Y32836D01*
X6835Y32854D01*
X6847Y32866D01*
X6854Y32875D01*
X6856Y32877D01*
X6879Y32898D01*
X6903Y32914D01*
X6926Y32928D01*
X6946Y32940D01*
X6965Y32949D01*
X6979Y32956D01*
X6988Y32960D01*
X6990Y32960D01*
X7018Y32970D01*
X7046Y32977D01*
X7071Y32981D01*
X7097Y32986D01*
X7115Y32986D01*
X7132Y32988D01*
X7146Y32988D01*
X7199Y32984D01*
X7199Y32984D02*
G37*
%LPC*%
G36*
X12333Y28998D02*
X12320Y28998D01*
X12299Y28994D01*
X12278Y28991D01*
X12254Y28980D01*
X12226Y28970D01*
X12198Y28952D01*
X12174Y28928D01*
X12170Y28925D01*
X12163Y28914D01*
X12153Y28900D01*
X12139Y28883D01*
X12125Y28859D01*
X12115Y28831D01*
X12108Y28800D01*
X12104Y28765D01*
X12104Y28761D01*
X12104Y28748D01*
X12108Y28730D01*
X12111Y28709D01*
X12122Y28682D01*
X12132Y28654D01*
X12149Y28626D01*
X12170Y28598D01*
X12174Y28595D01*
X12181Y28588D01*
X12198Y28577D01*
X12215Y28567D01*
X12240Y28553D01*
X12267Y28543D01*
X12299Y28536D01*
X12333Y28532D01*
X12351Y28532D01*
X12368Y28536D01*
X12389Y28539D01*
X12413Y28550D01*
X12441Y28560D01*
X12469Y28577D01*
X12493Y28598D01*
X12497Y28602D01*
X12504Y28612D01*
X12514Y28626D01*
X12528Y28647D01*
X12538Y28671D01*
X12549Y28699D01*
X12556Y28730D01*
X12559Y28765D01*
X12559Y28768D01*
X12559Y28782D01*
X12556Y28800D01*
X12552Y28820D01*
X12542Y28845D01*
X12531Y28873D01*
X12514Y28900D01*
X12493Y28928D01*
X12490Y28932D01*
X12483Y28939D01*
X12469Y28949D01*
X12448Y28963D01*
X12424Y28977D01*
X12399Y28987D01*
X12368Y28994D01*
X12333Y28998D01*
X12333Y28998D02*
G37*
%LPD*%
G36*
X12382Y28921D02*
X12406Y28914D01*
X12427Y28904D01*
X12445Y28886D01*
X12458Y28866D01*
X12462Y28834D01*
X12462Y28831D01*
X12462Y28824D01*
X12458Y28810D01*
X12451Y28796D01*
X12441Y28779D01*
X12427Y28765D01*
X12406Y28754D01*
X12379Y28748D01*
X12465Y28605D01*
X12413Y28605D01*
X12330Y28741D01*
X12271Y28741D01*
X12271Y28605D01*
X12226Y28605D01*
X12226Y28925D01*
X12365Y28925D01*
X12382Y28921D01*
X12382Y28921D02*
G37*
%LPC*%
G36*
X12337Y28883D02*
X12271Y28883D01*
X12271Y28782D01*
X12333Y28782D01*
X12340Y28786D01*
X12354Y28789D01*
X12368Y28793D01*
X12382Y28800D01*
X12396Y28810D01*
X12403Y28820D01*
X12406Y28834D01*
X12406Y28838D01*
X12406Y28841D01*
X12399Y28859D01*
X12389Y28869D01*
X12379Y28876D01*
X12361Y28879D01*
X12337Y28883D01*
X12337Y28883D02*
G37*
G36*
X9549Y28348D02*
X9545Y28348D01*
X9528Y28345D01*
X9507Y28341D01*
X9476Y28327D01*
X9441Y28310D01*
X9399Y28282D01*
X9358Y28244D01*
X9337Y28220D01*
X9316Y28192D01*
X8875Y27570D01*
X10205Y25484D01*
X10205Y25480D01*
X10212Y25477D01*
X10226Y25452D01*
X10250Y25425D01*
X10278Y25390D01*
X10313Y25352D01*
X10347Y25324D01*
X10382Y25300D01*
X10396Y25296D01*
X10413Y25293D01*
X10420Y25293D01*
X10438Y25296D01*
X10462Y25300D01*
X10497Y25310D01*
X10531Y25327D01*
X10573Y25352D01*
X10611Y25386D01*
X10646Y25432D01*
X11108Y26098D01*
X9788Y28182D01*
X9788Y28185D01*
X9785Y28189D01*
X9771Y28209D01*
X9747Y28234D01*
X9719Y28265D01*
X9684Y28296D01*
X9642Y28324D01*
X9597Y28341D01*
X9573Y28345D01*
X9549Y28348D01*
X9549Y28348D02*
G37*
G36*
X28614Y27161D02*
X27899Y27161D01*
X27899Y26695D01*
X28656Y26695D01*
X28670Y26699D01*
X28687Y26706D01*
X28712Y26720D01*
X28736Y26744D01*
X28746Y26761D01*
X28753Y26779D01*
X28764Y26803D01*
X28767Y26827D01*
X28774Y26859D01*
X28774Y26893D01*
X28774Y26966D01*
X28774Y26970D01*
X28774Y26973D01*
X28771Y26998D01*
X28767Y27029D01*
X28753Y27064D01*
X28736Y27098D01*
X28708Y27130D01*
X28667Y27154D01*
X28642Y27157D01*
X28614Y27161D01*
X28614Y27161D02*
G37*
G36*
X20330Y27161D02*
X19615Y27161D01*
X19615Y26709D01*
X20344Y26709D01*
X20358Y26713D01*
X20372Y26716D01*
X20406Y26727D01*
X20424Y26737D01*
X20437Y26751D01*
X20441Y26755D01*
X20444Y26758D01*
X20451Y26772D01*
X20458Y26786D01*
X20465Y26807D01*
X20469Y26834D01*
X20476Y26869D01*
X20476Y26907D01*
X20476Y26966D01*
X20476Y26973D01*
X20476Y26987D01*
X20472Y27011D01*
X20469Y27036D01*
X20462Y27067D01*
X20451Y27095D01*
X20437Y27119D01*
X20420Y27136D01*
X20413Y27140D01*
X20406Y27143D01*
X20392Y27150D01*
X20375Y27154D01*
X20354Y27157D01*
X20330Y27161D01*
X20330Y27161D02*
G37*
G36*
X22191Y27168D02*
X21712Y27168D01*
X21684Y27161D01*
X21653Y27154D01*
X21615Y27140D01*
X21580Y27119D01*
X21549Y27088D01*
X21524Y27050D01*
X21524Y27046D01*
X21517Y27036D01*
X21514Y27015D01*
X21507Y26987D01*
X21500Y26952D01*
X21497Y26907D01*
X21490Y26855D01*
X21490Y26793D01*
X21490Y26595D01*
X21490Y26591D01*
X21490Y26584D01*
X21490Y26570D01*
X21490Y26557D01*
X21493Y26511D01*
X21497Y26463D01*
X21507Y26407D01*
X21517Y26355D01*
X21535Y26310D01*
X21545Y26293D01*
X21556Y26275D01*
X21559Y26272D01*
X21566Y26268D01*
X21576Y26258D01*
X21594Y26248D01*
X21615Y26237D01*
X21642Y26230D01*
X21677Y26223D01*
X21715Y26220D01*
X22222Y26220D01*
X22240Y26223D01*
X22267Y26227D01*
X22299Y26234D01*
X22330Y26251D01*
X22365Y26272D01*
X22392Y26300D01*
X22413Y26341D01*
X22413Y26345D01*
X22417Y26355D01*
X22420Y26373D01*
X22427Y26397D01*
X22431Y26432D01*
X22434Y26477D01*
X22437Y26529D01*
X22437Y26595D01*
X22437Y26793D01*
X22437Y26796D01*
X22437Y26803D01*
X22437Y26814D01*
X22437Y26827D01*
X22434Y26866D01*
X22431Y26907D01*
X22424Y26956D01*
X22413Y27005D01*
X22399Y27050D01*
X22378Y27084D01*
X22375Y27088D01*
X22368Y27098D01*
X22354Y27112D01*
X22333Y27126D01*
X22306Y27140D01*
X22274Y27154D01*
X22236Y27164D01*
X22191Y27168D01*
X22191Y27168D02*
G37*
G36*
X27744Y3177D02*
X27744Y2122D01*
X27740Y2178D01*
X27730Y2226D01*
X27719Y2270D01*
X27703Y2307D01*
X27686Y2335D01*
X27675Y2356D01*
X27666Y2370D01*
X27661Y2375D01*
X27626Y2409D01*
X27587Y2439D01*
X27545Y2465D01*
X27504Y2488D01*
X27467Y2504D01*
X27448Y2511D01*
X27434Y2518D01*
X27423Y2523D01*
X27413Y2525D01*
X27409Y2527D01*
X27406Y2527D01*
X27374Y2537D01*
X27344Y2546D01*
X27316Y2553D01*
X27291Y2560D01*
X27270Y2564D01*
X27256Y2569D01*
X27247Y2571D01*
X27242Y2571D01*
X27187Y2583D01*
X27159Y2590D01*
X27136Y2594D01*
X27115Y2599D01*
X27099Y2604D01*
X27089Y2606D01*
X27085Y2606D01*
X27041Y2615D01*
X27006Y2624D01*
X26976Y2634D01*
X26953Y2643D01*
X26934Y2650D01*
X26923Y2657D01*
X26916Y2659D01*
X26913Y2661D01*
X26900Y2675D01*
X26888Y2689D01*
X26881Y2705D01*
X26874Y2719D01*
X26872Y2733D01*
X26870Y2745D01*
X26870Y2752D01*
X26870Y2754D01*
X26872Y2768D01*
X26874Y2782D01*
X26883Y2803D01*
X26888Y2812D01*
X26893Y2819D01*
X26897Y2821D01*
X26897Y2823D01*
X26920Y2844D01*
X26941Y2858D01*
X26951Y2863D01*
X26957Y2867D01*
X26962Y2870D01*
X26964Y2870D01*
X26997Y2881D01*
X27027Y2891D01*
X27038Y2893D01*
X27048Y2893D01*
X27052Y2895D01*
X27055Y2895D01*
X27089Y2900D01*
X27122Y2902D01*
X27152Y2902D01*
X27203Y2900D01*
X27251Y2895D01*
X27298Y2886D01*
X27337Y2879D01*
X27372Y2870D01*
X27386Y2865D01*
X27397Y2860D01*
X27406Y2858D01*
X27413Y2856D01*
X27418Y2854D01*
X27420Y2854D01*
X27469Y2835D01*
X27510Y2814D01*
X27548Y2793D01*
X27580Y2775D01*
X27608Y2759D01*
X27626Y2745D01*
X27638Y2736D01*
X27642Y2733D01*
X27684Y2733D01*
X27684Y3076D01*
X27642Y3092D01*
X27601Y3106D01*
X27557Y3117D01*
X27517Y3129D01*
X27483Y3136D01*
X27469Y3140D01*
X27457Y3143D01*
X27446Y3145D01*
X27439Y3145D01*
X27434Y3147D01*
X27432Y3147D01*
X27379Y3157D01*
X27325Y3166D01*
X27277Y3171D01*
X27233Y3173D01*
X27196Y3175D01*
X27182Y3177D01*
X27744Y3177D01*
X26465Y3177D01*
X27143Y3177D01*
X27089Y3175D01*
X27036Y3173D01*
X26988Y3166D01*
X26941Y3157D01*
X26900Y3147D01*
X26860Y3136D01*
X26823Y3122D01*
X26791Y3110D01*
X26761Y3099D01*
X26733Y3085D01*
X26712Y3073D01*
X26694Y3064D01*
X26677Y3055D01*
X26668Y3050D01*
X26661Y3046D01*
X26659Y3043D01*
X26627Y3018D01*
X26599Y2990D01*
X26573Y2962D01*
X26553Y2935D01*
X26534Y2907D01*
X26520Y2877D01*
X26506Y2851D01*
X26497Y2823D01*
X26490Y2798D01*
X26483Y2777D01*
X26478Y2756D01*
X26476Y2738D01*
X26476Y2724D01*
X26474Y2712D01*
X26474Y2705D01*
X26474Y2703D01*
X26478Y2648D01*
X26488Y2597D01*
X26499Y2550D01*
X26515Y2513D01*
X26529Y2481D01*
X26543Y2458D01*
X26548Y2451D01*
X26553Y2444D01*
X26555Y2442D01*
X26555Y2439D01*
X26571Y2421D01*
X26590Y2402D01*
X26634Y2370D01*
X26677Y2342D01*
X26724Y2319D01*
X26763Y2300D01*
X26782Y2291D01*
X26798Y2287D01*
X26809Y2282D01*
X26819Y2277D01*
X26826Y2275D01*
X26828Y2275D01*
X26890Y2257D01*
X26920Y2247D01*
X26948Y2243D01*
X26969Y2236D01*
X26988Y2231D01*
X26999Y2229D01*
X27004Y2229D01*
X27038Y2222D01*
X27073Y2217D01*
X27103Y2210D01*
X27129Y2203D01*
X27152Y2199D01*
X27170Y2196D01*
X27180Y2192D01*
X27184Y2192D01*
X27212Y2185D01*
X27237Y2176D01*
X27256Y2166D01*
X27274Y2157D01*
X27288Y2150D01*
X27298Y2143D01*
X27302Y2139D01*
X27305Y2136D01*
X27318Y2122D01*
X27330Y2108D01*
X27337Y2095D01*
X27344Y2081D01*
X27346Y2069D01*
X27349Y2062D01*
X27349Y2055D01*
X27349Y2053D01*
X27346Y2034D01*
X27344Y2018D01*
X27339Y2004D01*
X27335Y1993D01*
X27328Y1983D01*
X27323Y1977D01*
X27321Y1974D01*
X27318Y1972D01*
X27295Y1953D01*
X27272Y1940D01*
X27263Y1933D01*
X27254Y1928D01*
X27249Y1926D01*
X27247Y1926D01*
X27217Y1916D01*
X27187Y1909D01*
X27173Y1907D01*
X27161Y1907D01*
X27154Y1905D01*
X27152Y1905D01*
X27131Y1903D01*
X27096Y1903D01*
X27085Y1900D01*
X27059Y1900D01*
X27008Y1903D01*
X26957Y1907D01*
X26909Y1916D01*
X26865Y1926D01*
X26828Y1935D01*
X26814Y1940D01*
X26800Y1944D01*
X26789Y1946D01*
X26782Y1949D01*
X26777Y1951D01*
X26775Y1951D01*
X26721Y1972D01*
X26671Y1995D01*
X26624Y2021D01*
X26585Y2044D01*
X26553Y2067D01*
X26527Y2083D01*
X26518Y2090D01*
X26511Y2095D01*
X26509Y2099D01*
X26465Y2099D01*
X26465Y1738D01*
X26555Y1706D01*
X26599Y1692D01*
X26638Y1680D01*
X26673Y1671D01*
X26698Y1664D01*
X26708Y1660D01*
X26714Y1660D01*
X26719Y1657D01*
X26721Y1657D01*
X26775Y1646D01*
X26830Y1639D01*
X26886Y1632D01*
X26937Y1629D01*
X26981Y1627D01*
X26999Y1625D01*
X27045Y1625D01*
X27103Y1627D01*
X27159Y1632D01*
X27212Y1636D01*
X27261Y1646D01*
X27307Y1657D01*
X27349Y1669D01*
X27386Y1680D01*
X27420Y1694D01*
X27450Y1706D01*
X27478Y1717D01*
X27501Y1729D01*
X27520Y1741D01*
X27536Y1750D01*
X27545Y1754D01*
X27552Y1759D01*
X27554Y1761D01*
X27587Y1789D01*
X27617Y1817D01*
X27642Y1847D01*
X27663Y1877D01*
X27682Y1907D01*
X27698Y1937D01*
X27709Y1965D01*
X27721Y1995D01*
X27728Y2021D01*
X27735Y2044D01*
X27740Y2067D01*
X27742Y2085D01*
X27742Y2102D01*
X27744Y2113D01*
X27744Y1625D01*
X27744Y1625D01*
X27744Y1625D01*
X27744Y3177D01*
X27744Y3177D02*
G37*
G36*
X23135Y3177D02*
X23135Y2122D01*
X23130Y2178D01*
X23121Y2226D01*
X23109Y2270D01*
X23093Y2307D01*
X23077Y2335D01*
X23065Y2356D01*
X23056Y2370D01*
X23052Y2375D01*
X23017Y2409D01*
X22977Y2439D01*
X22936Y2465D01*
X22894Y2488D01*
X22857Y2504D01*
X22839Y2511D01*
X22825Y2518D01*
X22813Y2523D01*
X22804Y2525D01*
X22799Y2527D01*
X22797Y2527D01*
X22765Y2537D01*
X22735Y2546D01*
X22707Y2553D01*
X22681Y2560D01*
X22660Y2564D01*
X22647Y2569D01*
X22637Y2571D01*
X22633Y2571D01*
X22577Y2583D01*
X22549Y2590D01*
X22526Y2594D01*
X22505Y2599D01*
X22489Y2604D01*
X22480Y2606D01*
X22475Y2606D01*
X22431Y2615D01*
X22397Y2624D01*
X22367Y2634D01*
X22343Y2643D01*
X22325Y2650D01*
X22313Y2657D01*
X22306Y2659D01*
X22304Y2661D01*
X22290Y2675D01*
X22279Y2689D01*
X22272Y2705D01*
X22265Y2719D01*
X22262Y2733D01*
X22260Y2745D01*
X22260Y2752D01*
X22260Y2754D01*
X22262Y2768D01*
X22265Y2782D01*
X22274Y2803D01*
X22279Y2812D01*
X22283Y2819D01*
X22288Y2821D01*
X22288Y2823D01*
X22311Y2844D01*
X22332Y2858D01*
X22341Y2863D01*
X22348Y2867D01*
X22353Y2870D01*
X22355Y2870D01*
X22387Y2881D01*
X22418Y2891D01*
X22429Y2893D01*
X22438Y2893D01*
X22443Y2895D01*
X22445Y2895D01*
X22480Y2900D01*
X22512Y2902D01*
X22542Y2902D01*
X22593Y2900D01*
X22642Y2895D01*
X22688Y2886D01*
X22728Y2879D01*
X22762Y2870D01*
X22776Y2865D01*
X22788Y2860D01*
X22797Y2858D01*
X22804Y2856D01*
X22809Y2854D01*
X22811Y2854D01*
X22859Y2835D01*
X22901Y2814D01*
X22938Y2793D01*
X22971Y2775D01*
X22998Y2759D01*
X23017Y2745D01*
X23028Y2736D01*
X23033Y2733D01*
X23075Y2733D01*
X23075Y3076D01*
X23033Y3092D01*
X22991Y3106D01*
X22947Y3117D01*
X22908Y3129D01*
X22873Y3136D01*
X22859Y3140D01*
X22848Y3143D01*
X22836Y3145D01*
X22829Y3145D01*
X22825Y3147D01*
X22822Y3147D01*
X22769Y3157D01*
X22716Y3166D01*
X22667Y3171D01*
X22623Y3173D01*
X22586Y3175D01*
X22573Y3177D01*
X23135Y3177D01*
X21855Y3177D01*
X22533Y3177D01*
X22480Y3175D01*
X22427Y3173D01*
X22378Y3166D01*
X22332Y3157D01*
X22290Y3147D01*
X22251Y3136D01*
X22214Y3122D01*
X22181Y3110D01*
X22151Y3099D01*
X22124Y3085D01*
X22103Y3073D01*
X22084Y3064D01*
X22068Y3055D01*
X22059Y3050D01*
X22052Y3046D01*
X22050Y3043D01*
X22017Y3018D01*
X21989Y2990D01*
X21964Y2962D01*
X21943Y2935D01*
X21925Y2907D01*
X21911Y2877D01*
X21897Y2851D01*
X21888Y2823D01*
X21881Y2798D01*
X21874Y2777D01*
X21869Y2756D01*
X21867Y2738D01*
X21867Y2724D01*
X21864Y2712D01*
X21864Y2705D01*
X21864Y2703D01*
X21869Y2648D01*
X21878Y2597D01*
X21890Y2550D01*
X21906Y2513D01*
X21920Y2481D01*
X21934Y2458D01*
X21939Y2451D01*
X21943Y2444D01*
X21945Y2442D01*
X21945Y2439D01*
X21962Y2421D01*
X21980Y2402D01*
X22024Y2370D01*
X22068Y2342D01*
X22114Y2319D01*
X22154Y2300D01*
X22172Y2291D01*
X22188Y2287D01*
X22200Y2282D01*
X22209Y2277D01*
X22216Y2275D01*
X22219Y2275D01*
X22281Y2257D01*
X22311Y2247D01*
X22339Y2243D01*
X22360Y2236D01*
X22378Y2231D01*
X22390Y2229D01*
X22394Y2229D01*
X22429Y2222D01*
X22464Y2217D01*
X22494Y2210D01*
X22519Y2203D01*
X22542Y2199D01*
X22561Y2196D01*
X22570Y2192D01*
X22575Y2192D01*
X22603Y2185D01*
X22628Y2176D01*
X22647Y2166D01*
X22665Y2157D01*
X22679Y2150D01*
X22688Y2143D01*
X22693Y2139D01*
X22695Y2136D01*
X22709Y2122D01*
X22721Y2108D01*
X22728Y2095D01*
X22735Y2081D01*
X22737Y2069D01*
X22739Y2062D01*
X22739Y2055D01*
X22739Y2053D01*
X22737Y2034D01*
X22735Y2018D01*
X22730Y2004D01*
X22725Y1993D01*
X22718Y1983D01*
X22714Y1977D01*
X22711Y1974D01*
X22709Y1972D01*
X22686Y1953D01*
X22663Y1940D01*
X22654Y1933D01*
X22644Y1928D01*
X22640Y1926D01*
X22637Y1926D01*
X22607Y1916D01*
X22577Y1909D01*
X22563Y1907D01*
X22552Y1907D01*
X22545Y1905D01*
X22542Y1905D01*
X22522Y1903D01*
X22487Y1903D01*
X22475Y1900D01*
X22450Y1900D01*
X22399Y1903D01*
X22348Y1907D01*
X22299Y1916D01*
X22256Y1926D01*
X22219Y1935D01*
X22205Y1940D01*
X22191Y1944D01*
X22179Y1946D01*
X22172Y1949D01*
X22168Y1951D01*
X22165Y1951D01*
X22112Y1972D01*
X22061Y1995D01*
X22015Y2021D01*
X21976Y2044D01*
X21943Y2067D01*
X21918Y2083D01*
X21908Y2090D01*
X21902Y2095D01*
X21899Y2099D01*
X21855Y2099D01*
X21855Y1738D01*
X21945Y1706D01*
X21989Y1692D01*
X22029Y1680D01*
X22063Y1671D01*
X22089Y1664D01*
X22098Y1660D01*
X22105Y1660D01*
X22110Y1657D01*
X22112Y1657D01*
X22165Y1646D01*
X22221Y1639D01*
X22276Y1632D01*
X22327Y1629D01*
X22371Y1627D01*
X22390Y1625D01*
X22436Y1625D01*
X22494Y1627D01*
X22549Y1632D01*
X22603Y1636D01*
X22651Y1646D01*
X22697Y1657D01*
X22739Y1669D01*
X22776Y1680D01*
X22811Y1694D01*
X22841Y1706D01*
X22869Y1717D01*
X22892Y1729D01*
X22910Y1741D01*
X22927Y1750D01*
X22936Y1754D01*
X22943Y1759D01*
X22945Y1761D01*
X22977Y1789D01*
X23008Y1817D01*
X23033Y1847D01*
X23054Y1877D01*
X23072Y1907D01*
X23089Y1937D01*
X23100Y1965D01*
X23112Y1995D01*
X23119Y2021D01*
X23126Y2044D01*
X23130Y2067D01*
X23133Y2085D01*
X23133Y2102D01*
X23135Y2113D01*
X23135Y1625D01*
X23135Y1625D01*
X23135Y1625D01*
X23135Y3177D01*
X23135Y3177D02*
G37*
G36*
X29463Y3177D02*
X29463Y2398D01*
X29461Y2465D01*
X29454Y2525D01*
X29445Y2585D01*
X29431Y2638D01*
X29415Y2689D01*
X29399Y2736D01*
X29380Y2779D01*
X29362Y2819D01*
X29341Y2851D01*
X29322Y2881D01*
X29306Y2907D01*
X29290Y2930D01*
X29276Y2946D01*
X29267Y2958D01*
X29260Y2965D01*
X29258Y2967D01*
X29218Y3004D01*
X29174Y3036D01*
X29128Y3064D01*
X29082Y3090D01*
X29035Y3108D01*
X28987Y3127D01*
X28941Y3140D01*
X28897Y3152D01*
X28855Y3159D01*
X28816Y3166D01*
X28781Y3171D01*
X28751Y3175D01*
X28725Y3175D01*
X28707Y3177D01*
X29463Y3177D01*
X27922Y3177D01*
X27922Y3177D01*
X28691Y3177D01*
X28626Y3175D01*
X28563Y3168D01*
X28505Y3159D01*
X28452Y3145D01*
X28401Y3129D01*
X28355Y3110D01*
X28311Y3092D01*
X28274Y3073D01*
X28239Y3053D01*
X28209Y3034D01*
X28184Y3016D01*
X28163Y2999D01*
X28147Y2985D01*
X28135Y2976D01*
X28128Y2969D01*
X28126Y2967D01*
X28091Y2925D01*
X28059Y2884D01*
X28031Y2837D01*
X28008Y2791D01*
X27989Y2742D01*
X27973Y2696D01*
X27959Y2650D01*
X27948Y2604D01*
X27939Y2562D01*
X27934Y2523D01*
X27929Y2488D01*
X27925Y2458D01*
X27925Y2432D01*
X27922Y2414D01*
X27922Y2398D01*
X27925Y2333D01*
X27932Y2270D01*
X27941Y2213D01*
X27955Y2159D01*
X27969Y2108D01*
X27987Y2062D01*
X28006Y2018D01*
X28024Y1981D01*
X28043Y1946D01*
X28061Y1916D01*
X28080Y1891D01*
X28094Y1870D01*
X28107Y1852D01*
X28117Y1840D01*
X28124Y1833D01*
X28126Y1831D01*
X28165Y1794D01*
X28209Y1761D01*
X28256Y1734D01*
X28302Y1710D01*
X28348Y1690D01*
X28394Y1673D01*
X28441Y1660D01*
X28485Y1648D01*
X28529Y1641D01*
X28566Y1634D01*
X28600Y1629D01*
X28630Y1625D01*
X28656Y1625D01*
X28674Y1623D01*
X28691Y1623D01*
X28755Y1625D01*
X28818Y1632D01*
X28878Y1641D01*
X28931Y1655D01*
X28982Y1671D01*
X29028Y1690D01*
X29070Y1708D01*
X29109Y1727D01*
X29144Y1745D01*
X29174Y1766D01*
X29200Y1782D01*
X29220Y1798D01*
X29237Y1812D01*
X29248Y1822D01*
X29255Y1828D01*
X29258Y1831D01*
X29295Y1872D01*
X29325Y1916D01*
X29352Y1960D01*
X29376Y2009D01*
X29396Y2055D01*
X29413Y2104D01*
X29426Y2148D01*
X29438Y2194D01*
X29447Y2236D01*
X29452Y2275D01*
X29457Y2310D01*
X29461Y2340D01*
X29461Y2363D01*
X29463Y2381D01*
X29463Y1653D01*
X29463Y3177D01*
X29463Y3177D02*
G37*
G36*
X8830Y3177D02*
X8830Y2398D01*
X8828Y2465D01*
X8821Y2525D01*
X8812Y2585D01*
X8798Y2638D01*
X8781Y2689D01*
X8765Y2736D01*
X8747Y2779D01*
X8728Y2819D01*
X8707Y2851D01*
X8689Y2881D01*
X8673Y2907D01*
X8657Y2930D01*
X8643Y2946D01*
X8633Y2958D01*
X8626Y2965D01*
X8624Y2967D01*
X8585Y3004D01*
X8541Y3036D01*
X8495Y3064D01*
X8448Y3090D01*
X8402Y3108D01*
X8353Y3127D01*
X8307Y3140D01*
X8263Y3152D01*
X8221Y3159D01*
X8182Y3166D01*
X8147Y3171D01*
X8117Y3175D01*
X8092Y3175D01*
X8073Y3177D01*
X8830Y3177D01*
X7289Y3177D01*
X7289Y3177D01*
X8057Y3177D01*
X7992Y3175D01*
X7930Y3168D01*
X7872Y3159D01*
X7819Y3145D01*
X7768Y3129D01*
X7722Y3110D01*
X7678Y3092D01*
X7641Y3073D01*
X7606Y3053D01*
X7576Y3034D01*
X7550Y3016D01*
X7530Y2999D01*
X7513Y2985D01*
X7502Y2976D01*
X7495Y2969D01*
X7493Y2967D01*
X7458Y2925D01*
X7425Y2884D01*
X7398Y2837D01*
X7375Y2791D01*
X7356Y2742D01*
X7340Y2696D01*
X7326Y2650D01*
X7314Y2604D01*
X7305Y2562D01*
X7301Y2523D01*
X7296Y2488D01*
X7291Y2458D01*
X7291Y2432D01*
X7289Y2414D01*
X7289Y2398D01*
X7291Y2333D01*
X7298Y2270D01*
X7307Y2213D01*
X7321Y2159D01*
X7335Y2108D01*
X7354Y2062D01*
X7372Y2018D01*
X7391Y1981D01*
X7409Y1946D01*
X7428Y1916D01*
X7446Y1891D01*
X7460Y1870D01*
X7474Y1852D01*
X7483Y1840D01*
X7490Y1833D01*
X7493Y1831D01*
X7532Y1794D01*
X7576Y1761D01*
X7622Y1734D01*
X7668Y1710D01*
X7715Y1690D01*
X7761Y1673D01*
X7807Y1660D01*
X7851Y1648D01*
X7895Y1641D01*
X7932Y1634D01*
X7967Y1629D01*
X7997Y1625D01*
X8022Y1625D01*
X8041Y1623D01*
X8057Y1623D01*
X8122Y1625D01*
X8184Y1632D01*
X8245Y1641D01*
X8298Y1655D01*
X8349Y1671D01*
X8395Y1690D01*
X8437Y1708D01*
X8476Y1727D01*
X8511Y1745D01*
X8541Y1766D01*
X8566Y1782D01*
X8587Y1798D01*
X8603Y1812D01*
X8615Y1822D01*
X8622Y1828D01*
X8624Y1831D01*
X8661Y1872D01*
X8691Y1916D01*
X8719Y1960D01*
X8742Y2009D01*
X8763Y2055D01*
X8779Y2104D01*
X8793Y2148D01*
X8805Y2194D01*
X8814Y2236D01*
X8818Y2275D01*
X8823Y2310D01*
X8828Y2340D01*
X8828Y2363D01*
X8830Y2381D01*
X8830Y1629D01*
X8830Y3177D01*
X8830Y3177D02*
G37*
G36*
X10487Y3147D02*
X10133Y3147D01*
X10133Y2289D01*
X9584Y3147D01*
X9822Y3147D01*
X9124Y3147D01*
X9124Y1653D01*
X9478Y1653D01*
X9478Y2678D01*
X10114Y1653D01*
X10487Y1653D01*
X10487Y3147D01*
X10487Y3147D02*
G37*
G36*
X19615Y3147D02*
X19220Y3147D01*
X18856Y2092D01*
X18493Y3147D01*
X18090Y3147D01*
X18637Y1653D01*
X18090Y1653D01*
X19615Y1653D01*
X19067Y1653D01*
X19615Y3147D01*
X19615Y3147D02*
G37*
G36*
X13886Y3147D02*
X13220Y3147D01*
X13500Y3147D01*
X13500Y2215D01*
X13497Y2159D01*
X13488Y2111D01*
X13479Y2069D01*
X13465Y2037D01*
X13453Y2011D01*
X13442Y1993D01*
X13432Y1983D01*
X13430Y1979D01*
X13402Y1956D01*
X13368Y1937D01*
X13333Y1926D01*
X13298Y1916D01*
X13266Y1912D01*
X13240Y1909D01*
X13231Y1907D01*
X13217Y1907D01*
X13166Y1909D01*
X13122Y1919D01*
X13085Y1930D01*
X13055Y1944D01*
X13032Y1958D01*
X13016Y1970D01*
X13007Y1979D01*
X13004Y1981D01*
X12984Y2014D01*
X12967Y2051D01*
X12956Y2088D01*
X12949Y2127D01*
X12944Y2162D01*
X12940Y2189D01*
X12940Y2201D01*
X12940Y2208D01*
X12940Y2213D01*
X12940Y2215D01*
X12940Y3147D01*
X12553Y3147D01*
X12553Y2192D01*
X12555Y2141D01*
X12560Y2095D01*
X12569Y2051D01*
X12579Y2009D01*
X12593Y1972D01*
X12606Y1937D01*
X12620Y1905D01*
X12636Y1877D01*
X12653Y1852D01*
X12667Y1831D01*
X12680Y1812D01*
X12694Y1796D01*
X12704Y1784D01*
X12713Y1775D01*
X12717Y1771D01*
X12720Y1768D01*
X12752Y1743D01*
X12789Y1720D01*
X12829Y1701D01*
X12868Y1685D01*
X12910Y1671D01*
X12951Y1657D01*
X13032Y1641D01*
X13069Y1634D01*
X13104Y1629D01*
X13136Y1627D01*
X13164Y1625D01*
X13185Y1623D01*
X13217Y1623D01*
X13277Y1625D01*
X13333Y1629D01*
X13386Y1636D01*
X13435Y1646D01*
X13479Y1657D01*
X13518Y1669D01*
X13555Y1683D01*
X13590Y1697D01*
X13618Y1708D01*
X13643Y1722D01*
X13666Y1734D01*
X13682Y1745D01*
X13696Y1754D01*
X13708Y1761D01*
X13712Y1766D01*
X13715Y1768D01*
X13745Y1798D01*
X13770Y1828D01*
X13793Y1863D01*
X13814Y1898D01*
X13830Y1933D01*
X13844Y1967D01*
X13856Y2002D01*
X13865Y2037D01*
X13872Y2069D01*
X13877Y2099D01*
X13881Y2125D01*
X13884Y2148D01*
X13886Y2169D01*
X13886Y1653D01*
X13886Y3147D01*
X13886Y3147D02*
G37*
G36*
X16906Y3147D02*
X15584Y3147D01*
X15584Y2858D01*
X16052Y2858D01*
X16052Y1653D01*
X16438Y1653D01*
X16438Y2858D01*
X16906Y2858D01*
X16906Y1671D01*
X16906Y3147D01*
X16906Y3147D02*
G37*
G36*
X31199Y3147D02*
X29757Y3147D01*
X29757Y1653D01*
X30144Y1653D01*
X30144Y2201D01*
X30317Y2201D01*
X30725Y1653D01*
X31199Y1653D01*
X30699Y2291D01*
X30750Y2319D01*
X30792Y2347D01*
X30831Y2377D01*
X30861Y2405D01*
X30884Y2428D01*
X30903Y2449D01*
X30912Y2460D01*
X30917Y2465D01*
X30942Y2506D01*
X30963Y2553D01*
X30977Y2597D01*
X30986Y2641D01*
X30991Y2678D01*
X30993Y2694D01*
X30995Y2708D01*
X30995Y2719D01*
X30995Y2729D01*
X30995Y2733D01*
X30995Y2736D01*
X30993Y2779D01*
X30988Y2817D01*
X30979Y2851D01*
X30970Y2881D01*
X30961Y2904D01*
X30951Y2921D01*
X30947Y2930D01*
X30944Y2935D01*
X30926Y2965D01*
X30903Y2990D01*
X30880Y3011D01*
X30859Y3032D01*
X30840Y3046D01*
X30824Y3057D01*
X30815Y3064D01*
X30810Y3066D01*
X30778Y3083D01*
X30748Y3096D01*
X30718Y3108D01*
X30690Y3117D01*
X30664Y3124D01*
X30646Y3129D01*
X30634Y3131D01*
X30630Y3131D01*
X30593Y3136D01*
X30553Y3140D01*
X30516Y3143D01*
X30482Y3145D01*
X30449Y3147D01*
X31199Y3147D01*
X31199Y3147D01*
X31199Y3147D02*
G37*
G36*
X26166Y3147D02*
X24803Y3147D01*
X24803Y1653D01*
X25157Y1653D01*
X25157Y2678D01*
X25794Y1653D01*
X26166Y1653D01*
X26166Y3147D01*
X26166Y3147D02*
G37*
G36*
X24482Y3147D02*
X23399Y3147D01*
X23399Y1653D01*
X24482Y1653D01*
X24482Y3147D01*
X24482Y3147D02*
G37*
G36*
X20911Y3147D02*
X19828Y3147D01*
X19828Y1653D01*
X20911Y1653D01*
X20911Y3147D01*
X20911Y3147D02*
G37*
G36*
X17945Y3147D02*
X17068Y3147D01*
X17068Y2881D01*
X17313Y2881D01*
X17313Y1919D01*
X17068Y1919D01*
X17068Y1653D01*
X17945Y1653D01*
X17945Y3147D01*
X17945Y3147D02*
G37*
G36*
X12280Y3147D02*
X10866Y3147D01*
X10866Y1653D01*
X11392Y1653D01*
X11456Y1655D01*
X11517Y1657D01*
X11570Y1662D01*
X11614Y1666D01*
X11635Y1669D01*
X11651Y1671D01*
X11667Y1671D01*
X11679Y1673D01*
X11688Y1676D01*
X11695Y1678D01*
X11702Y1678D01*
X11750Y1690D01*
X11794Y1704D01*
X11836Y1720D01*
X11871Y1734D01*
X11901Y1747D01*
X11924Y1759D01*
X11938Y1768D01*
X11940Y1771D01*
X11942Y1771D01*
X11996Y1808D01*
X12042Y1847D01*
X12083Y1889D01*
X12118Y1930D01*
X12146Y1967D01*
X12158Y1981D01*
X12167Y1995D01*
X12174Y2007D01*
X12178Y2016D01*
X12183Y2021D01*
X12183Y2023D01*
X12215Y2088D01*
X12238Y2152D01*
X12257Y2215D01*
X12269Y2273D01*
X12273Y2298D01*
X12276Y2324D01*
X12278Y2344D01*
X12278Y2363D01*
X12280Y2377D01*
X12280Y3147D01*
X12280Y3147D02*
G37*
G36*
X15450Y3177D02*
X14159Y3177D01*
X14159Y3177D01*
X14920Y3177D01*
X14858Y3175D01*
X14800Y3168D01*
X14747Y3159D01*
X14701Y3150D01*
X14680Y3145D01*
X14661Y3140D01*
X14645Y3136D01*
X14631Y3131D01*
X14620Y3127D01*
X14613Y3124D01*
X14608Y3122D01*
X14606Y3122D01*
X14555Y3101D01*
X14508Y3076D01*
X14467Y3050D01*
X14432Y3025D01*
X14404Y3004D01*
X14384Y2985D01*
X14370Y2974D01*
X14367Y2972D01*
X14365Y2969D01*
X14330Y2928D01*
X14298Y2886D01*
X14270Y2844D01*
X14249Y2805D01*
X14233Y2770D01*
X14226Y2756D01*
X14219Y2745D01*
X14215Y2733D01*
X14212Y2726D01*
X14210Y2722D01*
X14210Y2719D01*
X14194Y2664D01*
X14180Y2608D01*
X14171Y2555D01*
X14166Y2504D01*
X14161Y2462D01*
X14161Y2444D01*
X14159Y2428D01*
X14159Y2398D01*
X14161Y2328D01*
X14168Y2263D01*
X14178Y2206D01*
X14187Y2157D01*
X14191Y2136D01*
X14196Y2115D01*
X14201Y2099D01*
X14205Y2085D01*
X14210Y2074D01*
X14212Y2067D01*
X14215Y2062D01*
X14215Y2060D01*
X14238Y2007D01*
X14263Y1960D01*
X14289Y1919D01*
X14314Y1884D01*
X14335Y1856D01*
X14353Y1835D01*
X14365Y1822D01*
X14370Y1819D01*
X14370Y1817D01*
X14409Y1782D01*
X14451Y1752D01*
X14492Y1729D01*
X14529Y1708D01*
X14562Y1692D01*
X14589Y1680D01*
X14599Y1676D01*
X14606Y1673D01*
X14610Y1671D01*
X14613Y1671D01*
X14666Y1655D01*
X14721Y1643D01*
X14772Y1634D01*
X14819Y1629D01*
X14860Y1625D01*
X14876Y1625D01*
X14893Y1623D01*
X14960Y1623D01*
X14997Y1625D01*
X15027Y1627D01*
X15050Y1629D01*
X15071Y1629D01*
X15085Y1632D01*
X15094Y1634D01*
X15096Y1634D01*
X15145Y1643D01*
X15168Y1648D01*
X15191Y1653D01*
X15207Y1657D01*
X15223Y1662D01*
X15233Y1664D01*
X15235Y1664D01*
X15274Y1676D01*
X15293Y1683D01*
X15309Y1690D01*
X15323Y1694D01*
X15332Y1699D01*
X15339Y1701D01*
X15341Y1701D01*
X15381Y1720D01*
X15399Y1727D01*
X15416Y1734D01*
X15429Y1741D01*
X15441Y1745D01*
X15448Y1750D01*
X15450Y1750D01*
X15450Y3053D01*
X15418Y3066D01*
X15385Y3080D01*
X15374Y3085D01*
X15362Y3090D01*
X15355Y3094D01*
X15353Y3094D01*
X15311Y3113D01*
X15291Y3120D01*
X15272Y3127D01*
X15254Y3131D01*
X15242Y3136D01*
X15233Y3138D01*
X15230Y3138D01*
X15182Y3150D01*
X15159Y3154D01*
X15138Y3159D01*
X15119Y3161D01*
X15105Y3164D01*
X15096Y3166D01*
X15092Y3166D01*
X15034Y3173D01*
X15004Y3175D01*
X14978Y3175D01*
X14955Y3177D01*
X15450Y3177D01*
X15450Y3177D02*
G37*
G36*
X7092Y3177D02*
X6562Y3177D01*
X6500Y3175D01*
X6442Y3168D01*
X6389Y3159D01*
X6343Y3150D01*
X6322Y3145D01*
X6303Y3140D01*
X6287Y3136D01*
X6273Y3131D01*
X6262Y3127D01*
X6255Y3124D01*
X6250Y3122D01*
X6248Y3122D01*
X6197Y3101D01*
X6151Y3076D01*
X6109Y3050D01*
X6074Y3025D01*
X6046Y3004D01*
X6026Y2985D01*
X6012Y2974D01*
X6009Y2972D01*
X6007Y2969D01*
X5972Y2928D01*
X5940Y2886D01*
X5912Y2844D01*
X5891Y2805D01*
X5875Y2770D01*
X5868Y2756D01*
X5861Y2745D01*
X5857Y2733D01*
X5854Y2726D01*
X5852Y2722D01*
X5852Y2719D01*
X5836Y2664D01*
X5822Y2608D01*
X5813Y2555D01*
X5808Y2504D01*
X5803Y2462D01*
X5803Y2444D01*
X5801Y2428D01*
X5801Y2398D01*
X5803Y2328D01*
X5810Y2263D01*
X5820Y2206D01*
X5829Y2157D01*
X5833Y2136D01*
X5838Y2115D01*
X5843Y2099D01*
X5847Y2085D01*
X5852Y2074D01*
X5854Y2067D01*
X5857Y2062D01*
X5857Y2060D01*
X5880Y2007D01*
X5905Y1960D01*
X5931Y1919D01*
X5956Y1884D01*
X5977Y1856D01*
X5995Y1835D01*
X6007Y1822D01*
X6012Y1819D01*
X6012Y1817D01*
X6051Y1782D01*
X6093Y1752D01*
X6134Y1729D01*
X6171Y1708D01*
X6204Y1692D01*
X6232Y1680D01*
X6241Y1676D01*
X6248Y1673D01*
X6252Y1671D01*
X6255Y1671D01*
X6308Y1655D01*
X6363Y1643D01*
X6414Y1634D01*
X6461Y1629D01*
X6502Y1625D01*
X6518Y1625D01*
X6535Y1623D01*
X6602Y1623D01*
X6639Y1625D01*
X6669Y1627D01*
X6692Y1629D01*
X6713Y1629D01*
X6727Y1632D01*
X6736Y1634D01*
X6738Y1634D01*
X6787Y1643D01*
X6810Y1648D01*
X6833Y1653D01*
X6849Y1657D01*
X6866Y1662D01*
X6875Y1664D01*
X6877Y1664D01*
X6916Y1676D01*
X6935Y1683D01*
X6951Y1690D01*
X6965Y1694D01*
X6974Y1699D01*
X6981Y1701D01*
X6984Y1701D01*
X7023Y1720D01*
X7041Y1727D01*
X7058Y1734D01*
X7071Y1741D01*
X7083Y1745D01*
X7090Y1750D01*
X7092Y1750D01*
X7092Y3053D01*
X7060Y3066D01*
X7027Y3080D01*
X7016Y3085D01*
X7004Y3090D01*
X6997Y3094D01*
X6995Y3094D01*
X6953Y3113D01*
X6933Y3120D01*
X6914Y3127D01*
X6896Y3131D01*
X6884Y3136D01*
X6875Y3138D01*
X6872Y3138D01*
X6824Y3150D01*
X6801Y3154D01*
X6780Y3159D01*
X6761Y3161D01*
X6747Y3164D01*
X6738Y3166D01*
X6734Y3166D01*
X6676Y3173D01*
X6646Y3175D01*
X6620Y3175D01*
X6597Y3177D01*
X7092Y3177D01*
X7092Y3177D02*
G37*
%LPD*%
G36*
X28744Y2891D02*
X28769Y2886D01*
X28790Y2881D01*
X28806Y2877D01*
X28820Y2872D01*
X28829Y2870D01*
X28832Y2867D01*
X28857Y2856D01*
X28878Y2842D01*
X28899Y2828D01*
X28915Y2814D01*
X28931Y2800D01*
X28941Y2789D01*
X28947Y2782D01*
X28950Y2779D01*
X28968Y2756D01*
X28984Y2731D01*
X28998Y2705D01*
X29010Y2682D01*
X29019Y2659D01*
X29026Y2643D01*
X29028Y2631D01*
X29031Y2627D01*
X29042Y2590D01*
X29049Y2553D01*
X29056Y2513D01*
X29059Y2479D01*
X29061Y2446D01*
X29063Y2423D01*
X29063Y2414D01*
X29063Y2407D01*
X29063Y2402D01*
X29063Y2400D01*
X29063Y2354D01*
X29059Y2314D01*
X29054Y2277D01*
X29049Y2245D01*
X29045Y2220D01*
X29040Y2199D01*
X29038Y2187D01*
X29035Y2182D01*
X29024Y2150D01*
X29010Y2118D01*
X28996Y2090D01*
X28984Y2067D01*
X28971Y2048D01*
X28961Y2032D01*
X28954Y2023D01*
X28952Y2021D01*
X28934Y2000D01*
X28913Y1981D01*
X28892Y1967D01*
X28873Y1953D01*
X28857Y1944D01*
X28846Y1937D01*
X28836Y1935D01*
X28834Y1933D01*
X28809Y1923D01*
X28783Y1916D01*
X28760Y1912D01*
X28739Y1909D01*
X28721Y1907D01*
X28704Y1905D01*
X28693Y1905D01*
X28665Y1907D01*
X28640Y1909D01*
X28614Y1914D01*
X28593Y1919D01*
X28575Y1923D01*
X28561Y1928D01*
X28552Y1933D01*
X28549Y1933D01*
X28526Y1944D01*
X28503Y1958D01*
X28482Y1972D01*
X28466Y1986D01*
X28452Y1997D01*
X28443Y2009D01*
X28436Y2016D01*
X28434Y2018D01*
X28415Y2041D01*
X28399Y2067D01*
X28385Y2092D01*
X28374Y2118D01*
X28364Y2139D01*
X28357Y2155D01*
X28355Y2166D01*
X28353Y2171D01*
X28344Y2208D01*
X28337Y2247D01*
X28330Y2284D01*
X28327Y2319D01*
X28325Y2351D01*
X28323Y2375D01*
X28323Y2386D01*
X28323Y2393D01*
X28323Y2395D01*
X28323Y2398D01*
X28325Y2446D01*
X28327Y2490D01*
X28332Y2527D01*
X28339Y2562D01*
X28344Y2590D01*
X28348Y2611D01*
X28350Y2622D01*
X28353Y2627D01*
X28367Y2661D01*
X28381Y2694D01*
X28394Y2719D01*
X28406Y2742D01*
X28418Y2759D01*
X28427Y2773D01*
X28434Y2779D01*
X28436Y2782D01*
X28457Y2803D01*
X28478Y2821D01*
X28496Y2835D01*
X28515Y2847D01*
X28531Y2856D01*
X28543Y2863D01*
X28552Y2867D01*
X28554Y2867D01*
X28580Y2877D01*
X28603Y2884D01*
X28626Y2888D01*
X28649Y2893D01*
X28665Y2893D01*
X28681Y2895D01*
X28721Y2895D01*
X28744Y2891D01*
X28744Y2891D02*
G37*
G36*
X8110Y2891D02*
X8136Y2886D01*
X8157Y2881D01*
X8173Y2877D01*
X8187Y2872D01*
X8196Y2870D01*
X8198Y2867D01*
X8224Y2856D01*
X8245Y2842D01*
X8265Y2828D01*
X8282Y2814D01*
X8298Y2800D01*
X8307Y2789D01*
X8314Y2782D01*
X8316Y2779D01*
X8335Y2756D01*
X8351Y2731D01*
X8365Y2705D01*
X8377Y2682D01*
X8386Y2659D01*
X8393Y2643D01*
X8395Y2631D01*
X8397Y2627D01*
X8409Y2590D01*
X8416Y2553D01*
X8423Y2513D01*
X8425Y2479D01*
X8427Y2446D01*
X8430Y2423D01*
X8430Y2414D01*
X8430Y2407D01*
X8430Y2402D01*
X8430Y2400D01*
X8430Y2354D01*
X8425Y2314D01*
X8420Y2277D01*
X8416Y2245D01*
X8411Y2220D01*
X8407Y2199D01*
X8404Y2187D01*
X8402Y2182D01*
X8390Y2150D01*
X8377Y2118D01*
X8363Y2090D01*
X8351Y2067D01*
X8337Y2048D01*
X8328Y2032D01*
X8321Y2023D01*
X8319Y2021D01*
X8300Y2000D01*
X8279Y1981D01*
X8259Y1967D01*
X8240Y1953D01*
X8224Y1944D01*
X8212Y1937D01*
X8203Y1935D01*
X8201Y1933D01*
X8175Y1923D01*
X8150Y1916D01*
X8127Y1912D01*
X8106Y1909D01*
X8087Y1907D01*
X8071Y1905D01*
X8060Y1905D01*
X8032Y1907D01*
X8006Y1909D01*
X7981Y1914D01*
X7960Y1919D01*
X7942Y1923D01*
X7928Y1928D01*
X7918Y1933D01*
X7916Y1933D01*
X7893Y1944D01*
X7870Y1958D01*
X7849Y1972D01*
X7833Y1986D01*
X7819Y1997D01*
X7810Y2009D01*
X7803Y2016D01*
X7800Y2018D01*
X7782Y2041D01*
X7766Y2067D01*
X7752Y2092D01*
X7740Y2118D01*
X7731Y2139D01*
X7724Y2155D01*
X7722Y2166D01*
X7719Y2171D01*
X7710Y2208D01*
X7703Y2247D01*
X7696Y2284D01*
X7694Y2319D01*
X7692Y2351D01*
X7689Y2375D01*
X7689Y2386D01*
X7689Y2393D01*
X7689Y2395D01*
X7689Y2398D01*
X7692Y2446D01*
X7694Y2490D01*
X7699Y2527D01*
X7705Y2562D01*
X7710Y2590D01*
X7715Y2611D01*
X7717Y2622D01*
X7719Y2627D01*
X7733Y2661D01*
X7747Y2694D01*
X7761Y2719D01*
X7773Y2742D01*
X7784Y2759D01*
X7793Y2773D01*
X7800Y2779D01*
X7803Y2782D01*
X7823Y2803D01*
X7844Y2821D01*
X7863Y2835D01*
X7881Y2847D01*
X7898Y2856D01*
X7909Y2863D01*
X7918Y2867D01*
X7921Y2867D01*
X7946Y2877D01*
X7969Y2884D01*
X7992Y2888D01*
X8016Y2893D01*
X8032Y2893D01*
X8048Y2895D01*
X8087Y2895D01*
X8110Y2891D01*
X8110Y2891D02*
G37*
G36*
X30350Y2870D02*
X30380Y2870D01*
X30391Y2867D01*
X30401Y2867D01*
X30438Y2863D01*
X30454Y2860D01*
X30468Y2856D01*
X30477Y2854D01*
X30486Y2851D01*
X30491Y2849D01*
X30493Y2849D01*
X30512Y2840D01*
X30528Y2828D01*
X30542Y2819D01*
X30553Y2807D01*
X30563Y2798D01*
X30567Y2791D01*
X30572Y2786D01*
X30572Y2784D01*
X30586Y2752D01*
X30593Y2722D01*
X30595Y2710D01*
X30595Y2698D01*
X30595Y2692D01*
X30595Y2689D01*
X30595Y2666D01*
X30593Y2648D01*
X30590Y2629D01*
X30586Y2615D01*
X30583Y2604D01*
X30579Y2594D01*
X30576Y2590D01*
X30576Y2587D01*
X30560Y2562D01*
X30539Y2541D01*
X30530Y2532D01*
X30523Y2525D01*
X30519Y2523D01*
X30516Y2520D01*
X30482Y2500D01*
X30449Y2488D01*
X30435Y2483D01*
X30424Y2481D01*
X30414Y2479D01*
X30412Y2479D01*
X30389Y2476D01*
X30364Y2474D01*
X30338Y2474D01*
X30313Y2472D01*
X30144Y2472D01*
X30144Y2872D01*
X30329Y2872D01*
X30350Y2870D01*
X30350Y2870D02*
G37*
G36*
X25812Y2289D02*
X25264Y3147D01*
X25812Y3147D01*
X25812Y2289D01*
X25812Y2289D02*
G37*
G36*
X24482Y1942D02*
X23785Y1942D01*
X23785Y2312D01*
X24431Y2312D01*
X24431Y2601D01*
X23785Y2601D01*
X23785Y2858D01*
X24482Y2858D01*
X24482Y1942D01*
X24482Y1942D02*
G37*
G36*
X20911Y1942D02*
X20215Y1942D01*
X20215Y2312D01*
X20860Y2312D01*
X20860Y2601D01*
X20215Y2601D01*
X20215Y2858D01*
X20911Y2858D01*
X20911Y1942D01*
X20911Y1942D02*
G37*
G36*
X17945Y1919D02*
X17699Y1919D01*
X17699Y2881D01*
X17945Y2881D01*
X17945Y1919D01*
X17945Y1919D02*
G37*
G36*
X12280Y2398D02*
X12276Y2476D01*
X12266Y2548D01*
X12252Y2613D01*
X12243Y2641D01*
X12236Y2668D01*
X12227Y2692D01*
X12218Y2712D01*
X12211Y2731D01*
X12204Y2747D01*
X12199Y2759D01*
X12195Y2768D01*
X12190Y2773D01*
X12190Y2775D01*
X12155Y2833D01*
X12116Y2881D01*
X12074Y2925D01*
X12035Y2962D01*
X12000Y2990D01*
X11986Y3002D01*
X11972Y3013D01*
X11961Y3020D01*
X11954Y3025D01*
X11949Y3029D01*
X11947Y3029D01*
X11912Y3050D01*
X11873Y3066D01*
X11836Y3080D01*
X11801Y3094D01*
X11769Y3103D01*
X11746Y3110D01*
X11736Y3113D01*
X11729Y3113D01*
X11725Y3115D01*
X11722Y3115D01*
X11672Y3127D01*
X11618Y3134D01*
X11565Y3140D01*
X11517Y3143D01*
X11473Y3145D01*
X11454Y3147D01*
X12280Y3147D01*
X12280Y2398D01*
X12280Y2398D02*
G37*
G36*
X11429Y2865D02*
X11461Y2863D01*
X11486Y2863D01*
X11507Y2860D01*
X11521Y2858D01*
X11530Y2856D01*
X11533Y2856D01*
X11579Y2844D01*
X11600Y2837D01*
X11618Y2833D01*
X11632Y2826D01*
X11646Y2821D01*
X11653Y2819D01*
X11655Y2817D01*
X11697Y2793D01*
X11732Y2766D01*
X11759Y2738D01*
X11783Y2712D01*
X11801Y2689D01*
X11815Y2668D01*
X11822Y2657D01*
X11824Y2655D01*
X11824Y2652D01*
X11843Y2611D01*
X11857Y2569D01*
X11866Y2527D01*
X11873Y2488D01*
X11878Y2453D01*
X11878Y2437D01*
X11880Y2425D01*
X11880Y2414D01*
X11880Y2407D01*
X11880Y2402D01*
X11880Y2400D01*
X11878Y2347D01*
X11873Y2298D01*
X11864Y2257D01*
X11854Y2222D01*
X11845Y2192D01*
X11836Y2171D01*
X11831Y2157D01*
X11829Y2155D01*
X11829Y2152D01*
X11808Y2118D01*
X11785Y2085D01*
X11759Y2058D01*
X11734Y2034D01*
X11711Y2018D01*
X11692Y2004D01*
X11681Y1995D01*
X11679Y1993D01*
X11676Y1993D01*
X11630Y1972D01*
X11609Y1963D01*
X11588Y1956D01*
X11572Y1951D01*
X11561Y1949D01*
X11551Y1946D01*
X11549Y1946D01*
X11523Y1942D01*
X11491Y1940D01*
X11459Y1937D01*
X11424Y1937D01*
X11394Y1935D01*
X11253Y1935D01*
X11253Y2867D01*
X11392Y2867D01*
X11429Y2865D01*
X11429Y2865D02*
G37*
G36*
X15034Y2884D02*
X15057Y2881D01*
X15078Y2877D01*
X15094Y2872D01*
X15105Y2870D01*
X15115Y2865D01*
X15117Y2865D01*
X15163Y2847D01*
X15184Y2837D01*
X15203Y2828D01*
X15217Y2821D01*
X15228Y2814D01*
X15235Y2812D01*
X15237Y2810D01*
X15274Y2786D01*
X15291Y2775D01*
X15304Y2766D01*
X15316Y2756D01*
X15325Y2752D01*
X15330Y2747D01*
X15332Y2745D01*
X15362Y2722D01*
X15385Y2705D01*
X15392Y2698D01*
X15399Y2694D01*
X15402Y2689D01*
X15450Y2689D01*
X15450Y2108D01*
X15409Y2108D01*
X15385Y2088D01*
X15365Y2069D01*
X15353Y2062D01*
X15346Y2055D01*
X15341Y2053D01*
X15339Y2051D01*
X15307Y2027D01*
X15279Y2007D01*
X15267Y2000D01*
X15258Y1993D01*
X15251Y1990D01*
X15249Y1988D01*
X15205Y1965D01*
X15184Y1956D01*
X15163Y1946D01*
X15147Y1942D01*
X15133Y1937D01*
X15124Y1933D01*
X15122Y1933D01*
X15071Y1921D01*
X15048Y1916D01*
X15027Y1914D01*
X15008Y1914D01*
X14994Y1912D01*
X14983Y1912D01*
X14927Y1916D01*
X14902Y1919D01*
X14881Y1923D01*
X14860Y1928D01*
X14846Y1930D01*
X14837Y1935D01*
X14832Y1935D01*
X14805Y1944D01*
X14779Y1958D01*
X14758Y1970D01*
X14738Y1983D01*
X14721Y1995D01*
X14710Y2004D01*
X14701Y2011D01*
X14698Y2014D01*
X14677Y2034D01*
X14657Y2060D01*
X14640Y2083D01*
X14626Y2108D01*
X14615Y2129D01*
X14606Y2145D01*
X14601Y2157D01*
X14599Y2162D01*
X14585Y2199D01*
X14576Y2238D01*
X14569Y2277D01*
X14564Y2314D01*
X14562Y2347D01*
X14559Y2372D01*
X14559Y2381D01*
X14559Y2388D01*
X14559Y2393D01*
X14559Y2395D01*
X14562Y2444D01*
X14564Y2488D01*
X14571Y2527D01*
X14578Y2562D01*
X14583Y2587D01*
X14589Y2608D01*
X14592Y2620D01*
X14594Y2624D01*
X14608Y2659D01*
X14624Y2689D01*
X14640Y2715D01*
X14657Y2736D01*
X14670Y2754D01*
X14682Y2766D01*
X14689Y2775D01*
X14691Y2777D01*
X14714Y2798D01*
X14738Y2814D01*
X14761Y2828D01*
X14781Y2840D01*
X14800Y2849D01*
X14814Y2856D01*
X14823Y2860D01*
X14825Y2860D01*
X14853Y2870D01*
X14881Y2877D01*
X14906Y2881D01*
X14932Y2886D01*
X14950Y2886D01*
X14967Y2888D01*
X14981Y2888D01*
X15034Y2884D01*
X15034Y2884D02*
G37*
G36*
X6676Y2884D02*
X6699Y2881D01*
X6720Y2877D01*
X6736Y2872D01*
X6747Y2870D01*
X6757Y2865D01*
X6759Y2865D01*
X6805Y2847D01*
X6826Y2837D01*
X6845Y2828D01*
X6859Y2821D01*
X6870Y2814D01*
X6877Y2812D01*
X6879Y2810D01*
X6916Y2786D01*
X6933Y2775D01*
X6946Y2766D01*
X6958Y2756D01*
X6967Y2752D01*
X6972Y2747D01*
X6974Y2745D01*
X7004Y2722D01*
X7027Y2705D01*
X7034Y2698D01*
X7041Y2694D01*
X7044Y2689D01*
X7092Y2689D01*
X7092Y2108D01*
X7051Y2108D01*
X7027Y2088D01*
X7007Y2069D01*
X6995Y2062D01*
X6988Y2055D01*
X6984Y2053D01*
X6981Y2051D01*
X6949Y2027D01*
X6921Y2007D01*
X6909Y2000D01*
X6900Y1993D01*
X6893Y1990D01*
X6891Y1988D01*
X6847Y1965D01*
X6826Y1956D01*
X6805Y1946D01*
X6789Y1942D01*
X6775Y1937D01*
X6766Y1933D01*
X6764Y1933D01*
X6713Y1921D01*
X6690Y1916D01*
X6669Y1914D01*
X6650Y1914D01*
X6636Y1912D01*
X6625Y1912D01*
X6569Y1916D01*
X6544Y1919D01*
X6523Y1923D01*
X6502Y1928D01*
X6488Y1930D01*
X6479Y1935D01*
X6474Y1935D01*
X6447Y1944D01*
X6421Y1958D01*
X6400Y1970D01*
X6380Y1983D01*
X6363Y1995D01*
X6352Y2004D01*
X6343Y2011D01*
X6340Y2014D01*
X6319Y2034D01*
X6299Y2060D01*
X6282Y2083D01*
X6269Y2108D01*
X6257Y2129D01*
X6248Y2145D01*
X6243Y2157D01*
X6241Y2162D01*
X6227Y2199D01*
X6218Y2238D01*
X6211Y2277D01*
X6206Y2314D01*
X6204Y2347D01*
X6201Y2372D01*
X6201Y2381D01*
X6201Y2388D01*
X6201Y2393D01*
X6201Y2395D01*
X6204Y2444D01*
X6206Y2488D01*
X6213Y2527D01*
X6220Y2562D01*
X6225Y2587D01*
X6232Y2608D01*
X6234Y2620D01*
X6236Y2624D01*
X6250Y2659D01*
X6266Y2689D01*
X6282Y2715D01*
X6299Y2736D01*
X6312Y2754D01*
X6324Y2766D01*
X6331Y2775D01*
X6333Y2777D01*
X6356Y2798D01*
X6380Y2814D01*
X6403Y2828D01*
X6424Y2840D01*
X6442Y2849D01*
X6456Y2856D01*
X6465Y2860D01*
X6468Y2860D01*
X6495Y2870D01*
X6523Y2877D01*
X6549Y2881D01*
X6574Y2886D01*
X6592Y2886D01*
X6609Y2888D01*
X6623Y2888D01*
X6676Y2884D01*
X6676Y2884D02*
G37*
%LPC*%
G36*
X132848Y-81631D02*
X132742Y-81631D01*
X132689Y-81641D01*
X132605Y-81652D01*
X132520Y-81684D01*
X132425Y-81737D01*
X132340Y-81821D01*
X132287Y-81927D01*
X132277Y-82001D01*
X132266Y-82075D01*
X132266Y-82086D01*
X132266Y-82107D01*
X132277Y-82149D01*
X132287Y-82202D01*
X132329Y-82319D01*
X132361Y-82371D01*
X132404Y-82435D01*
X132414Y-82445D01*
X132435Y-82456D01*
X132467Y-82477D01*
X132509Y-82498D01*
X132615Y-82551D01*
X132689Y-82562D01*
X132763Y-82572D01*
X132785Y-82572D01*
X132837Y-82562D01*
X132911Y-82541D01*
X132996Y-82509D01*
X133081Y-82445D01*
X133155Y-82361D01*
X133208Y-82234D01*
X133229Y-82160D01*
X133229Y-82075D01*
X133229Y-82054D01*
X133218Y-82001D01*
X133208Y-81938D01*
X133176Y-81853D01*
X133113Y-81768D01*
X133028Y-81705D01*
X132922Y-81652D01*
X132848Y-81631D01*
X132848Y-81631D02*
G37*
%LPD*%
G36*
X132837Y-81768D02*
X132880Y-81779D01*
X132922Y-81811D01*
X132964Y-81842D01*
X132986Y-81895D01*
X132996Y-81959D01*
X132996Y-81969D01*
X132996Y-81990D01*
X132975Y-82054D01*
X132954Y-82086D01*
X132933Y-82117D01*
X132890Y-82139D01*
X132837Y-82149D01*
X133017Y-82435D01*
X132911Y-82435D01*
X132732Y-82149D01*
X132626Y-82149D01*
X132626Y-82435D01*
X132520Y-82435D01*
X132520Y-81758D01*
X132795Y-81758D01*
X132837Y-81768D01*
X132837Y-81768D02*
G37*
%LPC*%
G36*
X132795Y-81853D02*
X132626Y-81853D01*
X132626Y-82065D01*
X132806Y-82065D01*
X132848Y-82054D01*
X132880Y-82022D01*
X132890Y-81959D01*
X132890Y-81938D01*
X132880Y-81906D01*
X132848Y-81874D01*
X132795Y-81853D01*
X132795Y-81853D02*
G37*
G36*
X127113Y-83017D02*
X127070Y-83017D01*
X127018Y-83038D01*
X126954Y-83059D01*
X126880Y-83091D01*
X126806Y-83154D01*
X126711Y-83229D01*
X126626Y-83334D01*
X125737Y-84583D01*
X128435Y-88858D01*
X128446Y-88879D01*
X128478Y-88921D01*
X128520Y-88985D01*
X128584Y-89048D01*
X128658Y-89122D01*
X128732Y-89186D01*
X128806Y-89228D01*
X128890Y-89249D01*
X128933Y-89249D01*
X128986Y-89239D01*
X129049Y-89218D01*
X129123Y-89175D01*
X129197Y-89133D01*
X129282Y-89059D01*
X129356Y-88964D01*
X130298Y-87609D01*
X127589Y-83345D01*
X127578Y-83334D01*
X127557Y-83292D01*
X127504Y-83239D01*
X127451Y-83176D01*
X127377Y-83123D01*
X127303Y-83070D01*
X127208Y-83027D01*
X127113Y-83017D01*
X127113Y-83017D02*
G37*
G36*
X142266Y-93366D02*
X140911Y-93366D01*
X140911Y-94244D01*
X142329Y-94244D01*
X142350Y-94233D01*
X142393Y-94223D01*
X142435Y-94202D01*
X142467Y-94159D01*
X142509Y-94096D01*
X142530Y-94001D01*
X142541Y-93884D01*
X142541Y-93757D01*
X142541Y-93736D01*
X142541Y-93694D01*
X142530Y-93630D01*
X142509Y-93556D01*
X142477Y-93493D01*
X142424Y-93429D01*
X142361Y-93387D01*
X142266Y-93366D01*
X142266Y-93366D02*
G37*
G36*
X126764Y-93366D02*
X125504Y-93366D01*
X125504Y-94233D01*
X126848Y-94233D01*
X126880Y-94223D01*
X126933Y-94212D01*
X126986Y-94181D01*
X127028Y-94138D01*
X127081Y-94075D01*
X127113Y-93979D01*
X127123Y-93852D01*
X127123Y-93757D01*
X127123Y-93736D01*
X127123Y-93694D01*
X127102Y-93630D01*
X127081Y-93556D01*
X127039Y-93493D01*
X126975Y-93429D01*
X126880Y-93387D01*
X126764Y-93366D01*
X126764Y-93366D02*
G37*
G36*
X130298Y-93366D02*
X129409Y-93366D01*
X129367Y-93376D01*
X129314Y-93387D01*
X129261Y-93408D01*
X129208Y-93429D01*
X129155Y-93472D01*
X129102Y-93524D01*
X129102Y-93535D01*
X129081Y-93556D01*
X129070Y-93588D01*
X129049Y-93651D01*
X129028Y-93726D01*
X129017Y-93810D01*
X128996Y-93927D01*
X128996Y-94064D01*
X128996Y-94456D01*
X128996Y-94477D01*
X128996Y-94519D01*
X128996Y-94583D01*
X129007Y-94667D01*
X129028Y-94847D01*
X129049Y-94932D01*
X129070Y-94995D01*
X129070Y-95006D01*
X129092Y-95016D01*
X129113Y-95038D01*
X129144Y-95069D01*
X129187Y-95101D01*
X129240Y-95122D01*
X129314Y-95133D01*
X129398Y-95143D01*
X130340Y-95143D01*
X130393Y-95133D01*
X130467Y-95112D01*
X130552Y-95059D01*
X130626Y-94974D01*
X130668Y-94921D01*
X130700Y-94858D01*
X130732Y-94773D01*
X130753Y-94678D01*
X130774Y-94572D01*
X130774Y-94456D01*
X130774Y-94064D01*
X130774Y-94043D01*
X130774Y-94001D01*
X130763Y-93937D01*
X130753Y-93852D01*
X130710Y-93673D01*
X130679Y-93588D01*
X130626Y-93524D01*
X130615Y-93514D01*
X130605Y-93503D01*
X130573Y-93472D01*
X130531Y-93440D01*
X130425Y-93387D01*
X130372Y-93376D01*
X130298Y-93366D01*
X130298Y-93366D02*
G37*
%LPD*%
D10*
X31894Y1450D02*
G03*
X31894Y3350I0J950D01*
G01*
X5106Y3350D02*
G03*
X5106Y1450I0J-950D01*
G01*
X31894Y31550D02*
G03*
X31894Y33450I0J950D01*
G01*
X5106Y33450D02*
G03*
X5106Y31550I0J-950D01*
G01*
X221210Y-102590D02*
X221210Y-101990D01*
X227330Y-82990D02*
X227330Y-82990D01*
X216210Y-102790D02*
X216210Y-101790D01*
X216050Y-104625D02*
X216050Y-103355D01*
X218590Y-104625D02*
X218590Y-103355D01*
X221130Y-104625D02*
X221130Y-103355D01*
X223670Y-104625D02*
X223670Y-103355D01*
X226210Y-102790D02*
X226210Y-101790D01*
X226210Y-104625D02*
X226210Y-103355D01*
X197510Y-82990D02*
X197510Y-79990D01*
X216050Y-103990D02*
X226210Y-103990D01*
X216210Y-102290D02*
X226210Y-102290D01*
X197510Y-82990D02*
X227330Y-82990D01*
X145510Y-87490D02*
X227330Y-87490D01*
X212743Y-103590D02*
X212410Y-104057D01*
X212910Y-104057D01*
X212743Y-103590D02*
X212743Y-104290D01*
X213233Y-103590D02*
X213133Y-103623D01*
X213067Y-103723D01*
X213033Y-103890D01*
X213033Y-103990D01*
X213067Y-104157D01*
X213133Y-104257D01*
X213233Y-104290D01*
X213300Y-104290D01*
X213400Y-104257D01*
X213466Y-104157D01*
X213500Y-103990D01*
X213500Y-103890D01*
X213466Y-103723D01*
X213400Y-103623D01*
X213300Y-103590D01*
X213233Y-103590D01*
X213856Y-103590D02*
X213756Y-103623D01*
X213690Y-103723D01*
X213656Y-103890D01*
X213656Y-103990D01*
X213690Y-104157D01*
X213756Y-104257D01*
X213856Y-104290D01*
X213923Y-104290D01*
X214023Y-104257D01*
X214090Y-104157D01*
X214123Y-103990D01*
X214123Y-103890D01*
X214090Y-103723D01*
X214023Y-103623D01*
X213923Y-103590D01*
X213856Y-103590D01*
X214280Y-103823D02*
X214280Y-104290D01*
X214280Y-103957D02*
X214380Y-103857D01*
X214446Y-103823D01*
X214546Y-103823D01*
X214613Y-103857D01*
X214646Y-103957D01*
X214646Y-104290D01*
X214646Y-103957D02*
X214746Y-103857D01*
X214813Y-103823D01*
X214913Y-103823D01*
X214979Y-103857D01*
X215013Y-103957D01*
X215013Y-104290D01*
X215299Y-103590D02*
X215333Y-103623D01*
X215366Y-103590D01*
X215333Y-103557D01*
X215299Y-103590D01*
X215333Y-103823D02*
X215333Y-104290D01*
X215489Y-103590D02*
X215489Y-104290D01*
X212510Y-102023D02*
X212577Y-101990D01*
X212677Y-101890D01*
X212677Y-102590D01*
X213223Y-101890D02*
X213123Y-101923D01*
X213057Y-102023D01*
X213023Y-102190D01*
X213023Y-102290D01*
X213057Y-102457D01*
X213123Y-102557D01*
X213223Y-102590D01*
X213290Y-102590D01*
X213390Y-102557D01*
X213456Y-102457D01*
X213490Y-102290D01*
X213490Y-102190D01*
X213456Y-102023D01*
X213390Y-101923D01*
X213290Y-101890D01*
X213223Y-101890D01*
X213646Y-102123D02*
X213646Y-102590D01*
X213646Y-102257D02*
X213746Y-102157D01*
X213813Y-102123D01*
X213913Y-102123D01*
X213980Y-102157D01*
X214013Y-102257D01*
X214013Y-102590D01*
X214013Y-102257D02*
X214113Y-102157D01*
X214180Y-102123D01*
X214280Y-102123D01*
X214346Y-102157D01*
X214380Y-102257D01*
X214380Y-102590D01*
X214600Y-102123D02*
X214600Y-102590D01*
X214600Y-102257D02*
X214700Y-102157D01*
X214766Y-102123D01*
X214866Y-102123D01*
X214933Y-102157D01*
X214966Y-102257D01*
X214966Y-102590D01*
X214966Y-102257D02*
X215066Y-102157D01*
X215133Y-102123D01*
X215233Y-102123D01*
X215299Y-102157D01*
X215333Y-102257D01*
X215333Y-102590D01*
D11*
X5390Y12360D02*
X5390Y16990D01*
X1000Y12360D02*
X5390Y12360D01*
X4740Y17640D02*
X5390Y16990D01*
X1000Y17640D02*
X4740Y17640D01*
X5390Y42360D02*
X5390Y46990D01*
X1000Y42360D02*
X5390Y42360D01*
X4740Y47640D02*
X5390Y46990D01*
X1000Y47640D02*
X4740Y47640D01*
X211438Y-80740D02*
X210510Y-80740D01*
X210510Y-82240D01*
X211438Y-82240D01*
X210510Y-81454D02*
X211081Y-81454D01*
X211688Y-80740D02*
X212260Y-82240D01*
X212831Y-80740D02*
X212260Y-82240D01*
X213095Y-81097D02*
X213095Y-81026D01*
X213167Y-80883D01*
X213238Y-80812D01*
X213381Y-80740D01*
X213666Y-80740D01*
X213809Y-80812D01*
X213881Y-80883D01*
X213952Y-81026D01*
X213952Y-81169D01*
X213881Y-81312D01*
X213738Y-81526D01*
X213024Y-82240D01*
X214024Y-82240D01*
X215073Y-80740D02*
X214359Y-81740D01*
X215430Y-81740D01*
X215073Y-80740D02*
X215073Y-82240D01*
X215695Y-80740D02*
X215695Y-81811D01*
X215766Y-82026D01*
X215909Y-82169D01*
X216123Y-82240D01*
X216266Y-82240D01*
X216480Y-82169D01*
X216623Y-82026D01*
X216694Y-81811D01*
X216694Y-80740D01*
X217180Y-81097D02*
X217180Y-81026D01*
X217251Y-80883D01*
X217323Y-80812D01*
X217466Y-80740D01*
X217751Y-80740D01*
X217894Y-80812D01*
X217966Y-80883D01*
X218037Y-81026D01*
X218037Y-81169D01*
X217966Y-81312D01*
X217823Y-81526D01*
X217109Y-82240D01*
X218108Y-82240D01*
X218515Y-81097D02*
X218515Y-81026D01*
X218587Y-80883D01*
X218658Y-80812D01*
X218801Y-80740D01*
X219087Y-80740D01*
X219230Y-80812D01*
X219301Y-80883D01*
X219372Y-81026D01*
X219372Y-81169D01*
X219301Y-81312D01*
X219158Y-81526D01*
X218444Y-82240D01*
X219444Y-82240D01*
X220922Y-82240D02*
X220351Y-80740D01*
X219779Y-82240D01*
X219994Y-81740D02*
X220708Y-81740D01*
D12*
X209259Y-103420D02*
X209259Y-103348D01*
X209331Y-103205D01*
X209402Y-103134D01*
X209545Y-103063D01*
X209831Y-103063D01*
X209973Y-103134D01*
X210045Y-103205D01*
X210116Y-103348D01*
X210116Y-103491D01*
X210045Y-103634D01*
X209902Y-103848D01*
X209188Y-104562D01*
X210188Y-104562D01*
X147576Y-92619D02*
X147424Y-92467D01*
X147196Y-92390D01*
X146891Y-92390D01*
X146662Y-92467D01*
X146510Y-92619D01*
X146510Y-92771D01*
X146586Y-92924D01*
X146662Y-93000D01*
X146815Y-93076D01*
X147272Y-93228D01*
X147424Y-93304D01*
X147500Y-93381D01*
X147576Y-93533D01*
X147576Y-93761D01*
X147424Y-93914D01*
X147196Y-93990D01*
X146891Y-93990D01*
X146662Y-93914D01*
X146510Y-93761D01*
X147934Y-92390D02*
X147934Y-93990D01*
X148849Y-93990D01*
X149557Y-92390D02*
X149557Y-93990D01*
X149024Y-92390D02*
X150090Y-92390D01*
X116780Y-103136D02*
X116695Y-102966D01*
X116526Y-102797D01*
X116356Y-102712D01*
X116018Y-102712D01*
X115849Y-102797D01*
X115679Y-102966D01*
X115595Y-103136D01*
X115510Y-103390D01*
X115510Y-103813D01*
X115595Y-104067D01*
X115679Y-104236D01*
X115849Y-104405D01*
X116018Y-104490D01*
X116356Y-104490D01*
X116526Y-104405D01*
X116695Y-104236D01*
X116780Y-104067D01*
X117279Y-102712D02*
X117279Y-104490D01*
X117279Y-103644D02*
X117533Y-103390D01*
X117702Y-103305D01*
X117956Y-103305D01*
X118126Y-103390D01*
X118210Y-103644D01*
X118210Y-104490D01*
X119692Y-103305D02*
X119692Y-104490D01*
X119692Y-103559D02*
X119522Y-103390D01*
X119353Y-103305D01*
X119099Y-103305D01*
X118930Y-103390D01*
X118761Y-103559D01*
X118676Y-103813D01*
X118676Y-103982D01*
X118761Y-104236D01*
X118930Y-104405D01*
X119099Y-104490D01*
X119353Y-104490D01*
X119522Y-104405D01*
X119692Y-104236D01*
X120166Y-103305D02*
X120166Y-104490D01*
X120166Y-103644D02*
X120420Y-103390D01*
X120589Y-103305D01*
X120843Y-103305D01*
X121012Y-103390D01*
X121097Y-103644D01*
X121097Y-104490D01*
X122578Y-102712D02*
X122578Y-104490D01*
X122578Y-103559D02*
X122409Y-103390D01*
X122240Y-103305D01*
X121986Y-103305D01*
X121816Y-103390D01*
X121647Y-103559D01*
X121562Y-103813D01*
X121562Y-103982D01*
X121647Y-104236D01*
X121816Y-104405D01*
X121986Y-104490D01*
X122240Y-104490D01*
X122409Y-104405D01*
X122578Y-104236D01*
X123052Y-102712D02*
X123052Y-104490D01*
X123425Y-103813D02*
X124440Y-103813D01*
X124440Y-103644D01*
X124356Y-103474D01*
X124271Y-103390D01*
X124102Y-103305D01*
X123848Y-103305D01*
X123679Y-103390D01*
X123509Y-103559D01*
X123425Y-103813D01*
X123425Y-103982D01*
X123509Y-104236D01*
X123679Y-104405D01*
X123848Y-104490D01*
X124102Y-104490D01*
X124271Y-104405D01*
X124440Y-104236D01*
X124821Y-103305D02*
X124821Y-104490D01*
X124821Y-103813D02*
X124906Y-103559D01*
X125075Y-103390D01*
X125245Y-103305D01*
X125499Y-103305D01*
X125829Y-104405D02*
X125744Y-104490D01*
X125659Y-104405D01*
X125744Y-104321D01*
X125829Y-104405D01*
X125829Y-104575D01*
X125744Y-104744D01*
X125659Y-104829D01*
X128969Y-104490D02*
X128292Y-102712D01*
X127615Y-104490D01*
X127869Y-103897D02*
X128715Y-103897D01*
X130569Y-102712D02*
X129384Y-104490D01*
X129384Y-102712D02*
X130569Y-102712D01*
X129384Y-104490D02*
X130569Y-104490D01*
X134183Y-102712D02*
X133930Y-102797D01*
X133845Y-102966D01*
X133845Y-103136D01*
X133930Y-103305D01*
X134099Y-103390D01*
X134437Y-103474D01*
X134691Y-103559D01*
X134861Y-103728D01*
X134945Y-103897D01*
X134945Y-104151D01*
X134861Y-104321D01*
X134776Y-104405D01*
X134522Y-104490D01*
X134183Y-104490D01*
X133930Y-104405D01*
X133845Y-104321D01*
X133760Y-104151D01*
X133760Y-103897D01*
X133845Y-103728D01*
X134014Y-103559D01*
X134268Y-103474D01*
X134607Y-103390D01*
X134776Y-103305D01*
X134861Y-103136D01*
X134861Y-102966D01*
X134776Y-102797D01*
X134522Y-102712D01*
X134183Y-102712D01*
X136359Y-102712D02*
X135512Y-102712D01*
X135428Y-103474D01*
X135512Y-103390D01*
X135766Y-103305D01*
X136020Y-103305D01*
X136274Y-103390D01*
X136444Y-103559D01*
X136528Y-103813D01*
X136528Y-103982D01*
X136444Y-104236D01*
X136274Y-104405D01*
X136020Y-104490D01*
X135766Y-104490D01*
X135512Y-104405D01*
X135428Y-104321D01*
X135343Y-104151D01*
X137011Y-103136D02*
X137011Y-103051D01*
X137095Y-102882D01*
X137180Y-102797D01*
X137349Y-102712D01*
X137688Y-102712D01*
X137857Y-102797D01*
X137942Y-102882D01*
X138027Y-103051D01*
X138027Y-103220D01*
X137942Y-103390D01*
X137773Y-103644D01*
X136926Y-104490D01*
X138111Y-104490D01*
X138594Y-103136D02*
X138594Y-103051D01*
X138678Y-102882D01*
X138763Y-102797D01*
X138932Y-102712D01*
X139271Y-102712D01*
X139440Y-102797D01*
X139525Y-102882D01*
X139609Y-103051D01*
X139609Y-103220D01*
X139525Y-103390D01*
X139355Y-103644D01*
X138509Y-104490D01*
X139694Y-104490D01*
X140938Y-102712D02*
X140092Y-103897D01*
X141362Y-103897D01*
X140938Y-102712D02*
X140938Y-104490D01*
X114595Y-100636D02*
X114595Y-100551D01*
X114679Y-100382D01*
X114764Y-100297D01*
X114933Y-100212D01*
X115272Y-100212D01*
X115441Y-100297D01*
X115526Y-100382D01*
X115610Y-100551D01*
X115610Y-100720D01*
X115526Y-100890D01*
X115356Y-101144D01*
X114510Y-101990D01*
X115695Y-101990D01*
X116262Y-100212D02*
X117193Y-100212D01*
X116685Y-100890D01*
X116939Y-100890D01*
X117109Y-100974D01*
X117193Y-101059D01*
X117278Y-101313D01*
X117278Y-101482D01*
X117193Y-101736D01*
X117024Y-101905D01*
X116770Y-101990D01*
X116516Y-101990D01*
X116262Y-101905D01*
X116178Y-101821D01*
X116093Y-101651D01*
X118692Y-100212D02*
X117845Y-100212D01*
X117761Y-100974D01*
X117845Y-100890D01*
X118099Y-100805D01*
X118353Y-100805D01*
X118607Y-100890D01*
X118776Y-101059D01*
X118861Y-101313D01*
X118861Y-101482D01*
X118776Y-101736D01*
X118607Y-101905D01*
X118353Y-101990D01*
X118099Y-101990D01*
X117845Y-101905D01*
X117761Y-101821D01*
X117676Y-101651D01*
X120275Y-100212D02*
X119428Y-100212D01*
X119343Y-100974D01*
X119428Y-100890D01*
X119682Y-100805D01*
X119936Y-100805D01*
X120190Y-100890D01*
X120359Y-101059D01*
X120444Y-101313D01*
X120444Y-101482D01*
X120359Y-101736D01*
X120190Y-101905D01*
X119936Y-101990D01*
X119682Y-101990D01*
X119428Y-101905D01*
X119343Y-101821D01*
X119259Y-101651D01*
X122238Y-100212D02*
X122662Y-101990D01*
X123085Y-100212D02*
X122662Y-101990D01*
X123085Y-100212D02*
X123508Y-101990D01*
X123931Y-100212D02*
X123508Y-101990D01*
X124372Y-101821D02*
X124287Y-101905D01*
X124372Y-101990D01*
X124456Y-101905D01*
X124372Y-101821D01*
X127512Y-100636D02*
X127427Y-100466D01*
X127258Y-100297D01*
X127089Y-100212D01*
X126750Y-100212D01*
X126581Y-100297D01*
X126412Y-100466D01*
X126327Y-100636D01*
X126242Y-100890D01*
X126242Y-101313D01*
X126327Y-101567D01*
X126412Y-101736D01*
X126581Y-101905D01*
X126750Y-101990D01*
X127089Y-101990D01*
X127258Y-101905D01*
X127427Y-101736D01*
X127512Y-101567D01*
X128011Y-100212D02*
X128011Y-101990D01*
X128011Y-101144D02*
X128265Y-100890D01*
X128435Y-100805D01*
X128689Y-100805D01*
X128858Y-100890D01*
X128943Y-101144D01*
X128943Y-101990D01*
X130424Y-100805D02*
X130424Y-101990D01*
X130424Y-101059D02*
X130255Y-100890D01*
X130085Y-100805D01*
X129831Y-100805D01*
X129662Y-100890D01*
X129493Y-101059D01*
X129408Y-101313D01*
X129408Y-101482D01*
X129493Y-101736D01*
X129662Y-101905D01*
X129831Y-101990D01*
X130085Y-101990D01*
X130255Y-101905D01*
X130424Y-101736D01*
X130898Y-100805D02*
X130898Y-101990D01*
X130898Y-101144D02*
X131152Y-100890D01*
X131321Y-100805D01*
X131575Y-100805D01*
X131744Y-100890D01*
X131829Y-101144D01*
X131829Y-101990D01*
X133310Y-100212D02*
X133310Y-101990D01*
X133310Y-101059D02*
X133141Y-100890D01*
X132972Y-100805D01*
X132718Y-100805D01*
X132549Y-100890D01*
X132379Y-101059D01*
X132295Y-101313D01*
X132295Y-101482D01*
X132379Y-101736D01*
X132549Y-101905D01*
X132718Y-101990D01*
X132972Y-101990D01*
X133141Y-101905D01*
X133310Y-101736D01*
X133784Y-100212D02*
X133784Y-101990D01*
X134157Y-101313D02*
X135173Y-101313D01*
X135173Y-101144D01*
X135088Y-100974D01*
X135003Y-100890D01*
X134834Y-100805D01*
X134580Y-100805D01*
X134411Y-100890D01*
X134242Y-101059D01*
X134157Y-101313D01*
X134157Y-101482D01*
X134242Y-101736D01*
X134411Y-101905D01*
X134580Y-101990D01*
X134834Y-101990D01*
X135003Y-101905D01*
X135173Y-101736D01*
X135554Y-100805D02*
X135554Y-101990D01*
X135554Y-101313D02*
X135638Y-101059D01*
X135808Y-100890D01*
X135977Y-100805D01*
X136231Y-100805D01*
X137788Y-100212D02*
X137788Y-101990D01*
X137788Y-100212D02*
X138550Y-100212D01*
X138804Y-100297D01*
X138889Y-100382D01*
X138973Y-100551D01*
X138973Y-100720D01*
X138889Y-100890D01*
X138804Y-100974D01*
X138550Y-101059D01*
X137788Y-101059D02*
X138550Y-101059D01*
X138804Y-101144D01*
X138889Y-101228D01*
X138973Y-101397D01*
X138973Y-101651D01*
X138889Y-101821D01*
X138804Y-101905D01*
X138550Y-101990D01*
X137788Y-101990D01*
X139371Y-100212D02*
X139371Y-101990D01*
X139744Y-100805D02*
X140252Y-101990D01*
X140760Y-100805D02*
X140252Y-101990D01*
X142063Y-100212D02*
X142063Y-101990D01*
X142063Y-101059D02*
X141894Y-100890D01*
X141725Y-100805D01*
X141471Y-100805D01*
X141301Y-100890D01*
X141132Y-101059D01*
X141047Y-101313D01*
X141047Y-101482D01*
X141132Y-101736D01*
X141301Y-101905D01*
X141471Y-101990D01*
X141725Y-101990D01*
X141894Y-101905D01*
X142063Y-101736D01*
X142622Y-101821D02*
X142537Y-101905D01*
X142622Y-101990D01*
X142706Y-101905D01*
X142622Y-101821D01*
X113280Y-97472D02*
X113280Y-99250D01*
X113280Y-97472D02*
X113957Y-99250D01*
X114634Y-97472D02*
X113957Y-99250D01*
X114634Y-97472D02*
X114634Y-99250D01*
X115312Y-97472D02*
X115396Y-97557D01*
X115481Y-97472D01*
X115396Y-97388D01*
X115312Y-97472D01*
X115396Y-98065D02*
X115396Y-99250D01*
X116810Y-98319D02*
X116641Y-98150D01*
X116471Y-98065D01*
X116217Y-98065D01*
X116048Y-98150D01*
X115879Y-98319D01*
X115794Y-98573D01*
X115794Y-98742D01*
X115879Y-98996D01*
X116048Y-99165D01*
X116217Y-99250D01*
X116471Y-99250D01*
X116641Y-99165D01*
X116810Y-98996D01*
X117191Y-98065D02*
X117191Y-99250D01*
X117191Y-98573D02*
X117275Y-98319D01*
X117445Y-98150D01*
X117614Y-98065D01*
X117868Y-98065D01*
X118452Y-98065D02*
X118283Y-98150D01*
X118113Y-98319D01*
X118029Y-98573D01*
X118029Y-98742D01*
X118113Y-98996D01*
X118283Y-99165D01*
X118452Y-99250D01*
X118706Y-99250D01*
X118875Y-99165D01*
X119045Y-98996D01*
X119129Y-98742D01*
X119129Y-98573D01*
X119045Y-98319D01*
X118875Y-98150D01*
X118706Y-98065D01*
X118452Y-98065D01*
X120534Y-98319D02*
X120365Y-98150D01*
X120196Y-98065D01*
X119942Y-98065D01*
X119773Y-98150D01*
X119603Y-98319D01*
X119519Y-98573D01*
X119519Y-98742D01*
X119603Y-98996D01*
X119773Y-99165D01*
X119942Y-99250D01*
X120196Y-99250D01*
X120365Y-99165D01*
X120534Y-98996D01*
X120915Y-97472D02*
X120915Y-99250D01*
X120915Y-98404D02*
X121169Y-98150D01*
X121339Y-98065D01*
X121592Y-98065D01*
X121762Y-98150D01*
X121846Y-98404D01*
X121846Y-99250D01*
X122481Y-97472D02*
X122566Y-97557D01*
X122651Y-97472D01*
X122566Y-97388D01*
X122481Y-97472D01*
X122566Y-98065D02*
X122566Y-99250D01*
X122964Y-98065D02*
X122964Y-99843D01*
X122964Y-98319D02*
X123133Y-98150D01*
X123302Y-98065D01*
X123556Y-98065D01*
X123726Y-98150D01*
X123895Y-98319D01*
X123980Y-98573D01*
X123980Y-98742D01*
X123895Y-98996D01*
X123726Y-99165D01*
X123556Y-99250D01*
X123302Y-99250D01*
X123133Y-99165D01*
X122964Y-98996D01*
X126350Y-97472D02*
X126350Y-99250D01*
X125757Y-97472D02*
X126942Y-97472D01*
X127154Y-98573D02*
X128170Y-98573D01*
X128170Y-98404D01*
X128085Y-98234D01*
X128000Y-98150D01*
X127831Y-98065D01*
X127577Y-98065D01*
X127408Y-98150D01*
X127239Y-98319D01*
X127154Y-98573D01*
X127154Y-98742D01*
X127239Y-98996D01*
X127408Y-99165D01*
X127577Y-99250D01*
X127831Y-99250D01*
X128000Y-99165D01*
X128170Y-98996D01*
X129566Y-98319D02*
X129397Y-98150D01*
X129228Y-98065D01*
X128974Y-98065D01*
X128805Y-98150D01*
X128635Y-98319D01*
X128551Y-98573D01*
X128551Y-98742D01*
X128635Y-98996D01*
X128805Y-99165D01*
X128974Y-99250D01*
X129228Y-99250D01*
X129397Y-99165D01*
X129566Y-98996D01*
X129947Y-97472D02*
X129947Y-99250D01*
X129947Y-98404D02*
X130201Y-98150D01*
X130371Y-98065D01*
X130624Y-98065D01*
X130794Y-98150D01*
X130878Y-98404D01*
X130878Y-99250D01*
X131344Y-98065D02*
X131344Y-99250D01*
X131344Y-98404D02*
X131598Y-98150D01*
X131767Y-98065D01*
X132021Y-98065D01*
X132190Y-98150D01*
X132275Y-98404D01*
X132275Y-99250D01*
X133164Y-98065D02*
X132995Y-98150D01*
X132825Y-98319D01*
X132741Y-98573D01*
X132741Y-98742D01*
X132825Y-98996D01*
X132995Y-99165D01*
X133164Y-99250D01*
X133418Y-99250D01*
X133587Y-99165D01*
X133756Y-98996D01*
X133841Y-98742D01*
X133841Y-98573D01*
X133756Y-98319D01*
X133587Y-98150D01*
X133418Y-98065D01*
X133164Y-98065D01*
X134231Y-97472D02*
X134231Y-99250D01*
X135026Y-98065D02*
X134857Y-98150D01*
X134688Y-98319D01*
X134603Y-98573D01*
X134603Y-98742D01*
X134688Y-98996D01*
X134857Y-99165D01*
X135026Y-99250D01*
X135280Y-99250D01*
X135449Y-99165D01*
X135619Y-98996D01*
X135703Y-98742D01*
X135703Y-98573D01*
X135619Y-98319D01*
X135449Y-98150D01*
X135280Y-98065D01*
X135026Y-98065D01*
X137109Y-98065D02*
X137109Y-99419D01*
X137024Y-99673D01*
X136939Y-99758D01*
X136770Y-99843D01*
X136516Y-99843D01*
X136347Y-99758D01*
X137109Y-98319D02*
X136939Y-98150D01*
X136770Y-98065D01*
X136516Y-98065D01*
X136347Y-98150D01*
X136177Y-98319D01*
X136093Y-98573D01*
X136093Y-98742D01*
X136177Y-98996D01*
X136347Y-99165D01*
X136516Y-99250D01*
X136770Y-99250D01*
X136939Y-99165D01*
X137109Y-98996D01*
X137667Y-98065D02*
X138175Y-99250D01*
X138683Y-98065D02*
X138175Y-99250D01*
X138006Y-99589D01*
X137837Y-99758D01*
X137667Y-99843D01*
X137583Y-99843D01*
X140376Y-97472D02*
X140376Y-99250D01*
X140748Y-98065D02*
X140748Y-99250D01*
X140748Y-98404D02*
X141002Y-98150D01*
X141172Y-98065D01*
X141426Y-98065D01*
X141595Y-98150D01*
X141680Y-98404D01*
X141680Y-99250D01*
X143161Y-98319D02*
X142992Y-98150D01*
X142822Y-98065D01*
X142568Y-98065D01*
X142399Y-98150D01*
X142230Y-98319D01*
X142145Y-98573D01*
X142145Y-98742D01*
X142230Y-98996D01*
X142399Y-99165D01*
X142568Y-99250D01*
X142822Y-99250D01*
X142992Y-99165D01*
X143161Y-98996D01*
X143626Y-99081D02*
X143542Y-99165D01*
X143626Y-99250D01*
X143711Y-99165D01*
X143626Y-99081D01*
X174581Y-92633D02*
X174510Y-92562D01*
X174581Y-92490D01*
X174653Y-92562D01*
X174653Y-92705D01*
X174581Y-92847D01*
X174510Y-92919D01*
X175410Y-92490D02*
X175196Y-92562D01*
X175053Y-92776D01*
X174981Y-93133D01*
X174981Y-93347D01*
X175053Y-93704D01*
X175196Y-93919D01*
X175410Y-93990D01*
X175553Y-93990D01*
X175767Y-93919D01*
X175910Y-93704D01*
X175981Y-93347D01*
X175981Y-93133D01*
X175910Y-92776D01*
X175767Y-92562D01*
X175553Y-92490D01*
X175410Y-92490D01*
X177031Y-92490D02*
X176317Y-93490D01*
X177388Y-93490D01*
X177031Y-92490D02*
X177031Y-93990D01*
X177652Y-93347D02*
X178938Y-93347D01*
X179380Y-92776D02*
X179523Y-92705D01*
X179737Y-92490D01*
X179737Y-93990D01*
X180552Y-92847D02*
X180552Y-92776D01*
X180623Y-92633D01*
X180694Y-92562D01*
X180837Y-92490D01*
X181123Y-92490D01*
X181266Y-92562D01*
X181337Y-92633D01*
X181409Y-92776D01*
X181409Y-92919D01*
X181337Y-93062D01*
X181194Y-93276D01*
X180480Y-93990D01*
X181480Y-93990D01*
X182530Y-92490D02*
X181816Y-93490D01*
X182887Y-93490D01*
X182530Y-92490D02*
X182530Y-93990D01*
X183579Y-92490D02*
X183365Y-92562D01*
X183222Y-92776D01*
X183151Y-93133D01*
X183151Y-93347D01*
X183222Y-93704D01*
X183365Y-93919D01*
X183579Y-93990D01*
X183722Y-93990D01*
X183937Y-93919D01*
X184079Y-93704D01*
X184151Y-93347D01*
X184151Y-93133D01*
X184079Y-92776D01*
X183937Y-92562D01*
X183722Y-92490D01*
X183579Y-92490D01*
X185415Y-92990D02*
X185343Y-93204D01*
X185201Y-93347D01*
X184986Y-93419D01*
X184915Y-93419D01*
X184701Y-93347D01*
X184558Y-93204D01*
X184486Y-92990D01*
X184486Y-92919D01*
X184558Y-92705D01*
X184701Y-92562D01*
X184915Y-92490D01*
X184986Y-92490D01*
X185201Y-92562D01*
X185343Y-92705D01*
X185415Y-92990D01*
X185415Y-93347D01*
X185343Y-93704D01*
X185201Y-93919D01*
X184986Y-93990D01*
X184844Y-93990D01*
X184629Y-93919D01*
X184558Y-93776D01*
X185822Y-93347D02*
X187107Y-93347D01*
X187550Y-92490D02*
X187550Y-93990D01*
X187550Y-92490D02*
X188193Y-92490D01*
X188407Y-92562D01*
X188478Y-92633D01*
X188550Y-92776D01*
X188550Y-92919D01*
X188478Y-93062D01*
X188407Y-93133D01*
X188193Y-93204D01*
X187550Y-93204D01*
X188050Y-93204D02*
X188550Y-93990D01*
X188957Y-92847D02*
X188957Y-92776D01*
X189028Y-92633D01*
X189100Y-92562D01*
X189243Y-92490D01*
X189528Y-92490D01*
X189671Y-92562D01*
X189742Y-92633D01*
X189814Y-92776D01*
X189814Y-92919D01*
X189742Y-93062D01*
X189600Y-93276D01*
X188885Y-93990D01*
X189885Y-93990D01*
X190292Y-93847D02*
X190221Y-93919D01*
X190292Y-93990D01*
X190364Y-93919D01*
X190292Y-93847D01*
X191763Y-92847D02*
X191692Y-92705D01*
X191549Y-92562D01*
X191406Y-92490D01*
X191121Y-92490D01*
X190978Y-92562D01*
X190835Y-92705D01*
X190764Y-92847D01*
X190692Y-93062D01*
X190692Y-93419D01*
X190764Y-93633D01*
X190835Y-93776D01*
X190978Y-93919D01*
X191121Y-93990D01*
X191406Y-93990D01*
X191549Y-93919D01*
X191692Y-93776D01*
X191763Y-93633D01*
X191763Y-93419D01*
X191406Y-93419D02*
X191763Y-93419D01*
X192606Y-92490D02*
X192606Y-93990D01*
X192106Y-92490D02*
X193106Y-92490D01*
X193713Y-92490D02*
X193570Y-92562D01*
X193427Y-92705D01*
X193356Y-92847D01*
X193285Y-93062D01*
X193285Y-93419D01*
X193356Y-93633D01*
X193427Y-93776D01*
X193570Y-93919D01*
X193713Y-93990D01*
X193999Y-93990D01*
X194142Y-93919D01*
X194284Y-93776D01*
X194356Y-93633D01*
X194427Y-93419D01*
X194427Y-93062D01*
X194356Y-92847D01*
X194284Y-92705D01*
X194142Y-92562D01*
X193999Y-92490D01*
X193713Y-92490D01*
X194849Y-92633D02*
X194777Y-92562D01*
X194849Y-92490D01*
X194920Y-92562D01*
X194920Y-92705D01*
X194849Y-92847D01*
X194777Y-92919D01*
X201092Y-107188D02*
X201007Y-107019D01*
X200753Y-106934D01*
X200584Y-106934D01*
X200330Y-107019D01*
X200160Y-107273D01*
X200076Y-107696D01*
X200076Y-108119D01*
X200160Y-108458D01*
X200330Y-108627D01*
X200584Y-108712D01*
X200668Y-108712D01*
X200922Y-108627D01*
X201092Y-108458D01*
X201176Y-108204D01*
X201176Y-108119D01*
X201092Y-107866D01*
X200922Y-107696D01*
X200668Y-107612D01*
X200584Y-107612D01*
X200330Y-107696D01*
X200160Y-107866D01*
X200076Y-108119D01*
X137465Y-106934D02*
X136618Y-106934D01*
X136533Y-107696D01*
X136618Y-107612D01*
X136872Y-107527D01*
X137126Y-107527D01*
X137380Y-107612D01*
X137549Y-107781D01*
X137634Y-108035D01*
X137634Y-108204D01*
X137549Y-108458D01*
X137380Y-108627D01*
X137126Y-108712D01*
X136872Y-108712D01*
X136618Y-108627D01*
X136533Y-108543D01*
X136449Y-108373D01*
X73821Y-106934D02*
X72974Y-108119D01*
X74244Y-108119D01*
X73821Y-106934D02*
X73821Y-108712D01*
X9474Y-106934D02*
X10406Y-106934D01*
X9898Y-107612D01*
X10152Y-107612D01*
X10321Y-107696D01*
X10406Y-107781D01*
X10490Y-108035D01*
X10490Y-108204D01*
X10406Y-108458D01*
X10236Y-108627D01*
X9982Y-108712D01*
X9728Y-108712D01*
X9474Y-108627D01*
X9390Y-108543D01*
X9305Y-108373D01*
X-53840Y-107358D02*
X-53840Y-107273D01*
X-53755Y-107104D01*
X-53670Y-107019D01*
X-53501Y-106934D01*
X-53162Y-106934D01*
X-52993Y-107019D01*
X-52908Y-107104D01*
X-52824Y-107273D01*
X-52824Y-107442D01*
X-52908Y-107612D01*
X-53078Y-107866D01*
X-53924Y-108712D01*
X-52739Y-108712D01*
X-117314Y-107273D02*
X-117145Y-107188D01*
X-116891Y-106934D01*
X-116891Y-108712D01*
X-146685Y-80722D02*
X-146685Y-82499D01*
X-146685Y-80722D02*
X-146092Y-80722D01*
X-145839Y-80806D01*
X-145669Y-80976D01*
X-145585Y-81145D01*
X-145500Y-81399D01*
X-145500Y-81822D01*
X-145585Y-82076D01*
X-145669Y-82245D01*
X-145839Y-82415D01*
X-146092Y-82499D01*
X-146685Y-82499D01*
X-145415Y-20947D02*
X-145500Y-20778D01*
X-145669Y-20608D01*
X-145839Y-20524D01*
X-146177Y-20524D01*
X-146346Y-20608D01*
X-146516Y-20778D01*
X-146600Y-20947D01*
X-146685Y-21201D01*
X-146685Y-21624D01*
X-146600Y-21878D01*
X-146516Y-22047D01*
X-146346Y-22217D01*
X-146177Y-22301D01*
X-145839Y-22301D01*
X-145669Y-22217D01*
X-145500Y-22047D01*
X-145415Y-21878D01*
X-146685Y39801D02*
X-146685Y38024D01*
X-146685Y39801D02*
X-145923Y39801D01*
X-145669Y39717D01*
X-145585Y39632D01*
X-145500Y39463D01*
X-145500Y39294D01*
X-145585Y39124D01*
X-145669Y39040D01*
X-145923Y38955D01*
X-146685Y38955D02*
X-145923Y38955D01*
X-145669Y38870D01*
X-145585Y38786D01*
X-145500Y38616D01*
X-145500Y38362D01*
X-145585Y38193D01*
X-145669Y38108D01*
X-145923Y38024D01*
X-146685Y38024D01*
X-145331Y98476D02*
X-146008Y100253D01*
X-146685Y98476D01*
X-146431Y99068D02*
X-145585Y99068D01*
X229235Y-80722D02*
X229235Y-82499D01*
X229235Y-80722D02*
X229828Y-80722D01*
X230081Y-80806D01*
X230251Y-80976D01*
X230335Y-81145D01*
X230420Y-81399D01*
X230420Y-81822D01*
X230335Y-82076D01*
X230251Y-82245D01*
X230081Y-82415D01*
X229828Y-82499D01*
X229235Y-82499D01*
X230505Y-20947D02*
X230420Y-20778D01*
X230251Y-20608D01*
X230081Y-20524D01*
X229743Y-20524D01*
X229574Y-20608D01*
X229404Y-20778D01*
X229320Y-20947D01*
X229235Y-21201D01*
X229235Y-21624D01*
X229320Y-21878D01*
X229404Y-22047D01*
X229574Y-22217D01*
X229743Y-22301D01*
X230081Y-22301D01*
X230251Y-22217D01*
X230420Y-22047D01*
X230505Y-21878D01*
X229235Y39801D02*
X229235Y38024D01*
X229235Y39801D02*
X229997Y39801D01*
X230251Y39717D01*
X230335Y39632D01*
X230420Y39463D01*
X230420Y39294D01*
X230335Y39124D01*
X230251Y39040D01*
X229997Y38955D01*
X229235Y38955D02*
X229997Y38955D01*
X230251Y38870D01*
X230335Y38786D01*
X230420Y38616D01*
X230420Y38362D01*
X230335Y38193D01*
X230251Y38108D01*
X229997Y38024D01*
X229235Y38024D01*
X230589Y98476D02*
X229912Y100253D01*
X229235Y98476D01*
X229489Y99068D02*
X230335Y99068D01*
X201092Y129032D02*
X201007Y129201D01*
X200753Y129286D01*
X200584Y129286D01*
X200330Y129201D01*
X200160Y128947D01*
X200076Y128524D01*
X200076Y128101D01*
X200160Y127762D01*
X200330Y127593D01*
X200584Y127508D01*
X200668Y127508D01*
X200922Y127593D01*
X201092Y127762D01*
X201176Y128016D01*
X201176Y128101D01*
X201092Y128355D01*
X200922Y128524D01*
X200668Y128608D01*
X200584Y128608D01*
X200330Y128524D01*
X200160Y128355D01*
X200076Y128101D01*
X137465Y129286D02*
X136618Y129286D01*
X136533Y128524D01*
X136618Y128608D01*
X136872Y128693D01*
X137126Y128693D01*
X137380Y128608D01*
X137549Y128439D01*
X137634Y128185D01*
X137634Y128016D01*
X137549Y127762D01*
X137380Y127593D01*
X137126Y127508D01*
X136872Y127508D01*
X136618Y127593D01*
X136533Y127677D01*
X136449Y127847D01*
X73821Y129286D02*
X72974Y128101D01*
X74244Y128101D01*
X73821Y129286D02*
X73821Y127508D01*
X9474Y129286D02*
X10406Y129286D01*
X9898Y128608D01*
X10152Y128608D01*
X10321Y128524D01*
X10406Y128439D01*
X10490Y128185D01*
X10490Y128016D01*
X10406Y127762D01*
X10236Y127593D01*
X9982Y127508D01*
X9728Y127508D01*
X9474Y127593D01*
X9390Y127677D01*
X9305Y127847D01*
X-53840Y128862D02*
X-53840Y128947D01*
X-53755Y129116D01*
X-53670Y129201D01*
X-53501Y129286D01*
X-53162Y129286D01*
X-52993Y129201D01*
X-52908Y129116D01*
X-52824Y128947D01*
X-52824Y128778D01*
X-52908Y128608D01*
X-53078Y128355D01*
X-53924Y127508D01*
X-52739Y127508D01*
X-117314Y128947D02*
X-117145Y129032D01*
X-116891Y129286D01*
X-116891Y127508D01*
D13*
X174510Y-103240D02*
X174510Y-104740D01*
X174010Y-103240D02*
X175010Y-103240D01*
X175545Y-103740D02*
X175403Y-103812D01*
X175260Y-103954D01*
X175188Y-104169D01*
X175188Y-104312D01*
X175260Y-104526D01*
X175403Y-104669D01*
X175545Y-104740D01*
X175760Y-104740D01*
X175902Y-104669D01*
X176045Y-104526D01*
X176117Y-104312D01*
X176117Y-104169D01*
X176045Y-103954D01*
X175902Y-103812D01*
X175760Y-103740D01*
X175545Y-103740D01*
X176445Y-103740D02*
X176445Y-105240D01*
X176445Y-103954D02*
X176588Y-103812D01*
X176731Y-103740D01*
X176945Y-103740D01*
X177088Y-103812D01*
X177231Y-103954D01*
X177302Y-104169D01*
X177302Y-104312D01*
X177231Y-104526D01*
X177088Y-104669D01*
X176945Y-104740D01*
X176731Y-104740D01*
X176588Y-104669D01*
X176445Y-104526D01*
X179230Y-103240D02*
X179087Y-103312D01*
X178945Y-103455D01*
X178873Y-103597D01*
X178802Y-103812D01*
X178802Y-104169D01*
X178873Y-104383D01*
X178945Y-104526D01*
X179087Y-104669D01*
X179230Y-104740D01*
X179516Y-104740D01*
X179659Y-104669D01*
X179802Y-104526D01*
X179873Y-104383D01*
X179944Y-104169D01*
X179944Y-103812D01*
X179873Y-103597D01*
X179802Y-103455D01*
X179659Y-103312D01*
X179516Y-103240D01*
X179230Y-103240D01*
X180294Y-103740D02*
X180723Y-104740D01*
X181151Y-103740D02*
X180723Y-104740D01*
X181394Y-104169D02*
X182251Y-104169D01*
X182251Y-104026D01*
X182180Y-103883D01*
X182108Y-103812D01*
X181965Y-103740D01*
X181751Y-103740D01*
X181608Y-103812D01*
X181466Y-103954D01*
X181394Y-104169D01*
X181394Y-104312D01*
X181466Y-104526D01*
X181608Y-104669D01*
X181751Y-104740D01*
X181965Y-104740D01*
X182108Y-104669D01*
X182251Y-104526D01*
X182572Y-103740D02*
X182572Y-104740D01*
X182572Y-104169D02*
X182644Y-103954D01*
X182787Y-103812D01*
X182930Y-103740D01*
X183144Y-103740D01*
X183279Y-103240D02*
X183279Y-104740D01*
X184451Y-103740D02*
X184451Y-104740D01*
X184451Y-103954D02*
X184308Y-103812D01*
X184165Y-103740D01*
X183951Y-103740D01*
X183808Y-103812D01*
X183665Y-103954D01*
X183594Y-104169D01*
X183594Y-104312D01*
X183665Y-104526D01*
X183808Y-104669D01*
X183951Y-104740D01*
X184165Y-104740D01*
X184308Y-104669D01*
X184451Y-104526D01*
X184922Y-103740D02*
X185350Y-104740D01*
X185779Y-103740D02*
X185350Y-104740D01*
X185208Y-105026D01*
X185065Y-105168D01*
X184922Y-105240D01*
X184851Y-105240D01*
X146510Y-102192D02*
X147003Y-102192D01*
X147167Y-102138D01*
X147222Y-102083D01*
X147277Y-101973D01*
X147277Y-101809D01*
X147222Y-101700D01*
X147167Y-101645D01*
X147003Y-101590D01*
X146510Y-101590D01*
X146510Y-102740D01*
X148355Y-101864D02*
X148300Y-101754D01*
X148191Y-101645D01*
X148081Y-101590D01*
X147862Y-101590D01*
X147753Y-101645D01*
X147643Y-101754D01*
X147589Y-101864D01*
X147534Y-102028D01*
X147534Y-102302D01*
X147589Y-102466D01*
X147643Y-102576D01*
X147753Y-102685D01*
X147862Y-102740D01*
X148081Y-102740D01*
X148191Y-102685D01*
X148300Y-102576D01*
X148355Y-102466D01*
X148678Y-101590D02*
X148678Y-102740D01*
X148678Y-101590D02*
X149171Y-101590D01*
X149335Y-101645D01*
X149390Y-101700D01*
X149445Y-101809D01*
X149445Y-101919D01*
X149390Y-102028D01*
X149335Y-102083D01*
X149171Y-102138D01*
X148678Y-102138D02*
X149171Y-102138D01*
X149335Y-102192D01*
X149390Y-102247D01*
X149445Y-102357D01*
X149445Y-102521D01*
X149390Y-102630D01*
X149335Y-102685D01*
X149171Y-102740D01*
X148678Y-102740D01*
X150605Y-101590D02*
X150605Y-102740D01*
X150605Y-101590D02*
X151317Y-101590D01*
X150605Y-102138D02*
X151043Y-102138D01*
X151448Y-101590D02*
X151448Y-102740D01*
X151689Y-101590D02*
X151689Y-102740D01*
X152346Y-102740D01*
X153184Y-101590D02*
X152472Y-101590D01*
X152472Y-102740D01*
X153184Y-102740D01*
X152472Y-102138D02*
X152910Y-102138D01*
X154279Y-101590D02*
X154279Y-102740D01*
X154279Y-101590D02*
X155046Y-102740D01*
X155046Y-101590D02*
X155046Y-102740D01*
X156239Y-102740D02*
X155801Y-101590D01*
X155363Y-102740D01*
X155527Y-102357D02*
X156075Y-102357D01*
X156507Y-101590D02*
X156507Y-102740D01*
X156507Y-101590D02*
X156945Y-102740D01*
X157383Y-101590D02*
X156945Y-102740D01*
X157383Y-101590D02*
X157383Y-102740D01*
X158424Y-101590D02*
X157712Y-101590D01*
X157712Y-102740D01*
X158424Y-102740D01*
X157712Y-102138D02*
X158150Y-102138D01*
X158670Y-101973D02*
X158615Y-102028D01*
X158670Y-102083D01*
X158725Y-102028D01*
X158670Y-101973D01*
X158670Y-102630D02*
X158615Y-102685D01*
X158670Y-102740D01*
X158725Y-102685D01*
X158670Y-102630D01*
X146510Y-103740D02*
X146510Y-104740D01*
X146510Y-103740D02*
X146891Y-104740D01*
X147272Y-103740D02*
X146891Y-104740D01*
X147272Y-103740D02*
X147272Y-104740D01*
X147891Y-103740D02*
X147891Y-104740D01*
X147557Y-103740D02*
X148224Y-103740D01*
X149057Y-103978D02*
X149009Y-103883D01*
X148914Y-103788D01*
X148819Y-103740D01*
X148629Y-103740D01*
X148533Y-103788D01*
X148438Y-103883D01*
X148391Y-103978D01*
X148343Y-104121D01*
X148343Y-104359D01*
X148391Y-104502D01*
X148438Y-104597D01*
X148533Y-104692D01*
X148629Y-104740D01*
X148819Y-104740D01*
X148914Y-104692D01*
X149009Y-104597D01*
X149057Y-104502D01*
X149338Y-103740D02*
X149338Y-104740D01*
X150005Y-103740D02*
X150005Y-104740D01*
X149338Y-104216D02*
X150005Y-104216D01*
X150900Y-104073D02*
X150852Y-104216D01*
X150757Y-104312D01*
X150614Y-104359D01*
X150566Y-104359D01*
X150423Y-104312D01*
X150328Y-104216D01*
X150281Y-104073D01*
X150281Y-104026D01*
X150328Y-103883D01*
X150423Y-103788D01*
X150566Y-103740D01*
X150614Y-103740D01*
X150757Y-103788D01*
X150852Y-103883D01*
X150900Y-104073D01*
X150900Y-104312D01*
X150852Y-104550D01*
X150757Y-104692D01*
X150614Y-104740D01*
X150519Y-104740D01*
X150376Y-104692D01*
X150328Y-104597D01*
X151457Y-103740D02*
X151314Y-103788D01*
X151219Y-103931D01*
X151171Y-104169D01*
X151171Y-104312D01*
X151219Y-104550D01*
X151314Y-104692D01*
X151457Y-104740D01*
X151552Y-104740D01*
X151695Y-104692D01*
X151790Y-104550D01*
X151837Y-104312D01*
X151837Y-104169D01*
X151790Y-103931D01*
X151695Y-103788D01*
X151552Y-103740D01*
X151457Y-103740D01*
X152061Y-103931D02*
X152156Y-103883D01*
X152299Y-103740D01*
X152299Y-104740D01*
X153080Y-103740D02*
X152937Y-103788D01*
X152842Y-103931D01*
X152794Y-104169D01*
X152794Y-104312D01*
X152842Y-104550D01*
X152937Y-104692D01*
X153080Y-104740D01*
X153175Y-104740D01*
X153318Y-104692D01*
X153413Y-104550D01*
X153461Y-104312D01*
X153461Y-104169D01*
X153413Y-103931D01*
X153318Y-103788D01*
X153175Y-103740D01*
X153080Y-103740D01*
X153685Y-105073D02*
X154446Y-105073D01*
X155241Y-103883D02*
X155146Y-103788D01*
X155003Y-103740D01*
X154813Y-103740D01*
X154670Y-103788D01*
X154575Y-103883D01*
X154575Y-103978D01*
X154623Y-104073D01*
X154670Y-104121D01*
X154765Y-104169D01*
X155051Y-104264D01*
X155146Y-104312D01*
X155194Y-104359D01*
X155241Y-104454D01*
X155241Y-104597D01*
X155146Y-104692D01*
X155003Y-104740D01*
X154813Y-104740D01*
X154670Y-104692D01*
X154575Y-104597D01*
X155465Y-104359D02*
X156037Y-104359D01*
X156037Y-104264D01*
X155989Y-104169D01*
X155941Y-104121D01*
X155846Y-104073D01*
X155703Y-104073D01*
X155608Y-104121D01*
X155513Y-104216D01*
X155465Y-104359D01*
X155465Y-104454D01*
X155513Y-104597D01*
X155608Y-104692D01*
X155703Y-104740D01*
X155846Y-104740D01*
X155941Y-104692D01*
X156037Y-104597D01*
X156251Y-104073D02*
X156251Y-104740D01*
X156251Y-104264D02*
X156394Y-104121D01*
X156489Y-104073D01*
X156632Y-104073D01*
X156727Y-104121D01*
X156774Y-104264D01*
X156774Y-104740D01*
X157560Y-104216D02*
X157512Y-104121D01*
X157370Y-104073D01*
X157227Y-104073D01*
X157084Y-104121D01*
X157036Y-104216D01*
X157084Y-104312D01*
X157179Y-104359D01*
X157417Y-104407D01*
X157512Y-104454D01*
X157560Y-104550D01*
X157560Y-104597D01*
X157512Y-104692D01*
X157370Y-104740D01*
X157227Y-104740D01*
X157084Y-104692D01*
X157036Y-104597D01*
X158008Y-104073D02*
X157912Y-104121D01*
X157817Y-104216D01*
X157770Y-104359D01*
X157770Y-104454D01*
X157817Y-104597D01*
X157912Y-104692D01*
X158008Y-104740D01*
X158150Y-104740D01*
X158246Y-104692D01*
X158341Y-104597D01*
X158388Y-104454D01*
X158388Y-104359D01*
X158341Y-104216D01*
X158246Y-104121D01*
X158150Y-104073D01*
X158008Y-104073D01*
X158607Y-104073D02*
X158607Y-104740D01*
X158607Y-104359D02*
X158655Y-104216D01*
X158750Y-104121D01*
X158845Y-104073D01*
X158988Y-104073D01*
X159602Y-104216D02*
X159555Y-104121D01*
X159412Y-104073D01*
X159269Y-104073D01*
X159126Y-104121D01*
X159079Y-104216D01*
X159126Y-104312D01*
X159222Y-104359D01*
X159460Y-104407D01*
X159555Y-104454D01*
X159602Y-104550D01*
X159602Y-104597D01*
X159555Y-104692D01*
X159412Y-104740D01*
X159269Y-104740D01*
X159126Y-104692D01*
X159079Y-104597D01*
X159860Y-104645D02*
X159812Y-104692D01*
X159860Y-104740D01*
X159907Y-104692D01*
X159860Y-104645D01*
X160126Y-104264D02*
X160555Y-104264D01*
X160697Y-104216D01*
X160745Y-104169D01*
X160793Y-104073D01*
X160793Y-103931D01*
X160745Y-103835D01*
X160697Y-103788D01*
X160555Y-103740D01*
X160126Y-103740D01*
X160126Y-104740D01*
X161588Y-104216D02*
X161493Y-104121D01*
X161397Y-104073D01*
X161254Y-104073D01*
X161159Y-104121D01*
X161064Y-104216D01*
X161016Y-104359D01*
X161016Y-104454D01*
X161064Y-104597D01*
X161159Y-104692D01*
X161254Y-104740D01*
X161397Y-104740D01*
X161493Y-104692D01*
X161588Y-104597D01*
X161802Y-103740D02*
X161802Y-104740D01*
X161802Y-104216D02*
X161897Y-104121D01*
X161992Y-104073D01*
X162135Y-104073D01*
X162230Y-104121D01*
X162326Y-104216D01*
X162373Y-104359D01*
X162373Y-104454D01*
X162326Y-104597D01*
X162230Y-104692D01*
X162135Y-104740D01*
X161992Y-104740D01*
X161897Y-104692D01*
X161802Y-104597D01*
X162588Y-103740D02*
X162588Y-104740D01*
X162588Y-103740D02*
X162921Y-103740D01*
X163064Y-103788D01*
X163159Y-103883D01*
X163206Y-103978D01*
X163254Y-104121D01*
X163254Y-104359D01*
X163206Y-104502D01*
X163159Y-104597D01*
X163064Y-104692D01*
X162921Y-104740D01*
X162588Y-104740D01*
X163716Y-104073D02*
X163621Y-104121D01*
X163525Y-104216D01*
X163478Y-104359D01*
X163478Y-104454D01*
X163525Y-104597D01*
X163621Y-104692D01*
X163716Y-104740D01*
X163859Y-104740D01*
X163954Y-104692D01*
X164049Y-104597D01*
X164097Y-104454D01*
X164097Y-104359D01*
X164049Y-104216D01*
X163954Y-104121D01*
X163859Y-104073D01*
X163716Y-104073D01*
X164887Y-104216D02*
X164792Y-104121D01*
X164697Y-104073D01*
X164554Y-104073D01*
X164459Y-104121D01*
X164363Y-104216D01*
X164316Y-104359D01*
X164316Y-104454D01*
X164363Y-104597D01*
X164459Y-104692D01*
X164554Y-104740D01*
X164697Y-104740D01*
X164792Y-104692D01*
X164887Y-104597D01*
X146510Y-90442D02*
X147003Y-90442D01*
X147167Y-90388D01*
X147222Y-90333D01*
X147277Y-90223D01*
X147277Y-90059D01*
X147222Y-89950D01*
X147167Y-89895D01*
X147003Y-89840D01*
X146510Y-89840D01*
X146510Y-90990D01*
X148355Y-90114D02*
X148300Y-90004D01*
X148191Y-89895D01*
X148081Y-89840D01*
X147862Y-89840D01*
X147753Y-89895D01*
X147643Y-90004D01*
X147589Y-90114D01*
X147534Y-90278D01*
X147534Y-90552D01*
X147589Y-90716D01*
X147643Y-90826D01*
X147753Y-90935D01*
X147862Y-90990D01*
X148081Y-90990D01*
X148191Y-90935D01*
X148300Y-90826D01*
X148355Y-90716D01*
X148678Y-89840D02*
X148678Y-90990D01*
X148678Y-89840D02*
X149171Y-89840D01*
X149335Y-89895D01*
X149390Y-89950D01*
X149445Y-90059D01*
X149445Y-90169D01*
X149390Y-90278D01*
X149335Y-90333D01*
X149171Y-90388D01*
X148678Y-90388D02*
X149171Y-90388D01*
X149335Y-90442D01*
X149390Y-90497D01*
X149445Y-90607D01*
X149445Y-90771D01*
X149390Y-90880D01*
X149335Y-90935D01*
X149171Y-90990D01*
X148678Y-90990D01*
X150605Y-89840D02*
X150605Y-90990D01*
X151262Y-90990D01*
X152045Y-90223D02*
X152045Y-90990D01*
X152045Y-90388D02*
X151936Y-90278D01*
X151826Y-90223D01*
X151662Y-90223D01*
X151553Y-90278D01*
X151443Y-90388D01*
X151388Y-90552D01*
X151388Y-90661D01*
X151443Y-90826D01*
X151553Y-90935D01*
X151662Y-90990D01*
X151826Y-90990D01*
X151936Y-90935D01*
X152045Y-90826D01*
X152407Y-90223D02*
X152735Y-90990D01*
X153064Y-90223D02*
X152735Y-90990D01*
X152626Y-91209D01*
X152516Y-91318D01*
X152407Y-91373D01*
X152352Y-91373D01*
X153529Y-90223D02*
X153419Y-90278D01*
X153310Y-90388D01*
X153255Y-90552D01*
X153255Y-90661D01*
X153310Y-90826D01*
X153419Y-90935D01*
X153529Y-90990D01*
X153693Y-90990D01*
X153803Y-90935D01*
X153912Y-90826D01*
X153967Y-90661D01*
X153967Y-90552D01*
X153912Y-90388D01*
X153803Y-90278D01*
X153693Y-90223D01*
X153529Y-90223D01*
X154219Y-90223D02*
X154219Y-90771D01*
X154274Y-90935D01*
X154383Y-90990D01*
X154547Y-90990D01*
X154657Y-90935D01*
X154821Y-90771D01*
X154821Y-90223D02*
X154821Y-90990D01*
X155286Y-89840D02*
X155286Y-90771D01*
X155341Y-90935D01*
X155451Y-90990D01*
X155560Y-90990D01*
X155122Y-90223D02*
X155505Y-90223D01*
X157449Y-90114D02*
X157394Y-90004D01*
X157285Y-89895D01*
X157175Y-89840D01*
X156956Y-89840D01*
X156847Y-89895D01*
X156737Y-90004D01*
X156683Y-90114D01*
X156628Y-90278D01*
X156628Y-90552D01*
X156683Y-90716D01*
X156737Y-90826D01*
X156847Y-90935D01*
X156956Y-90990D01*
X157175Y-90990D01*
X157285Y-90935D01*
X157394Y-90826D01*
X157449Y-90716D01*
X158046Y-90223D02*
X157936Y-90278D01*
X157827Y-90388D01*
X157772Y-90552D01*
X157772Y-90661D01*
X157827Y-90826D01*
X157936Y-90935D01*
X158046Y-90990D01*
X158210Y-90990D01*
X158320Y-90935D01*
X158429Y-90826D01*
X158484Y-90661D01*
X158484Y-90552D01*
X158429Y-90388D01*
X158320Y-90278D01*
X158210Y-90223D01*
X158046Y-90223D01*
X158736Y-90223D02*
X158736Y-90990D01*
X158736Y-90442D02*
X158900Y-90278D01*
X159009Y-90223D01*
X159174Y-90223D01*
X159283Y-90278D01*
X159338Y-90442D01*
X159338Y-90990D01*
X159803Y-89840D02*
X159803Y-90771D01*
X159858Y-90935D01*
X159968Y-90990D01*
X160077Y-90990D01*
X159639Y-90223D02*
X160022Y-90223D01*
X160898Y-90223D02*
X160898Y-90990D01*
X160898Y-90388D02*
X160789Y-90278D01*
X160679Y-90223D01*
X160515Y-90223D01*
X160406Y-90278D01*
X160296Y-90388D01*
X160241Y-90552D01*
X160241Y-90661D01*
X160296Y-90826D01*
X160406Y-90935D01*
X160515Y-90990D01*
X160679Y-90990D01*
X160789Y-90935D01*
X160898Y-90826D01*
X161862Y-90388D02*
X161752Y-90278D01*
X161643Y-90223D01*
X161479Y-90223D01*
X161369Y-90278D01*
X161260Y-90388D01*
X161205Y-90552D01*
X161205Y-90661D01*
X161260Y-90826D01*
X161369Y-90935D01*
X161479Y-90990D01*
X161643Y-90990D01*
X161752Y-90935D01*
X161862Y-90826D01*
X162273Y-89840D02*
X162273Y-90771D01*
X162327Y-90935D01*
X162437Y-90990D01*
X162546Y-90990D01*
X162108Y-90223D02*
X162492Y-90223D01*
X162765Y-90223D02*
X162711Y-90278D01*
X162765Y-90333D01*
X162820Y-90278D01*
X162765Y-90223D01*
X162765Y-90880D02*
X162711Y-90935D01*
X162765Y-90990D01*
X162820Y-90935D01*
X162765Y-90880D01*
X146510Y-96442D02*
X147003Y-96442D01*
X147167Y-96388D01*
X147222Y-96333D01*
X147277Y-96223D01*
X147277Y-96059D01*
X147222Y-95950D01*
X147167Y-95895D01*
X147003Y-95840D01*
X146510Y-95840D01*
X146510Y-96990D01*
X147534Y-96223D02*
X147534Y-96990D01*
X147534Y-96552D02*
X147589Y-96388D01*
X147698Y-96278D01*
X147808Y-96223D01*
X147972Y-96223D01*
X148350Y-96223D02*
X148240Y-96278D01*
X148131Y-96388D01*
X148076Y-96552D01*
X148076Y-96661D01*
X148131Y-96826D01*
X148240Y-96935D01*
X148350Y-96990D01*
X148514Y-96990D01*
X148623Y-96935D01*
X148733Y-96826D01*
X148788Y-96661D01*
X148788Y-96552D01*
X148733Y-96388D01*
X148623Y-96278D01*
X148514Y-96223D01*
X148350Y-96223D01*
X149258Y-95840D02*
X149313Y-95895D01*
X149368Y-95840D01*
X149313Y-95785D01*
X149258Y-95840D01*
X149313Y-96223D02*
X149313Y-97154D01*
X149258Y-97318D01*
X149149Y-97373D01*
X149039Y-97373D01*
X149581Y-96552D02*
X150238Y-96552D01*
X150238Y-96442D01*
X150184Y-96333D01*
X150129Y-96278D01*
X150020Y-96223D01*
X149855Y-96223D01*
X149746Y-96278D01*
X149636Y-96388D01*
X149581Y-96552D01*
X149581Y-96661D01*
X149636Y-96826D01*
X149746Y-96935D01*
X149855Y-96990D01*
X150020Y-96990D01*
X150129Y-96935D01*
X150238Y-96826D01*
X151142Y-96388D02*
X151032Y-96278D01*
X150923Y-96223D01*
X150759Y-96223D01*
X150649Y-96278D01*
X150540Y-96388D01*
X150485Y-96552D01*
X150485Y-96661D01*
X150540Y-96826D01*
X150649Y-96935D01*
X150759Y-96990D01*
X150923Y-96990D01*
X151032Y-96935D01*
X151142Y-96826D01*
X151553Y-95840D02*
X151553Y-96771D01*
X151607Y-96935D01*
X151717Y-96990D01*
X151826Y-96990D01*
X151388Y-96223D02*
X151771Y-96223D01*
X153222Y-95840D02*
X153113Y-95895D01*
X153003Y-96004D01*
X152949Y-96114D01*
X152894Y-96278D01*
X152894Y-96552D01*
X152949Y-96716D01*
X153003Y-96826D01*
X153113Y-96935D01*
X153222Y-96990D01*
X153441Y-96990D01*
X153551Y-96935D01*
X153660Y-96826D01*
X153715Y-96716D01*
X153770Y-96552D01*
X153770Y-96278D01*
X153715Y-96114D01*
X153660Y-96004D01*
X153551Y-95895D01*
X153441Y-95840D01*
X153222Y-95840D01*
X154038Y-96223D02*
X154257Y-96990D01*
X154476Y-96223D02*
X154257Y-96990D01*
X154476Y-96223D02*
X154695Y-96990D01*
X154914Y-96223D02*
X154695Y-96990D01*
X155182Y-96223D02*
X155182Y-96990D01*
X155182Y-96442D02*
X155347Y-96278D01*
X155456Y-96223D01*
X155620Y-96223D01*
X155730Y-96278D01*
X155785Y-96442D01*
X155785Y-96990D01*
X156086Y-96552D02*
X156743Y-96552D01*
X156743Y-96442D01*
X156688Y-96333D01*
X156633Y-96278D01*
X156524Y-96223D01*
X156360Y-96223D01*
X156250Y-96278D01*
X156141Y-96388D01*
X156086Y-96552D01*
X156086Y-96661D01*
X156141Y-96826D01*
X156250Y-96935D01*
X156360Y-96990D01*
X156524Y-96990D01*
X156633Y-96935D01*
X156743Y-96826D01*
X156989Y-96223D02*
X156989Y-96990D01*
X156989Y-96552D02*
X157044Y-96388D01*
X157153Y-96278D01*
X157263Y-96223D01*
X157427Y-96223D01*
X157586Y-96223D02*
X157531Y-96278D01*
X157586Y-96333D01*
X157641Y-96278D01*
X157586Y-96223D01*
X157586Y-96880D02*
X157531Y-96935D01*
X157586Y-96990D01*
X157641Y-96935D01*
X157586Y-96880D01*
X174510Y-96442D02*
X175003Y-96442D01*
X175167Y-96388D01*
X175222Y-96333D01*
X175277Y-96223D01*
X175277Y-96059D01*
X175222Y-95950D01*
X175167Y-95895D01*
X175003Y-95840D01*
X174510Y-95840D01*
X174510Y-96990D01*
X176355Y-96114D02*
X176300Y-96004D01*
X176191Y-95895D01*
X176081Y-95840D01*
X175862Y-95840D01*
X175753Y-95895D01*
X175643Y-96004D01*
X175589Y-96114D01*
X175534Y-96278D01*
X175534Y-96552D01*
X175589Y-96716D01*
X175643Y-96826D01*
X175753Y-96935D01*
X175862Y-96990D01*
X176081Y-96990D01*
X176191Y-96935D01*
X176300Y-96826D01*
X176355Y-96716D01*
X176678Y-95840D02*
X176678Y-96990D01*
X176678Y-95840D02*
X177171Y-95840D01*
X177335Y-95895D01*
X177390Y-95950D01*
X177445Y-96059D01*
X177445Y-96169D01*
X177390Y-96278D01*
X177335Y-96333D01*
X177171Y-96388D01*
X176678Y-96388D02*
X177171Y-96388D01*
X177335Y-96442D01*
X177390Y-96497D01*
X177445Y-96607D01*
X177445Y-96771D01*
X177390Y-96880D01*
X177335Y-96935D01*
X177171Y-96990D01*
X176678Y-96990D01*
X178605Y-95840D02*
X178605Y-96990D01*
X178605Y-95840D02*
X179372Y-96990D01*
X179372Y-95840D02*
X179372Y-96990D01*
X179689Y-95840D02*
X179689Y-96661D01*
X179744Y-96826D01*
X179854Y-96935D01*
X180018Y-96990D01*
X180127Y-96990D01*
X180292Y-96935D01*
X180401Y-96826D01*
X180456Y-96661D01*
X180456Y-95840D01*
X180773Y-95840D02*
X180773Y-96990D01*
X180773Y-95840D02*
X181211Y-96990D01*
X181649Y-95840D02*
X181211Y-96990D01*
X181649Y-95840D02*
X181649Y-96990D01*
X181978Y-95840D02*
X181978Y-96990D01*
X181978Y-95840D02*
X182471Y-95840D01*
X182635Y-95895D01*
X182690Y-95950D01*
X182744Y-96059D01*
X182744Y-96169D01*
X182690Y-96278D01*
X182635Y-96333D01*
X182471Y-96388D01*
X181978Y-96388D02*
X182471Y-96388D01*
X182635Y-96442D01*
X182690Y-96497D01*
X182744Y-96607D01*
X182744Y-96771D01*
X182690Y-96880D01*
X182635Y-96935D01*
X182471Y-96990D01*
X181978Y-96990D01*
X183714Y-95840D02*
X183002Y-95840D01*
X183002Y-96990D01*
X183714Y-96990D01*
X183002Y-96388D02*
X183440Y-96388D01*
X183905Y-95840D02*
X183905Y-96990D01*
X183905Y-95840D02*
X184398Y-95840D01*
X184562Y-95895D01*
X184617Y-95950D01*
X184672Y-96059D01*
X184672Y-96169D01*
X184617Y-96278D01*
X184562Y-96333D01*
X184398Y-96388D01*
X183905Y-96388D01*
X184288Y-96388D02*
X184672Y-96990D01*
X184984Y-96223D02*
X184929Y-96278D01*
X184984Y-96333D01*
X185038Y-96278D01*
X184984Y-96223D01*
X184984Y-96880D02*
X184929Y-96935D01*
X184984Y-96990D01*
X185038Y-96935D01*
X184984Y-96880D01*
X175331Y-90114D02*
X175277Y-90004D01*
X175167Y-89895D01*
X175058Y-89840D01*
X174839Y-89840D01*
X174729Y-89895D01*
X174620Y-90004D01*
X174565Y-90114D01*
X174510Y-90278D01*
X174510Y-90552D01*
X174565Y-90716D01*
X174620Y-90826D01*
X174729Y-90935D01*
X174839Y-90990D01*
X175058Y-90990D01*
X175167Y-90935D01*
X175277Y-90826D01*
X175331Y-90716D01*
X175331Y-90552D01*
X175058Y-90552D02*
X175331Y-90552D01*
X176306Y-89840D02*
X175594Y-89840D01*
X175594Y-90990D01*
X176306Y-90990D01*
X175594Y-90388D02*
X176032Y-90388D01*
X176497Y-89840D02*
X176497Y-90990D01*
X176497Y-89840D02*
X176990Y-89840D01*
X177154Y-89895D01*
X177209Y-89950D01*
X177264Y-90059D01*
X177264Y-90169D01*
X177209Y-90278D01*
X177154Y-90333D01*
X176990Y-90388D01*
X176497Y-90388D01*
X176881Y-90388D02*
X177264Y-90990D01*
X177521Y-89840D02*
X177521Y-90990D01*
X177521Y-89840D02*
X178014Y-89840D01*
X178178Y-89895D01*
X178233Y-89950D01*
X178288Y-90059D01*
X178288Y-90169D01*
X178233Y-90278D01*
X178178Y-90333D01*
X178014Y-90388D01*
X177521Y-90388D02*
X178014Y-90388D01*
X178178Y-90442D01*
X178233Y-90497D01*
X178288Y-90607D01*
X178288Y-90771D01*
X178233Y-90880D01*
X178178Y-90935D01*
X178014Y-90990D01*
X177521Y-90990D01*
X179257Y-89840D02*
X178545Y-89840D01*
X178545Y-90990D01*
X179257Y-90990D01*
X178545Y-90388D02*
X178983Y-90388D01*
X179448Y-89840D02*
X179448Y-90990D01*
X179448Y-89840D02*
X179941Y-89840D01*
X180105Y-89895D01*
X180160Y-89950D01*
X180215Y-90059D01*
X180215Y-90169D01*
X180160Y-90278D01*
X180105Y-90333D01*
X179941Y-90388D01*
X179448Y-90388D01*
X179832Y-90388D02*
X180215Y-90990D01*
X181376Y-89840D02*
X181376Y-90990D01*
X181376Y-89840D02*
X182087Y-89840D01*
X181376Y-90388D02*
X181814Y-90388D01*
X182219Y-89840D02*
X182219Y-90990D01*
X182460Y-89840D02*
X182460Y-90990D01*
X183117Y-90990D01*
X183954Y-89840D02*
X183243Y-89840D01*
X183243Y-90990D01*
X183954Y-90990D01*
X183243Y-90388D02*
X183681Y-90388D01*
X184201Y-90223D02*
X184146Y-90278D01*
X184201Y-90333D01*
X184256Y-90278D01*
X184201Y-90223D01*
X184201Y-90880D02*
X184146Y-90935D01*
X184201Y-90990D01*
X184256Y-90935D01*
X184201Y-90880D01*
X213281Y-98847D02*
X213281Y-98776D01*
X213353Y-98633D01*
X213424Y-98562D01*
X213567Y-98490D01*
X213853Y-98490D01*
X213996Y-98562D01*
X214067Y-98633D01*
X214138Y-98776D01*
X214138Y-98919D01*
X214067Y-99062D01*
X213924Y-99276D01*
X213210Y-99990D01*
X214210Y-99990D01*
X214974Y-98490D02*
X214760Y-98562D01*
X214617Y-98776D01*
X214545Y-99133D01*
X214545Y-99347D01*
X214617Y-99704D01*
X214760Y-99919D01*
X214974Y-99990D01*
X215117Y-99990D01*
X215331Y-99919D01*
X215474Y-99704D01*
X215545Y-99347D01*
X215545Y-99133D01*
X215474Y-98776D01*
X215331Y-98562D01*
X215117Y-98490D01*
X214974Y-98490D01*
X215952Y-98847D02*
X215952Y-98776D01*
X216024Y-98633D01*
X216095Y-98562D01*
X216238Y-98490D01*
X216524Y-98490D01*
X216666Y-98562D01*
X216738Y-98633D01*
X216809Y-98776D01*
X216809Y-98919D01*
X216738Y-99062D01*
X216595Y-99276D01*
X215881Y-99990D01*
X216881Y-99990D01*
X218073Y-98490D02*
X217359Y-98490D01*
X217288Y-99133D01*
X217359Y-99062D01*
X217573Y-98990D01*
X217788Y-98990D01*
X218002Y-99062D01*
X218145Y-99204D01*
X218216Y-99419D01*
X218216Y-99562D01*
X218145Y-99776D01*
X218002Y-99919D01*
X217788Y-99990D01*
X217573Y-99990D01*
X217359Y-99919D01*
X217288Y-99847D01*
X217216Y-99704D01*
X218552Y-99347D02*
X219837Y-99347D01*
X220708Y-98490D02*
X220494Y-98562D01*
X220351Y-98776D01*
X220280Y-99133D01*
X220280Y-99347D01*
X220351Y-99704D01*
X220494Y-99919D01*
X220708Y-99990D01*
X220851Y-99990D01*
X221065Y-99919D01*
X221208Y-99704D01*
X221280Y-99347D01*
X221280Y-99133D01*
X221208Y-98776D01*
X221065Y-98562D01*
X220851Y-98490D01*
X220708Y-98490D01*
X222329Y-98490D02*
X221615Y-99490D01*
X222687Y-99490D01*
X222329Y-98490D02*
X222329Y-99990D01*
X222951Y-99347D02*
X224236Y-99347D01*
X224679Y-98776D02*
X224822Y-98705D01*
X225036Y-98490D01*
X225036Y-99990D01*
X226493Y-98490D02*
X225779Y-99490D01*
X226850Y-99490D01*
X226493Y-98490D02*
X226493Y-99990D01*
X198510Y-81514D02*
X198939Y-81514D01*
X199081Y-81466D01*
X199129Y-81419D01*
X199177Y-81323D01*
X199177Y-81181D01*
X199129Y-81085D01*
X199081Y-81038D01*
X198939Y-80990D01*
X198510Y-80990D01*
X198510Y-81990D01*
X200162Y-81990D02*
X199781Y-80990D01*
X199400Y-81990D01*
X199543Y-81657D02*
X200019Y-81657D01*
X200395Y-80990D02*
X200395Y-81990D01*
X200395Y-80990D02*
X200824Y-80990D01*
X200967Y-81038D01*
X201014Y-81085D01*
X201062Y-81181D01*
X201062Y-81276D01*
X201014Y-81371D01*
X200967Y-81419D01*
X200824Y-81466D01*
X200395Y-81466D01*
X200729Y-81466D02*
X201062Y-81990D01*
X201619Y-80990D02*
X201619Y-81990D01*
X201286Y-80990D02*
X201952Y-80990D01*
X202857Y-80990D02*
X202857Y-81990D01*
X202857Y-80990D02*
X203523Y-81990D01*
X203523Y-80990D02*
X203523Y-81990D01*
X203799Y-80990D02*
X203799Y-81704D01*
X203847Y-81847D01*
X203942Y-81942D01*
X204085Y-81990D01*
X204180Y-81990D01*
X204323Y-81942D01*
X204418Y-81847D01*
X204466Y-81704D01*
X204466Y-80990D01*
X204742Y-80990D02*
X204742Y-81990D01*
X204742Y-80990D02*
X205123Y-81990D01*
X205504Y-80990D02*
X205123Y-81990D01*
X205504Y-80990D02*
X205504Y-81990D01*
X205789Y-80990D02*
X205789Y-81990D01*
X205789Y-80990D02*
X206218Y-80990D01*
X206361Y-81038D01*
X206408Y-81085D01*
X206456Y-81181D01*
X206456Y-81276D01*
X206408Y-81371D01*
X206361Y-81419D01*
X206218Y-81466D01*
X205789Y-81466D02*
X206218Y-81466D01*
X206361Y-81514D01*
X206408Y-81561D01*
X206456Y-81657D01*
X206456Y-81800D01*
X206408Y-81895D01*
X206361Y-81942D01*
X206218Y-81990D01*
X205789Y-81990D01*
X207299Y-80990D02*
X206680Y-80990D01*
X206680Y-81990D01*
X207299Y-81990D01*
X206680Y-81466D02*
X207061Y-81466D01*
X207465Y-80990D02*
X207465Y-81990D01*
X207465Y-80990D02*
X207894Y-80990D01*
X208037Y-81038D01*
X208084Y-81085D01*
X208132Y-81181D01*
X208132Y-81276D01*
X208084Y-81371D01*
X208037Y-81419D01*
X207894Y-81466D01*
X207465Y-81466D01*
X207799Y-81466D02*
X208132Y-81990D01*
X208403Y-81323D02*
X208356Y-81371D01*
X208403Y-81419D01*
X208451Y-81371D01*
X208403Y-81323D01*
X208403Y-81895D02*
X208356Y-81942D01*
X208403Y-81990D01*
X208451Y-81942D01*
X208403Y-81895D01*
D14*
X204510Y-105410D02*
X204510Y-100990D01*
X173510Y-105410D02*
X173510Y-88990D01*
X191510Y-100990D02*
X191510Y-94990D01*
X212010Y-105410D02*
X212010Y-94990D01*
X111510Y-105410D02*
X111510Y-79990D01*
X145510Y-105410D02*
X145510Y-79990D01*
X227330Y-105410D02*
X227330Y-79990D01*
X111510Y-105410D02*
X227330Y-105410D01*
X145510Y-100990D02*
X227330Y-100990D01*
X145510Y-94990D02*
X227330Y-94990D01*
X145510Y-88990D02*
X227330Y-88990D01*
X111510Y-79990D02*
X227330Y-79990D01*
X77470Y-105410D02*
X113030Y-105410D01*
X-85090Y-110490D02*
X-85090Y-105410D01*
X-148590Y-50165D02*
X-143510Y-50165D01*
X-148590Y10160D02*
X-143510Y10160D01*
X-148590Y70485D02*
X-143510Y70485D01*
X-143510Y-105410D02*
X227330Y-105410D01*
X-143510Y-105410D02*
X-143510Y125730D01*
X-148590Y-110490D02*
X232410Y-110490D01*
X-148590Y-110490D02*
X-148590Y130810D01*
X227330Y-105410D02*
X227330Y-74930D01*
X-21590Y-110490D02*
X-21590Y-105410D01*
X41910Y-110490D02*
X41910Y-105410D01*
X105410Y-110490D02*
X105410Y-105410D01*
X168910Y-110490D02*
X168910Y-105410D01*
X227330Y-50165D02*
X232410Y-50165D01*
X227330Y10160D02*
X232410Y10160D01*
X227330Y70485D02*
X232410Y70485D01*
X232410Y-110490D02*
X232410Y130810D01*
X227330Y-105410D02*
X227330Y125730D01*
X-85090Y125730D02*
X-85090Y130810D01*
X-148590Y130810D02*
X232410Y130810D01*
X-143510Y125730D02*
X227330Y125730D01*
X-21590Y125730D02*
X-21590Y130810D01*
X41910Y125730D02*
X41910Y130810D01*
X105410Y125730D02*
X105410Y130810D01*
X168910Y125730D02*
X168910Y130810D01*
X174510Y-101347D02*
X174510Y-102490D01*
X175163Y-102490D01*
X176159Y-102490D02*
X175724Y-101347D01*
X175288Y-102490D01*
X175451Y-102109D02*
X175996Y-102109D01*
X176425Y-101347D02*
X176861Y-101891D01*
X176861Y-102490D01*
X177296Y-101347D02*
X176861Y-101891D01*
X178150Y-101347D02*
X177443Y-101347D01*
X177443Y-102490D01*
X178150Y-102490D01*
X177443Y-101891D02*
X177878Y-101891D01*
X178341Y-101347D02*
X178341Y-102490D01*
X178341Y-101347D02*
X178831Y-101347D01*
X178994Y-101402D01*
X179048Y-101456D01*
X179103Y-101565D01*
X179103Y-101674D01*
X179048Y-101783D01*
X178994Y-101837D01*
X178831Y-101891D01*
X178341Y-101891D01*
X178722Y-101891D02*
X179103Y-102490D01*
X180256Y-101347D02*
X180256Y-102490D01*
X180256Y-101347D02*
X181018Y-102490D01*
X181018Y-101347D02*
X181018Y-102490D01*
X182205Y-102490D02*
X181769Y-101347D01*
X181334Y-102490D01*
X181497Y-102109D02*
X182041Y-102109D01*
X182471Y-101347D02*
X182471Y-102490D01*
X182471Y-101347D02*
X182907Y-102490D01*
X183342Y-101347D02*
X182907Y-102490D01*
X183342Y-101347D02*
X183342Y-102490D01*
X184376Y-101347D02*
X183668Y-101347D01*
X183668Y-102490D01*
X184376Y-102490D01*
X183668Y-101891D02*
X184104Y-101891D01*
X184621Y-101728D02*
X184566Y-101783D01*
X184621Y-101837D01*
X184675Y-101783D01*
X184621Y-101728D01*
X184621Y-102381D02*
X184566Y-102436D01*
X184621Y-102490D01*
X184675Y-102436D01*
X184621Y-102381D01*
X205260Y-101597D02*
X205260Y-102740D01*
X205260Y-101597D02*
X205750Y-101597D01*
X205913Y-101652D01*
X205967Y-101706D01*
X206022Y-101815D01*
X206022Y-101924D01*
X205967Y-102033D01*
X205913Y-102087D01*
X205750Y-102141D01*
X205260Y-102141D01*
X205641Y-102141D02*
X206022Y-102740D01*
X206985Y-101597D02*
X206278Y-101597D01*
X206278Y-102740D01*
X206985Y-102740D01*
X206278Y-102141D02*
X206713Y-102141D01*
X207175Y-101597D02*
X207611Y-102740D01*
X208046Y-101597D02*
X207611Y-102740D01*
X208247Y-101978D02*
X208193Y-102033D01*
X208247Y-102087D01*
X208302Y-102033D01*
X208247Y-101978D01*
X208247Y-102631D02*
X208193Y-102686D01*
X208247Y-102740D01*
X208302Y-102686D01*
X208247Y-102631D01*
X213210Y-95847D02*
X213210Y-96990D01*
X213210Y-95847D02*
X213591Y-95847D01*
X213754Y-95902D01*
X213863Y-96010D01*
X213917Y-96119D01*
X213972Y-96283D01*
X213972Y-96555D01*
X213917Y-96718D01*
X213863Y-96827D01*
X213754Y-96936D01*
X213591Y-96990D01*
X213210Y-96990D01*
X215098Y-96990D02*
X214663Y-95847D01*
X214228Y-96990D01*
X214391Y-96609D02*
X214935Y-96609D01*
X215746Y-95847D02*
X215746Y-96990D01*
X215365Y-95847D02*
X216127Y-95847D01*
X216970Y-95847D02*
X216263Y-95847D01*
X216263Y-96990D01*
X216970Y-96990D01*
X216263Y-96391D02*
X216698Y-96391D01*
X217215Y-96228D02*
X217161Y-96283D01*
X217215Y-96337D01*
X217270Y-96283D01*
X217215Y-96228D01*
X217215Y-96881D02*
X217161Y-96936D01*
X217215Y-96990D01*
X217270Y-96936D01*
X217215Y-96881D01*
X146891Y-81347D02*
X146891Y-82490D01*
X146510Y-81347D02*
X147272Y-81347D01*
X147408Y-81347D02*
X147408Y-82490D01*
X148028Y-81347D02*
X148028Y-82490D01*
X147647Y-81347D02*
X148409Y-81347D01*
X148545Y-81347D02*
X148545Y-82490D01*
X149198Y-82490D01*
X150031Y-81347D02*
X149323Y-81347D01*
X149323Y-82490D01*
X150031Y-82490D01*
X149323Y-81891D02*
X149759Y-81891D01*
X150276Y-81728D02*
X150221Y-81783D01*
X150276Y-81837D01*
X150330Y-81783D01*
X150276Y-81728D01*
X150276Y-82381D02*
X150221Y-82436D01*
X150276Y-82490D01*
X150330Y-82436D01*
X150276Y-82381D01*
D15*
X227330Y116730D02*
X227330Y125730D01*
X105830Y125730D02*
X227330Y125730D01*
X129330Y116730D02*
X129330Y121230D01*
X105830Y121230D02*
X105830Y125730D01*
X105830Y121230D02*
X227330Y121230D01*
X116830Y121230D02*
X116830Y125730D01*
X129330Y121230D02*
X129330Y125730D01*
X207830Y121230D02*
X207830Y125730D01*
X105830Y116730D02*
X105830Y121230D01*
X105830Y116730D02*
X227330Y116730D01*
X207830Y116730D02*
X207830Y121230D01*
X116830Y116730D02*
X116830Y121230D01*
X108330Y122730D02*
X108330Y124254D01*
X109092Y124254D01*
X109346Y124000D01*
X109346Y123492D01*
X109092Y123238D01*
X108330Y123238D01*
X108838Y123238D02*
X109346Y122730D01*
X110869Y124254D02*
X109854Y124254D01*
X109854Y122730D01*
X110869Y122730D01*
X109854Y123492D02*
X110361Y123492D01*
X111377Y124254D02*
X111377Y123238D01*
X111885Y122730D01*
X112393Y123238D01*
X112393Y124254D01*
X119346Y124254D02*
X118330Y124254D01*
X118330Y122730D01*
X119346Y122730D01*
X118330Y123492D02*
X118838Y123492D01*
X120869Y124000D02*
X120615Y124254D01*
X120107Y124254D01*
X119854Y124000D01*
X119854Y122984D01*
X120107Y122730D01*
X120615Y122730D01*
X120869Y122984D01*
X122139Y124254D02*
X121631Y124254D01*
X121377Y124000D01*
X121377Y122984D01*
X121631Y122730D01*
X122139Y122730D01*
X122393Y122984D01*
X122393Y124000D01*
X122139Y124254D01*
X165846Y123500D02*
X165592Y123754D01*
X165084Y123754D01*
X164830Y123500D01*
X164830Y122484D01*
X165084Y122230D01*
X165592Y122230D01*
X165846Y122484D01*
X166607Y122230D02*
X167115Y122230D01*
X167369Y122484D01*
X167369Y122992D01*
X167115Y123246D01*
X166607Y123246D01*
X166354Y122992D01*
X166354Y122484D01*
X166607Y122230D01*
X167877Y122230D02*
X167877Y123246D01*
X168131Y123246D01*
X168385Y122992D01*
X168385Y122230D01*
X168385Y122992D01*
X168639Y123246D01*
X168893Y122992D01*
X168893Y122230D01*
X169401Y122230D02*
X169401Y123246D01*
X169654Y123246D01*
X169908Y122992D01*
X169908Y122230D01*
X169908Y122992D01*
X170162Y123246D01*
X170416Y122992D01*
X170416Y122230D01*
X171686Y122230D02*
X171178Y122230D01*
X170924Y122484D01*
X170924Y122992D01*
X171178Y123246D01*
X171686Y123246D01*
X171940Y122992D01*
X171940Y122738D01*
X170924Y122738D01*
X172448Y122230D02*
X172448Y123246D01*
X173209Y123246D01*
X173463Y122992D01*
X173463Y122230D01*
X174225Y123500D02*
X174225Y123246D01*
X173971Y123246D01*
X174479Y123246D01*
X174225Y123246D01*
X174225Y122484D01*
X174479Y122230D01*
X175241Y122230D02*
X176002Y122230D01*
X176256Y122484D01*
X176002Y122738D01*
X175495Y122738D01*
X175241Y122992D01*
X175495Y123246D01*
X176256Y123246D01*
X212830Y123754D02*
X212830Y122230D01*
X213592Y122230D01*
X213846Y122484D01*
X213846Y123500D01*
X213592Y123754D01*
X212830Y123754D01*
X214607Y123246D02*
X215115Y123246D01*
X215369Y122992D01*
X215369Y122230D01*
X214607Y122230D01*
X214354Y122484D01*
X214607Y122738D01*
X215369Y122738D01*
X216131Y123500D02*
X216131Y123246D01*
X215877Y123246D01*
X216385Y123246D01*
X216131Y123246D01*
X216131Y122484D01*
X216385Y122230D01*
X217908Y122230D02*
X217401Y122230D01*
X217147Y122484D01*
X217147Y122992D01*
X217401Y123246D01*
X217908Y123246D01*
X218162Y122992D01*
X218162Y122738D01*
X217147Y122738D01*
D16*
X147576Y-98619D02*
X147424Y-98466D01*
X147196Y-98390D01*
X146891Y-98390D01*
X146662Y-98466D01*
X146510Y-98619D01*
X146510Y-98771D01*
X146586Y-98924D01*
X146662Y-99000D01*
X146815Y-99076D01*
X147272Y-99228D01*
X147424Y-99304D01*
X147500Y-99381D01*
X147576Y-99533D01*
X147576Y-99761D01*
X147424Y-99914D01*
X147196Y-99990D01*
X146891Y-99990D01*
X146662Y-99914D01*
X146510Y-99761D01*
X147934Y-98390D02*
X147934Y-99990D01*
X148849Y-99990D01*
X149557Y-98390D02*
X149557Y-99990D01*
X149024Y-98390D02*
X150090Y-98390D01*
X174967Y-98390D02*
X174739Y-98466D01*
X174586Y-98695D01*
X174510Y-99076D01*
X174510Y-99304D01*
X174586Y-99685D01*
X174739Y-99914D01*
X174967Y-99990D01*
X175119Y-99990D01*
X175348Y-99914D01*
X175500Y-99685D01*
X175576Y-99304D01*
X175576Y-99076D01*
X175500Y-98695D01*
X175348Y-98466D01*
X175119Y-98390D01*
X174967Y-98390D01*
X176696Y-98390D02*
X175934Y-99457D01*
X177077Y-99457D01*
X176696Y-98390D02*
X176696Y-99990D01*
X177359Y-99304D02*
X178730Y-99304D01*
X179202Y-98695D02*
X179355Y-98619D01*
X179583Y-98390D01*
X179583Y-99990D01*
X180452Y-98771D02*
X180452Y-98695D01*
X180528Y-98543D01*
X180604Y-98466D01*
X180756Y-98390D01*
X181061Y-98390D01*
X181213Y-98466D01*
X181290Y-98543D01*
X181366Y-98695D01*
X181366Y-98847D01*
X181290Y-99000D01*
X181137Y-99228D01*
X180375Y-99990D01*
X181442Y-99990D01*
X182562Y-98390D02*
X181800Y-99457D01*
X182942Y-99457D01*
X182562Y-98390D02*
X182562Y-99990D01*
X183681Y-98390D02*
X183453Y-98466D01*
X183301Y-98695D01*
X183224Y-99076D01*
X183224Y-99304D01*
X183301Y-99685D01*
X183453Y-99914D01*
X183681Y-99990D01*
X183834Y-99990D01*
X184062Y-99914D01*
X184215Y-99685D01*
X184291Y-99304D01*
X184291Y-99076D01*
X184215Y-98695D01*
X184062Y-98466D01*
X183834Y-98390D01*
X183681Y-98390D01*
X185639Y-98924D02*
X185563Y-99152D01*
X185411Y-99304D01*
X185182Y-99381D01*
X185106Y-99381D01*
X184877Y-99304D01*
X184725Y-99152D01*
X184649Y-98924D01*
X184649Y-98847D01*
X184725Y-98619D01*
X184877Y-98466D01*
X185106Y-98390D01*
X185182Y-98390D01*
X185411Y-98466D01*
X185563Y-98619D01*
X185639Y-98924D01*
X185639Y-99304D01*
X185563Y-99685D01*
X185411Y-99914D01*
X185182Y-99990D01*
X185030Y-99990D01*
X184801Y-99914D01*
X184725Y-99761D01*
D17*
X146510Y-83991D02*
X146510Y-86490D01*
X146510Y-83991D02*
X147462Y-86490D01*
X148414Y-83991D02*
X147462Y-86490D01*
X148414Y-83991D02*
X148414Y-86490D01*
X149962Y-83991D02*
X149962Y-86490D01*
X149128Y-83991D02*
X150795Y-83991D01*
X152878Y-84586D02*
X152759Y-84348D01*
X152521Y-84110D01*
X152283Y-83991D01*
X151807Y-83991D01*
X151568Y-84110D01*
X151330Y-84348D01*
X151211Y-84586D01*
X151092Y-84943D01*
X151092Y-85538D01*
X151211Y-85895D01*
X151330Y-86133D01*
X151568Y-86371D01*
X151807Y-86490D01*
X152283Y-86490D01*
X152521Y-86371D01*
X152759Y-86133D01*
X152878Y-85895D01*
X153580Y-83991D02*
X153580Y-86490D01*
X155246Y-83991D02*
X155246Y-86490D01*
X153580Y-85181D02*
X155246Y-85181D01*
X157484Y-84824D02*
X157365Y-85181D01*
X157127Y-85419D01*
X156770Y-85538D01*
X156651Y-85538D01*
X156294Y-85419D01*
X156056Y-85181D01*
X155937Y-84824D01*
X155937Y-84705D01*
X156056Y-84348D01*
X156294Y-84110D01*
X156651Y-83991D01*
X156770Y-83991D01*
X157127Y-84110D01*
X157365Y-84348D01*
X157484Y-84824D01*
X157484Y-85419D01*
X157365Y-86014D01*
X157127Y-86371D01*
X156770Y-86490D01*
X156532Y-86490D01*
X156175Y-86371D01*
X156056Y-86133D01*
X158876Y-83991D02*
X158519Y-84110D01*
X158281Y-84467D01*
X158162Y-85062D01*
X158162Y-85419D01*
X158281Y-86014D01*
X158519Y-86371D01*
X158876Y-86490D01*
X159114Y-86490D01*
X159472Y-86371D01*
X159710Y-86014D01*
X159829Y-85419D01*
X159829Y-85062D01*
X159710Y-84467D01*
X159472Y-84110D01*
X159114Y-83991D01*
X158876Y-83991D01*
X160388Y-84467D02*
X160626Y-84348D01*
X160983Y-83991D01*
X160983Y-86490D01*
X162935Y-83991D02*
X162578Y-84110D01*
X162340Y-84467D01*
X162221Y-85062D01*
X162221Y-85419D01*
X162340Y-86014D01*
X162578Y-86371D01*
X162935Y-86490D01*
X163173Y-86490D01*
X163530Y-86371D01*
X163768Y-86014D01*
X163887Y-85419D01*
X163887Y-85062D01*
X163768Y-84467D01*
X163530Y-84110D01*
X163173Y-83991D01*
X162935Y-83991D01*
X168077Y-84348D02*
X167839Y-84110D01*
X167482Y-83991D01*
X167006Y-83991D01*
X166649Y-84110D01*
X166411Y-84348D01*
X166411Y-84586D01*
X166530Y-84824D01*
X166649Y-84943D01*
X166887Y-85062D01*
X167601Y-85300D01*
X167839Y-85419D01*
X167958Y-85538D01*
X168077Y-85776D01*
X168077Y-86133D01*
X167839Y-86371D01*
X167482Y-86490D01*
X167006Y-86490D01*
X166649Y-86371D01*
X166411Y-86133D01*
X168636Y-85538D02*
X170064Y-85538D01*
X170064Y-85300D01*
X169945Y-85062D01*
X169826Y-84943D01*
X169588Y-84824D01*
X169231Y-84824D01*
X168993Y-84943D01*
X168755Y-85181D01*
X168636Y-85538D01*
X168636Y-85776D01*
X168755Y-86133D01*
X168993Y-86371D01*
X169231Y-86490D01*
X169588Y-86490D01*
X169826Y-86371D01*
X170064Y-86133D01*
X170600Y-84824D02*
X170600Y-86490D01*
X170600Y-85300D02*
X170957Y-84943D01*
X171195Y-84824D01*
X171552Y-84824D01*
X171790Y-84943D01*
X171909Y-85300D01*
X171909Y-86490D01*
X173873Y-85181D02*
X173754Y-84943D01*
X173397Y-84824D01*
X173040Y-84824D01*
X172683Y-84943D01*
X172564Y-85181D01*
X172683Y-85419D01*
X172921Y-85538D01*
X173516Y-85657D01*
X173754Y-85776D01*
X173873Y-86014D01*
X173873Y-86133D01*
X173754Y-86371D01*
X173397Y-86490D01*
X173040Y-86490D01*
X172683Y-86371D01*
X172564Y-86133D01*
X174992Y-84824D02*
X174754Y-84943D01*
X174516Y-85181D01*
X174397Y-85538D01*
X174397Y-85776D01*
X174516Y-86133D01*
X174754Y-86371D01*
X174992Y-86490D01*
X175349Y-86490D01*
X175587Y-86371D01*
X175825Y-86133D01*
X175944Y-85776D01*
X175944Y-85538D01*
X175825Y-85181D01*
X175587Y-84943D01*
X175349Y-84824D01*
X174992Y-84824D01*
X176492Y-84824D02*
X176492Y-86490D01*
X176492Y-85538D02*
X176611Y-85181D01*
X176849Y-84943D01*
X177087Y-84824D01*
X177444Y-84824D01*
X178979Y-85181D02*
X178860Y-84943D01*
X178503Y-84824D01*
X178146Y-84824D01*
X177789Y-84943D01*
X177670Y-85181D01*
X177789Y-85419D01*
X178027Y-85538D01*
X178622Y-85657D01*
X178860Y-85776D01*
X178979Y-86014D01*
X178979Y-86133D01*
X178860Y-86371D01*
X178503Y-86490D01*
X178146Y-86490D01*
X177789Y-86371D01*
X177670Y-86133D01*
M02*
