G04*
G04 #@! TF.GenerationSoftware,Altium Limited,Altium Designer,25.3.3 (18)*
G04*
G04 Layer_Color=8388736*
%FSLAX43Y43*%
%MOMM*%
G71*
G04*
G04 #@! TF.SameCoordinates,B14E3CDD-F25A-44E7-87D6-C129875F19DF*
G04*
G04*
G04 #@! TF.FilePolarity,Negative*
G04*
G01*
G75*
%ADD10C,0.100*%
%ADD11C,0.200*%
%ADD12C,0.178*%
%ADD13C,0.150*%
%ADD14C,0.127*%
%ADD15C,0.254*%
%ADD16C,0.180*%
%ADD17C,0.350*%
%ADD19C,1.720*%
%ADD20C,0.120*%
G36*
X34509Y25059D02*
X34519Y25057D01*
X34527Y25054D01*
X34535Y25049D01*
X34543Y25043D01*
X34549Y25035D01*
X34554Y25027D01*
X34557Y25019D01*
X34559Y25009D01*
X34560Y25000D01*
X34560Y6000D01*
X34559Y5991D01*
X34557Y5981D01*
X34554Y5973D01*
X34549Y5965D01*
X34543Y5957D01*
X34535Y5951D01*
X34527Y5946D01*
X34519Y5943D01*
X34509Y5941D01*
X34500Y5940D01*
X34000Y5940D01*
X33991Y5941D01*
X33981Y5943D01*
X33973Y5946D01*
X33965Y5951D01*
X33957Y5957D01*
X33951Y5965D01*
X33946Y5973D01*
X33943Y5981D01*
X33941Y5991D01*
X33940Y6000D01*
X33940Y24440D01*
X32560Y24440D01*
X32560Y6000D01*
X32559Y5991D01*
X32557Y5981D01*
X32554Y5973D01*
X32549Y5965D01*
X32543Y5957D01*
X32535Y5951D01*
X32527Y5946D01*
X32519Y5943D01*
X32509Y5941D01*
X32500Y5940D01*
X32000Y5940D01*
X31991Y5941D01*
X31981Y5943D01*
X31973Y5946D01*
X31965Y5951D01*
X31957Y5957D01*
X31951Y5965D01*
X31946Y5973D01*
X31943Y5981D01*
X31941Y5991D01*
X31940Y6000D01*
X31940Y24440D01*
X30560Y24440D01*
X30560Y6000D01*
X30559Y5991D01*
X30557Y5981D01*
X30554Y5973D01*
X30549Y5965D01*
X30543Y5957D01*
X30535Y5951D01*
X30527Y5946D01*
X30519Y5943D01*
X30509Y5941D01*
X30500Y5940D01*
X30000Y5940D01*
X29991Y5941D01*
X29981Y5943D01*
X29973Y5946D01*
X29965Y5951D01*
X29957Y5957D01*
X29951Y5965D01*
X29946Y5973D01*
X29943Y5981D01*
X29941Y5991D01*
X29940Y6000D01*
X29940Y24440D01*
X28560Y24440D01*
X28560Y6000D01*
X28559Y5991D01*
X28557Y5981D01*
X28554Y5973D01*
X28549Y5965D01*
X28543Y5957D01*
X28535Y5951D01*
X28527Y5946D01*
X28519Y5943D01*
X28509Y5941D01*
X28500Y5940D01*
X28000Y5940D01*
X27991Y5941D01*
X27981Y5943D01*
X27973Y5946D01*
X27965Y5951D01*
X27957Y5957D01*
X27951Y5965D01*
X27946Y5973D01*
X27943Y5981D01*
X27941Y5991D01*
X27940Y6000D01*
X27940Y24440D01*
X26560Y24440D01*
X26560Y6000D01*
X26559Y5991D01*
X26557Y5981D01*
X26554Y5973D01*
X26549Y5965D01*
X26543Y5957D01*
X26535Y5951D01*
X26527Y5946D01*
X26519Y5943D01*
X26509Y5941D01*
X26500Y5940D01*
X26000Y5940D01*
X25991Y5941D01*
X25981Y5943D01*
X25973Y5946D01*
X25965Y5951D01*
X25957Y5957D01*
X25951Y5965D01*
X25946Y5973D01*
X25943Y5981D01*
X25941Y5991D01*
X25940Y6000D01*
X25940Y24440D01*
X24560Y24440D01*
X24560Y6000D01*
X24559Y5991D01*
X24557Y5981D01*
X24554Y5973D01*
X24549Y5965D01*
X24543Y5957D01*
X24535Y5951D01*
X24527Y5946D01*
X24519Y5943D01*
X24509Y5941D01*
X24500Y5940D01*
X24000Y5940D01*
X23991Y5941D01*
X23981Y5943D01*
X23973Y5946D01*
X23965Y5951D01*
X23957Y5957D01*
X23951Y5965D01*
X23946Y5973D01*
X23943Y5981D01*
X23941Y5991D01*
X23940Y6000D01*
X23940Y24440D01*
X22560Y24440D01*
X22560Y6000D01*
X22559Y5991D01*
X22557Y5981D01*
X22554Y5973D01*
X22549Y5965D01*
X22543Y5957D01*
X22535Y5951D01*
X22527Y5946D01*
X22519Y5943D01*
X22509Y5941D01*
X22500Y5940D01*
X22000Y5940D01*
X21991Y5941D01*
X21981Y5943D01*
X21973Y5946D01*
X21965Y5951D01*
X21957Y5957D01*
X21951Y5965D01*
X21946Y5973D01*
X21943Y5981D01*
X21941Y5991D01*
X21940Y6000D01*
X21940Y24440D01*
X20560Y24440D01*
X20560Y6000D01*
X20559Y5991D01*
X20557Y5981D01*
X20554Y5973D01*
X20549Y5965D01*
X20543Y5957D01*
X20535Y5951D01*
X20527Y5946D01*
X20519Y5943D01*
X20509Y5941D01*
X20500Y5940D01*
X20000Y5940D01*
X19991Y5941D01*
X19981Y5943D01*
X19973Y5946D01*
X19965Y5951D01*
X19957Y5957D01*
X19951Y5965D01*
X19946Y5973D01*
X19943Y5981D01*
X19941Y5991D01*
X19940Y6000D01*
X19940Y24440D01*
X18560Y24440D01*
X18560Y6000D01*
X18559Y5991D01*
X18557Y5981D01*
X18554Y5973D01*
X18549Y5965D01*
X18543Y5957D01*
X18535Y5951D01*
X18527Y5946D01*
X18519Y5943D01*
X18509Y5941D01*
X18500Y5940D01*
X18000Y5940D01*
X17991Y5941D01*
X17981Y5943D01*
X17973Y5946D01*
X17965Y5951D01*
X17957Y5957D01*
X17951Y5965D01*
X17946Y5973D01*
X17943Y5981D01*
X17941Y5991D01*
X17940Y6000D01*
X17940Y24440D01*
X16560Y24440D01*
X16560Y6000D01*
X16559Y5991D01*
X16557Y5981D01*
X16554Y5973D01*
X16549Y5965D01*
X16543Y5957D01*
X16535Y5951D01*
X16527Y5946D01*
X16519Y5943D01*
X16509Y5941D01*
X16500Y5940D01*
X16000Y5940D01*
X15991Y5941D01*
X15981Y5943D01*
X15973Y5946D01*
X15965Y5951D01*
X15957Y5957D01*
X15951Y5965D01*
X15946Y5973D01*
X15943Y5981D01*
X15941Y5991D01*
X15940Y6000D01*
X15940Y25000D01*
X15941Y25009D01*
X15943Y25019D01*
X15946Y25027D01*
X15951Y25035D01*
X15957Y25043D01*
X15965Y25049D01*
X15973Y25054D01*
X15981Y25057D01*
X15991Y25059D01*
X16000Y25060D01*
X34500Y25060D01*
X34509Y25059D01*
X34509Y25059D02*
G37*
G36*
X33509Y24059D02*
X33519Y24057D01*
X33527Y24054D01*
X33535Y24049D01*
X33543Y24043D01*
X33549Y24035D01*
X33554Y24027D01*
X33557Y24019D01*
X33559Y24009D01*
X33560Y24000D01*
X33560Y5000D01*
X33559Y4991D01*
X33557Y4981D01*
X33554Y4973D01*
X33549Y4965D01*
X33543Y4957D01*
X33535Y4951D01*
X33527Y4946D01*
X33519Y4943D01*
X33509Y4941D01*
X33500Y4940D01*
X15000Y4940D01*
X14991Y4941D01*
X14981Y4943D01*
X14973Y4946D01*
X14965Y4951D01*
X14957Y4957D01*
X14951Y4965D01*
X14946Y4973D01*
X14943Y4981D01*
X14941Y4991D01*
X14940Y5000D01*
X14940Y24000D01*
X14941Y24009D01*
X14943Y24019D01*
X14946Y24027D01*
X14951Y24035D01*
X14957Y24043D01*
X14965Y24049D01*
X14973Y24054D01*
X14981Y24057D01*
X14991Y24059D01*
X15000Y24060D01*
X15500Y24060D01*
X15509Y24059D01*
X15519Y24057D01*
X15527Y24054D01*
X15535Y24049D01*
X15543Y24043D01*
X15549Y24035D01*
X15554Y24027D01*
X15557Y24019D01*
X15559Y24009D01*
X15560Y24000D01*
X15560Y5560D01*
X16940Y5560D01*
X16940Y24000D01*
X16941Y24009D01*
X16943Y24019D01*
X16946Y24027D01*
X16951Y24035D01*
X16957Y24043D01*
X16965Y24049D01*
X16973Y24054D01*
X16981Y24057D01*
X16991Y24059D01*
X17000Y24060D01*
X17500Y24060D01*
X17509Y24059D01*
X17519Y24057D01*
X17527Y24054D01*
X17535Y24049D01*
X17543Y24043D01*
X17549Y24035D01*
X17554Y24027D01*
X17557Y24019D01*
X17559Y24009D01*
X17560Y24000D01*
X17560Y5560D01*
X18940Y5560D01*
X18940Y24000D01*
X18941Y24009D01*
X18943Y24019D01*
X18946Y24027D01*
X18951Y24035D01*
X18957Y24043D01*
X18965Y24049D01*
X18973Y24054D01*
X18981Y24057D01*
X18991Y24059D01*
X19000Y24060D01*
X19500Y24060D01*
X19509Y24059D01*
X19519Y24057D01*
X19527Y24054D01*
X19535Y24049D01*
X19543Y24043D01*
X19549Y24035D01*
X19554Y24027D01*
X19557Y24019D01*
X19559Y24009D01*
X19560Y24000D01*
X19560Y5560D01*
X20940Y5560D01*
X20940Y24000D01*
X20941Y24009D01*
X20943Y24019D01*
X20946Y24027D01*
X20951Y24035D01*
X20957Y24043D01*
X20965Y24049D01*
X20973Y24054D01*
X20981Y24057D01*
X20991Y24059D01*
X21000Y24060D01*
X21500Y24060D01*
X21509Y24059D01*
X21519Y24057D01*
X21527Y24054D01*
X21535Y24049D01*
X21543Y24043D01*
X21549Y24035D01*
X21554Y24027D01*
X21557Y24019D01*
X21559Y24009D01*
X21560Y24000D01*
X21560Y5560D01*
X22940Y5560D01*
X22940Y24000D01*
X22941Y24009D01*
X22943Y24019D01*
X22946Y24027D01*
X22951Y24035D01*
X22957Y24043D01*
X22965Y24049D01*
X22973Y24054D01*
X22981Y24057D01*
X22991Y24059D01*
X23000Y24060D01*
X23500Y24060D01*
X23509Y24059D01*
X23519Y24057D01*
X23527Y24054D01*
X23535Y24049D01*
X23543Y24043D01*
X23549Y24035D01*
X23554Y24027D01*
X23557Y24019D01*
X23559Y24009D01*
X23560Y24000D01*
X23560Y5560D01*
X24940Y5560D01*
X24940Y24000D01*
X24941Y24009D01*
X24943Y24019D01*
X24946Y24027D01*
X24951Y24035D01*
X24957Y24043D01*
X24965Y24049D01*
X24973Y24054D01*
X24981Y24057D01*
X24991Y24059D01*
X25000Y24060D01*
X25500Y24060D01*
X25509Y24059D01*
X25519Y24057D01*
X25527Y24054D01*
X25535Y24049D01*
X25543Y24043D01*
X25549Y24035D01*
X25554Y24027D01*
X25557Y24019D01*
X25559Y24009D01*
X25560Y24000D01*
X25560Y5560D01*
X26940Y5560D01*
X26940Y24000D01*
X26941Y24009D01*
X26943Y24019D01*
X26946Y24027D01*
X26951Y24035D01*
X26957Y24043D01*
X26965Y24049D01*
X26973Y24054D01*
X26981Y24057D01*
X26991Y24059D01*
X27000Y24060D01*
X27500Y24060D01*
X27509Y24059D01*
X27519Y24057D01*
X27527Y24054D01*
X27535Y24049D01*
X27543Y24043D01*
X27549Y24035D01*
X27554Y24027D01*
X27557Y24019D01*
X27559Y24009D01*
X27560Y24000D01*
X27560Y5560D01*
X28940Y5560D01*
X28940Y24000D01*
X28941Y24009D01*
X28943Y24019D01*
X28946Y24027D01*
X28951Y24035D01*
X28957Y24043D01*
X28965Y24049D01*
X28973Y24054D01*
X28981Y24057D01*
X28991Y24059D01*
X29000Y24060D01*
X29500Y24060D01*
X29509Y24059D01*
X29519Y24057D01*
X29527Y24054D01*
X29535Y24049D01*
X29543Y24043D01*
X29549Y24035D01*
X29554Y24027D01*
X29557Y24019D01*
X29559Y24009D01*
X29560Y24000D01*
X29560Y5560D01*
X30940Y5560D01*
X30940Y24000D01*
X30941Y24009D01*
X30943Y24019D01*
X30946Y24027D01*
X30951Y24035D01*
X30957Y24043D01*
X30965Y24049D01*
X30973Y24054D01*
X30981Y24057D01*
X30991Y24059D01*
X31000Y24060D01*
X31500Y24060D01*
X31509Y24059D01*
X31519Y24057D01*
X31527Y24054D01*
X31535Y24049D01*
X31543Y24043D01*
X31549Y24035D01*
X31554Y24027D01*
X31557Y24019D01*
X31559Y24009D01*
X31560Y24000D01*
X31560Y5560D01*
X32940Y5560D01*
X32940Y24000D01*
X32941Y24009D01*
X32943Y24019D01*
X32946Y24027D01*
X32951Y24035D01*
X32957Y24043D01*
X32965Y24049D01*
X32973Y24054D01*
X32981Y24057D01*
X32991Y24059D01*
X33000Y24060D01*
X33500Y24060D01*
X33509Y24059D01*
X33509Y24059D02*
G37*
G36*
X132848Y-81546D02*
X132933Y-81567D01*
X133038Y-81610D01*
X133144Y-81673D01*
X133229Y-81768D01*
X133292Y-81906D01*
X133303Y-81980D01*
X133314Y-82075D01*
X133314Y-82086D01*
X133314Y-82096D01*
X133303Y-82160D01*
X133282Y-82255D01*
X133250Y-82361D01*
X133176Y-82467D01*
X133081Y-82562D01*
X133017Y-82604D01*
X132943Y-82625D01*
X132859Y-82647D01*
X132763Y-82657D01*
X132721Y-82657D01*
X132679Y-82647D01*
X132626Y-82636D01*
X132552Y-82615D01*
X132488Y-82583D01*
X132414Y-82541D01*
X132351Y-82488D01*
X132340Y-82477D01*
X132329Y-82456D01*
X132298Y-82424D01*
X132266Y-82371D01*
X132234Y-82308D01*
X132213Y-82244D01*
X132192Y-82160D01*
X132181Y-82075D01*
X132181Y-82065D01*
X132181Y-82033D01*
X132192Y-82001D01*
X132203Y-81948D01*
X132224Y-81885D01*
X132255Y-81821D01*
X132298Y-81758D01*
X132351Y-81694D01*
X132361Y-81684D01*
X132382Y-81673D01*
X132414Y-81641D01*
X132467Y-81610D01*
X132531Y-81588D01*
X132594Y-81557D01*
X132679Y-81546D01*
X132763Y-81535D01*
X132785Y-81535D01*
X132848Y-81546D01*
X132848Y-81546D02*
G37*
G36*
X129134Y-81049D02*
X129240Y-81049D01*
X129356Y-81059D01*
X129494Y-81070D01*
X129631Y-81091D01*
X129790Y-81112D01*
X129959Y-81144D01*
X130298Y-81218D01*
X130658Y-81324D01*
X131007Y-81461D01*
X134181Y-86498D01*
X134181Y-86509D01*
X134181Y-86541D01*
X134171Y-86593D01*
X134171Y-86657D01*
X134160Y-86742D01*
X134139Y-86826D01*
X134097Y-87038D01*
X134097Y-87049D01*
X134086Y-87091D01*
X134075Y-87144D01*
X134054Y-87228D01*
X134023Y-87324D01*
X134001Y-87429D01*
X133927Y-87662D01*
X131176Y-83366D01*
X131166Y-83356D01*
X131134Y-83313D01*
X131091Y-83260D01*
X131039Y-83197D01*
X130964Y-83133D01*
X130880Y-83080D01*
X130785Y-83038D01*
X130679Y-83027D01*
X130636Y-83027D01*
X130594Y-83049D01*
X130531Y-83070D01*
X130467Y-83102D01*
X130393Y-83165D01*
X130308Y-83239D01*
X130224Y-83345D01*
X129303Y-84604D01*
X132541Y-89704D01*
X132520Y-89715D01*
X132467Y-89768D01*
X132382Y-89831D01*
X132266Y-89916D01*
X132118Y-90022D01*
X131938Y-90138D01*
X131726Y-90265D01*
X131494Y-90392D01*
X131229Y-90519D01*
X130943Y-90646D01*
X130636Y-90763D01*
X130308Y-90868D01*
X129959Y-90953D01*
X129589Y-91017D01*
X129197Y-91070D01*
X128795Y-91080D01*
X128700Y-91080D01*
X128647Y-91070D01*
X128584Y-91070D01*
X128425Y-91059D01*
X128234Y-91027D01*
X128012Y-90995D01*
X127758Y-90943D01*
X127494Y-90868D01*
X127197Y-90784D01*
X126891Y-90678D01*
X126573Y-90540D01*
X126256Y-90382D01*
X125928Y-90191D01*
X125600Y-89969D01*
X125282Y-89715D01*
X124975Y-89429D01*
X126351Y-87535D01*
X126361Y-87525D01*
X126372Y-87504D01*
X126383Y-87472D01*
X126393Y-87429D01*
X126404Y-87377D01*
X126425Y-87313D01*
X126436Y-87228D01*
X126436Y-87218D01*
X126436Y-87197D01*
X126425Y-87165D01*
X126414Y-87123D01*
X126404Y-87070D01*
X126372Y-87006D01*
X126340Y-86932D01*
X126287Y-86847D01*
X125272Y-85260D01*
X123758Y-87355D01*
X123758Y-87345D01*
X123748Y-87324D01*
X123737Y-87292D01*
X123727Y-87239D01*
X123716Y-87186D01*
X123705Y-87112D01*
X123674Y-86943D01*
X123631Y-86742D01*
X123610Y-86509D01*
X123589Y-86255D01*
X123578Y-85980D01*
X123578Y-85969D01*
X123578Y-85959D01*
X123578Y-85895D01*
X123589Y-85789D01*
X123600Y-85652D01*
X123621Y-85482D01*
X123653Y-85281D01*
X123705Y-85059D01*
X123758Y-84816D01*
X123832Y-84562D01*
X123928Y-84287D01*
X124055Y-84012D01*
X124192Y-83715D01*
X124362Y-83430D01*
X124552Y-83144D01*
X124774Y-82858D01*
X125028Y-82583D01*
X125049Y-82562D01*
X125102Y-82520D01*
X125187Y-82435D01*
X125303Y-82340D01*
X125462Y-82223D01*
X125642Y-82096D01*
X125854Y-81959D01*
X126097Y-81811D01*
X126372Y-81662D01*
X126668Y-81525D01*
X126986Y-81398D01*
X127335Y-81282D01*
X127705Y-81176D01*
X128097Y-81102D01*
X128510Y-81059D01*
X128943Y-81038D01*
X129060Y-81038D01*
X129134Y-81049D01*
X129134Y-81049D02*
G37*
G36*
X134404Y-92509D02*
X134488Y-92509D01*
X134562Y-92519D01*
X134615Y-92530D01*
X134626Y-92530D01*
X134657Y-92540D01*
X134700Y-92562D01*
X134753Y-92593D01*
X134806Y-92636D01*
X134859Y-92699D01*
X134901Y-92773D01*
X134933Y-92868D01*
X134933Y-92879D01*
X134933Y-92900D01*
X134943Y-92942D01*
X134943Y-93006D01*
X134943Y-93080D01*
X134954Y-93175D01*
X134954Y-93292D01*
X134954Y-93419D01*
X133070Y-93376D01*
X133049Y-93376D01*
X133007Y-93387D01*
X132933Y-93408D01*
X132859Y-93461D01*
X132774Y-93535D01*
X132742Y-93599D01*
X132700Y-93662D01*
X132679Y-93736D01*
X132658Y-93831D01*
X132636Y-93937D01*
X132636Y-94064D01*
X132636Y-94456D01*
X132636Y-94466D01*
X132636Y-94487D01*
X132636Y-94519D01*
X132647Y-94561D01*
X132658Y-94678D01*
X132689Y-94794D01*
X132742Y-94921D01*
X132816Y-95038D01*
X132859Y-95080D01*
X132922Y-95112D01*
X132986Y-95133D01*
X133060Y-95143D01*
X134985Y-95143D01*
X134985Y-95154D01*
X134985Y-95165D01*
X134985Y-95228D01*
X134985Y-95323D01*
X134975Y-95440D01*
X134964Y-95556D01*
X134943Y-95662D01*
X134911Y-95757D01*
X134880Y-95831D01*
X134869Y-95842D01*
X134848Y-95863D01*
X134816Y-95884D01*
X134753Y-95916D01*
X134668Y-95958D01*
X134562Y-95979D01*
X134414Y-96001D01*
X134245Y-96011D01*
X132880Y-96011D01*
X132837Y-96001D01*
X132721Y-95990D01*
X132583Y-95969D01*
X132435Y-95926D01*
X132287Y-95863D01*
X132160Y-95768D01*
X132054Y-95651D01*
X132044Y-95641D01*
X132033Y-95598D01*
X132001Y-95535D01*
X131980Y-95440D01*
X131949Y-95313D01*
X131917Y-95165D01*
X131906Y-94985D01*
X131896Y-94784D01*
X131896Y-93757D01*
X131896Y-93747D01*
X131896Y-93715D01*
X131896Y-93673D01*
X131906Y-93620D01*
X131906Y-93546D01*
X131917Y-93472D01*
X131949Y-93292D01*
X132001Y-93101D01*
X132065Y-92921D01*
X132171Y-92752D01*
X132234Y-92689D01*
X132308Y-92636D01*
X132319Y-92625D01*
X132351Y-92614D01*
X132393Y-92593D01*
X132467Y-92562D01*
X132552Y-92540D01*
X132668Y-92519D01*
X132795Y-92509D01*
X132943Y-92498D01*
X134319Y-92498D01*
X134404Y-92509D01*
X134404Y-92509D02*
G37*
G36*
X138414Y-95990D02*
X137684Y-95990D01*
X137684Y-94678D01*
X136128Y-94678D01*
X136128Y-95990D01*
X135441Y-95990D01*
X135441Y-92530D01*
X136128Y-92530D01*
X136128Y-93757D01*
X137684Y-93757D01*
X137684Y-92530D01*
X138414Y-92530D01*
X138414Y-95990D01*
X138414Y-95990D02*
G37*
G36*
X118722Y-91398D02*
X118785Y-91419D01*
X118859Y-91450D01*
X118944Y-91514D01*
X119018Y-91609D01*
X119050Y-91673D01*
X119071Y-91747D01*
X119102Y-91831D01*
X119113Y-91927D01*
X119579Y-95990D01*
X118711Y-95990D01*
X118468Y-93069D01*
X118457Y-93069D01*
X117558Y-95408D01*
X117547Y-95429D01*
X117526Y-95471D01*
X117494Y-95535D01*
X117441Y-95598D01*
X117367Y-95673D01*
X117282Y-95736D01*
X117177Y-95778D01*
X117050Y-95800D01*
X117028Y-95800D01*
X116986Y-95789D01*
X116923Y-95778D01*
X116838Y-95747D01*
X116743Y-95704D01*
X116658Y-95630D01*
X116573Y-95535D01*
X116510Y-95408D01*
X115621Y-93112D01*
X115610Y-93112D01*
X115357Y-95990D01*
X114510Y-95990D01*
X114954Y-91884D01*
X114954Y-91874D01*
X114954Y-91863D01*
X114976Y-91810D01*
X114997Y-91726D01*
X115039Y-91630D01*
X115092Y-91546D01*
X115177Y-91461D01*
X115282Y-91408D01*
X115346Y-91387D01*
X115441Y-91387D01*
X115494Y-91398D01*
X115568Y-91408D01*
X115663Y-91440D01*
X115769Y-91503D01*
X115875Y-91588D01*
X115970Y-91694D01*
X116013Y-91768D01*
X116044Y-91853D01*
X117028Y-94360D01*
X117050Y-94360D01*
X118034Y-91853D01*
X118034Y-91842D01*
X118044Y-91831D01*
X118065Y-91778D01*
X118118Y-91704D01*
X118182Y-91620D01*
X118266Y-91535D01*
X118372Y-91461D01*
X118499Y-91408D01*
X118573Y-91387D01*
X118679Y-91387D01*
X118722Y-91398D01*
X118722Y-91398D02*
G37*
G36*
X142541Y-92540D02*
X142647Y-92562D01*
X142784Y-92604D01*
X142922Y-92667D01*
X143049Y-92773D01*
X143112Y-92837D01*
X143165Y-92921D01*
X143207Y-93006D01*
X143239Y-93112D01*
X143239Y-93122D01*
X143250Y-93154D01*
X143260Y-93207D01*
X143271Y-93271D01*
X143281Y-93366D01*
X143292Y-93472D01*
X143303Y-93588D01*
X143303Y-93726D01*
X143303Y-93990D01*
X143303Y-94001D01*
X143303Y-94022D01*
X143303Y-94043D01*
X143303Y-94085D01*
X143292Y-94202D01*
X143281Y-94329D01*
X143250Y-94477D01*
X143218Y-94625D01*
X143165Y-94773D01*
X143091Y-94890D01*
X143080Y-94900D01*
X143059Y-94921D01*
X143028Y-94964D01*
X142975Y-94995D01*
X142911Y-95038D01*
X142826Y-95080D01*
X142731Y-95101D01*
X142625Y-95112D01*
X140911Y-95112D01*
X140911Y-95990D01*
X140192Y-95990D01*
X140192Y-92530D01*
X142498Y-92530D01*
X142541Y-92540D01*
X142541Y-92540D02*
G37*
G36*
X139726Y-95990D02*
X138922Y-95990D01*
X138922Y-92530D01*
X139726Y-92530D01*
X139726Y-95990D01*
X139726Y-95990D02*
G37*
G36*
X127187Y-92540D02*
X127229Y-92540D01*
X127346Y-92583D01*
X127398Y-92614D01*
X127473Y-92657D01*
X127536Y-92710D01*
X127589Y-92784D01*
X127652Y-92858D01*
X127705Y-92964D01*
X127748Y-93080D01*
X127779Y-93218D01*
X127801Y-93376D01*
X127811Y-93556D01*
X127811Y-93768D01*
X127811Y-93778D01*
X127811Y-93800D01*
X127811Y-93831D01*
X127801Y-93884D01*
X127790Y-94001D01*
X127758Y-94149D01*
X127716Y-94297D01*
X127642Y-94445D01*
X127547Y-94561D01*
X127494Y-94604D01*
X127420Y-94636D01*
X127420Y-94646D01*
X127441Y-94657D01*
X127483Y-94667D01*
X127547Y-94710D01*
X127621Y-94784D01*
X127684Y-94879D01*
X127748Y-95016D01*
X127779Y-95091D01*
X127790Y-95186D01*
X127811Y-95292D01*
X127811Y-95408D01*
X127811Y-95990D01*
X127081Y-95990D01*
X127081Y-95577D01*
X127081Y-95567D01*
X127081Y-95535D01*
X127081Y-95482D01*
X127081Y-95429D01*
X127070Y-95302D01*
X127060Y-95249D01*
X127049Y-95218D01*
X127049Y-95207D01*
X127039Y-95196D01*
X126996Y-95143D01*
X126912Y-95101D01*
X126859Y-95091D01*
X126795Y-95080D01*
X125504Y-95080D01*
X125504Y-95990D01*
X124774Y-95990D01*
X124774Y-92530D01*
X127155Y-92530D01*
X127187Y-92540D01*
X127187Y-92540D02*
G37*
G36*
X120817Y-95990D02*
X120002Y-95990D01*
X120002Y-92530D01*
X120817Y-92530D01*
X120817Y-95990D01*
X120817Y-95990D02*
G37*
G36*
X130658Y-92509D02*
X130785Y-92540D01*
X130922Y-92572D01*
X131060Y-92625D01*
X131176Y-92699D01*
X131271Y-92805D01*
X131282Y-92815D01*
X131303Y-92858D01*
X131345Y-92932D01*
X131388Y-93038D01*
X131419Y-93165D01*
X131462Y-93323D01*
X131483Y-93514D01*
X131494Y-93736D01*
X131494Y-94773D01*
X131494Y-94784D01*
X131494Y-94815D01*
X131494Y-94858D01*
X131483Y-94921D01*
X131483Y-95006D01*
X131472Y-95091D01*
X131430Y-95281D01*
X131367Y-95482D01*
X131282Y-95673D01*
X131218Y-95757D01*
X131155Y-95831D01*
X131070Y-95895D01*
X130986Y-95948D01*
X130975Y-95948D01*
X130954Y-95958D01*
X130901Y-95969D01*
X130848Y-95979D01*
X130763Y-95990D01*
X130679Y-96001D01*
X130573Y-96011D01*
X129240Y-96011D01*
X129197Y-96001D01*
X129081Y-95990D01*
X128954Y-95969D01*
X128816Y-95926D01*
X128668Y-95874D01*
X128541Y-95789D01*
X128435Y-95683D01*
X128425Y-95673D01*
X128404Y-95630D01*
X128372Y-95556D01*
X128340Y-95461D01*
X128308Y-95334D01*
X128277Y-95175D01*
X128256Y-94995D01*
X128245Y-94773D01*
X128245Y-93736D01*
X128245Y-93726D01*
X128245Y-93694D01*
X128245Y-93641D01*
X128256Y-93577D01*
X128266Y-93493D01*
X128277Y-93397D01*
X128319Y-93196D01*
X128393Y-92995D01*
X128446Y-92890D01*
X128499Y-92794D01*
X128573Y-92710D01*
X128647Y-92636D01*
X128742Y-92583D01*
X128848Y-92540D01*
X128859Y-92540D01*
X128880Y-92530D01*
X128922Y-92530D01*
X128975Y-92519D01*
X129039Y-92509D01*
X129113Y-92509D01*
X129293Y-92498D01*
X130552Y-92498D01*
X130658Y-92509D01*
X130658Y-92509D02*
G37*
G36*
X123589Y-92509D02*
X123758Y-92519D01*
X123917Y-92530D01*
X123981Y-92540D01*
X124044Y-92551D01*
X124086Y-92562D01*
X124118Y-92572D01*
X124129Y-92583D01*
X124150Y-92604D01*
X124182Y-92646D01*
X124213Y-92720D01*
X124245Y-92815D01*
X124266Y-92890D01*
X124277Y-92964D01*
X124287Y-93048D01*
X124298Y-93144D01*
X124309Y-93249D01*
X124309Y-93376D01*
X122414Y-93376D01*
X122372Y-93387D01*
X122330Y-93397D01*
X122224Y-93429D01*
X122171Y-93472D01*
X122129Y-93514D01*
X122129Y-93524D01*
X122108Y-93546D01*
X122097Y-93577D01*
X122076Y-93630D01*
X122055Y-93704D01*
X122034Y-93800D01*
X122023Y-93927D01*
X122012Y-94064D01*
X122012Y-94456D01*
X122012Y-94477D01*
X122012Y-94519D01*
X122012Y-94593D01*
X122023Y-94667D01*
X122023Y-94763D01*
X122034Y-94847D01*
X122044Y-94921D01*
X122065Y-94974D01*
X122065Y-94985D01*
X122086Y-94995D01*
X122108Y-95027D01*
X122150Y-95059D01*
X122192Y-95091D01*
X122256Y-95112D01*
X122330Y-95133D01*
X122425Y-95143D01*
X124362Y-95143D01*
X124362Y-95154D01*
X124362Y-95165D01*
X124362Y-95228D01*
X124362Y-95313D01*
X124351Y-95419D01*
X124340Y-95524D01*
X124319Y-95630D01*
X124287Y-95725D01*
X124256Y-95800D01*
X124245Y-95810D01*
X124224Y-95831D01*
X124182Y-95863D01*
X124129Y-95905D01*
X124033Y-95948D01*
X123928Y-95979D01*
X123780Y-96001D01*
X123610Y-96011D01*
X122213Y-96011D01*
X122108Y-96001D01*
X121991Y-95979D01*
X121854Y-95948D01*
X121716Y-95895D01*
X121589Y-95831D01*
X121483Y-95736D01*
X121473Y-95725D01*
X121452Y-95683D01*
X121409Y-95609D01*
X121367Y-95514D01*
X121325Y-95376D01*
X121282Y-95218D01*
X121261Y-95016D01*
X121251Y-94773D01*
X121251Y-93736D01*
X121251Y-93726D01*
X121251Y-93683D01*
X121251Y-93630D01*
X121261Y-93567D01*
X121272Y-93472D01*
X121293Y-93376D01*
X121346Y-93165D01*
X121430Y-92953D01*
X121483Y-92847D01*
X121557Y-92752D01*
X121642Y-92667D01*
X121737Y-92593D01*
X121843Y-92540D01*
X121970Y-92509D01*
X122023Y-92509D01*
X122065Y-92498D01*
X123420Y-92498D01*
X123589Y-92509D01*
X123589Y-92509D02*
G37*
%LPC*%
G36*
X132848Y-81631D02*
X132742Y-81631D01*
X132689Y-81641D01*
X132605Y-81652D01*
X132520Y-81684D01*
X132425Y-81737D01*
X132340Y-81821D01*
X132287Y-81927D01*
X132277Y-82001D01*
X132266Y-82075D01*
X132266Y-82086D01*
X132266Y-82107D01*
X132277Y-82149D01*
X132287Y-82202D01*
X132329Y-82319D01*
X132361Y-82371D01*
X132404Y-82435D01*
X132414Y-82445D01*
X132435Y-82456D01*
X132467Y-82477D01*
X132509Y-82498D01*
X132615Y-82551D01*
X132689Y-82562D01*
X132763Y-82572D01*
X132785Y-82572D01*
X132837Y-82562D01*
X132911Y-82541D01*
X132996Y-82509D01*
X133081Y-82445D01*
X133155Y-82361D01*
X133208Y-82234D01*
X133229Y-82160D01*
X133229Y-82075D01*
X133229Y-82054D01*
X133218Y-82001D01*
X133208Y-81938D01*
X133176Y-81853D01*
X133113Y-81768D01*
X133028Y-81705D01*
X132922Y-81652D01*
X132848Y-81631D01*
X132848Y-81631D02*
G37*
%LPD*%
G36*
X132837Y-81768D02*
X132880Y-81779D01*
X132922Y-81811D01*
X132964Y-81842D01*
X132986Y-81895D01*
X132996Y-81959D01*
X132996Y-81969D01*
X132996Y-81990D01*
X132975Y-82054D01*
X132954Y-82086D01*
X132933Y-82117D01*
X132890Y-82139D01*
X132837Y-82149D01*
X133017Y-82435D01*
X132911Y-82435D01*
X132732Y-82149D01*
X132626Y-82149D01*
X132626Y-82435D01*
X132520Y-82435D01*
X132520Y-81758D01*
X132795Y-81758D01*
X132837Y-81768D01*
X132837Y-81768D02*
G37*
%LPC*%
G36*
X132795Y-81853D02*
X132626Y-81853D01*
X132626Y-82065D01*
X132806Y-82065D01*
X132848Y-82054D01*
X132880Y-82022D01*
X132890Y-81959D01*
X132890Y-81938D01*
X132880Y-81906D01*
X132848Y-81874D01*
X132795Y-81853D01*
X132795Y-81853D02*
G37*
G36*
X127113Y-83017D02*
X127070Y-83017D01*
X127018Y-83038D01*
X126954Y-83059D01*
X126880Y-83091D01*
X126806Y-83154D01*
X126711Y-83229D01*
X126626Y-83334D01*
X125737Y-84583D01*
X128435Y-88858D01*
X128446Y-88879D01*
X128478Y-88921D01*
X128520Y-88985D01*
X128584Y-89048D01*
X128658Y-89122D01*
X128732Y-89186D01*
X128806Y-89228D01*
X128890Y-89249D01*
X128933Y-89249D01*
X128986Y-89239D01*
X129049Y-89218D01*
X129123Y-89175D01*
X129197Y-89133D01*
X129282Y-89059D01*
X129356Y-88964D01*
X130298Y-87609D01*
X127589Y-83345D01*
X127578Y-83334D01*
X127557Y-83292D01*
X127504Y-83239D01*
X127451Y-83176D01*
X127377Y-83123D01*
X127303Y-83070D01*
X127208Y-83027D01*
X127113Y-83017D01*
X127113Y-83017D02*
G37*
G36*
X142266Y-93366D02*
X140911Y-93366D01*
X140911Y-94244D01*
X142329Y-94244D01*
X142350Y-94233D01*
X142393Y-94223D01*
X142435Y-94202D01*
X142467Y-94159D01*
X142509Y-94096D01*
X142530Y-94001D01*
X142541Y-93884D01*
X142541Y-93757D01*
X142541Y-93736D01*
X142541Y-93694D01*
X142530Y-93630D01*
X142509Y-93556D01*
X142477Y-93493D01*
X142424Y-93429D01*
X142361Y-93387D01*
X142266Y-93366D01*
X142266Y-93366D02*
G37*
G36*
X126764Y-93366D02*
X125504Y-93366D01*
X125504Y-94233D01*
X126848Y-94233D01*
X126880Y-94223D01*
X126933Y-94212D01*
X126986Y-94181D01*
X127028Y-94138D01*
X127081Y-94075D01*
X127113Y-93979D01*
X127123Y-93852D01*
X127123Y-93757D01*
X127123Y-93736D01*
X127123Y-93694D01*
X127102Y-93630D01*
X127081Y-93556D01*
X127039Y-93493D01*
X126975Y-93429D01*
X126880Y-93387D01*
X126764Y-93366D01*
X126764Y-93366D02*
G37*
G36*
X130298Y-93366D02*
X129409Y-93366D01*
X129367Y-93376D01*
X129314Y-93387D01*
X129261Y-93408D01*
X129208Y-93429D01*
X129155Y-93472D01*
X129102Y-93524D01*
X129102Y-93535D01*
X129081Y-93556D01*
X129070Y-93588D01*
X129049Y-93651D01*
X129028Y-93726D01*
X129017Y-93810D01*
X128996Y-93927D01*
X128996Y-94064D01*
X128996Y-94456D01*
X128996Y-94477D01*
X128996Y-94519D01*
X128996Y-94583D01*
X129007Y-94667D01*
X129028Y-94847D01*
X129049Y-94932D01*
X129070Y-94995D01*
X129070Y-95006D01*
X129092Y-95016D01*
X129113Y-95038D01*
X129144Y-95069D01*
X129187Y-95101D01*
X129240Y-95122D01*
X129314Y-95133D01*
X129398Y-95143D01*
X130340Y-95143D01*
X130393Y-95133D01*
X130467Y-95112D01*
X130552Y-95059D01*
X130626Y-94974D01*
X130668Y-94921D01*
X130700Y-94858D01*
X130732Y-94773D01*
X130753Y-94678D01*
X130774Y-94572D01*
X130774Y-94456D01*
X130774Y-94064D01*
X130774Y-94043D01*
X130774Y-94001D01*
X130763Y-93937D01*
X130753Y-93852D01*
X130710Y-93673D01*
X130679Y-93588D01*
X130626Y-93524D01*
X130615Y-93514D01*
X130605Y-93503D01*
X130573Y-93472D01*
X130531Y-93440D01*
X130425Y-93387D01*
X130372Y-93376D01*
X130298Y-93366D01*
X130298Y-93366D02*
G37*
%LPD*%
D10*
X221210Y-102590D02*
X221210Y-101990D01*
X227330Y-82990D02*
X227330Y-82990D01*
X216210Y-102790D02*
X216210Y-101790D01*
X216050Y-104625D02*
X216050Y-103355D01*
X218590Y-104625D02*
X218590Y-103355D01*
X221130Y-104625D02*
X221130Y-103355D01*
X223670Y-104625D02*
X223670Y-103355D01*
X226210Y-102790D02*
X226210Y-101790D01*
X226210Y-104625D02*
X226210Y-103355D01*
X197510Y-82990D02*
X197510Y-79990D01*
X216050Y-103990D02*
X226210Y-103990D01*
X216210Y-102290D02*
X226210Y-102290D01*
X197510Y-82990D02*
X227330Y-82990D01*
X145510Y-87490D02*
X227330Y-87490D01*
X212743Y-103590D02*
X212410Y-104057D01*
X212910Y-104057D01*
X212743Y-103590D02*
X212743Y-104290D01*
X213233Y-103590D02*
X213133Y-103623D01*
X213067Y-103723D01*
X213033Y-103890D01*
X213033Y-103990D01*
X213067Y-104157D01*
X213133Y-104257D01*
X213233Y-104290D01*
X213300Y-104290D01*
X213400Y-104257D01*
X213466Y-104157D01*
X213500Y-103990D01*
X213500Y-103890D01*
X213466Y-103723D01*
X213400Y-103623D01*
X213300Y-103590D01*
X213233Y-103590D01*
X213856Y-103590D02*
X213756Y-103623D01*
X213690Y-103723D01*
X213656Y-103890D01*
X213656Y-103990D01*
X213690Y-104157D01*
X213756Y-104257D01*
X213856Y-104290D01*
X213923Y-104290D01*
X214023Y-104257D01*
X214090Y-104157D01*
X214123Y-103990D01*
X214123Y-103890D01*
X214090Y-103723D01*
X214023Y-103623D01*
X213923Y-103590D01*
X213856Y-103590D01*
X214280Y-103823D02*
X214280Y-104290D01*
X214280Y-103957D02*
X214380Y-103857D01*
X214446Y-103823D01*
X214546Y-103823D01*
X214613Y-103857D01*
X214646Y-103957D01*
X214646Y-104290D01*
X214646Y-103957D02*
X214746Y-103857D01*
X214813Y-103823D01*
X214913Y-103823D01*
X214979Y-103857D01*
X215013Y-103957D01*
X215013Y-104290D01*
X215299Y-103590D02*
X215333Y-103623D01*
X215366Y-103590D01*
X215333Y-103557D01*
X215299Y-103590D01*
X215333Y-103823D02*
X215333Y-104290D01*
X215489Y-103590D02*
X215489Y-104290D01*
X212510Y-102023D02*
X212577Y-101990D01*
X212677Y-101890D01*
X212677Y-102590D01*
X213223Y-101890D02*
X213123Y-101923D01*
X213057Y-102023D01*
X213023Y-102190D01*
X213023Y-102290D01*
X213057Y-102457D01*
X213123Y-102557D01*
X213223Y-102590D01*
X213290Y-102590D01*
X213390Y-102557D01*
X213456Y-102457D01*
X213490Y-102290D01*
X213490Y-102190D01*
X213456Y-102023D01*
X213390Y-101923D01*
X213290Y-101890D01*
X213223Y-101890D01*
X213646Y-102123D02*
X213646Y-102590D01*
X213646Y-102257D02*
X213746Y-102157D01*
X213813Y-102123D01*
X213913Y-102123D01*
X213980Y-102157D01*
X214013Y-102257D01*
X214013Y-102590D01*
X214013Y-102257D02*
X214113Y-102157D01*
X214180Y-102123D01*
X214280Y-102123D01*
X214346Y-102157D01*
X214380Y-102257D01*
X214380Y-102590D01*
X214600Y-102123D02*
X214600Y-102590D01*
X214600Y-102257D02*
X214700Y-102157D01*
X214766Y-102123D01*
X214866Y-102123D01*
X214933Y-102157D01*
X214966Y-102257D01*
X214966Y-102590D01*
X214966Y-102257D02*
X215066Y-102157D01*
X215133Y-102123D01*
X215233Y-102123D01*
X215299Y-102157D01*
X215333Y-102257D01*
X215333Y-102590D01*
D11*
X211438Y-80740D02*
X210510Y-80740D01*
X210510Y-82240D01*
X211438Y-82240D01*
X210510Y-81454D02*
X211081Y-81454D01*
X211688Y-80740D02*
X212260Y-82240D01*
X212831Y-80740D02*
X212260Y-82240D01*
X213095Y-81097D02*
X213095Y-81026D01*
X213167Y-80883D01*
X213238Y-80812D01*
X213381Y-80740D01*
X213666Y-80740D01*
X213809Y-80812D01*
X213881Y-80883D01*
X213952Y-81026D01*
X213952Y-81169D01*
X213881Y-81312D01*
X213738Y-81526D01*
X213024Y-82240D01*
X214024Y-82240D01*
X215073Y-80740D02*
X214359Y-81740D01*
X215430Y-81740D01*
X215073Y-80740D02*
X215073Y-82240D01*
X215695Y-80740D02*
X215695Y-81811D01*
X215766Y-82026D01*
X215909Y-82169D01*
X216123Y-82240D01*
X216266Y-82240D01*
X216480Y-82169D01*
X216623Y-82026D01*
X216694Y-81811D01*
X216694Y-80740D01*
X217180Y-81097D02*
X217180Y-81026D01*
X217251Y-80883D01*
X217323Y-80812D01*
X217466Y-80740D01*
X217751Y-80740D01*
X217894Y-80812D01*
X217966Y-80883D01*
X218037Y-81026D01*
X218037Y-81169D01*
X217966Y-81312D01*
X217823Y-81526D01*
X217109Y-82240D01*
X218108Y-82240D01*
X218515Y-81097D02*
X218515Y-81026D01*
X218587Y-80883D01*
X218658Y-80812D01*
X218801Y-80740D01*
X219087Y-80740D01*
X219230Y-80812D01*
X219301Y-80883D01*
X219372Y-81026D01*
X219372Y-81169D01*
X219301Y-81312D01*
X219158Y-81526D01*
X218444Y-82240D01*
X219444Y-82240D01*
X220922Y-82240D02*
X220351Y-80740D01*
X219779Y-82240D01*
X219994Y-81740D02*
X220708Y-81740D01*
D12*
X209259Y-103420D02*
X209259Y-103348D01*
X209331Y-103205D01*
X209402Y-103134D01*
X209545Y-103063D01*
X209831Y-103063D01*
X209973Y-103134D01*
X210045Y-103205D01*
X210116Y-103348D01*
X210116Y-103491D01*
X210045Y-103634D01*
X209902Y-103848D01*
X209188Y-104562D01*
X210188Y-104562D01*
X147576Y-92619D02*
X147424Y-92467D01*
X147196Y-92390D01*
X146891Y-92390D01*
X146662Y-92467D01*
X146510Y-92619D01*
X146510Y-92771D01*
X146586Y-92924D01*
X146662Y-93000D01*
X146815Y-93076D01*
X147272Y-93228D01*
X147424Y-93304D01*
X147500Y-93381D01*
X147576Y-93533D01*
X147576Y-93761D01*
X147424Y-93914D01*
X147196Y-93990D01*
X146891Y-93990D01*
X146662Y-93914D01*
X146510Y-93761D01*
X147934Y-92390D02*
X147934Y-93990D01*
X148849Y-93990D01*
X149557Y-92390D02*
X149557Y-93990D01*
X149024Y-92390D02*
X150090Y-92390D01*
X116780Y-103136D02*
X116695Y-102966D01*
X116526Y-102797D01*
X116356Y-102712D01*
X116018Y-102712D01*
X115849Y-102797D01*
X115679Y-102966D01*
X115595Y-103136D01*
X115510Y-103390D01*
X115510Y-103813D01*
X115595Y-104067D01*
X115679Y-104236D01*
X115849Y-104405D01*
X116018Y-104490D01*
X116356Y-104490D01*
X116526Y-104405D01*
X116695Y-104236D01*
X116780Y-104067D01*
X117279Y-102712D02*
X117279Y-104490D01*
X117279Y-103644D02*
X117533Y-103390D01*
X117702Y-103305D01*
X117956Y-103305D01*
X118126Y-103390D01*
X118210Y-103644D01*
X118210Y-104490D01*
X119692Y-103305D02*
X119692Y-104490D01*
X119692Y-103559D02*
X119522Y-103390D01*
X119353Y-103305D01*
X119099Y-103305D01*
X118930Y-103390D01*
X118761Y-103559D01*
X118676Y-103813D01*
X118676Y-103982D01*
X118761Y-104236D01*
X118930Y-104405D01*
X119099Y-104490D01*
X119353Y-104490D01*
X119522Y-104405D01*
X119692Y-104236D01*
X120166Y-103305D02*
X120166Y-104490D01*
X120166Y-103644D02*
X120420Y-103390D01*
X120589Y-103305D01*
X120843Y-103305D01*
X121012Y-103390D01*
X121097Y-103644D01*
X121097Y-104490D01*
X122578Y-102712D02*
X122578Y-104490D01*
X122578Y-103559D02*
X122409Y-103390D01*
X122240Y-103305D01*
X121986Y-103305D01*
X121816Y-103390D01*
X121647Y-103559D01*
X121562Y-103813D01*
X121562Y-103982D01*
X121647Y-104236D01*
X121816Y-104405D01*
X121986Y-104490D01*
X122240Y-104490D01*
X122409Y-104405D01*
X122578Y-104236D01*
X123052Y-102712D02*
X123052Y-104490D01*
X123425Y-103813D02*
X124440Y-103813D01*
X124440Y-103644D01*
X124356Y-103474D01*
X124271Y-103390D01*
X124102Y-103305D01*
X123848Y-103305D01*
X123679Y-103390D01*
X123509Y-103559D01*
X123425Y-103813D01*
X123425Y-103982D01*
X123509Y-104236D01*
X123679Y-104405D01*
X123848Y-104490D01*
X124102Y-104490D01*
X124271Y-104405D01*
X124440Y-104236D01*
X124821Y-103305D02*
X124821Y-104490D01*
X124821Y-103813D02*
X124906Y-103559D01*
X125075Y-103390D01*
X125245Y-103305D01*
X125499Y-103305D01*
X125829Y-104405D02*
X125744Y-104490D01*
X125659Y-104405D01*
X125744Y-104321D01*
X125829Y-104405D01*
X125829Y-104575D01*
X125744Y-104744D01*
X125659Y-104829D01*
X128969Y-104490D02*
X128292Y-102712D01*
X127615Y-104490D01*
X127869Y-103897D02*
X128715Y-103897D01*
X130569Y-102712D02*
X129384Y-104490D01*
X129384Y-102712D02*
X130569Y-102712D01*
X129384Y-104490D02*
X130569Y-104490D01*
X134183Y-102712D02*
X133930Y-102797D01*
X133845Y-102966D01*
X133845Y-103136D01*
X133930Y-103305D01*
X134099Y-103390D01*
X134437Y-103474D01*
X134691Y-103559D01*
X134861Y-103728D01*
X134945Y-103897D01*
X134945Y-104151D01*
X134861Y-104321D01*
X134776Y-104405D01*
X134522Y-104490D01*
X134183Y-104490D01*
X133930Y-104405D01*
X133845Y-104321D01*
X133760Y-104151D01*
X133760Y-103897D01*
X133845Y-103728D01*
X134014Y-103559D01*
X134268Y-103474D01*
X134607Y-103390D01*
X134776Y-103305D01*
X134861Y-103136D01*
X134861Y-102966D01*
X134776Y-102797D01*
X134522Y-102712D01*
X134183Y-102712D01*
X136359Y-102712D02*
X135512Y-102712D01*
X135428Y-103474D01*
X135512Y-103390D01*
X135766Y-103305D01*
X136020Y-103305D01*
X136274Y-103390D01*
X136444Y-103559D01*
X136528Y-103813D01*
X136528Y-103982D01*
X136444Y-104236D01*
X136274Y-104405D01*
X136020Y-104490D01*
X135766Y-104490D01*
X135512Y-104405D01*
X135428Y-104321D01*
X135343Y-104151D01*
X137011Y-103136D02*
X137011Y-103051D01*
X137095Y-102882D01*
X137180Y-102797D01*
X137349Y-102712D01*
X137688Y-102712D01*
X137857Y-102797D01*
X137942Y-102882D01*
X138027Y-103051D01*
X138027Y-103220D01*
X137942Y-103390D01*
X137773Y-103644D01*
X136926Y-104490D01*
X138111Y-104490D01*
X138594Y-103136D02*
X138594Y-103051D01*
X138678Y-102882D01*
X138763Y-102797D01*
X138932Y-102712D01*
X139271Y-102712D01*
X139440Y-102797D01*
X139525Y-102882D01*
X139609Y-103051D01*
X139609Y-103220D01*
X139525Y-103390D01*
X139355Y-103644D01*
X138509Y-104490D01*
X139694Y-104490D01*
X140938Y-102712D02*
X140092Y-103897D01*
X141362Y-103897D01*
X140938Y-102712D02*
X140938Y-104490D01*
X114595Y-100636D02*
X114595Y-100551D01*
X114679Y-100382D01*
X114764Y-100297D01*
X114933Y-100212D01*
X115272Y-100212D01*
X115441Y-100297D01*
X115526Y-100382D01*
X115610Y-100551D01*
X115610Y-100720D01*
X115526Y-100890D01*
X115356Y-101144D01*
X114510Y-101990D01*
X115695Y-101990D01*
X116262Y-100212D02*
X117193Y-100212D01*
X116685Y-100890D01*
X116939Y-100890D01*
X117109Y-100974D01*
X117193Y-101059D01*
X117278Y-101313D01*
X117278Y-101482D01*
X117193Y-101736D01*
X117024Y-101905D01*
X116770Y-101990D01*
X116516Y-101990D01*
X116262Y-101905D01*
X116178Y-101821D01*
X116093Y-101651D01*
X118692Y-100212D02*
X117845Y-100212D01*
X117761Y-100974D01*
X117845Y-100890D01*
X118099Y-100805D01*
X118353Y-100805D01*
X118607Y-100890D01*
X118776Y-101059D01*
X118861Y-101313D01*
X118861Y-101482D01*
X118776Y-101736D01*
X118607Y-101905D01*
X118353Y-101990D01*
X118099Y-101990D01*
X117845Y-101905D01*
X117761Y-101821D01*
X117676Y-101651D01*
X120275Y-100212D02*
X119428Y-100212D01*
X119343Y-100974D01*
X119428Y-100890D01*
X119682Y-100805D01*
X119936Y-100805D01*
X120190Y-100890D01*
X120359Y-101059D01*
X120444Y-101313D01*
X120444Y-101482D01*
X120359Y-101736D01*
X120190Y-101905D01*
X119936Y-101990D01*
X119682Y-101990D01*
X119428Y-101905D01*
X119343Y-101821D01*
X119259Y-101651D01*
X122238Y-100212D02*
X122662Y-101990D01*
X123085Y-100212D02*
X122662Y-101990D01*
X123085Y-100212D02*
X123508Y-101990D01*
X123931Y-100212D02*
X123508Y-101990D01*
X124372Y-101821D02*
X124287Y-101905D01*
X124372Y-101990D01*
X124456Y-101905D01*
X124372Y-101821D01*
X127512Y-100636D02*
X127427Y-100466D01*
X127258Y-100297D01*
X127089Y-100212D01*
X126750Y-100212D01*
X126581Y-100297D01*
X126412Y-100466D01*
X126327Y-100636D01*
X126242Y-100890D01*
X126242Y-101313D01*
X126327Y-101567D01*
X126412Y-101736D01*
X126581Y-101905D01*
X126750Y-101990D01*
X127089Y-101990D01*
X127258Y-101905D01*
X127427Y-101736D01*
X127512Y-101567D01*
X128011Y-100212D02*
X128011Y-101990D01*
X128011Y-101144D02*
X128265Y-100890D01*
X128435Y-100805D01*
X128689Y-100805D01*
X128858Y-100890D01*
X128943Y-101144D01*
X128943Y-101990D01*
X130424Y-100805D02*
X130424Y-101990D01*
X130424Y-101059D02*
X130255Y-100890D01*
X130085Y-100805D01*
X129831Y-100805D01*
X129662Y-100890D01*
X129493Y-101059D01*
X129408Y-101313D01*
X129408Y-101482D01*
X129493Y-101736D01*
X129662Y-101905D01*
X129831Y-101990D01*
X130085Y-101990D01*
X130255Y-101905D01*
X130424Y-101736D01*
X130898Y-100805D02*
X130898Y-101990D01*
X130898Y-101144D02*
X131152Y-100890D01*
X131321Y-100805D01*
X131575Y-100805D01*
X131744Y-100890D01*
X131829Y-101144D01*
X131829Y-101990D01*
X133310Y-100212D02*
X133310Y-101990D01*
X133310Y-101059D02*
X133141Y-100890D01*
X132972Y-100805D01*
X132718Y-100805D01*
X132549Y-100890D01*
X132379Y-101059D01*
X132295Y-101313D01*
X132295Y-101482D01*
X132379Y-101736D01*
X132549Y-101905D01*
X132718Y-101990D01*
X132972Y-101990D01*
X133141Y-101905D01*
X133310Y-101736D01*
X133784Y-100212D02*
X133784Y-101990D01*
X134157Y-101313D02*
X135173Y-101313D01*
X135173Y-101144D01*
X135088Y-100974D01*
X135003Y-100890D01*
X134834Y-100805D01*
X134580Y-100805D01*
X134411Y-100890D01*
X134242Y-101059D01*
X134157Y-101313D01*
X134157Y-101482D01*
X134242Y-101736D01*
X134411Y-101905D01*
X134580Y-101990D01*
X134834Y-101990D01*
X135003Y-101905D01*
X135173Y-101736D01*
X135554Y-100805D02*
X135554Y-101990D01*
X135554Y-101313D02*
X135638Y-101059D01*
X135808Y-100890D01*
X135977Y-100805D01*
X136231Y-100805D01*
X137788Y-100212D02*
X137788Y-101990D01*
X137788Y-100212D02*
X138550Y-100212D01*
X138804Y-100297D01*
X138889Y-100382D01*
X138973Y-100551D01*
X138973Y-100720D01*
X138889Y-100890D01*
X138804Y-100974D01*
X138550Y-101059D01*
X137788Y-101059D02*
X138550Y-101059D01*
X138804Y-101144D01*
X138889Y-101228D01*
X138973Y-101397D01*
X138973Y-101651D01*
X138889Y-101821D01*
X138804Y-101905D01*
X138550Y-101990D01*
X137788Y-101990D01*
X139371Y-100212D02*
X139371Y-101990D01*
X139744Y-100805D02*
X140252Y-101990D01*
X140760Y-100805D02*
X140252Y-101990D01*
X142063Y-100212D02*
X142063Y-101990D01*
X142063Y-101059D02*
X141894Y-100890D01*
X141725Y-100805D01*
X141471Y-100805D01*
X141301Y-100890D01*
X141132Y-101059D01*
X141047Y-101313D01*
X141047Y-101482D01*
X141132Y-101736D01*
X141301Y-101905D01*
X141471Y-101990D01*
X141725Y-101990D01*
X141894Y-101905D01*
X142063Y-101736D01*
X142622Y-101821D02*
X142537Y-101905D01*
X142622Y-101990D01*
X142706Y-101905D01*
X142622Y-101821D01*
X113280Y-97472D02*
X113280Y-99250D01*
X113280Y-97472D02*
X113957Y-99250D01*
X114634Y-97472D02*
X113957Y-99250D01*
X114634Y-97472D02*
X114634Y-99250D01*
X115312Y-97472D02*
X115396Y-97557D01*
X115481Y-97472D01*
X115396Y-97388D01*
X115312Y-97472D01*
X115396Y-98065D02*
X115396Y-99250D01*
X116810Y-98319D02*
X116641Y-98150D01*
X116471Y-98065D01*
X116217Y-98065D01*
X116048Y-98150D01*
X115879Y-98319D01*
X115794Y-98573D01*
X115794Y-98742D01*
X115879Y-98996D01*
X116048Y-99165D01*
X116217Y-99250D01*
X116471Y-99250D01*
X116641Y-99165D01*
X116810Y-98996D01*
X117191Y-98065D02*
X117191Y-99250D01*
X117191Y-98573D02*
X117275Y-98319D01*
X117445Y-98150D01*
X117614Y-98065D01*
X117868Y-98065D01*
X118452Y-98065D02*
X118283Y-98150D01*
X118113Y-98319D01*
X118029Y-98573D01*
X118029Y-98742D01*
X118113Y-98996D01*
X118283Y-99165D01*
X118452Y-99250D01*
X118706Y-99250D01*
X118875Y-99165D01*
X119045Y-98996D01*
X119129Y-98742D01*
X119129Y-98573D01*
X119045Y-98319D01*
X118875Y-98150D01*
X118706Y-98065D01*
X118452Y-98065D01*
X120534Y-98319D02*
X120365Y-98150D01*
X120196Y-98065D01*
X119942Y-98065D01*
X119773Y-98150D01*
X119603Y-98319D01*
X119519Y-98573D01*
X119519Y-98742D01*
X119603Y-98996D01*
X119773Y-99165D01*
X119942Y-99250D01*
X120196Y-99250D01*
X120365Y-99165D01*
X120534Y-98996D01*
X120915Y-97472D02*
X120915Y-99250D01*
X120915Y-98404D02*
X121169Y-98150D01*
X121339Y-98065D01*
X121592Y-98065D01*
X121762Y-98150D01*
X121846Y-98404D01*
X121846Y-99250D01*
X122481Y-97472D02*
X122566Y-97557D01*
X122651Y-97472D01*
X122566Y-97388D01*
X122481Y-97472D01*
X122566Y-98065D02*
X122566Y-99250D01*
X122964Y-98065D02*
X122964Y-99843D01*
X122964Y-98319D02*
X123133Y-98150D01*
X123302Y-98065D01*
X123556Y-98065D01*
X123726Y-98150D01*
X123895Y-98319D01*
X123980Y-98573D01*
X123980Y-98742D01*
X123895Y-98996D01*
X123726Y-99165D01*
X123556Y-99250D01*
X123302Y-99250D01*
X123133Y-99165D01*
X122964Y-98996D01*
X126350Y-97472D02*
X126350Y-99250D01*
X125757Y-97472D02*
X126942Y-97472D01*
X127154Y-98573D02*
X128170Y-98573D01*
X128170Y-98404D01*
X128085Y-98234D01*
X128000Y-98150D01*
X127831Y-98065D01*
X127577Y-98065D01*
X127408Y-98150D01*
X127239Y-98319D01*
X127154Y-98573D01*
X127154Y-98742D01*
X127239Y-98996D01*
X127408Y-99165D01*
X127577Y-99250D01*
X127831Y-99250D01*
X128000Y-99165D01*
X128170Y-98996D01*
X129566Y-98319D02*
X129397Y-98150D01*
X129228Y-98065D01*
X128974Y-98065D01*
X128805Y-98150D01*
X128635Y-98319D01*
X128551Y-98573D01*
X128551Y-98742D01*
X128635Y-98996D01*
X128805Y-99165D01*
X128974Y-99250D01*
X129228Y-99250D01*
X129397Y-99165D01*
X129566Y-98996D01*
X129947Y-97472D02*
X129947Y-99250D01*
X129947Y-98404D02*
X130201Y-98150D01*
X130371Y-98065D01*
X130624Y-98065D01*
X130794Y-98150D01*
X130878Y-98404D01*
X130878Y-99250D01*
X131344Y-98065D02*
X131344Y-99250D01*
X131344Y-98404D02*
X131598Y-98150D01*
X131767Y-98065D01*
X132021Y-98065D01*
X132190Y-98150D01*
X132275Y-98404D01*
X132275Y-99250D01*
X133164Y-98065D02*
X132995Y-98150D01*
X132825Y-98319D01*
X132741Y-98573D01*
X132741Y-98742D01*
X132825Y-98996D01*
X132995Y-99165D01*
X133164Y-99250D01*
X133418Y-99250D01*
X133587Y-99165D01*
X133756Y-98996D01*
X133841Y-98742D01*
X133841Y-98573D01*
X133756Y-98319D01*
X133587Y-98150D01*
X133418Y-98065D01*
X133164Y-98065D01*
X134231Y-97472D02*
X134231Y-99250D01*
X135026Y-98065D02*
X134857Y-98150D01*
X134688Y-98319D01*
X134603Y-98573D01*
X134603Y-98742D01*
X134688Y-98996D01*
X134857Y-99165D01*
X135026Y-99250D01*
X135280Y-99250D01*
X135449Y-99165D01*
X135619Y-98996D01*
X135703Y-98742D01*
X135703Y-98573D01*
X135619Y-98319D01*
X135449Y-98150D01*
X135280Y-98065D01*
X135026Y-98065D01*
X137109Y-98065D02*
X137109Y-99419D01*
X137024Y-99673D01*
X136939Y-99758D01*
X136770Y-99843D01*
X136516Y-99843D01*
X136347Y-99758D01*
X137109Y-98319D02*
X136939Y-98150D01*
X136770Y-98065D01*
X136516Y-98065D01*
X136347Y-98150D01*
X136177Y-98319D01*
X136093Y-98573D01*
X136093Y-98742D01*
X136177Y-98996D01*
X136347Y-99165D01*
X136516Y-99250D01*
X136770Y-99250D01*
X136939Y-99165D01*
X137109Y-98996D01*
X137667Y-98065D02*
X138175Y-99250D01*
X138683Y-98065D02*
X138175Y-99250D01*
X138006Y-99589D01*
X137837Y-99758D01*
X137667Y-99843D01*
X137583Y-99843D01*
X140376Y-97472D02*
X140376Y-99250D01*
X140748Y-98065D02*
X140748Y-99250D01*
X140748Y-98404D02*
X141002Y-98150D01*
X141172Y-98065D01*
X141426Y-98065D01*
X141595Y-98150D01*
X141680Y-98404D01*
X141680Y-99250D01*
X143161Y-98319D02*
X142992Y-98150D01*
X142822Y-98065D01*
X142568Y-98065D01*
X142399Y-98150D01*
X142230Y-98319D01*
X142145Y-98573D01*
X142145Y-98742D01*
X142230Y-98996D01*
X142399Y-99165D01*
X142568Y-99250D01*
X142822Y-99250D01*
X142992Y-99165D01*
X143161Y-98996D01*
X143626Y-99081D02*
X143542Y-99165D01*
X143626Y-99250D01*
X143711Y-99165D01*
X143626Y-99081D01*
X174581Y-92633D02*
X174510Y-92562D01*
X174581Y-92490D01*
X174653Y-92562D01*
X174653Y-92705D01*
X174581Y-92847D01*
X174510Y-92919D01*
X175410Y-92490D02*
X175196Y-92562D01*
X175053Y-92776D01*
X174981Y-93133D01*
X174981Y-93347D01*
X175053Y-93704D01*
X175196Y-93919D01*
X175410Y-93990D01*
X175553Y-93990D01*
X175767Y-93919D01*
X175910Y-93704D01*
X175981Y-93347D01*
X175981Y-93133D01*
X175910Y-92776D01*
X175767Y-92562D01*
X175553Y-92490D01*
X175410Y-92490D01*
X177031Y-92490D02*
X176317Y-93490D01*
X177388Y-93490D01*
X177031Y-92490D02*
X177031Y-93990D01*
X177652Y-93347D02*
X178938Y-93347D01*
X179380Y-92776D02*
X179523Y-92705D01*
X179737Y-92490D01*
X179737Y-93990D01*
X180552Y-92847D02*
X180552Y-92776D01*
X180623Y-92633D01*
X180694Y-92562D01*
X180837Y-92490D01*
X181123Y-92490D01*
X181266Y-92562D01*
X181337Y-92633D01*
X181409Y-92776D01*
X181409Y-92919D01*
X181337Y-93062D01*
X181194Y-93276D01*
X180480Y-93990D01*
X181480Y-93990D01*
X182530Y-92490D02*
X181816Y-93490D01*
X182887Y-93490D01*
X182530Y-92490D02*
X182530Y-93990D01*
X183579Y-92490D02*
X183365Y-92562D01*
X183222Y-92776D01*
X183151Y-93133D01*
X183151Y-93347D01*
X183222Y-93704D01*
X183365Y-93919D01*
X183579Y-93990D01*
X183722Y-93990D01*
X183937Y-93919D01*
X184079Y-93704D01*
X184151Y-93347D01*
X184151Y-93133D01*
X184079Y-92776D01*
X183937Y-92562D01*
X183722Y-92490D01*
X183579Y-92490D01*
X185415Y-92990D02*
X185343Y-93204D01*
X185201Y-93347D01*
X184986Y-93419D01*
X184915Y-93419D01*
X184701Y-93347D01*
X184558Y-93204D01*
X184486Y-92990D01*
X184486Y-92919D01*
X184558Y-92705D01*
X184701Y-92562D01*
X184915Y-92490D01*
X184986Y-92490D01*
X185201Y-92562D01*
X185343Y-92705D01*
X185415Y-92990D01*
X185415Y-93347D01*
X185343Y-93704D01*
X185201Y-93919D01*
X184986Y-93990D01*
X184844Y-93990D01*
X184629Y-93919D01*
X184558Y-93776D01*
X185822Y-93347D02*
X187107Y-93347D01*
X187550Y-92490D02*
X187550Y-93990D01*
X187550Y-92490D02*
X188193Y-92490D01*
X188407Y-92562D01*
X188478Y-92633D01*
X188550Y-92776D01*
X188550Y-92919D01*
X188478Y-93062D01*
X188407Y-93133D01*
X188193Y-93204D01*
X187550Y-93204D01*
X188050Y-93204D02*
X188550Y-93990D01*
X188957Y-92847D02*
X188957Y-92776D01*
X189028Y-92633D01*
X189100Y-92562D01*
X189243Y-92490D01*
X189528Y-92490D01*
X189671Y-92562D01*
X189742Y-92633D01*
X189814Y-92776D01*
X189814Y-92919D01*
X189742Y-93062D01*
X189600Y-93276D01*
X188885Y-93990D01*
X189885Y-93990D01*
X190292Y-93847D02*
X190221Y-93919D01*
X190292Y-93990D01*
X190364Y-93919D01*
X190292Y-93847D01*
X191763Y-92847D02*
X191692Y-92705D01*
X191549Y-92562D01*
X191406Y-92490D01*
X191121Y-92490D01*
X190978Y-92562D01*
X190835Y-92705D01*
X190764Y-92847D01*
X190692Y-93062D01*
X190692Y-93419D01*
X190764Y-93633D01*
X190835Y-93776D01*
X190978Y-93919D01*
X191121Y-93990D01*
X191406Y-93990D01*
X191549Y-93919D01*
X191692Y-93776D01*
X191763Y-93633D01*
X191763Y-93419D01*
X191406Y-93419D02*
X191763Y-93419D01*
X192606Y-92490D02*
X192606Y-93990D01*
X192106Y-92490D02*
X193106Y-92490D01*
X194284Y-92705D02*
X194142Y-92562D01*
X193927Y-92490D01*
X193642Y-92490D01*
X193427Y-92562D01*
X193285Y-92705D01*
X193285Y-92847D01*
X193356Y-92990D01*
X193427Y-93062D01*
X193570Y-93133D01*
X193999Y-93276D01*
X194142Y-93347D01*
X194213Y-93419D01*
X194284Y-93562D01*
X194284Y-93776D01*
X194142Y-93919D01*
X193927Y-93990D01*
X193642Y-93990D01*
X193427Y-93919D01*
X193285Y-93776D01*
X194691Y-92633D02*
X194620Y-92562D01*
X194691Y-92490D01*
X194763Y-92562D01*
X194763Y-92705D01*
X194691Y-92847D01*
X194620Y-92919D01*
X201092Y-107188D02*
X201007Y-107019D01*
X200753Y-106934D01*
X200584Y-106934D01*
X200330Y-107019D01*
X200160Y-107273D01*
X200076Y-107696D01*
X200076Y-108119D01*
X200160Y-108458D01*
X200330Y-108627D01*
X200584Y-108712D01*
X200668Y-108712D01*
X200922Y-108627D01*
X201092Y-108458D01*
X201176Y-108204D01*
X201176Y-108119D01*
X201092Y-107866D01*
X200922Y-107696D01*
X200668Y-107612D01*
X200584Y-107612D01*
X200330Y-107696D01*
X200160Y-107866D01*
X200076Y-108119D01*
X137465Y-106934D02*
X136618Y-106934D01*
X136533Y-107696D01*
X136618Y-107612D01*
X136872Y-107527D01*
X137126Y-107527D01*
X137380Y-107612D01*
X137549Y-107781D01*
X137634Y-108035D01*
X137634Y-108204D01*
X137549Y-108458D01*
X137380Y-108627D01*
X137126Y-108712D01*
X136872Y-108712D01*
X136618Y-108627D01*
X136533Y-108543D01*
X136449Y-108373D01*
X73821Y-106934D02*
X72974Y-108119D01*
X74244Y-108119D01*
X73821Y-106934D02*
X73821Y-108712D01*
X9474Y-106934D02*
X10406Y-106934D01*
X9898Y-107612D01*
X10152Y-107612D01*
X10321Y-107696D01*
X10406Y-107781D01*
X10490Y-108035D01*
X10490Y-108204D01*
X10406Y-108458D01*
X10236Y-108627D01*
X9982Y-108712D01*
X9728Y-108712D01*
X9474Y-108627D01*
X9390Y-108543D01*
X9305Y-108373D01*
X-53840Y-107358D02*
X-53840Y-107273D01*
X-53755Y-107104D01*
X-53670Y-107019D01*
X-53501Y-106934D01*
X-53162Y-106934D01*
X-52993Y-107019D01*
X-52908Y-107104D01*
X-52824Y-107273D01*
X-52824Y-107442D01*
X-52908Y-107612D01*
X-53078Y-107866D01*
X-53924Y-108712D01*
X-52739Y-108712D01*
X-117314Y-107273D02*
X-117145Y-107188D01*
X-116891Y-106934D01*
X-116891Y-108712D01*
X-146685Y-80722D02*
X-146685Y-82499D01*
X-146685Y-80722D02*
X-146092Y-80722D01*
X-145839Y-80806D01*
X-145669Y-80976D01*
X-145585Y-81145D01*
X-145500Y-81399D01*
X-145500Y-81822D01*
X-145585Y-82076D01*
X-145669Y-82245D01*
X-145839Y-82415D01*
X-146092Y-82499D01*
X-146685Y-82499D01*
X-145415Y-20947D02*
X-145500Y-20778D01*
X-145669Y-20608D01*
X-145839Y-20524D01*
X-146177Y-20524D01*
X-146346Y-20608D01*
X-146516Y-20778D01*
X-146600Y-20947D01*
X-146685Y-21201D01*
X-146685Y-21624D01*
X-146600Y-21878D01*
X-146516Y-22047D01*
X-146346Y-22217D01*
X-146177Y-22301D01*
X-145839Y-22301D01*
X-145669Y-22217D01*
X-145500Y-22047D01*
X-145415Y-21878D01*
X-146685Y39801D02*
X-146685Y38024D01*
X-146685Y39801D02*
X-145923Y39801D01*
X-145669Y39717D01*
X-145585Y39632D01*
X-145500Y39463D01*
X-145500Y39294D01*
X-145585Y39124D01*
X-145669Y39040D01*
X-145923Y38955D01*
X-146685Y38955D02*
X-145923Y38955D01*
X-145669Y38870D01*
X-145585Y38786D01*
X-145500Y38616D01*
X-145500Y38362D01*
X-145585Y38193D01*
X-145669Y38108D01*
X-145923Y38024D01*
X-146685Y38024D01*
X-145331Y98476D02*
X-146008Y100253D01*
X-146685Y98476D01*
X-146431Y99068D02*
X-145585Y99068D01*
X229235Y-80722D02*
X229235Y-82499D01*
X229235Y-80722D02*
X229828Y-80722D01*
X230081Y-80806D01*
X230251Y-80976D01*
X230335Y-81145D01*
X230420Y-81399D01*
X230420Y-81822D01*
X230335Y-82076D01*
X230251Y-82245D01*
X230081Y-82415D01*
X229828Y-82499D01*
X229235Y-82499D01*
X230505Y-20947D02*
X230420Y-20778D01*
X230251Y-20608D01*
X230081Y-20524D01*
X229743Y-20524D01*
X229574Y-20608D01*
X229404Y-20778D01*
X229320Y-20947D01*
X229235Y-21201D01*
X229235Y-21624D01*
X229320Y-21878D01*
X229404Y-22047D01*
X229574Y-22217D01*
X229743Y-22301D01*
X230081Y-22301D01*
X230251Y-22217D01*
X230420Y-22047D01*
X230505Y-21878D01*
X229235Y39801D02*
X229235Y38024D01*
X229235Y39801D02*
X229997Y39801D01*
X230251Y39717D01*
X230335Y39632D01*
X230420Y39463D01*
X230420Y39294D01*
X230335Y39124D01*
X230251Y39040D01*
X229997Y38955D01*
X229235Y38955D02*
X229997Y38955D01*
X230251Y38870D01*
X230335Y38786D01*
X230420Y38616D01*
X230420Y38362D01*
X230335Y38193D01*
X230251Y38108D01*
X229997Y38024D01*
X229235Y38024D01*
X230589Y98476D02*
X229912Y100253D01*
X229235Y98476D01*
X229489Y99068D02*
X230335Y99068D01*
X201092Y129032D02*
X201007Y129201D01*
X200753Y129286D01*
X200584Y129286D01*
X200330Y129201D01*
X200160Y128947D01*
X200076Y128524D01*
X200076Y128101D01*
X200160Y127762D01*
X200330Y127593D01*
X200584Y127508D01*
X200668Y127508D01*
X200922Y127593D01*
X201092Y127762D01*
X201176Y128016D01*
X201176Y128101D01*
X201092Y128355D01*
X200922Y128524D01*
X200668Y128608D01*
X200584Y128608D01*
X200330Y128524D01*
X200160Y128355D01*
X200076Y128101D01*
X137465Y129286D02*
X136618Y129286D01*
X136533Y128524D01*
X136618Y128608D01*
X136872Y128693D01*
X137126Y128693D01*
X137380Y128608D01*
X137549Y128439D01*
X137634Y128185D01*
X137634Y128016D01*
X137549Y127762D01*
X137380Y127593D01*
X137126Y127508D01*
X136872Y127508D01*
X136618Y127593D01*
X136533Y127677D01*
X136449Y127847D01*
X73821Y129286D02*
X72974Y128101D01*
X74244Y128101D01*
X73821Y129286D02*
X73821Y127508D01*
X9474Y129286D02*
X10406Y129286D01*
X9898Y128608D01*
X10152Y128608D01*
X10321Y128524D01*
X10406Y128439D01*
X10490Y128185D01*
X10490Y128016D01*
X10406Y127762D01*
X10236Y127593D01*
X9982Y127508D01*
X9728Y127508D01*
X9474Y127593D01*
X9390Y127677D01*
X9305Y127847D01*
X-53840Y128862D02*
X-53840Y128947D01*
X-53755Y129116D01*
X-53670Y129201D01*
X-53501Y129286D01*
X-53162Y129286D01*
X-52993Y129201D01*
X-52908Y129116D01*
X-52824Y128947D01*
X-52824Y128778D01*
X-52908Y128608D01*
X-53078Y128355D01*
X-53924Y127508D01*
X-52739Y127508D01*
X-117314Y128947D02*
X-117145Y129032D01*
X-116891Y129286D01*
X-116891Y127508D01*
D13*
X174510Y-103240D02*
X174510Y-104740D01*
X174010Y-103240D02*
X175010Y-103240D01*
X175545Y-103740D02*
X175403Y-103812D01*
X175260Y-103954D01*
X175188Y-104169D01*
X175188Y-104312D01*
X175260Y-104526D01*
X175403Y-104669D01*
X175545Y-104740D01*
X175760Y-104740D01*
X175902Y-104669D01*
X176045Y-104526D01*
X176117Y-104312D01*
X176117Y-104169D01*
X176045Y-103954D01*
X175902Y-103812D01*
X175760Y-103740D01*
X175545Y-103740D01*
X176445Y-103740D02*
X176445Y-105240D01*
X176445Y-103954D02*
X176588Y-103812D01*
X176731Y-103740D01*
X176945Y-103740D01*
X177088Y-103812D01*
X177231Y-103954D01*
X177302Y-104169D01*
X177302Y-104312D01*
X177231Y-104526D01*
X177088Y-104669D01*
X176945Y-104740D01*
X176731Y-104740D01*
X176588Y-104669D01*
X176445Y-104526D01*
X179802Y-103455D02*
X179659Y-103312D01*
X179445Y-103240D01*
X179159Y-103240D01*
X178945Y-103312D01*
X178802Y-103455D01*
X178802Y-103597D01*
X178873Y-103740D01*
X178945Y-103812D01*
X179087Y-103883D01*
X179516Y-104026D01*
X179659Y-104097D01*
X179730Y-104169D01*
X179802Y-104312D01*
X179802Y-104526D01*
X179659Y-104669D01*
X179445Y-104740D01*
X179159Y-104740D01*
X178945Y-104669D01*
X178802Y-104526D01*
X180494Y-103740D02*
X180352Y-103812D01*
X180209Y-103954D01*
X180137Y-104169D01*
X180137Y-104312D01*
X180209Y-104526D01*
X180352Y-104669D01*
X180494Y-104740D01*
X180709Y-104740D01*
X180851Y-104669D01*
X180994Y-104526D01*
X181066Y-104312D01*
X181066Y-104169D01*
X180994Y-103954D01*
X180851Y-103812D01*
X180709Y-103740D01*
X180494Y-103740D01*
X181394Y-103240D02*
X181394Y-104740D01*
X182565Y-103240D02*
X182565Y-104740D01*
X182565Y-103954D02*
X182422Y-103812D01*
X182280Y-103740D01*
X182065Y-103740D01*
X181923Y-103812D01*
X181780Y-103954D01*
X181708Y-104169D01*
X181708Y-104312D01*
X181780Y-104526D01*
X181923Y-104669D01*
X182065Y-104740D01*
X182280Y-104740D01*
X182422Y-104669D01*
X182565Y-104526D01*
X182965Y-104169D02*
X183822Y-104169D01*
X183822Y-104026D01*
X183751Y-103883D01*
X183679Y-103812D01*
X183537Y-103740D01*
X183322Y-103740D01*
X183179Y-103812D01*
X183037Y-103954D01*
X182965Y-104169D01*
X182965Y-104312D01*
X183037Y-104526D01*
X183179Y-104669D01*
X183322Y-104740D01*
X183537Y-104740D01*
X183679Y-104669D01*
X183822Y-104526D01*
X184144Y-103740D02*
X184144Y-104740D01*
X184144Y-104169D02*
X184215Y-103954D01*
X184358Y-103812D01*
X184501Y-103740D01*
X184715Y-103740D01*
X146510Y-102192D02*
X147003Y-102192D01*
X147167Y-102138D01*
X147222Y-102083D01*
X147277Y-101973D01*
X147277Y-101809D01*
X147222Y-101700D01*
X147167Y-101645D01*
X147003Y-101590D01*
X146510Y-101590D01*
X146510Y-102740D01*
X148355Y-101864D02*
X148300Y-101754D01*
X148191Y-101645D01*
X148081Y-101590D01*
X147862Y-101590D01*
X147753Y-101645D01*
X147643Y-101754D01*
X147589Y-101864D01*
X147534Y-102028D01*
X147534Y-102302D01*
X147589Y-102466D01*
X147643Y-102576D01*
X147753Y-102685D01*
X147862Y-102740D01*
X148081Y-102740D01*
X148191Y-102685D01*
X148300Y-102576D01*
X148355Y-102466D01*
X148678Y-101590D02*
X148678Y-102740D01*
X148678Y-101590D02*
X149171Y-101590D01*
X149335Y-101645D01*
X149390Y-101700D01*
X149445Y-101809D01*
X149445Y-101919D01*
X149390Y-102028D01*
X149335Y-102083D01*
X149171Y-102138D01*
X148678Y-102138D02*
X149171Y-102138D01*
X149335Y-102192D01*
X149390Y-102247D01*
X149445Y-102357D01*
X149445Y-102521D01*
X149390Y-102630D01*
X149335Y-102685D01*
X149171Y-102740D01*
X148678Y-102740D01*
X150605Y-101590D02*
X150605Y-102740D01*
X150605Y-101590D02*
X151317Y-101590D01*
X150605Y-102138D02*
X151043Y-102138D01*
X151448Y-101590D02*
X151448Y-102740D01*
X151689Y-101590D02*
X151689Y-102740D01*
X152346Y-102740D01*
X153184Y-101590D02*
X152472Y-101590D01*
X152472Y-102740D01*
X153184Y-102740D01*
X152472Y-102138D02*
X152910Y-102138D01*
X154279Y-101590D02*
X154279Y-102740D01*
X154279Y-101590D02*
X155046Y-102740D01*
X155046Y-101590D02*
X155046Y-102740D01*
X156239Y-102740D02*
X155801Y-101590D01*
X155363Y-102740D01*
X155527Y-102357D02*
X156075Y-102357D01*
X156507Y-101590D02*
X156507Y-102740D01*
X156507Y-101590D02*
X156945Y-102740D01*
X157383Y-101590D02*
X156945Y-102740D01*
X157383Y-101590D02*
X157383Y-102740D01*
X158424Y-101590D02*
X157712Y-101590D01*
X157712Y-102740D01*
X158424Y-102740D01*
X157712Y-102138D02*
X158150Y-102138D01*
X158670Y-101973D02*
X158615Y-102028D01*
X158670Y-102083D01*
X158725Y-102028D01*
X158670Y-101973D01*
X158670Y-102630D02*
X158615Y-102685D01*
X158670Y-102740D01*
X158725Y-102685D01*
X158670Y-102630D01*
X146510Y-103740D02*
X146510Y-104740D01*
X146510Y-103740D02*
X146891Y-104740D01*
X147272Y-103740D02*
X146891Y-104740D01*
X147272Y-103740D02*
X147272Y-104740D01*
X147891Y-103740D02*
X147891Y-104740D01*
X147557Y-103740D02*
X148224Y-103740D01*
X149057Y-103978D02*
X149009Y-103883D01*
X148914Y-103788D01*
X148819Y-103740D01*
X148629Y-103740D01*
X148533Y-103788D01*
X148438Y-103883D01*
X148391Y-103978D01*
X148343Y-104121D01*
X148343Y-104359D01*
X148391Y-104502D01*
X148438Y-104597D01*
X148533Y-104692D01*
X148629Y-104740D01*
X148819Y-104740D01*
X148914Y-104692D01*
X149009Y-104597D01*
X149057Y-104502D01*
X149338Y-103740D02*
X149338Y-104740D01*
X150005Y-103740D02*
X150005Y-104740D01*
X149338Y-104216D02*
X150005Y-104216D01*
X150900Y-104073D02*
X150852Y-104216D01*
X150757Y-104312D01*
X150614Y-104359D01*
X150566Y-104359D01*
X150423Y-104312D01*
X150328Y-104216D01*
X150281Y-104073D01*
X150281Y-104026D01*
X150328Y-103883D01*
X150423Y-103788D01*
X150566Y-103740D01*
X150614Y-103740D01*
X150757Y-103788D01*
X150852Y-103883D01*
X150900Y-104073D01*
X150900Y-104312D01*
X150852Y-104550D01*
X150757Y-104692D01*
X150614Y-104740D01*
X150519Y-104740D01*
X150376Y-104692D01*
X150328Y-104597D01*
X151457Y-103740D02*
X151314Y-103788D01*
X151219Y-103931D01*
X151171Y-104169D01*
X151171Y-104312D01*
X151219Y-104550D01*
X151314Y-104692D01*
X151457Y-104740D01*
X151552Y-104740D01*
X151695Y-104692D01*
X151790Y-104550D01*
X151837Y-104312D01*
X151837Y-104169D01*
X151790Y-103931D01*
X151695Y-103788D01*
X151552Y-103740D01*
X151457Y-103740D01*
X152061Y-103931D02*
X152156Y-103883D01*
X152299Y-103740D01*
X152299Y-104740D01*
X153080Y-103740D02*
X152937Y-103788D01*
X152842Y-103931D01*
X152794Y-104169D01*
X152794Y-104312D01*
X152842Y-104550D01*
X152937Y-104692D01*
X153080Y-104740D01*
X153175Y-104740D01*
X153318Y-104692D01*
X153413Y-104550D01*
X153461Y-104312D01*
X153461Y-104169D01*
X153413Y-103931D01*
X153318Y-103788D01*
X153175Y-103740D01*
X153080Y-103740D01*
X153685Y-105073D02*
X154446Y-105073D01*
X155241Y-103883D02*
X155146Y-103788D01*
X155003Y-103740D01*
X154813Y-103740D01*
X154670Y-103788D01*
X154575Y-103883D01*
X154575Y-103978D01*
X154623Y-104073D01*
X154670Y-104121D01*
X154765Y-104169D01*
X155051Y-104264D01*
X155146Y-104312D01*
X155194Y-104359D01*
X155241Y-104454D01*
X155241Y-104597D01*
X155146Y-104692D01*
X155003Y-104740D01*
X154813Y-104740D01*
X154670Y-104692D01*
X154575Y-104597D01*
X155465Y-104359D02*
X156037Y-104359D01*
X156037Y-104264D01*
X155989Y-104169D01*
X155941Y-104121D01*
X155846Y-104073D01*
X155703Y-104073D01*
X155608Y-104121D01*
X155513Y-104216D01*
X155465Y-104359D01*
X155465Y-104454D01*
X155513Y-104597D01*
X155608Y-104692D01*
X155703Y-104740D01*
X155846Y-104740D01*
X155941Y-104692D01*
X156037Y-104597D01*
X156251Y-104073D02*
X156251Y-104740D01*
X156251Y-104264D02*
X156394Y-104121D01*
X156489Y-104073D01*
X156632Y-104073D01*
X156727Y-104121D01*
X156774Y-104264D01*
X156774Y-104740D01*
X157560Y-104216D02*
X157512Y-104121D01*
X157370Y-104073D01*
X157227Y-104073D01*
X157084Y-104121D01*
X157036Y-104216D01*
X157084Y-104312D01*
X157179Y-104359D01*
X157417Y-104407D01*
X157512Y-104454D01*
X157560Y-104550D01*
X157560Y-104597D01*
X157512Y-104692D01*
X157370Y-104740D01*
X157227Y-104740D01*
X157084Y-104692D01*
X157036Y-104597D01*
X158008Y-104073D02*
X157912Y-104121D01*
X157817Y-104216D01*
X157770Y-104359D01*
X157770Y-104454D01*
X157817Y-104597D01*
X157912Y-104692D01*
X158008Y-104740D01*
X158150Y-104740D01*
X158246Y-104692D01*
X158341Y-104597D01*
X158388Y-104454D01*
X158388Y-104359D01*
X158341Y-104216D01*
X158246Y-104121D01*
X158150Y-104073D01*
X158008Y-104073D01*
X158607Y-104073D02*
X158607Y-104740D01*
X158607Y-104359D02*
X158655Y-104216D01*
X158750Y-104121D01*
X158845Y-104073D01*
X158988Y-104073D01*
X159602Y-104216D02*
X159555Y-104121D01*
X159412Y-104073D01*
X159269Y-104073D01*
X159126Y-104121D01*
X159079Y-104216D01*
X159126Y-104312D01*
X159222Y-104359D01*
X159460Y-104407D01*
X159555Y-104454D01*
X159602Y-104550D01*
X159602Y-104597D01*
X159555Y-104692D01*
X159412Y-104740D01*
X159269Y-104740D01*
X159126Y-104692D01*
X159079Y-104597D01*
X159860Y-104645D02*
X159812Y-104692D01*
X159860Y-104740D01*
X159907Y-104692D01*
X159860Y-104645D01*
X160126Y-104264D02*
X160555Y-104264D01*
X160697Y-104216D01*
X160745Y-104169D01*
X160793Y-104073D01*
X160793Y-103931D01*
X160745Y-103835D01*
X160697Y-103788D01*
X160555Y-103740D01*
X160126Y-103740D01*
X160126Y-104740D01*
X161588Y-104216D02*
X161493Y-104121D01*
X161397Y-104073D01*
X161254Y-104073D01*
X161159Y-104121D01*
X161064Y-104216D01*
X161016Y-104359D01*
X161016Y-104454D01*
X161064Y-104597D01*
X161159Y-104692D01*
X161254Y-104740D01*
X161397Y-104740D01*
X161493Y-104692D01*
X161588Y-104597D01*
X161802Y-103740D02*
X161802Y-104740D01*
X161802Y-104216D02*
X161897Y-104121D01*
X161992Y-104073D01*
X162135Y-104073D01*
X162230Y-104121D01*
X162326Y-104216D01*
X162373Y-104359D01*
X162373Y-104454D01*
X162326Y-104597D01*
X162230Y-104692D01*
X162135Y-104740D01*
X161992Y-104740D01*
X161897Y-104692D01*
X161802Y-104597D01*
X162588Y-103740D02*
X162588Y-104740D01*
X162588Y-103740D02*
X162921Y-103740D01*
X163064Y-103788D01*
X163159Y-103883D01*
X163206Y-103978D01*
X163254Y-104121D01*
X163254Y-104359D01*
X163206Y-104502D01*
X163159Y-104597D01*
X163064Y-104692D01*
X162921Y-104740D01*
X162588Y-104740D01*
X163716Y-104073D02*
X163621Y-104121D01*
X163525Y-104216D01*
X163478Y-104359D01*
X163478Y-104454D01*
X163525Y-104597D01*
X163621Y-104692D01*
X163716Y-104740D01*
X163859Y-104740D01*
X163954Y-104692D01*
X164049Y-104597D01*
X164097Y-104454D01*
X164097Y-104359D01*
X164049Y-104216D01*
X163954Y-104121D01*
X163859Y-104073D01*
X163716Y-104073D01*
X164887Y-104216D02*
X164792Y-104121D01*
X164697Y-104073D01*
X164554Y-104073D01*
X164459Y-104121D01*
X164363Y-104216D01*
X164316Y-104359D01*
X164316Y-104454D01*
X164363Y-104597D01*
X164459Y-104692D01*
X164554Y-104740D01*
X164697Y-104740D01*
X164792Y-104692D01*
X164887Y-104597D01*
X146510Y-90442D02*
X147003Y-90442D01*
X147167Y-90388D01*
X147222Y-90333D01*
X147277Y-90223D01*
X147277Y-90059D01*
X147222Y-89950D01*
X147167Y-89895D01*
X147003Y-89840D01*
X146510Y-89840D01*
X146510Y-90990D01*
X148355Y-90114D02*
X148300Y-90004D01*
X148191Y-89895D01*
X148081Y-89840D01*
X147862Y-89840D01*
X147753Y-89895D01*
X147643Y-90004D01*
X147589Y-90114D01*
X147534Y-90278D01*
X147534Y-90552D01*
X147589Y-90716D01*
X147643Y-90826D01*
X147753Y-90935D01*
X147862Y-90990D01*
X148081Y-90990D01*
X148191Y-90935D01*
X148300Y-90826D01*
X148355Y-90716D01*
X148678Y-89840D02*
X148678Y-90990D01*
X148678Y-89840D02*
X149171Y-89840D01*
X149335Y-89895D01*
X149390Y-89950D01*
X149445Y-90059D01*
X149445Y-90169D01*
X149390Y-90278D01*
X149335Y-90333D01*
X149171Y-90388D01*
X148678Y-90388D02*
X149171Y-90388D01*
X149335Y-90442D01*
X149390Y-90497D01*
X149445Y-90607D01*
X149445Y-90771D01*
X149390Y-90880D01*
X149335Y-90935D01*
X149171Y-90990D01*
X148678Y-90990D01*
X150605Y-89840D02*
X150605Y-90990D01*
X151262Y-90990D01*
X152045Y-90223D02*
X152045Y-90990D01*
X152045Y-90388D02*
X151936Y-90278D01*
X151826Y-90223D01*
X151662Y-90223D01*
X151553Y-90278D01*
X151443Y-90388D01*
X151388Y-90552D01*
X151388Y-90661D01*
X151443Y-90826D01*
X151553Y-90935D01*
X151662Y-90990D01*
X151826Y-90990D01*
X151936Y-90935D01*
X152045Y-90826D01*
X152407Y-90223D02*
X152735Y-90990D01*
X153064Y-90223D02*
X152735Y-90990D01*
X152626Y-91209D01*
X152516Y-91318D01*
X152407Y-91373D01*
X152352Y-91373D01*
X153529Y-90223D02*
X153419Y-90278D01*
X153310Y-90388D01*
X153255Y-90552D01*
X153255Y-90661D01*
X153310Y-90826D01*
X153419Y-90935D01*
X153529Y-90990D01*
X153693Y-90990D01*
X153803Y-90935D01*
X153912Y-90826D01*
X153967Y-90661D01*
X153967Y-90552D01*
X153912Y-90388D01*
X153803Y-90278D01*
X153693Y-90223D01*
X153529Y-90223D01*
X154219Y-90223D02*
X154219Y-90771D01*
X154274Y-90935D01*
X154383Y-90990D01*
X154547Y-90990D01*
X154657Y-90935D01*
X154821Y-90771D01*
X154821Y-90223D02*
X154821Y-90990D01*
X155286Y-89840D02*
X155286Y-90771D01*
X155341Y-90935D01*
X155451Y-90990D01*
X155560Y-90990D01*
X155122Y-90223D02*
X155505Y-90223D01*
X157449Y-90114D02*
X157394Y-90004D01*
X157285Y-89895D01*
X157175Y-89840D01*
X156956Y-89840D01*
X156847Y-89895D01*
X156737Y-90004D01*
X156683Y-90114D01*
X156628Y-90278D01*
X156628Y-90552D01*
X156683Y-90716D01*
X156737Y-90826D01*
X156847Y-90935D01*
X156956Y-90990D01*
X157175Y-90990D01*
X157285Y-90935D01*
X157394Y-90826D01*
X157449Y-90716D01*
X158046Y-90223D02*
X157936Y-90278D01*
X157827Y-90388D01*
X157772Y-90552D01*
X157772Y-90661D01*
X157827Y-90826D01*
X157936Y-90935D01*
X158046Y-90990D01*
X158210Y-90990D01*
X158320Y-90935D01*
X158429Y-90826D01*
X158484Y-90661D01*
X158484Y-90552D01*
X158429Y-90388D01*
X158320Y-90278D01*
X158210Y-90223D01*
X158046Y-90223D01*
X158736Y-90223D02*
X158736Y-90990D01*
X158736Y-90442D02*
X158900Y-90278D01*
X159009Y-90223D01*
X159174Y-90223D01*
X159283Y-90278D01*
X159338Y-90442D01*
X159338Y-90990D01*
X159803Y-89840D02*
X159803Y-90771D01*
X159858Y-90935D01*
X159968Y-90990D01*
X160077Y-90990D01*
X159639Y-90223D02*
X160022Y-90223D01*
X160898Y-90223D02*
X160898Y-90990D01*
X160898Y-90388D02*
X160789Y-90278D01*
X160679Y-90223D01*
X160515Y-90223D01*
X160406Y-90278D01*
X160296Y-90388D01*
X160241Y-90552D01*
X160241Y-90661D01*
X160296Y-90826D01*
X160406Y-90935D01*
X160515Y-90990D01*
X160679Y-90990D01*
X160789Y-90935D01*
X160898Y-90826D01*
X161862Y-90388D02*
X161752Y-90278D01*
X161643Y-90223D01*
X161479Y-90223D01*
X161369Y-90278D01*
X161260Y-90388D01*
X161205Y-90552D01*
X161205Y-90661D01*
X161260Y-90826D01*
X161369Y-90935D01*
X161479Y-90990D01*
X161643Y-90990D01*
X161752Y-90935D01*
X161862Y-90826D01*
X162273Y-89840D02*
X162273Y-90771D01*
X162327Y-90935D01*
X162437Y-90990D01*
X162546Y-90990D01*
X162108Y-90223D02*
X162492Y-90223D01*
X162765Y-90223D02*
X162711Y-90278D01*
X162765Y-90333D01*
X162820Y-90278D01*
X162765Y-90223D01*
X162765Y-90880D02*
X162711Y-90935D01*
X162765Y-90990D01*
X162820Y-90935D01*
X162765Y-90880D01*
X146510Y-96442D02*
X147003Y-96442D01*
X147167Y-96388D01*
X147222Y-96333D01*
X147277Y-96223D01*
X147277Y-96059D01*
X147222Y-95950D01*
X147167Y-95895D01*
X147003Y-95840D01*
X146510Y-95840D01*
X146510Y-96990D01*
X147534Y-96223D02*
X147534Y-96990D01*
X147534Y-96552D02*
X147589Y-96388D01*
X147698Y-96278D01*
X147808Y-96223D01*
X147972Y-96223D01*
X148350Y-96223D02*
X148240Y-96278D01*
X148131Y-96388D01*
X148076Y-96552D01*
X148076Y-96661D01*
X148131Y-96826D01*
X148240Y-96935D01*
X148350Y-96990D01*
X148514Y-96990D01*
X148623Y-96935D01*
X148733Y-96826D01*
X148788Y-96661D01*
X148788Y-96552D01*
X148733Y-96388D01*
X148623Y-96278D01*
X148514Y-96223D01*
X148350Y-96223D01*
X149258Y-95840D02*
X149313Y-95895D01*
X149368Y-95840D01*
X149313Y-95785D01*
X149258Y-95840D01*
X149313Y-96223D02*
X149313Y-97154D01*
X149258Y-97318D01*
X149149Y-97373D01*
X149039Y-97373D01*
X149581Y-96552D02*
X150238Y-96552D01*
X150238Y-96442D01*
X150184Y-96333D01*
X150129Y-96278D01*
X150020Y-96223D01*
X149855Y-96223D01*
X149746Y-96278D01*
X149636Y-96388D01*
X149581Y-96552D01*
X149581Y-96661D01*
X149636Y-96826D01*
X149746Y-96935D01*
X149855Y-96990D01*
X150020Y-96990D01*
X150129Y-96935D01*
X150238Y-96826D01*
X151142Y-96388D02*
X151032Y-96278D01*
X150923Y-96223D01*
X150759Y-96223D01*
X150649Y-96278D01*
X150540Y-96388D01*
X150485Y-96552D01*
X150485Y-96661D01*
X150540Y-96826D01*
X150649Y-96935D01*
X150759Y-96990D01*
X150923Y-96990D01*
X151032Y-96935D01*
X151142Y-96826D01*
X151553Y-95840D02*
X151553Y-96771D01*
X151607Y-96935D01*
X151717Y-96990D01*
X151826Y-96990D01*
X151388Y-96223D02*
X151771Y-96223D01*
X153222Y-95840D02*
X153113Y-95895D01*
X153003Y-96004D01*
X152949Y-96114D01*
X152894Y-96278D01*
X152894Y-96552D01*
X152949Y-96716D01*
X153003Y-96826D01*
X153113Y-96935D01*
X153222Y-96990D01*
X153441Y-96990D01*
X153551Y-96935D01*
X153660Y-96826D01*
X153715Y-96716D01*
X153770Y-96552D01*
X153770Y-96278D01*
X153715Y-96114D01*
X153660Y-96004D01*
X153551Y-95895D01*
X153441Y-95840D01*
X153222Y-95840D01*
X154038Y-96223D02*
X154257Y-96990D01*
X154476Y-96223D02*
X154257Y-96990D01*
X154476Y-96223D02*
X154695Y-96990D01*
X154914Y-96223D02*
X154695Y-96990D01*
X155182Y-96223D02*
X155182Y-96990D01*
X155182Y-96442D02*
X155347Y-96278D01*
X155456Y-96223D01*
X155620Y-96223D01*
X155730Y-96278D01*
X155785Y-96442D01*
X155785Y-96990D01*
X156086Y-96552D02*
X156743Y-96552D01*
X156743Y-96442D01*
X156688Y-96333D01*
X156633Y-96278D01*
X156524Y-96223D01*
X156360Y-96223D01*
X156250Y-96278D01*
X156141Y-96388D01*
X156086Y-96552D01*
X156086Y-96661D01*
X156141Y-96826D01*
X156250Y-96935D01*
X156360Y-96990D01*
X156524Y-96990D01*
X156633Y-96935D01*
X156743Y-96826D01*
X156989Y-96223D02*
X156989Y-96990D01*
X156989Y-96552D02*
X157044Y-96388D01*
X157153Y-96278D01*
X157263Y-96223D01*
X157427Y-96223D01*
X157586Y-96223D02*
X157531Y-96278D01*
X157586Y-96333D01*
X157641Y-96278D01*
X157586Y-96223D01*
X157586Y-96880D02*
X157531Y-96935D01*
X157586Y-96990D01*
X157641Y-96935D01*
X157586Y-96880D01*
X174510Y-96442D02*
X175003Y-96442D01*
X175167Y-96388D01*
X175222Y-96333D01*
X175277Y-96223D01*
X175277Y-96059D01*
X175222Y-95950D01*
X175167Y-95895D01*
X175003Y-95840D01*
X174510Y-95840D01*
X174510Y-96990D01*
X176355Y-96114D02*
X176300Y-96004D01*
X176191Y-95895D01*
X176081Y-95840D01*
X175862Y-95840D01*
X175753Y-95895D01*
X175643Y-96004D01*
X175589Y-96114D01*
X175534Y-96278D01*
X175534Y-96552D01*
X175589Y-96716D01*
X175643Y-96826D01*
X175753Y-96935D01*
X175862Y-96990D01*
X176081Y-96990D01*
X176191Y-96935D01*
X176300Y-96826D01*
X176355Y-96716D01*
X176678Y-95840D02*
X176678Y-96990D01*
X176678Y-95840D02*
X177171Y-95840D01*
X177335Y-95895D01*
X177390Y-95950D01*
X177445Y-96059D01*
X177445Y-96169D01*
X177390Y-96278D01*
X177335Y-96333D01*
X177171Y-96388D01*
X176678Y-96388D02*
X177171Y-96388D01*
X177335Y-96442D01*
X177390Y-96497D01*
X177445Y-96607D01*
X177445Y-96771D01*
X177390Y-96880D01*
X177335Y-96935D01*
X177171Y-96990D01*
X176678Y-96990D01*
X178605Y-95840D02*
X178605Y-96990D01*
X178605Y-95840D02*
X179372Y-96990D01*
X179372Y-95840D02*
X179372Y-96990D01*
X179689Y-95840D02*
X179689Y-96661D01*
X179744Y-96826D01*
X179854Y-96935D01*
X180018Y-96990D01*
X180127Y-96990D01*
X180292Y-96935D01*
X180401Y-96826D01*
X180456Y-96661D01*
X180456Y-95840D01*
X180773Y-95840D02*
X180773Y-96990D01*
X180773Y-95840D02*
X181211Y-96990D01*
X181649Y-95840D02*
X181211Y-96990D01*
X181649Y-95840D02*
X181649Y-96990D01*
X181978Y-95840D02*
X181978Y-96990D01*
X181978Y-95840D02*
X182471Y-95840D01*
X182635Y-95895D01*
X182690Y-95950D01*
X182744Y-96059D01*
X182744Y-96169D01*
X182690Y-96278D01*
X182635Y-96333D01*
X182471Y-96388D01*
X181978Y-96388D02*
X182471Y-96388D01*
X182635Y-96442D01*
X182690Y-96497D01*
X182744Y-96607D01*
X182744Y-96771D01*
X182690Y-96880D01*
X182635Y-96935D01*
X182471Y-96990D01*
X181978Y-96990D01*
X183714Y-95840D02*
X183002Y-95840D01*
X183002Y-96990D01*
X183714Y-96990D01*
X183002Y-96388D02*
X183440Y-96388D01*
X183905Y-95840D02*
X183905Y-96990D01*
X183905Y-95840D02*
X184398Y-95840D01*
X184562Y-95895D01*
X184617Y-95950D01*
X184672Y-96059D01*
X184672Y-96169D01*
X184617Y-96278D01*
X184562Y-96333D01*
X184398Y-96388D01*
X183905Y-96388D01*
X184288Y-96388D02*
X184672Y-96990D01*
X184984Y-96223D02*
X184929Y-96278D01*
X184984Y-96333D01*
X185038Y-96278D01*
X184984Y-96223D01*
X184984Y-96880D02*
X184929Y-96935D01*
X184984Y-96990D01*
X185038Y-96935D01*
X184984Y-96880D01*
X175331Y-90114D02*
X175277Y-90004D01*
X175167Y-89895D01*
X175058Y-89840D01*
X174839Y-89840D01*
X174729Y-89895D01*
X174620Y-90004D01*
X174565Y-90114D01*
X174510Y-90278D01*
X174510Y-90552D01*
X174565Y-90716D01*
X174620Y-90826D01*
X174729Y-90935D01*
X174839Y-90990D01*
X175058Y-90990D01*
X175167Y-90935D01*
X175277Y-90826D01*
X175331Y-90716D01*
X175331Y-90552D01*
X175058Y-90552D02*
X175331Y-90552D01*
X176306Y-89840D02*
X175594Y-89840D01*
X175594Y-90990D01*
X176306Y-90990D01*
X175594Y-90388D02*
X176032Y-90388D01*
X176497Y-89840D02*
X176497Y-90990D01*
X176497Y-89840D02*
X176990Y-89840D01*
X177154Y-89895D01*
X177209Y-89950D01*
X177264Y-90059D01*
X177264Y-90169D01*
X177209Y-90278D01*
X177154Y-90333D01*
X176990Y-90388D01*
X176497Y-90388D01*
X176881Y-90388D02*
X177264Y-90990D01*
X177521Y-89840D02*
X177521Y-90990D01*
X177521Y-89840D02*
X178014Y-89840D01*
X178178Y-89895D01*
X178233Y-89950D01*
X178288Y-90059D01*
X178288Y-90169D01*
X178233Y-90278D01*
X178178Y-90333D01*
X178014Y-90388D01*
X177521Y-90388D02*
X178014Y-90388D01*
X178178Y-90442D01*
X178233Y-90497D01*
X178288Y-90607D01*
X178288Y-90771D01*
X178233Y-90880D01*
X178178Y-90935D01*
X178014Y-90990D01*
X177521Y-90990D01*
X179257Y-89840D02*
X178545Y-89840D01*
X178545Y-90990D01*
X179257Y-90990D01*
X178545Y-90388D02*
X178983Y-90388D01*
X179448Y-89840D02*
X179448Y-90990D01*
X179448Y-89840D02*
X179941Y-89840D01*
X180105Y-89895D01*
X180160Y-89950D01*
X180215Y-90059D01*
X180215Y-90169D01*
X180160Y-90278D01*
X180105Y-90333D01*
X179941Y-90388D01*
X179448Y-90388D01*
X179832Y-90388D02*
X180215Y-90990D01*
X181376Y-89840D02*
X181376Y-90990D01*
X181376Y-89840D02*
X182087Y-89840D01*
X181376Y-90388D02*
X181814Y-90388D01*
X182219Y-89840D02*
X182219Y-90990D01*
X182460Y-89840D02*
X182460Y-90990D01*
X183117Y-90990D01*
X183954Y-89840D02*
X183243Y-89840D01*
X183243Y-90990D01*
X183954Y-90990D01*
X183243Y-90388D02*
X183681Y-90388D01*
X184201Y-90223D02*
X184146Y-90278D01*
X184201Y-90333D01*
X184256Y-90278D01*
X184201Y-90223D01*
X184201Y-90880D02*
X184146Y-90935D01*
X184201Y-90990D01*
X184256Y-90935D01*
X184201Y-90880D01*
X213281Y-98847D02*
X213281Y-98776D01*
X213353Y-98633D01*
X213424Y-98562D01*
X213567Y-98490D01*
X213853Y-98490D01*
X213996Y-98562D01*
X214067Y-98633D01*
X214138Y-98776D01*
X214138Y-98919D01*
X214067Y-99062D01*
X213924Y-99276D01*
X213210Y-99990D01*
X214210Y-99990D01*
X214974Y-98490D02*
X214760Y-98562D01*
X214617Y-98776D01*
X214545Y-99133D01*
X214545Y-99347D01*
X214617Y-99704D01*
X214760Y-99919D01*
X214974Y-99990D01*
X215117Y-99990D01*
X215331Y-99919D01*
X215474Y-99704D01*
X215545Y-99347D01*
X215545Y-99133D01*
X215474Y-98776D01*
X215331Y-98562D01*
X215117Y-98490D01*
X214974Y-98490D01*
X215952Y-98847D02*
X215952Y-98776D01*
X216024Y-98633D01*
X216095Y-98562D01*
X216238Y-98490D01*
X216524Y-98490D01*
X216666Y-98562D01*
X216738Y-98633D01*
X216809Y-98776D01*
X216809Y-98919D01*
X216738Y-99062D01*
X216595Y-99276D01*
X215881Y-99990D01*
X216881Y-99990D01*
X218073Y-98490D02*
X217359Y-98490D01*
X217288Y-99133D01*
X217359Y-99062D01*
X217573Y-98990D01*
X217788Y-98990D01*
X218002Y-99062D01*
X218145Y-99204D01*
X218216Y-99419D01*
X218216Y-99562D01*
X218145Y-99776D01*
X218002Y-99919D01*
X217788Y-99990D01*
X217573Y-99990D01*
X217359Y-99919D01*
X217288Y-99847D01*
X217216Y-99704D01*
X218552Y-99347D02*
X219837Y-99347D01*
X220708Y-98490D02*
X220494Y-98562D01*
X220351Y-98776D01*
X220280Y-99133D01*
X220280Y-99347D01*
X220351Y-99704D01*
X220494Y-99919D01*
X220708Y-99990D01*
X220851Y-99990D01*
X221065Y-99919D01*
X221208Y-99704D01*
X221280Y-99347D01*
X221280Y-99133D01*
X221208Y-98776D01*
X221065Y-98562D01*
X220851Y-98490D01*
X220708Y-98490D01*
X222329Y-98490D02*
X221615Y-99490D01*
X222687Y-99490D01*
X222329Y-98490D02*
X222329Y-99990D01*
X222951Y-99347D02*
X224236Y-99347D01*
X224679Y-98776D02*
X224822Y-98705D01*
X225036Y-98490D01*
X225036Y-99990D01*
X226493Y-98490D02*
X225779Y-99490D01*
X226850Y-99490D01*
X226493Y-98490D02*
X226493Y-99990D01*
X198510Y-81514D02*
X198939Y-81514D01*
X199081Y-81466D01*
X199129Y-81419D01*
X199177Y-81323D01*
X199177Y-81181D01*
X199129Y-81085D01*
X199081Y-81038D01*
X198939Y-80990D01*
X198510Y-80990D01*
X198510Y-81990D01*
X200162Y-81990D02*
X199781Y-80990D01*
X199400Y-81990D01*
X199543Y-81657D02*
X200019Y-81657D01*
X200395Y-80990D02*
X200395Y-81990D01*
X200395Y-80990D02*
X200824Y-80990D01*
X200967Y-81038D01*
X201014Y-81085D01*
X201062Y-81181D01*
X201062Y-81276D01*
X201014Y-81371D01*
X200967Y-81419D01*
X200824Y-81466D01*
X200395Y-81466D01*
X200729Y-81466D02*
X201062Y-81990D01*
X201619Y-80990D02*
X201619Y-81990D01*
X201286Y-80990D02*
X201952Y-80990D01*
X202857Y-80990D02*
X202857Y-81990D01*
X202857Y-80990D02*
X203523Y-81990D01*
X203523Y-80990D02*
X203523Y-81990D01*
X203799Y-80990D02*
X203799Y-81704D01*
X203847Y-81847D01*
X203942Y-81942D01*
X204085Y-81990D01*
X204180Y-81990D01*
X204323Y-81942D01*
X204418Y-81847D01*
X204466Y-81704D01*
X204466Y-80990D01*
X204742Y-80990D02*
X204742Y-81990D01*
X204742Y-80990D02*
X205123Y-81990D01*
X205504Y-80990D02*
X205123Y-81990D01*
X205504Y-80990D02*
X205504Y-81990D01*
X205789Y-80990D02*
X205789Y-81990D01*
X205789Y-80990D02*
X206218Y-80990D01*
X206361Y-81038D01*
X206408Y-81085D01*
X206456Y-81181D01*
X206456Y-81276D01*
X206408Y-81371D01*
X206361Y-81419D01*
X206218Y-81466D01*
X205789Y-81466D02*
X206218Y-81466D01*
X206361Y-81514D01*
X206408Y-81561D01*
X206456Y-81657D01*
X206456Y-81800D01*
X206408Y-81895D01*
X206361Y-81942D01*
X206218Y-81990D01*
X205789Y-81990D01*
X207299Y-80990D02*
X206680Y-80990D01*
X206680Y-81990D01*
X207299Y-81990D01*
X206680Y-81466D02*
X207061Y-81466D01*
X207465Y-80990D02*
X207465Y-81990D01*
X207465Y-80990D02*
X207894Y-80990D01*
X208037Y-81038D01*
X208084Y-81085D01*
X208132Y-81181D01*
X208132Y-81276D01*
X208084Y-81371D01*
X208037Y-81419D01*
X207894Y-81466D01*
X207465Y-81466D01*
X207799Y-81466D02*
X208132Y-81990D01*
X208403Y-81323D02*
X208356Y-81371D01*
X208403Y-81419D01*
X208451Y-81371D01*
X208403Y-81323D01*
X208403Y-81895D02*
X208356Y-81942D01*
X208403Y-81990D01*
X208451Y-81942D01*
X208403Y-81895D01*
D14*
X204510Y-105410D02*
X204510Y-100990D01*
X173510Y-105410D02*
X173510Y-88990D01*
X191510Y-100990D02*
X191510Y-94990D01*
X212010Y-105410D02*
X212010Y-94990D01*
X111510Y-105410D02*
X111510Y-79990D01*
X145510Y-105410D02*
X145510Y-79990D01*
X227330Y-105410D02*
X227330Y-79990D01*
X111510Y-105410D02*
X227330Y-105410D01*
X145510Y-100990D02*
X227330Y-100990D01*
X145510Y-94990D02*
X227330Y-94990D01*
X145510Y-88990D02*
X227330Y-88990D01*
X111510Y-79990D02*
X227330Y-79990D01*
X77470Y-105410D02*
X113030Y-105410D01*
X-85090Y-110490D02*
X-85090Y-105410D01*
X-148590Y-50165D02*
X-143510Y-50165D01*
X-148590Y10160D02*
X-143510Y10160D01*
X-148590Y70485D02*
X-143510Y70485D01*
X-143510Y-105410D02*
X227330Y-105410D01*
X-143510Y-105410D02*
X-143510Y125730D01*
X-148590Y-110490D02*
X232410Y-110490D01*
X-148590Y-110490D02*
X-148590Y130810D01*
X227330Y-105410D02*
X227330Y-74930D01*
X-21590Y-110490D02*
X-21590Y-105410D01*
X41910Y-110490D02*
X41910Y-105410D01*
X105410Y-110490D02*
X105410Y-105410D01*
X168910Y-110490D02*
X168910Y-105410D01*
X227330Y-50165D02*
X232410Y-50165D01*
X227330Y10160D02*
X232410Y10160D01*
X227330Y70485D02*
X232410Y70485D01*
X232410Y-110490D02*
X232410Y130810D01*
X227330Y-105410D02*
X227330Y125730D01*
X-85090Y125730D02*
X-85090Y130810D01*
X-148590Y130810D02*
X232410Y130810D01*
X-143510Y125730D02*
X227330Y125730D01*
X-21590Y125730D02*
X-21590Y130810D01*
X41910Y125730D02*
X41910Y130810D01*
X105410Y125730D02*
X105410Y130810D01*
X168910Y125730D02*
X168910Y130810D01*
X174510Y-101347D02*
X174510Y-102490D01*
X175163Y-102490D01*
X176159Y-102490D02*
X175724Y-101347D01*
X175288Y-102490D01*
X175451Y-102109D02*
X175996Y-102109D01*
X176425Y-101347D02*
X176861Y-101891D01*
X176861Y-102490D01*
X177296Y-101347D02*
X176861Y-101891D01*
X178150Y-101347D02*
X177443Y-101347D01*
X177443Y-102490D01*
X178150Y-102490D01*
X177443Y-101891D02*
X177878Y-101891D01*
X178341Y-101347D02*
X178341Y-102490D01*
X178341Y-101347D02*
X178831Y-101347D01*
X178994Y-101402D01*
X179048Y-101456D01*
X179103Y-101565D01*
X179103Y-101674D01*
X179048Y-101783D01*
X178994Y-101837D01*
X178831Y-101891D01*
X178341Y-101891D01*
X178722Y-101891D02*
X179103Y-102490D01*
X180256Y-101347D02*
X180256Y-102490D01*
X180256Y-101347D02*
X181018Y-102490D01*
X181018Y-101347D02*
X181018Y-102490D01*
X182205Y-102490D02*
X181769Y-101347D01*
X181334Y-102490D01*
X181497Y-102109D02*
X182041Y-102109D01*
X182471Y-101347D02*
X182471Y-102490D01*
X182471Y-101347D02*
X182907Y-102490D01*
X183342Y-101347D02*
X182907Y-102490D01*
X183342Y-101347D02*
X183342Y-102490D01*
X184376Y-101347D02*
X183668Y-101347D01*
X183668Y-102490D01*
X184376Y-102490D01*
X183668Y-101891D02*
X184104Y-101891D01*
X184621Y-101728D02*
X184566Y-101783D01*
X184621Y-101837D01*
X184675Y-101783D01*
X184621Y-101728D01*
X184621Y-102381D02*
X184566Y-102436D01*
X184621Y-102490D01*
X184675Y-102436D01*
X184621Y-102381D01*
X205260Y-101597D02*
X205260Y-102740D01*
X205260Y-101597D02*
X205750Y-101597D01*
X205913Y-101652D01*
X205967Y-101706D01*
X206022Y-101815D01*
X206022Y-101924D01*
X205967Y-102033D01*
X205913Y-102087D01*
X205750Y-102141D01*
X205260Y-102141D01*
X205641Y-102141D02*
X206022Y-102740D01*
X206985Y-101597D02*
X206278Y-101597D01*
X206278Y-102740D01*
X206985Y-102740D01*
X206278Y-102141D02*
X206713Y-102141D01*
X207175Y-101597D02*
X207611Y-102740D01*
X208046Y-101597D02*
X207611Y-102740D01*
X208247Y-101978D02*
X208193Y-102033D01*
X208247Y-102087D01*
X208302Y-102033D01*
X208247Y-101978D01*
X208247Y-102631D02*
X208193Y-102686D01*
X208247Y-102740D01*
X208302Y-102686D01*
X208247Y-102631D01*
X213210Y-95847D02*
X213210Y-96990D01*
X213210Y-95847D02*
X213591Y-95847D01*
X213754Y-95902D01*
X213863Y-96010D01*
X213917Y-96119D01*
X213972Y-96283D01*
X213972Y-96555D01*
X213917Y-96718D01*
X213863Y-96827D01*
X213754Y-96936D01*
X213591Y-96990D01*
X213210Y-96990D01*
X215098Y-96990D02*
X214663Y-95847D01*
X214228Y-96990D01*
X214391Y-96609D02*
X214935Y-96609D01*
X215746Y-95847D02*
X215746Y-96990D01*
X215365Y-95847D02*
X216127Y-95847D01*
X216970Y-95847D02*
X216263Y-95847D01*
X216263Y-96990D01*
X216970Y-96990D01*
X216263Y-96391D02*
X216698Y-96391D01*
X217215Y-96228D02*
X217161Y-96283D01*
X217215Y-96337D01*
X217270Y-96283D01*
X217215Y-96228D01*
X217215Y-96881D02*
X217161Y-96936D01*
X217215Y-96990D01*
X217270Y-96936D01*
X217215Y-96881D01*
X146891Y-81347D02*
X146891Y-82490D01*
X146510Y-81347D02*
X147272Y-81347D01*
X147408Y-81347D02*
X147408Y-82490D01*
X148028Y-81347D02*
X148028Y-82490D01*
X147647Y-81347D02*
X148409Y-81347D01*
X148545Y-81347D02*
X148545Y-82490D01*
X149198Y-82490D01*
X150031Y-81347D02*
X149323Y-81347D01*
X149323Y-82490D01*
X150031Y-82490D01*
X149323Y-81891D02*
X149759Y-81891D01*
X150276Y-81728D02*
X150221Y-81783D01*
X150276Y-81837D01*
X150330Y-81783D01*
X150276Y-81728D01*
X150276Y-82381D02*
X150221Y-82436D01*
X150276Y-82490D01*
X150330Y-82436D01*
X150276Y-82381D01*
D15*
X227330Y116730D02*
X227330Y125730D01*
X105830Y125730D02*
X227330Y125730D01*
X129330Y116730D02*
X129330Y121230D01*
X105830Y121230D02*
X105830Y125730D01*
X105830Y121230D02*
X227330Y121230D01*
X116830Y121230D02*
X116830Y125730D01*
X129330Y121230D02*
X129330Y125730D01*
X207830Y121230D02*
X207830Y125730D01*
X105830Y116730D02*
X105830Y121230D01*
X105830Y116730D02*
X227330Y116730D01*
X207830Y116730D02*
X207830Y121230D01*
X116830Y116730D02*
X116830Y121230D01*
X108330Y122730D02*
X108330Y124254D01*
X109092Y124254D01*
X109346Y124000D01*
X109346Y123492D01*
X109092Y123238D01*
X108330Y123238D01*
X108838Y123238D02*
X109346Y122730D01*
X110869Y124254D02*
X109854Y124254D01*
X109854Y122730D01*
X110869Y122730D01*
X109854Y123492D02*
X110361Y123492D01*
X111377Y124254D02*
X111377Y123238D01*
X111885Y122730D01*
X112393Y123238D01*
X112393Y124254D01*
X119346Y124254D02*
X118330Y124254D01*
X118330Y122730D01*
X119346Y122730D01*
X118330Y123492D02*
X118838Y123492D01*
X120869Y124000D02*
X120615Y124254D01*
X120107Y124254D01*
X119854Y124000D01*
X119854Y122984D01*
X120107Y122730D01*
X120615Y122730D01*
X120869Y122984D01*
X122139Y124254D02*
X121631Y124254D01*
X121377Y124000D01*
X121377Y122984D01*
X121631Y122730D01*
X122139Y122730D01*
X122393Y122984D01*
X122393Y124000D01*
X122139Y124254D01*
X165846Y123500D02*
X165592Y123754D01*
X165084Y123754D01*
X164830Y123500D01*
X164830Y122484D01*
X165084Y122230D01*
X165592Y122230D01*
X165846Y122484D01*
X166607Y122230D02*
X167115Y122230D01*
X167369Y122484D01*
X167369Y122992D01*
X167115Y123246D01*
X166607Y123246D01*
X166354Y122992D01*
X166354Y122484D01*
X166607Y122230D01*
X167877Y122230D02*
X167877Y123246D01*
X168131Y123246D01*
X168385Y122992D01*
X168385Y122230D01*
X168385Y122992D01*
X168639Y123246D01*
X168893Y122992D01*
X168893Y122230D01*
X169401Y122230D02*
X169401Y123246D01*
X169654Y123246D01*
X169908Y122992D01*
X169908Y122230D01*
X169908Y122992D01*
X170162Y123246D01*
X170416Y122992D01*
X170416Y122230D01*
X171686Y122230D02*
X171178Y122230D01*
X170924Y122484D01*
X170924Y122992D01*
X171178Y123246D01*
X171686Y123246D01*
X171940Y122992D01*
X171940Y122738D01*
X170924Y122738D01*
X172448Y122230D02*
X172448Y123246D01*
X173209Y123246D01*
X173463Y122992D01*
X173463Y122230D01*
X174225Y123500D02*
X174225Y123246D01*
X173971Y123246D01*
X174479Y123246D01*
X174225Y123246D01*
X174225Y122484D01*
X174479Y122230D01*
X175241Y122230D02*
X176002Y122230D01*
X176256Y122484D01*
X176002Y122738D01*
X175495Y122738D01*
X175241Y122992D01*
X175495Y123246D01*
X176256Y123246D01*
X212830Y123754D02*
X212830Y122230D01*
X213592Y122230D01*
X213846Y122484D01*
X213846Y123500D01*
X213592Y123754D01*
X212830Y123754D01*
X214607Y123246D02*
X215115Y123246D01*
X215369Y122992D01*
X215369Y122230D01*
X214607Y122230D01*
X214354Y122484D01*
X214607Y122738D01*
X215369Y122738D01*
X216131Y123500D02*
X216131Y123246D01*
X215877Y123246D01*
X216385Y123246D01*
X216131Y123246D01*
X216131Y122484D01*
X216385Y122230D01*
X217908Y122230D02*
X217401Y122230D01*
X217147Y122484D01*
X217147Y122992D01*
X217401Y123246D01*
X217908Y123246D01*
X218162Y122992D01*
X218162Y122738D01*
X217147Y122738D01*
D16*
X147576Y-98619D02*
X147424Y-98466D01*
X147196Y-98390D01*
X146891Y-98390D01*
X146662Y-98466D01*
X146510Y-98619D01*
X146510Y-98771D01*
X146586Y-98924D01*
X146662Y-99000D01*
X146815Y-99076D01*
X147272Y-99228D01*
X147424Y-99304D01*
X147500Y-99381D01*
X147576Y-99533D01*
X147576Y-99761D01*
X147424Y-99914D01*
X147196Y-99990D01*
X146891Y-99990D01*
X146662Y-99914D01*
X146510Y-99761D01*
X147934Y-98390D02*
X147934Y-99990D01*
X148849Y-99990D01*
X149557Y-98390D02*
X149557Y-99990D01*
X149024Y-98390D02*
X150090Y-98390D01*
X174967Y-98390D02*
X174739Y-98466D01*
X174586Y-98695D01*
X174510Y-99076D01*
X174510Y-99304D01*
X174586Y-99685D01*
X174739Y-99914D01*
X174967Y-99990D01*
X175119Y-99990D01*
X175348Y-99914D01*
X175500Y-99685D01*
X175576Y-99304D01*
X175576Y-99076D01*
X175500Y-98695D01*
X175348Y-98466D01*
X175119Y-98390D01*
X174967Y-98390D01*
X176696Y-98390D02*
X175934Y-99457D01*
X177077Y-99457D01*
X176696Y-98390D02*
X176696Y-99990D01*
X177359Y-99304D02*
X178730Y-99304D01*
X179202Y-98695D02*
X179355Y-98619D01*
X179583Y-98390D01*
X179583Y-99990D01*
X180452Y-98771D02*
X180452Y-98695D01*
X180528Y-98543D01*
X180604Y-98466D01*
X180756Y-98390D01*
X181061Y-98390D01*
X181213Y-98466D01*
X181290Y-98543D01*
X181366Y-98695D01*
X181366Y-98847D01*
X181290Y-99000D01*
X181137Y-99228D01*
X180375Y-99990D01*
X181442Y-99990D01*
X182562Y-98390D02*
X181800Y-99457D01*
X182942Y-99457D01*
X182562Y-98390D02*
X182562Y-99990D01*
X183681Y-98390D02*
X183453Y-98466D01*
X183301Y-98695D01*
X183224Y-99076D01*
X183224Y-99304D01*
X183301Y-99685D01*
X183453Y-99914D01*
X183681Y-99990D01*
X183834Y-99990D01*
X184062Y-99914D01*
X184215Y-99685D01*
X184291Y-99304D01*
X184291Y-99076D01*
X184215Y-98695D01*
X184062Y-98466D01*
X183834Y-98390D01*
X183681Y-98390D01*
X185639Y-98924D02*
X185563Y-99152D01*
X185411Y-99304D01*
X185182Y-99381D01*
X185106Y-99381D01*
X184877Y-99304D01*
X184725Y-99152D01*
X184649Y-98924D01*
X184649Y-98847D01*
X184725Y-98619D01*
X184877Y-98466D01*
X185106Y-98390D01*
X185182Y-98390D01*
X185411Y-98466D01*
X185563Y-98619D01*
X185639Y-98924D01*
X185639Y-99304D01*
X185563Y-99685D01*
X185411Y-99914D01*
X185182Y-99990D01*
X185030Y-99990D01*
X184801Y-99914D01*
X184725Y-99761D01*
D17*
X146510Y-83991D02*
X146510Y-86490D01*
X146510Y-83991D02*
X147462Y-86490D01*
X148414Y-83991D02*
X147462Y-86490D01*
X148414Y-83991D02*
X148414Y-86490D01*
X149962Y-83991D02*
X149962Y-86490D01*
X149128Y-83991D02*
X150795Y-83991D01*
X152878Y-84586D02*
X152759Y-84348D01*
X152521Y-84110D01*
X152283Y-83991D01*
X151807Y-83991D01*
X151568Y-84110D01*
X151330Y-84348D01*
X151211Y-84586D01*
X151092Y-84943D01*
X151092Y-85538D01*
X151211Y-85895D01*
X151330Y-86133D01*
X151568Y-86371D01*
X151807Y-86490D01*
X152283Y-86490D01*
X152521Y-86371D01*
X152759Y-86133D01*
X152878Y-85895D01*
X153580Y-83991D02*
X153580Y-86490D01*
X155246Y-83991D02*
X155246Y-86490D01*
X153580Y-85181D02*
X155246Y-85181D01*
X157484Y-84824D02*
X157365Y-85181D01*
X157127Y-85419D01*
X156770Y-85538D01*
X156651Y-85538D01*
X156294Y-85419D01*
X156056Y-85181D01*
X155937Y-84824D01*
X155937Y-84705D01*
X156056Y-84348D01*
X156294Y-84110D01*
X156651Y-83991D01*
X156770Y-83991D01*
X157127Y-84110D01*
X157365Y-84348D01*
X157484Y-84824D01*
X157484Y-85419D01*
X157365Y-86014D01*
X157127Y-86371D01*
X156770Y-86490D01*
X156532Y-86490D01*
X156175Y-86371D01*
X156056Y-86133D01*
X158876Y-83991D02*
X158519Y-84110D01*
X158281Y-84467D01*
X158162Y-85062D01*
X158162Y-85419D01*
X158281Y-86014D01*
X158519Y-86371D01*
X158876Y-86490D01*
X159114Y-86490D01*
X159472Y-86371D01*
X159710Y-86014D01*
X159829Y-85419D01*
X159829Y-85062D01*
X159710Y-84467D01*
X159472Y-84110D01*
X159114Y-83991D01*
X158876Y-83991D01*
X160388Y-84467D02*
X160626Y-84348D01*
X160983Y-83991D01*
X160983Y-86490D01*
X162935Y-83991D02*
X162578Y-84110D01*
X162340Y-84467D01*
X162221Y-85062D01*
X162221Y-85419D01*
X162340Y-86014D01*
X162578Y-86371D01*
X162935Y-86490D01*
X163173Y-86490D01*
X163530Y-86371D01*
X163768Y-86014D01*
X163887Y-85419D01*
X163887Y-85062D01*
X163768Y-84467D01*
X163530Y-84110D01*
X163173Y-83991D01*
X162935Y-83991D01*
X168077Y-84348D02*
X167839Y-84110D01*
X167482Y-83991D01*
X167006Y-83991D01*
X166649Y-84110D01*
X166411Y-84348D01*
X166411Y-84586D01*
X166530Y-84824D01*
X166649Y-84943D01*
X166887Y-85062D01*
X167601Y-85300D01*
X167839Y-85419D01*
X167958Y-85538D01*
X168077Y-85776D01*
X168077Y-86133D01*
X167839Y-86371D01*
X167482Y-86490D01*
X167006Y-86490D01*
X166649Y-86371D01*
X166411Y-86133D01*
X168636Y-85538D02*
X170064Y-85538D01*
X170064Y-85300D01*
X169945Y-85062D01*
X169826Y-84943D01*
X169588Y-84824D01*
X169231Y-84824D01*
X168993Y-84943D01*
X168755Y-85181D01*
X168636Y-85538D01*
X168636Y-85776D01*
X168755Y-86133D01*
X168993Y-86371D01*
X169231Y-86490D01*
X169588Y-86490D01*
X169826Y-86371D01*
X170064Y-86133D01*
X170600Y-84824D02*
X170600Y-86490D01*
X170600Y-85300D02*
X170957Y-84943D01*
X171195Y-84824D01*
X171552Y-84824D01*
X171790Y-84943D01*
X171909Y-85300D01*
X171909Y-86490D01*
X173873Y-85181D02*
X173754Y-84943D01*
X173397Y-84824D01*
X173040Y-84824D01*
X172683Y-84943D01*
X172564Y-85181D01*
X172683Y-85419D01*
X172921Y-85538D01*
X173516Y-85657D01*
X173754Y-85776D01*
X173873Y-86014D01*
X173873Y-86133D01*
X173754Y-86371D01*
X173397Y-86490D01*
X173040Y-86490D01*
X172683Y-86371D01*
X172564Y-86133D01*
X174992Y-84824D02*
X174754Y-84943D01*
X174516Y-85181D01*
X174397Y-85538D01*
X174397Y-85776D01*
X174516Y-86133D01*
X174754Y-86371D01*
X174992Y-86490D01*
X175349Y-86490D01*
X175587Y-86371D01*
X175825Y-86133D01*
X175944Y-85776D01*
X175944Y-85538D01*
X175825Y-85181D01*
X175587Y-84943D01*
X175349Y-84824D01*
X174992Y-84824D01*
X176492Y-84824D02*
X176492Y-86490D01*
X176492Y-85538D02*
X176611Y-85181D01*
X176849Y-84943D01*
X177087Y-84824D01*
X177444Y-84824D01*
X178979Y-85181D02*
X178860Y-84943D01*
X178503Y-84824D01*
X178146Y-84824D01*
X177789Y-84943D01*
X177670Y-85181D01*
X177789Y-85419D01*
X178027Y-85538D01*
X178622Y-85657D01*
X178860Y-85776D01*
X178979Y-86014D01*
X178979Y-86133D01*
X178860Y-86371D01*
X178503Y-86490D01*
X178146Y-86490D01*
X177789Y-86371D01*
X177670Y-86133D01*
D19*
X4020Y13730D02*
D03*
X4020Y16270D02*
D03*
X4020Y43730D02*
D03*
X4020Y46270D02*
D03*
D20*
X34600Y2400D02*
D03*
X2400Y2400D02*
D03*
X2400Y32500D02*
D03*
X2400Y57600D02*
D03*
X34600Y57600D02*
D03*
X34600Y32500D02*
D03*
X2400Y27500D02*
D03*
X34600Y27500D02*
D03*
M02*
